<?xml version="1.0" encoding="UTF-8" standalone="no"?>
<!-- Created with Inkscape (http://www.inkscape.org/) -->

<svg
   width="247.48708mm"
   height="279.49017mm"
   viewBox="0 0 247.48711 279.49016"
   version="1.1"
   id="svg1"
   xml:space="preserve"
   xmlns="http://www.w3.org/2000/svg"
   xmlns:svg="http://www.w3.org/2000/svg"><defs
     id="defs1"><clipPath
       clipPathUnits="userSpaceOnUse"
       id="clipPath6"><path
         id="path7"
         style="fill:#ff0000;fill-opacity:1;fill-rule:nonzero;stroke:none;stroke-width:0.264583"
         d="M -175.07778,-16.057127 V 287.55793 H 124.54631 V -16.057127 Z m 132.7459,202.572647 c 0.210643,0.005 0.427212,0.0169 0.650089,0.0367 2.23823,0.19855 4.475655,0.4031 6.717938,0.55346 1.973313,0.11308 0.986628,0.0436 2.958475,0.20825 3.181295,0.26563 4.740125,1.85116 4.950601,3.46956 4.949923,1.63749 3.796379,7.35609 -2.592089,6.81354 -3.228716,-0.27422 -1.569593,-0.1301 -4.979024,-0.43357 -4.228209,-0.39317 -8.460616,-0.76265 -12.666927,-1.35341 -6.647387,-0.93358 -5.930551,-7.21034 0.03204,-7.20421 0.04685,5e-5 0.0972,0.004 0.144695,0.005 0.687229,-1.21692 2.304132,-2.15435 4.784204,-2.09548 z" /></clipPath><clipPath
       clipPathUnits="userSpaceOnUse"
       id="clipPath76"><path
         id="path77"
         style="fill:#ff0000;fill-opacity:1;fill-rule:nonzero;stroke:none;stroke-width:0.264583"
         d="M -133.83107,-122.52355 V 173.82063 H 122.97289 V -122.52355 Z M 13.574404,98.948202 c 2.788179,0.0507 4.135003,2.063798 3.398242,4.077268 0.199805,0.45372 0.374906,0.96736 0.517797,1.54461 1.07913,4.35948 0.671079,8.891 0.311608,13.31495 -0.351859,3.06036 -0.147137,1.57974 -0.604097,4.44366 -0.359666,2.25418 -1.333846,3.66838 -2.455664,4.32532 0.105138,0.36595 0.224724,0.72888 0.324528,1.09554 0.6273,2.23652 0.575201,4.47401 0.39429,6.75514 -0.137303,1.73129 -0.688065,2.99533 -1.427303,3.82199 -0.112477,0.41601 -0.170275,0.80219 -0.311092,1.25212 -0.184975,0.59102 -0.413327,1.1061 -0.670242,1.55856 0.741137,-0.23134 1.446982,-0.38145 2.064991,-0.37517 4.085002,0.0415 5.222724,4.75435 -0.02223,7.27138 -4.46677,2.14368 -9.303523,3.34693 -14.11903492,4.40955 -4.40876268,0.85156 -8.89238128,1.33053 -13.38264308,1.19269 -5.804014,-0.17807 -6.736297,-5.00293 -3.065447,-6.67298 -2.072987,-0.65744 -4.042852,-1.62261 -4.128947,-3.14709 -0.02802,-0.49633 0.0026,-0.90355 0.0341,-1.30897 -1.976731,-0.003 -3.95339,2.4e-4 -5.930386,0.003 -0.814031,0 -1.53062,-0.0962 -2.159559,-0.26149 -0.376306,0.19492 -0.742394,0.40783 -1.120862,0.59893 -6.391272,3.22657 -9.625245,-3.24074 -3.234428,-6.46886 1.833438,-0.92611 3.62694,-1.92211 5.414142,-2.92954 -0.877003,-3.87058 -1.368747,-7.83436 -1.323951,-11.80858 0.01651,-1.46304 0.376836,-2.54918 0.864547,-3.41426 -1.247357,-1.79999 -0.223805,-4.63069 3.842661,-5.68855 3.11826,-0.81116 6.282901,-1.39515 9.473837,-1.82211 -1.259816,-0.12657 -2.516182,-0.30233 -3.764627,-0.50177 -1.477002,-0.21985 -2.935575,-0.54305 -4.407482,-0.7891 -1.14214,-0.22954 -0.588502,-0.12004 -1.660882,-0.3297 -3.350244,-0.65501 -4.783278,-2.61088 -4.608504,-4.32997 -0.200179,-1.7721 1.333365,-3.52972 4.663799,-3.59461 v -5.3e-4 c 0.20954,-0.004 0.426035,-0.002 0.649571,0.008 1.77111,0.0772 3.528708,0.28204 5.26428,0.64027 1.655035,0.33225 3.314115,0.6481 4.955251,1.04439 1.244759,0.34858 2.51628,0.54538 3.7997689,0.6723 0.025956,0.002 0.052073,0.002 0.078034,0.004 0.4990888,-0.0371 0.9984105,-0.0743 1.4965495,-0.11317 1.346872,-0.12588 2.6913231,-0.25136 4.0457464,-0.24236 1.1278499,-0.0444 2.2567291,-0.10772 3.37498791,-0.26872 0.75719517,-0.11591 1.51142439,-0.25483 2.25722659,-0.4284 0.3616431,-0.12394 0.7240561,-0.24538 1.083138,-0.37775 0.3360393,-0.12388 0.6107589,-0.12825 0.9250071,-0.20723 0.1281086,-0.045 0.2583895,-0.0825 0.3855085,-0.13074 1.9825018,-0.7681 3.9540551,-1.56464 5.9510551,-2.29443 1.050809,-0.383992 1.999634,-0.542639 2.826703,-0.527616 z M 0.70283723,110.39557 c -0.45566013,0.0949 -0.90775367,0.208 -1.36890919,0.2744 -1.16638124,0.15534 -2.34111274,0.24237 -3.51761424,0.26251 0.4031694,0.0896 0.8047355,0.18876 1.2025101,0.308 0.1014836,0.0304 0.1982549,0.075 0.2986907,0.10852 0.4205235,-0.21824 0.9206601,-0.35072 1.4898318,-0.37156 0.39885139,-0.0146 0.83259872,0.0278 1.29449508,0.13023 0.22468681,-0.12213 0.44967525,-0.24374 0.67437529,-0.36587 -0.0326284,-0.11319 -0.058211,-0.22834 -0.0733795,-0.34623 z m 10.24433577,1.02474 c -0.76023,0.21437 -1.5189569,0.4343 -2.2696301,0.68006 -0.031261,0.62207 -0.2256075,1.28373 -0.6464723,1.94355 0.6236891,0.43248 1.2549743,1.04482 1.8634525,1.86862 0.2674939,0.36214 0.4748849,0.75712 0.7188199,1.13223 0.154519,-1.86707 0.314174,-3.74736 0.33383,-5.62446 z m 64.566086,3.39773 c 1.50346,0.0187 3.129182,1.24994 3.928441,4.04678 0.257931,0.90255 0.823497,1.65871 1.488797,2.30735 0.856321,0.95375 1.845738,1.76777 2.801898,2.61638 1.458581,1.46408 2.789203,3.04608 4.169772,4.58215 1.315059,1.44746 2.571226,2.91698 3.543967,4.61884 0.0053,0.01 0.0082,0.0206 0.01344,0.0305 0.734605,-0.43313 1.446276,-0.65634 2.094962,-0.69195 3.016182,-0.16561 4.69137,3.55377 1.187525,7.32306 -1.69471,1.82311 -3.657862,3.33908 -5.68751,4.7651 -0.777873,0.49914 -1.607691,0.90075 -2.418456,1.33842 0.165478,1.44344 -0.672182,3.24303 -2.956409,4.73096 -1.354556,0.88234 -2.690448,1.79306 -4.075203,2.6288 -2.075008,1.20078 -4.233777,2.27962 -6.540687,2.96259 -2.077586,0.62971 -4.169056,1.29987 -6.359301,1.36374 -1.872114,0.0897 -3.746989,0.0368 -5.620845,0.0501 h -5.1108 -5.524728 c -7.160125,0 -7.160125,-7.23315 0,-7.23315 h 1.347722 c 0.29438,-0.0541 0.5212,-0.1588 0.84801,-0.18656 1.106628,-0.094 2.200932,-0.28334 3.292822,-0.48421 0.456121,-0.98163 1.356053,-1.98213 2.807581,-2.83962 1.078018,-0.63685 2.158119,-1.26923 3.212209,-1.94561 1.962647,-1.29302 3.840588,-2.72135 5.893696,-3.86902 1.367169,-0.76424 2.559646,-1.07097 3.526915,-1.04128 2.216811,0.068 3.246223,1.90266 2.479953,4.04059 1.105688,-0.48686 2.206929,-0.98346 3.283003,-1.53739 2.619811,-1.23728 5.288743,-2.38548 7.764385,-3.9026 0.246153,-0.17184 0.487463,-0.34958 0.730705,-0.52503 -0.126915,-0.50614 -0.277693,-0.9939 -0.512114,-1.46554 -0.647621,-1.25778 -1.721077,-2.20654 -2.600875,-3.29644 -1.199229,-1.33472 -2.369312,-2.69496 -3.592029,-4.00803 -1.098706,-0.97599 -2.227236,-1.92181 -3.215306,-3.01428 -1.300821,-1.39063 -2.459913,-2.93896 -3.045293,-4.77801 -1.289469,-4.05101 0.646382,-6.61405 2.843754,-6.58667 z m -95.086705,4.28035 c -0.465643,0.10748 -0.930899,0.21773 -1.394745,0.33435 0.171958,0.64334 0.283575,1.36624 0.279569,2.2071 -0.01267,2.6582 0.205063,5.32647 0.670242,7.94732 0.280107,-0.17087 0.565767,-0.33222 0.845429,-0.50385 -0.01897,-0.36223 -0.02445,-0.73164 -0.05529,-1.08985 -0.118034,-2.96491 -0.160888,-5.93314 -0.3452,-8.89507 z m 18.5141159,1.1958 c 0.00497,0.0773 0.00619,0.15612 0.014975,0.23202 -0.1238779,0.22787 -0.2588048,0.44752 -0.3937741,0.66715 0.58900751,0.0447 1.13203305,0.21413 1.64331124,0.45888 -0.37615284,-0.49255 -0.78353709,-0.94642 -1.26452314,-1.35805 z m -6.5422357,14.57068 c -0.046649,0.0755 -0.09888,0.14702 -0.1436608,0.22376 -0.03147,0.054 0.1963367,0.0838 0.1860365,0.0222 -0.017595,-0.10481 -0.026035,-0.14905 -0.042376,-0.24597 z m 13.9236979,6.08439 c -0.2236258,0.5643 -0.5677508,1.09664 -1.1782213,1.50533 0.9079653,0.17659 1.7077452,0.44257 2.2830631,0.84852 0.1405493,-0.0459 0.272804,-0.11448 0.4128956,-0.16174 -0.7336976,-0.43656 -1.2984269,-1.18703 -1.5177374,-2.19211 z" /></clipPath><clipPath
       clipPathUnits="userSpaceOnUse"
       id="clipPath127"><path
         id="path128"
         style="fill:#ff0000;fill-opacity:1;fill-rule:nonzero;stroke:none;stroke-width:0.264583"
         d="M -112.24796,-126.55676 V 185.58027 H 148.5754 V -126.55676 Z M 46.874626,83.305366 c 1.808208,0 3.616317,1.790192 3.616317,5.370214 v 5.232238 c 0.0627,2.146078 -0.111291,4.285324 -0.245462,6.424932 -0.136289,2.02485 -0.190703,4.04985 -0.104904,6.07715 0.192061,1.91863 0.527714,3.82569 0.876432,5.72213 0.304242,2.00862 0.765826,3.9858 1.180806,5.97276 0.41642,1.86142 0.967934,3.68703 1.421104,5.53972 0.25287,0.86996 0.117097,0.46495 0.396356,1.22008 0.186108,0.50319 0.223428,0.93098 0.309544,1.38441 4.425355,2.23251 2.751262,7.58433 -3.415813,6.40477 -3.104732,-0.59371 -6.256094,-0.76586 -9.40821,-0.85576 -3.81635,0.009 -7.630525,0.17062 -11.44478,0.28216 -1.12776,0.0333 -2.255837,0.0512 -3.383772,0.0754 -0.908129,0.5548 -1.966518,0.57724 -2.88613,0.0641 -0.03584,5.3e-4 -0.07165,0.002 -0.107487,0.003 -0.03142,5.3e-4 -0.0525,-0.009 -0.08268,-0.009 -0.32049,0.14732 -0.641715,0.29301 -0.962215,0.44028 -0.262501,0.12062 -0.518089,0.22111 -0.770496,0.31265 -0.876996,0.71434 -1.945576,0.85817 -2.911967,0.46405 -2.943479,-0.21613 -4.295167,-2.77187 -2.550232,-5.0524 -2.22e-4,-0.028 -0.0078,-0.0483 -0.0078,-0.0765 v -6.3469 c -0.014,-2.72977 -0.02254,-5.45666 0.112657,-8.18348 0.135676,-2.32533 0.233519,-4.6523 0.299723,-6.98046 0.046,-1.80459 0.06926,-3.60958 0.08527,-5.41465 -0.0258,-1.02998 0.04009,-2.054459 0.138491,-3.078883 0.0044,-0.04602 0.02191,-0.07504 0.02687,-0.120406 C 15.992671,97.193438 15.83363,95.70984 16.656834,94.418959 10.68718,93.678613 10.992573,87.32947 17.739972,87.32947 h 3.885033 5.177462 5.913334 c 1.498505,0.05847 2.984222,-0.03228 4.475178,-0.161748 1.252041,-0.18606 2.49041,-0.398671 3.697968,-0.782897 1.001961,-0.32245 0.492366,-0.161472 1.527553,-0.482142 0.510384,-0.158096 0.938446,-0.174371 1.394749,-0.23771 0.672338,-1.56932 1.86623,-2.35903 3.063377,-2.35903 z" /></clipPath><clipPath
       clipPathUnits="userSpaceOnUse"
       id="clipPath139"><path
         id="path140"
         style="fill:#ff0000;fill-opacity:1;fill-rule:nonzero;stroke:none;stroke-width:0.264583"
         d="M 97.168006,-339.91235 V -44.578961 H 346.46958 V -339.91235 Z m 14.326254,94.53944 c 1.76488,0.006 3.77708,1.78446 4.35839,5.31699 0.32911,1.99994 0.60308,4.00817 0.88884,6.01462 1.02527,-1.2445 2.22305,-1.83589 3.28403,-1.8402 2.05627,-0.008 3.59454,2.17302 2.34611,6.00222 -0.0197,0.0606 -0.0413,0.12046 -0.0615,0.18087 0.31698,0.91799 0.41757,2.09982 0.17777,3.54139 -0.2164,1.30085 -0.62011,2.56457 -1.0263,3.8163 -1.34183,4.13496 -4.42238,4.92072 -6.12882,3.38016 -1.93867,0.62007 -4.30523,-0.86149 -4.65605,-4.82762 -0.16862,-1.90632 -0.33891,-3.81275 -0.57464,-5.71231 -0.45291,-3.52522 -1.07719,-7.02592 -1.48208,-10.55543 -0.40801,-3.55672 1.10935,-5.32303 2.87424,-5.31699 z" /></clipPath><clipPath
       clipPathUnits="userSpaceOnUse"
       id="clipPath170"><path
         id="path171"
         style="fill:#ff0000;fill-opacity:1;fill-rule:nonzero;stroke:none;stroke-width:0.264583"
         d="M 88.756261,-299.52331 V 17.880567 H 410.91541 V -299.52331 Z M 363.24287,-220.863 c 0.90345,-0.008 1.97628,0.23856 3.18532,0.82218 3.39402,1.63831 6.49674,3.81197 9.57823,5.96449 3.22509,2.31448 6.37511,4.73585 9.43663,7.26261 1.87296,1.50796 3.75989,2.99047 5.54284,4.6054 1.76167,1.54167 3.42262,3.17283 4.95419,4.94388 1.19316,1.48882 2.47049,2.9032 3.73311,4.33204 1.08043,1.20022 2.09423,2.45631 2.94299,3.83026 0.82616,1.73429 1.48968,3.55524 1.93786,5.42344 1.67031,6.96258 -5.76469,8.62686 -7.05745,1.5844 -0.21127,-1.15093 -0.75649,-2.20765 -1.10278,-3.32021 -0.52141,-1.02678 -1.43909,-1.82952 -2.14042,-2.72904 -1.28368,-1.45272 -2.58234,-2.89095 -3.79617,-4.40386 -1.32794,-1.55409 -2.79577,-2.95456 -4.33049,-4.3031 -1.69875,-1.54267 -3.51006,-2.94207 -5.29113,-4.38733 -2.90883,-2.40671 -5.90918,-4.70386 -8.97258,-6.91017 -2.63017,-1.83963 -5.2759,-3.68008 -8.12096,-5.17746 -5.14813,-2.7095 -4.41412,-7.50431 -0.49919,-7.53753 z m -17.79788,14.64304 c 0.81097,-0.004 1.74701,0.16947 2.79104,0.57154 4.59168,1.76834 8.99191,4.00303 13.38523,6.20892 0.37082,0.1876 0.72266,0.4088 1.09088,0.601 0.4155,-0.11565 0.91038,-0.17484 1.48572,-0.16691 0.65984,0.009 1.42523,0.10601 2.29753,0.30644 2.35556,0.54125 4.30075,1.95473 6.16344,3.42614 -1.07651,-2.72314 0.34142,-4.84679 2.57866,-4.84311 1.28683,0.002 2.83083,0.70484 4.29689,2.3952 2.44776,2.82227 4.79147,5.70892 6.96391,8.74934 1.67944,2.35043 1.72027,4.43615 0.89969,5.70663 1.5344,1.02281 3.07247,2.04019 4.58422,3.09645 1.80695,1.14136 3.31928,2.58833 4.72631,4.18269 0.96689,1.16625 2.0869,2.25988 2.79262,3.61942 0.19542,0.37651 0.34592,0.77482 0.51882,1.1622 0.40259,1.55462 0.27207,0.76263 0.38706,2.3766 0.0637,0.89436 -0.044,1.45412 -0.26977,1.7756 0.11753,0.20753 0.23421,0.41574 0.35608,0.62063 3.66003,6.15399 -2.6856,9.845 -6.25234,3.63648 -0.83209,-1.44832 -1.62388,-2.92102 -2.35437,-4.42351 -0.84839,-1.84687 -1.70402,-3.69055 -2.54093,-5.54229 -0.078,-0.17246 -0.14713,-0.34128 -0.2119,-0.5085 -0.415,-0.33988 -0.82071,-0.68775 -1.29707,-0.97255 -2.35545,-1.64933 -4.79565,-3.17384 -7.14841,-4.82761 -3.27895,-2.27743 -6.61384,-4.47194 -9.95804,-6.65231 -4.00886,-2.60003 -8.08797,-5.09434 -12.3548,-7.25434 -4.08429,-2.05175 -8.1752,-4.1242 -12.42663,-5.81101 -5.61546,-2.22804 -4.88331,-7.4129 -0.50384,-7.43314 z m -225.34594,21.50101 c 3.05551,-0.16929 4.03285,3.80875 0.35915,7.72563 -1.17612,1.25397 -2.32696,2.59265 -3.45922,3.90674 -1.44062,1.57315 -2.77631,3.23874 -4.13618,4.88135 -1.14319,1.4697 -2.29319,2.93265 -3.46335,4.38113 -0.8717,1.2084 -1.86054,2.32105 -2.81017,3.46594 -0.80685,0.95022 -1.53489,1.96075 -2.32234,2.92695 -0.80594,1.00684 -1.52017,2.08004 -2.22519,3.15847 -0.20511,0.28103 -0.29499,0.51935 -0.30179,0.78909 -0.18033,7.15787 -8.659963,5.5717 -7.093102,-1.4149 0.267098,-1.19094 0.644303,-2.32859 1.347721,-3.34243 0.846108,-1.28566 1.701136,-2.56663 2.670121,-3.76463 0.806525,-0.98525 1.5446,-2.0236 2.37453,-2.98999 0.93132,-1.109 1.88214,-2.2008 2.7342,-3.37448 1.18855,-1.47082 2.35327,-2.95822 3.51813,-4.44779 1.39067,-1.67946 2.758,-3.38112 4.2292,-4.99142 1.55862,-1.80675 3.07205,-3.68494 4.92528,-5.20227 1.38505,-1.13397 2.63451,-1.65096 3.65301,-1.70739 z m 30.4953,3.26389 c 4.11093,0.0973 5.25218,4.81763 -0.0434,7.22591 -1.93926,0.8819 -3.80509,1.88928 -5.66115,2.92437 0.381,1.39299 -0.23993,3.26566 -2.43035,4.98678 -2.3369,1.83618 -4.71607,3.61825 -7.08845,5.40845 -2.84267,2.19936 -5.66068,4.43162 -8.41086,6.74584 -2.22216,1.84972 -4.46469,3.67225 -6.66213,5.55109 -1.67979,1.46598 -3.37138,2.91821 -5.06067,4.37337 -1.40892,1.30469 -2.82191,2.592 -4.12274,4.00648 -1.07181,1.16531 -2.16701,1.83049 -3.17087,2.10529 -0.88357,6.53411 -7.65001,5.87099 -7.10344,-1.07177 0.0596,-0.75732 0.12015,-1.51435 0.21239,-2.26859 0.18237,-1.4495 0.31176,-2.90657 0.57051,-4.34444 0.56059,-2.2771 1.55106,-4.35314 3.32124,-5.95312 1.46716,-1.38711 2.94871,-2.75912 4.4943,-4.05919 1.45063,-1.21601 2.91967,-2.40825 4.4111,-3.57394 2.2284,-1.75259 4.48249,-3.46927 6.81044,-5.08961 3.1083,-2.16601 6.29001,-4.21936 9.5343,-6.17689 3.28252,-2.04598 6.49796,-4.19789 9.78648,-6.23476 2.38673,-1.38679 4.82146,-2.65715 7.33495,-3.79873 1.22236,-0.55516 2.32966,-0.77899 3.27836,-0.75654 z" /></clipPath><clipPath
       clipPathUnits="userSpaceOnUse"
       id="clipPath233"><path
         id="path234"
         style="fill:#ff0000;fill-opacity:1;fill-rule:nonzero;stroke:none;stroke-width:0.264583"
         d="M 185.24069,-319.24193 V -24.289387 H 425.09684 V -319.24193 Z m 138.35487,149.6534 c 1.78419,7.9e-4 3.63037,1.79012 3.80182,5.36608 0.0643,1.33996 -0.0719,2.65433 -0.29041,3.95842 0.27255,-0.0735 0.56767,-0.11689 0.88522,-0.12351 0.37047,-0.008 0.77026,0.0328 1.19579,0.12867 0.38629,-0.24279 0.8215,-0.42195 1.34254,-0.44493 1.13073,-0.0499 2.53823,0.47335 4.04474,1.80971 0.4186,0.37135 0.80759,0.77178 1.2056,1.16323 0.49581,-0.30652 1.09744,-0.47283 1.77559,-0.44028 1.18851,0.0571 2.59295,0.69888 3.98788,2.15129 2.63375,2.74227 4.82211,5.85047 6.92256,9.00669 2.43144,3.88376 4.79634,7.81591 6.98098,11.84475 1.13959,2.01485 2.36363,3.97199 3.24527,6.11746 0.86638,2.54168 0.71525,4.37292 -0.15348,6.88278 -0.88855,2.03627 -2.18951,3.83746 -3.64937,5.49682 -1.22616,1.21887 -2.44396,2.51198 -3.976,3.35587 -0.38219,0.21053 -0.79187,0.3659 -1.18803,0.54881 -6.50071,3.00135 -9.83602,-5.23462 -2.81948,-6.6611 1.07346,-0.21823 1.75532,-1.41088 2.56987,-2.0407 0.86323,-0.96375 1.62015,-2.00233 2.25208,-3.13417 0.24334,-0.63932 0.47847,-1.05078 0.24958,-1.76114 -0.42873,-1.13152 -1.03555,-2.17502 -1.65674,-3.21169 -0.64492,3.08426 -3.96214,3.78517 -6.03631,0.97152 -0.80928,1.85722 -3.53859,2.62684 -6.75775,0.30902 -0.53872,-0.38787 -1.07831,-0.77486 -1.61745,-1.1622 -3.08248,4.62545 -3.94671,5.04673 -6.74584,2.87063 -2.73204,-2.16473 -5.33615,-4.48821 -8.05999,-6.6642 -2.7461,-2.45053 -5.40757,-5.07957 -7.04763,-8.42635 -1.62115,-0.12575 -3.24178,-0.2569 -4.86637,-0.34314 -7.58719,-0.44787 -15.17743,-0.9445 -22.76553,-1.33377 -1.07801,-0.0553 -1.93227,-0.3045 -2.68459,-0.62166 -0.57677,0.62929 -1.1192,1.29485 -1.64021,1.97352 -1.38696,2.1585 -2.2854,4.54313 -3.09181,6.96185 -0.53658,1.90527 -0.93866,3.84574 -1.3658,5.77949 0.3976,-0.38181 0.79402,-0.76498 1.19114,-1.14825 1.44902,-1.39846 2.84121,-1.97983 3.98373,-1.97766 2.91995,0.006 4.20899,3.82009 0.64648,7.53391 -0.92629,0.96557 -1.9114,1.86859 -2.9099,2.75797 -1.78302,1.58814 -3.50499,2.03887 -4.81263,1.76372 -0.007,0.0412 -0.0189,0.0812 -0.0253,0.12247 -0.31138,2.1774 -0.34632,4.38158 -0.39739,6.57686 0.006,3.5147 -0.15426,7.02208 -0.44287,10.52391 -0.15049,2.45352 -0.52882,4.882887 -0.77928,7.326166 -0.25682,2.270699 -0.2357,4.548968 -0.1633,6.828007 0.0525,1.43787 0.0261,0.723201 0.0775,2.145088 7.9e-4,0.02175 -0.006,0.03573 -0.006,0.05736 0.13966,0.0486 0.27673,0.09115 0.42013,0.148309 3.73047,1.486969 7.59999,2.598727 11.41894,3.833876 4.85884,1.705695 9.66861,3.546912 14.50144,5.32474 1.9552,0.651698 3.84707,1.443672 5.71489,2.292366 2.6308,-0.638411 5.26049,-1.281708 7.89771,-1.893425 4.5737,-1.075436 2.35597,-0.547624 6.65438,-1.580782 0.65268,-0.156879 1.2592,-0.237268 1.81642,-0.252698 3.40876,-0.09437 4.96226,2.238663 4.05712,4.350639 3.89832,1.612736 3.00805,6.568553 -2.90269,6.729304 l -2.19726,0.05943 c 0.0932,0.05532 0.18872,0.106439 0.28112,0.163298 6.09814,3.752323 2.1299,10.065517 -3.84782,6.124173 -1.04591,-0.689594 -2.23735,-1.127543 -3.31556,-1.763197 -2.61015,-1.251701 -5.22853,-2.484003 -7.87136,-3.665926 -0.34703,-0.170111 -0.69536,-0.335955 -1.04283,-0.504362 -1.04394,0.228952 -2.09238,0.441277 -3.15071,0.537951 -0.41145,0.100483 -0.82417,0.195434 -1.23558,0.296105 -3.95687,0.968251 -6.08679,-0.907356 -5.97897,-3.010669 -0.31188,-0.687727 -0.239,-1.395294 0.0263,-2.059305 -3.87146,-1.438614 -7.73769,-2.891312 -11.63237,-4.265891 -3.97417,-1.285444 -7.99945,-2.446282 -11.87938,-4.000272 -1.44639,-0.579335 -2.44377,-1.350957 -3.06182,-2.17506 -1.01218,-0.798706 -1.81304,-2.231819 -1.89446,-4.484998 -0.0517,-1.431189 -0.0254,-0.705106 -0.0791,-2.177645 -0.0816,-2.602558 -0.0903,-5.205841 0.19844,-7.79849 0.24823,-2.394268 0.6146,-4.775082 0.76533,-7.179412 0.27808,-3.36008 0.42763,-6.72542 0.42064,-10.09809 0.0594,-2.5132 0.11189,-5.03614 0.48266,-7.52719 0.38072,-2.41928 0.90466,-4.80615 1.46451,-7.18974 0.6701,-2.94551 1.25825,-5.91529 2.11305,-8.81393 1.0668,-3.18776 2.31041,-6.31647 4.23489,-9.10074 0.42128,-0.53977 0.8547,-1.07136 1.29914,-1.59215 -1.52816,-0.60355 -3.06641,-1.18197 -4.57646,-1.83141 -1.09038,3.76762 -2.19021,7.53001 -3.40755,11.25926 -1.05961,2.97655 -0.54118,1.54568 -1.55081,4.2938 -1.83358,4.9908 -6.03644,4.88509 -7.07398,1.75544 -2.82634,3.52841 -7.50378,1.0111 -5.57744,-4.75268 1.05408,-3.1537 2.2385,-6.34595 4.49688,-8.85837 1.49582,-1.66408 2.97572,-2.34765 4.17287,-2.32647 0.33252,0.006 0.64298,0.0664 0.92604,0.17518 0.46945,-1.58214 0.96416,-3.15651 1.43919,-4.7377 0.70062,-2.33196 1.93737,-3.52641 3.18689,-3.8871 0.54142,-0.34307 1.25019,-0.55529 2.11615,-0.57361 h 5.3e-4 c 0.8057,-0.017 1.74503,0.13149 2.80396,0.49248 0.31645,0.10788 0.63769,0.20324 0.94929,0.32401 1.83624,0.71133 3.60046,1.59642 5.43016,2.32544 1.18096,0.47048 2.26953,0.84228 3.35329,1.23145 0.62902,-0.20883 1.22424,-0.32846 1.76785,-0.35037 2.28614,-0.0921 3.73455,1.32842 3.67523,3.07682 1.73917,0.0925 3.47854,0.18832 5.21777,0.2899 -0.1345,-1.7899 1.43141,-3.54652 4.54959,-3.56619 0.39587,-0.002 0.816,0.0231 1.25987,0.0801 3.99155,0.51285 7.97638,1.04608 11.94346,1.72703 0.35092,0.0747 0.7018,0.14913 1.05265,0.22376 0.92028,-2.09088 2.0607,-3.80586 3.79408,-5.38675 0.9172,-0.8245 1.6747,-1.80494 2.07378,-2.98587 0.46483,-1.35061 0.4893,-2.77914 0.4594,-4.19561 h 5.3e-4 c -0.0754,-3.57927 1.64663,-5.36691 3.4308,-5.36608 z m 1.97559,14.00741 c -0.78838,1.39934 -1.79816,2.66075 -2.96984,3.79512 -1.06213,0.94584 -1.80404,2.02586 -2.28153,3.3538 -0.003,0.012 -0.005,0.0237 -0.009,0.0357 1.15411,0.11311 2.30814,0.22665 3.4613,0.3514 3.99042,0.43171 5.40747,2.84663 4.69323,4.76353 0.67585,0.41545 1.35041,0.83313 2.01954,1.25626 3.82278,2.5036 7.53266,5.1715 11.24013,7.84086 -1.81731,-3.68096 -3.93583,-7.19476 -6.36087,-10.5146 -1.10355,-1.48555 -2.20805,-3.00054 -3.36206,-4.44883 -0.35653,-0.44747 -1.7607,-2.16704 -2.34455,-2.70784 -0.36042,-0.33384 -0.93237,-0.68033 -1.36375,-0.9555 -1.33122,-0.84918 -2.21667,-1.81673 -2.72282,-2.76986 z" /></clipPath><clipPath
       clipPathUnits="userSpaceOnUse"
       id="clipPath240"><path
         id="path241"
         style="fill:#ff0000;fill-opacity:1;fill-rule:nonzero;stroke:none;stroke-width:0.264583"
         d="M 92.804184,-309.23338 V -41.629034 H 294.29938 V -309.23338 Z m 130.496946,63.74443 c 0.93337,0.009 2.02072,0.27397 3.21944,0.8785 1.75312,0.88412 3.43212,1.89553 5.06326,2.98586 5.9527,3.97906 1.8926,10.01797 -4.03542,6.00222 -1.36849,-0.92705 -2.78857,-1.76849 -4.26227,-2.51871 -5.18448,-2.63926 -4.02961,-7.38891 0.015,-7.34787 z m -85.24544,1.99626 c 3.36772,-0.0906 4.87054,3.93317 0.67437,7.28431 -0.81214,0.6486 -0.42273,0.34746 -1.1653,0.9064 -1.7275,1.42217 -3.47209,2.82263 -5.29477,4.12275 -2.09112,1.47372 -4.25636,2.82668 -6.45645,4.13153 -6.15846,3.65253 -10.39165,-1.95967 -4.33979,-5.78621 2.21999,-1.40367 4.47897,-2.73503 6.6244,-4.25349 1.67688,-1.19734 3.27994,-2.48915 4.86947,-3.79821 0.91499,-0.69918 0.50268,-0.37435 1.24076,-0.9679 1.39493,-1.12177 2.72473,-1.60899 3.84731,-1.63918 z" /></clipPath><clipPath
       clipPathUnits="userSpaceOnUse"
       id="clipPath251"><path
         id="path252"
         style="fill:#ff0000;fill-opacity:1;fill-rule:nonzero;stroke:none;stroke-width:0.264583"
         d="m 50.06164,-325.07443 v 245.270816 h 202.0347 V -325.07443 Z m 191.06172,72.239 c 1.42195,-0.0396 3.11835,0.92332 4.44418,3.2582 0.80855,1.42391 1.33311,2.97097 1.71979,4.55476 0.38267,1.85761 0.50306,3.75527 0.49506,5.64772 0.007,1.66837 -0.28067,3.30966 -0.52503,4.95318 -0.26767,2.07853 -1.32063,3.82386 -2.54249,5.47306 -0.98598,1.19805 -2.03839,2.33999 -3.16208,3.40961 -0.37488,0.32054 -0.76867,0.61405 -1.09502,0.98443 -4.73356,5.37222 -10.25077,0.0313 -5.19193,-5.03587 0.41783,-0.41852 0.82603,-0.84961 1.30896,-1.19579 0.83199,-0.78568 1.60086,-1.63171 2.34973,-2.49649 0.52191,-0.686 1.06794,-1.32103 1.17874,-2.204 0.19629,-1.31742 0.44949,-2.62948 0.44648,-3.9672 0.0288,-1.3072 -0.0809,-2.61845 -0.30179,-3.90725 -0.20137,-0.91522 -0.51051,-1.80281 -0.96014,-2.62775 -2.14172,-3.92928 -0.53435,-6.78057 1.83554,-6.84661 z m -24.00732,134.01508 c 1.58088,-0.0452 3.27238,1.29937 3.90106,4.36821 0.19779,0.96552 0.49313,1.88927 0.87385,2.79466 0.57738,1.31117 0.86222,2.69631 0.9741,4.11603 0.0779,1.63421 -0.38657,3.16522 -1.00976,4.65191 -0.60784,1.37091 -1.55916,2.5173 -2.50579,3.660755 -0.2566,0.333243 -0.50348,0.67224 -0.76223,1.002525 -0.0721,0.651052 -0.19323,1.300012 -0.35502,1.949752 l -0.4842,1.22783 c -0.70346,1.782932 -1.87803,2.754204 -3.12126,3.127457 -0.38818,0.593834 -0.73665,1.213207 -1.1529,1.788007 -0.78123,1.206815 -1.75001,2.262322 -2.80138,3.23546 -1.04259,0.90742 -2.26203,1.551003 -3.47214,2.198833 -0.81145,0.41652 -1.66264,0.737227 -2.52439,1.030428 -6.77856,2.306214 -9.10653,-4.670343 -2.28979,-6.86108 0.48258,-0.155091 0.95367,-0.335381 1.41232,-0.552421 0.68902,-0.364839 1.38726,-0.713642 2.01745,-1.175639 0.71797,-0.616461 1.30017,-1.358352 1.82004,-2.146123 0.66383,-0.892056 1.26802,-1.828112 1.8216,-2.792076 0.59882,-1.12436 1.07283,-2.316203 1.82056,-3.358968 0.0117,-0.0166 0.0249,-0.032 0.0367,-0.0486 -0.84786,-3.67928 0.87949,-5.67892 2.87217,-5.69422 0.38363,-0.003 0.77643,0.0723 1.16324,0.21859 0.15519,-0.3579 0.298,-0.71847 0.29042,-1.1188 -0.0398,-0.54898 -0.18359,-1.13581 -0.4191,-1.66191 -0.48947,-1.16893 -0.89792,-2.36312 -1.1591,-3.60547 -0.82863,-3.94139 1.021,-6.29698 3.05356,-6.35516 z" /></clipPath><clipPath
       clipPathUnits="userSpaceOnUse"
       id="clipPath278"><path
         id="path279"
         style="fill:#ff0000;fill-opacity:1;fill-rule:nonzero;stroke:none;stroke-width:0.264583"
         d="m -43.212488,-382.05292 v 250.81001 H 185.4025 v -250.81001 z m 181.494868,132.88233 c 1.13528,0.005 2.03811,0.42617 2.60707,1.09037 0.91934,-0.34123 1.78192,-0.54125 2.52078,-0.52658 4.05205,0.0805 5.08945,4.87108 -0.18087,7.33443 -2.21042,1.03317 -4.41856,2.08163 -6.72362,2.89285 -2.86091,0.99315 -5.74924,1.921 -8.52506,3.13986 -6.55592,2.87873 -9.40434,-3.76713 -2.84944,-6.64817 1.1011,-0.48395 2.22936,-0.89759 3.35587,-1.31568 0.52294,-1.00077 1.47788,-2.01475 2.95124,-2.87476 1.0894,-0.6359 2.16914,-1.287 3.24683,-1.94252 1.33817,-0.81396 2.56345,-1.15421 3.5972,-1.1498 z m -133.0900695,2.4753 h 5.5981075 c 7.160125,0 7.160125,7.23263 0,7.23263 H 5.1923105 c -7.1601277,0 -7.1601277,-7.23263 0,-7.23263 z m 42.9880715,50.84496 c 2.044401,-0.008 3.844292,2.25841 2.953308,6.18618 -0.283588,1.25017 -0.481169,2.51568 -0.75189,3.76877 -0.313965,1.46608 -0.73946,2.91235 -1.207162,4.33668 -2.233805,6.80278 -9.211228,4.46329 -6.857981,-2.29908 0.404762,-1.16313 0.726765,-2.36525 0.995807,-3.56619 0.287499,-1.32813 0.484814,-2.67249 0.804084,-3.99407 0.735603,-3.04497 2.473746,-4.42641 4.063834,-4.43229 z m 26.844358,9.60148 c 1.5451,0.0844 3.630816,1.85281 5.237924,5.05189 1.446292,2.8789 3.498345,5.40261 5.377447,8.00674 1.423178,1.86933 2.496352,3.93269 3.488161,6.04873 3.038795,6.48323 -3.64554,9.55837 -6.57066,3.02307 -0.764304,-1.70766 -1.644017,-3.34338 -2.782776,-4.84001 -2.279812,-3.15977 -5.466628,-6.83969 -6.494177,-10.63656 -0.141171,-0.52168 -0.167447,-1.06805 -0.251148,-1.60197 -0.554762,-3.53682 0.450099,-5.13633 1.995229,-5.05189 z m 22.433772,2.07998 v 5.3e-4 c 1.081786,0.0173 2.458693,0.64291 3.986318,2.0805 1.21595,1.14421 2.08888,2.57763 3.1502,3.85661 0.75663,0.91352 1.6619,1.66584 2.53163,2.46393 1.1475,0.93011 2.05703,2.06162 2.85305,3.29799 0.95863,1.59903 1.44035,3.34615 0.97049,5.20227 -0.10236,0.40431 -0.31771,0.77135 -0.47646,1.15703 -1.02548,2.49132 -2.04203,1.65641 -2.97036,0.0238 -2.04159,1.70549 -5.47708,1.09344 -5.78105,-3.28558 -0.003,-0.0322 -0.0142,-0.0648 -0.007,-0.0966 0.005,-0.03 0.0986,-0.0136 0.0827,-0.0393 -0.23736,-0.38486 -0.69492,-0.61714 -1.02216,-0.90227 -1.100378,-0.77725 -2.267905,-1.45106 -3.395141,-2.18798 -3.582773,-2.34245 -3.744537,-5.4822 -2.015898,-6.82284 -0.840523,-2.68156 0.04882,-4.63231 1.88154,-4.74287 0.06945,-0.004 0.140271,-0.006 0.212389,-0.005 z" /></clipPath><clipPath
       clipPathUnits="userSpaceOnUse"
       id="clipPath292"><path
         id="path293"
         style="fill:#ff0000;fill-opacity:1;fill-rule:nonzero;stroke:none;stroke-width:0.264583"
         d="M 39.169506,-337.89832 V -50.969072 H 288.46282 V -337.89832 Z m 15.676046,82.89261 c 1.714024,0.0204 3.54041,1.61061 3.978568,4.9382 0.120111,0.91222 0.106387,1.83456 0.107487,2.75229 0.0087,7.16012 -7.246413,7.15857 -7.232633,-0.002 0.0013,-0.65071 0.02757,-1.30512 -0.06356,-1.95182 -0.530767,-3.76661 1.267578,-5.76019 3.21014,-5.73712 z m 197.013298,6.80941 c 1.32993,-0.0899 2.96772,0.82319 4.38423,3.1042 1.07429,1.72993 1.55184,3.70118 1.89652,5.68338 0.39598,2.58761 0.42018,5.20011 0.26717,7.80675 -0.16631,2.61527 -0.75971,5.14416 -1.52187,7.63985 -0.4978,1.90614 -1.23662,3.72608 -2.0159,5.52989 -0.76243,1.81488 -1.37928,3.68664 -2.00143,5.55315 -0.64972,1.87676 -1.26002,3.76819 -2.01124,5.60741 -0.95415,2.1244 -1.9321,4.237 -2.90784,6.35155 -0.93622,2.10591 -1.93956,4.18102 -3.03444,6.20893 -0.74336,1.47932 -1.63431,2.88203 -2.64686,4.19044 -0.85071,1.10794 -1.91984,2.00805 -2.89078,3.00343 -1.04445,1.12516 -2.20219,2.13025 -3.34605,3.1502 -1.2349,1.05182 -2.56579,1.98944 -3.91811,2.88354 -1.93444,1.28303 -4.12655,2.08437 -6.28747,2.89285 -2.75914,1.06536 -5.6224,1.79172 -8.50439,2.42982 -2.00852,0.48359 -4.02259,0.93996 -6.05234,1.32499 -1.0898,0.20672 -1.99053,0.15992 -2.79725,0.0139 -0.75827,0.17949 -1.51301,0.3744 -2.26653,0.57309 -1.4977,0.44017 -2.97995,0.92699 -4.46019,1.42214 -1.58834,0.5581 -3.19109,1.04834 -4.83381,1.42213 -2.05853,0.5373 -4.13223,0.98734 -6.23425,1.31724 -1.89057,0.38525 -3.79586,0.65788 -5.71696,0.82837 -1.92552,0.0766 -3.83858,0.29911 -5.75676,0.47025 -1.71912,0.15432 -3.44381,0.22701 -5.16867,0.27441 -2.44184,-0.0118 -4.87127,-0.25567 -7.30085,-0.47078 -2.85973,-0.19225 -5.71909,-0.39592 -8.57157,-0.67799 -2.83995,-0.26841 -5.65359,-0.74864 -8.47907,-1.13016 -2.66463,-0.21934 -5.29981,-0.64608 -7.94267,-1.03457 -2.11987,-0.30404 -4.25541,-0.45909 -6.38152,-0.71055 -1.8808,-0.17534 -3.75496,-0.4017 -5.63118,-0.61856 -1.91243,-0.21286 -3.83573,-0.28885 -5.75779,-0.34985 -2.23949,-0.16259 -4.48445,-0.27106 -6.71949,-0.48783 -2.21917,-0.20648 -4.40762,-0.67897 -6.54068,-1.31516 -2.57048,-0.65769 -4.88262,-1.9917 -7.25382,-3.13883 -1.91366,-0.89121 -3.846978,-1.74009 -5.755724,-2.6417 -1.929913,-0.93683 -3.722034,-2.11514 -5.521108,-3.27525 -1.492637,-0.90475 -0.734285,-0.44535 -2.275314,-1.37821 -6.125257,-3.70793 -2.379728,-9.89571 3.745508,-6.18774 1.606161,0.9723 0.789586,0.47683 2.449462,1.48725 1.534261,0.98943 3.055983,2.00536 4.695836,2.81636 1.92633,0.91375 3.8825,1.76312 5.81257,2.66909 2.03397,0.98503 4.0062,2.16157 6.20944,2.72955 1.67042,0.52508 3.40555,0.86136 5.14697,1.03715 2.07333,0.21111 4.15957,0.28906 6.23683,0.4563 2.12341,0.0679 4.24789,0.15641 6.36033,0.39429 1.88182,0.21873 3.76122,0.44337 5.64772,0.62012 2.19401,0.25968 4.39889,0.41632 6.58565,0.73794 2.61501,0.3856 5.2221,0.80551 7.85895,1.02267 2.74095,0.37156 5.47017,0.83558 8.22482,1.1002 2.82609,0.28319 5.66087,0.47505 8.49405,0.67076 2.15225,0.19062 4.3024,0.40925 6.46472,0.44545 1.57684,-0.0428 3.1537,-0.10777 4.7253,-0.24857 1.92194,-0.17061 3.8389,-0.3955 5.76812,-0.4718 1.7606,-0.15093 3.50197,-0.42258 5.23482,-0.76946 1.94524,-0.29972 3.85736,-0.73584 5.76244,-1.22784 1.40538,-0.30937 2.76609,-0.74989 4.12327,-1.22421 1.62869,-0.54468 3.26081,-1.07909 4.91081,-1.5565 1.77362,-0.46766 3.552,-0.92735 5.36814,-1.20147 1.70238,-0.33298 3.38762,-0.74982 5.05034,-1.24437 1.8768,-0.51034 3.73395,-1.11665 5.54695,-1.81953 1.67544,-0.67931 3.31988,-1.45879 4.78886,-2.52439 1.0657,-0.84543 2.16725,-1.64342 3.15019,-2.58951 1.28809,-1.21508 2.58622,-2.41928 3.84008,-3.67058 0.85194,-0.84614 1.68746,-1.65828 2.24585,-2.7404 0.63482,-0.99725 1.29901,-1.9775 1.85674,-3.02152 0.55263,-0.92785 1.06197,-1.877 1.53479,-2.8484 0.43455,-0.81257 0.86675,-1.63643 1.16427,-2.50993 0.39723,-1.087 0.65435,-2.21493 0.97203,-3.32641 0.29574,-1.24569 0.60338,-2.49273 1.07901,-3.68453 0.39957,-1.05638 0.68712,-2.15558 1.05006,-3.22512 0.22713,-0.94997 0.37986,-1.92387 0.55966,-2.88303 0.22526,-1.23853 0.53664,-2.45701 1.02371,-3.62149 0.47591,-1.31864 1.08044,-2.58627 1.7048,-3.84007 0.34111,-0.58794 0.67316,-1.19257 0.96067,-1.80041 0.32682,-0.71346 -0.0659,-2.40019 0.0822,-3.22151 v -4.23178 c 0,-3.58007 1.80812,-5.37022 3.61632,-5.37022 0.15156,0 0.30168,0.0312 0.45217,0.0563 -0.0649,-0.17178 -0.10183,-0.35173 -0.18242,-0.51883 -1.94402,-4.03078 -0.58254,-6.96655 1.63401,-7.11636 z" /></clipPath></defs><g
     id="layer1"
     transform="translate(85.676845,394.5623)"><path
       style="fill:#000000"
       d="m 72.640058,-115.56176 c -4.45138,-1.19141 -10.99447,-5.35442 -25.64915,-16.31913 -4.89598,-3.66319 -9.26161,-6.79538 -9.70139,-6.96041 -0.43978,-0.16502 -2.0696,-0.40894 -3.62182,-0.54203 -1.55222,-0.13309 -4.78818,-0.47571 -7.19102,-0.76138 -5.05741,-0.60126 -4.4613,-0.80311 -8.76106,2.96654 -6.91517,6.06262 -12.0740996,9.75761 -17.24547957,12.35177 -6.70874003,3.36536 -12.03069043,4.4518 -16.94590043,3.45938 -8.16827,-1.64922 -16.25152,-8.71334 -18.52132,-16.18617 -0.95211,-3.13462 -0.81042,-7.46061 0.31583,-9.64216 1.35041,-2.61579 4.36431,-4.86435 7.1081,-5.3031 1.36602,-0.21844 1.46446,-0.31463 1.67603,-1.63769 0.46055,-2.88013 3.69853,-5.7581 10.42501,-9.26595 1.68922,-0.88092 3.14216,-1.71687 3.22877,-1.85766 0.0866,-0.14079 -0.77654,-1.2492 -1.9181,-2.46314 -1.79593,-1.90978 -2.32601,-2.26028 -3.93433,-2.60151 -2.75249,-0.58399 -5.12848,-1.92209 -7.1515,-4.02755 -2.3624,-2.45868 -3.63232,-5.10934 -4.05857,-8.47129 -1.42195,-11.21519 6.49418,-20.20875 15.86966,-18.02962 1.25675,0.2921 2.40882,0.45457 2.56015,0.36105 0.38633,-0.23877 1.4115404,-2.27648 1.2344404,-2.45358 -0.0803,-0.0803 -2.2819204,-0.52754 -4.8924404,-0.99381 -8.84389,-1.57963 -16.47344,-3.81208 -24.44727,-7.15341 -7.23035,-3.02979 -14.945484,-7.33715 -18.969547,-10.59071 -0.719092,-0.5814 -2.624092,-1.57713 -4.233333,-2.21272 -8.542729,-3.37405 -17.135802,-12.38563 -20.860651,-21.87663 -1.765202,-4.49777 -2.371938,-7.31718 -2.581202,-11.99444 -0.231397,-5.17198 0.305455,-8.11069 2.067062,-11.31506 l 1.112979,-2.0245 -0.770489,-3.47258 c -1.765984,-7.95926 -1.985607,-10.12069 -1.983829,-19.52397 0.0013,-6.89024 0.148324,-9.92155 0.628121,-12.95079 2.526457,-15.95103 8.781174,-30.2321 18.740007,-42.7881 2.759868,-3.47961 10.139843,-11.0209 14.127664,-14.43646 26.126648,-22.37746 63.422178,-33.43683 99.483328,-29.50011 17.0872,1.86538 30.51172,5.72686 44.15244,12.70018 9.984682,5.1043 17.852892,10.79311 25.351962,18.32979 13.81635,13.88564 22.22533,28.96383 25.443,45.622 0.8201,4.24575 0.94037,5.76352 0.95784,12.08738 0.0186,6.72275 -0.35887,10.55847 -1.39322,14.15858 -0.13273,0.46198 0.33377,0.68942 2.34621,1.14388 6.81915,1.53996 12.86762,7.12316 15.33404,14.15448 2.93326,8.36221 2.31715,19.25032 -1.55713,27.5178 -5.834,12.44944 -17.69463,21.38025 -31.35763,23.61167 -3.00082,0.49008 -11.646,0.49484 -13.18227,0.007 -0.60593,-0.19232 -3.82759,1.4583 -3.82934,1.96196 -3.5e-4,0.10011 0.97078,1.13199 2.15806,2.29306 6.66081,6.51378 10.29027,16.88944 8.80848,25.18107 -0.3878,2.16995 -0.36073,2.50012 0.3368,4.10865 1.56945,3.61918 1.18185,7.84655 -0.98126,10.70214 l -0.90289,1.19194 0.40588,3.74695 c 0.99356,9.17231 -0.0253,12.8852 -4.85764,17.70249 -2.01857,2.01227 -3.45414,3.0653 -5.85,4.29113 -5.47848,2.80303 -13.080812,4.50749 -20.104542,4.50749 -2.03938,0 -3.70796,0.0969 -3.70796,0.21535 0,0.11844 1.20152,1.49257 2.67004,3.05362 7.17641,7.62856 8.7847,13.29359 5.64875,19.89703 -2.16268,4.55397 -6.52865,8.2003 -11.81624,9.86856 -2.5447,0.80287 -6.55522,0.8736 -9.21213,0.16247 z m 7.84076,-5.35119 c 5.09856,-1.71758 8.6463,-5.79408 9.01246,-10.35568 0.15209,-1.89464 0.0398,-2.54258 -0.73283,-4.23031 -1.30955,-2.86044 -5.87226,-7.46796 -5.88193,-5.93971 -0.003,0.52726 -4.30413,5.96247 -6.44655,8.14694 -2.75354,2.8076 -5.6179,4.97524 -8.74755,6.61983 -2.77405,1.45772 -2.84042,1.21797 1.00755,3.63949 4.55829,2.86852 7.82296,3.45545 11.78885,2.11944 z m -105.19784,-5.79723 c 0,-0.097 -0.0794,-0.17639 -0.17639,-0.17639 -0.097,0 -0.17639,0.0794 -0.17639,0.17639 0,0.097 0.0794,0.17639 0.17639,0.17639 0.097,0 0.17639,-0.0794 0.17639,-0.17639 z m 18.0446604,-0.85838 1.99327,-0.75347 -0.18761,-1.48713 c -0.95015,-7.53156 -7.0214104,-15.78019 -14.6926604,-19.96199 -1.81294,-0.98828 -2.14629,-1.06802 -2.64583,-0.63296 -0.31435,0.27378 -1.1555,0.68517 -1.8692,0.91418 -2.27877,0.73123 -5.40965,2.99255 -5.95189,4.29883 -0.65768,1.5844 -0.47497,4.86714 0.38219,6.86683 2.1138,4.9313 7.23801,9.63793 12.24857,11.25042 2.39485,0.77071 8.0679304,0.50898 10.7231604,-0.49471 z m 70.9602696,-2.43373 c 6.29864,-3.2594 12.70641,-9.54036 15.64825,-15.33855 0.94558,-1.86368 0.87768,-2.5635 -0.3617,-3.72784 l -0.82417,-0.77426 -0.89038,1.15944 c -3.32298,4.32712 -9.72202,10.46089 -10.4463,10.01326 -0.18051,-0.11156 -0.40449,0.0889 -0.49774,0.44549 -0.19076,0.72947 -5.74318,4.1605 -9.02323,5.57577 -1.18406,0.5109 -2.06717,1.06753 -1.96246,1.23695 0.47564,0.76961 3.9304,2.76157 4.78952,2.76157 0.52572,0 2.13142,-0.60832 3.56821,-1.35183 z M 2.3035384,-131.5551 c 2.14962,-1.28574 2.18086,-1.39832 1.34146,-4.83393 -0.92343,-3.77957 -3.28283997,-8.34434 -6.03428,-11.6746 -2.38517,-2.88693 -3.59459,-4.02098 -7.22484,-6.77458 -0.9097304,-0.69004 -1.5844204,-1.35071 -1.4993104,-1.46815 0.0851,-0.11745 0.061,-0.14627 -0.0536,-0.064 -0.11456,0.0822 -0.93196,-0.23528 -1.81643,-0.70556 -0.88448,-0.47028 -1.86093,-0.85505 -2.1699,-0.85505 -0.59537,0 -4.27927,2.40048 -4.2617,2.77699 0.006,0.12189 1.30767,0.936 2.89331,1.80912 1.84888,1.01809 3.99495,2.64453 5.98312,4.53443 5.5012704,5.22938 8.7438704,10.33194 10.02843043,15.78072 0.33912,1.43847 0.68181,2.6154 0.76153,2.6154 0.0797,0 1.00319997,-0.51334 2.05215997,-1.14075 z m 54.9459496,-2.88373 c 5.42858,-2.24717 9.2576,-4.87811 14.25362,-9.79376 2.75875,-2.71437 3.58397,-4.17342 2.36043,-4.17342 -0.30249,0 -0.45187,-0.15875 -0.33196,-0.35278 0.11992,-0.19403 0.0435,-0.35278 -0.16985,-0.35278 -0.21334,0 -0.83958,-0.33395 -1.39165,-0.74211 -1.00813,-0.74535 -2.57206,-0.68458 -2.40008,0.0933 0.13809,0.62456 -3.26469,2.76552 -4.39544,2.76552 -0.80742,0 -1.52124,-0.47321 -3.10924,-2.06121 l -2.06121,-2.06121 -3.99598,-0.25969 c -2.1978,-0.14282 -4.15474,-0.26517 -4.34877,-0.27188 -0.19402,-0.007 -2.65465,0.34474 -5.46805,0.78099 -10.46736,1.6231 -25.77806,0.73829 -34.39583,-1.98773 -1.55222,-0.49101 -4.1278196,-1.44945 -5.7235496,-2.12986 -3.01844,-1.28705 -10.93166,-5.41151 -12.4159,-6.4713 -0.82933,-0.59217 -0.92094,-0.57348 -3.25714,0.66449 -1.3221004,0.70058 -2.4065404,1.40007 -2.4098604,1.55441 -0.003,0.15434 0.39082,0.67749 0.87589,1.16256 0.48507,0.48507 0.88195,0.78549 0.88195,0.6676 0,-0.38495 3.2302704,2.09354 4.2676304,3.27442 0.55652,0.63353 1.13366,1.14947 1.28253,1.14653 0.14887,-0.003 0.27067,0.14432 0.27067,0.32724 0,0.18292 0.35719,0.66536 0.79375,1.07208 0.43656,0.40672 0.79618,0.93174 0.79915,1.16672 0.004,0.30545 0.0894,0.29474 0.30012,-0.0375 0.21439,-0.3381 0.41547,-0.17326 0.73776,0.60482 0.24367,0.58829 0.54518,1.03556 0.67002,0.99395 0.12484,-0.0416 0.28800003,0.0831 0.36259003,0.27712 0.0746,0.19403 0.43443,0.56208 0.79965,0.81789 0.36523,0.25581 0.58292,0.59636 0.48378,0.75678 -0.0992,0.16042 0.0797,0.39142 0.39737,0.51333 0.31768997,0.12192 0.47799997,0.32129 0.35622997,0.44306 -0.12177,0.12177 0.004,0.39585 0.28021,0.60906 0.86395,0.66768 2.97912,5.31549 3.77887,8.30356 0.42145,1.57466 0.88524,2.819 1.03066,2.76522 0.3341,-0.12358 8.2242296,-6.87467 9.7591396,-8.3503 1.30789,-1.25736 1.41449,-1.66907 0.50675,-1.95717 -0.35187,-0.11168 -1.24495,-0.75738 -1.98462,-1.43488 -0.73966,-0.67751 -1.48363,-1.23183 -1.65327,-1.23183 -0.16964,0 -0.30844,-0.16945 -0.30844,-0.37655 0,-0.2071 0.27781,-0.2965 0.61736,-0.19867 3.34094,0.96263 8.89837,2.0751 12.47225,2.49665 7.10673,0.83827 11.67496,1.54293 13.39085,2.06558 3.21756,0.98005 4.96247,1.76393 4.52641,2.03344 -0.49437,0.30554 0.23834,1.02124 4.22395,4.12593 4.42687,3.44842 5.14179,3.93538 5.79956,3.95029 0.35054,0.008 1.94429,-0.52658 3.54169,-1.18782 z m -61.1526196,-17.67135 c 0,-0.097 0.0794,-0.17639 0.17639,-0.17639 0.097,0 0.17639,0.0794 0.17639,0.17639 0,0.097 -0.0794,0.17639 -0.17639,0.17639 -0.097,0 -0.17639,-0.0794 -0.17639,-0.17639 z m 17.9916596,16.93333 c 0,-0.097 -0.0794,-0.17638 -0.17639,-0.17638 -0.097,0 -0.17639,0.0794 -0.17639,0.17638 0,0.097 0.0794,0.17639 0.17639,0.17639 0.097,0 0.17639,-0.0794 0.17639,-0.17639 z m 3.175,-3.175 c 0,-0.097 -0.0794,-0.17638 -0.17639,-0.17638 -0.097,0 -0.17639,0.0794 -0.17639,0.17638 0,0.097 0.0794,0.17639 0.17639,0.17639 0.097,0 0.17639,-0.0794 0.17639,-0.17639 z m 3.88056,-2.46944 c 0,-0.097 -0.0794,-0.17639 -0.17639,-0.17639 -0.097,0 -0.17639,0.0794 -0.17639,0.17639 0,0.097 0.0794,0.17639 0.17639,0.17639 0.097,0 0.17639,-0.0794 0.17639,-0.17639 z m 45.75089,-8.55486 c 0.79346,-0.53358 2.07041,-1.41129 2.83767,-1.95048 1.66844,-1.17248 2.11276,-1.05437 3.80568,1.01161 0.70137,0.85593 1.38911,1.55623 1.52831,1.55623 0.1392,0 0.53883,-0.4837 0.88805,-1.07489 0.71718,-1.21409 0.57606,-1.5751 -1.57212,-4.02175 -1.06073,-1.2081 -1.11485,-1.22624 -2.11506,-0.70901 -1.72279,0.89088 -6.40854,2.5283 -7.99634,2.79429 -0.82462,0.13813 -1.49931,0.35978 -1.49931,0.49255 0,0.35515 2.12442,2.87159 2.42425,2.87159 0.14091,0 0.9054,-0.43656 1.69887,-0.97014 z m 24.70988,-4.32034 c 5.18173,-0.40299 8.883092,-1.29957 13.190782,-3.19521 5.35124,-2.35485 7.38738,-4.0632 9.01739,-7.5657 0.92005,-1.97696 0.98399,-2.41373 0.96885,-6.6174 -0.009,-2.57332 -0.1707,-4.65522 -0.37695,-4.86147 -0.24578,-0.24578 -1.36336,0.15461 -3.50732,1.25655 -5.80578,2.98405 -14.397392,3.90232 -18.643282,1.9926 -0.9561,-0.43003 -1.86724,-0.65301 -2.02475,-0.4955 -0.46134,0.46135 0.29788,10.4157 0.90529,11.86942 0.77166,1.84685 2.38865,2.44907 6.02862,2.24526 3.122242,-0.17483 6.320772,-1.26307 9.751742,-3.31786 2.27473,-1.36232 2.72202,-1.48838 1.71774,-0.4841 -0.38806,0.38806 -0.77772,0.70556 -0.86591,0.70556 -0.0882,0 -0.52916,0.3688 -0.97993,0.81957 -0.87362,0.87362 -6.33307,2.74911 -9.991102,3.43225 -4.04015,0.7545 -6.64928,-0.69228 -7.72213,-4.28198 -0.77005,-2.57654 -1.46817,-8.94785 -2.14204,-19.54901 -0.30833,-4.85069 -0.80414,-10.00544 -1.10178,-11.455 -1.09686,-5.34174 -3.99701,-13.13656 -5.47162,-14.70621 -0.76056,-0.80958 -1.85982,-1.0899 -2.1885,-0.55808 -0.0912,0.14752 0.68888,1.76115 1.73344,3.58586 3.21324,5.61308 4.41062,10.25987 4.44135,17.23595 0.0268,6.08155 -1.38879,11.61059 -3.83549,14.9809 l -1.21604,1.67508 0.55877,2.22801 c 0.62162,2.47864 0.73362,6.0868 0.23006,7.41127 -0.18078,0.4755 -0.88814,1.40787 -1.57191,2.07193 l -1.24321,1.20739 0.66212,1.08878 c 2.0313,3.3402 4.69598,3.97952 13.67581,3.28114 z m 18.439222,-10.58452 c 0,-0.2587 0.10583,-0.36454 0.23519,-0.23519 0.12935,0.12936 0.12935,0.34102 0,0.47037 -0.12936,0.12936 -0.23519,0.0235 -0.23519,-0.23518 z m -65.815932,9.2423 1.38823,-0.251 -2.66367,-1.31646 c -1.5945,-0.78804 -3.63855,-2.21544 -5.0924,-3.5561 -1.42688,-1.3158 -3.63726,-2.86587 -5.35853,-3.75776 -6.68107,-3.46187 -10.29092,-9.37275 -9.70906,-15.89789 0.49797,-5.58429 3.4674,-10.16854 8.5344,-13.17554 1.09329,-0.64881 1.95241,-1.34666 1.90916,-1.55078 -0.0433,-0.20411 0.55206,-1.73627 1.32291,-3.40479 0.77086,-1.66851 1.40156,-3.11016 1.40156,-3.20365 0,-0.61225 -1.0156,0.13564 -2.85634,2.10339 -7.72668,8.25984 -17.49207,8.2161 -22.81321,-0.10218 -1.4359496,-2.24475 -1.3698996,-2.29739 -2.9471196,2.34855 -1.22451,3.60697 -2.32073,7.84271 -3.85178,14.88302 -1.74914,8.04312 -3.60717997,13.34865 -5.72678,16.35245 -0.85931,1.21777 -1.24671,0.9087 5.13728,4.09863 4.16276,2.08004 8.8799096,3.9103 12.2440696,4.75072 2.61132,0.65234 9.44378,1.65824 12.52361,1.84377 1.94027,0.11687 3.59355,0.27032 3.67395,0.34098 0.23493,0.2065 11.36012,-0.22989 12.88372,-0.50536 z M 8.8694584,-167.65654 c -0.43447,-0.30431 -0.69855,-0.70119 -0.58684,-0.88194 0.11171,-0.18075 0.035,-0.32864 -0.17049,-0.32864 -0.62369,0 -0.4175,-1.96759 0.27154,-2.59116 1.01412,-0.91776 1.23809,-0.68396 0.43083,0.44973 -0.4618,0.64854 -0.60002,1.11758 -0.37104,1.25909 0.2007,0.12405 0.28625,0.35283 0.19009,0.5084 -0.0962,0.15558 0.14593,0.65269 0.53795,1.10469 l 0.71276,0.82182 0.2029996,-0.77628 c 0.11166,-0.42696 0.34324,-0.77629 0.51464,-0.77629 0.1714,0 0.31163,-0.23813 0.31163,-0.52917 0,-0.29104 0.15875,-0.52916 0.35278,-0.52916 0.56566,0 0.40706,0.76295 -0.26458,1.2728 -0.34085,0.25874 -0.42918,0.47367 -0.19721,0.47986 0.23108,0.006 0.51826,-0.14753 0.63818,-0.34155 0.11992,-0.19403 0.44678,-0.35278 0.72637,-0.35278 0.2796,0 0.50835,0.15875 0.50835,0.35278 0,0.19402 -0.19844,0.31309 -0.44097,0.26458 -0.24254,-0.0485 -0.39735,0.12204 -0.34404,0.379 0.0533,0.25696 -0.0658,0.36665 -0.26458,0.24376 -0.19884,-0.12288 -0.36152,-0.0553 -0.36152,0.15017 0,0.5615 -1.4990996,0.4491 -2.3968496,-0.17971 z m 0.63296,-1.21058 c 0,-0.2587 0.10584,-0.36454 0.23519,-0.23519 0.12935,0.12936 0.12935,0.34102 0,0.47037 -0.12935,0.12936 -0.23519,0.0235 -0.23519,-0.23518 z m 2.6458396,-0.70556 c -0.11992,-0.19402 0.0388,-0.35277 0.35277,-0.35277 0.31395,0 0.4727,0.15875 0.35278,0.35277 -0.11992,0.19403 -0.27867,0.35278 -0.35278,0.35278 -0.0741,0 -0.23286,-0.15875 -0.35277,-0.35278 z m -0.88195,-0.88194 c 0,-0.097 0.0794,-0.17639 0.17639,-0.17639 0.097,0 0.17639,0.0794 0.17639,0.17639 0,0.097 -0.0794,0.17639 -0.17639,0.17639 -0.097,0 -0.17639,-0.0794 -0.17639,-0.17639 z m 0.86332,-0.14626 c 0.10968,-0.17745 0.0357,-0.40367 -0.16439,-0.50271 -0.20008,-0.099 -0.17131,-0.14236 0.064,-0.0963 0.55944,0.10958 0.82732,0.92163 0.30403,0.92163 -0.22165,0 -0.31326,-0.14519 -0.20359,-0.32265 z m -2.8623896,-0.26531 c 0.12935,-0.12936 0.34102,-0.12936 0.47037,0 0.12935,0.12935 0.0235,0.23518 -0.23519,0.23518 -0.2587,0 -0.36454,-0.10583 -0.23518,-0.23518 z m 1.4111096,-0.35278 c 0.12935,-0.12935 0.34102,-0.12935 0.47037,0 0.12935,0.12935 0.0235,0.23518 -0.23519,0.23518 -0.2587,0 -0.36453,-0.10583 -0.23518,-0.23518 z m -0.8231496,-0.82315 c 0,-0.2587 0.10583,-0.36454 0.2351796,-0.23519 0.12936,0.12936 0.12936,0.34102 0,0.47037 -0.1293496,0.12936 -0.2351796,0.0235 -0.2351796,-0.23518 z m 0.8819396,0 c -0.11991,-0.19403 -0.0499,-0.35278 0.15557,-0.35278 0.20548,0 0.3736,0.15875 0.3736,0.35278 0,0.19403 -0.07,0.35278 -0.15557,0.35278 -0.0856,0 -0.25368,-0.15875 -0.3736,-0.35278 z m 0.88195,0.17639 c 0,-0.097 0.0794,-0.17639 0.17639,-0.17639 0.097,0 0.17639,0.0794 0.17639,0.17639 0,0.097 -0.0794,0.17639 -0.17639,0.17639 -0.097,0 -0.17639,-0.0794 -0.17639,-0.17639 z m 49.59024,15.67281 c 3.51304,-0.48862 7.05405,-1.76632 10.44054,-3.76726 3.5708,-2.10984 4.31041,-3.11042 3.9949,-5.40448 -0.13146,-0.95578 -0.38529,-1.82819 -0.56409,-1.93869 -0.17879,-0.1105 -1.31486,0.44949 -2.52459,1.24442 -3.28992,2.16187 -5.45608,3.1324 -8.38145,3.75522 -3.39548,0.72292 -8.19569,0.43829 -11.77437,-0.69815 -2.57805,-0.81869 -2.59618,-0.81937 -5.01554,-0.18879 -1.33548,0.34807 -2.85534,0.64201 -3.37746,0.65319 -4.98459,0.10678 8.08822,6.48976 13.71198,6.69507 0.42253,0.0154 1.99306,-0.14231 3.49008,-0.35053 z m -71.1096796,-0.15059 c 0,-0.097 -0.0794,-0.17639 -0.1763904,-0.17639 -0.097,0 -0.17639,0.0794 -0.17639,0.17639 0,0.097 0.0794,0.17639 0.17639,0.17639 0.097,0 0.1763904,-0.0794 0.1763904,-0.17639 z m 3.94885,-11.72986 c 2.24998,-2.34407 3.43174,-5.42254 5.17994003,-13.49375 2.01972997,-9.32485 3.29746997,-14.53178 4.13777997,-16.86199 0.51063,-1.41598 0.83093,-2.67199 0.71178,-2.79114 -0.11915,-0.11915 -2.0809,-0.43056 -4.35943997,-0.69203 l -4.14279003,-0.4754 -0.60984,0.79709 c -0.33541,0.43839 -0.94722,1.62128 -1.35959,2.62863 l -0.74974,1.83154 1.79701,2.2209 c 2.19298,2.71027 3.03241,4.4361 3.55237,7.30354 0.91243003,5.03173 -1.22934,11.00224 -5.23982,14.60683 -1.38241,1.24251 -2.02636,1.60649 -4.8003904,2.71337 l -1.05193,0.41973 1.64876,1.5578 c 2.1829604,2.06253 3.4764304,2.12001 5.2859004,0.23488 z m 64.1723596,0.28043 c 1.37054,-0.92037 1.55487,-1.20028 1.57359,-2.38956 0.0134,-0.85388 0.36862,-1.85836 0.97013,-2.74357 0.96519,-1.4204 1.20486,-2.29105 0.63068,-2.29105 -0.48179,0 -0.99223,-1.77456 -0.93863,-3.26319 0.0323,-0.89665 -0.10526,-1.32292 -0.42688,-1.32292 -0.26099,0 -0.3867,-0.14212 -0.27934,-0.31581 0.10735,-0.1737 -0.0297,-0.40211 -0.30458,-0.50759 -0.59225,-0.22727 -0.33268,-1.64605 0.30114,-1.64605 0.23133,0 0.72875,0.23308 1.10538,0.51795 0.37664,0.28487 1.09994,0.523 1.60735,0.52917 1.78102,0.0217 3.83994,2.49126 3.83994,4.60588 0,0.76968 -2.04106,2.90204 -2.50395,2.61596 -0.14647,-0.0905 -0.36303,0.75036 -0.48123,1.86864 -0.32935,3.1157 -0.8063,4.52512 -1.68683,4.98461 -0.68703,0.35852 -0.57864,0.38954 0.79145,0.22646 2.81971,-0.33562 5.67555,-1.61806 7.48316,-3.36036 1.52022,-1.4653 1.68872,-1.7844 1.68562,-3.1922 -0.005,-2.32353 -1.32406,-4.79822 -3.73232,-7.00283 -3.10424,-2.84174 -5.57494,-3.85614 -11.35777,-4.66318 -5.86199,-0.8181 -5.62324,-0.74798 -8.89535,-2.6122 -3.6577,-2.08388 -5.6744,-2.69435 -8.806,-2.6656 -3.21837,0.0295 -5.59228,1.05858 -7.68865,3.33287 -2.56901,2.78705 -3.70331,7.80267 -2.61263,11.55247 0.97663,3.35768 4.6038,6.74139 8.34756,7.78726 2.68822,0.75099 6.403,0.48154 9.99487,-0.72498 3.25484,-1.09332 3.93985,-1.13691 3.93985,-0.25073 0,0.39321 1.41658,1.17171 3.175,1.74485 1.36026,0.44337 2.80645,0.16748 4.26844,-0.8143 z m -70.59066,0.51332 c 0,-0.097 -0.0794,-0.17639 -0.17639,-0.17639 -0.097,0 -0.17639,0.0794 -0.17639,0.17639 0,0.097 0.0794,0.17639 0.17639,0.17639 0.097,0 0.17639,-0.0794 0.17639,-0.17639 z m 76.55277,-7.76111 c 0,-0.097 -0.0794,-0.17639 -0.17639,-0.17639 -0.097,0 -0.17638,0.0794 -0.17638,0.17639 0,0.097 0.0794,0.17639 0.17638,0.17639 0.097,0 0.17639,-0.0794 0.17639,-0.17639 z M 103.456,-175.9864 c 0.53703,-0.65513 0.62484,-1.29359 0.52917,-3.84762 l -0.1147,-3.06217 -1.23472,0.17084 c -0.6791,0.094 -2.50472,0.19456 -4.056952,0.22356 -2.68818,0.0502 -5.09058,-0.54997 -7.66813,-1.91574 -1.32727,-0.70329 -1.43989,-0.44421 -1.22806,2.82539 0.13065,2.01654 0.41075,3.46538 0.77843,4.02655 1.17791,1.79771 4.83801,2.76355 9.52887,2.5145 2.385142,-0.12663 2.921952,-0.27149 3.466092,-0.93531 z m -114.751862,-0.37948 c 2.0805504,-1.2418 3.9443104,-3.63096 4.5590404,-5.84424 1.92186,-6.91952 -2.96307,-14.53823 -9.3117904,-14.523 -1.97446,0.005 -4.78722,1.39498 -6.14622,3.03785 -2.28621,2.76375 -3.20048,8.60067 -1.93083,12.32689 0.7122,2.09019 3.58786,5.11703 5.40586,5.69005 0.6791,0.21405 2.19425,0.40539 3.367,0.4252 1.81376,0.0306 2.41976,-0.13558 4.05694,-1.11275 z m 89.84163,-3.11107 c 0.76033,-2.1427 0.95705,-3.42176 1.08107,-7.02906 0.17671,-5.1394 -0.57068,-9.09378 -2.40585,-12.72924 l -1.08906,-2.15741 -1.30017,0.24168 c -2.38777,0.44384 -6.56333,2.31244 -9.31108,4.1668 -2.6691,1.80128 -9.02241,7.22403 -9.07305,7.74414 -0.0142,0.14552 0.80767,0.26693 1.82632,0.2698 7.53474,0.0212 15.71073,5.36727 17.93639,11.72812 0.60774,1.7369 1.08976,1.27564 2.33543,-2.23483 z m -14.53789,2.49451 c 0.53133,-0.58711 0.57102,-0.85797 0.23412,-1.5974 -0.79047,-1.73488 -2.52847,-1.38216 -2.52847,0.51314 0,1.72991 1.19778,2.29595 2.29435,1.08426 z m 45.683422,-0.52774 c 0.24155,-0.29104 0.60427,-0.52916 0.80606,-0.52916 0.51177,0 3.75778,-2.05847 4.92032,-3.12024 1.37378,-1.25469 2.18286,-3.57291 1.8888,-5.41188 -0.38853,-2.42974 -0.74644,-2.58591 -2.67752,-1.16836 -0.92425,0.67846 -2.98147,1.88474 -4.57161,2.68063 l -2.89115,1.44707 0.82158,0.87487 c 0.71266,0.75889 0.81359,1.19846 0.76131,3.31556 -0.0609,2.46538 0.14161,2.87618 0.94221,1.91151 z m -5.39415,-9.38597 c 5.91145,-1.79843 10.32262,-4.94346 11.59067,-8.26379 2.20006,-5.76078 -2.77635,-18.37756 -8.95874,-22.71322 -1.60243,-1.12377 -2.33461,-1.03886 -4.99889,0.57974 -3.855562,2.34233 -11.859582,5.57921 -18.079862,7.31162 -1.11566,0.31072 -2.02847,0.6505 -2.02847,0.75507 0,0.10457 0.71998,1.68023 1.59996,3.50146 1.39512,2.88736 2.52792,6.0719 4.63805,13.03847 0.68038,2.24627 1.55178,3.45447 3.41714,4.73786 3.29277,2.26549 7.65619,2.62381 12.820142,1.05279 z m -4.449622,-9.56134 c -4.28054,-2.29928 -2.52564,-8.7402 2.382522,-8.74442 1.27577,-0.001 1.73688,0.20098 2.73403,1.19813 1.07924,1.07923 1.19945,1.39794 1.19945,3.18018 0,1.74662 -0.13552,2.12643 -1.14653,3.21346 -1.32259,1.42203 -3.68664,1.94915 -5.169472,1.15265 z m 3.468582,-2.02948 c 0.34869,-0.18661 0.82701,-0.80531 1.06294,-1.37488 1.10558,-2.66913 -2.4178,-4.89733 -4.18714,-2.64797 -1.904712,2.42145 0.45031,5.45387 3.1242,4.02285 z m -48.874202,5.03837 c 3.3987,-3.63637 7.31271,-6.8272 10.05149,-8.19429 1.59322,-0.79528 6.56147,-2.65253 9.1744,-3.42962 0.82442,-0.24519 -0.63265,-1.54183 -1.7326,-1.54183 -0.52682,0 -2.68503,0.40123 -4.79602,0.89163 -9.06297,2.10539 -15.46562,3.15258 -21.73349,3.55461 -4.37517,0.28064 -4.20797,0.16905 -6.2941,4.20041 -1.08693,2.10043 -1.31983,2.8245 -0.96812,3.00984 0.25471,0.13422 1.57437,0.33647 2.93256,0.44944 3.37173,0.28044 5.66036,1.03356 8.13765,2.67784 1.1511,0.76404 2.15442,1.4015 2.22962,1.41658 0.0752,0.0151 1.42456,-1.35049 2.99861,-3.03461 z m -28.41583,-3.99166 c 1.93587,-1.0318 3.55628,-2.61729 3.12041,-3.05316 -0.0923,-0.0923 -3.54984,-0.18185 -7.68337,-0.19896 -5.5832,-0.0231 -7.55205,0.0785 -7.65759,0.3951 -0.22117,0.66351 2.53362,3.07037 4.22705,3.69316 2.36643,0.8703 5.38414,0.55464 7.9935,-0.83614 z m 9.75305,-9.88399 c 15.32176,-1.20593 23.886,-2.55725 36.87051,-5.81766 18.07817,-4.53941 29.142102,-9.56272 39.713522,-18.03093 6.9088,-5.53428 11.55925,-11.78478 14.14337,-19.00955 1.10116,-3.07868 1.23556,-4.40773 0.61106,-6.04295 -1.42374,-3.728 1.30686,-10.23892 6.52197,-15.55118 3.40897,-3.47248 5.51956,-4.49792 9.27391,-4.50577 2.18876,-0.005 2.89354,0.13351 3.68193,0.72136 0.53626,0.39987 1.02966,0.89093 1.09643,1.09126 0.0668,0.20032 -1.08058,0.64729 -2.54969,0.99326 -3.24206,0.76349 -6.06366,2.49618 -8.38356,5.14817 -1.78766,2.04357 -3.84387,5.67999 -4.42706,7.8293 -0.35416,1.30521 -0.33694,1.34068 1.14645,2.36128 2.8948,1.99167 3.66919,4.56182 2.31968,7.69885 -0.8415,1.95612 -3.61572,4.84527 -4.9974,5.20443 -0.59677,0.15513 -1.35542,1.19425 -2.74906,3.76538 -1.8089,3.33723 -3.78849,6.23695 -6.63242,9.71526 -1.08997,1.33311 -1.15414,1.5216 -0.59151,1.7375 0.95751,0.36743 7.193,-0.51398 10.37594,-1.46667 7.58221,-2.26946 14.50693,-7.19478 18.85063,-13.40782 2.1669,-3.09944 4.61232,-8.14743 5.3327,-11.00811 1.23996,-4.92392 1.24571,-11.86833 0.0137,-16.58603 -0.99895,-3.82539 -4.20661,-8.45803 -7.15883,-10.33909 -0.81957,-0.52221 -1.42245,-1.01715 -1.33972,-1.09988 0.0827,-0.0827 -0.11984,-0.16306 -0.45015,-0.1785 -0.3303,-0.0154 -1.52514,-0.18604 -2.6552,-0.37907 -1.13005,-0.19304 -2.71755,-0.28346 -3.52777,-0.20093 -1.56916,0.15984 -4.76733,1.07403 -5.3537,1.53034 -0.19403,0.15099 -0.98778,0.39302 -1.76389,0.53784 -0.77611,0.14483 -1.92195,0.47653 -2.5463,0.73713 -1.65752,0.69181 -2.47987,0.58498 -3.12956,-0.40658 -0.82453,-1.25839 -0.39031,-3.08409 1.08422,-4.55862 0.8051,-0.80509 2.13343,-1.52313 4.06926,-2.19966 3.21661,-1.12412 3.33872,-1.26351 4.27395,-4.87865 2.06723,-7.99089 1.58892,-18.13219 -1.30313,-27.62983 -1.37665,-4.52099 -1.27409,-4.40111 -3.06836,-3.58664 -3.53339,1.6039 -8.14257,0.55276 -11.08032,-2.52691 -3.30442,-3.46404 -4.00775,-7.25565 -2.05443,-11.07533 0.98582,-1.92774 1.65807,-2.59319 4.92577,-4.87587 0.68505,-0.47855 0.6815,-0.50802 -0.22413,-1.85732 -1.03067,-1.5356 -6.49244,-8.11394 -6.99419,-8.42404 -0.17778,-0.10987 -0.95109,0.4796 -1.71847,1.30994 -0.76738,0.83034 -2.05006,1.98596 -2.8504,2.56804 -1.6154,1.17488 -1.65665,1.52185 -0.52428,4.40973 0.35062,0.89418 0.63488,2.59121 0.65087,3.88573 0.0236,1.90678 -0.16351,2.6879 -1.0983,4.58611 -1.57503,3.19825 -3.23318,4.93371 -4.71394,4.93371 -2.7584,0 -3.22749,-2.33515 -1.05098,-5.23182 1.78985,-2.38207 2.02566,-3.62944 1.13117,-5.98356 -0.80724,-2.12446 -2.43677,-5.0124 -2.82828,-5.0124 -0.14779,0 -0.81578,0.57 -1.48443,1.26667 -5.293812,5.51557 -20.940042,7.11419 -32.132652,3.28309 -5.23873,-1.79316 -12.08645,-5.99421 -16.63588,-10.20606 l -2.75001,-2.54596 -1.65971,1.4005 c -1.79475,1.51446 -3.22436,3.28477 -4.73782,5.86695 -0.84959,1.4495 -1.10315,1.64037 -2.17926,1.64037 -1.37255,0 -2.68012,-1.28656 -2.68012,-2.63706 0,-1.65632 2.14523,-5.06943 4.98004,-7.92335 1.56002,-1.57053 2.78427,-2.97227 2.72054,-3.11496 -0.0637,-0.1427 -0.78138,-1.37068 -1.59479,-2.72884 -1.91868,-3.20367 -3.25812,-7.27746 -3.65542,-11.11767 -0.38267,-3.69874 -0.2349,-5.62952 0.71281,-9.31351 0.39509,-1.53579 0.62534,-2.88517 0.51168,-2.99862 -0.43648,-0.43565 -21.82087,-0.20953 -25.01792,0.26454 -1.74625,0.25894 -3.65125,0.54152 -4.23333,0.62795 -20.2894796,3.01255 -39.78521,10.72134 -55.03333,21.76065 -10.789284,7.81122 -17.947175,15.21876 -25.124046,26.00031 -4.118426,6.18697 -5.939198,9.83606 -8.801185,17.63889 -2.661659,7.25666 -4.346873,15.85826 -4.924499,25.13542 -0.129868,2.08579 -0.146405,3.79236 -0.03675,3.79236 0.109657,0 0.63544,-1.30938 1.168407,-2.90974 1.19133,-3.57724 2.319423,-6.15838 3.528874,-8.07428 0.771589,-1.22227 0.858257,-1.59738 0.533669,-2.30978 -0.589757,-1.29437 -0.471176,-2.09276 0.472147,-3.17889 0.761022,-0.87623 0.944709,-0.93792 1.60078,-0.53756 0.663834,0.4051 0.839764,0.33153 1.687169,-0.70555 1.934225,-2.36717 5.981315,-6.17383 8.318389,-7.82421 6.371946,-4.49972 16.824374,-7.31942 24.803794,-6.69121 8.37061,0.65901 16.47656,4.59073 22.9771,11.14484 4.02408,4.05725 6.1702804,7.11299 8.7395404,12.44332 3.77207,7.82575 4.89195003,12.65735 4.86519003,20.99028 -0.0269,8.37653 -1.49833003,15.14726 -4.88463003,22.47646 -2.46489,5.33494 -8.9232204,12.60021 -13.4565804,15.13793 -11.37991,6.37034 -25.43853,6.45014 -38.886478,0.22072 -4.473446,-2.07221 -12.338764,-8.60885 -14.884159,-12.3698 l -1.118621,-1.65281 0.223341,1.50297 c 0.813597,5.4751 4.502855,12.86592 9.551329,19.13452 7.367804,9.14848 19.182398,16.24917 36.170828,21.73905 11.18951,3.61593 26.8625504,6.161 42.8625,6.96022 3.67631,0.18363 16.38527,-0.10548 21.16143,-0.4814 z m -25.22824,-5.9843 c -4.7945596,-0.6188 -9.81570957,-3.18258 -12.1049796,-6.18075 -2.77943,-3.6401 -3.72085,-8.79391 -2.40043,-13.1411 1.41915,-4.67224 4.76198003,-8.59036 9.18556,-10.76634 2.19578,-1.08012 2.52798,-1.14063 6.2060896,-1.13036 4.30771,0.012 6.36832,0.57035 10.03524,2.71906 2.42603,1.42159 8.4889,7.36123 9.4601,9.26783 2.03965,4.00414 2.46817,9.24472 1.0117,12.37259 -1.61369,3.46553 -5.53641,6.12281 -10.09453,6.83811 -2.54189,0.39889 -8.28795,0.40955 -11.29875,0.021 z m 11.82792,-3.6055 c 3.1217,-0.67147 6.03492,-2.54327 7.06823,-4.54146 0.62038,-1.1997 0.6829,-5.02402 0.10976,-6.71382 -1.12572,-3.31892 -3.28521,-4.65452 -7.53077,-4.65761 -3.20694,-0.002 -4.93783,0.40595 -8.07617,1.90505 -5.0768296,2.42506 -8.6807696,7.26454 -8.6807696,11.6568 0,1.24422 0.0897,1.35863 1.32292,1.68834 1.83068,0.48942 4.6112896,1.03871 6.0854096,1.20213 1.89249,0.20979 7.72628,-0.11458 9.70139,-0.53943 z M 8.1942584,-235.39528 c 4.4904496,-1.53005 5.1046996,-6.42679 0.78521,-6.25962 -4.22486,0.16351 -7.40434,4.11532 -4.89753,6.08718 1.11535,0.87734 1.94186,0.91199 4.11232,0.17244 z m 46.7418796,10.11982 c -0.94677,-0.84594 -1.14408,-1.27804 -1.14408,-2.50555 0,-1.2275 0.19731,-1.6596 1.14408,-2.50554 1.5661,-1.39932 3.28286,-1.39603 4.68786,0.009 1.7121,1.7121 1.35486,4.41568 -0.72563,5.49154 -1.53406,0.7933 -2.68586,0.65103 -3.96223,-0.48941 z m 3.53183,-1.16499 c 0.23284,-0.23283 0.42334,-0.83608 0.42334,-1.34056 0,-1.18778 -0.60162,-1.76388 -1.84201,-1.76388 -1.29724,0 -1.99804,1.3271 -1.39718,2.64583 0.44177,0.96958 2.04394,1.23052 2.81585,0.45861 z m 12.59417,-7.58067 c -4.63444,-0.60069 -11.01562,-2.49619 -14.67405,-4.35887 -7.08037,-3.60494 -15.64344,-12.29104 -19.28641,-19.56351 -6.37712,-12.73063 -6.33927,-29.84444 0.0948,-42.87528 3.98581,-8.07238 11.37398,-15.47308 19.53637,-19.5695 12.40462,-6.22545 29.7294,-5.85266 43.16822,0.92888 4.960152,2.503 12.021902,8.29867 14.541392,11.93428 0.54407,0.7851 1.19358,1.42745 1.44334,1.42745 0.83951,0 2.7106,-1.89033 4.25319,-4.29693 2.07031,-3.22989 3.70614,-3.63727 5.05679,-1.25931 0.47413,0.83476 0.42439,1.07194 -0.68193,3.25157 -1.28261,2.52693 -3.36164,4.92669 -5.21275,6.01689 -0.63245,0.37248 -1.1072,0.76117 -1.05499,0.86376 7.22918,14.20669 7.82642,28.68791 1.71112,41.48973 -2.46484,5.15992 -4.90151,8.54201 -9.384,13.02496 -3.03526,3.03557 -4.68743,4.36054 -7.58472,6.08263 -6.132442,3.64499 -11.510312,5.56791 -18.456402,6.59931 -3.32083,0.49309 -10.72216,0.6601 -13.46999,0.30394 z m 14.17196,-4.88062 c 9.10439,-1.82934 16.599352,-5.83118 22.621072,-12.07824 5.43973,-5.64329 9.0278,-12.53296 10.33243,-19.83991 0.57936,-3.24487 0.5823,-11.70541 0.005,-14.81667 -1.55432,-8.37891 -5.50741,-15.99149 -11.20758,-21.58277 -3.53709,-3.46952 -4.33293,-4.10961 -7.726702,-6.21449 -7.07971,-4.39098 -14.2201,-6.43222 -22.53132,-6.4411 -5.38255,-0.006 -9.44667,0.63225 -13.516,2.12179 -9.14205,3.34635 -14.98188,7.93854 -20.35421,16.00568 -7.27996,10.93163 -9.80656,21.96147 -7.57764,33.08002 1.4647,7.30636 4.0321,12.04649 9.61232,17.74701 8.51578,8.69935 20.27569,13.19602 33.28691,12.72799 2.3618,-0.085 5.5368,-0.40414 7.05556,-0.70931 z m -18.2289,-22.40048 c -5.97666,-1.0433 -10.63301,-4.51054 -13.49248,-10.04684 -0.50108,-0.97014 -0.99918,-2.39102 -1.10691,-3.15751 -0.12742,-0.90657 -0.57185,-1.7696 -1.27169,-2.46944 -0.91125,-0.91125 -1.34461,-1.07582 -2.83293,-1.07582 -1.21537,0 -1.7571,-0.1428 -1.7571,-0.46315 0,-0.25473 -0.27782,-0.41744 -0.61737,-0.36158 -0.33954,0.0559 -0.84032,-0.0381 -1.11284,-0.20873 -0.32186,-0.20156 -0.41542,-0.18075 -0.26702,0.0594 0.126,0.20388 -0.1475,0.46402 -0.60987,0.58006 -0.46108,0.11573 -1.35731,0.69521 -1.99161,1.28774 -1.11474,1.04131 -1.1508,1.16236 -1.07899,3.62158 0.0409,1.39934 -0.0676,2.92773 -0.24095,3.39642 -0.27809,0.75176 -0.38179,0.58529 -0.8802,-1.41311 -2.38498,-9.56261 0.62174,-21.22712 7.68966,-29.83189 2.15669,-2.62563 6.07647,-6.34977 8.07122,-7.66838 7.99622,-5.28578 16.6617,-7.03676 24.71475,-4.99393 3.79763,0.96334 8.53611,3.17614 11.51702,5.37827 8.06589,5.95863 13.107672,17.25821 12.532052,28.0867 -0.25686,4.83202 -1.37303,9.23997 -2.35852,9.31421 -0.38378,0.0289 -0.68678,-0.17032 -0.68678,-0.45157 0,-1.44576 -4.840082,-6.37203 -5.556582,-5.65553 -0.10964,0.10964 -0.4319,0.006 -0.71613,-0.22956 -0.70668,-0.58649 -4.52534,-0.40793 -6.10217,0.28534 -1.57501,0.69247 -2.44179,2.11611 -2.44179,4.01053 0,4.81912 -6.99401,10.91722 -13.75833,11.99592 -2.56506,0.40905 -3.35486,0.41058 -5.64444,0.0109 z m 2.74462,-22.14909 c 3.73446,-1.4323 7.08449,-4.84303 8.36823,-8.51988 0.3019,-0.86467 0.5645,-2.77667 0.58355,-4.24889 0.0286,-2.20669 -0.12888,-3.02244 -0.89658,-4.64522 -3.38179,-7.14852 -11.3215,-9.68804 -18.83464,-6.02427 -2.65031,1.29242 -5.45401,4.08653 -6.67524,6.65239 -0.86925,1.82635 -0.98804,2.48147 -0.98431,5.4284 0.004,3.05479 0.0975,3.52061 1.05833,5.26341 2.69773,4.8934 6.95596,7.22281 12.69576,6.94504 1.67737,-0.0812 3.57783,-0.42638 4.6849,-0.85098 z m 31.827592,13.86614 c 0,-0.097 0.0794,-0.17639 0.17639,-0.17639 0.097,0 0.17639,0.0794 0.17639,0.17639 0,0.097 -0.0794,0.17639 -0.17639,0.17639 -0.097,0 -0.17639,-0.0794 -0.17639,-0.17639 z m 0.35278,-0.88194 c 0,-0.25871 0.10584,-0.36454 0.23519,-0.23519 0.12935,0.12935 0.12935,0.34102 0,0.47037 -0.12935,0.12935 -0.23519,0.0235 -0.23519,-0.23518 z m -45.155552,-45.68472 c 0,-0.097 -0.0794,-0.17639 -0.17639,-0.17639 -0.097,0 -0.17639,0.0794 -0.17639,0.17639 0,0.097 0.0794,0.17639 0.17639,0.17639 0.097,0 0.17639,-0.0794 0.17639,-0.17639 z m -38.51898,64.49821 c -0.31853,-0.35499 -1.15536,-1.83606 -1.85961,-3.29127 -1.77873,-3.67545 -2.17377,-4.1655 -2.82938,-3.50989 -0.28322,0.28323 -1.19448,1.78413 -2.02502,3.33534 -1.38068,2.57872 -1.6111296,2.83006 -2.6895896,2.93339 -2.71826,0.26043 -3.2229,-1.97391 -1.30959,-5.79825 1.70004,-3.39804 3.2035696,-4.77528 5.4486496,-4.991 2.45218,-0.23563 3.22405,0.0341 4.87789,1.70447 2.74651,2.77396 4.84191,8.34697 3.54354,9.42452 -0.95913,0.79601 -2.52951,0.89187 -3.15689,0.19269 z m -75.720462,-79.33953 c -2.008487,-0.8445 -2.233031,-2.69416 -0.669971,-5.51882 1.382127,-2.49769 5.257092,-3.22595 6.717294,-1.26244 2.456799,3.30361 -2.117858,8.43348 -6.047323,6.78126 z m 3.250313,-1.94677 c 0.515113,-0.40519 1.14974,-1.15925 1.410284,-1.6757 1.168593,-2.31636 -1.2362,-3.45331 -3.291877,-1.55635 -1.322685,1.22057 -1.689218,2.60007 -0.900419,3.38887 0.779413,0.77941 1.654492,0.73008 2.782012,-0.15682 z m 1.628027,-0.14524 c 0,-0.097 -0.07937,-0.17639 -0.176389,-0.17639 -0.09701,0 -0.176389,0.0794 -0.176389,0.17639 0,0.097 0.07937,0.17639 0.176389,0.17639 0.09701,0 0.176389,-0.0794 0.176389,-0.17639 z m 0.705556,-1.41111 c 0,-0.097 -0.07937,-0.17639 -0.176389,-0.17639 -0.09701,0 -0.176389,0.0794 -0.176389,0.17639 0,0.097 0.07937,0.17638 0.176389,0.17638 0.09701,0 0.176389,-0.0794 0.176389,-0.17638 z m 36.089436,-9.00401 c -2.04743,-1.04126 -3.10512,-3.20945 -2.80437,-5.74879 0.24134,-2.03774 0.96188,-3.20306 2.7307,-4.4163 1.02701,-0.70443 1.53332,-0.80425 3.47291,-0.68465 1.32936,0.082 2.32867,0.31414 2.4106504,0.56007 0.077,0.23104 0.29688,0.42007 0.4886,0.42007 0.99144,0 2.47545,2.61376 2.50257,4.40775 0.0655,4.3338 -4.9269704,7.43208 -8.8010604,5.46185 z m 4.9969,-3.55615 c 1.0027304,-0.88041 1.2459404,-1.34685 1.2415904,-2.38125 -0.008,-1.89123 -0.9166904,-2.83798 -2.9925704,-3.11773 -1.06598,-0.14365 -1.42506,0.0102 -2.47581,1.06097 -3.3358,3.33581 0.67992,7.5522 4.22679,4.43801 z m 159.996982,110.27959 c 0,-0.097 -0.0794,-0.17639 -0.17639,-0.17639 -0.097,0 -0.17639,0.0794 -0.17639,0.17639 0,0.097 0.0794,0.17639 0.17639,0.17639 0.097,0 0.17639,-0.0794 0.17639,-0.17639 z m -180.093042,-5.47059 c 4.44846,-0.73997 8.19154,-2.10296 12.15589,-4.4264 9.9077904,-5.8068 15.6723704,-15.25737 16.9878504,-27.85023 0.38268,-3.6633 0.13928,-8.64305 -0.42245,-8.64305 -0.17748,0 -0.32268,0.77159 -0.32268,1.71465 0,3.04936 -0.39296,4.9854 -1.01809,5.01598 -0.36522,0.0179 -0.41127,0.0917 -0.12844,0.20578 0.53175,0.21457 0.59428,1.53025 0.0727,1.53025 -0.20253,0 -0.34247,0.19844 -0.31098,0.44098 0.11268,0.86772 -0.0326,1.32291 -0.42231,1.32291 -0.27358,0 -0.26023,-0.16356 0.0432,-0.52916 0.28335,-0.34141 0.30434,-0.52917 0.0592,-0.52917 -0.20899,0 -0.48379,-0.55333 -0.61067,-1.22962 -0.16965,-0.90431 -0.57011,-1.44097 -1.51366,-2.02848 -1.65602,-1.03111 -3.8741904,-2.03357 -4.4997604,-2.03357 -0.26986,0 -0.49308,-0.19843 -0.49605,-0.44097 -0.004,-0.31151 -0.098,-0.29475 -0.32068,0.0571 -0.2126,0.33585 -0.88829,0.47778 -2.07467,0.43579 -0.96765,-0.0343 -2.19922,0.10495 -2.7368,0.30934 -1.94534,0.73962 -3.25673,3.16124 -2.7675,5.1105 0.14348,0.57166 -0.15901,1.38168 -1.00811,2.69957 -1.90412,2.95539 -4.81162,5.44832 -8.29085,7.10867 -2.99807,1.43074 -3.17533,1.46954 -6.60848,1.44634 -3.74622,-0.0253 -6.62835,-0.67559 -8.95153,-2.01968 -1.68818,-0.97671 -4.98319,-3.44214 -4.98319,-3.72858 0,-0.12433 -0.56308,-0.85932 -1.25128,-1.63331 -1.728648,-1.94414 -3.327558,-4.75319 -3.331525,-5.853 -0.0042,-1.16659 -1.354949,-3.19133 -2.485924,-3.72636 -0.891539,-0.42177 -2.486861,-0.73051 -5.278497,-1.02154 -3.127594,-0.32605 -4.311356,0.97881 -4.769564,5.25749 -0.138913,1.29715 -0.417118,2.46016 -0.618232,2.58445 -0.211699,0.13084 -0.259676,0.0545 -0.113946,-0.18129 0.138444,-0.22401 0.105289,-0.40728 -0.07368,-0.40728 -0.662591,0 -1.303372,-4.45625 -1.268181,-8.81945 0.08665,-10.74356 5.025751,-20.71147 13.330547,-26.90322 5.683969,-4.23776 11.889899,-6.29542 19.089439,-6.32938 4.90696,-0.0231 6.54785,0.179 9.70139,1.19518 8.99207,2.89753 16.3288304,9.33658 20.7254404,18.18951 0.89095,1.794 1.67642,3.20531 1.74548,3.13625 0.0691,-0.0691 -0.36525,-1.4575 -0.96514,-3.08542 -3.1336,-8.50368 -8.2494904,-14.69841 -15.5085604,-18.779 -6.16106,-3.46336 -10.57527,-4.75343 -17.32742,-5.064 -6.55084,-0.3013 -10.9441,0.63723 -16.900332,3.6104 -13.230134,6.6041 -21.511131,20.4644 -21.511131,36.0042 0,7.09851 1.14437,12.33189 3.918218,17.9186 4.125146,8.30832 11.270705,14.94231 19.365113,17.9787 2.268852,0.8511 8.031992,2.17477 10.759722,2.47128 2.00382,0.21782 8.43316,-0.0654 10.93611,-0.48175 z m -45.331941,-1.93774 c 0,-0.097 -0.07937,-0.17639 -0.176389,-0.17639 -0.09701,0 -0.176389,0.0794 -0.176389,0.17639 0,0.097 0.07937,0.17639 0.176389,0.17639 0.09701,0 0.176389,-0.0794 0.176389,-0.17639 z m -1.194001,-2.52314 c -0.489398,-0.94061 -0.897206,-1.59538 -0.90624,-1.45505 -0.02565,0.39838 1.511402,3.4499 1.661906,3.2994 0.07378,-0.0738 -0.266268,-0.90374 -0.755666,-1.84435 z m 10.366222,-28.5213 c 0,-0.097 -0.07937,-0.17639 -0.176389,-0.17639 -0.09701,0 -0.176388,0.0794 -0.176388,0.17639 0,0.097 0.07937,0.17639 0.176388,0.17639 0.09701,0 0.176389,-0.0794 0.176389,-0.17639 z m 57.1500004,-4.58611 c 0,-0.097 -0.0794,-0.17639 -0.1763904,-0.17639 -0.097,0 -0.17639,0.0794 -0.17639,0.17639 0,0.097 0.0794,0.17639 0.17639,0.17639 0.097,0 0.1763904,-0.0794 0.1763904,-0.17639 z m -27.8359904,-5.06308 c 2.81232,-1.09357 5.87844,-3.98314 7.39324,-6.96754 1.12117,-2.2089 1.21636,-2.6469 1.21636,-5.59727 0,-2.90441 -0.10718,-3.41855 -1.15732,-5.55167 -1.42074,-2.88595 -3.92205,-5.23659 -6.70905,-6.30494 -2.77435,-1.0635 -7.54258,-1.09439 -10.36477,-0.0671 -6.413815,2.33457 -10.03181,7.40528 -9.755639,13.67278 0.241361,5.47752 3.429751,9.52559 8.936779,11.34639 2.17433,0.7189 7.98672,0.4235 10.4404,-0.5306 z m -29.31401,-27.39248 c 0,-0.097 -0.07937,-0.17638 -0.176389,-0.17638 -0.09701,0 -0.176388,0.0794 -0.176388,0.17638 0,0.097 0.07937,0.17639 0.176388,0.17639 0.09701,0 0.176389,-0.0794 0.176389,-0.17639 z M 130.69787,-328.8359 c 1.57453,-0.65788 1.79058,-1.28002 1.08558,-3.12602 -0.8335,-2.1825 -3.71857,-6.90366 -4.46186,-7.30146 -0.35156,-0.18814 -1.12619,-0.24469 -1.7214,-0.12564 -2.57091,0.51418 -4.0027,3.72915 -2.99684,6.72916 0.7048,2.10211 1.34285,2.84876 3.13934,3.67372 1.71194,0.78612 3.31683,0.83478 4.95518,0.15024 z m -36.938492,-18.50938 c 3.05692,-0.88882 5.61068,-2.12502 6.559962,-3.17548 0.76764,-0.84947 0.81238,-0.72139 -2.101652,-6.01645 -1.44251,-2.62118 -1.46077,-3.6895 -0.0806,-4.71544 1.47959,-1.09982 2.586602,-0.51514 4.587272,2.42278 3.24315,4.76248 4.60312,6.51832 5.0487,6.51832 0.55641,0 4.05992,-2.98339 5.144,-4.38033 l 0.79849,-1.02895 -2.33,-2.16446 c -4.71658,-4.38148 -13.769552,-11.10503 -14.967742,-11.11638 -0.41242,-0.004 -1.60305,0.36714 -2.64583,0.82455 -10.83609,4.75314 -23.64634,-0.87726 -24.6226,-10.82219 l -0.20394,-2.07746 -1.76389,-0.68072 c -2.78624,-1.07527 -12.68392,-2.94692 -16.91564,-3.19875 l -1.74619,-0.10392 -1.0029,2.82222 c -0.9245,2.60161 -0.9911,3.12557 -0.85198,6.70278 0.15922,4.09414 0.89216,6.86562 2.79885,10.58333 1.73535,3.38363 1.45592,3.363 4.94569,0.3651 1.70185,-1.46198 3.38508,-2.65815 3.74051,-2.65815 1.09012,0 2.50528,1.36504 2.50528,2.41655 0,1.30319 -0.60821,2.07402 -3.50897,4.44722 -1.36854,1.11965 -2.48826,2.25385 -2.48826,2.52046 0,0.59515 4.54062,5.07966 5.14323,5.07966 0.23863,0 0.90719,-0.83868 1.48569,-1.86374 1.30707,-2.316 1.81633,-2.74454 3.49961,-2.94496 2.63117,-0.31326 2.81559,0.52898 1.04398,4.76793 -0.6799,1.62681 -1.15017,3.18199 -1.04505,3.45595 0.42798,1.11528 6.93599,3.61828 11.80771,4.54126 3.98477,0.75495 13.80316,0.45712 17.16624,-0.52073 z m -153.048619,-1.96766 c 0,-0.097 -0.07937,-0.17639 -0.176389,-0.17639 -0.09701,0 -0.176389,0.0794 -0.176389,0.17639 0,0.097 0.07937,0.17639 0.176389,0.17639 0.09701,0 0.176389,-0.0794 0.176389,-0.17639 z M 89.873348,-372.9632 c 0.98779,-0.29334 1.88647,-0.67977 1.99707,-0.85873 0.49926,-0.80781 -17.97647,-8.81482 -18.97685,-8.22419 -0.15688,0.0926 -0.1772,0.66923 -0.0451,1.28135 1.08728,5.04003 7.13824,8.97778 13.07132,8.50636 1.18669,-0.0943 2.96581,-0.41145 3.9536,-0.70479 z"
       id="path294" /></g></svg>
