<?xml version="1.0" encoding="UTF-8" standalone="no"?>
<!-- Created with Inkscape (http://www.inkscape.org/) -->

<svg
   width="204.88026mm"
   height="289.23956mm"
   viewBox="0 0 204.8803 289.23954"
   version="1.1"
   id="svg1"
   xml:space="preserve"
   xmlns="http://www.w3.org/2000/svg"
   xmlns:svg="http://www.w3.org/2000/svg"><defs
     id="defs1"><clipPath
       clipPathUnits="userSpaceOnUse"
       id="clipPath6"><path
         id="path7"
         style="fill:#ff0000;fill-opacity:1;fill-rule:nonzero;stroke:none;stroke-width:0.264583"
         d="M -175.07778,-16.057127 V 287.55793 H 124.54631 V -16.057127 Z m 132.7459,202.572647 c 0.210643,0.005 0.427212,0.0169 0.650089,0.0367 2.23823,0.19855 4.475655,0.4031 6.717938,0.55346 1.973313,0.11308 0.986628,0.0436 2.958475,0.20825 3.181295,0.26563 4.740125,1.85116 4.950601,3.46956 4.949923,1.63749 3.796379,7.35609 -2.592089,6.81354 -3.228716,-0.27422 -1.569593,-0.1301 -4.979024,-0.43357 -4.228209,-0.39317 -8.460616,-0.76265 -12.666927,-1.35341 -6.647387,-0.93358 -5.930551,-7.21034 0.03204,-7.20421 0.04685,5e-5 0.0972,0.004 0.144695,0.005 0.687229,-1.21692 2.304132,-2.15435 4.784204,-2.09548 z" /></clipPath><clipPath
       clipPathUnits="userSpaceOnUse"
       id="clipPath76"><path
         id="path77"
         style="fill:#ff0000;fill-opacity:1;fill-rule:nonzero;stroke:none;stroke-width:0.264583"
         d="M -133.83107,-122.52355 V 173.82063 H 122.97289 V -122.52355 Z M 13.574404,98.948202 c 2.788179,0.0507 4.135003,2.063798 3.398242,4.077268 0.199805,0.45372 0.374906,0.96736 0.517797,1.54461 1.07913,4.35948 0.671079,8.891 0.311608,13.31495 -0.351859,3.06036 -0.147137,1.57974 -0.604097,4.44366 -0.359666,2.25418 -1.333846,3.66838 -2.455664,4.32532 0.105138,0.36595 0.224724,0.72888 0.324528,1.09554 0.6273,2.23652 0.575201,4.47401 0.39429,6.75514 -0.137303,1.73129 -0.688065,2.99533 -1.427303,3.82199 -0.112477,0.41601 -0.170275,0.80219 -0.311092,1.25212 -0.184975,0.59102 -0.413327,1.1061 -0.670242,1.55856 0.741137,-0.23134 1.446982,-0.38145 2.064991,-0.37517 4.085002,0.0415 5.222724,4.75435 -0.02223,7.27138 -4.46677,2.14368 -9.303523,3.34693 -14.11903492,4.40955 -4.40876268,0.85156 -8.89238128,1.33053 -13.38264308,1.19269 -5.804014,-0.17807 -6.736297,-5.00293 -3.065447,-6.67298 -2.072987,-0.65744 -4.042852,-1.62261 -4.128947,-3.14709 -0.02802,-0.49633 0.0026,-0.90355 0.0341,-1.30897 -1.976731,-0.003 -3.95339,2.4e-4 -5.930386,0.003 -0.814031,0 -1.53062,-0.0962 -2.159559,-0.26149 -0.376306,0.19492 -0.742394,0.40783 -1.120862,0.59893 -6.391272,3.22657 -9.625245,-3.24074 -3.234428,-6.46886 1.833438,-0.92611 3.62694,-1.92211 5.414142,-2.92954 -0.877003,-3.87058 -1.368747,-7.83436 -1.323951,-11.80858 0.01651,-1.46304 0.376836,-2.54918 0.864547,-3.41426 -1.247357,-1.79999 -0.223805,-4.63069 3.842661,-5.68855 3.11826,-0.81116 6.282901,-1.39515 9.473837,-1.82211 -1.259816,-0.12657 -2.516182,-0.30233 -3.764627,-0.50177 -1.477002,-0.21985 -2.935575,-0.54305 -4.407482,-0.7891 -1.14214,-0.22954 -0.588502,-0.12004 -1.660882,-0.3297 -3.350244,-0.65501 -4.783278,-2.61088 -4.608504,-4.32997 -0.200179,-1.7721 1.333365,-3.52972 4.663799,-3.59461 v -5.3e-4 c 0.20954,-0.004 0.426035,-0.002 0.649571,0.008 1.77111,0.0772 3.528708,0.28204 5.26428,0.64027 1.655035,0.33225 3.314115,0.6481 4.955251,1.04439 1.244759,0.34858 2.51628,0.54538 3.7997689,0.6723 0.025956,0.002 0.052073,0.002 0.078034,0.004 0.4990888,-0.0371 0.9984105,-0.0743 1.4965495,-0.11317 1.346872,-0.12588 2.6913231,-0.25136 4.0457464,-0.24236 1.1278499,-0.0444 2.2567291,-0.10772 3.37498791,-0.26872 0.75719517,-0.11591 1.51142439,-0.25483 2.25722659,-0.4284 0.3616431,-0.12394 0.7240561,-0.24538 1.083138,-0.37775 0.3360393,-0.12388 0.6107589,-0.12825 0.9250071,-0.20723 0.1281086,-0.045 0.2583895,-0.0825 0.3855085,-0.13074 1.9825018,-0.7681 3.9540551,-1.56464 5.9510551,-2.29443 1.050809,-0.383992 1.999634,-0.542639 2.826703,-0.527616 z M 0.70283723,110.39557 c -0.45566013,0.0949 -0.90775367,0.208 -1.36890919,0.2744 -1.16638124,0.15534 -2.34111274,0.24237 -3.51761424,0.26251 0.4031694,0.0896 0.8047355,0.18876 1.2025101,0.308 0.1014836,0.0304 0.1982549,0.075 0.2986907,0.10852 0.4205235,-0.21824 0.9206601,-0.35072 1.4898318,-0.37156 0.39885139,-0.0146 0.83259872,0.0278 1.29449508,0.13023 0.22468681,-0.12213 0.44967525,-0.24374 0.67437529,-0.36587 -0.0326284,-0.11319 -0.058211,-0.22834 -0.0733795,-0.34623 z m 10.24433577,1.02474 c -0.76023,0.21437 -1.5189569,0.4343 -2.2696301,0.68006 -0.031261,0.62207 -0.2256075,1.28373 -0.6464723,1.94355 0.6236891,0.43248 1.2549743,1.04482 1.8634525,1.86862 0.2674939,0.36214 0.4748849,0.75712 0.7188199,1.13223 0.154519,-1.86707 0.314174,-3.74736 0.33383,-5.62446 z m 64.566086,3.39773 c 1.50346,0.0187 3.129182,1.24994 3.928441,4.04678 0.257931,0.90255 0.823497,1.65871 1.488797,2.30735 0.856321,0.95375 1.845738,1.76777 2.801898,2.61638 1.458581,1.46408 2.789203,3.04608 4.169772,4.58215 1.315059,1.44746 2.571226,2.91698 3.543967,4.61884 0.0053,0.01 0.0082,0.0206 0.01344,0.0305 0.734605,-0.43313 1.446276,-0.65634 2.094962,-0.69195 3.016182,-0.16561 4.69137,3.55377 1.187525,7.32306 -1.69471,1.82311 -3.657862,3.33908 -5.68751,4.7651 -0.777873,0.49914 -1.607691,0.90075 -2.418456,1.33842 0.165478,1.44344 -0.672182,3.24303 -2.956409,4.73096 -1.354556,0.88234 -2.690448,1.79306 -4.075203,2.6288 -2.075008,1.20078 -4.233777,2.27962 -6.540687,2.96259 -2.077586,0.62971 -4.169056,1.29987 -6.359301,1.36374 -1.872114,0.0897 -3.746989,0.0368 -5.620845,0.0501 h -5.1108 -5.524728 c -7.160125,0 -7.160125,-7.23315 0,-7.23315 h 1.347722 c 0.29438,-0.0541 0.5212,-0.1588 0.84801,-0.18656 1.106628,-0.094 2.200932,-0.28334 3.292822,-0.48421 0.456121,-0.98163 1.356053,-1.98213 2.807581,-2.83962 1.078018,-0.63685 2.158119,-1.26923 3.212209,-1.94561 1.962647,-1.29302 3.840588,-2.72135 5.893696,-3.86902 1.367169,-0.76424 2.559646,-1.07097 3.526915,-1.04128 2.216811,0.068 3.246223,1.90266 2.479953,4.04059 1.105688,-0.48686 2.206929,-0.98346 3.283003,-1.53739 2.619811,-1.23728 5.288743,-2.38548 7.764385,-3.9026 0.246153,-0.17184 0.487463,-0.34958 0.730705,-0.52503 -0.126915,-0.50614 -0.277693,-0.9939 -0.512114,-1.46554 -0.647621,-1.25778 -1.721077,-2.20654 -2.600875,-3.29644 -1.199229,-1.33472 -2.369312,-2.69496 -3.592029,-4.00803 -1.098706,-0.97599 -2.227236,-1.92181 -3.215306,-3.01428 -1.300821,-1.39063 -2.459913,-2.93896 -3.045293,-4.77801 -1.289469,-4.05101 0.646382,-6.61405 2.843754,-6.58667 z m -95.086705,4.28035 c -0.465643,0.10748 -0.930899,0.21773 -1.394745,0.33435 0.171958,0.64334 0.283575,1.36624 0.279569,2.2071 -0.01267,2.6582 0.205063,5.32647 0.670242,7.94732 0.280107,-0.17087 0.565767,-0.33222 0.845429,-0.50385 -0.01897,-0.36223 -0.02445,-0.73164 -0.05529,-1.08985 -0.118034,-2.96491 -0.160888,-5.93314 -0.3452,-8.89507 z m 18.5141159,1.1958 c 0.00497,0.0773 0.00619,0.15612 0.014975,0.23202 -0.1238779,0.22787 -0.2588048,0.44752 -0.3937741,0.66715 0.58900751,0.0447 1.13203305,0.21413 1.64331124,0.45888 -0.37615284,-0.49255 -0.78353709,-0.94642 -1.26452314,-1.35805 z m -6.5422357,14.57068 c -0.046649,0.0755 -0.09888,0.14702 -0.1436608,0.22376 -0.03147,0.054 0.1963367,0.0838 0.1860365,0.0222 -0.017595,-0.10481 -0.026035,-0.14905 -0.042376,-0.24597 z m 13.9236979,6.08439 c -0.2236258,0.5643 -0.5677508,1.09664 -1.1782213,1.50533 0.9079653,0.17659 1.7077452,0.44257 2.2830631,0.84852 0.1405493,-0.0459 0.272804,-0.11448 0.4128956,-0.16174 -0.7336976,-0.43656 -1.2984269,-1.18703 -1.5177374,-2.19211 z" /></clipPath><clipPath
       clipPathUnits="userSpaceOnUse"
       id="clipPath127"><path
         id="path128"
         style="fill:#ff0000;fill-opacity:1;fill-rule:nonzero;stroke:none;stroke-width:0.264583"
         d="M -112.24796,-126.55676 V 185.58027 H 148.5754 V -126.55676 Z M 46.874626,83.305366 c 1.808208,0 3.616317,1.790192 3.616317,5.370214 v 5.232238 c 0.0627,2.146078 -0.111291,4.285324 -0.245462,6.424932 -0.136289,2.02485 -0.190703,4.04985 -0.104904,6.07715 0.192061,1.91863 0.527714,3.82569 0.876432,5.72213 0.304242,2.00862 0.765826,3.9858 1.180806,5.97276 0.41642,1.86142 0.967934,3.68703 1.421104,5.53972 0.25287,0.86996 0.117097,0.46495 0.396356,1.22008 0.186108,0.50319 0.223428,0.93098 0.309544,1.38441 4.425355,2.23251 2.751262,7.58433 -3.415813,6.40477 -3.104732,-0.59371 -6.256094,-0.76586 -9.40821,-0.85576 -3.81635,0.009 -7.630525,0.17062 -11.44478,0.28216 -1.12776,0.0333 -2.255837,0.0512 -3.383772,0.0754 -0.908129,0.5548 -1.966518,0.57724 -2.88613,0.0641 -0.03584,5.3e-4 -0.07165,0.002 -0.107487,0.003 -0.03142,5.3e-4 -0.0525,-0.009 -0.08268,-0.009 -0.32049,0.14732 -0.641715,0.29301 -0.962215,0.44028 -0.262501,0.12062 -0.518089,0.22111 -0.770496,0.31265 -0.876996,0.71434 -1.945576,0.85817 -2.911967,0.46405 -2.943479,-0.21613 -4.295167,-2.77187 -2.550232,-5.0524 -2.22e-4,-0.028 -0.0078,-0.0483 -0.0078,-0.0765 v -6.3469 c -0.014,-2.72977 -0.02254,-5.45666 0.112657,-8.18348 0.135676,-2.32533 0.233519,-4.6523 0.299723,-6.98046 0.046,-1.80459 0.06926,-3.60958 0.08527,-5.41465 -0.0258,-1.02998 0.04009,-2.054459 0.138491,-3.078883 0.0044,-0.04602 0.02191,-0.07504 0.02687,-0.120406 C 15.992671,97.193438 15.83363,95.70984 16.656834,94.418959 10.68718,93.678613 10.992573,87.32947 17.739972,87.32947 h 3.885033 5.177462 5.913334 c 1.498505,0.05847 2.984222,-0.03228 4.475178,-0.161748 1.252041,-0.18606 2.49041,-0.398671 3.697968,-0.782897 1.001961,-0.32245 0.492366,-0.161472 1.527553,-0.482142 0.510384,-0.158096 0.938446,-0.174371 1.394749,-0.23771 0.672338,-1.56932 1.86623,-2.35903 3.063377,-2.35903 z" /></clipPath><clipPath
       clipPathUnits="userSpaceOnUse"
       id="clipPath139"><path
         id="path140"
         style="fill:#ff0000;fill-opacity:1;fill-rule:nonzero;stroke:none;stroke-width:0.264583"
         d="M 97.168006,-339.91235 V -44.578961 H 346.46958 V -339.91235 Z m 14.326254,94.53944 c 1.76488,0.006 3.77708,1.78446 4.35839,5.31699 0.32911,1.99994 0.60308,4.00817 0.88884,6.01462 1.02527,-1.2445 2.22305,-1.83589 3.28403,-1.8402 2.05627,-0.008 3.59454,2.17302 2.34611,6.00222 -0.0197,0.0606 -0.0413,0.12046 -0.0615,0.18087 0.31698,0.91799 0.41757,2.09982 0.17777,3.54139 -0.2164,1.30085 -0.62011,2.56457 -1.0263,3.8163 -1.34183,4.13496 -4.42238,4.92072 -6.12882,3.38016 -1.93867,0.62007 -4.30523,-0.86149 -4.65605,-4.82762 -0.16862,-1.90632 -0.33891,-3.81275 -0.57464,-5.71231 -0.45291,-3.52522 -1.07719,-7.02592 -1.48208,-10.55543 -0.40801,-3.55672 1.10935,-5.32303 2.87424,-5.31699 z" /></clipPath><clipPath
       clipPathUnits="userSpaceOnUse"
       id="clipPath170"><path
         id="path171"
         style="fill:#ff0000;fill-opacity:1;fill-rule:nonzero;stroke:none;stroke-width:0.264583"
         d="M 88.756261,-299.52331 V 17.880567 H 410.91541 V -299.52331 Z M 363.24287,-220.863 c 0.90345,-0.008 1.97628,0.23856 3.18532,0.82218 3.39402,1.63831 6.49674,3.81197 9.57823,5.96449 3.22509,2.31448 6.37511,4.73585 9.43663,7.26261 1.87296,1.50796 3.75989,2.99047 5.54284,4.6054 1.76167,1.54167 3.42262,3.17283 4.95419,4.94388 1.19316,1.48882 2.47049,2.9032 3.73311,4.33204 1.08043,1.20022 2.09423,2.45631 2.94299,3.83026 0.82616,1.73429 1.48968,3.55524 1.93786,5.42344 1.67031,6.96258 -5.76469,8.62686 -7.05745,1.5844 -0.21127,-1.15093 -0.75649,-2.20765 -1.10278,-3.32021 -0.52141,-1.02678 -1.43909,-1.82952 -2.14042,-2.72904 -1.28368,-1.45272 -2.58234,-2.89095 -3.79617,-4.40386 -1.32794,-1.55409 -2.79577,-2.95456 -4.33049,-4.3031 -1.69875,-1.54267 -3.51006,-2.94207 -5.29113,-4.38733 -2.90883,-2.40671 -5.90918,-4.70386 -8.97258,-6.91017 -2.63017,-1.83963 -5.2759,-3.68008 -8.12096,-5.17746 -5.14813,-2.7095 -4.41412,-7.50431 -0.49919,-7.53753 z m -17.79788,14.64304 c 0.81097,-0.004 1.74701,0.16947 2.79104,0.57154 4.59168,1.76834 8.99191,4.00303 13.38523,6.20892 0.37082,0.1876 0.72266,0.4088 1.09088,0.601 0.4155,-0.11565 0.91038,-0.17484 1.48572,-0.16691 0.65984,0.009 1.42523,0.10601 2.29753,0.30644 2.35556,0.54125 4.30075,1.95473 6.16344,3.42614 -1.07651,-2.72314 0.34142,-4.84679 2.57866,-4.84311 1.28683,0.002 2.83083,0.70484 4.29689,2.3952 2.44776,2.82227 4.79147,5.70892 6.96391,8.74934 1.67944,2.35043 1.72027,4.43615 0.89969,5.70663 1.5344,1.02281 3.07247,2.04019 4.58422,3.09645 1.80695,1.14136 3.31928,2.58833 4.72631,4.18269 0.96689,1.16625 2.0869,2.25988 2.79262,3.61942 0.19542,0.37651 0.34592,0.77482 0.51882,1.1622 0.40259,1.55462 0.27207,0.76263 0.38706,2.3766 0.0637,0.89436 -0.044,1.45412 -0.26977,1.7756 0.11753,0.20753 0.23421,0.41574 0.35608,0.62063 3.66003,6.15399 -2.6856,9.845 -6.25234,3.63648 -0.83209,-1.44832 -1.62388,-2.92102 -2.35437,-4.42351 -0.84839,-1.84687 -1.70402,-3.69055 -2.54093,-5.54229 -0.078,-0.17246 -0.14713,-0.34128 -0.2119,-0.5085 -0.415,-0.33988 -0.82071,-0.68775 -1.29707,-0.97255 -2.35545,-1.64933 -4.79565,-3.17384 -7.14841,-4.82761 -3.27895,-2.27743 -6.61384,-4.47194 -9.95804,-6.65231 -4.00886,-2.60003 -8.08797,-5.09434 -12.3548,-7.25434 -4.08429,-2.05175 -8.1752,-4.1242 -12.42663,-5.81101 -5.61546,-2.22804 -4.88331,-7.4129 -0.50384,-7.43314 z m -225.34594,21.50101 c 3.05551,-0.16929 4.03285,3.80875 0.35915,7.72563 -1.17612,1.25397 -2.32696,2.59265 -3.45922,3.90674 -1.44062,1.57315 -2.77631,3.23874 -4.13618,4.88135 -1.14319,1.4697 -2.29319,2.93265 -3.46335,4.38113 -0.8717,1.2084 -1.86054,2.32105 -2.81017,3.46594 -0.80685,0.95022 -1.53489,1.96075 -2.32234,2.92695 -0.80594,1.00684 -1.52017,2.08004 -2.22519,3.15847 -0.20511,0.28103 -0.29499,0.51935 -0.30179,0.78909 -0.18033,7.15787 -8.659963,5.5717 -7.093102,-1.4149 0.267098,-1.19094 0.644303,-2.32859 1.347721,-3.34243 0.846108,-1.28566 1.701136,-2.56663 2.670121,-3.76463 0.806525,-0.98525 1.5446,-2.0236 2.37453,-2.98999 0.93132,-1.109 1.88214,-2.2008 2.7342,-3.37448 1.18855,-1.47082 2.35327,-2.95822 3.51813,-4.44779 1.39067,-1.67946 2.758,-3.38112 4.2292,-4.99142 1.55862,-1.80675 3.07205,-3.68494 4.92528,-5.20227 1.38505,-1.13397 2.63451,-1.65096 3.65301,-1.70739 z m 30.4953,3.26389 c 4.11093,0.0973 5.25218,4.81763 -0.0434,7.22591 -1.93926,0.8819 -3.80509,1.88928 -5.66115,2.92437 0.381,1.39299 -0.23993,3.26566 -2.43035,4.98678 -2.3369,1.83618 -4.71607,3.61825 -7.08845,5.40845 -2.84267,2.19936 -5.66068,4.43162 -8.41086,6.74584 -2.22216,1.84972 -4.46469,3.67225 -6.66213,5.55109 -1.67979,1.46598 -3.37138,2.91821 -5.06067,4.37337 -1.40892,1.30469 -2.82191,2.592 -4.12274,4.00648 -1.07181,1.16531 -2.16701,1.83049 -3.17087,2.10529 -0.88357,6.53411 -7.65001,5.87099 -7.10344,-1.07177 0.0596,-0.75732 0.12015,-1.51435 0.21239,-2.26859 0.18237,-1.4495 0.31176,-2.90657 0.57051,-4.34444 0.56059,-2.2771 1.55106,-4.35314 3.32124,-5.95312 1.46716,-1.38711 2.94871,-2.75912 4.4943,-4.05919 1.45063,-1.21601 2.91967,-2.40825 4.4111,-3.57394 2.2284,-1.75259 4.48249,-3.46927 6.81044,-5.08961 3.1083,-2.16601 6.29001,-4.21936 9.5343,-6.17689 3.28252,-2.04598 6.49796,-4.19789 9.78648,-6.23476 2.38673,-1.38679 4.82146,-2.65715 7.33495,-3.79873 1.22236,-0.55516 2.32966,-0.77899 3.27836,-0.75654 z" /></clipPath><clipPath
       clipPathUnits="userSpaceOnUse"
       id="clipPath233"><path
         id="path234"
         style="fill:#ff0000;fill-opacity:1;fill-rule:nonzero;stroke:none;stroke-width:0.264583"
         d="M 185.24069,-319.24193 V -24.289387 H 425.09684 V -319.24193 Z m 138.35487,149.6534 c 1.78419,7.9e-4 3.63037,1.79012 3.80182,5.36608 0.0643,1.33996 -0.0719,2.65433 -0.29041,3.95842 0.27255,-0.0735 0.56767,-0.11689 0.88522,-0.12351 0.37047,-0.008 0.77026,0.0328 1.19579,0.12867 0.38629,-0.24279 0.8215,-0.42195 1.34254,-0.44493 1.13073,-0.0499 2.53823,0.47335 4.04474,1.80971 0.4186,0.37135 0.80759,0.77178 1.2056,1.16323 0.49581,-0.30652 1.09744,-0.47283 1.77559,-0.44028 1.18851,0.0571 2.59295,0.69888 3.98788,2.15129 2.63375,2.74227 4.82211,5.85047 6.92256,9.00669 2.43144,3.88376 4.79634,7.81591 6.98098,11.84475 1.13959,2.01485 2.36363,3.97199 3.24527,6.11746 0.86638,2.54168 0.71525,4.37292 -0.15348,6.88278 -0.88855,2.03627 -2.18951,3.83746 -3.64937,5.49682 -1.22616,1.21887 -2.44396,2.51198 -3.976,3.35587 -0.38219,0.21053 -0.79187,0.3659 -1.18803,0.54881 -6.50071,3.00135 -9.83602,-5.23462 -2.81948,-6.6611 1.07346,-0.21823 1.75532,-1.41088 2.56987,-2.0407 0.86323,-0.96375 1.62015,-2.00233 2.25208,-3.13417 0.24334,-0.63932 0.47847,-1.05078 0.24958,-1.76114 -0.42873,-1.13152 -1.03555,-2.17502 -1.65674,-3.21169 -0.64492,3.08426 -3.96214,3.78517 -6.03631,0.97152 -0.80928,1.85722 -3.53859,2.62684 -6.75775,0.30902 -0.53872,-0.38787 -1.07831,-0.77486 -1.61745,-1.1622 -3.08248,4.62545 -3.94671,5.04673 -6.74584,2.87063 -2.73204,-2.16473 -5.33615,-4.48821 -8.05999,-6.6642 -2.7461,-2.45053 -5.40757,-5.07957 -7.04763,-8.42635 -1.62115,-0.12575 -3.24178,-0.2569 -4.86637,-0.34314 -7.58719,-0.44787 -15.17743,-0.9445 -22.76553,-1.33377 -1.07801,-0.0553 -1.93227,-0.3045 -2.68459,-0.62166 -0.57677,0.62929 -1.1192,1.29485 -1.64021,1.97352 -1.38696,2.1585 -2.2854,4.54313 -3.09181,6.96185 -0.53658,1.90527 -0.93866,3.84574 -1.3658,5.77949 0.3976,-0.38181 0.79402,-0.76498 1.19114,-1.14825 1.44902,-1.39846 2.84121,-1.97983 3.98373,-1.97766 2.91995,0.006 4.20899,3.82009 0.64648,7.53391 -0.92629,0.96557 -1.9114,1.86859 -2.9099,2.75797 -1.78302,1.58814 -3.50499,2.03887 -4.81263,1.76372 -0.007,0.0412 -0.0189,0.0812 -0.0253,0.12247 -0.31138,2.1774 -0.34632,4.38158 -0.39739,6.57686 0.006,3.5147 -0.15426,7.02208 -0.44287,10.52391 -0.15049,2.45352 -0.52882,4.882887 -0.77928,7.326166 -0.25682,2.270699 -0.2357,4.548968 -0.1633,6.828007 0.0525,1.43787 0.0261,0.723201 0.0775,2.145088 7.9e-4,0.02175 -0.006,0.03573 -0.006,0.05736 0.13966,0.0486 0.27673,0.09115 0.42013,0.148309 3.73047,1.486969 7.59999,2.598727 11.41894,3.833876 4.85884,1.705695 9.66861,3.546912 14.50144,5.32474 1.9552,0.651698 3.84707,1.443672 5.71489,2.292366 2.6308,-0.638411 5.26049,-1.281708 7.89771,-1.893425 4.5737,-1.075436 2.35597,-0.547624 6.65438,-1.580782 0.65268,-0.156879 1.2592,-0.237268 1.81642,-0.252698 3.40876,-0.09437 4.96226,2.238663 4.05712,4.350639 3.89832,1.612736 3.00805,6.568553 -2.90269,6.729304 l -2.19726,0.05943 c 0.0932,0.05532 0.18872,0.106439 0.28112,0.163298 6.09814,3.752323 2.1299,10.065517 -3.84782,6.124173 -1.04591,-0.689594 -2.23735,-1.127543 -3.31556,-1.763197 -2.61015,-1.251701 -5.22853,-2.484003 -7.87136,-3.665926 -0.34703,-0.170111 -0.69536,-0.335955 -1.04283,-0.504362 -1.04394,0.228952 -2.09238,0.441277 -3.15071,0.537951 -0.41145,0.100483 -0.82417,0.195434 -1.23558,0.296105 -3.95687,0.968251 -6.08679,-0.907356 -5.97897,-3.010669 -0.31188,-0.687727 -0.239,-1.395294 0.0263,-2.059305 -3.87146,-1.438614 -7.73769,-2.891312 -11.63237,-4.265891 -3.97417,-1.285444 -7.99945,-2.446282 -11.87938,-4.000272 -1.44639,-0.579335 -2.44377,-1.350957 -3.06182,-2.17506 -1.01218,-0.798706 -1.81304,-2.231819 -1.89446,-4.484998 -0.0517,-1.431189 -0.0254,-0.705106 -0.0791,-2.177645 -0.0816,-2.602558 -0.0903,-5.205841 0.19844,-7.79849 0.24823,-2.394268 0.6146,-4.775082 0.76533,-7.179412 0.27808,-3.36008 0.42763,-6.72542 0.42064,-10.09809 0.0594,-2.5132 0.11189,-5.03614 0.48266,-7.52719 0.38072,-2.41928 0.90466,-4.80615 1.46451,-7.18974 0.6701,-2.94551 1.25825,-5.91529 2.11305,-8.81393 1.0668,-3.18776 2.31041,-6.31647 4.23489,-9.10074 0.42128,-0.53977 0.8547,-1.07136 1.29914,-1.59215 -1.52816,-0.60355 -3.06641,-1.18197 -4.57646,-1.83141 -1.09038,3.76762 -2.19021,7.53001 -3.40755,11.25926 -1.05961,2.97655 -0.54118,1.54568 -1.55081,4.2938 -1.83358,4.9908 -6.03644,4.88509 -7.07398,1.75544 -2.82634,3.52841 -7.50378,1.0111 -5.57744,-4.75268 1.05408,-3.1537 2.2385,-6.34595 4.49688,-8.85837 1.49582,-1.66408 2.97572,-2.34765 4.17287,-2.32647 0.33252,0.006 0.64298,0.0664 0.92604,0.17518 0.46945,-1.58214 0.96416,-3.15651 1.43919,-4.7377 0.70062,-2.33196 1.93737,-3.52641 3.18689,-3.8871 0.54142,-0.34307 1.25019,-0.55529 2.11615,-0.57361 h 5.3e-4 c 0.8057,-0.017 1.74503,0.13149 2.80396,0.49248 0.31645,0.10788 0.63769,0.20324 0.94929,0.32401 1.83624,0.71133 3.60046,1.59642 5.43016,2.32544 1.18096,0.47048 2.26953,0.84228 3.35329,1.23145 0.62902,-0.20883 1.22424,-0.32846 1.76785,-0.35037 2.28614,-0.0921 3.73455,1.32842 3.67523,3.07682 1.73917,0.0925 3.47854,0.18832 5.21777,0.2899 -0.1345,-1.7899 1.43141,-3.54652 4.54959,-3.56619 0.39587,-0.002 0.816,0.0231 1.25987,0.0801 3.99155,0.51285 7.97638,1.04608 11.94346,1.72703 0.35092,0.0747 0.7018,0.14913 1.05265,0.22376 0.92028,-2.09088 2.0607,-3.80586 3.79408,-5.38675 0.9172,-0.8245 1.6747,-1.80494 2.07378,-2.98587 0.46483,-1.35061 0.4893,-2.77914 0.4594,-4.19561 h 5.3e-4 c -0.0754,-3.57927 1.64663,-5.36691 3.4308,-5.36608 z m 1.97559,14.00741 c -0.78838,1.39934 -1.79816,2.66075 -2.96984,3.79512 -1.06213,0.94584 -1.80404,2.02586 -2.28153,3.3538 -0.003,0.012 -0.005,0.0237 -0.009,0.0357 1.15411,0.11311 2.30814,0.22665 3.4613,0.3514 3.99042,0.43171 5.40747,2.84663 4.69323,4.76353 0.67585,0.41545 1.35041,0.83313 2.01954,1.25626 3.82278,2.5036 7.53266,5.1715 11.24013,7.84086 -1.81731,-3.68096 -3.93583,-7.19476 -6.36087,-10.5146 -1.10355,-1.48555 -2.20805,-3.00054 -3.36206,-4.44883 -0.35653,-0.44747 -1.7607,-2.16704 -2.34455,-2.70784 -0.36042,-0.33384 -0.93237,-0.68033 -1.36375,-0.9555 -1.33122,-0.84918 -2.21667,-1.81673 -2.72282,-2.76986 z" /></clipPath><clipPath
       clipPathUnits="userSpaceOnUse"
       id="clipPath240"><path
         id="path241"
         style="fill:#ff0000;fill-opacity:1;fill-rule:nonzero;stroke:none;stroke-width:0.264583"
         d="M 92.804184,-309.23338 V -41.629034 H 294.29938 V -309.23338 Z m 130.496946,63.74443 c 0.93337,0.009 2.02072,0.27397 3.21944,0.8785 1.75312,0.88412 3.43212,1.89553 5.06326,2.98586 5.9527,3.97906 1.8926,10.01797 -4.03542,6.00222 -1.36849,-0.92705 -2.78857,-1.76849 -4.26227,-2.51871 -5.18448,-2.63926 -4.02961,-7.38891 0.015,-7.34787 z m -85.24544,1.99626 c 3.36772,-0.0906 4.87054,3.93317 0.67437,7.28431 -0.81214,0.6486 -0.42273,0.34746 -1.1653,0.9064 -1.7275,1.42217 -3.47209,2.82263 -5.29477,4.12275 -2.09112,1.47372 -4.25636,2.82668 -6.45645,4.13153 -6.15846,3.65253 -10.39165,-1.95967 -4.33979,-5.78621 2.21999,-1.40367 4.47897,-2.73503 6.6244,-4.25349 1.67688,-1.19734 3.27994,-2.48915 4.86947,-3.79821 0.91499,-0.69918 0.50268,-0.37435 1.24076,-0.9679 1.39493,-1.12177 2.72473,-1.60899 3.84731,-1.63918 z" /></clipPath><clipPath
       clipPathUnits="userSpaceOnUse"
       id="clipPath251"><path
         id="path252"
         style="fill:#ff0000;fill-opacity:1;fill-rule:nonzero;stroke:none;stroke-width:0.264583"
         d="m 50.06164,-325.07443 v 245.270816 h 202.0347 V -325.07443 Z m 191.06172,72.239 c 1.42195,-0.0396 3.11835,0.92332 4.44418,3.2582 0.80855,1.42391 1.33311,2.97097 1.71979,4.55476 0.38267,1.85761 0.50306,3.75527 0.49506,5.64772 0.007,1.66837 -0.28067,3.30966 -0.52503,4.95318 -0.26767,2.07853 -1.32063,3.82386 -2.54249,5.47306 -0.98598,1.19805 -2.03839,2.33999 -3.16208,3.40961 -0.37488,0.32054 -0.76867,0.61405 -1.09502,0.98443 -4.73356,5.37222 -10.25077,0.0313 -5.19193,-5.03587 0.41783,-0.41852 0.82603,-0.84961 1.30896,-1.19579 0.83199,-0.78568 1.60086,-1.63171 2.34973,-2.49649 0.52191,-0.686 1.06794,-1.32103 1.17874,-2.204 0.19629,-1.31742 0.44949,-2.62948 0.44648,-3.9672 0.0288,-1.3072 -0.0809,-2.61845 -0.30179,-3.90725 -0.20137,-0.91522 -0.51051,-1.80281 -0.96014,-2.62775 -2.14172,-3.92928 -0.53435,-6.78057 1.83554,-6.84661 z m -24.00732,134.01508 c 1.58088,-0.0452 3.27238,1.29937 3.90106,4.36821 0.19779,0.96552 0.49313,1.88927 0.87385,2.79466 0.57738,1.31117 0.86222,2.69631 0.9741,4.11603 0.0779,1.63421 -0.38657,3.16522 -1.00976,4.65191 -0.60784,1.37091 -1.55916,2.5173 -2.50579,3.660755 -0.2566,0.333243 -0.50348,0.67224 -0.76223,1.002525 -0.0721,0.651052 -0.19323,1.300012 -0.35502,1.949752 l -0.4842,1.22783 c -0.70346,1.782932 -1.87803,2.754204 -3.12126,3.127457 -0.38818,0.593834 -0.73665,1.213207 -1.1529,1.788007 -0.78123,1.206815 -1.75001,2.262322 -2.80138,3.23546 -1.04259,0.90742 -2.26203,1.551003 -3.47214,2.198833 -0.81145,0.41652 -1.66264,0.737227 -2.52439,1.030428 -6.77856,2.306214 -9.10653,-4.670343 -2.28979,-6.86108 0.48258,-0.155091 0.95367,-0.335381 1.41232,-0.552421 0.68902,-0.364839 1.38726,-0.713642 2.01745,-1.175639 0.71797,-0.616461 1.30017,-1.358352 1.82004,-2.146123 0.66383,-0.892056 1.26802,-1.828112 1.8216,-2.792076 0.59882,-1.12436 1.07283,-2.316203 1.82056,-3.358968 0.0117,-0.0166 0.0249,-0.032 0.0367,-0.0486 -0.84786,-3.67928 0.87949,-5.67892 2.87217,-5.69422 0.38363,-0.003 0.77643,0.0723 1.16324,0.21859 0.15519,-0.3579 0.298,-0.71847 0.29042,-1.1188 -0.0398,-0.54898 -0.18359,-1.13581 -0.4191,-1.66191 -0.48947,-1.16893 -0.89792,-2.36312 -1.1591,-3.60547 -0.82863,-3.94139 1.021,-6.29698 3.05356,-6.35516 z" /></clipPath><clipPath
       clipPathUnits="userSpaceOnUse"
       id="clipPath278"><path
         id="path279"
         style="fill:#ff0000;fill-opacity:1;fill-rule:nonzero;stroke:none;stroke-width:0.264583"
         d="m -43.212488,-382.05292 v 250.81001 H 185.4025 v -250.81001 z m 181.494868,132.88233 c 1.13528,0.005 2.03811,0.42617 2.60707,1.09037 0.91934,-0.34123 1.78192,-0.54125 2.52078,-0.52658 4.05205,0.0805 5.08945,4.87108 -0.18087,7.33443 -2.21042,1.03317 -4.41856,2.08163 -6.72362,2.89285 -2.86091,0.99315 -5.74924,1.921 -8.52506,3.13986 -6.55592,2.87873 -9.40434,-3.76713 -2.84944,-6.64817 1.1011,-0.48395 2.22936,-0.89759 3.35587,-1.31568 0.52294,-1.00077 1.47788,-2.01475 2.95124,-2.87476 1.0894,-0.6359 2.16914,-1.287 3.24683,-1.94252 1.33817,-0.81396 2.56345,-1.15421 3.5972,-1.1498 z m -133.0900695,2.4753 h 5.5981075 c 7.160125,0 7.160125,7.23263 0,7.23263 H 5.1923105 c -7.1601277,0 -7.1601277,-7.23263 0,-7.23263 z m 42.9880715,50.84496 c 2.044401,-0.008 3.844292,2.25841 2.953308,6.18618 -0.283588,1.25017 -0.481169,2.51568 -0.75189,3.76877 -0.313965,1.46608 -0.73946,2.91235 -1.207162,4.33668 -2.233805,6.80278 -9.211228,4.46329 -6.857981,-2.29908 0.404762,-1.16313 0.726765,-2.36525 0.995807,-3.56619 0.287499,-1.32813 0.484814,-2.67249 0.804084,-3.99407 0.735603,-3.04497 2.473746,-4.42641 4.063834,-4.43229 z m 26.844358,9.60148 c 1.5451,0.0844 3.630816,1.85281 5.237924,5.05189 1.446292,2.8789 3.498345,5.40261 5.377447,8.00674 1.423178,1.86933 2.496352,3.93269 3.488161,6.04873 3.038795,6.48323 -3.64554,9.55837 -6.57066,3.02307 -0.764304,-1.70766 -1.644017,-3.34338 -2.782776,-4.84001 -2.279812,-3.15977 -5.466628,-6.83969 -6.494177,-10.63656 -0.141171,-0.52168 -0.167447,-1.06805 -0.251148,-1.60197 -0.554762,-3.53682 0.450099,-5.13633 1.995229,-5.05189 z m 22.433772,2.07998 v 5.3e-4 c 1.081786,0.0173 2.458693,0.64291 3.986318,2.0805 1.21595,1.14421 2.08888,2.57763 3.1502,3.85661 0.75663,0.91352 1.6619,1.66584 2.53163,2.46393 1.1475,0.93011 2.05703,2.06162 2.85305,3.29799 0.95863,1.59903 1.44035,3.34615 0.97049,5.20227 -0.10236,0.40431 -0.31771,0.77135 -0.47646,1.15703 -1.02548,2.49132 -2.04203,1.65641 -2.97036,0.0238 -2.04159,1.70549 -5.47708,1.09344 -5.78105,-3.28558 -0.003,-0.0322 -0.0142,-0.0648 -0.007,-0.0966 0.005,-0.03 0.0986,-0.0136 0.0827,-0.0393 -0.23736,-0.38486 -0.69492,-0.61714 -1.02216,-0.90227 -1.100378,-0.77725 -2.267905,-1.45106 -3.395141,-2.18798 -3.582773,-2.34245 -3.744537,-5.4822 -2.015898,-6.82284 -0.840523,-2.68156 0.04882,-4.63231 1.88154,-4.74287 0.06945,-0.004 0.140271,-0.006 0.212389,-0.005 z" /></clipPath><clipPath
       clipPathUnits="userSpaceOnUse"
       id="clipPath292"><path
         id="path293"
         style="fill:#ff0000;fill-opacity:1;fill-rule:nonzero;stroke:none;stroke-width:0.264583"
         d="M 39.169506,-337.89832 V -50.969072 H 288.46282 V -337.89832 Z m 15.676046,82.89261 c 1.714024,0.0204 3.54041,1.61061 3.978568,4.9382 0.120111,0.91222 0.106387,1.83456 0.107487,2.75229 0.0087,7.16012 -7.246413,7.15857 -7.232633,-0.002 0.0013,-0.65071 0.02757,-1.30512 -0.06356,-1.95182 -0.530767,-3.76661 1.267578,-5.76019 3.21014,-5.73712 z m 197.013298,6.80941 c 1.32993,-0.0899 2.96772,0.82319 4.38423,3.1042 1.07429,1.72993 1.55184,3.70118 1.89652,5.68338 0.39598,2.58761 0.42018,5.20011 0.26717,7.80675 -0.16631,2.61527 -0.75971,5.14416 -1.52187,7.63985 -0.4978,1.90614 -1.23662,3.72608 -2.0159,5.52989 -0.76243,1.81488 -1.37928,3.68664 -2.00143,5.55315 -0.64972,1.87676 -1.26002,3.76819 -2.01124,5.60741 -0.95415,2.1244 -1.9321,4.237 -2.90784,6.35155 -0.93622,2.10591 -1.93956,4.18102 -3.03444,6.20893 -0.74336,1.47932 -1.63431,2.88203 -2.64686,4.19044 -0.85071,1.10794 -1.91984,2.00805 -2.89078,3.00343 -1.04445,1.12516 -2.20219,2.13025 -3.34605,3.1502 -1.2349,1.05182 -2.56579,1.98944 -3.91811,2.88354 -1.93444,1.28303 -4.12655,2.08437 -6.28747,2.89285 -2.75914,1.06536 -5.6224,1.79172 -8.50439,2.42982 -2.00852,0.48359 -4.02259,0.93996 -6.05234,1.32499 -1.0898,0.20672 -1.99053,0.15992 -2.79725,0.0139 -0.75827,0.17949 -1.51301,0.3744 -2.26653,0.57309 -1.4977,0.44017 -2.97995,0.92699 -4.46019,1.42214 -1.58834,0.5581 -3.19109,1.04834 -4.83381,1.42213 -2.05853,0.5373 -4.13223,0.98734 -6.23425,1.31724 -1.89057,0.38525 -3.79586,0.65788 -5.71696,0.82837 -1.92552,0.0766 -3.83858,0.29911 -5.75676,0.47025 -1.71912,0.15432 -3.44381,0.22701 -5.16867,0.27441 -2.44184,-0.0118 -4.87127,-0.25567 -7.30085,-0.47078 -2.85973,-0.19225 -5.71909,-0.39592 -8.57157,-0.67799 -2.83995,-0.26841 -5.65359,-0.74864 -8.47907,-1.13016 -2.66463,-0.21934 -5.29981,-0.64608 -7.94267,-1.03457 -2.11987,-0.30404 -4.25541,-0.45909 -6.38152,-0.71055 -1.8808,-0.17534 -3.75496,-0.4017 -5.63118,-0.61856 -1.91243,-0.21286 -3.83573,-0.28885 -5.75779,-0.34985 -2.23949,-0.16259 -4.48445,-0.27106 -6.71949,-0.48783 -2.21917,-0.20648 -4.40762,-0.67897 -6.54068,-1.31516 -2.57048,-0.65769 -4.88262,-1.9917 -7.25382,-3.13883 -1.91366,-0.89121 -3.846978,-1.74009 -5.755724,-2.6417 -1.929913,-0.93683 -3.722034,-2.11514 -5.521108,-3.27525 -1.492637,-0.90475 -0.734285,-0.44535 -2.275314,-1.37821 -6.125257,-3.70793 -2.379728,-9.89571 3.745508,-6.18774 1.606161,0.9723 0.789586,0.47683 2.449462,1.48725 1.534261,0.98943 3.055983,2.00536 4.695836,2.81636 1.92633,0.91375 3.8825,1.76312 5.81257,2.66909 2.03397,0.98503 4.0062,2.16157 6.20944,2.72955 1.67042,0.52508 3.40555,0.86136 5.14697,1.03715 2.07333,0.21111 4.15957,0.28906 6.23683,0.4563 2.12341,0.0679 4.24789,0.15641 6.36033,0.39429 1.88182,0.21873 3.76122,0.44337 5.64772,0.62012 2.19401,0.25968 4.39889,0.41632 6.58565,0.73794 2.61501,0.3856 5.2221,0.80551 7.85895,1.02267 2.74095,0.37156 5.47017,0.83558 8.22482,1.1002 2.82609,0.28319 5.66087,0.47505 8.49405,0.67076 2.15225,0.19062 4.3024,0.40925 6.46472,0.44545 1.57684,-0.0428 3.1537,-0.10777 4.7253,-0.24857 1.92194,-0.17061 3.8389,-0.3955 5.76812,-0.4718 1.7606,-0.15093 3.50197,-0.42258 5.23482,-0.76946 1.94524,-0.29972 3.85736,-0.73584 5.76244,-1.22784 1.40538,-0.30937 2.76609,-0.74989 4.12327,-1.22421 1.62869,-0.54468 3.26081,-1.07909 4.91081,-1.5565 1.77362,-0.46766 3.552,-0.92735 5.36814,-1.20147 1.70238,-0.33298 3.38762,-0.74982 5.05034,-1.24437 1.8768,-0.51034 3.73395,-1.11665 5.54695,-1.81953 1.67544,-0.67931 3.31988,-1.45879 4.78886,-2.52439 1.0657,-0.84543 2.16725,-1.64342 3.15019,-2.58951 1.28809,-1.21508 2.58622,-2.41928 3.84008,-3.67058 0.85194,-0.84614 1.68746,-1.65828 2.24585,-2.7404 0.63482,-0.99725 1.29901,-1.9775 1.85674,-3.02152 0.55263,-0.92785 1.06197,-1.877 1.53479,-2.8484 0.43455,-0.81257 0.86675,-1.63643 1.16427,-2.50993 0.39723,-1.087 0.65435,-2.21493 0.97203,-3.32641 0.29574,-1.24569 0.60338,-2.49273 1.07901,-3.68453 0.39957,-1.05638 0.68712,-2.15558 1.05006,-3.22512 0.22713,-0.94997 0.37986,-1.92387 0.55966,-2.88303 0.22526,-1.23853 0.53664,-2.45701 1.02371,-3.62149 0.47591,-1.31864 1.08044,-2.58627 1.7048,-3.84007 0.34111,-0.58794 0.67316,-1.19257 0.96067,-1.80041 0.32682,-0.71346 -0.0659,-2.40019 0.0822,-3.22151 v -4.23178 c 0,-3.58007 1.80812,-5.37022 3.61632,-5.37022 0.15156,0 0.30168,0.0312 0.45217,0.0563 -0.0649,-0.17178 -0.10183,-0.35173 -0.18242,-0.51883 -1.94402,-4.03078 -0.58254,-6.96655 1.63401,-7.11636 z" /></clipPath></defs><g
     id="layer1"
     transform="translate(110.36566,404.68671)"><path
       style="fill:#000000"
       d="m 10.03603,-115.79263 c -5.3768696,-1.02879 -6.7341796,-2.71049 -7.6570996,-9.48708 l -0.42851,-3.14641 -1.59279995,-0.81096 c -0.87603,-0.44603 -1.93476005,-1.18386 -2.35273005,-1.63963 -0.90458,-0.9864 -1.51891,-3.03698 -1.28166,-4.27808 0.13246,-0.69294 -0.14471,-1.20634 -1.24566,-2.30729 -1.28888,-1.28888 -1.54173,-1.39918 -2.81562,-1.22832 -3.0577004,0.41012 -5.5135104,-1.38191 -6.2316804,-4.54732 l -0.42499,-1.87321 -0.67578,1.23472 c -0.52668,0.9623 -0.67988,1.97415 -0.69438,4.58611 -0.0372,6.70615 -0.71074,8.36794 -4.0843,10.07745 -1.48499,0.75251 -1.71793,1.01526 -1.71793,1.93781 0,1.88049 -1.08954,6.46059 -1.88001,7.90303 -1.63771,2.98845 -4.85128,3.91657 -12.64564,3.65223 -4.02366,-0.13647 -5.00167,-0.28454 -6.42256,-0.97238 -2.81759,-1.36397 -4.09611,-4.26997 -4.67183,-10.61872 -0.1825,-2.01257 -0.43339,-2.86515 -1.0676,-3.62801 -0.74596,-0.89729 -0.82903,-1.34363 -0.82903,-4.45472 0,-3.78529 -0.22868,-4.27796 -2.00401,-4.31732 -0.54703,-0.0121 -1.7723,0.39506 -2.72283,0.90485 -2.85326,1.53027 -5.50904,1.03388 -6.9291,-1.29509 -0.53325,-0.87455 -0.68894,-1.77541 -0.68996,-3.99225 -10e-4,-2.3608 -0.12954,-3.02584 -0.73248,-3.79236 -0.9855,-1.25286 -1.42192,-1.17625 -2.75598,0.48382 -1.53537,1.91056 -3.41718,2.82 -5.83514,2.82 -2.7266,0 -4.06645,-1.20701 -5.25111,-4.73049 -0.96073,-2.85743 -3.00121,-6.31037 -4.06571,-6.88008 -0.55776,-0.2985 -0.9814,-0.14016 -2.28195,0.85288 -2.2003,1.68006 -4.32873,2.22186 -6.1156,1.55676 -1.09769,-0.40858 -1.55158,-0.88076 -2.33923,-2.43347 -0.53749,-1.05959 -1.1408,-2.09001 -1.34068,-2.28982 -0.19987,-0.1998 -1.82385,-0.37179 -3.60884,-0.38219 -3.582,-0.0209 -5.3501,-0.57221 -7.0701,-2.20467 -2.04842,-1.94416 -3.02441,-5.08417 -2.31561,-7.44994 0.56902,-1.89923 2.32389,-3.48767 6.49306,-5.87725 7.71679,-4.42293 14.04933,-10.51506 20.32215,-19.55062 3.1306,-4.50941 5.5021,-8.49707 12.42141,-20.88646 7.1152,-12.74016 10.49278,-18.19895 14.67497,-23.71746 1.75516,-2.31598 3.15464,-4.2432 3.10994,-4.2827 -0.0447,-0.0395 -1.78145,-0.63839 -3.85947,-1.33085 -8.09509,-2.69756 -16.04771,-6.94186 -20.08767,-10.72077 -0.97535,-0.91233 -2.58145,-2.69539 -3.56911,-3.96235 -0.98765,-1.26696 -1.89892,-2.42729 -2.02503,-2.57851 -0.12612,-0.15122 -1.72483,-0.0143 -3.55269,0.30428 -8.32374,1.45072 -15.19085,-0.82566 -21.31506,-7.06573 -8.00794,-8.15943 -10.46666,-19.66191 -6.09016,-28.4912 1.48779,-3.00153 5.33292,-6.79947 8.47141,-8.36746 1.30969,-0.65432 2.38125,-1.3229 2.38125,-1.48574 0,-0.16283 -0.31293,-1.44876 -0.69541,-2.85763 -1.23167,-4.53693 -1.78553,-8.76057 -1.79198,-13.66556 -0.0122,-9.23779 2.10902,-16.60051 6.94219,-24.0966 1.66049,-2.57536 1.8277,-3.0758 1.02768,-3.0758 -0.90694,0 -6.33899,-2.97846 -8.58742,-4.70859 -2.96822,-2.284 -4.01883,-3.74294 -4.22262,-5.8638 -0.13312,-1.38546 -0.0127,-1.93786 0.61424,-2.81836 1.44545,-2.02994 8.43906,-4.83599 15.94009,-6.39564 l 3.75871,-0.78153 -2.29255,-2.62867 c -3.24846,-3.72473 -3.9681,-5.85558 -2.76398,-8.18409 0.96,-1.85643 2.47251,-2.43304 8.8832,-3.38653 3.26811,-0.48609 10.54577,-1.58996 16.17257,-2.45306 13.68787,-2.0996 18.54879,-2.63661 23.9007,-2.64042 2.47385,-0.002 4.49791,-0.0959 4.49791,-0.20913 0,-0.11326 -0.94707,-1.35088 -2.1046,-2.75026 -2.43584,-2.94479 -3.18706,-4.52081 -3.18706,-6.68629 0,-1.86126 0.96179,-3.25856 2.76016,-4.00997 2.8711,-1.19962 15.54718,-1.23162 22.63983,-0.0572 7.3803204,1.22209 16.22165045,4.20053 21.2952904,7.17388 0.83648,0.49021 1.5907,0.89129 1.67606,0.89129 0.0854,0 0.1552,-1.16465 0.1552,-2.58811 0,-3.47354 1.00215,-5.09326 3.6190196,-5.84922 2.82527,-0.81616 8.98639,1.52017 14.00026,5.30897 2.99535,2.26346 7.09064,6.41627 8.85799,8.98239 l 1.30098,1.88897 2.0168,-2.72497 c 1.10923,-1.49874 2.55409,-3.23287 3.21079,-3.85362 3.9293,-3.71424 9.40749,-2.6681 11.45226,2.18698 0.82226,1.95235 0.74221,6.31235 -0.18078,9.84601 -0.40088,1.53475 -0.72887,2.90552 -0.72887,3.04616 0,0.14063 0.91281,0.36465 2.02847,0.49782 7.42126,0.88582 13.85104,4.38666 20.73348,11.28882 9.76404,9.79201 15.58211,23.34707 16.59015,38.65209 0.40497,6.14858 -0.92537,16.40887 -2.96699,22.88303 l -0.71043,2.25284 2.43801,2.36185 c 6.37445,6.17531 7.38887,16.16638 2.63384,25.94081 -3.41234,7.0144 -9.44857,12.14628 -16.64249,14.14911 -3.23269,0.9 -10.07579,1.05243 -13.90007,0.30962 -3.16724,-0.61519 -3.19505,-0.61441 -3.69803,0.10369 -2.13608,3.04967 -6.06375,6.79369 -9.7605,9.30411 -2.50462,1.70085 -8.06629,4.35797 -12.09127,5.77666 -1.55223,0.54711 -2.88141,1.03957 -2.95376,1.09435 -0.0723,0.0548 0.90024,1.33686 2.16129,2.84908 3.66253,4.39202 10.64286,14.14564 18.29727,25.56679 3.90434,5.82565 8.51744,12.49417 10.25135,14.81893 7.10084,9.52055 13.39802,14.66794 21.80912,17.82703 2.69996,1.01407 3.36923,1.54851 3.88098,3.09912 0.84895,2.57234 -1.22308,5.03135 -5.22851,6.20501 -1.12795,0.33051 -1.47568,0.59052 -1.33828,1.00068 1.54623,4.61562 0.9273,6.86914 -2.34516,8.53862 -1.61303,0.82291 -5.35761,1.00138 -7.07463,0.33719 -1.34781,-0.52137 -1.54287,-0.49402 -2.36901,0.33212 -0.59968,0.59968 -0.67964,0.99256 -0.49115,2.41344 0.27347,2.06152 -0.42904,3.65939 -1.95602,4.44903 -1.51047,0.78109 -3.07475,0.64445 -5.60714,-0.48976 -3.84258,-1.72102 -4.70264,-0.84467 -4.55552,4.6418 0.11781,4.39311 -0.3049,5.64882 -2.23256,6.63224 -2.21936,1.13223 -4.19535,0.78549 -6.13716,-1.07692 -1.57673,-1.51226 -2.77785,-1.8656 -4.25036,-1.25035 l -1.218,0.50892 0.0652,3.28113 c 0.0553,2.78354 -0.0538,3.5106 -0.71963,4.79427 -1.79638,3.46333 -6.08441,3.94327 -8.84358,0.98982 -1.04593,-1.11958 -1.15776,-1.12107 -3.46628,-0.0463 l -1.85208,0.86227 v 3.43307 c 0,2.91569 -0.10346,3.5432 -0.68645,4.16376 -0.48914,0.52068 -0.84688,1.81121 -1.24466,4.49009 -1.37325,9.2484 -2.79162,10.66092 -11.08746,11.04173 -2.38183,0.10933 -4.64089,-0.001 -6.22551,-0.30428 z m 9.79811,-6.08603 c 0.37473,-0.22835 1.33208,-3.62674 1.33208,-4.72864 v -0.94748 l -4.49792,-0.21859 c -2.47385,-0.12023 -5.41581,-0.32013 -6.53769,-0.44423 l -2.0397796,-0.22563 0.23364,1.54393 c 0.12849,0.84916 0.49077,2.33767 0.80505,3.30781 l 0.57142,1.76389 2.6458296,0.21641 c 2.55627,0.20909 6.96368,0.0516 7.48737,-0.26747 z m -55.11236,-1.03046 c 0,-1.32771 0.51633,-2.62265 1.04573,-2.62265 0.17345,0 0.49806,0.88009 0.72137,1.95576 l 0.40601,1.95575 2.31882,-0.10367 2.31883,-0.10367 0.48,-1.3902 c 0.264,-0.7646 0.57906,-2.23304 0.70013,-3.26319 l 0.22014,-1.873 -2.25343,-0.021 c -1.23939,-0.0116 -3.00067,-0.14411 -3.91396,-0.29454 -0.91329,-0.15044 -1.58539,-0.15195 -1.49355,-0.003 0.37774,0.6112 -0.45911,0.58183 -0.90127,-0.0316 -0.34788,-0.48266 -0.6436,-0.57782 -1.0762,-0.34629 -0.32809,0.17558 -0.69293,0.22283 -0.81077,0.10499 -0.11783,-0.11783 -0.44207,-0.0252 -0.72053,0.20593 -0.3068,0.25462 -0.5883,0.28748 -0.71443,0.0834 -0.11448,-0.18523 -0.52549,-0.2538 -0.91335,-0.15237 -0.86977,0.22745 -0.91105,1.28028 -0.16282,4.15293 0.71393,2.74095 0.97982,3.00475 3.02859,3.00475 h 1.72069 z m 4.65327,-1.8289 c 0.075,-0.38945 0.44091,-0.61736 0.99117,-0.61736 0.55027,0 0.91617,0.22791 0.99118,0.61736 0.0929,0.48236 -0.12386,0.61737 -0.99118,0.61737 -0.86731,0 -1.08407,-0.13501 -0.99117,-0.61737 z m -3.6859,-5.91035 c 0.21189,-0.37862 1.33653,-0.62955 3.9284,-0.87651 5.85658,-0.55802 9.21534,-1.7971 9.21534,-3.39964 0,-0.43789 -0.15875,-0.89427 -0.35278,-1.01419 -0.19403,-0.11991 -0.35278,-1.00989 -0.35278,-1.97772 v -1.75969 l -1.41129,1.13414 c -1.10017,0.88412 -1.83897,1.16961 -3.35138,1.29503 -1.75233,0.14532 -1.9401,0.24069 -1.9401,0.98541 0,1.84983 -2.63597,2.89304 -6.39695,2.53166 -1.56556,-0.15044 -1.99044,-0.38637 -3.65347,-2.02874 -1.03504,-1.02218 -2.17009,-2.39367 -2.52235,-3.04777 -0.84298,-1.56533 -1.18557,-1.50163 -1.18557,0.22044 0,0.77534 -0.33348,2.37332 -0.74106,3.55107 -0.40758,1.17775 -0.6854,2.19206 -0.61736,2.25403 0.60371,0.54988 3.71593,2.3102 4.0844,2.3102 0.25914,0 0.5702,-0.27782 0.69125,-0.61736 0.48815,-1.36935 0.81044,-1.47886 2.10479,-0.71517 0.68418,0.40367 1.3261,0.948 1.42649,1.20963 0.24074,0.62736 0.70594,0.60362 1.07442,-0.0548 z m 53.79036,-0.88606 c 3.21106,-0.36792 4.87041,-0.89849 4.84921,-1.55049 -0.007,-0.21139 -0.23938,-0.78122 -0.51667,-1.26629 -0.65136,-1.13944 -0.65021,-2.57444 0.004,-4.73037 0.28894,-0.95247 0.52535,-2.79577 0.52535,-4.09622 0,-2.28603 -0.0273,-2.35924 -0.82219,-2.20729 -1.41591,0.27067 -3.28419,-0.77562 -4.17739,-2.33946 -0.45169,-0.79084 -0.92106,-1.43911 -1.04304,-1.44061 -0.12198,-0.001 -0.42038,0.47675 -0.66312,1.06276 -0.65304,1.57658 -2.29818,2.81508 -3.73934,2.81508 -0.85114,0 -1.27762,0.18621 -1.41396,0.61736 -1.34156,4.24244 -3.5119596,5.78522 -6.9119496,4.91322 -0.89142,-0.22863 -0.98257,-0.14406 -1.35518,1.25729 -0.21972,0.82633 -0.70435,2.00045 -1.07696,2.60916 -0.37261,0.60872 -0.58203,1.35548 -0.46537,1.65949 0.47286,1.23225 4.54853,2.46282 9.3212796,2.81439 3.303,0.2433 4.49633,0.22449 7.48551,-0.11802 z m -7.48551,-3.81788 c 0,-0.21333 0.25414,-0.29034 0.56477,-0.17114 0.87824,0.33701 1.21373,-0.59842 0.62378,-1.73925 -0.77173,-1.49236 -1.74899,-1.1638 -1.61426,0.54272 0.1081,1.36918 -0.25117,1.66597 -0.96929,0.80069 -0.6438896,-0.77584 -0.2969,-2.0658 0.68944,-2.56303 0.51736,-0.26081 2.23402,-0.44675 4.1527,-0.4498 2.94697,-0.005 3.4097,0.0867 4.67431,0.92362 0.77195,0.51086 1.40355,0.95212 1.40355,0.98058 0,0.0285 -0.83344,0.0969 -1.85209,0.15215 -3.10258,0.16816 -3.57043,0.26756 -3.71087,0.78843 -0.1072,0.39757 -0.0577,0.39182 0.23903,-0.0278 0.22592,-0.31945 0.37637,-0.36412 0.37964,-0.11273 0.003,0.22904 0.36258,0.48524 0.79915,0.56932 0.43656,0.0841 0,0.17625 -0.97014,0.20481 -0.97014,0.0286 -2.3592,0.15032 -3.08681,0.27059 -0.85913,0.142 -1.32291,0.0827 -1.32291,-0.1692 z m 2.46944,-0.93918 c 0,-0.097 -0.0794,-0.17639 -0.17639,-0.17639 -0.097,0 -0.17639,0.0794 -0.17639,0.17639 0,0.097 0.0794,0.17639 0.17639,0.17639 0.097,0 0.17639,-0.0794 0.17639,-0.17639 z m 5.02708,0.99155 c 0.33955,-0.0887 0.89518,-0.0887 1.23473,0 0.33954,0.0887 0.0617,0.16133 -0.61737,0.16133 -0.67909,0 -0.9569,-0.0726 -0.61736,-0.16133 z m 2.02848,-0.28599 c 0,-0.097 0.0794,-0.17639 0.17638,-0.17639 0.097,0 0.17639,0.0794 0.17639,0.17639 0,0.097 -0.0794,0.17639 -0.17639,0.17639 -0.097,0 -0.17638,-0.0794 -0.17638,-0.17639 z m -53.63064,-4.67431 c -0.005,-0.7276 -0.12642,-1.87854 -0.27066,-2.55764 -0.43978,-2.07065 -0.15409,-3.0561 1.02793,-3.54571 1.33772,-0.5541 1.75958,-0.16629 2.58031,2.37204 0.78467,2.42682 1.25153,2.78813 2.66087,2.05934 1.36997,-0.70844 1.40783,-0.81173 1.51065,-4.12024 0.0462,-1.48723 0.19168,-2.81165 0.32324,-2.94316 0.13157,-0.1315 0.75771,-0.26375 1.39144,-0.29388 1.07421,-0.0511 1.19706,0.0644 1.81408,1.70453 0.36401,0.96761 0.73632,1.83377 0.82735,1.9248 0.27306,0.27307 2.55002,-1.08625 2.76709,-1.65192 0.11077,-0.28867 0.008,-1.86531 -0.22929,-3.50365 -0.50874,-3.5186 -0.2816,-4.12214 1.61184,-4.28292 1.22065,-0.10364 1.33419,-0.0229 1.985,1.41112 0.37966,0.83657 0.69378,1.79886 0.69804,2.13841 0.006,0.49276 0.31942,0.61736 1.55205,0.61736 2.2184404,0 2.4860004,0.47914 2.1977304,3.93576 -0.20131,2.41385 -0.14545,2.96387 0.35742,3.51954 1.38507,1.53048 2.67709,0.55186 3.27346,-2.47943 0.23061,-1.17218 0.56406,-2.2207 0.741,-2.33005 0.17693,-0.10935 0.89271,0.0398 1.59062,0.33137 l 1.26892,0.53018 -0.26627,2.21507 c -0.4704,3.91318 -0.25401,4.49141 1.68504,4.50271 1.34825005,0.008 1.67749005,-0.60841 2.09,-3.91208 0.39464,-3.16052 0.81273,-4.54918 1.36965,-4.54918 0.18963,0 0.97834,1.0848 1.7527,2.41067 1.86629,3.19554 2.16612,3.42649 3.53164,2.72035 1.56814,-0.81092 1.67923,-1.85582 0.45647,-4.29339 -1.55292,-3.09574 -1.62968,-3.51453 -0.79684,-4.34737 1.20849,-1.20849 1.97194,-0.91758 3.1930496,1.21668 0.61056,1.06715 1.26509,1.94028 1.45452,1.94028 0.75993,0 2.38919,-1.09208 2.59455,-1.7391 0.12945,-0.40785 -0.21986,-1.71868 -0.85694,-3.21581 -0.59151,-1.39002 -1.07547,-2.99415 -1.07547,-3.56473 0,-1.94329 2.60727,-3.54865 3.81,-2.34592 0.24374,0.24374 0.42333,1.41111 0.42333,2.75167 0,2.4892 0.3527,3.175 1.63286,3.175 1.10873,0 1.85829,-0.88141 2.11505,-2.4871 0.33443,-2.09138 0.82798,-2.60206 1.99908,-2.06847 1.19594,0.54491 1.19121,0.88017 -0.0672,4.7561 -1.16631,3.59225 -0.98558,4.47626 0.95499,4.67103 1.21059,0.12151 1.71028,-0.54261 2.56603,-3.41048 0.537,-1.79962 1.46131,-2.38748 2.89618,-1.84194 1.68841,0.64193 1.86747,1.69982 0.82006,4.84491 -1.04444,3.13618 -1.15053,4.4326 -0.41284,5.04483 1.07674,0.89362 2.09099,0.28269 3.19441,-1.92416 0.83137,-1.66274 1.25142,-2.13916 1.95869,-2.22156 1.16702,-0.13596 1.85158,0.67325 2.62547,3.10351 1.04715,3.28844 1.71953,3.44787 1.16845,0.27705 -0.30252,-1.7406 -0.24286,-2.34298 0.4367,-4.40972 1.80948,-5.50316 3.0512,-6.51574 5.16358,-4.21073 1.35955,1.48352 2.03398,1.59409 3.17646,0.52079 1.07234,-1.00741 1.03108,-1.57865 -0.26116,-3.61631 -1.35806,-2.14145 -1.27164,-3.25662 0.33607,-4.33649 1.58053,-1.06162 2.24043,-1.01629 3.68629,0.25318 1.30589,1.14659 1.86478,1.27067 2.7303,0.60615 1.11284,-0.85441 1.35105,-1.76805 0.80165,-3.07467 -0.68017,-1.61765 -0.37679,-2.63394 0.95037,-3.18367 1.39444,-0.57759 1.93807,-0.0846 2.7863,2.52693 0.51312,1.57976 0.76511,1.90862 1.53292,2.00049 1.40199,0.16775 2.24326,-0.47353 2.90939,-2.21774 0.52264,-1.36853 0.71631,-1.55899 1.40856,-1.38525 0.59176,0.14853 0.85965,0.0217 1.01974,-0.4827 0.11943,-0.37628 0.80045,-1.26745 1.51338,-1.98038 1.74856,-1.74856 4.34155,-2.50027 7.5848,-2.19885 2.91219,0.27066 3.32625,-0.18944 1.87856,-2.08747 -0.51994,-0.68167 -0.89473,-1.50025 -0.83287,-1.81907 0.0625,-0.32234 1.42574,-1.23243 3.0708,-2.05008 l 2.95834,-1.47041 -3.3675,-1.6382 c -9.06368,-4.40922 -15.72477,-11.59782 -28.66401,-30.93396 -5.27433,-7.88185 -11.23636,-16.51672 -14.60262,-21.14911 -3.11897,-4.29209 -7.96471,-10.44951 -8.46857,-10.76092 -0.18149,-0.11216 -1.65075,0.17861 -3.26503,0.64616 -3.34585,0.96908 -7.39935,1.74799 -12.35337,2.37382 l -3.4210896,0.43217 -2.57613,3.53972 c -5.33560995,7.33139 -12.50904,15.74776 -13.41904,15.74419 -0.24529,-9.7e-4 -0.87446,-0.35816 -1.3981604,-0.79375 -0.82336,-0.68485 -7.21249,-9.03471 -11.3199,-14.7938 -0.73479,-1.03026 -1.53776,-2.13969 -1.78439,-2.46541 -0.3286,-0.43398 -1.43261,-0.69756 -4.13208,-0.98654 -4.32672,-0.46318 -8.97753,-1.26727 -11.42061,-1.97454 -0.95685,-0.27701 -1.78449,-0.50365 -1.8392,-0.50365 -0.19814,0 -5.35343,6.97046 -7.95779,10.75972 -3.82092,5.55931 -6.64465,10.23836 -11.38994,18.87361 -5.67324,10.32389 -8.48712,15.08268 -12.16245,20.56894 -7.25721,10.83302 -14.8016,18.15652 -24.05622,23.35189 -2.40981,1.35282 -2.69832,2.4158 -0.86373,3.18234 0.68689,0.287 1.8493,0.52174 2.58314,0.52165 1.16303,-1.5e-4 1.5289,-0.2262 2.85114,-1.76158 1.7421,-2.02292 2.8515,-2.45818 4.13012,-1.62039 1.1465,0.75121 1.10907,1.55859 -0.18776,4.05036 -0.58692,1.12774 -0.97047,2.30234 -0.85232,2.61022 0.25755,0.67117 1.82965,1.7576 2.20638,1.52476 0.14685,-0.0907 1.13455,-0.26809 2.1949,-0.39407 3.55717,-0.42265 5.8006,-1.07027 5.92414,-1.71016 0.0636,-0.32956 -0.38392,-2.59524 -0.99456,-5.03484 -0.61064,-2.4396 -1.02524,-4.52066 -0.92134,-4.62456 0.10391,-0.10391 0.77895,-0.20751 1.50009,-0.23022 1.11707,-0.0352 1.43217,0.13616 2.12856,1.15741 0.44957,0.65928 0.8174,1.60233 0.8174,2.09566 0,0.49333 0.43282,2.22601 0.96183,3.85042 l 0.96184,2.95345 -1.03242,1.90857 -1.03242,1.90856 0.83763,0.89163 c 0.4607,0.49039 0.95478,0.89162 1.09795,0.89162 0.14318,0 0.99665,-1.03188 1.89661,-2.29306 0.89996,-1.26118 1.7813,-2.29305 1.95853,-2.29305 0.17723,0 0.72102,0.58687 1.20843,1.30415 l 0.88619,1.30416 -1.25125,2.23744 c -1.31035,2.34313 -1.40254,3.78025 -0.30113,4.69434 0.82747,0.68673 1.31081,0.22095 3.12522,-3.01174 1.58162,-2.81791 3.00048,-4.76446 3.47288,-4.76446 0.10195,0 0.20251,1.12592 0.22346,2.50204 0.0438,2.8794 0.14656,3.1424 1.22754,3.1424 1.60902,0 2.04155,-0.73245 2.37496,-4.02184 0.17253,-1.70224 0.4033,-3.23994 0.5128,-3.41712 0.1095,-0.17718 0.80181,-0.32215 1.53847,-0.32215 h 1.33937 l 0.20364,-2.69259 c 0.16526,-2.18507 0.41052,-3.02539 1.30124,-4.45825 0.60368,-0.97111 1.21985,-2.33914 1.36926,-3.04005 0.2543,-1.19287 0.35426,-1.27186 1.56288,-1.23495 1.90598,0.0582 3.77871,1.59313 3.77871,3.09708 0,1.93894 -1.25136,6.19946 -2.96342,10.08964 -1.72458,3.91862 -1.87027,4.55321 -1.19936,5.22412 0.8305,0.8305 2.30236,0.49276 3.15162,-0.7232 0.44043,-0.63059 0.95779,-1.25399 1.14969,-1.38535 0.56747,-0.38841 2.27685,0.69849 2.85411,1.81478 0.69666,1.3472 0.67846,1.71124 -0.21452,4.29159 -0.41231,1.1914 -0.74965,2.54667 -0.74965,3.0117 0,1.17707 1.06621,2.23326 2.25446,2.23326 0.86658,0 1.13982,-0.2798 2.06707,-2.11667 1.17832,-2.33424 1.7742,-2.5887 3.28296,-1.40191 1.3028,1.02478 1.42153,1.7884 0.61007,3.9234 -0.91808,2.41549 -0.9038,3.18373 0.0757,4.07489 1.04188,0.9479 1.525,1.10359 3.52777,1.13688 l 1.6757,0.0279 z m -31.74158,-20.37291 c 0,-0.097 0.0794,-0.17639 0.17639,-0.17639 0.097,0 0.17639,0.0794 0.17639,0.17639 0,0.097 -0.0794,0.17639 -0.17639,0.17639 -0.097,0 -0.17639,-0.0794 -0.17639,-0.17639 z m 0.70556,-1.76389 c 0,-0.097 0.0794,-0.17639 0.17638,-0.17639 0.097,0 0.17639,0.0794 0.17639,0.17639 0,0.097 -0.0794,0.17639 -0.17639,0.17639 -0.097,0 -0.17638,-0.0794 -0.17638,-0.17639 z m 123.91318,-7.36356 c -0.63059,-0.64798 -1.14653,-1.30751 -1.14653,-1.46563 0,-0.15811 -0.27781,-0.60271 -0.61736,-0.988 -0.59531,-0.6755 -0.58962,-0.69358 0.15948,-0.5062 0.42726,0.10688 0.82413,0.0655 0.88194,-0.0919 0.0578,-0.15746 0.54167,-0.20147 1.07525,-0.0978 0.64823,0.12593 0.97014,0.40894 0.97014,0.8529 0,0.36543 0.11906,0.64563 0.26458,0.62265 0.73414,-0.11592 0.84994,0.10127 0.35142,0.65914 -0.30342,0.33955 -0.60584,0.97189 -0.67203,1.40521 -0.1156,0.75666 -0.16576,0.74121 -1.26689,-0.3903 z m 0.90828,-1.65808 c -0.46235,-1.32631 -0.61447,-1.21329 -0.38598,0.28679 0.0958,0.62861 0.30557,1.06166 0.46628,0.96234 0.16071,-0.0993 0.12457,-0.66143 -0.0803,-1.24913 z m -2.40759,-2.09086 c 0,-0.19403 0.15875,-0.35278 0.35278,-0.35278 0.19403,0 0.35278,0.15875 0.35278,0.35278 0,0.19403 -0.15875,0.35278 -0.35278,0.35278 -0.19403,0 -0.35278,-0.15875 -0.35278,-0.35278 z m -7.05555,-8.99583 c 0,-0.097 0.0794,-0.17639 0.17639,-0.17639 0.097,0 0.17639,0.0794 0.17639,0.17639 0,0.097 -0.0794,0.17639 -0.17639,0.17639 -0.097,0 -0.17639,-0.0794 -0.17639,-0.17639 z m -96.6611,-22.93056 c 0,-0.097 0.0794,-0.17638 0.17639,-0.17638 0.097,0 0.17638,0.0794 0.17638,0.17638 0,0.097 -0.0794,0.17639 -0.17638,0.17639 -0.097,0 -0.17639,-0.0794 -0.17639,-0.17639 z m 0,-0.70555 c 0,-0.097 0.0794,-0.17639 0.17639,-0.17639 0.097,0 0.17638,0.0794 0.17638,0.17639 0,0.097 -0.0794,0.17639 -0.17638,0.17639 -0.097,0 -0.17639,-0.0794 -0.17639,-0.17639 z m 46.8167304,-18.74114 c -0.83788,-0.83787 0.47087,-2.54094 1.4755,-1.92004 0.70186,0.43377 0.33185,1.94719 -0.50537,2.06703 -0.39604,0.0567 -0.8326,-0.009 -0.97013,-0.14699 z m -54.3621104,80.05241 2.86156,-0.20223 -0.15536,-1.62675 c -0.232,-2.4293 -0.29135,-2.50868 -1.87572,-2.50868 -1.54536,0 -2.54465,-0.39231 -3.72061,-1.46067 -0.72053,-0.6546 -0.74581,-0.65403 -1.36545,0.0307 -0.53597,0.59225 -0.59303,1.05528 -0.37775,3.06556 0.31855,2.97456 0.48197,3.40004 1.19993,3.12411 0.31451,-0.12087 1.85954,-0.31077 3.4334,-0.422 z m 104.55926,-8.571 c 0,-0.19403 -0.15875,-0.35278 -0.35278,-0.35278 -0.19403,0 -0.35278,0.15875 -0.35278,0.35278 0,0.19403 0.15875,0.35278 0.35278,0.35278 0.19403,0 0.35278,-0.15875 0.35278,-0.35278 z m -0.1096,-2.38125 c -0.0887,-0.33955 -0.16133,-0.0617 -0.16133,0.61736 0,0.6791 0.0726,0.95691 0.16133,0.61736 0.0887,-0.33954 0.0887,-0.89517 0,-1.23472 z m -57.8409796,-76.32243 c 1.7015,-2.15315 3.13463,-4.02237 3.18473,-4.15382 0.0902,-0.2366 -11.9625304,-0.0835 -12.2183404,0.15522 -0.18501,0.17263 5.3649804,7.89286 5.6822304,7.90419 0.14176,0.005 1.64989,-1.75245 3.35138,-3.90559 z m 5.21030005,-12.31134 c 2.71638995,-0.18973 5.52524995,-0.4389 6.24190995,-0.55372 l 1.30302,-0.20877 -0.20422,-1.72434 c -0.50683,-4.27943 3.5545196,-8.45092 8.2278196,-8.45092 2.23831,0 3.5062,0.44403 4.84887,1.69814 1.14302,1.06762 2.31736,3.36871 2.32902,4.56367 0.009,0.91347 0.85121,1.00956 2.767,0.31566 l 1.17176,-0.4244 -1.65353,-1.18748 c -2.05232,-1.47386 -4.2188,-4.76093 -4.7745,-7.24405 -0.23363,-1.04398 -0.34705,-3.14348 -0.25537,-4.72718 l 0.16493,-2.84908 -2.32224,-0.74347 c -4.29361,-1.37462 -7.61027,-3.72018 -10.1666896,-7.18992 -3.46299,-4.70021 -4.70729,-8.68101 -4.70071,-15.03854 0.007,-7.1479 2.12482,-12.33709 7.04344,-17.26152 4.3449896,-4.35011 8.4119596,-6.0419 14.4975496,-6.03074 3.91856,0.007 6.62924,0.62857 10.05416,2.30476 2.13165,1.04325 6.78219,4.63984 6.44086,4.98117 -0.0648,0.0648 -0.74679,-0.10614 -1.51547,-0.37992 -3.33948,-1.18943 -6.58838,-0.44576 -9.21654,2.10967 -2.93211,2.85096 -3.56257,6.5058 -1.7266,10.00939 0.64149,1.22417 2.53081,2.98401 4.07748,3.79804 1.87465,0.98666 6.04877,0.89979 8.07025,-0.16797 2.7546,-1.45499 4.21968,-3.54912 4.59148,-6.56286 l 0.21929,-1.77753 0.79425,2.06721 c 2.11531,5.50563 1.83072,13.04604 -0.67831,17.97199 l -0.68353,1.34197 1.38248,1.65664 c 1.81471,2.17458 4.29575,6.03923 4.29575,6.69136 0,0.3654 0.23125,0.45085 0.79375,0.2933 0.43656,-0.12227 1.46844,-0.32111 2.29306,-0.44187 1.60425,-0.23493 1.80968,-0.48523 0.97014,-1.18199 -0.29105,-0.24154 -0.51076,-0.69755 -0.48825,-1.01334 0.0345,-0.48442 0.0661,-0.47766 0.20226,0.0432 0.23262,0.89015 1.88616,0.82149 2.12405,-0.0882 0.10147,-0.38806 0.32081,-0.70556 0.4874,-0.70556 0.1666,0 0.14193,0.42339 -0.0548,0.94087 -0.44764,1.17738 -0.22515,1.33013 3.02101,2.07401 8.69247,1.99196 16.17155,0.37148 21.6992,-4.7015 4.10713,-3.76931 6.7034,-9.51774 6.69522,-14.82395 -0.007,-4.69163 -1.11489,-7.50956 -4.08923,-10.40313 -6.2847,-6.11405 -15.14974,-3.3598 -18.82085,5.84738 -0.94535,2.37093 -1.77448,3.07465 -3.62256,3.07465 -1.46406,0 -2.59802,-0.85393 -2.91596,-2.19588 -3.0306,-12.79128 -4.79247,-18.65761 -6.49223,-21.61661 -0.55729,-0.97014 -3.27893,-4.22452 -6.04808,-7.23195 -8.87859,-9.64254 -11.44387,-13.49955 -13.92505,-20.93689 -1.22187,-3.66258 -1.92999,-7.13603 -1.93474,-9.49019 -0.001,-0.7276 -0.12727,-1.32291 -0.27956,-1.32291 -0.1523,0 -0.80279,0.63582 -1.44553,1.41293 -2.87712,3.47863 -10.81161,9.62659 -17.25275,13.36813 -11.89234955,6.90805 -33.77554,13.0234 -45.67652,12.76449 -0.99346,-0.0216 -1.65666,-0.32999 -2.63206,-1.22388 -1.23515,-1.13193 -1.31161,-1.33046 -1.44903,-3.76242 -0.0798,-1.41208 0.0472,-3.42666 0.28223,-4.47682 0.23502,-1.05017 0.36666,-1.97004 0.29254,-2.04416 -0.0741,-0.0741 -1.15982,0.18546 -2.41267,0.57684 -3.52679,1.10173 -11.17111,2.74096 -14.01206,3.00471 l -2.56193,0.23784 -3.97657,4.27047 c -5.56882,5.98041 -9.1077,10.03884 -10.43175,11.96328 -2.32027,3.3724 -4.48591,9.86103 -5.36782,16.08295 -0.49218,3.47231 -0.24599,14.90095 0.39407,18.29299 l 0.41603,2.20486 h 1.33355 c 3.42495,0 7.23883,4.81956 7.23014,9.13665 -0.002,1.08672 -0.11284,2.46962 -0.24591,3.07311 l -0.24193,1.09726 2.2927,0.21409 c 3.27115,0.30547 6.13952,1.69575 8.23979,3.99378 2.09607,2.29344 2.62705,3.7654 2.39612,6.6424 l -0.17523,2.18299 2.68866,1.28747 c 6.66631,3.19216 15.46468,5.27166 27.73589,6.55538 4.03063,0.42166 18.5243504,0.44425 24.34166045,0.038 z M -44.35169,-251.48051 c -1.53357,-0.61708 -1.34534,-3.18946 0.27092,-3.70244 2.07262,-0.65782 3.57347,2.94804 1.54764,3.71826 -0.4977,0.18923 -0.93426,0.33398 -0.97014,0.32168 -0.0359,-0.0123 -0.41767,-0.16417 -0.84842,-0.3375 z m 1.81034,-1.15382 c 0.46746,-0.74107 -0.5169,-1.86491 -1.35257,-1.54424 -0.6602,0.25334 -0.73193,1.3303 -0.12878,1.93345 0.51897,0.51897 0.98587,0.39629 1.48135,-0.38921 z m -9.08636,-0.18979 c -0.76938,-0.85015 -0.74012,-1.9263 0.0724,-2.6616 1.43812,-1.30147 3.49354,0.77984 2.53637,2.56833 -0.48984,0.91527 -1.82175,0.96289 -2.60874,0.0933 z m 2.03081,-0.51576 c 0.46745,-0.74107 -0.51691,-1.86492 -1.35258,-1.54424 -0.66019,0.25334 -0.73192,1.33029 -0.12878,1.93344 0.51897,0.51897 0.98587,0.3963 1.48136,-0.3892 z m 25.71633,-5.19248 c -0.42525,-0.17129 -1.00213,-0.67717 -1.28195,-1.12417 -0.6409,-1.02381 -1.10141,-7.93613 -0.6141,-9.21784 0.44859,-1.17989 2.2732,-2.13259 3.50098,-1.828 1.70444,0.42285 2.51964,1.52787 2.51964,3.41544 v 1.7024 h 7.01781 c 7.6674304,0 7.4460804,0.0629 7.4460804,-2.11667 0,-1.48128 0.32595,-2.08468 1.43634,-2.65888 1.4803,-0.76549 2.38047,-0.63413 3.52968005,0.51508 1.02165,1.02165 1.0312,1.06922 1.0312,5.13847 0,2.259 -0.16346,4.41269 -0.36324,4.78598 -0.46138,0.8621 -2.15114005,1.74435 -3.34093005,1.74435 -1.36377,0 -2.91564,-0.93293 -3.53086,-2.12264 -0.34304,-0.66335 -0.83426,-1.06461 -1.32889,-1.08551 -2.2522104,-0.0951 -4.9474504,-0.11087 -7.3426504,-0.0429 -2.47985,0.0704 -2.70708,0.14114 -3.07961,0.95877 -0.81955,1.7987 -3.57517,2.75149 -5.5995,1.93608 z m -23.04645,-2.83216 c -0.74823,-1.39808 0.44349,-2.80803 1.90076,-2.24882 0.77156,0.29608 1.11974,1.78314 0.57201,2.44311 -0.63004,0.75916 -2.02099,0.64987 -2.47277,-0.19429 z m 2.3674,-0.21102 c 0.23842,-0.6213 -0.22558,-1.59234 -0.86228,-1.80457 -0.52828,-0.17609 -1.19543,1.13478 -0.92981,1.82697 0.2797,0.72888 1.5097,0.71351 1.79209,-0.0224 z m 7.59701,0.29805 c -1.19577,-0.18636 -1.96927,-1.58515 -1.69247,-3.06062 0.43318,-2.30906 2.7741,-3.01424 4.50408,-1.35681 1.20968,1.15894 1.28633,2.54093 0.19569,3.52798 -0.88641,0.80221 -1.8115,1.07582 -3.0073,0.88945 z m 2.0231,-1.64426 c 0.93714,-1.12918 -0.43929,-2.86377 -1.66163,-2.094 -1.22143,0.7692 -0.78628,2.60622 0.61736,2.60622 0.34054,0 0.81046,-0.2305 1.04427,-0.51222 z m 47.82832,0.87921 c -0.76861,-0.84929 -0.49766,-2.29378 0.53379,-2.8458 1.68812,-0.90345 3.34835,1.06743 2.2768,2.70281 -0.66861,1.02044 -1.95719,1.086 -2.81059,0.14299 z m 2.05498,-0.54338 c 0.28048,-0.73091 -0.10023,-1.5875 -0.70555,-1.5875 -0.27638,0 -0.59388,0.23812 -0.70556,0.52917 -0.28048,0.73091 0.10023,1.5875 0.70556,1.5875 0.27637,0 0.59387,-0.23813 0.70555,-0.52917 z m -67.15534,-2.84906 c -9.96853,-2.61803 -17.10311,-12.619 -16.46508,-23.08011 0.23807,-3.90325 0.95757,-6.54724 2.78404,-10.23055 2.8129,-5.67256 9.27691,-11.07597 14.73937,-12.32094 2.33302,-0.53173 7.31739,-0.45602 9.6297,0.14626 3.06674,0.79878 6.15706,2.51555 8.4289,4.68253 2.26347,2.15898 2.6064,2.85925 0.99118,2.02398 -2.01886,-1.04399 -4.53311,-1.29951 -6.68549,-0.67943 -2.41941,0.69701 -5.26108,3.4074 -5.9335,5.65936 -1.02113,3.41982 0.0495,7.13636 2.68507,9.32036 2.62667,2.17667 7.12153,2.66052 10.18711,1.09658 2.49617,-1.27346 4.08479,-3.51822 4.65477,-6.57731 l 0.26292,-1.41111 0.80858,2.46944 c 0.66508,2.03121 0.81014,3.252 0.81742,6.87917 0.008,3.98286 -0.0921,4.7015 -1.0338,7.42391 -0.57345,1.65781 -1.63559,3.90751 -2.36031,4.99934 -1.81012,2.72707 -5.79974,6.40203 -8.34506,7.68691 -4.40231,2.22228 -10.87593,3.03826 -15.16582,1.91161 z m 18.09119,-11.21336 c 1.58496,-0.67085 2.39862,-1.70242 2.61495,-3.31528 0.46166,-3.44192 -3.171,-6.08273 -6.20739,-4.51255 -1.39044,0.71902 -2.15153,2.04329 -2.15153,3.74355 0,1.80615 0.82589,3.25978 2.25797,3.97418 1.38167,0.68925 2.06656,0.71088 3.486,0.1101 z m 14.37333,1.195 c -1.63361,-1.63361 -1.36687,-3.687 1.09363,-8.41876 2.13637,-4.1084 2.10876,-4.07409 4.02507,-5.00176 1.54001,-0.74551 1.54561,-0.74562 3.09077,-0.0621 1.7597904,0.77845 2.3720304,1.54235 4.4962504,5.61013 1.97997,3.79156 2.28317,6.30331 0.92485,7.66163 -0.67022,0.67023 -1.27389,0.90748 -2.30901,0.90748 -1.7574004,0 -2.5642404,-0.92674 -3.1722604,-3.64366 -0.52743,-2.35679 -1.29095,-3.18554 -2.01835,-2.19077 -0.26758,0.36594 -0.58911,1.23307 -0.71453,1.92697 -0.25912,1.43368 -1.10024,3.25241 -1.68225,3.63747 -0.80427,0.5321 -3.02971,0.27787 -3.73417,-0.4266 z m 86.33338,-3.73853 c -0.84787,-0.45997 -0.9697,-0.73607 -0.96669,-2.19073 0.01,-4.81755 4.92965,-9.58976 9.8951,-9.59848 1.90637,-0.003 3.89283,0.86139 2.92206,1.27203 -1.04306,0.44121 -3.64838,2.35769 -3.64838,2.68376 0,0.20073 0.55562,0.97998 1.23472,1.73166 1.03102,1.14122 1.23472,1.63224 1.23472,2.97636 0,0.88533 -0.17189,1.93085 -0.38197,2.3234 -0.36115,0.67482 -0.41402,0.64955 -0.97014,-0.46376 -1.31278,-2.6281 -3.83165,-2.58964 -6.44997,0.0985 -0.92241,0.94701 -1.72711,1.71548 -1.78821,1.70771 -0.0611,-0.008 -0.54766,-0.25097 -1.08124,-0.54044 z m -14.10667,-1.76156 c -1.80744,-0.98071 -2.58115,-3.81179 -1.5816,-5.78718 0.61467,-1.21475 2.61729,-2.48029 3.92239,-2.47871 1.46357,0.002 3.22008,1.12124 3.9382,2.50994 1.43578,2.77649 -0.71045,6.32315 -3.8088,6.29406 -0.82747,-0.008 -1.93905,-0.24992 -2.47019,-0.53811 z m 3.74035,-1.94282 c 0.67417,-0.5303 0.92952,-1.05628 0.92952,-1.91467 0,-1.29513 -1.29313,-2.64583 -2.53306,-2.64583 -0.97181,0 -2.40583,1.57707 -2.40583,2.64583 0,1.06876 1.43402,2.64583 2.40583,2.64583 0.37071,0 1.0923,-0.32902 1.60354,-0.73116 z m -9.53769,-23.41617 c -1.50621,-1.07778 -1.22687,-4.27872 0.42885,-4.91408 1.79848,-0.69014 3.68836,0.6978 3.68836,2.70876 0,2.03894 -2.4876,3.37138 -4.11721,2.20532 z m 2.71323,-1.61877 c 0.90063,-1.68285 -0.99389,-3.23354 -2.17241,-1.77814 -0.61994,0.76561 -0.53411,1.72486 0.19927,2.22704 0.69809,0.47801 1.58507,0.27622 1.97314,-0.4489 z m -118.66217,-1.69014 c -0.81933,-0.90536 -0.75258,-3.06668 0.12171,-3.94098 2.00594,-2.00593 5.06453,0.54436 3.73539,3.11462 -0.82635,1.59799 -2.77999,2.01655 -3.8571,0.82636 z m 2.76884,-1.12019 c 0.52867,-0.58416 0.57012,-0.85995 0.23863,-1.5875 -0.69476,-1.52482 -2.88576,-0.98805 -2.88576,0.70699 0,1.57562 1.55114,2.09157 2.64713,0.88051 z m 69.1271104,-1.92281 c -0.82843,-0.82843 -0.92841,-1.15757 -0.77231,-2.5425 0.30836,-2.73573 3.22611,-5.06958 6.30972,-5.04703 1.79934,0.0132 2.6313596,0.54727 3.1442096,2.01843 0.28516,0.81801 0.24986,1.3604 -0.15095,2.31969 -0.69492,1.66316 -3.8587196,3.7837 -6.0063696,4.02577 -1.36425,0.15377 -1.6988,0.0512 -2.5243,-0.77436 z m 4.313,-1.28156 c 2.53644,-1.22787 3.7203296,-3.46435 2.40968,-4.55209 -1.37908,-1.14454 -5.8247,1.51266 -5.8247,3.4815 0,1.89381 1.0406,2.22003 3.41502,1.07059 z M -31.942,-313.51307 c -3.80559,-1.80036 -4.97358,-4.17938 -3.12847,-6.37217 0.80492,-0.9566 1.12936,-1.08448 2.73402,-1.07765 3.54768,0.0151 6.58323,2.28804 6.58323,4.92935 0,1.84641 -0.26838,2.40947 -1.43634,3.01345 -1.43253,0.74078 -2.3445,0.64618 -4.75244,-0.49298 z m 4.33669,-1.40068 c 0.66234,-0.82203 0.54538,-1.32731 -0.61244,-2.646 -1.29626,-1.47636 -3.80665,-2.30968 -5.13485,-1.70451 -0.67119,0.30581 -0.86729,0.66368 -0.86729,1.58277 0,1.4804 0.8233,2.26472 3.2339,3.08079 1.92383,0.65128 2.65851,0.58325 3.38068,-0.31305 z m 49.37265,-6.53638 c -5.18718,-1.64634 -6.31307,-2.3497 -6.97583,-4.35788 -1.05454,-3.19529 1.46968,-6.09874 5.30218,-6.09874 3.3716,0 9.61466,3.04991 10.75433,5.2538 0.90129,1.74289 0.71778,4.07091 -0.42139,5.34575 -1.51956,1.70054 -2.92406,1.67736 -8.65929,-0.14293 z m -77.00314,0.37054 c -1.35217,-1.16309 -1.60846,-3.92406 -0.52674,-5.67433 2.1012,-3.39981 10.30056,-6.24132 13.39389,-4.64169 2.99679,1.54969 3.18379,6.18859 0.32068,7.95496 -1.75182,1.08077 -8.751,3.17557 -10.61028,3.17557 -1.19473,0 -1.88376,-0.21774 -2.57755,-0.81451 z m 71.40605,74.50269 c 1.81188,-0.36301 3.43906,-0.74947 3.61598,-0.85881 0.48663,-0.30076 0.38564,-1.83234 -0.19484,-2.95488 -0.71799,-1.38844 -2.54551,-2.84672 -3.56752,-2.84672 -0.85731,0 -1.12775,0.62517 -0.54175,1.25236 0.17222,0.18433 0.42105,0.69233 0.55294,1.12889 0.38669,1.2799 -0.69577,0.97618 -1.57162,-0.44097 -0.4197,-0.6791 -0.89672,-1.23473 -1.06004,-1.23473 -0.5459,0 -2.48689,1.83596 -3.00957,2.84673 -0.6029996,1.16606 -0.6654096,2.56587 -0.15677,3.51626 0.39533,0.73869 0.1117,0.7582 5.93319,-0.40813 z m 17.57677,-5.13734 c 1.0357,-0.32647 1.88309,-0.79717 1.88309,-1.046 0,-0.65814 -1.07655,-3.75615 -1.47706,-4.25058 -0.26204,-0.32349 -0.62565,-0.28684 -1.55605,0.15684 -1.11828,0.53327 -1.25915,0.53394 -1.78458,0.009 -0.88856,-0.88856 -0.34374,-1.75033 1.02303,-1.61819 1.09945,0.1063 1.1564,0.0504 1.32521,-1.30004 l 0.17639,-1.41111 0.79375,0.79375 c 0.43656,0.43656 1.03188,0.79375 1.32292,0.79375 0.63305,0 0.65481,0.16116 0.13429,0.99465 -0.31006,0.49648 -0.23428,0.94711 0.35277,2.09783 0.41121,0.80604 0.74766,1.86872 0.74766,2.36152 0,1.16159 0.36595,1.13046 2.86566,-0.24376 1.84257,-1.01296 2.07323,-1.26222 2.07323,-2.24042 0,-1.77459 -0.67466,-3.21529 -1.96741,-4.20132 -1.67904,-1.28066 -1.56151,-1.73513 0.37991,-1.46903 l 1.5875,0.21759 v -1.19023 c 0,-1.10738 0.45474,-1.6185 1.43996,-1.6185 0.58259,0 0.33994,1.64839 -0.37678,2.55954 -0.56078,0.71293 -0.63467,1.09224 -0.37002,1.89966 0.18187,0.55487 0.50352,1.68435 0.71478,2.50994 l 0.3841,1.50109 1.06533,-0.5509 c 0.58593,-0.303 1.70861,-1.13208 2.49485,-1.84239 l 1.42952,-1.29149 -0.14578,-3.01008 c -0.12407,-2.56163 -0.31732,-3.33125 -1.29713,-5.16573 -0.63323,-1.18561 -1.7669,-2.75673 -2.51926,-3.49139 l -1.36792,-1.33574 -2.57791,2.39599 c -1.41785,1.3178 -2.54838,2.57142 -2.5123,2.78583 0.0361,0.21441 0.17366,0.74703 0.30573,1.18359 0.32062,1.05988 -0.31733,1.02156 -1.17648,-0.0707 l -0.67995,-0.86442 -2.33887,0.95262 c -2.19272,0.89309 -2.33921,1.02296 -2.34426,2.07833 -0.007,1.50565 -0.66326,1.84672 -0.93535,0.48627 l -0.21613,-1.0806 -3.57209,0.21864 c -2.33531,0.14294 -3.75531,0.39152 -4.10126,0.71794 -0.38715,0.3653 -0.52878,1.27679 -0.5277,3.39622 0.001,2.55294 0.12638,3.12279 1.05342,4.79901 2.35673,4.26133 5.89611,5.76892 10.29119,4.38349 z m -8.34747,-7.51171 c 0,-0.22165 0.18376,-0.28943 0.40835,-0.15063 0.27978,0.17292 0.34572,0.0129 0.20942,-0.50834 -0.10942,-0.4184 -0.044,-0.76072 0.14535,-0.76072 0.49385,0 0.20504,1.50384 -0.32215,1.67746 -0.24253,0.0799 -0.44097,-0.0361 -0.44097,-0.25777 z m -82.6759,5.10236 c 0.47504,-1.23793 -0.27469,-3.76258 -1.50179,-5.05714 l -1.22137,-1.28852 -0.55877,0.79375 c -0.78094,1.10933 -1.30729,0.99787 -1.06271,-0.22505 0.22125,-1.10623 -0.37622,-1.88358 -1.77507,-2.3095 -0.64171,-0.19539 -0.93821,0.0177 -1.69707,1.21984 -0.50573,0.80113 -0.99669,1.65775 -1.09104,1.9036 -0.10254,0.26722 0.93468,1.15758 2.57902,2.21384 5.61184,3.60483 5.94493,3.74952 6.3288,2.74918 z m -9.6157,-8.57093 c -0.64055,-0.0597 -1.50643,0.0743 -1.92418,0.2979 -0.74669,0.39961 -0.73657,0.43005 0.59748,1.79623 l 1.35704,1.38973 0.56714,-1.68763 0.56715,-1.68763 z m 119.32932,-1.4789 c 0.28632,0 0.42247,-0.15875 0.30256,-0.35278 -0.41304,-0.66831 -1.23526,-0.36789 -1.20687,0.44097 0.0153,0.43657 0.10792,0.59532 0.20578,0.35278 0.0979,-0.24253 0.4122,-0.44097 0.69853,-0.44097 z m -122.78438,-1.58759 c 0.31786,-0.48512 0.65824,-1.88252 0.7564,-3.10534 0.19804,-2.46716 -0.46486,-4.27632 -2.13956,-5.83917 -0.98654,-0.92065 -1.62368,-0.76627 -1.69439,0.41056 -0.027,0.44893 -0.13788,0.25704 -0.26458,-0.45779 -0.28638,-1.61566 -1.45287,-1.96819 -1.45287,-0.43908 0,1.51557 1.2528,6.14732 2.13763,7.90306 1.36643,2.71138 1.74081,2.92661 2.65737,1.52776 z m -10.1424,-1.46619 c 1.30521,-0.23461 1.29428,-0.0781 0.25474,-3.649 -1.01134,-3.47404 -1.95632,-10.63513 -2.18798,-16.58055 -0.25136,-6.45122 -0.49915,-7.31387 -2.84749,-9.9132 -2.1609,-2.39186 -4.10737,-3.31611 -6.98159,-3.3151 -1.87075,6.5e-4 -2.87405,0.19992 -4.13831,0.82191 -2.6489,1.30321 -5.04599,3.69601 -6.34604,6.33468 -1.01057,2.05111 -1.17303,2.77018 -1.28125,5.6709 -0.10726,2.87505 0.007,3.72366 0.84745,6.30809 2.38219,7.32317 8.69364,13.44669 14.9751,14.52919 1.87375,0.32292 5.26422,0.23186 7.70537,-0.20692 z m -5.19939,-12.66212 c -0.76513,-1.2968 -2.51011,-2.27577 -4.05647,-2.27577 -0.57288,0 -1.23921,0.44939 -1.96158,1.32292 -0.90024,1.08864 -1.15373,1.22921 -1.43139,0.79375 -0.44128,-0.69207 -0.44075,-2.88567 9.7e-4,-4.04749 0.19206,-0.50514 0.77326,-1.31145 1.29157,-1.7918 l 0.94239,-0.87338 -0.78177,-0.83215 c -0.42997,-0.45768 -1.39592,-1.1091 -2.14655,-1.44758 -1.66108,-0.74905 -1.53467,-1.43752 0.35752,-1.94703 4.6304,-1.24684 10.89167,4.05202 10.91602,9.23813 0.006,1.36747 -0.15145,1.77532 -0.92177,2.38125 -1.23073,0.96809 -1.34655,0.94078 -2.20894,-0.52085 z m -14.84948,-5.26988 c -0.25512,-0.30741 -0.32344,-0.78219 -0.16499,-1.14653 0.24795,-0.57012 0.28375,-0.56315 0.43021,0.0837 0.0879,0.38806 0.32086,0.90399 0.51777,1.14653 0.23584,0.29049 0.23763,0.44097 0.005,0.44097 -0.19403,0 -0.54872,-0.2361 -0.78822,-0.52467 z m -0.004,-2.47394 c 0,-0.097 0.0794,-0.17639 0.17639,-0.17639 0.097,0 0.17639,0.0794 0.17639,0.17639 0,0.097 -0.0794,0.17639 -0.17639,0.17639 -0.097,0 -0.17639,-0.0794 -0.17639,-0.17639 z m 139.12293,10.97886 c 3.65569,-1.52745 3.58453,-6.44227 -0.11547,-7.97486 -1.47101,-0.60931 -3.43521,-0.16526 -4.65221,1.05175 -0.83395,0.83394 -1.00526,1.30236 -1.00526,2.7487 0,2.01096 0.87427,3.40107 2.61592,4.15938 1.39046,0.60541 1.74004,0.60708 3.15702,0.015 z m 29.50484,-27.62141 c 0.6791,-0.40391 1.83961,-0.92786 2.57893,-1.16433 l 1.34421,-0.42995 -0.25166,-3.75797 c -0.13841,-2.06689 -0.26705,-3.9961 -0.28587,-4.28714 -0.0238,-0.3673 0.38197,-0.56335 1.32632,-0.6409 1.21771,-0.10001 1.41776,-0.25741 1.9056,-1.49931 0.29977,-0.76316 0.6648,-1.38757 0.81115,-1.38757 0.47644,0 1.37571,3.21184 1.99226,7.1156 l 0.6034,3.82051 h 1.48482 1.48483 l 0.7222,-3.08681 c 1.63221,-6.97639 1.95312,-9.63915 1.96637,-16.31597 0.0107,-5.39274 -0.12386,-7.20189 -0.77463,-10.41528 -2.09852,-10.36211 -6.61382,-19.23224 -13.37689,-26.2784 -4.56266,-4.75364 -9.31474,-7.92595 -14.58382,-9.73561 -2.8906,-0.99277 -9.95792,-0.93111 -12.87308,0.11233 -1.16235,0.41604 -2.15751,0.7123 -2.21147,0.65834 -0.054,-0.054 0.61998,-1.35191 1.49765,-2.88432 2.09236,-3.65329 3.51863,-7.38944 4.20698,-11.02033 0.57871,-3.0525 0.46492,-4.64228 -0.33226,-4.64228 -0.76863,0 -3.2556,3.19184 -4.53541,5.82084 -0.66117,1.35819 -1.79192,4.37444 -2.51279,6.70277 -0.72087,2.32834 -1.71578,5.09758 -2.21093,6.15388 l -0.90026,1.92055 -0.95726,-3.89333 c -2.24787,-9.14247 -7.09812,-16.23807 -14.44123,-21.12658 -1.86296,-1.24022 -3.99972,-2.51087 -4.74835,-2.82367 l -1.36116,-0.56873 0.21093,1.78094 c 0.50675,4.27871 3.70478,11.92834 7.833,18.73639 1.0854,1.78998 1.91712,3.31084 1.84828,3.37968 -0.37776,0.37775 -4.54478,-3.03936 -9.05636,-7.42655 -5.2342696,-5.08995 -7.1076196,-6.5405 -12.2999196,-9.5239 -5.66893,-3.25726 -13.3302604,-5.69591 -21.0902504,-6.71315 -4.40635,-0.57763 -14.9661,-0.73066 -14.9661,-0.2169 0,0.56317 5.67033,5.66941 10.30798,9.28255 4.54635,3.542 5.95365,4.99252 4.46645,4.60361 -0.40635,-0.10627 -0.85881,0.007 -1.01097,0.25331 -0.22131,0.35808 -0.89013,0.35101 -3.40347,-0.036 -4.29249,-0.66093 -17.92516,-0.56088 -24.0239,0.1763 -2.56744,0.31034 -8.59994,1.20017 -13.40555,1.97741 -4.80562,0.77723 -11.59498,1.7637 -15.08748,2.19215 -3.4925,0.42845 -6.42938,0.84129 -6.52639,0.91741 -0.30956,0.2429 2.53635,2.52783 6.11897,4.91282 3.61465,2.4063 7.02943,4.03136 10.63797,5.06248 1.16417,0.33265 1.87854,0.68727 1.5875,0.78803 -0.29104,0.10076 -3.14854,0.52051 -6.35,0.93278 -9.05226,1.1657 -15.91263,2.60449 -22.08603,4.63198 -4.78802,1.5725 -4.84636,1.65566 -2.37301,3.38226 4.05296,2.82929 7.25333,3.96327 13.87571,4.91657 3.09797,0.44595 5.2849,0.52971 9.2518,0.35433 2.85717,-0.12632 5.47655,-0.33732 5.82084,-0.46889 0.34428,-0.13157 -0.76255,1.26568 -2.45964,3.105 -4.56956,4.95254 -8.73244,10.74207 -8.73244,12.14466 0,1.6869 12.71825,2.53337 21.52594,1.43267 6.39075,-0.79865 11.88172,-2.03383 17.7275,-3.98777 l 4.85761,-1.62364 3.41054,-4.61433 c 1.87579,-2.53789 3.51858,-4.74417 3.65063,-4.90286 0.13205,-0.15869 -0.77487,2.68827 -2.01539,6.32658 -2.68396,7.87175 -4.18648,14.00781 -4.04033,16.50009 0.0352,0.5998 0.24051,0.64291 2.06752,0.43414 10.26453,-1.17293 24.9911304,-5.51469 34.8368004,-10.27073 9.4823596,-4.58054 16.1162396,-9.91014 25.4519996,-20.44792 1.63459,-1.84505 1.91635,-2.02503 2.82222,-1.80275 1.64019,0.40246 1.97719,1.00285 2.12781,3.79086 0.26722,4.94622 1.23304,11.71225 2.0979,14.69669 1.17592,4.05787 3.94691,9.33279 6.85266,13.0449 1.31908,1.68514 4.72464,5.6025 7.56791,8.70525 4.0397,4.40836 5.42611,6.18177 6.34326,8.11388 1.22007,2.57024 3.8233,10.30144 4.25286,12.63032 l 0.24686,1.33836 2.1627,-2.0605 c 1.18949,-1.13327 2.71833,-2.39097 3.39743,-2.79487 z m -87.84166,-78.96022 c 0,-0.097 0.0794,-0.17639 0.17639,-0.17639 0.097,0 0.17639,0.0794 0.17639,0.17639 0,0.097 -0.0794,0.17639 -0.17639,0.17639 -0.097,0 -0.17639,-0.0794 -0.17639,-0.17639 z m -61.29819,78.21669 c 0.88769,-3.69869 3.27294,-9.53472 4.93311,-12.0699 0.82555,-1.26065 3.67247,-4.83252 6.32651,-7.9375 l 4.82552,-5.64541 -1.99973,-0.085 c -5.78441,-0.24578 -11.47052,-1.22002 -14.26476,-2.44407 -3.96729,-1.73791 -3.49948,-6.44867 1.30782,-13.16957 l 1.64017,-2.29305 -2.92619,-0.20978 c -1.60941,-0.11537 -3.03867,-0.14977 -3.17613,-0.0764 -0.57158,0.30495 -4.56704,6.64406 -5.68162,9.01433 -2.68964,5.71977 -3.75602,10.39602 -3.76167,16.49549 -0.004,4.46161 0.28538,7.10877 1.08493,9.91999 0.46953,1.65088 0.5065,1.58373 0.85145,-1.54628 0.12324,-1.11828 0.35283,-1.95366 0.5102,-1.85641 0.39875,0.24645 0.66378,2.2954 0.32406,2.50536 -0.1532,0.0947 -0.17835,0.43328 -0.0559,0.75242 0.19651,0.5121 0.25616,0.50041 0.50768,-0.0995 0.23995,-0.57229 0.2707,-0.54033 0.19452,0.20218 -0.0498,0.48507 -0.28516,0.84226 -0.52309,0.79375 -0.23793,-0.0485 -0.45244,0.0706 -0.47669,0.26459 -0.0242,0.19403 -0.0706,0.55121 -0.1029,0.79375 -0.0628,0.47077 2.14074,3.27554 2.54938,3.245 0.1339,-0.01 0.6529,0.62499 1.15334,1.41111 0.50043,0.78612 1.15545,1.63085 1.45559,1.87719 0.61544,0.50513 4.23153,2.5345 4.53368,2.54433 0.108,0.004 0.45482,-1.07047 0.7707,-2.38663 z m -9.96292,-6.95559 c 0,-0.097 0.0794,-0.17638 0.17639,-0.17638 0.097,0 0.17639,0.0794 0.17639,0.17638 0,0.097 -0.0794,0.17639 -0.17639,0.17639 -0.097,0 -0.17639,-0.0794 -0.17639,-0.17639 z"
       id="path294" /></g></svg>
