<?xml version="1.0" encoding="UTF-8" standalone="no"?>
<!-- Created with Inkscape (http://www.inkscape.org/) -->

<svg
   width="259.51059mm"
   height="301.905mm"
   viewBox="0 0 259.51063 301.90498"
   version="1.1"
   id="svg1"
   xml:space="preserve"
   xmlns="http://www.w3.org/2000/svg"
   xmlns:svg="http://www.w3.org/2000/svg"><defs
     id="defs1"><clipPath
       clipPathUnits="userSpaceOnUse"
       id="clipPath6"><path
         id="path7"
         style="fill:#ff0000;fill-opacity:1;fill-rule:nonzero;stroke:none;stroke-width:0.264583"
         d="M -175.07778,-16.057127 V 287.55793 H 124.54631 V -16.057127 Z m 132.7459,202.572647 c 0.210643,0.005 0.427212,0.0169 0.650089,0.0367 2.23823,0.19855 4.475655,0.4031 6.717938,0.55346 1.973313,0.11308 0.986628,0.0436 2.958475,0.20825 3.181295,0.26563 4.740125,1.85116 4.950601,3.46956 4.949923,1.63749 3.796379,7.35609 -2.592089,6.81354 -3.228716,-0.27422 -1.569593,-0.1301 -4.979024,-0.43357 -4.228209,-0.39317 -8.460616,-0.76265 -12.666927,-1.35341 -6.647387,-0.93358 -5.930551,-7.21034 0.03204,-7.20421 0.04685,5e-5 0.0972,0.004 0.144695,0.005 0.687229,-1.21692 2.304132,-2.15435 4.784204,-2.09548 z" /></clipPath><clipPath
       clipPathUnits="userSpaceOnUse"
       id="clipPath76"><path
         id="path77"
         style="fill:#ff0000;fill-opacity:1;fill-rule:nonzero;stroke:none;stroke-width:0.264583"
         d="M -133.83107,-122.52355 V 173.82063 H 122.97289 V -122.52355 Z M 13.574404,98.948202 c 2.788179,0.0507 4.135003,2.063798 3.398242,4.077268 0.199805,0.45372 0.374906,0.96736 0.517797,1.54461 1.07913,4.35948 0.671079,8.891 0.311608,13.31495 -0.351859,3.06036 -0.147137,1.57974 -0.604097,4.44366 -0.359666,2.25418 -1.333846,3.66838 -2.455664,4.32532 0.105138,0.36595 0.224724,0.72888 0.324528,1.09554 0.6273,2.23652 0.575201,4.47401 0.39429,6.75514 -0.137303,1.73129 -0.688065,2.99533 -1.427303,3.82199 -0.112477,0.41601 -0.170275,0.80219 -0.311092,1.25212 -0.184975,0.59102 -0.413327,1.1061 -0.670242,1.55856 0.741137,-0.23134 1.446982,-0.38145 2.064991,-0.37517 4.085002,0.0415 5.222724,4.75435 -0.02223,7.27138 -4.46677,2.14368 -9.303523,3.34693 -14.11903492,4.40955 -4.40876268,0.85156 -8.89238128,1.33053 -13.38264308,1.19269 -5.804014,-0.17807 -6.736297,-5.00293 -3.065447,-6.67298 -2.072987,-0.65744 -4.042852,-1.62261 -4.128947,-3.14709 -0.02802,-0.49633 0.0026,-0.90355 0.0341,-1.30897 -1.976731,-0.003 -3.95339,2.4e-4 -5.930386,0.003 -0.814031,0 -1.53062,-0.0962 -2.159559,-0.26149 -0.376306,0.19492 -0.742394,0.40783 -1.120862,0.59893 -6.391272,3.22657 -9.625245,-3.24074 -3.234428,-6.46886 1.833438,-0.92611 3.62694,-1.92211 5.414142,-2.92954 -0.877003,-3.87058 -1.368747,-7.83436 -1.323951,-11.80858 0.01651,-1.46304 0.376836,-2.54918 0.864547,-3.41426 -1.247357,-1.79999 -0.223805,-4.63069 3.842661,-5.68855 3.11826,-0.81116 6.282901,-1.39515 9.473837,-1.82211 -1.259816,-0.12657 -2.516182,-0.30233 -3.764627,-0.50177 -1.477002,-0.21985 -2.935575,-0.54305 -4.407482,-0.7891 -1.14214,-0.22954 -0.588502,-0.12004 -1.660882,-0.3297 -3.350244,-0.65501 -4.783278,-2.61088 -4.608504,-4.32997 -0.200179,-1.7721 1.333365,-3.52972 4.663799,-3.59461 v -5.3e-4 c 0.20954,-0.004 0.426035,-0.002 0.649571,0.008 1.77111,0.0772 3.528708,0.28204 5.26428,0.64027 1.655035,0.33225 3.314115,0.6481 4.955251,1.04439 1.244759,0.34858 2.51628,0.54538 3.7997689,0.6723 0.025956,0.002 0.052073,0.002 0.078034,0.004 0.4990888,-0.0371 0.9984105,-0.0743 1.4965495,-0.11317 1.346872,-0.12588 2.6913231,-0.25136 4.0457464,-0.24236 1.1278499,-0.0444 2.2567291,-0.10772 3.37498791,-0.26872 0.75719517,-0.11591 1.51142439,-0.25483 2.25722659,-0.4284 0.3616431,-0.12394 0.7240561,-0.24538 1.083138,-0.37775 0.3360393,-0.12388 0.6107589,-0.12825 0.9250071,-0.20723 0.1281086,-0.045 0.2583895,-0.0825 0.3855085,-0.13074 1.9825018,-0.7681 3.9540551,-1.56464 5.9510551,-2.29443 1.050809,-0.383992 1.999634,-0.542639 2.826703,-0.527616 z M 0.70283723,110.39557 c -0.45566013,0.0949 -0.90775367,0.208 -1.36890919,0.2744 -1.16638124,0.15534 -2.34111274,0.24237 -3.51761424,0.26251 0.4031694,0.0896 0.8047355,0.18876 1.2025101,0.308 0.1014836,0.0304 0.1982549,0.075 0.2986907,0.10852 0.4205235,-0.21824 0.9206601,-0.35072 1.4898318,-0.37156 0.39885139,-0.0146 0.83259872,0.0278 1.29449508,0.13023 0.22468681,-0.12213 0.44967525,-0.24374 0.67437529,-0.36587 -0.0326284,-0.11319 -0.058211,-0.22834 -0.0733795,-0.34623 z m 10.24433577,1.02474 c -0.76023,0.21437 -1.5189569,0.4343 -2.2696301,0.68006 -0.031261,0.62207 -0.2256075,1.28373 -0.6464723,1.94355 0.6236891,0.43248 1.2549743,1.04482 1.8634525,1.86862 0.2674939,0.36214 0.4748849,0.75712 0.7188199,1.13223 0.154519,-1.86707 0.314174,-3.74736 0.33383,-5.62446 z m 64.566086,3.39773 c 1.50346,0.0187 3.129182,1.24994 3.928441,4.04678 0.257931,0.90255 0.823497,1.65871 1.488797,2.30735 0.856321,0.95375 1.845738,1.76777 2.801898,2.61638 1.458581,1.46408 2.789203,3.04608 4.169772,4.58215 1.315059,1.44746 2.571226,2.91698 3.543967,4.61884 0.0053,0.01 0.0082,0.0206 0.01344,0.0305 0.734605,-0.43313 1.446276,-0.65634 2.094962,-0.69195 3.016182,-0.16561 4.69137,3.55377 1.187525,7.32306 -1.69471,1.82311 -3.657862,3.33908 -5.68751,4.7651 -0.777873,0.49914 -1.607691,0.90075 -2.418456,1.33842 0.165478,1.44344 -0.672182,3.24303 -2.956409,4.73096 -1.354556,0.88234 -2.690448,1.79306 -4.075203,2.6288 -2.075008,1.20078 -4.233777,2.27962 -6.540687,2.96259 -2.077586,0.62971 -4.169056,1.29987 -6.359301,1.36374 -1.872114,0.0897 -3.746989,0.0368 -5.620845,0.0501 h -5.1108 -5.524728 c -7.160125,0 -7.160125,-7.23315 0,-7.23315 h 1.347722 c 0.29438,-0.0541 0.5212,-0.1588 0.84801,-0.18656 1.106628,-0.094 2.200932,-0.28334 3.292822,-0.48421 0.456121,-0.98163 1.356053,-1.98213 2.807581,-2.83962 1.078018,-0.63685 2.158119,-1.26923 3.212209,-1.94561 1.962647,-1.29302 3.840588,-2.72135 5.893696,-3.86902 1.367169,-0.76424 2.559646,-1.07097 3.526915,-1.04128 2.216811,0.068 3.246223,1.90266 2.479953,4.04059 1.105688,-0.48686 2.206929,-0.98346 3.283003,-1.53739 2.619811,-1.23728 5.288743,-2.38548 7.764385,-3.9026 0.246153,-0.17184 0.487463,-0.34958 0.730705,-0.52503 -0.126915,-0.50614 -0.277693,-0.9939 -0.512114,-1.46554 -0.647621,-1.25778 -1.721077,-2.20654 -2.600875,-3.29644 -1.199229,-1.33472 -2.369312,-2.69496 -3.592029,-4.00803 -1.098706,-0.97599 -2.227236,-1.92181 -3.215306,-3.01428 -1.300821,-1.39063 -2.459913,-2.93896 -3.045293,-4.77801 -1.289469,-4.05101 0.646382,-6.61405 2.843754,-6.58667 z m -95.086705,4.28035 c -0.465643,0.10748 -0.930899,0.21773 -1.394745,0.33435 0.171958,0.64334 0.283575,1.36624 0.279569,2.2071 -0.01267,2.6582 0.205063,5.32647 0.670242,7.94732 0.280107,-0.17087 0.565767,-0.33222 0.845429,-0.50385 -0.01897,-0.36223 -0.02445,-0.73164 -0.05529,-1.08985 -0.118034,-2.96491 -0.160888,-5.93314 -0.3452,-8.89507 z m 18.5141159,1.1958 c 0.00497,0.0773 0.00619,0.15612 0.014975,0.23202 -0.1238779,0.22787 -0.2588048,0.44752 -0.3937741,0.66715 0.58900751,0.0447 1.13203305,0.21413 1.64331124,0.45888 -0.37615284,-0.49255 -0.78353709,-0.94642 -1.26452314,-1.35805 z m -6.5422357,14.57068 c -0.046649,0.0755 -0.09888,0.14702 -0.1436608,0.22376 -0.03147,0.054 0.1963367,0.0838 0.1860365,0.0222 -0.017595,-0.10481 -0.026035,-0.14905 -0.042376,-0.24597 z m 13.9236979,6.08439 c -0.2236258,0.5643 -0.5677508,1.09664 -1.1782213,1.50533 0.9079653,0.17659 1.7077452,0.44257 2.2830631,0.84852 0.1405493,-0.0459 0.272804,-0.11448 0.4128956,-0.16174 -0.7336976,-0.43656 -1.2984269,-1.18703 -1.5177374,-2.19211 z" /></clipPath><clipPath
       clipPathUnits="userSpaceOnUse"
       id="clipPath127"><path
         id="path128"
         style="fill:#ff0000;fill-opacity:1;fill-rule:nonzero;stroke:none;stroke-width:0.264583"
         d="M -112.24796,-126.55676 V 185.58027 H 148.5754 V -126.55676 Z M 46.874626,83.305366 c 1.808208,0 3.616317,1.790192 3.616317,5.370214 v 5.232238 c 0.0627,2.146078 -0.111291,4.285324 -0.245462,6.424932 -0.136289,2.02485 -0.190703,4.04985 -0.104904,6.07715 0.192061,1.91863 0.527714,3.82569 0.876432,5.72213 0.304242,2.00862 0.765826,3.9858 1.180806,5.97276 0.41642,1.86142 0.967934,3.68703 1.421104,5.53972 0.25287,0.86996 0.117097,0.46495 0.396356,1.22008 0.186108,0.50319 0.223428,0.93098 0.309544,1.38441 4.425355,2.23251 2.751262,7.58433 -3.415813,6.40477 -3.104732,-0.59371 -6.256094,-0.76586 -9.40821,-0.85576 -3.81635,0.009 -7.630525,0.17062 -11.44478,0.28216 -1.12776,0.0333 -2.255837,0.0512 -3.383772,0.0754 -0.908129,0.5548 -1.966518,0.57724 -2.88613,0.0641 -0.03584,5.3e-4 -0.07165,0.002 -0.107487,0.003 -0.03142,5.3e-4 -0.0525,-0.009 -0.08268,-0.009 -0.32049,0.14732 -0.641715,0.29301 -0.962215,0.44028 -0.262501,0.12062 -0.518089,0.22111 -0.770496,0.31265 -0.876996,0.71434 -1.945576,0.85817 -2.911967,0.46405 -2.943479,-0.21613 -4.295167,-2.77187 -2.550232,-5.0524 -2.22e-4,-0.028 -0.0078,-0.0483 -0.0078,-0.0765 v -6.3469 c -0.014,-2.72977 -0.02254,-5.45666 0.112657,-8.18348 0.135676,-2.32533 0.233519,-4.6523 0.299723,-6.98046 0.046,-1.80459 0.06926,-3.60958 0.08527,-5.41465 -0.0258,-1.02998 0.04009,-2.054459 0.138491,-3.078883 0.0044,-0.04602 0.02191,-0.07504 0.02687,-0.120406 C 15.992671,97.193438 15.83363,95.70984 16.656834,94.418959 10.68718,93.678613 10.992573,87.32947 17.739972,87.32947 h 3.885033 5.177462 5.913334 c 1.498505,0.05847 2.984222,-0.03228 4.475178,-0.161748 1.252041,-0.18606 2.49041,-0.398671 3.697968,-0.782897 1.001961,-0.32245 0.492366,-0.161472 1.527553,-0.482142 0.510384,-0.158096 0.938446,-0.174371 1.394749,-0.23771 0.672338,-1.56932 1.86623,-2.35903 3.063377,-2.35903 z" /></clipPath><clipPath
       clipPathUnits="userSpaceOnUse"
       id="clipPath139"><path
         id="path140"
         style="fill:#ff0000;fill-opacity:1;fill-rule:nonzero;stroke:none;stroke-width:0.264583"
         d="M 97.168006,-339.91235 V -44.578961 H 346.46958 V -339.91235 Z m 14.326254,94.53944 c 1.76488,0.006 3.77708,1.78446 4.35839,5.31699 0.32911,1.99994 0.60308,4.00817 0.88884,6.01462 1.02527,-1.2445 2.22305,-1.83589 3.28403,-1.8402 2.05627,-0.008 3.59454,2.17302 2.34611,6.00222 -0.0197,0.0606 -0.0413,0.12046 -0.0615,0.18087 0.31698,0.91799 0.41757,2.09982 0.17777,3.54139 -0.2164,1.30085 -0.62011,2.56457 -1.0263,3.8163 -1.34183,4.13496 -4.42238,4.92072 -6.12882,3.38016 -1.93867,0.62007 -4.30523,-0.86149 -4.65605,-4.82762 -0.16862,-1.90632 -0.33891,-3.81275 -0.57464,-5.71231 -0.45291,-3.52522 -1.07719,-7.02592 -1.48208,-10.55543 -0.40801,-3.55672 1.10935,-5.32303 2.87424,-5.31699 z" /></clipPath><clipPath
       clipPathUnits="userSpaceOnUse"
       id="clipPath170"><path
         id="path171"
         style="fill:#ff0000;fill-opacity:1;fill-rule:nonzero;stroke:none;stroke-width:0.264583"
         d="M 88.756261,-299.52331 V 17.880567 H 410.91541 V -299.52331 Z M 363.24287,-220.863 c 0.90345,-0.008 1.97628,0.23856 3.18532,0.82218 3.39402,1.63831 6.49674,3.81197 9.57823,5.96449 3.22509,2.31448 6.37511,4.73585 9.43663,7.26261 1.87296,1.50796 3.75989,2.99047 5.54284,4.6054 1.76167,1.54167 3.42262,3.17283 4.95419,4.94388 1.19316,1.48882 2.47049,2.9032 3.73311,4.33204 1.08043,1.20022 2.09423,2.45631 2.94299,3.83026 0.82616,1.73429 1.48968,3.55524 1.93786,5.42344 1.67031,6.96258 -5.76469,8.62686 -7.05745,1.5844 -0.21127,-1.15093 -0.75649,-2.20765 -1.10278,-3.32021 -0.52141,-1.02678 -1.43909,-1.82952 -2.14042,-2.72904 -1.28368,-1.45272 -2.58234,-2.89095 -3.79617,-4.40386 -1.32794,-1.55409 -2.79577,-2.95456 -4.33049,-4.3031 -1.69875,-1.54267 -3.51006,-2.94207 -5.29113,-4.38733 -2.90883,-2.40671 -5.90918,-4.70386 -8.97258,-6.91017 -2.63017,-1.83963 -5.2759,-3.68008 -8.12096,-5.17746 -5.14813,-2.7095 -4.41412,-7.50431 -0.49919,-7.53753 z m -17.79788,14.64304 c 0.81097,-0.004 1.74701,0.16947 2.79104,0.57154 4.59168,1.76834 8.99191,4.00303 13.38523,6.20892 0.37082,0.1876 0.72266,0.4088 1.09088,0.601 0.4155,-0.11565 0.91038,-0.17484 1.48572,-0.16691 0.65984,0.009 1.42523,0.10601 2.29753,0.30644 2.35556,0.54125 4.30075,1.95473 6.16344,3.42614 -1.07651,-2.72314 0.34142,-4.84679 2.57866,-4.84311 1.28683,0.002 2.83083,0.70484 4.29689,2.3952 2.44776,2.82227 4.79147,5.70892 6.96391,8.74934 1.67944,2.35043 1.72027,4.43615 0.89969,5.70663 1.5344,1.02281 3.07247,2.04019 4.58422,3.09645 1.80695,1.14136 3.31928,2.58833 4.72631,4.18269 0.96689,1.16625 2.0869,2.25988 2.79262,3.61942 0.19542,0.37651 0.34592,0.77482 0.51882,1.1622 0.40259,1.55462 0.27207,0.76263 0.38706,2.3766 0.0637,0.89436 -0.044,1.45412 -0.26977,1.7756 0.11753,0.20753 0.23421,0.41574 0.35608,0.62063 3.66003,6.15399 -2.6856,9.845 -6.25234,3.63648 -0.83209,-1.44832 -1.62388,-2.92102 -2.35437,-4.42351 -0.84839,-1.84687 -1.70402,-3.69055 -2.54093,-5.54229 -0.078,-0.17246 -0.14713,-0.34128 -0.2119,-0.5085 -0.415,-0.33988 -0.82071,-0.68775 -1.29707,-0.97255 -2.35545,-1.64933 -4.79565,-3.17384 -7.14841,-4.82761 -3.27895,-2.27743 -6.61384,-4.47194 -9.95804,-6.65231 -4.00886,-2.60003 -8.08797,-5.09434 -12.3548,-7.25434 -4.08429,-2.05175 -8.1752,-4.1242 -12.42663,-5.81101 -5.61546,-2.22804 -4.88331,-7.4129 -0.50384,-7.43314 z m -225.34594,21.50101 c 3.05551,-0.16929 4.03285,3.80875 0.35915,7.72563 -1.17612,1.25397 -2.32696,2.59265 -3.45922,3.90674 -1.44062,1.57315 -2.77631,3.23874 -4.13618,4.88135 -1.14319,1.4697 -2.29319,2.93265 -3.46335,4.38113 -0.8717,1.2084 -1.86054,2.32105 -2.81017,3.46594 -0.80685,0.95022 -1.53489,1.96075 -2.32234,2.92695 -0.80594,1.00684 -1.52017,2.08004 -2.22519,3.15847 -0.20511,0.28103 -0.29499,0.51935 -0.30179,0.78909 -0.18033,7.15787 -8.659963,5.5717 -7.093102,-1.4149 0.267098,-1.19094 0.644303,-2.32859 1.347721,-3.34243 0.846108,-1.28566 1.701136,-2.56663 2.670121,-3.76463 0.806525,-0.98525 1.5446,-2.0236 2.37453,-2.98999 0.93132,-1.109 1.88214,-2.2008 2.7342,-3.37448 1.18855,-1.47082 2.35327,-2.95822 3.51813,-4.44779 1.39067,-1.67946 2.758,-3.38112 4.2292,-4.99142 1.55862,-1.80675 3.07205,-3.68494 4.92528,-5.20227 1.38505,-1.13397 2.63451,-1.65096 3.65301,-1.70739 z m 30.4953,3.26389 c 4.11093,0.0973 5.25218,4.81763 -0.0434,7.22591 -1.93926,0.8819 -3.80509,1.88928 -5.66115,2.92437 0.381,1.39299 -0.23993,3.26566 -2.43035,4.98678 -2.3369,1.83618 -4.71607,3.61825 -7.08845,5.40845 -2.84267,2.19936 -5.66068,4.43162 -8.41086,6.74584 -2.22216,1.84972 -4.46469,3.67225 -6.66213,5.55109 -1.67979,1.46598 -3.37138,2.91821 -5.06067,4.37337 -1.40892,1.30469 -2.82191,2.592 -4.12274,4.00648 -1.07181,1.16531 -2.16701,1.83049 -3.17087,2.10529 -0.88357,6.53411 -7.65001,5.87099 -7.10344,-1.07177 0.0596,-0.75732 0.12015,-1.51435 0.21239,-2.26859 0.18237,-1.4495 0.31176,-2.90657 0.57051,-4.34444 0.56059,-2.2771 1.55106,-4.35314 3.32124,-5.95312 1.46716,-1.38711 2.94871,-2.75912 4.4943,-4.05919 1.45063,-1.21601 2.91967,-2.40825 4.4111,-3.57394 2.2284,-1.75259 4.48249,-3.46927 6.81044,-5.08961 3.1083,-2.16601 6.29001,-4.21936 9.5343,-6.17689 3.28252,-2.04598 6.49796,-4.19789 9.78648,-6.23476 2.38673,-1.38679 4.82146,-2.65715 7.33495,-3.79873 1.22236,-0.55516 2.32966,-0.77899 3.27836,-0.75654 z" /></clipPath><clipPath
       clipPathUnits="userSpaceOnUse"
       id="clipPath233"><path
         id="path234"
         style="fill:#ff0000;fill-opacity:1;fill-rule:nonzero;stroke:none;stroke-width:0.264583"
         d="M 185.24069,-319.24193 V -24.289387 H 425.09684 V -319.24193 Z m 138.35487,149.6534 c 1.78419,7.9e-4 3.63037,1.79012 3.80182,5.36608 0.0643,1.33996 -0.0719,2.65433 -0.29041,3.95842 0.27255,-0.0735 0.56767,-0.11689 0.88522,-0.12351 0.37047,-0.008 0.77026,0.0328 1.19579,0.12867 0.38629,-0.24279 0.8215,-0.42195 1.34254,-0.44493 1.13073,-0.0499 2.53823,0.47335 4.04474,1.80971 0.4186,0.37135 0.80759,0.77178 1.2056,1.16323 0.49581,-0.30652 1.09744,-0.47283 1.77559,-0.44028 1.18851,0.0571 2.59295,0.69888 3.98788,2.15129 2.63375,2.74227 4.82211,5.85047 6.92256,9.00669 2.43144,3.88376 4.79634,7.81591 6.98098,11.84475 1.13959,2.01485 2.36363,3.97199 3.24527,6.11746 0.86638,2.54168 0.71525,4.37292 -0.15348,6.88278 -0.88855,2.03627 -2.18951,3.83746 -3.64937,5.49682 -1.22616,1.21887 -2.44396,2.51198 -3.976,3.35587 -0.38219,0.21053 -0.79187,0.3659 -1.18803,0.54881 -6.50071,3.00135 -9.83602,-5.23462 -2.81948,-6.6611 1.07346,-0.21823 1.75532,-1.41088 2.56987,-2.0407 0.86323,-0.96375 1.62015,-2.00233 2.25208,-3.13417 0.24334,-0.63932 0.47847,-1.05078 0.24958,-1.76114 -0.42873,-1.13152 -1.03555,-2.17502 -1.65674,-3.21169 -0.64492,3.08426 -3.96214,3.78517 -6.03631,0.97152 -0.80928,1.85722 -3.53859,2.62684 -6.75775,0.30902 -0.53872,-0.38787 -1.07831,-0.77486 -1.61745,-1.1622 -3.08248,4.62545 -3.94671,5.04673 -6.74584,2.87063 -2.73204,-2.16473 -5.33615,-4.48821 -8.05999,-6.6642 -2.7461,-2.45053 -5.40757,-5.07957 -7.04763,-8.42635 -1.62115,-0.12575 -3.24178,-0.2569 -4.86637,-0.34314 -7.58719,-0.44787 -15.17743,-0.9445 -22.76553,-1.33377 -1.07801,-0.0553 -1.93227,-0.3045 -2.68459,-0.62166 -0.57677,0.62929 -1.1192,1.29485 -1.64021,1.97352 -1.38696,2.1585 -2.2854,4.54313 -3.09181,6.96185 -0.53658,1.90527 -0.93866,3.84574 -1.3658,5.77949 0.3976,-0.38181 0.79402,-0.76498 1.19114,-1.14825 1.44902,-1.39846 2.84121,-1.97983 3.98373,-1.97766 2.91995,0.006 4.20899,3.82009 0.64648,7.53391 -0.92629,0.96557 -1.9114,1.86859 -2.9099,2.75797 -1.78302,1.58814 -3.50499,2.03887 -4.81263,1.76372 -0.007,0.0412 -0.0189,0.0812 -0.0253,0.12247 -0.31138,2.1774 -0.34632,4.38158 -0.39739,6.57686 0.006,3.5147 -0.15426,7.02208 -0.44287,10.52391 -0.15049,2.45352 -0.52882,4.882887 -0.77928,7.326166 -0.25682,2.270699 -0.2357,4.548968 -0.1633,6.828007 0.0525,1.43787 0.0261,0.723201 0.0775,2.145088 7.9e-4,0.02175 -0.006,0.03573 -0.006,0.05736 0.13966,0.0486 0.27673,0.09115 0.42013,0.148309 3.73047,1.486969 7.59999,2.598727 11.41894,3.833876 4.85884,1.705695 9.66861,3.546912 14.50144,5.32474 1.9552,0.651698 3.84707,1.443672 5.71489,2.292366 2.6308,-0.638411 5.26049,-1.281708 7.89771,-1.893425 4.5737,-1.075436 2.35597,-0.547624 6.65438,-1.580782 0.65268,-0.156879 1.2592,-0.237268 1.81642,-0.252698 3.40876,-0.09437 4.96226,2.238663 4.05712,4.350639 3.89832,1.612736 3.00805,6.568553 -2.90269,6.729304 l -2.19726,0.05943 c 0.0932,0.05532 0.18872,0.106439 0.28112,0.163298 6.09814,3.752323 2.1299,10.065517 -3.84782,6.124173 -1.04591,-0.689594 -2.23735,-1.127543 -3.31556,-1.763197 -2.61015,-1.251701 -5.22853,-2.484003 -7.87136,-3.665926 -0.34703,-0.170111 -0.69536,-0.335955 -1.04283,-0.504362 -1.04394,0.228952 -2.09238,0.441277 -3.15071,0.537951 -0.41145,0.100483 -0.82417,0.195434 -1.23558,0.296105 -3.95687,0.968251 -6.08679,-0.907356 -5.97897,-3.010669 -0.31188,-0.687727 -0.239,-1.395294 0.0263,-2.059305 -3.87146,-1.438614 -7.73769,-2.891312 -11.63237,-4.265891 -3.97417,-1.285444 -7.99945,-2.446282 -11.87938,-4.000272 -1.44639,-0.579335 -2.44377,-1.350957 -3.06182,-2.17506 -1.01218,-0.798706 -1.81304,-2.231819 -1.89446,-4.484998 -0.0517,-1.431189 -0.0254,-0.705106 -0.0791,-2.177645 -0.0816,-2.602558 -0.0903,-5.205841 0.19844,-7.79849 0.24823,-2.394268 0.6146,-4.775082 0.76533,-7.179412 0.27808,-3.36008 0.42763,-6.72542 0.42064,-10.09809 0.0594,-2.5132 0.11189,-5.03614 0.48266,-7.52719 0.38072,-2.41928 0.90466,-4.80615 1.46451,-7.18974 0.6701,-2.94551 1.25825,-5.91529 2.11305,-8.81393 1.0668,-3.18776 2.31041,-6.31647 4.23489,-9.10074 0.42128,-0.53977 0.8547,-1.07136 1.29914,-1.59215 -1.52816,-0.60355 -3.06641,-1.18197 -4.57646,-1.83141 -1.09038,3.76762 -2.19021,7.53001 -3.40755,11.25926 -1.05961,2.97655 -0.54118,1.54568 -1.55081,4.2938 -1.83358,4.9908 -6.03644,4.88509 -7.07398,1.75544 -2.82634,3.52841 -7.50378,1.0111 -5.57744,-4.75268 1.05408,-3.1537 2.2385,-6.34595 4.49688,-8.85837 1.49582,-1.66408 2.97572,-2.34765 4.17287,-2.32647 0.33252,0.006 0.64298,0.0664 0.92604,0.17518 0.46945,-1.58214 0.96416,-3.15651 1.43919,-4.7377 0.70062,-2.33196 1.93737,-3.52641 3.18689,-3.8871 0.54142,-0.34307 1.25019,-0.55529 2.11615,-0.57361 h 5.3e-4 c 0.8057,-0.017 1.74503,0.13149 2.80396,0.49248 0.31645,0.10788 0.63769,0.20324 0.94929,0.32401 1.83624,0.71133 3.60046,1.59642 5.43016,2.32544 1.18096,0.47048 2.26953,0.84228 3.35329,1.23145 0.62902,-0.20883 1.22424,-0.32846 1.76785,-0.35037 2.28614,-0.0921 3.73455,1.32842 3.67523,3.07682 1.73917,0.0925 3.47854,0.18832 5.21777,0.2899 -0.1345,-1.7899 1.43141,-3.54652 4.54959,-3.56619 0.39587,-0.002 0.816,0.0231 1.25987,0.0801 3.99155,0.51285 7.97638,1.04608 11.94346,1.72703 0.35092,0.0747 0.7018,0.14913 1.05265,0.22376 0.92028,-2.09088 2.0607,-3.80586 3.79408,-5.38675 0.9172,-0.8245 1.6747,-1.80494 2.07378,-2.98587 0.46483,-1.35061 0.4893,-2.77914 0.4594,-4.19561 h 5.3e-4 c -0.0754,-3.57927 1.64663,-5.36691 3.4308,-5.36608 z m 1.97559,14.00741 c -0.78838,1.39934 -1.79816,2.66075 -2.96984,3.79512 -1.06213,0.94584 -1.80404,2.02586 -2.28153,3.3538 -0.003,0.012 -0.005,0.0237 -0.009,0.0357 1.15411,0.11311 2.30814,0.22665 3.4613,0.3514 3.99042,0.43171 5.40747,2.84663 4.69323,4.76353 0.67585,0.41545 1.35041,0.83313 2.01954,1.25626 3.82278,2.5036 7.53266,5.1715 11.24013,7.84086 -1.81731,-3.68096 -3.93583,-7.19476 -6.36087,-10.5146 -1.10355,-1.48555 -2.20805,-3.00054 -3.36206,-4.44883 -0.35653,-0.44747 -1.7607,-2.16704 -2.34455,-2.70784 -0.36042,-0.33384 -0.93237,-0.68033 -1.36375,-0.9555 -1.33122,-0.84918 -2.21667,-1.81673 -2.72282,-2.76986 z" /></clipPath><clipPath
       clipPathUnits="userSpaceOnUse"
       id="clipPath240"><path
         id="path241"
         style="fill:#ff0000;fill-opacity:1;fill-rule:nonzero;stroke:none;stroke-width:0.264583"
         d="M 92.804184,-309.23338 V -41.629034 H 294.29938 V -309.23338 Z m 130.496946,63.74443 c 0.93337,0.009 2.02072,0.27397 3.21944,0.8785 1.75312,0.88412 3.43212,1.89553 5.06326,2.98586 5.9527,3.97906 1.8926,10.01797 -4.03542,6.00222 -1.36849,-0.92705 -2.78857,-1.76849 -4.26227,-2.51871 -5.18448,-2.63926 -4.02961,-7.38891 0.015,-7.34787 z m -85.24544,1.99626 c 3.36772,-0.0906 4.87054,3.93317 0.67437,7.28431 -0.81214,0.6486 -0.42273,0.34746 -1.1653,0.9064 -1.7275,1.42217 -3.47209,2.82263 -5.29477,4.12275 -2.09112,1.47372 -4.25636,2.82668 -6.45645,4.13153 -6.15846,3.65253 -10.39165,-1.95967 -4.33979,-5.78621 2.21999,-1.40367 4.47897,-2.73503 6.6244,-4.25349 1.67688,-1.19734 3.27994,-2.48915 4.86947,-3.79821 0.91499,-0.69918 0.50268,-0.37435 1.24076,-0.9679 1.39493,-1.12177 2.72473,-1.60899 3.84731,-1.63918 z" /></clipPath><clipPath
       clipPathUnits="userSpaceOnUse"
       id="clipPath251"><path
         id="path252"
         style="fill:#ff0000;fill-opacity:1;fill-rule:nonzero;stroke:none;stroke-width:0.264583"
         d="m 50.06164,-325.07443 v 245.270816 h 202.0347 V -325.07443 Z m 191.06172,72.239 c 1.42195,-0.0396 3.11835,0.92332 4.44418,3.2582 0.80855,1.42391 1.33311,2.97097 1.71979,4.55476 0.38267,1.85761 0.50306,3.75527 0.49506,5.64772 0.007,1.66837 -0.28067,3.30966 -0.52503,4.95318 -0.26767,2.07853 -1.32063,3.82386 -2.54249,5.47306 -0.98598,1.19805 -2.03839,2.33999 -3.16208,3.40961 -0.37488,0.32054 -0.76867,0.61405 -1.09502,0.98443 -4.73356,5.37222 -10.25077,0.0313 -5.19193,-5.03587 0.41783,-0.41852 0.82603,-0.84961 1.30896,-1.19579 0.83199,-0.78568 1.60086,-1.63171 2.34973,-2.49649 0.52191,-0.686 1.06794,-1.32103 1.17874,-2.204 0.19629,-1.31742 0.44949,-2.62948 0.44648,-3.9672 0.0288,-1.3072 -0.0809,-2.61845 -0.30179,-3.90725 -0.20137,-0.91522 -0.51051,-1.80281 -0.96014,-2.62775 -2.14172,-3.92928 -0.53435,-6.78057 1.83554,-6.84661 z m -24.00732,134.01508 c 1.58088,-0.0452 3.27238,1.29937 3.90106,4.36821 0.19779,0.96552 0.49313,1.88927 0.87385,2.79466 0.57738,1.31117 0.86222,2.69631 0.9741,4.11603 0.0779,1.63421 -0.38657,3.16522 -1.00976,4.65191 -0.60784,1.37091 -1.55916,2.5173 -2.50579,3.660755 -0.2566,0.333243 -0.50348,0.67224 -0.76223,1.002525 -0.0721,0.651052 -0.19323,1.300012 -0.35502,1.949752 l -0.4842,1.22783 c -0.70346,1.782932 -1.87803,2.754204 -3.12126,3.127457 -0.38818,0.593834 -0.73665,1.213207 -1.1529,1.788007 -0.78123,1.206815 -1.75001,2.262322 -2.80138,3.23546 -1.04259,0.90742 -2.26203,1.551003 -3.47214,2.198833 -0.81145,0.41652 -1.66264,0.737227 -2.52439,1.030428 -6.77856,2.306214 -9.10653,-4.670343 -2.28979,-6.86108 0.48258,-0.155091 0.95367,-0.335381 1.41232,-0.552421 0.68902,-0.364839 1.38726,-0.713642 2.01745,-1.175639 0.71797,-0.616461 1.30017,-1.358352 1.82004,-2.146123 0.66383,-0.892056 1.26802,-1.828112 1.8216,-2.792076 0.59882,-1.12436 1.07283,-2.316203 1.82056,-3.358968 0.0117,-0.0166 0.0249,-0.032 0.0367,-0.0486 -0.84786,-3.67928 0.87949,-5.67892 2.87217,-5.69422 0.38363,-0.003 0.77643,0.0723 1.16324,0.21859 0.15519,-0.3579 0.298,-0.71847 0.29042,-1.1188 -0.0398,-0.54898 -0.18359,-1.13581 -0.4191,-1.66191 -0.48947,-1.16893 -0.89792,-2.36312 -1.1591,-3.60547 -0.82863,-3.94139 1.021,-6.29698 3.05356,-6.35516 z" /></clipPath><clipPath
       clipPathUnits="userSpaceOnUse"
       id="clipPath278"><path
         id="path279"
         style="fill:#ff0000;fill-opacity:1;fill-rule:nonzero;stroke:none;stroke-width:0.264583"
         d="m -43.212488,-382.05292 v 250.81001 H 185.4025 v -250.81001 z m 181.494868,132.88233 c 1.13528,0.005 2.03811,0.42617 2.60707,1.09037 0.91934,-0.34123 1.78192,-0.54125 2.52078,-0.52658 4.05205,0.0805 5.08945,4.87108 -0.18087,7.33443 -2.21042,1.03317 -4.41856,2.08163 -6.72362,2.89285 -2.86091,0.99315 -5.74924,1.921 -8.52506,3.13986 -6.55592,2.87873 -9.40434,-3.76713 -2.84944,-6.64817 1.1011,-0.48395 2.22936,-0.89759 3.35587,-1.31568 0.52294,-1.00077 1.47788,-2.01475 2.95124,-2.87476 1.0894,-0.6359 2.16914,-1.287 3.24683,-1.94252 1.33817,-0.81396 2.56345,-1.15421 3.5972,-1.1498 z m -133.0900695,2.4753 h 5.5981075 c 7.160125,0 7.160125,7.23263 0,7.23263 H 5.1923105 c -7.1601277,0 -7.1601277,-7.23263 0,-7.23263 z m 42.9880715,50.84496 c 2.044401,-0.008 3.844292,2.25841 2.953308,6.18618 -0.283588,1.25017 -0.481169,2.51568 -0.75189,3.76877 -0.313965,1.46608 -0.73946,2.91235 -1.207162,4.33668 -2.233805,6.80278 -9.211228,4.46329 -6.857981,-2.29908 0.404762,-1.16313 0.726765,-2.36525 0.995807,-3.56619 0.287499,-1.32813 0.484814,-2.67249 0.804084,-3.99407 0.735603,-3.04497 2.473746,-4.42641 4.063834,-4.43229 z m 26.844358,9.60148 c 1.5451,0.0844 3.630816,1.85281 5.237924,5.05189 1.446292,2.8789 3.498345,5.40261 5.377447,8.00674 1.423178,1.86933 2.496352,3.93269 3.488161,6.04873 3.038795,6.48323 -3.64554,9.55837 -6.57066,3.02307 -0.764304,-1.70766 -1.644017,-3.34338 -2.782776,-4.84001 -2.279812,-3.15977 -5.466628,-6.83969 -6.494177,-10.63656 -0.141171,-0.52168 -0.167447,-1.06805 -0.251148,-1.60197 -0.554762,-3.53682 0.450099,-5.13633 1.995229,-5.05189 z m 22.433772,2.07998 v 5.3e-4 c 1.081786,0.0173 2.458693,0.64291 3.986318,2.0805 1.21595,1.14421 2.08888,2.57763 3.1502,3.85661 0.75663,0.91352 1.6619,1.66584 2.53163,2.46393 1.1475,0.93011 2.05703,2.06162 2.85305,3.29799 0.95863,1.59903 1.44035,3.34615 0.97049,5.20227 -0.10236,0.40431 -0.31771,0.77135 -0.47646,1.15703 -1.02548,2.49132 -2.04203,1.65641 -2.97036,0.0238 -2.04159,1.70549 -5.47708,1.09344 -5.78105,-3.28558 -0.003,-0.0322 -0.0142,-0.0648 -0.007,-0.0966 0.005,-0.03 0.0986,-0.0136 0.0827,-0.0393 -0.23736,-0.38486 -0.69492,-0.61714 -1.02216,-0.90227 -1.100378,-0.77725 -2.267905,-1.45106 -3.395141,-2.18798 -3.582773,-2.34245 -3.744537,-5.4822 -2.015898,-6.82284 -0.840523,-2.68156 0.04882,-4.63231 1.88154,-4.74287 0.06945,-0.004 0.140271,-0.006 0.212389,-0.005 z" /></clipPath><clipPath
       clipPathUnits="userSpaceOnUse"
       id="clipPath292"><path
         id="path293"
         style="fill:#ff0000;fill-opacity:1;fill-rule:nonzero;stroke:none;stroke-width:0.264583"
         d="M 39.169506,-337.89832 V -50.969072 H 288.46282 V -337.89832 Z m 15.676046,82.89261 c 1.714024,0.0204 3.54041,1.61061 3.978568,4.9382 0.120111,0.91222 0.106387,1.83456 0.107487,2.75229 0.0087,7.16012 -7.246413,7.15857 -7.232633,-0.002 0.0013,-0.65071 0.02757,-1.30512 -0.06356,-1.95182 -0.530767,-3.76661 1.267578,-5.76019 3.21014,-5.73712 z m 197.013298,6.80941 c 1.32993,-0.0899 2.96772,0.82319 4.38423,3.1042 1.07429,1.72993 1.55184,3.70118 1.89652,5.68338 0.39598,2.58761 0.42018,5.20011 0.26717,7.80675 -0.16631,2.61527 -0.75971,5.14416 -1.52187,7.63985 -0.4978,1.90614 -1.23662,3.72608 -2.0159,5.52989 -0.76243,1.81488 -1.37928,3.68664 -2.00143,5.55315 -0.64972,1.87676 -1.26002,3.76819 -2.01124,5.60741 -0.95415,2.1244 -1.9321,4.237 -2.90784,6.35155 -0.93622,2.10591 -1.93956,4.18102 -3.03444,6.20893 -0.74336,1.47932 -1.63431,2.88203 -2.64686,4.19044 -0.85071,1.10794 -1.91984,2.00805 -2.89078,3.00343 -1.04445,1.12516 -2.20219,2.13025 -3.34605,3.1502 -1.2349,1.05182 -2.56579,1.98944 -3.91811,2.88354 -1.93444,1.28303 -4.12655,2.08437 -6.28747,2.89285 -2.75914,1.06536 -5.6224,1.79172 -8.50439,2.42982 -2.00852,0.48359 -4.02259,0.93996 -6.05234,1.32499 -1.0898,0.20672 -1.99053,0.15992 -2.79725,0.0139 -0.75827,0.17949 -1.51301,0.3744 -2.26653,0.57309 -1.4977,0.44017 -2.97995,0.92699 -4.46019,1.42214 -1.58834,0.5581 -3.19109,1.04834 -4.83381,1.42213 -2.05853,0.5373 -4.13223,0.98734 -6.23425,1.31724 -1.89057,0.38525 -3.79586,0.65788 -5.71696,0.82837 -1.92552,0.0766 -3.83858,0.29911 -5.75676,0.47025 -1.71912,0.15432 -3.44381,0.22701 -5.16867,0.27441 -2.44184,-0.0118 -4.87127,-0.25567 -7.30085,-0.47078 -2.85973,-0.19225 -5.71909,-0.39592 -8.57157,-0.67799 -2.83995,-0.26841 -5.65359,-0.74864 -8.47907,-1.13016 -2.66463,-0.21934 -5.29981,-0.64608 -7.94267,-1.03457 -2.11987,-0.30404 -4.25541,-0.45909 -6.38152,-0.71055 -1.8808,-0.17534 -3.75496,-0.4017 -5.63118,-0.61856 -1.91243,-0.21286 -3.83573,-0.28885 -5.75779,-0.34985 -2.23949,-0.16259 -4.48445,-0.27106 -6.71949,-0.48783 -2.21917,-0.20648 -4.40762,-0.67897 -6.54068,-1.31516 -2.57048,-0.65769 -4.88262,-1.9917 -7.25382,-3.13883 -1.91366,-0.89121 -3.846978,-1.74009 -5.755724,-2.6417 -1.929913,-0.93683 -3.722034,-2.11514 -5.521108,-3.27525 -1.492637,-0.90475 -0.734285,-0.44535 -2.275314,-1.37821 -6.125257,-3.70793 -2.379728,-9.89571 3.745508,-6.18774 1.606161,0.9723 0.789586,0.47683 2.449462,1.48725 1.534261,0.98943 3.055983,2.00536 4.695836,2.81636 1.92633,0.91375 3.8825,1.76312 5.81257,2.66909 2.03397,0.98503 4.0062,2.16157 6.20944,2.72955 1.67042,0.52508 3.40555,0.86136 5.14697,1.03715 2.07333,0.21111 4.15957,0.28906 6.23683,0.4563 2.12341,0.0679 4.24789,0.15641 6.36033,0.39429 1.88182,0.21873 3.76122,0.44337 5.64772,0.62012 2.19401,0.25968 4.39889,0.41632 6.58565,0.73794 2.61501,0.3856 5.2221,0.80551 7.85895,1.02267 2.74095,0.37156 5.47017,0.83558 8.22482,1.1002 2.82609,0.28319 5.66087,0.47505 8.49405,0.67076 2.15225,0.19062 4.3024,0.40925 6.46472,0.44545 1.57684,-0.0428 3.1537,-0.10777 4.7253,-0.24857 1.92194,-0.17061 3.8389,-0.3955 5.76812,-0.4718 1.7606,-0.15093 3.50197,-0.42258 5.23482,-0.76946 1.94524,-0.29972 3.85736,-0.73584 5.76244,-1.22784 1.40538,-0.30937 2.76609,-0.74989 4.12327,-1.22421 1.62869,-0.54468 3.26081,-1.07909 4.91081,-1.5565 1.77362,-0.46766 3.552,-0.92735 5.36814,-1.20147 1.70238,-0.33298 3.38762,-0.74982 5.05034,-1.24437 1.8768,-0.51034 3.73395,-1.11665 5.54695,-1.81953 1.67544,-0.67931 3.31988,-1.45879 4.78886,-2.52439 1.0657,-0.84543 2.16725,-1.64342 3.15019,-2.58951 1.28809,-1.21508 2.58622,-2.41928 3.84008,-3.67058 0.85194,-0.84614 1.68746,-1.65828 2.24585,-2.7404 0.63482,-0.99725 1.29901,-1.9775 1.85674,-3.02152 0.55263,-0.92785 1.06197,-1.877 1.53479,-2.8484 0.43455,-0.81257 0.86675,-1.63643 1.16427,-2.50993 0.39723,-1.087 0.65435,-2.21493 0.97203,-3.32641 0.29574,-1.24569 0.60338,-2.49273 1.07901,-3.68453 0.39957,-1.05638 0.68712,-2.15558 1.05006,-3.22512 0.22713,-0.94997 0.37986,-1.92387 0.55966,-2.88303 0.22526,-1.23853 0.53664,-2.45701 1.02371,-3.62149 0.47591,-1.31864 1.08044,-2.58627 1.7048,-3.84007 0.34111,-0.58794 0.67316,-1.19257 0.96067,-1.80041 0.32682,-0.71346 -0.0659,-2.40019 0.0822,-3.22151 v -4.23178 c 0,-3.58007 1.80812,-5.37022 3.61632,-5.37022 0.15156,0 0.30168,0.0312 0.45217,0.0563 -0.0649,-0.17178 -0.10183,-0.35173 -0.18242,-0.51883 -1.94402,-4.03078 -0.58254,-6.96655 1.63401,-7.11636 z" /></clipPath></defs><g
     id="layer1"
     transform="translate(100.06367,392.39064)"><path
       style="fill:#000000"
       d="m 24.00036,-90.633135 c -5.64795,-0.278351 -7.80226,-0.625692 -13.09038,-2.11057 -6.5961603,-1.852168 -12.3639103,-4.52398 -17.7935503,-8.242565 l -2.66171,-1.82291 -1.7480097,0.51524 c -2.69784,0.79522 -14.17148,0.77781 -16.74107,-0.0254 -9.36629,-2.92772 -17.697,-14.31548 -19.94421,-27.26294 -0.64108,-3.69369 -0.72984,-11.49417 -0.17442,-15.32903 1.59787,-11.03231 6.63224,-22.366 11.72501,-26.39605 0.82127,-0.6499 2.17268,-1.36336 3.00314,-1.58547 0.83046,-0.22211 1.50992,-0.5495 1.50992,-0.72753 0,-1.63732 4.62803,-9.40969 7.3107,-12.27767 1.81674,-1.94225 6.4128,-5.14709 9.12475,-6.36271 l 1.73261,-0.77663 -1.05834,-0.26081 c -0.58208,-0.14344 -3.0427,-0.52547 -5.46805,-0.84896 -14.89145,-1.98621 -25.5223,-5.49939 -34.39583,-11.3668 -5.8324,-3.85654 -11.17003,-9.6957 -14.97312,-16.38 l -1.51762,-2.66737 -3.92546,-0.40407 c -5.02473,-0.51723 -7.47313,-1.16096 -11.01017,-2.89476 -8.935603,-4.38008 -13.93488,-12.51352 -13.96803,-22.72491 -0.0275,-8.47435 2.916328,-15.14549 8.171511,-18.51773 2.118649,-1.35954 5.509529,-2.47255 7.532799,-2.47255 h 1.46789 l 0.0744,-5.51754 c 0.20894,-15.49612 3.07006,-29.3188 8.41289,-40.6445 l 1.55655,-3.29955 -1.54548,-1.99212 c -0.85001,-1.09566 -1.86498,-2.6319 -2.25549,-3.41385 -2.53972,-5.08546 -2.54133,-11.54792 -0.004,-16.52123 0.95019,-1.86253 3.67625,-4.72587 5.27658,-5.54229 0.97299,-0.49638 1.52321,-1.1472 2.17673,-2.57466 0.48102,-1.0507 1.35978,-2.26908 1.95279,-2.70751 1.00781,-0.74511 1.07555,-0.93758 1.0376,-2.9482 -0.0689,-3.65042 1.23734,-6.66822 4.26377,-9.85063 2.46461,-2.59164 5.18453,-4.46293 9.36578,-6.44361 6.32204,-2.99477 11.32106,-3.37083 16.01967,-1.2051 2.34952,1.08296 2.48005,1.10374 3.52828,0.56168 1.65166,-0.85411 5.55443,-1.6598 7.63279,-1.57571 1.38905,0.0562 2.10899,-0.10641 2.87215,-0.64871 1.96483,-1.3962 14.8163597,-7.76558 18.6573197,-9.2468 10.86427,-4.18967 22.8650203,-6.43079 37.9236103,-7.08218 18.08329,-0.78223 30.94199,1.22406 42.8044,6.67858 3.51303,1.61535 4.81836,2.73947 4.82573,4.15582 0.005,0.88767 0.34421,1.16237 3.39965,2.75006 1.86698,0.97014 5.04862,2.83546 7.07031,4.14514 2.02169,1.30969 3.74623,2.38125 3.8323,2.38125 0.0861,0 0.1565,-0.52647 0.1565,-1.16993 0,-1.94363 0.73363,-5.31877 1.29159,-5.94209 0.70816,-0.79111 2.09954,-1.09982 2.937,-0.65163 1.1999,0.64217 1.5115,2.8093 1.08149,7.52157 -0.21318,2.33604 -0.26484,4.34629 -0.11481,4.46722 0.15003,0.12093 1.06293,0.84694 2.02866,1.61334 0.96574,0.76641 2.74298,2.31635 3.94944,3.44433 l 2.19357,2.05085 1.30243,-1.44164 c 3.34364,-3.701 9.63422,-7.77535 12.00475,-7.77535 1.6207,0 2.14567,0.43022 2.46338,2.01878 0.23681,1.18405 0.50278,0.91824 -5.01529,5.01221 -2.64162,1.95987 -7.05329,6.27497 -6.73787,6.59039 0.0745,0.0745 1.29569,-0.2592 2.71378,-0.74152 3.94679,-1.34239 7.7855,-1.94375 12.40773,-1.94375 4.56715,0 6.29434,0.43554 7.00686,1.76688 1.01316,1.89311 -0.99865,3.71936 -3.62734,3.29279 -1.70289,-0.27634 -7.52365,0.44343 -11.29714,1.39695 l -3.10482,0.78456 1.92375,2.47586 c 1.05806,1.36173 2.84242,3.97902 3.96525,5.81622 2.65896,4.35067 11.02521,21.15202 12.52509,25.15327 0.73032,1.94828 1.51839,3.41059 2.10327,3.90273 1.28197,1.07871 1.99599,2.24876 2.39075,3.91768 0.18358,0.77611 0.89816,3.63361 1.58796,6.35 0.68979,2.71639 1.50595,6.40787 1.81368,8.20329 0.74534,4.34857 1.32114,15.60344 1.02869,20.10712 -0.22021,3.39117 -0.19344,3.61599 0.43069,3.61625 1.32354,5.6e-4 4.97211,2.05818 7.02952,3.96433 3.79748,3.51827 6.10361,8.59897 6.82145,15.02849 0.92675,8.30068 -1.37496,15.32355 -6.7938,20.72897 -4.49637,4.48522 -9.70551,6.97555 -16.61213,7.94173 l -3.07367,0.42999 -0.93765,1.75585 c -2.15544,4.03628 -5.33259,8.36224 -8.34126,11.3573 -9.58352,9.54021 -22.28566,14.74727 -41.89709,17.1751 -3.44399,0.42635 -6.2618,0.87049 -6.2618,0.98697 0,0.11648 0.83344,0.62141 1.85208,1.12207 5.8398,2.87019 10.86537,8.17045 14.24492,15.0235 1.55416,3.15154 2.10781,3.96875 2.68878,3.96875 1.25742,0 4.16038,2.1544 6.145,4.56044 2.18568,2.64981 4.8318,7.8672 6.45412,12.72567 3.64212,10.90732 4.10914,21.03755 1.41495,30.69166 -0.87643,3.14051 -3.57474,8.89444 -5.49714,11.72221 -3.13428,4.61039 -8.18152,8.7968 -12.66243,10.5028 -2.96973,1.13066 -10.70151,1.4062 -15.45284,0.5507 l -3.30841,-0.59569 -2.92925,1.96066 c -5.4315,3.635509 -12.35861,6.614885 -19.71578,8.479831 -5.51543,1.39809 -15.30631,2.022355 -24.56316,1.566144 z m 14.68497,-6.10369 c 2.74452,-0.30863 4.63684,-0.720329 5.71918,-1.244279 2.07254,-1.003299 5.21544,-4.097786 6.96897,-6.861616 0.75436,-1.18899 1.37307,-1.98961 1.37491,-1.77916 0.002,0.21045 -0.63171,1.94341 -1.40789,3.85103 -0.77618,1.90761 -1.34672,3.532911 -1.26787,3.611768 0.25331,0.253305 7.49249,-2.303188 9.61878,-3.396838 4.51281,-2.32116 9.29753,-6.26858 11.56608,-9.54209 l 0.93435,-1.34828 -1.40193,-2.00132 c -0.77106,-1.10072 -1.50476,-2.61001 -1.63045,-3.35396 -0.46858,-2.77347 1.0178,-5.79849 3.75237,-7.63667 l 1.62048,-1.08929 -1.17139,-1.55655 c -2.22209,-2.95269 -2.465,-6.81164 -0.65408,-10.39086 1.1151,-2.20396 3.22473,-4.23857 4.73991,-4.57136 0.94285,-0.20708 0.97508,-0.289 0.94427,-2.40019 -0.0525,-3.59858 1.98234,-6.47443 5.54331,-7.83438 2.22023,-0.84792 5.91887,-0.58171 8.30164,0.59752 l 1.74725,0.8647 -0.19573,-1.08182 c -1.13832,-6.29163 -3.28773,-13.33672 -5.95804,-19.52862 -3.85159,-8.93105 -6.93286,-12.12534 -14.67817,-15.21656 -2.81178,-1.12221 -8.25729,-2.60442 -8.84664,-2.40797 -0.20196,0.0673 1.84458,1.03036 4.54785,2.14008 5.30544,2.17796 8.60777,4.12278 10.32875,6.08287 2.0122,2.29177 1.13987,4.47827 -2.89445,7.25498 -2.08568,1.43552 -2.30292,1.68774 -1.80768,2.09875 0.4748,0.39404 0.79244,0.34428 2.02957,-0.31799 1.9898,-1.06518 5.95593,-4.31821 6.43404,-5.27721 l 0.38835,-0.77896 0.48582,0.96913 c 0.77855,1.55307 0.7949,1.60796 0.40797,1.36882 -0.20263,-0.12523 -0.45988,-0.0283 -0.57168,0.21548 -0.11179,0.24374 -0.11713,0.0463 -0.0119,-0.43878 0.1844,-0.84971 0.17139,-0.85691 -0.35604,-0.19715 -0.70291,0.87928 -0.74282,0.57475 0.66288,5.05816 1.84816,5.89464 3.26265,13.85995 2.45438,13.82119 -0.17231,-0.008 -0.9011,-0.77779 -1.61951,-1.71005 -0.89081,-1.15595 -1.80402,-3.14259 -2.87153,-6.24677 -1.76397,-5.12941 -2.70461,-7.55038 -2.93364,-7.55038 -0.17807,0 -1.84554,0.88673 -2.4971,1.32792 -0.33172,0.22461 -0.17837,0.90918 0.63996,2.85687 0.59192,1.40881 1.54033,4.72324 2.10758,7.3654 0.99401,4.62991 1.15227,6.1661 0.41837,4.06082 -0.84294,-2.41804 -5.54597,-13.13777 -6.06687,-13.82834 l -0.57422,-0.76125 -2.70187,1.08188 c -1.48603,0.59503 -4.72,1.63499 -7.1866,2.31101 -2.4666,0.67602 -4.54508,1.28948 -4.61884,1.36323 -0.0738,0.0738 0.33874,2.01868 0.91667,4.32204 1.51023,6.01906 2.74514,12.72302 3.23391,17.55582 0.53972,5.33659 0.22742,19.98493 -0.51558,24.18319 -0.56014,3.16506 -2.62697,9.89752 -3.03849,9.89752 -0.27424,0 -0.69859,-3.53781 -0.69859,-5.82412 0,-0.81801 0.30902,-2.73941 0.68671,-4.26978 1.50395,-6.09382 1.9346,-10.76047 1.93337,-20.95054 -9e-4,-7.4185 -0.14362,-10.61455 -0.60652,-13.58195 -0.67211,-4.30853 -2.39323,-11.14229 -2.81263,-11.16767 -1.02288,-0.0619 -6.25649,0.9365 -6.25649,1.1935 0,0.17554 0.1754,0.6469 0.38977,1.04745 0.62384,1.16567 1.32606,8.12934 0.8784,8.71078 -0.28131,0.36537 -0.57602,-0.74566 -1.16132,-4.37805 -0.43139,-2.67722 -0.91896,-5.00228 -1.08348,-5.16681 -0.25146,-0.25145 -12.75137,0.64311 -13.06261,0.93484 -0.0575,0.0539 0.0616,1.4226 0.26459,3.0416 0.3807,3.0362 0.48788,5.84435 0.21254,5.56901 -0.0861,-0.0861 -0.41347,-1.81913 -0.72747,-3.85116 -0.31399,-2.03203 -0.65112,-3.97241 -0.74915,-4.31196 -0.15682,-0.5431 -0.67998,-0.61736 -4.34957,-0.61736 -4.0344,0 -4.17755,0.0261 -4.3611,0.79375 -0.10438,0.43656 -0.46172,3.81 -0.79409,7.49653 -0.5395,5.98408 -0.86088,7.70179 -1.34866,7.20842 -0.0831,-0.0841 -0.011,-2.52203 0.16027,-5.41768 0.42892,-7.25123 0.47598,-9.70174 0.1918,-9.98592 -0.22803,-0.22803 -9.48071,-1.0842 -12.23037,-1.1317 -1.11157,-0.0192 -1.35125,0.14425 -2.05964,1.40467 -0.44093,0.78453 -1.09641,1.70099 -1.45663,2.03658 -0.3602203,0.3356 -0.8267503,1.3768 -1.0367303,2.31378 -0.41295,1.84264 -1.18782,3.56165 -2.04737,4.54199 -0.66349,0.75672 -2.31087,0.80471 -3.02739,0.0882 -0.29104,-0.29104 -0.60158,-0.52917 -0.69009,-0.52917 -0.0885,0 -0.1875,5.10467 -0.21998,11.34371 -0.0456,8.76335 -0.16526,11.49534 -0.52598,12.01034 -0.41611,0.59407 -0.49091,0.60417 -0.68717,0.0927 -0.83959003,-2.18795 0.597,-29.00602 1.77265,-33.09142 0.72722,-2.52711 0.51446,-2.74837 -2.51679,-2.6174 -2.06708003,0.0893 -2.12755,0.12084 -2.88068,1.50233 -0.4231,0.77611 -1.24504,3.35151 -1.82653,5.72311 -0.5815,2.3716 -1.39917,4.79216 -1.81705,5.37902 -0.89185,1.25249 -2.20886,1.67732 -3.5871,1.15709 -0.83589,-0.31552 -0.9789097,-0.28347 -0.94022,0.21072 0.0251,0.32056 0.005,0.90034 -0.0454,1.28839 -0.0789,0.6114 -0.12707,0.58786 -0.36095,-0.17638 l -0.2699,-0.88195 -0.38514,0.88195 c -0.72853,1.66826 -0.0289,-5.9251 1.0539491,-11.43858 0.56871,-2.89574 1.10391,-5.37806 1.18934,-5.51628 0.23922,-0.38706 -0.55567,-0.88249 -2.4020391,-1.49712 l -1.68317,-0.5603 -0.80523,1.30406 c -0.79928,1.29442 -3.70528,7.74157 -4.40408,9.77072 -0.20046,0.58208 -0.377,0.86996 -0.39232,0.63974 -0.0461,-0.69214 3.06526,-8.89144 4.02671,-10.61165 0.49204,-0.88036 0.85262,-1.62765 0.80128,-1.66062 -0.0513,-0.033 -0.821,-0.47631 -1.71035,-0.98517 -1.86209,-1.06543 -4.09184,-3.39383 -4.39083,-4.58509 -0.33292,-1.32649 0.38708,-2.59205 2.36349,-4.15431 1.93815,-1.53202 7.9942791,-4.59119 11.9346191,-6.02862 3.52941,-1.28752 1.40824,-1.23426 -2.67667,0.0672 -7.6042991,2.42275 -12.1841391,5.41188 -15.1673691,9.8993 -3.12639,4.70276 -7.64836,16.26199 -9.32069,23.82591 -1.00762,4.55745 -1.01457,4.53404 0.97099,3.27457 4.58572,-2.90878 9.24552,-2.70406 12.59726,0.55346 1.99134,1.93537 2.74057,3.68538 2.59571,6.06292 l -0.11172,1.83375 1.71499,0.8026 c 4.83474,2.26259 7.0306191,8.75583 4.59141,13.57684 -0.52904,1.04562 -1.16484,2.06957 -1.4129,2.27544 -0.34384,0.28536 -0.0148,0.60148 1.38468,1.33018 1.3929091,0.72529 2.1189291,1.42018 3.0098691,2.88081 1.08061,1.77158 1.16096,2.10299 1.00839,4.15942 -0.13678,1.8435 -0.39192,2.56282 -1.4582,4.111 l -1.29242,1.87654 1.86477,2.41539 c 4.4342,5.74348 8.61417,8.78523 15.38541,11.195921 2.2591709,0.804304 9.1234009,2.684738 9.8002309,2.684738 0.13691,0 -0.48415,-0.783719 -1.38014,-1.741597 -2.04529,-2.186592 -4.35013,-5.727032 -4.81293,-7.393122 -0.39481,-1.42131 -0.49116,-5.93337 -0.11875,-5.56096 0.13122,0.13122 0.58336,1.32603 1.00475,2.65513 0.95772,3.0207 3.92123,7.97307 6.125,10.235595 1.34822,1.384166 2.03329,1.795688 3.5202,2.114571 2.68285,0.57537 4.63369,0.519279 4.63369,-0.133228 0,-0.703302 0.21437,-0.667574 1.05833,0.176389 0.5946,0.594601 1.16324,0.703134 3.61597,0.690159 1.60073,-0.0085 4.75616,-0.222956 7.01206,-0.476641 z m -8.60651,-1.064618 c -1.61472,-1.61472 -2.39584,-7.432357 -2.08747,-15.547177 l 0.21472,-5.65033 0.43131,5.89864 c 0.23722,3.24426 0.84972,7.97381 1.36113,10.51013 1.00223,4.970596 1.01485,5.72328 0.0803,4.788737 z m 25.76826,-5.220937 c 2.23669,-2.31732 2.95679,-3.24912 3.89529,-5.04046 0.62206,-1.18733 0.74177,-1.27908 0.75489,-0.57855 0.0229,1.2224 -2.06567,4.92536 -3.31586,5.87893 -0.59477,0.45365 -1.54343,1.00048 -2.10814,1.21518 -0.9211,0.35021 -0.84148,0.19843 0.77382,-1.4751 z m -15.44056,0.3394 c 10e-4,-0.24254 0.38223,-1.6316 0.84697,-3.08681 l 0.84497,-2.64583 0.0516,2.46944 0.0516,2.46945 1.05532,-1.94028 1.05533,-1.94028 -0.22236,1.41111 c -0.1223,0.77612 -0.43784,1.92705 -0.70119,2.55764 -0.41278,0.98838 -0.65163,1.14653 -1.73156,1.14653 -0.76805,0 -1.25195,-0.17061 -1.25072,-0.44097 z m 15.873,-2.4294 c 0,-0.10964 0.17428,-0.69928 0.38729,-1.31032 0.4378,-1.25587 1.20206,-1.5468 0.83334,-0.31723 -0.2216,0.73899 -1.22063,2.07106 -1.22063,1.62755 z M 1.1866597,-106.7464 c -1.34778003,-1.42122 -2.40991,-3.75144 -2.40991,-5.28711 0,-0.89926 0.0451,-0.87189 0.73914997,0.44811 0.40654,0.77324 1.29413,2.41006 1.97244003,3.63739 0.67831,1.22732 1.16881,2.29597 1.09001,2.37477 -0.0788,0.0788 -0.70507,-0.44912 -1.39169,-1.17316 z m 47.8448203,0.35925 c 0.45736,-1.87388 1.89722,-4.61782 2.62855,-5.00922 0.63037,-0.33736 0.73894,-0.29631 0.73894,0.27942 0,1.55501 -2.3497,5.69994 -3.2312,5.69994 -0.2292,0 -0.28176,-0.37412 -0.13629,-0.97014 z m -17.21589,0.10202 c -0.10933,-0.2849 -0.38861,-2.46831 -0.62062,-4.85202 -0.30355,-3.11859 -0.34578,-8.27142 -0.15061,-18.37409 0.14918,-7.72203 0.32574,-13.98556 0.39235,-13.91895 0.0666,0.0666 0.29849,2.73338 0.51531,5.92617 0.21681,3.19279 0.85794,10.47205 1.42474,16.17613 1.31354,13.21905 1.31192,13.34213 -0.1914,14.58929 -0.93343,0.77439 -1.21132,0.86638 -1.36977,0.45347 z m 31.17651,-4.10496 c 0.37636,-1.31227 0.96814,-2.08247 1.60007,-2.08247 0.98569,0 0.89119,0.81573 -0.22831,1.97076 -1.4449,1.49076 -1.77497,1.51764 -1.37176,0.11171 z m -44.10702,-5.91983 c 0,-1.99906 0.14377,-2.89835 0.51224,-3.20415 0.61819,-0.51306 1.81199,-0.19575 2.10145,0.55856 0.38549,1.00456 0.65624,4.31567 0.40576,4.96204 -0.23437,0.60476 -0.27576,0.6012 -0.7734,-0.0666 -0.4964,-0.66613 -0.55138,-0.67106 -0.98384,-0.0882 -0.93182,1.25591 -1.26221,0.69008 -1.26221,-2.16166 z m -12.7846903,0.39938 c -0.64365,-1.57036 -1.48017,-7.47581 -1.26619,-8.93869 0.19879,-1.35909 2.11214,7.21226 1.98969,8.91334 l -0.10964,1.52305 z M 66.99328,-125.96631 c 0.11699,-0.43657 0.21488,-0.99219 0.21753,-1.23473 0.003,-0.24253 0.24295,-0.44097 0.53399,-0.44097 0.61398,0 0.6881,0.80775 0.16397,1.78708 -0.50882,0.95075 -1.1783,0.8693 -0.91549,-0.11138 z m -17.89282,-3.43959 c 0.27104,-1.5436 0.82906,-2.23008 0.82906,-1.01992 0,0.48679 -0.23532,1.19323 -0.52294,1.56986 -0.4855,0.63576 -0.50741,0.59639 -0.30612,-0.54994 z m -31.31347,-3.46053 c -0.88777,-0.79322 -1.14232,-1.33907 -1.27499,-2.73403 -0.23359,-2.45617 0.73327,-3.68321 2.90225,-3.68321 1.99898,0 2.99861,1.14081 2.99861,3.42215 0,2.01518 -0.47951,2.8694 -1.95735,3.48688 -1.52562,0.63744 -1.37327,0.66552 -2.66852,-0.49179 z m 2.49679,-1.80794 c 1.04406,-1.95085 -0.32684,-3.91728 -1.74339,-2.50072 -0.8572,0.85719 -0.89172,1.36075 -0.16447,2.39903 0.67611,0.96528 1.42433,1.00516 1.90786,0.10169 z m 37.27033,-2.84541 c 0.40427,-4.10739 0.84214,-5.44348 0.65149,-1.9879 -0.0949,1.72006 -0.33109,3.38693 -0.52486,3.70416 -0.24444,0.40018 -0.28321,-0.12535 -0.12663,-1.71626 z m -46.07736,-8.58663 c 0,-2.17182 1.0252,-7.03999 1.74133,-8.2687 0.24766,-0.42493 0.3571,1.06054 0.36461,4.94908 l 0.0107,5.55625 h -1.05833 -1.05833 z m 60.55154,-0.40921 c -0.2629,-1.19882 -2.1591,-13.5372 -2.49393,-16.22777 -0.16683,-1.34054 -0.12816,-1.61504 0.1611,-1.1437 0.72861,1.18722 2.06082,8.07515 2.47103,12.77598 0.40051,4.58975 0.3354,6.75507 -0.1382,4.59549 z m -19.38255,-9.46879 c -0.0998,-0.26013 -0.0399,-0.6967 0.13324,-0.97014 0.22906,-0.36183 0.31621,-0.23308 0.32014,0.47296 0.006,1.05348 -0.16712,1.24317 -0.45338,0.49718 z m -40.46344,-4.46593 c 0,-0.2587 0.10584,-0.36454 0.23519,-0.23518 0.12935,0.12935 0.12935,0.34102 0,0.47037 -0.12935,0.12935 -0.23519,0.0235 -0.23519,-0.23519 z m -31.04444,-0.70555 c 0,-0.25871 0.10583,-0.36454 0.23519,-0.23519 0.12935,0.12935 0.12935,0.34102 0,0.47037 -0.12936,0.12935 -0.23519,0.0235 -0.23519,-0.23518 z m 31.46565,-0.88195 c -7.2e-4,-1.09421 0.89042,-4.99742 0.92624,-4.05694 0.0111,0.29104 -0.19263,1.56104 -0.4527,2.82222 -0.26006,1.26118 -0.47316,1.81681 -0.47354,1.23472 z m 35.56212,-0.17639 c 0,-0.2587 0.10584,-0.36453 0.23519,-0.23518 0.12935,0.12935 0.12935,0.34102 0,0.47037 -0.12935,0.12935 -0.23519,0.0235 -0.23519,-0.23519 z m 0.35278,-1.94027 c 0,-0.097 0.0794,-0.17639 0.17639,-0.17639 0.097,0 0.17639,0.0794 0.17639,0.17639 0,0.097 -0.0794,0.17638 -0.17639,0.17638 -0.097,0 -0.17639,-0.0794 -0.17639,-0.17638 z m -0.70556,-1.3903 c 0,-1.08092 0.20107,-1.16824 0.45491,-0.19756 0.10143,0.38787 0.0406,0.79411 -0.13525,0.90277 -0.17581,0.10866 -0.31966,-0.20869 -0.31966,-0.70521 z m -64.41562,-8.3656 c -0.15596,-0.25234 -0.0968,-0.31152 0.15557,-0.15557 0.40666,0.25133 0.54598,0.56286 0.25171,0.56286 -0.0856,0 -0.26884,-0.18328 -0.40728,-0.40729 z m -0.84826,-0.47466 c 0,-0.097 0.0794,-0.17639 0.17639,-0.17639 0.097,0 0.17639,0.0794 0.17639,0.17639 0,0.097 -0.0794,0.17639 -0.17639,0.17639 -0.097,0 -0.17639,-0.0794 -0.17639,-0.17639 z m -2.78341,-1.76316 c -1.18551,-0.87272 -2.15548,-1.76749 -2.15548,-1.98838 0,-0.22089 0.43656,0.0384 0.97014,0.57624 0.53358,0.53783 1.56545,1.37432 2.29306,1.85888 1.20583,0.80304 1.55621,1.14003 1.18533,1.14003 -0.0757,0 -1.10754,-0.71404 -2.29305,-1.58677 z m 8.75382,68.88804 c 1.9786597,-0.59002 2.2172797,-1.21983 0.57863,-1.52724 -0.69155,-0.12974 -1.26398,-0.33728 -1.27206,-0.46121 -0.008,-0.12393 -0.53404,-0.81277 -1.1688,-1.53076 l -1.15413,-1.30544 -2.21145,0.31258 c -2.4182,0.34182 -5.90969,-0.0971 -6.97622,-0.87696 -0.55912,-0.40884 -0.43088,-0.48739 1.12561,-0.6895 10.1422,-1.31694 13.9897097,-4.64541 10.56079,-9.13613 -0.68749,-0.90039 -1.71149,-1.87571 -2.27553,-2.16739 -1.28556,-0.66479 -3.99571,-0.67616 -7.3789,-0.031 -1.84163,0.35121 -2.88413,0.39466 -3.52778,0.14703 -0.85495,-0.32893 -0.72107,-0.42874 2.08499,-1.55436 7.39783,-2.96757 9.52871,-4.89725 9.51544,-8.61703 -0.008,-2.27031 -1.38255,-5.16133 -2.81267,-5.91618 -1.34232,-0.70851 -4.28694,-0.24064 -7.32781,1.16434 -1.46399,0.6764 -2.7304,1.16122 -2.81425,1.07737 -0.0839,-0.0839 0.51716,-0.8789 1.33557,-1.76677 1.59931,-1.73505 1.59418,-1.91623 -0.0305,-1.07609 -1.90681,0.98605 -1.0734,0.23776 1.57055,-1.41014 2.89925,-1.80702 3.2903,-2.50718 2.6755,-4.79038 -0.53949,-2.0035 -2.1451,-3.68155 -4.02672,-4.20837 -3.12037,-0.87365 -6.84709,0.82844 -11.65001,5.32086 l -2.41272,2.25675 0.18338,-3.52778 c 0.17996,-3.46216 1.33155,-9.30451 2.90511,-14.73856 0.46479,-1.6051 0.65706,-2.82914 0.4632,-2.94895 -0.60408,-0.37334 -2.42746,1.77674 -3.63132,4.28196 -2.92547,6.08781 -4.22225,13.5534 -3.95243,22.75416 0.1527,5.2071 0.32585,6.69829 1.10602,9.525 1.74069,6.30684 5.78191,13.42354 9.60849,16.92082 3.12521,2.85627 6.30307,4.33858 10.88264,5.0762 1.82703,0.29428 8.39648,-0.0705 10.02735,-0.55686 z m 97.21708,-0.14761 c 6.11845,-1.57105 11.11893,-6.13506 14.82547,-13.53144 4.01333,-8.00856 5.15886,-17.27851 3.36994,-27.27044 -1.58418,-8.84842 -5.09638,-17.17956 -7.24245,-17.17956 -0.84196,0 -0.68416,1.08981 1.02055,7.04814 1.95718,6.84071 2.74111,10.71622 2.60002,12.85368 l -0.10964,1.66106 -3.17153,-2.85945 c -5.0265,-4.53188 -8.86966,-5.93545 -11.44967,-4.18158 -1.70483,1.15893 -2.5652,2.7955 -2.59757,4.94106 -0.0251,1.66264 0.0754,1.88468 1.36391,3.01386 4.31361,3.78025 6.5248,5.84449 6.39721,5.97208 -0.0793,0.0793 -1.10446,-0.39867 -2.2782,-1.06211 -6.34727,-3.58769 -9.84122,-3.56038 -11.70426,0.0915 -2.67083,5.23525 0.14789,8.77728 9.41961,11.8368 1.60206,0.52865 2.83154,1.09273 2.73218,1.25349 -0.39268,0.63538 -2.95497,0.73214 -5.25599,0.1985 -4.32068,-1.00203 -6.64379,-0.57879 -8.42191,1.53439 -1.17037,1.3909 -1.79465,3.53941 -1.35749,4.67185 0.74596,1.93236 3.45545,3.41028 7.95658,4.34002 1.45132,0.29978 3.21046,0.54505 3.90919,0.54505 0.69873,0 1.1798,0.14661 1.06906,0.32581 -0.45813,0.74127 -3.93445,1.54125 -6.48671,1.49273 -2.54152,-0.0483 -2.6649,-0.0111 -4.01974,1.21294 -0.76876,0.69452 -1.85836,1.42335 -2.42134,1.6196 -2.16554,0.75491 -1.10161,1.41189 3.56251,2.19985 1.47598,0.24935 6.04781,-0.15202 8.29027,-0.72782 z m 12.87639,-24.99672 c 0,-0.097 0.0794,-0.17639 0.17639,-0.17639 0.097,0 0.17639,0.0794 0.17639,0.17639 0,0.097 -0.0794,0.17639 -0.17639,0.17639 -0.097,0 -0.17639,-0.0794 -0.17639,-0.17639 z m -95.9555503,-2.82222 c 0,-0.097 -0.0794,-0.17639 -0.17639,-0.17639 -0.097,0 -0.17639,0.0794 -0.17639,0.17639 0,0.097 0.0794,0.17639 0.17639,0.17639 0.097,0 0.17639,-0.0794 0.17639,-0.17639 z M -10.51307,-156.09941 c -0.12935,-0.12935 -0.34102,-0.12935 -0.47037,0 -0.12935,0.12935 -0.0235,0.23518 0.23519,0.23518 0.2587,0 0.36454,-0.10583 0.23518,-0.23518 z m 4.0791797,-3.73357 c 0.71709,-1.34239 0.79726,-1.9608 0.76596,-5.90902 -0.0323,-4.07254 -0.42814,-6.35 -1.10372,-6.35 -0.29534,0 -1.88309,10.05644 -1.86866,11.83569 0.008,1.02414 0.53659,1.92264 1.13044,1.92264 0.15128,0 0.63547,-0.67469 1.07598,-1.49931 z m 13.03984,0.52917 c 1.10443,-1.28594 1.09219,-1.55483 -0.38934,-8.55486 l -0.26133,-1.23472 -0.4253,1.92088 c -0.8718,3.93755 -1.12163,6.6608 -0.69662,7.59359 0.47676,1.04636 1.03569,1.13311 1.77259,0.27511 z m 3.22054,-9.00877 c 0.9442303,-1.6112 1.9851103,-2.34861 3.4141503,-2.41874 0.48506,-0.0238 2.94569,0.16184 5.46805,0.41253 5.94279,0.59064 21.1115,0.61437 26.10555,0.0408 9.08807,-1.0437 23.85989,-4.53808 26.09607,-6.17321 0.66573,-0.4868 0.65682,-0.53499 -0.34463,-1.86265 -1.69755,-2.25051 -7.43587,-7.56637 -10.6984,-9.91078 -4.06892,-2.92387 -8.96482,-5.38976 -13.81264,-6.95696 -2.18455,-0.70622 -4.01843,-1.23716 -4.07529,-1.17988 -0.31299,0.31533 -0.7933,5.41176 -0.51905,5.50751 0.17596,0.0614 0.73353,0.43703 1.23906,0.83468 2.15264,1.69327 -0.16932,3.93877 -5.10448,4.93641 -3.05692,0.61794 -10.92896,0.60479 -13.41813,-0.0224 -2.44538,-0.61618 -5.16744,-1.96651 -5.5901,-2.77307 -0.5177,-0.98795 0.11189,-2.01406 1.66563,-2.7147 1.52857,-0.6893 1.49148,-0.60501 1.99146,-4.52553 l 0.21469,-1.68351 -1.52209,0.22172 c -7.13995,1.04006 -14.7670203,4.15977 -20.83123033,8.52064 -2.70715997,1.94676 -10.00332997,9.08745 -10.79283967,10.56286 -0.38522,0.71988 -0.28723,0.81521 1.5411697,1.4993 1.07391,0.4018 2.19693,0.73055 2.49562,0.73055 0.99769,0 2.47572,1.8692 2.72862,3.45077 l 0.24083,1.50604 1.40085,-1.47259 1.40083997,-1.4726 3.12819003,0.20267 c 4.18836,0.27135 5.54062,0.85655 6.02703,2.60822 0.20634,0.7431 0.37605,1.86703 0.37714,2.49762 0.001,0.6306 0.0662,1.14653 0.14483,1.14653 0.0786,0 0.54167,-0.68051 1.0291,-1.51224 z M 44.7743,-174.66176 c -0.99157,-0.90871 -1.3027,-1.49938 -1.44233,-2.73818 -0.24897,-2.20882 0.61452,-3.25494 2.68667,-3.25494 2.14068,0 3.59074,1.47463 3.82257,3.88736 0.15129,1.57446 0.075,1.81256 -0.80177,2.50222 -1.40373,1.10418 -2.76581,0.97757 -4.26514,-0.39646 z m 2.35619,-1.32321 c 1.50602,-0.806 0.38529,-3.29945 -1.39046,-3.09355 -1.20585,0.13982 -1.37699,1.25033 -0.3867,2.50928 0.84819,1.07829 0.85183,1.07949 1.77716,0.58427 z m 29.48868,-3.83951 c 0.74166,-1.05886 0.31065,-1.98124 -1.51164,-3.23501 -1.75438,-1.20705 -5.36936,-2.90704 -7.00995,-3.29652 -0.93778,-0.22263 -0.75576,0.043 1.59795,2.33207 1.46097,1.42083 3.20689,3.31882 3.87984,4.21776 1.08927,1.45507 1.29491,1.58443 1.87396,1.17886 0.35772,-0.25057 0.88415,-0.78929 1.16984,-1.19716 z m -88.7965,-0.92124 c 1.02801,-1.26705 2.7622897,-3.11239 3.8539497,-4.10076 1.82752,-1.65459 1.90096,-1.77746 0.92652,-1.55007 -1.70287,0.39736 -6.6032397,2.81347 -7.8493097,3.87007 -0.63059,0.53471 -1.14653,1.26916 -1.14653,1.63212 0,0.59178 1.62333,2.45236 2.13966,2.45236 0.11363,0 1.04769,-1.03668 2.07571,-2.30372 z m 47.81311,-7.79687 c 0.60159,-0.23085 0.85188,-1.40494 2.6408,-12.38761 1.83968,-11.29436 1.75514,-11.04206 4.01258,-11.97508 4.77165,-1.97216 19.94305,-8.72541 23.9245,-10.64951 5.11072,-2.46985 6.46782,-3.68574 6.10583,-5.47051 -0.12255,-0.60425 -0.87761,-2.42182 -1.6779,-4.03903 -1.41864,-2.86677 -2.94969,-4.64434 -4.00027,-4.64434 -0.28609,0 -3.00033,1.3717 -6.03164,3.04821 -9.25194,5.11693 -19.29715,9.86716 -24.43308,11.55405 -3.06235,1.00582 -4.91883,1.80605 -5.21109,2.24621 -0.43913,0.66136 -0.78908,2.63453 -2.73669,15.4307 -0.50204,3.29847 -1.23464,8.01107 -1.628,10.47245 -0.95396,5.96917 -0.94567,6.00636 1.45648,6.53551 1.80205,0.39696 6.42082,0.32319 7.57848,-0.12105 z m 29.46318,-9.16152 c 10.63728,-0.95295 23.6538,-3.16986 30.86806,-5.2573 13.56237,-3.92425 23.04337,-10.33846 29.19917,-19.7542 7.45937,-11.40965 11.5108,-22.91989 13.50903,-38.37955 0.30615,-2.36861 0.64703,-8.20151 0.75751,-12.96201 l 0.20088,-8.65546 -1.45088,-0.65425 c -2.02603,-0.91362 -3.8587,-2.83892 -5.02469,-5.27867 -1.31218,-2.74564 -1.57909,-5.09113 -0.90776,-7.977 0.33369,-1.43445 0.40303,-2.33955 0.18519,-2.41723 -1.12859,-0.40244 -3.46289,-2.63326 -4.41493,-4.21921 -1.32175,-2.20183 -1.70041,-4.29496 -1.18945,-6.57495 0.51523,-2.29909 1.13175,-3.38386 2.75842,-4.85345 l 1.389,-1.25488 -1.09256,-2.77556 c -1.13913,-2.89386 -8.20319,-17.41583 -8.47175,-17.41583 -0.0846,0 -0.4759,0.54578 -0.86947,1.21283 -2.76565,4.68744 -10.46418,2.01221 -10.90313,-3.78881 -0.23817,-3.14762 2.00125,-6.25289 4.93444,-6.84227 0.53358,-0.10722 0.97014,-0.34337 0.97014,-0.52478 0,-0.69203 -3.11812,-4.39891 -9.17222,-10.90412 -0.6791,-0.7297 -2.34154,-2.30818 -3.69433,-3.50773 l -2.45961,-2.181 -0.75171,2.94919 c -2.05755,8.07235 -2.51233,8.884 -4.44165,7.92721 -1.12612,-0.55847 -1.21344,-2.25452 -0.45984,-8.93147 0.33301,-2.95051 0.5155,-5.59903 0.40553,-5.88561 -0.37666,-0.98157 -9.58077,-6.69687 -14.87757,-9.23823 -9.31723,-4.47034 -17.70437,-7.03086 -28.40137,-8.67071 -6.90965,-1.05924 -22.46555,-1.15418 -29.28055,-0.17871 -9.43977,1.35118 -17.6628903,3.42996 -24.7786603,6.26397 -4.05166,1.61367 -11.3576397,5.25154 -12.7564097,6.35181 l -0.91423,0.71913 1.03612,0.87184 c 1.32011,1.1108 3.02653,4.514 3.56816,7.11615 1.7358797,8.33975 -3.7159,18.50917 -11.85682,22.117 -1.57544,0.69819 -1.83386,0.96821 -2.2389,2.33944 -1.06443,3.60358 -3.60102,7.08414 -7.17223,9.84133 -2.57303,1.98654 -9.86958,4.58521 -12.87436,4.58521 -0.77763,0 -1.14313,0.27196 -1.66311,1.2375 -1.02623,1.9056 -4.18793,4.68216 -6.63627,5.82788 -4.07718,1.90794 -7.52902,2.1068 -11.37856,0.65552 -0.97014,-0.36575 -1.86567,-0.66507 -1.99007,-0.66517 -0.38331,-3e-4 -3.00187,6.3163 -4.31415,10.40677 -2.38265,7.42689 -3.73271,14.27986 -4.48145,22.74812 -0.56081,6.34268 -0.23877,22.51971 0.54789,27.52271 2.05211,13.05088 6.26267,24.49294 12.46259,33.86666 4.2579,6.43756 8.71353,10.54929 15.24215,14.06569 3.08682,1.66261 7.62506,3.58719 7.87333,3.33892 0.0944,-0.0944 0.0274,-0.67455 -0.14893,-1.28925 -0.17629,-0.61471 -0.32053,-2.01357 -0.32053,-3.10858 0,-1.66392 0.18831,-2.26883 1.14652,-3.68289 1.32082,-1.94917 3.90544,-3.84424 6.02807,-4.41985 1.77991,-0.48268 5.21234,-0.21074 7.04852,0.55842 1.90855,0.79947 4.38342,3.20148 5.43332,5.27336 1.65914,3.27415 0.92346,7.25163 -1.76726,9.55479 -0.7868,0.67347 -1.36343,1.27521 -1.28139,1.33719 0.82456,0.62299 25.0199897,3.9245 25.0199897,3.41402 0,-0.43063 -5.98551,-5.63904 -6.48039,-5.63904 -0.11487,0 -0.60139,0.75406 -1.08114,1.67569 -0.65201,1.25254 -0.87643,1.47706 -0.88871,0.88908 -0.009,-0.43263 0.23643,-1.41856 0.54548,-2.19094 l 0.5619,-1.40433 -1.50608,-1.78613 c -0.89763,-1.06453 -1.37405,-1.90936 -1.17927,-2.09116 0.60022,-0.56022 3.62334,0.65052 5.07691,2.03327 l 1.40918,1.34052 0.57048,-1.96237 c 0.96291997,-3.31233 1.85068997,-4.70031 4.58709,-7.17165 l 1.43905,-1.29967 -1.713,3.43541 c -0.94215,1.88947 -1.81495003,4.06364 -1.93955003,4.83149 l -0.22656,1.3961 1.67621003,-1.47546 c 1.57988,-1.39066 4.58956,-2.89073 4.99214,-2.48815 0.10095,0.10095 -0.85628,1.18206 -2.1272,2.40246 -2.51778,2.41769 -4.26878003,5.4049 -3.83339,6.53976 0.14295,0.37261 0.71522,1.35215 1.27171,2.17677 0.99799,1.47885 1.04006,1.49931 3.08369,1.49931 1.54967,0 2.84455,-0.3115 5.1373703,-1.23583 2.87006,-1.15706 6.59324,-2.04458 10.44665,-2.49025 l 1.65451,-0.19136 0.36764,-1.83364 c 0.2022,-1.00851 1.00875,-5.72302 1.79234,-10.4767 0.78359,-4.75368 1.59624,-9.07188 1.80589,-9.596 0.48095,-1.20237 1.29153,-1.72988 4.37161,-2.84494 7.66736,-2.77578 21.69099,-9.00681 21.69099,-9.63782 0,-0.1416 -0.61763,-1.06587 -1.37252,-2.05393 -4.48711,-5.87312 -7.75132,-13.51592 -9.10594,-21.32062 -0.85296,-4.91435 -0.85829,-16.47126 -0.009,-20.40735 2.13696,-9.90869 7.1191,-18.74474 14.58608,-25.86908 11.53059,-11.00147 27.57577,-15.37252 42.61967,-11.61049 3.02388,0.75618 10.03964,4.01696 13.23394,6.15087 l 1.91987,1.28254 1.07874,-1.24692 c 1.32055,-1.52643 2.6894,-1.92115 3.90354,-1.12562 1.21194,0.79409 1.20159,2.7167 -0.0233,4.32257 l -0.90263,1.18341 2.57231,2.83498 c 5.15022,5.67612 8.38592,10.98986 10.62132,17.44257 1.82363,5.26412 2.19998,7.92161 2.14825,15.16945 -0.0874,12.2442 -2.98229,22.59894 -8.65234,30.94846 l -1.38279,2.03625 h 1.28937 c 1.02738,0 1.56766,0.2783 2.65898,1.36961 1.26817,1.26818 1.3696,1.51742 1.3696,3.36545 0,4.00038 -2.60228,6.90661 -6.1843,6.90661 -2.26502,0 -4.42358,-2.82875 -4.22415,-5.53568 0.0478,-0.64883 -0.27484,-0.47788 -2.08764,1.10614 -4.00434,3.49895 -10.08293,7.02293 -14.84418,8.60572 -4.33311,1.44046 -7.31244,1.88239 -13.93472,2.06699 -5.63251,0.15701 -7.14394,0.0772 -11.03526,-0.58259 l -4.50888,-0.76452 -2.80959,1.08349 c -1.54527,0.59592 -5.86628,2.52707 -9.60223,4.29145 -3.73596,1.76437 -8.59605,3.97837 -10.80021,4.92 -5.77247,2.46602 -5.48443,2.18219 -5.9782,5.89076 -0.63355,4.75851 -0.7334,4.46536 1.69166,4.96625 2.3225,0.47971 6.47349,2.21718 6.88402,2.88144 0.28701,0.46439 3.03302,0.34678 13.22813,-0.56656 z m 9.94834,-5.50289 c -0.48049,-0.48049 -0.57781,-2.04611 -0.12718,-2.04611 0.16288,0 0.47698,0.39687 0.69799,0.88194 0.27751,0.60907 0.68349,0.88195 1.31217,0.88195 0.51705,0 0.81613,0.1524 0.69229,0.35277 -0.30313,0.49048 -2.06244,0.44228 -2.57527,-0.0705 z m -10.38487,-1.89279 c -1.85392,-1.00592 -2.6454,-4.06077 -1.48233,-5.72129 1.79918,-2.56868 5.70615,-2.29602 7.02844,0.49051 0.7293,1.53687 0.67386,2.29742 -0.26947,3.69723 -1.35921,2.01693 -3.3301,2.58973 -5.27664,1.53355 z m 3.1882,-1.98777 c 1.07801,-1.078 0.19547,-3.45722 -1.28241,-3.45722 -1.26961,0 -1.82203,0.58827 -1.82203,1.94028 0,1.33444 0.55076,1.94028 1.76389,1.94028 0.50447,0 1.10772,-0.1905 1.34055,-0.42334 z m 23.93773,-0.57458 c -0.73341,-0.81041 -0.76619,-3.27062 -0.0617,-4.6329 1.65857,-3.20733 5.95559,-3.3207 6.74438,-0.17793 0.33287,1.32628 -0.1291,3.13968 -1.0101,3.96494 -1.65037,1.54597 -4.63607,1.99119 -5.67256,0.84589 z m 4.56682,-1.03596 c 0.54342,-0.36285 1.19934,-1.68255 1.19934,-2.41307 0,-0.96842 -1.07427,-1.90305 -2.18738,-1.90305 -1.19664,0 -2.75151,1.38641 -2.75151,2.45341 0,1.52382 2.43247,2.73547 3.73955,1.86271 z m 12.24647,-4.47969 c -1.44636,-0.62907 -2.22769,-2.16885 -2.22769,-4.39017 0,-1.56671 0.15346,-1.92787 1.35649,-3.19252 0.92023,-0.96736 1.68606,-1.44361 2.38125,-1.48083 2.94953,-0.15792 4.13553,0.47954 5.14719,2.76657 1.21066,2.73689 0.15834,4.9609 -2.96457,6.26541 -1.58733,0.66307 -2.22806,0.66854 -3.69267,0.0315 z m 4.31473,-2.11345 c 1.09707,-1.09706 1.17431,-3.05903 0.16036,-4.07298 -1.60465,-1.60465 -4.58611,-0.28406 -4.58611,2.03134 0,2.60375 2.64396,3.82343 4.42575,2.04164 z m -160.7719,-1.20661 c -2.88344,-2.57635 0.20121,-6.82918 3.73653,-5.15156 1.57317,0.74652 2.26264,2.4994 1.60633,4.08387 -0.9468,2.28577 -3.42527,2.78105 -5.34286,1.06769 z m 3.51489,-0.24054 c 0.93721,-0.65645 1.03351,-2.11823 0.2002,-3.03903 -0.66276,-0.73234 -2.58356,-0.8644 -3.22615,-0.2218 -0.74779,0.74778 -0.49387,2.29219 0.50618,3.07884 1.11333,0.87574 1.49041,0.90297 2.51977,0.18199 z m 14.89516,-3.22375 c -5.3531,-0.57328 -11.91541,-2.46272 -16.00769,-4.60899 -3.5628,-1.86857 -8.90255,-5.93604 -11.2715,-8.58589 -5.18549,-5.80036 -8.41143,-11.32561 -10.79335,-18.48637 -1.8746,-5.63561 -2.50758,-9.42088 -2.74316,-16.40416 -0.23031,-6.82715 0.11317,-9.56387 1.85373,-14.76973 3.5791,-10.70481 12.38606,-21.02694 23.54417,-27.59478 1.36109,-0.80116 1.99128,-1.38046 1.88492,-1.73271 -0.0879,-0.29104 -0.52572,-1.50343 -0.97296,-2.69419 -0.68564,-1.82549 -0.74679,-2.31068 -0.38994,-3.09389 0.56807,-1.24678 1.97168,-1.76519 3.19847,-1.18133 0.75159,0.3577 2.61877,3.14168 3.30833,4.93272 0.0543,0.14101 1.46364,-0.11956 3.1319,-0.57902 8.88495,-2.44709 18.22296,-2.00885 25.7876697,1.21022 9.79102997,4.16646 18.46048,12.91306 23.6010703,23.8111 3.58588,7.60207 4.90444,13.34704 4.90444,21.36863 0,9.38873 -1.46229,16.4489 -4.9471,23.88529 -5.3730703,11.46582 -15.50731033,19.8847 -27.88031,23.16116 -5.12435,1.35697 -11.36145,1.88104 -16.20869,1.36194 z m 12.46819,-4.71502 c 16.08910967,-3.26355 28.68115,-15.89272 31.85621,-31.95013 0.81595,-4.12655 0.83142,-12.17969 0.0318,-16.54102 -2.16886,-11.82916 -9.3538703,-23.28315 -18.3394403,-29.23588 -6.47169,-4.28734 -12.6936197,-6.02191 -20.7250797,-5.77779 -5.94968,0.18084 -9.19577,1.02207 -14.68257,3.80501 -10.71457,5.43448 -17.48358,12.02683 -22.34882,21.76556 -4.80899,9.62611 -5.55683,21.36986 -2.01697,31.67358 1.97453,5.74741 5.22327,11.04282 9.3439,15.23043 5.89322,5.98902 12.99492,9.70119 21.41419,11.19351 4.36508,0.77372 11.20341,0.70153 15.4668,-0.16327 z m -14.40847,-10.22661 c -13.18474,-1.76381 -24.05818,-11.06018 -27.91582,-23.86693 -1.24247,-4.12481 -1.33159,-10.78172 -0.20044,-14.97193 2.11533,-7.83604 7.69954,-14.11772 14.68743,-16.52191 l 2.03701,-0.70083 -2.2997,2.43779 c -3.89026,4.12389 -5.49937,8.69163 -4.80045,13.62691 0.6503,4.59199 3.16765,7.88812 7.56022,9.8991 1.65305,0.7568 2.76216,0.98172 5.48817,1.11299 12.60425,0.60693 22.77316,-8.52541 21.1185,-18.96578 -0.48835,-3.08131 -1.69568,-5.61257 -3.69809,-7.7533 -1.50699,-1.61109 -5.24311,-3.89822 -6.36791,-3.89822 -0.2486,0 -0.56561,-0.18383 -0.70447,-0.4085 -0.18878,-0.30546 0.89613,-0.35555 4.30071,-0.19857 9.36449,0.43179 17.1251897,4.10712 22.88432967,10.83762 2.09763003,2.45143 5.24314003,8.88957 6.03253003,12.34722 0.86284,3.77933 0.78314,9.91671 -0.17637,13.58195 -2.36045,9.01672 -8.98173,16.80777 -17.6084797,20.71933 -5.43702,2.46526 -13.8469,3.59131 -20.33717,2.72306 z m 52.70757,3.78958 c -3.04191,-1.59229 -4.89616,-5.8892 -3.20271,-7.42174 1.05297,-0.95293 1.75331,-0.6843 3.09889,1.18865 2.24285,3.12188 3.55866,3.26798 6.27714,0.69695 1.53584,-1.45254 2.0919,-1.76389 3.15015,-1.76389 1.04723,0 1.64562,0.32649 3.23284,1.76389 2.86516,2.59469 3.28583,2.49323 6.8497,-1.65219 0.80282,-0.93382 1.9459,-0.74526 2.7292,0.45022 1.16451,1.77726 -0.73947,5.09972 -3.79502,6.62237 -3.03235,1.51108 -5.45715,1.18473 -7.75081,-1.04319 l -1.26137,-1.22522 -1.35386,1.27686 c -0.74462,0.70227 -1.73515,1.42182 -2.20117,1.599 -1.54644,0.58795 -4.13095,0.36782 -5.77298,-0.49171 z m 2.53472,-15.20285 c -1.23,-1.30929 -1.3393,-3.31234 -0.30318,-5.55615 1.54758,-3.3514 4.19425,-5.21566 7.42569,-5.2305 4.25272,-0.0195 8.08953,3.68025 8.16148,7.87003 0.0257,1.49679 -0.11092,1.82948 -1.12282,2.73402 -2.15456,1.92597 -4.02999,1.21677 -5.73992,-2.17058 -0.58061,-1.15017 -1.20983,-2.09122 -1.39827,-2.09122 -0.18844,0 -0.81766,0.94105 -1.39826,2.09122 -0.58061,1.15017 -1.41197,2.3408 -1.84747,2.64583 -1.1842,0.82946 -2.84388,0.70086 -3.77725,-0.29265 z m 98.42445,-68.08669 c -1.62833,-1.73328 -1.68817,-4.98071 -0.11459,-6.21848 1.22412,-0.9629 1.98847,-0.87072 3.02845,0.36523 1.48351,1.76305 1.55287,5.5121 0.11884,6.42393 -0.83333,0.52988 -2.24905,0.26348 -3.0327,-0.57068 z m 2.92884,-0.7685 c 0.81073,-2.11275 -0.46405,-5.32869 -1.79224,-4.52133 -0.86613,0.52648 -1.0479,3.08515 -0.30025,4.22622 0.63459,0.9685 1.7725,1.12898 2.09249,0.29511 z m -75.10214,-0.95715 c -2.26615,-2.26615 -1.49652,-5.00817 1.69363,-6.03406 0.88101,-0.28332 2.85684,0.6034 3.55015,1.59323 0.98489,1.40613 0.74095,2.91522 -0.67172,4.15556 -0.68585,0.60218 -1.46662,1.09488 -1.73504,1.09488 -0.26842,0 -0.73835,0.096 -1.04428,0.21345 -0.3546,0.13607 -1.00446,-0.23478 -1.79274,-1.02306 z m 3.45224,-2.13755 c 0.27174,-0.82057 0.20285,-1.13748 -0.3723,-1.71263 -1.39669,-1.39669 -3.17801,0.3625 -2.20605,2.17863 0.60215,1.12512 2.14371,0.84651 2.57835,-0.466 z m 62.51542,0.47772 c -0.11992,-0.19403 -0.0499,-0.35278 0.15557,-0.35278 0.20548,0 0.3736,0.15875 0.3736,0.35278 0,0.19402 -0.07,0.35277 -0.15557,0.35277 -0.0856,0 -0.25369,-0.15875 -0.3736,-0.35277 z m -1.5875,-0.1332 c 0,-0.0732 0.27781,-0.35107 0.61736,-0.61736 0.55953,-0.43881 0.572,-0.42633 0.13319,0.13319 -0.46085,0.58764 -0.75055,0.77452 -0.75055,0.48417 z m 0.70555,-1.4543 c 0,-0.097 0.0794,-0.17639 0.17639,-0.17639 0.097,0 0.17639,0.0794 0.17639,0.17639 0,0.097 -0.0794,0.17638 -0.17639,0.17638 -0.097,0 -0.17639,-0.0794 -0.17639,-0.17638 z m 1.05834,0 c 0,-0.097 0.0794,-0.17639 0.17639,-0.17639 0.097,0 0.17639,0.0794 0.17639,0.17639 0,0.097 -0.0794,0.17638 -0.17639,0.17638 -0.097,0 -0.17639,-0.0794 -0.17639,-0.17638 z m -129.71548,-10.81558 c -1.20858,-0.60521 -2.02708,-2.64512 -1.65274,-4.11901 0.86157,-3.39217 6.0006697,-3.50455 6.9620897,-0.15225 0.75051,2.61685 -2.8418997,5.50686 -5.3093497,4.27126 z m 2.03065,-2.06081 c 0.17369,0 0.56886,-0.38623 0.87817,-0.85829 0.42124,-0.64289 0.47035,-1.03023 0.19569,-1.54343 -0.75844,-1.41717 -3.02423,-1.11206 -3.41889,0.46038 -0.26416,1.05252 0.73547,2.4378 1.53716,2.13017 0.27064,-0.10386 0.63419,-0.18883 0.80787,-0.18883 z m 103.1057,-2.72388 c -1.14713,-0.20995 -2.53773,-1.78195 -2.7965,-3.16131 -0.3408,-1.81662 0.23863,-3.33394 1.63422,-4.2795 2.19644,-1.48814 5.05094,-0.37531 5.91883,2.30749 0.39111,1.20898 0.38208,1.62014 -0.0587,2.67515 -0.75646,1.81046 -2.69489,2.82476 -4.69782,2.45817 z m 2.15254,-2.4166 c 1.23969,-1.23969 0.34033,-3.67897 -1.35643,-3.67897 -1.92351,0 -2.4659,2.54039 -0.79262,3.7124 0.94981,0.66527 1.45826,0.65737 2.14905,-0.0334 z m -95.8898203,-6.88511 c -1.96054,-1.54217 -2.52146,-4.19093 -1.39168,-6.57177 2.075,-4.37274 9.28865,-2.8929 9.28865,1.90551 0,1.86698 -0.6497,3.23252 -2.13106,4.47899 -1.44525,1.2161 -4.33850003,1.31006 -5.76591,0.18727 z m 3.68318,-1.7432 c 0.83935,-0.44921 1.74435,-2.14154 1.74435,-3.26192 0,-0.46088 -0.39061,-1.20493 -0.86803,-1.65344 -0.70838,-0.66549 -1.11388,-0.77609 -2.20486003,-0.60139 -1.68273997,0.26947 -2.57155997,1.33099 -2.57155997,3.07124 0,2.12106 2.07509997,3.42222 3.9001,2.44551 z m 102.7786803,-0.87768 c -0.44656,-0.68154 -0.52637,-1.30693 -0.3431,-2.68855 0.23196,-1.74856 0.21547,-1.7948 -0.57273,-1.60539 -2.92114,0.70194 -3.4574,0.69557 -3.4574,-0.0411 0,-0.39357 0.31431,-1.44883 0.69847,-2.34504 0.69538,-1.62226 0.7028,-1.62722 1.6757,-1.1211 1.94372,1.01116 2.55425,2.03397 2.75915,4.62234 0.22284,2.81481 0.56708,3.60805 1.65688,3.81789 0.49617,0.0955 0.3008,0.17102 -0.52026,0.20102 -1.04526,0.0382 -1.43408,-0.13402 -1.89671,-0.84009 z m 3.38788,0.35897 c 0,-0.097 0.0794,-0.17639 0.17639,-0.17639 0.097,0 0.17639,0.0794 0.17639,0.17639 0,0.097 -0.0794,0.17639 -0.17639,0.17639 -0.097,0 -0.17639,-0.0794 -0.17639,-0.17639 z m 0.35278,-1.05833 c 0,-0.097 0.0794,-0.17639 0.17639,-0.17639 0.097,0 0.17639,0.0794 0.17639,0.17639 0,0.097 -0.0794,0.17638 -0.17639,0.17638 -0.097,0 -0.17639,-0.0794 -0.17639,-0.17638 z m -63.89466,-1.16183 c -2.75088,-1.43708 -3.95544,-3.30651 -4.13086,-6.41098 -0.24455,-4.32793 1.87566,-7.49167 5.83254,-8.70324 3.16603,-0.96941 7.40515,0.42263 9.10383,2.9895 2.16606,3.27314 1.9375,7.2211 -0.58388,10.08555 -2.77402,3.15145 -6.62274,3.91925 -10.22163,2.03917 z m 5.57517,-1.85923 c 2.26371,-0.85529 3.99172,-3.28904 3.99172,-5.622 0,-1.8547 -0.72755,-3.23956 -2.35342,-4.47968 -1.12385,-0.8572 -1.61208,-0.98837 -3.67867,-0.98837 -2.84531,0 -3.96562,0.65152 -5.16861,3.00581 -0.96978,1.89791 -1.00122,3.14413 -0.12252,4.85754 1.55392,3.0301 4.46308,4.31047 7.3315,3.2267 z m 40.15144,0.0476 c -1.86479,-0.45002 -2.57049,-1.03899 -3.19064,-2.66281 -0.80324,-2.10328 -0.54235,-4.66684 0.56631,-5.56458 1.0497,-0.84999 1.33558,-0.49052 1.77377,2.23036 0.30923,1.92013 1.44822,5.2543 1.80086,5.27164 0.0594,0.003 0.74303,0.23408 1.51914,0.51368 l 1.41111,0.50837 -1.41111,-0.0206 c -0.77611,-0.0113 -1.88736,-0.13556 -2.46944,-0.27604 z M 1.7753597,-365.18742 c -1.93442003,-0.89489 -2.76451003,-2.14437 -2.90771,-4.37675 -0.22559,-3.51687 1.89875997,-5.72398 5.51177,-5.72649 1.77196,-10e-4 2.00121,0.1014 3.43958,1.53976 1.40729,1.4073 1.54108,1.69372 1.54108,3.29922 0,1.9219 -0.85765,3.55017 -2.51734,4.77925 -1.18926,0.8807 -3.69386,1.12042 -5.06738,0.48501 z m 3.18486,-2.41213 c 1.0658,-0.48561 1.93042,-1.95523 1.93042,-3.28122 0,-1.31134 -1.46556,-2.64732 -2.90408,-2.64732 -2.44301,0 -3.88899003,2.13725 -2.95628,4.36954 0.7393,1.76941 2.19807,2.3481 3.92994,1.559 z m 63.1091203,0.81457 c -1.31203,-0.80007 -2.26482,-2.67497 -2.26482,-4.45668 0,-1.05263 0.27001,-1.58111 1.36961,-2.68071 1.15275,-1.15275 1.60238,-1.36961 2.83974,-1.36961 2.89648,0 4.68748,1.81668 4.75395,4.82212 0.0374,1.69002 -0.98032,3.06269 -2.86655,3.8664 -1.53539,0.65422 -2.5394,0.60666 -3.83193,-0.18152 z m 3.88879,-2.58827 c 0.74853,-1.06869 0.68935,-2.11759 -0.18199,-3.22532 -1.43388,-1.82288 -3.85495,-0.80645 -3.85495,1.61842 0,2.11209 2.8801,3.25851 4.03694,1.6069 z m -37.37444,-0.25501 c -2.08975,-0.85531 -2.78076,-3.66417 -1.36719,-5.55749 2.08153,-2.78798 6.12969,-1.20099 6.12969,2.40301 0,1.43718 -0.52318,2.31722 -1.75683,2.95517 -1.13238,0.58557 -1.93234,0.63862 -3.00567,0.19931 z m 2.52663,-2.81915 c 0.82096,-1.65535 -1.02458,-3.16233 -2.37552,-1.93974 -0.77015,0.69697 -0.84879,1.29614 -0.30377,2.31451 0.52358,0.97832 2.1189,0.75517 2.67929,-0.37477 z m 46.1567,2.09432 c -0.11992,-0.19403 -0.0499,-0.35278 0.15557,-0.35278 0.20548,0 0.37359,0.15875 0.37359,0.35278 0,0.19403 -0.07,0.35278 -0.15556,0.35278 -0.0856,0 -0.25369,-0.15875 -0.3736,-0.35278 z M -26.158,-203.21848 c 2.85726,-1.57616 3.95947,-5.27319 2.44716,-8.20824 -1.47953,-2.87145 -3.65118,-4.05695 -7.4317,-4.05695 -3.1654,0 -5.17961,0.99817 -6.38372,3.16353 -2.01927,3.6313 0.17349,8.53357 4.429,9.90176 1.63934,0.52706 5.29812,0.1052 6.93926,-0.8001 z m 121.01362,-20.95535 c 7.97228,-1.50445 16.3,-6.16079 22.07176,-12.34114 9.29091,-9.94861 13.26346,-23.23691 11.14613,-37.28409 -2.44648,-16.23078 -15.19361,-30.8259 -30.4571,-34.87257 -3.5003,-0.928 -11.81491,-1.27491 -15.97552,-0.66655 -8.19082,1.19765 -17.09423,5.79344 -23.2447,11.99851 -6.71481,6.77441 -11.71879,15.96981 -13.44458,24.70601 -0.25228,1.27705 -0.44203,4.55953 -0.42827,7.40833 0.0219,4.52205 0.15024,5.59753 1.10706,9.27364 1.70063,6.53389 5.84113,14.4269 9.35423,17.83193 l 1.19745,1.16061 2.78275,-1.6689 c 1.53051,-0.91789 2.83279,-1.70544 2.89396,-1.75009 0.0612,-0.0447 -1.52633,-1.72448 -3.52778,-3.73294 -3.81786,-3.83125 -5.21716,-5.86355 -7.17347,-10.41854 -1.80104,-4.19347 -2.41068,-7.84472 -2.19383,-13.13926 0.3094,-7.55403 2.0637,-11.69117 7.13538,-16.82723 2.64973,-2.68337 3.67831,-3.4581 6.17765,-4.65303 5.0242,-2.40207 5.33821,-2.30979 2.35108,0.69096 -4.93785,4.96035 -6.34534,10.66429 -4.10743,16.64562 1.38688,3.70678 5.36714,6.80048 9.8302,7.64063 8.85971,1.66781 18.71195,-2.77841 22.29809,-10.0629 1.04194,-2.11647 1.19788,-2.80591 1.31948,-5.83348 0.14965,-3.72588 -0.37577,-6.05993 -1.90001,-8.44035 -1.29428,-2.02129 -3.7336,-4.14145 -5.80252,-5.04331 -1.06715,-0.46519 -2.33715,-1.01812 -2.82222,-1.22875 -1.40161,-0.60862 4.2328,-0.53773 7.88522,0.0992 11.27962,1.967 20.57711,10.34413 23.34781,21.03661 2.19382,8.46624 0.79456,17.49388 -3.769,24.31648 -6.57476,9.82936 -17.92596,15.36496 -30.08973,14.67374 -2.14538,-0.12191 -4.53569,-0.32969 -5.3118,-0.46172 -1.22586,-0.20855 -1.35413,-0.17082 -0.97706,0.28734 0.82002,0.9964 2.21178,5.25163 2.21178,6.76242 0,0.83161 -0.23308,1.82017 -0.51795,2.19681 -0.76502,1.01145 -0.6949,1.10675 1.13531,1.54294 4.70861,1.12218 12.02311,1.18617 17.49763,0.15307 z m 32.24403,-5.40944 c 1.1281,-1.66878 1.06975,-3.66997 -0.1397,-4.79085 -1.27671,-1.18321 -2.73711,-1.12936 -4.01451,0.14803 -1.33168,1.33168 -1.63373,2.64712 -1.01578,4.42373 0.92235,2.65172 3.45304,2.75896 5.16999,0.21909 z m -203.57397,-6.7476 c -1.03463,-2.79508 -2.08943,-5.8379 -2.344,-6.76183 -0.52523,-1.90627 -0.77248,-1.85256 -2.51541,0.54639 -1.18823,1.63547 -1.44151,1.33783 -0.8367,-0.98319 0.25281,-0.97014 0.35264,-1.87515 0.22185,-2.01114 -0.13078,-0.13599 -0.87264,-0.10469 -1.64859,0.0695 -1.58807,0.3566 -3.70385,2.3696 -3.70385,3.52391 0,0.39091 -0.1794,0.71074 -0.39866,0.71074 -0.72416,0 -0.10727,-3.08401 0.87432,-4.37093 1.0168,-1.3331 3.39358,-2.33185 5.54922,-2.33185 h 1.31309 l -0.65424,-2.54347 c -0.35983,-1.39891 -0.75917,-3.38329 -0.88741,-4.40972 -0.24756,-1.98136 -0.58606,-2.22429 -2.02715,-1.4548 -0.42381,0.22629 -1.19144,0.86129 -1.70585,1.41111 -1.11435,1.19104 -1.4917,1.27183 -1.16736,0.24992 0.18134,-0.57135 0.12405,-0.68282 -0.24081,-0.46852 -1.03812,0.60975 0.96174,-1.32082 2.09155,-2.01908 0.99918,-0.61753 1.25896,-0.66089 1.51711,-0.2532 0.24194,0.38208 0.31824,0.33437 0.34169,-0.21363 l 0.0302,-0.70555 0.28402,0.70555 c 0.26355,0.65468 0.29356,0.64197 0.41618,-0.17639 0.0727,-0.48507 -0.0129,-2.19512 -0.19017,-3.80013 -0.36346,-3.29074 -0.62521,-3.52879 -3.46165,-3.14835 -5.122434,0.68706 -9.160168,8.15774 -8.62583,15.95963 0.549049,8.01669 5.72968,14.22823 13.83108,16.58337 1.81447,0.52748 5.45754,1.18044 5.72639,1.02636 0.0507,-0.029 -0.7544,-2.33968 -1.78902,-5.13475 z m -12.59059,-14.25418 c 0,-0.097 0.0794,-0.17639 0.17639,-0.17639 0.097,0 0.17639,0.0794 0.17639,0.17639 0,0.097 -0.0794,0.17639 -0.17639,0.17639 -0.097,0 -0.17639,-0.0794 -0.17639,-0.17639 z m 0.70555,-0.70556 c 0,-0.097 0.0794,-0.17639 0.17639,-0.17639 0.097,0 0.17639,0.0794 0.17639,0.17639 0,0.097 -0.0794,0.17639 -0.17639,0.17639 -0.097,0 -0.17639,-0.0794 -0.17639,-0.17639 z m 0.35278,-1.41111 c 0,-0.097 0.0794,-0.17639 0.17639,-0.17639 0.097,0 0.17639,0.0794 0.17639,0.17639 0,0.097 -0.0794,0.17639 -0.17639,0.17639 -0.097,0 -0.17639,-0.0794 -0.17639,-0.17639 z m 0.90463,-0.2798 c 0.13248,-0.34791 0.32974,-0.54371 0.43835,-0.43509 0.10862,0.10862 2.2e-4,0.39327 -0.24087,0.63258 -0.34841,0.34581 -0.38893,0.30529 -0.19748,-0.19749 z m -0.37546,-1.3077 c 0.11991,-0.19403 0.28803,-0.35278 0.3736,-0.35278 0.0856,0 0.15556,0.15875 0.15556,0.35278 0,0.19403 -0.16811,0.35278 -0.37359,0.35278 -0.20548,0 -0.27549,-0.15875 -0.15557,-0.35278 z m 227.89442,22.32369 c 6.57652,-2.04389 11.49575,-7.33509 13.08406,-14.07337 1.01916,-4.32375 0.22826,-11.0599 -1.74475,-14.86014 -0.97342,-1.87492 -2.7028,-3.61217 -4.50485,-4.52533 -2.59632,-1.31566 -2.63897,-1.28392 -3.18588,2.37079 l -0.48336,3.23007 1.98933,1.98934 c 1.09414,1.09413 2.32665,2.65052 2.73892,3.45864 0.78877,1.54613 1.03163,2.9008 0.29612,1.65173 -1.06609,-1.81045 -2.45067,-3.27573 -2.92378,-3.09418 -0.29804,0.11437 -0.50331,-0.0227 -0.50331,-0.33603 0,-0.29104 -0.26058,-0.62916 -0.57906,-0.75138 -0.48418,-0.18579 -0.506,-0.13417 -0.13319,0.31504 0.28263,0.34055 0.30731,0.53724 0.0674,0.53724 -0.20814,0 -0.51484,-0.24373 -0.68155,-0.54163 -0.2131,-0.38079 -0.44171,0.16918 -0.76986,1.85209 -0.25671,1.31654 -0.73681,3.27522 -1.06689,4.35262 l -0.60014,1.95892 1.76105,0.41833 c 2.96155,0.70349 4.08279,1.83375 4.62251,4.65967 l 0.23582,1.23472 -0.71867,-0.88194 c -1.82323,-2.23746 -2.75381,-2.82222 -4.4912,-2.82222 -0.70995,0 -0.84691,0.12858 -0.65754,0.61736 0.13155,0.33955 0.32194,1.41111 0.42308,2.38125 l 0.18389,1.76389 -0.7644,-1.47793 c -1.23316,-2.38425 -1.6621,-2.53632 -2.12405,-0.75302 -0.21733,0.83897 -1.0347,3.50977 -1.81638,5.93511 -0.78168,2.42535 -1.55949,4.85233 -1.72848,5.39328 -0.30506,0.9766 -0.29796,0.98201 1.00201,0.76442 0.72009,-0.12053 2.10299,-0.46583 3.07313,-0.76734 z m 2.64584,-18.9723 c 0,-0.097 0.0794,-0.17639 0.17639,-0.17639 0.097,0 0.17638,0.0794 0.17638,0.17639 0,0.097 -0.0794,0.17639 -0.17638,0.17639 -0.097,0 -0.17639,-0.0794 -0.17639,-0.17639 z m 5.99722,-0.70556 c 0,-0.097 0.0794,-0.17639 0.17639,-0.17639 0.097,0 0.17639,0.0794 0.17639,0.17639 0,0.097 -0.0794,0.17639 -0.17639,0.17639 -0.097,0 -0.17639,-0.0794 -0.17639,-0.17639 z m -2.46945,-9.87777 c 0,-0.097 0.0794,-0.17639 0.17639,-0.17639 0.097,0 0.17639,0.0794 0.17639,0.17639 0,0.097 -0.0794,0.17639 -0.17639,0.17639 -0.097,0 -0.17639,-0.0794 -0.17639,-0.17639 z m -231.77498,5.29166 c 0,-0.097 -0.0794,-0.17639 -0.17639,-0.17639 -0.097,0 -0.17638,0.0794 -0.17638,0.17639 0,0.097 0.0794,0.17639 0.17638,0.17639 0.097,0 0.17639,-0.0794 0.17639,-0.17639 z m 224.6384,-36.24791 c -0.0901,-3.15295 -0.3449,-6.17431 -0.56616,-6.71412 -0.39409,-0.96144 -0.42394,-0.9703 -1.4616,-0.4337 -2.16404,1.11906 -3.24979,4.90623 -2.32177,8.09848 0.61314,2.10913 2.78641,4.78198 3.88819,4.78198 0.5795,0 0.61323,-0.41912 0.46134,-5.73264 z m -2.91214,-10.23394 0.92672,-0.79714 -0.41015,-3.17161 c -0.22558,-1.74439 -0.56715,-3.5925 -0.75903,-4.10691 -0.45662,-1.22414 -1.639,-2.30406 -2.85239,-2.60523 -1.38918,-0.3448 -3.59488,1.8722 -3.94921,3.96944 -0.84118,4.97889 3.85568,9.45397 7.04406,6.71145 z m -3.87022,-6.91428 c -0.47578,-1.49903 0.94038,-2.47021 1.90579,-1.30697 0.31209,0.37605 0.32002,0.69427 0.0308,1.23472 -0.48511,0.90644 -1.65792,0.9502 -1.93657,0.0722 z m -187.81773,-10.68913 c 3.14303,-1.46741 6.2978,-5.14333 6.2978,-7.33818 0,-0.71741 0.8429,-1.0008 1.21001,-0.40682 0.77735,1.25778 6.26743,0.41146 10.31978,-1.59084 8.14839,-4.0262 11.21129,-12.50597 7.05636,-19.53583 -1.15567,-1.95533 -3.77251,-4.90226 -5.88443,-6.62672 -2.2672,-1.85125 -1.61532,-1.79757 2.46772,0.20319 4.4448,2.17803 7.12327,5.35137 8.28657,9.81755 0.28714,1.10245 0.58914,2.07149 0.67109,2.15344 0.34678,0.34679 2.51358,-1.14585 4.81497,-3.31686 1.92921,-1.81992 2.79732,-2.99009 3.96213,-5.34078 1.46986,-2.96631 1.49163,-3.06469 1.49163,-6.741 0,-3.14607 -0.12713,-4.00721 -0.81116,-5.49466 -1.10398,-2.40063 -2.92096,-4.16759 -5.45494,-5.30478 -1.88363,-0.84532 -2.44292,-0.93489 -4.98338,-0.79812 -3.39085,0.18257 -6.12136,1.27432 -9.68523,3.87252 -1.26953,0.92554 -2.38525,1.60579 -2.47937,1.51167 -0.0941,-0.0941 0.17577,-0.78834 0.59975,-1.54271 0.42399,-0.75438 0.68537,-1.59444 0.58085,-1.86681 -0.66906,-1.74355 -5.60043,-2.56727 -9.16528,-1.53094 l -2.06531,0.6004 2.09176,0.84041 c 2.59803,1.04381 4.17528,2.75632 4.75172,5.15918 0.803,3.34731 -0.2814,6.94575 -2.842,9.43072 -1.61888,1.57107 -5.10047,3.42613 -7.03548,3.74863 -1.5565,0.25942 -2.09096,0.71526 -2.88481,2.46039 -0.45146,0.99246 -0.64839,2.30074 -0.66377,4.40972 -0.0215,2.9427 -0.0323,2.97933 -0.5817,1.9645 -0.79623,-1.4708 -0.80368,-6.01506 -0.0123,-7.50323 0.33021,-0.62096 0.60039,-1.20311 0.60039,-1.29368 0,-0.0906 -0.80169,-0.33661 -1.78152,-0.54675 -0.97983,-0.21013 -2.24195,-0.62016 -2.8047,-0.91117 -1.63777,-0.84693 -2.99634,-0.66433 -4.4313,0.59559 -2.32807,2.04406 -2.40255,3.70737 -0.2177,4.86143 l 1.29772,0.68546 -1.25889,0.0156 c -5.6574,0.0701 -9.60543,4.48335 -9.63936,10.77531 -0.0338,6.27546 3.06139,12.2524 7.54686,14.57312 2.18716,1.13161 2.43968,1.18074 5.46805,1.06385 2.51899,-0.0972 3.58669,-0.31475 5.16748,-1.05279 z m 34.8728,-45.98139 c 0,-0.097 0.0794,-0.17639 0.17639,-0.17639 0.097,0 0.17639,0.0794 0.17639,0.17639 0,0.097 -0.0794,0.17638 -0.17639,0.17638 -0.097,0 -0.17639,-0.0794 -0.17639,-0.17638 z m -0.52917,-0.80221 c -0.19403,-0.14424 -0.74965,-0.72836 -1.23472,-1.29806 l -0.88194,-1.03582 1.4993,1.15671 c 0.82462,0.6362 1.49931,1.22275 1.49931,1.30346 0,0.23195 -0.49546,0.161 -0.88195,-0.12629 z m 139.5236,31.71057 c 1.36847,-0.98281 1.99954,-3.15433 1.44986,-4.98897 -0.65242,-2.17762 -1.78858,-3.16552 -3.63868,-3.16391 -2.15735,0.002 -3.67846,1.02824 -4.15685,2.80481 -1.15836,4.30184 2.96439,7.77646 6.34567,5.34807 z m -169.4685,-18.07769 c 4.15414,-1.55426 6.86847,-4.74874 7.10353,-8.36007 0.16333,-2.50935 -0.65582,-4.14627 -2.5727,-5.14104 -5.30062,-2.75077 -14.70741,3.59513 -14.7368,9.94159 -0.006,1.23528 0.20459,1.72834 1.15585,2.70979 1.99654,2.05991 5.0495,2.34655 9.05012,0.84973 z"
       id="path294" /></g></svg>
