<?xml version="1.0" encoding="UTF-8" standalone="no"?>
<!-- Created with Inkscape (http://www.inkscape.org/) -->

<svg
   width="315.8501mm"
   height="306.5441mm"
   viewBox="0 0 315.85012 306.54407"
   version="1.1"
   id="svg1"
   xml:space="preserve"
   xmlns="http://www.w3.org/2000/svg"
   xmlns:svg="http://www.w3.org/2000/svg"><defs
     id="defs1"><clipPath
       clipPathUnits="userSpaceOnUse"
       id="clipPath6"><path
         id="path7"
         style="fill:#ff0000;fill-opacity:1;fill-rule:nonzero;stroke:none;stroke-width:0.264583"
         d="M -175.07778,-16.057127 V 287.55793 H 124.54631 V -16.057127 Z m 132.7459,202.572647 c 0.210643,0.005 0.427212,0.0169 0.650089,0.0367 2.23823,0.19855 4.475655,0.4031 6.717938,0.55346 1.973313,0.11308 0.986628,0.0436 2.958475,0.20825 3.181295,0.26563 4.740125,1.85116 4.950601,3.46956 4.949923,1.63749 3.796379,7.35609 -2.592089,6.81354 -3.228716,-0.27422 -1.569593,-0.1301 -4.979024,-0.43357 -4.228209,-0.39317 -8.460616,-0.76265 -12.666927,-1.35341 -6.647387,-0.93358 -5.930551,-7.21034 0.03204,-7.20421 0.04685,5e-5 0.0972,0.004 0.144695,0.005 0.687229,-1.21692 2.304132,-2.15435 4.784204,-2.09548 z" /></clipPath><clipPath
       clipPathUnits="userSpaceOnUse"
       id="clipPath76"><path
         id="path77"
         style="fill:#ff0000;fill-opacity:1;fill-rule:nonzero;stroke:none;stroke-width:0.264583"
         d="M -133.83107,-122.52355 V 173.82063 H 122.97289 V -122.52355 Z M 13.574404,98.948202 c 2.788179,0.0507 4.135003,2.063798 3.398242,4.077268 0.199805,0.45372 0.374906,0.96736 0.517797,1.54461 1.07913,4.35948 0.671079,8.891 0.311608,13.31495 -0.351859,3.06036 -0.147137,1.57974 -0.604097,4.44366 -0.359666,2.25418 -1.333846,3.66838 -2.455664,4.32532 0.105138,0.36595 0.224724,0.72888 0.324528,1.09554 0.6273,2.23652 0.575201,4.47401 0.39429,6.75514 -0.137303,1.73129 -0.688065,2.99533 -1.427303,3.82199 -0.112477,0.41601 -0.170275,0.80219 -0.311092,1.25212 -0.184975,0.59102 -0.413327,1.1061 -0.670242,1.55856 0.741137,-0.23134 1.446982,-0.38145 2.064991,-0.37517 4.085002,0.0415 5.222724,4.75435 -0.02223,7.27138 -4.46677,2.14368 -9.303523,3.34693 -14.11903492,4.40955 -4.40876268,0.85156 -8.89238128,1.33053 -13.38264308,1.19269 -5.804014,-0.17807 -6.736297,-5.00293 -3.065447,-6.67298 -2.072987,-0.65744 -4.042852,-1.62261 -4.128947,-3.14709 -0.02802,-0.49633 0.0026,-0.90355 0.0341,-1.30897 -1.976731,-0.003 -3.95339,2.4e-4 -5.930386,0.003 -0.814031,0 -1.53062,-0.0962 -2.159559,-0.26149 -0.376306,0.19492 -0.742394,0.40783 -1.120862,0.59893 -6.391272,3.22657 -9.625245,-3.24074 -3.234428,-6.46886 1.833438,-0.92611 3.62694,-1.92211 5.414142,-2.92954 -0.877003,-3.87058 -1.368747,-7.83436 -1.323951,-11.80858 0.01651,-1.46304 0.376836,-2.54918 0.864547,-3.41426 -1.247357,-1.79999 -0.223805,-4.63069 3.842661,-5.68855 3.11826,-0.81116 6.282901,-1.39515 9.473837,-1.82211 -1.259816,-0.12657 -2.516182,-0.30233 -3.764627,-0.50177 -1.477002,-0.21985 -2.935575,-0.54305 -4.407482,-0.7891 -1.14214,-0.22954 -0.588502,-0.12004 -1.660882,-0.3297 -3.350244,-0.65501 -4.783278,-2.61088 -4.608504,-4.32997 -0.200179,-1.7721 1.333365,-3.52972 4.663799,-3.59461 v -5.3e-4 c 0.20954,-0.004 0.426035,-0.002 0.649571,0.008 1.77111,0.0772 3.528708,0.28204 5.26428,0.64027 1.655035,0.33225 3.314115,0.6481 4.955251,1.04439 1.244759,0.34858 2.51628,0.54538 3.7997689,0.6723 0.025956,0.002 0.052073,0.002 0.078034,0.004 0.4990888,-0.0371 0.9984105,-0.0743 1.4965495,-0.11317 1.346872,-0.12588 2.6913231,-0.25136 4.0457464,-0.24236 1.1278499,-0.0444 2.2567291,-0.10772 3.37498791,-0.26872 0.75719517,-0.11591 1.51142439,-0.25483 2.25722659,-0.4284 0.3616431,-0.12394 0.7240561,-0.24538 1.083138,-0.37775 0.3360393,-0.12388 0.6107589,-0.12825 0.9250071,-0.20723 0.1281086,-0.045 0.2583895,-0.0825 0.3855085,-0.13074 1.9825018,-0.7681 3.9540551,-1.56464 5.9510551,-2.29443 1.050809,-0.383992 1.999634,-0.542639 2.826703,-0.527616 z M 0.70283723,110.39557 c -0.45566013,0.0949 -0.90775367,0.208 -1.36890919,0.2744 -1.16638124,0.15534 -2.34111274,0.24237 -3.51761424,0.26251 0.4031694,0.0896 0.8047355,0.18876 1.2025101,0.308 0.1014836,0.0304 0.1982549,0.075 0.2986907,0.10852 0.4205235,-0.21824 0.9206601,-0.35072 1.4898318,-0.37156 0.39885139,-0.0146 0.83259872,0.0278 1.29449508,0.13023 0.22468681,-0.12213 0.44967525,-0.24374 0.67437529,-0.36587 -0.0326284,-0.11319 -0.058211,-0.22834 -0.0733795,-0.34623 z m 10.24433577,1.02474 c -0.76023,0.21437 -1.5189569,0.4343 -2.2696301,0.68006 -0.031261,0.62207 -0.2256075,1.28373 -0.6464723,1.94355 0.6236891,0.43248 1.2549743,1.04482 1.8634525,1.86862 0.2674939,0.36214 0.4748849,0.75712 0.7188199,1.13223 0.154519,-1.86707 0.314174,-3.74736 0.33383,-5.62446 z m 64.566086,3.39773 c 1.50346,0.0187 3.129182,1.24994 3.928441,4.04678 0.257931,0.90255 0.823497,1.65871 1.488797,2.30735 0.856321,0.95375 1.845738,1.76777 2.801898,2.61638 1.458581,1.46408 2.789203,3.04608 4.169772,4.58215 1.315059,1.44746 2.571226,2.91698 3.543967,4.61884 0.0053,0.01 0.0082,0.0206 0.01344,0.0305 0.734605,-0.43313 1.446276,-0.65634 2.094962,-0.69195 3.016182,-0.16561 4.69137,3.55377 1.187525,7.32306 -1.69471,1.82311 -3.657862,3.33908 -5.68751,4.7651 -0.777873,0.49914 -1.607691,0.90075 -2.418456,1.33842 0.165478,1.44344 -0.672182,3.24303 -2.956409,4.73096 -1.354556,0.88234 -2.690448,1.79306 -4.075203,2.6288 -2.075008,1.20078 -4.233777,2.27962 -6.540687,2.96259 -2.077586,0.62971 -4.169056,1.29987 -6.359301,1.36374 -1.872114,0.0897 -3.746989,0.0368 -5.620845,0.0501 h -5.1108 -5.524728 c -7.160125,0 -7.160125,-7.23315 0,-7.23315 h 1.347722 c 0.29438,-0.0541 0.5212,-0.1588 0.84801,-0.18656 1.106628,-0.094 2.200932,-0.28334 3.292822,-0.48421 0.456121,-0.98163 1.356053,-1.98213 2.807581,-2.83962 1.078018,-0.63685 2.158119,-1.26923 3.212209,-1.94561 1.962647,-1.29302 3.840588,-2.72135 5.893696,-3.86902 1.367169,-0.76424 2.559646,-1.07097 3.526915,-1.04128 2.216811,0.068 3.246223,1.90266 2.479953,4.04059 1.105688,-0.48686 2.206929,-0.98346 3.283003,-1.53739 2.619811,-1.23728 5.288743,-2.38548 7.764385,-3.9026 0.246153,-0.17184 0.487463,-0.34958 0.730705,-0.52503 -0.126915,-0.50614 -0.277693,-0.9939 -0.512114,-1.46554 -0.647621,-1.25778 -1.721077,-2.20654 -2.600875,-3.29644 -1.199229,-1.33472 -2.369312,-2.69496 -3.592029,-4.00803 -1.098706,-0.97599 -2.227236,-1.92181 -3.215306,-3.01428 -1.300821,-1.39063 -2.459913,-2.93896 -3.045293,-4.77801 -1.289469,-4.05101 0.646382,-6.61405 2.843754,-6.58667 z m -95.086705,4.28035 c -0.465643,0.10748 -0.930899,0.21773 -1.394745,0.33435 0.171958,0.64334 0.283575,1.36624 0.279569,2.2071 -0.01267,2.6582 0.205063,5.32647 0.670242,7.94732 0.280107,-0.17087 0.565767,-0.33222 0.845429,-0.50385 -0.01897,-0.36223 -0.02445,-0.73164 -0.05529,-1.08985 -0.118034,-2.96491 -0.160888,-5.93314 -0.3452,-8.89507 z m 18.5141159,1.1958 c 0.00497,0.0773 0.00619,0.15612 0.014975,0.23202 -0.1238779,0.22787 -0.2588048,0.44752 -0.3937741,0.66715 0.58900751,0.0447 1.13203305,0.21413 1.64331124,0.45888 -0.37615284,-0.49255 -0.78353709,-0.94642 -1.26452314,-1.35805 z m -6.5422357,14.57068 c -0.046649,0.0755 -0.09888,0.14702 -0.1436608,0.22376 -0.03147,0.054 0.1963367,0.0838 0.1860365,0.0222 -0.017595,-0.10481 -0.026035,-0.14905 -0.042376,-0.24597 z m 13.9236979,6.08439 c -0.2236258,0.5643 -0.5677508,1.09664 -1.1782213,1.50533 0.9079653,0.17659 1.7077452,0.44257 2.2830631,0.84852 0.1405493,-0.0459 0.272804,-0.11448 0.4128956,-0.16174 -0.7336976,-0.43656 -1.2984269,-1.18703 -1.5177374,-2.19211 z" /></clipPath><clipPath
       clipPathUnits="userSpaceOnUse"
       id="clipPath127"><path
         id="path128"
         style="fill:#ff0000;fill-opacity:1;fill-rule:nonzero;stroke:none;stroke-width:0.264583"
         d="M -112.24796,-126.55676 V 185.58027 H 148.5754 V -126.55676 Z M 46.874626,83.305366 c 1.808208,0 3.616317,1.790192 3.616317,5.370214 v 5.232238 c 0.0627,2.146078 -0.111291,4.285324 -0.245462,6.424932 -0.136289,2.02485 -0.190703,4.04985 -0.104904,6.07715 0.192061,1.91863 0.527714,3.82569 0.876432,5.72213 0.304242,2.00862 0.765826,3.9858 1.180806,5.97276 0.41642,1.86142 0.967934,3.68703 1.421104,5.53972 0.25287,0.86996 0.117097,0.46495 0.396356,1.22008 0.186108,0.50319 0.223428,0.93098 0.309544,1.38441 4.425355,2.23251 2.751262,7.58433 -3.415813,6.40477 -3.104732,-0.59371 -6.256094,-0.76586 -9.40821,-0.85576 -3.81635,0.009 -7.630525,0.17062 -11.44478,0.28216 -1.12776,0.0333 -2.255837,0.0512 -3.383772,0.0754 -0.908129,0.5548 -1.966518,0.57724 -2.88613,0.0641 -0.03584,5.3e-4 -0.07165,0.002 -0.107487,0.003 -0.03142,5.3e-4 -0.0525,-0.009 -0.08268,-0.009 -0.32049,0.14732 -0.641715,0.29301 -0.962215,0.44028 -0.262501,0.12062 -0.518089,0.22111 -0.770496,0.31265 -0.876996,0.71434 -1.945576,0.85817 -2.911967,0.46405 -2.943479,-0.21613 -4.295167,-2.77187 -2.550232,-5.0524 -2.22e-4,-0.028 -0.0078,-0.0483 -0.0078,-0.0765 v -6.3469 c -0.014,-2.72977 -0.02254,-5.45666 0.112657,-8.18348 0.135676,-2.32533 0.233519,-4.6523 0.299723,-6.98046 0.046,-1.80459 0.06926,-3.60958 0.08527,-5.41465 -0.0258,-1.02998 0.04009,-2.054459 0.138491,-3.078883 0.0044,-0.04602 0.02191,-0.07504 0.02687,-0.120406 C 15.992671,97.193438 15.83363,95.70984 16.656834,94.418959 10.68718,93.678613 10.992573,87.32947 17.739972,87.32947 h 3.885033 5.177462 5.913334 c 1.498505,0.05847 2.984222,-0.03228 4.475178,-0.161748 1.252041,-0.18606 2.49041,-0.398671 3.697968,-0.782897 1.001961,-0.32245 0.492366,-0.161472 1.527553,-0.482142 0.510384,-0.158096 0.938446,-0.174371 1.394749,-0.23771 0.672338,-1.56932 1.86623,-2.35903 3.063377,-2.35903 z" /></clipPath><clipPath
       clipPathUnits="userSpaceOnUse"
       id="clipPath139"><path
         id="path140"
         style="fill:#ff0000;fill-opacity:1;fill-rule:nonzero;stroke:none;stroke-width:0.264583"
         d="M 97.168006,-339.91235 V -44.578961 H 346.46958 V -339.91235 Z m 14.326254,94.53944 c 1.76488,0.006 3.77708,1.78446 4.35839,5.31699 0.32911,1.99994 0.60308,4.00817 0.88884,6.01462 1.02527,-1.2445 2.22305,-1.83589 3.28403,-1.8402 2.05627,-0.008 3.59454,2.17302 2.34611,6.00222 -0.0197,0.0606 -0.0413,0.12046 -0.0615,0.18087 0.31698,0.91799 0.41757,2.09982 0.17777,3.54139 -0.2164,1.30085 -0.62011,2.56457 -1.0263,3.8163 -1.34183,4.13496 -4.42238,4.92072 -6.12882,3.38016 -1.93867,0.62007 -4.30523,-0.86149 -4.65605,-4.82762 -0.16862,-1.90632 -0.33891,-3.81275 -0.57464,-5.71231 -0.45291,-3.52522 -1.07719,-7.02592 -1.48208,-10.55543 -0.40801,-3.55672 1.10935,-5.32303 2.87424,-5.31699 z" /></clipPath><clipPath
       clipPathUnits="userSpaceOnUse"
       id="clipPath170"><path
         id="path171"
         style="fill:#ff0000;fill-opacity:1;fill-rule:nonzero;stroke:none;stroke-width:0.264583"
         d="M 88.756261,-299.52331 V 17.880567 H 410.91541 V -299.52331 Z M 363.24287,-220.863 c 0.90345,-0.008 1.97628,0.23856 3.18532,0.82218 3.39402,1.63831 6.49674,3.81197 9.57823,5.96449 3.22509,2.31448 6.37511,4.73585 9.43663,7.26261 1.87296,1.50796 3.75989,2.99047 5.54284,4.6054 1.76167,1.54167 3.42262,3.17283 4.95419,4.94388 1.19316,1.48882 2.47049,2.9032 3.73311,4.33204 1.08043,1.20022 2.09423,2.45631 2.94299,3.83026 0.82616,1.73429 1.48968,3.55524 1.93786,5.42344 1.67031,6.96258 -5.76469,8.62686 -7.05745,1.5844 -0.21127,-1.15093 -0.75649,-2.20765 -1.10278,-3.32021 -0.52141,-1.02678 -1.43909,-1.82952 -2.14042,-2.72904 -1.28368,-1.45272 -2.58234,-2.89095 -3.79617,-4.40386 -1.32794,-1.55409 -2.79577,-2.95456 -4.33049,-4.3031 -1.69875,-1.54267 -3.51006,-2.94207 -5.29113,-4.38733 -2.90883,-2.40671 -5.90918,-4.70386 -8.97258,-6.91017 -2.63017,-1.83963 -5.2759,-3.68008 -8.12096,-5.17746 -5.14813,-2.7095 -4.41412,-7.50431 -0.49919,-7.53753 z m -17.79788,14.64304 c 0.81097,-0.004 1.74701,0.16947 2.79104,0.57154 4.59168,1.76834 8.99191,4.00303 13.38523,6.20892 0.37082,0.1876 0.72266,0.4088 1.09088,0.601 0.4155,-0.11565 0.91038,-0.17484 1.48572,-0.16691 0.65984,0.009 1.42523,0.10601 2.29753,0.30644 2.35556,0.54125 4.30075,1.95473 6.16344,3.42614 -1.07651,-2.72314 0.34142,-4.84679 2.57866,-4.84311 1.28683,0.002 2.83083,0.70484 4.29689,2.3952 2.44776,2.82227 4.79147,5.70892 6.96391,8.74934 1.67944,2.35043 1.72027,4.43615 0.89969,5.70663 1.5344,1.02281 3.07247,2.04019 4.58422,3.09645 1.80695,1.14136 3.31928,2.58833 4.72631,4.18269 0.96689,1.16625 2.0869,2.25988 2.79262,3.61942 0.19542,0.37651 0.34592,0.77482 0.51882,1.1622 0.40259,1.55462 0.27207,0.76263 0.38706,2.3766 0.0637,0.89436 -0.044,1.45412 -0.26977,1.7756 0.11753,0.20753 0.23421,0.41574 0.35608,0.62063 3.66003,6.15399 -2.6856,9.845 -6.25234,3.63648 -0.83209,-1.44832 -1.62388,-2.92102 -2.35437,-4.42351 -0.84839,-1.84687 -1.70402,-3.69055 -2.54093,-5.54229 -0.078,-0.17246 -0.14713,-0.34128 -0.2119,-0.5085 -0.415,-0.33988 -0.82071,-0.68775 -1.29707,-0.97255 -2.35545,-1.64933 -4.79565,-3.17384 -7.14841,-4.82761 -3.27895,-2.27743 -6.61384,-4.47194 -9.95804,-6.65231 -4.00886,-2.60003 -8.08797,-5.09434 -12.3548,-7.25434 -4.08429,-2.05175 -8.1752,-4.1242 -12.42663,-5.81101 -5.61546,-2.22804 -4.88331,-7.4129 -0.50384,-7.43314 z m -225.34594,21.50101 c 3.05551,-0.16929 4.03285,3.80875 0.35915,7.72563 -1.17612,1.25397 -2.32696,2.59265 -3.45922,3.90674 -1.44062,1.57315 -2.77631,3.23874 -4.13618,4.88135 -1.14319,1.4697 -2.29319,2.93265 -3.46335,4.38113 -0.8717,1.2084 -1.86054,2.32105 -2.81017,3.46594 -0.80685,0.95022 -1.53489,1.96075 -2.32234,2.92695 -0.80594,1.00684 -1.52017,2.08004 -2.22519,3.15847 -0.20511,0.28103 -0.29499,0.51935 -0.30179,0.78909 -0.18033,7.15787 -8.659963,5.5717 -7.093102,-1.4149 0.267098,-1.19094 0.644303,-2.32859 1.347721,-3.34243 0.846108,-1.28566 1.701136,-2.56663 2.670121,-3.76463 0.806525,-0.98525 1.5446,-2.0236 2.37453,-2.98999 0.93132,-1.109 1.88214,-2.2008 2.7342,-3.37448 1.18855,-1.47082 2.35327,-2.95822 3.51813,-4.44779 1.39067,-1.67946 2.758,-3.38112 4.2292,-4.99142 1.55862,-1.80675 3.07205,-3.68494 4.92528,-5.20227 1.38505,-1.13397 2.63451,-1.65096 3.65301,-1.70739 z m 30.4953,3.26389 c 4.11093,0.0973 5.25218,4.81763 -0.0434,7.22591 -1.93926,0.8819 -3.80509,1.88928 -5.66115,2.92437 0.381,1.39299 -0.23993,3.26566 -2.43035,4.98678 -2.3369,1.83618 -4.71607,3.61825 -7.08845,5.40845 -2.84267,2.19936 -5.66068,4.43162 -8.41086,6.74584 -2.22216,1.84972 -4.46469,3.67225 -6.66213,5.55109 -1.67979,1.46598 -3.37138,2.91821 -5.06067,4.37337 -1.40892,1.30469 -2.82191,2.592 -4.12274,4.00648 -1.07181,1.16531 -2.16701,1.83049 -3.17087,2.10529 -0.88357,6.53411 -7.65001,5.87099 -7.10344,-1.07177 0.0596,-0.75732 0.12015,-1.51435 0.21239,-2.26859 0.18237,-1.4495 0.31176,-2.90657 0.57051,-4.34444 0.56059,-2.2771 1.55106,-4.35314 3.32124,-5.95312 1.46716,-1.38711 2.94871,-2.75912 4.4943,-4.05919 1.45063,-1.21601 2.91967,-2.40825 4.4111,-3.57394 2.2284,-1.75259 4.48249,-3.46927 6.81044,-5.08961 3.1083,-2.16601 6.29001,-4.21936 9.5343,-6.17689 3.28252,-2.04598 6.49796,-4.19789 9.78648,-6.23476 2.38673,-1.38679 4.82146,-2.65715 7.33495,-3.79873 1.22236,-0.55516 2.32966,-0.77899 3.27836,-0.75654 z" /></clipPath><clipPath
       clipPathUnits="userSpaceOnUse"
       id="clipPath233"><path
         id="path234"
         style="fill:#ff0000;fill-opacity:1;fill-rule:nonzero;stroke:none;stroke-width:0.264583"
         d="M 185.24069,-319.24193 V -24.289387 H 425.09684 V -319.24193 Z m 138.35487,149.6534 c 1.78419,7.9e-4 3.63037,1.79012 3.80182,5.36608 0.0643,1.33996 -0.0719,2.65433 -0.29041,3.95842 0.27255,-0.0735 0.56767,-0.11689 0.88522,-0.12351 0.37047,-0.008 0.77026,0.0328 1.19579,0.12867 0.38629,-0.24279 0.8215,-0.42195 1.34254,-0.44493 1.13073,-0.0499 2.53823,0.47335 4.04474,1.80971 0.4186,0.37135 0.80759,0.77178 1.2056,1.16323 0.49581,-0.30652 1.09744,-0.47283 1.77559,-0.44028 1.18851,0.0571 2.59295,0.69888 3.98788,2.15129 2.63375,2.74227 4.82211,5.85047 6.92256,9.00669 2.43144,3.88376 4.79634,7.81591 6.98098,11.84475 1.13959,2.01485 2.36363,3.97199 3.24527,6.11746 0.86638,2.54168 0.71525,4.37292 -0.15348,6.88278 -0.88855,2.03627 -2.18951,3.83746 -3.64937,5.49682 -1.22616,1.21887 -2.44396,2.51198 -3.976,3.35587 -0.38219,0.21053 -0.79187,0.3659 -1.18803,0.54881 -6.50071,3.00135 -9.83602,-5.23462 -2.81948,-6.6611 1.07346,-0.21823 1.75532,-1.41088 2.56987,-2.0407 0.86323,-0.96375 1.62015,-2.00233 2.25208,-3.13417 0.24334,-0.63932 0.47847,-1.05078 0.24958,-1.76114 -0.42873,-1.13152 -1.03555,-2.17502 -1.65674,-3.21169 -0.64492,3.08426 -3.96214,3.78517 -6.03631,0.97152 -0.80928,1.85722 -3.53859,2.62684 -6.75775,0.30902 -0.53872,-0.38787 -1.07831,-0.77486 -1.61745,-1.1622 -3.08248,4.62545 -3.94671,5.04673 -6.74584,2.87063 -2.73204,-2.16473 -5.33615,-4.48821 -8.05999,-6.6642 -2.7461,-2.45053 -5.40757,-5.07957 -7.04763,-8.42635 -1.62115,-0.12575 -3.24178,-0.2569 -4.86637,-0.34314 -7.58719,-0.44787 -15.17743,-0.9445 -22.76553,-1.33377 -1.07801,-0.0553 -1.93227,-0.3045 -2.68459,-0.62166 -0.57677,0.62929 -1.1192,1.29485 -1.64021,1.97352 -1.38696,2.1585 -2.2854,4.54313 -3.09181,6.96185 -0.53658,1.90527 -0.93866,3.84574 -1.3658,5.77949 0.3976,-0.38181 0.79402,-0.76498 1.19114,-1.14825 1.44902,-1.39846 2.84121,-1.97983 3.98373,-1.97766 2.91995,0.006 4.20899,3.82009 0.64648,7.53391 -0.92629,0.96557 -1.9114,1.86859 -2.9099,2.75797 -1.78302,1.58814 -3.50499,2.03887 -4.81263,1.76372 -0.007,0.0412 -0.0189,0.0812 -0.0253,0.12247 -0.31138,2.1774 -0.34632,4.38158 -0.39739,6.57686 0.006,3.5147 -0.15426,7.02208 -0.44287,10.52391 -0.15049,2.45352 -0.52882,4.882887 -0.77928,7.326166 -0.25682,2.270699 -0.2357,4.548968 -0.1633,6.828007 0.0525,1.43787 0.0261,0.723201 0.0775,2.145088 7.9e-4,0.02175 -0.006,0.03573 -0.006,0.05736 0.13966,0.0486 0.27673,0.09115 0.42013,0.148309 3.73047,1.486969 7.59999,2.598727 11.41894,3.833876 4.85884,1.705695 9.66861,3.546912 14.50144,5.32474 1.9552,0.651698 3.84707,1.443672 5.71489,2.292366 2.6308,-0.638411 5.26049,-1.281708 7.89771,-1.893425 4.5737,-1.075436 2.35597,-0.547624 6.65438,-1.580782 0.65268,-0.156879 1.2592,-0.237268 1.81642,-0.252698 3.40876,-0.09437 4.96226,2.238663 4.05712,4.350639 3.89832,1.612736 3.00805,6.568553 -2.90269,6.729304 l -2.19726,0.05943 c 0.0932,0.05532 0.18872,0.106439 0.28112,0.163298 6.09814,3.752323 2.1299,10.065517 -3.84782,6.124173 -1.04591,-0.689594 -2.23735,-1.127543 -3.31556,-1.763197 -2.61015,-1.251701 -5.22853,-2.484003 -7.87136,-3.665926 -0.34703,-0.170111 -0.69536,-0.335955 -1.04283,-0.504362 -1.04394,0.228952 -2.09238,0.441277 -3.15071,0.537951 -0.41145,0.100483 -0.82417,0.195434 -1.23558,0.296105 -3.95687,0.968251 -6.08679,-0.907356 -5.97897,-3.010669 -0.31188,-0.687727 -0.239,-1.395294 0.0263,-2.059305 -3.87146,-1.438614 -7.73769,-2.891312 -11.63237,-4.265891 -3.97417,-1.285444 -7.99945,-2.446282 -11.87938,-4.000272 -1.44639,-0.579335 -2.44377,-1.350957 -3.06182,-2.17506 -1.01218,-0.798706 -1.81304,-2.231819 -1.89446,-4.484998 -0.0517,-1.431189 -0.0254,-0.705106 -0.0791,-2.177645 -0.0816,-2.602558 -0.0903,-5.205841 0.19844,-7.79849 0.24823,-2.394268 0.6146,-4.775082 0.76533,-7.179412 0.27808,-3.36008 0.42763,-6.72542 0.42064,-10.09809 0.0594,-2.5132 0.11189,-5.03614 0.48266,-7.52719 0.38072,-2.41928 0.90466,-4.80615 1.46451,-7.18974 0.6701,-2.94551 1.25825,-5.91529 2.11305,-8.81393 1.0668,-3.18776 2.31041,-6.31647 4.23489,-9.10074 0.42128,-0.53977 0.8547,-1.07136 1.29914,-1.59215 -1.52816,-0.60355 -3.06641,-1.18197 -4.57646,-1.83141 -1.09038,3.76762 -2.19021,7.53001 -3.40755,11.25926 -1.05961,2.97655 -0.54118,1.54568 -1.55081,4.2938 -1.83358,4.9908 -6.03644,4.88509 -7.07398,1.75544 -2.82634,3.52841 -7.50378,1.0111 -5.57744,-4.75268 1.05408,-3.1537 2.2385,-6.34595 4.49688,-8.85837 1.49582,-1.66408 2.97572,-2.34765 4.17287,-2.32647 0.33252,0.006 0.64298,0.0664 0.92604,0.17518 0.46945,-1.58214 0.96416,-3.15651 1.43919,-4.7377 0.70062,-2.33196 1.93737,-3.52641 3.18689,-3.8871 0.54142,-0.34307 1.25019,-0.55529 2.11615,-0.57361 h 5.3e-4 c 0.8057,-0.017 1.74503,0.13149 2.80396,0.49248 0.31645,0.10788 0.63769,0.20324 0.94929,0.32401 1.83624,0.71133 3.60046,1.59642 5.43016,2.32544 1.18096,0.47048 2.26953,0.84228 3.35329,1.23145 0.62902,-0.20883 1.22424,-0.32846 1.76785,-0.35037 2.28614,-0.0921 3.73455,1.32842 3.67523,3.07682 1.73917,0.0925 3.47854,0.18832 5.21777,0.2899 -0.1345,-1.7899 1.43141,-3.54652 4.54959,-3.56619 0.39587,-0.002 0.816,0.0231 1.25987,0.0801 3.99155,0.51285 7.97638,1.04608 11.94346,1.72703 0.35092,0.0747 0.7018,0.14913 1.05265,0.22376 0.92028,-2.09088 2.0607,-3.80586 3.79408,-5.38675 0.9172,-0.8245 1.6747,-1.80494 2.07378,-2.98587 0.46483,-1.35061 0.4893,-2.77914 0.4594,-4.19561 h 5.3e-4 c -0.0754,-3.57927 1.64663,-5.36691 3.4308,-5.36608 z m 1.97559,14.00741 c -0.78838,1.39934 -1.79816,2.66075 -2.96984,3.79512 -1.06213,0.94584 -1.80404,2.02586 -2.28153,3.3538 -0.003,0.012 -0.005,0.0237 -0.009,0.0357 1.15411,0.11311 2.30814,0.22665 3.4613,0.3514 3.99042,0.43171 5.40747,2.84663 4.69323,4.76353 0.67585,0.41545 1.35041,0.83313 2.01954,1.25626 3.82278,2.5036 7.53266,5.1715 11.24013,7.84086 -1.81731,-3.68096 -3.93583,-7.19476 -6.36087,-10.5146 -1.10355,-1.48555 -2.20805,-3.00054 -3.36206,-4.44883 -0.35653,-0.44747 -1.7607,-2.16704 -2.34455,-2.70784 -0.36042,-0.33384 -0.93237,-0.68033 -1.36375,-0.9555 -1.33122,-0.84918 -2.21667,-1.81673 -2.72282,-2.76986 z" /></clipPath><clipPath
       clipPathUnits="userSpaceOnUse"
       id="clipPath240"><path
         id="path241"
         style="fill:#ff0000;fill-opacity:1;fill-rule:nonzero;stroke:none;stroke-width:0.264583"
         d="M 92.804184,-309.23338 V -41.629034 H 294.29938 V -309.23338 Z m 130.496946,63.74443 c 0.93337,0.009 2.02072,0.27397 3.21944,0.8785 1.75312,0.88412 3.43212,1.89553 5.06326,2.98586 5.9527,3.97906 1.8926,10.01797 -4.03542,6.00222 -1.36849,-0.92705 -2.78857,-1.76849 -4.26227,-2.51871 -5.18448,-2.63926 -4.02961,-7.38891 0.015,-7.34787 z m -85.24544,1.99626 c 3.36772,-0.0906 4.87054,3.93317 0.67437,7.28431 -0.81214,0.6486 -0.42273,0.34746 -1.1653,0.9064 -1.7275,1.42217 -3.47209,2.82263 -5.29477,4.12275 -2.09112,1.47372 -4.25636,2.82668 -6.45645,4.13153 -6.15846,3.65253 -10.39165,-1.95967 -4.33979,-5.78621 2.21999,-1.40367 4.47897,-2.73503 6.6244,-4.25349 1.67688,-1.19734 3.27994,-2.48915 4.86947,-3.79821 0.91499,-0.69918 0.50268,-0.37435 1.24076,-0.9679 1.39493,-1.12177 2.72473,-1.60899 3.84731,-1.63918 z" /></clipPath><clipPath
       clipPathUnits="userSpaceOnUse"
       id="clipPath251"><path
         id="path252"
         style="fill:#ff0000;fill-opacity:1;fill-rule:nonzero;stroke:none;stroke-width:0.264583"
         d="m 50.06164,-325.07443 v 245.270816 h 202.0347 V -325.07443 Z m 191.06172,72.239 c 1.42195,-0.0396 3.11835,0.92332 4.44418,3.2582 0.80855,1.42391 1.33311,2.97097 1.71979,4.55476 0.38267,1.85761 0.50306,3.75527 0.49506,5.64772 0.007,1.66837 -0.28067,3.30966 -0.52503,4.95318 -0.26767,2.07853 -1.32063,3.82386 -2.54249,5.47306 -0.98598,1.19805 -2.03839,2.33999 -3.16208,3.40961 -0.37488,0.32054 -0.76867,0.61405 -1.09502,0.98443 -4.73356,5.37222 -10.25077,0.0313 -5.19193,-5.03587 0.41783,-0.41852 0.82603,-0.84961 1.30896,-1.19579 0.83199,-0.78568 1.60086,-1.63171 2.34973,-2.49649 0.52191,-0.686 1.06794,-1.32103 1.17874,-2.204 0.19629,-1.31742 0.44949,-2.62948 0.44648,-3.9672 0.0288,-1.3072 -0.0809,-2.61845 -0.30179,-3.90725 -0.20137,-0.91522 -0.51051,-1.80281 -0.96014,-2.62775 -2.14172,-3.92928 -0.53435,-6.78057 1.83554,-6.84661 z m -24.00732,134.01508 c 1.58088,-0.0452 3.27238,1.29937 3.90106,4.36821 0.19779,0.96552 0.49313,1.88927 0.87385,2.79466 0.57738,1.31117 0.86222,2.69631 0.9741,4.11603 0.0779,1.63421 -0.38657,3.16522 -1.00976,4.65191 -0.60784,1.37091 -1.55916,2.5173 -2.50579,3.660755 -0.2566,0.333243 -0.50348,0.67224 -0.76223,1.002525 -0.0721,0.651052 -0.19323,1.300012 -0.35502,1.949752 l -0.4842,1.22783 c -0.70346,1.782932 -1.87803,2.754204 -3.12126,3.127457 -0.38818,0.593834 -0.73665,1.213207 -1.1529,1.788007 -0.78123,1.206815 -1.75001,2.262322 -2.80138,3.23546 -1.04259,0.90742 -2.26203,1.551003 -3.47214,2.198833 -0.81145,0.41652 -1.66264,0.737227 -2.52439,1.030428 -6.77856,2.306214 -9.10653,-4.670343 -2.28979,-6.86108 0.48258,-0.155091 0.95367,-0.335381 1.41232,-0.552421 0.68902,-0.364839 1.38726,-0.713642 2.01745,-1.175639 0.71797,-0.616461 1.30017,-1.358352 1.82004,-2.146123 0.66383,-0.892056 1.26802,-1.828112 1.8216,-2.792076 0.59882,-1.12436 1.07283,-2.316203 1.82056,-3.358968 0.0117,-0.0166 0.0249,-0.032 0.0367,-0.0486 -0.84786,-3.67928 0.87949,-5.67892 2.87217,-5.69422 0.38363,-0.003 0.77643,0.0723 1.16324,0.21859 0.15519,-0.3579 0.298,-0.71847 0.29042,-1.1188 -0.0398,-0.54898 -0.18359,-1.13581 -0.4191,-1.66191 -0.48947,-1.16893 -0.89792,-2.36312 -1.1591,-3.60547 -0.82863,-3.94139 1.021,-6.29698 3.05356,-6.35516 z" /></clipPath><clipPath
       clipPathUnits="userSpaceOnUse"
       id="clipPath278"><path
         id="path279"
         style="fill:#ff0000;fill-opacity:1;fill-rule:nonzero;stroke:none;stroke-width:0.264583"
         d="m -43.212488,-382.05292 v 250.81001 H 185.4025 v -250.81001 z m 181.494868,132.88233 c 1.13528,0.005 2.03811,0.42617 2.60707,1.09037 0.91934,-0.34123 1.78192,-0.54125 2.52078,-0.52658 4.05205,0.0805 5.08945,4.87108 -0.18087,7.33443 -2.21042,1.03317 -4.41856,2.08163 -6.72362,2.89285 -2.86091,0.99315 -5.74924,1.921 -8.52506,3.13986 -6.55592,2.87873 -9.40434,-3.76713 -2.84944,-6.64817 1.1011,-0.48395 2.22936,-0.89759 3.35587,-1.31568 0.52294,-1.00077 1.47788,-2.01475 2.95124,-2.87476 1.0894,-0.6359 2.16914,-1.287 3.24683,-1.94252 1.33817,-0.81396 2.56345,-1.15421 3.5972,-1.1498 z m -133.0900695,2.4753 h 5.5981075 c 7.160125,0 7.160125,7.23263 0,7.23263 H 5.1923105 c -7.1601277,0 -7.1601277,-7.23263 0,-7.23263 z m 42.9880715,50.84496 c 2.044401,-0.008 3.844292,2.25841 2.953308,6.18618 -0.283588,1.25017 -0.481169,2.51568 -0.75189,3.76877 -0.313965,1.46608 -0.73946,2.91235 -1.207162,4.33668 -2.233805,6.80278 -9.211228,4.46329 -6.857981,-2.29908 0.404762,-1.16313 0.726765,-2.36525 0.995807,-3.56619 0.287499,-1.32813 0.484814,-2.67249 0.804084,-3.99407 0.735603,-3.04497 2.473746,-4.42641 4.063834,-4.43229 z m 26.844358,9.60148 c 1.5451,0.0844 3.630816,1.85281 5.237924,5.05189 1.446292,2.8789 3.498345,5.40261 5.377447,8.00674 1.423178,1.86933 2.496352,3.93269 3.488161,6.04873 3.038795,6.48323 -3.64554,9.55837 -6.57066,3.02307 -0.764304,-1.70766 -1.644017,-3.34338 -2.782776,-4.84001 -2.279812,-3.15977 -5.466628,-6.83969 -6.494177,-10.63656 -0.141171,-0.52168 -0.167447,-1.06805 -0.251148,-1.60197 -0.554762,-3.53682 0.450099,-5.13633 1.995229,-5.05189 z m 22.433772,2.07998 v 5.3e-4 c 1.081786,0.0173 2.458693,0.64291 3.986318,2.0805 1.21595,1.14421 2.08888,2.57763 3.1502,3.85661 0.75663,0.91352 1.6619,1.66584 2.53163,2.46393 1.1475,0.93011 2.05703,2.06162 2.85305,3.29799 0.95863,1.59903 1.44035,3.34615 0.97049,5.20227 -0.10236,0.40431 -0.31771,0.77135 -0.47646,1.15703 -1.02548,2.49132 -2.04203,1.65641 -2.97036,0.0238 -2.04159,1.70549 -5.47708,1.09344 -5.78105,-3.28558 -0.003,-0.0322 -0.0142,-0.0648 -0.007,-0.0966 0.005,-0.03 0.0986,-0.0136 0.0827,-0.0393 -0.23736,-0.38486 -0.69492,-0.61714 -1.02216,-0.90227 -1.100378,-0.77725 -2.267905,-1.45106 -3.395141,-2.18798 -3.582773,-2.34245 -3.744537,-5.4822 -2.015898,-6.82284 -0.840523,-2.68156 0.04882,-4.63231 1.88154,-4.74287 0.06945,-0.004 0.140271,-0.006 0.212389,-0.005 z" /></clipPath><clipPath
       clipPathUnits="userSpaceOnUse"
       id="clipPath292"><path
         id="path293"
         style="fill:#ff0000;fill-opacity:1;fill-rule:nonzero;stroke:none;stroke-width:0.264583"
         d="M 39.169506,-337.89832 V -50.969072 H 288.46282 V -337.89832 Z m 15.676046,82.89261 c 1.714024,0.0204 3.54041,1.61061 3.978568,4.9382 0.120111,0.91222 0.106387,1.83456 0.107487,2.75229 0.0087,7.16012 -7.246413,7.15857 -7.232633,-0.002 0.0013,-0.65071 0.02757,-1.30512 -0.06356,-1.95182 -0.530767,-3.76661 1.267578,-5.76019 3.21014,-5.73712 z m 197.013298,6.80941 c 1.32993,-0.0899 2.96772,0.82319 4.38423,3.1042 1.07429,1.72993 1.55184,3.70118 1.89652,5.68338 0.39598,2.58761 0.42018,5.20011 0.26717,7.80675 -0.16631,2.61527 -0.75971,5.14416 -1.52187,7.63985 -0.4978,1.90614 -1.23662,3.72608 -2.0159,5.52989 -0.76243,1.81488 -1.37928,3.68664 -2.00143,5.55315 -0.64972,1.87676 -1.26002,3.76819 -2.01124,5.60741 -0.95415,2.1244 -1.9321,4.237 -2.90784,6.35155 -0.93622,2.10591 -1.93956,4.18102 -3.03444,6.20893 -0.74336,1.47932 -1.63431,2.88203 -2.64686,4.19044 -0.85071,1.10794 -1.91984,2.00805 -2.89078,3.00343 -1.04445,1.12516 -2.20219,2.13025 -3.34605,3.1502 -1.2349,1.05182 -2.56579,1.98944 -3.91811,2.88354 -1.93444,1.28303 -4.12655,2.08437 -6.28747,2.89285 -2.75914,1.06536 -5.6224,1.79172 -8.50439,2.42982 -2.00852,0.48359 -4.02259,0.93996 -6.05234,1.32499 -1.0898,0.20672 -1.99053,0.15992 -2.79725,0.0139 -0.75827,0.17949 -1.51301,0.3744 -2.26653,0.57309 -1.4977,0.44017 -2.97995,0.92699 -4.46019,1.42214 -1.58834,0.5581 -3.19109,1.04834 -4.83381,1.42213 -2.05853,0.5373 -4.13223,0.98734 -6.23425,1.31724 -1.89057,0.38525 -3.79586,0.65788 -5.71696,0.82837 -1.92552,0.0766 -3.83858,0.29911 -5.75676,0.47025 -1.71912,0.15432 -3.44381,0.22701 -5.16867,0.27441 -2.44184,-0.0118 -4.87127,-0.25567 -7.30085,-0.47078 -2.85973,-0.19225 -5.71909,-0.39592 -8.57157,-0.67799 -2.83995,-0.26841 -5.65359,-0.74864 -8.47907,-1.13016 -2.66463,-0.21934 -5.29981,-0.64608 -7.94267,-1.03457 -2.11987,-0.30404 -4.25541,-0.45909 -6.38152,-0.71055 -1.8808,-0.17534 -3.75496,-0.4017 -5.63118,-0.61856 -1.91243,-0.21286 -3.83573,-0.28885 -5.75779,-0.34985 -2.23949,-0.16259 -4.48445,-0.27106 -6.71949,-0.48783 -2.21917,-0.20648 -4.40762,-0.67897 -6.54068,-1.31516 -2.57048,-0.65769 -4.88262,-1.9917 -7.25382,-3.13883 -1.91366,-0.89121 -3.846978,-1.74009 -5.755724,-2.6417 -1.929913,-0.93683 -3.722034,-2.11514 -5.521108,-3.27525 -1.492637,-0.90475 -0.734285,-0.44535 -2.275314,-1.37821 -6.125257,-3.70793 -2.379728,-9.89571 3.745508,-6.18774 1.606161,0.9723 0.789586,0.47683 2.449462,1.48725 1.534261,0.98943 3.055983,2.00536 4.695836,2.81636 1.92633,0.91375 3.8825,1.76312 5.81257,2.66909 2.03397,0.98503 4.0062,2.16157 6.20944,2.72955 1.67042,0.52508 3.40555,0.86136 5.14697,1.03715 2.07333,0.21111 4.15957,0.28906 6.23683,0.4563 2.12341,0.0679 4.24789,0.15641 6.36033,0.39429 1.88182,0.21873 3.76122,0.44337 5.64772,0.62012 2.19401,0.25968 4.39889,0.41632 6.58565,0.73794 2.61501,0.3856 5.2221,0.80551 7.85895,1.02267 2.74095,0.37156 5.47017,0.83558 8.22482,1.1002 2.82609,0.28319 5.66087,0.47505 8.49405,0.67076 2.15225,0.19062 4.3024,0.40925 6.46472,0.44545 1.57684,-0.0428 3.1537,-0.10777 4.7253,-0.24857 1.92194,-0.17061 3.8389,-0.3955 5.76812,-0.4718 1.7606,-0.15093 3.50197,-0.42258 5.23482,-0.76946 1.94524,-0.29972 3.85736,-0.73584 5.76244,-1.22784 1.40538,-0.30937 2.76609,-0.74989 4.12327,-1.22421 1.62869,-0.54468 3.26081,-1.07909 4.91081,-1.5565 1.77362,-0.46766 3.552,-0.92735 5.36814,-1.20147 1.70238,-0.33298 3.38762,-0.74982 5.05034,-1.24437 1.8768,-0.51034 3.73395,-1.11665 5.54695,-1.81953 1.67544,-0.67931 3.31988,-1.45879 4.78886,-2.52439 1.0657,-0.84543 2.16725,-1.64342 3.15019,-2.58951 1.28809,-1.21508 2.58622,-2.41928 3.84008,-3.67058 0.85194,-0.84614 1.68746,-1.65828 2.24585,-2.7404 0.63482,-0.99725 1.29901,-1.9775 1.85674,-3.02152 0.55263,-0.92785 1.06197,-1.877 1.53479,-2.8484 0.43455,-0.81257 0.86675,-1.63643 1.16427,-2.50993 0.39723,-1.087 0.65435,-2.21493 0.97203,-3.32641 0.29574,-1.24569 0.60338,-2.49273 1.07901,-3.68453 0.39957,-1.05638 0.68712,-2.15558 1.05006,-3.22512 0.22713,-0.94997 0.37986,-1.92387 0.55966,-2.88303 0.22526,-1.23853 0.53664,-2.45701 1.02371,-3.62149 0.47591,-1.31864 1.08044,-2.58627 1.7048,-3.84007 0.34111,-0.58794 0.67316,-1.19257 0.96067,-1.80041 0.32682,-0.71346 -0.0659,-2.40019 0.0822,-3.22151 v -4.23178 c 0,-3.58007 1.80812,-5.37022 3.61632,-5.37022 0.15156,0 0.30168,0.0312 0.45217,0.0563 -0.0649,-0.17178 -0.10183,-0.35173 -0.18242,-0.51883 -1.94402,-4.03078 -0.58254,-6.96655 1.63401,-7.11636 z" /></clipPath></defs><g
     id="layer1"
     transform="translate(33.773999,425.61221)"><path
       style="fill:#000000"
       d="m 133.35817,-119.2478 c -1.94084,-0.48095 -4.31258,-2.1151 -5.82375,-4.01261 -2.66726,-3.34917 -4.83617,-9.07359 -5.43147,-14.33532 -0.13306,-1.17606 -0.38527,-2.13829 -0.56046,-2.13829 -0.1752,0 -0.88846,0.23812 -1.58502,0.52916 -1.79295,0.74915 -4.80041,0.67638 -6.43123,-0.1556 -4.61213,-2.35293 -5.84133,-8.48301 -3.24989,-16.20738 0.61079,-1.82062 1.68641,-4.33997 2.39026,-5.59857 1.46858,-2.62607 4.86377,-7.26841 6.23626,-8.52702 0.51294,-0.47039 0.93263,-0.95177 0.93263,-1.06975 0,-0.11798 -4.56407,-0.20937 -10.14236,-0.20309 -8.24236,0.009 -10.869322,-0.11008 -14.02292,-0.63711 -7.982055,-1.33399 -15.932176,-4.6286 -21.60442,-8.95309 -1.598959,-1.21904 -3.045568,-2.21644 -3.214685,-2.21644 -0.169118,0 -0.924628,0.49245 -1.678912,1.09434 -4.837926,3.86046 -12.4831,5.45042 -19.363091,4.02691 -3.85891,-0.79842 -9.197714,-3.65929 -12.387006,-6.63774 -5.786305,-5.40377 -8.436189,-11.26954 -8.856089,-19.60381 l -0.202063,-4.01057 -3.388531,0.2372 c -3.703723,0.25926 -11.188581,-0.23091 -15.9191189,-1.04252 -10.322322,-1.77098 -18.0997067,-5.86414 -25.7490681,-13.55149 -2.233118,-2.2442 -5.011242,-5.39507 -6.17361,-7.00193 -4.60652,-6.36806 -8.239732,-13.69979 -9.953683,-20.08629 -0.83916,-3.12686 -0.928504,-4.07914 -0.952584,-10.15326 -0.03128,-7.89063 0.460072,-10.30209 3.325182,-16.31924 4.113118,-8.63815 10.956787,-16.99876 21.5190761,-26.28888 12.1213368,-10.6614 26.4731199,-19.88159 45.8168819,-29.43472 l 8.951607,-4.42084 -0.209346,-1.63205 c -0.11514,-0.89762 -0.521533,-3.93392 -0.903095,-6.74732 -1.164004,-8.58265 -1.562174,-16.05856 -1.333718,-25.04148 0.215619,-8.47821 0.681011,-12.9939 1.982083,-19.23213 4.753541,-22.79171 17.864979,-35.28463 38.660458,-36.8367 17.843892,-1.33178 33.098392,5.75528 51.171282,23.77356 7.98757,7.96343 14.3655,15.71477 19.55272,23.76317 1.4211,2.20495 2.52477,3.56349 2.90242,3.57266 0.33514,0.008 3.43077,-0.44988 6.87916,-1.01785 15.02538,-2.47474 26.47658,-3.38558 42.07675,-3.34683 16.53575,0.0411 25.83244,1.01019 36.82927,3.83921 19.19433,4.93789 31.86885,15.19861 36.18244,29.29167 2.81875,9.20924 3.25261,24.24425 1.03174,35.75369 -3.75754,19.47305 -17.11866,36.70926 -36.59336,47.20641 -1.67984,0.90545 -3.11438,1.69351 -3.18787,1.75124 -0.0735,0.0577 0.92879,1.25245 2.22729,2.65495 1.59486,1.72259 2.80063,3.47255 3.71611,5.39324 2.16536,4.54296 2.63941,6.93677 2.62396,13.25018 -0.0117,4.76821 -0.13317,5.91957 -0.94924,8.99584 -1.74734,6.58675 -5.7448,13.18596 -10.05461,16.59866 -4.6551,3.68611 -9.49294,5.27585 -15.24077,5.0082 -2.03971,-0.095 -3.9503,-0.27571 -4.24575,-0.40162 -0.36839,-0.15699 -0.74483,0.13353 -1.19804,0.92459 -6.40387,11.17757 -15.62782,18.49331 -30.36756,24.08524 -4.51207,1.71178 -16.41024,5.21977 -22.19667,6.54434 l -3.49945,0.80106 1.73557,1.41917 c 2.75163,2.25002 6.885,6.53915 8.89085,9.22591 2.08364,2.79094 4.61205,7.51537 5.56957,10.40694 0.93857,2.83436 0.88875,6.81735 -0.1088,8.69713 -1.53337,2.88948 -4.90924,4.6767 -7.88435,4.17406 l -1.31864,-0.22279 -0.21572,2.40705 c -0.65728,7.33415 -1.89249,11.92475 -4.09686,15.22582 -2.30715,3.45498 -5.15723,4.94748 -8.68783,4.54953 -1.81961,-0.2051 -3.10371,-1.02668 -4.25994,-2.72555 -1.06436,-1.56388 -1.44327,-3.11066 -1.87297,-7.64569 -0.46945,-4.95461 -0.76172,-5.40956 -3.47519,-5.40956 -1.50801,0 -2.29418,0.18197 -2.89777,0.67073 -0.78328,0.63426 -0.83944,0.95779 -1.03275,5.94967 -0.18672,4.82152 -0.28873,5.45122 -1.17722,7.26724 -1.44238,2.94811 -4.54644,4.50979 -7.50609,3.77636 z m 2.9132,-5.7046 c 0.57195,-0.632 0.69984,-1.50523 0.87217,-5.95513 0.18793,-4.85281 0.27371,-5.35816 1.23653,-7.2851 1.42047,-2.84284 2.63805,-3.42128 7.56098,-3.59203 3.41238,-0.11836 3.80143,-0.0634 4.93889,0.69701 1.98842,1.32937 2.80818,3.45897 3.36121,8.73177 0.5299,5.05224 0.82232,5.91293 2.1196,6.23852 1.78395,0.44775 4.20234,-2.21916 5.41205,-5.96821 1.3018,-4.03444 1.59969,-6.30508 1.58195,-12.05818 -0.0187,-6.04746 -0.52068,-9.8897 -2.07211,-15.85848 -1.55605,-5.98655 -5.5446,-15.36235 -6.53529,-15.36235 -0.17278,0 -3.21707,0.47581 -6.76508,1.05734 -3.54802,0.58154 -8.72628,1.26813 -11.50724,1.52576 -3.31855,0.30743 -5.15325,0.62528 -5.33839,0.92485 -0.4631,0.74932 -2.77505,10.45126 -3.61957,15.18927 -0.63212,3.5464 -0.7876,5.75651 -0.7942,11.28889 -0.01,7.9853 0.47132,10.78556 2.63512,15.34583 2.37022,4.99531 5.14497,7.03431 6.91338,5.08024 z m -16.2933,-19.73815 c 1.44409,-1.26793 1.79422,-2.25365 2.31192,-6.50875 0.51936,-4.26877 0.8811,-6.0818 2.52506,-12.65561 0.77024,-3.08002 1.30634,-5.69414 1.19134,-5.80914 -0.34141,-0.34141 -5.18117,4.95196 -6.98285,7.63732 -5.14361,7.66642 -6.78919,16.12091 -3.50958,18.03111 1.2651,0.73685 3.17139,0.4401 4.46411,-0.69493 z m 52.52304,-3.86722 c 0.49634,-0.39042 1.00502,-1.17695 1.13041,-1.74784 0.51148,-2.32876 -2.01869,-8.60657 -5.19435,-12.88813 -1.89828,-2.55934 -4.81541,-5.82084 -5.20624,-5.82084 -0.156,0 0.25901,1.45955 0.92223,3.24344 1.57595,4.23888 2.80757,8.83946 3.46288,12.93514 0.54374,3.39839 0.88737,4.15065 2.12526,4.65241 1.15565,0.46843 1.7996,0.38113 2.75981,-0.37418 z m -50.85062,-28.05319 c 20.45905,-1.62049 35.26268,-4.08608 50.74889,-8.45237 17.98402,-5.07055 26.49491,-9.2974 34.04305,-16.90717 4.10753,-4.14106 6.8026,-8.01074 9.49756,-13.63697 3.69105,-7.70576 5.06374,-13.41994 5.37507,-22.37516 0.48158,-13.85261 -2.96649,-29.32757 -9.38423,-42.11641 -1.75761,-3.50244 -6.89494,-11.50562 -7.945,-12.37709 -0.82929,-0.68825 -11.70473,0.19605 -26.47117,2.15242 -11.80475,1.56398 -29.80972,5.01737 -29.80972,5.71756 0,0.5949 2.52377,2.71834 4.3015,3.61918 0.96289,0.48794 2.57178,0.98493 3.5753,1.10442 l 1.82459,0.21726 -1.05834,0.4525 c -1.47254,0.62961 -3.9718,0.59072 -5.97847,-0.093 -1.61723,-0.55105 -4.16018,-2.66904 -4.96424,-4.13466 -0.34334,-0.62584 -0.56165,-0.59862 -4.89417,0.61025 -2.49413,0.69592 -4.73315,1.42993 -4.97558,1.63114 -0.68501,0.5685 -0.97757,4.3725 -0.51061,6.63913 0.50897,2.47053 2.05841,5.9599 3.61093,8.13191 1.85757,2.59879 1.87314,2.6442 0.69806,2.03654 -0.57219,-0.29589 -1.92525,-1.49378 -3.00678,-2.66197 -1.48991,-1.60927 -2.24232,-2.83241 -3.10491,-5.0474 l -1.13848,-2.92342 0.53584,-2.64583 c 0.29471,-1.45521 0.4968,-2.69092 0.44908,-2.74602 -0.18664,-0.2155 -3.52509,0.68903 -4.96631,1.34558 -0.83701,0.3813 -2.32673,0.86589 -3.31049,1.07687 -1.13784,0.24402 -1.92259,0.63383 -2.15673,1.07132 -0.73075,1.36542 -1.40079,8.2756 -1.08192,11.15799 0.16637,1.50399 0.23397,2.81154 0.15021,2.90565 -0.29752,0.3343 -1.47868,-1.60225 -1.93201,-3.16761 -0.6163,-2.12811 -0.46822,-5.01033 0.39968,-7.77941 0.3925,-1.25228 0.71568,-2.37679 0.71819,-2.49891 0.002,-0.12213 -1.38451,0.29165 -3.08226,0.9195 -6.69766,2.4769 -11.9052,4.47556 -12.05724,4.6276 -0.35562,0.35562 1.07805,1.32502 2.84354,1.92269 1.0314,0.34917 1.92616,0.78752 1.98836,0.97413 0.18169,0.54507 -0.95924,1.48019 -1.79569,1.47176 -1.13475,-0.0114 -3.62864,-1.23278 -4.6953,-2.29944 l -0.93253,-0.93253 -2.33286,0.97613 c -5.155072,2.15701 -15.666662,7.04421 -20.324523,9.44957 -8.287073,4.27951 -13.199971,7.6004 -22.527213,15.22733 l -4.182769,3.42028 0.173601,7.80889 c 0.197349,8.87713 0.608754,11.35156 3.220535,19.37015 3.118267,9.57358 7.43104,16.70739 14.124642,23.36375 4.800868,4.77415 8.201247,7.26263 13.085657,9.5764 3.539021,1.67645 9.651295,3.40048 13.978981,3.94293 4.165989,0.52217 15.898289,0.45895 23.276279,-0.12544 z m -32.626692,-14.64542 c -10.751857,-1.8046 -20.480627,-9.58463 -24.821954,-19.84993 -3.288097,-7.77489 -3.943745,-14.60384 -2.07115,-21.57224 3.348411,-12.46028 11.062796,-20.4129 23.308971,-24.02879 2.514894,-0.74257 4.182124,-0.97487 8.019103,-1.11736 6.259281,-0.23245 10.008322,0.55439 15.236212,3.19772 6.70128,3.3883 12.08105,9.98927 14.77341,18.12696 4.30517,13.01241 2.57368,25.16403 -4.93156,34.60966 -5.74564,7.23112 -14.08589,11.05089 -23.924943,10.95744 -2.134306,-0.0203 -4.648946,-0.16583 -5.588089,-0.32346 z m 12.423552,-5.28262 c 4.63878,-1.11205 8.1538,-3.11948 11.68736,-6.67466 3.42413,-3.4451 5.27303,-6.38332 6.54955,-10.40837 2.54476,-8.024 1.20255,-17.76695 -3.51817,-25.53809 -1.22286,-2.01306 -5.18937,-6.19757 -7.115,-7.50607 -2.36225,-1.60518 -6.00273,-3.1971 -8.89115,-3.88794 -4.04027,-0.96634 -10.336036,-0.78493 -13.823562,0.39833 -2.366626,0.80295 -6.15418,2.63696 -7.906093,3.82829 -1.984646,1.34959 -4.947635,4.50439 -6.609198,7.03704 -3.005507,4.58119 -4.196698,9.0538 -4.196698,15.75753 0,13.21457 7.878292,23.78417 20.108331,26.97755 3.687394,0.96282 9.736549,0.97004 13.71463,0.0164 z m -7.893797,-5.64886 c -2.953051,-0.33587 -4.896474,-0.91134 -7.76111,-2.29815 -2.696898,-1.30561 -6.170864,-4.0005 -4.298562,-3.33457 2.836622,1.00893 6.011918,-0.006 7.083226,-2.26329 1.824898,-3.84568 -0.68662,-7.9623 -4.859691,-7.9655 -2.230095,-0.002 -3.829585,0.98414 -4.779109,2.94559 -0.865639,1.78817 -0.90831,2.64763 -0.213959,4.30944 0.817921,1.95756 0.04552,1.10029 -1.716279,-1.90486 -2.970924,-5.06759 -4.089188,-10.19271 -3.36307,-15.4133 0.721557,-5.1878 2.58896,-8.83249 6.26689,-12.23136 3.844431,-3.55273 9.337303,-5.57627 15.136739,-5.57627 h 2.314952 l -1.481009,1.07284 c -3.085127,2.23486 -4.751938,6.44441 -3.957444,9.99458 1.450019,6.47937 8.240233,9.9475 14.154183,7.2293 3.37378,-1.55067 5.01111,-3.66183 5.78594,-7.46037 l 0.43505,-2.13278 1.30819,2.08641 c 2.00705,3.20101 3.09191,7.01668 3.31236,11.65024 0.22484,4.72571 -0.17122,6.69451 -2.10127,10.44522 -3.72958,7.24781 -12.69664,11.8215 -21.266027,10.84683 z m 39.957037,7.7748 c -2.52059,-0.75896 -4.85565,-2.9998 -4.85565,-4.65972 0,-1.87765 1.70465,-2.20704 4.11414,-0.79498 0.84167,0.49325 1.5303,0.78615 1.5303,0.6509 0,-0.13525 -0.55562,-1.96464 -1.23472,-4.06529 -1.51697,-4.69247 -1.57344,-5.98422 -0.3052,-6.98182 0.51123,-0.40214 1.13738,-0.73116 1.39144,-0.73116 1.04741,0 2.36369,1.69198 3.16598,4.06963 0.73315,2.17274 0.92272,2.44359 1.63977,2.34283 0.44593,-0.0627 2.92479,-0.49922 5.50858,-0.97014 2.58378,-0.47091 4.72691,-0.85613 4.7625,-0.85603 0.0356,1e-4 0.009,-1.438 -0.0594,-3.19577 -0.14248,-3.66997 0.29296,-4.56959 2.20722,-4.56012 2.15626,0.0107 2.60188,0.91608 3.08205,6.26208 0.20448,2.27671 0.43393,4.3464 0.50988,4.59932 0.0867,0.28874 0.64425,-0.0722 1.49841,-0.97014 1.49114,-1.56752 1.97979,-1.70394 3.15496,-0.88082 0.55692,0.39008 0.78405,0.90777 0.78405,1.78708 0,2.96135 -2.93747,5.77764 -6.02625,5.77764 -1.23451,0 -1.669,-0.20553 -2.66335,-1.25985 -0.6535,-0.69291 -1.19061,-1.44697 -1.19358,-1.67569 -0.0156,-1.20374 -0.51578,-1.2264 -5.81505,-0.26347 l -5.29127,0.96147 -0.2405,1.68131 c -0.27238,1.90415 -1.01191,2.90623 -2.65937,3.60353 -1.26339,0.53473 -1.60886,0.54959 -3.00498,0.12921 z m 46.12073,-14.69702 c -12.12113,-2.58612 -21.21142,-11.87551 -24.45634,-24.99199 -0.98253,-3.97154 -1.18363,-5.737 -1.17016,-10.2728 0.0189,-6.36341 1.01179,-10.29468 3.97919,-15.75505 2.07904,-3.82568 4.79939,-6.98355 8.16687,-9.48039 6.57616,-4.87593 14.1116,-7.36364 22.2579,-7.34813 12.94535,0.0247 23.76171,8.76349 28.37434,22.92443 1.46884,4.50938 1.85984,6.99597 1.87243,11.90794 0.0427,16.66371 -10.46069,30.14341 -25.74584,33.04123 -3.65641,0.6932 -9.96731,0.6812 -13.27839,-0.0252 z m 13.58195,-5.07074 c 7.93032,-2.19975 13.77374,-6.89751 17.26219,-13.87775 2.49056,-4.98351 3.29202,-10.04768 2.51971,-15.92128 -0.62401,-4.74573 -1.29603,-7.04044 -3.20272,-10.93611 -2.10828,-4.30752 -4.13682,-6.88333 -7.64078,-9.70212 -6.1296,-4.93101 -12.62732,-6.75057 -19.70862,-5.51903 -6.39184,1.11163 -10.73996,3.35002 -15.15895,7.80375 -5.60232,5.64636 -8.05879,11.84734 -8.03924,20.29379 0.0347,14.98014 8.49941,25.79027 22.23284,28.39306 3.47427,0.65845 8.21343,0.44268 11.73557,-0.53431 z m -11.99445,-6.33913 c -4.10472,-1.0985 -6.85705,-2.62317 -9.66569,-5.35438 -1.88197,-1.83009 -2.19799,-2.25727 -1.27042,-1.71726 1.62859,0.94812 4.3648,0.96132 5.8948,0.0284 1.34713,-0.82139 2.57415,-3.05578 2.56607,-4.67277 -0.0135,-2.70396 -2.61665,-5.21753 -5.40344,-5.21753 -3.95083,0 -6.486,3.64722 -5.03567,7.24456 0.517,1.28234 0.51693,1.3399 -8.3e-4,0.69294 -0.84488,-1.05571 -2.59291,-5.03678 -3.15245,-7.17959 -0.84161,-3.22305 -0.99987,-7.6716 -0.37836,-10.63569 0.77433,-3.69284 3.25254,-8.5347 5.57819,-10.89849 4.39316,-4.46519 9.97334,-6.74516 16.48884,-6.73708 l 2.66924,0.003 -1.82992,1.0495 c -3.36452,1.92963 -5.23917,5.38038 -4.96882,9.14635 0.39723,5.53329 4.47335,9.3576 9.97374,9.3576 5.83644,0 10.16441,-4.22782 10.21204,-9.97575 l 0.0185,-2.23373 0.94377,1.13049 c 1.48282,1.77618 3.40526,5.89813 4.17405,8.94965 0.87229,3.46238 0.94974,9.3432 0.16284,12.36433 -1.64359,6.31015 -6.95949,11.84952 -13.6391,14.21245 -3.59188,1.27063 -9.50964,1.46704 -13.3374,0.44266 z m -119.738579,37.30493 c 2.517048,-1.02301 5.048558,-2.5781 5.311245,-3.26265 0.113842,-0.29666 -0.846503,-1.67784 -2.364079,-3.40003 -2.301884,-2.61226 -3.980042,-5.0128 -7.716127,-11.03762 -1.146316,-1.84855 -1.441461,-2.06709 -5.468055,-4.04869 -3.80747,-1.87377 -6.322279,-2.80729 -9.018834,-3.34786 -0.48507,-0.0972 0.175938,-0.11301 1.468905,-0.035 2.64958,0.15978 6.909152,1.65089 9.611265,3.36452 0.935712,0.59341 1.761168,1.01906 1.834345,0.94588 0.07318,-0.0732 -0.56557,-2.02599 -1.419439,-4.33959 -0.853869,-2.3136 -1.836402,-5.4321 -2.183406,-6.93001 -0.611004,-2.63751 -0.674421,-2.74087 -2.009197,-3.27495 -2.9406,-1.17659 -6.852098,-0.95992 -9.771917,0.5413 -6.543027,3.3641 -8.281247,14.75567 -3.626874,23.76904 1.77087,3.42935 6.42367,8.05657 9.716026,9.6626 5.502663,2.68423 11.2086,3.1926 15.636142,1.39309 z m -34.026695,-29.76995 2.338876,-0.22094 1.012512,-2.1578 c 0.716118,-1.52615 1.851653,-2.98396 3.879091,-4.98003 2.181924,-2.14816 2.810565,-2.97591 2.632059,-3.46569 -0.128985,-0.3539 -0.38707,-0.64303 -0.573522,-0.6425 -0.186452,5.3e-4 -0.616817,-0.25045 -0.956365,-0.55773 -0.339549,-0.30729 -0.617361,-0.43529 -0.617361,-0.28445 0,0.15085 -0.262524,0.0564 -0.583387,-0.20991 -0.320863,-0.26629 -0.67805,-0.44167 -0.79375,-0.38974 -0.398873,0.17903 -0.439675,-2.91962 -0.05544,-4.21044 1.475265,-4.95612 13.901979,-14.99545 33.182575,-26.80761 23.06405,-14.13009 53.275026,-26.33077 82.726386,-33.409 21.06732,-5.06325 37.85366,-7.2064 56.79721,-7.25143 11.52967,-0.0274 15.5437,0.36503 21.55676,2.10755 6.21491,1.801 11.34241,5.23757 12.94445,8.67566 1.29378,2.77656 0.50107,6.06255 -2.35448,9.75998 -2.432,3.14899 -4.66164,4.89879 -5.98323,4.69558 -0.35619,-0.0548 -0.9415,0.16637 -1.30069,0.49144 -0.3645,0.32987 -0.84286,0.47373 -1.08259,0.32557 -0.28244,-0.17456 -0.33833,-0.11792 -0.16321,0.16542 0.17894,0.28954 0.0548,0.39421 -0.37855,0.31909 -0.38062,-0.066 -0.64809,0.10078 -0.65276,0.40696 -0.009,0.57659 -1.55645,1.49283 -2.15399,1.27521 -0.21019,-0.0765 -0.38217,0.0687 -0.38217,0.32271 0,0.25405 0.21167,0.38068 0.47037,0.2814 0.2587,-0.0993 0.47037,-0.0244 0.47037,0.16633 0,0.19075 -1.12554,0.93827 -2.5012,1.66116 -2.146,1.1277 -2.47236,1.42196 -2.29817,2.07217 0.11167,0.41681 0.38591,1.6766 0.60942,2.79953 0.22352,1.12294 0.50363,1.98937 0.62248,1.92541 3.95222,-2.12712 5.82626,-2.79755 8.3544,-2.98875 2.41492,-0.18264 3.09537,-0.40795 5.89284,-1.95126 12.10788,-6.67968 20.13347,-13.28405 26.56354,-21.8595 6.1024,-8.13846 9.17918,-15.19976 11.18193,-25.66284 0.68491,-3.57824 0.7768,-5.19546 0.7623,-13.41726 -0.0174,-9.89133 -0.34266,-12.59007 -2.25836,-18.73975 -3.29165,-10.56672 -14.5968,-19.71049 -29.81946,-24.11843 -4.76801,-1.38065 -12.77797,-2.91056 -18.52083,-3.5375 -7.25097,-0.79157 -22.90081,-1.05885 -32.63194,-0.55729 -38.04057,1.96065 -81.32439,12.90665 -121.884715,30.8233 -28.748145,12.69887 -49.746809,23.77563 -62.8832051,33.1708 -19.2984369,13.80226 -33.0252289,29.0581 -36.2519479,40.29012 -2.677476,9.32014 -0.933626,19.64759 5.096225,30.18091 5.400038,9.43313 13.0652285,17.02305 21.1903227,20.98224 6.9849806,3.40364 19.6232363,5.38791 28.7972073,4.52131 z m 204.030934,-2.73919 c 12.34848,-6.12027 17.34678,-26.49246 9.17811,-37.40834 -4.00942,-5.35782 -9.86201,-6.31887 -14.33071,-2.35324 l -1.47959,1.31302 0.4324,4.39088 c 0.23782,2.41498 0.5406,5.63172 0.67285,7.1483 l 0.24045,2.75742 2.11666,-2.5518 c 2.04774,-2.46871 4.69342,-4.55054 5.78301,-4.55054 0.29128,0 -0.13624,0.48966 -0.95004,1.08814 -1.49448,1.09905 -6.45114,7.54372 -7.08578,9.21297 -0.18893,0.49692 -0.34867,1.99402 -0.35498,3.32689 -0.0167,3.52578 -0.90466,7.64456 -2.82862,13.12027 -0.9325,2.65394 -1.81078,5.0939 -1.95173,5.42215 -0.21753,0.50653 0.002,0.61326 1.44926,0.70556 3.40902,0.21735 6.5133,-0.33532 9.10871,-1.62168 z m -193.493422,-8.14736 c 0,-0.097 -0.07938,-0.17639 -0.176389,-0.17639 -0.09701,0 -0.176389,0.0794 -0.176389,0.17639 0,0.097 0.07937,0.17639 0.176389,0.17639 0.09701,0 0.176389,-0.0794 0.176389,-0.17639 z m 7.697351,-0.35189 3.993184,8.8e-4 -0.222987,-0.88283 c -0.122643,-0.48555 -0.311783,-3.78001 -0.420312,-7.32102 -0.108529,-3.541 -0.296993,-6.43307 -0.418809,-6.42681 -1.182593,0.0608 -9.843814,7.3777 -11.023939,9.31295 -0.822805,1.34929 -0.84695,2.95152 -0.06165,4.09092 1.03239,1.49791 1.587648,1.78093 2.926606,1.49172 0.679097,-0.14668 3.031655,-0.2663 5.227907,-0.26581 z m 179.253641,-46.59027 c 5.45435,-2.9282 10.28244,-6.81393 11.90358,-9.58018 4.02757,-6.87254 -4.34858,-11.67067 -21.54201,-12.33994 l -5.60271,-0.21809 1.76659,2.6138 c 3.66905,5.42866 6.10311,10.29588 8.76095,17.51866 0.73183,1.98879 1.42186,3.61332 1.5334,3.61008 0.11154,-0.003 1.54263,-0.72519 3.1802,-1.60433 z m 12.01566,-5.26894 c 0,-0.097 -0.0794,-0.17639 -0.17639,-0.17639 -0.097,0 -0.17639,0.0794 -0.17639,0.17639 0,0.097 0.0794,0.17639 0.17639,0.17639 0.097,0 0.17639,-0.0794 0.17639,-0.17639 z m 1.41111,-1.41111 c 0,-0.097 -0.0794,-0.17639 -0.17639,-0.17639 -0.097,0 -0.17639,0.0794 -0.17639,0.17639 0,0.097 0.0794,0.17638 0.17639,0.17638 0.097,0 0.17639,-0.0794 0.17639,-0.17638 z M 54.150623,-340.08606 c 8.008524,-4.08797 28.775941,-12.80833 42.048763,-17.65652 16.550914,-6.0456 31.481744,-10.3297 48.683334,-13.96872 3.39548,-0.71832 6.25039,-1.37417 6.34424,-1.45745 0.45857,-0.40695 -3.05554,-5.43455 -8.94964,-12.80414 -4.09225,-5.11669 -14.41323,-15.57208 -19.26682,-19.51774 -12.11494,-9.84867 -21.37628,-14.03318 -32.279169,-14.58456 -7.704245,-0.38962 -14.578081,0.89896 -20.813887,3.9018 -8.634225,4.1578 -13.88323,10.77334 -17.634808,22.2259 -3.901942,11.91157 -4.771116,29.10198 -2.454461,48.54404 0.679063,5.6989 0.870006,6.70278 1.274904,6.70278 0.183425,0 1.55482,-0.62343 3.047544,-1.38539 z"
       id="path294" /></g></svg>
