<?xml version="1.0" encoding="UTF-8" standalone="no"?>
<!-- Created with Inkscape (http://www.inkscape.org/) -->

<svg
   width="223.61946mm"
   height="266.47928mm"
   viewBox="0 0 223.6195 266.47926"
   version="1.1"
   id="svg1"
   xml:space="preserve"
   xmlns="http://www.w3.org/2000/svg"
   xmlns:svg="http://www.w3.org/2000/svg"><defs
     id="defs1"><clipPath
       clipPathUnits="userSpaceOnUse"
       id="clipPath6"><path
         id="path7"
         style="fill:#ff0000;fill-opacity:1;fill-rule:nonzero;stroke:none;stroke-width:0.264583"
         d="M -175.07778,-16.057127 V 287.55793 H 124.54631 V -16.057127 Z m 132.7459,202.572647 c 0.210643,0.005 0.427212,0.0169 0.650089,0.0367 2.23823,0.19855 4.475655,0.4031 6.717938,0.55346 1.973313,0.11308 0.986628,0.0436 2.958475,0.20825 3.181295,0.26563 4.740125,1.85116 4.950601,3.46956 4.949923,1.63749 3.796379,7.35609 -2.592089,6.81354 -3.228716,-0.27422 -1.569593,-0.1301 -4.979024,-0.43357 -4.228209,-0.39317 -8.460616,-0.76265 -12.666927,-1.35341 -6.647387,-0.93358 -5.930551,-7.21034 0.03204,-7.20421 0.04685,5e-5 0.0972,0.004 0.144695,0.005 0.687229,-1.21692 2.304132,-2.15435 4.784204,-2.09548 z" /></clipPath><clipPath
       clipPathUnits="userSpaceOnUse"
       id="clipPath76"><path
         id="path77"
         style="fill:#ff0000;fill-opacity:1;fill-rule:nonzero;stroke:none;stroke-width:0.264583"
         d="M -133.83107,-122.52355 V 173.82063 H 122.97289 V -122.52355 Z M 13.574404,98.948202 c 2.788179,0.0507 4.135003,2.063798 3.398242,4.077268 0.199805,0.45372 0.374906,0.96736 0.517797,1.54461 1.07913,4.35948 0.671079,8.891 0.311608,13.31495 -0.351859,3.06036 -0.147137,1.57974 -0.604097,4.44366 -0.359666,2.25418 -1.333846,3.66838 -2.455664,4.32532 0.105138,0.36595 0.224724,0.72888 0.324528,1.09554 0.6273,2.23652 0.575201,4.47401 0.39429,6.75514 -0.137303,1.73129 -0.688065,2.99533 -1.427303,3.82199 -0.112477,0.41601 -0.170275,0.80219 -0.311092,1.25212 -0.184975,0.59102 -0.413327,1.1061 -0.670242,1.55856 0.741137,-0.23134 1.446982,-0.38145 2.064991,-0.37517 4.085002,0.0415 5.222724,4.75435 -0.02223,7.27138 -4.46677,2.14368 -9.303523,3.34693 -14.11903492,4.40955 -4.40876268,0.85156 -8.89238128,1.33053 -13.38264308,1.19269 -5.804014,-0.17807 -6.736297,-5.00293 -3.065447,-6.67298 -2.072987,-0.65744 -4.042852,-1.62261 -4.128947,-3.14709 -0.02802,-0.49633 0.0026,-0.90355 0.0341,-1.30897 -1.976731,-0.003 -3.95339,2.4e-4 -5.930386,0.003 -0.814031,0 -1.53062,-0.0962 -2.159559,-0.26149 -0.376306,0.19492 -0.742394,0.40783 -1.120862,0.59893 -6.391272,3.22657 -9.625245,-3.24074 -3.234428,-6.46886 1.833438,-0.92611 3.62694,-1.92211 5.414142,-2.92954 -0.877003,-3.87058 -1.368747,-7.83436 -1.323951,-11.80858 0.01651,-1.46304 0.376836,-2.54918 0.864547,-3.41426 -1.247357,-1.79999 -0.223805,-4.63069 3.842661,-5.68855 3.11826,-0.81116 6.282901,-1.39515 9.473837,-1.82211 -1.259816,-0.12657 -2.516182,-0.30233 -3.764627,-0.50177 -1.477002,-0.21985 -2.935575,-0.54305 -4.407482,-0.7891 -1.14214,-0.22954 -0.588502,-0.12004 -1.660882,-0.3297 -3.350244,-0.65501 -4.783278,-2.61088 -4.608504,-4.32997 -0.200179,-1.7721 1.333365,-3.52972 4.663799,-3.59461 v -5.3e-4 c 0.20954,-0.004 0.426035,-0.002 0.649571,0.008 1.77111,0.0772 3.528708,0.28204 5.26428,0.64027 1.655035,0.33225 3.314115,0.6481 4.955251,1.04439 1.244759,0.34858 2.51628,0.54538 3.7997689,0.6723 0.025956,0.002 0.052073,0.002 0.078034,0.004 0.4990888,-0.0371 0.9984105,-0.0743 1.4965495,-0.11317 1.346872,-0.12588 2.6913231,-0.25136 4.0457464,-0.24236 1.1278499,-0.0444 2.2567291,-0.10772 3.37498791,-0.26872 0.75719517,-0.11591 1.51142439,-0.25483 2.25722659,-0.4284 0.3616431,-0.12394 0.7240561,-0.24538 1.083138,-0.37775 0.3360393,-0.12388 0.6107589,-0.12825 0.9250071,-0.20723 0.1281086,-0.045 0.2583895,-0.0825 0.3855085,-0.13074 1.9825018,-0.7681 3.9540551,-1.56464 5.9510551,-2.29443 1.050809,-0.383992 1.999634,-0.542639 2.826703,-0.527616 z M 0.70283723,110.39557 c -0.45566013,0.0949 -0.90775367,0.208 -1.36890919,0.2744 -1.16638124,0.15534 -2.34111274,0.24237 -3.51761424,0.26251 0.4031694,0.0896 0.8047355,0.18876 1.2025101,0.308 0.1014836,0.0304 0.1982549,0.075 0.2986907,0.10852 0.4205235,-0.21824 0.9206601,-0.35072 1.4898318,-0.37156 0.39885139,-0.0146 0.83259872,0.0278 1.29449508,0.13023 0.22468681,-0.12213 0.44967525,-0.24374 0.67437529,-0.36587 -0.0326284,-0.11319 -0.058211,-0.22834 -0.0733795,-0.34623 z m 10.24433577,1.02474 c -0.76023,0.21437 -1.5189569,0.4343 -2.2696301,0.68006 -0.031261,0.62207 -0.2256075,1.28373 -0.6464723,1.94355 0.6236891,0.43248 1.2549743,1.04482 1.8634525,1.86862 0.2674939,0.36214 0.4748849,0.75712 0.7188199,1.13223 0.154519,-1.86707 0.314174,-3.74736 0.33383,-5.62446 z m 64.566086,3.39773 c 1.50346,0.0187 3.129182,1.24994 3.928441,4.04678 0.257931,0.90255 0.823497,1.65871 1.488797,2.30735 0.856321,0.95375 1.845738,1.76777 2.801898,2.61638 1.458581,1.46408 2.789203,3.04608 4.169772,4.58215 1.315059,1.44746 2.571226,2.91698 3.543967,4.61884 0.0053,0.01 0.0082,0.0206 0.01344,0.0305 0.734605,-0.43313 1.446276,-0.65634 2.094962,-0.69195 3.016182,-0.16561 4.69137,3.55377 1.187525,7.32306 -1.69471,1.82311 -3.657862,3.33908 -5.68751,4.7651 -0.777873,0.49914 -1.607691,0.90075 -2.418456,1.33842 0.165478,1.44344 -0.672182,3.24303 -2.956409,4.73096 -1.354556,0.88234 -2.690448,1.79306 -4.075203,2.6288 -2.075008,1.20078 -4.233777,2.27962 -6.540687,2.96259 -2.077586,0.62971 -4.169056,1.29987 -6.359301,1.36374 -1.872114,0.0897 -3.746989,0.0368 -5.620845,0.0501 h -5.1108 -5.524728 c -7.160125,0 -7.160125,-7.23315 0,-7.23315 h 1.347722 c 0.29438,-0.0541 0.5212,-0.1588 0.84801,-0.18656 1.106628,-0.094 2.200932,-0.28334 3.292822,-0.48421 0.456121,-0.98163 1.356053,-1.98213 2.807581,-2.83962 1.078018,-0.63685 2.158119,-1.26923 3.212209,-1.94561 1.962647,-1.29302 3.840588,-2.72135 5.893696,-3.86902 1.367169,-0.76424 2.559646,-1.07097 3.526915,-1.04128 2.216811,0.068 3.246223,1.90266 2.479953,4.04059 1.105688,-0.48686 2.206929,-0.98346 3.283003,-1.53739 2.619811,-1.23728 5.288743,-2.38548 7.764385,-3.9026 0.246153,-0.17184 0.487463,-0.34958 0.730705,-0.52503 -0.126915,-0.50614 -0.277693,-0.9939 -0.512114,-1.46554 -0.647621,-1.25778 -1.721077,-2.20654 -2.600875,-3.29644 -1.199229,-1.33472 -2.369312,-2.69496 -3.592029,-4.00803 -1.098706,-0.97599 -2.227236,-1.92181 -3.215306,-3.01428 -1.300821,-1.39063 -2.459913,-2.93896 -3.045293,-4.77801 -1.289469,-4.05101 0.646382,-6.61405 2.843754,-6.58667 z m -95.086705,4.28035 c -0.465643,0.10748 -0.930899,0.21773 -1.394745,0.33435 0.171958,0.64334 0.283575,1.36624 0.279569,2.2071 -0.01267,2.6582 0.205063,5.32647 0.670242,7.94732 0.280107,-0.17087 0.565767,-0.33222 0.845429,-0.50385 -0.01897,-0.36223 -0.02445,-0.73164 -0.05529,-1.08985 -0.118034,-2.96491 -0.160888,-5.93314 -0.3452,-8.89507 z m 18.5141159,1.1958 c 0.00497,0.0773 0.00619,0.15612 0.014975,0.23202 -0.1238779,0.22787 -0.2588048,0.44752 -0.3937741,0.66715 0.58900751,0.0447 1.13203305,0.21413 1.64331124,0.45888 -0.37615284,-0.49255 -0.78353709,-0.94642 -1.26452314,-1.35805 z m -6.5422357,14.57068 c -0.046649,0.0755 -0.09888,0.14702 -0.1436608,0.22376 -0.03147,0.054 0.1963367,0.0838 0.1860365,0.0222 -0.017595,-0.10481 -0.026035,-0.14905 -0.042376,-0.24597 z m 13.9236979,6.08439 c -0.2236258,0.5643 -0.5677508,1.09664 -1.1782213,1.50533 0.9079653,0.17659 1.7077452,0.44257 2.2830631,0.84852 0.1405493,-0.0459 0.272804,-0.11448 0.4128956,-0.16174 -0.7336976,-0.43656 -1.2984269,-1.18703 -1.5177374,-2.19211 z" /></clipPath><clipPath
       clipPathUnits="userSpaceOnUse"
       id="clipPath127"><path
         id="path128"
         style="fill:#ff0000;fill-opacity:1;fill-rule:nonzero;stroke:none;stroke-width:0.264583"
         d="M -112.24796,-126.55676 V 185.58027 H 148.5754 V -126.55676 Z M 46.874626,83.305366 c 1.808208,0 3.616317,1.790192 3.616317,5.370214 v 5.232238 c 0.0627,2.146078 -0.111291,4.285324 -0.245462,6.424932 -0.136289,2.02485 -0.190703,4.04985 -0.104904,6.07715 0.192061,1.91863 0.527714,3.82569 0.876432,5.72213 0.304242,2.00862 0.765826,3.9858 1.180806,5.97276 0.41642,1.86142 0.967934,3.68703 1.421104,5.53972 0.25287,0.86996 0.117097,0.46495 0.396356,1.22008 0.186108,0.50319 0.223428,0.93098 0.309544,1.38441 4.425355,2.23251 2.751262,7.58433 -3.415813,6.40477 -3.104732,-0.59371 -6.256094,-0.76586 -9.40821,-0.85576 -3.81635,0.009 -7.630525,0.17062 -11.44478,0.28216 -1.12776,0.0333 -2.255837,0.0512 -3.383772,0.0754 -0.908129,0.5548 -1.966518,0.57724 -2.88613,0.0641 -0.03584,5.3e-4 -0.07165,0.002 -0.107487,0.003 -0.03142,5.3e-4 -0.0525,-0.009 -0.08268,-0.009 -0.32049,0.14732 -0.641715,0.29301 -0.962215,0.44028 -0.262501,0.12062 -0.518089,0.22111 -0.770496,0.31265 -0.876996,0.71434 -1.945576,0.85817 -2.911967,0.46405 -2.943479,-0.21613 -4.295167,-2.77187 -2.550232,-5.0524 -2.22e-4,-0.028 -0.0078,-0.0483 -0.0078,-0.0765 v -6.3469 c -0.014,-2.72977 -0.02254,-5.45666 0.112657,-8.18348 0.135676,-2.32533 0.233519,-4.6523 0.299723,-6.98046 0.046,-1.80459 0.06926,-3.60958 0.08527,-5.41465 -0.0258,-1.02998 0.04009,-2.054459 0.138491,-3.078883 0.0044,-0.04602 0.02191,-0.07504 0.02687,-0.120406 C 15.992671,97.193438 15.83363,95.70984 16.656834,94.418959 10.68718,93.678613 10.992573,87.32947 17.739972,87.32947 h 3.885033 5.177462 5.913334 c 1.498505,0.05847 2.984222,-0.03228 4.475178,-0.161748 1.252041,-0.18606 2.49041,-0.398671 3.697968,-0.782897 1.001961,-0.32245 0.492366,-0.161472 1.527553,-0.482142 0.510384,-0.158096 0.938446,-0.174371 1.394749,-0.23771 0.672338,-1.56932 1.86623,-2.35903 3.063377,-2.35903 z" /></clipPath><clipPath
       clipPathUnits="userSpaceOnUse"
       id="clipPath139"><path
         id="path140"
         style="fill:#ff0000;fill-opacity:1;fill-rule:nonzero;stroke:none;stroke-width:0.264583"
         d="M 97.168006,-339.91235 V -44.578961 H 346.46958 V -339.91235 Z m 14.326254,94.53944 c 1.76488,0.006 3.77708,1.78446 4.35839,5.31699 0.32911,1.99994 0.60308,4.00817 0.88884,6.01462 1.02527,-1.2445 2.22305,-1.83589 3.28403,-1.8402 2.05627,-0.008 3.59454,2.17302 2.34611,6.00222 -0.0197,0.0606 -0.0413,0.12046 -0.0615,0.18087 0.31698,0.91799 0.41757,2.09982 0.17777,3.54139 -0.2164,1.30085 -0.62011,2.56457 -1.0263,3.8163 -1.34183,4.13496 -4.42238,4.92072 -6.12882,3.38016 -1.93867,0.62007 -4.30523,-0.86149 -4.65605,-4.82762 -0.16862,-1.90632 -0.33891,-3.81275 -0.57464,-5.71231 -0.45291,-3.52522 -1.07719,-7.02592 -1.48208,-10.55543 -0.40801,-3.55672 1.10935,-5.32303 2.87424,-5.31699 z" /></clipPath><clipPath
       clipPathUnits="userSpaceOnUse"
       id="clipPath170"><path
         id="path171"
         style="fill:#ff0000;fill-opacity:1;fill-rule:nonzero;stroke:none;stroke-width:0.264583"
         d="M 88.756261,-299.52331 V 17.880567 H 410.91541 V -299.52331 Z M 363.24287,-220.863 c 0.90345,-0.008 1.97628,0.23856 3.18532,0.82218 3.39402,1.63831 6.49674,3.81197 9.57823,5.96449 3.22509,2.31448 6.37511,4.73585 9.43663,7.26261 1.87296,1.50796 3.75989,2.99047 5.54284,4.6054 1.76167,1.54167 3.42262,3.17283 4.95419,4.94388 1.19316,1.48882 2.47049,2.9032 3.73311,4.33204 1.08043,1.20022 2.09423,2.45631 2.94299,3.83026 0.82616,1.73429 1.48968,3.55524 1.93786,5.42344 1.67031,6.96258 -5.76469,8.62686 -7.05745,1.5844 -0.21127,-1.15093 -0.75649,-2.20765 -1.10278,-3.32021 -0.52141,-1.02678 -1.43909,-1.82952 -2.14042,-2.72904 -1.28368,-1.45272 -2.58234,-2.89095 -3.79617,-4.40386 -1.32794,-1.55409 -2.79577,-2.95456 -4.33049,-4.3031 -1.69875,-1.54267 -3.51006,-2.94207 -5.29113,-4.38733 -2.90883,-2.40671 -5.90918,-4.70386 -8.97258,-6.91017 -2.63017,-1.83963 -5.2759,-3.68008 -8.12096,-5.17746 -5.14813,-2.7095 -4.41412,-7.50431 -0.49919,-7.53753 z m -17.79788,14.64304 c 0.81097,-0.004 1.74701,0.16947 2.79104,0.57154 4.59168,1.76834 8.99191,4.00303 13.38523,6.20892 0.37082,0.1876 0.72266,0.4088 1.09088,0.601 0.4155,-0.11565 0.91038,-0.17484 1.48572,-0.16691 0.65984,0.009 1.42523,0.10601 2.29753,0.30644 2.35556,0.54125 4.30075,1.95473 6.16344,3.42614 -1.07651,-2.72314 0.34142,-4.84679 2.57866,-4.84311 1.28683,0.002 2.83083,0.70484 4.29689,2.3952 2.44776,2.82227 4.79147,5.70892 6.96391,8.74934 1.67944,2.35043 1.72027,4.43615 0.89969,5.70663 1.5344,1.02281 3.07247,2.04019 4.58422,3.09645 1.80695,1.14136 3.31928,2.58833 4.72631,4.18269 0.96689,1.16625 2.0869,2.25988 2.79262,3.61942 0.19542,0.37651 0.34592,0.77482 0.51882,1.1622 0.40259,1.55462 0.27207,0.76263 0.38706,2.3766 0.0637,0.89436 -0.044,1.45412 -0.26977,1.7756 0.11753,0.20753 0.23421,0.41574 0.35608,0.62063 3.66003,6.15399 -2.6856,9.845 -6.25234,3.63648 -0.83209,-1.44832 -1.62388,-2.92102 -2.35437,-4.42351 -0.84839,-1.84687 -1.70402,-3.69055 -2.54093,-5.54229 -0.078,-0.17246 -0.14713,-0.34128 -0.2119,-0.5085 -0.415,-0.33988 -0.82071,-0.68775 -1.29707,-0.97255 -2.35545,-1.64933 -4.79565,-3.17384 -7.14841,-4.82761 -3.27895,-2.27743 -6.61384,-4.47194 -9.95804,-6.65231 -4.00886,-2.60003 -8.08797,-5.09434 -12.3548,-7.25434 -4.08429,-2.05175 -8.1752,-4.1242 -12.42663,-5.81101 -5.61546,-2.22804 -4.88331,-7.4129 -0.50384,-7.43314 z m -225.34594,21.50101 c 3.05551,-0.16929 4.03285,3.80875 0.35915,7.72563 -1.17612,1.25397 -2.32696,2.59265 -3.45922,3.90674 -1.44062,1.57315 -2.77631,3.23874 -4.13618,4.88135 -1.14319,1.4697 -2.29319,2.93265 -3.46335,4.38113 -0.8717,1.2084 -1.86054,2.32105 -2.81017,3.46594 -0.80685,0.95022 -1.53489,1.96075 -2.32234,2.92695 -0.80594,1.00684 -1.52017,2.08004 -2.22519,3.15847 -0.20511,0.28103 -0.29499,0.51935 -0.30179,0.78909 -0.18033,7.15787 -8.659963,5.5717 -7.093102,-1.4149 0.267098,-1.19094 0.644303,-2.32859 1.347721,-3.34243 0.846108,-1.28566 1.701136,-2.56663 2.670121,-3.76463 0.806525,-0.98525 1.5446,-2.0236 2.37453,-2.98999 0.93132,-1.109 1.88214,-2.2008 2.7342,-3.37448 1.18855,-1.47082 2.35327,-2.95822 3.51813,-4.44779 1.39067,-1.67946 2.758,-3.38112 4.2292,-4.99142 1.55862,-1.80675 3.07205,-3.68494 4.92528,-5.20227 1.38505,-1.13397 2.63451,-1.65096 3.65301,-1.70739 z m 30.4953,3.26389 c 4.11093,0.0973 5.25218,4.81763 -0.0434,7.22591 -1.93926,0.8819 -3.80509,1.88928 -5.66115,2.92437 0.381,1.39299 -0.23993,3.26566 -2.43035,4.98678 -2.3369,1.83618 -4.71607,3.61825 -7.08845,5.40845 -2.84267,2.19936 -5.66068,4.43162 -8.41086,6.74584 -2.22216,1.84972 -4.46469,3.67225 -6.66213,5.55109 -1.67979,1.46598 -3.37138,2.91821 -5.06067,4.37337 -1.40892,1.30469 -2.82191,2.592 -4.12274,4.00648 -1.07181,1.16531 -2.16701,1.83049 -3.17087,2.10529 -0.88357,6.53411 -7.65001,5.87099 -7.10344,-1.07177 0.0596,-0.75732 0.12015,-1.51435 0.21239,-2.26859 0.18237,-1.4495 0.31176,-2.90657 0.57051,-4.34444 0.56059,-2.2771 1.55106,-4.35314 3.32124,-5.95312 1.46716,-1.38711 2.94871,-2.75912 4.4943,-4.05919 1.45063,-1.21601 2.91967,-2.40825 4.4111,-3.57394 2.2284,-1.75259 4.48249,-3.46927 6.81044,-5.08961 3.1083,-2.16601 6.29001,-4.21936 9.5343,-6.17689 3.28252,-2.04598 6.49796,-4.19789 9.78648,-6.23476 2.38673,-1.38679 4.82146,-2.65715 7.33495,-3.79873 1.22236,-0.55516 2.32966,-0.77899 3.27836,-0.75654 z" /></clipPath><clipPath
       clipPathUnits="userSpaceOnUse"
       id="clipPath233"><path
         id="path234"
         style="fill:#ff0000;fill-opacity:1;fill-rule:nonzero;stroke:none;stroke-width:0.264583"
         d="M 185.24069,-319.24193 V -24.289387 H 425.09684 V -319.24193 Z m 138.35487,149.6534 c 1.78419,7.9e-4 3.63037,1.79012 3.80182,5.36608 0.0643,1.33996 -0.0719,2.65433 -0.29041,3.95842 0.27255,-0.0735 0.56767,-0.11689 0.88522,-0.12351 0.37047,-0.008 0.77026,0.0328 1.19579,0.12867 0.38629,-0.24279 0.8215,-0.42195 1.34254,-0.44493 1.13073,-0.0499 2.53823,0.47335 4.04474,1.80971 0.4186,0.37135 0.80759,0.77178 1.2056,1.16323 0.49581,-0.30652 1.09744,-0.47283 1.77559,-0.44028 1.18851,0.0571 2.59295,0.69888 3.98788,2.15129 2.63375,2.74227 4.82211,5.85047 6.92256,9.00669 2.43144,3.88376 4.79634,7.81591 6.98098,11.84475 1.13959,2.01485 2.36363,3.97199 3.24527,6.11746 0.86638,2.54168 0.71525,4.37292 -0.15348,6.88278 -0.88855,2.03627 -2.18951,3.83746 -3.64937,5.49682 -1.22616,1.21887 -2.44396,2.51198 -3.976,3.35587 -0.38219,0.21053 -0.79187,0.3659 -1.18803,0.54881 -6.50071,3.00135 -9.83602,-5.23462 -2.81948,-6.6611 1.07346,-0.21823 1.75532,-1.41088 2.56987,-2.0407 0.86323,-0.96375 1.62015,-2.00233 2.25208,-3.13417 0.24334,-0.63932 0.47847,-1.05078 0.24958,-1.76114 -0.42873,-1.13152 -1.03555,-2.17502 -1.65674,-3.21169 -0.64492,3.08426 -3.96214,3.78517 -6.03631,0.97152 -0.80928,1.85722 -3.53859,2.62684 -6.75775,0.30902 -0.53872,-0.38787 -1.07831,-0.77486 -1.61745,-1.1622 -3.08248,4.62545 -3.94671,5.04673 -6.74584,2.87063 -2.73204,-2.16473 -5.33615,-4.48821 -8.05999,-6.6642 -2.7461,-2.45053 -5.40757,-5.07957 -7.04763,-8.42635 -1.62115,-0.12575 -3.24178,-0.2569 -4.86637,-0.34314 -7.58719,-0.44787 -15.17743,-0.9445 -22.76553,-1.33377 -1.07801,-0.0553 -1.93227,-0.3045 -2.68459,-0.62166 -0.57677,0.62929 -1.1192,1.29485 -1.64021,1.97352 -1.38696,2.1585 -2.2854,4.54313 -3.09181,6.96185 -0.53658,1.90527 -0.93866,3.84574 -1.3658,5.77949 0.3976,-0.38181 0.79402,-0.76498 1.19114,-1.14825 1.44902,-1.39846 2.84121,-1.97983 3.98373,-1.97766 2.91995,0.006 4.20899,3.82009 0.64648,7.53391 -0.92629,0.96557 -1.9114,1.86859 -2.9099,2.75797 -1.78302,1.58814 -3.50499,2.03887 -4.81263,1.76372 -0.007,0.0412 -0.0189,0.0812 -0.0253,0.12247 -0.31138,2.1774 -0.34632,4.38158 -0.39739,6.57686 0.006,3.5147 -0.15426,7.02208 -0.44287,10.52391 -0.15049,2.45352 -0.52882,4.882887 -0.77928,7.326166 -0.25682,2.270699 -0.2357,4.548968 -0.1633,6.828007 0.0525,1.43787 0.0261,0.723201 0.0775,2.145088 7.9e-4,0.02175 -0.006,0.03573 -0.006,0.05736 0.13966,0.0486 0.27673,0.09115 0.42013,0.148309 3.73047,1.486969 7.59999,2.598727 11.41894,3.833876 4.85884,1.705695 9.66861,3.546912 14.50144,5.32474 1.9552,0.651698 3.84707,1.443672 5.71489,2.292366 2.6308,-0.638411 5.26049,-1.281708 7.89771,-1.893425 4.5737,-1.075436 2.35597,-0.547624 6.65438,-1.580782 0.65268,-0.156879 1.2592,-0.237268 1.81642,-0.252698 3.40876,-0.09437 4.96226,2.238663 4.05712,4.350639 3.89832,1.612736 3.00805,6.568553 -2.90269,6.729304 l -2.19726,0.05943 c 0.0932,0.05532 0.18872,0.106439 0.28112,0.163298 6.09814,3.752323 2.1299,10.065517 -3.84782,6.124173 -1.04591,-0.689594 -2.23735,-1.127543 -3.31556,-1.763197 -2.61015,-1.251701 -5.22853,-2.484003 -7.87136,-3.665926 -0.34703,-0.170111 -0.69536,-0.335955 -1.04283,-0.504362 -1.04394,0.228952 -2.09238,0.441277 -3.15071,0.537951 -0.41145,0.100483 -0.82417,0.195434 -1.23558,0.296105 -3.95687,0.968251 -6.08679,-0.907356 -5.97897,-3.010669 -0.31188,-0.687727 -0.239,-1.395294 0.0263,-2.059305 -3.87146,-1.438614 -7.73769,-2.891312 -11.63237,-4.265891 -3.97417,-1.285444 -7.99945,-2.446282 -11.87938,-4.000272 -1.44639,-0.579335 -2.44377,-1.350957 -3.06182,-2.17506 -1.01218,-0.798706 -1.81304,-2.231819 -1.89446,-4.484998 -0.0517,-1.431189 -0.0254,-0.705106 -0.0791,-2.177645 -0.0816,-2.602558 -0.0903,-5.205841 0.19844,-7.79849 0.24823,-2.394268 0.6146,-4.775082 0.76533,-7.179412 0.27808,-3.36008 0.42763,-6.72542 0.42064,-10.09809 0.0594,-2.5132 0.11189,-5.03614 0.48266,-7.52719 0.38072,-2.41928 0.90466,-4.80615 1.46451,-7.18974 0.6701,-2.94551 1.25825,-5.91529 2.11305,-8.81393 1.0668,-3.18776 2.31041,-6.31647 4.23489,-9.10074 0.42128,-0.53977 0.8547,-1.07136 1.29914,-1.59215 -1.52816,-0.60355 -3.06641,-1.18197 -4.57646,-1.83141 -1.09038,3.76762 -2.19021,7.53001 -3.40755,11.25926 -1.05961,2.97655 -0.54118,1.54568 -1.55081,4.2938 -1.83358,4.9908 -6.03644,4.88509 -7.07398,1.75544 -2.82634,3.52841 -7.50378,1.0111 -5.57744,-4.75268 1.05408,-3.1537 2.2385,-6.34595 4.49688,-8.85837 1.49582,-1.66408 2.97572,-2.34765 4.17287,-2.32647 0.33252,0.006 0.64298,0.0664 0.92604,0.17518 0.46945,-1.58214 0.96416,-3.15651 1.43919,-4.7377 0.70062,-2.33196 1.93737,-3.52641 3.18689,-3.8871 0.54142,-0.34307 1.25019,-0.55529 2.11615,-0.57361 h 5.3e-4 c 0.8057,-0.017 1.74503,0.13149 2.80396,0.49248 0.31645,0.10788 0.63769,0.20324 0.94929,0.32401 1.83624,0.71133 3.60046,1.59642 5.43016,2.32544 1.18096,0.47048 2.26953,0.84228 3.35329,1.23145 0.62902,-0.20883 1.22424,-0.32846 1.76785,-0.35037 2.28614,-0.0921 3.73455,1.32842 3.67523,3.07682 1.73917,0.0925 3.47854,0.18832 5.21777,0.2899 -0.1345,-1.7899 1.43141,-3.54652 4.54959,-3.56619 0.39587,-0.002 0.816,0.0231 1.25987,0.0801 3.99155,0.51285 7.97638,1.04608 11.94346,1.72703 0.35092,0.0747 0.7018,0.14913 1.05265,0.22376 0.92028,-2.09088 2.0607,-3.80586 3.79408,-5.38675 0.9172,-0.8245 1.6747,-1.80494 2.07378,-2.98587 0.46483,-1.35061 0.4893,-2.77914 0.4594,-4.19561 h 5.3e-4 c -0.0754,-3.57927 1.64663,-5.36691 3.4308,-5.36608 z m 1.97559,14.00741 c -0.78838,1.39934 -1.79816,2.66075 -2.96984,3.79512 -1.06213,0.94584 -1.80404,2.02586 -2.28153,3.3538 -0.003,0.012 -0.005,0.0237 -0.009,0.0357 1.15411,0.11311 2.30814,0.22665 3.4613,0.3514 3.99042,0.43171 5.40747,2.84663 4.69323,4.76353 0.67585,0.41545 1.35041,0.83313 2.01954,1.25626 3.82278,2.5036 7.53266,5.1715 11.24013,7.84086 -1.81731,-3.68096 -3.93583,-7.19476 -6.36087,-10.5146 -1.10355,-1.48555 -2.20805,-3.00054 -3.36206,-4.44883 -0.35653,-0.44747 -1.7607,-2.16704 -2.34455,-2.70784 -0.36042,-0.33384 -0.93237,-0.68033 -1.36375,-0.9555 -1.33122,-0.84918 -2.21667,-1.81673 -2.72282,-2.76986 z" /></clipPath><clipPath
       clipPathUnits="userSpaceOnUse"
       id="clipPath240"><path
         id="path241"
         style="fill:#ff0000;fill-opacity:1;fill-rule:nonzero;stroke:none;stroke-width:0.264583"
         d="M 92.804184,-309.23338 V -41.629034 H 294.29938 V -309.23338 Z m 130.496946,63.74443 c 0.93337,0.009 2.02072,0.27397 3.21944,0.8785 1.75312,0.88412 3.43212,1.89553 5.06326,2.98586 5.9527,3.97906 1.8926,10.01797 -4.03542,6.00222 -1.36849,-0.92705 -2.78857,-1.76849 -4.26227,-2.51871 -5.18448,-2.63926 -4.02961,-7.38891 0.015,-7.34787 z m -85.24544,1.99626 c 3.36772,-0.0906 4.87054,3.93317 0.67437,7.28431 -0.81214,0.6486 -0.42273,0.34746 -1.1653,0.9064 -1.7275,1.42217 -3.47209,2.82263 -5.29477,4.12275 -2.09112,1.47372 -4.25636,2.82668 -6.45645,4.13153 -6.15846,3.65253 -10.39165,-1.95967 -4.33979,-5.78621 2.21999,-1.40367 4.47897,-2.73503 6.6244,-4.25349 1.67688,-1.19734 3.27994,-2.48915 4.86947,-3.79821 0.91499,-0.69918 0.50268,-0.37435 1.24076,-0.9679 1.39493,-1.12177 2.72473,-1.60899 3.84731,-1.63918 z" /></clipPath><clipPath
       clipPathUnits="userSpaceOnUse"
       id="clipPath251"><path
         id="path252"
         style="fill:#ff0000;fill-opacity:1;fill-rule:nonzero;stroke:none;stroke-width:0.264583"
         d="m 50.06164,-325.07443 v 245.270816 h 202.0347 V -325.07443 Z m 191.06172,72.239 c 1.42195,-0.0396 3.11835,0.92332 4.44418,3.2582 0.80855,1.42391 1.33311,2.97097 1.71979,4.55476 0.38267,1.85761 0.50306,3.75527 0.49506,5.64772 0.007,1.66837 -0.28067,3.30966 -0.52503,4.95318 -0.26767,2.07853 -1.32063,3.82386 -2.54249,5.47306 -0.98598,1.19805 -2.03839,2.33999 -3.16208,3.40961 -0.37488,0.32054 -0.76867,0.61405 -1.09502,0.98443 -4.73356,5.37222 -10.25077,0.0313 -5.19193,-5.03587 0.41783,-0.41852 0.82603,-0.84961 1.30896,-1.19579 0.83199,-0.78568 1.60086,-1.63171 2.34973,-2.49649 0.52191,-0.686 1.06794,-1.32103 1.17874,-2.204 0.19629,-1.31742 0.44949,-2.62948 0.44648,-3.9672 0.0288,-1.3072 -0.0809,-2.61845 -0.30179,-3.90725 -0.20137,-0.91522 -0.51051,-1.80281 -0.96014,-2.62775 -2.14172,-3.92928 -0.53435,-6.78057 1.83554,-6.84661 z m -24.00732,134.01508 c 1.58088,-0.0452 3.27238,1.29937 3.90106,4.36821 0.19779,0.96552 0.49313,1.88927 0.87385,2.79466 0.57738,1.31117 0.86222,2.69631 0.9741,4.11603 0.0779,1.63421 -0.38657,3.16522 -1.00976,4.65191 -0.60784,1.37091 -1.55916,2.5173 -2.50579,3.660755 -0.2566,0.333243 -0.50348,0.67224 -0.76223,1.002525 -0.0721,0.651052 -0.19323,1.300012 -0.35502,1.949752 l -0.4842,1.22783 c -0.70346,1.782932 -1.87803,2.754204 -3.12126,3.127457 -0.38818,0.593834 -0.73665,1.213207 -1.1529,1.788007 -0.78123,1.206815 -1.75001,2.262322 -2.80138,3.23546 -1.04259,0.90742 -2.26203,1.551003 -3.47214,2.198833 -0.81145,0.41652 -1.66264,0.737227 -2.52439,1.030428 -6.77856,2.306214 -9.10653,-4.670343 -2.28979,-6.86108 0.48258,-0.155091 0.95367,-0.335381 1.41232,-0.552421 0.68902,-0.364839 1.38726,-0.713642 2.01745,-1.175639 0.71797,-0.616461 1.30017,-1.358352 1.82004,-2.146123 0.66383,-0.892056 1.26802,-1.828112 1.8216,-2.792076 0.59882,-1.12436 1.07283,-2.316203 1.82056,-3.358968 0.0117,-0.0166 0.0249,-0.032 0.0367,-0.0486 -0.84786,-3.67928 0.87949,-5.67892 2.87217,-5.69422 0.38363,-0.003 0.77643,0.0723 1.16324,0.21859 0.15519,-0.3579 0.298,-0.71847 0.29042,-1.1188 -0.0398,-0.54898 -0.18359,-1.13581 -0.4191,-1.66191 -0.48947,-1.16893 -0.89792,-2.36312 -1.1591,-3.60547 -0.82863,-3.94139 1.021,-6.29698 3.05356,-6.35516 z" /></clipPath><clipPath
       clipPathUnits="userSpaceOnUse"
       id="clipPath278"><path
         id="path279"
         style="fill:#ff0000;fill-opacity:1;fill-rule:nonzero;stroke:none;stroke-width:0.264583"
         d="m -43.212488,-382.05292 v 250.81001 H 185.4025 v -250.81001 z m 181.494868,132.88233 c 1.13528,0.005 2.03811,0.42617 2.60707,1.09037 0.91934,-0.34123 1.78192,-0.54125 2.52078,-0.52658 4.05205,0.0805 5.08945,4.87108 -0.18087,7.33443 -2.21042,1.03317 -4.41856,2.08163 -6.72362,2.89285 -2.86091,0.99315 -5.74924,1.921 -8.52506,3.13986 -6.55592,2.87873 -9.40434,-3.76713 -2.84944,-6.64817 1.1011,-0.48395 2.22936,-0.89759 3.35587,-1.31568 0.52294,-1.00077 1.47788,-2.01475 2.95124,-2.87476 1.0894,-0.6359 2.16914,-1.287 3.24683,-1.94252 1.33817,-0.81396 2.56345,-1.15421 3.5972,-1.1498 z m -133.0900695,2.4753 h 5.5981075 c 7.160125,0 7.160125,7.23263 0,7.23263 H 5.1923105 c -7.1601277,0 -7.1601277,-7.23263 0,-7.23263 z m 42.9880715,50.84496 c 2.044401,-0.008 3.844292,2.25841 2.953308,6.18618 -0.283588,1.25017 -0.481169,2.51568 -0.75189,3.76877 -0.313965,1.46608 -0.73946,2.91235 -1.207162,4.33668 -2.233805,6.80278 -9.211228,4.46329 -6.857981,-2.29908 0.404762,-1.16313 0.726765,-2.36525 0.995807,-3.56619 0.287499,-1.32813 0.484814,-2.67249 0.804084,-3.99407 0.735603,-3.04497 2.473746,-4.42641 4.063834,-4.43229 z m 26.844358,9.60148 c 1.5451,0.0844 3.630816,1.85281 5.237924,5.05189 1.446292,2.8789 3.498345,5.40261 5.377447,8.00674 1.423178,1.86933 2.496352,3.93269 3.488161,6.04873 3.038795,6.48323 -3.64554,9.55837 -6.57066,3.02307 -0.764304,-1.70766 -1.644017,-3.34338 -2.782776,-4.84001 -2.279812,-3.15977 -5.466628,-6.83969 -6.494177,-10.63656 -0.141171,-0.52168 -0.167447,-1.06805 -0.251148,-1.60197 -0.554762,-3.53682 0.450099,-5.13633 1.995229,-5.05189 z m 22.433772,2.07998 v 5.3e-4 c 1.081786,0.0173 2.458693,0.64291 3.986318,2.0805 1.21595,1.14421 2.08888,2.57763 3.1502,3.85661 0.75663,0.91352 1.6619,1.66584 2.53163,2.46393 1.1475,0.93011 2.05703,2.06162 2.85305,3.29799 0.95863,1.59903 1.44035,3.34615 0.97049,5.20227 -0.10236,0.40431 -0.31771,0.77135 -0.47646,1.15703 -1.02548,2.49132 -2.04203,1.65641 -2.97036,0.0238 -2.04159,1.70549 -5.47708,1.09344 -5.78105,-3.28558 -0.003,-0.0322 -0.0142,-0.0648 -0.007,-0.0966 0.005,-0.03 0.0986,-0.0136 0.0827,-0.0393 -0.23736,-0.38486 -0.69492,-0.61714 -1.02216,-0.90227 -1.100378,-0.77725 -2.267905,-1.45106 -3.395141,-2.18798 -3.582773,-2.34245 -3.744537,-5.4822 -2.015898,-6.82284 -0.840523,-2.68156 0.04882,-4.63231 1.88154,-4.74287 0.06945,-0.004 0.140271,-0.006 0.212389,-0.005 z" /></clipPath><clipPath
       clipPathUnits="userSpaceOnUse"
       id="clipPath292"><path
         id="path293"
         style="fill:#ff0000;fill-opacity:1;fill-rule:nonzero;stroke:none;stroke-width:0.264583"
         d="M 39.169506,-337.89832 V -50.969072 H 288.46282 V -337.89832 Z m 15.676046,82.89261 c 1.714024,0.0204 3.54041,1.61061 3.978568,4.9382 0.120111,0.91222 0.106387,1.83456 0.107487,2.75229 0.0087,7.16012 -7.246413,7.15857 -7.232633,-0.002 0.0013,-0.65071 0.02757,-1.30512 -0.06356,-1.95182 -0.530767,-3.76661 1.267578,-5.76019 3.21014,-5.73712 z m 197.013298,6.80941 c 1.32993,-0.0899 2.96772,0.82319 4.38423,3.1042 1.07429,1.72993 1.55184,3.70118 1.89652,5.68338 0.39598,2.58761 0.42018,5.20011 0.26717,7.80675 -0.16631,2.61527 -0.75971,5.14416 -1.52187,7.63985 -0.4978,1.90614 -1.23662,3.72608 -2.0159,5.52989 -0.76243,1.81488 -1.37928,3.68664 -2.00143,5.55315 -0.64972,1.87676 -1.26002,3.76819 -2.01124,5.60741 -0.95415,2.1244 -1.9321,4.237 -2.90784,6.35155 -0.93622,2.10591 -1.93956,4.18102 -3.03444,6.20893 -0.74336,1.47932 -1.63431,2.88203 -2.64686,4.19044 -0.85071,1.10794 -1.91984,2.00805 -2.89078,3.00343 -1.04445,1.12516 -2.20219,2.13025 -3.34605,3.1502 -1.2349,1.05182 -2.56579,1.98944 -3.91811,2.88354 -1.93444,1.28303 -4.12655,2.08437 -6.28747,2.89285 -2.75914,1.06536 -5.6224,1.79172 -8.50439,2.42982 -2.00852,0.48359 -4.02259,0.93996 -6.05234,1.32499 -1.0898,0.20672 -1.99053,0.15992 -2.79725,0.0139 -0.75827,0.17949 -1.51301,0.3744 -2.26653,0.57309 -1.4977,0.44017 -2.97995,0.92699 -4.46019,1.42214 -1.58834,0.5581 -3.19109,1.04834 -4.83381,1.42213 -2.05853,0.5373 -4.13223,0.98734 -6.23425,1.31724 -1.89057,0.38525 -3.79586,0.65788 -5.71696,0.82837 -1.92552,0.0766 -3.83858,0.29911 -5.75676,0.47025 -1.71912,0.15432 -3.44381,0.22701 -5.16867,0.27441 -2.44184,-0.0118 -4.87127,-0.25567 -7.30085,-0.47078 -2.85973,-0.19225 -5.71909,-0.39592 -8.57157,-0.67799 -2.83995,-0.26841 -5.65359,-0.74864 -8.47907,-1.13016 -2.66463,-0.21934 -5.29981,-0.64608 -7.94267,-1.03457 -2.11987,-0.30404 -4.25541,-0.45909 -6.38152,-0.71055 -1.8808,-0.17534 -3.75496,-0.4017 -5.63118,-0.61856 -1.91243,-0.21286 -3.83573,-0.28885 -5.75779,-0.34985 -2.23949,-0.16259 -4.48445,-0.27106 -6.71949,-0.48783 -2.21917,-0.20648 -4.40762,-0.67897 -6.54068,-1.31516 -2.57048,-0.65769 -4.88262,-1.9917 -7.25382,-3.13883 -1.91366,-0.89121 -3.846978,-1.74009 -5.755724,-2.6417 -1.929913,-0.93683 -3.722034,-2.11514 -5.521108,-3.27525 -1.492637,-0.90475 -0.734285,-0.44535 -2.275314,-1.37821 -6.125257,-3.70793 -2.379728,-9.89571 3.745508,-6.18774 1.606161,0.9723 0.789586,0.47683 2.449462,1.48725 1.534261,0.98943 3.055983,2.00536 4.695836,2.81636 1.92633,0.91375 3.8825,1.76312 5.81257,2.66909 2.03397,0.98503 4.0062,2.16157 6.20944,2.72955 1.67042,0.52508 3.40555,0.86136 5.14697,1.03715 2.07333,0.21111 4.15957,0.28906 6.23683,0.4563 2.12341,0.0679 4.24789,0.15641 6.36033,0.39429 1.88182,0.21873 3.76122,0.44337 5.64772,0.62012 2.19401,0.25968 4.39889,0.41632 6.58565,0.73794 2.61501,0.3856 5.2221,0.80551 7.85895,1.02267 2.74095,0.37156 5.47017,0.83558 8.22482,1.1002 2.82609,0.28319 5.66087,0.47505 8.49405,0.67076 2.15225,0.19062 4.3024,0.40925 6.46472,0.44545 1.57684,-0.0428 3.1537,-0.10777 4.7253,-0.24857 1.92194,-0.17061 3.8389,-0.3955 5.76812,-0.4718 1.7606,-0.15093 3.50197,-0.42258 5.23482,-0.76946 1.94524,-0.29972 3.85736,-0.73584 5.76244,-1.22784 1.40538,-0.30937 2.76609,-0.74989 4.12327,-1.22421 1.62869,-0.54468 3.26081,-1.07909 4.91081,-1.5565 1.77362,-0.46766 3.552,-0.92735 5.36814,-1.20147 1.70238,-0.33298 3.38762,-0.74982 5.05034,-1.24437 1.8768,-0.51034 3.73395,-1.11665 5.54695,-1.81953 1.67544,-0.67931 3.31988,-1.45879 4.78886,-2.52439 1.0657,-0.84543 2.16725,-1.64342 3.15019,-2.58951 1.28809,-1.21508 2.58622,-2.41928 3.84008,-3.67058 0.85194,-0.84614 1.68746,-1.65828 2.24585,-2.7404 0.63482,-0.99725 1.29901,-1.9775 1.85674,-3.02152 0.55263,-0.92785 1.06197,-1.877 1.53479,-2.8484 0.43455,-0.81257 0.86675,-1.63643 1.16427,-2.50993 0.39723,-1.087 0.65435,-2.21493 0.97203,-3.32641 0.29574,-1.24569 0.60338,-2.49273 1.07901,-3.68453 0.39957,-1.05638 0.68712,-2.15558 1.05006,-3.22512 0.22713,-0.94997 0.37986,-1.92387 0.55966,-2.88303 0.22526,-1.23853 0.53664,-2.45701 1.02371,-3.62149 0.47591,-1.31864 1.08044,-2.58627 1.7048,-3.84007 0.34111,-0.58794 0.67316,-1.19257 0.96067,-1.80041 0.32682,-0.71346 -0.0659,-2.40019 0.0822,-3.22151 v -4.23178 c 0,-3.58007 1.80812,-5.37022 3.61632,-5.37022 0.15156,0 0.30168,0.0312 0.45217,0.0563 -0.0649,-0.17178 -0.10183,-0.35173 -0.18242,-0.51883 -1.94402,-4.03078 -0.58254,-6.96655 1.63401,-7.11636 z" /></clipPath></defs><g
     id="layer1"
     transform="translate(138.33055,400.95543)"><path
       style="fill:#000000"
       d="m -44.48167,-134.99111 c -4.79419,-1.27252 -8.64708,-4.29203 -10.87479,-8.52258 -0.63857,-1.21268 -1.39051,-2.20487 -1.67098,-2.20487 -0.28047,0 -4.16181,0.71476 -8.62521,1.58835 -16.33168,3.19648 -19.50619,3.51015 -23.71451,2.34322 -3.29015,-0.91233 -5.90558,-2.57998 -9.23312,-5.8872 -5.23076,-5.19882 -9.52693,-12.58602 -10.47036,-18.00361 -1.45547,-8.3579 2.72309,-15.30971 9.73515,-16.19626 4.21922,-0.53345 10.08843,1.60068 13.98325,5.08451 l 1.99193,1.78174 2.79837,-1.48058 c 2.71291,-1.43537 2.84061,-1.56158 4.18168,-4.1329 2.50891,-4.81051 8.03162,-12.73855 17.92674,-25.73447 1.68194,-2.20901 3.00756,-4.0669 2.94581,-4.12864 -0.0617,-0.0618 -5.50396,-1.24607 -12.09381,-2.63184 -13.74346,-2.89009 -18.60037,-4.35616 -25.03432,-7.55667 -7.22515,-3.59408 -12.84706,-8.19725 -17.14519,-14.03835 -2.16398,-2.94081 -4.82074,-8.01453 -5.62871,-10.74937 -0.39159,-1.32548 -0.58394,-1.51726 -1.71005,-1.70503 -7.60776,-1.2685 -14.69237,-6.51438 -18.3861,-13.6142 -4.71058,-9.05434 -3.42748,-20.61145 3.08766,-27.81091 l 1.94059,-2.14442 -0.4481,-5.28943 c -1.48636,-17.54494 2.5484,-37.24687 10.63495,-51.93094 11.10643,-20.16778 28.51908,-35.66951 50.17338,-44.66721 8.60538,-3.57567 20.43798,-6.65736 30.22185,-7.871 4.99325,-0.61939 23.38179,-0.61433 27.86944,0.008 21.0849,2.92241 35.59548,7.59208 49.21164,15.83688 14.23602,8.62013 27.30064,23.61345 34.2672,39.32597 5.06556,11.42498 7.57192,23.22383 7.57455,35.65771 l 0.001,6.26826 1.69389,2.23794 c 3.30232,4.36298 4.83942,10.51322 4.52715,18.11407 -0.20049,4.88023 -1.16954,8.99754 -2.9542,12.55187 -4.10809,8.18169 -12.85821,14.63398 -22.26671,16.41935 -1.60073,0.30376 -2.91041,0.72951 -2.91041,0.94611 0,1.00445 -4.66765,7.30904 -7.88907,10.65577 -8.33608,8.66033 -18.48361,15.23634 -31.44565,20.37804 -2.32833,0.92359 -4.34096,1.74011 -4.47251,1.81449 -0.13155,0.0744 0.51927,1.76011 1.44626,3.74608 8.55033,18.3181 12.53617,36.68851 11.34668,52.29599 -0.63646,8.35109 -2.05087,12.12316 -6.05122,16.13788 -2.94401,2.9546 -6.03227,4.49539 -11.44143,5.70835 -9.24834997,2.07387 -31.45302,6.05339 -41.37532,7.41528 -4.89096,0.67132 -9.15253,0.66584 -11.71773,-0.015 z m 18.87361,-7.69598 c 13.13942,-2.21449 28.2701,-5.10174 30.08388,-5.74064 1.16306,-0.40968 1.67339,-0.85394 2.22661,-1.93836 0.95537,-1.87266 0.65498,-3.20268 -0.94695,-4.19272 -1.80029,-1.11264 -2.41563,-2.51352 -1.93773,-4.41142 0.59499,-2.36295 0.48126,-2.94796 -0.93386,-4.80359 -1.79832,-2.3581 -2.55570997,-2.81258 -3.99794,-2.39895 -1.01014,0.2897 -1.46485,0.15763 -3.69418,-1.07299 -1.39824,-0.77184 -2.73988,-1.40335 -2.98142,-1.40335 -0.24154,0 -1.00822,0.49964 -1.70375,1.11032 -2.03922,1.79047 -5.11598,3.00427 -12.34365,4.86965 -3.73501,0.96396 -6.96263,1.85879 -7.1725,1.98849 -0.24165,0.14935 -0.29852,0.86199 -0.15509,1.94323 l 0.22649,1.70739 -1.86273,-0.85953 c -1.71634,-0.79197 -1.97364,-1.0769 -3.27385,-3.62528 -2.40163,-4.70715 -4.4213,-6.73827 -5.6699,-5.70203 -0.60745,0.50413 -0.58411,0.52237 -1.38106,-1.07946 -2.78586,-5.59943 -7.26216,-3.58394 -9.79381,4.40972 -1.12568,3.55435 -1.13316,10.56703 -0.015,14.11111 1.43567,4.55058 3.6103,7.05147 7.27569,8.36724 2.60976,0.93683 6.56846,0.65637 18.05078,-1.27883 z m 12.52361,-10.80365 c 0,-0.18794 0.23812,-0.3417 0.52916,-0.3417 0.29104,0 0.52917,0.0624 0.52917,0.13864 0,0.0763 -0.23813,0.23002 -0.52917,0.34171 -0.29104,0.11168 -0.52916,0.0493 -0.52916,-0.13865 z m 1.5875,0.0111 c 0.11991,-0.19402 0.44678,-0.35277 0.72637,-0.35277 0.27959,0 0.50835,0.15875 0.50835,0.35277 0,0.19403 -0.32687,0.35278 -0.72638,0.35278 -0.3995,0 -0.62826,-0.15875 -0.50834,-0.35278 z m 2.38125,0.0987 c -0.24254,-0.0866 -0.44098,-0.39373 -0.44098,-0.68246 0,-0.44575 0.0862,-0.43878 0.57117,0.0462 0.62081,0.62081 0.56672,0.88516 -0.13019,0.63626 z m -2.44005,-1.03944 c 0.12935,-0.12935 0.34102,-0.12935 0.47037,0 0.12935,0.12936 0.0235,0.23519 -0.23519,0.23519 -0.2587,0 -0.36453,-0.10583 -0.23518,-0.23519 z m -66.78367,6.05249 c 11.92475,-2.06782 20.15953,-3.79959 20.34317,-4.27816 0.1026,-0.26736 0.0848,-1.02857 -0.0396,-1.69156 l -0.22614,-1.20545 -1.84109,0.18437 c -1.59054,0.15928 -2.02914,0.0557 -3.22293,-0.76153 -1.28735,-0.88122 -1.48409,-0.91727 -2.87736,-0.52717 -2.14022,0.59922 -3.9932,0.17948 -5.56517,-1.26064 -0.7314,-0.67004 -1.70242,-1.21605 -2.16264,-1.21605 -2.22715,0 -4.66666,-3.92291 -5.0137,-8.0624 -0.11624,-1.38651 -0.24831,-2.52093 -0.29349,-2.52093 -0.0452,0 -0.6301,0.22895 -1.29983,0.50878 -2.02971,0.84807 -2.16703,1.21226 -1.90533,5.05315 l 0.23397,3.4339 -1.60787,-2.96592 c -3.55448,-6.55673 -7.36931,-10.19124 -11.34367,-10.80747 -1.10334,-0.17108 -1.57936,-0.043 -2.5606,0.68901 -0.66292,0.49453 -1.49532,1.33896 -1.84976,1.87649 l -0.64445,0.97734 -0.002,-1.6757 c -0.002,-1.79082 -0.27541,-2.04422 -1.13983,-1.05833 -2.21066,2.52128 -2.25818,6.41664 -0.13287,10.89194 0.72015,1.51642 2.17734,4.04825 3.23821,5.62628 2.1196,3.15289 6.53016,7.65917 8.12748,8.30388 4.13304,1.66817 4.80874,1.69604 11.78582,0.48617 z m -16.12883,-8.49159 c -1.01568,-0.9342 -0.42374,-0.81614 0.68589,0.13679 0.37746,0.32416 0.61736,0.37615 0.61736,0.1338 0,-0.21801 0.23812,-0.305 0.52916,-0.19332 0.75615,0.29016 0.65401,0.83313 -0.15671,0.83313 -0.37724,0 -1.1313,-0.40968 -1.6757,-0.9104 z m 2.94483,-0.38296 c 0.14231,-0.54983 0.26206,-1.27524 0.26612,-1.61202 0.004,-0.35614 0.13827,-0.48142 0.32025,-0.29945 0.3675,0.36751 -0.012,2.3963 -0.50535,2.70118 -0.20918,0.12928 -0.24032,-0.17425 -0.081,-0.78971 z m -3.75825,-0.9997 c 0,-0.097 0.0794,-0.17638 0.17639,-0.17638 0.097,0 0.17639,0.0794 0.17639,0.17638 0,0.097 -0.0794,0.17639 -0.17639,0.17639 -0.097,0 -0.17639,-0.0794 -0.17639,-0.17639 z m 3.88056,-1.76388 c 0,-0.097 0.0794,-0.17639 0.17638,-0.17639 0.097,0 0.17639,0.0794 0.17639,0.17639 0,0.097 -0.0794,0.17638 -0.17639,0.17638 -0.097,0 -0.17638,-0.0794 -0.17638,-0.17638 z m 103.50469,9.88594 c 1.01634,-0.67461 2.05761,-1.61843 2.31394,-2.09738 0.64685,-1.20865 0.25861,-3.16738 -1.01428,-5.11724 -2.22702,-3.41144 -2.93053,-4.65025 -2.74575,-4.83503 0.42019,-0.42019 3.53642,1.82769 5.49139,3.96119 l 2.07177,2.26097 0.48017,-1.67645 c 0.2641,-0.92205 0.48122,-3.1052 0.48249,-4.85145 0.002,-2.86941 -0.1212,-3.46361 -1.28092,-6.17361 -0.70577,-1.64924 -1.21634,-3.06808 -1.13458,-3.153 0.0817,-0.0849 0.87955,0.55009 1.77289,1.41111 l 1.62425,1.5655 -0.22524,-4.48142 c -0.61215,-12.17919 -4.99774,-28.44515 -11.2333,-41.66382 l -1.46534,-3.10636 -1.25513,0.21248 c -0.69031,0.11686 -3.19462,0.6416 -5.56512997,1.16608 l -4.31001003,0.9536 -2.92193,4.32485 c -1.60707,2.37867 -6.98135,9.68117 -11.94285,16.22778 -10.52792,13.89139 -12.69048,16.92909 -13.89679,19.52051 -1.25955,2.7058 -1.17287,3.51437 0.54294,5.06449 1.42165,1.28438 1.44828,1.29212 2.38125,0.69207 0.51893,-0.33376 1.68139,-1.21852 2.58324,-1.96614 1.07135,-0.88813 1.84224,-1.28159 2.224,-1.1351 0.52943,0.20317 0.51999,0.29448 -0.10061,0.97287 -1.69924,1.85749 -3.14768,6.4979 -2.20926,7.07787 0.47751,0.29512 3.41674,-0.62128 5.76628,-1.79782 1.50858,-0.75542 1.6757,-0.95936 1.6757,-2.04492 0,-0.66319 0.16786,-1.64733 0.37303,-2.18696 0.44841,-1.17942 0.87851,-0.70053 1.22784,1.36713 0.12342,0.73055 0.34166,1.40075 0.48497,1.48932 0.39482,0.24401 5.18902,-2.94124 7.90492,-5.25201 2.41193,-2.05215 7.64813,-7.7712 7.64813,-8.35341 0,-0.17064 -0.21966,-0.31025 -0.48812,-0.31025 -0.69132,0 -2.96879,-2.61487 -3.29529,-3.78347 -0.15045,-0.53847 -0.26412,-2.56653 -0.25262,-4.50681 0.0172,-2.89412 0.15696,-3.78911 0.77828,-4.98271 0.96226,-1.84854 2.51069,-3.15508 4.09044,-3.45144 1.18280003,-0.2219 1.22736003,-0.2844 1.03738003,-1.4551 -0.2356,-1.45183 0.0406,-1.57336 0.70294,-0.30928 l 0.47887,0.91397 0.60621997,-0.92521 c 0.74701,-1.14007 1.32766,-0.8725 1.05585,0.48655 -0.16398,0.81989 -0.0589,1.05449 0.56021,1.251 0.41912,0.13302 1.19716,0.84253 1.72898,1.57669 l 0.96694,1.33483 2.36016,-5.50993 2.36015,-5.50993 -0.005,2.11667 c -0.003,1.16417 -0.15162,4.11307 -0.33023,6.55312 -0.51827,7.08037 -0.77056,7.6478 -8.37966,18.84688 -3.07505,4.52586 -3.07305,4.46711 -0.19318,5.68876 4.78751,2.03086 10.78546,6.78715 12.33311,9.77997 0.52065,1.00682 0.4047,0.95417 -1.51375,-0.68745 -4.93559,-4.22337 -8.51168,-6.29844 -11.57907997,-6.71887 -1.26248,-0.17304 -2.10201003,-0.0361 -3.72140003,0.60715 l -2.09114,0.8306 1.13063,0.96822 c 1.36767,1.17121 1.47256,1.18413 2.36535,0.29134 0.38806,-0.38805 0.95197003,-0.70555 1.25314003,-0.70555 0.53853,0 5.35568997,4.70928 6.40533997,6.2619 0.39984,0.59144 0.47744,1.26796 0.30435,2.65336 -0.22054,1.76515 -0.17554,1.91284 0.88674,2.91032 2.92162,2.7434 3.63459,4.6396 2.81672,7.49133 -0.18048,0.62931 -0.24707,1.14419 -0.14798,1.14419 0.0991,0 1.01173,-0.55195 2.02806,-1.22655 z m -38.94637,-15.17761 c 0,-0.097 0.0794,-0.17639 0.17639,-0.17639 0.097,0 0.17639,0.0794 0.17639,0.17639 0,0.097 -0.0794,0.17639 -0.17639,0.17639 -0.097,0 -0.17639,-0.0794 -0.17639,-0.17639 z m 37.74722,-7.40833 c 0,-0.097 0.0794,-0.17639 0.17639,-0.17639 0.097,0 0.17639,0.0794 0.17639,0.17639 0,0.097 -0.0794,0.17639 -0.17639,0.17639 -0.097,0 -0.17639,-0.0794 -0.17639,-0.17639 z m -1.5875,-0.50609 c -0.38805,-0.15674 -1.85649,-0.47852 -3.26319,-0.71507 -1.4067,-0.23655 -2.55764,-0.59608 -2.55764,-0.79895 0,-0.7071 5.26949,0.33765 6.53729,1.29612 0.7529,0.56919 0.41085,0.67322 -0.71646,0.2179 z m -9.34860997,-33.36058 c 0,-0.097 0.0794,-0.17639 0.17639,-0.17639 0.097,0 0.17639,0.0794 0.17639,0.17639 0,0.097 -0.0794,0.17639 -0.17639,0.17639 -0.097,0 -0.17639,-0.0794 -0.17639,-0.17639 z m -0.89645,-0.55263 c -0.12789003,-0.20694 -0.15687003,-0.45191 -0.0644,-0.54439 0.0925,-0.0925 0.26214,0.0768 0.37703,0.37625 0.23854,0.62163 0.0352,0.73098 -0.31263,0.16814 z m 1.95478997,0.19985 c 0,-0.097 0.0794,-0.17638 0.17638,-0.17638 0.097,0 0.17639,0.0794 0.17639,0.17638 0,0.097 -0.0794,0.17639 -0.17639,0.17639 -0.097,0 -0.17638,-0.0794 -0.17638,-0.17639 z m 0.35277,-0.70555 c 0,-0.097 0.0794,-0.17639 0.17639,-0.17639 0.097,0 0.17639,0.0794 0.17639,0.17639 0,0.097 -0.0794,0.17639 -0.17639,0.17639 -0.097,0 -0.17639,-0.0794 -0.17639,-0.17639 z m -2.46944,-1.03751 c 0,-0.27959 0.14394003,-0.59731 0.31988003,-0.70605 0.17593,-0.10873 0.23679,0.12003 0.13524,0.50835 -0.21541,0.82373 -0.45512003,0.92786 -0.45512003,0.1977 z m 1.76389003,-0.72638 c 0,-0.097 0.0794,-0.17639 0.17639,-0.17639 0.097,0 0.17638997,0.0794 0.17638997,0.17639 0,0.097 -0.0794,0.17639 -0.17638997,0.17639 -0.097,0 -0.17639,-0.0794 -0.17639,-0.17639 z M -57.41855,-164.09352 c 1.58918,-6.06382 4.72179,-11.4704 7.87926,-13.59884 1.60328,-1.08076 2.33158,-2.39119 4.28707,-7.71366 2.14009,-5.82495 3.51716,-13.39366 3.62536,-19.92592 l 0.0613,-3.69815 -1.14075,-0.23331 c -0.62741,-0.12832 -2.11697,-0.33623 -3.31012,-0.46203 l -2.16937,-0.22872 -5.99722,7.85629 c -12.66342,16.58893 -17.36112,23.98941 -19.75515,31.12109 -1.00655,2.99846 -1.1116,4.97667 -0.35984,6.77589 0.60638,1.45128 1.62387,1.52776 1.83479,0.13791 0.12886,-0.84918 0.63902,-1.95091 2.12356,-4.58611 0.38257,-0.6791 0.90116,-1.62052 1.15241,-2.09205 0.4296,-0.80623 0.48437,-0.81966 0.91894,-0.22535 0.38785,0.53042 0.35436,0.90537 -0.2084,2.3331 -2.24104,5.68556 -1.32622,9.66473 1.91097,8.31214 1.53838,-0.64277 2.16927,-1.61272 2.79577,-4.29831 1.09623,-4.69909 1.98803,-4.6371 1.99682,0.1388 0.007,4.02652 0.75067,5.36633 2.48067,4.47171 0.78951,-0.40827 1.07173,-1.02338 1.87397,-4.08448 z m 10.68016,-37.65787 c -0.0999,-0.16169 0.0495,-0.29398 0.33196,-0.29398 0.2825,0 0.51364,0.13229 0.51364,0.29398 0,0.16169 -0.14938,0.29398 -0.33195,0.29398 -0.18258,0 -0.41372,-0.13229 -0.51365,-0.29398 z m 1.66875,0.0588 c 0.12935,-0.12935 0.34102,-0.12935 0.47037,0 0.12936,0.12936 0.0235,0.23519 -0.23518,0.23519 -0.25871,0 -0.36454,-0.10583 -0.23519,-0.23519 z m 0.58797,-0.64675 c 0,-0.097 0.0794,-0.17639 0.17638,-0.17639 0.097,0 0.17639,0.0794 0.17639,0.17639 0,0.097 -0.0794,0.17638 -0.17639,0.17638 -0.097,0 -0.17638,-0.0794 -0.17638,-0.17638 z m -2.82223,-0.52917 c 0,-0.2587 0.10584,-0.36454 0.23519,-0.23519 0.12935,0.12936 0.12935,0.34102 0,0.47037 -0.12935,0.12936 -0.23519,0.0235 -0.23519,-0.23518 z m 1.05834,-0.17639 c 0,-0.097 0.0794,-0.17639 0.17639,-0.17639 0.097,0 0.17638,0.0794 0.17638,0.17639 0,0.097 -0.0794,0.17639 -0.17638,0.17639 -0.097,0 -0.17639,-0.0794 -0.17639,-0.17639 z m 8.22742,24.15603 c 1.1945,-2.12675 5.11377,-7.43723 9.75664,-13.21992 7.20273,-8.97099 16.17035,-21.1729 15.81896,-21.52428 -0.0626,-0.0626 -0.88839,0.0635 -1.83512,0.2801 -1.66426,0.38084 -1.75418,0.46709 -2.71165,2.60113 -2.63785,5.87926 -8.11657,8.53016 -12.41882,6.00887 -1.37063,-0.80324 -3.77569,-3.34944 -4.20346,-4.45013 -0.0607,-0.15618 -0.98349,-0.20943 -2.05064,-0.11833 l -1.94028,0.16563 -0.003,8.34212 c -0.003,8.6164 -0.36854,12.28272 -1.95483,19.59894 -0.50646,2.33585 -0.58063,3.26441 -0.28887,3.61597 0.59953,0.72239 0.75818,0.60974 1.83084,-1.3001 z m 8.05065,-21.84169 c -1.9652,-1.42149 -3.17156,-2.50563 -2.16696,-1.94743 0.77807,0.43233 4.23333,3.04684 4.23333,3.20325 0,0.22557 -0.11475,0.15583 -2.06637,-1.25582 z m 31.76978,14.90835 c 1.8917,-1.71197 2.91631,-6.50167 1.86484,-8.71748 -1.20722,-2.54405 -4.06124997,-3.09805 -5.99549,-1.16381 -1.35265,1.35266 -1.75092,3.14404 -1.51672,6.82211 0.12991,2.04013 0.27669,2.44579 1.15991,3.2055 0.85114,0.73211 1.2374,0.8336 2.44048003,0.64122 0.78612,-0.1257 1.70725997,-0.48009 2.04697997,-0.78754 z m -25.08127,-21.37519 c 1.1495,-0.76824 3.15338,-3.88818 2.75389,-4.28768 -0.10585,-0.10584 -1.45157,0.11466 -2.99049,0.49 -1.53892,0.37535 -3.5521,0.77961 -4.47373,0.89835 -0.92164,0.11874 -1.6757,0.37535 -1.6757,0.57025 0,1.37149 2.29606,3.12671 4.09297,3.12887 0.6019,7.3e-4 1.63377,-0.35918 2.29306,-0.79979 z m 1.37508,-3.60861 c 0,-0.097 0.0794,-0.17639 0.17639,-0.17639 0.097,0 0.17639,0.0794 0.17639,0.17639 0,0.097 -0.0794,0.17639 -0.17639,0.17639 -0.097,0 -0.17639,-0.0794 -0.17639,-0.17639 z m -9.3076,-4.7866 c 6.5093,-1.25617 9.90402,-3.12793 10.58359,-5.83554 0.65003,-2.58996 -1.57369,-10.03496 -5.16874,-17.30488 -2.92791,-5.92084 -5.0479,-8.58548 -6.83059,-8.58548 -3.49857,0 -8.96984,6.52573 -10.4716,12.48974 -0.52127,2.07017 -0.25419,6.95586 0.54989,10.05889 0.31694,1.22312 0.50349,2.29663 0.41456,2.38557 -0.25718,0.25718 -1.66028,-3.72528 -2.19743,-6.23698 -1.12792,-5.27422 -0.43597,-9.00755 2.64809,-14.2875 2.37515,-4.06626 2.2326,-4.39415 -1.16069,-2.6698 -4.02088,2.04328 -8.43064,6.44345 -10.45363,10.43091 -3.98274,7.85026 -1.65836,16.6629 5.05768,19.17569 4.2689,1.5972 10.05076,1.72601 17.02887,0.37938 z m -29.53054,-1.63481 c -2.05034,-1.85236 -5.7772,-7.17944 -7.41039,-10.59223 -0.76395,-1.59639 -1.82181,-4.45389 -2.35079,-6.35 -0.8629,-3.09303 -0.96198,-4.02779 -0.96365,-9.09191 -0.002,-6.35126 0.61546,-9.35733 2.75144,-13.39317 1.54513,-2.91945 5.18788,-6.50291 8.02667,-7.89603 4.91179,-2.41044 11.46905,-2.09092 17.29452,0.84274 7.48686,3.77033 15.09115,12.77742 20.83603,24.67979 2.98733,6.1892 5.87051,15.75558 5.97077,19.81097 0.0217,0.87853 0.0624,0.91541 0.32799,0.29736 0.16675,-0.38805 0.31434,-1.11902 0.32798,-1.62437 0.0244,-0.90375 0.087,-0.92585 3.81715,-1.34847 23.50506,-2.66306 47.57775,-13.76568 58.67214,-27.06031 2.25544,-2.70275 3.85772,-4.8436 3.85772,-5.15442 0,-0.0845 -0.64441,-0.36633 -1.43201,-0.62627 -0.78761,-0.25993 -2.05354,-1.11295 -2.81318,-1.8956 -1.50487,-1.55045 -3.93875,-5.75982 -3.12624,-5.40681 5.80949,2.52407 9.41084,3.07955 14.39039,2.21958 7.93452,-1.3703 14.01086,-5.22091 17.93665,-11.36657 2.79012,-4.36782 4.24923,-11.10031 3.57781,-16.50843 -0.79816,-6.42894 -3.67817,-11.09903 -8.2487,-13.37571 -4.39871,-2.1911 -7.83733,-2.14877 -12.48386,0.15368 -2.49152,1.23459 -3.60809,2.09135 -6.42479,4.9298 -1.91039,1.92514 -4.04707,4.49871 -4.86014,5.85387 -0.79803,1.33011 -1.45183,2.29238 -1.45289,2.13838 -0.004,-0.5182 2.54612,-7.11165 3.43863,-8.89223 2.51846,-5.02442 6.29802,-9.24378 9.82676,-10.97023 2.78977,-1.36491 7.53976,-1.59807 10.54518,-0.51762 1.16417,0.41851 2.4203,0.85819 2.79141,0.97707 0.64942,0.20803 0.66612,0.0361 0.44474,-4.57976 -0.57941,-12.08137 -3.59062,-23.43855 -8.9837,-33.88323 l -1.97152,-3.81821 -0.63071,0.8196 c -0.83057,1.07933 -1.13669,2.77847 -0.88438,4.90883 0.1128,0.95238 0.11446,1.73161 0.004,1.73161 -0.11076,0 -0.74414,-0.47655 -1.40751,-1.05899 -1.76715,-1.55158 -4.30578,-2.72997 -6.91823,-3.21133 -2.09186,-0.38544 -2.40796,-0.36192 -3.46977,0.25821 -1.47109,0.85916 -2.67088,3.15895 -3.19738,6.12877 l -0.40651,2.29306 -0.49055,-1.463 c -0.5856,-1.74645 -2.57347,-3.89401 -4.25468,-4.59646 -1.67531,-0.69999 -3.02368,-0.31476 -4.72077,1.34873 l -1.42696,1.39871 0.24229,-1.43412 c 0.19864,-1.17575 0.0806,-1.71012 -0.65545,-2.96602 -1.16145,-1.98186 -6.76879,-6.22406 -8.22059,-6.21925 -1.29537,0.004 -4.19315,1.67659 -5.89275,3.40069 l -1.3392,1.3585 0.55885,-1.366 c 0.69971,-1.71029 0.71863,-4.18089 0.042,-5.48925 -0.95516,-1.84708 -5.59546,-4.25725 -8.19648,-4.25725 -0.7451,0 -0.67132,-0.1464 0.76959,-1.52703 1.39571,-1.33733 1.59369,-1.71158 1.59369,-3.01266 0,-1.77738 -0.92631,-3.71827 -2.52934,-5.29969 -1.99391,-1.96704 -3.64567,-2.61643 -7.09998,-2.79134 l -3.10292997,-0.15712 3.08174997,-1.3654 c 4.75482,-2.10665 6.2297,-3.99592 5.43203,-6.95824 -0.41765,-1.55101 -2.28161,-3.4301 -3.77405,-3.80468 -0.87012,-0.21839 -0.82536,-0.26937 0.76719,-0.87389 0.93016,-0.35308 2.1311,-1.06341 2.66875,-1.57851 1.19469,-1.1446 1.97149,-2.87431 1.50177,-3.34403 -0.46419,-0.46419 -9.96387997,-2.66147 -15.28963,-3.53649 -7.94582,-1.3055 -13.06068,-1.72714 -20.99028,-1.7303 -14.56836,-0.006 -26.39433,2.09295 -38.59418,6.84932 -13.26102,5.17009 -23.20155,11.46475 -32.23156,20.41005 -16.91201,16.75336 -25.23923,34.67182 -27.06967,58.24832 -0.41952,5.40341 -0.41968,9.64461 -4.1e-4,10.6203 0.29192,0.67934 0.30411,0.67674 0.32798,-0.07 0.0427,-1.33501 1.81714,-6.52346 3.11298,-9.10224 5.44397,-10.83372 14.50285,-17.10305 26.75973,-18.51945 12.36715,-1.42914 24.1506,4.21511 29.15891,13.96707 3.49991,6.81487 4.72381,12.41106 4.3823,20.03764 -0.31697,7.07838 -1.82264,12.86579 -5.14931,19.79252 -2.15708,4.49145 -10.07637,15.8344 -10.90509,15.61955 -0.13139,-0.0341 -1.02404,0.44604 -1.98366,1.0669 -0.95962,0.62085 -1.85699,1.12883 -1.99417,1.12883 -0.13717,0 0.84641,-1.05792 2.18573,-2.35094 1.33933,-1.29301 2.43515,-2.47706 2.43515,-2.63122 0,-0.15416 -1.15094,0.33456 -2.55764,1.08604 -6.43433,3.4373 -14.46316,4.25661 -22.31319,2.27697 -5.16246,-1.30189 -11.95355,-5.7485 -14.96753,-9.80032 -0.66506,-0.89407 -1.26172,-1.57305 -1.32592,-1.50885 -0.13876,0.13877 1.4115,3.87714 3.23998,7.81304 0.72111,1.55222 1.94295,4.64667 2.71519,6.87656 2.87662,8.30637 5.92311,13.42042 10.67321,17.91678 6.19632,5.86534 14.25425,10.00616 24.48561,12.58271 3.76247,0.9475 9.25258,1.95579 10.6587,1.95754 0.59526,7.4e-4 1.48451,0.55445 2.58706,1.61088 1.48947,1.42716 2.65147,2.17917 3.47429,2.24844 0.14608,0.0123 -0.38498,-0.5654 -1.18013,-1.28377 z m 60.90675003,-16.05847 c -0.66989,-0.95641 -0.74817,-2.87229 -0.10819,-2.64793 0.24253,0.085 0.39655,0.56639 0.34225,1.06969 -0.0702,0.65071 0.13365,1.0428 0.70555997,1.35714 1.05403,0.57933 1.68621,0.67214 1.68621,0.24756 0,-0.18831 0.1757,-0.2338 0.39045,-0.10108 0.55764,0.34465 -0.33465,0.84654 -1.51697,0.85327 -0.58626,0.003 -1.16044997,-0.29487 -1.49930997,-0.77865 z m 2.01211997,-1.0483 c -0.0446,-0.59198 0.0279,-0.62414 0.50813,-0.22556 0.49044,0.40704 0.5289,0.36646 0.30909,-0.32611 -0.1872,-0.5898 -0.11042,-0.79098 0.30189,-0.79098 0.36808,0 0.55285,0.32433 0.55269,0.97014 -2e-4,0.76301 -0.17314,0.98004 -0.81002,1.01653 -0.56897,0.0326 -0.82524,-0.15892 -0.86178,-0.64402 z m -1.15017,0.24485 c 0,-0.097 0.0794,-0.17639 0.17638,-0.17639 0.097,0 0.17639,0.0794 0.17639,0.17639 0,0.097 -0.0794,0.17639 -0.17639,0.17639 -0.097,0 -0.17638,-0.0794 -0.17638,-0.17639 z m 0.35277,-0.70556 c 0,-0.097 0.0794,-0.17639 0.17639,-0.17639 0.097,0 0.17639,0.0794 0.17639,0.17639 0,0.097 -0.0794,0.17639 -0.17639,0.17639 -0.097,0 -0.17639,-0.0794 -0.17639,-0.17639 z m -99.25282,-6.36698 c -1.6728,-1.62461 -1.72589,-2.90393 -0.17465,-4.20921 1.1571,-0.97363 1.73081,-0.9914 3.92953,-0.12169 2.0231,0.80024 2.53753,3.86896 0.84708,5.053 -1.36789,0.95811 -3.16173,0.67663 -4.60196,-0.7221 z m 3.65005,-1.96512 c 0,-0.32126 -1.75039,-1.72206 -2.15183,-1.72206 -0.16103,0 -0.46076,0.31386 -0.66606,0.69747 -0.29606,0.55318 -0.2273,0.84345 0.33236,1.40311 0.433,0.433 0.93555,0.61741 1.30068,0.4773 0.43726,-0.16779 0.52599,-0.0955 0.33462,0.27258 -0.14323,0.27551 -0.0105,0.19277 0.29491,-0.18386 0.30543,-0.37663 0.55532,-0.80168 0.55532,-0.94454 z m 120.99651,0.48291 c -0.5702,-0.72489 -0.71421,-1.27086 -0.56985,-2.16042 0.27852,-1.71633 1.14214,-2.514 2.72185,-2.514 1.55857,0 2.79315,1.24743 2.79315,2.82222 0,2.63043 -3.34692,3.88401 -4.94515,1.8522 z m 2.84055,-1.52197 c 0.49486,-0.92465 -0.15633,-1.82178 -1.21232,-1.67017 -0.85828,0.12324 -1.15824,1.15265 -0.54957,1.88606 0.59962,0.72249 1.30601,0.63594 1.76189,-0.21589 z m 3.67525,-2.67479 c -0.53643,-0.57883 -0.86304,-1.34948 -0.85969,-2.02848 0.003,-0.60225 0.12203,-0.92034 0.26458,-0.70685 0.41317,0.61878 1.72278,1.19934 2.70543,1.19934 1.10391,0 1.19128,0.77219 0.19958,1.76389 -0.92543,0.92543 -1.27278,0.89116 -2.3099,-0.2279 z m -23.72509,-2.66488 c -0.78111,-0.7811 -0.43448,-1.36078 1.25236,-2.09438 6.77001,-2.94424 7.91786,-3.16686 8.40559,-1.63019 0.32502,1.02407 -1.27608,2.42744 -3.88168,3.40232 -2.19272,0.82041 -5.11508,0.98344 -5.77627,0.32225 z m -110.94766,-1.47604 c -2.29986,-0.85567 -7.30344,-4.68785 -7.30344,-5.59362 0,-0.2108 0.27258,-0.14438 0.61736,0.15044 3.73333,3.19237 11.44044,5.58077 16.49236,5.11092 1.71401,-0.15941 1.94889,-0.12387 1.23472,0.18685 -1.43879,0.62599 -9.46518,0.73169 -11.041,0.14541 z m 2.92711,-0.0409 c 0,-0.097 -0.0794,-0.17639 -0.17639,-0.17639 -0.097,0 -0.17639,0.0794 -0.17639,0.17639 0,0.097 0.0794,0.17639 0.17639,0.17639 0.097,0 0.17639,-0.0794 0.17639,-0.17639 z m 0.94074,-0.0588 c -0.12935,-0.12935 -0.34102,-0.12935 -0.47037,0 -0.12935,0.12935 -0.0235,0.23519 0.23519,0.23519 0.2587,0 0.36453,-0.10584 0.23518,-0.23519 z m -2.09462,-0.33073 c -0.11722,-0.11722 -0.42149,-0.12976 -0.67615,-0.0278 -0.28143,0.11262 -0.19783,0.19621 0.21313,0.21314 0.37189,0.0153 0.58025,-0.0681 0.46302,-0.18529 z m -2.02112,-0.66881 c 0,-0.097 -0.0794,-0.17639 -0.17639,-0.17639 -0.097,0 -0.17639,0.0794 -0.17639,0.17639 0,0.097 0.0794,0.17639 0.17639,0.17639 0.097,0 0.17639,-0.0794 0.17639,-0.17639 z m 130.40605,-2.23264 c -0.61229,-0.67658 -0.76239,-2.05554 -0.30249,-2.77913 0.19145,-0.30123 0.62073,-0.0984 1.46841,0.69384 0.75356,0.70426 1.25121,0.95947 1.34168,0.68805 0.15765,-0.47294 0.78912,-0.23342 0.78912,0.29931 0,0.57443 -1.38246,1.74307 -2.06199,1.74307 -0.35799,0 -0.91361,-0.29031 -1.23473,-0.64514 z m -21.7505,-0.2368 c 0,-0.097 0.0794,-0.17639 0.17639,-0.17639 0.097,0 0.17638,0.0794 0.17638,0.17639 0,0.097 -0.0794,0.17639 -0.17638,0.17639 -0.097,0 -0.17639,-0.0794 -0.17639,-0.17639 z m 1.05833,-0.17148 c 0.29104,-0.19079 0.73755,-0.34931 0.99225,-0.35229 0.25469,-0.003 2.87407,-1.1789 5.82083,-2.61319 7.20265,-3.50575 11.58668,-6.75642 15.24313,-11.30246 1.50334,-1.86909 2.80659,-3.3251 2.89611,-3.23557 0.33852,0.33851 -2.11343,4.37935 -3.88292,6.3991 -3.66584,4.1843 -7.0597,6.87532 -10.70315,8.48663 -2.76749,1.22391 -11.66909,3.47183 -10.36625,2.61778 z m 12.17083,-4.23824 c 0.11992,-0.19403 0.13866,-0.35278 0.0416,-0.35278 -0.097,0 -0.2745,0.15875 -0.39441,0.35278 -0.11992,0.19402 -0.13866,0.35277 -0.0416,0.35277 0.097,0 0.2745,-0.15875 0.39441,-0.35277 z m -26.10555,0.009 c -6.98195,-0.81934 -14.16911,-3.50035 -19.40278,-7.23777 -5.04644,-3.60372 -10.81186,-10.83192 -13.18306,-16.52781 -4.12862,-9.91739 -4.52439,-20.59049 -1.10718,-29.85846 4.45339,-12.07825 13.86088,-21.24589 25.13513,-24.49429 7.5048,-2.16233 15.96317,-1.90397 23.24178,0.70992 9.69879,3.48303 18.54609,10.8484 23.68768,19.71998 1.83463,3.16558 3.77554,8.32531 4.565,12.13561 1.01214,4.88507 0.75183,12.6172 -0.5772,17.14495 -1.89207,6.44589 -4.8403,11.50872 -9.52346,16.35403 -4.48299,4.63822 -9.2065,7.90914 -14.05169,9.73046 -5.1597,1.93954 -13.38530997,2.95695 -18.78422,2.32338 z m 12.93828,-5.96075 c 12.23782,-3.20425 21.24969,-11.92085 24.30168,-23.50546 1.51883,-5.76508 1.27715,-13.34688 -0.61822,-19.39443 -3.60233,-11.49397 -14.12761,-21.47347 -25.86202,-24.52098 -4.59482997,-1.19332 -10.80599,-1.34131 -15.5135,-0.36965 -10.47463,2.16203 -18.26051,8.20573 -22.96552,17.82673 -2.05543,4.20303 -3.08655,7.97095 -3.42717,12.52361 -0.5176,6.91795 0.52771,12.60203 3.406,18.52084 5.39363,11.09124 14.10549,17.57671 26.32936,19.60064 3.04481,0.50414 11.32304,0.11109 14.34939,-0.6813 z m 43.88687,-2.2506 c -0.91427,-3.26765 -1.09281,-8.02124 -0.42068,-11.20069 0.87565,-4.14226 2.71053,-7.47605 5.8316,-10.59548 3.29313,-3.2914 5.76364,-4.6004 9.12689,-4.83591 2.23438,-0.15646 2.46516,-0.0992 4.1018,1.01822 1.6818,1.14823 3.32591,3.50113 3.90866,5.59373 0.21518,0.77269 0.11038,0.72201 -0.846,-0.40914 -1.30405,-1.54237 -4.30164,-3.11864 -5.9307,-3.11864 -0.84842,0 -1.49222,0.31633 -2.33344,1.14653 -0.63896,0.63059 -2.0621,1.69172 -3.16254,2.35807 -1.10044,0.66635 -1.93782,1.27453 -1.86085,1.3515 0.077,0.077 0.48465,-0.0445 0.90594,-0.26999 1.39819,-0.74829 1.07151,-0.14511 -0.53451,0.98692 -0.87019,0.61336 -1.58216,1.24703 -1.58216,1.40815 0,0.16111 0.7383,1.15657 1.64067,2.21213 2.01071,2.35205 2.63676,3.78111 2.69211,6.14522 0.0492,2.10163 -1.18458,4.59122 -2.87009,5.79141 -1.08723,0.77417 -3.44765,1.42544 -5.2162,1.43921 -0.96391,0.008 -1.20453,0.21467 -1.85389,1.59613 -0.41042,0.87312 -0.79875,1.5875 -0.86296,1.5875 -0.0642,0 -0.39435,-0.99219 -0.73365,-2.20487 z m -109.40507,-5.7166 c -2.15629,-2.15628 -0.16949,-6.37526 3.58589,-7.61464 2.07799,-0.6858 5.52021,-0.24858 7.43935,0.94491 2.18951,1.36163 3.08587,2.64362 3.08587,4.41343 0,2.91898 -2.9759,3.72712 -5.65145,1.53471 -0.82875,-0.6791 -1.64176,-1.23472 -1.80669,-1.23472 -0.16493,0 -1.06831,0.635 -2.00751,1.41111 -2.02851,1.67627 -3.35833,1.83234 -4.64546,0.5452 z m 120.48964,-13.77437 c 0,-0.097 0.0794,-0.17639 0.17638,-0.17639 0.097,0 0.17639,0.0794 0.17639,0.17639 0,0.097 -0.0794,0.17639 -0.17639,0.17639 -0.097,0 -0.17638,-0.0794 -0.17638,-0.17639 z m -15.1941,-42.95708 c -2.1271,-1.43345 -2.18205,-3.99525 -0.12711,-5.92577 0.63518,-0.59672 1.22947,-0.78527 2.35288,-0.7465 2.11288,0.0729 3.44333,1.54156 3.44333,3.80095 0,3.1675 -2.98565,4.6797 -5.6691,2.87132 z m 2.77532,-1.40669 c 0.20218,-0.24362 0.47856,-0.88502 0.61417,-1.42533 0.49485,-1.97163 -2.01695,-3.22499 -3.16844,-1.58101 -0.75343,1.07567 -0.69229,1.57435 0.31673,2.58337 0.95808,0.95808 1.68016,1.09457 2.23754,0.42297 z m 12.24239,-3.79039 c 0.11991,-0.19403 0.28803,-0.35278 0.37359,-0.35278 0.0856,0 0.15557,0.15875 0.15557,0.35278 0,0.19403 -0.16812,0.35278 -0.37359,0.35278 -0.20548,0 -0.27549,-0.15875 -0.15557,-0.35278 z m -0.88195,-0.88194 c 0,-0.097 0.0794,-0.17639 0.17639,-0.17639 0.097,0 0.17639,0.0794 0.17639,0.17639 0,0.097 -0.0794,0.17639 -0.17639,0.17639 -0.097,0 -0.17639,-0.0794 -0.17639,-0.17639 z m -158.36066,-1.77617 c -1.92366,-2.19092 -1.31038,-5.0077 1.5615,-7.17197 3.30128,-2.48787 10.06106,-5.34244 12.63842,-5.33704 2.1912,0.005 4.07931,1.86726 4.09676,4.04155 0.01,1.24199 -0.20395,1.6015 -1.91657,3.22102 -3.12974,2.95961 -10.69408,6.49344 -13.89954,6.49344 -1.14457,0 -1.57621,-0.21699 -2.48057,-1.247 z m 158.71344,1.07061 c 0,-0.097 0.0794,-0.17639 0.17639,-0.17639 0.097,0 0.17639,0.0794 0.17639,0.17639 0,0.097 -0.0794,0.17639 -0.17639,0.17639 -0.097,0 -0.17639,-0.0794 -0.17639,-0.17639 z m 2.46944,-0.70555 c 0,-0.097 0.0794,-0.17639 0.17639,-0.17639 0.097,0 0.17639,0.0794 0.17639,0.17639 0,0.097 -0.0794,0.17638 -0.17639,0.17638 -0.097,0 -0.17639,-0.0794 -0.17639,-0.17638 z m -0.11759,-0.76436 c -0.12935,-0.12935 -0.23036,-0.48654 -0.22446,-0.79375 0.009,-0.45872 0.0777,-0.44348 0.38512,0.0853 0.37986,0.65323 0.26974,1.13889 -0.16066,0.70849 z m -83.76066,-9.4653 c -6.4883,-1.17613 -10.07842,-3.02148 -10.93761,-5.62204 -0.83082,-2.51465 0.27785,-5.08785 2.61238,-6.06327 3.25399,-1.3596 15.02466,0.27761 18.81906,2.61758 4.16073,2.56589 4.27105,7.0831 0.21794,8.9238 -1.74997,0.79475 -6.75077,0.86194 -10.71177,0.14393 z m 17.90882,-34.57312 c 0,-0.097 0.0794,-0.17639 0.17638,-0.17639 0.097,0 0.17639,0.0794 0.17639,0.17639 0,0.097 -0.0794,0.17639 -0.17639,0.17639 -0.097,0 -0.17638,-0.0794 -0.17638,-0.17639 z m -0.29708,-1.23472 c 0,-0.48507 0.0801,-0.68351 0.17794,-0.44097 0.0979,0.24253 0.0979,0.63941 0,0.88194 -0.0979,0.24254 -0.17794,0.0441 -0.17794,-0.44097 z m 1.35541,-1.41111 c 0,-0.25871 0.10583003,-0.36454 0.23518003,-0.23519 0.12936,0.12935 0.12936,0.34102 0,0.47037 -0.12935,0.12936 -0.23518003,0.0235 -0.23518003,-0.23518 z m -118.01097,129.20485 c -1.96769,-4.69587 -4.75569,-14.98563 -4.75569,-17.55199 0,-0.48436 -0.14719,-0.88065 -0.32709,-0.88065 -0.63029,0 -2.52315,2.66094 -3.01139,4.23333 l -0.49293,1.5875 -0.0226,-2.46944 c -0.0291,-3.17835 0.41626,-4.717 1.94498,-6.71975 l 1.2374,-1.62107 -0.34391,-3.71187 c -0.18916,-2.04152 -0.43943,-3.80737 -0.55616,-3.92411 -0.11674,-0.11673 -1.0596,0.68382 -2.09524,1.779 -3.13227,3.31232 -4.44694,6.7743 -4.44694,11.7103 0,5.83093 1.70907,10.03113 5.53979,13.61459 1.24011,1.16006 3.31878,2.65541 4.61928,3.32301 2.72602,1.39937 3.06553,1.47843 2.7105,0.63115 z m 61.60208,-1.90204 c 2.05448,-0.68998 2.43389,-1.24065 2.43389,-3.5325 v -2.06199 h -1.40397 c -1.965,0 -4.20242,0.96027 -4.43964,1.90545 -0.22129,0.8817 0.34277,2.57036 1.16034,3.47377 0.66132,0.73074 0.70272,0.73471 2.24938,0.21527 z m -26.67027,-3.26273 c 4.93133,-1.68995 9.81439,-5.26681 12.46624,-9.13156 4.4664,-6.50925 6.61198,-14.59949 6.31821,-23.82387 -0.19815,-6.22225 -0.92077,-9.31061 -3.31742,-14.1782 -1.37496,-2.79251 -2.15397,-3.8507 -4.6778,-6.3542 -3.36431,-3.33719 -6.02321,-4.86521 -10.42488,-5.99096 -11.41076,-2.91838 -22.63098,0.79295 -29.85388,9.87481 -7.1782,9.02566 -9.09527,21.15607 -5.03483,31.85819 2.03339,5.3594 7.49132,12.15423 11.8948,14.80838 5.69031,3.42977 8.48563,4.17649 15.04484,4.01895 4.0838,-0.0981 5.16469,-0.25221 7.58472,-1.08154 z M 43.3,-348.58607 c 1.05132,-0.22547 2.06927,-0.72561 2.57501,-1.26514 0.72743,-0.77605 0.83214,-1.22143 0.80392,-3.41949 -0.0202,-1.57019 -0.34505,-3.5379 -0.85795,-5.19608 l -0.82551,-2.66885 -2.31705,0.64965 c -2.64528,0.74169 -4.10627,0.62001 -7.16734,-0.59694 l -2.02807,-0.80628 -1.10287,1.25609 c -1.37319,1.56399 -1.91967,2.89115 -2.19121,5.32152 -0.19632,1.75708 -0.13853,1.96585 0.78126,2.82222 1.36699,1.27275 6.16802,3.58794 8.12839,3.91974 2.31898,0.39249 2.29416,0.39259 4.20142,-0.0164 z m 12.76549,-2.40106 c 0.67607,-0.36149 1.51159,-1.13802 1.85671,-1.72563 l 0.62749,-1.06837 -2.19608,-3.28316 c -1.20784,-1.80574 -3.17076,-4.31196 -4.36205,-5.56939 l -2.16598,-2.28622 -1.45844,1.17203 c -0.80214,0.64462 -1.3744,1.308 -1.2717,1.47418 0.10271,0.16619 -0.14013,0.30215 -0.53964,0.30215 -0.98247,0 -0.91927,0.69258 0.28262,3.09687 0.55494,1.11013 1.37169,3.12019 1.81499,4.4668 1.08757,3.30369 1.90579,4.078 4.30924,4.078 1.15269,0 2.34659,-0.2529 3.10284,-0.65726 z m -9.88328,-10.10246 c 0,-0.097 0.0794,-0.17639 0.17639,-0.17639 0.097,0 0.17639,0.0794 0.17639,0.17639 0,0.097 -0.0794,0.17639 -0.17639,0.17639 -0.097,0 -0.17639,-0.0794 -0.17639,-0.17639 z m -20.35742,4.38689 c 1.34632,-0.37386 6.24631,-4.59811 6.24631,-5.38489 0,-0.21085 -0.59407,-0.99174 -1.32015,-1.73532 -0.72609,-0.74358 -1.97341,-2.41715 -2.77184,-3.71904 l -1.4517,-2.36709 -1.57818,0.052 c -2.70628,0.0892 -7.03701,2.76797 -8.24199,5.09813 -0.28113,0.54365 -0.51114,1.58385 -0.51114,2.31157 0,1.15102 0.27119,1.58686 2.08484,3.35058 2.66785,2.5944 4.60669,3.2097 7.54385,2.39406 z m 17.82464,-8.09745 c 0.95935,-0.4127 2.1995,-1.23013 2.75589,-1.81651 l 1.01161,-1.06615 -2.64583,-2.49621 c -2.75739,-2.60146 -8.82952,-7.28975 -10.68255,-8.24799 -0.96927,-0.50123 -1.18224,-0.50214 -2.2154,-0.009 -3.07806,1.46783 -4.19773,5.50995 -2.5333,9.14553 0.92741,2.02575 2.02749,3.01117 4.66296,4.17696 3.45238,1.52715 6.58897,1.6292 9.64662,0.31383 z m -25.73559,-4.01968 c 1.77636,-1.07655 5.39652,-2.44515 7.26283,-2.74571 0.53141,-0.0856 0.83794,-0.67915 1.33171,-2.57872 0.35278,-1.35715 0.55243,-2.8352 0.44368,-3.28455 -0.2952,-1.21967 -2.31949,-1.90451 -6.20857,-2.10041 -3.93634,-0.19828 -6.33321,0.40121 -7.8231,1.9567 -1.01869,1.06353 -2.01596,3.19203 -2.01596,4.30271 0,0.87095 3.8299,5.65383 4.52732,5.65383 0.27261,0 1.38956,-0.54173 2.48209,-1.20385 z m 12.65346,-10.48624 c 0.29975,-0.29975 0.0723,-0.62529 -0.89958,-1.28739 -3.44968,-2.35018 -13.63482,-6.77807 -15.59105,-6.77807 -0.46778,0 -0.85869,0.55217 -1.383,1.95351 -1.64751,4.40335 -1.06507,4.74926 7.99681,4.74926 6.5473,0 6.67721,0.0146 7.85284,0.88195 1.36171,1.00463 1.47353,1.03119 2.02398,0.48074 z m -0.61287,-0.48074 c 0,-0.097 0.0794,-0.17639 0.17639,-0.17639 0.097,0 0.17639,0.0794 0.17639,0.17639 0,0.097 -0.0794,0.17639 -0.17639,0.17639 -0.097,0 -0.17639,-0.0794 -0.17639,-0.17639 z"
       id="path294" /></g></svg>
