<?xml version="1.0" encoding="UTF-8" standalone="no"?>
<!-- Created with Inkscape (http://www.inkscape.org/) -->

<svg
   width="269.42722mm"
   height="286.44064mm"
   viewBox="0 0 269.42727 286.44063"
   version="1.1"
   id="svg1"
   xml:space="preserve"
   xmlns="http://www.w3.org/2000/svg"
   xmlns:svg="http://www.w3.org/2000/svg"><defs
     id="defs1"><clipPath
       clipPathUnits="userSpaceOnUse"
       id="clipPath6"><path
         id="path7"
         style="fill:#ff0000;fill-opacity:1;fill-rule:nonzero;stroke:none;stroke-width:0.264583"
         d="M -175.07778,-16.057127 V 287.55793 H 124.54631 V -16.057127 Z m 132.7459,202.572647 c 0.210643,0.005 0.427212,0.0169 0.650089,0.0367 2.23823,0.19855 4.475655,0.4031 6.717938,0.55346 1.973313,0.11308 0.986628,0.0436 2.958475,0.20825 3.181295,0.26563 4.740125,1.85116 4.950601,3.46956 4.949923,1.63749 3.796379,7.35609 -2.592089,6.81354 -3.228716,-0.27422 -1.569593,-0.1301 -4.979024,-0.43357 -4.228209,-0.39317 -8.460616,-0.76265 -12.666927,-1.35341 -6.647387,-0.93358 -5.930551,-7.21034 0.03204,-7.20421 0.04685,5e-5 0.0972,0.004 0.144695,0.005 0.687229,-1.21692 2.304132,-2.15435 4.784204,-2.09548 z" /></clipPath><clipPath
       clipPathUnits="userSpaceOnUse"
       id="clipPath76"><path
         id="path77"
         style="fill:#ff0000;fill-opacity:1;fill-rule:nonzero;stroke:none;stroke-width:0.264583"
         d="M -133.83107,-122.52355 V 173.82063 H 122.97289 V -122.52355 Z M 13.574404,98.948202 c 2.788179,0.0507 4.135003,2.063798 3.398242,4.077268 0.199805,0.45372 0.374906,0.96736 0.517797,1.54461 1.07913,4.35948 0.671079,8.891 0.311608,13.31495 -0.351859,3.06036 -0.147137,1.57974 -0.604097,4.44366 -0.359666,2.25418 -1.333846,3.66838 -2.455664,4.32532 0.105138,0.36595 0.224724,0.72888 0.324528,1.09554 0.6273,2.23652 0.575201,4.47401 0.39429,6.75514 -0.137303,1.73129 -0.688065,2.99533 -1.427303,3.82199 -0.112477,0.41601 -0.170275,0.80219 -0.311092,1.25212 -0.184975,0.59102 -0.413327,1.1061 -0.670242,1.55856 0.741137,-0.23134 1.446982,-0.38145 2.064991,-0.37517 4.085002,0.0415 5.222724,4.75435 -0.02223,7.27138 -4.46677,2.14368 -9.303523,3.34693 -14.11903492,4.40955 -4.40876268,0.85156 -8.89238128,1.33053 -13.38264308,1.19269 -5.804014,-0.17807 -6.736297,-5.00293 -3.065447,-6.67298 -2.072987,-0.65744 -4.042852,-1.62261 -4.128947,-3.14709 -0.02802,-0.49633 0.0026,-0.90355 0.0341,-1.30897 -1.976731,-0.003 -3.95339,2.4e-4 -5.930386,0.003 -0.814031,0 -1.53062,-0.0962 -2.159559,-0.26149 -0.376306,0.19492 -0.742394,0.40783 -1.120862,0.59893 -6.391272,3.22657 -9.625245,-3.24074 -3.234428,-6.46886 1.833438,-0.92611 3.62694,-1.92211 5.414142,-2.92954 -0.877003,-3.87058 -1.368747,-7.83436 -1.323951,-11.80858 0.01651,-1.46304 0.376836,-2.54918 0.864547,-3.41426 -1.247357,-1.79999 -0.223805,-4.63069 3.842661,-5.68855 3.11826,-0.81116 6.282901,-1.39515 9.473837,-1.82211 -1.259816,-0.12657 -2.516182,-0.30233 -3.764627,-0.50177 -1.477002,-0.21985 -2.935575,-0.54305 -4.407482,-0.7891 -1.14214,-0.22954 -0.588502,-0.12004 -1.660882,-0.3297 -3.350244,-0.65501 -4.783278,-2.61088 -4.608504,-4.32997 -0.200179,-1.7721 1.333365,-3.52972 4.663799,-3.59461 v -5.3e-4 c 0.20954,-0.004 0.426035,-0.002 0.649571,0.008 1.77111,0.0772 3.528708,0.28204 5.26428,0.64027 1.655035,0.33225 3.314115,0.6481 4.955251,1.04439 1.244759,0.34858 2.51628,0.54538 3.7997689,0.6723 0.025956,0.002 0.052073,0.002 0.078034,0.004 0.4990888,-0.0371 0.9984105,-0.0743 1.4965495,-0.11317 1.346872,-0.12588 2.6913231,-0.25136 4.0457464,-0.24236 1.1278499,-0.0444 2.2567291,-0.10772 3.37498791,-0.26872 0.75719517,-0.11591 1.51142439,-0.25483 2.25722659,-0.4284 0.3616431,-0.12394 0.7240561,-0.24538 1.083138,-0.37775 0.3360393,-0.12388 0.6107589,-0.12825 0.9250071,-0.20723 0.1281086,-0.045 0.2583895,-0.0825 0.3855085,-0.13074 1.9825018,-0.7681 3.9540551,-1.56464 5.9510551,-2.29443 1.050809,-0.383992 1.999634,-0.542639 2.826703,-0.527616 z M 0.70283723,110.39557 c -0.45566013,0.0949 -0.90775367,0.208 -1.36890919,0.2744 -1.16638124,0.15534 -2.34111274,0.24237 -3.51761424,0.26251 0.4031694,0.0896 0.8047355,0.18876 1.2025101,0.308 0.1014836,0.0304 0.1982549,0.075 0.2986907,0.10852 0.4205235,-0.21824 0.9206601,-0.35072 1.4898318,-0.37156 0.39885139,-0.0146 0.83259872,0.0278 1.29449508,0.13023 0.22468681,-0.12213 0.44967525,-0.24374 0.67437529,-0.36587 -0.0326284,-0.11319 -0.058211,-0.22834 -0.0733795,-0.34623 z m 10.24433577,1.02474 c -0.76023,0.21437 -1.5189569,0.4343 -2.2696301,0.68006 -0.031261,0.62207 -0.2256075,1.28373 -0.6464723,1.94355 0.6236891,0.43248 1.2549743,1.04482 1.8634525,1.86862 0.2674939,0.36214 0.4748849,0.75712 0.7188199,1.13223 0.154519,-1.86707 0.314174,-3.74736 0.33383,-5.62446 z m 64.566086,3.39773 c 1.50346,0.0187 3.129182,1.24994 3.928441,4.04678 0.257931,0.90255 0.823497,1.65871 1.488797,2.30735 0.856321,0.95375 1.845738,1.76777 2.801898,2.61638 1.458581,1.46408 2.789203,3.04608 4.169772,4.58215 1.315059,1.44746 2.571226,2.91698 3.543967,4.61884 0.0053,0.01 0.0082,0.0206 0.01344,0.0305 0.734605,-0.43313 1.446276,-0.65634 2.094962,-0.69195 3.016182,-0.16561 4.69137,3.55377 1.187525,7.32306 -1.69471,1.82311 -3.657862,3.33908 -5.68751,4.7651 -0.777873,0.49914 -1.607691,0.90075 -2.418456,1.33842 0.165478,1.44344 -0.672182,3.24303 -2.956409,4.73096 -1.354556,0.88234 -2.690448,1.79306 -4.075203,2.6288 -2.075008,1.20078 -4.233777,2.27962 -6.540687,2.96259 -2.077586,0.62971 -4.169056,1.29987 -6.359301,1.36374 -1.872114,0.0897 -3.746989,0.0368 -5.620845,0.0501 h -5.1108 -5.524728 c -7.160125,0 -7.160125,-7.23315 0,-7.23315 h 1.347722 c 0.29438,-0.0541 0.5212,-0.1588 0.84801,-0.18656 1.106628,-0.094 2.200932,-0.28334 3.292822,-0.48421 0.456121,-0.98163 1.356053,-1.98213 2.807581,-2.83962 1.078018,-0.63685 2.158119,-1.26923 3.212209,-1.94561 1.962647,-1.29302 3.840588,-2.72135 5.893696,-3.86902 1.367169,-0.76424 2.559646,-1.07097 3.526915,-1.04128 2.216811,0.068 3.246223,1.90266 2.479953,4.04059 1.105688,-0.48686 2.206929,-0.98346 3.283003,-1.53739 2.619811,-1.23728 5.288743,-2.38548 7.764385,-3.9026 0.246153,-0.17184 0.487463,-0.34958 0.730705,-0.52503 -0.126915,-0.50614 -0.277693,-0.9939 -0.512114,-1.46554 -0.647621,-1.25778 -1.721077,-2.20654 -2.600875,-3.29644 -1.199229,-1.33472 -2.369312,-2.69496 -3.592029,-4.00803 -1.098706,-0.97599 -2.227236,-1.92181 -3.215306,-3.01428 -1.300821,-1.39063 -2.459913,-2.93896 -3.045293,-4.77801 -1.289469,-4.05101 0.646382,-6.61405 2.843754,-6.58667 z m -95.086705,4.28035 c -0.465643,0.10748 -0.930899,0.21773 -1.394745,0.33435 0.171958,0.64334 0.283575,1.36624 0.279569,2.2071 -0.01267,2.6582 0.205063,5.32647 0.670242,7.94732 0.280107,-0.17087 0.565767,-0.33222 0.845429,-0.50385 -0.01897,-0.36223 -0.02445,-0.73164 -0.05529,-1.08985 -0.118034,-2.96491 -0.160888,-5.93314 -0.3452,-8.89507 z m 18.5141159,1.1958 c 0.00497,0.0773 0.00619,0.15612 0.014975,0.23202 -0.1238779,0.22787 -0.2588048,0.44752 -0.3937741,0.66715 0.58900751,0.0447 1.13203305,0.21413 1.64331124,0.45888 -0.37615284,-0.49255 -0.78353709,-0.94642 -1.26452314,-1.35805 z m -6.5422357,14.57068 c -0.046649,0.0755 -0.09888,0.14702 -0.1436608,0.22376 -0.03147,0.054 0.1963367,0.0838 0.1860365,0.0222 -0.017595,-0.10481 -0.026035,-0.14905 -0.042376,-0.24597 z m 13.9236979,6.08439 c -0.2236258,0.5643 -0.5677508,1.09664 -1.1782213,1.50533 0.9079653,0.17659 1.7077452,0.44257 2.2830631,0.84852 0.1405493,-0.0459 0.272804,-0.11448 0.4128956,-0.16174 -0.7336976,-0.43656 -1.2984269,-1.18703 -1.5177374,-2.19211 z" /></clipPath><clipPath
       clipPathUnits="userSpaceOnUse"
       id="clipPath127"><path
         id="path128"
         style="fill:#ff0000;fill-opacity:1;fill-rule:nonzero;stroke:none;stroke-width:0.264583"
         d="M -112.24796,-126.55676 V 185.58027 H 148.5754 V -126.55676 Z M 46.874626,83.305366 c 1.808208,0 3.616317,1.790192 3.616317,5.370214 v 5.232238 c 0.0627,2.146078 -0.111291,4.285324 -0.245462,6.424932 -0.136289,2.02485 -0.190703,4.04985 -0.104904,6.07715 0.192061,1.91863 0.527714,3.82569 0.876432,5.72213 0.304242,2.00862 0.765826,3.9858 1.180806,5.97276 0.41642,1.86142 0.967934,3.68703 1.421104,5.53972 0.25287,0.86996 0.117097,0.46495 0.396356,1.22008 0.186108,0.50319 0.223428,0.93098 0.309544,1.38441 4.425355,2.23251 2.751262,7.58433 -3.415813,6.40477 -3.104732,-0.59371 -6.256094,-0.76586 -9.40821,-0.85576 -3.81635,0.009 -7.630525,0.17062 -11.44478,0.28216 -1.12776,0.0333 -2.255837,0.0512 -3.383772,0.0754 -0.908129,0.5548 -1.966518,0.57724 -2.88613,0.0641 -0.03584,5.3e-4 -0.07165,0.002 -0.107487,0.003 -0.03142,5.3e-4 -0.0525,-0.009 -0.08268,-0.009 -0.32049,0.14732 -0.641715,0.29301 -0.962215,0.44028 -0.262501,0.12062 -0.518089,0.22111 -0.770496,0.31265 -0.876996,0.71434 -1.945576,0.85817 -2.911967,0.46405 -2.943479,-0.21613 -4.295167,-2.77187 -2.550232,-5.0524 -2.22e-4,-0.028 -0.0078,-0.0483 -0.0078,-0.0765 v -6.3469 c -0.014,-2.72977 -0.02254,-5.45666 0.112657,-8.18348 0.135676,-2.32533 0.233519,-4.6523 0.299723,-6.98046 0.046,-1.80459 0.06926,-3.60958 0.08527,-5.41465 -0.0258,-1.02998 0.04009,-2.054459 0.138491,-3.078883 0.0044,-0.04602 0.02191,-0.07504 0.02687,-0.120406 C 15.992671,97.193438 15.83363,95.70984 16.656834,94.418959 10.68718,93.678613 10.992573,87.32947 17.739972,87.32947 h 3.885033 5.177462 5.913334 c 1.498505,0.05847 2.984222,-0.03228 4.475178,-0.161748 1.252041,-0.18606 2.49041,-0.398671 3.697968,-0.782897 1.001961,-0.32245 0.492366,-0.161472 1.527553,-0.482142 0.510384,-0.158096 0.938446,-0.174371 1.394749,-0.23771 0.672338,-1.56932 1.86623,-2.35903 3.063377,-2.35903 z" /></clipPath><clipPath
       clipPathUnits="userSpaceOnUse"
       id="clipPath139"><path
         id="path140"
         style="fill:#ff0000;fill-opacity:1;fill-rule:nonzero;stroke:none;stroke-width:0.264583"
         d="M 97.168006,-339.91235 V -44.578961 H 346.46958 V -339.91235 Z m 14.326254,94.53944 c 1.76488,0.006 3.77708,1.78446 4.35839,5.31699 0.32911,1.99994 0.60308,4.00817 0.88884,6.01462 1.02527,-1.2445 2.22305,-1.83589 3.28403,-1.8402 2.05627,-0.008 3.59454,2.17302 2.34611,6.00222 -0.0197,0.0606 -0.0413,0.12046 -0.0615,0.18087 0.31698,0.91799 0.41757,2.09982 0.17777,3.54139 -0.2164,1.30085 -0.62011,2.56457 -1.0263,3.8163 -1.34183,4.13496 -4.42238,4.92072 -6.12882,3.38016 -1.93867,0.62007 -4.30523,-0.86149 -4.65605,-4.82762 -0.16862,-1.90632 -0.33891,-3.81275 -0.57464,-5.71231 -0.45291,-3.52522 -1.07719,-7.02592 -1.48208,-10.55543 -0.40801,-3.55672 1.10935,-5.32303 2.87424,-5.31699 z" /></clipPath><clipPath
       clipPathUnits="userSpaceOnUse"
       id="clipPath170"><path
         id="path171"
         style="fill:#ff0000;fill-opacity:1;fill-rule:nonzero;stroke:none;stroke-width:0.264583"
         d="M 88.756261,-299.52331 V 17.880567 H 410.91541 V -299.52331 Z M 363.24287,-220.863 c 0.90345,-0.008 1.97628,0.23856 3.18532,0.82218 3.39402,1.63831 6.49674,3.81197 9.57823,5.96449 3.22509,2.31448 6.37511,4.73585 9.43663,7.26261 1.87296,1.50796 3.75989,2.99047 5.54284,4.6054 1.76167,1.54167 3.42262,3.17283 4.95419,4.94388 1.19316,1.48882 2.47049,2.9032 3.73311,4.33204 1.08043,1.20022 2.09423,2.45631 2.94299,3.83026 0.82616,1.73429 1.48968,3.55524 1.93786,5.42344 1.67031,6.96258 -5.76469,8.62686 -7.05745,1.5844 -0.21127,-1.15093 -0.75649,-2.20765 -1.10278,-3.32021 -0.52141,-1.02678 -1.43909,-1.82952 -2.14042,-2.72904 -1.28368,-1.45272 -2.58234,-2.89095 -3.79617,-4.40386 -1.32794,-1.55409 -2.79577,-2.95456 -4.33049,-4.3031 -1.69875,-1.54267 -3.51006,-2.94207 -5.29113,-4.38733 -2.90883,-2.40671 -5.90918,-4.70386 -8.97258,-6.91017 -2.63017,-1.83963 -5.2759,-3.68008 -8.12096,-5.17746 -5.14813,-2.7095 -4.41412,-7.50431 -0.49919,-7.53753 z m -17.79788,14.64304 c 0.81097,-0.004 1.74701,0.16947 2.79104,0.57154 4.59168,1.76834 8.99191,4.00303 13.38523,6.20892 0.37082,0.1876 0.72266,0.4088 1.09088,0.601 0.4155,-0.11565 0.91038,-0.17484 1.48572,-0.16691 0.65984,0.009 1.42523,0.10601 2.29753,0.30644 2.35556,0.54125 4.30075,1.95473 6.16344,3.42614 -1.07651,-2.72314 0.34142,-4.84679 2.57866,-4.84311 1.28683,0.002 2.83083,0.70484 4.29689,2.3952 2.44776,2.82227 4.79147,5.70892 6.96391,8.74934 1.67944,2.35043 1.72027,4.43615 0.89969,5.70663 1.5344,1.02281 3.07247,2.04019 4.58422,3.09645 1.80695,1.14136 3.31928,2.58833 4.72631,4.18269 0.96689,1.16625 2.0869,2.25988 2.79262,3.61942 0.19542,0.37651 0.34592,0.77482 0.51882,1.1622 0.40259,1.55462 0.27207,0.76263 0.38706,2.3766 0.0637,0.89436 -0.044,1.45412 -0.26977,1.7756 0.11753,0.20753 0.23421,0.41574 0.35608,0.62063 3.66003,6.15399 -2.6856,9.845 -6.25234,3.63648 -0.83209,-1.44832 -1.62388,-2.92102 -2.35437,-4.42351 -0.84839,-1.84687 -1.70402,-3.69055 -2.54093,-5.54229 -0.078,-0.17246 -0.14713,-0.34128 -0.2119,-0.5085 -0.415,-0.33988 -0.82071,-0.68775 -1.29707,-0.97255 -2.35545,-1.64933 -4.79565,-3.17384 -7.14841,-4.82761 -3.27895,-2.27743 -6.61384,-4.47194 -9.95804,-6.65231 -4.00886,-2.60003 -8.08797,-5.09434 -12.3548,-7.25434 -4.08429,-2.05175 -8.1752,-4.1242 -12.42663,-5.81101 -5.61546,-2.22804 -4.88331,-7.4129 -0.50384,-7.43314 z m -225.34594,21.50101 c 3.05551,-0.16929 4.03285,3.80875 0.35915,7.72563 -1.17612,1.25397 -2.32696,2.59265 -3.45922,3.90674 -1.44062,1.57315 -2.77631,3.23874 -4.13618,4.88135 -1.14319,1.4697 -2.29319,2.93265 -3.46335,4.38113 -0.8717,1.2084 -1.86054,2.32105 -2.81017,3.46594 -0.80685,0.95022 -1.53489,1.96075 -2.32234,2.92695 -0.80594,1.00684 -1.52017,2.08004 -2.22519,3.15847 -0.20511,0.28103 -0.29499,0.51935 -0.30179,0.78909 -0.18033,7.15787 -8.659963,5.5717 -7.093102,-1.4149 0.267098,-1.19094 0.644303,-2.32859 1.347721,-3.34243 0.846108,-1.28566 1.701136,-2.56663 2.670121,-3.76463 0.806525,-0.98525 1.5446,-2.0236 2.37453,-2.98999 0.93132,-1.109 1.88214,-2.2008 2.7342,-3.37448 1.18855,-1.47082 2.35327,-2.95822 3.51813,-4.44779 1.39067,-1.67946 2.758,-3.38112 4.2292,-4.99142 1.55862,-1.80675 3.07205,-3.68494 4.92528,-5.20227 1.38505,-1.13397 2.63451,-1.65096 3.65301,-1.70739 z m 30.4953,3.26389 c 4.11093,0.0973 5.25218,4.81763 -0.0434,7.22591 -1.93926,0.8819 -3.80509,1.88928 -5.66115,2.92437 0.381,1.39299 -0.23993,3.26566 -2.43035,4.98678 -2.3369,1.83618 -4.71607,3.61825 -7.08845,5.40845 -2.84267,2.19936 -5.66068,4.43162 -8.41086,6.74584 -2.22216,1.84972 -4.46469,3.67225 -6.66213,5.55109 -1.67979,1.46598 -3.37138,2.91821 -5.06067,4.37337 -1.40892,1.30469 -2.82191,2.592 -4.12274,4.00648 -1.07181,1.16531 -2.16701,1.83049 -3.17087,2.10529 -0.88357,6.53411 -7.65001,5.87099 -7.10344,-1.07177 0.0596,-0.75732 0.12015,-1.51435 0.21239,-2.26859 0.18237,-1.4495 0.31176,-2.90657 0.57051,-4.34444 0.56059,-2.2771 1.55106,-4.35314 3.32124,-5.95312 1.46716,-1.38711 2.94871,-2.75912 4.4943,-4.05919 1.45063,-1.21601 2.91967,-2.40825 4.4111,-3.57394 2.2284,-1.75259 4.48249,-3.46927 6.81044,-5.08961 3.1083,-2.16601 6.29001,-4.21936 9.5343,-6.17689 3.28252,-2.04598 6.49796,-4.19789 9.78648,-6.23476 2.38673,-1.38679 4.82146,-2.65715 7.33495,-3.79873 1.22236,-0.55516 2.32966,-0.77899 3.27836,-0.75654 z" /></clipPath><clipPath
       clipPathUnits="userSpaceOnUse"
       id="clipPath233"><path
         id="path234"
         style="fill:#ff0000;fill-opacity:1;fill-rule:nonzero;stroke:none;stroke-width:0.264583"
         d="M 185.24069,-319.24193 V -24.289387 H 425.09684 V -319.24193 Z m 138.35487,149.6534 c 1.78419,7.9e-4 3.63037,1.79012 3.80182,5.36608 0.0643,1.33996 -0.0719,2.65433 -0.29041,3.95842 0.27255,-0.0735 0.56767,-0.11689 0.88522,-0.12351 0.37047,-0.008 0.77026,0.0328 1.19579,0.12867 0.38629,-0.24279 0.8215,-0.42195 1.34254,-0.44493 1.13073,-0.0499 2.53823,0.47335 4.04474,1.80971 0.4186,0.37135 0.80759,0.77178 1.2056,1.16323 0.49581,-0.30652 1.09744,-0.47283 1.77559,-0.44028 1.18851,0.0571 2.59295,0.69888 3.98788,2.15129 2.63375,2.74227 4.82211,5.85047 6.92256,9.00669 2.43144,3.88376 4.79634,7.81591 6.98098,11.84475 1.13959,2.01485 2.36363,3.97199 3.24527,6.11746 0.86638,2.54168 0.71525,4.37292 -0.15348,6.88278 -0.88855,2.03627 -2.18951,3.83746 -3.64937,5.49682 -1.22616,1.21887 -2.44396,2.51198 -3.976,3.35587 -0.38219,0.21053 -0.79187,0.3659 -1.18803,0.54881 -6.50071,3.00135 -9.83602,-5.23462 -2.81948,-6.6611 1.07346,-0.21823 1.75532,-1.41088 2.56987,-2.0407 0.86323,-0.96375 1.62015,-2.00233 2.25208,-3.13417 0.24334,-0.63932 0.47847,-1.05078 0.24958,-1.76114 -0.42873,-1.13152 -1.03555,-2.17502 -1.65674,-3.21169 -0.64492,3.08426 -3.96214,3.78517 -6.03631,0.97152 -0.80928,1.85722 -3.53859,2.62684 -6.75775,0.30902 -0.53872,-0.38787 -1.07831,-0.77486 -1.61745,-1.1622 -3.08248,4.62545 -3.94671,5.04673 -6.74584,2.87063 -2.73204,-2.16473 -5.33615,-4.48821 -8.05999,-6.6642 -2.7461,-2.45053 -5.40757,-5.07957 -7.04763,-8.42635 -1.62115,-0.12575 -3.24178,-0.2569 -4.86637,-0.34314 -7.58719,-0.44787 -15.17743,-0.9445 -22.76553,-1.33377 -1.07801,-0.0553 -1.93227,-0.3045 -2.68459,-0.62166 -0.57677,0.62929 -1.1192,1.29485 -1.64021,1.97352 -1.38696,2.1585 -2.2854,4.54313 -3.09181,6.96185 -0.53658,1.90527 -0.93866,3.84574 -1.3658,5.77949 0.3976,-0.38181 0.79402,-0.76498 1.19114,-1.14825 1.44902,-1.39846 2.84121,-1.97983 3.98373,-1.97766 2.91995,0.006 4.20899,3.82009 0.64648,7.53391 -0.92629,0.96557 -1.9114,1.86859 -2.9099,2.75797 -1.78302,1.58814 -3.50499,2.03887 -4.81263,1.76372 -0.007,0.0412 -0.0189,0.0812 -0.0253,0.12247 -0.31138,2.1774 -0.34632,4.38158 -0.39739,6.57686 0.006,3.5147 -0.15426,7.02208 -0.44287,10.52391 -0.15049,2.45352 -0.52882,4.882887 -0.77928,7.326166 -0.25682,2.270699 -0.2357,4.548968 -0.1633,6.828007 0.0525,1.43787 0.0261,0.723201 0.0775,2.145088 7.9e-4,0.02175 -0.006,0.03573 -0.006,0.05736 0.13966,0.0486 0.27673,0.09115 0.42013,0.148309 3.73047,1.486969 7.59999,2.598727 11.41894,3.833876 4.85884,1.705695 9.66861,3.546912 14.50144,5.32474 1.9552,0.651698 3.84707,1.443672 5.71489,2.292366 2.6308,-0.638411 5.26049,-1.281708 7.89771,-1.893425 4.5737,-1.075436 2.35597,-0.547624 6.65438,-1.580782 0.65268,-0.156879 1.2592,-0.237268 1.81642,-0.252698 3.40876,-0.09437 4.96226,2.238663 4.05712,4.350639 3.89832,1.612736 3.00805,6.568553 -2.90269,6.729304 l -2.19726,0.05943 c 0.0932,0.05532 0.18872,0.106439 0.28112,0.163298 6.09814,3.752323 2.1299,10.065517 -3.84782,6.124173 -1.04591,-0.689594 -2.23735,-1.127543 -3.31556,-1.763197 -2.61015,-1.251701 -5.22853,-2.484003 -7.87136,-3.665926 -0.34703,-0.170111 -0.69536,-0.335955 -1.04283,-0.504362 -1.04394,0.228952 -2.09238,0.441277 -3.15071,0.537951 -0.41145,0.100483 -0.82417,0.195434 -1.23558,0.296105 -3.95687,0.968251 -6.08679,-0.907356 -5.97897,-3.010669 -0.31188,-0.687727 -0.239,-1.395294 0.0263,-2.059305 -3.87146,-1.438614 -7.73769,-2.891312 -11.63237,-4.265891 -3.97417,-1.285444 -7.99945,-2.446282 -11.87938,-4.000272 -1.44639,-0.579335 -2.44377,-1.350957 -3.06182,-2.17506 -1.01218,-0.798706 -1.81304,-2.231819 -1.89446,-4.484998 -0.0517,-1.431189 -0.0254,-0.705106 -0.0791,-2.177645 -0.0816,-2.602558 -0.0903,-5.205841 0.19844,-7.79849 0.24823,-2.394268 0.6146,-4.775082 0.76533,-7.179412 0.27808,-3.36008 0.42763,-6.72542 0.42064,-10.09809 0.0594,-2.5132 0.11189,-5.03614 0.48266,-7.52719 0.38072,-2.41928 0.90466,-4.80615 1.46451,-7.18974 0.6701,-2.94551 1.25825,-5.91529 2.11305,-8.81393 1.0668,-3.18776 2.31041,-6.31647 4.23489,-9.10074 0.42128,-0.53977 0.8547,-1.07136 1.29914,-1.59215 -1.52816,-0.60355 -3.06641,-1.18197 -4.57646,-1.83141 -1.09038,3.76762 -2.19021,7.53001 -3.40755,11.25926 -1.05961,2.97655 -0.54118,1.54568 -1.55081,4.2938 -1.83358,4.9908 -6.03644,4.88509 -7.07398,1.75544 -2.82634,3.52841 -7.50378,1.0111 -5.57744,-4.75268 1.05408,-3.1537 2.2385,-6.34595 4.49688,-8.85837 1.49582,-1.66408 2.97572,-2.34765 4.17287,-2.32647 0.33252,0.006 0.64298,0.0664 0.92604,0.17518 0.46945,-1.58214 0.96416,-3.15651 1.43919,-4.7377 0.70062,-2.33196 1.93737,-3.52641 3.18689,-3.8871 0.54142,-0.34307 1.25019,-0.55529 2.11615,-0.57361 h 5.3e-4 c 0.8057,-0.017 1.74503,0.13149 2.80396,0.49248 0.31645,0.10788 0.63769,0.20324 0.94929,0.32401 1.83624,0.71133 3.60046,1.59642 5.43016,2.32544 1.18096,0.47048 2.26953,0.84228 3.35329,1.23145 0.62902,-0.20883 1.22424,-0.32846 1.76785,-0.35037 2.28614,-0.0921 3.73455,1.32842 3.67523,3.07682 1.73917,0.0925 3.47854,0.18832 5.21777,0.2899 -0.1345,-1.7899 1.43141,-3.54652 4.54959,-3.56619 0.39587,-0.002 0.816,0.0231 1.25987,0.0801 3.99155,0.51285 7.97638,1.04608 11.94346,1.72703 0.35092,0.0747 0.7018,0.14913 1.05265,0.22376 0.92028,-2.09088 2.0607,-3.80586 3.79408,-5.38675 0.9172,-0.8245 1.6747,-1.80494 2.07378,-2.98587 0.46483,-1.35061 0.4893,-2.77914 0.4594,-4.19561 h 5.3e-4 c -0.0754,-3.57927 1.64663,-5.36691 3.4308,-5.36608 z m 1.97559,14.00741 c -0.78838,1.39934 -1.79816,2.66075 -2.96984,3.79512 -1.06213,0.94584 -1.80404,2.02586 -2.28153,3.3538 -0.003,0.012 -0.005,0.0237 -0.009,0.0357 1.15411,0.11311 2.30814,0.22665 3.4613,0.3514 3.99042,0.43171 5.40747,2.84663 4.69323,4.76353 0.67585,0.41545 1.35041,0.83313 2.01954,1.25626 3.82278,2.5036 7.53266,5.1715 11.24013,7.84086 -1.81731,-3.68096 -3.93583,-7.19476 -6.36087,-10.5146 -1.10355,-1.48555 -2.20805,-3.00054 -3.36206,-4.44883 -0.35653,-0.44747 -1.7607,-2.16704 -2.34455,-2.70784 -0.36042,-0.33384 -0.93237,-0.68033 -1.36375,-0.9555 -1.33122,-0.84918 -2.21667,-1.81673 -2.72282,-2.76986 z" /></clipPath><clipPath
       clipPathUnits="userSpaceOnUse"
       id="clipPath240"><path
         id="path241"
         style="fill:#ff0000;fill-opacity:1;fill-rule:nonzero;stroke:none;stroke-width:0.264583"
         d="M 92.804184,-309.23338 V -41.629034 H 294.29938 V -309.23338 Z m 130.496946,63.74443 c 0.93337,0.009 2.02072,0.27397 3.21944,0.8785 1.75312,0.88412 3.43212,1.89553 5.06326,2.98586 5.9527,3.97906 1.8926,10.01797 -4.03542,6.00222 -1.36849,-0.92705 -2.78857,-1.76849 -4.26227,-2.51871 -5.18448,-2.63926 -4.02961,-7.38891 0.015,-7.34787 z m -85.24544,1.99626 c 3.36772,-0.0906 4.87054,3.93317 0.67437,7.28431 -0.81214,0.6486 -0.42273,0.34746 -1.1653,0.9064 -1.7275,1.42217 -3.47209,2.82263 -5.29477,4.12275 -2.09112,1.47372 -4.25636,2.82668 -6.45645,4.13153 -6.15846,3.65253 -10.39165,-1.95967 -4.33979,-5.78621 2.21999,-1.40367 4.47897,-2.73503 6.6244,-4.25349 1.67688,-1.19734 3.27994,-2.48915 4.86947,-3.79821 0.91499,-0.69918 0.50268,-0.37435 1.24076,-0.9679 1.39493,-1.12177 2.72473,-1.60899 3.84731,-1.63918 z" /></clipPath><clipPath
       clipPathUnits="userSpaceOnUse"
       id="clipPath251"><path
         id="path252"
         style="fill:#ff0000;fill-opacity:1;fill-rule:nonzero;stroke:none;stroke-width:0.264583"
         d="m 50.06164,-325.07443 v 245.270816 h 202.0347 V -325.07443 Z m 191.06172,72.239 c 1.42195,-0.0396 3.11835,0.92332 4.44418,3.2582 0.80855,1.42391 1.33311,2.97097 1.71979,4.55476 0.38267,1.85761 0.50306,3.75527 0.49506,5.64772 0.007,1.66837 -0.28067,3.30966 -0.52503,4.95318 -0.26767,2.07853 -1.32063,3.82386 -2.54249,5.47306 -0.98598,1.19805 -2.03839,2.33999 -3.16208,3.40961 -0.37488,0.32054 -0.76867,0.61405 -1.09502,0.98443 -4.73356,5.37222 -10.25077,0.0313 -5.19193,-5.03587 0.41783,-0.41852 0.82603,-0.84961 1.30896,-1.19579 0.83199,-0.78568 1.60086,-1.63171 2.34973,-2.49649 0.52191,-0.686 1.06794,-1.32103 1.17874,-2.204 0.19629,-1.31742 0.44949,-2.62948 0.44648,-3.9672 0.0288,-1.3072 -0.0809,-2.61845 -0.30179,-3.90725 -0.20137,-0.91522 -0.51051,-1.80281 -0.96014,-2.62775 -2.14172,-3.92928 -0.53435,-6.78057 1.83554,-6.84661 z m -24.00732,134.01508 c 1.58088,-0.0452 3.27238,1.29937 3.90106,4.36821 0.19779,0.96552 0.49313,1.88927 0.87385,2.79466 0.57738,1.31117 0.86222,2.69631 0.9741,4.11603 0.0779,1.63421 -0.38657,3.16522 -1.00976,4.65191 -0.60784,1.37091 -1.55916,2.5173 -2.50579,3.660755 -0.2566,0.333243 -0.50348,0.67224 -0.76223,1.002525 -0.0721,0.651052 -0.19323,1.300012 -0.35502,1.949752 l -0.4842,1.22783 c -0.70346,1.782932 -1.87803,2.754204 -3.12126,3.127457 -0.38818,0.593834 -0.73665,1.213207 -1.1529,1.788007 -0.78123,1.206815 -1.75001,2.262322 -2.80138,3.23546 -1.04259,0.90742 -2.26203,1.551003 -3.47214,2.198833 -0.81145,0.41652 -1.66264,0.737227 -2.52439,1.030428 -6.77856,2.306214 -9.10653,-4.670343 -2.28979,-6.86108 0.48258,-0.155091 0.95367,-0.335381 1.41232,-0.552421 0.68902,-0.364839 1.38726,-0.713642 2.01745,-1.175639 0.71797,-0.616461 1.30017,-1.358352 1.82004,-2.146123 0.66383,-0.892056 1.26802,-1.828112 1.8216,-2.792076 0.59882,-1.12436 1.07283,-2.316203 1.82056,-3.358968 0.0117,-0.0166 0.0249,-0.032 0.0367,-0.0486 -0.84786,-3.67928 0.87949,-5.67892 2.87217,-5.69422 0.38363,-0.003 0.77643,0.0723 1.16324,0.21859 0.15519,-0.3579 0.298,-0.71847 0.29042,-1.1188 -0.0398,-0.54898 -0.18359,-1.13581 -0.4191,-1.66191 -0.48947,-1.16893 -0.89792,-2.36312 -1.1591,-3.60547 -0.82863,-3.94139 1.021,-6.29698 3.05356,-6.35516 z" /></clipPath><clipPath
       clipPathUnits="userSpaceOnUse"
       id="clipPath278"><path
         id="path279"
         style="fill:#ff0000;fill-opacity:1;fill-rule:nonzero;stroke:none;stroke-width:0.264583"
         d="m -43.212488,-382.05292 v 250.81001 H 185.4025 v -250.81001 z m 181.494868,132.88233 c 1.13528,0.005 2.03811,0.42617 2.60707,1.09037 0.91934,-0.34123 1.78192,-0.54125 2.52078,-0.52658 4.05205,0.0805 5.08945,4.87108 -0.18087,7.33443 -2.21042,1.03317 -4.41856,2.08163 -6.72362,2.89285 -2.86091,0.99315 -5.74924,1.921 -8.52506,3.13986 -6.55592,2.87873 -9.40434,-3.76713 -2.84944,-6.64817 1.1011,-0.48395 2.22936,-0.89759 3.35587,-1.31568 0.52294,-1.00077 1.47788,-2.01475 2.95124,-2.87476 1.0894,-0.6359 2.16914,-1.287 3.24683,-1.94252 1.33817,-0.81396 2.56345,-1.15421 3.5972,-1.1498 z m -133.0900695,2.4753 h 5.5981075 c 7.160125,0 7.160125,7.23263 0,7.23263 H 5.1923105 c -7.1601277,0 -7.1601277,-7.23263 0,-7.23263 z m 42.9880715,50.84496 c 2.044401,-0.008 3.844292,2.25841 2.953308,6.18618 -0.283588,1.25017 -0.481169,2.51568 -0.75189,3.76877 -0.313965,1.46608 -0.73946,2.91235 -1.207162,4.33668 -2.233805,6.80278 -9.211228,4.46329 -6.857981,-2.29908 0.404762,-1.16313 0.726765,-2.36525 0.995807,-3.56619 0.287499,-1.32813 0.484814,-2.67249 0.804084,-3.99407 0.735603,-3.04497 2.473746,-4.42641 4.063834,-4.43229 z m 26.844358,9.60148 c 1.5451,0.0844 3.630816,1.85281 5.237924,5.05189 1.446292,2.8789 3.498345,5.40261 5.377447,8.00674 1.423178,1.86933 2.496352,3.93269 3.488161,6.04873 3.038795,6.48323 -3.64554,9.55837 -6.57066,3.02307 -0.764304,-1.70766 -1.644017,-3.34338 -2.782776,-4.84001 -2.279812,-3.15977 -5.466628,-6.83969 -6.494177,-10.63656 -0.141171,-0.52168 -0.167447,-1.06805 -0.251148,-1.60197 -0.554762,-3.53682 0.450099,-5.13633 1.995229,-5.05189 z m 22.433772,2.07998 v 5.3e-4 c 1.081786,0.0173 2.458693,0.64291 3.986318,2.0805 1.21595,1.14421 2.08888,2.57763 3.1502,3.85661 0.75663,0.91352 1.6619,1.66584 2.53163,2.46393 1.1475,0.93011 2.05703,2.06162 2.85305,3.29799 0.95863,1.59903 1.44035,3.34615 0.97049,5.20227 -0.10236,0.40431 -0.31771,0.77135 -0.47646,1.15703 -1.02548,2.49132 -2.04203,1.65641 -2.97036,0.0238 -2.04159,1.70549 -5.47708,1.09344 -5.78105,-3.28558 -0.003,-0.0322 -0.0142,-0.0648 -0.007,-0.0966 0.005,-0.03 0.0986,-0.0136 0.0827,-0.0393 -0.23736,-0.38486 -0.69492,-0.61714 -1.02216,-0.90227 -1.100378,-0.77725 -2.267905,-1.45106 -3.395141,-2.18798 -3.582773,-2.34245 -3.744537,-5.4822 -2.015898,-6.82284 -0.840523,-2.68156 0.04882,-4.63231 1.88154,-4.74287 0.06945,-0.004 0.140271,-0.006 0.212389,-0.005 z" /></clipPath><clipPath
       clipPathUnits="userSpaceOnUse"
       id="clipPath292"><path
         id="path293"
         style="fill:#ff0000;fill-opacity:1;fill-rule:nonzero;stroke:none;stroke-width:0.264583"
         d="M 39.169506,-337.89832 V -50.969072 H 288.46282 V -337.89832 Z m 15.676046,82.89261 c 1.714024,0.0204 3.54041,1.61061 3.978568,4.9382 0.120111,0.91222 0.106387,1.83456 0.107487,2.75229 0.0087,7.16012 -7.246413,7.15857 -7.232633,-0.002 0.0013,-0.65071 0.02757,-1.30512 -0.06356,-1.95182 -0.530767,-3.76661 1.267578,-5.76019 3.21014,-5.73712 z m 197.013298,6.80941 c 1.32993,-0.0899 2.96772,0.82319 4.38423,3.1042 1.07429,1.72993 1.55184,3.70118 1.89652,5.68338 0.39598,2.58761 0.42018,5.20011 0.26717,7.80675 -0.16631,2.61527 -0.75971,5.14416 -1.52187,7.63985 -0.4978,1.90614 -1.23662,3.72608 -2.0159,5.52989 -0.76243,1.81488 -1.37928,3.68664 -2.00143,5.55315 -0.64972,1.87676 -1.26002,3.76819 -2.01124,5.60741 -0.95415,2.1244 -1.9321,4.237 -2.90784,6.35155 -0.93622,2.10591 -1.93956,4.18102 -3.03444,6.20893 -0.74336,1.47932 -1.63431,2.88203 -2.64686,4.19044 -0.85071,1.10794 -1.91984,2.00805 -2.89078,3.00343 -1.04445,1.12516 -2.20219,2.13025 -3.34605,3.1502 -1.2349,1.05182 -2.56579,1.98944 -3.91811,2.88354 -1.93444,1.28303 -4.12655,2.08437 -6.28747,2.89285 -2.75914,1.06536 -5.6224,1.79172 -8.50439,2.42982 -2.00852,0.48359 -4.02259,0.93996 -6.05234,1.32499 -1.0898,0.20672 -1.99053,0.15992 -2.79725,0.0139 -0.75827,0.17949 -1.51301,0.3744 -2.26653,0.57309 -1.4977,0.44017 -2.97995,0.92699 -4.46019,1.42214 -1.58834,0.5581 -3.19109,1.04834 -4.83381,1.42213 -2.05853,0.5373 -4.13223,0.98734 -6.23425,1.31724 -1.89057,0.38525 -3.79586,0.65788 -5.71696,0.82837 -1.92552,0.0766 -3.83858,0.29911 -5.75676,0.47025 -1.71912,0.15432 -3.44381,0.22701 -5.16867,0.27441 -2.44184,-0.0118 -4.87127,-0.25567 -7.30085,-0.47078 -2.85973,-0.19225 -5.71909,-0.39592 -8.57157,-0.67799 -2.83995,-0.26841 -5.65359,-0.74864 -8.47907,-1.13016 -2.66463,-0.21934 -5.29981,-0.64608 -7.94267,-1.03457 -2.11987,-0.30404 -4.25541,-0.45909 -6.38152,-0.71055 -1.8808,-0.17534 -3.75496,-0.4017 -5.63118,-0.61856 -1.91243,-0.21286 -3.83573,-0.28885 -5.75779,-0.34985 -2.23949,-0.16259 -4.48445,-0.27106 -6.71949,-0.48783 -2.21917,-0.20648 -4.40762,-0.67897 -6.54068,-1.31516 -2.57048,-0.65769 -4.88262,-1.9917 -7.25382,-3.13883 -1.91366,-0.89121 -3.846978,-1.74009 -5.755724,-2.6417 -1.929913,-0.93683 -3.722034,-2.11514 -5.521108,-3.27525 -1.492637,-0.90475 -0.734285,-0.44535 -2.275314,-1.37821 -6.125257,-3.70793 -2.379728,-9.89571 3.745508,-6.18774 1.606161,0.9723 0.789586,0.47683 2.449462,1.48725 1.534261,0.98943 3.055983,2.00536 4.695836,2.81636 1.92633,0.91375 3.8825,1.76312 5.81257,2.66909 2.03397,0.98503 4.0062,2.16157 6.20944,2.72955 1.67042,0.52508 3.40555,0.86136 5.14697,1.03715 2.07333,0.21111 4.15957,0.28906 6.23683,0.4563 2.12341,0.0679 4.24789,0.15641 6.36033,0.39429 1.88182,0.21873 3.76122,0.44337 5.64772,0.62012 2.19401,0.25968 4.39889,0.41632 6.58565,0.73794 2.61501,0.3856 5.2221,0.80551 7.85895,1.02267 2.74095,0.37156 5.47017,0.83558 8.22482,1.1002 2.82609,0.28319 5.66087,0.47505 8.49405,0.67076 2.15225,0.19062 4.3024,0.40925 6.46472,0.44545 1.57684,-0.0428 3.1537,-0.10777 4.7253,-0.24857 1.92194,-0.17061 3.8389,-0.3955 5.76812,-0.4718 1.7606,-0.15093 3.50197,-0.42258 5.23482,-0.76946 1.94524,-0.29972 3.85736,-0.73584 5.76244,-1.22784 1.40538,-0.30937 2.76609,-0.74989 4.12327,-1.22421 1.62869,-0.54468 3.26081,-1.07909 4.91081,-1.5565 1.77362,-0.46766 3.552,-0.92735 5.36814,-1.20147 1.70238,-0.33298 3.38762,-0.74982 5.05034,-1.24437 1.8768,-0.51034 3.73395,-1.11665 5.54695,-1.81953 1.67544,-0.67931 3.31988,-1.45879 4.78886,-2.52439 1.0657,-0.84543 2.16725,-1.64342 3.15019,-2.58951 1.28809,-1.21508 2.58622,-2.41928 3.84008,-3.67058 0.85194,-0.84614 1.68746,-1.65828 2.24585,-2.7404 0.63482,-0.99725 1.29901,-1.9775 1.85674,-3.02152 0.55263,-0.92785 1.06197,-1.877 1.53479,-2.8484 0.43455,-0.81257 0.86675,-1.63643 1.16427,-2.50993 0.39723,-1.087 0.65435,-2.21493 0.97203,-3.32641 0.29574,-1.24569 0.60338,-2.49273 1.07901,-3.68453 0.39957,-1.05638 0.68712,-2.15558 1.05006,-3.22512 0.22713,-0.94997 0.37986,-1.92387 0.55966,-2.88303 0.22526,-1.23853 0.53664,-2.45701 1.02371,-3.62149 0.47591,-1.31864 1.08044,-2.58627 1.7048,-3.84007 0.34111,-0.58794 0.67316,-1.19257 0.96067,-1.80041 0.32682,-0.71346 -0.0659,-2.40019 0.0822,-3.22151 v -4.23178 c 0,-3.58007 1.80812,-5.37022 3.61632,-5.37022 0.15156,0 0.30168,0.0312 0.45217,0.0563 -0.0649,-0.17178 -0.10183,-0.35173 -0.18242,-0.51883 -1.94402,-4.03078 -0.58254,-6.96655 1.63401,-7.11636 z" /></clipPath></defs><g
     id="layer1"
     transform="translate(160.43999,423.56707)"><path
       style="fill:#000000"
       d="m -79.214611,-137.46638 c -10.82933,-0.21367 -12.3483,-0.46568 -12.87865,-2.13665 -0.52346,-1.64927 1.5696,-2.40444 7.49682,-2.70485 l 4.3235,-0.21913 0.004,-1.09208 c 0.007,-2.14351 2.45113,-18.07201 3.15746,-20.57859 0.3957,-1.40425 0.71946,-2.62458 0.71946,-2.71185 0,-0.0873 -0.55563,-0.0685 -1.23473,0.0417 -0.72878,0.11827 -1.23472,0.0543 -1.23472,-0.15615 0,-0.19609 0.88874,-2.79655 1.97497,-5.7788 1.08623,-2.98225 3.13401,-8.75602 4.55063,-12.83061 1.41662,-4.07458 3.14926,-8.9806 3.85031,-10.90227 0.70105,-1.92166 1.23201,-3.53657 1.1799,-3.58867 -0.14515,-0.14516 -12.66822,-2.8659 -16.84748,-3.66026 -10.05952,-1.91203 -18.051369,-2.81834 -20.613569,-2.33767 -1.25022,0.23454 -1.2587,0.24842 -1.2664,2.07222 -0.0257,6.10061 -6.13965,9.36678 -12.00085,6.41109 -2.77041,-1.39706 -4.81472,-4.13462 -5.8146,-7.78638 -0.0586,-0.21405 -1.05131,-0.47484 -2.20599,-0.57954 -2.7228,-0.2469 -5.1801,-1.35154 -7.026,-3.15845 -1.92743,-1.88671 -2.81327,-4.03119 -3.11788,-7.54786 -0.21505,-2.4827 -0.1514,-3.05851 0.48745,-4.40972 0.40414,-0.85478 1.06341,-1.95714 1.46505,-2.44967 l 0.73025,-0.89552 -0.78973,-1.75032 c -0.66571,-1.47545 -0.77663,-2.27301 -0.70632,-5.07886 0.12641,-5.04497 1.78607,-8.20051 5.13259,-9.75874 3.08966,-1.43863 5.14064,-1.09415 9.14436,1.53588 1.32016,0.86721 2.43801,1.51917 2.48411,1.4488 0.0461,-0.0704 0.54117,-0.84232 1.10015,-1.71544 0.55898,-0.87313 1.47979,-2.02202 2.04625,-2.55311 l 1.02993,-0.9656 -1.04423,-0.87867 c -0.57433,-0.48327 -2.42419,-2.45136 -4.11081,-4.37354 l -3.06656,-3.49488 -2.35985,0.74681 c -1.90179,0.60185 -3.25001,0.74644 -6.94595,0.74492 -4.10326,-0.002 -4.88326,-0.10532 -7.40834,-0.98429 -7.73692,-2.69318 -14.21896,-8.62203 -18.19286,-16.64025 -2.50668,-5.0578 -3.22757,-8.12192 -3.23689,-13.75833 -0.006,-3.57433 0.15629,-5.19322 0.73523,-7.33795 2.43283,-9.0126 9.45907,-15.71189 17.74536,-16.91963 l 2.80828,-0.40931 -0.28234,-2.836 c -0.15528,-1.5598 -0.26803,-6.3285 -0.25055,-10.59711 0.0384,-9.3779 0.74734,-14.65982 3.31859,-24.72515 2.21165,-8.65763 4.3046,-14.45503 7.75776,-21.48874 4.60727,-9.38447 9.02575,-15.53362 16.75073,-23.31183 6.15015,-6.19252 12.694899,-11.22796 20.758759,-15.97151 11.56513,-6.80318 27.7756,-12.53796 43.45737,-15.37393 27.54483,-4.98135 58.07972,-2.86536 81.19627,5.62671 5.83947,2.14517 15.19996,6.96575 20.64019,10.62953 9.17391,6.17825 12.98198,9.44951 17.49588,15.02951 1.19355,1.47544 2.18945,2.38125 2.6181,2.38125 2.30078,0 10.95287,3.82723 15.65939,6.92689 4.71211,3.10334 6.16024,5.33539 4.30472,6.63505 -1.41635,0.99205 -4.87155,0.4274 -8.33073,-1.3614 -0.61367,-0.31735 -1.11577,-0.48745 -1.11577,-0.37801 0,0.10944 0.92406,1.58195 2.05346,3.27225 7.31656,10.95018 11.83202,19.99616 12.31661,24.67431 0.46655,4.50408 -2.4983,3.73955 -5.30285,-1.36742 -0.62135,-1.13146 -1.21807,-2.05908 -1.32605,-2.06138 -0.10798,-0.002 0.004,1.38488 0.24943,3.08262 1.59975,11.07787 0.70983,23.50441 -2.57949,36.01918 -1.7883,6.8039 -1.78252,6.75359 -0.77685,6.76256 0.45859,0.004 1.91631,0.38947 3.23939,0.85638 7.03669,2.48323 12.928561,9.00859 15.465051,17.12785 0.71906,2.30169 0.82584,3.35706 0.82096,8.11389 -0.004,4.31058 -0.14378,5.9161 -0.65831,7.58472 -3.79165,12.29626 -13.865311,21.24009 -26.074881,23.15037 -4.73667,0.74109 -11.67113,-0.24851 -15.52755,-2.21591 -0.83811,-0.42757 -1.49869,-0.58794 -1.5678,-0.38061 -0.26776,0.80327 -2.54963,3.73134 -4.44836,5.70808 l -2.0221,2.10517 1.58962,1.95163 c 0.87429,1.07339 1.77652,2.31079 2.00496,2.74978 0.22843,0.43898 0.46443,0.85552 0.52443,0.92564 0.06,0.0701 1.42757,-0.67323 3.03902,-1.65189 4.47188,-2.71584 6.71635,-3.052 9.81674,-1.4703 1.66387,0.84884 3.73067,3.16062 4.6739,5.2279 1.0929,2.39531 1.09192,7.0333 -0.002,9.22263 l -0.78845,1.57805 1.2122,1.24417 c 3.51296,3.60563 3.20256,9.49828 -0.72374,13.73915 -2.47343,2.6716 -4.73228,3.71449 -7.96515,3.67745 l -2.35082,-0.0269 -0.2357,1.25638 c -0.58648,3.12621 -2.94474,6.14017 -5.82239,7.44126 -5.43064,2.45539 -11.28889,-1.17454 -11.28889,-6.9949 v -1.75361 l -1.63434,-0.24508 c -3.19689,-0.47941 -10.86751,0.45294 -22.08601,2.68451 -6.7262,1.33796 -6.38704,1.21766 -5.91578,2.09822 0.20922,0.39093 0.31123,0.71079 0.22669,0.71079 -0.35337,0 -9.9103,1.45501 -9.97274,1.51831 -0.0375,0.0381 0.30625,1.97419 0.76397,4.30252 1.68703,8.58166 3.34394,17.29424 3.34222,17.57447 -9.8e-4,0.15859 -0.33983,0.18106 -0.75299,0.0499 -0.91699,-0.29104 -1.00249,-0.85891 1.43625,9.53949 2.06292,8.79598 3.28834,15.50884 4.07487,22.32227 0.5487,4.75325 0.4749,5.97608 -0.44657,7.39925 l -0.51393,0.79375 H 8.4805886 -3.9322614 l -1.4448,-2.55764 c -1.74681,-3.09224 -3.62494,-7.46237 -3.72461,-8.66657 -0.0412,-0.49824 -0.34025,-0.94884 -0.69042,-1.04041 -1.0056396,-0.26298 -6.1722796,-8.49038 -10.1909696,-16.22818 l -1.88109,-3.62197 -8.59849,0.0942 -8.59848,0.0942 -0.88227,2.11666 c -2.11614,5.07688 -8.56475,17.81528 -9.0187,17.81528 -0.28561,0 -1.20372,1.64962 -2.20885,3.96875 -0.94605,2.18281 -2.25293,4.88156 -2.90418,5.99722 l -1.18409,2.02847 -6.95046,-0.0708 c -3.82275,-0.0389 -11.47484,-0.16004 -17.00463,-0.26915 z m 95.81714,-5.04852 c 0.29148,-0.29148 -0.35408,-5.75745 -1.52265,-12.89236 l -0.94292,-5.75719 -1.46303,-0.85739 c -0.80467,-0.47157 -1.62689,-0.85739 -1.82716,-0.85739 -0.36163,0 -0.69662,1.07784 -1.5818904,5.0898 -0.25379,1.15015 -0.64676,2.1512 -0.87327,2.22454 -0.22651,0.0734 -1.25034,-0.99072 -2.27518,-2.36459 l -1.86333,-2.49796 -2.31094,3.56847 -2.31094005,3.56847 -1.95544995,-2.14854 c -1.07549,-1.18169 -2.0596,-2.14853 -2.1869,-2.14853 -0.12731,0 -0.64408,0.54096 -1.14838,1.20214 l -0.91691,1.20213 2.52589,5.58884 c 1.38924,3.07386 2.73021,5.98571 2.97994,6.47078 l 0.45404995,0.88195 8.49910005,-0.0262 c 4.6745004,-0.0144 8.5984904,-0.12554 8.7199704,-0.24702 z m -75.04142,-0.3864 c 0.63976,-0.77086 3.19744,-7.27793 2.86068,-7.27793 -0.16776,0 -0.64414,0.47625 -1.05862,1.05833 -0.41448,0.58208 -0.88595,1.05833 -1.04772,1.05833 -0.29242,0 -0.5373,-1.80631 -0.88478,-6.52639 -0.17883,-2.42918 -0.17411,-2.44643 0.28913,-1.05833 l 0.47091,1.41111 0.43303,-1.53491 c 0.23816,-0.84421 0.49925,-1.46869 0.58019,-1.38775 0.081,0.0809 -0.009,0.69123 -0.19957,1.3562 -0.42549,1.48359 -0.44082,3.51759 -0.0314,4.16383 0.22127,0.34925 0.64901,-0.13052 1.56413,-1.75436 l 1.25957,-2.23507 0.70423,1.57296 0.70424,1.57296 3.00105,-6.16859 c 1.65058,-3.39273 3.71101,-7.83548 4.57873,-9.87277 l 1.57767,-3.70416 -1.29624,-0.40399 c -0.71293,-0.22219 -1.13749,-0.42566 -0.94346,-0.45215 0.19403,-0.0265 1.94028,-0.28711 3.88056,-0.57913 6.79107,-1.0221 28.27031,-1.10013 25.5893,-0.093 -0.47796,0.17955 -0.93163,0.38907 -1.00815,0.46559 -0.0765,0.0765 1.57863,3.4802 3.67813,7.56372 2.0995,4.08352 3.9240096,7.30756 4.0544696,7.16453 0.13046,-0.14303 0.74886,-1.68881 1.37421,-3.43506 0.62536,-1.74625 1.2668,-3.4318 1.42543,-3.74567 0.15864,-0.31387 0.45891,-1.18699 0.66728,-1.94027 0.6335,-2.29017 0.79871,-2.39644 2.32534,-1.49571 1.27847,0.75432 1.37047,0.76316 1.73045,0.16624 1.00154,-1.66073 0.86365,-1.65014 5.00538,-0.38432 2.15579,0.65887 5.19776,1.75991 6.75993,2.44676 1.5621604,0.68684 2.9116304,1.2488 2.9988104,1.2488 0.22842,0 -0.008,-1.21526 -1.54383,-7.92138 -1.3369804,-5.8395 -1.4046104,-6.01699 -2.8566704,-7.49653 -0.818,-0.83348 -1.61297,-1.51542 -1.7666,-1.51542 -0.15362,0 -0.27932,1.03188 -0.27932,2.29306 0,1.26118 -0.0827,2.29305 -0.18387,2.29305 -0.27674,0 -8.26018,-6.37127 -12.9039,-10.2981 -2.25056,-1.90313 -4.2457096,-3.46023 -4.4336696,-3.46023 -0.18795,0 -0.85186,1.30969 -1.47536,2.91042 -1.16075,2.98007 -2.04197,4.66039 -1.71133,3.26319 0.0918,-0.38805 0.27634,-1.02305 0.41002,-1.41111 0.71836,-2.08536 -0.62982,0.79033 -1.58483,3.38047 -1.14445,3.10389 -1.64326,3.96104 -2.13004,3.6602 -0.1633,-0.10093 -1.32543,-1.88512 -2.5825,-3.96487 -3.51079,-5.80841 -2.90761,-5.55447 -5.52837,-2.32743 -3.437,4.23209 -8.5032,10.01135 -8.77614,10.01135 -0.78155,0 -4.34247,-5.11206 -7.37207,-10.58333 -2.12153,-3.83136 -2.10609,-3.81186 -2.51456,-3.175 -0.62595,0.97595 -10.06506,12.3112 -10.26689,12.32932 -0.10964,0.01 -0.57108,-1.05366 -1.02543,-2.36335 -0.45435,-1.30969 -0.88015,-2.44696 -0.94621,-2.52727 -0.21732,-0.26417 -9.41117,6.99952 -10.77955,8.5165 -0.57568,0.63819 -0.59363,0.58705 -0.39183,-1.1168 0.11631,-0.98209 0.11267,-1.78562 -0.008,-1.78562 -0.27216,0 -1.76839,2.92585 -2.68357,5.24767 -0.37592,0.95372 -1.64568,3.76065 -2.82169,6.23764 -1.17601,2.47699 -2.07982,4.562 -2.00846,4.63336 0.0714,0.0714 1.05932,-1.02583 2.19546,-2.43821 1.13613,-1.41238 2.59039,-3.16782 3.23168,-3.90098 l 1.16597,-1.33302 0.64477,1.50941 c 0.35462,0.83017 0.85402,2.09075 1.10977,2.80129 l 0.46501,1.29189 2.40055,-2.14926 c 1.87883,-1.68216 2.36009,-2.31045 2.2144,-2.89092 -0.16793,-0.66911 0.0923,-2.17485 0.74535,-4.31298 l 0.23585,-0.77215 -2.24036,0.69514 c -3.50623,1.08793 -5.23897,1.36714 -5.23897,0.8442 0,-0.69754 1.49863,-1.50711 4.89833,-2.64611 3.35744,-1.12485 4.98272,-1.32485 4.97413,-0.61211 -0.003,0.24253 -0.23408,1.07597 -0.51368,1.85208 -0.78274,2.17268 -0.69877,2.99861 0.30486,2.99861 0.46532,0 0.94632,0.26611 1.07173,0.59294 0.37691,0.98219 0.63824,12.10706 0.28441,12.10706 -0.17709,0 -0.52573,-1.82815 -0.77478,-4.06257 -0.24904,-2.23441 -0.58592,-4.14484 -0.74863,-4.2454 -0.33134,-0.20477 -7.37971,6.0777 -7.37971,6.57781 0,0.17548 -0.1275,0.31905 -0.28334,0.31905 -0.15583,0 -0.64954,-1.13702 -1.09712,-2.52672 -0.44758,-1.38969 -1.09226,-3.17563 -1.43261,-3.96875 l -0.61882,-1.44203 -0.6019,1.41111 c -1.26828,2.97336 -3.45363,13.6181 -4.25495,20.72569 l -0.22869,2.02848 h 8.09607 c 6.42362,0 8.17892,-0.0998 8.49708,-0.48318 z m 1.80206,-15.03904 c 0,-0.25871 0.10583,-0.36454 0.23518,-0.23519 0.12936,0.12935 0.12936,0.34102 0,0.47037 -0.12935,0.12935 -0.23518,0.0235 -0.23518,-0.23518 z m 51.0941596,-14.55209 c -0.45648,-0.3685 -0.48205,-0.68564 -0.15562,-1.92985 l 0.39062,-1.48888 2.44424,1.32507 c 1.34433,0.72879 2.50175995,1.49764 2.57205995,1.70855 0.18815,0.56444 -1.42235995,0.89543 -1.84706995,0.37961 -0.19719,-0.23951 -0.72282,-0.74666 -1.16806,-1.127 -0.67246,-0.57444 -0.86143,-0.60753 -1.11615,-0.19539 -0.1778,0.28769 -0.16354,0.76348 0.0339,1.1325 0.40946,0.76508 -0.29957,0.88514 -1.15397,0.19539 z m -9.4663896,-12.08263 c 0,-0.097 0.0794,-0.17639 0.17639,-0.17639 0.097,0 0.17639,0.0794 0.17639,0.17639 0,0.097 -0.0794,0.17638 -0.17639,0.17638 -0.097,0 -0.17639,-0.0794 -0.17639,-0.17638 z m 16.7034296,23.97554 2.25006,-3.36472 1.10624,1.25993 c 0.60843,0.69296 1.36602,1.65642 1.68354,2.14102 0.31752,0.48459 0.63334,0.82504 0.70183,0.75655 0.0685,-0.0685 0.33842,-1.25573 0.59984,-2.63831 l 0.47533,-2.5138 -1.6746,-0.72039 c -0.92103,-0.39622 -2.52216,-0.94574 -3.55805,-1.22115 -1.0359,-0.27542 -2.28033005,-0.65675 -2.76540005,-0.8474 -0.74257,-0.29187 -0.99395,-0.20959 -1.59071995,0.52064 -0.62224,0.76138 -0.83047,0.82102 -1.7053,0.48841 -0.54808,-0.20838 -1.11669,-0.3046 -1.26358,-0.21382 -0.14688,0.0908 -0.54644,1.19715 -0.8879,2.45861 l -0.62083,2.29355 2.24042,2.47938 c 1.23223,1.36366 2.35710995,2.48093 2.49973995,2.48281 0.14263,0.002 1.27185,-1.51071 2.50938005,-3.36131 z m -60.0950896,-8.8061 c 0,-0.097 -0.0794,-0.17639 -0.17639,-0.17639 -0.097,0 -0.17639,0.0794 -0.17639,0.17639 0,0.097 0.0794,0.17639 0.17639,0.17639 0.097,0 0.17639,-0.0794 0.17639,-0.17639 z m -2.2364,-13.19004 c 2.35672,-1.62772 4.40955,-2.97709 4.56184,-2.99861 0.1523,-0.0215 0.62412,0.82463 1.04849,1.88034 l 0.7716,1.91946 0.56563,-1.09382 c 0.54629,-1.05641 5.27712,-6.93363 8.41705,-10.45671 l 1.52793,-1.71438 2.06314,3.83105 c 1.13473,2.10707 3.02447,5.48116 4.19942,7.49797 l 2.13628,3.66692 0.90793,-1.05255 c 0.49936,-0.57891 2.97167,-3.39855 5.49403,-6.26587 2.52236,-2.86732 4.82181,-5.59241 5.10989,-6.05575 0.28807,-0.46334 0.68495,-0.78939 0.88194,-0.72456 0.19699,0.0648 1.46942,2.28537 2.82762,4.93454 1.35819,2.64916 2.57129,4.81942 2.69578,4.8228 0.12449,0.003 0.33345,-0.43041 0.46437,-0.96398 0.30521,-1.24392 4.53128,-10.28755 4.81566,-10.30533 0.27531,-0.0172 8.3006596,6.2182 11.0741796,8.60425 2.73626,2.35399 4.08148,3.37677 4.44132,3.37677 0.15907,0 0.39345,-0.55563 0.52085,-1.23472 0.1274,-0.6791 0.35639,-1.23472 0.50887,-1.23472 0.15248,0 1.67277,1.02849 3.37844,2.28553 1.70566,1.25705 3.1366804,2.24924 3.1800304,2.20486 0.10336,-0.10579 -1.2256804,-6.13894 -3.2637604,-14.81579 -0.90096,-3.8357 -1.54958,-7.06253 -1.44138,-7.17073 0.1082,-0.1082 2.5478,-0.43113 5.4213404,-0.71763 2.87353,-0.2865 5.30183,-0.59813 5.3962,-0.6925 0.72688,-0.72688 -3.91245,-5.79438 -7.7891404,-8.50802 -1.23138,-0.86196 -2.2078,-1.68803 -2.16982,-1.83572 0.038,-0.14769 0.6548,-1.25181 1.37071,-2.4536 0.7159,-1.2018 1.22398,-2.26275 1.12906,-2.35766 -0.0949,-0.0949 -3.01361,0.31297 -6.48598,0.90643 -6.30762,1.07802 -12.5539,1.84306 -18.7957396,2.30207 -3.25524,0.23939 -3.32809,0.26467 -4.39452,1.52517 -1.74354,2.06083 -10.87375,11.29948 -12.27666,12.42248 l -1.28409,1.02788 -1.92355,-2.38075 c -1.05796,-1.30941 -3.62618,-4.88079 -5.70717,-7.93639 -3.61661,-5.31043 -3.83567,-5.55563 -4.96329,-5.55563 -0.64882,0 -3.02958,-0.25433 -5.29057,-0.56517 -2.26099,-0.31085 -4.18597,-0.49009 -4.27775,-0.39832 -0.0918,0.0918 -0.54735,1.57641 -1.01239,3.2992 -2.35786,8.73477 -7.5777,23.62381 -10.65655,30.39666 -1.08354,2.38357 -1.88975,4.41408 -1.79158,4.51225 0.0982,0.0982 0.75412,-0.16114 1.45767,-0.57625 l 1.27918,-0.75473 v 2.02663 2.02664 l 0.79628,-0.84526 c 0.43795,-0.4649 2.7245,-2.17703 5.08121,-3.80475 z m 41.47959,-22.61212 c -0.65943,-1.05592 -0.52787,-2.74678 0.33288,-4.27828 0.79326,-1.41142 1.34615,-1.76225 1.34615,-0.85419 0,0.64826 1.08593,1.24713 2.26143,1.24713 0.67108,0 1.08063,-0.33288 1.62763,-1.32291 l 0.73091,-1.32292 -0.17891,2.6306 c -0.19528,2.87132 -0.93287,4.33881 -2.28138,4.53897 -0.73801,0.10954 -0.73224,0.0781 0.14714,-0.80127 1.45682,-1.45681 1.08013,-2.38788 -1.16735,-2.88539 -1.68484,-0.37297 -1.89155,-0.35099 -2.20486,0.23444 -0.44673,0.83473 -0.44312,2.00164 0.007,2.27987 0.41135,0.25423 0.47873,1.23472 0.0849,1.23472 -0.14736,0 -0.46486,-0.31534 -0.70556,-0.70077 z m 1.44384,0.46559 c 0.12936,-0.12935 0.34102,-0.12935 0.47037,0 0.12936,0.12935 0.0235,0.23518 -0.23518,0.23518 -0.2587,0 -0.36454,-0.10583 -0.23519,-0.23518 z m 0.94074,0.0588 c 0,-0.097 0.0794,-0.17639 0.17639,-0.17639 0.097,0 0.17639,0.0794 0.17639,0.17639 0,0.097 -0.0794,0.17639 -0.17639,0.17639 -0.097,0 -0.17639,-0.0794 -0.17639,-0.17639 z m -35.4151,-4.24467 c -0.29728,-0.29728 -0.64657,-1.10586 -0.7762,-1.79684 -0.18771,-1.00059 -0.0879,-1.4041 0.49017,-1.98219 l 0.72586,-0.72586 -0.29787,1.32072 c -0.36103,1.60072 0.13452,3.25111 0.97952,3.26229 0.72567,0.01 2.49306,-1.13533 3.31254,-2.14589 0.42634,-0.52575 0.48843,-0.8561 0.22138,-1.17787 -0.20412,-0.24595 -0.25288,-0.44719 -0.10835,-0.44719 0.14453,0 0.0449,-0.26411 -0.22139,-0.58692 -0.43541,-0.52782 -0.41019,-0.54752 0.25041,-0.19565 1.66085,0.88467 1.75962,1.42341 0.49934,2.72368 -1.19919,1.23726 -3.03833,2.29223 -3.99606,2.29223 -0.29636,0 -0.78207,-0.24323 -1.07935,-0.54051 z m -60.389609,5.36063 c 0.9036,-0.90359 1.61305,-3.57975 1.61305,-6.08462 0,-1.50021 0.0387,-1.56184 0.7436,-1.18459 0.5609,0.30019 1.31928,0.28171 3.0868,-0.0752 1.39655,-0.28201 4.62359,-0.46893 7.987659,-0.46268 4.99084,0.009 6.48187,0.16481 12.87639,1.34312 3.97757,0.73294 10.72444,2.09509 14.99305,3.027 4.26861,0.93191 7.89515,1.57433 8.05897,1.42762 0.31761,-0.28444 5.14383,-13.4994 4.99377,-13.67373 -0.0489,-0.0568 -2.37074,-0.57479 -5.15969,-1.15111 -15.62608,-3.22906 -32.09418,-9.63954 -42.628359,-16.59379 -2.02998,-1.34012 -3.95006,-2.43657 -4.26685,-2.43657 -1.33465,0 -2.802,2.81145 -2.802,5.36864 0,1.44967 0.21317,2.18962 0.93821,3.25661 l 0.93821,1.3807 -1.10393,-0.78607 c -0.60716,-0.43234 -1.19748,-0.93743 -1.31181,-1.12242 -0.11433,-0.185 -1.29037,-0.33635 -2.61342,-0.33635 -2.73015,0 -4.18023,-0.5035 -6.45846,-2.24251 -3.67819,-2.80763 -4.82629,-2.72757 -6.43692,0.44884 -0.82649,1.62997 -0.57211,4.32906 0.51729,5.48867 1.00006,1.06451 4.27959,2.38733 7.91119,3.19102 2.64055,0.58436 2.74271,0.64188 1.94028,1.09231 -1.29834,0.72881 -6.23331,2.25198 -7.30344,2.25419 -1.96575,0.004 -3.618,0.71989 -4.32034,1.87176 -0.87396,1.43332 -0.86675,2.39115 0.0313,4.15139 1.61348,3.16269 4.2544,3.51679 10.61379,1.42311 l 4.10163,-1.35035 -1.37206,1.80175 c -1.77611,2.33236 -2.28788,4.12196 -1.75607,6.14077 0.51624,1.95972 1.33404,3.18436 2.67088,3.99959 1.43956,0.87787 2.52387,0.82636 3.51732,-0.16709 z m -2.29472,-15.45431 c -0.96758,-1.80795 0.72357,-5.73419 3.03071,-7.03619 0.5794,-0.32697 1.68845,-0.69323 2.46456,-0.81391 l 1.41111,-0.21941 -1.14922,0.51651 c -3.17434,1.42668 -4.70243,3.54574 -4.72573,6.55334 -0.0145,1.87567 -0.37541,2.22544 -1.03143,0.99966 z m 177.260309,15.53973 c 1.40584,-1.10584 2.33078,-3.19391 2.33078,-5.26179 0,-2.00372 -0.56784,-3.33945 -2.3606,-5.55278 -1.39643,-1.72403 -1.13218,-1.85099 1.29383,-0.62164 2.45967,1.24641 6.80195,2.65011 8.19797,2.65011 2.92631,0 5.5688,-2.53288 5.5688,-5.33781 0,-2.11425 -1.5933,-3.21602 -6.23262,-4.30988 -4.71512,-1.11173 -6.83791,-1.84596 -6.1146,-2.11491 0.29104,-0.10822 1.79431,-0.6121 3.34059,-1.11973 5.21738,-1.71283 6.07097,-2.19506 6.70926,-3.7903 0.847,-2.11687 0.4288,-3.97617 -1.27832,-5.68328 -1.70291,-1.70292 -2.56486,-1.61064 -5.70226,0.61046 -3.4534,2.44482 -4.27119,2.76145 -7.06468,2.7353 -2.03312,-0.019 -2.76812,0.13546 -3.95582,0.83149 l -1.45873,0.85488 0.85102,-1.65686 c 1.35708,-2.6421 0.72166,-5.91831 -1.40846,-7.26195 -0.46336,-0.29228 -1.14532,0.0244 -3.31485,1.53913 -5.72174,3.99492 -7.49976,5.06497 -12.29413,7.39893 -5.28492,2.57274 -9.91227,4.33722 -15.4327,5.8847 l -3.43824,0.9638 1.85075,1.02305 c 1.01791,0.56267 2.44605,1.26564 3.17366,1.56215 0.7276,0.29651 1.32292,0.66418 1.32292,0.81704 0,0.75643 -2.61719,2.42514 -4.96696,3.1669 -1.43977,0.4545 -2.67694,0.87302 -2.74927,0.93003 -0.18105,0.14272 1.33806,6.22103 1.70191,6.80976 0.24058,0.38926 1.50052,0.24559 6.94646,-0.79215 3.65892,-0.69721 8.07723,-1.45262 9.81848,-1.67869 3.74957,-0.4868 13.73425,-0.23094 16.02005,0.41052 1.17686,0.33027 1.70332,0.33657 2.20007,0.0263 0.98304,-0.61391 1.01416,-0.56498 1.03085,1.62066 0.0171,2.2339 0.64147,4.35162 1.59315,5.40322 0.81828,0.90419 2.63437,0.87724 3.82169,-0.0567 z m -3.07162,-15.92898 c 0.29284,-2.83729 -1.12477,-5.00554 -4.3122,-6.59557 -1.19913,-0.59817 -1.27579,-0.69932 -0.53914,-0.71138 2.22927,-0.0365 5.72334,2.76917 6.21042,4.98683 0.24723,1.12564 -0.33495,3.2069 -1.067,3.81445 -0.40891,0.33936 -0.45631,0.0969 -0.29208,-1.49433 z m -91.03665,12.83988 c 0.751,-0.7472 2.39733,-2.50483 3.65851,-3.90584 1.26118,-1.40101 2.88836,-3.1776 3.61597,-3.94797 0.7276,-0.77037 1.32291,-1.51305 1.3229,-1.6504 -10e-6,-0.13735 -3.49522,-0.27864 -7.76712,-0.31397 -4.72814,-0.0391 -7.6876,0.0644 -7.56389,0.26458 0.11177,0.18086 -0.0536,0.32882 -0.36758,0.32882 -0.31395,0 -0.4727,0.15875 -0.35278,0.35278 0.11991,0.19403 0.0499,0.35278 -0.15557,0.35278 -0.20548,0 -0.3736,0.23812 -0.3736,0.52917 0,0.29104 0.18521,0.52916 0.41158,0.52916 0.22636,0 0.31723,0.0943 0.20193,0.20964 -0.52281,0.52282 4.86529,8.60981 5.73645,8.60981 0.14726,0 0.8822,-0.61135 1.6332,-1.35856 z m 0.83628,-3.40394 c 0,-0.097 0.0794,-0.17639 0.17639,-0.17639 0.097,0 0.17639,0.0794 0.17639,0.17639 0,0.097 -0.0794,0.17639 -0.17639,0.17639 -0.097,0 -0.17639,-0.0794 -0.17639,-0.17639 z m -8.46666,-4.58611 c 0,-0.097 0.0794,-0.17639 0.17639,-0.17639 0.097,0 0.17639,0.0794 0.17639,0.17639 0,0.097 -0.0794,0.17639 -0.17639,0.17639 -0.097,0 -0.17639,-0.0794 -0.17639,-0.17639 z m 14.11111,-0.35278 c 0,-0.097 0.0794,-0.17639 0.17639,-0.17639 0.097,0 0.17639,0.0794 0.17639,0.17639 0,0.097 -0.0794,0.17639 -0.17639,0.17639 -0.097,0 -0.17639,-0.0794 -0.17639,-0.17639 z m -2.11667,-0.35278 c 0,-0.097 0.0794,-0.17639 0.17639,-0.17639 0.097,0 0.17639,0.0794 0.17639,0.17639 0,0.097 -0.0794,0.17639 -0.17639,0.17639 -0.097,0 -0.17639,-0.0794 -0.17639,-0.17639 z m 2.93982,-0.41157 c 0.12935,-0.12935 0.34102,-0.12935 0.47037,0 0.12935,0.12935 0.0235,0.23518 -0.23519,0.23518 -0.2587,0 -0.36454,-0.10583 -0.23518,-0.23518 z m 41.49997,2.85037 c -0.61987,-1.86062 -0.99021,-3.50896 -0.82299,-3.66298 0.16722,-0.15402 1.54037,-0.64119 3.05146,-1.0826 1.51108,-0.44141 2.82338,-0.92547 2.91622,-1.07568 0.0928,-0.15021 -1.01568,-0.89378 -2.46338,-1.65237 l -2.63217,-1.37926 -2.09573,0.51198 -2.09573,0.51199 -0.97415,2.41984 -0.97415,2.41984 3.49138,3.45022 c 1.92027,1.89762 3.54424,3.33137 3.60883,3.1861 0.0646,-0.14527 -0.38972,-1.78645 -1.00959,-3.64708 z m -5.63424,-2.79158 c 0,-0.097 0.0794,-0.17639 0.17639,-0.17639 0.097,0 0.17639,0.0794 0.17639,0.17639 0,0.097 -0.0794,0.17639 -0.17639,0.17639 -0.097,0 -0.17639,-0.0794 -0.17639,-0.17639 z m 1.05834,0 c 0,-0.097 0.0794,-0.17639 0.17639,-0.17639 0.097,0 0.17639,0.0794 0.17639,0.17639 0,0.097 -0.0794,0.17639 -0.17639,0.17639 -0.097,0 -0.17639,-0.0794 -0.17639,-0.17639 z m -51.85833,-1.05833 c 0,-0.097 -0.0794,-0.17639 -0.17639,-0.17639 -0.097,0 -0.17639,0.0794 -0.17639,0.17639 0,0.097 0.0794,0.17639 0.17639,0.17639 0.097,0 0.17639,-0.0794 0.17639,-0.17639 z m 27.86944,-7.3816 c 30.84599,-3.28044 49.92691,-9.62232 64.68622,-21.49962 3.27179,-2.63291 7.19174,-6.85021 9.32883,-10.03646 0.85732,-1.27821 1.43403,-1.81797 1.80981,-1.69387 0.30334,0.10017 2.45652,0.85282 4.78486,1.67255 3.75817,1.32312 4.6689,1.50725 8.11388,1.64043 4.6113,0.17827 7.53768,-0.39692 11.35105,-2.23108 6.99133,-3.36269 12.337181,-9.93903 14.088571,-17.3314 0.70513,-2.97625 0.78805,-8.46189 0.167,-11.04867 -1.10378,-4.59751 -4.181051,-9.18996 -7.808561,-11.65336 -3.18376,-2.16205 -5.01855,-2.8597 -8.07111,-3.06893 -4.21876,-0.28916 -7.6811,0.927 -11.33852,3.98269 l -1.53954,1.28625 -0.49275,-1.47824 c -0.47059,-1.41177 -0.44717,-1.56737 0.52089,-3.46026 1.22883,-2.40279 3.26065,-4.04528 6.03985,-4.88252 1.11211,-0.33503 2.2021,-0.77879 2.42221,-0.98613 0.48836,-0.46005 3.0625,-11.10533 3.80194,-15.72283 1.22807,-7.6687 1.42929,-10.04463 1.43411,-16.93333 0.005,-6.86004 -0.28465,-10.32349 -1.62159,-19.40278 -0.81164,-5.51194 -2.77038,-10.03791 -8.44165,-19.50567 -0.95401,-1.59264 -1.8611,-3.11397 -2.01577,-3.38072 -0.20174,-0.34796 -0.70035,0.16311 -1.76449,1.80858 -0.81581,1.26147 -3.00579,3.92218 -4.86662,5.91269 l -3.38333,3.6191 1.37981,1.45149 c 2.39816,2.52272 7.40996,9.41011 7.96187,10.94147 0.0769,0.21328 0.2118,0.30841 0.29984,0.2114 0.088,-0.097 1.5135,-1.76389 3.16769,-3.70417 3.03341,-3.55804 4.08859,-4.62564 4.32097,-4.3718 0.1697,0.18538 2.67841,6.92866 2.67841,7.19944 0,0.11694 -0.17576,0.10399 -0.39057,-0.0288 -0.26607,-0.16444 -0.31025,0.0117 -0.13859,0.55252 0.17165,0.54084 0.12747,0.71696 -0.1386,0.55253 -0.21481,-0.13277 -0.39057,-0.55889 -0.39057,-0.94695 0,-0.38805 -0.15875,-0.60744 -0.35278,-0.48752 -0.19403,0.11991 -0.35278,0.0329 -0.35278,-0.19332 0,-0.22623 0.23813,-0.31996 0.52917,-0.20828 0.80499,0.30891 0.63546,-0.12409 -0.44097,-1.12629 -0.58772,-0.54719 -0.72678,-0.81085 -0.35278,-0.66888 0.33955,0.12889 0.61736,0.0806 0.61736,-0.10736 0,-0.18794 -0.25511,-0.34171 -0.56691,-0.34171 -0.38471,0 -0.49943,-0.19841 -0.35696,-0.61736 0.25301,-0.74395 -1.18332,0.88771 -5.43454,6.17361 -1.75554,2.18281 -3.31229,3.96875 -3.45945,3.96875 -0.14715,0 -0.9749,-1.45892 -1.83943,-3.24204 -2.42475,-5.00112 -4.7314,-8.28931 -8.20814,-11.7009 l -3.18455,-3.12489 0.59715,-1.10844 c 0.32843,-0.60965 1.38718,-2.03411 2.35277,-3.16548 0.96559,-1.13137 1.75562,-2.18058 1.75562,-2.33159 0,-0.6323 -3.16535,-3.79161 -6.48946,-6.47708 -4.5595,-3.68351 -6.56332,-5.52476 -6.56332,-6.03083 0,-0.22138 0.62101,-1.15402 1.38003,-2.07253 0.75901,-0.91851 1.73358,-2.40039 2.16572,-3.29306 l 0.78569,-1.62303 -1.54836,-1.38105 c -2.5904,-2.31051 -9.31937,-6.63034 -14.21207,-9.12382 -10.7707,-5.48908 -22.14523,-8.88699 -36.5487804,-10.91821 -9.82927,-1.38614 -22.1047096,-2.09229 -28.2979396,-1.62785 l -3.42711,0.257 -1.2472,2.2302 c -0.68596,1.22661 -1.24719,2.31293 -1.24719,2.41405 0,0.10112 0.96603,0.94281 2.14673,1.87042 1.75431,1.37827 3.14493,3.03522 3.14493,3.74724 0,0.0717 -0.71806,-0.53831 -1.59568,-1.3556 -0.87763,-0.81728 -2.82231,-2.09279 -4.32153,-2.83446 -4.87325,-2.41082 -8.05291,-2.05757 -15.77862,1.75296 l -3.88055,1.914 1.57223,-1.35785 c 2.11389,-1.82565 5.30842,-3.38666 8.30554,-4.05851 1.3582,-0.30446 2.9292,-0.6631 3.49111,-0.79698 0.64462,-0.15359 1.33003,-0.73066 1.85722,-1.56366 l 0.83555,-1.32022 h -1.17772 c -3.37062,0 -16.36644,2.46285 -24.2932,4.60382 -13.05582,3.52631 -24.12351,8.34535 -33.8176,14.72471 -6.37682,4.19636 -9.587369,6.79531 -14.656519,11.86446 -4.78795,4.78794 -7.63938,8.2522 -11.08506,13.46741 -9.32708,14.11702 -15.24007,34.70926 -15.23213,53.04655 0.003,7.10613 0.44923,10.05847 2.75864,18.25506 1.5975,5.66981 2.12065,8.5147 2.78065,15.12107 0.30171,3.01998 0.70397,6.31329 0.8939,7.31847 1.13201,5.99074 3.39043,12.17192 6.31457,17.28266 5.11788,8.9449 14.15676,17.01944 25.304969,22.60522 14.70409,7.36745 33.22729,12.3316 54.13944,14.50918 5.98802,0.62353 23.06141,0.43657 30.28479,-0.33162 z m -31.39722,-9.24927 c -13.14318,-0.95749 -23.78251,-4.22808 -30.39345,-9.34312 -9.12007,-7.05641 -13.77541,-15.13305 -13.22534,-22.9449 0.1224,-1.73832 0.53631,-3.91573 0.95921,-5.04602 1.69407,-4.52781 6.25764,-9.86002 11.10331,-12.97343 12.45931,-8.00529 37.58034,-8.18144 60.72485,-0.4258 8.9596396,3.00234 19.1777396,8.63857 21.1680096,11.67611 0.69399,1.05916 1.03227,0.83695 0.43423,-0.28522 -0.38359,-0.71979 -0.37223,-0.76883 0.0899,-0.38787 0.97483,0.80363 3.0793404,5.87881 3.4763004,8.38335 1.34212,8.46786 -3.1519704,19.03311 -10.0411104,23.60586 -3.79348,2.51797 -13.7375296,5.99973 -20.3070096,7.11019 -3.27483,0.55356 -19.27435,0.9743 -23.98889,0.63085 z m 26.78038,-4.51049 c 1.82636,-0.31682 4.76323,-0.98041 6.5263796,-1.47464 5.45639,-1.52949 11.84879,-4.96385 11.84879,-6.36585 0,-0.93724 -2.34240005,-3.52379 -4.74162,-5.23584 -4.70375,-3.35652 -9.8977296,-4.86976 -16.7778196,-4.88811 -4.78824,-0.0128 -6.98212,0.45189 -9.7262,2.06002 -1.71812,1.00689 -1.95098,1.06361 -1.82727,0.44509 0.14888,-0.7444 -5.81149,-0.47387 -9.27224,0.42085 -7.39946,1.913 -15.05095,7.2496 -17.81823,12.42747 l -0.50348,0.94208 1.84663,0.39972 c 2.8862,0.62473 8.34072,1.39933 12.32332,1.75003 5.84884,0.51503 24.18861,0.20146 28.12174,-0.48082 z m 5.21945,-28.41108 c 0.83111,-0.50675 1.5506296,-1.56073 2.7084596,-3.96743 0.86717,-1.80254 1.73506,-3.876 1.92864,-4.60769 l 0.35196,-1.33035 -1.7571,-0.89039 c -5.0733496,-2.57086 -13.1201996,-5.19071 -20.4151196,-6.64666 -6.56926,-1.31111 -12.25964,-1.72346 -21.02549,-1.52359 -8.27961,0.18878 -11.95582,0.73728 -16.19257,2.41599 -2.00406,0.79406 -2.1224,0.90761 -2.22453,2.13444 -0.14355,1.72436 1.1548,7.09348 2.13863,8.84398 1.11597,1.9856 2.96285,2.8476 6.10907,2.8513 1.74706,0.002 2.91077,-0.19983 3.88055,-0.67322 l 1.38517,-0.67616 -0.0424,-2.73403 c -0.0233,-1.50371 10e-4,-2.73402 0.0545,-2.73402 0.0533,0 0.58767,0.86956 1.18748,1.93237 1.32186,2.3422 2.96133,3.29672 6.17835,3.59713 5.07853,0.47424 7.11662,-0.57564 8.14639,-4.19643 l 0.62996,-2.21502 0.7423,2.76231 c 0.42141,1.56823 1.08013,3.10922 1.52383,3.56482 1.53089,1.57196 7.31381,2.11263 9.80179,0.91642 1.95829,-0.94154 2.48768,-1.42651 3.51061,-3.21605 l 0.89062,-1.55805 0.004,2.73402 c 0.006,3.58875 0.48658,4.11332 4.94314,5.39086 2.35085,0.67391 4.24798,0.61415 5.5415,-0.17455 z m 86.18072,3.79379 c -1.26118,-0.64353 -2.98879,-1.44128 -3.83914,-1.77278 l -1.54608,-0.60272 0.24436,-1.84208 c 0.24828,-1.87162 1.96354,-6.68357 3.38727,-9.50256 2.99612,-5.93234 7.92014,-11.65587 11.57635,-13.45601 2.13758,-1.05244 2.61375,-1.14853 5.69179,-1.14853 5.34501,0 7.96255,1.42142 9.00674,4.89099 0.524621,1.74318 0.228361,2.11398 -0.8844,1.10695 -0.53341,-0.48274 -0.57005,-0.43388 -0.42351,0.5646 l 0.16043,1.09306 -2.95566,-0.23951 c -3.69734,-0.29961 -7.28914,0.25442 -9.766,1.50637 -2.41604,1.22121 -6.27908,4.82495 -6.94018,6.47434 l -0.51533,1.28568 1.3121,0.24324 c 4.20727,0.77996 6.57334,5.27916 4.69579,8.92931 -1.22393,2.37944 -2.59321,3.3638 -4.88265,3.51008 -1.74721,0.11164 -2.34712,-0.0328 -4.32188,-1.04043 z M 7.2159386,-273.82783 c 0,-0.097 0.0794,-0.17638 0.17639,-0.17638 0.097,0 0.17639,0.0794 0.17639,0.17638 0,0.097 -0.0794,0.17639 -0.17639,0.17639 -0.097,0 -0.17639,-0.0794 -0.17639,-0.17639 z m -0.70555,-1.05833 c 0,-0.097 0.0794,-0.17639 0.17639,-0.17639 0.097,0 0.17638,0.0794 0.17638,0.17639 0,0.097 -0.0794,0.17639 -0.17638,0.17639 -0.097,0 -0.17639,-0.0794 -0.17639,-0.17639 z m 24.2549604,-1.39712 c 1.79557,-0.65203 3.77995,-1.50576 4.40972,-1.89718 0.62977,-0.39143 2.57379,-1.49606 4.32004,-2.45474 8.32789,-4.57197 12.42784,-7.55029 18.80727,-13.66214 2.36482,-2.26562 4.29967,-4.00121 4.29967,-3.85686 0,0.53644 -3.69191,6.40916 -5.34486,8.50206 -5.6824,7.19483 -14.36783,12.1551 -24.59203,14.04454 -4.96455,0.91746 -5.63268,0.67984 -1.89981,-0.67568 z m -134.145229,-4.27823 c -3.65963,-0.64415 -7.60188,-2.02559 -10.12471,-3.54789 -4.01084,-2.42017 -8.24067,-7.53933 -10.67015,-12.91356 -0.67977,-1.50372 -1.17992,-2.73403 -1.11144,-2.73403 0.0685,0 1.23481,1.47717 2.59185,3.2826 2.30058,3.06071 6.16289,7.53079 6.96722,8.06358 0.19403,0.12852 0.74966,0.58187 1.23473,1.00745 2.8419,2.49333 8.1516,5.26591 12.19155,6.36609 4.315589,1.17524 3.910249,1.35396 -1.07905,0.47576 z m 121.708319,-0.01 c -6.29864,-0.87846 -11.4100504,-2.47522 -16.4041604,-5.12452 -8.3019,-4.40403 -14.6559896,-11.0904 -18.8942096,-19.88228 -3.75626,-7.79207 -4.89456,-12.82339 -4.90856,-21.69583 -0.0101,-6.44012 0.29191,-8.5211 1.99709,-13.75834 3.42671,-10.52464 11.5034696,-20.05391 21.0629396,-24.85085 16.8921104,-8.47645 37.4345704,-5.24955 50.8875304,7.99365 7.78906,7.6676 12.52089,16.4838 14.23198,26.51661 0.62036,3.63744 0.71327,12.48369 0.16371,15.58761 -1.41697,8.00303 -5.82936,16.42003 -11.98096,22.85473 -5.36366,5.61048 -11.77734,9.54399 -18.56113,11.38354 -3.09851,0.84021 -4.20377,0.95438 -10.00951,1.0339 -3.58951,0.0492 -7.00264,0.023 -7.58472,-0.0582 z m 14.81667,-5.9222 c 18.21278,-5.41214 29.23432,-22.678 26.48229,-41.48599 -2.4824,-16.96526 -14.02471,-30.33045 -29.76108,-34.46123 -4.46498,-1.17206 -11.4412,-1.31784 -15.77121,-0.32957 -9.2087504,2.10177 -17.4185304,7.72014 -22.7433404,15.56441 -7.7769496,11.45666 -9.1901396,25.31727 -3.8814396,38.06932 3.1226996,7.50108 10.0956196,15.13604 17.7124796,19.39421 2.466,1.37861 8.6554404,3.55242 11.5851904,4.06888 1.05227,0.1855 4.45322,0.28916 7.55766,0.23036 4.89818,-0.0928 6.06422,-0.23164 8.81945,-1.05039 z M 8.4506586,-312.79477 c -2.5542,-0.41952 -5.61913,-1.66667 -7.35822,-2.99414 -2.67405,-2.04115 -3.07113,-2.45422 -4.3101,-4.48358 l -1.21749,-1.99418 -1.32463,0.63999 c -0.72855,0.352 -2.35362,1.44223 -3.61126,2.42274 l -2.2866296,1.78275 -0.45586,-1.4869 c -1.41553,-4.61707 -1.21023,-10.84969 0.53486,-16.23711 l 0.93568,-2.88867 0.29662,2.23042 c 0.3838096,2.88613 1.4063796,5.0184 3.1713696,6.61296 1.72113,1.55494 3.16081,2.18757 5.63366,2.47559 4.32083,0.50324 8.69762,-1.20864 12.3759904,-4.8406 3.25754,-3.21644 4.61498,-6.08706 4.6365,-9.80498 0.0134,-2.31099 -0.12572,-2.93019 -1.03306,-4.59834 -1.30504,-2.39931 -3.47068,-4.08264 -6.2445904,-4.85386 l -2.11724,-0.58864 1.36359,-0.52159 c 0.95848,-0.36663 2.8308904,-0.52678 6.3024804,-0.53904 4.49514,-0.0159 5.15257,0.0649 7.31716,0.89865 6.52656,2.51398 12.13076,7.96635 14.39719,14.00716 0.73386,1.95598 1.74394,6.84792 1.74489,8.45073 9.8e-4,1.65161 -0.61141,0.37247 -0.79593,-1.66253 -0.22322,-2.46165 -0.60156,-3.33013 -1.00354,-2.30362 -0.227,0.57966 -0.27085,0.59106 -0.29192,0.0758 -0.0172,-0.42112 -0.21335,-0.53994 -0.64216,-0.38905 -0.49528,0.17428 -0.53274,0.12584 -0.18947,-0.24494 0.34158,-0.36894 0.24449,-0.55732 -0.48129,-0.93386 -1.12575,-0.58404 -4.15454,-0.64864 -3.8038,-0.0811 0.16444,0.26607 -0.0117,0.31025 -0.55252,0.13859 -0.48027,-0.15243 -0.71093,-0.11771 -0.58386,0.0879 0.23704,0.38354 0.67959,3.07225 0.68232,4.14544 0.004,1.48151 -1.27591,6.42096 -2.07185,7.99713 -0.45747,0.90592 -1.63864,2.61668 -2.62481,3.80169 l -1.79306,2.15457 -1.00397,-0.71489 c -2.50581,-1.7843 -6.01032,-0.067 -6.01032,2.94527 0,0.48637 -0.12844,0.96369 -0.28541,1.06071 -0.57414,0.35484 -5.58469,0.51513 -7.2993204,0.23351 z m -19.2263796,-5.83632 c 0,-0.097 -0.0794,-0.17639 -0.17639,-0.17639 -0.097,0 -0.17639,0.0794 -0.17639,0.17639 0,0.097 0.0794,0.17639 0.17639,0.17639 0.097,0 0.17639,-0.0794 0.17639,-0.17639 z m 0.24098,-1.65365 c -0.11261,-0.28142 -0.19621,-0.19782 -0.21313,0.21314 -0.0153,0.37189 0.0681,0.58025 0.18528,0.46302 0.11723,-0.11722 0.12976,-0.42149 0.0279,-0.67616 z m 26.76255,-1.15254 c 0.99094,-0.99094 1.12913,-2.48185 0.3351,-3.61548 -0.5276,-0.75326 -0.52428,-0.75458 0.54872,-0.21929 2.54618,1.2702 5.62653,-0.91757 5.62653,-3.99615 0,-1.40765 -0.17712,-1.79385 -1.36961,-2.98634 -1.53356,-1.53356 -2.84073,-1.76447 -4.66073,-0.82331 -2.06646,1.06861 -3.09397,4.09381 -1.91838,5.64808 0.74836,0.98942 0.67679,1.08821 -0.67413,0.93049 -2.6084,-0.30451 -4.02345,2.97698 -2.15371,4.99445 1.15932,1.25093 3.05285,1.28091 4.26621,0.0676 z m -24.5340904,0.33675 c 0,-0.097 -0.0794,-0.17639 -0.17639,-0.17639 -0.097,0 -0.17639,0.0794 -0.17639,0.17639 0,0.097 0.0794,0.17639 0.17639,0.17639 0.097,0 0.17639,-0.0794 0.17639,-0.17639 z m 1.41111,-0.70556 c 0,-0.097 -0.0794,-0.17639 -0.17639,-0.17639 -0.097,0 -0.17639,0.0794 -0.17639,0.17639 0,0.097 0.0794,0.17639 0.17639,0.17639 0.097,0 0.17639,-0.0794 0.17639,-0.17639 z m 0.70556,-0.70555 c 0,-0.097 -0.0794,-0.17639 -0.17639,-0.17639 -0.097,0 -0.17639,0.0794 -0.17639,0.17639 0,0.097 0.0794,0.17638 0.17639,0.17638 0.097,0 0.17639,-0.0794 0.17639,-0.17638 z m 1.18668,-0.70353 c -0.11125,-0.28993 -0.3444,-0.43931 -0.51809,-0.33196 -0.4981,0.30784 -0.3683,0.8591 0.20228,0.8591 0.31471,0 0.43868,-0.20694 0.31581,-0.52714 z m 40.7938704,-10.91732 c 0,-0.0856 -0.15875,-0.25368 -0.35278,-0.3736 -0.19403,-0.11991 -0.35278,-0.0499 -0.35278,0.15557 0,0.20548 0.15875,0.3736 0.35278,0.3736 0.19403,0 0.35278,-0.07 0.35278,-0.15557 z m -45.86111,20.44029 c 0,-0.097 0.0794,-0.17639 0.1763896,-0.17639 0.097,0 0.17639,0.0794 0.17639,0.17639 0,0.097 -0.0794,0.17639 -0.17639,0.17639 -0.097,0 -0.1763896,-0.0794 -0.1763896,-0.17639 z m -0.70555,-1.41111 c 0,-0.097 0.0794,-0.17639 0.17639,-0.17639 0.097,0 0.17638,0.0794 0.17638,0.17639 0,0.097 -0.0794,0.17639 -0.17638,0.17639 -0.097,0 -0.17639,-0.0794 -0.17639,-0.17639 z m -0.35278,-1.05834 c 0,-0.097 0.0794,-0.17638 0.17639,-0.17638 0.097,0 0.17639,0.0794 0.17639,0.17638 0,0.097 -0.0794,0.17639 -0.17639,0.17639 -0.097,0 -0.17639,-0.0794 -0.17639,-0.17639 z m -0.35278,-0.70555 c 0,-0.097 0.0794,-0.17639 0.17639,-0.17639 0.097,0 0.17639,0.0794 0.17639,0.17639 0,0.097 -0.0794,0.17639 -0.17639,0.17639 -0.097,0 -0.17639,-0.0794 -0.17639,-0.17639 z m 46.56666,-12.34722 c 0,-0.097 0.0794,-0.17639 0.17639,-0.17639 0.097,0 0.17639,0.0794 0.17639,0.17639 0,0.097 -0.0794,0.17639 -0.17639,0.17639 -0.097,0 -0.17639,-0.0794 -0.17639,-0.17639 z m -4.93888,-0.88195 c 0,-0.38805 0.15875,-0.70555 0.35277,-0.70555 0.19403,0 0.35278,0.3175 0.35278,0.70555 0,0.38806 -0.15875,0.70556 -0.35278,0.70556 -0.19402,0 -0.35277,-0.3175 -0.35277,-0.70556 z m 1.12066,-0.21963 c 0.0876,-0.43953 0.62624,-0.5986 2.32045,-0.68522 2.09068,-0.1069 2.18716,-0.0769 1.83967,0.57241 -0.49917,0.9327 -4.34428,1.03697 -4.16012,0.11281 z m 4.52378,0.0432 c 0,-0.097 0.0794,-0.17638 0.17639,-0.17638 0.097,0 0.17639,0.0794 0.17639,0.17638 0,0.097 -0.0794,0.17639 -0.17639,0.17639 -0.097,0 -0.17639,-0.0794 -0.17639,-0.17639 z m -5.64444,-2.82222 c 0,-0.097 0.0794,-0.17639 0.17638,-0.17639 0.097,0 0.17639,0.0794 0.17639,0.17639 0,0.097 -0.0794,0.17639 -0.17639,0.17639 -0.097,0 -0.17638,-0.0794 -0.17638,-0.17639 z m 0.35277,-1.05833 c 0,-0.097 0.0794,-0.17639 0.17639,-0.17639 0.097,0 0.17639,0.0794 0.17639,0.17639 0,0.097 -0.0794,0.17639 -0.17639,0.17639 -0.097,0 -0.17639,-0.0794 -0.17639,-0.17639 z M 5.4520486,-351.08616 c 0,-0.097 0.0794,-0.17639 0.17639,-0.17639 0.097,0 0.17639,0.0794 0.17639,0.17639 0,0.097 -0.0794,0.17639 -0.17639,0.17639 -0.097,0 -0.17639,-0.0794 -0.17639,-0.17639 z m -104.2539296,66.82603 c -7.854309,-0.71147 -15.329509,-4.55029 -20.321789,-10.43607 -3.47842,-4.10098 -6.66399,-10.67482 -8.00047,-16.51001 -0.81788,-3.57094 -0.78507,-13.12487 0.0585,-17.04401 3.55542,-16.51748 14.351,-28.81804 29.023945,-33.0701 6.93684,-2.01022 13.94537,-1.94713 20.30265,0.18276 4.10653,1.37581 5.98928,2.36313 9.38339,4.92067 5.66938,4.272 10.02527,10.73911 12.29924,18.26047 0.85191,2.81775 0.93955,3.65656 0.96881,9.27164 0.0337,6.4679 -0.40139,9.64347 -1.95395,14.26114 -1.5882,4.72367 -4.97156,10.63649 -8.37594,14.63789 -6.34929,7.46279 -18.10547,14.59357 -25.31984,15.3579 -4.09723,0.43409 -4.93228,0.45146 -8.06458,0.16772 z m 13.94283,-4.92016 c 3.32643,-0.80941 9.11925,-3.46163 11.78687,-5.3966 6.44997,-4.67849 10.8027,-11.23842 12.94406,-19.50779 0.82319,-3.17892 1.11251,-8.42946 0.57407,-10.41801 -0.31777,-1.17358 -2.17673,-2.19971 -5.37306,-2.96587 -0.19403,-0.0465 -0.78934,-0.19764 -1.32291,-0.33585 l -0.97014,-0.2513 v 1.97852 c 0,1.55679 0.11723,1.97853 0.54998,1.97853 0.3025,0 0.45028,0.16133 0.3284,0.35853 -0.12187,0.19719 -0.35657,0.2751 -0.52155,0.17314 -0.16499,-0.10197 -0.49319,0.41138 -0.72934,1.14077 -0.62691,1.93629 -1.92838,4.4231 -2.95063,5.63798 -0.64839,0.77056 -1.30559,1.11636 -2.40079,1.26323 -1.65099,0.2214 -3.44829,1.81213 -3.44829,3.05196 0,0.85317 -2.14568,1.27588 -6.06234,1.19432 -4.22339,-0.088 -7.47092,-1.25399 -11.52447,-4.13791 -1.84522,-1.3128 -4.84675,-5.18882 -5.38913,-6.95924 l -0.39086,-1.27584 -1.565449,0.47113 c -0.86099,0.25912 -2.52764,0.90294 -3.70367,1.43071 l -2.13823,0.95958 0.19258,1.60901 c 0.10591,0.88496 0.30852,1.92651 0.45022,2.31457 0.14171,0.38805 0.14295,0.60291 0.003,0.47746 -0.14019,-0.12545 -0.48536,-1.07795 -0.76704,-2.11666 -0.76077,-2.8054 -0.66826,-8.36883 0.19517,-11.73777 0.39379,-1.5365 0.78456,-2.86221 0.86837,-2.94603 0.0838,-0.0838 0.32105,0.47397 0.52719,1.23952 0.53395,1.98293 2.16282,4.25141 3.88157,5.40573 2.513432,1.68804 4.600142,2.18963 8.463682,2.03445 3.0307,-0.12173 3.71597,-0.27703 5.84319,-1.32426 3.03365,-1.49346 6.39711,-4.78539 7.78246,-7.61694 1.89997,-3.8834 1.19952,-8.70091 -1.71115,-11.7688 -1.71598,-1.80867 -4.93243,-3.21133 -7.47846,-3.26127 l -2.11666,-0.0415 1.94028,-0.33968 c 5.25956,-0.92077 11.97856,0.35866 17.28611,3.29161 3.61052,1.99518 8.26773,6.68301 9.86728,9.93217 0.64489,1.30994 1.24543,2.30881 1.33454,2.2197 0.29225,-0.29225 -1.35907,-4.91837 -2.59157,-7.26021 -2.96071,-5.62558 -7.72224,-10.26844 -13.36964,-13.03643 -3.74616,-1.83612 -6.29968,-2.48257 -10.76284,-2.7247 -15.934152,-0.86443 -30.325342,11.61126 -34.048862,29.51689 -1.63459,7.86042 -0.65711,16.70802 2.5523,23.1019 3.95515,7.87957 11.93098,13.72131 20.929862,15.32969 2.85854,0.51091 9.5621,0.1569 13.03615,-0.68842 z m -21.299469,-25.93618 c -0.34043,-0.88713 -0.24,-1.11603 0.17587,-0.40087 0.20591,0.3541 0.30007,0.71813 0.20924,0.80896 -0.0908,0.0908 -0.26413,-0.0928 -0.38511,-0.40809 z m 41.407799,-7.92386 c -0.31795,-0.20548 -0.36147,-0.34413 -0.10901,-0.34738 0.23108,-0.003 0.51826,0.15335 0.63818,0.34738 0.27069,0.43798 0.14856,0.43798 -0.52917,0 z m -14.27146,3.36742 c 0.47625,-0.47625 0.86591,-1.19784 0.86591,-1.60353 0,-0.87176 -1.4882,-2.46945 -2.30022,-2.46945 -2.49593,0 -3.33246,3.44489 -1.09912,4.52629 1.16049,0.56192 1.59616,0.48396 2.53343,-0.45331 z m 5.31091,-4.91964 c 0.91395,-0.91396 1.19944,-1.49778 1.19944,-2.45285 0,-3.9113 -4.12767,-5.83686 -6.49109,-3.02811 -2.40389,2.85687 -0.75991,6.62241 2.9104,6.66628 0.88467,0.0106 1.48337,-0.28745 2.38125,-1.18532 z m 11.43,-9.91306 c 0,-0.097 -0.0794,-0.17639 -0.17639,-0.17639 -0.097,0 -0.17639,0.0794 -0.17639,0.17639 0,0.097 0.0794,0.17639 0.17639,0.17639 0.097,0 0.17639,-0.0794 0.17639,-0.17639 z m 54.3277696,45.15555 c 0,-0.097 0.0794,-0.17639 0.17639,-0.17639 0.097,0 0.17639,0.0794 0.17639,0.17639 0,0.097 -0.0794,0.17639 -0.17639,0.17639 -0.097,0 -0.17639,-0.0794 -0.17639,-0.17639 z m -29.4569396,-7.19844 c -0.89596,-0.39743 -2.3066,-1.9468 -3.32678,-3.65393 -1.39239,-2.33 -2.63508,-2.48702 -3.87581,-0.4897 -0.37977,0.61133 -1.32535,1.72916 -2.10131,2.48406 -2.62648,2.55521 -6.08946,2.04302 -7.11082,-1.05173 -0.89969,-2.7261 0.94345,-7.61071 3.96289,-10.50222 4.84591,-4.6406 10.84281,-4.60645 15.21053,0.0866 2.33655,2.51061 3.53395,5.21702 3.70446,8.37297 0.12803,2.36978 0.0772,2.57692 -0.89962,3.67023 -0.88861,0.99453 -1.3061,1.17556 -2.94664,1.27768 -1.05124,0.0654 -2.22885,-0.0219 -2.6169,-0.19399 z m -8.64306,-13.03565 c 3.68613,-1.72433 7.04973,-1.0295 10.13698,2.09403 0.82165,0.83132 1.60394,1.40146 1.73842,1.26698 0.4239,-0.4239 -2.45965,-4.21826 -4.05648,-5.33779 -1.33283,-0.93443 -1.83225,-1.07246 -3.88056,-1.07246 -3.15099,0 -5.27245,1.04107 -7.09239,3.48046 -0.7432,0.99617 -1.46675,2.20808 -1.6079,2.69315 -0.21957,0.75455 -0.0343,0.65815 1.28251,-0.66739 0.84653,-0.85214 2.41227,-1.95778 3.47942,-2.45698 z m 131.5861,-44.67701 c 0,-0.097 0.0794,-0.17639 0.17639,-0.17639 0.097,0 0.17639,0.0794 0.17639,0.17639 0,0.097 -0.0794,0.17639 -0.17639,0.17639 -0.097,0 -0.17639,-0.0794 -0.17639,-0.17639 z m 0,-1.41111 c 0,-0.097 0.0794,-0.17639 0.17639,-0.17639 0.097,0 0.17639,0.0794 0.17639,0.17639 0,0.097 -0.0794,0.17639 -0.17639,0.17639 -0.097,0 -0.17639,-0.0794 -0.17639,-0.17639 z m -128.34758,-3.95288 c -1.1608,-4.38533 -1.49874,-6.67357 -1.72336,-11.66916 -0.14241,-3.16723 -0.33634,-4.6438 -0.59835,-4.55595 -0.45108,0.15125 -0.52409,6.11831 -0.13466,11.00577 0.25195,3.16212 0.25093,3.16784 -0.2529,1.41111 -0.27823,-0.97014 -0.75987,-3.82764 -1.0703,-6.35 -0.31044,-2.52236 -0.60145,-4.72899 -0.64669,-4.90362 -0.0453,-0.17463 -1.21872,0.6606 -2.60771,1.85607 -2.4497,2.10839 -2.53769,2.15072 -2.93348,1.41117 -0.24066,-0.44967 -0.32115,-1.39629 -0.19623,-2.30772 0.3734,-2.72421 1.77708,-5.06986 4.79875,-8.01905 2.55315,-2.49191 2.83197,-2.89524 2.83197,-4.09664 0,-3.87072 2.17402,-13.08762 4.39797,-18.64544 l 1.18252,-2.95523 -1.9965,0.2345 c -1.09807,0.12897 -3.30618,0.68585 -4.90691,1.23751 -2.60408,0.89743 -2.91042,0.93892 -2.91042,0.39415 0,-1.85793 5.24471,-3.77218 11.07245,-4.0413 4.43778,-0.20493 8.96574,1.3519 11.01698,3.78792 1.33934,1.59059 0.54492,1.61113 -3.15038,0.0815 -1.66326,-0.68851 -3.16053,-1.25184 -3.32726,-1.25184 -0.46723,0 -3.95059,7.23245 -5.05888,10.50367 -0.89208,2.63309 -2.43968,9.21929 -2.43858,10.37806 3.2e-4,0.34433 0.78318,0.46267 3.0868,0.46662 2.28187,0.004 3.43121,0.17531 4.40929,0.65755 0.7276,0.35875 1.32271,0.75325 1.32247,0.87666 -2.5e-4,0.12341 -1.30993,0.23191 -2.91042,0.24111 -2.34251,0.0135 -3.3515,0.20253 -5.17421,0.96955 -2.83505,1.19304 -3.3179,0.93744 -0.58911,-0.31185 1.10913,-0.50777 1.94812,-0.9917 1.86442,-1.07539 -0.30076,-0.30076 -3.50881,0.61007 -5.24186,1.48828 -0.97264,0.49287 -2.43321,1.56111 -3.2457,2.37386 -1.57224,1.57274 -3.84382,5.36798 -4.26284,7.12216 l -0.25281,1.05833 0.99794,-0.88194 c 0.54887,-0.48507 1.14609,-1.12007 1.32717,-1.41111 0.18107,-0.29104 1.20156,-1.4459 2.26776,-2.56634 1.38885,-1.45951 2.01947,-1.90966 2.22393,-1.5875 0.26037,0.41027 0.44099,0.1321 0.33795,-0.52047 -0.023,-0.14552 0.11698,-0.28442 0.311,-0.30868 0.19403,-0.0242 0.47184,-0.0853 0.61737,-0.13565 0.14552,-0.0503 0.62177,-0.20778 1.05833,-0.34982 0.43656,-0.14205 0.79375,-0.35976 0.79375,-0.48379 0,-0.72893 4.75923,-1.82306 7.76111,-1.78426 l 1.5875,0.0205 -1.05833,0.482 c -0.58209,0.2651 -2.24896,0.89769 -3.70417,1.40576 -4.45947,1.55697 -4.2733,1.22538 -4.47592,7.97229 -0.0957,3.18639 -0.0166,7.93656 0.17585,10.55594 0.19241,2.61937 0.30546,4.80932 0.25121,4.86656 -0.0542,0.0572 -0.42617,-1.13339 -0.82651,-2.64583 z m -0.4115,-29.6492 c 0.93656,-4.23228 3.06906,-11.27715 3.4618,-11.43626 0.15912,-0.0645 0.80985,-1.38721 1.44607,-2.93944 0.63621,-1.55222 1.29925,-2.97303 1.47343,-3.15736 0.54879,-0.58077 0.34544,-0.95284 -0.45687,-0.83592 -1.99222,0.29032 -6.16339,12.02754 -6.96677,19.6037 -0.12859,1.21267 -0.11792,2.20486 0.0237,2.20486 0.14163,0 0.60002,-1.54781 1.01864,-3.43958 z m -1.76869,28.31041 c 0,-0.097 0.0794,-0.17639 0.17639,-0.17639 0.097,0 0.17639,0.0794 0.17639,0.17639 0,0.097 -0.0794,0.17639 -0.17639,0.17639 -0.097,0 -0.17639,-0.0794 -0.17639,-0.17639 z m 5.99723,-49.74166 c 0,-0.097 0.0794,-0.17639 0.17639,-0.17639 0.097,0 0.17638,0.0794 0.17638,0.17639 0,0.097 -0.0794,0.17639 -0.17638,0.17639 -0.097,0 -0.17639,-0.0794 -0.17639,-0.17639 z m 1.76389,0 c 0,-0.097 0.0794,-0.17639 0.17638,-0.17639 0.097,0 0.17639,0.0794 0.17639,0.17639 0,0.097 -0.0794,0.17639 -0.17639,0.17639 -0.097,0 -0.17638,-0.0794 -0.17638,-0.17639 z m 1.05833,0 c 0,-0.097 0.0794,-0.17639 0.17639,-0.17639 0.097,0 0.17639,0.0794 0.17639,0.17639 0,0.097 -0.0794,0.17639 -0.17639,0.17639 -0.097,0 -0.17639,-0.0794 -0.17639,-0.17639 z m -91.839309,153.95127 c 1.22857,-0.21394 2.23376,-0.52294 2.23376,-0.68665 0,-0.16372 -0.55851,-1.25061 -1.24113,-2.41533 l -1.24112,-2.11765 -1.44906,0.51125 c -0.79699,0.2812 -1.94504,0.49684 -2.55124,0.47921 -0.90246,-0.0262 -0.75059,-0.12631 0.8381,-0.5522 2.42953,-0.6513 3.03576,-1.17982 2.50049,-2.17997 -0.3706,-0.69246 -0.46501,-0.70361 -1.84268,-0.21754 -4.2413,1.49642 -8.00027,-0.51204 -8.61365,-4.60235 -0.42561,-2.83815 1.40514,-6.05676 3.91653,-6.88559 0.6694,-0.22093 1.21709,-0.63202 1.21709,-0.91355 0,-0.9968 -2.09518,-4.64428 -3.20341,-5.5768 -2.43079,-2.04537 -5.95536,-3.268 -10.40751,-3.61021 l -2.87352,-0.22088 0.28523,-1.26466 c 0.34127,-1.51317 0.149,-1.83147 -0.54725,-0.90594 -0.45868,0.60972 -0.47292,0.53669 -0.13816,-0.70831 0.80757,-3.00345 2.41422,-4.19663 5.5845,-4.1473 2.3376,0.0364 4.42818,0.72872 6.4533,2.13719 1.58409,1.10173 3.76939,3.28055 4.46982,4.45655 0.99462,1.66995 -0.42456,-10.33794 -1.5728,-13.30776 -0.3012,-0.77903 -2.14921,-1.1219 -4.76728,-0.8845 -7.0026,0.63497 -13.00434,7.63118 -13.902,16.20552 -1.3709,13.09462 10.48451,27.47505 22.88324,27.75701 0.95425,0.0217 2.74018,-0.13559 3.96875,-0.34954 z M 68.039399,-380.01128 c -0.44509,-0.6793 -0.47093,-0.8846 -0.11132,-0.8846 0.25757,0 0.83559,-0.43656 1.28451,-0.97014 l 0.81621,-0.97014 -0.68994,1.28944 c -0.59174,1.10593 -0.622,1.38207 -0.21263,1.94028 0.44874,0.61187 0.55309,0.56636 1.74329,-0.76028 0.69628,-0.77611 1.5135,-1.86164 1.81603,-2.4123 0.54262,-0.98764 0.52355,-1.03581 -1.40968,-3.55982 -2.01555,-2.63147 -7.46344,-8.31537 -7.9701,-8.31537 -0.15644,0 -0.74926,0.99328 -1.31736,2.2073 -0.56811,1.21402 -1.75217,3.09035 -2.63125,4.16962 l -1.59832,1.9623 3.56813,2.89106 c 4.28192,3.4694 5.50841,4.54241 5.50841,4.81907 0,0.11451 0.19844,0.42396 0.44097,0.68766 0.3665,0.39848 0.51712,0.33683 0.89182,-0.36501 0.37936,-0.71057 0.35895,-0.98472 -0.12877,-1.72907 z m -98.40646,-34.66307 c 1.45401,-1.98183 1.4999,-2.20508 0.45314,-2.20418 -0.5515,4.7e-4 -1.14366,0.5141 -1.94027,1.68298 -1.33935,1.96522 -1.38621,2.19689 -0.4444,2.19689 0.42989,0 1.1788,-0.64971 1.93153,-1.67569 z"
       id="path294" /></g></svg>
