<?xml version="1.0" encoding="UTF-8" standalone="no"?>
<!-- Created with Inkscape (http://www.inkscape.org/) -->

<svg
   width="241.94501mm"
   height="292.92288mm"
   viewBox="0 0 241.94505 292.92286"
   version="1.1"
   id="svg1"
   xml:space="preserve"
   xmlns="http://www.w3.org/2000/svg"
   xmlns:svg="http://www.w3.org/2000/svg"><defs
     id="defs1"><clipPath
       clipPathUnits="userSpaceOnUse"
       id="clipPath6"><path
         id="path7"
         style="fill:#ff0000;fill-opacity:1;fill-rule:nonzero;stroke:none;stroke-width:0.264583"
         d="M -175.07778,-16.057127 V 287.55793 H 124.54631 V -16.057127 Z m 132.7459,202.572647 c 0.210643,0.005 0.427212,0.0169 0.650089,0.0367 2.23823,0.19855 4.475655,0.4031 6.717938,0.55346 1.973313,0.11308 0.986628,0.0436 2.958475,0.20825 3.181295,0.26563 4.740125,1.85116 4.950601,3.46956 4.949923,1.63749 3.796379,7.35609 -2.592089,6.81354 -3.228716,-0.27422 -1.569593,-0.1301 -4.979024,-0.43357 -4.228209,-0.39317 -8.460616,-0.76265 -12.666927,-1.35341 -6.647387,-0.93358 -5.930551,-7.21034 0.03204,-7.20421 0.04685,5e-5 0.0972,0.004 0.144695,0.005 0.687229,-1.21692 2.304132,-2.15435 4.784204,-2.09548 z" /></clipPath><clipPath
       clipPathUnits="userSpaceOnUse"
       id="clipPath76"><path
         id="path77"
         style="fill:#ff0000;fill-opacity:1;fill-rule:nonzero;stroke:none;stroke-width:0.264583"
         d="M -133.83107,-122.52355 V 173.82063 H 122.97289 V -122.52355 Z M 13.574404,98.948202 c 2.788179,0.0507 4.135003,2.063798 3.398242,4.077268 0.199805,0.45372 0.374906,0.96736 0.517797,1.54461 1.07913,4.35948 0.671079,8.891 0.311608,13.31495 -0.351859,3.06036 -0.147137,1.57974 -0.604097,4.44366 -0.359666,2.25418 -1.333846,3.66838 -2.455664,4.32532 0.105138,0.36595 0.224724,0.72888 0.324528,1.09554 0.6273,2.23652 0.575201,4.47401 0.39429,6.75514 -0.137303,1.73129 -0.688065,2.99533 -1.427303,3.82199 -0.112477,0.41601 -0.170275,0.80219 -0.311092,1.25212 -0.184975,0.59102 -0.413327,1.1061 -0.670242,1.55856 0.741137,-0.23134 1.446982,-0.38145 2.064991,-0.37517 4.085002,0.0415 5.222724,4.75435 -0.02223,7.27138 -4.46677,2.14368 -9.303523,3.34693 -14.11903492,4.40955 -4.40876268,0.85156 -8.89238128,1.33053 -13.38264308,1.19269 -5.804014,-0.17807 -6.736297,-5.00293 -3.065447,-6.67298 -2.072987,-0.65744 -4.042852,-1.62261 -4.128947,-3.14709 -0.02802,-0.49633 0.0026,-0.90355 0.0341,-1.30897 -1.976731,-0.003 -3.95339,2.4e-4 -5.930386,0.003 -0.814031,0 -1.53062,-0.0962 -2.159559,-0.26149 -0.376306,0.19492 -0.742394,0.40783 -1.120862,0.59893 -6.391272,3.22657 -9.625245,-3.24074 -3.234428,-6.46886 1.833438,-0.92611 3.62694,-1.92211 5.414142,-2.92954 -0.877003,-3.87058 -1.368747,-7.83436 -1.323951,-11.80858 0.01651,-1.46304 0.376836,-2.54918 0.864547,-3.41426 -1.247357,-1.79999 -0.223805,-4.63069 3.842661,-5.68855 3.11826,-0.81116 6.282901,-1.39515 9.473837,-1.82211 -1.259816,-0.12657 -2.516182,-0.30233 -3.764627,-0.50177 -1.477002,-0.21985 -2.935575,-0.54305 -4.407482,-0.7891 -1.14214,-0.22954 -0.588502,-0.12004 -1.660882,-0.3297 -3.350244,-0.65501 -4.783278,-2.61088 -4.608504,-4.32997 -0.200179,-1.7721 1.333365,-3.52972 4.663799,-3.59461 v -5.3e-4 c 0.20954,-0.004 0.426035,-0.002 0.649571,0.008 1.77111,0.0772 3.528708,0.28204 5.26428,0.64027 1.655035,0.33225 3.314115,0.6481 4.955251,1.04439 1.244759,0.34858 2.51628,0.54538 3.7997689,0.6723 0.025956,0.002 0.052073,0.002 0.078034,0.004 0.4990888,-0.0371 0.9984105,-0.0743 1.4965495,-0.11317 1.346872,-0.12588 2.6913231,-0.25136 4.0457464,-0.24236 1.1278499,-0.0444 2.2567291,-0.10772 3.37498791,-0.26872 0.75719517,-0.11591 1.51142439,-0.25483 2.25722659,-0.4284 0.3616431,-0.12394 0.7240561,-0.24538 1.083138,-0.37775 0.3360393,-0.12388 0.6107589,-0.12825 0.9250071,-0.20723 0.1281086,-0.045 0.2583895,-0.0825 0.3855085,-0.13074 1.9825018,-0.7681 3.9540551,-1.56464 5.9510551,-2.29443 1.050809,-0.383992 1.999634,-0.542639 2.826703,-0.527616 z M 0.70283723,110.39557 c -0.45566013,0.0949 -0.90775367,0.208 -1.36890919,0.2744 -1.16638124,0.15534 -2.34111274,0.24237 -3.51761424,0.26251 0.4031694,0.0896 0.8047355,0.18876 1.2025101,0.308 0.1014836,0.0304 0.1982549,0.075 0.2986907,0.10852 0.4205235,-0.21824 0.9206601,-0.35072 1.4898318,-0.37156 0.39885139,-0.0146 0.83259872,0.0278 1.29449508,0.13023 0.22468681,-0.12213 0.44967525,-0.24374 0.67437529,-0.36587 -0.0326284,-0.11319 -0.058211,-0.22834 -0.0733795,-0.34623 z m 10.24433577,1.02474 c -0.76023,0.21437 -1.5189569,0.4343 -2.2696301,0.68006 -0.031261,0.62207 -0.2256075,1.28373 -0.6464723,1.94355 0.6236891,0.43248 1.2549743,1.04482 1.8634525,1.86862 0.2674939,0.36214 0.4748849,0.75712 0.7188199,1.13223 0.154519,-1.86707 0.314174,-3.74736 0.33383,-5.62446 z m 64.566086,3.39773 c 1.50346,0.0187 3.129182,1.24994 3.928441,4.04678 0.257931,0.90255 0.823497,1.65871 1.488797,2.30735 0.856321,0.95375 1.845738,1.76777 2.801898,2.61638 1.458581,1.46408 2.789203,3.04608 4.169772,4.58215 1.315059,1.44746 2.571226,2.91698 3.543967,4.61884 0.0053,0.01 0.0082,0.0206 0.01344,0.0305 0.734605,-0.43313 1.446276,-0.65634 2.094962,-0.69195 3.016182,-0.16561 4.69137,3.55377 1.187525,7.32306 -1.69471,1.82311 -3.657862,3.33908 -5.68751,4.7651 -0.777873,0.49914 -1.607691,0.90075 -2.418456,1.33842 0.165478,1.44344 -0.672182,3.24303 -2.956409,4.73096 -1.354556,0.88234 -2.690448,1.79306 -4.075203,2.6288 -2.075008,1.20078 -4.233777,2.27962 -6.540687,2.96259 -2.077586,0.62971 -4.169056,1.29987 -6.359301,1.36374 -1.872114,0.0897 -3.746989,0.0368 -5.620845,0.0501 h -5.1108 -5.524728 c -7.160125,0 -7.160125,-7.23315 0,-7.23315 h 1.347722 c 0.29438,-0.0541 0.5212,-0.1588 0.84801,-0.18656 1.106628,-0.094 2.200932,-0.28334 3.292822,-0.48421 0.456121,-0.98163 1.356053,-1.98213 2.807581,-2.83962 1.078018,-0.63685 2.158119,-1.26923 3.212209,-1.94561 1.962647,-1.29302 3.840588,-2.72135 5.893696,-3.86902 1.367169,-0.76424 2.559646,-1.07097 3.526915,-1.04128 2.216811,0.068 3.246223,1.90266 2.479953,4.04059 1.105688,-0.48686 2.206929,-0.98346 3.283003,-1.53739 2.619811,-1.23728 5.288743,-2.38548 7.764385,-3.9026 0.246153,-0.17184 0.487463,-0.34958 0.730705,-0.52503 -0.126915,-0.50614 -0.277693,-0.9939 -0.512114,-1.46554 -0.647621,-1.25778 -1.721077,-2.20654 -2.600875,-3.29644 -1.199229,-1.33472 -2.369312,-2.69496 -3.592029,-4.00803 -1.098706,-0.97599 -2.227236,-1.92181 -3.215306,-3.01428 -1.300821,-1.39063 -2.459913,-2.93896 -3.045293,-4.77801 -1.289469,-4.05101 0.646382,-6.61405 2.843754,-6.58667 z m -95.086705,4.28035 c -0.465643,0.10748 -0.930899,0.21773 -1.394745,0.33435 0.171958,0.64334 0.283575,1.36624 0.279569,2.2071 -0.01267,2.6582 0.205063,5.32647 0.670242,7.94732 0.280107,-0.17087 0.565767,-0.33222 0.845429,-0.50385 -0.01897,-0.36223 -0.02445,-0.73164 -0.05529,-1.08985 -0.118034,-2.96491 -0.160888,-5.93314 -0.3452,-8.89507 z m 18.5141159,1.1958 c 0.00497,0.0773 0.00619,0.15612 0.014975,0.23202 -0.1238779,0.22787 -0.2588048,0.44752 -0.3937741,0.66715 0.58900751,0.0447 1.13203305,0.21413 1.64331124,0.45888 -0.37615284,-0.49255 -0.78353709,-0.94642 -1.26452314,-1.35805 z m -6.5422357,14.57068 c -0.046649,0.0755 -0.09888,0.14702 -0.1436608,0.22376 -0.03147,0.054 0.1963367,0.0838 0.1860365,0.0222 -0.017595,-0.10481 -0.026035,-0.14905 -0.042376,-0.24597 z m 13.9236979,6.08439 c -0.2236258,0.5643 -0.5677508,1.09664 -1.1782213,1.50533 0.9079653,0.17659 1.7077452,0.44257 2.2830631,0.84852 0.1405493,-0.0459 0.272804,-0.11448 0.4128956,-0.16174 -0.7336976,-0.43656 -1.2984269,-1.18703 -1.5177374,-2.19211 z" /></clipPath><clipPath
       clipPathUnits="userSpaceOnUse"
       id="clipPath127"><path
         id="path128"
         style="fill:#ff0000;fill-opacity:1;fill-rule:nonzero;stroke:none;stroke-width:0.264583"
         d="M -112.24796,-126.55676 V 185.58027 H 148.5754 V -126.55676 Z M 46.874626,83.305366 c 1.808208,0 3.616317,1.790192 3.616317,5.370214 v 5.232238 c 0.0627,2.146078 -0.111291,4.285324 -0.245462,6.424932 -0.136289,2.02485 -0.190703,4.04985 -0.104904,6.07715 0.192061,1.91863 0.527714,3.82569 0.876432,5.72213 0.304242,2.00862 0.765826,3.9858 1.180806,5.97276 0.41642,1.86142 0.967934,3.68703 1.421104,5.53972 0.25287,0.86996 0.117097,0.46495 0.396356,1.22008 0.186108,0.50319 0.223428,0.93098 0.309544,1.38441 4.425355,2.23251 2.751262,7.58433 -3.415813,6.40477 -3.104732,-0.59371 -6.256094,-0.76586 -9.40821,-0.85576 -3.81635,0.009 -7.630525,0.17062 -11.44478,0.28216 -1.12776,0.0333 -2.255837,0.0512 -3.383772,0.0754 -0.908129,0.5548 -1.966518,0.57724 -2.88613,0.0641 -0.03584,5.3e-4 -0.07165,0.002 -0.107487,0.003 -0.03142,5.3e-4 -0.0525,-0.009 -0.08268,-0.009 -0.32049,0.14732 -0.641715,0.29301 -0.962215,0.44028 -0.262501,0.12062 -0.518089,0.22111 -0.770496,0.31265 -0.876996,0.71434 -1.945576,0.85817 -2.911967,0.46405 -2.943479,-0.21613 -4.295167,-2.77187 -2.550232,-5.0524 -2.22e-4,-0.028 -0.0078,-0.0483 -0.0078,-0.0765 v -6.3469 c -0.014,-2.72977 -0.02254,-5.45666 0.112657,-8.18348 0.135676,-2.32533 0.233519,-4.6523 0.299723,-6.98046 0.046,-1.80459 0.06926,-3.60958 0.08527,-5.41465 -0.0258,-1.02998 0.04009,-2.054459 0.138491,-3.078883 0.0044,-0.04602 0.02191,-0.07504 0.02687,-0.120406 C 15.992671,97.193438 15.83363,95.70984 16.656834,94.418959 10.68718,93.678613 10.992573,87.32947 17.739972,87.32947 h 3.885033 5.177462 5.913334 c 1.498505,0.05847 2.984222,-0.03228 4.475178,-0.161748 1.252041,-0.18606 2.49041,-0.398671 3.697968,-0.782897 1.001961,-0.32245 0.492366,-0.161472 1.527553,-0.482142 0.510384,-0.158096 0.938446,-0.174371 1.394749,-0.23771 0.672338,-1.56932 1.86623,-2.35903 3.063377,-2.35903 z" /></clipPath><clipPath
       clipPathUnits="userSpaceOnUse"
       id="clipPath139"><path
         id="path140"
         style="fill:#ff0000;fill-opacity:1;fill-rule:nonzero;stroke:none;stroke-width:0.264583"
         d="M 97.168006,-339.91235 V -44.578961 H 346.46958 V -339.91235 Z m 14.326254,94.53944 c 1.76488,0.006 3.77708,1.78446 4.35839,5.31699 0.32911,1.99994 0.60308,4.00817 0.88884,6.01462 1.02527,-1.2445 2.22305,-1.83589 3.28403,-1.8402 2.05627,-0.008 3.59454,2.17302 2.34611,6.00222 -0.0197,0.0606 -0.0413,0.12046 -0.0615,0.18087 0.31698,0.91799 0.41757,2.09982 0.17777,3.54139 -0.2164,1.30085 -0.62011,2.56457 -1.0263,3.8163 -1.34183,4.13496 -4.42238,4.92072 -6.12882,3.38016 -1.93867,0.62007 -4.30523,-0.86149 -4.65605,-4.82762 -0.16862,-1.90632 -0.33891,-3.81275 -0.57464,-5.71231 -0.45291,-3.52522 -1.07719,-7.02592 -1.48208,-10.55543 -0.40801,-3.55672 1.10935,-5.32303 2.87424,-5.31699 z" /></clipPath><clipPath
       clipPathUnits="userSpaceOnUse"
       id="clipPath170"><path
         id="path171"
         style="fill:#ff0000;fill-opacity:1;fill-rule:nonzero;stroke:none;stroke-width:0.264583"
         d="M 88.756261,-299.52331 V 17.880567 H 410.91541 V -299.52331 Z M 363.24287,-220.863 c 0.90345,-0.008 1.97628,0.23856 3.18532,0.82218 3.39402,1.63831 6.49674,3.81197 9.57823,5.96449 3.22509,2.31448 6.37511,4.73585 9.43663,7.26261 1.87296,1.50796 3.75989,2.99047 5.54284,4.6054 1.76167,1.54167 3.42262,3.17283 4.95419,4.94388 1.19316,1.48882 2.47049,2.9032 3.73311,4.33204 1.08043,1.20022 2.09423,2.45631 2.94299,3.83026 0.82616,1.73429 1.48968,3.55524 1.93786,5.42344 1.67031,6.96258 -5.76469,8.62686 -7.05745,1.5844 -0.21127,-1.15093 -0.75649,-2.20765 -1.10278,-3.32021 -0.52141,-1.02678 -1.43909,-1.82952 -2.14042,-2.72904 -1.28368,-1.45272 -2.58234,-2.89095 -3.79617,-4.40386 -1.32794,-1.55409 -2.79577,-2.95456 -4.33049,-4.3031 -1.69875,-1.54267 -3.51006,-2.94207 -5.29113,-4.38733 -2.90883,-2.40671 -5.90918,-4.70386 -8.97258,-6.91017 -2.63017,-1.83963 -5.2759,-3.68008 -8.12096,-5.17746 -5.14813,-2.7095 -4.41412,-7.50431 -0.49919,-7.53753 z m -17.79788,14.64304 c 0.81097,-0.004 1.74701,0.16947 2.79104,0.57154 4.59168,1.76834 8.99191,4.00303 13.38523,6.20892 0.37082,0.1876 0.72266,0.4088 1.09088,0.601 0.4155,-0.11565 0.91038,-0.17484 1.48572,-0.16691 0.65984,0.009 1.42523,0.10601 2.29753,0.30644 2.35556,0.54125 4.30075,1.95473 6.16344,3.42614 -1.07651,-2.72314 0.34142,-4.84679 2.57866,-4.84311 1.28683,0.002 2.83083,0.70484 4.29689,2.3952 2.44776,2.82227 4.79147,5.70892 6.96391,8.74934 1.67944,2.35043 1.72027,4.43615 0.89969,5.70663 1.5344,1.02281 3.07247,2.04019 4.58422,3.09645 1.80695,1.14136 3.31928,2.58833 4.72631,4.18269 0.96689,1.16625 2.0869,2.25988 2.79262,3.61942 0.19542,0.37651 0.34592,0.77482 0.51882,1.1622 0.40259,1.55462 0.27207,0.76263 0.38706,2.3766 0.0637,0.89436 -0.044,1.45412 -0.26977,1.7756 0.11753,0.20753 0.23421,0.41574 0.35608,0.62063 3.66003,6.15399 -2.6856,9.845 -6.25234,3.63648 -0.83209,-1.44832 -1.62388,-2.92102 -2.35437,-4.42351 -0.84839,-1.84687 -1.70402,-3.69055 -2.54093,-5.54229 -0.078,-0.17246 -0.14713,-0.34128 -0.2119,-0.5085 -0.415,-0.33988 -0.82071,-0.68775 -1.29707,-0.97255 -2.35545,-1.64933 -4.79565,-3.17384 -7.14841,-4.82761 -3.27895,-2.27743 -6.61384,-4.47194 -9.95804,-6.65231 -4.00886,-2.60003 -8.08797,-5.09434 -12.3548,-7.25434 -4.08429,-2.05175 -8.1752,-4.1242 -12.42663,-5.81101 -5.61546,-2.22804 -4.88331,-7.4129 -0.50384,-7.43314 z m -225.34594,21.50101 c 3.05551,-0.16929 4.03285,3.80875 0.35915,7.72563 -1.17612,1.25397 -2.32696,2.59265 -3.45922,3.90674 -1.44062,1.57315 -2.77631,3.23874 -4.13618,4.88135 -1.14319,1.4697 -2.29319,2.93265 -3.46335,4.38113 -0.8717,1.2084 -1.86054,2.32105 -2.81017,3.46594 -0.80685,0.95022 -1.53489,1.96075 -2.32234,2.92695 -0.80594,1.00684 -1.52017,2.08004 -2.22519,3.15847 -0.20511,0.28103 -0.29499,0.51935 -0.30179,0.78909 -0.18033,7.15787 -8.659963,5.5717 -7.093102,-1.4149 0.267098,-1.19094 0.644303,-2.32859 1.347721,-3.34243 0.846108,-1.28566 1.701136,-2.56663 2.670121,-3.76463 0.806525,-0.98525 1.5446,-2.0236 2.37453,-2.98999 0.93132,-1.109 1.88214,-2.2008 2.7342,-3.37448 1.18855,-1.47082 2.35327,-2.95822 3.51813,-4.44779 1.39067,-1.67946 2.758,-3.38112 4.2292,-4.99142 1.55862,-1.80675 3.07205,-3.68494 4.92528,-5.20227 1.38505,-1.13397 2.63451,-1.65096 3.65301,-1.70739 z m 30.4953,3.26389 c 4.11093,0.0973 5.25218,4.81763 -0.0434,7.22591 -1.93926,0.8819 -3.80509,1.88928 -5.66115,2.92437 0.381,1.39299 -0.23993,3.26566 -2.43035,4.98678 -2.3369,1.83618 -4.71607,3.61825 -7.08845,5.40845 -2.84267,2.19936 -5.66068,4.43162 -8.41086,6.74584 -2.22216,1.84972 -4.46469,3.67225 -6.66213,5.55109 -1.67979,1.46598 -3.37138,2.91821 -5.06067,4.37337 -1.40892,1.30469 -2.82191,2.592 -4.12274,4.00648 -1.07181,1.16531 -2.16701,1.83049 -3.17087,2.10529 -0.88357,6.53411 -7.65001,5.87099 -7.10344,-1.07177 0.0596,-0.75732 0.12015,-1.51435 0.21239,-2.26859 0.18237,-1.4495 0.31176,-2.90657 0.57051,-4.34444 0.56059,-2.2771 1.55106,-4.35314 3.32124,-5.95312 1.46716,-1.38711 2.94871,-2.75912 4.4943,-4.05919 1.45063,-1.21601 2.91967,-2.40825 4.4111,-3.57394 2.2284,-1.75259 4.48249,-3.46927 6.81044,-5.08961 3.1083,-2.16601 6.29001,-4.21936 9.5343,-6.17689 3.28252,-2.04598 6.49796,-4.19789 9.78648,-6.23476 2.38673,-1.38679 4.82146,-2.65715 7.33495,-3.79873 1.22236,-0.55516 2.32966,-0.77899 3.27836,-0.75654 z" /></clipPath><clipPath
       clipPathUnits="userSpaceOnUse"
       id="clipPath233"><path
         id="path234"
         style="fill:#ff0000;fill-opacity:1;fill-rule:nonzero;stroke:none;stroke-width:0.264583"
         d="M 185.24069,-319.24193 V -24.289387 H 425.09684 V -319.24193 Z m 138.35487,149.6534 c 1.78419,7.9e-4 3.63037,1.79012 3.80182,5.36608 0.0643,1.33996 -0.0719,2.65433 -0.29041,3.95842 0.27255,-0.0735 0.56767,-0.11689 0.88522,-0.12351 0.37047,-0.008 0.77026,0.0328 1.19579,0.12867 0.38629,-0.24279 0.8215,-0.42195 1.34254,-0.44493 1.13073,-0.0499 2.53823,0.47335 4.04474,1.80971 0.4186,0.37135 0.80759,0.77178 1.2056,1.16323 0.49581,-0.30652 1.09744,-0.47283 1.77559,-0.44028 1.18851,0.0571 2.59295,0.69888 3.98788,2.15129 2.63375,2.74227 4.82211,5.85047 6.92256,9.00669 2.43144,3.88376 4.79634,7.81591 6.98098,11.84475 1.13959,2.01485 2.36363,3.97199 3.24527,6.11746 0.86638,2.54168 0.71525,4.37292 -0.15348,6.88278 -0.88855,2.03627 -2.18951,3.83746 -3.64937,5.49682 -1.22616,1.21887 -2.44396,2.51198 -3.976,3.35587 -0.38219,0.21053 -0.79187,0.3659 -1.18803,0.54881 -6.50071,3.00135 -9.83602,-5.23462 -2.81948,-6.6611 1.07346,-0.21823 1.75532,-1.41088 2.56987,-2.0407 0.86323,-0.96375 1.62015,-2.00233 2.25208,-3.13417 0.24334,-0.63932 0.47847,-1.05078 0.24958,-1.76114 -0.42873,-1.13152 -1.03555,-2.17502 -1.65674,-3.21169 -0.64492,3.08426 -3.96214,3.78517 -6.03631,0.97152 -0.80928,1.85722 -3.53859,2.62684 -6.75775,0.30902 -0.53872,-0.38787 -1.07831,-0.77486 -1.61745,-1.1622 -3.08248,4.62545 -3.94671,5.04673 -6.74584,2.87063 -2.73204,-2.16473 -5.33615,-4.48821 -8.05999,-6.6642 -2.7461,-2.45053 -5.40757,-5.07957 -7.04763,-8.42635 -1.62115,-0.12575 -3.24178,-0.2569 -4.86637,-0.34314 -7.58719,-0.44787 -15.17743,-0.9445 -22.76553,-1.33377 -1.07801,-0.0553 -1.93227,-0.3045 -2.68459,-0.62166 -0.57677,0.62929 -1.1192,1.29485 -1.64021,1.97352 -1.38696,2.1585 -2.2854,4.54313 -3.09181,6.96185 -0.53658,1.90527 -0.93866,3.84574 -1.3658,5.77949 0.3976,-0.38181 0.79402,-0.76498 1.19114,-1.14825 1.44902,-1.39846 2.84121,-1.97983 3.98373,-1.97766 2.91995,0.006 4.20899,3.82009 0.64648,7.53391 -0.92629,0.96557 -1.9114,1.86859 -2.9099,2.75797 -1.78302,1.58814 -3.50499,2.03887 -4.81263,1.76372 -0.007,0.0412 -0.0189,0.0812 -0.0253,0.12247 -0.31138,2.1774 -0.34632,4.38158 -0.39739,6.57686 0.006,3.5147 -0.15426,7.02208 -0.44287,10.52391 -0.15049,2.45352 -0.52882,4.882887 -0.77928,7.326166 -0.25682,2.270699 -0.2357,4.548968 -0.1633,6.828007 0.0525,1.43787 0.0261,0.723201 0.0775,2.145088 7.9e-4,0.02175 -0.006,0.03573 -0.006,0.05736 0.13966,0.0486 0.27673,0.09115 0.42013,0.148309 3.73047,1.486969 7.59999,2.598727 11.41894,3.833876 4.85884,1.705695 9.66861,3.546912 14.50144,5.32474 1.9552,0.651698 3.84707,1.443672 5.71489,2.292366 2.6308,-0.638411 5.26049,-1.281708 7.89771,-1.893425 4.5737,-1.075436 2.35597,-0.547624 6.65438,-1.580782 0.65268,-0.156879 1.2592,-0.237268 1.81642,-0.252698 3.40876,-0.09437 4.96226,2.238663 4.05712,4.350639 3.89832,1.612736 3.00805,6.568553 -2.90269,6.729304 l -2.19726,0.05943 c 0.0932,0.05532 0.18872,0.106439 0.28112,0.163298 6.09814,3.752323 2.1299,10.065517 -3.84782,6.124173 -1.04591,-0.689594 -2.23735,-1.127543 -3.31556,-1.763197 -2.61015,-1.251701 -5.22853,-2.484003 -7.87136,-3.665926 -0.34703,-0.170111 -0.69536,-0.335955 -1.04283,-0.504362 -1.04394,0.228952 -2.09238,0.441277 -3.15071,0.537951 -0.41145,0.100483 -0.82417,0.195434 -1.23558,0.296105 -3.95687,0.968251 -6.08679,-0.907356 -5.97897,-3.010669 -0.31188,-0.687727 -0.239,-1.395294 0.0263,-2.059305 -3.87146,-1.438614 -7.73769,-2.891312 -11.63237,-4.265891 -3.97417,-1.285444 -7.99945,-2.446282 -11.87938,-4.000272 -1.44639,-0.579335 -2.44377,-1.350957 -3.06182,-2.17506 -1.01218,-0.798706 -1.81304,-2.231819 -1.89446,-4.484998 -0.0517,-1.431189 -0.0254,-0.705106 -0.0791,-2.177645 -0.0816,-2.602558 -0.0903,-5.205841 0.19844,-7.79849 0.24823,-2.394268 0.6146,-4.775082 0.76533,-7.179412 0.27808,-3.36008 0.42763,-6.72542 0.42064,-10.09809 0.0594,-2.5132 0.11189,-5.03614 0.48266,-7.52719 0.38072,-2.41928 0.90466,-4.80615 1.46451,-7.18974 0.6701,-2.94551 1.25825,-5.91529 2.11305,-8.81393 1.0668,-3.18776 2.31041,-6.31647 4.23489,-9.10074 0.42128,-0.53977 0.8547,-1.07136 1.29914,-1.59215 -1.52816,-0.60355 -3.06641,-1.18197 -4.57646,-1.83141 -1.09038,3.76762 -2.19021,7.53001 -3.40755,11.25926 -1.05961,2.97655 -0.54118,1.54568 -1.55081,4.2938 -1.83358,4.9908 -6.03644,4.88509 -7.07398,1.75544 -2.82634,3.52841 -7.50378,1.0111 -5.57744,-4.75268 1.05408,-3.1537 2.2385,-6.34595 4.49688,-8.85837 1.49582,-1.66408 2.97572,-2.34765 4.17287,-2.32647 0.33252,0.006 0.64298,0.0664 0.92604,0.17518 0.46945,-1.58214 0.96416,-3.15651 1.43919,-4.7377 0.70062,-2.33196 1.93737,-3.52641 3.18689,-3.8871 0.54142,-0.34307 1.25019,-0.55529 2.11615,-0.57361 h 5.3e-4 c 0.8057,-0.017 1.74503,0.13149 2.80396,0.49248 0.31645,0.10788 0.63769,0.20324 0.94929,0.32401 1.83624,0.71133 3.60046,1.59642 5.43016,2.32544 1.18096,0.47048 2.26953,0.84228 3.35329,1.23145 0.62902,-0.20883 1.22424,-0.32846 1.76785,-0.35037 2.28614,-0.0921 3.73455,1.32842 3.67523,3.07682 1.73917,0.0925 3.47854,0.18832 5.21777,0.2899 -0.1345,-1.7899 1.43141,-3.54652 4.54959,-3.56619 0.39587,-0.002 0.816,0.0231 1.25987,0.0801 3.99155,0.51285 7.97638,1.04608 11.94346,1.72703 0.35092,0.0747 0.7018,0.14913 1.05265,0.22376 0.92028,-2.09088 2.0607,-3.80586 3.79408,-5.38675 0.9172,-0.8245 1.6747,-1.80494 2.07378,-2.98587 0.46483,-1.35061 0.4893,-2.77914 0.4594,-4.19561 h 5.3e-4 c -0.0754,-3.57927 1.64663,-5.36691 3.4308,-5.36608 z m 1.97559,14.00741 c -0.78838,1.39934 -1.79816,2.66075 -2.96984,3.79512 -1.06213,0.94584 -1.80404,2.02586 -2.28153,3.3538 -0.003,0.012 -0.005,0.0237 -0.009,0.0357 1.15411,0.11311 2.30814,0.22665 3.4613,0.3514 3.99042,0.43171 5.40747,2.84663 4.69323,4.76353 0.67585,0.41545 1.35041,0.83313 2.01954,1.25626 3.82278,2.5036 7.53266,5.1715 11.24013,7.84086 -1.81731,-3.68096 -3.93583,-7.19476 -6.36087,-10.5146 -1.10355,-1.48555 -2.20805,-3.00054 -3.36206,-4.44883 -0.35653,-0.44747 -1.7607,-2.16704 -2.34455,-2.70784 -0.36042,-0.33384 -0.93237,-0.68033 -1.36375,-0.9555 -1.33122,-0.84918 -2.21667,-1.81673 -2.72282,-2.76986 z" /></clipPath><clipPath
       clipPathUnits="userSpaceOnUse"
       id="clipPath240"><path
         id="path241"
         style="fill:#ff0000;fill-opacity:1;fill-rule:nonzero;stroke:none;stroke-width:0.264583"
         d="M 92.804184,-309.23338 V -41.629034 H 294.29938 V -309.23338 Z m 130.496946,63.74443 c 0.93337,0.009 2.02072,0.27397 3.21944,0.8785 1.75312,0.88412 3.43212,1.89553 5.06326,2.98586 5.9527,3.97906 1.8926,10.01797 -4.03542,6.00222 -1.36849,-0.92705 -2.78857,-1.76849 -4.26227,-2.51871 -5.18448,-2.63926 -4.02961,-7.38891 0.015,-7.34787 z m -85.24544,1.99626 c 3.36772,-0.0906 4.87054,3.93317 0.67437,7.28431 -0.81214,0.6486 -0.42273,0.34746 -1.1653,0.9064 -1.7275,1.42217 -3.47209,2.82263 -5.29477,4.12275 -2.09112,1.47372 -4.25636,2.82668 -6.45645,4.13153 -6.15846,3.65253 -10.39165,-1.95967 -4.33979,-5.78621 2.21999,-1.40367 4.47897,-2.73503 6.6244,-4.25349 1.67688,-1.19734 3.27994,-2.48915 4.86947,-3.79821 0.91499,-0.69918 0.50268,-0.37435 1.24076,-0.9679 1.39493,-1.12177 2.72473,-1.60899 3.84731,-1.63918 z" /></clipPath><clipPath
       clipPathUnits="userSpaceOnUse"
       id="clipPath251"><path
         id="path252"
         style="fill:#ff0000;fill-opacity:1;fill-rule:nonzero;stroke:none;stroke-width:0.264583"
         d="m 50.06164,-325.07443 v 245.270816 h 202.0347 V -325.07443 Z m 191.06172,72.239 c 1.42195,-0.0396 3.11835,0.92332 4.44418,3.2582 0.80855,1.42391 1.33311,2.97097 1.71979,4.55476 0.38267,1.85761 0.50306,3.75527 0.49506,5.64772 0.007,1.66837 -0.28067,3.30966 -0.52503,4.95318 -0.26767,2.07853 -1.32063,3.82386 -2.54249,5.47306 -0.98598,1.19805 -2.03839,2.33999 -3.16208,3.40961 -0.37488,0.32054 -0.76867,0.61405 -1.09502,0.98443 -4.73356,5.37222 -10.25077,0.0313 -5.19193,-5.03587 0.41783,-0.41852 0.82603,-0.84961 1.30896,-1.19579 0.83199,-0.78568 1.60086,-1.63171 2.34973,-2.49649 0.52191,-0.686 1.06794,-1.32103 1.17874,-2.204 0.19629,-1.31742 0.44949,-2.62948 0.44648,-3.9672 0.0288,-1.3072 -0.0809,-2.61845 -0.30179,-3.90725 -0.20137,-0.91522 -0.51051,-1.80281 -0.96014,-2.62775 -2.14172,-3.92928 -0.53435,-6.78057 1.83554,-6.84661 z m -24.00732,134.01508 c 1.58088,-0.0452 3.27238,1.29937 3.90106,4.36821 0.19779,0.96552 0.49313,1.88927 0.87385,2.79466 0.57738,1.31117 0.86222,2.69631 0.9741,4.11603 0.0779,1.63421 -0.38657,3.16522 -1.00976,4.65191 -0.60784,1.37091 -1.55916,2.5173 -2.50579,3.660755 -0.2566,0.333243 -0.50348,0.67224 -0.76223,1.002525 -0.0721,0.651052 -0.19323,1.300012 -0.35502,1.949752 l -0.4842,1.22783 c -0.70346,1.782932 -1.87803,2.754204 -3.12126,3.127457 -0.38818,0.593834 -0.73665,1.213207 -1.1529,1.788007 -0.78123,1.206815 -1.75001,2.262322 -2.80138,3.23546 -1.04259,0.90742 -2.26203,1.551003 -3.47214,2.198833 -0.81145,0.41652 -1.66264,0.737227 -2.52439,1.030428 -6.77856,2.306214 -9.10653,-4.670343 -2.28979,-6.86108 0.48258,-0.155091 0.95367,-0.335381 1.41232,-0.552421 0.68902,-0.364839 1.38726,-0.713642 2.01745,-1.175639 0.71797,-0.616461 1.30017,-1.358352 1.82004,-2.146123 0.66383,-0.892056 1.26802,-1.828112 1.8216,-2.792076 0.59882,-1.12436 1.07283,-2.316203 1.82056,-3.358968 0.0117,-0.0166 0.0249,-0.032 0.0367,-0.0486 -0.84786,-3.67928 0.87949,-5.67892 2.87217,-5.69422 0.38363,-0.003 0.77643,0.0723 1.16324,0.21859 0.15519,-0.3579 0.298,-0.71847 0.29042,-1.1188 -0.0398,-0.54898 -0.18359,-1.13581 -0.4191,-1.66191 -0.48947,-1.16893 -0.89792,-2.36312 -1.1591,-3.60547 -0.82863,-3.94139 1.021,-6.29698 3.05356,-6.35516 z" /></clipPath><clipPath
       clipPathUnits="userSpaceOnUse"
       id="clipPath278"><path
         id="path279"
         style="fill:#ff0000;fill-opacity:1;fill-rule:nonzero;stroke:none;stroke-width:0.264583"
         d="m -43.212488,-382.05292 v 250.81001 H 185.4025 v -250.81001 z m 181.494868,132.88233 c 1.13528,0.005 2.03811,0.42617 2.60707,1.09037 0.91934,-0.34123 1.78192,-0.54125 2.52078,-0.52658 4.05205,0.0805 5.08945,4.87108 -0.18087,7.33443 -2.21042,1.03317 -4.41856,2.08163 -6.72362,2.89285 -2.86091,0.99315 -5.74924,1.921 -8.52506,3.13986 -6.55592,2.87873 -9.40434,-3.76713 -2.84944,-6.64817 1.1011,-0.48395 2.22936,-0.89759 3.35587,-1.31568 0.52294,-1.00077 1.47788,-2.01475 2.95124,-2.87476 1.0894,-0.6359 2.16914,-1.287 3.24683,-1.94252 1.33817,-0.81396 2.56345,-1.15421 3.5972,-1.1498 z m -133.0900695,2.4753 h 5.5981075 c 7.160125,0 7.160125,7.23263 0,7.23263 H 5.1923105 c -7.1601277,0 -7.1601277,-7.23263 0,-7.23263 z m 42.9880715,50.84496 c 2.044401,-0.008 3.844292,2.25841 2.953308,6.18618 -0.283588,1.25017 -0.481169,2.51568 -0.75189,3.76877 -0.313965,1.46608 -0.73946,2.91235 -1.207162,4.33668 -2.233805,6.80278 -9.211228,4.46329 -6.857981,-2.29908 0.404762,-1.16313 0.726765,-2.36525 0.995807,-3.56619 0.287499,-1.32813 0.484814,-2.67249 0.804084,-3.99407 0.735603,-3.04497 2.473746,-4.42641 4.063834,-4.43229 z m 26.844358,9.60148 c 1.5451,0.0844 3.630816,1.85281 5.237924,5.05189 1.446292,2.8789 3.498345,5.40261 5.377447,8.00674 1.423178,1.86933 2.496352,3.93269 3.488161,6.04873 3.038795,6.48323 -3.64554,9.55837 -6.57066,3.02307 -0.764304,-1.70766 -1.644017,-3.34338 -2.782776,-4.84001 -2.279812,-3.15977 -5.466628,-6.83969 -6.494177,-10.63656 -0.141171,-0.52168 -0.167447,-1.06805 -0.251148,-1.60197 -0.554762,-3.53682 0.450099,-5.13633 1.995229,-5.05189 z m 22.433772,2.07998 v 5.3e-4 c 1.081786,0.0173 2.458693,0.64291 3.986318,2.0805 1.21595,1.14421 2.08888,2.57763 3.1502,3.85661 0.75663,0.91352 1.6619,1.66584 2.53163,2.46393 1.1475,0.93011 2.05703,2.06162 2.85305,3.29799 0.95863,1.59903 1.44035,3.34615 0.97049,5.20227 -0.10236,0.40431 -0.31771,0.77135 -0.47646,1.15703 -1.02548,2.49132 -2.04203,1.65641 -2.97036,0.0238 -2.04159,1.70549 -5.47708,1.09344 -5.78105,-3.28558 -0.003,-0.0322 -0.0142,-0.0648 -0.007,-0.0966 0.005,-0.03 0.0986,-0.0136 0.0827,-0.0393 -0.23736,-0.38486 -0.69492,-0.61714 -1.02216,-0.90227 -1.100378,-0.77725 -2.267905,-1.45106 -3.395141,-2.18798 -3.582773,-2.34245 -3.744537,-5.4822 -2.015898,-6.82284 -0.840523,-2.68156 0.04882,-4.63231 1.88154,-4.74287 0.06945,-0.004 0.140271,-0.006 0.212389,-0.005 z" /></clipPath><clipPath
       clipPathUnits="userSpaceOnUse"
       id="clipPath292"><path
         id="path293"
         style="fill:#ff0000;fill-opacity:1;fill-rule:nonzero;stroke:none;stroke-width:0.264583"
         d="M 39.169506,-337.89832 V -50.969072 H 288.46282 V -337.89832 Z m 15.676046,82.89261 c 1.714024,0.0204 3.54041,1.61061 3.978568,4.9382 0.120111,0.91222 0.106387,1.83456 0.107487,2.75229 0.0087,7.16012 -7.246413,7.15857 -7.232633,-0.002 0.0013,-0.65071 0.02757,-1.30512 -0.06356,-1.95182 -0.530767,-3.76661 1.267578,-5.76019 3.21014,-5.73712 z m 197.013298,6.80941 c 1.32993,-0.0899 2.96772,0.82319 4.38423,3.1042 1.07429,1.72993 1.55184,3.70118 1.89652,5.68338 0.39598,2.58761 0.42018,5.20011 0.26717,7.80675 -0.16631,2.61527 -0.75971,5.14416 -1.52187,7.63985 -0.4978,1.90614 -1.23662,3.72608 -2.0159,5.52989 -0.76243,1.81488 -1.37928,3.68664 -2.00143,5.55315 -0.64972,1.87676 -1.26002,3.76819 -2.01124,5.60741 -0.95415,2.1244 -1.9321,4.237 -2.90784,6.35155 -0.93622,2.10591 -1.93956,4.18102 -3.03444,6.20893 -0.74336,1.47932 -1.63431,2.88203 -2.64686,4.19044 -0.85071,1.10794 -1.91984,2.00805 -2.89078,3.00343 -1.04445,1.12516 -2.20219,2.13025 -3.34605,3.1502 -1.2349,1.05182 -2.56579,1.98944 -3.91811,2.88354 -1.93444,1.28303 -4.12655,2.08437 -6.28747,2.89285 -2.75914,1.06536 -5.6224,1.79172 -8.50439,2.42982 -2.00852,0.48359 -4.02259,0.93996 -6.05234,1.32499 -1.0898,0.20672 -1.99053,0.15992 -2.79725,0.0139 -0.75827,0.17949 -1.51301,0.3744 -2.26653,0.57309 -1.4977,0.44017 -2.97995,0.92699 -4.46019,1.42214 -1.58834,0.5581 -3.19109,1.04834 -4.83381,1.42213 -2.05853,0.5373 -4.13223,0.98734 -6.23425,1.31724 -1.89057,0.38525 -3.79586,0.65788 -5.71696,0.82837 -1.92552,0.0766 -3.83858,0.29911 -5.75676,0.47025 -1.71912,0.15432 -3.44381,0.22701 -5.16867,0.27441 -2.44184,-0.0118 -4.87127,-0.25567 -7.30085,-0.47078 -2.85973,-0.19225 -5.71909,-0.39592 -8.57157,-0.67799 -2.83995,-0.26841 -5.65359,-0.74864 -8.47907,-1.13016 -2.66463,-0.21934 -5.29981,-0.64608 -7.94267,-1.03457 -2.11987,-0.30404 -4.25541,-0.45909 -6.38152,-0.71055 -1.8808,-0.17534 -3.75496,-0.4017 -5.63118,-0.61856 -1.91243,-0.21286 -3.83573,-0.28885 -5.75779,-0.34985 -2.23949,-0.16259 -4.48445,-0.27106 -6.71949,-0.48783 -2.21917,-0.20648 -4.40762,-0.67897 -6.54068,-1.31516 -2.57048,-0.65769 -4.88262,-1.9917 -7.25382,-3.13883 -1.91366,-0.89121 -3.846978,-1.74009 -5.755724,-2.6417 -1.929913,-0.93683 -3.722034,-2.11514 -5.521108,-3.27525 -1.492637,-0.90475 -0.734285,-0.44535 -2.275314,-1.37821 -6.125257,-3.70793 -2.379728,-9.89571 3.745508,-6.18774 1.606161,0.9723 0.789586,0.47683 2.449462,1.48725 1.534261,0.98943 3.055983,2.00536 4.695836,2.81636 1.92633,0.91375 3.8825,1.76312 5.81257,2.66909 2.03397,0.98503 4.0062,2.16157 6.20944,2.72955 1.67042,0.52508 3.40555,0.86136 5.14697,1.03715 2.07333,0.21111 4.15957,0.28906 6.23683,0.4563 2.12341,0.0679 4.24789,0.15641 6.36033,0.39429 1.88182,0.21873 3.76122,0.44337 5.64772,0.62012 2.19401,0.25968 4.39889,0.41632 6.58565,0.73794 2.61501,0.3856 5.2221,0.80551 7.85895,1.02267 2.74095,0.37156 5.47017,0.83558 8.22482,1.1002 2.82609,0.28319 5.66087,0.47505 8.49405,0.67076 2.15225,0.19062 4.3024,0.40925 6.46472,0.44545 1.57684,-0.0428 3.1537,-0.10777 4.7253,-0.24857 1.92194,-0.17061 3.8389,-0.3955 5.76812,-0.4718 1.7606,-0.15093 3.50197,-0.42258 5.23482,-0.76946 1.94524,-0.29972 3.85736,-0.73584 5.76244,-1.22784 1.40538,-0.30937 2.76609,-0.74989 4.12327,-1.22421 1.62869,-0.54468 3.26081,-1.07909 4.91081,-1.5565 1.77362,-0.46766 3.552,-0.92735 5.36814,-1.20147 1.70238,-0.33298 3.38762,-0.74982 5.05034,-1.24437 1.8768,-0.51034 3.73395,-1.11665 5.54695,-1.81953 1.67544,-0.67931 3.31988,-1.45879 4.78886,-2.52439 1.0657,-0.84543 2.16725,-1.64342 3.15019,-2.58951 1.28809,-1.21508 2.58622,-2.41928 3.84008,-3.67058 0.85194,-0.84614 1.68746,-1.65828 2.24585,-2.7404 0.63482,-0.99725 1.29901,-1.9775 1.85674,-3.02152 0.55263,-0.92785 1.06197,-1.877 1.53479,-2.8484 0.43455,-0.81257 0.86675,-1.63643 1.16427,-2.50993 0.39723,-1.087 0.65435,-2.21493 0.97203,-3.32641 0.29574,-1.24569 0.60338,-2.49273 1.07901,-3.68453 0.39957,-1.05638 0.68712,-2.15558 1.05006,-3.22512 0.22713,-0.94997 0.37986,-1.92387 0.55966,-2.88303 0.22526,-1.23853 0.53664,-2.45701 1.02371,-3.62149 0.47591,-1.31864 1.08044,-2.58627 1.7048,-3.84007 0.34111,-0.58794 0.67316,-1.19257 0.96067,-1.80041 0.32682,-0.71346 -0.0659,-2.40019 0.0822,-3.22151 v -4.23178 c 0,-3.58007 1.80812,-5.37022 3.61632,-5.37022 0.15156,0 0.30168,0.0312 0.45217,0.0563 -0.0649,-0.17178 -0.10183,-0.35173 -0.18242,-0.51883 -1.94402,-4.03078 -0.58254,-6.96655 1.63401,-7.11636 z" /></clipPath></defs><g
     id="layer1"
     transform="translate(132.87277,391.92213)"><path
       style="fill:#000000"
       d="m -5.5026385,-99.589274 c -1.79005,-0.938566 -2.67712,-2.339736 -2.6376,-4.166256 0.0397,-1.83354 0.80422,-3.12364 2.31377,-3.90426 3.23378,-1.67225 7.28923,0.79715 6.87544,4.18652 -0.41229998,3.37711 -3.74744,5.354282 -6.55161,3.883996 z m 2.71865,-2.770916 c 1.43996,-1.00859 0.77295,-3.33139 -0.95665,-3.33139 -0.55969,0 -1.78708,1.33261 -1.78708,1.94028 0,0.55068 1.20705,1.94028 1.6854,1.94028 0.15085,0 0.6271,-0.24712 1.05833,-0.54917 z m 25.3021005,2.961933 c -1.32388,-0.728043 -1.92431,-1.825533 -1.93243,-3.532153 -0.007,-1.37613 0.17153,-1.82793 1.07763,-2.73403 1.81733,-1.81733 5.41132,-1.42539 6.51588,0.71059 0.90436,1.74884 0.66428,3.41442 -0.68691,4.76561 -1.00225,1.002247 -1.45174,1.197682 -2.73403,1.188718 -0.84402,-0.0059 -1.85208,-0.185331 -2.24014,-0.398735 z m 3.1498,-2.261573 c 0.80501,-0.805 0.68011,-1.81642 -0.30392,-2.46119 -1.18709,-0.77781 -2.31671,-0.17 -2.31671,1.24655 0,1.56033 1.55447,2.28081 2.62063,1.21464 z m -77.23312,1.933582 c -6.77159,-0.955402 -10.40695,-3.233162 -10.40695,-6.520542 0,-1.29856 0.21515,-1.79756 1.28614,-2.98302 1.23877,-1.37117 5.71486,-3.8701 6.93214,-3.8701 0.30774,0 0.6633,-0.16791 0.79013,-0.37313 0.2883,-0.46647 0.60592,-35.80462 0.33302,-37.0511 l -0.19961,-0.91173 -6.72413,-0.41797 c -16.5704,-1.03003 -30.71721,-4.23456 -37.96794,-8.60048 -2.595212,-1.56267 -5.210672,-4.19681 -5.774642,-5.81588 -0.31828,-0.91371 -0.46694,-3.38963 -0.47195,-7.86026 -0.007,-6.06065 0.0491,-6.63967 0.78313,-8.11389 0.80355,-1.61379 2.27989,-3.34043 4.334172,-5.069 l 1.13916,-0.95854 -1.15053,-2.26672 c -1.06233,-2.09297 -1.13762,-2.46364 -0.98211,-4.83554 0.20795,-3.172 1.31585,-5.51334 3.60909,-7.62717 2.77865,-2.56128 7.08139,-3.79962 10.20497,-2.93704 1.25508,0.3466 1.46752,0.29543 2.64584,-0.63729 3.06261,-2.42426 7.07197,-1.98672 8.86874,0.96784 0.51974,0.85463 0.93097,1.06722 2.40132,1.24136 0.97579,0.11557 2.58575,0.62138 3.57768,1.12403 1.90563,0.96566 4.42468,3.30469 4.78639,4.44433 0.26824,0.84513 0.50155,0.84336 4.11428,-0.0313 5.33207,-1.29085 11.1784,-1.79787 20.67186,-1.79275 6.87926,0.004 8.86302,-0.0928 8.67205,-0.42191 -0.13618,-0.2347 -0.68335,-0.98769 -1.21593,-1.67332 -0.89468,-1.15179 -1.18471,-1.27814 -3.81329,-1.66126 -3.24771,-0.47336 -6.82008,-1.78743 -9.38748,-3.45312 -1.52631,-0.99025 -2.14402,-1.1652 -4.58611,-1.29887 -5.06862,-0.27744 -9.28148,-3.00395 -11.21248,-7.25658 -1.16639,-2.56873 -1.09931,-7.3461 0.13977,-9.95441 1.16581,-2.45404 3.15703,-4.45379 5.465,-5.4884 l 1.80062,-0.80718 0.21084,-2.05568 c 0.11596,-1.13062 0.30446,-2.6113 0.4189,-3.2904 0.19725,-1.17062 0.11639,-1.29606 -1.55755,-2.41614 -2.47992,-1.65939 -5.91499,-4.87738 -8.24008,-7.71932 -4.46598,-5.45876 -6.60578,-10.61031 -6.78002,-16.32287 -0.0846,-2.77456 -0.30552,-3.89787 -1.28335,-6.52639 -1.1658,-3.13382 -1.181,-3.2505 -1.17169,-8.99583 0.009,-5.51959 0.0644,-5.98515 1.07078,-8.99584 1.00036,-2.99253 1.03612,-3.2865 0.62241,-5.11527 -0.83308,-3.68252 -1.28338,-9.96173 -1.06255,-14.81667 1.20909,-26.58129 17.25772,-52.60707 41.39647,-67.13194 7.77388,-4.67773 16.25242,-8.45525 23.9273695,-10.66057 6.66714,-1.91573 16.7110705,-3.02321 21.3430505,-2.35335 2.14778,0.3106 2.41716,0.2692 4.25178,-0.65335 3.45913,-1.73946 5.78386,-2.25612 10.03572,-2.23041 3.19355,0.0193 4.3802,0.18736 6.70278,0.9492 3.3274,1.09144 6.65461,3.176 8.6039,5.39051 l 1.39864,1.58893 1.35701,-0.6923 c 4.56151,-2.3271 10.54579,-0.40483 14.65837,4.70856 1.34806,1.67613 2.06395,2.23977 3.43962,2.70812 3.96736,1.35071 7.7065,5.08384 9.17598,9.16125 0.361,1.00166 0.82129,1.44858 2.08165,2.02115 3.45504,1.56959 7.58361,5.8833 9.17802,9.5896 0.43649,1.01465 0.98041,2.85686 1.2087,4.09381 0.36981,2.00374 0.5491,2.32896 1.64409,2.98241 5.64028,3.36588 8.42478,10.62506 6.34429,16.53949 -0.82336,2.34066 -0.86805,4.02755 -0.19928,7.52287 0.67581,3.53213 1.60148,5.22784 4.470048,8.18852 2.68526,2.77149 3.49034,4.31603 3.49034,6.69619 0,2.74192 -1.19632,4.22586 -3.935418,4.88155 -0.82208,0.19679 -0.96675,0.45126 -1.1813,2.07798 -0.28168,2.13568 -1.20807,4.45857 -2.05789,5.16011 -0.4226,0.34887 -0.5865,1.05068 -0.5865,2.51143 0,5.20187 -2.32929,13.75918 -5.62927,20.68072 -1.81635,3.80971 -2.02022,4.46061 -1.87841,5.99722 0.36545,3.95985 -2.08504,10.73682 -5.4149,14.9752 -3.41543,4.34731 -8.17772,7.32032 -12.24952,7.64716 -2.04849,0.16444 -2.36075,0.2945 -3.08216,1.28382 -4.02065,5.5138 -10.71178,11.14301 -17.95962,15.10933 -2.35388,1.28814 -9.23506,4.11625 -11.90625,4.89338 -1.57037,0.45687 -1.71611,0.67136 -1.16098,1.70862 0.25044,0.46795 0.96064,0.69567 2.73403,0.87665 4.23462,0.43214 16.49558,2.26643 18.94206,2.83381 4.95442,1.14901 8.30101,3.56405 10.0502,7.25266 0.84889,1.79011 0.91874,2.2952 0.90251,6.52639 -0.0157,4.09555 -0.1583,5.14261 -1.33292,9.78877 -1.50406,5.94919 -5.44458,18.12997 -6.60602,20.42021 -0.42981,0.84756 -1.23636,2.06247 -1.79233,2.69982 -0.55597,0.63734 -1.01086,1.39678 -1.01086,1.68764 0,0.29086 -1.26071,4.37315 -2.80157,9.07175 -1.54087,4.6986 -3.1387,9.89229 -3.55074,11.54152 -0.41204,1.64924 -1.11398,3.55424 -1.55987,4.23334 -0.80267,1.22249 -0.80718,1.2915 -0.45546,6.96736 0.19539,3.15295 0.48082,5.73263 0.63431,5.73263 0.86001,0 2.08893,-0.77304 2.08917,-1.31418 4.3e-4,-0.97774 2.02522,-5.01579 3.45545,-6.89123 2.82313,-3.70193 8.47965,-7.06882 14.39837,-8.57022 6.41358,-1.62694 14.33782,-1.03181 19.45206,1.46088 2.50046,1.21874 5.58246,4.10558 6.66605,6.24392 0.86082,1.69877 0.98784,3.57608 0.43088,6.36866 -0.1029,0.5159 0.271,0.77474 1.82077,1.26054 6.816898,2.13683 10.245608,6.11688 9.771718,11.34303 -0.7604,8.3858 -13.437578,15.67805 -31.911528,18.35636 -4.4837,0.65004 -6.21347,0.72701 -12.61176,0.56123 -7.57599,-0.19629 -9.94432,-0.5301 -14.64729,-2.06449 -5.43365,-1.77277 -9.86937,-4.87666 -11.88541,-8.31678 -1.06215,-1.8124 -1.44901,-5.05013 -0.82819,-6.93122 0.23531,-0.713 0.98028,-2.1173 1.6555,-3.12067 l 1.22766,-1.8243 -0.53797,-3.01618 c -0.29589,-1.6589 -0.72798,-4.64337 -0.96021,-6.63215 -0.23222,-1.98879 -0.58628,-3.61597 -0.7868,-3.61597 -0.20051,0 -1.96923,0.56586 -3.93048,1.25746 l -3.5659,1.25747 -0.43716,6.41545 c -0.73974,10.85575 -1.18636,12.76472 -3.23426,13.82373 -1.54594,0.79943 -3.94595,1.02957 -5.51228,0.52857 -2.99422,-0.95771 -4.09658,-3.08827 -4.56286,-8.81879 -0.17216,-2.11574 -0.43871,-3.24633 -0.90532,-3.83994 -0.54442,-0.6926 -0.66132,-1.45284 -0.66132,-4.30071 0,-1.94189 -0.15584,-3.5557 -0.35527,-3.67895 -0.4769,-0.29474 -0.52291,-0.0722 -1.20386,5.82237 -1.04313,9.02981 -2.49546,12.79688 -5.6453005,14.64281 -4.64544,2.72241 -11.02094,0.72593 -13.43437,-4.20695 -1.04444,-2.13476 -1.90827,-6.40512 -1.92667,-9.52451 -0.007,-1.148 -0.0747,-2.02113 -0.15086,-1.94028 -0.0762,0.0808 -0.31056,1.74577 -0.52079,3.69984 -0.78716,7.31643 -3.2768095,10.18003 -8.8656495,10.1973 -4.43275,0.0137 -7.42105,-1.91268 -9.16281,-5.90672 -1.2548,-2.87738 -1.52931,-6.38572 -1.34568,-17.19823 0.17201,-10.12868 0.16687,-10.22437 -0.54954,-10.22437 -0.39774,0 -2.93959,0.18571 -5.64855,0.41267 l -4.92538,0.41267 0.23215,13.43386 c 0.12768,7.38862 0.23236,15.99862 0.23264,19.13333 l 5e-4,5.69948 1.63686,0.55774 c 8.52769,2.90567 9.51313,9.52547 1.8124,12.17491 -3.97146,1.366388 -11.23525,1.828086 -16.67842,1.060112 z m 13.90737,-4.390702 c 2.24253,-0.67966 3.55512,-1.46589 3.55512,-2.12949 0,-0.73571 -2.91026,-2.26736 -4.30816,-2.26736 -0.68617,0 -1.93732,0.24336 -2.78034,0.54079 -0.95004,0.3352 -2.79361,0.54424 -4.84919,0.54986 -2.88789,0.008 -3.56492,-0.11252 -5.2396,-0.93186 -1.885,-0.92225 -1.95312,-0.92949 -3.43228,-0.36459 -1.73527,0.6627 -3.22353,2.07111 -2.84158,2.68911 0.46546,0.75312 3.46129,1.85134 6.34105,2.3245 3.6372,0.59762 10.95965,0.37562 13.55498,-0.41096 z m 110.27039,-5.09462 c 13.89416,-1.26517 27.20617,-6.40806 30.858178,-11.9216 1.39061,-2.09944 1.5043,-4.97361 0.26924,-6.80632 -0.98582,-1.46286 -3.24365,-3.07412 -4.707438,-3.35939 l -1.09668,-0.21373 -0.17337,2.41538 c -0.21881,3.04829 -1.16786,4.94959 -3.76271,7.53806 -5.92891,5.91434 -17.92858,9.28099 -27.56083,7.73253 -4.30875,-0.69267 -7.53054,-2.62492 -9.75003,-5.84752 -1.26674,-1.83925 -1.34287,-2.10192 -1.34287,-4.63335 0,-2.31193 -0.11246,-2.8049 -0.81206,-3.55979 -0.44663,-0.48192 -0.90482,-1.24579 -1.01818,-1.69747 -0.11337,-0.45169 -0.41388,-0.82125 -0.6678,-0.82125 -1.39862,0 -6.77923,3.04722 -8.94184,5.06407 -1.31307,1.22457 -2.8584,4.17407 -2.86377,5.46595 -0.005,1.27877 0.96473,3.02912 2.54693,4.59566 4.84281,4.79488 16.38226,7.19983 29.02323,6.04877 z m -116.06407,-2.47707 c 0.45853,-0.38054 0.52936,-2.95891 0.52936,-19.26974 v -18.83041 h -1.00909 c -0.55501,0 -1.74563,-0.10096 -2.64584,-0.22434 l -1.63674,-0.22434 v 19.25681 c 0,17.95994 0.0416,19.28238 0.61737,19.6366 0.76465,0.47041 3.42992,0.24884 4.14494,-0.34458 z m 124.17796,-6.86104 c 5.92551,-1.76681 11.13266,-5.23185 12.64197,-8.41248 0.32296,-0.68059 0.5872,-1.9094 0.5872,-2.73069 0,-1.89081 -0.68618,-4.22095 -1.24299,-4.22095 -0.92971,0 -2.20615,1.45776 -2.64317,3.01862 -0.25167,0.89888 -0.96742,2.17491 -1.59056,2.83563 -0.92281,0.97846 -1.39539,1.20131 -2.54755,1.20131 -0.77801,0 -1.98448,-0.23813 -2.68104,-0.52917 -2.05453,-0.85843 -2.63308,-0.67289 -5.10126,1.63597 -1.27299,1.19082 -2.96009,2.45036 -3.74912,2.79899 -3.77791,1.66923 -7.73626,1.05973 -10.75726,-1.65641 -1.71532,-1.54222 -4.25634,-2.40478 -4.74673,-1.61131 -0.12281,0.19871 -0.0475,1.18083 0.16728,2.18248 0.65619,3.05972 2.87866,4.99149 7.11139,6.18121 3.04072,0.85468 10.56223,0.49638 14.55184,-0.6932 z m -75.1262705,-2.88303 c 1.73267,-1.13529 2.42086,-3.78447 3.86749,-14.88793 0.48846,-3.74911 1.0413905,-7.50057 1.2287505,-8.33658 0.27992,-1.24909 0.19417,-2.01258 -0.48108,-4.28341 l -0.8217205,-2.7634 -0.42519,1.28835 c -0.48038,1.45558 -1.65841,3.09633 -2.22309,3.09633 -0.24791,0 -0.29816,-0.66015 -0.1477,-1.94028 0.12542,-1.06715 0.10759,-1.94106 -0.0396,-1.94202 -0.14721,-9.6e-4 -1.00239,0.26157 -1.90038,0.5834 -2.60695,0.9343 -2.91895,0.62372 -2.62945,-2.61747 0.13394,-1.49968 0.33579,-3.10096 0.44854,-3.55842 0.18576,-0.7536 0.1355,-0.79452 -0.53501,-0.43568 -1.04690998,0.56029 -2.83995998,3.28519 -3.61757,5.49765 -1.17538,3.34417 -1.54238,6.79572 -1.53826,14.46699 0.006,11.10292 0.82369,14.33882 4.03786002,15.97859 1.71729998,0.87612 3.28972998,0.82801 4.77643998,-0.14612 z m 18.9098305,-1.54497 c 0.32545,-1.58881 1.17158,-13.00793 0.97751,-13.19201 -0.081,-0.0768 -1.3219,-0.0538 -2.75768,0.051 l -2.6105,0.19059 0.24715,5.15228 c 0.40459,8.43457 0.67909,9.31506 2.84473,9.12475 0.88526,-0.0778 1.08472,-0.28152 1.29879,-1.32662 z m -39.39115,-1.47035 c 1.91872,-1.50927 2.2241,-3.46331 3.02297,-19.34354 0.20986,-4.1716 0.47038,-8.59406 0.57895,-9.82769 0.18395,-2.09038 0.15158,-2.22843 -0.47589,-2.02928 -0.37029,0.11753 -2.94833,0.67626 -5.72896,1.24163 -2.78063,0.56538 -5.19977,1.17202 -5.37585,1.34811 -0.50839,0.50839 -0.79865,17.78316 -0.3623,21.56289 0.64105,5.55298 2.29871,7.80856 5.74069,7.81135 1.13744,9.2e-4 1.92113,-0.22917 2.60039,-0.76347 z m 87.25578,-1.54267 c 1.32405,-0.3932 2.43968,-1.11063 4.03278,-2.59337 1.2113,-1.12738 2.54912,-2.23215 2.97292,-2.45504 1.10075,-0.57889 3.19831,-0.50352 5.1162,0.18386 1.9837,0.71097 2.55687,0.4033 3.11582,-1.67249 0.47248,-1.75462 1.92894,-3.46478 3.50456,-4.11499 1.87198,-0.77251 2.48592,-1.46681 2.48592,-2.81132 0,-5.54258 -9.93165,-9.48232 -19.72666,-7.82526 -2.35084,0.3977 -3.69077,1.01829 -2.1986,1.01829 1.13581,0 2.67543,0.87721 3.35204,1.90984 0.72557,1.10735 0.75262,3.33339 0.0527,4.33273 -1.45239,2.07359 -4.6,2.83228 -6.27715,1.51303 -1.79922,-1.41527 -2.06088,-4.89347 -0.4972,-6.60907 1.00117,-1.09843 0.56884,-1.00085 -2.34454,0.52917 -5.32044,2.79414 -9.04943,7.52971 -9.04943,11.49218 0,3.13916 0.76879,3.65659 5.57137,3.74976 0.4558,0.009 1.54369,0.70304 2.49237,1.59042 2.58624,2.41913 4.02821,2.76267 7.39695,1.76226 z m 10.3776,-10.56684 c -1.30965,-0.56918 -2.01175,-1.99802 -1.64106,-3.33971 0.23959,-0.86714 0.25619,-0.8566 0.52048,0.33052 0.30032,1.34891 1.43999,2.47794 2.5013,2.47794 0.82719,0 2.41432,-1.51212 2.41432,-2.30022 0,-0.69267 -0.66948,-2.01489 -1.19934,-2.36869 -0.65635,-0.43826 -2.12685,-0.29857 -3.04369,0.28913 -0.76425,0.4899 -0.74969,0.44622 0.11757,-0.35277 2.25784,-2.08012 5.1838,-0.47576 5.1838,2.84237 0,1.12708 -1.79395,2.95302 -2.88328,2.9347 -0.45149,-0.008 -1.33803,-0.23856 -1.9701,-0.51327 z m -37.66831,5.22424 c 1.08286,-0.51638 1.24665,-0.75977 1.2464,-1.85208 -3.9e-4,-1.64685 -0.67237,-8.89177 -0.87753,-9.46103 -0.12321,-0.34188 -0.50231,-0.30882 -1.66927,0.14556 -0.83042,0.32335 -1.56521,0.63067 -1.63287,0.68295 -0.23328,0.18024 1.27984,11.0791 1.53814,11.0791 0.0816,0 0.70945,-0.26752 1.39513,-0.5945 z m 26.80601,-8.37146 c 2.8679,-1.19828 2.52603,-4.79237 -0.45584,-4.79237 -2.49049,0 -3.86276,2.89628 -2.17293,4.58611 0.83953,0.83953 1.06989,0.8576 2.62877,0.20626 z m -38.6145,-3.71731 c 9.83276,-3.592 12.26095,-4.55836 13.33857,-5.30839 0.54576,-0.37985 0.92605,-1.29618 1.34772,-3.24738 0.55111,-2.55013 0.5503,-2.77488 -0.0132,-3.63493 -0.8906,-1.35923 -1.39921,-1.3944 -3.03442,-0.20987 -1.38684,1.00463 -6.50917,3.21162 -7.454,3.21162 -0.23465,0 0.83179,-0.92422 2.36987,-2.05384 3.90076,-2.86484 4.05738,-3.09951 2.37948,-3.56544 -2.49774,-0.69358 -3.20979,-0.50456 -5.34727,1.41949 -2.07823,1.87072 -9.25154,5.61881 -13.10931,6.84967 -2.64772,0.84478 -2.6633,0.86263 -1.3621,1.56047 0.63146,0.33866 1.21506,0.81662 1.2969,1.06213 0.18101,0.54304 -1.35828,0.26348 -3.97924,-0.72268 -0.96326,-0.36244 -1.87533,-0.53503 -2.02682,-0.38354 -0.58064,0.58064 -2.67943,6.25504 -2.41485,6.52894 0.65718,0.68034 4.60603,1.61544 6.8962,1.63305 2.24999,0.0173 3.22768,-0.25889 11.1125,-3.1393 z m -9.9992,1.58054 c -0.34062,-0.88764 -0.27684,-2.6556 0.0958,-2.6556 0.4871,0 0.83121,2.00486 0.45844,2.67098 -0.30052,0.53699 -0.34273,0.53582 -0.55424,-0.0154 z m 6.12105,-3.51672 c 0,-0.47362 0.15875,-0.95924 0.35278,-1.07916 0.20582,-0.1272 0.35277,0.23153 0.35277,0.86113 0,0.59353 -0.15875,1.07915 -0.35277,1.07915 -0.19403,0 -0.35278,-0.3875 -0.35278,-0.86112 z m -35.8748905,-2.71739 c 0.4417,-2.72282 0.5248,-4.04325 0.27046,-4.29758 -0.59765,-0.59765 -0.80684,-0.0637 -1.111,2.83578 -0.67387,6.42381 -0.12052,7.38614 0.84054,1.4618 z m 21.9476205,-3.49218 c 2.06398,-4.1949 2.89593,-5.15274 3.86196,-4.44635 0.4101,0.29986 0.63899,0.88652 0.61909,1.58669 -0.0221,0.7754 0.13131,1.11091 0.50777,1.11091 1.05306,0 8.5984,-3.48206 10.98862,-5.07107 1.3352,-0.88764 2.84146,-2.21321 3.34725,-2.94572 2.2275,-3.22595 3.42842,-7.80478 3.34272,-12.745 -0.0273,-1.57462 0.0587,-2.97134 0.19121,-3.10382 0.13248,-0.13248 0.24087,-0.63113 0.24087,-1.10812 0,-0.78316 -0.10688,-0.84587 -1.10243,-0.64676 -0.60634,0.12127 -1.93526,0.22049 -2.95316,0.22049 h -1.85073 l -0.29897,1.85208 c -0.16442,1.01865 -0.27292,2.21758 -0.24109,2.66429 0.0539,0.75627 -0.82852,2.18641 -1.34903,2.18641 -0.12666,0 -0.32943,-0.49575 -0.45061,-1.10166 -0.18854,-0.94269 -0.29856,-1.03673 -0.76244,-0.65175 -0.29815,0.24745 -1.71039,0.52488 -3.1383,0.61652 -5.18045,0.33246 -9.59433,-1.54091 -10.73683,-4.55701 -0.34421,-0.90867 -0.41151,-0.92692 -2.75753,-0.74785 -2.5703,0.19619 -3.3607605,0.54647 -3.0515505,1.35226 0.1288105,0.33567 -0.0491,0.50338 -0.53415,0.50338 -0.54653,0 -0.78274,0.29543 -0.95028,1.18851 -0.5327,2.8395 -0.49921,2.86452 5.4826605,4.0957 l 2.99861,0.61717 -1.92037,0.26681 c -2.16885,0.30132 -5.4076605,1.34358 -6.5972005,2.123 -0.43681,0.28621 -1.04583,1.05065 -1.35338,1.69876 -0.78082,1.64545 -2.95229,3.67089 -5.72971,5.34437 -2.56509,1.54556 -4.17979,3.48554 -4.56078,5.47956 l -0.23591,1.23473 2.13883,-2.2096 c 2.38479002,-2.46368 5.2291,-4.03584 5.80135,-3.20663 0.18118,0.26253 0.24258,1.85943 0.13644,3.54865 l -0.19299,3.0713 2.90547,-1.26026 c 3.0766105,-1.33449 4.1401905,-1.70969 4.1401905,-1.46051 0,1.54852 1.68831,8.04343 2.09084,8.04343 0.1267,0 1.0148,-1.59431 1.97356,-3.54291 z m 6.89732,-11.14494 c -0.40214,-0.51123 -0.73116,-1.44232 -0.73116,-2.06909 0,-1.77178 1.1717,-2.99861 2.86386,-2.99861 1.8615,0 3.13336,1.21716 3.13336,2.99861 0,1.78145 -1.27186,2.99861 -3.13336,2.99861 -1.09392,0 -1.56202,-0.20401 -2.1327,-0.92952 z m 3.28199,-1.97427 c 0.29587,-0.46983 0.24986,-0.74549 -0.19942,-1.19477 -1.05681,-1.05682 -2.63352,0.32437 -1.68078,1.47235 0.54853,0.66094 1.36509,0.54039 1.8802,-0.27758 z m 11.86185,-10.32537 c 0,-0.097 0.0794,-0.17639 0.17639,-0.17639 0.097,0 0.17639,0.0794 0.17639,0.17639 0,0.097 -0.0794,0.17639 -0.17639,0.17639 -0.097,0 -0.17639,-0.0794 -0.17639,-0.17639 z m -1.76389,-0.35278 c 0,-0.097 0.0794,-0.17639 0.17639,-0.17639 0.097,0 0.17639,0.0794 0.17639,0.17639 0,0.097 -0.0794,0.17639 -0.17639,0.17639 -0.097,0 -0.17639,-0.0794 -0.17639,-0.17639 z m 0.70555,-0.12456 c 0,-0.12919 0.3175,-0.43317 0.70556,-0.67551 0.57866,-0.36138 0.70556,-0.35232 0.70556,0.0504 0,0.27006 -0.3175,0.57404 -0.70556,0.67552 -0.38806,0.10148 -0.70556,0.0788 -0.70556,-0.0504 z m -0.44097,-0.99102 c 0.24254,-0.0979 0.63941,-0.0979 0.88195,0 0.24253,0.0979 0.0441,0.17793 -0.44098,0.17793 -0.48507,0 -0.6835,-0.0801 -0.44097,-0.17793 z m -74.70069,20.68346 c 3.20146,-0.19842 7.09084,-0.51161 8.64306,-0.69597 1.55222,-0.18436 3.8541,-0.42735 5.11528,-0.53998 6.08534,-0.54345 15.7618895,-3.24886 21.0784695,-5.89322 1.47831,-0.73528 1.4993,-0.77161 1.4993,-2.59461 0,-2.99212 -0.0739,-3.04681 -2.58255,-1.91193 -3.71166,1.67908 -15.4229995,4.62534 -21.7591095,5.47402 -6.76573,0.90622 -13.16596,1.3189 -21.87222,1.4103 l -10.05417,0.10555 -0.1039,2.31049 -0.1039,2.31049 2.04418,0.12775 c 4.53876,0.28367 12.5982,0.23784 18.09556,-0.10289 z m -22.2979,-2.53806 0.10348,-2.31672 -2.04376,-0.20261 c -1.12407,-0.11144 -3.1947,-0.30269 -4.6014,-0.425 l -2.55764,-0.22238 v 2.32214 c 0,2.11531 0.0707,2.33947 0.79375,2.51671 0.92508,0.22677 7.32956,0.80593 7.84931,0.70982 0.19403,-0.0359 0.39934,-1.10776 0.45626,-2.38196 z m -11.03201,-0.71385 c -0.34107,-2.68798 -0.50609,-3.08681 -1.27715,-3.08681 -0.38107,0 -0.7787,0.27782 -0.88363,0.61737 -0.64246,2.0791 -1.80629,2.30207 -2.42497,0.46458 -0.75448,-2.24084 -2.28098,-2.29976 -2.2956,-0.0886 -0.006,0.94943 -0.5967,2.18166 -1.04534,2.18166 -0.17027,0 -0.44249,-0.97778 -0.60495,-2.17284 l -0.29539,-2.17284 -4.58611,-1.46853 c -5.1577,-1.65156 -9.15425,-3.52376 -11.80526,-5.53023 -0.98505,-0.74556 -1.86715,-1.35555 -1.96023,-1.35555 -0.29699,0 -0.18138,3.44988 0.14432,4.30654 0.81727,2.14958 4.73584,4.62793 10.44617,6.60683 3.89066,1.3483 13.20209,3.49649 15.29074,3.52765 l 1.53241,0.0229 z m 122.39829,-0.95718 c 0.20249,-0.32764 3.71217,-11.53191 3.71217,-11.8507 0,-0.0862 -0.78763,-0.1567 -1.75029,-0.1567 -2.00784,0 -1.61017,-0.80926 -3.36479,6.84721 l -0.96283,4.20139 0.8341,0.64146 c 0.9561,0.7353 1.23731,0.79357 1.53164,0.31734 z m -4.76192,-7.15856 c 0.6488,-2.86294 1.087,-5.29797 0.97378,-5.41119 -0.11322,-0.11323 -0.87941,-0.3572 -1.70264,-0.54217 -1.66459,-0.37401 -2.06753,-0.0924 -2.08517,1.4573 -0.008,0.7361 -0.58417,3.73891 -1.62947,8.49784 -0.18419,0.83851 -0.0754,0.94145 1.33143,1.25996 0.8426,0.19077 1.62209,0.25611 1.73221,0.14522 0.11012,-0.1109 0.73106,-2.54403 1.37986,-5.40696 z m -84.97857,3.59312 c 2.98904,-0.20761 6.94274,-0.5648 8.786,-0.79375 l 3.35139,-0.41627 V -166.65 c 0,-1.62898 0.0991,-1.89292 0.7737,-2.06168 1.10311,-0.27594 1.51857,0.10362 1.52476,1.39301 0.01,2.03025 0.0933,2.04441 5.64448,0.95616 6.84001,-1.34091 11.9457295,-2.66281 14.2910795,-3.70003 1.78705,-0.79032 1.93126,-0.94258 1.93126,-2.03916 0,-0.70876 -0.42225,-1.85088 -1.05057,-2.84164 -0.99794,-1.57359 -1.01392,-1.65656 -0.31904,-1.65656 1.1331,0 2.69611,1.30341 3.18531,2.65628 0.24349002,0.67335 0.55246002,1.22427 0.68661002,1.22427 0.13415,0 1.12724,-0.9541 2.20686998,-2.12023 2.18639,-2.36156 2.6859,-3.82204 2.04213,-5.97076 -0.95384,-3.18363 -4.00215998,-5.78234 -9.57354,-8.16148 -4.4187195,-1.88693 -4.5861095,-1.90667 -4.5861095,-0.54071 0,1.60106 -1.59583,4.607 -3.11863,5.87434 -1.82895,1.52212 -5.71488,3.34761 -9.29527,4.36663 -4.93837,1.40553 -9.76722,1.96631 -16.91192,1.96402 -12.31977,-0.004 -20.04912,-1.96065 -25.42824,-6.4372 -1.46225,-1.2169 -2.22587,-1.65562 -2.33128,-1.3394 -0.38041,1.14123 -2.88175,3.38388 -4.77393,4.28021 -3.16766,1.50051 -6.3594,1.94971 -10.30909,1.45085 -4.5645,-0.57651 -6.80513,-1.49845 -9.3357,-3.84131 -2.42144,-2.24182 -2.86562,-2.26882 -5.15048,-0.31307 -1.88872,1.61667 -3.089802,4.33645 -2.76472,6.26055 0.53592,3.17211 6.41592,7.0202 15.06869,9.86151 2.29269,0.75286 4.24021,1.36883 4.32781,1.36883 0.0876,0 0.0614,-0.71438 -0.0583,-1.5875 -0.26167,-1.9091 0.2572,-2.09892 0.89745,-0.32833 0.83541,2.31028 3.85664,3.32373 6.04856,2.02893 0.55162,-0.32585 1.42078,-1.36016 1.93147,-2.29845 1.26061,-2.31616 1.73393,-1.88944 1.46275,1.31871 -0.17603,2.08238 -0.11835,2.59841 0.30875,2.7623 0.28888,0.11086 2.40432,0.30775 4.70099,0.43754 l 4.17577,0.236 -0.0341,-1.49805 c -0.0264,-1.15903 0.13622,-1.61299 0.71861,-2.00596 0.6641,-0.44809 0.82173,-0.43893 1.33843,0.0778 0.45218,0.45218 0.53281,0.93825 0.35373,2.13247 l -0.23196,1.54679 h 7.04086 c 3.87247,0 9.48643,-0.16986 12.47547,-0.37748 z m 41.5953295,-3.41488 c 1.95446,-1.80534 2.45516,-3.28322 1.97661,-5.83414 l -0.22597,-1.20452 -1.49318,1.45842 c -0.82125,0.80212 -1.83016998,1.69129 -2.24203998,1.97592 -0.67165,0.46415 -0.73107,0.76306 -0.57627,2.89877 0.0949,1.30968 0.30179,2.38125 0.45968,2.38125 0.15789,0 1.10341998,-0.75407 2.10116998,-1.6757 z m 26.3717605,-8.19375 c 1.40789,-0.63905 2.20224,-1.71833 2.20224,-2.99217 0,-0.79261 -1.16861,-1.00021 -1.68058,-0.29856 -2.4748,3.39169 -5.78167,3.76708 -8.84055,1.00357 -1.01622,-0.9181 -1.52452,-1.14132 -2.27306,-0.99823 -0.53028,0.10137 -0.96414,0.31234 -0.96414,0.46883 0,0.6402 2.20889,2.42943 3.61258,2.92624 2.20121,0.77906 6.10424,0.72517 7.94351,-0.10968 z m 26.77071,-0.93785 c 1.48977,-0.70694 1.7881,-1.27597 3.58161,-6.83159 4.20081,-13.0125 5.74801,-19.27508 5.75226,-23.28333 0.003,-3.13337 -0.37893,-4.57369 -1.6594,-6.25247 -1.55935,-2.0444 -3.68143,-2.74249 -13.01655,-4.28193 -9.82778,-1.62069 -11.81806,-1.90922 -11.81806,-1.71328 0,0.0785 0.29472,1.00107 0.65492,2.05009 1.03399,3.01128 2.41466,9.23266 3.2417,14.60731 0.58402,3.79536 0.80255,7.20088 0.94381,14.70839 l 0.18382,9.7695 1.73857,0.37286 c 2.60654,0.559 2.75881,0.51676 2.78902,-0.77367 l 0.0268,-1.14653 0.41413,1.12121 c 0.53991,1.46172 0.5798,1.49252 2.39389,1.84883 2.40365,0.4721 3.45775,0.42895 4.77344,-0.19539 z m -4.90111,-0.82467 c -0.81062,-1.1453 -0.77916,-2.58057 0.1212,-5.52879 0.97345,-3.18758 1.55333,-3.7549 1.20988,-1.18369 -0.14254,1.06715 -0.36144,3.21028 -0.48644,4.7625 -0.22606,2.80711 -0.23059,2.81755 -0.84464,1.94998 z m 7.382,-19.29182 c -0.31795,-0.31795 0.44135,-1.17899 1.03967,-1.17899 0.59858,0 0.62552,0.42489 0.0626,0.98778 -0.47843,0.47843 -0.76532,0.52819 -1.1023,0.19121 z m 0.4673,-3.47205 c 0,-0.097 0.0794,-0.17638 0.17639,-0.17638 0.097,0 0.17639,0.0794 0.17639,0.17638 0,0.097 -0.0794,0.17639 -0.17639,0.17639 -0.097,0 -0.17639,-0.0794 -0.17639,-0.17639 z m 0,-1.05833 c 0,-0.097 0.0794,-0.17639 0.17639,-0.17639 0.097,0 0.17639,0.0794 0.17639,0.17639 0,0.097 -0.0794,0.17639 -0.17639,0.17639 -0.097,0 -0.17639,-0.0794 -0.17639,-0.17639 z m 0.70556,-6.52639 c 0,-1.17592 0.15679,-2.11666 0.35278,-2.11666 0.19599,0 0.35278,0.94074 0.35278,2.11666 0,1.17593 -0.15679,2.11667 -0.35278,2.11667 -0.19599,0 -0.35278,-0.94074 -0.35278,-2.11667 z m -3.11744,-5.5758 c -0.54423,-0.97048 -0.42102,-1.57338 0.23789,-1.16397 0.25951,0.16125 0.41477,0.6721 0.34502,1.13522 l -0.12681,0.84205 z m -30.2282,34.79588 c 0.52241,-0.23803 0.98469,-0.79898 1.09021,-1.32292 0.53008,-2.63197 1.09343,-2.92743 4.24604,-2.22692 1.56309,0.34732 5.33432,0.0175 6.9876,-0.61104 l 1.02278,-0.38886 -0.23377,-5.67069 c -0.41239,-10.00366 -1.64171,-18.12345 -3.94245,-26.04051 -1.46068,-5.0263 -2.3348,-6.92714 -3.3309,-7.24329 -1.02703,-0.32597 -3.84772,0.13859 -5.47859,0.9023 -1.65139,0.77333 -2.79639,2.39612 -5.45931,7.73741 -2.17364,4.3599 -2.93425,5.29167 -4.31961,5.29167 -1.43641,0 -2.20614,-0.92307 -5.3929,-6.46725 -1.5426605,-2.68386 -3.6455005,-5.8087 -4.6729705,-6.9441 -2.46426,-2.72309 -5.39462998,-4.22754 -8.23442,-4.22754 -2.48957,0 -3.38366,0.32014 -5.09809,1.82542 -1.76203,1.54709 -2.61228,3.50423 -2.62189,6.03521 -0.0183,4.82105 2.57499,7.37991 8.81169002,8.69467 1.06716,0.22496 2.18327998,0.60049 2.48027998,0.8345 0.29699,0.23401 1.77272,1.9659 3.27939,3.84865 3.38593,4.23109 6.7961505,7.39429 9.2838905,8.61143 5.13628,2.51294 10.90728,-0.60704 16.87689,-9.12419 1.32593,-1.89177 2.55834,-3.43958 2.73868,-3.43958 0.81226,0 -1.1776,7.01592 -2.75165,9.70182 -1.01316,1.72884 -4.04503,4.79959 -5.81306,5.88763 -3.42918,2.11029 -8.57152,2.63812 -11.99183,1.23088 -3.8991705,-1.60426 -8.5557005,-5.66696 -11.7986005,-10.29394 -0.95190998,-1.3582 -1.77328998,-2.52853 -1.82528998,-2.60075 -0.18449,-0.25623 -5.19334002,-1.79804 -5.34584002,-1.64554 -0.0853,0.0853 -0.23778,2.91087 -0.33891,6.27911 l -0.18388,6.12407 4.04865,1.9839 c 4.47844,2.19449 8.00235,5.16313 9.40484,7.92288 0.62367,1.22723 0.98214,1.52674 2.07771,1.73599 1.8937205,0.36168 9.9943005,0.3627 10.9372005,10e-4 0.55463,-0.21254 0.79375,-0.17499 0.79375,0.12463 0,1.06685 1.25823,2.94778 2.26517,3.38624 1.35321,0.58922 1.38519,0.59034 2.48919,0.0873 z m -54.14324,-3.64681 c 8.25846,-1.57668 13.22658,-4.10538 13.98241,-7.11685 0.3183,-1.2682 -0.60259,-2.96535 -2.20985,-4.07268 -1.82328,-1.25615 -6.98368,-2.94496 -10.96773,-3.58933 -9.63588,-1.55849 -24.13462,-0.82654 -31.93747,1.61233 l -2.38125,0.74428 v 1.6455 c 0,1.07717 -0.32625,2.30021 -0.9446,3.54108 l -0.9446,1.89557 1.33729,1.156 c 2.58782,2.23699 7.9367,3.90917 15.0158,4.69427 4.31041,0.47804 15.43427,0.18013 19.05,-0.51017 z m -9.43681,-3.35926 c -1.3276,-0.53363 -0.89047,-1.04734 0.8912,-1.04734 4.75521,0 10.71963,-1.37235 10.94011,-2.51721 0.12757,-0.66243 -2.31718,-1.79037 -5.1813,-2.39051 -4.93458,-1.03397 -12.89152,-0.76596 -18.34018,0.61774 -2.62353,0.66625 -3.18901,0.4285 -1.85412,-0.77956 2.66472,-2.41154 14.40245,-3.38624 21.49576,-1.78501 6.27686,1.41693 7.99231,4.60348 3.67686,6.83001 -2.19083,1.13035 -9.74946,1.82709 -11.62833,1.07188 z m -37.30624,2.43775 c 1.56079,-0.41438 3.70416,-1.6141 3.70416,-2.07336 0,-0.16203 -0.67468,-0.51995 -1.4993,-0.79537 -1.43214,-0.47834 -1.59414,-0.45596 -3.61597,0.49949 -3.59901,1.70076 -7.25521,1.32383 -9.74689,-1.00483 -0.85273,-0.79694 -1.04456,-0.83523 -2.38125,-0.4753 -0.79959,0.21531 -1.45381,0.5195 -1.45381,0.67598 0,0.91685 4.21436,3.07854 6.97811,3.57932 1.91309,0.34664 5.95052,0.14216 8.01495,-0.40593 z m -1.60938,-5.58772 1.84355,-1.18301 1.8542,0.58449 c 2.44676,0.77127 4.0089,0.73593 5.41695,-0.12255 1.48627,-0.90618 1.9608,-2.17407 1.69266,-4.52255 -0.45143,-3.95372 -2.8368,-6.58721 -6.6073,-7.29456 -1.17731,-0.22086 -1.29145,-0.16292 -1.63814,0.83159 -0.45171,1.29579 -2.63866,2.52033 -4.50115,2.52033 -1.92744,0 -3.40003,-0.87281 -4.47486,-2.65227 -0.52993,-0.87734 -1.37271,-1.75074 -1.87285,-1.94089 -1.57388,-0.59839 -4.10475,-0.39008 -6.00368,0.49415 -4.63796,2.15966 -6.18777,8.15209 -2.90214,11.22133 0.86717,0.81006 1.38074,0.99157 2.80558,0.99157 0.95925,0 2.2313,-0.25195 2.82678,-0.55988 1.06764,-0.5521 1.10049,-0.54258 2.36373,0.68478 1.97792,1.92174 3.11378,2.39832 5.37541,2.25543 1.50587,-0.0951 2.41753,-0.40719 3.82126,-1.30796 z m 65.63854,-6.18765 c 0,-0.097 -0.0794,-0.17639 -0.17639,-0.17639 -0.097,0 -0.17639,0.0794 -0.17639,0.17639 0,0.097 0.0794,0.17639 0.17639,0.17639 0.097,0 0.17639,-0.0794 0.17639,-0.17639 z m -0.61736,-3.36994 c 1.32205,-0.36715 1.32291,-0.36865 1.32291,-2.29109 v -1.92369 h -1.36675 c -1.8421,0 -4.05625,-0.82367 -5.68776,-2.11584 l -1.34634,-1.06632 -2.23777,0.52753 c -1.23077,0.29014 -2.91245,0.52988 -3.73707,0.53275 -0.82462,0.003 -1.49871,0.12428 -1.49799,0.2698 7.3e-4,0.14552 0.30471,0.76213 0.67552,1.37024 2.11395,3.4668 9.41041,5.93657 13.87525,4.69662 z m -65.56263,-1.79396 c 1.06724,-0.48627 1.71608,-2.12655 1.2873,-3.25431 -0.38346,-1.00859 -1.84084,-1.98873 -2.95704,-1.98873 -0.46573,0 -1.26507,0.32902 -1.7763,0.73116 -0.72228,0.56814 -0.92952,1.04006 -0.92952,2.11666 0,2.38482 1.99796,3.47852 4.37556,2.39522 z m 68.3567495,-7.03909 c 0.68336,-0.36573 0.63804,-0.4639 -0.90805,-1.96661 l -1.6273095,-1.58167 -1.73487,1.52564 c -1.532,1.34723 -1.66816,1.5772 -1.16439,1.9666 0.70238,0.54293 4.4526095,0.58159 5.4346195,0.056 z m -12.6440195,-2.23053 c 2.40909,-0.66202 5.34239,-2.04372 6.79103,-3.19882 1.00628,-0.80239 1.02496,-0.8804 1.02765,-4.29245 0.002,-3.12176 0.10777,-3.69048 1.03535,-5.59187 0.62571,-1.28259 1.86828,-2.92599 3.1533095,-4.1705 2.2681,-2.1966 2.60032,-3.10859 2.6675,-7.32283 l 0.0258,-1.61554 -2.04709,1.01463 c -3.3460795,1.65847 -6.9469295,2.14827 -15.9445695,2.16882 -10.36121,0.0237 -16.19563,-0.97297 -21.57439,-3.68532 -1.51396,-0.76344 -2.0384,-0.8936 -2.17424,-0.53962 -0.0985,0.25658 -0.28763,3.1485 -0.42038,6.42649 -0.19092,4.71437 -0.12927,6.48633 0.29501,8.47847 1.53592,7.21167 6.20214,11.31814 14.58174,12.83254 2.53975,0.45899 10.19477,0.15239 12.58333,-0.504 z m 40.12052,-7.48213 c 0.76515,-1.38208 1.39118,-2.69177 1.39118,-2.91042 0,-0.26983 -1.19943,-0.39754 -3.73356,-0.39754 -2.05346,0 -3.68065,0.1419 -3.61598,0.31532 0.0647,0.17343 0.91135,1.75954 1.88148,3.52469 2.01106,3.65909 1.73678,3.69488 4.07688,-0.53205 z m -69.37772,0.66079 c -1.31085,-2.58634 -1.69688,-4.2609 -2.07374,-8.99583 -0.13919,-1.74876 -0.40506,-3.08681 -0.61334,-3.08681 -0.76205,0 -2.65107,2.46497 -3.08975,4.0318 -0.56249,2.00903 -0.29247,4.60905 0.67578,6.50697 1.05,2.05818 3.58984,3.84529 5.54659,3.90276 0.73398,0.0216 0.71796,-0.0633 -0.44554,-2.35889 z m 71.63153,-11.39499 c 11.10115,-0.9074 20.74461,-3.44689 27.71237,-7.29773 5.31406,-2.9369 11.27688,-7.63837 14.42231,-11.37148 l 1.54593,-1.83477 -1.29883,-1.26155 c -1.13657,-1.10395 -1.28563,-1.44068 -1.19315,-2.69539 0.0822,-1.11457 0.29938,-1.52992 0.9756,-1.86537 0.76359,-0.37879 1.1051,-0.29698 2.79406,0.66935 3.99745,2.28711 8.78787,1.07181 12.88186,-3.26804 4.98583,-5.28524 6.5589,-11.63947 4.42765,-17.88494 -3.18657,-9.33801 -14.87913,-9.60149 -20.82155,-0.4692 -0.32846,0.50478 -0.72302,0.7461 -0.97014,0.59337 -2.06251,-1.2747 3.51474,-8.38373 7.94975,-10.13313 2.59404,-1.02323 6.85219,-1.12168 9.44901,-0.21848 2.36721,0.82336 5.05793,2.90865 6.34999,4.92123 0.58209,0.90668 1.15615,1.65713 1.27569,1.66767 0.33991,0.0299 2.24996,-4.44418 3.24879,-7.61002 1.66893,-5.28979 2.61909,-12.78583 1.87403,-14.78487 -0.21992,-0.59007 -0.0466,-0.82361 0.97107,-1.30893 0.95735,-0.45653 1.32458,-0.90946 1.61658,-1.99385 0.67331,-2.50049 -0.28392,-6.03858 -2.09901,-7.75827 l -0.88992,-0.84314 0.92895,0.16899 c 0.89828,0.16341 0.92379,0.12136 0.77273,-1.27352 -0.0859,-0.79338 -0.21128,-1.72033 -0.27857,-2.05988 -0.0673,-0.33954 0.0215,-0.61736 0.19741,-0.61736 0.17587,0 0.31975,0.23813 0.31975,0.52917 0,0.29104 0.24114,0.80698 0.53587,1.14653 0.29473,0.33955 1.2171,1.49048 2.04972,2.55764 1.71888,2.20306 3.07016,2.59061 4.02399,1.15407 0.500078,-0.75316 0.38668,-0.92635 -2.69807,-4.12063 -2.34905,-2.43246 -3.5171,-3.96914 -4.31813,-5.6809 -1.11796,-2.38904 -1.204,-2.4421 -2.85657,-1.76177 -0.36923,0.15201 -0.61736,0.0972 -0.61736,-0.13636 0,-0.21479 0.12841,-0.39052 0.28535,-0.39052 0.15694,0 0.59351,-0.24918 0.97014,-0.55373 0.63898,-0.51669 0.56633,-0.54205 -1.0861,-0.37902 -0.97399,0.0961 -2.47592,0.41762 -3.33762,0.7145 -0.86169,0.29688 -1.62916,0.47734 -1.70548,0.40102 -0.29773,-0.29773 -1.1227,-5.38538 -1.1231,-6.92617 -5e-4,-1.97148 1.15451,-3.78617 1.97591,-3.10446 0.38785,0.32188 0.49312,0.28706 0.49312,-0.16311 0,-0.66097 0.30766,-0.70618 1.56147,-0.22948 1.03241,0.39252 1.96631,0.14589 1.96631,-0.51927 0,-0.542 0.87189,-0.93135 1.52466,-0.68086 0.65101,0.24982 1.33664,-1.40265 1.55384,-3.74499 0.1506,-1.62402 0.0297,-2.25335 -0.71128,-3.70417 -0.84557,-1.6555 -2.85944,-4.04082 -3.41157,-4.04082 -0.1403,0 -0.45665,0.67469 -0.703,1.49931 -1.0239,3.42723 -2.96345,5.8769 -5.57279,7.03849 -0.82462,0.36709 -1.4993,0.75464 -1.4993,0.86122 0,0.10658 0.257,1.07785 0.57112,2.15838 1.36877,4.7084 -0.0285,9.87982 -3.59922,13.32129 -1.73051,1.66786 -1.81151,1.823 -1.38139,2.64584 0.36777,0.70354 2.21161,5.89434 2.86216,8.05756 0.26398,0.87779 1.11274,-0.23953 1.58667,-2.0887 0.24575,-0.95886 0.56937,-1.74339 0.71916,-1.74339 0.62819,0 1.71094,1.61953 1.71094,2.55916 0,1.30114 -0.49469,2.24795 -1.99577,3.81983 -1.07332,1.12394 -1.16629,1.37022 -0.8406,2.22686 0.20141,0.52973 0.46915,2.30262 0.59499,3.93976 0.12584,1.63714 0.31775,2.97661 0.42647,2.97661 0.10871,0 0.79967,-0.58784 1.53545,-1.30632 l 1.33779,-1.30631 v 1.69394 c 0,1.43357 -0.16544,1.84849 -1.07629,2.69936 -0.59197,0.55297 -1.38571,1.10361 -1.76389,1.22364 -1.0024,0.31815 -0.89518,1.96936 0.19435,2.99291 0.48507,0.4557 0.88194,1.12336 0.88194,1.48368 0,0.79801 -0.95563,1.22958 -1.50538,0.67983 -0.65756,-0.65756 -0.94144,-0.47042 -1.53439,1.01149 -0.55127,1.37776 -0.816,1.57538 -1.89911,1.41765 -0.87961,-0.12809 -0.979,-0.67315 -0.52206,-2.86286 0.26603,-1.27478 0.30773,-2.17338 0.10664,-2.29766 -0.61265,-0.37865 -1.96348,0.20075 -2.54804,1.0929 -1.26191,1.92592 -2.42208,0.26354 -1.34701,-1.9301 0.40433,-0.825 0.95885,-1.33619 1.66463,-1.53453 0.58209,-0.16359 1.45521,-0.40587 1.94028,-0.5384 0.8341,-0.2279 0.8879,-0.39366 0.99171,-3.05579 0.0604,-1.54815 0.0109,-3.48986 -0.10993,-4.3149 -0.19493,-1.331 -0.29416,-1.46024 -0.88032,-1.14653 -1.13854,0.60932 -3.32561,0.41931 -4.164,-0.36176 -0.86524,-0.80609 -1.0167,-1.35125 -1.25245,-4.50792 -0.14022,-1.8777 -0.0807,-2.2078 0.38176,-2.11667 0.68458,0.1349 1.03397,0.75335 1.51616,2.68377 0.41536,1.66286 0.92404,2.02996 2.32545,1.67823 0.86203,-0.21636 0.90797,-0.32869 0.69052,-1.68857 -0.12812,-0.80124 -0.87919,-3.10966 -1.66904,-5.12984 l -1.43609,-3.67304 -1.28369,0.29648 c -0.70603,0.16307 -2.9594,0.29649 -5.0075,0.29649 -3.58144,0 -3.82422,-0.0497 -6.35,-1.30038 -1.4444,-0.7152 -3.14777,-1.83983 -3.78526,-2.49918 l -1.15907,-1.1988 -1.83954,0.63558 c -2.53508,0.8759 -6.61132,0.85488 -9.4753,-0.0489 -5.28077,-1.66636 -8.69675,-5.55232 -9.9702,-11.34191 l -0.20607,-0.93689 -2.75321,0.18871 c -2.01827,0.13834 -3.31353,0.0269 -4.85232,-0.41732 -6.54952,-1.89089 -10.27956,-5.99876 -10.66386,-11.74403 -0.16307,-2.43785 -0.22553,-2.59119 -1.33474,-3.27672 -6.8801105,-4.25214 -7.4796405,-16.13407 -1.14547,-22.70182 l 1.7387,-1.80281 -0.55034,-1.96342 c -0.72961,-2.60301 -0.69398,-4.39138 0.14096,-7.07403 0.38021,-1.22164 0.65099,-2.26147 0.60171,-2.31074 -0.3296,-0.32961 -11.3211405,0.66232 -14.34579048,1.29462 -6.82472002,1.42673 -15.59796952,4.5752 -22.22498952,7.97594 -5.35367,2.7473 -7.05556,3.88965 -7.05556,4.73584 0,2.15586 4.13636,7.49221 7.38754,9.53073 l 1.5667,0.98233 1.96108,-0.99133 c 2.73624,-1.38318 6.31546,-4.08782 6.79107,-5.13167 0.42682,-0.93675 0.99903,-1.0839 2.0427595,-0.52531 1.56714,0.83871 -0.59728,3.39156 -5.9152695,6.97684 l -1.86474,1.25717 1.15918,1.21071 c 0.63755,0.66589 2.15001,1.9226 3.36103,2.79269 1.84501,1.3256 2.14675,1.68493 1.86188,2.21722 -0.86468,1.61568 -1.70336,1.29634 -5.53363,-2.10702 -1.32586,-1.17809 -2.80459,-2.24141 -3.28608,-2.36293 -0.65515,-0.16536 -1.88243,0.3042 -4.87769,1.86626 -2.20126,1.14796 -4.14413,2.2565 -4.3175,2.46342 -0.18652,0.2226 -0.16395,0.92405 0.0553,1.71799 0.46855,1.69692 0.0406,2.25054 -1.35991,1.75933 -0.66048,-0.23165 -1.09959,-0.73415 -1.37023,-1.56804 -0.36684,-1.13028 -0.53501,-1.24429 -2.13031,-1.44413 -1.85493,-0.23236 -3.2178,-0.8536 -4.82837,-2.20089 -0.86713,-0.72538 -0.95113,-0.94665 -0.60495,-1.59349 0.54775,-1.02347 1.44151,-0.94485 3.82343,0.33635 2.58412,1.38995 3.93085,1.27362 7.89551,-0.68201 4.75467,-2.34531 4.68673,-1.91157 0.8984,-5.73586 -2.05212,-2.07159 -3.67108,-4.07233 -4.32127,-5.34032 -0.57185,-1.11519 -1.19847,-2.02636 -1.3925,-2.0248 -0.70757,0.006 -6.43884,4.68442 -9.83501,8.02885 -9.80012,9.65081 -16.5395,20.31665 -20.631,32.65088 -3.1582,9.5207 -4.41983,18.65288 -3.60933,26.12576 0.23079,2.12786 0.50096,4.00045 0.60038,4.16131 0.0994,0.16086 0.56766,-0.16733 1.04054,-0.72932 1.29884,-1.54357 5.35777,-4.17543 7.73998,-5.01868 2.91225,-1.03087 7.42277,-1.25278 10.54337,-0.51871 8.6269,2.02936 15.27061,9.70801 17.00647,19.6557 1.44422,8.27638 -0.76852,16.42888 -5.98144,22.0377 -4.09985,4.41122 -8.65314,6.46638 -14.36062,6.48178 -2.08166,0.006 -4.11003,-0.20676 -5.29167,-0.55405 -2.60721,-0.76628 -6.21482,-2.7012 -7.86521,-4.21847 -0.74964,-0.68918 -1.40566,-1.20493 -1.4578,-1.14613 -0.0522,0.0588 0.1306,0.98005 0.4061,2.0472 1.09837,4.25449 6.15714,11.08484 11.25899,15.20187 3.22403,2.6017 3.02656,2.52926 4.78749,1.75642 4.13713,-1.81569 13.78295,-2.7547 22.1173,-2.15309 11.44945,0.82648 18.4888295,3.06381 21.0481195,6.68975 1.02968,1.45881 1.05673,1.60225 0.99888,5.29717 l -0.0595,3.79775 2.76936002,0.39164 c 1.52315,0.2154 3.74967998,0.83362 4.94783998,1.37381 2.08276,0.93902 2.38995,0.97836 6.9914905,0.89528 2.64715,-0.0478 6.86806,-0.25487 9.3798,-0.46018 z m 3.66381,-18.31062 c -11.68149,-2.14202 -20.1869905,-10.64888 -22.6633705,-22.66701 -2.92584,-14.19941 5.95695,-29.09503 19.1952605,-32.18871 3.2662,-0.76329 8.80211,-0.70232 12.06776,0.13289 9.743,2.49184 17.635,10.75825 20.06473,21.01664 1.06995,4.51737 0.84075,11.75268 -0.50289,15.875 -1.35852,4.168 -3.16414,7.00086 -6.75241,10.59397 -3.47486,3.47954 -6.95707,5.6009 -10.94247,6.66616 -2.54739,0.6809 -8.18898,0.9887 -10.46661,0.57106 z m 4.62505,-19.93714 c 1.923,-0.99442 2.09564,-3.66839 0.31728,-4.91401 -1.15105,-0.80622 -2.19803,-0.70028 -3.44448,0.34854 -1.68165,1.41502 -1.44587,3.6111 0.5021,4.67656 0.95222,0.52082 1.44331,0.50004 2.6251,-0.11109 z m -7.14715,-5.42838 c 5.16856,-2.66331 6.67447,-9.45968 2.99927,-13.53605 -4.39289,-4.8724 -12.15945,-2.89474 -14.05372,3.57861 -2.1019105,7.1829 4.64494,13.26021 11.05445,9.95744 z m -37.5467,18.67339 c -0.82462,-0.38369 -1.50435,-0.82444 -1.51052,-0.97945 -0.006,-0.15501 -0.22713,-0.56651 -0.49102,-0.91445 -0.45567,-0.6008 -0.5463,-0.58749 -1.8019,0.26458 -2.64995,1.7983 -5.7591,0.8833 -6.51308,-1.91675 -0.52774,-1.95988 -0.072,-5.17952 0.89184,-6.30001 0.69662,-0.80986 0.89069,-0.86756 1.69128,-0.50278 1.0253,0.46715 1.50894,2.16577 1.18501,4.16194 -0.41574,2.5619 1.22553,1.77264 2.04382,-0.98284 0.64373,-2.16768 1.08872,-2.73458 2.14651,-2.73458 1.07488,0 1.91709,1.25142 1.91709,2.84855 0,1.31084 1.2857,3.68355 1.94028,3.58071 0.19402,-0.0305 0.4853,-1.13235 0.64727,-2.44859 0.40924,-3.32566 1.73901,-4.57349 3.17861,-2.98275 0.6771495,0.74825 0.8092595,4.7028 0.22711,6.7985 -0.69507,2.50225 -2.90316,3.34055 -5.5523,2.10792 z m 81.24708,-8.9245 c -1.33876,-1.91135 -0.12932,-5.7334 3.11372,-9.83987 2.45294,-3.10602 6.36172,-4.69422 8.17593,-3.32202 0.65156,0.49281 0.63344,0.51859 -0.37354,0.53113 -1.81959,0.0227 -3.67549,0.71119 -4.96213,1.84088 l -1.23869,1.08757 1.09317,0.6648 c 3.09806,1.88404 2.42876,6.80685 -1.21585,8.94274 -1.92766,1.12968 -3.84009,1.16914 -4.59261,0.0948 z m -11.69044,-44.34134 c -0.40388,-0.17393 -1.15794,-0.81968 -1.67569,-1.43499 -1.82434,-2.1681 -1.01335,-6.27678 1.49495,-7.57388 3.67309,-1.89943 7.69512,1.43691 6.74642,5.59627 -0.47627,2.08812 -2.03657,3.45216 -4.12288,3.60428 -0.93966,0.0685 -2.03892,-0.0177 -2.4428,-0.19168 z m 3.32604,-2.76419 c 1.21355,-1.02687 1.32424,-2.37792 0.28033,-3.42183 -1.13134,-1.13134 -2.13286,-1.14178 -3.24085,-0.0338 -1.13704,1.13704 -1.11268,2.41655 0.0636,3.34182 1.13557,0.89325 1.93849,0.92479 2.89691,0.1138 z m -19.50044,-9.12296 c -1.52287,-1.82184 -3.04953,-2.6069 -5.06951,-2.6069 -1.15771,0 -1.52814,0.205 -2.45543,1.35889 -1.36651,1.70044 -3.42393,2.76428 -4.16176,2.15194 -0.78729,-0.6534 -0.6078,-1.60956 0.5496,-2.92776 0.58208,-0.66296 1.05833,-1.37567 1.05833,-1.58379 0,-0.44892 -1.79997,-0.79343 -3.515,-0.67276 -1.44577,0.10173 -1.86143,-0.78609 -0.87721,-1.87365 1.41225,-1.56052 4.92904,-1.27826 6.74897,0.54167 0.64473,0.64473 1.25503,1.03826 1.35624,0.87451 0.34771,-0.56261 3.26072,-0.773 4.59694,-0.33201 2.82858,0.93352 5.30039,4.28978 4.3993,5.97346 -0.57858,1.08109 -1.12974,0.89176 -2.63047,-0.9036 z m -60.75043,-0.31185 c -0.1217,-0.31716 -0.13927,-1.5983 -0.039,-2.84696 l 0.18224,-2.27031 h -2.42883 c -2.18419,0 -2.42882,-0.0702 -2.42882,-0.69742 0,-1.12469 1.4759,-1.8423 3.51902,-1.71103 l 1.79595,0.11539 0.85928,-2.09828 c 0.47261,-1.15405 0.82456,-2.11534 0.7821,-2.13619 -1.02875,-0.50541 -4.48826,-3.96799 -5.5439,-5.54883 -1.44967,-2.17089 -1.73244,-3.33754 -0.98911,-4.08086 0.6833,-0.68331 0.89913,-0.52924 2.24864,1.60514 1.40531,2.22262 2.96922,3.99935 4.47526,5.08427 l 0.97363,0.70137 4.49443,-4.65942 c 2.47193,-2.56268 4.75078,-5.04608 5.06409,-5.51866 l 0.5696695,-0.85924 0.98322,0.84573 0.98321,0.84572 -1.35554,1.55963 c -0.74554,0.85779 -2.3319195,2.5915 -3.5252795,3.85268 -1.19337,1.26118 -2.75949,3.03462 -3.48028,3.94098 l -1.31053,1.64792 2.72319,2.05625 c 3.48557,2.63189 4.27413,3.65853 3.81434,4.96594 -0.24827,0.70594 -0.57977,0.97085 -1.21488,0.97085 -0.68899,0 -0.95555,-0.26075 -1.26223,-1.23472 -0.2944,-0.93502 -0.97926,-1.64516 -2.82153,-2.92567 l -2.43277,-1.69095 -0.58622,1.33817 c -0.5184,1.18337 -1.2521,4.07538 -1.99522,7.86456 -0.18058,0.92079 -0.44436,1.26344 -1.03747,1.34766 -0.4879,0.0693 -0.88087,-0.10997 -1.01662,-0.46372 z m 107.46888,-0.72837 c 0,-0.30249 0.16134,-0.45027 0.35853,-0.3284 0.19719,0.12187 0.2672,0.36937 0.15557,0.54999 -0.30242,0.48931 -0.5141,0.39807 -0.5141,-0.22159 z m -1.05834,-0.68473 c 0,-0.097 0.0794,-0.17639 0.17639,-0.17639 0.097,0 0.17639,0.0794 0.17639,0.17639 0,0.097 -0.0794,0.17638 -0.17639,0.17638 -0.097,0 -0.17639,-0.0794 -0.17639,-0.17638 z m 0.70556,-0.70556 c 0,-0.097 0.0794,-0.17639 0.17639,-0.17639 0.097,0 0.17639,0.0794 0.17639,0.17639 0,0.097 -0.0794,0.17639 -0.17639,0.17639 -0.097,0 -0.17639,-0.0794 -0.17639,-0.17639 z m -124.41133,-6.26181 c -0.39014,-0.43656 -1.04147,-1.27858 -1.44741,-1.87115 -0.82613,-1.20594 -2.34697,-2.0807 -4.58083,-2.63482 -2.7126,-0.67288 -1.588,-2.46139 1.54769,-2.46139 2.19201,0 2.97821,0.31989 4.65602,1.89442 1.45147,1.36213 2.17476,2.69735 2.17476,4.01473 0,1.84216 -1.17634,2.37182 -2.35023,1.05821 z m 129.35022,-8.20208 c 0,-0.097 0.0794,-0.17639 0.17639,-0.17639 0.097,0 0.17639,0.0794 0.17639,0.17639 0,0.097 -0.0794,0.17639 -0.17639,0.17639 -0.097,0 -0.17639,-0.0794 -0.17639,-0.17639 z M 0.84736152,-371.59835 c -1.79856,-0.91711 -2.67732002,-2.31384 -2.63661002,-4.19074 0.11753,-5.41842 7.80147,-6.37708 9.36214,-1.16804 0.32442,1.0828 0.27016,1.54385 -0.34543,2.9355 -0.57982,1.31079 -1.04234,1.79257 -2.24482,2.33832 -1.87883,0.85271 -2.60054,0.86754 -4.13527998,0.085 z m 3.87351998,-2.92792 c 0.87575,-0.87574 0.66902,-1.91959 -0.61028,-3.08156 -1.0088,-0.91629 -2.03296,-0.79871 -3.02374,0.34712 -0.76626998,0.8862 -0.77709998,1.47518 -0.0476,2.58851 0.73308,1.11881 2.63344,1.19414 3.68164,0.14593 z m -23.1249895,140.10264 c 0.99253,-0.22271 1.01436,-0.26188 0.35105,-0.62995 -2.2294,-1.23712 -13.9279,-1.94268 -19.3795,-1.16882 -1.81395,0.25749 -2.9199,0.55451 -2.63297,0.70712 0.48196,0.25634 4.89633,0.96843 7.37393,1.18951 2.37472,0.2119 13.23864,0.13749 14.28749,-0.0979 z m 6.77287,-1.62044 c 0.9821,-0.29165 1.9979595,-0.7861 2.2574495,-1.09876 0.40396,-0.48675 0.35457,-0.66342 -0.34351,-1.22869 -2.0315895,-1.64508 -9.7584995,-3.31878 -17.1552195,-3.71594 -8.2286,-0.44181 -20.39068,1.48804 -19.83744,3.14777 0.0758,0.2273 0.83995,0.77157 1.69819,1.20949 l 1.56044,0.79623 3.52778,-0.75443 c 4.6382,-0.99189 14.56216,-1.06789 19.40278,-0.14858 2.39997,0.45579 6.83632,1.88687 7.07972,2.28379 0.0133,0.0217 0.8277,-0.19922 1.80981,-0.49088 z m -34.46592,-36.51138 c 1.06151,-1.06151 0.94072,-2.93881 -0.24931,-3.87489 -1.66888,-1.31274 -3.98402,-0.15675 -3.98402,1.98929 0,1.48373 1.05541,2.59115 2.46944,2.59115 0.58797,0 1.37192,-0.31358 1.76389,-0.70555 z m -7.29893,-4.08869 c 1.99565,-0.67999 4.50103,-3.30166 5.11566,-5.35312 0.97139,-3.24221 0.1695,-6.39886 -2.14081,-8.42734 -4.42644,-3.88647 -10.93655,-1.39583 -12.30221,4.70657 -0.83063,3.71165 0.90366,7.52543 4.07773,8.96706 1.77297,0.80527 3.1194,0.83267 5.24963,0.10683 z m 124.06837,-45.34763 c 5.11711,-2.23362 7.26066,-8.29959 4.70129,-13.30404 -1.16806,-2.28396 -2.67594,-3.44651 -4.90353,-3.78056 -0.85891,-0.1288 -1.56165,-0.31381 -1.56165,-0.41114 0,-0.0973 0.58664,-0.71429 1.30366,-1.37105 1.70366,-1.56049 3.2181,-1.59476 5.53528,-0.12525 l 1.68541,1.06885 1.45399,-0.80427 c 4.40091,-2.43435 6.11049,-9.18595 3.67373,-14.50854 -1.41645,-3.09393 -6.36381,-7.88732 -6.72309,-6.51385 -0.78836,3.01385 -1.13377,3.63666 -1.99364,3.5948 -1.72402,-0.0839 -5.6409,-1.29524 -5.6409,-1.74446 0,-0.24811 0.59531,-0.63969 1.32292,-0.87018 1.82037,-0.57664 2.20486,-1.20461 2.20486,-3.60115 0,-3.00897 -1.43008,-5.51012 -4.19927,-7.34436 -1.77801,-1.1777 -2.45455,-1.26323 -3.93532,-0.49749 -1.54397,0.79842 -2.29707,0.22335 -3.00318,-2.2932 -1.09399,-3.89894 -4.64873,-6.71334 -8.4793,-6.71334 -1.62117,0 -1.94812,0.12891 -2.75296,1.0854 -0.50232,0.59697 -0.9133,1.31135 -0.9133,1.5875 0,0.74445 -1.30492,1.91321 -2.13608,1.91321 -0.5427,0 -0.94872,-0.50592 -1.61491,-2.01231 -1.23213,-2.78607 -2.73563,-4.56614 -5.20442,-6.1618 -4.22605,-2.73143 -9.43491,-3.48761 -14.09952,-2.04686 -4.57693,1.41367 -7.33436,4.78856 -7.33436,8.97672 0,1.31275 0.18247,2.23307 0.50711,2.55771 0.27891,0.27891 1.58532,0.64083 2.90313,0.80426 2.25021,0.27906 4.11485,1.1477 4.19228,1.95296 0.0179,0.18647 -0.6024,0.46921 -1.37851,0.6283 -4.81006,0.986 -7.36012,2.46379 -9.29675,5.38757 -3.04556,4.59795 -2.84248,9.96537 0.50941,13.46359 l 1.52322,1.58972 1.69178,-1.40583 c 0.93048,-0.77321 2.03854,-1.58781 2.46234,-1.81021 0.79721,-0.41836 2.93361,-0.56228 2.93361,-0.19763 0,0.11371 -0.85398,1.02652 -1.89773,2.02847 -1.73108,1.66175 -1.9344,2.0231 -2.31534,4.11479 -1.53926,8.45184 6.74433,14.05293 14.48762,9.79604 1.93042,-1.06126 2.07027,-1.08813 2.69942,-0.51875 0.36494,0.33026 0.90891,0.60048 1.20882,0.60048 0.4635,0 0.51937,0.46305 0.37246,3.08681 -0.20703,3.69766 0.22221,5.51664 1.78548,7.56622 3.48647,4.57106 11.22713,4.88288 14.35579,0.5783 1.46874,-2.02077 2.04506,-3.43013 2.78056,-6.79975 0.33618,-1.54021 0.7714,-2.85376 0.96714,-2.919 0.85062,-0.28354 1.57558,1.2397 1.58558,3.33155 0.0118,2.47686 -0.4958,4.55148 -1.69077,6.90963 -0.81082,1.60008 -0.83088,1.76688 -0.30845,2.56421 2.07443,3.16598 8.26217,4.4335 12.53609,2.56793 z m -26.81926,-29.66386 c -7.69236,-2.68751 -11.94031,-9.32409 -10.12762,-15.82239 0.29379,-1.05321 0.63379,-2.35149 0.75557,-2.88506 0.12178,-0.53358 0.43418,-0.97014 0.69422,-0.97014 0.26004,0 1.16982,-0.55598 2.02175,-1.23551 5.50132,-4.38811 13.89913,-3.66347 19.34506,1.66926 6.19234,6.06364 5.44825,15.27568 -1.52482,18.87773 -1.52839,0.78951 -2.352,0.95189 -5.33518,1.05187 -2.96478,0.0994 -3.89503,-0.0101 -5.82898,-0.68576 z m 8.23358,-3.96092 c 6.29581,-2.24537 5.08607,-11.902 -1.87543,-14.97047 -8.29582,-3.65661 -15.78462,3.49048 -11.10925,10.60234 2.46961,3.75661 8.76303,5.87376 12.98468,4.36813 z m 38.62342,27.41041 -0.1058,-2.02847 -2.95391,-0.10317 c -2.48815,-0.0869 -2.92236,-0.021 -2.75384,0.41818 0.11003,0.28674 0.0816,0.57129 -0.0631,0.63233 -0.14474,0.061 -0.12648,0.78568 0.0406,1.6103 l 0.30376,1.4993 h 2.81906 2.81907 z m -6.07971,-2.70717 c 0.21609,-1.17481 0.18021,-1.31463 -0.23713,-0.92409 -0.27046,0.25309 -0.53403,1.02942 -0.58572,1.72518 -0.12233,1.64643 0.48065,1.05941 0.82285,-0.80109 z m -201.080172,222.75349 c -2.659,-0.47925 -5.20434,-1.38947 -6.3855,-2.28348 -1.74556,-1.32119 -2.79197,-3.79765 -5.2963,-12.53438 -1.307,-4.55966 -2.91016,-9.7666 -3.56259,-11.57098 -0.65243,-1.80438 -1.18275,-3.70938 -1.17849,-4.23333 0.0134,-1.65056 1.25894,-3.84566 2.73707,-4.82385 1.32996,-0.88012 1.39838,-1.01856 1.60691,-3.25166 0.58406,-6.25466 5.40917,-11.13799 11.91483,-12.05862 5.89792,-0.83462 11.88477,2.11763 14.33562,7.06922 l 0.79246,1.60104 3.064192,0.23553 c 7.49371,0.57602 13.27862,3.4128 15.14851,7.42848 1.02663,2.20473 1.04591,3.51745 0.10432,7.10231 -0.6792,2.58586 -1.73227,7.94431 -1.7334,8.8202 -3.1e-4,0.24015 0.75463,0.32067 2.09654,0.2236 2.71343,-0.19627 4.95154,0.81287 6.29063,2.83636 2.53922,3.83703 0.32556,11.91058 -3.26572,11.91058 -2.31075,0 -2.71865,-2.087 -0.94739,-4.84726 1.37483,-2.14249 1.45351,-3.66786 0.25122,-4.87016 -0.6293,-0.6293 -1.24961,-0.86591 -2.27009,-0.86591 -2.68732,0 -3.00085,0.30599 -3.85138,3.75866 -0.45475,1.84605 -1.17156,3.69683 -1.7551,4.53162 -1.67796,2.40045 -4.93001,3.99721 -10.83669,5.32079 -2.884572,0.64639 -14.571312,0.98578 -17.259652,0.50124 z m 16.33636,-4.7566 c 3.921152,-0.77067 6.408102,-1.73442 7.549242,-2.92552 0.70347,-0.73426 1.15697,-1.91478 1.83033,-4.76457 1.12332,-4.75407 2.30594,-12.00499 2.00293,-12.28035 -0.12576,-0.11428 -1.13838,-0.41671 -2.25026,-0.67206 l -2.02161,-0.46427 -1.70221,1.59222 c -2.79367,2.61315 -5.864192,3.07906 -8.290702,1.258 -0.62332,-0.4678 -1.30784,-0.95294 -1.52115,-1.0781 -0.2133,-0.12516 -1.08203,0.28296 -1.93051,0.90694 -1.39532,1.02613 -1.78196,1.1345 -4.04765,1.1345 -2.1649,0 -2.71176,-0.13684 -4.02806,-1.00793 l -1.52308,-1.00793 -1.48841,0.74335 c -2.5942,1.29561 -5.42134,0.87246 -7.84932,-1.17483 -1.42382,-1.20058 -1.46599,-0.80897 -0.2917,2.7088 0.47015,1.40842 1.58874,5.08314 2.48574,8.16604 0.897,3.08291 1.86501,6.05798 2.15113,6.61127 1.24455,2.40669 4.46939,3.17357 12.49997,2.97254 3.05097,-0.0764 6.77527,-0.3938 8.42532,-0.7181 z m -7.50252,-21.70293 c 1.925,-1.7744 2.93047,-1.80834 5.22584,-0.17639 2.963892,2.10725 4.458602,1.69817 7.548202,-2.06586 0.75354,-0.91802 0.95496,-0.98084 2.46945,-0.77022 4.22582,0.58769 5.35315,0.24009 5.35315,-1.6506 0,-2.20275 -1.88985,-3.98363 -5.57164,-5.25035 -2.13513,-0.73459 -7.961382,-1.55636 -8.532392,-1.20345 -0.19792,0.12232 -0.35986,0.63916 -0.35986,1.14853 0,4.03673 -6.49964,8.88646 -11.93564,8.90582 -1.55593,0.006 -1.31618,0.63071 0.63823,1.66422 2.25583,1.19292 3.3569,1.06464 5.16466,-0.6017 z m -11.48861,0.16733 c 1.34788,-0.69702 1.31673,-1.11208 -0.10572,-1.40861 -1.74587,-0.36394 -3.84436,-1.7049 -5.53026,-3.53389 l -1.52092,-1.65001 -0.90095,0.67266 c -1.49027,1.11265 -1.73674,1.74586 -1.10743,2.84515 0.46996,0.82094 0.75794,0.95442 1.90555,0.88325 1.1445,-0.071 1.58607,0.132 2.87807,1.32292 1.67051,1.53982 2.69197,1.7423 4.38166,0.86853 z m 7.98297,-5.40777 c 3.95218,-1.36572 5.75784,-3.49156 5.75784,-6.77885 0,-6.2003 -6.95924,-10.15688 -13.24526,-7.53042 -2.16945,0.90646 -3.59022,2.19389 -4.55277,4.12547 -1.04142,2.08986 -1.10034,2.97717 -0.36265,5.46126 0.61982,2.08716 2.53757,3.9717 4.89107,4.80637 1.99896,0.70894 5.32503,0.67182 7.51177,-0.0838 z"
       id="path294" /></g></svg>
