<?xml version="1.0" encoding="UTF-8" standalone="no"?>
<!-- Created with Inkscape (http://www.inkscape.org/) -->

<svg
   width="221.70584mm"
   height="280.02557mm"
   viewBox="0 0 221.70588 280.02556"
   version="1.1"
   id="svg1"
   xml:space="preserve"
   xmlns="http://www.w3.org/2000/svg"
   xmlns:svg="http://www.w3.org/2000/svg"><defs
     id="defs1"><clipPath
       clipPathUnits="userSpaceOnUse"
       id="clipPath6"><path
         id="path7"
         style="fill:#ff0000;fill-opacity:1;fill-rule:nonzero;stroke:none;stroke-width:0.264583"
         d="M -175.07778,-16.057127 V 287.55793 H 124.54631 V -16.057127 Z m 132.7459,202.572647 c 0.210643,0.005 0.427212,0.0169 0.650089,0.0367 2.23823,0.19855 4.475655,0.4031 6.717938,0.55346 1.973313,0.11308 0.986628,0.0436 2.958475,0.20825 3.181295,0.26563 4.740125,1.85116 4.950601,3.46956 4.949923,1.63749 3.796379,7.35609 -2.592089,6.81354 -3.228716,-0.27422 -1.569593,-0.1301 -4.979024,-0.43357 -4.228209,-0.39317 -8.460616,-0.76265 -12.666927,-1.35341 -6.647387,-0.93358 -5.930551,-7.21034 0.03204,-7.20421 0.04685,5e-5 0.0972,0.004 0.144695,0.005 0.687229,-1.21692 2.304132,-2.15435 4.784204,-2.09548 z" /></clipPath><clipPath
       clipPathUnits="userSpaceOnUse"
       id="clipPath76"><path
         id="path77"
         style="fill:#ff0000;fill-opacity:1;fill-rule:nonzero;stroke:none;stroke-width:0.264583"
         d="M -133.83107,-122.52355 V 173.82063 H 122.97289 V -122.52355 Z M 13.574404,98.948202 c 2.788179,0.0507 4.135003,2.063798 3.398242,4.077268 0.199805,0.45372 0.374906,0.96736 0.517797,1.54461 1.07913,4.35948 0.671079,8.891 0.311608,13.31495 -0.351859,3.06036 -0.147137,1.57974 -0.604097,4.44366 -0.359666,2.25418 -1.333846,3.66838 -2.455664,4.32532 0.105138,0.36595 0.224724,0.72888 0.324528,1.09554 0.6273,2.23652 0.575201,4.47401 0.39429,6.75514 -0.137303,1.73129 -0.688065,2.99533 -1.427303,3.82199 -0.112477,0.41601 -0.170275,0.80219 -0.311092,1.25212 -0.184975,0.59102 -0.413327,1.1061 -0.670242,1.55856 0.741137,-0.23134 1.446982,-0.38145 2.064991,-0.37517 4.085002,0.0415 5.222724,4.75435 -0.02223,7.27138 -4.46677,2.14368 -9.303523,3.34693 -14.11903492,4.40955 -4.40876268,0.85156 -8.89238128,1.33053 -13.38264308,1.19269 -5.804014,-0.17807 -6.736297,-5.00293 -3.065447,-6.67298 -2.072987,-0.65744 -4.042852,-1.62261 -4.128947,-3.14709 -0.02802,-0.49633 0.0026,-0.90355 0.0341,-1.30897 -1.976731,-0.003 -3.95339,2.4e-4 -5.930386,0.003 -0.814031,0 -1.53062,-0.0962 -2.159559,-0.26149 -0.376306,0.19492 -0.742394,0.40783 -1.120862,0.59893 -6.391272,3.22657 -9.625245,-3.24074 -3.234428,-6.46886 1.833438,-0.92611 3.62694,-1.92211 5.414142,-2.92954 -0.877003,-3.87058 -1.368747,-7.83436 -1.323951,-11.80858 0.01651,-1.46304 0.376836,-2.54918 0.864547,-3.41426 -1.247357,-1.79999 -0.223805,-4.63069 3.842661,-5.68855 3.11826,-0.81116 6.282901,-1.39515 9.473837,-1.82211 -1.259816,-0.12657 -2.516182,-0.30233 -3.764627,-0.50177 -1.477002,-0.21985 -2.935575,-0.54305 -4.407482,-0.7891 -1.14214,-0.22954 -0.588502,-0.12004 -1.660882,-0.3297 -3.350244,-0.65501 -4.783278,-2.61088 -4.608504,-4.32997 -0.200179,-1.7721 1.333365,-3.52972 4.663799,-3.59461 v -5.3e-4 c 0.20954,-0.004 0.426035,-0.002 0.649571,0.008 1.77111,0.0772 3.528708,0.28204 5.26428,0.64027 1.655035,0.33225 3.314115,0.6481 4.955251,1.04439 1.244759,0.34858 2.51628,0.54538 3.7997689,0.6723 0.025956,0.002 0.052073,0.002 0.078034,0.004 0.4990888,-0.0371 0.9984105,-0.0743 1.4965495,-0.11317 1.346872,-0.12588 2.6913231,-0.25136 4.0457464,-0.24236 1.1278499,-0.0444 2.2567291,-0.10772 3.37498791,-0.26872 0.75719517,-0.11591 1.51142439,-0.25483 2.25722659,-0.4284 0.3616431,-0.12394 0.7240561,-0.24538 1.083138,-0.37775 0.3360393,-0.12388 0.6107589,-0.12825 0.9250071,-0.20723 0.1281086,-0.045 0.2583895,-0.0825 0.3855085,-0.13074 1.9825018,-0.7681 3.9540551,-1.56464 5.9510551,-2.29443 1.050809,-0.383992 1.999634,-0.542639 2.826703,-0.527616 z M 0.70283723,110.39557 c -0.45566013,0.0949 -0.90775367,0.208 -1.36890919,0.2744 -1.16638124,0.15534 -2.34111274,0.24237 -3.51761424,0.26251 0.4031694,0.0896 0.8047355,0.18876 1.2025101,0.308 0.1014836,0.0304 0.1982549,0.075 0.2986907,0.10852 0.4205235,-0.21824 0.9206601,-0.35072 1.4898318,-0.37156 0.39885139,-0.0146 0.83259872,0.0278 1.29449508,0.13023 0.22468681,-0.12213 0.44967525,-0.24374 0.67437529,-0.36587 -0.0326284,-0.11319 -0.058211,-0.22834 -0.0733795,-0.34623 z m 10.24433577,1.02474 c -0.76023,0.21437 -1.5189569,0.4343 -2.2696301,0.68006 -0.031261,0.62207 -0.2256075,1.28373 -0.6464723,1.94355 0.6236891,0.43248 1.2549743,1.04482 1.8634525,1.86862 0.2674939,0.36214 0.4748849,0.75712 0.7188199,1.13223 0.154519,-1.86707 0.314174,-3.74736 0.33383,-5.62446 z m 64.566086,3.39773 c 1.50346,0.0187 3.129182,1.24994 3.928441,4.04678 0.257931,0.90255 0.823497,1.65871 1.488797,2.30735 0.856321,0.95375 1.845738,1.76777 2.801898,2.61638 1.458581,1.46408 2.789203,3.04608 4.169772,4.58215 1.315059,1.44746 2.571226,2.91698 3.543967,4.61884 0.0053,0.01 0.0082,0.0206 0.01344,0.0305 0.734605,-0.43313 1.446276,-0.65634 2.094962,-0.69195 3.016182,-0.16561 4.69137,3.55377 1.187525,7.32306 -1.69471,1.82311 -3.657862,3.33908 -5.68751,4.7651 -0.777873,0.49914 -1.607691,0.90075 -2.418456,1.33842 0.165478,1.44344 -0.672182,3.24303 -2.956409,4.73096 -1.354556,0.88234 -2.690448,1.79306 -4.075203,2.6288 -2.075008,1.20078 -4.233777,2.27962 -6.540687,2.96259 -2.077586,0.62971 -4.169056,1.29987 -6.359301,1.36374 -1.872114,0.0897 -3.746989,0.0368 -5.620845,0.0501 h -5.1108 -5.524728 c -7.160125,0 -7.160125,-7.23315 0,-7.23315 h 1.347722 c 0.29438,-0.0541 0.5212,-0.1588 0.84801,-0.18656 1.106628,-0.094 2.200932,-0.28334 3.292822,-0.48421 0.456121,-0.98163 1.356053,-1.98213 2.807581,-2.83962 1.078018,-0.63685 2.158119,-1.26923 3.212209,-1.94561 1.962647,-1.29302 3.840588,-2.72135 5.893696,-3.86902 1.367169,-0.76424 2.559646,-1.07097 3.526915,-1.04128 2.216811,0.068 3.246223,1.90266 2.479953,4.04059 1.105688,-0.48686 2.206929,-0.98346 3.283003,-1.53739 2.619811,-1.23728 5.288743,-2.38548 7.764385,-3.9026 0.246153,-0.17184 0.487463,-0.34958 0.730705,-0.52503 -0.126915,-0.50614 -0.277693,-0.9939 -0.512114,-1.46554 -0.647621,-1.25778 -1.721077,-2.20654 -2.600875,-3.29644 -1.199229,-1.33472 -2.369312,-2.69496 -3.592029,-4.00803 -1.098706,-0.97599 -2.227236,-1.92181 -3.215306,-3.01428 -1.300821,-1.39063 -2.459913,-2.93896 -3.045293,-4.77801 -1.289469,-4.05101 0.646382,-6.61405 2.843754,-6.58667 z m -95.086705,4.28035 c -0.465643,0.10748 -0.930899,0.21773 -1.394745,0.33435 0.171958,0.64334 0.283575,1.36624 0.279569,2.2071 -0.01267,2.6582 0.205063,5.32647 0.670242,7.94732 0.280107,-0.17087 0.565767,-0.33222 0.845429,-0.50385 -0.01897,-0.36223 -0.02445,-0.73164 -0.05529,-1.08985 -0.118034,-2.96491 -0.160888,-5.93314 -0.3452,-8.89507 z m 18.5141159,1.1958 c 0.00497,0.0773 0.00619,0.15612 0.014975,0.23202 -0.1238779,0.22787 -0.2588048,0.44752 -0.3937741,0.66715 0.58900751,0.0447 1.13203305,0.21413 1.64331124,0.45888 -0.37615284,-0.49255 -0.78353709,-0.94642 -1.26452314,-1.35805 z m -6.5422357,14.57068 c -0.046649,0.0755 -0.09888,0.14702 -0.1436608,0.22376 -0.03147,0.054 0.1963367,0.0838 0.1860365,0.0222 -0.017595,-0.10481 -0.026035,-0.14905 -0.042376,-0.24597 z m 13.9236979,6.08439 c -0.2236258,0.5643 -0.5677508,1.09664 -1.1782213,1.50533 0.9079653,0.17659 1.7077452,0.44257 2.2830631,0.84852 0.1405493,-0.0459 0.272804,-0.11448 0.4128956,-0.16174 -0.7336976,-0.43656 -1.2984269,-1.18703 -1.5177374,-2.19211 z" /></clipPath><clipPath
       clipPathUnits="userSpaceOnUse"
       id="clipPath127"><path
         id="path128"
         style="fill:#ff0000;fill-opacity:1;fill-rule:nonzero;stroke:none;stroke-width:0.264583"
         d="M -112.24796,-126.55676 V 185.58027 H 148.5754 V -126.55676 Z M 46.874626,83.305366 c 1.808208,0 3.616317,1.790192 3.616317,5.370214 v 5.232238 c 0.0627,2.146078 -0.111291,4.285324 -0.245462,6.424932 -0.136289,2.02485 -0.190703,4.04985 -0.104904,6.07715 0.192061,1.91863 0.527714,3.82569 0.876432,5.72213 0.304242,2.00862 0.765826,3.9858 1.180806,5.97276 0.41642,1.86142 0.967934,3.68703 1.421104,5.53972 0.25287,0.86996 0.117097,0.46495 0.396356,1.22008 0.186108,0.50319 0.223428,0.93098 0.309544,1.38441 4.425355,2.23251 2.751262,7.58433 -3.415813,6.40477 -3.104732,-0.59371 -6.256094,-0.76586 -9.40821,-0.85576 -3.81635,0.009 -7.630525,0.17062 -11.44478,0.28216 -1.12776,0.0333 -2.255837,0.0512 -3.383772,0.0754 -0.908129,0.5548 -1.966518,0.57724 -2.88613,0.0641 -0.03584,5.3e-4 -0.07165,0.002 -0.107487,0.003 -0.03142,5.3e-4 -0.0525,-0.009 -0.08268,-0.009 -0.32049,0.14732 -0.641715,0.29301 -0.962215,0.44028 -0.262501,0.12062 -0.518089,0.22111 -0.770496,0.31265 -0.876996,0.71434 -1.945576,0.85817 -2.911967,0.46405 -2.943479,-0.21613 -4.295167,-2.77187 -2.550232,-5.0524 -2.22e-4,-0.028 -0.0078,-0.0483 -0.0078,-0.0765 v -6.3469 c -0.014,-2.72977 -0.02254,-5.45666 0.112657,-8.18348 0.135676,-2.32533 0.233519,-4.6523 0.299723,-6.98046 0.046,-1.80459 0.06926,-3.60958 0.08527,-5.41465 -0.0258,-1.02998 0.04009,-2.054459 0.138491,-3.078883 0.0044,-0.04602 0.02191,-0.07504 0.02687,-0.120406 C 15.992671,97.193438 15.83363,95.70984 16.656834,94.418959 10.68718,93.678613 10.992573,87.32947 17.739972,87.32947 h 3.885033 5.177462 5.913334 c 1.498505,0.05847 2.984222,-0.03228 4.475178,-0.161748 1.252041,-0.18606 2.49041,-0.398671 3.697968,-0.782897 1.001961,-0.32245 0.492366,-0.161472 1.527553,-0.482142 0.510384,-0.158096 0.938446,-0.174371 1.394749,-0.23771 0.672338,-1.56932 1.86623,-2.35903 3.063377,-2.35903 z" /></clipPath><clipPath
       clipPathUnits="userSpaceOnUse"
       id="clipPath139"><path
         id="path140"
         style="fill:#ff0000;fill-opacity:1;fill-rule:nonzero;stroke:none;stroke-width:0.264583"
         d="M 97.168006,-339.91235 V -44.578961 H 346.46958 V -339.91235 Z m 14.326254,94.53944 c 1.76488,0.006 3.77708,1.78446 4.35839,5.31699 0.32911,1.99994 0.60308,4.00817 0.88884,6.01462 1.02527,-1.2445 2.22305,-1.83589 3.28403,-1.8402 2.05627,-0.008 3.59454,2.17302 2.34611,6.00222 -0.0197,0.0606 -0.0413,0.12046 -0.0615,0.18087 0.31698,0.91799 0.41757,2.09982 0.17777,3.54139 -0.2164,1.30085 -0.62011,2.56457 -1.0263,3.8163 -1.34183,4.13496 -4.42238,4.92072 -6.12882,3.38016 -1.93867,0.62007 -4.30523,-0.86149 -4.65605,-4.82762 -0.16862,-1.90632 -0.33891,-3.81275 -0.57464,-5.71231 -0.45291,-3.52522 -1.07719,-7.02592 -1.48208,-10.55543 -0.40801,-3.55672 1.10935,-5.32303 2.87424,-5.31699 z" /></clipPath><clipPath
       clipPathUnits="userSpaceOnUse"
       id="clipPath170"><path
         id="path171"
         style="fill:#ff0000;fill-opacity:1;fill-rule:nonzero;stroke:none;stroke-width:0.264583"
         d="M 88.756261,-299.52331 V 17.880567 H 410.91541 V -299.52331 Z M 363.24287,-220.863 c 0.90345,-0.008 1.97628,0.23856 3.18532,0.82218 3.39402,1.63831 6.49674,3.81197 9.57823,5.96449 3.22509,2.31448 6.37511,4.73585 9.43663,7.26261 1.87296,1.50796 3.75989,2.99047 5.54284,4.6054 1.76167,1.54167 3.42262,3.17283 4.95419,4.94388 1.19316,1.48882 2.47049,2.9032 3.73311,4.33204 1.08043,1.20022 2.09423,2.45631 2.94299,3.83026 0.82616,1.73429 1.48968,3.55524 1.93786,5.42344 1.67031,6.96258 -5.76469,8.62686 -7.05745,1.5844 -0.21127,-1.15093 -0.75649,-2.20765 -1.10278,-3.32021 -0.52141,-1.02678 -1.43909,-1.82952 -2.14042,-2.72904 -1.28368,-1.45272 -2.58234,-2.89095 -3.79617,-4.40386 -1.32794,-1.55409 -2.79577,-2.95456 -4.33049,-4.3031 -1.69875,-1.54267 -3.51006,-2.94207 -5.29113,-4.38733 -2.90883,-2.40671 -5.90918,-4.70386 -8.97258,-6.91017 -2.63017,-1.83963 -5.2759,-3.68008 -8.12096,-5.17746 -5.14813,-2.7095 -4.41412,-7.50431 -0.49919,-7.53753 z m -17.79788,14.64304 c 0.81097,-0.004 1.74701,0.16947 2.79104,0.57154 4.59168,1.76834 8.99191,4.00303 13.38523,6.20892 0.37082,0.1876 0.72266,0.4088 1.09088,0.601 0.4155,-0.11565 0.91038,-0.17484 1.48572,-0.16691 0.65984,0.009 1.42523,0.10601 2.29753,0.30644 2.35556,0.54125 4.30075,1.95473 6.16344,3.42614 -1.07651,-2.72314 0.34142,-4.84679 2.57866,-4.84311 1.28683,0.002 2.83083,0.70484 4.29689,2.3952 2.44776,2.82227 4.79147,5.70892 6.96391,8.74934 1.67944,2.35043 1.72027,4.43615 0.89969,5.70663 1.5344,1.02281 3.07247,2.04019 4.58422,3.09645 1.80695,1.14136 3.31928,2.58833 4.72631,4.18269 0.96689,1.16625 2.0869,2.25988 2.79262,3.61942 0.19542,0.37651 0.34592,0.77482 0.51882,1.1622 0.40259,1.55462 0.27207,0.76263 0.38706,2.3766 0.0637,0.89436 -0.044,1.45412 -0.26977,1.7756 0.11753,0.20753 0.23421,0.41574 0.35608,0.62063 3.66003,6.15399 -2.6856,9.845 -6.25234,3.63648 -0.83209,-1.44832 -1.62388,-2.92102 -2.35437,-4.42351 -0.84839,-1.84687 -1.70402,-3.69055 -2.54093,-5.54229 -0.078,-0.17246 -0.14713,-0.34128 -0.2119,-0.5085 -0.415,-0.33988 -0.82071,-0.68775 -1.29707,-0.97255 -2.35545,-1.64933 -4.79565,-3.17384 -7.14841,-4.82761 -3.27895,-2.27743 -6.61384,-4.47194 -9.95804,-6.65231 -4.00886,-2.60003 -8.08797,-5.09434 -12.3548,-7.25434 -4.08429,-2.05175 -8.1752,-4.1242 -12.42663,-5.81101 -5.61546,-2.22804 -4.88331,-7.4129 -0.50384,-7.43314 z m -225.34594,21.50101 c 3.05551,-0.16929 4.03285,3.80875 0.35915,7.72563 -1.17612,1.25397 -2.32696,2.59265 -3.45922,3.90674 -1.44062,1.57315 -2.77631,3.23874 -4.13618,4.88135 -1.14319,1.4697 -2.29319,2.93265 -3.46335,4.38113 -0.8717,1.2084 -1.86054,2.32105 -2.81017,3.46594 -0.80685,0.95022 -1.53489,1.96075 -2.32234,2.92695 -0.80594,1.00684 -1.52017,2.08004 -2.22519,3.15847 -0.20511,0.28103 -0.29499,0.51935 -0.30179,0.78909 -0.18033,7.15787 -8.659963,5.5717 -7.093102,-1.4149 0.267098,-1.19094 0.644303,-2.32859 1.347721,-3.34243 0.846108,-1.28566 1.701136,-2.56663 2.670121,-3.76463 0.806525,-0.98525 1.5446,-2.0236 2.37453,-2.98999 0.93132,-1.109 1.88214,-2.2008 2.7342,-3.37448 1.18855,-1.47082 2.35327,-2.95822 3.51813,-4.44779 1.39067,-1.67946 2.758,-3.38112 4.2292,-4.99142 1.55862,-1.80675 3.07205,-3.68494 4.92528,-5.20227 1.38505,-1.13397 2.63451,-1.65096 3.65301,-1.70739 z m 30.4953,3.26389 c 4.11093,0.0973 5.25218,4.81763 -0.0434,7.22591 -1.93926,0.8819 -3.80509,1.88928 -5.66115,2.92437 0.381,1.39299 -0.23993,3.26566 -2.43035,4.98678 -2.3369,1.83618 -4.71607,3.61825 -7.08845,5.40845 -2.84267,2.19936 -5.66068,4.43162 -8.41086,6.74584 -2.22216,1.84972 -4.46469,3.67225 -6.66213,5.55109 -1.67979,1.46598 -3.37138,2.91821 -5.06067,4.37337 -1.40892,1.30469 -2.82191,2.592 -4.12274,4.00648 -1.07181,1.16531 -2.16701,1.83049 -3.17087,2.10529 -0.88357,6.53411 -7.65001,5.87099 -7.10344,-1.07177 0.0596,-0.75732 0.12015,-1.51435 0.21239,-2.26859 0.18237,-1.4495 0.31176,-2.90657 0.57051,-4.34444 0.56059,-2.2771 1.55106,-4.35314 3.32124,-5.95312 1.46716,-1.38711 2.94871,-2.75912 4.4943,-4.05919 1.45063,-1.21601 2.91967,-2.40825 4.4111,-3.57394 2.2284,-1.75259 4.48249,-3.46927 6.81044,-5.08961 3.1083,-2.16601 6.29001,-4.21936 9.5343,-6.17689 3.28252,-2.04598 6.49796,-4.19789 9.78648,-6.23476 2.38673,-1.38679 4.82146,-2.65715 7.33495,-3.79873 1.22236,-0.55516 2.32966,-0.77899 3.27836,-0.75654 z" /></clipPath><clipPath
       clipPathUnits="userSpaceOnUse"
       id="clipPath233"><path
         id="path234"
         style="fill:#ff0000;fill-opacity:1;fill-rule:nonzero;stroke:none;stroke-width:0.264583"
         d="M 185.24069,-319.24193 V -24.289387 H 425.09684 V -319.24193 Z m 138.35487,149.6534 c 1.78419,7.9e-4 3.63037,1.79012 3.80182,5.36608 0.0643,1.33996 -0.0719,2.65433 -0.29041,3.95842 0.27255,-0.0735 0.56767,-0.11689 0.88522,-0.12351 0.37047,-0.008 0.77026,0.0328 1.19579,0.12867 0.38629,-0.24279 0.8215,-0.42195 1.34254,-0.44493 1.13073,-0.0499 2.53823,0.47335 4.04474,1.80971 0.4186,0.37135 0.80759,0.77178 1.2056,1.16323 0.49581,-0.30652 1.09744,-0.47283 1.77559,-0.44028 1.18851,0.0571 2.59295,0.69888 3.98788,2.15129 2.63375,2.74227 4.82211,5.85047 6.92256,9.00669 2.43144,3.88376 4.79634,7.81591 6.98098,11.84475 1.13959,2.01485 2.36363,3.97199 3.24527,6.11746 0.86638,2.54168 0.71525,4.37292 -0.15348,6.88278 -0.88855,2.03627 -2.18951,3.83746 -3.64937,5.49682 -1.22616,1.21887 -2.44396,2.51198 -3.976,3.35587 -0.38219,0.21053 -0.79187,0.3659 -1.18803,0.54881 -6.50071,3.00135 -9.83602,-5.23462 -2.81948,-6.6611 1.07346,-0.21823 1.75532,-1.41088 2.56987,-2.0407 0.86323,-0.96375 1.62015,-2.00233 2.25208,-3.13417 0.24334,-0.63932 0.47847,-1.05078 0.24958,-1.76114 -0.42873,-1.13152 -1.03555,-2.17502 -1.65674,-3.21169 -0.64492,3.08426 -3.96214,3.78517 -6.03631,0.97152 -0.80928,1.85722 -3.53859,2.62684 -6.75775,0.30902 -0.53872,-0.38787 -1.07831,-0.77486 -1.61745,-1.1622 -3.08248,4.62545 -3.94671,5.04673 -6.74584,2.87063 -2.73204,-2.16473 -5.33615,-4.48821 -8.05999,-6.6642 -2.7461,-2.45053 -5.40757,-5.07957 -7.04763,-8.42635 -1.62115,-0.12575 -3.24178,-0.2569 -4.86637,-0.34314 -7.58719,-0.44787 -15.17743,-0.9445 -22.76553,-1.33377 -1.07801,-0.0553 -1.93227,-0.3045 -2.68459,-0.62166 -0.57677,0.62929 -1.1192,1.29485 -1.64021,1.97352 -1.38696,2.1585 -2.2854,4.54313 -3.09181,6.96185 -0.53658,1.90527 -0.93866,3.84574 -1.3658,5.77949 0.3976,-0.38181 0.79402,-0.76498 1.19114,-1.14825 1.44902,-1.39846 2.84121,-1.97983 3.98373,-1.97766 2.91995,0.006 4.20899,3.82009 0.64648,7.53391 -0.92629,0.96557 -1.9114,1.86859 -2.9099,2.75797 -1.78302,1.58814 -3.50499,2.03887 -4.81263,1.76372 -0.007,0.0412 -0.0189,0.0812 -0.0253,0.12247 -0.31138,2.1774 -0.34632,4.38158 -0.39739,6.57686 0.006,3.5147 -0.15426,7.02208 -0.44287,10.52391 -0.15049,2.45352 -0.52882,4.882887 -0.77928,7.326166 -0.25682,2.270699 -0.2357,4.548968 -0.1633,6.828007 0.0525,1.43787 0.0261,0.723201 0.0775,2.145088 7.9e-4,0.02175 -0.006,0.03573 -0.006,0.05736 0.13966,0.0486 0.27673,0.09115 0.42013,0.148309 3.73047,1.486969 7.59999,2.598727 11.41894,3.833876 4.85884,1.705695 9.66861,3.546912 14.50144,5.32474 1.9552,0.651698 3.84707,1.443672 5.71489,2.292366 2.6308,-0.638411 5.26049,-1.281708 7.89771,-1.893425 4.5737,-1.075436 2.35597,-0.547624 6.65438,-1.580782 0.65268,-0.156879 1.2592,-0.237268 1.81642,-0.252698 3.40876,-0.09437 4.96226,2.238663 4.05712,4.350639 3.89832,1.612736 3.00805,6.568553 -2.90269,6.729304 l -2.19726,0.05943 c 0.0932,0.05532 0.18872,0.106439 0.28112,0.163298 6.09814,3.752323 2.1299,10.065517 -3.84782,6.124173 -1.04591,-0.689594 -2.23735,-1.127543 -3.31556,-1.763197 -2.61015,-1.251701 -5.22853,-2.484003 -7.87136,-3.665926 -0.34703,-0.170111 -0.69536,-0.335955 -1.04283,-0.504362 -1.04394,0.228952 -2.09238,0.441277 -3.15071,0.537951 -0.41145,0.100483 -0.82417,0.195434 -1.23558,0.296105 -3.95687,0.968251 -6.08679,-0.907356 -5.97897,-3.010669 -0.31188,-0.687727 -0.239,-1.395294 0.0263,-2.059305 -3.87146,-1.438614 -7.73769,-2.891312 -11.63237,-4.265891 -3.97417,-1.285444 -7.99945,-2.446282 -11.87938,-4.000272 -1.44639,-0.579335 -2.44377,-1.350957 -3.06182,-2.17506 -1.01218,-0.798706 -1.81304,-2.231819 -1.89446,-4.484998 -0.0517,-1.431189 -0.0254,-0.705106 -0.0791,-2.177645 -0.0816,-2.602558 -0.0903,-5.205841 0.19844,-7.79849 0.24823,-2.394268 0.6146,-4.775082 0.76533,-7.179412 0.27808,-3.36008 0.42763,-6.72542 0.42064,-10.09809 0.0594,-2.5132 0.11189,-5.03614 0.48266,-7.52719 0.38072,-2.41928 0.90466,-4.80615 1.46451,-7.18974 0.6701,-2.94551 1.25825,-5.91529 2.11305,-8.81393 1.0668,-3.18776 2.31041,-6.31647 4.23489,-9.10074 0.42128,-0.53977 0.8547,-1.07136 1.29914,-1.59215 -1.52816,-0.60355 -3.06641,-1.18197 -4.57646,-1.83141 -1.09038,3.76762 -2.19021,7.53001 -3.40755,11.25926 -1.05961,2.97655 -0.54118,1.54568 -1.55081,4.2938 -1.83358,4.9908 -6.03644,4.88509 -7.07398,1.75544 -2.82634,3.52841 -7.50378,1.0111 -5.57744,-4.75268 1.05408,-3.1537 2.2385,-6.34595 4.49688,-8.85837 1.49582,-1.66408 2.97572,-2.34765 4.17287,-2.32647 0.33252,0.006 0.64298,0.0664 0.92604,0.17518 0.46945,-1.58214 0.96416,-3.15651 1.43919,-4.7377 0.70062,-2.33196 1.93737,-3.52641 3.18689,-3.8871 0.54142,-0.34307 1.25019,-0.55529 2.11615,-0.57361 h 5.3e-4 c 0.8057,-0.017 1.74503,0.13149 2.80396,0.49248 0.31645,0.10788 0.63769,0.20324 0.94929,0.32401 1.83624,0.71133 3.60046,1.59642 5.43016,2.32544 1.18096,0.47048 2.26953,0.84228 3.35329,1.23145 0.62902,-0.20883 1.22424,-0.32846 1.76785,-0.35037 2.28614,-0.0921 3.73455,1.32842 3.67523,3.07682 1.73917,0.0925 3.47854,0.18832 5.21777,0.2899 -0.1345,-1.7899 1.43141,-3.54652 4.54959,-3.56619 0.39587,-0.002 0.816,0.0231 1.25987,0.0801 3.99155,0.51285 7.97638,1.04608 11.94346,1.72703 0.35092,0.0747 0.7018,0.14913 1.05265,0.22376 0.92028,-2.09088 2.0607,-3.80586 3.79408,-5.38675 0.9172,-0.8245 1.6747,-1.80494 2.07378,-2.98587 0.46483,-1.35061 0.4893,-2.77914 0.4594,-4.19561 h 5.3e-4 c -0.0754,-3.57927 1.64663,-5.36691 3.4308,-5.36608 z m 1.97559,14.00741 c -0.78838,1.39934 -1.79816,2.66075 -2.96984,3.79512 -1.06213,0.94584 -1.80404,2.02586 -2.28153,3.3538 -0.003,0.012 -0.005,0.0237 -0.009,0.0357 1.15411,0.11311 2.30814,0.22665 3.4613,0.3514 3.99042,0.43171 5.40747,2.84663 4.69323,4.76353 0.67585,0.41545 1.35041,0.83313 2.01954,1.25626 3.82278,2.5036 7.53266,5.1715 11.24013,7.84086 -1.81731,-3.68096 -3.93583,-7.19476 -6.36087,-10.5146 -1.10355,-1.48555 -2.20805,-3.00054 -3.36206,-4.44883 -0.35653,-0.44747 -1.7607,-2.16704 -2.34455,-2.70784 -0.36042,-0.33384 -0.93237,-0.68033 -1.36375,-0.9555 -1.33122,-0.84918 -2.21667,-1.81673 -2.72282,-2.76986 z" /></clipPath><clipPath
       clipPathUnits="userSpaceOnUse"
       id="clipPath240"><path
         id="path241"
         style="fill:#ff0000;fill-opacity:1;fill-rule:nonzero;stroke:none;stroke-width:0.264583"
         d="M 92.804184,-309.23338 V -41.629034 H 294.29938 V -309.23338 Z m 130.496946,63.74443 c 0.93337,0.009 2.02072,0.27397 3.21944,0.8785 1.75312,0.88412 3.43212,1.89553 5.06326,2.98586 5.9527,3.97906 1.8926,10.01797 -4.03542,6.00222 -1.36849,-0.92705 -2.78857,-1.76849 -4.26227,-2.51871 -5.18448,-2.63926 -4.02961,-7.38891 0.015,-7.34787 z m -85.24544,1.99626 c 3.36772,-0.0906 4.87054,3.93317 0.67437,7.28431 -0.81214,0.6486 -0.42273,0.34746 -1.1653,0.9064 -1.7275,1.42217 -3.47209,2.82263 -5.29477,4.12275 -2.09112,1.47372 -4.25636,2.82668 -6.45645,4.13153 -6.15846,3.65253 -10.39165,-1.95967 -4.33979,-5.78621 2.21999,-1.40367 4.47897,-2.73503 6.6244,-4.25349 1.67688,-1.19734 3.27994,-2.48915 4.86947,-3.79821 0.91499,-0.69918 0.50268,-0.37435 1.24076,-0.9679 1.39493,-1.12177 2.72473,-1.60899 3.84731,-1.63918 z" /></clipPath><clipPath
       clipPathUnits="userSpaceOnUse"
       id="clipPath251"><path
         id="path252"
         style="fill:#ff0000;fill-opacity:1;fill-rule:nonzero;stroke:none;stroke-width:0.264583"
         d="m 50.06164,-325.07443 v 245.270816 h 202.0347 V -325.07443 Z m 191.06172,72.239 c 1.42195,-0.0396 3.11835,0.92332 4.44418,3.2582 0.80855,1.42391 1.33311,2.97097 1.71979,4.55476 0.38267,1.85761 0.50306,3.75527 0.49506,5.64772 0.007,1.66837 -0.28067,3.30966 -0.52503,4.95318 -0.26767,2.07853 -1.32063,3.82386 -2.54249,5.47306 -0.98598,1.19805 -2.03839,2.33999 -3.16208,3.40961 -0.37488,0.32054 -0.76867,0.61405 -1.09502,0.98443 -4.73356,5.37222 -10.25077,0.0313 -5.19193,-5.03587 0.41783,-0.41852 0.82603,-0.84961 1.30896,-1.19579 0.83199,-0.78568 1.60086,-1.63171 2.34973,-2.49649 0.52191,-0.686 1.06794,-1.32103 1.17874,-2.204 0.19629,-1.31742 0.44949,-2.62948 0.44648,-3.9672 0.0288,-1.3072 -0.0809,-2.61845 -0.30179,-3.90725 -0.20137,-0.91522 -0.51051,-1.80281 -0.96014,-2.62775 -2.14172,-3.92928 -0.53435,-6.78057 1.83554,-6.84661 z m -24.00732,134.01508 c 1.58088,-0.0452 3.27238,1.29937 3.90106,4.36821 0.19779,0.96552 0.49313,1.88927 0.87385,2.79466 0.57738,1.31117 0.86222,2.69631 0.9741,4.11603 0.0779,1.63421 -0.38657,3.16522 -1.00976,4.65191 -0.60784,1.37091 -1.55916,2.5173 -2.50579,3.660755 -0.2566,0.333243 -0.50348,0.67224 -0.76223,1.002525 -0.0721,0.651052 -0.19323,1.300012 -0.35502,1.949752 l -0.4842,1.22783 c -0.70346,1.782932 -1.87803,2.754204 -3.12126,3.127457 -0.38818,0.593834 -0.73665,1.213207 -1.1529,1.788007 -0.78123,1.206815 -1.75001,2.262322 -2.80138,3.23546 -1.04259,0.90742 -2.26203,1.551003 -3.47214,2.198833 -0.81145,0.41652 -1.66264,0.737227 -2.52439,1.030428 -6.77856,2.306214 -9.10653,-4.670343 -2.28979,-6.86108 0.48258,-0.155091 0.95367,-0.335381 1.41232,-0.552421 0.68902,-0.364839 1.38726,-0.713642 2.01745,-1.175639 0.71797,-0.616461 1.30017,-1.358352 1.82004,-2.146123 0.66383,-0.892056 1.26802,-1.828112 1.8216,-2.792076 0.59882,-1.12436 1.07283,-2.316203 1.82056,-3.358968 0.0117,-0.0166 0.0249,-0.032 0.0367,-0.0486 -0.84786,-3.67928 0.87949,-5.67892 2.87217,-5.69422 0.38363,-0.003 0.77643,0.0723 1.16324,0.21859 0.15519,-0.3579 0.298,-0.71847 0.29042,-1.1188 -0.0398,-0.54898 -0.18359,-1.13581 -0.4191,-1.66191 -0.48947,-1.16893 -0.89792,-2.36312 -1.1591,-3.60547 -0.82863,-3.94139 1.021,-6.29698 3.05356,-6.35516 z" /></clipPath><clipPath
       clipPathUnits="userSpaceOnUse"
       id="clipPath278"><path
         id="path279"
         style="fill:#ff0000;fill-opacity:1;fill-rule:nonzero;stroke:none;stroke-width:0.264583"
         d="m -43.212488,-382.05292 v 250.81001 H 185.4025 v -250.81001 z m 181.494868,132.88233 c 1.13528,0.005 2.03811,0.42617 2.60707,1.09037 0.91934,-0.34123 1.78192,-0.54125 2.52078,-0.52658 4.05205,0.0805 5.08945,4.87108 -0.18087,7.33443 -2.21042,1.03317 -4.41856,2.08163 -6.72362,2.89285 -2.86091,0.99315 -5.74924,1.921 -8.52506,3.13986 -6.55592,2.87873 -9.40434,-3.76713 -2.84944,-6.64817 1.1011,-0.48395 2.22936,-0.89759 3.35587,-1.31568 0.52294,-1.00077 1.47788,-2.01475 2.95124,-2.87476 1.0894,-0.6359 2.16914,-1.287 3.24683,-1.94252 1.33817,-0.81396 2.56345,-1.15421 3.5972,-1.1498 z m -133.0900695,2.4753 h 5.5981075 c 7.160125,0 7.160125,7.23263 0,7.23263 H 5.1923105 c -7.1601277,0 -7.1601277,-7.23263 0,-7.23263 z m 42.9880715,50.84496 c 2.044401,-0.008 3.844292,2.25841 2.953308,6.18618 -0.283588,1.25017 -0.481169,2.51568 -0.75189,3.76877 -0.313965,1.46608 -0.73946,2.91235 -1.207162,4.33668 -2.233805,6.80278 -9.211228,4.46329 -6.857981,-2.29908 0.404762,-1.16313 0.726765,-2.36525 0.995807,-3.56619 0.287499,-1.32813 0.484814,-2.67249 0.804084,-3.99407 0.735603,-3.04497 2.473746,-4.42641 4.063834,-4.43229 z m 26.844358,9.60148 c 1.5451,0.0844 3.630816,1.85281 5.237924,5.05189 1.446292,2.8789 3.498345,5.40261 5.377447,8.00674 1.423178,1.86933 2.496352,3.93269 3.488161,6.04873 3.038795,6.48323 -3.64554,9.55837 -6.57066,3.02307 -0.764304,-1.70766 -1.644017,-3.34338 -2.782776,-4.84001 -2.279812,-3.15977 -5.466628,-6.83969 -6.494177,-10.63656 -0.141171,-0.52168 -0.167447,-1.06805 -0.251148,-1.60197 -0.554762,-3.53682 0.450099,-5.13633 1.995229,-5.05189 z m 22.433772,2.07998 v 5.3e-4 c 1.081786,0.0173 2.458693,0.64291 3.986318,2.0805 1.21595,1.14421 2.08888,2.57763 3.1502,3.85661 0.75663,0.91352 1.6619,1.66584 2.53163,2.46393 1.1475,0.93011 2.05703,2.06162 2.85305,3.29799 0.95863,1.59903 1.44035,3.34615 0.97049,5.20227 -0.10236,0.40431 -0.31771,0.77135 -0.47646,1.15703 -1.02548,2.49132 -2.04203,1.65641 -2.97036,0.0238 -2.04159,1.70549 -5.47708,1.09344 -5.78105,-3.28558 -0.003,-0.0322 -0.0142,-0.0648 -0.007,-0.0966 0.005,-0.03 0.0986,-0.0136 0.0827,-0.0393 -0.23736,-0.38486 -0.69492,-0.61714 -1.02216,-0.90227 -1.100378,-0.77725 -2.267905,-1.45106 -3.395141,-2.18798 -3.582773,-2.34245 -3.744537,-5.4822 -2.015898,-6.82284 -0.840523,-2.68156 0.04882,-4.63231 1.88154,-4.74287 0.06945,-0.004 0.140271,-0.006 0.212389,-0.005 z" /></clipPath><clipPath
       clipPathUnits="userSpaceOnUse"
       id="clipPath292"><path
         id="path293"
         style="fill:#ff0000;fill-opacity:1;fill-rule:nonzero;stroke:none;stroke-width:0.264583"
         d="M 39.169506,-337.89832 V -50.969072 H 288.46282 V -337.89832 Z m 15.676046,82.89261 c 1.714024,0.0204 3.54041,1.61061 3.978568,4.9382 0.120111,0.91222 0.106387,1.83456 0.107487,2.75229 0.0087,7.16012 -7.246413,7.15857 -7.232633,-0.002 0.0013,-0.65071 0.02757,-1.30512 -0.06356,-1.95182 -0.530767,-3.76661 1.267578,-5.76019 3.21014,-5.73712 z m 197.013298,6.80941 c 1.32993,-0.0899 2.96772,0.82319 4.38423,3.1042 1.07429,1.72993 1.55184,3.70118 1.89652,5.68338 0.39598,2.58761 0.42018,5.20011 0.26717,7.80675 -0.16631,2.61527 -0.75971,5.14416 -1.52187,7.63985 -0.4978,1.90614 -1.23662,3.72608 -2.0159,5.52989 -0.76243,1.81488 -1.37928,3.68664 -2.00143,5.55315 -0.64972,1.87676 -1.26002,3.76819 -2.01124,5.60741 -0.95415,2.1244 -1.9321,4.237 -2.90784,6.35155 -0.93622,2.10591 -1.93956,4.18102 -3.03444,6.20893 -0.74336,1.47932 -1.63431,2.88203 -2.64686,4.19044 -0.85071,1.10794 -1.91984,2.00805 -2.89078,3.00343 -1.04445,1.12516 -2.20219,2.13025 -3.34605,3.1502 -1.2349,1.05182 -2.56579,1.98944 -3.91811,2.88354 -1.93444,1.28303 -4.12655,2.08437 -6.28747,2.89285 -2.75914,1.06536 -5.6224,1.79172 -8.50439,2.42982 -2.00852,0.48359 -4.02259,0.93996 -6.05234,1.32499 -1.0898,0.20672 -1.99053,0.15992 -2.79725,0.0139 -0.75827,0.17949 -1.51301,0.3744 -2.26653,0.57309 -1.4977,0.44017 -2.97995,0.92699 -4.46019,1.42214 -1.58834,0.5581 -3.19109,1.04834 -4.83381,1.42213 -2.05853,0.5373 -4.13223,0.98734 -6.23425,1.31724 -1.89057,0.38525 -3.79586,0.65788 -5.71696,0.82837 -1.92552,0.0766 -3.83858,0.29911 -5.75676,0.47025 -1.71912,0.15432 -3.44381,0.22701 -5.16867,0.27441 -2.44184,-0.0118 -4.87127,-0.25567 -7.30085,-0.47078 -2.85973,-0.19225 -5.71909,-0.39592 -8.57157,-0.67799 -2.83995,-0.26841 -5.65359,-0.74864 -8.47907,-1.13016 -2.66463,-0.21934 -5.29981,-0.64608 -7.94267,-1.03457 -2.11987,-0.30404 -4.25541,-0.45909 -6.38152,-0.71055 -1.8808,-0.17534 -3.75496,-0.4017 -5.63118,-0.61856 -1.91243,-0.21286 -3.83573,-0.28885 -5.75779,-0.34985 -2.23949,-0.16259 -4.48445,-0.27106 -6.71949,-0.48783 -2.21917,-0.20648 -4.40762,-0.67897 -6.54068,-1.31516 -2.57048,-0.65769 -4.88262,-1.9917 -7.25382,-3.13883 -1.91366,-0.89121 -3.846978,-1.74009 -5.755724,-2.6417 -1.929913,-0.93683 -3.722034,-2.11514 -5.521108,-3.27525 -1.492637,-0.90475 -0.734285,-0.44535 -2.275314,-1.37821 -6.125257,-3.70793 -2.379728,-9.89571 3.745508,-6.18774 1.606161,0.9723 0.789586,0.47683 2.449462,1.48725 1.534261,0.98943 3.055983,2.00536 4.695836,2.81636 1.92633,0.91375 3.8825,1.76312 5.81257,2.66909 2.03397,0.98503 4.0062,2.16157 6.20944,2.72955 1.67042,0.52508 3.40555,0.86136 5.14697,1.03715 2.07333,0.21111 4.15957,0.28906 6.23683,0.4563 2.12341,0.0679 4.24789,0.15641 6.36033,0.39429 1.88182,0.21873 3.76122,0.44337 5.64772,0.62012 2.19401,0.25968 4.39889,0.41632 6.58565,0.73794 2.61501,0.3856 5.2221,0.80551 7.85895,1.02267 2.74095,0.37156 5.47017,0.83558 8.22482,1.1002 2.82609,0.28319 5.66087,0.47505 8.49405,0.67076 2.15225,0.19062 4.3024,0.40925 6.46472,0.44545 1.57684,-0.0428 3.1537,-0.10777 4.7253,-0.24857 1.92194,-0.17061 3.8389,-0.3955 5.76812,-0.4718 1.7606,-0.15093 3.50197,-0.42258 5.23482,-0.76946 1.94524,-0.29972 3.85736,-0.73584 5.76244,-1.22784 1.40538,-0.30937 2.76609,-0.74989 4.12327,-1.22421 1.62869,-0.54468 3.26081,-1.07909 4.91081,-1.5565 1.77362,-0.46766 3.552,-0.92735 5.36814,-1.20147 1.70238,-0.33298 3.38762,-0.74982 5.05034,-1.24437 1.8768,-0.51034 3.73395,-1.11665 5.54695,-1.81953 1.67544,-0.67931 3.31988,-1.45879 4.78886,-2.52439 1.0657,-0.84543 2.16725,-1.64342 3.15019,-2.58951 1.28809,-1.21508 2.58622,-2.41928 3.84008,-3.67058 0.85194,-0.84614 1.68746,-1.65828 2.24585,-2.7404 0.63482,-0.99725 1.29901,-1.9775 1.85674,-3.02152 0.55263,-0.92785 1.06197,-1.877 1.53479,-2.8484 0.43455,-0.81257 0.86675,-1.63643 1.16427,-2.50993 0.39723,-1.087 0.65435,-2.21493 0.97203,-3.32641 0.29574,-1.24569 0.60338,-2.49273 1.07901,-3.68453 0.39957,-1.05638 0.68712,-2.15558 1.05006,-3.22512 0.22713,-0.94997 0.37986,-1.92387 0.55966,-2.88303 0.22526,-1.23853 0.53664,-2.45701 1.02371,-3.62149 0.47591,-1.31864 1.08044,-2.58627 1.7048,-3.84007 0.34111,-0.58794 0.67316,-1.19257 0.96067,-1.80041 0.32682,-0.71346 -0.0659,-2.40019 0.0822,-3.22151 v -4.23178 c 0,-3.58007 1.80812,-5.37022 3.61632,-5.37022 0.15156,0 0.30168,0.0312 0.45217,0.0563 -0.0649,-0.17178 -0.10183,-0.35173 -0.18242,-0.51883 -1.94402,-4.03078 -0.58254,-6.96655 1.63401,-7.11636 z" /></clipPath></defs><g
     id="layer1"
     transform="translate(164.16456,402.01208)"><path
       style="fill:#000000"
       d="m -84.438335,-122.13281 c -5.78933,-0.47229 -10.4901,-2.44862 -14.27644,-6.00219 -4.203295,-3.94488 -5.985945,-8.13544 -7.072825,-16.62634 -0.20757,-1.62155 -0.2874,-1.71946 -2.22122,-2.72409 -1.10324,-0.57315 -2.40278,-1.29718 -2.88785,-1.60897 -0.84515,-0.54324 -0.97024,-0.5137 -2.99861,0.70813 -2.94864,1.77617 -5.02018,2.30868 -8.97166,2.30624 -11.60123,-0.007 -22.19918,-4.53874 -28.21464,-12.06434 -6.26888,-7.84264 -7.75622,-17.70674 -4.25095,-28.19251 4.6786,-13.99572 13.80006,-28.77033 26.83669,-43.4691 2.20948,-2.49118 4.55276,-5.14908 5.2073,-5.90643 l 1.19007,-1.37701 -0.63178,-2.38384 c -1.60485,-6.05546 -0.76463,-20.02289 1.47338,-24.49287 0.47021,-0.93914 0.46261,-0.94732 -2.22822,-2.39873 -1.48502,-0.80101 -3.31498,-1.94343 -4.06657,-2.5387 l -1.36654,-1.08232 -2.04932,0.91967 c -5.97833,2.68292 -14.11998,1.54042 -20.97111,-2.94281 -3.53238,-2.31152 -7.49299,-6.63641 -9.29373,-10.14852 -4.82759,-9.41563 -3.60017,-21.36102 2.98949,-29.09402 2.21379,-2.59789 4.59495,-4.60609 7.12032,-6.00505 l 2.07702,-1.15058 0.20508,-2.99996 c 0.83138,-12.16164 2.96092,-22.39047 6.54648,-31.4448 6.53735,-16.50821 19.75871,-30.54941 36.1598,-38.40202 16.567655,-7.93236 37.927325,-11.62657 61.206945,-10.5859 35.1493498,1.57129 58.57371,13.04421 73.4635,35.98139 5.4009,8.31989 9.80643,20.52387 10.86482,30.09719 0.70356,6.36374 0.34317,5.63938 3.61147,7.25902 6.74337,3.34177 11.69583,9.42857 13.72643,16.87041 1.07652,3.94527 1.06839,11.45046 -0.0167,15.44698 -0.98856,3.64088 -2.69852,7.20027 -4.78179,9.95359 -6.65131,8.79062 -16.47739,12.38118 -26.18879,9.56969 l -1.46412,-0.42387 -2.41643,2.22129 c -2.71818,2.49866 -5.41159,4.41576 -8.14907,5.80029 -1.01865,0.5152 -1.85208,1.07262 -1.85208,1.23872 0,0.16609 0.30685,0.99686 0.6819,1.84614 0.99802,2.25998 2.12672,8.24457 2.37246,12.57923 0.25541,4.50536 -0.28282,9.09229 -1.48983,12.69665 -0.47244,1.41079 -0.85898,2.76142 -0.85898,3.00142 0,0.23999 1.83873,2.65758 4.08607,5.37243 13.06843,15.78704 20.82399,26.89327 26.25751,37.60165 5.59655,11.02967 6.77818,18.51409 4.19975,26.60109 -1.33287,4.18042 -3.10152,7.13219 -6.284,10.48763 -7.47557,7.88183 -16.68682,11.56847 -27.76831,11.11377 -4.3664702,-0.17917 -6.3253302,-0.84055 -9.3349802,-3.15184 l -1.61201,-1.23796 -1.21020995,0.95816 c -0.66561,0.52699 -1.92458005,1.35055 -2.79771005,1.83012 l -1.5875,0.87196 -0.27081,2.79325 c -0.36859,3.80164 -1.42475,7.85403 -2.74696,10.53981 -2.30689,4.68596 -7.2741298,8.82223 -12.8111798,10.668 -2.67096,0.89036 -3.29295,0.95724 -9.04188,0.97217 -5.86343,0.0152 -6.31814,-0.0336 -9.05035,-0.97185 -3.41115,-1.17142 -5.60207,-2.5498 -7.52477,-4.73411 -2.24943,-2.55549 -3.32666,-5.20622 -4.45245,-10.95613 -0.15612,-0.79742 -0.19398,-0.80243 -5.32842,-0.70555 l -5.17119,0.0976 -0.42323,2.46945 c -1.84168,10.74556 -10.43576,16.06738 -24.14125,14.9493 z m 62.00384,-7.91839 c 4.49541,-1.00949 7.71287,-3.52588 9.50037,-7.43029 0.87903,-1.92006 1.83911,-6.27906 1.46531,-6.65286 -0.10726,-0.10726 -2.42279,0.352 -5.14561,1.02057 -2.72283,0.66857 -6.67491,1.46562 -8.78239,1.77122 -3.6004,0.52209 -14.24719,1.61461 -15.73455,1.61461 -0.57555,0 -0.64259,0.1717 -0.44766,1.14653 1.12418,5.62209 3.87939,8.35904 9.1415,9.08093 2.62211,0.35971 7.02922,0.11708 10.00303,-0.55071 z m -51.04957,-0.44625 c 2.04534,-0.79594 3.76873,-2.31722 4.66194,-4.11522 0.43246,-0.87052 1.31712,-4.22989 1.31712,-5.00157 0,-0.11238 -1.74234,-0.13255 -3.87188,-0.0448 -2.16606,0.0892 -3.91895,0.0183 -3.97872,-0.16099 -0.0588,-0.17628 -2.32485,-0.54754 -5.03576,-0.82503 -5.70094,-0.58354 -9.43771,-1.23149 -14.12404,-2.44911 -1.83552,-0.4769 -3.50802,-0.8671 -3.71668,-0.8671 -0.59485,0 -0.0297,2.66159 1.19859,5.64444 1.83317,4.45192 5.52173,7.45054 10.37673,8.43581 0.9291,0.18855 3.83239,0.29847 6.45176,0.24426 3.87897,-0.0803 5.12583,-0.23994 6.72094,-0.86068 z m 15.72177,-17.96175 c -0.12475,-0.92163 -0.32777,-4.34657 -0.45116,-7.61098 l -0.22433,-5.9353 1.19903,0.11446 1.19903,0.11446 0.0808,2.46945 c 0.12512,3.82242 0.78378,10.10501 1.19276,11.37708 l 0.36863,1.14653 h 3.6458 3.6458 l 0.26262,-1.49931 c 0.14444,-0.82462 0.24584,-4.2472 0.22535,-7.60573 l -0.0373,-6.10643 1.12077,0.10921 c 1.02648,0.10002 1.14478,0.24276 1.40615,1.6967 0.15696,0.87313 0.23985,4.16561 0.1842,7.31663 -0.0823,4.66152 -0.009,5.76447 0.39414,5.91881 0.48771,0.18677 4.77005,-0.0525 6.99141,-0.39069 0.98662,-0.15019 1.19044,-0.36918 1.54334,-1.6582 0.77656,-2.83652 -0.29258,-14.40821 -1.43694,-15.55257 -0.41256,-0.41256 -7.44636,-0.31022 -7.88412,0.1147 -0.16004,0.15535 -2.71675,0.20093 -5.68157,0.10129 -3.82683,-0.12861 -5.46262,-0.0646 -5.63887,0.22054 -0.30547,0.49426 -3.02885,0.53826 -3.02885,0.0489 0,-0.21479 -1.59119,-0.35278 -4.06802,-0.35278 -3.29058,0 -4.10682,0.10113 -4.27108,0.52917 -0.29193,0.76077 -2.06384,0.66124 -2.64218,-0.14842 -0.41059,-0.57482 -1.01601,-0.6952 -3.99178,-0.79375 l -3.50779,-0.11617 -0.52939,1.5875 c -0.70816,2.12362 -0.70443,12.23063 0.005,14.2875 0.44831,1.29932 0.61255,1.43 2.07301,1.64955 0.87236,0.13114 2.65464,0.2502 3.96062,0.26458 l 2.3745,0.0261 -0.25784,-1.67569 c -0.14181,-0.92164 -0.25783,-4.2157 -0.25783,-7.32014 v -5.64445 l 1.14653,-0.11054 1.14652,-0.11055 0.003,4.52027 c 0.003,5.00629 0.47194,8.69083 1.26013,9.90013 0.48744,0.74784 0.75418,0.79375 4.61205,0.79375 h 4.09469 z m -22.74451,-0.10914 c -0.069,-0.27952 -0.29214,-2.30614 -0.49591,-4.5036 -0.3495,-3.769 -0.0487,-9.23547 0.63672,-11.57025 0.25237,-0.85971 -0.24535,-1.00448 -4.81207,-1.39969 l -2.68001,-0.23193 -0.42748,1.54307 c -0.64489,2.32784 -0.92177,11.28175 -0.41841,13.53098 0.49067,2.19257 0.94737,2.47476 4.7948,2.96266 3.00355,0.38088 3.56462,0.32626 3.40236,-0.33124 z m 53.57124,0.22127 c 4.89267,-0.80427 4.82095,-0.77013 5.25724,-2.50281 1.06706,-4.23764 -0.28892,-15.67583 -1.86045,-15.6937 -0.219,-0.002 -2.51727,0.26713 -5.10728,0.59916 l -4.70911,0.60368 0.21521,1.25293 c 0.77509,4.5126 1.01461,7.11304 1.04954,11.39498 l 0.0396,4.8504 1.05833,-0.006 c 0.58208,-0.003 2.40771,-0.22768 4.05694,-0.49878 z m -64.55832,-1.97258 c -0.42327,-1.2497 -0.0763,-12.21585 0.44621,-14.10274 0.2955,-1.06715 0.42791,-2.05856 0.29422,-2.20312 -0.39987,-0.43241 -6.78824,-1.41574 -7.10332,-1.09337 -0.16014,0.16383 -0.62454,1.56788 -1.03199,3.1201 -0.82526,3.14384 -1.02344,9.37736 -0.37474,11.78647 0.4116,1.52857 0.5767,1.63083 4.06545,2.5179 2.88136,0.73263 3.95837,0.7253 3.70417,-0.0252 z m 77.2268,-0.71001 c 4.12854,-1.114 4.6730498,-1.66889 4.8854498,-4.97865 0.3298,-5.139 -1.3342598,-13.00019 -2.7518898,-13.00019 -0.67768,0 -7.7242,1.7117 -8.16857,1.98427 -0.13514,0.0829 -0.0204,0.78915 0.25486,1.56948 0.93716,2.65619 1.67966,9.10035 1.4309,12.41877 l -0.2321,3.09613 0.827,-0.14996 c 0.45486,-0.0825 2.14431,-0.50542 3.75435,-0.93985 z m -87.603125,-2.36842 c -0.77412,-3.72109 -0.34854,-10.4497 0.85388,-13.50027 0.66056,-1.67584 0.66553,-1.79248 0.085,-1.99265 -0.33917,-0.11693 -1.28447,-0.49673 -2.10066,-0.84399 -1.78946,-0.76136 -1.57951,-1.19189 -2.55589,5.24115 -0.3916,2.58008 -0.96137,5.65342 -1.26616,6.82965 -0.52132,2.01183 -0.5164,2.18035 0.0829,2.84316 0.78081,0.86359 3.57654,2.35424 4.45743,2.37666 0.51998,0.0132 0.60617,-0.17209 0.44357,-0.95371 z m -1.97091,-8.20209 c 0,-0.19403 0.16812,-0.35278 0.3736,-0.35278 0.20548,0 0.27549,0.15875 0.15557,0.35278 -0.11991,0.19403 -0.28803,0.35278 -0.3736,0.35278 -0.0856,0 -0.15557,-0.15875 -0.15557,-0.35278 z m -14.20282,7.9819 c 1.77977,-0.92589 2.53362,-2.10986 3.3472,-5.25705 0.56599,-2.18946 0.68153,-3.16228 0.40806,-3.43576 -0.20983,-0.20982 -1.62983,-0.68599 -3.15556,-1.05814 -3.08043,-0.75138 -3.23751,-0.68483 -3.26606,1.38385 -0.0234,1.6993 -1.23512,4.88674 -2.54505,6.69504 -0.57578,0.79484 -1.04687,1.51537 -1.04687,1.60118 0,0.0858 0.43656,0.20624 0.97014,0.26763 2.81002,0.32333 4.40231,0.26409 5.28814,-0.19675 z m 133.247045,-0.19122 c 0.10987,-0.17777 -0.33868,-1.24933 -0.99679,-2.38125 -1.00149,-1.72254 -2.41065,-5.09363 -3.17022,-7.58402 -0.16254,-0.53291 -0.4266,-0.50849 -2.8610202,0.26458 -1.47508,0.46842 -3.00603,0.85168 -3.40211,0.85168 -0.62821,0 -0.68845,0.14637 -0.47189,1.14653 0.7464,3.44711 2.20604,5.83318 4.20389,6.8721 1.6395402,0.8526 6.3253902,1.43351 6.6981402,0.83038 z m -141.938645,-1.17609 c 1.84671,-2.00753 3.24411,-5.29775 3.2819,-7.72736 l 0.0334,-2.1451 -3.35139,-1.13686 c -1.84326,-0.62527 -4.60152,-1.71787 -6.12946,-2.428 -1.52794,-0.71014 -2.9687,-1.29116 -3.2017,-1.29116 -1.18878,0 -3.18518,3.53221 -3.88391,6.87174 -0.74739,3.57216 -0.23399,4.8982 2.42104,6.25324 2.00449,1.02303 3.96371,1.68455 6.5607,2.21519 3.18747,0.65129 3.09552,0.66446 4.26945,-0.61169 z m -3.42842,-2.88981 c -0.346,-0.90166 0.0226,-1.74716 1.00107,-2.29637 0.70524,-0.39584 1.0586,-0.4327 1.35044,-0.14086 0.6976,0.6976 -0.82706,2.94579 -1.99775,2.94579 -0.0872,0 -0.24643,-0.22886 -0.35376,-0.50856 z m 125.8943648,2.76231 c 0.88252,-0.56881 1.3221,-1.11523 1.32045,-1.6414 -0.004,-1.21549 -1.24405,-6.11349 -2.64656,-10.45189 -1.28812,-3.98455 -1.64993,-4.42495 -2.95592,-3.59789 -0.41101,0.26028 -0.37049,0.75534 0.25221,3.0814 0.97277,3.63373 1.59421,8.91894 1.37453,11.69011 -0.1691,2.13314 -0.14747,2.20772 0.57836,1.99417 0.41471,-0.12202 1.34933,-0.60555 2.07693,-1.0745 z m 27.4064202,0.19809 c 3.10589,-0.86069 6.02572,-2.18999 6.87735,-3.13102 1.73787,-1.92032 -2.24877,-12.37818 -4.71644,-12.37228 -0.30324,7.2e-4 -1.10698,0.34553 -1.78608,0.76624 -0.67909,0.42071 -3.13972,1.59823 -5.46805,2.61671 -4.84152,2.11781 -4.76648,1.9841 -3.23766,5.76906 1.32072,3.26977 3.06151,5.92686 4.2755,6.52597 1.34252,0.66254 0.9774,0.67827 4.05538,-0.17468 z m -3.72108,-4.01369 c -0.28916,-0.75354 -0.0186,-2.0681 0.45789,-2.22493 0.69294,-0.22806 1.84368,1.18121 1.63042,1.99671 -0.22344,0.85442 -1.78263,1.02482 -2.08831,0.22822 z m -162.284755,-2.05413 c 0.11699,-0.43656 0.21488,-1.2015 0.21753,-1.69986 0.009,-1.66762 1.06142,-4.48819 2.44038,-6.53958 l 1.36613,-2.0323 -3.04737,-1.74536 c -1.67606,-0.95995 -3.42597,-2.04209 -3.8887,-2.40476 -1.2793,-1.00265 -1.77707,-0.8111 -2.574,0.99048 -1.65921,3.75093 -0.39233,9.0981 2.95214,12.4602 0.96562,0.97071 1.88291,1.76493 2.03842,1.76493 0.15551,0 0.37847,-0.35718 0.49547,-0.79375 z m 180.274025,-4.32152 c 1.74231,-2.66267 2.42833,-4.67047 2.17439,-6.36388 -0.28455,-1.89754 -2.12384,-5.75789 -2.882,-6.04882 -0.66391,-0.25477 -0.74987,-0.20711 -5.72536,3.17412 l -3.53615,2.40309 1.32827,1.32827 c 0.73055,0.73055 1.66642,2.03041 2.07971,2.88858 0.81755,1.69758 1.84,5.31758 1.84,6.51451 0,0.41197 0.10588,0.85491 0.23529,0.98432 0.30872,0.30872 3.02196,-2.64304 4.48585,-4.88019 z m -1.89891,-7.58473 c 0,-0.19402 0.15875,-0.35277 0.35277,-0.35277 0.19403,0 0.35278,0.15875 0.35278,0.35277 0,0.19403 -0.15875,0.35278 -0.35278,0.35278 -0.19402,0 -0.35277,-0.15875 -0.35277,-0.35278 z m -148.635505,4.7625 c 0.83347,-4.83729 0.68618,-5.8296 -1.51192,-10.1857 -2.23178,-4.42287 -2.7698,-5.16013 -3.76564,-5.16013 -0.72057,0 -5.3343,2.23656 -7.71842,3.74158 -0.97624,0.61628 -1.35184,1.09719 -1.35184,1.7309 0,0.69841 -0.17817,0.87752 -0.87288,0.87752 -1.08303,0 -1.73783,-1.16595 -2.26926,-4.04068 -0.53383,-2.88775 -1.03797,-3.54404 -2.72241,-3.54404 -1.11771,0 -1.38661,-0.13447 -1.47261,-0.73643 -0.15495,-1.08445 0.76208,-1.67737 2.18223,-1.41095 1.7315,0.32483 2.81557,1.32234 3.87977,3.56995 l 0.93449,1.97367 1.93934,-1.10957 c 1.06664,-0.61027 2.80285,-1.62956 3.85825,-2.26509 2.42577,-1.46072 4.93514,-2.20699 5.59095,-1.66272 0.25812,0.21422 1.30149,1.9808 2.3186,3.92574 1.01711,1.94493 1.96581,3.53623 2.10823,3.53623 0.22468,0 1.10585,-5.03612 1.10585,-6.32017 0,-0.34602 -0.38644,-0.40476 -1.5323,-0.23293 l -1.53231,0.22978 -1.33774,-2.92375 c -0.73576,-1.60807 -1.72578,-3.95563 -2.20006,-5.21681 -0.47428,-1.26119 -1.28008,-3.06245 -1.79067,-4.00281 -0.89032,-1.63972 -0.97946,-1.70165 -2.17665,-1.51206 -0.68658,0.10873 -3.68201,1.39554 -6.65652,2.85958 -2.97451,1.46404 -5.54069,2.58001 -5.70262,2.47993 -0.4521,-0.27941 -2.27462,-5.28548 -3.17909,-8.73228 -0.44551,-1.69775 -0.94372,-3.08681 -1.10714,-3.08681 -0.56323,0 -2.47826,3.00969 -4.56214,7.16992 -2.15722,4.30668 -2.48662,5.62552 -1.53767,6.15657 0.39225,0.21952 0.71814,1.50642 1.12736,4.45197 0.50067,3.6037 0.50921,4.18584 0.0656,4.47081 -1.1437,0.73471 -1.55956,0.19416 -1.98163,-2.57582 -0.52177,-3.4242 -0.77669,-4.22425 -1.29234,-4.05576 -0.49796,0.16271 -3.02708,6.12707 -3.04448,7.17974 -0.0291,1.75933 5.89681,5.78272 14.62789,9.93159 5.02769,2.38908 10.43149,4.66542 11.07523,4.66542 0.16343,0 0.38397,-0.64732 0.49009,-1.43849 0.22813,-1.70079 1.00687,-2.67197 2.38529,-2.97472 1.45664,-0.31993 2.52116,0.36099 2.38651,1.52652 -0.0845,0.73161 -0.27724,0.92344 -0.84909,0.8452 -0.98144,-0.1343 -1.63099,0.70759 -1.4906,1.93197 0.10378,0.90514 0.34406,1.05937 2.75952,1.77125 4.08484,1.2039 4.31371,1.11667 4.82282,-1.83812 z m -12.37283,-3.40888 c -0.61455,-0.8774 -0.44847,-1.35362 0.47208,-1.35362 0.84699,0 1.50134,0.82381 1.22544,1.54279 -0.30697,0.79994 -1.06379,0.71561 -1.69752,-0.18917 z m -10.79836,-3.8304 c -1.01395,-1.89457 0.9315,-3.07578 2.73795,-1.6624 0.47488,0.37155 0.6126,1.98993 0.17639,2.07276 -1.63756,0.31092 -2.60092,0.17528 -2.91434,-0.41036 z m 17.70647,-2.52267 c 0.16619,-1.12941 0.99468,-1.25037 0.99468,-0.14522 0,0.59284 -0.19351,0.91134 -0.55371,0.91134 -0.36771,0 -0.51583,-0.25734 -0.44097,-0.76612 z m -12.942,-11.23148 c -0.37464,-0.60619 0.19221,-1.76073 0.86448,-1.76073 0.82613,0 1.56713,0.89907 1.30468,1.58301 -0.22935,0.59767 -1.82863,0.72871 -2.16916,0.17772 z m -9.61237,-2.52033 c -0.50503,-0.50503 0.0551,-1.70984 0.79488,-1.70984 0.73981,0 1.29991,1.20481 0.79488,1.70984 -0.22375,0.22375 -0.58145,0.40682 -0.79488,0.40682 -0.21343,0 -0.57112,-0.18307 -0.79488,-0.40682 z m 148.5254348,25.4076 c 1.53282,-0.4136 2.8741902,-0.97935 2.9808202,-1.25722 0.10663,-0.27787 0.01,-0.90931 -0.21528,-1.4032 -0.4050202,-0.88892 -0.7014402,-0.92814 -2.2363402,-0.29591 -0.45973,0.18936 -0.70355,0.0127 -0.97772,-0.70844 -0.48616,-1.27871 0.0787,-1.93323 1.66825,-1.93323 1.8254302,0 3.4231302,0.90675 4.1004802,2.32715 0.67414,1.41369 0.71997,1.41159 4.29797,-0.19731 2.33282,-1.04898 8.79868,-4.74365 9.77973,-5.58825 0.81994,-0.70591 0.77994,-1.53725 -0.11067,-2.29981 -0.9933,-0.85049 -0.78723,-2.16518 0.34832,-2.22225 0.83071,-0.0417 1.95436,0.84919 2.67276,2.11921 0.31743,0.56115 0.58875,0.44501 2.7073,-1.15886 2.83631,-2.14725 6.28866,-6.39906 6.28826,-7.74442 -2.9e-4,-0.97567 -1.42852,-4.16245 -2.9483,-6.57852 l -0.88764,-1.41111 -0.56109,1.33493 c -0.30859,0.7342 -0.92742,1.50183 -1.37516,1.70583 -1.71735,0.78248 -5.37557,-2.08799 -4.18205,-3.28151 0.35426,-0.35427 0.68806,-0.30963 1.68027,0.22472 1.58201,0.85196 1.99093,0.4787 2.1911,-2.00002 0.12706,-1.57348 0.008,-2.07344 -0.7637,-3.20309 -0.50285,-0.73622 -0.91426,-1.42625 -0.91426,-1.5334 0,-0.44767 -3.89281,-6.12384 -4.19982,-6.12384 -0.53554,0 -1.72078,1.69436 -2.1747,3.10884 -0.22961,0.71548 -0.61825,1.539 -0.86365,1.83004 -0.2454,0.29105 -0.94428,1.7198 -1.55307,3.175 -1.61452,3.85927 -1.80045,4.04863 -3.44419,3.50789 -0.74058,-0.24362 -3.07657,-1.29132 -5.19108,-2.3282 -2.11451,-1.03688 -4.2098602,-1.88524 -4.6563502,-1.88524 -0.50332,0 -1.14035,0.43567 -1.67645,1.14653 -1.38415,1.83539 -4.92727,7.58578 -6.74081995,10.94018 l -1.67107005,3.09088 0.41779005,1.84801 c 0.7681,3.39755 0.7063,3.31589 1.50246,1.98495 1.53384995,-2.56415 2.92592995,-4.54472 3.29345995,-4.68575 0.66934,-0.25685 4.07561,0.70782 7.8567602,2.22506 4.05177,1.62584 4.23837,1.60144 4.98187,-0.65141 0.50115,-1.51849 1.23056,-2.03001 1.99274,-1.39745 0.73115,0.60679 0.60268,1.37382 -0.78556,4.69012 -1.32031,3.15405 -1.97352,3.69094 -2.65932,2.18577 -0.57875,-1.27023 -6.9071202,-4.16395 -9.2345502,-4.2226 l -1.76878,-0.0446 -1.35365,2.64583 c -0.7445,1.45521 -1.54631,2.91616 -1.78179,3.24657 -0.34596995,0.48543 -0.20286,1.60263 0.74564,5.82083 0.64558,2.87106 1.24473,5.33916 1.33144,5.48468 0.24997,0.41951 1.10717,0.31735 4.08964,-0.48741 z m -4.2184,-5.82541 c -0.13658,-0.35593 0.0319,-0.76632 0.436,-1.06178 0.55976,-0.40931 0.73591,-0.40431 1.17354,0.0333 0.42267,0.42267 0.4336,0.61288 0.061,1.06178 -0.59216,0.71351 -1.39011,0.6976 -1.67059,-0.0333 z m 10.1567702,-0.767 c -0.24602,-0.4597 -0.2299,-0.78546 0.0529,-1.06821 0.63773,-0.63773 0.97127,-0.48172 0.97127,0.4543 0,1.11631 -0.5718,1.45908 -1.02412,0.61391 z m 15.26176,-8.35693 c -0.28927,-0.75383 0.81463,-2.29033 1.64549,-2.29033 0.78253,0 0.93879,1.0065 0.33224,2.13986 -0.43347,0.80994 -1.68804,0.90539 -1.97773,0.15047 z m -7.88764,-2.79867 c 0,-0.99104 0.40582,-1.34842 1.18962,-1.04765 0.49395,0.18954 0.49309,0.2936 -0.009,1.05948 -0.71256,1.0875 -1.18089,1.0828 -1.18089,-0.0118 z m 9.02103,-3.5738 c -1.0038,-1.0038 -0.45815,-2.40533 0.86061,-2.21053 1.25871,0.18593 1.68875,1.16357 0.89677,2.03869 -0.78911,0.87196 -1.03338,0.89584 -1.75738,0.17184 z m -13.26395,-0.69191 c -0.59364,-0.71529 -0.0779,-1.70199 0.97178,-1.8593 0.86622,-0.12982 1.93626,0.85789 1.78657,1.64909 -0.15195,0.80307 -2.14055,0.95462 -2.75835,0.21021 z m 8.67844,-6.75121 c -0.24914,-0.64926 0.36874,-1.20426 1.04975,-0.94293 0.55076,0.21135 0.22887,1.53208 -0.37339,1.53208 -0.24766,0 -0.55202,-0.26512 -0.67636,-0.58915 z m 4.36423,-1.6454 c -0.53655,-0.2661 -0.90442,-0.791 -0.97388,-1.38959 -0.0937,-0.80788 0.0221,-0.96197 0.7232,-0.96197 1.04917,0 1.68149,0.61567 1.68149,1.63724 0,1.04297 -0.3828,1.23408 -1.43081,0.71432 z m -72.12336,29.04488 c 15.53483,-0.89814 25.36747,-2.60536 32.4222,-5.62937 0.8997198,-0.38566 1.7349498,-0.95946 1.8560698,-1.2751 0.26177,-0.68217 -0.98421,-6.72959 -2.1455598,-10.41359 l -0.82376,-2.6131 -2.82015,2.93444 c -1.55108,1.61394 -3.19809,3.67769 -3.66003,4.58611 -0.58492,1.15027 -1.09122,1.68725 -1.66783,1.76888 -0.83994,0.11891 -3.45833,-1.44671 -8.16788,-4.88385 -1.26118,-0.92043 -2.96754,-2.01354 -3.7919,-2.42912 l -1.49884,-0.75561 -3.58025,3.27013 c -1.96913,1.79857 -4.3109,3.93951 -5.20393,4.75764 -0.89303,0.81813 -1.96693,1.49282 -2.38645,1.49931 -0.41951,0.006 -1.68951,-0.71092 -2.82222,-1.59423 -5.43061,-4.23491 -7.66516,-5.82342 -8.47917,-6.02772 -1.30225,-0.32684 -2.71582,0.49512 -6.22626,3.62044 -1.71652,1.52822 -3.5789,3.06929 -4.13861,3.4246 -1.20377,0.76418 -1.07649,0.8354 -6.85153,-3.8338 -4.13373,-3.34217 -5.7832,-4.39694 -6.87601,-4.39694 -0.89252,0 -3.75768,1.9699 -7.89211,5.42612 l -2.77367,2.31868 -3.75272,-3.39878 c -4.3049,-3.89888 -7.846935,-6.58301 -8.179145,-6.1981 -0.25652,0.29723 -1.23804,7.04855 -1.58456,10.8993 -0.27916,3.10223 0.003,3.68628 2.24467,4.65074 3.038775,1.30724 14.700495,3.20176 25.285765,4.10783 6.4626,0.55318 25.34359,0.65746 33.51388,0.18509 z m -19.91787,-1.56977 c -1.03841,-1.25121 0.94033,-3.12083 2.44864,-2.31361 0.78831,0.42189 0.94734,1.74411 0.28896,2.40249 -0.58453,0.58453 -2.22287,0.53133 -2.7376,-0.0889 z m -13.41419,-0.36318 c -0.35582,-0.42874 -0.37072,-0.75681 -0.0649,-1.4281 0.77929,-1.71037 4.13405,-0.82235 3.87056,1.02455 -0.0886,0.62123 -0.38446,0.76782 -1.72537,0.85496 -1.14285,0.0743 -1.75413,-0.0584 -2.08033,-0.45141 z m 22.39058,-0.90542 c -0.29238,-0.92122 0.38633,-1.74696 1.43591,-1.74696 0.9656,0 1.48275,1.19294 0.84847,1.95721 -0.63788,0.76859 -2.0139,0.64194 -2.28438,-0.21025 z m 3.79773,0.46903 c -0.60951,-0.21855 -0.5541,-1.68293 0.0837,-2.21226 0.75252,-0.62454 1.59199,-0.17383 1.59199,0.85473 0,0.9081 -0.89867,1.63614 -1.6757,1.35753 z m -31.04444,-0.34741 c -0.7289,-0.27024 -0.5286,-1.5158 0.24377,-1.5158 0.3766,0 0.79226,0.17398 0.92368,0.38663 0.30315,0.49051 -0.58169,1.34634 -1.16745,1.12917 z m 52.07088,-0.86229 c -0.63193,-0.63192 -0.65255,-0.78505 -0.19839,-1.47312 0.69595,-1.05439 2.20581,-1.19925 2.70855,-0.25987 0.86317,1.61285 -1.2035,3.03966 -2.51016,1.73299 z m -68.15148,-0.82132 c -0.792,-0.792 -0.24959,-2.09319 0.93177,-2.23519 1.43964,-0.17305 2.42148,0.52599 2.29359,1.63298 -0.0934,0.80854 -0.29567,0.96198 -1.38838,1.05328 -0.81529,0.0681 -1.48133,-0.0954 -1.83698,-0.45107 z m 79.33431,-0.50814 c -0.63419,-1.02614 1.39864,-3.23406 2.22072,-2.41198 0.59982,0.59982 0.49958,2.27129 -0.1512,2.52102 -0.81996,0.31465 -1.84091,0.26085 -2.06952,-0.10904 z m -2.80933,-0.68471 c -0.32008,-0.51789 0.15555,-1.46156 0.73665,-1.46156 0.32897,0 0.4751,0.27764 0.40323,0.76611 -0.12209,0.82972 -0.80093,1.24389 -1.13988,0.69545 z m -81.892035,-1.55349 c -0.10383,-0.27058 -0.0275,-0.91621 0.16966,-1.43474 0.26093,-0.68628 0.60656,-0.94278 1.27042,-0.94278 0.838115,0 0.903105,0.10714 0.80248,1.32292 -0.0951,1.14927 -0.2371,1.33759 -1.08163,1.43474 -0.59062,0.0679 -1.04624,-0.0813 -1.16093,-0.38014 z m 31.300615,-0.36088 c -0.50308,-0.60617 0.0639,-1.4731 0.78297,-1.19717 0.68978,0.26469 0.75594,1.64998 0.0788,1.64998 -0.26729,0 -0.65508,-0.20377 -0.86177,-0.45281 z m 59.00996,-0.75826 c -0.9912,-1.51276 0.63515,-3.14489 1.88666,-1.89338 0.6480998,0.6481 0.5037198,1.97827 -0.25903,2.38648 -0.93314,0.4994 -0.98826,0.4827 -1.62763,-0.4931 z m -74.16193,-1.6773 c 0.21804,-0.65413 0.97749,-0.76262 0.97749,-0.13964 0,0.30721 -0.25136,0.55856 -0.55857,0.55856 -0.30721,0 -0.49573,-0.18851 -0.41892,-0.41892 z m 1.33026,-0.46302 c 0,-0.097 0.0794,-0.17639 0.17639,-0.17639 0.097,0 0.17639,0.0794 0.17639,0.17639 0,0.097 -0.0794,0.17639 -0.17639,0.17639 -0.097,0 -0.17639,-0.0794 -0.17639,-0.17639 z m 50.8,0 c 0,-0.097 0.0794,-0.17639 0.17639,-0.17639 0.097,0 0.17639,0.0794 0.17639,0.17639 0,0.097 -0.0794,0.17639 -0.17639,0.17639 -0.097,0 -0.17639,-0.0794 -0.17639,-0.17639 z m 5.64444,-0.19721 c 0,-0.20548 -0.17047,-0.26824 -0.37882,-0.13947 -0.2091,0.12923 -0.17747,-0.0883 0.0706,-0.48553 0.24719,-0.39581 0.57641,-0.64118 0.7316,-0.54526 0.40702,0.25155 0.34791,1.54386 -0.0706,1.54386 -0.19403,0 -0.35278,-0.16812 -0.35278,-0.3736 z m 13.63115,-2.6934 c -0.3362,-0.3362 -0.27254,-1.16634 0.0894,-1.16634 0.43279,0 0.78022,0.99388 0.42432,1.21384 -0.15849,0.0979 -0.38968,0.0766 -0.51376,-0.0475 z m 55.77472,0.62633 c -0.24285,-1.05132 -0.62279,-1.97192 -0.84432,-2.04576 -0.22153,-0.0738 -0.76145,0.36945 -1.19983,0.9851 -0.76667,1.07668 -0.77396,1.15469 -0.19137,2.04576 0.33313,0.50952 1.03265,1.79952 1.55448,2.86668 l 0.94878,1.94027 0.0869,-1.94027 c 0.0478,-1.06716 -0.1118,-2.80046 -0.35464,-3.85178 z m -190.900185,2.58789 c -0.39427,-1.02746 -0.91907,-0.44825 -0.90544,0.9993 l 0.0141,1.49931 0.5416,-0.99931 c 0.29787,-0.54962 0.45525,-1.22431 0.34972,-1.4993 z m 110.029045,-5.46344 c 2.1343,-1.94969 4.2923,-3.79321 4.79555,-4.09671 0.50324,-0.30351 1.10061,-1.06513 1.32747,-1.6925 0.8496,-2.34955 2.93682,-3.09475 3.16288,-1.12925 0.0625,0.54365 -0.0516,1.18757 -0.25354,1.43093 -0.27843,0.3355 0.84558,1.2395 4.64882,3.73886 2.75882,1.81301 5.26224,3.36079 5.56315,3.43952 0.55142,0.14426 6.0447,-5.78593 6.26296,-6.76108 0.059,-0.26367 -0.29818,-0.88486 -0.79375,-1.38044 -1.52205,-1.52205 -1.03931,-2.89312 1.37359,-3.90129 l 1.14601,-0.47883 -0.26421,-1.89247 c -0.14531,-1.04086 -0.42563,-2.60684 -0.62294,-3.47997 -0.1973,-0.87312 -0.55591,-2.50031 -0.7969,-3.61597 -0.241,-1.11566 -0.5567,-2.02847 -0.70157,-2.02847 -0.36573,0 -4.71556,4.72204 -6.41816,6.96736 -0.77243,1.01865 -1.61793,1.85208 -1.87891,1.85208 -0.51714,0 -6.30493,-3.6383 -6.63349,-4.16993 -0.28471,-0.46066 -4.93551,-3.2384 -5.4221,-3.2384 -0.59493,0 -6.58596,5.80396 -8.05065,7.79927 -0.69674,0.94915 -1.38602,1.72573 -1.53172,1.72573 -0.14571,0 -1.27162,-0.80793 -2.50203,-1.7954 -1.23041,-0.98747 -3.35986,-2.5715 -4.73212,-3.52006 -1.37225,-0.94857 -3.15273,-2.22047 -3.95662,-2.82645 -1.0293,-0.77591 -1.67789,-1.03314 -2.19285,-0.8697 -0.72576,0.23035 -3.83985,2.73546 -8.24216,6.63036 -1.26101,1.11566 -2.40264,2.02847 -2.53697,2.02847 -0.41038,0 -5.15271,-3.62235 -8.24018,-6.29413 -1.60502,-1.38892 -3.17236,-2.52531 -3.48298,-2.52531 -0.59402,0 -3.60319,2.03575 -7.65779,5.18061 -1.32952,1.03122 -2.56793,1.87494 -2.75201,1.87494 -0.57766,0 -2.68406,-2.51453 -5.0977,-6.08541 -2.07665,-3.07234 -2.96213,-4.01594 -2.96213,-3.15655 0,0.15567 -0.38899,2.61621 -0.864415,5.46786 -0.47542,2.85164 -0.96942,6.11302 -1.09777,7.24749 l -0.23336,2.06269 2.815205,2.43543 c 1.54837,1.33949 3.32677,2.82197 3.95201,3.29439 0.62525,0.47242 1.86203,1.54399 2.74841,2.38125 0.88638,0.83726 1.73957,1.5223 1.89598,1.5223 0.15641,0 0.80585,-0.44436 1.44319,-0.98745 2.00619,-1.70954 7.12183,-5.58678 7.94977,-6.0253 0.45426,-0.2406 0.79581,-0.75459 0.79857,-1.20175 0.0133,-2.15696 0.83657,-2.83606 2.61216,-2.1547 0.64061,0.24582 0.73419,1.61974 0.18076,2.65383 -0.27581,0.51535 -0.26196,0.84384 0.0515,1.22153 0.81093,0.97712 9.84374,7.55217 10.37517,7.55217 0.29254,0 1.12766,-0.5204 1.85582,-1.15645 2.07028,-1.80837 4.32248,-3.52235 6.4872,-4.93694 2.02553,-1.32363 2.67443,-2.43159 2.235,-3.81613 -0.27851,-0.87748 0.64592,-1.25197 1.79646,-0.72775 0.66555,0.30325 0.85385,0.65195 0.83465,1.54568 -0.0136,0.63475 -0.14754,1.46829 -0.29756,1.85231 -0.31375,0.80311 -0.17065,0.93542 4.02652,3.72292 1.55222,1.03088 3.34368,2.32317 3.98102,2.87174 0.63735,0.54857 1.35172,0.99572 1.5875,0.99368 0.23579,-0.002 2.17495,-1.59892 4.30926,-3.54861 z m -30.74149,-2.97667 c -0.12448,-0.32441 0.02,-0.82433 0.327,-1.13132 0.74935,-0.74935 1.74323,-0.31979 1.59965,0.69138 -0.13913,0.97978 -1.59217,1.31158 -1.92665,0.43994 z m 24.33269,-0.76174 c 0.12935,-0.12935 0.34102,-0.12935 0.47037,0 0.12935,0.12935 0.0235,0.23518 -0.23518,0.23518 -0.25871,0 -0.36454,-0.10583 -0.23519,-0.23518 z m -12.80354,-0.62983 c -0.85487,-1.03005 0.68004,-3.0134 1.95379,-2.52461 0.61029,0.23419 0.664,2.02778 0.0783,2.61351 -0.57435,0.57435 -1.51579,0.53316 -2.03206,-0.0889 z m -38.8196,-2.30999 c -0.38806,-0.38805 -0.70556,-0.91193 -0.70556,-1.16416 0,-1.30466 2.18564,-1.7892 2.80981,-0.62292 0.49615,0.92706 0.4609,1.2882 -0.18917,1.93827 -0.72618,0.72618 -1.06442,0.69948 -1.91508,-0.15119 z m 47.97777,-0.52916 c 0,-0.097 0.0794,-0.17639 0.17639,-0.17639 0.097,0 0.17639,0.0794 0.17639,0.17639 0,0.097 -0.0794,0.17639 -0.17639,0.17639 -0.097,0 -0.17639,-0.0794 -0.17639,-0.17639 z m -14.73582,-1.30087 c 0.21804,-0.65413 0.97749,-0.76262 0.97749,-0.13964 0,0.30721 -0.25136,0.55856 -0.55857,0.55856 -0.30721,0 -0.49572,-0.18851 -0.41892,-0.41892 z m 36.03096,-1.519 c -0.12219,-0.31842 -0.053,-0.74811 0.15375,-0.95486 0.53749,-0.53749 1.55589,-0.0462 1.41549,0.6828 -0.15639,0.81206 -1.28681,1.00804 -1.56924,0.27206 z m 9.81986,0.10348 c -0.6042,-0.6042 -0.52722,-1.09601 0.31267,-1.99752 0.58222,-0.62495 0.8402,-0.70353 1.23472,-0.3761 0.93241,0.77383 0.40004,2.79695 -0.736,2.79695 -0.21343,0 -0.57856,-0.1905 -0.81139,-0.42333 z m -32.17333,-1.16417 c 0,-0.097 0.0794,-0.17639 0.17639,-0.17639 0.097,0 0.17638,0.0794 0.17638,0.17639 0,0.097 -0.0794,0.17639 -0.17638,0.17639 -0.097,0 -0.17639,-0.0794 -0.17639,-0.17639 z m 34.92499,-4.59718 c 0,-0.53378 0.93011,-1.11669 1.25825,-0.78856 0.0932,0.0932 0.0694,0.43033 -0.053,0.74914 -0.28068,0.73142 -1.20529,0.76166 -1.20529,0.0394 z m -94.650945,9.97704 c 0.18296,-0.24253 0.78447,-3.13972 1.33669,-6.43819 1.50087,-8.96495 1.48764,-8.1018 0.1328,-8.663 -0.64382,-0.26667 -1.60487,-0.43931 -2.13567,-0.38363 -0.81126,0.0851 -0.99612,-0.0574 -1.15972,-0.89413 -0.28788,-1.47225 -1.513,-5.14501 -2.96177,-8.879 l -1.27943,-3.29753 -1.38554,0.18556 c -1.85652,0.24863 -6.14778,2.49431 -8.70877,4.55742 -1.14404,0.92164 -2.24536,1.6757 -2.44737,1.6757 -0.20201,0 -0.80512,-0.98048 -1.34023,-2.17885 l -0.97293,-2.17884 -2.17902,2.97259 c -1.19845,1.63493 -2.18205,3.31231 -2.18577,3.72751 -0.011,1.22388 1.35453,7.5276 2.15534,9.95011 0.88665,2.68215 0.54607,2.68769 6.53897,-0.10632 4.09483,-1.90908 8.35729,-3.03701 9.0012,-2.38188 0.13506,0.13741 1.26842,2.63109 2.51858,5.54151 3.22604,7.51031 3.0737,7.23194 3.95786,7.23194 0.43017,0 0.93182,-0.19843 1.11478,-0.44097 z m -3.42127,-10.67153 c 0,-0.097 0.0794,-0.17638 0.17639,-0.17638 0.097,0 0.17639,0.0794 0.17639,0.17638 0,0.097 -0.0794,0.17639 -0.17639,0.17639 -0.097,0 -0.17639,-0.0794 -0.17639,-0.17639 z m 0.70556,-0.88194 c 0,-0.2587 0.10583,-0.36454 0.23519,-0.23518 0.12935,0.12935 0.12935,0.34101 0,0.47037 -0.12936,0.12935 -0.23519,0.0235 -0.23519,-0.23519 z m -1.41111,-0.17639 c 0,-0.097 0.0794,-0.17639 0.17639,-0.17639 0.097,0 0.17639,0.0794 0.17639,0.17639 0,0.097 -0.0794,0.17639 -0.17639,0.17639 -0.097,0 -0.17639,-0.0794 -0.17639,-0.17639 z m -6.26181,-1.46836 c -0.78074,-0.31504 -0.51841,-2.1688 0.39127,-2.76484 1.72797,-1.13221 2.94197,0.66745 1.454,2.15543 -0.85732,0.85731 -1.06276,0.92516 -1.84527,0.60941 z m -9.378,-1.05988 c -0.48563,-0.48562 -0.2095,-1.17592 0.47037,-1.17592 0.47037,0 0.70555,0.23518 0.70555,0.70555 0,0.67987 -0.6903,0.95599 -1.17592,0.47037 z m 130.08435485,11.60551 c 2.17310995,-3.74113 5.19636995,-8.24782 6.50370995,-9.69488 0.96508,-1.06823 1.11567,-1.42336 0.77675,-1.83174 -0.54277,-0.65399 -0.33998,-2.3868 0.30412,-2.59866 0.33729,-0.11095 0.42781,0.0172 0.28147,0.39861 -0.17844,0.465 -0.0709,0.50711 0.62201,0.24365 1.10102,-0.41861 1.7379,0.31957 1.44121,1.67042 -0.19937,0.9077 -0.0987,1.04023 1.1153202,1.46848 0.73396,0.2589 2.76308,1.17475 4.50917,2.03521 l 3.17471,1.56448 0.80157,-0.99003 c 0.44086,-0.54452 0.90295,-1.38691 1.02686,-1.87198 0.12392,-0.48506 0.57359,-1.43756 0.99928,-2.11666 0.42568,-0.6791 0.8949,-1.61608 1.04271,-2.08218 0.14781,-0.46609 0.73772,-1.64284 1.31092,-2.61499 l 1.04218,-1.76754 -0.64202,-1.1972 c -0.73895,-1.37793 -4.60238,-6.5806 -4.98775,-6.71672 -0.27788,-0.0982 -2.53344,5.6089 -2.53344,6.41016 0,0.26601 -0.41555,0.58794 -0.92343,0.71541 -1.30586,0.32775 -2.35059,-0.66523 -2.06551,-1.96319 0.21503,-0.97904 -0.47107,-2.44987 -1.59232,-3.41356 -0.97611,-0.83894 -6.0952702,-3.22923 -6.4484302,-3.01097 -0.19113,0.11812 -1.77368,3.13258 -3.51679,6.69879 -2.75602995,5.63853 -3.10677,6.55965 -2.68987995,7.06405 0.43991,0.53225 0.25414,0.56309 -2.25461005,0.37425 -1.50372,-0.11318 -2.73403,-0.0677 -2.73403,0.10102 0,0.16874 0.70315,3.13306 1.56256,6.58738 0.8594,3.45431 1.67082,6.87588 1.80315,7.60348 0.13232,0.72761 0.34198,1.31988 0.46591,1.31616 0.12393,-0.004 0.846,-1.07528 1.60460005,-2.38125 z M 12.778115,-204.52165 c -0.12413,-0.32349 -0.0724,-0.74145 0.11493,-0.92879 0.51948,-0.51948 1.44639,-0.007 1.44639,0.80032 0,0.88484 -1.23217,0.98623 -1.56132,0.12847 z m 7.74372,-2.80485 c -0.80157,-0.80156 0.0723,-2.60422 1.26241,-2.60422 0.69021,0 1.24826,1.37061 0.91337,2.24331 -0.27707,0.72204 -1.59589,0.9408 -2.17578,0.36091 z m -9.00462,-1.89866 c 0,-1.18288 0.37832,-1.33517 1.2217,-0.49179 0.43742,0.43741 0.47352,0.67862 0.15839,1.05833 -0.70624,0.85096 -1.38009,0.57434 -1.38009,-0.56654 z m -23.28333,18.69722 c 0,-0.46322 -0.23519,-0.70556 -0.68474,-0.70556 -0.77528,0 -1.22848,0.53131 -0.90276,1.05834 0.40661,0.6579 1.5875,0.39548 1.5875,-0.35278 z m -53.53707,-9.28268 c 5.5061,-4.46188 6.59404,-5.18121 7.83621,-5.18121 1.29036,0 2.70571,0.8607 8.28684,5.0394 l 4.03737,3.02285 5.13485,-4.97318 c 5.91014,-5.72407 6.66095,-6.63779 6.9525,-8.46103 0.11705,-0.73195 0.31158,-1.32839 0.4323,-1.32542 0.94343,0.0232 1.81625,1.82145 1.48453,3.0585 -0.11368,0.42397 -0.57535,1.19242 -1.02592,1.70768 -0.45057,0.51525 -0.73353,1.16013 -0.6288,1.43305 0.21272,0.55435 8.62815,6.1363 9.25696,6.14015 0.22033,0.001 1.46773,-1.22787 2.772,-2.73158 1.30427,-1.50372 3.05455,-3.32961 3.8895,-4.05754 l 1.5181,-1.3235 -0.51029,-2.18742 c -0.58355,-2.50147 -0.69298,-2.68362 -1.26718,-2.10941 -0.2296,0.2296 -0.71375,0.41745 -1.07589,0.41745 -1.05385,0 -0.68898,-1.90435 0.39425,-2.05768 0.77163,-0.10923 0.81297,-0.2271 0.59334,-1.69174 -0.29827,-1.989 -1.02857,-4.12122 -1.45139,-4.23755 -0.17829,-0.049 -1.34344,1.26708 -2.58923,2.92473 -1.24579,1.65766 -2.44952,3.08471 -2.67496,3.17122 -0.22545,0.0865 -2.18034,-0.9563 -4.34421,-2.31736 -6.0212,-3.78728 -6.4452,-3.97116 -7.67985,-3.33062 -0.56383,0.29252 -1.81945,1.13908 -2.79025,1.88123 -4.01522,3.06952 -7.73242,5.30605 -8.44367,5.0803 -0.38705,-0.12284 -3.05922,-1.82256 -5.93816,-3.77715 -4.84921,-3.29227 -5.29152,-3.51872 -6.01024,-3.07715 -0.80973,0.4975 -7.12604,5.12643 -8.79131,6.44274 -1.21436,0.9599 -1.45078,0.85693 -6.27159,-2.73145 -2.03707,-1.5163 -4.21125,-3.05633 -4.83152,-3.4223 l -1.12775,-0.66539 -4.73382,3.02214 c -2.6036,1.66218 -4.89839,3.02214 -5.09955,3.02214 -0.3836,0 -3.26539,-3.2408 -4.62704,-5.20347 -0.43749,-0.63059 -0.91967,-1.14653 -1.07152,-1.14653 -0.15185,0 -0.7996,2.32528 -1.43946,5.16729 -0.97517,4.33131 -1.09125,5.2828 -0.71752,5.88123 0.24522,0.39267 0.85001,1.43784 1.34397,2.32261 1.17861,2.1111 2.54295,3.97678 4.31015,5.89396 l 1.43745,1.55945 1.13435,-0.88492 c 0.6239,-0.4867 2.72186,-1.96578 4.66213,-3.28684 3.10256,-2.1124 3.54111,-2.53791 3.63833,-3.53013 0.0608,-0.62051 0.24896,-1.1282 0.41814,-1.1282 0.16917,0 0.5085,-0.55563 0.75407,-1.23473 0.45834,-1.26753 1.22899,-1.58047 1.99807,-0.81139 0.60248,0.60248 0.52364,2.45148 -0.14526,3.40647 -0.54059,0.77181 -0.51888,0.86454 0.44097,1.88316 1.29658,1.37595 8.33513,7.32186 8.67944,7.33207 0.14385,0.004 1.8901,-1.31196 3.88056,-2.92493 z m -7.49348,-4.66312 c 0,-1.07087 0.91139,-1.52178 1.62781,-0.80535 0.70518,0.70517 0.24692,1.69837 -0.78361,1.69837 -0.66809,0 -0.8442,-0.1863 -0.8442,-0.89302 z m 11.35944,-0.23587 c -0.94599,-0.94599 -0.10292,-3.10444 1.21256,-3.10444 0.94513,0 1.89188,0.71497 1.89188,1.42871 0,0.40927 -0.47456,0.98767 -1.14652,1.39738 -1.34796,0.82186 -1.40614,0.83013 -1.95792,0.27835 z m -32.5408,-0.82909 c -0.67074,-0.80819 0.24739,-1.61408 1.35305,-1.18764 0.68096,0.26263 0.74887,0.42479 0.42856,1.0233 -0.45476,0.84973 -1.15888,0.91468 -1.78161,0.16434 z m 44.81747,-0.43887 c 0,-0.38047 0.25162,-0.90059 0.55917,-1.15583 0.49105,-0.40754 0.54477,-0.34091 0.44097,0.54696 -0.13445,1.15005 -1.00014,1.67707 -1.00014,0.60887 z m -4.93889,-2.71843 c -0.54457,-0.65616 0.0894,-1.5875 1.08071,-1.5875 0.92055,0 1.08663,0.47622 0.47207,1.35362 -0.63089,0.90073 -0.95841,0.95006 -1.55278,0.23388 z m -11.63269,-0.69474 c -0.30447,-0.36686 -0.21606,-0.60202 0.38447,-1.02265 0.93203,-0.65282 1.37016,-0.47439 1.12617,0.45862 -0.23044,0.88122 -1.00683,1.17109 -1.51064,0.56403 z m 23.80157,-0.54314 c -0.56553,-0.91503 1.06811,-2.83013 1.94952,-2.28539 0.48161,0.29766 0.43211,1.70804 -0.0779,2.218 -0.51572,0.51572 -1.5711,0.55372 -1.87167,0.0674 z m 19.41982,-0.11857 c -0.72055,-0.52688 -0.39946,-1.5286 0.59071,-1.84287 0.82749,-0.26263 1.32761,0.32714 1.08008,1.27369 -0.22205,0.84912 -0.94919,1.09683 -1.67079,0.56918 z m -63.3387,-1.46577 c 0,-0.097 0.0794,-0.17639 0.17639,-0.17639 0.097,0 0.17639,0.0794 0.17639,0.17639 0,0.097 -0.0794,0.17639 -0.17639,0.17639 -0.097,0 -0.17639,-0.0794 -0.17639,-0.17639 z m -20.007365,0.17388 1.33569,-5.11277 -0.70636,-1.2838 c -0.38849,-0.7061 -1.58959,-3.32547 -2.66911,-5.82084 -2.13026,-4.92423 -2.9351,-5.92114 -5.28846,-6.55057 -0.92464,-0.24731 -1.4575,-0.57274 -1.35883,-0.82987 0.20608,-0.53705 -1.54954,-1.94352 -2.10794,-1.68871 -1.37998,0.62972 -12.42013,13.67778 -12.79287,15.11956 -0.20628,0.7979 0.74185,3.34729 1.24488,3.34729 0.17944,0 0.852,-0.48854 1.49457,-1.08563 1.22346,-1.13689 4.58176,-2.95642 7.4301,-4.02564 1.5392,-0.57779 1.6757,-0.72504 1.6757,-1.80769 0,-1.37776 1.1919,-2.37086 2.84548,-2.37086 1.0856,0 2.44618,0.97197 2.44618,1.7475 0,0.25422 -0.4966,1.02781 -1.10355,1.71909 l -1.10355,1.25688 1.72091,4.81539 c 1.76801,4.94718 3.03733,7.37328 3.99668,7.63901 1.41335,0.39147 1.59667,0.0755 2.94048,-5.06834 z m 104.95436485,0.003 c 3.58881995,-7.11707 4.33684995,-9.12111 4.09239995,-10.96386 -0.21678,-1.6342 -0.20855,-1.65152 0.70256,-1.47735 1.07847,0.20617 1.22627,-0.39609 0.33808,-1.37754 -0.54982,-0.60754 -0.53572,-0.64514 0.24185,-0.64514 1.08278,0 2.45866,1.31762 2.45866,2.35455 0,0.45125 -0.3211,1.14155 -0.71356,1.53401 -0.50469,0.50469 -0.58214,0.75435 -0.26458,0.85291 0.24693,0.0766 1.3221,0.4014 2.38925,0.72167 2.5946002,0.77868 4.6270702,2.21807 5.3826402,3.81198 0.34107,0.71952 0.77496,1.30821 0.96419,1.30821 0.56846,0 2.19039,-3.55754 2.19039,-4.80439 0,-0.91248 -0.36605,-1.53525 -1.71097,-2.91085 -0.94104,-0.96251 -2.82222,-3.10367 -4.18042,-4.75814 -1.7322302,-2.11009 -2.6274202,-2.94047 -2.9986102,-2.78151 -0.64467,0.27607 -2.38444,0.24022 -4.83678,-0.0997 -1.7707,-0.24541 -1.87911,-0.21108 -2.95372995,0.93531 -0.61356,0.65455 -2.13745005,2.93633 -3.38643005,5.07063 -2.64138,4.51369 -3.23569,5.11528 -5.05335,5.11528 h -1.33545 l 1.46273,5.73264 1.46273,5.73264 1.23473,0.22423 c 2.43391,0.44202 2.52357,0.371 4.51367005,-3.57562 z m -64.35611985,-6.2843 c 1.87651,-1.41907 3.31999,-2.72876 3.20772,-2.91041 -0.11227,-0.18166 -0.94882,-0.32889 -1.859,-0.32717 -0.91019,0.002 -4.39197,-0.18483 -7.73731,-0.41456 -3.34534,-0.22972 -6.16689,-0.33322 -6.27011,-0.23 -0.36856,0.36856 0.25057,1.19058 1.87936,2.49527 6.11374,4.89719 6.11892,4.90059 6.7576,4.42303 0.33544,-0.25081 2.14522,-1.61709 4.02174,-3.03616 z m 21.39344,1.91592 c 1.25911,-0.85039 3.24179,-2.44614 4.40595,-3.54611 l 2.11667,-1.99994 -2.82222,0.18682 c -1.55222,0.10275 -5.56739,0.29204 -8.9226,0.42063 l -6.10038,0.23382 0.80871,0.87741 c 1.47902,1.60467 6.72591,5.37353 7.48086,5.37353 0.40905,0 1.7739,-0.69577 3.03301,-1.54616 z m -42.18418,-2.25257 c 3.37417,-2.54266 4.11261,-3.36574 3.53651,-3.94185 -0.19342,-0.19341 -2.42902,-0.7355 -4.96801,-1.20464 -2.53899,-0.46914 -4.94642,-1.02964 -5.34985,-1.24555 -1.15575,-0.61854 -1.4277,-0.48164 -1.81265,0.91253 -0.29647,1.07375 -0.25521,1.42126 0.23275,1.96046 0.57595,0.63642 0.60113,0.63366 0.87076,-0.0952 0.19249,-0.52038 0.52175,-0.7159 1.07358,-0.63755 1.01888,0.14467 1.23221,1.42774 0.43873,2.63873 -0.56832,0.86737 -0.55447,0.93418 0.41377,1.9953 1.11303,1.21981 1.96881,1.98042 2.23649,1.98779 0.097,0.003 1.59458,-1.06384 3.32792,-2.37003 z m 64.03272,-1.50899 c 0.87409,-1.63994 1.28988,-2.07781 2.05703,-2.16621 0.87046,-0.1003 0.94995,-0.2277 0.83962,-1.34552 -0.067,-0.67909 -0.18452,-1.2993 -0.2611,-1.37823 -0.0766,-0.0789 -1.60923,0.1892 -3.4059,0.59585 -1.79668,0.40664 -4.81449,1.00183 -6.70626,1.32264 -1.89178,0.32081 -3.43959,0.71674 -3.43959,0.87984 0,0.41517 2.62781,2.52255 5.48801,4.40113 l 2.41313,1.58496 0.95977,-0.91952 c 0.52787,-0.50573 1.45275,-1.84445 2.05529,-2.97494 z m -80.616255,-3.49561 c 0.49962,-1.54335 0.90839,-2.9607 0.90839,-3.14965 0,-0.39994 -3.58046,-1.80535 -4.59934,-1.80535 -0.38078,0 -0.69232,0.15279 -0.69232,0.33954 0,0.86487 1.76901,5.00489 3.05815,7.15698 0.29661,0.49517 0.41658,0.26506 1.32512,-2.54152 z m -12.38282,1.60587 c 0.22053,-0.57469 -0.0758,-0.98191 -0.51632,-0.70963 -0.40073,0.24766 -0.39163,1.20431 0.0115,1.20431 0.17327,0 0.40045,-0.2226 0.50486,-0.49468 z m 108.0789348,-1.3574 c 1.0184,-1.12421 3.40985,-5.54849 3.14324,-5.8151 -0.21242,-0.21242 -5.11993,1.0091 -6.8635798,1.70839 -0.73485,0.29472 -0.80292,0.48425 -0.58712,1.63459 0.44055,2.34831 1.12164,3.26587 2.4242398,3.26587 0.75905,0 1.41439,-0.27622 1.88322,-0.79375 z m -48.4876598,-15.1076 -0.19347,-10.96247 1.20018,0.11455 1.20017,0.11455 0.2573,7.76111 c 0.38828,11.71194 0.51259,12.7867 1.55815,13.47178 0.77469,0.50759 1.40351,0.52595 5.68682,0.166 3.12923,-0.26295 4.98479,-0.57365 5.29828,-0.88714 1.1501,-1.15011 1.20786,-10.94283 0.11223,-19.03 -0.24009,-1.77214 -0.19335,-2.0909 0.34918,-2.38125 0.81587,-0.43664 1.63296,-0.42664 1.91108,0.0234 0.62358,1.00897 1.23113,8.449 1.23113,15.07638 v 5.83522 l 2.55764,-0.22515 c 2.78116,-0.24484 11.95817,-2.03632 14.20965,-2.77394 2.02025,-0.66186 2.33617,-1.88073 2.40404,-9.27527 0.0523,-5.69303 -0.63241,-11.88199 -1.50076,-13.56576 -0.1455,-0.28214 -1.27455,-1.06721 -2.509,-1.74459 l -2.24444,-1.23161 -4.60648,0.76879 c -2.53357,0.42283 -6.03524,0.94793 -7.78149,1.16687 -1.74625,0.21895 -3.22639,0.44487 -3.2892,0.50205 -0.0628,0.0572 0.13655,0.58888 0.44304,1.18156 0.52434,1.01396 0.51683,1.09923 -0.12719,1.44389 -1.08379,0.58003 -1.46639,0.44912 -2.6337,-0.90117 l -1.09572,-1.26747 -5.29167,0.29733 c -4.99896,0.28088 -5.28704,0.33636 -5.20801,1.00289 0.046,0.38805 8.8e-4,1.07239 -0.1003,1.52075 -0.15158,0.67175 -0.37843,0.79591 -1.28915,0.70556 -0.90401,-0.0897 -1.17876,-0.32935 -1.50932,-1.31657 -0.22226,-0.66381 -0.71167,-1.32243 -1.08756,-1.4636 -0.37589,-0.14118 -3.27554,-0.27365 -6.44366,-0.2944 l -5.76023,-0.0377 -0.55509,1.41313 c -0.54902,1.39766 -1.18044,1.72073 -2.15537,1.1028 -0.28744,-0.1822 -0.42564,-0.7639 -0.35277,-1.48488 0.15003,-1.48452 0.10685,-1.49807 -7.09544,-2.2268 -5.98244,-0.6053 -5.93159,-0.61436 -7.96526,1.4193 -3.24021,3.24021 -4.84699,14.74729 -3.0112,21.5649 0.61385,2.27969 2.40871,2.7518 15.67479,4.12301 l 2.06921,0.21388 -0.25304,-1.33079 c -0.67046,-3.52597 -0.87258,-5.95881 -0.87258,-10.50301 0,-4.52727 0.39742,-9.17225 0.82101,-9.59584 0.095,-0.095 0.6206,-0.0744 1.16805,0.0457 l 0.99537,0.21842 v 8.19363 c 0,7.79938 0.35985,11.54055 1.24832,12.97813 0.41356,0.66914 2.89099,0.93522 9.21025,0.98918 l 5.51968,0.0471 z m 22.49492,6.38587 c -0.4606,-0.29121 -0.44966,-0.46144 0.0882,-1.37195 0.77906,-1.31885 0.77808,-2.01824 -0.003,-2.35941 -0.50312,-0.21967 -0.42151,-0.31147 0.44097,-0.49608 1.54399,-0.33047 2.29305,0.26006 2.29305,1.80773 0,0.98493 -0.22563,1.47813 -0.92952,2.03181 -1.05141,0.82704 -1.15964,0.84926 -1.88938,0.3879 z m -60.82286,-1.15605 c -0.60538,-3.01827 -0.62803,-7.30168 -0.0592,-11.20069 0.86564,-5.93394 1.81677,-8.68855 3.98204,-11.53262 l 0.85701,-1.12567 -1.34888,-0.23827 c -0.74189,-0.13104 -2.8348,-0.5373 -4.65091,-0.9028 -4.30188,-0.86575 -4.50491,-0.85225 -5.924095,0.3938 -1.35289,1.18785 -1.94694,1.30634 -2.60061,0.51872 -0.34565,-0.41648 -0.35551,-0.74226 -0.0432,-1.42771 0.22255,-0.48845 0.40464,-0.94406 0.40464,-1.01247 0,-0.0684 -1.17843,-0.38656 -2.61874,-0.70699 -1.44031,-0.32044 -3.84363,-0.97138 -5.34072,-1.44653 -1.49709,-0.47515 -2.78321,-0.86391 -2.85804,-0.86391 -0.22506,0 -0.86769,1.7924 -1.58104,4.40973 -1.00461,3.68604 -1.28697,11.97629 -0.51047,14.98824 0.32445,1.25854 0.80968,2.62365 1.07828,3.03358 0.58875,0.89854 5.80023,3.67401 6.89866,3.67401 0.6519,0 0.73799,-0.13123 0.52071,-0.79375 -0.14318,-0.43656 -0.33676,-3.27934 -0.43018,-6.31728 -0.17859,-5.80796 0.091,-8.02224 1.31334,-10.78545 l 0.68851,-1.5565 1.00001,0.59071 1.00001,0.59072 -0.68978,1.99203 c -0.98957,2.85781 -1.22846,10.59088 -0.43192,13.98212 0.68028,2.8963 1.23469,3.84982 2.67,4.59204 1.25777,0.65042 6.878115,2.22895 8.066725,2.26562 0.76034,0.0235 0.81657,-0.0802 0.60788,-1.12068 z m 99.5295498,-0.47772 c -0.11722,-0.11722 -0.4215,-0.12976 -0.67616,-0.0279 -0.28142,0.11262 -0.19783,0.19621 0.21314,0.21314 0.37189,0.0153 0.58025,-0.0681 0.46302,-0.18529 z m -14.36834,-1.67969 c 2.23132,-0.70837 4.3318,-1.50042 4.66774,-1.76012 1.2134,-0.93803 1.83899,-4.57367 1.82991,-10.63455 -0.0126,-8.42431 -0.83782,-11.23917 -3.77959,-12.89254 -0.93405,-0.52497 -1.7525,-0.71224 -2.6519,-0.60679 -1.27677,0.14969 -10.0177398,1.93519 -10.9457898,2.23587 -0.31774,0.10295 0.041,0.7245 1.09452,1.89624 1.73147,1.92582 2.49203,4.03322 3.07416,8.51813 0.41692,3.212 0.43654,11.23478 0.0326,13.3259 l -0.29762,1.5407 1.45951,-0.16746 c 0.80273,-0.0921 3.28513,-0.74702 5.5164498,-1.45538 z m 0.96607,-9.96549 c -0.22491,-0.36392 0.29676,-1.47114 0.55796,-1.18424 0.0832,0.0914 0.0399,0.47313 -0.0964,0.84831 -0.1362,0.37518 -0.34392,0.52635 -0.46161,0.33593 z m 0.79782,-0.31251 c 0,-0.097 0.0794,-0.17639 0.17638,-0.17639 0.097,0 0.17639,0.0794 0.17639,0.17639 0,0.097 -0.0794,0.17638 -0.17639,0.17638 -0.097,0 -0.17638,-0.0794 -0.17638,-0.17638 z m 11.13372,5.11872 c 0.2057,-0.002 0.85806,-0.47671 1.44969,-1.05513 1.46701,-1.43428 2.04863,-4.28749 2.01493,-9.88443 -0.0265,-4.3968 -0.66038,-8.75933 -1.75574,-12.08307 -0.75337,-2.28604 -1.44925,-2.40798 -5.73163995,-1.00436 -4.52395005,1.48279 -4.66324005,1.57881 -3.55508005,2.45049 1.37199,1.0792 2.77222005,3.99482 3.33756005,6.94959 0.58516,3.05835 0.6789,10.59839 0.17037,13.70368 -0.18724,1.14335 -0.26192,2.20586 -0.16596,2.36113 0.096,0.15527 1.00413995,-0.10396 2.01816995,-0.57607 1.01403,-0.47211 2.012,-0.85994 2.2177,-0.86183 z m -0.55039,-19.05345 c 0,-0.2587 0.10583,-0.36453 0.23518,-0.23518 0.12936,0.12935 0.12936,0.34102 0,0.47037 -0.12935,0.12935 -0.23518,0.0235 -0.23518,-0.23519 z m -43.7444398,-3.31944 c 17.38313,-2.0871 38.3975598,-7.41382 47.8013798,-12.11664 7.9788802,-3.99022 15.6530802,-11.47511 19.0241102,-18.55484 3.81855,-8.01957 6.1995,-20.02207 6.1995,-31.25196 0,-7.8119 -2.9942,-23.67421 -4.42076,-23.41977 -0.77882,0.13891 -1.03027,1.16105 -0.56859,2.31133 0.99568,2.48077 0.98928,2.52413 -0.33493,2.26942 -1.55986,-0.30004 -2.78961,-1.70313 -2.78961,-3.18283 0,-1.5913 -0.53302,-2.17884 -3.175,-3.49974 l -2.29305,-1.14645 v -2.4948 c 0,-3.0595 -0.24507,-3.39407 -3.60914,-4.92712 -1.41046,-0.64277 -2.56447,-1.34689 -2.56447,-1.56471 0,-0.62811 0.7151,-1.85495 1.69148,-2.90195 0.82796,-0.88785 0.89405,-1.19476 0.82876,-3.84848 -0.0432,-1.75703 -0.28835,-3.34182 -0.62739,-4.05628 -0.72702,-1.53209 -6.2935202,-6.81318 -9.8944802,-9.38716 -8.60729,-6.15252 -21.1492498,-11.016 -33.4317998,-12.96406 -18.04956,-2.86274 -35.85759,-2.67371 -52.01964,0.55217 -7.39259,1.47554 -13.43859,3.37558 -13.43859,4.22328 0,0.25883 1.03187,1.38216 2.29305,2.4963 1.26119,1.11414 2.29306,2.25299 2.29306,2.53078 0,0.27779 -0.71437,2.14569 -1.5875,4.15089 -0.87312,2.0052 -1.5875,3.77429 -1.5875,3.93132 0,0.15703 0.55563,1.06701 1.23472,2.02217 1.26378,1.77753 1.56349,3.25926 0.81139,4.01136 -0.84562,0.84562 -1.96572,0.44655 -3.43652,-1.22438 l -1.45037,-1.6477 -1.13725,1.07621 c -1.53423,1.45188 -2.20332,1.75206 -4.559825,2.04565 l -2.01145,0.2506 -0.39503,1.90285 c -0.44608,2.14874 -1.28137,2.9084 -2.41768,2.19876 -0.84212,-0.52591 -1.80743,-2.49381 -1.80743,-3.68465 0,-1.44157 -0.62318,-2.25789 -1.72366,-2.25789 -2.78862,0 -4.05381,-1.32558 -4.96641,-5.20348 -0.23972,-1.01864 -0.56452,-1.85208 -0.72177,-1.85208 -0.9897,0 -7.76114,6.25641 -10.65523,9.84479 -10.64963,13.2045 -16.14428,29.79649 -16.24986,49.06909 -0.0428,7.81802 0.50707,12.11154 2.40555,18.7821 2.75625,9.68444 8.60918,19.33448 14.44888,23.82268 2.64225,2.03074 10.649,6.12286 14.99306,7.6627 7.90154,2.80087 23.274755,5.49919 37.923605,6.65637 4.64538,0.36696 27.37294,-0.0771 31.92639,-0.62385 z m -62.217705,-6.23116 c -1.00493,-0.79048 -1.264,-2.5708 -0.56433,-3.87814 0.4694,-0.87708 1.04592,-0.87819 1.04592,-0.002 0,1.76512 2.225115,2.39322 2.901225,0.81895 0.57351,-1.33539 0.62061,-1.37255 0.99312,-0.78353 0.56302,0.89026 0.37094,2.67624 -0.39217,3.64637 -0.9121,1.15956 -2.651685,1.24617 -3.983765,0.19836 z m 106.6676948,-8.79384 c -0.94242,-0.94242 -0.90385,-4.26278 0.0427,-3.67776 0.17687,0.1093 0.22936,0.34794 0.11666,0.53029 -0.46232,0.74805 0.24219,1.73636 1.23776,1.73636 1.01283,0 1.42509,-0.51861 1.42509,-1.79274 0,-0.90378 0.53992,-0.85606 1.21471,0.10735 1.24525,1.77783 0.12898,3.80206 -2.09666,3.80206 -0.76435,0 -1.5035,-0.26879 -1.94028,-0.70556 z m -117.8277648,-5.48388 c -8.95785,-1.90992 -16.32845,-7.62085 -20.46807,-15.85917 -3.05183,-6.07352 -4.32198,-13.3306 -3.56106,-20.34635 0.96206,-8.87025 4.04285,-15.36819 10.08991,-21.28143 4.49028,-4.39092 9.71466,-7.09809 15.70311,-8.13705 14.531315,-2.52108 29.930555,7.51747 34.670055,22.60094 2.06361,6.56742 2.23653,14.68249 0.43224,20.28472 -3.87568,12.03381 -13.15036,20.42766 -25.167365,22.7772 -3.20902,0.62742 -8.65873,0.60932 -11.69882,-0.0389 z m 11.8063,-5.61531 c 3.280635,-0.62769 8.564695,-3.06398 11.433835,-5.27173 2.29294,-1.76438 5.3669,-5.25348 6.38279,-7.24479 1.19267,-2.33783 1.87297,-5.30871 1.64889,-7.20072 -0.16774,-1.41628 -0.48152,-2.05783 -1.56722,-3.20428 -0.74662,-0.7884 -1.61549,-1.85187 -1.93081,-2.36327 -1.57734,-2.55815 -6.44892,-3.1768 -8.96701,-1.13874 -2.7279,2.20787 -3.51794,5.31089 -2.12619,8.35089 l 0.88916,1.94218 -0.93557,0.86981 c -3.500855,3.25479 -7.140285,4.64853 -11.536085,4.41781 -2.45832,-0.12903 -3.31906,-0.34878 -5.29557,-1.352 -1.29944,-0.65957 -3.19167,-2.03616 -4.21041,-3.06306 -1.01766,-1.02582 -2.03455,-1.86513 -2.25976,-1.86513 -0.2252,0 -0.89731,0.55563 -1.49356,1.23472 -0.59626,0.6791 -1.21409,1.23473 -1.37298,1.23473 -0.35782,0 -0.91242,-1.77605 -1.21177,-3.88056 -0.25466,-1.79032 -1.02167,-3.175 -1.75872,-3.175 -1.08384,0 -2.59377,1.76132 -3.01492,3.51687 -0.96595,4.02652 1.5793,9.38317 6.17099,12.98727 6.15201,4.82883 13.57518,6.65524 21.15491,5.205 z m -4.32336,-24.14248 c 2.98359,-2.66584 -0.1418,-7.55915 -3.73808,-5.8526 -1.68473,0.79945 -2.52144,2.59137 -1.97836,4.23691 0.8798,2.66583 3.66127,3.45198 5.71644,1.61569 z m -9.55676,-0.32971 c 0.12058,-0.12956 0.49063,-1.1202 0.82235,-2.20142 1.02181,-3.33061 3.03749,-4.97017 6.8689,-5.58721 6.08162,-0.97941 9.174025,-6.63461 6.52967,-11.94111 -3.70153,-7.42801 -14.48838,-7.64581 -21.69611,-0.43808 -3.17892,3.17892 -4.62488,6.12477 -4.84129,9.86316 -0.13891,2.39951 -0.0446,3.01349 0.71929,4.682 1.39603,3.04934 3.88764,5.12571 7.14462,5.95395 1.12214,0.28536 4.08375,0.065 4.45257,-0.33129 z m 36.881225,25.45842 c -0.35334,-0.35334 -0.28307,-1.59994 0.0776,-1.37702 0.17204,0.10633 0.50115,-0.0336 0.73135,-0.31099 0.2302,-0.27737 0.64506,-0.41739 0.92192,-0.31115 0.56924,0.21844 0.69186,1.17601 0.15059,1.17601 -0.19403,0 -0.35278,0.23813 -0.35278,0.52917 0,0.52913 -1.08491,0.73777 -1.5287,0.29398 z m 1.88148,-1.35232 c 0,-0.097 -0.0794,-0.17638 -0.17639,-0.17638 -0.097,0 -0.17639,0.0794 -0.17639,0.17638 0,0.097 0.0794,0.17639 0.17639,0.17639 0.097,0 0.17639,-0.0794 0.17639,-0.17639 z m 67.5076198,1.08935 c -6.2315598,-1.18706 -11.5444898,-3.82489 -16.3623598,-8.12379 -3.35962,-2.99774 -5.82382,-6.28672 -7.97159,-10.63975 -2.51805,-5.10351 -3.33106,-8.79321 -3.37362,-15.31053 -0.0375,-5.73893 0.74661,-9.42704 3.03749,-14.28749 3.43307,-7.28378 9.21758,-13.00538 16.06406,-15.88936 4.60266,-1.93881 7.06635,-2.41742 12.3595098,-2.40107 5.84214005,0.0181 8.83595,0.72608 13.93472,3.29555 15.0517402,7.58516 22.8937702,24.82494 18.6957602,41.10043 -1.62057,6.28287 -6.32438,12.87436 -11.93011,16.71776 -2.53074,1.73513 -7.7998002,4.1231 -10.9989902,4.98481 -3.59071995,0.96717 -9.91693,1.22739 -13.45487,0.55344 z m 13.45487,-6.38293 c 4.25853,-1.19267 8.8929202,-3.96773 12.1471202,-7.27366 3.415,-3.4693 5.16122,-8.82627 3.76022,-11.5355 -0.57027,-1.10279 -2.14588,-2.1792 -3.18982,-2.1792 -0.31506,0 -0.54668,-0.30489 -0.54668,-0.71961 0,-0.97511 -1.15719,-3.16501 -2.17053,-4.10758 -3.36946,-3.13414 -9.2875302,-1.19615 -10.5389202,3.45118 -0.53682,1.99357 -0.1399,3.9054 1.23495,5.94842 l 1.15869,1.72181 -1.1039,1.06712 c -2.57284,2.48712 -8.19096,3.98531 -12.26356,3.27033 -3.2507998,-0.5707 -6.4203898,-2.25941 -8.7942798,-4.68545 -1.11168,-1.13612 -2.22464,-2.06566 -2.47324,-2.06566 -0.2486,0 -0.87258,0.5038 -1.38664,1.11955 -1.4313,1.71447 -1.92497,1.23079 -2.82814,-2.77094 -0.42999,-1.90514 -0.9412,-3.66233 -1.13603,-3.90486 -0.65509,-0.8155 -2.26359,-0.51014 -3.20478,0.6084 -3.14019,3.73191 -1.68857,9.44551 3.81888,15.03117 3.77382,3.82741 8.0131,6.17029 13.4055598,7.40872 2.85355,0.65535 11.21181,0.42776 14.1111,-0.38424 z m -8.32934,-23.30268 c 2.61851,-2.20333 1.05272,-6.50512 -2.36776,-6.50512 -1.72986,0 -3.5903898,1.91948 -3.5903898,3.70416 0,1.01407 0.2675998,1.57288 1.1994398,2.50473 1.52292,1.52292 3.17841,1.62597 4.75871,0.29623 z m -10.1977598,-1.2101 c 0.35909,-0.19218 0.9048,-1.10499 1.21268,-2.02847 0.61526,-1.84543 2.13866,-3.67707 3.7522698,-4.51151 0.57292,-0.29627 2.17858,-0.68142 3.56812,-0.8559 1.86777,-0.23453 2.9007,-0.58027 3.96196,-1.32616 6.9352,-4.87423 3.40129,-14.97306 -5.65056,-16.14757 -7.8589898,-1.01973 -17.1215798,6.59834 -17.6840798,14.54435 -0.0928,1.31142 0.012,3.05242 0.23287,3.86888 0.43646,1.61305 2.14254,4.0524 3.57786,5.1156 1.95382,1.44727 5.54862,2.13299 7.02888,1.34078 z m -50.08817,26.76597 c -2.7209,-1.07928 -4.92999,-4.82653 -4.93544,-8.37197 -0.003,-2.07931 0.0827,-2.32625 1.196,-3.43958 2.01303,-2.01303 4.69844,-1.25971 5.3621,1.5042 0.75811,3.15719 2.09616,3.71086 4.5256,1.87265 1.62882,-1.23242 2.87008,-1.32134 4.78785,-0.34296 1.66428,0.84905 2.41197,0.88295 3.44929,0.15638 0.6492,-0.45472 0.78405,-0.88409 0.78405,-2.49658 0,-1.68203 0.14052,-2.08793 1.03119,-2.9786 1.1881,-1.1881 1.73585,-1.25789 3.45816,-0.4406 1.73615,0.82385 2.54852,2.74021 2.55845,6.03531 0.008,2.63369 -0.55565,4.58926 -1.6814,5.83413 -1.6522,1.82704 -5.07855,2.53568 -7.13028,1.47469 -0.91563,-0.47349 -1.05559,-0.47145 -1.33032,0.0195 -0.16886,0.30174 -0.95418,0.77159 -1.74516,1.0441 -1.42163,0.48979 -2.74386,0.34784 -4.16426,-0.44706 -0.40855,-0.22863 -0.97971,-0.1304 -1.86449,0.32069 -1.3922,0.70979 -2.92668,0.80102 -4.30134,0.25574 z m 4.71226,-16.36611 c -0.64239,-1.67403 1.25731,-4.05322 3.23634,-4.05322 2.41201,0 4.28453,2.92975 2.5624,4.00911 -0.47028,0.29475 -0.7831,0.20641 -1.43385,-0.40494 -1.05267,-0.98893 -1.46314,-0.98478 -1.92067,0.0194 -0.43103,0.946 -2.13139,1.24489 -2.44422,0.42966 z m 6.8077,-23.74835 c -0.68257,-0.75424 -0.76592,-2.20668 -0.16133,-2.81127 0.32817,-0.32818 0.64327,-0.21103 1.41111,0.52461 1.08816,1.04252 1.30066,2.38378 0.43058,2.71766 -0.84199,0.3231 -1.04504,0.27102 -1.68036,-0.431 z m 12.21129,-27.39455 c -2.39554,-1.04141 -3.42403,-4.992 -1.82788,-7.02117 2.01121,-2.55684 6.14091,-2.63039 7.88494,-0.14044 0.77474,1.1061 0.71217,4.06392 -0.11465,5.41981 -0.7187,1.17859 -2.651,2.27306 -3.9742,2.25101 -0.45574,-0.008 -1.34144,-0.23674 -1.96821,-0.50921 z m 3.12668,-2.70596 c 0.74304,-0.85673 0.87495,-2.7637 0.2354,-3.40324 -0.70169,-0.70169 -2.30304,-0.50306 -2.90805,0.36072 -0.74906,1.06943 -0.6894,2.25072 0.15639,3.0965 0.91051,0.91051 1.69434,0.8937 2.51626,-0.054 z m 39.3615798,-5.81077 c -0.46721,-0.4672 -0.25261,-1.8199 0.32381,-2.04109 0.78183,-0.30002 1.60004,0.44978 1.47162,1.34858 -0.10433,0.73018 -1.29754,1.19041 -1.79543,0.69251 z m -24.7093298,-4.95377 c -0.44604,-0.44604 -0.23345,-1.80545 0.40582,-2.59491 0.53075,-0.65545 0.76587,-0.72477 1.36704,-0.40303 0.95944,0.51347 1.21101,1.60214 0.57879,2.50475 -0.48911,0.6983 -1.8592,0.98564 -2.35165,0.49319 z m -59.97221,-2.82222 c -0.38331,-0.38331 -0.26818,-1.70738 0.18815,-2.1637 0.57402,-0.57403 2.27979,-0.53698 2.50674,0.0544 0.10084,0.26278 -0.2061,0.89778 -0.68209,1.41111 -0.85173,0.91855 -1.55015,1.1608 -2.0128,0.69814 z m 51.61757,-2.06828 c -0.41281,-0.77134 -0.40069,-0.96925 0.0894,-1.45935 1.16522,-1.16522 2.6018,0.4327 1.49176,1.65929 -0.8131,0.89846 -1.00641,0.87402 -1.58118,-0.19994 z m -33.85788,-1.39683 c -0.63243,-0.76203 -0.1383,-2.8977 0.81493,-3.52228 1.43727,-0.94174 3.06241,0.24995 3.06241,2.24561 0,1.51442 -2.89023,2.46607 -3.87734,1.27667 z m -70.999735,104.0196 c 0.97535,-0.26138 0.99224,-0.74714 0.0659,-1.89431 -0.3917,-0.48507 -1.2805,-1.75507 -1.97511,-2.82222 -0.69461,-1.06716 -1.30834,-1.99167 -1.36385,-2.05449 -0.0555,-0.0628 -0.58405,0.13563 -1.17453,0.44097 -1.78146,0.92123 -3.40558,0.72997 -4.28465,-0.50457 -1.76468,-2.47827 -1.68167,-4.78661 0.25344,-7.04735 l 1.2407,-1.44948 -1.01114,-1.62594 c -1.37502,-2.21106 -2.38365,-2.87263 -5.07162,-3.32654 -3.34615,-0.56506 -3.19926,-0.47539 -2.77454,-1.69374 0.50167,-1.43909 2.48207,-3.11247 4.0264,-3.40219 0.71551,-0.13423 1.19999,-0.40951 1.11715,-0.63476 -0.0805,-0.21876 -0.42767,-2.22337 -0.77162,-4.45469 -0.82525,-5.35385 -0.71543,-5.05623 -1.67605,-4.54213 -1.39128,0.7446 -4.64709,4.2981 -5.64031,6.15604 -2.58433,4.8343 -2.68156,11.99757 -0.24015,17.69313 0.97756,2.28057 3.29788,5.5263 4.801,6.71581 2.02864,1.60536 5.6998,3.51946 7.86702,4.10176 2.01914,0.54251 5.24611,0.71074 6.61198,0.3447 z m 172.866415,-8.54409 c 2.01763,-0.62795 4.93861,-2.35992 6.78565,-4.02349 2.79687,-2.51903 5.29,-6.83314 6.21706,-10.75797 0.68586,-2.90368 0.47666,-9.13231 -0.40581,-12.08265 -0.83165,-2.78042 -2.73752,-6.04279 -4.64389,-7.94916 -1.57967,-1.57967 -4.27557,-3.5241 -4.53139,-3.26829 -0.1834,0.1834 -0.45455,2.84337 -0.70515,6.9175 l -0.22375,3.63755 1.25292,-0.23505 c 1.58783,-0.29788 4.16503,0.87089 4.74965,2.15398 0.53966,1.18443 0.58877,1.09936 -0.91589,1.5865 -3.9673,1.28442 -6.08801,3.13098 -6.95356,6.05466 l -0.44682,1.50926 1.50359,1.41111 c 1.93197,1.81315 2.58297,3.77401 1.95206,5.87979 -0.90155,3.0091 -3.31487,4.23199 -5.79698,2.93748 -0.55575,-0.28985 -1.06902,-0.527 -1.14058,-0.527 -0.0716,0 -0.55103,0.83344 -1.06547,1.85209 -0.51444,1.01864 -1.39183,2.51799 -1.94975,3.33188 -0.93779,1.36804 -0.96751,1.50711 -0.39351,1.84136 0.99162,0.57744 4.43451,0.43917 6.71162,-0.26955 z m -9.24601,-67.34535 c -0.57324,-3.22442 -7.0494,-14.55209 -8.31959,-14.55209 -0.13916,0 -0.35259,0.62272 -0.47429,1.38381 -0.12171,0.7611 -0.61825,1.85558 -1.10342,2.43218 -0.48518,0.5766 -0.88214,1.11938 -0.88214,1.20618 0,0.0868 0.6385,0.34912 1.4189,0.58293 0.7804,0.23382 1.99195,0.76322 2.69233,1.17646 l 1.27343,0.75134 -0.21638,2.55981 -0.21638,2.55981 2.90391,1.57995 c 1.59715,0.86897 2.96126,1.59403 3.03136,1.61124 0.0701,0.0172 0.0216,-0.56402 -0.10773,-1.29162 z M -104.9596,-370.34068 c -0.5724,-0.6897 -1.05298,-0.15993 -0.60844,0.67071 0.30672,0.57311 0.45555,0.62841 0.68633,0.25501 0.16849,-0.27262 0.13513,-0.66905 -0.0779,-0.92572 z m 6.990825,-3.01128 c 2.60877,-2.40467 5.62598,-7.49906 5.27341,-8.90383 -0.20904,-0.83286 -4.43963,-4.76936 -5.12567,-4.76936 -0.67159,0 -8.894635,4.03661 -11.064145,5.43127 -1.125,0.72321 -2.18242,1.67517 -2.34983,2.11548 -0.35186,0.92548 0.0506,5.00664 0.54225,5.49826 0.18251,0.18252 1.9522,0.48431 3.93265,0.67065 2.22161,0.20904 3.90567,0.55234 4.39673,0.8963 1.37442,0.96268 2.620585,0.69647 4.394605,-0.93877 z"
       id="path294" /></g></svg>
