<?xml version="1.0" encoding="UTF-8" standalone="no"?>
<!-- Created with Inkscape (http://www.inkscape.org/) -->

<svg
   width="206.66257mm"
   height="232.84334mm"
   viewBox="0 0 206.66258 232.84332"
   version="1.1"
   id="svg1"
   xml:space="preserve"
   xmlns="http://www.w3.org/2000/svg"
   xmlns:svg="http://www.w3.org/2000/svg"><defs
     id="defs1"><clipPath
       clipPathUnits="userSpaceOnUse"
       id="clipPath6"><path
         id="path7"
         style="fill:#ff0000;fill-opacity:1;fill-rule:nonzero;stroke:none;stroke-width:0.264583"
         d="M -175.07778,-16.057127 V 287.55793 H 124.54631 V -16.057127 Z m 132.7459,202.572647 c 0.210643,0.005 0.427212,0.0169 0.650089,0.0367 2.23823,0.19855 4.475655,0.4031 6.717938,0.55346 1.973313,0.11308 0.986628,0.0436 2.958475,0.20825 3.181295,0.26563 4.740125,1.85116 4.950601,3.46956 4.949923,1.63749 3.796379,7.35609 -2.592089,6.81354 -3.228716,-0.27422 -1.569593,-0.1301 -4.979024,-0.43357 -4.228209,-0.39317 -8.460616,-0.76265 -12.666927,-1.35341 -6.647387,-0.93358 -5.930551,-7.21034 0.03204,-7.20421 0.04685,5e-5 0.0972,0.004 0.144695,0.005 0.687229,-1.21692 2.304132,-2.15435 4.784204,-2.09548 z" /></clipPath><clipPath
       clipPathUnits="userSpaceOnUse"
       id="clipPath76"><path
         id="path77"
         style="fill:#ff0000;fill-opacity:1;fill-rule:nonzero;stroke:none;stroke-width:0.264583"
         d="M -133.83107,-122.52355 V 173.82063 H 122.97289 V -122.52355 Z M 13.574404,98.948202 c 2.788179,0.0507 4.135003,2.063798 3.398242,4.077268 0.199805,0.45372 0.374906,0.96736 0.517797,1.54461 1.07913,4.35948 0.671079,8.891 0.311608,13.31495 -0.351859,3.06036 -0.147137,1.57974 -0.604097,4.44366 -0.359666,2.25418 -1.333846,3.66838 -2.455664,4.32532 0.105138,0.36595 0.224724,0.72888 0.324528,1.09554 0.6273,2.23652 0.575201,4.47401 0.39429,6.75514 -0.137303,1.73129 -0.688065,2.99533 -1.427303,3.82199 -0.112477,0.41601 -0.170275,0.80219 -0.311092,1.25212 -0.184975,0.59102 -0.413327,1.1061 -0.670242,1.55856 0.741137,-0.23134 1.446982,-0.38145 2.064991,-0.37517 4.085002,0.0415 5.222724,4.75435 -0.02223,7.27138 -4.46677,2.14368 -9.303523,3.34693 -14.11903492,4.40955 -4.40876268,0.85156 -8.89238128,1.33053 -13.38264308,1.19269 -5.804014,-0.17807 -6.736297,-5.00293 -3.065447,-6.67298 -2.072987,-0.65744 -4.042852,-1.62261 -4.128947,-3.14709 -0.02802,-0.49633 0.0026,-0.90355 0.0341,-1.30897 -1.976731,-0.003 -3.95339,2.4e-4 -5.930386,0.003 -0.814031,0 -1.53062,-0.0962 -2.159559,-0.26149 -0.376306,0.19492 -0.742394,0.40783 -1.120862,0.59893 -6.391272,3.22657 -9.625245,-3.24074 -3.234428,-6.46886 1.833438,-0.92611 3.62694,-1.92211 5.414142,-2.92954 -0.877003,-3.87058 -1.368747,-7.83436 -1.323951,-11.80858 0.01651,-1.46304 0.376836,-2.54918 0.864547,-3.41426 -1.247357,-1.79999 -0.223805,-4.63069 3.842661,-5.68855 3.11826,-0.81116 6.282901,-1.39515 9.473837,-1.82211 -1.259816,-0.12657 -2.516182,-0.30233 -3.764627,-0.50177 -1.477002,-0.21985 -2.935575,-0.54305 -4.407482,-0.7891 -1.14214,-0.22954 -0.588502,-0.12004 -1.660882,-0.3297 -3.350244,-0.65501 -4.783278,-2.61088 -4.608504,-4.32997 -0.200179,-1.7721 1.333365,-3.52972 4.663799,-3.59461 v -5.3e-4 c 0.20954,-0.004 0.426035,-0.002 0.649571,0.008 1.77111,0.0772 3.528708,0.28204 5.26428,0.64027 1.655035,0.33225 3.314115,0.6481 4.955251,1.04439 1.244759,0.34858 2.51628,0.54538 3.7997689,0.6723 0.025956,0.002 0.052073,0.002 0.078034,0.004 0.4990888,-0.0371 0.9984105,-0.0743 1.4965495,-0.11317 1.346872,-0.12588 2.6913231,-0.25136 4.0457464,-0.24236 1.1278499,-0.0444 2.2567291,-0.10772 3.37498791,-0.26872 0.75719517,-0.11591 1.51142439,-0.25483 2.25722659,-0.4284 0.3616431,-0.12394 0.7240561,-0.24538 1.083138,-0.37775 0.3360393,-0.12388 0.6107589,-0.12825 0.9250071,-0.20723 0.1281086,-0.045 0.2583895,-0.0825 0.3855085,-0.13074 1.9825018,-0.7681 3.9540551,-1.56464 5.9510551,-2.29443 1.050809,-0.383992 1.999634,-0.542639 2.826703,-0.527616 z M 0.70283723,110.39557 c -0.45566013,0.0949 -0.90775367,0.208 -1.36890919,0.2744 -1.16638124,0.15534 -2.34111274,0.24237 -3.51761424,0.26251 0.4031694,0.0896 0.8047355,0.18876 1.2025101,0.308 0.1014836,0.0304 0.1982549,0.075 0.2986907,0.10852 0.4205235,-0.21824 0.9206601,-0.35072 1.4898318,-0.37156 0.39885139,-0.0146 0.83259872,0.0278 1.29449508,0.13023 0.22468681,-0.12213 0.44967525,-0.24374 0.67437529,-0.36587 -0.0326284,-0.11319 -0.058211,-0.22834 -0.0733795,-0.34623 z m 10.24433577,1.02474 c -0.76023,0.21437 -1.5189569,0.4343 -2.2696301,0.68006 -0.031261,0.62207 -0.2256075,1.28373 -0.6464723,1.94355 0.6236891,0.43248 1.2549743,1.04482 1.8634525,1.86862 0.2674939,0.36214 0.4748849,0.75712 0.7188199,1.13223 0.154519,-1.86707 0.314174,-3.74736 0.33383,-5.62446 z m 64.566086,3.39773 c 1.50346,0.0187 3.129182,1.24994 3.928441,4.04678 0.257931,0.90255 0.823497,1.65871 1.488797,2.30735 0.856321,0.95375 1.845738,1.76777 2.801898,2.61638 1.458581,1.46408 2.789203,3.04608 4.169772,4.58215 1.315059,1.44746 2.571226,2.91698 3.543967,4.61884 0.0053,0.01 0.0082,0.0206 0.01344,0.0305 0.734605,-0.43313 1.446276,-0.65634 2.094962,-0.69195 3.016182,-0.16561 4.69137,3.55377 1.187525,7.32306 -1.69471,1.82311 -3.657862,3.33908 -5.68751,4.7651 -0.777873,0.49914 -1.607691,0.90075 -2.418456,1.33842 0.165478,1.44344 -0.672182,3.24303 -2.956409,4.73096 -1.354556,0.88234 -2.690448,1.79306 -4.075203,2.6288 -2.075008,1.20078 -4.233777,2.27962 -6.540687,2.96259 -2.077586,0.62971 -4.169056,1.29987 -6.359301,1.36374 -1.872114,0.0897 -3.746989,0.0368 -5.620845,0.0501 h -5.1108 -5.524728 c -7.160125,0 -7.160125,-7.23315 0,-7.23315 h 1.347722 c 0.29438,-0.0541 0.5212,-0.1588 0.84801,-0.18656 1.106628,-0.094 2.200932,-0.28334 3.292822,-0.48421 0.456121,-0.98163 1.356053,-1.98213 2.807581,-2.83962 1.078018,-0.63685 2.158119,-1.26923 3.212209,-1.94561 1.962647,-1.29302 3.840588,-2.72135 5.893696,-3.86902 1.367169,-0.76424 2.559646,-1.07097 3.526915,-1.04128 2.216811,0.068 3.246223,1.90266 2.479953,4.04059 1.105688,-0.48686 2.206929,-0.98346 3.283003,-1.53739 2.619811,-1.23728 5.288743,-2.38548 7.764385,-3.9026 0.246153,-0.17184 0.487463,-0.34958 0.730705,-0.52503 -0.126915,-0.50614 -0.277693,-0.9939 -0.512114,-1.46554 -0.647621,-1.25778 -1.721077,-2.20654 -2.600875,-3.29644 -1.199229,-1.33472 -2.369312,-2.69496 -3.592029,-4.00803 -1.098706,-0.97599 -2.227236,-1.92181 -3.215306,-3.01428 -1.300821,-1.39063 -2.459913,-2.93896 -3.045293,-4.77801 -1.289469,-4.05101 0.646382,-6.61405 2.843754,-6.58667 z m -95.086705,4.28035 c -0.465643,0.10748 -0.930899,0.21773 -1.394745,0.33435 0.171958,0.64334 0.283575,1.36624 0.279569,2.2071 -0.01267,2.6582 0.205063,5.32647 0.670242,7.94732 0.280107,-0.17087 0.565767,-0.33222 0.845429,-0.50385 -0.01897,-0.36223 -0.02445,-0.73164 -0.05529,-1.08985 -0.118034,-2.96491 -0.160888,-5.93314 -0.3452,-8.89507 z m 18.5141159,1.1958 c 0.00497,0.0773 0.00619,0.15612 0.014975,0.23202 -0.1238779,0.22787 -0.2588048,0.44752 -0.3937741,0.66715 0.58900751,0.0447 1.13203305,0.21413 1.64331124,0.45888 -0.37615284,-0.49255 -0.78353709,-0.94642 -1.26452314,-1.35805 z m -6.5422357,14.57068 c -0.046649,0.0755 -0.09888,0.14702 -0.1436608,0.22376 -0.03147,0.054 0.1963367,0.0838 0.1860365,0.0222 -0.017595,-0.10481 -0.026035,-0.14905 -0.042376,-0.24597 z m 13.9236979,6.08439 c -0.2236258,0.5643 -0.5677508,1.09664 -1.1782213,1.50533 0.9079653,0.17659 1.7077452,0.44257 2.2830631,0.84852 0.1405493,-0.0459 0.272804,-0.11448 0.4128956,-0.16174 -0.7336976,-0.43656 -1.2984269,-1.18703 -1.5177374,-2.19211 z" /></clipPath><clipPath
       clipPathUnits="userSpaceOnUse"
       id="clipPath127"><path
         id="path128"
         style="fill:#ff0000;fill-opacity:1;fill-rule:nonzero;stroke:none;stroke-width:0.264583"
         d="M -112.24796,-126.55676 V 185.58027 H 148.5754 V -126.55676 Z M 46.874626,83.305366 c 1.808208,0 3.616317,1.790192 3.616317,5.370214 v 5.232238 c 0.0627,2.146078 -0.111291,4.285324 -0.245462,6.424932 -0.136289,2.02485 -0.190703,4.04985 -0.104904,6.07715 0.192061,1.91863 0.527714,3.82569 0.876432,5.72213 0.304242,2.00862 0.765826,3.9858 1.180806,5.97276 0.41642,1.86142 0.967934,3.68703 1.421104,5.53972 0.25287,0.86996 0.117097,0.46495 0.396356,1.22008 0.186108,0.50319 0.223428,0.93098 0.309544,1.38441 4.425355,2.23251 2.751262,7.58433 -3.415813,6.40477 -3.104732,-0.59371 -6.256094,-0.76586 -9.40821,-0.85576 -3.81635,0.009 -7.630525,0.17062 -11.44478,0.28216 -1.12776,0.0333 -2.255837,0.0512 -3.383772,0.0754 -0.908129,0.5548 -1.966518,0.57724 -2.88613,0.0641 -0.03584,5.3e-4 -0.07165,0.002 -0.107487,0.003 -0.03142,5.3e-4 -0.0525,-0.009 -0.08268,-0.009 -0.32049,0.14732 -0.641715,0.29301 -0.962215,0.44028 -0.262501,0.12062 -0.518089,0.22111 -0.770496,0.31265 -0.876996,0.71434 -1.945576,0.85817 -2.911967,0.46405 -2.943479,-0.21613 -4.295167,-2.77187 -2.550232,-5.0524 -2.22e-4,-0.028 -0.0078,-0.0483 -0.0078,-0.0765 v -6.3469 c -0.014,-2.72977 -0.02254,-5.45666 0.112657,-8.18348 0.135676,-2.32533 0.233519,-4.6523 0.299723,-6.98046 0.046,-1.80459 0.06926,-3.60958 0.08527,-5.41465 -0.0258,-1.02998 0.04009,-2.054459 0.138491,-3.078883 0.0044,-0.04602 0.02191,-0.07504 0.02687,-0.120406 C 15.992671,97.193438 15.83363,95.70984 16.656834,94.418959 10.68718,93.678613 10.992573,87.32947 17.739972,87.32947 h 3.885033 5.177462 5.913334 c 1.498505,0.05847 2.984222,-0.03228 4.475178,-0.161748 1.252041,-0.18606 2.49041,-0.398671 3.697968,-0.782897 1.001961,-0.32245 0.492366,-0.161472 1.527553,-0.482142 0.510384,-0.158096 0.938446,-0.174371 1.394749,-0.23771 0.672338,-1.56932 1.86623,-2.35903 3.063377,-2.35903 z" /></clipPath><clipPath
       clipPathUnits="userSpaceOnUse"
       id="clipPath139"><path
         id="path140"
         style="fill:#ff0000;fill-opacity:1;fill-rule:nonzero;stroke:none;stroke-width:0.264583"
         d="M 97.168006,-339.91235 V -44.578961 H 346.46958 V -339.91235 Z m 14.326254,94.53944 c 1.76488,0.006 3.77708,1.78446 4.35839,5.31699 0.32911,1.99994 0.60308,4.00817 0.88884,6.01462 1.02527,-1.2445 2.22305,-1.83589 3.28403,-1.8402 2.05627,-0.008 3.59454,2.17302 2.34611,6.00222 -0.0197,0.0606 -0.0413,0.12046 -0.0615,0.18087 0.31698,0.91799 0.41757,2.09982 0.17777,3.54139 -0.2164,1.30085 -0.62011,2.56457 -1.0263,3.8163 -1.34183,4.13496 -4.42238,4.92072 -6.12882,3.38016 -1.93867,0.62007 -4.30523,-0.86149 -4.65605,-4.82762 -0.16862,-1.90632 -0.33891,-3.81275 -0.57464,-5.71231 -0.45291,-3.52522 -1.07719,-7.02592 -1.48208,-10.55543 -0.40801,-3.55672 1.10935,-5.32303 2.87424,-5.31699 z" /></clipPath><clipPath
       clipPathUnits="userSpaceOnUse"
       id="clipPath170"><path
         id="path171"
         style="fill:#ff0000;fill-opacity:1;fill-rule:nonzero;stroke:none;stroke-width:0.264583"
         d="M 88.756261,-299.52331 V 17.880567 H 410.91541 V -299.52331 Z M 363.24287,-220.863 c 0.90345,-0.008 1.97628,0.23856 3.18532,0.82218 3.39402,1.63831 6.49674,3.81197 9.57823,5.96449 3.22509,2.31448 6.37511,4.73585 9.43663,7.26261 1.87296,1.50796 3.75989,2.99047 5.54284,4.6054 1.76167,1.54167 3.42262,3.17283 4.95419,4.94388 1.19316,1.48882 2.47049,2.9032 3.73311,4.33204 1.08043,1.20022 2.09423,2.45631 2.94299,3.83026 0.82616,1.73429 1.48968,3.55524 1.93786,5.42344 1.67031,6.96258 -5.76469,8.62686 -7.05745,1.5844 -0.21127,-1.15093 -0.75649,-2.20765 -1.10278,-3.32021 -0.52141,-1.02678 -1.43909,-1.82952 -2.14042,-2.72904 -1.28368,-1.45272 -2.58234,-2.89095 -3.79617,-4.40386 -1.32794,-1.55409 -2.79577,-2.95456 -4.33049,-4.3031 -1.69875,-1.54267 -3.51006,-2.94207 -5.29113,-4.38733 -2.90883,-2.40671 -5.90918,-4.70386 -8.97258,-6.91017 -2.63017,-1.83963 -5.2759,-3.68008 -8.12096,-5.17746 -5.14813,-2.7095 -4.41412,-7.50431 -0.49919,-7.53753 z m -17.79788,14.64304 c 0.81097,-0.004 1.74701,0.16947 2.79104,0.57154 4.59168,1.76834 8.99191,4.00303 13.38523,6.20892 0.37082,0.1876 0.72266,0.4088 1.09088,0.601 0.4155,-0.11565 0.91038,-0.17484 1.48572,-0.16691 0.65984,0.009 1.42523,0.10601 2.29753,0.30644 2.35556,0.54125 4.30075,1.95473 6.16344,3.42614 -1.07651,-2.72314 0.34142,-4.84679 2.57866,-4.84311 1.28683,0.002 2.83083,0.70484 4.29689,2.3952 2.44776,2.82227 4.79147,5.70892 6.96391,8.74934 1.67944,2.35043 1.72027,4.43615 0.89969,5.70663 1.5344,1.02281 3.07247,2.04019 4.58422,3.09645 1.80695,1.14136 3.31928,2.58833 4.72631,4.18269 0.96689,1.16625 2.0869,2.25988 2.79262,3.61942 0.19542,0.37651 0.34592,0.77482 0.51882,1.1622 0.40259,1.55462 0.27207,0.76263 0.38706,2.3766 0.0637,0.89436 -0.044,1.45412 -0.26977,1.7756 0.11753,0.20753 0.23421,0.41574 0.35608,0.62063 3.66003,6.15399 -2.6856,9.845 -6.25234,3.63648 -0.83209,-1.44832 -1.62388,-2.92102 -2.35437,-4.42351 -0.84839,-1.84687 -1.70402,-3.69055 -2.54093,-5.54229 -0.078,-0.17246 -0.14713,-0.34128 -0.2119,-0.5085 -0.415,-0.33988 -0.82071,-0.68775 -1.29707,-0.97255 -2.35545,-1.64933 -4.79565,-3.17384 -7.14841,-4.82761 -3.27895,-2.27743 -6.61384,-4.47194 -9.95804,-6.65231 -4.00886,-2.60003 -8.08797,-5.09434 -12.3548,-7.25434 -4.08429,-2.05175 -8.1752,-4.1242 -12.42663,-5.81101 -5.61546,-2.22804 -4.88331,-7.4129 -0.50384,-7.43314 z m -225.34594,21.50101 c 3.05551,-0.16929 4.03285,3.80875 0.35915,7.72563 -1.17612,1.25397 -2.32696,2.59265 -3.45922,3.90674 -1.44062,1.57315 -2.77631,3.23874 -4.13618,4.88135 -1.14319,1.4697 -2.29319,2.93265 -3.46335,4.38113 -0.8717,1.2084 -1.86054,2.32105 -2.81017,3.46594 -0.80685,0.95022 -1.53489,1.96075 -2.32234,2.92695 -0.80594,1.00684 -1.52017,2.08004 -2.22519,3.15847 -0.20511,0.28103 -0.29499,0.51935 -0.30179,0.78909 -0.18033,7.15787 -8.659963,5.5717 -7.093102,-1.4149 0.267098,-1.19094 0.644303,-2.32859 1.347721,-3.34243 0.846108,-1.28566 1.701136,-2.56663 2.670121,-3.76463 0.806525,-0.98525 1.5446,-2.0236 2.37453,-2.98999 0.93132,-1.109 1.88214,-2.2008 2.7342,-3.37448 1.18855,-1.47082 2.35327,-2.95822 3.51813,-4.44779 1.39067,-1.67946 2.758,-3.38112 4.2292,-4.99142 1.55862,-1.80675 3.07205,-3.68494 4.92528,-5.20227 1.38505,-1.13397 2.63451,-1.65096 3.65301,-1.70739 z m 30.4953,3.26389 c 4.11093,0.0973 5.25218,4.81763 -0.0434,7.22591 -1.93926,0.8819 -3.80509,1.88928 -5.66115,2.92437 0.381,1.39299 -0.23993,3.26566 -2.43035,4.98678 -2.3369,1.83618 -4.71607,3.61825 -7.08845,5.40845 -2.84267,2.19936 -5.66068,4.43162 -8.41086,6.74584 -2.22216,1.84972 -4.46469,3.67225 -6.66213,5.55109 -1.67979,1.46598 -3.37138,2.91821 -5.06067,4.37337 -1.40892,1.30469 -2.82191,2.592 -4.12274,4.00648 -1.07181,1.16531 -2.16701,1.83049 -3.17087,2.10529 -0.88357,6.53411 -7.65001,5.87099 -7.10344,-1.07177 0.0596,-0.75732 0.12015,-1.51435 0.21239,-2.26859 0.18237,-1.4495 0.31176,-2.90657 0.57051,-4.34444 0.56059,-2.2771 1.55106,-4.35314 3.32124,-5.95312 1.46716,-1.38711 2.94871,-2.75912 4.4943,-4.05919 1.45063,-1.21601 2.91967,-2.40825 4.4111,-3.57394 2.2284,-1.75259 4.48249,-3.46927 6.81044,-5.08961 3.1083,-2.16601 6.29001,-4.21936 9.5343,-6.17689 3.28252,-2.04598 6.49796,-4.19789 9.78648,-6.23476 2.38673,-1.38679 4.82146,-2.65715 7.33495,-3.79873 1.22236,-0.55516 2.32966,-0.77899 3.27836,-0.75654 z" /></clipPath><clipPath
       clipPathUnits="userSpaceOnUse"
       id="clipPath233"><path
         id="path234"
         style="fill:#ff0000;fill-opacity:1;fill-rule:nonzero;stroke:none;stroke-width:0.264583"
         d="M 185.24069,-319.24193 V -24.289387 H 425.09684 V -319.24193 Z m 138.35487,149.6534 c 1.78419,7.9e-4 3.63037,1.79012 3.80182,5.36608 0.0643,1.33996 -0.0719,2.65433 -0.29041,3.95842 0.27255,-0.0735 0.56767,-0.11689 0.88522,-0.12351 0.37047,-0.008 0.77026,0.0328 1.19579,0.12867 0.38629,-0.24279 0.8215,-0.42195 1.34254,-0.44493 1.13073,-0.0499 2.53823,0.47335 4.04474,1.80971 0.4186,0.37135 0.80759,0.77178 1.2056,1.16323 0.49581,-0.30652 1.09744,-0.47283 1.77559,-0.44028 1.18851,0.0571 2.59295,0.69888 3.98788,2.15129 2.63375,2.74227 4.82211,5.85047 6.92256,9.00669 2.43144,3.88376 4.79634,7.81591 6.98098,11.84475 1.13959,2.01485 2.36363,3.97199 3.24527,6.11746 0.86638,2.54168 0.71525,4.37292 -0.15348,6.88278 -0.88855,2.03627 -2.18951,3.83746 -3.64937,5.49682 -1.22616,1.21887 -2.44396,2.51198 -3.976,3.35587 -0.38219,0.21053 -0.79187,0.3659 -1.18803,0.54881 -6.50071,3.00135 -9.83602,-5.23462 -2.81948,-6.6611 1.07346,-0.21823 1.75532,-1.41088 2.56987,-2.0407 0.86323,-0.96375 1.62015,-2.00233 2.25208,-3.13417 0.24334,-0.63932 0.47847,-1.05078 0.24958,-1.76114 -0.42873,-1.13152 -1.03555,-2.17502 -1.65674,-3.21169 -0.64492,3.08426 -3.96214,3.78517 -6.03631,0.97152 -0.80928,1.85722 -3.53859,2.62684 -6.75775,0.30902 -0.53872,-0.38787 -1.07831,-0.77486 -1.61745,-1.1622 -3.08248,4.62545 -3.94671,5.04673 -6.74584,2.87063 -2.73204,-2.16473 -5.33615,-4.48821 -8.05999,-6.6642 -2.7461,-2.45053 -5.40757,-5.07957 -7.04763,-8.42635 -1.62115,-0.12575 -3.24178,-0.2569 -4.86637,-0.34314 -7.58719,-0.44787 -15.17743,-0.9445 -22.76553,-1.33377 -1.07801,-0.0553 -1.93227,-0.3045 -2.68459,-0.62166 -0.57677,0.62929 -1.1192,1.29485 -1.64021,1.97352 -1.38696,2.1585 -2.2854,4.54313 -3.09181,6.96185 -0.53658,1.90527 -0.93866,3.84574 -1.3658,5.77949 0.3976,-0.38181 0.79402,-0.76498 1.19114,-1.14825 1.44902,-1.39846 2.84121,-1.97983 3.98373,-1.97766 2.91995,0.006 4.20899,3.82009 0.64648,7.53391 -0.92629,0.96557 -1.9114,1.86859 -2.9099,2.75797 -1.78302,1.58814 -3.50499,2.03887 -4.81263,1.76372 -0.007,0.0412 -0.0189,0.0812 -0.0253,0.12247 -0.31138,2.1774 -0.34632,4.38158 -0.39739,6.57686 0.006,3.5147 -0.15426,7.02208 -0.44287,10.52391 -0.15049,2.45352 -0.52882,4.882887 -0.77928,7.326166 -0.25682,2.270699 -0.2357,4.548968 -0.1633,6.828007 0.0525,1.43787 0.0261,0.723201 0.0775,2.145088 7.9e-4,0.02175 -0.006,0.03573 -0.006,0.05736 0.13966,0.0486 0.27673,0.09115 0.42013,0.148309 3.73047,1.486969 7.59999,2.598727 11.41894,3.833876 4.85884,1.705695 9.66861,3.546912 14.50144,5.32474 1.9552,0.651698 3.84707,1.443672 5.71489,2.292366 2.6308,-0.638411 5.26049,-1.281708 7.89771,-1.893425 4.5737,-1.075436 2.35597,-0.547624 6.65438,-1.580782 0.65268,-0.156879 1.2592,-0.237268 1.81642,-0.252698 3.40876,-0.09437 4.96226,2.238663 4.05712,4.350639 3.89832,1.612736 3.00805,6.568553 -2.90269,6.729304 l -2.19726,0.05943 c 0.0932,0.05532 0.18872,0.106439 0.28112,0.163298 6.09814,3.752323 2.1299,10.065517 -3.84782,6.124173 -1.04591,-0.689594 -2.23735,-1.127543 -3.31556,-1.763197 -2.61015,-1.251701 -5.22853,-2.484003 -7.87136,-3.665926 -0.34703,-0.170111 -0.69536,-0.335955 -1.04283,-0.504362 -1.04394,0.228952 -2.09238,0.441277 -3.15071,0.537951 -0.41145,0.100483 -0.82417,0.195434 -1.23558,0.296105 -3.95687,0.968251 -6.08679,-0.907356 -5.97897,-3.010669 -0.31188,-0.687727 -0.239,-1.395294 0.0263,-2.059305 -3.87146,-1.438614 -7.73769,-2.891312 -11.63237,-4.265891 -3.97417,-1.285444 -7.99945,-2.446282 -11.87938,-4.000272 -1.44639,-0.579335 -2.44377,-1.350957 -3.06182,-2.17506 -1.01218,-0.798706 -1.81304,-2.231819 -1.89446,-4.484998 -0.0517,-1.431189 -0.0254,-0.705106 -0.0791,-2.177645 -0.0816,-2.602558 -0.0903,-5.205841 0.19844,-7.79849 0.24823,-2.394268 0.6146,-4.775082 0.76533,-7.179412 0.27808,-3.36008 0.42763,-6.72542 0.42064,-10.09809 0.0594,-2.5132 0.11189,-5.03614 0.48266,-7.52719 0.38072,-2.41928 0.90466,-4.80615 1.46451,-7.18974 0.6701,-2.94551 1.25825,-5.91529 2.11305,-8.81393 1.0668,-3.18776 2.31041,-6.31647 4.23489,-9.10074 0.42128,-0.53977 0.8547,-1.07136 1.29914,-1.59215 -1.52816,-0.60355 -3.06641,-1.18197 -4.57646,-1.83141 -1.09038,3.76762 -2.19021,7.53001 -3.40755,11.25926 -1.05961,2.97655 -0.54118,1.54568 -1.55081,4.2938 -1.83358,4.9908 -6.03644,4.88509 -7.07398,1.75544 -2.82634,3.52841 -7.50378,1.0111 -5.57744,-4.75268 1.05408,-3.1537 2.2385,-6.34595 4.49688,-8.85837 1.49582,-1.66408 2.97572,-2.34765 4.17287,-2.32647 0.33252,0.006 0.64298,0.0664 0.92604,0.17518 0.46945,-1.58214 0.96416,-3.15651 1.43919,-4.7377 0.70062,-2.33196 1.93737,-3.52641 3.18689,-3.8871 0.54142,-0.34307 1.25019,-0.55529 2.11615,-0.57361 h 5.3e-4 c 0.8057,-0.017 1.74503,0.13149 2.80396,0.49248 0.31645,0.10788 0.63769,0.20324 0.94929,0.32401 1.83624,0.71133 3.60046,1.59642 5.43016,2.32544 1.18096,0.47048 2.26953,0.84228 3.35329,1.23145 0.62902,-0.20883 1.22424,-0.32846 1.76785,-0.35037 2.28614,-0.0921 3.73455,1.32842 3.67523,3.07682 1.73917,0.0925 3.47854,0.18832 5.21777,0.2899 -0.1345,-1.7899 1.43141,-3.54652 4.54959,-3.56619 0.39587,-0.002 0.816,0.0231 1.25987,0.0801 3.99155,0.51285 7.97638,1.04608 11.94346,1.72703 0.35092,0.0747 0.7018,0.14913 1.05265,0.22376 0.92028,-2.09088 2.0607,-3.80586 3.79408,-5.38675 0.9172,-0.8245 1.6747,-1.80494 2.07378,-2.98587 0.46483,-1.35061 0.4893,-2.77914 0.4594,-4.19561 h 5.3e-4 c -0.0754,-3.57927 1.64663,-5.36691 3.4308,-5.36608 z m 1.97559,14.00741 c -0.78838,1.39934 -1.79816,2.66075 -2.96984,3.79512 -1.06213,0.94584 -1.80404,2.02586 -2.28153,3.3538 -0.003,0.012 -0.005,0.0237 -0.009,0.0357 1.15411,0.11311 2.30814,0.22665 3.4613,0.3514 3.99042,0.43171 5.40747,2.84663 4.69323,4.76353 0.67585,0.41545 1.35041,0.83313 2.01954,1.25626 3.82278,2.5036 7.53266,5.1715 11.24013,7.84086 -1.81731,-3.68096 -3.93583,-7.19476 -6.36087,-10.5146 -1.10355,-1.48555 -2.20805,-3.00054 -3.36206,-4.44883 -0.35653,-0.44747 -1.7607,-2.16704 -2.34455,-2.70784 -0.36042,-0.33384 -0.93237,-0.68033 -1.36375,-0.9555 -1.33122,-0.84918 -2.21667,-1.81673 -2.72282,-2.76986 z" /></clipPath><clipPath
       clipPathUnits="userSpaceOnUse"
       id="clipPath240"><path
         id="path241"
         style="fill:#ff0000;fill-opacity:1;fill-rule:nonzero;stroke:none;stroke-width:0.264583"
         d="M 92.804184,-309.23338 V -41.629034 H 294.29938 V -309.23338 Z m 130.496946,63.74443 c 0.93337,0.009 2.02072,0.27397 3.21944,0.8785 1.75312,0.88412 3.43212,1.89553 5.06326,2.98586 5.9527,3.97906 1.8926,10.01797 -4.03542,6.00222 -1.36849,-0.92705 -2.78857,-1.76849 -4.26227,-2.51871 -5.18448,-2.63926 -4.02961,-7.38891 0.015,-7.34787 z m -85.24544,1.99626 c 3.36772,-0.0906 4.87054,3.93317 0.67437,7.28431 -0.81214,0.6486 -0.42273,0.34746 -1.1653,0.9064 -1.7275,1.42217 -3.47209,2.82263 -5.29477,4.12275 -2.09112,1.47372 -4.25636,2.82668 -6.45645,4.13153 -6.15846,3.65253 -10.39165,-1.95967 -4.33979,-5.78621 2.21999,-1.40367 4.47897,-2.73503 6.6244,-4.25349 1.67688,-1.19734 3.27994,-2.48915 4.86947,-3.79821 0.91499,-0.69918 0.50268,-0.37435 1.24076,-0.9679 1.39493,-1.12177 2.72473,-1.60899 3.84731,-1.63918 z" /></clipPath><clipPath
       clipPathUnits="userSpaceOnUse"
       id="clipPath251"><path
         id="path252"
         style="fill:#ff0000;fill-opacity:1;fill-rule:nonzero;stroke:none;stroke-width:0.264583"
         d="m 50.06164,-325.07443 v 245.270816 h 202.0347 V -325.07443 Z m 191.06172,72.239 c 1.42195,-0.0396 3.11835,0.92332 4.44418,3.2582 0.80855,1.42391 1.33311,2.97097 1.71979,4.55476 0.38267,1.85761 0.50306,3.75527 0.49506,5.64772 0.007,1.66837 -0.28067,3.30966 -0.52503,4.95318 -0.26767,2.07853 -1.32063,3.82386 -2.54249,5.47306 -0.98598,1.19805 -2.03839,2.33999 -3.16208,3.40961 -0.37488,0.32054 -0.76867,0.61405 -1.09502,0.98443 -4.73356,5.37222 -10.25077,0.0313 -5.19193,-5.03587 0.41783,-0.41852 0.82603,-0.84961 1.30896,-1.19579 0.83199,-0.78568 1.60086,-1.63171 2.34973,-2.49649 0.52191,-0.686 1.06794,-1.32103 1.17874,-2.204 0.19629,-1.31742 0.44949,-2.62948 0.44648,-3.9672 0.0288,-1.3072 -0.0809,-2.61845 -0.30179,-3.90725 -0.20137,-0.91522 -0.51051,-1.80281 -0.96014,-2.62775 -2.14172,-3.92928 -0.53435,-6.78057 1.83554,-6.84661 z m -24.00732,134.01508 c 1.58088,-0.0452 3.27238,1.29937 3.90106,4.36821 0.19779,0.96552 0.49313,1.88927 0.87385,2.79466 0.57738,1.31117 0.86222,2.69631 0.9741,4.11603 0.0779,1.63421 -0.38657,3.16522 -1.00976,4.65191 -0.60784,1.37091 -1.55916,2.5173 -2.50579,3.660755 -0.2566,0.333243 -0.50348,0.67224 -0.76223,1.002525 -0.0721,0.651052 -0.19323,1.300012 -0.35502,1.949752 l -0.4842,1.22783 c -0.70346,1.782932 -1.87803,2.754204 -3.12126,3.127457 -0.38818,0.593834 -0.73665,1.213207 -1.1529,1.788007 -0.78123,1.206815 -1.75001,2.262322 -2.80138,3.23546 -1.04259,0.90742 -2.26203,1.551003 -3.47214,2.198833 -0.81145,0.41652 -1.66264,0.737227 -2.52439,1.030428 -6.77856,2.306214 -9.10653,-4.670343 -2.28979,-6.86108 0.48258,-0.155091 0.95367,-0.335381 1.41232,-0.552421 0.68902,-0.364839 1.38726,-0.713642 2.01745,-1.175639 0.71797,-0.616461 1.30017,-1.358352 1.82004,-2.146123 0.66383,-0.892056 1.26802,-1.828112 1.8216,-2.792076 0.59882,-1.12436 1.07283,-2.316203 1.82056,-3.358968 0.0117,-0.0166 0.0249,-0.032 0.0367,-0.0486 -0.84786,-3.67928 0.87949,-5.67892 2.87217,-5.69422 0.38363,-0.003 0.77643,0.0723 1.16324,0.21859 0.15519,-0.3579 0.298,-0.71847 0.29042,-1.1188 -0.0398,-0.54898 -0.18359,-1.13581 -0.4191,-1.66191 -0.48947,-1.16893 -0.89792,-2.36312 -1.1591,-3.60547 -0.82863,-3.94139 1.021,-6.29698 3.05356,-6.35516 z" /></clipPath><clipPath
       clipPathUnits="userSpaceOnUse"
       id="clipPath278"><path
         id="path279"
         style="fill:#ff0000;fill-opacity:1;fill-rule:nonzero;stroke:none;stroke-width:0.264583"
         d="m -43.212488,-382.05292 v 250.81001 H 185.4025 v -250.81001 z m 181.494868,132.88233 c 1.13528,0.005 2.03811,0.42617 2.60707,1.09037 0.91934,-0.34123 1.78192,-0.54125 2.52078,-0.52658 4.05205,0.0805 5.08945,4.87108 -0.18087,7.33443 -2.21042,1.03317 -4.41856,2.08163 -6.72362,2.89285 -2.86091,0.99315 -5.74924,1.921 -8.52506,3.13986 -6.55592,2.87873 -9.40434,-3.76713 -2.84944,-6.64817 1.1011,-0.48395 2.22936,-0.89759 3.35587,-1.31568 0.52294,-1.00077 1.47788,-2.01475 2.95124,-2.87476 1.0894,-0.6359 2.16914,-1.287 3.24683,-1.94252 1.33817,-0.81396 2.56345,-1.15421 3.5972,-1.1498 z m -133.0900695,2.4753 h 5.5981075 c 7.160125,0 7.160125,7.23263 0,7.23263 H 5.1923105 c -7.1601277,0 -7.1601277,-7.23263 0,-7.23263 z m 42.9880715,50.84496 c 2.044401,-0.008 3.844292,2.25841 2.953308,6.18618 -0.283588,1.25017 -0.481169,2.51568 -0.75189,3.76877 -0.313965,1.46608 -0.73946,2.91235 -1.207162,4.33668 -2.233805,6.80278 -9.211228,4.46329 -6.857981,-2.29908 0.404762,-1.16313 0.726765,-2.36525 0.995807,-3.56619 0.287499,-1.32813 0.484814,-2.67249 0.804084,-3.99407 0.735603,-3.04497 2.473746,-4.42641 4.063834,-4.43229 z m 26.844358,9.60148 c 1.5451,0.0844 3.630816,1.85281 5.237924,5.05189 1.446292,2.8789 3.498345,5.40261 5.377447,8.00674 1.423178,1.86933 2.496352,3.93269 3.488161,6.04873 3.038795,6.48323 -3.64554,9.55837 -6.57066,3.02307 -0.764304,-1.70766 -1.644017,-3.34338 -2.782776,-4.84001 -2.279812,-3.15977 -5.466628,-6.83969 -6.494177,-10.63656 -0.141171,-0.52168 -0.167447,-1.06805 -0.251148,-1.60197 -0.554762,-3.53682 0.450099,-5.13633 1.995229,-5.05189 z m 22.433772,2.07998 v 5.3e-4 c 1.081786,0.0173 2.458693,0.64291 3.986318,2.0805 1.21595,1.14421 2.08888,2.57763 3.1502,3.85661 0.75663,0.91352 1.6619,1.66584 2.53163,2.46393 1.1475,0.93011 2.05703,2.06162 2.85305,3.29799 0.95863,1.59903 1.44035,3.34615 0.97049,5.20227 -0.10236,0.40431 -0.31771,0.77135 -0.47646,1.15703 -1.02548,2.49132 -2.04203,1.65641 -2.97036,0.0238 -2.04159,1.70549 -5.47708,1.09344 -5.78105,-3.28558 -0.003,-0.0322 -0.0142,-0.0648 -0.007,-0.0966 0.005,-0.03 0.0986,-0.0136 0.0827,-0.0393 -0.23736,-0.38486 -0.69492,-0.61714 -1.02216,-0.90227 -1.100378,-0.77725 -2.267905,-1.45106 -3.395141,-2.18798 -3.582773,-2.34245 -3.744537,-5.4822 -2.015898,-6.82284 -0.840523,-2.68156 0.04882,-4.63231 1.88154,-4.74287 0.06945,-0.004 0.140271,-0.006 0.212389,-0.005 z" /></clipPath><clipPath
       clipPathUnits="userSpaceOnUse"
       id="clipPath292"><path
         id="path293"
         style="fill:#ff0000;fill-opacity:1;fill-rule:nonzero;stroke:none;stroke-width:0.264583"
         d="M 39.169506,-337.89832 V -50.969072 H 288.46282 V -337.89832 Z m 15.676046,82.89261 c 1.714024,0.0204 3.54041,1.61061 3.978568,4.9382 0.120111,0.91222 0.106387,1.83456 0.107487,2.75229 0.0087,7.16012 -7.246413,7.15857 -7.232633,-0.002 0.0013,-0.65071 0.02757,-1.30512 -0.06356,-1.95182 -0.530767,-3.76661 1.267578,-5.76019 3.21014,-5.73712 z m 197.013298,6.80941 c 1.32993,-0.0899 2.96772,0.82319 4.38423,3.1042 1.07429,1.72993 1.55184,3.70118 1.89652,5.68338 0.39598,2.58761 0.42018,5.20011 0.26717,7.80675 -0.16631,2.61527 -0.75971,5.14416 -1.52187,7.63985 -0.4978,1.90614 -1.23662,3.72608 -2.0159,5.52989 -0.76243,1.81488 -1.37928,3.68664 -2.00143,5.55315 -0.64972,1.87676 -1.26002,3.76819 -2.01124,5.60741 -0.95415,2.1244 -1.9321,4.237 -2.90784,6.35155 -0.93622,2.10591 -1.93956,4.18102 -3.03444,6.20893 -0.74336,1.47932 -1.63431,2.88203 -2.64686,4.19044 -0.85071,1.10794 -1.91984,2.00805 -2.89078,3.00343 -1.04445,1.12516 -2.20219,2.13025 -3.34605,3.1502 -1.2349,1.05182 -2.56579,1.98944 -3.91811,2.88354 -1.93444,1.28303 -4.12655,2.08437 -6.28747,2.89285 -2.75914,1.06536 -5.6224,1.79172 -8.50439,2.42982 -2.00852,0.48359 -4.02259,0.93996 -6.05234,1.32499 -1.0898,0.20672 -1.99053,0.15992 -2.79725,0.0139 -0.75827,0.17949 -1.51301,0.3744 -2.26653,0.57309 -1.4977,0.44017 -2.97995,0.92699 -4.46019,1.42214 -1.58834,0.5581 -3.19109,1.04834 -4.83381,1.42213 -2.05853,0.5373 -4.13223,0.98734 -6.23425,1.31724 -1.89057,0.38525 -3.79586,0.65788 -5.71696,0.82837 -1.92552,0.0766 -3.83858,0.29911 -5.75676,0.47025 -1.71912,0.15432 -3.44381,0.22701 -5.16867,0.27441 -2.44184,-0.0118 -4.87127,-0.25567 -7.30085,-0.47078 -2.85973,-0.19225 -5.71909,-0.39592 -8.57157,-0.67799 -2.83995,-0.26841 -5.65359,-0.74864 -8.47907,-1.13016 -2.66463,-0.21934 -5.29981,-0.64608 -7.94267,-1.03457 -2.11987,-0.30404 -4.25541,-0.45909 -6.38152,-0.71055 -1.8808,-0.17534 -3.75496,-0.4017 -5.63118,-0.61856 -1.91243,-0.21286 -3.83573,-0.28885 -5.75779,-0.34985 -2.23949,-0.16259 -4.48445,-0.27106 -6.71949,-0.48783 -2.21917,-0.20648 -4.40762,-0.67897 -6.54068,-1.31516 -2.57048,-0.65769 -4.88262,-1.9917 -7.25382,-3.13883 -1.91366,-0.89121 -3.846978,-1.74009 -5.755724,-2.6417 -1.929913,-0.93683 -3.722034,-2.11514 -5.521108,-3.27525 -1.492637,-0.90475 -0.734285,-0.44535 -2.275314,-1.37821 -6.125257,-3.70793 -2.379728,-9.89571 3.745508,-6.18774 1.606161,0.9723 0.789586,0.47683 2.449462,1.48725 1.534261,0.98943 3.055983,2.00536 4.695836,2.81636 1.92633,0.91375 3.8825,1.76312 5.81257,2.66909 2.03397,0.98503 4.0062,2.16157 6.20944,2.72955 1.67042,0.52508 3.40555,0.86136 5.14697,1.03715 2.07333,0.21111 4.15957,0.28906 6.23683,0.4563 2.12341,0.0679 4.24789,0.15641 6.36033,0.39429 1.88182,0.21873 3.76122,0.44337 5.64772,0.62012 2.19401,0.25968 4.39889,0.41632 6.58565,0.73794 2.61501,0.3856 5.2221,0.80551 7.85895,1.02267 2.74095,0.37156 5.47017,0.83558 8.22482,1.1002 2.82609,0.28319 5.66087,0.47505 8.49405,0.67076 2.15225,0.19062 4.3024,0.40925 6.46472,0.44545 1.57684,-0.0428 3.1537,-0.10777 4.7253,-0.24857 1.92194,-0.17061 3.8389,-0.3955 5.76812,-0.4718 1.7606,-0.15093 3.50197,-0.42258 5.23482,-0.76946 1.94524,-0.29972 3.85736,-0.73584 5.76244,-1.22784 1.40538,-0.30937 2.76609,-0.74989 4.12327,-1.22421 1.62869,-0.54468 3.26081,-1.07909 4.91081,-1.5565 1.77362,-0.46766 3.552,-0.92735 5.36814,-1.20147 1.70238,-0.33298 3.38762,-0.74982 5.05034,-1.24437 1.8768,-0.51034 3.73395,-1.11665 5.54695,-1.81953 1.67544,-0.67931 3.31988,-1.45879 4.78886,-2.52439 1.0657,-0.84543 2.16725,-1.64342 3.15019,-2.58951 1.28809,-1.21508 2.58622,-2.41928 3.84008,-3.67058 0.85194,-0.84614 1.68746,-1.65828 2.24585,-2.7404 0.63482,-0.99725 1.29901,-1.9775 1.85674,-3.02152 0.55263,-0.92785 1.06197,-1.877 1.53479,-2.8484 0.43455,-0.81257 0.86675,-1.63643 1.16427,-2.50993 0.39723,-1.087 0.65435,-2.21493 0.97203,-3.32641 0.29574,-1.24569 0.60338,-2.49273 1.07901,-3.68453 0.39957,-1.05638 0.68712,-2.15558 1.05006,-3.22512 0.22713,-0.94997 0.37986,-1.92387 0.55966,-2.88303 0.22526,-1.23853 0.53664,-2.45701 1.02371,-3.62149 0.47591,-1.31864 1.08044,-2.58627 1.7048,-3.84007 0.34111,-0.58794 0.67316,-1.19257 0.96067,-1.80041 0.32682,-0.71346 -0.0659,-2.40019 0.0822,-3.22151 v -4.23178 c 0,-3.58007 1.80812,-5.37022 3.61632,-5.37022 0.15156,0 0.30168,0.0312 0.45217,0.0563 -0.0649,-0.17178 -0.10183,-0.35173 -0.18242,-0.51883 -1.94402,-4.03078 -0.58254,-6.96655 1.63401,-7.11636 z" /></clipPath></defs><g
     id="layer1"
     transform="translate(65.066013,379.94448)"><path
       style="fill:#000000"
       d="m 43.913642,-147.16308 c -0.6791,-0.069 -3.13973,-0.30593 -5.46806,-0.52641 -7.73565,-0.73254 -18.59928,-2.68774 -22.75416,-4.09522 l -1.94028,-0.65728 -1.96759,0.97394 c -3.1257399,1.54721 -6.0779499,2.16836 -9.0330799,1.90058 -2.70908001,-0.24549 -5.8185,-1.17027 -7.64402,-2.27343 -0.86899,-0.52512 -2.03263,-0.71016 -5.3442001,-0.84983 -9.59151,-0.40451 -17.04978,-4.72973 -20.60998,-11.95222 -3.97989,-8.0739 -3.1512,-17.62196 2.10208,-24.21981 1.60739,-2.0188 4.7073,-4.23569 6.96445,-4.98062 0.82959,-0.27379 1.45676,-0.59003 1.3937,-0.70277 -2.20698,-3.94609 -2.86526,-6.95214 -2.63285,-12.02303 0.1373,-2.9956 0.3871,-4.3115 1.30589,-6.87916 2.48365,-6.94087 9.21307,-17.26864 14.4341101,-22.15231 0.9928,-0.92866 1.8051,-1.74304 1.8051,-1.80974 0,-0.0667 -0.91281,-0.48396 -2.02847,-0.92723 -8.1848801,-3.25197 -14.2364701,-7.61557 -19.9350901,-14.37455 l -2.58795,-3.0695 -2.2173,-0.0865 c -3.00198,-0.11716 -6.9862,-1.15354 -10.86755,-2.82688 -13.2859,-5.72787 -21.76374,-18.46 -21.95142,-32.96697 -0.1019,-7.87575 2.40451,-13.03886 7.55306,-15.55904 3.88167,-1.90005 8.19061,-2.09075 13.51563,-0.59817 1.41873,0.39767 2.72842,0.631 2.91042,0.51852 0.18199,-0.11247 0.3309,-1.53638 0.3309,-3.16423 0,-8.19767 2.6671,-19.95632 6.45531,-28.46001 2.63399,-5.91271 7.98809,-13.78218 12.13458,-17.83541 2.40864,-2.35447 2.63697,-2.70417 2.92626,-4.48159 0.37672,-2.31465 0.64875,-2.85441 2.1792,-4.32388 2.08273,-1.99976 5.43261,-2.79979 7.8595501,-1.87707 0.76972,0.29264 1.21865,0.1477 2.92677,-0.94497 8.23035,-5.26489 21.8358799,-9.35808 36.9558199,-11.11804 5.77181,-0.67185 20.78429,-0.54944 26.28194,0.21429 15.62176,2.17016 27.22182,6.10919 38.1,12.93761 6.159938,3.8667 12.396588,8.99281 13.489828,11.08774 0.20288,0.38878 1.36559,2.21499 2.5838,4.05826 4.29527,6.49914 7.04742,12.57021 9.03042,19.9206 0.83563,3.09743 1.09061,4.90009 1.24907,8.83078 0.19013,4.7162 0.25286,5.04626 1.39132,7.32014 0.65571,1.30969 1.27944,2.38125 1.38607,2.38125 0.10662,0 0.97531,-0.2556 1.93042,-0.568 2.19326,-0.71738 6.33208,-0.54245 8.15699,0.34477 1.80399,0.87704 4.04717,3.24217 5.06099,5.33614 1.59671,3.29787 2.01711,5.6315 2.19297,12.1732 0.14162,5.26825 0.0546,6.79443 -0.5933,10.40694 -1.67356,9.33105 -4.92498,16.10645 -10.26526,21.39103 -3.63576,3.59784 -7.66283,5.64687 -11.09811,5.64687 h -1.80292 l -1.79785,2.70883 c -3.57766,5.39048 -8.0417,9.45076 -13.96435,12.7013 -1.46894,0.8062 -2.758348,1.60748 -2.865358,1.78063 -0.10701,0.17314 0.1323,0.73033 0.53179,1.23821 0.644288,0.81907 0.974098,0.92341 2.919058,0.92341 3.93869,0 6.83871,2.22568 7.71686,5.92247 0.29062,1.22345 0.65518,1.91341 1.0827,2.0491 1.09332,0.34701 3.07308,2.29776 3.82225,3.76625 0.55019,1.07846 0.682,1.8918 0.57712,3.56118 -0.0748,1.18992 -0.25162,2.41108 -0.39302,2.71369 -0.18948,0.40549 0.19771,0.84489 1.47221,1.67074 5.37686,3.48409 7.97509,10.95501 6.20316,17.83648 -0.63243,2.45611 -2.14258,5.3032 -3.47871,6.55843 -1.19079,1.11869 -1.14365,1.30614 0.40139,1.59599 3.0449,0.57123 6.0667,2.68615 7.96169,5.57229 4.90448,7.46971 3.36202,19.21477 -3.73705,28.45589 -1.96743,2.56106 -5.84402,6.37526 -6.47955,6.37526 -0.28071,0 -1.17365,0.3851 -1.98431,0.85578 -1.79228,1.04062 -5.25732,1.96644 -7.35976,1.96644 -2.2989,0 -5.43545,-0.92537 -7.16127,-2.11276 l -1.523518,-1.04821 -2.0633,0.71583 c -3.19082,1.107 -15.27636,3.43703 -22.05833,4.25274 -4.86144,0.58471 -8.59843,0.75456 -18.28136,0.83088 -6.69396,0.0528 -12.72646,0.0394 -13.40555,-0.0296 z m 30.86805,-6.10292 c 5.06576,-0.62768 14.18529,-2.26902 21.0311,-3.78518 l 2.33388,-0.51689 0.19571,-5.18597 c 0.16104,-4.26743 0.41729,-6.11197 1.44675,-10.41402 1.117288,-4.66908 4.011088,-12.92258 4.839998,-13.80431 0.61477,-0.65396 0.30823,-1.25255 -0.65508,-1.2792 -1.39959,-0.0387 -2.98834,-0.69361 -4.812148,-1.98359 -3.58634,-2.53663 -5.16532,-6.34495 -5.18205,-12.49854 -0.0177,-6.50945 0.97582,-8.37045 4.96712,-9.30398 4.110108,-0.96132 6.034478,-1.62644 6.237648,-2.15591 0.10973,-0.28595 0.13013,-0.58929 0.0453,-0.67409 -0.0848,-0.0848 -1.4141,0.0706 -2.954,0.34525 -9.472068,1.68959 -13.484378,2.31593 -17.087318,2.66738 -2.23132,0.21765 -4.45382,0.45403 -4.93889,0.52529 -3.65526,0.53695 -14.89726,1.04367 -23.28333,1.04947 -9.09565,0.006 -12.98129,-0.19241 -24.16527,-1.23573 -1.94028,-0.181 -4.87715,-0.4246 -6.52639,-0.54133 -2.81795,-0.19946 -13.20498,-2.03352 -17.7484599,-3.1339 -1.77581,-0.43008 -2.07585,-0.42869 -2.24433,0.0104 -0.44227,1.15255 1.56162,2.12675 6.1687699,2.999 3.86735,0.73219 5.55392,2.39414 6.07278,5.98415 1.21866,8.43187 -1.10067,14.59057 -6.51261,17.29342 -0.91449,0.45672 -1.73621,0.94932 -1.82603,1.09465 -0.0898,0.14533 0.21566,0.86546 0.67886,1.60028 1.64212,2.6051 3.76254,7.37497 4.62737,10.40921 1.28181,4.49726 1.72668,8.59555 1.52974,14.09247 l -0.17274,4.8212 1.46538,0.36899 c 0.80597,0.20294 2.88727,0.6061 4.62513,0.8959 1.73786,0.2898 4.271,0.7645 5.62919,1.05489 2.09244,0.44737 9.03269,1.25435 14.99306,1.74332 3.41724,0.28034 28.22459,-0.0713 31.22083,-0.44259 z m -67.1113399,-2.19365 c 1.74663,-0.44631 3.6405499,-2.14603 4.1663199,-3.73912 0.72366,-2.1927 0.56053,-9.36743 -0.29099,-12.79819 -1.2593,-5.07375 -3.4795699,-9.90428 -5.7308399,-12.46834 -2.28366,-2.60095 -6.78713001,-4.00978 -9.74001,-3.047 -3.13218,1.02125 -5.70574,3.72294 -6.8823901,7.22506 -0.65732,1.95643 -0.5727,7.59028 0.15631,10.40695 1.4535401,5.61598 5.4607801,11.39882 9.3751901,13.52931 2.91862,1.58851 5.2924,1.82501 8.94641,0.89133 z m 105.9493879,-1.18727 c 2.30158,-1.3427 5.8884,-4.8039 7.63813,-7.37062 1.40468,-2.06057 4.00555,-7.31882 4.12132,-8.3322 0.98407,-8.61395 -0.25588,-12.46362 -4.71753,-14.6465 -2.32546,-1.13774 -5.45892,-1.25626 -7.51145,-0.28411 -5.59174,2.64843 -10.47703,15.63047 -9.90132,26.31151 0.25074,4.65205 1.30846,5.6496 5.78474,5.45567 2.36762,-0.10258 3.15013,-0.29603 4.58611,-1.13375 z m -126.503318,-2.1497 c 0,-0.11286 -0.53964,-0.86692 -1.1992,-1.67569 -2.22389,-2.72698 -5.34921,-10.03272 -4.60867,-10.77326 0.38528,-0.38528 1.16849,1.02783 2.10477,3.79759 0.49881,1.47563 1.15016,3.07984 1.44744,3.56491 0.35317,0.57626 0.45426,0.6374 0.29167,0.17639 -1.71402,-4.86009 -2.32702,-10.58251 -1.58814,-14.82548 0.57723,-3.31471 2.36298,-7.00308 4.54079,-9.37878 0.99792,-1.08859 1.71288,-2.08078 1.58879,-2.20486 -0.34537,-0.34538 -4.01627,-0.2683 -6.14527,0.12904 -4.50101,0.84002 -8.56951,3.95944 -10.47977,8.0351 -0.86212,1.83937 -0.94503,2.39039 -0.94049,6.25054 0.006,4.72461 0.33174,6.17961 2.01371,8.9824 1.12179,1.86932 4.5717,5.045 6.80076,6.26017 2.05392,1.1197 6.17361,2.22871 6.17361,1.66193 z m -9.02952,-4.4354 c -0.15596,-0.25234 -0.0968,-0.31153 0.15557,-0.15557 0.224,0.13844 0.40728,0.32172 0.40728,0.40728 0,0.29427 -0.31152,0.15495 -0.56285,-0.25171 z m -0.84826,-0.82744 c 0,-0.097 0.0794,-0.17639 0.17639,-0.17639 0.097,0 0.17639,0.0794 0.17639,0.17639 0,0.097 -0.0794,0.17639 -0.17639,0.17639 -0.097,0 -0.17639,-0.0794 -0.17639,-0.17639 z m -0.70555,-0.70555 c 0,-0.097 0.0794,-0.17639 0.17639,-0.17639 0.097,0 0.17638,0.0794 0.17638,0.17639 0,0.097 -0.0794,0.17638 -0.17638,0.17638 -0.097,0 -0.17639,-0.0794 -0.17639,-0.17638 z m 4.93889,-2.11667 c 0,-0.097 0.0794,-0.17639 0.17638,-0.17639 0.097,0 0.17639,0.0794 0.17639,0.17639 0,0.097 -0.0794,0.17639 -0.17639,0.17639 -0.097,0 -0.17638,-0.0794 -0.17638,-0.17639 z m -7.91482,-3.95354 c -0.19145,-0.50277 -0.15093,-0.5433 0.19748,-0.19748 0.24109,0.2393 0.34949,0.52396 0.24087,0.63258 -0.10861,0.10861 -0.30587,-0.0872 -0.43835,-0.4351 z m -0.54112,-1.85417 c 0.0102,-0.84784 0.0318,-0.85784 0.41082,-0.18951 0.22005,0.38805 0.57041,0.81759 0.77857,0.95452 0.20817,0.13693 0.0233,0.22221 -0.41082,0.18951 -0.59743,-0.045 -0.78669,-0.27704 -0.77857,-0.95452 z m 8.10316,0.86882 c 0,-0.097 0.0794,-0.17639 0.17639,-0.17639 0.097,0 0.17639,0.0794 0.17639,0.17639 0,0.097 -0.0794,0.17639 -0.17639,0.17639 -0.097,0 -0.17639,-0.0794 -0.17639,-0.17639 z m -1.05834,-0.35278 c 0,-0.097 0.0794,-0.17639 0.17639,-0.17639 0.097,0 0.17639,0.0794 0.17639,0.17639 0,0.097 -0.0794,0.17639 -0.17639,0.17639 -0.097,0 -0.17639,-0.0794 -0.17639,-0.17639 z m 5.64445,9.525 c 0,-0.097 -0.0794,-0.17639 -0.17639,-0.17639 -0.097,0 -0.17639,0.0794 -0.17639,0.17639 0,0.097 0.0794,0.17639 0.17639,0.17639 0.097,0 0.17639,-0.0794 0.17639,-0.17639 z m 24.87083,-30.71983 c 2.07348,-1.07596 3.52286,-3.65994 3.88376,-6.92403 0.26161,-2.36604 0.34236,-5.05738 0.22145,-7.3807 -0.0635,-1.21932 -1.08714,-1.61012 -5.3399299,-2.03861 -4.07321,-0.41039 -6.5928,-1.19483 -8.26502,-2.57322 -1.53523001,-1.26547 -1.56945001,-1.62159 -0.20165001,-2.09841 1.89960001,-0.6622 1.22937001,-1.12214 -1.32335,-0.90813 -2.99971999,0.25148 -5.76747999,1.28493 -7.99962999,2.98695 -2.3438401,1.78719 -3.3770201,3.8094 -3.3770201,6.60974 0,6.24869 4.1425101,10.29371 12.8763901,12.5734 3.32444,0.86773 7.58998,0.75713 9.5249999,-0.24699 z m 100.359188,-0.69866 c 2.8415,-1.49316 5.7197,-4.38322 6.82977,-6.85789 0.53039,-1.18242 0.70923,-2.31969 0.70084,-4.45686 -0.01,-2.44888 -0.16758,-3.19848 -1.0779,-5.11528 -0.58665,-1.23526 -1.41007,-2.60297 -1.82982,-3.03937 -1.10567,-1.14952 -3.46665,-2.26416 -4.52822,-2.13781 -1.32955,0.15825 -1.39752,0.94033 -0.12041,1.38553 1.22257,0.42619 1.23221,0.44473 0.72471,1.39301 -0.79424,1.48404 -4.82295,2.89252 -9.4404,3.30046 -2.205218,0.19483 -3.537968,0.6582 -4.035278,1.40299 -0.70293,1.05273 -0.0876,7.46309 1.02576,10.68634 0.63157,1.82842 2.873828,4.19572 4.423288,4.66995 2.04131,0.62476 4.62064,0.19143 7.32766,-1.23107 z m -124.170518,-2.32615 c -0.58387,-0.80602 -1.2303,-2.09204 -1.43651,-2.85783 -0.4984,-1.85092 -0.83026,-1.42731 -0.51722,0.6602 0.16998,1.13351 0.56705,1.97909 1.25009,2.66213 1.49072,1.49072 1.91643,1.2097 0.70364,-0.4645 z m -3.3497,-11.60539 c 1.04534,-2.04254 3.98926,-5.51868 5.79853,-6.8468 2.2887201,-1.68007 4.2945801,-2.52711 7.1631901,-3.02489 1.53951,-0.26714 2.38125,-0.57911 2.38125,-0.88254 0,-0.25813 -0.71758,-1.05734 -1.59464,-1.77602 -1.53227,-1.25558 -1.67634,-1.29928 -3.68349,-1.11728 -3.7581201,0.34078 -7.3033401,2.46421 -9.2574001,5.5448 -1.88409,2.97027 -3.6735,10.43609 -2.93449,12.24339 0.20463,0.50045 0.39709,0.25154 0.88303,-1.14205 0.34175,-0.98008 0.90156,-2.32946 1.24402,-2.99861 z m 86.13429,-5.97637 c 4.42998,-0.19251 9.24514,-0.4282 10.70034,-0.52376 12.97215,-0.85187 28.496128,-4.41826 30.678538,-7.04791 0.25945,-0.31261 0.54679,-1.34958 0.63853,-2.30438 0.15388,-1.60145 0.0756,-1.8261 -1.0106,-2.89871 -1.06254,-1.04929 -1.19113,-1.09532 -1.31807,-0.47187 -0.282,1.38501 -1.18642,2.23441 -3.52874,3.31405 -5.731928,2.64202 -16.669978,4.4632 -32.338818,5.38441 -13.22896,0.77776 -39.59416,0.0124 -49.89422,-1.44843 -14.4786199,-2.05344 -21.1904999,-4.67336 -21.1904999,-8.27151 v -1.32182 l -1.10965,0.64984 c -1.93596001,1.13374 -2.54535,2.27592 -2.25331,4.22341 0.37376999,2.49249 1.82744999,3.71216 6.02816,5.05776 6.6468599,2.12918 15.3116999,3.91042 23.2639699,4.78239 9.59415,1.052 28.21149,1.4468 41.33437,0.87653 z m -13.46493,-7.76387 c 0.16584,-0.52253 0.53376,-0.70556 1.41828,-0.70556 2.35004,0 4.05045,-1.51107 4.04934,-3.59845 -5.4e-4,-1.01538 -1.45619,-2.75155 -2.30697,-2.75155 -0.58468,0 -0.57609,-0.0661 0.10309,-0.79375 1.07315,-1.14969 1.30179,-2.46777 0.64754,-3.73295 -0.78544,-1.51887 -1.88915,-2.17607 -3.65452,-2.17607 -2.93956,0 -4.63271,1.77805 -4.20471,4.41555 0.10968,0.67589 0.1236,1.22889 0.0309,1.22889 -0.0927,0 -0.63787,-0.34702 -1.21155,-0.77117 -0.7034,-0.52004 -1.71669,-0.81989 -3.11167,-0.92079 -1.90622,-0.13789 -2.16246,-0.0658 -3.26418,0.91861 -1.06667,0.95307 -1.19558,1.26468 -1.19558,2.89002 0,1.6118 0.13278,1.9404 1.15209,2.85116 0.82021,0.73286 1.51749,1.02939 2.42051,1.02939 1.25617,0 1.26621,0.0118 1.03905,1.22265 l -0.22937,1.22265 3.80608,0.11354 c 2.09335,0.0624 3.91445,0.14725 4.04689,0.18846 0.13245,0.0412 0.34158,-0.24258 0.46475,-0.63063 z m 10.31875,0.47696 c 1.45369,-0.17461 1.85208,-0.35691 1.85208,-0.84752 0,-0.70374 -1.90407,-2.45166 -2.67069,-2.45166 -0.4866,0 -2.62097,2.62864 -2.62097,3.22793 0,0.35508 0.91822,0.3741 3.43958,0.0712 z m -24.60625,-0.47824 c 0,-0.19473 -0.32055,-0.94879 -0.71233,-1.67569 -0.39178,-0.7269 -0.8095,-1.92047 -0.92828,-2.65238 -0.11877,-0.7319 -0.35984,-1.41966 -0.53569,-1.52834 -0.17586,-0.10868 -0.96629,0.38651 -1.75651,1.10043 -1.69817,1.53419 -2.87993,2.06902 -5.86536,2.65448 -2.06743,0.40543 -2.8783,0.83279 -2.43025,1.28084 0.24126,0.24126 7.92896,1.082 10.37634,1.13478 1.03052,0.0222 1.85208,-0.11712 1.85208,-0.31412 z m 36.09889,-0.4262 c 0.35459,-0.1827 0.56113,-0.55001 0.45897,-0.81624 -0.10697,-0.27876 0.10749,-0.57712 0.50567,-0.7035 0.81073,-0.25731 1.74202,-1.89965 1.74202,-3.07204 0,-1.17043 -0.95843,-2.38334 -2.33916,-2.96024 -0.65374,-0.27315 -1.18861,-0.66262 -1.18861,-0.8655 0,-0.20287 0.14661,-0.27825 0.3258,-0.16751 0.53107,0.32822 1.79086,-1.7648 1.79086,-2.97534 0,-1.31166 -1.64277,-3.18159 -2.79508,-3.18159 -0.76638,0 -2.14381,1.14415 -2.14381,1.78073 0,0.61542 -1.7861,2.06915 -2.29996,1.87197 -0.37494,-0.14388 -0.39515,-0.37071 -0.0923,-1.03549 0.54032,-1.18588 -0.17684,-3.42443 -1.40864,-4.39687 -0.76853,-0.60673 -1.29815,-0.72719 -2.63734,-0.59988 l -1.6757,0.1593 v -1.22949 c 0,-2.45288 -1.9692,-4.31138 -4.56819,-4.31138 -1.15745,0 -1.7818,0.58898 -1.7818,1.68085 0,0.4588 -0.34325,1.63208 -0.76277,2.60729 -0.63846,1.48413 -0.68158,1.81951 -0.26459,2.05784 3.74771,2.14201 4.58741,3.29237 4.60182,6.30431 0.0108,2.25378 0.98902,4.37842 2.08239,4.52276 0.28421,0.0375 1.23547,0.16211 2.1139,0.27686 1.55804,0.20354 1.63851,0.27767 3.28697,3.02842 l 1.68983,2.81977 2.35747,-0.23142 c 1.29661,-0.12729 2.6476,-0.38091 3.0022,-0.56361 z m 12.12203,-1.35213 c 1.00686,-0.208 2.23717,-0.69795 2.73403,-1.08878 1.81001,-1.42376 0.73948,-4.43228 -1.516,-4.26042 -0.90741,0.0692 -0.95794,-0.002 -0.82295,-1.15829 0.12098,-1.03626 -0.0528,-1.42856 -1.09387,-2.46965 -1.05358,-1.05359 -1.47725,-1.23769 -2.84819,-1.23769 -1.29835,0 -1.8522,0.21221 -2.8575,1.09487 -1.44392,1.26778 -1.49797,1.61629 -0.54144,3.49124 0.77056,1.51043 0.92457,3.87047 0.32561,4.98964 -0.72463,1.35398 -0.24228,1.61929 2.3747,1.3062 1.32823,-0.15891 3.23876,-0.45911 4.24561,-0.66712 z m -98.7002699,-0.20307 c 0.85546,-0.26772 1.91004,-0.48677 2.34351,-0.48677 0.84876,0 1.2164,-0.60214 1.2164,-1.99232 0,-1.26793 0.55088,-2.17315 2.65191,-4.35767 1.58132999,-1.64418 1.81920999,-2.06142 1.55874999,-2.73403 -0.16904999,-0.43656 -0.53240999,-0.79375 -0.80745999,-0.79375 -0.65622,0 -4.18313,3.78997 -6.95599,7.47483 -1.21353,1.61266 -2.3790301,3.16027 -2.5900101,3.43913 -0.31388,0.41489 -0.25538,0.45527 0.32197,0.22218 0.38805,-0.15666 1.4054701,-0.50388 2.2609201,-0.7716 z m 33.9300899,-0.56774 c -0.32496,-0.52036 -0.35634,-0.81021 -0.0971,-0.89664 0.21072,-0.0702 0.78798,-0.44616 1.28278,-0.83538 2.04201,-1.60624 0.62912,-5.63599 -2.15947,-6.15913 -1.37786,-0.25849 -3.64365,0.57612 -3.64365,1.34214 0,0.24033 -0.23875,0.0961 -0.53055,-0.32048 -0.40213,-0.57413 -0.44482,-0.98293 -0.17639,-1.68896 0.53489,-1.40688 0.428,-4.15094 -0.19642,-5.04243 -1.90081,-2.71377 -6.38499,-2.23043 -7.93747,0.85557 l -0.55055,1.09438 -0.68417,-1.26228 c -0.3763,-0.69426 -1.2120099,-1.56864 -1.8571499,-1.94308 -1.00077,-0.58085 -1.3664,-0.62284 -2.49057,-0.28603 -2.00114,0.59956 -2.95264,1.82629 -3.13653,4.04382 -0.1349,1.62666 -0.0362,2.01751 0.73537,2.91313 0.8099,0.94006 1.08332,1.03095 2.99789,0.9966 l 2.10671,-0.0378 -0.28907,1.00794 c -0.30798,1.07387 0.0604,2.85902 0.7653,3.70834 1.1906599,1.43466 6.5791799,2.40811 7.8824199,1.42397 0.64085,-0.48393 0.74342,-0.44704 1.29957,0.46748 0.47219,0.77644 1.01263,1.07347 2.47923,1.36257 4.11837,0.81184 5.06641,0.64396 4.19978,-0.74373 z m 75.093858,-1.14813 c 3.07379,-1.04546 3.65049,-1.46779 3.44835,-2.52521 -0.12218,-0.63918 0.0409,-0.84114 0.817,-1.01159 2.33518,-0.51289 2.95278,-3.34008 1.18785,-5.43758 -1.11446,-1.32447 -3.0611,-1.49172 -4.46933,-0.38401 l -0.89167,0.70139 -0.585668,-0.89384 c -1.29829,-1.98144 -3.48067,-1.85543 -4.78021,0.27601 -0.99937,1.63913 -0.89824,2.96108 0.3339,4.3644 1.10791,1.26185 1.60628,3.00448 1.35292,4.73075 -0.19482,1.32739 0.16017,1.34517 3.586858,0.17968 z m -65.347378,-2.86218 c 1.56503,-1.19371 1.94808,-2.04005 1.80732,-3.99326 -0.1102,-1.52928 -0.0601,-1.65129 0.62355,-1.5201 0.50323,0.0966 0.99869,-0.18094 1.53371,-0.859 1.48698,-1.88452 0.34557,-5.3393 -1.95478,-5.91665 -0.89368,-0.2243 -3.32091,0.60458 -3.32091,1.13405 0,0.73866 -1.01068,0.22013 -1.56034,-0.80052 -0.6861,-1.27401 -2.21989,-2.29768 -3.44268,-2.29768 -1.97267,0 -3.52099,2.24694 -3.19957,4.64327 0.10555,0.7869 0.006,1.55744 -0.23883,1.85271 -0.34406,0.41456 -0.13132,0.67441 1.1825,1.44436 2.29601,1.34555 3.2079,2.6103 3.89058,5.39605 l 0.60074,2.45134 1.46492,-0.32915 c 0.80571,-0.18103 1.98191,-0.72347 2.61379,-1.20542 z M 6.5192021,-228.4414 c 0,-0.19403 -0.16812,-0.35278 -0.3736,-0.35278 -0.20548,0 -0.27549,0.15875 -0.15557,0.35278 0.11991,0.19403 0.28803,0.35278 0.3736,0.35278 0.0856,0 0.15557,-0.15875 0.15557,-0.35278 z m 37.5259799,-5.66095 c 0.89779,-0.39714 1.63235,-0.87971 1.63235,-1.07239 0,-0.84402 -1.44464,-3.10943 -1.87706,-2.94349 -0.36594,0.14042 -1.7934,4.73794 -1.47106,4.73794 0.0459,0 0.81798,-0.32493 1.71577,-0.72206 z m 48.39487,-1.45595 c 0.13387,-0.42179 0.95666,-1.52943 1.82843,-2.46141 1.46983,-1.57138 1.56709,-1.79125 1.33824,-3.02547 -0.46994,-2.53454 -2.55509,-4.68233 -4.54578,-4.68233 -1.81524,0 -3.05008,1.51481 -3.05008,3.74159 0,0.7187 -0.14508,1.14928 -0.34549,1.02542 -0.58239,-0.35994 -1.73684,0.48428 -2.65828,1.94393 -1.31833,2.08837 -1.19821,2.31463 1.25271,2.35967 1.51319,0.0278 2.61076,0.28893 3.79236,0.90225 2.1276,1.10435 2.10041,1.10211 2.38789,0.19635 z m -39.94064,-1.95436 c 0.59153,-0.29771 1.26957,-1.11084 1.6574,-1.9876 0.36099,-0.81607 1.06145,-1.86435 1.55658,-2.3295 2.38292,-2.23864 -0.0472,-6.11544 -3.4838,-5.55775 -1.45825,0.23664 -1.66178,0.0699 -1.24681,-1.02158 0.49411,-1.29961 -0.33078,-3.32359 -1.74145,-4.27288 -2.36141,-1.58907 -5.82441,-0.6434 -6.65047,1.8161 -0.51264,1.52634 -0.2977,2.72287 0.64188,3.57318 0.64548,0.58415 0.61665,0.6352 -0.90336,1.59915 -2.44259,1.54905 -2.59354,3.81637 -0.3174,4.7674 1.06938,0.44682 1.33417,0.43763 2.34725,-0.0814 0.62805,-0.32178 1.25854,-0.76134 1.40109,-0.9768 0.14255,-0.21546 0.26161,0.13988 0.26458,0.78966 0.0171,3.74112 2.99373,5.43392 6.47451,3.68205 z m 29.29764,-1.3008 c 0.31315,-0.65992 0.56936,-1.34969 0.56936,-1.53283 0,-0.18314 0.32263,-0.62495 0.71695,-0.9818 1.46345,-1.32442 2.19419,-2.93291 1.94232,-4.27546 -0.30658,-1.63422 -1.62149,-2.94618 -2.95282,-2.94618 -1.37737,0 -1.91964,-0.67216 -1.26478,-1.56773 1.17197,-1.60277 0.25994,-4.69378 -1.6811,-5.69753 -1.81919,-0.94074 -4.05959,-0.4979 -5.51487,1.09008 -1.20831,1.3185 -1.28005,1.78777 -0.59927,3.92011 0.21012,0.65816 0.0681,0.76624 -1.23642,0.94122 -1.7807,0.23884 -3.04124,1.33695 -3.57332,3.11285 -0.60979,2.03532 -0.19649,2.93126 1.90227,4.12365 1.01975,0.57937 2.23896,1.46816 2.70934,1.9751 1.08204,1.16611 2.14853,1.16865 3.52741,0.008 0.59697,-0.50232 1.0854,-0.73626 1.0854,-0.51988 0,0.47033 3.01745,3.54985 3.4783,3.54985 0.17703,0 0.57808,-0.53993 0.89123,-1.19984 z m -59.07296,-2.59252 c 0.2594,-0.7276 1.18942,-1.9873 2.06672,-2.79933 1.57529,-1.45809 1.58778,-1.48755 1.00702,-2.37391 -0.32343,-0.49362 -1.06872,-1.14606 -1.65621,-1.44985 l -1.06814,-0.55236 0.71869,-0.91367 c 2.04241,-2.59651 -0.47801,-5.92046 -3.98971,-5.26167 -2.06989,0.38832 -3.56449,2.65868 -3.01394,4.57832 0.46645,1.62644 0.008,1.75291 -1.48054,0.40827 -1.62018,-1.46374 -3.24292,-1.65159 -4.65718,-0.53914 -1.9289699,1.51733 -1.3873199,4.47804 0.97555,5.33247 1.17999,0.42668 1.21067,0.48062 0.70894,1.24636 -0.80874,1.23429 -0.6875,2.0139 0.26932,1.73181 0.43656,-0.12872 1.68459,-0.32604 2.7734,-0.4385 2.31293,-0.23889 5.39555,0.61708 6.06128,1.68308 0.58542,0.93741 0.74752,0.85517 1.2848,-0.65188 z m -18.2299499,-0.79375 c 1.10408,-0.38806 2.44796,-0.70799 2.98638,-0.71096 0.53874,-0.003 0.80279,-0.12195 0.5872,-0.26458 -1.61276,-1.06701 -2.25275,-5.68947 -1.06381,-7.68364 0.99158,-1.66315 2.81948,-2.72951 4.9868999,-2.90925 1.65875,-0.13755 2.09975,-0.35039 3.49392,-1.68624 3.23156,-3.09638 7.89507,-2.92783 10.96641,0.39636 l 1.05833,1.14546 2.46516,-0.60496 2.46515,-0.60497 0.90474,-2.44625 c 2.26476,-6.12349 5.11332,-9.73701 8.76399,-11.11748 1.67997,-0.63527 2.49152,-0.72245 5.3329,-0.57286 2.10351,0.11075 4.12725,0.45253 5.43509,0.91791 2.76656,0.98445 5.10803,0.93494 8.70205,-0.18402 8.95631,-2.78844 15.68484,0.34242 18.84178,8.76729 0.38552,1.02883 1.09577,2.02719 1.85315,2.60488 1.42527,1.0871 2.54309,3.30711 2.55564,5.07553 0.007,0.98652 0.22735,1.37656 1.09613,1.94028 0.59804,0.38806 1.22785,1.06062 1.39956,1.49458 0.26883,0.6794 0.43939,0.74066 1.22765,0.44097 2.23041,-0.848 5.73932,-0.14044 7.49826,1.51201 l 0.81755,0.76804 2.29119,-1.22585 c 8.184858,-4.37916 14.402328,-11.58463 17.300678,-20.04988 1.12164,-3.276 2.32798,-8.53128 2.0295,-8.84124 -0.0787,-0.0817 -0.73769,0.3521 -1.46441,0.96404 -2.87327,2.41948 -6.31928,4.46544 -9.21728,5.4725 -2.60265,0.90442 -3.7035,1.08005 -7.64973,1.22044 -4.226818,0.15037 -4.882928,0.0853 -7.901598,-0.7831 -10.69352,-3.07644 -18.35104,-10.88334 -21.17341,-21.58644 -2.38164,-9.03173 -0.353,-19.8237 5.05981,-26.91724 1.98176,-2.59712 6.06434,-6.01941 9.05642,-7.59171 5.2789,-2.77398 13.98113,-3.90598 19.315658,-2.5126 2.38422,0.62276 7.67686,2.82286 8.54298,3.55123 0.56257,0.4731 2.65576,1.58842 2.98109,1.58842 0.73421,0 -0.40323,-5.59561 -2.08537,-10.2589 -1.28416,-3.55999 -1.86838,-4.55776 -2.66867,-4.55776 -0.73655,0 -0.93729,0.51509 -0.34372,0.88194 0.55317,0.34188 0.41278,2.53543 -0.20159,3.1498 -0.76965,0.76966 -1.12253,0.70138 -2.2068,-0.42699 -2.50841,-2.61046 -3.19304,-3.54577 -2.72647,-3.72481 0.25924,-0.0995 0.76658,0.0908 1.12741,0.42291 0.9163,0.84328 2.34754,1.81381 2.67483,1.81381 0.7401,0 0.0828,-0.82478 -1.71695,-2.1543 -1.46599,-1.083 -2.17897,-1.91539 -2.70298,-3.15567 -0.65393,-1.54782 -0.78061,-1.65848 -1.55951,-1.36234 -2.09337,0.7959 -5.306628,-0.15356 -6.756138,-1.99632 -0.67518,-0.85834 -0.99658,-0.98306 -2.32313,-0.90149 -1.7947,0.11037 -3.26615,-0.55194 -4.50972,-2.02984 l -0.87676,-1.04197 -0.68703,0.9202 c -0.59259,0.79371 -1.00684,0.94057 -3.01362,1.06835 -4.06616,0.25891 -7.19678,-1.4206 -8.8785,-4.76312 -0.62657,-1.24534 -0.77156,-4.52441 -0.21526,-4.86822 0.61661,-0.38108 0.38646,-0.7352 -0.866,-1.33246 -1.39031,-0.66299 -2.45035,-2.41531 -2.21281,-3.65793 0.12048,-0.63024 -0.18283,-1.18685 -1.20225,-2.20627 -1.84673,-1.84673 -1.88935,-3.41339 -0.14042,-5.16232 0.67263,-0.67263 1.387,-1.22296 1.5875,-1.22296 0.20049,0 0.36454,-0.15184 0.36454,-0.33743 0,-1.00905 -12.75209,-3.85487 -21.51945,-4.8024 -9.29162,-1.00418 -21.60958,-0.35622 -31.22083,1.6423 -5.91323,1.22958 -14.9268099,3.9181 -16.0074899,4.77463 -0.0729,0.0578 0.34473,0.50657 0.928,0.99736 2.42151,2.03756 3.02398,5.96422 1.35267,8.81609 -0.80301,1.37023 -0.89951,1.8904 -0.83297,4.49003 0.15104,5.90148 -2.41811,9.75801 -7.09561001,10.65117 -1.53429999,0.29297 -3.74290999,-0.29146 -5.41609999,-1.43317 l -1.31872,-0.89983 -1.23905,0.94507 c -3.5159901,2.68178 -7.2180201,2.64488 -10.1787301,-0.10146 -1.08111,-1.00283 -2.34894,-3.21083 -2.34894,-4.09081 0,-1.66377 -2.28362,0.99642 -5.50819,6.41648 -5.98136,10.05386 -9.30691,22.67203 -9.30818,35.31815 l -2.9e-4,2.94312 1.89865,2.09808 c 2.39537,2.64697 3.91995,5.49571 4.82442,9.01464 0.74842,2.9118 1.01468,7.91433 0.53084,9.9736 -0.27786,1.18256 -0.34204,1.08027 -2.10267,-3.35139 -2.06829,-5.20606 -3.55257,-7.62181 -6.52865,-10.62571 -5.29698,-5.34651 -10.98861,-7.45164 -16.4374,-6.07962 -1.84845,0.46544 -4.18494,2.36986 -5.08709,4.14636 -1.02834,2.02501 -1.5403,5.16288 -1.26843,7.77432 1.05418,10.12567 5.26173,17.89695 12.68045,23.4206 3.47491,2.58726 7.56568,4.59632 11.28172,5.54067 4.88504,1.24143 7.96566,0.78379 9.23945,-1.37256 0.80702,-1.36618 1.0011,-1.36504 1.57033,0.009 0.3372,0.81406 0.36334,1.45216 0.0999,2.439 -0.42024,1.57443 -0.34032,1.75382 2.21065,4.96204 3.2453,4.08145 8.24178,8.04319 13.5461201,10.74081 2.29443,1.16688 9.66894999,3.63586 10.94833,3.66549 0.4918,0.0114 1.79752,-0.29678 2.90161,-0.68484 z m -6.26816,-3.27033 c -0.38644,-0.21735 -2.05013,-0.59511 -3.6971,-0.83947 -4.15655,-0.61669 -7.9991201,-2.54678 -10.6929301,-5.37096 -2.02775,-2.12588 -2.235,-2.66384 -2.02418,-5.254 0.0358,-0.44002 -0.34353,-1.28569 -0.84299,-1.87927 -4.41456,-5.2464 4.03159,-8.77253 9.5986901,-4.0073 1.55788,1.33348 2.12234,2.8552 1.49436,4.02859 -0.3358,0.62745 -0.24235,0.8617 0.63993,1.60409 1.25699,1.05769 2.17577,2.90019 2.17577,4.36327 0,0.91622 0.22607,1.20137 1.44576,1.82361 1.15504,0.58926 1.4073,0.88465 1.25448,1.46901 -0.10967,0.4194 0.18666,1.47725 0.69463,2.47967 0.48724,0.96154 0.83421999,1.79993 0.77104999,1.8631 -0.0632,0.0632 -0.43102999,-0.063 -0.81746999,-0.28034 z m -2.89049,-2.59689 c 0.38461,-0.38461 -0.43589,-1.51158 -1.50182,-2.0628 -0.63171,-0.32667 -1.43724,-0.44612 -2.10621,-0.31233 -1.06093,0.21219 -1.5135,0.81418 -0.64229,0.85435 0.24253,0.0112 0.9966,0.39891 1.67569,0.86161 1.23558,0.84186 2.15623,1.07757 2.57463,0.65917 z m -6.1433601,-3.07926 c 0.22888,-0.27579 0.77754,-0.40731 1.2902801,-0.30929 1.1532,0.22045 2.27845,-0.78266 2.27845,-2.03113 0,-1.42992 -2.36735,-3.46177 -4.5059401,-3.86734 -3.00828,-0.57051 -4.66628,0.0546 -4.66628,1.7593 0,0.7552 1.8064,3.13486 2.39232,3.15153 0.24863,0.007 0.54693,0.2601 0.66289,0.5623 0.11596,0.30219 0.41534,0.47096 0.66529,0.37505 0.24994,-0.0959 0.54197,0.0537 0.64896,0.3325 0.24451,0.6372 0.71903,0.64761 1.23403,0.0271 z m -0.84099,-0.22574 c 0.11992,-0.19403 0.37678,-0.35278 0.57081,-0.35278 0.19403,0 0.25466,0.15875 0.13475,0.35278 -0.11992,0.19403 -0.37678,0.35278 -0.57081,0.35278 -0.19403,0 -0.25466,-0.15875 -0.13475,-0.35278 z m 1.7248801,-7.96306 c 0.36876,-0.96097 -0.4852401,-1.9515 -2.4632801,-2.85708 -2.45988,-1.12617 -4.94448,-1.26411 -5.63996,-0.31313 -0.27544,0.37663 -0.5008,0.88891 -0.5008,1.1384 0,0.73087 1.51717,1.52004 3.92793,2.04315 3.08218,0.66881 4.41636,0.66557 4.6761101,-0.0113 z m 109.8075799,0.82145 c -1.52301,-1.12937 0.328988,-3.46757 2.345628,-2.96143 1.12925,0.28342 1.6624,1.78179 0.90389,2.5403 -0.74972,0.74971 -2.50044,0.9766 -3.249518,0.42113 z m 2.051868,-0.74488 c 0.88341,-0.64596 0.46214,-1.63851 -0.69545,-1.63851 -1.04878,0 -1.508228,0.83287 -0.87821,1.59199 0.5364,0.64633 0.74495,0.65249 1.57366,0.0465 z M 0.08100209,-260.39318 c -0.72876,-0.39536 -0.97014,-0.792 -0.97014,-1.59419 0,-0.62209 0.14727,-0.97687 0.35278,-0.84986 0.19403,0.11992 0.35278,0.0529 0.35278,-0.14885 0,-0.68346 1.72957001,-0.83673 2.64840001,-0.23468 1.58798,1.04048 0.9158,3.42478 -0.94952,3.36802 -0.25529,-0.008 -0.90072001,-0.25097 -1.43430001,-0.54044 z m 1.78153001,-0.57433 c 0.53589,-0.53589 0.54344,-1.43211 0.0165,-1.95904 -0.54354,-0.54354 -1.70984001,0.0793 -1.70984001,0.91312 0,0.60177 0.62487,1.46926 1.05833001,1.46926 0.11642,0 0.40217,-0.1905 0.635,-0.42334 z m 9.0663899,-4.28514 c -1.9070499,-0.49374 -3.8797899,-1.42226 -4.2317899,-1.99179 -0.2902,-0.46956 0.27748,-0.43315 2.82068,0.18093 2.3728399,0.57295 5.2611799,0.69082 4.9593099,0.20239 -0.10868,-0.17585 -1.03086,-0.4291 -2.04929,-0.56276 -1.01843,-0.13367 -3.0078299,-0.62542 -4.4208899,-1.09277 -13.05531,-4.31793 -21.5960801,-16.02342 -21.5960801,-29.59835 0,-12.44351 7.4947701,-23.99562 18.4769301,-28.47952 11.7665799,-4.80418 24.1870899,-2.67656 33.0780799,5.66624 3.60245,3.38034 5.71339,6.21 7.56178,10.1364 1.85092,3.93174 2.61932,7.4954 2.61932,12.14771 0,12.091 -6.65428,22.84469 -17.54421,28.35243 -1.82173,0.92137 -6.78249,2.43783 -9.35509,2.85978 -0.81031,0.1329 -1.32292,0.41232 -1.32292,0.7211 0,1.47043 -5.50313,2.36247 -8.99583,1.45821 z m 13.58194,-8.69345 c 6.55102,-1.95591 11.3755,-5.56534 14.65517,-10.96425 4.74122,-7.80489 4.84235,-17.85824 0.25872,-25.71962 -2.80418,-4.80945 -8.46847,-9.27851 -14.4927,-11.43457 -2.95115,-1.05621 -3.28028,-1.09747 -8.71147,-1.09214 -5.62692,0.006 -5.65309,0.009 -8.4305499,1.20113 -6.42593,2.75752 -10.58917,6.64517 -13.44143,12.55166 -2.12388,4.39816 -2.77403,7.65106 -2.56218,12.81945 0.13876,3.38561 0.34349,4.57376 1.15645,6.71166 3.1634,8.31903 10.53227,14.63554 19.2207699,16.47582 3.29379,0.69765 9.02502,0.44275 12.34722,-0.54914 z m -10.93611,-4.45799 c -8.7503699,-1.68663 -15.7960199,-9.16937 -17.2271999,-18.29593 -0.28355,-1.80817 -0.0734,-2.47099 0.49296,-1.55464 0.43256,0.69989 3.12057999,1.71153 4.56341,1.71744 2.4405,0.01 4.05281,-0.65811 5.79674,-2.40204 2.74767,-2.74767 3.2162799,-6.45074 1.24252,-9.81871 -0.49247,-0.84033 -0.82871,-1.52787 -0.74722,-1.52787 0.0815,0 0.7582,0.25488 1.50377,0.5664 1.9631599,0.82027 4.6355399,0.51316 6.7405799,-0.77461 2.1936,-1.34194 3.27888,-3.38784 3.27888,-6.18109 0,-1.7009 -0.1844,-2.28048 -1.21086,-3.8058 -1.41437,-2.10174 -1.49254,-2.0701 3.125,-1.26487 7.54317,1.31542 12.92615,5.20797 16.09182,11.63636 0.76439,1.55223 1.62951,3.76839 1.92248,4.92482 0.68248,2.69393 0.6827,7.56341 4.6e-4,10.2587 -1.31758,5.20525 -4.939,10.20088 -9.60102,13.24428 -3.76962,2.46084 -6.17164,3.18542 -11.03343,3.32832 -2.23132,0.0656 -4.45382,0.0427 -4.93889,-0.0508 z m 79.60023,12.73821 c -3.7913,-0.96121 -9.36522,-4.18119 -8.59521,-4.96535 0.1502,-0.15295 1.4202,0.2976 2.82223,1.00123 4.2891,2.15256 6.08157,2.52181 12.3385,2.54174 3.055808,0.01 5.556128,0.12184 5.556248,0.24912 1.2e-4,0.12728 -0.75385,0.49535 -1.67548,0.81793 -2.35723,0.82506 -7.855818,1.0121 -10.446288,0.35533 z m -67.52005,-0.62194 c 0.72625,-0.43051 2.89858,-1.63166 4.8274,-2.66924 1.92881,-1.03757 4.15314,-2.43962 4.94295,-3.11566 2.49151,-2.13265 2.47865,-1.06504 -0.0169,1.40109 -2.46226,2.43327 -4.54917,3.68569 -7.69837,4.62006 -2.82994,0.83964 -3.70114,0.73949 -2.0551,-0.23625 z m -58.09299,-3.60496 c -1.38717,-3.75147 -2.78798,-5.63561 -4.46353,-6.00362 -1.93583,-0.42518 -3.8318,1.69332 -3.86317,4.31659 l -0.0117,0.98147 -0.69382,-0.83283 c -0.87573,-1.0512 -0.94113,-4.46092 -0.14452,-7.53514 l 0.5493,-2.11981 -0.95,-1.45889 c -1.3483,-2.07053 -7.05227,-7.51079 -9.14443,-8.72166 -0.97014,-0.56148 -2.11146,-1.02237 -2.53627,-1.02419 -0.69965,-0.003 -0.79743,0.23757 -1.03827,2.55433 -0.25692,2.47152 -0.27519,2.51012 -0.54234,1.14653 -0.51123,-2.60946 0.17406,-6.59012 1.25928,-7.31474 1.2605,-0.84166 4.93284,0.47163 8.93412,3.19498 4.43404,3.0179 9.82532,9.3427 12.0009,14.07889 0.71155,1.54902 0.96998,2.75565 1.08166,5.05021 0.0807,1.6582 0.0741,3.32508 -0.0148,3.70417 -0.15862,0.67695 -0.16617,0.67666 -0.4224,-0.0163 z m 24.0524001,-0.55743 c -0.97263,-0.5665 -0.79377,-2.03069 0.28101,-2.30044 0.4941,-0.12401 0.99681,-0.12704 1.11713,-0.007 0.12031,0.12031 -0.13019,0.21875 -0.55667,0.21875 -0.94006,0 -1.34787,0.87107 -0.74685,1.59525 0.27852,0.33559 0.86763,0.48059 1.61705,0.39801 0.64841,-0.0715 1.09463,0.006 0.99162,0.17313 -0.25493,0.4125 -1.9449,0.36375 -2.70329,-0.078 z m -12.5464101,-0.91853 c -1.18308,-0.4733 -1.15182,-3.30679 0.0449,-4.06771 0.89306,-0.56786 2.66347,-0.28926 3.22112,0.50688 0.70563,1.00744 0.70318,2.53932 -0.005,3.2477 -0.53226,0.53226 -2.29091,0.70114 -3.26079,0.31313 z m 2.33349,-1.24043 c 0.54755,-0.54755 0.53508,-1.05288 -0.0456,-1.84696 -0.38857,-0.53141 -0.60009,-0.57105 -1.23472,-0.23141 -1.15668,0.61904 -0.80381,2.5017 0.4689,2.5017 0.21343,0 0.57856,-0.1905 0.81139,-0.42333 z m 12.4531901,0.67187 c -0.44623,-0.74306 -0.43872,-0.75058 0.16875,-0.16874 0.34968,0.33492 0.55985,0.68489 0.46704,0.7777 -0.0928,0.0928 -0.37891,-0.18122 -0.63579,-0.60896 z m -9.7781001,-3.98209 c -0.60479,-0.29836 -1.28496,-0.94925 -1.51148,-1.44641 -0.84657,-1.85801 1.5483,-3.60895 3.46861,-2.53596 1.29039,0.72101 1.48503,3.16083 0.3174,3.97868 -0.96807,0.67806 -0.90777,0.67796 -2.27453,0.004 z m 2.28853,-1.40912 c 0.36753,-0.32693 -0.40423,-1.89621 -1.03026,-2.09491 -0.78527,-0.24923 -1.74614,0.34615 -1.74614,1.08197 0,0.82865 1.08272,1.60878 1.88926,1.36126 0.41612,-0.1277 0.81533,-0.28445 0.88714,-0.34832 z m 67.39967,-3.88158 c -1.31428,-1.39899 -1.14663,-3.24279 0.62326,-6.85451 0.8092,-1.65131 1.88809,-3.39395 2.39753,-3.87254 1.17487,-1.10374 3.29524,-1.18616 4.44059,-0.17262 1.09041,0.96492 3.85421,6.8826 3.85421,8.2524 0,1.46444 -0.85873,3.09396 -1.78548,3.3881 -1.91373,0.60739 -3.30707,-0.90779 -4.04892,-4.40299 l -0.41471,-1.95387 -0.42404,1.04787 c -0.23322,0.57632 -0.3501,1.3306 -0.25973,1.67618 0.0994,0.38007 0.0176,0.53764 -0.20702,0.39882 -0.2463,-0.15221 -0.291,0.1149 -0.13278,0.79327 0.16539,0.70905 0.1345,0.86609 -0.1007,0.51199 -0.26927,-0.40541 -0.38901,-0.31253 -0.58046,0.45027 -0.44525,1.77402 -2.05606,2.12746 -3.36175,0.73763 z m -79.05831,-19.83451 c -0.29978,-0.52303 -0.64829,-1.49617 -0.77448,-2.16253 -0.28904,-1.52632 -1.14809,-2.4926 -2.21601,-2.4926 -1.09814,0 -1.08349,-0.98058 0.0188,-1.25723 2.48515,-0.62374 4.09283,1.12958 4.09283,4.46358 0,2.35421 -0.34596,2.80127 -1.12113,1.44878 z m -5.9659,-13.07634 c -1.20728,-0.9776 -1.12916,-3.04182 0.15698,-4.14811 1.94244,-1.67082 4.05266,-0.68348 4.35961,2.03978 0.15804,1.40213 0.0739,1.68909 -0.64262,2.19094 -1.09823,0.76923 -2.86861,0.73148 -3.87397,-0.0826 z m 3.20648,-1.10378 c 0.49258,-0.9204 -0.11685,-2.11667 -1.07831,-2.11667 -0.95466,0 -1.66187,1.54177 -1.04703,2.28261 0.6261,0.75441 1.67668,0.67238 2.12534,-0.16594 z m 66.69828,-13.78935 c -4.06383,-3.78931 -9.12529,-6.51242 -13.78162,-7.41462 -3.14238,-0.60887 -3.41439,-1.02103 -0.67384,-1.02103 4.64669,0 9.38619,1.97662 12.24588,5.10719 1.9665,2.15277 4.77186,5.48265 4.60039,5.46052 -0.0666,-0.009 -1.14244,-0.96802 -2.39081,-2.13206 z m -47.8922999,0.38041 c -3.0376501,-1.22358 -1.8630901,-5.58409 1.84778,-6.85983 1.59174,-0.54721 2.31849,-0.39256 3.35876,0.71476 0.9057,0.96408 0.98515,2.4221 0.21331,3.91468 -0.61283,1.18509 -2.00084,2.5246 -2.00084,1.93094 0,-0.292 -0.37259,-0.25651 -1.2778,0.12171 -0.70279,0.29364 -1.29811,0.52384 -1.32292,0.51154 -0.0248,-0.0123 -0.39304,-0.16251 -0.81829,-0.3338 z m 2.52893,-1.82099 c 1.82891,-0.8333 1.52073,-3.36129 -0.39166,-3.21278 -1.71631,0.13329 -2.62975,2.45646 -1.27589,3.24501 0.77077,0.44893 0.60447,0.45214 1.66755,-0.0322 z m 0.18453,2.00076 c 0,-0.097 0.0794,-0.17639 0.17639,-0.17639 0.097,0 0.17639,0.0794 0.17639,0.17639 0,0.097 -0.0794,0.17639 -0.17639,0.17639 -0.097,0 -0.17639,-0.0794 -0.17639,-0.17639 z m 81.8444399,-0.35278 c 0,-0.097 0.0794,-0.17639 0.17639,-0.17639 0.097,0 0.17638,0.0794 0.17638,0.17639 0,0.097 -0.0794,0.17639 -0.17638,0.17639 -0.097,0 -0.17639,-0.0794 -0.17639,-0.17639 z m 1.41651,-1.91255 c -0.009,-0.83938 3.15043,-3.58486 5.24894,-4.56117 1.55826,-0.72495 2.61344,-0.93908 4.97621,-1.00981 l 2.99861,-0.0898 -2.82222,0.80739 c -3.46475,0.9912 -5.63315,1.95044 -7.83754,3.4671 -0.9281,0.63855 -1.74908,1.11251 -1.82441,1.05324 -0.0753,-0.0593 -0.27132,0.10424 -0.43557,0.36335 -0.24396,0.38487 -0.29961,0.37931 -0.30402,-0.0303 z m -98.07878,-9.72605 c 0.62365,-1.64033 -0.24141,-2.40475 -1.78592,-1.57815 -0.53017,0.28374 -0.68236,0.25002 -0.68236,-0.15119 0,-1.46628 2.25105,-2.13542 3.29671,-0.97997 0.73176,0.80858 0.74392,1.79156 0.0347,2.80414 -0.74825,1.06828 -1.28298,1.00953 -0.8631,-0.0948 z m 71.36771,-12.37177 c 0.045,-1.58609 -1.33215,-2.97713 -2.94734,-2.97713 -1.12325,0 -1.45392,-0.82349 -0.48064,-1.19697 1.67847,-0.64409 3.39621,-0.0133 4.20083,1.54269 0.72036,1.39302 0.67031,2.5955 -0.13849,3.32746 -0.64873,0.5871 -0.67007,0.56369 -0.63436,-0.69605 z m -13.61934,-5.72416 c -0.65586,-0.72472 -0.45778,-2.12566 0.39719,-2.80922 0.70043,-0.55999 2.26345,-0.56978 2.8156,-0.0176 0.59938,0.59937 0.52501,2.24681 -0.13103,2.90285 -0.743,0.743 -2.37705,0.7027 -3.08176,-0.076 z m 2.42789,-0.93708 c 0.3699,-1.4738 -0.68286,-2.20033 -1.59528,-1.10094 -0.31209,0.37605 -0.32002,0.69427 -0.0308,1.23473 0.52829,0.98711 1.36195,0.91852 1.62606,-0.13379 z m 22.60596,-2.25269 c -1.58389,-1.75018 0.12378,-4.55748 2.53433,-4.1663 1.62225,0.26326 2.17349,0.81697 2.17349,2.1832 0,2.17187 -3.28478,3.55554 -4.70782,1.9831 z m 2.67852,-0.85599 c 0.94177,-1.43733 -0.27704,-3.10697 -1.42792,-1.95609 -0.77372,0.77372 -0.29572,2.75166 0.66499,2.75166 0.1329,0 0.47622,-0.35801 0.76293,-0.79557 z m -29.45611,-3.46602 c -0.91019,-0.53013 -0.7671,-2.2091 0.29594,-3.47245 1.19101,-1.41543 3.01921,-1.5197 3.87032,-0.22073 0.71034,1.08411 0.43243,2.01439 -0.94899,3.17678 -1.12239,0.94443 -2.18857,1.11556 -3.21727,0.5164 z m 3.06161,-1.23166 c 0.72198,-0.72198 0.7098,-1.87758 -0.0227,-2.15868 -1.24771,-0.47879 -2.3862,1.16373 -1.52549,2.20082 0.54272,0.65394 0.86081,0.64528 1.54824,-0.0421 z m -0.94859,123.5856 c 0.19103,-0.24253 0.45502,-0.89106 0.58663,-1.44117 0.13162,-0.55012 0.59391,-1.34387 1.02732,-1.76389 0.65345,-0.63328 0.78422,-1.13373 0.7658,-2.9308 -0.0136,-1.32385 -0.21715,-2.40202 -0.5232,-2.77078 -1.41113,-1.70031 -4.41151,-1.14269 -4.81918,0.89565 -0.28331,1.41658 -0.92528,1.64709 -2.07295,0.74433 -1.24829,-0.9819 -2.73031,-0.42037 -3.37655,1.27937 -0.40624,1.06848 1.10535,3.79623 2.26497,4.08728 0.43477,0.10912 1.25236,0.68048 1.81686,1.26969 0.82344,0.85949 1.31864,1.0713 2.50467,1.0713 0.81307,0 1.6346,-0.19844 1.82563,-0.44098 z m 27.85419,-4.6684 c -0.15439,-0.95142 -0.004,-1.25703 1.02135,-2.07517 1.57891,-1.25984 1.57975,-2.38645 0.003,-3.96323 -1.63235,-1.63235 -3.7321,-1.75642 -5.04544,-0.29812 -0.80968,0.89904 -1.672,1.11396 -2.0454,0.50979 -0.44484,-0.71978 -2.22477,-0.37449 -2.973,0.57674 -0.86682,1.10198 -1.02923,3.65659 -0.23246,3.65659 0.27428,0 1.25068,0.59531 2.16977,1.32292 1.60177,1.26805 1.78745,1.32423 4.47717,1.35457 l 2.8061,0.0317 z m -11.57686,-8.02241 c -0.41348,-0.77261 -1.13835,-0.92847 -4.90571,-1.05483 -2.49041,-0.0835 -3.18119,-0.2374 -4.01632,-0.89463 -0.55474,-0.43656 -1.44859,-0.79375 -1.98634,-0.79375 -0.83936,0 -0.94879,0.11233 -0.77319,0.79375 0.17786,0.69024 0.13165,0.73401 -0.3544,0.33565 -0.38224,-0.31329 -0.63233,-0.33935 -0.79111,-0.0824 -0.12769,0.20661 -0.37995,0.28432 -0.56057,0.17269 -0.18062,-0.11163 -0.3284,-0.0398 -0.3284,0.15957 0,0.19939 -0.25979,0.26283 -0.57731,0.14099 -0.39901,-0.15311 -0.52319,-0.068 -0.40208,0.27566 0.0964,0.27345 0.49881,0.46222 0.89431,0.41949 0.56844,-0.0614 0.6789,0.076 0.52725,0.65588 -0.17731,0.67802 -0.0807,0.71804 1.27565,0.52832 0.80712,-0.11289 1.74298,-0.34772 2.07969,-0.52183 1.40854,-0.72836 7.80165,0.25347 9.04896,1.38971 0.52239,0.47588 1.25383,-0.80624 0.86957,-1.52423 z m 18.38673,-2.27784 c 0,-0.26846 -0.23147,-0.35441 -0.58704,-0.21796 -0.39979,0.15342 -0.50412,0.0911 -0.32707,-0.19536 0.14298,-0.23135 -0.46598,-0.0679 -1.35324,0.36312 -0.88726,0.43106 -1.6132,0.89935 -1.6132,1.04063 0,0.14128 0.43586,0.59973 0.96858,1.01877 l 0.96859,0.76189 0.97169,-1.16394 c 0.53443,-0.64016 0.97169,-1.36338 0.97169,-1.60715 z m -32.45555,0.24018 c 0,-0.19402 -0.07,-0.35277 -0.15557,-0.35277 -0.0856,0 -0.25368,0.15875 -0.3736,0.35277 -0.11991,0.19403 -0.0499,0.35278 0.15557,0.35278 0.20548,0 0.3736,-0.15875 0.3736,-0.35278 z m 20.4848,-0.59928 c 1.20204,-0.71006 1.7402,-2.05928 1.7402,-4.36285 0,-1.00668 0.17702,-1.75984 0.44097,-1.87612 0.24253,-0.10685 -0.19403,-0.0804 -0.97014,0.0588 -0.77611,0.13919 -2.7223,0.24327 -4.32487,0.23131 l -2.91375,-0.0218 0.21036,1.78564 c 0.31688,2.68975 0.79305,3.94033 1.65962,4.35871 1.18576,0.57248 3.02444,0.49565 4.15761,-0.17373 z m -16.95702,-0.81183 c -0.29105,-0.18808 -0.92605,-0.32562 -1.41112,-0.30563 -0.81362,0.0335 -0.79996,0.0572 0.17639,0.30563 1.52487,0.38801 1.83513,0.38801 1.23473,0 z m 7.85045,-0.61736 c 0.30331,-0.33955 0.66689,-1.56986 0.80796,-2.73403 0.14107,-1.16416 0.41625,-2.21931 0.61151,-2.34476 0.55785,-0.3584 -3.27468,-1.08037 -5.03659,-0.94879 -1.42293,0.10626 -1.5988,0.21634 -1.69653,1.0618 -0.15264,1.32052 0.50526,3.5551 1.37055,4.65514 0.88855,1.12961 3.05881,1.30058 3.9431,0.31064 z m 17.74197,-0.9541 c 0.72838,-0.72839 0.86591,-1.20463 0.86591,-2.99861 0,-2.36793 0.0977,-2.29656 -3.02034,-2.20696 -1.70119,0.0489 -3.64427,0.71462 -3.10738,1.06465 0.20613,0.13438 0.4764,1.00479 0.60061,1.93425 0.34408,2.57467 0.72985,3.07258 2.38055,3.07258 1.0317,0 1.64918,-0.23445 2.28065,-0.86591 z m -25.78882,-2.03481 c 0.62374,-0.89051 0.73599,-2.39095 0.17888,-2.39095 -0.20367,0 -0.83867,0.2422 -1.41111,0.53823 -1.08436,0.56074 -1.34302,1.48791 -0.61749,2.21344 0.6326,0.63259 1.23647,0.51483 1.84972,-0.36072 z m 31.94639,-0.43906 c 0,-0.271 -0.46107,-0.82104 -1.02459,-1.22231 -1.85928,-1.32392 -2.34138,-0.74381 -1.08897,1.31035 0.60475,0.9919 0.80696,1.10396 1.40979,0.78134 0.38708,-0.20716 0.70377,-0.59838 0.70377,-0.86938 z m 51.387218,-2.29217 c 4.77617,-3.86457 8.29874,-10.27256 10.07814,-18.33334 0.60545,-2.74274 0.75016,-4.63064 0.77247,-10.07777 0.0254,-6.19078 -0.0338,-6.85424 -0.7746,-8.68567 -1.54078,-3.80928 -4.55872,-5.81565 -7.44638,-4.95049 -2.03097,0.6085 -2.18193,0.94363 -1.61548,3.5865 0.26978,1.2587 0.49609,3.08067 0.5029,4.04881 l 0.0124,1.76027 1.45171,-1.49568 c 1.96209,-2.02153 2.86724,-1.98445 3.96712,0.1625 0.64236,1.25387 0.7243,1.64864 0.28598,1.37774 -0.16082,-0.0994 -0.8821,0.30536 -1.60283,0.89945 -1.4389,1.18606 -3.44109,4.86588 -5.38204,9.89165 l -1.18822,3.0767 0.85785,1.26412 c 1.34263,1.97847 2.0732,4.5634 1.80161,6.37449 -0.12893,0.85977 -0.34375,1.55747 -0.47738,1.55044 -0.13364,-0.007 -0.56047,-0.67591 -0.94853,-1.4864 -0.47674,-0.99573 -1.00427,-1.54946 -1.62669,-1.70749 l -0.92113,-0.23387 -0.23085,3.28402 c -0.12696,1.80622 -0.63864,4.84253 -1.13706,6.74736 -0.49841,1.90483 -1.03112,3.96266 -1.18379,4.57295 l -0.27758,1.10962 1.46929,-0.50064 c 0.80811,-0.27535 2.434,-1.28122 3.61309,-2.23527 z m -20.51916,-8.36227 c 5.71246,-1.42975 11.826,-6.5067 14.5842,-12.11134 1.56433,-3.17869 2.85762,-8.15207 2.87066,-11.03917 0.0285,-6.30463 -3.60962,-14.31716 -8.49861,-18.71731 -1.04539,-0.94085 -2.73606,-2.48479 -3.75706,-3.43097 -2.69436,-2.4969 -4.39613,-2.91094 -11.148578,-2.71244 -4.59171,0.13498 -5.70189,0.28486 -7.9271,1.07019 -3.66421,1.2932 -6.22738,2.89932 -8.92279,5.59117 -11.172,11.15727 -8.48092,30.69346 5.33678,38.74293 5.62193,3.27505 11.36662,4.13266 17.462498,2.60694 z m -9.830478,-4.90989 c -3.20126,-0.77486 -6.1265,-2.5252 -9.08731,-5.43748 -4.37843,-4.30665 -6.38358,-9.0843 -6.44058,-15.34591 -0.0386,-4.24088 0.45604,-6.44947 2.32258,-10.37036 3.15085,-6.61871 9.93113,-10.95368 17.15812,-10.97003 l 1.177888,-0.003 -0.881868,1.04803 c -1.17248,1.39342 -1.73955,4.06065 -1.24777,5.86895 0.47642,1.75181 3.264338,4.52319 4.874028,4.84513 1.86001,0.372 3.47131,0.2717 4.8431,-0.30147 1.52867,-0.63872 1.67923,-0.55001 1.12629,0.66356 -0.63988,1.40438 0.12549,3.59633 1.56146,4.4719 1.73067,1.05526 3.20464,0.89721 4.73804,-0.50805 1.13978,-1.04454 1.30864,-1.40603 1.31773,-2.8211 0.006,-0.89267 0.0434,-1.62355 0.0838,-1.62416 0.0403,-6.2e-4 0.49067,0.71103 1.00076,1.58144 1.37481,2.34592 1.91566,4.86658 1.92034,8.94984 0.007,6.42131 -1.60294,10.49893 -5.80593,14.70192 -2.79785,2.79786 -5.67387,4.4736 -9.03939,5.26691 -2.78371,0.65617 -6.871218,0.64918 -9.621248,-0.0165 z m -5.76665,-16.75651 c 2.17907,-0.99285 2.65892,-4.1511 0.9299,-6.12034 -2.87065,-3.26949 -7.35883,-1.10778 -7.06765,3.4041 0.0215,0.3328 0.53174,1.16624 1.13392,1.85208 0.93817,1.06852 1.31449,1.247 2.62924,1.247 0.84389,0 1.91246,-0.17228 2.37459,-0.38284 z m 20.884238,-45.49118 c -1.21901,-3.45504 -2.99406,-5.51612 -2.99406,-3.47652 0,0.38624 -0.23675,1.16007 -0.52611,1.71963 -0.49588,0.95893 -0.47393,1.07939 0.38203,2.09664 0.89895,1.06834 2.89021,1.91507 3.41411,1.45175 0.14928,-0.13202 0.0251,-0.93819 -0.27597,-1.7915 z m -6.72958,-4.24749 c 1.04905,-1.24673 1.19816,-2.93702 0.36413,-4.12777 -0.30204,-0.43122 -0.41949,-0.78405 -0.26098,-0.78405 0.15851,0 0.72313,-0.4033 1.25473,-0.89622 1.2787,-1.18568 1.24358,-2.40878 -0.10799,-3.76035 -0.96598,-0.96598 -1.2453,-1.05812 -2.76502,-0.91209 -1.68124,0.16154 -1.69482,0.1543 -2.478288,-1.32256 -0.89076,-1.6791 -1.91933,-2.281 -3.89796,-2.281 -2.57406,0 -4.06426,3.02644 -2.48118,5.03901 l 0.70859,0.90082 -1.0675,0.23446 c -2.02018,0.44371 -2.78082,3.42108 -1.262,4.9399 1.26988,1.26988 2.43562,1.42709 4.43154,0.59762 l 1.72895,-0.71852 0.22803,1.0382 c 0.67065,3.05348 3.798808,4.19902 5.604948,2.05255 z m -5.843508,-4.80809 c -0.86701,-1.00817 -0.98945,-1.73183 -0.42852,-2.53267 0.58673,-0.83768 2.52578,-1.03116 3.234218,-0.32272 0.46756,0.46755 0.57919,1.69333 0.15421,1.69333 -0.14802,0 -0.42583,0.35719 -0.61736,0.79375 -0.440908,1.00498 -1.633748,1.19252 -2.342548,0.36831 z m 2.675158,-1.47487 c 0.32068,-0.51886 -0.824548,-1.2721 -1.264788,-0.83187 -0.2077,0.20771 -0.27098,0.55023 -0.14061,0.76116 0.28574,0.46235 1.136888,0.50517 1.405398,0.0707 z m -111.778108,5.64105 c 1.5481201,-0.70312 2.8602701,-2.11887 3.1931801,-3.44528 0.28245,-1.12537 0.87597,-1.01401 1.71798,0.32233 1.14269,1.81354 2.81841,2.7336 4.97878,2.7336 1.58056999,0 2.06526999,-0.16633 3.07936,-1.05671 0.66194,-0.58119 1.40186,-1.53553 1.64427,-2.12075 0.65534,-1.58216 0.27131,-4.3138 -0.84325,-5.99801 l -0.94746,-1.43171 1.04769,-0.88157 c 0.57622,-0.48486 1.22965,-1.43294 1.45205,-2.10684 0.33916,-1.02766 0.30029,-1.43755 -0.24103,-2.54144 -0.78512,-1.60106 -2.65722,-2.9157 -4.13717001,-2.90522 -2.28643999,0.0162 -5.50407999,2.24348 -5.50407999,3.80999 0,0.39606 -0.28187,0.27755 -1.01856,-0.42825 -3.13829,-3.00667 -7.8275301,-1.87247 -8.8372501,2.13749 -0.39155,1.55497 -0.22799,3.59508 0.38317,4.77965 0.24265,0.4703 0.0919,0.7192 -0.67627,1.11643 -2.41983,1.25134 -2.82171,5.18537 -0.74214,7.26494 1.51003,1.51003 3.25168,1.75011 5.45073,0.75135 z m 1.6710201,-6.38904 c -0.8474201,-0.34143 -1.8003001,-1.76142 -1.1820001,-1.76142 0.20086,0 0.33064,-0.11906 0.28841,-0.26459 -0.15002,-0.51701 0.7174901,-2.39346 1.4722601,-3.18452 0.93112,-0.9759 3.01375,-0.97964 3.69526,-0.007 0.24233,0.34598 0.53519,0.53447 0.6508,0.41886 0.33471,-0.33471 0.70856,2.2373 0.46579,3.20456 -0.39589,1.57735 -3.30011,2.43602 -5.39052,1.59377 z m 3.06375,-3.21028 c 0,-0.47714 -0.2518,-0.66781 -0.88195,-0.66781 -0.63397,0 -0.88194,0.19011 -0.88194,0.67616 0,0.37189 0.19844,0.74537 0.44097,0.82998 0.72446,0.2527 1.32292,-0.12653 1.32292,-0.83833 z m 2.11667,-2.25531 c 0,-0.097 0.0794,-0.17639 0.17638,-0.17639 0.097,0 0.17639,0.0794 0.17639,0.17639 0,0.097 -0.0794,0.17639 -0.17639,0.17639 -0.097,0 -0.17638,-0.0794 -0.17638,-0.17639 z m 91.2538099,9.98703 c 0.47454,-0.52437 0.49336,-0.7848 0.12158,-1.68237 -0.44317,-1.06991 -1.94096,-1.77168 -3.79118,-1.7763 -1.15855,-0.003 -3.62311,1.06449 -3.62311,1.56916 0,0.93449 2.22979,2.1502 4.40972,2.40424 1.81759,0.21181 2.30408,0.12495 2.88299,-0.51473 z m -5.49086,-4.53929 c 0.93861,-0.50233 4.09824,-0.49947 4.7052,0.004 0.38284,0.31773 0.72139,0.17604 1.57636,-0.65972 0.59885,-0.58539 1.08881,-1.21035 1.08881,-1.38881 0,-1.02709 -6.79256,-2.70411 -8.46602,-2.09018 -1.98527,0.72831 -2.51266,1.84275 -1.70791,3.60899 0.44349,0.97336 1.57158,1.18479 2.80356,0.52545 z m 8.77916,-6.45043 c 0.001,-0.16342 0.31095,-0.68949 0.68817,-1.16904 0.37721,-0.47955 0.61036,-1.06862 0.5181,-1.30904 -0.60611,-1.5795 -5.37406,-2.29105 -6.22471,-0.92895 -0.60537,0.96936 -1.32924,0.88625 -1.32924,-0.15262 0,-0.54834 0.25473,-0.93902 0.70556,-1.0821 0.38805,-0.12317 0.70555,-0.35631 0.70555,-0.5181 0,-0.93165 -6.7004,-3.53885 -9.09471,-3.53885 -1.57151,0 -3.25251,1.25456 -3.25251,2.4274 0,1.24797 0.95831,1.80557 3.11201,1.81075 2.29162,0.006 3.59077,0.28146 3.59077,0.76271 0,0.18285 -0.16185,0.23242 -0.35968,0.11016 -0.57956,-0.35819 -2.76689,0.5214 -3.34339,1.34448 -1.96249,2.80184 2.3818,3.6052 4.81409,0.89022 0.97474,-1.08802 1.49296,-0.9015 1.52168,0.54772 0.0152,0.76558 2.02832,1.97094 3.35902,2.01118 0.48809,0.0148 1.44307,0.22952 2.12217,0.47723 1.16924,0.42652 1.26733,0.40171 1.84976,-0.46781 0.33827,-0.50501 0.61608,-1.05191 0.61736,-1.21534 z"
       id="path294" /></g></svg>
