<?xml version="1.0" encoding="UTF-8" standalone="no"?>
<!-- Created with Inkscape (http://www.inkscape.org/) -->

<svg
   width="289.7753mm"
   height="194.71587mm"
   viewBox="0 0 289.77534 194.71585"
   version="1.1"
   id="svg1"
   xml:space="preserve"
   xmlns="http://www.w3.org/2000/svg"
   xmlns:svg="http://www.w3.org/2000/svg"><defs
     id="defs1"><clipPath
       clipPathUnits="userSpaceOnUse"
       id="clipPath6"><path
         id="path7"
         style="fill:#ff0000;fill-opacity:1;fill-rule:nonzero;stroke:none;stroke-width:0.264583"
         d="M -175.07778,-16.057127 V 287.55793 H 124.54631 V -16.057127 Z m 132.7459,202.572647 c 0.210643,0.005 0.427212,0.0169 0.650089,0.0367 2.23823,0.19855 4.475655,0.4031 6.717938,0.55346 1.973313,0.11308 0.986628,0.0436 2.958475,0.20825 3.181295,0.26563 4.740125,1.85116 4.950601,3.46956 4.949923,1.63749 3.796379,7.35609 -2.592089,6.81354 -3.228716,-0.27422 -1.569593,-0.1301 -4.979024,-0.43357 -4.228209,-0.39317 -8.460616,-0.76265 -12.666927,-1.35341 -6.647387,-0.93358 -5.930551,-7.21034 0.03204,-7.20421 0.04685,5e-5 0.0972,0.004 0.144695,0.005 0.687229,-1.21692 2.304132,-2.15435 4.784204,-2.09548 z" /></clipPath><clipPath
       clipPathUnits="userSpaceOnUse"
       id="clipPath76"><path
         id="path77"
         style="fill:#ff0000;fill-opacity:1;fill-rule:nonzero;stroke:none;stroke-width:0.264583"
         d="M -133.83107,-122.52355 V 173.82063 H 122.97289 V -122.52355 Z M 13.574404,98.948202 c 2.788179,0.0507 4.135003,2.063798 3.398242,4.077268 0.199805,0.45372 0.374906,0.96736 0.517797,1.54461 1.07913,4.35948 0.671079,8.891 0.311608,13.31495 -0.351859,3.06036 -0.147137,1.57974 -0.604097,4.44366 -0.359666,2.25418 -1.333846,3.66838 -2.455664,4.32532 0.105138,0.36595 0.224724,0.72888 0.324528,1.09554 0.6273,2.23652 0.575201,4.47401 0.39429,6.75514 -0.137303,1.73129 -0.688065,2.99533 -1.427303,3.82199 -0.112477,0.41601 -0.170275,0.80219 -0.311092,1.25212 -0.184975,0.59102 -0.413327,1.1061 -0.670242,1.55856 0.741137,-0.23134 1.446982,-0.38145 2.064991,-0.37517 4.085002,0.0415 5.222724,4.75435 -0.02223,7.27138 -4.46677,2.14368 -9.303523,3.34693 -14.11903492,4.40955 -4.40876268,0.85156 -8.89238128,1.33053 -13.38264308,1.19269 -5.804014,-0.17807 -6.736297,-5.00293 -3.065447,-6.67298 -2.072987,-0.65744 -4.042852,-1.62261 -4.128947,-3.14709 -0.02802,-0.49633 0.0026,-0.90355 0.0341,-1.30897 -1.976731,-0.003 -3.95339,2.4e-4 -5.930386,0.003 -0.814031,0 -1.53062,-0.0962 -2.159559,-0.26149 -0.376306,0.19492 -0.742394,0.40783 -1.120862,0.59893 -6.391272,3.22657 -9.625245,-3.24074 -3.234428,-6.46886 1.833438,-0.92611 3.62694,-1.92211 5.414142,-2.92954 -0.877003,-3.87058 -1.368747,-7.83436 -1.323951,-11.80858 0.01651,-1.46304 0.376836,-2.54918 0.864547,-3.41426 -1.247357,-1.79999 -0.223805,-4.63069 3.842661,-5.68855 3.11826,-0.81116 6.282901,-1.39515 9.473837,-1.82211 -1.259816,-0.12657 -2.516182,-0.30233 -3.764627,-0.50177 -1.477002,-0.21985 -2.935575,-0.54305 -4.407482,-0.7891 -1.14214,-0.22954 -0.588502,-0.12004 -1.660882,-0.3297 -3.350244,-0.65501 -4.783278,-2.61088 -4.608504,-4.32997 -0.200179,-1.7721 1.333365,-3.52972 4.663799,-3.59461 v -5.3e-4 c 0.20954,-0.004 0.426035,-0.002 0.649571,0.008 1.77111,0.0772 3.528708,0.28204 5.26428,0.64027 1.655035,0.33225 3.314115,0.6481 4.955251,1.04439 1.244759,0.34858 2.51628,0.54538 3.7997689,0.6723 0.025956,0.002 0.052073,0.002 0.078034,0.004 0.4990888,-0.0371 0.9984105,-0.0743 1.4965495,-0.11317 1.346872,-0.12588 2.6913231,-0.25136 4.0457464,-0.24236 1.1278499,-0.0444 2.2567291,-0.10772 3.37498791,-0.26872 0.75719517,-0.11591 1.51142439,-0.25483 2.25722659,-0.4284 0.3616431,-0.12394 0.7240561,-0.24538 1.083138,-0.37775 0.3360393,-0.12388 0.6107589,-0.12825 0.9250071,-0.20723 0.1281086,-0.045 0.2583895,-0.0825 0.3855085,-0.13074 1.9825018,-0.7681 3.9540551,-1.56464 5.9510551,-2.29443 1.050809,-0.383992 1.999634,-0.542639 2.826703,-0.527616 z M 0.70283723,110.39557 c -0.45566013,0.0949 -0.90775367,0.208 -1.36890919,0.2744 -1.16638124,0.15534 -2.34111274,0.24237 -3.51761424,0.26251 0.4031694,0.0896 0.8047355,0.18876 1.2025101,0.308 0.1014836,0.0304 0.1982549,0.075 0.2986907,0.10852 0.4205235,-0.21824 0.9206601,-0.35072 1.4898318,-0.37156 0.39885139,-0.0146 0.83259872,0.0278 1.29449508,0.13023 0.22468681,-0.12213 0.44967525,-0.24374 0.67437529,-0.36587 -0.0326284,-0.11319 -0.058211,-0.22834 -0.0733795,-0.34623 z m 10.24433577,1.02474 c -0.76023,0.21437 -1.5189569,0.4343 -2.2696301,0.68006 -0.031261,0.62207 -0.2256075,1.28373 -0.6464723,1.94355 0.6236891,0.43248 1.2549743,1.04482 1.8634525,1.86862 0.2674939,0.36214 0.4748849,0.75712 0.7188199,1.13223 0.154519,-1.86707 0.314174,-3.74736 0.33383,-5.62446 z m 64.566086,3.39773 c 1.50346,0.0187 3.129182,1.24994 3.928441,4.04678 0.257931,0.90255 0.823497,1.65871 1.488797,2.30735 0.856321,0.95375 1.845738,1.76777 2.801898,2.61638 1.458581,1.46408 2.789203,3.04608 4.169772,4.58215 1.315059,1.44746 2.571226,2.91698 3.543967,4.61884 0.0053,0.01 0.0082,0.0206 0.01344,0.0305 0.734605,-0.43313 1.446276,-0.65634 2.094962,-0.69195 3.016182,-0.16561 4.69137,3.55377 1.187525,7.32306 -1.69471,1.82311 -3.657862,3.33908 -5.68751,4.7651 -0.777873,0.49914 -1.607691,0.90075 -2.418456,1.33842 0.165478,1.44344 -0.672182,3.24303 -2.956409,4.73096 -1.354556,0.88234 -2.690448,1.79306 -4.075203,2.6288 -2.075008,1.20078 -4.233777,2.27962 -6.540687,2.96259 -2.077586,0.62971 -4.169056,1.29987 -6.359301,1.36374 -1.872114,0.0897 -3.746989,0.0368 -5.620845,0.0501 h -5.1108 -5.524728 c -7.160125,0 -7.160125,-7.23315 0,-7.23315 h 1.347722 c 0.29438,-0.0541 0.5212,-0.1588 0.84801,-0.18656 1.106628,-0.094 2.200932,-0.28334 3.292822,-0.48421 0.456121,-0.98163 1.356053,-1.98213 2.807581,-2.83962 1.078018,-0.63685 2.158119,-1.26923 3.212209,-1.94561 1.962647,-1.29302 3.840588,-2.72135 5.893696,-3.86902 1.367169,-0.76424 2.559646,-1.07097 3.526915,-1.04128 2.216811,0.068 3.246223,1.90266 2.479953,4.04059 1.105688,-0.48686 2.206929,-0.98346 3.283003,-1.53739 2.619811,-1.23728 5.288743,-2.38548 7.764385,-3.9026 0.246153,-0.17184 0.487463,-0.34958 0.730705,-0.52503 -0.126915,-0.50614 -0.277693,-0.9939 -0.512114,-1.46554 -0.647621,-1.25778 -1.721077,-2.20654 -2.600875,-3.29644 -1.199229,-1.33472 -2.369312,-2.69496 -3.592029,-4.00803 -1.098706,-0.97599 -2.227236,-1.92181 -3.215306,-3.01428 -1.300821,-1.39063 -2.459913,-2.93896 -3.045293,-4.77801 -1.289469,-4.05101 0.646382,-6.61405 2.843754,-6.58667 z m -95.086705,4.28035 c -0.465643,0.10748 -0.930899,0.21773 -1.394745,0.33435 0.171958,0.64334 0.283575,1.36624 0.279569,2.2071 -0.01267,2.6582 0.205063,5.32647 0.670242,7.94732 0.280107,-0.17087 0.565767,-0.33222 0.845429,-0.50385 -0.01897,-0.36223 -0.02445,-0.73164 -0.05529,-1.08985 -0.118034,-2.96491 -0.160888,-5.93314 -0.3452,-8.89507 z m 18.5141159,1.1958 c 0.00497,0.0773 0.00619,0.15612 0.014975,0.23202 -0.1238779,0.22787 -0.2588048,0.44752 -0.3937741,0.66715 0.58900751,0.0447 1.13203305,0.21413 1.64331124,0.45888 -0.37615284,-0.49255 -0.78353709,-0.94642 -1.26452314,-1.35805 z m -6.5422357,14.57068 c -0.046649,0.0755 -0.09888,0.14702 -0.1436608,0.22376 -0.03147,0.054 0.1963367,0.0838 0.1860365,0.0222 -0.017595,-0.10481 -0.026035,-0.14905 -0.042376,-0.24597 z m 13.9236979,6.08439 c -0.2236258,0.5643 -0.5677508,1.09664 -1.1782213,1.50533 0.9079653,0.17659 1.7077452,0.44257 2.2830631,0.84852 0.1405493,-0.0459 0.272804,-0.11448 0.4128956,-0.16174 -0.7336976,-0.43656 -1.2984269,-1.18703 -1.5177374,-2.19211 z" /></clipPath><clipPath
       clipPathUnits="userSpaceOnUse"
       id="clipPath127"><path
         id="path128"
         style="fill:#ff0000;fill-opacity:1;fill-rule:nonzero;stroke:none;stroke-width:0.264583"
         d="M -112.24796,-126.55676 V 185.58027 H 148.5754 V -126.55676 Z M 46.874626,83.305366 c 1.808208,0 3.616317,1.790192 3.616317,5.370214 v 5.232238 c 0.0627,2.146078 -0.111291,4.285324 -0.245462,6.424932 -0.136289,2.02485 -0.190703,4.04985 -0.104904,6.07715 0.192061,1.91863 0.527714,3.82569 0.876432,5.72213 0.304242,2.00862 0.765826,3.9858 1.180806,5.97276 0.41642,1.86142 0.967934,3.68703 1.421104,5.53972 0.25287,0.86996 0.117097,0.46495 0.396356,1.22008 0.186108,0.50319 0.223428,0.93098 0.309544,1.38441 4.425355,2.23251 2.751262,7.58433 -3.415813,6.40477 -3.104732,-0.59371 -6.256094,-0.76586 -9.40821,-0.85576 -3.81635,0.009 -7.630525,0.17062 -11.44478,0.28216 -1.12776,0.0333 -2.255837,0.0512 -3.383772,0.0754 -0.908129,0.5548 -1.966518,0.57724 -2.88613,0.0641 -0.03584,5.3e-4 -0.07165,0.002 -0.107487,0.003 -0.03142,5.3e-4 -0.0525,-0.009 -0.08268,-0.009 -0.32049,0.14732 -0.641715,0.29301 -0.962215,0.44028 -0.262501,0.12062 -0.518089,0.22111 -0.770496,0.31265 -0.876996,0.71434 -1.945576,0.85817 -2.911967,0.46405 -2.943479,-0.21613 -4.295167,-2.77187 -2.550232,-5.0524 -2.22e-4,-0.028 -0.0078,-0.0483 -0.0078,-0.0765 v -6.3469 c -0.014,-2.72977 -0.02254,-5.45666 0.112657,-8.18348 0.135676,-2.32533 0.233519,-4.6523 0.299723,-6.98046 0.046,-1.80459 0.06926,-3.60958 0.08527,-5.41465 -0.0258,-1.02998 0.04009,-2.054459 0.138491,-3.078883 0.0044,-0.04602 0.02191,-0.07504 0.02687,-0.120406 C 15.992671,97.193438 15.83363,95.70984 16.656834,94.418959 10.68718,93.678613 10.992573,87.32947 17.739972,87.32947 h 3.885033 5.177462 5.913334 c 1.498505,0.05847 2.984222,-0.03228 4.475178,-0.161748 1.252041,-0.18606 2.49041,-0.398671 3.697968,-0.782897 1.001961,-0.32245 0.492366,-0.161472 1.527553,-0.482142 0.510384,-0.158096 0.938446,-0.174371 1.394749,-0.23771 0.672338,-1.56932 1.86623,-2.35903 3.063377,-2.35903 z" /></clipPath><clipPath
       clipPathUnits="userSpaceOnUse"
       id="clipPath139"><path
         id="path140"
         style="fill:#ff0000;fill-opacity:1;fill-rule:nonzero;stroke:none;stroke-width:0.264583"
         d="M 97.168006,-339.91235 V -44.578961 H 346.46958 V -339.91235 Z m 14.326254,94.53944 c 1.76488,0.006 3.77708,1.78446 4.35839,5.31699 0.32911,1.99994 0.60308,4.00817 0.88884,6.01462 1.02527,-1.2445 2.22305,-1.83589 3.28403,-1.8402 2.05627,-0.008 3.59454,2.17302 2.34611,6.00222 -0.0197,0.0606 -0.0413,0.12046 -0.0615,0.18087 0.31698,0.91799 0.41757,2.09982 0.17777,3.54139 -0.2164,1.30085 -0.62011,2.56457 -1.0263,3.8163 -1.34183,4.13496 -4.42238,4.92072 -6.12882,3.38016 -1.93867,0.62007 -4.30523,-0.86149 -4.65605,-4.82762 -0.16862,-1.90632 -0.33891,-3.81275 -0.57464,-5.71231 -0.45291,-3.52522 -1.07719,-7.02592 -1.48208,-10.55543 -0.40801,-3.55672 1.10935,-5.32303 2.87424,-5.31699 z" /></clipPath><clipPath
       clipPathUnits="userSpaceOnUse"
       id="clipPath170"><path
         id="path171"
         style="fill:#ff0000;fill-opacity:1;fill-rule:nonzero;stroke:none;stroke-width:0.264583"
         d="M 88.756261,-299.52331 V 17.880567 H 410.91541 V -299.52331 Z M 363.24287,-220.863 c 0.90345,-0.008 1.97628,0.23856 3.18532,0.82218 3.39402,1.63831 6.49674,3.81197 9.57823,5.96449 3.22509,2.31448 6.37511,4.73585 9.43663,7.26261 1.87296,1.50796 3.75989,2.99047 5.54284,4.6054 1.76167,1.54167 3.42262,3.17283 4.95419,4.94388 1.19316,1.48882 2.47049,2.9032 3.73311,4.33204 1.08043,1.20022 2.09423,2.45631 2.94299,3.83026 0.82616,1.73429 1.48968,3.55524 1.93786,5.42344 1.67031,6.96258 -5.76469,8.62686 -7.05745,1.5844 -0.21127,-1.15093 -0.75649,-2.20765 -1.10278,-3.32021 -0.52141,-1.02678 -1.43909,-1.82952 -2.14042,-2.72904 -1.28368,-1.45272 -2.58234,-2.89095 -3.79617,-4.40386 -1.32794,-1.55409 -2.79577,-2.95456 -4.33049,-4.3031 -1.69875,-1.54267 -3.51006,-2.94207 -5.29113,-4.38733 -2.90883,-2.40671 -5.90918,-4.70386 -8.97258,-6.91017 -2.63017,-1.83963 -5.2759,-3.68008 -8.12096,-5.17746 -5.14813,-2.7095 -4.41412,-7.50431 -0.49919,-7.53753 z m -17.79788,14.64304 c 0.81097,-0.004 1.74701,0.16947 2.79104,0.57154 4.59168,1.76834 8.99191,4.00303 13.38523,6.20892 0.37082,0.1876 0.72266,0.4088 1.09088,0.601 0.4155,-0.11565 0.91038,-0.17484 1.48572,-0.16691 0.65984,0.009 1.42523,0.10601 2.29753,0.30644 2.35556,0.54125 4.30075,1.95473 6.16344,3.42614 -1.07651,-2.72314 0.34142,-4.84679 2.57866,-4.84311 1.28683,0.002 2.83083,0.70484 4.29689,2.3952 2.44776,2.82227 4.79147,5.70892 6.96391,8.74934 1.67944,2.35043 1.72027,4.43615 0.89969,5.70663 1.5344,1.02281 3.07247,2.04019 4.58422,3.09645 1.80695,1.14136 3.31928,2.58833 4.72631,4.18269 0.96689,1.16625 2.0869,2.25988 2.79262,3.61942 0.19542,0.37651 0.34592,0.77482 0.51882,1.1622 0.40259,1.55462 0.27207,0.76263 0.38706,2.3766 0.0637,0.89436 -0.044,1.45412 -0.26977,1.7756 0.11753,0.20753 0.23421,0.41574 0.35608,0.62063 3.66003,6.15399 -2.6856,9.845 -6.25234,3.63648 -0.83209,-1.44832 -1.62388,-2.92102 -2.35437,-4.42351 -0.84839,-1.84687 -1.70402,-3.69055 -2.54093,-5.54229 -0.078,-0.17246 -0.14713,-0.34128 -0.2119,-0.5085 -0.415,-0.33988 -0.82071,-0.68775 -1.29707,-0.97255 -2.35545,-1.64933 -4.79565,-3.17384 -7.14841,-4.82761 -3.27895,-2.27743 -6.61384,-4.47194 -9.95804,-6.65231 -4.00886,-2.60003 -8.08797,-5.09434 -12.3548,-7.25434 -4.08429,-2.05175 -8.1752,-4.1242 -12.42663,-5.81101 -5.61546,-2.22804 -4.88331,-7.4129 -0.50384,-7.43314 z m -225.34594,21.50101 c 3.05551,-0.16929 4.03285,3.80875 0.35915,7.72563 -1.17612,1.25397 -2.32696,2.59265 -3.45922,3.90674 -1.44062,1.57315 -2.77631,3.23874 -4.13618,4.88135 -1.14319,1.4697 -2.29319,2.93265 -3.46335,4.38113 -0.8717,1.2084 -1.86054,2.32105 -2.81017,3.46594 -0.80685,0.95022 -1.53489,1.96075 -2.32234,2.92695 -0.80594,1.00684 -1.52017,2.08004 -2.22519,3.15847 -0.20511,0.28103 -0.29499,0.51935 -0.30179,0.78909 -0.18033,7.15787 -8.659963,5.5717 -7.093102,-1.4149 0.267098,-1.19094 0.644303,-2.32859 1.347721,-3.34243 0.846108,-1.28566 1.701136,-2.56663 2.670121,-3.76463 0.806525,-0.98525 1.5446,-2.0236 2.37453,-2.98999 0.93132,-1.109 1.88214,-2.2008 2.7342,-3.37448 1.18855,-1.47082 2.35327,-2.95822 3.51813,-4.44779 1.39067,-1.67946 2.758,-3.38112 4.2292,-4.99142 1.55862,-1.80675 3.07205,-3.68494 4.92528,-5.20227 1.38505,-1.13397 2.63451,-1.65096 3.65301,-1.70739 z m 30.4953,3.26389 c 4.11093,0.0973 5.25218,4.81763 -0.0434,7.22591 -1.93926,0.8819 -3.80509,1.88928 -5.66115,2.92437 0.381,1.39299 -0.23993,3.26566 -2.43035,4.98678 -2.3369,1.83618 -4.71607,3.61825 -7.08845,5.40845 -2.84267,2.19936 -5.66068,4.43162 -8.41086,6.74584 -2.22216,1.84972 -4.46469,3.67225 -6.66213,5.55109 -1.67979,1.46598 -3.37138,2.91821 -5.06067,4.37337 -1.40892,1.30469 -2.82191,2.592 -4.12274,4.00648 -1.07181,1.16531 -2.16701,1.83049 -3.17087,2.10529 -0.88357,6.53411 -7.65001,5.87099 -7.10344,-1.07177 0.0596,-0.75732 0.12015,-1.51435 0.21239,-2.26859 0.18237,-1.4495 0.31176,-2.90657 0.57051,-4.34444 0.56059,-2.2771 1.55106,-4.35314 3.32124,-5.95312 1.46716,-1.38711 2.94871,-2.75912 4.4943,-4.05919 1.45063,-1.21601 2.91967,-2.40825 4.4111,-3.57394 2.2284,-1.75259 4.48249,-3.46927 6.81044,-5.08961 3.1083,-2.16601 6.29001,-4.21936 9.5343,-6.17689 3.28252,-2.04598 6.49796,-4.19789 9.78648,-6.23476 2.38673,-1.38679 4.82146,-2.65715 7.33495,-3.79873 1.22236,-0.55516 2.32966,-0.77899 3.27836,-0.75654 z" /></clipPath><clipPath
       clipPathUnits="userSpaceOnUse"
       id="clipPath233"><path
         id="path234"
         style="fill:#ff0000;fill-opacity:1;fill-rule:nonzero;stroke:none;stroke-width:0.264583"
         d="M 185.24069,-319.24193 V -24.289387 H 425.09684 V -319.24193 Z m 138.35487,149.6534 c 1.78419,7.9e-4 3.63037,1.79012 3.80182,5.36608 0.0643,1.33996 -0.0719,2.65433 -0.29041,3.95842 0.27255,-0.0735 0.56767,-0.11689 0.88522,-0.12351 0.37047,-0.008 0.77026,0.0328 1.19579,0.12867 0.38629,-0.24279 0.8215,-0.42195 1.34254,-0.44493 1.13073,-0.0499 2.53823,0.47335 4.04474,1.80971 0.4186,0.37135 0.80759,0.77178 1.2056,1.16323 0.49581,-0.30652 1.09744,-0.47283 1.77559,-0.44028 1.18851,0.0571 2.59295,0.69888 3.98788,2.15129 2.63375,2.74227 4.82211,5.85047 6.92256,9.00669 2.43144,3.88376 4.79634,7.81591 6.98098,11.84475 1.13959,2.01485 2.36363,3.97199 3.24527,6.11746 0.86638,2.54168 0.71525,4.37292 -0.15348,6.88278 -0.88855,2.03627 -2.18951,3.83746 -3.64937,5.49682 -1.22616,1.21887 -2.44396,2.51198 -3.976,3.35587 -0.38219,0.21053 -0.79187,0.3659 -1.18803,0.54881 -6.50071,3.00135 -9.83602,-5.23462 -2.81948,-6.6611 1.07346,-0.21823 1.75532,-1.41088 2.56987,-2.0407 0.86323,-0.96375 1.62015,-2.00233 2.25208,-3.13417 0.24334,-0.63932 0.47847,-1.05078 0.24958,-1.76114 -0.42873,-1.13152 -1.03555,-2.17502 -1.65674,-3.21169 -0.64492,3.08426 -3.96214,3.78517 -6.03631,0.97152 -0.80928,1.85722 -3.53859,2.62684 -6.75775,0.30902 -0.53872,-0.38787 -1.07831,-0.77486 -1.61745,-1.1622 -3.08248,4.62545 -3.94671,5.04673 -6.74584,2.87063 -2.73204,-2.16473 -5.33615,-4.48821 -8.05999,-6.6642 -2.7461,-2.45053 -5.40757,-5.07957 -7.04763,-8.42635 -1.62115,-0.12575 -3.24178,-0.2569 -4.86637,-0.34314 -7.58719,-0.44787 -15.17743,-0.9445 -22.76553,-1.33377 -1.07801,-0.0553 -1.93227,-0.3045 -2.68459,-0.62166 -0.57677,0.62929 -1.1192,1.29485 -1.64021,1.97352 -1.38696,2.1585 -2.2854,4.54313 -3.09181,6.96185 -0.53658,1.90527 -0.93866,3.84574 -1.3658,5.77949 0.3976,-0.38181 0.79402,-0.76498 1.19114,-1.14825 1.44902,-1.39846 2.84121,-1.97983 3.98373,-1.97766 2.91995,0.006 4.20899,3.82009 0.64648,7.53391 -0.92629,0.96557 -1.9114,1.86859 -2.9099,2.75797 -1.78302,1.58814 -3.50499,2.03887 -4.81263,1.76372 -0.007,0.0412 -0.0189,0.0812 -0.0253,0.12247 -0.31138,2.1774 -0.34632,4.38158 -0.39739,6.57686 0.006,3.5147 -0.15426,7.02208 -0.44287,10.52391 -0.15049,2.45352 -0.52882,4.882887 -0.77928,7.326166 -0.25682,2.270699 -0.2357,4.548968 -0.1633,6.828007 0.0525,1.43787 0.0261,0.723201 0.0775,2.145088 7.9e-4,0.02175 -0.006,0.03573 -0.006,0.05736 0.13966,0.0486 0.27673,0.09115 0.42013,0.148309 3.73047,1.486969 7.59999,2.598727 11.41894,3.833876 4.85884,1.705695 9.66861,3.546912 14.50144,5.32474 1.9552,0.651698 3.84707,1.443672 5.71489,2.292366 2.6308,-0.638411 5.26049,-1.281708 7.89771,-1.893425 4.5737,-1.075436 2.35597,-0.547624 6.65438,-1.580782 0.65268,-0.156879 1.2592,-0.237268 1.81642,-0.252698 3.40876,-0.09437 4.96226,2.238663 4.05712,4.350639 3.89832,1.612736 3.00805,6.568553 -2.90269,6.729304 l -2.19726,0.05943 c 0.0932,0.05532 0.18872,0.106439 0.28112,0.163298 6.09814,3.752323 2.1299,10.065517 -3.84782,6.124173 -1.04591,-0.689594 -2.23735,-1.127543 -3.31556,-1.763197 -2.61015,-1.251701 -5.22853,-2.484003 -7.87136,-3.665926 -0.34703,-0.170111 -0.69536,-0.335955 -1.04283,-0.504362 -1.04394,0.228952 -2.09238,0.441277 -3.15071,0.537951 -0.41145,0.100483 -0.82417,0.195434 -1.23558,0.296105 -3.95687,0.968251 -6.08679,-0.907356 -5.97897,-3.010669 -0.31188,-0.687727 -0.239,-1.395294 0.0263,-2.059305 -3.87146,-1.438614 -7.73769,-2.891312 -11.63237,-4.265891 -3.97417,-1.285444 -7.99945,-2.446282 -11.87938,-4.000272 -1.44639,-0.579335 -2.44377,-1.350957 -3.06182,-2.17506 -1.01218,-0.798706 -1.81304,-2.231819 -1.89446,-4.484998 -0.0517,-1.431189 -0.0254,-0.705106 -0.0791,-2.177645 -0.0816,-2.602558 -0.0903,-5.205841 0.19844,-7.79849 0.24823,-2.394268 0.6146,-4.775082 0.76533,-7.179412 0.27808,-3.36008 0.42763,-6.72542 0.42064,-10.09809 0.0594,-2.5132 0.11189,-5.03614 0.48266,-7.52719 0.38072,-2.41928 0.90466,-4.80615 1.46451,-7.18974 0.6701,-2.94551 1.25825,-5.91529 2.11305,-8.81393 1.0668,-3.18776 2.31041,-6.31647 4.23489,-9.10074 0.42128,-0.53977 0.8547,-1.07136 1.29914,-1.59215 -1.52816,-0.60355 -3.06641,-1.18197 -4.57646,-1.83141 -1.09038,3.76762 -2.19021,7.53001 -3.40755,11.25926 -1.05961,2.97655 -0.54118,1.54568 -1.55081,4.2938 -1.83358,4.9908 -6.03644,4.88509 -7.07398,1.75544 -2.82634,3.52841 -7.50378,1.0111 -5.57744,-4.75268 1.05408,-3.1537 2.2385,-6.34595 4.49688,-8.85837 1.49582,-1.66408 2.97572,-2.34765 4.17287,-2.32647 0.33252,0.006 0.64298,0.0664 0.92604,0.17518 0.46945,-1.58214 0.96416,-3.15651 1.43919,-4.7377 0.70062,-2.33196 1.93737,-3.52641 3.18689,-3.8871 0.54142,-0.34307 1.25019,-0.55529 2.11615,-0.57361 h 5.3e-4 c 0.8057,-0.017 1.74503,0.13149 2.80396,0.49248 0.31645,0.10788 0.63769,0.20324 0.94929,0.32401 1.83624,0.71133 3.60046,1.59642 5.43016,2.32544 1.18096,0.47048 2.26953,0.84228 3.35329,1.23145 0.62902,-0.20883 1.22424,-0.32846 1.76785,-0.35037 2.28614,-0.0921 3.73455,1.32842 3.67523,3.07682 1.73917,0.0925 3.47854,0.18832 5.21777,0.2899 -0.1345,-1.7899 1.43141,-3.54652 4.54959,-3.56619 0.39587,-0.002 0.816,0.0231 1.25987,0.0801 3.99155,0.51285 7.97638,1.04608 11.94346,1.72703 0.35092,0.0747 0.7018,0.14913 1.05265,0.22376 0.92028,-2.09088 2.0607,-3.80586 3.79408,-5.38675 0.9172,-0.8245 1.6747,-1.80494 2.07378,-2.98587 0.46483,-1.35061 0.4893,-2.77914 0.4594,-4.19561 h 5.3e-4 c -0.0754,-3.57927 1.64663,-5.36691 3.4308,-5.36608 z m 1.97559,14.00741 c -0.78838,1.39934 -1.79816,2.66075 -2.96984,3.79512 -1.06213,0.94584 -1.80404,2.02586 -2.28153,3.3538 -0.003,0.012 -0.005,0.0237 -0.009,0.0357 1.15411,0.11311 2.30814,0.22665 3.4613,0.3514 3.99042,0.43171 5.40747,2.84663 4.69323,4.76353 0.67585,0.41545 1.35041,0.83313 2.01954,1.25626 3.82278,2.5036 7.53266,5.1715 11.24013,7.84086 -1.81731,-3.68096 -3.93583,-7.19476 -6.36087,-10.5146 -1.10355,-1.48555 -2.20805,-3.00054 -3.36206,-4.44883 -0.35653,-0.44747 -1.7607,-2.16704 -2.34455,-2.70784 -0.36042,-0.33384 -0.93237,-0.68033 -1.36375,-0.9555 -1.33122,-0.84918 -2.21667,-1.81673 -2.72282,-2.76986 z" /></clipPath><clipPath
       clipPathUnits="userSpaceOnUse"
       id="clipPath240"><path
         id="path241"
         style="fill:#ff0000;fill-opacity:1;fill-rule:nonzero;stroke:none;stroke-width:0.264583"
         d="M 92.804184,-309.23338 V -41.629034 H 294.29938 V -309.23338 Z m 130.496946,63.74443 c 0.93337,0.009 2.02072,0.27397 3.21944,0.8785 1.75312,0.88412 3.43212,1.89553 5.06326,2.98586 5.9527,3.97906 1.8926,10.01797 -4.03542,6.00222 -1.36849,-0.92705 -2.78857,-1.76849 -4.26227,-2.51871 -5.18448,-2.63926 -4.02961,-7.38891 0.015,-7.34787 z m -85.24544,1.99626 c 3.36772,-0.0906 4.87054,3.93317 0.67437,7.28431 -0.81214,0.6486 -0.42273,0.34746 -1.1653,0.9064 -1.7275,1.42217 -3.47209,2.82263 -5.29477,4.12275 -2.09112,1.47372 -4.25636,2.82668 -6.45645,4.13153 -6.15846,3.65253 -10.39165,-1.95967 -4.33979,-5.78621 2.21999,-1.40367 4.47897,-2.73503 6.6244,-4.25349 1.67688,-1.19734 3.27994,-2.48915 4.86947,-3.79821 0.91499,-0.69918 0.50268,-0.37435 1.24076,-0.9679 1.39493,-1.12177 2.72473,-1.60899 3.84731,-1.63918 z" /></clipPath><clipPath
       clipPathUnits="userSpaceOnUse"
       id="clipPath251"><path
         id="path252"
         style="fill:#ff0000;fill-opacity:1;fill-rule:nonzero;stroke:none;stroke-width:0.264583"
         d="m 50.06164,-325.07443 v 245.270816 h 202.0347 V -325.07443 Z m 191.06172,72.239 c 1.42195,-0.0396 3.11835,0.92332 4.44418,3.2582 0.80855,1.42391 1.33311,2.97097 1.71979,4.55476 0.38267,1.85761 0.50306,3.75527 0.49506,5.64772 0.007,1.66837 -0.28067,3.30966 -0.52503,4.95318 -0.26767,2.07853 -1.32063,3.82386 -2.54249,5.47306 -0.98598,1.19805 -2.03839,2.33999 -3.16208,3.40961 -0.37488,0.32054 -0.76867,0.61405 -1.09502,0.98443 -4.73356,5.37222 -10.25077,0.0313 -5.19193,-5.03587 0.41783,-0.41852 0.82603,-0.84961 1.30896,-1.19579 0.83199,-0.78568 1.60086,-1.63171 2.34973,-2.49649 0.52191,-0.686 1.06794,-1.32103 1.17874,-2.204 0.19629,-1.31742 0.44949,-2.62948 0.44648,-3.9672 0.0288,-1.3072 -0.0809,-2.61845 -0.30179,-3.90725 -0.20137,-0.91522 -0.51051,-1.80281 -0.96014,-2.62775 -2.14172,-3.92928 -0.53435,-6.78057 1.83554,-6.84661 z m -24.00732,134.01508 c 1.58088,-0.0452 3.27238,1.29937 3.90106,4.36821 0.19779,0.96552 0.49313,1.88927 0.87385,2.79466 0.57738,1.31117 0.86222,2.69631 0.9741,4.11603 0.0779,1.63421 -0.38657,3.16522 -1.00976,4.65191 -0.60784,1.37091 -1.55916,2.5173 -2.50579,3.660755 -0.2566,0.333243 -0.50348,0.67224 -0.76223,1.002525 -0.0721,0.651052 -0.19323,1.300012 -0.35502,1.949752 l -0.4842,1.22783 c -0.70346,1.782932 -1.87803,2.754204 -3.12126,3.127457 -0.38818,0.593834 -0.73665,1.213207 -1.1529,1.788007 -0.78123,1.206815 -1.75001,2.262322 -2.80138,3.23546 -1.04259,0.90742 -2.26203,1.551003 -3.47214,2.198833 -0.81145,0.41652 -1.66264,0.737227 -2.52439,1.030428 -6.77856,2.306214 -9.10653,-4.670343 -2.28979,-6.86108 0.48258,-0.155091 0.95367,-0.335381 1.41232,-0.552421 0.68902,-0.364839 1.38726,-0.713642 2.01745,-1.175639 0.71797,-0.616461 1.30017,-1.358352 1.82004,-2.146123 0.66383,-0.892056 1.26802,-1.828112 1.8216,-2.792076 0.59882,-1.12436 1.07283,-2.316203 1.82056,-3.358968 0.0117,-0.0166 0.0249,-0.032 0.0367,-0.0486 -0.84786,-3.67928 0.87949,-5.67892 2.87217,-5.69422 0.38363,-0.003 0.77643,0.0723 1.16324,0.21859 0.15519,-0.3579 0.298,-0.71847 0.29042,-1.1188 -0.0398,-0.54898 -0.18359,-1.13581 -0.4191,-1.66191 -0.48947,-1.16893 -0.89792,-2.36312 -1.1591,-3.60547 -0.82863,-3.94139 1.021,-6.29698 3.05356,-6.35516 z" /></clipPath><clipPath
       clipPathUnits="userSpaceOnUse"
       id="clipPath278"><path
         id="path279"
         style="fill:#ff0000;fill-opacity:1;fill-rule:nonzero;stroke:none;stroke-width:0.264583"
         d="m -43.212488,-382.05292 v 250.81001 H 185.4025 v -250.81001 z m 181.494868,132.88233 c 1.13528,0.005 2.03811,0.42617 2.60707,1.09037 0.91934,-0.34123 1.78192,-0.54125 2.52078,-0.52658 4.05205,0.0805 5.08945,4.87108 -0.18087,7.33443 -2.21042,1.03317 -4.41856,2.08163 -6.72362,2.89285 -2.86091,0.99315 -5.74924,1.921 -8.52506,3.13986 -6.55592,2.87873 -9.40434,-3.76713 -2.84944,-6.64817 1.1011,-0.48395 2.22936,-0.89759 3.35587,-1.31568 0.52294,-1.00077 1.47788,-2.01475 2.95124,-2.87476 1.0894,-0.6359 2.16914,-1.287 3.24683,-1.94252 1.33817,-0.81396 2.56345,-1.15421 3.5972,-1.1498 z m -133.0900695,2.4753 h 5.5981075 c 7.160125,0 7.160125,7.23263 0,7.23263 H 5.1923105 c -7.1601277,0 -7.1601277,-7.23263 0,-7.23263 z m 42.9880715,50.84496 c 2.044401,-0.008 3.844292,2.25841 2.953308,6.18618 -0.283588,1.25017 -0.481169,2.51568 -0.75189,3.76877 -0.313965,1.46608 -0.73946,2.91235 -1.207162,4.33668 -2.233805,6.80278 -9.211228,4.46329 -6.857981,-2.29908 0.404762,-1.16313 0.726765,-2.36525 0.995807,-3.56619 0.287499,-1.32813 0.484814,-2.67249 0.804084,-3.99407 0.735603,-3.04497 2.473746,-4.42641 4.063834,-4.43229 z m 26.844358,9.60148 c 1.5451,0.0844 3.630816,1.85281 5.237924,5.05189 1.446292,2.8789 3.498345,5.40261 5.377447,8.00674 1.423178,1.86933 2.496352,3.93269 3.488161,6.04873 3.038795,6.48323 -3.64554,9.55837 -6.57066,3.02307 -0.764304,-1.70766 -1.644017,-3.34338 -2.782776,-4.84001 -2.279812,-3.15977 -5.466628,-6.83969 -6.494177,-10.63656 -0.141171,-0.52168 -0.167447,-1.06805 -0.251148,-1.60197 -0.554762,-3.53682 0.450099,-5.13633 1.995229,-5.05189 z m 22.433772,2.07998 v 5.3e-4 c 1.081786,0.0173 2.458693,0.64291 3.986318,2.0805 1.21595,1.14421 2.08888,2.57763 3.1502,3.85661 0.75663,0.91352 1.6619,1.66584 2.53163,2.46393 1.1475,0.93011 2.05703,2.06162 2.85305,3.29799 0.95863,1.59903 1.44035,3.34615 0.97049,5.20227 -0.10236,0.40431 -0.31771,0.77135 -0.47646,1.15703 -1.02548,2.49132 -2.04203,1.65641 -2.97036,0.0238 -2.04159,1.70549 -5.47708,1.09344 -5.78105,-3.28558 -0.003,-0.0322 -0.0142,-0.0648 -0.007,-0.0966 0.005,-0.03 0.0986,-0.0136 0.0827,-0.0393 -0.23736,-0.38486 -0.69492,-0.61714 -1.02216,-0.90227 -1.100378,-0.77725 -2.267905,-1.45106 -3.395141,-2.18798 -3.582773,-2.34245 -3.744537,-5.4822 -2.015898,-6.82284 -0.840523,-2.68156 0.04882,-4.63231 1.88154,-4.74287 0.06945,-0.004 0.140271,-0.006 0.212389,-0.005 z" /></clipPath><clipPath
       clipPathUnits="userSpaceOnUse"
       id="clipPath292"><path
         id="path293"
         style="fill:#ff0000;fill-opacity:1;fill-rule:nonzero;stroke:none;stroke-width:0.264583"
         d="M 39.169506,-337.89832 V -50.969072 H 288.46282 V -337.89832 Z m 15.676046,82.89261 c 1.714024,0.0204 3.54041,1.61061 3.978568,4.9382 0.120111,0.91222 0.106387,1.83456 0.107487,2.75229 0.0087,7.16012 -7.246413,7.15857 -7.232633,-0.002 0.0013,-0.65071 0.02757,-1.30512 -0.06356,-1.95182 -0.530767,-3.76661 1.267578,-5.76019 3.21014,-5.73712 z m 197.013298,6.80941 c 1.32993,-0.0899 2.96772,0.82319 4.38423,3.1042 1.07429,1.72993 1.55184,3.70118 1.89652,5.68338 0.39598,2.58761 0.42018,5.20011 0.26717,7.80675 -0.16631,2.61527 -0.75971,5.14416 -1.52187,7.63985 -0.4978,1.90614 -1.23662,3.72608 -2.0159,5.52989 -0.76243,1.81488 -1.37928,3.68664 -2.00143,5.55315 -0.64972,1.87676 -1.26002,3.76819 -2.01124,5.60741 -0.95415,2.1244 -1.9321,4.237 -2.90784,6.35155 -0.93622,2.10591 -1.93956,4.18102 -3.03444,6.20893 -0.74336,1.47932 -1.63431,2.88203 -2.64686,4.19044 -0.85071,1.10794 -1.91984,2.00805 -2.89078,3.00343 -1.04445,1.12516 -2.20219,2.13025 -3.34605,3.1502 -1.2349,1.05182 -2.56579,1.98944 -3.91811,2.88354 -1.93444,1.28303 -4.12655,2.08437 -6.28747,2.89285 -2.75914,1.06536 -5.6224,1.79172 -8.50439,2.42982 -2.00852,0.48359 -4.02259,0.93996 -6.05234,1.32499 -1.0898,0.20672 -1.99053,0.15992 -2.79725,0.0139 -0.75827,0.17949 -1.51301,0.3744 -2.26653,0.57309 -1.4977,0.44017 -2.97995,0.92699 -4.46019,1.42214 -1.58834,0.5581 -3.19109,1.04834 -4.83381,1.42213 -2.05853,0.5373 -4.13223,0.98734 -6.23425,1.31724 -1.89057,0.38525 -3.79586,0.65788 -5.71696,0.82837 -1.92552,0.0766 -3.83858,0.29911 -5.75676,0.47025 -1.71912,0.15432 -3.44381,0.22701 -5.16867,0.27441 -2.44184,-0.0118 -4.87127,-0.25567 -7.30085,-0.47078 -2.85973,-0.19225 -5.71909,-0.39592 -8.57157,-0.67799 -2.83995,-0.26841 -5.65359,-0.74864 -8.47907,-1.13016 -2.66463,-0.21934 -5.29981,-0.64608 -7.94267,-1.03457 -2.11987,-0.30404 -4.25541,-0.45909 -6.38152,-0.71055 -1.8808,-0.17534 -3.75496,-0.4017 -5.63118,-0.61856 -1.91243,-0.21286 -3.83573,-0.28885 -5.75779,-0.34985 -2.23949,-0.16259 -4.48445,-0.27106 -6.71949,-0.48783 -2.21917,-0.20648 -4.40762,-0.67897 -6.54068,-1.31516 -2.57048,-0.65769 -4.88262,-1.9917 -7.25382,-3.13883 -1.91366,-0.89121 -3.846978,-1.74009 -5.755724,-2.6417 -1.929913,-0.93683 -3.722034,-2.11514 -5.521108,-3.27525 -1.492637,-0.90475 -0.734285,-0.44535 -2.275314,-1.37821 -6.125257,-3.70793 -2.379728,-9.89571 3.745508,-6.18774 1.606161,0.9723 0.789586,0.47683 2.449462,1.48725 1.534261,0.98943 3.055983,2.00536 4.695836,2.81636 1.92633,0.91375 3.8825,1.76312 5.81257,2.66909 2.03397,0.98503 4.0062,2.16157 6.20944,2.72955 1.67042,0.52508 3.40555,0.86136 5.14697,1.03715 2.07333,0.21111 4.15957,0.28906 6.23683,0.4563 2.12341,0.0679 4.24789,0.15641 6.36033,0.39429 1.88182,0.21873 3.76122,0.44337 5.64772,0.62012 2.19401,0.25968 4.39889,0.41632 6.58565,0.73794 2.61501,0.3856 5.2221,0.80551 7.85895,1.02267 2.74095,0.37156 5.47017,0.83558 8.22482,1.1002 2.82609,0.28319 5.66087,0.47505 8.49405,0.67076 2.15225,0.19062 4.3024,0.40925 6.46472,0.44545 1.57684,-0.0428 3.1537,-0.10777 4.7253,-0.24857 1.92194,-0.17061 3.8389,-0.3955 5.76812,-0.4718 1.7606,-0.15093 3.50197,-0.42258 5.23482,-0.76946 1.94524,-0.29972 3.85736,-0.73584 5.76244,-1.22784 1.40538,-0.30937 2.76609,-0.74989 4.12327,-1.22421 1.62869,-0.54468 3.26081,-1.07909 4.91081,-1.5565 1.77362,-0.46766 3.552,-0.92735 5.36814,-1.20147 1.70238,-0.33298 3.38762,-0.74982 5.05034,-1.24437 1.8768,-0.51034 3.73395,-1.11665 5.54695,-1.81953 1.67544,-0.67931 3.31988,-1.45879 4.78886,-2.52439 1.0657,-0.84543 2.16725,-1.64342 3.15019,-2.58951 1.28809,-1.21508 2.58622,-2.41928 3.84008,-3.67058 0.85194,-0.84614 1.68746,-1.65828 2.24585,-2.7404 0.63482,-0.99725 1.29901,-1.9775 1.85674,-3.02152 0.55263,-0.92785 1.06197,-1.877 1.53479,-2.8484 0.43455,-0.81257 0.86675,-1.63643 1.16427,-2.50993 0.39723,-1.087 0.65435,-2.21493 0.97203,-3.32641 0.29574,-1.24569 0.60338,-2.49273 1.07901,-3.68453 0.39957,-1.05638 0.68712,-2.15558 1.05006,-3.22512 0.22713,-0.94997 0.37986,-1.92387 0.55966,-2.88303 0.22526,-1.23853 0.53664,-2.45701 1.02371,-3.62149 0.47591,-1.31864 1.08044,-2.58627 1.7048,-3.84007 0.34111,-0.58794 0.67316,-1.19257 0.96067,-1.80041 0.32682,-0.71346 -0.0659,-2.40019 0.0822,-3.22151 v -4.23178 c 0,-3.58007 1.80812,-5.37022 3.61632,-5.37022 0.15156,0 0.30168,0.0312 0.45217,0.0563 -0.0649,-0.17178 -0.10183,-0.35173 -0.18242,-0.51883 -1.94402,-4.03078 -0.58254,-6.96655 1.63401,-7.11636 z" /></clipPath></defs><g
     id="layer1"
     transform="translate(127.81902,361.85464)"><path
       style="fill:#000000"
       d="m -106.87284,-167.76415 c -7.74102,-1.65854 -13.89937,-5.73741 -17.81926,-11.80225 -1.9595,-3.03171 -2.86549,-6.09073 -3.08437,-10.41411 -0.23549,-4.65131 0.48678,-7.9676 2.66232,-12.22398 1.79543,-3.51272 5.72577,-8.02686 8.85306,-10.16806 1.66681,-1.14124 1.91837,-1.54641 5.45215,-8.78116 2.0376,-4.1716 4.60241,-9.79777 5.69958,-12.50259 2.48096,-6.11622 4.35169,-9.85857 6.575481,-13.15409 1.68105,-2.49121 5.524621,-6.68801 7.412217,-8.09342 0.517005,-0.38493 1.665242,-1.92655 2.551632,-3.42582 2.18373,-3.69363 4.27789,-6.35328 7.02828,-8.92613 6.84037,-6.39883 15.17856,-10.28862 23.87591,-11.13819 0.86313,-0.0843 0.89114,-0.18021 1.31302,-4.49587 0.90003,-9.20678 3.18065,-17.10656 7.48562,-25.92916 9.88304,-20.25434 27.61265,-36.17473 50.4826197,-45.33113 14.2902003,-5.72134 28.3046503,-8.12306 44.6117903,-7.64534 10.75893,0.31518 19.68216,1.72708 29.17535,4.61634 27.38409,8.33435 49.85722,28.56615 60.37918,54.35735 6.85549,16.80402 8.82884,36.98143 4.98549,50.97638 -0.50621,1.84327 -0.99464,3.66889 -1.08541,4.05695 -0.12653,0.54091 0.2982,1.03454 1.82015,2.1154 2.74787,1.9515 7.29583,6.77589 8.6506,9.17641 0.62036,1.09923 1.38282,2.08503 1.69434,2.19066 4.11844,1.39644 7.49551,4.16058 8.84906,7.24295 2.45622,5.59348 1.27884,11.48824 -3.15293,15.7857 -1.17441,1.1388 -2.57598,3.0131 -3.38965,4.53291 -2.98885,5.58271 -11.90128,15.16705 -19.55529,21.0296 -11.799,9.03736 -27.01009,16.13371 -38.61871,18.01657 -4.85323,0.78717 -199.16527,0.72403 -202.85223,-0.0659 z m 156.33197,-7.03167 c 1.54833,-1.24435 3.17615,-4.2254 4.68388,-8.57764 l 1.02736,-2.96558 0.24828,1.32341 c 0.26325,1.40328 0.01,7.53277 -0.37278,9.01747 -0.18749,0.7275 0.0604,0.57677 1.41579,-0.86073 2.06701,-2.1923 3.89716,-5.81608 5.99364,-11.86771 l 1.64004,-4.73406 -0.15136,4.93889 -0.15136,4.93889 1.03697,-2.20243 c 3.92076,-8.32728 -0.58347,-18.05511 -9.58238,-20.69516 -2.51354,-0.7374 -7.76935,-0.73667 -10.27889,0.001 -2.99597,0.88118 -7.00046,3.12769 -9.40368,5.27546 -2.55902,2.287 -5.76845,6.93485 -6.63859,9.61389 -0.82866,2.55131 -0.55876,5.85752 0.64528,7.90457 0.86938,1.47808 2.60933,3.36851 2.82824,3.07284 0.0604,-0.0816 0.62945,-1.2257 1.26452,-2.54243 1.77411,-3.67843 6.38652,-7.80422 7.49049,-6.70024 0.23972,0.23972 -0.1143,1.0841 -1.08272,2.58244 -3.00585,4.65063 -3.33963,9.43624 -0.81736,11.71886 1.66186,1.50396 3.35077,2.0369 6.14769,1.93989 2.42048,-0.0839 2.84419,-0.2074 4.05694,-1.18206 z m 35.72879,-0.69013 c 1.58342,-0.30037 3.91817,-0.86711 5.18834,-1.25943 2.30487,-0.7119 3.09541,-0.67141 2.3059,0.1181 -0.81774,0.81773 -0.38971,1.02944 1.61102,0.79683 7.44448,-0.86554 17.56954,-4.81839 27.01866,-10.54817 11.13526,-6.75223 22.0655,-17.07816 25.96524,-24.52968 1.08954,-2.08188 1.7349,-2.87422 2.96659,-3.64224 1.73025,-1.07889 3.16394,-2.76659 3.95159,-4.6517 1.53683,-3.67817 -0.7757,-6.86325 -5.55849,-7.65579 l -2.27743,-0.37738 -1.85502,-3.17365 c -1.86351,-3.18818 -7.0609,-9.0891 -8.00547,-9.0891 -0.25926,0 -1.111,1.28181 -1.89275,2.84846 -0.78176,1.56664 -1.89713,3.53993 -2.47861,4.38508 -1.27822,1.85784 -1.28629,1.93869 -0.1935,1.93869 0.47505,0 2.18162,0.42414 3.79236,0.94254 l 2.92863,0.94255 -1.5875,0.29327 c -4.22705,0.7809 -5.6296,1.14202 -7.58472,1.9529 -1.96556,0.81521 -3.51521,1.81973 -3.23678,2.09817 0.0654,0.0654 1.31995,0.4261 2.78785,0.80153 3.12022,0.79802 7.3506,2.53581 8.63777,3.5483 l 0.90214,0.70962 -0.84133,-4.8e-4 c -0.46272,-2.6e-4 -2.1907,-0.25003 -3.83993,-0.55503 -4.76213,-0.88067 -13.53821,-1.05354 -18.24662,-0.3594 -7.65154,1.12803 -14.74926,3.80504 -20.87649,7.87388 -3.54269,2.35256 -9.86314,8.51211 -11.86387,11.56187 -1.75355,2.67297 -4.37944,7.87572 -5.25251,10.40694 l -0.66924,1.94028 -0.50191,-1.76389 c -0.5687,-1.99864 -0.77377,-8.57289 -0.32271,-10.34596 l 0.29859,-1.17374 -2.94442,0.24886 c -1.61944,0.13687 -2.98604,0.28333 -3.0369,0.32547 -0.0509,0.0421 0.21606,0.77583 0.59315,1.63043 1.60909,3.64668 1.79002,9.19734 0.43101,13.22285 -0.35518,1.05211 -0.59292,1.91292 -0.52829,1.91292 0.0646,0 1.42905,-0.53626 3.03205,-1.19169 2.57821,-1.05417 6.81478,-1.9665 6.03204,-1.29898 -0.1624,0.13849 -1.37262,1.00582 -2.68938,1.92741 -2.60818,1.82542 -4.05034,3.66556 -4.35783,5.56041 -0.15855,0.97701 -0.0116,1.43612 0.74896,2.34 0.52041,0.61848 1.44898,1.27006 2.06348,1.44797 1.76857,0.51203 6.24899,0.43612 9.38633,-0.15902 z m -58.62608,-2.26926 c -2.22611,-2.45994 -3.544,-4.98091 -4.15157,-7.94148 -0.45503,-2.21729 -0.28028,-5.95999 0.36466,-7.81006 0.34689,-0.99509 0.24961,-1.17597 -1.78836,-3.32534 -5.87442,-6.19553 -12.7722903,-16.76094 -18.9211403,-28.98138 l -1.72335003,-3.42503 -0.40852,2.9959 c -0.51745,3.79471 -1.67738997,6.32765 -4.04628997,8.83584 -2.34089,2.47853 -4.31165,3.84764 -6.9042197,4.79645 -1.75736,0.64314 -2.73428,0.73345 -7.45179,0.68888 -3.86204,-0.0365 -6.03482,-0.2212 -7.52698,-0.63988 -3.02057,-0.84752 -5.96439,-2.88345 -7.82619,-5.41253 -1.53752,-2.08857 -3.03004,-5.37783 -3.03004,-6.67769 0,-0.81629 -0.4577,-1.16282 -2.56365,-1.94096 -0.92493,-0.34176 -2.51243,-1.384 -3.52777,-2.31608 -6.86925,-6.30597 -7.39323,-17.31889 -1.15417,-24.25823 l 1.55917,-1.73417 -3.25141,-0.93913 c -4.85476,-1.40223 -10.02158,-2.10729 -15.58023,-2.12606 -10.81431,-0.0365 -18.46849,2.5568 -24.76953,8.3922 -4.495576,4.16335 -7.154689,8.39041 -11.331628,18.0133 -3.495732,8.05351 -5.718372,12.69934 -7.383912,15.43403 -0.79766,1.30969 -1.38533,2.38125 -1.30596,2.38125 0.77661,0 13.799772,-8.68324 15.771384,-10.51563 1.581406,-1.46973 1.459276,-0.6669 -0.243044,1.59769 -3.191585,4.24575 -7.521424,7.81088 -15.54008,12.79551 -6.44003,4.0033 -10.25952,7.82444 -12.34991,12.35523 -0.96049,2.08179 -1.05565,2.62262 -1.05565,6.00003 0,3.50293 0.067,3.84814 1.19007,6.12896 1.39696,2.83712 4.34193,5.93665 7.00021,7.36757 1.00209,0.53941 2.98235,1.28473 4.40057,1.65627 2.49509,0.65364 4.73017,0.67615 69.01861,0.69494 l 66.44001,0.0194 z m -106.45268,-24.68798 -5.82083,-0.18969 5.11528,-1.14816 c 8.2414,-1.84983 11.1234,-2.25375 17.28611,-2.42269 l 5.82083,-0.15957 -6.47134,2.12979 c -5.01609,1.65086 -6.88037,2.11295 -8.29028,2.0549 -1.00041,-0.0412 -4.43831,-0.16025 -7.63977,-0.26458 z m 109.13835,-1.36853 c 1.65891,-1.74329 5.0266,-4.24396 7.64033,-5.67328 l 1.77486,-0.97059 -4.68441,-3.47608 c -9.30426,-6.90424 -33.74095033,-23.09704 -34.85594033,-23.09704 -0.56692997,0 1.27196,3.71385 2.78946003,5.63363 0.79015,0.99961 2.33795,3.27628 3.43958,5.05928 6.0926903,9.86114 14.3868603,21.55236 17.8648103,25.18175 l 2.09324,2.18438 1.2403,-1.65522 c 0.68217,-0.91037 1.89616,-2.34444 2.69777,-3.18683 z m 48.21914,-4.76918 3.01722,-0.46189 2.44714,-2.41127 c 1.34593,-1.32619 3.59211,-3.258 4.99152,-4.29291 6.79348,-5.02403 17.70422,-9.199 25.74545,-9.85146 l 2.96059,-0.24022 3.28238,-3.4521 c 14.21544,-14.95049 18.22974,-37.52496 11.09637,-62.40065 -3.7103,-12.93866 -10.60174,-24.67841 -20.3797,-34.71733 -4.8532,-4.98273 -8.19929,-7.74693 -14.12958,-11.67245 -10.81237,-7.15716 -23.03551,-11.90827 -36.68889,-14.26088 -9.311,-1.60438 -21.56149,-1.81701 -31.35693,-0.54427 -16.33327,2.12222 -33.3053003,8.89687 -45.81546,18.28796 -17.62702,13.2322 -30.14444,34.5312 -31.0111,52.76688 -0.12603,2.65192 -0.0492,5.46441 0.19284,7.05556 0.52296,3.4385 2.24272,8.79745 3.67187,11.44195 1.12452,2.08081 1.14422,2.09593 3.29173,2.52642 1.18824,0.2382 2.74904,0.73505 3.46844,1.10413 1.19075,0.61089 1.50304,0.63016 3.484,0.21495 2.85821,-0.59907 6.89134,-0.58067 9.84331,0.0449 2.93615,0.62222 7.73759,2.8397 10.62194,4.9056 2.32613,1.66608 6.2392297,5.60183 7.6014497,7.64545 0.51908,0.77874 1.42767,1.49493 2.41415,1.90294 1.73476,0.71751 8.76537,4.92092 19.6729303,11.76193 8.48941,5.3244 10.869,6.90749 17.23361,11.46515 l 4.88638,3.49912 1.90459,-1.31174 c 1.04752,-0.72145 1.90459,-1.46988 1.90459,-1.66318 0,-0.19329 -0.47625,-0.89385 -1.05834,-1.55681 -1.05734,-1.20425 -1.50886,-2.66329 -0.61736,-1.99497 0.24254,0.18182 1.11131,0.84615 1.9306,1.47629 l 1.48963,1.1457 1.29044,-2.01728 c 1.22017,-1.90744 2.60947,-5.22414 2.60947,-6.22964 0,-0.25272 0.25243,-0.81988 0.56095,-1.26036 0.76384,-1.09053 1.55572,-0.4194 1.55572,1.31851 0,2.57771 -1.86635,7.8467 -3.39665,9.58927 -0.43075,0.49051 -0.35787,0.7338 0.56939,1.90059 0.58485,0.73595 1.06337,1.38907 1.06337,1.45139 0,0.0623 -0.77603,-0.3691 -1.72452,-0.95871 l -1.72451,-1.07202 -2.14062,1.57584 -2.14062,1.57583 2.1604,1.6973 2.16039,1.6973 5.67349,0.0183 c 5.56787,0.018 5.72669,0.0398 8.53134,1.17021 1.57182,0.63355 3.71494,1.78445 4.7625,2.55757 l 1.90465,1.40567 4.58611,-0.18536 c 2.52236,-0.10195 5.94386,-0.39321 7.60333,-0.64724 z m -1.95889,-20.73163 c -3.72513,-0.46531 -8.45047,-1.89722 -11.99444,-3.63465 -9.27933,-4.5492 -16.73925,-13.82231 -18.66755,-23.20485 -1.49997,-7.29843 -0.1181,-14.16301 3.67906,-18.27607 1.05821,-1.14625 1.53641,-1.40616 2.58708,-1.40616 1.56689,0 2.59025,0.91444 2.84024,2.53796 0.97071,6.30397 1.29084,7.81141 2.06695,9.73286 1.48,3.66413 3.10548,6.07163 6.2595,9.27096 4.66065,4.72762 9.63996,7.69056 15.39985,9.1637 5.94233,1.51979 11.00197,1.2417 16.17375,-0.88894 3.87859,-1.59788 3.95241,-1.61661 4.92051,-1.24854 1.16215,0.44185 1.69937,1.57136 1.66082,3.49189 -0.0819,4.08235 -4.81078,9.73875 -10.37304,12.40771 -4.55076,2.18361 -8.75982,2.77772 -14.55273,2.05413 z m -51.90102,-18.75299 c -0.41153,-0.23566 -1.57198,-1.33426 -2.57877,-2.44134 -2.3484,-2.58231 -4.83998,-3.83471 -8.04817,-4.04543 -3.3761903,-0.22176 -3.9229903,-0.38031 -4.8826603,-1.41581 -1.16149,-1.25328 -1.20612,-4.15122 -0.0859,-5.57541 3.2459003,-4.1265 12.9656603,-2.24393 18.1972903,3.52452 1.8567,2.04723 2.59327,3.5975 2.6677,5.61482 0.13066,3.54091 -2.65597,5.83527 -5.26954,4.33865 z m 88.57617,-3.79504 c -0.61948,-0.68451 -0.62018,-0.70842 -0.014,-0.4758 0.52945,0.20317 0.59722,0.11552 0.39742,-0.51399 -0.78374,-2.46934 1.96839,-3.41226 3.17111,-1.08646 0.67215,1.29979 0.65568,2.31517 -0.0419,2.58286 -1.17649,0.45146 -2.86616,0.20777 -3.51266,-0.50661 z m 1.77763,-1.39593 c 0.11991,-0.19403 0.0499,-0.35278 -0.15557,-0.35278 -0.20548,0 -0.3736,0.15875 -0.3736,0.35278 0,0.19403 0.07,0.35278 0.15557,0.35278 0.0856,0 0.25368,-0.15875 0.3736,-0.35278 z m -0.52917,-0.88194 c 0,-0.097 -0.0794,-0.17639 -0.17639,-0.17639 -0.097,0 -0.17639,0.0794 -0.17639,0.17639 0,0.097 0.0794,0.17639 0.17639,0.17639 0.097,0 0.17639,-0.0794 0.17639,-0.17639 z m -1.76389,0.70555 c 0,-0.097 0.0794,-0.17639 0.17639,-0.17639 0.097,0 0.17639,0.0794 0.17639,0.17639 0,0.097 -0.0794,0.17639 -0.17639,0.17639 -0.097,0 -0.17639,-0.0794 -0.17639,-0.17639 z m -85.6441,-12.6118 c -0.19705,-0.24254 -0.69974,-1.17275 -1.1171,-2.06713 -0.9461,-2.02752 -1.84734,-2.48266 -4.00485,-2.0225 -2.60691,0.556 -4.0024,-0.72138 -3.00661,-2.75213 0.76768,-1.56555 2.17925,-2.35744 4.50166,-2.52542 1.80983,-0.13091 2.33545,-0.0191 3.71681,0.79039 3.13806,1.83903 4.67473,5.94302 3.01329,8.04762 -0.82513,1.04522 -2.45774,1.32362 -3.1032,0.52917 z m -38.34355,-6.62938 c -14.23257,-2.24163 -24.92811,-13.77564 -24.04086,-25.92552 0.35625,-4.87852 2.26605,-9.68896 4.6924,-11.81933 1.32853,-1.16646 2.07049,-1.29127 3.15604,-0.53092 0.62845,0.44018 0.76188,0.99097 0.9187,3.79236 0.11943,2.13335 0.45273,3.98427 0.95485,5.30248 1.63226,4.28522 5.41796,8.04267 10.77736,10.69694 4.91256,2.43297 7.8241697,3.07631 14.1111097,3.11792 6.41051,0.0424 8.93629,-0.5658 14.5740703,-3.5096 2.026,-1.05788 3.96337,-1.92342 4.30528,-1.92342 0.34191,0 0.99158,0.29954 1.44371,0.66566 0.68923,0.55811 0.8175,0.98004 0.79392,2.61156 -0.0955,6.60567 -8.45718,14.30371 -18.2947503,16.84274 -3.26166,0.84182 -10.14317,1.19079 -13.3918297,0.67913 z m 130.06862,-0.46955 c -0.58347,-0.31227 -0.69149,-0.53069 -0.40442,-0.81776 0.28707,-0.28708 0.19376,-0.45452 -0.34937,-0.6269 -0.7223,-0.22925 -1.06269,-1.24599 -0.41714,-1.24599 0.17815,0 0.57503,-0.0964 0.88194,-0.21414 0.36618,-0.14051 0.55802,-0.0192 0.55802,0.35278 0,0.3118 0.15875,0.56691 0.35278,0.56691 0.19403,0 0.35278,-0.3175 0.35278,-0.70555 0,-0.66108 -0.3331,-0.85435 -1.27885,-0.74201 -0.21829,0.0259 -0.65851,-0.35214 -0.97827,-0.84015 -0.67618,-1.03198 -0.52492,-1.14949 0.35149,-0.27308 0.46301,0.46301 0.65175,0.50157 0.76673,0.15663 0.26364,-0.79092 1.84445,1.74485 1.84445,2.95867 0,1.46224 -0.62563,1.99495 -1.68014,1.43059 z m -2.55319,-1.45593 c 0,-0.097 0.0794,-0.17639 0.17639,-0.17639 0.097,0 0.17639,0.0794 0.17639,0.17639 0,0.097 -0.0794,0.17639 -0.17639,0.17639 -0.097,0 -0.17639,-0.0794 -0.17639,-0.17639 z m -0.35278,-2.46945 c 0,-0.097 0.0794,-0.17639 0.17639,-0.17639 0.097,0 0.17639,0.0794 0.17639,0.17639 0,0.097 -0.0794,0.17639 -0.17639,0.17639 -0.097,0 -0.17639,-0.0794 -0.17639,-0.17639 z m 1.05833,0 c 0,-0.097 0.0794,-0.17639 0.17639,-0.17639 0.097,0 0.17639,0.0794 0.17639,0.17639 0,0.097 -0.0794,0.17639 -0.17639,0.17639 -0.097,0 -0.17639,-0.0794 -0.17639,-0.17639 z m -19.30825,-6.49194 c -5.16623,-2.5527 -6.44452,-3.61749 -6.44452,-5.36812 0,-1.349 1.15625,-2.5542 5.80313,-6.04882 2.12456,-1.59775 3.91251,-3.0698 3.97322,-3.27121 0.0607,-0.20142 -1.33881,-1.07454 -3.11003,-1.94028 -4.48452,-2.19194 -5.46347,-3.66859 -3.8185,-5.75983 0.50215,-0.63837 1.06559,-0.92952 1.79886,-0.92952 1.25789,0 12.16942,5.19722 13.07621,6.22827 0.33724,0.38346 0.7085,1.17382 0.825,1.75636 0.29572,1.47859 -0.73617,2.59609 -5.84486,6.32973 -2.31666,1.69311 -4.12638,3.2171 -4.0216,3.38663 0.10478,0.16954 1.2782,0.856 2.6076,1.52547 2.64898,1.33401 3.52763,2.28016 3.52763,3.79863 0,1.23381 -1.41736,2.72769 -2.58798,2.72769 -0.47088,0 -3.07376,-1.09575 -5.78416,-2.435 z m -0.80008,-31.56887 c -4.13207,-1.60578 -4.46624,-2.29969 -1.86432,-3.87131 l 1.66346,-1.00476 -0.9579,-0.69779 c -0.92507,-0.67386 -1.2705,-1.81521 -0.66301,-2.19066 0.46762,-0.289 4.63281,1.81765 4.88303,2.46972 0.31167,0.81219 -0.2524,1.59705 -1.76353,2.45384 l -1.28046,0.72601 1.22609,0.44335 c 0.93123,0.33674 1.22609,0.64496 1.22609,1.28165 0,1.19239 -0.28766,1.23781 -2.46945,0.38995 z m -107.84619,95.85752 c 0.54215,-0.27752 1.28363,-0.99442 1.64772,-1.59312 0.8294597,-1.36394 1.4774497,-4.97694 1.2598397,-7.02442 -0.4813,-4.52823 -0.50118,-5.2748 -0.13448,-5.04817 0.81041,0.50086 2.11643,4.24581 2.37735,6.81694 l 0.27139,2.67428 0.63056,-1.41111 c 0.91107,-2.03885 0.59891,-7.52247 -0.62703,-11.0147 -4.0686297,-11.59005 -13.4412397,-18.93749 -23.3992997,-18.34336 -4.99576,0.29807 -8.69431,2.64283 -10.74759,6.81364 -0.96039,1.95082 -1.13533,2.70586 -1.16135,5.01228 -0.046,4.07427 0.60316,5.86013 3.0066,8.27172 1.11188,1.11566 2.19305,2.02848 2.4026,2.02848 0.22112,0 0.39198,-0.77723 0.40715,-1.85209 0.0144,-1.01864 0.13345,-2.5344 0.26459,-3.36836 l 0.23843,-1.51627 1.53459,3.45655 c 0.84403,1.90111 1.85718,4.96468 2.25145,6.80794 1.08857,5.08927 2.67241,7.67522 5.63671,9.20314 1.75245,0.90329 4.29253,0.89408 5.20548,-0.0189 1.81544,-1.81544 3.33604,-6.56965 3.13692,-9.8077 -0.0565,-0.91829 0.0111,-1.62993 0.15011,-1.58143 0.13904,0.0485 0.38743,0.0882 0.55199,0.0882 0.16456,0 0.60113,0.66869 0.97014,1.48598 0.73464,1.62708 0.91721,6.06426 0.37941,9.22111 l -0.29153,1.71125 1.52625,-0.25366 c 0.83944,-0.13952 1.96984,-0.48073 2.512,-0.75825 z m -59.01768,-43.9068 c 2.7521,-0.63678 4.39224,-0.7729 9.17222,-0.76119 3.20146,0.008 6.58872,0.17449 7.52726,0.37033 1.51504,0.31613 1.68539,0.29129 1.51886,-0.22149 -0.10316,-0.31766 -0.57009,-1.84756 -1.03761,-3.39978 l -0.85005,-2.82222 -1.93761,-0.10419 c -4.9612,-0.26676 -13.33737,2.96766 -17.77397,6.86334 -0.92565,0.81278 -1.14876,1.15333 -0.67605,1.0319 0.38806,-0.0997 2.21368,-0.5302 4.05695,-0.9567 z"
       id="path294" /></g></svg>
