<?xml version="1.0" encoding="UTF-8" standalone="no"?>
<!-- Created with Inkscape (http://www.inkscape.org/) -->

<svg
   width="200.98016mm"
   height="283.33203mm"
   viewBox="0 0 200.98019 283.33202"
   version="1.1"
   id="svg1"
   xml:space="preserve"
   xmlns="http://www.w3.org/2000/svg"
   xmlns:svg="http://www.w3.org/2000/svg"><defs
     id="defs1"><clipPath
       clipPathUnits="userSpaceOnUse"
       id="clipPath6"><path
         id="path7"
         style="fill:#ff0000;fill-opacity:1;fill-rule:nonzero;stroke:none;stroke-width:0.264583"
         d="M -175.07778,-16.057127 V 287.55793 H 124.54631 V -16.057127 Z m 132.7459,202.572647 c 0.210643,0.005 0.427212,0.0169 0.650089,0.0367 2.23823,0.19855 4.475655,0.4031 6.717938,0.55346 1.973313,0.11308 0.986628,0.0436 2.958475,0.20825 3.181295,0.26563 4.740125,1.85116 4.950601,3.46956 4.949923,1.63749 3.796379,7.35609 -2.592089,6.81354 -3.228716,-0.27422 -1.569593,-0.1301 -4.979024,-0.43357 -4.228209,-0.39317 -8.460616,-0.76265 -12.666927,-1.35341 -6.647387,-0.93358 -5.930551,-7.21034 0.03204,-7.20421 0.04685,5e-5 0.0972,0.004 0.144695,0.005 0.687229,-1.21692 2.304132,-2.15435 4.784204,-2.09548 z" /></clipPath><clipPath
       clipPathUnits="userSpaceOnUse"
       id="clipPath76"><path
         id="path77"
         style="fill:#ff0000;fill-opacity:1;fill-rule:nonzero;stroke:none;stroke-width:0.264583"
         d="M -133.83107,-122.52355 V 173.82063 H 122.97289 V -122.52355 Z M 13.574404,98.948202 c 2.788179,0.0507 4.135003,2.063798 3.398242,4.077268 0.199805,0.45372 0.374906,0.96736 0.517797,1.54461 1.07913,4.35948 0.671079,8.891 0.311608,13.31495 -0.351859,3.06036 -0.147137,1.57974 -0.604097,4.44366 -0.359666,2.25418 -1.333846,3.66838 -2.455664,4.32532 0.105138,0.36595 0.224724,0.72888 0.324528,1.09554 0.6273,2.23652 0.575201,4.47401 0.39429,6.75514 -0.137303,1.73129 -0.688065,2.99533 -1.427303,3.82199 -0.112477,0.41601 -0.170275,0.80219 -0.311092,1.25212 -0.184975,0.59102 -0.413327,1.1061 -0.670242,1.55856 0.741137,-0.23134 1.446982,-0.38145 2.064991,-0.37517 4.085002,0.0415 5.222724,4.75435 -0.02223,7.27138 -4.46677,2.14368 -9.303523,3.34693 -14.11903492,4.40955 -4.40876268,0.85156 -8.89238128,1.33053 -13.38264308,1.19269 -5.804014,-0.17807 -6.736297,-5.00293 -3.065447,-6.67298 -2.072987,-0.65744 -4.042852,-1.62261 -4.128947,-3.14709 -0.02802,-0.49633 0.0026,-0.90355 0.0341,-1.30897 -1.976731,-0.003 -3.95339,2.4e-4 -5.930386,0.003 -0.814031,0 -1.53062,-0.0962 -2.159559,-0.26149 -0.376306,0.19492 -0.742394,0.40783 -1.120862,0.59893 -6.391272,3.22657 -9.625245,-3.24074 -3.234428,-6.46886 1.833438,-0.92611 3.62694,-1.92211 5.414142,-2.92954 -0.877003,-3.87058 -1.368747,-7.83436 -1.323951,-11.80858 0.01651,-1.46304 0.376836,-2.54918 0.864547,-3.41426 -1.247357,-1.79999 -0.223805,-4.63069 3.842661,-5.68855 3.11826,-0.81116 6.282901,-1.39515 9.473837,-1.82211 -1.259816,-0.12657 -2.516182,-0.30233 -3.764627,-0.50177 -1.477002,-0.21985 -2.935575,-0.54305 -4.407482,-0.7891 -1.14214,-0.22954 -0.588502,-0.12004 -1.660882,-0.3297 -3.350244,-0.65501 -4.783278,-2.61088 -4.608504,-4.32997 -0.200179,-1.7721 1.333365,-3.52972 4.663799,-3.59461 v -5.3e-4 c 0.20954,-0.004 0.426035,-0.002 0.649571,0.008 1.77111,0.0772 3.528708,0.28204 5.26428,0.64027 1.655035,0.33225 3.314115,0.6481 4.955251,1.04439 1.244759,0.34858 2.51628,0.54538 3.7997689,0.6723 0.025956,0.002 0.052073,0.002 0.078034,0.004 0.4990888,-0.0371 0.9984105,-0.0743 1.4965495,-0.11317 1.346872,-0.12588 2.6913231,-0.25136 4.0457464,-0.24236 1.1278499,-0.0444 2.2567291,-0.10772 3.37498791,-0.26872 0.75719517,-0.11591 1.51142439,-0.25483 2.25722659,-0.4284 0.3616431,-0.12394 0.7240561,-0.24538 1.083138,-0.37775 0.3360393,-0.12388 0.6107589,-0.12825 0.9250071,-0.20723 0.1281086,-0.045 0.2583895,-0.0825 0.3855085,-0.13074 1.9825018,-0.7681 3.9540551,-1.56464 5.9510551,-2.29443 1.050809,-0.383992 1.999634,-0.542639 2.826703,-0.527616 z M 0.70283723,110.39557 c -0.45566013,0.0949 -0.90775367,0.208 -1.36890919,0.2744 -1.16638124,0.15534 -2.34111274,0.24237 -3.51761424,0.26251 0.4031694,0.0896 0.8047355,0.18876 1.2025101,0.308 0.1014836,0.0304 0.1982549,0.075 0.2986907,0.10852 0.4205235,-0.21824 0.9206601,-0.35072 1.4898318,-0.37156 0.39885139,-0.0146 0.83259872,0.0278 1.29449508,0.13023 0.22468681,-0.12213 0.44967525,-0.24374 0.67437529,-0.36587 -0.0326284,-0.11319 -0.058211,-0.22834 -0.0733795,-0.34623 z m 10.24433577,1.02474 c -0.76023,0.21437 -1.5189569,0.4343 -2.2696301,0.68006 -0.031261,0.62207 -0.2256075,1.28373 -0.6464723,1.94355 0.6236891,0.43248 1.2549743,1.04482 1.8634525,1.86862 0.2674939,0.36214 0.4748849,0.75712 0.7188199,1.13223 0.154519,-1.86707 0.314174,-3.74736 0.33383,-5.62446 z m 64.566086,3.39773 c 1.50346,0.0187 3.129182,1.24994 3.928441,4.04678 0.257931,0.90255 0.823497,1.65871 1.488797,2.30735 0.856321,0.95375 1.845738,1.76777 2.801898,2.61638 1.458581,1.46408 2.789203,3.04608 4.169772,4.58215 1.315059,1.44746 2.571226,2.91698 3.543967,4.61884 0.0053,0.01 0.0082,0.0206 0.01344,0.0305 0.734605,-0.43313 1.446276,-0.65634 2.094962,-0.69195 3.016182,-0.16561 4.69137,3.55377 1.187525,7.32306 -1.69471,1.82311 -3.657862,3.33908 -5.68751,4.7651 -0.777873,0.49914 -1.607691,0.90075 -2.418456,1.33842 0.165478,1.44344 -0.672182,3.24303 -2.956409,4.73096 -1.354556,0.88234 -2.690448,1.79306 -4.075203,2.6288 -2.075008,1.20078 -4.233777,2.27962 -6.540687,2.96259 -2.077586,0.62971 -4.169056,1.29987 -6.359301,1.36374 -1.872114,0.0897 -3.746989,0.0368 -5.620845,0.0501 h -5.1108 -5.524728 c -7.160125,0 -7.160125,-7.23315 0,-7.23315 h 1.347722 c 0.29438,-0.0541 0.5212,-0.1588 0.84801,-0.18656 1.106628,-0.094 2.200932,-0.28334 3.292822,-0.48421 0.456121,-0.98163 1.356053,-1.98213 2.807581,-2.83962 1.078018,-0.63685 2.158119,-1.26923 3.212209,-1.94561 1.962647,-1.29302 3.840588,-2.72135 5.893696,-3.86902 1.367169,-0.76424 2.559646,-1.07097 3.526915,-1.04128 2.216811,0.068 3.246223,1.90266 2.479953,4.04059 1.105688,-0.48686 2.206929,-0.98346 3.283003,-1.53739 2.619811,-1.23728 5.288743,-2.38548 7.764385,-3.9026 0.246153,-0.17184 0.487463,-0.34958 0.730705,-0.52503 -0.126915,-0.50614 -0.277693,-0.9939 -0.512114,-1.46554 -0.647621,-1.25778 -1.721077,-2.20654 -2.600875,-3.29644 -1.199229,-1.33472 -2.369312,-2.69496 -3.592029,-4.00803 -1.098706,-0.97599 -2.227236,-1.92181 -3.215306,-3.01428 -1.300821,-1.39063 -2.459913,-2.93896 -3.045293,-4.77801 -1.289469,-4.05101 0.646382,-6.61405 2.843754,-6.58667 z m -95.086705,4.28035 c -0.465643,0.10748 -0.930899,0.21773 -1.394745,0.33435 0.171958,0.64334 0.283575,1.36624 0.279569,2.2071 -0.01267,2.6582 0.205063,5.32647 0.670242,7.94732 0.280107,-0.17087 0.565767,-0.33222 0.845429,-0.50385 -0.01897,-0.36223 -0.02445,-0.73164 -0.05529,-1.08985 -0.118034,-2.96491 -0.160888,-5.93314 -0.3452,-8.89507 z m 18.5141159,1.1958 c 0.00497,0.0773 0.00619,0.15612 0.014975,0.23202 -0.1238779,0.22787 -0.2588048,0.44752 -0.3937741,0.66715 0.58900751,0.0447 1.13203305,0.21413 1.64331124,0.45888 -0.37615284,-0.49255 -0.78353709,-0.94642 -1.26452314,-1.35805 z m -6.5422357,14.57068 c -0.046649,0.0755 -0.09888,0.14702 -0.1436608,0.22376 -0.03147,0.054 0.1963367,0.0838 0.1860365,0.0222 -0.017595,-0.10481 -0.026035,-0.14905 -0.042376,-0.24597 z m 13.9236979,6.08439 c -0.2236258,0.5643 -0.5677508,1.09664 -1.1782213,1.50533 0.9079653,0.17659 1.7077452,0.44257 2.2830631,0.84852 0.1405493,-0.0459 0.272804,-0.11448 0.4128956,-0.16174 -0.7336976,-0.43656 -1.2984269,-1.18703 -1.5177374,-2.19211 z" /></clipPath><clipPath
       clipPathUnits="userSpaceOnUse"
       id="clipPath127"><path
         id="path128"
         style="fill:#ff0000;fill-opacity:1;fill-rule:nonzero;stroke:none;stroke-width:0.264583"
         d="M -112.24796,-126.55676 V 185.58027 H 148.5754 V -126.55676 Z M 46.874626,83.305366 c 1.808208,0 3.616317,1.790192 3.616317,5.370214 v 5.232238 c 0.0627,2.146078 -0.111291,4.285324 -0.245462,6.424932 -0.136289,2.02485 -0.190703,4.04985 -0.104904,6.07715 0.192061,1.91863 0.527714,3.82569 0.876432,5.72213 0.304242,2.00862 0.765826,3.9858 1.180806,5.97276 0.41642,1.86142 0.967934,3.68703 1.421104,5.53972 0.25287,0.86996 0.117097,0.46495 0.396356,1.22008 0.186108,0.50319 0.223428,0.93098 0.309544,1.38441 4.425355,2.23251 2.751262,7.58433 -3.415813,6.40477 -3.104732,-0.59371 -6.256094,-0.76586 -9.40821,-0.85576 -3.81635,0.009 -7.630525,0.17062 -11.44478,0.28216 -1.12776,0.0333 -2.255837,0.0512 -3.383772,0.0754 -0.908129,0.5548 -1.966518,0.57724 -2.88613,0.0641 -0.03584,5.3e-4 -0.07165,0.002 -0.107487,0.003 -0.03142,5.3e-4 -0.0525,-0.009 -0.08268,-0.009 -0.32049,0.14732 -0.641715,0.29301 -0.962215,0.44028 -0.262501,0.12062 -0.518089,0.22111 -0.770496,0.31265 -0.876996,0.71434 -1.945576,0.85817 -2.911967,0.46405 -2.943479,-0.21613 -4.295167,-2.77187 -2.550232,-5.0524 -2.22e-4,-0.028 -0.0078,-0.0483 -0.0078,-0.0765 v -6.3469 c -0.014,-2.72977 -0.02254,-5.45666 0.112657,-8.18348 0.135676,-2.32533 0.233519,-4.6523 0.299723,-6.98046 0.046,-1.80459 0.06926,-3.60958 0.08527,-5.41465 -0.0258,-1.02998 0.04009,-2.054459 0.138491,-3.078883 0.0044,-0.04602 0.02191,-0.07504 0.02687,-0.120406 C 15.992671,97.193438 15.83363,95.70984 16.656834,94.418959 10.68718,93.678613 10.992573,87.32947 17.739972,87.32947 h 3.885033 5.177462 5.913334 c 1.498505,0.05847 2.984222,-0.03228 4.475178,-0.161748 1.252041,-0.18606 2.49041,-0.398671 3.697968,-0.782897 1.001961,-0.32245 0.492366,-0.161472 1.527553,-0.482142 0.510384,-0.158096 0.938446,-0.174371 1.394749,-0.23771 0.672338,-1.56932 1.86623,-2.35903 3.063377,-2.35903 z" /></clipPath><clipPath
       clipPathUnits="userSpaceOnUse"
       id="clipPath139"><path
         id="path140"
         style="fill:#ff0000;fill-opacity:1;fill-rule:nonzero;stroke:none;stroke-width:0.264583"
         d="M 97.168006,-339.91235 V -44.578961 H 346.46958 V -339.91235 Z m 14.326254,94.53944 c 1.76488,0.006 3.77708,1.78446 4.35839,5.31699 0.32911,1.99994 0.60308,4.00817 0.88884,6.01462 1.02527,-1.2445 2.22305,-1.83589 3.28403,-1.8402 2.05627,-0.008 3.59454,2.17302 2.34611,6.00222 -0.0197,0.0606 -0.0413,0.12046 -0.0615,0.18087 0.31698,0.91799 0.41757,2.09982 0.17777,3.54139 -0.2164,1.30085 -0.62011,2.56457 -1.0263,3.8163 -1.34183,4.13496 -4.42238,4.92072 -6.12882,3.38016 -1.93867,0.62007 -4.30523,-0.86149 -4.65605,-4.82762 -0.16862,-1.90632 -0.33891,-3.81275 -0.57464,-5.71231 -0.45291,-3.52522 -1.07719,-7.02592 -1.48208,-10.55543 -0.40801,-3.55672 1.10935,-5.32303 2.87424,-5.31699 z" /></clipPath><clipPath
       clipPathUnits="userSpaceOnUse"
       id="clipPath170"><path
         id="path171"
         style="fill:#ff0000;fill-opacity:1;fill-rule:nonzero;stroke:none;stroke-width:0.264583"
         d="M 88.756261,-299.52331 V 17.880567 H 410.91541 V -299.52331 Z M 363.24287,-220.863 c 0.90345,-0.008 1.97628,0.23856 3.18532,0.82218 3.39402,1.63831 6.49674,3.81197 9.57823,5.96449 3.22509,2.31448 6.37511,4.73585 9.43663,7.26261 1.87296,1.50796 3.75989,2.99047 5.54284,4.6054 1.76167,1.54167 3.42262,3.17283 4.95419,4.94388 1.19316,1.48882 2.47049,2.9032 3.73311,4.33204 1.08043,1.20022 2.09423,2.45631 2.94299,3.83026 0.82616,1.73429 1.48968,3.55524 1.93786,5.42344 1.67031,6.96258 -5.76469,8.62686 -7.05745,1.5844 -0.21127,-1.15093 -0.75649,-2.20765 -1.10278,-3.32021 -0.52141,-1.02678 -1.43909,-1.82952 -2.14042,-2.72904 -1.28368,-1.45272 -2.58234,-2.89095 -3.79617,-4.40386 -1.32794,-1.55409 -2.79577,-2.95456 -4.33049,-4.3031 -1.69875,-1.54267 -3.51006,-2.94207 -5.29113,-4.38733 -2.90883,-2.40671 -5.90918,-4.70386 -8.97258,-6.91017 -2.63017,-1.83963 -5.2759,-3.68008 -8.12096,-5.17746 -5.14813,-2.7095 -4.41412,-7.50431 -0.49919,-7.53753 z m -17.79788,14.64304 c 0.81097,-0.004 1.74701,0.16947 2.79104,0.57154 4.59168,1.76834 8.99191,4.00303 13.38523,6.20892 0.37082,0.1876 0.72266,0.4088 1.09088,0.601 0.4155,-0.11565 0.91038,-0.17484 1.48572,-0.16691 0.65984,0.009 1.42523,0.10601 2.29753,0.30644 2.35556,0.54125 4.30075,1.95473 6.16344,3.42614 -1.07651,-2.72314 0.34142,-4.84679 2.57866,-4.84311 1.28683,0.002 2.83083,0.70484 4.29689,2.3952 2.44776,2.82227 4.79147,5.70892 6.96391,8.74934 1.67944,2.35043 1.72027,4.43615 0.89969,5.70663 1.5344,1.02281 3.07247,2.04019 4.58422,3.09645 1.80695,1.14136 3.31928,2.58833 4.72631,4.18269 0.96689,1.16625 2.0869,2.25988 2.79262,3.61942 0.19542,0.37651 0.34592,0.77482 0.51882,1.1622 0.40259,1.55462 0.27207,0.76263 0.38706,2.3766 0.0637,0.89436 -0.044,1.45412 -0.26977,1.7756 0.11753,0.20753 0.23421,0.41574 0.35608,0.62063 3.66003,6.15399 -2.6856,9.845 -6.25234,3.63648 -0.83209,-1.44832 -1.62388,-2.92102 -2.35437,-4.42351 -0.84839,-1.84687 -1.70402,-3.69055 -2.54093,-5.54229 -0.078,-0.17246 -0.14713,-0.34128 -0.2119,-0.5085 -0.415,-0.33988 -0.82071,-0.68775 -1.29707,-0.97255 -2.35545,-1.64933 -4.79565,-3.17384 -7.14841,-4.82761 -3.27895,-2.27743 -6.61384,-4.47194 -9.95804,-6.65231 -4.00886,-2.60003 -8.08797,-5.09434 -12.3548,-7.25434 -4.08429,-2.05175 -8.1752,-4.1242 -12.42663,-5.81101 -5.61546,-2.22804 -4.88331,-7.4129 -0.50384,-7.43314 z m -225.34594,21.50101 c 3.05551,-0.16929 4.03285,3.80875 0.35915,7.72563 -1.17612,1.25397 -2.32696,2.59265 -3.45922,3.90674 -1.44062,1.57315 -2.77631,3.23874 -4.13618,4.88135 -1.14319,1.4697 -2.29319,2.93265 -3.46335,4.38113 -0.8717,1.2084 -1.86054,2.32105 -2.81017,3.46594 -0.80685,0.95022 -1.53489,1.96075 -2.32234,2.92695 -0.80594,1.00684 -1.52017,2.08004 -2.22519,3.15847 -0.20511,0.28103 -0.29499,0.51935 -0.30179,0.78909 -0.18033,7.15787 -8.659963,5.5717 -7.093102,-1.4149 0.267098,-1.19094 0.644303,-2.32859 1.347721,-3.34243 0.846108,-1.28566 1.701136,-2.56663 2.670121,-3.76463 0.806525,-0.98525 1.5446,-2.0236 2.37453,-2.98999 0.93132,-1.109 1.88214,-2.2008 2.7342,-3.37448 1.18855,-1.47082 2.35327,-2.95822 3.51813,-4.44779 1.39067,-1.67946 2.758,-3.38112 4.2292,-4.99142 1.55862,-1.80675 3.07205,-3.68494 4.92528,-5.20227 1.38505,-1.13397 2.63451,-1.65096 3.65301,-1.70739 z m 30.4953,3.26389 c 4.11093,0.0973 5.25218,4.81763 -0.0434,7.22591 -1.93926,0.8819 -3.80509,1.88928 -5.66115,2.92437 0.381,1.39299 -0.23993,3.26566 -2.43035,4.98678 -2.3369,1.83618 -4.71607,3.61825 -7.08845,5.40845 -2.84267,2.19936 -5.66068,4.43162 -8.41086,6.74584 -2.22216,1.84972 -4.46469,3.67225 -6.66213,5.55109 -1.67979,1.46598 -3.37138,2.91821 -5.06067,4.37337 -1.40892,1.30469 -2.82191,2.592 -4.12274,4.00648 -1.07181,1.16531 -2.16701,1.83049 -3.17087,2.10529 -0.88357,6.53411 -7.65001,5.87099 -7.10344,-1.07177 0.0596,-0.75732 0.12015,-1.51435 0.21239,-2.26859 0.18237,-1.4495 0.31176,-2.90657 0.57051,-4.34444 0.56059,-2.2771 1.55106,-4.35314 3.32124,-5.95312 1.46716,-1.38711 2.94871,-2.75912 4.4943,-4.05919 1.45063,-1.21601 2.91967,-2.40825 4.4111,-3.57394 2.2284,-1.75259 4.48249,-3.46927 6.81044,-5.08961 3.1083,-2.16601 6.29001,-4.21936 9.5343,-6.17689 3.28252,-2.04598 6.49796,-4.19789 9.78648,-6.23476 2.38673,-1.38679 4.82146,-2.65715 7.33495,-3.79873 1.22236,-0.55516 2.32966,-0.77899 3.27836,-0.75654 z" /></clipPath><clipPath
       clipPathUnits="userSpaceOnUse"
       id="clipPath233"><path
         id="path234"
         style="fill:#ff0000;fill-opacity:1;fill-rule:nonzero;stroke:none;stroke-width:0.264583"
         d="M 185.24069,-319.24193 V -24.289387 H 425.09684 V -319.24193 Z m 138.35487,149.6534 c 1.78419,7.9e-4 3.63037,1.79012 3.80182,5.36608 0.0643,1.33996 -0.0719,2.65433 -0.29041,3.95842 0.27255,-0.0735 0.56767,-0.11689 0.88522,-0.12351 0.37047,-0.008 0.77026,0.0328 1.19579,0.12867 0.38629,-0.24279 0.8215,-0.42195 1.34254,-0.44493 1.13073,-0.0499 2.53823,0.47335 4.04474,1.80971 0.4186,0.37135 0.80759,0.77178 1.2056,1.16323 0.49581,-0.30652 1.09744,-0.47283 1.77559,-0.44028 1.18851,0.0571 2.59295,0.69888 3.98788,2.15129 2.63375,2.74227 4.82211,5.85047 6.92256,9.00669 2.43144,3.88376 4.79634,7.81591 6.98098,11.84475 1.13959,2.01485 2.36363,3.97199 3.24527,6.11746 0.86638,2.54168 0.71525,4.37292 -0.15348,6.88278 -0.88855,2.03627 -2.18951,3.83746 -3.64937,5.49682 -1.22616,1.21887 -2.44396,2.51198 -3.976,3.35587 -0.38219,0.21053 -0.79187,0.3659 -1.18803,0.54881 -6.50071,3.00135 -9.83602,-5.23462 -2.81948,-6.6611 1.07346,-0.21823 1.75532,-1.41088 2.56987,-2.0407 0.86323,-0.96375 1.62015,-2.00233 2.25208,-3.13417 0.24334,-0.63932 0.47847,-1.05078 0.24958,-1.76114 -0.42873,-1.13152 -1.03555,-2.17502 -1.65674,-3.21169 -0.64492,3.08426 -3.96214,3.78517 -6.03631,0.97152 -0.80928,1.85722 -3.53859,2.62684 -6.75775,0.30902 -0.53872,-0.38787 -1.07831,-0.77486 -1.61745,-1.1622 -3.08248,4.62545 -3.94671,5.04673 -6.74584,2.87063 -2.73204,-2.16473 -5.33615,-4.48821 -8.05999,-6.6642 -2.7461,-2.45053 -5.40757,-5.07957 -7.04763,-8.42635 -1.62115,-0.12575 -3.24178,-0.2569 -4.86637,-0.34314 -7.58719,-0.44787 -15.17743,-0.9445 -22.76553,-1.33377 -1.07801,-0.0553 -1.93227,-0.3045 -2.68459,-0.62166 -0.57677,0.62929 -1.1192,1.29485 -1.64021,1.97352 -1.38696,2.1585 -2.2854,4.54313 -3.09181,6.96185 -0.53658,1.90527 -0.93866,3.84574 -1.3658,5.77949 0.3976,-0.38181 0.79402,-0.76498 1.19114,-1.14825 1.44902,-1.39846 2.84121,-1.97983 3.98373,-1.97766 2.91995,0.006 4.20899,3.82009 0.64648,7.53391 -0.92629,0.96557 -1.9114,1.86859 -2.9099,2.75797 -1.78302,1.58814 -3.50499,2.03887 -4.81263,1.76372 -0.007,0.0412 -0.0189,0.0812 -0.0253,0.12247 -0.31138,2.1774 -0.34632,4.38158 -0.39739,6.57686 0.006,3.5147 -0.15426,7.02208 -0.44287,10.52391 -0.15049,2.45352 -0.52882,4.882887 -0.77928,7.326166 -0.25682,2.270699 -0.2357,4.548968 -0.1633,6.828007 0.0525,1.43787 0.0261,0.723201 0.0775,2.145088 7.9e-4,0.02175 -0.006,0.03573 -0.006,0.05736 0.13966,0.0486 0.27673,0.09115 0.42013,0.148309 3.73047,1.486969 7.59999,2.598727 11.41894,3.833876 4.85884,1.705695 9.66861,3.546912 14.50144,5.32474 1.9552,0.651698 3.84707,1.443672 5.71489,2.292366 2.6308,-0.638411 5.26049,-1.281708 7.89771,-1.893425 4.5737,-1.075436 2.35597,-0.547624 6.65438,-1.580782 0.65268,-0.156879 1.2592,-0.237268 1.81642,-0.252698 3.40876,-0.09437 4.96226,2.238663 4.05712,4.350639 3.89832,1.612736 3.00805,6.568553 -2.90269,6.729304 l -2.19726,0.05943 c 0.0932,0.05532 0.18872,0.106439 0.28112,0.163298 6.09814,3.752323 2.1299,10.065517 -3.84782,6.124173 -1.04591,-0.689594 -2.23735,-1.127543 -3.31556,-1.763197 -2.61015,-1.251701 -5.22853,-2.484003 -7.87136,-3.665926 -0.34703,-0.170111 -0.69536,-0.335955 -1.04283,-0.504362 -1.04394,0.228952 -2.09238,0.441277 -3.15071,0.537951 -0.41145,0.100483 -0.82417,0.195434 -1.23558,0.296105 -3.95687,0.968251 -6.08679,-0.907356 -5.97897,-3.010669 -0.31188,-0.687727 -0.239,-1.395294 0.0263,-2.059305 -3.87146,-1.438614 -7.73769,-2.891312 -11.63237,-4.265891 -3.97417,-1.285444 -7.99945,-2.446282 -11.87938,-4.000272 -1.44639,-0.579335 -2.44377,-1.350957 -3.06182,-2.17506 -1.01218,-0.798706 -1.81304,-2.231819 -1.89446,-4.484998 -0.0517,-1.431189 -0.0254,-0.705106 -0.0791,-2.177645 -0.0816,-2.602558 -0.0903,-5.205841 0.19844,-7.79849 0.24823,-2.394268 0.6146,-4.775082 0.76533,-7.179412 0.27808,-3.36008 0.42763,-6.72542 0.42064,-10.09809 0.0594,-2.5132 0.11189,-5.03614 0.48266,-7.52719 0.38072,-2.41928 0.90466,-4.80615 1.46451,-7.18974 0.6701,-2.94551 1.25825,-5.91529 2.11305,-8.81393 1.0668,-3.18776 2.31041,-6.31647 4.23489,-9.10074 0.42128,-0.53977 0.8547,-1.07136 1.29914,-1.59215 -1.52816,-0.60355 -3.06641,-1.18197 -4.57646,-1.83141 -1.09038,3.76762 -2.19021,7.53001 -3.40755,11.25926 -1.05961,2.97655 -0.54118,1.54568 -1.55081,4.2938 -1.83358,4.9908 -6.03644,4.88509 -7.07398,1.75544 -2.82634,3.52841 -7.50378,1.0111 -5.57744,-4.75268 1.05408,-3.1537 2.2385,-6.34595 4.49688,-8.85837 1.49582,-1.66408 2.97572,-2.34765 4.17287,-2.32647 0.33252,0.006 0.64298,0.0664 0.92604,0.17518 0.46945,-1.58214 0.96416,-3.15651 1.43919,-4.7377 0.70062,-2.33196 1.93737,-3.52641 3.18689,-3.8871 0.54142,-0.34307 1.25019,-0.55529 2.11615,-0.57361 h 5.3e-4 c 0.8057,-0.017 1.74503,0.13149 2.80396,0.49248 0.31645,0.10788 0.63769,0.20324 0.94929,0.32401 1.83624,0.71133 3.60046,1.59642 5.43016,2.32544 1.18096,0.47048 2.26953,0.84228 3.35329,1.23145 0.62902,-0.20883 1.22424,-0.32846 1.76785,-0.35037 2.28614,-0.0921 3.73455,1.32842 3.67523,3.07682 1.73917,0.0925 3.47854,0.18832 5.21777,0.2899 -0.1345,-1.7899 1.43141,-3.54652 4.54959,-3.56619 0.39587,-0.002 0.816,0.0231 1.25987,0.0801 3.99155,0.51285 7.97638,1.04608 11.94346,1.72703 0.35092,0.0747 0.7018,0.14913 1.05265,0.22376 0.92028,-2.09088 2.0607,-3.80586 3.79408,-5.38675 0.9172,-0.8245 1.6747,-1.80494 2.07378,-2.98587 0.46483,-1.35061 0.4893,-2.77914 0.4594,-4.19561 h 5.3e-4 c -0.0754,-3.57927 1.64663,-5.36691 3.4308,-5.36608 z m 1.97559,14.00741 c -0.78838,1.39934 -1.79816,2.66075 -2.96984,3.79512 -1.06213,0.94584 -1.80404,2.02586 -2.28153,3.3538 -0.003,0.012 -0.005,0.0237 -0.009,0.0357 1.15411,0.11311 2.30814,0.22665 3.4613,0.3514 3.99042,0.43171 5.40747,2.84663 4.69323,4.76353 0.67585,0.41545 1.35041,0.83313 2.01954,1.25626 3.82278,2.5036 7.53266,5.1715 11.24013,7.84086 -1.81731,-3.68096 -3.93583,-7.19476 -6.36087,-10.5146 -1.10355,-1.48555 -2.20805,-3.00054 -3.36206,-4.44883 -0.35653,-0.44747 -1.7607,-2.16704 -2.34455,-2.70784 -0.36042,-0.33384 -0.93237,-0.68033 -1.36375,-0.9555 -1.33122,-0.84918 -2.21667,-1.81673 -2.72282,-2.76986 z" /></clipPath><clipPath
       clipPathUnits="userSpaceOnUse"
       id="clipPath240"><path
         id="path241"
         style="fill:#ff0000;fill-opacity:1;fill-rule:nonzero;stroke:none;stroke-width:0.264583"
         d="M 92.804184,-309.23338 V -41.629034 H 294.29938 V -309.23338 Z m 130.496946,63.74443 c 0.93337,0.009 2.02072,0.27397 3.21944,0.8785 1.75312,0.88412 3.43212,1.89553 5.06326,2.98586 5.9527,3.97906 1.8926,10.01797 -4.03542,6.00222 -1.36849,-0.92705 -2.78857,-1.76849 -4.26227,-2.51871 -5.18448,-2.63926 -4.02961,-7.38891 0.015,-7.34787 z m -85.24544,1.99626 c 3.36772,-0.0906 4.87054,3.93317 0.67437,7.28431 -0.81214,0.6486 -0.42273,0.34746 -1.1653,0.9064 -1.7275,1.42217 -3.47209,2.82263 -5.29477,4.12275 -2.09112,1.47372 -4.25636,2.82668 -6.45645,4.13153 -6.15846,3.65253 -10.39165,-1.95967 -4.33979,-5.78621 2.21999,-1.40367 4.47897,-2.73503 6.6244,-4.25349 1.67688,-1.19734 3.27994,-2.48915 4.86947,-3.79821 0.91499,-0.69918 0.50268,-0.37435 1.24076,-0.9679 1.39493,-1.12177 2.72473,-1.60899 3.84731,-1.63918 z" /></clipPath><clipPath
       clipPathUnits="userSpaceOnUse"
       id="clipPath251"><path
         id="path252"
         style="fill:#ff0000;fill-opacity:1;fill-rule:nonzero;stroke:none;stroke-width:0.264583"
         d="m 50.06164,-325.07443 v 245.270816 h 202.0347 V -325.07443 Z m 191.06172,72.239 c 1.42195,-0.0396 3.11835,0.92332 4.44418,3.2582 0.80855,1.42391 1.33311,2.97097 1.71979,4.55476 0.38267,1.85761 0.50306,3.75527 0.49506,5.64772 0.007,1.66837 -0.28067,3.30966 -0.52503,4.95318 -0.26767,2.07853 -1.32063,3.82386 -2.54249,5.47306 -0.98598,1.19805 -2.03839,2.33999 -3.16208,3.40961 -0.37488,0.32054 -0.76867,0.61405 -1.09502,0.98443 -4.73356,5.37222 -10.25077,0.0313 -5.19193,-5.03587 0.41783,-0.41852 0.82603,-0.84961 1.30896,-1.19579 0.83199,-0.78568 1.60086,-1.63171 2.34973,-2.49649 0.52191,-0.686 1.06794,-1.32103 1.17874,-2.204 0.19629,-1.31742 0.44949,-2.62948 0.44648,-3.9672 0.0288,-1.3072 -0.0809,-2.61845 -0.30179,-3.90725 -0.20137,-0.91522 -0.51051,-1.80281 -0.96014,-2.62775 -2.14172,-3.92928 -0.53435,-6.78057 1.83554,-6.84661 z m -24.00732,134.01508 c 1.58088,-0.0452 3.27238,1.29937 3.90106,4.36821 0.19779,0.96552 0.49313,1.88927 0.87385,2.79466 0.57738,1.31117 0.86222,2.69631 0.9741,4.11603 0.0779,1.63421 -0.38657,3.16522 -1.00976,4.65191 -0.60784,1.37091 -1.55916,2.5173 -2.50579,3.660755 -0.2566,0.333243 -0.50348,0.67224 -0.76223,1.002525 -0.0721,0.651052 -0.19323,1.300012 -0.35502,1.949752 l -0.4842,1.22783 c -0.70346,1.782932 -1.87803,2.754204 -3.12126,3.127457 -0.38818,0.593834 -0.73665,1.213207 -1.1529,1.788007 -0.78123,1.206815 -1.75001,2.262322 -2.80138,3.23546 -1.04259,0.90742 -2.26203,1.551003 -3.47214,2.198833 -0.81145,0.41652 -1.66264,0.737227 -2.52439,1.030428 -6.77856,2.306214 -9.10653,-4.670343 -2.28979,-6.86108 0.48258,-0.155091 0.95367,-0.335381 1.41232,-0.552421 0.68902,-0.364839 1.38726,-0.713642 2.01745,-1.175639 0.71797,-0.616461 1.30017,-1.358352 1.82004,-2.146123 0.66383,-0.892056 1.26802,-1.828112 1.8216,-2.792076 0.59882,-1.12436 1.07283,-2.316203 1.82056,-3.358968 0.0117,-0.0166 0.0249,-0.032 0.0367,-0.0486 -0.84786,-3.67928 0.87949,-5.67892 2.87217,-5.69422 0.38363,-0.003 0.77643,0.0723 1.16324,0.21859 0.15519,-0.3579 0.298,-0.71847 0.29042,-1.1188 -0.0398,-0.54898 -0.18359,-1.13581 -0.4191,-1.66191 -0.48947,-1.16893 -0.89792,-2.36312 -1.1591,-3.60547 -0.82863,-3.94139 1.021,-6.29698 3.05356,-6.35516 z" /></clipPath><clipPath
       clipPathUnits="userSpaceOnUse"
       id="clipPath278"><path
         id="path279"
         style="fill:#ff0000;fill-opacity:1;fill-rule:nonzero;stroke:none;stroke-width:0.264583"
         d="m -43.212488,-382.05292 v 250.81001 H 185.4025 v -250.81001 z m 181.494868,132.88233 c 1.13528,0.005 2.03811,0.42617 2.60707,1.09037 0.91934,-0.34123 1.78192,-0.54125 2.52078,-0.52658 4.05205,0.0805 5.08945,4.87108 -0.18087,7.33443 -2.21042,1.03317 -4.41856,2.08163 -6.72362,2.89285 -2.86091,0.99315 -5.74924,1.921 -8.52506,3.13986 -6.55592,2.87873 -9.40434,-3.76713 -2.84944,-6.64817 1.1011,-0.48395 2.22936,-0.89759 3.35587,-1.31568 0.52294,-1.00077 1.47788,-2.01475 2.95124,-2.87476 1.0894,-0.6359 2.16914,-1.287 3.24683,-1.94252 1.33817,-0.81396 2.56345,-1.15421 3.5972,-1.1498 z m -133.0900695,2.4753 h 5.5981075 c 7.160125,0 7.160125,7.23263 0,7.23263 H 5.1923105 c -7.1601277,0 -7.1601277,-7.23263 0,-7.23263 z m 42.9880715,50.84496 c 2.044401,-0.008 3.844292,2.25841 2.953308,6.18618 -0.283588,1.25017 -0.481169,2.51568 -0.75189,3.76877 -0.313965,1.46608 -0.73946,2.91235 -1.207162,4.33668 -2.233805,6.80278 -9.211228,4.46329 -6.857981,-2.29908 0.404762,-1.16313 0.726765,-2.36525 0.995807,-3.56619 0.287499,-1.32813 0.484814,-2.67249 0.804084,-3.99407 0.735603,-3.04497 2.473746,-4.42641 4.063834,-4.43229 z m 26.844358,9.60148 c 1.5451,0.0844 3.630816,1.85281 5.237924,5.05189 1.446292,2.8789 3.498345,5.40261 5.377447,8.00674 1.423178,1.86933 2.496352,3.93269 3.488161,6.04873 3.038795,6.48323 -3.64554,9.55837 -6.57066,3.02307 -0.764304,-1.70766 -1.644017,-3.34338 -2.782776,-4.84001 -2.279812,-3.15977 -5.466628,-6.83969 -6.494177,-10.63656 -0.141171,-0.52168 -0.167447,-1.06805 -0.251148,-1.60197 -0.554762,-3.53682 0.450099,-5.13633 1.995229,-5.05189 z m 22.433772,2.07998 v 5.3e-4 c 1.081786,0.0173 2.458693,0.64291 3.986318,2.0805 1.21595,1.14421 2.08888,2.57763 3.1502,3.85661 0.75663,0.91352 1.6619,1.66584 2.53163,2.46393 1.1475,0.93011 2.05703,2.06162 2.85305,3.29799 0.95863,1.59903 1.44035,3.34615 0.97049,5.20227 -0.10236,0.40431 -0.31771,0.77135 -0.47646,1.15703 -1.02548,2.49132 -2.04203,1.65641 -2.97036,0.0238 -2.04159,1.70549 -5.47708,1.09344 -5.78105,-3.28558 -0.003,-0.0322 -0.0142,-0.0648 -0.007,-0.0966 0.005,-0.03 0.0986,-0.0136 0.0827,-0.0393 -0.23736,-0.38486 -0.69492,-0.61714 -1.02216,-0.90227 -1.100378,-0.77725 -2.267905,-1.45106 -3.395141,-2.18798 -3.582773,-2.34245 -3.744537,-5.4822 -2.015898,-6.82284 -0.840523,-2.68156 0.04882,-4.63231 1.88154,-4.74287 0.06945,-0.004 0.140271,-0.006 0.212389,-0.005 z" /></clipPath><clipPath
       clipPathUnits="userSpaceOnUse"
       id="clipPath292"><path
         id="path293"
         style="fill:#ff0000;fill-opacity:1;fill-rule:nonzero;stroke:none;stroke-width:0.264583"
         d="M 39.169506,-337.89832 V -50.969072 H 288.46282 V -337.89832 Z m 15.676046,82.89261 c 1.714024,0.0204 3.54041,1.61061 3.978568,4.9382 0.120111,0.91222 0.106387,1.83456 0.107487,2.75229 0.0087,7.16012 -7.246413,7.15857 -7.232633,-0.002 0.0013,-0.65071 0.02757,-1.30512 -0.06356,-1.95182 -0.530767,-3.76661 1.267578,-5.76019 3.21014,-5.73712 z m 197.013298,6.80941 c 1.32993,-0.0899 2.96772,0.82319 4.38423,3.1042 1.07429,1.72993 1.55184,3.70118 1.89652,5.68338 0.39598,2.58761 0.42018,5.20011 0.26717,7.80675 -0.16631,2.61527 -0.75971,5.14416 -1.52187,7.63985 -0.4978,1.90614 -1.23662,3.72608 -2.0159,5.52989 -0.76243,1.81488 -1.37928,3.68664 -2.00143,5.55315 -0.64972,1.87676 -1.26002,3.76819 -2.01124,5.60741 -0.95415,2.1244 -1.9321,4.237 -2.90784,6.35155 -0.93622,2.10591 -1.93956,4.18102 -3.03444,6.20893 -0.74336,1.47932 -1.63431,2.88203 -2.64686,4.19044 -0.85071,1.10794 -1.91984,2.00805 -2.89078,3.00343 -1.04445,1.12516 -2.20219,2.13025 -3.34605,3.1502 -1.2349,1.05182 -2.56579,1.98944 -3.91811,2.88354 -1.93444,1.28303 -4.12655,2.08437 -6.28747,2.89285 -2.75914,1.06536 -5.6224,1.79172 -8.50439,2.42982 -2.00852,0.48359 -4.02259,0.93996 -6.05234,1.32499 -1.0898,0.20672 -1.99053,0.15992 -2.79725,0.0139 -0.75827,0.17949 -1.51301,0.3744 -2.26653,0.57309 -1.4977,0.44017 -2.97995,0.92699 -4.46019,1.42214 -1.58834,0.5581 -3.19109,1.04834 -4.83381,1.42213 -2.05853,0.5373 -4.13223,0.98734 -6.23425,1.31724 -1.89057,0.38525 -3.79586,0.65788 -5.71696,0.82837 -1.92552,0.0766 -3.83858,0.29911 -5.75676,0.47025 -1.71912,0.15432 -3.44381,0.22701 -5.16867,0.27441 -2.44184,-0.0118 -4.87127,-0.25567 -7.30085,-0.47078 -2.85973,-0.19225 -5.71909,-0.39592 -8.57157,-0.67799 -2.83995,-0.26841 -5.65359,-0.74864 -8.47907,-1.13016 -2.66463,-0.21934 -5.29981,-0.64608 -7.94267,-1.03457 -2.11987,-0.30404 -4.25541,-0.45909 -6.38152,-0.71055 -1.8808,-0.17534 -3.75496,-0.4017 -5.63118,-0.61856 -1.91243,-0.21286 -3.83573,-0.28885 -5.75779,-0.34985 -2.23949,-0.16259 -4.48445,-0.27106 -6.71949,-0.48783 -2.21917,-0.20648 -4.40762,-0.67897 -6.54068,-1.31516 -2.57048,-0.65769 -4.88262,-1.9917 -7.25382,-3.13883 -1.91366,-0.89121 -3.846978,-1.74009 -5.755724,-2.6417 -1.929913,-0.93683 -3.722034,-2.11514 -5.521108,-3.27525 -1.492637,-0.90475 -0.734285,-0.44535 -2.275314,-1.37821 -6.125257,-3.70793 -2.379728,-9.89571 3.745508,-6.18774 1.606161,0.9723 0.789586,0.47683 2.449462,1.48725 1.534261,0.98943 3.055983,2.00536 4.695836,2.81636 1.92633,0.91375 3.8825,1.76312 5.81257,2.66909 2.03397,0.98503 4.0062,2.16157 6.20944,2.72955 1.67042,0.52508 3.40555,0.86136 5.14697,1.03715 2.07333,0.21111 4.15957,0.28906 6.23683,0.4563 2.12341,0.0679 4.24789,0.15641 6.36033,0.39429 1.88182,0.21873 3.76122,0.44337 5.64772,0.62012 2.19401,0.25968 4.39889,0.41632 6.58565,0.73794 2.61501,0.3856 5.2221,0.80551 7.85895,1.02267 2.74095,0.37156 5.47017,0.83558 8.22482,1.1002 2.82609,0.28319 5.66087,0.47505 8.49405,0.67076 2.15225,0.19062 4.3024,0.40925 6.46472,0.44545 1.57684,-0.0428 3.1537,-0.10777 4.7253,-0.24857 1.92194,-0.17061 3.8389,-0.3955 5.76812,-0.4718 1.7606,-0.15093 3.50197,-0.42258 5.23482,-0.76946 1.94524,-0.29972 3.85736,-0.73584 5.76244,-1.22784 1.40538,-0.30937 2.76609,-0.74989 4.12327,-1.22421 1.62869,-0.54468 3.26081,-1.07909 4.91081,-1.5565 1.77362,-0.46766 3.552,-0.92735 5.36814,-1.20147 1.70238,-0.33298 3.38762,-0.74982 5.05034,-1.24437 1.8768,-0.51034 3.73395,-1.11665 5.54695,-1.81953 1.67544,-0.67931 3.31988,-1.45879 4.78886,-2.52439 1.0657,-0.84543 2.16725,-1.64342 3.15019,-2.58951 1.28809,-1.21508 2.58622,-2.41928 3.84008,-3.67058 0.85194,-0.84614 1.68746,-1.65828 2.24585,-2.7404 0.63482,-0.99725 1.29901,-1.9775 1.85674,-3.02152 0.55263,-0.92785 1.06197,-1.877 1.53479,-2.8484 0.43455,-0.81257 0.86675,-1.63643 1.16427,-2.50993 0.39723,-1.087 0.65435,-2.21493 0.97203,-3.32641 0.29574,-1.24569 0.60338,-2.49273 1.07901,-3.68453 0.39957,-1.05638 0.68712,-2.15558 1.05006,-3.22512 0.22713,-0.94997 0.37986,-1.92387 0.55966,-2.88303 0.22526,-1.23853 0.53664,-2.45701 1.02371,-3.62149 0.47591,-1.31864 1.08044,-2.58627 1.7048,-3.84007 0.34111,-0.58794 0.67316,-1.19257 0.96067,-1.80041 0.32682,-0.71346 -0.0659,-2.40019 0.0822,-3.22151 v -4.23178 c 0,-3.58007 1.80812,-5.37022 3.61632,-5.37022 0.15156,0 0.30168,0.0312 0.45217,0.0563 -0.0649,-0.17178 -0.10183,-0.35173 -0.18242,-0.51883 -1.94402,-4.03078 -0.58254,-6.96655 1.63401,-7.11636 z" /></clipPath></defs><g
     id="layer1"
     transform="translate(57.375461,410.54412)"><path
       style="fill:#000000"
       d="m 63.912258,-127.38836 c -4.16926,-0.30265 -7.97685,-1.14176 -9.52632,-2.09939 -1.93162,-1.1938 -2.40298,-2.5549 -2.23274,-6.44727 l 0.14889,-3.40411 -1.03276,-0.42778 c -0.56801,-0.23527 -1.48791,-0.81077 -2.04421,-1.27887 l -1.01147,-0.85109 v -5.03771 c 0,-8.22023 -1.35167,-13.95137 -3.89316,-16.50721 -1.61629,-1.6254 -2.96164,-1.74313 -4.55911,-0.39895 -1.3787,1.16011 -1.94785,2.26307 -2.43582,4.72048 -0.79747,4.01602 -0.92149,5.60862 -0.83785,10.75972 0.0521,3.20736 -0.0652,5.6618 -0.29786,6.23135 -0.25785,0.63133 -0.96408,1.18931 -2.15217,1.70042 -1.52005,0.65391 -1.7374,0.86873 -1.54778,1.52976 0.38518,1.34271 0.65878,5.42004 0.42595,6.34769 -0.93494,3.7251 -6.20777,5.39312 -16.09942,5.09293 -4.71417,-0.14307 -5.82876,-0.29225 -8.0843205,-1.08204 -3.04822,-1.06734 -5.58368,-2.69383 -6.66947,-4.27843 -0.89562,-1.30708 -1.55697997,-4.45274 -1.32200997,-6.28799 0.14715,-1.14927 0.0425,-1.35645 -1.01473,-2.00989 -1.58646003,-0.98048 -2.45005003,-2.88509 -2.40473003,-5.30352 0.3489,-18.61833 0.77746,-34.61251 0.98544,-36.77708 0.14449,-1.50372 0.1705,-2.73403 0.0578,-2.73403 -0.11269,0 -0.7299,0.30586 -1.37158,0.67969 -2.44597,1.42496 -5.24442,1.36871 -7.4829995,-0.15044 -1.03318,-0.70113 -1.44157,-0.79873 -2.17512,-0.51983 -1.38345,0.52598 -3.28154,0.40988 -4.43461,-0.27125 -0.57226,-0.33804 -1.61533,-1.44929 -2.31793,-2.46945 -0.86012,-1.24885 -1.52081,-1.85483 -2.02229,-1.85483 -1.01332,0 -2.20821,-0.89091 -2.84409,-2.12056 -0.78537,-1.51873 -0.64365,-3.78797 0.37295,-5.97192 l 0.89321,-1.91886 -0.72027,-1.67431 c -1.3379,-3.11004 -0.71756,-5.10908 2.53368,-8.16481 1.66482,-1.5647 2.06909,-2.1315 1.74879,-2.45181 -0.79723,-0.79722 -0.40449,-1.98217 1.5698,-4.73635 2.5763,-3.59399 8.5473695,-10.84685 12.0341795,-14.6175 1.51067,-1.63365 4.41088,-4.87526 6.44492003,-7.2036 2.03404997,-2.32833 5.64327997,-6.23386 8.02053997,-8.67895 2.3772505,-2.44509 4.3222705,-4.53383 4.3222705,-4.64163 0,-0.10781 -2.50031,-0.78054 -5.5562505,-1.49496 -16.42796,-3.84054 -23.7227095,-7.22724 -29.6047395,-13.74446 -2.02855,-2.24762 -2.14919,-2.32262 -3.13353,-1.94838 -6.00816,2.2843 -14.24574,1.20906 -20.71127,-2.7034 -2.69689,-1.63196 -6.73435,-5.67732 -8.31147,-8.32772 -2.1867,-3.67483 -2.97676,-6.63071 -2.99379,-11.20077 -0.0231,-6.19661 1.4417,-10.19198 5.29955,-14.45504 3.32185,-3.67076 7.05258,-5.38789 11.65386,-5.36387 1.60073,0.008 2.90744,-0.093 2.90381,-0.22531 -0.004,-0.13227 -0.40312,-1.74863 -0.88773,-3.59189 -1.90075,-7.22961 -3.17071,-17.3181 -2.81993,-22.40139 0.60609,-8.78327 2.48294,-16.37929 6.18875,-25.04722 3.85955,-9.02753 8.31799,-15.69585 15.55694,-23.26793 10.4238795,-10.90357 23.1893495,-17.93437 38.75149,-21.34303 10.5817,-2.31777 20.25431,-3.15909 29.06762,-2.5283 3.34509,0.23942 6.55061,0.49648 7.12336,0.57125 0.57276,0.0748 2.47013,0.31738 4.21638,0.53914 3.00164,0.3812 8.55203,1.47967 13.52506,2.67674 7.51173,1.80817 18.1679,6.58822 25.1041,11.26098 17.496192,11.78679 27.905332,27.04978 31.238842,45.80573 1.13539,6.38827 1.33193,13.975 0.50607,19.53512 -0.46822,3.15235 -3.00168,14.33896 -3.68777,16.28355 l -0.46351,1.31372 2.60602,0.37544 c 3.38401,0.48751 5.85697,1.72782 8.40488,4.21543 2.71945,2.6551 4.58275,5.60559 5.74233,9.09283 0.79728,2.3977 0.94798,3.4656 0.94977,6.73044 0.004,6.55511 -1.89024,11.08067 -6.66226,15.92021 -4.41771,4.48022 -9.57867,6.68302 -16.58664,7.07951 -2.93973,0.16632 -4.02882,0.07 -6.52532,-0.57713 l -2.99665,-0.77677 -0.53024,0.81559 c -2.84235,4.37196 -9.91446,9.04647 -17.463572,11.54305 -3.28966,1.08793 -13.41541,3.73508 -18.34444,4.79574 -3.84885,0.82822 -3.78639,0.80318 -3.45912,1.38688 0.46384,0.82728 12.15468,14.3513 18.32311,21.19625 6.30837,7.00025 11.711652,13.37268 13.119502,15.47268 0.87759,1.30903 0.89046,1.40051 0.33348,2.37099 l -0.57933,1.00942 2.24348,1.96967 c 2.85982,2.51078 3.94174,3.94136 4.46753,5.90721 0.37308,1.39492 0.33825,1.74027 -0.30711,3.04464 -0.7059,1.42676 -0.70912,1.5109 -0.10646,2.78166 1.76895,3.72994 0.71204,7.47418 -2.26758,8.03316 -0.81068,0.15208 -1.36478,0.61878 -2.08355,1.75492 -0.53854,0.85125 -1.50336,1.8717 -2.14404,2.26766 -1.41205,0.8727 -3.616172,0.93499 -4.759032,0.13449 -0.72637,-0.50877 -0.88681,-0.5182 -1.22503,-0.072 -1.49269,1.96921 -5.18641,2.35206 -8.1614,0.84593 -0.945,-0.47842 -1.77054,-0.81749 -1.83455,-0.75348 -0.064,0.064 0.0574,1.76512 0.26972,3.78027 0.21236,2.01514 0.45462,9.22014 0.53836,16.01112 0.0837,6.79097 0.3314,14.04307 0.55035,16.11577 0.53106,5.02743 0.24797,6.77181 -1.35994,8.37971 -1.22626,1.22627 -1.25615,1.32264 -1.31951,4.2546 -0.042,1.94128 -0.26161,3.37339 -0.62245,4.05825 -1.84954,3.51036 -6.58434,5.35981 -15.26088,5.96103 -0.77611,0.0538 -2.99861,-0.0174 -4.93889,-0.1583 z m 10.05417,-4.63678 c 4.57255,-0.78039 6.70278,-2.33412 6.70278,-4.88884 0,-2.17484 -0.20172,-2.41647 -1.69731,-2.03317 -2.44635,0.62697 -11.52604,1.26713 -16.89393,1.19111 l -5.36208,-0.076 -0.24273,1.94275 c -0.21774,1.74274 -0.16165,2.00839 0.54478,2.58042 1.23957,1.00375 3.37376,1.44224 8.12904,1.67021 4.77302,0.22882 5.36618,0.20282 8.81945,-0.38653 z m -51.58933,0.0406 c 3.64762,-0.40674 5.61392,-1.0274 5.93905,-1.87467 0.1105,-0.28796 0.0222,-1.3845 -0.19626,-2.43675 l -0.39718,-1.91318 -7.658,-0.20416 c -4.2119,-0.11229 -9.24266,-0.44111 -11.1794605,-0.73071 -3.98409,-0.59572 -4.04928,-0.56687 -4.05786,1.79548 -0.007,1.79532 1.47455,3.71617 3.34007,4.33185 3.8894505,1.28363 8.7730105,1.63836 14.2096405,1.03214 z m 51.69814,-9.52063 c 3.26103,-0.48402 8.14631,-1.94208 8.68607,-2.59245 0.23027,-0.27747 0.44907,-1.23109 0.4862,-2.11916 l 0.0675,-1.61468 -1.41111,0.001 c -0.77611,7.5e-4 -2.83986,0.23509 -4.58611,0.52074 -5.10354,0.83484 -11.77235,1.03202 -18.28617,0.54068 -4.16819,-0.31441 -6.04092,-0.33647 -6.30313,-0.0743 -0.20518,0.20517 -0.39214,0.97251 -0.41548,1.70519 -0.0386,1.2129 0.0887,1.40528 1.423,2.14922 0.806,0.44939 2.55225,1.03318 3.88056,1.29731 2.96527,0.58964 12.97695,0.7028 16.45864,0.18603 z m -44.39361,-1.53598 c 1.158,-0.32343 2.2364,-0.77948 2.39643,-1.01345 0.27842,-0.40707 0.0755,-3.37396 -0.25329,-3.70271 -0.0869,-0.0869 -3.69559,0.051 -8.01923,0.30647 -7.02749,0.41528 -8.56492,0.40044 -14.4973505,-0.13995 -3.64991,-0.33247 -6.8132,-0.64168 -7.02954,-0.68713 -0.21634,-0.0454 -0.53326,0.55236 -0.70427,1.32847 -0.27822,1.26268 -0.2196,1.49019 0.55723,2.16285 0.84154,0.7287 4.02312,1.47936 9.5313105,2.24882 3.6417,0.50873 15.59008,0.17493 18.01871,-0.50337 z m 47.4598,-7.78392 c 3.00743,-0.32783 5.54743,-0.67451 5.64444,-0.77041 0.097,-0.0959 0.22955,-4.45051 0.29452,-9.67692 0.0918,-7.38837 -0.0483,-11.56142 -0.63009,-18.75647 -1.00301,-12.40521 -1.92991,-20.1068 -2.83324,-23.5414 -0.17861,-0.6791 -0.58276,-2.42535 -0.8981,-3.88056 -0.31534,-1.45521 -0.70853,-2.96333 -0.87376,-3.35139 -0.16522,-0.38805 -1.19581,-3.88055 -2.29019,-7.76111 -1.09439,-3.88055 -2.6539,-9.09375 -3.46559,-11.58487 l -1.47579,-4.52931 -0.98153,0.77207 c -1.08607,0.8543 -4.04006,1.7495 -5.79443,1.75598 -1.01422,0.004 -1.17117,0.14619 -1.49782,1.35928 -0.64917,2.41083 -2.56787,3.36405 -5.65953,2.81167 -2.00625,-0.35846 -8.75263,-3.72143 -11.23133,-5.59866 -2.15203,-1.62982 -2.51127,-1.54024 -3.3779,0.84232 -0.36053,0.99121 -0.56811,3.11376 -0.63592,6.50277 -0.0873,4.36119 -0.0302,5.00151 0.42848,4.80798 0.29105,-0.1228 1.24355,-0.29904 2.11667,-0.39164 1.25219,-0.13281 1.78702,-0.0109 2.5321,0.5774 1.16744,0.9217 1.84387,2.86239 1.5478,4.44063 -0.24234,1.29177 -1.94983,2.99688 -3.00106,2.99688 -1.01682,0 -2.48995,-1.37179 -2.48995,-2.31866 0,-0.82839 -0.47967,-1.15446 -0.84018,-0.57114 -0.42189,0.68263 -0.0985,34.33002 0.33675,35.03421 0.10309,0.16682 0.53635,0.0935 0.9628,-0.16297 0.42644,-0.25645 0.97379,-0.43328 1.21632,-0.39295 0.24254,0.0403 0.69131,0.0932 0.99728,0.11741 0.30597,0.0242 1.02034,0.50814 1.5875,1.07529 1.17856,1.17856 1.37489,2.92533 0.51558,4.58706 -0.92473,1.78822 -4.41087,1.77592 -5.2051,-0.0184 -0.24681,-0.55757 -0.55009,-1.01377 -0.67396,-1.01377 -0.48127,0 -3.22408,4.63314 -2.91866,4.93018 0.88509,0.86086 5.56885,3.20698 6.0408,3.02588 0.5424,-0.20814 0.50353,-1.59854 -0.10161,-3.63453 -0.34942,-1.17563 0.5174,-1.0034 1.84869,0.3673 1.40291,1.44445 1.72512,2.68663 1.19139,4.59295 -0.39886,1.42457 -0.3611,1.5861 0.8351,3.57259 0.68906,1.1443 1.34709,2.41113 1.46229,2.81517 0.11519,0.40404 0.42293,1.21087 0.68386,1.79296 0.26093,0.58208 0.73767,2.64583 1.05943,4.58611 0.32175,1.94028 0.6519,3.87542 0.73365,4.30031 0.11391,0.59203 0.45743,0.81014 1.47016,0.93346 2.83887,0.34569 18.1707,-0.076 23.37013,-0.64273 z m -31.20577,-33.31805 c -0.11163,-0.18062 -0.0416,-0.42812 0.15557,-0.54999 0.19719,-0.12187 0.35853,0.0259 0.35853,0.3284 0,0.61967 -0.21168,0.71091 -0.5141,0.22159 z m 3.6891,-1.43549 c 0,-0.2587 0.10584,-0.36454 0.23519,-0.23518 0.12935,0.12935 0.12935,0.34101 0,0.47037 -0.12935,0.12935 -0.23519,0.0235 -0.23519,-0.23519 z m -4.46828,-15.25261 c -3.55754,-2.07646 -2.6622,-7.32517 1.24955,-7.32517 2.1227,0 3.16339,0.61536 3.6204,2.14075 0.80835,2.69801 -0.4832,5.1237 -2.90872,5.46298 -0.65841,0.0921 -1.54097,-0.0333 -1.96123,-0.27856 z m -13.96435,49.97481 c 1.00077,-0.20081 1.14659,-0.37072 1.14701,-1.33655 6.6e-4,-1.51362 0.89098,-6.33176 1.60601,-8.69121 0.83126,-2.74297 1.83417,-4.58682 3.19693,-5.87755 l 1.17728,-1.11505 -1.80122,-1.15584 c -1.68725,-1.0827 -2.76837,-2.63091 -2.76837,-3.96439 0,-0.27161 0.88846,-1.82452 1.97436,-3.45092 l 1.97436,-2.95708 -0.20404,-5.64444 c -0.49544,-13.70534 -0.65046,-39.9429 -0.25721,-43.53425 0.22105,-2.01869 0.31313,-3.75912 0.20464,-3.86762 -0.1085,-0.10849 -1.10267,0.32283 -2.20927,0.95851 -3.27859,1.88333 -7.16422,3.60907 -8.8245,3.91924 -2.7503,0.51381 -5.05666,-0.60106 -5.58317,-2.69884 -0.35433,-1.41175 -1.17846,-2.13019 -2.77378,-2.41808 -1.78003,-0.32122 -3.01463,-0.94456 -4.5624,-2.30351 l -1.22052,-1.07164 -0.36341,1.34282 c -0.19987,0.73855 -1.39896,4.98964 -2.6646605,9.44686 -3.77873,13.30705 -4.97078,19.37899 -6.16587,31.40706 -0.40485,4.07459 -0.86354,9.94834 -1.01931,13.05278 -0.37947,7.56278 -0.48713,28.82397 -0.14853,29.33412 0.4605,0.69381 8.6078505,1.12604 18.6141405,0.98751 5.23875,-0.0725 10.04094,-0.23539 10.67153,-0.36193 z m -11.2007,-80.05414 c 0,-0.097 0.0794,-0.17639 0.17639,-0.17639 0.097,0 0.17639,0.0794 0.17639,0.17639 0,0.097 -0.0794,0.17639 -0.17639,0.17639 -0.097,0 -0.17639,-0.0794 -0.17639,-0.17639 z m -25.5116805,42.30385 c 1.87031,-1.17807 3.88289,-4.94012 4.23548,-7.91724 l 0.20992,-1.7724 -1.90228,-1.78868 c -2.34322,-2.20329 -11.4721395,-9.56022 -12.6162495,-10.16734 -0.7779,-0.41279 -0.98094,-0.30052 -2.91146,1.60985 -2.25396,2.23044 -2.60691,2.89208 -2.26643,4.24865 0.21656,0.86286 0.2859,0.88211 2.32491,0.64546 2.67703,-0.31071 2.69922,0.017 0.17996,2.65823 -1.05695,1.1081 -2.35368,2.89547 -2.88162,3.97192 -0.92265,1.88124 -0.93674,1.99251 -0.3632,2.86785 0.96635,1.47484 2.06196,1.18992 4.63738,-1.20599 1.25139,-1.16416 2.3503,-2.11666 2.44201,-2.11666 0.0917,0 -0.32183,1.04406 -0.91898,2.32015 -1.33244,2.84735 -1.463,4.77583 -0.3956,5.84323 0.68554,0.68555 0.87203,0.71714 1.84763,0.31304 1.06968,-0.44308 3.19855,-2.55565 3.19855,-3.17407 0,-0.17464 0.17108,-0.76443 0.38017,-1.31064 l 0.3801695,-0.9931 0.51434,1.21692 c 0.28289,0.66931 0.42276,1.63392 0.31082,2.14357 -0.22288,1.01477 0.33183,2.82187 0.99421,3.23886 0.48633,0.30616 1.50388,0.059 2.60027,-0.63161 z m 98.3350905,0.35706 c 0.62335,-0.62335 0.68015,-1.47717 0.22789,-3.42518 -0.20193,-0.86973 -0.17209,-1.69813 0.0858,-2.38125 0.42222,-1.11859 0.94627,-1.39917 0.94627,-0.50664 0,1.37503 1.79793,4.03542 3.33659,4.93714 1.96868,1.15372 3.018032,1.04684 3.482872,-0.35473 0.28183,-0.84977 0.15591,-1.60543 -0.6595,-3.95777 -0.554322,-1.59911 -0.880442,-3.03147 -0.724722,-3.18303 0.15571,-0.15156 0.703052,0.28006 1.216302,0.95916 2.41843,3.19989 3.86964,3.90247 5.1465,2.49156 0.97447,-1.07678 0.15792,-2.86412 -2.66721,-5.83824 -1.43423,-1.50988 -2.42805,-2.86211 -2.42805,-3.3037 v -0.74758 l 1.14653,0.69905 c 1.36184,0.83033 3.02646,0.91664 3.31231,0.17173 0.47584,-1.24002 -0.28276,-2.26466 -3.24576,-4.38407 l -3.024842,-2.16365 -2.88648,2.53935 c -1.58757,1.39665 -4.18602,3.72164 -5.77433,5.16665 -1.58832,1.44502 -3.45499,3.01268 -4.14816,3.4837 -1.07445,0.73011 -1.22757,0.99728 -1.03834,1.81177 0.67843,2.92017 2.60285,5.90452 4.86408,7.5431 1.57667,1.14252 2.05729,1.21763 2.83229,0.44263 z m -4.56091,-17.55361 c 5.52023,-4.19633 9.70139,-7.8825 9.70139,-8.5529 0,-0.44056 -6.07673,-7.64378 -9.65019,-11.43912 -2.3731,-2.52046 -6.55139,-7.20864 -9.11785,-10.23056 -2.87459,-3.38471 -6.22652,-6.87304 -6.41918,-6.68038 -0.34826,0.34827 1.22403,7.09636 2.48992,10.68646 3.67067,10.41013 6.37072,19.49622 8.37783,28.19266 0.20303,0.87969 0.30456,0.9373 1.01078,0.57357 0.43179,-0.22239 2.05508,-1.36977 3.6073,-2.54973 z m -86.8013105,-4.82258 c 1.47529,-6.80937 2.38606,-10.01356 6.36742,-22.40139 3.7837305,-11.77291 4.0469905,-12.65171 3.8492905,-12.84941 -0.44146,-0.44146 -11.06608047,11.19848 -20.0765105,21.99508 -2.7716895,3.32114 -6.3134295,7.87009 -6.4202195,8.24601 -0.0386,0.13597 0.83451,0.95921 1.94028,1.82944 1.10578,0.87022 2.88362,2.32477 3.9507795,3.23233 2.73369,2.32487 8.59551003,6.28594 8.88545003,6.00426 0.13332,-0.12952 0.8099,-2.85486 1.50350997,-6.05632 z M 30.485128,-233.6442 c 4.83009,-2.35159 8.20352,-4.21765 8.20352,-4.53788 0,-0.18097 -1.15093,-1.56461 -2.55763,-3.07476 -1.40671,-1.51015 -3.74827,-4.20121 -5.20348,-5.98014 -2.94367,-3.59851 -2.83143,-3.5442 -8.89203,-4.30246 -1.49513,-0.18706 -3.11352,-0.43927 -3.59642,-0.56048 -0.81179,-0.20374 -0.91884,-0.0782 -1.41944,1.66506 -0.92871,3.234 -1.61433,6.97363 -1.61433,8.80517 0,2.43714 0.7719,3.75294 2.70261,4.60699 1.39595,0.6175 2.01473,0.67365 4.9762,0.45162 l 3.38202,-0.25356 -0.76792,1.30152 c -0.42235,0.71583 -0.76791,1.79026 -0.76791,2.38763 0,1.08416 0.003,1.08573 1.58606,0.86873 0.87233,-0.11957 2.65827,-0.73942 3.96875,-1.37744 z m 28.00572,0.65549 c 0.25616,-0.5622 0.26902,-1.04942 0.0386,-1.46122 -0.45026,-0.80456 -0.16279,-1.85693 0.57024,-2.08756 0.3186,-0.10023 1.42202,-0.0484 2.45205,0.11529 2.52777,0.40161 4.91353,-0.0882 6.13648,-1.25988 0.91118,-0.87296 0.98617,-1.14909 0.98136,-3.61322 -0.005,-2.39968 -0.37351,-4.60745 -1.43284,-8.57705 -0.3454,-1.29432 -0.38897,-1.32265 -2.01513,-1.31022 -1.8554,0.0142 -8.47238,0.83405 -8.63863,1.07037 -0.40706,0.57865 -5.18342,6.03193 -7.75267,8.85142 l -3.10563,3.4081 2.03825,1.22639 c 3.74609,2.25397 8.56625,4.43059 9.89512,4.46829 0.2467,0.007 0.62147,-0.36682 0.83283,-0.83071 z m -11.00846,-11.79136 c 1.77202,-1.9064 3.45636,-3.80098 3.74297,-4.21018 l 0.52112,-0.74399 -6.26433,0.0632 c -3.44538,0.0348 -7.7532,-0.0693 -9.57293,-0.23138 l -3.30861,-0.29462 0.82887,1.17656 c 0.45587,0.64711 2.60153,2.98606 4.76813,5.19767 l 3.93926,4.02109 1.06183,-0.75609 c 0.58401,-0.41585 2.51167,-2.31588 4.28369,-4.22229 z m 6.5521,-9.79446 c 2.91041,-0.24137 7.3809,-0.76468 9.93442,-1.16291 5.96541,-0.93033 16.39343,-3.17084 16.96488,-3.645 0.26659,-0.2212 0.44097,-1.23656 0.44097,-2.5676 0,-1.21094 0.1547,-3.01744 0.34378,-4.01445 0.22674,-1.19557 0.22338,-2.12942 -0.01,-2.74291 -0.38494,-1.01247 -0.12627,-1.63796 0.3552,-0.85892 0.22619,0.36597 0.42597,0.23603 0.82925,-0.53938 1.27873,-2.4587 3.80145,-3.47642 4.06243,-1.63887 0.074,0.52076 -0.0694,0.79374 -0.41695,0.79374 -1.18049,0 -2.03132,2.00126 -2.36402,5.56048 -0.17663,1.88944 -0.4152,3.87192 -0.53017,4.4055 -0.11497,0.53357 -0.10846,0.97014 0.0145,0.97014 0.52788,0 6.76907,-1.85795 8.76475,-2.60919 7.12248,-2.68114 12.891352,-6.82365 16.017592,-11.50192 2.9736,-4.44986 4.48075,-8.84982 7.1413,-20.84827 1.58151,-7.13224 2.5499,-10.64487 3.86056,-14.00339 3.06011,-7.84146 5.12935,-15.80044 6.3588,-24.45808 0.62373,-4.39222 0.6793,-5.67591 0.37417,-8.64306 -1.29573,-12.59992 -5.22893,-23.18934 -11.96869,-32.22352 -3.7795,-5.06617 -11.88571,-12.57916 -17.941652,-16.62869 -3.82563,-2.55814 -11.15742,-6.44181 -11.77349,-6.23645 -0.67977,0.22658 2.32829,3.67112 5.6313,6.44841 3.4008,2.85951 5.65778,5.29021 5.27114,5.67685 -0.1166,0.11659 -0.92987,-0.28192 -1.80728,-0.88559 -1.84129,-1.26684 -4.74012,-2.57951 -5.14452,-2.32958 -0.43632,0.26966 -4.26919,-2.36397 -5.93649,-4.07906 -1.23678,-1.27224 -3.7341,-5.4845 -4.35382,-7.34366 -0.17794,-0.53382 -6.71592,-2.5346 -11.56768,-3.53998 -7.05505,-1.46195 -16.27499,-2.32297 -15.74824,-1.47067 0.10735,0.1737 -0.042,0.40684 -0.33196,0.5181 -0.30861,0.11842 -0.52714,0.003 -0.52714,-0.27807 0,-0.2642 -0.25111,-0.57671 -0.55802,-0.69449 -0.73918,-0.28365 -12.72477,-0.27068 -15.77172,0.0171 l -2.39502,0.22618 0.23824,1.62339 c 0.34916,2.37916 0.7412,3.2109 1.51347,3.2109 1.02852,0 5.25307,2.59587 7.44805,4.57663 1.56782,1.4148 1.79745,1.75307 1.19624,1.76214 -0.72646,0.011 -2.4467,-0.809 -6.59705,-3.14452 -1.12718,-0.6343 -2.14027,-1.06243 -2.2513,-0.9514 -0.11103,0.11103 0.13652,1.62571 0.55012,3.36596 1.12326,4.72621 1.04553,5.4815 -0.74731,7.2614 -1.29099,1.28167 -2.13045,1.69798 -6.04177,2.99625 -3.37618,1.12065 -4.58688,1.67762 -4.71545,2.16927 -0.0951,0.36382 -0.43229,0.66814 -0.7492,0.67628 -0.31692,0.008 -1.1001,0.29412 -1.74039,0.63554 l -1.16418,0.62076 0.79924,1.04015 c 0.43957,0.57208 0.90002,1.11952 1.02321,1.21654 0.12319,0.097 0.23463,0.73201 0.24765,1.41111 0.013,0.6791 0.0451,2.18722 0.0714,3.35139 0.0522,2.31656 -1.06395,6.51337 -1.92153,7.22509 -0.45514,0.37774 -0.45739,0.30729 -0.0184,-0.57509 0.73094,-1.46906 1.05485,-3.19741 1.04795,-5.59167 -0.005,-1.83009 -0.18959,-2.41619 -1.36134,-4.32891 -0.74539,-1.21673 -1.48388,-2.29173 -1.64109,-2.38889 -0.47198,-0.2917 -7.3300205,5.39753 -10.8236005,8.97894 -1.79476,1.83988 -3.26244,3.43317 -3.26151,3.54066 9.2e-4,0.10748 1.96236,2.25917 4.35875,4.78153 l 4.3570605,4.58611 1.10538,-2.11666 1.10538,-2.11667 -0.13049,2.11667 c -0.0718,1.16416 -0.24311,2.38763 -0.38076,2.71881 -0.18836,0.45322 0.15025,0.88444 1.36915,1.7436 1.80096,1.26943 1.94114,1.66345 0.92046,2.58715 -0.77498,0.70135 -0.91466,0.64056 -3.05317,-1.32872 l -1.10629,-1.01873 -2.1109705,1.44093 c -2.15738,1.47262 -4.31952,2.2193 -4.31952,1.49173 0,-0.21501 1.03188,-1.20185 2.29306,-2.19297 1.26118,-0.99112 2.29305,-1.94985 2.29305,-2.1305 0,-0.483 -2.55432,-3.17144 -5.7527,-6.05473 l -2.80649997,-2.53003 -1.04567,1.22562 c -0.57512003,0.67409 -2.48110003,3.36874 -4.23551003,5.98811 -1.75441,2.61938 -4.27928,5.89652 -5.6108295,7.28254 -2.30091,2.39503 -3.0307,3.61024 -1.90981,3.18012 0.30279,-0.1162 0.45067,-0.0237 0.36271,0.22684 -0.29503,0.84047 0.81035,1.71767 2.2681595,1.79995 0.78754,0.0444 1.55369,0.21483 1.70255,0.37863 0.14886,0.1638 0.085,0.19153 -0.14187,0.0616 -0.47698,-0.27309 -1.62571,0.7375 -1.34838,1.18622 0.10222,0.1654 -0.28456,0.5786 -0.8595195,0.91824 -0.57495,0.33963 -0.96526,0.74713 -0.86734,0.90556 0.0979,0.15843 0.0124,0.28805 -0.19012,0.28805 -0.20247,0 -1.01982,-1.03187 -1.81633,-2.29305 -0.79651,-1.26119 -1.49469,-2.29306 -1.55152,-2.29306 -0.41049,0 -3.33859,5.19733 -4.78045,8.48521 -2.33508,5.32471 -3.99292,7.00886 -7.01813,7.1295 -2.64403,0.10543 -4.26262,-2.00096 -4.26262,-5.54728 0,-2.83092 1.91054,-6.24574 5.56801,-9.95202 0.63705,-0.64556 1.04933,-1.17374 0.91616,-1.17374 -0.13317,0 0.12395,-0.3175 0.57138,-0.70556 0.44743,-0.38805 0.69414,-0.70555 0.54824,-0.70555 -0.1459,0 0.54419,-0.93437 1.53352,-2.07638 0.98934,-1.14201 1.7982,-2.29294 1.79748,-2.55764 -7.3e-4,-0.26469 -0.31427,-0.99453 -0.69676,-1.62185 -1.18386,-1.94165 -0.0362,-3.07922 1.34061,-1.32886 0.84977,1.08032 1.01785,1.08729 2.15695,0.0895 0.82059,-0.7188 0.81334,-0.6912 -0.078,0.29696 l -0.98266,1.08942 1.64907,2.26069 c 0.90699,1.24337 1.72326,2.34005 1.81394,2.43706 0.24374,0.26078 3.7556,-3.68297 5.1410195,-5.77326 4.91935,-7.42226 6.01956,-9.02209 7.0127,-10.19731 l 1.1242,-1.33029 -1.72716,-1.75354 -1.72717,-1.75353 -0.98265,0.94145 c -1.18552,1.1358 -1.64048,0.84256 -1.06367,-0.68558 0.40556,-1.07445 0.35839,-1.19058 -1.10494,-2.72056 -2.5675095,-2.68445 -3.5766695,-4.24404 -2.7461695,-4.24404 0.16972,0 1.5456495,0.90343 3.0576295,2.00761 l 2.74905,2.00762 0.54136,-0.86109 c 0.75354,-1.19856 3.79557003,-4.1128 6.07396,-5.8188 1.10675,-0.8287 2.61715,-2.47545 3.59225,-3.91654 1.78987,-2.64522 3.63476,-4.53146 3.94351,-4.0319 0.10286,0.16643 -0.0697,0.51563 -0.3834,0.776 -0.31373,0.26037 -1.48139,1.82822 -2.59481,3.48412 -2.09017,3.10852 -3.66962,4.73528 -6.73764997,6.93944 -1.61517003,1.16038 -1.72925003,1.33039 -1.22866003,1.83099 0.5006,0.50059 0.44707,0.65993 -0.57648,1.71596 l -1.12831,1.16412 1.74623,1.77289 1.74623003,1.77289 3.00011997,-3.1014 c 2.7479,-2.84066 7.6643505,-7.17984 10.4966505,-9.26418 0.63059,-0.46406 1.14653,-1.15907 1.14653,-1.54446 0,-0.3854 -0.63408,-1.93225 -1.40905,-3.43745 l -1.40906,-2.73674 0.92746,-0.72954 c 0.51011,-0.40125 1.04313,-0.72954 1.18449,-0.72954 0.23799,0 1.26744,2.13411 2.6137,5.41834 0.33963,0.82855 0.73141,1.28882 1.00095,1.17597 4.94516,-2.07041 7.6018,-3.14784 9.67537,-3.92393 2.72219,-1.01887 4.34947,-2.32706 4.34947,-3.49662 0,-0.40152 -0.49621,-2.24518 -1.10268,-4.09703 -0.60647,-1.85186 -1.16329,-3.58153 -1.23737,-3.84373 -0.10149,-0.35921 -0.63915,-0.42999 -2.18112,-0.28712 -1.12553,0.10429 -2.26585,0.23944 -2.53404,0.30034 -0.26818,0.0609 -0.54837,-0.16709 -0.62262,-0.50663 -0.0979,-0.44747 0.0906,-0.62045 0.6846,-0.62859 0.45079,-0.006 1.12777,-0.24429 1.50441,-0.52916 0.37663,-0.28487 1.22076,-0.51795 1.87585,-0.51795 0.9656,0 1.15806,-0.11686 1.01668,-0.61736 -0.0959,-0.33955 -0.28206,-1.30825 -0.41364,-2.15268 l -0.23926,-1.53532 -1.99138,0.24374 c -12.43382,1.52187 -26.66658047,7.41373 -37.106,15.36059 -7.19757,5.47904 -14.11845,14.1309 -18.47586,23.09686 -5.3452,10.99846 -7.53311,20.65728 -7.15205,31.57361 0.28363,8.12538 1.5644,14.97309 4.81451,25.74114 0.89898,2.97845 1.89558,7.58013 2.67133,12.33454 0.68056,4.17102 1.71743,9.25625 2.30416,11.30052 1.2986,4.52456 3.61569,9.36904 5.78917,12.10376 1.95696,2.4623 6.53517,6.14932 9.69112,7.80466 4.1513395,2.17744 10.97510953,4.62484 14.8641695,5.33115 1.25617,0.22814 1.26904,0.21771 2.03895,-1.65073 1.51745,-3.68264 4.9517205,-8.93163 6.5009605,-9.93617 1.49168,-0.96722 3.07233,-1.24595 3.07233,-0.54177 0,0.21902 -0.55562,1.01322 -1.23472,1.7649 -1.36893,1.51525 -1.50829,2.22821 -0.66957,3.42565 0.69483,0.99202 0.36265,1.42252 -0.62279,0.80711 -0.4021,-0.25112 -0.86263,-0.32449 -1.02339,-0.16303 -0.41382,0.4156 -3.2178005,7.2248 -3.0459105,7.3967 0.23971,0.2397 8.2264905,1.8153 14.1641605,2.79424 11.17768,1.84286 20.40065,2.24776 31.06139,1.36362 z m -15.52525,-11.38978 c -3.81935,-1.73509 -5.80229,-6.27586 -5.81259,-13.31031 -0.004,-3.00631 0.0953,-3.65228 0.63992,-4.14514 0.88706,-0.80278 1.14647,-0.75298 3.10852,0.59667 2.94969,2.02903 4.02943,2.45047 6.29499,2.45705 2.4862,0.007 4.57222,-0.81697 6.81019,-2.69071 1.18495,-0.99208 1.67848,-1.20554 2.27616,-0.98445 1.34188,0.4964 1.54985,1.25881 0.84945,3.11412 -0.35006,0.92729 -0.8583,3.1941 -1.12942,5.03737 -0.65409,4.44697 -1.01888,5.61905 -2.29868,7.38576 -2.11225,2.91587 -7.24061,4.12872 -10.73854,2.53964 z m 6.61156,-1.61849 c 0.67466,-0.28189 1.72592,-1.08116 2.33614,-1.77616 1.41555,-1.61222 1.47803,-3.03313 0.17104,-3.88951 -1.88689,-1.23633 -7.26043,-1.01589 -10.08585,0.41377 -0.68798,0.34811 -0.97014,0.76073 -0.97014,1.41866 0,1.20701 1.55814,3.23061 2.95597,3.83898 1.45616,0.63376 4.06872,0.63108 5.59284,-0.006 z m -7.51635,-10.5688 c 0.33192,-0.39994 0.17758,-0.67779 -0.78385,-1.41111 -1.51889,-1.15851 -1.79524,-1.14832 -1.49322,0.0551 0.44591,1.77666 1.43778,2.36734 2.27707,1.35606 z m -28.8740505,9.11165 c 0.0169,-0.41096 0.10052,-0.49455 0.21313,-0.21313 0.10191,0.25466 0.0894,0.55893 -0.0279,0.67616 -0.11722,0.11722 -0.2006,-0.0911 -0.18528,-0.46303 z m -8.31812997,-6.39794 c -0.72444,-0.17648 -1.94057003,-1.1022 -1.93991003,-1.47664 2.1e-4,-0.11545 1.26299003,-1.00366 2.80618,-1.97379 1.54319,-0.97014 2.81302,-1.87548 2.82185,-2.01186 0.009,-0.13637 -0.74057,-0.15835 -1.66533,-0.0488 -0.92475,0.10952 -2.29677997,0.0292 -3.04895997,-0.17848 -1.54889003,-0.42767 -1.89577003,-0.29888 -4.05595003,1.50589 -1.63817,1.36866 -3.45647,1.88474 -4.55986,1.29423 -0.59488,-0.31837 -0.68505,-0.61605 -0.51736,-1.70799 0.25605,-1.66739 0.60114,-2.10227 1.89344,-2.38611 1.41317,-0.31038 1.29791,-0.69436 -0.41404,-1.37935 -7.3116595,-2.92555 -13.6093695,-12.17145 -14.6756195,-21.54585 -0.87678,-7.7086 2.18304,-16.77558 7.45542,-22.09221 9.1720795,-9.24908 22.4536995,-10.56003 33.38196,-3.29494 6.96266,4.62877 11.26956,13.55393 11.26956,23.35383 0,4.42419 -0.77005,7.6728 -2.8234,11.9111 -3.31634,6.84521 -8.29188,11.17682 -15.56815,13.55335 -2.0256105,0.66159 -2.3666705,0.8968 -2.5372705,1.74981 -0.21454,1.07268 -3.22136,3.58442 -5.36128,4.47854 -1.25412,0.52401 -1.31028,0.52969 -2.46127997,0.24929 z m -2.47090003,-33.3905 c 3.75902,-1.72094 6.17506,-5.22874 6.17506,-8.96544 0,-2.78949 -1.58707,-5.53475 -3.88054997,-6.71244 -2.11557003,-1.08633 -6.06235003,-0.98454 -8.52394003,0.21983 -5.4086495,2.64627 -8.1652695,8.4053 -6.0278795,12.59325 0.95851,1.8781 1.84133,2.62093 4.05586,3.41274 2.3893395,0.85431 5.6082695,0.63926 8.2014495,-0.54794 z m 9.14848,-14.53513 c 0.73904,-0.73904 0.69888,-1.28342 -0.1768,-2.39667 -1.17811,-1.49773 -2.79662,-1.04114 -2.79662,0.78895 0,1.77526 1.82117,2.75996 2.97342,1.60772 z m 72.1682405,47.6502 c 0,-0.097 0.0794,-0.17639 0.17639,-0.17639 0.097,0 0.17639,0.0794 0.17639,0.17639 0,0.097 -0.0794,0.17638 -0.17639,0.17638 -0.097,0 -0.17639,-0.0794 -0.17639,-0.17638 z m -0.75825,-1.73732 c -1.17355,-1.11814 -2.08622,-2.32343 -2.21977,-2.93147 -0.19171,-0.87283 -0.51366,-1.12302 -2.08085,-1.61704 -6.60967,-2.08351 -13.25245,-9.24369 -15.60563,-16.82112 -2.3991,-7.7253 -0.41399,-19.6504 4.47083,-26.8575 2.58009,-3.80668 7.86346,-7.55124 12.35121,-8.75385 4.36035,-1.16847 10.98755,-0.95149 15.31577,0.50144 3.79286,1.27322 6.73283,3.15836 9.869752,6.32857 4.02582,4.06856 6.27014,8.186 7.48141,13.72546 0.72703,3.32489 0.69198,9.62259 -0.0702,12.61113 -1.34518,5.27459 -4.86208,10.67495 -9.424632,14.47195 -2.29942,1.91359 -6.29153,4.03899 -8.29092,4.41408 -0.63853,0.11979 -1.16096,0.34164 -1.16096,0.49301 0,0.32426 2.15961,1.21921 3.79236,1.57157 2.451,0.52893 0.45419,3.06432 -2.32753,2.95532 -1.19437,-0.0468 -1.76312,-0.36198 -3.47494,-1.92565 -2.03085,-1.85509 -2.06473,-1.86971 -4.33989,-1.87202 l -2.29305,-0.002 0.88826,0.7826 c 0.48854,0.43043 1.32696,1.10178 1.86317,1.4919 0.89237,0.64924 0.94222,0.80306 0.58885,1.81674 -0.37779,1.08373 -1.14191,1.52417 -2.63473,1.51867 -0.38805,-10e-4 -1.60239,-0.85709 -2.69853,-1.90147 z m -2.84845,-31.25241 c 6.00935,-2.65185 7.97458,-9.88577 3.88961,-14.31743 -2.33749,-2.53589 -5.58893,-2.91953 -9.51399,-1.12258 -3.52434,1.6135 -6.21744,4.82151 -6.83258,8.13896 -0.57693,3.11135 1.91637,7.08961 4.9813,7.94809 1.92072,0.53799 5.49043,0.22902 7.47566,-0.64704 z m 8.34633,-14.78638 c 1.12688,-1.24519 -0.31465,-3.34874 -2.15079,-3.13853 -1.39898,0.16016 -1.57378,1.69093 -0.3346,2.93012 1.06582,1.06581 1.66405,1.11598 2.48539,0.20841 z m -45.078,34.60736 c -0.63362,-0.70015 -0.76978,-2.70167 -0.27254,-4.0062 0.54606,-1.43259 2.15758,-2.75711 3.35277,-2.75568 3.11395,0.004 5.56308,3.96213 4.1199,6.65873 -0.53529,1.00021 -2.65327,1.04586 -3.2625,0.0703 -0.41765,-0.66877 -0.43509,-0.66877 -1.28529,0 -1.0811,0.8504 -1.90324,0.86057 -2.65234,0.0328 z m 41.05118,-53.72357 c -1.13065,-0.45112 -2.12392,-1.35643 -2.12392,-1.93585 0,-0.25097 0.41221,-0.90105 0.91601,-1.44463 0.82345,-0.88844 1.14083,-0.98576 3.14084,-0.96307 4.28858,0.0486 6.39418,3.14795 2.95351,4.34738 -1.3567,0.47294 -3.69606,0.47111 -4.88644,-0.004 z m -87.4961305,-2.07573 c 0,-0.19403 0.16812,-0.35278 0.3736,-0.35278 0.20547,0 0.27548,0.15875 0.15557,0.35278 -0.11992,0.19402 -0.28804,0.35277 -0.3736,0.35277 -0.0856,0 -0.15557,-0.15875 -0.15557,-0.35277 z m 103.8453105,-0.32531 c -1.51034,-0.37495 -3.20677,-1.63905 -3.83814,-2.85999 -1.19018,-2.30156 -0.17019,-5.55734 2.08003,-6.63938 2.04418,-0.98298 5.548792,0.27943 6.943992,2.50131 1.08105,1.72161 0.8021,4.55047 -0.58307,5.91276 -1.128352,1.10971 -2.859912,1.518 -4.602812,1.0853 z m -32.5071,-3.72399 c -1.60413,-0.74681 -1.98378,-1.12646 -2.73058,-2.73059 -0.47708,-1.02474 -0.86896,-2.36327 -0.87086,-2.97451 -0.003,-1.04954 -0.10643,-1.13551 -1.85553,-1.54592 -3.36869,-0.79045 -4.88414,-2.02011 -5.76758,-4.67989 -1.5827,-4.76506 1.14553,-9.50595 5.93613,-10.31531 1.2388,-0.2093 1.31089,-0.28806 1.06516,-1.16379 -0.14496,-0.51662 -0.2549,-1.81744 -0.24431,-2.89072 0.0367,-3.71455 2.6184,-6.67519 6.44462,-7.39043 3.66867,-0.6858 6.59326,0.65129 8.64547,3.9526 0.87552,1.40842 1.21251,1.69057 1.80315,1.50972 3.31093,-1.01381 6.02394,-0.32479 8.25605,2.09677 1.05748,1.14722 1.47371,1.94492 1.65876,3.17896 0.37486,2.49968 -0.003,4.33623 -1.19992,5.82506 l -1.06426,1.32433 0.81875,1.20491 c 3.10871,4.57488 2.05223,9.39974 -2.51618,11.49123 -2.30037,1.05314 -4.67463,0.96192 -6.6441,-0.25528 l -1.19226,-0.73685 -0.52651,1.01816 c -1.02794,1.9878 -4.54653,3.96023 -7.05065,3.9524 -0.6062,-0.002 -1.94061,-0.39378 -2.96535,-0.87085 z m 6.51889,-3.40637 c 0.49919,-0.45904 1.28106,-1.66805 1.73748,-2.68669 0.45641,-1.01865 0.92264,-1.85209 1.03606,-1.85209 0.11342,0 0.86948,0.37926 1.68014,0.8428 3.53272,2.02002 6.00002,1.96602 7.79794,-0.17068 1.68907,-2.00735 1.17612,-4.26756 -1.64853,-7.26385 l -1.85325,-1.96588 1.05289,-0.74827 c 0.57909,-0.41156 1.59144,-1.26851 2.24966,-1.90434 1.10595,-1.06831 1.18262,-1.28165 1.01027,-2.81078 -0.3807,-3.37756 -3.37176,-4.55356 -6.95866,-2.73594 -0.95724,0.48507 -1.81705,0.88194 -1.91069,0.88194 -0.0936,0 -0.82944,-1.26703 -1.6351,-2.81562 -1.76703,-3.39644 -3.0714,-4.38661 -5.72583,-4.34657 -2.04386,0.0308 -3.27576,0.79749 -4.30615,2.67985 -0.66854,1.22132 -0.67531,1.3769 -0.14467,3.3228 0.30619,1.12282 0.89038,2.85736 1.29821,3.85454 l 0.7415,1.81306 -2.71349,-0.0492 c -3.33177,-0.0604 -5.14199,0.73654 -6.16914,2.71581 -0.72994,1.40656 -0.62945,3.74179 0.20885,4.85373 0.68083,0.90305 2.47763,1.68086 4.97908,2.15538 l 2.32754,0.44153 -0.1753,1.59497 c -0.24332,2.21385 0.43264,3.84275 1.9363,4.66598 1.62181,0.88791 3.93467,0.67713 5.18489,-0.47251 z m -99.72932,1.28205 c 0,-0.097 0.0794,-0.17638 0.17639,-0.17638 0.097,0 0.17639,0.0794 0.17639,0.17638 0,0.097 -0.0794,0.17639 -0.17639,0.17639 -0.097,0 -0.17639,-0.0794 -0.17639,-0.17639 z m 0.88194,-1.23472 c 0.11992,-0.19403 0.29741,-0.35278 0.39442,-0.35278 0.097,0 0.0783,0.15875 -0.0416,0.35278 -0.11992,0.19403 -0.2974,0.35278 -0.39442,0.35278 -0.097,0 -0.0783,-0.15875 0.0416,-0.35278 z m 0.39748,-1.14653 c 0.75377,-1.26518 3.24353,-3.924 4.0791,-4.35609 0.95231,-0.49246 2.00069,-0.68066 1.60884,-0.28881 -0.11318,0.11318 -0.26255,0.15287 -0.33193,0.0882 -0.0694,-0.0647 -1.22505,1.03335 -2.56817,2.44005 -2.20503,2.30943 -3.47894,3.27664 -2.78784,2.11666 z m 6.12891,-5.02708 c 0,-0.097 0.0794,-0.17639 0.17639,-0.17639 0.097,0 0.17639,0.0794 0.17639,0.17639 0,0.097 -0.0794,0.17639 -0.17639,0.17639 -0.097,0 -0.17639,-0.0794 -0.17639,-0.17639 z m 38.45278,-5.95402 c 0,-0.0733 0.27781,-0.35107 0.61736,-0.61737 0.55952,-0.4388 0.572,-0.42633 0.13319,0.1332 -0.46086,0.58764 -0.75055,0.77451 -0.75055,0.48417 z m -39.59169,-0.9576 c 0.23498,-0.3089 0.3454,-0.64346 0.24538,-0.74348 -0.10002,-0.10002 0.046,-0.37094 0.32443,-0.60203 0.95077,-0.78907 0.90506,0.21268 -0.0485,1.0621 -0.52172,0.46477 -0.75633,0.5923 -0.52135,0.28341 z m 0.78613,-0.84949 c 0,-0.097 -0.0794,-0.17639 -0.17639,-0.17639 -0.097,0 -0.17638,0.0794 -0.17638,0.17639 0,0.097 0.0794,0.17639 0.17638,0.17639 0.097,0 0.17639,-0.0794 0.17639,-0.17639 z m 0.8855,-1.59325 c 0.12188,-0.1972 0.36937,-0.2672 0.54999,-0.15557 0.18062,0.11163 0.3284,0.0127 0.3284,-0.21994 0,-0.45554 1.0244,-1.35305 1.56531,-1.37141 0.18182,-0.006 -0.12569,0.46503 -0.68336,1.04712 -0.94212,0.98335 -2.25917,1.50693 -1.76034,0.6998 z m 14.7543195,-12.22388 c 0.12935,-0.12935 0.34102,-0.12935 0.47037,0 0.12935,0.12935 0.0235,0.23519 -0.23519,0.23519 -0.2587,0 -0.36454,-0.10584 -0.23518,-0.23519 z m 1.29352,-0.47037 c 0,-0.2587 0.10583,-0.36453 0.23518,-0.23518 0.12935,0.12935 0.12935,0.34102 0,0.47037 -0.12935,0.12935 -0.23518,0.0235 -0.23518,-0.23519 z m 0.70555,-0.41157 c 0,-0.22637 0.0926,-0.31897 0.20579,-0.20579 0.11318,0.11318 0.47037,-0.0194 0.79375,-0.29468 0.32338,-0.27525 1.28692,-1.09546 2.1412,-1.82268 2.13334003,-1.81605 2.58519,-3.04077 2.29664003,-6.22501 l -0.23293,-2.57048 1.23176997,-0.76128 c 1.63521,-1.01062 2.02637,-0.96662 0.7971,0.0897 -0.93918,0.80702 -0.9789,0.96008 -0.76938,2.96473 0.42251,4.04232 -1.01360997,6.65087 -4.69581,8.52938 -1.61342,0.82311 -1.76813,0.84902 -1.76813,0.29615 z m 1.41111,-0.47037 c 0,-0.097 -0.0794,-0.17639 -0.17639,-0.17639 -0.097,0 -0.17639,0.0794 -0.17639,0.17639 0,0.097 0.0794,0.17639 0.17639,0.17639 0.097,0 0.17639,-0.0794 0.17639,-0.17639 z m 7.05556,-12.34722 c 0,-0.097 0.0794,-0.17639 0.17639,-0.17639 0.097,0 0.17638,0.0794 0.17638,0.17639 0,0.097 -0.0794,0.17639 -0.17638,0.17639 -0.097,0 -0.17639,-0.0794 -0.17639,-0.17639 z m 0.82314,-0.41158 c 0.12936,-0.12935 0.34102,-0.12935 0.47037,0 0.12936,0.12935 0.0235,0.23519 -0.23518,0.23519 -0.2587,0 -0.36454,-0.10584 -0.23519,-0.23519 z m 0.94075,-0.29398 c 0,-0.097 0.0794,-0.17639 0.17638,-0.17639 0.097,0 0.17639,0.0794 0.17639,0.17639 0,0.097 -0.0794,0.17639 -0.17639,0.17639 -0.097,0 -0.17638,-0.0794 -0.17638,-0.17639 z m 0.70555,-0.35278 c 0,-0.097 0.0794,-0.17639 0.17639,-0.17639 0.097,0 0.17639,0.0794 0.17639,0.17639 0,0.097 -0.0794,0.17639 -0.17639,0.17639 -0.097,0 -0.17639,-0.0794 -0.17639,-0.17639 z m 39.8638905,0 c 0,-0.097 0.0794,-0.17639 0.17639,-0.17639 0.097,0 0.17638,0.0794 0.17638,0.17639 0,0.097 -0.0794,0.17639 -0.17638,0.17639 -0.097,0 -0.17639,-0.0794 -0.17639,-0.17639 z M 7.2914275,-394.9522 c 0,-0.097 0.0794,-0.17639 0.17639,-0.17639 0.097,0 0.17639,0.0794 0.17639,0.17639 0,0.097 -0.0794,0.17638 -0.17639,0.17638 -0.097,0 -0.17639,-0.0794 -0.17639,-0.17638 z m 39.5111105,-0.12172 c 0,-0.2241 0.14024,-0.40745 0.31163,-0.40745 0.1714,0 0.39467,-0.3175 0.49614,-0.70556 0.10148,-0.38805 0.39781,-0.69302 0.65851,-0.6777 0.35931,0.0211 0.36677,0.0711 0.0308,0.20652 -0.24374,0.0983 -0.36655,0.30264 -0.2729,0.45417 0.0936,0.15152 -0.14349,0.55944 -0.52697,0.90649 -0.39817,0.36034 -0.69724,0.45622 -0.69724,0.22353 z m -38.4527705,-0.23106 c 0,-0.097 0.0794,-0.17639 0.17639,-0.17639 0.097,0 0.17639,0.0794 0.17639,0.17639 0,0.097 -0.0794,0.17639 -0.17639,0.17639 -0.097,0 -0.17639,-0.0794 -0.17639,-0.17639 z m 0.82315,-0.41158 c 0.12935,-0.12935 0.34101,-0.12935 0.47037,0 0.12935,0.12936 0.0235,0.23519 -0.23519,0.23519 -0.2587,0 -0.36454,-0.10583 -0.23518,-0.23519 z m 0.9407405,0.0588 c 0,-0.097 0.0794,-0.17639 0.17638,-0.17639 0.097,0 0.17639,0.0794 0.17639,0.17639 0,0.097 -0.0794,0.17639 -0.17639,0.17639 -0.097,0 -0.17638,-0.0794 -0.17638,-0.17639 z m 1.34496,-0.41738 c 0.25466,-0.1019 0.55893,-0.0894 0.67616,0.0279 0.11722,0.11722 -0.0911,0.2006 -0.46302,0.18528 -0.41097,-0.0169 -0.49456,-0.10052 -0.21314,-0.21314 z m 2.18281,-0.25043 c 0,-0.0763 0.24637,-0.23319 0.54749,-0.34874 0.31395,-0.12047 0.45555,-0.0613 0.33196,0.13865 -0.20717,0.33521 -0.87945,0.49581 -0.87945,0.21009 z m 34.57222,-1.09608 c 0,-0.097 0.0794,-0.17639 0.17639,-0.17639 0.097,0 0.17639,0.0794 0.17639,0.17639 0,0.097 -0.0794,0.17639 -0.17639,0.17639 -0.097,0 -0.17639,-0.0794 -0.17639,-0.17639 z m 0.35278,-0.70555 c 0,-0.097 0.0794,-0.17639 0.17639,-0.17639 0.097,0 0.17639,0.0794 0.17639,0.17639 0,0.097 -0.0794,0.17639 -0.17639,0.17639 -0.097,0 -0.17639,-0.0794 -0.17639,-0.17639 z m 0.70556,0 c 0,-0.097 0.0794,-0.17639 0.17639,-0.17639 0.097,0 0.17638,0.0794 0.17638,0.17639 0,0.097 -0.0794,0.17639 -0.17638,0.17639 -0.097,0 -0.17639,-0.0794 -0.17639,-0.17639 z m -0.35278,-0.70556 c 0,-0.097 0.0794,-0.17639 0.17639,-0.17639 0.097,0 0.17639,0.0794 0.17639,0.17639 0,0.097 -0.0794,0.17639 -0.17639,0.17639 -0.097,0 -0.17639,-0.0794 -0.17639,-0.17639 z m 1.05833,-0.70555 c 0,-0.097 0.0794,-0.17639 0.17639,-0.17639 0.097,0 0.17639,0.0794 0.17639,0.17639 0,0.097 -0.0794,0.17638 -0.17639,0.17638 -0.097,0 -0.17639,-0.0794 -0.17639,-0.17638 z m 0.35278,-0.70556 c 0,-0.097 0.0794,-0.17639 0.17639,-0.17639 0.097,0 0.17639,0.0794 0.17639,0.17639 0,0.097 -0.0794,0.17639 -0.17639,0.17639 -0.097,0 -0.17639,-0.0794 -0.17639,-0.17639 z m 0.38297,-0.88194 c -0.0107,-0.29105 0.1345,-0.7673 0.32258,-1.05834 0.41675,-0.64486 0.41675,-0.0879 0,0.88195 -0.19991,0.46522 -0.30979,0.5253 -0.32258,0.17639 z m -0.38297,-1.94028 c 0,-0.30575 0.21006,-0.42642 0.52917,-0.30396 0.29104,0.11168 0.52916,0.24846 0.52916,0.30396 0,0.0555 -0.23812,0.19228 -0.52916,0.30396 -0.31911,0.12245 -0.52917,0.002 -0.52917,-0.30396 z m -77.53659,129.69617 0.95647,-0.37527 -0.73936,-1.67144 c -0.40665,-0.91929 -1.00982,-2.63212 -1.34038,-3.80629 l -0.60102,-2.13485 -2.53956,-0.22957 c -7.49238,-0.6773 -10.62585,-6.13259 -5.82046,-10.1333 0.75171,-0.62583 2.04143,-1.32157 2.86605,-1.54609 1.75017,-0.47651 1.86137,-0.94381 0.52916,-2.22366 -2.34666,-2.25443 -6.50732,-2.97051 -9.21967,-1.58677 -1.45489,0.74223 -3.56852,2.9302 -3.56852,3.69403 0,0.87091 -0.89622,1.30981 -1.89737,0.92918 -2.94256,-1.11876 1.25821,-8.32526 5.55402,-9.52801 2.12039,-0.59368 5.197,-0.10901 7.76479,1.22321 l 1.72414,0.89452 -0.2294,-1.7293 c -0.40171,-3.02821 -1.23963,-5.30151 -2.18162,-5.91872 -1.17497,-0.76987 -5.25426,-1.03327 -7.53367,-0.48645 -1.08975,0.26143 -2.65472,1.05286 -3.91178,1.97826 -6.44063,4.74132 -8.24003,14.40474 -4.06462,21.82836 2.97402,5.28761 9.0568,9.99836 14.3627,11.12304 1.91077,0.40502 8.61042,0.20121 9.8901,-0.30088 z m 152.413162,-0.23817 c 5.29679,-1.31345 9.99852,-5.2303 12.70845,-10.58697 3.82165,-7.5542 2.28215,-16.25507 -3.72034,-21.02635 -2.46013,-1.95551 -4.53158,-2.83228 -7.11393,-3.01104 -3.53092,-0.24443 -3.86421,0.10837 -5.47575,5.79621 -0.34359,1.21267 -0.51709,2.20486 -0.38556,2.20486 0.13153,0 0.90967,-0.32396 1.7292,-0.71992 0.81954,-0.39595 2.35688,-0.894 3.41633,-1.10677 1.60606,-0.32254 2.18153,-0.28935 3.46198,0.19965 2.98166,1.13871 5.72816,4.38334 6.40009,7.56089 0.19408,0.91783 0.10683,1.27808 -0.40315,1.66447 -1.09977,0.83327 -1.74415,0.59153 -2.42033,-0.90795 -0.83466,-1.85096 -2.94049,-3.73182 -4.71238,-4.20893 -1.86559,-0.50236 -4.23964,0.0379 -6.25259,1.42283 -2.56347,1.76371 -2.88227,2.9267 -1.01602,3.70647 1.78104,0.74417 3.9437,2.81906 4.40955,4.23059 1.16199,3.52086 -2.90568,6.85589 -8.36199,6.85589 -1.48593,0 -1.87625,0.11761 -1.87625,0.56533 0,0.31093 -0.48216,2.00447 -1.07146,3.76342 -0.84035,2.50828 -0.97351,3.2592 -0.61736,3.48133 0.40655,0.25356 1.29917,0.41474 4.15827,0.75084 1.59215,0.18716 5.07746,-0.12259 7.14324,-0.63485 z m -155.084702,-11.01287 c -1.27632,-4.49935 -1.36974,-4.67436 -2.49448,-4.67299 -1.46035,0.002 -3.30477,1.18289 -3.58389,2.29501 -0.42706,1.70154 1.47892,2.8956 4.73042,2.96352 1.28981,0.0269 1.49625,-0.0627 1.34795,-0.58554 z m 151.214672,-0.15364 c 1.01456,-0.48 1.54414,-1.64534 1.17951,-2.59553 -0.24833,-0.64715 -2.31477,-1.57236 -3.51184,-1.57236 -0.72373,0 -0.95426,0.3215 -1.59883,2.22973 -0.41424,1.22635 -0.75316,2.35981 -0.75316,2.5188 0,0.40975 3.51079,-0.0254 4.68432,-0.58064 z m -145.455642,-49.31045 c 0.7884,-0.7884 1.60923,-2.16716 2.11955,-3.56026 1.22118,-3.33361 2.75309,-6.30802 4.10937,-7.97887 l 1.19485,-1.47197 -1.28157,-2.15138 c -1.26537,-2.12419 -1.89587,-2.85311 -1.89587,-2.19181 0,0.18658 -1.41495,2.11654 -3.14432,4.28881 -1.72937,2.17226 -3.63561,4.87133 -4.23608,5.99793 -2.00891,3.76909 -2.1379,7.53582 -0.28636,8.362 1.10788,0.49435 1.95053,0.17545 3.42043,-1.29445 z"
       id="path294" /></g></svg>
