<?xml version="1.0" encoding="UTF-8" standalone="no"?>
<!-- Created with Inkscape (http://www.inkscape.org/) -->

<svg
   width="203.80975mm"
   height="224.52528mm"
   viewBox="0 0 203.80977 224.52525"
   version="1.1"
   id="svg1"
   xml:space="preserve"
   xmlns="http://www.w3.org/2000/svg"
   xmlns:svg="http://www.w3.org/2000/svg"><defs
     id="defs1"><clipPath
       clipPathUnits="userSpaceOnUse"
       id="clipPath6"><path
         id="path7"
         style="fill:#ff0000;fill-opacity:1;fill-rule:nonzero;stroke:none;stroke-width:0.264583"
         d="M -175.07778,-16.057127 V 287.55793 H 124.54631 V -16.057127 Z m 132.7459,202.572647 c 0.210643,0.005 0.427212,0.0169 0.650089,0.0367 2.23823,0.19855 4.475655,0.4031 6.717938,0.55346 1.973313,0.11308 0.986628,0.0436 2.958475,0.20825 3.181295,0.26563 4.740125,1.85116 4.950601,3.46956 4.949923,1.63749 3.796379,7.35609 -2.592089,6.81354 -3.228716,-0.27422 -1.569593,-0.1301 -4.979024,-0.43357 -4.228209,-0.39317 -8.460616,-0.76265 -12.666927,-1.35341 -6.647387,-0.93358 -5.930551,-7.21034 0.03204,-7.20421 0.04685,5e-5 0.0972,0.004 0.144695,0.005 0.687229,-1.21692 2.304132,-2.15435 4.784204,-2.09548 z" /></clipPath><clipPath
       clipPathUnits="userSpaceOnUse"
       id="clipPath76"><path
         id="path77"
         style="fill:#ff0000;fill-opacity:1;fill-rule:nonzero;stroke:none;stroke-width:0.264583"
         d="M -133.83107,-122.52355 V 173.82063 H 122.97289 V -122.52355 Z M 13.574404,98.948202 c 2.788179,0.0507 4.135003,2.063798 3.398242,4.077268 0.199805,0.45372 0.374906,0.96736 0.517797,1.54461 1.07913,4.35948 0.671079,8.891 0.311608,13.31495 -0.351859,3.06036 -0.147137,1.57974 -0.604097,4.44366 -0.359666,2.25418 -1.333846,3.66838 -2.455664,4.32532 0.105138,0.36595 0.224724,0.72888 0.324528,1.09554 0.6273,2.23652 0.575201,4.47401 0.39429,6.75514 -0.137303,1.73129 -0.688065,2.99533 -1.427303,3.82199 -0.112477,0.41601 -0.170275,0.80219 -0.311092,1.25212 -0.184975,0.59102 -0.413327,1.1061 -0.670242,1.55856 0.741137,-0.23134 1.446982,-0.38145 2.064991,-0.37517 4.085002,0.0415 5.222724,4.75435 -0.02223,7.27138 -4.46677,2.14368 -9.303523,3.34693 -14.11903492,4.40955 -4.40876268,0.85156 -8.89238128,1.33053 -13.38264308,1.19269 -5.804014,-0.17807 -6.736297,-5.00293 -3.065447,-6.67298 -2.072987,-0.65744 -4.042852,-1.62261 -4.128947,-3.14709 -0.02802,-0.49633 0.0026,-0.90355 0.0341,-1.30897 -1.976731,-0.003 -3.95339,2.4e-4 -5.930386,0.003 -0.814031,0 -1.53062,-0.0962 -2.159559,-0.26149 -0.376306,0.19492 -0.742394,0.40783 -1.120862,0.59893 -6.391272,3.22657 -9.625245,-3.24074 -3.234428,-6.46886 1.833438,-0.92611 3.62694,-1.92211 5.414142,-2.92954 -0.877003,-3.87058 -1.368747,-7.83436 -1.323951,-11.80858 0.01651,-1.46304 0.376836,-2.54918 0.864547,-3.41426 -1.247357,-1.79999 -0.223805,-4.63069 3.842661,-5.68855 3.11826,-0.81116 6.282901,-1.39515 9.473837,-1.82211 -1.259816,-0.12657 -2.516182,-0.30233 -3.764627,-0.50177 -1.477002,-0.21985 -2.935575,-0.54305 -4.407482,-0.7891 -1.14214,-0.22954 -0.588502,-0.12004 -1.660882,-0.3297 -3.350244,-0.65501 -4.783278,-2.61088 -4.608504,-4.32997 -0.200179,-1.7721 1.333365,-3.52972 4.663799,-3.59461 v -5.3e-4 c 0.20954,-0.004 0.426035,-0.002 0.649571,0.008 1.77111,0.0772 3.528708,0.28204 5.26428,0.64027 1.655035,0.33225 3.314115,0.6481 4.955251,1.04439 1.244759,0.34858 2.51628,0.54538 3.7997689,0.6723 0.025956,0.002 0.052073,0.002 0.078034,0.004 0.4990888,-0.0371 0.9984105,-0.0743 1.4965495,-0.11317 1.346872,-0.12588 2.6913231,-0.25136 4.0457464,-0.24236 1.1278499,-0.0444 2.2567291,-0.10772 3.37498791,-0.26872 0.75719517,-0.11591 1.51142439,-0.25483 2.25722659,-0.4284 0.3616431,-0.12394 0.7240561,-0.24538 1.083138,-0.37775 0.3360393,-0.12388 0.6107589,-0.12825 0.9250071,-0.20723 0.1281086,-0.045 0.2583895,-0.0825 0.3855085,-0.13074 1.9825018,-0.7681 3.9540551,-1.56464 5.9510551,-2.29443 1.050809,-0.383992 1.999634,-0.542639 2.826703,-0.527616 z M 0.70283723,110.39557 c -0.45566013,0.0949 -0.90775367,0.208 -1.36890919,0.2744 -1.16638124,0.15534 -2.34111274,0.24237 -3.51761424,0.26251 0.4031694,0.0896 0.8047355,0.18876 1.2025101,0.308 0.1014836,0.0304 0.1982549,0.075 0.2986907,0.10852 0.4205235,-0.21824 0.9206601,-0.35072 1.4898318,-0.37156 0.39885139,-0.0146 0.83259872,0.0278 1.29449508,0.13023 0.22468681,-0.12213 0.44967525,-0.24374 0.67437529,-0.36587 -0.0326284,-0.11319 -0.058211,-0.22834 -0.0733795,-0.34623 z m 10.24433577,1.02474 c -0.76023,0.21437 -1.5189569,0.4343 -2.2696301,0.68006 -0.031261,0.62207 -0.2256075,1.28373 -0.6464723,1.94355 0.6236891,0.43248 1.2549743,1.04482 1.8634525,1.86862 0.2674939,0.36214 0.4748849,0.75712 0.7188199,1.13223 0.154519,-1.86707 0.314174,-3.74736 0.33383,-5.62446 z m 64.566086,3.39773 c 1.50346,0.0187 3.129182,1.24994 3.928441,4.04678 0.257931,0.90255 0.823497,1.65871 1.488797,2.30735 0.856321,0.95375 1.845738,1.76777 2.801898,2.61638 1.458581,1.46408 2.789203,3.04608 4.169772,4.58215 1.315059,1.44746 2.571226,2.91698 3.543967,4.61884 0.0053,0.01 0.0082,0.0206 0.01344,0.0305 0.734605,-0.43313 1.446276,-0.65634 2.094962,-0.69195 3.016182,-0.16561 4.69137,3.55377 1.187525,7.32306 -1.69471,1.82311 -3.657862,3.33908 -5.68751,4.7651 -0.777873,0.49914 -1.607691,0.90075 -2.418456,1.33842 0.165478,1.44344 -0.672182,3.24303 -2.956409,4.73096 -1.354556,0.88234 -2.690448,1.79306 -4.075203,2.6288 -2.075008,1.20078 -4.233777,2.27962 -6.540687,2.96259 -2.077586,0.62971 -4.169056,1.29987 -6.359301,1.36374 -1.872114,0.0897 -3.746989,0.0368 -5.620845,0.0501 h -5.1108 -5.524728 c -7.160125,0 -7.160125,-7.23315 0,-7.23315 h 1.347722 c 0.29438,-0.0541 0.5212,-0.1588 0.84801,-0.18656 1.106628,-0.094 2.200932,-0.28334 3.292822,-0.48421 0.456121,-0.98163 1.356053,-1.98213 2.807581,-2.83962 1.078018,-0.63685 2.158119,-1.26923 3.212209,-1.94561 1.962647,-1.29302 3.840588,-2.72135 5.893696,-3.86902 1.367169,-0.76424 2.559646,-1.07097 3.526915,-1.04128 2.216811,0.068 3.246223,1.90266 2.479953,4.04059 1.105688,-0.48686 2.206929,-0.98346 3.283003,-1.53739 2.619811,-1.23728 5.288743,-2.38548 7.764385,-3.9026 0.246153,-0.17184 0.487463,-0.34958 0.730705,-0.52503 -0.126915,-0.50614 -0.277693,-0.9939 -0.512114,-1.46554 -0.647621,-1.25778 -1.721077,-2.20654 -2.600875,-3.29644 -1.199229,-1.33472 -2.369312,-2.69496 -3.592029,-4.00803 -1.098706,-0.97599 -2.227236,-1.92181 -3.215306,-3.01428 -1.300821,-1.39063 -2.459913,-2.93896 -3.045293,-4.77801 -1.289469,-4.05101 0.646382,-6.61405 2.843754,-6.58667 z m -95.086705,4.28035 c -0.465643,0.10748 -0.930899,0.21773 -1.394745,0.33435 0.171958,0.64334 0.283575,1.36624 0.279569,2.2071 -0.01267,2.6582 0.205063,5.32647 0.670242,7.94732 0.280107,-0.17087 0.565767,-0.33222 0.845429,-0.50385 -0.01897,-0.36223 -0.02445,-0.73164 -0.05529,-1.08985 -0.118034,-2.96491 -0.160888,-5.93314 -0.3452,-8.89507 z m 18.5141159,1.1958 c 0.00497,0.0773 0.00619,0.15612 0.014975,0.23202 -0.1238779,0.22787 -0.2588048,0.44752 -0.3937741,0.66715 0.58900751,0.0447 1.13203305,0.21413 1.64331124,0.45888 -0.37615284,-0.49255 -0.78353709,-0.94642 -1.26452314,-1.35805 z m -6.5422357,14.57068 c -0.046649,0.0755 -0.09888,0.14702 -0.1436608,0.22376 -0.03147,0.054 0.1963367,0.0838 0.1860365,0.0222 -0.017595,-0.10481 -0.026035,-0.14905 -0.042376,-0.24597 z m 13.9236979,6.08439 c -0.2236258,0.5643 -0.5677508,1.09664 -1.1782213,1.50533 0.9079653,0.17659 1.7077452,0.44257 2.2830631,0.84852 0.1405493,-0.0459 0.272804,-0.11448 0.4128956,-0.16174 -0.7336976,-0.43656 -1.2984269,-1.18703 -1.5177374,-2.19211 z" /></clipPath><clipPath
       clipPathUnits="userSpaceOnUse"
       id="clipPath127"><path
         id="path128"
         style="fill:#ff0000;fill-opacity:1;fill-rule:nonzero;stroke:none;stroke-width:0.264583"
         d="M -112.24796,-126.55676 V 185.58027 H 148.5754 V -126.55676 Z M 46.874626,83.305366 c 1.808208,0 3.616317,1.790192 3.616317,5.370214 v 5.232238 c 0.0627,2.146078 -0.111291,4.285324 -0.245462,6.424932 -0.136289,2.02485 -0.190703,4.04985 -0.104904,6.07715 0.192061,1.91863 0.527714,3.82569 0.876432,5.72213 0.304242,2.00862 0.765826,3.9858 1.180806,5.97276 0.41642,1.86142 0.967934,3.68703 1.421104,5.53972 0.25287,0.86996 0.117097,0.46495 0.396356,1.22008 0.186108,0.50319 0.223428,0.93098 0.309544,1.38441 4.425355,2.23251 2.751262,7.58433 -3.415813,6.40477 -3.104732,-0.59371 -6.256094,-0.76586 -9.40821,-0.85576 -3.81635,0.009 -7.630525,0.17062 -11.44478,0.28216 -1.12776,0.0333 -2.255837,0.0512 -3.383772,0.0754 -0.908129,0.5548 -1.966518,0.57724 -2.88613,0.0641 -0.03584,5.3e-4 -0.07165,0.002 -0.107487,0.003 -0.03142,5.3e-4 -0.0525,-0.009 -0.08268,-0.009 -0.32049,0.14732 -0.641715,0.29301 -0.962215,0.44028 -0.262501,0.12062 -0.518089,0.22111 -0.770496,0.31265 -0.876996,0.71434 -1.945576,0.85817 -2.911967,0.46405 -2.943479,-0.21613 -4.295167,-2.77187 -2.550232,-5.0524 -2.22e-4,-0.028 -0.0078,-0.0483 -0.0078,-0.0765 v -6.3469 c -0.014,-2.72977 -0.02254,-5.45666 0.112657,-8.18348 0.135676,-2.32533 0.233519,-4.6523 0.299723,-6.98046 0.046,-1.80459 0.06926,-3.60958 0.08527,-5.41465 -0.0258,-1.02998 0.04009,-2.054459 0.138491,-3.078883 0.0044,-0.04602 0.02191,-0.07504 0.02687,-0.120406 C 15.992671,97.193438 15.83363,95.70984 16.656834,94.418959 10.68718,93.678613 10.992573,87.32947 17.739972,87.32947 h 3.885033 5.177462 5.913334 c 1.498505,0.05847 2.984222,-0.03228 4.475178,-0.161748 1.252041,-0.18606 2.49041,-0.398671 3.697968,-0.782897 1.001961,-0.32245 0.492366,-0.161472 1.527553,-0.482142 0.510384,-0.158096 0.938446,-0.174371 1.394749,-0.23771 0.672338,-1.56932 1.86623,-2.35903 3.063377,-2.35903 z" /></clipPath><clipPath
       clipPathUnits="userSpaceOnUse"
       id="clipPath139"><path
         id="path140"
         style="fill:#ff0000;fill-opacity:1;fill-rule:nonzero;stroke:none;stroke-width:0.264583"
         d="M 97.168006,-339.91235 V -44.578961 H 346.46958 V -339.91235 Z m 14.326254,94.53944 c 1.76488,0.006 3.77708,1.78446 4.35839,5.31699 0.32911,1.99994 0.60308,4.00817 0.88884,6.01462 1.02527,-1.2445 2.22305,-1.83589 3.28403,-1.8402 2.05627,-0.008 3.59454,2.17302 2.34611,6.00222 -0.0197,0.0606 -0.0413,0.12046 -0.0615,0.18087 0.31698,0.91799 0.41757,2.09982 0.17777,3.54139 -0.2164,1.30085 -0.62011,2.56457 -1.0263,3.8163 -1.34183,4.13496 -4.42238,4.92072 -6.12882,3.38016 -1.93867,0.62007 -4.30523,-0.86149 -4.65605,-4.82762 -0.16862,-1.90632 -0.33891,-3.81275 -0.57464,-5.71231 -0.45291,-3.52522 -1.07719,-7.02592 -1.48208,-10.55543 -0.40801,-3.55672 1.10935,-5.32303 2.87424,-5.31699 z" /></clipPath><clipPath
       clipPathUnits="userSpaceOnUse"
       id="clipPath170"><path
         id="path171"
         style="fill:#ff0000;fill-opacity:1;fill-rule:nonzero;stroke:none;stroke-width:0.264583"
         d="M 88.756261,-299.52331 V 17.880567 H 410.91541 V -299.52331 Z M 363.24287,-220.863 c 0.90345,-0.008 1.97628,0.23856 3.18532,0.82218 3.39402,1.63831 6.49674,3.81197 9.57823,5.96449 3.22509,2.31448 6.37511,4.73585 9.43663,7.26261 1.87296,1.50796 3.75989,2.99047 5.54284,4.6054 1.76167,1.54167 3.42262,3.17283 4.95419,4.94388 1.19316,1.48882 2.47049,2.9032 3.73311,4.33204 1.08043,1.20022 2.09423,2.45631 2.94299,3.83026 0.82616,1.73429 1.48968,3.55524 1.93786,5.42344 1.67031,6.96258 -5.76469,8.62686 -7.05745,1.5844 -0.21127,-1.15093 -0.75649,-2.20765 -1.10278,-3.32021 -0.52141,-1.02678 -1.43909,-1.82952 -2.14042,-2.72904 -1.28368,-1.45272 -2.58234,-2.89095 -3.79617,-4.40386 -1.32794,-1.55409 -2.79577,-2.95456 -4.33049,-4.3031 -1.69875,-1.54267 -3.51006,-2.94207 -5.29113,-4.38733 -2.90883,-2.40671 -5.90918,-4.70386 -8.97258,-6.91017 -2.63017,-1.83963 -5.2759,-3.68008 -8.12096,-5.17746 -5.14813,-2.7095 -4.41412,-7.50431 -0.49919,-7.53753 z m -17.79788,14.64304 c 0.81097,-0.004 1.74701,0.16947 2.79104,0.57154 4.59168,1.76834 8.99191,4.00303 13.38523,6.20892 0.37082,0.1876 0.72266,0.4088 1.09088,0.601 0.4155,-0.11565 0.91038,-0.17484 1.48572,-0.16691 0.65984,0.009 1.42523,0.10601 2.29753,0.30644 2.35556,0.54125 4.30075,1.95473 6.16344,3.42614 -1.07651,-2.72314 0.34142,-4.84679 2.57866,-4.84311 1.28683,0.002 2.83083,0.70484 4.29689,2.3952 2.44776,2.82227 4.79147,5.70892 6.96391,8.74934 1.67944,2.35043 1.72027,4.43615 0.89969,5.70663 1.5344,1.02281 3.07247,2.04019 4.58422,3.09645 1.80695,1.14136 3.31928,2.58833 4.72631,4.18269 0.96689,1.16625 2.0869,2.25988 2.79262,3.61942 0.19542,0.37651 0.34592,0.77482 0.51882,1.1622 0.40259,1.55462 0.27207,0.76263 0.38706,2.3766 0.0637,0.89436 -0.044,1.45412 -0.26977,1.7756 0.11753,0.20753 0.23421,0.41574 0.35608,0.62063 3.66003,6.15399 -2.6856,9.845 -6.25234,3.63648 -0.83209,-1.44832 -1.62388,-2.92102 -2.35437,-4.42351 -0.84839,-1.84687 -1.70402,-3.69055 -2.54093,-5.54229 -0.078,-0.17246 -0.14713,-0.34128 -0.2119,-0.5085 -0.415,-0.33988 -0.82071,-0.68775 -1.29707,-0.97255 -2.35545,-1.64933 -4.79565,-3.17384 -7.14841,-4.82761 -3.27895,-2.27743 -6.61384,-4.47194 -9.95804,-6.65231 -4.00886,-2.60003 -8.08797,-5.09434 -12.3548,-7.25434 -4.08429,-2.05175 -8.1752,-4.1242 -12.42663,-5.81101 -5.61546,-2.22804 -4.88331,-7.4129 -0.50384,-7.43314 z m -225.34594,21.50101 c 3.05551,-0.16929 4.03285,3.80875 0.35915,7.72563 -1.17612,1.25397 -2.32696,2.59265 -3.45922,3.90674 -1.44062,1.57315 -2.77631,3.23874 -4.13618,4.88135 -1.14319,1.4697 -2.29319,2.93265 -3.46335,4.38113 -0.8717,1.2084 -1.86054,2.32105 -2.81017,3.46594 -0.80685,0.95022 -1.53489,1.96075 -2.32234,2.92695 -0.80594,1.00684 -1.52017,2.08004 -2.22519,3.15847 -0.20511,0.28103 -0.29499,0.51935 -0.30179,0.78909 -0.18033,7.15787 -8.659963,5.5717 -7.093102,-1.4149 0.267098,-1.19094 0.644303,-2.32859 1.347721,-3.34243 0.846108,-1.28566 1.701136,-2.56663 2.670121,-3.76463 0.806525,-0.98525 1.5446,-2.0236 2.37453,-2.98999 0.93132,-1.109 1.88214,-2.2008 2.7342,-3.37448 1.18855,-1.47082 2.35327,-2.95822 3.51813,-4.44779 1.39067,-1.67946 2.758,-3.38112 4.2292,-4.99142 1.55862,-1.80675 3.07205,-3.68494 4.92528,-5.20227 1.38505,-1.13397 2.63451,-1.65096 3.65301,-1.70739 z m 30.4953,3.26389 c 4.11093,0.0973 5.25218,4.81763 -0.0434,7.22591 -1.93926,0.8819 -3.80509,1.88928 -5.66115,2.92437 0.381,1.39299 -0.23993,3.26566 -2.43035,4.98678 -2.3369,1.83618 -4.71607,3.61825 -7.08845,5.40845 -2.84267,2.19936 -5.66068,4.43162 -8.41086,6.74584 -2.22216,1.84972 -4.46469,3.67225 -6.66213,5.55109 -1.67979,1.46598 -3.37138,2.91821 -5.06067,4.37337 -1.40892,1.30469 -2.82191,2.592 -4.12274,4.00648 -1.07181,1.16531 -2.16701,1.83049 -3.17087,2.10529 -0.88357,6.53411 -7.65001,5.87099 -7.10344,-1.07177 0.0596,-0.75732 0.12015,-1.51435 0.21239,-2.26859 0.18237,-1.4495 0.31176,-2.90657 0.57051,-4.34444 0.56059,-2.2771 1.55106,-4.35314 3.32124,-5.95312 1.46716,-1.38711 2.94871,-2.75912 4.4943,-4.05919 1.45063,-1.21601 2.91967,-2.40825 4.4111,-3.57394 2.2284,-1.75259 4.48249,-3.46927 6.81044,-5.08961 3.1083,-2.16601 6.29001,-4.21936 9.5343,-6.17689 3.28252,-2.04598 6.49796,-4.19789 9.78648,-6.23476 2.38673,-1.38679 4.82146,-2.65715 7.33495,-3.79873 1.22236,-0.55516 2.32966,-0.77899 3.27836,-0.75654 z" /></clipPath></defs><g
     id="layer1"
     transform="translate(-98.441026,279.82439)"><path
       style="fill:#000000"
       d="m 141.61071,-55.493876 c -7.07316,-1.082717 -13.30866,-5.464801 -16.57714,-11.649812 -1.30457,-2.468666 -2.30733,-5.752953 -2.30733,-7.55711 0,-0.790698 -0.34822,-1.426359 -1.26387,-2.307132 -3.51973,-3.385663 -6.73706,-9.040075 -7.76003,-13.638133 -0.47749,-2.146206 -0.54248,-3.592741 -0.34312,-7.636294 0.34956,-7.089673 0.34892,-7.189743 -0.0644,-9.989793 -0.94212,-6.38179 1.73385,-15.21024 6.61172,-21.81318 0.80391,-1.08821 2.6521,-3.16901 4.10709,-4.624 l 2.64544,-2.64544 -1.35543,-1.47889 c -10.64839,-11.61835 -15.81071,-27.87718 -14.59166,-45.95679 0.74189,-11.00298 3.00765,-19.45144 7.82883,-29.19183 0.94382,-1.90684 1.71604,-3.57807 1.71604,-3.71386 0,-0.13579 -1.06806,-0.71219 -2.37346,-1.28089 -12.72154,-5.5421 -20.037348,-19.50222 -19.404402,-37.02773 0.200925,-5.56337 0.708347,-7.6798 2.466572,-10.28791 2.38365,-3.53587 6.41315,-4.27143 13.40667,-2.44732 1.8942,0.49406 3.95795,0.89816 4.58611,0.89801 1.6454,-4e-4 4.83475,-1.652 9.06217,-4.69283 6.84962,-4.92701 9.77386,-6.34753 14.4784,-7.03322 7.19313,-1.04841 13.66446,1.66046 20.12354,8.42363 l 2.6581,2.78325 3.42426,-1.49994 c 5.89886,-2.58389 13.66102,-4.58772 20.79077,-5.3672 11.80151,-1.29024 26.71508,0.81781 38.00104,5.37148 l 2.97395,1.19993 1.91478,-2.25703 c 7.32921,-8.63927 16.42507,-11.06237 26.20266,-6.9803 1.24893,0.52141 4.91354,2.68809 8.14358,4.81484 5.92104,3.89858 8.61091,5.23767 10.52101,5.23767 0.57223,0 2.64288,-0.41281 4.60146,-0.91736 7.08569,-1.82534 11.54817,-0.77344 13.81427,3.25633 1.65268,2.93893 2.15205,6.15145 1.93961,12.47769 -0.31464,9.36955 -2.5624,16.84315 -7.20529,23.95702 -1.97463,3.02554 -6.94929,7.81863 -9.87651,9.51602 -1.4067,0.8157 -2.55764,1.55532 -2.55764,1.6436 0,0.0883 0.94526,2.10535 2.10058,4.48236 3.57993,7.36555 5.94597,14.84025 7.28644,23.01906 0.96011,5.85812 0.87889,15.85032 -0.1778,21.87222 -2.28969,13.04859 -8.88669,25.18552 -18.23932,33.55609 l -2.58648,2.31488 1.54504,3.07636 c 2.61141,5.19964 3.37502,7.35688 5.25693,14.85118 l 1.816,7.23186 1.94458,0.2415 c 1.06951,0.13283 2.40505,0.41658 2.96786,0.63056 0.56281,0.21398 1.14399,0.2641 1.29151,0.11136 0.14752,-0.15273 0.4712,-1.27115 0.71928,-2.48538 0.87274,-4.27163 -0.75115,-9.32324 -3.90192,-12.13814 -0.88561,-0.7912 -2.04676,-1.82958 -2.58033,-2.30751 -2.13072,-1.90851 -0.71313,-5.04571 2.27702,-5.03918 3.95953,0.009 8.3561,4.5928 10.14709,10.58002 l 0.58041,1.94028 2.63253,0.21582 c 3.12626,0.25631 5.04791,1.13599 7.21459,3.30267 4.69301,4.69301 5.29088,11.50379 1.65691,18.87507 -4.33559,8.794469 -13.81083,11.922807 -21.1994,6.999175 -0.84784,-0.564991 -1.56222,-0.980115 -1.5875,-0.922497 -1.31424,2.995405 -3.74726,7.233132 -4.92115,8.571426 -1.22479,1.396325 -1.59704,2.131452 -1.7864,3.527777 -0.47012,3.466603 -1.0157,5.334505 -2.42143,8.290278 -2.54162,5.344165 -7.70111,9.545703 -13.67114,11.13284 -3.06453,0.814704 -8.29356,0.819056 -11.28889,0.0094 -3.93368,-1.063302 -7.60959,-3.229601 -10.66528,-6.28529 -2.54853,-2.548529 -2.84519,-2.741085 -4.23958,-2.751796 -0.82462,-0.0063 -2.35661,-0.307517 -3.40442,-0.669296 l -1.90511,-0.65778 -2.32822,1.430398 c -5.01505,3.081111 -11.37822,5.408049 -17.63317,6.448246 -2.90729,0.483481 -4.90937,0.568191 -9.70139,0.410475 -9.86956,-0.324828 -16.8822,-2.27066 -24.40918,-6.772944 l -1.08496,-0.648973 -1.70407,1.172434 c -0.93724,0.644838 -2.47579,1.465661 -3.41899,1.82405 -0.9432,0.358389 -2.59298,1.366813 -3.66618,2.240944 -2.48475,2.023854 -4.73666,3.160306 -7.98171,4.028054 -3.24782,0.868488 -6.56225,1.121089 -9.27049,0.706528 z m 7.41155,-5.109242 c 3.76698,-0.980915 6.83086,-3.356042 8.34984,-6.472816 0.61551,-1.262962 0.79278,-2.251134 0.79958,-4.457161 l 0.009,-2.834433 -2.21324,-3.094776 c -1.21727,-1.702126 -2.71388,-3.998505 -3.32579,-5.103065 -1.94046,-3.502724 -2.33574,-3.898414 -5.33459,-5.340142 -3.85426,-1.852978 -8.13708,-2.923788 -11.90342,-2.976146 -2.7807,-0.03865 -3.15724,0.04234 -4.72507,1.016331 -4.30166,2.67234 -5.42382,9.420379 -2.81045,16.900422 2.19086,6.270731 6.83274,10.887434 12.49728,12.429508 2.23394,0.608151 6.18015,0.577281 8.65713,-0.06772 z m 103.48575,0.173605 c 5.94688,-1.371 11.07369,-6.810285 12.94804,-13.737203 0.93957,-3.472311 0.8481,-8.758115 -0.19805,-11.444424 -1.01111,-2.596343 -3.45747,-5.151188 -5.51853,-5.763255 -5.09597,-1.513338 -13.84545,0.847417 -18.32952,4.945613 -2.31248,2.113469 -5.34343,6.780173 -6.23644,9.602138 -0.96977,3.064528 -0.73398,7.455836 0.53285,9.923628 2.6037,5.072023 10.19456,7.996706 16.80165,6.473503 z m -50.58316,-2.618623 c 4.92748,-0.807406 8.13196,-1.811128 12.34722,-3.867454 8.22404,-4.011921 14.86601,-10.603709 19.03662,-18.892792 1.33731,-2.657897 2.65921,-6.315518 2.65921,-7.357882 0,-0.203569 -0.59531,-0.646763 -1.32291,-0.984876 -0.72761,-0.338112 -2.30556,-1.607177 -3.50657,-2.820143 l -2.18365,-2.205393 -0.4194,1.270784 c -0.23067,0.698931 -1.08701,1.938398 -1.90298,2.75437 -4.68295,4.682951 -12.18393,1.507835 -12.18393,-5.157378 0,-5.54579 5.69683,-9.01667 10.62036,-6.47061 l 1.02131,0.52814 v -2.66162 c 0,-2.64696 -0.005,-2.66042 -0.86259,-2.44512 -1.27088,0.31897 -4.2407,-0.42115 -5.78158,-1.44085 -2.03785,-1.34859 -3.04841,-3.39091 -3.05324,-6.17053 -0.003,-1.85774 0.17596,-2.59913 0.94385,-3.90532 1.84722,-3.1421 5.1511,-4.46577 8.75612,-3.50804 1.1511,0.30581 2.09053,0.94004 3.43204,2.31707 l 1.8471,1.89602 0.97512,-0.84364 0.97512,-0.84363 -0.88195,-1.6294 c -4.19018,-7.74138 -13.85558,-16.23779 -22.24418,-19.55381 -12.44805,-4.92072 -24.68735,-4.45489 -36.31692,1.38224 -3.576,1.79487 -6.59273,4.07702 -10.44712,7.90326 -3.06939,3.04697 -6.79795,8.13391 -7.8844,10.75682 -0.44358,1.0709 -0.42716,1.20195 0.19197,1.53199 0.37238,0.1985 1.49133,1.18888 2.48656,2.20084 5.0175,5.10184 6.18889,13.9552 2.69562,20.37349 -1.08367,1.991057 -4.77266,5.583208 -6.79135,6.613067 l -1.38122,0.704645 0.51976,1.854281 c 0.89349,3.187538 3.90156,8.754958 6.85498,12.68737 6.58878,8.772818 15.1967,13.996474 26.27881,15.947113 3.77532,0.664521 11.57899,0.683117 15.52222,0.03699 z m -9.1238,-6.696445 c -3.86695,-1.37853 -5.88592,-6.105287 -4.26492,-9.984901 2.70335,-6.470029 12.6078,-5.602144 14.25132,1.248782 1.39146,5.800262 -4.28709,10.767865 -9.9864,8.736119 z m 4.19237,-5.593757 c 2.31103,-2.311033 1.97023,-5.280156 -0.70732,-6.162334 -1.6245,-0.535228 -2.80113,-0.180546 -4.27144,1.287586 -1.19866,1.196878 -1.64086,2.383311 -1.36182,3.653766 0.3581,1.630434 1.45275,2.392604 3.43631,2.392604 1.49202,0 1.89536,-0.162711 2.90427,-1.171622 z m 15.89075,-3.794215 c -2.91977,-2.563585 -1.3854,-7.028607 2.41531,-7.028607 1.68482,0 2.81094,0.670655 3.56072,2.120563 1.11327,2.152836 0.45642,4.406164 -1.59341,5.466173 -1.61658,0.835966 -2.99473,0.660457 -4.38262,-0.558129 z m 3.21842,-3.500829 c 0.57476,-0.725165 -0.24972,-1.568499 -1.22943,-1.257551 -0.91756,0.291224 -1.22784,1.121589 -0.75161,2.01144 0.3207,0.599227 0.46345,0.634446 0.96887,0.239027 0.32602,-0.255062 0.7815,-0.701875 1.01217,-0.992916 z m -47.46522,1.707856 c -2.98603,-1.478044 -4.72664,-5.279407 -3.90731,-8.533277 0.89973,-3.573142 3.66864,-5.850926 7.13182,-5.866831 8.10418,-0.03722 10.60364,10.759468 3.35411,14.488449 -1.79525,0.923434 -4.61096,0.885624 -6.57862,-0.08834 z m 4.65693,-5.234178 c 1.91691,-1.683076 2.36131,-4.815138 0.82363,-5.804882 -2.2193,-1.428474 -5.06275,-0.709674 -6.29707,1.591847 -0.93995,1.752635 -0.82358,3.028555 0.38658,4.238716 1.44782,1.44782 3.41997,1.437864 5.08686,-0.02568 z m 48.76176,0.02383 c -1.18807,-1.312799 0.29036,-3.012715 1.88018,-2.161865 0.38225,0.20457 0.79823,0.697233 0.92442,1.094805 0.49917,1.572756 -1.61798,2.378263 -2.8046,1.06706 z m -35.74163,-0.611697 c -0.7824,-0.315708 -0.47068,-1.317196 0.90744,-2.915337 0.95395,-1.106245 1.51934,-1.495154 1.93933,-1.333988 0.89973,0.34526 0.71471,1.373888 -0.54101,3.007723 -1.1088,1.442673 -1.40807,1.603826 -2.30576,1.241602 z m -27.3222,-4.189115 c -0.33654,-0.738607 -0.30324,-0.999519 0.19057,-1.493326 0.46161,-0.461608 0.73792,-0.510454 1.20909,-0.21374 0.86397,0.54408 0.97611,1.591377 0.2289,2.137752 -0.89815,0.656739 -1.16529,0.586091 -1.62856,-0.430686 z m 44.94345,0.118865 c -0.8194,-0.819399 -0.24406,-2.398889 0.87381,-2.398889 0.24777,0 0.71105,0.39767 1.02951,0.88371 0.46662,0.712145 0.49405,0.986102 0.14133,1.411111 -0.5275,0.635603 -1.46538,0.683338 -2.04465,0.104068 z m -19.82464,-1.867956 c -0.62227,-0.749792 0.42562,-2.294822 1.55642,-2.294822 1.19033,0 1.44406,0.997945 0.50726,1.99512 -0.90054,0.958584 -1.45056,1.038461 -2.06368,0.299702 z m 7.02138,-4.526766 c -4.05338,-2.139932 -5.14943,-8.028567 -2.15643,-11.585547 1.75521,-2.08594 5.739,-3.04857 8.42798,-2.0365 2.81644,1.06004 4.95705,4.87278 4.48979,7.99696 -0.73962,4.945082 -6.42262,7.915663 -10.76134,5.625087 z m 4.29693,-4.569607 c 1.59823,-1.07705 2.1474,-2.2191 1.96323,-4.08272 -0.18741,-1.8964 -0.77952,-2.52014 -2.62764,-2.76802 -4.41643,-0.59237 -6.74269,5.67425 -2.71787,7.32157 1.207,0.49402 2.14411,0.36356 3.38228,-0.47083 z m -22.03741,-3.08836 c -1.44324,-0.43213 -2.63506,-1.66983 -3.09899,-3.21832 -0.32889,-1.09773 -0.29194,-1.61332 0.20979,-2.92708 1.50627,-3.94411 6.54076,-4.51627 8.71952,-0.99095 1.57268,2.54464 -0.10843,6.28808 -3.21093,7.14997 -1.41266,0.39245 -1.26051,0.39324 -2.61939,-0.0136 z m 2.07489,-5.63265 c 0.70624,-0.78038 0.43335,-1.41077 -0.61071,-1.41077 -1.01334,0 -2.03543,0.99256 -2.03543,1.97661 0,0.73958 0.0878,0.77832 1.02408,0.45192 0.56324,-0.19635 1.29317,-0.65434 1.62206,-1.01776 z m 30.77217,-5.73229 c -1.35098,-1.02151 -1.35945,-3.77065 -0.0147,-4.7625 0.91905,-0.67786 2.83493,-0.53852 3.63803,0.26458 1.07884,1.07884 0.96195,3.27489 -0.22397,4.20773 -1.04663,0.82329 -2.52719,0.94966 -3.39938,0.29018 z m 2.07818,-2.18797 c 0.10812,-0.28175 0.089,-0.68633 -0.0425,-0.89908 -0.34477,-0.55785 -1.24733,0.26207 -0.99947,0.90798 0.2495,0.65019 0.79081,0.64557 1.04195,-0.009 z m -22.3289,-1.06081 c -3.30754,-1.43871 -3.27596,-6.40375 0.0496,-7.79325 1.18053,-0.49326 1.46877,-0.4708 3.44845,0.26869 2.26571,0.84632 3.16109,4.62874 1.51594,6.40389 -1.49548,1.61365 -3.07103,1.96581 -5.01397,1.12067 z m 1.92335,-3.91498 c 1.26918,-0.88896 0.82885,-1.92027 -0.81989,-1.92027 -0.6179,0 -1.33437,1.3053 -1.08013,1.96784 0.25054,0.65289 0.92405,0.63603 1.90002,-0.0476 z m -22.36384,-0.12573 c -2.4707,-1.12199 -4.13448,-3.8328 -4.13176,-6.7319 0.002,-2.28486 0.59245,-3.55166 2.52836,-5.42586 2.98858,-2.89332 7.30338,-2.79628 10.1613,0.22851 2.55905,2.70847 2.81015,6.33375 0.65807,9.50082 -1.82467,2.68523 -6.14411,3.82342 -9.21597,2.42843 z m 3.7108,-4.82058 c 3.09115,-1.23683 3.37748,-5.67413 0.41916,-6.49591 -1.72002,-0.47779 -2.05396,-0.4517 -3.24832,0.25383 -0.94113,0.55594 -2.42819,2.93479 -2.42819,3.88438 0,0.68463 1.75877,2.50995 2.56968,2.66691 0.42994,0.0832 0.89756,0.17292 1.03915,0.19934 0.1416,0.0264 0.88343,-0.20242 1.64852,-0.50855 z m 27.02182,0.59333 c -2.79554,-1.29429 -4.05695,-3.34645 -4.05695,-6.60014 0,-3.49919 2.0198,-6.1075 5.26907,-6.80435 6.35915,-1.36379 11.04379,4.66811 8.05315,10.36914 -1.69625,3.23354 -5.87812,4.60355 -9.26527,3.03535 z m 3.71571,-4.45243 c 2.00955,-1.03918 2.81767,-4.39675 1.39956,-5.81486 -0.8889,-0.8889 -3.5216,-0.95702 -4.79294,-0.124 -4.02016,2.63411 -0.87166,8.1444 3.39338,5.93886 z m 13.40768,-3.67264 c -0.42697,-0.7978 -0.17654,-1.65146 0.56833,-1.93729 0.74569,-0.28615 1.88744,0.40832 1.88744,1.14804 0,1.41841 -1.80806,1.9995 -2.45577,0.78925 z m -31.79081,-2.11508 c -2.60421,-2.60421 -0.10915,-7.00551 3.51956,-6.20852 1.94509,0.42722 3.14319,2.65955 2.48985,4.63918 -0.88226,2.67329 -4.07237,3.50637 -6.00941,1.56934 z m 3.48602,-3.15682 c -0.0826,-0.71265 -0.30271,-0.92726 -0.95099,-0.92726 -0.94865,0 -1.66424,0.87197 -1.36199,1.65963 0.13812,0.35993 0.54282,0.47048 1.31016,0.35785 0.95843,-0.14067 1.0956,-0.2898 1.00282,-1.09022 z m 42.40223,71.56557 c 0,-0.612342 -0.0927,-0.650653 -0.68274,-0.282169 -0.73826,0.461053 -0.64503,0.990714 0.17439,0.990714 0.27959,0 0.50835,-0.318845 0.50835,-0.708545 z M 123.07902,-84.229696 c 0,-1.105069 1.38727,-4.428754 2.48862,-5.962362 0.62705,-0.87314 1.76001,-2.017136 2.51769,-2.542213 l 1.37761,-0.954685 -2.01685,-1.082216 c -1.10926,-0.595219 -3.24275,-2.235459 -4.74108,-3.644978 -3.12345,-2.93832 -2.96324,-3.02691 -3.34203,1.848046 -0.27928,3.594394 0.48583,7.674334 2.00125,10.671527 1.08548,2.146884 1.71479,2.758608 1.71479,1.666881 z m 147.93836,-2.372436 c 1.34945,-3.271726 1.68981,-4.957197 1.68981,-8.368201 0,-3.210138 -0.4613,-6.460817 -1.23325,-8.690557 l -0.45273,-1.30767 -1.06621,1.73078 c -1.54196,2.50308 -4.42631,5.533117 -6.71007,7.048989 l -1.98294,1.316204 1.48166,0.755888 c 0.81492,0.415739 2.13191,1.383622 2.92665,2.150853 1.42559,1.376234 3.81149,5.721303 3.81149,6.941261 0,1.245472 0.64415,0.583724 1.53559,-1.577547 z m 18.39938,-5.508618 c 1.91328,-0.869186 3.70114,-2.951523 3.70114,-4.310759 0,-2.259129 -1.72538,-4.203541 -3.73002,-4.203541 -2.33124,0 -3.17045,0.60253 -4.8391,3.474365 -0.87047,1.498136 -1.83853,2.936216 -2.15123,3.195734 -0.84517,0.701434 -0.71695,0.943822 0.93077,1.759425 1.84606,0.913786 4.1917,0.946447 6.08844,0.08478 z m -142.79553,-2.032378 c 0.71253,-0.190985 0.64661,-0.28348 -0.68793,-0.965322 -2.22064,-1.134564 -2.05373,-1.503016 0.7888,-1.741325 8.5663,-0.718167 13.95524,-8.213935 11.8403,-16.469335 -1.105,-4.31326 -3.51492,-6.9698 -8.49588,-9.3653 -3.2963,-1.58529 -6.01942,-2.28311 -10.05417,-2.57644 -3.10703,-0.22589 -3.28772,-0.2795 -2.47815,-0.73526 0.48027,-0.27039 1.75027,-0.58862 2.82222,-0.70718 l 1.94899,-0.21557 -2.11667,-1.35958 c -1.16416,-0.74776 -3.16421,-2.20097 -4.44454,-3.22934 l -2.32789,-1.86977 -1.90545,1.49819 c -4.18916,3.2938 -8.27672,8.77461 -10.27937,13.78313 -1.01867,2.54765 -1.13289,3.20154 -1.14151,6.53507 -0.009,3.41652 0.0749,3.88231 1.07763,5.99823 2.59047,5.46611 9.04597,9.638861 17.20136,11.118736 2.70632,0.491091 6.96381,0.646416 8.25226,0.301066 z m 105.51748,-0.680899 c 1.29251,-0.311437 3.85815,-1.302284 5.70141,-2.201882 2.67051,-1.303331 3.89555,-2.17553 6.02979,-4.293081 3.70239,-3.67342 5.2591,-7.27121 5.2591,-12.15457 0,-2.69033 -1.52906,-8.35463 -3.19777,-11.84593 -1.51836,-3.17673 -3.86792,-7.04731 -4.28107,-7.05247 -0.13579,-0.002 -0.95334,0.47369 -1.81677,1.05641 -0.86343,0.58272 -3.13357,1.87002 -5.04477,2.86068 -1.91119,0.99065 -3.5366,1.85881 -3.61202,1.92925 -0.0754,0.0704 0.26635,0.28146 0.75949,0.46894 1.59943,0.60811 1.48823,1.09981 -0.19651,0.86889 -5.14724,-0.7055 -14.84583,2.44896 -18.36567,5.97343 -3.61104,3.6158 -4.73523,10.1484 -2.56295,14.89328 2.05956,4.498674 6.9701,7.558203 12.15369,7.572401 1.86681,0.0051 1.82564,0.555087 -0.12387,1.654588 l -1.36255,0.768457 1.38997,0.164919 c 2.2516,0.267151 6.74249,-0.05418 9.2705,-0.663312 z m 26.73195,-3.066993 1.35708,-1.499306 -1.40422,-0.176388 c -1.28344,-0.161216 -1.40423,-0.266802 -1.40423,-1.227436 0,-0.80004 0.27056,-1.22127 1.13294,-1.76388 0.62311,-0.39207 1.13905,-0.81876 1.14652,-0.9482 0.0179,-0.31087 -3.48847,-1.05691 -3.86724,-0.82281 -0.16175,0.1 -0.15938,0.69645 0.005,1.32551 0.16465,0.62907 0.49079,2.37407 0.72475,3.877788 0.23396,1.503715 0.54388,2.734027 0.68871,2.734027 0.14483,0 0.87401,-0.674687 1.62041,-1.499305 z m -56.79243,-0.235768 c 1.16118,-0.527292 1.57278,-0.972378 2.03178,-2.197112 0.79799,-2.1292 0.39608,-3.46031 -1.29778,-4.29825 -0.878,-0.43434 -1.65257,-0.56943 -2.36623,-0.41269 -1.35486,0.29758 -3.0522,1.98779 -3.34782,3.33378 -0.30852,1.40467 0.66908,3.40806 1.87937,3.851378 1.31128,0.480307 1.46251,0.466792 3.10068,-0.277106 z m 73.1538,-6.036592 c -0.29598,-1.2338 -0.85443,-2.25364 -1.74902,-3.19404 -1.21974,-1.28221 -1.45458,-1.38152 -3.26722,-1.38152 h -1.95302 l -0.39466,1.56733 c -0.21706,0.86203 -0.39466,1.65578 -0.39466,1.76389 0,0.10811 0.79885,0.19656 1.77522,0.19656 2.17981,0 3.72382,0.62923 5.07823,2.06954 0.56794,0.60396 1.10177,1.02895 1.18628,0.94443 0.0845,-0.0845 -0.042,-0.9693 -0.28115,-1.96619 z m -69.67855,-13.38719 c 0.77896,-0.81306 1.04141,-1.47181 1.16102,-2.91423 0.19698,-2.37526 -0.52888,-3.40327 -2.59904,-3.68094 -1.81336,-0.24322 -3.34066,0.5035 -4.34128,2.12253 -1.06163,1.71776 -0.96299,3.23739 0.29159,4.49197 0.85856,0.85856 1.31998,1.03119 2.75622,1.03119 1.45334,0 1.88354,-0.16545 2.73149,-1.05052 z m 17.35711,-9.6691 c 5.07503,-1.4494 8.18868,-2.71469 11.62131,-4.72253 17.96098,-10.50591 28.12866,-30.41478 26.30318,-51.50306 -1.06231,-12.27191 -5.21859,-24.55108 -12.75147,-37.67247 -5.97471,-10.40723 -14.93158,-21.48392 -23.87146,-29.52112 -2.40003,-2.15769 -4.36369,-4.02377 -4.36369,-4.14684 0,-0.12307 1.14441,-1.46576 2.54314,-2.98374 4.4841,-4.86642 5.74266,-4.77121 8.45664,0.63972 2.31301,4.61151 3.66398,6.66292 5.92315,8.99415 2.01245,2.07664 1.90443,2.06288 -1.25758,-0.1602 -2.58429,-1.8169 -5.35472,-4.77727 -6.9203,-7.39476 -0.63183,-1.05634 -1.27277,-1.92063 -1.42432,-1.92063 -0.15155,0 -0.86852,0.54838 -1.59327,1.21861 l -1.31774,1.21862 5.50663,5.57236 c 8.22413,8.3223 12.6588,13.73899 18.16688,22.18979 1.50435,2.30805 2.7821,4.25867 2.83946,4.33471 0.23941,0.31741 4.54951,-0.84438 6.40609,-1.72678 7.15169,-3.39904 12.20181,-13.2946 13.492,-26.43715 0.62098,-6.32562 -0.0317,-9.37847 -2.19671,-10.27526 -0.77337,-0.32034 -1.85522,-0.27539 -5.07057,0.21066 -7.7112,1.16566 -11.73853,0.22158 -18.36168,-4.30431 -9.61808,-6.57246 -11.45789,-7.35703 -16.66807,-7.10792 -2.52183,0.12057 -3.49668,0.34732 -5.47681,1.27394 -2.97188,1.39071 -6.32145,4.65873 -9.02541,8.80565 -1.04373,1.60073 -1.92907,2.91042 -1.96741,2.91042 -0.0383,0 -1.77485,-0.79824 -3.8589,-1.77386 -12.45724,-5.8317 -25.7695,-7.857 -39.22602,-5.96778 -8.25794,1.15937 -14.84422,3.04876 -21.60476,6.1977 -1.82309,0.84916 -3.35697,1.54394 -3.40861,1.54394 -0.0516,0 -0.83855,-1.04354 -1.74868,-2.31898 -5.5695,-7.80495 -10.92515,-11.12015 -17.1884,-10.63979 -3.42327,0.26255 -5.93809,1.26584 -9.48685,3.78478 -6.5926,4.67948 -8.95689,6.15378 -11.19203,6.97904 -3.21116,1.18562 -7.74286,1.42295 -12.12043,0.63475 -3.50969,-0.63193 -4.53815,-0.49914 -5.62256,0.72596 -2.94703,3.32938 -0.55102,19.91271 3.97701,27.52585 1.54086,2.59071 4.88186,6.18768 6.78123,7.30079 1.80811,1.05962 5.10378,2.17872 7.3605,2.49937 l 1.66145,0.23607 1.28913,-2.55987 c 4.25166,-8.44266 13.1799,-19.6619 21.91381,-27.53693 l 2.18417,-1.96938 -1.7183,-1.44889 c -0.94506,-0.79689 -1.79956,-1.44888 -1.89889,-1.44888 -0.0993,0 -0.69773,0.9702 -1.32976,2.15601 -0.63202,1.18581 -2.26852,3.35584 -3.63665,4.82229 -3.91146,4.19253 -7.63786,6.60313 -4.07313,2.63489 1.24523,-1.38619 2.55894,-3.53645 4.14896,-6.79097 2.58908,-5.29944 3.34536,-6.35 4.57122,-6.35 1.38918,0 2.60628,0.85096 5.54637,3.87789 l 2.80317,2.88595 -2.09761,1.78538 c -3.55864,3.02893 -10.76644,10.48974 -13.89363,14.38133 -4.37562,5.44519 -8.13449,11.37985 -11.61894,18.34445 -4.98678,9.96739 -8.04679,19.36753 -9.93359,30.51527 -1.39732,8.25576 -0.97749,18.45492 1.11088,26.9875 3.65584,14.93682 13.96449,27.60474 28.41602,34.91939 l 3.42928,1.73573 1.37682,-2.54076 c 2.07039,-3.82068 4.28318,-6.78916 7.62522,-10.22935 13.43853,-13.83317 35.94034,-17.53838 54.11974,-8.91151 8.29357,3.93564 17.2801,12.31137 21.51695,20.05448 0.90868,1.66067 1.26195,2.02246 1.83141,1.87551 0.38806,-0.10013 2.63914,-0.73429 5.00241,-1.40923 z m -52.53793,-34.26471 c -6.83477,-1.2937 -11.98831,-4.83798 -15.64215,-10.75767 l -1.29023,-2.09034 -1.46765,1.20262 c -2.48378,2.03527 -4.65594,2.45953 -7.18415,1.40317 -2.50204,-1.04542 -3.96224,-3.0219 -3.96224,-5.36314 0,-1.54619 0.49155,-2.20475 1.64565,-2.20475 0.87789,0 1.52316,0.91379 1.54057,2.18167 0.0133,0.96943 0.58207,1.78268 1.64128,2.34682 1.37582,0.73276 2.57723,0.48456 3.85904,-0.79725 l 1.20765,-1.20765 -1.22186,-2.23193 c -2.52983,-4.62116 -2.40084,-10.03519 0.34509,-14.48395 1.24843,-2.02263 1.26224,-2.08438 0.66865,-2.99032 -2.38894,-3.64598 -6.12975,-5.4849 -9.65861,-4.74803 -2.65628,0.55468 -4.26986,1.79873 -6.41069,4.9426 -1.01142,1.4853 -2.17176,2.97483 -2.57855,3.31006 -1.87977,1.54914 -4.79655,0.10849 -4.79655,-2.3691 0,-1.384 1.22673,-4.07429 2.60434,-5.71149 l 0.87954,-1.04528 -0.68128,-1.03349 c -0.37471,-0.56842 -0.68233,-1.6288 -0.68361,-2.3564 -0.006,-3.15664 3.3477,-3.67599 5.64296,-0.87399 0.51194,0.62496 0.59009,0.62006 2.29305,-0.14387 2.61999,-1.1753 7.44115,-1.33521 10.05333,-0.33346 2.56467,0.98354 5.06949,2.86467 6.45802,4.84999 0.61969,0.88603 1.30669,1.86247 1.52667,2.16986 0.35553,0.4968 0.63871,0.43165 2.54871,-0.58637 9.53679,-5.08306 23.92607,-5.22273 33.74021,-0.32752 1.16417,0.58068 2.64303,1.45119 3.28636,1.93446 0.64334,0.48327 1.21451,0.82296 1.26927,0.75486 0.0548,-0.0681 0.4809,-0.91052 0.94697,-1.87204 1.1096,-2.28914 4.2872,-5.49209 6.43931,-6.49068 3.56858,-1.65584 7.23569,-1.76622 11.08578,-0.33367 l 1.86103,0.69245 1.23805,-1.08703 c 3.25844,-2.86095 6.95456,0.30564 4.39603,3.76623 l -0.83913,1.135 1.07272,1.50379 c 1.66233,2.33032 2.22833,3.64073 2.22833,5.15908 0,1.12718 -0.2098,1.57381 -1.0854,2.31057 -2.01228,1.69322 -3.6159,0.97069 -5.79039,-2.60891 -2.15455,-3.54677 -5.21055,-5.65 -8.20945,-5.65 -2.87246,0 -6.44649,2.36505 -8.56642,5.66868 l -1.15449,1.79911 0.75871,1.56164 c 1.80921,3.72392 1.74866,9.19261 -0.1435,12.95982 -0.47095,0.93765 -0.85628,1.83923 -0.85628,2.0035 0,0.16427 0.53468,0.8656 1.18818,1.55851 2.12686,2.25513 4.75962,1.43886 5.3098,-1.64628 0.27656,-1.55081 1.24679,-2.25514 2.3173,-1.68222 2.16143,1.15677 0.56554,5.5052 -2.57913,7.02751 -2.63091,1.27361 -5.05504,0.83868 -7.42911,-1.33291 -0.73536,-0.67265 -1.06329,-0.79994 -1.18549,-0.46019 -0.46997,1.30668 -3.84717,5.8439 -5.36668,7.21007 -5.00908,4.5036 -13.93481,6.75621 -21.26956,5.36786 z m 9.43552,-4.41485 c 3.67138,-0.51902 8.45495,-3.11762 7.49891,-4.07366 -0.13048,-0.13049 -1.55362,0.0375 -3.16252,0.37318 -5.3125,1.10859 -12.97075,1.08432 -18.68842,-0.0592 -0.8322,-0.16644 -0.9938,-0.0808 -0.9938,0.52687 0,2.53125 8.15546,4.24932 15.34583,3.23282 z m 4.7625,-7.04357 c 5.96804,-1.55958 10.40521,-4.73602 12.31385,-8.81511 1.26081,-2.69457 1.28967,-6.47746 0.0683,-8.95859 -3.54961,-7.21105 -15.02815,-11.2642 -27.5609,-9.73195 -8.89474,1.08747 -14.4355,4.26006 -16.99601,9.73176 -3.28032,7.00987 0.91932,14.32733 9.89382,17.239 3.88069,1.25904 6.73995,1.57407 13.10867,1.44429 4.94974,-0.10086 6.76807,-0.28115 9.17222,-0.9094 z m -20.00275,-8.55655 c -1.05247,-1.15551 -1.39423,-1.98539 -1.65189,-4.01121 -0.62647,-4.92557 2.12467,-8.76796 5.12727,-7.16102 1.71269,0.91661 2.64803,5.87551 1.71913,9.11439 -0.78148,2.72487 -3.57793,3.8327 -5.19451,2.05784 z m 16.20719,0 c -1.13146,-1.20784 -1.5353,-2.6332 -1.5353,-5.4188 0,-5.30949 2.71832,-7.75944 5.51092,-4.96683 2.5887,2.58869 2.50159,8.67373 -0.15355,10.72719 -0.94293,0.72925 -2.99038,0.54628 -3.82207,-0.34156 z"
       id="path172" /></g></svg>
