<?xml version="1.0" encoding="UTF-8" standalone="no"?>
<!-- Created with Inkscape (http://www.inkscape.org/) -->

<svg
   width="248.85451mm"
   height="294.80399mm"
   viewBox="0 0 248.85451 294.80395"
   version="1.1"
   id="svg1"
   xml:space="preserve"
   xmlns="http://www.w3.org/2000/svg"
   xmlns:svg="http://www.w3.org/2000/svg"><defs
     id="defs1"><clipPath
       clipPathUnits="userSpaceOnUse"
       id="clipPath6"><path
         id="path7"
         style="fill:#ff0000;fill-opacity:1;fill-rule:nonzero;stroke:none;stroke-width:0.264583"
         d="M -175.07778,-16.057127 V 287.55793 H 124.54631 V -16.057127 Z m 132.7459,202.572647 c 0.210643,0.005 0.427212,0.0169 0.650089,0.0367 2.23823,0.19855 4.475655,0.4031 6.717938,0.55346 1.973313,0.11308 0.986628,0.0436 2.958475,0.20825 3.181295,0.26563 4.740125,1.85116 4.950601,3.46956 4.949923,1.63749 3.796379,7.35609 -2.592089,6.81354 -3.228716,-0.27422 -1.569593,-0.1301 -4.979024,-0.43357 -4.228209,-0.39317 -8.460616,-0.76265 -12.666927,-1.35341 -6.647387,-0.93358 -5.930551,-7.21034 0.03204,-7.20421 0.04685,5e-5 0.0972,0.004 0.144695,0.005 0.687229,-1.21692 2.304132,-2.15435 4.784204,-2.09548 z" /></clipPath><clipPath
       clipPathUnits="userSpaceOnUse"
       id="clipPath76"><path
         id="path77"
         style="fill:#ff0000;fill-opacity:1;fill-rule:nonzero;stroke:none;stroke-width:0.264583"
         d="M -133.83107,-122.52355 V 173.82063 H 122.97289 V -122.52355 Z M 13.574404,98.948202 c 2.788179,0.0507 4.135003,2.063798 3.398242,4.077268 0.199805,0.45372 0.374906,0.96736 0.517797,1.54461 1.07913,4.35948 0.671079,8.891 0.311608,13.31495 -0.351859,3.06036 -0.147137,1.57974 -0.604097,4.44366 -0.359666,2.25418 -1.333846,3.66838 -2.455664,4.32532 0.105138,0.36595 0.224724,0.72888 0.324528,1.09554 0.6273,2.23652 0.575201,4.47401 0.39429,6.75514 -0.137303,1.73129 -0.688065,2.99533 -1.427303,3.82199 -0.112477,0.41601 -0.170275,0.80219 -0.311092,1.25212 -0.184975,0.59102 -0.413327,1.1061 -0.670242,1.55856 0.741137,-0.23134 1.446982,-0.38145 2.064991,-0.37517 4.085002,0.0415 5.222724,4.75435 -0.02223,7.27138 -4.46677,2.14368 -9.303523,3.34693 -14.11903492,4.40955 -4.40876268,0.85156 -8.89238128,1.33053 -13.38264308,1.19269 -5.804014,-0.17807 -6.736297,-5.00293 -3.065447,-6.67298 -2.072987,-0.65744 -4.042852,-1.62261 -4.128947,-3.14709 -0.02802,-0.49633 0.0026,-0.90355 0.0341,-1.30897 -1.976731,-0.003 -3.95339,2.4e-4 -5.930386,0.003 -0.814031,0 -1.53062,-0.0962 -2.159559,-0.26149 -0.376306,0.19492 -0.742394,0.40783 -1.120862,0.59893 -6.391272,3.22657 -9.625245,-3.24074 -3.234428,-6.46886 1.833438,-0.92611 3.62694,-1.92211 5.414142,-2.92954 -0.877003,-3.87058 -1.368747,-7.83436 -1.323951,-11.80858 0.01651,-1.46304 0.376836,-2.54918 0.864547,-3.41426 -1.247357,-1.79999 -0.223805,-4.63069 3.842661,-5.68855 3.11826,-0.81116 6.282901,-1.39515 9.473837,-1.82211 -1.259816,-0.12657 -2.516182,-0.30233 -3.764627,-0.50177 -1.477002,-0.21985 -2.935575,-0.54305 -4.407482,-0.7891 -1.14214,-0.22954 -0.588502,-0.12004 -1.660882,-0.3297 -3.350244,-0.65501 -4.783278,-2.61088 -4.608504,-4.32997 -0.200179,-1.7721 1.333365,-3.52972 4.663799,-3.59461 v -5.3e-4 c 0.20954,-0.004 0.426035,-0.002 0.649571,0.008 1.77111,0.0772 3.528708,0.28204 5.26428,0.64027 1.655035,0.33225 3.314115,0.6481 4.955251,1.04439 1.244759,0.34858 2.51628,0.54538 3.7997689,0.6723 0.025956,0.002 0.052073,0.002 0.078034,0.004 0.4990888,-0.0371 0.9984105,-0.0743 1.4965495,-0.11317 1.346872,-0.12588 2.6913231,-0.25136 4.0457464,-0.24236 1.1278499,-0.0444 2.2567291,-0.10772 3.37498791,-0.26872 0.75719517,-0.11591 1.51142439,-0.25483 2.25722659,-0.4284 0.3616431,-0.12394 0.7240561,-0.24538 1.083138,-0.37775 0.3360393,-0.12388 0.6107589,-0.12825 0.9250071,-0.20723 0.1281086,-0.045 0.2583895,-0.0825 0.3855085,-0.13074 1.9825018,-0.7681 3.9540551,-1.56464 5.9510551,-2.29443 1.050809,-0.383992 1.999634,-0.542639 2.826703,-0.527616 z M 0.70283723,110.39557 c -0.45566013,0.0949 -0.90775367,0.208 -1.36890919,0.2744 -1.16638124,0.15534 -2.34111274,0.24237 -3.51761424,0.26251 0.4031694,0.0896 0.8047355,0.18876 1.2025101,0.308 0.1014836,0.0304 0.1982549,0.075 0.2986907,0.10852 0.4205235,-0.21824 0.9206601,-0.35072 1.4898318,-0.37156 0.39885139,-0.0146 0.83259872,0.0278 1.29449508,0.13023 0.22468681,-0.12213 0.44967525,-0.24374 0.67437529,-0.36587 -0.0326284,-0.11319 -0.058211,-0.22834 -0.0733795,-0.34623 z m 10.24433577,1.02474 c -0.76023,0.21437 -1.5189569,0.4343 -2.2696301,0.68006 -0.031261,0.62207 -0.2256075,1.28373 -0.6464723,1.94355 0.6236891,0.43248 1.2549743,1.04482 1.8634525,1.86862 0.2674939,0.36214 0.4748849,0.75712 0.7188199,1.13223 0.154519,-1.86707 0.314174,-3.74736 0.33383,-5.62446 z m 64.566086,3.39773 c 1.50346,0.0187 3.129182,1.24994 3.928441,4.04678 0.257931,0.90255 0.823497,1.65871 1.488797,2.30735 0.856321,0.95375 1.845738,1.76777 2.801898,2.61638 1.458581,1.46408 2.789203,3.04608 4.169772,4.58215 1.315059,1.44746 2.571226,2.91698 3.543967,4.61884 0.0053,0.01 0.0082,0.0206 0.01344,0.0305 0.734605,-0.43313 1.446276,-0.65634 2.094962,-0.69195 3.016182,-0.16561 4.69137,3.55377 1.187525,7.32306 -1.69471,1.82311 -3.657862,3.33908 -5.68751,4.7651 -0.777873,0.49914 -1.607691,0.90075 -2.418456,1.33842 0.165478,1.44344 -0.672182,3.24303 -2.956409,4.73096 -1.354556,0.88234 -2.690448,1.79306 -4.075203,2.6288 -2.075008,1.20078 -4.233777,2.27962 -6.540687,2.96259 -2.077586,0.62971 -4.169056,1.29987 -6.359301,1.36374 -1.872114,0.0897 -3.746989,0.0368 -5.620845,0.0501 h -5.1108 -5.524728 c -7.160125,0 -7.160125,-7.23315 0,-7.23315 h 1.347722 c 0.29438,-0.0541 0.5212,-0.1588 0.84801,-0.18656 1.106628,-0.094 2.200932,-0.28334 3.292822,-0.48421 0.456121,-0.98163 1.356053,-1.98213 2.807581,-2.83962 1.078018,-0.63685 2.158119,-1.26923 3.212209,-1.94561 1.962647,-1.29302 3.840588,-2.72135 5.893696,-3.86902 1.367169,-0.76424 2.559646,-1.07097 3.526915,-1.04128 2.216811,0.068 3.246223,1.90266 2.479953,4.04059 1.105688,-0.48686 2.206929,-0.98346 3.283003,-1.53739 2.619811,-1.23728 5.288743,-2.38548 7.764385,-3.9026 0.246153,-0.17184 0.487463,-0.34958 0.730705,-0.52503 -0.126915,-0.50614 -0.277693,-0.9939 -0.512114,-1.46554 -0.647621,-1.25778 -1.721077,-2.20654 -2.600875,-3.29644 -1.199229,-1.33472 -2.369312,-2.69496 -3.592029,-4.00803 -1.098706,-0.97599 -2.227236,-1.92181 -3.215306,-3.01428 -1.300821,-1.39063 -2.459913,-2.93896 -3.045293,-4.77801 -1.289469,-4.05101 0.646382,-6.61405 2.843754,-6.58667 z m -95.086705,4.28035 c -0.465643,0.10748 -0.930899,0.21773 -1.394745,0.33435 0.171958,0.64334 0.283575,1.36624 0.279569,2.2071 -0.01267,2.6582 0.205063,5.32647 0.670242,7.94732 0.280107,-0.17087 0.565767,-0.33222 0.845429,-0.50385 -0.01897,-0.36223 -0.02445,-0.73164 -0.05529,-1.08985 -0.118034,-2.96491 -0.160888,-5.93314 -0.3452,-8.89507 z m 18.5141159,1.1958 c 0.00497,0.0773 0.00619,0.15612 0.014975,0.23202 -0.1238779,0.22787 -0.2588048,0.44752 -0.3937741,0.66715 0.58900751,0.0447 1.13203305,0.21413 1.64331124,0.45888 -0.37615284,-0.49255 -0.78353709,-0.94642 -1.26452314,-1.35805 z m -6.5422357,14.57068 c -0.046649,0.0755 -0.09888,0.14702 -0.1436608,0.22376 -0.03147,0.054 0.1963367,0.0838 0.1860365,0.0222 -0.017595,-0.10481 -0.026035,-0.14905 -0.042376,-0.24597 z m 13.9236979,6.08439 c -0.2236258,0.5643 -0.5677508,1.09664 -1.1782213,1.50533 0.9079653,0.17659 1.7077452,0.44257 2.2830631,0.84852 0.1405493,-0.0459 0.272804,-0.11448 0.4128956,-0.16174 -0.7336976,-0.43656 -1.2984269,-1.18703 -1.5177374,-2.19211 z" /></clipPath><clipPath
       clipPathUnits="userSpaceOnUse"
       id="clipPath127"><path
         id="path128"
         style="fill:#ff0000;fill-opacity:1;fill-rule:nonzero;stroke:none;stroke-width:0.264583"
         d="M -112.24796,-126.55676 V 185.58027 H 148.5754 V -126.55676 Z M 46.874626,83.305366 c 1.808208,0 3.616317,1.790192 3.616317,5.370214 v 5.232238 c 0.0627,2.146078 -0.111291,4.285324 -0.245462,6.424932 -0.136289,2.02485 -0.190703,4.04985 -0.104904,6.07715 0.192061,1.91863 0.527714,3.82569 0.876432,5.72213 0.304242,2.00862 0.765826,3.9858 1.180806,5.97276 0.41642,1.86142 0.967934,3.68703 1.421104,5.53972 0.25287,0.86996 0.117097,0.46495 0.396356,1.22008 0.186108,0.50319 0.223428,0.93098 0.309544,1.38441 4.425355,2.23251 2.751262,7.58433 -3.415813,6.40477 -3.104732,-0.59371 -6.256094,-0.76586 -9.40821,-0.85576 -3.81635,0.009 -7.630525,0.17062 -11.44478,0.28216 -1.12776,0.0333 -2.255837,0.0512 -3.383772,0.0754 -0.908129,0.5548 -1.966518,0.57724 -2.88613,0.0641 -0.03584,5.3e-4 -0.07165,0.002 -0.107487,0.003 -0.03142,5.3e-4 -0.0525,-0.009 -0.08268,-0.009 -0.32049,0.14732 -0.641715,0.29301 -0.962215,0.44028 -0.262501,0.12062 -0.518089,0.22111 -0.770496,0.31265 -0.876996,0.71434 -1.945576,0.85817 -2.911967,0.46405 -2.943479,-0.21613 -4.295167,-2.77187 -2.550232,-5.0524 -2.22e-4,-0.028 -0.0078,-0.0483 -0.0078,-0.0765 v -6.3469 c -0.014,-2.72977 -0.02254,-5.45666 0.112657,-8.18348 0.135676,-2.32533 0.233519,-4.6523 0.299723,-6.98046 0.046,-1.80459 0.06926,-3.60958 0.08527,-5.41465 -0.0258,-1.02998 0.04009,-2.054459 0.138491,-3.078883 0.0044,-0.04602 0.02191,-0.07504 0.02687,-0.120406 C 15.992671,97.193438 15.83363,95.70984 16.656834,94.418959 10.68718,93.678613 10.992573,87.32947 17.739972,87.32947 h 3.885033 5.177462 5.913334 c 1.498505,0.05847 2.984222,-0.03228 4.475178,-0.161748 1.252041,-0.18606 2.49041,-0.398671 3.697968,-0.782897 1.001961,-0.32245 0.492366,-0.161472 1.527553,-0.482142 0.510384,-0.158096 0.938446,-0.174371 1.394749,-0.23771 0.672338,-1.56932 1.86623,-2.35903 3.063377,-2.35903 z" /></clipPath><clipPath
       clipPathUnits="userSpaceOnUse"
       id="clipPath139"><path
         id="path140"
         style="fill:#ff0000;fill-opacity:1;fill-rule:nonzero;stroke:none;stroke-width:0.264583"
         d="M 97.168006,-339.91235 V -44.578961 H 346.46958 V -339.91235 Z m 14.326254,94.53944 c 1.76488,0.006 3.77708,1.78446 4.35839,5.31699 0.32911,1.99994 0.60308,4.00817 0.88884,6.01462 1.02527,-1.2445 2.22305,-1.83589 3.28403,-1.8402 2.05627,-0.008 3.59454,2.17302 2.34611,6.00222 -0.0197,0.0606 -0.0413,0.12046 -0.0615,0.18087 0.31698,0.91799 0.41757,2.09982 0.17777,3.54139 -0.2164,1.30085 -0.62011,2.56457 -1.0263,3.8163 -1.34183,4.13496 -4.42238,4.92072 -6.12882,3.38016 -1.93867,0.62007 -4.30523,-0.86149 -4.65605,-4.82762 -0.16862,-1.90632 -0.33891,-3.81275 -0.57464,-5.71231 -0.45291,-3.52522 -1.07719,-7.02592 -1.48208,-10.55543 -0.40801,-3.55672 1.10935,-5.32303 2.87424,-5.31699 z" /></clipPath></defs><g
     id="layer1"
     transform="translate(-97.391585,339.64754)"><path
       style="fill:#000000"
       d="m 240.04323,-44.629056 c -0.87313,-0.06741 -1.82563,-0.221899 -2.11667,-0.343296 -0.29104,-0.121397 -0.71563,-0.191473 -0.94353,-0.155726 -0.22791,0.03575 -0.51509,-0.09796 -0.63819,-0.297138 -0.12309,-0.199173 -0.46127,-0.362133 -0.75151,-0.362133 -0.80076,0 -4.40828,-2.596564 -5.60427,-4.033753 -0.58208,-0.699473 -1.77462,-2.578339 -2.65009,-4.175258 -1.56205,-2.849298 -1.61885,-2.905473 -3.04289,-3.009821 -1.42173,-0.104178 -1.47287,-0.06783 -2.52372,1.79418 -2.73349,4.843484 -6.30982,6.752193 -12.49807,6.670305 -3.31389,-0.04385 -5.21439,-1.117139 -5.21439,-2.944773 0,-1.346233 -0.32993,-1.238743 -1.5875,0.517204 -0.70313,0.981776 -1.76875,1.832955 -3.175,2.536083 -1.96699,0.983493 -2.41603,1.062737 -6.35,1.120618 -2.32833,0.03426 -5.02708,-0.07225 -5.99722,-0.236677 -0.97014,-0.164429 -2.31952,-0.395266 -2.99861,-0.512972 -5.84847,-1.013695 -13.23043,-3.328906 -18.45487,-5.788018 -5.89988,-2.777042 -8.05339,-5.132142 -8.0537,-8.80763 -2.4e-4,-2.774205 1.18201,-4.932339 3.33926,-6.095667 2.12466,-1.145758 2.9783,-1.997881 3.18723,-3.181601 0.0897,-0.508294 0.3175,-1.222669 0.50617,-1.5875 0.37459,-0.724333 1.16854,-2.828856 2.91204,-7.718884 0.62261,-1.74625 1.41059,-3.889375 1.75107,-4.7625 0.34048,-0.873125 2.0824,-6.111874 3.87095,-11.641665 1.78854,-5.529792 3.69417,-11.403542 4.23474,-13.052782 1.10844,-3.38178 1.92501,-7.01635 1.64032,-7.30105 -0.10425,-0.10424 -0.99125,0.30375 -1.9711,0.90666 -0.97986,0.60292 -1.78156,1.00749 -1.78156,0.89906 0,-0.10844 -0.46783,0.13597 -1.03963,0.54313 -1.4246,1.01441 -6.92822,3.8728 -10.82877,5.62411 -4.04704,1.81707 -6.50731,2.15608 -8.44988,1.16434 -1.39409,-0.71174 -3.38992,-2.88661 -4.01504,-4.37524 -0.18763,-0.44682 -0.8198,-1.60614 -1.40482,-2.57628 -0.58502,-0.97014 -1.15686,-2.00202 -1.27075,-2.29306 -0.1139,-0.29104 -0.5887,-1.40229 -1.05511,-2.46944 -1.59476,-3.64886 -3.63545,-10.02689 -4.23274,-13.22917 -0.0724,-0.38805 -0.21342,-1.10243 -0.31342,-1.5875 -0.18811,-0.9124 -1.2562,-7.39761 -1.42349,-8.64305 -0.37235,-2.77208 -0.64624,-3.30978 -2.50199,-4.91192 -2.37589,-2.0512 -4.72342,-5.31458 -6.40423,-8.90276 -1.21436,-2.59239 -1.29682,-2.98715 -1.31468,-6.29365 -0.0196,-3.63408 0.22996,-5.38182 0.92825,-6.49995 0.39955,-0.63979 -0.31062,-2.56067 -7.83533,-21.19311 -0.74441,-1.84326 -2.13855,-5.33576 -3.0981,-7.76111 -0.95955,-2.42534 -2.38683,-5.91784 -3.17173,-7.76111 -1.70954,-4.01468 -2.0078,-5.60678 -1.34678,-7.18884 1.0677,-2.55535 6.12794,-3.16772 7.89662,-0.95562 0.68551,0.85738 4.31496,8.5902 4.31496,9.19336 0,0.21287 0.22852,0.73864 0.50782,1.16837 0.2793,0.42974 1.1367,2.36884 1.90532,4.30912 2.17601,5.493 4.93467,12.20429 5.65532,13.75833 0.3599,0.77611 1.5073,3.61328 2.54979,6.30481 1.04248,2.69154 2.0564,4.93374 2.25317,4.98267 0.19676,0.0489 1.23087,0.28134 2.29802,0.51645 1.06716,0.23512 2.41684,0.64075 2.99931,0.90139 3.10517,1.38953 4.52473,1.93685 4.66354,1.79804 0.36151,-0.36151 5.25795,1.63709 7.21896,2.94661 1.17256,0.783 2.20192,1.42364 2.28747,1.42364 0.16062,0 1.72522,0.68288 5.86373,2.55926 1.31753,0.59736 2.62722,1.08611 2.91042,1.08611 0.2832,0 0.5149,0.12089 0.5149,0.26864 0,0.29575 3.89334,1.83525 4.10528,1.62331 0.0726,-0.0726 -0.64626,-0.78812 -1.59739,-1.59013 -2.74175,-2.31187 -5.80404,-6.40481 -7.77667,-10.39398 -2.69784,-5.45576 -3.21277,-7.3959 -3.44542,-12.9817 -0.20303,-4.87455 0.0545,-7.4637 1.19862,-12.04961 0.32573,-1.30567 0.52281,-2.43921 0.43794,-2.51897 -0.0849,-0.0798 -1.07472,-0.25043 -2.19968,-0.37925 -4.37989,-0.50154 -11.23604,-3.58846 -14.51096,-6.53345 -4.80265,-4.31879 -6.63113,-6.97542 -11.47525,-16.67256 -3.05256,-6.11073 -3.62716,-7.52985 -3.79406,-9.37043 -0.34065,-3.75682 1.33241,-5.10598 6.86907,-5.53921 1.7961,-0.14055 3.35003,-0.39208 3.45317,-0.55897 0.10315,-0.16689 -0.51122,-1.16131 -1.36524,-2.20982 -2.24692,-2.75861 -3.46667,-4.60954 -5.26851,-7.99479 -3.61486,-6.79148 -3.90198,-11.06256 -0.95834,-14.25603 3.25732,-3.53378 8.88637,-4.80156 15.86634,-3.57343 0.48506,0.0853 1.51694,0.22687 2.29305,0.31449 0.77611,0.0876 1.80799,0.24986 2.29306,0.36053 0.48507,0.11066 1.35819,0.27199 1.94027,0.35852 0.87353,0.12984 8.89715,1.74807 10.75972,2.17005 2.7134,0.61475 11.80075,2.789 14.46389,3.46066 1.84327,0.46488 3.98639,0.95151 4.7625,1.0814 l 1.41111,0.23617 1.48594,-2.39632 c 1.63735,-2.6405 5.95791,-7.60783 7.65874,-8.80521 0.59723,-0.42045 2.50753,-2.32545 4.24511,-4.23334 3.90319,-4.28576 14.97129,-15.30906 18.71407,-18.63832 1.52689,-1.35819 3.18316,-2.84425 3.6806,-3.30236 0.49743,-0.4581 1.67513,-1.48997 2.61711,-2.29305 0.94197,-0.80308 2.05322,-1.75568 2.46944,-2.11689 0.41622,-0.36121 1.47114,-1.23434 2.34427,-1.94028 0.87312,-0.70594 1.66687,-1.37031 1.76389,-1.47637 0.097,-0.10607 1.20826,-0.96823 2.46944,-1.91592 1.26118,-0.94769 2.53118,-1.94363 2.82222,-2.21321 0.80664,-0.74715 7.1365,-5.38362 7.9375,-5.81402 0.38806,-0.20852 1.57868,-1.04019 2.64583,-1.84815 1.06716,-0.80797 2.97216,-2.08362 4.23334,-2.83479 1.26118,-0.75116 2.37243,-1.45849 2.46944,-1.57183 0.30983,-0.36199 2.10439,-1.43949 2.23511,-1.34201 0.0692,0.0516 0.3654,-0.10488 0.65812,-0.34782 0.29272,-0.24294 1.28208,-0.84041 2.19859,-1.32772 3.25181,-1.72901 5.67383,-3.0912 6.10888,-3.43576 0.24253,-0.1921 0.44097,-0.25192 0.44097,-0.13294 0,0.11898 0.77162,-0.25846 1.71471,-0.83875 0.94309,-0.58029 1.81579,-1.05507 1.93934,-1.05507 0.12354,0 1.21723,-0.45072 2.43042,-1.0016 2.9815,-1.35382 4.28814,-1.93564 4.49886,-2.00327 0.097,-0.0311 0.93709,-0.41002 1.86684,-0.84196 0.92975,-0.43194 2.00131,-0.80877 2.38125,-0.83739 0.37994,-0.0286 0.6908,-0.20346 0.6908,-0.38854 0,-0.18507 0.10445,-0.23204 0.23212,-0.10437 0.12767,0.12767 0.41198,0.0829 0.63179,-0.0996 0.21981,-0.18243 0.88206,-0.41667 1.47166,-0.52055 0.5896,-0.10387 1.77373,-0.44211 2.63141,-0.75165 6.10182,-2.20215 11.19564,-2.74007 15.05712,-1.59007 6.90698,2.05699 16.94075,9.42014 23.26261,17.07096 1.31161,1.58734 2.4755,2.96544 2.58641,3.06246 0.11092,0.097 0.66953,0.81125 1.24136,1.58721 0.57182,0.77595 1.31749,1.7187 1.65704,2.09499 0.33955,0.37629 0.61736,0.80165 0.61736,0.94523 0,0.14358 0.19844,0.47509 0.44098,0.73668 2.58573,2.78891 10.63788,17.71301 11.38117,21.09422 0.0213,0.097 0.30545,0.7875 0.63138,1.53442 1.00456,2.30212 1.97746,5.77894 2.20392,7.87609 0.22336,2.06835 -0.40216,6.46448 -0.91981,6.46448 -0.16147,0 -0.50068,0.41298 -0.7538,0.91774 -0.53706,1.07095 -3.39026,2.72868 -5.40633,3.14112 -3.31108,0.67737 -7.54638,0.17647 -9.61555,-1.1372 -2.63703,-1.67421 -4.01994,-4.61134 -3.05475,-6.48794 0.75957,-1.47682 3.20031,-2.17967 5.62196,-1.61892 1.60494,0.37163 2.13322,-0.12257 1.4779,-1.38256 -0.87801,-1.68816 -2.04512,-2.50747 -5.00568,-3.514 -5.17616,-1.75978 -10.73999,-1.11605 -15.31481,1.77191 -1.61755,1.02111 -1.93122,1.71125 -2.33382,5.13486 -0.10267,0.87312 -0.41885,3.25437 -0.70261,5.29166 -0.28377,2.03729 -0.59949,4.65667 -0.70162,5.82083 -0.29353,3.34604 -0.54076,5.68483 -0.67628,6.39765 -0.0688,0.36185 -0.23734,2.00728 -0.37453,3.65652 -0.1372,1.64924 -0.30716,3.47486 -0.37771,4.05694 -0.0705,0.58209 -0.21912,2.01084 -0.33016,3.175 -0.11104,1.16417 -0.26673,2.6723 -0.34598,3.35139 -0.35225,3.0183 -0.57704,4.85046 -0.73579,5.99722 -0.094,0.6791 -0.24499,2.9016 -0.33549,4.93889 -0.0905,2.03729 -0.24934,5.06537 -0.35296,6.72906 -0.21963,3.52616 -0.27383,3.44214 3.51501,5.44826 11.1726,5.9157 21.56739,15.88499 25.20392,24.17226 0.46503,1.05975 1.07713,2.46243 1.36022,3.11707 0.53493,1.23699 0.74678,5.81395 0.35021,7.56609 -0.36925,1.63144 -2.01968,4.19121 -3.79369,5.88393 -2.61405,2.49425 -3.87686,3.55573 -3.88536,3.26591 -0.004,-0.14702 -0.28213,0.0768 -0.61736,0.49741 -0.80447,1.00929 -4.39593,2.92576 -8.54702,4.56083 -1.84326,0.72604 -4.06576,1.89927 -4.93889,2.60718 -2.67347,2.16756 -6.97923,4.96793 -8.81944,5.73595 -0.6791,0.28343 -2.02847,0.86346 -2.99861,1.28897 -3.65563,1.60336 -11.38489,2.17355 -14.99073,1.10587 -2.31525,-0.68554 -2.54036,-0.55552 -4.1175,2.37808 -2.04315,3.8004 -5.45164,7.41351 -9.78916,10.37682 -0.19596,0.13387 -0.37611,0.76887 -0.40034,1.41111 -0.0242,0.64223 -0.15289,1.50241 -0.28594,1.9115 -0.20091,0.61779 0.36164,1.30506 3.32075,4.05694 7.10852,6.61068 22.14544,21.94457 24.65234,25.13919 0.58911,0.75072 0.99146,1.49382 0.89411,1.65132 -0.0973,0.15751 -0.028,0.37847 0.15412,0.49102 0.18211,0.11255 0.2591,0.97992 0.17108,1.92749 -0.15922,1.71402 0.0174,2.40204 1.63833,6.38329 0.98007,2.40716 1.25011,7.04865 0.49504,8.5088 -1.5953,3.084966 -4.70321,4.641939 -9.15044,4.584105 -1.55222,-0.02019 -3.36593,-0.07716 -4.03047,-0.12661 -1.0749,-0.07998 -1.23961,0.02691 -1.49228,0.968424 -0.38458,1.433075 -1.89232,3.058611 -3.91405,4.219842 -0.92163,0.529363 -1.67569,1.073118 -1.67569,1.208345 0,0.273837 2.58222,4.803514 5.05042,8.859312 3.18219,5.229065 3.95465,6.480979 4.55283,7.378692 0.33408,0.501372 0.92736,1.496601 1.31841,2.21162 0.44365,0.811198 1.36655,1.668541 2.45441,2.280056 2.21775,1.246658 3.35185,3.307242 3.36903,6.121297 0.0142,2.332493 -1.19253,4.970811 -2.79585,6.112471 -0.58483,0.41644 -1.31503,1.008859 -1.62266,1.316487 -1.37331,1.373316 -12.47541,6.650932 -12.96375,6.162594 -0.0886,-0.08865 -0.45391,-0.0045 -0.81171,0.186984 -0.6866,0.367462 -6.33427,1.864339 -8.42891,2.234028 -0.6791,0.119856 -1.6316,0.295596 -2.11667,0.390533 -3.51132,0.687232 -4.88791,0.942407 -5.74497,1.064935 -2.34381,0.335078 -3.75532,0.504452 -6.07308,0.728738 -1.3582,0.13143 -2.86632,0.29638 -3.35139,0.366556 -1.28859,0.186422 -15.42378,0.377649 -17.28611,0.233855 z m 18.52083,-3.981183 c 16.65607,-1.797493 28.31076,-5.065775 36.21749,-10.156336 2.97743,-1.916946 3.77927,-3.767241 2.61132,-6.025791 -1.01878,-1.970107 -1.4574,-2.040093 -3.129,-0.499266 -3.41511,3.147944 -9.83836,6.075148 -17.88453,8.150339 -7.54477,1.945874 -13.34004,2.753331 -20.50278,2.856654 -4.46148,0.06436 -6.82545,-0.270339 -9.13055,-1.292727 -1.54793,-0.686557 -4.94174,-3.287802 -5.64445,-4.326284 -0.29104,-0.430112 -0.80698,-1.145876 -1.14653,-1.590587 -0.33954,-0.44471 -0.61736,-0.905991 -0.61736,-1.025068 0,-0.119077 -0.38883,-0.808412 -0.86406,-1.531856 -1.46407,-2.22872 -3.63302,-9.532777 -4.79043,-16.132019 -1.94653,-11.098617 -2.80077,-16.192849 -2.98741,-17.815276 -0.12275,-1.067153 -0.28522,-2.337154 -0.36102,-2.822224 -0.21176,-1.35498 -0.82193,-6.65034 -1.01624,-8.81944 -0.54737,-6.11022 -1.25259,-16.21989 -1.32887,-19.05 -0.0392,-1.45521 -0.20432,-2.8252 -0.36688,-3.04442 -0.28362,-0.38247 -7.17371,-0.40954 -7.55358,-0.0297 -0.18845,0.18845 -0.17617,20.06511 0.014,22.65326 0.0713,0.97014 0.23529,3.58952 0.36448,5.82084 0.28271,4.882949 0.29074,4.964751 1.40266,14.287496 1.21735,10.206663 2.0589,14.936559 3.55933,20.004872 2.71993,9.187684 5.05423,14.56557 7.40165,17.052317 1.68169,1.781513 4.61302,3.326191 7.05202,3.716099 2.2477,0.359327 14.07357,0.118454 18.70075,-0.380903 z m -61.56472,-2.643074 c 3.93666,-1.389748 5.90936,-5.343142 7.04231,-14.113201 0.20053,-1.552222 0.42775,-3.298472 0.50494,-3.880556 0.0772,-0.582083 0.24501,-2.169583 0.37292,-3.527777 0.12792,-1.358194 0.3019,-3.025069 0.38662,-3.704166 0.0847,-0.679098 0.39697,-4.250972 0.69387,-7.9375 0.91584,-11.371693 0.83971,-10.575217 1.97275,-20.637497 0.20756,-1.84326 0.74463,-5.57389 1.19349,-8.29028 0.44886,-2.71639 1.08373,-6.60576 1.41082,-8.64305 0.32709,-2.03729 0.82017,-4.84841 1.09572,-6.24694 0.27555,-1.39852 0.50101,-3.09896 0.50101,-3.77876 0,-1.15864 -0.0938,-1.26005 -1.49931,-1.62033 -0.82462,-0.21138 -2.09783,-0.61437 -2.82936,-0.89554 -1.76325,-0.67771 -2.64063,-0.64512 -2.85781,0.10615 -0.0981,0.33955 -0.5117,2.19001 -0.919,4.11214 -0.4073,1.92213 -0.79799,3.589 -0.86819,3.70417 -0.13156,0.21583 -3.22511,15.25548 -3.52613,17.14272 -0.38039,2.38483 -0.88094,5.74043 -1.07878,7.23194 -0.11581,0.87313 -0.35451,2.460626 -0.53045,3.527778 -0.17593,1.067153 -0.49467,3.527778 -0.70831,5.468055 -0.6872,6.24111 -0.73578,6.66125 -1.08219,9.360829 -0.34879,2.718109 -0.46242,3.649046 -0.8597,7.043337 -1.21687,10.396585 -4.2488,16.49401 -9.04263,18.185372 -2.58709,0.912779 -7.35522,0.717896 -11.06342,-0.452183 -5.70403,-1.799843 -9.26766,-3.605081 -11.26669,-5.707401 -1.76021,-1.851157 -2.88664,-1.269924 -3.02187,1.559274 -0.0999,2.090765 -0.0918,2.11454 1.14759,3.338547 1.5058,1.487149 7.21445,4.208883 12.13649,5.786348 3.71055,1.189197 11.15866,2.863986 13.88087,3.121264 3.89974,0.368567 7.33338,0.270111 8.81444,-0.252743 z m 15.88709,-1.256414 c 1.45131,-0.398835 3.1971,-1.091007 3.87954,-1.538158 1.24182,-0.81368 2.80534,-3.156754 2.38618,-3.575915 -0.12245,-0.122451 -1.46486,-0.503875 -2.98314,-0.84761 -1.51828,-0.343735 -4.16248,-1.05711 -5.876,-1.585278 -1.71353,-0.528168 -3.18084,-0.894965 -3.2607,-0.815104 -0.0799,0.07986 -0.29842,0.953095 -0.48568,1.940521 -0.36647,1.932404 0.0768,5.880712 0.75142,6.69363 0.54443,0.655995 2.57011,0.557369 5.58838,-0.272086 z m 46.91235,-4.937062 c 6.9275,-0.628624 14.08673,-1.997496 19.2331,-3.677442 1.37615,-0.44922 4.39824,-1.788517 6.71575,-2.976215 5.95204,-3.050355 6.89691,-3.598954 7.09709,-4.120621 0.0972,-0.253428 -0.37423,-1.302328 -1.04774,-2.33089 -1.61681,-2.469123 -5.95969,-9.765548 -8.56656,-14.392576 -2.41625,-4.288677 -2.97869,-4.940035 -4.26567,-4.940035 -0.51829,0 -1.21047,-0.242637 -1.53816,-0.539193 -0.46332,-0.4193 -0.80798,-0.458521 -1.55005,-0.176389 -2.08239,0.791725 -5.34574,0.175698 -7.02618,-1.326344 -0.3716,-0.332149 -1.59455,-1.794532 -2.71767,-3.24974 -1.12312,-1.455208 -2.45209,-3.075467 -2.95325,-3.600575 -0.50117,-0.525109 -0.91121,-1.069932 -0.91121,-1.21072 0,-0.140791 -0.87256,-1.567271 -1.93901,-3.169961 -2.55531,-3.84019 -7.72816,-12.43554 -8.9988,-14.95266 -1.18902,-2.35543 -4.23164,-11.16587 -4.23164,-12.25344 0,-2.31213 1.78025,-0.39314 4.30591,4.64148 2.62197,5.22661 4.93086,9.26337 8.68127,15.17793 4.48803,7.07784 5.09748,7.9306 5.67905,7.94623 0.94424,0.0254 7.25767,-3.93738 11.14349,-6.99443 4.01942,-3.16216 8.59595,-7.79896 10.4929,-10.63107 0.9747,-1.45521 2.2419,-3.14479 2.816,-3.75462 0.83019,-0.88184 0.97187,-1.24286 0.69223,-1.76388 -0.45283,-0.84374 -14.95412,-15.22355 -18.37493,-18.22101 l -2.60991,-2.28691 -2.80732,1.90071 c -1.54403,1.04539 -2.87162,1.90071 -2.95019,1.90071 -0.0786,0 -0.81581,0.30876 -1.63831,0.68613 -7.73549,3.54911 -9.55324,4.25348 -15.07741,5.84243 -1.84326,0.53018 -4.10868,1.19698 -5.03426,1.48177 -0.92557,0.28479 -3.82846,0.88009 -6.45086,1.32289 -2.6224,0.44279 -4.86369,0.90078 -4.98066,1.01774 -0.43352,0.43353 -0.0735,8.79536 0.76187,17.69487 1.81121,19.295544 5.50824,39.655924 8.59912,47.357365 2.12912,5.305039 5.51929,8.378552 10.41693,9.443946 2.71269,0.590095 3.99359,0.612002 9.03508,0.15452 z m 4.58611,-84.119721 c 0,-0.097 0.0794,-0.17639 0.17639,-0.17639 0.097,0 0.17639,0.0794 0.17639,0.17639 0,0.097 -0.0794,0.17639 -0.17639,0.17639 -0.097,0 -0.17639,-0.0794 -0.17639,-0.17639 z m -40.72567,78.404857 c -4.38617,-14.287332 -6.60962,-32.905627 -6.63736,-55.578697 -0.015,-12.26606 -0.0588,-13.18002 -0.64679,-13.4947 -0.34688,-0.18564 -0.70874,-0.21124 -0.80414,-0.0569 -0.23348,0.37778 -1.88295,9.11868 -2.34398,12.42125 -0.40563,2.90573 -0.62438,4.30491 -0.88245,5.64445 -0.21359,1.10865 -1.12471,8.29836 -1.40824,11.1125 -0.1173,1.16416 -0.27439,2.67229 -0.3491,3.351385 -0.40335,3.66646 -0.52667,5.077229 -0.72468,8.290277 -0.11957,1.940278 -0.27204,4.004028 -0.33882,4.586111 -0.0668,0.582083 -0.21967,2.407708 -0.33975,4.056944 -0.37805,5.192298 -1.24495,14.211303 -1.55289,16.155791 l -0.29588,1.868291 1.2728,0.541034 c 0.70003,0.297568 3.65529,1.147321 6.56724,1.88834 5.99094,1.524548 6.61583,1.656517 8.161,1.7235 l 1.10822,0.04804 z m -38.61377,1.803363 c 4.6765,-1.565752 6.2146,-5.917615 8.58597,-24.292945 0.28796,-2.231319 0.9314,-7.231944 1.42988,-11.112499 1.35237,-10.527946 2.98986,-19.701806 5.63495,-31.569226 0.88601,-3.97516 1.54157,-7.40828 1.45682,-7.62916 -0.0848,-0.22088 -1.55571,-1.16148 -3.26878,-2.09023 -2.92393,-1.58523 -4.41786,-2.52215 -8.78241,-5.50789 -3.09346,-2.11621 -9.0042,-9.17056 -10.52542,-12.5619 -0.45285,-1.00957 -0.8919,-1.49576 -1.35075,-1.49576 -1.07024,0 -10.00588,-3.43217 -13.4033,-5.1482 -1.69278,-0.85501 -3.23249,-1.55457 -3.42159,-1.55457 -0.19359,0 -0.12872,0.51478 0.14847,1.17818 1.53462,3.67285 3.7015,17.18614 4.42142,27.5732 0.21517,3.10445 0.34045,8.8593 0.2784,12.78856 -0.0727,4.60515 0.0126,7.14222 0.23996,7.13879 0.61582,-0.009 5.6258,-2.83888 6.08541,-3.43697 0.24254,-0.31561 0.44098,-0.44469 0.44098,-0.28683 0,0.15786 0.25414,0.0761 0.56475,-0.18169 0.31062,-0.25779 0.77118,-0.49901 1.02348,-0.53604 0.2523,-0.037 0.91097,-0.38089 1.46372,-0.76414 0.55274,-0.38325 1.74765,-1.11398 2.65535,-1.62385 1.3928,-0.78237 1.7628,-1.22759 2.37092,-2.85292 0.39631,-1.05924 0.82399,-2.36892 0.9504,-2.9104 0.12642,-0.54148 0.75245,-2.57201 1.39119,-4.51228 0.63874,-1.94028 1.51052,-4.79778 1.93729,-6.35 0.91435,-3.32566 1.60474,-4.78991 2.20271,-4.67173 0.73595,0.14544 0.8823,1.05228 0.55468,3.437 -0.31407,2.28609 -2.68031,11.9106 -4.16315,16.93334 -0.42962,1.4552 -1.2527,4.55083 -1.82907,6.87916 -1.88897,7.63075 -8.64132,29.04397 -11.40245,36.159721 -0.26351,0.679097 -0.98465,2.584097 -1.60253,4.233333 -0.61787,1.649236 -1.24449,3.316111 -1.39248,3.704167 -0.14799,0.388055 -0.60911,1.395245 -1.02472,2.238198 -1.21318,2.46063 -1.05644,2.951012 1.4692,4.596532 5.23626,3.411557 13.27796,5.428598 16.8607,4.229049 z m -11.32444,-64.33322 c 0,-0.097 0.0794,-0.17639 0.17639,-0.17639 0.097,0 0.17639,0.0794 0.17639,0.17639 0,0.097 -0.0794,0.17639 -0.17639,0.17639 -0.097,0 -0.17639,-0.0794 -0.17639,-0.17639 z m -0.70555,-0.88194 c 0,-0.25871 0.10583,-0.36454 0.23518,-0.23519 0.12935,0.12935 0.12935,0.34102 0,0.47037 -0.12935,0.12935 -0.23518,0.0235 -0.23518,-0.23518 z m 111.33628,32.841688 c 1.87239,-0.850337 3.85359,-3.561139 2.60267,-3.561139 -0.63676,0 -5.62791,3.608543 -5.43125,3.926738 0.29389,0.475532 1.248,0.352211 2.82858,-0.365599 z m -6.83084,-1.792893 c 5.86645,-3.020784 13.13313,-8.936605 17.2246,-14.022605 4.20603,-5.2284 4.70256,-6.44018 3.46666,-8.46043 -1.08211,-1.76885 -4.17425,-5.03799 -4.76522,-5.03799 -0.25791,0 -0.70299,0.45263 -0.98907,1.00584 -1.15235,2.22841 -6.29344,8.00509 -11.13964,12.51686 -2.84576,2.64936 -9.00431,6.99884 -12.25903,8.65793 -0.82462,0.42035 -1.49931,0.884468 -1.49931,1.03138 0,0.30847 0.99685,1.797574 1.65348,2.469989 0.24619,0.252113 0.57019,0.651655 0.71999,0.887872 0.6995,1.103019 2.68998,2.357861 3.73902,2.357162 0.6157,-4.11e-4 2.34753,-0.633114 3.84852,-1.406008 z m 22.13898,-5.224085 c 2.56256,-1.25036 2.79583,-4.22368 0.73701,-9.394 l -0.41086,-1.03179 -1.27219,1.91373 c -0.69971,1.05255 -2.76528,3.4002 -4.59015,5.21698 -1.82487,1.81679 -3.26041,3.36079 -3.19008,3.43112 0.0703,0.0703 0.75346,0.28347 1.51805,0.47365 1.85191,0.460609 5.67794,0.137 7.20822,-0.60969 z m -138.62349,-12.07423 c 1.88686,-0.9626 2.11682,-2.01483 2.27266,-10.3991 0.25308,-13.61611 -1.49406,-31.17745 -3.90237,-39.2247 -0.71332,-2.38352 -1.09252,-3.07656 -2.16871,-3.96365 -2.16101,-1.78129 -6.34761,-3.57958 -6.22242,-2.67275 0.0268,0.19403 0.3755,1.8609 0.77492,3.70416 0.39942,1.84327 0.83279,4.06577 0.96303,4.93889 0.13025,0.87313 0.2789,1.82563 0.33033,2.11667 0.40966,2.31785 1.43714,13.03137 1.77625,18.52083 0.11986,1.94028 0.27516,3.92465 0.34511,4.40972 0.07,0.48507 0.22007,2.15195 0.33361,3.70417 0.11354,1.55222 0.28677,3.61597 0.38496,4.58611 0.0982,0.97014 0.24454,4.66194 0.3252,8.204 0.0807,3.54206 0.25482,6.6151 0.387,6.82898 0.32562,0.52686 2.68167,0.12352 4.40043,-0.75333 z m -8.10455,-10.91996 c -0.66694,-10.04226 -1.08984,-14.57769 -1.4708,-15.77368 -0.28483,-0.89419 -0.69811,-1.25203 -2.01378,-1.74363 -0.91048,-0.34019 -2.21104,-0.95632 -2.89013,-1.36918 -0.6791,-0.41285 -1.44567,-0.87563 -1.7035,-1.0284 -0.37005,-0.21925 -0.42373,0.009 -0.25487,1.08317 0.11764,0.74851 0.3775,2.39279 0.57747,3.65397 0.93678,5.90811 4.08797,16.22778 4.95529,16.22778 0.16839,0 0.30616,0.30174 0.30616,0.67053 0,0.63768 1.03363,3.06907 2.11452,4.97392 0.46234,0.81478 0.51148,0.82884 0.64533,0.18468 0.0797,-0.38349 -0.0399,-3.47911 -0.26569,-6.87916 z m -2.49416,-16.05969 c 0,-0.097 0.0794,-0.17639 0.17639,-0.17639 0.097,0 0.17639,0.0794 0.17639,0.17639 0,0.097 -0.0794,0.17639 -0.17639,0.17639 -0.097,0 -0.17639,-0.0794 -0.17639,-0.17639 z m -3.175,-1.41111 c 0,-0.097 0.0794,-0.17639 0.17639,-0.17639 0.097,0 0.17639,0.0794 0.17639,0.17639 0,0.097 -0.0794,0.17639 -0.17639,0.17639 -0.097,0 -0.17639,-0.0794 -0.17639,-0.17639 z m 86.43055,4.72733 c 6.70279,-1.14824 14.33374,-3.22154 20.2103,-5.49108 3.29,-1.2706 10.57347,-4.80288 12.66315,-6.14127 1.24174,-0.79531 1.17981,-0.78812 -2.71095,0.31486 -1.3582,0.38504 -4.37445,1.02506 -6.70278,1.42229 -5.58698,0.95317 -6.13065,1.02385 -10.05417,1.30721 -1.84326,0.13312 -3.45726,0.30339 -3.58667,0.37837 -0.12941,0.075 -2.73548,0.14316 -5.79127,0.15151 -6.1586,0.0168 -6.51829,0.10974 -11.02634,2.84847 -1.23508,0.75034 -2.36541,1.36425 -2.51184,1.36425 -0.20203,0 -4.49224,3.04316 -5.26148,3.73211 -0.0725,0.0649 -0.0315,0.37943 0.0911,0.69893 0.19882,0.51813 0.78491,0.55543 5.42344,0.34512 2.86029,-0.12968 7.02615,-0.54853 9.25747,-0.93077 z m -18.34444,-0.37322 c 0,-1.0407 -2.15519,-3.73213 -6.06831,-7.57821 -2.94042,-2.89005 -3.48134,-3.27051 -5.22058,-3.67201 -4.28627,-0.98945 -15.15034,-4.87635 -18.72064,-6.69778 -0.76323,-0.38937 -1.38769,-0.60064 -1.38769,-0.46949 0,0.87048 4.4316,5.68307 7.40833,8.04523 2.20178,1.74721 5.52792,4.07787 5.81962,4.07787 0.0769,0 1.07885,0.55036 2.22658,1.22303 3.48375,2.04177 13.1373,5.74222 15.14894,5.80698 0.58579,0.0189 0.79375,-0.17388 0.79375,-0.73562 z m 4.18607,-3.94865 c 0.89912,-0.65012 2.62695,-1.70411 3.83962,-2.34221 1.21267,-0.63809 2.20486,-1.27603 2.20486,-1.41764 0,-0.23841 -5.27864,-0.98313 -6.87916,-0.97053 -0.38806,0.003 -2.09462,-0.23091 -3.79237,-0.51993 -1.69774,-0.28902 -3.0868,-0.41843 -3.0868,-0.28757 0,0.13085 0.49004,0.70418 1.08898,1.27406 0.59894,0.56987 1.89666,2.02832 2.88382,3.241 0.98716,1.21267 1.86491,2.20486 1.95056,2.20486 0.0856,0 0.89137,-0.53192 1.79049,-1.18204 z m -68.04054,-4.90338 c -0.004,-1.78855 -1.42108,-14.92554 -1.93915,-17.97445 -0.76867,-4.52372 -1.11747,-5.44856 -2.43355,-6.45238 -1.21681,-0.92811 -4.07684,-2.07633 -4.3905,-1.76267 -0.10349,0.10349 0.0808,0.93863 0.40955,1.85585 0.32875,0.91723 0.59694,2.35825 0.59598,3.20227 -0.001,1.27362 -0.20572,1.73855 -1.20119,2.73402 -1.03495,1.03495 -1.4341,1.19927 -2.91042,1.19813 -2.08057,-0.002 -3.74265,-0.92647 -4.75821,-2.64771 -0.39964,-0.67734 -0.813,-1.23153 -0.91857,-1.23153 -0.10557,0 -0.1055,1.26134 1.7e-4,2.80296 0.45921,6.69981 5.92922,13.45253 14.54897,17.96072 2.51852,1.3172 2.99917,1.36769 2.99692,0.31479 z m 89.43085,-2.73145 c 13.87447,-0.86996 22.02386,-2.45425 28.22222,-5.48659 7.93146,-3.88019 12.83897,-9.66981 14.63885,-17.27015 1.43735,-6.06946 1.48507,-6.21142 2.05118,-6.10158 0.59621,0.11567 0.66934,0.46942 1.04256,5.04325 l 0.25908,3.175 1.5875,0.23843 c 3.2716,0.49138 8.28408,0.30857 11.06902,-0.4037 4.81091,-1.23043 11.45771,-5.30257 16.58533,-10.16095 0.99143,-0.93937 2.91384,-2.52493 4.27203,-3.52348 4.39303,-3.22976 5.03444,-3.7732 5.64032,-4.77885 0.57684,-0.95744 0.56938,-1.01298 -0.22898,-1.70637 -0.45387,-0.3942 -1.61901,-1.09256 -2.58919,-1.55192 -3.92506,-1.85842 -7.83944,-5.80999 -12.32993,-12.44711 -1.34873,-1.99347 -3.17496,-4.52159 -4.05828,-5.61805 -3.71442,-4.61064 -10.40882,-9.20365 -16.24366,-11.14473 -3.53623,-1.1764 -4.18567,-1.29031 -9.11104,-1.59808 l -4.23232,-0.26446 -1.90628,-1.47069 c -1.04845,-0.80887 -2.61026,-1.71916 -3.47068,-2.02286 -5.76003,-2.0331 -27.74638,-8.04672 -38.60606,-10.55938 -0.19403,-0.0449 -0.74965,-0.18371 -1.23472,-0.30847 -0.48507,-0.12476 -6.27945,-1.56749 -12.87639,-3.20606 -6.59694,-1.63857 -14.01975,-3.50201 -16.49512,-4.14098 l -4.50067,-1.16176 -1.55406,0.84894 c -0.85473,0.46692 -2.08131,1.25668 -2.72573,1.75502 -2.30653,1.78368 -9.73171,9.28431 -11.26343,11.37789 -0.85854,1.17347 -2.07692,2.72974 -2.70751,3.45836 -0.63059,0.72863 -1.14653,1.40651 -1.14653,1.5064 0,0.20245 -2.85297,4.5705 -3.16654,4.84814 -0.10957,0.097 -0.38876,0.57326 -0.62042,1.05833 -0.23167,0.48507 -0.87691,1.6757 -1.43387,2.64584 -0.55696,0.97013 -1.19762,2.12107 -1.42369,2.55763 -0.22607,0.43657 -0.59987,1.15094 -0.83066,1.5875 -0.83459,1.57872 -1.84062,3.61981 -1.86921,3.79237 -0.0161,0.097 -0.20328,0.49388 -0.41602,0.88194 -0.84697,1.54497 -2.9785,7.72004 -3.49903,10.13677 -0.30365,1.40977 -0.65411,2.9601 -0.7788,3.44517 -0.46779,1.81977 -0.1702,10.00405 0.45538,12.52361 2.88166,11.60614 14.19244,22.03196 30.16341,27.80344 13.6406,4.92934 30.10729,7.1968 45.33194,6.24219 z m -30.86805,-28.95282 c -10.48168,-1.72821 -15.0813,-3.37294 -18.22709,-6.51759 -2.16006,-2.15929 -2.93957,-4.29492 -2.93957,-8.05351 0,-5.46506 2.36502,-10.99109 6.49834,-15.1838 3.01976,-3.06316 5.67773,-4.52666 9.69822,-5.33993 9.0229,-1.82516 18.04068,2.49609 22.18317,10.62999 1.62141,3.18369 2.4585,12.04939 1.4806,15.68106 -1.03984,3.86168 -3.17049,6.57021 -6.34645,8.06775 -1.71839,0.81026 -2.42439,0.92181 -6.17361,0.97542 -2.32833,0.0333 -5.10646,-0.0834 -6.17361,-0.25939 z m 9.12015,-3.17432 c 5.58529,-1.19783 7.82089,-5.83945 6.78599,-14.08932 -0.27825,-2.21812 -0.7133,-3.68403 -1.67146,-5.63198 -1.90781,-3.87861 -3.86734,-5.80149 -7.88468,-7.73722 l -3.35139,-1.61484 -4.49792,-0.0746 c -2.47385,-0.041 -4.49791,0.0374 -4.49791,0.17418 0,0.13682 -0.64183,0.44908 -1.42628,0.6939 -5.61379,1.75206 -10.17265,8.42057 -10.80104,15.79932 -0.17839,2.09465 -0.0896,2.76783 0.55846,4.23333 1.56451,3.53804 3.59031,4.81354 10.26105,6.46064 7.77464,1.91967 13.17978,2.50403 16.52518,1.78657 z m -3.50667,-8.19151 c -0.30807,-0.23637 -0.49328,-0.62819 -0.41157,-0.87073 0.0817,-0.24253 -0.0998,-0.44097 -0.40329,-0.44097 -0.30351,0 -0.65478,-0.41014 -0.7806,-0.91143 -0.2901,-1.15585 0.081,-4.38703 0.55872,-4.86475 0.19918,-0.19918 0.36215,-0.64382 0.36215,-0.98809 0,-0.85761 1.76928,-1.74846 2.57595,-1.29702 0.33764,0.18895 0.52293,0.49072 0.41176,0.6706 -0.11118,0.17988 0.0345,0.23623 0.32384,0.12522 0.38397,-0.14734 0.58941,0.13633 0.76095,1.05074 0.30387,1.61973 -0.0683,5.64435 -0.53637,5.80037 -0.19862,0.0662 -0.36113,0.32702 -0.36113,0.57958 0,0.25255 -0.39129,0.71557 -0.86953,1.02893 -1.02085,0.66888 -0.9216,0.66173 -1.63088,0.11755 z m 3.20596,-4.66309 c 0,-0.097 -0.0794,-0.17639 -0.17638,-0.17639 -0.097,0 -0.17639,0.0794 -0.17639,0.17639 0,0.097 0.0794,0.17639 0.17639,0.17639 0.097,0 0.17638,-0.0794 0.17638,-0.17639 z m -20.3511,1.60557 c -0.32375,-0.37811 -0.6961,-0.62107 -0.82744,-0.53989 -0.32031,0.19796 -0.21599,-2.5429 0.10916,-2.86806 0.36485,-0.36484 0.31669,-0.92291 -0.0596,-0.69037 -0.18423,0.11386 -0.18773,-0.35359 -0.008,-1.12571 0.16865,-0.72623 0.31043,-1.43949 0.31506,-1.58501 0.005,-0.14552 0.28623,-0.27712 0.62578,-0.29243 0.35115,-0.0158 0.4317,-0.10308 0.1868,-0.20232 -0.96701,-0.39184 1.88835,-2.40228 2.87445,-2.02388 0.58781,0.22557 0.731,0.68556 0.29014,0.93211 -0.14552,0.0814 -0.0392,0.0892 0.23638,0.0174 1.15614,-0.30122 1.41196,1.84448 0.56138,4.70869 -0.54449,1.8335 -1.82542,3.65135 -2.57288,3.65135 -0.23636,0 -0.42974,0.15875 -0.42974,0.35278 0,0.57529 -0.66939,0.40309 -1.30111,-0.33471 z m 2.00666,-0.90001 c 0,-0.097 -0.0794,-0.17639 -0.17639,-0.17639 -0.097,0 -0.17639,0.0794 -0.17639,0.17639 0,0.097 0.0794,0.17639 0.17639,0.17639 0.097,0 0.17639,-0.0794 0.17639,-0.17639 z m 1.05833,-1.41111 c 0,-0.097 -0.0794,-0.17639 -0.17638,-0.17639 -0.097,0 -0.17639,0.0794 -0.17639,0.17639 0,0.097 0.0794,0.17639 0.17639,0.17639 0.097,0 0.17638,-0.0794 0.17638,-0.17639 z m -2.46944,-3.88056 c 0,-0.097 -0.0794,-0.17639 -0.17639,-0.17639 -0.097,0 -0.17639,0.0794 -0.17639,0.17639 0,0.097 0.0794,0.17639 0.17639,0.17639 0.097,0 0.17639,-0.0794 0.17639,-0.17639 z m 101.07083,18.87375 c -4.36885,-0.90138 -8.38542,-3.25722 -11.86227,-6.95759 -1.94096,-2.06573 -2.80829,-3.4367 -5.11527,-8.08547 -1.52791,-3.07888 -3.24529,-6.69948 -3.81641,-8.04577 -0.74308,-1.75167 -1.62094,-3.03036 -3.0868,-4.49622 -1.12663,-1.12663 -2.04842,-2.12779 -2.04842,-2.22481 0,-0.097 0.59531,-0.17579 1.32292,-0.17507 2.9623,0.003 5.12379,2.44855 8.80746,9.96511 3.80146,7.75692 6.09426,10.99512 9.85203,13.91436 2.71548,2.10953 9.28662,4.48959 14.40429,5.21722 1.68174,0.23911 1.71941,0.2684 0.9054,0.70405 -0.97183,0.5201 -7.14608,0.64157 -9.36293,0.18419 z m -47.44861,-10.28954 c -0.6791,-0.19139 -1.7487,-0.84131 -2.37689,-1.44426 -3.45068,-3.31206 -2.67406,-9.3957 1.50962,-11.82556 1.97919,-1.1495 5.19537,-0.97927 6.96242,0.36852 4.52768,3.45343 3.00757,11.41793 -2.46954,12.93893 -1.55963,0.43312 -1.97045,0.42885 -3.62561,-0.0376 z m -71.11962,-14.0189 c -1.80518,-0.81982 -2.84001,-2.24404 -3.34651,-4.60581 -0.97711,-4.55609 1.81484,-8.48033 6.03343,-8.48033 6.7087,0 8.23262,10.24083 1.94869,13.09523 -1.8005,0.81785 -2.81913,0.81585 -4.63561,-0.009 z m -41.32829,37.38807 c 0.66662,-0.068 0.1019,-2.40349 -1.83954,-7.6076 -1.15726,-3.1021 -2.2695,-5.69532 -2.47164,-5.7627 -0.20214,-0.0674 -0.2629,-0.29178 -0.13504,-0.49867 0.12787,-0.20689 -0.0602,-0.59021 -0.418,-0.85182 -0.35777,-0.2616 -0.54078,-0.47564 -0.40668,-0.47564 0.1341,0 -0.054,-0.29783 -0.41803,-0.66185 -0.39131,-0.39132 -0.62023,-1.04091 -0.56004,-1.58924 0.056,-0.51006 -0.0264,-0.84815 -0.18313,-0.75129 -0.35648,0.22032 -0.78442,-0.82781 -0.51558,-1.26279 0.10909,-0.17652 0.0209,-0.32095 -0.19607,-0.32095 -0.21693,0 -0.29941,-0.15371 -0.1833,-0.34159 0.11612,-0.18788 -0.0939,-1.02132 -0.46671,-1.85209 -0.37281,-0.83076 -1.57571,-3.85423 -2.67311,-6.71881 -4.64597,-12.12754 -7.57447,-18.43243 -8.73216,-18.79987 -0.76372,-0.24239 -1.70305,0.38049 -1.70305,1.12932 0,0.27195 1.36513,3.94345 3.03363,8.15889 1.6685,4.21544 3.91143,9.88693 4.98429,12.60332 1.07286,2.71639 3.33914,8.27264 5.03617,12.34722 5.22557,12.5466 5.7905,13.62951 6.98937,13.39791 0.32672,-0.0631 0.7131,-0.1269 0.85862,-0.14175 z m -6.43819,-18.9006 c 0,-0.097 -0.0794,-0.17639 -0.17639,-0.17639 -0.097,0 -0.17639,0.0794 -0.17639,0.17639 0,0.097 0.0794,0.17639 0.17639,0.17639 0.097,0 0.17639,-0.0794 0.17639,-0.17639 z m 197.26719,-3.34961 c 0.50991,-0.5811 1.20885,-1.95225 1.55318,-3.04699 0.5496,-1.7473 0.57363,-2.29629 0.19674,-4.49414 -1.13276,-6.60573 -8.41457,-15.21931 -18.57129,-21.96777 -5.37618,-3.57211 -14.68921,-8.59288 -15.93894,-8.59288 -0.25736,0 -2.01513,-0.72354 -3.90616,-1.60788 -4.48561,-2.09769 -10.86555,-4.7885 -14.55074,-6.13693 -0.67909,-0.24849 -1.71097,-0.65629 -2.29305,-0.90623 -2.23772,-0.96085 -14.39664,-4.85247 -20.46111,-6.54884 -3.4925,-0.97694 -7.06437,-1.99431 -7.9375,-2.26084 -5.11767,-1.56218 -26.04523,-6.47601 -30.78497,-7.22837 -1.11846,-0.17754 -2.19265,-0.42111 -2.38706,-0.54127 -0.19442,-0.12016 -0.78744,-0.28843 -1.31781,-0.37395 -1.3541,-0.21832 -8.17956,-1.46541 -11.54766,-2.10989 -2.90994,-0.55681 -10.73737,-2.37475 -16.93333,-3.93279 -1.94028,-0.48791 -6.14715,-1.49373 -9.34861,-2.23515 -3.20146,-0.74143 -6.85271,-1.58789 -8.11389,-1.88102 -6.70386,-1.55816 -14.30194,-3.0751 -17.10972,-3.41593 -5.35106,-0.64955 -11.57551,-0.81956 -12.98422,-0.35464 -1.8022,0.59478 -3.31885,2.459 -3.61676,4.44562 -0.4646,3.09815 3.40108,10.60979 8.24337,16.01823 l 2.17906,2.43382 1.3108,-0.36193 c 0.72093,-0.19906 3.61923,-1.46426 6.44066,-2.81156 8.50175,-4.05979 16.29042,-5.97878 22.12677,-5.45162 2.78983,0.25198 3.07788,-0.4757 0.55379,-1.39896 -2.09912,-0.76782 -6.01388,-2.29448 -8.55486,-3.33619 -1.06715,-0.4375 -2.33715,-0.95019 -2.82222,-1.13933 -0.48507,-0.18914 -1.12007,-0.45553 -1.41111,-0.59198 -0.29104,-0.13646 -1.71979,-0.61066 -3.175,-1.0538 -6.0491,-1.84205 -8.30885,-2.60111 -8.63203,-2.89954 -0.20266,-0.18715 0.14796,-0.21764 0.86151,-0.0749 1.07222,0.21444 1.14806,0.18156 0.69639,-0.30196 -0.27878,-0.29844 -0.70615,-0.46615 -0.94971,-0.37269 -0.24355,0.0935 -0.44283,-0.0263 -0.44283,-0.26616 0,-1.68139 20.56871,4.03965 33.69028,9.3707 9.57275,3.88924 15.25187,5.52356 44.09722,12.69016 25.04884,6.22336 39.20574,10.07139 45.68472,12.4177 5.58202,2.02149 7.07979,2.47479 9.70138,2.93614 2.57294,0.45279 8.01054,1.96355 9.70139,2.6954 2.96595,1.28374 6.98615,3.45348 8.78355,4.74057 3.89668,2.79035 8.41869,7.64637 10.02481,10.76525 0.90222,1.75201 5.59782,7.9089 7.4125,9.7193 1.58848,1.58473 2.77394,2.40064 6.2347,4.29112 2.62673,1.43489 3.2676,2.34565 3.12269,4.43778 -0.0683,0.98525 -0.0404,1.79126 0.0619,1.79114 0.10232,-1.2e-4 0.60323,-0.47567 1.11313,-1.05677 z m -6.06165,-17.46428 c 0,-0.097 0.0794,-0.17639 0.17639,-0.17639 0.097,0 0.17638,0.0794 0.17638,0.17639 0,0.097 -0.0794,0.17639 -0.17638,0.17639 -0.097,0 -0.17639,-0.0794 -0.17639,-0.17639 z m -1.41111,-1.05833 c 0,-0.097 0.0794,-0.17639 0.17638,-0.17639 0.097,0 0.17639,0.0794 0.17639,0.17639 0,0.097 -0.0794,0.17639 -0.17639,0.17639 -0.097,0 -0.17638,-0.0794 -0.17638,-0.17639 z m -11.28889,-10.23056 c 0,-0.097 0.0794,-0.17639 0.17639,-0.17639 0.097,0 0.17639,0.0794 0.17639,0.17639 0,0.097 -0.0794,0.17639 -0.17639,0.17639 -0.097,0 -0.17639,-0.0794 -0.17639,-0.17639 z m -161.8074,-46.27268 c 0.12935,-0.12935 0.34102,-0.12935 0.47037,0 0.12936,0.12935 0.0235,0.23519 -0.23518,0.23519 -0.25871,0 -0.36454,-0.10584 -0.23519,-0.23519 z m 15.22948,54.56296 c 2.07838,-4.87011 6.58615,-12.9073 10.403,-18.54817 2.55958,-3.78275 3.41155,-5.29588 3.02724,-5.37644 -0.56749,-0.11895 -2.74236,1.28911 -4.78842,3.10015 -0.6791,0.60109 -2.10785,1.76178 -3.175,2.57931 -1.06715,0.81753 -2.01965,1.57329 -2.11667,1.67946 -0.94648,1.03579 -6.28077,3.31546 -9.525,4.07062 -2.49603,0.581 -7.55745,0.76765 -9.525,0.35125 -1.79648,-0.3802 -3.52777,-1.01399 -3.52777,-1.29146 0,-0.13242 -0.33348,-0.32797 -0.74106,-0.43455 -0.4265,-0.11154 -0.63851,-0.3597 -0.49947,-0.58466 0.13286,-0.21498 0.56155,-0.28932 0.95264,-0.16519 0.39109,0.12413 2.60754,0.21578 4.92544,0.20367 4.78673,-0.025 8.31369,-0.78469 12.50943,-2.69447 2.76179,-1.2571 7.90622,-4.6622 10.37303,-6.86592 2.30233,-2.05679 4.72158,-3.1853 6.85689,-3.19856 1.76339,-0.011 1.81548,-0.0438 4.78143,-3.01907 1.64923,-1.6544 4.15506,-3.89815 5.56851,-4.98611 1.45967,-1.12354 2.43714,-2.11086 2.26261,-2.2854 -0.80489,-0.80489 -2.91582,-0.72023 -4.96438,0.19911 -2.12679,0.95445 -2.69794,0.93856 -5.1598,-0.14351 -0.38806,-0.17057 -1.57868,-0.54615 -2.64583,-0.83464 -8.02563,-2.16958 -15.41075,-0.92624 -26.22598,4.41537 -7.24286,3.57723 -9.97557,4.40779 -16.81291,5.11 -2.75296,0.28274 -3.88055,0.66559 -3.88055,1.31756 0,0.97652 0.85074,2.87606 2.65731,5.9333 1.01683,1.72076 2.20874,4.04039 2.64871,5.15475 2.98518,7.561 9.54076,14.64419 16.07009,17.36345 2.86948,1.19505 8.59773,2.57427 9.0291,2.17399 0.13349,-0.12388 0.81858,-1.5746 1.52241,-3.22384 z m 137.35621,-23.8125 c 0.0481,-2.9957 -0.74038,-4.40686 -4.58349,-8.20312 -7.31685,-7.22764 -19.24482,-14.71627 -31.22063,-19.60099 -2.70442,-1.10309 -5.04628,-2.00561 -5.20414,-2.00561 -0.15785,0 -0.78725,-0.21951 -1.39866,-0.4878 -1.95612,-0.85837 -7.02919,-2.47132 -7.81442,-2.48454 -0.19403,-0.003 -0.96698,-0.20857 -1.71767,-0.45624 -3.29864,-1.08826 -13.10542,-3.0442 -24.38789,-4.8641 -6.67715,-1.07705 -19.66169,-1.36367 -24.51805,-0.5412 -3.21479,0.54444 -3.97649,0.97338 -5.92819,3.3383 -0.83516,1.01198 -1.90389,2.25561 -2.37494,2.76363 -0.47106,0.50801 -1.33281,1.67476 -1.915,2.59278 -1.22469,1.93114 -1.0339,2.46909 0.99316,2.80033 0.70811,0.11571 2.31935,0.45617 3.58053,0.75659 1.26118,0.30041 3.4043,0.75221 4.7625,1.00399 2.32548,0.43109 7.56671,1.50048 11.11249,2.26734 0.87313,0.18883 2.2225,0.4428 2.99862,0.56438 2.28493,0.35795 13.2969,2.57279 14.64027,2.94461 0.6791,0.18796 1.71097,0.41954 2.29306,0.51461 1.85003,0.30219 16.5707,3.94876 20.99027,5.19967 1.26118,0.35696 3.95993,1.10964 5.99723,1.67261 2.03729,0.56297 6.08541,1.85334 8.99583,2.86747 2.91041,1.01413 5.76791,1.97048 6.35,2.12522 4.90795,1.30469 20.58414,7.50281 26.10555,10.32173 l 1.76389,0.90054 0.22284,-0.93676 c 0.12257,-0.51523 0.23814,-1.88927 0.25684,-3.05344 z m 0.20111,-9.4368 c 0.0908,-0.43656 0.26124,-1.905 0.3788,-3.2632 0.21994,-2.54121 2.19438,-20.68821 2.45652,-22.57777 2.90098,-20.91112 3.80957,-25.3861 5.5251,-27.21219 1.10557,-1.17682 1.48755,-0.69085 1.22343,1.55646 l -0.22831,1.94254 2.74909,-2.78368 c 3.86832,-3.917 5.78583,-5.40809 7.16046,-5.56815 0.64547,-0.0752 1.37501,-0.41211 1.6212,-0.74881 0.58677,-0.80245 1.543,-0.41977 1.52871,0.61179 -0.014,1.01404 -1.01046,2.14708 -3.88958,4.4229 -2.3685,1.8722 -3.5076,3.04006 -3.5076,3.59615 0,0.18321 1.7451,0.3138 3.96875,0.29698 6.0295,-0.0456 10.01844,1.28215 12.97685,4.31944 3.18744,3.27242 3.60808,6.64552 1.04606,8.3883 -1.06978,0.72771 -1.53152,0.817 -3.45654,0.66849 -2.17503,-0.16781 -2.21173,-0.15622 -1.74252,0.55044 1.07048,1.61223 6.38541,2.18236 8.91754,0.95658 1.96503,-0.95126 2.70199,-2.10882 2.68565,-4.21843 -0.0179,-2.30366 -1.22184,-6.94857 -2.64092,-10.18839 -0.64947,-1.48279 -1.64282,-3.8866 -2.20745,-5.34181 -1.05053,-2.70753 -7.07255,-13.13396 -8.96824,-15.52746 -0.5798,-0.73206 -1.05418,-1.43415 -1.05418,-1.5602 0,-0.12605 -0.5416,-0.81758 -1.20355,-1.53673 -0.66195,-0.71915 -1.91076,-2.26005 -2.77512,-3.42422 -2.76318,-3.72157 -10.70524,-10.94829 -15.23295,-13.86092 -1.36632,-0.87894 -2.88109,-1.85871 -3.36616,-2.17726 -0.48507,-0.31856 -1.72397,-0.93621 -2.75312,-1.37256 -2.17586,-0.92254 -5.88503,-0.98714 -8.97598,-0.15633 -1.01906,0.27391 -2.17034,0.58459 -2.5584,0.69041 -0.38805,0.10581 -1.14211,0.21538 -1.67569,0.24348 -0.53358,0.0281 -0.97014,0.18373 -0.97014,0.34584 0,0.16211 -0.19844,0.22393 -0.44097,0.13737 -0.24254,-0.0866 -0.88988,0.0694 -1.43854,0.34662 -0.54867,0.2772 -1.34242,0.53598 -1.76389,0.57505 -0.42148,0.0391 -1.68346,0.51155 -2.8044,1.04997 -1.12095,0.53841 -2.18154,0.89027 -2.35688,0.7819 -0.17533,-0.10836 -0.42519,-0.0249 -0.55524,0.18556 -0.13004,0.21042 -0.46676,0.2942 -0.74825,0.18619 -0.28149,-0.10802 -0.43032,-0.0645 -0.33072,0.0966 0.0996,0.16115 -0.48747,0.61921 -1.30459,1.0179 -4.20119,2.04983 -6.47645,3.08195 -6.94734,3.15149 -0.28752,0.0425 -0.57856,0.2446 -0.64676,0.44919 -0.0682,0.2046 -0.38858,0.37552 -0.71195,0.37984 -0.32338,0.004 -0.98484,0.31828 -1.46991,0.69771 -0.48507,0.37942 -0.98624,0.69339 -1.11371,0.69771 -0.12747,0.004 -1.83589,0.96034 -3.79649,2.12451 -1.96059,1.16417 -3.64902,2.11667 -3.75205,2.11667 -0.10303,0 -1.04689,0.635 -2.09747,1.41111 -1.05059,0.77611 -1.98688,1.41111 -2.08066,1.41111 -0.29304,0 -9.28271,6.18808 -9.7374,6.70278 -0.097,0.10981 -1.04951,0.82419 -2.11666,1.5875 -1.06716,0.7633 -2.01966,1.47611 -2.11667,1.584 -0.097,0.1079 -0.57326,0.44999 -1.05833,0.7602 -0.928,0.59347 -6.60612,5.36504 -12.74308,10.70857 -5.18868,4.51784 -21.83365,21.06292 -21.8312,21.70017 0.002,0.461 0.85544,0.51579 6.28144,0.4031 24.23777,-0.50335 56.95309,8.30059 76.04249,20.4636 6.06826,3.86646 8.86012,5.7388 8.98877,6.02827 0.0647,0.14552 0.32926,0.26458 0.58796,0.26458 0.2587,0 0.52797,0.1728 0.59837,0.38401 0.16045,0.48134 5.65879,6.22713 6.00949,6.27994 0.14183,0.0214 0.33214,-0.31836 0.42293,-0.75492 z m -6.14885,-7.84931 c 0,-0.097 0.0794,-0.17639 0.17639,-0.17639 0.097,0 0.17639,0.0794 0.17639,0.17639 0,0.097 -0.0794,0.17639 -0.17639,0.17639 -0.097,0 -0.17639,-0.0794 -0.17639,-0.17639 z m -142.6398,-12.40601 c -0.12935,-0.12936 -0.34102,-0.12936 -0.47037,0 -0.12935,0.12935 -0.0235,0.23518 0.23519,0.23518 0.2587,0 0.36453,-0.10583 0.23518,-0.23518 z m 122.88425,-70.49676 c 0,-0.097 -0.0794,-0.17639 -0.17639,-0.17639 -0.097,0 -0.17639,0.0794 -0.17639,0.17639 0,0.097 0.0794,0.17639 0.17639,0.17639 0.097,0 0.17639,-0.0794 0.17639,-0.17639 z m 5.99722,-1.76389 c 0,-0.097 -0.0794,-0.17639 -0.17639,-0.17639 -0.097,0 -0.17639,0.0794 -0.17639,0.17639 0,0.097 0.0794,0.17639 0.17639,0.17639 0.097,0 0.17639,-0.0794 0.17639,-0.17639 z m -168.04827,113.47366 c -0.54688,-0.60429 -1.19365,-2.19586 -3.80215,-9.35634 -1.04555,-2.87007 -1.2828,-4.31465 -0.64376,-3.9197 0.23556,0.14558 0.28931,-0.0824 0.15015,-0.63692 -0.28829,-1.14861 0.47185,-1.41742 2.02169,-0.71494 1.09193,0.49492 1.44024,1.08071 3.74234,6.29392 2.64749,5.99535 2.96986,7.42572 1.89321,8.40008 -0.8584,0.77684 -2.63016,0.742 -3.36148,-0.0661 z m -3.75449,-12.22644 c 0,-0.097 -0.0794,-0.17639 -0.17639,-0.17639 -0.097,0 -0.17639,0.0794 -0.17639,0.17639 0,0.097 0.0794,0.17639 0.17639,0.17639 0.097,0 0.17639,-0.0794 0.17639,-0.17639 z m 1.41111,-1.05834 c 0,-0.097 -0.0794,-0.17639 -0.17639,-0.17639 -0.097,0 -0.17639,0.0794 -0.17639,0.17639 0,0.097 0.0794,0.17639 0.17639,0.17639 0.097,0 0.17639,-0.0794 0.17639,-0.17639 z m -15.169439,2.29306 c 0,-0.2587 0.10583,-0.36454 0.23518,-0.23519 0.12935,0.12936 0.12935,0.34102 0,0.47037 -0.12935,0.12936 -0.23518,0.0235 -0.23518,-0.23518 z m -0.70556,-1.23472 c 0,-0.097 0.0794,-0.17639 0.17639,-0.17639 0.097,0 0.17639,0.0794 0.17639,0.17639 0,0.097 -0.0794,0.17639 -0.17639,0.17639 -0.097,0 -0.17639,-0.0794 -0.17639,-0.17639 z m 13.052779,-1.94028 c 0,-0.2587 0.10583,-0.36454 0.23518,-0.23519 0.12935,0.12936 0.12935,0.34102 0,0.47037 -0.12935,0.12936 -0.23518,0.0235 -0.23518,-0.23518 z m 2.82222,-1.23472 c 0,-0.097 0.0794,-0.17639 0.17639,-0.17639 0.097,0 0.17639,0.0794 0.17639,0.17639 0,0.097 -0.0794,0.17639 -0.17639,0.17639 -0.097,0 -0.17639,-0.0794 -0.17639,-0.17639 z"
       id="path130"
       clip-path="url(#clipPath139)"
       transform="matrix(0.99820824,0,0,0.99820824,0.39744651,-0.34445821)" /></g></svg>
