<?xml version="1.0" encoding="UTF-8" standalone="no"?>
<!-- Created with Inkscape (http://www.inkscape.org/) -->

<svg
   width="252.6944mm"
   height="256.74722mm"
   viewBox="0 0 252.69441 256.74719"
   version="1.1"
   id="svg1"
   xml:space="preserve"
   xmlns="http://www.w3.org/2000/svg"
   xmlns:svg="http://www.w3.org/2000/svg"><defs
     id="defs1"><clipPath
       clipPathUnits="userSpaceOnUse"
       id="clipPath6"><path
         id="path7"
         style="fill:#ff0000;fill-opacity:1;fill-rule:nonzero;stroke:none;stroke-width:0.264583"
         d="M -175.07778,-16.057127 V 287.55793 H 124.54631 V -16.057127 Z m 132.7459,202.572647 c 0.210643,0.005 0.427212,0.0169 0.650089,0.0367 2.23823,0.19855 4.475655,0.4031 6.717938,0.55346 1.973313,0.11308 0.986628,0.0436 2.958475,0.20825 3.181295,0.26563 4.740125,1.85116 4.950601,3.46956 4.949923,1.63749 3.796379,7.35609 -2.592089,6.81354 -3.228716,-0.27422 -1.569593,-0.1301 -4.979024,-0.43357 -4.228209,-0.39317 -8.460616,-0.76265 -12.666927,-1.35341 -6.647387,-0.93358 -5.930551,-7.21034 0.03204,-7.20421 0.04685,5e-5 0.0972,0.004 0.144695,0.005 0.687229,-1.21692 2.304132,-2.15435 4.784204,-2.09548 z" /></clipPath><clipPath
       clipPathUnits="userSpaceOnUse"
       id="clipPath76"><path
         id="path77"
         style="fill:#ff0000;fill-opacity:1;fill-rule:nonzero;stroke:none;stroke-width:0.264583"
         d="M -133.83107,-122.52355 V 173.82063 H 122.97289 V -122.52355 Z M 13.574404,98.948202 c 2.788179,0.0507 4.135003,2.063798 3.398242,4.077268 0.199805,0.45372 0.374906,0.96736 0.517797,1.54461 1.07913,4.35948 0.671079,8.891 0.311608,13.31495 -0.351859,3.06036 -0.147137,1.57974 -0.604097,4.44366 -0.359666,2.25418 -1.333846,3.66838 -2.455664,4.32532 0.105138,0.36595 0.224724,0.72888 0.324528,1.09554 0.6273,2.23652 0.575201,4.47401 0.39429,6.75514 -0.137303,1.73129 -0.688065,2.99533 -1.427303,3.82199 -0.112477,0.41601 -0.170275,0.80219 -0.311092,1.25212 -0.184975,0.59102 -0.413327,1.1061 -0.670242,1.55856 0.741137,-0.23134 1.446982,-0.38145 2.064991,-0.37517 4.085002,0.0415 5.222724,4.75435 -0.02223,7.27138 -4.46677,2.14368 -9.303523,3.34693 -14.11903492,4.40955 -4.40876268,0.85156 -8.89238128,1.33053 -13.38264308,1.19269 -5.804014,-0.17807 -6.736297,-5.00293 -3.065447,-6.67298 -2.072987,-0.65744 -4.042852,-1.62261 -4.128947,-3.14709 -0.02802,-0.49633 0.0026,-0.90355 0.0341,-1.30897 -1.976731,-0.003 -3.95339,2.4e-4 -5.930386,0.003 -0.814031,0 -1.53062,-0.0962 -2.159559,-0.26149 -0.376306,0.19492 -0.742394,0.40783 -1.120862,0.59893 -6.391272,3.22657 -9.625245,-3.24074 -3.234428,-6.46886 1.833438,-0.92611 3.62694,-1.92211 5.414142,-2.92954 -0.877003,-3.87058 -1.368747,-7.83436 -1.323951,-11.80858 0.01651,-1.46304 0.376836,-2.54918 0.864547,-3.41426 -1.247357,-1.79999 -0.223805,-4.63069 3.842661,-5.68855 3.11826,-0.81116 6.282901,-1.39515 9.473837,-1.82211 -1.259816,-0.12657 -2.516182,-0.30233 -3.764627,-0.50177 -1.477002,-0.21985 -2.935575,-0.54305 -4.407482,-0.7891 -1.14214,-0.22954 -0.588502,-0.12004 -1.660882,-0.3297 -3.350244,-0.65501 -4.783278,-2.61088 -4.608504,-4.32997 -0.200179,-1.7721 1.333365,-3.52972 4.663799,-3.59461 v -5.3e-4 c 0.20954,-0.004 0.426035,-0.002 0.649571,0.008 1.77111,0.0772 3.528708,0.28204 5.26428,0.64027 1.655035,0.33225 3.314115,0.6481 4.955251,1.04439 1.244759,0.34858 2.51628,0.54538 3.7997689,0.6723 0.025956,0.002 0.052073,0.002 0.078034,0.004 0.4990888,-0.0371 0.9984105,-0.0743 1.4965495,-0.11317 1.346872,-0.12588 2.6913231,-0.25136 4.0457464,-0.24236 1.1278499,-0.0444 2.2567291,-0.10772 3.37498791,-0.26872 0.75719517,-0.11591 1.51142439,-0.25483 2.25722659,-0.4284 0.3616431,-0.12394 0.7240561,-0.24538 1.083138,-0.37775 0.3360393,-0.12388 0.6107589,-0.12825 0.9250071,-0.20723 0.1281086,-0.045 0.2583895,-0.0825 0.3855085,-0.13074 1.9825018,-0.7681 3.9540551,-1.56464 5.9510551,-2.29443 1.050809,-0.383992 1.999634,-0.542639 2.826703,-0.527616 z M 0.70283723,110.39557 c -0.45566013,0.0949 -0.90775367,0.208 -1.36890919,0.2744 -1.16638124,0.15534 -2.34111274,0.24237 -3.51761424,0.26251 0.4031694,0.0896 0.8047355,0.18876 1.2025101,0.308 0.1014836,0.0304 0.1982549,0.075 0.2986907,0.10852 0.4205235,-0.21824 0.9206601,-0.35072 1.4898318,-0.37156 0.39885139,-0.0146 0.83259872,0.0278 1.29449508,0.13023 0.22468681,-0.12213 0.44967525,-0.24374 0.67437529,-0.36587 -0.0326284,-0.11319 -0.058211,-0.22834 -0.0733795,-0.34623 z m 10.24433577,1.02474 c -0.76023,0.21437 -1.5189569,0.4343 -2.2696301,0.68006 -0.031261,0.62207 -0.2256075,1.28373 -0.6464723,1.94355 0.6236891,0.43248 1.2549743,1.04482 1.8634525,1.86862 0.2674939,0.36214 0.4748849,0.75712 0.7188199,1.13223 0.154519,-1.86707 0.314174,-3.74736 0.33383,-5.62446 z m 64.566086,3.39773 c 1.50346,0.0187 3.129182,1.24994 3.928441,4.04678 0.257931,0.90255 0.823497,1.65871 1.488797,2.30735 0.856321,0.95375 1.845738,1.76777 2.801898,2.61638 1.458581,1.46408 2.789203,3.04608 4.169772,4.58215 1.315059,1.44746 2.571226,2.91698 3.543967,4.61884 0.0053,0.01 0.0082,0.0206 0.01344,0.0305 0.734605,-0.43313 1.446276,-0.65634 2.094962,-0.69195 3.016182,-0.16561 4.69137,3.55377 1.187525,7.32306 -1.69471,1.82311 -3.657862,3.33908 -5.68751,4.7651 -0.777873,0.49914 -1.607691,0.90075 -2.418456,1.33842 0.165478,1.44344 -0.672182,3.24303 -2.956409,4.73096 -1.354556,0.88234 -2.690448,1.79306 -4.075203,2.6288 -2.075008,1.20078 -4.233777,2.27962 -6.540687,2.96259 -2.077586,0.62971 -4.169056,1.29987 -6.359301,1.36374 -1.872114,0.0897 -3.746989,0.0368 -5.620845,0.0501 h -5.1108 -5.524728 c -7.160125,0 -7.160125,-7.23315 0,-7.23315 h 1.347722 c 0.29438,-0.0541 0.5212,-0.1588 0.84801,-0.18656 1.106628,-0.094 2.200932,-0.28334 3.292822,-0.48421 0.456121,-0.98163 1.356053,-1.98213 2.807581,-2.83962 1.078018,-0.63685 2.158119,-1.26923 3.212209,-1.94561 1.962647,-1.29302 3.840588,-2.72135 5.893696,-3.86902 1.367169,-0.76424 2.559646,-1.07097 3.526915,-1.04128 2.216811,0.068 3.246223,1.90266 2.479953,4.04059 1.105688,-0.48686 2.206929,-0.98346 3.283003,-1.53739 2.619811,-1.23728 5.288743,-2.38548 7.764385,-3.9026 0.246153,-0.17184 0.487463,-0.34958 0.730705,-0.52503 -0.126915,-0.50614 -0.277693,-0.9939 -0.512114,-1.46554 -0.647621,-1.25778 -1.721077,-2.20654 -2.600875,-3.29644 -1.199229,-1.33472 -2.369312,-2.69496 -3.592029,-4.00803 -1.098706,-0.97599 -2.227236,-1.92181 -3.215306,-3.01428 -1.300821,-1.39063 -2.459913,-2.93896 -3.045293,-4.77801 -1.289469,-4.05101 0.646382,-6.61405 2.843754,-6.58667 z m -95.086705,4.28035 c -0.465643,0.10748 -0.930899,0.21773 -1.394745,0.33435 0.171958,0.64334 0.283575,1.36624 0.279569,2.2071 -0.01267,2.6582 0.205063,5.32647 0.670242,7.94732 0.280107,-0.17087 0.565767,-0.33222 0.845429,-0.50385 -0.01897,-0.36223 -0.02445,-0.73164 -0.05529,-1.08985 -0.118034,-2.96491 -0.160888,-5.93314 -0.3452,-8.89507 z m 18.5141159,1.1958 c 0.00497,0.0773 0.00619,0.15612 0.014975,0.23202 -0.1238779,0.22787 -0.2588048,0.44752 -0.3937741,0.66715 0.58900751,0.0447 1.13203305,0.21413 1.64331124,0.45888 -0.37615284,-0.49255 -0.78353709,-0.94642 -1.26452314,-1.35805 z m -6.5422357,14.57068 c -0.046649,0.0755 -0.09888,0.14702 -0.1436608,0.22376 -0.03147,0.054 0.1963367,0.0838 0.1860365,0.0222 -0.017595,-0.10481 -0.026035,-0.14905 -0.042376,-0.24597 z m 13.9236979,6.08439 c -0.2236258,0.5643 -0.5677508,1.09664 -1.1782213,1.50533 0.9079653,0.17659 1.7077452,0.44257 2.2830631,0.84852 0.1405493,-0.0459 0.272804,-0.11448 0.4128956,-0.16174 -0.7336976,-0.43656 -1.2984269,-1.18703 -1.5177374,-2.19211 z" /></clipPath><clipPath
       clipPathUnits="userSpaceOnUse"
       id="clipPath127"><path
         id="path128"
         style="fill:#ff0000;fill-opacity:1;fill-rule:nonzero;stroke:none;stroke-width:0.264583"
         d="M -112.24796,-126.55676 V 185.58027 H 148.5754 V -126.55676 Z M 46.874626,83.305366 c 1.808208,0 3.616317,1.790192 3.616317,5.370214 v 5.232238 c 0.0627,2.146078 -0.111291,4.285324 -0.245462,6.424932 -0.136289,2.02485 -0.190703,4.04985 -0.104904,6.07715 0.192061,1.91863 0.527714,3.82569 0.876432,5.72213 0.304242,2.00862 0.765826,3.9858 1.180806,5.97276 0.41642,1.86142 0.967934,3.68703 1.421104,5.53972 0.25287,0.86996 0.117097,0.46495 0.396356,1.22008 0.186108,0.50319 0.223428,0.93098 0.309544,1.38441 4.425355,2.23251 2.751262,7.58433 -3.415813,6.40477 -3.104732,-0.59371 -6.256094,-0.76586 -9.40821,-0.85576 -3.81635,0.009 -7.630525,0.17062 -11.44478,0.28216 -1.12776,0.0333 -2.255837,0.0512 -3.383772,0.0754 -0.908129,0.5548 -1.966518,0.57724 -2.88613,0.0641 -0.03584,5.3e-4 -0.07165,0.002 -0.107487,0.003 -0.03142,5.3e-4 -0.0525,-0.009 -0.08268,-0.009 -0.32049,0.14732 -0.641715,0.29301 -0.962215,0.44028 -0.262501,0.12062 -0.518089,0.22111 -0.770496,0.31265 -0.876996,0.71434 -1.945576,0.85817 -2.911967,0.46405 -2.943479,-0.21613 -4.295167,-2.77187 -2.550232,-5.0524 -2.22e-4,-0.028 -0.0078,-0.0483 -0.0078,-0.0765 v -6.3469 c -0.014,-2.72977 -0.02254,-5.45666 0.112657,-8.18348 0.135676,-2.32533 0.233519,-4.6523 0.299723,-6.98046 0.046,-1.80459 0.06926,-3.60958 0.08527,-5.41465 -0.0258,-1.02998 0.04009,-2.054459 0.138491,-3.078883 0.0044,-0.04602 0.02191,-0.07504 0.02687,-0.120406 C 15.992671,97.193438 15.83363,95.70984 16.656834,94.418959 10.68718,93.678613 10.992573,87.32947 17.739972,87.32947 h 3.885033 5.177462 5.913334 c 1.498505,0.05847 2.984222,-0.03228 4.475178,-0.161748 1.252041,-0.18606 2.49041,-0.398671 3.697968,-0.782897 1.001961,-0.32245 0.492366,-0.161472 1.527553,-0.482142 0.510384,-0.158096 0.938446,-0.174371 1.394749,-0.23771 0.672338,-1.56932 1.86623,-2.35903 3.063377,-2.35903 z" /></clipPath><clipPath
       clipPathUnits="userSpaceOnUse"
       id="clipPath139"><path
         id="path140"
         style="fill:#ff0000;fill-opacity:1;fill-rule:nonzero;stroke:none;stroke-width:0.264583"
         d="M 97.168006,-339.91235 V -44.578961 H 346.46958 V -339.91235 Z m 14.326254,94.53944 c 1.76488,0.006 3.77708,1.78446 4.35839,5.31699 0.32911,1.99994 0.60308,4.00817 0.88884,6.01462 1.02527,-1.2445 2.22305,-1.83589 3.28403,-1.8402 2.05627,-0.008 3.59454,2.17302 2.34611,6.00222 -0.0197,0.0606 -0.0413,0.12046 -0.0615,0.18087 0.31698,0.91799 0.41757,2.09982 0.17777,3.54139 -0.2164,1.30085 -0.62011,2.56457 -1.0263,3.8163 -1.34183,4.13496 -4.42238,4.92072 -6.12882,3.38016 -1.93867,0.62007 -4.30523,-0.86149 -4.65605,-4.82762 -0.16862,-1.90632 -0.33891,-3.81275 -0.57464,-5.71231 -0.45291,-3.52522 -1.07719,-7.02592 -1.48208,-10.55543 -0.40801,-3.55672 1.10935,-5.32303 2.87424,-5.31699 z" /></clipPath><clipPath
       clipPathUnits="userSpaceOnUse"
       id="clipPath170"><path
         id="path171"
         style="fill:#ff0000;fill-opacity:1;fill-rule:nonzero;stroke:none;stroke-width:0.264583"
         d="M 88.756261,-299.52331 V 17.880567 H 410.91541 V -299.52331 Z M 363.24287,-220.863 c 0.90345,-0.008 1.97628,0.23856 3.18532,0.82218 3.39402,1.63831 6.49674,3.81197 9.57823,5.96449 3.22509,2.31448 6.37511,4.73585 9.43663,7.26261 1.87296,1.50796 3.75989,2.99047 5.54284,4.6054 1.76167,1.54167 3.42262,3.17283 4.95419,4.94388 1.19316,1.48882 2.47049,2.9032 3.73311,4.33204 1.08043,1.20022 2.09423,2.45631 2.94299,3.83026 0.82616,1.73429 1.48968,3.55524 1.93786,5.42344 1.67031,6.96258 -5.76469,8.62686 -7.05745,1.5844 -0.21127,-1.15093 -0.75649,-2.20765 -1.10278,-3.32021 -0.52141,-1.02678 -1.43909,-1.82952 -2.14042,-2.72904 -1.28368,-1.45272 -2.58234,-2.89095 -3.79617,-4.40386 -1.32794,-1.55409 -2.79577,-2.95456 -4.33049,-4.3031 -1.69875,-1.54267 -3.51006,-2.94207 -5.29113,-4.38733 -2.90883,-2.40671 -5.90918,-4.70386 -8.97258,-6.91017 -2.63017,-1.83963 -5.2759,-3.68008 -8.12096,-5.17746 -5.14813,-2.7095 -4.41412,-7.50431 -0.49919,-7.53753 z m -17.79788,14.64304 c 0.81097,-0.004 1.74701,0.16947 2.79104,0.57154 4.59168,1.76834 8.99191,4.00303 13.38523,6.20892 0.37082,0.1876 0.72266,0.4088 1.09088,0.601 0.4155,-0.11565 0.91038,-0.17484 1.48572,-0.16691 0.65984,0.009 1.42523,0.10601 2.29753,0.30644 2.35556,0.54125 4.30075,1.95473 6.16344,3.42614 -1.07651,-2.72314 0.34142,-4.84679 2.57866,-4.84311 1.28683,0.002 2.83083,0.70484 4.29689,2.3952 2.44776,2.82227 4.79147,5.70892 6.96391,8.74934 1.67944,2.35043 1.72027,4.43615 0.89969,5.70663 1.5344,1.02281 3.07247,2.04019 4.58422,3.09645 1.80695,1.14136 3.31928,2.58833 4.72631,4.18269 0.96689,1.16625 2.0869,2.25988 2.79262,3.61942 0.19542,0.37651 0.34592,0.77482 0.51882,1.1622 0.40259,1.55462 0.27207,0.76263 0.38706,2.3766 0.0637,0.89436 -0.044,1.45412 -0.26977,1.7756 0.11753,0.20753 0.23421,0.41574 0.35608,0.62063 3.66003,6.15399 -2.6856,9.845 -6.25234,3.63648 -0.83209,-1.44832 -1.62388,-2.92102 -2.35437,-4.42351 -0.84839,-1.84687 -1.70402,-3.69055 -2.54093,-5.54229 -0.078,-0.17246 -0.14713,-0.34128 -0.2119,-0.5085 -0.415,-0.33988 -0.82071,-0.68775 -1.29707,-0.97255 -2.35545,-1.64933 -4.79565,-3.17384 -7.14841,-4.82761 -3.27895,-2.27743 -6.61384,-4.47194 -9.95804,-6.65231 -4.00886,-2.60003 -8.08797,-5.09434 -12.3548,-7.25434 -4.08429,-2.05175 -8.1752,-4.1242 -12.42663,-5.81101 -5.61546,-2.22804 -4.88331,-7.4129 -0.50384,-7.43314 z m -225.34594,21.50101 c 3.05551,-0.16929 4.03285,3.80875 0.35915,7.72563 -1.17612,1.25397 -2.32696,2.59265 -3.45922,3.90674 -1.44062,1.57315 -2.77631,3.23874 -4.13618,4.88135 -1.14319,1.4697 -2.29319,2.93265 -3.46335,4.38113 -0.8717,1.2084 -1.86054,2.32105 -2.81017,3.46594 -0.80685,0.95022 -1.53489,1.96075 -2.32234,2.92695 -0.80594,1.00684 -1.52017,2.08004 -2.22519,3.15847 -0.20511,0.28103 -0.29499,0.51935 -0.30179,0.78909 -0.18033,7.15787 -8.659963,5.5717 -7.093102,-1.4149 0.267098,-1.19094 0.644303,-2.32859 1.347721,-3.34243 0.846108,-1.28566 1.701136,-2.56663 2.670121,-3.76463 0.806525,-0.98525 1.5446,-2.0236 2.37453,-2.98999 0.93132,-1.109 1.88214,-2.2008 2.7342,-3.37448 1.18855,-1.47082 2.35327,-2.95822 3.51813,-4.44779 1.39067,-1.67946 2.758,-3.38112 4.2292,-4.99142 1.55862,-1.80675 3.07205,-3.68494 4.92528,-5.20227 1.38505,-1.13397 2.63451,-1.65096 3.65301,-1.70739 z m 30.4953,3.26389 c 4.11093,0.0973 5.25218,4.81763 -0.0434,7.22591 -1.93926,0.8819 -3.80509,1.88928 -5.66115,2.92437 0.381,1.39299 -0.23993,3.26566 -2.43035,4.98678 -2.3369,1.83618 -4.71607,3.61825 -7.08845,5.40845 -2.84267,2.19936 -5.66068,4.43162 -8.41086,6.74584 -2.22216,1.84972 -4.46469,3.67225 -6.66213,5.55109 -1.67979,1.46598 -3.37138,2.91821 -5.06067,4.37337 -1.40892,1.30469 -2.82191,2.592 -4.12274,4.00648 -1.07181,1.16531 -2.16701,1.83049 -3.17087,2.10529 -0.88357,6.53411 -7.65001,5.87099 -7.10344,-1.07177 0.0596,-0.75732 0.12015,-1.51435 0.21239,-2.26859 0.18237,-1.4495 0.31176,-2.90657 0.57051,-4.34444 0.56059,-2.2771 1.55106,-4.35314 3.32124,-5.95312 1.46716,-1.38711 2.94871,-2.75912 4.4943,-4.05919 1.45063,-1.21601 2.91967,-2.40825 4.4111,-3.57394 2.2284,-1.75259 4.48249,-3.46927 6.81044,-5.08961 3.1083,-2.16601 6.29001,-4.21936 9.5343,-6.17689 3.28252,-2.04598 6.49796,-4.19789 9.78648,-6.23476 2.38673,-1.38679 4.82146,-2.65715 7.33495,-3.79873 1.22236,-0.55516 2.32966,-0.77899 3.27836,-0.75654 z" /></clipPath></defs><g
     id="layer1"
     transform="translate(-15.526044,293.02155)"><path
       style="fill:#000000"
       d="m 137.96429,-36.768102 c -1.09261,-0.265145 -7.76011,-2.172772 -14.81666,-4.23917 -17.10327,-5.00842 -23.44375,-6.843534 -48.81342,-14.127975 -11.83569,-3.398405 -22.31319,-6.542146 -23.28333,-6.98609 -2.16842,-0.992288 -4.4495,-3.232229 -5.5342,-5.434373 l -0.8158,-1.656247 -0.0687,-20.059457 c -0.0378,-11.032706 -0.11717,-20.099086 -0.17639,-20.147516 -0.0592,-0.0484 -4.87017,-1.06893 -10.691,-2.26778 -11.62805,-2.39489 -14.14079,-3.09802 -15.91946,-4.45468 -2.1327,-1.62669 -2.91175,-4.26829 -1.8429,-6.24893 0.43784,-0.81134 6.84585,-8.17326 20.70188,-23.78359 4.38456,-4.93969 5.75422,-6.25908 7.23194,-6.96653 1.00264,-0.48001 4.83829,-1.52944 8.52366,-2.33206 3.68537,-0.80263 6.75261,-1.51126 6.8161,-1.57474 0.0635,-0.0635 -0.75954,-2.31339 -1.82893,-4.99979 -3.61045,-9.06975 -4.57729,-14.43994 -4.59492,-25.52186 -0.0135,-8.47203 0.33691,-12.19435 1.75999,-18.69722 0.71402,-3.26275 3.75205,-12.96288 4.87008,-15.54964 0.1854,-0.42895 -0.35461,-0.85074 -2.35488,-1.83933 -10.02816,-4.95618 -18.45327,-14.31576 -20.38979,-22.65131 -0.58768,-2.52961 -0.64731,-2.602 -2.89319,-3.51229 -2.50842,-1.01671 -5.65321,-3.34755 -6.70258,-4.96778 -0.43193,-0.66692 -0.90986,-1.21455 -1.06207,-1.21695 -0.42426,-0.007 0.0994,3.36073 1.04167,6.69841 1.60551,5.68704 5.12508,11.96668 9.7562,17.40712 2.47075,2.90251 2.90386,4.14667 1.67289,4.80547 -1.91404,1.02436 -3.49503,-0.11175 -7.43889,-5.34565 -6.72446,-8.92403 -10.17724,-19.58319 -8.83683,-27.28039 0.92639,-5.31975 3.97032,-11.04116 8.25927,-15.52424 1.65716,-1.73217 2.42125,-2.28453 3.16023,-2.28453 1.08521,0 1.48638,0.64139 1.17562,1.87956 -0.11314,0.45081 -1.56616,2.8504 -3.22894,5.33243 -3.47468,5.18667 -5.14551,8.31918 -5.18539,9.72168 -0.0866,3.04447 5.16101,6.95835 12.87004,9.59908 2.81572,0.96452 3.73815,1.11542 6.78642,1.11017 2.78808,-0.005 3.9454,-0.16905 5.5195,-0.78332 4.41763,-1.72391 8.39796,-5.11578 12.16366,-10.36537 1.13982,-1.58896 2.48962,-3.32369 2.99957,-3.85496 0.50994,-0.53127 0.85877,-1.03434 0.77517,-1.11794 -0.0836,-0.0836 0.27464,-0.4876 0.7961,-0.89778 1.23909,-0.97467 3.205,-0.96429 5.55004,0.0293 3.28533,1.39198 5.61956,3.3646 10.72659,9.06484 l 1.38837,1.54964 4.62732,-3.05965 4.62732,-3.05966 -0.49875,-1.4136 c -1.61483,-4.57693 -5.9609,-11.12892 -9.57003,-14.42746 -3.93984,-3.60079 -9.54153,-6.74588 -14.10856,-7.9213 -2.74312,-0.706 -8.16707,-0.72187 -10.817,-0.0316 -5.16805,1.34611 -7.73952,3.46378 -14.47966,11.9244 -7.62252,9.56825 -11.86054,13.28725 -15.15467,13.2987 l -0.99113,0.003 1.37327,-1.6757 c 0.7553,-0.92163 3.18568,-3.98828 5.40086,-6.81477 2.21517,-2.8265 5.36913,-6.85106 7.00881,-8.94347 4.99646,-6.37606 8.95146,-9.51336 14.30827,-11.35004 2.4776,-0.84949 3.35266,-0.96723 7.22856,-0.97258 5.26986,-0.007 9.13031,0.81949 13.59425,2.91136 8.63927,4.0485 14.90942,10.2743 19.11599,18.98078 l 1.91021,3.95363 2.00436,-0.90992 c 12.41037,-5.63394 24.09194,-8.34714 37.98768,-8.82314 13.73237,-0.4704 28.41326,2.37833 40.53778,7.86609 2.31091,1.04596 4.2342,1.86103 4.27396,1.81128 0.0398,-0.0498 0.3532,-0.96359 0.69653,-2.03075 2.80602,-8.72195 9.90027,-17.56328 17.53019,-21.84729 7.15124,-4.01526 19.17945,-5.46448 25.45968,-3.06753 3.47913,1.32786 6.71392,3.61637 10.13486,7.17008 3.28137,3.40871 5.56574,6.45244 7.51844,10.01763 1.26485,2.30934 3.17894,7.37434 2.7868,7.37434 -0.61873,0 -5.12871,-4.46213 -7.62289,-7.54201 -9.67539,-11.94746 -14.7877,-15.01075 -23.33181,-13.98041 -4.25186,0.51274 -7.46951,1.49807 -11.30854,3.46299 -5.88015,3.00962 -12.69603,10.82913 -15.55793,17.8488 -0.66749,1.63723 -1.25002,3.52334 -1.29451,4.19134 -0.079,1.18602 0.0251,1.28604 4.43023,4.25611 3.9714,2.67764 4.59396,2.98981 5.20347,2.60917 0.38079,-0.23781 0.69235,-0.64169 0.69235,-0.89751 0,-0.25582 0.15875,-0.36701 0.35278,-0.24709 0.19403,0.11991 0.35278,-0.0163 0.35278,-0.30277 0,-0.53301 3.68161,-5.2469 4.26376,-5.45927 0.17729,-0.0647 0.32235,0.0637 0.32235,0.2854 0,0.22165 0.16645,0.30012 0.3699,0.17438 0.25325,-0.15651 0.24072,-0.38428 -0.0397,-0.7222 -0.31949,-0.38496 -0.28444,-0.54163 0.15926,-0.71189 0.3129,-0.12007 0.5689,-0.37141 0.5689,-0.55854 0,-0.18713 0.23812,-0.57836 0.52917,-0.8694 0.47037,-0.47037 0.52916,-0.46277 0.52916,0.0684 0,0.49117 0.0942,0.51937 0.52917,0.1584 0.63964,-0.53086 0.70655,-1.19191 0.0882,-0.87144 -0.24253,0.1257 0.25493,-0.42745 1.10547,-1.22921 0.85054,-0.80177 2.00107,-1.69286 2.55673,-1.9802 1.09852,-0.56807 3.83298,-0.54864 3.83381,0.0272 2.9e-4,0.19586 0.32418,0.55824 0.71976,0.80528 0.39559,0.24705 0.63273,0.58918 0.52697,0.76029 -0.10575,0.17111 -0.0645,0.36435 0.0917,0.42943 0.15616,0.0651 0.97026,1.38833 1.80911,2.94055 0.83885,1.55222 1.90269,3.32757 2.3641,3.94521 0.46141,0.61765 0.83892,1.23728 0.83892,1.37697 0,0.61194 4.96463,4.89721 6.99676,6.03932 5.14645,2.89245 11.3786,3.90739 17.00452,2.7693 4.41748,-0.89363 9.88804,-3.28559 11.23999,-4.91459 0.39168,-0.47195 0.41142,-1.12726 0.10505,-3.48757 -0.39288,-3.02675 -0.60165,-3.58147 -4.43545,-11.78561 -2.34655,-5.0215 -2.69581,-6.31837 -1.91254,-7.10164 1.20303,-1.20303 2.17421,-0.2109 5.33997,5.45518 2.41784,4.32744 3.82194,7.56104 4.89462,11.27212 0.67794,2.34543 0.80364,3.61061 0.80207,8.07298 -0.002,4.69717 -0.11154,5.6857 -0.97811,8.79906 -1.68032,6.03694 -4.45515,11.26174 -8.14474,15.33591 -3.20318,3.53707 -4.63145,4.38838 -5.65136,3.36847 -0.96464,-0.96465 -0.64442,-1.88697 1.61527,-4.65236 4.36414,-5.34082 7.10929,-10.91563 8.21505,-16.68302 0.31562,-1.64618 0.64851,-3.35025 0.73976,-3.78681 0.21705,-1.03839 -0.12075,-1.00198 -1.31449,0.1417 -0.53703,0.5145 -2.27537,1.592 -3.863,2.39444 -2.88409,1.45771 -2.887,1.46059 -3.36691,3.33584 -2.33795,9.13555 -9.55016,17.32418 -20.40729,23.17017 -1.3582,0.73131 -2.51335,1.35954 -2.567,1.39605 -0.0537,0.0365 0.372,1.33987 0.9459,2.89636 1.4987,4.06469 3.73722,13.30109 4.46802,18.43557 0.87356,6.13747 0.8796,19.10764 0.0114,24.46681 -0.81068,5.00404 -2.30243,10.25348 -4.07541,14.3413 -0.78513,1.8102 -1.38809,3.32241 -1.33993,3.36047 0.0482,0.0381 2.86571,0.66436 6.26119,1.39177 3.39549,0.72742 6.72924,1.55071 7.40834,1.82955 1.71193,0.70291 2.76099,1.76485 9.70068,9.81982 21.05949,24.44394 19.60968,22.42345 18.19178,25.35245 -0.87732,1.8123 -2.59595,3.07036 -5.55233,4.06437 -2.09315,0.70378 -14.6489,3.5527 -18.81236,4.26857 -1.26118,0.21684 -2.56606,0.47458 -2.89973,0.57273 -0.56343,0.16575 -0.61374,1.66734 -0.70556,21.060174 l -0.0989,20.881698 -0.82129,1.539229 c -1.17133,2.195273 -3.64148,4.45529 -6.20863,5.680477 -1.21717,0.580904 -10.45213,3.372416 -20.52212,6.20336 -10.06999,2.830944 -27.51657,7.770657 -38.77018,10.977139 -11.25361,3.206482 -21.62601,6.052866 -23.04978,6.325297 -3.22502,0.617091 -9.46411,0.593607 -12.09791,-0.04554 z m 9.5713,-3.707206 c 2.56268,-0.404772 11.61758,-2.810854 27.16389,-7.218029 17.92645,-5.081912 36.57339,-10.28008 44.27361,-12.342058 12.71076,-3.403709 12.1169,-3.181873 14.17555,-5.295284 1.62729,-1.670579 3.0413,-4.420905 2.53381,-4.928397 -0.0883,-0.08834 -1.82034,0.376043 -3.84888,1.031972 -3.64426,1.17837 -18.20226,5.331391 -25.38409,7.241427 -3.83914,1.021034 -12.93163,3.537939 -31.39722,8.691115 -16.80212,4.688951 -17.84084,4.971166 -23.45972,6.373911 -8.82741,2.203746 -6.40076,2.616265 -38.45278,-6.53678 -15.13416,-4.32184 -32.27916,-9.214127 -38.09999,-10.87175 -10.00284,-2.848549 -24.6691,-7.199901 -26.01736,-7.719124 -0.77872,-0.299888 -0.82775,0.659239 -0.12024,2.352293 1.2454,2.980269 3.14963,4.22098 8.85149,5.767245 8.11968,2.201948 65.32826,18.559325 75.47636,21.580602 7.62927,2.271371 9.90022,2.568679 14.30557,1.872857 z m -7.56444,-21.533653 c -1.55449,-6.067768 -6.55741,-16.995081 -9.9386,-21.707761 -2.3892,-3.330043 -8.02712,-9.851158 -9.15703,-10.591508 -0.77125,-0.50534 -0.90966,-0.47554 -2.1361,0.4599 -1.95796,1.493415 -4.85368,1.400395 -11.2441,-0.36119 -2.71639,-0.7488 -6.613,-1.82037 -8.65913,-2.38125 -3.57592,-0.98023 -6.34503,-1.31093 -6.32384,-0.75521 0.006,0.14552 1.21475,0.97896 2.68711,1.85208 3.17718,1.8841 5.19755,4.014809 6.91723,7.294995 1.74709,3.332467 2.42563,6.235179 2.40795,10.300814 -0.0225,5.172343 -1.26588,8.881897 -4.65424,13.885616 -0.754,1.113466 -1.37091,2.093326 -1.37091,2.177467 0,0.08414 1.60726,0.652324 3.5717,1.262628 l 3.57171,1.109644 1.0144,-0.971862 c 1.24782,-1.195485 1.26096,-1.54487 0.0989,-2.630448 -1.38655,-1.295343 -1.90675,-2.5661 -1.90675,-4.657799 0,-1.515942 0.20989,-2.210842 1.04422,-3.457102 1.61514,-2.412592 3.22391,-3.323676 5.86887,-3.323676 1.85903,0 2.35126,0.137462 3.15812,0.881944 1.91696,1.768779 2.45765,4.413511 1.15115,5.630702 -1.19635,1.11457 -1.65741,0.923139 -1.45382,-0.603619 0.3474,-2.605142 -2.17404,-4.20621 -5.19754,-3.300348 -2.53335,0.759012 -3.57993,3.516627 -2.285,6.020746 2.1148,4.089566 6.99443,3.02013 13.3755,-2.931419 l 2.07956,-1.939583 -1.64691,-1.879211 c -1.82704,-2.084756 -2.51316,-3.979947 -2.18465,-6.034365 0.45221,-2.827978 2.47096,-4.487902 5.45805,-4.487902 2.38381,0 3.80184,0.628734 5.39161,2.390546 3.61037,4.001104 2.22224,9.529212 -2.68528,10.693879 -1.34787,0.319879 -2.28632,0.882897 -3.80483,2.282674 -4.6734,4.307999 -7.94712,6.361034 -10.75735,6.746219 -1.03406,0.141733 -1.96822,0.533348 -2.47058,1.035704 -1.46849,1.468495 -1.55842,1.417232 5.54221,3.159461 2.03729,0.499875 7.19666,1.945166 11.46527,3.211758 4.26862,1.266591 9.03111,2.654828 10.58334,3.084971 l 2.82222,0.782078 0.0979,-5.093851 c 0.0701,-3.649836 -0.0519,-5.678354 -0.43036,-7.155722 z m -16.53965,0.68485 c -0.25067,-0.958572 1.18843,-2.419791 2.38317,-2.419791 0.62938,0 1.0475,0.306671 1.43209,1.050372 0.52911,1.023198 0.51979,1.056237 -0.36015,1.277089 -0.49683,0.124695 -0.99543,0.134609 -1.108,0.02203 -0.11258,-0.112578 -0.64357,0.02226 -1.17997,0.299648 -0.90604,0.468533 -0.98889,0.452252 -1.16714,-0.22935 z m 1.17354,-0.479513 c 0,-0.09701 -0.0794,-0.176389 -0.17639,-0.176389 -0.097,0 -0.17639,0.07937 -0.17639,0.176389 0,0.09701 0.0794,0.176389 0.17639,0.176389 0.097,0 0.17639,-0.07937 0.17639,-0.176389 z m 2.35185,-0.411574 c -0.12935,-0.129352 -0.23518,-0.02352 -0.23518,0.235185 0,0.258704 0.10583,0.364537 0.23518,0.235185 0.12935,-0.129352 0.12935,-0.341018 0,-0.47037 z m 25.34702,10.870425 c 3.4893,-0.941589 8.36806,-2.251277 10.8417,-2.910416 2.47363,-0.65914 4.49526,-1.277811 4.49251,-1.374824 -0.003,-0.09701 -0.14634,-0.399651 -0.31909,-0.672527 -0.26478,-0.418225 -0.56969,-0.424576 -1.94169,-0.04044 -2.4202,0.677617 -5.89451,0.303389 -7.58803,-0.817328 -2.00142,-1.324481 -3.85111,-3.344399 -4.89809,-5.34887 -0.75434,-1.444205 -0.92355,-2.253643 -0.93361,-4.466163 -0.0111,-2.44814 0.0882,-2.845335 1.05589,-4.223481 0.5875,-0.836663 1.75211,-2.00189 2.58803,-2.589391 1.37454,-0.966066 1.78078,-1.068186 4.24933,-1.068186 2.29039,0 2.92508,0.134027 3.94536,0.83313 2.68515,1.839896 4.27617,5.341489 3.54137,7.794027 -0.84419,2.817668 -3.38467,4.839581 -5.62417,4.47616 -1.5058,-0.244357 -3.24172,-1.823978 -3.24172,-2.949835 0,-1.345116 0.97432,-1.377491 2.31612,-0.07696 l 1.21128,1.17402 0.97033,-0.720389 c 2.04361,-1.517214 2.44442,-4.04277 0.95209,-5.999307 -2.30571,-3.022938 -6.44284,-2.928051 -8.52959,0.19563 -2.37894,3.561061 0.87807,10.067104 5.68813,11.362318 4.16152,1.120581 10.15008,-2.072572 12.74114,-6.793682 0.89605,-1.632685 1.03222,-2.243093 1.01108,-4.532611 -0.0287,-3.112017 -0.81549,-5.070352 -3.06263,-7.623246 -2.07837,-2.361144 -3.16192,-2.946106 -4.76661,-2.573269 -3.20455,0.744556 -6.01821,0.178234 -10.64959,-2.143503 -1.7322,-0.868366 -3.41471,-2.257882 -6.8937,-5.693244 -2.53123,-2.499483 -4.67436,-4.54404 -4.7625,-4.543461 -0.15808,10e-4 -0.18816,19.903742 -0.0532,35.188527 0.0639,7.242095 0.11752,7.849305 0.69249,7.849305 0.34275,0 3.47806,-0.770391 6.96736,-1.711981 z m 2.26138,-3.252766 c -0.65148,-0.651477 -0.6771,-0.813214 -0.23447,-1.479852 0.86713,-1.305973 1.54695,-1.53852 2.35634,-0.806033 0.86691,0.784538 0.93104,1.703738 0.17184,2.462934 -0.74899,0.748995 -1.41942,0.697245 -2.29371,-0.177049 z m 13.72,-18.494973 c -0.94906,-2.082955 1.47182,-3.70313 2.70989,-1.813597 0.66545,1.015598 0.42362,1.76415 -0.74143,2.29498 -1.25719,0.572816 -1.51709,0.509258 -1.96846,-0.481383 z m 6.86332,15.87642 c 8.18184,-2.339396 8.18084,-2.338679 6.27567,-4.508555 l -1.07487,-1.224202 1.59934,-3.660721 c 5.10039,-11.674309 13.13715,-22.141696 24.16109,-31.46834 1.37909,-1.16677 1.16636,-1.4303 -1.60064,-1.98286 -1.48097,-0.29574 -2.55606,-0.19211 -6.70278,0.64608 l -4.93889,0.99831 0.11873,0.97238 c 0.10338,0.84673 -0.64879,1.7421 -5.82084,6.929077 -3.26675,3.276186 -6.43609,6.193169 -7.04298,6.482183 -0.96053,0.457429 -1.3168,0.461263 -2.7511,0.0296 -0.90621,-0.272732 -2.00528,-0.730191 -2.44236,-1.016577 -0.75621,-0.495489 -0.87922,-0.429813 -2.54057,1.356436 l -1.74587,1.877137 2.13268,1.733105 c 1.70221,1.383281 2.39648,2.274088 3.43958,4.413253 1.17004,2.399482 1.3069,2.971267 1.3069,5.460096 0,1.528971 -0.24119,3.592139 -0.53599,4.584818 -0.66233,2.230301 -2.77594,4.960243 -5.00887,6.469466 -0.9279,0.627155 -1.74584,1.186538 -1.81764,1.243073 -0.18137,0.14279 0.2794,1.899538 0.49822,1.899538 0.0978,0 2.11884,-0.554986 4.49119,-1.233301 z m 19.17573,-35.640097 c -0.32604,-0.849651 0.15475,-1.448681 0.56885,-0.708731 0.21921,0.391718 0.21851,0.730464 -0.002,0.950955 -0.22147,0.22147 -0.42178,0.135879 -0.56687,-0.242224 z m -7.49296,32.4298 c 0.30137,-0.115646 1.49511,-2.094597 2.65275,-4.397669 3.03103,-6.030065 5.38684,-9.864516 8.98128,-14.618453 3.02906,-4.006188 9.26359,-10.553442 14.46034,-15.185689 l 3.12488,-2.78544 -1.71377,-0.44444 c -2.14398,-0.556 -3.4812,-0.57258 -4.47099,-0.0554 -1.39134,0.72693 -6.36389,5.113687 -9.60367,8.472312 -11.1538,11.562929 -20.09131,29.225094 -14.78866,29.225094 0.44545,0 1.05647,-0.09462 1.35784,-0.210265 z m 12.6331,-24.201955 c -0.68323,-0.683224 -0.48923,-1.63389 0.46037,-2.256098 0.71215,-0.466615 0.98611,-0.494052 1.41112,-0.141325 1.04181,0.864631 0.42898,2.820756 -0.88371,2.820756 -0.31045,0 -0.75495,-0.1905 -0.98778,-0.423333 z m 9.33685,-8.631296 c -0.41923,-0.41923 -0.24897,-1.78365 0.27705,-2.22021 0.61664,-0.51177 1.81175,-0.19639 2.09974,0.5541 0.4722,1.23053 -1.45877,2.584127 -2.37679,1.66611 z m -12.58241,30.116583 c 2.23132,-0.675294 4.47625,-1.323557 4.98872,-1.440586 0.72814,-0.166274 1.6802,-1.369318 4.35617,-5.504503 5.3337,-8.242202 12.09987,-15.582825 19.19642,-20.82621 2.15284,-1.590651 3.91425,-3.003214 3.91425,-3.139014 0,-0.44449 -8.30407,-2.26338 -9.24974,-2.02603 -1.61449,0.40521 -5.28989,3.424182 -10.34034,8.49355 -5.41121,5.431479 -8.32974,9.001693 -11.99201,14.669727 -2.25746,3.493838 -6.16513,10.515807 -6.16513,11.078552 0,0.29843 -0.0434,0.309147 5.29166,-1.305486 z m 1.13683,-2.208348 c -1.88023,-1.316968 0.0362,-4.402801 2.06127,-3.319023 0.99277,0.531314 0.92955,2.596784 -0.10159,3.319023 -0.43123,0.302043 -0.87216,0.54917 -0.97984,0.54917 -0.10768,0 -0.54861,-0.247127 -0.97984,-0.54917 z m 11.56697,-18.319858 c -0.66026,-0.795564 -0.14575,-2.248567 0.8881,-2.508047 1.63274,-0.409791 2.57211,1.28212 1.37596,2.478267 -0.69833,0.698329 -1.69829,0.711482 -2.26406,0.02978 z m 10.3862,-8.094813 c -0.98423,-1.502128 0.64998,-3.205124 2.25261,-2.347424 0.91267,0.48844 1.14767,1.591997 0.52756,2.477334 -0.69898,0.99793 -2.08357,0.933232 -2.78017,-0.12991 z M 97.84546,-65.483367 c 2.69537,-3.043224 4.53458,-8.132682 4.53458,-12.548033 0,-4.937651 -1.87481,-9.500627 -5.12351,-12.469753 -2.21706,-2.026266 -5.89256,-4.329837 -8.20889,-5.144817 -1.66424,-0.58554 -1.62559,-0.61678 -1.99461,1.61238 -0.2734,1.65153 -2.07886,5.266019 -3.18087,6.368026 l -0.85502,0.85502 2.36131,-0.804793 c 4.62233,-1.575402 8.55117,-0.852772 11.52345,2.119501 1.52388,1.523886 1.93112,2.214728 2.46232,4.17715 1.14353,4.224552 -0.1994,8.438249 -3.47942,10.917289 -6.00912,4.541699 -13.605,2.354224 -16.5263,-4.759271 -0.6098,-1.484888 -0.96735,-3.00492 -0.96735,-4.11244 0,-0.980957 -0.16201,-1.756903 -0.36683,-1.756903 -0.52541,0 -3.20317,1.40294 -3.78139,1.981158 -0.76845,0.768447 -0.0727,0.565725 2.03156,-0.591952 1.06715,-0.587101 1.70215,-0.84039 1.41111,-0.562863 -0.29104,0.277526 -1.56104,1.035503 -2.82222,1.684394 -1.26118,0.64889 -2.34886,1.212209 -2.41706,1.25182 -0.0682,0.03961 0.48096,1.052124 1.22035,2.250032 0.73939,1.197907 1.60802,3.225472 1.93029,4.505701 l 0.58595,2.327687 2.60343,0.81755 c 1.43188,0.449653 5.5403,1.67022 9.12981,2.712371 7.46152,2.166319 7.26135,2.183036 9.92931,-0.829254 z M 87.56338,-91.789733 c 0,-0.09701 0.0794,-0.176389 0.17638,-0.176389 0.097,0 0.17639,0.07937 0.17639,0.176389 0,0.09701 -0.0794,0.176389 -0.17639,0.176389 -0.097,0 -0.17638,-0.07937 -0.17638,-0.176389 z m 122.22697,25.056901 c 0.78189,-0.252104 3.7235,-1.118834 6.5369,-1.926068 2.81341,-0.807234 6.62341,-1.925803 8.46667,-2.485708 1.84326,-0.559906 4.38326,-1.276536 5.64444,-1.592511 1.26118,-0.315975 2.88837,-0.729758 3.61598,-0.919516 l 1.32291,-0.345016 v -9.734241 -9.734238 l -1.37108,0.1839 c -1.53841,0.206342 -5.12558,2.194689 -8.53099,4.728679 -5.611,4.175184 -15.78372,15.511719 -18.80854,20.96036 l -1.01756,1.832937 1.35982,-0.255104 c 0.7479,-0.140307 1.99955,-0.46137 2.78145,-0.713474 z m 7.12487,-3.243477 c -0.43529,-0.435282 -0.2399,-1.528703 0.27316,-1.528703 0.66787,0 0.95753,0.505126 0.68977,1.202887 -0.22832,0.595 -0.57608,0.712668 -0.96293,0.325816 z m 9.74055,-7.966897 c -1.01965,-1.317767 -0.68059,-3.8085 0.61265,-4.500625 1.03499,-0.553908 2.65474,-0.40871 3.29166,0.29507 1.48766,1.643847 -0.034,4.646527 -2.35473,4.646527 -0.66461,0 -1.36192,-0.198437 -1.54958,-0.440972 z m -86.0018,2.469444 -0.24442,-8.202082 -2.82885,-4.938889 c -1.55586,-2.716389 -3.63045,-6.050137 -4.61018,-7.408337 -2.01542,-2.79394 -6.19746,-7.23194 -6.81484,-7.23194 -0.44509,0 -1.80935,1.67187 -2.73477,3.35139 -0.32073,0.58208 -0.82814,1.39786 -1.12759,1.81283 -0.51913,0.71943 -0.43297,0.87532 1.85378,3.35401 3.60224,3.904585 5.43603,6.164356 7.66829,9.449576 2.36234,3.476661 5.95454,10.531015 7.60196,14.92872 0.63599,1.697742 1.22941,3.086805 1.3187,3.086805 0.0893,0 0.0524,-3.690937 -0.0821,-8.202083 z m -68.67979,4.23465 c 0.0974,-1.176914 -0.0951,-1.537876 -1.75895,-3.297112 -2.51923,-2.663713 -4.03474,-3.474436 -8.43534,-4.512491 -6.21079,-1.465057 -8.75508,-2.998754 -12.06531,-7.272963 l -0.95625,-1.234722 0.11857,5.764439 c 0.0892,4.336708 0.23569,5.836819 0.59143,6.056674 0.26006,0.16073 2.3894,0.795423 4.73186,1.410429 5.3315,1.399769 11.93026,3.324665 13.78402,4.020876 0.77611,0.291482 1.96674,0.49768 2.64583,0.458218 1.1568,-0.06722 1.24163,-0.155161 1.34414,-1.393348 z m 21.13349,-0.468379 c 5.29262,-3.101466 5.28558,-10.557664 -0.0125,-13.260555 -3.15215,-1.608108 -9.07442,-0.07006 -11.08802,2.879626 -1.6624,2.435204 -0.73461,6.821703 1.94099,9.17686 2.88858,2.542625 6.14485,2.970678 9.15955,1.204069 z m -4.44498,-2.871094 c -1.43612,-0.707462 -2.65912,-3.044972 -2.12011,-4.052128 0.57134,-1.067554 1.78571,-0.748953 3.14035,0.8239 l 1.25685,1.45931 1.11648,-0.577358 c 0.61407,-0.317546 1.26223,-0.837774 1.44035,-1.156061 0.452,-0.80768 1.12232,-0.279186 1.12232,0.884859 0,1.083641 -0.46352,1.781443 -1.75419,2.640827 -1.10721,0.737229 -2.6758,0.728513 -4.20205,-0.02335 z m 40.08749,1.085114 c 2.28423,-2.512604 -0.62244,-7.534127 -4.36215,-7.535992 -3.50559,-0.0017 -4.41221,4.935277 -1.33704,7.280829 2.21741,1.691299 4.30847,1.784919 5.69919,0.255163 z m -56.70903,-4.185152 c 0,-0.09701 -0.0794,-0.176389 -0.17638,-0.176389 -0.097,0 -0.17639,0.07937 -0.17639,0.176389 0,0.09701 0.0794,0.176389 0.17639,0.176389 0.097,0 0.17638,-0.07937 0.17638,-0.176389 z m -0.68139,-3.919898 c 3.24201,-0.961902 5.34004,-2.248366 7.92772,-4.86111 3.04927,-3.078792 4.90137,-6.455444 5.48748,-10.004519 0.22769,-1.37867 0.3214,-2.74792 0.20825,-3.04278 -0.18638,-0.4857 -0.90999,-0.76211 -3.85803,-1.47372 l -0.97014,-0.23418 -0.003,2.59588 c -0.005,3.42833 -1.02425,5.631225 -3.96327,8.562035 -3.12515,3.116421 -6.09743,4.521508 -9.99771,4.72622 l -2.96095,0.155411 -2.22704,-1.450977 c -3.50675,-2.284737 -4.30731,-3.286547 -4.30731,-5.390132 0,-1.581807 0.13479,-1.891357 1.28094,-2.941717 0.89708,-0.82211 1.87601,-1.29743 3.26672,-1.58614 2.47178,-0.51314 4.1786,-1.83627 4.02608,-3.12102 -0.21225,-1.78789 -4.95638,-2.26038 -9.38851,-0.93504 -3.75203,1.12197 -5.99804,4.34594 -5.61477,8.059525 0.51813,5.020123 4.50277,8.942251 11.01565,10.842827 2.74585,0.801287 7.55295,0.848716 10.07833,0.09944 z m 96.95276,-2.124979 c 2.31014,-1.151188 3.69434,-2.988601 4.66913,-6.197885 0.92815,-3.05573 0.78724,-3.492775 -0.99289,-3.079592 -4.1376,0.960364 -6.3979,-0.19545 -9.78678,-5.004513 -5.25639,-7.45921 -6.19972,-8.86162 -6.19972,-9.21692 0,-0.20801 -0.60026,-1.18638 -1.33391,-2.17415 -0.73366,-0.98777 -2.11076,-2.98657 -3.06024,-4.44178 -0.94948,-1.45521 -2.01603,-3.04271 -2.37011,-3.52778 -0.35408,-0.48507 -1.26216,-1.76146 -2.01795,-2.83643 -0.75578,-1.07497 -1.62897,-2.16597 -1.94042,-2.42445 -0.50879,-0.42226 -0.56694,-0.25972 -0.57299,1.60171 -0.004,1.13942 -0.1053,7.2334 -0.22578,13.54218 l -0.21904,11.4705 1.6473,1.34984 c 0.90602,0.74242 3.03168,2.733568 4.72369,4.424784 6.00285,6.000016 8.51602,7.421153 13.14949,7.435713 2.18246,0.0069 3.00239,-0.159877 4.53022,-0.921227 z m -13.84308,-11.3572 c -0.32112,-0.35483 -0.58385,-0.90653 -0.58385,-1.226 0,-0.47773 0.16064,-0.51977 0.90491,-0.2368 1.70601,0.64862 2.5018,0.42977 3.11184,-0.8558 0.31315,-0.65991 0.56936,-1.45366 0.56936,-1.76389 0,-0.77667 0.60348,-0.7084 1.04592,0.11832 1.13516,2.12106 -0.48299,4.6093 -2.99752,4.6093 -0.97301,0 -1.66338,-0.21719 -2.05066,-0.64513 z m -6.56194,-12.56099 c -0.23103,-0.27836 -0.36953,-1.02956 -0.30778,-1.66932 0.0877,-0.90849 0.32877,-1.23888 1.10102,-1.5088 1.32367,-0.46267 2.15555,0.094 2.29851,1.53801 0.14001,1.41432 -0.43964,2.14624 -1.69977,2.14624 -0.53457,0 -1.16096,-0.22776 -1.39198,-0.50613 z m 31.52189,21.812868 c 0.30486,-0.116985 2.11878,-1.982298 4.03093,-4.145139 1.91215,-2.162841 4.13209,-4.646809 4.93319,-5.519939 1.65776,-1.8068 1.81628,-2.27338 0.68166,-2.00635 -0.43656,0.10275 -2.18281,0.47004 -3.88055,0.8162 -2.34488,0.47812 -3.08681,0.76619 -3.08681,1.19852 0,2.373527 -2.214,6.34163 -3.53832,6.34163 -0.93103,0 -1.2538,-0.717737 -0.42073,-0.935588 0.91406,-0.239031 1.58272,-1.652405 1.03899,-2.196136 -0.21782,-0.217829 -0.58299,-0.396053 -0.81146,-0.396053 -0.22848,0 -0.61305,-0.238125 -0.85459,-0.529167 -0.6921,-0.833936 -1.00964,-0.631196 -1.2432,0.79375 -0.11926,0.727604 -0.50601,2.319106 -0.85945,3.53667 l -0.64262,2.213753 0.93166,0.50615 c 0.97436,0.529343 2.77463,0.684973 3.7213,0.321699 z M 69.83703,-88.509998 c 1.85042,-0.684261 4.81462,-2.787905 6.33193,-4.49368 1.04647,-1.176442 1.86942,-3.912672 1.86942,-6.215622 0,-1.67421 -0.0843,-1.86595 -0.97014,-2.20771 -1.48517,-0.57295 -6.80793,-1.92338 -8.26047,-2.09575 l -1.29311,-0.15345 0.48388,1.35713 c 0.66965,1.87819 0.62828,3.10431 -0.15639,4.63437 -1.199,2.33801 -2.96073,3.41383 -6.70348,4.09354 -1.55399,0.28221 -2.15029,0.800184 -2.15029,1.867825 0,1.345421 0.60422,2.16015 2.21665,2.988944 2.88719,1.484017 5.07206,1.540816 8.632,0.224403 z m 70.64301,-12.873942 v -11.53448 l -1.2974,1.21574 -1.2974,1.21573 1.2974,-1.81116 c 1.18144,-1.64928 1.2974,-2.01975 1.2974,-4.14513 0,-1.2837 -0.13446,-2.33399 -0.2988,-2.33399 -0.47147,0 -1.5252,1.0736 -3.12724,3.1862 -1.49458,1.9709 -3.27674,3.82848 -3.27674,3.41541 0,-0.27578 2.97355,-3.98304 4.16324,-5.1905 1.43538,-1.45682 2.53954,-3.44776 2.53954,-4.5791 0,-0.58594 -0.13108,-1.06534 -0.29129,-1.06534 -0.43827,0 -1.55113,1.32748 -3.25314,3.88055 -0.84077,1.26118 -2.26311,3.24556 -3.16076,4.40972 -0.89765,1.16417 -2.61863,3.58634 -3.8244,5.38261 -2.4516,3.65223 -2.45401,3.72998 -0.17711,5.72912 2.57436,2.26032 6.17678,6.97568 9.77046,12.788966 0.32985,0.533576 0.67544,0.970139 0.76798,0.970139 0.0925,0 0.16826,-5.190515 0.16826,-11.534485 z m -3.175,-8.75024 c 0,-0.097 0.0794,-0.17638 0.17639,-0.17638 0.097,0 0.17639,0.0794 0.17639,0.17638 0,0.097 -0.0794,0.17639 -0.17639,0.17639 -0.097,0 -0.17639,-0.0794 -0.17639,-0.17639 z m 42.68611,16.05139 c 0,-0.19403 -0.15875,-0.35278 -0.35278,-0.35278 -0.19403,0 -0.35278,0.15875 -0.35278,0.35278 0,0.19403 0.15875,0.35278 0.35278,0.35278 0.19403,0 0.35278,-0.15875 0.35278,-0.35278 z m 55.17197,-2.32191 c 0.32451,-0.84566 0.25632,-11.43642 -0.0736,-11.43642 -0.15827,0 -2.73795,0.55931 -5.73263,1.24291 -2.99468,0.6836 -8.33931,1.88158 -11.87695,2.66218 -3.53765,0.7806 -7.02437,1.62433 -7.74828,1.87495 l -1.31619,0.45568 1.57466,0.24904 c 1.6571,0.26208 6.99137,1.47981 16.39133,3.74188 3.10444,0.74708 5.96194,1.43204 6.35,1.52214 1.43313,0.33275 2.22309,0.23128 2.4317,-0.31236 z m -184.06438,-3.89531 c 0.80244,-0.8001 2.23119,-1.74108 3.175,-2.09107 0.94381,-0.34998 1.76384,-0.66921 1.82228,-0.7094 0.21302,-0.14647 -2.0715,-3.49184 -2.57818,-3.7754 -0.64072,-0.35856 -3.73091,-1.30896 -4.27309,-1.3142 -0.27318,-0.003 -0.40376,1.65556 -0.42335,5.37604 -0.0228,4.33204 0.0541,5.24244 0.39502,4.67431 0.23284,-0.38806 1.07989,-1.36018 1.88232,-2.16028 z m 65.2645,2.17489 c 0.40405,-0.28301 2.66054,-3.25957 5.01442,-6.61459 4.30569,-6.13696 11.17145,-15.72821 16.57906,-23.16043 1.60375,-2.2042 2.84397,-4.07958 2.75605,-4.16751 -0.0879,-0.0879 -4.58158,-1.01672 -9.98589,-2.06398 -5.4043,-1.04726 -12.92163,-2.55144 -16.70517,-3.34262 -3.78354,-0.79118 -8.67575,-1.78045 -10.87157,-2.19837 l -3.99241,-0.75986 -1.05604,1.12997 c -1.53075,1.63789 -3.69319,2.63076 -5.77158,2.64996 -2.04718,0.0189 -3.49168,-0.63359 -5.97664,-2.69978 -0.95649,-0.7953 -1.79523,-1.27756 -1.86385,-1.07169 -0.57533,1.72599 -2.58539,4.27725 -3.9818,5.05389 -2.27401,1.26472 -5.22671,1.24055 -7.44355,-0.0609 -3.02041,-1.77327 -5.54434,-4.98696 -7.89508,-10.05274 -0.0321,-0.0691 -5.7821,-1.32357 -14.26598,-3.11239 -3.66449,-0.77265 -4.12725,-0.80235 -5.12491,-0.32893 -1.17891,0.55943 -4.98991,4.66285 -15.71305,16.91874 -7.73038,8.83535 -9.99356,11.66105 -9.80139,12.23754 0.074,0.22196 2.26883,0.83048 4.87743,1.35226 2.60861,0.52179 6.25105,1.29266 8.09431,1.71306 1.84327,0.42039 5.09764,1.14171 7.23195,1.60291 4.43311,0.95797 20.07559,4.54018 32.27916,7.39211 4.55965,1.06557 12.03256,2.81131 16.60646,3.87943 6.7316,1.57199 17.13537,4.13978 23.78659,5.87086 1.65157,0.42984 2.42899,0.38959 3.22348,-0.16689 z m 59.39457,-1.21837 c 11.01162,-2.8493 39.82241,-9.43993 69.49722,-15.89786 11.3957,-2.47997 17.46148,-3.92292 17.76442,-4.22586 0.46371,-0.4637 -3.93371,-5.94751 -17.28826,-21.55934 -6.07443,-7.10117 -7.28878,-8.23138 -8.55276,-7.96015 -4.79615,1.02915 -14.87851,3.42289 -15.63868,3.7129 -0.70673,0.26964 -1.24183,0.9858 -2.02175,2.70589 -1.19222,2.62937 -3.58832,6.11752 -5.36127,7.80469 -1.72751,1.64394 -5.01252,3.51435 -7.01667,3.99514 -3.96223,0.95052 -7.33311,-1.14057 -9.36789,-5.81128 -0.55258,-1.26841 -1.12265,-2.3062 -1.26683,-2.3062 -0.14417,0 -1.27152,0.55483 -2.50522,1.23296 -3.98349,2.1896 -7.19073,1.96316 -9.76147,-0.68918 -0.90333,-0.93199 -1.38615,-1.17303 -2.09345,-1.04513 -0.50563,0.0914 -7.90433,1.49501 -16.44155,3.11906 -8.53722,1.62405 -16.63347,3.15096 -17.99167,3.39313 -3.98666,0.71086 -3.92211,0.65003 -2.57334,2.42488 0.63923,0.84115 1.63848,2.20864 2.22056,3.03886 2.64343,3.7703 7.5773,10.76814 8.94765,12.69069 0.82979,1.16417 3.69222,5.29167 6.36096,9.17223 4.62013,6.71801 5.8939,8.11354 7.09278,7.77075 0.29104,-0.0832 2.98979,-0.788 5.99722,-1.56618 z m -86.25416,0.67459 c 0.12415,-0.20087 -0.17966,-0.35278 -0.70555,-0.35278 -0.52589,0 -0.8297,0.15191 -0.70556,0.35278 0.11992,0.19403 0.43742,0.35278 0.70556,0.35278 0.26814,0 0.58564,-0.15875 0.70555,-0.35278 z m -25.57638,-4.8871 c 0,-0.50913 -0.64849,-0.86034 -2.93127,-1.5875 -4.05949,-1.29312 -4.2183,-1.26978 -3.19121,0.46894 0.48422,0.81973 0.93685,1.03962 2.73402,1.32823 3.24983,0.5219 3.38846,0.51332 3.38846,-0.20967 z m 144.48141,-32.32109 c 3.87476,-1.93651 6.9979,-5.73051 8.66898,-10.53107 2.13652,-6.13764 0.57928,-12.27215 -4.17835,-16.45998 -4.45654,-3.9228 -10.55811,-4.8267 -16.76932,-2.48424 -7.02469,2.64926 -12.79673,12.30389 -11.51979,19.26867 0.96104,5.24184 3.79761,6.9735 7.99596,4.88137 2.09225,-1.04261 3.75371,-2.78398 4.54637,-4.76502 0.30375,-0.75916 0.67944,-1.30171 0.83485,-1.20566 0.15541,0.096 0.65115,1.70353 1.10163,3.57218 1.86864,7.75119 4.65095,10.05705 9.31967,7.72375 z m -61.87147,-1.4089 c 2.00432,-0.47843 8.00984,-1.6913 13.3456,-2.69528 5.33577,-1.00398 12.1547,-2.3191 15.15319,-2.92249 l 5.4518,-1.09708 -0.0945,-1.96424 c -0.24463,-5.08268 2.85512,-12.07934 7.25449,-16.3746 3.98707,-3.89273 7.92356,-5.91725 12.77502,-6.57015 6.49834,-0.87454 12.56636,1.05094 16.83862,5.34316 1.19286,1.19844 2.53059,2.88232 2.97271,3.74195 1.02624,1.99535 1.25945,1.77528 3.13062,-2.9543 3.22404,-8.14909 4.07429,-13.68084 3.79933,-24.71869 -0.28198,-11.3198 -1.81467,-19.77522 -5.54433,-30.58646 -4.01479,-11.63775 -12.48872,-23.18625 -24.16608,-32.93417 -7.73261,-6.45496 -19.09487,-12.42696 -29.28129,-15.39025 -4.30811,-1.25325 -12.54308,-2.85047 -17.40907,-3.3766 -5.51296,-0.59608 -16.83473,-0.24368 -22.80685,0.70987 -14.74128,2.35371 -26.48904,6.96255 -37.21805,14.60125 -16.41799,11.68906 -27.25986,28.32413 -31.3619,48.11971 -2.09118,10.09156 -2.5598,22.92218 -1.12975,30.93185 0.7817,4.37826 2.91229,11.29258 4.35366,14.12872 l 0.83465,1.64232 1.39264,-2.72836 c 3.10217,-6.07753 9.56674,-10.00303 16.55768,-10.05435 4.01918,-0.0295 5.21267,0.25176 8.75068,2.06221 5.35649,2.74099 9.29563,7.3511 11.98283,14.02391 1.06214,2.63749 1.13971,3.12148 1.18496,7.39423 l 0.0484,4.572 16.53542,3.24171 c 9.09448,1.78293 17.72604,3.56077 19.18125,3.95075 3.41794,0.91596 3.21522,0.91859 7.46828,-0.0966 z m -9.19694,-17.84429 c -1.43583,-0.376 -3.33851,-1.11023 -4.22817,-1.63161 -3.60895,-2.11498 -7.00045,-6.19025 -7.87603,-9.46394 -0.34022,-1.27206 -0.84586,-1.98672 -2.2611,-3.1958 -2.19797,-1.87779 -3.9247,-4.42046 -5.25645,-7.74032 -1.24799,-3.11107 -1.41775,-7.41479 -0.40684,-10.31401 1.04011,-2.98298 0.76227,-3.16012 -2.02179,-1.28902 -3.2745,2.20071 -6.16289,3.50991 -9.73851,4.41411 -9.59294,2.42585 -22.81614,-2.05222 -27.90632,-9.45056 -1.54337,-2.24321 -2.97465,-5.30764 -3.51501,-7.52579 -0.79602,-3.26761 -0.58003,-8.4604 0.52278,-12.56872 l 0.95908,-3.57289 -1.25529,-1.366 c -1.61987,-1.76274 -2.31679,-3.25523 -2.31006,-4.9471 0.01,-2.47743 0.43345,-2.54446 2.52723,-0.39988 2.83076,2.89944 3.02596,2.89983 6.06619,0.0119 3.85009,-3.65721 7.50335,-5.92752 11.7993,-7.33265 l 1.83871,-0.60141 -0.0726,-4.3274 c -0.0599,-3.57499 0.0325,-4.48766 0.53138,-5.24913 0.33217,-0.50694 0.90626,-0.92172 1.27576,-0.92172 1.52311,0 2.61598,2.71939 3.08608,7.67914 0.17869,1.88522 0.31896,2.23083 0.95174,2.34502 0.40818,0.0737 1.88796,0.30759 3.28839,0.51986 12.87307,1.95119 22.23829,14.69405 20.60609,28.03781 -0.31048,2.53823 -1.09584,5.09102 -2.78211,9.04317 -0.12418,0.29104 0.7186,-0.31286 1.87283,-1.342 3.0828,-2.74866 5.74145,-3.93536 10.11071,-4.51292 4.5821,-0.60571 6.08826,-0.57311 3.1004,0.0671 -5.25163,1.12525 -10.92324,4.99236 -13.77695,9.39361 -3.48895,5.381 -3.1978,12.86371 0.67204,17.27121 5.3275,6.06769 18.24873,8.53204 28.27436,5.3925 7.82225,-2.44955 11.90116,-6.76069 12.27469,-12.97354 0.4714,-7.84081 -5.01534,-15.18298 -13.77953,-18.43927 -2.58974,-0.9622 -1.68436,-1.10503 2.034,-0.32089 3.19039,0.67281 6.36044,2.24421 8.61307,4.26952 0.98663,0.88707 1.79388,1.52289 1.79388,1.41295 0,-0.10994 -0.45469,-1.35497 -1.01042,-2.76672 -2.44726,-6.21689 -2.60448,-11.02461 -0.55972,-17.11584 1.69858,-5.05999 5.08677,-9.49844 9.61021,-12.58918 2.98509,-2.03961 5.66512,-3.1474 10.01578,-4.14 3.5821,-0.81726 3.79899,-0.98861 3.81155,-3.01123 0.008,-1.30077 1.72389,-6.30428 2.5004,-7.29145 0.40185,-0.51086 1.0276,-0.92884 1.39057,-0.92884 1.55878,0 2.13318,2.48578 1.43582,6.21365 -0.17736,0.94812 -0.37219,2.32341 -0.43294,3.05621 l -0.11047,1.33236 3.4212,1.17594 c 4.86736,1.67303 6.99325,3.05892 11.22696,7.319 l 3.7281,3.75133 1.36161,-0.46809 c 0.74888,-0.25746 1.81706,-0.80483 2.37373,-1.2164 1.47898,-1.09346 2.19234,-0.81454 2.31911,0.90678 0.12793,1.73724 -0.69667,2.92256 -2.95313,4.24493 -0.85893,0.50337 -1.55961,1.0192 -1.55706,1.14628 0.003,0.12708 0.31796,1.73919 0.70092,3.58245 1.23208,5.93028 0.7319,10.69089 -1.62681,15.48382 -1.53714,3.1235 -5.45156,7.39047 -8.42479,9.18356 -5.93012,3.57634 -14.77209,4.82324 -21.4938,3.03106 -3.20561,-0.85469 -7.51816,-3.03837 -10.34696,-5.23922 -1.4067,-1.09443 -2.55764,-1.86716 -2.55764,-1.71718 0,0.14998 0.35047,1.21969 0.77882,2.37713 0.63866,1.72572 0.7815,2.8674 0.79375,6.34399 0.0145,4.10378 -0.0226,4.3159 -1.15827,6.62386 -0.79533,1.61635 -2.06267,3.2919 -3.93472,5.20207 -2.30796,2.35496 -2.83081,3.10659 -3.18341,4.57642 -0.54475,2.27077 -2.65879,5.52666 -4.62444,7.12225 -4.59997,3.73394 -10.60433,4.98521 -16.50594,3.43974 z m 10.28352,-3.81629 c 0.92163,-0.4487 1.67569,-0.94902 1.67569,-1.11183 0,-0.59691 -3.83497,-1.14044 -6.91955,-0.9807 -3.11347,0.16123 -5.94679,1.07038 -5.82409,1.86882 0.11917,0.77546 2.41509,1.21769 5.86448,1.12961 2.84499,-0.0727 3.8521,-0.24798 5.20347,-0.9059 z m -12.64781,-2.91733 c 1.30199,-0.59323 1.46271,-1.36333 0.28453,-1.36333 -0.53022,0 -1.76878,-0.29414 -2.75235,-0.65365 -1.41624,-0.51765 -1.78831,-0.55435 -1.78831,-0.17638 0,0.26249 0.21167,0.47726 0.47037,0.47726 0.25871,0 0.47037,0.22912 0.47037,0.50916 0,0.55661 1.30891,1.6075 2.00218,1.6075 0.23874,0 0.82968,-0.18025 1.31321,-0.40056 z m 17.43215,-0.89417 c 1.22066,-0.93104 1.22556,-0.94543 0.42314,-1.24227 -0.4465,-0.16517 -1.11467,-0.20419 -1.48482,-0.0867 -0.56919,0.18065 -0.60212,0.30084 -0.21346,0.77915 0.39095,0.48113 0.37254,0.53299 -0.12332,0.34742 -0.76919,-0.28786 -1.09852,0.077 -0.6056,0.67093 0.52423,0.63165 0.5782,0.61904 2.00406,-0.46852 z m 40.36809,-24.54384 c 5.25002,-1.72178 10.08402,-5.50834 12.33873,-9.66515 2.06055,-3.79884 2.56685,-8.58327 1.44138,-13.62058 -0.33598,-1.50371 -0.72072,-2.73403 -0.855,-2.73403 -0.13427,0 -0.1611,0.3175 -0.0596,0.70556 0.19768,0.75593 -0.39601,0.97363 -0.81341,0.29827 -0.16748,-0.27099 -0.0954,-0.31065 0.21552,-0.11852 0.34365,0.21239 0.40472,0.12586 0.2309,-0.32712 -0.12999,-0.33874 -0.23634,-0.76996 -0.23634,-0.95825 0,-0.19137 -0.81687,-0.29534 -1.85209,-0.23573 l -1.85208,0.10663 -0.21452,1.41111 c -0.15381,1.01172 -0.24052,1.16149 -0.30638,0.52916 -0.0505,-0.48507 -0.0624,-1.09631 -0.0265,-1.35831 0.036,-0.26201 -0.10398,-0.3717 -0.31098,-0.24377 -0.2107,0.13022 -0.37637,1.35956 -0.37637,2.79283 0,3.17133 -0.51282,6.17884 -1.46507,8.59223 -0.96918,2.45626 -4.81178,6.11228 -8.02385,7.63425 -2.20909,1.04672 -2.54733,1.10339 -6.56247,1.09933 -3.77114,-0.004 -4.47517,-0.10569 -6.44835,-0.93323 -4.3222,-1.8127 -8.74322,-4.96776 -9.74175,-6.95219 -0.59701,-1.18648 -1.08868,-3.26892 -0.59674,-2.52746 0.55027,0.82937 0.79303,0.2041 0.35369,-0.911 -0.37127,-0.94233 -0.42327,-0.96594 -0.69063,-0.31351 -0.28143,0.68676 -0.28979,0.68556 -0.31392,-0.045 -0.0331,-1.00329 -0.61095,-1.41394 -2.40605,-1.71001 l -1.4993,-0.24728 -0.0357,1.17753 c -0.19678,6.48301 2.28816,11.245 7.99184,15.31506 2.49734,1.78206 4.65739,2.77214 8.09529,3.71055 3.62725,0.99009 10.24167,0.7677 14.0198,-0.47137 z m 12.9677,-17.55309 c 0,-0.25871 0.10583,-0.36454 0.23519,-0.23519 0.12935,0.12936 0.12935,0.34102 0,0.47037 -0.12936,0.12936 -0.23519,0.0235 -0.23519,-0.23518 z m 0.42155,-2.29306 c 0.007,-0.58208 0.0863,-0.7775 0.1757,-0.43425 0.0894,0.34324 0.0836,0.81949 -0.0131,1.05833 -0.0966,0.23884 -0.16982,-0.042 -0.16263,-0.62408 z m -5.36044,-0.52916 c 0,-0.25871 0.10584,-0.36454 0.23519,-0.23519 0.12935,0.12935 0.12935,0.34102 0,0.47037 -0.12935,0.12935 -0.23519,0.0235 -0.23519,-0.23518 z m 1.05834,0.17639 c 0,-0.097 0.0794,-0.17639 0.17639,-0.17639 0.097,0 0.17638,0.0794 0.17638,0.17639 0,0.097 -0.0794,0.17638 -0.17638,0.17638 -0.097,0 -0.17639,-0.0794 -0.17639,-0.17638 z m -1.00264,-1.5875 c 0,-0.48507 0.0801,-0.68351 0.17794,-0.44098 0.0979,0.24254 0.0979,0.63941 0,0.88195 -0.0979,0.24253 -0.17794,0.0441 -0.17794,-0.44097 z m 5.23597,0.17638 c 0,-0.097 0.0794,-0.17638 0.17639,-0.17638 0.097,0 0.17639,0.0794 0.17639,0.17638 0,0.097 -0.0794,0.17639 -0.17639,0.17639 -0.097,0 -0.17639,-0.0794 -0.17639,-0.17639 z m -2.11667,-3.52777 c 0,-0.097 0.0794,-0.17639 0.17639,-0.17639 0.097,0 0.17639,0.0794 0.17639,0.17639 0,0.097 -0.0794,0.17639 -0.17639,0.17639 -0.097,0 -0.17639,-0.0794 -0.17639,-0.17639 z m 0.35278,-0.88195 c 0,-0.2587 0.10583,-0.36453 0.23519,-0.23518 0.12935,0.12935 0.12935,0.34102 0,0.47037 -0.12936,0.12935 -0.23519,0.0235 -0.23519,-0.23519 z m -97.33428,25.48748 c 7.84722,-2.85072 12.61325,-7.8367 13.75429,-14.38905 0.53306,-3.06104 0.22967,-7.20554 -0.65225,-8.91022 -0.60924,-1.17761 -0.83199,-1.31662 -2.2617,-1.41145 -0.987,-0.0655 -1.72816,0.0678 -1.96259,0.35278 -0.41572,0.50543 -0.79934,6.2788 -0.4172,6.2788 0.13149,0 0.0229,0.67468 -0.2413,1.4993 -0.26421,0.82462 -0.562,1.92363 -0.66174,2.44226 -0.0997,0.51862 -0.60426,1.44555 -1.12116,2.05984 -1.358,1.6139 -5.52371,4.44022 -7.83281,5.31436 -2.45492,0.92934 -6.94927,1.26086 -9.60644,0.70861 -2.25526,-0.46871 -7.37392,-3.34851 -7.37392,-4.14863 0,-0.28878 0.55562,-1.20313 1.23472,-2.03187 1.65355,-2.01794 1.63003,-3.13477 -0.085,-4.03788 -1.06905,-0.56294 -2.66125,0.26089 -3.24966,1.68142 -0.79726,1.92477 -1.61976,0.85476 -2.54514,-3.31103 l -0.47019,-2.11666 -1.76389,-0.20916 c -1.28326,-0.15217 -1.47551,-0.23565 -0.70555,-0.30638 0.58208,-0.0535 1.2387,-0.0756 1.45916,-0.0492 0.47133,0.0565 0.92453,-0.94351 0.63783,-1.4074 -0.1091,-0.17651 -0.0586,-0.32094 0.1122,-0.32094 0.1708,0 0.34535,-0.76273 0.38789,-1.69496 l 0.0773,-1.69495 -1.98557,-0.6259 c -1.09206,-0.34424 -2.05724,-0.55423 -2.14483,-0.46663 -0.0876,0.0876 -0.19271,1.13053 -0.23359,2.31764 -0.0736,2.13882 -0.60349,3.1255 -0.60349,1.12383 0,-3.07525 1.49701,-7.03528 3.79326,-10.03424 2.45861,-3.21102 2.4909,-3.27899 1.03248,-2.17266 -4.92378,3.73506 -7.89225,14.29264 -6.03448,21.46204 1.74234,6.72388 7.18931,11.80019 15.30425,14.26279 2.33695,0.70919 3.24208,0.79208 7.42393,0.6799 3.66417,-0.0983 5.21744,-0.29303 6.73516,-0.84438 z m -27.90182,-16.13887 c 0,-0.097 0.0794,-0.17639 0.17639,-0.17639 0.097,0 0.17639,0.0794 0.17639,0.17639 0,0.097 -0.0794,0.17639 -0.17639,0.17639 -0.097,0 -0.17639,-0.0794 -0.17639,-0.17639 z m 0,-0.70555 c 0,-0.097 0.0794,-0.17639 0.17639,-0.17639 0.097,0 0.17639,0.0794 0.17639,0.17639 0,0.097 -0.0794,0.17639 -0.17639,0.17639 -0.097,0 -0.17639,-0.0794 -0.17639,-0.17639 z m -0.35278,-1.3315 c 0,-0.50595 0.16511,-1.02196 0.36692,-1.14669 0.24066,-0.14873 0.28428,0.11723 0.12676,0.77293 -0.3247,1.35164 -0.49368,1.47957 -0.49368,0.37376 z m 1.05833,0.62594 c 0,-0.097 0.0794,-0.17639 0.17639,-0.17639 0.097,0 0.17639,0.0794 0.17639,0.17639 0,0.097 -0.0794,0.17639 -0.17639,0.17639 -0.097,0 -0.17639,-0.0794 -0.17639,-0.17639 z m 35.98334,-1.41111 c 0,-0.097 0.0794,-0.17639 0.17638,-0.17639 0.097,0 0.17639,0.0794 0.17639,0.17639 0,0.097 -0.0794,0.17639 -0.17639,0.17639 -0.097,0 -0.17638,-0.0794 -0.17638,-0.17639 z m -36.86528,-1.5875 c 0.11992,-0.19403 0.28804,-0.35278 0.3736,-0.35278 0.0856,0 0.15557,0.15875 0.15557,0.35278 0,0.19403 -0.16812,0.35278 -0.3736,0.35278 -0.20548,0 -0.27549,-0.15875 -0.15557,-0.35278 z m 0.88194,-0.52917 c 0,-0.097 0.0794,-0.17638 0.17639,-0.17638 0.097,0 0.17639,0.0794 0.17639,0.17638 0,0.097 -0.0794,0.17639 -0.17639,0.17639 -0.097,0 -0.17639,-0.0794 -0.17639,-0.17639 z m 2.46945,-0.52916 c 0,-0.25871 0.10583,-0.36454 0.23518,-0.23519 0.12936,0.12935 0.12936,0.34102 0,0.47037 -0.12935,0.12935 -0.23518,0.0235 -0.23518,-0.23518 z m -0.70556,-0.17639 c 0,-0.097 0.0794,-0.17639 0.17639,-0.17639 0.097,0 0.17639,0.0794 0.17639,0.17639 0,0.097 -0.0794,0.17639 -0.17639,0.17639 -0.097,0 -0.17639,-0.0794 -0.17639,-0.17639 z m 92.42777,9.70139 c 0.95347,-0.95347 0.88846,-2.31862 -0.16035,-3.36743 -1.02276,-1.02276 -1.94392,-1.09831 -2.99673,-0.2458 -0.96752,0.78346 -1.0673,2.64858 -0.19334,3.61429 0.81851,0.90445 2.44543,0.90393 3.35042,-0.001 z m -61.05615,-0.57674 c 0.9473,-1.2043 0.92171,-1.73422 -0.13475,-2.79069 -1.04984,-1.04983 -2.07085,-1.10414 -3.01465,-0.16035 -0.94379,0.94379 -0.88948,1.96481 0.16036,3.01465 1.11772,1.11772 2.07584,1.09733 2.98904,-0.0636 z m 84.21294,-1.14996 c 0.52027,-1.04929 0.16322,-2.09503 -1.01587,-2.97535 -0.79379,-0.59265 -1.00584,-0.61324 -1.9039,-0.18485 -1.25978,0.60093 -1.58182,2.45481 -0.6125,3.5259 0.89491,0.98886 2.96702,0.77434 3.53227,-0.3657 z m -17.35738,-6.88515 1.56579,-0.91762 0.51826,0.73991 c 0.69972,0.99899 1.78806,0.75053 1.92627,-0.43976 0.0729,-0.62832 -0.12991,-1.09989 -0.62121,-1.44401 -0.68987,-0.4832 -0.70056,-0.58035 -0.19653,-1.78667 0.83794,-2.00546 0.68372,-4.73792 -0.38887,-6.89034 -1.12509,-2.25777 -2.71006,-3.58321 -5.13687,-4.29575 l -1.83624,-0.53914 2.15233,-0.96591 c 2.45309,-1.10088 6.3464,-1.70107 9.44683,-1.45631 1.82822,0.14432 1.99648,0.10957 1.23472,-0.255 -0.48507,-0.23216 -2.39007,-0.43464 -4.23333,-0.44996 -4.02018,-0.0334 -6.9047,0.77924 -8.66774,2.44201 -0.64962,0.61267 -1.8377,1.31066 -2.64017,1.55108 -0.84963,0.25456 -2.08601,1.06411 -2.96012,1.93823 -4.49702,4.49702 -3.07618,11.27515 2.82315,13.46786 2.00714,0.74603 5.06905,0.44104 7.01373,-0.69862 z m -83.20572,-0.38364 c 1.42182,-0.72226 1.79949,-0.7953 2.08962,-0.40411 0.61307,0.82662 1.84838,1.03208 2.21939,0.36912 0.46356,-0.82833 0.12808,-1.84039 -0.69685,-2.10221 -0.48209,-0.15301 -0.61704,-0.39812 -0.44343,-0.80543 1.34666,-3.15953 1.50783,-4.77525 0.70372,-7.05436 -1.26277,-3.57906 -3.9461,-5.52147 -7.63109,-5.52399 -1.96571,-0.001 -2.58395,0.16126 -4.05694,1.06703 -3.33239,2.04914 -5.00961,6.01904 -4.02647,9.53047 0.55031,1.9655 2.54569,4.30397 4.38563,5.1397 2.14226,0.97304 5.29527,0.88161 7.45642,-0.21622 z m -12.90479,0.35243 c 0,-0.097 -0.0794,-0.17639 -0.17639,-0.17639 -0.097,0 -0.17639,0.0794 -0.17639,0.17639 0,0.097 0.0794,0.17639 0.17639,0.17639 0.097,0 0.17639,-0.0794 0.17639,-0.17639 z m 28.15525,-4.77154 c 0.65636,-0.40017 1.40962,-1.28793 1.72002,-2.02715 0.74583,-1.77617 0.0894,-3.77335 -1.61703,-4.91967 -1.41941,-0.95352 -2.491,-1.01262 -4.14338,-0.22851 -1.43249,0.67976 -2.24264,2.06647 -2.24264,3.83866 0,1.6471 0.48392,2.51532 1.8746,3.36327 1.44193,0.87921 2.93753,0.87018 4.40843,-0.0266 z m 83.29198,-0.60525 c 1.39116,-1.01532 2.26761,-3.04303 1.97938,-4.57943 -0.46801,-2.49467 -3.52145,-4.45716 -5.97628,-3.84104 -2.22835,0.55928 -4.03274,3.34222 -3.56065,5.49164 0.7242,3.29729 4.85779,4.89921 7.55755,2.92883 z m 10.61387,0.0851 c 0,-0.097 -0.0794,-0.17639 -0.17639,-0.17639 -0.097,0 -0.17639,0.0794 -0.17639,0.17639 0,0.097 0.0794,0.17638 0.17639,0.17638 0.097,0 0.17639,-0.0794 0.17639,-0.17638 z m -2.75817,-6.42478 c -1.161,-1.80734 -3.94461,-4.71455 -3.94461,-4.11976 0,0.1971 0.47956,0.81781 1.06568,1.37935 0.58612,0.56154 1.64441,1.86128 2.35175,2.88831 1.58531,2.30179 2.02209,2.17924 0.52718,-0.1479 z M 93.59908,-225.8615 c 1.1861,-0.49923 3.49256,-1.06311 5.19284,-1.26956 1.68243,-0.20428 3.13833,-0.45494 3.23534,-0.55703 0.097,-0.10209 -1.41111,-0.11199 -3.35139,-0.022 -3.64108,0.16888 -6.17072,0.92923 -7.18694,2.16023 -0.64491,0.78122 -0.40067,0.74515 2.11015,-0.31164 z m 73.58583,55.89078 c -2.14336,-1.52052 -2.51372,-2.50731 -1.02085,-2.71995 0.89807,-0.12793 4.1332,1.78589 4.64942,2.75047 0.37042,0.69212 -0.1607,1.42128 -1.03526,1.42128 -0.30075,0 -1.46774,-0.65331 -2.59331,-1.4518 z m -53.00453,0.012 c -0.36463,-0.58999 1.59953,-2.41075 3.07868,-2.85392 1.02692,-0.30767 1.44748,-0.29687 1.86285,0.0478 0.71229,0.59115 0.51531,0.83378 -1.71102,2.10755 -1.99383,1.14076 -2.84363,1.32451 -3.23051,0.69852 z m 14.22259,-10.17359 c -1.03723,-0.92733 -1.14956,-1.21752 -1.12668,-2.91042 0.0447,-3.30633 1.92303,-5.93732 4.23884,-5.93732 2.54959,0 4.08644,2.80429 3.31018,6.0401 -0.88659,3.69569 -3.93733,5.02938 -6.42234,2.80764 z m 2.48841,-1.88038 c -0.062,-0.43656 -0.27148,-0.79375 -0.46551,-0.79375 -0.19403,0 -0.4035,0.35719 -0.46551,0.79375 -0.0776,0.54616 0.0676,0.79375 0.46551,0.79375 0.39787,0 0.54308,-0.24759 0.46551,-0.79375 z m 19.34579,1.8537 c -1.62405,-1.42593 -2.11796,-2.75973 -1.91743,-5.17794 0.14026,-1.69126 0.33722,-2.15104 1.28383,-2.99683 1.25794,-1.12397 2.09427,-1.23638 3.55993,-0.47846 2.03912,1.05447 3.67075,5.23189 2.83323,7.25384 -1.06294,2.56618 -3.70072,3.20708 -5.75956,1.39939 z m 3.23199,-1.8537 c -0.062,-0.43656 -0.27148,-0.79375 -0.46551,-0.79375 -0.19403,0 -0.40351,0.35719 -0.46551,0.79375 -0.0776,0.54616 0.0676,0.79375 0.46551,0.79375 0.39787,0 0.54307,-0.24759 0.46551,-0.79375 z m -7.05805,-19.20279 c 0.25467,-0.10191 0.55894,-0.0894 0.67616,0.0279 0.11723,0.11722 -0.0911,0.2006 -0.46302,0.18528 -0.41097,-0.0169 -0.49456,-0.10052 -0.21314,-0.21313 z m -6.00994,-0.37056 c 0.82975,-0.0745 2.09974,-0.0735 2.82222,0.002 0.72248,0.0758 0.0436,0.13678 -1.50863,0.1355 -1.55222,-0.001 -2.14334,-0.0633 -1.31359,-0.13783 z m -28.49613,-42.47631 c -0.48507,-0.19637 -2.15194,-0.36241 -3.70417,-0.36899 -1.55222,-0.007 -3.02066,-0.17279 -3.26319,-0.36936 -1.28661,-1.04279 0.35137,-2.97357 2.80833,-3.31033 1.94965,-0.26723 4.87182,0.37291 6.09522,1.33524 1.06168,0.83512 1.16538,2.2353 0.20367,2.75 -0.8096,0.43328 -0.98671,0.43025 -2.13986,-0.0366 z m 58.71176,0.14067 c -0.64787,-0.45888 -0.87048,-1.52254 -0.47377,-2.26379 1.25843,-2.3514 9.20095,-2.39432 10.0988,-0.0546 0.4909,1.27927 -0.36508,1.68918 -3.99165,1.91149 -1.92004,0.1177 -3.88785,0.31772 -4.37292,0.44448 -0.48507,0.12677 -1.05228,0.10985 -1.26046,-0.0376 z M 78.59282,-139.4026 c 1.49389,-0.62419 2.38335,-2.38435 4.10634,-8.12607 0.64047,-2.1343 1.30754,-3.84879 1.48238,-3.80996 0.17485,0.0388 0.67043,1.18246 1.10129,2.54141 0.92248,2.90956 2.14986,5.10208 3.65982,6.53768 0.89,0.84617 1.46089,1.06064 3.11828,1.17148 1.85123,0.1238 2.14325,0.0397 3.33583,-0.96016 0.73248,-0.61415 1.8118,-2.12126 2.45542,-3.42864 0.98337,-1.99751 1.16872,-2.79659 1.28957,-5.5596 0.18601,-4.25306 -0.51013,-6.9568 -2.60097,-10.10187 -5.36462,-8.06954 -14.26428,-10.63704 -22.18016,-6.39886 -6.47406,3.46622 -9.47618,11.64587 -6.85024,18.66433 0.97555,2.60738 3.81305,6.81669 5.49099,8.14565 2.39169,1.89425 3.56363,2.17188 5.59145,1.32461 z m -16.93961,-11.86097 c 0.42492,-0.68753 -0.4485,-1.12482 -1.75654,-0.87943 -2.06571,0.38753 -1.63042,0.86667 1.09936,1.21009 0.23108,0.0291 0.52681,-0.11973 0.65718,-0.33066 z m 164.55182,0.0638 c 0.79399,-0.22454 0.71684,-0.2914 -0.77358,-0.6704 -2.11241,-0.53716 -2.04864,-0.54602 -2.04864,0.28458 0,0.75458 1.02347,0.89449 2.82222,0.38582 z m 0.83036,-75.0858 c 5.18586,-2.71983 10.6358,-7.37564 13.53502,-11.56278 0.76933,-1.1111 3.73629,-6.89164 4.30501,-8.3875 l 0.32688,-0.85976 -4.11877,-0.003 c -7.94963,-0.006 -14.43144,-2.48601 -19.9679,-7.64097 -0.85338,-0.79457 -2.43453,-2.07967 -3.51368,-2.85578 -1.07916,-0.77612 -1.96618,-1.60512 -1.97117,-1.84223 -0.005,-0.23712 -0.90388,-0.69124 -1.99751,-1.00917 -1.61146,-0.46847 -2.34256,-0.50694 -3.85635,-0.20292 -1.8714,0.37583 -5.57017,2.21941 -6.06339,3.02217 -0.14447,0.23513 -0.65954,0.71044 -1.14461,1.05624 l -0.88194,0.62873 0.88194,-0.25078 c 0.48507,-0.13793 1.12007,-0.44351 1.41111,-0.67907 1.19793,-0.96958 3.30969,-1.64671 5.22007,-1.67379 3.67366,-0.0521 4.92803,0.86415 1.74729,1.27629 -2.33115,0.30206 -4.40274,1.28685 -6.24021,2.96646 -1.36279,1.24571 -2.11087,2.52459 -0.81534,1.39387 1.46588,-1.27941 5.87748,-2.73377 8.31547,-2.74134 1.14005,-0.004 2.73631,0.82727 2.30986,1.20221 -0.0716,0.063 -1.09816,0.28132 -2.28122,0.48526 -2.19933,0.37911 -5.5407,1.73014 -5.28869,2.13839 0.077,0.12479 -0.25188,0.25043 -0.73093,0.2792 -1.39017,0.0835 -1.43156,0.46297 -0.16068,1.47325 0.65305,0.51914 1.74924,1.5392 2.43597,2.26681 0.68673,0.7276 1.46068,1.32291 1.71989,1.32291 0.25922,0 0.4713,0.28636 0.4713,0.63636 0,0.81187 2.28346,3.048 2.79174,2.73387 0.21079,-0.13028 0.38326,-0.0688 0.38326,0.13673 0,0.20548 -0.19844,0.37865 -0.44097,0.38482 -0.2484,0.006 -0.14192,0.23741 0.24381,0.52917 0.37664,0.28487 0.53539,0.52037 0.35278,0.52334 -0.18936,0.003 -0.18043,0.11677 0.0208,0.26459 0.42255,0.31044 0.93286,1.11484 2.10667,3.32074 0.48303,0.90775 1.71476,2.90832 2.73717,4.4457 1.02242,1.53739 2.57331,4.0862 3.44644,5.66403 0.87312,1.57782 1.72303,2.87132 1.88869,2.87443 0.16565,0.003 1.43565,-0.58933 2.82222,-1.31654 z M 215.6217,-241.8967 c 0,-0.2587 0.10583,-0.36453 0.23518,-0.23518 0.12936,0.12935 0.12936,0.34102 0,0.47037 -0.12935,0.12935 -0.23518,0.0235 -0.23518,-0.23519 z m -0.70556,-1.94027 c 0,-0.097 0.0794,-0.17639 0.17639,-0.17639 0.097,0 0.17639,0.0794 0.17639,0.17639 0,0.097 -0.0794,0.17639 -0.17639,0.17639 -0.097,0 -0.17639,-0.0794 -0.17639,-0.17639 z m 0.79625,-0.44542 c 0.0327,-0.43412 0.18442,-0.7893 0.33716,-0.7893 0.36812,0 0.34296,0.40887 -0.0649,1.05388 -0.26073,0.41239 -0.31903,0.35574 -0.2723,-0.26458 z m 0.96764,0.44542 c 0,-0.097 0.0794,-0.17639 0.17639,-0.17639 0.097,0 0.17639,0.0794 0.17639,0.17639 0,0.097 -0.0794,0.17639 -0.17639,0.17639 -0.097,0 -0.17639,-0.0794 -0.17639,-0.17639 z m -3.86975,-0.88195 c 0,-0.29104 0.15389,-0.76729 0.34197,-1.05833 0.30398,-0.47037 0.34198,-0.47037 0.34198,0 0,0.29104 -0.15389,0.76729 -0.34198,1.05833 -0.30397,0.47037 -0.34197,0.47037 -0.34197,0 z m 1.40031,-0.52916 c 0,-0.097 0.0794,-0.17639 0.17639,-0.17639 0.097,0 0.17639,0.0794 0.17639,0.17639 0,0.097 -0.0794,0.17639 -0.17639,0.17639 -0.097,0 -0.17639,-0.0794 -0.17639,-0.17639 z m -3.15328,-1.19415 c -0.19574,-0.36573 -0.76344,-0.76726 -1.26157,-0.89228 -0.49812,-0.12502 -0.81044,-0.38141 -0.69404,-0.56975 0.1164,-0.18834 0.0435,-0.34243 -0.16196,-0.34243 -0.20548,0 -0.3736,-0.22115 -0.3736,-0.49143 0,-0.27028 -0.22774,-0.57881 -0.50609,-0.68563 -0.27835,-0.10681 -0.68724,-0.53268 -0.90864,-0.94639 -0.368,-0.68761 -0.34154,-0.71952 0.30829,-0.37175 0.41931,0.22441 0.79287,0.24772 0.91084,0.0568 0.11,-0.17798 5.7e-4,-0.3987 -0.24317,-0.49049 -0.24374,-0.0918 0.16261,-0.12662 0.90301,-0.0774 0.95298,0.0633 1.23635,-0.0204 0.97014,-0.28658 -0.53837,-0.53837 -0.464,-0.94049 0.17394,-0.94049 0.3025,0 0.46216,-0.14211 0.35481,-0.31581 -0.10735,-0.1737 0.0318,-0.4029 0.30916,-0.50935 0.27739,-0.10644 0.5543,-0.0548 0.61534,0.11477 0.16537,0.45939 2.24045,0.60531 2.15906,0.15183 -0.0377,-0.2102 0.14553,-0.38218 0.40724,-0.38218 0.37311,0 0.38864,0.13963 0.0719,0.64676 -0.22215,0.35572 -0.50894,0.64676 -0.63732,0.64676 -0.20095,0 -1.00798,1.91265 -1.00798,2.38889 0,0.0918 0.24176,-0.0337 0.53724,-0.27893 0.44921,-0.37281 0.50083,-0.35098 0.31504,0.1332 -0.12222,0.31848 -0.54702,0.57906 -0.944,0.57906 -0.71373,0 -0.71331,0.007 0.0377,0.65874 0.86652,0.75153 1.00196,1.27367 0.25616,0.98747 -0.66166,-0.2539 -1.33206,0.57908 -1.05247,1.30769 0.304,0.79221 -0.1032,0.7234 -0.5391,-0.0911 z m -0.50001,-1.9811 c 0.052,-0.9008 -0.35712,-1.17503 -0.76599,-0.51347 -0.12516,0.20253 -0.0357,0.59941 0.19877,0.88195 0.5389,0.64933 0.5073,0.66985 0.56722,-0.36848 z m -0.57147,-1.23448 c 0.83279,0 1.20665,-0.56986 0.54136,-0.82516 -0.27739,-0.10644 -0.59398,-0.004 -0.70353,0.22762 -0.1496,0.31631 -0.25164,0.30771 -0.40988,-0.0345 -0.16266,-0.3518 -0.32451,-0.36124 -0.7099,-0.0414 -0.39777,0.33012 -0.41134,0.52019 -0.0668,0.93535 0.27975,0.33707 0.4785,0.38283 0.56292,0.12959 0.0718,-0.21531 0.42539,-0.39147 0.78582,-0.39147 z m 5.81226,3.52778 c 0.11991,-0.19403 0.0817,-0.35278 -0.085,-0.35278 -0.16667,0 -0.30304,-0.57943 -0.30304,-1.28763 0,-0.70821 0.0612,-1.10409 0.13597,-0.87975 0.0748,0.22434 0.2765,0.32103 0.44826,0.21488 0.37477,-0.23162 0.84223,1.41395 0.5404,1.90232 -0.11649,0.18849 -0.0124,0.4231 0.23137,0.52137 0.24374,0.0983 0.0766,0.1912 -0.3714,0.20652 -0.45852,0.0157 -0.71927,-0.12635 -0.59654,-0.32493 z m 0.41157,-1.64629 c -0.12935,-0.12936 -0.23518,-0.0235 -0.23518,0.23518 0,0.2587 0.10583,0.36454 0.23518,0.23519 0.12935,-0.12936 0.12935,-0.34102 0,-0.47037 z m -3.97904,1.23619 c 0.10958,-0.55944 0.92163,-0.82732 0.92163,-0.30403 0,0.22165 -0.14519,0.31326 -0.32264,0.20359 -0.17746,-0.10968 -0.40368,-0.0357 -0.50271,0.16439 -0.099,0.20008 -0.14236,0.17131 -0.0963,-0.064 z m 3.39108,-3.64684 c 0,-0.097 0.0794,-0.17639 0.17639,-0.17639 0.097,0 0.17639,0.0794 0.17639,0.17639 0,0.097 -0.0794,0.17639 -0.17639,0.17639 -0.097,0 -0.17639,-0.0794 -0.17639,-0.17639 z m -1.05833,-1.5875 c -0.42573,-0.27512 -0.36993,-0.34303 0.2854,-0.34738 0.45422,-0.003 0.71812,0.15066 0.59654,0.34738 -0.26218,0.42421 -0.22552,0.42421 -0.88194,0 z m -6.70278,-0.17639 c 0,-0.097 0.0794,-0.17639 0.17639,-0.17639 0.097,0 0.17639,0.0794 0.17639,0.17639 0,0.097 -0.0794,0.17639 -0.17639,0.17639 -0.097,0 -0.17639,-0.0794 -0.17639,-0.17639 z m 7.05555,-1.05833 c 0,-0.097 0.0794,-0.17639 0.17639,-0.17639 0.097,0 0.17639,0.0794 0.17639,0.17639 0,0.097 -0.0794,0.17638 -0.17639,0.17638 -0.097,0 -0.17639,-0.0794 -0.17639,-0.17638 z M 62.68691,-228.4734 c 0.12007,-0.37831 1.79765,-3.32109 3.72794,-6.53953 1.9303,-3.21844 3.50964,-5.98788 3.50964,-6.15432 0,-0.16644 0.38367,-0.67188 0.8526,-1.12321 0.70065,-0.67435 0.78466,-0.94817 0.47141,-1.53634 -0.33835,-0.63528 -0.31696,-0.66275 0.19028,-0.24439 0.58885,0.48568 1.30793,0.29468 1.30793,-0.34742 0,-0.19998 0.34276,-0.64115 0.76169,-0.98038 0.71534,-0.57925 0.64697,-1.69475 -0.0765,-1.24764 -0.1784,0.11026 -0.23175,-0.0409 -0.11855,-0.33587 0.1132,-0.29498 0.30982,-0.52255 0.43693,-0.50571 0.70222,0.093 0.73788,-0.16129 0.16287,-1.16152 -0.47745,-0.83052 -0.52669,-1.1476 -0.19633,-1.26412 0.24253,-0.0855 0.44097,-0.62925 0.44097,-1.20824 0,-0.9288 -0.0934,-1.02399 -0.79375,-0.80872 -0.43656,0.13419 -0.67989,0.12363 -0.54072,-0.0235 0.13917,-0.1471 0.64177,-0.31013 1.1169,-0.36229 0.65784,-0.0722 0.9146,0.10733 1.07661,0.7528 0.117,0.4662 0.37405,0.84763 0.57121,0.84763 0.24256,0 0.24236,-0.21694 -6.1e-4,-0.67093 -0.3102,-0.57961 -0.25636,-0.64407 0.39553,-0.47359 0.51233,0.13397 0.67438,0.0675 0.50473,-0.20698 -0.162,-0.26212 -0.0573,-0.33042 0.29761,-0.19421 0.30112,0.11555 0.54749,0.0344 0.54749,-0.18043 0,-0.39111 -0.46574,-0.53125 -1.35832,-0.40873 -0.27294,0.0375 -0.37081,-0.10541 -0.22918,-0.33457 0.14163,-0.22916 0.0438,-0.37204 -0.22918,-0.33458 -0.86253,0.1184 -1.35832,-0.013 -1.35832,-0.35991 0,-0.18793 0.27781,-0.23651 0.61736,-0.10793 0.5781,0.21891 0.57971,0.19577 0.0252,-0.36385 -0.32569,-0.32869 -0.90082,-0.59762 -1.27807,-0.59762 -1.14197,0 -4.06525,-1.43757 -3.6888,-1.81402 0.47358,-0.47359 3.9423,-0.62892 5.09227,-0.22803 0.63005,0.21964 1.17651,0.20733 1.59459,-0.0359 0.57014,-0.33169 0.54465,-0.37549 -0.24588,-0.42257 -0.48507,-0.0289 -1.08038,-0.0267 -1.32292,0.005 -0.24253,0.0315 -0.44097,-0.12543 -0.44097,-0.34872 0,-0.22329 -0.23813,-0.31461 -0.52917,-0.20293 -0.29104,0.11169 -0.52916,0.0493 -0.52916,-0.13864 0,-0.18794 -0.39688,-0.34171 -0.88195,-0.34171 -0.48507,0 -0.88194,-0.15875 -0.88194,-0.35278 0,-0.19402 -0.29807,-0.35277 -0.66236,-0.35277 -0.83803,0 -1.64905,-0.89634 -1.11158,-1.22852 0.45068,-0.27853 3.97476,-0.31138 4.85625,-0.0453 0.34202,0.10326 1.08044,0.26683 1.64094,0.36349 1.1631,0.2006 3.74341,1.80417 3.74341,2.3264 0,0.19128 0.15377,0.34777 0.34171,0.34777 0.59953,0 0.0378,-0.85859 -1.03196,-1.5774 -0.56927,-0.3825 -0.96942,-0.76107 -0.88923,-0.84126 0.0802,-0.0802 -0.44443,-0.5951 -1.16583,-1.14422 -0.7214,-0.54913 -1.66315,-1.3215 -2.09278,-1.71638 -0.42962,-0.39488 -0.92612,-0.71796 -1.10333,-0.71796 -0.1772,0 -0.50621,-0.22173 -0.73113,-0.49275 -0.23454,-0.2826 -0.72969,-0.40887 -1.16103,-0.29607 -0.57368,0.15002 -0.70277,0.0682 -0.54419,-0.3451 0.154,-0.40133 -0.0292,-0.54177 -0.70674,-0.54177 -0.50304,0 -1.12548,-0.28835 -1.38318,-0.64078 -0.58633,-0.80186 -1.52675,-0.96998 -1.52675,-0.27295 0,0.28774 -0.24726,0.77041 -0.54946,1.07261 -0.3022,0.3022 -0.46276,0.77535 -0.35681,1.05145 0.10595,0.27611 0.0754,0.43157 -0.0679,0.34547 -0.1433,-0.0861 -0.61648,0.65973 -1.05152,1.65738 -0.43505,0.99764 -0.56935,1.52659 -0.29846,1.17543 0.3116,-0.40393 0.57742,-0.50112 0.72361,-0.26458 0.12709,0.20563 0.063,0.37388 -0.14252,0.37388 -0.20548,0 -0.3736,0.25511 -0.3736,0.56691 0,0.37699 -0.19092,0.49365 -0.56987,0.34823 -0.46484,-0.17837 -0.54112,-0.0228 -0.41388,0.8442 0.18519,1.26175 0.0244,1.36569 -0.41637,0.26914 l -0.31904,-0.79375 -0.0224,0.79375 c -0.0123,0.43656 -0.15332,0.75406 -0.31339,0.70555 -0.16006,-0.0485 -1.70787,1.48147 -3.43958,3.39994 -5.26778,5.8359 -8.66029,7.41379 -15.50896,7.21334 -4.55423,-0.1333 -4.3911,-0.28573 -2.89375,2.70408 2.27443,4.54141 6.54834,9.47865 10.58831,12.23167 2.93442,1.99965 7.89274,4.52527 8.88403,4.52527 0.53241,0 0.93103,-0.25676 1.06784,-0.68781 z m 7.23758,-13.95246 c 0,-0.097 0.0794,-0.17639 0.17639,-0.17639 0.097,0 0.17639,0.0794 0.17639,0.17639 0,0.097 -0.0794,0.17639 -0.17639,0.17639 -0.097,0 -0.17639,-0.0794 -0.17639,-0.17639 z m 1.05833,-2.46945 c 0,-0.097 0.0794,-0.17638 0.17639,-0.17638 0.097,0 0.17639,0.0794 0.17639,0.17638 0,0.097 -0.0794,0.17639 -0.17639,0.17639 -0.097,0 -0.17639,-0.0794 -0.17639,-0.17639 z m 0.55396,-0.48906 c -0.10629,-0.17196 0.13154,-0.3976 0.5285,-0.50141 0.59195,-0.15479 0.64691,-0.0986 0.30562,0.31267 -0.48717,0.587 -0.57562,0.60702 -0.83412,0.18874 z m 0.85715,-2.15677 c 0,-0.2587 0.10584,-0.36454 0.23519,-0.23518 0.12935,0.12935 0.12935,0.34101 0,0.47037 -0.12935,0.12935 -0.23519,0.0235 -0.23519,-0.23519 z m -0.70555,-0.52917 c 0,-0.097 0.0794,-0.17638 0.17639,-0.17638 0.097,0 0.17638,0.0794 0.17638,0.17638 0,0.097 -0.0794,0.17639 -0.17638,0.17639 -0.097,0 -0.17639,-0.0794 -0.17639,-0.17639 z m 0.12408,-1.85564 c 0.1282,-0.20743 0.0337,-0.45755 -0.21008,-0.55582 -0.3172,-0.12788 -0.32374,-0.18658 -0.023,-0.20652 0.60709,-0.0402 0.89872,0.58406 0.41304,0.88423 -0.24618,0.15215 -0.31887,0.10291 -0.17994,-0.12189 z m 0.93425,-0.26102 c 0,-0.097 0.0794,-0.17639 0.17639,-0.17639 0.097,0 0.17639,0.0794 0.17639,0.17639 0,0.097 -0.0794,0.17639 -0.17639,0.17639 -0.097,0 -0.17639,-0.0794 -0.17639,-0.17639 z m 0.70556,-0.35278 c 0,-0.097 0.0794,-0.17639 0.17638,-0.17639 0.097,0 0.17639,0.0794 0.17639,0.17639 0,0.097 -0.0794,0.17639 -0.17639,0.17639 -0.097,0 -0.17638,-0.0794 -0.17638,-0.17639 z m -2.31524,-0.91783 c -0.17549,-0.28394 -0.11432,-0.33388 0.1835,-0.14981 0.25895,0.16003 0.58973,0.0717 0.78692,-0.21008 0.28427,-0.40625 0.31766,-0.4028 0.2031,0.021 -0.18305,0.67705 -0.84618,0.86858 -1.17352,0.33894 z m 1.60968,0.21227 c 0,-0.097 0.0794,-0.17638 0.17639,-0.17638 0.097,0 0.17639,0.0794 0.17639,0.17638 0,0.097 -0.0794,0.17639 -0.17639,0.17639 -0.097,0 -0.17639,-0.0794 -0.17639,-0.17639 z m -3.52778,-1.05833 c 0,-0.097 0.0794,-0.17639 0.17639,-0.17639 0.097,0 0.17639,0.0794 0.17639,0.17639 0,0.097 -0.0794,0.17639 -0.17639,0.17639 -0.097,0 -0.17639,-0.0794 -0.17639,-0.17639 z m 3.52778,-0.35278 c 0,-0.097 0.0794,-0.17639 0.17639,-0.17639 0.097,0 0.17639,0.0794 0.17639,0.17639 0,0.097 -0.0794,0.17639 -0.17639,0.17639 -0.097,0 -0.17639,-0.0794 -0.17639,-0.17639 z m -3.46412,-0.9425 c 0.062,-0.42137 0.29868,-0.82731 0.52594,-0.90209 0.26191,-0.0862 0.35736,0.16205 0.26068,0.67792 -0.0839,0.44764 -0.0582,0.61546 0.0572,0.37292 0.11534,-0.24253 0.37466,-0.44097 0.57628,-0.44097 0.22132,0 0.19255,0.20969 -0.0726,0.52917 -0.66737,0.80413 -1.47962,0.6613 -1.34745,-0.23695 z m 4.16968,-0.29222 c 0,-0.2587 0.10583,-0.36454 0.23518,-0.23518 0.12935,0.12935 0.12935,0.34101 0,0.47037 -0.12935,0.12935 -0.23518,0.0235 -0.23518,-0.23519 z m -1.76389,-0.17639 c 0,-0.097 0.0794,-0.17639 0.17639,-0.17639 0.097,0 0.17638,0.0794 0.17638,0.17639 0,0.097 -0.0794,0.17639 -0.17638,0.17639 -0.097,0 -0.17639,-0.0794 -0.17639,-0.17639 z m -5.99723,-4.7193 c 0,-0.17027 0.23813,-0.50721 0.52917,-0.74875 0.5744,-0.47671 0.6462,-0.36268 0.31504,0.50031 -0.22668,0.59072 -0.84421,0.77245 -0.84421,0.24844 z m 1.05834,-0.0432 c 0,-0.19402 0.15875,-0.35277 0.35278,-0.35277 0.19402,0 0.35277,0.15875 0.35277,0.35277 0,0.19403 -0.15875,0.35278 -0.35277,0.35278 -0.19403,0 -0.35278,-0.15875 -0.35278,-0.35278 z m 7.40833,-2.99861 c 0,-0.097 0.0794,-0.17639 0.17639,-0.17639 0.097,0 0.17639,0.0794 0.17639,0.17639 0,0.097 -0.0794,0.17639 -0.17639,0.17639 -0.097,0 -0.17639,-0.0794 -0.17639,-0.17639 z m -7.05555,-0.35278 c 0,-0.097 0.0794,-0.17638 0.17638,-0.17638 0.097,0 0.17639,0.0794 0.17639,0.17638 0,0.097 -0.0794,0.17639 -0.17639,0.17639 -0.097,0 -0.17638,-0.0794 -0.17638,-0.17639 z m 4.23333,0.0432 c 0,-0.0733 0.24176,-0.33384 0.53724,-0.57906 0.44921,-0.37281 0.50083,-0.35099 0.31504,0.13319 -0.18976,0.4945 -0.85228,0.8411 -0.85228,0.44587 z m -3.88056,-0.74875 c 0,-0.097 0.0794,-0.17639 0.17639,-0.17639 0.097,0 0.17639,0.0794 0.17639,0.17639 0,0.097 -0.0794,0.17639 -0.17639,0.17639 -0.097,0 -0.17639,-0.0794 -0.17639,-0.17639 z m 2.29306,-0.17639 c 0.11991,-0.19403 0.28803,-0.35278 0.3736,-0.35278 0.0856,0 0.15557,0.15875 0.15557,0.35278 0,0.19403 -0.16812,0.35278 -0.3736,0.35278 -0.20548,0 -0.27549,-0.15875 -0.15557,-0.35278 z m -0.52917,-0.88194 c 0,-0.097 0.0794,-0.17639 0.17639,-0.17639 0.097,0 0.17639,0.0794 0.17639,0.17639 0,0.097 -0.0794,0.17638 -0.17639,0.17638 -0.097,0 -0.17639,-0.0794 -0.17639,-0.17638 z m 1.17593,-0.0588 c 0.12935,-0.12935 0.34102,-0.12935 0.47037,0 0.12935,0.12935 0.0235,0.23518 -0.23519,0.23518 -0.2587,0 -0.36453,-0.10583 -0.23518,-0.23518 z m -2.58704,-0.29398 c 0,-0.097 0.0794,-0.17639 0.17639,-0.17639 0.097,0 0.17639,0.0794 0.17639,0.17639 0,0.097 -0.0794,0.17639 -0.17639,0.17639 -0.097,0 -0.17639,-0.0794 -0.17639,-0.17639 z m 0.70556,-0.47037 c 0,-0.16169 0.23114,-0.29398 0.51365,-0.29398 0.2825,0 0.43188,0.13229 0.33195,0.29398 -0.0999,0.16169 -0.33107,0.29398 -0.51365,0.29398 -0.18257,0 -0.33195,-0.13229 -0.33195,-0.29398 z m 0,-0.94074 c 0,-0.097 0.0794,-0.17639 0.17639,-0.17639 0.097,0 0.17638,0.0794 0.17638,0.17639 0,0.097 -0.0794,0.17639 -0.17638,0.17639 -0.097,0 -0.17639,-0.0794 -0.17639,-0.17639 z m 141.81665,19.75555 c 0,-0.097 -0.0794,-0.17639 -0.17639,-0.17639 -0.097,0 -0.17639,0.0794 -0.17639,0.17639 0,0.097 0.0794,0.17639 0.17639,0.17639 0.097,0 0.17639,-0.0794 0.17639,-0.17639 z m -134.7611,-1.86588 c 0,-0.29962 0.0914,-0.45339 0.20306,-0.34171 0.27707,0.27707 2.61916,-2.03384 2.61916,-2.58429 0,-0.24255 0.0963,-0.3447 0.21398,-0.22701 0.11769,0.11769 0.41403,0.0271 0.65853,-0.20129 0.35552,-0.33211 0.33033,-0.50222 -0.12579,-0.84952 -0.31368,-0.23883 -0.79911,-0.4393 -1.07873,-0.44547 -0.3882,-0.009 -0.36519,0.0935 0.0974,0.43171 0.56699,0.41459 0.5608,0.48142 -0.0967,1.04442 -0.40357,0.34554 -0.79161,0.45729 -0.91192,0.26263 -0.36726,-0.59424 -0.81379,-0.36373 -0.63319,0.32687 0.21424,0.81928 -0.55597,1.37144 -0.97975,0.70238 -0.24354,-0.38451 -0.30906,-0.35708 -0.31333,0.13119 -0.003,0.33955 0.18102,0.61736 0.40887,0.61736 0.22785,0 0.0691,0.36742 -0.35278,0.81649 -0.90536,0.96371 -1.09744,2.01354 -0.23788,1.30018 0.29104,-0.24155 0.52916,-0.68432 0.52916,-0.98394 z m -0.70555,-1.09499 c 0,-0.17327 -0.26058,-0.41502 -0.57907,-0.53724 -0.48418,-0.1858 -0.506,-0.13417 -0.13319,0.31504 0.50804,0.61215 0.71226,0.67586 0.71226,0.2222 z m 1.41111,-1.27246 c 0,-0.097 -0.0794,-0.17639 -0.17639,-0.17639 -0.097,0 -0.17639,0.0794 -0.17639,0.17639 0,0.097 0.0794,0.17639 0.17639,0.17639 0.097,0 0.17639,-0.0794 0.17639,-0.17639 z m -1.41111,-0.70556 c 0,-0.097 -0.0794,-0.17639 -0.17639,-0.17639 -0.097,0 -0.17639,0.0794 -0.17639,0.17639 0,0.097 0.0794,0.17639 0.17639,0.17639 0.097,0 0.17639,-0.0794 0.17639,-0.17639 z m 2.82222,-0.70555 c 0,-0.097 -0.0794,-0.17639 -0.17639,-0.17639 -0.097,0 -0.17639,0.0794 -0.17639,0.17639 0,0.097 0.0794,0.17639 0.17639,0.17639 0.097,0 0.17639,-0.0794 0.17639,-0.17639 z m 2.46944,-3.175 c 0,-0.097 -0.0794,-0.17639 -0.17639,-0.17639 -0.097,0 -0.17639,0.0794 -0.17639,0.17639 0,0.097 0.0794,0.17639 0.17639,0.17639 0.097,0 0.17639,-0.0794 0.17639,-0.17639 z m -0.70555,-0.35278 c 0,-0.097 -0.0794,-0.17639 -0.17639,-0.17639 -0.097,0 -0.17639,0.0794 -0.17639,0.17639 0,0.097 0.0794,0.17639 0.17639,0.17639 0.097,0 0.17639,-0.0794 0.17639,-0.17639 z m 3.88055,0 c 0,-0.097 -0.0794,-0.17639 -0.17639,-0.17639 -0.097,0 -0.17639,0.0794 -0.17639,0.17639 0,0.097 0.0794,0.17639 0.17639,0.17639 0.097,0 0.17639,-0.0794 0.17639,-0.17639 z m -5.49147,-1.27078 c -1.103,-0.43194 -1.43852,-0.33275 -0.71836,0.21237 0.36813,0.27865 0.83385,0.40497 1.03492,0.2807 0.21097,-0.13039 0.0771,-0.33892 -0.31656,-0.49307 z m 4.31555,-0.19913 c -0.12936,-0.12935 -0.34102,-0.12935 -0.47037,0 -0.12936,0.12935 -0.0235,0.23519 0.23518,0.23519 0.25871,0 0.36454,-0.10584 0.23519,-0.23519 z m 140.75832,-0.35278 c -0.12935,-0.12935 -0.23519,-0.0235 -0.23519,0.23519 0,0.2587 0.10584,0.36454 0.23519,0.23518 0.12935,-0.12935 0.12935,-0.34101 0,-0.47037 z m -0.94074,-0.97871 c 0,-0.0856 -0.18328,-0.26884 -0.40729,-0.40729 -0.25234,-0.15595 -0.31152,-0.0968 -0.15557,0.15557 0.25134,0.40667 0.56286,0.54598 0.56286,0.25172 z m -1.41111,-1.60832 c 0,-0.19403 -0.07,-0.35278 -0.15557,-0.35278 -0.0856,0 -0.25368,0.15875 -0.3736,0.35278 -0.11992,0.19403 -0.0499,0.35278 0.15557,0.35278 0.20548,0 0.3736,-0.15875 0.3736,-0.35278 z m -0.8452,-1.66835 c -0.3586,-0.3586 -0.65449,0.18129 -0.36026,0.65736 0.22226,0.35963 0.30535,0.35991 0.42485,10e-4 0.0817,-0.2451 0.0526,-0.54155 -0.0646,-0.65878 z m -12.56036,-2.91776 c 0,-0.19403 -0.14938,-0.35278 -0.33196,-0.35278 -0.18257,0 -0.43007,0.15875 -0.54998,0.35278 -0.11992,0.19402 0.0295,0.35277 0.33196,0.35277 0.30249,0 0.54998,-0.15875 0.54998,-0.35277 z m 10.93611,0.17639 c 0,-0.097 -0.0794,-0.17639 -0.17639,-0.17639 -0.097,0 -0.17639,0.0794 -0.17639,0.17639 0,0.097 0.0794,0.17638 0.17639,0.17638 0.097,0 0.17639,-0.0794 0.17639,-0.17638 z m -1.17012,-1.65365 c -0.11262,-0.28142 -0.19621,-0.19783 -0.21314,0.21314 -0.0153,0.37188 0.0681,0.58024 0.18529,0.46302 0.11722,-0.11723 0.12976,-0.4215 0.0279,-0.67616 z m -7.29654,-1.34497 c 0,-0.19402 -0.07,-0.35277 -0.15557,-0.35277 -0.0856,0 -0.25368,0.15875 -0.3736,0.35277 -0.11992,0.19403 -0.0499,0.35278 0.15557,0.35278 0.20548,0 0.3736,-0.15875 0.3736,-0.35278 z m 4.93889,-2.29305 c 0,-0.097 -0.0794,-0.17639 -0.17639,-0.17639 -0.097,0 -0.17639,0.0794 -0.17639,0.17639 0,0.097 0.0794,0.17639 0.17639,0.17639 0.097,0 0.17639,-0.0794 0.17639,-0.17639 z m -1.05834,-0.35278 c 0,-0.097 -0.0794,-0.17639 -0.17639,-0.17639 -0.097,0 -0.17639,0.0794 -0.17639,0.17639 0,0.097 0.0794,0.17639 0.17639,0.17639 0.097,0 0.17639,-0.0794 0.17639,-0.17639 z"
       id="path172" /></g></svg>
