<?xml version="1.0" encoding="UTF-8" standalone="no"?>
<!-- Created with Inkscape (http://www.inkscape.org/) -->

<svg
   width="313.63214mm"
   height="303.88257mm"
   viewBox="0 0 313.63216 303.88253"
   version="1.1"
   id="svg1"
   xml:space="preserve"
   xmlns="http://www.w3.org/2000/svg"
   xmlns:svg="http://www.w3.org/2000/svg"><defs
     id="defs1"><clipPath
       clipPathUnits="userSpaceOnUse"
       id="clipPath6"><path
         id="path7"
         style="fill:#ff0000;fill-opacity:1;fill-rule:nonzero;stroke:none;stroke-width:0.264583"
         d="M -175.07778,-16.057127 V 287.55793 H 124.54631 V -16.057127 Z m 132.7459,202.572647 c 0.210643,0.005 0.427212,0.0169 0.650089,0.0367 2.23823,0.19855 4.475655,0.4031 6.717938,0.55346 1.973313,0.11308 0.986628,0.0436 2.958475,0.20825 3.181295,0.26563 4.740125,1.85116 4.950601,3.46956 4.949923,1.63749 3.796379,7.35609 -2.592089,6.81354 -3.228716,-0.27422 -1.569593,-0.1301 -4.979024,-0.43357 -4.228209,-0.39317 -8.460616,-0.76265 -12.666927,-1.35341 -6.647387,-0.93358 -5.930551,-7.21034 0.03204,-7.20421 0.04685,5e-5 0.0972,0.004 0.144695,0.005 0.687229,-1.21692 2.304132,-2.15435 4.784204,-2.09548 z" /></clipPath><clipPath
       clipPathUnits="userSpaceOnUse"
       id="clipPath76"><path
         id="path77"
         style="fill:#ff0000;fill-opacity:1;fill-rule:nonzero;stroke:none;stroke-width:0.264583"
         d="M -133.83107,-122.52355 V 173.82063 H 122.97289 V -122.52355 Z M 13.574404,98.948202 c 2.788179,0.0507 4.135003,2.063798 3.398242,4.077268 0.199805,0.45372 0.374906,0.96736 0.517797,1.54461 1.07913,4.35948 0.671079,8.891 0.311608,13.31495 -0.351859,3.06036 -0.147137,1.57974 -0.604097,4.44366 -0.359666,2.25418 -1.333846,3.66838 -2.455664,4.32532 0.105138,0.36595 0.224724,0.72888 0.324528,1.09554 0.6273,2.23652 0.575201,4.47401 0.39429,6.75514 -0.137303,1.73129 -0.688065,2.99533 -1.427303,3.82199 -0.112477,0.41601 -0.170275,0.80219 -0.311092,1.25212 -0.184975,0.59102 -0.413327,1.1061 -0.670242,1.55856 0.741137,-0.23134 1.446982,-0.38145 2.064991,-0.37517 4.085002,0.0415 5.222724,4.75435 -0.02223,7.27138 -4.46677,2.14368 -9.303523,3.34693 -14.11903492,4.40955 -4.40876268,0.85156 -8.89238128,1.33053 -13.38264308,1.19269 -5.804014,-0.17807 -6.736297,-5.00293 -3.065447,-6.67298 -2.072987,-0.65744 -4.042852,-1.62261 -4.128947,-3.14709 -0.02802,-0.49633 0.0026,-0.90355 0.0341,-1.30897 -1.976731,-0.003 -3.95339,2.4e-4 -5.930386,0.003 -0.814031,0 -1.53062,-0.0962 -2.159559,-0.26149 -0.376306,0.19492 -0.742394,0.40783 -1.120862,0.59893 -6.391272,3.22657 -9.625245,-3.24074 -3.234428,-6.46886 1.833438,-0.92611 3.62694,-1.92211 5.414142,-2.92954 -0.877003,-3.87058 -1.368747,-7.83436 -1.323951,-11.80858 0.01651,-1.46304 0.376836,-2.54918 0.864547,-3.41426 -1.247357,-1.79999 -0.223805,-4.63069 3.842661,-5.68855 3.11826,-0.81116 6.282901,-1.39515 9.473837,-1.82211 -1.259816,-0.12657 -2.516182,-0.30233 -3.764627,-0.50177 -1.477002,-0.21985 -2.935575,-0.54305 -4.407482,-0.7891 -1.14214,-0.22954 -0.588502,-0.12004 -1.660882,-0.3297 -3.350244,-0.65501 -4.783278,-2.61088 -4.608504,-4.32997 -0.200179,-1.7721 1.333365,-3.52972 4.663799,-3.59461 v -5.3e-4 c 0.20954,-0.004 0.426035,-0.002 0.649571,0.008 1.77111,0.0772 3.528708,0.28204 5.26428,0.64027 1.655035,0.33225 3.314115,0.6481 4.955251,1.04439 1.244759,0.34858 2.51628,0.54538 3.7997689,0.6723 0.025956,0.002 0.052073,0.002 0.078034,0.004 0.4990888,-0.0371 0.9984105,-0.0743 1.4965495,-0.11317 1.346872,-0.12588 2.6913231,-0.25136 4.0457464,-0.24236 1.1278499,-0.0444 2.2567291,-0.10772 3.37498791,-0.26872 0.75719517,-0.11591 1.51142439,-0.25483 2.25722659,-0.4284 0.3616431,-0.12394 0.7240561,-0.24538 1.083138,-0.37775 0.3360393,-0.12388 0.6107589,-0.12825 0.9250071,-0.20723 0.1281086,-0.045 0.2583895,-0.0825 0.3855085,-0.13074 1.9825018,-0.7681 3.9540551,-1.56464 5.9510551,-2.29443 1.050809,-0.383992 1.999634,-0.542639 2.826703,-0.527616 z M 0.70283723,110.39557 c -0.45566013,0.0949 -0.90775367,0.208 -1.36890919,0.2744 -1.16638124,0.15534 -2.34111274,0.24237 -3.51761424,0.26251 0.4031694,0.0896 0.8047355,0.18876 1.2025101,0.308 0.1014836,0.0304 0.1982549,0.075 0.2986907,0.10852 0.4205235,-0.21824 0.9206601,-0.35072 1.4898318,-0.37156 0.39885139,-0.0146 0.83259872,0.0278 1.29449508,0.13023 0.22468681,-0.12213 0.44967525,-0.24374 0.67437529,-0.36587 -0.0326284,-0.11319 -0.058211,-0.22834 -0.0733795,-0.34623 z m 10.24433577,1.02474 c -0.76023,0.21437 -1.5189569,0.4343 -2.2696301,0.68006 -0.031261,0.62207 -0.2256075,1.28373 -0.6464723,1.94355 0.6236891,0.43248 1.2549743,1.04482 1.8634525,1.86862 0.2674939,0.36214 0.4748849,0.75712 0.7188199,1.13223 0.154519,-1.86707 0.314174,-3.74736 0.33383,-5.62446 z m 64.566086,3.39773 c 1.50346,0.0187 3.129182,1.24994 3.928441,4.04678 0.257931,0.90255 0.823497,1.65871 1.488797,2.30735 0.856321,0.95375 1.845738,1.76777 2.801898,2.61638 1.458581,1.46408 2.789203,3.04608 4.169772,4.58215 1.315059,1.44746 2.571226,2.91698 3.543967,4.61884 0.0053,0.01 0.0082,0.0206 0.01344,0.0305 0.734605,-0.43313 1.446276,-0.65634 2.094962,-0.69195 3.016182,-0.16561 4.69137,3.55377 1.187525,7.32306 -1.69471,1.82311 -3.657862,3.33908 -5.68751,4.7651 -0.777873,0.49914 -1.607691,0.90075 -2.418456,1.33842 0.165478,1.44344 -0.672182,3.24303 -2.956409,4.73096 -1.354556,0.88234 -2.690448,1.79306 -4.075203,2.6288 -2.075008,1.20078 -4.233777,2.27962 -6.540687,2.96259 -2.077586,0.62971 -4.169056,1.29987 -6.359301,1.36374 -1.872114,0.0897 -3.746989,0.0368 -5.620845,0.0501 h -5.1108 -5.524728 c -7.160125,0 -7.160125,-7.23315 0,-7.23315 h 1.347722 c 0.29438,-0.0541 0.5212,-0.1588 0.84801,-0.18656 1.106628,-0.094 2.200932,-0.28334 3.292822,-0.48421 0.456121,-0.98163 1.356053,-1.98213 2.807581,-2.83962 1.078018,-0.63685 2.158119,-1.26923 3.212209,-1.94561 1.962647,-1.29302 3.840588,-2.72135 5.893696,-3.86902 1.367169,-0.76424 2.559646,-1.07097 3.526915,-1.04128 2.216811,0.068 3.246223,1.90266 2.479953,4.04059 1.105688,-0.48686 2.206929,-0.98346 3.283003,-1.53739 2.619811,-1.23728 5.288743,-2.38548 7.764385,-3.9026 0.246153,-0.17184 0.487463,-0.34958 0.730705,-0.52503 -0.126915,-0.50614 -0.277693,-0.9939 -0.512114,-1.46554 -0.647621,-1.25778 -1.721077,-2.20654 -2.600875,-3.29644 -1.199229,-1.33472 -2.369312,-2.69496 -3.592029,-4.00803 -1.098706,-0.97599 -2.227236,-1.92181 -3.215306,-3.01428 -1.300821,-1.39063 -2.459913,-2.93896 -3.045293,-4.77801 -1.289469,-4.05101 0.646382,-6.61405 2.843754,-6.58667 z m -95.086705,4.28035 c -0.465643,0.10748 -0.930899,0.21773 -1.394745,0.33435 0.171958,0.64334 0.283575,1.36624 0.279569,2.2071 -0.01267,2.6582 0.205063,5.32647 0.670242,7.94732 0.280107,-0.17087 0.565767,-0.33222 0.845429,-0.50385 -0.01897,-0.36223 -0.02445,-0.73164 -0.05529,-1.08985 -0.118034,-2.96491 -0.160888,-5.93314 -0.3452,-8.89507 z m 18.5141159,1.1958 c 0.00497,0.0773 0.00619,0.15612 0.014975,0.23202 -0.1238779,0.22787 -0.2588048,0.44752 -0.3937741,0.66715 0.58900751,0.0447 1.13203305,0.21413 1.64331124,0.45888 -0.37615284,-0.49255 -0.78353709,-0.94642 -1.26452314,-1.35805 z m -6.5422357,14.57068 c -0.046649,0.0755 -0.09888,0.14702 -0.1436608,0.22376 -0.03147,0.054 0.1963367,0.0838 0.1860365,0.0222 -0.017595,-0.10481 -0.026035,-0.14905 -0.042376,-0.24597 z m 13.9236979,6.08439 c -0.2236258,0.5643 -0.5677508,1.09664 -1.1782213,1.50533 0.9079653,0.17659 1.7077452,0.44257 2.2830631,0.84852 0.1405493,-0.0459 0.272804,-0.11448 0.4128956,-0.16174 -0.7336976,-0.43656 -1.2984269,-1.18703 -1.5177374,-2.19211 z" /></clipPath><clipPath
       clipPathUnits="userSpaceOnUse"
       id="clipPath127"><path
         id="path128"
         style="fill:#ff0000;fill-opacity:1;fill-rule:nonzero;stroke:none;stroke-width:0.264583"
         d="M -112.24796,-126.55676 V 185.58027 H 148.5754 V -126.55676 Z M 46.874626,83.305366 c 1.808208,0 3.616317,1.790192 3.616317,5.370214 v 5.232238 c 0.0627,2.146078 -0.111291,4.285324 -0.245462,6.424932 -0.136289,2.02485 -0.190703,4.04985 -0.104904,6.07715 0.192061,1.91863 0.527714,3.82569 0.876432,5.72213 0.304242,2.00862 0.765826,3.9858 1.180806,5.97276 0.41642,1.86142 0.967934,3.68703 1.421104,5.53972 0.25287,0.86996 0.117097,0.46495 0.396356,1.22008 0.186108,0.50319 0.223428,0.93098 0.309544,1.38441 4.425355,2.23251 2.751262,7.58433 -3.415813,6.40477 -3.104732,-0.59371 -6.256094,-0.76586 -9.40821,-0.85576 -3.81635,0.009 -7.630525,0.17062 -11.44478,0.28216 -1.12776,0.0333 -2.255837,0.0512 -3.383772,0.0754 -0.908129,0.5548 -1.966518,0.57724 -2.88613,0.0641 -0.03584,5.3e-4 -0.07165,0.002 -0.107487,0.003 -0.03142,5.3e-4 -0.0525,-0.009 -0.08268,-0.009 -0.32049,0.14732 -0.641715,0.29301 -0.962215,0.44028 -0.262501,0.12062 -0.518089,0.22111 -0.770496,0.31265 -0.876996,0.71434 -1.945576,0.85817 -2.911967,0.46405 -2.943479,-0.21613 -4.295167,-2.77187 -2.550232,-5.0524 -2.22e-4,-0.028 -0.0078,-0.0483 -0.0078,-0.0765 v -6.3469 c -0.014,-2.72977 -0.02254,-5.45666 0.112657,-8.18348 0.135676,-2.32533 0.233519,-4.6523 0.299723,-6.98046 0.046,-1.80459 0.06926,-3.60958 0.08527,-5.41465 -0.0258,-1.02998 0.04009,-2.054459 0.138491,-3.078883 0.0044,-0.04602 0.02191,-0.07504 0.02687,-0.120406 C 15.992671,97.193438 15.83363,95.70984 16.656834,94.418959 10.68718,93.678613 10.992573,87.32947 17.739972,87.32947 h 3.885033 5.177462 5.913334 c 1.498505,0.05847 2.984222,-0.03228 4.475178,-0.161748 1.252041,-0.18606 2.49041,-0.398671 3.697968,-0.782897 1.001961,-0.32245 0.492366,-0.161472 1.527553,-0.482142 0.510384,-0.158096 0.938446,-0.174371 1.394749,-0.23771 0.672338,-1.56932 1.86623,-2.35903 3.063377,-2.35903 z" /></clipPath><clipPath
       clipPathUnits="userSpaceOnUse"
       id="clipPath139"><path
         id="path140"
         style="fill:#ff0000;fill-opacity:1;fill-rule:nonzero;stroke:none;stroke-width:0.264583"
         d="M 97.168006,-339.91235 V -44.578961 H 346.46958 V -339.91235 Z m 14.326254,94.53944 c 1.76488,0.006 3.77708,1.78446 4.35839,5.31699 0.32911,1.99994 0.60308,4.00817 0.88884,6.01462 1.02527,-1.2445 2.22305,-1.83589 3.28403,-1.8402 2.05627,-0.008 3.59454,2.17302 2.34611,6.00222 -0.0197,0.0606 -0.0413,0.12046 -0.0615,0.18087 0.31698,0.91799 0.41757,2.09982 0.17777,3.54139 -0.2164,1.30085 -0.62011,2.56457 -1.0263,3.8163 -1.34183,4.13496 -4.42238,4.92072 -6.12882,3.38016 -1.93867,0.62007 -4.30523,-0.86149 -4.65605,-4.82762 -0.16862,-1.90632 -0.33891,-3.81275 -0.57464,-5.71231 -0.45291,-3.52522 -1.07719,-7.02592 -1.48208,-10.55543 -0.40801,-3.55672 1.10935,-5.32303 2.87424,-5.31699 z" /></clipPath><clipPath
       clipPathUnits="userSpaceOnUse"
       id="clipPath170"><path
         id="path171"
         style="fill:#ff0000;fill-opacity:1;fill-rule:nonzero;stroke:none;stroke-width:0.264583"
         d="M 88.756261,-299.52331 V 17.880567 H 410.91541 V -299.52331 Z M 363.24287,-220.863 c 0.90345,-0.008 1.97628,0.23856 3.18532,0.82218 3.39402,1.63831 6.49674,3.81197 9.57823,5.96449 3.22509,2.31448 6.37511,4.73585 9.43663,7.26261 1.87296,1.50796 3.75989,2.99047 5.54284,4.6054 1.76167,1.54167 3.42262,3.17283 4.95419,4.94388 1.19316,1.48882 2.47049,2.9032 3.73311,4.33204 1.08043,1.20022 2.09423,2.45631 2.94299,3.83026 0.82616,1.73429 1.48968,3.55524 1.93786,5.42344 1.67031,6.96258 -5.76469,8.62686 -7.05745,1.5844 -0.21127,-1.15093 -0.75649,-2.20765 -1.10278,-3.32021 -0.52141,-1.02678 -1.43909,-1.82952 -2.14042,-2.72904 -1.28368,-1.45272 -2.58234,-2.89095 -3.79617,-4.40386 -1.32794,-1.55409 -2.79577,-2.95456 -4.33049,-4.3031 -1.69875,-1.54267 -3.51006,-2.94207 -5.29113,-4.38733 -2.90883,-2.40671 -5.90918,-4.70386 -8.97258,-6.91017 -2.63017,-1.83963 -5.2759,-3.68008 -8.12096,-5.17746 -5.14813,-2.7095 -4.41412,-7.50431 -0.49919,-7.53753 z m -17.79788,14.64304 c 0.81097,-0.004 1.74701,0.16947 2.79104,0.57154 4.59168,1.76834 8.99191,4.00303 13.38523,6.20892 0.37082,0.1876 0.72266,0.4088 1.09088,0.601 0.4155,-0.11565 0.91038,-0.17484 1.48572,-0.16691 0.65984,0.009 1.42523,0.10601 2.29753,0.30644 2.35556,0.54125 4.30075,1.95473 6.16344,3.42614 -1.07651,-2.72314 0.34142,-4.84679 2.57866,-4.84311 1.28683,0.002 2.83083,0.70484 4.29689,2.3952 2.44776,2.82227 4.79147,5.70892 6.96391,8.74934 1.67944,2.35043 1.72027,4.43615 0.89969,5.70663 1.5344,1.02281 3.07247,2.04019 4.58422,3.09645 1.80695,1.14136 3.31928,2.58833 4.72631,4.18269 0.96689,1.16625 2.0869,2.25988 2.79262,3.61942 0.19542,0.37651 0.34592,0.77482 0.51882,1.1622 0.40259,1.55462 0.27207,0.76263 0.38706,2.3766 0.0637,0.89436 -0.044,1.45412 -0.26977,1.7756 0.11753,0.20753 0.23421,0.41574 0.35608,0.62063 3.66003,6.15399 -2.6856,9.845 -6.25234,3.63648 -0.83209,-1.44832 -1.62388,-2.92102 -2.35437,-4.42351 -0.84839,-1.84687 -1.70402,-3.69055 -2.54093,-5.54229 -0.078,-0.17246 -0.14713,-0.34128 -0.2119,-0.5085 -0.415,-0.33988 -0.82071,-0.68775 -1.29707,-0.97255 -2.35545,-1.64933 -4.79565,-3.17384 -7.14841,-4.82761 -3.27895,-2.27743 -6.61384,-4.47194 -9.95804,-6.65231 -4.00886,-2.60003 -8.08797,-5.09434 -12.3548,-7.25434 -4.08429,-2.05175 -8.1752,-4.1242 -12.42663,-5.81101 -5.61546,-2.22804 -4.88331,-7.4129 -0.50384,-7.43314 z m -225.34594,21.50101 c 3.05551,-0.16929 4.03285,3.80875 0.35915,7.72563 -1.17612,1.25397 -2.32696,2.59265 -3.45922,3.90674 -1.44062,1.57315 -2.77631,3.23874 -4.13618,4.88135 -1.14319,1.4697 -2.29319,2.93265 -3.46335,4.38113 -0.8717,1.2084 -1.86054,2.32105 -2.81017,3.46594 -0.80685,0.95022 -1.53489,1.96075 -2.32234,2.92695 -0.80594,1.00684 -1.52017,2.08004 -2.22519,3.15847 -0.20511,0.28103 -0.29499,0.51935 -0.30179,0.78909 -0.18033,7.15787 -8.659963,5.5717 -7.093102,-1.4149 0.267098,-1.19094 0.644303,-2.32859 1.347721,-3.34243 0.846108,-1.28566 1.701136,-2.56663 2.670121,-3.76463 0.806525,-0.98525 1.5446,-2.0236 2.37453,-2.98999 0.93132,-1.109 1.88214,-2.2008 2.7342,-3.37448 1.18855,-1.47082 2.35327,-2.95822 3.51813,-4.44779 1.39067,-1.67946 2.758,-3.38112 4.2292,-4.99142 1.55862,-1.80675 3.07205,-3.68494 4.92528,-5.20227 1.38505,-1.13397 2.63451,-1.65096 3.65301,-1.70739 z m 30.4953,3.26389 c 4.11093,0.0973 5.25218,4.81763 -0.0434,7.22591 -1.93926,0.8819 -3.80509,1.88928 -5.66115,2.92437 0.381,1.39299 -0.23993,3.26566 -2.43035,4.98678 -2.3369,1.83618 -4.71607,3.61825 -7.08845,5.40845 -2.84267,2.19936 -5.66068,4.43162 -8.41086,6.74584 -2.22216,1.84972 -4.46469,3.67225 -6.66213,5.55109 -1.67979,1.46598 -3.37138,2.91821 -5.06067,4.37337 -1.40892,1.30469 -2.82191,2.592 -4.12274,4.00648 -1.07181,1.16531 -2.16701,1.83049 -3.17087,2.10529 -0.88357,6.53411 -7.65001,5.87099 -7.10344,-1.07177 0.0596,-0.75732 0.12015,-1.51435 0.21239,-2.26859 0.18237,-1.4495 0.31176,-2.90657 0.57051,-4.34444 0.56059,-2.2771 1.55106,-4.35314 3.32124,-5.95312 1.46716,-1.38711 2.94871,-2.75912 4.4943,-4.05919 1.45063,-1.21601 2.91967,-2.40825 4.4111,-3.57394 2.2284,-1.75259 4.48249,-3.46927 6.81044,-5.08961 3.1083,-2.16601 6.29001,-4.21936 9.5343,-6.17689 3.28252,-2.04598 6.49796,-4.19789 9.78648,-6.23476 2.38673,-1.38679 4.82146,-2.65715 7.33495,-3.79873 1.22236,-0.55516 2.32966,-0.77899 3.27836,-0.75654 z" /></clipPath></defs><g
     id="layer1"
     transform="translate(27.361436,367.91153)"><path
       style="fill:#000000"
       d="m 56.042566,-64.479218 c -4.04723,-1.283331 -7.65734,-4.406703 -9.71425,-8.404524 -1.18711,-2.307262 -1.26467,-2.37856 -2.80884,-2.582029 -13.41257,-1.76732 -25.01799,-5.015475 -31.50681,-8.818207 -3.6221997,-2.122767 -7.7114197,-6.018093 -8.9279797,-8.50464 -0.80805,-1.651605 -0.90728,-2.196625 -0.71571,-3.931005 0.12233,-1.10746 0.31525,-2.34681 0.42871,-2.75411 0.17998,-0.646067 -0.34854,-1.046497 -4.14247,-3.138577 -9.1811603,-5.06275 -17.5921703,-10.83956 -19.1759903,-13.17035 -1.07945,-1.58856 -1.11817,-3.23045 -0.14436,-6.12116 2.40766,-7.14705 6.39019,-11.06414 10.47742,-10.30527 0.7255503,0.13471 2.0070203,0.53846 2.8477303,0.89723 0.8407,0.35876 1.6569,0.6523 1.81377,0.6523 0.15688,0 0.53096,-0.61413 0.83129,-1.36473 0.30033,-0.75061 1.27007,-2.58935 2.15497,-4.0861 0.8849,-1.49675 1.60890999,-2.85731 1.60890999,-3.02347 0,-0.16616 -1.50811999,-1.79317 -3.35138999,-3.61559 -3.33264,-3.29495 -3.35137,-3.32318 -3.34794,-5.0486 0.002,-1.1025 0.32375,-2.42316 0.88195,-3.62224 0.48317,-1.03791 0.87849,-2.00662 0.87849,-2.15268 0,-0.14607 -1.78593,-1.51634 -3.96875,-3.04504 -9.1103703,-6.38035 -14.5360703,-11.48593 -16.5590903,-15.58211 -0.96842,-1.96085 -1.06768,-2.44548 -0.89375,-4.36364 0.24009,-2.64774 1.93544,-5.33563 4.66544,-7.39679 4.87956,-3.68411 8.15967,-3.41706 14.8940203,1.21262 1.5952,1.09666 3.03792,1.99393 3.20604,1.99393 0.16811,0 0.32678,-0.56161 0.35258,-1.24802 0.0258,-0.68641 0.31934,-1.83735 0.65231,-2.55764 0.78004,-1.68743 5.17426,-6.05733 6.99981,-6.96106 1.86532,-0.92341 5.62318,-0.93703 8.3864697,-0.0304 1.12005,0.36749 2.11944,0.58518 2.22086,0.48376 0.10142,-0.10142 -0.40768,-1.59272 -1.13135,-3.314 -1.83319,-4.36035 -1.81728,-6.05359 0.0943,-10.03737 1.58611,-3.30553 3.12028,-5.26695 5.09443,-6.51318 l 1.28897,-0.81369 0.19533,-6.11184 c 0.2142,-6.7019 1.02738,-12.25933 3.43624,-23.48381 0.78102,-3.63931 1.49675,-6.86323 1.59049,-7.16426 0.12673,-0.40693 -0.53127,-0.83531 -2.56512,-1.67 -5.01378,-2.05762 -10.79004,-7.1969 -14.8800197,-13.23909 -1.57199,-2.32233 -4.38381,-8.30614 -5.45814,-11.61541 -0.48748,-1.5016 -1.29718001,-5.20698 -1.79932001,-8.23419 -1.02349999,-6.17025 -1.35670999,-7.30575 -3.61494999,-12.31897 -2.44757,-5.43352 -3.17065,-7.55561 -3.61879,-10.62046 -0.795,-5.43709 0.59699,-8.99114 4.23474,-10.81219 1.99825,-1.00032 3.48826999,-1.24979 12.05779,-2.01881 2.4072697,-0.21602 5.4144597,-0.75613 7.2319397,-1.29889 6.97876,-2.0841 9.31619,-2.64865 13.69451,-3.30758 14.06104,-2.11618 23.86214,0.74286 31.98283,9.32961 l 1.99673,2.11132 1.94208,-1.65917 c 8.09986,-6.91992 23.12618,-14.02354 36.772754,-17.38414 2.12211,-0.52258 3.97305,-1.05072 4.11321,-1.17364 0.14016,-0.12292 -0.54655,-1.96619 -1.52601,-4.09616 -2.28867,-4.97704 -4.77239,-10.97166 -5.832374,-14.07682 -1.46493,-4.29147 -0.92405,-7.26086 1.441574,-7.91404 2.09785,-0.57924 3.9304,0.12429 8.77146,3.36744 2.73241,1.83052 4.64822,2.90083 4.84324,2.70581 0.17747,-0.17747 0.97425,-1.8262 1.77063,-3.66386 2.73015,-6.29986 4.67413,-8.81146 6.81658,-8.80692 1.46672,0.003 2.28695,0.60054 6.60303,4.80951 4.24189,4.13663 5.72866,5.41872 6.28383,5.41872 0.21844,0 1.13599,-1.15094 2.03901,-2.55764 3.51956,-5.48268 5.67483,-7.9865 8.60608,-9.99786 1.171,-0.80351 1.36882,-0.83502 2.62779,-0.41852 2.10281,0.69566 2.68691,2.01139 2.66089,5.99388 -0.0291,4.45556 -1.88971,15.65584 -4.11087,24.7463 -0.46748,1.91326 -0.77923,3.59313 -0.69277,3.73303 0.0865,0.1399 1.31528,0.45177 2.7307,0.69304 1.41542,0.24127 4.63723,0.97319 7.1596,1.62648 12.81536,3.31917 24.18762,8.56999 33.03161,15.25142 2.11884,1.60073 3.9679,2.91042 4.10903,2.91042 0.14113,0 1.28785,-1.04903 2.54825,-2.33118 2.88382,-2.93355 5.90739,-5.10959 9.22717,-6.64072 3.92956,-1.81237 6.32219,-2.33955 11.58532,-2.55263 7.22579,-0.29255 14.24123,0.83064 24.69336,3.95347 2.08774,0.62377 4.8181,1.05057 8.99583,1.4062 7.86931,0.66988 9.5564,1.18556 11.22302,3.43046 1.2637,1.70218 1.65445,3.22195 1.65445,6.43478 0,3.50751 -0.85484,7.03885 -2.83748,11.72156 -2.54004,5.9992 -3.1404,8.10908 -3.53528,12.42428 -0.6435,7.03206 -1.71031,11.18054 -4.22442,16.42738 -3.96336,8.27136 -10.05248,14.6059 -17.20959,17.9032 -1.29565,0.5969 -2.40406,1.121 -2.46314,1.16466 -0.0591,0.0437 0.46645,2.51812 1.16783,5.49882 1.78931,7.6041 2.19112,9.5873 3.01433,14.8779 1.42037,9.12831 1.55928,16.55607 0.45256,24.19762 -0.28024,1.9349 0.13863,1.75096 1.78276,-0.78291 3.24841,-5.00631 5.56086,-5.72368 10.44097,-3.23901 2.69371,1.37148 4.13416,3.58999 3.70217,5.7019 -0.0927,0.45301 -0.24783,1.20838 -0.34482,1.6786 -0.12168,0.58999 0.11454,1.20062 0.76225,1.97038 0.92963,1.1048 0.96128,1.11317 3.31579,0.87672 4.0459,-0.40632 6.35825,1.12983 8.49973,5.64656 0.55196,1.16417 1.00369,2.57107 1.00384,3.12644 1.5e-4,0.55538 -0.73937,2.58226 -1.64339,4.50419 l -1.64368,3.49441 1.45932,1.24912 c 1.67646,1.43499 2.3963,3.29987 2.02916,5.2569 -0.45504,2.4256 -4.71687,9.90891 -7.87495,13.82757 -1.1375,1.41145 -1.17689,1.55938 -0.9498,3.5666 0.31455,2.78031 -0.10161,3.58639 -4.26942,8.26965 l -3.36733,3.78378 1.94694,2.29504 c 1.07082,1.26227 2.60077,3.3303 3.39989,4.59561 1.30316,2.0634 2.0941,2.63127 2.0941,1.50348 0,-0.22047 0.4303,-0.84999 0.95623,-1.39894 0.76199,-0.79535 0.93601,-1.27809 0.85669,-2.37657 -0.0547,-0.75817 0.10225,-1.74647 0.34885,-2.19622 0.24661,-0.44975 0.45641,-1.94125 0.46622,-3.31444 0.0157,-2.1921 0.14168,-2.65911 1.03286,-3.82767 0.55827,-0.73203 1.61153,-1.75163 2.34059,-2.26579 1.15566,-0.815 1.34717,-1.15402 1.49414,-2.64493 0.18292,-1.85568 3.25851,-8.43574 5.17802,-11.07809 0.85765,-1.18062 1.311,-1.49931 2.13286,-1.49931 1.07849,0 1.77409,0.78016 1.77409,1.98974 0,0.34375 -1.03151,2.47563 -2.29224,4.73752 -1.26073,2.26189 -2.38732,4.58792 -2.50353,5.16896 -0.2401,1.20048 0.30635,1.48982 2.85549,1.51196 3.19032,0.0277 8.9796,2.93168 10.92236,5.47876 2.05051,2.68836 2.59827,6.33415 1.27719,8.50067 -0.81139,1.33065 -2.6818,2.81014 -3.95385,3.1275 -0.91051,0.22716 -0.93093,0.29918 -1.18163,4.16728 -0.28093,4.33442 -0.88371,6.03781 -2.55816,7.22905 -1.1575,0.82347 -4.3637,1.82773 -5.89285,1.84579 -0.9203,0.0109 -1.18822,0.23552 -1.78806,1.4993 -1.0442,2.20002 -3.12408,3.1874 -6.17361,2.93078 l -2.29305,-0.19296 1.05833,0.78295 c 1.91735,1.41844 4.59081,4.29335 5.21112,5.60379 1.19242,2.51903 0.49182,6.73157 -1.69592,10.19716 -3.70168,5.863837 -13.41374,11.442174 -31.29645,17.975798 l -4.14514,1.514467 -0.008,1.269212 c -0.0236,3.873043 -4.6243,8.659599 -9.90212,10.302242 -2.81217,0.875244 -4.28961,0.832857 -6.78888,-0.194769 -2.86856,-1.179467 -4.28983,-2.239052 -8.86961,-6.612497 -2.19624,-2.097295 -4.12839,-3.812245 -4.29366,-3.811 -0.16526,0.0012 -1.54196,1.186732 -3.05931,2.634415 -3.39368,3.237853 -6.4013,5.238853 -9.08062,6.041436 -1.89203,0.566754 -2.05542,0.700197 -2.27221,1.855819 -0.29115,1.551981 -1.64544,4.262131 -2.52853,5.060003 -0.36578,0.330485 -1.61325,1.043915 -2.77216,1.585401 -2.00098,0.934936 -2.36472,0.984625 -7.22237,0.986618 -4.92919,0.002 -5.19088,-0.03502 -7.19329,-1.018222 -1.46266,-0.718181 -3.09937,-2.056796 -5.52716,-4.520493 l -3.44916,-3.500174 -2.05756,1.392943 c -5.34855,3.620904 -12.81935,6.121776 -23.04783,7.715322 -5.88217,0.916412 -21.84026,0.90709 -27.33882,-0.01597 -4.27147,-0.717065 -8.348714,-2.066944 -10.773464,-3.56684 -3.12994,-1.936113 -6.33772,-5.674321 -6.33772,-7.385703 0,-1.096677 -0.81583,-0.914145 -3.45002,0.771902 -6.83583,4.375353 -16.92344,9.362435 -21.1567,10.459383 -2.52621,0.654606 -5.71356,0.678389 -7.67244,0.05725 z m 8.64305,-4.431483 c 3.87252,-1.318427 16.61331,-8.045584 23.03036,-12.160062 1.71471,-1.099435 1.67888,-1.040871 4.34709,-7.104196 0.27327,-0.620989 -2.70665,-4.10794 -3.36376,-3.936101 -1.22758,0.321019 -11.9486,7.178391 -16.95813,10.846747 -1.45521,1.065613 -3.35487,2.412925 -4.22146,2.994027 -0.8666,0.581101 -1.86941,1.344983 -2.22847,1.697514 -0.52679,0.517209 -0.75367,0.557279 -1.1751,0.207529 -0.37712,-0.312981 -0.40911,-0.503366 -0.11512,-0.685063 0.30533,-0.188705 0.30195,-0.316638 -0.0135,-0.511613 -1.12362,-0.694432 7.91045,-7.396872 21.29737,-15.80067 2.61647,-1.642524 2.68408,-1.720554 2.68408,-3.098134 0,-0.77725 0.21425,-1.92595 0.47611,-2.55268 0.59825,-1.431807 4.00346,-4.569797 6.46874,-5.961117 3.27743,-1.84967 3.07001,-2.17331 -0.9513,-1.48434 -4.21803,0.72268 -7.5579,1.67797 -13.04911,3.73239 -10.75437,4.023527 -27.68209,13.652988 -30.50363,17.352215 -1.30428,1.710005 -2.10803,5.764959 -1.60635,8.104181 0.78432,3.657184 4.21382,7.624584 7.72777,8.939845 1.7241,0.645324 5.30211,0.390624 8.15443,-0.580472 z m 63.484584,0.68184 c 8.64369,-0.765018 16.81967,-2.90555 23.12236,-6.053604 4.81397,-2.404469 4.80475,-2.393038 3.42544,-4.246912 -1.12461,-1.511551 -5.22115,-8.128437 -5.44138,-8.789136 -0.0646,-0.193878 -2.01873,0.914935 -4.34245,2.46403 -2.32372,1.549095 -5.57432,3.505108 -7.22355,4.346696 -2.88082,1.47005 -3.12334,1.530116 -6.17361,1.52902 -2.63535,-9.46e-4 -3.44483,-0.140983 -4.7625,-0.823891 -2.04483,-1.059768 -4.0097,-2.931604 -5.52185,-5.260385 -1.13011,-1.740434 -1.29234,-1.853497 -2.69107,-1.875541 -0.81866,-0.0129 -2.99659,-0.222296 -4.83986,-0.46532 -3.32495,-0.438376 -3.36808,-0.434368 -5.46805,0.508131 -4.62359,2.075136 -8.781564,2.579241 -11.415614,1.38401 -0.84581,-0.383794 -1.58032,-0.697808 -1.63225,-0.697808 -0.58761,0 -3.4629,9.338976 -3.16463,10.278742 0.32097,1.011266 3.88365,3.993291 6.02149,5.040091 2.379184,1.164971 6.409044,2.201187 10.191004,2.620454 3.98717,0.442019 15.1285,0.465191 19.91652,0.04142 z m 52.10508,-1.203198 c 1.97308,-1.174293 3.2794,-4.470376 2.79501,-7.052357 -0.1529,-0.815036 -1.01528,-2.078625 -2.63766,-3.864797 -3.32788,-3.66384 -7.91498,-9.844035 -10.89573,-14.6798 -3.61842,-5.870267 -3.33544,-5.553777 -4.34627,-4.86119 -2.33643,1.60084 -2.8957,2.25772 -2.67406,3.14079 0.12026,0.47913 1.09686,2.26998 2.17023,3.979666 1.07338,1.709686 1.95159,3.329518 1.95159,3.599627 0,0.270108 0.14806,0.491105 0.32901,0.491105 0.33465,0 0.88232,1.229518 0.90221,2.025459 0.006,0.240878 0.16182,0.427568 0.34623,0.414867 0.35949,-0.02476 0.82663,0.934668 0.8672,1.781111 0.0136,0.284498 -0.52507,-0.350502 -1.19713,-1.411111 -0.67206,-1.06061 -1.82299,-2.584996 -2.55764,-3.387526 -0.73464,-0.802529 -1.52525,-1.755029 -1.75691,-2.116666 -0.23165,-0.361637 -0.94603,-1.487714 -1.5875,-2.502393 -0.64146,-1.014679 -1.34726,-1.848119 -1.56844,-1.852079 -0.413,-0.007 -8.24091,5.882683 -8.24091,6.200851 0,0.99856 5.86824,9.619751 9.46157,13.900264 3.0028,3.577037 5.34821,5.708881 7.2059,6.549758 1.76523,0.79902 9.91941,0.545423 11.4333,-0.355579 z m -8.698,-11.309456 c 0,-0.09701 0.0794,-0.176389 0.17639,-0.176389 0.097,0 0.17639,0.07937 0.17639,0.176389 0,0.09701 -0.0794,0.176388 -0.17639,0.176388 -0.097,0 -0.17639,-0.07937 -0.17639,-0.176388 z m -0.35278,-0.705556 c 0,-0.09701 0.0794,-0.176389 0.17639,-0.176389 0.097,0 0.17639,0.07937 0.17639,0.176389 0,0.09701 -0.0794,0.176389 -0.17639,0.176389 -0.097,0 -0.17639,-0.07937 -0.17639,-0.176389 z m 49.9499,4.776475 c 2.2875,-1.145887 4.4775,-3.087242 5.31955,-4.715582 l 0.54169,-1.04752 -8.62399,-8.502519 c -8.61587,-8.494516 -11.19505,-11.366883 -15.00182,-16.707183 -5.22216,-7.32586 -6.15473,-8.545 -7.31715,-9.56561 -2.3282,-2.0442 -3.92598,-1.91159 -6.55087,0.54369 -2.42546,2.26874 -3.94612,4.6421 -3.71818,5.80315 0.43913,2.23678 8.18174,13.579067 13.93491,20.413502 2.78282,3.305827 8.83787,9.432272 11.36904,11.503106 4.47197,3.658657 6.40901,4.097273 10.04682,2.274966 z m -31.39621,-2.165434 c 2.62342,-1.586528 8.25742,-6.713003 8.25742,-7.513568 0,-0.251823 -1.04541,-1.683082 -2.32314,-3.180575 -2.08933,-2.448675 -2.388,-2.676012 -2.96742,-2.258695 -0.35435,0.255211 -2.12674,1.715624 -3.93866,3.245363 -1.81191,1.529738 -3.81032,3.214452 -4.44091,3.743808 -0.63059,0.529356 -1.1423,1.182752 -1.13713,1.45199 0.008,0.411603 2.18612,3.601264 3.53658,5.178762 0.44625,0.521274 1.39586,0.311047 3.01326,-0.667085 z M 44.856346,-81.467529 c 0.67513,-4.074231 2.18166,-6.316466 6.29836,-9.374106 l 2.06564,-1.534232 -2.99861,-0.417529 c -12.25413,-1.706277 -21.8928,-4.199657 -29.16148,-7.543624 -6.88126,-3.16574 -8.87909,-3.46613 -11.5012397,-1.72929 -2.2821,1.51159 -3.85555,4.958917 -3.29066,7.209597 0.53791,2.143228 6.0659497,6.761726 10.5603597,8.822857 4.91788,2.255328 12.01768,4.274788 21.0458,5.986244 2.42534,0.459772 4.90219,0.84892 5.50409,0.864773 1.07836,0.0284 1.1,-0.005 1.47774,-2.28469 z m 89.185864,-1.38286 c 6.75381,-2.82192 27.15369,-17.764621 38.5398,-28.230011 1.4829,-1.36298 1.52964,-1.47007 1.3703,-3.13976 -0.22161,-2.32219 -3.76525,-9.33425 -5.77963,-11.43658 -1.32262,-1.38036 -1.6355,-1.543 -2.59805,-1.35049 -1.64734,0.32947 -4.89867,2.99249 -10.60087,8.68271 -3.38645,3.37934 -5.81084,6.15139 -7.11105,8.13078 -2.25956,3.43988 -3.75499,4.6753 -10.04958,8.30224 -2.2877,1.31817 -6.08666,3.520547 -8.44213,4.894167 -2.35547,1.37362 -4.77641,2.767914 -5.37986,3.098439 -0.89679,0.491188 -1.09719,0.821371 -1.09719,1.807729 0,1.635684 0.77118,3.702709 2.23543,5.991695 2.03176,3.176154 5.79985,4.54977 8.91283,3.249081 z m 50.5173,-5.17902 c 6.33015,-5.324254 7.12611,-6.04295 7.12541,-6.433814 -3.9e-4,-0.21417 -0.95568,-1.73878 -2.12286,-3.38801 -3.62148,-5.117147 -7.09668,-11.146297 -7.30046,-12.665627 -0.25941,-1.93399 0.009,-2.75658 1.59192,-4.87812 l 1.36806,-1.83361 0.42478,-5.52804 c 0.51566,-6.71082 1.07555,-9.77026 2.52797,-13.81374 1.5412,-4.29063 1.59831,-4.75165 0.65964,-5.32515 -1.2948,-0.79107 -5.22462,-2.17256 -7.59142,-2.66868 -3.60381,-0.75543 -4.97963,-0.21113 -6.16597,2.43936 -0.75584,1.68868 -2.57634,8.8692 -3.14719,12.41332 l -0.4084,2.53555 1.46301,2.15437 c 2.0076,2.95633 4.15462,7.53918 4.6578,9.94214 0.74475,3.55656 0.0428,4.6793 -6.3291,10.12277 -1.21267,1.03598 -2.20486,2.04428 -2.20486,2.24068 0,1.25574 11.01943,17.564773 11.8679,17.564773 0.089,0 1.7017,-1.295177 3.58377,-2.878172 z m 48.46625,-0.786311 c 20.32972,-7.242753 29.66019,-13.26942 31.67284,-20.4579 0.42096,-1.50353 0.3926,-1.69734 -0.46181,-3.15527 -1.59121,-2.71519 -4.70665,-4.93796 -7.5195,-5.36493 -1.23028,-0.18675 -1.53427,-0.0554 -3.29557,1.42433 -3.3911,2.84892 -10.91116,7.55552 -16.89676,10.57523 -7.4659,3.76652 -12.62135,5.71305 -18.28965,6.905587 -1.0169,0.21394 -1.92845,0.51769 -2.02567,0.67499 -0.0972,0.15731 1.92542,2.26875 4.49474,4.692096 6.03648,5.693503 6.66996,6.229169 7.38249,6.242535 0.32687,0.0061 2.54937,-0.685369 4.93889,-1.536668 z m -127.06514,-1.279564 c 10.46692,-4.623129 12.94118,-5.752889 16.58056,-7.570789 3.61213,-1.80428 13.87732,-7.652727 18.45241,-10.512997 2.3412,-1.46368 3.48898,-3.07257 3.69087,-5.17363 0.14228,-1.48077 0.0198,-1.92178 -0.90243,-3.24832 -1.15758,-1.66513 -5.14385,-5.80101 -6.06771,-6.29545 -0.95599,-0.51163 -7.72948,2.79738 -21.34676,10.4284 -2.52236,1.41351 -7.0522,3.76137 -10.06631,5.21745 -5.58854,2.69978 -11.258324,6.14637 -13.288914,8.078167 -2.06913,1.96848 -1.80615,4.01 0.87172,6.766994 2.94916,3.036313 5.29003,4.211689 7.666844,3.849602 0.77611,-0.118234 2.76048,-0.810976 4.40972,-1.539427 z m 13.40556,-0.81799 c 0,-0.258704 -0.0952,-0.565584 -0.21159,-0.681956 -0.30974,-0.309743 -1.91624,0.49609 -1.69681,0.851135 0.30203,0.488701 1.9084,0.346298 1.9084,-0.169179 z m -66.675004,-5.348379 c 0,-0.0959 -1.38009,-1.06462 -3.06687,-2.15278 -4.29491,-2.770677 -8.3404,-5.905687 -9.08264,-7.038487 -0.34556,-0.52739 -0.80922,-1.68528 -1.03036,-2.57309 -0.46283,-1.8581 -0.91262,-2.08149 -4.3034,-2.13728 -3.39791,-0.0559 -3.50701,0.1142 -3.50701,5.46823 v 4.50276 l 1.94028,0.495227 c 2.16448,0.55245 17.46585,3.51992 18.43264,3.57473 0.33955,0.0192 0.61736,-0.0434 0.61736,-0.13931 z m 11.80936,-2.81336 c 2.71058,-1.449187 6.64348,-3.376227 8.73977,-4.282327 2.0963,-0.90609 3.88669,-1.76916 3.97864,-1.91794 0.0919,-0.14878 -0.66637,-0.86853 -1.68516,-1.59944 -1.01878,-0.7309 -4.15421,-3.17896 -6.96761,-5.44012 -9.55812,-7.68195 -13.24534,-10.23084 -14.79994,-10.23084 -1.30056,0 -4.32,1.92152 -6.18518,3.93614 -3.30848,3.57355 -5.24794,8.66477 -4.11045,10.79019 0.53123,0.99261 5.16476,4.48343 10.95538,8.253597 2.63537,1.71584 4.87137,3.12104 4.9689,3.12267 0.0975,0.002 2.39507,-1.18274 5.10565,-2.63193 z m -36.75783,-5.030297 c -0.29089,-3.96447 0.92395,-7.82953 2.85956,-9.09779 0.94918,-0.62193 3.45593,-0.74218 6.78938,-0.32569 1.27814,0.15969 1.9363,0.12221 1.8506,-0.10539 -0.0732,-0.19427 -1.56176,-1.51869 -3.30801,-2.94316 -1.74625,-1.42446 -3.25438,-2.68112 -3.35139,-2.79256 -0.097,-0.11144 -1.36701,-1.16692 -2.82222,-2.34551 -1.45521,-1.1786 -4.32647,-3.63349 -6.38057,-5.45533 -8.45164,-7.49598 -13.5101497,-11.83367 -14.8733497,-12.75394 -1.64054,-1.1075 -2.3692,-1.03368 -3.91975,0.39711 -2.23689,2.06412 -6.21231,8.78406 -6.22011,10.5143 -0.007,1.51121 13.5906397,11.75262 22.3979397,16.86981 3.88989,2.26009 4.65326,2.83085 5.19114,3.88134 0.29849,0.58295 0.28004,0.63081 -0.10344,0.26832 -0.37956,-0.35879 -0.64197,-0.15963 -1.40511,1.06646 -1.66742,2.67894 -1.65031,2.9301 0.26754,3.92818 0.93188,0.48496 2.02771,0.88913 2.43519,0.89817 0.68509,0.0152 0.7297,-0.13572 0.5926,-2.00432 z m 187.575524,1.49338 c 0.56089,-0.29005 1.28061,-0.96886 1.59936,-1.50847 0.33241,-0.56273 1.65772,-1.56378 3.10782,-2.34744 13.70069,-7.40415 27.85703,-17.2407 34.26673,-23.81029 1.64443,-1.68545 1.72852,-1.85928 1.3651,-2.82208 -0.73166,-1.93839 -3.82424,-6.81827 -5.18744,-8.18542 -1.1943,-1.19777 -1.56817,-1.36796 -2.99861,-1.36507 -2.18408,0.004 -4.36377,1.28762 -8.16058,4.80415 -4.4578,4.12874 -9.714,8.59204 -12.7,10.7842 -3.60702,2.64809 -11.86833,8.09489 -14.56535,9.60315 -3.5429,1.9813 -4.14246,2.80083 -4.38382,5.99216 -0.20371,2.69354 -0.20096,2.70463 1.17041,4.71377 3.1236,4.5763 4.25204,5.29677 6.48638,4.14134 z M 7.2861763,-104.86368 c 3.2153497,-2.39451 5.8874697,-2.69323 10.0070997,-1.1187 2.04452,0.78143 2.41831,0.60896 2.79833,-1.29113 0.1991,-0.99552 0.10176,-1.11786 -1.49721,-1.88161 -3.13227,-1.49614 -8.28794,-5.11727 -20.0283297,-14.06708 -3.68699,-2.81063 -8.13872,-5.3207 -9.4365303,-5.3207 -1.18893,0 -2.27192,0.77074 -3.37774,2.40384 -1.42257,2.10088 -2.89288,5.32741 -3.15017,6.91292 -0.23616,1.45526 0.39874,2.1354 5.17844,5.5475 3.8939103,2.77974 16.5304803,10.18296 17.3813303,10.18296 0.15831,0 1.11446,-0.6156 2.12478,-1.368 z m 221.6174937,-1.34455 c 3.29536,-1.28054 6.19941,-2.76241 13.43001,-6.85306 4.88291,-2.76246 5.50092,-3.30779 5.06022,-4.46512 -0.53096,-1.39436 -1.21921,-1.24402 -4.07443,0.89 -4.48997,3.35586 -11.78559,7.954 -16.61611,10.47248 -3.87636,2.02102 -3.07302,2.00484 2.20031,-0.0443 z m -129.645834,-3.938 5.468064,-0.22861 5.37986,-2.80473 c 2.95892,-1.5426 5.37986,-3.01456 5.37986,-3.27103 0,-0.25646 -0.63677,-1.73277 -1.41505,-3.28068 l -1.41505,-2.8144 -5.55231,-0.0222 c -9.032754,-0.0361 -14.662714,-0.30905 -21.956484,-1.06456 -3.78354,-0.39191 -8.48835,-0.80585 -10.45514,-0.91987 -3.49137,-0.2024 -3.58846,-0.18738 -4.10335,0.63507 -0.62849,1.00389 -1.07601,6.32194 -0.63059,7.49348 0.34873,0.91723 5.51694,5.32788 7.42753,6.3388 1.30204,0.68892 4.11779,0.68103 21.87266,-0.0613 z m 105.778084,-11.85568 c 0.75526,-1.56025 2.60078,-4.5037 4.10115,-6.54099 2.87555,-3.90459 4.42076,-6.59358 4.42076,-7.69303 0,-2.07606 -4.38094,-8.19127 -5.85601,-8.17422 -1.13162,0.0131 -3.51372,1.26493 -5.05271,2.65532 -2.17733,1.96708 -5.22711,6.76151 -8.63379,13.57283 -1.6694,3.33778 -3.03559,6.16984 -3.036,6.29348 -4.1e-4,0.12363 0.99562,0.17314 2.2134,0.11002 2.01905,-0.10466 2.36743,-0.0114 3.95395,1.05833 0.9569,0.64521 2.61576,2.33571 3.68636,3.75667 l 1.94653,2.58356 0.44158,-2.39257 c 0.24287,-1.31591 1.05952,-3.66914 1.81478,-5.2294 z m -51.08666,-0.15847 c 3.25989,-3.24737 5.63031,-5.88575 5.62583,-6.26181 -0.0264,-2.21621 -3.05734,-6.10092 -5.48273,-7.02719 -2.48539,-0.94918 -3.71897,-0.27597 -9.34012,5.0972 l -4.74857,4.53908 3.045,3.1656 c 1.67475,1.74108 3.48178,3.82562 4.01563,4.63232 0.53385,0.8067 1.0338,1.46673 1.111,1.46673 0.0772,0 2.67549,-2.52537 5.77396,-5.61193 z m -107.338374,-0.60467 2.69291,-2.51242 -0.60025,-0.9161 c -0.90353,-1.37896 -6.6243,-11.94046 -8.53383,-15.75488 -4.10576,-8.20153 -5.90107,-9.52679 -10.48423,-7.7392 -2.61994,1.02186 -6.47592,3.4001 -7.51502,4.63499 -1.0651,1.2658 -1.02315,1.48618 1.32942,6.98476 4.20842,9.83617 4.3397,10.0419 8.78258,13.76424 4.01925,3.36742 5.66035,4.67752 7.98944,6.37805 l 1.25444,0.91589 1.19582,-1.62145 c 0.65769,-0.8918 2.40762,-2.75204 3.88872,-4.13388 z m 74.681214,3.53602 c 1.15627,-0.69721 3.6169,-2.03294 5.46805,-2.96828 5.24832,-2.65184 4.99781,-2.03728 2.66628,-6.54097 -2.74202,-5.29664 -7.18245,-12.65393 -8.52033,-14.11724 -0.78507,-0.85867 -1.41037,-1.2096 -2.15531,-1.2096 -2.34926,0 -8.56918,4.24 -9.05407,6.172 -0.14859,0.59202 0.10703,1.71079 0.75354,3.29798 1.13327,2.78221 8.24677,16.63602 8.54139,16.63467 0.10897,-5e-4 1.14418,-0.57135 2.30045,-1.26856 z m -54.898574,-1.99373 c 0.049,-1.21267 0.12136,-2.51493 0.16075,-2.89391 0.0653,-0.62784 -0.35145,-0.7411 -4.69088,-1.27505 -7.29367,-0.89745 -8.19867,-0.97614 -7.87998,-0.68522 0.16239,0.14825 1.1533,0.54811 2.20202,0.88858 1.75761,0.57062 6.23825,3.34553 8.61545,5.33563 0.54846,0.45916 1.11112,0.83483 1.25036,0.83483 0.13923,0 0.29326,-0.99219 0.34228,-2.20486 z m 147.210934,-1.42875 c 9.37507,-5.89958 12.86841,-8.52698 21.76829,-16.37233 5.22172,-4.603 7.31579,-6.22858 8.63458,-6.70281 0.95756,-0.34433 1.82834,-0.85362 1.93507,-1.13176 0.37266,-0.97114 -7.72316,-7.43072 -10.04256,-8.01286 -1.21074,-0.30387 -2.17339,0.47465 -5.84035,4.72328 -1.79903,2.0844 -5.33506,5.90358 -7.85784,8.48706 -4.08665,4.18498 -4.61169,4.86198 -4.81449,6.20785 -0.29603,1.96457 -0.6855,2.6612 -4.60147,8.23022 -3.08042,4.38077 -5.46239,8.20496 -5.1106,8.20496 0.0853,0 2.75356,-1.63512 5.92937,-3.63361 z m 40.26217,1.99923 2.38518,-0.97364 -1.29332,-1.32449 -1.29332,-1.32448 -1.53125,1.09966 c -2.36937,1.70155 -2.72441,2.19383 -2.23789,3.1029 0.45754,0.85491 0.45443,0.85537 3.9706,-0.57995 z m 12.0137,-2.65176 c 1.77458,-0.93407 1.44972,-1.61168 -1.50139,-3.13163 -1.07876,-0.55561 -2.66554,-1.48673 -3.52616,-2.06915 -1.53118,-1.03622 -1.58676,-1.0461 -2.58887,-0.46032 -2.94315,1.72041 -1.4463,4.23702 3.2717,5.5006 2.40601,0.64439 3.35855,0.67957 4.34472,0.1605 z m -155.68638,-3.0929 c 0,-0.17792 -0.81462,-1.999 -1.81026,-4.04683 -1.4927,-3.07015 -1.83817,-4.14286 -1.96928,-6.1147 -0.14614,-2.19775 -0.0727,-2.52523 0.90634,-4.04465 2.0456,-3.17451 7.29725,-6.52561 10.79175,-6.88627 2.43448,-0.25127 3.81461,0.44445 5.79989,2.9237 0.85118,1.06298 1.61483,1.86545 1.69699,1.78329 0.0822,-0.0822 0.29817,-1.23782 0.48001,-2.56813 0.90502,-6.62096 3.42902,-8.56497 9.84508,-7.58279 3.45041,0.52819 6.60736,2.07203 7.77337,3.8014 0.84326,1.25068 0.88681,1.57619 0.99288,7.42076 0.061,3.36199 0.17963,6.11271 0.26359,6.11271 0.084,0 1.12004,-0.71214 2.30238,-1.58254 2.45078,-1.80416 4.38397,-2.44854 6.34956,-2.11645 1.49494,0.25257 5.34276,2.57174 5.89037,3.55026 0.32244,0.57617 0.35772,0.57236 0.54018,-0.0584 0.10736,-0.37115 0.44782,-2.73858 0.75658,-5.26094 0.30876,-2.52236 0.72078,-5.77516 0.9156,-7.22846 0.19482,-1.45329 0.21856,-2.68756 0.0528,-2.74283 -1.22731,-0.40911 -6.19999,-4.16703 -8.28871,-6.2639 -2.10161,-2.10982 -4.78836,-5.84601 -5.29332,-7.3609 -0.0641,-0.19224 -0.85508,0.21441 -1.75778,0.90367 -1.81087,1.38271 -5.88035,3.46247 -8.41335,4.29976 -2.68157,0.8864 -7.61874,1.39292 -11.26217,1.15544 -3.90565,-0.25458 -7.28173,-1.285 -11.12986,-3.39697 -1.41742,-0.77793 -2.70367,-1.41413 -2.85833,-1.41379 -0.15466,3.5e-4 -0.72544,0.70382 -1.2684,1.56327 -2.52155,3.99135 -8.77964,9.05455 -15.451244,12.50105 -3.27996,1.69441 -4.03825,2.23246 -4.10707,2.91421 -0.0464,0.45986 0.58858,5.04299 1.41111,10.18473 l 1.49551,9.34861 3.175,0.19792 c 5.496624,0.34264 12.170834,0.34689 12.170834,0.008 z m 27.92985,-2.36829 c 1.42199,-1.28646 2.78387,-2.5868 3.0264,-2.88965 0.3209,-0.40071 0.44097,-2.54257 0.44097,-7.86595 v -7.3153 l -0.93046,-0.7319 c -1.25798,-0.98953 -4.02077,-1.78944 -7.00704,-2.02875 -2.07849,-0.16657 -2.59795,-0.0934 -3.28117,0.46219 -0.7509,0.61062 -0.84105,1.08342 -1.20287,6.30885 l -0.39114,5.64875 2.92413,5.37538 c 1.60828,2.95646 3.12925,5.37538 3.37995,5.37538 0.25069,0 1.61924,-1.05255 3.04123,-2.339 z m -46.274294,0.98959 c 0,-0.54815 -0.30723,-2.73097 -0.68273,-4.8507 -0.3755,-2.11973 -0.93996,-5.67968 -1.25437,-7.911 -0.81935,-5.81495 -0.55283,-5.40335 -2.93344,-4.53017 -1.10474,0.40521 -2.13819,0.85465 -2.29656,0.99875 -0.15836,0.1441 0.53811,1.19606 1.54772,2.33768 2.47961,2.80387 3.85549,5.01229 3.85549,6.18846 0,1.31919 -1.17577,4.37384 -2.46763,6.41089 -0.73161,1.15363 -0.92282,1.71545 -0.61857,1.81756 0.72438,0.2431 2.12172,0.43608 3.52717,0.48712 1.22786,0.0446 1.32292,-0.0236 1.32292,-0.94859 z m 100.165434,-4.09853 c 1.37662,-2.60831 3.20595,-5.79074 4.06517,-7.07207 l 1.56223,-2.32969 -1.76369,0.0805 c -0.97002,0.0443 -1.97095,0.25013 -2.22429,0.45749 -1.13276,0.92717 -5.13068,13.60617 -4.29027,13.60617 0.0813,0 1.27423,-2.13407 2.65085,-4.74238 z m -108.012054,1.39099 c 0.83459,-1.35819 1.69556,-3.06119 1.91327,-3.78444 0.36285,-1.20538 0.31052,-1.43837 -0.62776,-2.79511 -0.56299,-0.81406 -1.66224,-2.18649 -2.44279,-3.04984 l -1.41917,-1.56973 -10.75166,-0.10257 c -5.91341,-0.0564 -12.81541,-0.26821 -15.33777,-0.47064 -3.99981,-0.321 -9.71738,-0.54711 -11.01293,-0.4355 -0.26726,0.023 -0.33392,0.27074 -0.17639,0.65552 0.58851,1.43755 6.13667,11.72577 6.41672,11.89885 0.16844,0.1041 1.15243,0.2577 2.18665,0.34132 1.03422,0.0836 4.97602,0.40249 8.75956,0.70859 8.75059,0.70793 16.56522,1.16477 19.04227,1.11322 l 1.93255,-0.0402 z m 190.199674,2.18495 c 1.28781,-0.45124 2.72932,-2.06169 2.36829,-2.64584 -0.12065,-0.19522 -1.05262,-0.46874 -2.07105,-0.60781 -2.47192,-0.33755 -6.98227,-2.02659 -9.50664,-3.56006 -1.12599,-0.68401 -2.32488,-1.19098 -2.66421,-1.12662 -0.84475,0.16024 -1.04227,2.85349 -0.29313,3.99682 2.0302,3.09848 8.54868,5.21126 12.16674,3.94351 z m -104.87633,-6.00373 c 0.92987,-4.4343 1.66623,-6.81183 2.829,-9.13407 0.45824,-0.91518 0.83316,-1.72936 0.83316,-1.80928 0,-0.0799 -0.51593,-0.35269 -1.14652,-0.60614 -0.63059,-0.25345 -2.46562,-1.06646 -4.07783,-1.80669 -1.61222,-0.74023 -3.04097,-1.34525 -3.175,-1.3445 -0.13404,7.5e-4 -0.76496,3.64437 -1.40205,8.09693 -1.03239,7.21533 -1.10548,8.22208 -0.67217,9.25905 l 0.48617,1.16348 h 2.76222 2.76222 z m -149.644424,-3.2957 c -2.05727,-4.70443 -2.31341,-6.54558 -1.18895,-8.54628 0.44545,-0.79258 0.742,-1.50176 0.65898,-1.57594 -0.083,-0.0742 -1.65059,-0.72373 -3.48351,-1.44343 -1.83291,-0.7197 -5.39573,-2.32765 -7.9173697,-3.57323 -2.81185,-1.38893 -5.03121,-2.26469 -5.73918,-2.26469 -1.46769001,0 -3.32908,1.5854 -4.73095,4.02949 -1.60478,2.79786 -1.43805,3.65718 1.17077,6.03391 3.13406,2.85525 3.38804,2.93392 5.21029,1.61388 1.8184,-1.31724 3.44554,-1.4206 5.46646,-0.34725 1.7993297,0.95566 7.1376397,5.26426 9.8725597,7.96822 1.16416,1.15099 2.16964,2.05542 2.23439,2.00983 0.0647,-0.0456 -0.63432,-1.80261 -1.55349,-3.90451 z m 256.465224,2.84341 c 0.86567,-0.33219 0.70952,-2.14426 -0.23573,-2.73567 -1.59087,-0.99534 -7.59454,-4.01747 -9.19591,-4.62904 -1.33205,-0.50871 -1.7454,-0.54393 -2.17727,-0.18551 -0.78449,0.65107 -0.64975,2.07673 0.31596,3.34283 1.87379,2.45666 8.96776,5.09965 11.29295,4.20739 z m -57.53837,-7.98795 c 3.59904,-3.77026 8.5285,-9.14704 10.84095,-11.82471 2.78958,-3.23016 3.94622,-3.9621 6.26106,-3.9621 1.50801,0 1.89825,-0.14417 2.516,-0.92952 0.40214,-0.51123 0.73116,-1.16421 0.73116,-1.45106 0,-0.75469 -6.25543,-8.47797 -7.0782,-8.7391 -1.57581,-0.50015 -4.64216,2.40559 -8.45596,8.01304 -3.57405,5.25494 -7.16755,9.80102 -9.81235,12.41344 l -2.45772,2.42762 2.12263,2.6711 c 1.16744,1.4691 2.20162,2.87698 2.29819,3.12862 0.31634,0.82437 0.90039,0.48803 3.03424,-1.74733 z m 62.25032,1.49782 c 3.33654,-2.03429 1.44438,-6.37559 -3.84052,-8.81156 -2.85756,-1.31714 -6.43461,-1.78059 -8.49492,-1.10063 -1.84973,0.61047 -3.46015,2.35055 -3.46015,3.73873 0,1.34478 0.49879,1.84893 2.15028,2.1734 0.66061,0.12979 3.24532,1.24198 5.74381,2.47154 4.91051,2.41657 6.07538,2.64191 7.9015,1.52852 z m -77.73024,-5.41007 c 5.6839,-2.82163 8.83303,-5.73992 14.5996,-13.52943 3.58324,-4.84025 5.09257,-7.237 5.58243,-8.86468 0.58007,-1.92746 0.61321,-5.83785 0.0844,-9.96121 l -0.3932,-3.06605 1.57962,-1.93934 c 6.95066,-8.53354 10.49568,-19.281 10.49568,-31.81984 0,-13.47396 -5.06967,-35.48078 -11.70739,-50.82039 -4.22759,-9.76985 -7.73627,-15.70704 -14.2417,-24.099 -1.51163,-1.95 -2.27313,-3.25173 -2.27313,-3.88578 0,-2.88757 6.38157,-10.42803 10.88303,-12.85937 3.43067,-1.85299 7.11091,-2.7239 11.51045,-2.7239 4.0163,0 6.43837,0.53088 12.00235,2.63071 1.94028,0.73226 4.76971,1.53103 6.28762,1.77504 3.01408,0.48454 3.59595,0.81448 3.26658,1.85226 -0.34394,1.08365 -1.87595,1.6821 -4.2279,1.65153 -2.30944,-0.03 -3.57758,-0.35503 -7.44297,-1.90762 -9.42114,-3.78413 -17.68829,-2.41164 -23.90248,3.96824 -1.65166,1.69569 -3.78052,4.94889 -3.78726,5.78745 -0.002,0.22648 0.88679,1.49648 1.97468,2.82222 6.66057,8.11676 13.08656,20.52114 17.96431,34.67731 0.6328,1.8365 1.31334,3.39335 1.51231,3.45967 0.51816,0.17272 3.53531,-1.41668 5.56385,-2.93098 2.69192,-2.00951 7.10531,-6.6965 8.86062,-9.40992 3.54601,-5.48157 5.46097,-11.10744 6.11136,-17.95424 0.57295,-6.0316 1.05765,-7.9516 3.47807,-13.77743 3.77472,-9.08558 4.17523,-14.92598 1.10793,-16.15627 -0.49045,-0.19672 -2.5832,-0.5134 -4.65056,-0.70375 -5.68392,-0.52332 -7.9822,-0.94961 -15.29116,-2.83622 -10.1742,-2.6262 -12.28911,-2.96578 -18.52083,-2.97379 -5.69278,-0.007 -7.81439,0.34695 -11.47519,1.91615 -3.85243,1.65135 -8.21599,5.253 -11.15865,9.21028 -0.99266,1.33493 -1.98365,2.42714 -2.2022,2.42714 -0.21855,0 -1.42704,-0.91794 -2.68553,-2.03985 -12.48759,-11.13248 -31.041,-18.75392 -51.27727,-21.06387 -8.93743,-1.02019 -21.43382,-0.5923 -30.91504,1.05857 -12.185594,2.12176 -25.781054,7.37246 -35.399244,13.67152 -3.63434,2.38018 -8.44112,6.0613 -9.72962,7.45113 -0.47038,0.50737 -1.05202,0.9225 -1.29254,0.9225 -0.24051,0 -1.25386,-1.02619 -2.25189,-2.28043 -2.7909,-3.50738 -5.95804,-6.20203 -9.45919,-8.04804 -4.72791,-2.49282 -7.66389,-3.17693 -13.6578,-3.18241 -5.87407,-0.005 -9.37477,0.55537 -17.43817,2.79324 -7.29568,2.02479 -11.6899797,2.87893 -17.0747897,3.31888 -4.62957,0.37824 -5.51217,0.72509 -6.44748,2.5338 -0.45364,0.87723 -0.53862,1.71333 -0.38511,3.78904 0.2259,3.05466 1.1751,6.01051 3.69218999,11.49767 2.29380001,5.00038 2.73618001,6.51058 3.40588001,11.62686 1.06171,8.11126 3.63452,14.76972 7.9779697,20.64707 1.76877,2.39342 5.61223,6.34057 7.74868,7.95774 1.2254,0.92755 5.32407,2.9688 5.96113,2.9688 0.18269,0 0.59941,-0.83344 0.92605,-1.85209 2.70822,-8.4459 6.48433,-17.46092 10.15903,-24.25347 3.12607,-5.77841 5.16606,-8.91356 7.98272,-12.26817 1.17423,-1.3985 2.13496,-2.74982 2.13496,-3.00293 0,-0.70601 -2.11705,-3.8708 -3.80809,-5.69273 -6.29016,-6.77704 -14.30206,-7.94327 -25.29608,-3.68215 -3.32037,1.28693 -4.26973,1.50658 -6.57654,1.52155 -2.9628497,0.0192 -4.3142797,-0.6622 -4.1105097,-2.07261 0.11292,-0.78158 0.62598,-0.98145 4.1448097,-1.61462 1.25245,-0.22537 3.92792,-1.03749 5.94548,-1.8047 5.0495,-1.92018 7.41991,-2.41679 11.56464,-2.42286 6.71494,-0.01 12.11076,2.11029 16.59112,6.51901 2.92749,2.88066 6.13128,7.58257 6.13128,8.99829 0,0.63579 -0.61878,1.74039 -1.80264,3.21793 -7.57981,9.46013 -14.75707,23.66506 -19.31791,38.23316 -3.17965,10.15637 -6.23287,26.16337 -6.62805,34.74861 -0.40259,8.74636 1.18068,17.07637 4.5954,24.17772 2.4044,5.00025 3.55187,6.69271 6.85321,10.10816 l 2.62166,2.71227 -0.39278,2.25551 c -0.48539,2.78732 -0.49694,8.72671 -0.021,10.79089 1.96669,8.52943 9.13948,17.89211 16.2346,21.19111 3.07482,1.42969 7.95644,1.91079 17.29784,1.70478 l 7.19438,-0.15866 6.35,-2.5589 c 5.92914,-2.3893 12.89371,-5.71634 14.42615,-6.89151 0.63714,-0.48859 0.64848,-0.75752 0.24677,-5.85346 -0.51386,-6.51849 -1.40689,-11.62156 -2.9991,-17.13769 -1.86756,-6.47009 -2.36338,-7.62055 -3.40417,-7.8989 -0.49443,-0.13224 -5.57362,-0.35821 -11.28709,-0.50218 -5.71346,-0.14396 -10.66593,-0.40975 -11.00548,-0.59064 -0.85925,-0.45775 -0.81613,-2.28953 0.065,-2.76109 0.39608,-0.21198 3.28218,-0.36519 6.87916,-0.36519 6.63482,0 6.66975,-0.0109 5.66764,-1.76389 -0.86979,-1.52154 -0.65616,-3.56786 0.56492,-5.41136 0.60175,-0.90848 1.63863,-2.10063 2.30418,-2.64924 l 1.21011,-0.99747 -1.46283,-3.04862 c -1.22417,-2.55122 -1.42319,-3.25994 -1.21984,-4.34387 0.32408,-1.72751 3.46465,-5.01002 5.96448,-6.23407 3.87379,-1.89681 6.25002,-1.60928 8.85566,1.07156 l 1.567314,1.61254 1.61104,-0.61526 c 1.61973,-0.61859 4.60152,-0.64319 5.91677,-0.0488 0.5364,0.2424 0.61736,0.0766 0.61736,-1.26437 0,-2.89899 2.4735,-5.25401 6.98419,-6.64964 1.1064,-0.34233 1.99577,-0.79906 1.97637,-1.01495 -0.0194,-0.2159 -0.0591,-0.6194 -0.0882,-0.89668 -0.0307,-0.29226 -0.90302,-0.75126 -2.07568,-1.09216 -1.11251,-0.32342 -2.92528,-1.07254 -4.02836,-1.66471 l -2.0056,-1.07667 -1.70428,1.13918 c -1.44396,0.96518 -1.93994,1.11373 -3.24721,0.97254 -2.66989,-0.28837 -2.91806,-1.77773 -0.51083,-3.06571 2.43796,-1.30441 2.53993,-1.65398 1.24888,-4.28126 -1.54385,-3.1417 -1.97086,-5.18294 -1.74822,-8.35717 0.51921,-7.40252 5.41061,-13.78335 12.89417,-16.82042 4.63332,-1.88036 7.87281,-2.44005 14.0006,-2.41892 4.94255,0.017 6.07967,0.13524 9.14438,0.95055 7.89134,2.09934 13.1803,5.82581 15.85409,11.17038 1.57821,3.15466 2.10826,5.76551 1.91562,9.43574 -0.13575,2.58635 -0.32855,3.27797 -1.61653,5.79892 -0.80432,1.57428 -1.38477,2.98794 -1.28989,3.14146 0.0949,0.15353 1.04229,0.77677 2.10534,1.38499 1.06306,0.60821 1.93283,1.28013 1.93283,1.49315 0,0.76512 -1.18719,1.67758 -2.18268,1.67758 -1.18781,0 -3.34247,-0.84101 -4.2433,-1.65626 -0.58601,-0.53032 -0.82574,-0.48075 -3.3643,0.6957 -1.50333,0.69669 -3.38983,1.43717 -4.1922,1.64551 -0.9474,0.246 -1.52144,0.61806 -1.63733,1.06122 -0.23943,0.9156 -0.0141,1.07605 1.51115,1.07605 2.11423,0 5.48407,1.89796 6.52572,3.6754 0.48409,0.82603 0.88016,1.92449 0.88016,2.44101 0,1.17641 0.45365,1.19977 1.19931,0.0617 1.75754,-2.68234 6.09468,-2.98038 10.64498,-0.7315 3.30437,1.63311 4.57113,3.15947 4.5335,5.4626 -0.0222,1.35893 -0.76667,4.25609 -1.75195,6.81784 -0.20879,0.54288 0.002,0.61736 1.74443,0.61736 2.55031,0 4.46399,0.89987 7.22263,3.39629 2.63205,2.38187 3.18149,3.85194 2.31422,6.19192 -0.31072,0.83836 -0.64932,1.87885 -0.75244,2.31221 l -0.18749,0.78793 6.15723,-0.0368 c 6.66697,-0.0398 7.68113,0.17518 7.68113,1.62832 0,1.55892 -1.14158,1.94574 -5.81113,1.96909 -5.76065,0.0288 -16.10633,0.54441 -16.80706,0.83761 -0.81677,0.34175 -1.28444,1.54788 -2.61891,6.75422 -1.28966,5.03148 -2.45662,12.73355 -2.93548,19.37445 -0.36129,5.01034 -0.57194,4.66512 4.36008,7.14541 6.74857,3.39384 8.54393,4.01398 11.99445,4.14302 3.36304,0.12578 7.30854,1.16556 10.84193,2.85724 1.73486,0.8306 2.13444,0.87977 6.02604,0.74162 4.12309,-0.14637 4.20334,-0.16552 7.45154,-1.77801 z M 74.712116,-225.9731 c -1.09889,-2.44041 -3.21705,-4.82057 -5.74561,-6.45629 -3.53071,-2.284 -5.5003,-2.83208 -10.10172,-2.811 -2.1343,0.01 -4.09708,0.0892 -4.36173,0.17639 -0.65901,0.21723 -1.76858,-3.03232 -2.14382,-6.27855 -0.58359,-5.0486 0.7885,-11.46647 3.40972,-15.94883 2.05093,-3.50716 6.11995,-7.34668 9.66785,-9.12257 4.03077,-2.01759 6.77071,-2.67362 11.06687,-2.64977 4.53154,0.0252 8.19877,1.14964 11.96544,3.66895 6.6922,4.47601 10.43595,11.4608 10.43595,19.47059 0,6.79268 -2.54797,12.18923 -7.64241,16.18647 -3.9596,3.10682 -7.74818,4.5356 -13.37554,5.04432 l -2.49712,0.22574 z m -2.77852,-7.85792 c 1.02903,-1.02903 1.09791,-1.94442 0.22723,-3.01966 -1.33536,-1.6491 -3.94743,-0.57237 -3.94743,1.62719 0,2.11674 2.17997,2.9327 3.7202,1.39247 z m -7.1447,-4.0785 c 1.35009,-1.06198 1.84092,-2.85584 1.14802,-4.19575 -1.08384,-2.09594 -3.47356,-2.45018 -5.15899,-0.76475 -2.76145,2.76144 0.95827,7.36176 4.01097,4.9605 z m 27.27228,-1.5467 c 0.95162,-0.95163 1.19944,-1.48207 1.19944,-2.56734 0,-3.48752 -4.01977,-5.17001 -6.47828,-2.7115 -2.49465,2.49465 -0.73476,6.42075 2.89759,6.46416 0.88467,0.0106 1.48337,-0.28745 2.38125,-1.18532 z m -7.33778,0.0705 c 0.23283,-0.23283 0.42333,-0.7567 0.42333,-1.16416 0,-0.40746 -0.1905,-0.93134 -0.42333,-1.16417 -0.23283,-0.23283 -0.75671,-0.42333 -1.16417,-0.42333 -0.40745,0 -0.93133,0.1905 -1.16416,0.42333 -0.23284,0.23283 -0.42334,0.75671 -0.42334,1.16417 0,0.40746 0.1905,0.93133 0.42334,1.16416 0.23283,0.23284 0.75671,0.42334 1.16416,0.42334 0.40746,0 0.93134,-0.1905 1.16417,-0.42334 z m -11.40515,-10.96492 c 3.70821,-2.10026 4.37759,-6.83695 1.36739,-9.67594 -5.26939,-4.96967 -13.45191,2.06243 -9.47043,8.13893 1.50086,2.29061 5.44993,3.03968 8.10304,1.53701 z M 178.7864,-225.373 c -3.83723,-0.83511 -6.72639,-2.50343 -10.07343,-5.81678 -4.63905,-4.59236 -6.44744,-8.75591 -6.44044,-14.82816 0.0135,-11.67862 8.16652,-21.19977 19.62799,-22.92158 3.15044,-0.47328 5.75226,-0.26196 9.25593,0.75177 4.02639,1.16497 6.405,2.63282 9.92066,6.12212 2.75308,2.73244 3.45097,3.67622 4.83154,6.53392 2.80756,5.81144 3.46667,12.66355 1.74653,18.15683 -0.62748,2.00387 -0.71815,2.11147 -1.7016,2.0192 -0.57134,-0.0536 -2.71376,-0.18915 -4.76092,-0.30121 -3.34886,-0.1833 -3.97157,-0.11699 -6.20961,0.66133 -4.63066,1.61038 -7.76878,4.26892 -9.78809,8.2922 -0.92933,1.85162 -0.92998,1.85208 -2.59932,1.82404 -0.91836,-0.0154 -2.63252,-0.23758 -3.80924,-0.49368 z m 12.25407,-8.88156 c 0.80328,-0.72696 0.83237,-2.15233 0.0613,-3.00435 -0.71628,-0.79148 -2.3466,-0.8393 -3.09512,-0.0908 -0.65447,0.65446 -0.73486,2.65181 -0.13104,3.25563 0.61139,0.61138 2.41289,0.52002 3.16486,-0.16051 z m 9.37639,-4.54143 c 2.53346,-2.68335 0.81106,-6.51639 -2.92817,-6.51639 -1.91317,0 -3.68641,1.86082 -3.68641,3.86847 0,1.8366 0.44351,2.68129 1.8746,3.57033 1.5652,0.97235 3.263,0.64196 4.73998,-0.92241 z m -26.36307,0.006 c 2.08049,-1.07586 2.43773,-3.77944 0.72563,-5.49154 -1.405,-1.40499 -3.12176,-1.40827 -4.68786,-0.009 -0.94677,0.84594 -1.14408,1.27804 -1.14408,2.50555 0,1.2275 0.19731,1.6596 1.14408,2.50554 1.27637,1.14044 2.42817,1.28271 3.96223,0.48941 z m 6.37849,-11.15684 c 2.54211,-0.84961 4.23056,-3.20213 4.25165,-5.92384 0.0332,-4.28642 -3.96345,-7.05047 -7.97779,-5.51737 -1.71205,0.65383 -3.57784,2.51868 -3.93208,3.93009 -0.39149,1.5598 0.0595,4.2341 0.91707,5.43849 0.88358,1.24087 3.1575,2.45327 4.62448,2.46566 0.50462,0.004 1.45712,-0.17261 2.11667,-0.39303 z M 71.633426,-274.63248 c -1.83157,-1.0655 -1.3336,-3.46617 1.2022,-5.79571 2.32998,-2.14047 4.60768,-3.11682 7.27112,-3.11682 2.80847,0 4.10499,0.81808 4.26553,2.69145 0.1359,1.58585 -0.86526,2.37973 -3.00107,2.37973 -2.17632,0 -4.07833,0.89184 -5.69836,2.67193 -1.47812,1.62417 -2.6664,1.96817 -4.03942,1.16942 z m 112.967654,-1.52831 c -1.42103,-1.37545 -2.32947,-1.96272 -3.26319,-2.10956 -0.71167,-0.11191 -1.85842,-0.29171 -2.54834,-0.39955 -2.68191,-0.41919 -3.31824,-3.03312 -1.08205,-4.44491 2.17131,-1.37083 7.01475,-0.24952 9.74478,2.25603 2.89978,2.66133 3.44479,4.2639 1.95631,5.75237 -1.39084,1.39085 -2.54209,1.13835 -4.80751,-1.05438 z M 44.533296,-148.9162 c -3.29763,-3.38744 -3.73332,-3.89501 -5.37096,-6.25701 -2.28715,-3.29881 -3.37994,-5.3933 -4.60402,-8.82424 l -1.13275,-3.175 -5.09567,-1.72167 c -2.80261,-0.94691 -5.66782,-1.72262 -6.36714,-1.7238 -1.24559,-0.002 -4.6046,1.55276 -6.17325,2.85754 -1.5044,1.25133 -1.69333,2.10106 -1.7108,7.69459 -0.0148,4.74864 0.0571,5.4243 0.6467,6.07587 0.64443,0.71213 6.38367,3.13213 7.80327,3.29031 0.38806,0.0433 2.10437,-0.61399 3.81402,-1.46051 2.57156,-1.27329 3.54993,-1.56746 5.66435,-1.70316 2.10574,-0.13514 2.80818,-0.0353 3.98842,0.5668 1.35292,0.69021 3.44619,2.88378 4.8865,5.12065 0.81672,1.2684 1.62049,1.59051 4.03864,1.61852 l 1.93082,0.0224 z m 207.367694,-3.175 c 4.04489,-4.49483 3.93929,-4.16197 2.34598,-7.39449 -0.90322,-1.83247 -1.68144,-2.92415 -2.33609,-3.27704 -0.91354,-0.49244 -1.09119,-0.46796 -2.55985,0.35278 -1.96561,1.09845 -8.60541,5.74548 -8.61917,6.03234 -0.006,0.11633 1.41998,1.28349 3.1679,2.5937 1.74792,1.31021 3.53386,2.83344 3.96875,3.38495 0.43489,0.55151 0.96653,1.01153 1.18142,1.02227 0.21489,0.0107 1.49786,-1.2108 2.85106,-2.71451 z m -241.572964,-7.9375 -0.0103,-4.32153 -3.4195397,-2.21689 c -1.88075,-1.21929 -5.4833,-4.05368 -8.00566,-6.29866 -6.71404,-5.97569 -12.7725203,-10.00528 -15.0429303,-10.00528 -1.44929,0 -3.44399,1.09823 -5.33792,2.93892 -1.81425,1.76325 -2.49295,3.52774 -2.00771,5.21967 0.75695,2.63934 5.89775,7.83555 12.68759,12.82436 1.8430303,1.35416 3.4303503,2.55806 3.5273603,2.67531 0.097,0.11726 1.04261,0.79202 2.10133,1.49947 2.10667,1.40772 1.69076,1.43911 4.43635999,-0.33487 1.37058,-0.88557 4.41445001,-0.47031 7.59418001,1.03602 1.44379,0.68397 2.81911,1.2574 3.05626,1.27429 0.3184597,0.0227 0.4285097,-1.09916 0.4209397,-4.29081 z m 125.206244,-0.82792 c 2.42423,-0.61805 7.79247,-3.17272 9.84926,-4.68715 1.0766,-0.7927 1.49931,-1.35509 1.49931,-1.99474 0,-1.37878 -0.85137,-1.39673 -3.0745,-0.0648 -7.70842,4.61829 -16.51925,5.38675 -24.44216,2.1318 -1.26119,-0.51813 -2.6062,-1.15249 -2.98892,-1.40969 -1.10839,-0.74488 -1.91087,-0.56989 -2.17282,0.47382 -0.28769,1.14623 0.40994,1.78969 3.75062,3.45942 5.72196,2.85993 11.75104,3.57719 17.57921,2.09134 z m 124.62279,-7.50497 c 1.70632,-2.76905 3.37097,-5.84323 3.69923,-6.83153 0.72328,-2.17761 0.70802,-2.19431 -3.46189,-3.78664 -4.08264,-1.55901 -4.62503,-1.48121 -6.96328,0.99881 -1.86064,1.97346 -9.44096,14.01814 -9.06127,14.39783 0.0955,0.0955 1.24839,-0.47461 2.562,-1.26689 1.92423,-1.16056 2.72176,-1.4405 4.10387,-1.4405 2.05573,0 3.47098,0.6678 4.51119,2.12863 0.42333,0.59452 0.93576,1.02559 1.13873,0.95794 0.20297,-0.0677 1.76511,-2.3886 3.47142,-5.15765 z m -18.96177,2.9707 c 0.10796,-0.28133 1.74571,-3.01977 3.63945,-6.08542 3.32854,-5.38837 3.45188,-5.66199 3.70515,-8.21975 0.35203,-3.5552 1.39976,-7.72447 2.74822,-10.93611 2.3988,-5.71324 2.27571,-5.30111 1.7416,-5.83103 -0.59843,-0.59374 -4.25989,-1.5773 -5.87175,-1.5773 -0.75928,0 -1.46602,0.28937 -1.99247,0.81582 -1.06282,1.06282 -2.2617,4.29224 -2.90577,7.82723 -0.28281,1.55222 -0.84621,4.30239 -1.252,6.11149 l -0.7378,3.28926 0.79597,1.59379 c 1.04689,2.09618 0.822,3.36967 -1.21379,6.87337 -0.8799,1.51436 -1.59982,2.92951 -1.59982,3.14479 0,0.48873 2.14413,3.50535 2.4915,3.50535 0.14038,0 0.34356,-0.23017 0.45151,-0.51149 z m -137.628,-1.1642 c 4.17158,-3.87587 8.3965,-9.32222 8.38458,-10.80858 -0.003,-0.40969 -0.68889,-1.47271 -1.52356,-2.36227 -1.35182,-1.44072 -1.95178,-1.7587 -5.49281,-2.91116 -2.18638,-0.71158 -4.61949,-1.39681 -5.406924,-1.52272 -1.67379,-0.26765 -1.699,-0.84571 0.24851,5.69848 0.692894,2.32833 1.613584,6.09832 2.045984,8.37775 0.43239,2.27943 0.85222,4.14474 0.93296,4.14514 0.0807,4e-4 0.4458,-0.27709 0.81126,-0.61664 z m 56.2055,-4.49792 c 0.34264,-2.32833 1.08644,-5.9002 1.65289,-7.9375 1.42775,-5.13498 1.45913,-5.29166 1.05997,-5.29166 -0.82425,0 -6.67192,1.85738 -8.35611,2.65414 -1.73368,0.82016 -4.0717,3.34061 -4.0717,4.3894 0,1.57397 8.10565,11.47896 8.79097,10.74244 0.16555,-0.17792 0.58134,-2.22848 0.92398,-4.55682 z m -26.83318,3.735 c 0.5653,-0.22088 0.8085,-0.93297 1.28674,-3.76756 0.32433,-1.92237 1.25064,-6.90834 2.05847,-11.07994 3.04777,-15.73856 3.54135,-19.18851 3.54193,-24.75703 5.3e-4,-5.16424 -0.002,-5.17977 -0.92223,-5.90372 -1.20306,-0.94632 -2.90874,-1.42512 -5.98652,-1.68047 -2.75696,-0.22874 -4.62553,0.20418 -5.61885,1.30178 -0.57269,0.63282 -0.58713,1.05796 -0.19296,5.68172 0.43364,5.08686 0.38501,6.65006 -1.03987,33.42152 -0.18958,3.56196 -0.25717,6.6179 -0.15021,6.79097 0.23569,0.38136 6.04426,0.37535 7.0235,-0.007 z m -121.261944,-1.42685 c 0.55536,-0.88927 5.27426,-4.07568 7.35974,-4.96963 0.88522,-0.37945 2.18345,-0.6899 2.88495,-0.6899 1.3719,0 6.07542,1.33575 8.76869,2.49022 0.91044,0.39026 1.76948,0.58492 1.90898,0.43259 0.1395,-0.15234 0.32982,-1.83407 0.42293,-3.73717 l 0.16928,-3.46019 -3.03872,-1.52551 c -7.96234,-3.99728 -18.32187,-8.07419 -21.6896797,-8.5358 -1.1514,-0.15782 -1.86799,-0.0229 -3.03198,0.57094 -1.84959,0.94359 -4.81524001,3.65813 -5.55105001,5.08102 -1.86001999,3.59689 2.40270001,9.9761 9.41871001,14.0952 1.9042997,1.11801 1.8391997,1.11122 2.3781497,0.24823 z m 110.734944,-2.74912 c 0.15954,-1.89177 0.29342,-7.72583 0.29751,-12.96458 0.008,-10.72307 -0.10395,-11.31483 -2.28975,-12.06273 -1.49698,-0.51221 -5.61581,-0.58686 -6.83361,-0.12385 -0.48755,0.18537 -1.141,0.7255 -1.4521,1.2003 -0.52251,0.79746 -0.51047,1.20266 0.15794,5.31508 0.39797,2.44849 0.72358,5.07806 0.72358,5.84348 0,1.1471 0.27591,1.70233 1.57003,3.15944 1.86535,2.10029 2.13778,3.20907 1.82066,7.40997 l -0.23181,3.07065 1.86014,0.87984 c 2.5756,1.21825 3.58507,1.66022 3.85569,1.68811 0.12741,0.0131 0.36219,-1.52394 0.52172,-3.41571 z m 19.01451,1.48314 c 3.32689,-1.69758 4.49602,-2.53744 4.1997,-3.01691 -0.33042,-0.53463 -0.21628,-4.71338 0.15323,-5.60998 0.19991,-0.48507 0.91815,-1.48519 1.5961,-2.22249 0.90181,-0.98077 1.29309,-1.78555 1.45787,-2.99861 0.12388,-0.91194 0.76742,-3.90163 1.43009,-6.64376 0.66266,-2.74214 1.20484,-5.29722 1.20484,-5.67796 0,-0.94931 -0.99767,-1.77064 -3.1392,-2.58436 -3.1494,-1.19668 -4.92425,-0.71856 -5.63965,1.51925 -0.2014,0.62999 -0.775,3.52668 -1.27466,6.4371 -0.49966,2.91042 -1.45351,8.10616 -2.11967,11.54609 -1.38183,7.13544 -1.84342,10.8553 -1.34703,10.8553 0.18456,0 1.74983,-0.72165 3.47838,-1.60367 z m 95.44854,-3.62281 c 1.20108,-1.89391 1.24647,-2.40634 0.31828,-3.59297 -0.93007,-1.18903 -0.88702,-1.99138 0.39901,-7.43619 1.05947,-4.48565 1.07832,-4.69569 0.46174,-5.14654 -0.82153,-0.60072 -4.53037,-0.62221 -5.01583,-0.0291 -0.63962,0.78148 -3.5906,7.62007 -3.9191,9.08211 -0.175,0.77889 -0.64388,1.69327 -1.04195,2.03195 -0.66038,0.56187 -0.70571,0.88459 -0.51769,3.68497 l 0.20608,3.06916 1.34843,-0.68791 c 1.78148,-0.90885 3.01766,-0.86538 4.72166,0.16602 0.77266,0.46767 1.54224,0.7654 1.71018,0.66161 0.16794,-0.10379 0.76608,-0.91521 1.32919,-1.80314 z m 17.52347,-8.93084 c 1.46459,-0.709 3.34657,-0.79134 5.72537,-0.25049 0.67638,0.15378 3.52777,-5.35534 3.52777,-6.81596 0,-1.32984 -1.06072,-3.37562 -2.41942,-4.66624 -0.92141,-0.87524 -1.26226,-0.98901 -2.41356,-0.80566 -0.78161,0.12449 -1.65102,0.57051 -2.08502,1.06966 -0.7841,0.90181 -3.95545,9.1155 -4.27571,11.07392 -0.22134,1.35352 -0.0936,1.3795 1.94057,0.39477 z m -97.0467,-4.93812 c 0.84143,-1.69431 4.70006,-13.04297 6.14212,-18.06466 1.46658,-5.10708 1.47751,-5.18627 0.81669,-5.91647 -0.90326,-0.99809 -2.17792,-1.62169 -4.62238,-2.2614 -2.91948,-0.76402 -3.82254,-0.47063 -4.86138,1.57943 -0.81765,1.61355 -2.66677,7.41288 -3.11619,9.77319 -0.18546,0.97398 -0.0572,1.23449 1.00767,2.0467 1.48439,1.1322 2.27777,2.58062 2.27777,4.15838 0,0.65039 -0.55563,3.15027 -1.23472,5.55527 -1.69148,5.99031 -1.73059,5.79725 0.97013,4.78911 1.46271,-0.54601 2.3447,-1.10461 2.62029,-1.65955 z m -129.002914,1.92853 c 0,-0.12847 -0.70682,-1.43922 -1.57071,-2.91277 -2.88702,-4.92448 -4.95309,-10.23999 -6.00777,-15.45655 -0.3047,-1.50709 -0.63334,-2.96238 -0.7303,-3.23398 -0.31579,-0.88453 -1.92148,1.01393 -3.40141,4.0216 -1.06405,2.16246 -1.35167,3.11835 -1.23035,4.08897 0.16626,1.33015 3.0483,8.4589 3.92696,9.71336 0.28144,0.40181 1.43244,1.0668 2.55778,1.47775 1.12534,0.41095 2.83982,1.14112 3.80996,1.62261 1.78259,0.88471 2.64584,1.10625 2.64584,0.67901 z m 81.138404,0.14538 c -2.7e-4,-0.0485 -0.23818,-1.43757 -0.52869,-3.0868 -0.62573,-3.55229 -0.68465,-7.151 -0.13468,-8.22528 0.21697,-0.42381 0.94732,-1.34924 1.62301,-2.05651 1.44353,-1.51102 1.44881,-1.4743 -0.89703,-6.23591 -1.77947,-3.61197 -2.92275,-5.00175 -4.11464,-5.00175 -1.96249,0 -6.530824,3.33131 -6.530824,4.76239 0,1.20828 2.224634,7.40755 4.494184,12.52372 1.16197,2.61938 2.22453,5.12033 2.36124,5.55768 0.28094,0.89868 1.74551,1.81538 2.93416,1.83653 0.43656,0.008 0.79353,-0.0256 0.79327,-0.0741 z m -8.75903,-4.42901 c -2.426694,-5.13124 -5.069024,-9.02664 -6.623234,-9.76416 -1.21526,-0.57668 -1.29924,-0.56835 -3.07568,0.30522 -2.27175,1.11715 -4.32919,2.79864 -4.99151,4.07944 -0.51939,1.00438 -0.38549,1.41678 1.41489,4.35777 0.25226,0.41207 1.18612,0.71056 2.99862,0.95844 1.44774,0.19799 4.45788,0.81051 6.6892,1.36116 2.23132,0.55064 4.167364,0.9406 4.302314,0.86658 0.13496,-0.074 -0.18661,-1.04802 -0.7146,-2.16445 z m 64.85117,0.98943 c 2.03647,-0.58209 4.25864,-1.06077 4.93815,-1.06374 0.6795,-0.003 1.42747,-0.12743 1.66214,-0.27657 0.48598,-0.30885 2.21915,-4.07042 2.21915,-4.8163 0,-1.49317 -4.27472,-4.7795 -6.21699,-4.7795 -1.65212,0 -2.9396,1.76041 -5.06114,6.92027 -1.78035,4.33004 -2.00169,5.07417 -1.50932,5.07417 0.14593,0 1.93154,-0.47625 3.96801,-1.05833 z m 74.96756,-6.19446 c 1.78667,-4.93234 2.8818,-5.90447 6.87532,-6.10308 1.45607,-0.0724 2.76402,-0.31165 2.90657,-0.53164 0.47388,-0.73133 0.27845,-2.63419 -0.33338,-3.24602 -0.78183,-0.78183 -2.66654,-1.56369 -3.76934,-1.56369 -1.14565,0 -2.26985,1.40222 -5.59105,6.97374 -3.2386,5.43296 -3.43163,5.96636 -2.31977,6.4105 1.22874,0.49083 1.40747,0.33548 2.23165,-1.93981 z m -116.87176,-4.65307 c 0.26137,-1.01718 -0.35676,-9.68787 -0.92117,-12.92145 -0.66237,-3.79479 -0.96479,-4.34297 -2.64559,-4.79557 -2.57765,-0.69409 -8.15126,1.79543 -8.15126,3.64086 0,0.53599 2.14898,9.9734 2.74337,12.04769 0.29369,1.02494 0.38597,1.06523 2.92509,1.27698 1.442,0.12026 3.25682,0.46626 4.03293,0.76889 1.82063,0.70993 1.82975,0.70986 2.01663,-0.0174 z m 23.8832,-3.56558 c 0.52341,-0.98549 1.26021,-10.88042 0.89048,-11.95866 -0.42822,-1.24879 -3.15653,-2.63027 -5.59375,-2.83238 -1.43401,-0.11892 -1.98049,-0.003 -2.67953,0.56659 l -0.87814,0.71597 1.54521,1.32777 c 2.21719,1.9052 2.51173,2.86825 2.51173,8.21257 0,5.08716 -0.0871,4.92757 2.55185,4.67591 0.78371,-0.0747 1.47271,-0.3699 1.65215,-0.70777 z m -54.298444,0.17469 c 0.29104,0.002 1.06894,0.12908 1.72866,0.28192 1.04353,0.24175 1.16957,0.19991 0.96938,-0.32179 -0.73977,-1.9278 -0.63193,-3.19967 0.44451,-5.24242 l 1.0848,-2.05861 -1.02821,-1.0282 c -0.56551,-0.56551 -1.3976,-1.02665 -1.84908,-1.02476 -1.9052,0.008 -6.35625,2.77469 -6.82132,4.24 -0.13797,0.43471 0.25885,1.59081 1.0869,3.1666 l 1.30421,2.48191 1.27549,-0.24935 c 0.70152,-0.13714 1.51362,-0.24753 1.80466,-0.2453 z m 34.925004,-14.54474 c 0.6791,-0.25632 2.51546,-0.473 4.08081,-0.48152 l 2.84609,-0.0155 2.04712,-1.90517 c 1.12592,-1.04784 1.95639,-2.05198 1.8455,-2.23141 -0.1109,-0.17943 -1.43972,-0.34498 -2.95294,-0.3679 -1.51322,-0.0229 -3.58506,-0.20537 -4.60409,-0.40543 -1.25748,-0.24688 -2.15539,-0.2487 -2.7946,-0.006 -0.518,0.19695 -2.22425,0.41629 -3.79166,0.48743 -1.56741,0.0711 -2.9689,0.14409 -3.11442,0.16209 -0.56442,0.0698 -0.20259,0.69166 1.37201,2.35787 0.90012,0.9525 1.8761,2.09698 2.16885,2.54328 0.35433,0.54022 0.72118,0.73066 1.09743,0.56972 0.31085,-0.13297 1.1208,-0.45147 1.7999,-0.70779 z m 2.29305,-9.1027 c 1.55223,0.009 4.64935,0.0537 6.88249,0.10006 3.48984,0.0725 4.44548,-0.038 6.80221,-0.78639 6.58463,-2.09101 9.99271,-7.12065 9.09936,-13.42883 -0.709,-5.00641 -3.75378,-8.94083 -8.84933,-11.43496 -3.53486,-1.7302 -5.98517,-2.40527 -10.69188,-2.94564 -5.68828,-0.65307 -12.14464,0.36741 -17.09486,2.70199 -4.90446,2.31298 -8.19398,6.5536 -8.91725,11.49546 -0.65236,4.45737 0.54907,7.95079 3.73608,10.86354 3.17355,2.90045 7.22144,4.05083 12.85957,3.65458 1.84327,-0.12954 4.62139,-0.22846 6.17361,-0.21981 z m -14.50599,-10.03978 c -1.29339,-0.81202 -1.89817,-2.31204 -1.89817,-4.70802 0,-2.26386 0.79276,-3.73543 2.36659,-4.39302 3.13905,-1.31158 6.17221,1.81109 5.58203,5.74674 -0.48436,3.22991 -3.54547,4.92696 -6.05045,3.3543 z m 25.62908,0.2025 c -0.47924,-0.2425 -1.24736,-0.99423 -1.70691,-1.6705 -0.6992,-1.02891 -0.81234,-1.56141 -0.69329,-3.26279 0.17176,-2.45477 1.04362,-3.78604 2.88285,-4.40196 3.62606,-1.21429 6.30727,3.0144 4.50073,7.09837 -0.5485,1.23999 -1.0412,1.78309 -1.96946,2.17094 -1.49914,0.62638 -1.88946,0.63492 -3.01392,0.0659 z m -25.11442,-97.09827 c 5.13071,-0.59794 15.64059,-0.77101 22.14504,-0.36466 l 4.27314,0.26695 0.73824,-2.7701 c 1.56797,-5.88357 4.28934,-21.33189 4.29436,-24.37774 0.005,-3.26289 -0.86963,-2.46836 -6.5076,5.90903 -3.47404,5.16202 -3.59599,5.29166 -4.97762,5.29166 -1.39197,0 -2.91004,-1.15812 -8.74266,-6.66969 -2.29875,-2.17222 -4.3625,-3.89761 -4.58611,-3.83419 -0.50041,0.14193 -2.99912,5.10805 -4.48629,8.91638 -1.32585,3.39523 -1.86494,4.05826 -3.29509,4.0527 -1.32486,-0.005 -2.96895,-0.92186 -6.91268,-3.85435 -3.54346,-2.63485 -5.1485,-3.48124 -5.65021,-2.97953 -0.56628,0.56629 1.09291,5.06555 5.38376,14.59924 2.244,4.98584 2.98482,6.35 3.44846,6.35 0.15326,0 2.34712,-0.24107 4.87526,-0.5357 z"
       id="path172" /></g></svg>
