<?xml version="1.0" encoding="UTF-8" standalone="no"?>
<!-- Created with Inkscape (http://www.inkscape.org/) -->

<svg
   width="298.65585mm"
   height="255.25694mm"
   viewBox="0 0 298.65587 255.25692"
   version="1.1"
   id="svg1"
   xml:space="preserve"
   xmlns="http://www.w3.org/2000/svg"
   xmlns:svg="http://www.w3.org/2000/svg"><defs
     id="defs1"><clipPath
       clipPathUnits="userSpaceOnUse"
       id="clipPath6"><path
         id="path7"
         style="fill:#ff0000;fill-opacity:1;fill-rule:nonzero;stroke:none;stroke-width:0.264583"
         d="M -175.07778,-16.057127 V 287.55793 H 124.54631 V -16.057127 Z m 132.7459,202.572647 c 0.210643,0.005 0.427212,0.0169 0.650089,0.0367 2.23823,0.19855 4.475655,0.4031 6.717938,0.55346 1.973313,0.11308 0.986628,0.0436 2.958475,0.20825 3.181295,0.26563 4.740125,1.85116 4.950601,3.46956 4.949923,1.63749 3.796379,7.35609 -2.592089,6.81354 -3.228716,-0.27422 -1.569593,-0.1301 -4.979024,-0.43357 -4.228209,-0.39317 -8.460616,-0.76265 -12.666927,-1.35341 -6.647387,-0.93358 -5.930551,-7.21034 0.03204,-7.20421 0.04685,5e-5 0.0972,0.004 0.144695,0.005 0.687229,-1.21692 2.304132,-2.15435 4.784204,-2.09548 z" /></clipPath><clipPath
       clipPathUnits="userSpaceOnUse"
       id="clipPath76"><path
         id="path77"
         style="fill:#ff0000;fill-opacity:1;fill-rule:nonzero;stroke:none;stroke-width:0.264583"
         d="M -133.83107,-122.52355 V 173.82063 H 122.97289 V -122.52355 Z M 13.574404,98.948202 c 2.788179,0.0507 4.135003,2.063798 3.398242,4.077268 0.199805,0.45372 0.374906,0.96736 0.517797,1.54461 1.07913,4.35948 0.671079,8.891 0.311608,13.31495 -0.351859,3.06036 -0.147137,1.57974 -0.604097,4.44366 -0.359666,2.25418 -1.333846,3.66838 -2.455664,4.32532 0.105138,0.36595 0.224724,0.72888 0.324528,1.09554 0.6273,2.23652 0.575201,4.47401 0.39429,6.75514 -0.137303,1.73129 -0.688065,2.99533 -1.427303,3.82199 -0.112477,0.41601 -0.170275,0.80219 -0.311092,1.25212 -0.184975,0.59102 -0.413327,1.1061 -0.670242,1.55856 0.741137,-0.23134 1.446982,-0.38145 2.064991,-0.37517 4.085002,0.0415 5.222724,4.75435 -0.02223,7.27138 -4.46677,2.14368 -9.303523,3.34693 -14.11903492,4.40955 -4.40876268,0.85156 -8.89238128,1.33053 -13.38264308,1.19269 -5.804014,-0.17807 -6.736297,-5.00293 -3.065447,-6.67298 -2.072987,-0.65744 -4.042852,-1.62261 -4.128947,-3.14709 -0.02802,-0.49633 0.0026,-0.90355 0.0341,-1.30897 -1.976731,-0.003 -3.95339,2.4e-4 -5.930386,0.003 -0.814031,0 -1.53062,-0.0962 -2.159559,-0.26149 -0.376306,0.19492 -0.742394,0.40783 -1.120862,0.59893 -6.391272,3.22657 -9.625245,-3.24074 -3.234428,-6.46886 1.833438,-0.92611 3.62694,-1.92211 5.414142,-2.92954 -0.877003,-3.87058 -1.368747,-7.83436 -1.323951,-11.80858 0.01651,-1.46304 0.376836,-2.54918 0.864547,-3.41426 -1.247357,-1.79999 -0.223805,-4.63069 3.842661,-5.68855 3.11826,-0.81116 6.282901,-1.39515 9.473837,-1.82211 -1.259816,-0.12657 -2.516182,-0.30233 -3.764627,-0.50177 -1.477002,-0.21985 -2.935575,-0.54305 -4.407482,-0.7891 -1.14214,-0.22954 -0.588502,-0.12004 -1.660882,-0.3297 -3.350244,-0.65501 -4.783278,-2.61088 -4.608504,-4.32997 -0.200179,-1.7721 1.333365,-3.52972 4.663799,-3.59461 v -5.3e-4 c 0.20954,-0.004 0.426035,-0.002 0.649571,0.008 1.77111,0.0772 3.528708,0.28204 5.26428,0.64027 1.655035,0.33225 3.314115,0.6481 4.955251,1.04439 1.244759,0.34858 2.51628,0.54538 3.7997689,0.6723 0.025956,0.002 0.052073,0.002 0.078034,0.004 0.4990888,-0.0371 0.9984105,-0.0743 1.4965495,-0.11317 1.346872,-0.12588 2.6913231,-0.25136 4.0457464,-0.24236 1.1278499,-0.0444 2.2567291,-0.10772 3.37498791,-0.26872 0.75719517,-0.11591 1.51142439,-0.25483 2.25722659,-0.4284 0.3616431,-0.12394 0.7240561,-0.24538 1.083138,-0.37775 0.3360393,-0.12388 0.6107589,-0.12825 0.9250071,-0.20723 0.1281086,-0.045 0.2583895,-0.0825 0.3855085,-0.13074 1.9825018,-0.7681 3.9540551,-1.56464 5.9510551,-2.29443 1.050809,-0.383992 1.999634,-0.542639 2.826703,-0.527616 z M 0.70283723,110.39557 c -0.45566013,0.0949 -0.90775367,0.208 -1.36890919,0.2744 -1.16638124,0.15534 -2.34111274,0.24237 -3.51761424,0.26251 0.4031694,0.0896 0.8047355,0.18876 1.2025101,0.308 0.1014836,0.0304 0.1982549,0.075 0.2986907,0.10852 0.4205235,-0.21824 0.9206601,-0.35072 1.4898318,-0.37156 0.39885139,-0.0146 0.83259872,0.0278 1.29449508,0.13023 0.22468681,-0.12213 0.44967525,-0.24374 0.67437529,-0.36587 -0.0326284,-0.11319 -0.058211,-0.22834 -0.0733795,-0.34623 z m 10.24433577,1.02474 c -0.76023,0.21437 -1.5189569,0.4343 -2.2696301,0.68006 -0.031261,0.62207 -0.2256075,1.28373 -0.6464723,1.94355 0.6236891,0.43248 1.2549743,1.04482 1.8634525,1.86862 0.2674939,0.36214 0.4748849,0.75712 0.7188199,1.13223 0.154519,-1.86707 0.314174,-3.74736 0.33383,-5.62446 z m 64.566086,3.39773 c 1.50346,0.0187 3.129182,1.24994 3.928441,4.04678 0.257931,0.90255 0.823497,1.65871 1.488797,2.30735 0.856321,0.95375 1.845738,1.76777 2.801898,2.61638 1.458581,1.46408 2.789203,3.04608 4.169772,4.58215 1.315059,1.44746 2.571226,2.91698 3.543967,4.61884 0.0053,0.01 0.0082,0.0206 0.01344,0.0305 0.734605,-0.43313 1.446276,-0.65634 2.094962,-0.69195 3.016182,-0.16561 4.69137,3.55377 1.187525,7.32306 -1.69471,1.82311 -3.657862,3.33908 -5.68751,4.7651 -0.777873,0.49914 -1.607691,0.90075 -2.418456,1.33842 0.165478,1.44344 -0.672182,3.24303 -2.956409,4.73096 -1.354556,0.88234 -2.690448,1.79306 -4.075203,2.6288 -2.075008,1.20078 -4.233777,2.27962 -6.540687,2.96259 -2.077586,0.62971 -4.169056,1.29987 -6.359301,1.36374 -1.872114,0.0897 -3.746989,0.0368 -5.620845,0.0501 h -5.1108 -5.524728 c -7.160125,0 -7.160125,-7.23315 0,-7.23315 h 1.347722 c 0.29438,-0.0541 0.5212,-0.1588 0.84801,-0.18656 1.106628,-0.094 2.200932,-0.28334 3.292822,-0.48421 0.456121,-0.98163 1.356053,-1.98213 2.807581,-2.83962 1.078018,-0.63685 2.158119,-1.26923 3.212209,-1.94561 1.962647,-1.29302 3.840588,-2.72135 5.893696,-3.86902 1.367169,-0.76424 2.559646,-1.07097 3.526915,-1.04128 2.216811,0.068 3.246223,1.90266 2.479953,4.04059 1.105688,-0.48686 2.206929,-0.98346 3.283003,-1.53739 2.619811,-1.23728 5.288743,-2.38548 7.764385,-3.9026 0.246153,-0.17184 0.487463,-0.34958 0.730705,-0.52503 -0.126915,-0.50614 -0.277693,-0.9939 -0.512114,-1.46554 -0.647621,-1.25778 -1.721077,-2.20654 -2.600875,-3.29644 -1.199229,-1.33472 -2.369312,-2.69496 -3.592029,-4.00803 -1.098706,-0.97599 -2.227236,-1.92181 -3.215306,-3.01428 -1.300821,-1.39063 -2.459913,-2.93896 -3.045293,-4.77801 -1.289469,-4.05101 0.646382,-6.61405 2.843754,-6.58667 z m -95.086705,4.28035 c -0.465643,0.10748 -0.930899,0.21773 -1.394745,0.33435 0.171958,0.64334 0.283575,1.36624 0.279569,2.2071 -0.01267,2.6582 0.205063,5.32647 0.670242,7.94732 0.280107,-0.17087 0.565767,-0.33222 0.845429,-0.50385 -0.01897,-0.36223 -0.02445,-0.73164 -0.05529,-1.08985 -0.118034,-2.96491 -0.160888,-5.93314 -0.3452,-8.89507 z m 18.5141159,1.1958 c 0.00497,0.0773 0.00619,0.15612 0.014975,0.23202 -0.1238779,0.22787 -0.2588048,0.44752 -0.3937741,0.66715 0.58900751,0.0447 1.13203305,0.21413 1.64331124,0.45888 -0.37615284,-0.49255 -0.78353709,-0.94642 -1.26452314,-1.35805 z m -6.5422357,14.57068 c -0.046649,0.0755 -0.09888,0.14702 -0.1436608,0.22376 -0.03147,0.054 0.1963367,0.0838 0.1860365,0.0222 -0.017595,-0.10481 -0.026035,-0.14905 -0.042376,-0.24597 z m 13.9236979,6.08439 c -0.2236258,0.5643 -0.5677508,1.09664 -1.1782213,1.50533 0.9079653,0.17659 1.7077452,0.44257 2.2830631,0.84852 0.1405493,-0.0459 0.272804,-0.11448 0.4128956,-0.16174 -0.7336976,-0.43656 -1.2984269,-1.18703 -1.5177374,-2.19211 z" /></clipPath><clipPath
       clipPathUnits="userSpaceOnUse"
       id="clipPath127"><path
         id="path128"
         style="fill:#ff0000;fill-opacity:1;fill-rule:nonzero;stroke:none;stroke-width:0.264583"
         d="M -112.24796,-126.55676 V 185.58027 H 148.5754 V -126.55676 Z M 46.874626,83.305366 c 1.808208,0 3.616317,1.790192 3.616317,5.370214 v 5.232238 c 0.0627,2.146078 -0.111291,4.285324 -0.245462,6.424932 -0.136289,2.02485 -0.190703,4.04985 -0.104904,6.07715 0.192061,1.91863 0.527714,3.82569 0.876432,5.72213 0.304242,2.00862 0.765826,3.9858 1.180806,5.97276 0.41642,1.86142 0.967934,3.68703 1.421104,5.53972 0.25287,0.86996 0.117097,0.46495 0.396356,1.22008 0.186108,0.50319 0.223428,0.93098 0.309544,1.38441 4.425355,2.23251 2.751262,7.58433 -3.415813,6.40477 -3.104732,-0.59371 -6.256094,-0.76586 -9.40821,-0.85576 -3.81635,0.009 -7.630525,0.17062 -11.44478,0.28216 -1.12776,0.0333 -2.255837,0.0512 -3.383772,0.0754 -0.908129,0.5548 -1.966518,0.57724 -2.88613,0.0641 -0.03584,5.3e-4 -0.07165,0.002 -0.107487,0.003 -0.03142,5.3e-4 -0.0525,-0.009 -0.08268,-0.009 -0.32049,0.14732 -0.641715,0.29301 -0.962215,0.44028 -0.262501,0.12062 -0.518089,0.22111 -0.770496,0.31265 -0.876996,0.71434 -1.945576,0.85817 -2.911967,0.46405 -2.943479,-0.21613 -4.295167,-2.77187 -2.550232,-5.0524 -2.22e-4,-0.028 -0.0078,-0.0483 -0.0078,-0.0765 v -6.3469 c -0.014,-2.72977 -0.02254,-5.45666 0.112657,-8.18348 0.135676,-2.32533 0.233519,-4.6523 0.299723,-6.98046 0.046,-1.80459 0.06926,-3.60958 0.08527,-5.41465 -0.0258,-1.02998 0.04009,-2.054459 0.138491,-3.078883 0.0044,-0.04602 0.02191,-0.07504 0.02687,-0.120406 C 15.992671,97.193438 15.83363,95.70984 16.656834,94.418959 10.68718,93.678613 10.992573,87.32947 17.739972,87.32947 h 3.885033 5.177462 5.913334 c 1.498505,0.05847 2.984222,-0.03228 4.475178,-0.161748 1.252041,-0.18606 2.49041,-0.398671 3.697968,-0.782897 1.001961,-0.32245 0.492366,-0.161472 1.527553,-0.482142 0.510384,-0.158096 0.938446,-0.174371 1.394749,-0.23771 0.672338,-1.56932 1.86623,-2.35903 3.063377,-2.35903 z" /></clipPath></defs><g
     id="layer1"
     transform="translate(-116.72947,275.32907)"><path
       style="fill:#000000"
       d="m 208.0171,-20.215659 c -28.2175,-2.119278 -51.79334,-21.406494 -54.27939,-44.40556 -0.21102,-1.952196 -0.28612,-4.373133 -0.16689,-5.37986 l 0.21679,-1.830414 -2.07761,-0.01231 c -1.14269,-0.0068 -3.3061,-0.231346 -4.80759,-0.499058 -12.82201,-2.286138 -23.79602,-11.65108 -28.27573,-24.129781 -2.11866,-5.901758 -2.50476,-14.361698 -0.94646,-20.738498 1.84981,-7.56974 6.55022,-15.01565 12.47545,-19.76235 l 1.33717,-1.0712 -0.85262,-2.96493 c -1.23217,-4.2848 -1.44124,-7.53502 -0.77341,-12.02308 0.91173,-6.12713 2.57095,-10.42646 6.03002,-15.62484 7.36573,-11.0694 19.70267,-18.69049 34.9191,-21.5711 2.10011,-0.39757 5.11958,-0.60916 9.01303,-0.6316 l 5.8549,-0.0337 2.25899,-2.75762 c 4.19932,-5.12625 3.99028,-4.8271 3.3732,-4.8271 -0.31003,0 -2.27506,0.26525 -4.36674,0.58945 -2.23325,0.34614 -6.0601,0.60097 -9.27109,0.61736 -5.76144,0.0294 -8.20076,-0.3801 -11.36191,-1.9074 l -1.47591,-0.71308 -1.27158,0.84149 c -4.64831,3.07611 -9.08844,4.23775 -16.0531,4.19986 -7.57307,-0.0412 -12.93285,-1.7467 -16.68223,-5.30835 -2.51787,-2.3918 -3.38329,-4.26296 -3.38329,-7.31517 0,-2.76477 0.72762,-4.5771 2.52162,-6.28077 0.98312,-0.93362 1.0239,-1.08207 0.72689,-2.64584 -0.84002,-4.42266 1.66674,-9.61283 5.9636,-12.34746 2.73931,-1.74336 5.30938,-2.30886 9.5173,-2.0941 l 3.62917,0.18523 0.004,-0.93214 c 0.0215,-4.77633 4.67015,-11.68666 9.96667,-14.81557 5.0837,-3.00319 9.49874,-4.08392 15.60553,-3.81999 7.38101,0.31899 12.26583,2.38633 17.03095,7.2078 1.80591,1.82726 3.41119,3.12447 4.20777,3.40025 1.26111,0.43661 1.33377,0.4112 3.48908,-1.22015 3.90777,-2.95778 8.98153,-4.3053 13.54876,-3.59836 4.71951,0.73051 9.31434,3.68959 11.48766,7.39808 0.85228,1.4543 1.01802,1.56691 2.04005,1.38597 4.6978,-0.83172 7.81198,-0.51457 11.39043,1.15999 2.76846,1.29552 5.74124,4.04575 7.02641,6.50039 l 0.96547,1.84403 3.32261,-1.66639 c 8.10173,-4.06327 16.36857,-5.55039 21.26997,-3.82624 1.06715,0.37538 2.04526,0.6877 2.17358,0.69404 0.12831,0.006 -0.0205,-0.98068 -0.33066,-2.19335 -0.39498,-1.54427 -0.57057,-3.89596 -0.58607,-7.8493 -0.0191,-4.87343 0.0879,-6.02437 0.78352,-8.42576 1.87096,-6.4591 4.49606,-11.01917 9.03138,-15.68844 6.67128,-6.8683 13.20358,-9.80893 22.61853,-10.18211 5.41982,-0.21483 8.95344,0.3333 12.9948,2.01572 4.86723,2.02623 6.74432,3.95086 5.79172,5.93838 -0.35232,0.7351 -0.92395,1.06164 -2.69537,1.5397 -3.07198,0.82905 -5.68744,2.48796 -8.33439,5.28626 -6.17748,6.53071 -6.77467,15.56712 -1.54547,23.38543 0.94108,1.40703 1.92269,2.73388 2.18136,2.94856 0.3535,0.29338 1.16016,0.12245 3.24788,-0.68822 3.62225,-1.40652 7.01377,-1.68721 10.41064,-0.8616 2.43792,0.59254 2.56308,0.58867 5.74275,-0.17735 4.16363,-1.00308 10.28537,-1.09621 13.65746,-0.20778 4.98557,1.31354 10.09209,4.47416 13.00161,8.04718 2.52163,3.09668 4.99006,8.65137 4.99006,11.22908 0,0.88003 0.12478,0.94203 2.61926,1.30139 6.5933,0.94986 11.81493,5.44086 12.94374,11.13259 0.38721,1.95238 0.44407,2.02777 1.6793,2.22612 5.01623,0.80552 8.19684,2.1656 10.72128,4.58459 7.5936,7.27642 3.87955,16.72906 -6.97331,17.74779 -1.35819,0.12749 -8.50194,0.14682 -15.87499,0.043 -7.37306,-0.10386 -13.44558,-0.16967 -13.4945,-0.14625 -0.0489,0.0234 0.483,1.31431 1.18203,2.86865 l 1.27096,2.82607 2.69853,-1.15882 c 5.66789,-2.43392 13.15928,-2.90771 19.55559,-1.23677 11.12401,2.90599 20.04427,11.5051 23.45682,22.61233 1.84523,6.0059 1.74128,12.38435 -0.30122,18.48232 l -1.05055,3.13648 2.24417,2.33157 c 6.69045,6.95099 10.01207,14.24677 10.37707,22.79268 0.40125,9.394944 -2.78945,17.951027 -9.25002,24.80455 -4.57023,4.848208 -9.28136,7.680591 -15.34583,9.226081 l -2.29306,0.58437 -0.20682,3.860209 c -0.62018,11.575472 -7.61861,20.056612 -18.34345,22.229742 -2.27998,0.461983 -3.99165,0.555202 -7.40617,0.403343 l -4.44087,-0.197505 -1.73341,2.649775 c -1.95664,2.990997 -7.02773,8.074251 -10.20261,10.22707 -11.57018,7.845512 -28.62224,10.341097 -42.7795,6.260819 -6.38473,-1.840147 -12.54503,-5.091231 -16.50481,-8.710365 l -2.23166,-2.039684 -0.57792,1.217873 c -0.88266,1.860069 -4.44909,5.048011 -6.94908,6.21161 -3.43181,1.597299 -6.04313,2.157821 -10.15563,2.179906 -5.76795,0.03098 -12.33525,-1.893443 -16.65952,-4.881744 l -1.31368,-0.907826 -2.56234,2.372331 c -2.59342,2.40111 -7.22232,5.361265 -10.97325,7.017326 -7.90866,3.491732 -18.40093,5.238376 -27.4051,4.562117 z m 11.1125,-4.365813 c 10.22977,-1.201759 21.45501,-6.437637 26.9317,-12.561958 1.09785,-1.227665 2.16585,-2.232206 2.37334,-2.232314 0.20749,-1.08e-4 1.23936,0.654617 2.29305,1.454944 3.97527,3.019409 9.52913,5.08652 14.7116,5.475568 8.10963,0.608791 15.2068,-3.852199 16.17151,-10.164747 0.54824,-3.587365 1.44012,-3.576322 4.47833,0.05545 6.98758,8.352714 18.53874,13.059339 32.03991,13.054951 15.49608,-0.005 27.91139,-6.306012 35.96504,-18.252844 1.27603,-1.892863 2.51698,-3.398334 2.75769,-3.34549 7.39528,1.62357 11.80482,1.357643 16.56378,-0.998914 3.98347,-1.972551 6.60416,-4.60709 8.46966,-8.51443 1.74767,-3.660528 2.20319,-5.832715 2.19553,-10.469756 -0.003,-2.012585 0.14556,-3.942518 0.33085,-4.288741 0.2288,-0.427514 1.35352,-0.863566 3.50528,-1.358998 10.71487,-2.467035 19.22402,-10.648776 22.31694,-21.45824 1.03108,-3.603549 1.10854,-11.038459 0.15175,-14.566719 -1.55726,-5.7426 -6.10209,-12.69273 -10.62364,-16.24608 -1.26674,-0.9955 -2.30316,-1.87035 -2.30316,-1.94412 0,-0.0738 0.39454,-1.02626 0.87676,-2.11664 2.11584,-4.78429 2.75687,-7.50903 2.77516,-11.79594 0.0121,-2.84042 -0.17592,-4.79743 -0.62708,-6.52639 -2.66452,-10.21107 -11.0788,-18.79707 -20.96588,-21.39376 -3.87462,-1.01761 -9.80304,-1.02456 -13.89919,-0.0163 -2.85412,0.70254 -5.90699,1.93726 -5.90699,2.38906 0,0.10506 0.41516,1.6341 0.92257,3.39785 0.50742,1.76375 1.1922,4.73049 1.52174,6.59277 l 0.59915,3.38595 0.99201,-1.4954 c 2.44827,-3.69064 7.8762,-5.31058 11.50554,-3.43377 1.78647,0.92382 2.9221,2.8134 3.09057,5.14237 l 0.15077,2.0845 1.63313,0.7213 c 1.99066,0.87922 3.74722,2.51079 4.7051,4.3703 0.59605,1.1571 0.67964,1.78236 0.49521,3.70417 -0.41809,4.35654 -0.78767,6.1941 -1.53414,7.62782 -2.02798,3.89506 -7.77158,6.80375 -12.66008,6.41135 -2.40147,-0.19277 -6.20273,-1.74574 -7.53558,-3.07859 -0.42338,-0.42339 -0.8447,-0.69488 -0.93626,-0.60332 -0.0915,0.0916 -0.4552,1.57322 -0.80811,3.29259 -1.63298,7.95601 -4.75796,15.56493 -9.0395,22.00997 -4.13649,6.22671 -8.46968,10.648985 -13.66191,13.942797 -0.9017,0.572013 -1.64525,1.139826 -1.65233,1.261807 -0.007,0.121981 0.42368,0.404068 0.95726,0.626858 1.32844,0.554681 3.85126,2.730083 3.5363,3.049315 -0.14083,0.142741 -0.49802,0.05872 -0.79375,-0.186715 -0.63339,-0.525669 -0.73115,0.01113 -0.11436,0.627924 0.32926,0.32926 -0.0999,0.423334 -1.93109,0.423334 -1.79638,0 -2.99518,-0.254534 -5.05777,-1.073883 -5.16984,-2.05368 -8.50557,-2.834212 -13.01364,-3.045083 -10.91595,-0.510607 -21.55913,3.755038 -28.57499,11.452482 -1.61388,1.770659 -5.46806,7.704148 -5.46806,8.41804 0,0.261921 -0.15775,0.47622 -0.35056,0.47622 -0.39927,0 -0.31151,-0.98877 0.15405,-1.735645 0.23565,-0.378038 0.16824,-0.445661 -0.27478,-0.275655 -0.39595,0.151939 -0.58704,0.04256 -0.58704,-0.336023 0,-0.464018 -0.0936,-0.483596 -0.5402,-0.11297 -0.44666,0.370696 -0.62796,0.332364 -1.04711,-0.221388 -0.27881,-0.368339 -0.51197,-0.938151 -0.51814,-1.266249 -0.006,-0.328097 -0.16997,-0.694654 -0.364,-0.81457 -0.19402,-0.119915 -0.33436,-0.645222 -0.31185,-1.167347 0.0306,-0.709987 0.0803,-0.771442 0.19704,-0.243764 0.3469,1.567711 0.43135,1.674565 0.92695,1.17274 0.75355,-0.763034 3.4212,-4.809031 3.4212,-5.188914 0,-0.215315 -0.57885,-0.173159 -1.49931,0.109192 -3.34871,1.027222 -5.05752,1.261149 -9.21255,1.261149 -4.31763,0 -4.3637,0.0087 -5.87942,1.106653 -0.84023,0.608659 -2.57061,1.600846 -3.84529,2.204861 -2.17592,1.031075 -2.5656,1.098208 -6.37454,1.098208 -3.75998,0 -4.21189,-0.07516 -6.17361,-1.02676 -3.16669,-1.536108 -7.0641,-5.61773 -8.81094,-9.227381 l -1.37664,-2.844687 -4.07843,1.201221 c -4.49971,1.325299 -15.01603,3.573359 -16.95482,3.624409 -2.49506,0.0657 -2.64749,0.369412 -1.01363,2.019608 0.81198,0.8201 1.35278,1.491091 1.20178,1.491091 -0.151,0 -0.0769,0.238125 0.16462,0.529166 0.30343,0.365606 0.31678,0.529167 0.0432,0.529167 -0.21779,0 -0.39597,0.396875 -0.39597,0.881944 0,0.621794 -0.19183,0.881945 -0.65033,0.881945 -1.13762,0 -4.69513,-1.363579 -8.69828,-3.334021 -5.58767,-2.750371 -9.41779,-3.842144 -13.5873,-3.873045 -3.12912,-0.02319 -3.52205,0.05643 -5.79447,1.174192 -1.34074,0.659489 -3.16396,1.927997 -4.05159,2.818907 -0.88762,0.890909 -1.74473,1.577707 -1.90467,1.526216 -0.15994,-0.05149 -0.20048,0.05253 -0.0901,0.231152 0.1104,0.178624 -0.10137,0.697846 -0.4706,1.153827 l -0.67133,0.829055 0.18518,-0.968697 c 0.24159,-1.263839 -0.43644,-1.26275 -0.89816,0.0014 -0.19488,0.533577 -0.36686,0.760362 -0.38218,0.503969 -0.0153,-0.256394 -0.2751,-0.713426 -0.5773,-1.015626 -0.3022,-0.3022 -0.46904,-0.759026 -0.37075,-1.015169 0.11365,-0.296147 -0.007,-0.394289 -0.33249,-0.269547 -0.34685,0.133101 -0.5112,-0.04308 -0.5112,-0.548024 0,-1.01654 3.87578,-4.846842 6.61554,-6.537918 1.21215,-0.748182 2.20391,-1.405076 2.20391,-1.459767 0,-0.05469 -0.88722,-0.548063 -1.9716,-1.096385 -4.83406,-2.444361 -10.50525,-8.169556 -12.99703,-13.120806 -3.38168,-6.71948 -3.93065,-12.68379 -1.96709,-21.37129 l 0.72185,-3.19374 -0.85542,-2.6448 -0.85541,-2.64479 -3.45538,-0.9997 c -4.44458,-1.28588 -7.46866,-3.2124 -11.63558,-7.41254 -4.67978,-4.71709 -7.50131,-9.856 -9.56367,-17.41855 -1.31054,-4.80563 -1.38815,-10.51623 -0.17177,-12.63797 0.96378,-1.6811 2.9497,-3.10424 7.29693,-5.22907 6.03297,-2.94878 12.25769,-4.49473 18.86635,-4.68559 l 4.40245,-0.12713 0.65013,-1.26725 c 0.35758,-0.69698 0.54416,-1.37132 0.41464,-1.49853 -0.42806,-0.42041 -7.50187,-0.11137 -10.65359,0.46542 -3.87466,0.7091 -9.04037,2.28105 -12.83929,3.90705 -11.53377,4.93666 -20.88316,14.91787 -24.17328,25.80688 -0.79124,2.61869 -0.94089,3.79179 -0.95841,7.51296 -0.0211,4.48379 0.25737,6.08719 1.60499,9.24122 0.63949,1.49669 0.832,1.66685 1.9955,1.76389 l 1.28774,0.10739 -2.29306,1.55485 c -7.4878,5.07725 -12.08784,11.36763 -14.34177,19.61181 -0.82791,3.02824 -0.96484,4.20216 -0.96707,8.29028 -0.004,6.68832 1.52899,12.23339 4.7778,17.286113 2.01865,3.139511 8.03905,9.003662 11.0777,10.790213 6.45267,3.793787 13.10446,5.195526 18.27005,3.850064 2.26462,-0.58986 3.28366,-0.663444 3.53589,-0.255324 0.0931,0.150614 -0.0591,1.222176 -0.33808,2.38125 -1.08156,4.492721 -0.53953,11.732488 1.28359,17.144314 3.52082,10.45142 13.21076,20.703402 25.16282,26.622355 10.44127,5.170769 23.09981,7.431627 34.26545,6.119925 z m 67.20417,-49.190298 c 0,-0.09701 0.0794,-0.176389 0.17638,-0.176389 0.097,0 0.17639,0.07937 0.17639,0.176389 0,0.09701 -0.0794,0.176389 -0.17639,0.176389 -0.097,0 -0.17638,-0.07937 -0.17638,-0.176389 z M 184.381,-82.238436 c 0,-0.09701 0.0794,-0.176389 0.17638,-0.176389 0.097,0 0.17639,0.07937 0.17639,0.176389 0,0.09701 -0.0794,0.176389 -0.17639,0.176389 -0.097,0 -0.17638,-0.07937 -0.17638,-0.176389 z m 2.203,-0.352778 c -0.0927,-0.485069 -0.22946,-0.881944 -0.30385,-0.881944 -0.0744,0 -0.13527,0.396875 -0.13527,0.881944 0,0.485069 0.13674,0.881944 0.30386,0.881944 0.16712,0 0.22799,-0.396875 0.13526,-0.881944 z m 73.76555,-3.186046 c 0.91831,-1.760746 1.71401,-2.857101 2.12944,-2.934081 1.48542,-0.275245 1.35726,1.542247 -0.30927,4.385966 l -0.91292,1.557772 h 1.04178 c 1.81835,0 5.13468,-1.246775 7.3898,-2.778197 1.19982,-0.814784 2.1815,-1.673948 2.1815,-1.909253 0,-0.315914 1.36114,-0.427827 5.20347,-0.427827 4.28228,0 5.80646,-0.148096 8.60955,-0.836538 l 3.40607,-0.836538 -2.06332,-2.457408 c -6.28746,-7.488315 -9.11551,-19.180406 -7.05488,-29.167156 0.91583,-4.43852 1.65174,-6.68676 3.17247,-9.69208 5.15871,-10.19485 12.89415,-16.86565 22.8443,-19.70021 4.02067,-1.14539 10.79775,-1.13208 14.74206,0.029 2.98073,0.8774 5.95831,2.23137 6.36921,2.89623 0.16452,0.2662 0.0159,0.32439 -0.45045,0.17638 -3.99713,-1.26864 -9.90356,-1.57116 -14.6038,-0.748 -13.07699,2.29019 -22.86439,10.94622 -26.92136,23.80941 -3.28133,10.40392 -0.76244,23.28119 5.92009,30.265145 0.78903,0.824618 1.56401,1.499305 1.72218,1.499305 0.15817,0 0.19594,-1.230312 0.0839,-2.734027 -0.24192,-3.24776 0.1151,-4.807083 1.13503,-4.957403 0.94641,-0.13948 1.15784,0.693155 1.16395,4.583805 0.003,1.686292 0.15344,3.15784 0.33509,3.270107 0.18166,0.112266 1.49134,-0.336427 2.91042,-0.997097 7.20993,-3.356675 11.32539,-4.56731 17.53871,-5.159321 4.2376,-0.403762 9.56985,0.01919 13.36363,1.059997 l 2.59978,0.71324 2.00151,-1.068353 c 2.40809,-1.285373 8.4425,-6.300318 10.64456,-8.846238 6.68461,-7.72843 11.16649,-17.05551 13.12604,-27.3161 0.71007,-3.71805 0.80762,-5.30683 0.80141,-13.05277 -0.006,-7.66305 -0.11142,-9.36756 -0.80291,-12.99976 -1.08695,-5.70941 -2.898,-11.17484 -5.51178,-16.63357 -2.85343,-5.95921 -5.0941,-9.52481 -9.19975,-14.63965 -10.79709,-13.45107 -25.15734,-22.21497 -41.85852,-25.5458 -6.6917,-1.33458 -15.11559,-2.03988 -15.11559,-1.26558 0,0.19422 1.035,1.33203 2.3,2.52846 3.22331,3.04858 4.49312,5.6992 4.68856,9.78701 0.29667,6.20522 -1.79514,11.08362 -6.97829,16.27437 -3.83827,3.8439 -7.2472,5.8687 -11.87181,7.05147 -3.37979,0.86441 -8.39675,0.92378 -11.09318,0.13128 -4.75303,-1.39694 -8.98376,-4.62392 -11.345,-8.65339 -0.99821,-1.70346 -2.16365,-5.4265 -2.63648,-8.42234 l -0.30623,-1.94028 -0.74433,2.29306 -0.74433,2.29306 -0.0372,-3.1128 c -0.0744,-6.21948 3.15103,-12.67044 8.42943,-16.85918 1.70221,-1.35081 6.35,-3.65196 6.35,-3.14392 0,0.16871 -0.63899,0.85371 -1.41999,1.52221 -2.01159,1.72185 -4.78606,5.27725 -6.0097,7.70126 -4.42947,8.77474 -1.36672,19.01313 6.91156,23.10448 2.22539,1.09985 3.0316,1.30501 5.7002,1.45057 5.96819,0.32555 11.02285,-1.57572 15.13038,-5.69119 3.86694,-3.87439 6.04596,-8.05238 6.39958,-12.27035 0.29592,-3.5298 -0.38675,-4.98022 -4.2734,-9.07934 -5.08781,-5.36596 -6.54509,-7.07324 -7.29914,-8.55129 -1.00218,-1.96443 -3.35535,-4.13547 -5.60751,-5.17352 -8.0164,-3.69483 -24.51469,2.84389 -32.48617,12.87515 -2.41011,3.03287 -3.74876,5.51024 -5.31216,9.8309 -0.59458,1.64319 -1.2155,2.90452 -1.37984,2.80296 -0.16434,-0.10157 -0.40846,-1.29756 -0.54249,-2.65776 -0.27163,-2.75662 -0.59379,-2.68423 -1.65833,0.37265 -0.69829,2.00516 -0.74233,1.21816 -0.10112,-1.80693 0.57513,-2.71336 2.10782,-5.92951 4.29667,-9.01601 0.85025,-1.19893 1.54591,-2.26653 1.54591,-2.37243 0,-0.61839 -10.41681,2.07849 -14.74137,3.8165 -10.34854,4.159 -21.14804,11.64538 -27.81391,19.28101 -2.83187,3.24385 -7.47405,10.09371 -9.27507,13.686 -6.51565,12.99603 -7.92585,28.85762 -3.89226,43.7791 0.49232,1.82126 1.12168,3.3 1.61404,3.79237 1.14992,1.14991 1.7081,0.99952 0.80814,-0.21775 -0.7458,-1.00874 -0.68419,-1.79899 0.14,-1.79579 0.23108,9e-4 1.37265,0.39401 2.53682,0.87357 2.55437,1.05225 4.42823,1.10494 6.46256,0.18172 1.99311,-0.90451 6.12469,-4.69532 7.5201,-6.89985 4.72974,-7.47227 15.40829,-12.16775 24.14436,-10.61654 3.63901,0.64616 6.411,1.96448 8.5868,4.08377 4.9458,4.81736 6.08706,13.36513 2.5914,19.40899 -1.16307,2.01092 -3.27261,4.29291 -5.43769,5.88222 -1.52575,1.12001 -1.71059,1.40069 -1.71059,2.59767 0,2.71692 -2.55129,3.92807 -4.70531,2.23372 l -0.93905,-0.73866 -2.55768,0.80269 c -5.1334,1.61106 -10.42131,1.36167 -15.0356,-0.7091 -4.11064,-1.84475 -7.67281,-6.77242 -8.07112,-11.16507 -0.17739,-1.95624 -0.48411,-2.49026 -0.97455,-1.69672 -0.1222,0.19772 -1.02688,0.76726 -2.01041,1.26566 -2.38612,1.20913 -6.08297,1.50829 -8.81699,0.71348 -1.08737,-0.3161 -2.13782,-0.57474 -2.33433,-0.57474 -0.74807,0 -1.93603,6.38077 -1.9704,10.58333 -0.0375,4.59054 0.61519,7.14183 2.88166,11.2636 1.45958,2.65436 6.12888,7.66122 8.90323,9.546884 8.68568,5.90346 20.00086,7.935216 33.31056,5.981249 13.04,-1.914374 23.28233,-5.7124 31.32539,-11.615983 1.57058,-1.1528 2.98938,-2.01333 3.15288,-1.91228 1.13857,0.70368 -0.58114,4.25049 -3.20475,6.609624 -1.83285,1.648094 -5.51981,4.064611 -6.62456,4.341884 -2.28018,0.572291 1.01659,6.392385 5.36408,9.469705 2.16243,1.530649 2.94616,1.940763 3.47273,1.817235 0.16374,-0.03841 0.95749,-1.334872 1.76389,-2.881018 z m -27.99078,-64.47246 c -0.98251,-0.49457 -1.37112,-2.09509 -0.7039,-2.89904 0.22298,-0.26868 1.22664,-0.75488 2.23036,-1.08044 2.95909,-0.95982 6.54205,-2.985 8.58596,-4.85302 2.63772,-2.41072 3.51282,-4.01576 4.698,-8.61663 0.22387,-0.86905 0.59453,-1.4993 0.88178,-1.4993 0.73028,0 1.59185,1.41241 1.60803,2.63613 l 0.0141,1.06803 0.56632,-1.05833 c 0.66996,-1.25201 1.11066,-1.58786 1.75773,-1.33956 1.42207,0.5457 0.73988,3.82347 -1.49783,7.19672 -3.23833,4.88164 -8.7978,9.0709 -13.74931,10.3606 -2.49781,0.6506 -3.23889,0.66492 -4.39127,0.0848 z m 29.98611,-69.92482 c 0,-0.097 0.0794,-0.17639 0.17639,-0.17639 0.097,0 0.17639,0.0794 0.17639,0.17639 0,0.097 -0.0794,0.17639 -0.17639,0.17639 -0.097,0 -0.17639,-0.0794 -0.17639,-0.17639 z m -39.6875,136.701382 c 0.11992,-0.194028 0.0499,-0.352778 -0.15557,-0.352778 -0.20548,0 -0.3736,0.15875 -0.3736,0.352778 0,0.194027 0.07,0.352777 0.15557,0.352777 0.0856,0 0.25369,-0.15875 0.3736,-0.352777 z m -36.86527,-0.549987 c 0,-0.302493 -0.15875,-0.451874 -0.35278,-0.331958 -0.19403,0.119916 -0.35278,0.36741 -0.35278,0.549987 0,0.182577 0.15875,0.331958 0.35278,0.331958 0.19403,0 0.35278,-0.247494 0.35278,-0.549987 z m 32.627,-36.298065 c 4.84117,-1.6326 8.1874,-3.5898 11.16429,-6.52997 3.55912,-3.51522 4.31355,-5.39264 4.11653,-10.2442 -0.16345,-4.02501 -1.09248,-6.37081 -3.50332,-8.84589 -2.39729,-2.46117 -5.06214,-3.61283 -8.74543,-3.77949 -9.03816,-0.40895 -17.50484,4.31567 -21.26285,11.86521 -1.4871,2.98746 -1.51979,3.12922 -1.51795,6.58101 0.002,3.12175 0.11553,3.77139 0.98924,5.64444 1.57463,3.37566 3.83955,5.3138 7.20548,6.16585 2.49981,0.63281 8.44365,0.19196 11.55401,-0.85696 z m -10.52185,-6.94236 c -0.81812,-0.4756 -2.70173,-4.40962 -2.7021,-5.64347 -3.4e-4,-1.14145 0.78917,-1.85178 1.72726,-1.55404 0.8441,0.26791 2.64237,3.0886 3.23933,5.08109 0.34289,1.14445 0.33911,1.54369 -0.0187,1.97481 -0.51996,0.62651 -1.32443,0.67724 -2.2458,0.14161 z m 11.99666,-5.59297 c -0.91699,-1.08979 -2.35182,-4.5018 -2.35182,-5.59263 0,-1.64862 2.06104,-1.9793 3.10574,-0.49829 1.16799,1.65579 2.53871,4.61133 2.53871,5.47397 0,1.88473 -1.92271,2.245 -3.29263,0.61695 z m 155.78574,-3.8852 c 1.71207,-0.64057 4.51245,-2.92121 4.09703,-3.33663 -0.0942,-0.0942 -1.03589,-0.0323 -2.09255,0.13757 -1.97441,0.31746 -5.16028,-0.0601 -6.5056,-0.77106 -0.389,-0.20557 -1.38785,-0.92865 -2.21966,-1.60685 l -1.51238,-1.23308 -1.94364,0.46627 c -1.06901,0.25645 -2.01594,0.58324 -2.10429,0.72621 -0.17733,0.28691 2.0773,3.22504 3.42518,4.46354 2.01251,1.8492 5.71007,2.33104 8.85591,1.15403 z m -201.30099,-5.20433 c -0.6026,-4.68689 -0.97477,-10.48115 -0.87219,-13.57914 l 0.11479,-3.4669 -2.03285,-0.83209 c -3.18886,-1.30526 -6.53435,-3.4449 -9.69701,-6.2018 -4.49509,-3.9184 -4.00796,-4.02739 3.08681,-0.69066 5.14519,2.41982 7.88347,3.51573 8.78455,3.51573 0.50193,0 0.69471,-0.37078 0.87125,-1.67569 0.40263,-2.97602 1.68241,-7.58769 3.08579,-11.11959 0.75324,-1.89567 1.36952,-3.54672 1.36952,-3.669 0,-0.41506 -6.86499,0.23393 -9.70139,0.91713 -8.53432,2.05564 -14.88493,5.60702 -15.04901,8.41568 -0.24593,4.20972 1.04914,9.80427 3.4066,14.71619 2.98671,6.223 7.54365,11.03786 12.99767,13.73336 1.77697,0.87821 3.37037,1.60029 3.54088,1.60461 0.17052,0.004 0.21308,-0.7462 0.0946,-1.66783 z m 203.65676,-2.24038 c 2.01838,-0.60473 2.96036,-1.47889 2.96036,-2.74725 0,-1.4274 -1.14374,-2.63466 -3.03201,-3.2004 -1.39596,-0.41824 -1.50808,-0.39747 -2.0159,0.37341 -0.29575,0.44895 -1.37117,1.64303 -2.38982,2.6535 -1.01864,1.01047 -1.85208,1.93791 -1.85208,2.06099 0,0.43982 2.31758,1.22068 3.66324,1.23424 0.7536,0.008 1.95339,-0.16093 2.66621,-0.37449 z m -10.52843,-5.43146 c 0.81676,-2.15168 2.89205,-4.30799 4.65422,-4.83596 1.68762,-0.50562 2.0533,-1.16348 1.52851,-2.74984 -0.38272,-1.15689 -0.50143,-1.23289 -1.88318,-1.20564 -3.10877,0.0613 -5.67848,2.94284 -6.89447,7.73109 -0.57631,2.26934 -0.58097,2.50431 -0.0573,2.88724 0.95825,0.7007 1.95279,0.0156 2.6522,-1.82689 z m 4.35145,-0.001 c 0.51797,-0.67909 0.79635,-1.23472 0.61861,-1.23472 -0.57545,0 -2.18219,1.44747 -2.18219,1.96588 0,0.83782 0.57026,0.57116 1.56358,-0.73116 z m 15.63139,-34.70617 c 2.60676,-1.17337 4.32447,-3.15796 4.32447,-4.99639 0,-4.91387 -6.30799,-9.15715 -13.61286,-9.15715 -2.92275,0 -3.55117,-0.40561 -2.97528,-1.92034 1.04009,-2.73564 -0.043,-6.33431 -2.55307,-8.48284 -4.11935,-3.52602 -10.54632,-3.72675 -15.31818,-0.47844 -1.95219,1.32889 -2.3088,1.27981 -1.67759,-0.23088 0.28374,-0.6791 0.41495,-1.23473 0.29158,-1.23473 -0.12338,0 -0.0475,-0.21304 0.16859,-0.47343 0.21611,-0.26038 0.30042,-0.56592 0.18738,-0.67897 -0.50419,-0.50419 0.3564,-1.60843 2.00098,-2.56752 l 1.78776,-1.04258 -0.17349,-1.83211 c -0.2066,-2.18172 -1.86337,-5.8101 -3.62093,-7.92993 -4.19723,-5.06237 -10.01979,-7.70653 -16.94331,-7.69433 -4.30039,0.008 -7.64677,0.69246 -10.87565,2.22585 -2.74468,1.30344 -3.46833,1.31741 -3.15296,0.0609 0.6146,-2.44873 -5.73012,-1.91284 -10.0314,0.84729 -3.16544,2.03126 -7.18157,6.79872 -7.97898,9.47167 -0.18005,0.60354 -0.0939,0.79375 0.35966,0.79375 1.29459,0 8.3108,2.61747 12.66771,4.72582 4.9476,2.39419 10.86139,6.14131 14.82921,9.39614 6.02621,4.94333 14.52924,14.61488 17.12654,19.48012 1.07292,2.00979 1.09814,2.02891 2.7379,2.07631 0.91025,0.0263 3.56001,0.16335 5.88834,0.30455 2.32833,0.1412 8.83708,0.23712 14.46389,0.21317 9.94505,-0.0423 10.28216,-0.0668 12.07969,-0.8759 z M 155.25762,-199.7227 c 3.12402,-0.86078 5.39696,-2.14252 7.76988,-4.38156 2.29756,-2.16793 3.22154,-2.37172 3.56744,-0.78682 0.11336,0.51938 0.26531,1.13774 0.33767,1.37414 0.20862,0.68152 2.51392,1.48968 5.96842,2.09234 3.66368,0.63915 7.13083,0.4979 14.55372,-0.59292 2.59933,-0.38199 5.72462,-0.69452 6.94508,-0.69452 1.81805,0 2.34047,-0.13569 2.89107,-0.75092 1.03383,-1.15517 5.85069,-4.74869 8.90217,-6.64128 10.13892,-6.28835 22.00283,-10.64275 31.66549,-11.62216 4.48252,-0.45435 5.44392,-1.62846 3.80266,-4.644 -2.78834,-5.12309 -8.64966,-7.01748 -15.82884,-5.11591 -0.97014,0.25696 -1.8727,0.40388 -2.0057,0.32649 -0.13299,-0.0774 -0.63783,-1.00573 -1.12185,-2.06297 -3.27941,-7.16318 -12.28153,-9.73315 -18.99752,-5.42351 -1.78379,1.14466 -2.03716,1.69095 -1.13248,2.44177 1.0529,0.87383 1.9145,3.08766 1.9145,4.91922 v 1.79371 l -1.87996,-1.92556 c -2.37065,-2.42817 -4.74517,-3.94098 -7.54303,-4.80567 -1.90914,-0.59003 -2.56726,-1.05418 -5.11527,-3.60758 -4.2833,-4.29236 -8.54863,-6.19936 -14.56591,-6.51231 -4.48195,-0.2331 -7.7592,0.43241 -11.67034,2.36989 -5.81305,2.87965 -9.28534,7.60327 -9.60131,13.06139 -0.0891,1.53967 -0.28937,2.7994 -0.44497,2.7994 -0.1556,0 -0.33364,0.35719 -0.39564,0.79375 -0.0717,0.505 -0.36941,0.80684 -0.81829,0.82972 -1.41265,0.072 -1.5875,0.15051 -1.5875,0.71279 0,0.40899 -0.12587,0.47266 -0.44097,0.22306 -0.24254,-0.19211 -1.29565,-0.62823 -2.34025,-0.96916 -5.32679,-1.73852 -11.18366,0.90426 -12.9218,5.83067 -0.67767,1.92072 -0.66368,2.96103 0.0673,5.00041 l 0.5955,1.6615 -1.79849,1.90164 c -3.22739,3.41249 -3.24866,5.99067 -0.0749,9.08199 1.81512,1.76798 4.11405,2.86241 7.74146,3.68539 2.93705,0.66636 10.56916,0.46241 13.56273,-0.36242 z m 149.34095,-23.78014 c 1.38185,-2.67307 3.06887,-5.02718 4.78908,-6.68283 l 1.23816,-1.19168 -1.75538,-2.29026 c -2.06276,-2.69129 -3.53101,-5.4828 -4.41687,-8.39759 -0.94423,-3.10684 -0.8521,-9.81846 0.17359,-12.64616 2.01889,-5.56581 5.92695,-10.2525 10.57984,-12.68772 1.4252,-0.74593 2.45708,-1.48585 2.29305,-1.64429 -0.50802,-0.49071 -4.41374,-1.68289 -6.97403,-2.12874 -3.4622,-0.60292 -9.61844,-0.24834 -12.72697,0.73304 -9.9451,3.1397 -17.71784,11.29232 -20.69865,21.71026 -0.65304,2.28237 -0.79944,3.65131 -0.79007,7.38761 0.0145,5.76725 1.04155,9.88854 3.7709,15.13124 l 1.84626,3.54639 6.52467,0.0761 c 4.74491,0.0553 7.48696,0.26271 10.05245,0.76026 1.94028,0.37629 3.84114,0.66396 4.22414,0.63926 0.47996,-0.0309 1.06102,-0.75032 1.86983,-2.31488 z m -151.61479,-3.37447 c 0,-0.097 -0.0794,-0.17639 -0.17639,-0.17639 -0.097,0 -0.17639,0.0794 -0.17639,0.17639 0,0.097 0.0794,0.17639 0.17639,0.17639 0.097,0 0.17639,-0.0794 0.17639,-0.17639 z"
       id="path130" /></g></svg>
