<?xml version="1.0" encoding="UTF-8" standalone="no"?>
<!-- Created with Inkscape (http://www.inkscape.org/) -->

<svg
   width="252.74767mm"
   height="299.74768mm"
   viewBox="0 0 252.74768 299.74764"
   version="1.1"
   id="svg1"
   xml:space="preserve"
   xmlns="http://www.w3.org/2000/svg"
   xmlns:svg="http://www.w3.org/2000/svg"><defs
     id="defs1"><clipPath
       clipPathUnits="userSpaceOnUse"
       id="clipPath6"><path
         id="path7"
         style="fill:#ff0000;fill-opacity:1;fill-rule:nonzero;stroke:none;stroke-width:0.264583"
         d="M -175.07778,-16.057127 V 287.55793 H 124.54631 V -16.057127 Z m 132.7459,202.572647 c 0.210643,0.005 0.427212,0.0169 0.650089,0.0367 2.23823,0.19855 4.475655,0.4031 6.717938,0.55346 1.973313,0.11308 0.986628,0.0436 2.958475,0.20825 3.181295,0.26563 4.740125,1.85116 4.950601,3.46956 4.949923,1.63749 3.796379,7.35609 -2.592089,6.81354 -3.228716,-0.27422 -1.569593,-0.1301 -4.979024,-0.43357 -4.228209,-0.39317 -8.460616,-0.76265 -12.666927,-1.35341 -6.647387,-0.93358 -5.930551,-7.21034 0.03204,-7.20421 0.04685,5e-5 0.0972,0.004 0.144695,0.005 0.687229,-1.21692 2.304132,-2.15435 4.784204,-2.09548 z" /></clipPath><clipPath
       clipPathUnits="userSpaceOnUse"
       id="clipPath76"><path
         id="path77"
         style="fill:#ff0000;fill-opacity:1;fill-rule:nonzero;stroke:none;stroke-width:0.264583"
         d="M -133.83107,-122.52355 V 173.82063 H 122.97289 V -122.52355 Z M 13.574404,98.948202 c 2.788179,0.0507 4.135003,2.063798 3.398242,4.077268 0.199805,0.45372 0.374906,0.96736 0.517797,1.54461 1.07913,4.35948 0.671079,8.891 0.311608,13.31495 -0.351859,3.06036 -0.147137,1.57974 -0.604097,4.44366 -0.359666,2.25418 -1.333846,3.66838 -2.455664,4.32532 0.105138,0.36595 0.224724,0.72888 0.324528,1.09554 0.6273,2.23652 0.575201,4.47401 0.39429,6.75514 -0.137303,1.73129 -0.688065,2.99533 -1.427303,3.82199 -0.112477,0.41601 -0.170275,0.80219 -0.311092,1.25212 -0.184975,0.59102 -0.413327,1.1061 -0.670242,1.55856 0.741137,-0.23134 1.446982,-0.38145 2.064991,-0.37517 4.085002,0.0415 5.222724,4.75435 -0.02223,7.27138 -4.46677,2.14368 -9.303523,3.34693 -14.11903492,4.40955 -4.40876268,0.85156 -8.89238128,1.33053 -13.38264308,1.19269 -5.804014,-0.17807 -6.736297,-5.00293 -3.065447,-6.67298 -2.072987,-0.65744 -4.042852,-1.62261 -4.128947,-3.14709 -0.02802,-0.49633 0.0026,-0.90355 0.0341,-1.30897 -1.976731,-0.003 -3.95339,2.4e-4 -5.930386,0.003 -0.814031,0 -1.53062,-0.0962 -2.159559,-0.26149 -0.376306,0.19492 -0.742394,0.40783 -1.120862,0.59893 -6.391272,3.22657 -9.625245,-3.24074 -3.234428,-6.46886 1.833438,-0.92611 3.62694,-1.92211 5.414142,-2.92954 -0.877003,-3.87058 -1.368747,-7.83436 -1.323951,-11.80858 0.01651,-1.46304 0.376836,-2.54918 0.864547,-3.41426 -1.247357,-1.79999 -0.223805,-4.63069 3.842661,-5.68855 3.11826,-0.81116 6.282901,-1.39515 9.473837,-1.82211 -1.259816,-0.12657 -2.516182,-0.30233 -3.764627,-0.50177 -1.477002,-0.21985 -2.935575,-0.54305 -4.407482,-0.7891 -1.14214,-0.22954 -0.588502,-0.12004 -1.660882,-0.3297 -3.350244,-0.65501 -4.783278,-2.61088 -4.608504,-4.32997 -0.200179,-1.7721 1.333365,-3.52972 4.663799,-3.59461 v -5.3e-4 c 0.20954,-0.004 0.426035,-0.002 0.649571,0.008 1.77111,0.0772 3.528708,0.28204 5.26428,0.64027 1.655035,0.33225 3.314115,0.6481 4.955251,1.04439 1.244759,0.34858 2.51628,0.54538 3.7997689,0.6723 0.025956,0.002 0.052073,0.002 0.078034,0.004 0.4990888,-0.0371 0.9984105,-0.0743 1.4965495,-0.11317 1.346872,-0.12588 2.6913231,-0.25136 4.0457464,-0.24236 1.1278499,-0.0444 2.2567291,-0.10772 3.37498791,-0.26872 0.75719517,-0.11591 1.51142439,-0.25483 2.25722659,-0.4284 0.3616431,-0.12394 0.7240561,-0.24538 1.083138,-0.37775 0.3360393,-0.12388 0.6107589,-0.12825 0.9250071,-0.20723 0.1281086,-0.045 0.2583895,-0.0825 0.3855085,-0.13074 1.9825018,-0.7681 3.9540551,-1.56464 5.9510551,-2.29443 1.050809,-0.383992 1.999634,-0.542639 2.826703,-0.527616 z M 0.70283723,110.39557 c -0.45566013,0.0949 -0.90775367,0.208 -1.36890919,0.2744 -1.16638124,0.15534 -2.34111274,0.24237 -3.51761424,0.26251 0.4031694,0.0896 0.8047355,0.18876 1.2025101,0.308 0.1014836,0.0304 0.1982549,0.075 0.2986907,0.10852 0.4205235,-0.21824 0.9206601,-0.35072 1.4898318,-0.37156 0.39885139,-0.0146 0.83259872,0.0278 1.29449508,0.13023 0.22468681,-0.12213 0.44967525,-0.24374 0.67437529,-0.36587 -0.0326284,-0.11319 -0.058211,-0.22834 -0.0733795,-0.34623 z m 10.24433577,1.02474 c -0.76023,0.21437 -1.5189569,0.4343 -2.2696301,0.68006 -0.031261,0.62207 -0.2256075,1.28373 -0.6464723,1.94355 0.6236891,0.43248 1.2549743,1.04482 1.8634525,1.86862 0.2674939,0.36214 0.4748849,0.75712 0.7188199,1.13223 0.154519,-1.86707 0.314174,-3.74736 0.33383,-5.62446 z m 64.566086,3.39773 c 1.50346,0.0187 3.129182,1.24994 3.928441,4.04678 0.257931,0.90255 0.823497,1.65871 1.488797,2.30735 0.856321,0.95375 1.845738,1.76777 2.801898,2.61638 1.458581,1.46408 2.789203,3.04608 4.169772,4.58215 1.315059,1.44746 2.571226,2.91698 3.543967,4.61884 0.0053,0.01 0.0082,0.0206 0.01344,0.0305 0.734605,-0.43313 1.446276,-0.65634 2.094962,-0.69195 3.016182,-0.16561 4.69137,3.55377 1.187525,7.32306 -1.69471,1.82311 -3.657862,3.33908 -5.68751,4.7651 -0.777873,0.49914 -1.607691,0.90075 -2.418456,1.33842 0.165478,1.44344 -0.672182,3.24303 -2.956409,4.73096 -1.354556,0.88234 -2.690448,1.79306 -4.075203,2.6288 -2.075008,1.20078 -4.233777,2.27962 -6.540687,2.96259 -2.077586,0.62971 -4.169056,1.29987 -6.359301,1.36374 -1.872114,0.0897 -3.746989,0.0368 -5.620845,0.0501 h -5.1108 -5.524728 c -7.160125,0 -7.160125,-7.23315 0,-7.23315 h 1.347722 c 0.29438,-0.0541 0.5212,-0.1588 0.84801,-0.18656 1.106628,-0.094 2.200932,-0.28334 3.292822,-0.48421 0.456121,-0.98163 1.356053,-1.98213 2.807581,-2.83962 1.078018,-0.63685 2.158119,-1.26923 3.212209,-1.94561 1.962647,-1.29302 3.840588,-2.72135 5.893696,-3.86902 1.367169,-0.76424 2.559646,-1.07097 3.526915,-1.04128 2.216811,0.068 3.246223,1.90266 2.479953,4.04059 1.105688,-0.48686 2.206929,-0.98346 3.283003,-1.53739 2.619811,-1.23728 5.288743,-2.38548 7.764385,-3.9026 0.246153,-0.17184 0.487463,-0.34958 0.730705,-0.52503 -0.126915,-0.50614 -0.277693,-0.9939 -0.512114,-1.46554 -0.647621,-1.25778 -1.721077,-2.20654 -2.600875,-3.29644 -1.199229,-1.33472 -2.369312,-2.69496 -3.592029,-4.00803 -1.098706,-0.97599 -2.227236,-1.92181 -3.215306,-3.01428 -1.300821,-1.39063 -2.459913,-2.93896 -3.045293,-4.77801 -1.289469,-4.05101 0.646382,-6.61405 2.843754,-6.58667 z m -95.086705,4.28035 c -0.465643,0.10748 -0.930899,0.21773 -1.394745,0.33435 0.171958,0.64334 0.283575,1.36624 0.279569,2.2071 -0.01267,2.6582 0.205063,5.32647 0.670242,7.94732 0.280107,-0.17087 0.565767,-0.33222 0.845429,-0.50385 -0.01897,-0.36223 -0.02445,-0.73164 -0.05529,-1.08985 -0.118034,-2.96491 -0.160888,-5.93314 -0.3452,-8.89507 z m 18.5141159,1.1958 c 0.00497,0.0773 0.00619,0.15612 0.014975,0.23202 -0.1238779,0.22787 -0.2588048,0.44752 -0.3937741,0.66715 0.58900751,0.0447 1.13203305,0.21413 1.64331124,0.45888 -0.37615284,-0.49255 -0.78353709,-0.94642 -1.26452314,-1.35805 z m -6.5422357,14.57068 c -0.046649,0.0755 -0.09888,0.14702 -0.1436608,0.22376 -0.03147,0.054 0.1963367,0.0838 0.1860365,0.0222 -0.017595,-0.10481 -0.026035,-0.14905 -0.042376,-0.24597 z m 13.9236979,6.08439 c -0.2236258,0.5643 -0.5677508,1.09664 -1.1782213,1.50533 0.9079653,0.17659 1.7077452,0.44257 2.2830631,0.84852 0.1405493,-0.0459 0.272804,-0.11448 0.4128956,-0.16174 -0.7336976,-0.43656 -1.2984269,-1.18703 -1.5177374,-2.19211 z" /></clipPath><clipPath
       clipPathUnits="userSpaceOnUse"
       id="clipPath127"><path
         id="path128"
         style="fill:#ff0000;fill-opacity:1;fill-rule:nonzero;stroke:none;stroke-width:0.264583"
         d="M -112.24796,-126.55676 V 185.58027 H 148.5754 V -126.55676 Z M 46.874626,83.305366 c 1.808208,0 3.616317,1.790192 3.616317,5.370214 v 5.232238 c 0.0627,2.146078 -0.111291,4.285324 -0.245462,6.424932 -0.136289,2.02485 -0.190703,4.04985 -0.104904,6.07715 0.192061,1.91863 0.527714,3.82569 0.876432,5.72213 0.304242,2.00862 0.765826,3.9858 1.180806,5.97276 0.41642,1.86142 0.967934,3.68703 1.421104,5.53972 0.25287,0.86996 0.117097,0.46495 0.396356,1.22008 0.186108,0.50319 0.223428,0.93098 0.309544,1.38441 4.425355,2.23251 2.751262,7.58433 -3.415813,6.40477 -3.104732,-0.59371 -6.256094,-0.76586 -9.40821,-0.85576 -3.81635,0.009 -7.630525,0.17062 -11.44478,0.28216 -1.12776,0.0333 -2.255837,0.0512 -3.383772,0.0754 -0.908129,0.5548 -1.966518,0.57724 -2.88613,0.0641 -0.03584,5.3e-4 -0.07165,0.002 -0.107487,0.003 -0.03142,5.3e-4 -0.0525,-0.009 -0.08268,-0.009 -0.32049,0.14732 -0.641715,0.29301 -0.962215,0.44028 -0.262501,0.12062 -0.518089,0.22111 -0.770496,0.31265 -0.876996,0.71434 -1.945576,0.85817 -2.911967,0.46405 -2.943479,-0.21613 -4.295167,-2.77187 -2.550232,-5.0524 -2.22e-4,-0.028 -0.0078,-0.0483 -0.0078,-0.0765 v -6.3469 c -0.014,-2.72977 -0.02254,-5.45666 0.112657,-8.18348 0.135676,-2.32533 0.233519,-4.6523 0.299723,-6.98046 0.046,-1.80459 0.06926,-3.60958 0.08527,-5.41465 -0.0258,-1.02998 0.04009,-2.054459 0.138491,-3.078883 0.0044,-0.04602 0.02191,-0.07504 0.02687,-0.120406 C 15.992671,97.193438 15.83363,95.70984 16.656834,94.418959 10.68718,93.678613 10.992573,87.32947 17.739972,87.32947 h 3.885033 5.177462 5.913334 c 1.498505,0.05847 2.984222,-0.03228 4.475178,-0.161748 1.252041,-0.18606 2.49041,-0.398671 3.697968,-0.782897 1.001961,-0.32245 0.492366,-0.161472 1.527553,-0.482142 0.510384,-0.158096 0.938446,-0.174371 1.394749,-0.23771 0.672338,-1.56932 1.86623,-2.35903 3.063377,-2.35903 z" /></clipPath><clipPath
       clipPathUnits="userSpaceOnUse"
       id="clipPath139"><path
         id="path140"
         style="fill:#ff0000;fill-opacity:1;fill-rule:nonzero;stroke:none;stroke-width:0.264583"
         d="M 97.168006,-339.91235 V -44.578961 H 346.46958 V -339.91235 Z m 14.326254,94.53944 c 1.76488,0.006 3.77708,1.78446 4.35839,5.31699 0.32911,1.99994 0.60308,4.00817 0.88884,6.01462 1.02527,-1.2445 2.22305,-1.83589 3.28403,-1.8402 2.05627,-0.008 3.59454,2.17302 2.34611,6.00222 -0.0197,0.0606 -0.0413,0.12046 -0.0615,0.18087 0.31698,0.91799 0.41757,2.09982 0.17777,3.54139 -0.2164,1.30085 -0.62011,2.56457 -1.0263,3.8163 -1.34183,4.13496 -4.42238,4.92072 -6.12882,3.38016 -1.93867,0.62007 -4.30523,-0.86149 -4.65605,-4.82762 -0.16862,-1.90632 -0.33891,-3.81275 -0.57464,-5.71231 -0.45291,-3.52522 -1.07719,-7.02592 -1.48208,-10.55543 -0.40801,-3.55672 1.10935,-5.32303 2.87424,-5.31699 z" /></clipPath><clipPath
       clipPathUnits="userSpaceOnUse"
       id="clipPath170"><path
         id="path171"
         style="fill:#ff0000;fill-opacity:1;fill-rule:nonzero;stroke:none;stroke-width:0.264583"
         d="M 88.756261,-299.52331 V 17.880567 H 410.91541 V -299.52331 Z M 363.24287,-220.863 c 0.90345,-0.008 1.97628,0.23856 3.18532,0.82218 3.39402,1.63831 6.49674,3.81197 9.57823,5.96449 3.22509,2.31448 6.37511,4.73585 9.43663,7.26261 1.87296,1.50796 3.75989,2.99047 5.54284,4.6054 1.76167,1.54167 3.42262,3.17283 4.95419,4.94388 1.19316,1.48882 2.47049,2.9032 3.73311,4.33204 1.08043,1.20022 2.09423,2.45631 2.94299,3.83026 0.82616,1.73429 1.48968,3.55524 1.93786,5.42344 1.67031,6.96258 -5.76469,8.62686 -7.05745,1.5844 -0.21127,-1.15093 -0.75649,-2.20765 -1.10278,-3.32021 -0.52141,-1.02678 -1.43909,-1.82952 -2.14042,-2.72904 -1.28368,-1.45272 -2.58234,-2.89095 -3.79617,-4.40386 -1.32794,-1.55409 -2.79577,-2.95456 -4.33049,-4.3031 -1.69875,-1.54267 -3.51006,-2.94207 -5.29113,-4.38733 -2.90883,-2.40671 -5.90918,-4.70386 -8.97258,-6.91017 -2.63017,-1.83963 -5.2759,-3.68008 -8.12096,-5.17746 -5.14813,-2.7095 -4.41412,-7.50431 -0.49919,-7.53753 z m -17.79788,14.64304 c 0.81097,-0.004 1.74701,0.16947 2.79104,0.57154 4.59168,1.76834 8.99191,4.00303 13.38523,6.20892 0.37082,0.1876 0.72266,0.4088 1.09088,0.601 0.4155,-0.11565 0.91038,-0.17484 1.48572,-0.16691 0.65984,0.009 1.42523,0.10601 2.29753,0.30644 2.35556,0.54125 4.30075,1.95473 6.16344,3.42614 -1.07651,-2.72314 0.34142,-4.84679 2.57866,-4.84311 1.28683,0.002 2.83083,0.70484 4.29689,2.3952 2.44776,2.82227 4.79147,5.70892 6.96391,8.74934 1.67944,2.35043 1.72027,4.43615 0.89969,5.70663 1.5344,1.02281 3.07247,2.04019 4.58422,3.09645 1.80695,1.14136 3.31928,2.58833 4.72631,4.18269 0.96689,1.16625 2.0869,2.25988 2.79262,3.61942 0.19542,0.37651 0.34592,0.77482 0.51882,1.1622 0.40259,1.55462 0.27207,0.76263 0.38706,2.3766 0.0637,0.89436 -0.044,1.45412 -0.26977,1.7756 0.11753,0.20753 0.23421,0.41574 0.35608,0.62063 3.66003,6.15399 -2.6856,9.845 -6.25234,3.63648 -0.83209,-1.44832 -1.62388,-2.92102 -2.35437,-4.42351 -0.84839,-1.84687 -1.70402,-3.69055 -2.54093,-5.54229 -0.078,-0.17246 -0.14713,-0.34128 -0.2119,-0.5085 -0.415,-0.33988 -0.82071,-0.68775 -1.29707,-0.97255 -2.35545,-1.64933 -4.79565,-3.17384 -7.14841,-4.82761 -3.27895,-2.27743 -6.61384,-4.47194 -9.95804,-6.65231 -4.00886,-2.60003 -8.08797,-5.09434 -12.3548,-7.25434 -4.08429,-2.05175 -8.1752,-4.1242 -12.42663,-5.81101 -5.61546,-2.22804 -4.88331,-7.4129 -0.50384,-7.43314 z m -225.34594,21.50101 c 3.05551,-0.16929 4.03285,3.80875 0.35915,7.72563 -1.17612,1.25397 -2.32696,2.59265 -3.45922,3.90674 -1.44062,1.57315 -2.77631,3.23874 -4.13618,4.88135 -1.14319,1.4697 -2.29319,2.93265 -3.46335,4.38113 -0.8717,1.2084 -1.86054,2.32105 -2.81017,3.46594 -0.80685,0.95022 -1.53489,1.96075 -2.32234,2.92695 -0.80594,1.00684 -1.52017,2.08004 -2.22519,3.15847 -0.20511,0.28103 -0.29499,0.51935 -0.30179,0.78909 -0.18033,7.15787 -8.659963,5.5717 -7.093102,-1.4149 0.267098,-1.19094 0.644303,-2.32859 1.347721,-3.34243 0.846108,-1.28566 1.701136,-2.56663 2.670121,-3.76463 0.806525,-0.98525 1.5446,-2.0236 2.37453,-2.98999 0.93132,-1.109 1.88214,-2.2008 2.7342,-3.37448 1.18855,-1.47082 2.35327,-2.95822 3.51813,-4.44779 1.39067,-1.67946 2.758,-3.38112 4.2292,-4.99142 1.55862,-1.80675 3.07205,-3.68494 4.92528,-5.20227 1.38505,-1.13397 2.63451,-1.65096 3.65301,-1.70739 z m 30.4953,3.26389 c 4.11093,0.0973 5.25218,4.81763 -0.0434,7.22591 -1.93926,0.8819 -3.80509,1.88928 -5.66115,2.92437 0.381,1.39299 -0.23993,3.26566 -2.43035,4.98678 -2.3369,1.83618 -4.71607,3.61825 -7.08845,5.40845 -2.84267,2.19936 -5.66068,4.43162 -8.41086,6.74584 -2.22216,1.84972 -4.46469,3.67225 -6.66213,5.55109 -1.67979,1.46598 -3.37138,2.91821 -5.06067,4.37337 -1.40892,1.30469 -2.82191,2.592 -4.12274,4.00648 -1.07181,1.16531 -2.16701,1.83049 -3.17087,2.10529 -0.88357,6.53411 -7.65001,5.87099 -7.10344,-1.07177 0.0596,-0.75732 0.12015,-1.51435 0.21239,-2.26859 0.18237,-1.4495 0.31176,-2.90657 0.57051,-4.34444 0.56059,-2.2771 1.55106,-4.35314 3.32124,-5.95312 1.46716,-1.38711 2.94871,-2.75912 4.4943,-4.05919 1.45063,-1.21601 2.91967,-2.40825 4.4111,-3.57394 2.2284,-1.75259 4.48249,-3.46927 6.81044,-5.08961 3.1083,-2.16601 6.29001,-4.21936 9.5343,-6.17689 3.28252,-2.04598 6.49796,-4.19789 9.78648,-6.23476 2.38673,-1.38679 4.82146,-2.65715 7.33495,-3.79873 1.22236,-0.55516 2.32966,-0.77899 3.27836,-0.75654 z" /></clipPath></defs><g
     id="layer1"
     transform="translate(-6.1725403,359.88408)"><path
       style="fill:#000000"
       d="m 90.826323,-60.484665 c -3.0851,-0.393232 -8.21896,-1.744064 -11.14133,-2.931526 -5.00358,-2.03314 -9.30636,-5.78541 -11.85505,-10.338287 -2.54173,-4.540438 -5.40223,-13.511825 -5.40223,-16.942985 0,-1.457425 -0.17267,-1.779587 -1.95567,-3.648875 -2.52048,-2.642459 -3.43625,-4.672833 -3.27858,-7.269012 l 0.11897,-1.95907 -2.46945,-1.61928 c -3.06803,-2.0118 -8.23492,-6.93238 -10.23163,-9.7439 -2.53365,-3.56757 -4.49984,-7.91297 -5.90421,-13.04866 -0.88727,-3.24472 -1.24269,-12.6509 -0.63551,-16.81911 1.79177,-12.30035 8.08732,-25.66534 17.28088,-36.68612 1.56303,-1.87367 2.84186,-3.47988 2.84186,-3.56936 0,-0.0895 -1.54781,-1.17099 -3.43958,-2.40336 -13.98138,-9.10803 -21.42225,-18.08049 -26.18525,-31.5751 -1.84157,-5.21756 -2.51176,-9.20955 -2.72681,-16.24235 -0.24542,-8.02582 0.28709,-11.65437 2.76294,-18.82676 0.97116,-2.8134 1.79498,-5.39966 1.8307,-5.74725 0.0479,-0.46576 -0.53812,-0.88837 -2.22811,-1.60687 -5.2517,-2.23279 -11.05333,-6.90769 -14.50033,-11.68424 -1.75836,-2.43657 -4.7655796,-9.01564 -5.7297396,-12.53525 -1.57851,-5.76225 -1.8193,-7.99753 -1.80508,-16.75694 0.0136,-8.37728 0.46827,-14.02162 1.9583,-24.31069 1.31284,-9.06551 2.4267696,-11.98902 5.7744396,-15.15511 3.70385,-3.50295 7.60541,-4.7742 14.65519,-4.77511 7.25482,-9.4e-4 10.475,0.94326 22.13323,6.48973 l 6.08184,2.89348 5.55982,0.0935 c 3.87831,0.0652 6.2,0.27257 7.6765,0.6855 2.14284,0.59929 5.56473,2.12667 7.29658,3.25687 l 0.94658,0.61773 3.64442,-3.507 c 11.50109,-11.06739 24.194417,-18.47498 37.753857,-22.03245 13.05506,-3.42514 25.67599,-1.71596 40.31688,5.45987 8.1444,3.99175 14.91226,8.80355 23.09071,16.41698 1.98006,1.84326 3.70655,3.3503 3.83665,3.34896 0.13009,-0.001 1.58591,-0.67444 3.23514,-1.49579 4.40221,-2.19241 6.39353,-2.62937 12.58417,-2.76139 l 5.35222,-0.11415 6.995,-3.32865 c 7.88155,-3.75052 10.88485,-4.86195 15.46166,-5.72189 3.73427,-0.70163 9.6748,-0.52492 13.03057,0.38761 6.73022,1.83013 10.97474,6.31044 12.35061,13.03669 1.40019,6.84517 3.00517,23.82942 3.01269,31.88111 0.0181,19.41598 -7.58735,33.10811 -21.98089,39.57207 -2.00695,0.90129 -2.66113,1.35696 -2.50979,1.7482 1.92676,4.98118 3.71936,11.38372 4.23794,15.13644 2.12571,15.38287 -2.75722,32.2742 -12.75714,44.13022 -3.55006,4.20899 -7.94269,7.83435 -15.24078,12.57864 -4.55984,2.96423 -4.46409,2.46201 -1.20013,6.29497 7.58593,8.90835 14.68844,23.30719 16.87941,34.21944 0.97084,4.83527 0.90369,15.16634 -0.12495,19.22639 -0.92173,3.63807 -2.74425,8.03896 -4.72963,11.42075 -1.86888,3.18336 -8.00864,9.32816 -11.50036,11.5098 -2.51378,1.57062 -2.5387,1.6011 -2.34328,2.86591 0.3695,2.391577 -0.7173,4.999844 -3.18121,7.634774 -2.06076,2.203806 -2.22716,2.50334 -2.29962,4.139597 -0.17588,3.97129 -2.09263,10.96884 -4.14348,15.126777 -3.86743,7.840886 -10.35859,12.417199 -20.60308,14.525304 -1.49209,0.307041 -5.54413,0.631846 -9.33854,0.748562 -16.19537,0.498171 -23.05324,-2.332183 -28.05232,-11.57766 -1.56517,-2.894673 -1.6178,-2.947666 -2.91042,-2.930346 -0.72403,0.0097 -3.52396,0.04939 -6.22206,0.08819 l -4.90564,0.07055 -1.08106,2.310173 c -3.60779,7.709689 -8.20069,10.697152 -18.10973,11.779525 -4.00256,0.437204 -12.436567,0.421462 -15.977087,-0.02982 z m 13.229157,-4.98105 c 0.48507,-0.239675 1.29625,-1.252645 1.80263,-2.251046 1.18293,-2.332337 1.91645,-2.092894 1.55863,0.508782 l -0.24462,1.778598 2.99968,-0.655515 c 3.53893,-0.773354 5.40621,-1.660116 7.43646,-3.531539 1.31605,-1.213092 3.38055,-4.626806 3.38055,-5.589839 0,-0.371126 -0.68902,-0.48597 -6.70277,-1.117197 -8.94914,-0.939335 -19.888947,-3.272659 -29.501047,-6.2922 -5.25527,-1.650891 -6.36184,-2.099647 -12.42446,-5.038612 -2.39507,-1.161053 -4.42558,-2.040096 -4.51225,-1.953428 -0.0867,0.08667 0.10057,1.328523 0.41608,2.759679 1.5514,7.037223 3.30792,11.05839 6.22444,14.249534 4.19547,4.590511 13.38836,7.356889 24.98057,7.517298 2.329327,0.03223 4.031507,-0.110484 4.586107,-0.384515 z m 71.61388,-0.400196 c 3.44777,-0.624893 8.15658,-2.152847 10.85987,-3.523899 3.98384,-2.020513 7.34551,-6.734949 8.83243,-12.386675 1.18025,-4.486072 1.80124,-7.37544 1.62338,-7.553301 -0.0905,-0.09047 -0.91507,0.205252 -1.83245,0.657163 -13.21788,6.511301 -27.90163,10.486209 -46.26669,12.524449 -2.58975,0.287422 -4.78958,0.603532 -4.88852,0.702467 -0.0989,0.09893 0.0926,0.893334 0.42561,1.765333 0.62862,1.646015 3.05613,4.605376 4.79105,5.840754 1.00715,0.717154 5.81978,2.099052 7.34521,2.109106 0.80276,0.0053 0.81643,-0.04984 0.589,-2.375834 -0.12805,-1.309687 -0.31014,-2.659062 -0.40463,-2.998611 -0.0945,-0.339548 -0.0276,-0.617361 0.14866,-0.617361 0.17626,0 0.7707,1.118416 1.321,2.485367 0.55029,1.366952 1.38285,2.897904 1.85014,3.402115 l 0.84961,0.916748 5.87886,-0.202167 c 3.23338,-0.111192 7.22824,-0.446736 8.87747,-0.745654 z m -43.99978,-14.88601 c -0.0434,-0.369483 -0.18448,-1.734674 -0.31345,-3.033757 l -0.2345,-2.361971 -1.80321,-0.222763 c -0.99177,-0.122519 -2.51759,-0.170882 -3.39072,-0.107473 l -1.5875,0.115289 -0.10178,3.076674 c -0.11665,3.5262 -0.27948,3.3676 3.62956,3.535298 2.84943,0.122241 3.90109,-0.154756 3.8016,-1.001297 z m 8.25384,0.717668 c 0.72685,-0.146519 0.75733,-0.296142 0.5885,-2.888655 -0.0979,-1.503773 -0.23947,-2.93257 -0.31451,-3.175105 -0.15078,-0.487276 -5.67215,-0.635549 -6.3672,-0.170987 -0.57221,0.38246 -0.92514,6.344344 -0.38718,6.540336 0.4617,0.168205 5.25018,-0.0576 6.48039,-0.305589 z m -17.30301,-1.257163 c -0.12127,-0.606337 -0.22049,-2.092048 -0.22049,-3.30158 v -2.199149 l -3.58186,-0.407299 c -1.97002,-0.224014 -3.66758,-0.321576 -3.77235,-0.216803 -0.10478,0.104773 -0.25795,1.601251 -0.34039,3.325508 l -0.14988,3.135011 1.89377,0.20573 c 1.04157,0.113151 2.37002,0.261882 2.9521,0.330514 0.58209,0.06863 1.59412,0.148569 2.24896,0.177641 1.15277,0.05118 1.18362,0.0178 0.97014,-1.049573 z m 26.32604,0.526779 c 0.53721,-0.102977 0.97014,-0.418799 0.97014,-0.70772 0,-1.141148 -0.78766,-5.612857 -1.03473,-5.874333 -0.14475,-0.153196 -1.7174,-0.08492 -3.49478,0.15172 l -3.2316,0.430259 v 3.32458 3.32458 l 2.91041,-0.231561 c 1.60073,-0.127359 3.34698,-0.315245 3.88056,-0.417525 z m 6.50692,-0.84821 c 1.39599,-0.218464 2.70884,-0.602846 2.91742,-0.854181 0.37502,-0.451866 -0.0211,-5.987041 -0.4599,-6.425799 -0.17827,-0.178276 -6.54002,0.781966 -6.78168,1.023627 -0.0591,0.05915 -0.0155,1.649859 0.0969,3.534907 0.19385,3.249214 0.24307,3.419339 0.94677,3.273008 0.40826,-0.0849 1.88447,-0.333098 3.28046,-0.551562 z m -42.47817,-3.074055 c -0.10778,-1.891771 -0.21411,-3.464677 -0.23631,-3.495346 -0.14103,-0.194885 -6.40241,-1.108144 -6.55468,-0.956039 -0.34689,0.346527 -0.44437,6.188659 -0.10886,6.524174 0.35714,0.357135 4.61284,1.279406 6.15394,1.333645 l 0.94186,0.03315 z m -8.51058,-1.499305 c -0.12703,-3.546987 -0.29366,-4.021617 -1.34181,-3.822029 -0.45985,0.08757 -0.7187,0.543835 -0.86935,1.532389 -0.19778,1.297851 -0.30902,1.11876 -0.44034,-0.708971 -0.0279,-0.388056 0.0779,-0.800222 0.23518,-0.915926 0.2407,-0.177124 -6.541637,-2.801239 -7.214987,-2.791511 -0.60154,0.0087 -1.45821,6.571096 -0.97554,7.47298 0.36763,0.686921 2.9422,1.535839 6.828537,2.251594 4.08102,0.751607 3.918,0.881849 3.77831,-3.018526 z m -2.87858,-0.352778 c 0,-0.258704 0.10583,-0.364537 0.23518,-0.235185 0.12935,0.129352 0.12935,0.341018 0,0.47037 -0.12935,0.129352 -0.23518,0.02352 -0.23518,-0.235185 z m 60.55365,3.342384 c 0.15687,-0.408789 0.32121,-0.442983 0.68359,-0.142231 0.52894,0.438975 5.3148,-0.375067 7.44993,-1.26718 1.29678,-0.541832 1.31154,-0.620244 0.79529,-4.226028 -0.62027,-4.332286 -0.42552,-4.226338 -4.94009,-2.687496 -2.04647,0.697561 -2.93964,1.168158 -2.84561,1.499305 0.46518,1.638202 0.43174,4.187355 -0.0642,4.895441 -0.51274,0.732039 -0.55064,0.657635 -0.78642,-1.544123 -0.27998,-2.614372 -0.77029,-3.550841 -1.67696,-3.202918 -0.49268,0.189058 -0.60806,0.686384 -0.60806,2.620936 0,1.313183 -0.0992,2.883698 -0.22048,3.490035 -0.20969,1.048444 -0.16596,1.10243 0.89301,1.10243 0.67263,0 1.19527,-0.213082 1.32002,-0.538171 z m -70.207087,-3.920788 c -0.12339,-0.900206 -0.22434,-2.58929 -0.22434,-3.753521 v -2.116784 l -1.94249,0.200483 c -1.06837,0.110266 -2.41752,0.06425 -2.99811,-0.102264 -0.95069,-0.272656 -1.07821,-0.212709 -1.28298,0.603144 -0.12505,0.498239 -0.24434,1.777863 -0.26509,2.843607 l -0.0377,1.937718 1.41111,0.504165 c 1.50837,0.538914 4.73458,1.458579 5.25143,1.496972 0.17189,0.01277 0.21158,-0.713315 0.0882,-1.61352 z m 84.580667,0.90006 c 3.40779,-1.001179 3.50331,-1.121278 3.06359,-3.851693 -0.41874,-2.600151 -0.72271,-3.038826 -1.73155,-2.498912 -0.39711,0.212527 -0.79582,0.266921 -0.88603,0.120876 -0.0902,-0.146046 -0.97297,-0.210529 -1.96169,-0.143295 l -1.79767,0.122242 v 2.391299 c 0,1.315215 -0.0992,2.887393 -0.22049,3.49373 -0.27215,1.360779 0.0378,1.39286 3.53384,0.365753 z m 10.88595,-3.924455 c 1.5501,-0.708088 2.38125,-1.292672 2.38125,-1.67483 0,-0.578734 -1.3039,-3.541815 -1.55857,-3.541815 -0.072,0 -1.1399,0.307117 -2.37302,0.682482 -1.23311,0.375366 -2.85305,0.792857 -3.59987,0.927759 -1.28449,0.232026 -1.34643,0.302362 -1.14653,1.301893 0.11623,0.581139 0.21133,1.894645 0.21133,2.918904 v 1.862287 l 1.85208,-0.69446 c 1.01865,-0.381953 2.92365,-1.183952 4.23333,-1.78222 z M 83.594373,-90.911082 v -2.566568 l -3.43958,-0.993014 c -1.89177,-0.546157 -3.56793,-1.00902 -3.7248,-1.028584 -0.32663,-0.04073 -1.289,2.480685 -1.29697,3.398071 -0.003,0.385362 0.67568,0.956501 1.83657,1.544771 2.44159,1.237246 6.02904,2.576091 6.3602,2.373642 0.14552,-0.08896 0.26458,-1.316705 0.26458,-2.728318 z m 61.561877,1.018159 c 8.79647,-1.020347 16.40667,-2.649856 21.26203,-4.552656 5.43102,-2.128399 9.1005,-5.903881 9.3493,-9.619371 0.0779,-1.1637 1.41239,-3.99348 1.88325,-3.99348 0.23636,0 -0.57686,1.49107 -1.20707,2.2132 -0.41862,0.47967 -0.44921,0.72255 -0.13106,1.04069 0.69486,0.69486 0.46891,2.19021 -0.64689,4.28117 -0.83703,1.56856 -0.94674,1.989941 -0.5181,1.989941 0.29909,0 0.62917,-0.222481 0.73352,-0.494403 0.10434,-0.271922 0.45655,-0.567548 0.78268,-0.656948 1.01137,-0.277244 2.95372,-4.00672 3.68151,-7.06884 0.94822,-3.98954 0.73431,-8.23399 -0.60803,-12.06453 -1.01984,-2.91026 -4.62317,-10.55901 -7.31253,-15.52222 -1.82904,-3.37551 -5.04665,-10.52857 -5.37603,-11.95145 -0.33537,-1.44874 -2.04398,-3.04219 -3.25858,-3.03894 -0.89478,0.002 -3.45537,0.34355 -6.76129,0.90085 l -1.17791,0.19856 0.15771,1.83021 c 0.0867,1.00662 0.24985,2.18406 0.36247,2.61654 0.11262,0.43249 0.0537,0.8797 -0.13095,0.99382 -0.19779,0.12224 -0.29758,2.77598 -0.2429,6.45913 0.084,5.65689 0.0285,6.35103 -0.58354,7.29646 -2.83469,4.37898 -8.38946,4.4057 -11.74423,0.0565 -0.95581,-1.23913 -1.10954,-2.69166 -1.28787,-12.16898 -0.0777,-4.13208 -0.2456,-7.61711 -0.37299,-7.7445 -0.20343,-0.20343 -18.94049,-0.195 -19.10121,0.009 -0.0344,0.0436 -0.15444,4.07301 -0.26667,8.95415 -0.22747,9.89346 -0.37037,10.59286 -2.52767,12.37108 -2.50416,2.06414 -5.32303,2.2868 -7.93448,0.62674 -3.00556,-1.91059 -3.17982,-2.6477 -3.08506,-13.04982 l 0.0771,-8.4633 -2.29306,-0.43264 c -1.26118,-0.23795 -3.34687,-0.47759 -4.63487,-0.53253 -3.036377,-0.12952 -3.489537,0.28304 -4.875307,4.43861 -0.59105,1.77243 -1.76451,4.57198 -2.60766,6.22122 -0.84316,1.64923 -3.11541,6.09423 -5.04944,9.87777 -4.43296,8.67219 -5.77975,12.59338 -5.78649,16.84741 -0.008,5.14887 1.64203,9.85273 4.29843,12.252626 1.51585,1.369474 2.09523,1.406075 1.45314,0.0918 -0.8131,-1.664316 -1.19031,-3.415806 -0.86199,-4.002476 0.38829,-0.69384 0.49909,-0.53286 1.27963,1.85925 1.43517,4.398345 7.71717,7.652033 19.945277,10.330424 2.78486,0.609986 6.90391,1.320891 9.15342,1.57979 5.80969,0.668643 20.27855,0.68011 25.96441,0.02058 z M 88.561113,-107.91144 c 0.0169,-0.41097 0.10052,-0.49456 0.21314,-0.21314 0.1019,0.25467 0.0894,0.55894 -0.0279,0.67616 -0.11723,0.11723 -0.20061,-0.0911 -0.18529,-0.46302 z m 0.14854,-1.5581 c 0.11991,-0.19403 0.28803,-0.35278 0.3736,-0.35278 0.0856,0 0.15557,0.15875 0.15557,0.35278 0,0.19403 -0.16812,0.35278 -0.3736,0.35278 -0.20548,0 -0.27549,-0.15875 -0.15557,-0.35278 z m 87.109947,-2.64627 c -0.0337,-3.8574 0.45854,-4.06498 1.06782,-0.45036 0.14831,0.87984 0.0391,1.66551 -0.33103,2.38125 -0.3038,0.58748 -0.58798,1.06796 -0.6315,1.06772 -0.0435,-2.5e-4 -0.0909,-1.34962 -0.10529,-2.99861 z m -18.37709,-31.45558 c 0.12936,-0.12935 0.34102,-0.12935 0.47037,0 0.12936,0.12935 0.0235,0.23519 -0.23518,0.23519 -0.2587,0 -0.36454,-0.10584 -0.23519,-0.23519 z m -83.373137,49.099976 v -2.246345 l -1.89502,-1.084223 c -1.04227,-0.596324 -2.06777,-1.084224 -2.2789,-1.084224 -0.51861,0 -1.20898,2.409092 -1.06088,3.702013 0.10105,0.882161 0.4653,1.222067 2.35677,2.19929 1.23048,0.635726 2.38142,1.066758 2.55764,0.95785 0.17621,-0.108909 0.32039,-1.208871 0.32039,-2.444361 z m 120.209017,1.367036 c 0.82462,-0.479975 1.49931,-1.075301 1.49931,-1.322948 0,-0.987292 -1.10892,-4.106103 -1.45996,-4.106103 -0.20585,0 -1.23491,0.515938 -2.28678,1.146528 -1.83722,1.101401 -1.90479,1.195126 -1.71665,2.38125 0.51186,3.227033 0.52417,3.251219 1.52916,3.004056 0.51459,-0.126555 1.6103,-0.622807 2.43492,-1.102783 z m 3.97845,-2.130332 c 2.55262,-1.702743 4.57641,-4.257246 4.57641,-5.77651 0,-1.37007 -1.19311,-0.64604 -1.73068,1.05024 -0.4645,1.465724 -0.51575,1.511489 -0.80798,0.721524 -0.62204,-1.681544 -0.92583,-1.788894 -2.51487,-0.888654 -1.37086,0.776627 -1.46564,0.927915 -1.36857,2.184684 0.0574,0.742651 0.16427,1.667775 0.23759,2.055831 0.0733,0.388055 0.14545,0.824618 0.1603,0.970138 0.0423,0.414683 0.50133,0.314098 1.4478,-0.317253 z m -130.605157,-2.305106 0.10869,-2.300202 -1.87258,-0.776722 c -1.02992,-0.42719 -2.23298,-0.9555 -2.67346,-1.17402 -1.78284,-0.88444 -1.78635,1.53846 -0.006,3.802427 0.95089,1.208863 3.46729,3.036273 3.95724,2.873751 0.20731,-0.06877 0.42584,-1.160123 0.48562,-2.425234 z m 20.88158,1.566745 c -0.48507,-0.317699 -2.13816,-1.827236 -3.67354,-3.354527 l -2.79159,-2.776892 -5.26892,0.17405 c -2.8979,0.0957 -5.34176,0.2469 -5.4308,0.33594 -0.40062,0.40062 4.01207,2.839798 7.99623,4.420019 2.32446,0.921947 6.26823,1.744151 8.46306,1.764399 l 1.5875,0.01465 z m 95.806227,-0.617949 c 3.08561,-1.035804 7.92543,-3.403401 8.58719,-4.20078 0.61885,-0.74565 0.32538,-0.82293 -4.02815,-1.06072 -1.94028,-0.10597 -3.92465,-0.246 -4.40972,-0.31117 -1.29709,-0.17426 -2.0766,0.32053 -4.23111,2.68566 -1.06593,1.170131 -2.65342,2.593498 -3.52778,3.163038 l -1.58972,1.035526 3.28162,-0.213331 c 2.063,-0.134112 4.26052,-0.541936 5.91767,-1.098223 z M 71.823223,-105.3244 c -0.3355,0.55843 0.76258,0.58768 2.13499,0.0569 0.54621,-0.21126 1.2924,-0.4444 1.6582,-0.5181 1.1064,-0.22292 1.0665,-0.41333 -0.44687,-2.13261 -1.95062,-2.21602 -2.51128,-4.25345 -2.51128,-9.12593 0,-5.64369 1.25322,-9.80409 4.43628,-14.72747 1.8659,-2.88605 6.25608,-7.54489 8.6219,-9.14949 0.95716,-0.6492 1.74439,-1.37238 1.74939,-1.60707 0.0145,-0.67836 -2.59214,-3.15037 -4.17148,-3.95609 -2.185,-1.1147 -5.04693,-1.75001 -9.00213,-1.99835 -3.38832,-0.21274 -5.51301,0.0708 -8.58998,1.14629 -0.57177,0.19986 -0.57907,0.16674 -0.0806,-0.36579 1.09451,-1.16937 6.61442,-2.76126 10.92832,-3.15162 0.47896,-0.0433 1.17954,-0.25853 1.55684,-0.4782 0.65714,-0.38259 0.63578,-0.46401 -0.50739,-1.93446 -0.65636,-0.84429 -2.35413,-2.53788 -3.77281,-3.76354 -1.41868,-1.22566 -2.57942,-2.37962 -2.57942,-2.56436 0,-1.03119 5.26893,1.56082 7.80167,3.83796 1.93303,1.73797 2.25672,1.37459 1.01423,-1.1386 -0.69471,-1.40519 -1.56994,-2.18895 -4.40618,-3.9457 -0.99158,-0.61419 -1.1489,-0.80315 -0.52916,-0.63559 0.48506,0.13114 1.56601,0.65474 2.4021,1.16355 3.55617,2.16414 3.94789,2.19021 3.94789,0.26276 0,-1.67848 -0.95766,-4.63283 -2.41524,-7.45095 -1.85187,-3.58043 -1.92427,-3.78655 -1.19228,-3.39398 0.90738,0.48662 3.178,2.76811 4.39254,4.41356 l 1.06973,1.44927 -0.20304,-2.46944 c -0.11168,-1.35819 -0.47495,-3.25405 -0.80727,-4.213 -0.74351,-2.14547 -3.15409,-4.60815 -4.81579,-4.91989 -1.02665,-0.1926 -4.19777,-1.69314 -9.4342,-4.46416 -0.87312,-0.46204 -2.29878,-1.02928 -3.16813,-1.26054 -1.3895,-0.36963 -1.69075,-0.34206 -2.49133,0.228 -3.4501,2.45669 -12.00993,14.68166 -15.16648,21.66045 -7.0518,15.59078 -6.68966,31.2516 0.98443,42.57123 2.10243,3.10119 5.83337,6.85635 8.7453,8.8021 2.72333,1.81971 7.02073,3.21419 10.21427,3.31446 3.96899,0.12461 4.12469,0.15039 3.83365,0.63482 -0.1544,0.25701 0.0123,0.22021 0.39968,-0.0882 0.38734,-0.30841 0.55408,-0.3452 0.39968,-0.0882 z m 123.680057,-0.34731 c 0.52817,-0.094 0.88533,-0.0495 0.79367,0.0988 -0.24755,0.40055 2.47329,0.0159 5.46558,-0.7726 10.71644,-2.82403 19.14792,-14.13449 20.90454,-28.04249 0.31656,-2.50634 0.31157,-4.20193 -0.0218,-7.42128 -1.25185,-12.08845 -5.39563,-21.69512 -14.8934,-34.52788 -2.32417,-3.14027 -5.66646,-6.51038 -6.45607,-6.50982 -0.82606,5.9e-4 -3.77318,1.2953 -4.71694,2.07221 -1.61529,1.32972 -8.40341,4.60577 -9.14275,4.41243 -0.42529,-0.11122 -1.28053,0.28607 -2.31318,1.07456 -1.75157,1.33742 -2.8045,3.46728 -3.48312,7.04563 -0.58052,3.06106 -0.1358,3.33226 1.5993,0.97528 1.37025,-1.86135 3.86345,-3.91202 4.26636,-3.50911 0.0865,0.0865 -0.55478,1.40689 -1.42512,2.93414 -1.97355,3.46312 -2.72394,5.68245 -2.58299,7.63937 0.13193,1.83168 0.44581,1.84422 3.38502,0.1352 2.51008,-1.4595 4.43722,-2.05672 2.14675,-0.66527 -3.27041,1.98675 -4.89309,3.9131 -4.89309,5.8088 0,0.74072 0.0898,0.70877 1.32292,-0.47057 1.68757,-1.61399 3.88211,-2.97048 5.9311,-3.66613 2.11396,-0.7177 2.67632,-0.48389 1.3761,0.57214 -2.63905,2.14343 -6.5431,6.34804 -6.44321,6.93925 0.10964,0.64885 0.54695,0.76158 5.60959,1.44605 1.28065,0.17315 3.46242,0.74812 4.84839,1.27773 2.70014,1.03178 3.86197,1.8739 1.37208,0.99451 -3.53297,-1.24779 -12.20331,-0.67325 -15.76061,1.04437 -1.58864,0.76707 -4.97423,3.75147 -4.94103,4.35552 0.01,0.18119 1.10515,1.18991 2.43376,2.24159 4.37078,3.45978 9.42431,9.95916 10.98459,14.12737 2.48952,6.65059 1.49496,15.39571 -2.14782,18.88571 l -1.08247,1.03707 1.33511,0.42804 c 1.25634,0.40278 4.38065,0.42165 6.52875,0.0394 z m -7.86397,-3.00782 c 1.74846,-1.33361 0.79793,-1.36463 -1.79857,-0.0587 -2.09534,1.05388 -2.74473,1.56407 -2.75764,2.16655 -0.009,0.40235 3.22879,-1.0954 4.55621,-2.10787 z m -106.013287,1.55711 c -0.17026,-0.44369 -4.97503,-3.05268 -5.62188,-3.05268 -0.70889,0 1.57756,1.93316 3.18051,2.68908 2.00556,0.94578 2.70474,1.0499 2.44137,0.3636 z m 105.508617,-5.49452 c 0.83925,-0.57684 1.76853,-1.67251 2.29306,-2.70361 0.76481,-1.50346 0.87869,-2.1788 0.85743,-5.0851 -0.029,-3.96022 -0.77082,-6.12002 -3.52603,-10.26541 -3.09886,-4.66243 -8.57525,-9.84292 -10.40514,-9.84292 -0.8059,0 -2.44848,1.70582 -2.44848,2.54275 0,0.62058 0.0504,0.63225 0.55436,0.12828 0.64187,-0.64187 1.66544,-0.71279 2.65371,-0.18389 0.84969,0.45474 0.55938,1.04063 -0.51564,1.04063 -0.43653,0 -1.06517,0.19851 -1.39697,0.44113 -0.55871,0.40854 -0.56106,0.50141 -0.0317,1.25711 0.50567,0.72194 0.63858,0.75731 1.15322,0.30697 1.68119,-1.47117 4.19424,-2.08378 4.92684,-1.20104 0.28379,0.34194 -0.1334,0.87118 -1.72069,2.18281 -1.15242,0.95228 -2.09531,1.96283 -2.09531,2.24565 0,0.64248 1.83488,3.58533 2.236,3.58619 0.56191,0.001 4.98946,-2.17282 5.26401,-2.58473 0.193,-0.28956 0.48447,-0.16398 0.97383,0.41958 0.38411,0.45806 0.69838,0.94045 0.69838,1.07199 0,0.13154 -0.91281,0.78002 -2.02847,1.44108 -3.42058,2.02677 -4.02409,2.50952 -3.68835,2.95033 0.17029,0.2236 0.75631,1.47811 1.30226,2.78779 0.54595,1.30969 1.0319,2.38125 1.0799,2.38125 0.048,0 1.01636,-0.45768 2.15193,-1.01708 2.21822,-1.09272 4.36085,-1.6912 4.35275,-1.21581 -0.003,0.16094 -1.39181,1.0142 -3.08681,1.89613 -2.68249,1.39574 -3.07251,1.71572 -3.00996,2.46944 0.52934,6.37895 0.52509,6.35893 1.30389,6.13419 0.40751,-0.11759 1.37592,-0.65026 2.15203,-1.18371 z m -1.33694,-1.79149 c -0.10148,-0.38805 -0.0406,-0.70555 0.13525,-0.70555 0.17586,0 0.31975,0.3175 0.31975,0.70555 0,0.38806 -0.0609,0.70556 -0.13525,0.70556 -0.0744,0 -0.21827,-0.3175 -0.31975,-0.70556 z m -0.0742,-1.76389 c 0.11992,-0.19403 0.28803,-0.35278 0.3736,-0.35278 0.0856,0 0.15557,0.15875 0.15557,0.35278 0,0.19403 -0.16812,0.35278 -0.3736,0.35278 -0.20548,0 -0.27549,-0.15875 -0.15557,-0.35278 z m 0.17639,-0.88194 c 0,-0.097 0.0794,-0.17639 0.17639,-0.17639 0.097,0 0.17639,0.0794 0.17639,0.17639 0,0.097 -0.0794,0.17639 -0.17639,0.17639 -0.097,0 -0.17639,-0.0794 -0.17639,-0.17639 z m -105.004467,2.91041 c 0.12476,-1.4067 0.32281,-2.90519 0.4401,-3.32999 0.18874,-0.68356 -0.15584,-0.95772 -2.99729,-2.38479 -1.84113,-0.92467 -3.21055,-1.83191 -3.21055,-2.12699 0,-0.60002 0.2307,-0.54177 3.81183,0.96248 3.02644,1.27126 3.07144,1.24995 4.41391,-2.09013 l 0.87558,-2.17845 -1.90483,-1.26473 c -1.04765,-0.69561 -1.90483,-1.41274 -1.90483,-1.59364 0,-0.18089 0.82982,0.21761 1.84404,0.88555 1.01422,0.66795 1.97995,1.21444 2.14606,1.21444 0.70856,0 -0.12124,-0.96461 -1.87708,-2.18208 -1.03849,-0.72006 -2.03094,-1.56434 -2.20545,-1.87617 -0.24905,-0.44503 -0.42499,-0.4776 -0.81799,-0.15144 -0.59782,0.49614 -0.6776,-0.0584 -0.0926,-0.64343 0.30898,-0.30898 0.6732,-0.18432 1.49931,0.51316 1.13236,0.95605 3.58338,2.20205 4.35821,2.21555 0.24464,0.004 0.87117,-0.8616 1.39229,-1.92414 l 0.94749,-1.93189 -0.86313,-0.92232 -0.86312,-0.92232 1.12375,0.64272 c 1.69873,0.97158 1.8874,0.22209 0.28736,-1.1415 -0.77611,-0.66141 -1.36749,-1.3728 -1.31418,-1.58085 0.0533,-0.20806 -0.0514,-0.28659 -0.23275,-0.17453 -0.39429,0.24369 -1.45168,-0.11564 -1.45168,-0.49332 0,-0.40606 1.90769,-0.10851 2.05047,0.31982 0.0687,0.20623 0.28569,0.37497 0.48211,0.37497 0.19641,0 0.80995,0.32245 1.36341,0.71655 0.99775,0.71046 1.00946,0.71066 1.37738,0.0232 0.6164,-1.15176 0.44004,-1.41777 -1.21643,-1.83488 -1.64928,-0.41529 -1.98492,-0.79354 -1.02948,-1.16017 0.89913,-0.34503 2.09003,-0.2472 2.54643,0.2092 0.31078,0.31078 0.52768,0.31898 0.81583,0.0308 0.28815,-0.28815 0.21781,-0.63505 -0.26458,-1.30482 -1.50113,-2.08419 -3.21038,-1.4467 -7.37813,2.75174 -3.51684,3.54276 -5.55516,6.51257 -7.14305,10.40734 -1.08872,2.67042 -1.22517,3.36296 -1.22517,6.21796 0,4.06104 0.583,5.41163 3.05445,7.07601 2.65358,1.78702 2.89323,1.68479 3.16228,-1.34893 z m -1.18163,-14.55208 c 0,-0.097 0.0794,-0.17639 0.17639,-0.17639 0.097,0 0.17638,0.0794 0.17638,0.17639 0,0.097 -0.0794,0.17639 -0.17638,0.17639 -0.097,0 -0.17639,-0.0794 -0.17639,-0.17639 z m 5.24666,-5.73264 c -0.43881,-0.55952 -0.42633,-0.572 0.1332,-0.13319 0.58764,0.46086 0.77451,0.75055 0.48416,0.75055 -0.0732,0 -0.35106,-0.27781 -0.61736,-0.61736 z m -1.37281,-0.97821 c -0.37281,-0.44921 -0.35099,-0.50083 0.13319,-0.31504 0.31849,0.12222 0.57907,0.36398 0.57907,0.53725 0,0.45365 -0.20422,0.38994 -0.71226,-0.22221 z m 99.837227,7.54765 c 1.64366,-0.94764 2.4055,-1.57659 2.18129,-1.8008 -0.44531,-0.44531 -5.35072,2.09562 -5.35072,2.77159 0,0.74008 0.43087,0.60811 3.16943,-0.97079 z m -65.93601,-2.86527 c 0.0208,-0.32987 0.0711,-0.33445 0.19972,-0.0182 0.26131,0.64278 1.7858,-0.17033 2.03076,-1.08315 0.11081,-0.41291 0.2026,-10.59324 0.20397,-22.62296 0.002,-20.74826 -0.0313,-21.92346 -0.65488,-22.86926 -1.8009,-2.73143 -6.18345,-2.60869 -7.03902,0.19715 -0.20303,0.66585 -0.44171,9.34718 -0.56513,20.55544 -0.1175,10.67153 -0.30686,20.51403 -0.42078,21.87222 -0.18331,2.1854 -0.11874,2.58104 0.56134,3.43958 0.70581,0.89102 0.9678,0.97014 3.21233,0.97014 1.70503,0 2.45226,-0.13331 2.47169,-0.44097 z m -0.45209,-1.22438 c 0.11023,-0.57662 -0.0866,-0.89123 -0.74531,-1.19136 -1.19187,-0.54305 -2.71101,-0.14574 -2.71101,0.70902 0,0.66481 -0.80719,1.22291 -1.20023,0.82987 -0.35184,-0.35184 -0.23578,-2.15293 0.15427,-2.39399 0.45861,-0.28344 4.37943,-0.27796 5.27843,0.007 1.41677,0.44967 1.31055,2.96186 -0.12145,2.87271 -0.63117,-0.0393 -0.77221,-0.21889 -0.6547,-0.83362 z m 36.32461,0.60702 c 0.35977,-0.67725 0.42113,-2.19203 0.26438,-6.52639 -0.11228,-3.10444 -0.27859,-12.99488 -0.3696,-21.97876 -0.17734,-17.50729 -0.19274,-17.65271 -2.00497,-18.92204 -0.43234,-0.30282 -1.40442,-0.55059 -2.16019,-0.55059 -1.13086,0 -1.62186,0.24775 -2.7736,1.39949 l -1.39949,1.39949 0.13732,22.14843 c 0.0755,12.18163 0.26138,22.41756 0.413,22.7465 0.41018,0.88986 1.84687,1.2517 4.78995,1.20638 2.43054,-0.0374 2.67099,-0.1089 3.1032,-0.92251 z m -6.90204,-0.0706 c -0.23284,-0.23283 -0.42091,-0.74877 -0.41793,-1.14652 0.0104,-1.39321 0.5311,-1.72073 2.6966,-1.69615 3.29428,0.0374 3.95913,0.3711 3.85149,1.93323 -0.0656,0.95152 -0.55628,1.8495 -0.55628,1.01798 0,-0.23782 -0.17575,-0.32377 -0.39057,-0.19101 -0.2604,0.16094 -0.31444,0.002 -0.16213,-0.47836 0.3406,-1.07314 -0.94372,-1.86551 -2.36366,-1.45828 -1.25353,0.35951 -1.7425,0.94241 -1.53097,1.82509 0.16939,0.70682 -0.49869,0.82189 -1.12655,0.19402 z m 32.37692,-2.40436 c 1.17991,-1.03578 1.47796,-1.48797 1.17829,-1.78764 -0.29967,-0.29968 -0.81074,-0.11934 -2.0204,0.71293 -0.89059,0.61274 -1.61926,1.17284 -1.61926,1.24467 0,0.38108 0.4593,1.24457 0.6551,1.23158 0.12477,-0.008 0.93759,-0.63896 1.80627,-1.40154 z m -85.052687,-8.23501 c 0.21881,-0.26365 0.69492,-1.34285 1.05802,-2.39822 1.60382,-4.66157 3.17648,-6.48374 5.329557,-6.1751 0.68116,0.0977 2.90064,0.42065 4.93219,0.71778 2.85859,0.4181 3.75936,0.44434 3.98407,0.11605 0.1597,-0.2333 0.2094,-1.77357 0.11045,-3.4228 -0.099,-1.64924 -0.18522,-5.65156 -0.19172,-8.89404 l -0.0118,-5.89543 -1.32292,-0.31732 c -3.31688,-0.79558 -10.467687,-2.61243 -13.725987,-3.48745 -4.20741,-1.1299 -4.85264,-0.97298 -6.07665,1.47787 -1.32246,2.64797 -3.22057,11.66265 -3.75253,17.82192 l -0.19805,2.29306 2.30738,1.68392 c 1.26907,0.92615 3.29963,2.86529 4.51238,4.30921 1.21275,1.44391 2.30462,2.63083 2.42638,2.63761 0.12176,0.007 0.40042,-0.2034 0.61923,-0.46706 z m 81.306707,-3.15615 c 1.77369,-1.80551 3.85253,-3.76175 4.61965,-4.34719 l 1.39477,-1.06445 -0.43794,-3.32572 c -0.58181,-4.41838 -2.05713,-11.5928 -2.96841,-14.43531 -0.76854,-2.39728 -2.21731,-4.24058 -3.3248,-4.23022 -0.35447,0.003 -1.75574,0.29712 -3.11394,0.65288 -1.35819,0.35577 -4.53319,1.16875 -7.05555,1.80662 -2.52236,0.63788 -5.40714,1.38362 -6.41063,1.6572 l -1.82451,0.49742 -0.0376,9.50798 c -0.0337,8.5307 0.0209,9.50798 0.53181,9.50798 0.31319,0 2.44984,-0.41684 4.74811,-0.92632 4.52078,-1.00216 5.99145,-0.94121 5.99145,0.24831 0,0.39581 0.1563,0.62305 0.34734,0.50498 0.41526,-0.25664 1.61914,1.62295 2.14443,3.34803 0.64028,2.10271 1.48026,3.88056 1.83345,3.88056 0.18563,0 1.78871,-1.47724 3.56239,-3.28275 z m -8.59317,-4.65475 c 0,-0.097 -0.0794,-0.17639 -0.17639,-0.17639 -0.097,0 -0.17639,0.0794 -0.17639,0.17639 0,0.097 0.0794,0.17639 0.17639,0.17639 0.097,0 0.17639,-0.0794 0.17639,-0.17639 z m -24.73321,-0.6816 c 0.26058,-0.16104 0.39155,-2.13683 0.39155,-5.90674 v -5.66475 l -0.79375,0.18017 c -0.43656,0.0991 -2.04946,0.51447 -3.58421,0.92307 -3.8144,1.01551 -7.63191,0.98267 -11.56516,-0.0995 -2.61153,-0.71851 -3.09102,-0.76614 -3.26071,-0.32393 -0.10942,0.28515 -0.19895,2.78232 -0.19895,5.54926 v 5.0308 l 2.38125,0.37981 c 2.51139,0.40057 15.96074,0.3454 16.62998,-0.0682 z m -6.66401,-13.44196 c 0.87313,-0.1322 2.77959,-0.69622 4.23659,-1.25338 l 2.64909,-1.013 0.11179,-3.32109 c 0.0633,-1.88125 -0.0357,-3.41221 -0.2283,-3.53127 -0.49081,-0.30334 -5.97052,4.01587 -7.7627,6.1187 -1.01952,1.19624 -1.67672,1.69774 -1.98878,1.51762 -0.25634,-0.14796 -1.21083,-1.18649 -2.12107,-2.30783 -0.91025,-1.12135 -2.79041,-2.83618 -4.17813,-3.81073 l -2.52313,-1.77193 -0.2499,0.93441 c -0.42402,1.5855 -0.10939,6.18696 0.44714,6.5393 1.64427,1.041 7.95496,2.53024 9.49074,2.23969 0.29104,-0.0551 1.24354,-0.20828 2.11666,-0.34049 z m 0.49835,-9.61425 c 1.37514,-1.12309 3.61776,-2.85957 4.98359,-3.85886 2.64822,-1.93752 3.92154,-3.15772 3.61505,-3.46421 -0.10367,-0.10368 -1.99447,-0.004 -4.20177,0.22244 -2.55205,0.26132 -6.74274,0.33233 -11.5098,0.19505 -4.48792,-0.12925 -7.49653,-0.0856 -7.49653,0.10888 0,0.39169 2.22933,2.21201 5.11528,4.17679 1.16417,0.79257 2.98979,2.15968 4.05694,3.03801 1.06716,0.87833 2.16454,1.60302 2.43863,1.61042 0.27408,0.007 1.62346,-0.90543 2.99861,-2.02852 z m -26.60193,-0.51566 c 0.002,-2.55107 0.52549,-4.7481 1.35196,-5.67701 0.54267,-0.60994 0.51047,-0.71047 -0.52353,-1.63435 -1.55416,-1.38864 -5.56973,-2.8404 -13.530397,-4.89166 -10.94295,-2.81973 -17.82217,-5.41359 -28.32414,-10.67983 -11.06258,-5.54736 -15.82309,-8.93293 -19.85176,-14.11816 -3.59133,-4.62235 -5.49956,-10.00998 -5.98071,-16.88579 -0.70236,-10.03702 3.17852,-26.52535 8.93873,-37.97721 6.82296,-13.56468 17.91755,-27.05292 30.51817,-37.10243 11.09025,-8.84492 24.320887,-15.06918 38.181357,-17.96213 4.21835,-0.88046 5.20571,-0.95304 13.03085,-0.95787 8.20981,-0.005 8.63008,0.0294 13.85348,1.1364 19.08489,4.04466 35.62084,14.01102 50.47478,30.42157 1.84404,2.0373 4.64388,5.45042 6.22187,7.58473 3.17907,4.29986 8.95048,13.72715 11.29998,18.4579 6.87282,13.83854 9.88941,31.5212 7.23263,42.39626 -0.40291,1.64923 -1.54304,4.66378 -2.53362,6.69899 -1.62215,3.3328 -2.1557,4.05118 -5.3713,7.23194 -4.21746,4.17176 -7.87959,6.55235 -17.45253,11.3451 -10.00234,5.00774 -17.93544,7.97493 -29.05717,10.86815 -5.14649,1.33882 -9.07631,2.65248 -11.38479,3.80571 -2.28613,1.14205 -2.37664,1.2752 -1.60427,2.35989 0.97772,1.37307 1.55411,4.02086 1.31493,6.04037 -0.14678,1.23935 -0.0837,1.74308 0.21777,1.7401 0.89404,-0.009 10.89401,-2.46958 15.77566,-3.88203 2.81039,-0.81316 5.65074,-1.63516 6.31189,-1.82666 2.22929,-0.64572 13.23575,-4.80755 16.5315,-6.25099 10.95278,-4.79699 23.71468,-13.48961 28.34198,-19.30481 1.73589,-2.18153 2.09432,-3.12191 1.29188,-3.38939 -0.58755,-0.19585 0.67055,-3.00474 1.45774,-3.25458 1.143,-0.36278 4.1461,-5.72105 5.83883,-10.4179 6.30861,-17.50469 2.76105,-34.72038 -12.00979,-58.28139 -8.25601,-13.16917 -14.33119,-20.84809 -23.82215,-30.11073 -10.95148,-10.68802 -22.76785,-17.97851 -38.43269,-23.71227 -8.96588,-3.28176 -15.35515,-4.65135 -22.95282,-4.9201 -4.71058,-0.16662 -6.16179,-0.081 -9.98364,0.5893 -11.79903,2.06929 -27.871837,8.22601 -37.794187,14.47715 -7.12509,4.48883 -15.63463,11.63908 -22.65405,19.03535 -6.18866,6.5209 -16.20073,20.42568 -21.97299,30.51611 -11.05943,19.33289 -13.97718,34.27193 -9.64991,49.40797 1.47025,5.14266 5.56708,13.22916 6.70223,13.22916 0.27952,0 0.85931,0.72266 1.28842,1.6059 0.62749,1.29157 0.68826,1.66274 0.31044,1.89624 -0.84737,0.5237 -0.0554,1.76858 3.25511,5.11653 9.74334,9.85359 26.86761,18.91988 47.15062,24.96347 3.63402,1.0828 16.683427,4.41657 17.550697,4.48371 0.30919,0.0239 0.44156,-0.62475 0.44294,-2.17071 z m 85.72302,-6.08542 c 0,-0.097 -0.0794,-0.17639 -0.17639,-0.17639 -0.097,0 -0.17639,0.0794 -0.17639,0.17639 0,0.097 0.0794,0.17639 0.17639,0.17639 0.097,0 0.17639,-0.0794 0.17639,-0.17639 z m 0.70556,-0.35278 c 0,-0.097 -0.0794,-0.17639 -0.17639,-0.17639 -0.097,0 -0.17639,0.0794 -0.17639,0.17639 0,0.097 0.0794,0.17639 0.17639,0.17639 0.097,0 0.17639,-0.0794 0.17639,-0.17639 z m -48.85972,-5.97362 c 6.11286,-0.84086 13.86475,-2.4738 19.32939,-4.07175 8.28922,-2.42391 19.58567,-6.88075 24.54461,-9.68371 1.2272,-0.69366 2.30411,-1.26119 2.39313,-1.26119 0.53873,0 4.85097,-3.29244 7.1033,-5.42344 4.20146,-3.97514 6.94875,-7.40799 8.54756,-10.68054 5.14463,-10.53038 5.10792,-18.63714 -0.12988,-28.67675 -4.42024,-8.47254 -3.90554,-6.36304 -4.13645,-16.9532 -0.16849,-7.72754 -0.31348,-9.65699 -0.83524,-11.11468 -1.70532,-4.76433 -3.33917,-6.92183 -11.09839,-14.65543 -6.07235,-6.05229 -7.24714,-7.11923 -11.86662,-10.77718 -13.2564,-10.4971 -30.37966,-17.07122 -46.02224,-17.66927 -12.90461,-0.49338 -28.28377,3.97673 -41.627777,12.09954 -7.05145,4.29238 -17.39768,12.92801 -22.39398,18.69144 -1.16009,1.33822 -2.69872,3.06812 -3.41917,3.84424 -3.07185,3.30916 -5.29991,7.29932 -5.9057,10.57636 -0.21116,1.14226 -0.38392,5.43198 -0.38392,9.53273 0,8.65616 -0.12616,9.26884 -2.95691,14.36069 -4.07539,7.33064 -5.3946,12.07112 -5.05045,18.14836 0.42649,7.53121 3.78716,14.57164 9.9066,20.75381 5.19673,5.25 8.18088,7.31573 15.67446,10.85044 14.04267,6.62391 30.551197,11.2245 45.749897,12.74958 3.4137,0.34254 18.555,-0.0867 22.57778,-0.64005 z m -22.04861,-30.00923 c -5.37797,-1.02087 -11.68941,-3.93301 -12.7274,-5.87251 -0.25868,-0.48336 -0.75129,-0.65436 -1.885,-0.65436 -3.23821,0 -6.94879,-2.96618 -6.40766,-5.12218 0.28884,-1.15085 0.88082,-1.10414 2.32284,0.1833 1.06565,0.95141 2.38436,1.46465 2.03944,0.79375 -2.16402,-4.20925 -2.49908,-5.28657 -2.66073,-8.55487 -0.14633,-2.95856 -0.0552,-3.68218 0.77731,-6.17361 1.33281,-3.98855 3.42636,-7.35357 6.41958,-10.31838 5.98165,-5.92486 11.92904,-8.06214 21.61311,-7.76697 5.8854,0.17939 9.00584,0.97769 13.08629,3.34786 2.9451,1.71069 7.91152,6.67711 9.62222,9.62222 3.69301,6.35783 4.07203,13.74131 0.96433,18.78541 -1.23035,1.99696 -0.87123,2.13934 1.04024,0.41244 1.67914,-1.517 2.61545,-1.48875 2.76856,0.0835 0.0865,0.88798 -0.14988,1.35787 -1.1921,2.37007 -1.26639,1.2299 -4.41822,2.6902 -5.80638,2.6902 -0.3798,0 -1.67666,0.79462 -2.88191,1.76583 -2.27862,1.83613 -4.26914,2.73746 -8.7483,3.96134 -3.48342,0.95181 -14.29683,1.21525 -18.34444,0.44692 z m 19.22639,-6.31648 c 6.30416,-1.87277 9.14111,-3.87445 11.14128,-7.86098 1.16485,-2.32168 1.20594,-2.5427 1.20594,-6.48711 v -4.08354 l -1.5521,-3.13227 c -1.24305,-2.50857 -2.15624,-3.74089 -4.58611,-6.18881 -3.29305,-3.31749 -6.09973,-4.95562 -10.61873,-6.19765 -3.16368,-0.86953 -10.23371,-0.87083 -13.40556,-0.002 -6.07028,1.66187 -11.257,5.38162 -14.2419,10.21386 -2.27046,3.67563 -2.79335,5.44602 -2.83359,9.59386 -0.0304,3.13028 0.0723,3.75507 0.91123,5.54499 1.7781,3.79366 5.27524,6.65129 9.99065,8.16368 3.96505,1.27171 7.22536,1.61759 14.11111,1.49701 6.03872,-0.10574 7.01733,-0.21082 9.87778,-1.06057 z m -24.8567,-11.66062 c -0.73601,-0.78345 -0.7985,-1.11454 -0.64919,-3.43958 0.19429,-3.02553 1.04691,-5.04852 2.429,-5.76322 1.45337,-0.75158 2.23303,-0.6367 3.46041,0.50985 1.0174,0.95039 1.09565,1.19438 1.09565,3.4164 0,2.80407 -0.9284,5.1047 -2.31486,5.73642 -1.50347,0.68503 -3.11901,0.50026 -4.02101,-0.45987 z m 22.95674,0.29099 c -1.77591,-1.2439 -2.8126,-5.94959 -1.76292,-8.00214 0.58483,-1.14358 1.77845,-1.98857 2.82155,-1.99744 2.23093,-0.019 3.83994,2.87586 3.83994,6.90856 0,1.96149 -0.10251,2.28524 -0.92952,2.93577 -1.11557,0.87751 -2.8415,0.94502 -3.96905,0.15525 z m 28.57024,-13.22559 c -4.5882,-0.85969 -7.02267,-5.38561 -6.6424,-12.34889 0.21022,-3.84956 1.00297,-6.09521 2.83255,-8.02393 4.20479,-4.43264 10.45449,-2.65074 12.9809,3.70109 0.677,1.7021 0.82718,2.73974 0.83636,5.77879 0.0102,3.38339 -0.0751,3.87219 -0.98534,5.64444 -1.21197,2.35975 -2.09581,3.34632 -3.94235,4.40057 -1.75202,1.00028 -3.08186,1.22227 -5.07972,0.84793 z m 2.38272,-14.57065 c 2.56234,-1.32504 2.00928,-4.8086 -0.84854,-5.34473 -3.34692,-0.62789 -5.30959,2.51464 -3.00799,4.81624 1.14677,1.14677 2.34371,1.3108 3.85653,0.52849 z m -83.817267,13.23495 c -1.82682,-1.18073 -2.30359,-1.7248 -3.31789,-3.78619 -1.12321,-2.28273 -1.18339,-2.59932 -1.16304,-6.11765 0.0254,-4.39163 0.82299,-6.89396 2.86874,-9.00041 5.62648,-5.7934 13.048317,-1.59118 13.768477,7.79568 0.55237,7.19987 -2.916717,12.48744 -8.192807,12.48744 -1.52892,0 -2.18119,-0.22692 -3.96348,-1.37887 z m 6.15217,-13.8575 c 0.56647,-0.53216 0.81071,-1.1605 0.81071,-2.08563 0,-2.34052 -2.52328,-3.50633 -4.91365,-2.27021 -2.92749,1.51386 -1.0852,5.84386 2.25086,5.29027 0.57276,-0.095 1.40619,-0.51553 1.85208,-0.93443 z m -2.1627,-19.53744 c -0.61511,-0.61511 -0.66654,-0.86574 -0.28438,-1.38591 0.42758,-0.58199 5.42623,-3.00826 5.76558,-2.79853 0.7464,0.4613 0.2132,1.76545 -1.31007,3.20432 -1.75392,1.65673 -3.16334,1.98791 -4.17113,0.98012 z m 75.480677,-0.14036 c -1.8397,-1.21267 -2.87681,-3.20147 -2.0833,-3.99499 0.36618,-0.36617 2.55644,0.71365 4.35955,2.1493 1.35647,1.08004 1.62849,1.46854 1.36184,1.94502 -0.45463,0.81239 -2.33274,0.76111 -3.63809,-0.0993 z m -134.470277,16.48153 c 0.2722,-0.43656 1.59308,-2.93687 2.93528,-5.55625 2.74394,-5.35494 8.00486,-13.51521 14.29955,-22.1802 4.48282,-6.17083 4.83832,-6.74757 4.15929,-6.74757 -0.37312,0 -4.63165,-2.06908 -8.99638,-4.37106 -1.97288,-1.0405 -5.42725,-0.94018 -9.31999,0.27068 -1.63349,0.5081 -3.04518,0.84863 -3.13708,0.75674 -0.65259,-0.6526 2.47909,-2.4386 6.28346,-3.58345 1.45521,-0.43792 2.56646,-0.82622 2.46944,-0.8629 -0.097,-0.0367 -2.71639,-0.16878 -5.82083,-0.29357 l -5.64444,-0.2269 1.76388,-0.8426 c 1.38976,-0.66389 2.52782,-0.87719 5.36554,-1.00566 l 3.60166,-0.16305 -0.53125,-1.27731 c -0.80015,-1.92384 -3.89907,-6.58404 -6.40462,-9.63137 -2.97069,-3.61305 -6.37396,-6.38322 -9.47526,-7.71259 -3.15373,-1.35185 -4.55619,-0.73879 -6.45356,2.82104 -1.23113,2.30983 -2.06195,2.59766 -1.29392,0.44826 1.64143,-4.59365 3.8178,-7.49555 6.03979,-8.05323 2.6815,-0.67301 7.51094,1.20083 11.36826,4.41092 2.89461,2.40891 6.21187,6.66226 9.4845,12.16086 4.52075,7.59569 9.51119,11.85803 14.58754,12.45924 l 1.67421,0.19829 2.2165,-2.34353 c 2.15224,-2.2756 10.01678,-8.94109 12.1538,-10.3008 0.58201,-0.37031 1.29638,-0.86321 1.5875,-1.09533 0.29112,-0.23213 0.91367,-0.72391 1.38345,-1.09284 l 0.85413,-0.6708 -1.29807,-2.32116 c -2.48945,-4.45157 -7.61219,-7.9234 -13.11481,-8.88831 -1.54969,-0.27174 -4.25153,-0.64822 -6.00409,-0.83661 -3.43052,-0.36877 -5.31475,-1.0439 -13.89164,-4.97747 -5.56812,-2.55368 -9.5163,-3.76637 -13.86685,-4.2592 -5.97453,-0.67681 -11.68035,0.73311 -14.09461,3.48281 -2.23969,2.55086 -2.8738,5.20488 -4.73292,19.80923 -1.22711,9.63961 -1.39311,21.14153 -0.37931,26.28194 2.58699,13.11711 8.04888,20.68302 18.5718,25.72599 1.44778,0.69383 2.75221,1.26151 2.89873,1.26151 0.14652,0 0.48912,-0.35719 0.76132,-0.79375 z m 201.033097,-0.48402 c 6.64828,-3.35008 11.49283,-7.96921 14.50895,-13.83382 1.85016,-3.5975 2.74009,-6.34717 3.61526,-11.17035 0.8741,-4.81724 0.89091,-17.09583 0.0326,-23.8125 -2.5373,-19.85548 -2.73129,-20.70731 -5.28692,-23.21547 -2.28173,-2.23934 -4.50388,-2.9676 -9.65162,-3.16306 -6.66356,-0.25303 -10.15053,0.53675 -17.93419,4.06197 -9.99072,4.5248 -10.49361,4.69602 -15.29252,5.20682 -5.85988,0.62374 -7.47571,1.01828 -10.34481,2.52595 -3.70914,1.9491 -8.40572,7.02991 -8.40572,9.09339 0,0.24208 1.70656,1.71388 3.79236,3.27067 4.94774,3.69285 11.35437,9.22882 12.81605,11.07435 1.14676,1.44791 1.17491,1.45974 3.01948,1.26936 4.45023,-0.4593 9.52602,-4.45563 13.15702,-10.35893 4.4906,-7.30083 6.39769,-9.96908 8.90925,-12.46505 5.03807,-5.0068 10.89629,-7.46022 13.97405,-5.85233 1.94905,1.01824 3.84637,3.70618 5.01629,7.10662 1.20314,3.49698 0.70221,3.47944 -1.26845,-0.0444 -1.9481,-3.48353 -3.49138,-3.96114 -7.02856,-2.17516 -4.86391,2.45587 -11.42273,9.70004 -14.76797,16.31112 l -0.89254,1.76389 3.99982,0.22398 c 3.21449,0.18 4.37095,0.39725 5.88998,1.10648 l 1.89016,0.88252 -4.93889,-0.015 c -2.71639,-0.008 -5.65326,0.1122 -6.52639,0.26765 l -1.5875,0.28264 2.99861,0.76651 c 3.18561,0.81431 4.87394,1.55403 5.63222,2.4677 0.67409,0.81223 0.16744,1.09269 -1.14317,0.63281 -0.62571,-0.21955 -2.385,-0.65177 -3.90952,-0.96049 -3.29991,-0.66823 -6.04601,-0.3187 -7.77501,0.98962 -0.60214,0.45564 -1.53136,0.936 -2.06493,1.06747 -0.55068,0.13569 -0.97014,0.48125 -0.97014,0.79923 0,0.33527 -0.19834,0.48409 -0.49397,0.37064 -0.27168,-0.10425 -1.52576,0.31533 -2.78684,0.9324 -1.68239,0.82321 -2.18489,1.22355 -1.88729,1.50354 0.22308,0.20988 0.80247,0.90573 1.28754,1.54633 0.48507,0.64061 1.17851,1.50076 1.54098,1.91146 0.36247,0.4107 1.06089,1.38172 1.55204,2.15784 0.49116,0.77611 0.9896,1.49048 1.10764,1.5875 0.32976,0.27099 6.39139,9.32808 8.49972,12.69999 2.08171,3.32936 4.19081,7.15163 6.38576,11.57277 1.43895,2.89841 1.46632,2.92716 2.56126,2.69056 0.60872,-0.13153 1.85519,-0.61628 2.76992,-1.07721 z m -23.35899,-34.17639 c 0,-0.097 0.0794,-0.17639 0.17639,-0.17639 0.097,0 0.17639,0.0794 0.17639,0.17639 0,0.097 -0.0794,0.17639 -0.17639,0.17639 -0.097,0 -0.17639,-0.0794 -0.17639,-0.17639 z m -124.541097,-24.3161 c 3.67341,-2.27228 9.10904,-5.02727 15.179997,-7.69382 16.45214,-7.22627 31.06662,-8.79104 46.54807,-4.98392 8.81591,2.16797 18.81811,6.45808 29.22178,12.5337 1.60668,0.93829 3.1148,1.70425 3.35139,1.70215 0.23658,-0.002 0.88018,-1.20443 1.43023,-2.67185 l 1.00009,-2.66802 -0.97742,-1.41042 c -1.30212,-1.87897 -7.58943,-7.85361 -10.79846,-10.26146 -7.83359,-5.87782 -19.28184,-11.42146 -27.89212,-13.50633 -12.08647,-2.92659 -22.15988,-1.64853 -35.88634,4.55307 -9.302787,4.20299 -17.480787,10.04377 -24.676857,17.62436 -2.50073,2.63436 -2.62193,2.86647 -2.00444,3.83882 0.27993,0.44082 0.79112,1.7143 1.13595,2.82996 0.34484,1.11566 0.77229,2.02847 0.94988,2.02847 0.17759,0 1.7158,-0.86162 3.41825,-1.91471 z"
       id="path172" /></g></svg>
