<?xml version="1.0" encoding="UTF-8" standalone="no"?>
<!-- Created with Inkscape (http://www.inkscape.org/) -->

<svg
   width="243.90408mm"
   height="223.01347mm"
   viewBox="0 0 243.9041 223.01345"
   version="1.1"
   id="svg1"
   xml:space="preserve"
   xmlns="http://www.w3.org/2000/svg"
   xmlns:svg="http://www.w3.org/2000/svg"><defs
     id="defs1"><clipPath
       clipPathUnits="userSpaceOnUse"
       id="clipPath6"><path
         id="path7"
         style="fill:#ff0000;fill-opacity:1;fill-rule:nonzero;stroke:none;stroke-width:0.264583"
         d="M -175.07778,-16.057127 V 287.55793 H 124.54631 V -16.057127 Z m 132.7459,202.572647 c 0.210643,0.005 0.427212,0.0169 0.650089,0.0367 2.23823,0.19855 4.475655,0.4031 6.717938,0.55346 1.973313,0.11308 0.986628,0.0436 2.958475,0.20825 3.181295,0.26563 4.740125,1.85116 4.950601,3.46956 4.949923,1.63749 3.796379,7.35609 -2.592089,6.81354 -3.228716,-0.27422 -1.569593,-0.1301 -4.979024,-0.43357 -4.228209,-0.39317 -8.460616,-0.76265 -12.666927,-1.35341 -6.647387,-0.93358 -5.930551,-7.21034 0.03204,-7.20421 0.04685,5e-5 0.0972,0.004 0.144695,0.005 0.687229,-1.21692 2.304132,-2.15435 4.784204,-2.09548 z" /></clipPath><clipPath
       clipPathUnits="userSpaceOnUse"
       id="clipPath76"><path
         id="path77"
         style="fill:#ff0000;fill-opacity:1;fill-rule:nonzero;stroke:none;stroke-width:0.264583"
         d="M -133.83107,-122.52355 V 173.82063 H 122.97289 V -122.52355 Z M 13.574404,98.948202 c 2.788179,0.0507 4.135003,2.063798 3.398242,4.077268 0.199805,0.45372 0.374906,0.96736 0.517797,1.54461 1.07913,4.35948 0.671079,8.891 0.311608,13.31495 -0.351859,3.06036 -0.147137,1.57974 -0.604097,4.44366 -0.359666,2.25418 -1.333846,3.66838 -2.455664,4.32532 0.105138,0.36595 0.224724,0.72888 0.324528,1.09554 0.6273,2.23652 0.575201,4.47401 0.39429,6.75514 -0.137303,1.73129 -0.688065,2.99533 -1.427303,3.82199 -0.112477,0.41601 -0.170275,0.80219 -0.311092,1.25212 -0.184975,0.59102 -0.413327,1.1061 -0.670242,1.55856 0.741137,-0.23134 1.446982,-0.38145 2.064991,-0.37517 4.085002,0.0415 5.222724,4.75435 -0.02223,7.27138 -4.46677,2.14368 -9.303523,3.34693 -14.11903492,4.40955 -4.40876268,0.85156 -8.89238128,1.33053 -13.38264308,1.19269 -5.804014,-0.17807 -6.736297,-5.00293 -3.065447,-6.67298 -2.072987,-0.65744 -4.042852,-1.62261 -4.128947,-3.14709 -0.02802,-0.49633 0.0026,-0.90355 0.0341,-1.30897 -1.976731,-0.003 -3.95339,2.4e-4 -5.930386,0.003 -0.814031,0 -1.53062,-0.0962 -2.159559,-0.26149 -0.376306,0.19492 -0.742394,0.40783 -1.120862,0.59893 -6.391272,3.22657 -9.625245,-3.24074 -3.234428,-6.46886 1.833438,-0.92611 3.62694,-1.92211 5.414142,-2.92954 -0.877003,-3.87058 -1.368747,-7.83436 -1.323951,-11.80858 0.01651,-1.46304 0.376836,-2.54918 0.864547,-3.41426 -1.247357,-1.79999 -0.223805,-4.63069 3.842661,-5.68855 3.11826,-0.81116 6.282901,-1.39515 9.473837,-1.82211 -1.259816,-0.12657 -2.516182,-0.30233 -3.764627,-0.50177 -1.477002,-0.21985 -2.935575,-0.54305 -4.407482,-0.7891 -1.14214,-0.22954 -0.588502,-0.12004 -1.660882,-0.3297 -3.350244,-0.65501 -4.783278,-2.61088 -4.608504,-4.32997 -0.200179,-1.7721 1.333365,-3.52972 4.663799,-3.59461 v -5.3e-4 c 0.20954,-0.004 0.426035,-0.002 0.649571,0.008 1.77111,0.0772 3.528708,0.28204 5.26428,0.64027 1.655035,0.33225 3.314115,0.6481 4.955251,1.04439 1.244759,0.34858 2.51628,0.54538 3.7997689,0.6723 0.025956,0.002 0.052073,0.002 0.078034,0.004 0.4990888,-0.0371 0.9984105,-0.0743 1.4965495,-0.11317 1.346872,-0.12588 2.6913231,-0.25136 4.0457464,-0.24236 1.1278499,-0.0444 2.2567291,-0.10772 3.37498791,-0.26872 0.75719517,-0.11591 1.51142439,-0.25483 2.25722659,-0.4284 0.3616431,-0.12394 0.7240561,-0.24538 1.083138,-0.37775 0.3360393,-0.12388 0.6107589,-0.12825 0.9250071,-0.20723 0.1281086,-0.045 0.2583895,-0.0825 0.3855085,-0.13074 1.9825018,-0.7681 3.9540551,-1.56464 5.9510551,-2.29443 1.050809,-0.383992 1.999634,-0.542639 2.826703,-0.527616 z M 0.70283723,110.39557 c -0.45566013,0.0949 -0.90775367,0.208 -1.36890919,0.2744 -1.16638124,0.15534 -2.34111274,0.24237 -3.51761424,0.26251 0.4031694,0.0896 0.8047355,0.18876 1.2025101,0.308 0.1014836,0.0304 0.1982549,0.075 0.2986907,0.10852 0.4205235,-0.21824 0.9206601,-0.35072 1.4898318,-0.37156 0.39885139,-0.0146 0.83259872,0.0278 1.29449508,0.13023 0.22468681,-0.12213 0.44967525,-0.24374 0.67437529,-0.36587 -0.0326284,-0.11319 -0.058211,-0.22834 -0.0733795,-0.34623 z m 10.24433577,1.02474 c -0.76023,0.21437 -1.5189569,0.4343 -2.2696301,0.68006 -0.031261,0.62207 -0.2256075,1.28373 -0.6464723,1.94355 0.6236891,0.43248 1.2549743,1.04482 1.8634525,1.86862 0.2674939,0.36214 0.4748849,0.75712 0.7188199,1.13223 0.154519,-1.86707 0.314174,-3.74736 0.33383,-5.62446 z m 64.566086,3.39773 c 1.50346,0.0187 3.129182,1.24994 3.928441,4.04678 0.257931,0.90255 0.823497,1.65871 1.488797,2.30735 0.856321,0.95375 1.845738,1.76777 2.801898,2.61638 1.458581,1.46408 2.789203,3.04608 4.169772,4.58215 1.315059,1.44746 2.571226,2.91698 3.543967,4.61884 0.0053,0.01 0.0082,0.0206 0.01344,0.0305 0.734605,-0.43313 1.446276,-0.65634 2.094962,-0.69195 3.016182,-0.16561 4.69137,3.55377 1.187525,7.32306 -1.69471,1.82311 -3.657862,3.33908 -5.68751,4.7651 -0.777873,0.49914 -1.607691,0.90075 -2.418456,1.33842 0.165478,1.44344 -0.672182,3.24303 -2.956409,4.73096 -1.354556,0.88234 -2.690448,1.79306 -4.075203,2.6288 -2.075008,1.20078 -4.233777,2.27962 -6.540687,2.96259 -2.077586,0.62971 -4.169056,1.29987 -6.359301,1.36374 -1.872114,0.0897 -3.746989,0.0368 -5.620845,0.0501 h -5.1108 -5.524728 c -7.160125,0 -7.160125,-7.23315 0,-7.23315 h 1.347722 c 0.29438,-0.0541 0.5212,-0.1588 0.84801,-0.18656 1.106628,-0.094 2.200932,-0.28334 3.292822,-0.48421 0.456121,-0.98163 1.356053,-1.98213 2.807581,-2.83962 1.078018,-0.63685 2.158119,-1.26923 3.212209,-1.94561 1.962647,-1.29302 3.840588,-2.72135 5.893696,-3.86902 1.367169,-0.76424 2.559646,-1.07097 3.526915,-1.04128 2.216811,0.068 3.246223,1.90266 2.479953,4.04059 1.105688,-0.48686 2.206929,-0.98346 3.283003,-1.53739 2.619811,-1.23728 5.288743,-2.38548 7.764385,-3.9026 0.246153,-0.17184 0.487463,-0.34958 0.730705,-0.52503 -0.126915,-0.50614 -0.277693,-0.9939 -0.512114,-1.46554 -0.647621,-1.25778 -1.721077,-2.20654 -2.600875,-3.29644 -1.199229,-1.33472 -2.369312,-2.69496 -3.592029,-4.00803 -1.098706,-0.97599 -2.227236,-1.92181 -3.215306,-3.01428 -1.300821,-1.39063 -2.459913,-2.93896 -3.045293,-4.77801 -1.289469,-4.05101 0.646382,-6.61405 2.843754,-6.58667 z m -95.086705,4.28035 c -0.465643,0.10748 -0.930899,0.21773 -1.394745,0.33435 0.171958,0.64334 0.283575,1.36624 0.279569,2.2071 -0.01267,2.6582 0.205063,5.32647 0.670242,7.94732 0.280107,-0.17087 0.565767,-0.33222 0.845429,-0.50385 -0.01897,-0.36223 -0.02445,-0.73164 -0.05529,-1.08985 -0.118034,-2.96491 -0.160888,-5.93314 -0.3452,-8.89507 z m 18.5141159,1.1958 c 0.00497,0.0773 0.00619,0.15612 0.014975,0.23202 -0.1238779,0.22787 -0.2588048,0.44752 -0.3937741,0.66715 0.58900751,0.0447 1.13203305,0.21413 1.64331124,0.45888 -0.37615284,-0.49255 -0.78353709,-0.94642 -1.26452314,-1.35805 z m -6.5422357,14.57068 c -0.046649,0.0755 -0.09888,0.14702 -0.1436608,0.22376 -0.03147,0.054 0.1963367,0.0838 0.1860365,0.0222 -0.017595,-0.10481 -0.026035,-0.14905 -0.042376,-0.24597 z m 13.9236979,6.08439 c -0.2236258,0.5643 -0.5677508,1.09664 -1.1782213,1.50533 0.9079653,0.17659 1.7077452,0.44257 2.2830631,0.84852 0.1405493,-0.0459 0.272804,-0.11448 0.4128956,-0.16174 -0.7336976,-0.43656 -1.2984269,-1.18703 -1.5177374,-2.19211 z" /></clipPath><clipPath
       clipPathUnits="userSpaceOnUse"
       id="clipPath127"><path
         id="path128"
         style="fill:#ff0000;fill-opacity:1;fill-rule:nonzero;stroke:none;stroke-width:0.264583"
         d="M -112.24796,-126.55676 V 185.58027 H 148.5754 V -126.55676 Z M 46.874626,83.305366 c 1.808208,0 3.616317,1.790192 3.616317,5.370214 v 5.232238 c 0.0627,2.146078 -0.111291,4.285324 -0.245462,6.424932 -0.136289,2.02485 -0.190703,4.04985 -0.104904,6.07715 0.192061,1.91863 0.527714,3.82569 0.876432,5.72213 0.304242,2.00862 0.765826,3.9858 1.180806,5.97276 0.41642,1.86142 0.967934,3.68703 1.421104,5.53972 0.25287,0.86996 0.117097,0.46495 0.396356,1.22008 0.186108,0.50319 0.223428,0.93098 0.309544,1.38441 4.425355,2.23251 2.751262,7.58433 -3.415813,6.40477 -3.104732,-0.59371 -6.256094,-0.76586 -9.40821,-0.85576 -3.81635,0.009 -7.630525,0.17062 -11.44478,0.28216 -1.12776,0.0333 -2.255837,0.0512 -3.383772,0.0754 -0.908129,0.5548 -1.966518,0.57724 -2.88613,0.0641 -0.03584,5.3e-4 -0.07165,0.002 -0.107487,0.003 -0.03142,5.3e-4 -0.0525,-0.009 -0.08268,-0.009 -0.32049,0.14732 -0.641715,0.29301 -0.962215,0.44028 -0.262501,0.12062 -0.518089,0.22111 -0.770496,0.31265 -0.876996,0.71434 -1.945576,0.85817 -2.911967,0.46405 -2.943479,-0.21613 -4.295167,-2.77187 -2.550232,-5.0524 -2.22e-4,-0.028 -0.0078,-0.0483 -0.0078,-0.0765 v -6.3469 c -0.014,-2.72977 -0.02254,-5.45666 0.112657,-8.18348 0.135676,-2.32533 0.233519,-4.6523 0.299723,-6.98046 0.046,-1.80459 0.06926,-3.60958 0.08527,-5.41465 -0.0258,-1.02998 0.04009,-2.054459 0.138491,-3.078883 0.0044,-0.04602 0.02191,-0.07504 0.02687,-0.120406 C 15.992671,97.193438 15.83363,95.70984 16.656834,94.418959 10.68718,93.678613 10.992573,87.32947 17.739972,87.32947 h 3.885033 5.177462 5.913334 c 1.498505,0.05847 2.984222,-0.03228 4.475178,-0.161748 1.252041,-0.18606 2.49041,-0.398671 3.697968,-0.782897 1.001961,-0.32245 0.492366,-0.161472 1.527553,-0.482142 0.510384,-0.158096 0.938446,-0.174371 1.394749,-0.23771 0.672338,-1.56932 1.86623,-2.35903 3.063377,-2.35903 z" /></clipPath></defs><g
     id="layer1"
     transform="translate(-96.026239,277.07566)"><path
       style="fill:#000000"
       d="m 182.07457,-54.208967 c -4.21905,-0.847857 -12.25798,-8.785761 -18.5285,-18.295661 -6.09173,-9.23873 -10.10293,-19.548 -12.91031,-33.181072 -0.77854,-3.78071 -1.80784,-8.1159 -2.28733,-9.63376 -1.21672,-3.8516 -1.69854,-8.61845 -1.24042,-12.27199 0.46193,-3.68398 1.85567,-8.3208 3.35669,-11.1673 l 1.16003,-2.19985 -2.1615,-1.90837 c -1.18883,-1.0496 -3.48593,-3.25092 -5.10467,-4.89182 -11.60441,-11.76322 -17.35281,-27.00058 -16.93574,-44.89177 l 0.12336,-5.29167 -2.67894,-0.24302 c -11.08609,-1.00568 -20.09288,-10.07259 -25.005329,-25.17223 -2.505952,-7.70268 -4.226972,-17.99498 -3.758756,-22.47867 0.579549,-5.54982 4.011245,-7.94186 15.295455,-10.66158 3.44838,-0.83113 9.28604,-2.23817 12.97257,-3.12676 3.68652,-0.88859 9.13577,-2.42474 12.10942,-3.41367 4.63224,-1.5405 5.92074,-1.82539 8.99583,-1.98901 5.88467,-0.3131 11.05284,1.19862 14.96129,4.37627 1.0159,0.82595 1.94091,1.50173 2.05556,1.50173 0.11466,0 2.12191,-1.27902 4.46056,-2.84227 15.32418,-10.24331 35.16973,-15.6718 54.96038,-15.0337 10.04849,0.32398 18.41065,1.82271 28.34843,5.08082 7.29811,2.39269 16.10501,6.67344 21.47008,10.43592 l 3.78101,2.65158 1.33427,-1.22338 c 1.95926,-1.79643 4.21179,-3.14168 6.80233,-4.06247 1.97887,-0.70337 2.96976,-0.81513 7.23194,-0.81568 l 4.93889,-6.4e-4 5.29166,1.83858 c 2.91042,1.01122 9.65729,2.87657 14.99306,4.14523 17.35329,4.12601 20.96339,5.61235 23.03422,9.48358 2.04735,3.82736 -0.0863,19.08569 -4.06887,29.09693 -5.04882,12.69171 -13.74915,21.03062 -23.17297,22.21036 l -1.93371,0.24208 -0.0456,7.76111 c -0.0495,8.4325 -0.40255,11.16927 -2.28272,17.69492 -1.86648,6.47815 -4.84949,12.47878 -8.93588,17.97544 -2.21355,2.97747 -8.10646,9.10783 -11.05903,11.50463 l -2.18256,1.77174 0.72738,1.80858 c 1.29033,3.20833 2.40069,7.72586 2.69894,10.9808 0.45678,4.98505 -0.0126,8.25357 -2.26148,15.74686 -0.12392,0.41289 0.37312,0.8858 1.74427,1.65963 1.57744,0.89026 2.08828,1.43112 2.87996,3.04926 0.84889,1.73507 0.94158,2.2578 0.78598,4.43249 -0.32602,4.556632 -3.02299,7.483592 -7.55276,8.196852 l -2.43524,0.38346 -1.57523,4.43239 c -1.89253,5.32518 -6.09194,13.82572 -8.98624,18.19017 -4.98932,7.52359 -12.63474,15.684846 -16.23947,17.335147 -3.51766,1.610438 -7.2523,1.059756 -13.03933,-1.922677 -4.38795,-2.2614 -7.65735,-5.46811 -8.28968,-8.13072 -0.25296,-1.06516 -0.35754,-2.66398 -0.23947,-3.66091 l 0.20962,-1.76988 -1.48801,0.22492 c -11.72117,1.77173 -19.79474,1.77575 -28.23398,0.0141 -1.32237,-0.27605 -2.43362,-0.50196 -2.46944,-0.50204 -0.0358,-7e-5 -0.0651,1.39196 -0.0651,3.09341 0,2.89827 -0.0735,3.20823 -1.16511,4.91066 -3.15396,4.918992 -13.20687,9.594515 -18.38983,8.552951 z m 4.02185,-4.750821 c 4.57577,-1.19184 9.71042,-4.48755 10.90126,-6.99706 0.63053,-1.32873 0.77343,-3.39789 0.23467,-3.39789 -0.18712,0 -1.89368,0.8456 -3.79236,1.87912 -1.89869,1.03351 -5.8334,3.03197 -8.74382,4.44102 -5.26195,2.54751 -5.28691,2.56519 -4.44556,3.14796 0.86288,0.59768 2.7393,1.392739 3.40131,1.441171 0.20176,0.01476 1.30179,-0.216683 2.4445,-0.514321 z m 68.21105,-0.52905 c 0.64482,-0.39313 1.12107,-0.85541 1.05833,-1.02728 -0.0816,-0.22365 -14.1287,-7.50565 -16.9075,-8.76485 -0.45117,-0.20445 -0.59923,1.38468 -0.24865,2.6688 0.67119,2.45851 4.51407,5.32106 9.63374,7.17617 2.40146,0.870161 4.9848,0.849046 6.46408,-0.0528 z m -68.99122,-9.0264 c 4.89771,-2.44869 9.33964,-4.76006 9.87097,-5.13639 0.95634,-0.67734 0.96044,-0.69732 0.40786,-1.98603 -1.30258,-3.03786 -1.51882,-3.88737 -1.08181,-4.25005 0.2968,-0.24632 1.04304,0.16524 2.53375,1.39738 2.36567,1.95534 5.33147,3.07318 10.88462,4.10251 5.0505,0.93615 16.17051,0.82242 21.03814,-0.21517 6.45554,-1.37608 7.37097,-1.73202 9.40721,-3.65782 1.18482,-1.12055 2.0575,-1.68528 2.40074,-1.55357 0.75481,0.28965 0.67235,0.8073 -0.51415,3.2277 l -1.03761,2.11666 0.78093,0.62531 c 0.42952,0.34391 4.8519,2.68026 9.82752,5.19189 l 9.04659,4.56658 1.5457,-1.66411 c 6.10076,-6.56812 11.92992,-16.54608 15.70793,-26.88772 1.17911,-3.22761 3.63514,-12.179922 3.63514,-13.250192 0,-0.36572 -0.52107,-0.16141 -1.75753,0.68912 -2.75901,1.89787 -4.5629,2.45287 -7.32534,2.25379 -3.03311,-0.21859 -5.51625,-1.44651 -8.31018,-4.10941 -3.04056,-2.89795 -3.94119,-4.80972 -3.94086,-8.36528 2.3e-4,-2.59164 0.12251,-3.0974 1.34868,-5.57838 2.22576,-4.50351 4.0922,-6.24441 5.8944,-5.49792 1.52394,0.63124 1.61438,1.53466 0.38788,3.87448 l -1.07321,2.04739 1.33052,0.8805 c 2.14468,1.41928 7.24111,6.41854 8.69434,8.52856 0.73744,1.07073 1.448,1.94678 1.57902,1.94678 0.70651,0 4.71282,-4.79644 5.63495,-6.74628 2.84927,-6.02478 2.78809,-13.76211 -0.16633,-21.03496 -0.33498,-0.82462 -0.68929,-1.49931 -0.78735,-1.49931 -0.0981,0 -1.31435,0.70807 -2.70287,1.5735 -7.20279,4.4893 -19.0273,8.95124 -29.38923,11.08993 -4.64542,0.9588 -5.44038,0.94398 -6.44003,-0.12009 -0.65213,-0.69417 -0.76538,-1.10008 -0.58106,-2.08261 0.26735,-1.4251 0.2687,-1.42576 4.9014,-2.38574 10.73136,-2.22376 21.36883,-6.28275 30.31779,-11.5685 12.05809,-7.12216 20.58651,-17.30763 24.93309,-29.77752 2.23017,-6.39814 2.65449,-9.39376 2.65782,-18.76369 0.003,-8.98357 -0.28687,-11.57139 -2.11892,-18.90388 -1.88849,-7.55839 -4.11933,-13.13802 -8.08999,-20.23413 -3.7167,-6.64224 -7.96904,-12.15691 -13.64148,-17.69101 -8.43684,-8.23106 -16.6027,-13.6421 -26.82336,-17.77427 -31.38746,-12.6898 -67.09899,-7.92855 -91.30159,12.17282 -4.18007,3.47174 -10.82009,10.07819 -13.63972,13.57075 -8.28339,10.26032 -14.2089,23.76808 -16.32663,37.21806 -1.4198,9.01737 -1.0043,19.28851 1.09172,26.98749 4.44389,16.32308 14.56856,27.9259 31.98786,36.65793 7.78787,3.90393 15.8574,6.72664 23.26435,8.13781 5.71694,1.08919 6.52979,1.59497 5.77093,3.59091 -0.79593,2.09346 -2.5718,2.24895 -9.11267,0.7979 -10.08866,-2.23812 -23.06778,-7.53282 -28.56855,-11.65426 -0.61765,-0.46277 -1.2671,-0.8414 -1.44324,-0.8414 -0.45947,0 -1.96188,2.91762 -3.08824,5.99722 -1.15367,3.15426 -1.58031,9.11133 -0.89052,12.43402 0.76944,3.70639 3.54842,8.13561 6.36096,10.13832 l 1.00335,0.71445 1.34329,-1.85381 c 2.40865,-3.32405 6.39825,-7.19257 9.93809,-9.63648 0.0584,-0.0404 -0.37812,-0.83715 -0.97014,-1.77067 -1.24665,-1.96577 -1.34971,-2.96636 -0.39453,-3.83077 1.51805,-1.37383 3.95841,0.34319 6.2969,4.43045 3.10632,5.42928 2.57694,10.42304 -1.54312,14.55649 -5.38381,5.40131 -11.73296,6.05913 -16.98035,1.75929 -0.85071,-0.69709 -1.6118,-1.20238 -1.69132,-1.12286 -0.25057,0.25057 1.84042,8.787912 2.98164,12.173782 2.7027,8.01863 6.69464,16.09181 10.78121,21.80362 2.28592,3.19504 6.73902,8.64306 7.06465,8.64306 0.0963,0 4.18228,-2.00348 9.07999,-4.45217 z m 33.42297,-24.29922 c 0,-0.097 0.0794,-0.17639 0.17639,-0.17639 0.097,0 0.17639,0.0794 0.17639,0.17639 0,0.097 -0.0794,0.17639 -0.17639,0.17639 -0.097,0 -0.17639,-0.0794 -0.17639,-0.17639 z m -5.47792,-52.049502 c -9.46642,-1.23793 -17.64328,-6.50141 -23.29462,-14.99485 -3.72208,-5.59394 -5.44879,-11.31805 -5.44443,-18.04841 0.005,-7.75464 2.64417,-14.43549 7.9785,-20.1972 l 1.83568,-1.98275 -1.21755,-1.92614 c -2.98549,-4.72299 -3.21352,-10.80776 -0.6073,-16.2053 1.21618,-2.51875 5.59562,-6.86996 8.41764,-8.36338 6.4214,-3.39823 15.82358,-4.7348 24.33639,-3.45955 13.16848,1.97268 21.32218,9.40477 21.33887,19.45035 0.006,3.61356 -0.99537,6.62269 -3.22813,9.70051 -0.35386,0.4878 -0.0858,0.94994 1.69666,2.92486 3.5001,3.87807 6.13838,8.91726 7.21556,13.78192 0.74286,3.35484 0.56704,10.37499 -0.34458,13.75833 -2.63716,9.78749 -10.00684,18.60524 -19.16464,22.93033 -5.42078,2.56015 -12.62997,3.53204 -19.51805,2.63128 z m 13.23904,-4.9641 c 6.26861,-1.44769 11.67707,-5.03834 13.65453,-9.06517 0.84581,-1.72238 0.98574,-2.4356 0.98574,-5.02424 0,-2.76662 -0.10803,-3.2355 -1.3022,-5.65173 -2.1072,-4.26363 -5.99678,-7.81889 -10.01826,-9.15715 -3.97873,-1.32404 -8.0167,-0.90845 -10.75338,1.10673 -0.4436,0.32665 -0.86026,0.20582 -2.08484,-0.60457 -1.92021,-1.27073 -5.56926,-1.57899 -8.52181,-0.71988 -7.96828,2.31853 -13.9316,11.26556 -12.14827,18.22658 0.97179,3.79325 3.86296,6.78762 8.85325,9.16926 5.75336,2.74583 14.01113,3.41162 21.33524,1.72017 z m 2.53878,-46.82314 c 5.8557,-1.56003 9.64541,-4.30911 11.6074,-8.42008 1.4853,-3.11215 1.69356,-5.64249 0.72405,-8.79704 -1.4621,-4.75732 -5.3874,-8.28657 -11.45386,-10.29817 -4.5457,-1.50733 -7.75838,-1.94055 -12.76499,-1.72134 -7.46644,0.32692 -13.28903,2.44855 -17.34704,6.32091 -3.17466,3.02943 -4.35116,5.49651 -4.34014,9.10108 0.0229,7.46797 5.30661,12.41904 15.27867,14.31667 3.88421,0.73914 14.7569,0.4408 18.29591,-0.50203 z m -20.01732,-11.50555 c -0.76767,-0.76767 -0.86591,-1.17053 -0.86591,-3.55097 0,-3.72 0.59092,-4.73991 2.75203,-4.74994 0.9975,-0.005 1.23785,0.17007 1.6757,1.21799 0.95051,2.27489 0.50163,6.46188 -0.79849,7.44804 -0.94141,0.71409 -1.7972,0.60101 -2.76333,-0.36512 z m 16.93712,0.53054 c -0.39479,-0.1602 -0.92888,-0.5456 -1.18687,-0.85646 -0.69029,-0.83174 -0.89159,-4.71747 -0.3312,-6.39289 0.42281,-1.26409 0.60561,-1.42227 1.75444,-1.51819 1.99386,-0.16648 2.77449,1.06345 2.77449,4.37139 0,2.42776 -0.48392,4.37874 -1.08611,4.37874 -0.14701,0 -0.47872,0.0695 -0.73712,0.15433 -0.2584,0.0849 -0.79284,0.0233 -1.18763,-0.13692 z m -68.13899,-6.72594 c -1.8393,-0.73322 -1.8296,-3.00141 0.0187,-4.36464 2.3578,-1.73904 7.57505,-3.03794 12.20243,-3.03794 1.5604,0 2.83709,-0.14 2.83709,-0.31111 0,-0.48909 -5.5779,-2.0992 -8.11388,-2.34214 -3.64647,-0.34932 -4.98402,-2.37455 -3.05183,-4.62085 0.69653,-0.80977 1.17691,-0.98864 3.0116,-1.12135 4.96177,-0.3589 11.0345,2.02955 15.43805,6.0719 4.18387,3.8407 5.61459,6.68769 4.06537,8.08971 -0.85409,0.77294 -1.23896,0.74401 -4.32016,-0.32474 -5.30628,-1.84055 -12.01602,-1.49593 -17.61248,0.90459 -3.01722,1.2942 -3.5583,1.42195 -4.47485,1.05657 z m 117.02189,-1.06619 c -1.83725,-0.7479 -4.456,-1.54798 -5.81944,-1.77795 -3.58431,-0.60457 -8.57453,-0.23696 -11.97833,0.88241 -3.03906,0.99943 -3.95967,0.93293 -4.43619,-0.32041 -0.61691,-1.62258 0.32366,-3.35709 3.58001,-6.60193 2.57308,-2.56397 3.62022,-3.32941 6.36354,-4.65161 7.03746,-3.39185 13.69059,-3.06867 13.69059,0.66505 0,1.77006 -1.15098,2.57032 -4.05993,2.82279 -2.40904,0.20909 -8.28865,1.8028 -8.28591,2.24595 7.6e-4,0.12261 1.31045,0.23854 2.91042,0.25762 5.52697,0.0659 12.13173,1.97198 13.68775,3.95014 0.84996,1.08054 0.87009,1.90031 0.0692,2.81802 -1.06161,1.21646 -2.15724,1.16092 -5.72171,-0.29008 z m 11.80384,113.90039 c 1.20698,-1.43442 1.21553,-3.52189 0.0193,-4.7181 -0.47625,-0.47625 -1.00063,-0.86591 -1.16528,-0.86591 -0.27425,0 -1.86819,5.97093 -1.85504,6.94901 0.01,0.717922 2.01637,-0.19483 3.001,-1.365 z m -119.25878,-6.28037 c 2.19155,-1.06401 4.10115,-2.80355 4.82349,-4.39396 0.67628,-1.48897 0.9021,-4.0819 0.3555,-4.0819 -0.85668,0 -5.43976,4.43389 -8.09744,7.83385 -1.08543,1.38859 0.61172,1.76194 2.91845,0.64201 z m 104.10221,0.32807 c 0.28116,-0.45493 -0.53453,-1.72725 -2.43682,-3.80101 -1.70734,-1.86123 -5.40066,-5.00292 -5.88136,-5.00292 -0.51791,0 -0.39507,1.994 0.21258,3.45091 0.79651,1.90968 2.51227,3.55033 4.92101,4.70558 2.29739,1.10185 2.83607,1.21136 3.18459,0.64744 z m 41.05619,-95.77768 c 7.49382,-1.76642 14.45916,-9.33543 18.49166,-20.0943 3.19812,-8.53269 5.05905,-21.22027 3.50159,-23.87334 -1.23397,-2.10201 -6.46794,-4.01358 -18.23046,-6.65821 -6.554,-1.47357 -13.49507,-3.41407 -16.60635,-4.64261 -2.36676,-0.93455 -6.45091,-1.69111 -9.12913,-1.69111 -3.8232,0 -8.54636,1.67779 -10.46128,3.71613 l -0.7529,0.80144 1.70499,1.53271 c 0.93774,0.843 2.89624,2.67356 4.35221,4.06792 l 2.64722,2.53519 2.42072,-0.67124 c 3.89458,-1.07993 6.95658,-1.19511 13.85502,-0.52115 5.21607,0.5096 7.16113,0.55273 11.31144,0.25079 2.7567,-0.20056 5.34275,-0.2782 5.74677,-0.17255 0.99324,0.25974 1.83956,1.97424 1.54799,3.13595 -0.36643,1.45995 -1.89052,1.85488 -8.12032,2.10416 -4.13666,0.16552 -6.82653,0.0767 -10.30559,-0.34018 -6.44896,-0.77282 -11.7155,-0.66257 -12.64274,0.26467 -0.10174,0.10174 0.68824,1.34593 1.75552,2.76487 6.91291,9.19072 12.87441,22.79962 14.88399,33.97712 0.31395,1.74625 0.63709,3.37343 0.71808,3.61597 0.18713,0.56037 0.54782,0.54923 3.31157,-0.10223 z m -183.78451,-2.01444 c 1.45249,-7.54525 3.5469,-14.18853 6.53414,-20.72569 2.47733,-5.42131 4.81088,-9.32147 8.39298,-14.02758 1.36806,-1.79733 2.39622,-3.35902 2.28481,-3.47044 -0.41252,-0.41252 -2.97091,-0.82984 -5.13736,-0.83801 -1.22819,-0.005 -4.16506,0.24784 -6.52639,0.56103 -3.18881,0.42295 -5.74544,0.51625 -9.93777,0.3627 -6.69002,-0.24505 -8.01019,-0.44236 -8.97528,-1.34149 -0.94168,-0.87731 -0.96508,-2.79281 -0.0443,-3.62611 0.62206,-0.56296 1.05249,-0.58321 4.9114,-0.23107 5.88371,0.53692 10.98793,0.48207 16.22145,-0.1743 4.92953,-0.61825 8.41578,-0.4744 11.41378,0.47094 1.03012,0.32482 1.98879,0.59687 2.13038,0.60454 0.1416,0.008 1.57122,-1.25604 3.17695,-2.80826 1.60573,-1.55223 3.54471,-3.36033 4.30884,-4.018 l 1.38934,-1.19578 -1.03851,-0.86499 c -1.73788,-1.44752 -5.30927,-2.96196 -7.94822,-3.37043 -3.51277,-0.54372 -7.53553,0.0567 -13.375,1.99638 -4.91267,1.6318 -10.37886,3.05606 -20.46111,5.3313 -8.70766,1.96504 -12.07001,3.12079 -13.76219,4.73052 -1.49339,1.42063 -1.52422,1.53955 -1.42711,5.50488 0.075,3.06128 0.49793,5.89787 1.65085,11.07129 2.98204,13.38116 8.75826,22.64177 16.53706,26.51275 2.38502,1.18686 4.37635,1.65553 7.27424,1.71203 l 1.98257,0.0387 z m 29.65346,-53.00486 c 0,-0.097 -0.0794,-0.17638 -0.17639,-0.17638 -0.097,0 -0.17639,0.0794 -0.17639,0.17638 0,0.097 0.0794,0.17639 0.17639,0.17639 0.097,0 0.17639,-0.0794 0.17639,-0.17639 z"
       id="path130" /></g></svg>
