<?xml version="1.0" encoding="UTF-8" standalone="no"?>
<!-- Created with Inkscape (http://www.inkscape.org/) -->

<svg
   width="261.26022mm"
   height="289.88342mm"
   viewBox="0 0 261.26023 289.88339"
   version="1.1"
   id="svg1"
   xml:space="preserve"
   xmlns="http://www.w3.org/2000/svg"
   xmlns:svg="http://www.w3.org/2000/svg"><defs
     id="defs1"><clipPath
       clipPathUnits="userSpaceOnUse"
       id="clipPath6"><path
         id="path7"
         style="fill:#ff0000;fill-opacity:1;fill-rule:nonzero;stroke:none;stroke-width:0.264583"
         d="M -175.07778,-16.057127 V 287.55793 H 124.54631 V -16.057127 Z m 132.7459,202.572647 c 0.210643,0.005 0.427212,0.0169 0.650089,0.0367 2.23823,0.19855 4.475655,0.4031 6.717938,0.55346 1.973313,0.11308 0.986628,0.0436 2.958475,0.20825 3.181295,0.26563 4.740125,1.85116 4.950601,3.46956 4.949923,1.63749 3.796379,7.35609 -2.592089,6.81354 -3.228716,-0.27422 -1.569593,-0.1301 -4.979024,-0.43357 -4.228209,-0.39317 -8.460616,-0.76265 -12.666927,-1.35341 -6.647387,-0.93358 -5.930551,-7.21034 0.03204,-7.20421 0.04685,5e-5 0.0972,0.004 0.144695,0.005 0.687229,-1.21692 2.304132,-2.15435 4.784204,-2.09548 z" /></clipPath><clipPath
       clipPathUnits="userSpaceOnUse"
       id="clipPath76"><path
         id="path77"
         style="fill:#ff0000;fill-opacity:1;fill-rule:nonzero;stroke:none;stroke-width:0.264583"
         d="M -133.83107,-122.52355 V 173.82063 H 122.97289 V -122.52355 Z M 13.574404,98.948202 c 2.788179,0.0507 4.135003,2.063798 3.398242,4.077268 0.199805,0.45372 0.374906,0.96736 0.517797,1.54461 1.07913,4.35948 0.671079,8.891 0.311608,13.31495 -0.351859,3.06036 -0.147137,1.57974 -0.604097,4.44366 -0.359666,2.25418 -1.333846,3.66838 -2.455664,4.32532 0.105138,0.36595 0.224724,0.72888 0.324528,1.09554 0.6273,2.23652 0.575201,4.47401 0.39429,6.75514 -0.137303,1.73129 -0.688065,2.99533 -1.427303,3.82199 -0.112477,0.41601 -0.170275,0.80219 -0.311092,1.25212 -0.184975,0.59102 -0.413327,1.1061 -0.670242,1.55856 0.741137,-0.23134 1.446982,-0.38145 2.064991,-0.37517 4.085002,0.0415 5.222724,4.75435 -0.02223,7.27138 -4.46677,2.14368 -9.303523,3.34693 -14.11903492,4.40955 -4.40876268,0.85156 -8.89238128,1.33053 -13.38264308,1.19269 -5.804014,-0.17807 -6.736297,-5.00293 -3.065447,-6.67298 -2.072987,-0.65744 -4.042852,-1.62261 -4.128947,-3.14709 -0.02802,-0.49633 0.0026,-0.90355 0.0341,-1.30897 -1.976731,-0.003 -3.95339,2.4e-4 -5.930386,0.003 -0.814031,0 -1.53062,-0.0962 -2.159559,-0.26149 -0.376306,0.19492 -0.742394,0.40783 -1.120862,0.59893 -6.391272,3.22657 -9.625245,-3.24074 -3.234428,-6.46886 1.833438,-0.92611 3.62694,-1.92211 5.414142,-2.92954 -0.877003,-3.87058 -1.368747,-7.83436 -1.323951,-11.80858 0.01651,-1.46304 0.376836,-2.54918 0.864547,-3.41426 -1.247357,-1.79999 -0.223805,-4.63069 3.842661,-5.68855 3.11826,-0.81116 6.282901,-1.39515 9.473837,-1.82211 -1.259816,-0.12657 -2.516182,-0.30233 -3.764627,-0.50177 -1.477002,-0.21985 -2.935575,-0.54305 -4.407482,-0.7891 -1.14214,-0.22954 -0.588502,-0.12004 -1.660882,-0.3297 -3.350244,-0.65501 -4.783278,-2.61088 -4.608504,-4.32997 -0.200179,-1.7721 1.333365,-3.52972 4.663799,-3.59461 v -5.3e-4 c 0.20954,-0.004 0.426035,-0.002 0.649571,0.008 1.77111,0.0772 3.528708,0.28204 5.26428,0.64027 1.655035,0.33225 3.314115,0.6481 4.955251,1.04439 1.244759,0.34858 2.51628,0.54538 3.7997689,0.6723 0.025956,0.002 0.052073,0.002 0.078034,0.004 0.4990888,-0.0371 0.9984105,-0.0743 1.4965495,-0.11317 1.346872,-0.12588 2.6913231,-0.25136 4.0457464,-0.24236 1.1278499,-0.0444 2.2567291,-0.10772 3.37498791,-0.26872 0.75719517,-0.11591 1.51142439,-0.25483 2.25722659,-0.4284 0.3616431,-0.12394 0.7240561,-0.24538 1.083138,-0.37775 0.3360393,-0.12388 0.6107589,-0.12825 0.9250071,-0.20723 0.1281086,-0.045 0.2583895,-0.0825 0.3855085,-0.13074 1.9825018,-0.7681 3.9540551,-1.56464 5.9510551,-2.29443 1.050809,-0.383992 1.999634,-0.542639 2.826703,-0.527616 z M 0.70283723,110.39557 c -0.45566013,0.0949 -0.90775367,0.208 -1.36890919,0.2744 -1.16638124,0.15534 -2.34111274,0.24237 -3.51761424,0.26251 0.4031694,0.0896 0.8047355,0.18876 1.2025101,0.308 0.1014836,0.0304 0.1982549,0.075 0.2986907,0.10852 0.4205235,-0.21824 0.9206601,-0.35072 1.4898318,-0.37156 0.39885139,-0.0146 0.83259872,0.0278 1.29449508,0.13023 0.22468681,-0.12213 0.44967525,-0.24374 0.67437529,-0.36587 -0.0326284,-0.11319 -0.058211,-0.22834 -0.0733795,-0.34623 z m 10.24433577,1.02474 c -0.76023,0.21437 -1.5189569,0.4343 -2.2696301,0.68006 -0.031261,0.62207 -0.2256075,1.28373 -0.6464723,1.94355 0.6236891,0.43248 1.2549743,1.04482 1.8634525,1.86862 0.2674939,0.36214 0.4748849,0.75712 0.7188199,1.13223 0.154519,-1.86707 0.314174,-3.74736 0.33383,-5.62446 z m 64.566086,3.39773 c 1.50346,0.0187 3.129182,1.24994 3.928441,4.04678 0.257931,0.90255 0.823497,1.65871 1.488797,2.30735 0.856321,0.95375 1.845738,1.76777 2.801898,2.61638 1.458581,1.46408 2.789203,3.04608 4.169772,4.58215 1.315059,1.44746 2.571226,2.91698 3.543967,4.61884 0.0053,0.01 0.0082,0.0206 0.01344,0.0305 0.734605,-0.43313 1.446276,-0.65634 2.094962,-0.69195 3.016182,-0.16561 4.69137,3.55377 1.187525,7.32306 -1.69471,1.82311 -3.657862,3.33908 -5.68751,4.7651 -0.777873,0.49914 -1.607691,0.90075 -2.418456,1.33842 0.165478,1.44344 -0.672182,3.24303 -2.956409,4.73096 -1.354556,0.88234 -2.690448,1.79306 -4.075203,2.6288 -2.075008,1.20078 -4.233777,2.27962 -6.540687,2.96259 -2.077586,0.62971 -4.169056,1.29987 -6.359301,1.36374 -1.872114,0.0897 -3.746989,0.0368 -5.620845,0.0501 h -5.1108 -5.524728 c -7.160125,0 -7.160125,-7.23315 0,-7.23315 h 1.347722 c 0.29438,-0.0541 0.5212,-0.1588 0.84801,-0.18656 1.106628,-0.094 2.200932,-0.28334 3.292822,-0.48421 0.456121,-0.98163 1.356053,-1.98213 2.807581,-2.83962 1.078018,-0.63685 2.158119,-1.26923 3.212209,-1.94561 1.962647,-1.29302 3.840588,-2.72135 5.893696,-3.86902 1.367169,-0.76424 2.559646,-1.07097 3.526915,-1.04128 2.216811,0.068 3.246223,1.90266 2.479953,4.04059 1.105688,-0.48686 2.206929,-0.98346 3.283003,-1.53739 2.619811,-1.23728 5.288743,-2.38548 7.764385,-3.9026 0.246153,-0.17184 0.487463,-0.34958 0.730705,-0.52503 -0.126915,-0.50614 -0.277693,-0.9939 -0.512114,-1.46554 -0.647621,-1.25778 -1.721077,-2.20654 -2.600875,-3.29644 -1.199229,-1.33472 -2.369312,-2.69496 -3.592029,-4.00803 -1.098706,-0.97599 -2.227236,-1.92181 -3.215306,-3.01428 -1.300821,-1.39063 -2.459913,-2.93896 -3.045293,-4.77801 -1.289469,-4.05101 0.646382,-6.61405 2.843754,-6.58667 z m -95.086705,4.28035 c -0.465643,0.10748 -0.930899,0.21773 -1.394745,0.33435 0.171958,0.64334 0.283575,1.36624 0.279569,2.2071 -0.01267,2.6582 0.205063,5.32647 0.670242,7.94732 0.280107,-0.17087 0.565767,-0.33222 0.845429,-0.50385 -0.01897,-0.36223 -0.02445,-0.73164 -0.05529,-1.08985 -0.118034,-2.96491 -0.160888,-5.93314 -0.3452,-8.89507 z m 18.5141159,1.1958 c 0.00497,0.0773 0.00619,0.15612 0.014975,0.23202 -0.1238779,0.22787 -0.2588048,0.44752 -0.3937741,0.66715 0.58900751,0.0447 1.13203305,0.21413 1.64331124,0.45888 -0.37615284,-0.49255 -0.78353709,-0.94642 -1.26452314,-1.35805 z m -6.5422357,14.57068 c -0.046649,0.0755 -0.09888,0.14702 -0.1436608,0.22376 -0.03147,0.054 0.1963367,0.0838 0.1860365,0.0222 -0.017595,-0.10481 -0.026035,-0.14905 -0.042376,-0.24597 z m 13.9236979,6.08439 c -0.2236258,0.5643 -0.5677508,1.09664 -1.1782213,1.50533 0.9079653,0.17659 1.7077452,0.44257 2.2830631,0.84852 0.1405493,-0.0459 0.272804,-0.11448 0.4128956,-0.16174 -0.7336976,-0.43656 -1.2984269,-1.18703 -1.5177374,-2.19211 z" /></clipPath><clipPath
       clipPathUnits="userSpaceOnUse"
       id="clipPath127"><path
         id="path128"
         style="fill:#ff0000;fill-opacity:1;fill-rule:nonzero;stroke:none;stroke-width:0.264583"
         d="M -112.24796,-126.55676 V 185.58027 H 148.5754 V -126.55676 Z M 46.874626,83.305366 c 1.808208,0 3.616317,1.790192 3.616317,5.370214 v 5.232238 c 0.0627,2.146078 -0.111291,4.285324 -0.245462,6.424932 -0.136289,2.02485 -0.190703,4.04985 -0.104904,6.07715 0.192061,1.91863 0.527714,3.82569 0.876432,5.72213 0.304242,2.00862 0.765826,3.9858 1.180806,5.97276 0.41642,1.86142 0.967934,3.68703 1.421104,5.53972 0.25287,0.86996 0.117097,0.46495 0.396356,1.22008 0.186108,0.50319 0.223428,0.93098 0.309544,1.38441 4.425355,2.23251 2.751262,7.58433 -3.415813,6.40477 -3.104732,-0.59371 -6.256094,-0.76586 -9.40821,-0.85576 -3.81635,0.009 -7.630525,0.17062 -11.44478,0.28216 -1.12776,0.0333 -2.255837,0.0512 -3.383772,0.0754 -0.908129,0.5548 -1.966518,0.57724 -2.88613,0.0641 -0.03584,5.3e-4 -0.07165,0.002 -0.107487,0.003 -0.03142,5.3e-4 -0.0525,-0.009 -0.08268,-0.009 -0.32049,0.14732 -0.641715,0.29301 -0.962215,0.44028 -0.262501,0.12062 -0.518089,0.22111 -0.770496,0.31265 -0.876996,0.71434 -1.945576,0.85817 -2.911967,0.46405 -2.943479,-0.21613 -4.295167,-2.77187 -2.550232,-5.0524 -2.22e-4,-0.028 -0.0078,-0.0483 -0.0078,-0.0765 v -6.3469 c -0.014,-2.72977 -0.02254,-5.45666 0.112657,-8.18348 0.135676,-2.32533 0.233519,-4.6523 0.299723,-6.98046 0.046,-1.80459 0.06926,-3.60958 0.08527,-5.41465 -0.0258,-1.02998 0.04009,-2.054459 0.138491,-3.078883 0.0044,-0.04602 0.02191,-0.07504 0.02687,-0.120406 C 15.992671,97.193438 15.83363,95.70984 16.656834,94.418959 10.68718,93.678613 10.992573,87.32947 17.739972,87.32947 h 3.885033 5.177462 5.913334 c 1.498505,0.05847 2.984222,-0.03228 4.475178,-0.161748 1.252041,-0.18606 2.49041,-0.398671 3.697968,-0.782897 1.001961,-0.32245 0.492366,-0.161472 1.527553,-0.482142 0.510384,-0.158096 0.938446,-0.174371 1.394749,-0.23771 0.672338,-1.56932 1.86623,-2.35903 3.063377,-2.35903 z" /></clipPath></defs><g
     id="layer1"
     transform="translate(15.888143,309.12612)"><path
       style="fill:#000000"
       d="m 62.972415,-19.563676 c -2.45741,-0.514846 -5.82105,-2.331602 -7.69175,-4.154437 -3.4703,-3.381526 -5.80734,-8.521491 -11.98028,-26.348847 -4.67594,-13.504044 -6.43352,-20.798642 -6.43352,-26.701391 0,-2.398806 0.27945,-2.311002 -3.25438,-1.022507 -5.35322,1.95187 -12.48677,-0.191043 -17.60212,-5.287661 -4.96832,-4.950118 -6.1498801,-10.827456 -3.44953,-17.158621 0.63356,-1.48541 0.63329,-1.48843 -0.27572,-3.11482 -1.61245,-2.88499 -0.8734,-5.46446 3.06201,-10.68714 l 2.14056,-2.84074 -0.22996,-2.24448 c -0.32527,-3.17484 0.37451,-4.33016 6.26512,-10.34357 5.47022,-5.58427 5.34447,-5.26048 2.93556,-7.55878 -1.88363,-1.79714 -5.77973,-6.766 -8.08468,-10.31073 -8.5304201,-13.11873 -12.4382201,-31.14488 -10.0661001,-46.43353 0.38649,-2.49101 0.37102,-2.61209 -0.49423,-3.86985 -1.18739,-1.72601 -1.5497,-2.7661 -1.83164,-5.25814 -0.25087,-2.21744 0.32947,-7.73152 1.07415,-10.2059 l 0.44819,-1.48922 -2.76227,-2.31222 c -10.48789,-8.77911 -17.2088299,-22.80053 -19.9653499,-41.65234 -0.95712,-6.54573 -0.86399,-21.92872 0.17299,-28.575 1.90248,-12.19346 3.13715,-14.46389 7.8655399,-14.46389 2.20889,0 2.60945,0.13981 7.23194003,2.52425 5.73540997,2.95851 7.97102997,3.67704 15.17386007,4.87687 8.23651,1.37202 13.57901,3.11913 18.37796,6.00998 l 1.99771,1.20341 2.78532,-2.81541 c 4.42015,-4.46791 8.22268,-6.65825 11.58888,-6.67545 3.95486,-0.0202 8.68535,2.41802 12.59939,6.49409 1.22369,1.27434 2.29869,2.31698 2.3889,2.31698 0.0902,0 1.03227,-0.55541 2.09346,-1.23426 6.85919,-4.38777 17.08499,-8.04644 29.61027,-10.59419 8.712775,-1.77227 13.178815,-3.70755 17.944805,-7.77611 1.36485,-1.16512 2.56909,-1.92403 2.94251,-1.85436 1.30437,0.24337 1.89688,2.29663 1.78971,6.20203 -0.0837,3.04888 -0.0148,3.6166 0.43845,3.61597 0.71595,-9.9e-4 5.70711,-2.86199 7.69563,-4.41123 0.87111,-0.67868 1.79225,-1.23396 2.04698,-1.23396 0.88079,0 1.63178,1.76168 1.80943,4.24452 0.15354,2.14586 0.26369,2.45826 0.86682,2.45826 1.35159,0 7.75202,1.44508 11.69798,2.64115 5.37408,1.62896 10.8813,4.02111 14.99542,6.51351 l 3.38892,2.05305 2.50323,-2.47533 c 4.33631,-4.28798 8.45208,-6.51535 12.70337,-6.87479 1.25478,-0.10609 2.72733,-10e-4 3.52778,0.2514 2.63685,0.83196 6.02971,3.15076 8.97092,6.13103 l 2.94118,2.98024 3.3622,-1.73282 c 5.57508,-2.8733 8.40198,-3.75873 17.84965,-5.59082 7.76255,-1.50532 8.78652,-1.83053 14.79065,-4.69757 6.02462,-2.87683 8.20484,-3.31426 10.43296,-2.09324 3.32763,1.82358 5.98917,12.89296 6.01039,24.99734 0.0284,16.17935 -1.47964,26.29231 -5.49231,36.83254 -3.5123,9.22588 -9.32902,17.27073 -16.48128,22.79449 -1.11566,0.86163 -2.02834,1.67639 -2.02818,1.81057 1.6e-4,0.13418 0.25947,1.43459 0.57624,2.8898 0.33361,1.53256 0.58541,4.35285 0.59844,6.70277 0.0198,3.56663 -0.0854,4.3181 -0.87019,6.2177 -0.86234,2.08731 -0.87693,2.24918 -0.42917,4.7625 0.73082,4.10221 0.97436,11.98957 0.50515,16.36008 -1.23092,11.46543 -5.16194,22.55012 -11.03344,31.11211 -2.384,3.47642 -8.38434,10.47149 -9.48997,11.0632 -0.36918,0.19758 -0.67124,0.52916 -0.67124,0.73685 0,0.20769 2.23033,2.6875 4.95628,5.51069 5.97329,6.18636 6.81178,7.46196 6.6068,10.05087 -0.14277,1.80322 -0.0891,1.92962 2.06721,4.86967 3.87798,5.28745 4.76783,8.21964 3.34274,11.01486 -0.66213,1.29872 -0.66127,1.31748 0.15262,3.33779 2.65773,6.597285 1.55283,12.485188 -3.23772,17.253499 -5.46888,5.443495 -14.15483,7.268529 -20.21201,4.24681 l -1.08425,-0.540896 v 4.127355 c 0,7.351334 -0.70683,11.079111 -4.10764,21.663352 -2.36674,7.365954 -6.9967,19.70985 -8.78869,23.431436 -2.06177,4.281884 -4.63463,7.083181 -8.04291,8.757019 -3.36733,1.653727 -5.81172,2.05148 -11.33992,1.845241 -5.47625,-0.204301 -9.11712,-1.215306 -12.4916,-3.468698 -4.62944,-3.091418 -6.7715,-7.267715 -8.11137,-15.814386 l -0.58477,-3.730121 -1.0478,0.04091 c -0.57629,0.0225 -5.17529,0.244243 -10.22002,0.492759 -9.15205,0.450854 -27.83314,0.281943 -34.924985,-0.315785 -1.74625,-0.147181 -3.22039,-0.237483 -3.27587,-0.200672 -0.0555,0.03681 -0.26366,1.556122 -0.46262,3.376246 -1.01252,9.262675 -2.92879,13.312454 -7.8171,16.520469 -3.49474,2.293464 -5.89598,2.897617 -12.08052,3.039465 -2.91042,0.06675 -6.00604,-0.0283 -6.87917,-0.211222 z m 14.13245,-6.964394 c 2.13757,-1.040239 3.38457,-2.402259 4.22539,-4.615122 l 0.69338,-1.824818 -2.05729,1.038517 c -5.54244,2.797813 -13.6302,3.163068 -20.34532,0.918824 -1.35819,-0.45392 -2.52487,-0.770809 -2.59262,-0.7042 -0.20995,0.206429 1.77762,3.647748 2.46726,4.271859 0.35908,0.324971 1.48669,0.888077 2.50579,1.251346 1.58373,0.564539 2.69852,0.644949 7.67374,0.553508 5.1639,-0.09491 6.0024,-0.195343 7.42967,-0.889914 z m 92.620345,-0.108413 c 1.15085,-0.588144 2.10857,-1.449244 2.87289,-2.583044 1.35883,-2.015719 1.4386,-2.502755 0.35278,-2.153804 -6.31292,2.028776 -11.16482,2.244581 -17.49497,0.77815 -2.20066,-0.509803 -4.72097,-1.329196 -5.60068,-1.820875 -0.87971,-0.491678 -1.64777,-0.89396 -1.7068,-0.89396 -0.059,0 0.0291,0.475611 0.19579,1.056913 0.74129,2.584711 3.56657,5.089277 6.83038,6.055022 1.75954,0.520638 3.16562,0.622385 7.49505,0.542361 4.88295,-0.09025 5.47375,-0.17238 7.05556,-0.980763 z m -94.405575,-5.858736 c 3.0955,-0.881161 7.23738,-3.216269 6.68664,-3.769787 -0.1059,-0.106426 -1.77277,0.30531 -3.70417,0.914969 -3.36735,1.062926 -3.76529,1.109099 -9.68524,1.123783 -5.66189,0.01404 -6.46132,-0.06431 -9.64464,-0.945335 -4.0862,-1.130908 -3.79055,-1.095574 -3.53213,-0.422132 0.48924,1.274917 5.03284,3.137181 9.00032,3.688911 2.91956,0.406004 8.42925,0.106996 10.87922,-0.590409 z m 92.956935,0.172554 c 2.1796,-0.467584 4.70766,-1.707553 5.64444,-2.768493 l 0.70556,-0.799069 -0.88194,0.257986 c -3.99549,1.16876 -5.79907,1.395157 -11.28889,1.417058 -5.03647,0.02009 -6.24458,-0.08877 -8.96544,-0.807839 -1.72953,-0.457084 -3.83297,-1.12613 -4.6743,-1.486769 -1.80826,-0.775109 -1.99555,-0.360394 -0.38318,0.848471 4.58391,3.43676 12.88004,4.832562 19.84375,3.338655 z M 74.790475,-38.42365 c 1.35819,-0.283399 3.89819,-1.230028 5.64444,-2.10362 5.56631,-2.784642 6.06735,-3.714307 2.00765,-3.725176 -3.26026,-0.0087 -14.00332,-1.544775 -18.05904,-2.582089 -1.84326,-0.471444 -3.58315,-0.915352 -3.86642,-0.986464 -0.42047,-0.105554 -0.49581,0.302753 -0.4103,2.223725 0.0969,2.177541 0.0388,2.396188 -0.7787,2.931871 -0.98628,0.646231 -2.31952,0.424498 -5.40811,-0.899424 -0.89692,-0.384467 -1.69698,-0.632825 -1.7779,-0.551907 -0.0809,0.08092 0.0886,0.711308 0.37673,1.400866 0.38301,0.916672 0.99067,1.490298 2.26021,2.133623 1.52421,0.772379 5.588,1.980542 8.19338,2.435894 2.14945,0.375666 9.51723,0.202788 11.81806,-0.277299 z m 96.837485,-0.706329 c 4.34064,-1.396987 6.16333,-2.40269 6.69921,-3.69642 0.24822,-0.599266 0.3808,-1.160091 0.29461,-1.246279 -0.0862,-0.08619 -0.98052,0.156318 -1.9874,0.538903 -1.00689,0.382585 -2.56844,0.86094 -3.47013,1.063012 -1.49416,0.334849 -1.71543,0.295997 -2.49723,-0.438468 -0.75371,-0.708074 -0.84503,-1.062854 -0.7525,-2.923467 0.0856,-1.72161 0.008,-2.093148 -0.41354,-1.986858 -0.28537,0.07191 -1.3126,0.350452 -2.28274,0.618993 -3.05949,0.846887 -8.9728,1.808393 -14.81667,2.409195 -3.10444,0.319165 -6.17585,0.661882 -6.82534,0.761593 -1.16411,0.178716 -1.17164,0.191529 -0.52953,0.901055 1.09373,1.208556 7.49832,4.101907 10.35348,4.677306 1.87775,0.378422 4.18201,0.497404 7.9375,0.409859 4.59152,-0.107033 5.68842,-0.251044 8.29028,-1.088424 z m 7.3274,-9.25364 c 1.27875,-0.940261 2.41168,-2.468794 2.07752,-2.802954 -0.11861,-0.118608 -0.41792,-0.06027 -0.66515,0.129632 -0.24722,0.189906 -1.51774,0.79056 -2.82338,1.334786 -2.055,0.856586 -2.46965,1.187327 -3.0868,2.462202 -0.39211,0.809984 -0.71292,1.582685 -0.71292,1.717112 0,0.300326 3.63105,-1.679244 5.21073,-2.840778 z m -123.454235,0.710398 c -0.31208,-0.65778 -1.32079,-1.430364 -3.05121,-2.336979 -1.42175,-0.744893 -2.68112,-1.258232 -2.7986,-1.140754 -0.44684,0.446848 1.30702,2.200465 3.64884,3.648327 2.51635,1.555767 3.00218,1.518112 2.20097,-0.170594 z m 75.024985,-0.496677 c 2.32655,-0.199031 4.28098,-0.412765 4.34318,-0.474966 0.0622,-0.0622 0.20196,-0.974135 0.31058,-2.026521 l 0.19748,-1.913428 -1.71844,-1.487275 c -1.6632,-1.439463 -1.78082,-1.481481 -3.65873,-1.307045 -5.19116,0.482202 -22.06922,0.623336 -27.51812,0.230106 -3.200655,-0.23098 -6.063975,-0.491854 -6.362935,-0.579718 -0.30577,-0.08986 -1.27038,0.498115 -2.20487,1.343974 -1.73428,1.569796 -1.94766,2.268595 -1.451,4.751889 l 0.21029,1.051439 5.16957,0.419871 c 2.843265,0.23093 6.757075,0.467421 8.697345,0.525537 5.60391,0.167851 19.36279,-0.138389 23.98565,-0.533863 z M 77.919505,-49.27321 c 0.117,-0.436562 0.21489,-2.182812 0.21754,-3.880555 0.003,-1.819473 0.14965,-3.086805 0.35759,-3.086805 0.19403,0 0.35278,-0.22497 0.35278,-0.499934 0,-0.314947 -0.6591,-0.641287 -1.78125,-0.881945 -3.39398,-0.727878 -3.19223,-0.997494 -3.07998,4.115906 l 0.0987,4.497917 1.23472,0.218143 c 2.14088,0.378238 2.3811,0.333636 2.59987,-0.482727 z m 75.246915,0.404758 2.23376,-0.388992 v -4.307315 -4.307314 l -2.73403,0.317437 c -1.50371,0.174591 -2.77447,0.357234 -2.82391,0.405875 -0.0494,0.04864 0.0769,0.947569 0.28067,1.997619 0.20381,1.050051 0.26934,2.813525 0.14563,3.918831 -0.2096,1.872693 -0.066,2.752851 0.44926,2.752851 0.11818,0 1.22006,-0.175046 2.44862,-0.388992 z m -85.578885,-4.461702 c 0.016,-1.697743 0.0989,-3.509308 0.18428,-4.0257 0.15144,-0.915784 0.078,-0.957032 -2.9831,-1.675695 -4.6986,-1.103101 -4.32419,-1.406311 -4.20874,3.40834 l 0.0994,4.145138 2.29305,0.593294 c 1.26118,0.326311 2.80899,0.604124 3.43959,0.617361 l 1.14652,0.02407 z m 76.850935,2.157286 c 0.86056,-1.094024 0.92905,-2.250619 0.21504,-3.63136 -1.28803,-2.49078 -5.12833,-1.54163 -5.12833,1.267494 0,2.893612 3.26207,4.463048 4.91329,2.363866 z m 23.39713,0.0022 2.38125,-0.540372 v -4.184237 c 0,-2.30133 -0.11906,-4.247242 -0.26459,-4.324249 -0.14552,-0.07701 -1.93145,0.270812 -3.96875,0.77293 l -3.70416,0.912943 -0.0488,2.522774 c -0.0268,1.387526 0.0354,3.269526 0.13825,4.182222 l 0.18705,1.659447 1.44924,-0.230543 c 0.79709,-0.126799 2.52081,-0.47371 3.8305,-0.770915 z m -80.535265,-0.55034 c 0.91382,-0.980863 0.93865,-2.80062 0.0492,-3.605556 -0.99929,-0.904343 -2.83768,-0.83933 -3.62102,0.128053 -1.3713,1.693478 -0.27557,4.249579 1.82167,4.249579 0.60616,0 1.32718,-0.318079 1.75014,-0.772076 z m 93.409345,-3.624126 c 1.40544,-0.525463 2.64346,-1.097962 2.75115,-1.272221 0.42238,-0.683416 1.89308,-7.908595 1.65228,-8.117214 -0.25036,-0.216903 -7.58658,2.043865 -8.45807,2.606482 -0.30608,0.197599 -0.44097,1.4026 -0.44097,3.939178 0,4.464319 0.12707,4.924642 1.17918,4.271585 0.4186,-0.259832 1.911,-0.902347 3.31643,-1.42781 z m -126.488975,-2.39477 c 0.0934,-2.541699 0.0123,-4.061868 -0.22555,-4.22772 -0.56696,-0.395388 -7.98124,-2.832061 -8.13859,-2.674713 -0.15616,0.156156 1.16593,6.725002 1.57943,7.847475 0.1861,0.505165 1.18244,1.076284 3.22849,1.850606 1.62763,0.615975 3.06082,1.131912 3.18488,1.146528 0.12406,0.01462 0.29116,-1.759363 0.37134,-3.942176 z m 69.734735,0.09877 c 2.78727,-0.179909 5.1591,-0.418449 5.27074,-0.530089 0.11164,-0.111641 0.2124,-2.21879 0.22391,-4.682554 0.0206,-4.406035 0.008,-4.479733 -0.76828,-4.489446 -0.43406,-0.0054 -0.79124,-0.128937 -0.79375,-0.274458 -0.0231,-1.347197 0.012,-1.39526 0.86329,-1.181592 1.28861,0.323421 1.64014,-0.652002 1.41023,-3.913124 -0.10681,-1.515024 -0.25901,-7.278963 -0.33823,-12.808754 -0.14696,-10.258812 -0.33881,-14.223982 -0.71789,-14.837339 -0.11717,-0.18958 -1.43222,0.742047 -2.92235,2.070277 -1.49012,1.32824 -3.20978,2.75962 -3.82146,3.18084 l -1.11214,0.76585 0.49478,1.64403 c 0.72648,2.4139 0.61261,4.615445 -0.3451,6.672174 -1.94867,4.184864 -7.09398,6.194258 -11.15456,4.356179 -4.33755,-1.963456 -6.36474,-6.719113 -4.77945,-11.212303 0.50259,-1.42448 0.49484,-1.46346 -0.41157,-2.07283 -0.50809,-0.34157 -2.21786,-1.85136 -3.7995,-3.35507 -1.581635,-1.50372 -2.971305,-2.734027 -3.088165,-2.734027 -0.64849,0 -1.11496,6.178107 -1.05112,13.921708 0.0359,4.358041 -0.12548,7.892362 -0.46308,10.140038 -0.64159,4.271634 -0.67468,7.549909 -0.0799,7.917487 0.24106,0.148983 1.0745,0.277414 1.85208,0.285403 1.28614,0.01321 1.42413,0.104769 1.52825,1.014007 0.107535,0.939032 0.0435,0.992373 -1.05833,0.881944 l -1.17279,-0.117536 -0.0999,4.203989 c -0.0594,2.49891 0.0446,4.348455 0.25629,4.560178 0.80745,0.807449 17.046495,1.177972 26.078025,0.595018 z m 9.51757,-26.11706 c -0.10759,-20.887896 -0.22845,-24.545276 -0.79172,-23.958556 -0.67702,0.70521 -1.40494,46.873818 -0.7556,47.924466 0.16631,0.269105 0.44145,0.267561 0.95137,-0.0053 0.71222,-0.381173 0.71651,-0.553445 0.59595,-23.960571 z m 6.86949,23.054008 1.34649,-0.22249 -0.10179,-1.625711 c -0.096,-1.533359 -0.0477,-1.632009 0.85061,-1.736588 1.02462,-0.119285 2.37904,-1.551685 2.37904,-2.51601 0,-0.325304 -0.33968,-0.956066 -0.75485,-1.401695 -0.60023,-0.644273 -1.00209,-0.770113 -1.96191,-0.614356 -1.14268,0.185432 -1.2012,0.145137 -1.09723,-0.755591 0.11047,-0.957097 0.82456,-1.323282 3.8552,-1.976941 0.73498,-0.158523 0.96571,-0.461317 1.1319,-1.485424 0.23616,-1.455294 -0.10545,-6.837715 -0.43398,-6.837715 -0.11804,0 -0.7692,0.167355 -1.44701,0.3719 -0.67782,0.204545 -1.75184,0.420836 -2.38671,0.480648 -1.11438,0.104986 -1.15148,0.06677 -1.07259,-1.104611 0.0955,-1.417616 0.65181,-1.803518 2.93284,-2.034328 0.89333,-0.09039 1.77463,-0.257303 1.95845,-0.370911 0.3583,-0.22144 0.48026,-15.601654 0.13093,-16.511974 -0.17822,-0.46445 -0.42832,-0.45264 -2.02847,0.0958 -1.72836,0.59235 -1.90019,0.59354 -3.23924,0.0224 -0.77773,-0.33171 -1.6306,-0.86404 -1.89528,-1.182947 -0.26467,-0.31891 -0.62053,-0.57984 -0.7908,-0.57984 -0.17397,0 -0.30958,8.808427 -0.30958,20.108327 v 20.108332 l 0.79375,-0.0039 c 0.43656,-0.0021 1.39967,-0.104003 2.14023,-0.226372 z m 0.94657,-16.17391 c 0,-0.09701 0.0794,-0.176389 0.17639,-0.176389 0.097,0 0.17639,0.07937 0.17639,0.176389 0,0.09701 -0.0794,0.176388 -0.17639,0.176388 -0.097,0 -0.17639,-0.07937 -0.17639,-0.176388 z m 0,-1.411111 c 0,-0.09701 0.0794,-0.176389 0.17639,-0.176389 0.097,0 0.17639,0.07937 0.17639,0.176389 0,0.09701 -0.0794,0.176388 -0.17639,0.176388 -0.097,0 -0.17639,-0.07937 -0.17639,-0.176388 z m -51.433495,-2.734028 c 0.0574,-11.108088 0.0544,-21.902625 -0.007,-23.987855 -0.12386,-4.23536 0.11481,-3.90916 -3.11879,-4.2626 l -1.46577,-0.16021 1.50706,1.46124 c 1.72238,1.67 2.19923,3.29603 1.60921,5.4872 -0.67615,2.511047 -3.59545,4.099007 -5.9967,3.261927 l -1.0672,-0.37203 v 7.75384 c 0,6.679916 0.0758,7.782904 0.54712,7.963775 0.30092,0.115471 0.89623,-0.09838 1.32292,-0.47523 1.50103,-1.325697 2.3633,-0.65018 2.3633,1.851457 0,1.055702 -0.0664,1.919458 -0.14754,1.919458 -0.0811,0 -0.4262,0.106936 -0.7668,0.237634 -0.47431,0.182012 -0.56715,0.101829 -0.39662,-0.342568 0.23486,-0.612022 -0.72794,-1.868056 -1.11229,-1.451068 -0.12242,0.132817 -0.0242,0.312356 0.21839,0.398975 0.8735,0.311965 0.41826,0.782069 -0.5666,0.585098 -1.34075,-0.268152 -1.45312,0.123569 -1.20904,4.2147 l 0.20091,3.367584 1.65034,-0.195459 c 2.23989,-0.265281 3.74181,0.537574 4.61867,2.468915 1.20888,2.662644 0.64988,5.069725 -1.57068,6.763428 -1.51546,1.155898 -2.35881,1.129329 -10.44374,-0.329025 -11.35452,-2.048119 -19.64134,-4.346339 -28.16046,-7.809865 -2.5854,-1.05112 -4.84759,-1.911127 -5.02708,-1.911127 -0.67605,0 -0.31204,1.756782 0.4674,2.255759 1.56136,0.999539 10.38662,4.518648 14.32781,5.713277 6.69983,2.03081 15.75982,3.964062 22.27288,4.752666 3.39549,0.411127 6.23976,0.812557 6.32061,0.892067 0.0808,0.07951 0.90701,0.144563 1.83593,0.144563 h 1.68894 z m -6.42205,0.970139 c 0,-0.09701 0.0794,-0.176389 0.17639,-0.176389 0.097,0 0.17639,0.07937 0.17639,0.176389 0,0.09701 -0.0794,0.176389 -0.17639,0.176389 -0.097,0 -0.17639,-0.07937 -0.17639,-0.176389 z m 70.202765,17.591766 c 10.06645,-1.781567 21.32774,-5.064297 29.72153,-8.663996 l 4.14514,-1.777653 v -1.374932 -1.374932 l -1.32292,0.584882 c -2.5039,1.107014 -7.51984,2.974667 -8.53353,3.177404 l -1.01544,0.203087 -0.19294,-2.242536 c -0.43352,-5.038552 -0.87226,-12.45688 -0.74857,-12.65702 0.0727,-0.117664 2.20486,-1.227235 4.73809,-2.465717 3.1417,-1.53595 4.60586,-2.43725 4.60586,-2.83523 0,-0.84039 -0.74511,-2.85633 -1.01023,-2.73324 -0.12347,0.0573 -1.25636,0.60742 -2.51754,1.22242 -6.53495,3.18673 -19.85573,7.268185 -29.98611,9.18767 l -1.5875,0.300797 v 6.991152 6.991152 l -1.29543,1.111074 c -1.15718,0.9925 -1.30777,1.318139 -1.41111,3.051351 -0.11898,1.995515 -0.92845,3.174999 -2.17898,3.174999 -0.29749,0 -0.62484,0.135818 -0.72743,0.301817 -0.10259,0.165999 0.24522,0.232946 0.77293,0.14877 0.77212,-0.123163 0.85614,-0.0755 0.4303,0.244097 -0.67767,0.508594 3.81389,0.195599 8.11388,-0.565416 z m -7.40833,0.399899 c 0,-0.09701 0.0794,-0.176389 0.17639,-0.176389 0.097,0 0.17639,0.07937 0.17639,0.176389 0,0.09701 -0.0794,0.176389 -0.17639,0.176389 -0.097,0 -0.17639,-0.07937 -0.17639,-0.176389 z m -60.788695,-5.176771 c 1.01108,-0.949866 1.03949,-2.029295 0.0853,-3.24232 -0.84866,-1.078906 -2.04638,-1.199695 -3.09527,-0.312158 -1.12516,0.952076 -1.27981,2.249729 -0.40124,3.366657 0.92381,1.174429 2.28142,1.249179 3.41119,0.187821 z m -7.77375,-3.873257 c -0.12606,-1.776057 -0.22921,-4.050297 -0.22921,-5.053865 v -1.82467 l -3.49814,-0.61226 c -7.97789,-1.396326 -18.71776,-4.515076 -26.66436,-7.743056 -2.67994,-1.088618 -3.94973,-1.450553 -4.10414,-1.169829 -0.47641,0.866114 -1.36391,5.570241 -1.36391,7.229283 v 1.744627 l 3.79236,1.670521 c 4.71477,2.076842 11.64513,4.439213 17.19791,5.862302 5.24309,1.343721 13.1182,3.054068 14.25213,3.095334 l 0.84658,0.03081 z m 110.514195,-9.310633 c 0.42539,-0.408536 0.43184,-0.866233 0.043,-3.054386 -0.81417,-4.581985 -0.4319,-4.40541 -4.95571,-2.289108 l -3.91594,1.831935 0.23768,3.351388 c 0.13073,1.843264 0.29806,3.455354 0.37186,3.582423 0.17046,0.29352 7.54907,-2.778771 8.21909,-3.422252 z m -93.902275,-6.157393 c -0.0193,-4.204458 -0.0511,-4.452478 -0.27151,-2.116668 -0.35234,3.7345 -0.3451,8.872829 0.0109,7.761112 0.15535,-0.485069 0.27261,-3.025069 0.26058,-5.644444 z m -60.59848,2.59291 c 0.67199,-0.276734 1.51005,-0.764003 1.86234,-1.082821 0.60525,-0.547749 0.47969,-0.640475 -2.28015,-1.683855 -3.86724,-1.462042 -7.95828,-4.151222 -13.14663,-8.641702 -0.89925,-0.7783 -1.85209,-1.41509 -2.11742,-1.41509 -0.2942,0 -0.64428,0.72333 -0.89732,1.854 -0.63075,2.81853 -0.0447,4.49618 2.43773,6.978647 2.33648,2.336476 4.06429,3.302184 7.57398,4.23324 2.67163,0.708733 4.41394,0.644421 6.56747,-0.242419 z m 169.603735,0.438514 c 2.45423,-0.526591 2.9728,-0.816077 6.05126,-3.377995 2.86419,-2.383597 3.68784,-4.016917 3.50149,-6.943517 -0.17949,-2.81875 -0.63685,-3.35814 -1.96,-2.31148 -2.2407,1.77249 -8.88784,6.40229 -10.84887,7.55637 -1.16417,0.685111 -2.91042,1.53117 -3.88056,1.880127 -0.97014,0.348957 -1.8867,0.738979 -2.03681,0.866716 -0.79371,0.675433 3.54604,2.789936 5.74098,2.797239 0.6791,0.0023 2.22373,-0.208098 3.43251,-0.46746 z m -87.50478,-0.232701 c 1.41223,-0.53508 2.5715,-1.695366 3.32495,-3.327889 1.91543,-4.150162 -0.94362,-8.631452 -5.50684,-8.631452 -4.46443,0 -7.34081,4.27311 -5.63099,8.365288 0.73093,1.749374 1.48309,2.536102 3.16154,3.30685 1.6043,0.736694 3.20427,0.835486 4.65134,0.287203 z m -2.88745,-2.698474 c -3.40844,-0.824551 -2.8533,-6.097467 0.64195,-6.097467 3.38007,0 4.50392,4.577883 1.43831,5.858777 -0.64661,0.270171 -1.22044,0.472804 -1.27518,0.450296 -0.0547,-0.02251 -0.41702,-0.11773 -0.80508,-0.211606 z m -35.533395,-4.242547 -0.0971,-5.55342 -5.82083,-1.30683 c -8.26893,-1.85645 -8.20194,-1.84852 -9.14832,-1.08219 -0.83251,0.67412 -2.05683,4.45238 -2.39163,7.38058 -0.14329,1.25319 -0.0463,1.54883 0.65888,2.00879 1.45341,0.94798 13.40991,4.012917 15.91711,4.080203 l 0.9791,0.02628 z m -20.13013,3.461956 c -1.31337,-1.560846 -1.43352,-3.062566 -0.61211,-7.650506 0.83373,-4.65673 1.29249,-5.743367 2.91269,-6.898977 1.59502,-1.13765 3.1,-1.03807 10.73081,0.71001 3.52218,0.80687 6.65749,1.467037 6.96736,1.467037 0.43219,0 0.5634,-0.368137 0.5634,-1.580777 0,-1.35012 -0.11582,-1.60738 -0.79375,-1.76308 -0.43656,-0.10026 -2.69875,-0.57723 -5.02709,-1.05994 -7.26636,-1.50644 -13.65749,-3.94802 -19.35273,-7.39328 -1.13665,-0.68759 -2.18925,-1.17439 -2.33913,-1.08176 -0.14987,0.0926 -0.34963,0.52795 -0.4439,0.96738 -0.0943,0.43943 -1.47012,4.98051 -3.05745,10.09129 -2.06185,6.638627 -2.78192,9.417787 -2.52142,9.731657 0.81392,0.98072 11.53668,5.431458 13.19391,5.476453 0.57699,0.01567 0.5526,-0.09662 -0.22059,-1.015507 z m 98.349635,-1.286676 c 8.17694,-1.7826 17.79947,-5.06903 24.10122,-8.23139 3.47193,-1.7423 3.5937,-1.84265 3.36374,-2.77203 -0.39435,-1.593727 -3.65866,-11.429187 -4.01301,-12.091297 -0.29569,-0.55251 -0.80618,-0.37179 -5.01142,1.77406 -5.26545,2.68686 -9.74041,4.25733 -18.45988,6.47842 l -5.97787,1.52273 -0.11202,4.027287 c -0.0616,2.21501 -0.007,5.49505 0.121,7.28898 0.22184,3.10505 0.26957,3.253619 0.99397,3.093902 0.41851,-0.09228 2.66594,-0.583072 4.99427,-1.090662 z m -117.454775,-3.47219 c 0.81065,-0.59276 0.95889,-0.43757 -2.18132,-2.2836 -2.42358,-1.42475 -4.99339,-3.76111 -4.58553,-4.16897 0.10862,-0.10863 -0.55144,-0.76255 -1.46682,-1.45315 -0.91537,-0.690597 -1.74369,-1.343947 -1.84071,-1.451877 -0.097,-0.10794 -1.12888,-0.98306 -2.29305,-1.94472 -2.81555,-2.32579 -3.99052,-3.721 -3.78748,-4.49744 0.0911,-0.34829 0.31397,-0.63325 0.4953,-0.63325 0.18134,0 1.65934,1.18299 3.28446,2.62886 4.95285,4.40658 13.81063,10.728207 14.27869,10.190437 0.14155,-0.16263 1.64694,-4.396787 3.3453,-9.409247 l 3.08794,-9.11357 -0.80384,-1.51525 -0.80384,-1.51525 0.75653,-2.21565 c 0.41609,-1.2186 0.69658,-2.30938 0.62331,-2.42396 -0.0733,-0.11457 -0.7169,-0.51915 -1.43027,-0.89906 -1.24137,-0.6611 -1.31227,-0.66352 -1.65201,-0.0564 -0.96503,1.72441 -5.77215,7.71113 -7.79707,9.71036 -2.85088,2.81471 -3.5137,3.18339 -5.71647,3.17966 -2.18156,-0.004 -3.76566,-0.55333 -5.97433,-2.07294 l -1.70768,-1.17491 -0.67412,0.84417 c -1.97024,2.46725 -3.8147,5.5312 -3.8147,6.33684 0,1.53033 6.42044,7.778477 10.93611,10.642657 5.243,3.3255 8.27548,4.35372 9.7216,3.29629 z m 56.13025,-0.0876 c -0.12935,-0.12935 -0.23519,-0.0235 -0.23519,0.23518 0,0.25871 0.10584,0.36454 0.23519,0.23519 0.12935,-0.12935 0.12935,-0.34102 0,-0.47037 z m 102.787115,-0.68551 c 4.69718,-2.35926 15.15824,-11.442617 15.15824,-13.161927 0,-0.74247 -3.04828,-5.48241 -4.19059,-6.51619 -0.70323,-0.63642 -0.74889,-0.62667 -2.10866,0.45028 -3.90714,3.09452 -7.13164,3.27938 -10.73486,0.61545 -1.03608,-0.76599 -5.80343,-6.40566 -8.31433,-9.83567 -0.81671,-1.11566 -1.67836,-2.02768 -1.91477,-2.02672 -0.23641,9.7e-4 -0.86801,0.35816 -1.40356,0.79375 l -0.97371,0.792 0.77839,2.37304 c 0.73459,2.23952 0.74637,2.44017 0.20933,3.56634 -0.56413,1.183 -0.54293,1.27334 2.45157,10.44595 1.66135,5.08895 3.23124,9.333457 3.48865,9.432237 0.58672,0.22514 2.67653,-1.05884 7.48474,-4.598637 4.34593,-3.19948 6.48558,-5.15412 7.68401,-7.01962 0.94654,-1.47342 1.82517,-1.67386 2.76843,-0.63158 0.84169,0.93006 0.47786,2.2622 -1.01336,3.71038 -1.67186,1.62359 -5.62939,4.716427 -8.49878,6.641857 -1.35819,0.91138 -3.00201,2.1289 -3.65293,2.7056 -0.65091,0.5767 -1.72248,1.24345 -2.38125,1.48166 -1.40535,0.50818 -1.4827,0.7517 -0.40401,1.27193 1.41209,0.68103 3.62329,0.48636 5.56745,-0.49013 z m -87.35582,-5.60951 c 2.28319,-0.69264 5.4831,-0.66563 8.09896,0.0683 l 2.1159,0.59369 2.02128,-2.25286 c 1.83473,-2.044937 3.85708,-4.984937 4.36309,-6.342857 0.17296,-0.46417 -1.38484,-0.53067 -12.68288,-0.54141 -7.58002,-0.007 -12.88006,0.12082 -12.88006,0.31114 0,1.17274 6.07307,8.646447 7.05556,8.682777 0.097,0.004 0.95568,-0.22988 1.90815,-0.51882 z m 33.5302,-3.213937 c 1.03025,-0.39534 1.63714,-2.04798 1.20611,-3.28442 -0.67371,-1.93262 -2.58143,-2.36932 -4.02856,-0.92219 -2.04227,2.04227 0.10864,5.248 2.82245,4.20661 z m -57.663345,-0.83919 c 1.52688,-1.52689 0.3992,-4.23333 -1.76389,-4.23333 -1.35794,0 -2.46945,1.1115 -2.46945,2.46944 0,1.35794 1.11151,2.46945 2.46945,2.46945 0.58796,0 1.37191,-0.31359 1.76389,-0.70556 z m 54.286045,-5.97994 c 1.26925,-0.52574 1.48064,-1.16624 0.3063,-0.92808 -2.89454,0.58702 -2.73412,0.46585 -2.7327,2.06405 l 0.001,1.49258 0.66252,-1.08645 c 0.36438,-0.59754 1.15754,-1.29149 1.76257,-1.5421 z m 6.89814,0.42369 c -0.11691,-0.53358 -0.2737,-1.16858 -0.34842,-1.41111 -0.14534,-0.47177 -1.24393,-0.56574 -2.54337,-0.21755 -0.72743,0.19492 -0.67018,0.27697 0.64849,0.9294 0.7955,0.39358 1.52871,0.93021 1.62936,1.1925 0.3382,0.88132 0.82877,0.48719 0.61394,-0.49324 z m 8.6658,0.0821 c 8.75129,-2.18458 17.95214,-5.93383 21.26664,-8.66592 1.09718,-0.90439 1.25028,-1.18949 0.94502,-1.75986 -0.49368,-0.92245 -0.74778,-0.88274 -4.39638,0.68711 -5.69937,2.45222 -10.00665,3.92912 -15.9893,5.4825 l -5.88292,1.52748 0.0754,1.01461 c 0.14636,1.97061 0.44558,2.65152 1.08293,2.46435 0.33308,-0.0978 1.63748,-0.43544 2.89866,-0.75027 z m -72.881875,-1.31131 1.02505,-0.52376 -1.34116,-0.2516 c -1.48263,-0.27814 -1.929,0.0742 -1.93827,1.53007 -0.005,0.77853 0.0455,0.80396 0.61196,0.30874 0.33955,-0.29683 1.07864,-0.77538 1.64242,-1.06345 z m -7.54663,0.52364 c 0.003,-0.33954 0.0982,-0.96542 0.21223,-1.39083 0.229,-0.85397 0.86031,-0.61131 -7.57262,-2.91079 -3.76082,-1.0255 -8.26931,-2.81007 -13.37574,-5.29446 -1.21576,-0.59149 -2.34949,-1.07544 -2.51939,-1.07544 -0.1699,0 -0.41627,0.42775 -0.54749,0.95056 -0.27933,1.11294 0.0571,1.42409 3.95931,3.66216 2.89053,1.65781 8.18914,3.69367 14.19444,5.45385 4.71135,1.38093 5.64243,1.48063 5.64926,0.60495 z m 57.878005,-5.85738 c 29.81261,-3.40331 51.49504,-12.64556 66.12722,-28.18706 3.57738,-3.79969 8.1049,-10.37675 10.25926,-14.90347 3.84844,-8.08628 6.13624,-18.2139 6.13624,-27.16388 0,-2.78013 -0.55322,-9.34709 -0.86498,-10.26773 -0.0882,-0.26039 -0.93156,-0.1209 -2.53836,0.41984 l -2.40631,0.8098 -1.46049,3.54182 c -3.56619,8.6484 -9.13746,15.75986 -16.89514,21.56588 -4.62032,3.45795 -11.4665,6.66746 -16.58055,7.77299 -1.24788,0.26976 -2.6275,0.86267 -3.36124,1.44454 -1.91451,1.51823 -4.31901,1.85186 -10.12098,1.4043 -5.15591,-0.39773 -7.694,-1.07731 -12.24488,-3.27862 -1.15004,-0.55629 -2.18192,-1.01115 -2.29305,-1.01081 -0.11114,3.5e-4 -0.64613,0.70354 -1.18888,1.56265 -1.72398,2.72889 -5.24066,5.68521 -8.81215,7.408 -4.21622,2.0338 -7.42326,2.67039 -13.45295,2.67039 h -4.76082 l -0.58786,1.23882 c -1.24138,2.61602 -4.20307,4.061 -6.85821,3.34604 -1.67878,-0.45205 -3.79654,-2.20548 -4.0937,-3.38945 -0.11631,-0.46345 -0.23396,-0.85475 -0.26144,-0.86956 -0.0275,-0.0148 -2.4312,-0.0988 -5.34161,-0.18663 -2.910415,-0.0878 -6.123505,-0.30816 -7.140195,-0.48961 -2.29259,-0.40915 -5.95761,-1.8568 -8.54082,-3.37354 -1.85863,-1.09131 -6.53078,-5.55971 -7.32394,-7.00456 -0.35341,-0.64377 -0.52055,-0.60836 -3.69027,0.78176 -4.92364,2.15935 -7.37039,2.65122 -13.35831,2.68546 -4.5877,0.0262 -5.23412,-0.0451 -6.12962,-0.67623 -2.34096,-1.64991 -2.8082,-1.85861 -4.64419,-2.07439 -4.90161,-0.57609 -14.04278,-4.48729 -18.70819,-8.00462 -6.77026,-5.10421 -13.01148,-13.17271 -15.91599,-20.57582 -0.83118,-2.11855 -0.99294,-2.33376 -1.19931,-1.59562 -0.38306,1.37012 -0.34213,10.1291 0.0625,13.38609 1.72375,13.87343 8.39237,27.83616 17.75439,37.17407 5.96356,5.94821 13.34239,10.86877 22.92224,15.28566 13.25151,6.10976 27.10049,9.49715 45.029705,11.01405 5.7002,0.48227 26.85076,0.18238 32.48283,-0.46056 z m -100.669065,-1.19817 c 1.79997,-1.84203 7.50847,-8.90807 7.50847,-9.29405 0,-0.2728 -6.55539,-5.61081 -6.8904,-5.61081 -0.47946,0 -10.04293,10.57982 -10.04293,11.11024 0,0.75254 3.21114,4.00336 4.66568,4.72335 2.22615,1.10192 2.90419,0.9696 4.75918,-0.92873 z m 169.626545,0.64774 c 1.68908,-0.96883 4.39302,-3.56395 4.39302,-4.21622 0,-0.66101 -9.38851,-11.33638 -9.96985,-11.33638 -0.39218,0 -6.75496,4.92307 -6.91143,5.34759 -0.1992,0.54041 5.87579,8.1042 8.23822,10.25719 1.34138,1.22245 2.04286,1.21384 4.25004,-0.0522 z m -79.92086,-41.79682 c 8.59459,-0.21336 12.36318,-1.469 16.78683,-5.59313 2.51168,-2.34162 4.44068,-5.69394 5.24857,-9.12125 0.66728,-2.83082 0.67013,-4.7648 0.0117,-7.90112 -1.78256,-8.49034 -8.74093,-14.83962 -18.34289,-16.73728 -3.72944,-0.73707 -11.01355,-1.43077 -15.02346,-1.43077 -1.31857,0 -2.49284,-0.15444 -2.6095,-0.34319 -0.39607,-0.64086 -3.12098,-1.12937 -6.15477,-1.1034 -4.224455,0.0361 -6.374765,0.41313 -6.374765,1.11758 0,0.18096 -0.22526,0.32901 -0.50057,0.32901 -0.27532,0 -0.95001,0.23395 -1.49931,0.51989 -0.5493,0.28593 -1.55435,0.76171 -2.23345,1.05728 -0.6791,0.29557 -1.92947,1.17287 -2.77861,1.94956 -0.84914,0.77668 -1.6549,1.41216 -1.79059,1.41216 -0.36213,0 -1.6409,1.489 -1.89355,2.20486 -0.11983,0.33955 -0.38161,0.61736 -0.58173,0.61736 -0.20012,0 -0.36385,0.23812 -0.36385,0.52916 0,0.29105 -0.17574,0.52917 -0.39052,0.52917 -0.21479,0 -0.29915,0.23813 -0.18746,0.52917 0.11168,0.29104 0.0731,0.52916 -0.0857,0.52916 -0.3787,0 -2.05997,3.97501 -2.70273,6.39004 -0.68892,2.58844 -0.66025,8.15885 0.0544,10.56746 1.93271,6.51402 7.32164,11.40437 14.60094,13.25005 3.76379,0.95432 9.977035,1.11613 26.811105,0.69823 z m -26.111055,-12.86242 c -0.67607,-0.35962 -1.70547,-1.32579 -2.28755,-2.14705 -0.92344,-1.30287 -1.05834,-1.79613 -1.05834,-3.86982 0,-2.00234 0.15285,-2.60759 0.97054,-3.8432 3.24822,-4.9084 10.265845,-3.19038 11.375305,2.78485 0.91837,4.94602 -4.69975,9.36264 -8.999955,7.07522 z m 26.640215,0.0101 c -1.68482,-0.79725 -2.43415,-1.58569 -3.16154,-3.32659 -1.36744,-3.27275 0.0318,-7.36619 3.05583,-8.93958 1.24205,-0.64624 4.28134,-0.63482 5.54927,0.0208 1.33248,0.68905 2.68979,2.34879 3.21011,3.92539 1.77883,5.38991 -3.70454,10.66181 -8.65367,8.31993 z m -62.458715,7.90554 c 1.39941,-0.58471 1.95734,-1.46925 1.95734,-3.10317 0,-1.11162 -0.73552,-2.60565 -1.56705,-3.18309 -0.69229,-0.48076 -3.30373,-0.2877 -3.87812,0.28669 -1.11531,1.11531 -1.32258,1.87984 -0.88189,3.25296 0.57286,1.78492 1.63702,2.90043 3.0752,3.22355 0.0547,0.0123 0.63727,-0.20232 1.29452,-0.47694 z m 9.63025,-1.42356 c 1.62622,-1.7613 1.61466,-3.67679 -0.0321,-5.32356 -1.50706,-1.50706 -2.65494,-1.79581 -4.20843,-1.05863 -1.50871,0.71593 -2.20735,1.97387 -2.16501,3.89823 0.084,3.81959 3.83086,5.27254 6.40556,2.48396 z m 91.218585,0.59576 c 1.96399,-1.74734 1.89413,-4.86675 -0.14746,-6.58464 -1.23043,-1.03534 -1.95917,-1.11628 -3.65834,-0.40632 -2.08967,0.87312 -2.91477,3.64646 -1.75316,5.89277 1.01731,1.96726 3.9344,2.54354 5.55896,1.09819 z m 7.81031,0.18058 c 1.71511,-1.49958 1.80488,-4.08417 0.18145,-5.22406 -0.98658,-0.69273 -3.32563,-1.22768 -2.98943,-0.6837 0.11951,0.19337 -0.0248,0.25245 -0.33034,0.13522 -0.70688,-0.27126 -1.25794,1.15416 -1.25794,3.2539 0,2.84978 2.42715,4.2403 4.39626,2.51864 z m -3.69071,-5.02709 c 0,-0.097 0.0794,-0.17638 0.17639,-0.17638 0.097,0 0.17639,0.0794 0.17639,0.17638 0,0.097 -0.0794,0.17639 -0.17639,0.17639 -0.097,0 -0.17639,-0.0794 -0.17639,-0.17639 z m -12.69549,-0.78081 c 0.40084,-1.07382 1.63755,-2.46207 3.45944,-3.88332 l 0.81812,-0.63821 -2.81293,-0.92217 -2.81292,-0.92217 -0.23481,1.56578 c -0.12914,0.86118 -0.47024,2.46918 -0.75801,3.57334 l -0.52321,2.00756 0.98894,0.79188 c 0.90839,0.72738 1.00779,0.74174 1.22058,0.17639 0.12741,-0.33852 0.42207,-1.1256 0.6548,-1.74908 z m -99.868945,1.20814 c 0.16883,-0.44407 0.94742,-1.38601 1.73019,-2.09319 2.31103,-2.08788 5.63398,-2.62955 8.17593,-1.33275 1.55504,0.79333 2.23908,0.89642 2.0429,0.30788 -0.24496,-0.73487 -3.59953,-1.63704 -7.59449,-2.04244 -6.62286,-0.67208 -12.09288,-2.59112 -17.27307,-6.05988 -3.26644,-2.18728 -7.49007,-6.35967 -9.45451,-9.3398 l -1.41111,-2.14071 -2.16851,1.70362 c -1.19268,0.93698 -2.2642,1.95296 -2.38114,2.25771 -0.59335,1.54624 6.58315,9.56498 11.50928,12.86001 3.8594,2.58151 8.34139,4.7838 11.89087,5.84274 3.54457,1.05748 4.54277,1.06493 4.93366,0.0368 z m 21.78531,-2.4509 c -0.32964,-1.40939 -0.59974,-2.95941 -0.60023,-3.44448 -0.002,-1.70026 -0.34976,-1.78971 -3.1208,-0.80202 l -2.58496,0.92136 1.00576,0.51939 c 2.02507,1.04577 3.52374,2.52079 4.34693,4.27834 1.21673,2.59778 1.72256,1.81642 0.9533,-1.47259 z m 101.748205,2.59927 c 6.24683,-2.15843 13.06942,-6.32493 17.07675,-10.42864 3.04201,-3.11517 7.58472,-9.1204 7.58472,-10.02661 0,-0.36432 -4.87716,-4.99671 -5.24641,-4.98311 -0.1219,0.004 -0.82986,1.08986 -1.57323,2.41193 -2.89628,5.15094 -8.75247,10.85235 -13.95504,13.58623 -4.44491,2.33573 -10.54749,4.12365 -15.80461,4.6304 -1.39493,0.13446 -2.8126,0.44655 -3.15038,0.69354 -0.57524,0.42063 -0.56734,0.47413 0.12481,0.84456 0.58615,0.31369 1.05524,0.25195 2.26844,-0.2986 3.1822,-1.44406 6.47641,-0.59783 9.03626,2.32125 0.91599,1.04455 1.68028,1.90118 1.69841,1.90363 0.0181,0.002 0.89126,-0.29211 1.94028,-0.65458 z M 65.703625,-178.17476 c 3.45392,-0.68555 7.20935,-2.3091 7.75925,-3.35448 0.23995,-0.45617 1.21759,-2.50114 2.17253,-4.54438 0.95494,-2.04324 2.64015,-4.87021 3.74493,-6.28216 2.04209,-2.60988 6.96911,-7.11258 7.78284,-7.11258 0.42971,0 1.09639,-1.69252 1.90514,-4.83662 0.21013,-0.81687 0.39413,-2.88062 0.40889,-4.58611 0.10573,-12.21388 -8.23169,-23.28124 -20.76802,-27.56811 -1.22272,-0.41811 -3.92258,-0.90365 -6.07524,-1.09255 -9.79706,-0.85973 -17.73794,1.9295 -24.55935,8.62645 -6.79443,6.67047 -9.67766,14.73223 -8.68268,24.27753 0.8031,7.70446 3.48958,13.32224 8.88753,18.58496 7.45184,7.26517 16.88803,9.97931 27.42418,7.88805 z m 21.25768,-24.4686 c 0,-0.2587 0.10583,-0.36454 0.23518,-0.23519 0.12936,0.12936 0.12936,0.34102 0,0.47037 -0.12935,0.12936 -0.23518,0.0235 -0.23518,-0.23518 z m -0.70556,-0.17639 c 0,-0.097 0.0794,-0.17639 0.17639,-0.17639 0.097,0 0.17639,0.0794 0.17639,0.17639 0,0.097 -0.0794,0.17639 -0.17639,0.17639 -0.097,0 -0.17639,-0.0794 -0.17639,-0.17639 z m 0,-1.41111 c 0,-0.097 0.0794,-0.17639 0.17639,-0.17639 0.097,0 0.17639,0.0794 0.17639,0.17639 0,0.097 -0.0794,0.17639 -0.17639,0.17639 -0.097,0 -0.17639,-0.0794 -0.17639,-0.17639 z m 0.35278,-0.70556 c 0,-0.097 0.0794,-0.17639 0.17639,-0.17639 0.097,0 0.17639,0.0794 0.17639,0.17639 0,0.097 -0.0794,0.17639 -0.17639,0.17639 -0.097,0 -0.17639,-0.0794 -0.17639,-0.17639 z m 1.76389,-0.35277 c 0,-0.097 0.0794,-0.17639 0.17639,-0.17639 0.097,0 0.17639,0.0794 0.17639,0.17639 0,0.097 -0.0794,0.17638 -0.17639,0.17638 -0.097,0 -0.17639,-0.0794 -0.17639,-0.17638 z m 81.077175,27.00496 c 3.85544,-0.79555 8.90359,-3.17739 11.96996,-5.64772 5.02251,-4.04622 9.1282,-10.34467 10.70243,-16.41836 1.47889,-5.70583 0.84449,-13.72127 -1.53568,-19.40277 -1.94982,-4.65424 -6.59049,-10.2348 -10.84445,-13.04079 -2.84368,-1.87575 -7.86017,-3.89017 -11.06455,-4.4431 -3.74636,-0.64644 -11.79218,-0.25788 -14.86462,0.71787 -8.94254,2.83998 -16.49669,10.52414 -18.91001,19.23546 -1.47135,5.31113 -0.75494,14.21888 1.37436,17.0885 0.36859,0.49674 2.20863,2.25254 4.08897,3.90178 4.9047,4.30187 7.73648,8.45794 9.54318,14.00608 0.56394,1.73178 0.70344,1.87484 2.47423,2.53738 1.83533,0.68669 5.13889,1.59883 6.89733,1.90441 2.281,0.39639 7.13696,0.18688 10.16885,-0.43874 z M 24.136975,-190.76209 c 1.18061,-1.1294 2.14656,-2.24429 2.14656,-2.47754 0,-0.23324 -0.4262,-2.00794 -0.94712,-3.94377 -0.86613,-3.21875 -0.94728,-4.07769 -0.94914,-10.04607 -0.002,-6.10901 0.0596,-6.72719 0.96095,-9.66625 1.93997,-6.32547 4.03276,-9.99223 8.14435,-14.26968 5.72552,-5.95648 11.6907,-9.3527 19.67431,-11.2014 l 2.71807,-0.62941 -1.67828,-1.60912 c -1.06372,-1.01989 -1.99138,-2.36453 -2.53331,-3.67204 l -0.85503,-2.06291 -2.03879,0.19928 c -3.70457,0.36209 -7.60732,1.82158 -10.14879,3.79529 -0.6791,0.52739 -1.73983,1.24961 -2.35719,1.60493 -3.79425,2.18378 -8.91682,6.43432 -8.9378,7.41628 -0.003,0.15692 -0.40022,0.65916 -0.88194,1.11609 -0.48172,0.45692 -0.87585,0.98963 -0.87585,1.18379 0,0.30427 -0.48938,0.9956 -2.12198,2.99762 -0.19111,0.23435 -0.34746,0.56386 -0.34746,0.73226 0,0.16839 -0.38411,0.66702 -0.85358,1.10807 -0.46947,0.44104 -1.05436,1.30215 -1.29977,1.91357 -0.2454,0.61143 -0.81379,1.66447 -1.26308,2.3401 -0.4493,0.67564 -0.81691,1.47264 -0.81691,1.77113 0,0.29849 -0.53459,2.22752 -1.18798,4.28673 -0.74178,2.33779 -1.35838,5.27289 -1.64167,7.81458 l -0.4537,4.07056 1.39782,1.588 c 2.0324,2.30893 2.37601,3.71692 1.48698,6.09307 -0.62592,1.67291 -0.67016,2.23367 -0.37126,4.70603 0.37411,3.09452 1.5773,6.01277 2.58804,6.27709 0.35817,0.0937 0.65122,0.32376 0.65122,0.51132 0,0.5776 0.56344,0.18461 2.79233,-1.9476 z m 179.861565,-3.85558 c 0.98084,-2.73516 0.98646,-3.51764 0.0393,-5.47419 -0.59278,-1.22451 -0.70636,-1.93067 -0.53849,-3.34799 0.117,-0.9879 0.33965,-1.88752 0.49478,-1.99915 0.80133,-0.57665 1.50048,-2.28769 1.50048,-3.67213 0,-4.68579 -2.22312,-12.74396 -5.09544,-18.46948 -3.53331,-7.0431 -8.78852,-12.92827 -15.80664,-17.70142 -0.92163,-0.62682 -1.67569,-1.35073 -1.67569,-1.60869 0,-0.25796 -0.2275,-0.65783 -0.50556,-0.8886 -0.39753,-0.32992 -0.70724,-0.28743 -1.44945,0.19889 -1.26773,0.83065 -5.85524,6.16051 -5.70092,6.62345 0.0674,0.20214 1.0028,0.70851 2.0787,1.12526 1.07591,0.41674 3.53237,1.79699 5.45879,3.06721 7.50531,4.94877 12.69914,12.41112 15.15475,21.77393 0.81582,3.1106 0.81891,11.54406 0.005,14.92675 -0.31784,1.32173 -0.5779,2.60748 -0.5779,2.85723 0,0.49553 4.8933,4.77737 5.47121,4.78753 0.19577,0.003 0.71174,-0.98592 1.1466,-2.1986 z m -95.16502,-3.61597 c 0,-0.097 -0.0794,-0.17639 -0.17639,-0.17639 -0.097,0 -0.17639,0.0794 -0.17639,0.17639 0,0.097 0.0794,0.17639 0.17639,0.17639 0.097,0 0.17639,-0.0794 0.17639,-0.17639 z m -92.814095,-1.71887 c 0.27259,-0.21879 0.70811,-0.90614 0.96783,-1.52745 1.28615,-3.07687 -2.66369,-5.81606 -5.00726,-3.47249 -0.57281,0.57281 -0.86408,1.25942 -0.86051,2.02847 0.006,1.3779 0.1439,1.60026 1.75849,2.84398 1.24286,0.95738 2.06588,0.99078 3.14145,0.12749 z m 195.387435,-0.48599 c 0.53181,-0.53358 0.99193,-1.12889 1.02248,-1.32292 0.0306,-0.19402 0.10523,-0.5909 0.16595,-0.88194 0.18165,-0.87074 -0.85197,-2.76605 -1.62121,-2.97273 -2.8075,-0.75433 -5.12668,0.60613 -5.12668,3.00737 0,2.77658 3.5672,4.16909 5.55946,2.17022 z m -112.348425,-1.00871 c 1.338385,-0.15616 2.143625,-0.43394 2.334845,-0.80545 0.79039,-1.53563 1.03102,-10.63228 0.38776,-14.65892 -0.84317,-5.27809 -3.424085,-11.52407 -6.602215,-15.97781 -2.29483,-3.21593 -6.49973,-7.29864 -10.35768,-10.05672 -3.3338,-2.38336 -9.87901,-5.91484 -10.95801,-5.91242 -0.31601,7.1e-4 -0.76837,0.46917 -1.00524,1.04104 -0.436,1.05259 -4.09672,4.95747 -4.6475,4.95747 -0.1645,0 -0.29909,0.13688 -0.29909,0.30419 0,0.16731 1.66688,0.91476 3.70417,1.66101 2.03729,0.74625 3.70416,1.4633 3.70416,1.59345 0,0.13015 1.3103,0.97203 2.91177,1.87086 7.9208,4.44554 13.6023,11.74393 15.82083,20.32326 0.86198,3.33334 1.08627,9.12835 0.53116,13.72335 l -0.31541,2.61086 1.37374,-0.21791 c 0.75556,-0.11984 2.29308,-0.32516 3.41671,-0.45626 z m 30.372265,-1.46073 c -1.24017,-5.27548 -0.92517,-12.10846 0.79078,-17.15355 2.57767,-7.57867 8.70204,-14.69911 16.13927,-18.76416 1.33422,-0.72926 4.22157,-1.89991 6.41634,-2.60144 l 3.9905,-1.2755 -1.69813,-1.68785 c -0.93397,-0.92831 -1.99212,-2.23373 -2.35143,-2.90093 -0.35931,-0.66721 -0.86033,-1.2131 -1.11337,-1.2131 -1.95176,0 -11.03616,4.35751 -13.83122,6.63441 -3.43122,2.79512 -7.49672,6.79659 -9.08064,8.93762 -1.90997,2.58175 -4.66199,8.4996 -5.82569,12.52734 -0.7051,2.44049 -0.79694,3.5214 -0.77476,9.11868 0.0173,4.35922 0.18247,6.903 0.52692,8.11389 0.47618,1.674 0.57366,1.77482 1.91286,1.97841 0.77611,0.11799 2.30308,0.23705 3.39327,0.26459 l 1.98216,0.0501 z m 86.78103,0.16983 1.01571,-0.38138 -0.2331,-2.79512 c -0.35204,-4.22121 -0.86273,-6.25775 -1.56298,-6.23278 -0.32347,0.0115 -1.54063,0.36872 -2.70479,0.79375 -2.82936,1.03298 -2.96673,1.86622 -0.73813,4.47709 1.14219,1.33811 1.6561,2.29231 1.81875,3.37693 0.24144,1.61 0.18903,1.59341 2.40454,0.76151 z m -99.16398,-2.46289 c -0.1522,-1.01865 -0.27345,-3.96163 -0.26944,-6.53997 0.009,-5.51999 0.46833,-5.08753 -5.24926,-4.93758 l -3.83086,0.10047 -0.0535,6.61458 -0.0535,6.61458 h 4.86661 4.86661 z m -104.522555,-4.69512 c 0,-0.66765 -0.14138,-1.21391 -0.31418,-1.21391 -0.32446,0 -0.72638,2.36962 -0.44898,2.64703 0.38562,0.38561 0.76316,-0.32337 0.76316,-1.43312 z M 217.13629,-220.2323 c 4.93851,-3.23756 10.83223,-10.05119 13.7613,-15.90922 3.07486,-6.1496 5.98668,-16.28209 6.88434,-23.95593 0.61204,-5.23218 0.69473,-18.2374 0.14787,-23.25773 -0.44293,-4.06622 -1.66231,-10.35362 -2.09272,-10.79054 -0.17384,-0.17647 -0.80821,4.5e-4 -1.47705,0.41193 -5.4,3.32218 -10.11228,4.86601 -20.22235,6.62523 -9.38202,1.63254 -13.05464,2.63933 -17.32248,4.74868 -10.59727,5.23763 -15.74428,10.85324 -19.50554,21.28137 -1.80964,5.01724 -1.21933,4.91278 -12.23371,2.16487 -4.86479,-1.21368 -9.18608,-2.41966 -9.60288,-2.67995 -1.2484,-0.77964 -1.60741,-2.1816 -1.37343,-5.36332 0.26879,-3.65511 1.33181,-7.68269 2.97855,-11.28518 l 1.2857,-2.81265 -1.04088,-0.84657 c -1.47742,-1.20162 -9.68851,-5.16101 -13.02479,-6.28057 -4.25094,-1.42648 -14.62975,-3.70311 -16.92623,-3.71283 -0.18433,-7.8e-4 -0.14464,-0.19192 0.0882,-0.42475 0.75543,-0.75543 0.45472,-0.98778 -1.27839,-0.98778 -2.68637,0 -8.04965,1.0307 -11.70383,2.2492 l -3.35139,1.11755 0.76311,-1.59518 c 0.88375,-1.84739 2.01698,-5.98824 1.72006,-6.28517 -0.11122,-0.11121 -1.19168,0.28965 -2.40102,0.8908 -4.306,2.14046 -7.75766,3.28415 -13.055645,4.32593 -6.134,1.20616 -10.88278,2.5151 -15.95427,4.3976 -3.46371,1.2857 -10.89318,4.68074 -12.41491,5.67323 l -0.77325,0.50432 1.20039,2.59808 c 1.90287,4.11852 3.04186,8.43819 3.2534,12.33872 0.27667,5.10145 -0.0799,5.4956 -6.27602,6.93716 -1.83373,0.42663 -5.33659,1.31753 -7.78414,1.97978 -5.04121,1.36403 -6.31399,1.46825 -7.11544,0.58266 -0.30931,-0.34178 -1.06417,-2.12772 -1.67747,-3.96875 -2.31284,-6.94275 -5.67241,-11.83169 -11.05937,-16.0939 -6.35376,-5.02714 -12.97081,-7.52623 -25.12726,-9.48991 -9.6213101,-1.55417 -13.69302007,-2.86479 -18.4397701,-5.93544 l -2.4518,-1.58607 -0.38098,1.64983 c -3.08201,13.34648 -2.82279,30.12952 0.68231,44.17564 2.51846,10.09236 6.23207003,17.37514 11.88276,23.30333 2.42084,2.53973 7.4994501,6.79833 7.7767201,6.52107 0.0556,-0.0556 0.50761,-1.51404 1.00444,-3.24094 1.13452,-3.94337 3.37604,-8.72695 5.7835,-12.34243 2.39257,-3.59312 8.96636,-10.07857 12.75689,-12.58547 5.58251,-3.69203 13.24467,-6.89792 17.93917,-7.50584 1.06715,-0.13819 2.65465,-0.61502 3.52778,-1.05961 2.17434,-1.10716 4.00101,-1.30842 6.68591,-0.73665 1.48824,0.31693 2.64759,0.37822 3.34906,0.17704 2.33406,-0.6694 5.25027,-0.1415 6.58355,1.19178 0.29654,0.29654 1.749,0.87108 3.2277,1.27675 2.99207,0.82086 7.94812,3.01254 10.65867,4.7135 4.87287,3.0579 11.50308,9.09588 13.75943,12.53041 l 0.98499,1.49931 12.212135,-0.0142 12.21215,-0.0142 1.5875,-2.13852 c 2.12239,-2.85906 6.98857,-7.45128 10.35926,-9.77603 4.71888,-3.25459 13.48781,-7.10707 16.17695,-7.10707 0.41086,0 1.61522,-0.48999 2.67636,-1.08885 2.13767,-1.20643 4.81527,-1.65441 6.77256,-1.13308 0.84762,0.22576 1.67391,0.19175 2.64403,-0.10884 1.96779,-0.60972 3.70663,-0.58696 5.5119,0.0721 0.84901,0.30996 3.02931,0.93949 4.8451,1.39894 6.49098,1.64244 15.19835,6.67165 20.98971,12.12324 2.3568,2.21853 6.39855,7.3918 8.42612,10.78508 1.93428,3.23713 4.18242,8.74834 5.0367,12.34722 0.3224,1.35819 0.64768,2.67166 0.72284,2.9188 0.15669,0.51525 4.00868,-1.30069 7.20791,-3.39802 z m -104.62767,1.24965 c 1.07252,-0.78425 0.57018,-1.81267 -0.94684,-1.93842 -1.49842,-0.12422 -1.97332,0.47109 -1.3319,1.66959 0.44847,0.83798 1.35425,0.94484 2.27874,0.26883 z m 10.65926,-4.58026 c 0.21508,-0.21507 -2.02305,-5.4766 -2.68144,-6.30367 -0.20436,-0.25673 -6.14099,-0.412 -12.97584,-0.33937 -4.08084,0.0434 -4.32152,0.0855 -4.32152,0.75627 0,0.39069 -0.18743,1.01045 -0.4165,1.37725 -0.32127,0.51444 -0.31639,1.11419 0.0213,2.62335 l 0.43783,1.95644 1.83075,0.14802 c 3.01655,0.24389 17.8217,0.0654 18.10538,-0.21829 z m 49.08961,-18.75811 c 0.57004,-0.47966 1.13785,-0.7707 1.26179,-0.64676 0.12394,0.12394 0.22535,0.0587 0.22535,-0.14508 0,-0.20374 0.3175,-0.45346 0.70555,-0.55494 0.41782,-0.10926 0.70556,-0.48119 0.70556,-0.91201 0,-0.48432 0.16784,-0.66311 0.50211,-0.53484 0.5261,0.20189 1.40426,-1.01308 1.01418,-1.40316 -0.12253,-0.12252 0.0321,-0.22277 0.34357,-0.22277 0.7575,0 1.23962,-2.94501 0.60692,-3.70737 -0.91086,-1.09753 -1.98571,-0.61085 -3.86393,1.74954 -0.99587,1.25152 -2.31922,2.70335 -2.94079,3.22627 -1.81036,1.52306 -2.77356,3.00158 -2.3152,3.55387 0.64102,0.77239 2.6092,0.56128 3.75489,-0.40275 z m 3.6038,-3.53762 c 0,-0.097 0.0794,-0.17638 0.17639,-0.17638 0.097,0 0.17639,0.0794 0.17639,0.17638 0,0.097 -0.0794,0.17639 -0.17639,0.17639 -0.097,0 -0.17639,-0.0794 -0.17639,-0.17639 z m -11.687,2.80877 c 0.29643,-0.29643 -0.29088,-1.13464 -0.9081,-1.29605 -0.91727,-0.23987 -2.22156,0.29997 -2.22156,0.91949 0,0.28307 0.27781,0.59028 0.61736,0.68269 0.59852,0.16289 2.24376,-0.0376 2.5123,-0.30613 z m -100.920595,-0.11128 c 0.37077,-0.23519 0.36394,-0.36812 -0.036,-0.70001 -0.57424,-0.47658 -2.85182,0.14117 -2.51712,0.68272 0.24499,0.39642 1.93736,0.40788 2.55309,0.0173 z m 112.254815,-0.22804 c 0,-0.097 -0.0794,-0.17639 -0.17638,-0.17639 -0.097,0 -0.17639,0.0794 -0.17639,0.17639 0,0.097 0.0794,0.17639 0.17639,0.17639 0.097,0 0.17638,-0.0794 0.17638,-0.17639 z m -107.220935,-2.73964 c 1.6389,-1.10445 2.33389,-3.0033 1.77814,-4.85823 -0.51624,-1.72305 -1.80307,-2.62995 -3.66254,-2.5812 -2.16628,0.0568 -3.18345,1.30013 -3.36236,4.10997 -0.13743,2.15825 -0.10177,2.27413 0.97989,3.18429 1.37492,1.15691 2.69872,1.20195 4.26687,0.14517 z m 100.787305,0.0949 c 0.63309,-0.386 1.41969,-1.26509 1.74798,-1.95354 0.5366,-1.12526 0.54505,-1.39849 0.0836,-2.70448 -1.27305,-3.60329 -5.4966,-3.95978 -7.22876,-0.61014 -0.64004,1.23771 -0.0648,3.72393 1.15755,5.00248 1.12359,1.17531 2.5963,1.2676 4.23959,0.26568 z m -109.259945,-0.18654 c 0.57245,-0.29603 1.04082,-0.77726 1.04082,-1.06941 0,-0.29215 0.23812,-0.62255 0.52916,-0.73424 0.3617,-0.13879 0.52917,-0.70456 0.52917,-1.78766 0,-1.31779 -0.18449,-1.75695 -1.09564,-2.60809 -2.81464,-2.62927 -7.17409,0.06 -5.97704,3.68714 0.56784,1.72055 1.80701,2.74212 3.65061,3.00956 0.15516,0.0225 0.75047,-0.20128 1.32292,-0.4973 z m 101.441355,-0.66122 c 0.98618,-0.98618 1.19945,-1.4649 1.19945,-2.69239 0,-3.97613 -3.71424,-5.51948 -6.66572,-2.76975 -1.45951,1.35974 -0.68801,4.81433 1.35911,6.08577 1.47257,0.91459 2.76522,0.71831 4.10716,-0.62363 z m 17.07445,0.67028 c 0,-0.097 -0.0794,-0.17639 -0.17639,-0.17639 -0.097,0 -0.17639,0.0794 -0.17639,0.17639 0,0.097 0.0794,0.17639 0.17639,0.17639 0.097,0 0.17639,-0.0794 0.17639,-0.17639 z m -115.585665,-17.13397 5.59348,-1.53412 -0.23359,-2.06467 c -0.91679,-8.10338 -5.03322,-15.65643 -11.39078,-20.90044 -3.94096,-3.25069 -7.05337,-4.30839 -9.29477,-3.1587 -1.34479,0.6898 -7.37791,6.43127 -7.37692,7.02032 3.5e-4,0.20743 0.74677,0.84855 1.65871,1.42472 6.7077,4.23796 11.59176,10.74161 13.59602,18.10453 0.5979,2.1965 0.92773,2.88926 1.32519,2.78341 0.29104,-0.0775 3.04624,-0.83129 6.12266,-1.67505 z m -18.82266,-18.49659 c 0,-0.097 0.0794,-0.17638 0.17639,-0.17638 0.097,0 0.17639,0.0794 0.17639,0.17638 0,0.097 -0.0794,0.17639 -0.17639,0.17639 -0.097,0 -0.17639,-0.0794 -0.17639,-0.17639 z m 128.411095,19.65329 c 0,-2.83117 2.52619,-8.57005 5.57424,-12.66331 2.22423,-2.98693 3.91494,-4.50462 8.16777,-7.3319 1.36717,-0.9089 2.48577,-1.83757 2.48577,-2.06371 0,-0.741 -5.08717,-5.33322 -7.00739,-6.32562 -1.06785,-0.55187 -2.44722,-0.97013 -3.19937,-0.97013 -2.98375,0 -9.17513,4.42598 -12.71606,9.09023 -3.6048,4.74839 -6.53914,12.3046 -6.28967,16.19652 l 0.10833,1.69 2.29305,0.49068 c 1.26118,0.26988 3.95993,0.9315 5.99722,1.47028 4.52131,1.1957 4.58611,1.20159 4.58611,0.41696 z"
       id="path130" /></g></svg>
