<?xml version="1.0" encoding="UTF-8" standalone="no"?>
<!-- Created with Inkscape (http://www.inkscape.org/) -->

<svg
   width="280.08746mm"
   height="263.37762mm"
   viewBox="0 0 280.08747 263.37759"
   version="1.1"
   id="svg1"
   xml:space="preserve"
   xmlns="http://www.w3.org/2000/svg"
   xmlns:svg="http://www.w3.org/2000/svg"><defs
     id="defs1"><clipPath
       clipPathUnits="userSpaceOnUse"
       id="clipPath6"><path
         id="path7"
         style="fill:#ff0000;fill-opacity:1;fill-rule:nonzero;stroke:none;stroke-width:0.264583"
         d="M -175.07778,-16.057127 V 287.55793 H 124.54631 V -16.057127 Z m 132.7459,202.572647 c 0.210643,0.005 0.427212,0.0169 0.650089,0.0367 2.23823,0.19855 4.475655,0.4031 6.717938,0.55346 1.973313,0.11308 0.986628,0.0436 2.958475,0.20825 3.181295,0.26563 4.740125,1.85116 4.950601,3.46956 4.949923,1.63749 3.796379,7.35609 -2.592089,6.81354 -3.228716,-0.27422 -1.569593,-0.1301 -4.979024,-0.43357 -4.228209,-0.39317 -8.460616,-0.76265 -12.666927,-1.35341 -6.647387,-0.93358 -5.930551,-7.21034 0.03204,-7.20421 0.04685,5e-5 0.0972,0.004 0.144695,0.005 0.687229,-1.21692 2.304132,-2.15435 4.784204,-2.09548 z" /></clipPath><clipPath
       clipPathUnits="userSpaceOnUse"
       id="clipPath76"><path
         id="path77"
         style="fill:#ff0000;fill-opacity:1;fill-rule:nonzero;stroke:none;stroke-width:0.264583"
         d="M -133.83107,-122.52355 V 173.82063 H 122.97289 V -122.52355 Z M 13.574404,98.948202 c 2.788179,0.0507 4.135003,2.063798 3.398242,4.077268 0.199805,0.45372 0.374906,0.96736 0.517797,1.54461 1.07913,4.35948 0.671079,8.891 0.311608,13.31495 -0.351859,3.06036 -0.147137,1.57974 -0.604097,4.44366 -0.359666,2.25418 -1.333846,3.66838 -2.455664,4.32532 0.105138,0.36595 0.224724,0.72888 0.324528,1.09554 0.6273,2.23652 0.575201,4.47401 0.39429,6.75514 -0.137303,1.73129 -0.688065,2.99533 -1.427303,3.82199 -0.112477,0.41601 -0.170275,0.80219 -0.311092,1.25212 -0.184975,0.59102 -0.413327,1.1061 -0.670242,1.55856 0.741137,-0.23134 1.446982,-0.38145 2.064991,-0.37517 4.085002,0.0415 5.222724,4.75435 -0.02223,7.27138 -4.46677,2.14368 -9.303523,3.34693 -14.11903492,4.40955 -4.40876268,0.85156 -8.89238128,1.33053 -13.38264308,1.19269 -5.804014,-0.17807 -6.736297,-5.00293 -3.065447,-6.67298 -2.072987,-0.65744 -4.042852,-1.62261 -4.128947,-3.14709 -0.02802,-0.49633 0.0026,-0.90355 0.0341,-1.30897 -1.976731,-0.003 -3.95339,2.4e-4 -5.930386,0.003 -0.814031,0 -1.53062,-0.0962 -2.159559,-0.26149 -0.376306,0.19492 -0.742394,0.40783 -1.120862,0.59893 -6.391272,3.22657 -9.625245,-3.24074 -3.234428,-6.46886 1.833438,-0.92611 3.62694,-1.92211 5.414142,-2.92954 -0.877003,-3.87058 -1.368747,-7.83436 -1.323951,-11.80858 0.01651,-1.46304 0.376836,-2.54918 0.864547,-3.41426 -1.247357,-1.79999 -0.223805,-4.63069 3.842661,-5.68855 3.11826,-0.81116 6.282901,-1.39515 9.473837,-1.82211 -1.259816,-0.12657 -2.516182,-0.30233 -3.764627,-0.50177 -1.477002,-0.21985 -2.935575,-0.54305 -4.407482,-0.7891 -1.14214,-0.22954 -0.588502,-0.12004 -1.660882,-0.3297 -3.350244,-0.65501 -4.783278,-2.61088 -4.608504,-4.32997 -0.200179,-1.7721 1.333365,-3.52972 4.663799,-3.59461 v -5.3e-4 c 0.20954,-0.004 0.426035,-0.002 0.649571,0.008 1.77111,0.0772 3.528708,0.28204 5.26428,0.64027 1.655035,0.33225 3.314115,0.6481 4.955251,1.04439 1.244759,0.34858 2.51628,0.54538 3.7997689,0.6723 0.025956,0.002 0.052073,0.002 0.078034,0.004 0.4990888,-0.0371 0.9984105,-0.0743 1.4965495,-0.11317 1.346872,-0.12588 2.6913231,-0.25136 4.0457464,-0.24236 1.1278499,-0.0444 2.2567291,-0.10772 3.37498791,-0.26872 0.75719517,-0.11591 1.51142439,-0.25483 2.25722659,-0.4284 0.3616431,-0.12394 0.7240561,-0.24538 1.083138,-0.37775 0.3360393,-0.12388 0.6107589,-0.12825 0.9250071,-0.20723 0.1281086,-0.045 0.2583895,-0.0825 0.3855085,-0.13074 1.9825018,-0.7681 3.9540551,-1.56464 5.9510551,-2.29443 1.050809,-0.383992 1.999634,-0.542639 2.826703,-0.527616 z M 0.70283723,110.39557 c -0.45566013,0.0949 -0.90775367,0.208 -1.36890919,0.2744 -1.16638124,0.15534 -2.34111274,0.24237 -3.51761424,0.26251 0.4031694,0.0896 0.8047355,0.18876 1.2025101,0.308 0.1014836,0.0304 0.1982549,0.075 0.2986907,0.10852 0.4205235,-0.21824 0.9206601,-0.35072 1.4898318,-0.37156 0.39885139,-0.0146 0.83259872,0.0278 1.29449508,0.13023 0.22468681,-0.12213 0.44967525,-0.24374 0.67437529,-0.36587 -0.0326284,-0.11319 -0.058211,-0.22834 -0.0733795,-0.34623 z m 10.24433577,1.02474 c -0.76023,0.21437 -1.5189569,0.4343 -2.2696301,0.68006 -0.031261,0.62207 -0.2256075,1.28373 -0.6464723,1.94355 0.6236891,0.43248 1.2549743,1.04482 1.8634525,1.86862 0.2674939,0.36214 0.4748849,0.75712 0.7188199,1.13223 0.154519,-1.86707 0.314174,-3.74736 0.33383,-5.62446 z m 64.566086,3.39773 c 1.50346,0.0187 3.129182,1.24994 3.928441,4.04678 0.257931,0.90255 0.823497,1.65871 1.488797,2.30735 0.856321,0.95375 1.845738,1.76777 2.801898,2.61638 1.458581,1.46408 2.789203,3.04608 4.169772,4.58215 1.315059,1.44746 2.571226,2.91698 3.543967,4.61884 0.0053,0.01 0.0082,0.0206 0.01344,0.0305 0.734605,-0.43313 1.446276,-0.65634 2.094962,-0.69195 3.016182,-0.16561 4.69137,3.55377 1.187525,7.32306 -1.69471,1.82311 -3.657862,3.33908 -5.68751,4.7651 -0.777873,0.49914 -1.607691,0.90075 -2.418456,1.33842 0.165478,1.44344 -0.672182,3.24303 -2.956409,4.73096 -1.354556,0.88234 -2.690448,1.79306 -4.075203,2.6288 -2.075008,1.20078 -4.233777,2.27962 -6.540687,2.96259 -2.077586,0.62971 -4.169056,1.29987 -6.359301,1.36374 -1.872114,0.0897 -3.746989,0.0368 -5.620845,0.0501 h -5.1108 -5.524728 c -7.160125,0 -7.160125,-7.23315 0,-7.23315 h 1.347722 c 0.29438,-0.0541 0.5212,-0.1588 0.84801,-0.18656 1.106628,-0.094 2.200932,-0.28334 3.292822,-0.48421 0.456121,-0.98163 1.356053,-1.98213 2.807581,-2.83962 1.078018,-0.63685 2.158119,-1.26923 3.212209,-1.94561 1.962647,-1.29302 3.840588,-2.72135 5.893696,-3.86902 1.367169,-0.76424 2.559646,-1.07097 3.526915,-1.04128 2.216811,0.068 3.246223,1.90266 2.479953,4.04059 1.105688,-0.48686 2.206929,-0.98346 3.283003,-1.53739 2.619811,-1.23728 5.288743,-2.38548 7.764385,-3.9026 0.246153,-0.17184 0.487463,-0.34958 0.730705,-0.52503 -0.126915,-0.50614 -0.277693,-0.9939 -0.512114,-1.46554 -0.647621,-1.25778 -1.721077,-2.20654 -2.600875,-3.29644 -1.199229,-1.33472 -2.369312,-2.69496 -3.592029,-4.00803 -1.098706,-0.97599 -2.227236,-1.92181 -3.215306,-3.01428 -1.300821,-1.39063 -2.459913,-2.93896 -3.045293,-4.77801 -1.289469,-4.05101 0.646382,-6.61405 2.843754,-6.58667 z m -95.086705,4.28035 c -0.465643,0.10748 -0.930899,0.21773 -1.394745,0.33435 0.171958,0.64334 0.283575,1.36624 0.279569,2.2071 -0.01267,2.6582 0.205063,5.32647 0.670242,7.94732 0.280107,-0.17087 0.565767,-0.33222 0.845429,-0.50385 -0.01897,-0.36223 -0.02445,-0.73164 -0.05529,-1.08985 -0.118034,-2.96491 -0.160888,-5.93314 -0.3452,-8.89507 z m 18.5141159,1.1958 c 0.00497,0.0773 0.00619,0.15612 0.014975,0.23202 -0.1238779,0.22787 -0.2588048,0.44752 -0.3937741,0.66715 0.58900751,0.0447 1.13203305,0.21413 1.64331124,0.45888 -0.37615284,-0.49255 -0.78353709,-0.94642 -1.26452314,-1.35805 z m -6.5422357,14.57068 c -0.046649,0.0755 -0.09888,0.14702 -0.1436608,0.22376 -0.03147,0.054 0.1963367,0.0838 0.1860365,0.0222 -0.017595,-0.10481 -0.026035,-0.14905 -0.042376,-0.24597 z m 13.9236979,6.08439 c -0.2236258,0.5643 -0.5677508,1.09664 -1.1782213,1.50533 0.9079653,0.17659 1.7077452,0.44257 2.2830631,0.84852 0.1405493,-0.0459 0.272804,-0.11448 0.4128956,-0.16174 -0.7336976,-0.43656 -1.2984269,-1.18703 -1.5177374,-2.19211 z" /></clipPath><clipPath
       clipPathUnits="userSpaceOnUse"
       id="clipPath127"><path
         id="path128"
         style="fill:#ff0000;fill-opacity:1;fill-rule:nonzero;stroke:none;stroke-width:0.264583"
         d="M -112.24796,-126.55676 V 185.58027 H 148.5754 V -126.55676 Z M 46.874626,83.305366 c 1.808208,0 3.616317,1.790192 3.616317,5.370214 v 5.232238 c 0.0627,2.146078 -0.111291,4.285324 -0.245462,6.424932 -0.136289,2.02485 -0.190703,4.04985 -0.104904,6.07715 0.192061,1.91863 0.527714,3.82569 0.876432,5.72213 0.304242,2.00862 0.765826,3.9858 1.180806,5.97276 0.41642,1.86142 0.967934,3.68703 1.421104,5.53972 0.25287,0.86996 0.117097,0.46495 0.396356,1.22008 0.186108,0.50319 0.223428,0.93098 0.309544,1.38441 4.425355,2.23251 2.751262,7.58433 -3.415813,6.40477 -3.104732,-0.59371 -6.256094,-0.76586 -9.40821,-0.85576 -3.81635,0.009 -7.630525,0.17062 -11.44478,0.28216 -1.12776,0.0333 -2.255837,0.0512 -3.383772,0.0754 -0.908129,0.5548 -1.966518,0.57724 -2.88613,0.0641 -0.03584,5.3e-4 -0.07165,0.002 -0.107487,0.003 -0.03142,5.3e-4 -0.0525,-0.009 -0.08268,-0.009 -0.32049,0.14732 -0.641715,0.29301 -0.962215,0.44028 -0.262501,0.12062 -0.518089,0.22111 -0.770496,0.31265 -0.876996,0.71434 -1.945576,0.85817 -2.911967,0.46405 -2.943479,-0.21613 -4.295167,-2.77187 -2.550232,-5.0524 -2.22e-4,-0.028 -0.0078,-0.0483 -0.0078,-0.0765 v -6.3469 c -0.014,-2.72977 -0.02254,-5.45666 0.112657,-8.18348 0.135676,-2.32533 0.233519,-4.6523 0.299723,-6.98046 0.046,-1.80459 0.06926,-3.60958 0.08527,-5.41465 -0.0258,-1.02998 0.04009,-2.054459 0.138491,-3.078883 0.0044,-0.04602 0.02191,-0.07504 0.02687,-0.120406 C 15.992671,97.193438 15.83363,95.70984 16.656834,94.418959 10.68718,93.678613 10.992573,87.32947 17.739972,87.32947 h 3.885033 5.177462 5.913334 c 1.498505,0.05847 2.984222,-0.03228 4.475178,-0.161748 1.252041,-0.18606 2.49041,-0.398671 3.697968,-0.782897 1.001961,-0.32245 0.492366,-0.161472 1.527553,-0.482142 0.510384,-0.158096 0.938446,-0.174371 1.394749,-0.23771 0.672338,-1.56932 1.86623,-2.35903 3.063377,-2.35903 z" /></clipPath><clipPath
       clipPathUnits="userSpaceOnUse"
       id="clipPath139"><path
         id="path140"
         style="fill:#ff0000;fill-opacity:1;fill-rule:nonzero;stroke:none;stroke-width:0.264583"
         d="M 97.168006,-339.91235 V -44.578961 H 346.46958 V -339.91235 Z m 14.326254,94.53944 c 1.76488,0.006 3.77708,1.78446 4.35839,5.31699 0.32911,1.99994 0.60308,4.00817 0.88884,6.01462 1.02527,-1.2445 2.22305,-1.83589 3.28403,-1.8402 2.05627,-0.008 3.59454,2.17302 2.34611,6.00222 -0.0197,0.0606 -0.0413,0.12046 -0.0615,0.18087 0.31698,0.91799 0.41757,2.09982 0.17777,3.54139 -0.2164,1.30085 -0.62011,2.56457 -1.0263,3.8163 -1.34183,4.13496 -4.42238,4.92072 -6.12882,3.38016 -1.93867,0.62007 -4.30523,-0.86149 -4.65605,-4.82762 -0.16862,-1.90632 -0.33891,-3.81275 -0.57464,-5.71231 -0.45291,-3.52522 -1.07719,-7.02592 -1.48208,-10.55543 -0.40801,-3.55672 1.10935,-5.32303 2.87424,-5.31699 z" /></clipPath></defs><g
     id="layer1"
     transform="translate(-207.32389,283.20038)"><path
       style="fill:#000000"
       d="m 317.6072,-20.209973 c -17.93292,-2.277593 -29.7531,-8.317846 -36.26977,-18.53429 -2.83293,-4.441287 -2.22355,-4.046035 -5.25098,-3.405872 -1.44913,0.306425 -4.14291,0.745669 -5.98617,0.976097 -4.16439,0.520592 -14.80815,0.541223 -16.90746,0.03277 -1.11783,-0.270737 -2.12039,-0.268505 -3.52778,0.0079 -3.29409,0.646832 -8.97482,0.466566 -12.54704,-0.398154 -3.82198,-0.925177 -9.4285,-3.55192 -12.42027,-5.819095 -7.05132,-5.343501 -13.47269,-15.582565 -16.06307,-25.613042 -1.84281,-7.13575 -1.73553,-15.003031 0.2777,-20.364112 4.34339,-11.566139 17.31601,-15.827889 30.19688,-9.920239 l 2.34646,1.07618 2.50619,-0.57002 c 1.3784,-0.31351 3.73562,-0.66067 5.23826,-0.77146 1.50264,-0.11079 2.94569,-0.26828 3.20678,-0.34998 0.29116,-0.0911 -0.55905,-1.11396 -2.19897,-2.64547 -2.99365,-2.79574 -5.75083,-6.66471 -6.94068,-9.73943 -1.07368,-2.77449 -1.15374,-7.09236 -0.16879,-9.10296 2.16589,-4.42129 10.07443,-8.86287 17.04382,-9.57212 2.05514,-0.20915 2.58602,-0.42056 3.96074,-1.57734 3.3898,-2.8524 6.91516,-3.67537 10.52129,-2.45612 l 2.23101,0.75431 2.3551,-0.75546 c 1.29531,-0.4155 2.58009,-0.82323 2.85506,-0.90607 0.69225,-0.20853 0.33296,-0.5056 -3.22579,-2.66722 -6.21969,-3.77791 -11.0677,-8.82565 -14.20485,-14.79007 -1.73727,-3.30293 -3.29946,-8.32989 -3.78618,-12.18353 -1.00891,-7.98804 1.57587,-17.2244 6.80727,-24.32482 3.72506,-5.05591 10.53692,-11.23734 14.67112,-13.31333 1.92817,-0.96823 1.81229,-0.76435 3.48734,-6.13548 0.0752,-0.2411 -1.07657,-1.25708 -2.55947,-2.25773 -10.10722,-6.82028 -15.96124,-19.39405 -15.1526,-32.54606 0.3968,-6.45371 1.80094,-10.4233 4.87781,-13.78989 3.33503,-3.64905 9.07732,-5.53828 13.62316,-4.48205 l 1.51,0.35085 1.39851,-2.05939 c 1.86421,-2.74517 4.84951,-5.93148 7.6309,-8.1447 10.61913,-8.4499 23.02746,-9.33604 30.04734,-2.14584 2.16947,2.22211 1.71638,2.20234 6.93937,0.30271 3.27825,-1.19232 8.79792,-2.57066 13.09422,-3.2698 4.67393,-0.76059 18.97344,-1.06137 23.83473,-0.50134 15.95596,1.83816 31.73711,8.03623 45.73986,17.96441 5.68775,4.0327 11.89785,10.31774 15.8371,16.0282 1.11181,1.6117 1.18407,1.65165 2.99861,1.65763 6.61703,0.0218 15.22786,4.47758 20.51758,10.61708 1.84667,2.14334 3.93259,5.72982 4.89322,8.41331 l 0.80752,2.25579 4.0483,2.43805 c 5.89997,3.55322 9.21102,6.01315 13.12013,9.74759 5.3194,5.08171 8.39066,9.55064 8.39066,12.2091 0,1.94444 -1.24203,3.94917 -4.30245,6.94448 -4.82638,4.7237 -11.31213,8.62046 -18.80449,11.29807 -4.40856,1.57552 -11.17169,3.30288 -14.33153,3.66037 -1.30139,0.14724 -2.20498,0.43051 -2.31872,0.72694 -0.10251,0.26713 0.0784,1.79291 0.40211,3.39063 2.56076,12.64067 0.93376,26.39586 -4.23931,35.84052 -5.93223,10.8307 -17.42266,19.35058 -29.29902,21.72452 -4.27798,0.85512 -4.49096,0.91875 -4.15136,1.24031 0.17358,0.16437 2.38085,1.3506 4.90504,2.63607 2.52418,1.28548 5.94238,3.33765 7.596,4.5604 l 3.00657,2.22317 2.20336,-0.15938 c 1.21185,-0.0877 2.87365,0.0285 3.69289,0.25805 3.33959,0.93591 6.4427,4.30971 6.86589,7.464819 0.20845,1.554074 0.35354,1.688266 5.11167,4.727576 1.21502,0.776111 3.7326,2.919236 5.59462,4.7625 2.84205,2.813429 3.63506,3.856765 4.9403,6.499792 1.32911,2.691348 1.55352,3.459542 1.54584,5.291666 -0.0262,6.254658 -7.88269,13.439832 -17.40853,15.920999 -5.00491,1.303612 -10.99748,1.480709 -15.99088,0.472574 -1.69777,-0.34277 -2.23487,-0.316536 -3.44672,0.168351 -1.84901,0.739826 -5.42545,0.736171 -7.72933,-0.0079 -2.04976,-0.661999 -4.29934,-2.438792 -5.50419,-4.347384 -0.67831,-1.074518 -1.23232,-1.434168 -3.20856,-2.082921 -1.31377,-0.431282 -3.58384,-1.336348 -5.04459,-2.011257 -1.46075,-0.674909 -2.86175,-1.148122 -3.11332,-1.051586 -0.27779,0.106601 -0.45739,0.778807 -0.45739,1.711927 0,2.833675 -1.09532,8.149593 -2.61051,12.669674 l -1.50262,4.482549 1.64851,1.024768 c 3.20436,1.991941 4.55142,4.96806 3.87146,8.553435 -0.19168,1.010747 -0.34851,1.992013 -0.34851,2.180592 0,0.47275 1.57581,0.05631 3.75496,-0.992332 1.54433,-0.743149 1.9648,-1.174331 2.82223,-2.894074 0.86958,-1.744124 1.15846,-2.035505 2.10981,-2.128067 1.73284,-0.168595 2.35508,0.711843 2.17724,3.080702 -0.33885,4.513759 -4.50157,10.199973 -9.18087,12.540932 -2.17777,1.089491 -2.81467,1.243974 -5.17035,1.254072 -1.72605,0.0074 -3.38036,0.255546 -4.62691,0.694039 -3.7256,1.310537 -8.55058,0.505444 -11.60312,-1.93609 -0.85192,-0.681401 -1.75623,-1.23891 -2.00957,-1.23891 -0.25334,0 -1.4526,0.581385 -2.66503,1.291968 -7.99656,4.686659 -17.34712,7.913735 -27.46672,9.479349 -5.15117,0.796942 -20.37021,1.00845 -25.51807,0.35464 z m 20.40279,-4.604703 c 8.96874,-0.63114 20.45613,-3.943437 28.39861,-8.188512 8.3882,-4.4833 14.86271,-11.030197 18.31828,-18.523066 2.33644,-5.066223 4.28254,-12.620874 4.80614,-18.657163 l 0.23314,-2.687767 -1.18364,-0.880551 c -1.27883,-0.951362 -4.29501,-2.739747 -4.6207,-2.739747 -0.11004,0 -0.61797,0.713103 -1.12875,1.584674 -1.62246,2.768515 -5.89028,7.576618 -8.82468,9.941828 -2.81583,2.269641 -6.83083,4.544049 -9.54007,5.40423 -0.77611,0.246415 -1.56268,0.536016 -1.74793,0.643557 -0.18525,0.107542 -0.82025,0.247956 -1.41111,0.312032 -0.59086,0.06408 -3.29679,0.525722 -6.01318,1.025881 -2.71639,0.500159 -7.39951,1.281688 -10.40694,1.736732 -3.00743,0.455043 -5.46806,0.837275 -5.46806,0.849403 0,12.451491 -0.90988,17.264239 -4.36444,23.085397 -1.35237,2.278816 -4.09614,5.279437 -5.86611,6.415246 l -1.05834,0.679143 1.41112,0.216562 c 1.38946,0.213241 2.88844,0.174666 8.46666,-0.217879 z m -13.42042,-0.318698 c 1.69464,-0.708063 5.9431,-4.587539 6.58891,-6.01665 0.17772,-0.39329 0.71015,-1.245865 1.18316,-1.89461 0.9555,-1.310476 2.8118,-5.893049 3.17414,-7.835843 0.20845,-1.117702 0.13321,-1.300155 -0.691,-1.675694 -0.50871,-0.231784 -1.51602,-0.421425 -2.23845,-0.421425 h -1.31352 l -0.80188,2.58325 c -0.44104,1.420788 -1.33948,3.65176 -1.99655,4.957717 l -1.19466,2.374466 0.85722,0.390576 c 0.47147,0.214817 0.85722,0.523844 0.85722,0.686727 0,0.403853 -0.23992,0.372611 -1.05695,-0.137633 -0.61463,-0.383842 -0.89915,-0.232316 -2.47118,1.31608 -0.97712,0.962426 -1.69926,1.951379 -1.60474,2.197674 0.0945,0.246295 -0.0393,0.447809 -0.29742,0.447809 -0.2581,0 -1.8803,0.664609 -3.6049,1.476908 -2.77711,1.308036 -3.0348,1.505703 -2.2537,1.728724 1.56196,0.445974 5.62288,0.340624 6.8643,-0.178076 z m 5.48292,-6.731723 c 0,-0.09701 0.0794,-0.176389 0.17639,-0.176389 0.097,0 0.17639,0.07937 0.17639,0.176389 0,0.09701 -0.0794,0.176389 -0.17639,0.176389 -0.097,0 -0.17639,-0.07938 -0.17639,-0.176389 z m -12.92974,3.78092 c 1.29583,-0.606394 2.44467,-1.333449 2.55297,-1.615678 0.10831,-0.282229 0.67266,-0.710204 1.25413,-0.951056 1.1331,-0.469345 3.96358,-3.875084 3.55033,-4.271891 -0.13669,-0.131247 -1.8354,-0.658478 -3.77493,-1.171624 -1.93952,-0.513146 -4.49198,-1.319283 -5.67212,-1.791415 -1.18014,-0.472132 -2.3845,-0.858422 -2.67636,-0.858422 -0.29185,0 -1.06491,0.674688 -1.71791,1.499306 -0.653,0.824618 -1.40275,1.631181 -1.6661,1.792363 -0.26335,0.161182 -0.6158,0.653333 -0.78322,1.09367 -0.3752,0.986848 -4.74525,3.137152 -7.56547,3.722629 -1.08284,0.224796 -1.9688,0.485623 -1.9688,0.579615 0,0.360004 4.16735,2.062521 6.52639,2.666274 1.7861,0.457119 3.45396,0.601121 6.02724,0.520386 3.11395,-0.0977 3.85171,-0.249165 5.91385,-1.214157 z m 66.90474,-4.228359 c 0,-0.149077 -0.63689,-1.041771 -1.41531,-1.983763 -0.77841,-0.941993 -1.51,-2.09002 -1.62574,-2.551172 -0.11574,-0.461152 -0.31229,-0.83169 -0.43678,-0.823417 -0.12449,0.0083 -0.93284,0.635311 -1.79633,1.393417 l -1.57,1.378376 0.68805,0.773072 c 0.37843,0.42519 1.32305,1.064666 2.09916,1.421057 1.41089,0.64788 4.05695,0.903835 4.05695,0.39243 z m -81.66805,-1.446157 c 4.97626,-2.326739 8.63855,-7.866599 10.29229,-15.568902 0.98654,-4.594816 0.88564,-15.698125 -0.17773,-19.558697 -1.56462,-5.680345 -4.96136,-10.785068 -9.04695,-13.596028 -4.18604,-2.880074 -9.26126,-2.724582 -13.98289,0.4284 -3.68683,2.461968 -6.65626,7.282876 -8.17079,13.2654 -0.66037,2.608497 -0.77078,3.987962 -0.75287,9.406759 0.0177,5.345284 0.13989,6.782147 0.77247,9.081259 1.59504,5.797262 3.61825,9.662777 6.77897,12.951803 4.65422,4.843151 9.1769,5.979561 14.2875,3.590006 z m 93.55187,-0.455544 c 1.438,-0.672512 3.99118,-3.119701 3.99118,-3.825487 0,-0.469548 -0.008,-0.467826 -1.98363,0.430854 -1.27627,0.580531 -2.49483,0.802046 -4.71915,0.857868 -1.64924,0.04139 -3.51802,0.183989 -4.15285,0.316889 -1.01957,0.213445 -1.29739,0.08985 -2.38125,-1.059375 -0.67486,-0.715556 -1.22701,-1.527834 -1.22701,-1.80506 0,-0.801584 1.21186,-0.585226 2.11667,0.377896 1.01938,1.085081 1.41111,1.115876 1.41111,0.110932 0,-2.380966 -4.13329,-3.333711 -5.26761,-1.214212 -0.84797,1.584428 0.71968,3.915501 3.62897,5.396255 3.17111,1.614013 5.75077,1.738266 8.58357,0.41344 z m -69.77408,-3.407434 c 0.88776,-1.745215 2.19741,-6.054367 1.95786,-6.441969 -0.10565,-0.17094 0.033,-0.988697 0.30804,-1.817239 1.76323,-5.311036 0.54688,-15.331881 -2.63225,-21.685701 -1.70007,-3.397759 -4.52858,-6.958872 -6.90403,-8.692201 -0.92991,-0.678539 -2.08762,-1.617461 -2.57269,-2.086494 -1.9328,-1.868897 -7.8926,-4.848984 -9.69737,-4.848984 -0.80621,0 -0.64664,0.238237 1.54316,2.303985 3.76381,3.550591 6.62628,8.812361 7.63524,14.035033 1.63827,8.480176 0.76813,17.583675 -2.39369,25.04313 -0.50457,1.190379 -0.60739,1.805579 -0.34554,2.067429 0.20503,0.205027 1.77606,0.746773 3.49118,1.20388 1.71513,0.457106 4.30878,1.218325 5.76367,1.691597 1.4549,0.473272 2.76685,0.78535 2.91546,0.693505 0.14861,-0.09184 0.56754,-0.751531 0.93096,-1.465971 z m -4.19863,-8.707314 c 0,-0.09701 0.0794,-0.176388 0.17639,-0.176388 0.097,0 0.17639,0.07937 0.17639,0.176388 0,0.09701 -0.0794,0.176389 -0.17639,0.176389 -0.097,0 -0.17639,-0.07937 -0.17639,-0.176389 z m 0.82315,-0.0588 c 0.12935,-0.129352 0.34102,-0.129352 0.47037,0 0.12935,0.129352 0.0235,0.235185 -0.23518,0.235185 -0.25871,0 -0.36454,-0.105833 -0.23519,-0.235185 z m -0.47037,-0.646759 c 0,-0.09701 0.0794,-0.176389 0.17639,-0.176389 0.097,0 0.17639,0.07937 0.17639,0.176389 0,0.09701 -0.0794,0.176389 -0.17639,0.176389 -0.097,0 -0.17639,-0.07937 -0.17639,-0.176389 z m 69.14444,3.845277 c 0,-1.375141 -0.18303,-1.805813 -1.19944,-2.822222 -1.60915,-1.609148 -2.48317,-1.559332 -3.37688,0.192469 -0.77113,1.51154 -0.777,1.500161 1.08486,2.099778 0.69907,0.225137 1.63956,0.801608 2.08997,1.281047 1.15562,1.230102 1.40149,1.098337 1.40149,-0.751072 z m -55.26472,-1.3597 c 0.47821,-1.246207 0.63756,-7.547446 0.24478,-9.67956 -0.22849,-1.240302 -0.47703,-2.987851 -0.55232,-3.883441 -0.19046,-2.265667 -1.51067,-6.414907 -2.32055,-7.293191 -0.37111,-0.402449 -0.58066,-0.825818 -0.46566,-0.940819 0.32183,-0.321823 -1.06254,-3.210293 -2.35526,-4.914244 -1.28744,-1.697002 -5.45501,-5.399039 -7.38866,-6.563335 -0.68806,-0.414294 -1.95806,-0.852423 -2.82223,-0.973621 l -1.57121,-0.220359 1.24229,1.174831 c 0.68326,0.646157 1.85001,1.699801 2.59278,2.341431 0.74276,0.64163 2.35316,2.70538 3.57864,4.586111 1.22549,1.880731 2.54292,3.766372 2.92763,4.190314 0.3847,0.423942 0.62058,0.849687 0.52417,0.946099 -0.0964,0.09641 0.3469,2.130801 0.98514,4.520863 1.09524,4.101416 1.16161,4.691525 1.18128,10.503163 l 0.0208,6.157596 0.88194,0.245433 c 1.56278,0.4349 3.08885,0.343573 3.29639,-0.197271 z m -85.66999,-1.437907 c 2.07892,-0.575882 4.62798,-2.346447 4.96106,-3.445925 0.12942,-0.42721 0.51857,-1.094245 0.86478,-1.4823 0.76856,-0.861451 1.75888,-3.720337 1.75888,-5.07759 v -0.995988 l -4.85069,0.169718 c -2.66788,0.09334 -4.89196,0.269275 -4.9424,0.390956 -0.0504,0.12168 -0.60606,1.076426 -1.23472,2.121656 -0.62866,1.045231 -1.32576,2.214923 -1.54911,2.599316 -0.74246,1.277823 -4.15093,3.782914 -5.94164,4.366867 -2.4051,0.784313 -2.54601,0.900194 -1.56189,1.284485 2.23205,0.871599 9.45411,0.911365 12.49573,0.0688 z m 21.3948,-0.01534 c 4.27546,-0.619265 5.35034,-1.004385 5.09741,-1.826358 -0.59835,-1.944483 -1.26589,-7.847061 -1.2667,-11.200419 -0.002,-8.600203 2.71604,-16.879548 7.40102,-22.5434 2.35394,-2.845768 3.74364,-3.942447 6.70819,-5.293724 3.6477,-1.662671 6.09982,-2.086524 10.75972,-1.859836 l 4.23333,0.205937 1.49466,-5.310994 c 0.82206,-2.921047 2.06784,-6.683692 2.7684,-8.361432 0.70056,-1.67774 1.74137,-4.32044 2.31291,-5.87266 1.26527,-3.43629 4.88809,-11.02276 6.36254,-13.32365 l 1.07784,-1.68199 -1.91217,-1.84579 c -2.20902,-2.13234 -3.32748,-4.22615 -3.72066,-6.96528 l -0.27791,-1.93607 -1.75975,-0.46354 c -2.61109,-0.68779 -7.50524,-0.92146 -9.65293,-0.46086 -5.3026,1.1372 -15.03926,11.73652 -20.4467,22.25823 -2.18311,4.24787 -5.35039,12.29578 -5.35039,13.595091 0,0.267727 1.15094,1.087505 2.55764,1.821729 2.73553,1.427805 7.46039,5.759274 8.52226,7.812703 0.90567,1.75137 0.10042,1.44751 -4.41827,-1.667221 -6.75304,-4.654878 -9.96414,-6.157139 -16.7158,-7.820209 -3.17759,-0.782706 -11.11505,-1.24634 -13.53429,-0.79055 l -1.53986,0.290111 1.93857,1.335147 c 6.51827,4.489301 11.06541,11.021065 13.95735,20.049087 1.83295,5.722103 2.28343,8.968219 2.07452,14.948615 -0.26548,7.599279 -1.71136,12.132445 -4.98654,15.633878 -0.88383,0.944886 -1.49158,1.833366 -1.35054,1.974399 0.31181,0.31181 5.04241,-0.03123 9.66615,-0.700944 z m -13.02248,-0.382168 c 2.20388,-1.110037 4.50978,-4.39831 5.73508,-8.178374 0.72895,-2.248797 0.49552,-2.613559 -1.57452,-2.460389 l -1.49771,0.11082 -1.01967,2.802533 c -0.56082,1.541394 -1.01967,3.039302 -1.01967,3.328685 0,0.498208 -2.67818,3.966335 -3.25643,4.216929 -0.14924,0.06468 -0.27134,0.345513 -0.27134,0.624083 0,0.575247 1.26397,0.381888 2.90426,-0.444287 z m -21.75371,-2.408525 c 3.69548,-1.112298 7.32356,-5.065956 8.95765,-9.761512 0.99329,-2.854227 1.33742,-8.895547 0.74284,-13.041078 -2.07271,-14.451475 -13.72855,-28.884883 -23.32627,-28.884883 -3.45903,0 -6.09566,1.541324 -8.65661,5.060496 -3.93545,5.407968 -4.3183,14.01509 -1.06513,23.946147 2.36418,7.21719 5.68762,12.771839 10.62336,17.755408 4.97162,5.0198 8.22567,6.279416 12.72416,4.925422 z m 111.2029,-8.486622 c 1.88414,-0.277494 4.3782,-0.734213 5.54237,-1.014931 4.57004,-1.101984 6.87917,-1.698405 6.87917,-1.776812 0,-0.591029 -1.64158,-4.562934 -2.29216,-5.546026 -1.43751,-2.17223 -5.1534,-5.934291 -7.30391,-7.394678 -7.39288,-5.020407 -17.46383,-7.862024 -24.02251,-6.778185 l -1.33941,0.221342 4.02981,3.919914 c 3.66998,3.569888 4.17377,4.219175 5.64196,7.271303 1.48693,3.091096 3.414,9.476907 3.414,11.313138 0,0.760911 0.0674,0.772862 3.01249,0.533901 1.65687,-0.134438 4.55406,-0.471473 6.43819,-0.748966 z m -90.71038,-0.690554 c 0.98244,-0.312616 1.16847,-1.086338 1.17433,-4.884373 l 0.005,-3.119909 -1.85209,0.25676 c -1.01864,0.141217 -3.0427,0.354552 -4.49791,0.474076 l -2.64584,0.217316 -0.20689,1.940277 c -0.1138,1.067153 -0.33176,2.766742 -0.48437,3.776864 l -0.27747,1.836586 4.01215,-0.1277 c 2.20668,-0.07024 4.35465,-0.236689 4.77327,-0.369897 z m 7.43426,-0.463632 c 0.24615,-0.156362 0.60965,-1.8181 0.83911,-3.836022 0.34455,-3.03003 0.32599,-3.718199 -0.12464,-4.621508 -0.29184,-0.584994 -0.40553,-1.261889 -0.25333,-1.508162 0.42676,-0.690509 -0.53062,-6.020397 -1.58028,-8.797639 -0.25666,-0.679097 -0.72386,-2.107847 -1.03822,-3.174999 -0.31436,-1.067153 -0.95696,-2.575278 -1.428,-3.351389 -0.47103,-0.776111 -1.38349,-2.36064 -2.02767,-3.521176 -1.08052,-1.946602 -7.41393,-9.002434 -8.08071,-9.002434 -0.16029,0 -1.10685,-0.480785 -2.10346,-1.068411 -2.11987,-1.249918 -4.54592,-1.973535 -5.45153,-1.626022 -0.55506,0.212999 -0.48148,0.359265 0.56296,1.119066 1.51911,1.105098 5.58741,5.096607 7.13697,7.002239 2.21601,2.725248 4.57964,6.63363 5.9664,9.865752 0.7618,1.775514 1.53083,3.37902 1.70896,3.563347 0.17814,0.184326 0.32388,0.61849 0.32388,0.964808 0,0.346318 0.39688,1.999202 0.88195,3.673075 0.48507,1.673873 0.88194,3.422521 0.88194,3.885886 0,0.463364 0.11906,0.842376 0.26458,0.842248 0.14553,-1.27e-4 0.20968,2.222372 0.14256,4.938889 l -0.12202,4.93912 1.53313,-0.0054 c 0.84323,-0.003 1.72857,-0.129541 1.96742,-0.281266 z m -2.72734,-9.061942 c 0,-0.09701 0.0794,-0.176389 0.17639,-0.176389 0.097,0 0.17639,0.07937 0.17639,0.176389 0,0.09701 -0.0794,0.176388 -0.17639,0.176388 -0.097,0 -0.17639,-0.07937 -0.17639,-0.176388 z m 0.70556,-0.117593 c 0,-0.16169 0.23114,-0.293982 0.51365,-0.293982 0.28251,0 0.43189,0.132292 0.33196,0.293982 -0.0999,0.16169 -0.33108,0.293981 -0.51365,0.293981 -0.18258,0 -0.33196,-0.132291 -0.33196,-0.293981 z m 102.50464,6.306497 c 3.29213,-1.523777 8.17886,-5.255883 11.4253,-8.725745 1.56172,-1.669208 2.8395,-3.163289 2.8395,-3.32018 0,-0.156892 0.40089,-0.876014 0.89088,-1.598051 1.3277,-1.956469 1.46855,-2.891794 0.53404,-3.546348 -3.40896,-2.387729 -8.83611,-7.334607 -9.65809,-8.803413 -0.24978,-0.446336 -0.16709,-0.506355 0.43456,-0.315399 0.9545,0.302946 0.94247,0.210445 -0.29008,-2.231231 -1.08725,-2.15383 -1.93111,-5.040154 -2.33523,-7.987424 -0.39321,-2.867656 0.37487,-1.417638 1.02778,1.940278 1.1601,5.966461 2.72083,7.84395 10.41068,12.52361 2.55069,1.552222 5.70744,3.509344 7.01501,4.349159 2.6243,1.685522 13.76697,7.060336 17.37044,8.378863 2.50646,0.917125 4.56586,1.078387 5.74086,0.449542 1.71234,-0.916416 7.5292,-7.723846 9.39391,-10.993634 0.64281,-1.127171 1.24812,-1.970027 1.34513,-1.873013 0.097,0.09701 -0.33394,1.068351 -0.95768,2.158527 -0.62373,1.090176 -1.05288,2.063317 -0.95366,2.162535 0.21493,0.214934 -0.22572,1.052529 -1.92757,3.663931 -1.53965,2.362511 -4.75254,5.343453 -6.85754,6.362463 -0.85256,0.41272 -1.55011,0.905424 -1.55011,1.094899 0,1.610612 2.79368,3.220141 5.64444,3.25194 2.81361,0.03138 5.66163,-1.594441 8.98905,-5.131508 3.21902,-3.421839 5.34997,-6.598358 8.19446,-12.215152 2.4665,-4.87041 3.98506,-9.246102 3.97934,-11.466346 -0.005,-1.886783 -0.80031,-4.513118 -1.97293,-6.514038 -0.6594,-1.125182 -1.35687,-1.759332 -2.48275,-2.257362 -2.18663,-0.96725 -3.15404,-0.77944 -3.02642,0.58753 0.1918,2.054451 0.18496,2.481561 -0.0594,3.704165 -0.50889,2.546461 -0.94199,3.811265 -1.4492,4.232211 -0.28751,0.238614 -0.42183,0.614294 -0.29849,0.834844 0.1412,0.252471 0.0525,0.24186 -0.2395,-0.02865 -0.37672,-0.349003 -0.3817,-0.703561 -0.0266,-1.888923 0.59265,-1.978094 0.55113,-4.985581 -0.0857,-6.205077 -0.7577,-1.45102 -3.23599,-3.19027 -9.22889,-6.47676 -7.30885,-4.00816 -10.34608,-5.39384 -14.57684,-6.65038 -4.48202,-1.33117 -5.01738,-1.42812 -18.76066,-3.39725 -16.6062,-2.37934 -24.7215,-4.09172 -35.15681,-7.41831 -3.32895,-1.06122 -6.3452,-1.92507 -6.70278,-1.91968 -0.35757,0.005 -1.12638,0.49576 -1.70846,1.08971 -1.40412,1.43276 -6.18309,3.69719 -8.79604,4.16787 -1.1513,0.20738 -2.11535,0.37706 -2.14233,0.37706 -0.22016,0 -2.92731,6.03585 -4.78663,10.67226 -0.75881,1.89217 -1.53759,3.71779 -1.73061,4.05694 -0.92367,1.62289 -5.04804,13.758471 -7.19463,21.16956 -0.52496,1.812446 -0.51941,1.866946 0.23832,2.337911 0.65745,0.408641 1.34091,0.404378 4.47997,-0.02795 5.55021,-0.764395 13.63325,-0.44734 18.05148,0.708064 4.41669,1.155002 8.58686,2.976629 11.33172,4.949956 2.60944,1.875981 5.92311,5.09857 7.28748,7.087198 1.24665,1.817037 3.31256,5.943991 3.89636,7.783554 0.24631,0.776111 0.51573,1.530173 0.59872,1.675694 0.2952,0.51766 1.61408,0.250024 3.83611,-0.778456 z m 57.40318,-24.856727 c 0.57197,-1.374363 1.23568,-2.736967 1.47493,-3.028009 0.23925,-0.291042 0.56643,-0.846667 0.72707,-1.234722 0.27361,-0.660935 0.3015,-0.650509 0.44098,0.164861 0.0819,0.478729 -0.009,0.922903 -0.201,0.987054 -0.19245,0.06415 -0.26887,0.426525 -0.16983,0.805277 0.099,0.378753 0.0366,0.688641 -0.13877,0.688641 -0.17536,0 -0.34372,0.330185 -0.37412,0.733744 -0.0789,1.047397 -0.83358,1.900081 -1.18231,1.335834 -0.16684,-0.269964 -0.35543,0.03399 -0.50034,0.806449 -0.12791,0.681843 -0.43146,1.239713 -0.67455,1.239713 -0.29785,0 -0.10286,-0.814894 0.59794,-2.498842 z m 2.72272,-5.321064 c 0,-0.09701 0.0794,-0.176389 0.17639,-0.176389 0.097,0 0.17639,0.07938 0.17639,0.176389 0,0.09701 -0.0794,0.176388 -0.17639,0.176388 -0.097,0 -0.17639,-0.07937 -0.17639,-0.176388 z m 0.70556,-0.352778 c 0,-0.09701 0.0794,-0.176389 0.17639,-0.176389 0.097,0 0.17639,0.07938 0.17639,0.176389 0,0.09701 -0.0794,0.176389 -0.17639,0.176389 -0.097,0 -0.17639,-0.07937 -0.17639,-0.176389 z m 10.71787,26.100435 c 6.39793,-1.758439 13.48273,-7.234299 14.18191,-10.96123 0.42117,-2.245067 -1.30135,-5.429799 -5.10765,-9.443402 -1.87756,-1.979813 -5.93451,-5.166637 -6.57733,-5.166637 -0.24107,0 -0.54693,0.432756 -0.67968,0.96168 -0.49833,1.985491 -3.50734,9.231445 -5.3873,12.973042 -2.36286,4.702729 -4.19565,7.464603 -6.71019,10.11177 -1.59484,1.678958 -1.79532,2.028211 -1.2559,2.187872 1.26497,0.374416 9.47911,-0.09773 11.53614,-0.663095 z m -178.84008,-1.210009 c 0.30403,-0.25232 0.55278,-0.842894 0.55278,-1.312385 0,-1.271113 -1.04832,-6.136923 -1.58359,-7.350265 -0.25678,-0.582083 -0.57349,-1.532005 -0.70379,-2.110937 -0.1303,-0.578932 -0.77305,-2.166432 -1.42835,-3.527777 -4.45228,-9.249433 -8.69804,-13.882258 -16.36632,-17.858338 -3.00458,-1.557912 -7.79125,-2.885092 -9.80366,-2.718232 l -1.33512,0.1107 2.46944,1.32502 c 1.35819,0.728768 2.94569,1.608285 3.52778,1.954487 1.07039,0.636634 7.23194,6.797215 7.23194,7.230809 0,0.129153 0.7693,1.388823 1.70955,2.799268 0.94026,1.410445 2.11653,3.278821 2.61395,4.151945 1.57076,2.757201 3.69817,9.456153 4.14521,13.052777 0.70271,5.653509 0.13797,5.052819 4.57837,4.869868 2.41685,-0.09958 4.04381,-0.328126 4.39181,-0.61694 z m 152.59999,-2.31265 c 0,-0.09701 -0.0794,-0.176389 -0.17639,-0.176389 -0.097,0 -0.17639,0.07938 -0.17639,0.176389 0,0.09701 0.0794,0.176389 0.17639,0.176389 0.097,0 0.17639,-0.07937 0.17639,-0.176389 z m 8.81944,-9.172222 c 0,-0.09701 -0.0794,-0.176389 -0.17639,-0.176389 -0.097,0 -0.17639,0.07937 -0.17639,0.176389 0,0.09701 0.0794,0.176389 0.17639,0.176389 0.097,0 0.17639,-0.07937 0.17639,-0.176389 z m -105.15619,-11.28888 c 1.65495,-5.735108 4.81196,-14.568182 6.99774,-19.579162 1.05793,-2.42535 2.59772,-6.01746 3.42175,-7.98247 l 1.49825,-3.57275 -2.05878,-0.57239 c -3.04969,-0.84789 -3.28821,-0.7866 -4.48056,1.15121 -3.09882,5.03622 -9.56517,21.201099 -12.05643,30.139199 l -0.67057,2.405858 2.89476,1.334857 c 1.91346,0.88235 2.96922,1.202878 3.1144,0.94553 0.1208,-0.214129 0.72355,-2.135576 1.33944,-4.269882 z m -1.55908,-7.231944 c 0.11992,-0.194027 0.28804,-0.352777 0.3736,-0.352777 0.0856,0 0.15557,0.15875 0.15557,0.352777 0,0.194028 -0.16812,0.352778 -0.3736,0.352778 -0.20548,0 -0.27548,-0.15875 -0.15557,-0.352778 z m -0.52917,-0.705555 c 0,-0.258704 0.10584,-0.364537 0.23519,-0.235185 0.12935,0.129352 0.12935,0.341018 0,0.47037 -0.12935,0.129352 -0.23519,0.02352 -0.23519,-0.235185 z m 3.89195,-9.150943 c -0.48109,-0.89892 0.1372,-0.99653 0.69348,-0.10947 0.32787,0.52282 0.3519,0.48942 0.1569,-0.21813 -0.16905,-0.61342 -0.10321,-0.79314 0.24774,-0.67616 0.68197,0.22733 0.59241,1.47995 -0.11557,1.61629 -0.32646,0.0629 -0.7686,-0.21276 -0.98255,-0.61253 z m -42.72642,3.77108 c 2.22797,-7.64515 6.9297,-16.32771 12.43901,-22.97079 1.14826,-1.38457 3.69078,-4.14787 5.65005,-6.14068 1.95926,-1.9928 3.47533,-3.71023 3.36906,-3.81651 -0.10628,-0.10628 -2.26194,-0.28524 -4.79035,-0.39769 -7.80057,-0.34692 -14.48484,1.19623 -17.38044,4.01249 -0.89295,0.86848 -1.84545,1.6126 -2.11667,1.65361 -0.27122,0.041 -0.71609,0.21368 -0.98861,0.38372 -0.65435,0.40831 -0.33378,-0.12445 1.60959,-2.67501 1.58885,-2.08527 1.54053,-2.41939 -0.34921,-2.41453 -2.20243,0.006 -3.59862,0.8108 -6.41832,3.70119 -4.32079,4.42914 -5.89251,7.8931 -6.43892,14.19094 -0.47607,5.48708 0.27497,10.8496 1.73973,12.42183 0.65991,0.70834 3.23928,1.62444 5.67921,2.01707 l 1.32381,0.21302 -0.57731,-1.36815 c -1.51494,-3.59023 -1.92275,-8.35186 -1.13861,-13.29463 0.42081,-2.65256 1.18487,-4.3264 0.83317,-1.82526 -0.16605,1.18087 -0.12567,1.31455 0.25354,0.83952 0.37017,-0.4637 0.42925,0.34441 0.32955,4.5075 -0.13618,5.68642 0.48446,9.5901 1.78824,11.24758 0.69867,0.88822 3.11801,2.24727 4.03151,2.26467 0.22364,0.004 0.74202,-1.14319 1.15197,-2.54989 z m -7.02663,-17.02152 c 0,-0.097 0.0794,-0.17639 0.17639,-0.17639 0.097,0 0.17639,0.0794 0.17639,0.17639 0,0.097 -0.0794,0.17638 -0.17639,0.17638 -0.097,0 -0.17639,-0.0794 -0.17639,-0.17638 z m 0.17639,-0.88195 c 0.11991,-0.19403 0.28803,-0.35278 0.37359,-0.35278 0.0856,0 0.15557,0.15875 0.15557,0.35278 0,0.19403 -0.16812,0.35278 -0.37359,0.35278 -0.20548,0 -0.27549,-0.15875 -0.15557,-0.35278 z m -0.50052,-0.98127 c -0.0329,-0.92333 1.26828,-4.9762 1.8073,-5.62943 0.19836,-0.2404 0.51843,-0.33958 0.71126,-0.2204 0.21334,0.13185 0.26113,-0.0652 0.12207,-0.50336 -0.1257,-0.39603 -0.0814,-0.811 0.0985,-0.92216 0.46256,-0.28588 0.77801,1.16604 0.40392,1.85908 -0.17122,0.31719 -0.66942,1.68796 -1.10711,3.04615 -0.5015,1.55621 -0.84957,2.21367 -0.94119,1.77781 -0.12415,-0.59062 -0.21263,-0.53909 -0.60573,0.35278 -0.41683,0.94567 -0.46305,0.96832 -0.489,0.23953 z m 1.73524,-3.78123 c 0,-0.097 -0.0794,-0.17639 -0.17639,-0.17639 -0.097,0 -0.17639,0.0794 -0.17639,0.17639 0,0.097 0.0794,0.17639 0.17639,0.17639 0.097,0 0.17639,-0.0794 0.17639,-0.17639 z m 1.76389,-3.70416 c 0,-0.25871 0.10583,-0.36454 0.23518,-0.23519 0.12935,0.12935 0.12935,0.34102 0,0.47037 -0.12935,0.12935 -0.23518,0.0235 -0.23518,-0.23518 z m -14.83041,18.83027 c -0.77606,-4.77388 0.33587,-11.68928 2.6815,-16.67707 0.67489,-1.43511 1.13939,-2.69698 1.03221,-2.80416 -0.32838,-0.32838 -3.39862,0.63309 -5.80948,1.81929 -1.29989,0.63958 -3.18468,2.00414 -4.36959,3.16351 l -2.08369,2.03878 0.19035,2.09922 c 0.29444,3.2471 2.30424,6.96199 5.61807,10.38437 1.49819,1.54727 2.81647,2.72073 2.9295,2.60769 0.11304,-0.11304 0.028,-1.29727 -0.18887,-2.63163 z m 11.30263,-6.65944 c 0,-0.097 -0.0794,-0.17639 -0.17639,-0.17639 -0.097,0 -0.17639,0.0794 -0.17639,0.17639 0,0.097 0.0794,0.17639 0.17639,0.17639 0.097,0 0.17639,-0.0794 0.17639,-0.17639 z m 142.38781,-3.18688 c 6.94822,-1.19989 13.05422,-3.61492 18.28865,-7.23347 2.40049,-1.65946 6.89696,-5.91912 9.1429,-8.66139 1.31839,-1.60973 3.8818,-6.05546 5.12557,-8.88929 1.99185,-4.53826 3.21083,-11.34041 3.20431,-17.88082 -0.003,-3.38522 -0.73813,-11.35339 -1.22341,-13.26743 l -0.23095,-0.91094 -4.29814,0.029 c -3.83808,0.0259 -4.46033,-0.0576 -5.81334,-0.78003 -5.79524,-3.09432 -10.20747,-11.65248 -10.87741,-21.09833 -0.26039,-3.6713 0.17462,-7.35675 1.52576,-12.92626 l 0.91924,-3.78918 -1.65748,-1.45897 c -2.82519,-2.48684 -4.09352,-5.95412 -4.09352,-11.19064 0,-6.51407 3.13593,-12.50339 8.06459,-15.40258 0.98955,-0.58209 1.80233,-1.25464 1.80618,-1.49456 0.0133,-0.82596 -5.7873,-7.41635 -9.51799,-10.81402 -10.58415,-9.63934 -24.38303,-16.44923 -40.77525,-20.12301 -5.52511,-1.23827 -10.3006,-1.67711 -18.13864,-1.66683 -10.3371,0.0136 -17.67613,1.23195 -26.55429,4.40845 -4.34132,1.55327 -6.23803,2.66276 -7.78953,4.55653 -1.39131,1.69824 -5.24312,9.20184 -4.80778,9.36588 0.15683,0.0591 1.58452,-0.54587 3.17263,-1.34436 9.6202,-4.83694 21.04136,-6.48199 34.03869,-4.90279 10.86626,1.32027 22.75009,5.77588 32.21997,12.08024 6.50319,4.32935 14.00259,12.35148 18.0913,19.35231 7.6982,13.18114 11.60225,29.89159 11.6008,49.65475 -0.001,17.60853 -3.93456,30.18133 -12.61974,40.33925 -3.05336,3.57112 -7.21456,6.75606 -13.40656,10.26122 -8.34352,4.7231 -21.47547,7.59869 -34.79804,7.61995 -1.9241,0.003 -3.4102,0.0938 -3.30242,0.20154 0.73725,0.73725 24.78254,4.87197 34.67025,5.96174 5.99388,0.66061 14.22096,0.66246 18.03365,0.004 z m -74.05577,-4.88908 c 1.82667,-0.83511 3.87884,-2.33099 3.19786,-2.33099 -1.17942,0 -11.49606,-2.45931 -17.1534,-4.08908 -1.62243,-0.46739 -3.33202,-0.8498 -3.79908,-0.8498 -0.74355,0 -0.82234,0.12069 -0.6333,0.97013 0.66339,2.98094 1.29123,3.87033 3.63118,5.14389 4.61385,2.51117 10.74226,2.99119 14.75674,1.15585 z m 37.14851,-5.71582 c 19.81648,-2.54655 34.54642,-12.80347 40.90815,-28.48566 1.55662,-3.83719 2.56518,-7.75717 3.41808,-13.28506 0.93869,-6.08395 0.84984,-20.09927 -0.17507,-27.61703 -1.75264,-12.85563 -5.12762,-23.41409 -10.26381,-32.10983 -7.54996,-12.78237 -19.8175,-22.4537 -34.48516,-27.18698 -9.51472,-3.07043 -12.46018,-3.54692 -21.97997,-3.55574 -8.31878,-0.008 -11.82255,0.4979 -18.44783,2.6621 -4.01342,1.31102 -10.82726,4.55345 -11.85797,5.64272 -0.4421,0.46722 -1.89498,2.4461 -3.22862,4.39751 -2.92045,4.27324 -5.80205,7.69066 -11.45233,13.58186 -2.33681,2.43644 -5.00746,5.58156 -5.93479,6.98916 -3.55178,5.39126 -7.91937,14.69922 -9.70547,20.68374 l -0.73701,2.46944 -2.72332,1.5875 c -4.63905,2.70423 -9.15259,7.45759 -11.20907,11.80462 -2.47538,5.23253 -3.20922,14.05804 -1.68778,20.29815 3.29296,13.506 13.54951,23.80375 31.27923,31.40489 13.7231,5.88342 32.05582,10.34189 46.41052,11.28692 5.73714,0.3777 16.73413,0.092 21.87222,-0.56831 z m -37.04167,-39.69235 c -12.30705,-1.87781 -21.18949,-10.71676 -21.16115,-21.05754 0.003,-1.10611 0.2355,-2.9636 0.5166,-4.12777 0.2811,-1.16417 0.51674,-2.2325 0.52365,-2.37408 0.007,-0.14158 -0.66212,-0.6009 -1.48673,-1.02072 -0.82462,-0.41982 -2.61056,-1.51216 -3.96875,-2.42741 -4.14617,-2.79399 -8.0353,-4.51094 -11.55347,-5.10055 -1.23278,-0.2066 -1.32292,-0.30536 -1.32292,-1.44926 0,-3.14353 3.25997,-8.96471 6.41867,-11.46152 5.78112,-4.56971 13.54489,-3.71599 17.35103,1.90796 1.47547,2.18016 2.33585,4.96298 2.33585,7.55512 0,1.04811 0.11906,1.84449 0.26459,1.76975 6.06128,-3.11323 7.77119,-3.58839 12.96458,-3.6027 3.44996,-0.01 4.72294,0.13936 6.87916,0.80451 10.41586,3.21304 17.99167,12.97154 17.99167,23.1753 0,2.77956 0.16061,2.9666 2.55764,2.9785 0.72386,0.004 0.97014,0.17885 0.97014,0.69037 0,0.95079 -1.32381,1.7839 -2.8346,1.7839 -1.18328,0 -1.34618,0.14179 -2.47915,2.15784 -3.24181,5.76866 -10.30479,9.58599 -18.4848,9.99049 -1.75392,0.0867 -4.22083,2.5e-4 -5.48201,-0.19219 z m 9.70139,-3.66742 c 9.05894,-1.90195 14.39646,-9.04273 12.91969,-17.28456 -0.50458,-2.81602 -3.1758,-8.05872 -5.34752,-10.49533 -5.33051,-5.9807 -14.87386,-8.64404 -23.09439,-6.44514 -6.0278,1.61237 -11.07331,6.89861 -12.2934,12.87994 -0.67315,3.30006 -0.19948,7.66006 1.12433,10.34909 3.96951,8.06322 16.35576,13.16598 26.69129,10.996 z m -3.29653,-13.41439 c -2.35362,-2.99215 -0.0841,-10.39656 3.18666,-10.39656 2.7448,0 3.82668,4.32155 2.14333,8.56147 -1.05728,2.66301 -3.90698,3.64415 -5.32999,1.83509 z m -17.3681,-4.01942 c -0.88507,-0.88507 -1.0312,-1.30109 -1.0312,-2.93577 0,-3.98007 1.95116,-7.12912 4.27926,-6.90645 0.94845,0.0907 1.31807,0.36332 1.82823,1.34842 1.62582,3.1394 -0.84246,9.525 -3.68178,9.525 -0.19983,0 -0.82736,-0.46404 -1.39451,-1.0312 z m -6.7472,-11.40619 c 1.39036,-1.67528 0.27701,-4.14317 -1.86913,-4.14317 -1.44953,0 -2.29265,0.77825 -2.29265,2.11626 0,1.80507 3.09493,3.31238 4.16178,2.02691 z m -10.22955,-4.21372 c 0.65314,-0.65315 0.50155,-2.32067 -0.28223,-3.10445 -1.35592,-1.35592 -3.88055,-0.6084 -3.88055,1.14899 0,1.77113 2.95772,3.16051 4.16278,1.95546 z m 6.7481,-6.09001 c 1.10411,-0.57096 1.43634,-1.17842 1.43634,-2.62624 0,-2.2816 -3.77518,-3.7028 -5.73264,-2.15811 -1.59871,1.26159 -1.23294,3.69376 0.71443,4.75056 1.23448,0.66993 2.3317,0.68028 3.58187,0.0338 z m 80.92009,26.76822 c -3.71767,-1.763 -6.11374,-2.30794 -11.04487,-2.51195 -3.39595,-0.14049 -5.65619,-0.007 -9.83163,0.57906 -2.98205,0.41883 -5.52205,0.66092 -5.64444,0.53799 -0.1224,-0.12293 -0.20075,-1.45701 -0.17412,-2.96463 0.086,-4.8667 1.75065,-9.04569 4.93192,-12.38092 4.66544,-4.89122 11.0431,-6.17217 16.89465,-3.39328 5.72647,2.71949 8.99307,8.12148 8.99307,14.87191 0,2.71553 -0.79155,6.56239 -1.33659,6.49567 -0.138,-0.0169 -1.3926,-0.57213 -2.78799,-1.23385 z m -16.16829,-5.14592 c 1.86656,-0.85046 1.30408,-3.51812 -0.84115,-3.98929 -1.04234,-0.22894 -2.42601,0.24951 -2.93766,1.01578 -0.53649,0.80347 -0.26711,2.29045 0.51406,2.8376 0.9344,0.65448 2.02681,0.69996 3.26475,0.13591 z m 7.86162,-7.88036 c 1.51167,-1.75742 0.48795,-4.08043 -2.10601,-4.77891 -3.18489,-0.8576 -5.92279,1.34785 -4.85962,3.91456 0.63619,1.5359 1.91281,2.13982 4.19901,1.98638 1.57242,-0.10553 2.06362,-0.30474 2.76662,-1.12203 z m 5.45594,-23.14467 c -2.96267,-1.4665 -4.72868,-4.59064 -3.98955,-7.05766 1.20424,-4.0194 7.51846,-2.82425 9.93883,1.88121 1.00878,1.96117 0.88531,3.64862 -0.35795,4.89188 -1.2844,1.2844 -3.3582,1.38994 -5.59133,0.28457 z m -75.11791,-14.81425 c -2.81471,-0.81176 -2.92015,-3.81952 -0.22369,-6.38082 2.0091,-1.90839 4.69423,-2.50369 6.98179,-1.54789 2.28548,0.95494 2.63777,3.28729 0.81082,5.3681 -1.8249,2.07847 -5.23752,3.23298 -7.56892,2.56061 z m -16.68455,98.79595 c -0.29105,-0.19935 -1.79917,-1.00988 -3.35139,-1.80117 -10.1531,-5.17588 -18.18098,-11.83279 -22.43392,-18.60276 -4.48574,-7.14054 -6.74604,-15.85461 -6.00312,-23.14365 0.43548,-4.27264 -0.11633,-4.05804 -1.34604,0.52348 -3.1775,11.83838 -0.0205,23.10424 8.86313,31.62877 4.11198,3.94574 11.27655,7.95797 18.09773,10.1349 4.21116,1.34395 4.92725,1.53349 5.99722,1.58736 0.58824,0.0296 0.61757,-0.0248 0.17639,-0.32693 z m 143.40415,-43.16333 c 12.28854,-2.67399 14.20497,-3.14023 17.44866,-4.24492 7.12188,-2.42549 11.50367,-4.69728 16.47273,-8.54051 3.33557,-2.57983 5.41333,-4.8642 5.41333,-5.95162 0,-1.2397 -2.76895,-5.05083 -6.17361,-8.49724 -3.26419,-3.30422 -8.26832,-7.20127 -11.98633,-9.33457 -3.40749,-1.95512 -3.24318,-1.96689 -3.89615,0.27921 -0.47887,1.64727 -2.69062,5.74291 -3.10132,5.74291 -0.0654,0 -0.0478,-1.72724 0.0392,-3.8383 0.32601,-7.91244 -1.72348,-13.44245 -6.87651,-18.55451 -4.37914,-4.34431 -9.476,-6.80858 -14.78841,-7.15001 -4.90775,-0.31543 -8.03743,0.77047 -10.83235,3.75847 -3.16232,3.38077 -4.57539,7.874 -3.78207,12.02601 0.69336,3.62881 3.30233,7.79806 4.26769,6.81994 0.15934,-0.16145 0.7924,-1.64292 1.40679,-3.29216 0.81829,-2.19655 1.16763,-3.82861 1.30606,-6.10168 0.2088,-3.42875 0.58503,-3.78676 1.99214,-1.89567 0.63605,0.85482 0.7382,1.46391 0.70998,4.23333 -0.0284,2.79024 -0.23771,3.8652 -1.52264,7.82097 -3.07189,9.45709 -3.32365,10.72211 -3.33484,16.75694 -0.009,4.96102 0.0784,5.75616 0.94517,8.57513 1.2428,4.04208 2.37206,6.24382 4.66891,9.10307 1.87718,2.3368 4.1762,3.89344 5.37663,3.64043 0.33138,-0.0698 3.14251,-0.67969 6.24695,-1.35522 z m -152.51788,-41.70207 c 1.8526,-3.76229 2.51924,-5.42915 2.11666,-5.29249 -0.32321,0.10973 -1.93703,0.67137 -3.58627,1.24809 -3.09491,1.08227 -6.59821,1.78686 -8.90763,1.79151 -0.72761,0.001 -1.32221,0.12172 -1.32134,0.26725 0.007,1.16799 7.29504,7.5177 8.59348,7.48707 0.22042,-0.005 1.61772,-2.48084 3.1051,-5.50143 z m -3.93905,-6.30066 c 3.27722,-1.04129 6.51396,-2.70229 9.525,-4.88795 4.47271,-3.24665 13.1002,-12.52216 16.78816,-18.04912 2.31089,-3.4632 3.09554,-4.98271 5.98686,-11.59373 2.30368,-5.26739 3.01745,-6.556 4.34744,-7.84868 l 1.59123,-1.54661 -0.7121,-0.97076 c -2.4448,-3.33287 -8.35638,-4.80948 -13.72817,-3.42907 -4.9033,1.26002 -9.84553,4.2826 -14.43651,8.82911 -2.49716,2.47296 -6.04873,7.32805 -6.8516,9.36631 -1.19243,3.02724 -1.51289,3.56947 -1.88792,3.19444 -0.21322,-0.21322 -0.48017,-1.46443 -0.59323,-2.78045 l -0.20555,-2.39278 -2.70249,0.0162 c -2.28288,0.0137 -3.02078,0.179 -4.75243,1.0646 -2.50844,1.28286 -4.38525,3.61918 -5.50811,6.85668 -0.70043,2.01953 -0.7953,2.9874 -0.7953,8.11389 0,5.22461 0.098,6.18351 0.95672,9.36163 1.06443,3.93942 2.11463,6.53571 3.00307,7.42416 0.88522,0.88522 6.09441,0.5051 9.97493,-0.72789 z"
       id="path141" /></g></svg>
