<?xml version="1.0" encoding="UTF-8" standalone="no"?>
<!-- Created with Inkscape (http://www.inkscape.org/) -->

<svg
   width="277.75171mm"
   height="251.9782mm"
   viewBox="0 0 277.75172 251.97817"
   version="1.1"
   id="svg1"
   xml:space="preserve"
   xmlns="http://www.w3.org/2000/svg"
   xmlns:svg="http://www.w3.org/2000/svg"><defs
     id="defs1"><clipPath
       clipPathUnits="userSpaceOnUse"
       id="clipPath6"><path
         id="path7"
         style="fill:#ff0000;fill-opacity:1;fill-rule:nonzero;stroke:none;stroke-width:0.264583"
         d="M -175.07778,-16.057127 V 287.55793 H 124.54631 V -16.057127 Z m 132.7459,202.572647 c 0.210643,0.005 0.427212,0.0169 0.650089,0.0367 2.23823,0.19855 4.475655,0.4031 6.717938,0.55346 1.973313,0.11308 0.986628,0.0436 2.958475,0.20825 3.181295,0.26563 4.740125,1.85116 4.950601,3.46956 4.949923,1.63749 3.796379,7.35609 -2.592089,6.81354 -3.228716,-0.27422 -1.569593,-0.1301 -4.979024,-0.43357 -4.228209,-0.39317 -8.460616,-0.76265 -12.666927,-1.35341 -6.647387,-0.93358 -5.930551,-7.21034 0.03204,-7.20421 0.04685,5e-5 0.0972,0.004 0.144695,0.005 0.687229,-1.21692 2.304132,-2.15435 4.784204,-2.09548 z" /></clipPath><clipPath
       clipPathUnits="userSpaceOnUse"
       id="clipPath76"><path
         id="path77"
         style="fill:#ff0000;fill-opacity:1;fill-rule:nonzero;stroke:none;stroke-width:0.264583"
         d="M -133.83107,-122.52355 V 173.82063 H 122.97289 V -122.52355 Z M 13.574404,98.948202 c 2.788179,0.0507 4.135003,2.063798 3.398242,4.077268 0.199805,0.45372 0.374906,0.96736 0.517797,1.54461 1.07913,4.35948 0.671079,8.891 0.311608,13.31495 -0.351859,3.06036 -0.147137,1.57974 -0.604097,4.44366 -0.359666,2.25418 -1.333846,3.66838 -2.455664,4.32532 0.105138,0.36595 0.224724,0.72888 0.324528,1.09554 0.6273,2.23652 0.575201,4.47401 0.39429,6.75514 -0.137303,1.73129 -0.688065,2.99533 -1.427303,3.82199 -0.112477,0.41601 -0.170275,0.80219 -0.311092,1.25212 -0.184975,0.59102 -0.413327,1.1061 -0.670242,1.55856 0.741137,-0.23134 1.446982,-0.38145 2.064991,-0.37517 4.085002,0.0415 5.222724,4.75435 -0.02223,7.27138 -4.46677,2.14368 -9.303523,3.34693 -14.11903492,4.40955 -4.40876268,0.85156 -8.89238128,1.33053 -13.38264308,1.19269 -5.804014,-0.17807 -6.736297,-5.00293 -3.065447,-6.67298 -2.072987,-0.65744 -4.042852,-1.62261 -4.128947,-3.14709 -0.02802,-0.49633 0.0026,-0.90355 0.0341,-1.30897 -1.976731,-0.003 -3.95339,2.4e-4 -5.930386,0.003 -0.814031,0 -1.53062,-0.0962 -2.159559,-0.26149 -0.376306,0.19492 -0.742394,0.40783 -1.120862,0.59893 -6.391272,3.22657 -9.625245,-3.24074 -3.234428,-6.46886 1.833438,-0.92611 3.62694,-1.92211 5.414142,-2.92954 -0.877003,-3.87058 -1.368747,-7.83436 -1.323951,-11.80858 0.01651,-1.46304 0.376836,-2.54918 0.864547,-3.41426 -1.247357,-1.79999 -0.223805,-4.63069 3.842661,-5.68855 3.11826,-0.81116 6.282901,-1.39515 9.473837,-1.82211 -1.259816,-0.12657 -2.516182,-0.30233 -3.764627,-0.50177 -1.477002,-0.21985 -2.935575,-0.54305 -4.407482,-0.7891 -1.14214,-0.22954 -0.588502,-0.12004 -1.660882,-0.3297 -3.350244,-0.65501 -4.783278,-2.61088 -4.608504,-4.32997 -0.200179,-1.7721 1.333365,-3.52972 4.663799,-3.59461 v -5.3e-4 c 0.20954,-0.004 0.426035,-0.002 0.649571,0.008 1.77111,0.0772 3.528708,0.28204 5.26428,0.64027 1.655035,0.33225 3.314115,0.6481 4.955251,1.04439 1.244759,0.34858 2.51628,0.54538 3.7997689,0.6723 0.025956,0.002 0.052073,0.002 0.078034,0.004 0.4990888,-0.0371 0.9984105,-0.0743 1.4965495,-0.11317 1.346872,-0.12588 2.6913231,-0.25136 4.0457464,-0.24236 1.1278499,-0.0444 2.2567291,-0.10772 3.37498791,-0.26872 0.75719517,-0.11591 1.51142439,-0.25483 2.25722659,-0.4284 0.3616431,-0.12394 0.7240561,-0.24538 1.083138,-0.37775 0.3360393,-0.12388 0.6107589,-0.12825 0.9250071,-0.20723 0.1281086,-0.045 0.2583895,-0.0825 0.3855085,-0.13074 1.9825018,-0.7681 3.9540551,-1.56464 5.9510551,-2.29443 1.050809,-0.383992 1.999634,-0.542639 2.826703,-0.527616 z M 0.70283723,110.39557 c -0.45566013,0.0949 -0.90775367,0.208 -1.36890919,0.2744 -1.16638124,0.15534 -2.34111274,0.24237 -3.51761424,0.26251 0.4031694,0.0896 0.8047355,0.18876 1.2025101,0.308 0.1014836,0.0304 0.1982549,0.075 0.2986907,0.10852 0.4205235,-0.21824 0.9206601,-0.35072 1.4898318,-0.37156 0.39885139,-0.0146 0.83259872,0.0278 1.29449508,0.13023 0.22468681,-0.12213 0.44967525,-0.24374 0.67437529,-0.36587 -0.0326284,-0.11319 -0.058211,-0.22834 -0.0733795,-0.34623 z m 10.24433577,1.02474 c -0.76023,0.21437 -1.5189569,0.4343 -2.2696301,0.68006 -0.031261,0.62207 -0.2256075,1.28373 -0.6464723,1.94355 0.6236891,0.43248 1.2549743,1.04482 1.8634525,1.86862 0.2674939,0.36214 0.4748849,0.75712 0.7188199,1.13223 0.154519,-1.86707 0.314174,-3.74736 0.33383,-5.62446 z m 64.566086,3.39773 c 1.50346,0.0187 3.129182,1.24994 3.928441,4.04678 0.257931,0.90255 0.823497,1.65871 1.488797,2.30735 0.856321,0.95375 1.845738,1.76777 2.801898,2.61638 1.458581,1.46408 2.789203,3.04608 4.169772,4.58215 1.315059,1.44746 2.571226,2.91698 3.543967,4.61884 0.0053,0.01 0.0082,0.0206 0.01344,0.0305 0.734605,-0.43313 1.446276,-0.65634 2.094962,-0.69195 3.016182,-0.16561 4.69137,3.55377 1.187525,7.32306 -1.69471,1.82311 -3.657862,3.33908 -5.68751,4.7651 -0.777873,0.49914 -1.607691,0.90075 -2.418456,1.33842 0.165478,1.44344 -0.672182,3.24303 -2.956409,4.73096 -1.354556,0.88234 -2.690448,1.79306 -4.075203,2.6288 -2.075008,1.20078 -4.233777,2.27962 -6.540687,2.96259 -2.077586,0.62971 -4.169056,1.29987 -6.359301,1.36374 -1.872114,0.0897 -3.746989,0.0368 -5.620845,0.0501 h -5.1108 -5.524728 c -7.160125,0 -7.160125,-7.23315 0,-7.23315 h 1.347722 c 0.29438,-0.0541 0.5212,-0.1588 0.84801,-0.18656 1.106628,-0.094 2.200932,-0.28334 3.292822,-0.48421 0.456121,-0.98163 1.356053,-1.98213 2.807581,-2.83962 1.078018,-0.63685 2.158119,-1.26923 3.212209,-1.94561 1.962647,-1.29302 3.840588,-2.72135 5.893696,-3.86902 1.367169,-0.76424 2.559646,-1.07097 3.526915,-1.04128 2.216811,0.068 3.246223,1.90266 2.479953,4.04059 1.105688,-0.48686 2.206929,-0.98346 3.283003,-1.53739 2.619811,-1.23728 5.288743,-2.38548 7.764385,-3.9026 0.246153,-0.17184 0.487463,-0.34958 0.730705,-0.52503 -0.126915,-0.50614 -0.277693,-0.9939 -0.512114,-1.46554 -0.647621,-1.25778 -1.721077,-2.20654 -2.600875,-3.29644 -1.199229,-1.33472 -2.369312,-2.69496 -3.592029,-4.00803 -1.098706,-0.97599 -2.227236,-1.92181 -3.215306,-3.01428 -1.300821,-1.39063 -2.459913,-2.93896 -3.045293,-4.77801 -1.289469,-4.05101 0.646382,-6.61405 2.843754,-6.58667 z m -95.086705,4.28035 c -0.465643,0.10748 -0.930899,0.21773 -1.394745,0.33435 0.171958,0.64334 0.283575,1.36624 0.279569,2.2071 -0.01267,2.6582 0.205063,5.32647 0.670242,7.94732 0.280107,-0.17087 0.565767,-0.33222 0.845429,-0.50385 -0.01897,-0.36223 -0.02445,-0.73164 -0.05529,-1.08985 -0.118034,-2.96491 -0.160888,-5.93314 -0.3452,-8.89507 z m 18.5141159,1.1958 c 0.00497,0.0773 0.00619,0.15612 0.014975,0.23202 -0.1238779,0.22787 -0.2588048,0.44752 -0.3937741,0.66715 0.58900751,0.0447 1.13203305,0.21413 1.64331124,0.45888 -0.37615284,-0.49255 -0.78353709,-0.94642 -1.26452314,-1.35805 z m -6.5422357,14.57068 c -0.046649,0.0755 -0.09888,0.14702 -0.1436608,0.22376 -0.03147,0.054 0.1963367,0.0838 0.1860365,0.0222 -0.017595,-0.10481 -0.026035,-0.14905 -0.042376,-0.24597 z m 13.9236979,6.08439 c -0.2236258,0.5643 -0.5677508,1.09664 -1.1782213,1.50533 0.9079653,0.17659 1.7077452,0.44257 2.2830631,0.84852 0.1405493,-0.0459 0.272804,-0.11448 0.4128956,-0.16174 -0.7336976,-0.43656 -1.2984269,-1.18703 -1.5177374,-2.19211 z" /></clipPath><clipPath
       clipPathUnits="userSpaceOnUse"
       id="clipPath127"><path
         id="path128"
         style="fill:#ff0000;fill-opacity:1;fill-rule:nonzero;stroke:none;stroke-width:0.264583"
         d="M -112.24796,-126.55676 V 185.58027 H 148.5754 V -126.55676 Z M 46.874626,83.305366 c 1.808208,0 3.616317,1.790192 3.616317,5.370214 v 5.232238 c 0.0627,2.146078 -0.111291,4.285324 -0.245462,6.424932 -0.136289,2.02485 -0.190703,4.04985 -0.104904,6.07715 0.192061,1.91863 0.527714,3.82569 0.876432,5.72213 0.304242,2.00862 0.765826,3.9858 1.180806,5.97276 0.41642,1.86142 0.967934,3.68703 1.421104,5.53972 0.25287,0.86996 0.117097,0.46495 0.396356,1.22008 0.186108,0.50319 0.223428,0.93098 0.309544,1.38441 4.425355,2.23251 2.751262,7.58433 -3.415813,6.40477 -3.104732,-0.59371 -6.256094,-0.76586 -9.40821,-0.85576 -3.81635,0.009 -7.630525,0.17062 -11.44478,0.28216 -1.12776,0.0333 -2.255837,0.0512 -3.383772,0.0754 -0.908129,0.5548 -1.966518,0.57724 -2.88613,0.0641 -0.03584,5.3e-4 -0.07165,0.002 -0.107487,0.003 -0.03142,5.3e-4 -0.0525,-0.009 -0.08268,-0.009 -0.32049,0.14732 -0.641715,0.29301 -0.962215,0.44028 -0.262501,0.12062 -0.518089,0.22111 -0.770496,0.31265 -0.876996,0.71434 -1.945576,0.85817 -2.911967,0.46405 -2.943479,-0.21613 -4.295167,-2.77187 -2.550232,-5.0524 -2.22e-4,-0.028 -0.0078,-0.0483 -0.0078,-0.0765 v -6.3469 c -0.014,-2.72977 -0.02254,-5.45666 0.112657,-8.18348 0.135676,-2.32533 0.233519,-4.6523 0.299723,-6.98046 0.046,-1.80459 0.06926,-3.60958 0.08527,-5.41465 -0.0258,-1.02998 0.04009,-2.054459 0.138491,-3.078883 0.0044,-0.04602 0.02191,-0.07504 0.02687,-0.120406 C 15.992671,97.193438 15.83363,95.70984 16.656834,94.418959 10.68718,93.678613 10.992573,87.32947 17.739972,87.32947 h 3.885033 5.177462 5.913334 c 1.498505,0.05847 2.984222,-0.03228 4.475178,-0.161748 1.252041,-0.18606 2.49041,-0.398671 3.697968,-0.782897 1.001961,-0.32245 0.492366,-0.161472 1.527553,-0.482142 0.510384,-0.158096 0.938446,-0.174371 1.394749,-0.23771 0.672338,-1.56932 1.86623,-2.35903 3.063377,-2.35903 z" /></clipPath></defs><g
     id="layer1"
     transform="translate(24.029414,291.78512)"><path
       style="fill:#000000"
       d="m 128.35793,-40.237739 c -2.27243,-0.7307 -4.86788,-2.559255 -6.00793,-4.232727 -2.54362,-3.733744 -2.02656,-9.180907 1.19109,-12.547864 0.54015,-0.565212 0.98205,-1.06879 0.982,-1.119063 -4e-5,-0.05027 -6.60106,-0.101707 -14.66892,-0.114298 l -14.668827,-0.02289 0.23075,0.904837 c 0.59355,2.327435 0.59816,5.639135 0.0103,7.408968 -1.49987,4.515694 -5.97638,7.695832 -11.19594,7.953657 -3.93381,0.194315 -7.07814,-0.681931 -9.87981,-2.753259 -0.84637,-0.625739 -1.12269,-0.661033 -2.33399,-0.298121 -1.68691,0.505412 -2.6691,0.515158 -4.36794,0.04335 -2.49456,-0.692807 -4.15935,-2.831327 -5.39195,-6.926287 -0.57377,-1.906194 -1.73429,-3.517469 -3.00777,-4.176011 -0.55715,-0.288114 -1.0787,-0.523844 -1.15898,-0.523844 -0.0803,0 -0.42812,0.738758 -0.77295,1.641685 -0.76928,2.014322 -2.60018,4.093438 -4.67606,5.309984 -1.3324,0.78084 -1.94568,0.908111 -4.17195,0.865796 -2.5318,-0.04812 -2.66544,-0.0074 -4.46471,1.36002 -3.94401,2.997436 -9.78244,5.388407 -15.5556,6.370377 -3.91383,0.665713 -13.20186,0.579377 -16.99084,-0.157937 -0.38806,-0.07551 -1.41993,-0.255331 -2.2930605,-0.399595 -2.01608,-0.333113 -8.05773,-2.425977 -10.38835,-3.59859 -7.15053,-3.59767 -12.1770495,-9.272604 -14.5192395,-16.392205 -0.87178,-2.649956 -0.96893,-3.454263 -0.9939,-8.2287 -0.0241,-4.614906 0.0781,-5.628457 0.79924,-7.925067 2.69672,-8.587967 8.9267595,-15.580623 17.1029695,-19.196534 1.10113,-0.486972 2.00206,-0.987526 2.00206,-1.112341 0,-0.124815 -0.49191,-1.284488 -1.09313,-2.577052 -2.65160995,-5.70065 -7.02076,-18.59694 -7.02076,-20.72295 0,-0.31379 -0.22089,-1.07077 -0.49087,-1.68218 -0.26998,-0.6114 -0.69029,-1.87572 -0.93402,-2.80959 -0.42879,-1.64291 -0.53085,-1.74203 -3.14924,-3.05853 -9.2322295,-4.64188 -14.6229495,-12.56544 -14.5071895,-21.32343 0.0692,-5.23454 1.78253,-9.00915 6.02515,-13.27379 2.56207,-2.57537 3.58107,-3.31289 6.95341,-5.03271 2.1732695,-1.10831 4.0447695,-2.16618 4.1588695,-2.35081 0.11411,-0.18463 -0.37016,-1.17428 -1.07616,-2.19924 -1.16653,-1.69352 -1.26955,-2.03482 -1.12915,-3.74086 0.25716,-3.12487 2.71112,-4.96726 6.651,-4.99343 1.18374,-0.008 1.29619,-0.10702 1.70973005,-1.50772 2.28600995,-7.74289 10.44442995,-13.3669 19.42748045,-13.39236 6.34354,-0.018 10.9893,1.82764 15.20021,6.03855 3.12106,3.12106 4.60071,5.8668 5.34117,9.91145 l 0.48438,2.64583 4.2071,0.10009 c 3.87659,0.0922 4.33237,0.0332 5.80164,-0.75134 0.877,-0.46828 2.22954,-1.04844 3.00565,-1.28923 0.77611,-0.2408 1.54505,-0.56051 1.70876,-0.71048 0.16371,-0.14997 -0.74271,-1.40633 -2.01426,-2.79191 -4.99582,-5.44385 -8.22598,-11.53208 -10.02691,-18.8988 -0.47144,-1.92846 -0.59733,-3.97647 -0.57461,-9.34861 0.0339,-8.01954 0.64383,-11.47929 3.66236,-20.77473 0.96862,-2.98279 1.69074,-5.53714 1.60472,-5.67632 -0.086,-0.13919 -1.86848,-0.34674 -3.96101,-0.46124 -4.26508,-0.23338 -6.48646,-0.84276 -11.13494,-3.05457 -5.31123,-2.52714 -9.02823,-6.67269 -12.41032,-13.84109 -2.46437,-5.22329 -3.14434,-8.54361 -3.16582,-15.45871 -0.0156,-5.03219 0.093,-6.2271 0.80179,-8.81944 1.65582,-6.05606 4.95183,-10.77511 8.12208,-11.62877 1.52004,-0.40931 2.66762,-0.28396 9.57289,1.0456 2.03729,0.39227 7.11729,1.03517 11.28888,1.42867 11.48934,1.08376 15.23603,1.7842 19.78488,3.69878 3.2681,1.37553 7.76596,4.19277 9.49568,5.94763 0.87312,0.88582 1.74625,1.61346 1.94027,1.61699 0.19403,0.004 1.70216,-0.80518 3.35139,-1.79713 16.47507,-9.9091 33.868187,-13.18841 52.199387,-9.84171 2.16359,0.395 9.19869,2.3878 11.477,3.25103 5.33402,2.02101 13.8297,7.19818 18.17579,11.07613 1.17458,1.04806 2.29696,1.90556 2.49417,1.90556 0.19722,0 0.86591,-0.48336 1.48597,-1.07412 3.15863,-3.00935 8.41644,-5.75768 13.99979,-7.31788 3.11349,-0.87004 3.8513,-0.93706 10.23455,-0.92978 6.2068,0.007 13.33972,0.61047 24.51805,2.07405 0.58209,0.0762 2.11583,0.24699 3.40833,0.37951 2.75984,0.28296 4.16361,1.03928 5.40184,2.91037 2.35896,3.56463 2.67654,13.94778 0.66595,21.77312 -2.38507,9.28288 -7.083,16.92592 -13.00389,21.156 -5.98625,4.27678 -12.6093,5.69394 -20.4518,4.37617 -1.45092,-0.2438 -2.70896,-0.37234 -2.79565,-0.28565 -0.0867,0.0867 0.0573,1.10919 0.31987,2.27221 1.09782,4.86176 1.40938,8.42623 1.40284,16.04932 -0.004,4.58137 -0.16823,6.93559 -0.63702,9.12804 -1.80644,8.44835 -5.25415,15.61783 -10.44715,21.72475 -0.98281,1.15577 -1.78692,2.21987 -1.78692,2.36467 0,0.60254 2.57009,0.88249 6.87916,0.74933 2.52236,-0.0779 4.78455,-0.20675 5.02709,-0.28624 0.30305,-0.0993 0.44097,-1.01063 0.44097,-2.91378 0,-8.71717 6.45288,-16.4367 15.52757,-18.57549 6.565,-1.54729 13.56106,0.33041 18.30879,4.91395 2.79418,2.69755 4.0336,4.79402 4.93677,8.35048 l 0.65192,2.56706 1.54434,0.39397 c 2.19296,0.55943 3.06793,1.10147 3.85094,2.38564 1.33552,2.1903 0.87155,4.59628 -1.35221,7.01198 -1.12487,1.22197 -0.86925,1.80785 1.03335,2.36839 2.03134,0.59848 6.89506,2.87652 9.40447,4.40482 2.29331,1.39668 5.58133,4.58413 7.13626,6.91798 2.77456,4.16444 3.70891,11.16307 2.11939,15.875 -2.12249,6.29187 -6.83962,11.59804 -13.30963,14.97164 -1.00649,0.52481 -1.98206,1.14119 -2.16793,1.36975 -0.18586,0.22856 -0.60695,1.76493 -0.93574,3.41417 -1.29008,6.47115 -3.97878,15.07544 -6.58709,21.07979 -1.97685,4.550708 -5.62256,11.635166 -7.17009,13.93311 -1.71276,2.543297 -1.65077,2.863443 0.5141,2.655426 1.7364,-0.166846 2.56206,-0.610229 5.82951,-3.130464 1.24996,-0.964114 1.61971,-1.071589 3.23774,-0.94109 5.41687,0.436887 9.99142,9.249817 9.99142,19.24858 0,11.861505 -7.7146,22.706462 -19.27708,27.099152 -4.94507,1.878674 -7.44474,2.481037 -17.4118,4.195842 -0.6791,0.116837 -4.67113,0.30472 -8.87118,0.417517 -14.93622,0.401129 -26.17342,-2.046649 -32.1,-6.992279 -0.90005,-0.751078 -1.75671,-1.365597 -1.90369,-1.365597 -0.14698,0 -1.01522,0.699646 -1.92941,1.554768 -1.7681,1.65385 -3.49952,2.658688 -6.24282,3.623053 -2.39925,0.843421 -7.12133,0.829688 -9.73692,-0.02832 l -2.04652,-0.671331 -1.30487,1.271282 c -2.06611,2.012937 -4.28334,2.811651 -8.18403,2.948139 -2.29064,0.08015 -3.86835,-0.04896 -4.98469,-0.407921 z m 7.12552,-3.566577 c 2.47159,-0.733401 3.70442,-1.631093 4.56993,-3.327639 1.82172,-3.570865 0.11858,-7.851176 -3.81664,-9.59191 -5.93856,-2.626909 -12.95163,2.350722 -11.41366,8.101019 0.72862,2.724228 2.10773,4.04224 5.06142,4.837204 2.46456,0.663321 3.3101,0.6605 5.59895,-0.01867 z m 68.41472,-0.864291 c 7.43539,-0.682002 15.84044,-2.839764 20.10833,-5.162252 4.85949,-2.644419 8.90513,-6.536909 11.06391,-10.645074 1.74928,-3.328895 2.23529,-4.806524 2.70195,-8.214781 0.86984,-6.352975 -1.64002,-15.21092 -5.01442,-17.697163 -0.88142,-0.649427 -1.01145,-0.659616 -1.80258,-0.141246 -0.46895,0.307269 -1.08331,0.789334 -1.36523,1.071257 -1.14097,1.140977 -3.693,2.114496 -5.93641,2.26456 -1.87273,0.125269 -2.87504,-0.03935 -5.46805,-0.89805 l -3.175,-1.051435 -1.8524,1.919899 c -1.85852,1.926254 -4.84895,3.64112 -6.36076,3.647593 -1.54309,0.0066 -1.27957,-0.9873 0.87143,-3.286729 3.49681,-3.738106 4.97339,-7.882783 4.56608,-12.816775 -0.52408,-6.348377 -4.30717,-11.713137 -10.27713,-14.573877 -6.72973,-3.22482 -13.09858,-3.2215 -19.24194,0.01 -4.20728,2.21311 -8.25115,7.21554 -9.01669,11.153999 -0.20983,1.079464 -0.16124,1.13593 1.32039,1.534526 4.34128,1.167907 6.71488,2.703917 8.40549,5.439372 2.71954,4.400311 0.91903,9.500934 -3.85419,10.918427 -1.04852,0.311376 -2.248,0.566138 -2.66551,0.566138 -1.15076,0 -1.27772,0.352514 -0.51351,1.425749 0.38232,0.536923 0.69513,1.062522 0.69513,1.167997 0,0.247206 -2.16155,-0.476882 -2.7171,-0.910188 -1.49638,-1.16712 -8.12235,4.174513 -10.15574,8.187208 -3.33436,6.580042 -2.93631,12.910226 1.14334,18.182854 3.32694,4.299808 10.35183,7.051383 20.54894,8.048801 2.9502,0.28857 14.27676,0.199904 17.99167,-0.140842 z m -3.57349,-8.818789 c -9.63556,-2.280157 -13.1104,-12.061153 -6.38731,-17.979054 3.3044,-2.908645 8.06144,-4.462183 14.79694,-4.83233 4.58714,-0.252084 6.26868,0.193425 8.58266,2.273887 2.76462,2.485635 3.44406,5.728122 2.10721,10.056329 -1.13986,3.690446 -3.3972,6.356121 -7.24334,8.553601 -3.47106,1.983182 -8.30207,2.768605 -11.85616,1.927567 z m 8.93053,-5.194011 c 4.14407,-2.048332 6.62696,-5.457344 6.63396,-9.108415 0.004,-2.017026 -0.98225,-3.864054 -2.47659,-4.638769 -1.56801,-0.812906 -8.83133,0.01411 -12.98036,1.47798 -3.93704,1.389067 -6.37638,4.422115 -5.9087,7.346807 0.64812,4.053126 4.33974,6.366796 9.7928,6.137498 2.17829,-0.0916 3.14909,-0.33044 4.93889,-1.215101 z m -19.72562,-33.622555 c -1.48118,-0.438281 -2.91753,-2.521252 -2.91753,-4.230944 0,-1.47052 1.18359,-3.439262 2.48003,-4.125184 1.30449,-0.69018 4.06393,-0.35061 5.10596,0.62833 1.25741,1.181267 1.70822,2.82175 1.24657,4.536194 -0.366,1.359211 -2.06498,3.218225 -2.9506,3.228532 -0.22765,0.0026 -0.73141,0.07128 -1.11946,0.15252 -0.38806,0.08124 -1.21829,-0.004 -1.84497,-0.189448 z M 28.501303,-45.568127 c 4.38574,-0.778924 11.00244,-3.385094 11.00244,-4.33362 0,-0.136927 -0.69904,-0.588579 -1.55342,-1.003669 -3.01261,-1.463636 -5.14479,-5.510398 -5.41628,-10.279782 -0.28478,-5.002943 1.00128,-9.099893 4.06894,-12.96225 1.84107,-2.318006 3.89818,-3.328547 7.36269,-3.616866 l 2.64402,-0.220039 -1.44692,-2.887853 c -4.35026,-8.682525 -15.51399,-14.694815 -28.06042,-15.112099 -4.39739,-0.146253 -8.5633705,0.46021 -12.2562605,1.784206 -3.43511,1.231578 -4.80446995,1.998482 -7.75499,4.343153 -4.51376,3.586921 -7.05401,7.310672 -8.8211495,12.930927 -2.71361,8.63043 -0.47913,17.04272 6.1964295,23.328069 1.52021,1.431351 3.67032,3.133627 4.77803005,3.782835 7.48236995,4.385298 19.03541045,6.06236 29.25689045,4.246988 z m 59.63009,-1.444405 c 0.89175,-0.551322 2.10251,-1.687011 2.6906,-2.523752 0.91692,-1.304614 1.0671,-1.831128 1.0542,-3.695821 -0.0203,-2.931497 -0.63395,-4.531966 -2.42283,-6.318875 -3.16812,-3.16463 -8.19782,-3.774626 -11.92265,-1.445964 -1.99969,1.25015 -2.15647,1.788117 -1.48578,5.098113 0.49513,2.443572 0.51475,3.172307 0.13378,4.967532 -0.43683,2.058439 -0.42711,2.123215 0.45002,3.000351 2.40816,2.408158 8.32849,2.88086 11.50266,0.918416 z m 65.798387,-0.115232 c 2.45667,-0.91916 4.50873,-2.411809 5.48309,-3.98836 l 0.76949,-1.245066 -0.91418,-2.172002 c -1.33082,-3.161888 -1.83405,-7.131287 -1.29937,-10.249285 0.36927,-2.153434 0.35123,-2.659007 -0.13119,-3.675631 -0.81923,-1.726389 -3.22293,-3.954208 -5.44263,-5.044371 -1.69903,-0.834447 -2.36293,-0.953803 -5.29404,-0.951763 -2.70326,0.0019 -3.75438,0.164293 -5.43519,0.8398 -4.03718,1.62251 -6.80292,5.537881 -6.95193,9.841617 -0.0755,2.180328 0.17534,2.850292 1.14032,3.045746 0.26789,0.05426 0.80458,0.21689 1.19263,0.361398 0.38806,0.144507 1.15811,0.432494 1.71124,0.63997 1.48672,0.55767 4.20127,3.368767 5.14832,5.331433 0.62327,1.291655 0.82892,2.320027 0.82892,4.144998 0,1.339837 0.17431,2.570998 0.3891,2.748261 1.44372,1.191499 6.09185,1.38853 8.80542,0.373255 z m -82.524187,-2.224983 c 1.14261,-1.142616 1.39643,-3.136285 0.72581,-5.701052 -0.75425,-2.884588 -2.58952,-5.524285 -5.15268,-7.411179 -2.48078,-1.826245 -5.15325,-2.743027 -9.72155,-3.334947 -3.75461,-0.486488 -4.48383,-0.26591 -5.25969,1.590969 -1.0485,2.509411 -0.59548,3.003531 3.0776,3.356868 1.62222,0.15605 3.74324,0.528269 4.71338,0.827152 3.11592,0.959961 5.61201,3.855801 6.71756,7.793359 0.32686,1.164167 0.92149,2.473854 1.32139,2.910417 0.95643,1.044112 2.51625,1.030343 3.57818,-0.03159 z m -18.95059,-4.695065 c 1.20245,-0.97118 2.23988,-2.703561 1.84289,-3.077396 -0.0846,-0.0797 -0.9758,0.02558 -1.98038,0.233931 -1.45261,0.301283 -1.94482,0.280634 -2.40451,-0.100874 -1.17399,-0.974325 -1.7082,-2.604761 -1.73445,-5.293592 -0.0223,-2.283818 0.10838,-2.87484 0.95507,-4.319562 1.02598,-1.750677 2.43254,-2.735993 3.90569,-2.735993 1.56791,0 2.02267,-0.331856 1.58231,-1.154677 -0.48662,-0.909246 -2.39576,-2.676588 -3.11585,-2.884408 -1.52842,-0.441111 -4.95709,-0.899803 -6.72593,-0.899803 -1.5805,0 -2.29067,0.195459 -3.36903,0.927254 -1.73876,1.179953 -2.07278,1.601214 -3.34559,4.219394 -1.41761,2.916051 -1.73593,6.778979 -0.85487,10.374238 1.19895,4.892409 3.25119,6.020894 10.65854,5.860913 3.04894,-0.06585 3.33249,-0.136915 4.58611,-1.149425 z m 22.11682,-9.068975 c 1.81696,-1.383219 3.9655,-2.331628 5.93068,-2.617908 l 1.86373,-0.271503 v -2.340596 c 0,-2.077774 -0.12082,-2.492794 -1.07602,-3.696022 -2.24177,-2.823872 -6.55861,-4.062721 -9.33092,-2.677794 -1.19035,0.594644 -1.23479,0.687855 -1.23672,2.593473 -0.002,2.445517 -0.58206,3.286389 -2.06129,2.990544 -1.48622,-0.297246 -1.99366,-0.835163 -1.99366,-2.113428 0,-0.614227 -0.35718,-1.825101 -0.79375,-2.690832 -1.04936,-2.08096 -3.10649,-3.161555 -6.01865,-3.161555 -3.16863,0 -5.80868,1.567674 -4.1421,2.4596 0.87684,0.469273 2.0643,2.43263 2.60792,4.311962 l 0.4393,1.518715 2.12276,0.235869 c 3.37189,0.374665 6.94048,1.949012 9.61528,4.241956 1.28857,1.10461 2.48662,2.017422 2.66233,2.028472 0.17572,0.01105 0.81072,-0.353878 1.41111,-0.810953 z m 54.595547,0.23509 c 1.29128,-0.17955 1.29329,-0.182556 1.68747,-2.525932 0.58588,-3.482997 2.13413,-6.376655 4.6112,-8.618275 3.75675,-3.399665 7.53299,-4.692343 12.91001,-4.419337 4.07641,0.206971 7.61684,1.75207 10.19267,4.448241 l 1.71986,1.800206 1.21292,-1.835446 c 1.61909,-2.450077 3.3439,-4.252595 5.80234,-6.063745 l 2.03484,-1.499079 -1.2297,-0.937943 c -0.77126,-0.588268 -1.38603,-1.459701 -1.64902,-2.337475 -0.29064,-0.970086 -0.78028,-1.612512 -1.59569,-2.093612 -1.61072,-0.950351 -2.59095,-2.674667 -2.59256,-4.560562 -0.002,-2.737714 1.89994,-4.805039 5.33712,-5.800195 1.46632,-0.424538 1.50808,-0.479702 2.05739,-2.717249 1.09704,-4.46875 3.14388,-7.57437 7.41472,-11.25017 1.37152,-1.18044 2.32962,-2.14625 2.12911,-2.14625 -0.20052,0 -2.62553,0.30751 -5.38892,0.68335 -8.31031,1.13025 -19.50168,2.17416 -30.42435,2.83791 -3.10444,0.18866 -6.91444,0.44022 -8.46666,0.55904 -3.43573,0.26299 -35.003297,0.26497 -38.452777,0.002 -1.35819,-0.10338 -4.29507,-0.27471 -6.52639,-0.38074 -4.31312,-0.20494 -6.012,-0.31261 -14.11111,-0.8943 -26.36339,-1.89344 -54.58658,-6.82338 -70.9083205,-12.38604 -2.81341,-0.95885 -5.41735995,-1.8402 -5.78655995,-1.95857 -0.60663005,-0.19448 -0.64956005,-0.0794 -0.44575005,1.19519 0.39064005,2.44295 1.91704005,7.30832 4.2682,13.60482 3.21518,8.61041 4.31242,10.930935 5.06341,10.708493 1.80442,-0.534473 6.7290405,-0.911243 9.7987605,-0.749673 9.75095,0.51322 17.23482,3.103547 23.96255,8.293953 3.90927,3.015983 7.90402,8.63161 8.97834,12.621312 0.22117,0.821369 0.54258,1.493398 0.71424,1.493398 0.17166,0 0.77148,-0.386531 1.33293,-0.858958 2.7982,-2.35453 8.07384,-2.882815 11.7916,-1.18077 1.09251,0.500171 2.34189,1.264904 2.7764,1.699407 l 0.79,0.790007 2.44884,-0.802823 c 2.02347,-0.663372 2.91728,-0.767394 5.14572,-0.598858 6.49443,0.491173 10.87225,4.98315 10.81074,11.092662 -0.0142,1.41392 0.11744,1.893576 0.55823,2.033479 0.31728,0.100699 1.48407,0.729378 2.59287,1.397065 1.66319,1.001517 2.42984,1.233905 4.38066,1.327855 4.03239,0.194198 33.688187,0.21721 35.054667,0.0272 z m 50.02853,-21.801384 c 2.42694,-1.25502 2.7693,-4.028081 0.8005,-6.483891 -1.21951,-1.521174 -3.4761,-2.38568 -7.56581,-2.898486 -4.56638,-0.572575 -6.46649,0.331647 -6.21258,2.956435 0.0904,0.934041 0.37414,1.263859 1.6349,1.900082 0.83906,0.423421 2.74406,1.037882 4.23333,1.36547 3.83669,0.843939 3.77438,0.819725 3.30834,1.285769 -0.21965,0.219645 -1.31776,0.463968 -2.44024,0.54294 -2.92091,0.205499 -3.15096,0.314448 -2.40485,1.13889 0.33772,0.373171 0.95464,0.755344 1.37094,0.849273 1.43162,0.323016 6.21618,-0.108706 7.27547,-0.656482 z m 39.40175,-6.265854 c 0.6083,-1.018646 1.62075,-2.804583 2.24989,-3.96875 0.62914,-1.164166 1.25881,-2.275416 1.39926,-2.469444 0.43058,-0.594829 3.17981,-6.838901 4.81512,-10.936111 1.62571,-4.07316 5.05847,-15.45744 5.05847,-16.77571 0,-0.57274 -0.15761,-0.7185 -0.61736,-0.57096 -0.33955,0.10897 -2.91924,0.99065 -5.73264,1.95928 -5.78286,1.99101 -15.50216,4.5198 -22.57778,5.87436 -2.61937,0.50145 -4.99831,0.99106 -5.28652,1.08804 -0.28821,0.097 0.66429,0.57626 2.11667,1.06509 6.24955,2.10343 10.68866,5.53842 13.71309,10.61121 2.41626,4.05273 2.97736,6.211614 2.98295,11.477162 0.003,3.004615 0.13228,4.497916 0.38882,4.497916 0.21122,0 0.88174,-0.833437 1.49003,-1.852083 z m -78.37587,-22.987035 c 9.38849,-0.71194 12.88722,-1.00788 17.4625,-1.47709 2.81341,-0.28852 5.59153,-0.58266 6.17361,-0.65364 0.58209,-0.071 2.16959,-0.2388 3.52778,-0.37293 1.3582,-0.13413 6.67632,-0.86172 11.81806,-1.61687 35.19038,-5.16831 57.17439,-12.0415 64.86918,-20.28101 5.56697,-5.96106 6.6998,-11.67512 3.67174,-18.52053 -1.30267,-2.94492 -5.44632,-6.50603 -10.58124,-9.09369 -2.45179,-1.23553 -6.84568,-2.95172 -7.04553,-2.75187 -0.0716,0.0716 0.88914,1.16983 2.13501,2.44046 3.17252,3.2356 4.87271,6.72765 5.07024,10.41385 0.13693,2.55533 0.0797,2.82605 -0.9272,4.38961 -3.63993,5.652 -16.79045,10.67382 -37.78943,14.43075 -6.40094,1.14519 -20.98329,3.29142 -24.87083,3.66049 -1.35819,0.12894 -2.86632,0.29859 -3.35139,0.37699 -0.48507,0.0784 -3.73944,0.38349 -7.23194,0.67798 -3.4925,0.2945 -7.22313,0.61997 -8.29028,0.72328 -1.06715,0.10331 -4.26033,0.40158 -7.09595,0.66283 -4.78384,0.44075 -5.39001,0.58052 -8.40475,1.93798 -3.50148,1.57664 -8.14932,2.84442 -10.44254,2.8484 -2.38184,0.004 -5.46539,-0.99627 -7.36853,-2.39057 l -1.78962,-1.31113 h -6.70277 c -6.16134,0 -6.91651,0.0699 -9.34861,0.86544 -1.45521,0.47599 -3.18355,1.22979 -3.840757,1.67513 -1.7408,1.17958 -3.76782,1.61786 -6.56619,1.41971 -2.82876,-0.2003 -4.94789,-1.05483 -8.12796,-3.27759 l -2.16977,-1.51659 -6.14002,-0.56698 c -3.37701,-0.31183 -6.8544,-0.63664 -7.72752,-0.72179 -0.87313,-0.0851 -3.33375,-0.31898 -5.46806,-0.51963 -19.45923,-1.82937 -33.39825,-4.03111 -45.8611,-7.24399 -15.2800005,-3.93914 -24.3833105,-8.48552 -26.1256105,-13.04766 -1.20769,-3.16231 0.24787,-7.30948 3.77205,-10.74724 2.17277,-2.11947 2.42663,-2.61852 1.51082,-2.96995 -1.05402,-0.40447 -1.98713,-0.21177 -4.72962,0.9767 -8.8506995,3.8355 -13.1915795,10.77412 -11.6640495,18.64425 1.25819,6.48249 5.52052,11.03252 14.3058495,15.27151 11.60894,5.60141 24.9741105,9.12082 49.5652805,13.0519 0.48506,0.0775 1.35819,0.22042 1.94027,0.31751 0.58209,0.0971 3.67771,0.50379 6.87917,0.90378 3.20146,0.39999 6.29708,0.792 6.87917,0.87113 0.58208,0.0791 2.01083,0.24285 3.17499,0.36384 1.16417,0.12098 2.75167,0.28624 3.52778,0.36723 0.77611,0.081 2.52236,0.24012 3.88056,0.35359 1.35819,0.11347 3.10444,0.26939 3.88055,0.34648 0.77611,0.0771 3.15736,0.24757 5.29167,0.37884 2.1343,0.13127 3.97015,0.2893 4.07965,0.35117 0.1095,0.0619 3.44325,0.2219 7.40833,0.3556 3.96508,0.1337 7.28108,0.30699 7.36889,0.3851 0.24078,0.21416 38.221677,-0.1346 41.468117,-0.38078 z m -43.767047,-16.55211 c 0.61077,-0.4466 0.59579,-0.53794 -0.31358,-1.91209 -1.99716,-3.01791 -0.23969,-4.30892 2.72329,-2.00048 1.564507,1.2189 1.779387,1.28487 3.673627,1.12778 1.73908,-0.14422 2.14181,-0.32243 2.96971,-1.31411 1.81521,-2.17434 2.25147,-6.72001 1.07499,-11.20112 -0.74437,-2.83526 -3.23685,-7.62304 -5.41308,-10.39796 -1.934787,-2.46705 -5.524987,-5.93578 -6.143627,-5.93578 -0.26895,0 -0.48899,-0.15875 -0.48899,-0.35278 0,-0.19403 0.15376,-0.35278 0.3417,-0.35278 0.18794,0 0.25649,-0.22207 0.15234,-0.49348 -0.25862,-0.67396 0.56762,-1.12731 0.95111,-0.52185 0.22299,0.35205 0.30942,0.36452 0.31333,0.0452 0.003,-0.25358 0.45514,-0.44097 1.06374,-0.44097 0.58208,0 1.05833,0.13161 1.05833,0.29247 0,0.16087 0.8106,0.67214 1.801327,1.13618 3.60446,1.68824 8.84481,9.43874 11.0795,16.38663 0.18115,0.56319 0.39439,0.29633 1.05689,-1.32264 1.05184,-2.57041 4.27742,-7.16612 6.24606,-8.89918 0.83163,-0.73211 2.3254,-2.06545 3.31948,-2.96298 2.89567,-2.6144 4.71465,-3.56535 7.27764,-3.80468 2.48578,-0.23213 3.79132,0.19783 3.79132,1.2486 0,0.85555 -0.73768,1.44261 -3.91172,3.11302 -8.25604,4.34495 -13.38876,10.61644 -13.36646,16.33202 0.02,5.13205 3.70631,7.74745 7.701,5.46381 3.45909,-1.97747 4.30919,-0.2114 1.38598,2.87935 -1.27311,1.34608 -1.10683,2.32261 0.54329,3.1907 3.43199,1.80548 11.38944,-0.44973 18.49084,-5.24046 1.40396,-0.94713 2.59459,-1.69191 2.64583,-1.65506 0.0513,0.0369 0.45083,-0.12441 0.88795,-0.35835 1.44766,-0.77476 2.18704,0.88424 1.04429,2.34312 -0.19366,0.24722 -0.2521,0.54949 -0.12988,0.67171 0.22409,0.2241 4.79646,0.18125 6.07055,-0.0569 0.37782,-0.0706 0.92506,-0.14054 1.21611,-0.15538 0.43419,-0.0221 0.52916,-0.67595 0.52916,-3.64296 0,-3.27139 0.0947,-3.80087 0.99394,-5.55625 0.54666,-1.06716 1.56071,-2.52499 2.25343,-3.23962 1.20451,-1.24261 1.24913,-1.3776 1.02179,-3.09136 -0.38677,-2.91557 -1.85506,-7.51842 -3.54303,-11.10679 -1.25976,-2.67807 -1.75989,-3.40078 -2.47819,-3.58106 -0.93064,-0.23358 -1.49614,-1.45801 -1.12276,-2.43102 0.10993,-0.28648 2.15111,-1.4487 4.53596,-2.5827 6.75722,-3.21307 10.04684,-5.54148 15.27219,-10.80971 4.97707,-5.0179 6.85568,-7.73581 9.35667,-13.53691 2.22342,-5.15727 2.93023,-9.26029 2.95914,-17.17777 0.0339,-9.27973 -1.04796,-16.2523 -3.82823,-24.67344 -5.87145,-17.78402 -16.66802,-32.15486 -30.20866,-40.20941 -6.46125,-3.84343 -15.23245,-7.11673 -21.84697,-8.15301 -0.87312,-0.13679 -1.905,-0.32552 -2.29305,-0.4194 -0.38806,-0.0939 -3.40431,-0.22414 -6.70278,-0.28948 -7.57003,-0.14995 -14.5886,0.77774 -20.637497,2.72779 -23.26327,7.49963 -40.90977,25.16698 -48.99345,49.05134 -3.68362,10.88375 -4.6408,15.98901 -4.48212,23.90588 0.1297,6.47107 0.62515,8.8351 2.86987,13.6935 4.39285,9.50775 12.41019,16.94703 25.11751,23.30649 4.52763,2.26588 5.02708,2.60669 5.02708,3.43027 0,0.55545 -0.40411,1.29194 -1.02938,1.87603 -1.72213,1.60871 -2.67654,5.34384 -2.66612,10.43399 0.01,4.73236 0.45981,6.7545 2.64643,11.88891 2.62477,6.16324 5.89385,10.53083 9.79511,13.08657 3.92492,2.57125 6.82909,3.35415 8.34107,2.24856 z m 13.075387,-72.07138 c -8.1713,-1.26524 -14.080827,-4.72709 -16.322067,-9.5616 -1.26675,-2.73247 -1.33163,-7.0344 -0.15092,-10.00645 1.10692,-2.78629 4.0403,-5.90726 7.017217,-7.46597 4.18746,-2.19254 5.91247,-2.5458 12.45438,-2.55054 5.42125,-0.004 6.03879,0.0646 8.99583,0.998 4.11233,1.29808 6.33232,2.58473 8.60399,4.9867 2.55918,2.70595 3.66152,5.25503 3.85445,8.91308 0.12731,2.41377 0.0167,3.27284 -0.6511,5.05862 -1.49145,3.98809 -5.61387,7.46884 -10.49753,8.86355 -2.341,0.66856 -10.78896,1.15407 -13.30425,0.76461 z m 9.64644,-4.52362 c 6.91597,-1.23536 10.41964,-4.57616 10.38269,-9.90003 -0.0277,-3.98613 -2.40965,-7.17938 -6.95193,-9.31963 -5.55999,-2.61978 -15.00401,-2.71133 -20.04749,-0.19434 -4.839967,2.41542 -7.164907,6.94786 -5.899947,11.50185 0.44841,1.61431 2.71431,4.20941 4.682597,5.36291 4.36367,2.55728 11.82124,3.62328 17.83408,2.54924 z m -0.81404,-7.23556 c -0.89922,-0.99363 -1.10541,-3.52283 -0.39861,-4.88963 1.52082,-2.94094 5.63333,-0.82014 4.99612,2.57648 -0.50394,2.68625 -3.08475,3.98473 -4.59751,2.31315 z m -14.93949,-1.08639 c -1.33931,-1.24775 -0.777,-5.1472 0.83123,-5.76434 2.05544,-0.78874 3.68836,0.54793 3.68836,3.01922 0,3.0212 -2.55653,4.57399 -4.51959,2.74512 z m 58.43472,-3.24945 c -0.30112,-0.24253 -1.04655,-1.18499 -1.65652,-2.09436 -1.35269,-2.01663 -3.57822,-3.88595 -5.89644,-4.95267 -1.39585,-0.64229 -2.35757,-0.79856 -4.91078,-0.79796 -3.95946,9.3e-4 -5.44495,0.68255 -8.47979,3.89093 -1.79381,1.89637 -2.26686,2.21782 -2.99862,2.03763 -1.35738,-0.33425 -1.75076,-0.80825 -1.75076,-2.10957 0,-3.81815 4.94183,-7.95133 10.70751,-8.95538 2.95385,-0.51439 5.60145,-0.245 9.13499,0.92948 l 2.73277,0.90832 0.91456,-1.08689 c 0.9133,-1.0854 2.54414,-1.45822 3.55789,-0.81337 0.86223,0.54847 0.92096,2.12847 0.12688,3.41332 -0.96612,1.5632 -0.65152,2.19131 0.62542,1.24866 2.39352,-1.76694 4.43994,-1.39892 4.37783,0.7873 -0.0318,1.11873 -0.87167,2.16748 -2.43764,3.04384 -0.50612,0.28324 -0.5284,0.42685 -0.13902,0.89603 0.58771,0.70814 0.2361,2.23363 -0.76106,3.30191 -0.81521,0.87337 -2.29495,1.03923 -3.14722,0.35278 z m -74.249647,-5.71896 c -0.40478,-0.28351 -1.16457,-1.39152 -1.68842,-2.46224 -1.77366,-3.62523 -5.14643,-5.38202 -9.7063,-5.05576 -3.2499,0.23253 -5.30582,1.26211 -8.28107,4.14704 -3.241,3.14263 -3.82361,3.19958 -5.64706,0.552 -1.36923,-1.98806 -1.37439,-2.20608 -0.086,-3.63695 l 0.71837,-0.79779 -1.09475,-1.14249 c -1.4351,-1.49769 -1.64665,-2.891 -0.59813,-3.93951 0.90349,-0.90349 2.11077,-0.66013 3.37515,0.68036 1.25255,1.32794 2.32118,1.67621 1.8943,0.61736 -0.13689,-0.33955 -0.33401,-1.21624 -0.43804,-1.9482 -0.48355,-3.40237 3.54004,-3.74818 4.4536,-0.38276 0.24077,0.88694 0.41845,0.99669 1.47894,0.91359 0.66291,-0.052 2.87217,-0.12189 4.90946,-0.15542 3.29729,-0.0543 3.95108,0.0425 5.95207,0.88098 3.87271,1.62279 6.84951,4.68019 7.86883,8.08187 0.48749,1.62684 -0.0664,3.1856 -1.33773,3.76487 -1.06933,0.48722 -0.8942,0.49877 -1.77325,-0.11695 z m 64.076677,-19.90965 c -3.08282,-0.98241 -4.93661,-2.95281 -4.93661,-5.24714 0,-2.12435 1.24728,-3.02123 3.93426,-2.82897 3.39236,0.24273 5.96873,2.91609 5.45408,5.65941 -0.38373,2.04546 -2.31934,3.09624 -4.45173,2.4167 z m -74.979027,-6.54632 c -2.94441,-2.94441 2.61204,-8.36699 7.06699,-6.89672 1.46325,0.48291 1.94488,1.23365 1.94488,3.03156 0,3.41578 -6.62136,6.25566 -9.01187,3.86516 z m 37.324877,116.6652 c 0.0728,-0.14552 -0.38382,-1.217 -1.01481,-2.38107 -0.75194,-1.38722 -1.21381,-1.93421 -1.34045,-1.5875 -0.71304,1.95223 -1.26331,3.66174 -1.26331,3.92473 0,0.3752 3.43191,0.41678 3.61857,0.0438 z m -35.368557,-1.52394 c 0,-0.20757 -0.45533,-1.04101 -1.01184,-1.85208 -2.45959,-3.58466 -4.24961,-8.11953 -5.87358,-14.88023 -0.32625,-1.35819 -0.85518,-2.71162 -1.17541,-3.00762 -1.64047,-1.51635 -6.69996,-1.82605 -9.14827,-0.55998 -2.96761,1.53461 -5.35781,4.94064 -5.36523,7.64546 -0.003,1.08509 0.25926,1.48244 1.93084,2.92558 2.21818,1.91504 3.53106,3.96599 4.38638,6.85231 l 0.59838,2.01925 1.74395,0.22706 c 0.95917,0.12488 3.64894,0.34307 5.97728,0.48487 2.32833,0.1418 4.29948,0.31744 4.38032,0.39031 0.35466,0.31967 3.55718,0.0992 3.55718,-0.24493 z m 91.369427,-1.23705 c 9.71567,-0.96302 22.17137,-2.77691 22.70023,-3.30576 0.56594,-0.56594 -0.45446,-3.07073 -1.93716,-4.75517 -2.62809,-2.98567 -7.51448,-4.03622 -10.97707,-2.36001 -1.59346,0.77138 -2.2695,1.65836 -2.45118,3.21596 -0.0795,0.68199 -0.43622,0.99719 -1.57312,1.39023 -1.97643,0.68326 -2.5867,0.19153 -2.5867,-2.0843 0,-1.90545 -0.49093,-2.50547 -2.6062,-3.18527 -2.55957,-0.82259 -5.90192,0.0308 -8.09763,2.06753 -1.71467,1.59052 -2.46838,3.46741 -2.49841,6.22153 -0.0394,3.61672 0.0781,3.78136 2.52655,3.5387 1.11795,-0.11079 4.49326,-0.44534 7.50069,-0.74344 z m -111.838287,-0.76678 c -0.0161,-1.28286 -1.36169,-3.51933 -2.96828,-4.93351 -4.52945,-3.98698 -11.76889,-3.6332 -16.16217,0.78982 -0.53357,0.53719 -0.97013,1.26953 -0.97013,1.62743 0,0.73777 0.37191,0.85199 4.40972,1.35429 1.55222,0.1931 3.61597,0.45289 4.58611,0.57731 2.01067,0.25787 9.56438,1.09119 10.49514,1.15782 0.37216,0.0266 0.61428,-0.201 0.60961,-0.57316 z m -23.80666,-4.87151 c 0.91934,-1.43716 1.83374,-2.30895 3.4227,-3.26319 3.37617,-2.02755 3.81115,-2.55813 3.81115,-4.64879 0,-2.21296 -0.71203,-3.99487 -1.90995,-4.77978 -1.08258,-0.70933 -3.34063,-0.58666 -9.89725,0.53768 -8.24099,1.41317 -10.24704,2.4067 -11.65284,5.77124 -0.66953,1.60243 -0.41728,4.13572 0.49392,4.96035 0.63966,0.57889 11.40393,3.17222 13.87126,3.34187 0.37442,0.0257 1.08656,-0.70872 1.86101,-1.91938 z m 166.536407,1.24519 c 4.75155,-0.82427 5.49072,-1.07803 5.37578,-1.84553 -0.0591,-0.39484 -0.71056,-1.20469 -1.44761,-1.79966 -1.11389,-0.89916 -1.65226,-1.08177 -3.18936,-1.08177 -3.28951,0 -5.51191,2.05433 -4.53704,4.19392 0.4565,1.00193 0.8096,1.05148 3.79823,0.53304 z m 16.38076,-4.27515 c 5.39418,-1.5806 11.77458,-4.53142 14.06023,-6.5026 l 1.53662,-1.32521 -0.14153,-2.14543 c -0.2539,-3.84869 -2.74732,-7.90185 -6.22342,-10.11647 -1.47,-0.93653 -1.58225,-0.95417 -2.96545,-0.46615 -0.79069,0.27897 -1.50491,0.43993 -1.58717,0.35767 -0.0823,-0.0823 0.11872,-0.55897 0.4466,-1.05937 0.7296,-1.1135 0.46159,-1.97244 -0.61689,-1.97706 -1.09365,-0.005 -4.18127,-1.49025 -4.99168,-2.40168 -0.74715,-0.84028 -1.12658,-3.30712 -0.78706,-5.11692 0.52161,-2.78042 3.13699,-5.35528 6.67542,-6.572 1.72965,-0.59475 1.82452,-0.69114 1.79309,-1.82182 -0.089,-3.20338 -3.80322,-7.96382 -7.64344,-9.79659 -4.84106,-2.31042 -9.6839,-2.42291 -14.06142,-0.32662 -6.28298,3.00877 -9.43637,8.32623 -9.05455,15.2684 0.24588,4.47057 1.97546,7.3434 6.37826,10.59429 0.94376,0.69684 0.94754,0.71586 0.30575,1.53968 -0.85623,1.09911 -2.02784,0.84528 -4.96916,-1.07658 l -2.21784,-1.44913 -2.16748,0.75415 c -4.46701,1.55423 -7.13484,1.90937 -10.72114,1.42716 -3.22445,-0.43355 -3.27215,-0.42905 -4.14514,0.39108 -1.06763,1.003 -1.10342,1.71415 -0.17759,3.52892 0.38805,0.76065 0.70555,2.03325 0.70555,2.828 0,1.37393 0.0783,1.47963 1.59157,2.14903 1.81582,0.80322 2.14649,0.70816 2.45718,-0.70638 0.57217,-2.60506 4.41344,-5.36148 7.49547,-5.3786 4.40876,-0.0245 15.20652,2.65217 18.14378,4.49767 3.15056,1.97952 4.90964,4.79884 5.14867,8.25194 0.15369,2.22015 0.002,2.92095 -1.35194,6.23353 -0.37467,0.91687 -0.37415,1.21801 0.003,1.67228 0.54129,0.65222 0.61993,0.63828 7.08185,-1.25519 z m -8.70347,-33.25668 c -1.40789,-0.62973 -1.87986,-1.50486 -1.87986,-3.48567 0,-1.97101 0.98511,-3.31026 2.667,-3.62579 2.26189,-0.42433 4.38855,1.12693 4.38855,3.20117 0,1.13163 -0.77806,3.0343 -1.47828,3.61495 -0.84933,0.70432 -2.49004,0.83538 -3.69741,0.29534 z M 13.754413,-147.0406 c 0.007,-3.74462 2.52413,-7.10204 6.83219,-9.11284 2.69158,-1.25631 11.41974,-2.85967 15.91853,-2.92423 2.77768,-0.0399 3.35158,0.0609 4.58611,0.80525 3.12133,1.88199 4.45413,3.92043 4.54751,6.95519 0.0314,1.02029 0.13229,1.92218 0.22423,2.00421 0.0919,0.082 1.44141,0.23241 2.99884,0.33418 l 2.8317,0.18504 0.59535,-2.0201 c 0.32744,-1.11106 1.15662,-2.83604 1.84261,-3.8333 1.457,-2.11811 1.54838,-3.20036 0.45351,-5.37104 -1.04237,-2.06657 -2.08433,-2.43725 -4.61161,-1.6406 -3.37855,1.06499 -6.5565,0.6375 -12.26121,-1.64935 -1.27641,-0.51168 -2.49617,-0.93032 -2.71059,-0.93032 -0.21442,0 -1.18584,0.49481 -2.15871,1.09959 -1.8255,1.13479 -4.70689,1.74568 -5.11549,1.08454 -0.12466,-0.20169 1.01842,-1.60907 2.54017,-3.1275 3.26491,-3.25782 4.49677,-5.58389 5.0814,-9.59506 0.34123,-2.34114 0.31281,-3.12162 -0.18747,-5.14891 -1.31882,-5.3442 -3.89228,-8.51343 -8.95307,-11.02573 -3.24716,-1.61198 -3.49107,-1.67487 -6.94129,-1.78992 -3.08738,-0.10295 -3.92211,5.2e-4 -6.1103,0.75741 -4.5592705,1.57703 -8.0679505,4.51515 -9.6134905,8.05017 -1.16405,2.6625 -1.09652,3.18726 0.50624,3.93357 1.93623,0.90158 4.35605,3.28431 5.17819,5.09881 0.9096405,2.00761 0.9029505,4.54947 -0.0165,6.28996 -0.93958,1.77849 -2.01228,2.50996 -4.52855,3.08796 -2.01441,0.46272 -2.04252,0.48626 -1.92911,1.6152 0.10161,1.01146 0.0314,1.11907 -0.59973,0.91876 -0.39315,-0.12478 -1.15930995,0.006 -1.70258995,0.2914 -2.27394005,1.1931 -5.39749005,5.57307 -5.39749005,7.5686 0,2.44573 7.21683,6.69821 15.6986105,9.25033 3.05734,0.91994 2.99814,0.94284 3.00206,-1.16127 z m 0.53799,-28.17057 c -1.115,-0.97898 -1.24699,-1.28145 -1.24699,-2.8575 0,-1.53417 0.15545,-1.91807 1.19944,-2.96206 0.9833,-0.9833 1.46645,-1.19945 2.68111,-1.19945 1.21466,0 1.69781,0.21615 2.68111,1.19945 0.99874,0.99874 1.19945,1.45785 1.19945,2.74373 0,1.76334 -0.65244,2.88436 -2.12057,3.64356 -1.62089,0.8382 -2.99444,0.66071 -4.39355,-0.56773 z m 182.750827,27.02405 c 2.6251,-1.39265 5.16724,-1.62113 7.73688,-0.69539 2.03196,0.73204 2.22542,0.66921 2.63619,-0.8563 0.8419,-3.12658 -0.89316,-6.45059 -4.26494,-8.17075 -1.45066,-0.74007 -5.40006,-2.04978 -6.99814,-2.32074 -0.49396,-0.0838 -1.61248,-0.37461 -2.48561,-0.64634 -5.63642,-1.75417 -7.80703,-1.45174 -9.2017,1.28203 -0.85712,1.68009 -0.73511,2.98191 0.54455,5.81016 0.75414,1.66678 0.96994,1.85968 2.7098,2.42224 2.15146,0.69565 4.7127,2.21364 5.941,3.5211 0.45919,0.48879 0.88432,0.88871 0.94472,0.88871 0.0604,0 1.15717,-0.55563 2.43725,-1.23472 z m -19.96296,-1.58267 c 0.54124,-0.38539 1.71515,-1.0141 2.60869,-1.39711 1.56196,-0.66954 1.61024,-0.73419 1.25194,-1.6766 -0.52626,-1.38416 -1.74744,-3.37789 -2.38788,-3.89848 -0.85461,-0.6947 -1.40465,-0.5245 -1.99513,0.61736 -0.58798,1.13704 -1.49782,1.34322 -3.15203,0.71428 -0.8535,-0.3245 -0.90491,-0.48563 -0.90491,-2.83627 0,-2.80467 -0.72086,-4.64877 -2.59567,-6.64017 -2.29132,-2.43383 -6.16979,-3.50113 -8.77189,-2.41391 l -1.30828,0.54664 1.36445,2.93346 c 1.68187,3.61591 2.3824,5.66358 3.15584,9.22465 l 0.60019,2.7634 3.33671,0.0785 c 2.83383,0.0667 3.61207,0.22072 5.16382,1.02225 1.00492,0.51908 1.9271,1.10554 2.04929,1.30326 0.3055,0.4943 0.45739,0.46159 1.58486,-0.34124 z M 61.378293,-160.02591 c 1.96015,-0.59409 5.4608,-0.66333 7.66237,-0.15156 2.10353,0.48899 2.53031,0.34206 2.57377,-0.88604 0.0522,-1.47631 0.49011,-3.53455 1.08821,-5.11528 0.36707,-0.97014 0.66748,-2.00689 0.66758,-2.30389 1.1e-4,-0.31564 -1.06246,-1.0804 -2.55746,-1.84068 -3.20761,-1.63122 -5.45837,-2.92543 -8.36269,-4.80865 -2.73994,-1.77663 -3.27394,-1.92832 -6.14469,-1.74553 -2.953,0.18803 -6.44259,1.87878 -8.13142,3.93978 -1.6414,2.00312 -3.0181,5.04516 -3.02233,6.67834 -0.005,1.9751 0.9589,2.29683 4.03513,1.34668 2.98839,-0.92302 4.16813,-0.92567 6.05227,-0.0136 1.51704,0.73439 2.73349,2.05541 3.80064,4.12738 0.66466,1.29049 0.64868,1.2852 2.33862,0.77302 z m 36.68655,-3.68343 c 0,-0.097 -0.0794,-0.17639 -0.17639,-0.17639 -0.097,0 -0.17638,0.0794 -0.17638,0.17639 0,0.097 0.0794,0.17639 0.17638,0.17639 0.097,0 0.17639,-0.0794 0.17639,-0.17639 z m -56.81479,-3.9837 c 0.22307,-0.92986 0.87391,-2.6191 1.4463,-3.75388 0.5724,-1.13478 1.04072,-2.12817 1.04072,-2.20752 0,-0.0794 -0.89499,-0.0967 -1.98886,-0.0385 l -1.98885,0.1058 -0.85312,2.46944 c -1.21097,3.50524 -1.19719,3.75682 0.24472,4.47037 0.6791,0.33606 1.33795,0.61865 1.46412,0.62797 0.12617,0.009 0.41191,-0.74385 0.63497,-1.6737 z m -37.4259805,-0.99829 c 0.60358,-0.12071 1.51602,-0.60742 2.02764,-1.08158 0.79892,-0.74041 0.90616,-1.0755 0.7598,-2.37404 -0.32194,-2.85621 -2.35118,-4.5773 -6.64141995,-5.63292 -3.23823005,-0.79677 -4.79472005,-0.75063 -5.28020005,0.1565 -0.60606,1.13242 -0.0591,2.69232 1.35183,3.85532 1.27355,1.04978 2.00378,1.36336 4.93169005,2.11783 2.15317995,0.55483 1.50657995,1.06171 -1.35438,1.06171 -1.97530005,0 -2.44862005,0.10558 -2.44862005,0.5462 0,1.18122 3.72291005,1.93713 6.65366,1.35098 z m 169.8013075,-1.34275 c 0.87758,-0.75117 1.9682,-1.30128 2.8783,-1.4518 0.80593,-0.13329 1.58726,-0.31456 1.73629,-0.40281 0.40076,-0.23732 -1.02231,-2.09207 -2.42745,-3.16383 l -1.22534,-0.93461 -2.98651,2.04956 c -1.64259,1.12726 -3.14965,2.24613 -3.34904,2.48638 -0.26989,0.3252 0.11398,0.71457 1.50243,1.52391 1.02572,0.5979 1.99846,1.0906 2.16164,1.09488 0.16319,0.004 0.93254,-0.53648 1.70968,-1.20168 z m 13.5663,-1.82905 c 3.31164,-0.67991 4.05089,-1.02141 3.77386,-1.74335 -0.17042,-0.44409 -0.87657,-0.5225 -4.05401,-0.45011 -2.1162,0.0482 -4.01677,0.19218 -4.22349,0.31994 -0.49948,0.3087 0.59211,2.44258 1.24951,2.44258 0.2653,0 1.72967,-0.25608 3.25413,-0.56906 z m 40.3222,-0.47835 c 1.15106,-0.61603 0.51934,-1.0687 -1.49973,-1.07465 -2.02014,-0.006 -3.29682,-0.48698 -2.14246,-0.80722 0.36519,-0.10131 1.76354,-0.39148 3.10745,-0.64482 3.21931,-0.60688 4.57855,-1.52019 4.71811,-3.17022 0.0666,-0.78676 -0.0886,-1.41508 -0.4166,-1.68732 -0.79117,-0.6566 -4.08742,-0.87699 -6.24067,-0.41725 -3.19603,0.68239 -4.77316,1.63234 -5.62232,3.38648 -0.72012,1.48757 -0.72651,1.60171 -0.15682,2.80223 0.46944,0.98929 0.93642,1.36131 2.22879,1.77559 1.77619,0.56937 4.80932,0.48739 6.02425,-0.16282 z m -25.37251,-62.47228 c 3.53993,-0.97295 6.73717,-2.93312 9.56042,-5.86133 5.52759,-5.73309 8.74797,-12.98815 9.56425,-21.54691 0.43991,-4.61248 0.0693,-10.27028 -0.79561,-12.14752 -0.62579,-1.35818 -1.59377,-1.62552 -8.10181,-2.23763 -3.19938,-0.30091 -7.64438,-0.79995 -9.87778,-1.10898 -5.98139,-0.82764 -17.19442,-0.83558 -19.79885,-0.014 -1.08888,0.34349 -2.33458,0.69285 -2.76821,0.77636 -2.7731,0.53405 -10.65699,5.4011 -11.12194,6.86603 -0.22531,0.70987 0.87191,2.31453 3.62918,5.30759 0.44686,0.48507 1.86486,2.42976 3.15112,4.32153 1.28625,1.89177 2.42954,3.43958 2.54064,3.43958 0.1111,0 1.47132,-0.94998 3.02272,-2.11106 3.48576,-2.60879 8.34664,-5.02304 11.72795,-5.82494 2.82373,-0.66967 3.61639,-0.55644 3.61639,0.5166 0,0.39414 0.15875,0.71662 0.35277,0.71662 0.19403,0 0.35278,0.15875 0.35278,0.35278 0,0.19403 -0.23024,0.35278 -0.51164,0.35278 -0.2814,0 -0.63858,0.2121 -0.79375,0.47132 -0.15516,0.25923 -2.39275,1.52549 -4.97241,2.81392 -4.49279,2.24394 -7.74331,4.40887 -9.56359,6.36959 l -0.84833,0.91379 1.52092,3.27055 c 1.52397,3.27709 4.58547,11.34889 4.58547,12.08981 0,1.10805 1.06581,1.71076 4.08842,2.31198 4.35619,0.86649 8.19538,0.85358 11.44089,-0.0384 z m -5.29876,-29.61363 c 0,-0.2587 0.10584,-0.36454 0.23519,-0.23519 0.12935,0.12936 0.12935,0.34102 0,0.47037 -0.12935,0.12936 -0.23519,0.0235 -0.23519,-0.23518 z m 0.17639,-1.05833 c -0.11991,-0.19403 -0.0499,-0.35278 0.15557,-0.35278 0.20548,0 0.3736,0.15875 0.3736,0.35278 0,0.19402 -0.07,0.35277 -0.15557,0.35277 -0.0856,0 -0.25368,-0.15875 -0.3736,-0.35277 z M 49.294633,-243.7017 c 0.19375,-0.24253 1.41004,-2.48779 2.70287,-4.98946 1.29283,-2.50166 3.15602,-5.71357 4.14043,-7.13757 1.39893,-2.02362 1.74158,-2.78135 1.5689,-3.46939 -0.37768,-1.50479 -4.35254,-5.36269 -8.09625,-7.85803 -1.96925,-1.31259 -3.63432,-2.50842 -3.70015,-2.6574 -0.0658,-0.14899 -0.35602,-0.50722 -0.64488,-0.79607 -0.35797,-0.35797 -0.45134,-0.86142 -0.29325,-1.5812 0.18216,-0.82938 0.42122,-1.05601 1.1139,-1.05601 1.17326,0 6.68835,2.76518 9.4605,4.74334 1.97363,1.40836 5.09093,4.5848 5.42382,5.52673 0.0681,0.19256 1.97306,-1.54138 4.23334,-3.85321 2.26028,-2.31182 4.9626,-4.91153 6.00517,-5.77714 2.28227,-1.89489 2.24228,-2.25801 -0.49781,-4.52028 -5.33788,-4.40706 -11.64073,-6.45977 -22.74082,-7.40621 -8.13581,-0.69369 -11.71758,-1.19006 -17.60137,-2.43925 -3.96791,-0.84243 -4.62845,-0.63707 -6.36017,1.97735 -2.1406,3.23171 -3.56159,9.37847 -3.36847,14.57089 0.33764,9.07795 4.56634,18.03806 10.71811,22.71038 2.46858,1.8749 5.65934,3.30411 9.37996,4.20149 1.62878,0.39284 8.20744,0.24756 8.55617,-0.18896 z m -4.852,-29.01597 c 0,-0.097 0.0794,-0.17639 0.17638,-0.17639 0.097,0 0.17639,0.0794 0.17639,0.17639 0,0.097 -0.0794,0.17639 -0.17639,0.17639 -0.097,0 -0.17638,-0.0794 -0.17638,-0.17639 z"
       id="path130" /></g></svg>
