<?xml version="1.0" encoding="UTF-8" standalone="no"?>
<!-- Created with Inkscape (http://www.inkscape.org/) -->

<svg
   width="202.57755mm"
   height="300.97153mm"
   viewBox="0 0 202.57756 300.97148"
   version="1.1"
   id="svg1"
   xml:space="preserve"
   xmlns="http://www.w3.org/2000/svg"
   xmlns:svg="http://www.w3.org/2000/svg"><defs
     id="defs1"><clipPath
       clipPathUnits="userSpaceOnUse"
       id="clipPath6"><path
         id="path7"
         style="fill:#ff0000;fill-opacity:1;fill-rule:nonzero;stroke:none;stroke-width:0.264583"
         d="M -175.07778,-16.057127 V 287.55793 H 124.54631 V -16.057127 Z m 132.7459,202.572647 c 0.210643,0.005 0.427212,0.0169 0.650089,0.0367 2.23823,0.19855 4.475655,0.4031 6.717938,0.55346 1.973313,0.11308 0.986628,0.0436 2.958475,0.20825 3.181295,0.26563 4.740125,1.85116 4.950601,3.46956 4.949923,1.63749 3.796379,7.35609 -2.592089,6.81354 -3.228716,-0.27422 -1.569593,-0.1301 -4.979024,-0.43357 -4.228209,-0.39317 -8.460616,-0.76265 -12.666927,-1.35341 -6.647387,-0.93358 -5.930551,-7.21034 0.03204,-7.20421 0.04685,5e-5 0.0972,0.004 0.144695,0.005 0.687229,-1.21692 2.304132,-2.15435 4.784204,-2.09548 z" /></clipPath><clipPath
       clipPathUnits="userSpaceOnUse"
       id="clipPath76"><path
         id="path77"
         style="fill:#ff0000;fill-opacity:1;fill-rule:nonzero;stroke:none;stroke-width:0.264583"
         d="M -133.83107,-122.52355 V 173.82063 H 122.97289 V -122.52355 Z M 13.574404,98.948202 c 2.788179,0.0507 4.135003,2.063798 3.398242,4.077268 0.199805,0.45372 0.374906,0.96736 0.517797,1.54461 1.07913,4.35948 0.671079,8.891 0.311608,13.31495 -0.351859,3.06036 -0.147137,1.57974 -0.604097,4.44366 -0.359666,2.25418 -1.333846,3.66838 -2.455664,4.32532 0.105138,0.36595 0.224724,0.72888 0.324528,1.09554 0.6273,2.23652 0.575201,4.47401 0.39429,6.75514 -0.137303,1.73129 -0.688065,2.99533 -1.427303,3.82199 -0.112477,0.41601 -0.170275,0.80219 -0.311092,1.25212 -0.184975,0.59102 -0.413327,1.1061 -0.670242,1.55856 0.741137,-0.23134 1.446982,-0.38145 2.064991,-0.37517 4.085002,0.0415 5.222724,4.75435 -0.02223,7.27138 -4.46677,2.14368 -9.303523,3.34693 -14.11903492,4.40955 -4.40876268,0.85156 -8.89238128,1.33053 -13.38264308,1.19269 -5.804014,-0.17807 -6.736297,-5.00293 -3.065447,-6.67298 -2.072987,-0.65744 -4.042852,-1.62261 -4.128947,-3.14709 -0.02802,-0.49633 0.0026,-0.90355 0.0341,-1.30897 -1.976731,-0.003 -3.95339,2.4e-4 -5.930386,0.003 -0.814031,0 -1.53062,-0.0962 -2.159559,-0.26149 -0.376306,0.19492 -0.742394,0.40783 -1.120862,0.59893 -6.391272,3.22657 -9.625245,-3.24074 -3.234428,-6.46886 1.833438,-0.92611 3.62694,-1.92211 5.414142,-2.92954 -0.877003,-3.87058 -1.368747,-7.83436 -1.323951,-11.80858 0.01651,-1.46304 0.376836,-2.54918 0.864547,-3.41426 -1.247357,-1.79999 -0.223805,-4.63069 3.842661,-5.68855 3.11826,-0.81116 6.282901,-1.39515 9.473837,-1.82211 -1.259816,-0.12657 -2.516182,-0.30233 -3.764627,-0.50177 -1.477002,-0.21985 -2.935575,-0.54305 -4.407482,-0.7891 -1.14214,-0.22954 -0.588502,-0.12004 -1.660882,-0.3297 -3.350244,-0.65501 -4.783278,-2.61088 -4.608504,-4.32997 -0.200179,-1.7721 1.333365,-3.52972 4.663799,-3.59461 v -5.3e-4 c 0.20954,-0.004 0.426035,-0.002 0.649571,0.008 1.77111,0.0772 3.528708,0.28204 5.26428,0.64027 1.655035,0.33225 3.314115,0.6481 4.955251,1.04439 1.244759,0.34858 2.51628,0.54538 3.7997689,0.6723 0.025956,0.002 0.052073,0.002 0.078034,0.004 0.4990888,-0.0371 0.9984105,-0.0743 1.4965495,-0.11317 1.346872,-0.12588 2.6913231,-0.25136 4.0457464,-0.24236 1.1278499,-0.0444 2.2567291,-0.10772 3.37498791,-0.26872 0.75719517,-0.11591 1.51142439,-0.25483 2.25722659,-0.4284 0.3616431,-0.12394 0.7240561,-0.24538 1.083138,-0.37775 0.3360393,-0.12388 0.6107589,-0.12825 0.9250071,-0.20723 0.1281086,-0.045 0.2583895,-0.0825 0.3855085,-0.13074 1.9825018,-0.7681 3.9540551,-1.56464 5.9510551,-2.29443 1.050809,-0.383992 1.999634,-0.542639 2.826703,-0.527616 z M 0.70283723,110.39557 c -0.45566013,0.0949 -0.90775367,0.208 -1.36890919,0.2744 -1.16638124,0.15534 -2.34111274,0.24237 -3.51761424,0.26251 0.4031694,0.0896 0.8047355,0.18876 1.2025101,0.308 0.1014836,0.0304 0.1982549,0.075 0.2986907,0.10852 0.4205235,-0.21824 0.9206601,-0.35072 1.4898318,-0.37156 0.39885139,-0.0146 0.83259872,0.0278 1.29449508,0.13023 0.22468681,-0.12213 0.44967525,-0.24374 0.67437529,-0.36587 -0.0326284,-0.11319 -0.058211,-0.22834 -0.0733795,-0.34623 z m 10.24433577,1.02474 c -0.76023,0.21437 -1.5189569,0.4343 -2.2696301,0.68006 -0.031261,0.62207 -0.2256075,1.28373 -0.6464723,1.94355 0.6236891,0.43248 1.2549743,1.04482 1.8634525,1.86862 0.2674939,0.36214 0.4748849,0.75712 0.7188199,1.13223 0.154519,-1.86707 0.314174,-3.74736 0.33383,-5.62446 z m 64.566086,3.39773 c 1.50346,0.0187 3.129182,1.24994 3.928441,4.04678 0.257931,0.90255 0.823497,1.65871 1.488797,2.30735 0.856321,0.95375 1.845738,1.76777 2.801898,2.61638 1.458581,1.46408 2.789203,3.04608 4.169772,4.58215 1.315059,1.44746 2.571226,2.91698 3.543967,4.61884 0.0053,0.01 0.0082,0.0206 0.01344,0.0305 0.734605,-0.43313 1.446276,-0.65634 2.094962,-0.69195 3.016182,-0.16561 4.69137,3.55377 1.187525,7.32306 -1.69471,1.82311 -3.657862,3.33908 -5.68751,4.7651 -0.777873,0.49914 -1.607691,0.90075 -2.418456,1.33842 0.165478,1.44344 -0.672182,3.24303 -2.956409,4.73096 -1.354556,0.88234 -2.690448,1.79306 -4.075203,2.6288 -2.075008,1.20078 -4.233777,2.27962 -6.540687,2.96259 -2.077586,0.62971 -4.169056,1.29987 -6.359301,1.36374 -1.872114,0.0897 -3.746989,0.0368 -5.620845,0.0501 h -5.1108 -5.524728 c -7.160125,0 -7.160125,-7.23315 0,-7.23315 h 1.347722 c 0.29438,-0.0541 0.5212,-0.1588 0.84801,-0.18656 1.106628,-0.094 2.200932,-0.28334 3.292822,-0.48421 0.456121,-0.98163 1.356053,-1.98213 2.807581,-2.83962 1.078018,-0.63685 2.158119,-1.26923 3.212209,-1.94561 1.962647,-1.29302 3.840588,-2.72135 5.893696,-3.86902 1.367169,-0.76424 2.559646,-1.07097 3.526915,-1.04128 2.216811,0.068 3.246223,1.90266 2.479953,4.04059 1.105688,-0.48686 2.206929,-0.98346 3.283003,-1.53739 2.619811,-1.23728 5.288743,-2.38548 7.764385,-3.9026 0.246153,-0.17184 0.487463,-0.34958 0.730705,-0.52503 -0.126915,-0.50614 -0.277693,-0.9939 -0.512114,-1.46554 -0.647621,-1.25778 -1.721077,-2.20654 -2.600875,-3.29644 -1.199229,-1.33472 -2.369312,-2.69496 -3.592029,-4.00803 -1.098706,-0.97599 -2.227236,-1.92181 -3.215306,-3.01428 -1.300821,-1.39063 -2.459913,-2.93896 -3.045293,-4.77801 -1.289469,-4.05101 0.646382,-6.61405 2.843754,-6.58667 z m -95.086705,4.28035 c -0.465643,0.10748 -0.930899,0.21773 -1.394745,0.33435 0.171958,0.64334 0.283575,1.36624 0.279569,2.2071 -0.01267,2.6582 0.205063,5.32647 0.670242,7.94732 0.280107,-0.17087 0.565767,-0.33222 0.845429,-0.50385 -0.01897,-0.36223 -0.02445,-0.73164 -0.05529,-1.08985 -0.118034,-2.96491 -0.160888,-5.93314 -0.3452,-8.89507 z m 18.5141159,1.1958 c 0.00497,0.0773 0.00619,0.15612 0.014975,0.23202 -0.1238779,0.22787 -0.2588048,0.44752 -0.3937741,0.66715 0.58900751,0.0447 1.13203305,0.21413 1.64331124,0.45888 -0.37615284,-0.49255 -0.78353709,-0.94642 -1.26452314,-1.35805 z m -6.5422357,14.57068 c -0.046649,0.0755 -0.09888,0.14702 -0.1436608,0.22376 -0.03147,0.054 0.1963367,0.0838 0.1860365,0.0222 -0.017595,-0.10481 -0.026035,-0.14905 -0.042376,-0.24597 z m 13.9236979,6.08439 c -0.2236258,0.5643 -0.5677508,1.09664 -1.1782213,1.50533 0.9079653,0.17659 1.7077452,0.44257 2.2830631,0.84852 0.1405493,-0.0459 0.272804,-0.11448 0.4128956,-0.16174 -0.7336976,-0.43656 -1.2984269,-1.18703 -1.5177374,-2.19211 z" /></clipPath><clipPath
       clipPathUnits="userSpaceOnUse"
       id="clipPath127"><path
         id="path128"
         style="fill:#ff0000;fill-opacity:1;fill-rule:nonzero;stroke:none;stroke-width:0.264583"
         d="M -112.24796,-126.55676 V 185.58027 H 148.5754 V -126.55676 Z M 46.874626,83.305366 c 1.808208,0 3.616317,1.790192 3.616317,5.370214 v 5.232238 c 0.0627,2.146078 -0.111291,4.285324 -0.245462,6.424932 -0.136289,2.02485 -0.190703,4.04985 -0.104904,6.07715 0.192061,1.91863 0.527714,3.82569 0.876432,5.72213 0.304242,2.00862 0.765826,3.9858 1.180806,5.97276 0.41642,1.86142 0.967934,3.68703 1.421104,5.53972 0.25287,0.86996 0.117097,0.46495 0.396356,1.22008 0.186108,0.50319 0.223428,0.93098 0.309544,1.38441 4.425355,2.23251 2.751262,7.58433 -3.415813,6.40477 -3.104732,-0.59371 -6.256094,-0.76586 -9.40821,-0.85576 -3.81635,0.009 -7.630525,0.17062 -11.44478,0.28216 -1.12776,0.0333 -2.255837,0.0512 -3.383772,0.0754 -0.908129,0.5548 -1.966518,0.57724 -2.88613,0.0641 -0.03584,5.3e-4 -0.07165,0.002 -0.107487,0.003 -0.03142,5.3e-4 -0.0525,-0.009 -0.08268,-0.009 -0.32049,0.14732 -0.641715,0.29301 -0.962215,0.44028 -0.262501,0.12062 -0.518089,0.22111 -0.770496,0.31265 -0.876996,0.71434 -1.945576,0.85817 -2.911967,0.46405 -2.943479,-0.21613 -4.295167,-2.77187 -2.550232,-5.0524 -2.22e-4,-0.028 -0.0078,-0.0483 -0.0078,-0.0765 v -6.3469 c -0.014,-2.72977 -0.02254,-5.45666 0.112657,-8.18348 0.135676,-2.32533 0.233519,-4.6523 0.299723,-6.98046 0.046,-1.80459 0.06926,-3.60958 0.08527,-5.41465 -0.0258,-1.02998 0.04009,-2.054459 0.138491,-3.078883 0.0044,-0.04602 0.02191,-0.07504 0.02687,-0.120406 C 15.992671,97.193438 15.83363,95.70984 16.656834,94.418959 10.68718,93.678613 10.992573,87.32947 17.739972,87.32947 h 3.885033 5.177462 5.913334 c 1.498505,0.05847 2.984222,-0.03228 4.475178,-0.161748 1.252041,-0.18606 2.49041,-0.398671 3.697968,-0.782897 1.001961,-0.32245 0.492366,-0.161472 1.527553,-0.482142 0.510384,-0.158096 0.938446,-0.174371 1.394749,-0.23771 0.672338,-1.56932 1.86623,-2.35903 3.063377,-2.35903 z" /></clipPath><clipPath
       clipPathUnits="userSpaceOnUse"
       id="clipPath139"><path
         id="path140"
         style="fill:#ff0000;fill-opacity:1;fill-rule:nonzero;stroke:none;stroke-width:0.264583"
         d="M 97.168006,-339.91235 V -44.578961 H 346.46958 V -339.91235 Z m 14.326254,94.53944 c 1.76488,0.006 3.77708,1.78446 4.35839,5.31699 0.32911,1.99994 0.60308,4.00817 0.88884,6.01462 1.02527,-1.2445 2.22305,-1.83589 3.28403,-1.8402 2.05627,-0.008 3.59454,2.17302 2.34611,6.00222 -0.0197,0.0606 -0.0413,0.12046 -0.0615,0.18087 0.31698,0.91799 0.41757,2.09982 0.17777,3.54139 -0.2164,1.30085 -0.62011,2.56457 -1.0263,3.8163 -1.34183,4.13496 -4.42238,4.92072 -6.12882,3.38016 -1.93867,0.62007 -4.30523,-0.86149 -4.65605,-4.82762 -0.16862,-1.90632 -0.33891,-3.81275 -0.57464,-5.71231 -0.45291,-3.52522 -1.07719,-7.02592 -1.48208,-10.55543 -0.40801,-3.55672 1.10935,-5.32303 2.87424,-5.31699 z" /></clipPath><clipPath
       clipPathUnits="userSpaceOnUse"
       id="clipPath170"><path
         id="path171"
         style="fill:#ff0000;fill-opacity:1;fill-rule:nonzero;stroke:none;stroke-width:0.264583"
         d="M 88.756261,-299.52331 V 17.880567 H 410.91541 V -299.52331 Z M 363.24287,-220.863 c 0.90345,-0.008 1.97628,0.23856 3.18532,0.82218 3.39402,1.63831 6.49674,3.81197 9.57823,5.96449 3.22509,2.31448 6.37511,4.73585 9.43663,7.26261 1.87296,1.50796 3.75989,2.99047 5.54284,4.6054 1.76167,1.54167 3.42262,3.17283 4.95419,4.94388 1.19316,1.48882 2.47049,2.9032 3.73311,4.33204 1.08043,1.20022 2.09423,2.45631 2.94299,3.83026 0.82616,1.73429 1.48968,3.55524 1.93786,5.42344 1.67031,6.96258 -5.76469,8.62686 -7.05745,1.5844 -0.21127,-1.15093 -0.75649,-2.20765 -1.10278,-3.32021 -0.52141,-1.02678 -1.43909,-1.82952 -2.14042,-2.72904 -1.28368,-1.45272 -2.58234,-2.89095 -3.79617,-4.40386 -1.32794,-1.55409 -2.79577,-2.95456 -4.33049,-4.3031 -1.69875,-1.54267 -3.51006,-2.94207 -5.29113,-4.38733 -2.90883,-2.40671 -5.90918,-4.70386 -8.97258,-6.91017 -2.63017,-1.83963 -5.2759,-3.68008 -8.12096,-5.17746 -5.14813,-2.7095 -4.41412,-7.50431 -0.49919,-7.53753 z m -17.79788,14.64304 c 0.81097,-0.004 1.74701,0.16947 2.79104,0.57154 4.59168,1.76834 8.99191,4.00303 13.38523,6.20892 0.37082,0.1876 0.72266,0.4088 1.09088,0.601 0.4155,-0.11565 0.91038,-0.17484 1.48572,-0.16691 0.65984,0.009 1.42523,0.10601 2.29753,0.30644 2.35556,0.54125 4.30075,1.95473 6.16344,3.42614 -1.07651,-2.72314 0.34142,-4.84679 2.57866,-4.84311 1.28683,0.002 2.83083,0.70484 4.29689,2.3952 2.44776,2.82227 4.79147,5.70892 6.96391,8.74934 1.67944,2.35043 1.72027,4.43615 0.89969,5.70663 1.5344,1.02281 3.07247,2.04019 4.58422,3.09645 1.80695,1.14136 3.31928,2.58833 4.72631,4.18269 0.96689,1.16625 2.0869,2.25988 2.79262,3.61942 0.19542,0.37651 0.34592,0.77482 0.51882,1.1622 0.40259,1.55462 0.27207,0.76263 0.38706,2.3766 0.0637,0.89436 -0.044,1.45412 -0.26977,1.7756 0.11753,0.20753 0.23421,0.41574 0.35608,0.62063 3.66003,6.15399 -2.6856,9.845 -6.25234,3.63648 -0.83209,-1.44832 -1.62388,-2.92102 -2.35437,-4.42351 -0.84839,-1.84687 -1.70402,-3.69055 -2.54093,-5.54229 -0.078,-0.17246 -0.14713,-0.34128 -0.2119,-0.5085 -0.415,-0.33988 -0.82071,-0.68775 -1.29707,-0.97255 -2.35545,-1.64933 -4.79565,-3.17384 -7.14841,-4.82761 -3.27895,-2.27743 -6.61384,-4.47194 -9.95804,-6.65231 -4.00886,-2.60003 -8.08797,-5.09434 -12.3548,-7.25434 -4.08429,-2.05175 -8.1752,-4.1242 -12.42663,-5.81101 -5.61546,-2.22804 -4.88331,-7.4129 -0.50384,-7.43314 z m -225.34594,21.50101 c 3.05551,-0.16929 4.03285,3.80875 0.35915,7.72563 -1.17612,1.25397 -2.32696,2.59265 -3.45922,3.90674 -1.44062,1.57315 -2.77631,3.23874 -4.13618,4.88135 -1.14319,1.4697 -2.29319,2.93265 -3.46335,4.38113 -0.8717,1.2084 -1.86054,2.32105 -2.81017,3.46594 -0.80685,0.95022 -1.53489,1.96075 -2.32234,2.92695 -0.80594,1.00684 -1.52017,2.08004 -2.22519,3.15847 -0.20511,0.28103 -0.29499,0.51935 -0.30179,0.78909 -0.18033,7.15787 -8.659963,5.5717 -7.093102,-1.4149 0.267098,-1.19094 0.644303,-2.32859 1.347721,-3.34243 0.846108,-1.28566 1.701136,-2.56663 2.670121,-3.76463 0.806525,-0.98525 1.5446,-2.0236 2.37453,-2.98999 0.93132,-1.109 1.88214,-2.2008 2.7342,-3.37448 1.18855,-1.47082 2.35327,-2.95822 3.51813,-4.44779 1.39067,-1.67946 2.758,-3.38112 4.2292,-4.99142 1.55862,-1.80675 3.07205,-3.68494 4.92528,-5.20227 1.38505,-1.13397 2.63451,-1.65096 3.65301,-1.70739 z m 30.4953,3.26389 c 4.11093,0.0973 5.25218,4.81763 -0.0434,7.22591 -1.93926,0.8819 -3.80509,1.88928 -5.66115,2.92437 0.381,1.39299 -0.23993,3.26566 -2.43035,4.98678 -2.3369,1.83618 -4.71607,3.61825 -7.08845,5.40845 -2.84267,2.19936 -5.66068,4.43162 -8.41086,6.74584 -2.22216,1.84972 -4.46469,3.67225 -6.66213,5.55109 -1.67979,1.46598 -3.37138,2.91821 -5.06067,4.37337 -1.40892,1.30469 -2.82191,2.592 -4.12274,4.00648 -1.07181,1.16531 -2.16701,1.83049 -3.17087,2.10529 -0.88357,6.53411 -7.65001,5.87099 -7.10344,-1.07177 0.0596,-0.75732 0.12015,-1.51435 0.21239,-2.26859 0.18237,-1.4495 0.31176,-2.90657 0.57051,-4.34444 0.56059,-2.2771 1.55106,-4.35314 3.32124,-5.95312 1.46716,-1.38711 2.94871,-2.75912 4.4943,-4.05919 1.45063,-1.21601 2.91967,-2.40825 4.4111,-3.57394 2.2284,-1.75259 4.48249,-3.46927 6.81044,-5.08961 3.1083,-2.16601 6.29001,-4.21936 9.5343,-6.17689 3.28252,-2.04598 6.49796,-4.19789 9.78648,-6.23476 2.38673,-1.38679 4.82146,-2.65715 7.33495,-3.79873 1.22236,-0.55516 2.32966,-0.77899 3.27836,-0.75654 z" /></clipPath><clipPath
       clipPathUnits="userSpaceOnUse"
       id="clipPath233"><path
         id="path234"
         style="fill:#ff0000;fill-opacity:1;fill-rule:nonzero;stroke:none;stroke-width:0.264583"
         d="M 185.24069,-319.24193 V -24.289387 H 425.09684 V -319.24193 Z m 138.35487,149.6534 c 1.78419,7.9e-4 3.63037,1.79012 3.80182,5.36608 0.0643,1.33996 -0.0719,2.65433 -0.29041,3.95842 0.27255,-0.0735 0.56767,-0.11689 0.88522,-0.12351 0.37047,-0.008 0.77026,0.0328 1.19579,0.12867 0.38629,-0.24279 0.8215,-0.42195 1.34254,-0.44493 1.13073,-0.0499 2.53823,0.47335 4.04474,1.80971 0.4186,0.37135 0.80759,0.77178 1.2056,1.16323 0.49581,-0.30652 1.09744,-0.47283 1.77559,-0.44028 1.18851,0.0571 2.59295,0.69888 3.98788,2.15129 2.63375,2.74227 4.82211,5.85047 6.92256,9.00669 2.43144,3.88376 4.79634,7.81591 6.98098,11.84475 1.13959,2.01485 2.36363,3.97199 3.24527,6.11746 0.86638,2.54168 0.71525,4.37292 -0.15348,6.88278 -0.88855,2.03627 -2.18951,3.83746 -3.64937,5.49682 -1.22616,1.21887 -2.44396,2.51198 -3.976,3.35587 -0.38219,0.21053 -0.79187,0.3659 -1.18803,0.54881 -6.50071,3.00135 -9.83602,-5.23462 -2.81948,-6.6611 1.07346,-0.21823 1.75532,-1.41088 2.56987,-2.0407 0.86323,-0.96375 1.62015,-2.00233 2.25208,-3.13417 0.24334,-0.63932 0.47847,-1.05078 0.24958,-1.76114 -0.42873,-1.13152 -1.03555,-2.17502 -1.65674,-3.21169 -0.64492,3.08426 -3.96214,3.78517 -6.03631,0.97152 -0.80928,1.85722 -3.53859,2.62684 -6.75775,0.30902 -0.53872,-0.38787 -1.07831,-0.77486 -1.61745,-1.1622 -3.08248,4.62545 -3.94671,5.04673 -6.74584,2.87063 -2.73204,-2.16473 -5.33615,-4.48821 -8.05999,-6.6642 -2.7461,-2.45053 -5.40757,-5.07957 -7.04763,-8.42635 -1.62115,-0.12575 -3.24178,-0.2569 -4.86637,-0.34314 -7.58719,-0.44787 -15.17743,-0.9445 -22.76553,-1.33377 -1.07801,-0.0553 -1.93227,-0.3045 -2.68459,-0.62166 -0.57677,0.62929 -1.1192,1.29485 -1.64021,1.97352 -1.38696,2.1585 -2.2854,4.54313 -3.09181,6.96185 -0.53658,1.90527 -0.93866,3.84574 -1.3658,5.77949 0.3976,-0.38181 0.79402,-0.76498 1.19114,-1.14825 1.44902,-1.39846 2.84121,-1.97983 3.98373,-1.97766 2.91995,0.006 4.20899,3.82009 0.64648,7.53391 -0.92629,0.96557 -1.9114,1.86859 -2.9099,2.75797 -1.78302,1.58814 -3.50499,2.03887 -4.81263,1.76372 -0.007,0.0412 -0.0189,0.0812 -0.0253,0.12247 -0.31138,2.1774 -0.34632,4.38158 -0.39739,6.57686 0.006,3.5147 -0.15426,7.02208 -0.44287,10.52391 -0.15049,2.45352 -0.52882,4.882887 -0.77928,7.326166 -0.25682,2.270699 -0.2357,4.548968 -0.1633,6.828007 0.0525,1.43787 0.0261,0.723201 0.0775,2.145088 7.9e-4,0.02175 -0.006,0.03573 -0.006,0.05736 0.13966,0.0486 0.27673,0.09115 0.42013,0.148309 3.73047,1.486969 7.59999,2.598727 11.41894,3.833876 4.85884,1.705695 9.66861,3.546912 14.50144,5.32474 1.9552,0.651698 3.84707,1.443672 5.71489,2.292366 2.6308,-0.638411 5.26049,-1.281708 7.89771,-1.893425 4.5737,-1.075436 2.35597,-0.547624 6.65438,-1.580782 0.65268,-0.156879 1.2592,-0.237268 1.81642,-0.252698 3.40876,-0.09437 4.96226,2.238663 4.05712,4.350639 3.89832,1.612736 3.00805,6.568553 -2.90269,6.729304 l -2.19726,0.05943 c 0.0932,0.05532 0.18872,0.106439 0.28112,0.163298 6.09814,3.752323 2.1299,10.065517 -3.84782,6.124173 -1.04591,-0.689594 -2.23735,-1.127543 -3.31556,-1.763197 -2.61015,-1.251701 -5.22853,-2.484003 -7.87136,-3.665926 -0.34703,-0.170111 -0.69536,-0.335955 -1.04283,-0.504362 -1.04394,0.228952 -2.09238,0.441277 -3.15071,0.537951 -0.41145,0.100483 -0.82417,0.195434 -1.23558,0.296105 -3.95687,0.968251 -6.08679,-0.907356 -5.97897,-3.010669 -0.31188,-0.687727 -0.239,-1.395294 0.0263,-2.059305 -3.87146,-1.438614 -7.73769,-2.891312 -11.63237,-4.265891 -3.97417,-1.285444 -7.99945,-2.446282 -11.87938,-4.000272 -1.44639,-0.579335 -2.44377,-1.350957 -3.06182,-2.17506 -1.01218,-0.798706 -1.81304,-2.231819 -1.89446,-4.484998 -0.0517,-1.431189 -0.0254,-0.705106 -0.0791,-2.177645 -0.0816,-2.602558 -0.0903,-5.205841 0.19844,-7.79849 0.24823,-2.394268 0.6146,-4.775082 0.76533,-7.179412 0.27808,-3.36008 0.42763,-6.72542 0.42064,-10.09809 0.0594,-2.5132 0.11189,-5.03614 0.48266,-7.52719 0.38072,-2.41928 0.90466,-4.80615 1.46451,-7.18974 0.6701,-2.94551 1.25825,-5.91529 2.11305,-8.81393 1.0668,-3.18776 2.31041,-6.31647 4.23489,-9.10074 0.42128,-0.53977 0.8547,-1.07136 1.29914,-1.59215 -1.52816,-0.60355 -3.06641,-1.18197 -4.57646,-1.83141 -1.09038,3.76762 -2.19021,7.53001 -3.40755,11.25926 -1.05961,2.97655 -0.54118,1.54568 -1.55081,4.2938 -1.83358,4.9908 -6.03644,4.88509 -7.07398,1.75544 -2.82634,3.52841 -7.50378,1.0111 -5.57744,-4.75268 1.05408,-3.1537 2.2385,-6.34595 4.49688,-8.85837 1.49582,-1.66408 2.97572,-2.34765 4.17287,-2.32647 0.33252,0.006 0.64298,0.0664 0.92604,0.17518 0.46945,-1.58214 0.96416,-3.15651 1.43919,-4.7377 0.70062,-2.33196 1.93737,-3.52641 3.18689,-3.8871 0.54142,-0.34307 1.25019,-0.55529 2.11615,-0.57361 h 5.3e-4 c 0.8057,-0.017 1.74503,0.13149 2.80396,0.49248 0.31645,0.10788 0.63769,0.20324 0.94929,0.32401 1.83624,0.71133 3.60046,1.59642 5.43016,2.32544 1.18096,0.47048 2.26953,0.84228 3.35329,1.23145 0.62902,-0.20883 1.22424,-0.32846 1.76785,-0.35037 2.28614,-0.0921 3.73455,1.32842 3.67523,3.07682 1.73917,0.0925 3.47854,0.18832 5.21777,0.2899 -0.1345,-1.7899 1.43141,-3.54652 4.54959,-3.56619 0.39587,-0.002 0.816,0.0231 1.25987,0.0801 3.99155,0.51285 7.97638,1.04608 11.94346,1.72703 0.35092,0.0747 0.7018,0.14913 1.05265,0.22376 0.92028,-2.09088 2.0607,-3.80586 3.79408,-5.38675 0.9172,-0.8245 1.6747,-1.80494 2.07378,-2.98587 0.46483,-1.35061 0.4893,-2.77914 0.4594,-4.19561 h 5.3e-4 c -0.0754,-3.57927 1.64663,-5.36691 3.4308,-5.36608 z m 1.97559,14.00741 c -0.78838,1.39934 -1.79816,2.66075 -2.96984,3.79512 -1.06213,0.94584 -1.80404,2.02586 -2.28153,3.3538 -0.003,0.012 -0.005,0.0237 -0.009,0.0357 1.15411,0.11311 2.30814,0.22665 3.4613,0.3514 3.99042,0.43171 5.40747,2.84663 4.69323,4.76353 0.67585,0.41545 1.35041,0.83313 2.01954,1.25626 3.82278,2.5036 7.53266,5.1715 11.24013,7.84086 -1.81731,-3.68096 -3.93583,-7.19476 -6.36087,-10.5146 -1.10355,-1.48555 -2.20805,-3.00054 -3.36206,-4.44883 -0.35653,-0.44747 -1.7607,-2.16704 -2.34455,-2.70784 -0.36042,-0.33384 -0.93237,-0.68033 -1.36375,-0.9555 -1.33122,-0.84918 -2.21667,-1.81673 -2.72282,-2.76986 z" /></clipPath><clipPath
       clipPathUnits="userSpaceOnUse"
       id="clipPath240"><path
         id="path241"
         style="fill:#ff0000;fill-opacity:1;fill-rule:nonzero;stroke:none;stroke-width:0.264583"
         d="M 92.804184,-309.23338 V -41.629034 H 294.29938 V -309.23338 Z m 130.496946,63.74443 c 0.93337,0.009 2.02072,0.27397 3.21944,0.8785 1.75312,0.88412 3.43212,1.89553 5.06326,2.98586 5.9527,3.97906 1.8926,10.01797 -4.03542,6.00222 -1.36849,-0.92705 -2.78857,-1.76849 -4.26227,-2.51871 -5.18448,-2.63926 -4.02961,-7.38891 0.015,-7.34787 z m -85.24544,1.99626 c 3.36772,-0.0906 4.87054,3.93317 0.67437,7.28431 -0.81214,0.6486 -0.42273,0.34746 -1.1653,0.9064 -1.7275,1.42217 -3.47209,2.82263 -5.29477,4.12275 -2.09112,1.47372 -4.25636,2.82668 -6.45645,4.13153 -6.15846,3.65253 -10.39165,-1.95967 -4.33979,-5.78621 2.21999,-1.40367 4.47897,-2.73503 6.6244,-4.25349 1.67688,-1.19734 3.27994,-2.48915 4.86947,-3.79821 0.91499,-0.69918 0.50268,-0.37435 1.24076,-0.9679 1.39493,-1.12177 2.72473,-1.60899 3.84731,-1.63918 z" /></clipPath><clipPath
       clipPathUnits="userSpaceOnUse"
       id="clipPath251"><path
         id="path252"
         style="fill:#ff0000;fill-opacity:1;fill-rule:nonzero;stroke:none;stroke-width:0.264583"
         d="m 50.06164,-325.07443 v 245.270816 h 202.0347 V -325.07443 Z m 191.06172,72.239 c 1.42195,-0.0396 3.11835,0.92332 4.44418,3.2582 0.80855,1.42391 1.33311,2.97097 1.71979,4.55476 0.38267,1.85761 0.50306,3.75527 0.49506,5.64772 0.007,1.66837 -0.28067,3.30966 -0.52503,4.95318 -0.26767,2.07853 -1.32063,3.82386 -2.54249,5.47306 -0.98598,1.19805 -2.03839,2.33999 -3.16208,3.40961 -0.37488,0.32054 -0.76867,0.61405 -1.09502,0.98443 -4.73356,5.37222 -10.25077,0.0313 -5.19193,-5.03587 0.41783,-0.41852 0.82603,-0.84961 1.30896,-1.19579 0.83199,-0.78568 1.60086,-1.63171 2.34973,-2.49649 0.52191,-0.686 1.06794,-1.32103 1.17874,-2.204 0.19629,-1.31742 0.44949,-2.62948 0.44648,-3.9672 0.0288,-1.3072 -0.0809,-2.61845 -0.30179,-3.90725 -0.20137,-0.91522 -0.51051,-1.80281 -0.96014,-2.62775 -2.14172,-3.92928 -0.53435,-6.78057 1.83554,-6.84661 z m -24.00732,134.01508 c 1.58088,-0.0452 3.27238,1.29937 3.90106,4.36821 0.19779,0.96552 0.49313,1.88927 0.87385,2.79466 0.57738,1.31117 0.86222,2.69631 0.9741,4.11603 0.0779,1.63421 -0.38657,3.16522 -1.00976,4.65191 -0.60784,1.37091 -1.55916,2.5173 -2.50579,3.660755 -0.2566,0.333243 -0.50348,0.67224 -0.76223,1.002525 -0.0721,0.651052 -0.19323,1.300012 -0.35502,1.949752 l -0.4842,1.22783 c -0.70346,1.782932 -1.87803,2.754204 -3.12126,3.127457 -0.38818,0.593834 -0.73665,1.213207 -1.1529,1.788007 -0.78123,1.206815 -1.75001,2.262322 -2.80138,3.23546 -1.04259,0.90742 -2.26203,1.551003 -3.47214,2.198833 -0.81145,0.41652 -1.66264,0.737227 -2.52439,1.030428 -6.77856,2.306214 -9.10653,-4.670343 -2.28979,-6.86108 0.48258,-0.155091 0.95367,-0.335381 1.41232,-0.552421 0.68902,-0.364839 1.38726,-0.713642 2.01745,-1.175639 0.71797,-0.616461 1.30017,-1.358352 1.82004,-2.146123 0.66383,-0.892056 1.26802,-1.828112 1.8216,-2.792076 0.59882,-1.12436 1.07283,-2.316203 1.82056,-3.358968 0.0117,-0.0166 0.0249,-0.032 0.0367,-0.0486 -0.84786,-3.67928 0.87949,-5.67892 2.87217,-5.69422 0.38363,-0.003 0.77643,0.0723 1.16324,0.21859 0.15519,-0.3579 0.298,-0.71847 0.29042,-1.1188 -0.0398,-0.54898 -0.18359,-1.13581 -0.4191,-1.66191 -0.48947,-1.16893 -0.89792,-2.36312 -1.1591,-3.60547 -0.82863,-3.94139 1.021,-6.29698 3.05356,-6.35516 z" /></clipPath><clipPath
       clipPathUnits="userSpaceOnUse"
       id="clipPath278"><path
         id="path279"
         style="fill:#ff0000;fill-opacity:1;fill-rule:nonzero;stroke:none;stroke-width:0.264583"
         d="m -43.212488,-382.05292 v 250.81001 H 185.4025 v -250.81001 z m 181.494868,132.88233 c 1.13528,0.005 2.03811,0.42617 2.60707,1.09037 0.91934,-0.34123 1.78192,-0.54125 2.52078,-0.52658 4.05205,0.0805 5.08945,4.87108 -0.18087,7.33443 -2.21042,1.03317 -4.41856,2.08163 -6.72362,2.89285 -2.86091,0.99315 -5.74924,1.921 -8.52506,3.13986 -6.55592,2.87873 -9.40434,-3.76713 -2.84944,-6.64817 1.1011,-0.48395 2.22936,-0.89759 3.35587,-1.31568 0.52294,-1.00077 1.47788,-2.01475 2.95124,-2.87476 1.0894,-0.6359 2.16914,-1.287 3.24683,-1.94252 1.33817,-0.81396 2.56345,-1.15421 3.5972,-1.1498 z m -133.0900695,2.4753 h 5.5981075 c 7.160125,0 7.160125,7.23263 0,7.23263 H 5.1923105 c -7.1601277,0 -7.1601277,-7.23263 0,-7.23263 z m 42.9880715,50.84496 c 2.044401,-0.008 3.844292,2.25841 2.953308,6.18618 -0.283588,1.25017 -0.481169,2.51568 -0.75189,3.76877 -0.313965,1.46608 -0.73946,2.91235 -1.207162,4.33668 -2.233805,6.80278 -9.211228,4.46329 -6.857981,-2.29908 0.404762,-1.16313 0.726765,-2.36525 0.995807,-3.56619 0.287499,-1.32813 0.484814,-2.67249 0.804084,-3.99407 0.735603,-3.04497 2.473746,-4.42641 4.063834,-4.43229 z m 26.844358,9.60148 c 1.5451,0.0844 3.630816,1.85281 5.237924,5.05189 1.446292,2.8789 3.498345,5.40261 5.377447,8.00674 1.423178,1.86933 2.496352,3.93269 3.488161,6.04873 3.038795,6.48323 -3.64554,9.55837 -6.57066,3.02307 -0.764304,-1.70766 -1.644017,-3.34338 -2.782776,-4.84001 -2.279812,-3.15977 -5.466628,-6.83969 -6.494177,-10.63656 -0.141171,-0.52168 -0.167447,-1.06805 -0.251148,-1.60197 -0.554762,-3.53682 0.450099,-5.13633 1.995229,-5.05189 z m 22.433772,2.07998 v 5.3e-4 c 1.081786,0.0173 2.458693,0.64291 3.986318,2.0805 1.21595,1.14421 2.08888,2.57763 3.1502,3.85661 0.75663,0.91352 1.6619,1.66584 2.53163,2.46393 1.1475,0.93011 2.05703,2.06162 2.85305,3.29799 0.95863,1.59903 1.44035,3.34615 0.97049,5.20227 -0.10236,0.40431 -0.31771,0.77135 -0.47646,1.15703 -1.02548,2.49132 -2.04203,1.65641 -2.97036,0.0238 -2.04159,1.70549 -5.47708,1.09344 -5.78105,-3.28558 -0.003,-0.0322 -0.0142,-0.0648 -0.007,-0.0966 0.005,-0.03 0.0986,-0.0136 0.0827,-0.0393 -0.23736,-0.38486 -0.69492,-0.61714 -1.02216,-0.90227 -1.100378,-0.77725 -2.267905,-1.45106 -3.395141,-2.18798 -3.582773,-2.34245 -3.744537,-5.4822 -2.015898,-6.82284 -0.840523,-2.68156 0.04882,-4.63231 1.88154,-4.74287 0.06945,-0.004 0.140271,-0.006 0.212389,-0.005 z" /></clipPath></defs><g
     id="layer1"
     transform="translate(-51.530699,406.64142)"><path
       style="fill:#000000"
       d="m 116.88452,-106.14444 c -1.18967,-0.25873 -2.61842,-0.70653 -3.175,-0.9951 -1.44668,-0.75006 -3.48808,-2.82563 -4.53336,-4.60927 -1.4828,-2.53021 -2.99063,-10.74251 -3.55922,-19.38504 -0.24306,-3.69434 -0.28162,-3.83151 -1.17147,-4.16677 -1.36089,-0.51274 -3.14382,-2.37569 -3.60184,-3.7635 -0.22107,-0.66985 -0.4225,-2.81126 -0.44762,-4.75869 l -0.0457,-3.54078 -1.424239,-0.47459 c -4.46076,-1.48643 -6.62398,-6.02771 -5.27456,-11.07294 1.1178,-4.17923 1.39206,-3.73994 -2.3549,-3.77199 -6.76422,-0.0579 -12.21684,-2.09637 -16.1307,-6.03064 -2.62385,-2.63754 -4.01947,-5.17698 -4.59775,-8.36597 -0.41817,-2.30611 -0.0923,-5.04273 0.80431,-6.75392 0.43893,-0.83773 0.41697,-1.12645 -0.19405,-2.55125 -2.12863,-4.96361 -1.34118,-8.9884 3.09505,-15.81936 2.74081,-4.22034 9.17471,-12.74026 13.72558,-18.17573 2.08097,-2.48547 3.72693,-4.57218 3.65769,-4.63714 -0.0692,-0.065 -1.47525,-0.38958 -3.12449,-0.72137 -9.44151,-1.89946 -19.8929,-6.93131 -25.43407,-12.24532 -5.34881,-5.12953 -9.15325,-12.68267 -10.77138,-21.3849 -0.76529,-4.11569 -1.06739,-20.92581 -0.50887,-28.31546 1.59692,-21.1282 7.26522,-42.0157 16.45737,-60.64483 6.91893,-14.02215 13.76301,-23.35022 24.26151,-33.06698 10.469919,-9.69033 25.232299,-17.73981 40.598299,-22.13702 12.07796,-3.4563 21.88147,-3.99366 32.74189,-1.79467 12.97544,2.62723 25.23484,7.91727 37.30802,16.09873 21.03453,14.25418 35.40591,36.19814 44.66025,68.19268 4.29663,14.8545 6.25613,28.88689 6.26295,44.85031 0.006,13.14309 -0.95413,19.87155 -3.79539,26.60845 -2.53763,6.01694 -7.69667,12.15409 -13.21549,15.72104 -5.19385,3.35691 -13.08972,6.51818 -20.27075,8.11581 -1.488,0.33105 -2.70546,0.72003 -2.70546,0.86441 0,0.14438 1.44753,1.99376 3.21674,4.10973 4.77301,5.70851 13.67705,17.66366 15.39812,20.67452 3.17224,5.54956 3.69722,9.43844 1.79346,13.28525 l -0.91985,1.85868 0.69289,1.4341 c 2.1393,4.42785 0.5789,10.54597 -3.74536,14.68508 -2.5584,2.44886 -4.66019,3.7303 -7.93637,4.83871 -2.34961,0.79492 -8.10039,1.58597 -10.6163,1.46032 -0.93704,-0.0468 -1.20452,0.0659 -1.10945,0.4675 0.0689,0.29104 0.45161,1.8377 0.85046,3.43702 0.64154,2.57241 0.67447,3.13453 0.28544,4.87289 -0.56168,2.50986 -2.02127,4.19559 -4.75019,5.48616 l -2.08433,0.98573 0.0734,2.77735 c 0.0404,1.52754 -0.1087,3.5006 -0.33129,4.38458 -0.5014,1.99121 -2.10225,3.98713 -3.64554,4.54519 l -1.16694,0.42197 -0.41248,5.51584 c -0.49655,6.64028 -1.56811,13.4689 -2.49729,15.91429 -1.39546,3.67258 -4.01762,6.17181 -7.62492,7.2675 -2.6256,0.7975 -9.86312,0.8884 -13.14177,0.16506 -4.45452,-0.98276 -7.80795,-4.00367 -9.24134,-8.32497 -0.88582,-2.6705 -1.94913,-8.90673 -2.51051,-14.72382 l -0.43361,-4.49326 -1.26524,-0.65643 c -1.7317,-0.89842 -2.49593,-2.37661 -2.97638,-5.75691 -0.59551,-4.18993 -0.8816,-4.35569 -7.5175,-4.35569 h -5.11995 l -0.8514,0.98981 c -0.59326,0.6897 -0.8514,1.41781 -0.8514,2.40142 0,3.25678 -1.35166,5.89973 -3.42061,6.68846 -0.86065,0.3281 -0.92691,0.60182 -1.53101,6.32447 -0.54543,5.16683 -1.88472,12.14465 -2.7889,14.5303 -0.95555,2.52122 -3.49822,5.28345 -5.80123,6.30217 -3.6579,1.61804 -10.79763,2.18842 -15.25601,1.21878 z m 11.70437,-6.01982 c 1.96772,-0.53844 3.03784,-1.4756 3.81855,-3.3441 0.59876,-1.43302 1.63317,-6.62175 1.63317,-8.19215 v -1.07132 l -3.62963,0.23467 c -2.21572,0.14325 -6.49841,0.0257 -10.99401,-0.30172 -4.05041,-0.29501 -7.43827,-0.46249 -7.52859,-0.37217 -0.0903,0.0903 0.15412,2.06906 0.54318,4.3972 1.15921,6.93679 2.49224,8.70846 6.92365,9.20192 2.8069,0.31257 6.98661,0.0625 9.23368,-0.55233 z m 60.18233,-0.0412 c 1.74623,-0.6987 2.97434,-2.16955 3.61621,-4.33097 0.60341,-2.03189 1.47985,-8.39459 1.1955,-8.67894 -0.10922,-0.10922 -3.19248,0.0263 -6.8517,0.30121 -6.20814,0.46635 -12.59255,0.48566 -14.55531,0.044 -0.8411,-0.18926 -0.84525,-0.1758 -0.63615,2.06341 0.50115,5.36675 2.02967,9.09553 4.18456,10.20815 2.62546,1.35558 10.08008,1.5802 13.04689,0.39312 z m -54.31042,-16.78395 c 0.33548,-0.26653 0.63036,-1.23546 0.74543,-2.44939 l 0.19037,-2.00841 -6.05785,0.20068 c -5.41789,0.17949 -14.12743,-0.2461 -16.90578,-0.82608 l -0.97013,-0.20252 v 2.66353 c 0,2.63485 0.0104,2.6651 0.97013,2.81049 0.53358,0.0808 5.58324,0.17075 11.22147,0.19982 7.73653,0.0399 10.38748,-0.0553 10.80636,-0.38812 z m 57.91529,0.21664 1.63674,-0.22434 v -2.64405 -2.64404 l -1.32292,0.22818 c -4.05651,0.69966 -9.73686,0.98409 -15.9085,0.79658 l -6.82448,-0.20734 0.25004,2.19509 c 0.13752,1.2073 0.32071,2.31415 0.4071,2.45967 0.19045,0.32081 19.45514,0.35644 21.76202,0.0403 z m -57.83221,-9.12827 c 2.23695,-0.29324 4.45007,-0.70762 4.91805,-0.92085 0.9579,-0.43644 1.63424,-1.67317 1.63424,-2.9883 0,-0.83165 -0.0746,-0.86598 -1.32292,-0.60902 -1.87241,0.3854 -3.95039,0.3521 -3.99045,-0.0639 -0.0187,-0.19402 1.12046,-0.70534 2.53143,-1.13625 1.41097,-0.43091 2.88508,-1.10316 3.27581,-1.49389 l 0.71042,-0.71042 -2.8952,0.22327 c -1.59236,0.12279 -2.8952,0.13267 -2.8952,0.0219 0,-0.11072 0.59531,-0.39198 1.32291,-0.625 0.72761,-0.23303 3.09491,-1.11847 5.26067,-1.96764 2.16576,-0.84917 4.34857,-1.54395 4.85069,-1.54395 h 0.91295 v -4.21251 c 0,-2.64996 -0.1421,-4.30034 -0.38308,-4.44927 -0.2107,-0.13022 -2.01867,-0.32024 -4.01772,-0.42226 l -3.63463,-0.1855 -0.19763,1.37157 c -0.10869,0.75437 -0.29989,2.3114 -0.42489,3.46007 -0.31403,2.88585 -1.30073,3.84248 -4.54622,4.40766 -4.35102,0.7577 -9.41134,1.06461 -17.75208,1.07669 -8.54048,0.0124 -9.60924,0.22145 -6.79097,1.3285 1.29189,0.50747 1.89242,1.15283 1.07274,1.15283 -1.13671,0 -5.90266,-0.85117 -6.23502,-1.11354 -0.4597,-0.36289 -0.90659,0.45215 -0.53772,0.9807 0.2372,0.33987 4.25843,1.97812 6.4317,2.62027 2.63961,0.77995 8.60851,1.41737 15.31969,1.63599 4.99696,0.16278 6.74676,0.32156 5.99722,0.54419 -1.39979,0.41575 -12.696,0.0129 -17.81528,-0.63541 -5.47228,-0.69297 -9.25484,-1.48499 -9.60305,-2.01076 -0.15972,-0.24117 -0.2454,0.50618 -0.19286,1.68235 l 0.0945,2.1163 2.03278,0.80501 c 4.7596,1.88487 18.62388,2.74203 26.8691,1.66118 z m -0.15049,-3.87656 c 0,-0.097 0.0794,-0.17639 0.17639,-0.17639 0.097,0 0.17639,0.0794 0.17639,0.17639 0,0.097 -0.0794,0.17639 -0.17639,0.17639 -0.097,0 -0.17639,-0.0794 -0.17639,-0.17639 z m -9.525,-3.52778 c 0,-0.097 0.0794,-0.17639 0.17639,-0.17639 0.097,0 0.17639,0.0794 0.17639,0.17639 0,0.097 -0.0794,0.17639 -0.17639,0.17639 -0.097,0 -0.17639,-0.0794 -0.17639,-0.17639 z m -4.49792,-0.42907 c 0.53358,-0.0808 1.40671,-0.0808 1.94028,0 0.53358,0.0808 0.097,0.14697 -0.97014,0.14697 -1.06715,0 -1.50371,-0.0661 -0.97014,-0.14697 z m 71.52569,7.51928 c 3.7791,-0.5169 7.68593,-1.71886 7.96452,-2.45034 0.32665,-0.85763 0.30465,-3.22633 -0.0295,-3.17606 -0.19266,0.029 -1.62277,0.30966 -3.17802,0.62372 -6.67839,1.34863 -23.90091,2.62481 -23.34794,1.73007 0.12484,-0.20199 2.99507,-0.45537 6.671,-0.58891 7.63424,-0.27733 12.87337,-1.12112 16.4548,-2.65015 3.01041,-1.28524 3.22442,-1.31771 3.23166,-0.49034 0.004,0.4499 0.0827,0.49552 0.29047,0.16818 0.15679,-0.24705 0.21918,-0.89815 0.13864,-1.4469 -0.14414,-0.98205 -0.1667,-0.99096 -1.437,-0.56745 -1.65228,0.55086 -5.70029,0.9566 -5.70029,0.57135 0,-0.16162 0.635,-0.54329 1.41111,-0.84815 0.77611,-0.30487 1.41111,-0.70226 1.41111,-0.88309 0,-0.19103 -4.39754,-0.41872 -10.49514,-0.5434 -13.11017,-0.26808 -17.28027,-0.82235 -18.98075,-2.52284 -0.51087,-0.51086 -0.98824,-1.63532 -1.26679,-2.98397 -0.30443,-1.47391 -0.58909,-2.10966 -0.89246,-1.99324 -0.32765,0.12573 -0.41433,-0.24486 -0.32776,-1.40124 0.0997,-1.33115 0.0187,-1.57217 -0.52784,-1.57217 -0.78004,0 -1.37593,1.01359 -1.37593,2.34042 0,1.63858 -0.61265,0.45665 -0.82035,-1.58262 -0.30829,-3.02689 -0.59076,-2.55427 -0.59076,0.98844 0,3.10126 0.0374,3.26515 0.70556,3.09043 0.6658,-0.17411 0.70555,-0.0108 0.70555,2.89828 v 3.08278 l 1.14653,0.3915 c 2.8674,0.9791 6.5903,2.40722 6.78634,2.60327 0.2857,0.28569 -2.76552,-3.7e-4 -4.71258,-0.44183 -3.40765,-0.77261 -1.64768,1.04397 2.08982,2.15704 3.54236,1.05496 3.55605,1.558 0.0358,1.31672 l -2.87649,-0.19716 v 0.9774 c 0,1.25346 1.12616,2.68401 2.37567,3.0178 4.69073,1.25304 17.36634,1.44588 25.14099,0.38246 z m -39.86388,-13.59578 c 0,-1.15271 0.15875,-2.19396 0.35277,-2.31387 0.22149,-0.13689 0.35278,0.64309 0.35278,2.09584 v 2.31388 h 2.99861 2.99861 v -5.46806 -5.46805 h -2.99861 -2.99861 v 2.19516 c 0,2.01858 -0.0412,2.13639 -0.51172,1.46458 -0.28144,-0.40182 -0.54963,-1.37313 -0.59597,-2.15846 -0.0544,-0.92159 -0.23095,-1.37157 -0.49799,-1.2691 -0.28653,0.10995 -0.43498,1.78002 -0.4828,5.43135 -0.0669,5.10924 -0.0466,5.27258 0.65693,5.27258 0.65134,0 0.726,-0.21552 0.726,-2.09585 z m 31.67559,-1.1141 c 0.0561,-0.46585 -0.18775,-1.79949 -0.54188,-2.96366 l -0.64387,-2.11667 -1.63487,-0.10637 c -0.89918,-0.0585 -1.79491,-0.29921 -1.99052,-0.5349 -0.1956,-0.23569 -0.46866,-2.75336 -0.60681,-5.59482 l -0.25116,-5.16629 -3.91922,0.10057 c -2.15556,0.0553 -3.12546,0.0434 -2.15532,-0.0265 0.97014,-0.0699 2.75608,-0.22131 3.96875,-0.33649 l 2.20486,-0.20941 v -2.26498 -2.26497 h -1.18657 c -0.65262,0 -2.04168,-0.15766 -3.08681,-0.35035 -1.5076,-0.27797 -2.11891,-0.60598 -2.95856,-1.58752 -0.82272,-0.96173 -1.32387,-1.23716 -2.25102,-1.23715 -1.1819,2e-5 -1.19071,0.012 -0.97402,1.32293 0.12026,0.72761 0.22041,2.47897 0.22254,3.89193 0.004,2.3346 0.0758,2.5956 0.79184,2.86049 l 0.78796,0.29148 -0.78796,0.25009 c -0.7829,0.24848 -0.78795,0.29826 -0.78795,7.75636 0,6.89338 0.054,7.55519 0.66193,8.10532 0.51318,0.46442 1.63175,0.64781 4.97738,0.81602 l 4.31545,0.21698 -0.12669,-3.05445 c -0.0697,-1.67995 -0.0292,-3.05444 0.0899,-3.05441 0.24944,6e-5 0.66531,2.74318 0.66531,4.38846 0,1.63533 0.52535,1.95869 2.9715,1.82897 1.96231,-0.10405 2.15241,-0.18537 2.24576,-0.96066 z m -12.38202,-4.12415 c -1.45748,-1.61049 -1.45213,-4.18833 0.012,-5.80623 0.56123,-0.62016 2.01325,-0.8082 3.07996,-0.39886 0.81331,0.31209 1.6033,2.00614 1.6033,3.43811 0,0.67256 0.19844,1.30291 0.44098,1.40078 0.31323,0.12639 0.29427,0.186 -0.0655,0.20578 -0.27854,0.0153 -0.85109,0.35164 -1.27233,0.74738 -1.14234,1.07317 -3.01665,1.27698 -3.7985,0.41304 z m 1.6967,-1.48534 c -0.11991,-0.19403 -0.45615,-0.35278 -0.74719,-0.35278 -0.29104,0 -0.43106,0.15875 -0.31114,0.35278 0.11992,0.19402 0.45615,0.35277 0.7472,0.35277 0.29104,0 0.43105,-0.15875 0.31113,-0.35277 z m 1.16767,-1.50279 c 0.1345,-1.13073 -1.07886,-1.9787 -1.87997,-1.31383 -0.39394,0.32694 -0.4069,0.55808 -0.0657,1.17101 0.86561,1.55473 1.76979,1.62111 1.94562,0.14282 z m -58.99342,5.38334 c 0.21042,-1.26118 0.4947,-2.63691 0.63173,-3.05719 0.23344,-0.71591 0.10533,-0.77953 -2.0303,-1.00824 -1.25371,-0.13426 -2.44667,-0.14077 -2.65104,-0.0145 -0.50166,0.31004 -1.44824,3.57967 -1.44824,5.00243 0,1.28496 0.5251,1.49539 3.52777,1.4137 l 1.5875,-0.0432 z m 6.33037,-0.58265 0.73064,-2.87571 -1.25235,-0.20722 c -0.68879,-0.11396 -1.92088,-0.20896 -2.73799,-0.21109 -1.48556,-0.004 -1.48566,-0.004 -2.02847,1.82403 -0.57511,1.93662 -0.70802,3.88652 -0.2932,4.30135 0.1373,0.1373 1.28489,0.20344 2.55019,0.14699 l 2.30055,-0.10264 z m 5.48088,0.31271 c 0.29054,-3.73474 0.88408,-3.88563 0.7433,-0.18896 l -0.11566,3.03694 3.88292,-0.20484 c 2.1356,-0.11266 4.2193,-0.38487 4.63045,-0.60491 1.3029,-0.69729 1.45166,-1.84296 1.19783,-9.22514 l -0.24093,-7.00704 -3.73753,-0.0638 -3.73754,-0.0638 3.58823,-0.20081 c 1.97353,-0.11045 3.71613,-0.32945 3.87244,-0.48667 0.1563,-0.15722 0.34554,-1.94316 0.42052,-3.96875 l 0.13633,-3.68289 H 136.539 c -0.63137,0 -1.192,0.21521 -1.30107,0.49944 -0.10541,0.27469 -0.82372,0.93745 -1.59623,1.47281 -1.1895,0.82432 -1.77956,0.97743 -3.85329,0.99987 l -2.44872,0.0265 -9.3e-4,2.38125 -9.3e-4,2.38125 1.14653,0.0565 1.14653,0.0565 -1.14653,0.14229 -1.14653,0.14228 -0.021,3.59362 c -0.021,3.5842 -0.37305,6.75112 -0.79775,7.17582 -0.12322,0.12322 -1.02059,0.30058 -1.99414,0.39413 -1.69735,0.16309 -1.78464,0.2241 -2.12407,1.48466 -0.19469,0.72301 -0.45611,2.05967 -0.58093,2.97034 l -0.22695,1.65577 2.60785,-0.10466 2.60785,-0.10466 z m 4.73951,-1.75052 c -1.35817,-0.32077 -2.29306,-1.54284 -2.29306,-2.99744 0,-1.55862 0.76111,-3.25922 1.60331,-3.5824 2.67061,-1.02481 4.82503,1.07638 4.24945,4.14447 -0.33633,1.79282 -1.8617,2.8364 -3.5597,2.43537 z m 1.65169,-2.38926 c 0.46225,-1.01453 -0.0729,-2.64583 -0.86802,-2.64583 -0.66117,0 -1.31284,0.73547 -1.31284,1.48166 0,0.76969 0.5515,0.83975 0.83313,0.10584 0.31007,-0.80804 0.84035,-0.62994 0.78777,0.26458 -0.031,0.52778 -0.25545,0.77664 -0.66976,0.74269 -0.49452,-0.0405 -0.53884,0.0505 -0.21477,0.44097 0.59329,0.71487 0.98989,0.60782 1.44449,-0.38991 z m 56.27123,5.12886 c -0.11402,-0.96267 -0.39938,-2.39142 -0.63415,-3.175 -0.39877,-1.33099 -0.51275,-1.42469 -1.73288,-1.42469 -0.71832,0 -2.03701,0.10019 -2.93043,0.22264 -1.47492,0.20217 -1.59056,0.28587 -1.25671,0.90967 0.20222,0.37785 0.60189,1.50797 0.88816,2.51138 0.28626,1.0034 0.58652,2.0228 0.66723,2.26533 0.0992,0.29814 0.96615,0.44098 2.67642,0.44098 h 2.52965 z m 5.71799,1.42692 c 0.6062,-0.38382 0.34925,-2.75867 -0.53854,-4.97749 l -0.59753,-1.49336 -2.28666,0.21353 c -1.25767,0.11745 -2.32534,0.25709 -2.37261,0.31032 -0.0886,0.0998 0.82796,5.04376 1.0807,5.82941 0.16569,0.51506 3.93827,0.60915 4.71464,0.11759 z m 6.62039,-0.18278 c 1.77844,-0.10312 3.64375,-0.3744 4.14514,-0.60284 0.81257,-0.37023 0.91161,-0.61751 0.91161,-2.27604 0,-2.35872 -0.48634,-3.67051 -1.36081,-3.67051 -0.62611,0 -0.64001,0.0917 -0.20061,1.32292 0.25966,0.7276 0.46748,1.79916 0.46181,2.38125 -0.008,0.81206 -0.18901,0.52474 -0.77827,-1.23472 l -0.76796,-2.29306 -2.46944,-0.11305 c -1.3582,-0.0622 -3.47329,-0.009 -4.70021,0.11905 -1.89707,0.19738 -2.19401,0.31983 -1.98504,0.8186 0.13515,0.32258 0.56143,1.8093 0.94729,3.30383 0.67139,2.60047 0.74158,2.71119 1.63226,2.57468 0.51188,-0.0785 2.38579,-0.227 4.16423,-0.33011 z m -93.16725,-0.81675 c 0.11793,-0.53358 0.44124,-1.90663 0.71845,-3.05123 0.27721,-1.1446 0.43597,-2.14914 0.35279,-2.23232 -0.0832,-0.0832 -1.98624,-0.24162 -4.22902,-0.35207 -4.6637,-0.22969 -4.8847,-0.14063 -5.47577,2.2067 -0.443279,1.76044 -0.910289,2.16994 -0.591309,0.5185 0.11243,-0.58208 0.29641,-1.53458 0.408839,-2.11666 0.12305,-0.63705 0.0561,-1.05834 -0.168259,-1.05834 -1.21048,0 -2.26559,4.563 -1.34108,5.79975 0.59973,0.8023 2.566159,1.14035 7.030839,1.20867 l 3.08008,0.0471 z m 52.01011,-0.26458 c 0,-0.097 -0.0794,-0.17639 -0.17639,-0.17639 -0.097,0 -0.17639,0.0794 -0.17639,0.17639 0,0.097 0.0794,0.17638 0.17639,0.17638 0.097,0 0.17639,-0.0794 0.17639,-0.17638 z m 3.88056,-3.90138 c 0,-0.30249 -0.16134,-0.45027 -0.35854,-0.3284 -0.19719,0.12187 -0.26719,0.36937 -0.15557,0.54999 0.30242,0.48931 0.51411,0.39807 0.51411,-0.22159 z m -17.05093,-2.15464 c -0.12935,-0.12935 -0.34102,-0.12935 -0.47037,0 -0.12935,0.12935 -0.0235,0.23518 0.23519,0.23518 0.2587,0 0.36453,-0.10583 0.23518,-0.23518 z m -1.5581,-0.35123 c -0.24253,-0.0979 -0.63941,-0.0979 -0.88194,0 -0.24254,0.0979 -0.0441,0.17793 0.44097,0.17793 0.48507,0 0.6835,-0.0801 0.44097,-0.17793 z m 2.38125,0.0573 c 0,-0.097 -0.0794,-0.17639 -0.17639,-0.17639 -0.097,0 -0.17639,0.0794 -0.17639,0.17639 0,0.097 0.0794,0.17639 0.17639,0.17639 0.097,0 0.17639,-0.0794 0.17639,-0.17639 z m 41.275,-0.71241 c 6.99055,-0.376 9.72684,-1.1108 11.59638,-3.11404 l 0.83666,-0.89649 -1.80435,-2.40103 c -2.08572,-2.77546 -3.92979,-6.17984 -4.80037,-8.86208 -0.70741,-2.17956 -0.50444,-2.77571 0.36373,-1.06826 0.79744,1.56835 4.16849,6.40963 5.91147,8.48965 l 1.39595,1.6659 1.00123,-2.11711 1.00124,-2.1171 -1.22593,-1.60605 c -1.80117,-2.35966 -3.92649,-6.02178 -6.5149,-11.22579 l -2.29306,-4.61019 h -7.23194 c -3.97757,0 -7.66851,0.12209 -8.20209,0.2713 -1.02262,0.28599 -1.33742,0.96342 -0.44769,0.96342 0.77381,0 1.05618,1.50793 1.05699,5.64444 5.6e-4,2.90914 -0.14098,3.99095 -0.65946,5.04034 -0.60083,1.21607 -0.63848,1.89785 -0.41883,7.58473 0.28488,7.37588 0.43513,8.45117 1.21025,8.66131 0.31991,0.0867 1.69291,0.0989 3.05111,0.027 1.35819,-0.0719 4.13631,-0.22036 6.17361,-0.32995 z m -8.46667,-2.46259 c 0,-0.29104 0.0624,-0.52917 0.13865,-0.52917 0.0763,0 0.23002,0.23813 0.3417,0.52917 0.11168,0.29104 0.0493,0.52916 -0.13864,0.52916 -0.18794,0 -0.34171,-0.23812 -0.34171,-0.52916 z m 5.99722,0.17639 c -0.3968,-0.25644 -0.22032,-0.34198 0.70556,-0.34198 0.92588,0 1.10236,0.0855 0.70555,0.34198 -0.29104,0.18808 -0.60854,0.34197 -0.70555,0.34197 -0.097,0 -0.41452,-0.15389 -0.70556,-0.34197 z m -3.61186,-0.24951 c 0.43883,-0.0844 1.07383,-0.0812 1.41111,0.007 0.33729,0.0883 -0.0217,0.15734 -0.79786,0.15342 -0.77611,-0.004 -1.05207,-0.0762 -0.61325,-0.16054 z m 7.42627,0.009 c 0.25466,-0.10191 0.55893,-0.0894 0.67616,0.0279 0.11722,0.11722 -0.0911,0.2006 -0.46302,0.18528 -0.41097,-0.0169 -0.49456,-0.10052 -0.21314,-0.21313 z m 5.00504,-0.99374 c 0,-0.097 0.0794,-0.17639 0.17638,-0.17639 0.097,0 0.17639,0.0794 0.17639,0.17639 0,0.097 -0.0794,0.17639 -0.17639,0.17639 -0.097,0 -0.17638,-0.0794 -0.17638,-0.17639 z m 2.75607,-0.77015 c 0.25466,-0.10191 0.55893,-0.0894 0.67616,0.0278 0.11722,0.11723 -0.0911,0.2006 -0.46302,0.18529 -0.41097,-0.0169 -0.49456,-0.10052 -0.21314,-0.21314 z m -16.86718,-21.98401 c 0,-0.25871 0.10583,-0.36454 0.23518,-0.23519 0.12935,0.12936 0.12935,0.34102 0,0.47037 -0.12935,0.12936 -0.23518,0.0235 -0.23518,-0.23518 z m -56.3012,24.95902 c 0.10256,-0.82461 0.28483,-4.04304 0.40505,-7.15206 0.20167,-5.21542 0.15887,-5.82952 -0.55322,-7.9375 -0.64213,-1.90091 -0.74861,-2.86974 -0.63383,-5.76698 0.12451,-3.14286 0.2188,-3.5477 0.9675,-4.15396 0.45625,-0.36944 0.73758,-0.76368 0.62518,-0.87608 -0.1124,-0.1124 -1.3652,-0.43329 -2.784,-0.7131 -1.94818,-0.3842 -3.90136,-0.45087 -7.97902,-0.27233 l -5.39937,0.2364 -2.41085,4.80705 c -1.32596,2.64387 -3.55613,6.54259 -4.95591,8.66383 -2.46921,3.74183 -2.53343,3.8943 -2.15473,5.11528 0.21469,0.69216 0.70932,1.65536 1.0992,2.14043 0.60214,0.74916 0.75745,0.80062 1.03162,0.34181 0.17752,-0.29708 0.81145,-1.09083 1.40874,-1.76389 1.47558,-1.66278 4.82143,-6.63775 5.33496,-7.93261 0.76405,-1.92654 0.75595,-0.20766 -0.01,2.09363 -0.74947,2.25215 -3.13516,6.39351 -5.08788,8.83213 -0.87766,1.09605 -0.96645,1.39565 -0.63147,2.13084 1.04916,2.30267 6.87605,3.53865 17.24151,3.65723 l 4.29991,0.0492 z m -1.87928,-1.17592 c 0.0169,-0.41097 0.10052,-0.49456 0.21313,-0.21314 0.10191,0.25466 0.0894,0.55893 -0.0279,0.67616 -0.11722,0.11722 -0.2006,-0.0911 -0.18528,-0.46302 z m -6.9885,-0.0387 c 0.34324,-0.0894 0.81949,-0.0836 1.05833,0.0131 0.23885,0.0966 -0.042,0.16981 -0.62407,0.16262 -0.58208,-0.007 -0.7775,-0.0863 -0.43426,-0.1757 z m 3.52106,0.001 c 0.33955,-0.0887 0.89518,-0.0887 1.23473,0 0.33954,0.0887 0.0617,0.16133 -0.61736,0.16133 -0.6791,0 -0.95691,-0.0726 -0.61737,-0.16133 z m -7.04884,-0.35407 c 0.34324,-0.0894 0.81949,-0.0836 1.05834,0.0131 0.23884,0.0966 -0.042,0.16981 -0.62408,0.16262 -0.58208,-0.007 -0.7775,-0.0863 -0.43426,-0.17569 z m -2.91713,-0.2847 c 0,-0.097 0.0794,-0.17639 0.17639,-0.17639 0.097,0 0.17639,0.0794 0.17639,0.17639 0,0.097 -0.0794,0.17639 -0.17639,0.17639 -0.097,0 -0.17639,-0.0794 -0.17639,-0.17639 z m -1.47725,-0.41738 c 0.25466,-0.1019 0.55893,-0.0894 0.67615,0.0279 0.11723,0.11722 -0.0911,0.2006 -0.46302,0.18528 -0.41096,-0.0169 -0.49456,-0.10052 -0.21313,-0.21314 z m -2.82223,-0.70555 c 0.25467,-0.10191 0.55894,-0.0894 0.67616,0.0278 0.11723,0.11723 -0.0911,0.2006 -0.46302,0.18529 -0.41097,-0.0169 -0.49456,-0.10052 -0.21314,-0.21314 z m -3.77387,2.79863 c -0.57807,-0.72761 -1.31716,-1.99761 -1.64242,-2.82223 -0.32527,-0.82461 -0.710979,-1.4993 -0.857149,-1.4993 -0.32253,0 -0.82957,4.5901 -0.53913,4.88054 0.11308,0.11308 0.952989,0.31 1.866459,0.43761 0.91348,0.12761 1.78741,0.25323 1.94208,0.27916 0.15466,0.0259 -0.19176,-0.54818 -0.76984,-1.27578 z m 103.01074,0.75689 c 1.04208,-0.20229 1.08759,-0.27932 0.88583,-1.4993 -0.11697,-0.70734 -0.21443,-1.802 -0.21656,-2.43259 -0.005,-1.51303 -0.55129,-1.45995 -1.06735,0.10373 -0.22694,0.68764 -0.96394,1.97252 -1.63776,2.85528 l -1.22514,1.60502 1.08123,-0.20945 c 0.59469,-0.11519 1.57557,-0.30541 2.17975,-0.42269 z m -40.75296,-2.39149 c 0.10301,-0.26844 0.022,-7.91926 -0.17999,-17.00183 l -0.36728,-16.51375 -1.55703,-1.6072 c -0.85637,-0.88396 -1.78904,-2.08345 -2.07261,-2.66554 -2.01171,-4.12941 -1.8065,-11.29569 0.45011,-15.71901 0.93353,-1.82987 3.8604,-5.18922 6.12116,-7.02562 2.05318,-1.6678 2.46329,-2.49258 0.49262,-0.99072 -2.38412,1.81693 -6.10389,3.30516 -9.90496,3.96282 -0.73727,0.12756 -3.03915,0.22712 -5.11528,0.22123 -5.51528,-0.0156 -10.64562,-1.50046 -14.83599,-4.29387 -0.65089,-0.43389 0.30974,0.70564 2.13474,2.5323 3.66629,3.66964 5.22062,6.19131 6.09021,9.88043 1.3631,5.78276 -0.04,11.70321 -3.46926,14.6385 l -1.3891,1.18902 -0.0734,7.15107 c -0.0809,7.88308 -0.19784,24.68592 -0.1805,25.93649 l 0.011,0.79375 h 11.82913 c 9.74664,0 11.86209,-0.0859 12.01641,-0.48807 z m -71.823309,-5.15638 c 1.17451,-1.17451 0.87901,-1.69433 -1.32292,-2.32715 -4.17675,-1.20037 -9.41721,-4.07838 -13.26493,-7.28498 -1.94308,-1.61932 -2.37845,-1.43244 -2.10984,0.90562 0.21749,1.89308 0.94973,3.27481 2.71313,5.11965 1.77828,1.86041 3.39014,2.72475 6.69862,3.59206 3.48899,0.91463 6.36817,0.91257 7.28594,-0.005 z m 127.104289,0.14936 c 4.27468,-1.10768 7.41024,-3.30661 8.85809,-6.21206 0.88509,-1.77615 1.14549,-3.51049 0.70099,-4.66883 -0.17007,-0.4432 -0.60731,-0.19958 -2.11524,1.17858 -3.0973,2.83076 -8.17793,5.67331 -12.66342,7.08503 -2.46201,0.77487 -2.71024,0.98114 -2.24473,1.86537 0.22554,0.42842 0.58475,0.89557 0.79823,1.03812 0.67715,0.45215 4.44019,0.29058 6.66608,-0.28621 z M 97.509241,-179.43641 c 0.54491,-3.15295 1.92526,-9.7691 3.067439,-14.70257 l 2.07668,-8.96993 -0.89496,-5.49395 c -0.49222,-3.02168 -0.9715,-5.97021 -1.06505,-6.55229 -0.4637,-2.88508 0.57495,0.89134 1.44645,5.25919 0.52778,2.64513 1.00098,4.76642 1.05154,4.71396 0.0506,-0.0525 0.6763,-2.30086 1.39051,-4.99646 1.39251,-5.25562 1.86351,-9.1643 1.34363,-11.1503 l -0.32322,-1.23473 -3.50791,-0.60584 c -1.92934,-0.33322 -3.688009,-0.57134 -3.908139,-0.52917 -0.52191,0.1 -7.96514,9.21983 -13.01909,15.95168 -7.17849,9.56172 -9.80361,14.28448 -9.80448,17.63889 -10e-4,4.05287 4.89794,8.91004 13.16964,13.0572 2.89651,1.45221 7.16103,3.27608 7.78546,3.32972 0.11041,0.009 0.64658,-2.56244 1.1915,-5.7154 z m 115.375419,4.32224 c 7.9668,-3.16475 13.94648,-7.46145 16.44433,-11.81607 1.6927,-2.95097 1.19829,-5.53575 -2.11257,-11.04451 -1.9133,-3.18342 -9.78647,-13.9572 -12.55496,-17.1804 -1.36809,-1.59279 -4.93187,-6.13621 -6.71431,-8.55998 -0.0377,-0.0513 -1.77663,0.18144 -3.8642,0.51724 -3.47295,0.55864 -3.82552,0.68652 -4.14787,1.50441 -0.57158,1.45025 -0.0584,7.59309 0.91468,10.94805 0.47833,1.64924 1.05918,3.71299 1.29078,4.58611 l 0.42109,1.5875 1.02972,-5.09833 c 0.95087,-4.70795 1.35769,-6.1843 1.35752,-4.92644 -1.4e-4,1.01592 -1.40804,9.08899 -1.73508,9.94918 -0.26052,0.68522 0.0691,2.66545 1.43094,8.59683 1.29647,5.64663 3.91626,19.39019 4.17567,21.90584 0.0359,0.34848 1.81464,-0.0758 4.06426,-0.96943 z m -109.34696,-6.96807 c 1.48885,-2.66788 3.27486,-5.69784 3.96891,-6.73324 1.24332,-1.85484 1.28302,-1.87957 2.69725,-1.67997 0.78945,0.11142 3.89599,0.36422 6.90342,0.56179 3.00743,0.19756 6.1965,0.44506 7.08682,0.54998 1.09966,0.1296 1.73765,0.0441 1.98947,-0.26674 0.2145,-0.26474 0.44617,-3.28177 0.54984,-7.16029 0.25139,-9.40604 0.87482,-10.88718 0.96517,-2.29305 0.0377,3.58951 0.17044,7.47888 0.2949,8.64305 l 0.2263,2.11667 1.32292,0.10949 c 0.91385,0.0756 1.32074,-0.0335 1.3159,-0.35278 -0.004,-0.25425 -0.2593,-2.60539 -0.56765,-5.22477 -0.31839,-2.70475 -0.60135,-8.36664 -0.65487,-13.10401 -0.0518,-4.58783 -0.20264,-8.51689 -0.33512,-8.73125 -0.59881,-0.96888 -0.90521,-0.17973 -0.91019,2.34429 -0.003,1.50372 -0.15433,2.96955 -0.33635,3.25742 -0.52778,0.83471 -1.52303,-1.89079 -1.70094,-4.65801 l -0.15241,-2.37073 -2.69481,-1.02275 c -1.48215,-0.56252 -4.74335,-1.54346 -7.24713,-2.17988 -4.19483,-1.06626 -4.58603,-1.11101 -4.98171,-0.5699 -1.19777,1.63805 -5.62663,18.90586 -8.78877,34.26677 -0.87872,4.26861 -1.68265,8.11829 -1.78652,8.55486 -0.10387,0.43656 -0.11743,0.79375 -0.0301,0.79375 0.0873,0 1.37686,-2.18282 2.86572,-4.8507 z m 20.97791,-30.25069 c 0,-0.097 0.0794,-0.17639 0.17639,-0.17639 0.097,0 0.17639,0.0794 0.17639,0.17639 0,0.097 -0.0794,0.17639 -0.17639,0.17639 -0.097,0 -0.17639,-0.0794 -0.17639,-0.17639 z m 0.20565,-1.18737 c -0.15196,-0.24589 -0.18103,-0.54234 -0.0646,-0.65879 0.31572,-0.31572 0.65996,0.14863 0.48944,0.66021 -0.1195,0.35848 -0.20259,0.3582 -0.42486,-0.001 z m 8.49912,35.38207 c 0.52087,-0.71233 0.66102,-7.06161 0.17285,-7.8307 -0.16842,-0.26534 -1.42392,-0.53504 -3.08821,-0.66338 -3.70658,-0.28583 -3.80191,-0.17033 -3.60815,4.37119 0.0808,1.89314 0.35378,3.81942 0.60669,4.28062 0.4333,0.79018 0.60375,0.82825 2.9546,0.66005 1.85896,-0.13301 2.6139,-0.34142 2.96222,-0.81778 z m -0.91346,-3.15026 c 0.0107,-1.94028 0.15583,-3.84528 0.32258,-4.23333 0.19592,-0.45593 0.31005,0.60499 0.32258,2.99861 0.0107,2.03729 -0.13449,3.94229 -0.32258,4.23333 -0.23265,0.36001 -0.33577,-0.59858 -0.32258,-2.99861 z m 45.85055,3.31469 c 0.59716,-1.11581 0.54268,-8.08048 -0.0662,-8.46623 -0.55098,-0.34905 -4.55186,-0.42501 -5.39261,-0.10238 -0.46317,0.17773 -0.55802,0.88997 -0.55802,4.19014 0,4.30306 0.11595,4.59352 1.94028,4.86026 2.67886,0.3917 3.67192,0.27434 4.07658,-0.48179 z m -5.1927,-4.54941 c 0,-1.45521 0.0623,-2.05052 0.13838,-1.32292 0.0761,0.72761 0.0761,1.91823 0,2.64584 -0.0761,0.7276 -0.13838,0.13229 -0.13838,-1.32292 z m 31.81198,4.14514 c -0.1021,-0.43656 -0.90653,-4.36563 -1.78764,-8.73125 -3.19906,-15.85049 -7.60988,-32.64137 -8.91832,-33.94981 -0.40423,-0.40423 -8.72201,1.74107 -12.22879,3.15402 l -2.46945,0.99499 -0.1885,2.1122 c -0.11419,1.2795 -0.53142,2.73807 -1.05833,3.69971 l -0.86983,1.5875 -0.10193,-3.0868 c -0.0561,-1.69775 -0.16214,-3.08681 -0.23573,-3.08681 -0.0736,0 -0.38471,0.0963 -0.69137,0.21396 -0.48668,0.18676 -0.5294,0.84825 -0.33603,5.20347 0.19778,4.45459 -0.47154,16.89277 -1.1275,20.95271 -0.18271,1.13079 -0.16618,1.14653 1.20411,1.14653 0.94147,0 1.45838,-0.17989 1.60348,-0.55802 0.11777,-0.30691 0.23038,-4.31535 0.25024,-8.90764 0.0438,-10.12975 0.60548,-9.51407 0.91135,0.99899 0.13083,4.49657 0.33742,6.96778 0.59648,7.13501 0.21799,0.14071 1.42822,0.18146 2.6894,0.0906 1.26118,-0.0909 4.6761,-0.33492 7.58872,-0.54225 2.91262,-0.20733 5.74416,-0.4262 6.29231,-0.48637 1.26833,-0.13923 1.9273,0.75008 5.68728,7.67513 2.64877,4.87847 3.61677,6.20881 3.19005,4.38417 z m -24.52225,-33.95486 c 0,-0.097 0.0794,-0.17639 0.17639,-0.17639 0.097,0 0.17638,0.0794 0.17638,0.17639 0,0.097 -0.0794,0.17639 -0.17638,0.17639 -0.097,0 -0.17639,-0.0794 -0.17639,-0.17639 z m 0.0279,-1.08773 c 0.0169,-0.41097 0.10052,-0.49456 0.21313,-0.21314 0.10191,0.25466 0.0894,0.55893 -0.0279,0.67616 -0.11722,0.11722 -0.2006,-0.0911 -0.18528,-0.46302 z m -42.52684,29.92731 c 0.14325,-2.86191 0.11237,-9.2516 -0.0686,-14.1993 -0.3242,-8.86218 -0.3435,-9.02204 -1.29904,-10.75973 -0.53348,-0.97013 -1.58549,-2.47826 -2.3378,-3.35138 l -1.36783,-1.5875 -0.41659,1.05833 c -0.52122,1.32418 -0.25588,9.22997 0.50321,14.99305 0.2939,2.23132 0.59948,5.22496 0.67907,6.65254 0.0796,1.42757 0.31495,2.7008 0.52302,2.8294 0.74788,0.46221 1.19981,2.39839 1.3893,5.95209 l 0.19282,3.61597 h 0.971 0.97099 z m -3.00934,-18.25625 c 0,-0.097 0.0794,-0.17639 0.17639,-0.17639 0.097,0 0.17639,0.0794 0.17639,0.17639 0,0.097 -0.0794,0.17639 -0.17639,0.17639 -0.097,0 -0.17639,-0.0794 -0.17639,-0.17639 z m 0,-1.23472 c 0,-0.19403 0.16812,-0.35278 0.3736,-0.35278 0.20547,0 0.27548,0.15875 0.15556,0.35278 -0.11991,0.19403 -0.28803,0.35278 -0.37359,0.35278 -0.0856,0 -0.15557,-0.15875 -0.15557,-0.35278 z m 35.28512,22.31319 c 0.01,-3.12729 0.78752,-6.79187 1.52985,-7.2073 0.43188,-0.24169 0.57931,-0.83647 0.57883,-2.33523 -3.5e-4,-1.10601 0.33434,-5.02719 0.74376,-8.71372 0.76958,-6.92942 0.75744,-12.92804 -0.0277,-13.71323 -0.48245,-0.48244 -2.30946,1.54887 -3.75929,4.17966 -0.87202,1.58232 -0.99345,2.24289 -1.2322,6.70278 -0.33428,6.24427 -0.38798,22.91995 -0.0748,23.23311 0.12936,0.12935 0.68498,0.23518 1.23473,0.23518 0.99808,0 0.99954,-0.003 1.00688,-2.38125 z m -27.67695,-27.12181 c 0.27898,-1.84428 -0.3673,-5.03488 -1.52699,-7.5386 -1.20796,-2.60792 -5.74391,-7.07999 -9.60896,-9.47363 -1.64924,-1.02138 -4.66549,-2.65817 -6.70278,-3.63731 -5.62634,-2.70406 -7.83007,-3.55368 -29.986109,-11.56071 -7.55047,-2.72869 -10.63344,-4.10245 -14.61412,-6.512 -1.14979,-0.69597 -2.15368,-1.20225 -2.23088,-1.12505 -0.0772,0.0772 0.12118,0.64611 0.44084,1.26426 0.92469,1.78815 0.36109,1.62402 -1.19852,-0.34904 -3.38015,-4.27621 -5.35089,-11.9189 -5.99835,-23.26211 -0.93914,-16.4535 2.89577,-36.06669 9.37788,-47.96199 3.73951,-6.86235 9.35658,-14.11061 14.26911,-18.41284 9.975109,-8.73585 24.016639,-16.477 38.583209,-21.27108 9.91591,-3.26348 19.4891,-4.17769 28.22222,-2.69515 8.60543,1.46086 17.81714,4.62083 27.11548,9.30164 22.37971,11.26602 35.05053,24.66646 41.3038,43.6822 4.9902,15.17485 6.36024,34.21486 3.50608,48.72559 -1.03197,5.24664 -3.39788,10.86915 -5.32431,12.65307 l -0.8903,0.82443 0.24593,-1.14818 0.24593,-1.14817 -5.05548,2.55938 c -2.78051,1.40766 -7.03985,3.26018 -9.46519,4.11671 -29.18303,10.3062 -40.33989,15.48474 -45.59883,21.16502 -3.10184,3.35036 -4.78006,7.757 -4.39074,11.52913 0.28732,2.78385 0.62354,2.97313 1.31448,0.74 1.63881,-5.29663 6.7339,-10.64298 13.29582,-13.95148 5.88017,-2.96476 9.63724,-4.01638 26.00583,-7.27915 17.21688,-3.43185 21.40706,-4.61434 26.95854,-7.60786 12.96188,-6.98943 17.46388,-16.05571 17.9455,-36.13929 0.60236,-25.11789 -5.0688,-50.49427 -16.47743,-73.73055 -10.28858,-20.95503 -23.80815,-34.96472 -43.3747,-44.94714 -13.62689,-6.95214 -26.22616,-10.23239 -37.70409,-9.81636 -20.52455,0.74393 -46.34854,13.35689 -60.723249,29.65847 -4.07835,4.62503 -8.46803,10.42598 -11.12232,14.69809 -4.99448,8.03869 -11.0365,21.49887 -14.62463,32.58021 -5.3644,16.56706 -8.16044,35.62655 -7.66699,52.26284 0.37457,12.62812 2.20898,19.69053 6.79375,26.15577 3.30779,4.66448 9.81174,9.15129 17.43018,12.02436 2.9985,1.13079 11.23866,3.04324 19.432409,4.51005 13.02705,2.33203 21.18744,4.58535 26.78147,7.39512 6.95151,3.49161 12.04095,8.70377 13.60842,13.93656 0.68708,2.29376 1.03665,2.24033 1.40809,-0.21521 z m 56.04926,-14.14282 c 0.15918,-0.41481 0.0247,-0.48785 -0.59317,-0.32228 -0.43944,0.11775 -1.00813,0.21625 -1.26373,0.2189 -0.50826,0.005 -0.37045,0.70022 0.56062,2.82704 l 0.54053,1.23473 0.27496,-1.71101 c 0.15123,-0.94105 0.36759,-1.95237 0.48079,-2.24738 z m -89.25015,-0.12499 c -0.11093,-0.17949 -0.59893,-0.32635 -1.08444,-0.32635 -0.85201,0 -0.87428,0.0583 -0.63978,1.6757 0.35063,2.41838 0.53694,2.51305 1.27048,0.64561 0.36049,-0.91773 0.56467,-1.81546 0.45374,-1.99496 z m 51.34549,-2.02917 c 3.22409,-1.04584 6.14376,-2.85326 6.29149,-3.89474 0.0648,-0.45706 -0.0145,-0.77365 -0.17639,-0.70353 -0.16184,0.0701 -1.344,0.64111 -2.62702,1.26889 -3.79322,1.856 -6.27023,2.37666 -11.24919,2.36454 -5.01876,-0.0122 -7.54141,-0.54491 -11.55347,-2.43967 -1.80198,-0.85102 -2.55764,-1.06595 -2.55764,-0.72747 0,1.2918 4.33558,3.70879 8.26488,4.60748 3.22962,0.73867 10.66539,0.47883 13.60734,-0.4755 z m -0.12325,-4.07448 c 0.99936,-0.31856 2.18998,-0.88996 2.64583,-1.26977 0.82678,-0.68887 0.80412,-0.6906 -9.22535,-0.70618 -5.5298,-0.009 -10.68917,-0.10443 -11.46528,-0.21297 -1.33464,-0.18665 -1.37342,-0.1669 -0.71568,0.36445 0.38249,0.30898 0.89843,0.48389 1.14653,0.38869 0.2481,-0.0952 0.45109,0.007 0.45109,0.2274 0,0.22027 0.0983,0.30223 0.21839,0.18211 0.12011,-0.12011 0.47021,0.0334 0.778,0.34123 0.41501,0.41501 0.59751,0.44593 0.70626,0.11967 0.11642,-0.34925 0.20234,-0.34984 0.41679,-0.003 0.88833,1.43735 11.10613,1.8233 15.04342,0.56822 z m -29.28329,-3.1433 c -0.28123,-1.12051 -2.84348,-3.99357 -4.48656,-5.03081 -1.65547,-1.04505 -5.00434,-1.64086 -8.44023,-1.50163 l -2.64583,0.10721 3.70417,1.36914 c 4.46291,1.64958 7.12049,2.95405 9.78611,4.8035 1.09922,0.76266 2.06484,1.32039 2.14582,1.23941 0.081,-0.081 0.0524,-0.52506 -0.0635,-0.98682 z m 47.39821,-1.44804 c 1.26118,-0.77418 4.3568,-2.25678 6.87916,-3.29467 l 4.58612,-1.88707 -4.05695,0.14126 c -5.90246,0.20551 -8.21482,1.3939 -11.04913,5.67847 -1.08195,1.63557 -0.89935,2.25366 0.41027,1.38874 0.51561,-0.34053 1.96935,-1.25256 3.23053,-2.02673 z m -7.26624,0.78816 c -0.1116,-0.18058 0.0566,-0.72436 0.37374,-1.20841 0.56142,-0.85682 0.55756,-0.86816 -0.14598,-0.42879 -0.8135,0.50804 -0.79228,0.46512 -0.87248,1.76429 -0.0457,0.73993 0.0427,0.86928 0.39439,0.57739 0.24928,-0.20689 0.36193,-0.52391 0.25033,-0.70448 z m -36.24302,-0.53248 c -0.12935,-0.12935 -0.23518,-0.0235 -0.23518,0.23519 0,0.2587 0.10583,0.36453 0.23518,0.23518 0.12935,-0.12935 0.12935,-0.34102 0,-0.47037 z m -0.46039,-0.99954 c -0.11168,-0.29104 -0.33984,-0.52916 -0.50702,-0.52916 -0.16718,0 -0.21259,0.23812 -0.1009,0.52916 0.11168,0.29105 0.33984,0.52917 0.50702,0.52917 0.16718,0 0.21259,-0.23812 0.1009,-0.52917 z m -0.48035,-1.05833 c 0,-0.097 -0.0794,-0.17639 -0.17639,-0.17639 -0.097,0 -0.17639,0.0794 -0.17639,0.17639 0,0.097 0.0794,0.17639 0.17639,0.17639 0.097,0 0.17639,-0.0794 0.17639,-0.17639 z m 40.09907,-1.46991 c -0.12935,-0.12935 -0.23518,-0.0235 -0.23518,0.23519 0,0.2587 0.10583,0.36454 0.23518,0.23518 0.12935,-0.12935 0.12935,-0.34101 0,-0.47037 z m -54.21018,-3.44397 c 0,-0.0832 -0.91281,-0.33083 -2.02847,-0.55017 -6.27861,-1.23436 -20.279109,-5.86442 -25.311799,-8.37078 -2.83019,-1.40947 -6.70394,-4.55494 -8.06352,-6.54752 -3.01922,-4.42495 -5.47734,-15.80682 -6.60734,-30.59403 -0.21499,-2.81341 -0.45481,-5.18143 -0.53294,-5.26227 -0.38499,-0.39842 -0.0752,13.05497 0.38647,16.78423 1.47069,11.87933 4.21894,19.81575 8.05671,23.26624 4.20219,3.77813 18.941539,9.35084 28.797509,10.88788 3.13117,0.48831 5.30338,0.64658 5.30338,0.38642 z m 70.31159,-0.23016 c 6.92984,-1.04219 17.61697,-4.58485 24.95477,-8.27223 5.15659,-2.59129 7.80874,-5.7161 9.74152,-11.47767 2.06594,-6.15853 3.67557,-17.10298 3.60253,-24.49494 -0.0592,-5.99608 -0.47833,-6.72654 -0.76599,-1.33512 -0.59949,11.23595 -2.75187,22.55016 -5.37049,28.23062 -1.56031,3.38469 -3.85803,5.56354 -8.23919,7.81293 -6.10371,3.13378 -15.01989,6.36416 -23.50259,8.5151 -5.27598,1.33782 -5.45758,1.77883 -0.42056,1.02131 z m -16.86581,-1.51414 c 20.59147,-2.74336 38.99918,-8.19815 44.2547,-13.11407 2.1002,-1.9645 3.2022,-4.00661 4.56006,-8.45022 2.04942,-6.70676 3.19319,-14.44274 3.94936,-26.71186 0.476,-7.72328 0.16615,-10.63177 -1.76498,-16.5676 -2.16927,-6.66781 -5.5775,-13.15458 -9.51196,-18.10387 -1.96209,-2.46816 -7.49867,-7.89589 -10.32556,-10.12255 -7.22503,-5.69094 -16.56772,-11.03801 -22.88782,-13.09929 -5.7293,-1.86859 -12.81599,-2.68885 -25.46356,-2.94733 -16.34609,-0.33407 -27.85314,0.9949 -35.75085,4.12891 -9.65454,3.83116 -21.057049,11.87566 -27.521129,19.41621 -5.36646,6.26015 -9.23552,13.05014 -11.5462,20.26294 -2.14223,6.68702 -2.19578,7.21693 -1.71895,17.01179 0.96118,19.74439 3.6748,30.97549 8.59651,35.57917 5.72742,5.35734 28.844709,11.45832 51.263719,13.52925 1.94027,0.17923 8.8459,0.27089 15.34583,0.2037 10.17948,-0.10524 12.74739,-0.24599 18.52083,-1.01518 z m -24.69444,-13.39484 c -2.23477,-0.73823 -3.41979,-1.47505 -5.00831,-3.11407 -3.5631,-3.67637 -3.90657,-8.40677 -0.61042,-8.40677 1.07582,0 1.28658,0.15675 1.77877,1.32292 2.11138,5.00254 3.41946,6.1455 7.29806,6.3768 4.16462,0.24835 7.07789,-1.54612 8.05212,-4.95984 0.58596,-2.05318 1.24841,-2.73988 2.64315,-2.73988 2.10418,0 2.56636,2.75361 0.99235,5.91224 -1.09376,2.19489 -2.80804,3.76492 -5.42824,4.97145 -2.3489,1.0816 -7.37451,1.41112 -9.71748,0.63715 z m -38.54077,-9.06703 c -10.661739,-1.90727 -19.084819,-12.69181 -18.324739,-23.4622 0.26737,-3.78869 1.05232,-6.77756 2.6357,-10.03605 0.99681,-2.05136 2.00213,-3.36127 4.47441,-5.83004 4.887099,-4.88017 9.461179,-6.86314 15.946179,-6.91303 5.81856,-0.0448 9.91979,1.72246 14.41558,6.21168 4.77814,4.77117 6.98159,10.18006 6.97211,17.11472 -0.008,6.05678 -1.64503,10.639 -5.39903,15.115 -4.92797,5.87575 -13.48006,9.09511 -20.72021,7.79992 z m 12.21904,-4.46179 c 1.71733,-0.85918 1.99454,-1.14012 2.08913,-2.1173 0.0917,-0.94777 -0.0595,-1.21386 -0.95262,-1.6757 -2.00888,-1.03883 -5.40376,-0.49683 -6.81303,1.08772 -0.65805,0.73989 -0.93866,2.87607 -0.47612,3.62448 0.45639,0.73846 3.85386,0.23089 6.15264,-0.9192 z m -7.08705,-0.65697 c 0.1437,-1.95552 -0.85272,-3.16028 -3.18713,-3.85352 -2.64178,-0.78453 -4.02463,-0.69445 -5.0479,0.32883 -1.05241,1.05241 -1.08166,1.58688 -0.15156,2.7693 1.02564,1.3039 3.97907,2.35808 6.3412,2.2634 l 1.94028,-0.0778 z m 13.12406,-4.74338 c 1.60706,-1.60706 0.32338,-4.58611 -1.97617,-4.58611 -1.30415,0 -2.60994,1.32375 -2.60994,2.64583 0,0.43274 0.32902,1.20508 0.73116,1.71632 0.91616,1.1647 2.8045,1.27441 3.85495,0.22396 z m -25.03855,-1.59795 c 1.03946,-1.25247 -1.15565,-3.20189 -2.30793,-2.04961 -0.67348,0.67347 -0.66319,1.34027 0.0314,2.03486 0.70368,0.70368 1.69942,0.71013 2.27653,0.0147 z m 5.37119,-16.03425 c 1.65955,-1.8409 1.10009,-4.79707 -1.16058,-6.13248 -3.67529,-2.17105 -7.43443,2.87578 -4.49784,6.03857 1.70904,1.84068 4.04871,1.87951 5.65842,0.0939 z m 12.02224,-5.074 c 1.47506,-0.61632 2.94416,-2.3646 3.38876,-4.03275 0.95561,-3.58544 -1.937,-7.12771 -5.82045,-7.12771 -3.11036,0 -5.43834,2.02349 -5.72179,4.97341 -0.20986,2.18402 0.0577,3.17924 1.22892,4.57116 1.67216,1.98724 4.47205,2.64062 6.92456,1.61589 z m 67.6069,32.5822 c -4.92645,-0.7733 -9.1466,-3.11516 -12.8797,-7.14725 -4.36954,-4.7195 -6.16426,-9.36365 -6.15465,-15.92615 0.008,-5.42276 1.2348,-9.4206 4.23239,-13.7917 1.35971,-1.98273 4.60089,-5.05777 6.77774,-6.43031 9.82437,-6.19444 22.90715,-2.68201 30.04341,8.06598 2.74387,4.13257 4.22913,11.04767 3.42225,15.93347 -1.45139,8.78851 -7.92931,16.29456 -16.14566,18.70816 -2.36543,0.69486 -6.81945,0.9765 -9.29578,0.5878 z m 1.35364,-4.65557 c 0.0893,-1.0746 -0.10357,-1.53735 -1.08841,-2.61199 -1.03926,-1.13404 -1.44981,-1.327 -3.1175,-1.4653 -1.27606,-0.10582 -2.36921,0.0282 -3.25732,0.39923 -1.13475,0.47413 -1.31972,0.701 -1.22431,1.50165 0.0618,0.51873 0.53278,1.25558 1.04658,1.63744 1.4001,1.04055 4.52618,2.02617 6.12137,1.93 1.35468,-0.0817 1.41545,-0.1373 1.51959,-1.39103 z m 5.4958,0.63014 c 3.67671,-1.10652 5.29574,-3.63782 3.20358,-5.00865 -1.1257,-0.73759 -4.19773,-0.49111 -6.09572,0.48908 -1.4421,0.74475 -2.34631,2.65791 -1.9682,4.16441 0.1847,0.73588 0.4219,0.85459 1.70768,0.85459 0.82125,0 2.23995,-0.22474 3.15266,-0.49943 z m -14.30765,-5.76238 c 1.85714,-1.58489 0.63152,-4.6743 -1.85436,-4.6743 -1.39152,0 -2.67144,1.29813 -2.67144,2.70944 0,2.0379 2.94303,3.31561 4.5258,1.96486 z m 23.34364,-1.4993 c 0,-0.19403 0.19844,-0.31309 0.44098,-0.26458 0.24584,0.0492 0.48935,-0.33059 0.55031,-0.85822 0.13812,-1.1956 -0.97065,-1.92409 -2.04962,-1.34665 -0.79712,0.42661 -0.98825,2.29658 -0.26458,2.58859 0.74854,0.30204 1.32291,0.25031 1.32291,-0.11914 z m -1.05833,-1.23472 c 0,-0.097 0.0794,-0.17639 0.17639,-0.17639 0.097,0 0.17639,0.0794 0.17639,0.17639 0,0.097 -0.0794,0.17639 -0.17639,0.17639 -0.097,0 -0.17639,-0.0794 -0.17639,-0.17639 z m -19.66736,-15.02728 c 0.35947,-0.4364 0.61736,-1.3372 0.61736,-2.15638 0,-1.12929 -0.22383,-1.61597 -1.13444,-2.4666 -0.98241,-0.91771 -1.32509,-1.03415 -2.55708,-0.86891 -3.56931,0.47875 -4.12652,4.99902 -0.78921,6.40225 1.31518,0.55299 2.98142,0.16036 3.86337,-0.91036 z m 6.64221,-5.35403 c 1.89339,-1.27595 2.7946,-2.8944 2.7946,-5.01869 0,-5.46048 -6.80354,-7.92223 -10.32583,-3.73624 -2.53266,3.00991 -1.88206,6.73597 1.5405,8.8225 1.68352,1.02634 4.41317,0.99555 5.99073,-0.0676 z m -17.67218,-54.91881 c -0.89287,-0.5232 -7.65805,-1.69262 -12.45491,-2.15294 -7.56615,-0.72607 -18.95472,0.027 -24.4047,1.61383 -1.31596,0.38315 -1.44339,0.46858 -0.50181,0.33641 8.20857,-1.15221 28.76797,-1.05823 34.95824,0.1598 0.8398,0.16524 1.8444,0.31301 2.23246,0.32837 0.57359,0.0227 0.60552,-0.0307 0.17072,-0.28547 z"
       id="path280" /></g></svg>
