<?xml version="1.0" encoding="UTF-8" standalone="no"?>
<!-- Created with Inkscape (http://www.inkscape.org/) -->

<svg
   width="279.51584mm"
   height="275.45038mm"
   viewBox="0 0 279.51584 275.45035"
   version="1.1"
   id="svg1"
   xml:space="preserve"
   xmlns="http://www.w3.org/2000/svg"
   xmlns:svg="http://www.w3.org/2000/svg"><defs
     id="defs1"><clipPath
       clipPathUnits="userSpaceOnUse"
       id="clipPath6"><path
         id="path7"
         style="fill:#ff0000;fill-opacity:1;fill-rule:nonzero;stroke:none;stroke-width:0.264583"
         d="M -175.07778,-16.057127 V 287.55793 H 124.54631 V -16.057127 Z m 132.7459,202.572647 c 0.210643,0.005 0.427212,0.0169 0.650089,0.0367 2.23823,0.19855 4.475655,0.4031 6.717938,0.55346 1.973313,0.11308 0.986628,0.0436 2.958475,0.20825 3.181295,0.26563 4.740125,1.85116 4.950601,3.46956 4.949923,1.63749 3.796379,7.35609 -2.592089,6.81354 -3.228716,-0.27422 -1.569593,-0.1301 -4.979024,-0.43357 -4.228209,-0.39317 -8.460616,-0.76265 -12.666927,-1.35341 -6.647387,-0.93358 -5.930551,-7.21034 0.03204,-7.20421 0.04685,5e-5 0.0972,0.004 0.144695,0.005 0.687229,-1.21692 2.304132,-2.15435 4.784204,-2.09548 z" /></clipPath><clipPath
       clipPathUnits="userSpaceOnUse"
       id="clipPath76"><path
         id="path77"
         style="fill:#ff0000;fill-opacity:1;fill-rule:nonzero;stroke:none;stroke-width:0.264583"
         d="M -133.83107,-122.52355 V 173.82063 H 122.97289 V -122.52355 Z M 13.574404,98.948202 c 2.788179,0.0507 4.135003,2.063798 3.398242,4.077268 0.199805,0.45372 0.374906,0.96736 0.517797,1.54461 1.07913,4.35948 0.671079,8.891 0.311608,13.31495 -0.351859,3.06036 -0.147137,1.57974 -0.604097,4.44366 -0.359666,2.25418 -1.333846,3.66838 -2.455664,4.32532 0.105138,0.36595 0.224724,0.72888 0.324528,1.09554 0.6273,2.23652 0.575201,4.47401 0.39429,6.75514 -0.137303,1.73129 -0.688065,2.99533 -1.427303,3.82199 -0.112477,0.41601 -0.170275,0.80219 -0.311092,1.25212 -0.184975,0.59102 -0.413327,1.1061 -0.670242,1.55856 0.741137,-0.23134 1.446982,-0.38145 2.064991,-0.37517 4.085002,0.0415 5.222724,4.75435 -0.02223,7.27138 -4.46677,2.14368 -9.303523,3.34693 -14.11903492,4.40955 -4.40876268,0.85156 -8.89238128,1.33053 -13.38264308,1.19269 -5.804014,-0.17807 -6.736297,-5.00293 -3.065447,-6.67298 -2.072987,-0.65744 -4.042852,-1.62261 -4.128947,-3.14709 -0.02802,-0.49633 0.0026,-0.90355 0.0341,-1.30897 -1.976731,-0.003 -3.95339,2.4e-4 -5.930386,0.003 -0.814031,0 -1.53062,-0.0962 -2.159559,-0.26149 -0.376306,0.19492 -0.742394,0.40783 -1.120862,0.59893 -6.391272,3.22657 -9.625245,-3.24074 -3.234428,-6.46886 1.833438,-0.92611 3.62694,-1.92211 5.414142,-2.92954 -0.877003,-3.87058 -1.368747,-7.83436 -1.323951,-11.80858 0.01651,-1.46304 0.376836,-2.54918 0.864547,-3.41426 -1.247357,-1.79999 -0.223805,-4.63069 3.842661,-5.68855 3.11826,-0.81116 6.282901,-1.39515 9.473837,-1.82211 -1.259816,-0.12657 -2.516182,-0.30233 -3.764627,-0.50177 -1.477002,-0.21985 -2.935575,-0.54305 -4.407482,-0.7891 -1.14214,-0.22954 -0.588502,-0.12004 -1.660882,-0.3297 -3.350244,-0.65501 -4.783278,-2.61088 -4.608504,-4.32997 -0.200179,-1.7721 1.333365,-3.52972 4.663799,-3.59461 v -5.3e-4 c 0.20954,-0.004 0.426035,-0.002 0.649571,0.008 1.77111,0.0772 3.528708,0.28204 5.26428,0.64027 1.655035,0.33225 3.314115,0.6481 4.955251,1.04439 1.244759,0.34858 2.51628,0.54538 3.7997689,0.6723 0.025956,0.002 0.052073,0.002 0.078034,0.004 0.4990888,-0.0371 0.9984105,-0.0743 1.4965495,-0.11317 1.346872,-0.12588 2.6913231,-0.25136 4.0457464,-0.24236 1.1278499,-0.0444 2.2567291,-0.10772 3.37498791,-0.26872 0.75719517,-0.11591 1.51142439,-0.25483 2.25722659,-0.4284 0.3616431,-0.12394 0.7240561,-0.24538 1.083138,-0.37775 0.3360393,-0.12388 0.6107589,-0.12825 0.9250071,-0.20723 0.1281086,-0.045 0.2583895,-0.0825 0.3855085,-0.13074 1.9825018,-0.7681 3.9540551,-1.56464 5.9510551,-2.29443 1.050809,-0.383992 1.999634,-0.542639 2.826703,-0.527616 z M 0.70283723,110.39557 c -0.45566013,0.0949 -0.90775367,0.208 -1.36890919,0.2744 -1.16638124,0.15534 -2.34111274,0.24237 -3.51761424,0.26251 0.4031694,0.0896 0.8047355,0.18876 1.2025101,0.308 0.1014836,0.0304 0.1982549,0.075 0.2986907,0.10852 0.4205235,-0.21824 0.9206601,-0.35072 1.4898318,-0.37156 0.39885139,-0.0146 0.83259872,0.0278 1.29449508,0.13023 0.22468681,-0.12213 0.44967525,-0.24374 0.67437529,-0.36587 -0.0326284,-0.11319 -0.058211,-0.22834 -0.0733795,-0.34623 z m 10.24433577,1.02474 c -0.76023,0.21437 -1.5189569,0.4343 -2.2696301,0.68006 -0.031261,0.62207 -0.2256075,1.28373 -0.6464723,1.94355 0.6236891,0.43248 1.2549743,1.04482 1.8634525,1.86862 0.2674939,0.36214 0.4748849,0.75712 0.7188199,1.13223 0.154519,-1.86707 0.314174,-3.74736 0.33383,-5.62446 z m 64.566086,3.39773 c 1.50346,0.0187 3.129182,1.24994 3.928441,4.04678 0.257931,0.90255 0.823497,1.65871 1.488797,2.30735 0.856321,0.95375 1.845738,1.76777 2.801898,2.61638 1.458581,1.46408 2.789203,3.04608 4.169772,4.58215 1.315059,1.44746 2.571226,2.91698 3.543967,4.61884 0.0053,0.01 0.0082,0.0206 0.01344,0.0305 0.734605,-0.43313 1.446276,-0.65634 2.094962,-0.69195 3.016182,-0.16561 4.69137,3.55377 1.187525,7.32306 -1.69471,1.82311 -3.657862,3.33908 -5.68751,4.7651 -0.777873,0.49914 -1.607691,0.90075 -2.418456,1.33842 0.165478,1.44344 -0.672182,3.24303 -2.956409,4.73096 -1.354556,0.88234 -2.690448,1.79306 -4.075203,2.6288 -2.075008,1.20078 -4.233777,2.27962 -6.540687,2.96259 -2.077586,0.62971 -4.169056,1.29987 -6.359301,1.36374 -1.872114,0.0897 -3.746989,0.0368 -5.620845,0.0501 h -5.1108 -5.524728 c -7.160125,0 -7.160125,-7.23315 0,-7.23315 h 1.347722 c 0.29438,-0.0541 0.5212,-0.1588 0.84801,-0.18656 1.106628,-0.094 2.200932,-0.28334 3.292822,-0.48421 0.456121,-0.98163 1.356053,-1.98213 2.807581,-2.83962 1.078018,-0.63685 2.158119,-1.26923 3.212209,-1.94561 1.962647,-1.29302 3.840588,-2.72135 5.893696,-3.86902 1.367169,-0.76424 2.559646,-1.07097 3.526915,-1.04128 2.216811,0.068 3.246223,1.90266 2.479953,4.04059 1.105688,-0.48686 2.206929,-0.98346 3.283003,-1.53739 2.619811,-1.23728 5.288743,-2.38548 7.764385,-3.9026 0.246153,-0.17184 0.487463,-0.34958 0.730705,-0.52503 -0.126915,-0.50614 -0.277693,-0.9939 -0.512114,-1.46554 -0.647621,-1.25778 -1.721077,-2.20654 -2.600875,-3.29644 -1.199229,-1.33472 -2.369312,-2.69496 -3.592029,-4.00803 -1.098706,-0.97599 -2.227236,-1.92181 -3.215306,-3.01428 -1.300821,-1.39063 -2.459913,-2.93896 -3.045293,-4.77801 -1.289469,-4.05101 0.646382,-6.61405 2.843754,-6.58667 z m -95.086705,4.28035 c -0.465643,0.10748 -0.930899,0.21773 -1.394745,0.33435 0.171958,0.64334 0.283575,1.36624 0.279569,2.2071 -0.01267,2.6582 0.205063,5.32647 0.670242,7.94732 0.280107,-0.17087 0.565767,-0.33222 0.845429,-0.50385 -0.01897,-0.36223 -0.02445,-0.73164 -0.05529,-1.08985 -0.118034,-2.96491 -0.160888,-5.93314 -0.3452,-8.89507 z m 18.5141159,1.1958 c 0.00497,0.0773 0.00619,0.15612 0.014975,0.23202 -0.1238779,0.22787 -0.2588048,0.44752 -0.3937741,0.66715 0.58900751,0.0447 1.13203305,0.21413 1.64331124,0.45888 -0.37615284,-0.49255 -0.78353709,-0.94642 -1.26452314,-1.35805 z m -6.5422357,14.57068 c -0.046649,0.0755 -0.09888,0.14702 -0.1436608,0.22376 -0.03147,0.054 0.1963367,0.0838 0.1860365,0.0222 -0.017595,-0.10481 -0.026035,-0.14905 -0.042376,-0.24597 z m 13.9236979,6.08439 c -0.2236258,0.5643 -0.5677508,1.09664 -1.1782213,1.50533 0.9079653,0.17659 1.7077452,0.44257 2.2830631,0.84852 0.1405493,-0.0459 0.272804,-0.11448 0.4128956,-0.16174 -0.7336976,-0.43656 -1.2984269,-1.18703 -1.5177374,-2.19211 z" /></clipPath><clipPath
       clipPathUnits="userSpaceOnUse"
       id="clipPath127"><path
         id="path128"
         style="fill:#ff0000;fill-opacity:1;fill-rule:nonzero;stroke:none;stroke-width:0.264583"
         d="M -112.24796,-126.55676 V 185.58027 H 148.5754 V -126.55676 Z M 46.874626,83.305366 c 1.808208,0 3.616317,1.790192 3.616317,5.370214 v 5.232238 c 0.0627,2.146078 -0.111291,4.285324 -0.245462,6.424932 -0.136289,2.02485 -0.190703,4.04985 -0.104904,6.07715 0.192061,1.91863 0.527714,3.82569 0.876432,5.72213 0.304242,2.00862 0.765826,3.9858 1.180806,5.97276 0.41642,1.86142 0.967934,3.68703 1.421104,5.53972 0.25287,0.86996 0.117097,0.46495 0.396356,1.22008 0.186108,0.50319 0.223428,0.93098 0.309544,1.38441 4.425355,2.23251 2.751262,7.58433 -3.415813,6.40477 -3.104732,-0.59371 -6.256094,-0.76586 -9.40821,-0.85576 -3.81635,0.009 -7.630525,0.17062 -11.44478,0.28216 -1.12776,0.0333 -2.255837,0.0512 -3.383772,0.0754 -0.908129,0.5548 -1.966518,0.57724 -2.88613,0.0641 -0.03584,5.3e-4 -0.07165,0.002 -0.107487,0.003 -0.03142,5.3e-4 -0.0525,-0.009 -0.08268,-0.009 -0.32049,0.14732 -0.641715,0.29301 -0.962215,0.44028 -0.262501,0.12062 -0.518089,0.22111 -0.770496,0.31265 -0.876996,0.71434 -1.945576,0.85817 -2.911967,0.46405 -2.943479,-0.21613 -4.295167,-2.77187 -2.550232,-5.0524 -2.22e-4,-0.028 -0.0078,-0.0483 -0.0078,-0.0765 v -6.3469 c -0.014,-2.72977 -0.02254,-5.45666 0.112657,-8.18348 0.135676,-2.32533 0.233519,-4.6523 0.299723,-6.98046 0.046,-1.80459 0.06926,-3.60958 0.08527,-5.41465 -0.0258,-1.02998 0.04009,-2.054459 0.138491,-3.078883 0.0044,-0.04602 0.02191,-0.07504 0.02687,-0.120406 C 15.992671,97.193438 15.83363,95.70984 16.656834,94.418959 10.68718,93.678613 10.992573,87.32947 17.739972,87.32947 h 3.885033 5.177462 5.913334 c 1.498505,0.05847 2.984222,-0.03228 4.475178,-0.161748 1.252041,-0.18606 2.49041,-0.398671 3.697968,-0.782897 1.001961,-0.32245 0.492366,-0.161472 1.527553,-0.482142 0.510384,-0.158096 0.938446,-0.174371 1.394749,-0.23771 0.672338,-1.56932 1.86623,-2.35903 3.063377,-2.35903 z" /></clipPath><clipPath
       clipPathUnits="userSpaceOnUse"
       id="clipPath139"><path
         id="path140"
         style="fill:#ff0000;fill-opacity:1;fill-rule:nonzero;stroke:none;stroke-width:0.264583"
         d="M 97.168006,-339.91235 V -44.578961 H 346.46958 V -339.91235 Z m 14.326254,94.53944 c 1.76488,0.006 3.77708,1.78446 4.35839,5.31699 0.32911,1.99994 0.60308,4.00817 0.88884,6.01462 1.02527,-1.2445 2.22305,-1.83589 3.28403,-1.8402 2.05627,-0.008 3.59454,2.17302 2.34611,6.00222 -0.0197,0.0606 -0.0413,0.12046 -0.0615,0.18087 0.31698,0.91799 0.41757,2.09982 0.17777,3.54139 -0.2164,1.30085 -0.62011,2.56457 -1.0263,3.8163 -1.34183,4.13496 -4.42238,4.92072 -6.12882,3.38016 -1.93867,0.62007 -4.30523,-0.86149 -4.65605,-4.82762 -0.16862,-1.90632 -0.33891,-3.81275 -0.57464,-5.71231 -0.45291,-3.52522 -1.07719,-7.02592 -1.48208,-10.55543 -0.40801,-3.55672 1.10935,-5.32303 2.87424,-5.31699 z" /></clipPath><clipPath
       clipPathUnits="userSpaceOnUse"
       id="clipPath170"><path
         id="path171"
         style="fill:#ff0000;fill-opacity:1;fill-rule:nonzero;stroke:none;stroke-width:0.264583"
         d="M 88.756261,-299.52331 V 17.880567 H 410.91541 V -299.52331 Z M 363.24287,-220.863 c 0.90345,-0.008 1.97628,0.23856 3.18532,0.82218 3.39402,1.63831 6.49674,3.81197 9.57823,5.96449 3.22509,2.31448 6.37511,4.73585 9.43663,7.26261 1.87296,1.50796 3.75989,2.99047 5.54284,4.6054 1.76167,1.54167 3.42262,3.17283 4.95419,4.94388 1.19316,1.48882 2.47049,2.9032 3.73311,4.33204 1.08043,1.20022 2.09423,2.45631 2.94299,3.83026 0.82616,1.73429 1.48968,3.55524 1.93786,5.42344 1.67031,6.96258 -5.76469,8.62686 -7.05745,1.5844 -0.21127,-1.15093 -0.75649,-2.20765 -1.10278,-3.32021 -0.52141,-1.02678 -1.43909,-1.82952 -2.14042,-2.72904 -1.28368,-1.45272 -2.58234,-2.89095 -3.79617,-4.40386 -1.32794,-1.55409 -2.79577,-2.95456 -4.33049,-4.3031 -1.69875,-1.54267 -3.51006,-2.94207 -5.29113,-4.38733 -2.90883,-2.40671 -5.90918,-4.70386 -8.97258,-6.91017 -2.63017,-1.83963 -5.2759,-3.68008 -8.12096,-5.17746 -5.14813,-2.7095 -4.41412,-7.50431 -0.49919,-7.53753 z m -17.79788,14.64304 c 0.81097,-0.004 1.74701,0.16947 2.79104,0.57154 4.59168,1.76834 8.99191,4.00303 13.38523,6.20892 0.37082,0.1876 0.72266,0.4088 1.09088,0.601 0.4155,-0.11565 0.91038,-0.17484 1.48572,-0.16691 0.65984,0.009 1.42523,0.10601 2.29753,0.30644 2.35556,0.54125 4.30075,1.95473 6.16344,3.42614 -1.07651,-2.72314 0.34142,-4.84679 2.57866,-4.84311 1.28683,0.002 2.83083,0.70484 4.29689,2.3952 2.44776,2.82227 4.79147,5.70892 6.96391,8.74934 1.67944,2.35043 1.72027,4.43615 0.89969,5.70663 1.5344,1.02281 3.07247,2.04019 4.58422,3.09645 1.80695,1.14136 3.31928,2.58833 4.72631,4.18269 0.96689,1.16625 2.0869,2.25988 2.79262,3.61942 0.19542,0.37651 0.34592,0.77482 0.51882,1.1622 0.40259,1.55462 0.27207,0.76263 0.38706,2.3766 0.0637,0.89436 -0.044,1.45412 -0.26977,1.7756 0.11753,0.20753 0.23421,0.41574 0.35608,0.62063 3.66003,6.15399 -2.6856,9.845 -6.25234,3.63648 -0.83209,-1.44832 -1.62388,-2.92102 -2.35437,-4.42351 -0.84839,-1.84687 -1.70402,-3.69055 -2.54093,-5.54229 -0.078,-0.17246 -0.14713,-0.34128 -0.2119,-0.5085 -0.415,-0.33988 -0.82071,-0.68775 -1.29707,-0.97255 -2.35545,-1.64933 -4.79565,-3.17384 -7.14841,-4.82761 -3.27895,-2.27743 -6.61384,-4.47194 -9.95804,-6.65231 -4.00886,-2.60003 -8.08797,-5.09434 -12.3548,-7.25434 -4.08429,-2.05175 -8.1752,-4.1242 -12.42663,-5.81101 -5.61546,-2.22804 -4.88331,-7.4129 -0.50384,-7.43314 z m -225.34594,21.50101 c 3.05551,-0.16929 4.03285,3.80875 0.35915,7.72563 -1.17612,1.25397 -2.32696,2.59265 -3.45922,3.90674 -1.44062,1.57315 -2.77631,3.23874 -4.13618,4.88135 -1.14319,1.4697 -2.29319,2.93265 -3.46335,4.38113 -0.8717,1.2084 -1.86054,2.32105 -2.81017,3.46594 -0.80685,0.95022 -1.53489,1.96075 -2.32234,2.92695 -0.80594,1.00684 -1.52017,2.08004 -2.22519,3.15847 -0.20511,0.28103 -0.29499,0.51935 -0.30179,0.78909 -0.18033,7.15787 -8.659963,5.5717 -7.093102,-1.4149 0.267098,-1.19094 0.644303,-2.32859 1.347721,-3.34243 0.846108,-1.28566 1.701136,-2.56663 2.670121,-3.76463 0.806525,-0.98525 1.5446,-2.0236 2.37453,-2.98999 0.93132,-1.109 1.88214,-2.2008 2.7342,-3.37448 1.18855,-1.47082 2.35327,-2.95822 3.51813,-4.44779 1.39067,-1.67946 2.758,-3.38112 4.2292,-4.99142 1.55862,-1.80675 3.07205,-3.68494 4.92528,-5.20227 1.38505,-1.13397 2.63451,-1.65096 3.65301,-1.70739 z m 30.4953,3.26389 c 4.11093,0.0973 5.25218,4.81763 -0.0434,7.22591 -1.93926,0.8819 -3.80509,1.88928 -5.66115,2.92437 0.381,1.39299 -0.23993,3.26566 -2.43035,4.98678 -2.3369,1.83618 -4.71607,3.61825 -7.08845,5.40845 -2.84267,2.19936 -5.66068,4.43162 -8.41086,6.74584 -2.22216,1.84972 -4.46469,3.67225 -6.66213,5.55109 -1.67979,1.46598 -3.37138,2.91821 -5.06067,4.37337 -1.40892,1.30469 -2.82191,2.592 -4.12274,4.00648 -1.07181,1.16531 -2.16701,1.83049 -3.17087,2.10529 -0.88357,6.53411 -7.65001,5.87099 -7.10344,-1.07177 0.0596,-0.75732 0.12015,-1.51435 0.21239,-2.26859 0.18237,-1.4495 0.31176,-2.90657 0.57051,-4.34444 0.56059,-2.2771 1.55106,-4.35314 3.32124,-5.95312 1.46716,-1.38711 2.94871,-2.75912 4.4943,-4.05919 1.45063,-1.21601 2.91967,-2.40825 4.4111,-3.57394 2.2284,-1.75259 4.48249,-3.46927 6.81044,-5.08961 3.1083,-2.16601 6.29001,-4.21936 9.5343,-6.17689 3.28252,-2.04598 6.49796,-4.19789 9.78648,-6.23476 2.38673,-1.38679 4.82146,-2.65715 7.33495,-3.79873 1.22236,-0.55516 2.32966,-0.77899 3.27836,-0.75654 z" /></clipPath><clipPath
       clipPathUnits="userSpaceOnUse"
       id="clipPath233"><path
         id="path234"
         style="fill:#ff0000;fill-opacity:1;fill-rule:nonzero;stroke:none;stroke-width:0.264583"
         d="M 185.24069,-319.24193 V -24.289387 H 425.09684 V -319.24193 Z m 138.35487,149.6534 c 1.78419,7.9e-4 3.63037,1.79012 3.80182,5.36608 0.0643,1.33996 -0.0719,2.65433 -0.29041,3.95842 0.27255,-0.0735 0.56767,-0.11689 0.88522,-0.12351 0.37047,-0.008 0.77026,0.0328 1.19579,0.12867 0.38629,-0.24279 0.8215,-0.42195 1.34254,-0.44493 1.13073,-0.0499 2.53823,0.47335 4.04474,1.80971 0.4186,0.37135 0.80759,0.77178 1.2056,1.16323 0.49581,-0.30652 1.09744,-0.47283 1.77559,-0.44028 1.18851,0.0571 2.59295,0.69888 3.98788,2.15129 2.63375,2.74227 4.82211,5.85047 6.92256,9.00669 2.43144,3.88376 4.79634,7.81591 6.98098,11.84475 1.13959,2.01485 2.36363,3.97199 3.24527,6.11746 0.86638,2.54168 0.71525,4.37292 -0.15348,6.88278 -0.88855,2.03627 -2.18951,3.83746 -3.64937,5.49682 -1.22616,1.21887 -2.44396,2.51198 -3.976,3.35587 -0.38219,0.21053 -0.79187,0.3659 -1.18803,0.54881 -6.50071,3.00135 -9.83602,-5.23462 -2.81948,-6.6611 1.07346,-0.21823 1.75532,-1.41088 2.56987,-2.0407 0.86323,-0.96375 1.62015,-2.00233 2.25208,-3.13417 0.24334,-0.63932 0.47847,-1.05078 0.24958,-1.76114 -0.42873,-1.13152 -1.03555,-2.17502 -1.65674,-3.21169 -0.64492,3.08426 -3.96214,3.78517 -6.03631,0.97152 -0.80928,1.85722 -3.53859,2.62684 -6.75775,0.30902 -0.53872,-0.38787 -1.07831,-0.77486 -1.61745,-1.1622 -3.08248,4.62545 -3.94671,5.04673 -6.74584,2.87063 -2.73204,-2.16473 -5.33615,-4.48821 -8.05999,-6.6642 -2.7461,-2.45053 -5.40757,-5.07957 -7.04763,-8.42635 -1.62115,-0.12575 -3.24178,-0.2569 -4.86637,-0.34314 -7.58719,-0.44787 -15.17743,-0.9445 -22.76553,-1.33377 -1.07801,-0.0553 -1.93227,-0.3045 -2.68459,-0.62166 -0.57677,0.62929 -1.1192,1.29485 -1.64021,1.97352 -1.38696,2.1585 -2.2854,4.54313 -3.09181,6.96185 -0.53658,1.90527 -0.93866,3.84574 -1.3658,5.77949 0.3976,-0.38181 0.79402,-0.76498 1.19114,-1.14825 1.44902,-1.39846 2.84121,-1.97983 3.98373,-1.97766 2.91995,0.006 4.20899,3.82009 0.64648,7.53391 -0.92629,0.96557 -1.9114,1.86859 -2.9099,2.75797 -1.78302,1.58814 -3.50499,2.03887 -4.81263,1.76372 -0.007,0.0412 -0.0189,0.0812 -0.0253,0.12247 -0.31138,2.1774 -0.34632,4.38158 -0.39739,6.57686 0.006,3.5147 -0.15426,7.02208 -0.44287,10.52391 -0.15049,2.45352 -0.52882,4.882887 -0.77928,7.326166 -0.25682,2.270699 -0.2357,4.548968 -0.1633,6.828007 0.0525,1.43787 0.0261,0.723201 0.0775,2.145088 7.9e-4,0.02175 -0.006,0.03573 -0.006,0.05736 0.13966,0.0486 0.27673,0.09115 0.42013,0.148309 3.73047,1.486969 7.59999,2.598727 11.41894,3.833876 4.85884,1.705695 9.66861,3.546912 14.50144,5.32474 1.9552,0.651698 3.84707,1.443672 5.71489,2.292366 2.6308,-0.638411 5.26049,-1.281708 7.89771,-1.893425 4.5737,-1.075436 2.35597,-0.547624 6.65438,-1.580782 0.65268,-0.156879 1.2592,-0.237268 1.81642,-0.252698 3.40876,-0.09437 4.96226,2.238663 4.05712,4.350639 3.89832,1.612736 3.00805,6.568553 -2.90269,6.729304 l -2.19726,0.05943 c 0.0932,0.05532 0.18872,0.106439 0.28112,0.163298 6.09814,3.752323 2.1299,10.065517 -3.84782,6.124173 -1.04591,-0.689594 -2.23735,-1.127543 -3.31556,-1.763197 -2.61015,-1.251701 -5.22853,-2.484003 -7.87136,-3.665926 -0.34703,-0.170111 -0.69536,-0.335955 -1.04283,-0.504362 -1.04394,0.228952 -2.09238,0.441277 -3.15071,0.537951 -0.41145,0.100483 -0.82417,0.195434 -1.23558,0.296105 -3.95687,0.968251 -6.08679,-0.907356 -5.97897,-3.010669 -0.31188,-0.687727 -0.239,-1.395294 0.0263,-2.059305 -3.87146,-1.438614 -7.73769,-2.891312 -11.63237,-4.265891 -3.97417,-1.285444 -7.99945,-2.446282 -11.87938,-4.000272 -1.44639,-0.579335 -2.44377,-1.350957 -3.06182,-2.17506 -1.01218,-0.798706 -1.81304,-2.231819 -1.89446,-4.484998 -0.0517,-1.431189 -0.0254,-0.705106 -0.0791,-2.177645 -0.0816,-2.602558 -0.0903,-5.205841 0.19844,-7.79849 0.24823,-2.394268 0.6146,-4.775082 0.76533,-7.179412 0.27808,-3.36008 0.42763,-6.72542 0.42064,-10.09809 0.0594,-2.5132 0.11189,-5.03614 0.48266,-7.52719 0.38072,-2.41928 0.90466,-4.80615 1.46451,-7.18974 0.6701,-2.94551 1.25825,-5.91529 2.11305,-8.81393 1.0668,-3.18776 2.31041,-6.31647 4.23489,-9.10074 0.42128,-0.53977 0.8547,-1.07136 1.29914,-1.59215 -1.52816,-0.60355 -3.06641,-1.18197 -4.57646,-1.83141 -1.09038,3.76762 -2.19021,7.53001 -3.40755,11.25926 -1.05961,2.97655 -0.54118,1.54568 -1.55081,4.2938 -1.83358,4.9908 -6.03644,4.88509 -7.07398,1.75544 -2.82634,3.52841 -7.50378,1.0111 -5.57744,-4.75268 1.05408,-3.1537 2.2385,-6.34595 4.49688,-8.85837 1.49582,-1.66408 2.97572,-2.34765 4.17287,-2.32647 0.33252,0.006 0.64298,0.0664 0.92604,0.17518 0.46945,-1.58214 0.96416,-3.15651 1.43919,-4.7377 0.70062,-2.33196 1.93737,-3.52641 3.18689,-3.8871 0.54142,-0.34307 1.25019,-0.55529 2.11615,-0.57361 h 5.3e-4 c 0.8057,-0.017 1.74503,0.13149 2.80396,0.49248 0.31645,0.10788 0.63769,0.20324 0.94929,0.32401 1.83624,0.71133 3.60046,1.59642 5.43016,2.32544 1.18096,0.47048 2.26953,0.84228 3.35329,1.23145 0.62902,-0.20883 1.22424,-0.32846 1.76785,-0.35037 2.28614,-0.0921 3.73455,1.32842 3.67523,3.07682 1.73917,0.0925 3.47854,0.18832 5.21777,0.2899 -0.1345,-1.7899 1.43141,-3.54652 4.54959,-3.56619 0.39587,-0.002 0.816,0.0231 1.25987,0.0801 3.99155,0.51285 7.97638,1.04608 11.94346,1.72703 0.35092,0.0747 0.7018,0.14913 1.05265,0.22376 0.92028,-2.09088 2.0607,-3.80586 3.79408,-5.38675 0.9172,-0.8245 1.6747,-1.80494 2.07378,-2.98587 0.46483,-1.35061 0.4893,-2.77914 0.4594,-4.19561 h 5.3e-4 c -0.0754,-3.57927 1.64663,-5.36691 3.4308,-5.36608 z m 1.97559,14.00741 c -0.78838,1.39934 -1.79816,2.66075 -2.96984,3.79512 -1.06213,0.94584 -1.80404,2.02586 -2.28153,3.3538 -0.003,0.012 -0.005,0.0237 -0.009,0.0357 1.15411,0.11311 2.30814,0.22665 3.4613,0.3514 3.99042,0.43171 5.40747,2.84663 4.69323,4.76353 0.67585,0.41545 1.35041,0.83313 2.01954,1.25626 3.82278,2.5036 7.53266,5.1715 11.24013,7.84086 -1.81731,-3.68096 -3.93583,-7.19476 -6.36087,-10.5146 -1.10355,-1.48555 -2.20805,-3.00054 -3.36206,-4.44883 -0.35653,-0.44747 -1.7607,-2.16704 -2.34455,-2.70784 -0.36042,-0.33384 -0.93237,-0.68033 -1.36375,-0.9555 -1.33122,-0.84918 -2.21667,-1.81673 -2.72282,-2.76986 z" /></clipPath><clipPath
       clipPathUnits="userSpaceOnUse"
       id="clipPath240"><path
         id="path241"
         style="fill:#ff0000;fill-opacity:1;fill-rule:nonzero;stroke:none;stroke-width:0.264583"
         d="M 92.804184,-309.23338 V -41.629034 H 294.29938 V -309.23338 Z m 130.496946,63.74443 c 0.93337,0.009 2.02072,0.27397 3.21944,0.8785 1.75312,0.88412 3.43212,1.89553 5.06326,2.98586 5.9527,3.97906 1.8926,10.01797 -4.03542,6.00222 -1.36849,-0.92705 -2.78857,-1.76849 -4.26227,-2.51871 -5.18448,-2.63926 -4.02961,-7.38891 0.015,-7.34787 z m -85.24544,1.99626 c 3.36772,-0.0906 4.87054,3.93317 0.67437,7.28431 -0.81214,0.6486 -0.42273,0.34746 -1.1653,0.9064 -1.7275,1.42217 -3.47209,2.82263 -5.29477,4.12275 -2.09112,1.47372 -4.25636,2.82668 -6.45645,4.13153 -6.15846,3.65253 -10.39165,-1.95967 -4.33979,-5.78621 2.21999,-1.40367 4.47897,-2.73503 6.6244,-4.25349 1.67688,-1.19734 3.27994,-2.48915 4.86947,-3.79821 0.91499,-0.69918 0.50268,-0.37435 1.24076,-0.9679 1.39493,-1.12177 2.72473,-1.60899 3.84731,-1.63918 z" /></clipPath><clipPath
       clipPathUnits="userSpaceOnUse"
       id="clipPath251"><path
         id="path252"
         style="fill:#ff0000;fill-opacity:1;fill-rule:nonzero;stroke:none;stroke-width:0.264583"
         d="m 50.06164,-325.07443 v 245.270816 h 202.0347 V -325.07443 Z m 191.06172,72.239 c 1.42195,-0.0396 3.11835,0.92332 4.44418,3.2582 0.80855,1.42391 1.33311,2.97097 1.71979,4.55476 0.38267,1.85761 0.50306,3.75527 0.49506,5.64772 0.007,1.66837 -0.28067,3.30966 -0.52503,4.95318 -0.26767,2.07853 -1.32063,3.82386 -2.54249,5.47306 -0.98598,1.19805 -2.03839,2.33999 -3.16208,3.40961 -0.37488,0.32054 -0.76867,0.61405 -1.09502,0.98443 -4.73356,5.37222 -10.25077,0.0313 -5.19193,-5.03587 0.41783,-0.41852 0.82603,-0.84961 1.30896,-1.19579 0.83199,-0.78568 1.60086,-1.63171 2.34973,-2.49649 0.52191,-0.686 1.06794,-1.32103 1.17874,-2.204 0.19629,-1.31742 0.44949,-2.62948 0.44648,-3.9672 0.0288,-1.3072 -0.0809,-2.61845 -0.30179,-3.90725 -0.20137,-0.91522 -0.51051,-1.80281 -0.96014,-2.62775 -2.14172,-3.92928 -0.53435,-6.78057 1.83554,-6.84661 z m -24.00732,134.01508 c 1.58088,-0.0452 3.27238,1.29937 3.90106,4.36821 0.19779,0.96552 0.49313,1.88927 0.87385,2.79466 0.57738,1.31117 0.86222,2.69631 0.9741,4.11603 0.0779,1.63421 -0.38657,3.16522 -1.00976,4.65191 -0.60784,1.37091 -1.55916,2.5173 -2.50579,3.660755 -0.2566,0.333243 -0.50348,0.67224 -0.76223,1.002525 -0.0721,0.651052 -0.19323,1.300012 -0.35502,1.949752 l -0.4842,1.22783 c -0.70346,1.782932 -1.87803,2.754204 -3.12126,3.127457 -0.38818,0.593834 -0.73665,1.213207 -1.1529,1.788007 -0.78123,1.206815 -1.75001,2.262322 -2.80138,3.23546 -1.04259,0.90742 -2.26203,1.551003 -3.47214,2.198833 -0.81145,0.41652 -1.66264,0.737227 -2.52439,1.030428 -6.77856,2.306214 -9.10653,-4.670343 -2.28979,-6.86108 0.48258,-0.155091 0.95367,-0.335381 1.41232,-0.552421 0.68902,-0.364839 1.38726,-0.713642 2.01745,-1.175639 0.71797,-0.616461 1.30017,-1.358352 1.82004,-2.146123 0.66383,-0.892056 1.26802,-1.828112 1.8216,-2.792076 0.59882,-1.12436 1.07283,-2.316203 1.82056,-3.358968 0.0117,-0.0166 0.0249,-0.032 0.0367,-0.0486 -0.84786,-3.67928 0.87949,-5.67892 2.87217,-5.69422 0.38363,-0.003 0.77643,0.0723 1.16324,0.21859 0.15519,-0.3579 0.298,-0.71847 0.29042,-1.1188 -0.0398,-0.54898 -0.18359,-1.13581 -0.4191,-1.66191 -0.48947,-1.16893 -0.89792,-2.36312 -1.1591,-3.60547 -0.82863,-3.94139 1.021,-6.29698 3.05356,-6.35516 z" /></clipPath><clipPath
       clipPathUnits="userSpaceOnUse"
       id="clipPath278"><path
         id="path279"
         style="fill:#ff0000;fill-opacity:1;fill-rule:nonzero;stroke:none;stroke-width:0.264583"
         d="m -43.212488,-382.05292 v 250.81001 H 185.4025 v -250.81001 z m 181.494868,132.88233 c 1.13528,0.005 2.03811,0.42617 2.60707,1.09037 0.91934,-0.34123 1.78192,-0.54125 2.52078,-0.52658 4.05205,0.0805 5.08945,4.87108 -0.18087,7.33443 -2.21042,1.03317 -4.41856,2.08163 -6.72362,2.89285 -2.86091,0.99315 -5.74924,1.921 -8.52506,3.13986 -6.55592,2.87873 -9.40434,-3.76713 -2.84944,-6.64817 1.1011,-0.48395 2.22936,-0.89759 3.35587,-1.31568 0.52294,-1.00077 1.47788,-2.01475 2.95124,-2.87476 1.0894,-0.6359 2.16914,-1.287 3.24683,-1.94252 1.33817,-0.81396 2.56345,-1.15421 3.5972,-1.1498 z m -133.0900695,2.4753 h 5.5981075 c 7.160125,0 7.160125,7.23263 0,7.23263 H 5.1923105 c -7.1601277,0 -7.1601277,-7.23263 0,-7.23263 z m 42.9880715,50.84496 c 2.044401,-0.008 3.844292,2.25841 2.953308,6.18618 -0.283588,1.25017 -0.481169,2.51568 -0.75189,3.76877 -0.313965,1.46608 -0.73946,2.91235 -1.207162,4.33668 -2.233805,6.80278 -9.211228,4.46329 -6.857981,-2.29908 0.404762,-1.16313 0.726765,-2.36525 0.995807,-3.56619 0.287499,-1.32813 0.484814,-2.67249 0.804084,-3.99407 0.735603,-3.04497 2.473746,-4.42641 4.063834,-4.43229 z m 26.844358,9.60148 c 1.5451,0.0844 3.630816,1.85281 5.237924,5.05189 1.446292,2.8789 3.498345,5.40261 5.377447,8.00674 1.423178,1.86933 2.496352,3.93269 3.488161,6.04873 3.038795,6.48323 -3.64554,9.55837 -6.57066,3.02307 -0.764304,-1.70766 -1.644017,-3.34338 -2.782776,-4.84001 -2.279812,-3.15977 -5.466628,-6.83969 -6.494177,-10.63656 -0.141171,-0.52168 -0.167447,-1.06805 -0.251148,-1.60197 -0.554762,-3.53682 0.450099,-5.13633 1.995229,-5.05189 z m 22.433772,2.07998 v 5.3e-4 c 1.081786,0.0173 2.458693,0.64291 3.986318,2.0805 1.21595,1.14421 2.08888,2.57763 3.1502,3.85661 0.75663,0.91352 1.6619,1.66584 2.53163,2.46393 1.1475,0.93011 2.05703,2.06162 2.85305,3.29799 0.95863,1.59903 1.44035,3.34615 0.97049,5.20227 -0.10236,0.40431 -0.31771,0.77135 -0.47646,1.15703 -1.02548,2.49132 -2.04203,1.65641 -2.97036,0.0238 -2.04159,1.70549 -5.47708,1.09344 -5.78105,-3.28558 -0.003,-0.0322 -0.0142,-0.0648 -0.007,-0.0966 0.005,-0.03 0.0986,-0.0136 0.0827,-0.0393 -0.23736,-0.38486 -0.69492,-0.61714 -1.02216,-0.90227 -1.100378,-0.77725 -2.267905,-1.45106 -3.395141,-2.18798 -3.582773,-2.34245 -3.744537,-5.4822 -2.015898,-6.82284 -0.840523,-2.68156 0.04882,-4.63231 1.88154,-4.74287 0.06945,-0.004 0.140271,-0.006 0.212389,-0.005 z" /></clipPath><clipPath
       clipPathUnits="userSpaceOnUse"
       id="clipPath292"><path
         id="path293"
         style="fill:#ff0000;fill-opacity:1;fill-rule:nonzero;stroke:none;stroke-width:0.264583"
         d="M 39.169506,-337.89832 V -50.969072 H 288.46282 V -337.89832 Z m 15.676046,82.89261 c 1.714024,0.0204 3.54041,1.61061 3.978568,4.9382 0.120111,0.91222 0.106387,1.83456 0.107487,2.75229 0.0087,7.16012 -7.246413,7.15857 -7.232633,-0.002 0.0013,-0.65071 0.02757,-1.30512 -0.06356,-1.95182 -0.530767,-3.76661 1.267578,-5.76019 3.21014,-5.73712 z m 197.013298,6.80941 c 1.32993,-0.0899 2.96772,0.82319 4.38423,3.1042 1.07429,1.72993 1.55184,3.70118 1.89652,5.68338 0.39598,2.58761 0.42018,5.20011 0.26717,7.80675 -0.16631,2.61527 -0.75971,5.14416 -1.52187,7.63985 -0.4978,1.90614 -1.23662,3.72608 -2.0159,5.52989 -0.76243,1.81488 -1.37928,3.68664 -2.00143,5.55315 -0.64972,1.87676 -1.26002,3.76819 -2.01124,5.60741 -0.95415,2.1244 -1.9321,4.237 -2.90784,6.35155 -0.93622,2.10591 -1.93956,4.18102 -3.03444,6.20893 -0.74336,1.47932 -1.63431,2.88203 -2.64686,4.19044 -0.85071,1.10794 -1.91984,2.00805 -2.89078,3.00343 -1.04445,1.12516 -2.20219,2.13025 -3.34605,3.1502 -1.2349,1.05182 -2.56579,1.98944 -3.91811,2.88354 -1.93444,1.28303 -4.12655,2.08437 -6.28747,2.89285 -2.75914,1.06536 -5.6224,1.79172 -8.50439,2.42982 -2.00852,0.48359 -4.02259,0.93996 -6.05234,1.32499 -1.0898,0.20672 -1.99053,0.15992 -2.79725,0.0139 -0.75827,0.17949 -1.51301,0.3744 -2.26653,0.57309 -1.4977,0.44017 -2.97995,0.92699 -4.46019,1.42214 -1.58834,0.5581 -3.19109,1.04834 -4.83381,1.42213 -2.05853,0.5373 -4.13223,0.98734 -6.23425,1.31724 -1.89057,0.38525 -3.79586,0.65788 -5.71696,0.82837 -1.92552,0.0766 -3.83858,0.29911 -5.75676,0.47025 -1.71912,0.15432 -3.44381,0.22701 -5.16867,0.27441 -2.44184,-0.0118 -4.87127,-0.25567 -7.30085,-0.47078 -2.85973,-0.19225 -5.71909,-0.39592 -8.57157,-0.67799 -2.83995,-0.26841 -5.65359,-0.74864 -8.47907,-1.13016 -2.66463,-0.21934 -5.29981,-0.64608 -7.94267,-1.03457 -2.11987,-0.30404 -4.25541,-0.45909 -6.38152,-0.71055 -1.8808,-0.17534 -3.75496,-0.4017 -5.63118,-0.61856 -1.91243,-0.21286 -3.83573,-0.28885 -5.75779,-0.34985 -2.23949,-0.16259 -4.48445,-0.27106 -6.71949,-0.48783 -2.21917,-0.20648 -4.40762,-0.67897 -6.54068,-1.31516 -2.57048,-0.65769 -4.88262,-1.9917 -7.25382,-3.13883 -1.91366,-0.89121 -3.846978,-1.74009 -5.755724,-2.6417 -1.929913,-0.93683 -3.722034,-2.11514 -5.521108,-3.27525 -1.492637,-0.90475 -0.734285,-0.44535 -2.275314,-1.37821 -6.125257,-3.70793 -2.379728,-9.89571 3.745508,-6.18774 1.606161,0.9723 0.789586,0.47683 2.449462,1.48725 1.534261,0.98943 3.055983,2.00536 4.695836,2.81636 1.92633,0.91375 3.8825,1.76312 5.81257,2.66909 2.03397,0.98503 4.0062,2.16157 6.20944,2.72955 1.67042,0.52508 3.40555,0.86136 5.14697,1.03715 2.07333,0.21111 4.15957,0.28906 6.23683,0.4563 2.12341,0.0679 4.24789,0.15641 6.36033,0.39429 1.88182,0.21873 3.76122,0.44337 5.64772,0.62012 2.19401,0.25968 4.39889,0.41632 6.58565,0.73794 2.61501,0.3856 5.2221,0.80551 7.85895,1.02267 2.74095,0.37156 5.47017,0.83558 8.22482,1.1002 2.82609,0.28319 5.66087,0.47505 8.49405,0.67076 2.15225,0.19062 4.3024,0.40925 6.46472,0.44545 1.57684,-0.0428 3.1537,-0.10777 4.7253,-0.24857 1.92194,-0.17061 3.8389,-0.3955 5.76812,-0.4718 1.7606,-0.15093 3.50197,-0.42258 5.23482,-0.76946 1.94524,-0.29972 3.85736,-0.73584 5.76244,-1.22784 1.40538,-0.30937 2.76609,-0.74989 4.12327,-1.22421 1.62869,-0.54468 3.26081,-1.07909 4.91081,-1.5565 1.77362,-0.46766 3.552,-0.92735 5.36814,-1.20147 1.70238,-0.33298 3.38762,-0.74982 5.05034,-1.24437 1.8768,-0.51034 3.73395,-1.11665 5.54695,-1.81953 1.67544,-0.67931 3.31988,-1.45879 4.78886,-2.52439 1.0657,-0.84543 2.16725,-1.64342 3.15019,-2.58951 1.28809,-1.21508 2.58622,-2.41928 3.84008,-3.67058 0.85194,-0.84614 1.68746,-1.65828 2.24585,-2.7404 0.63482,-0.99725 1.29901,-1.9775 1.85674,-3.02152 0.55263,-0.92785 1.06197,-1.877 1.53479,-2.8484 0.43455,-0.81257 0.86675,-1.63643 1.16427,-2.50993 0.39723,-1.087 0.65435,-2.21493 0.97203,-3.32641 0.29574,-1.24569 0.60338,-2.49273 1.07901,-3.68453 0.39957,-1.05638 0.68712,-2.15558 1.05006,-3.22512 0.22713,-0.94997 0.37986,-1.92387 0.55966,-2.88303 0.22526,-1.23853 0.53664,-2.45701 1.02371,-3.62149 0.47591,-1.31864 1.08044,-2.58627 1.7048,-3.84007 0.34111,-0.58794 0.67316,-1.19257 0.96067,-1.80041 0.32682,-0.71346 -0.0659,-2.40019 0.0822,-3.22151 v -4.23178 c 0,-3.58007 1.80812,-5.37022 3.61632,-5.37022 0.15156,0 0.30168,0.0312 0.45217,0.0563 -0.0649,-0.17178 -0.10183,-0.35173 -0.18242,-0.51883 -1.94402,-4.03078 -0.58254,-6.96655 1.63401,-7.11636 z" /></clipPath></defs><g
     id="layer1"
     transform="translate(125.61759,362.24807)"><path
       style="fill:#000000"
       d="m -66.774343,-87.407998 c -3.70136,-1.322465 -6.09467,-3.69361 -7.29387,-7.226299 -0.81622,-2.40447 -0.68925,-5.163454 0.43574,-9.468743 l 0.97948,-3.74842 -1.96425,-0.90782 c -3.37418,-1.55945 -7.479919,-4.49669 -10.889728,-7.7905 -8.067829,-7.79337 -12.384309,-16.61777 -14.683739,-30.01871 -0.6629,-3.86333 -1.84537,-14.00503 -2.13887,-18.34445 -0.11811,-1.74625 -0.3005,-3.77031 -0.40531,-4.49791 l -0.19057,-1.32292 -1.82108,-0.005 c -6.34077,-0.0182 -12.47972,-3.76492 -15.01984,-9.16701 -0.81616,-1.73572 -0.91526,-2.38789 -0.94006,-6.18586 l -0.0277,-4.24557 -1.52045,-1.55117 c -0.83625,-0.85314 -1.93503,-2.43513 -2.44173,-3.51553 -0.8008,-1.7075 -0.92127,-2.42568 -0.92127,-5.49215 0,-3.12569 0.11267,-3.76903 0.98857,-5.64444 0.54372,-1.16417 1.56999,-2.71389 2.2806,-3.44383 1.24458,-1.27842 1.27491,-1.36911 0.826,-2.46944 -1.25495,-3.07601 -1.47417,-4.07363 -1.48085,-6.73887 -0.0104,-4.13548 1.04541,-6.83022 3.86161,-9.8563 1.46538,-1.5746 5.11721,-3.77242 6.26946,-3.77323 0.219,-1.5e-4 0.59147,-0.46692 0.82771,-1.03727 1.05354,-2.54347 4.71993,-5.08284 8.40431,-5.8209 l 1.92141,-0.3849 0.65585,-2.11124 c 1.184013,-3.81143 4.70617,-7.44399 8.782824,-9.05812 1.517838,-0.60098 2.712063,-0.77325 5.485116,-0.79124 3.411105,-0.0221 3.646641,0.0273 6.243305,1.31005 3.25028,1.60565 5.39453,3.86455 7.14458,7.52663 1.15687,2.42081 1.25241,2.51816 2.69836,2.74938 2.01043,0.32148 5.46441,2.00663 7.56149,3.68915 l 1.71079,1.37259 1.6004,-1.34948 c 0.88022,-0.74221 2.20639,-1.60267 2.94704,-1.91213 2.04232,-0.85334 1.46043,-1.38871 -1.73851,-1.59955 -6.40873,-0.4224 -11.29429,-5.17099 -12.5115,-12.16073 -0.52247,-3.00023 -0.22592,-10.62172 0.50245,-12.91314 1.90138,-5.98173 5.85707,-9.69126 11.14603,-10.45244 l 1.8914,-0.27221 0.7713,-2.82222 c 3.74864,-13.71653 13.54879,-25.23918 26.66283,-31.34919 9.14459,-4.26059 22.7993501,-7.29829 35.3397701,-7.86185 l 5.2034699,-0.23384 v -9.23412 -9.23411 l -1.8007699,-1.16687 c -0.99043,-0.64177 -2.47815,-2.087 -3.30605,-3.21162 -6.27123003,-8.51887 -0.5679,-20.4532 10.0687099,-21.06895 8.18083,-0.47358 14.31994,5.20135 14.23403,13.15778 -0.0527,4.88013 -2.23593,8.73165 -6.50091,11.46848 l -1.77064,1.13622 0.0941,9.04348 0.0941,9.04348 5.29167,0.23439 c 14.75786,0.65368 27.99792,3.76936 38.09373,8.96429 13.11794,6.75001 22.59191,18.43817 25.85687,31.89993 0.28775,1.18643 0.37736,1.2445 2.29136,1.48483 2.50742,0.31484 4.46172,1.30548 6.6933,3.39286 3.573255,3.34236 5.084735,8.36346 4.744085,15.75981 -0.28563,6.2019 -1.61266,9.93752 -4.536455,12.77029 -1.92437,1.86445 -4.98099,3.27447 -7.8769,3.63361 -3.78036,0.46883 -4.01711,1.05766 -0.6798,1.69074 3.03222,0.57521 4.79309,1.5066 7.214,3.81576 l 1.981655,1.89018 0.5842,-1.84613 c 1.46144,-4.61832 5.8647,-9.74919 10.17724,-11.85898 1.23203,-0.60273 3.3513,-1.34741 4.70949,-1.65484 2.75506,-0.62363 2.75761,-0.62478 4.57153,-2.06372 2.55175,-2.02424 6.35537,-1.46045 7.8624,1.16541 l 0.57462,1.00121 1.84203,-1.50036 c 7.99216,-6.5097 19.87361,-2.44732 22.58093,7.72064 0.87963,3.30364 0.39922,7.18434 -1.30224,10.51949 -1.07027,2.09789 -3.73494,4.60658 -6.06266,5.70777 -2.40377,1.13717 -2.60972,1.9249 -0.79627,3.04567 2.9205,1.80497 5.15498,5.51356 5.67248,9.41467 0.28832,2.17348 -0.31033,5.45034 -1.39912,7.65834 -0.79294,1.60803 -0.81596,1.81334 -0.351,3.13116 0.27366,0.77566 0.49757,1.90677 0.49757,2.51359 0,0.60681 0.32846,2.21404 0.7299,3.57162 0.88978,3.00898 1.28156,9.1713 0.7428,11.68345 -1.80657,8.42376 -7.35599,13.13799 -16.20496,13.7661 l -3.15092,0.22366 -0.42893,4.97811 c -1.47282,17.09337 -3.92361,28.8191 -7.52908,36.02255 -4.4005,8.79187 -11.9663,16.48918 -20.01502,20.36294 -2.28448,1.0995 -3.08548,1.65295 -2.95017,2.03844 0.91309,2.60132 1.93654,8.550726 1.77851,10.338691 -0.80285,9.083478 -11.819305,13.340511 -18.745575,7.24376 -1.94496,-1.712023 -3.17857,-3.994703 -3.92374,-7.260544 -0.29923,-1.31142 -0.70038,-2.980136 -0.89145,-3.708257 l -0.34739,-1.32386 -64.80472,0.0891 -64.80471,0.0891 -0.64814,3.175003 c -1.20445,5.900144 -3.35911,9.131707 -7.2304,10.844164 -2.30766,1.020786 -5.76111,1.165564 -8.07577,0.338556 z m 6.43521,-4.61388 c 1.79931,-0.817311 3.20345,-2.47129 3.71841,-4.38002 0.2201,-0.815796 0.94667,-4.023262 1.6146,-7.127712 0.66793,-3.10444 1.5239,-6.86152 1.90216,-8.34905 0.37825,-1.48754 0.68773,-3.41811 0.68773,-4.29017 0,-1.33391 -0.17051,-1.72904 -1.07437,-2.48958 -3.28634,-2.76527 -8.87129,-1.47853 -11.47335,2.64339 -1.38072,2.1872 -2.10873,4.07338 -3.55759,9.21721 -1.0646,3.77963 -1.32178,5.29417 -1.3376,7.877209 -0.0177,2.891198 0.0707,3.334588 0.92172,4.623175 1.77205,2.683136 5.51831,3.674589 8.59829,2.275548 z m 154.24399,0.1171 c 4.58755,-1.916801 5.09852,-5.485091 2.22082,-15.508802 -1.33472,-4.64912 -2.69687,-7.69216 -4.21953,-9.42637 -3.9001,-4.44197 -11.67794,-3.98076 -11.67794,0.69246 0,1.08723 3.30364,15.37689 4.479,19.373616 0.62785,2.134961 2.25569,4.249292 3.78387,4.914715 1.46582,0.638266 3.82458,0.61839 5.41378,-0.04562 z m -16.59609,-15.417192 c -1.07023,-4.73337 -1.66532,-7.97431 -1.65892,-9.03467 0.016,-2.65652 2.10286,-5.62761 5.06009,-7.2042 1.19254,-0.63578 2.03759,-0.77771 4.63355,-0.7782 2.81711,-5.3e-4 3.41358,0.11811 5.29166,1.05256 3.06019,1.52261 5.76618,4.35432 7.4178,7.76243 0.75223,1.55222 1.4134,2.88675 1.46927,2.96561 0.21582,0.30468 3.243733,-1.28563 6.221993,-3.2679 3.77063,-2.50964 8.64592,-7.28219 10.86504,-10.63608 3.07559,-4.6483 5.38703,-9.9949 6.63335,-15.34357 1.29257,-5.54717 2.87194,-16.52788 3.74212,-26.01736 l 0.23454,-2.55764 h -83.430293 -83.43028 l -0.86424,1.67569 c -1.40986,2.73358 -4.81738,4.66766 -8.23186,4.67234 -3.22436,0.004 -6.85691,-2.17698 -8.28426,-4.97483 l -0.70056,-1.3732 h -4.89856 -4.89856 l -0.55743,1.63598 c -0.77726,2.28113 -2.07165,3.84601 -4.17475,5.04713 -5.47018,3.12416 -11.784713,0.35143 -13.81399,-6.06575 -0.161879,-0.51191 -0.633994,-0.61954 -2.763936,-0.63012 -1.412791,-0.007 -3.918086,-0.0926 -5.567322,-0.19023 -1.649236,-0.0976 -3.193155,-0.0452 -3.430932,0.11643 -0.334505,0.2274 -0.351717,1.24822 -0.07608,4.51175 2.060624,24.39729 5.511114,35.34671 14.085933,44.69884 2.444739,2.66635 7.228023,6.39482 10.314353,8.03981 l 2.0402,1.08742 1.63447,-3.40449 c 2.72258,-5.67094 6.53271,-8.64985 11.41641,-8.92581 2.79076,-0.15769 4.5858,0.28631 6.77788,1.67649 2.23341,1.41638 3.5319,3.44882 3.73006,5.83841 0.13452,1.62208 -0.90812,8.18388 -1.57758,9.92847 -0.15923,0.41495 9.37802,0.48844 63.39143,0.48844 h 63.57887 z m -152.06569,-59.86221 c 4.56174,-2.07118 3.92849,-8.58793 -0.96249,-9.90494 -1.32648,-0.35718 -1.76533,-0.32297 -3.13411,0.24431 -2.118711,0.87807 -3.196036,2.48583 -3.196036,4.76962 0,2.75181 0.976552,4.19281 3.436236,5.07052 1.75311,0.62558 2.12092,0.60846 3.8564,-0.17951 z m 29.04881,-1.8739 c 4.37594,-2.97378 2.2602,-9.89863 -3.02637,-9.90535 -2.61763,-0.003 -4.74612,1.91598 -5.27211,4.75396 -0.32792,1.76931 0.80588,4.28128 2.36012,5.22886 1.64739,1.00438 4.39924,0.96848 5.93836,-0.0775 z m -39.374303,-7.23194 c 1.600169,-3.02586 4.578693,-4.74546 8.171873,-4.71788 3.32345,0.0255 5.43277,1.05055 7.45283,3.62176 l 1.62334,2.06626 h 4.86603 c 2.67632,0 4.95682,-0.14689 5.06777,-0.32643 0.11096,-0.17953 -0.66287,-0.57778 -1.71963,-0.88498 -2.68488,-0.78052 -4.6803,-2.42827 -6.11602,-5.0504 l -1.20725,-2.20486 h -18.425897 -18.42589 l -1.91508,-0.97014 c -1.12032,-0.56753 -2.35195,-1.55574 -2.9678,-2.38125 l -1.05272,-1.41111 h -3.25997 -3.25997 l -0.22066,1.00268 c -0.2927,1.32995 0.11283,3.95262 0.88137,5.7001 0.85744,1.94961 2.28628,3.55147 4.13348,4.634 2.97132,1.74131 3.80298,1.84357 15.198687,1.86879 l 10.662467,0.0236 z m 166.721733,0.30489 c -3.95846,-1.2798 -6.20792,-2.93095 -8.46775,-6.21549 l -1.09115,-1.58593 h -52.91511 -52.91512 l -1.83668,1.87879 c -1.13611,1.16216 -2.48039,2.1241 -3.52428,2.52192 -0.92818,0.35372 -1.61318,0.81796 -1.52223,1.03163 0.091,0.21367 0.35957,0.98381 0.59691,1.71141 l 0.43154,1.32292 61.59208,-0.019 c 59.53774,-0.0183 61.52735,-0.0399 59.65179,-0.64628 z m 57.679163,-0.35199 c 2.76581,-1.09033 5.80584,-4.09743 6.65531,-6.58321 0.61865,-1.81036 1.20892,-6.86344 0.80173,-6.86344 -0.12716,0 -0.89439,0.48041 -1.70495,1.06758 -0.81056,0.58716 -2.31386,1.3118 -3.34066,1.6103 -1.09279,0.31768 -2.1483,0.90044 -2.5455,1.40539 -1.43063,1.81875 -2.20014,1.91395 -15.47079,1.91395 h -12.27613 l -1.13637,1.89989 c -2.08301,3.48256 -5.47862,5.66245 -9.46572,6.07672 -1.704623,0.17712 -2.589733,0.0475 -4.837503,-0.70817 -2.27284,-0.76413 -2.88617,-0.85213 -3.52778,-0.50614 -0.42715,0.23034 -1.64976,0.70421 -2.71691,1.05303 -1.90097,0.62138 -1.43994,0.63255 22.754163,0.55138 l 24.69444,-0.0829 z m -49.283933,-4.29202 c 0.83383,-0.36471 1.91857,-0.97973 2.41054,-1.36671 l 0.89448,-0.7036 1.29363,0.83068 c 1.9099,1.22642 3.81199,1.72337 5.727783,1.49648 4.57893,-0.54231 7.35994,-3.84631 7.37614,-8.76329 0.0108,-3.27331 -1.54714,-6.33525 -3.99273,-7.84723 -2.2606,-1.39763 -5.101263,-1.64392 -7.372553,-0.63922 l -1.59587,0.70593 -1.71763,-1.77815 c -2.36652,-2.44991 -4.57612,-3.43101 -7.71485,-3.42555 -1.71941,0.003 -2.95162,0.22211 -4.05695,0.72142 -4.5112,2.03781 -7.31016,7.51341 -6.36349,12.44889 1.38677,7.22996 8.56646,11.18308 15.1115,8.32035 z m -143.14551,-1.22697 c 2.68382,-1.61296 3.45785,-1.74012 6.4883,-1.06591 2.12808,0.47345 2.92098,0.50866 4.15112,0.1843 8.5428,-2.25249 10.02127,-12.88479 2.32499,-16.72001 -4.61994,-2.30221 -9.92418,0.046 -11.89131,5.26424 -0.5683,1.50757 -0.78508,1.74614 -1.49179,1.64177 -0.45477,-0.0672 -1.9381,-0.14654 -3.2963,-0.17639 -2.11845,-0.0466 -2.63254,0.0681 -3.61698,0.80657 -4.33206,3.24975 -2.81953,10.08995 2.50229,11.31619 1.56614,0.36087 2.5887,0.096 4.82968,-1.25076 z m -35.346865,-6.34069 c 0.06704,-0.067 -0.540624,-0.99936 -1.350352,-2.07184 -1.628556,-2.157 -2.254533,-3.86821 -2.643125,-7.2254 l -0.259535,-2.24223 -1.899484,-0.86961 c -1.490408,-0.68233 -2.374719,-0.84983 -4.106164,-0.77778 l -2.206682,0.0918 -0.10686,-1.44483 c -0.0868,-1.17353 0.0439,-1.55041 0.69586,-2.00708 1.11651,-0.78204 4.442116,-0.7254 6.649255,0.11325 l 1.777768,0.6755 1.092921,-2.17481 c 0.601106,-1.19614 1.405136,-2.617 1.786732,-3.15746 0.381596,-0.54046 0.610369,-1.20011 0.508383,-1.46588 -0.101986,-0.26577 -1.156841,-1.00098 -2.344122,-1.63379 -2.55956,-1.36423 -3.886325,-2.81004 -3.886325,-4.23501 0,-1.28894 -0.596648,-1.32655 -2.998611,-0.18905 -3.508031,1.66131 -5.446601,4.50944 -5.460311,8.02222 -0.0114,2.9249 -0.55526,3.18575 -2.91984,1.40048 -4.2524,-3.2106 -8.87684,-3.37528 -12.30802,-0.43831 -2.87775,2.46324 -3.97948,7.1353 -2.46616,10.45811 1.82441,4.00587 6.89278,5.88287 10.93383,4.0492 0.84581,-0.3838 1.59579,-0.69781 1.66663,-0.69781 0.0708,0 0.36133,0.44964 0.64551,0.99919 0.69479,1.34357 2.92636,3.99114 3.91537,4.64525 0.66098,0.43717 2.04856,0.50905 7.980771,0.41346 3.949374,-0.0636 7.235527,-0.17056 7.302561,-0.2376 z m 222.691528,0.17692 c 0.45733,0 0.75962,-0.41501 1.02784,-1.41111 l 0.37997,-1.41111 2.36765,-0.006 c 1.79482,-0.004 2.70551,-0.19716 3.76409,-0.79674 5.17182,-2.92931 4.80135,-11.0026 -0.62544,-13.62966 -0.86436,-0.41843 -2.22082,-0.73724 -3.1368,-0.73724 h -1.61387 l 0.53059,1.81003 c 0.36377,1.24094 0.48609,2.82772 0.38903,5.04684 -0.17472,3.99472 -1.23258,6.42014 -4.14887,9.51237 l -1.9633,2.08174 1.19063,-0.22966 c 0.65484,-0.12631 1.48216,-0.22965 1.83848,-0.22965 z m -201.359903,-0.35278 c 0.09,-0.097 0.27223,-0.68334 0.40491,-1.30295 0.23086,-1.07808 0.18149,-1.14265 -1.14746,-1.5005 -3.29363,-0.88689 -6.39435,-4.7391 -6.41195,-7.96597 -0.009,-1.66787 0.79283,-2.98891 1.81439,-2.98891 0.5801,0 0.68317,0.16185 0.51918,0.81524 -0.50599,2.01603 1.23439,5.00944 3.61209,6.21273 2.54406,1.28748 3.42649,1.27532 5.62649,-0.0776 2.27253,-1.39751 4.17227,-2.00667 6.26697,-2.00952 1.34382,-0.002 1.55478,-0.1463 3.07805,-2.10784 0.89944,-1.15823 2.29329,-2.54127 3.09743,-3.07342 l 1.46208,-0.96756 -0.18117,-1.95366 c -0.21762,-2.34675 -0.83406,-3.80591 -1.72766,-4.08953 -0.38327,-0.12165 -1.57857,0.23648 -2.85688,0.85595 -2.9712,1.43985 -5.13034,1.6738 -8.77221,0.9505 -4.64225,-0.92199 -4.44936,-0.69395 -2.44347,-2.88871 0.96971,-1.06102 2.36355,-3.14401 3.0974,-4.62887 1.28899,-2.60809 1.33429,-2.8261 1.33429,-6.4222 0,-3.55944 -0.0567,-3.8412 -1.29477,-6.43384 -1.7362,-3.63576 -3.64437,-5.63187 -6.94014,-7.25998 -2.51811,-1.24395 -2.8556,-1.31753 -6.04318,-1.31753 -3.09051,0 -3.56948,0.0958 -5.66152,1.13241 -2.65953,1.3178 -3.915075,2.41027 -5.324842,4.63324 -1.467579,2.31414 -1.36204,2.65724 1.092685,3.55228 1.412726,0.5151 2.684966,1.32927 3.849227,2.46329 4.52026,4.40288 2.65754,10.66314 -3.622809,12.17554 l -1.01479,0.24437 0.697725,0.77582 c 1.265869,1.40756 1.251436,1.61686 -0.227339,3.29684 -2.397841,2.72409 -3.360153,5.10385 -3.502293,8.66102 -0.108699,2.72029 -0.01654,3.30024 0.81285,5.11528 1.021409,2.23524 2.612791,4.09812 4.219043,4.93881 2.427954,1.27077 3.850623,1.47149 9.967083,1.40625 3.33131,-0.0355 6.13058,-0.14397 6.22059,-0.24099 z m -7.72669,-32.24388 c -1.36063,-1.36064 -1.59059,-3.01809 -0.66663,-4.80484 0.66171,-1.27961 1.52163,-1.75683 3.16568,-1.75683 3.30112,0 5.07466,3.01685 3.5298,6.00428 -0.68035,1.31565 -1.52407,1.75683 -3.35983,1.75683 -1.20091,0 -1.68885,-0.21928 -2.66902,-1.19944 z m 123.34216,30.74458 c 1.73907,-4.00857 1.1381,-7.61569 -1.74997,-10.50376 -3.87261,-3.87261 -9.88875,-3.71947 -13.55301,0.345 -1.84483,2.04633 -2.45443,3.63199 -2.49178,6.48157 -0.0355,2.70903 0.12056,2.63129 -3.24266,1.61521 -1.41568,-0.4277 -2.52789,-0.23782 -5.07919,0.86713 -0.36985,0.16018 -0.83439,-0.25479 -1.54296,-1.37835 -2.23004,-3.5361 -6.31277,-4.57643 -11.0145999,-2.80666 -2.51848,0.94795 -3.31744,1.07858 -3.31744,0.5424 0,-1.02436 -1.59081,-4.3295 -2.71723,-5.64548 -3.51889003,-4.11102 -10.30036,-4.28688 -14.1137101,-0.36601 -1.941,1.99574 -2.70648,4.03244 -2.68163,7.13497 0.026,3.24397 -0.50965,3.73636 -2.45249,2.25448 -3.83393,-2.92428 -7.97352,-3.10627 -11.78158,-0.51798 -1.26604,0.86052 -2.94225,2.91522 -2.94225,3.60662 0,0.12262 17.52233,0.22294 38.9385001,0.22294 H 47.685767 Z m 22.14217,-0.067 c -0.21161,-2.55168 -1.41298,-4.32259 -3.84681,-5.67051 -1.69507,-0.93876 -2.22885,-1.05317 -4.90086,-1.05046 -3.44135,0.004 -4.58393,0.45556 -6.97074,2.75791 -1.30506,1.25889 -2.90704,4.31321 -2.90704,5.54256 0,0.20903 3.60999,0.33954 9.39229,0.33954 h 9.3923 z m 52.944373,1.25441 c 1.17451,-0.36555 2.83715,-1.07585 3.69476,-1.57844 2.13828,-1.25311 4.63628,-4.127 5.31267,-6.1121 1.28366,-3.76734 0.25961,-9.138 -2.44488,-12.82225 l -1.31811,-1.79563 0.92759,-0.96819 c 1.13534,-1.18505 1.14472,-1.32777 0.10444,-1.58887 -1.28344,-0.32212 -4.14803,-3.04217 -4.86417,-4.61873 -1.40685,-3.09715 -0.32031,-7.48873 2.3583,-9.5318 1.81934,-1.38768 4.70936,-2.60379 6.50402,-2.73687 l 1.5875,-0.11772 -0.0828,-1.35494 c -0.21108,-3.45277 -3.76322,-8.1609 -7.60589,-10.0811 -1.16894,-0.58413 -2.33812,-1.06206 -2.59818,-1.06206 -0.59334,0 -0.59308,-0.003 0.11239,-1.41746 0.51712,-1.03657 0.52601,-1.27892 0.0764,-2.08267 -0.77868,-1.39206 -1.87169,-1.34469 -3.2319,0.14007 -0.96234,1.05044 -1.65655,1.39635 -3.95526,1.97079 -3.97252,0.99271 -6.0595,2.0518 -8.50537,4.31624 -4.52491,4.18927 -6.44244,10.67743 -4.90271,16.58884 0.68323,2.6231 1.52168,4.23322 3.70973,7.12404 0.98025,1.29508 1.81694,2.51452 1.85933,2.70987 0.0984,0.45341 -2.44777,1.24994 -5.36706,1.67899 -2.84268,0.4178 -5.234623,-0.042 -7.557583,-1.45269 -2.46627,-1.49775 -3.69006,-1.30366 -4.72538,0.74942 -0.62807,1.24551 -0.79375,2.1699 -0.79375,4.42872 0,2.7663 0.0355,2.88772 1.14653,3.92302 2.49531,2.32518 2.98869,2.56804 4.41638,2.17383 2.987033,-0.82476 6.987903,0.35473 9.707963,2.862 1.76974,1.63128 2.21561,1.71603 4.05777,0.77132 2.4865,-1.27515 3.60192,-3.08522 3.60192,-5.8451 0,-1.36785 0.0769,-1.5114 0.71968,-1.34331 1.47317,0.38524 2.25264,3.66882 1.40201,5.90613 -0.49457,1.30082 -3.36215,4.26666 -4.63512,4.79394 -0.91373,0.37848 -1.04303,0.58296 -0.86008,1.36015 0.11843,0.50308 0.31199,1.8986 0.43013,3.10115 0.25357,2.58106 -0.0193,2.45887 5.64597,2.528 2.97197,0.0363 4.4609,-0.11491 6.07279,-0.61659 z m -7.92872,-35.10703 c -0.97867,-0.97868 -1.19944,-1.46889 -1.19944,-2.66336 0,-2.99605 1.96424,-4.85912 4.73172,-4.48801 5.10305,0.68432 4.15831,8.35081 -1.02907,8.35081 -1.01234,0 -1.57187,-0.2681 -2.50321,-1.19944 z m -145.125723,27.48987 c -0.27235,-0.32817 -0.86585,-0.52799 -1.38796,-0.46729 -0.77047,0.0896 -0.90045,0.26674 -0.83687,1.14084 0.14213,1.95391 0.36102,2.08636 1.57418,0.95257 0.97598,-0.91214 1.06291,-1.12938 0.65065,-1.62612 z m 56.83089,-1.88229 c 0.82505,-2.42835 2.74347,-5.01766 4.82731,-6.5155 1.95512,-1.40532 3.32523,-1.98824 5.90794,-2.51356 l 1.89786,-0.38602 -1.4158,-1.85435 c -1.12343,-1.4714 -1.57606,-1.81822 -2.19178,-1.67945 -1.83293,0.4131 -12.67552,0.88756 -20.17272,0.88273 -7.4934199,-0.005 -16.62022993,-0.41477 -19.5851899,-0.8797 -1.16526,-0.18272 -1.32898,-0.0763 -2.91041,1.89126 -0.92164,1.14667 -1.6757,2.16756 -1.6757,2.26863 0,0.10107 0.75406,-0.0505 1.6757,-0.33689 5.12587,-1.59269 11.71968,1.24461 14.69626,6.32376 l 0.91977,1.56947 1.8492699,-0.49927 c 3.58428,-0.96769 8.7179,0.31631 11.06674,2.76797 0.87862,0.91708 1.20299,1.02826 2.73547,0.93759 l 1.73864,-0.10287 z m -43.98108,0.0217 c 0.12833,-0.53358 0.87036,-2.20506 1.64893,-3.71442 0.77858,-1.50935 1.36548,-3.076 1.30422,-3.48144 -0.0712,-0.47112 -0.93018,-1.2313 -2.3802,-2.10641 -1.24785,-0.75309 -2.38382,-1.36926 -2.52439,-1.36926 -0.14057,0 -0.74567,1.0473 -1.34467,2.32734 -1.44199,3.08147 -3.67467,5.87381 -5.80835,7.26432 -0.24309,0.15842 -0.15392,0.48507 0.2561,0.93814 0.51816,0.57256 0.82621,0.63854 1.74753,0.37431 1.54826,-0.44403 3.71194,-0.35699 5.18009,0.20839 1.6826,0.64797 1.65744,0.65374 1.92074,-0.44097 z m 74.22046,-2.08727 c 0.0647,-0.0323 -0.1887,-0.36508 -0.56304,-0.73943 -1.18718,-1.18718 -2.93544,-3.93173 -3.99992,-6.27939 -0.56634,-1.24905 -1.1472,-2.26755 -1.29079,-2.26335 -0.14359,0.004 -1.57415,0.76902 -3.17904,1.69958 l -2.91796,1.69194 1.75331,1.13611 c 2.0849,1.35097 4.37383,3.86052 5.17276,5.67135 l 0.57545,1.30428 2.16582,-1.08114 c 1.1912,-0.59464 2.21873,-1.10761 2.28341,-1.13995 z m -88.36247,-1.40146 c 3.29042,-1.14955 6.27578,-4.32671 7.48427,-7.96512 0.93879,-2.82644 0.5798,-7.00985 -0.85094,-9.91609 -1.43562,-2.91615 -4.25712,-5.57573 -6.84341,-6.45067 -3.88523,-1.31438 -8.44591,-0.57231 -11.31381,1.84088 -2.60846,2.19487 -4.47706,6.14343 -4.47706,9.4605 0,3.82883 2.22301,7.5501 5.81145,9.72826 1.11879,0.6791 3.00734,1.8912 4.19677,2.69355 2.33393,1.57441 3.027,1.6448 5.99273,0.60869 z m 100.78349,-0.13316 c 2.39933,-0.94572 5.65358,-3.18726 7.01945,-4.83502 0.60759,-0.73297 1.53558,-2.2058 2.0622,-3.27295 0.82251,-1.66672 0.95447,-2.36304 0.93597,-4.93889 -0.0272,-3.79409 -1.18651,-6.62686 -3.65797,-8.93863 -2.40248,-2.24724 -5.07776,-3.16511 -8.66771,-2.97384 -4.82216,0.25692 -8.17483,2.56244 -10.4516,7.18721 -1.09952,2.23343 -1.18996,2.67294 -1.18859,5.77618 10e-4,2.97466 0.11629,3.59312 1.00536,5.40758 1.22076,2.49137 4.07583,5.47441 6.22511,6.50411 2.01857,0.96708 4.40219,0.99697 6.71778,0.0842 z m 15.49292,-4.58019 h 2.39744 l 0.15635,-3.08681 c 0.11523,-2.27503 0.36297,-3.48613 0.94203,-4.60526 l 0.78568,-1.51845 -0.77771,-1.25836 c -0.84401,-1.36565 -3.56823,-3.28945 -4.65804,-3.28945 -0.53953,0 -0.62812,0.16177 -0.4347,0.79374 0.49231,1.60853 0.61602,5.8074 0.22635,7.68244 -0.22069,1.06192 -0.79561,2.78144 -1.2776,3.82117 -0.69622,1.50187 -0.76134,1.84628 -0.31679,1.6757 0.30775,-0.1181 1.63839,-0.21472 2.95699,-0.21472 z m 60.659413,-1.70287 c 0.18972,-0.35449 0.451,-1.44404 0.58063,-2.42122 0.35272,-2.65892 -0.57201,-5.44683 -2.4746,-7.46051 l -1.52813,-1.61736 -0.44784,1.49474 c -0.58458,1.95115 -2.79868,3.98365 -5.39969,4.95681 -1.10719,0.41425 -2.15649,0.75319 -2.33179,0.75319 -0.61612,0 -0.77691,0.75826 -0.3694,1.74207 0.39571,0.95534 0.46896,0.98075 1.88606,0.65422 2.71616,-0.62585 7.43203,0.47801 8.73154,2.04384 0.55552,0.66935 0.93909,0.62803 1.35322,-0.14578 z m -155.8951129,-3.54152 c 0,-0.14638 -1.5081201,-0.50458 -3.3513901,-0.796 -1.84326,-0.29142 -3.35139,-0.42806 -3.35139,-0.30365 0,0.12442 0.75407,0.57962 1.6757,1.01157 0.92163,0.43195 2.07257,1.09246 2.55764,1.4678 0.88179,0.68232 0.88208,0.68228 1.67569,-0.21556 0.43656,-0.4939 0.7937501,-1.01777 0.7937501,-1.16416 z m 58.0149499,-1.06265 c -0.2147,-0.21658 -5.80384,0.72717 -5.80384,0.98 0,0.12714 0.24073,0.57485 0.53495,0.99491 l 0.53496,0.76376 2.4331,-1.30262 c 1.33821,-0.71644 2.37358,-1.36267 2.30083,-1.43605 z m -103.18691,0.3281 c 0.68812,-0.3456 1.82506,-0.81385 2.52653,-1.04055 1.25384,-0.40523 1.27938,-0.45105 1.51097,-2.71151 0.28829,-2.81395 1.28916,-5.57649 2.87312,-7.93025 l 1.19535,-1.77627 -2.13613,-2.54027 c -1.17488,-1.39715 -2.77901,-3.53245 -3.56474,-4.74513 -0.78573,-1.21267 -1.57633,-2.20486 -1.75689,-2.20486 -0.46274,0 -3.14584,1.88812 -3.94533,2.77636 -0.65757,0.73057 -0.65281,0.77497 0.31384,2.92896 2.58501,5.76016 2.58633,11.06516 0.004,16.1611 -0.48669,0.96043 -0.88488,1.84856 -0.88488,1.97361 0,0.36824 2.50836,-0.21027 3.86414,-0.89119 z m -50.715487,-2.84261 c 0.7847,-1.25692 2.02803,-2.60787 3.12633,-3.39692 1.80727,-1.29839 1.82164,-1.32366 1.61419,-2.8372 -0.60127,-4.3867 -4.25076,-7.52211 -8.75545,-7.52211 -5.12407,0 -9.25816,4.25751 -9.24582,9.52183 0.007,3.03896 1.32751,5.88977 2.64181,5.70383 2.17976,-0.30837 6.90514,-0.17877 7.55223,0.20712 1.23199,0.73471 1.73205,0.46133 3.06671,-1.67655 z m 22.4846,-0.61581 c 1.729161,-0.88172 2.511467,-2.11844 2.549857,-4.03099 0.0401,-1.99832 -0.618466,-2.96841 -3.158447,-4.65243 -2.014506,-1.33562 -5.185401,-2.19419 -6.715327,-1.81828 -1.423414,0.34975 -2.528783,1.1819 -2.528783,1.90374 0,0.55923 0.22825,0.62371 1.705468,0.48176 1.192927,-0.11462 2.061438,0.0202 2.889951,0.44865 1.708084,0.88328 4.929581,4.03765 4.929581,4.82686 0,1.10076 -2.218463,1.80748 -5.040108,1.60559 -1.6742,-0.11979 -2.359154,-0.0525 -2.273054,0.22342 0.246783,0.79075 2.557044,1.6285 4.49094,1.6285 1.150814,0 2.432459,-0.25097 3.149922,-0.61682 z m 114.501457,0.26007 c 6.50672,-0.46765 10.3055,-0.89914 15.9338,-1.80985 l 4.64491,-0.7516 0.60943,-1.62716 c 1.50187,-4.00994 4.89698,-7.96524 8.27612,-9.64168 2.33317,-1.15752 5.62233,-2.04186 7.56333,-2.03352 2.22468,0.01 6.10953,0.94636 7.50754,1.81038 l 1.26923,0.78443 1.58548,-1.74144 c 4.53062,-4.97629 7.54796,-12.41259 8.55649,-21.08771 0.55211,-4.74902 0.23079,-17.6608 -0.54567,-21.92718 -3.45418,-18.97961 -18.88262,-32.92701 -41.54554,-37.55741 -11.13187,-2.27442 -24.2997,-3.19008 -36.4285299,-2.53315 -17.43768,0.94446 -28.1163801,3.26153 -38.2309801,8.29538 -14.21972,7.07688 -23.07785,20.26089 -24.40722,36.3265 -0.44397,5.36535 -0.4175,14.19676 0.0541,18.04491 0.94908,7.74468 5.08207,17.00876 9.42002,21.11499 l 1.06347,1.00666 2.41202,-0.97642 c 8.38961,-3.39625 17.74326,0.72813 21.10944,9.30795 l 0.95658,2.43816 4.28411,0.74354 c 5.4674101,0.9489 9.7764401,1.43838 15.7493901,1.78901 7.08365,0.41584 24.5246999,0.43042 30.1624999,0.0252 z m -18.46659,-12.86069 c -4.2273299,-1.91331 -6.7431799,-6.55024 -6.7528299,-12.44605 -0.007,-4.11571 -0.39196,-3.96875 10.4027499,-3.96875 8.71202,0 9.01957,0.0237 9.7482,0.75236 0.68178,0.68178 0.73431,1.02101 0.55994,3.61598 -0.37925,5.64416 -2.24576,9.31169 -5.79863,11.39382 -2.00564,1.17538 -6.25373,1.51517 -8.15943,0.65264 z m 6.18006,-2.98743 c 3.08594,-1.40112 3.25887,-3.66355 0.37991,-4.97037 -1.96641,-0.89259 -4.25333,-0.87705 -6.15139,0.0418 -1.86454,0.9026 -2.29214,2.05345 -1.27745,3.43817 1.5355,2.09545 4.38797,2.69857 7.04893,1.49041 z m -41.51208,-9.74439 c -7.34253,-1.58269 -13.81133,-7.69166 -15.70139,-14.828 -0.74425,-2.81008 -0.74503,-7.86011 -0.002,-10.7272 2.46109,-9.49214 11.0866,-16.58055 20.17597,-16.58055 3.52743,0 5.79701,0.53525 9.2395401,2.17901 2.30528,1.10074 3.54712,2.0027 5.66339,4.11336 4.42746,4.41573 6.45214,9.13671 6.42733,14.9867 -0.026,6.12287 -1.84695,10.48386 -6.24849,14.9642 -2.25809,2.29851 -3.40165,3.15822 -5.47204,4.11377 -4.6896901,2.16443 -9.4839101,2.76996 -14.0826501,1.77871 z m 14.7793601,-7.1759 c 0.91741,-0.857 1.09564,-1.28649 1.09564,-2.64027 0,-2.18036 -1.31007,-3.70364 -3.42973,-3.98788 -1.3562901,-0.18188 -1.6007301,-0.0885 -2.7340301,1.04483 -1.0471,1.0471 -1.24333,1.48807 -1.23673,2.77916 0.0176,3.43653 3.81829,5.12695 6.3048501,2.80416 z m -20.8307001,-14.41055 c 0.40127,-0.33955 0.83194,-1.04993 0.95704,-1.57862 0.18232,-0.77054 0.0157,-1.173 -0.83977,-2.02847 -1.25434,-1.25435 -2.09311,-1.33806 -3.36696,-0.33605 -0.64853,0.51013 -0.92952,1.06314 -0.92952,1.82934 0,2.24046 2.52201,3.51607 4.17921,2.1138 z m 11.28719,-2.17667 c 1.59853,-0.81586 2.34265,-1.62164 3.04098,-3.29296 2.35116,-5.62713 -3.61176,-11.33459 -9.15877,-8.76641 -2.68192,1.24169 -4.05695,3.35912 -4.05695,6.24737 0,5.09471 5.4644,8.21608 10.17474,5.812 z m -13.32519,-7.64248 c 0.3365,-0.40547 0.362,-0.71998 0.0929,-1.14653 -0.47175,-0.74788 -1.52099,-0.75758 -1.98726,-0.0184 -0.84206,1.33493 0.87625,2.3916 1.89432,1.16491 z m 74.70853,30.71819 c -5.01298,-1.64782 -9.88465,-5.97738 -12.302,-10.93307 -1.44335,-2.95895 -2.10608,-5.8452 -2.10608,-9.17222 0,-5.86793 2.10135,-10.7588 6.51967,-15.17444 4.6733,-4.67047 8.91924,-6.38809 14.99977,-6.06788 5.81905,0.30643 10.57331,2.40014 14.66867,6.45986 9.62476,9.54101 7.60013,25.58592 -4.12304,32.67445 -3.46381,2.09443 -6.17608,2.83571 -10.8984,2.9786 -3.58466,0.10846 -4.37146,0.0194 -6.75859,-0.7653 z m 16.5852,-5.96772 c 1.16026,-0.59999 1.81505,-1.89657 1.81505,-3.59403 0,-1.61044 -0.48414,-2.47342 -1.75683,-3.13155 -2.85388,-1.4758 -5.6515,0.27751 -5.6515,3.54188 0,0.99387 0.27356,1.56108 1.19944,2.48696 1.33624,1.33625 2.72984,1.55723 4.39384,0.69674 z m -20.31085,-15.42977 c 1.69672,-2.28243 -1.28697,-5.26612 -3.56939,-3.5694 -1.26137,0.93769 -1.46612,2.9238 -0.41026,3.97966 1.05585,1.05585 3.04197,0.8511 3.97965,-0.41026 z m 10.83368,-1.65535 c 2.11681,-1.13526 3.28897,-2.93949 3.46178,-5.3285 0.1949,-2.69456 -0.76187,-4.80806 -2.82333,-6.23665 -1.27537,-0.88383 -1.77485,-1.00952 -4.01179,-1.00952 -2.31898,0 -2.68032,0.0997 -3.91072,1.07878 -0.74561,0.59333 -1.72323,1.78396 -2.17247,2.64584 -1.59708,3.064 -0.34423,7.18433 2.66803,8.77453 1.76843,0.93357 5.11907,0.97085 6.7885,0.0755 z m -13.43933,-7.59107 c 0.77307,-0.93149 -0.35933,-2.21684 -1.55039,-1.75978 -0.53223,0.20423 -0.73221,1.57083 -0.29398,2.00905 0.39869,0.39869 1.42131,0.26049 1.84437,-0.24927 z m -57.54942,-18.765 c -1.96373,-1.06551 -2.56958,-3.67849 -1.32587,-5.71836 0.80881,-1.32659 1.91251,-1.84329 3.93731,-1.84329 1.14843,0 1.65515,0.23172 2.62287,1.19944 0.99874,0.99874 1.19944,1.45786 1.19944,2.74373 0,0.84935 -0.24776,1.89801 -0.55058,2.33035 -1.21112,1.72911 -3.96085,2.33117 -5.88317,1.28813 z m 68.30678,0.22535 c -1.34668,-0.57821 -2.25359,-2.11263 -2.25359,-3.81291 0,-1.32104 0.19354,-1.76874 1.19945,-2.77465 1.05652,-1.05652 1.41803,-1.19944 3.03389,-1.19944 1.62881,0 1.97392,0.13947 3.07869,1.24425 1.14697,1.14696 1.22997,1.37098 1.06155,2.86513 -0.24947,2.21335 -1.70206,3.67744 -3.83275,3.86311 -0.84822,0.0739 -1.87748,-0.01 -2.28724,-0.18549 z m 54.896413,74.97326 c 0,-0.0784 -0.64763,-1.49221 -1.43918,-3.14183 -0.90928,-1.895 -1.58345,-3.93142 -1.83102,-5.53086 -0.403653,-2.60779 -0.402713,-2.60616 -3.559053,-6.20073 -1.90309,-2.16733 -4.52967,-3.3886 -7.25975,-3.37555 -1.18067,0.006 -2.29391,0.10127 -2.47387,0.2125 -0.17997,0.11122 -0.83014,1.08125 -1.44483,2.15561 -0.61469,1.07437 -1.99469,2.90073 -3.06667,4.0586 -1.89509,2.04693 -1.9316,2.12449 -1.31877,2.80166 0.48582,0.53682 1.08698,0.69644 2.623,0.69644 2.6594,0 5.03505,1.20861 7.47077,3.80075 1.81683,1.9335 1.95584,2.00977 3.47993,1.90919 1.28501,-0.0848 2.12083,0.16785 4.38655,1.32598 2.378063,1.21555 4.432893,1.81271 4.432893,1.28824 z m 33.13165,-0.9008 c 0.74445,-0.37979 1.44496,-0.92874 1.55668,-1.21988 0.17223,-0.44882 -0.13467,-0.49781 -2.01729,-0.32201 -2.41775,0.22577 -4.08544,-0.17149 -5.50715,-1.31186 l -0.88195,-0.70742 1.94028,-1.77235 c 3.24978,-2.96852 5.93188,-3.89608 7.60549,-2.63022 0.87556,0.66224 1.21395,0.66999 1.21395,0.0278 0,-2.06777 -2.01227,-3.36798 -5.21243,-3.36798 -3.51395,0 -6.8436,1.61196 -8.0171,3.88127 -0.793,1.53349 -0.67402,3.91377 0.26495,5.3007 1.75892,2.59803 6.11865,3.61974 9.05457,2.12194 z m -222.573305,-2.29321 c 0,-0.30504 -2.998795,-1.89737 -3.704166,-1.96687 -1.474231,-0.14527 -1.940278,0.022 -1.940278,0.69652 0,0.51778 0.365649,0.76668 1.499306,1.02055 1.613182,0.36126 4.145138,0.51385 4.145138,0.2498 z m 222.560715,-1.79895 c 1.39203,-0.41339 1.82173,-0.69717 1.73612,-1.14653 -0.17339,-0.91004 -1.62488,-0.92657 -3.51763,-0.04 -1.73685,0.8135 -2.04933,1.18511 -1.26325,1.5023 0.73408,0.29621 1.11834,0.25636 3.04476,-0.31572 z m -232.939954,-1.52248 c -0.291993,-0.47246 0.517375,-3.30965 1.229404,-4.3096 0.38533,-0.54115 1.536483,-1.37934 2.558117,-1.86265 1.610371,-0.76183 1.969105,-1.12845 2.6962,-2.75552 1.692763,-3.78801 7.295764,-8.18645 11.39205,-8.94294 1.52378,-0.2814 1.56476,-0.42538 0.63814,-2.24171 -0.80089,-1.56988 -2.60775,-3.24198 -4.704897,-4.354 -2.304134,-1.22177 -6.452672,-1.13656 -9.149868,0.18793 -3.767081,1.84987 -5.97085,5.41493 -6.057759,9.7997 -0.02211,1.11558 -0.134501,2.12254 -0.249756,2.23769 -0.115255,0.11515 -0.889276,-0.0305 -1.720048,-0.32357 -0.830769,-0.29312 -2.006469,-0.52945 -2.612669,-0.52519 -1.34656,0.009 -3.6993,1.05045 -4.55812,2.01677 -0.62162,0.69942 -0.60814,0.71779 0.70555,0.96139 4.13615,0.76697 8.287472,5.08038 9.110202,9.46591 0.134171,0.71519 0.387879,1.21139 0.563797,1.10266 0.175918,-0.10872 0.247764,-0.31431 0.159657,-0.45687 z m 241.560744,-7.44841 c 4.29415,-2.72327 5.61961,-8.95488 2.89395,-13.60586 -3.22163,-5.49731 -11.14558,-6.49708 -15.49693,-1.95526 l -1.00412,1.04808 2.66712,2.59037 c 2.97772,2.89201 4.99729,6.46433 5.40895,9.5676 0.18817,1.41847 0.41448,1.84146 1.23494,2.30812 0.5525,0.31425 1.00556,0.69043 1.00678,0.83595 0.005,0.60865 1.74263,0.19188 3.28931,-0.789 z m -202.959283,-15.50401 c 0,-1.47453 -0.65899,-2.49241 -1.61362,-2.49241 -0.58863,0 -1.31658,-0.41734 -1.99983,-1.14652 -1.05324,-1.12406 -1.05881,-1.14883 -0.28435,-1.26366 0.55461,-0.0822 0.74168,-0.30172 0.62793,-0.73671 -0.12364,-0.47282 0.0407,-0.60875 0.69385,-0.57386 0.47073,0.0251 0.98012,0.24676 1.13198,0.49248 0.15186,0.24571 0.36762,-4.20514 0.47946,-9.89078 0.11185,-5.68565 0.14004,-10.40085 0.0627,-10.47823 -0.30319,-0.30319 -3.46684,1.15996 -4.53395,2.09689 -1.54615,1.35754 -2.88417,3.95688 -3.40053,6.60615 -0.56281,2.88763 -0.25441,9.90441 0.53266,12.11909 1.15518,3.25042 4.37483,5.9236 7.1572,5.9424 0.90115,0.006 1.14653,-0.13833 1.14653,-0.67484 z m -4.58611,-6.02018 c 0,-0.25871 0.10583,-0.36454 0.23518,-0.23519 0.12935,0.12935 0.12935,0.34102 0,0.47037 -0.12935,0.12935 -0.23518,0.0235 -0.23518,-0.23518 z m 157.24927,5.60243 c 2.90255,-1.4051 4.58519,-5.00668 4.91543,-10.52113 0.361173,-6.03113 -0.81402,-10.4209 -3.47141,-12.9669 -1.04061,-0.99699 -3.29284,-2.22274 -4.08414,-2.22274 -0.15562,0 -0.22218,4.80782 -0.14793,10.68403 0.11361,8.99078 0.0448,11.03601 -0.43395,12.90489 -0.8177,3.19181 -0.78773,3.35414 0.56911,3.08277 0.62594,-0.12518 1.81974,-0.5576 2.65289,-0.96092 z m -1.93499,-2.84564 c -0.0426,-0.56607 0.0413,-0.61582 0.45701,-0.27082 0.62311,0.51714 0.62652,0.56854 0.0522,0.78891 -0.27072,0.10389 -0.47831,-0.1073 -0.50925,-0.51809 z m 0.61348,-0.62639 c 0,-0.38345 1.40967,-1.77763 1.79738,-1.77763 0.13928,0 0.17067,0.31572 0.0698,0.70159 -0.10091,0.38587 -0.35115,0.59796 -0.55609,0.4713 -0.23209,-0.14344 -0.28766,-0.009 -0.14736,0.35674 0.1631,0.42502 0.0336,0.58704 -0.46921,0.58704 -0.38197,0 -0.69449,-0.15257 -0.69449,-0.33904 z m -0.70555,-0.74011 c 0,-0.20548 0.15875,-0.27549 0.35277,-0.15557 0.19403,0.11991 0.35278,0.28803 0.35278,0.3736 0,0.0856 -0.15875,0.15556 -0.35278,0.15556 -0.19402,0 -0.35277,-0.16811 -0.35277,-0.37359 z m 0.26514,-0.60411 c -0.49077,-0.10515 -0.52681,-0.21959 -0.17639,-0.5601 0.47975,-0.46618 2.02791,-0.68683 2.02791,-0.28902 0,0.43053 -1.21167,0.98621 -1.85152,0.84912 z m 0.6756,-0.66859 c -0.12935,-0.12935 -0.23519,-0.0235 -0.23519,0.23518 0,0.25871 0.10584,0.36454 0.23519,0.23519 0.12935,-0.12935 0.12935,-0.34102 0,-0.47037 z m 1.5287,-0.47037 c 0,-0.25871 0.10583,-0.36454 0.23519,-0.23519 0.12935,0.12935 0.12935,0.34102 0,0.47037 -0.12936,0.12935 -0.23519,0.0235 -0.23519,-0.23518 z m -154.16387,1.5875 c 0,-0.097 -0.0794,-0.17639 -0.17639,-0.17639 -0.097,0 -0.17639,0.0794 -0.17639,0.17639 0,0.097 0.0794,0.17639 0.17639,0.17639 0.097,0 0.17639,-0.0794 0.17639,-0.17639 z m -1.52871,-0.76435 c -0.12935,-0.12936 -0.23518,-0.0235 -0.23518,0.23518 0,0.2587 0.10583,0.36454 0.23518,0.23519 0.12935,-0.12936 0.12935,-0.34102 0,-0.47037 z m 77.37592,-75.96481 v -8.46667 h -1.05833 -1.05834 v 8.46667 8.46666 h 1.05834 1.05833 z m 3.73185,-14.65295 c 3.3079,-2.04052 4.947,-6.16578 3.88777,-9.78467 -1.12727,-3.85133 -4.41982,-6.2441 -8.60109,-6.2506 -2.59814,-0.004 -4.38488,0.655 -6.0168,2.21929 -1.9582899,1.87714 -2.6821599,3.60988 -2.6821599,6.42032 0,2.90272 0.78942,4.71264 2.8412599,6.51418 2.02001,1.77359 3.15082,2.14889 6.1613,2.04487 2.26825,-0.0784 2.93671,-0.25473 4.40972,-1.16339 z"
       id="path294" /></g></svg>
