<?xml version="1.0" encoding="UTF-8" standalone="no"?>
<!-- Created with Inkscape (http://www.inkscape.org/) -->

<svg
   width="225.73242mm"
   height="274.27356mm"
   viewBox="0 0 225.73244 274.27352"
   version="1.1"
   id="svg1"
   xml:space="preserve"
   xmlns="http://www.w3.org/2000/svg"
   xmlns:svg="http://www.w3.org/2000/svg"><defs
     id="defs1"><clipPath
       clipPathUnits="userSpaceOnUse"
       id="clipPath6"><path
         id="path7"
         style="fill:#ff0000;fill-opacity:1;fill-rule:nonzero;stroke:none;stroke-width:0.264583"
         d="M -175.07778,-16.057127 V 287.55793 H 124.54631 V -16.057127 Z m 132.7459,202.572647 c 0.210643,0.005 0.427212,0.0169 0.650089,0.0367 2.23823,0.19855 4.475655,0.4031 6.717938,0.55346 1.973313,0.11308 0.986628,0.0436 2.958475,0.20825 3.181295,0.26563 4.740125,1.85116 4.950601,3.46956 4.949923,1.63749 3.796379,7.35609 -2.592089,6.81354 -3.228716,-0.27422 -1.569593,-0.1301 -4.979024,-0.43357 -4.228209,-0.39317 -8.460616,-0.76265 -12.666927,-1.35341 -6.647387,-0.93358 -5.930551,-7.21034 0.03204,-7.20421 0.04685,5e-5 0.0972,0.004 0.144695,0.005 0.687229,-1.21692 2.304132,-2.15435 4.784204,-2.09548 z" /></clipPath><clipPath
       clipPathUnits="userSpaceOnUse"
       id="clipPath76"><path
         id="path77"
         style="fill:#ff0000;fill-opacity:1;fill-rule:nonzero;stroke:none;stroke-width:0.264583"
         d="M -133.83107,-122.52355 V 173.82063 H 122.97289 V -122.52355 Z M 13.574404,98.948202 c 2.788179,0.0507 4.135003,2.063798 3.398242,4.077268 0.199805,0.45372 0.374906,0.96736 0.517797,1.54461 1.07913,4.35948 0.671079,8.891 0.311608,13.31495 -0.351859,3.06036 -0.147137,1.57974 -0.604097,4.44366 -0.359666,2.25418 -1.333846,3.66838 -2.455664,4.32532 0.105138,0.36595 0.224724,0.72888 0.324528,1.09554 0.6273,2.23652 0.575201,4.47401 0.39429,6.75514 -0.137303,1.73129 -0.688065,2.99533 -1.427303,3.82199 -0.112477,0.41601 -0.170275,0.80219 -0.311092,1.25212 -0.184975,0.59102 -0.413327,1.1061 -0.670242,1.55856 0.741137,-0.23134 1.446982,-0.38145 2.064991,-0.37517 4.085002,0.0415 5.222724,4.75435 -0.02223,7.27138 -4.46677,2.14368 -9.303523,3.34693 -14.11903492,4.40955 -4.40876268,0.85156 -8.89238128,1.33053 -13.38264308,1.19269 -5.804014,-0.17807 -6.736297,-5.00293 -3.065447,-6.67298 -2.072987,-0.65744 -4.042852,-1.62261 -4.128947,-3.14709 -0.02802,-0.49633 0.0026,-0.90355 0.0341,-1.30897 -1.976731,-0.003 -3.95339,2.4e-4 -5.930386,0.003 -0.814031,0 -1.53062,-0.0962 -2.159559,-0.26149 -0.376306,0.19492 -0.742394,0.40783 -1.120862,0.59893 -6.391272,3.22657 -9.625245,-3.24074 -3.234428,-6.46886 1.833438,-0.92611 3.62694,-1.92211 5.414142,-2.92954 -0.877003,-3.87058 -1.368747,-7.83436 -1.323951,-11.80858 0.01651,-1.46304 0.376836,-2.54918 0.864547,-3.41426 -1.247357,-1.79999 -0.223805,-4.63069 3.842661,-5.68855 3.11826,-0.81116 6.282901,-1.39515 9.473837,-1.82211 -1.259816,-0.12657 -2.516182,-0.30233 -3.764627,-0.50177 -1.477002,-0.21985 -2.935575,-0.54305 -4.407482,-0.7891 -1.14214,-0.22954 -0.588502,-0.12004 -1.660882,-0.3297 -3.350244,-0.65501 -4.783278,-2.61088 -4.608504,-4.32997 -0.200179,-1.7721 1.333365,-3.52972 4.663799,-3.59461 v -5.3e-4 c 0.20954,-0.004 0.426035,-0.002 0.649571,0.008 1.77111,0.0772 3.528708,0.28204 5.26428,0.64027 1.655035,0.33225 3.314115,0.6481 4.955251,1.04439 1.244759,0.34858 2.51628,0.54538 3.7997689,0.6723 0.025956,0.002 0.052073,0.002 0.078034,0.004 0.4990888,-0.0371 0.9984105,-0.0743 1.4965495,-0.11317 1.346872,-0.12588 2.6913231,-0.25136 4.0457464,-0.24236 1.1278499,-0.0444 2.2567291,-0.10772 3.37498791,-0.26872 0.75719517,-0.11591 1.51142439,-0.25483 2.25722659,-0.4284 0.3616431,-0.12394 0.7240561,-0.24538 1.083138,-0.37775 0.3360393,-0.12388 0.6107589,-0.12825 0.9250071,-0.20723 0.1281086,-0.045 0.2583895,-0.0825 0.3855085,-0.13074 1.9825018,-0.7681 3.9540551,-1.56464 5.9510551,-2.29443 1.050809,-0.383992 1.999634,-0.542639 2.826703,-0.527616 z M 0.70283723,110.39557 c -0.45566013,0.0949 -0.90775367,0.208 -1.36890919,0.2744 -1.16638124,0.15534 -2.34111274,0.24237 -3.51761424,0.26251 0.4031694,0.0896 0.8047355,0.18876 1.2025101,0.308 0.1014836,0.0304 0.1982549,0.075 0.2986907,0.10852 0.4205235,-0.21824 0.9206601,-0.35072 1.4898318,-0.37156 0.39885139,-0.0146 0.83259872,0.0278 1.29449508,0.13023 0.22468681,-0.12213 0.44967525,-0.24374 0.67437529,-0.36587 -0.0326284,-0.11319 -0.058211,-0.22834 -0.0733795,-0.34623 z m 10.24433577,1.02474 c -0.76023,0.21437 -1.5189569,0.4343 -2.2696301,0.68006 -0.031261,0.62207 -0.2256075,1.28373 -0.6464723,1.94355 0.6236891,0.43248 1.2549743,1.04482 1.8634525,1.86862 0.2674939,0.36214 0.4748849,0.75712 0.7188199,1.13223 0.154519,-1.86707 0.314174,-3.74736 0.33383,-5.62446 z m 64.566086,3.39773 c 1.50346,0.0187 3.129182,1.24994 3.928441,4.04678 0.257931,0.90255 0.823497,1.65871 1.488797,2.30735 0.856321,0.95375 1.845738,1.76777 2.801898,2.61638 1.458581,1.46408 2.789203,3.04608 4.169772,4.58215 1.315059,1.44746 2.571226,2.91698 3.543967,4.61884 0.0053,0.01 0.0082,0.0206 0.01344,0.0305 0.734605,-0.43313 1.446276,-0.65634 2.094962,-0.69195 3.016182,-0.16561 4.69137,3.55377 1.187525,7.32306 -1.69471,1.82311 -3.657862,3.33908 -5.68751,4.7651 -0.777873,0.49914 -1.607691,0.90075 -2.418456,1.33842 0.165478,1.44344 -0.672182,3.24303 -2.956409,4.73096 -1.354556,0.88234 -2.690448,1.79306 -4.075203,2.6288 -2.075008,1.20078 -4.233777,2.27962 -6.540687,2.96259 -2.077586,0.62971 -4.169056,1.29987 -6.359301,1.36374 -1.872114,0.0897 -3.746989,0.0368 -5.620845,0.0501 h -5.1108 -5.524728 c -7.160125,0 -7.160125,-7.23315 0,-7.23315 h 1.347722 c 0.29438,-0.0541 0.5212,-0.1588 0.84801,-0.18656 1.106628,-0.094 2.200932,-0.28334 3.292822,-0.48421 0.456121,-0.98163 1.356053,-1.98213 2.807581,-2.83962 1.078018,-0.63685 2.158119,-1.26923 3.212209,-1.94561 1.962647,-1.29302 3.840588,-2.72135 5.893696,-3.86902 1.367169,-0.76424 2.559646,-1.07097 3.526915,-1.04128 2.216811,0.068 3.246223,1.90266 2.479953,4.04059 1.105688,-0.48686 2.206929,-0.98346 3.283003,-1.53739 2.619811,-1.23728 5.288743,-2.38548 7.764385,-3.9026 0.246153,-0.17184 0.487463,-0.34958 0.730705,-0.52503 -0.126915,-0.50614 -0.277693,-0.9939 -0.512114,-1.46554 -0.647621,-1.25778 -1.721077,-2.20654 -2.600875,-3.29644 -1.199229,-1.33472 -2.369312,-2.69496 -3.592029,-4.00803 -1.098706,-0.97599 -2.227236,-1.92181 -3.215306,-3.01428 -1.300821,-1.39063 -2.459913,-2.93896 -3.045293,-4.77801 -1.289469,-4.05101 0.646382,-6.61405 2.843754,-6.58667 z m -95.086705,4.28035 c -0.465643,0.10748 -0.930899,0.21773 -1.394745,0.33435 0.171958,0.64334 0.283575,1.36624 0.279569,2.2071 -0.01267,2.6582 0.205063,5.32647 0.670242,7.94732 0.280107,-0.17087 0.565767,-0.33222 0.845429,-0.50385 -0.01897,-0.36223 -0.02445,-0.73164 -0.05529,-1.08985 -0.118034,-2.96491 -0.160888,-5.93314 -0.3452,-8.89507 z m 18.5141159,1.1958 c 0.00497,0.0773 0.00619,0.15612 0.014975,0.23202 -0.1238779,0.22787 -0.2588048,0.44752 -0.3937741,0.66715 0.58900751,0.0447 1.13203305,0.21413 1.64331124,0.45888 -0.37615284,-0.49255 -0.78353709,-0.94642 -1.26452314,-1.35805 z m -6.5422357,14.57068 c -0.046649,0.0755 -0.09888,0.14702 -0.1436608,0.22376 -0.03147,0.054 0.1963367,0.0838 0.1860365,0.0222 -0.017595,-0.10481 -0.026035,-0.14905 -0.042376,-0.24597 z m 13.9236979,6.08439 c -0.2236258,0.5643 -0.5677508,1.09664 -1.1782213,1.50533 0.9079653,0.17659 1.7077452,0.44257 2.2830631,0.84852 0.1405493,-0.0459 0.272804,-0.11448 0.4128956,-0.16174 -0.7336976,-0.43656 -1.2984269,-1.18703 -1.5177374,-2.19211 z" /></clipPath><clipPath
       clipPathUnits="userSpaceOnUse"
       id="clipPath127"><path
         id="path128"
         style="fill:#ff0000;fill-opacity:1;fill-rule:nonzero;stroke:none;stroke-width:0.264583"
         d="M -112.24796,-126.55676 V 185.58027 H 148.5754 V -126.55676 Z M 46.874626,83.305366 c 1.808208,0 3.616317,1.790192 3.616317,5.370214 v 5.232238 c 0.0627,2.146078 -0.111291,4.285324 -0.245462,6.424932 -0.136289,2.02485 -0.190703,4.04985 -0.104904,6.07715 0.192061,1.91863 0.527714,3.82569 0.876432,5.72213 0.304242,2.00862 0.765826,3.9858 1.180806,5.97276 0.41642,1.86142 0.967934,3.68703 1.421104,5.53972 0.25287,0.86996 0.117097,0.46495 0.396356,1.22008 0.186108,0.50319 0.223428,0.93098 0.309544,1.38441 4.425355,2.23251 2.751262,7.58433 -3.415813,6.40477 -3.104732,-0.59371 -6.256094,-0.76586 -9.40821,-0.85576 -3.81635,0.009 -7.630525,0.17062 -11.44478,0.28216 -1.12776,0.0333 -2.255837,0.0512 -3.383772,0.0754 -0.908129,0.5548 -1.966518,0.57724 -2.88613,0.0641 -0.03584,5.3e-4 -0.07165,0.002 -0.107487,0.003 -0.03142,5.3e-4 -0.0525,-0.009 -0.08268,-0.009 -0.32049,0.14732 -0.641715,0.29301 -0.962215,0.44028 -0.262501,0.12062 -0.518089,0.22111 -0.770496,0.31265 -0.876996,0.71434 -1.945576,0.85817 -2.911967,0.46405 -2.943479,-0.21613 -4.295167,-2.77187 -2.550232,-5.0524 -2.22e-4,-0.028 -0.0078,-0.0483 -0.0078,-0.0765 v -6.3469 c -0.014,-2.72977 -0.02254,-5.45666 0.112657,-8.18348 0.135676,-2.32533 0.233519,-4.6523 0.299723,-6.98046 0.046,-1.80459 0.06926,-3.60958 0.08527,-5.41465 -0.0258,-1.02998 0.04009,-2.054459 0.138491,-3.078883 0.0044,-0.04602 0.02191,-0.07504 0.02687,-0.120406 C 15.992671,97.193438 15.83363,95.70984 16.656834,94.418959 10.68718,93.678613 10.992573,87.32947 17.739972,87.32947 h 3.885033 5.177462 5.913334 c 1.498505,0.05847 2.984222,-0.03228 4.475178,-0.161748 1.252041,-0.18606 2.49041,-0.398671 3.697968,-0.782897 1.001961,-0.32245 0.492366,-0.161472 1.527553,-0.482142 0.510384,-0.158096 0.938446,-0.174371 1.394749,-0.23771 0.672338,-1.56932 1.86623,-2.35903 3.063377,-2.35903 z" /></clipPath><clipPath
       clipPathUnits="userSpaceOnUse"
       id="clipPath139"><path
         id="path140"
         style="fill:#ff0000;fill-opacity:1;fill-rule:nonzero;stroke:none;stroke-width:0.264583"
         d="M 97.168006,-339.91235 V -44.578961 H 346.46958 V -339.91235 Z m 14.326254,94.53944 c 1.76488,0.006 3.77708,1.78446 4.35839,5.31699 0.32911,1.99994 0.60308,4.00817 0.88884,6.01462 1.02527,-1.2445 2.22305,-1.83589 3.28403,-1.8402 2.05627,-0.008 3.59454,2.17302 2.34611,6.00222 -0.0197,0.0606 -0.0413,0.12046 -0.0615,0.18087 0.31698,0.91799 0.41757,2.09982 0.17777,3.54139 -0.2164,1.30085 -0.62011,2.56457 -1.0263,3.8163 -1.34183,4.13496 -4.42238,4.92072 -6.12882,3.38016 -1.93867,0.62007 -4.30523,-0.86149 -4.65605,-4.82762 -0.16862,-1.90632 -0.33891,-3.81275 -0.57464,-5.71231 -0.45291,-3.52522 -1.07719,-7.02592 -1.48208,-10.55543 -0.40801,-3.55672 1.10935,-5.32303 2.87424,-5.31699 z" /></clipPath><clipPath
       clipPathUnits="userSpaceOnUse"
       id="clipPath170"><path
         id="path171"
         style="fill:#ff0000;fill-opacity:1;fill-rule:nonzero;stroke:none;stroke-width:0.264583"
         d="M 88.756261,-299.52331 V 17.880567 H 410.91541 V -299.52331 Z M 363.24287,-220.863 c 0.90345,-0.008 1.97628,0.23856 3.18532,0.82218 3.39402,1.63831 6.49674,3.81197 9.57823,5.96449 3.22509,2.31448 6.37511,4.73585 9.43663,7.26261 1.87296,1.50796 3.75989,2.99047 5.54284,4.6054 1.76167,1.54167 3.42262,3.17283 4.95419,4.94388 1.19316,1.48882 2.47049,2.9032 3.73311,4.33204 1.08043,1.20022 2.09423,2.45631 2.94299,3.83026 0.82616,1.73429 1.48968,3.55524 1.93786,5.42344 1.67031,6.96258 -5.76469,8.62686 -7.05745,1.5844 -0.21127,-1.15093 -0.75649,-2.20765 -1.10278,-3.32021 -0.52141,-1.02678 -1.43909,-1.82952 -2.14042,-2.72904 -1.28368,-1.45272 -2.58234,-2.89095 -3.79617,-4.40386 -1.32794,-1.55409 -2.79577,-2.95456 -4.33049,-4.3031 -1.69875,-1.54267 -3.51006,-2.94207 -5.29113,-4.38733 -2.90883,-2.40671 -5.90918,-4.70386 -8.97258,-6.91017 -2.63017,-1.83963 -5.2759,-3.68008 -8.12096,-5.17746 -5.14813,-2.7095 -4.41412,-7.50431 -0.49919,-7.53753 z m -17.79788,14.64304 c 0.81097,-0.004 1.74701,0.16947 2.79104,0.57154 4.59168,1.76834 8.99191,4.00303 13.38523,6.20892 0.37082,0.1876 0.72266,0.4088 1.09088,0.601 0.4155,-0.11565 0.91038,-0.17484 1.48572,-0.16691 0.65984,0.009 1.42523,0.10601 2.29753,0.30644 2.35556,0.54125 4.30075,1.95473 6.16344,3.42614 -1.07651,-2.72314 0.34142,-4.84679 2.57866,-4.84311 1.28683,0.002 2.83083,0.70484 4.29689,2.3952 2.44776,2.82227 4.79147,5.70892 6.96391,8.74934 1.67944,2.35043 1.72027,4.43615 0.89969,5.70663 1.5344,1.02281 3.07247,2.04019 4.58422,3.09645 1.80695,1.14136 3.31928,2.58833 4.72631,4.18269 0.96689,1.16625 2.0869,2.25988 2.79262,3.61942 0.19542,0.37651 0.34592,0.77482 0.51882,1.1622 0.40259,1.55462 0.27207,0.76263 0.38706,2.3766 0.0637,0.89436 -0.044,1.45412 -0.26977,1.7756 0.11753,0.20753 0.23421,0.41574 0.35608,0.62063 3.66003,6.15399 -2.6856,9.845 -6.25234,3.63648 -0.83209,-1.44832 -1.62388,-2.92102 -2.35437,-4.42351 -0.84839,-1.84687 -1.70402,-3.69055 -2.54093,-5.54229 -0.078,-0.17246 -0.14713,-0.34128 -0.2119,-0.5085 -0.415,-0.33988 -0.82071,-0.68775 -1.29707,-0.97255 -2.35545,-1.64933 -4.79565,-3.17384 -7.14841,-4.82761 -3.27895,-2.27743 -6.61384,-4.47194 -9.95804,-6.65231 -4.00886,-2.60003 -8.08797,-5.09434 -12.3548,-7.25434 -4.08429,-2.05175 -8.1752,-4.1242 -12.42663,-5.81101 -5.61546,-2.22804 -4.88331,-7.4129 -0.50384,-7.43314 z m -225.34594,21.50101 c 3.05551,-0.16929 4.03285,3.80875 0.35915,7.72563 -1.17612,1.25397 -2.32696,2.59265 -3.45922,3.90674 -1.44062,1.57315 -2.77631,3.23874 -4.13618,4.88135 -1.14319,1.4697 -2.29319,2.93265 -3.46335,4.38113 -0.8717,1.2084 -1.86054,2.32105 -2.81017,3.46594 -0.80685,0.95022 -1.53489,1.96075 -2.32234,2.92695 -0.80594,1.00684 -1.52017,2.08004 -2.22519,3.15847 -0.20511,0.28103 -0.29499,0.51935 -0.30179,0.78909 -0.18033,7.15787 -8.659963,5.5717 -7.093102,-1.4149 0.267098,-1.19094 0.644303,-2.32859 1.347721,-3.34243 0.846108,-1.28566 1.701136,-2.56663 2.670121,-3.76463 0.806525,-0.98525 1.5446,-2.0236 2.37453,-2.98999 0.93132,-1.109 1.88214,-2.2008 2.7342,-3.37448 1.18855,-1.47082 2.35327,-2.95822 3.51813,-4.44779 1.39067,-1.67946 2.758,-3.38112 4.2292,-4.99142 1.55862,-1.80675 3.07205,-3.68494 4.92528,-5.20227 1.38505,-1.13397 2.63451,-1.65096 3.65301,-1.70739 z m 30.4953,3.26389 c 4.11093,0.0973 5.25218,4.81763 -0.0434,7.22591 -1.93926,0.8819 -3.80509,1.88928 -5.66115,2.92437 0.381,1.39299 -0.23993,3.26566 -2.43035,4.98678 -2.3369,1.83618 -4.71607,3.61825 -7.08845,5.40845 -2.84267,2.19936 -5.66068,4.43162 -8.41086,6.74584 -2.22216,1.84972 -4.46469,3.67225 -6.66213,5.55109 -1.67979,1.46598 -3.37138,2.91821 -5.06067,4.37337 -1.40892,1.30469 -2.82191,2.592 -4.12274,4.00648 -1.07181,1.16531 -2.16701,1.83049 -3.17087,2.10529 -0.88357,6.53411 -7.65001,5.87099 -7.10344,-1.07177 0.0596,-0.75732 0.12015,-1.51435 0.21239,-2.26859 0.18237,-1.4495 0.31176,-2.90657 0.57051,-4.34444 0.56059,-2.2771 1.55106,-4.35314 3.32124,-5.95312 1.46716,-1.38711 2.94871,-2.75912 4.4943,-4.05919 1.45063,-1.21601 2.91967,-2.40825 4.4111,-3.57394 2.2284,-1.75259 4.48249,-3.46927 6.81044,-5.08961 3.1083,-2.16601 6.29001,-4.21936 9.5343,-6.17689 3.28252,-2.04598 6.49796,-4.19789 9.78648,-6.23476 2.38673,-1.38679 4.82146,-2.65715 7.33495,-3.79873 1.22236,-0.55516 2.32966,-0.77899 3.27836,-0.75654 z" /></clipPath><clipPath
       clipPathUnits="userSpaceOnUse"
       id="clipPath233"><path
         id="path234"
         style="fill:#ff0000;fill-opacity:1;fill-rule:nonzero;stroke:none;stroke-width:0.264583"
         d="M 185.24069,-319.24193 V -24.289387 H 425.09684 V -319.24193 Z m 138.35487,149.6534 c 1.78419,7.9e-4 3.63037,1.79012 3.80182,5.36608 0.0643,1.33996 -0.0719,2.65433 -0.29041,3.95842 0.27255,-0.0735 0.56767,-0.11689 0.88522,-0.12351 0.37047,-0.008 0.77026,0.0328 1.19579,0.12867 0.38629,-0.24279 0.8215,-0.42195 1.34254,-0.44493 1.13073,-0.0499 2.53823,0.47335 4.04474,1.80971 0.4186,0.37135 0.80759,0.77178 1.2056,1.16323 0.49581,-0.30652 1.09744,-0.47283 1.77559,-0.44028 1.18851,0.0571 2.59295,0.69888 3.98788,2.15129 2.63375,2.74227 4.82211,5.85047 6.92256,9.00669 2.43144,3.88376 4.79634,7.81591 6.98098,11.84475 1.13959,2.01485 2.36363,3.97199 3.24527,6.11746 0.86638,2.54168 0.71525,4.37292 -0.15348,6.88278 -0.88855,2.03627 -2.18951,3.83746 -3.64937,5.49682 -1.22616,1.21887 -2.44396,2.51198 -3.976,3.35587 -0.38219,0.21053 -0.79187,0.3659 -1.18803,0.54881 -6.50071,3.00135 -9.83602,-5.23462 -2.81948,-6.6611 1.07346,-0.21823 1.75532,-1.41088 2.56987,-2.0407 0.86323,-0.96375 1.62015,-2.00233 2.25208,-3.13417 0.24334,-0.63932 0.47847,-1.05078 0.24958,-1.76114 -0.42873,-1.13152 -1.03555,-2.17502 -1.65674,-3.21169 -0.64492,3.08426 -3.96214,3.78517 -6.03631,0.97152 -0.80928,1.85722 -3.53859,2.62684 -6.75775,0.30902 -0.53872,-0.38787 -1.07831,-0.77486 -1.61745,-1.1622 -3.08248,4.62545 -3.94671,5.04673 -6.74584,2.87063 -2.73204,-2.16473 -5.33615,-4.48821 -8.05999,-6.6642 -2.7461,-2.45053 -5.40757,-5.07957 -7.04763,-8.42635 -1.62115,-0.12575 -3.24178,-0.2569 -4.86637,-0.34314 -7.58719,-0.44787 -15.17743,-0.9445 -22.76553,-1.33377 -1.07801,-0.0553 -1.93227,-0.3045 -2.68459,-0.62166 -0.57677,0.62929 -1.1192,1.29485 -1.64021,1.97352 -1.38696,2.1585 -2.2854,4.54313 -3.09181,6.96185 -0.53658,1.90527 -0.93866,3.84574 -1.3658,5.77949 0.3976,-0.38181 0.79402,-0.76498 1.19114,-1.14825 1.44902,-1.39846 2.84121,-1.97983 3.98373,-1.97766 2.91995,0.006 4.20899,3.82009 0.64648,7.53391 -0.92629,0.96557 -1.9114,1.86859 -2.9099,2.75797 -1.78302,1.58814 -3.50499,2.03887 -4.81263,1.76372 -0.007,0.0412 -0.0189,0.0812 -0.0253,0.12247 -0.31138,2.1774 -0.34632,4.38158 -0.39739,6.57686 0.006,3.5147 -0.15426,7.02208 -0.44287,10.52391 -0.15049,2.45352 -0.52882,4.882887 -0.77928,7.326166 -0.25682,2.270699 -0.2357,4.548968 -0.1633,6.828007 0.0525,1.43787 0.0261,0.723201 0.0775,2.145088 7.9e-4,0.02175 -0.006,0.03573 -0.006,0.05736 0.13966,0.0486 0.27673,0.09115 0.42013,0.148309 3.73047,1.486969 7.59999,2.598727 11.41894,3.833876 4.85884,1.705695 9.66861,3.546912 14.50144,5.32474 1.9552,0.651698 3.84707,1.443672 5.71489,2.292366 2.6308,-0.638411 5.26049,-1.281708 7.89771,-1.893425 4.5737,-1.075436 2.35597,-0.547624 6.65438,-1.580782 0.65268,-0.156879 1.2592,-0.237268 1.81642,-0.252698 3.40876,-0.09437 4.96226,2.238663 4.05712,4.350639 3.89832,1.612736 3.00805,6.568553 -2.90269,6.729304 l -2.19726,0.05943 c 0.0932,0.05532 0.18872,0.106439 0.28112,0.163298 6.09814,3.752323 2.1299,10.065517 -3.84782,6.124173 -1.04591,-0.689594 -2.23735,-1.127543 -3.31556,-1.763197 -2.61015,-1.251701 -5.22853,-2.484003 -7.87136,-3.665926 -0.34703,-0.170111 -0.69536,-0.335955 -1.04283,-0.504362 -1.04394,0.228952 -2.09238,0.441277 -3.15071,0.537951 -0.41145,0.100483 -0.82417,0.195434 -1.23558,0.296105 -3.95687,0.968251 -6.08679,-0.907356 -5.97897,-3.010669 -0.31188,-0.687727 -0.239,-1.395294 0.0263,-2.059305 -3.87146,-1.438614 -7.73769,-2.891312 -11.63237,-4.265891 -3.97417,-1.285444 -7.99945,-2.446282 -11.87938,-4.000272 -1.44639,-0.579335 -2.44377,-1.350957 -3.06182,-2.17506 -1.01218,-0.798706 -1.81304,-2.231819 -1.89446,-4.484998 -0.0517,-1.431189 -0.0254,-0.705106 -0.0791,-2.177645 -0.0816,-2.602558 -0.0903,-5.205841 0.19844,-7.79849 0.24823,-2.394268 0.6146,-4.775082 0.76533,-7.179412 0.27808,-3.36008 0.42763,-6.72542 0.42064,-10.09809 0.0594,-2.5132 0.11189,-5.03614 0.48266,-7.52719 0.38072,-2.41928 0.90466,-4.80615 1.46451,-7.18974 0.6701,-2.94551 1.25825,-5.91529 2.11305,-8.81393 1.0668,-3.18776 2.31041,-6.31647 4.23489,-9.10074 0.42128,-0.53977 0.8547,-1.07136 1.29914,-1.59215 -1.52816,-0.60355 -3.06641,-1.18197 -4.57646,-1.83141 -1.09038,3.76762 -2.19021,7.53001 -3.40755,11.25926 -1.05961,2.97655 -0.54118,1.54568 -1.55081,4.2938 -1.83358,4.9908 -6.03644,4.88509 -7.07398,1.75544 -2.82634,3.52841 -7.50378,1.0111 -5.57744,-4.75268 1.05408,-3.1537 2.2385,-6.34595 4.49688,-8.85837 1.49582,-1.66408 2.97572,-2.34765 4.17287,-2.32647 0.33252,0.006 0.64298,0.0664 0.92604,0.17518 0.46945,-1.58214 0.96416,-3.15651 1.43919,-4.7377 0.70062,-2.33196 1.93737,-3.52641 3.18689,-3.8871 0.54142,-0.34307 1.25019,-0.55529 2.11615,-0.57361 h 5.3e-4 c 0.8057,-0.017 1.74503,0.13149 2.80396,0.49248 0.31645,0.10788 0.63769,0.20324 0.94929,0.32401 1.83624,0.71133 3.60046,1.59642 5.43016,2.32544 1.18096,0.47048 2.26953,0.84228 3.35329,1.23145 0.62902,-0.20883 1.22424,-0.32846 1.76785,-0.35037 2.28614,-0.0921 3.73455,1.32842 3.67523,3.07682 1.73917,0.0925 3.47854,0.18832 5.21777,0.2899 -0.1345,-1.7899 1.43141,-3.54652 4.54959,-3.56619 0.39587,-0.002 0.816,0.0231 1.25987,0.0801 3.99155,0.51285 7.97638,1.04608 11.94346,1.72703 0.35092,0.0747 0.7018,0.14913 1.05265,0.22376 0.92028,-2.09088 2.0607,-3.80586 3.79408,-5.38675 0.9172,-0.8245 1.6747,-1.80494 2.07378,-2.98587 0.46483,-1.35061 0.4893,-2.77914 0.4594,-4.19561 h 5.3e-4 c -0.0754,-3.57927 1.64663,-5.36691 3.4308,-5.36608 z m 1.97559,14.00741 c -0.78838,1.39934 -1.79816,2.66075 -2.96984,3.79512 -1.06213,0.94584 -1.80404,2.02586 -2.28153,3.3538 -0.003,0.012 -0.005,0.0237 -0.009,0.0357 1.15411,0.11311 2.30814,0.22665 3.4613,0.3514 3.99042,0.43171 5.40747,2.84663 4.69323,4.76353 0.67585,0.41545 1.35041,0.83313 2.01954,1.25626 3.82278,2.5036 7.53266,5.1715 11.24013,7.84086 -1.81731,-3.68096 -3.93583,-7.19476 -6.36087,-10.5146 -1.10355,-1.48555 -2.20805,-3.00054 -3.36206,-4.44883 -0.35653,-0.44747 -1.7607,-2.16704 -2.34455,-2.70784 -0.36042,-0.33384 -0.93237,-0.68033 -1.36375,-0.9555 -1.33122,-0.84918 -2.21667,-1.81673 -2.72282,-2.76986 z" /></clipPath><clipPath
       clipPathUnits="userSpaceOnUse"
       id="clipPath240"><path
         id="path241"
         style="fill:#ff0000;fill-opacity:1;fill-rule:nonzero;stroke:none;stroke-width:0.264583"
         d="M 92.804184,-309.23338 V -41.629034 H 294.29938 V -309.23338 Z m 130.496946,63.74443 c 0.93337,0.009 2.02072,0.27397 3.21944,0.8785 1.75312,0.88412 3.43212,1.89553 5.06326,2.98586 5.9527,3.97906 1.8926,10.01797 -4.03542,6.00222 -1.36849,-0.92705 -2.78857,-1.76849 -4.26227,-2.51871 -5.18448,-2.63926 -4.02961,-7.38891 0.015,-7.34787 z m -85.24544,1.99626 c 3.36772,-0.0906 4.87054,3.93317 0.67437,7.28431 -0.81214,0.6486 -0.42273,0.34746 -1.1653,0.9064 -1.7275,1.42217 -3.47209,2.82263 -5.29477,4.12275 -2.09112,1.47372 -4.25636,2.82668 -6.45645,4.13153 -6.15846,3.65253 -10.39165,-1.95967 -4.33979,-5.78621 2.21999,-1.40367 4.47897,-2.73503 6.6244,-4.25349 1.67688,-1.19734 3.27994,-2.48915 4.86947,-3.79821 0.91499,-0.69918 0.50268,-0.37435 1.24076,-0.9679 1.39493,-1.12177 2.72473,-1.60899 3.84731,-1.63918 z" /></clipPath></defs><g
     id="layer1"
     transform="translate(125.8045,323.28411)"><path
       style="fill:#000000"
       d="m -32.495584,-49.231863 c -3.56353,-0.892344 -7.67282,-4.024814 -10.71909,-8.171062 -4.27077,-5.81291 -7.76566,-14.222703 -7.87484,-18.949322 -0.037,-1.600625 -0.29762,-2.391366 -1.40376,-4.25865 -2.57391,-4.345044 -3.85027,-9.327054 -3.85387,-15.042774 l -0.002,-3.93028 -4.14514,-1.505949 c -3.78879,-1.37649 -9.21508,-3.83486 -10.18554,-4.61455 -0.28227,-0.22678 0.10031,-1.60777 1.33262,-4.81019 2.02591,-5.26476 4.17862,-11.18502 4.17862,-11.4918 0,-0.11832 -1.40987,1.28247 -3.13305,3.11288 -3.22661,3.4274 -8.08026,8.10648 -9.28223,8.94838 -0.58575,0.41027 -0.78839,0.38745 -1.45285,-0.16364 -1.88335,-1.56201 -3.77076,-3.49003 -3.77076,-3.85188 0,-0.21702 1.1108,-1.87775 2.46844,-3.69052 1.35764,-1.81277 2.40512,-3.35926 2.32773,-3.43665 -0.0774,-0.0774 -1.66244,0.9129 -3.52233,2.20064 l -3.38162,2.34136 -1.93824,-1.83311 -1.93824,-1.83311 3.41338,-3.74732 c 1.87735,-2.06102 4.61287,-4.99601 6.07893,-6.52218 1.46606,-1.52618 2.50681,-2.7168 2.31278,-2.64584 -0.19403,0.071 -1.8609,1.02523 -3.70417,2.12057 -5.12866,3.04767 -12.1638,6.44462 -12.823,6.19166 -0.71291,-0.27357 -2.74325,-3.408 -3.89606,-6.01471 l -0.8638,-1.95321 2.31015,-0.76877 c 3.12109,-1.03863 12.4852,-5.78974 17.0366,-8.64395 2.03729,-1.27759 3.38667,-2.24158 2.99861,-2.1422 -3.56509,0.91301 -10.55514,1.85595 -18.71927,2.52517 l -2.84428,0.23315 -1.35875,-1.35378 c -1.701486,-1.69527 -3.397516,-4.00569 -3.188616,-4.3437 0.087,-0.14077 1.37661,-0.35894 2.865786,-0.48482 6.42862,-0.54342 18.97602,-3.67756 28.69734,-7.16813 l 4.74665,-1.70435 0.91442,-2.69672 c 0.50293,-1.48319 1.35602,-3.36403 1.89577,-4.17964 0.92969,-1.40485 0.98453,-1.71328 1.04171,-5.85835 0.0332,-2.40649 0.0426,-4.37533 0.0209,-4.37522 -0.0217,1.1e-4 -1.05354,0.4545 -2.29305,1.00975 -3.75702,1.68299 -7.057,2.344 -11.60227,2.324 -5.61781,-0.0247 -10.24409,-1.49112 -15.61661,-4.95004 -4.40814,-2.83803 -10.153466,-8.23501 -12.352606,-11.60364 -0.85091,-1.30342 -1.19143,-1.53255 -2.55546,-1.71951 -2.21793,-0.304 -4.62804,-1.63503 -6.75076,-3.72825 -2.23202,-2.201 -3.30283,-4.32773 -3.54967,-7.05 l -0.18786,-2.0717 -1.84392,-0.15291 c -6.34863,-0.52648 -9.42876,-7.53926 -5.35115,-12.1834 1.17085,-1.33352 3.40488,-2.53953 4.72819,-2.55245 0.43656,-0.004 0.79375,-0.14717 0.79375,-0.31758 0,-0.17041 1.04505,-1.43859 2.32234,-2.81818 4.00144,-4.32192 8.7486,-5.90342 13.10789,-4.36684 1.11774,0.39399 2.79333,0.81068 3.723516,0.92598 3.8877,0.4819 10.31676,3.27654 15.68506,6.81811 2.8856,1.90368 10.82609,9.31598 12.7554,11.90692 0.56605,0.76015 0.90725,0.95181 1.25608,0.70555 0.26341,-0.18595 1.8243,-1.2677 3.46865,-2.40389 l 2.98972,-2.06579 0.14094,-2.21339 c 0.17564,-2.75845 1.30663,-4.42407 3.59829,-5.29926 1.37377,-0.52465 1.60841,-0.77742 1.99137,-2.14523 0.23877,-0.85279 0.82004,-1.96693 1.29172,-2.47588 0.84622,-0.91309 0.84832,-0.93187 0.158,-1.41539 -2.14892,-1.50515 -5.55496,-4.73243 -6.98331,-6.61678 -3.00238,-3.96089 -5.41123,-10.2198 -5.41123,-14.05996 0,-1.47026 -0.13204,-1.72809 -1.3988,-2.73138 -2.79999,-2.21764 -4.5283,-7.53393 -4.08969,-12.57993 0.75634,-8.70138 5.75201,-16.53466 11.56935,-18.1409 1.04743,-0.28921 1.36474,-0.71241 2.92683,-3.90354 0.96361,-1.96854 2.48799,-4.77261 3.38751,-6.23126 1.62361,-2.63285 1.63165,-2.66128 1.1072,-3.91647 -0.3519,-0.8422 -0.46026,-1.83878 -0.32454,-2.98469 0.17294,-1.46026 0.0752,-1.88888 -0.64669,-2.8353 -1.69956,-2.22824 -1.80974,-5.90722 -0.26637,-8.89412 0.70876,-1.37166 2.94758,-3.67076 3.57452,-3.67076 0.1609,0 0.39414,-0.74121 0.51831,-1.64714 0.48072,-3.50722 3.50184,-6.43769 6.22483,-6.03804 0.86377,0.12678 1.21581,-0.0719 2.11907,-1.19588 1.55171,-1.93089 2.83819,-2.49859 5.23563,-2.31038 1.09407,0.0859 2.30672,0.26194 2.69478,0.39123 0.54602,0.18191 0.87744,-0.0335 1.46576,-0.95264 1.36688,-2.13552 5.27427,-3.27738 8.06422,-2.35662 0.72708,0.23996 1.91634,0.97327 2.6428,1.62959 1.2072,1.09063 1.36259,1.14286 1.80598,0.60707 1.47561,-1.78314 5.95484,-2.42378 8.59901,-1.22987 l 1.41111,0.63715 1.68614,-1.15552 c 2.7149996,-1.86061 6.0027596,-2.01484 8.3836996,-0.39328 0.91574999,0.62368 1.80312999,1.66207 1.94190999,2.27237 0.01,0.0419 0.80327001,-0.32721 1.76389001,-0.82015 2.41433,-1.23891 5.16835,-1.0742 7.31279,0.43733 1.4911204,1.05105 1.5099204,1.05421 2.5453304,0.42792 1.50313,-0.9092 3.80858,-1.16503 5.70752,-0.63337 1.56961,0.43947 3.8336,2.23144 4.59344,3.63575 0.33686,0.62258 0.40948,0.62541 1.50555,0.0586 2.9811,-1.54159 7.04562,-0.9101 9.33859,1.45089 1.14209,1.17598 1.21925,1.19957 2.77985,0.84983 4.05258,-0.9082 8.27723,1.72973 9.21213,5.75218 0.21023,0.90453 0.32852,0.97476 1.18826,0.70555 0.52513,-0.16443 1.90729,-0.28842 3.07146,-0.27553 3.62116,0.0401 6.60913,2.18767 7.40503,5.32225 l 0.42507,1.6741 1.79812,-0.0954 c 3.44004,-0.18259 6.70157,2.17936 7.525,5.44947 0.3524,1.39952 0.60757,1.70016 2.0735,2.443 3.10108,1.57144 4.47495,4.08 4.11969,7.52216 -0.18716,1.81337 -0.12422,2.04079 0.88196,3.18676 1.4908,1.69794 2.12687,3.38739 2.14067,5.68578 0.0201,3.34656 -1.47263,5.88807 -4.17153,7.10242 -1.30599,0.58763 -1.49208,0.83972 -2.01902,2.735 -0.59653,2.14559 -1.40235,3.08642 -3.72987,4.35477 -0.99514,0.54229 -1.10388,0.76614 -1.11397,2.29306 -0.006,0.93066 -0.23613,3.35898 -0.51108,5.39627 l -0.4999,3.70416 1.48422,1.27755 c 2.90709,2.50228 4.32942,7.06773 3.9982,12.83356 -0.25581,4.45316 -0.96915,7.27839 -2.85032,11.28889 -2.79175,5.9518 -6.72851,9.08059 -11.50328,9.14236 l -2.30861,0.0299 -1.39009,1.88903 c -2.6835,3.64667 -7.89322,7.89581 -11.22574,9.15592 -0.80529,0.3045 -1.5117,0.58441 -1.5698,0.62201 -0.0581,0.0376 0.29595,0.66014 0.78677,1.3834 0.49082,0.72326 0.99489,2.08763 1.12015,3.03195 0.18594,1.40169 0.44692,1.88409 1.42136,2.62734 2.45058,1.86915 3.3065,5.50703 1.93017,8.20371 -0.76752,1.50382 -1.50278,2.21783 -3.13588,3.04524 -0.63693,0.3227 -1.0854,0.7043 -0.99659,0.84799 0.0888,0.1437 0.006,0.98812 -0.18302,1.87649 -0.34407,1.61323 -0.34159,1.61954 2.00531,5.10357 1.2924,1.9186 2.46309,3.61106 2.60154,3.76103 0.13846,0.14997 1.6389,-0.43515 3.33433,-1.30026 4.03818,-2.06052 7.90531,-3.51904 12.71171,-4.7943 5.53081,-1.46747 9.63362,-2.05925 17.27667,-2.49197 l 6.66411,-0.3773 2.2159,1.09089 c 2.75301,1.3553 5.54247,4.30681 6.90792,7.30921 0.57219,1.25816 1.27722,2.26933 1.66895,2.39366 2.64969,0.84098 5.32493,4.4926 5.33251,7.27871 0.006,2.07266 -1.3661,4.21814 -3.53152,5.52354 -1.70243,1.02629 -2.18324,1.14653 -4.58475,1.14653 h -2.68287 l -0.64337,2.14779 c -1.61695,5.39801 -8.5813,9.52136 -14.26198,8.44404 -1.02482,-0.19435 -1.9896,-0.43142 -2.14395,-0.52682 -0.15436,-0.0954 -1.58797,0.61227 -3.18579,1.57259 -1.59783,0.96032 -4.15151,2.22669 -5.67485,2.81415 -2.96324,1.14274 -9.17608,2.82583 -10.45068,2.83114 -0.42511,0.002 -0.86049,0.1449 -0.96751,0.31806 -0.32887,0.53212 10.74719,3.20573 13.33274,3.21834 2.04538,0.01 2.20567,0.365 1.29746,2.87387 -0.91808,2.53616 -2.26178,5.32197 -3.22783,6.69206 l -0.65452,0.92827 -2.32337,-0.48702 c -3.80253,-0.79707 -8.9118,-2.627 -12.85765,-4.60507 l -3.70417,-1.85691 2.11667,1.97578 c 2.92001,2.72566 8.12603,6.86201 10.38916,8.25453 l 1.88309,1.15867 -1.27328,1.16687 c -1.06583,0.97676 -1.46206,1.13391 -2.43196,0.96454 -4.71536,-0.82341 -11.73066,-4.50091 -16.13929,-8.4604 l -1.92784,-1.73143 1.22228,1.75818 c 1.7231,2.47857 8.21097,8.90962 10.83548,10.74058 1.21267,0.846 2.20486,1.66466 2.20486,1.81924 0,0.3181 -3.62824,3.16257 -4.87291,3.82027 -0.72958,0.38552 -0.99023,0.28855 -2.46229,-0.91606 -3.76095,-3.07761 -8.84403,-8.32093 -12.16028,-12.54362 -1.94467,-2.47621 -3.60413,-4.5022 -3.6877,-4.5022 -0.14845,0 0.68113,1.52817 3.54293,6.52639 3.20467,5.59706 8.86372,13.6904 10.11212,14.46195 0.85047,0.52563 0.17801,1.32372 -2.37812,2.82243 -1.50372,0.88166 -2.91899,1.56023 -3.14504,1.50793 -0.60511,-0.13999 -3.76219,-4.11056 -7.15744,-9.00169 -1.64029,-2.36297 -3.02414,-4.25451 -3.07522,-4.20343 -0.17578,0.17578 2.99623,11.34933 3.90893,13.76939 1.03483,2.74388 1.0232,2.69203 0.60376,2.69203 -0.17058,0 -1.20619,0.41022 -2.30135,0.9116 l -1.9912,0.9116 1.74728,1.911799 c 2.64337,2.89227 3.31623,5.014 3.12274,9.84694 -0.17898,4.47039 -1.34437,8.477325 -3.88701,13.3646 -3.02532,5.815049 -9.3868,13.054215 -13.78621,15.688276 -4.0685904,2.435994 -6.0572904,3.045676 -9.9418004,3.047888 -3.28433001,0.0019 -3.70201001,-0.08011 -5.88603,-1.155301 -2.15429,-1.060553 -5.57182,-4.160753 -5.57182,-5.054451 0,-0.80417 -0.72064,-0.109863 -2.3189796,2.234264 -3.52375,5.167902 -9.02978,9.904434 -13.42523,11.548986 -2.26244,0.846485 -6.10486,1.181867 -8.02676,0.700606 z m 8.02962,-4.923649 c 4.12532,-2.112753 9.49678,-7.609401 12.92196,-13.22311 1.7832596,-2.922685 2.6047696,-5.173311 3.2159196,-8.810463 0.81218,-4.833563 -0.48825,-8.255986 -4.0171796,-10.572296 -1.73744,-1.14041 -4.69062,-2.30278 -7.17975,-2.82594 l -1.099,-0.23098 -0.16651,2.59454 c -0.21197,3.30291 -1.70545,6.261905 -4.4065,8.730519 -3.51342,3.211069 -8.09868,4.926669 -13.18628,4.933713 -3.39607,0.0047 -5.67746,-0.608768 -8.00034,-2.151307 -1.78829,-1.18754 -1.80602,-1.098497 -0.60578,3.04325 1.82329,6.291805 5.49676,12.570266 9.64355,16.482134 2.94418,2.777397 4.56503,3.455149 7.99454,3.342897 2.04271,-0.06686 2.9045,-0.298468 4.88537,-1.312957 z m 8.82849,-9.57656 c -0.15595,-0.252342 -0.0968,-0.311525 0.15557,-0.155569 0.22401,0.138444 0.40729,0.321722 0.40729,0.407285 0,0.294266 -0.31152,0.154949 -0.56286,-0.251716 z m -4.02325,-5.06077 c 0,-0.09701 0.0794,-0.176389 0.17638,-0.176389 0.097,0 0.17639,0.07937 0.17639,0.176389 0,0.09701 -0.0794,0.176389 -0.17639,0.176389 -0.097,0 -0.17638,-0.07937 -0.17638,-0.176389 z m 7.90381,-1.28923 c -0.15596,-0.252341 -0.0968,-0.311524 0.15557,-0.155569 0.40666,0.251334 0.54598,0.562854 0.25171,0.562854 -0.0856,0 -0.26884,-0.183278 -0.40728,-0.407285 z m -1.41094,-1.407936 c -0.66844,-0.75283 -0.66779,-0.754655 0.12171,-0.340365 0.43656,0.229087 0.79375,0.569686 0.79375,0.756887 0,0.50117 -0.16887,0.424338 -0.91546,-0.416522 z m -1.20121,-0.830612 c 0,-0.09701 0.0794,-0.176389 0.17639,-0.176389 0.097,0 0.17639,0.07937 0.17639,0.176389 0,0.09701 -0.0794,0.176389 -0.17639,0.176389 -0.097,0 -0.17639,-0.07937 -0.17639,-0.176389 z m -0.70555,-0.705555 c 0,-0.09701 0.0794,-0.176389 0.17638,-0.176389 0.097,0 0.17639,0.07937 0.17639,0.176389 0,0.09701 -0.0794,0.176389 -0.17639,0.176389 -0.097,0 -0.17638,-0.07937 -0.17638,-0.176389 z m -1.05834,-0.705556 c 0,-0.09701 0.0794,-0.176389 0.17639,-0.176389 0.097,0 0.17639,0.07937 0.17639,0.176389 0,0.09701 -0.0794,0.176389 -0.17639,0.176389 -0.097,0 -0.17639,-0.07937 -0.17639,-0.176389 z m -1.05833,-0.705555 c 0,-0.09701 0.0794,-0.176389 0.17639,-0.176389 0.097,0 0.17639,0.07937 0.17639,0.176389 0,0.09701 -0.0794,0.176389 -0.17639,0.176389 -0.097,0 -0.17639,-0.07937 -0.17639,-0.176389 z m -0.70556,-0.352778 c 0,-0.09701 0.0794,-0.176389 0.17639,-0.176389 0.097,0 0.17639,0.07937 0.17639,0.176389 0,0.09701 -0.0794,0.176389 -0.17639,0.176389 -0.097,0 -0.17639,-0.07937 -0.17639,-0.176389 z m -0.70555,-0.352778 c 0,-0.09701 0.0794,-0.176389 0.17639,-0.176389 0.097,0 0.17639,0.07937 0.17639,0.176389 0,0.09701 -0.0794,0.176389 -0.17639,0.176389 -0.097,0 -0.17639,-0.07937 -0.17639,-0.176389 z m -6.70278,-0.352777 c 0,-0.09701 0.0794,-0.176389 0.17639,-0.176389 0.097,0 0.17639,0.07937 0.17639,0.176389 0,0.09701 -0.0794,0.176388 -0.17639,0.176388 -0.097,0 -0.17639,-0.07937 -0.17639,-0.176388 z m 5.78715,-0.230897 c -0.15596,-0.252341 -0.0968,-0.311524 0.15557,-0.155568 0.40666,0.251333 0.54598,0.562853 0.25171,0.562853 -0.0856,0 -0.26884,-0.183278 -0.40728,-0.407285 z m -0.84826,-0.474659 c 0,-0.09701 0.0794,-0.176389 0.17639,-0.176389 0.097,0 0.17639,0.07937 0.17639,0.176389 0,0.09701 -0.0794,0.176389 -0.17639,0.176389 -0.097,0 -0.17639,-0.07937 -0.17639,-0.176389 z m -0.70556,-0.352778 c 0,-0.09701 0.0794,-0.176389 0.17639,-0.176389 0.097,0 0.17639,0.07937 0.17639,0.176389 0,0.09701 -0.0794,0.176389 -0.17639,0.176389 -0.097,0 -0.17639,-0.07937 -0.17639,-0.176389 z m -1.41111,-0.705555 c 0,-0.09701 0.0794,-0.176389 0.17639,-0.176389 0.097,0 0.17639,0.07937 0.17639,0.176389 0,0.09701 -0.0794,0.176389 -0.17639,0.176389 -0.097,0 -0.17639,-0.07937 -0.17639,-0.176389 z m 28.7476296,15.519355 c 3.34116,-1.178806 6.5726004,-3.466698 10.1047604,-7.154263 3.93679,-4.110014 5.57947,-6.332169 7.48763,-10.128981 2.05735,-4.093684 3.16803,-8.072924 3.20018,-11.465274 0.0336,-3.54382 -1.26507,-6.28339 -3.84371,-8.1085 -1.5209,-1.07645 -2.03746,-1.24456 -3.91422,-1.27379 -1.18916,-0.0185 -2.34947,-0.149469 -2.57848,-0.291009 -0.229,-0.14153 -1.28542,-0.34702 -2.34758,-0.45665 l -1.93121,-0.19932 v 2.481639 c 0,6.26444 -3.5693004,11.92548 -9.4760804,15.029401 -1.98030001,1.040623 -6.00383,2.294845 -7.49738,2.3371 -0.11908,0.0034 -0.30277,1.474563 -0.40821,3.26932 -0.11675,1.987486 -0.56451,4.53529 -1.14533,6.51715 l -0.95365,3.253956 0.9559,1.63111 c 2.87951,4.913515 7.01401999,6.439795 12.34738,4.558111 z m 12.6988104,-13.79331 c -0.5419,-0.710473 -0.77382,-1.221283 -0.51537,-1.135133 0.25845,0.08615 0.64,0.464689 0.84789,0.841196 0.20789,0.376507 0.53214,0.794989 0.72055,0.92996 0.1884,0.134971 0.25023,0.337729 0.13738,0.450574 -0.11284,0.112845 -0.64854,-0.376124 -1.19045,-1.086597 z m -1.22977,-1.726045 c 0,-0.09701 0.0794,-0.176389 0.17639,-0.176389 0.097,0 0.17638,0.07937 0.17638,0.176389 0,0.09701 -0.0794,0.176389 -0.17638,0.176389 -0.097,0 -0.17639,-0.07937 -0.17639,-0.176389 z m -0.70556,-0.705556 c 0,-0.09701 0.0794,-0.176389 0.17639,-0.176389 0.097,0 0.17639,0.07937 0.17639,0.176389 0,0.09701 -0.0794,0.176389 -0.17639,0.176389 -0.097,0 -0.17639,-0.07937 -0.17639,-0.176389 z m -8.4666604,-8.466667 c 0,-0.097 0.0794,-0.17639 0.17638,-0.17639 0.097,0 0.17639,0.0794 0.17639,0.17639 0,0.097 -0.0794,0.17639 -0.17639,0.17639 -0.097,0 -0.17638,-0.0794 -0.17638,-0.17639 z m 9.1722204,-10.40694 c 0,-0.19403 0.16812,-0.35278 0.37359,-0.35278 0.20548,0 0.27549,0.15875 0.15557,0.35278 -0.11991,0.19403 -0.28803,0.35278 -0.37359,0.35278 -0.0856,0 -0.15557,-0.15875 -0.15557,-0.35278 z m -4.23334,-0.52917 c 0,-0.097 0.0794,-0.17639 0.17639,-0.17639 0.097,0 0.17639,0.0794 0.17639,0.17639 0,0.097 -0.0794,0.17639 -0.17639,0.17639 -0.097,0 -0.17639,-0.0794 -0.17639,-0.17639 z m 1.76389,0 c 0,-0.097 0.0794,-0.17639 0.17639,-0.17639 0.097,0 0.17639,0.0794 0.17639,0.17639 0,0.097 -0.0794,0.17639 -0.17639,0.17639 -0.097,0 -0.17639,-0.0794 -0.17639,-0.17639 z m -49.16146,20.606528 c 1.98636,-0.604946 5.41702,-2.221315 5.41702,-2.552248 0,-0.04622 -0.55562,-1.401471 -1.23472,-3.011673 -1.63794,-3.883707 -1.53712,-4.129317 0.18816,-0.458395 0.76063,1.6184 1.52777,2.8884 1.70477,2.822222 0.17701,-0.06618 0.90646,-0.823667 1.62101,-1.68331 3.24726,-3.906604 3.4735,-6.475024 0.9161,-10.400264 -0.83287,-1.27834 -1.63456,-2.32425 -1.78155,-2.32425 -0.14698,0 -0.36581,0.49283 -0.48628,1.09518 l -0.21903,1.09518 -2.86013,-0.25318 -2.86012,-0.25318 0.22573,0.8337 c 0.1993,0.7361 0.16096,0.72013 -0.32759,-0.13645 -0.4366,-0.76548 -0.81143,-0.97014 -1.77678,-0.97014 -1.41417,0 -1.37084,0.23936 -0.71911,-3.97254 0.27738,-1.79267 0.60577,-4.450029 0.72974,-5.905229 l 0.2254,-2.64584 -1.02439,2.11667 c -0.88443,1.82745 -2.37858,5.444999 -3.00173,7.267569 -0.17376,0.50824 -0.50535,0.51826 -3.31115,0.1001 -1.71493,-0.25559 -3.99117,-0.76708 -5.05833,-1.13664 -1.91414,-0.66288 -1.93917,-0.68966 -1.85848,-1.988 0.045,-0.72383 0.79782,-3.403379 1.67297,-5.954549 1.76429,-5.14312 1.69689,-5.13467 -1.98102,0.24848 -3.05379,4.46965 -3.46097,5.515649 -3.47016,8.914329 -0.0192,7.09852 3.67476,15.495368 7.99001,18.162338 2.99075,1.84839 7.23749,2.221165 11.27966,0.99012 z m 2.24202,-9.670418 c 0,-0.097 0.0794,-0.17639 0.17639,-0.17639 0.097,0 0.17639,0.0794 0.17639,0.17639 0,0.097 -0.0794,0.17639 -0.17639,0.17639 -0.097,0 -0.17639,-0.0794 -0.17639,-0.17639 z m -1.41111,-4.05694 c 0,-0.25871 0.10583,-0.36454 0.23519,-0.23519 0.12935,0.12935 0.12935,0.34102 0,0.47037 -0.12936,0.12935 -0.23519,0.0235 -0.23519,-0.23518 z m 34.6554096,4.85366 c 1.11291,-0.58634 2.62104,-1.58999 3.35139,-2.23033 l 1.32792,-1.16425 -0.85014,-1.52329 c -1.74122,-3.11991 -2.5494,-4.2049 -3.3624,-4.514 -0.62665,-0.23825 -0.92754,-0.741 -1.20585001,-2.01477 -0.20397,-0.93351 -0.67092,-2.57042 -1.03767,-3.637579 -0.55986,-1.62903 -0.8029,-1.94028 -1.51509999,-1.94028 -0.83888,0 -0.84938,0.0434 -0.94749,3.911039 l -0.0992,3.91104 -2.8994,0.63452 c -1.59467,0.34898 -4.05034,0.71333 -5.4570396,0.80966 -2.55758,0.17514 -2.55764,0.17512 -2.55764,-0.73238 0,-0.49913 -0.15875,-1.00563 -0.35278,-1.12554 -0.20981,-0.12967 -0.35278,0.28808 -0.35278,1.03079 0,1.03547 -0.1496,1.28637 -0.87566,1.4686 -0.7699,0.19323 -0.54623,0.37964 1.85209,1.54348 3.5295296,1.7128 5.9948896,3.70752 7.3023196,5.9083 l 1.0468,1.76208 2.30459,-0.51551 c 1.26752,-0.28352 3.21513999,-0.99524 4.32805,-1.58158 z m 6.8977,-6.71082 c 0.59154,-1.20989 1.18741,-2.96416 1.32414,-3.89839 l 0.2486204,-1.6986 -1.3664104,0.58841 c -0.75152,0.32362 -2.27922,0.90413 -3.39488,1.29001 -1.11566,0.38589 -2.02847,0.80245 -2.02847,0.92571 0,0.12325 0.74323,1.45354 1.65163,2.9562 1.1958,1.97807 1.76729,2.6361 2.07074,2.38427 0.23051,-0.19131 0.90309,-1.33773 1.49463,-2.54761 z m -30.8638496,-4.49284 c -0.28115,-1.64924 -0.62225,-3.11354 -0.75798,-3.254009 -0.32429,-0.33559 -2.26609,0.190369 -2.42124,0.655829 -0.12284,0.36852 3.37025,5.95885 3.57715,5.72487 0.0623,-0.0704 -0.11677,-1.47746 -0.39793,-3.12669 z m 6.60983,2.28503 c 0.13578,-0.0839 0.358,-1.14832 0.49382,-2.36533 0.13581,-1.21702 1.09844,-7.292759 2.13916,-13.501649 1.04073,-6.20888 1.96458,-12.00326 2.05299,-12.87638 0.24355,-2.40502 -0.0873,10.39952 -0.50476,19.53397 -0.20857,4.564079 -0.23566,8.201769 -0.0624,8.375059 0.17329,0.1733 0.7727,0.17262 1.38001,-0.002 0.5905196,-0.16936 2.0453596,-0.4207 3.2329796,-0.55854 1.18763,-0.13783 2.304,-0.4343 2.48083,-0.6588 0.17683,-0.22451 0.42408,-3.34507 0.54945,-6.934579 0.12537,-3.58951 0.32802,-9.38389 0.45033,-12.87639 0.12231,-3.4925 0.10561,-7.74527 -0.0371,-9.45061 l -0.2595,-3.10061 -2.09492,0.23702 c -4.1888296,0.47391 -4.3533596,0.54799 -4.4757596,2.01536 -0.13284,1.59238 -0.77202,1.38404 -0.77202,-0.25163 v -1.16022 l -3.61597,0.16284 c -1.98879,0.0896 -3.70893,0.26385 -3.82253,0.3873 -1.05587,1.14728 -2.99117,29.652679 -2.22142,32.719629 0.2304,0.91798 0.26228,0.92669 2.53662,0.69368 1.26681,-0.12979 2.41438,-0.30464 2.55017,-0.38856 z m -9.2871,-11.457249 c 4.31353,-13.5545 5.05971,-16.31943 5.26006,-19.49097 l 0.15043,-2.38125 h -1.89699 c -1.04335,0 -2.86619,-0.10131 -4.05077,-0.22512 -2.12777,-0.22239 -2.15875,-0.21281 -2.56512,0.79375 -0.22624,0.56038 -0.54854,1.33637 -0.71623,1.72442 -0.99191,2.29538 -4.25523,19.84485 -5.48288,29.485799 l -0.20582,1.61635 2.92933,-0.0288 2.92933,-0.0289 z m -15.10087,7.305099 c 2.98548,-6.553539 10.40849,-25.267929 10.73353,-27.060659 0.50259,-2.77197 0.65325,-2.56689 -2.23354,-3.04023 -4.12913,-0.67704 -3.92207,-0.74536 -5.20597,1.71779 -1.1175,2.1439 -7.63694,18.07217 -8.55503,20.90161 -0.25183,0.77611 -0.99475,2.66834 -1.65094,4.20496 -1.27582,2.987649 -1.21439,3.338319 0.59528,3.398079 0.65552,0.0216 4.89672,1.05871 5.54743,1.35647 0.0437,0.02 0.38981,-0.64513 0.76924,-1.47802 z m 46.4033996,0.23174 c 1.34709,-0.45592 2.57427,-0.95397 2.72707,-1.10677 0.55683,-0.556829 -0.9267,-26.625849 -1.63458,-28.723439 -0.0855,-0.25344 -0.32472,-1.12251 -0.53154,-1.93127 l -0.37603,-1.47047 -2.5518,0.73028 c -1.4035,0.40165 -3.58368001,0.98399 -4.84486001,1.29408 l -2.29305999,0.5638 0.11425,1.94028 c 0.20722,3.51932 3.43230999,20.98978 4.90364,26.56326 0.75232,2.849819 1.01115,3.413579 1.47505,3.212759 0.30944,-0.13396 1.66478,-0.61659 3.01186,-1.07251 z m -30.3186896,-2.245179 c 0.11992,-0.19403 -0.0388,-0.35278 -0.35277,-0.35278 -0.31395,0 -0.4727,0.15875 -0.35278,0.35278 0.11991,0.19403 0.27866,0.35278 0.35278,0.35278 0.0741,0 0.23286,-0.15875 0.35277,-0.35278 z m -29.71515,-1.85208 c 0.45982,-0.63059 2.25592,-3.05153 3.99134,-5.37986 6.4878,-8.70436 12.84743,-19.04866 12.84743,-20.89707 0,-0.60045 -0.454,-0.86636 -2.55764,-1.49803 -1.4067,-0.4224 -4.02571,-1.40748 -5.82003,-2.18908 -1.79431,-0.7816 -3.48166,-1.33695 -3.74966,-1.23411 -0.99189,0.38063 -10.31057,19.16904 -12.89283,25.99468 -1.25112,3.30706 -1.33715,3.7273 -0.80241,3.92002 2.11884,0.76362 7.37322,2.40852 7.72475,2.41826 0.23266,0.006 0.79923,-0.50422 1.25905,-1.13481 z m 73.33047,0.38513 c 0.99131,-0.297 1.36385,-0.60097 1.36385,-1.11281 0,-0.38731 -0.9595,-4.29124 -2.13222,-8.67541 -1.17272,-4.38417 -2.93657,-10.98746 -3.91966,-14.67399 -0.98308,-3.68653 -1.8889,-6.88198 -2.01291,-7.10101 -0.15683,-0.27697 -0.97741,-0.10799 -2.69493,0.55497 -2.4372704,0.94077 -2.4681804,0.96895 -2.3717104,2.16212 0.0537,0.6649 1.50496,5.41579 3.2249104,10.55753 2.63927,7.89003 3.91633,11.45846 6.40728,17.90347 0.35634,0.92201 0.3483,0.92056 2.13539,0.38513 z m 7.33656,-2.03821 c 0.42526,-0.26912 0.33095,-0.86488 -0.5995,-3.78696 -0.60728,-1.90718 -1.83233,-6.48385 -2.72233,-10.17038 -1.23227,-5.10425 -5.13298,-18.04634 -5.66671,-18.80146 -0.0586,-0.083 -3.61806,1.8972 -3.94867,2.19669 -0.126,0.11412 1.73545,5.92259 3.00372,9.37283 0.60625,1.64924 2.28844,6.41174 3.73821,10.58333 3.52755,10.15023 3.87932,10.93744 4.88433,10.93071 0.44346,-0.003 1.03339,-0.14911 1.31095,-0.32476 z m -89.31954,-8.8626 c 3.15257,-6.14634 6.34175,-11.63372 9.62441,-16.56001 2.94323,-4.41689 2.9858,-4.51721 2.25836,-5.32102 -0.33657,-0.37191 -0.82548,-0.6762 -1.08645,-0.6762 -0.26097,0 -0.47449,-0.15875 -0.47449,-0.35278 0,-0.19403 -0.23812,-0.35278 -0.52916,-0.35278 -0.29105,0 -0.52917,-0.15573 -0.52917,-0.34606 0,-0.59849 -1.72987,-0.82668 -2.35539,-0.3107 -0.52429,0.43248 -0.54186,0.40437 -0.1762,-0.28199 0.36576,-0.68655 0.20486,-0.94315 -1.61794,-2.58029 -4.22092,-3.79101 -7.36097,-8.49838 -7.72627,-11.58273 -0.11455,-0.96721 -0.3126,-1.92735 -0.4401,-2.13365 -0.15075,-0.24393 -2.57145,0.41789 -6.92254,1.89263 -7.42416,2.5163 -14.52866,4.42704 -19.58527,5.2674 -1.83328,0.30467 -3.86082,0.6419 -4.50566,0.7494 -1.02031,0.1701 -1.1125,0.26766 -0.71053,0.75201 0.39425,0.47503 1.0703,0.52216 4.61577,0.32179 7.16047,-0.40467 21.73752,-2.65713 25.27648,-3.90575 0.845,-0.29813 1.71172,-0.54206 1.92606,-0.54206 0.55177,0 -16.4458,11.25367 -19.77056,13.08959 -1.51605,0.83716 -4.26458,2.20362 -6.10785,3.03658 -2.47865,1.12008 -3.32143,1.66493 -3.23635,2.09228 0.14308,0.71876 1.75343,3.30099 2.05857,3.30099 0.12347,0 4.07654,-1.99434 8.78461,-4.43187 8.52302,-4.41267 13.94061,-7.62806 17.96956,-10.66513 1.67937,-1.26593 1.02272,-0.47254 -3.17843,3.8403 -6.68752,6.86532 -16.46599,17.92126 -16.21283,18.33089 0.44891,0.72636 7.37335,-4.21932 11.94054,-8.52836 1.72294,-1.62555 3.38982,-3.09383 3.70417,-3.26284 0.31435,-0.16901 2.22599,-1.91526 4.24808,-3.88055 2.02209,-1.9653 3.17055,-2.93827 2.55215,-2.16216 -4.1159,5.16552 -9.95014,13.08364 -12.73677,17.28611 -1.80123,2.71639 -3.49471,5.18952 -3.76329,5.49583 -0.61823,0.70508 -0.61961,1.30246 -0.004,1.91763 0.73014,0.73015 2.13288,-0.18445 5.76934,-3.76168 3.42598,-3.37017 11.49918,-12.1511 14.70948,-15.999 2.94395,-3.52863 2.97015,-3.52547 0.75114,0.0905 -2.54001,4.1391 -4.36771,8.52192 -7.58472,18.1881 -2.44668,7.35158 -2.53186,7.71698 -1.90692,8.18031 1.11474,0.82645 1.82539,-0.0589 4.97261,-6.19477 z m 74.40979,3.31313 c -0.12935,-0.12935 -0.23519,-0.0235 -0.23519,0.23519 0,0.2587 0.10584,0.36454 0.23519,0.23518 0.12935,-0.12935 0.12935,-0.34101 0,-0.47037 z m 25.54487,-0.30809 1.05058,-0.54327 -1.56809,-2.03785 c -4.40781,-5.72828 -9.08163,-14.03075 -11.86536,-21.07735 -0.88283,-2.23475 -2.44414,-5.38263 -3.01708,-6.08295 -0.055,-0.0672 -0.83229,0.38166 -1.72736,0.99748 -1.88091,1.2941 -1.89636,1.02693 0.33671,5.82257 1.88368,4.04528 5.24483,9.95534 8.00643,14.07802 3.26547,4.87489 6.76205,9.38624 7.2751,9.38645 0.25217,1e-4 0.93125,-0.24429 1.50907,-0.5431 z m 8.69361,-7.0474 c 0.74915,-0.52472 0.67684,-0.62246 -3.71924,-5.02708 -3.47259,-3.47935 -5.22874,-5.60319 -7.79031,-9.42139 -3.1034,-4.62581 -8.69072,-11.8321 -9.16744,-11.82376 -0.1181,0.002 -0.72347,0.52753 -1.34526,1.16769 l -1.13054,1.16394 0.73111,1.21356 c 2.03364,3.37562 13.48067,16.88875 16.39494,19.35409 0.55551,0.46994 1.78125,1.5415 2.72387,2.38125 1.89046,1.68416 2.18709,1.77323 3.30287,0.9917 z m 5.97818,-8.16673 c -0.12935,-0.12935 -0.34102,-0.12935 -0.47037,0 -0.12935,0.12935 -0.0235,0.23519 0.23519,0.23519 0.2587,0 0.36454,-0.10584 0.23518,-0.23519 z m -0.94074,-0.41133 c 0,-0.16155 -0.67468,-0.83591 -1.4993,-1.49858 -1.35577,-1.0895 -4.0309,-3.63777 -17.26906,-16.45013 l -4.12808,-3.99531 -0.899,1.323 c -0.49445,0.72764 -0.899,1.57372 -0.899,1.88016 0,0.92613 8.50345,9.18459 12.78461,12.41628 2.20544,1.66481 5.58895,3.82911 7.51889,4.80955 3.47847,1.76712 4.39094,2.08196 4.39094,1.51503 z m -67.35833,-6.05626 c 2.27866,-7.87972 3.49126,-10.85931 4.98677,-12.25347 1.1349696,-1.05805 3.7255896,-1.90815 10.46679959,-3.43463 3.10415001,-0.7029 6.96416001,-1.72565 8.57781001,-2.27278 l 2.9339004,-0.99479 -0.099,-1.17507 c -0.0544,-0.64629 -0.1361,-1.21219 -0.18147,-1.25756 -0.0454,-0.0454 -1.1914504,0.22848 -2.5468604,0.60855 -13.41659,3.76221 -33.1272196,3.67271 -46.5300796,-0.21129 -6.71405,-1.94565 -12.74857,-5.00213 -17.11616,-8.66931 -1.36881,-1.14931 -2.56942,-2.08965 -2.66802,-2.08965 -0.0986,0 -0.18016,0.83344 -0.18126,1.85209 l -0.002,1.85208 2.9491,2.82222 c 1.622,1.55222 3.61132,3.2191 4.4207,3.70417 4.8141,2.88513 5.87643,3.73059 6.64901,5.29166 0.94888,1.91731 2.81023,8.87767 3.13006,11.70458 0.12706,1.12304 0.42975,2.20683 0.67266,2.40842 1.40379,1.16504 15.47539,3.1172 21.84173,3.03012 2.28805,-0.0313 2.45723,-0.0887 2.69627,-0.91534 z m 10.5611196,-0.23517 c 1.84326,-0.29912 4.81030999,-0.9212 6.59345,-1.38242 4.05463,-1.04876 12.3255304,-4.24862 13.1735004,-5.09659 0.34945,-0.34945 0.72065,-0.55006 0.8249,-0.44581 0.34258,0.34258 4.93414,-3.13132 7.5136,-5.68465 3.30011,-3.2667 3.44298,-3.85685 1.71167,-7.07036 -0.73676,-1.36751 -1.4472,-2.60801 -1.57876,-2.75666 -0.13156,-0.14865 -0.94307,0.3828 -1.80336,1.18101 -0.8603,0.79821 -3.18817,2.23679 -5.17305,3.19684 -3.0839,1.49163 -3.55973,1.83301 -3.27103,2.34676 0.39016,0.69431 2.11678,7.05858 2.11716,7.80376 5.3e-4,1.07012 -0.41669,-0.0285 -1.39334,-3.669 -0.55961,-2.08596 -1.16399,-3.93917 -1.34306,-4.11824 -0.19892,-0.19892 -1.80372,0.10153 -4.1251904,0.77232 -2.08979,0.60385 -6.27302,1.64373 -9.29607,2.31085 -3.02304,0.66712 -5.84482,1.44121 -6.27061,1.7202 -0.42579,0.27899 -1.11567,1.21269 -1.53305,2.07489 -0.9078696,1.87541 -3.2023196,8.53058 -3.2023196,9.2885 0,0.59538 0.81861,0.54068 7.0555596,-0.4714 z m 24.2786104,-14.14052 c -1.32863,-3.91714 -1.43079,-4.32153 -1.09177,-4.32153 0.16711,0 0.75495,1.38906 1.30631,3.08681 0.55135,1.69774 1.07731,3.28524 1.16879,3.52777 0.0915,0.24254 0.0263,0.44097 -0.14484,0.44097 -0.17114,0 -0.72846,-1.23031 -1.23849,-2.73402 z m 43.74328,13.04675 c 0.44975,-1.11235 0.89572,-2.26543 0.99104,-2.56241 0.13736,-0.42796 -0.54442,-0.70166 -3.28718,-1.31962 -1.90326,-0.42882 -6.23861,-1.64164 -9.63409,-2.69516 -3.39549,-1.05351 -7.80891,-2.41269 -9.80761,-3.0204 -1.9987,-0.6077 -5.15168,-1.90366 -7.00663,-2.8799 -1.85494,-0.97624 -3.31527,-1.62098 -3.24516,-1.43276 0.15882,0.42644 4.79623,4.36649 7.29561,6.19853 1.76578,1.29431 8.46082,4.51506 13.46934,6.47963 2.42246,0.95019 9.45582,3.21721 10.05417,3.24069 0.19403,0.008 0.72076,-0.89626 1.17051,-2.0086 z m -107.18247,-2.99259 c -0.002,-0.46119 -1.61878,-6.7417 -2.63283,-10.22968 -0.58266,-2.00413 -0.63249,-2.05688 -4.3047,-4.55651 -3.97351,-2.70473 -7.81304,-6.22719 -8.73854,-8.01692 -0.31217,-0.60367 -0.70515,-1.09758 -0.8733,-1.09758 -0.49846,0 -1.58827,4.9446 -1.59394,7.23194 -0.007,2.9021 1.10141,5.0008 4.38722,8.30544 3.01195,3.0292 4.77816,4.31746 9.52496,6.94745 3.45435,1.91391 4.235,2.17514 4.23113,1.41586 z m 99.24425,-10.33585 c 1.71053,-0.2992 4.25053,-0.95131 5.64444,-1.44912 3.20554,-1.1448 8.4273,-3.8125 9.25687,-4.72917 0.61315,-0.67752 0.5999,-0.7347 -0.42591,-1.83805 -0.58231,-0.62633 -1.61255,-1.93253 -2.28942,-2.90267 -3.5416,-5.07609 -4.07455,-7.02465 -3.31127,-12.10649 0.63162,-4.20522 1.18399,-5.82864 2.7994,-8.22738 0.68603,-1.01871 1.18573,-1.91381 1.11043,-1.98911 -0.30293,-0.30293 -6.27739,1.12334 -10.4104,2.48525 -4.33048,1.42698 -10.39714,4.29619 -13.28505,6.28313 -3.73309,2.56843 -6.53686,6.51938 -8.11686,11.43794 -0.74504,2.3193 -0.87456,3.27066 -0.72684,5.33876 0.34,4.76001 2.31285,6.69077 8.17788,8.00342 1.68979,0.3782 8.72762,0.19186 11.57673,-0.30651 z m -21.75497,-4.12803 c -0.95122,-2.29385 -1.0359,-3.16726 -0.59462,-6.13332 0.55599,-3.73714 2.27779,-7.36458 5.13961,-10.82798 1.0949,-1.32507 1.90777,-2.49219 1.80637,-2.59359 -0.42353,-0.42353 -3.91914,1.11966 -5.88697,2.5989 -2.5966,1.9519 -3.95333,3.87387 -5.66805,8.02948 -1.29626,3.14149 -1.3079,3.21121 -0.70971,4.25155 0.33449,0.58172 1.69537,1.97078 3.02417,3.0868 2.3612,1.98311 3.25723,2.47564 2.8892,1.58816 z m -4.10926,-8.0257 c 0,-0.2587 0.10583,-0.36454 0.23518,-0.23518 0.12935,0.12935 0.12935,0.34101 0,0.47037 -0.12935,0.12935 -0.23518,0.0235 -0.23518,-0.23519 z m -0.35278,-0.88194 c 0,-0.097 0.0794,-0.17639 0.17639,-0.17639 0.097,0 0.17639,0.0794 0.17639,0.17639 0,0.097 -0.0794,0.17639 -0.17639,0.17639 -0.097,0 -0.17639,-0.0794 -0.17639,-0.17639 z m -12.36983,6.34588 c 4.50098,-2.30231 5.26217,-2.97512 4.53711,-4.01029 -0.41618,-0.59418 -0.60972,-0.63958 -1.22002,-0.28618 -2.06986,1.19856 -5.07079,2.68057 -6.55768,3.2385 -0.92163,0.34583 -1.67352,0.80565 -1.67087,1.02182 0.0105,0.85435 0.44844,1.98054 0.77022,1.98054 0.18698,0 2.05054,-0.87497 4.14124,-1.94439 z m -20.6756004,0.1551 c 2.36172,-0.208 5.80217,-0.68069 7.64543,-1.05041 3.94632,-0.79154 10.2305604,-2.7059 10.2305604,-3.11652 0,-0.5541 -1.75258,-8.20395 -1.9543,-8.53034 -0.32978,-0.5336 -1.2207004,-0.37805 -1.2207004,0.21312 0,1.25544 -1.50888,3.41488 -3.08414,4.41387 -2.31856,1.47039 -5.7071,1.32853 -7.60873001,-0.31853 -0.59120999,-0.51207 -0.70499999,-0.46849 -1.53034999,0.58611 -1.10664,1.41403 -2.68274,2.25422 -4.22865,2.25422 -1.48744,0 -4.1441496,-1.53315 -4.9134596,-2.83548 l -0.58557,-0.9913 -1.47425,1.56034 c -1.22859,1.30033 -1.74743,1.59112 -3.11362,1.74511 -2.46428,0.27776 -4.04128,-0.15578 -5.56109,-1.52884 l -1.3661,-1.23418 -1.51532,0.77306 c -0.83342,0.42518 -2.0781,0.77305 -2.76594,0.77305 -1.37426,0 -3.71585,-1.05505 -4.66083,-2.10003 -0.95617,-1.05735 -1.99597,-3.69849 -2.09115,-5.31163 l -0.0873,-1.47891 -1.98217,0.20718 c -1.43713,0.15021 -2.27443,0.056 -3.04508,-0.34248 -1.13598,-0.58744 -3.65573,-3.18689 -3.65573,-3.77135 0,-0.19347 -0.43657,-0.35265 -0.97014,-0.35373 -4.07133,-0.008 -7.05334,-2.95905 -7.48472,-7.40637 -0.16897,-1.74201 -0.27832,-1.95228 -1.07014,-2.05774 -0.48507,-0.0646 -1.39551,-0.60939 -2.02319,-1.21061 -0.62768,-0.60123 -1.2281,-1.00629 -1.33426,-0.90013 -0.44475,0.44475 -2.27836,10.50938 -2.49945,13.71937 -0.23599,3.42649 -0.22441,3.50144 0.73579,4.76033 0.99809,1.30856 5.43055,4.76898 8.14993,6.36264 4.11298,2.41037 12.37135,5.07452 19.54895,6.30649 6.86913,1.17903 17.75236,1.54742 25.5156796,0.86369 z m 9.7621,-6.50098 c 0,-0.097 0.0794,-0.17639 0.17639,-0.17639 0.097,0 0.17639,0.0794 0.17639,0.17639 0,0.097 -0.0794,0.17639 -0.17639,0.17639 -0.097,0 -0.17639,-0.0794 -0.17639,-0.17639 z m 74.9809504,6.13744 c 2.19104,-0.81977 4.15743,-2.36354 4.94123,-3.87924 0.84648,-1.63691 0.5831,-1.86531 -0.77546,-0.67247 -2.2347,1.96209 -4.12823,2.60083 -7.70923,2.60054 -1.74625,-1.3e-4 -3.65125,-0.13426 -4.23333,-0.29804 -0.9956,-0.28015 -1.02697,-0.25957 -0.52917,0.34705 0.29104,0.35467 1.1483,1.09463 1.90502,1.64437 1.70079,1.23558 3.58478,1.31145 6.40094,0.25779 z m -53.86553,-4.84959 c -0.0706,-3.13212 1.21695,-5.79703 4.15293,-8.59579 3.43686,-3.27622 5.38982,-4.33417 8.72431,-4.72607 2.20342,-0.25897 2.64438,-0.58387 1.94166,-1.4306 -0.7818,-0.94201 -4.55952,-0.38181 -7.62733,1.13106 -3.23257,1.59412 -7.57609,5.71997 -9.0767,8.62183 -0.5786,1.1189 -1.23863,1.14863 -1.23863,0.0558 0,-0.7915 1.78044,-3.61408 3.70213,-5.86908 2.51998,-2.95707 8.45853,-5.82083 12.0706,-5.82083 0.63833,0 1.1606,-0.13782 1.1606,-0.30627 0,-0.42389 -3.54972,-4.9854 -3.87959,-4.9854 -0.14704,0 -0.46437,0.23739 -0.70517,0.52754 -1.02892,1.23978 -3.90484,1.40884 -6.39188,0.37575 -0.50106,-0.20813 -0.56482,0.14068 -0.52917,2.89493 0.0375,2.89979 -0.0378,3.25824 -1.0178,4.84276 -1.48532,2.40156 -3.54507,3.47338 -6.23344,3.24365 l -2.00011,-0.17092 0.4576,1.297 c 1.20591,3.41791 5.44813,10.60297 6.2703,10.62004 0.14203,0.003 0.24089,-0.76448 0.21969,-1.7054 z m 55.58918,-0.23272 c 2.30214,-1.16478 3.72872,-2.65585 3.72872,-3.89728 0,-0.46626 -0.2538,-1.48207 -0.56401,-2.25736 l -0.56402,-1.40962 -1.14369,0.87233 c -0.62902,0.47978 -1.75096,1.08257 -2.49318,1.33954 -1.16701,0.40403 -1.41315,0.68546 -1.82011,2.08113 -0.44668,1.5319 -2.43305,3.80363 -3.32586,3.80363 -0.19872,0 -0.25232,0.17636 -0.1191,0.39192 0.44345,0.71751 4.12306,0.17778 6.30125,-0.92429 z m -65.246,-0.24891 c 1.26485,-0.62372 2.29973,-1.2487 2.29973,-1.38884 0,-0.14013 -0.77866,-1.84707 -1.73036,-3.79319 -1.43663,-2.93776 -1.80346,-3.45031 -2.16103,-3.01947 -0.23687,0.28541 -0.92665,0.65413 -1.53284,0.81938 -0.60619,0.16524 -1.08117,0.44242 -1.05552,0.61595 0.22226,1.50339 1.25203,7.11279 1.36937,7.45925 0.20163,0.59536 0.19403,0.59723 2.81065,-0.69308 z m 57.90979,-1.7703 c 0.63226,-0.43323 1.49618,-1.40442 1.91983,-2.1582 0.64389,-1.14565 0.73485,-1.70936 0.5544,-3.43579 -0.38906,-3.7224 -2.87352,-7.37665 -5.01524,-7.37665 -1.36316,0 -4.23273,1.61671 -5.14851,2.90067 -1.83616,2.57436 -0.63559,8.22569 2.13788,10.0634 1.61163,1.06787 3.99865,1.0707 5.55164,0.007 z m -78.7649204,-1.49185 c 1.24553,-1.15432 1.68741,-2.34187 1.97404,-5.30518 l 0.23885,-2.46945 0.27994,1.80726 c 0.21346,1.37815 0.59989,2.1573 1.62748999,3.28147 2.02410001,2.21435 4.42695001,2.40356 6.66013001,0.52446 0.97907,-0.82384 1.08552,-1.11118 1.08552,-2.93018 0,-1.60154 -0.18304,-2.26486 -0.88902,-3.22177 -1.11846,-1.51599 -1.59858,-1.77994 -3.83325,-2.10743 l -1.80412001,-0.2644 1.51683001,-0.044 c 1.82723,-0.053 3.43724,-0.82388 4.74498,-2.27189 1.34921,-1.49392 1.36972,-3.94588 0.0462,-5.51883 -1.17152,-1.39228 -2.5951,-2.13107 -4.10636,-2.13107 -1.38556,0 -2.09269,0.48054 -2.85524001,1.94028 -0.41969,0.80342 -0.55625,0.89547 -0.56697,0.38218 -0.0285,-1.36234 -0.54547,-0.0938 -0.75404,1.8501 l -0.21468999,2.00106 -0.0519,-2.21892 c -0.11635,-4.97767 -3.61351,-8.05452 -7.10352,-6.24977 -0.56067,0.28994 -1.26716,0.88089 -1.56998,1.31322 -0.6309596,0.90083 -0.7310496,2.59257 -0.1737596,2.937 0.2072596,0.12809 0.2997396,0.43379 0.2055096,0.67934 -0.2573196,0.67057 1.19727,2.86241 2.57334,3.87765 l 1.21473,0.8962 h -2.37292 c -2.6487296,0 -4.5705496,0.63916 -5.1440896,1.71083 -0.82019,1.53255 -0.22338,3.87578 1.14116,4.48043 0.44947,0.19917 0.72752,0.59752 0.66707,0.95568 -0.0792,0.46945 0.14395,0.61417 0.94717,0.61417 0.57796,0 1.4977296,-0.16543 2.0439396,-0.36761 0.93774,-0.34712 0.91935,-0.30113 -0.32982,0.82493 -1.5167696,1.3673 -1.6156396,1.98436 -0.5851,3.65181 1.39445,2.25628 3.77884,2.86365 5.38788,1.37244 z m -1.53958,-13.06629 c 0,-0.097 0.0794,-0.17639 0.17639,-0.17639 0.097,0 0.17639,0.0794 0.17639,0.17639 0,0.097 -0.0794,0.17639 -0.17639,0.17639 -0.097,0 -0.17639,-0.0794 -0.17639,-0.17639 z m -3.2017,-3.96875 -0.85525,-0.97014 0.97014,0.85524 c 0.53358,0.47039 0.97014,0.90695 0.97014,0.97014 0,0.27668 -0.28568,0.0515 -1.08503,-0.85524 z m -6.2222196,16.84134 c 0.49599,-0.39014 1.17397,-1.42204 1.50663,-2.2931 0.6023,-1.57708 0.60103,-1.58933 -0.30118,-2.90662 -1.62812,-2.37721 -1.80991,-3.05275 -1.30593,-4.85281 0.58298,-2.08219 1.95841,-3.53737 3.81642,-4.03768 0.83257,-0.22419 1.47464,-0.61041 1.47464,-0.88704 0,-0.65821 -1.52346,-1.81822 -3.0492,-2.32176 -1.11552,-0.36816 -1.45272,-0.30482 -3.32935,0.62532 -1.14846,0.56923 -2.08811,0.95796 -2.08811,0.86383 0,-0.0941 0.39687,-0.69147 0.88194,-1.32742 1.78365,-2.33849 0.62471,-5.35659 -2.36618,-6.16195 -1.69346,-0.456 -2.63635,-0.27164 -3.96803,0.77586 -1.94539,1.53024 -2.13235,3.20478 -0.72212,6.46775 l 0.60641,1.40309 -1.58539,-1.46136 c -0.87196,-0.80375 -2.07191,-1.71295 -2.66655,-2.02045 -1.10332,-0.57055 -3.07248,-0.73386 -4.099,-0.33995 -0.73064,0.28038 -1.6033,1.96013 -1.6033,3.08614 0,1.40045 1.60998,4.10306 2.44424,4.10306 0.20789,0 0.37798,0.15875 0.37798,0.35277 0,0.48598 -0.23733,0.44469 -1.24713,-0.21696 -0.47825,-0.31335 -0.86954,-0.41821 -0.86954,-0.23301 0,0.63394 1.58738,1.04184 3.70417,0.95183 l 2.11667,-0.09 -1.41112,0.62927 c -2.60926,1.16356 -3.58997,2.9906 -2.95623,5.50742 0.76119,3.02296 3.68821,4.5074 6.26264,3.17611 1.51292,-0.78236 1.96876,-1.55382 2.18235,-3.69341 0.17608,-1.76371 0.22572,-1.86141 0.46544,-0.91596 0.60884,2.40121 1.42382,4.19876 2.41597,5.32876 0.91906,1.04675 1.26316,1.19763 2.7313,1.19763 1.14859,0 1.96494,-0.22431 2.58156,-0.70935 z m 110.19876,-1.58848 c 1.2948,-0.84838 2.03919,-2.82459 1.52843,-4.05767 -0.41437,-1.00037 -2.34274,-3.1695 -2.81771,-3.1695 -0.14675,0 -0.35856,0.4587 -0.47069,1.01934 -0.33405,1.67028 -1.63032,2.87864 -3.33306,3.10702 -0.82905,0.1112 -1.58576,0.32904 -1.68159,0.4841 -0.30055,0.4863 0.92892,3.10201 1.54464,3.28625 1.09595,0.32793 4.34183,-0.0876 5.22998,-0.66954 z m -13.52181,-2.29833 c 0.88976,-0.39358 1.69727,-0.84428 1.79447,-1.00155 0.0972,-0.15728 -1.02646,-1.10706 -2.49702,-2.11062 -2.26653,-1.54675 -2.63503,-1.70316 -2.41949,-1.02691 0.13984,0.43876 0.51261,1.71055 0.82837,2.82621 0.31576,1.11566 0.59702,2.02847 0.62503,2.02847 0.028,0 0.77889,-0.32202 1.66864,-0.7156 z m -67.22504,-2.8864 c 1.12858,-1.03963 1.84013,-2.72778 1.85982,-4.41236 l 0.0156,-1.33425 0.67118,1.26989 c 1.03991,1.9675 2.97719,3.49261 4.43652,3.49261 1.72842,0 3.3732,-0.76758 4.49078,-2.09576 1.77744,-2.11236 1.0335,-5.95352 -1.48628,-7.67407 l -1.13354,-0.77399 1.41622,-0.38135 c 2.11339,-0.56908 3.01278,-2.01255 2.71525,-4.35783 -0.29482,-2.32389 -0.86662,-4.11977 -1.31171,-4.11977 -0.19044,0 -0.23205,-0.19844 -0.0925,-0.44097 0.13957,-0.24254 0.12717,-0.3266 -0.0276,-0.18682 -0.15473,0.13979 -0.73356,-0.0679 -1.28629,-0.46144 -1.63743,-1.16595 -4.23987,-1.40934 -6.03568,-0.56448 -0.82811,0.3896 -1.60604,0.68916 -1.72874,0.6657 -0.12269,-0.0235 -0.20207,0.22893 -0.17639,0.56087 0.0257,0.33194 -0.16354,0.55991 -0.4205,0.50659 -0.25696,-0.0533 -0.36791,0.0637 -0.24655,0.26007 0.12135,0.19635 0.11238,1.31382 -0.0199,2.48326 l -0.24056,2.12626 -0.78514,-1.68077 c -0.88314,-1.89057 -2.39204,-3.53612 -3.70869,-4.04457 -0.48507,-0.18732 -1.6271004,-0.33657 -2.5378504,-0.33166 -1.29562,0.007 -1.89048,0.21792 -2.73403,0.96953 -1.03772,0.92461 -1.4262,1.90232 -0.75585,1.90232 0.1809,0 0.20551,0.42555 0.0561,0.97013 -0.39795,1.45051 0.17909,2.65044 1.65415,3.43979 0.72693,0.389 1.84746,1.49664 2.49662,2.46789 1.0154604,1.51929 1.1466704,1.95654 0.9521604,3.17299 -0.3040704,1.9015 -1.1967004,3.32966 -2.5248404,4.03956 l -1.10048,0.58821 0.92409,1.08964 c 0.50825,0.5993 1.46326,1.75862 2.12225,2.57626 1.0923304,1.35532 1.3071404,1.46895 2.4318404,1.28644 0.67852,-0.11011 1.62824,-0.56367 2.11049,-1.00792 z m -27.08355,0.60339 c 0,-0.097 -0.0794,-0.17639 -0.17639,-0.17639 -0.097,0 -0.17639,0.0794 -0.17639,0.17639 0,0.097 0.0794,0.17639 0.17639,0.17639 0.097,0 0.17639,-0.0794 0.17639,-0.17639 z m 103.30929,-1.83643 c 0.70987,-0.44352 0.79344,-0.69773 0.58849,-1.79021 -0.59518,-3.17256 -3.98869,-7.69601 -6.70751,-8.94091 -2.33719,-1.07015 -3.60277,-0.88304 -5.1699,0.76435 -2.66377,2.80021 -1.30998,6.02913 3.778,9.01089 3.2259,1.8905 5.54305,2.1854 7.51092,0.95588 z m -125.54803,-1.93425 c 0.86014,-0.92325 0.86672,-1.01442 0.19013,-2.63373 -0.65702,-1.57247 -0.67241,-2.98119 -0.0487,-4.45483 0.68536,-1.61925 1.47828,-2.18137 4.33022,-3.06977 2.84606,-0.88656 3.30319,-1.45577 3.30319,-4.11301 0,-2.00208 -0.744,-3.29235 -2.58787,-4.48793 -1.75542,-1.13824 -3.13362,-1.17453 -5.16603,-0.13602 -1.92043,0.98129 -2.82207,2.1786 -3.0781,4.08749 -0.10835,0.80782 -0.3142,1.46876 -0.45743,1.46876 -0.14324,0 -0.45524,-0.99016 -0.69333,-2.20035 -0.81257,-4.1302 -2.30293,-5.92035 -4.91389,-5.90232 -2.5097,0.0173 -3.56445,1.19953 -3.56445,3.99511 0,1.24723 0.24677,1.90681 1.16266,3.10763 0.63947,0.83839 1.55228,1.7353 2.02847,1.99313 0.77434,0.41925 0.64031,0.44644 -1.26859,0.25741 -1.91381,-0.18952 -2.21217,-0.12835 -2.88692,0.59193 -1.18624,1.26629 -1.5498,2.55741 -1.05142,3.73399 0.25741,0.60773 0.62415,0.94537 0.91919,0.84627 0.36402,-0.12226 0.4445,0.0779 0.31137,0.7743 -0.21813,1.14107 0.86669,2.1323 2.71262,2.4786 1.45876,0.27366 2.93693,-0.38509 4.08243,-1.81934 0.77811,-0.97426 0.77963,-0.97455 0.5071,-0.0953 -0.15035,0.48507 -0.26321,1.59256 -0.2508,2.46108 0.0192,1.34594 0.20864,1.74967 1.28276,2.73403 1.59208,1.45903 3.96967,1.6362 5.13738,0.38282 z m -5.98348,-6.81265 c 0,-0.097 0.0794,-0.17639 0.17639,-0.17639 0.097,0 0.17639,0.0794 0.17639,0.17639 0,0.097 -0.0794,0.17639 -0.17639,0.17639 -0.097,0 -0.17639,-0.0794 -0.17639,-0.17639 z m 0.52917,-0.88194 c 0.11991,-0.19403 0.2974,-0.35278 0.39442,-0.35278 0.097,0 0.0783,0.15875 -0.0416,0.35278 -0.11992,0.19402 -0.29741,0.35277 -0.39442,0.35277 -0.097,0 -0.0783,-0.15875 0.0416,-0.35277 z m 10.40694,7.58472 c 0,-0.097 -0.0794,-0.17639 -0.17639,-0.17639 -0.097,0 -0.17639,0.0794 -0.17639,0.17639 0,0.097 0.0794,0.17639 0.17639,0.17639 0.097,0 0.17639,-0.0794 0.17639,-0.17639 z m 99.98812,-3.5413 c 0.9451,-0.39423 2.11856,-0.54036 3.68468,-0.45885 l 2.29795,0.11959 0.28093,-1.33438 c 0.15452,-0.73391 0.52455,-1.80547 0.8223,-2.38125 l 0.54136,-1.04687 h -1.40281 c -2.35398,0 -4.8563,0.70328 -6.34854,1.78425 -1.47448,1.06811 -3.54659,4.23471 -3.55235,5.42871 -0.003,0.59261 0.15357,0.53472 1.14322,-0.4231 0.63059,-0.61031 1.77056,-1.36995 2.53326,-1.6881 z m -141.45606,1.56269 c 1.89614,-0.52643 3.85088,-2.49282 3.54777,-3.56891 -0.1725,-0.61241 -0.14091,-0.67852 0.13341,-0.27909 0.28984,0.42204 0.48218,0.25125 0.99325,-0.88194 1.35838,-3.01199 0.46999,-10.68961 -1.84179,-15.91694 -3.03513,-6.86298 -10.7888,-15.17073 -18.56951,-19.89653 -3.11539,-1.8922 -3.6871,-2.08901 -3.29476,-1.13423 0.72705,1.76934 1.22499,4.40035 1.22872,6.49228 0.005,2.9239 -1.10118,8.54695 -2.04618,10.3993 -0.9292,1.82138 -5.52859,6.17202 -7.99859,7.566 -1.070016,0.60388 -1.945476,1.21734 -1.945476,1.36323 0,0.99837 7.401846,8.51089 10.507106,10.66421 3.14113,2.1782 9.17684,4.76977 12.42344,5.33429 1.78875,0.31103 5.50863,0.23424 6.86261,-0.14167 z m -11.97789,-6.66445 c 0.11992,-0.19402 0.28804,-0.35277 0.3736,-0.35277 0.0856,0 0.15557,0.15875 0.15557,0.35277 0,0.19403 -0.16812,0.35278 -0.3736,0.35278 -0.20548,0 -0.27548,-0.15875 -0.15557,-0.35278 z m 1.94028,-0.88194 c 0,-0.097 0.0794,-0.17639 0.17639,-0.17639 0.097,0 0.17639,0.0794 0.17639,0.17639 0,0.097 -0.0794,0.17639 -0.17639,0.17639 -0.097,0 -0.17639,-0.0794 -0.17639,-0.17639 z m -12.20988,-2.402 c 0.36659,-0.23112 1.61169,-1.05522 2.76691,-1.83133 1.15521,-0.77612 2.35566,-1.56986 2.66765,-1.76389 0.84757,-0.52711 1.75202,-1.64328 2.21542,-2.73403 0.41241,-0.97072 1.03212,-1.31721 1.03212,-0.57707 0,1.47595 -6.9355,7.39433 -8.60999,7.3473 -0.70992,-0.0199 -0.71272,-0.0371 -0.0721,-0.44098 z m 30.12508,7.37902 c 0.91518,-0.4641 1.95569,-1.16666 2.31225,-1.56125 0.76287,-0.84425 1.45339,-5.4912 1.13662,-7.6491 -0.34872,-2.37563 -1.61247,-5.34568 -2.92901,-6.88377 -1.05966,-1.23797 -3.57158,-3.1704 -4.12114,-3.1704 -0.0902,0 0.20409,0.83344 0.65395,1.85208 2.07519,4.69893 2.8396,7.71897 2.83506,11.2007 -0.004,3.39356 -0.40629,4.79304 -1.84876,6.43819 -0.76593,0.87355 -0.0437,0.79015 1.96103,-0.22645 z m 97.09035,-4.44785 c 0,-0.19403 0.21868,-0.35278 0.48597,-0.35278 0.26728,0 0.70384,-0.26412 0.97014,-0.58693 0.43902,-0.5322 0.41016,-0.54749 -0.30958,-0.16397 -0.79582,0.42405 -1.16298,-0.0376 -0.40331,-0.5071 0.27232,-0.1683 0.24563,-0.33502 -0.0882,-0.55106 -0.33348,-0.21581 -0.21117,-0.28267 0.40331,-0.22048 0.70564,0.0714 0.86005,-0.0518 0.7724,-0.6163 -0.0602,-0.38805 -0.095,-1.22149 -0.0771,-1.85208 0.0178,-0.63059 -0.13132,-1.14653 -0.33143,-1.14653 -0.20011,0 -0.36383,-0.14388 -0.36383,-0.31975 0,-0.17586 0.35719,-0.23243 0.79375,-0.12572 0.7789,0.1904 0.77713,0.17823 -0.0948,-0.65039 -0.48871,-0.46443 -1.20309,-1.22261 -1.5875,-1.68485 l -0.69893,-0.84044 1.5875,0.81117 c 2.0434,1.04412 4.57623,1.12977 5.61548,0.1899 0.41343,-0.37389 0.69538,-0.84872 0.62656,-1.05518 -0.0688,-0.20646 0.0861,-0.58657 0.3442,-0.8447 0.83129,-0.8313 0.56613,-2.76888 -0.54987,-4.0179 l -1.01918,-1.14067 -1.92224,0.60594 c -2.73626,0.86252 -3.0391,0.77027 -1.77468,-0.5406 1.45663,-1.51015 1.87094,-2.68551 1.51028,-4.28461 -0.37407,-1.65858 -0.84342,-2.20158 -2.32585,-2.69083 -0.95664,-0.31572 -1.59813,-0.282 -3.13491,0.16475 -1.77333,0.51552 -1.96037,0.66991 -2.27543,1.8782 -0.1888,0.72409 -0.39748,1.79277 -0.46373,2.37485 -0.10854,0.95357 -0.18641,0.859 -0.78669,-0.95532 -0.36642,-1.10752 -0.86836,-2.09123 -1.11542,-2.18604 -0.9025,-0.34632 -5.48829,0.2408 -5.67468,0.72653 -0.37146,0.96802 0.34728,2.45627 1.90886,3.95253 0.98813,0.9468 1.33393,1.45184 0.89968,1.31402 -1.37926,-0.43776 -3.22098,-0.30865 -4.55772,0.31952 -1.6476,0.77423 -1.87288,1.08398 -1.87981,2.58459 -0.003,0.64335 -0.18805,1.51101 -0.4113,1.92814 -0.35369,0.66089 -0.25948,0.63522 0.73263,-0.19958 0.94943,-0.7989 1.4709,-0.95671 3.13992,-0.95025 2.71336,0.0105 4.65441,0.94457 5.95731,2.86677 1.36999,2.02118 1.53591,2.50066 1.86997,5.40385 0.2178,1.89282 0.46135,2.60214 1.05989,3.0868 0.82417,0.66738 3.1684,0.87195 3.1684,0.2765 z m -0.70556,-0.70556 c 0,-0.2587 0.10584,-0.36454 0.23519,-0.23519 0.12935,0.12936 0.12935,0.34102 0,0.47038 -0.12935,0.12935 -0.23519,0.0235 -0.23519,-0.23519 z m -2.35185,-0.58796 c 0.12935,-0.12935 0.34102,-0.12935 0.47037,0 0.12935,0.12935 0.0235,0.23518 -0.23518,0.23518 -0.25871,0 -0.36454,-0.10583 -0.23519,-0.23518 z m -0.47037,-0.64676 c 0,-0.097 0.0794,-0.17639 0.17639,-0.17639 0.097,0 0.17639,0.0794 0.17639,0.17639 0,0.097 -0.0794,0.17639 -0.17639,0.17639 -0.097,0 -0.17639,-0.0794 -0.17639,-0.17639 z m -0.20159,-1.25304 c 0,-0.34949 0.1226,-0.55967 0.27245,-0.46706 0.14984,0.0926 0.80215,0.0221 1.44958,-0.15665 1.06613,-0.29437 1.17209,-0.25637 1.12351,0.40294 -0.0648,0.87978 -0.84528,1.21763 -1.26287,0.54667 -0.23191,-0.37262 -0.44864,-0.39269 -0.94194,-0.0872 -0.52882,0.32745 -0.64073,0.28577 -0.64073,-0.23868 z m 2.31826,0.1947 c 0,-0.097 -0.0794,-0.17638 -0.17639,-0.17638 -0.097,0 -0.17639,0.0794 -0.17639,0.17638 0,0.097 0.0794,0.17639 0.17639,0.17639 0.097,0 0.17639,-0.0794 0.17639,-0.17639 z m -44.57151,2.38125 c 0.11502,-0.33954 0.57971,-1.45561 1.03264,-2.48014 1.02199,-2.31172 2.7180296,-3.23286 5.9743396,-3.24475 2.49144,-0.009 4.19972,0.92913 5.25307999,2.8851 l 0.6505,1.20791 1.36846001,-0.67706 c 1.15326,-0.57059 1.40348,-0.89606 1.59115,-2.0697 0.34939,-2.18494 2.35521,-4.58346 4.46478,-5.33888 1.48098,-0.53033 -1.37358,-0.79904 -10.13448,-0.954 -7.8565196,-0.13897 -10.0989696,-0.28176 -10.5697796,-0.67304 -0.39461,-0.32796 -1.55107,-0.5077 -3.40466,-0.52917 -1.54389,-0.0179 -2.80712,-0.12956 -2.80719,-0.24818 -6e-5,-0.11861 -0.43667,-0.1561 -0.97025,-0.0833 -0.8137,0.11101 -0.85636,0.0814 -0.26458,-0.18357 0.637,-0.28523 0.60272,-0.33482 -0.35278,-0.51033 -1.70529,-0.31323 3.69054,0.10369 5.82084,0.44977 2.70044,0.43869 16.4433696,0.44066 20.2847196,0.003 1.74625,-0.19901 4.7625,-0.68835 6.7027704,-1.08744 1.94028,-0.39909 3.88497,-0.79447 4.32153,-0.87863 0.43656,-0.0842 0.79375,-0.29334 0.79375,-0.46486 0,-0.72234 -6.65878,-6.37748 -7.5093104,-6.37748 -0.17949,0 -0.79308,0.39274 -1.36355,0.87275 -2.64439,2.22511 -9.70548,3.11959 -18.4874996,2.34194 -10.45246,-0.92557 -19.44705,-4.24492 -21.85213,-8.06429 -0.38806,-0.61625 -0.8048,-1.12656 -0.9261,-1.13404 -0.1213,-0.007 -1.43676,0.54066 -2.92324,1.21807 l -2.7027,1.23166 0.76573,1.03571 c 0.62217,0.84153 0.73367,1.36939 0.59472,2.81547 l -0.17101,1.77975 2.08922,1.24454 c 1.14907,0.6845 2.24685,1.24455 2.43951,1.24455 0.19266,0 1.09409,0.30544 2.00319,0.67876 0.90909,0.37331 2.80383,1.02153 4.21054,1.44047 1.4067,0.41894 2.55763,0.80942 2.55763,0.86772 0,0.16929 -1.96784,-0.0324 -2.32322,-0.23811 -0.45788,-0.26503 -2.93893,-0.7339 -4.27426,-0.80774 -0.62119,-0.0343 -1.40278,-0.28671 -1.73688,-0.5608 -0.55183,-0.45274 -0.58613,-0.41762 -0.37468,0.38358 0.12801,0.48507 0.23491,1.31851 0.23756,1.85209 0.004,0.85674 0.13884,0.97104 1.15135,0.97788 1.68815,0.0114 3.9202,1.15554 4.98965,2.55766 0.51644,0.67709 1.11969,2.09257 1.34054,3.1455 l 0.40156,1.91441 1.25073,-0.63766 c 1.83483,-0.93545 4.90536,-0.85679 6.42084,0.16449 1.61243,1.08662 2.79459,2.93321 2.79459,4.3653 0,0.95346 0.13883,1.18256 0.71663,1.18256 0.39414,0 0.81073,-0.27782 0.92575,-0.61737 z m -4.4646,-11.55347 c 0,-0.097 0.0794,-0.17639 0.17639,-0.17639 0.097,0 0.17639,0.0794 0.17639,0.17639 0,0.097 -0.0794,0.17639 -0.17639,0.17639 -0.097,0 -0.17639,-0.0794 -0.17639,-0.17639 z m -5.99722,-1.76389 c 0,-0.097 0.0794,-0.17638 0.17639,-0.17638 0.097,0 0.17639,0.0794 0.17639,0.17638 0,0.097 -0.0794,0.17639 -0.17639,0.17639 -0.097,0 -0.17639,-0.0794 -0.17639,-0.17639 z m -4.23334,13.40556 c 0,-0.097 -0.0794,-0.17639 -0.17638,-0.17639 -0.097,0 -0.17639,0.0794 -0.17639,0.17639 0,0.097 0.0794,0.17639 0.17639,0.17639 0.097,0 0.17638,-0.0794 0.17638,-0.17639 z m 0.35278,-0.70556 c 0,-0.097 -0.0794,-0.17639 -0.17639,-0.17639 -0.097,0 -0.17639,0.0794 -0.17639,0.17639 0,0.097 0.0794,0.17639 0.17639,0.17639 0.097,0 0.17639,-0.0794 0.17639,-0.17639 z m 0.23519,-1.11713 c -0.12935,-0.12935 -0.23519,-0.0235 -0.23519,0.23519 0,0.2587 0.10584,0.36454 0.23519,0.23518 0.12935,-0.12935 0.12935,-0.34101 0,-0.47037 z m 62.55925,0.41158 c 0,-0.097 -0.0794,-0.17639 -0.17639,-0.17639 -0.097,0 -0.17639,0.0794 -0.17639,0.17639 0,0.097 0.0794,0.17639 0.17639,0.17639 0.097,0 0.17639,-0.0794 0.17639,-0.17639 z m 0.35278,-0.70556 c 0,-0.097 -0.0794,-0.17639 -0.17639,-0.17639 -0.097,0 -0.17639,0.0794 -0.17639,0.17639 0,0.097 0.0794,0.17639 0.17639,0.17639 0.097,0 0.17639,-0.0794 0.17639,-0.17639 z m -31.7500004,-0.70555 c 0,-0.097 -0.0794,-0.17639 -0.17639,-0.17639 -0.097,0 -0.17639,0.0794 -0.17639,0.17639 0,0.097 0.0794,0.17639 0.17639,0.17639 0.097,0 0.17639,-0.0794 0.17639,-0.17639 z m 32.1027804,-0.67671 c 0,-1.09161 -0.33677,-1.96913 -0.75571,-1.96913 -0.18267,0 -0.15734,0.31785 0.0573,0.71888 0.21161,0.39539 0.28587,1.03039 0.16503,1.41112 -0.12462,0.39266 -0.0568,0.69223 0.15685,0.69223 0.2071,0 0.37655,-0.3839 0.37655,-0.8531 z m -85.98916,0.12887 1.32335,-0.36751 -0.57953,-1.12067 c -0.31874,-0.61637 -0.59151,-1.94996 -0.60616,-2.96353 -0.0362,-2.50141 1.31995,-4.24327 4.04602,-5.19692 1.81067,-0.63341 1.9894,-0.63826 3.15415,-0.0856 0.67909,0.32225 1.85001,1.3627 2.60205,2.31211 l 1.36735,1.72621 1.62222,-1.13337 c 0.89222,-0.62335 1.90393,-1.23909 2.24824,-1.36832 0.67922,-0.25492 0.57659,-1.35542 -0.28664,-3.0735 -0.93518,-1.86128 -1.7752,-2.27472 -4.4575,-2.19387 -2.03901,0.0615 -2.4476,-0.0162 -2.28702,-0.43468 0.24025,-0.62608 -0.90135,-1.04472 -2.05756,-0.75453 -0.58078,0.14577 -1.01539,0.70074 -1.45955,1.86376 l -0.63251,1.65618 -0.38342,-2.09648 c -0.41676,-2.27878 -1.28989,-3.89542 -2.27226,-4.20721 -0.86399,-0.27422 -5.09625,1.68572 -5.79532,2.68378 -0.73654,1.05155 -0.73531,3.09575 0.002,4.14912 0.31675,0.45222 1.22956,1.11753 2.02847,1.47845 l 1.45256,0.65623 -1.84018,-0.21297 c -2.222,-0.25715 -3.71212,0.27841 -4.72244,1.69728 -0.90502,1.27097 -0.68534,2.50337 0.82049,4.60298 1.85383,2.58484 3.66752,3.2287 6.71269,2.38301 z m 53.8863796,-0.15772 c 0,-0.097 -0.0794,-0.17639 -0.17639,-0.17639 -0.097,0 -0.17639,0.0794 -0.17639,0.17639 0,0.097 0.0794,0.17639 0.17639,0.17639 0.097,0 0.17639,-0.0794 0.17639,-0.17639 z m 31.0444404,0 c 0,-0.097 -0.0794,-0.17639 -0.17638,-0.17639 -0.097,0 -0.17639,0.0794 -0.17639,0.17639 0,0.097 0.0794,0.17639 0.17639,0.17639 0.097,0 0.17638,-0.0794 0.17638,-0.17639 z m -24.51805,-6.17361 c -0.11992,-0.19403 -0.48647,-0.34162 -0.81457,-0.32798 -0.4863004,0.0202 -0.4661604,0.0808 0.10902,0.32798 0.944,0.40565 0.95626,0.40565 0.70555,0 z m -71.80432,-1.89274 c -1.59751,-3.19872 -5.52671,-6.86232 -6.82534,-6.36398 -1.13659,0.43615 -0.59894,1.46966 1.33122,2.55898 1.0468,0.59077 2.81687,2.11008 3.94139,3.38302 1.12268,1.27085 2.10947,2.2424 2.19287,2.159 0.0834,-0.0834 -0.20466,-0.86506 -0.64014,-1.73702 z m 3.69143,-0.30075 c 0.4821,-1.04388 0.55812,-1.50995 0.26239,-1.60853 -0.22902,-0.0763 -0.3431,-0.25738 -0.25352,-0.40232 0.0896,-0.14493 -0.71653,-1.36169 -1.79133,-2.70389 l -1.9542,-2.44038 0.13456,-2.20486 c 0.0789,-1.29291 -0.008,-2.20486 -0.21036,-2.20486 -0.4431,0 -4.64063,2.72969 -5.16019,3.35573 -0.30555,0.36816 -0.21025,0.57174 0.4218,0.90105 1.70847,0.89014 4.53298,3.60559 5.94716,5.71752 0.80896,1.20809 1.39858,1.87434 1.31027,1.48056 -0.0883,-0.39379 0.0452,-0.90814 0.29659,-1.14302 0.7437,-0.69472 0.95418,0.16068 0.34166,1.38852 -0.6315,1.26585 -0.65079,1.35579 -0.28818,1.34331 0.14552,-0.005 0.57003,-0.67048 0.94335,-1.47883 z m -44.246816,0.1873 1.587496,-0.72067 -1.361546,-0.27058 c -0.81875,-0.1627 -1.45163,-0.13185 -1.5875,0.0774 -0.36205,0.55756 -2.53271,0.47261 -2.75545,-0.10784 -0.10814,-0.28181 -0.37699,-0.47785 -0.59745,-0.43564 -0.89064,0.17051 -3.42677,-1.57098 -5.29616,-3.63672 -1.09042,-1.20495 -2.06178,-2.11162 -2.15857,-2.01483 -0.46374,0.46374 1.04541,3.48383 2.39182,4.78648 2.79571,2.70485 4.06561,3.3528 6.24958,3.18878 1.06715,-0.0801 2.65465,-0.47001 3.52778,-0.86637 z m -4.09455,-4.69013 c -0.51125,-0.77256 -1.0106,-2.12372 -1.10966,-3.00257 -0.15931,-1.41337 -0.37328,-1.73971 -1.85265,-2.82567 -0.9199,-0.67527 -1.90305,-1.57493 -2.18479,-1.99926 -0.5029,-0.7574 -0.52659,-0.74189 -1.29687,0.8493 -0.71489,1.47676 -0.74086,1.72531 -0.29225,2.79696 0.64906,1.55053 3.07068,3.70076 5.31971,4.72354 2.42548,1.10302 2.48919,1.07863 1.41651,-0.5423 z m 9.044026,-0.0947 c 3.53682,-1.78674 4.98006,-7.08183 2.79816,-10.26611 -1.88102,-2.74516 -4.43791,-3.41461 -6.656006,-1.74269 -1.69695,1.2791 -2.01266,1.68604 -3.22695,4.15949 -1.22786,2.50112 -1.29273,3.66423 -0.3168,5.68023 1.38782,2.86686 4.319626,3.72604 7.401596,2.16908 z m 43.94905,-3.97859 c 1.04938,-0.74608 1.88351,-1.67138 2.13722,-2.3708 0.41519,-1.14456 0.41618,-1.14496 0.44296,-0.177 0.0205,0.74166 0.20122,0.97014 0.76727,0.97014 0.40724,0 1.24068,0.21951 1.85209,0.4878 1.6541,0.72585 3.09088,1.20483 4.37484,1.45845 0.63059,0.12456 1.14653,0.38982 1.14653,0.58947 0,0.21103 -0.36921,0.27032 -0.88195,0.14164 -0.50858,-0.12765 -0.88194,-0.0692 -0.88194,0.13814 0,0.19772 0.11906,0.37525 0.26458,0.39449 1.54637,0.20452 2.34465,0.12876 3.24676,-0.30815 0.58569,-0.28366 0.98515,-0.64477 0.88769,-0.80247 -0.0975,-0.1577 -0.0159,-0.38644 0.18132,-0.50831 0.82339,-0.50888 0.12852,-3.35495 -0.8191,-3.35495 -0.24599,0 -1.12038,-0.49502 -1.94309,-1.10004 -0.8227,-0.60503 -2.16366,-1.32029 -2.97991,-1.58946 l -1.48408,-0.48942 2.33931,0.12884 c 1.48703,0.0819 2.7678,-0.0513 3.51539,-0.36566 1.407,-0.5916 2.57648,-1.7472 2.07921,-2.05453 -0.19206,-0.1187 -0.34919,-0.0383 -0.34919,0.1786 0,0.21693 -0.15875,0.29631 -0.35278,0.17639 -0.19403,-0.11991 -0.35278,-0.37678 -0.35278,-0.5708 0,-0.19403 0.12664,-0.27451 0.28143,-0.17885 0.49585,0.30645 1.16101,-0.34573 0.94,-0.92166 -0.22146,-0.57712 -2.56399,-1.70522 -4.80225,-2.31265 -1.29423,-0.35123 -1.38664,-0.32658 -3.45314,0.92102 l -0.76995,0.46484 0.59201,-1.14482 c 0.56265,-1.08804 0.55934,-1.16737 -0.0668,-1.59933 -0.36235,-0.24999 -0.81756,-0.58656 -1.01159,-0.74795 -0.19402,-0.16139 -1.56895,-0.96387 -3.0554,-1.78329 l -2.70262,-1.48987 -0.73696,0.9369 c -1.12323,1.42795 -0.92503,2.63911 0.85809,5.24362 l 1.59505,2.32982 -1.85492,-1.24919 c -2.53832,-1.7094 -4.11858,-1.71133 -5.82281,-0.007 -1.06637,1.06637 -1.21114,1.40321 -1.02343,2.38125 0.12025,0.62654 0.63945,1.50919 1.15378,1.96143 0.83379,0.73316 1.16834,0.79922 3.08718,0.60963 l 2.15204,-0.21264 -1.97333,1.04385 c -1.08534,0.57411 -2.23628,1.44514 -2.55764,1.9356 -1.17329,1.79067 -0.49678,4.76246 1.28004,5.62301 1.08273,0.52438 1.13786,0.51072 2.04623,-0.50672 0.51344,-0.57509 1.70802,-1.59626 2.65463,-2.26927 z m 13.19035,-7.75127 c 0,-0.097 0.0794,-0.17639 0.17639,-0.17639 0.097,0 0.17639,0.0794 0.17639,0.17639 0,0.097 -0.0794,0.17639 -0.17639,0.17639 -0.097,0 -0.17639,-0.0794 -0.17639,-0.17639 z m 57.55091,7.88647 c -0.12349,-0.12508 -0.74046,-0.33613 -1.37105,-0.469 -1.50433,-0.31698 -1.50582,0.3119 -0.003,1.22588 1.06934,0.65031 1.1584,0.6557 1.37105,0.083 0.12509,-0.33686 0.1264,-0.71481 0.003,-0.83989 z m -18.23674041,-0.018 c 2.21022001,-0.29908 3.97618001,-0.85906 3.66674001,-1.16271 -0.0651,-0.0639 -3.69029001,-0.69528 -8.05591,-1.40305 -4.36563,-0.70778 -11.3285896,-2.08159 -15.4732596,-3.05292 -4.14468,-0.97132 -7.75624,-1.68145 -8.0257,-1.57804 -0.86124,0.33048 -0.52659,1.55739 0.67472,2.47367 4.79628,3.6583 18.0644896,5.96108 27.21340959,4.72305 z M -115.1946,-205.73671 c 1.27101,-1.2177 1.24708,-1.68196 -0.11576,-2.24647 -1.90058,-0.78724 -3.10904,-2.06176 -3.52637,-3.71912 -0.21509,-0.85422 -0.4668,-1.55313 -0.55935,-1.55313 -0.55942,0 -2.20984,1.30304 -2.69877,2.13072 -0.78864,1.33507 -0.72398,2.48847 0.21677,3.86668 1.68843,2.47356 4.92143,3.20947 6.68348,1.52132 z m 10.69879,-3.08809 0.92241,-1.20933 -3.04516,1.29832 -3.04516,1.29832 1.4693,1.37055 1.4693,1.37055 0.65346,-1.45954 c 0.3594,-0.80274 1.06853,-2.00373 1.57585,-2.66887 z m 131.099786,2.60739 c 8.55605,-0.86727 13.72866,-2.96725 18.59795,-7.55041 1.04051,-0.97937 2.34213,-2.34896 2.8925,-3.04353 l 1.00068,-1.26287 -1.38951,-1.6815 c -1.95494,-2.36574 -2.808,-5.33673 -2.808,-9.77952 0,-7.85913 2.93992,-16.26186 7.22279,-20.6438 2.45969,-2.51659 4.27206,-3.24245 6.61255,-2.64837 1.90645,0.48391 1.7131,1.23495 2.91216,-11.31203 0.0736,-0.7705 -0.22734,-1.22789 -1.48739,-2.26041 -2.00999,-1.64703 -2.9099,-3.12834 -2.91157,-4.7926 -10e-4,-1.14483 -0.12763,-1.34594 -0.97145,-1.54463 -1.78188,-0.41955 -3.17872,-1.53447 -3.93306,-3.13927 -0.40769,-0.86732 -0.74125,-1.87791 -0.74125,-2.24577 0,-0.57857 -1.64435,-2.06998 -1.92757,-1.7483 -0.0564,0.064 -0.29074,2.73576 -0.52084,5.93722 -0.49948,6.94936 -0.85142,9.67843 -2.00172,15.52222 -2.25718,11.46695 -5.88011,23.24297 -8.63498,28.06725 -4.09967,7.17926 -10.70086,11.75019 -19.71851,13.65389 -4.0648,0.85811 -14.0842404,1.00178 -20.4658204,0.29346 -11.7635896,-1.3057 -25.1032096,-4.16485 -34.7029196,-7.43806 -11.22109,-3.82605 -17.42429,-7.86729 -20.8487,-13.58242 -2.09832,-3.50198 -3.31607,-8.90716 -2.70314,-11.99829 0.2737,-1.38033 0.28549,-1.35725 0.54044,1.05833 1.05901,10.03393 4.82908,15.15031 14.61549,19.83476 12.65381,6.05699 34.29358,10.80353 51.3891096,11.27188 6.1336604,0.16803 7.5626004,0.0996 10.9361104,-0.52367 6.78775,-1.25408 10.78337,-3.10701 14.87601,-6.89861 4.10883,-3.8066 6.99337,-9.20808 9.63384,-18.03991 3.86468,-12.9266 5.35596,-21.44149 5.86461,-33.48563 l 0.25172,-5.96038 -0.8492,0.27492 c -3.26553,1.05718 -5.62846,0.35537 -7.68196,-2.28162 -1.2229,-1.57038 -1.34819,-1.63785 -2.7563,-1.48432 -1.05762,0.11532 -1.93499,-0.0618 -3.09972,-0.62559 -1.65181,-0.79963 -3.36261,-2.81838 -3.36261,-3.96788 0,-0.75355 0.0386,-0.75117 -1.53309,-0.0945 -2.49167,1.04109 -4.67278,0.60486 -7.15802,-1.4316 -0.81499,-0.66783 -1.63409,-1.21423 -1.82021,-1.21423 -0.18612,0 -0.52714,-0.22742 -0.75782,-0.50537 -0.35593,-0.42887 -0.66071,-0.33541 -2.01326,0.61736 -1.32122,0.93069 -1.91426,1.11966 -3.46714,1.10478 -2.18672,-0.021 -3.8212504,-1.05632 -5.5584104,-3.52084 l -1.05509,-1.49687 -1.93625,1.01852 c -1.06494,0.56019 -2.3221,1.01853 -2.7937,1.01853 -1.18489,0 -2.91564001,-0.77247 -4.24797,-1.89596 -1.06077,-0.8945 -1.14488,-0.91083 -1.5875,-0.30829 -2.30457,3.13725 -6.8137396,2.88215 -8.6305096,-0.48826 l -0.59564,-1.105 -1.31554,1.66427 c -1.51009,1.91042 -3.20182,2.84131 -5.14844,2.83299 -1.66875,-0.007 -3.91624,-1.23198 -4.87726,-2.65803 l -0.7181,-1.06559 -1.1977,0.80713 c -2.58189,1.73994 -5.06754,1.76537 -7.21796,0.0738 l -0.87926,-0.69162 -1.30868,0.88809 c -1.60847,1.09153 -3.42351,1.14916 -5.04567,0.16021 -1.17738,-0.71779 -1.19734,-0.71823 -1.94028,-0.0423 -0.41287,0.37564 -1.4215,1.09903 -2.2414,1.60753 -7.01459,4.35042 -18.06124,27.95902 -20.04088,42.83083 -1.21981,9.16367 -0.23867,14.77274 3.60559,20.61278 3.82616,5.81256 11.41708,10.61375 24.09964,15.24285 11.95586,4.36385 30.5866096,8.40714 46.2138796,10.02945 4.3147304,0.44792 13.0871904,0.46549 17.3369304,0.0347 z M 2.3878756,-227.02677 c -6.28862,-0.42707 -12.3963396,-1.23686 -18.8338696,-2.49707 -22.49465,-4.40354 -32.3274,-10.23179 -35.89228,-21.27476 -1.3443,-4.16428 -1.35014,-9.0815 -0.0158,-13.34502 0.53133,-1.69774 1.13668,-3.08681 1.34523,-3.08681 0.20855,0 0.28464,-0.24637 0.16909,-0.54748 -0.13726,-0.3577 -0.0684,-0.45993 0.19859,-0.29491 0.27542,0.17022 0.33294,0.0552 0.17639,-0.35278 -0.15654,-0.40796 -0.099,-0.52299 0.17639,-0.35278 0.27542,0.17022 0.33294,0.0552 0.17639,-0.35277 -0.15655,-0.40796 -0.099,-0.523 0.17639,-0.35278 0.27542,0.17022 0.33294,0.0552 0.17639,-0.35278 -0.12777,-0.33295 -0.092,-0.51865 0.0795,-0.41267 0.37729,0.23317 0.82209,-0.7937 0.54088,-1.24871 -0.10994,-0.17788 0.0542,-0.42092 0.36468,-0.54008 0.31051,-0.11915 0.7953,-0.66283 1.07731,-1.20816 0.85164,-1.6469 4.19738,-5.38362 6.21074,-6.93652 3.45008,-2.66105 8.06024,-4.45394 13.45129,-5.23121 0.92402,-0.13322 1.75761,-0.36775 1.85244,-0.52117 0.0948,-0.15343 0.50599,-0.19172 0.91371,-0.0851 0.43416,0.11354 0.87028,-0.01 1.05258,-0.2977 0.22287,-0.35196 0.3128,-0.36633 0.31667,-0.0506 0.003,0.26639 0.45933,0.43116 1.15193,0.41618 0.9608,-0.0208 1.03223,-0.0739 0.44097,-0.32798 -1.91236,-0.82178 13.2499596,-0.0549 20.7266596,1.04831 12.0433504,1.77702 21.0306204,4.31492 27.9470204,7.89192 10.89854,5.63647 16.19306,17.73525 13.09887,29.93291 -2.70746,10.67312 -9.90677,17.63357 -20.54378,19.86217 -3.18814,0.66796 -10.8119504,0.90696 -16.5343304,0.51834 z m 16.2378304,-10.50849 c 3.12002,-0.93607 6.30679,-3.18181 8.02279,-5.65373 1.91711,-2.76162 2.43472,-4.2433 2.63626,-7.54637 0.3529,-5.78385 -0.60302,-8.10137 -5.2047,-12.61809 -1.731,-1.69905 -2.40054,-2.09566 -4.68031,-2.77245 -4.48634,-1.33185 -7.67508,-1.10739 -12.0897404,0.851 -2.00766,0.89063 -5.00631,4.25358 -6.69542001,7.50886 -0.94057,1.81267 -0.96758,2.01385 -0.75779,5.64445 0.33543,5.80489 1.07591,7.4989 5.00053001,11.43969 3.14571,3.15867 9.1525504,4.53148 13.7683804,3.14664 z m -41.28505,-8.47475 c 2.04416,-0.91815 4.3037,-2.38613 5.2367,-3.40219 0.97356,-1.06022 3.27224,-5.14922 3.55447,-6.32285 0.136,-0.56553 0.24175,-2.58577 0.235,-4.48942 -0.0115,-3.24196 -0.092,-3.62371 -1.27168,-6.02732 -1.64539,-3.3526 -4.8519,-6.42942 -8.00619,-7.6824 -1.84487,-0.73284 -2.81086,-0.88096 -5.74552,-0.88096 -4.29479,0 -6.1702,0.62694 -8.76822,2.93117 -1.90349,1.68824 -4.10817,4.51631 -4.10817,5.26979 0,0.24315 -0.12739,0.4421 -0.28308,0.4421 -0.1557,0 -0.57468,0.81088 -0.93107,1.80195 -1.14968,3.19716 -0.14236,9.76602 1.9477,12.70124 1.34251,1.88539 5.99295,5.58782 7.7077,6.13646 2.4862,0.79546 8.17821,0.5349 10.43236,-0.47757 z m -26.98749,-24.92458 c 0,-0.097 0.0794,-0.17639 0.17639,-0.17639 0.097,0 0.17638,0.0794 0.17638,0.17639 0,0.097 -0.0794,0.17639 -0.17638,0.17639 -0.097,0 -0.17639,-0.0794 -0.17639,-0.17639 z m -42.15466,57.33325 c -0.8843,-2.66237 -2.93116,-4.7383 -5.54094,-5.61963 -1.20068,-0.40548 -2.53358,-0.73724 -2.961976,-0.73724 -0.76555,0 -0.77018,0.0288 -0.26954,1.6757 0.28016,0.92163 0.46326,2.23132 0.40689,2.91041 l -0.1025,1.23473 2.116226,0.20596 c 3.1831,0.3098 5.47351,1.75952 6.29563,3.98485 l 0.4067,1.10085 0.10952,-1.52048 c 0.0602,-0.83626 -0.14678,-2.29208 -0.46001,-3.23515 z m -16.565606,2.4244 c 4.33684,-1.61913 6.70058,-3.99334 6.28396,-6.31182 -0.74917,-4.16909 -3.69724,-5.08507 -8.30129,-2.57923 -1.79271,0.97572 -5.0149,4.1657 -5.89427,5.83536 -0.61692,1.17135 -0.2762,2.59102 0.75479,3.14494 1.9638,1.0551 4.1652,1.02764 7.15681,-0.0892 z m 165.650926,-9.69858 c 0.11846,-0.067 -0.0122,-0.95961 -0.29031,-1.98352 -0.75701,-2.78681 -0.40178,-9.73937 0.71886,-14.06942 0.99509,-3.84498 1.84007,-5.69379 3.80549,-8.32641 0.75427,-1.01032 1.3714,-1.99929 1.3714,-2.19769 0,-0.62742 -2.83882,-1.83889 -4.77801,-2.03903 -1.85481,-0.19144 -1.8758,-0.18247 -3.58052,1.52944 -4.5152,4.53425 -7.39882,16.58633 -5.59239,23.37339 0.6235,2.34261 1.62679,3.45263 3.50735,3.88046 1.26253,0.28722 4.21526,0.18517 4.83813,-0.16722 z m 5.93058,-6.66741 c 0.75629,-1.55222 1.62753,-3.96481 1.93608,-5.3613 0.64774,-2.93166 0.69389,-7.78034 0.0929,-9.76103 l -0.41386,-1.364 -0.9586,0.95959 c -1.14025,1.14144 -2.77936,5.25721 -3.65465,9.17674 -0.65517,2.93387 -0.89597,9.34431 -0.39696,10.56797 0.26389,0.64711 0.33571,0.62509 1.15073,-0.35278 0.4781,-0.57363 1.48805,-2.31297 2.24434,-3.86519 z m -131.24743,-24.35818 c 0.0931,-3.18293 2.3654,-11.92191 4.39344,-16.89629 1.4659,-3.59557 1.04789,-3.99435 -1.45208,-1.38524 -4.49762,4.69398 -6.67465,14.85818 -4.29699,20.06194 l 0.80595,1.76388 0.25397,-1.05833 c 0.13969,-0.58208 0.27276,-1.70076 0.29571,-2.48596 z m 134.79792,-15.05324 c 0.9089,-1.49457 1.19589,-3.60856 0.75456,-5.55818 -0.4409,-1.9477 -0.30205,-2.14263 0.52678,-0.73954 0.50269,0.85099 0.88213,1.08276 1.77265,1.08276 2.84011,0 4.33703,-5.52532 2.27968,-8.4146 l -0.76241,-1.0707 -1.66581,0.50549 c -2.33687,0.70914 -2.92507,0.63301 -1.55638,-0.20146 1.55217,-0.94633 2.30143,-2.79901 2.10243,-5.19865 -0.18039,-2.17536 -1.00402,-3.48179 -2.823,-4.47784 l -1.25954,-0.68971 -1.41605,1.21887 c -0.77882,0.67038 -1.42948,1.41731 -1.4459,1.65985 -0.0164,0.24253 -0.28743,0.44097 -0.60223,0.44097 -0.39711,0 -0.47223,0.13502 -0.24534,0.44097 0.17986,0.24254 0.52655,0.91722 0.77042,1.49931 0.43485,1.03791 0.42277,1.03365 -0.6261,-0.2207 -0.58824,-0.70346 -1.37541,-1.35902 -1.74929,-1.45679 -0.63893,-0.16708 -0.66862,-0.015 -0.49409,2.53134 0.28468,4.15335 -0.90135,5.78496 -4.90293,6.74492 -0.93792,0.22501 -1.7053,0.48052 -1.7053,0.56782 0,0.54167 1.18993,2.29266 1.9808,2.91476 1.25912,0.99042 3.89534,0.98772 5.88256,-0.006 l 1.48525,-0.74273 -2.06111,1.85837 c -1.87096,1.68692 -2.0411,1.95886 -1.84425,2.94759 0.48247,2.42332 3.68338,5.49895 5.72294,5.49895 0.96346,0 1.32346,-0.21716 1.88166,-1.13504 z m -9.19273,-13.54633 c 1.39694,-0.8252 1.84587,-1.74477 1.86451,-3.81921 0.018,-1.99881 -0.45635,-3.22466 -1.59899,-4.13257 -0.7213,-0.57313 -0.70499,-0.59246 0.83504,-0.98998 3.30634,-0.85347 3.92675,-1.15781 4.5953,-2.25421 1.63338,-2.67871 0.12255,-5.9145 -3.25515,-6.97166 -2.0057,-0.62775 -3.64124,-0.13782 -5.43138,1.62698 -0.86351,0.85127 -1.57001,1.49699 -1.57001,1.43492 0,-0.0621 0.23813,-0.68276 0.52917,-1.37932 0.61796,-1.47899 0.68908,-3.99615 0.15289,-5.41131 -0.80393,-2.1218 -3.23516,-3.60728 -5.12683,-3.1325 l -0.87953,0.22075 0.70959,0.99653 c 0.99529,1.39776 1.59179,3.88141 1.30252,5.42333 -0.45101,2.40409 -2.88565,4.49462 -5.23447,4.49462 -1.15928,0 -1.17173,0.0172 -1.03663,1.43389 0.15712,1.6475 -0.69466,4.17761 -1.71827,5.10397 -1.00666,0.91101 -0.85617,1.71235 0.55412,2.95059 1.40307,1.23192 3.06068,1.43941 4.70524,0.58897 1.2604,-0.65177 1.77969,-1.29575 2.36297,-2.93033 l 0.47326,-1.32626 0.0308,1.41111 c 0.0551,2.51844 0.59907,4.46774 1.47301,5.27811 2.02306,1.87588 4.50221,2.42358 6.26279,1.38358 z m -2.09123,0.0411 c 0,-0.097 0.0794,-0.17639 0.17638,-0.17639 0.097,0 0.17639,0.0794 0.17639,0.17639 0,0.097 -0.0794,0.17639 -0.17639,0.17639 -0.097,0 -0.17638,-0.0794 -0.17638,-0.17639 z m -5.64445,-8.64306 c 0,-0.2587 0.10584,-0.36453 0.23519,-0.23518 0.12935,0.12935 0.12935,0.34102 0,0.47037 -0.12935,0.12935 -0.23519,0.0235 -0.23519,-0.23519 z m -11.46528,0.71455 c 1.64573,-0.38131 2.48819,-1.2884 3.01556,-3.2469 0.46151,-1.71394 0.20244,-3.04312 -0.91371,-4.68787 -0.96367,-1.42004 -0.95575,-1.4338 0.41547,-0.72165 0.59806,0.31061 1.05846,0.3826 1.12806,0.17639 0.0647,-0.19162 0.9847,-0.3484 2.0445,-0.3484 1.57549,0 2.08484,-0.15793 2.79283,-0.86591 1.79323,-1.79323 0.73307,-6.18285 -1.68672,-6.98393 -0.82496,-0.2731 -1.1836,-0.14293 -2.46944,0.89631 -0.82738,0.6687 -1.9012,1.40451 -2.38627,1.63514 -0.86864,0.41301 -0.8713,0.40972 -0.17639,-0.21794 1.67917,-1.51668 2.55842,-5.79306 1.48185,-7.20721 -0.76366,-1.00313 -2.85368,-2.07045 -4.057,-2.07181 -1.55831,-0.002 -3.19436,0.88831 -3.4137,1.85718 -0.098,0.43303 -0.22529,1.66046 -0.28278,2.72761 l -0.10454,1.94028 -0.30266,-1.5373 -0.30266,-1.53731 -0.44969,1.06951 c -0.25751,0.61242 -1.06371,1.4202 -1.8864,1.89008 -0.79019,0.45131 -1.43747,0.89995 -1.43841,0.99696 -9.3e-4,0.097 0.46541,0.48935 1.03632,0.87185 1.28996,0.86425 1.14198,1.12639 -0.23414,0.41477 -0.99693,-0.51553 -1.03341,-0.50316 -1.40301,0.47604 -0.32228,0.85381 -0.76688,1.12072 -2.94972,1.77079 -3.27573,0.97556 -4.75508,2.30408 -4.42874,3.97721 0.30179,1.54727 1.9651,3.84854 3.2179,4.45211 2.45784,1.18413 7.25842,-1.23529 8.68689,-4.37805 0.89788,-1.9754 0.80403,-0.84362 -0.18783,2.26529 -0.89889,2.8175 -0.80758,4.0742 0.39306,5.40968 1.15562,1.28542 2.42739,1.54103 4.86137,0.97708 z m 0.52917,-13.59093 c 0,-0.097 0.0794,-0.17639 0.17639,-0.17639 0.097,0 0.17639,0.0794 0.17639,0.17639 0,0.097 -0.0794,0.17639 -0.17639,0.17639 -0.097,0 -0.17639,-0.0794 -0.17639,-0.17639 z m 19.75556,13.05277 c 0,-0.097 -0.0794,-0.17639 -0.17639,-0.17639 -0.097,0 -0.17639,0.0794 -0.17639,0.17639 0,0.097 0.0794,0.17639 0.17639,0.17639 0.097,0 0.17639,-0.0794 0.17639,-0.17639 z m -109.71071,-2.91041 c 0.41796,-0.53358 1.46136,-1.71275 2.31866,-2.62038 1.68437,-1.78326 1.82418,-2.05393 1.06091,-2.05393 -1.01114,0 -2.32441,-2.08376 -2.32441,-3.68815 0,-1.98283 0.86391,-3.9995 1.91933,-4.48038 0.8191,-0.37321 0.82793,-0.42189 0.33176,-1.82819 -0.68769,-1.9491 -0.34123,-3.20203 1.35425,-4.8975 1.46984,-1.46985 1.39837,-2.02116 -0.26365,-2.03371 -2.62858,-0.0198 -4.86717,5.52468 -2.98891,7.40293 0.38805,0.38806 0.70551,0.74525 0.70546,0.79375 -4e-5,0.0485 -0.72632,0.1037 -1.61393,0.12265 -1.90141,0.0406 -3.10474,1.02369 -3.82794,3.12733 -0.80326,2.33653 0.32324,5.20933 2.31499,5.90365 l 1.05411,0.36747 -0.72203,0.76856 c -1.15221,1.22647 -1.44389,4.08604 -0.41678,4.08604 0.18603,0 0.68021,-0.43657 1.09818,-0.97014 z m 66.82588,-3.05474 c 1.75106,-0.73164 3.00815,-3.06933 3.06921,-5.70751 l 0.0483,-2.08567 0.25253,2.22344 c 0.13889,1.22289 0.43467,2.40558 0.65729,2.6282 0.30448,0.30448 0.40475,0.23193 0.40475,-0.29287 0,-1.39449 1.89386,-3.11534 3.77358,-3.42884 0.34988,-0.0584 0.99661,-0.30411 1.43718,-0.54613 0.44058,-0.24202 0.93988,-0.35423 1.10957,-0.24936 0.16968,0.10487 0.40453,-0.0595 0.52187,-0.36532 0.40318,-1.05067 0.2159,-1.55658 -0.58039,-1.56784 -0.43657,-0.006 -1.10191,-0.24429 -1.47854,-0.52917 -0.62887,-0.47565 -0.52653,-0.51794 1.25342,-0.51794 1.61848,0 2.1871,-0.18304 3.44704,-1.10961 1.67795,-1.23398 2.15794,-2.16328 2.15794,-4.17796 0,-2.72543 -3.36606,-5.04242 -6.20909,-4.27397 -1.98893,0.53759 -2.76954,1.20236 -4.08556,3.47924 l -1.17063,2.02535 -0.21626,-2.65809 c -0.31196,-3.83443 -1.35375,-5.47865 -3.86218,-6.09553 -1.25495,-0.30861 -3.43401,0.35901 -4.43328,1.35828 -1.28293,1.28292 -1.07746,3.85379 0.42835,5.35959 0.24654,0.24654 0.59613,0.44825 0.77688,0.44825 0.18075,0 0.9148,0.55283 1.63122,1.22851 l 1.3026,1.2285 -2.22339,-1.05184 c -2.89875,-1.37133 -5.7314604,-1.46558 -7.0594104,-0.23488 -1.05878,0.98124 -1.49744,2.94944 -0.96783,4.34243 0.21197,0.55752 0.3629,1.07201 0.3354,1.1433 -0.0921,0.23886 2.12767,1.45787 2.65476,1.45787 0.28635,0 0.52064,0.15875 0.52064,0.35278 0,0.19403 0.51594,0.35913 1.1465304,0.3669 l 1.14653,0.0141 -0.96127,0.52166 c -0.5287,0.28691 -1.0978404,0.79649 -1.2647604,1.1324 -0.52334,1.05317 0.23002,3.45157 1.5107004,4.80949 1.34748,1.42874 2.80734,1.65758 4.92633,0.77221 z m 7.95983,-10.6154 c 0,-0.097 0.0794,-0.17639 0.17639,-0.17639 0.097,0 0.17639,0.0794 0.17639,0.17639 0,0.097 -0.0794,0.17639 -0.17639,0.17639 -0.097,0 -0.17639,-0.0794 -0.17639,-0.17639 z m -10.93611,-5.99722 c 0,-0.097 0.0794,-0.17639 0.17639,-0.17639 0.097,0 0.17639,0.0794 0.17639,0.17639 0,0.097 -0.0794,0.17639 -0.17639,0.17639 -0.097,0 -0.17639,-0.0794 -0.17639,-0.17639 z m 34.00704,15.29805 c 0.8038,-0.36624 1.4701,-1.28156 1.15921,-1.59245 -0.0705,-0.0705 -0.49538,0.19037 -0.94423,0.57966 -0.44885,0.38928 -1.0393,0.70779 -1.3121,0.70779 -0.27281,0 -0.3979,0.15875 -0.27798,0.35278 0.27248,0.44089 0.30508,0.43975 1.3751,-0.0478 z m -64.67847,-0.65756 c 1.27261,-0.35353 2.49042,-1.63782 2.96202,-3.12369 0.18633,-0.58707 -0.0389,-1.37884 -0.8007,-2.8154 -0.98436,-1.85612 -1.25463,-2.98774 -1.1606,-4.8594 0.0603,-1.19964 2.32672,-3.76972 3.76285,-4.26692 1.18659,-0.4108 1.25258,-0.39987 0.81155,0.13444 -0.41025,0.49701 -0.40311,0.55501 0.0491,0.39877 0.6565,-0.22684 0.62597,-2.65732 -0.0585,-4.66071 -0.92297,-2.70132 -4.12457,-3.79216 -6.92971,-2.36109 -1.71869,0.87681 -2.43496,1.8532 -3.05864,4.16943 l -0.45392,1.68574 -0.25563,-1.45488 c -0.60077,-3.41908 -2.94104,-5.77706 -5.73366,-5.77706 -1.95621,0 -3.4385,0.84898 -4.1686,2.38757 -0.62951,1.32659 -0.38519,2.50591 0.89023,4.29707 0.39516,0.55495 0.71847,1.14746 0.71847,1.31669 0,0.45593 2.86243,2.22922 3.59839,2.22922 0.34922,0 0.63494,0.15875 0.63494,0.35278 0,0.19403 -0.88882,0.35278 -1.97515,0.35278 -3.74197,0 -6.13874,1.94572 -6.13874,4.98347 0,2.19183 0.6922,3.56174 2.37878,4.7078 2.38427,1.62016 5.80756,0.96079 7.36681,-1.41894 0.33644,-0.51347 0.8106,-1.67199 1.05369,-2.57448 l 0.44199,-1.64091 0.0238,1.68703 c 0.0405,2.8701 1.33136,5.2063 3.3752,6.10848 1.2966,0.57233 1.14657,0.56433 2.66607,0.14221 z m 12.2338796,-0.91096 c 1.18249,-0.7648 1.91317,-2.07586 2.40283,-4.31141 0.35176,-1.60601 0.44746,-1.77662 0.47635,-0.84921 0.042,1.34927 1.1213,3.62353 2.19371999,4.62264 1.03654,0.96569 3.12162001,1.25803 4.59172001,0.64378 0.65693,-0.27448 1.64741,-1.15273 2.20106,-1.95166 l 1.00666,-1.4526 -1.40989,-1.77075 c -1.46507,-1.84004 -2.1316,-4.16504 -1.64972,-5.75452 0.4895,-1.6146 2.80749,-3.43497 4.37397,-3.43497 0.64205,0 0.72307,-0.21937 0.72307,-1.9578 0,-3.37769 -1.40458,-4.85258 -4.57952,-4.80877 -1.85698,0.0256 -3.34933,0.94738 -4.60893001,2.8467 -1.08491999,1.63592 -1.19290999,1.57711 -1.53198999,-0.83436 -0.41453,-2.94809 -3.01137,-4.60762 -5.86989,-3.75119 -2.8870796,0.86499 -4.0387796,2.94615 -3.0901896,5.58406 0.37443,1.04125 0.4197196,1.5189 0.14583,1.5381 -0.24871,0.0174 -0.23236,0.0944 0.0437,0.20579 0.2425296,0.0979 0.4409696,0.36606 0.4409696,0.59599 0,0.22994 0.43656,0.68873 0.97014,1.01955 l 0.97014,0.60149 -2.09348,0.009 c -2.5912896,0.0116 -4.9012196,1.03254 -5.4394196,2.40408 -0.40585,1.03427 -0.42209,3.65498 -0.0211,3.40716 0.1347,-0.0832 0.52496,0.28385 0.86726,0.81576 l 0.62237,0.96711 -0.76017,-0.67204 c -1.02995,-0.91055 -0.96553,-0.13533 0.0909,1.09334 0.77255,0.89853 1.06564,0.98981 3.17827,0.98981 h 2.3272396 l -0.88521,0.64678 c -1.2124296,0.88587 -1.1104296,1.84439 0.35188,3.3067 1.3245,1.32449 2.21453,1.3809 3.96147,0.25105 z m -37.9718796,0.10577 c 0.31029,-0.23636 0.57272,-0.5506 0.58318,-0.6983 0.1441,-2.03574 0.59477,-4.53409 0.96974,-5.37589 0.45639,-1.02457 0.47234,-0.98624 0.50008,1.20142 0.0235,1.85211 0.19099,2.47259 0.92855,3.43958 1.05919,1.38867 2.73607,1.60026 4.077,0.51444 l 0.82172,-0.66539 -0.62792,-1.99201 c -0.59096,-1.87472 -0.59353,-2.11074 -0.0437,-4.00891 0.7271,-2.51035 0.90972,-2.72911 3.27799,-3.92664 l 1.92226,-0.97201 -1.10742,-0.78856 c -0.62209,-0.44297 -1.43533,-1.55081 -1.85566,-2.52787 -0.41153,-0.95663 -0.92712,-1.73874 -1.14576,-1.73801 -0.21864,7.2e-4 -0.90007,0.30774 -1.51428,0.68226 l -1.11676,0.68095 0.58709,-1.02294 c 0.53768,-0.93686 0.53968,-1.07035 0.0238,-1.58628 -0.79479,-0.79479 -2.65419,-0.75569 -3.7768,0.0794 -1.20159,0.89386 -1.47631,3.34689 -0.5709,5.09776 l 0.59318,1.14709 -0.83918,-0.54559 c -2.44519,-1.58973 -2.37348,-1.56876 -3.40118,-0.99434 -0.59092,0.33028 -1.16204,1.10312 -1.47141,1.9911 -0.455,1.30597 -0.44535,1.5433 0.0963,2.37 0.51913,0.79229 0.85116,0.91869 2.41324,0.91869 h 1.81129 l -2.53535,1.28432 c -3.91156,1.98146 -5.15079,4.0161 -3.70407,6.08158 1.06151,1.51551 3.90352,2.26937 5.10503,1.35413 z m -0.74057,-0.42975 c 0,-0.097 0.0794,-0.17639 0.17639,-0.17639 0.097,0 0.17639,0.0794 0.17639,0.17639 0,0.097 -0.0794,0.17639 -0.17639,0.17639 -0.097,0 -0.17639,-0.0794 -0.17639,-0.17639 z m 5.64445,-14.81666 c 0,-0.097 0.0794,-0.17639 0.17639,-0.17639 0.097,0 0.17638,0.0794 0.17638,0.17639 0,0.097 -0.0794,0.17639 -0.17638,0.17639 -0.097,0 -0.17639,-0.0794 -0.17639,-0.17639 z m 25.04722,2.11666 c 0,-0.097 -0.0794,-0.17639 -0.17639,-0.17639 -0.097,0 -0.17639,0.0794 -0.17639,0.17639 0,0.097 0.0794,0.17639 0.17639,0.17639 0.097,0 0.17639,-0.0794 0.17639,-0.17639 z"
       id="path242" /></g></svg>
