<?xml version="1.0" encoding="UTF-8" standalone="no"?>
<!-- Created with Inkscape (http://www.inkscape.org/) -->

<svg
   width="221.45894mm"
   height="293.46246mm"
   viewBox="0 0 221.45896 293.46242"
   version="1.1"
   id="svg1"
   xml:space="preserve"
   xmlns="http://www.w3.org/2000/svg"
   xmlns:svg="http://www.w3.org/2000/svg"><defs
     id="defs1"><clipPath
       clipPathUnits="userSpaceOnUse"
       id="clipPath6"><path
         id="path7"
         style="fill:#ff0000;fill-opacity:1;fill-rule:nonzero;stroke:none;stroke-width:0.264583"
         d="M -175.07778,-16.057127 V 287.55793 H 124.54631 V -16.057127 Z m 132.7459,202.572647 c 0.210643,0.005 0.427212,0.0169 0.650089,0.0367 2.23823,0.19855 4.475655,0.4031 6.717938,0.55346 1.973313,0.11308 0.986628,0.0436 2.958475,0.20825 3.181295,0.26563 4.740125,1.85116 4.950601,3.46956 4.949923,1.63749 3.796379,7.35609 -2.592089,6.81354 -3.228716,-0.27422 -1.569593,-0.1301 -4.979024,-0.43357 -4.228209,-0.39317 -8.460616,-0.76265 -12.666927,-1.35341 -6.647387,-0.93358 -5.930551,-7.21034 0.03204,-7.20421 0.04685,5e-5 0.0972,0.004 0.144695,0.005 0.687229,-1.21692 2.304132,-2.15435 4.784204,-2.09548 z" /></clipPath><clipPath
       clipPathUnits="userSpaceOnUse"
       id="clipPath76"><path
         id="path77"
         style="fill:#ff0000;fill-opacity:1;fill-rule:nonzero;stroke:none;stroke-width:0.264583"
         d="M -133.83107,-122.52355 V 173.82063 H 122.97289 V -122.52355 Z M 13.574404,98.948202 c 2.788179,0.0507 4.135003,2.063798 3.398242,4.077268 0.199805,0.45372 0.374906,0.96736 0.517797,1.54461 1.07913,4.35948 0.671079,8.891 0.311608,13.31495 -0.351859,3.06036 -0.147137,1.57974 -0.604097,4.44366 -0.359666,2.25418 -1.333846,3.66838 -2.455664,4.32532 0.105138,0.36595 0.224724,0.72888 0.324528,1.09554 0.6273,2.23652 0.575201,4.47401 0.39429,6.75514 -0.137303,1.73129 -0.688065,2.99533 -1.427303,3.82199 -0.112477,0.41601 -0.170275,0.80219 -0.311092,1.25212 -0.184975,0.59102 -0.413327,1.1061 -0.670242,1.55856 0.741137,-0.23134 1.446982,-0.38145 2.064991,-0.37517 4.085002,0.0415 5.222724,4.75435 -0.02223,7.27138 -4.46677,2.14368 -9.303523,3.34693 -14.11903492,4.40955 -4.40876268,0.85156 -8.89238128,1.33053 -13.38264308,1.19269 -5.804014,-0.17807 -6.736297,-5.00293 -3.065447,-6.67298 -2.072987,-0.65744 -4.042852,-1.62261 -4.128947,-3.14709 -0.02802,-0.49633 0.0026,-0.90355 0.0341,-1.30897 -1.976731,-0.003 -3.95339,2.4e-4 -5.930386,0.003 -0.814031,0 -1.53062,-0.0962 -2.159559,-0.26149 -0.376306,0.19492 -0.742394,0.40783 -1.120862,0.59893 -6.391272,3.22657 -9.625245,-3.24074 -3.234428,-6.46886 1.833438,-0.92611 3.62694,-1.92211 5.414142,-2.92954 -0.877003,-3.87058 -1.368747,-7.83436 -1.323951,-11.80858 0.01651,-1.46304 0.376836,-2.54918 0.864547,-3.41426 -1.247357,-1.79999 -0.223805,-4.63069 3.842661,-5.68855 3.11826,-0.81116 6.282901,-1.39515 9.473837,-1.82211 -1.259816,-0.12657 -2.516182,-0.30233 -3.764627,-0.50177 -1.477002,-0.21985 -2.935575,-0.54305 -4.407482,-0.7891 -1.14214,-0.22954 -0.588502,-0.12004 -1.660882,-0.3297 -3.350244,-0.65501 -4.783278,-2.61088 -4.608504,-4.32997 -0.200179,-1.7721 1.333365,-3.52972 4.663799,-3.59461 v -5.3e-4 c 0.20954,-0.004 0.426035,-0.002 0.649571,0.008 1.77111,0.0772 3.528708,0.28204 5.26428,0.64027 1.655035,0.33225 3.314115,0.6481 4.955251,1.04439 1.244759,0.34858 2.51628,0.54538 3.7997689,0.6723 0.025956,0.002 0.052073,0.002 0.078034,0.004 0.4990888,-0.0371 0.9984105,-0.0743 1.4965495,-0.11317 1.346872,-0.12588 2.6913231,-0.25136 4.0457464,-0.24236 1.1278499,-0.0444 2.2567291,-0.10772 3.37498791,-0.26872 0.75719517,-0.11591 1.51142439,-0.25483 2.25722659,-0.4284 0.3616431,-0.12394 0.7240561,-0.24538 1.083138,-0.37775 0.3360393,-0.12388 0.6107589,-0.12825 0.9250071,-0.20723 0.1281086,-0.045 0.2583895,-0.0825 0.3855085,-0.13074 1.9825018,-0.7681 3.9540551,-1.56464 5.9510551,-2.29443 1.050809,-0.383992 1.999634,-0.542639 2.826703,-0.527616 z M 0.70283723,110.39557 c -0.45566013,0.0949 -0.90775367,0.208 -1.36890919,0.2744 -1.16638124,0.15534 -2.34111274,0.24237 -3.51761424,0.26251 0.4031694,0.0896 0.8047355,0.18876 1.2025101,0.308 0.1014836,0.0304 0.1982549,0.075 0.2986907,0.10852 0.4205235,-0.21824 0.9206601,-0.35072 1.4898318,-0.37156 0.39885139,-0.0146 0.83259872,0.0278 1.29449508,0.13023 0.22468681,-0.12213 0.44967525,-0.24374 0.67437529,-0.36587 -0.0326284,-0.11319 -0.058211,-0.22834 -0.0733795,-0.34623 z m 10.24433577,1.02474 c -0.76023,0.21437 -1.5189569,0.4343 -2.2696301,0.68006 -0.031261,0.62207 -0.2256075,1.28373 -0.6464723,1.94355 0.6236891,0.43248 1.2549743,1.04482 1.8634525,1.86862 0.2674939,0.36214 0.4748849,0.75712 0.7188199,1.13223 0.154519,-1.86707 0.314174,-3.74736 0.33383,-5.62446 z m 64.566086,3.39773 c 1.50346,0.0187 3.129182,1.24994 3.928441,4.04678 0.257931,0.90255 0.823497,1.65871 1.488797,2.30735 0.856321,0.95375 1.845738,1.76777 2.801898,2.61638 1.458581,1.46408 2.789203,3.04608 4.169772,4.58215 1.315059,1.44746 2.571226,2.91698 3.543967,4.61884 0.0053,0.01 0.0082,0.0206 0.01344,0.0305 0.734605,-0.43313 1.446276,-0.65634 2.094962,-0.69195 3.016182,-0.16561 4.69137,3.55377 1.187525,7.32306 -1.69471,1.82311 -3.657862,3.33908 -5.68751,4.7651 -0.777873,0.49914 -1.607691,0.90075 -2.418456,1.33842 0.165478,1.44344 -0.672182,3.24303 -2.956409,4.73096 -1.354556,0.88234 -2.690448,1.79306 -4.075203,2.6288 -2.075008,1.20078 -4.233777,2.27962 -6.540687,2.96259 -2.077586,0.62971 -4.169056,1.29987 -6.359301,1.36374 -1.872114,0.0897 -3.746989,0.0368 -5.620845,0.0501 h -5.1108 -5.524728 c -7.160125,0 -7.160125,-7.23315 0,-7.23315 h 1.347722 c 0.29438,-0.0541 0.5212,-0.1588 0.84801,-0.18656 1.106628,-0.094 2.200932,-0.28334 3.292822,-0.48421 0.456121,-0.98163 1.356053,-1.98213 2.807581,-2.83962 1.078018,-0.63685 2.158119,-1.26923 3.212209,-1.94561 1.962647,-1.29302 3.840588,-2.72135 5.893696,-3.86902 1.367169,-0.76424 2.559646,-1.07097 3.526915,-1.04128 2.216811,0.068 3.246223,1.90266 2.479953,4.04059 1.105688,-0.48686 2.206929,-0.98346 3.283003,-1.53739 2.619811,-1.23728 5.288743,-2.38548 7.764385,-3.9026 0.246153,-0.17184 0.487463,-0.34958 0.730705,-0.52503 -0.126915,-0.50614 -0.277693,-0.9939 -0.512114,-1.46554 -0.647621,-1.25778 -1.721077,-2.20654 -2.600875,-3.29644 -1.199229,-1.33472 -2.369312,-2.69496 -3.592029,-4.00803 -1.098706,-0.97599 -2.227236,-1.92181 -3.215306,-3.01428 -1.300821,-1.39063 -2.459913,-2.93896 -3.045293,-4.77801 -1.289469,-4.05101 0.646382,-6.61405 2.843754,-6.58667 z m -95.086705,4.28035 c -0.465643,0.10748 -0.930899,0.21773 -1.394745,0.33435 0.171958,0.64334 0.283575,1.36624 0.279569,2.2071 -0.01267,2.6582 0.205063,5.32647 0.670242,7.94732 0.280107,-0.17087 0.565767,-0.33222 0.845429,-0.50385 -0.01897,-0.36223 -0.02445,-0.73164 -0.05529,-1.08985 -0.118034,-2.96491 -0.160888,-5.93314 -0.3452,-8.89507 z m 18.5141159,1.1958 c 0.00497,0.0773 0.00619,0.15612 0.014975,0.23202 -0.1238779,0.22787 -0.2588048,0.44752 -0.3937741,0.66715 0.58900751,0.0447 1.13203305,0.21413 1.64331124,0.45888 -0.37615284,-0.49255 -0.78353709,-0.94642 -1.26452314,-1.35805 z m -6.5422357,14.57068 c -0.046649,0.0755 -0.09888,0.14702 -0.1436608,0.22376 -0.03147,0.054 0.1963367,0.0838 0.1860365,0.0222 -0.017595,-0.10481 -0.026035,-0.14905 -0.042376,-0.24597 z m 13.9236979,6.08439 c -0.2236258,0.5643 -0.5677508,1.09664 -1.1782213,1.50533 0.9079653,0.17659 1.7077452,0.44257 2.2830631,0.84852 0.1405493,-0.0459 0.272804,-0.11448 0.4128956,-0.16174 -0.7336976,-0.43656 -1.2984269,-1.18703 -1.5177374,-2.19211 z" /></clipPath><clipPath
       clipPathUnits="userSpaceOnUse"
       id="clipPath127"><path
         id="path128"
         style="fill:#ff0000;fill-opacity:1;fill-rule:nonzero;stroke:none;stroke-width:0.264583"
         d="M -112.24796,-126.55676 V 185.58027 H 148.5754 V -126.55676 Z M 46.874626,83.305366 c 1.808208,0 3.616317,1.790192 3.616317,5.370214 v 5.232238 c 0.0627,2.146078 -0.111291,4.285324 -0.245462,6.424932 -0.136289,2.02485 -0.190703,4.04985 -0.104904,6.07715 0.192061,1.91863 0.527714,3.82569 0.876432,5.72213 0.304242,2.00862 0.765826,3.9858 1.180806,5.97276 0.41642,1.86142 0.967934,3.68703 1.421104,5.53972 0.25287,0.86996 0.117097,0.46495 0.396356,1.22008 0.186108,0.50319 0.223428,0.93098 0.309544,1.38441 4.425355,2.23251 2.751262,7.58433 -3.415813,6.40477 -3.104732,-0.59371 -6.256094,-0.76586 -9.40821,-0.85576 -3.81635,0.009 -7.630525,0.17062 -11.44478,0.28216 -1.12776,0.0333 -2.255837,0.0512 -3.383772,0.0754 -0.908129,0.5548 -1.966518,0.57724 -2.88613,0.0641 -0.03584,5.3e-4 -0.07165,0.002 -0.107487,0.003 -0.03142,5.3e-4 -0.0525,-0.009 -0.08268,-0.009 -0.32049,0.14732 -0.641715,0.29301 -0.962215,0.44028 -0.262501,0.12062 -0.518089,0.22111 -0.770496,0.31265 -0.876996,0.71434 -1.945576,0.85817 -2.911967,0.46405 -2.943479,-0.21613 -4.295167,-2.77187 -2.550232,-5.0524 -2.22e-4,-0.028 -0.0078,-0.0483 -0.0078,-0.0765 v -6.3469 c -0.014,-2.72977 -0.02254,-5.45666 0.112657,-8.18348 0.135676,-2.32533 0.233519,-4.6523 0.299723,-6.98046 0.046,-1.80459 0.06926,-3.60958 0.08527,-5.41465 -0.0258,-1.02998 0.04009,-2.054459 0.138491,-3.078883 0.0044,-0.04602 0.02191,-0.07504 0.02687,-0.120406 C 15.992671,97.193438 15.83363,95.70984 16.656834,94.418959 10.68718,93.678613 10.992573,87.32947 17.739972,87.32947 h 3.885033 5.177462 5.913334 c 1.498505,0.05847 2.984222,-0.03228 4.475178,-0.161748 1.252041,-0.18606 2.49041,-0.398671 3.697968,-0.782897 1.001961,-0.32245 0.492366,-0.161472 1.527553,-0.482142 0.510384,-0.158096 0.938446,-0.174371 1.394749,-0.23771 0.672338,-1.56932 1.86623,-2.35903 3.063377,-2.35903 z" /></clipPath><clipPath
       clipPathUnits="userSpaceOnUse"
       id="clipPath139"><path
         id="path140"
         style="fill:#ff0000;fill-opacity:1;fill-rule:nonzero;stroke:none;stroke-width:0.264583"
         d="M 97.168006,-339.91235 V -44.578961 H 346.46958 V -339.91235 Z m 14.326254,94.53944 c 1.76488,0.006 3.77708,1.78446 4.35839,5.31699 0.32911,1.99994 0.60308,4.00817 0.88884,6.01462 1.02527,-1.2445 2.22305,-1.83589 3.28403,-1.8402 2.05627,-0.008 3.59454,2.17302 2.34611,6.00222 -0.0197,0.0606 -0.0413,0.12046 -0.0615,0.18087 0.31698,0.91799 0.41757,2.09982 0.17777,3.54139 -0.2164,1.30085 -0.62011,2.56457 -1.0263,3.8163 -1.34183,4.13496 -4.42238,4.92072 -6.12882,3.38016 -1.93867,0.62007 -4.30523,-0.86149 -4.65605,-4.82762 -0.16862,-1.90632 -0.33891,-3.81275 -0.57464,-5.71231 -0.45291,-3.52522 -1.07719,-7.02592 -1.48208,-10.55543 -0.40801,-3.55672 1.10935,-5.32303 2.87424,-5.31699 z" /></clipPath><clipPath
       clipPathUnits="userSpaceOnUse"
       id="clipPath170"><path
         id="path171"
         style="fill:#ff0000;fill-opacity:1;fill-rule:nonzero;stroke:none;stroke-width:0.264583"
         d="M 88.756261,-299.52331 V 17.880567 H 410.91541 V -299.52331 Z M 363.24287,-220.863 c 0.90345,-0.008 1.97628,0.23856 3.18532,0.82218 3.39402,1.63831 6.49674,3.81197 9.57823,5.96449 3.22509,2.31448 6.37511,4.73585 9.43663,7.26261 1.87296,1.50796 3.75989,2.99047 5.54284,4.6054 1.76167,1.54167 3.42262,3.17283 4.95419,4.94388 1.19316,1.48882 2.47049,2.9032 3.73311,4.33204 1.08043,1.20022 2.09423,2.45631 2.94299,3.83026 0.82616,1.73429 1.48968,3.55524 1.93786,5.42344 1.67031,6.96258 -5.76469,8.62686 -7.05745,1.5844 -0.21127,-1.15093 -0.75649,-2.20765 -1.10278,-3.32021 -0.52141,-1.02678 -1.43909,-1.82952 -2.14042,-2.72904 -1.28368,-1.45272 -2.58234,-2.89095 -3.79617,-4.40386 -1.32794,-1.55409 -2.79577,-2.95456 -4.33049,-4.3031 -1.69875,-1.54267 -3.51006,-2.94207 -5.29113,-4.38733 -2.90883,-2.40671 -5.90918,-4.70386 -8.97258,-6.91017 -2.63017,-1.83963 -5.2759,-3.68008 -8.12096,-5.17746 -5.14813,-2.7095 -4.41412,-7.50431 -0.49919,-7.53753 z m -17.79788,14.64304 c 0.81097,-0.004 1.74701,0.16947 2.79104,0.57154 4.59168,1.76834 8.99191,4.00303 13.38523,6.20892 0.37082,0.1876 0.72266,0.4088 1.09088,0.601 0.4155,-0.11565 0.91038,-0.17484 1.48572,-0.16691 0.65984,0.009 1.42523,0.10601 2.29753,0.30644 2.35556,0.54125 4.30075,1.95473 6.16344,3.42614 -1.07651,-2.72314 0.34142,-4.84679 2.57866,-4.84311 1.28683,0.002 2.83083,0.70484 4.29689,2.3952 2.44776,2.82227 4.79147,5.70892 6.96391,8.74934 1.67944,2.35043 1.72027,4.43615 0.89969,5.70663 1.5344,1.02281 3.07247,2.04019 4.58422,3.09645 1.80695,1.14136 3.31928,2.58833 4.72631,4.18269 0.96689,1.16625 2.0869,2.25988 2.79262,3.61942 0.19542,0.37651 0.34592,0.77482 0.51882,1.1622 0.40259,1.55462 0.27207,0.76263 0.38706,2.3766 0.0637,0.89436 -0.044,1.45412 -0.26977,1.7756 0.11753,0.20753 0.23421,0.41574 0.35608,0.62063 3.66003,6.15399 -2.6856,9.845 -6.25234,3.63648 -0.83209,-1.44832 -1.62388,-2.92102 -2.35437,-4.42351 -0.84839,-1.84687 -1.70402,-3.69055 -2.54093,-5.54229 -0.078,-0.17246 -0.14713,-0.34128 -0.2119,-0.5085 -0.415,-0.33988 -0.82071,-0.68775 -1.29707,-0.97255 -2.35545,-1.64933 -4.79565,-3.17384 -7.14841,-4.82761 -3.27895,-2.27743 -6.61384,-4.47194 -9.95804,-6.65231 -4.00886,-2.60003 -8.08797,-5.09434 -12.3548,-7.25434 -4.08429,-2.05175 -8.1752,-4.1242 -12.42663,-5.81101 -5.61546,-2.22804 -4.88331,-7.4129 -0.50384,-7.43314 z m -225.34594,21.50101 c 3.05551,-0.16929 4.03285,3.80875 0.35915,7.72563 -1.17612,1.25397 -2.32696,2.59265 -3.45922,3.90674 -1.44062,1.57315 -2.77631,3.23874 -4.13618,4.88135 -1.14319,1.4697 -2.29319,2.93265 -3.46335,4.38113 -0.8717,1.2084 -1.86054,2.32105 -2.81017,3.46594 -0.80685,0.95022 -1.53489,1.96075 -2.32234,2.92695 -0.80594,1.00684 -1.52017,2.08004 -2.22519,3.15847 -0.20511,0.28103 -0.29499,0.51935 -0.30179,0.78909 -0.18033,7.15787 -8.659963,5.5717 -7.093102,-1.4149 0.267098,-1.19094 0.644303,-2.32859 1.347721,-3.34243 0.846108,-1.28566 1.701136,-2.56663 2.670121,-3.76463 0.806525,-0.98525 1.5446,-2.0236 2.37453,-2.98999 0.93132,-1.109 1.88214,-2.2008 2.7342,-3.37448 1.18855,-1.47082 2.35327,-2.95822 3.51813,-4.44779 1.39067,-1.67946 2.758,-3.38112 4.2292,-4.99142 1.55862,-1.80675 3.07205,-3.68494 4.92528,-5.20227 1.38505,-1.13397 2.63451,-1.65096 3.65301,-1.70739 z m 30.4953,3.26389 c 4.11093,0.0973 5.25218,4.81763 -0.0434,7.22591 -1.93926,0.8819 -3.80509,1.88928 -5.66115,2.92437 0.381,1.39299 -0.23993,3.26566 -2.43035,4.98678 -2.3369,1.83618 -4.71607,3.61825 -7.08845,5.40845 -2.84267,2.19936 -5.66068,4.43162 -8.41086,6.74584 -2.22216,1.84972 -4.46469,3.67225 -6.66213,5.55109 -1.67979,1.46598 -3.37138,2.91821 -5.06067,4.37337 -1.40892,1.30469 -2.82191,2.592 -4.12274,4.00648 -1.07181,1.16531 -2.16701,1.83049 -3.17087,2.10529 -0.88357,6.53411 -7.65001,5.87099 -7.10344,-1.07177 0.0596,-0.75732 0.12015,-1.51435 0.21239,-2.26859 0.18237,-1.4495 0.31176,-2.90657 0.57051,-4.34444 0.56059,-2.2771 1.55106,-4.35314 3.32124,-5.95312 1.46716,-1.38711 2.94871,-2.75912 4.4943,-4.05919 1.45063,-1.21601 2.91967,-2.40825 4.4111,-3.57394 2.2284,-1.75259 4.48249,-3.46927 6.81044,-5.08961 3.1083,-2.16601 6.29001,-4.21936 9.5343,-6.17689 3.28252,-2.04598 6.49796,-4.19789 9.78648,-6.23476 2.38673,-1.38679 4.82146,-2.65715 7.33495,-3.79873 1.22236,-0.55516 2.32966,-0.77899 3.27836,-0.75654 z" /></clipPath><clipPath
       clipPathUnits="userSpaceOnUse"
       id="clipPath233"><path
         id="path234"
         style="fill:#ff0000;fill-opacity:1;fill-rule:nonzero;stroke:none;stroke-width:0.264583"
         d="M 185.24069,-319.24193 V -24.289387 H 425.09684 V -319.24193 Z m 138.35487,149.6534 c 1.78419,7.9e-4 3.63037,1.79012 3.80182,5.36608 0.0643,1.33996 -0.0719,2.65433 -0.29041,3.95842 0.27255,-0.0735 0.56767,-0.11689 0.88522,-0.12351 0.37047,-0.008 0.77026,0.0328 1.19579,0.12867 0.38629,-0.24279 0.8215,-0.42195 1.34254,-0.44493 1.13073,-0.0499 2.53823,0.47335 4.04474,1.80971 0.4186,0.37135 0.80759,0.77178 1.2056,1.16323 0.49581,-0.30652 1.09744,-0.47283 1.77559,-0.44028 1.18851,0.0571 2.59295,0.69888 3.98788,2.15129 2.63375,2.74227 4.82211,5.85047 6.92256,9.00669 2.43144,3.88376 4.79634,7.81591 6.98098,11.84475 1.13959,2.01485 2.36363,3.97199 3.24527,6.11746 0.86638,2.54168 0.71525,4.37292 -0.15348,6.88278 -0.88855,2.03627 -2.18951,3.83746 -3.64937,5.49682 -1.22616,1.21887 -2.44396,2.51198 -3.976,3.35587 -0.38219,0.21053 -0.79187,0.3659 -1.18803,0.54881 -6.50071,3.00135 -9.83602,-5.23462 -2.81948,-6.6611 1.07346,-0.21823 1.75532,-1.41088 2.56987,-2.0407 0.86323,-0.96375 1.62015,-2.00233 2.25208,-3.13417 0.24334,-0.63932 0.47847,-1.05078 0.24958,-1.76114 -0.42873,-1.13152 -1.03555,-2.17502 -1.65674,-3.21169 -0.64492,3.08426 -3.96214,3.78517 -6.03631,0.97152 -0.80928,1.85722 -3.53859,2.62684 -6.75775,0.30902 -0.53872,-0.38787 -1.07831,-0.77486 -1.61745,-1.1622 -3.08248,4.62545 -3.94671,5.04673 -6.74584,2.87063 -2.73204,-2.16473 -5.33615,-4.48821 -8.05999,-6.6642 -2.7461,-2.45053 -5.40757,-5.07957 -7.04763,-8.42635 -1.62115,-0.12575 -3.24178,-0.2569 -4.86637,-0.34314 -7.58719,-0.44787 -15.17743,-0.9445 -22.76553,-1.33377 -1.07801,-0.0553 -1.93227,-0.3045 -2.68459,-0.62166 -0.57677,0.62929 -1.1192,1.29485 -1.64021,1.97352 -1.38696,2.1585 -2.2854,4.54313 -3.09181,6.96185 -0.53658,1.90527 -0.93866,3.84574 -1.3658,5.77949 0.3976,-0.38181 0.79402,-0.76498 1.19114,-1.14825 1.44902,-1.39846 2.84121,-1.97983 3.98373,-1.97766 2.91995,0.006 4.20899,3.82009 0.64648,7.53391 -0.92629,0.96557 -1.9114,1.86859 -2.9099,2.75797 -1.78302,1.58814 -3.50499,2.03887 -4.81263,1.76372 -0.007,0.0412 -0.0189,0.0812 -0.0253,0.12247 -0.31138,2.1774 -0.34632,4.38158 -0.39739,6.57686 0.006,3.5147 -0.15426,7.02208 -0.44287,10.52391 -0.15049,2.45352 -0.52882,4.882887 -0.77928,7.326166 -0.25682,2.270699 -0.2357,4.548968 -0.1633,6.828007 0.0525,1.43787 0.0261,0.723201 0.0775,2.145088 7.9e-4,0.02175 -0.006,0.03573 -0.006,0.05736 0.13966,0.0486 0.27673,0.09115 0.42013,0.148309 3.73047,1.486969 7.59999,2.598727 11.41894,3.833876 4.85884,1.705695 9.66861,3.546912 14.50144,5.32474 1.9552,0.651698 3.84707,1.443672 5.71489,2.292366 2.6308,-0.638411 5.26049,-1.281708 7.89771,-1.893425 4.5737,-1.075436 2.35597,-0.547624 6.65438,-1.580782 0.65268,-0.156879 1.2592,-0.237268 1.81642,-0.252698 3.40876,-0.09437 4.96226,2.238663 4.05712,4.350639 3.89832,1.612736 3.00805,6.568553 -2.90269,6.729304 l -2.19726,0.05943 c 0.0932,0.05532 0.18872,0.106439 0.28112,0.163298 6.09814,3.752323 2.1299,10.065517 -3.84782,6.124173 -1.04591,-0.689594 -2.23735,-1.127543 -3.31556,-1.763197 -2.61015,-1.251701 -5.22853,-2.484003 -7.87136,-3.665926 -0.34703,-0.170111 -0.69536,-0.335955 -1.04283,-0.504362 -1.04394,0.228952 -2.09238,0.441277 -3.15071,0.537951 -0.41145,0.100483 -0.82417,0.195434 -1.23558,0.296105 -3.95687,0.968251 -6.08679,-0.907356 -5.97897,-3.010669 -0.31188,-0.687727 -0.239,-1.395294 0.0263,-2.059305 -3.87146,-1.438614 -7.73769,-2.891312 -11.63237,-4.265891 -3.97417,-1.285444 -7.99945,-2.446282 -11.87938,-4.000272 -1.44639,-0.579335 -2.44377,-1.350957 -3.06182,-2.17506 -1.01218,-0.798706 -1.81304,-2.231819 -1.89446,-4.484998 -0.0517,-1.431189 -0.0254,-0.705106 -0.0791,-2.177645 -0.0816,-2.602558 -0.0903,-5.205841 0.19844,-7.79849 0.24823,-2.394268 0.6146,-4.775082 0.76533,-7.179412 0.27808,-3.36008 0.42763,-6.72542 0.42064,-10.09809 0.0594,-2.5132 0.11189,-5.03614 0.48266,-7.52719 0.38072,-2.41928 0.90466,-4.80615 1.46451,-7.18974 0.6701,-2.94551 1.25825,-5.91529 2.11305,-8.81393 1.0668,-3.18776 2.31041,-6.31647 4.23489,-9.10074 0.42128,-0.53977 0.8547,-1.07136 1.29914,-1.59215 -1.52816,-0.60355 -3.06641,-1.18197 -4.57646,-1.83141 -1.09038,3.76762 -2.19021,7.53001 -3.40755,11.25926 -1.05961,2.97655 -0.54118,1.54568 -1.55081,4.2938 -1.83358,4.9908 -6.03644,4.88509 -7.07398,1.75544 -2.82634,3.52841 -7.50378,1.0111 -5.57744,-4.75268 1.05408,-3.1537 2.2385,-6.34595 4.49688,-8.85837 1.49582,-1.66408 2.97572,-2.34765 4.17287,-2.32647 0.33252,0.006 0.64298,0.0664 0.92604,0.17518 0.46945,-1.58214 0.96416,-3.15651 1.43919,-4.7377 0.70062,-2.33196 1.93737,-3.52641 3.18689,-3.8871 0.54142,-0.34307 1.25019,-0.55529 2.11615,-0.57361 h 5.3e-4 c 0.8057,-0.017 1.74503,0.13149 2.80396,0.49248 0.31645,0.10788 0.63769,0.20324 0.94929,0.32401 1.83624,0.71133 3.60046,1.59642 5.43016,2.32544 1.18096,0.47048 2.26953,0.84228 3.35329,1.23145 0.62902,-0.20883 1.22424,-0.32846 1.76785,-0.35037 2.28614,-0.0921 3.73455,1.32842 3.67523,3.07682 1.73917,0.0925 3.47854,0.18832 5.21777,0.2899 -0.1345,-1.7899 1.43141,-3.54652 4.54959,-3.56619 0.39587,-0.002 0.816,0.0231 1.25987,0.0801 3.99155,0.51285 7.97638,1.04608 11.94346,1.72703 0.35092,0.0747 0.7018,0.14913 1.05265,0.22376 0.92028,-2.09088 2.0607,-3.80586 3.79408,-5.38675 0.9172,-0.8245 1.6747,-1.80494 2.07378,-2.98587 0.46483,-1.35061 0.4893,-2.77914 0.4594,-4.19561 h 5.3e-4 c -0.0754,-3.57927 1.64663,-5.36691 3.4308,-5.36608 z m 1.97559,14.00741 c -0.78838,1.39934 -1.79816,2.66075 -2.96984,3.79512 -1.06213,0.94584 -1.80404,2.02586 -2.28153,3.3538 -0.003,0.012 -0.005,0.0237 -0.009,0.0357 1.15411,0.11311 2.30814,0.22665 3.4613,0.3514 3.99042,0.43171 5.40747,2.84663 4.69323,4.76353 0.67585,0.41545 1.35041,0.83313 2.01954,1.25626 3.82278,2.5036 7.53266,5.1715 11.24013,7.84086 -1.81731,-3.68096 -3.93583,-7.19476 -6.36087,-10.5146 -1.10355,-1.48555 -2.20805,-3.00054 -3.36206,-4.44883 -0.35653,-0.44747 -1.7607,-2.16704 -2.34455,-2.70784 -0.36042,-0.33384 -0.93237,-0.68033 -1.36375,-0.9555 -1.33122,-0.84918 -2.21667,-1.81673 -2.72282,-2.76986 z" /></clipPath><clipPath
       clipPathUnits="userSpaceOnUse"
       id="clipPath240"><path
         id="path241"
         style="fill:#ff0000;fill-opacity:1;fill-rule:nonzero;stroke:none;stroke-width:0.264583"
         d="M 92.804184,-309.23338 V -41.629034 H 294.29938 V -309.23338 Z m 130.496946,63.74443 c 0.93337,0.009 2.02072,0.27397 3.21944,0.8785 1.75312,0.88412 3.43212,1.89553 5.06326,2.98586 5.9527,3.97906 1.8926,10.01797 -4.03542,6.00222 -1.36849,-0.92705 -2.78857,-1.76849 -4.26227,-2.51871 -5.18448,-2.63926 -4.02961,-7.38891 0.015,-7.34787 z m -85.24544,1.99626 c 3.36772,-0.0906 4.87054,3.93317 0.67437,7.28431 -0.81214,0.6486 -0.42273,0.34746 -1.1653,0.9064 -1.7275,1.42217 -3.47209,2.82263 -5.29477,4.12275 -2.09112,1.47372 -4.25636,2.82668 -6.45645,4.13153 -6.15846,3.65253 -10.39165,-1.95967 -4.33979,-5.78621 2.21999,-1.40367 4.47897,-2.73503 6.6244,-4.25349 1.67688,-1.19734 3.27994,-2.48915 4.86947,-3.79821 0.91499,-0.69918 0.50268,-0.37435 1.24076,-0.9679 1.39493,-1.12177 2.72473,-1.60899 3.84731,-1.63918 z" /></clipPath></defs><g
     id="layer1"
     transform="translate(36.962064,323.18772)"><path
       style="fill:#000000"
       d="m 44.634412,-30.246442 c -8.89645,-1.909431 -14.50429,-7.456348 -16.04945,-15.875073 -0.46576,-2.53768 -1.58944,-12.387696 -1.58944,-13.932827 0,-0.444824 -0.52293,-0.805281 -1.76838,-1.218954 -2.35623,-0.782613 -5.62494,-3.004455 -7.13664,-4.850994 -2.78585,-3.402904 -4.40972,-8.464191 -3.9606,-12.344436 l 0.23467,-2.027478 -2.59216,1.222584 c -7.6732198,3.619045 -14.3575698,2.926277 -19.5994698,-2.031294 -4.3221002,-4.087658 -5.6143002,-10.341458 -3.5803602,-17.327647 l 0.70915,-2.435759 -0.77651,-2.41494 c -0.62702,-1.95002 -0.74643,-2.98803 -0.62026,-5.39183 0.24806,-4.72619 1.58348,-7.04998 7.7686902,-13.51846 2.735,-2.86026 7.3691,-8.13092 10.298,-11.71257 2.92889,-3.58166 6.7995598,-8.05217 8.6014698,-9.93447 l 3.27621,-3.42236 -0.40819,-1.62105 c -0.29091,-1.15533 -0.30374,-2.03253 -0.0446,-3.05332 0.42837,-1.68764 0.71329,-1.53841 -3.9452,-2.06623 -10.4326298,-1.18206 -17.5376498,-4.96322 -22.8908698,-12.18208 -2.2287002,-3.00543 -3.7491402,-5.78252 -5.0271302,-9.18205 l -0.79592,-2.11718 -2.77163,-0.45464 c -3.2284,-0.52956 -6.928654,-2.17271 -9.504103,-4.22044 -6.496088,-5.165 -10.216016,-16.03382 -9.280903,-27.11678 1.124713,-13.3301 8.938139,-23.68337 19.066976,-25.26491 l 2.70081,-0.42171 0.22355,-1.42506 c 1.06296,-6.7758 3.37653,-14.40404 5.9959002,-19.7695 4.1397,-8.47967 10.10179,-14.04862 18.51767,-17.29662 10.2008598,-3.93689 30.8024398,-7.2029 49.0598598,-7.77755 3.39549,-0.10687 6.5308,-0.26662 6.96736,-0.35499 0.78138,-0.15817 0.79375,-0.24443 0.79375,-5.53442 v -5.37374 l -1.6736,-0.88134 c -2.4591,-1.29499 -6.50769,-5.29127 -7.76897,-7.66858 -2.43606,-4.59161 -2.85017,-9.65359 -1.14749,-14.02665 1.21771,-3.12745 4.77141,-6.6037 7.58785,-7.42246 2.9744,-0.86468 6.40552,-0.57184 8.34602,0.71232 l 1.46401,0.96884 2.11537,-1.00991 c 1.7647,-0.84248 2.56009,-1.00813 4.79817,-0.99927 3.27493,0.013 5.25062,0.81566 7.74083,3.14496 2.51771,2.35502 3.68073,5.12881 3.86957,9.22886 0.31031,6.7378 -2.67332,12.14929 -8.9267,16.19055 l -2.7294,1.76389 0.21612,3.88056 c 0.11887,2.1343 0.21684,4.60954 0.21773,5.50052 l 0.002,1.61996 6.61458,0.23308 c 20.452418,0.72067 39.614328,3.76155 50.787168,8.05963 8.11646,3.12232 14.17366,8.62021 17.9988,16.3368 2.52918,5.10224 4.27479,10.42467 5.72721,17.4625 l 0.91005,4.40972 2.10818,0.23496 c 10.38918,1.15786 18.23679,11.24218 19.55002,25.12212 0.54614,5.77237 -0.12809,11.1122 -2.07754,16.45381 -1.77318,4.85863 -4.30623,8.43109 -7.91464,11.16232 -2.897,2.19277 -5.30951,3.25555 -8.75573,3.85718 -1.58085,0.27598 -2.94449,0.57201 -3.03033,0.65785 -0.0858,0.0858 -0.66351,1.4146 -1.28373,2.95281 -1.72113,4.26864 -3.81392,7.5045 -7.05215,10.90398 -5.1248,5.38002 -11.30928,8.31517 -19.95967,9.47285 -5.69792,0.76255 -5.35373,0.64101 -4.93494,1.7425 0.40504,1.06533 0.41934,3.21016 0.0281,4.21101 -0.21759,0.5566 0.35594,1.39282 2.90344,4.23333 1.74603,1.94685 5.70049,6.67606 8.7877,10.50936 3.08721,3.8333 7.71234,9.09206 10.27807,11.68614 4.93138,4.98586 6.34292,7.05614 7.46799,10.95318 0.7109,2.4624 0.53694,5.20918 -0.50329,7.94685 -0.67224,1.76919 -0.67251,1.82959 -0.0162,3.696947 2.76935,7.87931 0.62056,15.706365 -5.41104,19.709911 -5.13935,3.41131 -11.492,3.626299 -17.60033,0.59564 -1.17163,-0.581307 -2.23301,-1.056421 -2.35862,-1.055809 -0.12561,6.12e-4 -0.22838,1.716013 -0.22838,3.812004 0,3.684327 -0.0433,3.898109 -1.30321,6.437081 -1.70238,3.430582 -4.18754,5.858298 -8.04138,7.855508 l -2.99459,1.551912 -0.61015,5.957996 c -1.13855,11.117767 -2.37545,14.695733 -6.46815,18.710323 -3.86835,3.794515 -8.75857,5.688837 -15.507518,6.007129 -6.8098,0.321162 -11.92715,-1.359615 -15.74576,-5.171647 -3.73769,-3.731243 -4.81426,-6.997606 -5.13337,-15.574855 l -0.2183,-5.867601 -3.03323,-0.168959 c -1.66827,-0.09293 -3.09841,-0.112536 -3.17807,-0.04357 -0.0797,0.06896 -0.26932,2.944165 -0.42145,6.389338 -0.29751,6.737323 -0.53294,7.958605 -2.15354,11.171454 -3.03708,6.021016 -9.40822,9.419305 -17.53312,9.351951 -1.86074,-0.01543 -4.41503,-0.249516 -5.67621,-0.520201 z m 10.81297,-6.665936 c 2.3236,-0.707776 4.99228,-2.500668 6.03212,-4.052542 0.75307,-1.123902 2.07088,-4.878905 1.79657,-5.119237 -0.0665,-0.05823 -6.43114,-0.183365 -14.14374,-0.278085 -15.90682,-0.195355 -14.74528,-0.44629 -13.11138,2.83252 2.86813,5.755573 12.02052,8.873211 19.42643,6.617344 z m 47.116778,-0.222262 c 3.28868,-0.957534 6.39838,-3.177076 7.86879,-5.616332 0.64329,-1.067153 1.26903,-2.284621 1.39053,-2.705484 l 0.22091,-0.765206 -14.037628,-0.123423 c -7.7207,-0.06788 -14.17553,-0.01427 -14.34407,0.119149 -0.16855,0.133415 -0.0156,1.168298 0.33986,2.29974 0.73423,2.337006 2.61901,4.616419 4.94362,5.978734 3.28746,1.926579 8.68606,2.248807 13.617988,0.812822 z M 63.478432,-49.835729 c 0.1,-0.09998 0.2884,-1.698737 0.41873,-3.552803 l 0.23696,-3.371028 -5.78111,-0.246307 c -7.18999,-0.306334 -19.53964,-1.18626 -22.36166,-1.593293 -1.16416,-0.167913 -2.22997,-0.20077 -2.36845,-0.07301 -0.24121,0.22252 0.19562,5.632394 0.65518,8.114072 l 0.22012,1.188703 14.39923,-0.142278 c 7.91957,-0.07825 14.48102,-0.224076 14.581,-0.324052 z m 48.952658,-0.279289 c 0.13186,-0.121372 0.45692,-1.966926 0.72235,-4.101231 l 0.4826,-3.880555 -0.852,-0.115628 c -0.4686,-0.06359 -2.69866,0.05366 -4.95568,0.260567 -2.25702,0.206907 -8.814158,0.568011 -14.571408,0.802453 l -10.46773,0.426258 0.17806,3.19373 c 0.0979,1.756552 0.23739,3.387044 0.30992,3.623316 0.1022,0.332904 3.37074,0.382569 14.52301,0.220677 7.915128,-0.114901 14.499018,-0.308215 14.630878,-0.429587 z M 72.274552,-62.773695 c 0.0908,-0.146942 0.27987,-2.979124 0.42012,-6.293737 l 0.25499,-6.026568 -3.4861,-0.230826 c -1.91735,-0.126955 -4.00203,-0.231648 -4.63262,-0.232652 l -1.14653,-0.0018 v 6.337225 6.337224 l 3.43958,0.115331 c 1.89177,0.06343 3.7874,0.148556 4.21251,0.189164 0.42512,0.04061 0.84724,-0.04639 0.93805,-0.193336 z m 11.36366,-0.165306 c 0.28111,-0.282168 0.42371,-12.119669 0.14919,-12.384285 -0.0941,-0.09068 -2.15506,-0.06182 -4.57996,0.06414 l -4.4089,0.229011 0.0913,2.645833 c 0.0502,1.455208 0.18878,4.286193 0.3079,6.291077 l 0.21658,3.645245 3.98437,-0.117467 c 2.19141,-0.06461 4.09918,-0.232706 4.2395,-0.373553 z m -22.2931,-6.198948 c 0.1686,-3.35624 0.24798,-6.155308 0.17639,-6.220149 -0.0716,-0.06484 -1.97583,-0.230448 -4.23167,-0.368014 l -4.10152,-0.250121 -0.41901,3.471659 c -0.23045,1.909413 -0.36914,4.741659 -0.30819,6.293881 l 0.1108,2.822222 3.175,0.205602 c 1.74625,0.113081 3.65125,0.192456 4.23333,0.176389 l 1.05833,-0.02921 z m 31.61241,6.047369 2.21273,-0.231276 -0.1752,-5.677751 c -0.0964,-3.122763 -0.2927,-5.95731 -0.43632,-6.298992 -0.23563,-0.560586 -0.64477,-0.598885 -4.19064,-0.392267 -2.16123,0.125935 -3.94084,0.246743 -3.95469,0.268462 -0.0138,0.02172 0.0438,2.857302 0.12821,6.301295 l 0.15338,6.261805 h 2.0249 c 1.1137,0 3.02063,-0.104074 4.23763,-0.231276 z m 13.765768,-1.0649 c 0.37443,-0.376948 0.0111,-8.848351 -0.45133,-10.521879 l -0.48735,-1.763888 -4.02857,0.123457 c -2.215718,0.0679 -4.133158,0.187384 -4.260988,0.265516 -0.12782,0.07813 -0.002,0.975078 0.27966,1.99321 0.28164,1.018132 0.60767,3.75615 0.72452,6.084483 0.11685,2.328333 0.34215,4.318346 0.50068,4.422252 0.33384,0.21882 7.459668,-0.337665 7.723378,-0.603151 z m -57.500688,-1.790629 c 0.002,-2.327481 0.79346,-8.517884 1.23664,-9.672802 0.1912,-0.498238 -0.17014,-0.613713 -2.53635,-0.810558 -1.51762,-0.126251 -3.47114,-0.259924 -4.34114,-0.297052 l -1.58184,-0.0675 -0.44895,1.763889 c -0.27624,1.085273 -0.41414,3.460427 -0.35845,6.17361 l 0.0905,4.409722 2.29306,0.402895 c 1.26118,0.221592 3.04711,0.420029 3.96875,0.440972 l 1.67569,0.03808 z m -10.48837,-9.158175 0.50757,-2.190814 -1.62522,-0.216444 c -0.89388,-0.119045 -2.48782,-0.363491 -3.5421,-0.543214 -2.8738,-0.489896 -3.08926,-0.441849 -3.51667,0.784207 -0.50225,1.440755 -0.44913,7.78688 0.0821,9.805394 0.46244,1.757197 0.92469,1.982541 4.98597,2.430632 l 2.12939,0.234941 0.23571,-4.056944 c 0.12964,-2.231319 0.46411,-5.04281 0.74328,-6.247758 z m 76.219328,9.752942 c 1.801,-0.505084 2.40348,-1.960057 2.62008,-6.327406 0.20619,-4.157449 -0.28796,-6.353506 -1.42714,-6.34238 -1.18661,0.01159 -6.93214,0.9115 -7.13877,1.118133 -0.0999,0.09991 0.0831,1.276556 0.40661,2.61476 0.33399,1.381352 0.60385,4.012278 0.62431,6.086355 l 0.036,3.653256 1.76389,-0.211904 c 0.97014,-0.116547 2.37188,-0.382413 3.11499,-0.590814 z m -87.762978,-6.415561 c 0.0136,-3.142297 0.17776,-4.730697 0.60171,-5.820872 0.32067,-0.824618 0.45931,-1.499305 0.30808,-1.499305 -0.15123,0 -1.74845,-0.253111 -3.54938,-0.562468 -2.30497,-0.395938 -3.38505,-0.451837 -3.64809,-0.188803 -0.59099,0.590999 -0.74205,4.135476 -0.25098,5.889395 0.24614,0.879135 0.90755,2.233463 1.46979,3.009619 0.96254,1.328736 3.86158,3.493875 4.6783,3.493962 0.23943,2.5e-5 0.37855,-1.539272 0.39057,-4.321528 z m 95.269368,3.174961 c 0.96598,-0.649465 2.16857,-1.899008 2.7739,-2.882202 0.92065,-1.495358 1.08269,-2.130335 1.17028,-4.58611 0.14037,-3.935133 0.0944,-3.978259 -3.47761,-3.261822 -1.60129,0.321172 -2.95777,0.63028 -3.0144,0.686906 -0.0566,0.05663 0.14642,0.95366 0.45121,1.993409 0.55266,1.885278 0.51446,6.532892 -0.0691,8.402596 -0.33829,1.083954 0.14611,1.005046 2.16567,-0.352777 z M 85.895952,-79.447401 c 14.945088,-0.580361 28.179918,-2.029151 37.496088,-4.104622 1.96601,-0.43799 2.38125,-0.653127 2.38125,-1.233716 0,-0.549264 -3.7512,-14.261642 -4.38877,-16.042971 -0.0997,-0.27861 -1.18609,-0.14625 -3.60958,0.43979 -13.67446,3.306713 -37.958138,5.09677 -54.972478,4.052263 -16.2748,-0.999107 -32.53899,-3.443193 -35.67219,-5.360613 -0.60498,-0.37023 -1.26841,-0.67314 -1.47427,-0.67314 -0.44574,0 -1.0344,1.95499 -3.12403,10.375082 -0.86239,3.474976 -1.52057,6.639289 -1.46263,7.031806 0.12204,0.826718 0.6345,0.993984 6.10257,1.991861 8.51405,1.553742 23.41353,3.093879 33.86666,3.500744 10.42572,0.405799 14.90395,0.410035 24.85738,0.02352 z m 27.915448,-7.686345 c -1.7316,-1.532958 -2.6775,-3.242222 -1.79423,-3.242222 0.19281,0 0.35057,0.218686 0.35057,0.48597 0,0.693831 0.93356,1.412433 1.22413,0.942271 0.12574,-0.20345 -0.0189,-0.369908 -0.32137,-0.369908 -0.64361,0 -0.72579,-0.741422 -0.14639,-1.320818 0.30294,-0.302942 0.21366,-0.353925 -0.35802,-0.204428 -0.59719,0.156168 -0.71426,0.07574 -0.54224,-0.372516 0.31222,-0.813643 0.55998,-0.727538 1.90778,0.66304 0.6582,0.679097 1.30862,1.234722 1.44537,1.234722 0.13674,0 0.54216,-0.712093 0.90093,-1.582428 0.69014,-1.674203 0.92517,-1.735339 2.85944,-0.743802 l 0.79603,0.408054 -1.78429,2.899365 c -0.98135,1.594651 -1.97456,2.897615 -2.20713,2.895474 -0.23257,-0.0021 -1.28133,-0.763889 -2.33058,-1.692774 z m 1.02578,-0.596389 c 0,-0.09701 -0.0794,-0.176389 -0.17639,-0.176389 -0.097,0 -0.17639,0.07937 -0.17639,0.176389 0,0.09701 0.0794,0.176389 0.17639,0.176389 0.097,0 0.17639,-0.07937 0.17639,-0.176389 z m -1.05833,-2.116667 c 0,-0.09701 -0.0794,-0.176389 -0.17639,-0.176389 -0.097,0 -0.17639,0.07937 -0.17639,0.176389 0,0.09701 0.0794,0.176389 0.17639,0.176389 0.097,0 0.17639,-0.07938 0.17639,-0.176389 z M 7.2848222,-84.364106 c 0.8978,-0.340711 1.9733,-0.858279 2.39,-1.150151 0.7266698,-0.508981 0.6455198,-0.570426 -1.98513,-1.502995 -4.89927,-1.736799 -8.92502,-4.046093 -11.87728,-6.813171 -0.87107,-0.816439 -1.69335,-1.484434 -1.82728,-1.484434 -0.13393,0 -0.16788,1.178362 -0.0755,2.618582 0.47556,7.410213 6.27861998,11.025285 13.37514,8.332169 z m 140.7134678,0.0996 c 3.02639,-1.236442 4.9299,-4.459721 4.93544,-8.357376 l 0.003,-2.4223 -1.3367,1.207629 c -2.94223,2.658122 -7.26358,5.081461 -12.15094,6.814022 -1.50035,0.531874 -2.64122,1.107313 -2.53527,1.278755 0.3645,0.589767 2.35229,1.427293 4.51126,1.900751 2.35195,0.515775 4.63739,0.36922 6.57276,-0.421481 z M 16.961502,-93.462777 c 0.32859,-1.503715 1.14137,-4.545218 1.80617,-6.758893 0.9598,-3.19598 1.11416,-4.08725 0.74954,-4.32776 -0.25255,-0.16659 -1.33231,-0.80279 -2.39946,-1.41379 -2.10902,-1.20752 -9.8394498,-6.32989 -12.2701098,-8.13048 l -1.51039,-1.11886 -3.15419002,3.33427 c -3.70031998,3.91158 -5.13558998,6.40129 -4.78070998,8.29296 0.41309,2.20191 7.42074,8.508826 8.62633,7.763729 0.18568,-0.114753 0.52745,-0.801743 0.75949,-1.526644 0.71395,-2.230366 4.16388,-7.706775 5.8120098,-9.225965 1.63057,-1.50301 2.22234,-1.71421 2.90115,-1.03539 0.50873,0.50872 -0.0198,1.59817 -1.97564,4.07252 -1.5818098,2.00113 -3.0229898,4.695438 -3.9449098,7.375055 l -0.62429,1.814526 1.30182,0.731664 c 1.1344,0.637567 7.2037898,2.859852 7.8652298,2.879824 0.13229,0.004 0.50937,-1.223051 0.83796,-2.726766 z M 7.9455222,-105.01625 c 0,-0.097 0.0794,-0.17639 0.17639,-0.17639 0.097,0 0.17639,0.0794 0.17639,0.17639 0,0.097 -0.0794,0.17639 -0.17639,0.17639 -0.097,0 -0.17639,-0.0794 -0.17639,-0.17639 z m -0.70555,-1.05833 c 0,-0.097 0.0794,-0.17639 0.17639,-0.17639 0.097,0 0.17639,0.0794 0.17639,0.17639 0,0.097 -0.0794,0.17639 -0.17639,0.17639 -0.097,0 -0.17639,-0.0794 -0.17639,-0.17639 z M 133.19936,-91.295861 c 3.39387,-1.00787 6.68504,-2.644399 6.68504,-3.32412 0,-1.271214 -2.03815,-5.560099 -4.16566,-8.765789 -1.72127,-2.59357 -2.1089,-3.41297 -1.79403,-3.79236 0.6292,-0.75814 1.26313,-0.5819 2.75499,0.76591 1.43827,1.29939 4.94063,7.123117 5.66319,9.416755 0.22836,0.724902 0.52805,1.387745 0.66597,1.472986 0.428,0.264517 3.93602,-2.087171 5.70594,-3.82512 3.08454,-3.028821 3.13752,-4.570871 0.29891,-8.701021 -2.06091,-2.9986 -4.62305,-6.27505 -4.92615,-6.29955 -0.11361,-0.009 -2.01861,1.13806 -4.23333,2.54943 -2.21473,1.41136 -5.69365,3.49931 -7.73094,4.63988 -5.90023,3.30325 -5.34336,2.75078 -4.73532,4.69781 0.28824,0.92298 1.11198,3.940325 1.83055,6.705221 0.71856,2.764896 1.47853,5.027083 1.68881,5.027083 0.21029,0 1.2417,-0.255202 2.29203,-0.567115 z m -45.349678,-6.840147 c 2.32834,-0.189434 6.37646,-0.516897 8.99584,-0.727695 4.964868,-0.399554 7.468918,-0.916541 6.710268,-1.385407 -0.63724,-0.39384 -0.27212,-1.61165 0.44626,-1.48848 0.33252,0.057 0.60458,-0.062 0.60458,-0.26458 0,-0.20253 0.24882,-0.36824 0.55294,-0.36824 0.39809,0 0.49636,0.22228 0.35091,0.79375 l -0.20202,0.79375 0.40855,-0.79375 c 0.2247,-0.43656 0.56248,-0.79375 0.75061,-0.79375 0.18814,0 0.14032,0.24308 -0.10626,0.54019 -0.37064,0.4466 -0.33228,0.6296 0.22139,1.05621 0.36834,0.28381 1.02287,0.43559 1.4545,0.33728 0.43164,-0.0983 1.78101,-0.2719 2.99861,-0.38577 1.2176,-0.11387 3.00757,-0.48242 3.97771,-0.81901 0.97014,-0.33658 2.68335,-0.82398 3.80712,-1.0831 1.16941,-0.26964 1.98053,-0.63455 1.89661,-0.85324 -0.0806,-0.21016 -0.42625,-1.53259 -0.76802,-2.93873 -0.34176,-1.40614 -0.74222,-2.55661 -0.88992,-2.55661 -0.14769,0 -0.78413,0.59531 -1.41431,1.32292 -0.63018,0.7276 -1.84171,2.07494 -2.69228,2.99408 l -1.5465,1.67116 -4.31163,-2.67697 c -2.37139,-1.47234 -4.91491,-3.08492 -5.65225,-3.58351 l -1.34064,-0.90652 5.0448,-5.07549 c 2.77464,-2.79152 5.32118,-5.22985 5.65897,-5.41851 0.433,-0.24183 0.93699,-0.17609 1.70848,0.22287 0.60187,0.31123 1.15742,0.50277 1.23456,0.42562 0.10865,-0.10864 -1.52778,-5.47236 -1.77205,-5.80827 -0.0303,-0.0416 -1.79369,0.23686 -3.91871,0.61886 -3.84386,0.69097 -5.18553,0.83551 -17.974778,1.93638 -8.68583,0.74765 -32.48933,0.55347 -40.39306,-0.32952 -7.80607,-0.87209 -12.94997,-1.5885 -15.96213,-2.22312 -1.50314,-0.31669 -2.81792,-0.49085 -2.92174,-0.38703 -0.10383,0.10383 -0.48997,1.24201 -0.8581,2.5293 l -0.66933,2.34053 h 1.51193 1.51193 l 3.23967,4.45451 c 1.78182,2.44999 3.19368,4.49178 3.13747,4.53733 -0.0562,0.0455 -1.63499,0.96195 -3.50841,2.03647 -1.87341,1.07452 -4.00632,2.36146 -4.73978,2.85986 -0.99263,0.67451 -1.45113,0.80863 -1.79338,0.52459 -0.25289,-0.20988 -0.38308,-0.50572 -0.28932,-0.65744 0.0938,-0.15171 -0.0667,-0.36686 -0.35666,-0.47812 -0.28993,-0.11125 -0.52714,-0.37265 -0.52714,-0.58088 0,-0.54315 -1.36042,-1.9285 -1.62952,-1.6594 -0.28922,0.28922 -2.21446,6.73746 -2.06069,6.9019 0.19494,0.20846 6.82196,1.71728 10.92215,2.48672 5.47472,1.027385 13.8262,2.034626 20.6375,2.489013 3.20146,0.213572 6.45583,0.436605 7.23194,0.495631 3.54892,0.269905 19.47762,0.183854 23.28333,-0.125782 z m -6.95152,-5.152462 c -7.39582,-6.12402 -8.3554,-6.97339 -8.18666,-7.24642 0.34338,-0.55559 11.07623,-9.12163 11.42899,-9.12163 0.57798,0 13.10555,8.85525 12.98783,9.18059 -0.0585,0.16175 -2.9171,2.52173 -6.35238,5.24441 l -6.24597,4.95033 z m 7.94809,-3.35586 c 2.16828,-1.76856 3.97528,-3.39575 4.01556,-3.61597 0.0403,-0.22021 -1.91017,-1.85754 -4.33433,-3.63851 l -4.40756,-3.23811 -3.90148,3.37277 -3.90147,3.37276 0.82747,0.81276 c 1.46183,1.43585 7.16748,6.12466 7.46848,6.13749 0.16005,0.007 2.06505,-1.43462 4.23333,-3.20319 z m -9.9924,-7.54414 c 0,-0.097 -0.0794,-0.17639 -0.17639,-0.17639 -0.097,0 -0.17639,0.0794 -0.17639,0.17639 0,0.097 0.0794,0.17639 0.17639,0.17639 0.097,0 0.17639,-0.0794 0.17639,-0.17639 z m 1.6463,-1.46991 c -0.12935,-0.12935 -0.34102,-0.12935 -0.47037,0 -0.12935,0.12936 -0.0235,0.23519 0.23518,0.23519 0.25871,0 0.36454,-0.10583 0.23519,-0.23519 z m 26.693508,14.81667 c 0.12936,-0.12935 0.34102,-0.12935 0.47037,0 0.12936,0.12935 0.0235,0.23519 -0.23518,0.23519 -0.2587,0 -0.36454,-0.10584 -0.23519,-0.23519 z m -56.121338,-4.98646 c -2.67027,-2.50429 -5.05306,-4.79187 -5.2951,-5.08351 -0.37482,-0.45163 0.20093,-0.95188 3.88286,-3.37365 2.37762,-1.56387 5.51356,-3.56834 6.96877,-4.45439 l 2.64584,-1.61099 1.23472,1.32887 c 0.6791,0.73088 2.61921,2.90037 4.31136,4.8211 2.55139,2.89604 3.0031,3.58116 2.64584,4.01309 -0.33772,0.4083 -7.30719,5.80679 -10.91308,8.45318 -0.55745,0.40912 -1.15901,-0.0402 -5.48121,-4.0937 z m 8.41315,-0.92503 c 1.63032,-1.24637 3.43503,-2.65574 4.01048,-3.13194 l 1.04626,-0.86581 -1.47536,-1.89515 c -0.81145,-1.04233 -2.08454,-2.59488 -2.82909,-3.45012 l -1.35373,-1.55497 -3.24425,2.18143 c -1.78435,1.19979 -3.24426,2.10998 -3.24426,2.02264 0,-0.0873 -0.35719,0.14347 -0.79375,0.5129 -0.43656,0.36944 -1.19062,0.99528 -1.67569,1.39077 l -0.88195,0.71906 3.35139,3.16454 c 1.84326,1.7405 3.52562,3.16639 3.73856,3.16866 0.21295,0.002 1.72107,-1.01564 3.35139,-2.26201 z m 8.07949,-3.90749 c 0,-0.097 -0.0794,-0.17639 -0.17639,-0.17639 -0.097,0 -0.17638,0.0794 -0.17638,0.17639 0,0.097 0.0794,0.17639 0.17638,0.17639 0.097,0 0.17639,-0.0794 0.17639,-0.17639 z m -2.11666,-1.05833 c 0,-0.097 -0.0794,-0.17639 -0.17639,-0.17639 -0.097,0 -0.17639,0.0794 -0.17639,0.17639 0,0.097 0.0794,0.17638 0.17639,0.17638 0.097,0 0.17639,-0.0794 0.17639,-0.17638 z m 42.333328,9.525 c 0,-0.097 0.0794,-0.17639 0.17639,-0.17639 0.097,0 0.17638,0.0794 0.17638,0.17639 0,0.097 -0.0794,0.17639 -0.17638,0.17639 -0.097,0 -0.17639,-0.0794 -0.17639,-0.17639 z m -2.46945,-0.90277 c 0,-0.20548 0.15875,-0.27548 0.35278,-0.15557 0.19403,0.11992 0.35278,0.28804 0.35278,0.3736 0,0.0856 -0.15875,0.15557 -0.35278,0.15557 -0.19403,0 -0.35278,-0.16812 -0.35278,-0.3736 z m 0.17639,-1.03751 c 0.11992,-0.19403 0.2974,-0.35278 0.39442,-0.35278 0.097,0 0.0783,0.15875 -0.0416,0.35278 -0.11992,0.19403 -0.2974,0.35278 -0.39442,0.35278 -0.097,0 -0.0783,-0.15875 0.0416,-0.35278 z m 1.23472,-16.75695 c 0,-0.097 0.0794,-0.17638 0.17639,-0.17638 0.097,0 0.17639,0.0794 0.17639,0.17638 0,0.097 -0.0794,0.17639 -0.17639,0.17639 -0.097,0 -0.17639,-0.0794 -0.17639,-0.17639 z m -2.11666,19.75556 c 0,-0.097 -0.0794,-0.17639 -0.17639,-0.17639 -0.097,0 -0.17639,0.0794 -0.17639,0.17639 0,0.097 0.0794,0.17639 0.17639,0.17639 0.097,0 0.17639,-0.0794 0.17639,-0.17639 z m 30.23939,-9.61887 c 1.78854,-1.11254 4.44566,-2.87472 5.9047,-3.91596 l 2.65282,-1.89315 -0.55733,-0.94349 c -0.30653,-0.51892 -1.26113,-1.73074 -2.12133,-2.69295 l -1.564,-1.74947 -0.78477,1.05652 c -0.43162,0.58109 -1.3614,1.65265 -2.06618,2.38125 -1.6756,1.73225 -2.57446,1.72425 -9.1063,-0.0811 -2.79748,-0.77318 -5.14811,-1.34401 -5.22362,-1.26851 -0.19405,0.19405 1.32559,5.25289 1.69421,5.63998 0.17715,0.18602 0.56927,-0.14367 0.93724,-0.78803 0.38356,-0.67165 0.84102,-1.04694 1.16183,-0.95315 0.29104,0.0851 1.28323,0.33949 2.20486,0.56533 1.23487,0.30259 1.6757,0.57952 1.6757,1.05267 0,0.49679 -0.37914,0.69685 -1.6757,0.88423 -2.08048,0.30068 -3.66886,1.17487 -3.46208,1.90541 0.0843,0.29781 0.48892,1.69635 0.89917,3.10785 l 0.74591,2.56638 2.71649,-1.42552 c 1.49407,-0.78404 4.17984,-2.33578 5.96838,-3.44832 z m -4.8394,-3.43391 c 0,-0.097 0.0794,-0.17639 0.17639,-0.17639 0.097,0 0.17639,0.0794 0.17639,0.17639 0,0.097 -0.0794,0.17639 -0.17639,0.17639 -0.097,0 -0.17639,-0.0794 -0.17639,-0.17639 z m 9.87778,-1.05833 c 0,-0.097 0.0794,-0.17639 0.17639,-0.17639 0.097,0 0.17639,0.0794 0.17639,0.17639 0,0.097 -0.0794,0.17639 -0.17639,0.17639 -0.097,0 -0.17639,-0.0794 -0.17639,-0.17639 z m -118.385348,5.78818 c 0.52945,-1.76421 0.86104,-3.30926 0.73686,-3.43344 -0.12418,-0.12418 -1.20751,-0.20657 -2.40739,-0.18307 -1.71175,0.0335 -1.99381,-0.0286 -1.30962,-0.2883 1.00106,-0.38002 1.427,-0.92826 1.19364,-1.53638 -0.0892,-0.2324 0.33619,-0.62896 0.94527,-0.88125 1.04239,-0.43177 1.15354,-0.40085 1.89307,0.52661 l 0.78567,0.98532 0.8066,-2.71705 c 0.44363,-1.49437 0.73335,-2.79029 0.64382,-2.87983 -0.21633,-0.21632 -4.96911,1.29875 -8.81922,2.81134 l -3.09026,1.21408 -1.67224,-2.47241 c -0.91972,-1.35983 -1.9548598,-2.81372 -2.3003098,-3.23088 l -0.62808,-0.75848 -0.78303,1.02778 c -3.06448,4.02232 -3.12649,4.13086 -2.67244,4.67796 0.94298,1.13622 14.7225398,10.34565 15.4796098,10.34565 0.12947,0 0.66859,-1.44344 1.19805,-3.20765 z m -2.97019,-5.25902 c 0,-0.19402 0.14938,-0.35277 0.33195,-0.35277 0.18258,0 0.43007,0.15875 0.54999,0.35277 0.11992,0.19403 -0.0295,0.35278 -0.33196,0.35278 -0.30249,0 -0.54998,-0.15875 -0.54998,-0.35278 z m 96.202168,6.80642 c 0.54345,-0.71912 1.38763,-1.7113 1.87595,-2.20487 1.84583,-1.86562 1.84368,-1.85621 1.00441,-4.4128 -0.6183,-1.8835 -1.02837,-2.53196 -2.03267,-3.2144 -0.69195,-0.47019 -1.43596,-0.8549 -1.65333,-0.8549 -0.21738,0 -1.1663,0.99219 -2.1087,2.20486 -1.55288,1.99822 -2.27401,2.72195 -5.03302,5.05116 l -0.86427,0.72964 3.31236,1.96994 c 1.8218,1.08347 3.5821,1.98544 3.91177,2.00439 0.32968,0.019 1.04405,-0.55391 1.5875,-1.27302 z m -3.42163,-6.10086 c 0,-0.19403 0.14939,-0.35278 0.33196,-0.35278 0.18258,0 0.43007,0.15875 0.54999,0.35278 0.11991,0.19403 -0.0295,0.35278 -0.33196,0.35278 -0.30249,0 -0.54999,-0.15875 -0.54999,-0.35278 z m 1.41112,0.17639 c 0,-0.097 0.0794,-0.17639 0.17638,-0.17639 0.097,0 0.17639,0.0794 0.17639,0.17639 0,0.097 -0.0794,0.17639 -0.17639,0.17639 -0.097,0 -0.17638,-0.0794 -0.17638,-0.17639 z m 39.736,3.82135 c -1.77254,-3.45443 -4.87862,-6.95802 -5.88532,-6.6385 -0.37927,0.12037 -0.68708,0.32723 -0.68402,0.45967 0.003,0.13245 1.16017,1.54935 2.57137,3.14867 1.41121,1.59931 3.0359,3.69242 3.61042,4.65134 0.91228,1.52264 1.05838,1.63835 1.15343,0.9135 0.0598,-0.45649 -0.28479,-1.5971 -0.76588,-2.53468 z m -152.05213782,-5.3743 c 2.36086002,-2.44435 5.56170002,-5.9524 7.11297002,-7.79566 1.55127,-1.84326 3.3788198,-3.88427 4.0612198,-4.53556 1.20238,-1.14758 1.25263,-1.16192 1.62606,-0.46417 0.6797,1.27003 0.47114,2.07215 -0.59417,2.28521 -0.53872,0.10775 -1.40724,0.53237 -1.93004,0.9436 l -0.9505298,0.74769 1.4890598,1.83969 c 0.81899,1.01183 1.73803,2.2214 2.04231,2.68793 l 0.55325,0.84824 4.98254,-1.69053 c 3.18256,-1.07981 5.28626,-1.6143 5.82328,-1.47952 0.76113,0.19104 0.8967,0.0335 1.43158,-1.66332 0.32496,-1.03088 0.59083,-2.10155 0.59083,-2.37925 0,-0.27771 -0.99218,-1.04567 -2.20486,-1.70658 -2.19571,-1.19666 -7.40544,-4.63341 -9.08402,-5.99253 -0.48507,-0.39276 -0.98919,-0.71763 -1.12026,-0.72194 -0.13107,-0.004 -1.71427,1.77809 -3.51823,3.9609 -5.7795798,6.9934 -9.88900982,11.70311 -11.09307982,12.71349 -1.67657998,1.40689 -5.08284998,6.3734 -5.63930998,8.2224 -0.78395,2.60485 -0.20246,2.96902 1.04088,0.65189 0.66667,-1.24243 2.75041,-3.74885 5.38051998,-6.47198 z m 34.79321982,3.51889 c 1.11566,-0.62468 2.02848,-1.27322 2.02848,-1.44121 0,-0.16799 -0.59532,-1.0191 -1.32292,-1.89136 -0.7276,-0.87226 -1.64316,-2.1114 -2.03456,-2.75365 -0.6737,-1.10546 -2.4843,-2.32636 -2.87323,-1.93744 -0.099,0.099 -0.71681,1.79594 -1.37289,3.77097 l -1.19288,3.59095 1.28835,1.54129 1.28836,1.54129 1.08141,-0.64253 c 0.59478,-0.3534 1.99423,-1.15363 3.10988,-1.77831 z m 0.26459,1.20906 c 0,-0.097 -0.0794,-0.17639 -0.17639,-0.17639 -0.097,0 -0.17639,0.0794 -0.17639,0.17639 0,0.097 0.0794,0.17639 0.17639,0.17639 0.097,0 0.17639,-0.0794 0.17639,-0.17639 z m 1.41111,-0.70556 c 0,-0.097 -0.0794,-0.17639 -0.17639,-0.17639 -0.097,0 -0.17639,0.0794 -0.17639,0.17639 0,0.097 0.0794,0.17639 0.17639,0.17639 0.097,0 0.17639,-0.0794 0.17639,-0.17639 z m 109.003368,-6.87583 c -0.003,-0.0988 -1.9247,-2.4816 -4.27105,-5.295 -2.34635,-2.8134 -5.20875,-6.34559 -6.3609,-7.8493 -2.0766,-2.71028 -2.52061,-3.068 -2.94854,-2.3756 -0.42039,0.68022 -5.2979,3.75436 -8.63955,5.44525 -1.84327,0.93269 -3.41146,1.74859 -3.48487,1.81311 -0.15626,0.13731 0.49779,2.8398 1.01918,4.21116 0.28759,0.75641 0.45996,0.86637 0.85029,0.54242 0.55919,-0.46409 0.82126,-0.41473 6.88668,1.29697 l 4.38934,1.2387 0.99311,-1.11148 c 0.95044,-1.06374 0.96852,-1.14901 0.42078,-1.98497 -0.35079,-0.53537 -0.42007,-0.87348 -0.17898,-0.87348 0.21635,0 0.39335,0.15875 0.39335,0.35278 0,0.74719 1.31448,0.30401 2.05033,-0.69127 0.86119,-1.16483 0.90413,-1.3756 0.4323,-2.12171 -0.27664,-0.43745 -0.47616,-0.38149 -1.25775,0.35278 -0.90929,0.85421 -0.93957,0.85819 -1.4297,0.18791 -0.52457,-0.71738 -0.69187,-2.63629 -0.23615,-2.70856 1.85265,-0.2938 1.6917,-0.45379 8.43473,8.3848 1.43898,1.88619 1.73891,2.11678 2.29864,1.76722 0.35404,-0.2211 0.64148,-0.48288 0.63876,-0.58173 z m -18.33949,-11.11583 c 0,-0.097 0.0794,-0.17639 0.17639,-0.17639 0.097,0 0.17639,0.0794 0.17639,0.17639 0,0.097 -0.0794,0.17639 -0.17639,0.17639 -0.097,0 -0.17639,-0.0794 -0.17639,-0.17639 z m -115.711098,9.525 c 0,-0.097 -0.0794,-0.17639 -0.17639,-0.17639 -0.097,0 -0.17639,0.0794 -0.17639,0.17639 0,0.097 0.0794,0.17639 0.17639,0.17639 0.097,0 0.17639,-0.0794 0.17639,-0.17639 z m 22.57777,-1.05834 c 0,-0.097 -0.0794,-0.17638 -0.17638,-0.17638 -0.097,0 -0.17639,0.0794 -0.17639,0.17638 0,0.097 0.0794,0.17639 0.17639,0.17639 0.097,0 0.17638,-0.0794 0.17638,-0.17639 z m 57.15,-4.06105 c 2.8134,-0.19333 6.78215,-0.58397 8.819438,-0.8681 2.0373,-0.28413 5.76035,-0.7654 8.27346,-1.06949 2.5131,-0.30409 4.64558,-0.62919 4.73883,-0.72244 0.29955,-0.29954 -1.86619,-6.58502 -2.33031,-6.76312 -0.24616,-0.0945 -1.8375,0.0825 -3.5363,0.39318 -15.691968,2.87004 -51.172668,2.81477 -68.090558,-0.10607 -2.00164,-0.34558 -3.70894,-0.51573 -3.79399,-0.37812 -0.34624,0.56023 -2.2889,6.07144 -2.2889,6.49347 0,0.2928 0.72267,0.53394 2.02847,0.67685 1.11566,0.1221 5.36223,0.61246 9.43681,1.08969 4.07458,0.47724 10.26583,1.03843 13.75833,1.24711 3.4925,0.20867 7.3025,0.43745 8.46667,0.50839 3.33928,0.20349 18.88753,-0.11444 24.51805,-0.50135 z m 36.043638,-7.82737 c 2.10114,-1.35782 3.82025,-2.54964 3.82025,-2.64848 0,-0.26549 -3.41341,-4.50818 -4.05621,-5.04165 -0.45896,-0.3809 -0.6244,-0.3599 -0.9819,0.12459 -0.41549,0.56308 -7.737,3.74555 -8.63203,3.75212 -0.65653,0.005 -0.54232,0.87512 0.62138,4.73498 0.57987,1.92336 1.05431,3.55283 1.05431,3.62105 0,0.31272 4.71897,-2.30973 8.1742,-4.54261 z m -98.864538,0.58503 c 0.7316,-2.24478 1.07952,-3.82907 0.88194,-4.01594 -0.17947,-0.16975 -1.51694,-0.80938 -2.97215,-1.4214 -1.4552,-0.61202 -3.47686,-1.58042 -4.49257,-2.15199 -1.0157,-0.57157 -1.98454,-1.03922 -2.15296,-1.03922 -0.33979,0 -4.29058,4.59472 -4.29058,4.98989 0,0.62547 10.34146,7.35929 11.28889,7.35074 0.35883,-0.003 0.91811,-1.19815 1.73743,-3.71208 z m 67.05423,-1.92197 c 3.43443,-0.32535 6.707798,-0.79479 13.670138,-1.96048 0.79446,-0.13301 1.14653,-0.38565 1.14653,-0.82273 0,-1.00021 -0.23362,-1.04213 -2.92538,-0.52483 -2.61152,0.50187 -6.66279,0.91156 -16.830178,1.70198 -6.42534,0.49951 -24.15445,0.4147 -33.86666,-0.162 -5.51603,-0.32754 -16.51912,-1.46856 -18.92927,-1.96296 -0.91735,-0.18818 -1.18706,-0.092 -1.52789,0.54484 -0.22764,0.42535 -0.32544,0.86181 -0.21734,0.96991 0.58118,0.58118 16.33097,2.3769 23.67311,2.6991 5.61059,0.24622 31.84536,-0.10754 35.80694,-0.48283 z m -64.9916,-4.61915 c 0.0643,-0.33532 -0.58675,-0.69972 -1.9773,-1.10671 -1.14026,-0.33373 -2.92802,-1.18204 -3.97282,-1.88513 -1.79482,-1.20783 -2.81233,-1.32714 -2.86003,-0.33537 -0.0206,0.42903 2.26877,1.67932 5.53926,3.02511 2.59917,1.06954 3.11456,1.11714 3.27089,0.3021 z m 92.067298,-1.76024 c 2.30098,-1.03159 2.5601,-1.35708 1.66907,-2.09657 -0.43529,-0.36126 -0.65034,-0.34382 -1.14653,0.093 -0.85745,0.75481 -3.85665,2.2182 -5.63782,2.75084 -1.37465,0.41107 -1.83281,0.94391 -1.28373,1.49299 0.24169,0.24169 3.07714,-0.75097 6.39901,-2.24024 z m -41.715968,-0.97023 c 1.20719,-0.21354 1.47196,-0.42727 1.83217,-1.47898 0.64047,-1.86998 0.58329,-7.07123 -0.0883,-8.03004 -0.54085,-0.77217 -0.6731,-0.78397 -8.73125,-0.77865 -4.50014,0.003 -8.38341,0.1332 -8.62949,0.28939 -1.0332,0.65579 -1.53132,5.57766 -0.81668,8.06946 0.63145,2.20175 0.59853,2.19292 8.14326,2.18533 3.78354,-0.004 7.51417,-0.11923 8.29028,-0.25651 z m -23.02248,-3.56746 c -0.10721,-1.88032 -0.0118,-3.81921 0.23657,-4.80541 0.22896,-0.90928 0.36945,-1.69125 0.31221,-1.73771 -0.0572,-0.0464 -3.55243,-0.18378 -7.76709,-0.30518 -7.5206,-0.21662 -7.67033,-0.20704 -8.05705,0.51555 -0.54584,1.0199 -0.54957,5.98968 -0.005,7.30321 0.39598,0.95597 0.65826,1.10646 2.26585,1.30006 2.8036,0.33764 8.63454,0.77746 11.03416,0.83228 l 2.16057,0.0494 z m 42.916608,2.28193 c 2.0165,-0.26725 3.78413,-0.67645 3.92807,-0.90936 0.40659,-0.65788 0.7492,-4.39699 0.50495,-5.51089 -0.50023,-2.28132 -0.94292,-3.00284 -1.71518,-2.79552 -0.40686,0.10923 -3.863508,0.20076 -7.681418,0.20341 l -6.94168,0.005 0.2335,1.14653 c 0.12843,0.63059 0.22538,2.87464 0.21545,4.98679 l -0.018,3.84026 3.904,-0.24007 c 2.14719,-0.13204 5.55385,-0.45873 7.570348,-0.72597 z m -14.838508,-3.29213 c 0.12223,-3.21411 -0.3025,-5.11888 -1.07558,-4.82368 -0.33788,0.12901 -0.42712,1.13111 -0.35283,3.96201 0.11406,4.34676 0.24551,4.9964 0.88227,4.36024 0.2504,-0.25017 0.47807,-1.70858 0.54614,-3.49857 z m -24.57156,-4.65652 c -0.0665,-0.0967 -0.32911,0.10889 -0.58357,0.45688 -1.00159,1.36975 -1.03382,6.03336 -0.0461,6.67524 0.27231,0.17697 0.44451,-0.83487 0.57035,-3.35139 0.0992,-1.98269 0.12586,-3.68402 0.0593,-3.78073 z m -24.3485,3.59183 c -0.0689,-1.51669 0.0362,-3.34232 0.23353,-4.05695 0.30959,-1.12125 0.27805,-1.29979 -0.23017,-1.30274 -0.3239,-0.002 -3.26945,-0.1658 -6.54565,-0.36428 -5.38447,-0.32621 -6.01926,-0.30428 -6.60768,0.22823 -0.94768,0.85764 -1.21969,2.777 -0.54046,3.81364 0.83684,1.27718 4.18066,2.68513 8.51876,3.58692 5.74214,1.19366 5.31945,1.34935 5.17167,-1.90482 z m 3.789,-0.85836 c -0.0235,-2.17682 -0.1292,-2.96958 -0.31762,-2.38125 -0.49416,1.54302 -0.33609,5.64445 0.21754,5.64445 0.0744,0 0.11942,-1.46844 0.10008,-3.2632 z m 73.777528,2.58206 c 7.10299,-1.57107 8.80763,-2.47908 8.80763,-4.69158 0,-0.64519 -0.26292,-1.54843 -0.58426,-2.00721 -0.57709,-0.82392 -0.63869,-0.8314 -5.02708,-0.61051 -2.44356,0.123 -5.28185,0.22492 -6.30733,0.22648 -1.82863,0.003 -1.85602,0.0181 -1.42388,0.7966 0.2548,0.459 0.446,2.09545 0.45339,3.88032 0.0147,3.5642 -0.30449,3.37603 4.08153,2.4059 z m -8.12571,-13.05462 c 15.85921,-0.89861 26.26293,-1.93369 31.04445,-3.08866 5.22613,-1.26237 10.48364,-4.54932 13.58027,-8.49028 4.46116,-5.67754 6.22233,-11.66823 6.92186,-23.54502 1.00558,-17.07315 -1.56111,-42.24944 -5.51056,-54.0522 -4.4641,-13.34077 -10.47829,-18.59249 -25.78424,-22.51535 -21.38379,-5.48059 -53.444948,-7.1094 -82.517048,-4.19213 -15.8997,1.59547 -28.12784,4.28245 -35.2140898,7.73786 -8.40342002,4.09768 -13.00918,11.36364 -16.43403,25.92599 -2.70961,11.52117 -3.7270502,22.0492 -3.7331902,38.62916 -0.005,14.16461 0.35572,17.89996 2.3232002,24.04205 2.54459,7.94369 9.45862998,14.50892 17.39739,16.51969 5.6924498,1.44183 19.9208398,2.60171 42.8926598,3.49656 6.31122,0.24585 48.815298,-0.11535 55.033328,-0.46767 z m -48.506938,-6.60903 c -14.62471,-0.36809 -33.3054,-1.46962 -38.22719,-2.25412 -6.40628,-1.0211 -12.3455398,-5.39482 -15.0100498,-11.05351 -1.40499,-2.98382 -2.03396,-5.47688 -2.99111,-11.85591 -1.21222002,-8.07889 -1.55693002,-14.85561 -1.34585002,-26.45833 0.23847,-13.10867 1.35998002,-23.94088 3.26554002,-31.54052 2.1594,-8.612 7.7139698,-15.03729 15.1061198,-17.47412 13.80392,-4.55047 58.42677,-6.23101 88.939708,-3.34956 14.62003,1.38062 21.53913,2.99932 26.01075,6.08511 1.92269,1.32682 5.15565,4.71724 6.44195,6.7557 4.15262,6.58085 6.96849,27.3653 6.40608,47.2845 -0.42893,15.19187 -2.43571,27.29086 -5.35191,32.26697 -2.22705,3.80017 -7.05741,7.409 -11.771,8.79426 -6.94581,2.04129 -43.974128,3.49165 -71.473038,2.79953 z m 50.270828,-4.86175 c 19.67941,-0.97948 22.30094,-1.50045 26.35519,-5.23753 4.354,-4.01337 5.68501,-8.08088 7.00741,-21.41426 2.10866,-21.26117 -0.25854,-50.3247 -4.67731,-57.42602 -3.02601,-4.86302 -7.75698,-7.80039 -14.85357,-9.22231 -9.78154,-1.95988 -21.95658,-2.83989 -42.759488,-3.09064 -22.01431,-0.26535 -36.91279,0.43663 -50.09444,2.36035 -5.99229,0.87451 -8.35694,1.48301 -11.47363,2.95251 -5.11172,2.41016 -8.4430098,6.7112 -10.0073698,12.92056 -4.63247,18.38748 -4.44405,56.88198 0.33125,67.67734 1.7594198,3.97747 5.6733498,7.52757 9.5771498,8.68687 3.2192,0.956 14.64174,1.78937 31.68093,2.31138 13.22878,0.40528 46.183,0.11539 58.913878,-0.51825 z m -78.215748,-27.14336 c -3.55061,-1.15797 -6.60236,-3.80185 -8.45606,-7.32591 -0.91154,-1.73292 -0.99106,-2.19494 -0.99221,-5.76447 -0.001,-3.51532 0.0925,-4.08343 0.99496,-6.03616 2.4977,-5.40452 8.76875,-8.65882 14.61117,-7.58231 4.4483,0.81963 7.90262,3.29778 10.00766,7.17954 1.15341,2.12694 1.19607,2.344 1.19607,6.08616 0,3.8349 -0.0162,3.91083 -1.37491,6.45397 -1.57109,2.94062 -3.60963,4.91211 -6.51885,6.30443 -2.39735,1.14735 -7.02349,1.48193 -9.46783,0.68475 z m -0.83652,-15.1915 c 1.28837,-0.66624 2.27002,-2.70805 1.96645,-4.09017 -0.6315,-2.8752 -4.39867,-4.26779 -6.42407,-2.37476 -1.30217,1.21706 -1.63307,2.77499 -0.95132,4.47887 0.91229,2.28004 3.20939,3.12349 5.40894,1.98606 z m 80.091318,15.19151 c -2.72366,-1.04717 -4.17679,-2.01973 -6.06498,-4.0592 -2.99261,-3.23237 -4.236618,-7.35681 -3.469918,-11.50427 1.080118,-5.8429 4.890908,-9.76317 10.659758,-10.96601 6.08318,-1.26837 12.24641,1.77731 15.14383,7.48363 1.14343,2.25191 1.21309,2.59281 1.21309,5.93618 0,3.2078 -0.099,3.74951 -1.03544,5.66373 -1.29702,2.65138 -4.1235,5.45252 -6.79356,6.73263 -1.68293,0.80686 -2.61572,1.00129 -5.22377,1.08885 -2.0779,0.0698 -3.60832,-0.06 -4.42901,-0.37554 z m -0.44334,-15.36641 c 1.166,-0.71096 2.01016,-2.68029 1.64419,-3.83571 -0.45636,-1.44081 -1.04835,-2.27397 -1.94532,-2.73781 -3.47374,-1.79634 -7.04344,1.47663 -5.3963,4.94773 1.06103,2.23595 3.53769,2.94268 5.69743,1.62579 z m -38.214268,13.70988 c -6.20053,-1.79705 -10.35954,-11.61025 -4.92063,-11.61025 1.38261,0 1.9217,0.55419 3.20265,3.29235 1.07669,2.30153 2.48431,3.40701 4.34087,3.40911 2.04701,0.002 3.20677,-0.89467 4.36959,-3.37955 1.55403,-3.32088 3.07346,-4.10783 5.00212,-2.59075 1.83956,1.447 0.78309,5.0795 -2.41124,8.29068 -2.61564,2.62942 -6.149,3.58377 -9.58336,2.58841 z m -88.10401,12.11406 c -0.78912,-6.88784 -0.5666,-30.77989 0.36999,-39.72651 l 0.21644,-2.06748 -1.19651,0.25323 c -4.892412,1.0354 -9.959558,7.14255 -11.855409,14.28868 -0.961823,3.62545 -0.860541,11.97806 0.192075,15.84031 1.844209,6.76675 5.347034,11.20348 10.218344,12.94269 2.23732,0.7988 2.31533,0.74069 2.05507,-1.53092 z m 186.753118,0.10837 c 3.83893,-2.50753 6.79994,-7.7159 8.00565,-14.08182 0.73967,-3.90534 0.46064,-10.69513 -0.58895,-14.3312 -1.99875,-6.92425 -6.31335,-11.88078 -11.68248,-13.42063 l -1.09193,-0.31316 0.21241,1.83693 c 0.42239,3.65266 0.62144,31.47725 0.26161,36.56958 -0.19818,2.80462 -0.28822,5.21598 -0.2001,5.35857 0.24231,0.39207 3.68262,-0.70305 5.08379,-1.61827 z m -95.680718,-99.97336 c 0.0811,-3.82703 0.0101,-4.64542 -0.40323,-4.64542 -0.27592,0 -0.59802,0.25111 -0.7158,0.55802 -0.29572,0.77064 -0.27079,8.43995 0.0284,8.73914 0.74671,0.74671 0.99903,-0.32951 1.09062,-4.65174 z m 2.02882,-11.54217 c 3.75993,-0.97933 6.69259,-3.42003 8.66855,-7.21436 0.66414,-1.27531 0.8286,-2.14762 0.83629,-4.43579 0.009,-2.56415 -0.0973,-3.02166 -1.06128,-4.58612 -0.814,-1.32099 -1.41172,-1.8567 -2.49203,-2.23349 -2.40329,-0.83824 -3.65694,-0.11984 -7.28504,4.17465 -1.14117,1.35078 -1.86846,0.94029 -3.84582,-2.17061 -0.79857,-1.25635 -1.37832,-1.75522 -2.35503,-2.0265 -2.9543,-0.82055 -4.81696,0.0137 -6.22217,2.78675 -1.14005,2.24977 -1.22834,5.78091 -0.20114,8.04376 1.41018,3.1065 5.8119,6.82427 9.14218,7.72165 2.15466,0.58059 2.36645,0.57796 4.81549,-0.0599 z"
       id="path242" /></g></svg>
