<?xml version="1.0" encoding="UTF-8" standalone="no"?>
<!-- Created with Inkscape (http://www.inkscape.org/) -->

<svg
   width="275.85483mm"
   height="306.47348mm"
   viewBox="0 0 275.85485 306.47343"
   version="1.1"
   id="svg1"
   xml:space="preserve"
   xmlns="http://www.w3.org/2000/svg"
   xmlns:svg="http://www.w3.org/2000/svg"><defs
     id="defs1"><clipPath
       clipPathUnits="userSpaceOnUse"
       id="clipPath6"><path
         id="path7"
         style="fill:#ff0000;fill-opacity:1;fill-rule:nonzero;stroke:none;stroke-width:0.264583"
         d="M -175.07778,-16.057127 V 287.55793 H 124.54631 V -16.057127 Z m 132.7459,202.572647 c 0.210643,0.005 0.427212,0.0169 0.650089,0.0367 2.23823,0.19855 4.475655,0.4031 6.717938,0.55346 1.973313,0.11308 0.986628,0.0436 2.958475,0.20825 3.181295,0.26563 4.740125,1.85116 4.950601,3.46956 4.949923,1.63749 3.796379,7.35609 -2.592089,6.81354 -3.228716,-0.27422 -1.569593,-0.1301 -4.979024,-0.43357 -4.228209,-0.39317 -8.460616,-0.76265 -12.666927,-1.35341 -6.647387,-0.93358 -5.930551,-7.21034 0.03204,-7.20421 0.04685,5e-5 0.0972,0.004 0.144695,0.005 0.687229,-1.21692 2.304132,-2.15435 4.784204,-2.09548 z" /></clipPath><clipPath
       clipPathUnits="userSpaceOnUse"
       id="clipPath76"><path
         id="path77"
         style="fill:#ff0000;fill-opacity:1;fill-rule:nonzero;stroke:none;stroke-width:0.264583"
         d="M -133.83107,-122.52355 V 173.82063 H 122.97289 V -122.52355 Z M 13.574404,98.948202 c 2.788179,0.0507 4.135003,2.063798 3.398242,4.077268 0.199805,0.45372 0.374906,0.96736 0.517797,1.54461 1.07913,4.35948 0.671079,8.891 0.311608,13.31495 -0.351859,3.06036 -0.147137,1.57974 -0.604097,4.44366 -0.359666,2.25418 -1.333846,3.66838 -2.455664,4.32532 0.105138,0.36595 0.224724,0.72888 0.324528,1.09554 0.6273,2.23652 0.575201,4.47401 0.39429,6.75514 -0.137303,1.73129 -0.688065,2.99533 -1.427303,3.82199 -0.112477,0.41601 -0.170275,0.80219 -0.311092,1.25212 -0.184975,0.59102 -0.413327,1.1061 -0.670242,1.55856 0.741137,-0.23134 1.446982,-0.38145 2.064991,-0.37517 4.085002,0.0415 5.222724,4.75435 -0.02223,7.27138 -4.46677,2.14368 -9.303523,3.34693 -14.11903492,4.40955 -4.40876268,0.85156 -8.89238128,1.33053 -13.38264308,1.19269 -5.804014,-0.17807 -6.736297,-5.00293 -3.065447,-6.67298 -2.072987,-0.65744 -4.042852,-1.62261 -4.128947,-3.14709 -0.02802,-0.49633 0.0026,-0.90355 0.0341,-1.30897 -1.976731,-0.003 -3.95339,2.4e-4 -5.930386,0.003 -0.814031,0 -1.53062,-0.0962 -2.159559,-0.26149 -0.376306,0.19492 -0.742394,0.40783 -1.120862,0.59893 -6.391272,3.22657 -9.625245,-3.24074 -3.234428,-6.46886 1.833438,-0.92611 3.62694,-1.92211 5.414142,-2.92954 -0.877003,-3.87058 -1.368747,-7.83436 -1.323951,-11.80858 0.01651,-1.46304 0.376836,-2.54918 0.864547,-3.41426 -1.247357,-1.79999 -0.223805,-4.63069 3.842661,-5.68855 3.11826,-0.81116 6.282901,-1.39515 9.473837,-1.82211 -1.259816,-0.12657 -2.516182,-0.30233 -3.764627,-0.50177 -1.477002,-0.21985 -2.935575,-0.54305 -4.407482,-0.7891 -1.14214,-0.22954 -0.588502,-0.12004 -1.660882,-0.3297 -3.350244,-0.65501 -4.783278,-2.61088 -4.608504,-4.32997 -0.200179,-1.7721 1.333365,-3.52972 4.663799,-3.59461 v -5.3e-4 c 0.20954,-0.004 0.426035,-0.002 0.649571,0.008 1.77111,0.0772 3.528708,0.28204 5.26428,0.64027 1.655035,0.33225 3.314115,0.6481 4.955251,1.04439 1.244759,0.34858 2.51628,0.54538 3.7997689,0.6723 0.025956,0.002 0.052073,0.002 0.078034,0.004 0.4990888,-0.0371 0.9984105,-0.0743 1.4965495,-0.11317 1.346872,-0.12588 2.6913231,-0.25136 4.0457464,-0.24236 1.1278499,-0.0444 2.2567291,-0.10772 3.37498791,-0.26872 0.75719517,-0.11591 1.51142439,-0.25483 2.25722659,-0.4284 0.3616431,-0.12394 0.7240561,-0.24538 1.083138,-0.37775 0.3360393,-0.12388 0.6107589,-0.12825 0.9250071,-0.20723 0.1281086,-0.045 0.2583895,-0.0825 0.3855085,-0.13074 1.9825018,-0.7681 3.9540551,-1.56464 5.9510551,-2.29443 1.050809,-0.383992 1.999634,-0.542639 2.826703,-0.527616 z M 0.70283723,110.39557 c -0.45566013,0.0949 -0.90775367,0.208 -1.36890919,0.2744 -1.16638124,0.15534 -2.34111274,0.24237 -3.51761424,0.26251 0.4031694,0.0896 0.8047355,0.18876 1.2025101,0.308 0.1014836,0.0304 0.1982549,0.075 0.2986907,0.10852 0.4205235,-0.21824 0.9206601,-0.35072 1.4898318,-0.37156 0.39885139,-0.0146 0.83259872,0.0278 1.29449508,0.13023 0.22468681,-0.12213 0.44967525,-0.24374 0.67437529,-0.36587 -0.0326284,-0.11319 -0.058211,-0.22834 -0.0733795,-0.34623 z m 10.24433577,1.02474 c -0.76023,0.21437 -1.5189569,0.4343 -2.2696301,0.68006 -0.031261,0.62207 -0.2256075,1.28373 -0.6464723,1.94355 0.6236891,0.43248 1.2549743,1.04482 1.8634525,1.86862 0.2674939,0.36214 0.4748849,0.75712 0.7188199,1.13223 0.154519,-1.86707 0.314174,-3.74736 0.33383,-5.62446 z m 64.566086,3.39773 c 1.50346,0.0187 3.129182,1.24994 3.928441,4.04678 0.257931,0.90255 0.823497,1.65871 1.488797,2.30735 0.856321,0.95375 1.845738,1.76777 2.801898,2.61638 1.458581,1.46408 2.789203,3.04608 4.169772,4.58215 1.315059,1.44746 2.571226,2.91698 3.543967,4.61884 0.0053,0.01 0.0082,0.0206 0.01344,0.0305 0.734605,-0.43313 1.446276,-0.65634 2.094962,-0.69195 3.016182,-0.16561 4.69137,3.55377 1.187525,7.32306 -1.69471,1.82311 -3.657862,3.33908 -5.68751,4.7651 -0.777873,0.49914 -1.607691,0.90075 -2.418456,1.33842 0.165478,1.44344 -0.672182,3.24303 -2.956409,4.73096 -1.354556,0.88234 -2.690448,1.79306 -4.075203,2.6288 -2.075008,1.20078 -4.233777,2.27962 -6.540687,2.96259 -2.077586,0.62971 -4.169056,1.29987 -6.359301,1.36374 -1.872114,0.0897 -3.746989,0.0368 -5.620845,0.0501 h -5.1108 -5.524728 c -7.160125,0 -7.160125,-7.23315 0,-7.23315 h 1.347722 c 0.29438,-0.0541 0.5212,-0.1588 0.84801,-0.18656 1.106628,-0.094 2.200932,-0.28334 3.292822,-0.48421 0.456121,-0.98163 1.356053,-1.98213 2.807581,-2.83962 1.078018,-0.63685 2.158119,-1.26923 3.212209,-1.94561 1.962647,-1.29302 3.840588,-2.72135 5.893696,-3.86902 1.367169,-0.76424 2.559646,-1.07097 3.526915,-1.04128 2.216811,0.068 3.246223,1.90266 2.479953,4.04059 1.105688,-0.48686 2.206929,-0.98346 3.283003,-1.53739 2.619811,-1.23728 5.288743,-2.38548 7.764385,-3.9026 0.246153,-0.17184 0.487463,-0.34958 0.730705,-0.52503 -0.126915,-0.50614 -0.277693,-0.9939 -0.512114,-1.46554 -0.647621,-1.25778 -1.721077,-2.20654 -2.600875,-3.29644 -1.199229,-1.33472 -2.369312,-2.69496 -3.592029,-4.00803 -1.098706,-0.97599 -2.227236,-1.92181 -3.215306,-3.01428 -1.300821,-1.39063 -2.459913,-2.93896 -3.045293,-4.77801 -1.289469,-4.05101 0.646382,-6.61405 2.843754,-6.58667 z m -95.086705,4.28035 c -0.465643,0.10748 -0.930899,0.21773 -1.394745,0.33435 0.171958,0.64334 0.283575,1.36624 0.279569,2.2071 -0.01267,2.6582 0.205063,5.32647 0.670242,7.94732 0.280107,-0.17087 0.565767,-0.33222 0.845429,-0.50385 -0.01897,-0.36223 -0.02445,-0.73164 -0.05529,-1.08985 -0.118034,-2.96491 -0.160888,-5.93314 -0.3452,-8.89507 z m 18.5141159,1.1958 c 0.00497,0.0773 0.00619,0.15612 0.014975,0.23202 -0.1238779,0.22787 -0.2588048,0.44752 -0.3937741,0.66715 0.58900751,0.0447 1.13203305,0.21413 1.64331124,0.45888 -0.37615284,-0.49255 -0.78353709,-0.94642 -1.26452314,-1.35805 z m -6.5422357,14.57068 c -0.046649,0.0755 -0.09888,0.14702 -0.1436608,0.22376 -0.03147,0.054 0.1963367,0.0838 0.1860365,0.0222 -0.017595,-0.10481 -0.026035,-0.14905 -0.042376,-0.24597 z m 13.9236979,6.08439 c -0.2236258,0.5643 -0.5677508,1.09664 -1.1782213,1.50533 0.9079653,0.17659 1.7077452,0.44257 2.2830631,0.84852 0.1405493,-0.0459 0.272804,-0.11448 0.4128956,-0.16174 -0.7336976,-0.43656 -1.2984269,-1.18703 -1.5177374,-2.19211 z" /></clipPath><clipPath
       clipPathUnits="userSpaceOnUse"
       id="clipPath127"><path
         id="path128"
         style="fill:#ff0000;fill-opacity:1;fill-rule:nonzero;stroke:none;stroke-width:0.264583"
         d="M -112.24796,-126.55676 V 185.58027 H 148.5754 V -126.55676 Z M 46.874626,83.305366 c 1.808208,0 3.616317,1.790192 3.616317,5.370214 v 5.232238 c 0.0627,2.146078 -0.111291,4.285324 -0.245462,6.424932 -0.136289,2.02485 -0.190703,4.04985 -0.104904,6.07715 0.192061,1.91863 0.527714,3.82569 0.876432,5.72213 0.304242,2.00862 0.765826,3.9858 1.180806,5.97276 0.41642,1.86142 0.967934,3.68703 1.421104,5.53972 0.25287,0.86996 0.117097,0.46495 0.396356,1.22008 0.186108,0.50319 0.223428,0.93098 0.309544,1.38441 4.425355,2.23251 2.751262,7.58433 -3.415813,6.40477 -3.104732,-0.59371 -6.256094,-0.76586 -9.40821,-0.85576 -3.81635,0.009 -7.630525,0.17062 -11.44478,0.28216 -1.12776,0.0333 -2.255837,0.0512 -3.383772,0.0754 -0.908129,0.5548 -1.966518,0.57724 -2.88613,0.0641 -0.03584,5.3e-4 -0.07165,0.002 -0.107487,0.003 -0.03142,5.3e-4 -0.0525,-0.009 -0.08268,-0.009 -0.32049,0.14732 -0.641715,0.29301 -0.962215,0.44028 -0.262501,0.12062 -0.518089,0.22111 -0.770496,0.31265 -0.876996,0.71434 -1.945576,0.85817 -2.911967,0.46405 -2.943479,-0.21613 -4.295167,-2.77187 -2.550232,-5.0524 -2.22e-4,-0.028 -0.0078,-0.0483 -0.0078,-0.0765 v -6.3469 c -0.014,-2.72977 -0.02254,-5.45666 0.112657,-8.18348 0.135676,-2.32533 0.233519,-4.6523 0.299723,-6.98046 0.046,-1.80459 0.06926,-3.60958 0.08527,-5.41465 -0.0258,-1.02998 0.04009,-2.054459 0.138491,-3.078883 0.0044,-0.04602 0.02191,-0.07504 0.02687,-0.120406 C 15.992671,97.193438 15.83363,95.70984 16.656834,94.418959 10.68718,93.678613 10.992573,87.32947 17.739972,87.32947 h 3.885033 5.177462 5.913334 c 1.498505,0.05847 2.984222,-0.03228 4.475178,-0.161748 1.252041,-0.18606 2.49041,-0.398671 3.697968,-0.782897 1.001961,-0.32245 0.492366,-0.161472 1.527553,-0.482142 0.510384,-0.158096 0.938446,-0.174371 1.394749,-0.23771 0.672338,-1.56932 1.86623,-2.35903 3.063377,-2.35903 z" /></clipPath><clipPath
       clipPathUnits="userSpaceOnUse"
       id="clipPath139"><path
         id="path140"
         style="fill:#ff0000;fill-opacity:1;fill-rule:nonzero;stroke:none;stroke-width:0.264583"
         d="M 97.168006,-339.91235 V -44.578961 H 346.46958 V -339.91235 Z m 14.326254,94.53944 c 1.76488,0.006 3.77708,1.78446 4.35839,5.31699 0.32911,1.99994 0.60308,4.00817 0.88884,6.01462 1.02527,-1.2445 2.22305,-1.83589 3.28403,-1.8402 2.05627,-0.008 3.59454,2.17302 2.34611,6.00222 -0.0197,0.0606 -0.0413,0.12046 -0.0615,0.18087 0.31698,0.91799 0.41757,2.09982 0.17777,3.54139 -0.2164,1.30085 -0.62011,2.56457 -1.0263,3.8163 -1.34183,4.13496 -4.42238,4.92072 -6.12882,3.38016 -1.93867,0.62007 -4.30523,-0.86149 -4.65605,-4.82762 -0.16862,-1.90632 -0.33891,-3.81275 -0.57464,-5.71231 -0.45291,-3.52522 -1.07719,-7.02592 -1.48208,-10.55543 -0.40801,-3.55672 1.10935,-5.32303 2.87424,-5.31699 z" /></clipPath><clipPath
       clipPathUnits="userSpaceOnUse"
       id="clipPath170"><path
         id="path171"
         style="fill:#ff0000;fill-opacity:1;fill-rule:nonzero;stroke:none;stroke-width:0.264583"
         d="M 88.756261,-299.52331 V 17.880567 H 410.91541 V -299.52331 Z M 363.24287,-220.863 c 0.90345,-0.008 1.97628,0.23856 3.18532,0.82218 3.39402,1.63831 6.49674,3.81197 9.57823,5.96449 3.22509,2.31448 6.37511,4.73585 9.43663,7.26261 1.87296,1.50796 3.75989,2.99047 5.54284,4.6054 1.76167,1.54167 3.42262,3.17283 4.95419,4.94388 1.19316,1.48882 2.47049,2.9032 3.73311,4.33204 1.08043,1.20022 2.09423,2.45631 2.94299,3.83026 0.82616,1.73429 1.48968,3.55524 1.93786,5.42344 1.67031,6.96258 -5.76469,8.62686 -7.05745,1.5844 -0.21127,-1.15093 -0.75649,-2.20765 -1.10278,-3.32021 -0.52141,-1.02678 -1.43909,-1.82952 -2.14042,-2.72904 -1.28368,-1.45272 -2.58234,-2.89095 -3.79617,-4.40386 -1.32794,-1.55409 -2.79577,-2.95456 -4.33049,-4.3031 -1.69875,-1.54267 -3.51006,-2.94207 -5.29113,-4.38733 -2.90883,-2.40671 -5.90918,-4.70386 -8.97258,-6.91017 -2.63017,-1.83963 -5.2759,-3.68008 -8.12096,-5.17746 -5.14813,-2.7095 -4.41412,-7.50431 -0.49919,-7.53753 z m -17.79788,14.64304 c 0.81097,-0.004 1.74701,0.16947 2.79104,0.57154 4.59168,1.76834 8.99191,4.00303 13.38523,6.20892 0.37082,0.1876 0.72266,0.4088 1.09088,0.601 0.4155,-0.11565 0.91038,-0.17484 1.48572,-0.16691 0.65984,0.009 1.42523,0.10601 2.29753,0.30644 2.35556,0.54125 4.30075,1.95473 6.16344,3.42614 -1.07651,-2.72314 0.34142,-4.84679 2.57866,-4.84311 1.28683,0.002 2.83083,0.70484 4.29689,2.3952 2.44776,2.82227 4.79147,5.70892 6.96391,8.74934 1.67944,2.35043 1.72027,4.43615 0.89969,5.70663 1.5344,1.02281 3.07247,2.04019 4.58422,3.09645 1.80695,1.14136 3.31928,2.58833 4.72631,4.18269 0.96689,1.16625 2.0869,2.25988 2.79262,3.61942 0.19542,0.37651 0.34592,0.77482 0.51882,1.1622 0.40259,1.55462 0.27207,0.76263 0.38706,2.3766 0.0637,0.89436 -0.044,1.45412 -0.26977,1.7756 0.11753,0.20753 0.23421,0.41574 0.35608,0.62063 3.66003,6.15399 -2.6856,9.845 -6.25234,3.63648 -0.83209,-1.44832 -1.62388,-2.92102 -2.35437,-4.42351 -0.84839,-1.84687 -1.70402,-3.69055 -2.54093,-5.54229 -0.078,-0.17246 -0.14713,-0.34128 -0.2119,-0.5085 -0.415,-0.33988 -0.82071,-0.68775 -1.29707,-0.97255 -2.35545,-1.64933 -4.79565,-3.17384 -7.14841,-4.82761 -3.27895,-2.27743 -6.61384,-4.47194 -9.95804,-6.65231 -4.00886,-2.60003 -8.08797,-5.09434 -12.3548,-7.25434 -4.08429,-2.05175 -8.1752,-4.1242 -12.42663,-5.81101 -5.61546,-2.22804 -4.88331,-7.4129 -0.50384,-7.43314 z m -225.34594,21.50101 c 3.05551,-0.16929 4.03285,3.80875 0.35915,7.72563 -1.17612,1.25397 -2.32696,2.59265 -3.45922,3.90674 -1.44062,1.57315 -2.77631,3.23874 -4.13618,4.88135 -1.14319,1.4697 -2.29319,2.93265 -3.46335,4.38113 -0.8717,1.2084 -1.86054,2.32105 -2.81017,3.46594 -0.80685,0.95022 -1.53489,1.96075 -2.32234,2.92695 -0.80594,1.00684 -1.52017,2.08004 -2.22519,3.15847 -0.20511,0.28103 -0.29499,0.51935 -0.30179,0.78909 -0.18033,7.15787 -8.659963,5.5717 -7.093102,-1.4149 0.267098,-1.19094 0.644303,-2.32859 1.347721,-3.34243 0.846108,-1.28566 1.701136,-2.56663 2.670121,-3.76463 0.806525,-0.98525 1.5446,-2.0236 2.37453,-2.98999 0.93132,-1.109 1.88214,-2.2008 2.7342,-3.37448 1.18855,-1.47082 2.35327,-2.95822 3.51813,-4.44779 1.39067,-1.67946 2.758,-3.38112 4.2292,-4.99142 1.55862,-1.80675 3.07205,-3.68494 4.92528,-5.20227 1.38505,-1.13397 2.63451,-1.65096 3.65301,-1.70739 z m 30.4953,3.26389 c 4.11093,0.0973 5.25218,4.81763 -0.0434,7.22591 -1.93926,0.8819 -3.80509,1.88928 -5.66115,2.92437 0.381,1.39299 -0.23993,3.26566 -2.43035,4.98678 -2.3369,1.83618 -4.71607,3.61825 -7.08845,5.40845 -2.84267,2.19936 -5.66068,4.43162 -8.41086,6.74584 -2.22216,1.84972 -4.46469,3.67225 -6.66213,5.55109 -1.67979,1.46598 -3.37138,2.91821 -5.06067,4.37337 -1.40892,1.30469 -2.82191,2.592 -4.12274,4.00648 -1.07181,1.16531 -2.16701,1.83049 -3.17087,2.10529 -0.88357,6.53411 -7.65001,5.87099 -7.10344,-1.07177 0.0596,-0.75732 0.12015,-1.51435 0.21239,-2.26859 0.18237,-1.4495 0.31176,-2.90657 0.57051,-4.34444 0.56059,-2.2771 1.55106,-4.35314 3.32124,-5.95312 1.46716,-1.38711 2.94871,-2.75912 4.4943,-4.05919 1.45063,-1.21601 2.91967,-2.40825 4.4111,-3.57394 2.2284,-1.75259 4.48249,-3.46927 6.81044,-5.08961 3.1083,-2.16601 6.29001,-4.21936 9.5343,-6.17689 3.28252,-2.04598 6.49796,-4.19789 9.78648,-6.23476 2.38673,-1.38679 4.82146,-2.65715 7.33495,-3.79873 1.22236,-0.55516 2.32966,-0.77899 3.27836,-0.75654 z" /></clipPath><clipPath
       clipPathUnits="userSpaceOnUse"
       id="clipPath233"><path
         id="path234"
         style="fill:#ff0000;fill-opacity:1;fill-rule:nonzero;stroke:none;stroke-width:0.264583"
         d="M 185.24069,-319.24193 V -24.289387 H 425.09684 V -319.24193 Z m 138.35487,149.6534 c 1.78419,7.9e-4 3.63037,1.79012 3.80182,5.36608 0.0643,1.33996 -0.0719,2.65433 -0.29041,3.95842 0.27255,-0.0735 0.56767,-0.11689 0.88522,-0.12351 0.37047,-0.008 0.77026,0.0328 1.19579,0.12867 0.38629,-0.24279 0.8215,-0.42195 1.34254,-0.44493 1.13073,-0.0499 2.53823,0.47335 4.04474,1.80971 0.4186,0.37135 0.80759,0.77178 1.2056,1.16323 0.49581,-0.30652 1.09744,-0.47283 1.77559,-0.44028 1.18851,0.0571 2.59295,0.69888 3.98788,2.15129 2.63375,2.74227 4.82211,5.85047 6.92256,9.00669 2.43144,3.88376 4.79634,7.81591 6.98098,11.84475 1.13959,2.01485 2.36363,3.97199 3.24527,6.11746 0.86638,2.54168 0.71525,4.37292 -0.15348,6.88278 -0.88855,2.03627 -2.18951,3.83746 -3.64937,5.49682 -1.22616,1.21887 -2.44396,2.51198 -3.976,3.35587 -0.38219,0.21053 -0.79187,0.3659 -1.18803,0.54881 -6.50071,3.00135 -9.83602,-5.23462 -2.81948,-6.6611 1.07346,-0.21823 1.75532,-1.41088 2.56987,-2.0407 0.86323,-0.96375 1.62015,-2.00233 2.25208,-3.13417 0.24334,-0.63932 0.47847,-1.05078 0.24958,-1.76114 -0.42873,-1.13152 -1.03555,-2.17502 -1.65674,-3.21169 -0.64492,3.08426 -3.96214,3.78517 -6.03631,0.97152 -0.80928,1.85722 -3.53859,2.62684 -6.75775,0.30902 -0.53872,-0.38787 -1.07831,-0.77486 -1.61745,-1.1622 -3.08248,4.62545 -3.94671,5.04673 -6.74584,2.87063 -2.73204,-2.16473 -5.33615,-4.48821 -8.05999,-6.6642 -2.7461,-2.45053 -5.40757,-5.07957 -7.04763,-8.42635 -1.62115,-0.12575 -3.24178,-0.2569 -4.86637,-0.34314 -7.58719,-0.44787 -15.17743,-0.9445 -22.76553,-1.33377 -1.07801,-0.0553 -1.93227,-0.3045 -2.68459,-0.62166 -0.57677,0.62929 -1.1192,1.29485 -1.64021,1.97352 -1.38696,2.1585 -2.2854,4.54313 -3.09181,6.96185 -0.53658,1.90527 -0.93866,3.84574 -1.3658,5.77949 0.3976,-0.38181 0.79402,-0.76498 1.19114,-1.14825 1.44902,-1.39846 2.84121,-1.97983 3.98373,-1.97766 2.91995,0.006 4.20899,3.82009 0.64648,7.53391 -0.92629,0.96557 -1.9114,1.86859 -2.9099,2.75797 -1.78302,1.58814 -3.50499,2.03887 -4.81263,1.76372 -0.007,0.0412 -0.0189,0.0812 -0.0253,0.12247 -0.31138,2.1774 -0.34632,4.38158 -0.39739,6.57686 0.006,3.5147 -0.15426,7.02208 -0.44287,10.52391 -0.15049,2.45352 -0.52882,4.882887 -0.77928,7.326166 -0.25682,2.270699 -0.2357,4.548968 -0.1633,6.828007 0.0525,1.43787 0.0261,0.723201 0.0775,2.145088 7.9e-4,0.02175 -0.006,0.03573 -0.006,0.05736 0.13966,0.0486 0.27673,0.09115 0.42013,0.148309 3.73047,1.486969 7.59999,2.598727 11.41894,3.833876 4.85884,1.705695 9.66861,3.546912 14.50144,5.32474 1.9552,0.651698 3.84707,1.443672 5.71489,2.292366 2.6308,-0.638411 5.26049,-1.281708 7.89771,-1.893425 4.5737,-1.075436 2.35597,-0.547624 6.65438,-1.580782 0.65268,-0.156879 1.2592,-0.237268 1.81642,-0.252698 3.40876,-0.09437 4.96226,2.238663 4.05712,4.350639 3.89832,1.612736 3.00805,6.568553 -2.90269,6.729304 l -2.19726,0.05943 c 0.0932,0.05532 0.18872,0.106439 0.28112,0.163298 6.09814,3.752323 2.1299,10.065517 -3.84782,6.124173 -1.04591,-0.689594 -2.23735,-1.127543 -3.31556,-1.763197 -2.61015,-1.251701 -5.22853,-2.484003 -7.87136,-3.665926 -0.34703,-0.170111 -0.69536,-0.335955 -1.04283,-0.504362 -1.04394,0.228952 -2.09238,0.441277 -3.15071,0.537951 -0.41145,0.100483 -0.82417,0.195434 -1.23558,0.296105 -3.95687,0.968251 -6.08679,-0.907356 -5.97897,-3.010669 -0.31188,-0.687727 -0.239,-1.395294 0.0263,-2.059305 -3.87146,-1.438614 -7.73769,-2.891312 -11.63237,-4.265891 -3.97417,-1.285444 -7.99945,-2.446282 -11.87938,-4.000272 -1.44639,-0.579335 -2.44377,-1.350957 -3.06182,-2.17506 -1.01218,-0.798706 -1.81304,-2.231819 -1.89446,-4.484998 -0.0517,-1.431189 -0.0254,-0.705106 -0.0791,-2.177645 -0.0816,-2.602558 -0.0903,-5.205841 0.19844,-7.79849 0.24823,-2.394268 0.6146,-4.775082 0.76533,-7.179412 0.27808,-3.36008 0.42763,-6.72542 0.42064,-10.09809 0.0594,-2.5132 0.11189,-5.03614 0.48266,-7.52719 0.38072,-2.41928 0.90466,-4.80615 1.46451,-7.18974 0.6701,-2.94551 1.25825,-5.91529 2.11305,-8.81393 1.0668,-3.18776 2.31041,-6.31647 4.23489,-9.10074 0.42128,-0.53977 0.8547,-1.07136 1.29914,-1.59215 -1.52816,-0.60355 -3.06641,-1.18197 -4.57646,-1.83141 -1.09038,3.76762 -2.19021,7.53001 -3.40755,11.25926 -1.05961,2.97655 -0.54118,1.54568 -1.55081,4.2938 -1.83358,4.9908 -6.03644,4.88509 -7.07398,1.75544 -2.82634,3.52841 -7.50378,1.0111 -5.57744,-4.75268 1.05408,-3.1537 2.2385,-6.34595 4.49688,-8.85837 1.49582,-1.66408 2.97572,-2.34765 4.17287,-2.32647 0.33252,0.006 0.64298,0.0664 0.92604,0.17518 0.46945,-1.58214 0.96416,-3.15651 1.43919,-4.7377 0.70062,-2.33196 1.93737,-3.52641 3.18689,-3.8871 0.54142,-0.34307 1.25019,-0.55529 2.11615,-0.57361 h 5.3e-4 c 0.8057,-0.017 1.74503,0.13149 2.80396,0.49248 0.31645,0.10788 0.63769,0.20324 0.94929,0.32401 1.83624,0.71133 3.60046,1.59642 5.43016,2.32544 1.18096,0.47048 2.26953,0.84228 3.35329,1.23145 0.62902,-0.20883 1.22424,-0.32846 1.76785,-0.35037 2.28614,-0.0921 3.73455,1.32842 3.67523,3.07682 1.73917,0.0925 3.47854,0.18832 5.21777,0.2899 -0.1345,-1.7899 1.43141,-3.54652 4.54959,-3.56619 0.39587,-0.002 0.816,0.0231 1.25987,0.0801 3.99155,0.51285 7.97638,1.04608 11.94346,1.72703 0.35092,0.0747 0.7018,0.14913 1.05265,0.22376 0.92028,-2.09088 2.0607,-3.80586 3.79408,-5.38675 0.9172,-0.8245 1.6747,-1.80494 2.07378,-2.98587 0.46483,-1.35061 0.4893,-2.77914 0.4594,-4.19561 h 5.3e-4 c -0.0754,-3.57927 1.64663,-5.36691 3.4308,-5.36608 z m 1.97559,14.00741 c -0.78838,1.39934 -1.79816,2.66075 -2.96984,3.79512 -1.06213,0.94584 -1.80404,2.02586 -2.28153,3.3538 -0.003,0.012 -0.005,0.0237 -0.009,0.0357 1.15411,0.11311 2.30814,0.22665 3.4613,0.3514 3.99042,0.43171 5.40747,2.84663 4.69323,4.76353 0.67585,0.41545 1.35041,0.83313 2.01954,1.25626 3.82278,2.5036 7.53266,5.1715 11.24013,7.84086 -1.81731,-3.68096 -3.93583,-7.19476 -6.36087,-10.5146 -1.10355,-1.48555 -2.20805,-3.00054 -3.36206,-4.44883 -0.35653,-0.44747 -1.7607,-2.16704 -2.34455,-2.70784 -0.36042,-0.33384 -0.93237,-0.68033 -1.36375,-0.9555 -1.33122,-0.84918 -2.21667,-1.81673 -2.72282,-2.76986 z" /></clipPath><clipPath
       clipPathUnits="userSpaceOnUse"
       id="clipPath240"><path
         id="path241"
         style="fill:#ff0000;fill-opacity:1;fill-rule:nonzero;stroke:none;stroke-width:0.264583"
         d="M 92.804184,-309.23338 V -41.629034 H 294.29938 V -309.23338 Z m 130.496946,63.74443 c 0.93337,0.009 2.02072,0.27397 3.21944,0.8785 1.75312,0.88412 3.43212,1.89553 5.06326,2.98586 5.9527,3.97906 1.8926,10.01797 -4.03542,6.00222 -1.36849,-0.92705 -2.78857,-1.76849 -4.26227,-2.51871 -5.18448,-2.63926 -4.02961,-7.38891 0.015,-7.34787 z m -85.24544,1.99626 c 3.36772,-0.0906 4.87054,3.93317 0.67437,7.28431 -0.81214,0.6486 -0.42273,0.34746 -1.1653,0.9064 -1.7275,1.42217 -3.47209,2.82263 -5.29477,4.12275 -2.09112,1.47372 -4.25636,2.82668 -6.45645,4.13153 -6.15846,3.65253 -10.39165,-1.95967 -4.33979,-5.78621 2.21999,-1.40367 4.47897,-2.73503 6.6244,-4.25349 1.67688,-1.19734 3.27994,-2.48915 4.86947,-3.79821 0.91499,-0.69918 0.50268,-0.37435 1.24076,-0.9679 1.39493,-1.12177 2.72473,-1.60899 3.84731,-1.63918 z" /></clipPath></defs><g
     id="layer1"
     transform="translate(23.350545,342.4505)"><path
       style="fill:#000000"
       d="m 140.14177,-36.153863 c -2.09508,-0.211107 -5.37113,-1.207655 -7.50567,-2.283161 -2.34636,-1.182238 -6.60557,-5.087309 -8.9494,-8.205292 -3.13961,-4.176614 -6.83569,-12.743061 -8.91888,-20.671441 l -0.97328,-3.70416 -2.08402,-0.22192 c -1.14621,-0.12205 -3.21788,-0.32842 -4.60369,-0.45859 l -2.51968,-0.23668 -1.1618,2.39887 c -5.516702,11.39079 -14.373522,23.193362 -19.224042,25.617905 -5.21918,2.608819 -11.11887,2.590717 -16.48374,-0.05058 -7.15148,-3.5209 -11.13502,-11.644258 -10.11447,-20.625738 0.9235,-8.12748 4.80552,-16.20919 10.79976,-22.48329 l 2.58812,-2.70896 -1.28929,-3.93287 c -0.70911,-2.16308 -1.39496,-3.93287 -1.52411,-3.93287 -0.12915,0 -1.49223,0.71741 -3.02906,1.59424 -3.8429,2.19255 -7.59108,3.57703 -11.61361,4.28977 -2.85785,0.50638 -3.84177,0.53818 -6.16647,0.19936 -8.70169,-1.26829 -14.481,-8.06168 -14.46692,-17.00541 0.009,-5.72966 2.11726,-10.29594 7.02602,-15.21784 1.85721,-1.86218 4.38188,-4.05971 5.61038,-4.88341 2.74157,-1.83821 7.87592,-4.8189 9.56719,-5.55413 3.24298,-1.4098 5.67575,-2.3664 7.78112,-3.05966 1.26272,-0.41579 2.30181,-0.91472 2.3091,-1.10875 0.007,-0.19403 -1.97834,-1.11167 -4.41251,-2.03919 -10.13244,-3.86091 -17.84735,-8.25056 -24.8391,-14.13301 l -1.61115,-1.35552 -0.9822,0.6921 c -8.79101,6.1945 -25.7749197,5.223 -37.0679797,-2.12035 -12.5321203,-8.14905 -20.8888003,-28.97458 -19.4779103,-48.54056 1.12942,-15.66269 6.71303,-28.65064 16.1144703,-37.48368 l 2.4713,-2.32188 0.21685,-5.08645 c 0.25084,-5.88386 1.21467,-11.62295 2.76842,-16.48462 1.48659001,-4.65148 2.85812,-7.24582 5.05978,-9.57085 1.0216,-1.07885 1.97751,-2.35841 2.12425,-2.84348 0.44105,-1.45792 2.93938,-6.26623 4.8382397,-9.3117 6.70402,-10.75218 18.3604,-22.67051 30.34294,-31.02481 16.05709,-11.19511 36.02626,-18.69164 57.06771,-21.42353 7.331302,-0.95185 22.076522,-1.3122 28.970132,-0.70799 25.71399,2.25377 48.84032,11.18788 67.72705,26.16416 4.6379,3.67764 13.45284,12.47814 17.09051,17.06253 3.99664,5.03677 8.05366,11.25778 11.05282,16.94828 1.43167,2.71639 3.03795,5.57389 3.56952,6.35 4.20837,6.14435 7.05663,17.9637 7.05663,29.28273 v 2.19277 l 2.91041,2.56459 c 9.03625,7.96251 13.41552,15.91701 15.49958,28.15345 1.00968,5.92824 1.10207,17.59672 0.18773,23.70785 -1.20074,8.0253 -3.36334,15.16134 -6.34304,20.93051 -3.63519,7.03827 -10.18024,13.80455 -16.39234,16.94641 -8.17639,4.13532 -20.72593,5.34814 -28.91593,2.79452 l -1.83276,-0.57145 -1.64748,1.38125 c -7.25474,6.08236 -15.94619,9.74141 -25.17689,10.59931 -1.37216,0.12753 -2.49483,0.3623 -2.49483,0.52171 0,0.15942 0.45528,0.81131 1.01174,1.44865 1.28903,1.47639 2.73939,4.3435 3.05898,6.04706 0.24165,1.28811 0.35786,1.37371 4.59814,3.38689 13.95999,6.62786 21.2967,15.19933 21.31306,24.90004 0.0137,8.12715 -4.98499,14.539 -13.19543,16.92584 -2.05427,0.59719 -6.63963,0.77292 -8.80564,0.33746 -5.16889,-1.03916 -10.8821,-3.53162 -14.64913,-6.39087 -1.2422,-0.94286 -2.52866,-1.91666 -2.85879,-2.16402 -0.53004,-0.39712 -0.75174,-0.1908 -1.89541,1.76389 -0.71233,1.21749 -1.98568,3.13642 -2.82967,4.26429 l -1.53451,2.05068 1.50851,3.42766 c 1.78936,4.06582 3.82317,10.41268 4.59618,14.34321 0.30528,1.55222 0.64563,4.8116 0.75635,7.24307 0.31459,6.90863 -0.89103,11.770843 -3.99845,16.12549 -1.76337,2.471149 -4.34999,4.592179 -7.00788,5.746464 -1.57063,0.682109 -6.48625,1.799662 -7.40833,1.684265 -0.19403,-0.02428 -0.9084,-0.100137 -1.5875,-0.168565 z m 7.28174,-5.63956 c 5.49606,-2.734574 8.57454,-8.407568 8.58424,-15.818944 0.003,-2.495 -0.55386,-8.29856 -0.90591,-9.4368 -0.237,-0.76627 -0.84896,-0.81383 -0.84896,-0.066 0,1.4083 -2.08202,4.70821 -4.43756,7.03335 -4.72909,4.66804 -10.97504,7.50294 -18.98978,8.61905 -1.34039,0.186657 -2.5437,0.51192 -2.67404,0.722805 -0.13033,0.210886 -0.52056,0.274605 -0.86717,0.141599 -0.53309,-0.204567 -0.57365,-0.13846 -0.26325,0.429024 1.3179,2.409423 6.18398,6.559719 9.84603,8.397703 3.00999,1.510712 7.49491,1.501452 10.5564,-0.0218 z m -12.5734,-3.824498 c 0,-0.09701 0.0794,-0.176389 0.17638,-0.176389 0.097,0 0.17639,0.07937 0.17639,0.176389 0,0.09701 -0.0794,0.176389 -0.17639,0.176389 -0.097,0 -0.17638,-0.07937 -0.17638,-0.176389 z m 0.70555,0 c 0,-0.09701 0.0794,-0.176389 0.17639,-0.176389 0.097,0 0.17639,0.07937 0.17639,0.176389 0,0.09701 -0.0794,0.176389 -0.17639,0.176389 -0.097,0 -0.17639,-0.07937 -0.17639,-0.176389 z m 7.05556,-1.196479 c 0,-0.172993 0.39687,-0.414143 0.88194,-0.535887 0.48507,-0.121745 0.88448,-0.416767 0.88758,-0.655605 0.003,-0.238838 0.47935,-0.971701 1.05833,-1.628584 0.68102,-0.772645 1.0527,-0.999516 1.0527,-0.642559 0,0.303475 -0.23056,0.782338 -0.51237,1.06414 -0.2818,0.281803 -0.4282,0.59653 -0.32534,0.699393 0.19659,0.196591 -2.30474,2.013636 -2.77196,2.013636 -0.14899,0 -0.27088,-0.14154 -0.27088,-0.314534 z m 3.88055,-1.449354 c 0,-0.258704 0.10583,-0.364537 0.23519,-0.235186 0.12935,0.129352 0.12935,0.341019 0,0.470371 -0.12936,0.129352 -0.23519,0.02352 -0.23519,-0.235185 z m 0.35278,-1.058334 c 0,-0.258703 0.10583,-0.364537 0.23518,-0.235185 0.12936,0.129352 0.12936,0.341019 0,0.47037 -0.12935,0.129352 -0.23518,0.02352 -0.23518,-0.235185 z m 0,-1.058333 c 0,-0.258704 0.10583,-0.364537 0.23518,-0.235185 0.12936,0.129352 0.12936,0.341018 0,0.47037 -0.12935,0.129352 -0.23518,0.02352 -0.23518,-0.235185 z m -0.70556,-0.881944 c 0,-0.09701 0.0794,-0.176392 0.17639,-0.176392 0.097,0 0.17639,0.07938 0.17639,0.176392 0,0.09701 -0.0794,0.176389 -0.17639,0.176389 -0.097,0 -0.17639,-0.07937 -0.17639,-0.176389 z m 1.41111,-0.705552 c 0,-0.097 0.0794,-0.17639 0.17639,-0.17639 0.097,0 0.17639,0.0794 0.17639,0.17639 0,0.097 -0.0794,0.17639 -0.17639,0.17639 -0.097,0 -0.17639,-0.0794 -0.17639,-0.17639 z m -1.05833,-1.23473 c 0,-0.2587 0.10583,-0.36453 0.23519,-0.23518 0.12935,0.12935 0.12935,0.34102 0,0.47037 -0.12936,0.12935 -0.23519,0.0235 -0.23519,-0.23519 z m 1.05833,-1.41111 c 0,-0.2587 0.10584,-0.36453 0.23519,-0.23518 0.12935,0.12935 0.12935,0.34102 0,0.47037 -0.12935,0.12935 -0.23519,0.0235 -0.23519,-0.23519 z m -1.41111,-0.31113 c 0,-0.19403 0.15875,-0.4509 0.35278,-0.57081 0.19403,-0.11992 0.35278,-0.0593 0.35278,0.13475 0,0.19403 -0.15875,0.45089 -0.35278,0.5708 -0.19403,0.11992 -0.35278,0.0593 -0.35278,-0.13474 z m 1.05834,-0.71247 c 0,-0.36634 0.67106,-0.89667 0.86983,-0.68742 0.0645,0.0679 -0.10478,0.32822 -0.37625,0.5784 -0.27147,0.25019 -0.49358,0.29925 -0.49358,0.10902 z m -65.712232,7.712911 c 2.35756,-1.16062 3.62334,-2.155424 3.62334,-2.847652 0,-0.215422 -1.62718,-2.086519 -3.61597,-4.157989 -1.98878,-2.07148 -4.56408,-4.77101 -5.72287,-5.99897 -1.1588,-1.22796 -2.7463,-2.74899 -3.52778,-3.38006 -2.2479,-1.81525 -6.95906,-4.41575 -7.99973,-4.41575 -1.50441,0 -2.1734,2.50178 -2.01176,7.52325 0.11253,3.49584 0.24377,4.18161 1.15946,6.0587 1.27233,2.60813 4.68836,6.09364 7.0456,7.188882 3.84842,1.788094 7.45805,1.79776 11.04971,0.02959 z m -5.90166,-5.454581 c 0,-0.097 0.0794,-0.17639 0.17639,-0.17639 0.097,0 0.17639,0.0794 0.17639,0.17639 0,0.097 -0.0794,0.17638 -0.17639,0.17638 -0.097,0 -0.17639,-0.0794 -0.17639,-0.17638 z m -1.05833,-1.76389 c 0,-0.097 0.0794,-0.17639 0.17639,-0.17639 0.097,0 0.17639,0.0794 0.17639,0.17639 0,0.097 -0.0794,0.17639 -0.17639,0.17639 -0.097,0 -0.17639,-0.0794 -0.17639,-0.17639 z m 0.70556,-0.52917 c 0,-0.19403 0.15875,-0.35278 0.35277,-0.35278 0.19403,0 0.35278,0.15875 0.35278,0.35278 0,0.19403 -0.15875,0.35278 -0.35278,0.35278 -0.19402,0 -0.35277,-0.15875 -0.35277,-0.35278 z m 1.94027,-1.41111 c 0.11992,-0.19403 0.28804,-0.35278 0.3736,-0.35278 0.0856,0 0.15557,0.15875 0.15557,0.35278 0,0.19403 -0.16812,0.35278 -0.3736,0.35278 -0.20548,0 -0.27548,-0.15875 -0.15557,-0.35278 z m 14.00274,-0.52917 c 0.96338,-1.35819 2.30908,-3.46296 2.99046,-4.67725 l 1.23888,-2.20781 -1.12957,-2.02553 c -0.62126,-1.11403 -2.06441,-3.17398 -3.20701,-4.57766 -1.14259,-1.40368 -2.07744,-2.77612 -2.07744,-3.04985 0,-0.27374 -1.30969,-1.16554 -2.91042,-1.98178 -4.08253,-2.08176 -7.08027,-4.26732 -10.06523,-7.33824 l -2.56871,-2.64268 -0.90686,0.84485 c -1.87298,1.7449 -5.86321,7.46441 -7.20467,10.32701 -1.69943,3.62648 -1.75057,4.29251 -0.35108,4.57241 3.93447,0.78689 9.75448,5.06375 16.77502,12.32719 l 5.29167,5.47475 1.18669,-1.28798 c 0.65268,-0.70839 1.9749,-2.39923 2.93827,-3.75743 z m 42.166182,4.25419 c 6.36637,-1.33921 12.09669,-4.34536 15.60929,-8.1887 2.11123,-2.31002 3.33833,-4.57055 4.10448,-7.56112 0.52116,-2.03429 0.51097,-2.25571 -0.21379,-4.64182 -0.95536,-3.1453 -2.80766,-7.32227 -3.2471,-7.32227 -0.18278,0 -1.24423,0.70169 -2.35877,1.55931 -5.83585,4.49058 -14.36687,7.30404 -24.61329,8.11725 -3.65476,0.29007 -3.7679,0.36122 -3.51446,2.21026 0.45468,3.31727 4.6426,14.08297 6.10843,15.7027 0.72815,0.80459 4.60919,0.86401 8.12521,0.12439 z m -35.878482,-14.32216 c 0.40128,-0.96877 0.36289,-1.16413 -0.39817,-2.02607 -2.59571,-2.93982 -5.00867,-4.61241 -4.41239,-3.05855 0.35774,0.93226 3.84984,6.15676 4.11522,6.15676 0.13819,0 0.45109,-0.48247 0.69534,-1.07214 z m 28.922062,-8.66944 c 10.98637,-1.87853 20.22648,-6.72727 25.04962,-13.14478 1.67165,-2.22423 4.23093,-6.66663 4.23093,-7.34403 0,-0.17462 -0.95697,-1.56559 -2.1266,-3.09104 -1.16964,-1.525453 -2.37835,-3.304063 -2.68603,-3.952453 -0.54027,-1.13853 -0.63008,-1.1789 -2.62266,-1.1789 -2.84406,0 -5.42625,-1.05176 -7.81986,-3.18516 -2.41584,-2.1532 -4.12375,-4.87487 -5.41948,-8.63628 -0.86455,-2.50973 -0.97378,-3.34107 -0.99611,-7.58133 -0.0138,-2.61938 0.0543,-5.47688 0.1513,-6.35 0.17573,-1.5816 0.17246,-1.58719 -0.88194,-1.50499 -0.58209,0.0454 -5.90021,0.10076 -11.81806,0.12307 -13.7607,0.0519 -22.143882,-0.48404 -34.166322,-2.18414 -2.78419,-0.39371 -5.28368,-0.63084 -5.55443,-0.52694 -0.27076,0.1039 -1.51516,2.29764 -2.76535,4.87498 -5.73378,11.82051 -7.84536,25.88734 -5.17426,34.469603 2.65334,8.5252 10.46895,15.01527 21.20203,17.60612 9.617442,2.32155 23.161562,3.01446 31.397222,1.60627 z m -22.04861,-8.47795 c -0.97014,-0.0691 -4.376562,-0.45794 -7.569822,-0.86403 -12.59538,-1.60177 -15.54432,-3.27111 -16.20394,-9.17273 -0.47989,-4.29365 0.4811,-22.035283 1.35329,-24.984303 0.62835,-2.12454 2.07829,-3.92366 3.76257,-4.6687 1.36508,-0.60384 2.33948,-0.6944 7.2945,-0.67792 7.404632,0.0246 21.653052,0.65703 24.592572,1.09152 3.5883,0.53038 4.88521,1.0046 6.3387,2.31774 2.57584,2.32711 2.61507,2.55425 2.36861,13.71543 -0.39976,18.103833 -0.88672,20.640273 -4.30025,22.398703 -1.68288,0.86691 -1.9665,0.89696 -8.80562,0.93287 -3.88669,0.0204 -7.86047,-0.0194 -8.83061,-0.0886 z m 14.84083,-1.71722 c 2.75415,-0.84532 4.22439,-2.40045 4.71495,-4.98716 0.1844,-0.97236 0.52036,-6.76706 0.74657,-12.877133 0.4734,-12.78658 0.32834,-14.3112 -1.53026,-16.08383 -2.20046,-2.09867 -5.59686,-2.59987 -22.29987,-3.29074 -11.913232,-0.49275 -13.723262,-0.28018 -15.956552,1.8739 -1.80268,1.73876 -1.98949,2.65683 -2.74655,13.49755 -1.23013,17.614933 -0.62991,18.969953 9.23191,20.841373 7.90632,1.50034 24.323192,2.10539 27.839802,1.02604 z m -13.42972,-6.41444 c -0.97014,-0.0651 -4.28133,-0.35024 -7.358202,-0.63353 -7.76968,-0.71536 -10.44304,-1.97698 -10.9535,-5.16918 -0.29539,-1.847313 0.44653,-13.848833 0.8654,-13.998713 0.17693,-0.0633 0.65329,-0.69831 1.05857,-1.41111 1.30786,-2.30024 2.12153,-2.65626 6.1324,-2.68322 5.525792,-0.0372 16.348732,0.49007 19.001082,0.92561 2.05779,0.33791 2.50567,0.54751 3.175,1.48584 0.74835,1.04912 0.77563,1.36524 0.68804,7.9716 -0.10887,8.210573 -0.42711,10.333933 -1.76181,11.754993 -1.82047,1.93826 -3.67757,2.23919 -10.84698,1.75771 z m 6.40265,-4.62943 c 2.41976,-1.23562 2.98673,-2.565743 3.35375,-7.868043 0.28975,-4.18597 0.25781,-4.70796 -0.37565,-6.14002 -1.04616,-2.36501 -2.41977,-2.84179 -9.55714,-3.31724 -3.20146,-0.21326 -7.118342,-0.38542 -8.704182,-0.38258 -2.61482,0.005 -2.9889,0.094 -4.01672,0.95884 -1.683,1.41615 -2.00624,2.59024 -2.26263,8.21855 -0.21866,4.79999 -0.1876,5.18726 0.50381,6.283043 1.04333,1.65349 2.32709,2.05121 8.12972,2.51865 2.813412,0.22664 5.512162,0.46752 5.997222,0.53529 2.16765,0.30283 5.52415,-0.0877 6.93182,-0.80649 z m 74.37096,8.02444 c 6.39349,-2.39211 9.33578,-8.82705 7.24541,-15.846113 -0.42617,-1.43099 -1.03284,-3.00932 -1.34816,-3.5074 -1.27238,-2.00982 -4.34563,-5.65449 -5.4026,-6.40712 l -1.12453,-0.80073 -2.14826,2.27876 c -5.72147,6.06904 -9.37796,14.608713 -9.37971,21.906163 -2.7e-4,1.1042 0.15582,2.10425 0.34687,2.22233 0.7388,0.4566 3.49353,0.80961 6.60677,0.84664 2.49502,0.0297 3.70392,-0.1312 5.20421,-0.69253 z m -0.51667,-1.56187 c 0,-0.097 0.0794,-0.17639 0.17639,-0.17639 0.097,0 0.17639,0.0794 0.17639,0.17639 0,0.097 -0.0794,0.17638 -0.17639,0.17638 -0.097,0 -0.17639,-0.0794 -0.17639,-0.17638 z m 4.58611,-5.80842 c 0,-0.18721 0.35719,-0.52781 0.79375,-0.75689 0.78949,-0.41429 0.79015,-0.41247 0.12171,0.34036 -0.74659,0.84086 -0.91546,0.91769 -0.91546,0.41653 z m -13.40555,-0.18881 c 0,-0.097 0.0794,-0.17638 0.17638,-0.17638 0.097,0 0.17639,0.0794 0.17639,0.17638 0,0.097 -0.0794,0.17639 -0.17639,0.17639 -0.097,0 -0.17638,-0.0794 -0.17638,-0.17639 z m 15.16944,-0.35277 c 0,-0.097 0.0794,-0.17639 0.17639,-0.17639 0.097,0 0.17639,0.0794 0.17639,0.17639 0,0.097 -0.0794,0.17639 -0.17639,0.17639 -0.097,0 -0.17639,-0.0794 -0.17639,-0.17639 z m -0.0769,-0.72362 c -0.10694,-0.10694 0.0835,-0.78163 0.42315,-1.4993 0.33968,-0.717673 0.7139,-1.542993 0.8316,-1.834033 0.1177,-0.29104 0.13782,0.0787 0.0447,0.82164 -0.14974,1.194783 -0.70813,2.706143 -0.99983,2.706143 -0.0578,0 -0.19268,-0.0875 -0.29963,-0.19445 z m -20.28136,4.70446 c 0.40592,-5.6653 3.98686,-13.442223 9.1937,-19.966473 1.03538,-1.29735 2.14534,-2.57669 2.46657,-2.84298 0.32123,-0.2663 0.58406,-0.61475 0.58406,-0.77434 0,-0.5244 -3.85858,-3.06642 -6.93882,-4.57128 -3.27397,-1.5995 -7.78978,-3.51883 -8.27914,-3.51883 -0.16734,0 -0.30426,0.61828 -0.30426,1.37395 0,2.54049 -1.29123,5.80947 -3.31242,8.38598 -1.04021,1.326 -2.50771,2.90349 -3.26111,3.50554 -1.65912,1.3258 -5.20428,3.19042 -6.65564,3.50061 -2.09844,0.44848 -2.082,0.37992 -0.69622,2.9024 2.20205,4.00832 5.96284,8.342333 9.60789,11.072353 2.12571,1.59208 6.81184,4.21042 7.15545,3.99806 0.1268,-0.0784 0.32477,-1.45761 0.43994,-3.06499 z m -117.313302,-3.184 c 0.84384,-0.30133 1.14653,-0.62425 1.14653,-1.22319 0,-0.71835 -1.79329,-6.048723 -3.95119,-11.744493 -1.17301,-3.09615 -5.78356,-12.56996 -6.26091,-12.86498 -0.91456,-0.56522 -5.51127,4.90611 -7.1234,8.47878 -1.1378,2.52147 -1.16879,8.0679 -0.0585,10.47189 1.62128,3.51047 5.39283,6.501123 9.28013,7.358683 1.53194,0.33796 5.43354,0.071 6.96736,-0.47669 z m -10.35509,-2.09036 c -0.0999,-0.16169 0.0564,-0.29398 0.34748,-0.29398 0.29104,0 0.61093,0.13229 0.71086,0.29398 0.0999,0.16169 -0.0564,0.29398 -0.34748,0.29398 -0.29104,0 -0.61093,-0.13229 -0.71086,-0.29398 z m -1.19838,-0.82315 c 0,-0.097 0.0794,-0.17639 0.17639,-0.17639 0.097,0 0.17639,0.0794 0.17639,0.17639 0,0.097 -0.0794,0.17639 -0.17639,0.17639 -0.097,0 -0.17639,-0.0794 -0.17639,-0.17639 z m 18.79712,0.14724 c 1.57097,-0.792143 3.52506,-1.900363 4.34241,-2.462723 l 1.4861,-1.02246 0.25878,-3.79908 c 0.14233,-2.0895 0.52742,-5.12639 0.85576,-6.74865 l 0.59698,-2.94956 -1.21495,-1.4542 c -2.08574,-2.49647 -2.97544,-4.91902 -3.16632,-8.62151 -0.10668,-2.0692 -0.005,-3.85872 0.27521,-4.86081 0.24423,-0.87229 0.33564,-1.69439 0.20314,-1.82689 -0.3755,-0.3755 -4.94754,1.30134 -9.02867,3.31135 -3.52556,1.73639 -8.86974,4.9944 -9.27923,5.65697 -0.10536,0.17048 0.92302,2.52767 2.28529,5.2382 1.36228,2.71053 2.7633,5.64261 3.11339,6.51573 0.35009,0.87313 1.18756,2.77813 1.86105,4.23334 1.33062,2.87506 3.78338,9.268823 3.78338,9.862373 0,0.61989 0.65758,0.42555 3.62768,-1.07208 z m 86.154262,-10.554183 c 0.11992,-0.19403 0.0218,-0.35278 -0.218,-0.35278 -0.23981,0 -1.71873,-0.62086 -3.28647,-1.3797 -2.76833,-1.33994 -4.49134,-2.81505 -6.01167,-5.14669 -0.53279,-0.81711 -0.71769,-0.92368 -0.81119,-0.46758 -0.3211,1.56639 2.56343,5.08588 5.56483,6.78979 1.62943,0.92504 4.33916,1.24193 4.7625,0.55696 z m 10.75972,-1.91425 c 4.87444,-3.26063 7.76111,-7.45291 7.76111,-11.27137 0,-2.34725 -0.41947,-2.68938 -3.29737,-2.68938 -4.14425,0 -8.30473,3.33873 -9.94184,7.9782 -0.96401,2.73196 -1.23854,7.71579 -0.43968,7.98207 0.6752,0.22507 4.54873,-1.08373 5.91778,-1.99952 z m -9.59976,-2.0545 c 0.20042,-0.24254 0.4742,-1.07598 0.6084,-1.85209 0.79071,-4.57294 5.13501,-10.37186 9.43917,-12.59974 1.98533,-1.02763 2.53531,-1.14603 5.68362,-1.22356 1.91707,-0.0472 3.56563,-0.16588 3.66345,-0.26371 0.0978,-0.0978 -0.0245,-0.66639 -0.27181,-1.26348 -0.56095,-1.35425 -3.7054,-3.64448 -6.09235,-4.4373 -2.41742,-0.80294 -7.16855,-0.50478 -14.36683,0.90159 -3.00743,0.58759 -5.50052,1.06892 -5.54021,1.06963 -0.41593,0.007 -2.00588,2.14994 -2.80183,3.77547 -0.86706,1.77074 -1.00042,2.45091 -0.98922,5.04527 0.0158,3.66044 0.78994,5.61804 3.11551,7.87824 2.06913,2.01096 3.60552,2.75422 6.96631,3.37008 0.12176,0.0223 0.38537,-0.15787 0.58579,-0.4004 z m -78.707672,-6.12342 c 0.12312,-0.32083 -0.333,-1.6615 -1.05017,-3.0868 -0.6973,-1.3858 -1.37305,-2.95621 -1.50168,-3.48978 -0.40308,-1.67209 -0.96598,-1.1083 -0.78403,0.78528 0.17295,1.79984 2.16352,6.35847 2.7765,6.35847 0.18796,0 0.43968,-0.25523 0.55938,-0.56717 z m 2.43469,-7.39865 c 0.6014,-1.53665 1.67252,-4.04245 2.38026,-5.56846 0.70775,-1.52601 1.20983,-2.89912 1.11574,-3.05136 -0.0941,-0.15224 -0.99391,-0.4742 -1.9996,-0.71546 -1.81362,-0.43508 -1.83525,-0.43033 -2.6526,0.58192 -1.12909,1.39832 -1.87105,4.06388 -1.87105,6.7219 0,2.35177 0.87803,5.17729 1.54024,4.95655 0.21646,-0.0721 0.88562,-1.38845 1.48701,-2.92509 z m 53.593582,-10.03272 c 19.5613,-0.90865 30.44286,-3.12983 40.92222,-8.35318 8.83432,-4.4034 14.36695,-10.01307 17.85497,-18.10361 l 1.34419,-3.11787 -1.03623,-3.06556 c -2.73206,-8.0825 -3.69881,-15.64569 -3.42118,-26.76477 0.25416,-10.17867 1.47336,-17.87402 4.12458,-26.03351 1.10055,-3.38708 1.10278,-3.3518 -0.51913,-8.21712 -0.91767,-2.75277 -4.36395,-10.0426 -5.92532,-12.53369 -7.02196,-11.20315 -18.59254,-19.9221 -31.1191,-23.44963 -5.35699,-1.50855 -9.52598,-2.05978 -14.06341,-1.85947 -6.0969,0.26915 -9.37641,2.01878 -13.50534,7.20518 -1.43761,1.80579 -2.91773,3.4459 -3.28916,3.64468 -0.75986,0.40667 -35.816752,0.52969 -36.921332,0.12957 -2.24855,-0.81451 -4.72891,-4.02895 -5.53284,-7.17033 -0.24961,-0.97533 -0.60463,-1.91765 -0.78893,-2.09404 -0.76541,-0.73255 -4.32991,-1.4431 -7.23932,-1.4431 -7.55245,0 -15.95249,2.89279 -22.9055,7.88816 -11.44737,8.22433 -18.56945,21.44425 -21.40776,39.73684 -0.88606,5.71052 -0.8859,21.90273 2.7e-4,28.22222 1.8124,12.92467 5.06095,22.09575 10.33463,29.17605 4.73419,6.35599 15.13447,13.46007 26.2423,17.92523 6.88225,2.76654 13.53433,4.46749 23.28334,5.95357 14.73617,2.2463 28.938012,3.00397 43.568052,2.32438 z m 30.48267,-22.51147 c -3.80666,-1.53806 -7.06511,-4.81708 -8.22194,-8.27385 -0.85191,-2.54565 -0.68404,-2.66842 0.51447,-0.37627 1.46869,2.80888 4.20064,5.50856 6.71733,6.63799 1.59152,0.71423 2.67429,0.93213 4.84423,0.97488 2.54704,0.0502 3.00429,-0.0525 5.16226,-1.15926 2.85154,-1.46247 5.20226,-3.69522 6.4465,-6.123 0.79157,-1.54451 0.92327,-2.26032 0.9467,-5.14548 0.015,-1.84326 -0.17468,-4.01619 -0.42144,-4.82874 -0.60748,-2.00032 -2.82466,-4.71942 -4.99498,-6.12575 -2.21035,-1.43226 -2.09218,-1.73737 0.21925,-0.56608 3.20229,1.62273 6.06592,5.48711 6.81704,9.19939 0.56392,2.78703 0.20669,5.14388 -1.23409,8.14201 -1.47417,3.06761 -3.86692,5.50656 -6.83647,6.96846 -2.90125,1.42828 -7.34929,1.73008 -9.95886,0.6757 z m -115.149332,-4.17135 c -3.31011,-1.00396 -6.60601,-4.22838 -7.92466,-7.75279 -0.9091,-2.42979 -0.90976,-3.34156 -7.9e-4,-1.10318 1.11231,2.73914 2.43587,4.42847 4.60395,5.87626 4.90081,3.27263 9.52849,2.67284 13.50538,-1.75043 2.76195,-3.07195 3.45412,-8.25523 1.66101,-12.43839 -0.39581,-0.92338 -1.55595,-2.56886 -2.5781,-3.65664 -1.02215,-1.08778 -1.51524,-1.79757 -1.09575,-1.57732 1.15446,0.60614 3.47592,3.47679 4.59258,5.67905 0.88745,1.7502 0.99346,2.32314 0.98307,5.31314 -0.0104,2.98431 -0.1243,3.57644 -1.04028,5.4062 -2.70186,5.39723 -7.39526,7.61499 -12.70641,6.0041 z m 54.37871,-1.04947 c -2.17629,-0.66845 -1.87202,-1.06902 0.37652,-0.49568 0.92906,0.23689 2.85107,0.48877 4.271132,0.55973 2.68907,0.13436 4.10451,-0.24399 7.88626,-2.108 1.48136,-0.73015 1.60695,-0.74574 1.23714,-0.15358 -1.41973,2.27335 -9.38563,3.54451 -13.771052,2.19753 z m -3.04955,-1.365 c 0,-0.097 0.0794,-0.17639 0.17639,-0.17639 0.097,0 0.17639,0.0794 0.17639,0.17639 0,0.097 -0.0794,0.17639 -0.17639,0.17639 -0.097,0 -0.17639,-0.0794 -0.17639,-0.17639 z m 17.638892,-1.76389 c 0,-0.097 0.0794,-0.17639 0.17639,-0.17639 0.097,0 0.17639,0.0794 0.17639,0.17639 0,0.097 -0.0794,0.17639 -0.17639,0.17639 -0.097,0 -0.17639,-0.0794 -0.17639,-0.17639 z m 1.41111,-1.41111 c 0.4557,-0.48507 0.90792,-0.88195 1.00493,-0.88195 0.097,0 -0.19645,0.39688 -0.65215,0.88195 -0.4557,0.48507 -0.90792,0.88194 -1.00494,0.88194 -0.097,0 0.19646,-0.39687 0.65216,-0.88194 z m -23.756112,-2.67557 c -1.79053,-2.09184 -3.59415,-5.72367 -4.45269,-8.9661 -0.8672,-3.27516 -1.07147,-9.42324 -0.35891,-10.80236 0.62383,-1.20737 1.80329,-2.4268 2.34726,-2.4268 0.59239,0 0.61146,-0.58875 0.0267,-0.8247 -0.28339,-0.11435 -0.23795,-0.18789 0.12716,-0.20579 0.31247,-0.0153 1.1856,0.39436 1.94028,0.91038 2.11712,1.44762 5.38815,2.82936 7.83986,3.31171 4.404502,0.86653 10.704212,-0.15668 14.438542,-2.34514 0.91933,-0.53877 1.7509,-0.97797 1.84791,-0.97602 0.097,0.002 0.38617,-0.20621 0.64256,-0.46261 0.55194,-0.55194 1.12133,-0.60952 1.12133,-0.11339 0,0.19403 -0.19844,0.35357 -0.44097,0.35453 -0.24254,9.6e-4 -0.007,0.35815 0.52234,0.79375 0.52983,0.4356 1.21338,1.40343 1.51901,2.15073 0.62787,1.53523 1.14676,7.28641 0.65688,7.28051 -0.17434,-0.002 -1.09628,-0.24023 -2.04875,-0.52917 -3.65864,-1.10989 -10.29888,-0.39429 -14.285152,1.53946 -2.779,1.3481 -6.81783,5.26178 -8.12071,7.86909 -0.58776,1.1762 -1.16992,2.67837 -1.29369,3.33816 -0.12378,0.65979 -0.35247,1.27837 -0.50821,1.37462 -0.15573,0.0962 -0.84007,-0.47564 -1.52075,-1.27086 z m 59.386662,0.91168 c 0,-0.097 0.0794,-0.17639 0.17639,-0.17639 0.097,0 0.17639,0.0794 0.17639,0.17639 0,0.097 -0.0794,0.17639 -0.17639,0.17639 -0.097,0 -0.17639,-0.0794 -0.17639,-0.17639 z m -115.005542,-3.52778 c 0,-0.097 0.0794,-0.17639 0.17638,-0.17639 0.097,0 0.17639,0.0794 0.17639,0.17639 0,0.097 -0.0794,0.17639 -0.17639,0.17639 -0.097,0 -0.17638,-0.0794 -0.17638,-0.17639 z m 84.666662,-6.70278 c 0,-0.097 0.0794,-0.17638 0.17638,-0.17638 0.097,0 0.17639,0.0794 0.17639,0.17638 0,0.097 -0.0794,0.17639 -0.17639,0.17639 -0.097,0 -0.17638,-0.0794 -0.17638,-0.17639 z m 26.98749,-9.19401 c -1.35819,-0.29817 -4.11577,-1.34022 -6.12795,-2.31568 -3.09528,-1.50051 -4.10447,-2.21746 -6.55519,-4.65693 -5.33429,-5.30979 -7.69798,-10.88772 -7.72478,-18.22921 -0.0684,-18.74137 18.69601,-30.84418 35.57737,-22.94693 5.57634,2.60866 9.58889,6.51122 12.16795,11.83443 1.68537,3.47863 2.47232,7.2004 2.47232,11.69245 0,11.13179 -6.98381,20.5309 -17.80752,23.96612 -3.62725,1.15121 -8.52609,1.41886 -12.0022,0.65575 z m -7.02027,-15.81793 c 1.02349,-1.02349 1.19944,-1.44245 1.19944,-2.85596 0,-2.87519 -2.08937,-4.737 -4.81891,-4.29405 -3.70189,0.60073 -4.70542,5.43093 -1.56711,7.54281 1.83946,1.23784 3.69658,1.0972 5.18658,-0.3928 z m 23.04087,-3.96655 c 0.94852,-3.26443 1.96523,-4.39588 4.73451,-5.26882 1.10737,-0.34906 1.96043,-0.79357 1.89569,-0.98778 -0.0647,-0.19421 -1.13348,-0.75952 -2.37499,-1.25623 -2.71709,-1.08708 -3.53807,-2.14514 -4.40297,-5.67445 -0.35739,-1.45835 -0.77332,-2.4373 -1.00301,-2.36074 -0.21583,0.0719 -0.7277,1.23335 -1.13749,2.5809 -1.11652,3.67158 -1.35882,3.97427 -4.25121,5.31063 -1.44324,0.66683 -2.53943,1.34937 -2.43598,1.51676 0.10346,0.1674 1.06134,0.57903 2.12863,0.91473 2.58864,0.81423 3.54474,1.77925 4.2305,4.27002 0.73252,2.66057 1.14688,3.65153 1.52684,3.65153 0.16828,0 0.65855,-1.21345 1.08948,-2.69655 z m -14.28254,-4.85438 c 2.79245,-1.63649 4.78833,-4.96889 4.78833,-7.99481 0,-2.05206 -1.1879,-4.71188 -2.84964,-6.38061 -3.19126,-3.2047 -7.51263,-3.55383 -11.20158,-0.90502 -1.88897,1.35636 -3.47055,4.10469 -3.80226,6.60725 -0.47459,3.58043 1.45494,6.85899 5.15416,8.75767 2.02519,1.03946 2.52882,1.15643 4.32099,1.00358 1.29765,-0.11068 2.59122,-0.50273 3.59,-1.08806 z m -97.592412,23.43514 c -10.85799,-2.76456 -17.91198,-11.96387 -17.99588,-23.46893 -0.0578,-7.92362 2.52069,-14.4481 7.66794,-19.40278 2.6397,-2.54093 5.21751,-4.13857 8.69759,-5.39045 2.2874,-0.82284 3.11938,-0.93178 7.1736,-0.93934 4.11988,-0.008 4.86883,0.0908 7.36705,0.96902 9.64882,3.39178 15.78384,11.69676 16.3434,22.12408 0.51639,9.62293 -3.64985,17.84167 -11.6437,22.96951 -5.39942,3.46359 -11.83171,4.61011 -17.61,3.13889 z m -6.0842,-13.97432 c 1.82275,-0.86495 2.43782,-2.10962 2.31789,-4.69045 -0.0219,-0.47077 -0.59307,-1.3628 -1.29889,-2.02848 -1.04832,-0.98869 -1.52808,-1.18818 -2.8575,-1.18818 -1.34658,0 -1.78616,0.1885 -2.7971,1.19944 -1.02131,1.02131 -1.19945,1.4439 -1.19945,2.84542 0,2.01593 0.41595,2.8444 1.8746,3.73381 1.36561,0.83267 2.40534,0.86639 3.96045,0.12844 z m 22.99317,-4.90425 c 0.95785,-2.95216 2.13581,-4.24137 4.57909,-5.01154 1.02876,-0.32429 1.87047,-0.77296 1.87047,-0.99706 0,-0.22409 -0.87579,-0.70513 -1.9462,-1.06897 -2.67157,-0.9081 -3.62285,-2.02096 -4.53538,-5.30577 -0.41784,-1.50407 -0.91635,-2.78627 -1.10781,-2.84934 -0.19146,-0.0631 -0.82436,1.35316 -1.40645,3.14716 l -1.05833,3.26183 -2.63165,1.28036 c -1.44741,0.7042 -2.689,1.45241 -2.75909,1.66269 -0.0701,0.21027 0.3204,0.47855 0.86776,0.59618 2.1378,0.45941 4.04513,1.32713 4.51002,2.05179 0.2678,0.41744 0.74833,1.71148 1.06784,2.87564 0.31951,1.16417 0.64952,2.32831 0.73335,2.58698 0.32274,0.99586 1.06567,0.0838 1.81638,-2.22995 z m -13.72718,-4.73185 c 3.0293,-1.54544 4.71839,-4.21716 4.93772,-7.81026 0.2225,-3.64525 -1.20834,-6.14104 -4.65355,-8.11707 -5.59634,-3.20983 -12.66674,1.32896 -12.66674,8.13132 0,3.2177 1.02682,5.07386 4.09219,7.39732 1.0324,0.78253 3.83359,1.42332 5.4495,1.24662 0.82524,-0.0903 2.10363,-0.47182 2.84088,-0.84793 z m 62.652772,20.72448 c -0.15596,-0.25234 -0.0968,-0.31152 0.15557,-0.15557 0.224,0.13845 0.40728,0.32172 0.40728,0.40729 0,0.29426 -0.31152,0.15495 -0.56285,-0.25172 z m -29.423262,-0.65105 c 0,-0.2587 0.10584,-0.36453 0.23519,-0.23518 0.12935,0.12935 0.12935,0.34102 0,0.47037 -0.12935,0.12935 -0.23519,0.0235 -0.23519,-0.23519 z m -25.55066,-60.17327 c -1.54121,-1.54122 -0.65847,-4.10323 1.48766,-4.31766 2.178,-0.21762 3.41586,2.58808 1.838,4.16594 -0.8436,0.8436 -2.55567,0.9217 -3.32566,0.15172 z m 80.231212,-0.15172 c -1.49089,-1.49089 -0.50083,-4.24223 1.51931,-4.22212 1.65128,0.0165 2.50236,0.80877 2.50236,2.32958 0,2.25104 -2.49096,3.42325 -4.02167,1.89254 z m 34.57199,113.75369 c 4.66678,-0.75683 6.35205,-1.30135 10.77964,-3.48301 3.67645,-1.81154 8.09402,-5.04824 9.19521,-6.73719 0.40977,-0.6285 0.34732,-0.83765 -0.53057,-1.777 -0.54726,-0.58556 -1.83342,-2.36845 -2.85814,-3.96197 -1.02472,-1.59352 -1.99006,-2.89731 -2.14519,-2.89731 -0.15513,0 -0.38737,0.3318 -0.51608,0.73733 -0.50431,1.58895 -5.26417,8.19713 -7.5038,10.41766 -2.38772,2.36734 -5.61353,4.72484 -9.33125,6.81948 -1.11566,0.62858 -2.02848,1.2071 -2.02848,1.2856 0,0.26928 1.59149,0.13923 4.93866,-0.40359 z m 47.62523,-11.64183 c 2.6046,-0.60886 7.3337,-2.87269 9.17222,-4.39076 l 1.23472,-1.01951 -3.2145,0.20521 c -2.91413,0.18603 -3.37194,0.12658 -4.89926,-0.6362 -4.14548,-2.07035 -7.76604,-8.69923 -9.1317,-16.71922 -1.57662,-9.25892 -1.52802,-18.2911 0.15789,-29.34245 0.8016,-5.25459 3.32327,-13.6569 5.381,-17.92977 4.00465,-8.3156 8.6764,-12.35346 13.52404,-11.68902 0.84366,0.11564 1.53392,0.11873 1.53392,0.007 0,-0.62943 -1.79299,-2.50861 -4.33625,-4.5447 -4.24512,-3.39857 -8.24542,-4.46234 -11.91365,-3.16812 -3.86401,1.36331 -7.32098,5.25977 -10.71783,12.08044 -4.88328,9.80533 -7.63082,21.59329 -8.2007,35.18397 -0.4528,10.79872 1.69446,23.66153 5.33138,31.93666 2.283,5.19454 5.15451,8.63576 8.37185,10.03284 1.53927,0.6684 4.83228,0.66574 7.70687,-0.006 z m -14.68271,-0.24729 c -0.29963,-0.50728 -2.6777,-3.52832 -2.98523,-3.79236 -0.45073,-0.38698 -2.67262,-4.52441 -3.41009,-6.35 -2.18943,-5.41985 -3.94167,-11.88095 -4.49663,-16.58055 -0.12601,-1.06715 -0.2858,-2.41653 -0.35508,-2.99861 -0.82009,-6.89046 -0.42111,-17.96294 0.90851,-25.21306 2.83123,-15.43796 7.6289,-26.56204 14.80757,-34.33346 1.39678,-1.51211 2.42698,-2.86149 2.28933,-2.99861 -0.13764,-0.13712 -2.34004,-0.24412 -4.89422,-0.23778 -5.44633,0.0135 -6.33365,0.339 -9.26911,3.40006 -4.22469,4.40544 -7.54403,11.21586 -9.98183,20.4801 -4.5093,17.13648 -5.04741,35.41761 -1.41505,48.07381 0.56153,1.95654 3.05615,4.41088 4.48328,4.41088 1.18796,0 3.07504,-1.36722 3.42979,-2.48494 0.12046,-0.37953 0.32802,-0.69006 0.46124,-0.69006 0.13323,0 0.67804,1.7014 1.2107,3.78088 1.26193,4.92654 4.57848,11.72863 6.92402,14.20083 1.52841,1.61096 2.94265,2.43309 2.2928,1.33287 z m -12.83395,-30.0743 c 0,-0.097 0.0794,-0.17639 0.17638,-0.17639 0.097,0 0.17639,0.0794 0.17639,0.17639 0,0.097 -0.0794,0.17639 -0.17639,0.17639 -0.097,0 -0.17638,-0.0794 -0.17638,-0.17639 z m -4.23334,-13.40555 c 0,-0.097 0.0794,-0.17639 0.17639,-0.17639 0.097,0 0.17639,0.0794 0.17639,0.17639 0,0.097 -0.0794,0.17638 -0.17639,0.17638 -0.097,0 -0.17639,-0.0794 -0.17639,-0.17638 z m 0.70556,0 c 0,-0.097 0.0794,-0.17639 0.17639,-0.17639 0.097,0 0.17639,0.0794 0.17639,0.17639 0,0.097 -0.0794,0.17638 -0.17639,0.17638 -0.097,0 -0.17639,-0.0794 -0.17639,-0.17638 z m -180.314432,40.13307 c -0.26629,-0.33702 -0.61075,-0.77358 -0.7654597,-0.97014 -4.89735,-6.22206 -8.90267999,-15.54892 -11.18331,-26.04159 -1.48667,-6.83984 -1.87204,-10.83702 -1.86025,-19.29495 0.0114,-8.18014 0.53464,-13.52471 2.07078,-21.15191 1.54432001,-7.66782 3.03492,-12.07008 6.14826,-18.15789 0.77976,-1.52473 1.32996,-2.86003 1.22266,-2.96733 -0.35445,-0.35446 -4.2,1.15251 -5.96356999,2.33696 -7.63653001,5.12885 -13.99316031,14.38164 -16.99832031,24.74296 -2.17863,7.51159 -3.04337,18.79632 -1.96202,25.60415 1.06623,6.71264 4.1594,15.70224 7.04032,20.46111 4.3842203,7.2421 7.4407103,10.34836 12.9471303,13.15792 2.70252,1.37893 7.177,2.84476 8.7746097,2.87456 0.91364,0.017 0.9657,-0.0414 0.52917,-0.59385 z m 19.60221,-1.35596 c 0.63226,-0.63227 0.72533,-0.4289 -1.81946,-3.9758 -5.42368,-7.5595 -9.28163,-20.58684 -10.71672,-36.18779 -0.52135,-5.66756 -0.21278,-19.46461 0.54188,-24.22924 0.82027,-5.17886 2.54404,-13.19841 3.70111,-17.21884 0.57172,-1.98655 0.94298,-3.86343 0.82501,-4.17085 -0.15358,-0.40021 -0.0818,-0.47694 0.25275,-0.27018 0.31125,0.19237 0.38301,0.1525 0.21494,-0.11944 -0.13875,-0.22451 0.58009,-2.24581 1.59744,-4.49178 2.06183,-4.55184 2.03557,-4.72427 -0.68036,-4.46722 -3.80134,0.35977 -8.75667,2.74094 -11.09857,5.33314 -3.2586597,3.60694 -7.5826397,12.98735 -9.5854297,20.79455 -1.66684,6.49757 -2.08617,10.57154 -2.11263,20.52495 -0.0269,10.11134 0.3332,15.9358 0.90507,14.64027 0.21655,-0.49056 0.24998,-0.29343 0.10974,0.64694 -0.25437,1.70551 0.13318,3.72127 0.57985,3.01601 0.24526,-0.38725 0.31015,-0.36055 0.31443,0.12942 0.003,0.33954 -0.16271,0.61736 -0.36819,0.61736 -0.20548,0 -0.27389,0.16134 -0.15202,0.35853 0.12188,0.19719 0.35645,0.27518 0.52129,0.17331 0.16483,-0.10187 0.3999,0.3321 0.52237,0.96438 0.36886,1.90427 2.71055,6.97896 3.10727,6.73377 0.20706,-0.12797 0.25829,-0.0537 0.1187,0.1722 -0.30135,0.48759 0.79662,2.25088 1.23346,1.9809 0.17281,-0.1068 0.31419,-0.0147 0.31419,0.20462 0,0.9859 1.9354197,2.11229 3.6294597,2.11229 1.5081,0 2.84253,-1.17282 3.66053,-3.21719 l 0.59955,-1.49843 1.49619,4.62985 c 1.90486,5.89449 3.90489,9.98014 6.49119,13.26021 3.12731,3.9662 4.5268,4.82422 5.79696,3.55406 z M 8.9084083,-177.5568 c 0,-0.097 0.0794,-0.17639 0.17639,-0.17639 0.097,0 0.17639,0.0794 0.17639,0.17639 0,0.097 -0.0794,0.17639 -0.17639,0.17639 -0.097,0 -0.17639,-0.0794 -0.17639,-0.17639 z m -2.46945,-3.88056 c 0,-0.097 0.0794,-0.17639 0.17639,-0.17639 0.097,0 0.17639,0.0794 0.17639,0.17639 0,0.097 -0.0794,0.17639 -0.17639,0.17639 -0.097,0 -0.17639,-0.0794 -0.17639,-0.17639 z m -3.88055,-9.34861 c 0,-0.2587 0.10583,-0.36454 0.23518,-0.23518 0.12936,0.12935 0.12936,0.34102 0,0.47037 -0.12935,0.12935 -0.23518,0.0235 -0.23518,-0.23519 z m 5.64444,-5.11528 c 0,-0.097 0.0794,-0.17638 0.17639,-0.17638 0.097,0 0.17639,0.0794 0.17639,0.17638 0,0.097 -0.0794,0.17639 -0.17639,0.17639 -0.097,0 -0.17639,-0.0794 -0.17639,-0.17639 z m -0.70555,-0.70555 c 0,-0.097 0.0794,-0.17639 0.17639,-0.17639 0.097,0 0.17639,0.0794 0.17639,0.17639 0,0.097 -0.0794,0.17639 -0.17639,0.17639 -0.097,0 -0.17639,-0.0794 -0.17639,-0.17639 z m 2.11666,0 c 0,-0.097 0.0794,-0.17639 0.17639,-0.17639 0.097,0 0.17639,0.0794 0.17639,0.17639 0,0.097 -0.0794,0.17639 -0.17639,0.17639 -0.097,0 -0.17639,-0.0794 -0.17639,-0.17639 z m -1.41111,-0.52917 c 0,-0.2587 0.10584,-0.36453 0.23519,-0.23518 0.12935,0.12935 0.12935,0.34102 0,0.47037 -0.12935,0.12935 -0.23519,0.0235 -0.23519,-0.23519 z m 0.82315,-0.23518 c 0.12935,-0.12935 0.34102,-0.12935 0.47037,0 0.12935,0.12935 0.0235,0.23518 -0.23518,0.23518 -0.25871,0 -0.36454,-0.10583 -0.23519,-0.23518 z m 0.94074,-0.29398 c 0,-0.097 0.0794,-0.17639 0.1763897,-0.17639 0.097,0 0.17639,0.0794 0.17639,0.17639 0,0.097 -0.0794,0.17638 -0.17639,0.17638 -0.097,0 -0.1763897,-0.0794 -0.1763897,-0.17638 z m 0.7055597,-0.35278 c 0,-0.097 0.0794,-0.17639 0.17639,-0.17639 0.097,0 0.17639,0.0794 0.17639,0.17639 0,0.097 -0.0794,0.17639 -0.17639,0.17639 -0.097,0 -0.17639,-0.0794 -0.17639,-0.17639 z m 1.76389,-0.70556 c 0,-0.097 0.0794,-0.17639 0.17639,-0.17639 0.097,0 0.17638,0.0794 0.17638,0.17639 0,0.097 -0.0794,0.17639 -0.17638,0.17639 -0.097,0 -0.17639,-0.0794 -0.17639,-0.17639 z m -0.50649,-0.98535 c 0.13248,-0.34792 0.32974,-0.54371 0.43836,-0.43509 0.10861,0.10861 2.2e-4,0.39327 -0.24088,0.63257 -0.3484,0.34582 -0.38893,0.3053 -0.19748,-0.19748 z m 0.51189,-1.37508 c -0.003,-0.3281 0.15335,-0.69465 0.34737,-0.81457 0.44648,-0.27593 0.44648,0.19108 0,0.88195 -0.29471,0.45603 -0.34272,0.44672 -0.34737,-0.0674 z m 0.46497,-2.63725 c 0.12935,-0.12935 0.34102,-0.12935 0.47037,0 0.12935,0.12935 0.0235,0.23518 -0.23519,0.23518 -0.2587,0 -0.36454,-0.10583 -0.23518,-0.23518 z m 0.23518,-0.80233 c 0,-0.18258 0.15693,-0.42895 0.34874,-0.54749 0.19997,-0.12359 0.25912,0.018 0.13864,0.33196 -0.23452,0.61116 -0.48738,0.72298 -0.48738,0.21553 z m 0.43463,-2.13749 c 0,-0.67909 0.0726,-0.95691 0.16133,-0.61736 0.0887,0.33955 0.0887,0.89518 0,1.23472 -0.0887,0.33955 -0.16133,0.0617 -0.16133,-0.61736 z m -0.054,-1.96967 c 0.0169,-0.41097 0.10052,-0.49456 0.21314,-0.21314 0.1019,0.25466 0.0894,0.55893 -0.0279,0.67616 -0.11723,0.11722 -0.20061,-0.0911 -0.18529,-0.46302 z m 1.51722,48.09536 c -0.14326,-0.24253 -0.76013,-1.07597 -1.37083,-1.85208 -2.86242,-3.63771 -6.3434397,-10.60823 -8.2801897,-16.58055 -1.01054,-3.11616 -1.42865,-3.60438 -1.00534,-1.1739 0.52723,3.02711 2.68778,9.04 4.461,12.4151 1.5222697,2.89746 5.3149097,7.63241 6.1134697,7.63241 0.18829,0 0.22514,-0.19844 0.0819,-0.44098 z m 216.726402,-1.15011 c 7.95406,-2.36211 14.66951,-15.30345 16.35446,-31.51672 0.51849,-4.98913 0.23668,-15.71973 -0.51922,-19.77052 -1.22979,-6.59031 -2.75931,-10.86796 -5.43773,-15.20778 -1.79527,-2.90887 -2.38523,-3.52371 -4.47872,-4.66761 -1.9385,-1.05921 -5.06381,-1.03379 -7.23194,0.0588 -0.87313,0.44001 -2.47814,1.7382 -3.56669,2.88486 -4.48622,4.72571 -8.85464,16.90642 -10.23365,28.53503 -0.67542,5.69564 -0.56075,18.79625 0.20227,23.10694 1.81912,10.2772 5.28908,15.6809 10.77584,16.78102 1.90448,0.38185 2.21381,0.36659 4.13538,-0.20405 z m 4.68407,-13.46986 c -1.30596,-0.39509 -2.16909,-1.01333 -2.82083,-2.02045 -0.38677,-0.59766 -1.0092,-1.54576 -1.38319,-2.10688 -0.78323,-1.17514 -1.72801,-5.89701 -1.94933,-9.74248 -0.3478,-6.04324 1.99565,-18.7281 4.08721,-22.12361 1.7402,-2.8251 4.99707,-4.73511 7.15191,-4.19428 2.73585,0.68666 4.97683,4.64101 5.53434,9.76574 0.43977,4.0424 -0.0415,12.77902 -0.94566,17.16726 -0.73245,3.55482 -2.42225,8.78627 -3.29726,10.20796 -1.10942,1.80255 -4.74637,3.54012 -6.37719,3.04674 z m 3.40548,-3.1953 c 3.25347,-3.4979 5.17174,-11.38279 5.21389,-21.43125 0.021,-5.01245 -0.0686,-5.92094 -0.80003,-8.11389 -1.10936,-3.32576 -2.22381,-4.7629 -3.69216,-4.76118 -1.97061,0.002 -3.18402,1.07666 -4.63409,4.10304 -2.83102,5.90847 -4.20174,14.44638 -3.41892,21.29564 0.74813,6.54578 2.49646,9.87778 5.18296,9.87778 0.90534,0 1.49271,-0.26524 2.14835,-0.97014 z M 4.3222983,-182.49569 c 0,-0.097 -0.0794,-0.17639 -0.17639,-0.17639 -0.097,0 -0.17639,0.0794 -0.17639,0.17639 0,0.097 0.0794,0.17639 0.17639,0.17639 0.097,0 0.17639,-0.0794 0.17639,-0.17639 z m -1.05833,-4.23333 c 0,-0.097 -0.0794,-0.17639 -0.17639,-0.17639 -0.097,0 -0.17639,0.0794 -0.17639,0.17639 0,0.097 0.0794,0.17638 0.17639,0.17638 0.097,0 0.17639,-0.0794 0.17639,-0.17638 z M 190.27111,-236.02971 c 3.37797,-6.74984 7.58678,-12.00642 10.81208,-13.5037 0.82412,-0.38259 1.57887,-0.94188 1.67722,-1.24289 0.2879,-0.88112 -4.32159,-13.60753 -5.75869,-15.89927 -3.24655,-5.17725 -5.14608,-7.53323 -9.92907,-12.31501 -5.56345,-5.56204 -7.17182,-6.88485 -13.59963,-11.18501 -3.72856,-2.49438 -12.13666,-7.02156 -16.22157,-8.73419 -3.49156,-1.46387 -10.16513,-3.80822 -13.19124,-4.63394 -2.5471,-0.69501 -3.49925,-0.81948 -4.11671,-0.53814 -0.78869,0.35935 -4.64525,5.23071 -7.44405,9.40284 -3.94809,5.88538 -9.54383,17.00584 -14.79801,29.40821 -2.40887,5.68609 -2.04461,5.92952 1.63657,1.09372 3.26693,-4.29162 5.47376,-5.87821 10.044,-7.22106 4.58308,-1.34663 14.46356,-0.39427 22.29817,2.14927 9.7214,3.1561 19.28539,9.69556 26.01082,17.78514 2.73728,3.29249 7.57952,10.81826 9.46322,14.70765 0.78081,1.61218 1.55326,2.93124 1.71656,2.93124 0.16329,0 0.79344,-0.99219 1.40033,-2.20486 z m -4.26827,-40.30486 c 0,-0.097 0.0794,-0.17639 0.17639,-0.17639 0.097,0 0.17639,0.0794 0.17639,0.17639 0,0.097 -0.0794,0.17639 -0.17639,0.17639 -0.097,0 -0.17639,-0.0794 -0.17639,-0.17639 z m -46.91249,-6.25964 c -1.64815,-0.8609 -2.27248,-3.27412 -1.23153,-4.76028 1.0603,-1.51379 4.60752,-1.32877 5.47139,0.28539 0.18662,0.34869 0.3393,1.17237 0.3393,1.8304 0,2.14066 -2.63284,3.66114 -4.57916,2.64449 z m 90.0191,32.36519 c -0.29404,-9.79095 -2.55503,-17.59729 -6.67939,-23.06137 -1.23631,-1.63789 -3.98207,-2.81803 -7.18683,-3.08893 -4.58215,-0.38734 -10.50853,1.57589 -12.28401,4.06932 -0.57757,0.81112 -0.72842,1.56041 -0.72771,3.61461 9.3e-4,2.71444 0.58783,5.21487 3.13376,13.35109 l 1.37987,4.40973 4.38346,0.0437 c 2.5582,0.0255 5.62121,0.29444 7.35594,0.64591 3.32481,0.67364 7.49558,2.04634 8.59719,2.82955 0.3989,0.2836 1.03978,0.48094 1.42417,0.43853 0.64721,-0.0714 0.69185,-0.31195 0.60355,-3.25211 z m -225.1399317,0.54748 c 1.64924,-0.58389 3.37028,-1.065 3.82455,-1.06913 0.47339,-0.004 1.80979,-0.82416 3.1308697,-1.92071 1.49643,-1.24209 3.24851,-2.28022 4.9949,-2.95955 4.23489,-1.64732 4.94617,-1.83147 8.49585,-2.19955 1.83783,-0.19058 3.4884,-0.49339 3.66793,-0.67292 0.49619,-0.49619 0.90676,-8.41402 0.53972,-10.40865 -0.59154,-3.21472 -2.69153,-4.42391 -7.68295,-4.42391 -3.08458,0 -5.53766,-0.51389 -7.7069,-1.6145 -2.25311,-1.14315 -3.8066697,-1.09611 -5.8125997,0.17601 -2.64925,1.68011 -4.58113,5.8585 -6.22619,13.46642 -0.90095999,4.16664 -1.91791999,12.20858 -1.60738999,12.71102 0.12568,0.20335 0.4884,0.28139 0.80605,0.17342 0.31765,-0.10798 1.92691999,-0.67405 3.57615999,-1.25795 z m 27.6393297,-2.39956 c 6.99249,-10.4857 19.58409,-17.82228 33.42243,-19.47382 3.22789,-0.38523 4.7968,-0.28942 8.67536,0.52978 l 1.12185,0.23695 1.03433,-3.30236 c 2.73904,-8.74508 8.82201,-20.72955 13.51951,-26.63571 1.99059,-2.50275 2.14573,-3.06446 0.75316,-2.7268 -2.75191,0.66727 -11.08032,3.96216 -15.43403,6.10602 -16.81848,8.2818 -28.39191,18.53994 -38.16781,33.83012 -3.66927,5.739 -7.5642,13.81707 -6.66206,13.81707 0.0821,0 0.86388,-1.07156 1.73726,-2.38125 z m 31.98011,-27.78125 c 0,-0.097 0.0794,-0.17639 0.17639,-0.17639 0.097,0 0.17639,0.0794 0.17639,0.17639 0,0.097 -0.0794,0.17639 -0.17639,0.17639 -0.097,0 -0.17639,-0.0794 -0.17639,-0.17639 z m -0.88194,-0.88194 c -0.11992,-0.19403 -0.0499,-0.35278 0.15556,-0.35278 0.20548,0 0.3736,0.15875 0.3736,0.35278 0,0.19402 -0.07,0.35277 -0.15557,0.35277 -0.0856,0 -0.25368,-0.15875 -0.37359,-0.35277 z m -0.52917,-1.23473 c 0,-0.097 0.0794,-0.17639 0.17639,-0.17639 0.097,0 0.17639,0.0794 0.17639,0.17639 0,0.097 -0.0794,0.17639 -0.17639,0.17639 -0.097,0 -0.17639,-0.0794 -0.17639,-0.17639 z m -0.35278,-1.23472 c 0,-0.19403 0.15875,-0.35278 0.35278,-0.35278 0.19403,0 0.35278,0.15875 0.35278,0.35278 0,0.19403 -0.15875,0.35278 -0.35278,0.35278 -0.19403,0 -0.35278,-0.15875 -0.35278,-0.35278 z m 0.364,-1.13167 c 0.0457,-1.85675 5.63322,-4.7363 5.63322,-2.9031 0,0.31383 -0.26595,0.52429 -0.61736,0.48855 -1.68462,-0.17137 -2.40213,0.11098 -3.67059,1.44441 -0.74607,0.78428 -1.35144,1.22084 -1.34527,0.97014 z m 49.537052,23.01036 c 0.6576,-0.25002 1.24013,-1.05928 2.09504,-2.91042 0.6513,-1.41026 1.75987,-3.79509 2.46349,-5.29962 0.70362,-1.50454 1.27931,-2.80427 1.27931,-2.8883 0,-0.14242 6.37271,-13.49567 6.99678,-14.6609 2.89303,-5.40175 6.05284,-10.4783 9.22237,-14.81667 2.72684,-3.73242 2.63398,-3.56616 2.15649,-3.86127 -0.2432,-0.15031 -1.80481,-0.46391 -3.47023,-0.69689 -3.02108,-0.42263 -3.02975,-0.42159 -3.76326,0.44808 -2.2117,2.62225 -3.33307,4.08749 -4.48803,5.86427 -1.48218,2.28018 -2.42079,3.21635 -2.42079,2.41449 0,-0.59484 1.18646,-2.25598 3.04962,-4.26969 0.73635,-0.79585 1.37047,-1.66261 1.40914,-1.92613 0.0387,-0.26351 0.32128,-0.86212 0.628,-1.33024 1.06539,-1.62599 0.80142,-1.85065 -2.49747,-2.12544 -7.18127,-0.5982 -19.35181,0.21645 -27.013122,1.80815 -2.38867,0.49627 -12.96939,16.17199 -12.97033,19.21602 -2.9e-4,0.93571 1.37723,3.28898 2.9636,5.06283 0.50417,0.56375 0.91667,1.07969 0.91667,1.14652 0,0.67213 -2.96499,-2.32963 -3.69446,-3.74027 -1.02175,-1.97584 -1.33845,-1.58855 -3.44643,4.21457 -3.08512,8.49311 -3.28131,10.62386 -1.35349,14.70023 0.97715,2.06618 2.28483,3.37617 3.73188,3.73849 1.37047,0.34314 27.283932,0.26246 28.205222,-0.0878 z m -18.856612,-16.41063 c 0,-0.097 0.0794,-0.17639 0.17639,-0.17639 0.097,0 0.17639,0.0794 0.17639,0.17639 0,0.097 -0.0794,0.17639 -0.17639,0.17639 -0.097,0 -0.17639,-0.0794 -0.17639,-0.17639 z m -1.76389,-0.70556 c 0,-0.097 0.0794,-0.17639 0.17639,-0.17639 0.097,0 0.17639,0.0794 0.17639,0.17639 0,0.097 -0.0794,0.17639 -0.17639,0.17639 -0.097,0 -0.17639,-0.0794 -0.17639,-0.17639 z m -1.64629,-0.76435 c 0.12935,-0.12935 0.34102,-0.12935 0.47037,0 0.12935,0.12935 0.0235,0.23518 -0.23519,0.23518 -0.2587,0 -0.36453,-0.10583 -0.23518,-0.23518 z m 17.874072,-0.99954 c 0,-0.097 0.0794,-0.17639 0.17639,-0.17639 0.097,0 0.17639,0.0794 0.17639,0.17639 0,0.097 -0.0794,0.17639 -0.17639,0.17639 -0.097,0 -0.17639,-0.0794 -0.17639,-0.17639 z m 0.70556,-0.35278 c 0,-0.097 0.0794,-0.17638 0.17639,-0.17638 0.097,0 0.17638,0.0794 0.17638,0.17638 0,0.097 -0.0794,0.17639 -0.17638,0.17639 -0.097,0 -0.17639,-0.0794 -0.17639,-0.17639 z m 4.93889,-3.88055 c 0,-0.097 0.0794,-0.17639 0.17638,-0.17639 0.097,0 0.17639,0.0794 0.17639,0.17639 0,0.097 -0.0794,0.17639 -0.17639,0.17639 -0.097,0 -0.17638,-0.0794 -0.17638,-0.17639 z m 3.81046,-5.37986 c 0.37593,-0.53358 1.02497,-1.64483 1.4423,-2.46945 0.41734,-0.82461 0.91432,-1.4993 1.1044,-1.4993 0.56306,0 0.39592,0.65525 -0.35994,1.41111 -0.38806,0.38806 -0.69163,0.79447 -0.67461,0.90315 0.0534,0.34087 -1.60393,2.61969 -1.90705,2.62222 -0.15874,10e-4 0.019,-0.43415 0.3949,-0.96773 z m 2.71592,-4.67431 c 0.11992,-0.19402 0.28804,-0.35277 0.3736,-0.35277 0.0856,0 0.15557,0.15875 0.15557,0.35277 0,0.19403 -0.16812,0.35278 -0.3736,0.35278 -0.20548,0 -0.27548,-0.15875 -0.15557,-0.35278 z m 0.52917,-0.88194 c 0,-0.097 0.0794,-0.17639 0.17639,-0.17639 0.097,0 0.17639,0.0794 0.17639,0.17639 0,0.097 -0.0794,0.17639 -0.17639,0.17639 -0.097,0 -0.17639,-0.0794 -0.17639,-0.17639 z m 0.70556,-0.35278 c 0,-0.097 0.0794,-0.17639 0.17638,-0.17639 0.097,0 0.17639,0.0794 0.17639,0.17639 0,0.097 -0.0794,0.17639 -0.17639,0.17639 -0.097,0 -0.17638,-0.0794 -0.17638,-0.17639 z m -85.126712,25.82877 c 6.12797,-9.11431 14.87531,-17.74667 24.44893,-24.12755 17.93487,-11.95369 39.8953,-18.35744 60.501392,-17.64245 7.03225,0.24401 10.15909,0.61021 17.12579,2.0057 11.08898,2.2212 24.0417,7.04504 32.3891,12.0623 3.96721,2.38453 9.4173,6.08459 11.01225,7.47621 0.69326,0.60489 2.12201,1.80359 3.175,2.66379 2.89583,2.36563 9.14243,8.75583 11.61712,11.88417 1.20936,1.52879 2.23587,2.82218 2.28113,2.8742 0.0453,0.052 0.51638,-0.53182 1.04694,-1.29742 0.90724,-1.30914 0.94302,-1.50375 0.60115,-3.26958 -0.19993,-1.03267 -0.46324,-2.68666 -0.58513,-3.67554 -0.2179,-1.76772 -0.31755,-1.89337 -5.9286,-7.47473 -5.8433,-5.81237 -6.17223,-6.10849 -10.1167,-9.10743 -15.06426,-11.4532 -32.49893,-18.35338 -53.975,-21.36188 -5.16079,-0.72296 -20.57427,-0.62019 -26.10555,0.17405 -26.319992,3.77933 -50.177962,16.55508 -65.985352,35.33461 -2.8981,3.44301 -5.98131,7.87325 -5.98131,8.59449 0,0.29225 0.32151,1.19553 0.71448,2.00728 0.39296,0.81176 0.81279,2.52875 0.93295,3.81555 0.12017,1.28679 0.31459,2.33414 0.43205,2.32743 0.11747,-0.007 1.19718,-1.47515 2.39936,-3.2632 z m -7.99827,-7.5543 c 0.57812,-0.91162 0.93182,-1.77494 0.78598,-1.91851 -0.14584,-0.14356 -1.61454,-0.65372 -3.26377,-1.13368 -3.97461,-1.15669 -4.62909,-1.42473 -6.7991,-2.78456 -4.50537,-2.82328 -4.81565,-2.78187 -7.04743,0.94047 -0.92163,1.53717 -1.6756997,3.0056 -1.6756997,3.26319 0,0.27459 0.4013497,0.47029 0.9701397,0.47306 0.53358,0.003 2.31952,0.4862 3.96875,1.07468 2.38822,0.85217 3.78853,1.10965 6.87917,1.2649 2.1343,0.10722 3.9467,0.25861 4.02755,0.33643 0.48323,0.46515 1.23227,-0.0619 2.15441,-1.51598 z m 178.754642,-0.61169 c 3.23587,-1.22929 8.48052,-1.62614 11.69536,-0.88497 0.85022,0.19601 1.64016,0.26209 1.75541,0.14684 0.4032,-0.4032 -1.82283,-4.08653 -2.76375,-4.5731 -1.39245,-0.72007 -7.20769,-2.29738 -8.46997,-2.29738 -1.37075,0 -3.71031,1.17496 -4.79755,2.40941 -0.92226,1.04712 -1.09739,2.77844 -0.46466,4.5935 0.43885,1.25889 1.02097,1.37467 3.04516,0.6057 z m -173.429132,-7.16764 c 4.80176,-5.82001 12.32418,-12.87817 18.1004,-16.98332 5.5855,-3.9696 6.3399,-4.46659 9.59338,-6.32008 12.55213,-7.15085 27.92855,-12.57728 40.702912,-14.36431 8.73116,-1.22141 20.8293,-1.28764 29.45694,-0.16126 6.48252,0.84633 15.47964,2.89904 21.74981,4.96225 19.59016,6.44619 33.66836,15.61935 47.24071,30.78138 0.66674,0.74483 1.3392,1.57827 1.49437,1.85208 0.25087,0.44272 1.30538,0.7257 1.30538,0.35031 0,-0.0812 0.0894,-0.38056 0.19871,-0.66536 0.45314,-1.18085 -9.87056,-12.28176 -16.77926,-18.04248 -3.55154,-2.96139 -11.39865,-8.36458 -15.55802,-10.7126 -3.11174,-1.75661 -11.77078,-5.64156 -15.88418,-7.12656 -8.58945,-3.10092 -20.46382,-5.55753 -30.92486,-6.39783 -5.97036,-0.47958 -19.21915,-0.16748 -24.703122,0.58193 -16.9612,2.31782 -31.52829,7.13338 -45.39787,15.00755 -8.10593,4.60197 -14.97471,9.82689 -21.53367,16.38015 -4.31254,4.3088 -9.92019,11.0073 -9.5362,11.39128 0.22247,0.22247 6.94787,2.48413 7.5044,2.52363 0.23288,0.0165 1.56945,-1.35902 2.97017,-3.05676 z m -9.56719,-4.54437 c 10.51918,-14.27079 29.46333,-27.16979 50.10322,-34.11509 9.38743,-3.15886 17.54704,-4.94547 28.742602,-6.29345 5.45511,-0.65681 20.21504,-0.54469 26.10556,0.19829 21.58496,2.72257 39.71151,9.81733 55.92274,21.88825 4.80491,3.57776 15.09022,13.77047 18.47664,18.31031 1.72877,2.31759 2.18319,2.72755 2.81316,2.53791 2.70731,-0.81497 6.26038,-0.53027 9.3062,0.74569 2.00108,0.83829 -3.87446,-7.19766 -11.35315,-15.52765 -3.25872,-3.62965 -11.13948,-10.62355 -15.36976,-13.64012 -10.40671,-7.4209 -22.46826,-13.42423 -33.86667,-16.85627 -13.70883,-4.12769 -25.55059,-5.86912 -39.86388,-5.86229 -12.99445,0.006 -23.974652,1.61112 -37.570832,5.49158 -12.32403,3.51737 -26.75873,10.7187 -37.09188,18.50479 -5.17437,3.89891 -12.51069,10.88224 -17.75783,16.90339 -2.2031,2.52808 -7.06279,8.91794 -7.06279,9.28664 0,0.14333 1.15094,0.83936 2.55764,1.54674 2.95484,1.48588 2.23479,1.86591 5.90903,-3.11872 z"
       id="path242" /></g></svg>
