<?xml version="1.0" encoding="UTF-8" standalone="no"?>
<!-- Created with Inkscape (http://www.inkscape.org/) -->

<svg
   width="224.59686mm"
   height="263.60913mm"
   viewBox="0 0 224.59687 263.6091"
   version="1.1"
   id="svg1"
   xml:space="preserve"
   xmlns="http://www.w3.org/2000/svg"
   xmlns:svg="http://www.w3.org/2000/svg"><defs
     id="defs1"><clipPath
       clipPathUnits="userSpaceOnUse"
       id="clipPath6"><path
         id="path7"
         style="fill:#ff0000;fill-opacity:1;fill-rule:nonzero;stroke:none;stroke-width:0.264583"
         d="M -175.07778,-16.057127 V 287.55793 H 124.54631 V -16.057127 Z m 132.7459,202.572647 c 0.210643,0.005 0.427212,0.0169 0.650089,0.0367 2.23823,0.19855 4.475655,0.4031 6.717938,0.55346 1.973313,0.11308 0.986628,0.0436 2.958475,0.20825 3.181295,0.26563 4.740125,1.85116 4.950601,3.46956 4.949923,1.63749 3.796379,7.35609 -2.592089,6.81354 -3.228716,-0.27422 -1.569593,-0.1301 -4.979024,-0.43357 -4.228209,-0.39317 -8.460616,-0.76265 -12.666927,-1.35341 -6.647387,-0.93358 -5.930551,-7.21034 0.03204,-7.20421 0.04685,5e-5 0.0972,0.004 0.144695,0.005 0.687229,-1.21692 2.304132,-2.15435 4.784204,-2.09548 z" /></clipPath><clipPath
       clipPathUnits="userSpaceOnUse"
       id="clipPath76"><path
         id="path77"
         style="fill:#ff0000;fill-opacity:1;fill-rule:nonzero;stroke:none;stroke-width:0.264583"
         d="M -133.83107,-122.52355 V 173.82063 H 122.97289 V -122.52355 Z M 13.574404,98.948202 c 2.788179,0.0507 4.135003,2.063798 3.398242,4.077268 0.199805,0.45372 0.374906,0.96736 0.517797,1.54461 1.07913,4.35948 0.671079,8.891 0.311608,13.31495 -0.351859,3.06036 -0.147137,1.57974 -0.604097,4.44366 -0.359666,2.25418 -1.333846,3.66838 -2.455664,4.32532 0.105138,0.36595 0.224724,0.72888 0.324528,1.09554 0.6273,2.23652 0.575201,4.47401 0.39429,6.75514 -0.137303,1.73129 -0.688065,2.99533 -1.427303,3.82199 -0.112477,0.41601 -0.170275,0.80219 -0.311092,1.25212 -0.184975,0.59102 -0.413327,1.1061 -0.670242,1.55856 0.741137,-0.23134 1.446982,-0.38145 2.064991,-0.37517 4.085002,0.0415 5.222724,4.75435 -0.02223,7.27138 -4.46677,2.14368 -9.303523,3.34693 -14.11903492,4.40955 -4.40876268,0.85156 -8.89238128,1.33053 -13.38264308,1.19269 -5.804014,-0.17807 -6.736297,-5.00293 -3.065447,-6.67298 -2.072987,-0.65744 -4.042852,-1.62261 -4.128947,-3.14709 -0.02802,-0.49633 0.0026,-0.90355 0.0341,-1.30897 -1.976731,-0.003 -3.95339,2.4e-4 -5.930386,0.003 -0.814031,0 -1.53062,-0.0962 -2.159559,-0.26149 -0.376306,0.19492 -0.742394,0.40783 -1.120862,0.59893 -6.391272,3.22657 -9.625245,-3.24074 -3.234428,-6.46886 1.833438,-0.92611 3.62694,-1.92211 5.414142,-2.92954 -0.877003,-3.87058 -1.368747,-7.83436 -1.323951,-11.80858 0.01651,-1.46304 0.376836,-2.54918 0.864547,-3.41426 -1.247357,-1.79999 -0.223805,-4.63069 3.842661,-5.68855 3.11826,-0.81116 6.282901,-1.39515 9.473837,-1.82211 -1.259816,-0.12657 -2.516182,-0.30233 -3.764627,-0.50177 -1.477002,-0.21985 -2.935575,-0.54305 -4.407482,-0.7891 -1.14214,-0.22954 -0.588502,-0.12004 -1.660882,-0.3297 -3.350244,-0.65501 -4.783278,-2.61088 -4.608504,-4.32997 -0.200179,-1.7721 1.333365,-3.52972 4.663799,-3.59461 v -5.3e-4 c 0.20954,-0.004 0.426035,-0.002 0.649571,0.008 1.77111,0.0772 3.528708,0.28204 5.26428,0.64027 1.655035,0.33225 3.314115,0.6481 4.955251,1.04439 1.244759,0.34858 2.51628,0.54538 3.7997689,0.6723 0.025956,0.002 0.052073,0.002 0.078034,0.004 0.4990888,-0.0371 0.9984105,-0.0743 1.4965495,-0.11317 1.346872,-0.12588 2.6913231,-0.25136 4.0457464,-0.24236 1.1278499,-0.0444 2.2567291,-0.10772 3.37498791,-0.26872 0.75719517,-0.11591 1.51142439,-0.25483 2.25722659,-0.4284 0.3616431,-0.12394 0.7240561,-0.24538 1.083138,-0.37775 0.3360393,-0.12388 0.6107589,-0.12825 0.9250071,-0.20723 0.1281086,-0.045 0.2583895,-0.0825 0.3855085,-0.13074 1.9825018,-0.7681 3.9540551,-1.56464 5.9510551,-2.29443 1.050809,-0.383992 1.999634,-0.542639 2.826703,-0.527616 z M 0.70283723,110.39557 c -0.45566013,0.0949 -0.90775367,0.208 -1.36890919,0.2744 -1.16638124,0.15534 -2.34111274,0.24237 -3.51761424,0.26251 0.4031694,0.0896 0.8047355,0.18876 1.2025101,0.308 0.1014836,0.0304 0.1982549,0.075 0.2986907,0.10852 0.4205235,-0.21824 0.9206601,-0.35072 1.4898318,-0.37156 0.39885139,-0.0146 0.83259872,0.0278 1.29449508,0.13023 0.22468681,-0.12213 0.44967525,-0.24374 0.67437529,-0.36587 -0.0326284,-0.11319 -0.058211,-0.22834 -0.0733795,-0.34623 z m 10.24433577,1.02474 c -0.76023,0.21437 -1.5189569,0.4343 -2.2696301,0.68006 -0.031261,0.62207 -0.2256075,1.28373 -0.6464723,1.94355 0.6236891,0.43248 1.2549743,1.04482 1.8634525,1.86862 0.2674939,0.36214 0.4748849,0.75712 0.7188199,1.13223 0.154519,-1.86707 0.314174,-3.74736 0.33383,-5.62446 z m 64.566086,3.39773 c 1.50346,0.0187 3.129182,1.24994 3.928441,4.04678 0.257931,0.90255 0.823497,1.65871 1.488797,2.30735 0.856321,0.95375 1.845738,1.76777 2.801898,2.61638 1.458581,1.46408 2.789203,3.04608 4.169772,4.58215 1.315059,1.44746 2.571226,2.91698 3.543967,4.61884 0.0053,0.01 0.0082,0.0206 0.01344,0.0305 0.734605,-0.43313 1.446276,-0.65634 2.094962,-0.69195 3.016182,-0.16561 4.69137,3.55377 1.187525,7.32306 -1.69471,1.82311 -3.657862,3.33908 -5.68751,4.7651 -0.777873,0.49914 -1.607691,0.90075 -2.418456,1.33842 0.165478,1.44344 -0.672182,3.24303 -2.956409,4.73096 -1.354556,0.88234 -2.690448,1.79306 -4.075203,2.6288 -2.075008,1.20078 -4.233777,2.27962 -6.540687,2.96259 -2.077586,0.62971 -4.169056,1.29987 -6.359301,1.36374 -1.872114,0.0897 -3.746989,0.0368 -5.620845,0.0501 h -5.1108 -5.524728 c -7.160125,0 -7.160125,-7.23315 0,-7.23315 h 1.347722 c 0.29438,-0.0541 0.5212,-0.1588 0.84801,-0.18656 1.106628,-0.094 2.200932,-0.28334 3.292822,-0.48421 0.456121,-0.98163 1.356053,-1.98213 2.807581,-2.83962 1.078018,-0.63685 2.158119,-1.26923 3.212209,-1.94561 1.962647,-1.29302 3.840588,-2.72135 5.893696,-3.86902 1.367169,-0.76424 2.559646,-1.07097 3.526915,-1.04128 2.216811,0.068 3.246223,1.90266 2.479953,4.04059 1.105688,-0.48686 2.206929,-0.98346 3.283003,-1.53739 2.619811,-1.23728 5.288743,-2.38548 7.764385,-3.9026 0.246153,-0.17184 0.487463,-0.34958 0.730705,-0.52503 -0.126915,-0.50614 -0.277693,-0.9939 -0.512114,-1.46554 -0.647621,-1.25778 -1.721077,-2.20654 -2.600875,-3.29644 -1.199229,-1.33472 -2.369312,-2.69496 -3.592029,-4.00803 -1.098706,-0.97599 -2.227236,-1.92181 -3.215306,-3.01428 -1.300821,-1.39063 -2.459913,-2.93896 -3.045293,-4.77801 -1.289469,-4.05101 0.646382,-6.61405 2.843754,-6.58667 z m -95.086705,4.28035 c -0.465643,0.10748 -0.930899,0.21773 -1.394745,0.33435 0.171958,0.64334 0.283575,1.36624 0.279569,2.2071 -0.01267,2.6582 0.205063,5.32647 0.670242,7.94732 0.280107,-0.17087 0.565767,-0.33222 0.845429,-0.50385 -0.01897,-0.36223 -0.02445,-0.73164 -0.05529,-1.08985 -0.118034,-2.96491 -0.160888,-5.93314 -0.3452,-8.89507 z m 18.5141159,1.1958 c 0.00497,0.0773 0.00619,0.15612 0.014975,0.23202 -0.1238779,0.22787 -0.2588048,0.44752 -0.3937741,0.66715 0.58900751,0.0447 1.13203305,0.21413 1.64331124,0.45888 -0.37615284,-0.49255 -0.78353709,-0.94642 -1.26452314,-1.35805 z m -6.5422357,14.57068 c -0.046649,0.0755 -0.09888,0.14702 -0.1436608,0.22376 -0.03147,0.054 0.1963367,0.0838 0.1860365,0.0222 -0.017595,-0.10481 -0.026035,-0.14905 -0.042376,-0.24597 z m 13.9236979,6.08439 c -0.2236258,0.5643 -0.5677508,1.09664 -1.1782213,1.50533 0.9079653,0.17659 1.7077452,0.44257 2.2830631,0.84852 0.1405493,-0.0459 0.272804,-0.11448 0.4128956,-0.16174 -0.7336976,-0.43656 -1.2984269,-1.18703 -1.5177374,-2.19211 z" /></clipPath><clipPath
       clipPathUnits="userSpaceOnUse"
       id="clipPath127"><path
         id="path128"
         style="fill:#ff0000;fill-opacity:1;fill-rule:nonzero;stroke:none;stroke-width:0.264583"
         d="M -112.24796,-126.55676 V 185.58027 H 148.5754 V -126.55676 Z M 46.874626,83.305366 c 1.808208,0 3.616317,1.790192 3.616317,5.370214 v 5.232238 c 0.0627,2.146078 -0.111291,4.285324 -0.245462,6.424932 -0.136289,2.02485 -0.190703,4.04985 -0.104904,6.07715 0.192061,1.91863 0.527714,3.82569 0.876432,5.72213 0.304242,2.00862 0.765826,3.9858 1.180806,5.97276 0.41642,1.86142 0.967934,3.68703 1.421104,5.53972 0.25287,0.86996 0.117097,0.46495 0.396356,1.22008 0.186108,0.50319 0.223428,0.93098 0.309544,1.38441 4.425355,2.23251 2.751262,7.58433 -3.415813,6.40477 -3.104732,-0.59371 -6.256094,-0.76586 -9.40821,-0.85576 -3.81635,0.009 -7.630525,0.17062 -11.44478,0.28216 -1.12776,0.0333 -2.255837,0.0512 -3.383772,0.0754 -0.908129,0.5548 -1.966518,0.57724 -2.88613,0.0641 -0.03584,5.3e-4 -0.07165,0.002 -0.107487,0.003 -0.03142,5.3e-4 -0.0525,-0.009 -0.08268,-0.009 -0.32049,0.14732 -0.641715,0.29301 -0.962215,0.44028 -0.262501,0.12062 -0.518089,0.22111 -0.770496,0.31265 -0.876996,0.71434 -1.945576,0.85817 -2.911967,0.46405 -2.943479,-0.21613 -4.295167,-2.77187 -2.550232,-5.0524 -2.22e-4,-0.028 -0.0078,-0.0483 -0.0078,-0.0765 v -6.3469 c -0.014,-2.72977 -0.02254,-5.45666 0.112657,-8.18348 0.135676,-2.32533 0.233519,-4.6523 0.299723,-6.98046 0.046,-1.80459 0.06926,-3.60958 0.08527,-5.41465 -0.0258,-1.02998 0.04009,-2.054459 0.138491,-3.078883 0.0044,-0.04602 0.02191,-0.07504 0.02687,-0.120406 C 15.992671,97.193438 15.83363,95.70984 16.656834,94.418959 10.68718,93.678613 10.992573,87.32947 17.739972,87.32947 h 3.885033 5.177462 5.913334 c 1.498505,0.05847 2.984222,-0.03228 4.475178,-0.161748 1.252041,-0.18606 2.49041,-0.398671 3.697968,-0.782897 1.001961,-0.32245 0.492366,-0.161472 1.527553,-0.482142 0.510384,-0.158096 0.938446,-0.174371 1.394749,-0.23771 0.672338,-1.56932 1.86623,-2.35903 3.063377,-2.35903 z" /></clipPath><clipPath
       clipPathUnits="userSpaceOnUse"
       id="clipPath139"><path
         id="path140"
         style="fill:#ff0000;fill-opacity:1;fill-rule:nonzero;stroke:none;stroke-width:0.264583"
         d="M 97.168006,-339.91235 V -44.578961 H 346.46958 V -339.91235 Z m 14.326254,94.53944 c 1.76488,0.006 3.77708,1.78446 4.35839,5.31699 0.32911,1.99994 0.60308,4.00817 0.88884,6.01462 1.02527,-1.2445 2.22305,-1.83589 3.28403,-1.8402 2.05627,-0.008 3.59454,2.17302 2.34611,6.00222 -0.0197,0.0606 -0.0413,0.12046 -0.0615,0.18087 0.31698,0.91799 0.41757,2.09982 0.17777,3.54139 -0.2164,1.30085 -0.62011,2.56457 -1.0263,3.8163 -1.34183,4.13496 -4.42238,4.92072 -6.12882,3.38016 -1.93867,0.62007 -4.30523,-0.86149 -4.65605,-4.82762 -0.16862,-1.90632 -0.33891,-3.81275 -0.57464,-5.71231 -0.45291,-3.52522 -1.07719,-7.02592 -1.48208,-10.55543 -0.40801,-3.55672 1.10935,-5.32303 2.87424,-5.31699 z" /></clipPath><clipPath
       clipPathUnits="userSpaceOnUse"
       id="clipPath170"><path
         id="path171"
         style="fill:#ff0000;fill-opacity:1;fill-rule:nonzero;stroke:none;stroke-width:0.264583"
         d="M 88.756261,-299.52331 V 17.880567 H 410.91541 V -299.52331 Z M 363.24287,-220.863 c 0.90345,-0.008 1.97628,0.23856 3.18532,0.82218 3.39402,1.63831 6.49674,3.81197 9.57823,5.96449 3.22509,2.31448 6.37511,4.73585 9.43663,7.26261 1.87296,1.50796 3.75989,2.99047 5.54284,4.6054 1.76167,1.54167 3.42262,3.17283 4.95419,4.94388 1.19316,1.48882 2.47049,2.9032 3.73311,4.33204 1.08043,1.20022 2.09423,2.45631 2.94299,3.83026 0.82616,1.73429 1.48968,3.55524 1.93786,5.42344 1.67031,6.96258 -5.76469,8.62686 -7.05745,1.5844 -0.21127,-1.15093 -0.75649,-2.20765 -1.10278,-3.32021 -0.52141,-1.02678 -1.43909,-1.82952 -2.14042,-2.72904 -1.28368,-1.45272 -2.58234,-2.89095 -3.79617,-4.40386 -1.32794,-1.55409 -2.79577,-2.95456 -4.33049,-4.3031 -1.69875,-1.54267 -3.51006,-2.94207 -5.29113,-4.38733 -2.90883,-2.40671 -5.90918,-4.70386 -8.97258,-6.91017 -2.63017,-1.83963 -5.2759,-3.68008 -8.12096,-5.17746 -5.14813,-2.7095 -4.41412,-7.50431 -0.49919,-7.53753 z m -17.79788,14.64304 c 0.81097,-0.004 1.74701,0.16947 2.79104,0.57154 4.59168,1.76834 8.99191,4.00303 13.38523,6.20892 0.37082,0.1876 0.72266,0.4088 1.09088,0.601 0.4155,-0.11565 0.91038,-0.17484 1.48572,-0.16691 0.65984,0.009 1.42523,0.10601 2.29753,0.30644 2.35556,0.54125 4.30075,1.95473 6.16344,3.42614 -1.07651,-2.72314 0.34142,-4.84679 2.57866,-4.84311 1.28683,0.002 2.83083,0.70484 4.29689,2.3952 2.44776,2.82227 4.79147,5.70892 6.96391,8.74934 1.67944,2.35043 1.72027,4.43615 0.89969,5.70663 1.5344,1.02281 3.07247,2.04019 4.58422,3.09645 1.80695,1.14136 3.31928,2.58833 4.72631,4.18269 0.96689,1.16625 2.0869,2.25988 2.79262,3.61942 0.19542,0.37651 0.34592,0.77482 0.51882,1.1622 0.40259,1.55462 0.27207,0.76263 0.38706,2.3766 0.0637,0.89436 -0.044,1.45412 -0.26977,1.7756 0.11753,0.20753 0.23421,0.41574 0.35608,0.62063 3.66003,6.15399 -2.6856,9.845 -6.25234,3.63648 -0.83209,-1.44832 -1.62388,-2.92102 -2.35437,-4.42351 -0.84839,-1.84687 -1.70402,-3.69055 -2.54093,-5.54229 -0.078,-0.17246 -0.14713,-0.34128 -0.2119,-0.5085 -0.415,-0.33988 -0.82071,-0.68775 -1.29707,-0.97255 -2.35545,-1.64933 -4.79565,-3.17384 -7.14841,-4.82761 -3.27895,-2.27743 -6.61384,-4.47194 -9.95804,-6.65231 -4.00886,-2.60003 -8.08797,-5.09434 -12.3548,-7.25434 -4.08429,-2.05175 -8.1752,-4.1242 -12.42663,-5.81101 -5.61546,-2.22804 -4.88331,-7.4129 -0.50384,-7.43314 z m -225.34594,21.50101 c 3.05551,-0.16929 4.03285,3.80875 0.35915,7.72563 -1.17612,1.25397 -2.32696,2.59265 -3.45922,3.90674 -1.44062,1.57315 -2.77631,3.23874 -4.13618,4.88135 -1.14319,1.4697 -2.29319,2.93265 -3.46335,4.38113 -0.8717,1.2084 -1.86054,2.32105 -2.81017,3.46594 -0.80685,0.95022 -1.53489,1.96075 -2.32234,2.92695 -0.80594,1.00684 -1.52017,2.08004 -2.22519,3.15847 -0.20511,0.28103 -0.29499,0.51935 -0.30179,0.78909 -0.18033,7.15787 -8.659963,5.5717 -7.093102,-1.4149 0.267098,-1.19094 0.644303,-2.32859 1.347721,-3.34243 0.846108,-1.28566 1.701136,-2.56663 2.670121,-3.76463 0.806525,-0.98525 1.5446,-2.0236 2.37453,-2.98999 0.93132,-1.109 1.88214,-2.2008 2.7342,-3.37448 1.18855,-1.47082 2.35327,-2.95822 3.51813,-4.44779 1.39067,-1.67946 2.758,-3.38112 4.2292,-4.99142 1.55862,-1.80675 3.07205,-3.68494 4.92528,-5.20227 1.38505,-1.13397 2.63451,-1.65096 3.65301,-1.70739 z m 30.4953,3.26389 c 4.11093,0.0973 5.25218,4.81763 -0.0434,7.22591 -1.93926,0.8819 -3.80509,1.88928 -5.66115,2.92437 0.381,1.39299 -0.23993,3.26566 -2.43035,4.98678 -2.3369,1.83618 -4.71607,3.61825 -7.08845,5.40845 -2.84267,2.19936 -5.66068,4.43162 -8.41086,6.74584 -2.22216,1.84972 -4.46469,3.67225 -6.66213,5.55109 -1.67979,1.46598 -3.37138,2.91821 -5.06067,4.37337 -1.40892,1.30469 -2.82191,2.592 -4.12274,4.00648 -1.07181,1.16531 -2.16701,1.83049 -3.17087,2.10529 -0.88357,6.53411 -7.65001,5.87099 -7.10344,-1.07177 0.0596,-0.75732 0.12015,-1.51435 0.21239,-2.26859 0.18237,-1.4495 0.31176,-2.90657 0.57051,-4.34444 0.56059,-2.2771 1.55106,-4.35314 3.32124,-5.95312 1.46716,-1.38711 2.94871,-2.75912 4.4943,-4.05919 1.45063,-1.21601 2.91967,-2.40825 4.4111,-3.57394 2.2284,-1.75259 4.48249,-3.46927 6.81044,-5.08961 3.1083,-2.16601 6.29001,-4.21936 9.5343,-6.17689 3.28252,-2.04598 6.49796,-4.19789 9.78648,-6.23476 2.38673,-1.38679 4.82146,-2.65715 7.33495,-3.79873 1.22236,-0.55516 2.32966,-0.77899 3.27836,-0.75654 z" /></clipPath><clipPath
       clipPathUnits="userSpaceOnUse"
       id="clipPath233"><path
         id="path234"
         style="fill:#ff0000;fill-opacity:1;fill-rule:nonzero;stroke:none;stroke-width:0.264583"
         d="M 185.24069,-319.24193 V -24.289387 H 425.09684 V -319.24193 Z m 138.35487,149.6534 c 1.78419,7.9e-4 3.63037,1.79012 3.80182,5.36608 0.0643,1.33996 -0.0719,2.65433 -0.29041,3.95842 0.27255,-0.0735 0.56767,-0.11689 0.88522,-0.12351 0.37047,-0.008 0.77026,0.0328 1.19579,0.12867 0.38629,-0.24279 0.8215,-0.42195 1.34254,-0.44493 1.13073,-0.0499 2.53823,0.47335 4.04474,1.80971 0.4186,0.37135 0.80759,0.77178 1.2056,1.16323 0.49581,-0.30652 1.09744,-0.47283 1.77559,-0.44028 1.18851,0.0571 2.59295,0.69888 3.98788,2.15129 2.63375,2.74227 4.82211,5.85047 6.92256,9.00669 2.43144,3.88376 4.79634,7.81591 6.98098,11.84475 1.13959,2.01485 2.36363,3.97199 3.24527,6.11746 0.86638,2.54168 0.71525,4.37292 -0.15348,6.88278 -0.88855,2.03627 -2.18951,3.83746 -3.64937,5.49682 -1.22616,1.21887 -2.44396,2.51198 -3.976,3.35587 -0.38219,0.21053 -0.79187,0.3659 -1.18803,0.54881 -6.50071,3.00135 -9.83602,-5.23462 -2.81948,-6.6611 1.07346,-0.21823 1.75532,-1.41088 2.56987,-2.0407 0.86323,-0.96375 1.62015,-2.00233 2.25208,-3.13417 0.24334,-0.63932 0.47847,-1.05078 0.24958,-1.76114 -0.42873,-1.13152 -1.03555,-2.17502 -1.65674,-3.21169 -0.64492,3.08426 -3.96214,3.78517 -6.03631,0.97152 -0.80928,1.85722 -3.53859,2.62684 -6.75775,0.30902 -0.53872,-0.38787 -1.07831,-0.77486 -1.61745,-1.1622 -3.08248,4.62545 -3.94671,5.04673 -6.74584,2.87063 -2.73204,-2.16473 -5.33615,-4.48821 -8.05999,-6.6642 -2.7461,-2.45053 -5.40757,-5.07957 -7.04763,-8.42635 -1.62115,-0.12575 -3.24178,-0.2569 -4.86637,-0.34314 -7.58719,-0.44787 -15.17743,-0.9445 -22.76553,-1.33377 -1.07801,-0.0553 -1.93227,-0.3045 -2.68459,-0.62166 -0.57677,0.62929 -1.1192,1.29485 -1.64021,1.97352 -1.38696,2.1585 -2.2854,4.54313 -3.09181,6.96185 -0.53658,1.90527 -0.93866,3.84574 -1.3658,5.77949 0.3976,-0.38181 0.79402,-0.76498 1.19114,-1.14825 1.44902,-1.39846 2.84121,-1.97983 3.98373,-1.97766 2.91995,0.006 4.20899,3.82009 0.64648,7.53391 -0.92629,0.96557 -1.9114,1.86859 -2.9099,2.75797 -1.78302,1.58814 -3.50499,2.03887 -4.81263,1.76372 -0.007,0.0412 -0.0189,0.0812 -0.0253,0.12247 -0.31138,2.1774 -0.34632,4.38158 -0.39739,6.57686 0.006,3.5147 -0.15426,7.02208 -0.44287,10.52391 -0.15049,2.45352 -0.52882,4.882887 -0.77928,7.326166 -0.25682,2.270699 -0.2357,4.548968 -0.1633,6.828007 0.0525,1.43787 0.0261,0.723201 0.0775,2.145088 7.9e-4,0.02175 -0.006,0.03573 -0.006,0.05736 0.13966,0.0486 0.27673,0.09115 0.42013,0.148309 3.73047,1.486969 7.59999,2.598727 11.41894,3.833876 4.85884,1.705695 9.66861,3.546912 14.50144,5.32474 1.9552,0.651698 3.84707,1.443672 5.71489,2.292366 2.6308,-0.638411 5.26049,-1.281708 7.89771,-1.893425 4.5737,-1.075436 2.35597,-0.547624 6.65438,-1.580782 0.65268,-0.156879 1.2592,-0.237268 1.81642,-0.252698 3.40876,-0.09437 4.96226,2.238663 4.05712,4.350639 3.89832,1.612736 3.00805,6.568553 -2.90269,6.729304 l -2.19726,0.05943 c 0.0932,0.05532 0.18872,0.106439 0.28112,0.163298 6.09814,3.752323 2.1299,10.065517 -3.84782,6.124173 -1.04591,-0.689594 -2.23735,-1.127543 -3.31556,-1.763197 -2.61015,-1.251701 -5.22853,-2.484003 -7.87136,-3.665926 -0.34703,-0.170111 -0.69536,-0.335955 -1.04283,-0.504362 -1.04394,0.228952 -2.09238,0.441277 -3.15071,0.537951 -0.41145,0.100483 -0.82417,0.195434 -1.23558,0.296105 -3.95687,0.968251 -6.08679,-0.907356 -5.97897,-3.010669 -0.31188,-0.687727 -0.239,-1.395294 0.0263,-2.059305 -3.87146,-1.438614 -7.73769,-2.891312 -11.63237,-4.265891 -3.97417,-1.285444 -7.99945,-2.446282 -11.87938,-4.000272 -1.44639,-0.579335 -2.44377,-1.350957 -3.06182,-2.17506 -1.01218,-0.798706 -1.81304,-2.231819 -1.89446,-4.484998 -0.0517,-1.431189 -0.0254,-0.705106 -0.0791,-2.177645 -0.0816,-2.602558 -0.0903,-5.205841 0.19844,-7.79849 0.24823,-2.394268 0.6146,-4.775082 0.76533,-7.179412 0.27808,-3.36008 0.42763,-6.72542 0.42064,-10.09809 0.0594,-2.5132 0.11189,-5.03614 0.48266,-7.52719 0.38072,-2.41928 0.90466,-4.80615 1.46451,-7.18974 0.6701,-2.94551 1.25825,-5.91529 2.11305,-8.81393 1.0668,-3.18776 2.31041,-6.31647 4.23489,-9.10074 0.42128,-0.53977 0.8547,-1.07136 1.29914,-1.59215 -1.52816,-0.60355 -3.06641,-1.18197 -4.57646,-1.83141 -1.09038,3.76762 -2.19021,7.53001 -3.40755,11.25926 -1.05961,2.97655 -0.54118,1.54568 -1.55081,4.2938 -1.83358,4.9908 -6.03644,4.88509 -7.07398,1.75544 -2.82634,3.52841 -7.50378,1.0111 -5.57744,-4.75268 1.05408,-3.1537 2.2385,-6.34595 4.49688,-8.85837 1.49582,-1.66408 2.97572,-2.34765 4.17287,-2.32647 0.33252,0.006 0.64298,0.0664 0.92604,0.17518 0.46945,-1.58214 0.96416,-3.15651 1.43919,-4.7377 0.70062,-2.33196 1.93737,-3.52641 3.18689,-3.8871 0.54142,-0.34307 1.25019,-0.55529 2.11615,-0.57361 h 5.3e-4 c 0.8057,-0.017 1.74503,0.13149 2.80396,0.49248 0.31645,0.10788 0.63769,0.20324 0.94929,0.32401 1.83624,0.71133 3.60046,1.59642 5.43016,2.32544 1.18096,0.47048 2.26953,0.84228 3.35329,1.23145 0.62902,-0.20883 1.22424,-0.32846 1.76785,-0.35037 2.28614,-0.0921 3.73455,1.32842 3.67523,3.07682 1.73917,0.0925 3.47854,0.18832 5.21777,0.2899 -0.1345,-1.7899 1.43141,-3.54652 4.54959,-3.56619 0.39587,-0.002 0.816,0.0231 1.25987,0.0801 3.99155,0.51285 7.97638,1.04608 11.94346,1.72703 0.35092,0.0747 0.7018,0.14913 1.05265,0.22376 0.92028,-2.09088 2.0607,-3.80586 3.79408,-5.38675 0.9172,-0.8245 1.6747,-1.80494 2.07378,-2.98587 0.46483,-1.35061 0.4893,-2.77914 0.4594,-4.19561 h 5.3e-4 c -0.0754,-3.57927 1.64663,-5.36691 3.4308,-5.36608 z m 1.97559,14.00741 c -0.78838,1.39934 -1.79816,2.66075 -2.96984,3.79512 -1.06213,0.94584 -1.80404,2.02586 -2.28153,3.3538 -0.003,0.012 -0.005,0.0237 -0.009,0.0357 1.15411,0.11311 2.30814,0.22665 3.4613,0.3514 3.99042,0.43171 5.40747,2.84663 4.69323,4.76353 0.67585,0.41545 1.35041,0.83313 2.01954,1.25626 3.82278,2.5036 7.53266,5.1715 11.24013,7.84086 -1.81731,-3.68096 -3.93583,-7.19476 -6.36087,-10.5146 -1.10355,-1.48555 -2.20805,-3.00054 -3.36206,-4.44883 -0.35653,-0.44747 -1.7607,-2.16704 -2.34455,-2.70784 -0.36042,-0.33384 -0.93237,-0.68033 -1.36375,-0.9555 -1.33122,-0.84918 -2.21667,-1.81673 -2.72282,-2.76986 z" /></clipPath><clipPath
       clipPathUnits="userSpaceOnUse"
       id="clipPath240"><path
         id="path241"
         style="fill:#ff0000;fill-opacity:1;fill-rule:nonzero;stroke:none;stroke-width:0.264583"
         d="M 92.804184,-309.23338 V -41.629034 H 294.29938 V -309.23338 Z m 130.496946,63.74443 c 0.93337,0.009 2.02072,0.27397 3.21944,0.8785 1.75312,0.88412 3.43212,1.89553 5.06326,2.98586 5.9527,3.97906 1.8926,10.01797 -4.03542,6.00222 -1.36849,-0.92705 -2.78857,-1.76849 -4.26227,-2.51871 -5.18448,-2.63926 -4.02961,-7.38891 0.015,-7.34787 z m -85.24544,1.99626 c 3.36772,-0.0906 4.87054,3.93317 0.67437,7.28431 -0.81214,0.6486 -0.42273,0.34746 -1.1653,0.9064 -1.7275,1.42217 -3.47209,2.82263 -5.29477,4.12275 -2.09112,1.47372 -4.25636,2.82668 -6.45645,4.13153 -6.15846,3.65253 -10.39165,-1.95967 -4.33979,-5.78621 2.21999,-1.40367 4.47897,-2.73503 6.6244,-4.25349 1.67688,-1.19734 3.27994,-2.48915 4.86947,-3.79821 0.91499,-0.69918 0.50268,-0.37435 1.24076,-0.9679 1.39493,-1.12177 2.72473,-1.60899 3.84731,-1.63918 z" /></clipPath><clipPath
       clipPathUnits="userSpaceOnUse"
       id="clipPath251"><path
         id="path252"
         style="fill:#ff0000;fill-opacity:1;fill-rule:nonzero;stroke:none;stroke-width:0.264583"
         d="m 50.06164,-325.07443 v 245.270816 h 202.0347 V -325.07443 Z m 191.06172,72.239 c 1.42195,-0.0396 3.11835,0.92332 4.44418,3.2582 0.80855,1.42391 1.33311,2.97097 1.71979,4.55476 0.38267,1.85761 0.50306,3.75527 0.49506,5.64772 0.007,1.66837 -0.28067,3.30966 -0.52503,4.95318 -0.26767,2.07853 -1.32063,3.82386 -2.54249,5.47306 -0.98598,1.19805 -2.03839,2.33999 -3.16208,3.40961 -0.37488,0.32054 -0.76867,0.61405 -1.09502,0.98443 -4.73356,5.37222 -10.25077,0.0313 -5.19193,-5.03587 0.41783,-0.41852 0.82603,-0.84961 1.30896,-1.19579 0.83199,-0.78568 1.60086,-1.63171 2.34973,-2.49649 0.52191,-0.686 1.06794,-1.32103 1.17874,-2.204 0.19629,-1.31742 0.44949,-2.62948 0.44648,-3.9672 0.0288,-1.3072 -0.0809,-2.61845 -0.30179,-3.90725 -0.20137,-0.91522 -0.51051,-1.80281 -0.96014,-2.62775 -2.14172,-3.92928 -0.53435,-6.78057 1.83554,-6.84661 z m -24.00732,134.01508 c 1.58088,-0.0452 3.27238,1.29937 3.90106,4.36821 0.19779,0.96552 0.49313,1.88927 0.87385,2.79466 0.57738,1.31117 0.86222,2.69631 0.9741,4.11603 0.0779,1.63421 -0.38657,3.16522 -1.00976,4.65191 -0.60784,1.37091 -1.55916,2.5173 -2.50579,3.660755 -0.2566,0.333243 -0.50348,0.67224 -0.76223,1.002525 -0.0721,0.651052 -0.19323,1.300012 -0.35502,1.949752 l -0.4842,1.22783 c -0.70346,1.782932 -1.87803,2.754204 -3.12126,3.127457 -0.38818,0.593834 -0.73665,1.213207 -1.1529,1.788007 -0.78123,1.206815 -1.75001,2.262322 -2.80138,3.23546 -1.04259,0.90742 -2.26203,1.551003 -3.47214,2.198833 -0.81145,0.41652 -1.66264,0.737227 -2.52439,1.030428 -6.77856,2.306214 -9.10653,-4.670343 -2.28979,-6.86108 0.48258,-0.155091 0.95367,-0.335381 1.41232,-0.552421 0.68902,-0.364839 1.38726,-0.713642 2.01745,-1.175639 0.71797,-0.616461 1.30017,-1.358352 1.82004,-2.146123 0.66383,-0.892056 1.26802,-1.828112 1.8216,-2.792076 0.59882,-1.12436 1.07283,-2.316203 1.82056,-3.358968 0.0117,-0.0166 0.0249,-0.032 0.0367,-0.0486 -0.84786,-3.67928 0.87949,-5.67892 2.87217,-5.69422 0.38363,-0.003 0.77643,0.0723 1.16324,0.21859 0.15519,-0.3579 0.298,-0.71847 0.29042,-1.1188 -0.0398,-0.54898 -0.18359,-1.13581 -0.4191,-1.66191 -0.48947,-1.16893 -0.89792,-2.36312 -1.1591,-3.60547 -0.82863,-3.94139 1.021,-6.29698 3.05356,-6.35516 z" /></clipPath><clipPath
       clipPathUnits="userSpaceOnUse"
       id="clipPath278"><path
         id="path279"
         style="fill:#ff0000;fill-opacity:1;fill-rule:nonzero;stroke:none;stroke-width:0.264583"
         d="m -43.212488,-382.05292 v 250.81001 H 185.4025 v -250.81001 z m 181.494868,132.88233 c 1.13528,0.005 2.03811,0.42617 2.60707,1.09037 0.91934,-0.34123 1.78192,-0.54125 2.52078,-0.52658 4.05205,0.0805 5.08945,4.87108 -0.18087,7.33443 -2.21042,1.03317 -4.41856,2.08163 -6.72362,2.89285 -2.86091,0.99315 -5.74924,1.921 -8.52506,3.13986 -6.55592,2.87873 -9.40434,-3.76713 -2.84944,-6.64817 1.1011,-0.48395 2.22936,-0.89759 3.35587,-1.31568 0.52294,-1.00077 1.47788,-2.01475 2.95124,-2.87476 1.0894,-0.6359 2.16914,-1.287 3.24683,-1.94252 1.33817,-0.81396 2.56345,-1.15421 3.5972,-1.1498 z m -133.0900695,2.4753 h 5.5981075 c 7.160125,0 7.160125,7.23263 0,7.23263 H 5.1923105 c -7.1601277,0 -7.1601277,-7.23263 0,-7.23263 z m 42.9880715,50.84496 c 2.044401,-0.008 3.844292,2.25841 2.953308,6.18618 -0.283588,1.25017 -0.481169,2.51568 -0.75189,3.76877 -0.313965,1.46608 -0.73946,2.91235 -1.207162,4.33668 -2.233805,6.80278 -9.211228,4.46329 -6.857981,-2.29908 0.404762,-1.16313 0.726765,-2.36525 0.995807,-3.56619 0.287499,-1.32813 0.484814,-2.67249 0.804084,-3.99407 0.735603,-3.04497 2.473746,-4.42641 4.063834,-4.43229 z m 26.844358,9.60148 c 1.5451,0.0844 3.630816,1.85281 5.237924,5.05189 1.446292,2.8789 3.498345,5.40261 5.377447,8.00674 1.423178,1.86933 2.496352,3.93269 3.488161,6.04873 3.038795,6.48323 -3.64554,9.55837 -6.57066,3.02307 -0.764304,-1.70766 -1.644017,-3.34338 -2.782776,-4.84001 -2.279812,-3.15977 -5.466628,-6.83969 -6.494177,-10.63656 -0.141171,-0.52168 -0.167447,-1.06805 -0.251148,-1.60197 -0.554762,-3.53682 0.450099,-5.13633 1.995229,-5.05189 z m 22.433772,2.07998 v 5.3e-4 c 1.081786,0.0173 2.458693,0.64291 3.986318,2.0805 1.21595,1.14421 2.08888,2.57763 3.1502,3.85661 0.75663,0.91352 1.6619,1.66584 2.53163,2.46393 1.1475,0.93011 2.05703,2.06162 2.85305,3.29799 0.95863,1.59903 1.44035,3.34615 0.97049,5.20227 -0.10236,0.40431 -0.31771,0.77135 -0.47646,1.15703 -1.02548,2.49132 -2.04203,1.65641 -2.97036,0.0238 -2.04159,1.70549 -5.47708,1.09344 -5.78105,-3.28558 -0.003,-0.0322 -0.0142,-0.0648 -0.007,-0.0966 0.005,-0.03 0.0986,-0.0136 0.0827,-0.0393 -0.23736,-0.38486 -0.69492,-0.61714 -1.02216,-0.90227 -1.100378,-0.77725 -2.267905,-1.45106 -3.395141,-2.18798 -3.582773,-2.34245 -3.744537,-5.4822 -2.015898,-6.82284 -0.840523,-2.68156 0.04882,-4.63231 1.88154,-4.74287 0.06945,-0.004 0.140271,-0.006 0.212389,-0.005 z" /></clipPath><clipPath
       clipPathUnits="userSpaceOnUse"
       id="clipPath292"><path
         id="path293"
         style="fill:#ff0000;fill-opacity:1;fill-rule:nonzero;stroke:none;stroke-width:0.264583"
         d="M 39.169506,-337.89832 V -50.969072 H 288.46282 V -337.89832 Z m 15.676046,82.89261 c 1.714024,0.0204 3.54041,1.61061 3.978568,4.9382 0.120111,0.91222 0.106387,1.83456 0.107487,2.75229 0.0087,7.16012 -7.246413,7.15857 -7.232633,-0.002 0.0013,-0.65071 0.02757,-1.30512 -0.06356,-1.95182 -0.530767,-3.76661 1.267578,-5.76019 3.21014,-5.73712 z m 197.013298,6.80941 c 1.32993,-0.0899 2.96772,0.82319 4.38423,3.1042 1.07429,1.72993 1.55184,3.70118 1.89652,5.68338 0.39598,2.58761 0.42018,5.20011 0.26717,7.80675 -0.16631,2.61527 -0.75971,5.14416 -1.52187,7.63985 -0.4978,1.90614 -1.23662,3.72608 -2.0159,5.52989 -0.76243,1.81488 -1.37928,3.68664 -2.00143,5.55315 -0.64972,1.87676 -1.26002,3.76819 -2.01124,5.60741 -0.95415,2.1244 -1.9321,4.237 -2.90784,6.35155 -0.93622,2.10591 -1.93956,4.18102 -3.03444,6.20893 -0.74336,1.47932 -1.63431,2.88203 -2.64686,4.19044 -0.85071,1.10794 -1.91984,2.00805 -2.89078,3.00343 -1.04445,1.12516 -2.20219,2.13025 -3.34605,3.1502 -1.2349,1.05182 -2.56579,1.98944 -3.91811,2.88354 -1.93444,1.28303 -4.12655,2.08437 -6.28747,2.89285 -2.75914,1.06536 -5.6224,1.79172 -8.50439,2.42982 -2.00852,0.48359 -4.02259,0.93996 -6.05234,1.32499 -1.0898,0.20672 -1.99053,0.15992 -2.79725,0.0139 -0.75827,0.17949 -1.51301,0.3744 -2.26653,0.57309 -1.4977,0.44017 -2.97995,0.92699 -4.46019,1.42214 -1.58834,0.5581 -3.19109,1.04834 -4.83381,1.42213 -2.05853,0.5373 -4.13223,0.98734 -6.23425,1.31724 -1.89057,0.38525 -3.79586,0.65788 -5.71696,0.82837 -1.92552,0.0766 -3.83858,0.29911 -5.75676,0.47025 -1.71912,0.15432 -3.44381,0.22701 -5.16867,0.27441 -2.44184,-0.0118 -4.87127,-0.25567 -7.30085,-0.47078 -2.85973,-0.19225 -5.71909,-0.39592 -8.57157,-0.67799 -2.83995,-0.26841 -5.65359,-0.74864 -8.47907,-1.13016 -2.66463,-0.21934 -5.29981,-0.64608 -7.94267,-1.03457 -2.11987,-0.30404 -4.25541,-0.45909 -6.38152,-0.71055 -1.8808,-0.17534 -3.75496,-0.4017 -5.63118,-0.61856 -1.91243,-0.21286 -3.83573,-0.28885 -5.75779,-0.34985 -2.23949,-0.16259 -4.48445,-0.27106 -6.71949,-0.48783 -2.21917,-0.20648 -4.40762,-0.67897 -6.54068,-1.31516 -2.57048,-0.65769 -4.88262,-1.9917 -7.25382,-3.13883 -1.91366,-0.89121 -3.846978,-1.74009 -5.755724,-2.6417 -1.929913,-0.93683 -3.722034,-2.11514 -5.521108,-3.27525 -1.492637,-0.90475 -0.734285,-0.44535 -2.275314,-1.37821 -6.125257,-3.70793 -2.379728,-9.89571 3.745508,-6.18774 1.606161,0.9723 0.789586,0.47683 2.449462,1.48725 1.534261,0.98943 3.055983,2.00536 4.695836,2.81636 1.92633,0.91375 3.8825,1.76312 5.81257,2.66909 2.03397,0.98503 4.0062,2.16157 6.20944,2.72955 1.67042,0.52508 3.40555,0.86136 5.14697,1.03715 2.07333,0.21111 4.15957,0.28906 6.23683,0.4563 2.12341,0.0679 4.24789,0.15641 6.36033,0.39429 1.88182,0.21873 3.76122,0.44337 5.64772,0.62012 2.19401,0.25968 4.39889,0.41632 6.58565,0.73794 2.61501,0.3856 5.2221,0.80551 7.85895,1.02267 2.74095,0.37156 5.47017,0.83558 8.22482,1.1002 2.82609,0.28319 5.66087,0.47505 8.49405,0.67076 2.15225,0.19062 4.3024,0.40925 6.46472,0.44545 1.57684,-0.0428 3.1537,-0.10777 4.7253,-0.24857 1.92194,-0.17061 3.8389,-0.3955 5.76812,-0.4718 1.7606,-0.15093 3.50197,-0.42258 5.23482,-0.76946 1.94524,-0.29972 3.85736,-0.73584 5.76244,-1.22784 1.40538,-0.30937 2.76609,-0.74989 4.12327,-1.22421 1.62869,-0.54468 3.26081,-1.07909 4.91081,-1.5565 1.77362,-0.46766 3.552,-0.92735 5.36814,-1.20147 1.70238,-0.33298 3.38762,-0.74982 5.05034,-1.24437 1.8768,-0.51034 3.73395,-1.11665 5.54695,-1.81953 1.67544,-0.67931 3.31988,-1.45879 4.78886,-2.52439 1.0657,-0.84543 2.16725,-1.64342 3.15019,-2.58951 1.28809,-1.21508 2.58622,-2.41928 3.84008,-3.67058 0.85194,-0.84614 1.68746,-1.65828 2.24585,-2.7404 0.63482,-0.99725 1.29901,-1.9775 1.85674,-3.02152 0.55263,-0.92785 1.06197,-1.877 1.53479,-2.8484 0.43455,-0.81257 0.86675,-1.63643 1.16427,-2.50993 0.39723,-1.087 0.65435,-2.21493 0.97203,-3.32641 0.29574,-1.24569 0.60338,-2.49273 1.07901,-3.68453 0.39957,-1.05638 0.68712,-2.15558 1.05006,-3.22512 0.22713,-0.94997 0.37986,-1.92387 0.55966,-2.88303 0.22526,-1.23853 0.53664,-2.45701 1.02371,-3.62149 0.47591,-1.31864 1.08044,-2.58627 1.7048,-3.84007 0.34111,-0.58794 0.67316,-1.19257 0.96067,-1.80041 0.32682,-0.71346 -0.0659,-2.40019 0.0822,-3.22151 v -4.23178 c 0,-3.58007 1.80812,-5.37022 3.61632,-5.37022 0.15156,0 0.30168,0.0312 0.45217,0.0563 -0.0649,-0.17178 -0.10183,-0.35173 -0.18242,-0.51883 -1.94402,-4.03078 -0.58254,-6.96655 1.63401,-7.11636 z" /></clipPath></defs><g
     id="layer1"
     transform="translate(7.0864102,361.42382)"><path
       style="fill:#000000"
       d="m 69.649161,-98.165911 c -5.82675,-0.64147 -8.98224,-2.214049 -10.03252,-4.999839 -1.33661,-3.54525 0.91788,-12.24806 4.91648,-18.97871 3.48487,-5.86589 9.52634,-12.46026 13.05266,-14.24718 1.54423,-0.78252 1.68923,-0.97316 2.0226,-2.65921 0.35796,-1.81038 0.35472,-1.82102 -0.99778,-3.28292 -2.99489,-3.23715 -4.55171,-7.89961 -4.55171,-13.63175 0,-5.71095 1.14742,-10.91041 4.51665,-20.46685 0.58146,-1.64923 1.15733,-3.58154 1.27971,-4.29401 l 0.2225,-1.29539 -6.58349,1.7181 c -10.02127,2.61527 -16.79044,3.29969 -23.95343,2.4219 -9.30888,-1.14076 -16.18675,-4.70627 -21.54048,-11.16665 -1.0834,-1.30735 -2.53663,-3.28981 -3.22939,-4.40547 l -1.25958,-2.02847 h -1.9924 c -8.71354,0 -18.6655796,-8.06677 -23.9856896,-19.44196 -5.06427,-10.82815 -6.075,-25.634 -2.48514,-36.40399 1.61688,-4.85082 3.57195,-8.0503 7.14412,-11.69143 l 3.09866,-3.15846 -0.53071,-2.13472 c -1.55454,-6.25293 -2.18202,-13.79547 -1.64699,-19.79716 0.765,-8.58139 2.62556,-15.31237 6.23438,-22.55422 6.6736696,-13.39216 16.7853096,-22.38447 37.2018496,-33.08371 18.6495,-9.77324 36.4429,-15.10938 57.495539,-17.24262 5.69493,-0.57706 22.99474,-0.57777 28.04583,-10e-4 16.41704,1.87413 29.37792,7.83988 39.04631,17.97258 6.57661,6.89244 10.95814,14.35722 14.04548,23.92915 l 1.4924,4.62703 2.2488,0.21 c 8.83846,0.82534 17.96988,8.33085 23.25095,19.11094 3.01718,6.15887 4.35742,10.96037 5.13037,18.3799 1.37813,13.22854 -4.30056,26.04895 -13.4652,30.3995 l -1.98144,0.94061 -0.19682,3.36221 c -0.43949,7.50768 -3.94524,15.34547 -9.59178,21.44424 -8.71142,9.40915 -23.87487,15.89689 -52.48255,22.45486 -1.3913,0.31894 -1.20116,0.69226 0.62759,1.23222 3.43915,1.01546 7.87276,4.64472 10.30129,8.43241 2.75662,4.29941 4.19487,10.51623 3.85191,16.64987 -0.48468,8.66823 -3.6132,15.1722 -8.93587,18.57707 -1.69207,1.0824 -1.84889,1.30008 -2.05395,2.85088 -0.2053,1.55269 -1.56496,6.85176 -2.13079,8.30445 -0.21779,0.55916 -0.0887,0.60328 1.17431,0.40132 1.99896,-0.31964 4.37065,0.56541 7.18887,2.6827 8.8117,6.6201 15.56282,20.25952 15.62403,31.56552 0.0153,2.81732 -0.0882,3.35427 -0.91835,4.76629 -1.82675,3.107149 -4.79666,3.966669 -16.04835,4.644529 -13.08483,0.78829 -19.34612,-0.33787 -21.96292,-3.950259 -1.37593,-1.89942 -2.41054,-4.65464 -3.24271,-8.63556 -0.77112,-3.68887 -0.86113,-9.26429 -0.18033,-11.17034 0.43302,-1.21232 0.39828,-1.39442 -0.55951,-2.93326 -0.56166,-0.90238 -1.31676,-2.38448 -1.67799,-3.29355 l -0.6568,-1.65284 -2.06236,0.17638 c -1.13431,0.097 -4.12612,0.17639 -6.64848,0.17639 -2.52236,0 -5.44148,-0.0794 -6.48692,-0.17639 l -1.90081,-0.17638 -0.48112,1.41111 c -0.26461,0.77611 -0.66235,1.76076 -0.88386,2.18811 -0.32941,0.63551 -0.24899,1.11731 0.44165,2.64583 0.75003,1.65998 0.84252,2.36165 0.82763,6.27856 -0.0131,3.43308 -0.19366,5.06662 -0.81547,7.37578 -2.239859,8.31796 -4.905109,10.778909 -12.632529,11.664229 -3.70046,0.42396 -15.70262,0.39945 -19.69635,-0.0402 z m 14.90042,-4.757089 0.7893,-0.21156 -0.73959,-1.03866 c -1.07222,-1.50578 -0.55834,-1.62953 0.57834,-0.13927 1.11615,1.46336 1.98849,1.57043 5.95244,0.73064 3.03735,-0.64349 3.81154,-1.14759 4.70517,-3.06368 1.30511,-2.79841 2.82824,-10.48291 2.40892,-12.15358 l -0.23514,-0.93688 -1.13829,1.10327 c -3.32751,3.22515 -11.69493,1.32777 -16.53854,-3.75024 -2.50532,-2.62656 -3.1091,-4.41924 -2.27828,-6.76439 0.30683,-0.86609 0.49039,-1.6422 0.40791,-1.72468 -0.40049,-0.40049 -6.14224,5.80387 -8.13432,8.78971 -3.27562,4.90968 -6.23442,11.64663 -4.8882,11.13004 0.33891,-0.13006 0.2556,0.15065 -0.24615,0.8293 -0.91638,1.23946 -1.31388,4.33934 -0.65782,5.12985 0.65711,0.79176 3.69276,1.56664 7.44235,1.89972 4.0422,0.35908 11.49125,0.46005 12.5719,0.17041 z m -18.2518,-8.42187 c 0,-0.097 0.0794,-0.17639 0.17639,-0.17639 0.097,0 0.17638,0.0794 0.17638,0.17639 0,0.097 -0.0794,0.17639 -0.17638,0.17639 -0.097,0 -0.17639,-0.0794 -0.17639,-0.17639 z m 71.292569,7.14375 c 0.86093,-1.25731 2.43798,-2.89679 2.43798,-2.53449 0,0.12545 -0.44961,0.80656 -0.99914,1.51358 -1.9061,2.4524 -2.46423,2.28868 7.0328,2.06307 9.08502,-0.21582 13.15146,-0.7687 13.98647,-1.90163 1.1509,-1.56151 0.14672,-4.19886 -2.11481,-5.55429 -0.82564,-0.49484 -1.37421,-0.90121 -1.21906,-0.90304 0.50061,-0.006 2.22512,0.99207 2.69721,1.5609 0.80962,0.97553 0.97799,0.59926 0.6605,-1.47605 -1.16653,-7.62515 -4.9617,-15.30971 -10.30396,-20.86373 -2.51185,-2.61142 -5.36318,-4.75479 -5.89119,-4.42846 -0.15471,0.0956 0.20924,0.96295 0.80878,1.9274 1.64798,2.65105 1.72094,4.64712 0.26942,7.37045 -1.30011,2.43926 -4.94474,6.09199 -7.50786,7.52455 -3.949,2.20714 -8.39444,3.08324 -9.41361,1.85521 -0.24154,-0.29104 -0.57848,-0.52917 -0.74875,-0.52917 -0.85985,0 0.26755,7.62071 1.69073,11.42853 0.79253,2.12046 1.95382,3.02754 4.60501,3.59693 2.96858,0.63755 3.14791,0.60849 4.00948,-0.64976 z m 3.14353,-3.61597 c 0,-0.097 0.0794,-0.17639 0.17639,-0.17639 0.097,0 0.17639,0.0794 0.17639,0.17639 0,0.097 -0.0794,0.17638 -0.17639,0.17638 -0.097,0 -0.17639,-0.0794 -0.17639,-0.17638 z m 14.37569,-3.93781 c 0.24254,-0.0979 0.63941,-0.0979 0.88195,0 0.24253,0.0979 0.0441,0.17794 -0.44097,0.17794 -0.48507,0 -0.68351,-0.0801 -0.44098,-0.17794 z m -62.706239,-8.80334 c 0,-0.0744 -0.3175,-0.13524 -0.70556,-0.13524 -0.38805,0 -0.70555,0.14389 -0.70555,0.31975 0,0.17586 0.3175,0.23672 0.70555,0.13524 0.38806,-0.10148 0.70556,-0.24536 0.70556,-0.31975 z m -2.46944,-0.097 c 0,-0.17299 -0.43657,-0.4161 -0.97014,-0.54023 -1.91496,-0.4455 -4.13898,-1.82406 -5.97802,-3.70547 -1.02921,-1.05293 -1.87129,-1.79911 -1.87129,-1.65818 0,0.67654 1.15472,2.3494 2.34016,3.39023 2.1831,1.91679 6.47929,3.5835 6.47929,2.51365 z m 4.91901,-2.03338 c 0.60288,-0.76644 3.90043,-10.18115 3.90043,-11.13598 0,-0.15094 -1.01515,-0.27444 -2.2559,-0.27444 -3.90246,0 -8.1031,-1.70712 -11.0631,-4.49601 l -1.14817,-1.08179 -0.21357,0.85094 c -0.11747,0.46802 -0.10906,1.40809 0.0187,2.08903 0.15697,0.83675 0.10413,1.20766 -0.16302,1.14421 -0.53822,-0.12782 -2.2293,6.60778 -1.94419,7.74374 0.12214,0.48665 1.06444,1.72719 2.094,2.75675 2.12267,2.12267 4.99873,3.28569 8.21146,3.32054 1.56895,0.017 1.93038,-0.11227 2.56337,-0.91699 z m -9.15235,-2.06181 c 0,-0.097 0.0794,-0.17638 0.17639,-0.17638 0.097,0 0.17639,0.0794 0.17639,0.17638 0,0.097 -0.0794,0.17639 -0.17639,0.17639 -0.097,0 -0.17639,-0.0794 -0.17639,-0.17639 z m 1.2077,-3.79236 c 0.10829,-0.43656 0.10576,-0.59531 -0.006,-0.35277 -0.31866,0.69381 -1.20207,0.51467 -1.20207,-0.24377 0,-0.88048 0.69296,-1.31398 1.09238,-0.68338 0.29576,0.46695 0.47339,0.16547 0.33711,-0.57216 -0.0358,-0.19403 0.19272,-0.0997 0.50793,0.20953 0.68464,0.67173 0.38628,2.4363 -0.41193,2.4363 -0.35692,0 -0.45434,-0.24332 -0.31779,-0.79375 z m 6.20064,-1.85208 c 0,-0.097 0.0794,-0.17639 0.17638,-0.17639 0.097,0 0.17639,0.0794 0.17639,0.17639 0,0.097 -0.0794,0.17639 -0.17639,0.17639 -0.097,0 -0.17638,-0.0794 -0.17638,-0.17639 z m -0.94075,-0.41157 c 0.12936,-0.12936 0.34102,-0.12936 0.47037,0 0.12936,0.12935 0.0235,0.23518 -0.23518,0.23518 -0.2587,0 -0.36454,-0.10583 -0.23519,-0.23518 z m -1.17592,-0.29399 c 0,-0.097 0.0794,-0.17638 0.17639,-0.17638 0.097,0 0.17639,0.0794 0.17639,0.17638 0,0.097 -0.0794,0.17639 -0.17639,0.17639 -0.097,0 -0.17639,-0.0794 -0.17639,-0.17639 z m -0.70556,-0.35277 c 0,-0.097 0.0794,-0.17639 0.17639,-0.17639 0.097,0 0.17639,0.0794 0.17639,0.17639 0,0.097 -0.0794,0.17639 -0.17639,0.17639 -0.097,0 -0.17639,-0.0794 -0.17639,-0.17639 z m -1.41111,-0.70556 c 0,-0.097 0.0794,-0.17639 0.17639,-0.17639 0.097,0 0.17639,0.0794 0.17639,0.17639 0,0.097 -0.0794,0.17639 -0.17639,0.17639 -0.097,0 -0.17639,-0.0794 -0.17639,-0.17639 z m -0.91563,-0.93645 c -0.15596,-0.25234 -0.0968,-0.31153 0.15557,-0.15557 0.40667,0.25133 0.54598,0.56285 0.25172,0.56285 -0.0856,0 -0.26885,-0.18327 -0.40729,-0.40728 z m -1.95159,-0.91563 c -0.44786,-0.57106 -0.43125,-0.57855 0.22139,-0.0998 0.38805,0.28465 0.7717,0.56246 0.85255,0.61736 0.0808,0.0549 -0.0188,0.0998 -0.22139,0.0998 -0.20261,0 -0.58626,-0.27781 -0.85255,-0.61736 z m -1.01333,-0.97014 c 0,-0.097 0.0794,-0.17639 0.17639,-0.17639 0.097,0 0.17638,0.0794 0.17638,0.17639 0,0.097 -0.0794,0.17639 -0.17638,0.17639 -0.097,0 -0.17639,-0.0794 -0.17639,-0.17639 z m 48.398639,12.20348 c 0.88953,-0.56413 1.90734,-1.51663 2.26179,-2.11667 0.35446,-0.60004 0.77835,-1.09098 0.942,-1.09098 0.16364,0 0.18334,-0.19844 0.0438,-0.44097 -0.13957,-0.24254 -0.12386,-0.32329 0.0349,-0.17945 0.3539,0.3206 1.29781,-0.40455 1.04952,-0.80628 -0.098,-0.15864 0.008,-0.40331 0.23478,-0.54371 0.27459,-0.1697 0.32569,-0.0892 0.15244,0.24021 -0.14333,0.27251 0.18933,-0.0219 0.73925,-0.65423 0.54991,-0.63234 1.21526,-1.14828 1.47855,-1.14653 0.28819,0.002 0.3951,-0.21472 0.26863,-0.5443 -0.11698,-0.30483 -0.0601,-0.4548 0.1283,-0.33835 0.55282,0.34166 0.82502,-1.51705 0.37964,-2.59231 -0.22668,-0.54724 -1.11549,-1.77448 -1.97515,-2.72717 -1.5048,-1.66768 -1.5829,-1.70668 -2.09726,-1.0474 -0.29385,0.37664 -0.53426,0.55047 -0.53426,0.3863 0,-0.16417 -0.29771,-0.0291 -0.66157,0.30022 -0.36386,0.32929 -1.67355,1.16078 -2.91042,1.84776 -1.23686,0.68697 -1.96279,1.15835 -1.61316,1.0475 0.40121,-0.1272 0.54918,-0.0616 0.40116,0.17793 -0.12899,0.20871 -0.53482,0.30094 -0.90185,0.20496 -0.36703,-0.096 -1.44567,0.20098 -2.39698,0.65991 -0.95132,0.45893 -2.14123,0.93771 -2.64426,1.06396 -0.50302,0.12625 -0.91459,0.43731 -0.91459,0.69123 0,0.77356 1.3359,3.63303 2.51712,5.38787 2.45553,3.64794 3.28447,3.95382 6.01764,2.2205 z m -1.12642,-7.16672 c 0,-0.29736 0.24282,-0.74218 0.53961,-0.98849 0.71638,-0.59454 2.29931,0.0913 2.24168,0.97125 -0.0385,0.58865 -0.0503,0.58909 -0.20225,0.008 -0.20333,-0.77806 -1.09414,-0.7935 -1.93391,-0.0335 -0.56075,0.50748 -0.64513,0.51313 -0.64513,0.0432 z m -0.70556,-2.03815 c 0,-0.2587 0.10583,-0.36454 0.23519,-0.23519 0.12935,0.12936 0.12935,0.34102 0,0.47038 -0.12936,0.12935 -0.23519,0.0235 -0.23519,-0.23519 z m 1.41111,-1.41111 c 0,-0.2587 0.10583,-0.36454 0.23519,-0.23519 0.12935,0.12936 0.12935,0.34102 0,0.47037 -0.12936,0.12936 -0.23519,0.0235 -0.23519,-0.23518 z m 1.41111,-0.88195 c 0,-0.097 0.0794,-0.17638 0.17639,-0.17638 0.097,0 0.17639,0.0794 0.17639,0.17638 0,0.097 -0.0794,0.17639 -0.17639,0.17639 -0.097,0 -0.17639,-0.0794 -0.17639,-0.17639 z m 1.76389,11.46528 c 0,-0.19403 0.16935,-0.35278 0.37633,-0.35278 0.20698,0 1.22234,-0.7304 2.25637,-1.62311 2.08638,-1.80125 3.72552,-4.46216 3.70182,-6.00935 -0.0151,-0.98292 -0.028,-0.97565 -0.47156,0.26566 -0.76492,2.14053 -1.91939,3.71878 -4.34829,5.94442 -1.27724,1.17037 -2.14056,2.12794 -1.91847,2.12794 0.22209,0 0.4038,-0.15875 0.4038,-0.35278 z m 3.88056,-5.82083 c 0,-0.097 -0.0794,-0.17639 -0.17639,-0.17639 -0.097,0 -0.17639,0.0794 -0.17639,0.17639 0,0.097 0.0794,0.17639 0.17639,0.17639 0.097,0 0.17639,-0.0794 0.17639,-0.17639 z m -21.47666,-6.18233 c 1.92775,-0.39285 5.04831,-1.28256 6.93458,-1.97714 1.88627,-0.69457 4.76334,-1.6789 6.39349,-2.18739 2.42435,-0.75622 3.08275,-1.11878 3.61667,-1.99161 0.35902,-0.5869 0.57805,-1.26552 0.48674,-1.50806 -0.0913,-0.24253 -0.007,-0.44097 0.18823,-0.44097 0.4544,0 1.59716,-2.66748 2.42947,-5.67095 l 0.65034,-2.34683 -4.81491,-0.17772 c -4.19372,-0.15478 -5.24438,-0.32226 -8.14394,-1.29811 -4.29614,-1.44587 -8.7065,-3.60979 -11.40286,-5.59473 l -2.13994,-1.57534 -3.20574,0.78637 c -7.00134,1.71741 -11.862569,1.24329 -18.062359,-1.76164 -4.24225,-2.05615 -6.23805,-4.0296 -8.2057,-8.11383 -0.70107,-1.4552 -1.32405,-2.72061 -1.38439,-2.812 -0.26661,-0.4038 -0.81083,1.15454 -1.9002,5.44105 -1.05909,4.16742 -1.16976,5.08686 -1.16976,9.71818 v 5.11527 l 1.30552,2.73403 c 0.71804,1.50372 1.45285,2.73403 1.6329,2.73403 0.18005,0 0.52143,-0.46851 0.75862,-1.04114 1.05968,-2.5583 4.51402,-3.002 9.199,-1.18161 6.32914,2.45926 10.917379,7.10476 11.575219,11.71968 0.215,1.50832 0.31202,1.63005 1.46146,1.83371 2.96352,0.52509 10.29333,0.31087 13.79756,-0.40325 z m 15.59703,-8.34036 c 0.12935,-0.12935 0.34102,-0.12935 0.47037,0 0.12935,0.12936 0.0235,0.23519 -0.23519,0.23519 -0.2587,0 -0.36454,-0.10583 -0.23518,-0.23519 z m -34.829609,7.1462 c 0.56343,-1.46827 -3.48921,-5.86917 -6.99322,-7.59419 -1.22201,-0.60159 -3.04055,-1.19076 -4.0412,-1.30928 -1.63526,-0.19367 -1.9116,-0.12323 -2.73091,0.69607 -0.50135,0.50135 -0.91154,1.16043 -0.91154,1.46463 0,1.00191 2.79747,3.61191 5.25615,4.90391 3.9211,2.06048 8.95837,3.04372 9.42072,1.83886 z m -8.32687,-0.38462 c 0,-0.097 -0.0794,-0.17639 -0.17639,-0.17639 -0.097,0 -0.17639,0.0794 -0.17639,0.17639 0,0.097 0.0794,0.17639 0.17639,0.17639 0.097,0 0.17639,-0.0794 0.17639,-0.17639 z m -0.70556,-0.35278 c 0,-0.097 -0.0794,-0.17639 -0.17639,-0.17639 -0.097,0 -0.17638,0.0794 -0.17638,0.17639 0,0.097 0.0794,0.17639 0.17638,0.17639 0.097,0 0.17639,-0.0794 0.17639,-0.17639 z m -0.70555,-0.52917 c 0,-0.19402 -0.27781,-0.35034 -0.61736,-0.34737 -0.5276,0.005 -0.54042,0.0551 -0.0882,0.34737 0.66577,0.43026 0.70556,0.43026 0.70556,0 z m -1.76389,-0.88194 c 0,-0.097 -0.0794,-0.17639 -0.17639,-0.17639 -0.097,0 -0.17639,0.0794 -0.17639,0.17639 0,0.097 0.0794,0.17639 0.17639,0.17639 0.097,0 0.17639,-0.0794 0.17639,-0.17639 z m 46.818759,-19.93194 c 0.91838,-2.69553 1.00976,-5.18382 0.28055,-7.63935 -0.61666,-2.07651 -2.16074,-4.33515 -3.42186,-5.00541 -0.84669,-0.44999 -1.04114,-0.35321 -3.85194,1.9172 -1.62813,1.31511 -4.68489,3.50165 -6.79279,4.85898 -4.43414,2.85524 -4.48424,2.48927 0.68701,5.01923 3.49541,1.71008 9.12627,3.34678 11.08304,3.22147 1.1862,-0.076 1.26543,-0.16919 2.01599,-2.37212 z m 7.15623,1.19823 c 2.29548,-1.04742 3.78442,-2.35797 4.45232,-3.91888 1.00478,-2.34823 -0.82023,-7.01605 -3.50291,-8.95937 -0.77442,-0.56099 -1.28967,-1.01998 -1.14499,-1.01998 0.353,0 2.24593,1.31018 3.52241,2.438 l 1.03377,0.91339 -0.79704,-1.05834 c -1.41446,-1.87818 -4.75295,-3.70968 -6.73856,-3.69679 -0.42418,0.003 -0.43584,0.0626 -0.0588,0.30161 0.30986,0.19643 -0.0873,0.36104 -1.16396,0.4824 -0.89889,0.10131 -1.72201,0.27189 -1.82917,0.37904 -0.10716,0.10716 0.36526,1.31441 1.04982,2.68277 2.19419,4.38593 2.37467,7.23015 0.71173,11.21672 -0.26045,0.62436 -0.47353,1.23996 -0.47353,1.36801 0,0.44104 3.00266,-0.24509 4.93888,-1.12858 z m -1.94027,-14.25101 c -0.46523,-0.19991 -0.52531,-0.30979 -0.17639,-0.32258 0.29104,-0.0107 0.76729,0.13449 1.05833,0.32258 0.64487,0.41674 0.0879,0.41674 -0.88194,0 z m -33.91285,7.93328 c 1.30219,-1.30218 1.46341,-8.16113 0.28316,-12.04683 -0.99585,-3.27862 -1.28669,-3.50119 -3.66982,-2.80839 -4.171429,1.21267 -6.284519,4.44097 -6.549839,10.00659 -0.23893,5.01218 0.0116,5.22871 6.165119,5.32916 2.47264,0.0404 3.36407,-0.0732 3.77138,-0.48053 z m 8.49341,-2.4112 c 3.57238,-1.69225 8.46516,-4.86037 11.82679,-7.65794 l 2.18283,-1.81657 -0.79139,-0.8424 c -1.89252,-2.0145 -8.05868,-3.19343 -14.91808,-2.85225 -2.3038,0.11458 -4.2543,0.27391 -4.33443,0.35405 -0.0801,0.0801 0.25697,1.34528 0.74914,2.81143 0.95255,2.83759 1.21078,7.4584 0.57081,10.21424 -0.29282,1.26095 -0.26542,1.32291 0.58497,1.32291 0.49069,0 2.3489,-0.69006 4.12936,-1.53347 z m -21.493579,-2.78923 c 0.005,-2.93734 0.14808,-3.92392 0.76231,-5.26427 0.9165,-1.99993 3.16804,-4.51111 4.86325,-5.42404 0.68595,-0.36941 1.24718,-0.77504 1.24718,-0.90141 0,-0.12636 -0.51593,-0.44741 -1.14653,-0.71344 -4.1738,-1.76082 -9.99289,1.76219 -11.38101,6.89031 -0.70234,2.59463 -0.41747,4.0321 1.17384,5.92326 0.82486,0.98029 3.75752,3.10871 4.27902,3.10556 0.10753,-6.5e-4 0.19841,-1.62784 0.20194,-3.61597 z m 56.842369,-3.19631 c 0.19385,-4.56071 -0.0489,-5.29042 -2.15226,-6.47028 -1.84124,-1.03281 -5.15604,-1.61056 -6.51749,-1.13596 -0.84446,0.29438 -1.16514,0.74298 -1.73288,2.42416 l -0.69666,2.06293 1.75099,0.42006 c 3.35472,0.80478 7.35457,4.212 8.23207,7.01238 0.49526,1.58052 0.93852,-0.1323 1.11623,-4.31329 z m -3.40296,4.5204 c 0,-0.097 -0.0794,-0.17638 -0.17639,-0.17638 -0.097,0 -0.17639,0.0794 -0.17639,0.17638 0,0.097 0.0794,0.17639 0.17639,0.17639 0.097,0 0.17639,-0.0794 0.17639,-0.17639 z m -38.44388,-5.73757 c -0.22328,-1.30697 -0.64408,-2.77319 -0.9351,-3.25826 l -0.52913,-0.88194 0.2093,0.88194 c 0.11511,0.48507 0.47157,2.14427 0.79214,3.68712 0.69019,3.32178 1.04704,2.99109 0.46279,-0.42886 z m -13.086469,0.68967 c 0.0139,-0.45793 -0.12966,-0.71911 -0.32798,-0.59654 -0.19403,0.11992 -0.34162,0.80397 -0.32799,1.52013 0.02,1.0494 0.0836,1.16517 0.32799,0.59654 0.16675,-0.38806 0.31434,-1.07212 0.32798,-1.52013 z m -9.74804,-2.69404 c 0.21398,-1.31864 2.3946,-4.50351 4.01911,-5.87006 0.91072,-0.76611 1.97656,-1.29891 4.69315,-2.34605 l 0.8797,-0.3391 -1.10725,-0.57258 c -3.44437,-1.78115 -7.83994,-0.57303 -9.48427,2.60674 -0.59997,1.16022 -0.67565,4.50352 -0.14517,6.41369 0.45827,1.65015 0.88783,1.69044 1.14473,0.10736 z m 49.346489,-0.20722 c 1.76818,-2.37072 2.30837,-8.96397 1.06021,-12.94029 -0.77169,-2.45843 -2.08921,-4.88072 -3.20286,-5.88857 l -0.74212,-0.6716 v 1.47984 c 0,1.95293 -1.13761,4.11194 -2.5611,4.86056 -2.53325,1.33225 -7.39436,0.54796 -13.93066,-2.24754 l -2.90982,-1.2445 -5.79267,1.51843 -5.79267,1.51843 1.1479,1.34106 c 0.63134,0.73759 1.61059,2.28738 2.1761,3.44398 0.56551,1.15661 1.20145,2.04633 1.4132,1.97716 1.64066,-0.53589 7.93789,-0.96336 11.56718,-0.7852 8.83511,0.4337 14.35662,2.98554 15.4704,7.14984 0.47517,1.77662 1.03828,1.90778 2.09691,0.4884 z m 13.69578,-3.6925 c 0,-0.097 -0.0794,-0.17639 -0.17638,-0.17639 -0.097,0 -0.17639,0.0794 -0.17639,0.17639 0,0.097 0.0794,0.17639 0.17639,0.17639 0.097,0 0.17638,-0.0794 0.17638,-0.17639 z m -1.5125,-0.73787 c -0.54084,-0.29327 -1.81084,-0.60242 -2.82223,-0.687 l -1.83888,-0.15378 2.29306,0.6541 c 2.85897,0.81554 3.6415,0.87723 2.36805,0.18668 z m 1.67265,-2.70171 c -0.5383,-1.77897 -2.51287,-5.03105 -3.89216,-6.41035 -1.47055,-1.47055 -5.66857,-3.97402 -6.04042,-3.60218 -0.10874,0.10874 0.0576,0.73578 0.36969,1.39342 0.71426,1.50518 1.62955,5.34326 1.63642,6.86194 0.005,1.03587 0.0902,1.13191 0.84043,0.94362 1.03609,-0.26004 4.53384,0.36266 5.80407,1.0333 1.34834,0.71187 1.55324,0.67674 1.28197,-0.21975 z m -82.710139,-1.29221 c 4.55623,-0.97593 9.58111,-2.40209 19.4274,-5.51387 13.67802,-4.32275 32.564779,-9.31812 53.950369,-14.26937 22.76648,-5.27096 33.34478,-8.95072 41.96217,-14.5969 11.76794,-7.71046 17.30039,-18.42627 15.91999,-30.83547 -0.45986,-4.134 -1.03264,-6.81983 -6.37398,-29.8887 -4.86378,-21.00636 -8.55609,-35.67885 -10.08749,-40.0857 -2.85521,-8.21631 -7.67485,-15.99433 -13.53209,-21.83835 -11.8594,-11.83264 -28.26013,-16.89802 -52.05387,-16.07689 -12.76756,0.44062 -21.475409,1.60332 -32.378329,4.32328 -11.36157,2.83438 -20.06444,6.14346 -32.35639,12.3028 -12.28658,6.15666 -20.0657,11.38412 -26.47555,17.7912 -7.73541,7.73207 -12.5159,16.41597 -14.8490896,26.97381 -0.90747,4.10637 -1.28212,14.5238 -0.68398,19.01855 0.52643,3.95586 1.13732,6.67408 6.9509296,30.92879 9.04561,37.73877 10.83505,44.17434 13.55679,48.75571 1.86352,3.13676 6.03284,7.53424 8.93781,9.4269 2.62564,1.71067 6.99966,3.37291 10.74599,4.08374 3.80099,0.72121 12.85842,0.46027 17.33932,-0.49953 z m -14.14348,-44.6438 c -11.96172,-1.96278 -22.05069,-10.29696 -26.75074,-22.09794 -3.95668,-9.9345 -3.56148,-19.32234 1.21625,-28.89174 8.43196,-16.88855 29.40805,-23.76054 46.90991,-15.36819 7.03874,3.37516 12.41583,8.78701 15.67485,15.77617 2.95282,6.3325 3.73443,10.41197 3.45761,18.04649 -0.25708,7.09047 -1.7579,12.07598 -5.30416,17.61968 -2.67215,4.17723 -8.2625,9.18446 -12.8441,11.50435 -2.33936,1.18452 -2.27489,0.8613 0.0816,-0.40919 8.06876,-4.3502 14.47626,-12.19803 16.55599,-20.27761 1.70817,-6.63608 0.56126,-17.39417 -2.50237,-23.47239 -2.64234,-5.24238 -8.23626,-11.36685 -13.17916,-14.42913 -5.66595,-3.51022 -10.83124,-4.98028 -17.4625,-4.96988 -6.7623,0.0106 -11.68371,1.35741 -17.3595,4.7506 -5.16071,3.08526 -10.6424,9.80369 -12.78437,15.66872 -2.42317,6.63496 -2.98818,12.13434 -1.95414,19.0201 0.96759,6.4432 2.82391,10.75075 6.74493,15.65142 4.80458,6.00498 11.59188,10.04638 19.00308,11.31511 2.74977,0.47074 8.12156,0.61438 11.46528,0.30658 1.85098,-0.17039 2.2749,-0.14662 1.41111,0.0791 -2.30715,0.60294 -9.18633,0.7017 -12.37959,0.17773 z m 14.07733,-0.78345 c 0.25467,-0.10191 0.55894,-0.0894 0.67616,0.0279 0.11723,0.11723 -0.0911,0.2006 -0.46302,0.18529 -0.41096,-0.0169 -0.49456,-0.10052 -0.21314,-0.21314 z m 1.41112,-0.35278 c 0.25466,-0.10191 0.55893,-0.0894 0.67615,0.0279 0.11723,0.11723 -0.0911,0.20061 -0.46302,0.18529 -0.41096,-0.0169 -0.49456,-0.10052 -0.21313,-0.21314 z m 1.24207,-0.34697 c 0.12935,-0.12936 0.34102,-0.12936 0.47037,0 0.12935,0.12935 0.0235,0.23518 -0.23519,0.23518 -0.2587,0 -0.36453,-0.10583 -0.23518,-0.23518 z m 1.29352,-0.41086 c 0.29104,-0.17982 0.92604,-0.4331 1.41111,-0.56285 0.61294,-0.16396 0.72054,-0.13619 0.35277,0.091 -0.29104,0.17982 -0.92604,0.43311 -1.41111,0.56286 -0.61294,0.16395 -0.72054,0.13618 -0.35277,-0.091 z m -14.64028,-1.32448 c -3.23881,-0.77361 -5.24698,-1.44127 -7.05556,-2.34576 -7.98147,-3.99165 -13.91834,-11.52917 -15.91175,-20.20177 -0.67181,-2.92282 -0.76262,-9.76263 -0.16392,-12.34722 1.02988,-4.44602 1.06833,-4.53201 1.75053,-3.91463 1.23013,1.11326 2.85987,0.48505 2.85987,-1.10238 0,-1.08265 -1.48633,-1.82613 -2.30026,-1.15062 -0.443,0.36765 -0.40325,0.0708 0.19384,-1.44744 2.40009,-6.10296 6.49348,-10.62108 12.23414,-13.50356 4.47397,-2.24646 7.30978,-2.85977 13.15561,-2.84523 4.858,0.0121 5.28936,0.072 8.57641,1.19208 9.95123,3.39077 16.61023,10.6529 19.58662,21.36067 0.42492,1.5287 0.58836,3.53758 0.58836,7.23194 0,4.37991 -0.11876,5.49345 -0.82608,7.74592 -3.01124,9.58929 -10.1342,16.88989 -19.733,20.22514 -2.71067,0.94186 -3.62307,1.0812 -7.66314,1.17027 -2.52237,0.0556 -4.90362,0.0253 -5.29167,-0.0674 z m -0.70556,-32.19411 c 2.40006,-1.13725 4.47862,-3.23848 5.59502,-5.65607 1.04061,-2.25344 1.04156,-6.93198 0.002,-9.21541 -2.18548,-4.79992 -7.25809,-7.58199 -12.20035,-6.69125 -5.87409,1.05867 -9.80072,5.62771 -9.80072,11.40414 0,3.38753 0.829,5.34335 3.32365,7.84129 2.58863,2.59205 4.2265,3.25444 8.14163,3.29269 2.40413,0.0235 3.13578,-0.121 4.93888,-0.97539 z m 105.898579,28.17972 c -2.45708,-0.78268 -4.47479,-3.24017 -5.01216,-6.1046 -0.56943,-3.03531 1.4576,-6.86145 4.44159,-8.38377 1.7115,-0.87313 5.18466,-0.93335 6.89947,-0.11962 1.70504,0.80909 3.83979,3.36917 4.36063,5.22944 1.28006,4.57193 -2.51294,9.39672 -7.55162,9.60586 -1.17965,0.049 -2.59171,-0.0533 -3.13791,-0.22731 z m 7.12334,-2.40706 c 4.28663,-3.46945 2.82582,-9.84375 -2.60431,-11.3641 -1.74496,-0.48855 -3.29661,-0.24501 -5.21907,0.81918 -2.0319,1.12478 -2.88775,2.77027 -2.89061,5.5576 -0.002,2.00167 0.1337,2.49789 0.99125,3.62323 0.5465,0.71715 1.3936,1.56598 1.88245,1.88629 2.0796,1.3626 5.8193,1.11352 7.84029,-0.5222 z m -64.69136,0.39782 c -0.38806,-0.0831 -1.36761,-0.39054 -2.17679,-0.68308 -1.782289,-0.64436 -2.501199,-2.07167 -1.653239,-3.2823 0.62031,-0.88562 1.680989,-0.93909 3.505569,-0.17673 2.47561,1.03438 4.89929,0.11473 6.14792,-2.33279 0.58072,-1.1383 0.90696,-1.40595 1.71375,-1.40595 1.08887,0 2.16417,0.94103 2.16417,1.89392 0,1.16816 -1.44574,3.41841 -2.84967,4.43541 -1.86338,1.34983 -4.7464,2.00267 -6.85171,1.55152 z m 38.54096,-14.81726 c 0.24254,-0.0979 0.63941,-0.0979 0.88195,0 0.24253,0.0979 0.0441,0.17793 -0.44097,0.17793 -0.48507,0 -0.68351,-0.0801 -0.44098,-0.17793 z m -6.79097,-0.68407 c -6.0917,-1.45669 -10.49698,-3.52775 -14.88626,-6.99852 -3.95335,-3.12607 -6.7487,-6.60944 -9.30954,-11.60094 -3.01063,-5.86819 -3.91905,-9.51273 -3.97237,-15.937 -0.0707,-8.51351 1.92764,-14.73397 6.87981,-21.41612 4.29253,-5.79205 11.2112,-10.35581 18.64253,-12.29719 4.17955,-1.09187 11.80087,-1.34763 15.90956,-0.5339 6.23449,1.23476 11.70233,3.65257 16.59115,7.33641 10.95435,8.25435 15.56658,22.07966 12.06996,36.18012 -2.09321,8.44109 -7.80163,16.177 -15.25907,20.67873 -3.03583,1.83261 -8.09738,3.89412 -10.43799,4.2513 -0.77611,0.11843 -0.0617,-0.19158 1.5875,-0.6889 11.30797,-3.40992 19.68189,-11.44049 22.98771,-22.04517 0.73026,-2.3426 0.82199,-3.31294 0.80038,-8.46667 -0.0222,-5.2929 -0.11163,-6.10627 -0.98608,-8.96799 -1.82935,-5.98669 -4.58784,-10.61504 -8.84728,-14.84451 -8.2077,-8.14992 -19.05221,-12.14351 -29.27964,-10.78249 -13.60515,1.81051 -23.46637,10.51211 -27.43101,24.20529 -0.72159,2.49226 -0.81003,3.5326 -0.79332,9.33137 0.0175,6.06471 0.0863,6.74591 0.97336,9.62963 2.21547,7.20254 6.69273,13.35563 12.75127,17.52401 4.05892,2.79261 10.3809,5.07105 15.59997,5.62221 2.75073,0.2905 2.75274,0.29146 0.6427,0.30894 -1.16417,0.01 -3.06917,-0.21023 -4.23334,-0.48861 z m 9.26042,0.30973 c 0.63059,-0.0783 1.66246,-0.0783 2.29305,0 0.63059,0.0783 0.11466,0.14228 -1.14652,0.14228 -1.26118,0 -1.77712,-0.064 -1.14653,-0.14228 z m 4.06366,-0.34205 c 0.34324,-0.0894 0.81949,-0.0836 1.05833,0.0131 0.23884,0.0966 -0.042,0.16982 -0.62407,0.16263 -0.58209,-0.007 -0.7775,-0.0863 -0.43426,-0.1757 z m -10.38514,-2.9387 c -9.18178,-1.54942 -16.9472,-7.61709 -20.9286,-16.35299 -3.91637,-8.59322 -3.14076,-19.57655 1.99023,-28.18371 3.23329,-5.42379 6.98038,-8.88975 12.14014,-11.22929 3.97782,-1.80363 7.20515,-2.47063 11.97318,-2.47452 5.0937,-0.004 8.50145,0.77168 12.7,2.8914 15.66532,7.90894 20.83911,27.70628 11.06102,42.32468 -6.34762,9.48979 -18.21847,14.83301 -28.93597,13.02443 z m 0.97858,-32.10907 c 2.55901,-1.23372 5.18562,-4.01797 5.98748,-6.34683 3.08902,-8.97148 -4.56108,-17.13911 -13.72879,-14.65753 -5.91593,1.60137 -9.54669,7.89215 -7.87463,13.64386 1.08636,3.73693 3.70882,6.56722 7.2887,7.86631 2.24328,0.81406 6.07191,0.5815 8.32724,-0.50581 z m -18.4066,-8.30101 c 1.09823,-1.09823 0.36596,-2.97341 -1.16114,-2.97341 -0.63866,0 -1.4595,1.09553 -1.4595,1.94794 0,1.38438 1.62562,2.02049 2.62064,1.02547 z m -88.966219,-5.08817 c -2.73128,-1.66529 -3.28188,-4.93158 -1.31078,-7.77587 1.19712,-1.72745 6.57507,-6.46855 8.22747,-7.2532 1.7413,-0.82686 3.45985,-0.38519 5.0644,1.30154 0.722,0.75898 1.4841,2.0164 1.69356,2.79426 0.58625,2.17719 -0.21489,3.43187 -4.37327,6.84906 -6.22486,5.11534 -7.0302,5.46896 -9.30138,4.08421 z m 102.926139,-30.57789 c -2.61938,-0.47737 -5.13295,-1.10791 -5.58572,-1.4012 -2.16207,-1.40052 -2.29545,-5.23228 -0.25947,-7.45392 1.03009,-1.12402 1.38466,-1.27764 3.23642,-1.40223 2.61377,-0.17586 8.94124,1.0363 11.03381,2.11376 2.10244,1.08254 2.95179,2.67363 2.76342,5.17675 -0.12098,1.6076 -0.32154,2.07012 -1.262,2.91042 -0.96783,0.86476 -1.3901,0.99405 -3.14106,0.96171 -1.1126,-0.0205 -4.16603,-0.42793 -6.7854,-0.90529 z m -32.03783,147.27578 c -0.39659,-0.6408 -1.17856,-1.60271 -1.737689,-2.13758 -0.9113,-0.87175 -1.18796,-0.94901 -2.67055,-0.7458 -0.90966,0.12468 -1.65393,0.33251 -1.65393,0.46183 0,0.12933 0.75406,0.50972 1.67569,0.84532 0.92164,0.3356 2.39007,1.13976 3.263199,1.78701 0.87312,0.64725 1.64529,1.12675 1.71593,1.06556 0.0706,-0.0612 -0.19605,-0.63555 -0.59265,-1.27634 z m 25.13512,-8.08829 c 0.32023,-0.80033 0.5029,-1.53447 0.40594,-1.63143 -0.097,-0.097 -1.4562,0.0816 -3.02054,0.39681 -1.56433,0.31521 -3.23789,0.5731 -3.71902,0.5731 -1.63866,0 -0.8804,0.59787 1.68286,1.32689 3.75237,1.06722 3.96997,1.03609 4.65076,-0.66537 z M 21.663621,-200.7866 c -0.67492,-1.09204 -9.21283,-34.82252 -13.2125796,-52.19854 -0.82626,-3.58951 -1.6168,-6.73852 -1.75675,-6.99779 -0.18059,-0.33457 -0.82952,0.16406 -2.23555,1.71778 -8.89235,9.82636 -9.18685,30.22776 -0.6491,44.96592 2.16959,3.74524 7.4591096,9.10678 10.5986996,10.74302 3.23543,1.6862 7.9081,2.82589 7.25528,1.76961 z m 183.828139,-52.75344 c 6.63145,-6.40893 8.74893,-16.84426 5.95093,-29.32729 -2.49528,-11.13251 -8.32912,-19.79085 -16.28058,-24.16294 -2.3535,-1.29406 -6.62486,-2.69528 -7.01792,-2.30221 -0.1125,0.1125 1.07517,5.49449 2.63928,11.95998 4.96312,20.51577 10.62818,45.42892 10.62818,46.73933 0,0.41888 2.43099,-1.31308 4.08011,-2.90687 z"
       id="path294" /></g></svg>
