<?xml version="1.0" encoding="UTF-8" standalone="no"?>
<!-- Created with Inkscape (http://www.inkscape.org/) -->

<svg
   width="253.56953mm"
   height="302.79221mm"
   viewBox="0 0 253.56955 302.79217"
   version="1.1"
   id="svg1"
   xml:space="preserve"
   xmlns="http://www.w3.org/2000/svg"
   xmlns:svg="http://www.w3.org/2000/svg"><defs
     id="defs1"><clipPath
       clipPathUnits="userSpaceOnUse"
       id="clipPath6"><path
         id="path7"
         style="fill:#ff0000;fill-opacity:1;fill-rule:nonzero;stroke:none;stroke-width:0.264583"
         d="M -175.07778,-16.057127 V 287.55793 H 124.54631 V -16.057127 Z m 132.7459,202.572647 c 0.210643,0.005 0.427212,0.0169 0.650089,0.0367 2.23823,0.19855 4.475655,0.4031 6.717938,0.55346 1.973313,0.11308 0.986628,0.0436 2.958475,0.20825 3.181295,0.26563 4.740125,1.85116 4.950601,3.46956 4.949923,1.63749 3.796379,7.35609 -2.592089,6.81354 -3.228716,-0.27422 -1.569593,-0.1301 -4.979024,-0.43357 -4.228209,-0.39317 -8.460616,-0.76265 -12.666927,-1.35341 -6.647387,-0.93358 -5.930551,-7.21034 0.03204,-7.20421 0.04685,5e-5 0.0972,0.004 0.144695,0.005 0.687229,-1.21692 2.304132,-2.15435 4.784204,-2.09548 z" /></clipPath><clipPath
       clipPathUnits="userSpaceOnUse"
       id="clipPath76"><path
         id="path77"
         style="fill:#ff0000;fill-opacity:1;fill-rule:nonzero;stroke:none;stroke-width:0.264583"
         d="M -133.83107,-122.52355 V 173.82063 H 122.97289 V -122.52355 Z M 13.574404,98.948202 c 2.788179,0.0507 4.135003,2.063798 3.398242,4.077268 0.199805,0.45372 0.374906,0.96736 0.517797,1.54461 1.07913,4.35948 0.671079,8.891 0.311608,13.31495 -0.351859,3.06036 -0.147137,1.57974 -0.604097,4.44366 -0.359666,2.25418 -1.333846,3.66838 -2.455664,4.32532 0.105138,0.36595 0.224724,0.72888 0.324528,1.09554 0.6273,2.23652 0.575201,4.47401 0.39429,6.75514 -0.137303,1.73129 -0.688065,2.99533 -1.427303,3.82199 -0.112477,0.41601 -0.170275,0.80219 -0.311092,1.25212 -0.184975,0.59102 -0.413327,1.1061 -0.670242,1.55856 0.741137,-0.23134 1.446982,-0.38145 2.064991,-0.37517 4.085002,0.0415 5.222724,4.75435 -0.02223,7.27138 -4.46677,2.14368 -9.303523,3.34693 -14.11903492,4.40955 -4.40876268,0.85156 -8.89238128,1.33053 -13.38264308,1.19269 -5.804014,-0.17807 -6.736297,-5.00293 -3.065447,-6.67298 -2.072987,-0.65744 -4.042852,-1.62261 -4.128947,-3.14709 -0.02802,-0.49633 0.0026,-0.90355 0.0341,-1.30897 -1.976731,-0.003 -3.95339,2.4e-4 -5.930386,0.003 -0.814031,0 -1.53062,-0.0962 -2.159559,-0.26149 -0.376306,0.19492 -0.742394,0.40783 -1.120862,0.59893 -6.391272,3.22657 -9.625245,-3.24074 -3.234428,-6.46886 1.833438,-0.92611 3.62694,-1.92211 5.414142,-2.92954 -0.877003,-3.87058 -1.368747,-7.83436 -1.323951,-11.80858 0.01651,-1.46304 0.376836,-2.54918 0.864547,-3.41426 -1.247357,-1.79999 -0.223805,-4.63069 3.842661,-5.68855 3.11826,-0.81116 6.282901,-1.39515 9.473837,-1.82211 -1.259816,-0.12657 -2.516182,-0.30233 -3.764627,-0.50177 -1.477002,-0.21985 -2.935575,-0.54305 -4.407482,-0.7891 -1.14214,-0.22954 -0.588502,-0.12004 -1.660882,-0.3297 -3.350244,-0.65501 -4.783278,-2.61088 -4.608504,-4.32997 -0.200179,-1.7721 1.333365,-3.52972 4.663799,-3.59461 v -5.3e-4 c 0.20954,-0.004 0.426035,-0.002 0.649571,0.008 1.77111,0.0772 3.528708,0.28204 5.26428,0.64027 1.655035,0.33225 3.314115,0.6481 4.955251,1.04439 1.244759,0.34858 2.51628,0.54538 3.7997689,0.6723 0.025956,0.002 0.052073,0.002 0.078034,0.004 0.4990888,-0.0371 0.9984105,-0.0743 1.4965495,-0.11317 1.346872,-0.12588 2.6913231,-0.25136 4.0457464,-0.24236 1.1278499,-0.0444 2.2567291,-0.10772 3.37498791,-0.26872 0.75719517,-0.11591 1.51142439,-0.25483 2.25722659,-0.4284 0.3616431,-0.12394 0.7240561,-0.24538 1.083138,-0.37775 0.3360393,-0.12388 0.6107589,-0.12825 0.9250071,-0.20723 0.1281086,-0.045 0.2583895,-0.0825 0.3855085,-0.13074 1.9825018,-0.7681 3.9540551,-1.56464 5.9510551,-2.29443 1.050809,-0.383992 1.999634,-0.542639 2.826703,-0.527616 z M 0.70283723,110.39557 c -0.45566013,0.0949 -0.90775367,0.208 -1.36890919,0.2744 -1.16638124,0.15534 -2.34111274,0.24237 -3.51761424,0.26251 0.4031694,0.0896 0.8047355,0.18876 1.2025101,0.308 0.1014836,0.0304 0.1982549,0.075 0.2986907,0.10852 0.4205235,-0.21824 0.9206601,-0.35072 1.4898318,-0.37156 0.39885139,-0.0146 0.83259872,0.0278 1.29449508,0.13023 0.22468681,-0.12213 0.44967525,-0.24374 0.67437529,-0.36587 -0.0326284,-0.11319 -0.058211,-0.22834 -0.0733795,-0.34623 z m 10.24433577,1.02474 c -0.76023,0.21437 -1.5189569,0.4343 -2.2696301,0.68006 -0.031261,0.62207 -0.2256075,1.28373 -0.6464723,1.94355 0.6236891,0.43248 1.2549743,1.04482 1.8634525,1.86862 0.2674939,0.36214 0.4748849,0.75712 0.7188199,1.13223 0.154519,-1.86707 0.314174,-3.74736 0.33383,-5.62446 z m 64.566086,3.39773 c 1.50346,0.0187 3.129182,1.24994 3.928441,4.04678 0.257931,0.90255 0.823497,1.65871 1.488797,2.30735 0.856321,0.95375 1.845738,1.76777 2.801898,2.61638 1.458581,1.46408 2.789203,3.04608 4.169772,4.58215 1.315059,1.44746 2.571226,2.91698 3.543967,4.61884 0.0053,0.01 0.0082,0.0206 0.01344,0.0305 0.734605,-0.43313 1.446276,-0.65634 2.094962,-0.69195 3.016182,-0.16561 4.69137,3.55377 1.187525,7.32306 -1.69471,1.82311 -3.657862,3.33908 -5.68751,4.7651 -0.777873,0.49914 -1.607691,0.90075 -2.418456,1.33842 0.165478,1.44344 -0.672182,3.24303 -2.956409,4.73096 -1.354556,0.88234 -2.690448,1.79306 -4.075203,2.6288 -2.075008,1.20078 -4.233777,2.27962 -6.540687,2.96259 -2.077586,0.62971 -4.169056,1.29987 -6.359301,1.36374 -1.872114,0.0897 -3.746989,0.0368 -5.620845,0.0501 h -5.1108 -5.524728 c -7.160125,0 -7.160125,-7.23315 0,-7.23315 h 1.347722 c 0.29438,-0.0541 0.5212,-0.1588 0.84801,-0.18656 1.106628,-0.094 2.200932,-0.28334 3.292822,-0.48421 0.456121,-0.98163 1.356053,-1.98213 2.807581,-2.83962 1.078018,-0.63685 2.158119,-1.26923 3.212209,-1.94561 1.962647,-1.29302 3.840588,-2.72135 5.893696,-3.86902 1.367169,-0.76424 2.559646,-1.07097 3.526915,-1.04128 2.216811,0.068 3.246223,1.90266 2.479953,4.04059 1.105688,-0.48686 2.206929,-0.98346 3.283003,-1.53739 2.619811,-1.23728 5.288743,-2.38548 7.764385,-3.9026 0.246153,-0.17184 0.487463,-0.34958 0.730705,-0.52503 -0.126915,-0.50614 -0.277693,-0.9939 -0.512114,-1.46554 -0.647621,-1.25778 -1.721077,-2.20654 -2.600875,-3.29644 -1.199229,-1.33472 -2.369312,-2.69496 -3.592029,-4.00803 -1.098706,-0.97599 -2.227236,-1.92181 -3.215306,-3.01428 -1.300821,-1.39063 -2.459913,-2.93896 -3.045293,-4.77801 -1.289469,-4.05101 0.646382,-6.61405 2.843754,-6.58667 z m -95.086705,4.28035 c -0.465643,0.10748 -0.930899,0.21773 -1.394745,0.33435 0.171958,0.64334 0.283575,1.36624 0.279569,2.2071 -0.01267,2.6582 0.205063,5.32647 0.670242,7.94732 0.280107,-0.17087 0.565767,-0.33222 0.845429,-0.50385 -0.01897,-0.36223 -0.02445,-0.73164 -0.05529,-1.08985 -0.118034,-2.96491 -0.160888,-5.93314 -0.3452,-8.89507 z m 18.5141159,1.1958 c 0.00497,0.0773 0.00619,0.15612 0.014975,0.23202 -0.1238779,0.22787 -0.2588048,0.44752 -0.3937741,0.66715 0.58900751,0.0447 1.13203305,0.21413 1.64331124,0.45888 -0.37615284,-0.49255 -0.78353709,-0.94642 -1.26452314,-1.35805 z m -6.5422357,14.57068 c -0.046649,0.0755 -0.09888,0.14702 -0.1436608,0.22376 -0.03147,0.054 0.1963367,0.0838 0.1860365,0.0222 -0.017595,-0.10481 -0.026035,-0.14905 -0.042376,-0.24597 z m 13.9236979,6.08439 c -0.2236258,0.5643 -0.5677508,1.09664 -1.1782213,1.50533 0.9079653,0.17659 1.7077452,0.44257 2.2830631,0.84852 0.1405493,-0.0459 0.272804,-0.11448 0.4128956,-0.16174 -0.7336976,-0.43656 -1.2984269,-1.18703 -1.5177374,-2.19211 z" /></clipPath><clipPath
       clipPathUnits="userSpaceOnUse"
       id="clipPath127"><path
         id="path128"
         style="fill:#ff0000;fill-opacity:1;fill-rule:nonzero;stroke:none;stroke-width:0.264583"
         d="M -112.24796,-126.55676 V 185.58027 H 148.5754 V -126.55676 Z M 46.874626,83.305366 c 1.808208,0 3.616317,1.790192 3.616317,5.370214 v 5.232238 c 0.0627,2.146078 -0.111291,4.285324 -0.245462,6.424932 -0.136289,2.02485 -0.190703,4.04985 -0.104904,6.07715 0.192061,1.91863 0.527714,3.82569 0.876432,5.72213 0.304242,2.00862 0.765826,3.9858 1.180806,5.97276 0.41642,1.86142 0.967934,3.68703 1.421104,5.53972 0.25287,0.86996 0.117097,0.46495 0.396356,1.22008 0.186108,0.50319 0.223428,0.93098 0.309544,1.38441 4.425355,2.23251 2.751262,7.58433 -3.415813,6.40477 -3.104732,-0.59371 -6.256094,-0.76586 -9.40821,-0.85576 -3.81635,0.009 -7.630525,0.17062 -11.44478,0.28216 -1.12776,0.0333 -2.255837,0.0512 -3.383772,0.0754 -0.908129,0.5548 -1.966518,0.57724 -2.88613,0.0641 -0.03584,5.3e-4 -0.07165,0.002 -0.107487,0.003 -0.03142,5.3e-4 -0.0525,-0.009 -0.08268,-0.009 -0.32049,0.14732 -0.641715,0.29301 -0.962215,0.44028 -0.262501,0.12062 -0.518089,0.22111 -0.770496,0.31265 -0.876996,0.71434 -1.945576,0.85817 -2.911967,0.46405 -2.943479,-0.21613 -4.295167,-2.77187 -2.550232,-5.0524 -2.22e-4,-0.028 -0.0078,-0.0483 -0.0078,-0.0765 v -6.3469 c -0.014,-2.72977 -0.02254,-5.45666 0.112657,-8.18348 0.135676,-2.32533 0.233519,-4.6523 0.299723,-6.98046 0.046,-1.80459 0.06926,-3.60958 0.08527,-5.41465 -0.0258,-1.02998 0.04009,-2.054459 0.138491,-3.078883 0.0044,-0.04602 0.02191,-0.07504 0.02687,-0.120406 C 15.992671,97.193438 15.83363,95.70984 16.656834,94.418959 10.68718,93.678613 10.992573,87.32947 17.739972,87.32947 h 3.885033 5.177462 5.913334 c 1.498505,0.05847 2.984222,-0.03228 4.475178,-0.161748 1.252041,-0.18606 2.49041,-0.398671 3.697968,-0.782897 1.001961,-0.32245 0.492366,-0.161472 1.527553,-0.482142 0.510384,-0.158096 0.938446,-0.174371 1.394749,-0.23771 0.672338,-1.56932 1.86623,-2.35903 3.063377,-2.35903 z" /></clipPath><clipPath
       clipPathUnits="userSpaceOnUse"
       id="clipPath139"><path
         id="path140"
         style="fill:#ff0000;fill-opacity:1;fill-rule:nonzero;stroke:none;stroke-width:0.264583"
         d="M 97.168006,-339.91235 V -44.578961 H 346.46958 V -339.91235 Z m 14.326254,94.53944 c 1.76488,0.006 3.77708,1.78446 4.35839,5.31699 0.32911,1.99994 0.60308,4.00817 0.88884,6.01462 1.02527,-1.2445 2.22305,-1.83589 3.28403,-1.8402 2.05627,-0.008 3.59454,2.17302 2.34611,6.00222 -0.0197,0.0606 -0.0413,0.12046 -0.0615,0.18087 0.31698,0.91799 0.41757,2.09982 0.17777,3.54139 -0.2164,1.30085 -0.62011,2.56457 -1.0263,3.8163 -1.34183,4.13496 -4.42238,4.92072 -6.12882,3.38016 -1.93867,0.62007 -4.30523,-0.86149 -4.65605,-4.82762 -0.16862,-1.90632 -0.33891,-3.81275 -0.57464,-5.71231 -0.45291,-3.52522 -1.07719,-7.02592 -1.48208,-10.55543 -0.40801,-3.55672 1.10935,-5.32303 2.87424,-5.31699 z" /></clipPath><clipPath
       clipPathUnits="userSpaceOnUse"
       id="clipPath170"><path
         id="path171"
         style="fill:#ff0000;fill-opacity:1;fill-rule:nonzero;stroke:none;stroke-width:0.264583"
         d="M 88.756261,-299.52331 V 17.880567 H 410.91541 V -299.52331 Z M 363.24287,-220.863 c 0.90345,-0.008 1.97628,0.23856 3.18532,0.82218 3.39402,1.63831 6.49674,3.81197 9.57823,5.96449 3.22509,2.31448 6.37511,4.73585 9.43663,7.26261 1.87296,1.50796 3.75989,2.99047 5.54284,4.6054 1.76167,1.54167 3.42262,3.17283 4.95419,4.94388 1.19316,1.48882 2.47049,2.9032 3.73311,4.33204 1.08043,1.20022 2.09423,2.45631 2.94299,3.83026 0.82616,1.73429 1.48968,3.55524 1.93786,5.42344 1.67031,6.96258 -5.76469,8.62686 -7.05745,1.5844 -0.21127,-1.15093 -0.75649,-2.20765 -1.10278,-3.32021 -0.52141,-1.02678 -1.43909,-1.82952 -2.14042,-2.72904 -1.28368,-1.45272 -2.58234,-2.89095 -3.79617,-4.40386 -1.32794,-1.55409 -2.79577,-2.95456 -4.33049,-4.3031 -1.69875,-1.54267 -3.51006,-2.94207 -5.29113,-4.38733 -2.90883,-2.40671 -5.90918,-4.70386 -8.97258,-6.91017 -2.63017,-1.83963 -5.2759,-3.68008 -8.12096,-5.17746 -5.14813,-2.7095 -4.41412,-7.50431 -0.49919,-7.53753 z m -17.79788,14.64304 c 0.81097,-0.004 1.74701,0.16947 2.79104,0.57154 4.59168,1.76834 8.99191,4.00303 13.38523,6.20892 0.37082,0.1876 0.72266,0.4088 1.09088,0.601 0.4155,-0.11565 0.91038,-0.17484 1.48572,-0.16691 0.65984,0.009 1.42523,0.10601 2.29753,0.30644 2.35556,0.54125 4.30075,1.95473 6.16344,3.42614 -1.07651,-2.72314 0.34142,-4.84679 2.57866,-4.84311 1.28683,0.002 2.83083,0.70484 4.29689,2.3952 2.44776,2.82227 4.79147,5.70892 6.96391,8.74934 1.67944,2.35043 1.72027,4.43615 0.89969,5.70663 1.5344,1.02281 3.07247,2.04019 4.58422,3.09645 1.80695,1.14136 3.31928,2.58833 4.72631,4.18269 0.96689,1.16625 2.0869,2.25988 2.79262,3.61942 0.19542,0.37651 0.34592,0.77482 0.51882,1.1622 0.40259,1.55462 0.27207,0.76263 0.38706,2.3766 0.0637,0.89436 -0.044,1.45412 -0.26977,1.7756 0.11753,0.20753 0.23421,0.41574 0.35608,0.62063 3.66003,6.15399 -2.6856,9.845 -6.25234,3.63648 -0.83209,-1.44832 -1.62388,-2.92102 -2.35437,-4.42351 -0.84839,-1.84687 -1.70402,-3.69055 -2.54093,-5.54229 -0.078,-0.17246 -0.14713,-0.34128 -0.2119,-0.5085 -0.415,-0.33988 -0.82071,-0.68775 -1.29707,-0.97255 -2.35545,-1.64933 -4.79565,-3.17384 -7.14841,-4.82761 -3.27895,-2.27743 -6.61384,-4.47194 -9.95804,-6.65231 -4.00886,-2.60003 -8.08797,-5.09434 -12.3548,-7.25434 -4.08429,-2.05175 -8.1752,-4.1242 -12.42663,-5.81101 -5.61546,-2.22804 -4.88331,-7.4129 -0.50384,-7.43314 z m -225.34594,21.50101 c 3.05551,-0.16929 4.03285,3.80875 0.35915,7.72563 -1.17612,1.25397 -2.32696,2.59265 -3.45922,3.90674 -1.44062,1.57315 -2.77631,3.23874 -4.13618,4.88135 -1.14319,1.4697 -2.29319,2.93265 -3.46335,4.38113 -0.8717,1.2084 -1.86054,2.32105 -2.81017,3.46594 -0.80685,0.95022 -1.53489,1.96075 -2.32234,2.92695 -0.80594,1.00684 -1.52017,2.08004 -2.22519,3.15847 -0.20511,0.28103 -0.29499,0.51935 -0.30179,0.78909 -0.18033,7.15787 -8.659963,5.5717 -7.093102,-1.4149 0.267098,-1.19094 0.644303,-2.32859 1.347721,-3.34243 0.846108,-1.28566 1.701136,-2.56663 2.670121,-3.76463 0.806525,-0.98525 1.5446,-2.0236 2.37453,-2.98999 0.93132,-1.109 1.88214,-2.2008 2.7342,-3.37448 1.18855,-1.47082 2.35327,-2.95822 3.51813,-4.44779 1.39067,-1.67946 2.758,-3.38112 4.2292,-4.99142 1.55862,-1.80675 3.07205,-3.68494 4.92528,-5.20227 1.38505,-1.13397 2.63451,-1.65096 3.65301,-1.70739 z m 30.4953,3.26389 c 4.11093,0.0973 5.25218,4.81763 -0.0434,7.22591 -1.93926,0.8819 -3.80509,1.88928 -5.66115,2.92437 0.381,1.39299 -0.23993,3.26566 -2.43035,4.98678 -2.3369,1.83618 -4.71607,3.61825 -7.08845,5.40845 -2.84267,2.19936 -5.66068,4.43162 -8.41086,6.74584 -2.22216,1.84972 -4.46469,3.67225 -6.66213,5.55109 -1.67979,1.46598 -3.37138,2.91821 -5.06067,4.37337 -1.40892,1.30469 -2.82191,2.592 -4.12274,4.00648 -1.07181,1.16531 -2.16701,1.83049 -3.17087,2.10529 -0.88357,6.53411 -7.65001,5.87099 -7.10344,-1.07177 0.0596,-0.75732 0.12015,-1.51435 0.21239,-2.26859 0.18237,-1.4495 0.31176,-2.90657 0.57051,-4.34444 0.56059,-2.2771 1.55106,-4.35314 3.32124,-5.95312 1.46716,-1.38711 2.94871,-2.75912 4.4943,-4.05919 1.45063,-1.21601 2.91967,-2.40825 4.4111,-3.57394 2.2284,-1.75259 4.48249,-3.46927 6.81044,-5.08961 3.1083,-2.16601 6.29001,-4.21936 9.5343,-6.17689 3.28252,-2.04598 6.49796,-4.19789 9.78648,-6.23476 2.38673,-1.38679 4.82146,-2.65715 7.33495,-3.79873 1.22236,-0.55516 2.32966,-0.77899 3.27836,-0.75654 z" /></clipPath><clipPath
       clipPathUnits="userSpaceOnUse"
       id="clipPath233"><path
         id="path234"
         style="fill:#ff0000;fill-opacity:1;fill-rule:nonzero;stroke:none;stroke-width:0.264583"
         d="M 185.24069,-319.24193 V -24.289387 H 425.09684 V -319.24193 Z m 138.35487,149.6534 c 1.78419,7.9e-4 3.63037,1.79012 3.80182,5.36608 0.0643,1.33996 -0.0719,2.65433 -0.29041,3.95842 0.27255,-0.0735 0.56767,-0.11689 0.88522,-0.12351 0.37047,-0.008 0.77026,0.0328 1.19579,0.12867 0.38629,-0.24279 0.8215,-0.42195 1.34254,-0.44493 1.13073,-0.0499 2.53823,0.47335 4.04474,1.80971 0.4186,0.37135 0.80759,0.77178 1.2056,1.16323 0.49581,-0.30652 1.09744,-0.47283 1.77559,-0.44028 1.18851,0.0571 2.59295,0.69888 3.98788,2.15129 2.63375,2.74227 4.82211,5.85047 6.92256,9.00669 2.43144,3.88376 4.79634,7.81591 6.98098,11.84475 1.13959,2.01485 2.36363,3.97199 3.24527,6.11746 0.86638,2.54168 0.71525,4.37292 -0.15348,6.88278 -0.88855,2.03627 -2.18951,3.83746 -3.64937,5.49682 -1.22616,1.21887 -2.44396,2.51198 -3.976,3.35587 -0.38219,0.21053 -0.79187,0.3659 -1.18803,0.54881 -6.50071,3.00135 -9.83602,-5.23462 -2.81948,-6.6611 1.07346,-0.21823 1.75532,-1.41088 2.56987,-2.0407 0.86323,-0.96375 1.62015,-2.00233 2.25208,-3.13417 0.24334,-0.63932 0.47847,-1.05078 0.24958,-1.76114 -0.42873,-1.13152 -1.03555,-2.17502 -1.65674,-3.21169 -0.64492,3.08426 -3.96214,3.78517 -6.03631,0.97152 -0.80928,1.85722 -3.53859,2.62684 -6.75775,0.30902 -0.53872,-0.38787 -1.07831,-0.77486 -1.61745,-1.1622 -3.08248,4.62545 -3.94671,5.04673 -6.74584,2.87063 -2.73204,-2.16473 -5.33615,-4.48821 -8.05999,-6.6642 -2.7461,-2.45053 -5.40757,-5.07957 -7.04763,-8.42635 -1.62115,-0.12575 -3.24178,-0.2569 -4.86637,-0.34314 -7.58719,-0.44787 -15.17743,-0.9445 -22.76553,-1.33377 -1.07801,-0.0553 -1.93227,-0.3045 -2.68459,-0.62166 -0.57677,0.62929 -1.1192,1.29485 -1.64021,1.97352 -1.38696,2.1585 -2.2854,4.54313 -3.09181,6.96185 -0.53658,1.90527 -0.93866,3.84574 -1.3658,5.77949 0.3976,-0.38181 0.79402,-0.76498 1.19114,-1.14825 1.44902,-1.39846 2.84121,-1.97983 3.98373,-1.97766 2.91995,0.006 4.20899,3.82009 0.64648,7.53391 -0.92629,0.96557 -1.9114,1.86859 -2.9099,2.75797 -1.78302,1.58814 -3.50499,2.03887 -4.81263,1.76372 -0.007,0.0412 -0.0189,0.0812 -0.0253,0.12247 -0.31138,2.1774 -0.34632,4.38158 -0.39739,6.57686 0.006,3.5147 -0.15426,7.02208 -0.44287,10.52391 -0.15049,2.45352 -0.52882,4.882887 -0.77928,7.326166 -0.25682,2.270699 -0.2357,4.548968 -0.1633,6.828007 0.0525,1.43787 0.0261,0.723201 0.0775,2.145088 7.9e-4,0.02175 -0.006,0.03573 -0.006,0.05736 0.13966,0.0486 0.27673,0.09115 0.42013,0.148309 3.73047,1.486969 7.59999,2.598727 11.41894,3.833876 4.85884,1.705695 9.66861,3.546912 14.50144,5.32474 1.9552,0.651698 3.84707,1.443672 5.71489,2.292366 2.6308,-0.638411 5.26049,-1.281708 7.89771,-1.893425 4.5737,-1.075436 2.35597,-0.547624 6.65438,-1.580782 0.65268,-0.156879 1.2592,-0.237268 1.81642,-0.252698 3.40876,-0.09437 4.96226,2.238663 4.05712,4.350639 3.89832,1.612736 3.00805,6.568553 -2.90269,6.729304 l -2.19726,0.05943 c 0.0932,0.05532 0.18872,0.106439 0.28112,0.163298 6.09814,3.752323 2.1299,10.065517 -3.84782,6.124173 -1.04591,-0.689594 -2.23735,-1.127543 -3.31556,-1.763197 -2.61015,-1.251701 -5.22853,-2.484003 -7.87136,-3.665926 -0.34703,-0.170111 -0.69536,-0.335955 -1.04283,-0.504362 -1.04394,0.228952 -2.09238,0.441277 -3.15071,0.537951 -0.41145,0.100483 -0.82417,0.195434 -1.23558,0.296105 -3.95687,0.968251 -6.08679,-0.907356 -5.97897,-3.010669 -0.31188,-0.687727 -0.239,-1.395294 0.0263,-2.059305 -3.87146,-1.438614 -7.73769,-2.891312 -11.63237,-4.265891 -3.97417,-1.285444 -7.99945,-2.446282 -11.87938,-4.000272 -1.44639,-0.579335 -2.44377,-1.350957 -3.06182,-2.17506 -1.01218,-0.798706 -1.81304,-2.231819 -1.89446,-4.484998 -0.0517,-1.431189 -0.0254,-0.705106 -0.0791,-2.177645 -0.0816,-2.602558 -0.0903,-5.205841 0.19844,-7.79849 0.24823,-2.394268 0.6146,-4.775082 0.76533,-7.179412 0.27808,-3.36008 0.42763,-6.72542 0.42064,-10.09809 0.0594,-2.5132 0.11189,-5.03614 0.48266,-7.52719 0.38072,-2.41928 0.90466,-4.80615 1.46451,-7.18974 0.6701,-2.94551 1.25825,-5.91529 2.11305,-8.81393 1.0668,-3.18776 2.31041,-6.31647 4.23489,-9.10074 0.42128,-0.53977 0.8547,-1.07136 1.29914,-1.59215 -1.52816,-0.60355 -3.06641,-1.18197 -4.57646,-1.83141 -1.09038,3.76762 -2.19021,7.53001 -3.40755,11.25926 -1.05961,2.97655 -0.54118,1.54568 -1.55081,4.2938 -1.83358,4.9908 -6.03644,4.88509 -7.07398,1.75544 -2.82634,3.52841 -7.50378,1.0111 -5.57744,-4.75268 1.05408,-3.1537 2.2385,-6.34595 4.49688,-8.85837 1.49582,-1.66408 2.97572,-2.34765 4.17287,-2.32647 0.33252,0.006 0.64298,0.0664 0.92604,0.17518 0.46945,-1.58214 0.96416,-3.15651 1.43919,-4.7377 0.70062,-2.33196 1.93737,-3.52641 3.18689,-3.8871 0.54142,-0.34307 1.25019,-0.55529 2.11615,-0.57361 h 5.3e-4 c 0.8057,-0.017 1.74503,0.13149 2.80396,0.49248 0.31645,0.10788 0.63769,0.20324 0.94929,0.32401 1.83624,0.71133 3.60046,1.59642 5.43016,2.32544 1.18096,0.47048 2.26953,0.84228 3.35329,1.23145 0.62902,-0.20883 1.22424,-0.32846 1.76785,-0.35037 2.28614,-0.0921 3.73455,1.32842 3.67523,3.07682 1.73917,0.0925 3.47854,0.18832 5.21777,0.2899 -0.1345,-1.7899 1.43141,-3.54652 4.54959,-3.56619 0.39587,-0.002 0.816,0.0231 1.25987,0.0801 3.99155,0.51285 7.97638,1.04608 11.94346,1.72703 0.35092,0.0747 0.7018,0.14913 1.05265,0.22376 0.92028,-2.09088 2.0607,-3.80586 3.79408,-5.38675 0.9172,-0.8245 1.6747,-1.80494 2.07378,-2.98587 0.46483,-1.35061 0.4893,-2.77914 0.4594,-4.19561 h 5.3e-4 c -0.0754,-3.57927 1.64663,-5.36691 3.4308,-5.36608 z m 1.97559,14.00741 c -0.78838,1.39934 -1.79816,2.66075 -2.96984,3.79512 -1.06213,0.94584 -1.80404,2.02586 -2.28153,3.3538 -0.003,0.012 -0.005,0.0237 -0.009,0.0357 1.15411,0.11311 2.30814,0.22665 3.4613,0.3514 3.99042,0.43171 5.40747,2.84663 4.69323,4.76353 0.67585,0.41545 1.35041,0.83313 2.01954,1.25626 3.82278,2.5036 7.53266,5.1715 11.24013,7.84086 -1.81731,-3.68096 -3.93583,-7.19476 -6.36087,-10.5146 -1.10355,-1.48555 -2.20805,-3.00054 -3.36206,-4.44883 -0.35653,-0.44747 -1.7607,-2.16704 -2.34455,-2.70784 -0.36042,-0.33384 -0.93237,-0.68033 -1.36375,-0.9555 -1.33122,-0.84918 -2.21667,-1.81673 -2.72282,-2.76986 z" /></clipPath><clipPath
       clipPathUnits="userSpaceOnUse"
       id="clipPath240"><path
         id="path241"
         style="fill:#ff0000;fill-opacity:1;fill-rule:nonzero;stroke:none;stroke-width:0.264583"
         d="M 92.804184,-309.23338 V -41.629034 H 294.29938 V -309.23338 Z m 130.496946,63.74443 c 0.93337,0.009 2.02072,0.27397 3.21944,0.8785 1.75312,0.88412 3.43212,1.89553 5.06326,2.98586 5.9527,3.97906 1.8926,10.01797 -4.03542,6.00222 -1.36849,-0.92705 -2.78857,-1.76849 -4.26227,-2.51871 -5.18448,-2.63926 -4.02961,-7.38891 0.015,-7.34787 z m -85.24544,1.99626 c 3.36772,-0.0906 4.87054,3.93317 0.67437,7.28431 -0.81214,0.6486 -0.42273,0.34746 -1.1653,0.9064 -1.7275,1.42217 -3.47209,2.82263 -5.29477,4.12275 -2.09112,1.47372 -4.25636,2.82668 -6.45645,4.13153 -6.15846,3.65253 -10.39165,-1.95967 -4.33979,-5.78621 2.21999,-1.40367 4.47897,-2.73503 6.6244,-4.25349 1.67688,-1.19734 3.27994,-2.48915 4.86947,-3.79821 0.91499,-0.69918 0.50268,-0.37435 1.24076,-0.9679 1.39493,-1.12177 2.72473,-1.60899 3.84731,-1.63918 z" /></clipPath><clipPath
       clipPathUnits="userSpaceOnUse"
       id="clipPath251"><path
         id="path252"
         style="fill:#ff0000;fill-opacity:1;fill-rule:nonzero;stroke:none;stroke-width:0.264583"
         d="m 50.06164,-325.07443 v 245.270816 h 202.0347 V -325.07443 Z m 191.06172,72.239 c 1.42195,-0.0396 3.11835,0.92332 4.44418,3.2582 0.80855,1.42391 1.33311,2.97097 1.71979,4.55476 0.38267,1.85761 0.50306,3.75527 0.49506,5.64772 0.007,1.66837 -0.28067,3.30966 -0.52503,4.95318 -0.26767,2.07853 -1.32063,3.82386 -2.54249,5.47306 -0.98598,1.19805 -2.03839,2.33999 -3.16208,3.40961 -0.37488,0.32054 -0.76867,0.61405 -1.09502,0.98443 -4.73356,5.37222 -10.25077,0.0313 -5.19193,-5.03587 0.41783,-0.41852 0.82603,-0.84961 1.30896,-1.19579 0.83199,-0.78568 1.60086,-1.63171 2.34973,-2.49649 0.52191,-0.686 1.06794,-1.32103 1.17874,-2.204 0.19629,-1.31742 0.44949,-2.62948 0.44648,-3.9672 0.0288,-1.3072 -0.0809,-2.61845 -0.30179,-3.90725 -0.20137,-0.91522 -0.51051,-1.80281 -0.96014,-2.62775 -2.14172,-3.92928 -0.53435,-6.78057 1.83554,-6.84661 z m -24.00732,134.01508 c 1.58088,-0.0452 3.27238,1.29937 3.90106,4.36821 0.19779,0.96552 0.49313,1.88927 0.87385,2.79466 0.57738,1.31117 0.86222,2.69631 0.9741,4.11603 0.0779,1.63421 -0.38657,3.16522 -1.00976,4.65191 -0.60784,1.37091 -1.55916,2.5173 -2.50579,3.660755 -0.2566,0.333243 -0.50348,0.67224 -0.76223,1.002525 -0.0721,0.651052 -0.19323,1.300012 -0.35502,1.949752 l -0.4842,1.22783 c -0.70346,1.782932 -1.87803,2.754204 -3.12126,3.127457 -0.38818,0.593834 -0.73665,1.213207 -1.1529,1.788007 -0.78123,1.206815 -1.75001,2.262322 -2.80138,3.23546 -1.04259,0.90742 -2.26203,1.551003 -3.47214,2.198833 -0.81145,0.41652 -1.66264,0.737227 -2.52439,1.030428 -6.77856,2.306214 -9.10653,-4.670343 -2.28979,-6.86108 0.48258,-0.155091 0.95367,-0.335381 1.41232,-0.552421 0.68902,-0.364839 1.38726,-0.713642 2.01745,-1.175639 0.71797,-0.616461 1.30017,-1.358352 1.82004,-2.146123 0.66383,-0.892056 1.26802,-1.828112 1.8216,-2.792076 0.59882,-1.12436 1.07283,-2.316203 1.82056,-3.358968 0.0117,-0.0166 0.0249,-0.032 0.0367,-0.0486 -0.84786,-3.67928 0.87949,-5.67892 2.87217,-5.69422 0.38363,-0.003 0.77643,0.0723 1.16324,0.21859 0.15519,-0.3579 0.298,-0.71847 0.29042,-1.1188 -0.0398,-0.54898 -0.18359,-1.13581 -0.4191,-1.66191 -0.48947,-1.16893 -0.89792,-2.36312 -1.1591,-3.60547 -0.82863,-3.94139 1.021,-6.29698 3.05356,-6.35516 z" /></clipPath><clipPath
       clipPathUnits="userSpaceOnUse"
       id="clipPath278"><path
         id="path279"
         style="fill:#ff0000;fill-opacity:1;fill-rule:nonzero;stroke:none;stroke-width:0.264583"
         d="m -43.212488,-382.05292 v 250.81001 H 185.4025 v -250.81001 z m 181.494868,132.88233 c 1.13528,0.005 2.03811,0.42617 2.60707,1.09037 0.91934,-0.34123 1.78192,-0.54125 2.52078,-0.52658 4.05205,0.0805 5.08945,4.87108 -0.18087,7.33443 -2.21042,1.03317 -4.41856,2.08163 -6.72362,2.89285 -2.86091,0.99315 -5.74924,1.921 -8.52506,3.13986 -6.55592,2.87873 -9.40434,-3.76713 -2.84944,-6.64817 1.1011,-0.48395 2.22936,-0.89759 3.35587,-1.31568 0.52294,-1.00077 1.47788,-2.01475 2.95124,-2.87476 1.0894,-0.6359 2.16914,-1.287 3.24683,-1.94252 1.33817,-0.81396 2.56345,-1.15421 3.5972,-1.1498 z m -133.0900695,2.4753 h 5.5981075 c 7.160125,0 7.160125,7.23263 0,7.23263 H 5.1923105 c -7.1601277,0 -7.1601277,-7.23263 0,-7.23263 z m 42.9880715,50.84496 c 2.044401,-0.008 3.844292,2.25841 2.953308,6.18618 -0.283588,1.25017 -0.481169,2.51568 -0.75189,3.76877 -0.313965,1.46608 -0.73946,2.91235 -1.207162,4.33668 -2.233805,6.80278 -9.211228,4.46329 -6.857981,-2.29908 0.404762,-1.16313 0.726765,-2.36525 0.995807,-3.56619 0.287499,-1.32813 0.484814,-2.67249 0.804084,-3.99407 0.735603,-3.04497 2.473746,-4.42641 4.063834,-4.43229 z m 26.844358,9.60148 c 1.5451,0.0844 3.630816,1.85281 5.237924,5.05189 1.446292,2.8789 3.498345,5.40261 5.377447,8.00674 1.423178,1.86933 2.496352,3.93269 3.488161,6.04873 3.038795,6.48323 -3.64554,9.55837 -6.57066,3.02307 -0.764304,-1.70766 -1.644017,-3.34338 -2.782776,-4.84001 -2.279812,-3.15977 -5.466628,-6.83969 -6.494177,-10.63656 -0.141171,-0.52168 -0.167447,-1.06805 -0.251148,-1.60197 -0.554762,-3.53682 0.450099,-5.13633 1.995229,-5.05189 z m 22.433772,2.07998 v 5.3e-4 c 1.081786,0.0173 2.458693,0.64291 3.986318,2.0805 1.21595,1.14421 2.08888,2.57763 3.1502,3.85661 0.75663,0.91352 1.6619,1.66584 2.53163,2.46393 1.1475,0.93011 2.05703,2.06162 2.85305,3.29799 0.95863,1.59903 1.44035,3.34615 0.97049,5.20227 -0.10236,0.40431 -0.31771,0.77135 -0.47646,1.15703 -1.02548,2.49132 -2.04203,1.65641 -2.97036,0.0238 -2.04159,1.70549 -5.47708,1.09344 -5.78105,-3.28558 -0.003,-0.0322 -0.0142,-0.0648 -0.007,-0.0966 0.005,-0.03 0.0986,-0.0136 0.0827,-0.0393 -0.23736,-0.38486 -0.69492,-0.61714 -1.02216,-0.90227 -1.100378,-0.77725 -2.267905,-1.45106 -3.395141,-2.18798 -3.582773,-2.34245 -3.744537,-5.4822 -2.015898,-6.82284 -0.840523,-2.68156 0.04882,-4.63231 1.88154,-4.74287 0.06945,-0.004 0.140271,-0.006 0.212389,-0.005 z" /></clipPath><clipPath
       clipPathUnits="userSpaceOnUse"
       id="clipPath292"><path
         id="path293"
         style="fill:#ff0000;fill-opacity:1;fill-rule:nonzero;stroke:none;stroke-width:0.264583"
         d="M 39.169506,-337.89832 V -50.969072 H 288.46282 V -337.89832 Z m 15.676046,82.89261 c 1.714024,0.0204 3.54041,1.61061 3.978568,4.9382 0.120111,0.91222 0.106387,1.83456 0.107487,2.75229 0.0087,7.16012 -7.246413,7.15857 -7.232633,-0.002 0.0013,-0.65071 0.02757,-1.30512 -0.06356,-1.95182 -0.530767,-3.76661 1.267578,-5.76019 3.21014,-5.73712 z m 197.013298,6.80941 c 1.32993,-0.0899 2.96772,0.82319 4.38423,3.1042 1.07429,1.72993 1.55184,3.70118 1.89652,5.68338 0.39598,2.58761 0.42018,5.20011 0.26717,7.80675 -0.16631,2.61527 -0.75971,5.14416 -1.52187,7.63985 -0.4978,1.90614 -1.23662,3.72608 -2.0159,5.52989 -0.76243,1.81488 -1.37928,3.68664 -2.00143,5.55315 -0.64972,1.87676 -1.26002,3.76819 -2.01124,5.60741 -0.95415,2.1244 -1.9321,4.237 -2.90784,6.35155 -0.93622,2.10591 -1.93956,4.18102 -3.03444,6.20893 -0.74336,1.47932 -1.63431,2.88203 -2.64686,4.19044 -0.85071,1.10794 -1.91984,2.00805 -2.89078,3.00343 -1.04445,1.12516 -2.20219,2.13025 -3.34605,3.1502 -1.2349,1.05182 -2.56579,1.98944 -3.91811,2.88354 -1.93444,1.28303 -4.12655,2.08437 -6.28747,2.89285 -2.75914,1.06536 -5.6224,1.79172 -8.50439,2.42982 -2.00852,0.48359 -4.02259,0.93996 -6.05234,1.32499 -1.0898,0.20672 -1.99053,0.15992 -2.79725,0.0139 -0.75827,0.17949 -1.51301,0.3744 -2.26653,0.57309 -1.4977,0.44017 -2.97995,0.92699 -4.46019,1.42214 -1.58834,0.5581 -3.19109,1.04834 -4.83381,1.42213 -2.05853,0.5373 -4.13223,0.98734 -6.23425,1.31724 -1.89057,0.38525 -3.79586,0.65788 -5.71696,0.82837 -1.92552,0.0766 -3.83858,0.29911 -5.75676,0.47025 -1.71912,0.15432 -3.44381,0.22701 -5.16867,0.27441 -2.44184,-0.0118 -4.87127,-0.25567 -7.30085,-0.47078 -2.85973,-0.19225 -5.71909,-0.39592 -8.57157,-0.67799 -2.83995,-0.26841 -5.65359,-0.74864 -8.47907,-1.13016 -2.66463,-0.21934 -5.29981,-0.64608 -7.94267,-1.03457 -2.11987,-0.30404 -4.25541,-0.45909 -6.38152,-0.71055 -1.8808,-0.17534 -3.75496,-0.4017 -5.63118,-0.61856 -1.91243,-0.21286 -3.83573,-0.28885 -5.75779,-0.34985 -2.23949,-0.16259 -4.48445,-0.27106 -6.71949,-0.48783 -2.21917,-0.20648 -4.40762,-0.67897 -6.54068,-1.31516 -2.57048,-0.65769 -4.88262,-1.9917 -7.25382,-3.13883 -1.91366,-0.89121 -3.846978,-1.74009 -5.755724,-2.6417 -1.929913,-0.93683 -3.722034,-2.11514 -5.521108,-3.27525 -1.492637,-0.90475 -0.734285,-0.44535 -2.275314,-1.37821 -6.125257,-3.70793 -2.379728,-9.89571 3.745508,-6.18774 1.606161,0.9723 0.789586,0.47683 2.449462,1.48725 1.534261,0.98943 3.055983,2.00536 4.695836,2.81636 1.92633,0.91375 3.8825,1.76312 5.81257,2.66909 2.03397,0.98503 4.0062,2.16157 6.20944,2.72955 1.67042,0.52508 3.40555,0.86136 5.14697,1.03715 2.07333,0.21111 4.15957,0.28906 6.23683,0.4563 2.12341,0.0679 4.24789,0.15641 6.36033,0.39429 1.88182,0.21873 3.76122,0.44337 5.64772,0.62012 2.19401,0.25968 4.39889,0.41632 6.58565,0.73794 2.61501,0.3856 5.2221,0.80551 7.85895,1.02267 2.74095,0.37156 5.47017,0.83558 8.22482,1.1002 2.82609,0.28319 5.66087,0.47505 8.49405,0.67076 2.15225,0.19062 4.3024,0.40925 6.46472,0.44545 1.57684,-0.0428 3.1537,-0.10777 4.7253,-0.24857 1.92194,-0.17061 3.8389,-0.3955 5.76812,-0.4718 1.7606,-0.15093 3.50197,-0.42258 5.23482,-0.76946 1.94524,-0.29972 3.85736,-0.73584 5.76244,-1.22784 1.40538,-0.30937 2.76609,-0.74989 4.12327,-1.22421 1.62869,-0.54468 3.26081,-1.07909 4.91081,-1.5565 1.77362,-0.46766 3.552,-0.92735 5.36814,-1.20147 1.70238,-0.33298 3.38762,-0.74982 5.05034,-1.24437 1.8768,-0.51034 3.73395,-1.11665 5.54695,-1.81953 1.67544,-0.67931 3.31988,-1.45879 4.78886,-2.52439 1.0657,-0.84543 2.16725,-1.64342 3.15019,-2.58951 1.28809,-1.21508 2.58622,-2.41928 3.84008,-3.67058 0.85194,-0.84614 1.68746,-1.65828 2.24585,-2.7404 0.63482,-0.99725 1.29901,-1.9775 1.85674,-3.02152 0.55263,-0.92785 1.06197,-1.877 1.53479,-2.8484 0.43455,-0.81257 0.86675,-1.63643 1.16427,-2.50993 0.39723,-1.087 0.65435,-2.21493 0.97203,-3.32641 0.29574,-1.24569 0.60338,-2.49273 1.07901,-3.68453 0.39957,-1.05638 0.68712,-2.15558 1.05006,-3.22512 0.22713,-0.94997 0.37986,-1.92387 0.55966,-2.88303 0.22526,-1.23853 0.53664,-2.45701 1.02371,-3.62149 0.47591,-1.31864 1.08044,-2.58627 1.7048,-3.84007 0.34111,-0.58794 0.67316,-1.19257 0.96067,-1.80041 0.32682,-0.71346 -0.0659,-2.40019 0.0822,-3.22151 v -4.23178 c 0,-3.58007 1.80812,-5.37022 3.61632,-5.37022 0.15156,0 0.30168,0.0312 0.45217,0.0563 -0.0649,-0.17178 -0.10183,-0.35173 -0.18242,-0.51883 -1.94402,-4.03078 -0.58254,-6.96655 1.63401,-7.11636 z" /></clipPath></defs><g
     id="layer1"
     transform="translate(97.70559,385.53929)"><path
       style="fill:#000000"
       d="m 19.380465,-83.109698 c -15.8833898,-1.43641 -29.50458,-8.24178 -41.28129,-20.624822 -4.34143,-4.56494 -8.83981,-10.79756 -11.2426,-15.57687 -0.60966,-1.21268 -1.16072,-2.20486 -1.22457,-2.20486 -0.0638,0 -1.0159,0.30958 -2.11568,0.68796 -8.94065,3.07604 -17.74769,0.68103 -24.73577,-6.7267 -4.22842,-4.48235 -7.00037,-9.59214 -8.70398,-16.04482 -0.73868,-2.79786 -0.82709,-3.88972 -0.81126,-10.01922 0.0197,-7.61394 0.47387,-10.14802 2.65573,-14.81666 5.03222,-10.76773 17.51321,-22.33064 31.45595,-29.14212 2.24672,-1.09759 2.54257,-1.54955 1.01436,-1.54955 -1.77458,0 -9.61787,-1.44808 -12.73342,-2.35093 -6.21608,-1.80135 -11.76062,-4.9869 -16.59425,-9.53403 -6.79196,-6.3894 -10.75059,-13.77502 -12.29291,-22.93492 l -0.6347,-3.7695 -2.48899,-0.76002 c -3.71184,-1.13342 -6.99043,-3.13095 -9.79381,-5.96702 -2.87239,-2.90588 -4.50743,-5.50613 -5.85272,-9.30778 -1.58126,-4.46845 -1.83926,-7.12308 -1.65456,-17.02405 0.18719,-10.0342 0.58356,-12.37842 2.8876,-17.07801 2.4824,-5.06339 7.82175,-9.54717 13.49003,-11.3284 l 2.88342,-0.9061 0.23983,-2.70086 c 0.71191,-8.01739 3.3479,-16.18636 8.32776,-25.80781 7.55116,-14.58942 21.49733,-30.28189 34.70167,-39.04692 17.89892,-11.8813 39.4491802,-17.87137 64.38194,-17.8955 20.92273,-0.0202 37.87821,3.71349 54.32833,11.96353 5.14587,2.58075 8.73667,4.83225 13.85688,8.6885 2.54526,1.91694 4.211155,2.95903 4.298215,2.68872 0.0782,-0.24276 0.31045,-1.27824 0.51615,-2.30106 0.56112,-2.79005 1.98765,-5.28411 4.39256,-7.67969 4.78585,-4.76728 11.2915,-5.96993 17.33272,-3.20417 3.72534,1.70552 7.17532,5.90393 8.28817,10.0862 0.23065,0.86679 0.4131,2.69242 0.40545,4.05694 -0.045,8.02551 -5.98471,14.74059 -13.51514,15.27939 -1.32795,0.095 -2.41445,0.24497 -2.41445,0.33325 0,0.0883 1.41306,2.091 3.14013,4.45051 1.72708,2.35951 4.05467,5.7959 5.17243,7.63641 6.46565,10.64643 11.09022,23.68104 11.09022,31.25844 v 2.23325 l 1.4993,0.37663 c 8.43367,2.11857 14.89862,8.66608 17.24561,17.46584 0.63853,2.39411 0.77835,4.12055 0.92169,11.38097 0.11139,5.64151 0.0261,9.53621 -0.25033,11.42646 -1.50671,10.30443 -7.75017,17.87172 -17.10953,20.73735 -1.35066,0.41354 -2.57854,0.94514 -2.72862,1.18134 -0.15008,0.23619 -0.2753,1.01437 -0.27828,1.72929 -0.003,0.71492 -0.24683,2.46117 -0.54191,3.88055 -1.58707,7.63404 -4.93583,14.08422 -10.17859,19.6054 -7.23588,7.62014 -15.36707,11.20789 -28.972395,12.78356 -1.94028,0.22471 -3.75421,0.48147 -4.03095,0.57058 -0.27674,0.0891 1.47908,1.24236 3.90182,2.56276 9.694535,5.28356 17.515965,11.60529 23.373615,18.89191 4.1358,5.14473 6.22357,9.12021 7.6869,14.63721 1.02055,3.84766 1.26433,11.81358 0.49639,16.22022 -2.27319,13.04401 -9.64718,22.55747 -20.31528,26.20946 -3.95885,1.35523 -10.269495,0.96103 -15.223415,-0.95095 -0.45647,-0.17618 -0.88661,0.38124 -1.98018,2.56613 -7.04987,14.0852 -22.93891,28.015802 -37.30057,32.703012 -8.5923,2.80426 -21.70524,3.98162 -32.98472,2.96157 z m 9.28749,-12.68649 c 0.30865,-7.991992 0.48579,-8.738602 1.96206,-8.270052 0.66515,0.21111 0.75148,0.52656 0.80642,2.94667 0.0338,1.490642 0.0472,3.265882 0.0297,3.944982 -0.0175,0.6791 -0.0665,2.9016 -0.10897,4.93889 l -0.0772,3.70417 1.37037,0.11584 c 1.93853,0.16388 7.93273,-0.58848 8.51079,-1.06822 0.92324,-0.76622 3.3349,-5.2078 5.07572,-9.348 0.96284,-2.289932 1.96707,-4.639762 2.23163,-5.221842 1.21492,-2.67311 3.39244,-10.98427 4.25168,-16.22778 0.91023,-5.55471 1.1386,-6.23648 2.04576,-6.1074 1.05398,0.14999 1.16344,1.835 0.41688,6.41732 -1.46103,8.96764 -3.73545,16.6933 -6.75453,22.943532 -0.64812,1.34175 -1.1784,2.63821 -1.1784,2.88101 0,0.24281 -0.13465,0.49438 -0.29922,0.55905 -0.41252,0.16212 -2.24353,3.51327 -2.03405,3.72275 0.0931,0.0931 0.74648,-0.0211 1.45188,-0.25394 0.92473,-0.30519 1.22448,-0.57456 1.07446,-0.96553 -0.13352,-0.34794 0.45828,-1.255 1.65151,-2.53128 2.28533,-2.4444 5.42518,-6.03456 7.38922,-8.448972 1.51876,-1.86704 1.97319,-2.10594 2.67358,-1.40555 0.29937,0.29937 0.30436,0.60219 0.0189,1.14652 -0.72272,1.37802 -5.46536,7.080562 -7.21658,8.677212 -0.95765,0.87312 -1.87714,1.80909 -2.04332,2.07992 -0.4591,0.74824 1.03705,0.27895 5.39914,-1.69353 7.82301,-3.53744 12.88214,-7.130062 19.62757,-13.938042 5.01187,-5.05834 7.5818,-8.43027 10.94513,-14.36078 2.63696,-4.64972 4.94163,-10.26369 4.57867,-11.15327 -0.23408,-0.5737 -0.27614,-0.56722 -0.54382,0.0838 -0.25963,0.63142 -0.29272,0.63819 -0.31491,0.0644 -0.0193,-0.49887 -0.20092,-0.587 -0.81855,-0.39715 -1.03025,0.31669 -0.90809,0.1268 -1.48465,2.3078 -0.6883,2.60369 -4.25478,10.49893 -5.19448,11.4992 -0.82595,0.87918 -1.70673,1.14311 -1.00895,0.30234 0.35552,-0.42837 0.2755,-0.48396 -0.4954,-0.34417 l -0.91939,0.16672 1.05412,-2.0882 c 2.7217,-5.39166 4.36726,-10.27075 3.46768,-10.28164 -0.27526,-0.003 -0.31095,-0.10463 -0.0932,-0.26459 0.79907,-0.58707 0.48887,-1.07322 -0.57756,-0.90515 -0.5968,0.0941 -1.00457,0.0397 -0.90616,-0.12067 0.0984,-0.16043 -0.36509,-0.30377 -1.02998,-0.31854 -0.66489,-0.0148 -1.40318,-0.23657 -1.64065,-0.4929 -0.35002,-0.3778 -0.29818,-0.42353 0.27379,-0.24153 0.57172,0.18192 0.5437,0.10812 -0.14767,-0.38905 -1.38924,-0.99901 -4.6304,-4.41734 -5.18103,-5.46425 -1.00749,-1.91555 -1.2319,-1.26724 -1.74012,5.02708 -0.23901,2.96019 -2.15224,12.86083 -2.67346,13.83475 -0.42047,0.78564 -1.67103,0.82226 -1.96449,0.0575 -0.12064,-0.31439 0.21135,-2.89408 0.73776,-5.73264 1.18416,-6.38536 2.42152,-18.49379 2.34795,-22.9763 -0.0802,-4.88495 -1.3921,-11.60521 -3.78781,-19.40277 -0.68554,-2.23132 -1.3875,-4.20658 -1.5599,-4.38946 -0.19442,-0.20623 -1.1518,-0.0479 -2.52096,0.41705 -1.21412,0.41226 -3.95374,1.17389 -6.08804,1.69251 -2.13431,0.51862 -3.97949,1.00256 -4.10041,1.07543 -0.12092,0.0729 -0.006,1.04837 0.25494,2.16778 0.78387,3.36015 1.61158,9.58341 1.37412,10.33157 -0.25577,0.80586 -0.96998,0.91217 -1.53711,0.22882 -0.21488,-0.25891 -0.63437,-2.32966 -0.9322,-4.60167 -0.29783,-2.27201 -0.71224,-4.92696 -0.92089,-5.89989 -0.35604,-1.66015 -0.43699,-1.75756 -1.31586,-1.58352 -2.79651,0.55379 -5.47379,0.92175 -7.97497,1.09608 -1.54283,0.10753 -2.86987,0.26023 -2.94897,0.33933 -0.0791,0.0791 0.0323,1.94726 0.24752,4.15149 0.21523,2.20422 0.39133,4.99145 0.39133,6.19385 0,1.92884 -0.0806,2.18618 -0.68474,2.18618 -0.3766,0 -0.78058,-0.15508 -0.89772,-0.34463 -0.15469,-0.25028 -0.92603,-7.67119 -1.23541,-11.88555 -0.002,-0.0326 -3.2498,-0.0556 -7.21645,-0.0509 l -7.2121,0.008 -0.17641,0.93287 c -0.097,0.51308 -0.26854,3.31412 -0.38114,6.22454 -0.35473,9.16855 -0.54546,10.09957 -1.81003,8.835 -0.44104,-0.44104 -0.46048,-1.52519 -0.13757,-7.67292 0.20682,-3.93762 0.45549,-7.42299 0.55261,-7.74527 0.14956,-0.49631 -0.24388,-0.62753 -2.57126,-0.85759 -1.51131,-0.1494 -3.54158,-0.28258 -4.51172,-0.29598 l -1.76389,-0.0244 -0.40329,2.64584 c -0.30812,2.02147 -0.46535,2.45149 -0.6663,1.82226 -0.18334,-0.57408 -0.34536,-0.69034 -0.53484,-0.38376 -0.1524,0.2466 -0.0534,0.65822 0.22533,0.93696 0.27344,0.27344 0.48157,1.08113 0.46252,1.79487 l -0.0346,1.29772 -0.4599,-1.5875 c -0.40212,-1.38804 -0.46425,-1.45674 -0.49454,-0.5468 -0.0249,0.74963 -0.14193,0.93339 -0.4182798,0.65704 -0.27636,-0.27636 -0.27278,-1.2956 0.0128,-3.64433 0.2180498,-1.79337 0.3232398,-3.33389 0.2337398,-3.42339 -0.3970998,-0.3971 -6.0468398,-1.44606 -6.1531498,-1.14242 -0.0712,0.20347 -0.38022,0.1921 -0.79375,-0.0292 -0.77491,-0.41471 -0.96977,0.15622 -0.20992,0.61507 0.38064,0.22986 0.38706,0.57613 0.0346,1.86961 -0.2379,0.87312 -0.44813,1.30032 -0.46718,0.94932 -0.019,-0.351 -0.19381,-0.5398 -0.38836,-0.41956 -0.23319,0.14411 -0.2212,0.46626 0.0352,0.94533 0.29243,0.54641 0.28678,0.66358 -0.0228,0.47226 -0.25058,-0.15487 -0.48756,0.0356 -0.6055,0.4866 -0.10659,0.40758 -0.30515,0.74105 -0.44126,0.74105 -0.13610998,0 0.032,-1.07156 0.37358,-2.38125 0.95301,-3.65402 0.91019,-3.87585 -0.83756998,-4.33808 -0.82462,-0.21809 -3.39696002,-1.01208 -5.71630002,-1.76443 -2.31935,-0.75234 -4.24268,-1.33409 -4.27407,-1.29276 -0.0314,0.0413 -0.50196,0.7889 -1.0457202,1.66128 -0.5627,0.90277 -1.05472,1.38795 -1.142,1.12611 -0.0843,-0.25302 0.12568,-0.76834 0.4667,-1.14517 0.35778,-0.39535 0.4477,-0.68514 0.21259,-0.68514 -0.2241,0 -0.40745,0.16811 -0.40745,0.37359 0,0.20548 -0.1828,0.26062 -0.40622,0.12254 -0.29337,-0.18131 -0.26501,-0.3586 0.10207,-0.63818 0.27957,-0.21292 0.52744,-0.70462 0.55083,-1.09268 0.0332,-0.55038 -0.79533,-1.1578 -3.76702,-2.76183 -4.79154,-2.58633 -7.37275,-4.84657 -8.80266,-7.70809 -0.59541,-1.19151 -1.08256,-2.37915 -1.08256,-2.6392 0,-2.96826 -6.62095,8.84339 -9.12798,16.28412 -0.58836,1.74625 -1.17682,3.84981 -1.30768,4.67458 l -0.23793,1.49958 1.37516,-0.48518 c 3.52947,-1.24527 7.20134,-0.95234 10.74896,0.85752 1.77306,0.90455 4.24341,3.39367 5.50562,5.54747 0.99534,1.69843 0.91343,1.72009 1.71044,-0.4523 0.14237,-0.38806 0.31797,-1.01342 0.39022,-1.38969 0.31025,-1.61572 0.50757,-0.89363 0.33214,1.21544 -0.1048,1.26001 -0.1119,1.97341 -0.0158,1.58536 0.72733,-2.93617 0.98775,-3.70417 1.25601,-3.70417 0.38035,0 0.43214,-0.4578 -0.43899,3.88056 -1.56262,7.78207 -0.77796,22.7692 1.81694,34.70401 0.37434,1.72173 0.59463,3.26954 0.48954,3.43959 -0.40832,0.66066 -1.48781,0.2766 -1.85779,-0.66097 -1.20822,-3.06174 -3.20001,-14.86669 -3.24626,-19.23988 l -0.0157,-1.48581 -0.60165,0.83617 c -1.26931,1.7641 -4.12015,4.67763 -5.2759,5.39192 -0.66413,0.41045 -2.10662,1.02408 -3.20552,1.3636 -1.16536,0.36005 -2.04374,0.84547 -2.10777,1.16479 -0.0604,0.30112 0.13807,1.27745 0.44098,2.16964 0.71307,2.10031 0.71908,3.05106 0.0176,2.78186 -0.39792,-0.15269 -0.47542,-0.038 -0.30552,0.45205 0.12521,0.36115 -0.19049,0.10986 -0.70155,-0.55843 -0.51106,-0.66828 -0.9292,-1.56787 -0.9292,-1.99907 0,-0.43121 -0.11906,-0.83693 -0.26459,-0.9016 -0.14552,-0.0647 -0.53015,-0.69263 -0.85474,-1.39544 -0.54345,-1.17671 -2.13533,-2.11148 -2.67563,-1.57118 -0.33127,0.33127 1.71306,5.5939 3.642,9.37541 5.6531,11.08239 15.12558,21.28655 25.6351902,27.615322 2.5309,1.52407 8.93736,4.4872 10.76568,4.97935 0.43656,0.11751 1.13735,0.31202 1.55731,0.43223 0.46988,0.13451 -0.13104,-0.61827 -1.5624,-1.95724 -2.43815,-2.28077 -7.66782,-8.897482 -7.66782,-9.701522 0,-0.25732 0.23144,-0.65994 0.51432002,-0.89471 0.59792,-0.49623 1.07579,-0.062 3.89539998,3.539702 0.97014,1.23924 2.91482,3.63067 4.32152,5.31429 1.40671,1.68363 2.55764,3.29881 2.55764,3.58929 0,0.29049 0.4999398,0.70244 1.1109798,0.91545 1.17429,0.40935 3.12236,0.52557 3.12236,0.18626 0,-0.11056 -0.49211,-0.91627 -1.09357,-1.79047 -3.4246898,-4.97761 -7.0806598,-16.331182 -8.9640698,-27.837822 -0.31935,-1.95106 -0.52858,-4.09418 -0.46497,-4.7625 0.0973,-1.02187 0.25275,-1.21513 0.9776,-1.21513 0.83823,0 0.88875,0.15667 1.83677,5.69651 1.16699,6.81936 2.36475,11.67597 3.9671498,16.08581 2.45128,6.745982 6.54557,14.579732 7.79922,14.922522 0.73018,0.19966 8.76168,0.75574 9.7002,0.67162 0.44242,-0.0397 0.57698,-1.28544 0.82082,-7.59945 z m 27.4014,0.17315 c 0,-0.26559 3.53545,-4.669382 3.84506,-4.789452 0.74197,-0.28774 9.20772,-12.70171 9.20772,-13.50197 0,-0.0764 0.7931,-1.82901 1.76246,-3.89459 0.96935,-2.06558 2.24597,-5.12548 2.83692,-6.79977 0.59096,-1.6743 1.24604,-3.25091 1.45573,-3.50358 0.5072,-0.61113 1.6796,-0.58591 1.92029,0.0413 0.40957,1.06733 -3.69588,11.96996 -5.92211,15.72705 -0.4024,0.6791 -1.28933,2.18722 -1.97097,3.35139 -3.28896,5.6172 -8.93605,11.899542 -11.6358,12.944742 -0.82461,0.31924 -1.4993,0.51043 -1.4993,0.42486 z m -15.47695,-0.96783 c -0.5948,-0.7167 0.70585,-5.572902 1.58511,-5.918272 0.63959,-0.25124 0.63986,-0.26117 0.008,-0.2851 -0.48433,-0.0183 -0.58746,-0.18573 -0.39561,-0.64215 0.14273,-0.33955 0.33134,-1.01424 0.41913,-1.49931 0.0878,-0.48507 0.24603,-1.12007 0.35162,-1.41111 0.10558,-0.29104 0.19174,-1.1217 0.19145,-1.84591 -2.9e-4,-0.72421 0.12656,-1.2382 0.28188,-1.14221 0.15532,0.096 0.35497,-0.10522 0.44366,-0.44714 0.20082,-0.77422 -0.027,2.99589 -0.23959,3.96443 -0.0852,0.38805 -0.27227,1.16579 -0.41579,1.72831 -0.17171,0.67304 -0.13639,0.94578 0.1033,0.79764 0.20033,-0.12381 0.46222,-0.7428 0.58197,-1.37553 0.11975,-0.63273 0.31424,-1.5473 0.43218,-2.03237 0.11795,-0.48507 0.29331,-1.39661 0.38969,-2.02564 0.0964,-0.62903 0.30187,-1.06544 0.45664,-0.96979 0.15476,0.0957 0.226,0.45157 0.15829,0.79092 -0.0677,0.33936 -0.30996,1.9243 -0.53834,3.52211 -0.22839,1.5978 -0.51889,2.84104 -0.64556,2.76276 -0.12666,-0.0783 -0.23569,0.44004 -0.24227,1.15185 -0.0202,2.187442 -0.49816,3.909732 -1.28948,4.646962 -0.89211,0.83113 -1.11108,0.86186 -1.63585,0.22955 z m 1.9538,-4.346682 c -0.12935,-0.12935 -0.23518,-0.0235 -0.23518,0.23518 0,0.25871 0.10583,0.36454 0.23518,0.23519 0.12935,-0.12935 0.12935,-0.34102 0,-0.47037 z m -0.35278,-1.05833 c -0.12935,-0.12936 -0.23518,-0.0235 -0.23518,0.23518 0,0.2587 0.10583,0.36454 0.23518,0.23519 0.12936,-0.12936 0.12936,-0.34102 0,-0.47037 z m -50.2314298,-0.38218 c -0.12784,-0.33955 -1.00619,-1.55069 -1.9519,-2.69142 -3.7443202,-4.51649 -8.2851202,-11.945 -10.8757002,-17.79208 -1.36656,-3.08437 -1.42969,-3.94636 -0.28907,-3.94636 0.50183,0 1.25624,1.19227 3.08356,4.87324 3.23385,6.51432 7.74165,13.41603 11.4342202,17.50647 0.71929,0.79679 0.79267,1.64554 0.19403,2.24418 -0.60855,0.60855 -1.32581,0.5213 -1.59514,-0.19403 z m 32.0747898,-2.29666 c -0.22366,-0.26949 -0.46897,-4.40753 -0.62291,-10.50758 -0.2369,-9.38751 -0.21165,-10.10531 0.37616,-10.69313 0.54406,-0.54405 0.69847,-0.56176 1.13061,-0.12961 0.39195,0.39195 0.57431,2.70868 0.84088,10.68257 0.18721,5.60014 0.26179,10.38688 0.16573,10.6372 -0.22362,0.58275 -1.4101,0.58937 -1.89047,0.0105 z m 18.97979,-6.08181 c 0,-0.097 0.0794,-0.17639 0.17639,-0.17639 0.097,0 0.17639,0.0794 0.17639,0.17639 0,0.097 -0.0794,0.17639 -0.17639,0.17639 -0.097,0 -0.17639,-0.0794 -0.17639,-0.17639 z m 0.70556,-0.50835 c 0,-0.8518 0.19618,-0.93774 0.47601,-0.20851 0.1093,0.28483 0.0469,0.6117 -0.13864,0.72638 -0.18556,0.11468 -0.33737,-0.11836 -0.33737,-0.51787 z m 1.08618,0.12617 c 0.0169,-0.41096 0.10052,-0.49456 0.21314,-0.21313 0.1019,0.25466 0.0894,0.55893 -0.0279,0.67615 -0.11723,0.11723 -0.20061,-0.0911 -0.18529,-0.46302 z m -1.14984,-2.35185 c -0.062,-0.43656 0.0692,-2.61937 0.29159,-4.85069 0.22237,-2.23132 0.49257,-5.96882 0.60044,-8.30555 0.10787,-2.33672 0.3001,-4.51954 0.42718,-4.85069 0.28118,-0.73276 1.41676,-0.79605 1.68616,-0.094 0.22892,0.59653 -0.6937,15.24987 -1.0494,16.66712 -0.21654,0.86275 -0.26945,0.89236 -0.49039,0.2744 -0.13622,-0.38098 -0.0365,-1.40104 0.22152,-2.2668 0.30844,-1.0348 0.34722,-1.64949 0.11319,-1.79413 -0.1958,-0.12101 -0.2695,-0.76204 -0.16377,-1.4245 0.12822,-0.80335 0.0858,-1.02825 -0.12743,-0.67532 -0.26475,0.43824 -0.8203,5.19182 -0.87612,7.49653 -0.0216,0.8926 -0.50009,0.75927 -0.63297,-0.17639 z m 1.82755,-8.20208 c 0,-0.097 -0.0794,-0.17639 -0.17639,-0.17639 -0.097,0 -0.17639,0.0794 -0.17639,0.17639 0,0.097 0.0794,0.17639 0.17639,0.17639 0.097,0 0.17639,-0.0794 0.17639,-0.17639 z m 0.18342,-2.23237 c -0.14342,-0.97271 -0.10836,-1.11965 0.14077,-0.58985 0.27072,0.57572 0.33427,0.4459 0.34535,-0.70556 0.0126,-1.31546 -0.0215,-1.36469 -0.50437,-0.72632 -0.5925,0.78334 -0.72816,3.89649 -0.15435,3.54185 0.20315,-0.12555 0.27932,-0.79636 0.1726,-1.52012 z m 0.0945,-3.98947 c -0.0881,-0.26421 -0.24798,-0.1043 -0.37273,0.37273 -0.15345,0.58679 -0.10753,0.72452 0.15425,0.46274 0.205,-0.205 0.30332,-0.58096 0.21848,-0.83547 z m -0.84076,14.81039 c -0.15595,-0.25235 -0.0968,-0.31153 0.15557,-0.15557 0.40667,0.25133 0.54598,0.56285 0.25172,0.56285 -0.0856,0 -0.26884,-0.18328 -0.40729,-0.40728 z m -70.11083,-6.38369 c -1.25532,-1.67433 -2.39404,-4.07709 -2.03685,-4.29785 0.17007,-0.1051 0.50565,0.28313 0.74573,0.86275 0.24009,0.57962 0.57208,1.05385 0.73777,1.05385 0.34564,0 -0.0347,-1.1017 -1.10371,-3.19717 -1.4037,-2.75148 -0.46419,-1.73544 1.24634,1.34786 0.94101,1.69621 1.9959,3.49883 2.34419,4.0058 1.19784,1.74355 -0.63502,1.95661 -1.93347,0.22476 z m 1.52925,0.61736 c 0,-0.097 -0.0794,-0.17639 -0.17639,-0.17639 -0.097,0 -0.17639,0.0794 -0.17639,0.17639 0,0.097 0.0794,0.17639 0.17639,0.17639 0.097,0 0.17639,-0.0794 0.17639,-0.17639 z m -0.61102,-1.23472 c -0.33227,-0.38806 -0.6538,-0.70556 -0.71452,-0.70556 -0.0607,0 0.0595,0.3175 0.2672,0.70556 0.20768,0.38805 0.52922,0.70555 0.71452,0.70555 0.1853,0 0.0651,-0.3175 -0.2672,-0.70555 z m -0.80009,-1.23472 c 0,-0.097 -0.0794,-0.17639 -0.17639,-0.17639 -0.097,0 -0.17639,0.0794 -0.17639,0.17639 0,0.097 0.0794,0.17638 0.17639,0.17638 0.097,0 0.17639,-0.0794 0.17639,-0.17638 z m 53.04154,2.1574 c -0.44129,-0.50383 -0.96469,-28.96659 -0.58947,-32.05532 0.29643,-2.44011 0.87562,-2.05205 0.78981,0.52917 -0.0403,1.21267 0.094,2.60173 0.29844,3.0868 0.29182,0.69232 0.35194,0.2157 0.27963,-2.21668 -0.0507,-1.70424 0.0291,-3.17353 0.17725,-3.2651 0.14815,-0.0916 0.28876,2.37438 0.31247,5.47988 0.0299,3.91889 -0.0764,5.64635 -0.34742,5.64635 -0.21479,0 -0.3616,-0.35719 -0.32623,-0.79375 0.10328,-1.27505 0.008,-1.73056 -0.32088,-1.52755 -0.32489,0.20079 -0.35594,8.12614 -0.0331,8.44881 0.23753,0.23741 0.33846,-0.43642 0.48363,-3.22885 0.21031,-4.04536 0.44761,-2.62988 0.68161,4.06578 0.35856,10.25962 0.29699,15.4085 -0.19007,15.89556 -0.52609,0.52609 -0.70633,0.51644 -1.21567,-0.0651 z m 0.13032,-4.89143 c -0.0783,-0.63059 -0.14229,-0.11466 -0.14229,1.14653 0,1.26118 0.064,1.77711 0.14229,1.14652 0.0783,-0.63059 0.0783,-1.66246 0,-2.29305 z m 1.03677,1.76389 c -0.0979,-0.24254 -0.17794,-0.0441 -0.17794,0.44097 0,0.48507 0.0801,0.68351 0.17794,0.44097 0.0979,-0.24253 0.0979,-0.63941 0,-0.88194 z m 0.11914,-1.85209 c 0,-0.097 -0.0794,-0.17639 -0.17639,-0.17639 -0.097,0 -0.17639,0.0794 -0.17639,0.17639 0,0.097 0.0794,0.17639 0.17639,0.17639 0.097,0 0.17639,-0.0794 0.17639,-0.17639 z m -0.70556,-21.16666 c 0,-0.097 -0.0794,-0.17639 -0.17638,-0.17639 -0.097,0 -0.17639,0.0794 -0.17639,0.17639 0,0.097 0.0794,0.17639 0.17639,0.17639 0.097,0 0.17638,-0.0794 0.17638,-0.17639 z m 0.17639,-0.88195 c 0.11992,-0.19402 0.0499,-0.35277 -0.15557,-0.35277 -0.20547,0 -0.37359,0.15875 -0.37359,0.35277 0,0.19403 0.07,0.35278 0.15557,0.35278 0.0856,0 0.25368,-0.15875 0.37359,-0.35278 z m 49.56528,26.45834 c 0,-0.25871 0.10583,-0.36454 0.23518,-0.23519 0.12935,0.12935 0.12935,0.34102 0,0.47037 -0.12935,0.12935 -0.23518,0.0235 -0.23518,-0.23518 z m -1.41111,-0.17639 c 0,-0.097 0.0794,-0.17639 0.17638,-0.17639 0.097,0 0.17639,0.0794 0.17639,0.17639 0,0.097 -0.0794,0.17639 -0.17639,0.17639 -0.097,0 -0.17638,-0.0794 -0.17638,-0.17639 z m 0.21473,-1.03106 c 0.10593,-0.27604 0.42212,-0.58997 0.70265,-0.69762 0.40914,-0.157 0.43619,-0.0577 0.1367,0.50189 -0.42525,0.79458 -1.13243,0.95949 -0.83935,0.19573 z m -104.90153,-3.6123 c -0.50463,-0.20363 -0.59948,-0.8247 -0.12594,-0.8247 0.17327,0 0.40641,0.23813 0.5181,0.52917 0.11168,0.29104 0.16835,0.51663 0.12593,0.50131 -0.0424,-0.0153 -0.27556,-0.10792 -0.51809,-0.20578 z m -0.44097,-1.35387 c 0,-0.097 0.0794,-0.17638 0.17639,-0.17638 0.097,0 0.17638,0.0794 0.17638,0.17638 0,0.097 -0.0794,0.17639 -0.17638,0.17639 -0.097,0 -0.17639,-0.0794 -0.17639,-0.17639 z m 111.47777,-5.99722 c 0,-0.097 0.0794,-0.17639 0.17638,-0.17639 0.097,0 0.17639,0.0794 0.17639,0.17639 0,0.097 -0.0794,0.17639 -0.17639,0.17639 -0.097,0 -0.17638,-0.0794 -0.17638,-0.17639 z m -75.1416698,-2.2833 c 0,-0.47821 0.62692,-0.77517 0.85555,-0.40525 0.1093,0.17686 -0.0385,0.41259 -0.32841,0.52385 -0.28992,0.11125 -0.52714,0.0579 -0.52714,-0.1186 z m -0.59204,-8.15568 c 0.12532,-3.95995 0.32901,-7.7856 0.45264,-8.50146 0.21575,-1.24922 1.05009,-2.02226 1.55856,-1.44404 0.36039,0.40983 -0.0437,17.03309 -0.41405,17.03309 -0.17445,0 -0.41244,-0.47625 -0.52886,-1.05833 -0.11641,-0.58208 -0.36908,-1.05833 -0.56147,-1.05833 -0.19239,0 -0.27321,0.40066 -0.1796,0.89036 0.0936,0.4897 0.007,0.99122 -0.19244,1.11449 -0.24661,0.15242 -0.28974,-2.07937 -0.13478,-6.97578 z m 0.59204,4.08898 c 0,-0.097 -0.0794,-0.17639 -0.17638,-0.17639 -0.097,0 -0.17639,0.0794 -0.17639,0.17639 0,0.097 0.0794,0.17639 0.17639,0.17639 0.097,0 0.17638,-0.0794 0.17638,-0.17639 z m 0.70556,-9.17222 c 0,-0.097 -0.0794,-0.17639 -0.17639,-0.17639 -0.097,0 -0.17639,0.0794 -0.17639,0.17639 0,0.097 0.0794,0.17639 0.17639,0.17639 0.097,0 0.17639,-0.0794 0.17639,-0.17639 z m 0,-1.41111 c 0,-0.097 -0.0794,-0.17639 -0.17639,-0.17639 -0.097,0 -0.17639,0.0794 -0.17639,0.17639 0,0.097 0.0794,0.17639 0.17639,0.17639 0.097,0 0.17639,-0.0794 0.17639,-0.17639 z m 0.35278,-1.05833 c 0,-0.097 -0.0794,-0.17639 -0.17639,-0.17639 -0.097,0 -0.17639,0.0794 -0.17639,0.17639 0,0.097 0.0794,0.17639 0.17639,0.17639 0.097,0 0.17639,-0.0794 0.17639,-0.17639 z m 41.0906298,13.67014 c -0.32374,-0.76914 -0.92549,-16.26495 -0.66443,-17.10973 0.23145,-0.74895 0.63188,-0.78388 1.30219,-0.11356 0.30973,0.30973 0.59107,1.63465 0.73037,3.43958 0.30389,3.9376 0.34556,13.57161 0.0607,14.03254 -0.35353,0.57202 -1.14104,0.43487 -1.42882,-0.24883 z m -62.22333,-4.29307 c -0.40692,-0.25763 -0.44945,-1.18426 -0.23858,-5.19807 0.33888,-6.45055 0.89259,-9.19657 0.73596,-3.64984 -0.063,2.23132 -0.22582,4.49455 -0.36178,5.02941 -0.30581,1.20292 0.0958,3.53291 0.55957,3.2463 0.18739,-0.11581 0.25615,-0.34738 0.15281,-0.5146 -0.10335,-0.16721 -0.0266,-0.40373 0.17063,-0.52561 0.21301,-0.13164 0.35853,0.21642 0.35853,0.85757 0,1.09781 -0.44776,1.34324 -1.37714,0.75484 z m 10.0789902,-1.67476 c -0.6153,-0.61531 0.0336,-8.80238 1.23348002,-15.56172 0.4229,-2.3824 0.8895,-4.20803 1.03689,-4.05695 0.14739,0.15108 0.0429,1.46532 -0.23219,2.92052 -1.60209002,8.4747 -1.73655002,9.525 -1.21941002,9.525 0.25075002,0 0.38726002,0.51603 0.34996002,1.32292 -0.0959,2.07359 0.0807,2.51494 0.38814,0.97014 0.19061,-0.95776 0.22419,-0.50758 0.10452,1.40124 -0.19515,3.11308 -0.78728002,4.35296 -1.66139002,3.47885 z m 0.82315,-6.2912 c 0,-0.097 -0.0794,-0.17639 -0.17639,-0.17639 -0.097,0 -0.17638,0.0794 -0.17638,0.17639 0,0.097 0.0794,0.17639 0.17638,0.17639 0.097,0 0.17639,-0.0794 0.17639,-0.17639 z m -9.8777702,4.58611 c 0,-0.097 0.0794,-0.17639 0.17638,-0.17639 0.097,0 0.17639,0.0794 0.17639,0.17639 0,0.097 -0.0794,0.17639 -0.17639,0.17639 -0.097,0 -0.17638,-0.0794 -0.17638,-0.17639 z m -0.12221,-1.85208 c 0.1247,-0.72761 0.21331,-1.59761 0.19691,-1.93334 -0.0164,-0.33572 0.13111,-0.70986 0.32779,-0.83142 0.23594,-0.14582 0.26924,0.36186 0.0979,1.49236 -0.14285,0.94235 -0.26095,1.91181 -0.26245,2.15434 -0.001,0.24254 -0.13416,0.44097 -0.29479,0.44097 -0.16063,0 -0.19003,-0.59531 -0.0653,-1.32291 z m 0.47498,-3.79236 c 0,-0.097 0.0794,-0.17639 0.17639,-0.17639 0.097,0 0.17639,0.0794 0.17639,0.17639 0,0.097 -0.0794,0.17638 -0.17639,0.17638 -0.097,0 -0.17639,-0.0794 -0.17639,-0.17638 z m 10.66518022,-0.88195 c 0,-0.6791 0.0726,-0.95691 0.16133,-0.61736 0.0887,0.33955 0.0887,0.89517 0,1.23472 -0.0887,0.33955 -0.16133,0.0617 -0.16133,-0.61736 z m -0.7874,0.52917 c 0,-0.097 0.0794,-0.17639 0.17639,-0.17639 0.097,0 0.17639,0.0794 0.17639,0.17639 0,0.097 -0.0794,0.17639 -0.17639,0.17639 -0.097,0 -0.17639,-0.0794 -0.17639,-0.17639 z m 0.9871,-3.175 c -0.26609,-0.8723 -0.1361,-3.61443 0.18664,-3.93717 0.5255,-0.5255 0.64242998,0.29607 0.34345,2.41315 -0.20314,1.43846 -0.39123,1.97922 -0.53009,1.52402 z m 27.94067978,-0.35278 c 0,-0.097 0.0794,-0.17639 0.17639,-0.17639 0.097,0 0.17638,0.0794 0.17638,0.17639 0,0.097 -0.0794,0.17639 -0.17638,0.17639 -0.097,0 -0.17639,-0.0794 -0.17639,-0.17639 z m -38.0999998,-2.11667 c 0,-0.097 0.0794,-0.17639 0.17639,-0.17639 0.097,0 0.17639,0.0794 0.17639,0.17639 0,0.097 -0.0794,0.17639 -0.17639,0.17639 -0.097,0 -0.17639,-0.0794 -0.17639,-0.17639 z m 10.9609,-2.85162 c 0.0136,-0.56591 0.16538,-1.34643 0.33721,-1.73449 0.2086,-0.47112 0.24266,-0.17808 0.1025,0.88195 -0.24721,1.86963 -0.47485,2.311 -0.43971,0.85254 z m 8.2692,0.21179 c -0.35674,-0.5772 0.19566,-2.71063 0.7018398,-2.71063 0.50618,0 1.05858,2.13343 0.70185,2.71063 -0.11788,0.19073 -0.43371,0.34678 -0.70185,0.34678 -0.2681398,0 -0.5839698,-0.15605 -0.7018398,-0.34678 z m 0.7606398,-1.29952 c -0.1293498,-0.12935 -0.2351898,-0.0235 -0.2351898,0.23519 0,0.2587 0.10584,0.36453 0.2351898,0.23518 0.12935,-0.12935 0.12935,-0.34102 0,-0.47037 z m -25.63518,-3.1162 c 0,-0.29104 0.15875,-0.52917 0.35277,-0.52917 0.19403,0 0.35278,0.23813 0.35278,0.52917 0,0.29104 -0.15875,0.52917 -0.35278,0.52917 -0.19402,0 -0.35277,-0.23813 -0.35277,-0.52917 z m 1.41111,0.15557 c 0,-0.20548 0.15875,-0.27549 0.35277,-0.15557 0.19403,0.11991 0.35278,0.28803 0.35278,0.3736 0,0.0856 -0.15875,0.15557 -0.35278,0.15557 -0.19402,0 -0.35277,-0.16812 -0.35277,-0.3736 z m 15.8749902,0.19721 c 0,-0.097 0.0794,-0.17639 0.17639,-0.17639 0.097,0 0.17639,0.0794 0.17639,0.17639 0,0.097 -0.0794,0.17639 -0.17639,0.17639 -0.097,0 -0.17639,-0.0794 -0.17639,-0.17639 z m -1.41110998,-1.41111 c 0,-0.097 0.0794,-0.17639 0.17639,-0.17639 0.097,0 0.17639,0.0794 0.17639,0.17639 0,0.097 -0.0794,0.17638 -0.17639,0.17638 -0.097,0 -0.17639,-0.0794 -0.17639,-0.17638 z m 1.76388998,0 c 0,-0.097 0.0794,-0.17639 0.17639,-0.17639 0.097,0 0.17639,0.0794 0.17639,0.17639 0,0.097 -0.0794,0.17638 -0.17639,0.17638 -0.097,0 -0.17639,-0.0794 -0.17639,-0.17638 z m -16.9333302,-1.41112 c 0,-0.097 0.0794,-0.17638 0.17639,-0.17638 0.097,0 0.17639,0.0794 0.17639,0.17638 0,0.097 -0.0794,0.17639 -0.17639,0.17639 -0.097,0 -0.17639,-0.0794 -0.17639,-0.17639 z m 1.57859,-1.13489 0.246,-1.31128 -0.76544,0.87031 c -0.82407,0.93698 -0.81,0.78519 0.18914,-2.04011 0.64034,-1.81069 1.46689,-2.63077 1.06668,-1.05833 l -0.20202,0.79375 0.40855,-0.79375 c 0.79612,-1.54676 0.87253,-0.75736 0.19634,2.02847 -0.37676,1.55222 -0.84257,2.82222 -1.03514,2.82222 -0.21296,0 -0.25374,-0.51368 -0.10411,-1.31128 z m 0.42048,-2.0989 c -0.12935,-0.12935 -0.23518,-0.0235 -0.23518,0.23518 0,0.25871 0.10583,0.36454 0.23518,0.23519 0.12936,-0.12935 0.12936,-0.34102 0,-0.47037 z m 0.49823,-3.49838 c 0.0169,-0.41097 0.10052,-0.49456 0.21313,-0.21314 0.10191,0.25466 0.0894,0.55893 -0.0279,0.67616 -0.11722,0.11722 -0.2006,-0.0911 -0.18528,-0.46302 z m -33.54174,46.59606 c 0,-0.097 -0.0794,-0.17639 -0.17639,-0.17639 -0.097,0 -0.17639,0.0794 -0.17639,0.17639 0,0.097 0.0794,0.17639 0.17639,0.17639 0.097,0 0.17639,-0.0794 0.17639,-0.17639 z m -1.76766,-0.68272 c -2.43325,-0.8971 -5.53115,-2.63282 -7.38508,-4.13778 -1.03629,-0.84122 -2.28196,-1.83774 -2.76816,-2.21449 l -0.88399,-0.68498 0.64139,0.97888 c 1.38533,2.11428 5.69162,5.08058 8.81211,6.07006 1.88316,0.59713 3.20852,0.58735 1.58373,-0.0117 z m 154.586345,-0.42787 c 0.90938,-0.28535 2.57626,-1.12405 3.70417,-1.86379 2.11078,-1.38434 5.12742,-4.25756 4.47007,-4.25756 -0.20333,0 -0.67211,0.3368 -1.04173,0.74845 -1.04514,1.16397 -4.55517,3.44505 -6.95937,4.5227 -1.19863,0.53728 -2.57621,1.15434 -3.06128,1.37125 -0.85733,0.38339 -0.85241,0.38886 0.17639,0.19608 0.58208,-0.10908 1.80237,-0.43179 2.71175,-0.71713 z m -135.179795,-2.06441 c 0,-0.097 -0.0794,-0.17639 -0.17639,-0.17639 -0.097,0 -0.17639,0.0794 -0.17639,0.17639 0,0.097 0.0794,0.17639 0.17639,0.17639 0.097,0 0.17639,-0.0794 0.17639,-0.17639 z m -9.88927,-0.75617 c 1.25789,-0.25158 1.23751,-0.005 0.34581,-4.18272 -0.36893,-1.7284 -0.77511,-2.47257 -2.21436,-4.05694 -2.01685,-2.22021 -3.94181,-6.00555 -4.4646,-8.7794 -1.07496,-5.70358 0.20644,-10.65359 3.84593,-14.85671 1.56006,-1.80166 1.69739,-2.11671 1.92225,-4.40972 0.13319,-1.3582 0.27769,-2.78695 0.32112,-3.175 0.0635,-0.56772 -0.162,-0.72842 -1.15436,-0.82258 -3.31335,-0.31437 -8.78643,1.82742 -12.26777,4.80077 -1.02268,0.87345 -2.64565,2.76361 -3.6066,4.20035 -7.39082,11.05019 -2.4888,26.66142 9.69474,30.87439 1.7951,0.62073 5.51235,0.82065 7.57784,0.40756 z m 142.613865,-1.08469 c 9.99895,-4.69004 14.08019,-15.51039 9.88406,-26.20497 -2.94046,-7.49428 -10.43908,-13.08215 -17.508905,-13.04738 -1.87716,0.009 -1.95381,0.19262 -1.53255,3.66661 0.36398,3.00164 0.44888,3.215 1.89513,4.76229 3.847955,4.11678 5.231935,9.87056 3.817505,15.87099 -0.71878,3.04932 -2.703675,6.71309 -4.599585,8.49008 -1.23859,1.1609 -1.56082,1.70466 -1.56082,2.63387 0,0.64402 -0.23812,1.84586 -0.52917,2.67076 -0.29104,0.8249 -0.52916,1.56435 -0.52916,1.64322 0,0.50624 2.05565,0.8078 4.93889,0.72451 2.907255,-0.084 3.665895,-0.24433 5.724605,-1.20998 z m -22.657945,-3.09803 c 0,-0.097 -0.0794,-0.17639 -0.17638,-0.17639 -0.097,0 -0.17639,0.0794 -0.17639,0.17639 0,0.097 0.0794,0.17639 0.17639,0.17639 0.097,0 0.17638,-0.0794 0.17638,-0.17639 z m -143.06871,-5.14844 c -2.54249,-7.13288 -2.51914,-13.14515 0.0764,-19.67687 3.16494,-7.9646 10.09082,-13.4595 18.99093,-15.06714 l 1.41111,-0.25489 -1.94028,-0.63047 c -2.54368,-0.82654 -7.97845,-0.88311 -10.6075,-0.11042 -9.20831,2.70638 -13.00653,9.18862 -12.58921,21.48546 0.14606,4.30401 0.30889,5.36969 1.26665,8.29027 0.95606,2.91541 3.49161,7.97271 3.82838,7.63594 0.0647,-0.0647 -0.13177,-0.817 -0.43649,-1.67188 z m 33.92357,0.57028 c 5.99674,-1.78084 9.33486,-10.78694 6.3858,-17.22855 -2.01238,-4.39562 -5.7302,-6.84634 -9.83974,-6.48617 -5.14729,0.45112 -9.13342,4.87834 -9.67915,10.75023 -0.80706,8.68361 5.75042,15.15691 13.13309,12.96449 z m 118.87993,-0.46347 c 3.99378,-2.0394 6.332,-7.51359 5.49785,-12.87148 -0.73327,-4.70991 -3.89685,-8.86209 -7.58708,-9.95796 -4.89251,-1.45293 -9.22133,0.55815 -11.59949,5.38888 -1.07461,2.18285 -1.1597,2.60987 -1.13936,5.71783 0.0271,4.14625 0.87906,6.57594 3.21785,9.17724 2.47864,2.75684 4.36799,3.57219 7.87267,3.39745 1.43574,-0.0716 2.83311,-0.39011 3.73756,-0.85196 z m 29.376415,-4.48337 c 1.42813,-3.96445 1.95667,-8.05704 1.71618,-13.28882 -0.23626,-5.13973 -1.02266,-8.01629 -3.02862,-11.07829 -2.27864,-3.47825 -5.13734,-5.65904 -9.23739,-7.04685 -2.65764,-0.89957 -7.93313,-0.91028 -10.569705,-0.0215 -2.72201,0.91762 -2.93553,1.27292 -0.76498,1.27292 3.996735,0 10.037995,2.95959 13.779255,6.75041 4.94695,5.01248 7.07517,10.36226 7.08794,17.81721 0.005,2.69081 -0.21244,4.41856 -0.87582,6.97177 -0.48507,1.86693 -0.87699,3.59087 -0.87094,3.83098 0.0215,0.85246 1.76283,-2.42843 2.76408,-5.20788 z m -99.788975,-9.525 c 0,-0.097 -0.0794,-0.17639 -0.17639,-0.17639 -0.097,0 -0.17639,0.0794 -0.17639,0.17639 0,0.097 0.0794,0.17639 0.17639,0.17639 0.097,0 0.17639,-0.0794 0.17639,-0.17639 z m -36.68888,-4.58611 c 0,-0.097 -0.0794,-0.17639 -0.17639,-0.17639 -0.097,0 -0.17639,0.0794 -0.17639,0.17639 0,0.097 0.0794,0.17639 0.17639,0.17639 0.097,0 0.17639,-0.0794 0.17639,-0.17639 z m 92.07979,-4.87698 c 1.92137,-2.10228 5.13941,-3.97411 7.47412,-4.34745 0.73729,-0.11789 1.34052,-0.25912 1.34052,-0.31384 0,-0.0547 -0.48256,-1.58224 -1.07235,-3.3945 -1.23283,-3.78808 -4.8703,-11.2325 -5.4884,-11.2325 -0.22915,0 -0.76947,0.2857 -1.20071,0.6349 l -0.78408,0.6349 1.80333,4.14188 c 1.90193,4.36837 2.13633,5.51444 1.27416,6.22998 -0.74152,0.61541 -1.35249,0.0264 -2.10927,-2.03348 -1.17279,-3.19218 -2.75993,-6.43314 -3.14643,-6.42505 -0.21381,0.004 -1.68099,0.76569 -3.2604,1.6916 l -2.87166,1.68347 0.78247,1.92437 c 1.06406,2.61693 2.05825,6.05455 3.20449,11.08021 l 0.96179,4.21695 0.64783,-1.26275 c 0.3563,-0.69451 1.45637,-2.14742 2.44459,-3.22869 z m -54.33258,-1.12024 c 0,-0.097 -0.0794,-0.17639 -0.17638,-0.17639 -0.097,0 -0.17639,0.0794 -0.17639,0.17639 0,0.097 0.0794,0.17639 0.17639,0.17639 0.097,0 0.17638,-0.0794 0.17638,-0.17639 z m -11.28888,-2.11667 c 0,-0.097 -0.0794,-0.17638 -0.17639,-0.17638 -0.097,0 -0.17639,0.0794 -0.17639,0.17638 0,0.097 0.0794,0.17639 0.17639,0.17639 0.097,0 0.17639,-0.0794 0.17639,-0.17639 z m 80.54773,-1.32291 c -0.362,-1.88035 -2.90863,-9.06582 -4.21864,-11.90316 -1.43716,-3.11272 -4.19024,-7.88768 -4.87584,-8.45668 -0.38519,-0.31968 -0.53205,-0.16926 -0.73444,0.75223 -0.13914,0.6335 -0.40774,1.39963 -0.5969,1.70252 -0.25881,0.41441 0.21895,1.55666 1.93032,4.6151 2.46003,4.39641 4.85607,10.16014 4.85437,11.67729 -0.001,1.16829 0.83662,2.05367 1.9436,2.05367 0.45976,0 0.93404,0.15875 1.05396,0.35278 0.47144,0.76281 0.85271,0.29257 0.64357,-0.79375 z m -5.75885,-11.72986 c 0,-0.097 0.0794,-0.17639 0.17639,-0.17639 0.097,0 0.17639,0.0794 0.17639,0.17639 0,0.097 -0.0794,0.17639 -0.17639,0.17639 -0.097,0 -0.17639,-0.0794 -0.17639,-0.17639 z m -41.80416,6.72842 c 15.67881,-2.5081 25.72163,-6.22761 31.56,-11.68872 3.31841,-3.10399 4.06159,-7.06779 1.90142,-10.14134 -1.20737,-1.71788 -4.86354,-4.76559 -6.08597,-5.07314 -0.48278,-0.12147 -1.83773,0.11783 -3.15214,0.5567 -2.62418,0.87619 -6.58862,1.48607 -8.76839,1.34891 l -1.4784,-0.093 1.89269,1.77276 c 1.41408,1.32448 1.95503,2.11296 2.13923,3.1181 1.11288,6.07276 -10.09229,10.86921 -27.7675,11.88607 -19.1213,1.10006 -37.4296798,-3.49316 -38.5906398,-9.68163 -0.51914,-2.76723 0.80843,-4.5401 4.89896002,-6.54223 3.17455998,-1.5538 5.76991998,-2.31248 8.92184998,-2.60805 1.9440198,-0.1823 1.9758398,-0.1737 0.51006,0.13792 -2.42876,0.51636 -6.00474,1.76021 -8.13812,2.83073 -2.10429998,1.05594 -3.30832,2.17576 -3.68915,3.43114 -0.37022,1.22046 0.4401,3.16527 1.72821002,4.14775 2.43499998,1.85727 11.26107978,4.23048 17.21857978,4.62984 l 3.43959,0.23057 v -11.85027 c 0,-6.51764 -0.13114,-11.9313 -0.29141,-12.03036 -0.3386,-0.20927 -9.31729,0.61543 -12.9377598,1.18834 -1.35819,0.21492 -4.43011,0.87025 -6.82647998,1.4563 -15.13220022,3.70065 -23.74251022,10.49666 -21.58427022,17.03619 1.52802,4.62995 9.37522,9.69249 20.0852502,12.95779 3.66755,1.11818 13.0188498,2.94714 17.6741098,3.45678 4.70837,0.51544 23.14697,0.19367 27.34028,-0.47713 z m 52.77878,-5.26911 c 1.43403,-0.65259 3.401075,-1.38095 4.371215,-1.61857 2.52007,-0.61726 8.23327,-0.5506 9.82543,0.11465 0.70789,0.29577 1.28707,0.40532 1.28707,0.24344 0,-0.84307 -7.53375,-7.11927 -10.13285,-8.44144 l -1.4898,-0.75786 -2.390765,0.95073 c -1.80384,0.71734 -2.93051,1.4878 -4.58941,3.13845 l -2.19865,2.18771 1.12061,2.68471 c 0.61633,1.47658 1.22618,2.6847 1.35522,2.6847 0.12903,0 1.40791,-0.53394 2.84193,-1.18652 z m -132.55846,-1.37112 c 0.51473,-1.21267 0.93542,-2.49302 0.93486,-2.84523 -10e-4,-0.93471 -3.42955,-4.20055 -5.41282,-5.15666 -0.9392,-0.45277 -2.36795,-0.89532 -3.175,-0.98342 -1.32074,-0.14419 -1.73062,0.0254 -4.10211,1.69777 -3.03257,2.13851 -8.42018,7.1973 -8.05478,7.56318 0.13561,0.1358 0.77061,0.0581 1.41111,-0.17265 1.77369,-0.63903 7.59376,-0.87113 10.24904,-0.40873 1.28532,0.22382 3.33899,0.86852 4.56372,1.43264 1.22473,0.56413 2.32202,1.03745 2.43843,1.05183 0.11642,0.0144 0.63281,-0.96605 1.14755,-2.17873 z m 70.37157,-5.02638 c 0.0876,-0.0876 0.19222,-12.58541 0.23259,-27.773 l 0.0734,-27.61381 h -5.59132 -5.59131 l 10e-6,27.75185 c 10e-6,21.85735 0.0937,27.79524 0.44099,27.9561 0.49186,0.22783 10.18496,-0.0705 10.43564,-0.32114 z m 9.38269,-0.75305 c 1.9263,-0.30081 5.08149,-1.01605 7.01153,-1.58943 6.18785,-1.83826 8.36742,-3.38004 8.35187,-5.90788 -0.01,-1.60962 -0.69044,-2.45177 -3.34354,-4.13749 -2.0775,-1.32 -2.32242,-1.37935 -6.24953,-1.51459 -1.92958,-0.0664 -5.04702,-3.78463 -6.176,-7.36615 -0.68694,-2.17922 -1.26154,-2.54461 -4.0016,-2.54461 h -1.74092 v 11.75926 c 0,6.46759 0.0785,11.83773 0.17438,11.93364 0.20969,0.2097 1.35768,0.0881 5.97381,-0.63275 z m 51.70223,-4.95726 c 0.97256,-0.54624 1.76846,-1.08392 1.76866,-1.19484 5.2e-4,-0.29349 -4.73777,-2.95083 -7.40798,-4.15455 -2.91963,-1.31616 -6.82762,-2.52294 -8.17019,-2.52294 h -1.04033 l 2.2645,2.91041 c 1.24548,1.60073 3.25508,4.45996 4.46578,6.35383 l 2.20127,3.44342 2.075,-1.92108 c 1.14125,-1.0566 2.87073,-2.36801 3.84329,-2.91425 z m -127.00677,2.10764 c 1.08559,-2.09929 2.58712,-4.13686 6.3896,-8.6707 0.61653,-0.7351 1.03085,-1.42666 0.92072,-1.53679 -0.34222,-0.34222 -5.29602,0.81523 -7.83294,1.83016 -1.32881,0.5316 -3.97093,1.85597 -5.87138,2.94304 l -3.45537,1.97648 1.20048,0.41562 c 1.83874,0.63659 4.83817,2.67533 6.01573,4.08894 0.58166,0.69826 1.13694,1.28043 1.23396,1.29372 0.097,0.0133 0.72665,-1.03992 1.3992,-2.34047 z m 93.6744,-12.78857 c 0.75498,-0.18238 0.28566,-0.26787 -1.63733,-0.29824 -1.48261,-0.0234 -2.83198,-0.0671 -2.99861,-0.0971 -0.16662,-0.03 -0.54107,-0.0246 -0.83212,0.012 -0.37784,0.0475 -0.3274,0.15328 0.17639,0.36976 0.84426,0.3628 3.81466,0.37045 5.29167,0.0136 z m 4.23333,-0.90233 c 1.99294,-0.53124 4.85893,-2.03751 6.17001,-3.24275 0.48308,-0.44409 0.99344,-0.80743 1.13411,-0.80743 0.14068,0 0.42984,-0.32523 0.64257,-0.72274 0.27827,-0.51995 -0.30537,-0.26247 -2.08014,0.91767 -1.47393,0.9801 -2.64058,1.53308 -2.89833,1.37378 -0.28896,-0.17859 -0.34058,-0.11966 -0.15633,0.17846 0.19838,0.32097 0.0844,0.38457 -0.4086,0.22809 -0.46522,-0.14765 -0.91852,0.0531 -1.41865,0.62831 -0.40424,0.46492 -1.34678,1.04098 -2.09453,1.28015 -0.74775,0.23916 -1.5183,0.59778 -1.71233,0.79692 -0.23991,0.24624 -0.12705,0.27852 0.35278,0.1009 0.38805,-0.14365 1.4993,-0.47276 2.46944,-0.73136 z m 1.35232,-1.46315 c 0.12935,-0.12935 0.34102,-0.12935 0.47037,0 0.12935,0.12935 0.0235,0.23519 -0.23519,0.23519 -0.2587,0 -0.36454,-0.10584 -0.23518,-0.23519 z m -15.63982,1.60856 c 0,-0.21479 -0.21283,-0.30885 -0.47296,-0.20903 -0.74335,0.28525 -1.09314,-0.15456 -1.56136,-1.96316 -0.66055,-2.55151 -0.58885,-3.13214 0.35863,-2.90437 0.46767,0.11243 1.25455,-0.0939 1.91544,-0.50215 1.24772,-0.77083 4.6451,-4.84605 4.72894,-5.67244 0.0295,-0.29104 0.1558,-0.0529 0.28061,0.52917 l 0.22693,1.05833 0.75533,-1.23472 c 0.68787,-1.12444 0.90419,-1.92417 1.38365,-5.11528 0.29094,-1.93644 0.1399,-6.33356 -0.25955,-7.556 -0.55194,-1.68913 -1.67807,-3.51393 -2.41037,-3.90585 -0.46374,-0.24819 -1.1385,-0.024 -2.69381,0.89488 -5.68578,3.35928 -8.49498,9.1818 -8.16193,16.91697 0.17242,4.00471 0.9879,6.5901 2.75397,8.73125 0.80743,0.97889 1.35972,1.32292 2.12383,1.32292 0.56796,0 1.03265,-0.17574 1.03265,-0.39052 z m 2.64801,-2.72352 c -0.26843,-0.26842 -1.58967,1.04579 -1.58967,1.58121 0,0.26097 -0.15875,0.47449 -0.35278,0.47449 -0.19403,0 -0.34617,0.19844 -0.33809,0.44098 0.008,0.24253 0.5637,-0.1808 1.23473,-0.94074 0.67102,-0.75993 1.14164,-1.46011 1.04581,-1.55594 z m -3.70634,1.87931 c 0,-0.097 -0.0794,-0.17638 -0.17639,-0.17638 -0.097,0 -0.17639,0.0794 -0.17639,0.17638 0,0.097 0.0794,0.17639 0.17639,0.17639 0.097,0 0.17639,-0.0794 0.17639,-0.17639 z m 0.94074,-0.76435 c -0.12935,-0.12935 -0.23518,-0.0235 -0.23518,0.23519 0,0.2587 0.10583,0.36453 0.23518,0.23518 0.12935,-0.12935 0.12935,-0.34102 0,-0.47037 z m -62.71038,-3.118 c 6.9430302,-2.84368 16.9856002,-4.97467 25.08075,-5.32203 2.42535,-0.10407 4.76691,-0.2615 5.20348,-0.34984 l 0.79375,-0.16061 v -11.29324 c 0,-10.44749 -0.0462,-11.30754 -0.61737,-11.4843 -2.85361,-0.88319 -4.31778,-2.47535 -4.3202,-4.6979 -0.001,-1.29296 0.82309,-2.49722 1.70974,-2.49722 0.29886,0 0.98863,0.42657 1.53283,0.94794 l 0.98944,0.94795 v -1.60133 c 0,-2.13213 1.1124,-3.76268 3.31048,-4.85245 2.32247,-1.15145 8.05402,-1.46967 10.69159,-0.59361 2.71457,0.90164 4.66494,3.29812 4.71365,5.79182 l 0.0185,0.94718 0.55369,-0.79375 c 1.09464,-1.56924 3.28986,-0.56713 3.28986,1.50181 0,1.58159 -1.3227,3.3994 -3.0785,4.23083 l -1.48997,0.70555 0.0794,11.46528 0.0794,11.46527 2.15795,0.10382 2.15795,0.10381 0.24206,-2.77492 c 0.30113,-3.45216 1.86017,-8.04607 3.57614,-10.53758 2.76592,-4.016 8.39256,-8.19796 11.17048,-8.30239 1.62437,-0.0611 2.52999,0.50792 3.84082,2.41316 1.21553,1.76671 2.76102,5.75361 2.78173,7.17605 0.0255,1.75234 0.2949,1.83547 3.90989,1.20647 6.07651,-1.05729 13.67816,0.37213 16.02409,3.01319 1.73403,1.95218 -0.19398,7.65384 -4.46759,13.21191 l -0.78997,1.02741 2.62878,-0.23991 c 5.9483,-0.54287 17.2709,-2.06531 20.422945,-2.74607 8.7313,-1.88577 13.71272,-4.24284 18.43078,-8.72099 4.78575,-4.54238 7.72454,-9.56067 9.44457,-16.12753 1.41552,-5.40431 1.47158,-7.00276 1.34154,-38.24948 -0.12368,-29.71847 -0.13716,-30.21443 -0.91546,-33.69027 -2.4544,-10.96111 -7.50629,-21.5516 -14.01319,-29.37638 -7.80218,-9.38242 -23.955345,-19.55481 -40.372685,-25.42452 -8.67376,-3.10115 -16.33098,-4.91392 -27.16388,-6.43078 -7.82702,-1.09598 -25.23948,-1.3655 -33.51389,-0.51875 -17.6088898,1.80197 -31.63051,5.72588 -46.32171,12.96297 -12.06843,5.94509 -20.77658,12.48308 -27.15656,20.38885 -6.16278,7.63663 -10.78057,17.47124 -13.00313,27.69305 -1.02172,4.69902 -1.24522,14.94068 -0.98926,45.33194 l 0.19461,23.10695 1.11796,3.97672 c 1.76898,6.29244 4.02249,10.38297 7.9851,14.49442 4.29328,4.45453 8.67683,7.12027 15.06825,9.16336 6.75941,2.16073 13.42535,3.15515 31.88391,4.75642 0.77611,0.0673 1.52266,0.1491 1.659,0.18172 0.13634,0.0326 1.99408,-0.65589 4.1283,-1.53 z m 14.1446402,-58.20653 c 0,-0.097 0.0794,-0.17639 0.17639,-0.17639 0.097,0 0.17639,0.0794 0.17639,0.17639 0,0.097 -0.0794,0.17639 -0.17639,0.17639 -0.097,0 -0.17639,-0.0794 -0.17639,-0.17639 z m 0.35278,-0.70556 c 0,-0.097 0.0794,-0.17638 0.17639,-0.17638 0.097,0 0.17639,0.0794 0.17639,0.17638 0,0.097 -0.0794,0.17639 -0.17639,0.17639 -0.097,0 -0.17639,-0.0794 -0.17639,-0.17639 z m 0.70556,-0.35277 c 0,-0.097 0.0794,-0.17639 0.17639,-0.17639 0.097,0 0.17638,0.0794 0.17638,0.17639 0,0.097 -0.0794,0.17639 -0.17638,0.17639 -0.097,0 -0.17639,-0.0794 -0.17639,-0.17639 z m 0.35277,-0.66782 c 0,-0.0762 0.24637,-0.23318 0.54749,-0.34873 0.31395,-0.12047 0.45555,-0.0613 0.33196,0.13864 -0.20717,0.33521 -0.87945,0.49581 -0.87945,0.21009 z m -29.0651602,-0.89077 c -2.99,-0.83138 -6.87313,-2.7401 -9.18599,-4.51528 -3.24073,-2.48735 -6.96788,-8.26048 -8.49131,-13.15252 -0.40433,-1.2984 -0.64605,-3.5158 -0.73066,-6.70278 -0.0695,-2.61937 -0.14904,-5.23875 -0.17668,-5.82083 l -0.0503,-1.05833 -0.36744,0.92491 c -0.46625,1.17361 -2.33844,2.35853 -2.72873,1.72702 -0.1942,-0.31422 -0.33602,-0.32472 -0.51322,-0.038 -0.13467,0.21791 -0.43233,0.28376 -0.66146,0.14633 -0.23029,-0.13812 -0.19707,0.0207 0.0743,0.3551 0.42912,0.52886 0.41802,0.57701 -0.0882,0.38276 -0.33286,-0.12774 -0.57906,-0.0473 -0.57906,0.18913 0,0.22624 -0.15875,0.31323 -0.35278,0.19331 -0.33227,-0.20535 -0.51436,0.30057 -0.37273,1.03559 0.12557,0.6517 -0.35975,1.98802 -0.6556,1.80517 -0.80212,-0.49573 -0.64693,4.03502 0.30613,8.93725 0.20318,1.04513 0.3469,2.31513 0.31936,2.82222 -0.0351,0.64731 -0.12068,0.50159 -0.28711,-0.48912 -0.22937,-1.36542 -0.24605,-1.37998 -0.51519,-0.44956 -0.17966,0.62109 -0.0863,1.52447 0.26356,2.55137 0.65549,1.92374 0.12816,2.51864 -0.62812,0.70861 -5.65433,-13.53272 -2.7962,-28.04949 7.59661,-38.58404 9.76001,-9.89312 25.01445,-12.64616 37.5422802,-6.77542 7.84423,3.67593 13.36506,9.08767 17.1348298,16.79627 2.26365,4.62878 3.16496,8.15351 3.40538,13.31723 0.29894,6.42054 -0.71463,11.37006 -3.5044,17.11281 -1.62539,3.34587 -2.51807,4.33536 -1.13368,1.25663 1.30826,-2.90943 1.67299,-3.99746 1.42363,-4.24681 -0.11945,-0.11945 -0.21717,-0.0125 -0.21717,0.23759 0,0.35939 -0.1231,0.35323 -0.58693,-0.0294 -0.527,-0.43474 -0.54752,-0.4102 -0.201,0.2404 0.44346,0.83259 0.17792,1.37052 -0.71138,1.4411 -0.33955,0.0269 -0.61736,0.0246 -0.61736,-0.005 0,-0.0298 0.53962,-1.63936 1.19916,-3.57677 1.55635,-4.57179 1.8314,-6.64823 1.10915,-8.37327 -0.30464,-0.7276 -0.4327,-1.32535 -0.28457,-1.32832 0.14812,-0.003 0.0312,-0.15929 -0.25985,-0.34737 -0.45422,-0.29354 -0.4433,-0.34274 0.0771,-0.34738 0.4248,-0.004 0.53742,-0.18486 0.37623,-0.60493 -0.1439,-0.37499 -0.28288,-0.44105 -0.3711,-0.17639 -0.0776,0.23273 -0.40127,0.42314 -0.71931,0.42314 -0.44771,0 -0.40124,-0.12399 0.20578,-0.54917 0.9041,-0.63325 1.02207,-2.53785 0.30467,-4.91889 -0.4171,-1.38434 -1.19595,-1.69228 -1.01721,-0.40218 0.0695,0.50137 -0.0553,0.59548 -0.52916,0.39895 -0.34104,-0.14146 -0.8033798,-0.26474 -1.0274198,-0.27397 -0.22403,-0.009 -0.32546,-0.23014 -0.22539,-0.49091 0.12851,-0.33489 -0.0627,-0.43296 -0.651,-0.33392 -0.45811,0.0771 -0.79325,0.31695 -0.74474,0.53294 0.0485,0.21599 -0.0775,0.39271 -0.28005,0.39271 -0.20253,0 -0.32159,0.26134 -0.26458,0.58076 0.057,0.31942 -0.11688,0.65751 -0.38642,0.75132 -0.29877,0.10398 -0.39392,0.015 -0.24376,-0.22798 0.13547,-0.2192 0.0782,-0.39855 -0.12729,-0.39855 -0.20548,0 -0.38106,0.11906 -0.39018,0.26458 -0.009,0.14553 -0.0868,1.99383 -0.17256,4.10736 -0.24138,5.9465 -1.36493,9.65936 -4.35643,14.39606 -2.91528,4.61603 -7.14214,7.7904 -13.0933102,9.83308 -3.27225,1.12316 -9.46044,1.29458 -12.83739,0.35561 z m 35.65035,-10.84743 c -0.12935,-0.12935 -0.23519,-0.0235 -0.23519,0.23518 0,0.25871 0.10584,0.36454 0.23519,0.23519 0.12935,-0.12935 0.12935,-0.34102 0,-0.47037 z m -61.26574,-4.88009 c 0,-0.097 -0.0794,-0.17639 -0.17639,-0.17639 -0.097,0 -0.17638,0.0794 -0.17638,0.17639 0,0.097 0.0794,0.17639 0.17638,0.17639 0.097,0 0.17639,-0.0794 0.17639,-0.17639 z m 0,-0.70556 c 0,-0.097 -0.0794,-0.17639 -0.17639,-0.17639 -0.097,0 -0.17638,0.0794 -0.17638,0.17639 0,0.097 0.0794,0.17639 0.17638,0.17639 0.097,0 0.17639,-0.0794 0.17639,-0.17639 z m -0.47191,-2.38125 c -0.0979,-0.24253 -0.17794,-0.0441 -0.17794,0.44097 0,0.48507 0.0801,0.68351 0.17794,0.44098 0.0979,-0.24254 0.0979,-0.63941 0,-0.88195 z m 1.41265,-6.49699 c -0.12935,-0.12935 -0.34101,-0.12935 -0.47037,0 -0.12935,0.12935 -0.0235,0.23519 0.23519,0.23519 0.2587,0 0.36454,-0.10584 0.23518,-0.23519 z m 21.81343,-1.44354 c 5.07965,-2.6138 6.30835,-9.06975 2.54077,-13.34995 -1.98885,-2.25946 -3.79003,-3.11152 -6.59772,-3.12111 -1.88866,-0.006 -2.63301,0.1779 -4.22078,1.04529 -2.39525,1.30851 -4.0595,3.445 -4.61415,5.92341 -0.84563,3.77869 1.30694,7.83481 5.13077,9.66797 1.45039,0.69533 2.17143,0.82028 4.05694,0.70306 1.37273,-0.0853 2.85941,-0.43399 3.70417,-0.86867 z m -19.57917,-2.37822 c 0,-0.097 -0.0794,-0.17639 -0.17639,-0.17639 -0.097,0 -0.17638,0.0794 -0.17638,0.17639 0,0.097 0.0794,0.17639 0.17638,0.17639 0.097,0 0.17639,-0.0794 0.17639,-0.17639 z m 53.2694402,-0.48884 c 0,-0.17185 -0.23714,-0.76716 -0.52699,-1.32292 -0.53611,-1.02793 -0.69444,-0.59667 -0.30899,0.84162 0.20436,0.76258 0.83598,1.12622 0.83598,0.4813 z m -50.7999902,-0.21671 c 0,-0.097 -0.0794,-0.17639 -0.17639,-0.17639 -0.097,0 -0.17639,0.0794 -0.17639,0.17639 0,0.097 0.0794,0.17639 0.17639,0.17639 0.097,0 0.17639,-0.0794 0.17639,-0.17639 z m 55.03333,0 c 0,-0.097 -0.0794,-0.17639 -0.17639,-0.17639 -0.097,0 -0.17639,0.0794 -0.17639,0.17639 0,0.097 0.0794,0.17639 0.17639,0.17639 0.097,0 0.17639,-0.0794 0.17639,-0.17639 z m -0.35278,-1.02894 c 0,-0.27487 0.19844,-0.57064 0.44097,-0.65726 0.24254,-0.0866 0.30893,-0.29803 0.14755,-0.46981 -0.16637,-0.17709 -0.48699,-0.0476 -0.74044,0.299 -0.24586,0.33622 -0.5587698,0.49956 -0.6953598,0.36297 -0.13659,-0.13659 -0.1436,0.0246 -0.0156,0.35826 0.28096,0.73216 0.8628498,0.80422 0.8628498,0.10684 z m -2.0728898,-1.00541 c -0.34841,-0.34582 -0.38893,-0.3053 -0.19749,0.19748 0.13248,0.34792 0.32974,0.54371 0.43836,0.43509 0.10861,-0.10861 2.2e-4,-0.39327 -0.24087,-0.63257 z m -3.58659,-2.61632 c -0.24098,-0.74061 -0.67014,-1.66405 -0.95369,-2.05211 -0.56393,-0.77175 -0.56807,-0.7901 0.41817,1.85394 0.77845,2.08696 1.20095,2.24331 0.53552,0.19817 z m -45.9636702,0.71132 c -0.12935,-0.12936 -0.23518,-0.0235 -0.23518,0.23518 0,0.2587 0.10583,0.36454 0.23518,0.23519 0.12936,-0.12936 0.12936,-0.34102 0,-0.47037 z m 51.15123,-0.55857 c -0.0979,-0.24253 -0.1779398,-0.0441 -0.1779398,0.44097 0,0.48507 0.0801,0.68351 0.1779398,0.44098 0.0979,-0.24254 0.0979,-0.63941 0,-0.88195 z m -3.7614098,-1.34959 c 0,-0.16718 -0.23813,-0.21258 -0.52917,-0.1009 -0.29104,0.11168 -0.52917,0.33984 -0.52917,0.50702 0,0.16718 0.23813,0.21259 0.52917,0.10091 0.29104,-0.11169 0.52917,-0.33985 0.52917,-0.50703 z m 0.58796,0.14427 c -0.12935,-0.12935 -0.23519,-0.0235 -0.23519,0.23518 0,0.25871 0.10584,0.36454 0.23519,0.23519 0.12935,-0.12935 0.12935,-0.34102 0,-0.47037 z m 2.15997,-0.61118 c -0.25018,-0.27147 -0.51046,-0.44079 -0.5784,-0.37625 -0.20925,0.19878 0.32108,0.86983 0.68742,0.86983 0.19022,0 0.14117,-0.22211 -0.10902,-0.49358 z m -2.17647,-0.51673 c -0.0254,-0.34684 0.20409,-0.55763 0.57506,-0.52819 0.33955,0.0269 0.61736,-0.0921 0.61736,-0.26458 0,-0.17247 -0.16811,-0.31358 -0.37359,-0.31358 -0.20548,0 -0.27941,-0.15241 -0.16428,-0.33869 0.11513,-0.18628 -0.43113,-0.64813 -1.2139,-1.02632 -0.78277,-0.3782 -1.42323,-0.61132 -1.42323,-0.51806 0,0.38739 1.04832,1.17751 1.56231,1.17751 0.3049,0 0.55436,0.25757 0.55436,0.57236 0,0.46877 -0.0958,0.49288 -0.52917,0.1332 -0.3656,-0.30343 -0.52916,-0.31678 -0.52916,-0.0432 0,0.21779 0.16812,0.39598 0.3736,0.39598 0.20547,0 0.27388,0.16134 0.15201,0.35853 -0.12187,0.19719 -0.35273,0.27748 -0.51302,0.17841 -0.16029,-0.0991 -0.3672,0.0174 -0.45979,0.25883 -0.10082,0.26286 0.14899,0.45821 0.6227,0.48697 0.53169,0.0323 0.77718,-0.14122 0.74874,-0.52917 z m -1.27702,-0.92996 c 0,-0.097 -0.0794,-0.17639 -0.17639,-0.17639 -0.097,0 -0.17639,0.0794 -0.17639,0.17639 0,0.097 0.0794,0.17639 0.17639,0.17639 0.097,0 0.17639,-0.0794 0.17639,-0.17639 z m -0.70556,-0.70556 c 0,-0.097 -0.0794,-0.17639 -0.17638,-0.17639 -0.097,0 -0.17639,0.0794 -0.17639,0.17639 0,0.097 0.0794,0.17639 0.17639,0.17639 0.097,0 0.17638,-0.0794 0.17638,-0.17639 z m -0.70555,-0.70555 c 0,-0.097 -0.0794,-0.17639 -0.17639,-0.17639 -0.097,0 -0.17639,0.0794 -0.17639,0.17639 0,0.097 0.0794,0.17638 0.17639,0.17638 0.097,0 0.17639,-0.0794 0.17639,-0.17638 z m 0.35278,-1.05834 c 0,-0.097 -0.0794,-0.17639 -0.17639,-0.17639 -0.097,0 -0.17639,0.0794 -0.17639,0.17639 0,0.097 0.0794,0.17639 0.17639,0.17639 0.097,0 0.17639,-0.0794 0.17639,-0.17639 z m 65.2343798,40.20878 c -8.10315,-1.96746 -14.66193,-8.33506 -17.61533,-17.10184 -0.44489,-1.32061 -0.90946,-3.93872 -1.09546,-6.17361 -0.17763,-2.1343 -0.35174,-4.21128 -0.38689,-4.6155 -0.0352,-0.40423 -0.27714,-0.73496 -0.53772,-0.73496 -0.26059,0 -0.39702,0.20006 -0.30319,0.44458 0.0938,0.24452 -0.0581,0.63437 -0.3376,0.86634 -0.29639,0.24598 -0.5082,0.27388 -0.5082,0.0669 0,-0.38312 -1.25906,-0.82435 -1.54276,-0.54065 -0.37963,0.37963 0.22768,1.10533 0.77821,0.92992 0.50285,-0.16021 0.5114,-0.13324 0.059,0.18591 -0.38703,0.27302 -0.66435,0.23816 -1.03244,-0.12981 -0.43578,-0.43564 -0.564,-0.39845 -0.95617,0.27734 -2.04736,3.52803 -2.34133,6.66214 -1.07416,11.45198 0.26948,1.01864 0.3584,1.85208 0.1976,1.85208 -0.1608,0 -0.14148,0.39688 0.0429,0.88194 0.53474,1.4065 -0.21723,1.01925 -0.8563,-0.44097 -0.5191,-1.18609 -0.55808,-1.21345 -0.3769,-0.26458 0.11114,0.58208 0.25739,1.37944 0.32499,1.77191 0.0676,0.39246 0.61851,1.80658 1.22424,3.14248 1.68462,3.71536 1.00502,3.1927 -0.83585,-0.64283 -5.58314,-11.63267 -4.59,-24.82934 2.65759,-35.31334 9.23822,-13.36356 27.2177,-18.59736 41.39103,-12.04888 9.45746,4.36962 16.542295,12.49894 19.479645,22.35145 1.13434,3.80481 1.53871,10.9314 0.85926,15.14329 -0.63902,3.96129 -2.88288,10.14617 -3.81546,10.51682 -0.35766,0.14214 -0.36298,0.0185 -0.0261,-0.60731 0.23264,-0.4322 0.44906,-2.13519 0.48094,-3.78442 0.0319,-1.64924 0.30733,-4.27022 0.61214,-5.82441 0.48275,-2.46149 0.49483,-3.34838 0.0937,-6.87917 -0.44357,-3.90437 -1.39705,-7.70028 -2.04711,-8.14975 -0.17168,-0.11871 -0.3125,-0.31351 -0.31293,-0.43289 -0.003,-0.78301 -0.43116,-1.59981 -0.73913,-1.40947 -0.2284,0.14115 -0.25954,0.0528 -0.0824,-0.23388 0.17209,-0.27845 0.0803,-0.61413 -0.23193,-0.84826 -0.28421,-0.2131 -0.62098,-0.66526 -0.74838,-1.00481 -0.12741,-0.33955 -0.47476,-0.61736 -0.77189,-0.61736 -0.29713,0 -0.54024,-0.22114 -0.54024,-0.49143 0,-0.27028 -0.27781,-0.59718 -0.61736,-0.72645 -0.495,-0.18845 -0.52996,-0.14699 -0.17639,0.2092 0.65943,0.6643 0.53849,0.92048 -0.434545,0.92048 -0.48153,0 -0.78966,-0.1389 -0.68473,-0.30868 0.10492,-0.16977 -0.017,-0.31373 -0.27102,-0.3199 -0.2947,-0.007 -0.22563,-0.19013 0.19089,-0.50569 0.35898,-0.27196 0.54805,-0.66379 0.42016,-0.87073 -0.35432,-0.5733 -0.90204,-0.44852 -0.67125,0.15292 0.11232,0.2927 0.0102,0.52917 -0.22861,0.52917 -0.26628,0 -0.35664,0.28686 -0.23586,0.74875 l 0.1958,0.74875 -0.69756,-0.74875 c -0.38366,-0.41182 -1.01023,-0.74875 -1.39237,-0.74875 -0.6065,0 -0.6388,0.0897 -0.25418,0.70555 0.24235,0.38806 0.56119,0.70556 0.70855,0.70556 0.14735,0 0.26792,0.31267 0.26792,0.69482 0,0.38216 0.28585,1.21559 0.63524,1.85209 1.48365,2.70287 2.01128,5.52836 1.99477,10.68225 -0.0147,4.59607 -0.0915,5.15343 -1.10587,8.02965 -1.52104,4.31285 -3.01235,6.68057 -6.33117,10.0519 -2.43126,2.46973 -3.3691,3.149 -6.17361,4.47154 -1.81878,0.85769 -4.28228,1.80943 -5.47445,2.11498 -2.64629,0.67823 -8.33484,0.68771 -11.09108,0.0185 z m -25.72328,-14.456 c 0,-0.097 -0.0794,-0.17639 -0.17638,-0.17639 -0.097,0 -0.17639,0.0794 -0.17639,0.17639 0,0.097 0.0794,0.17639 0.17639,0.17639 0.097,0 0.17638,-0.0794 0.17638,-0.17639 z m 0,-0.88195 c 0,-0.19402 -0.07,-0.35277 -0.15556,-0.35277 -0.0856,0 -0.25369,0.15875 -0.3736,0.35277 -0.11992,0.19403 -0.0499,0.35278 0.15557,0.35278 0.20548,0 0.37359,-0.15875 0.37359,-0.35278 z m 63.852785,-0.52916 c 0,-0.097 -0.0794,-0.17639 -0.17639,-0.17639 -0.097,0 -0.17639,0.0794 -0.17639,0.17639 0,0.097 0.0794,0.17639 0.17639,0.17639 0.097,0 0.17639,-0.0794 0.17639,-0.17639 z m -64.205555,-0.35278 c 0,-0.097 -0.0794,-0.17639 -0.17639,-0.17639 -0.097,0 -0.17639,0.0794 -0.17639,0.17639 0,0.097 0.0794,0.17639 0.17639,0.17639 0.097,0 0.17639,-0.0794 0.17639,-0.17639 z m 0,-0.70556 c 0,-0.097 -0.0794,-0.17639 -0.17639,-0.17639 -0.097,0 -0.17639,0.0794 -0.17639,0.17639 0,0.097 0.0794,0.17639 0.17639,0.17639 0.097,0 0.17639,-0.0794 0.17639,-0.17639 z m 23.49416,-9.98175 c 1.81484,-0.92586 3.81273,-3.13038 4.37158,-4.8237 0.23903,-0.72427 0.37066,-2.31405 0.29282,-3.53655 -0.24193,-3.79939 -2.90783,-6.99883 -6.64799,-7.97848 -4.72272,-1.23702 -9.95326,2.22512 -10.88041,7.20184 -0.74403,3.99378 1.7747,8.10984 5.90985,9.65775 1.72674,0.64638 5.17199,0.38833 6.95415,-0.52086 z m -18.20957,-1.31566 c -0.24544,-0.29573 -0.53809,-0.44585 -0.65034,-0.3336 -0.11225,0.11226 0.0294,0.35179 0.31485,0.53229 0.74682,0.47231 0.8444,0.41452 0.33549,-0.19869 z m -1.05126,-0.34425 c 0,-0.097 -0.0794,-0.17639 -0.17639,-0.17639 -0.097,0 -0.17639,0.0794 -0.17639,0.17639 0,0.097 0.0794,0.17639 0.17639,0.17639 0.097,0 0.17639,-0.0794 0.17639,-0.17639 z m 1.41111,-0.88195 c 0,-0.19402 -0.07,-0.35277 -0.15557,-0.35277 -0.0856,0 -0.25368,0.15875 -0.3736,0.35277 -0.11991,0.19403 -0.0499,0.35278 0.15557,0.35278 0.20548,0 0.3736,-0.15875 0.3736,-0.35278 z m 48.91852,-10.81851 c -0.12936,-0.12936 -0.23519,-0.0235 -0.23519,0.23518 0,0.2587 0.10583,0.36454 0.23519,0.23519 0.12935,-0.12936 0.12935,-0.34102 0,-0.47037 z m -92.3101798,39.92268 c 0,-0.097 0.0794,-0.17639 0.17639,-0.17639 0.097,0 0.17639,0.0794 0.17639,0.17639 0,0.097 -0.0794,0.17639 -0.17639,0.17639 -0.097,0 -0.17639,-0.0794 -0.17639,-0.17639 z m 44.2399198,-0.58368 c -0.15596,-0.25234 -0.0968,-0.31152 0.15557,-0.15556 0.224,0.13844 0.40728,0.32172 0.40728,0.40728 0,0.29427 -0.31152,0.15495 -0.56285,-0.25172 z m -41.7704798,-1.88577 c 0,-0.097 0.0794,-0.17639 0.17639,-0.17639 0.097,0 0.17639,0.0794 0.17639,0.17639 0,0.097 -0.0794,0.17639 -0.17639,0.17639 -0.097,0 -0.17639,-0.0794 -0.17639,-0.17639 z m 0.70556,-0.70555 c 0,-0.097 0.0794,-0.17639 0.17639,-0.17639 0.097,0 0.17639,0.0794 0.17639,0.17639 0,0.097 -0.0794,0.17639 -0.17639,0.17639 -0.097,0 -0.17639,-0.0794 -0.17639,-0.17639 z m 0.35278,-0.66236 c 0,-0.0733 0.27781,-0.35107 0.6173598,-0.61736 0.55952,-0.43881 0.572,-0.42633 0.13319,0.13319 -0.4608598,0.58764 -0.7505498,0.77452 -0.7505498,0.48417 z m 94.5444348,-1.80709 c 0,-0.097 0.0794,-0.17638 0.17639,-0.17638 0.097,0 0.17639,0.0794 0.17639,0.17638 0,0.097 -0.0794,0.17639 -0.17639,0.17639 -0.097,0 -0.17639,-0.0794 -0.17639,-0.17639 z m -93.133325,-2.99861 c 0,-0.2587 0.10583,-0.36453 0.23518,-0.23518 0.12935,0.12935 0.12935,0.34102 0,0.47037 -0.12935,0.12935 -0.23518,0.0235 -0.23518,-0.23519 z m 34.92499,-1.23472 c 0,-0.097 0.0794,-0.17639 0.17639,-0.17639 0.097,0 0.17639,0.0794 0.17639,0.17639 0,0.097 -0.0794,0.17639 -0.17639,0.17639 -0.097,0 -0.17639,-0.0794 -0.17639,-0.17639 z m 59.266675,-1.76389 c 0,-0.097 0.0794,-0.17639 0.17638,-0.17639 0.097,0 0.17639,0.0794 0.17639,0.17639 0,0.097 -0.0794,0.17639 -0.17639,0.17639 -0.097,0 -0.17638,-0.0794 -0.17638,-0.17639 z m -58.913895,-13.05277 c 0,-0.097 0.0794,-0.17639 0.17639,-0.17639 0.097,0 0.17639,0.0794 0.17639,0.17639 0,0.097 -0.0794,0.17638 -0.17639,0.17638 -0.097,0 -0.17639,-0.0794 -0.17639,-0.17638 z m -34.40269,-1.00572 c -0.32772,-0.36941 -0.38338,-0.8406 -0.1833,-1.55192 0.0409,-0.14552 0.21427,0.20368 0.38521,0.77601 0.35394,1.1851 0.31021,1.35317 -0.20191,0.77591 z m 35.10825,-0.0526 c 0,-0.097 0.0794,-0.17639 0.17639,-0.17639 0.097,0 0.17638,0.0794 0.17638,0.17639 0,0.097 -0.0794,0.17639 -0.17638,0.17639 -0.097,0 -0.17639,-0.0794 -0.17639,-0.17639 z m -36.68889,-0.35278 c 0,-0.097 0.0794,-0.17638 0.17639,-0.17638 0.097,0 0.17639,0.0794 0.17639,0.17638 0,0.097 -0.0794,0.17639 -0.17639,0.17639 -0.097,0 -0.17639,-0.0794 -0.17639,-0.17639 z m 0,-1.05833 c 0,-0.097 0.0794,-0.17639 0.17639,-0.17639 0.097,0 0.17639,0.0794 0.17639,0.17639 0,0.097 -0.0794,0.17639 -0.17639,0.17639 -0.097,0 -0.17639,-0.0794 -0.17639,-0.17639 z m 0.70556,-0.35278 c 0,-0.097 0.0794,-0.17639 0.17639,-0.17639 0.097,0 0.17638,0.0794 0.17638,0.17639 0,0.097 -0.0794,0.17639 -0.17638,0.17639 -0.097,0 -0.17639,-0.0794 -0.17639,-0.17639 z m -55.73889,-0.35277 c 0,-0.097 0.0794,-0.17639 0.17639,-0.17639 0.097,0 0.17639,0.0794 0.17639,0.17639 0,0.097 -0.0794,0.17638 -0.17639,0.17638 -0.097,0 -0.17639,-0.0794 -0.17639,-0.17638 z m 0.70556,0 c 0,-0.097 0.0794,-0.17639 0.17639,-0.17639 0.097,0 0.17639,0.0794 0.17639,0.17639 0,0.097 -0.0794,0.17638 -0.17639,0.17638 -0.097,0 -0.17639,-0.0794 -0.17639,-0.17638 z m 52.0835302,-0.70556 c -0.11168,-0.29104 -0.0663,-0.52917 0.1009,-0.52917 0.16718,0 0.39534,0.23813 0.50703,0.52917 0.11168,0.29104 0.0663,0.52917 -0.10091,0.52917 -0.16718,0 -0.39534,-0.23813 -0.50702,-0.52917 z m -51.7307502,0 c 0,-0.097 0.0794,-0.17639 0.17638,-0.17639 0.097,0 0.17639,0.0794 0.17639,0.17639 0,0.097 -0.0794,0.17639 -0.17639,0.17639 -0.097,0 -0.17638,-0.0794 -0.17638,-0.17639 z m 54.32777,0 c 0,-0.097 0.0794,-0.17639 0.17639,-0.17639 0.097,0 0.17639,0.0794 0.17639,0.17639 0,0.097 -0.0794,0.17639 -0.17639,0.17639 -0.097,0 -0.17639,-0.0794 -0.17639,-0.17639 z m 89.503425,-2.64548 c -0.101435,-0.38786 -0.0406,-0.79411 0.13525,-0.90277 0.17581,-0.10865 0.31965,0.20869 0.31965,0.70521 0,1.08092 -0.20106,1.16824 -0.4549,0.19756 z m 4.33546,-0.17674 c 0,-0.097 0.0794,-0.17639 0.17639,-0.17639 0.097,0 0.17639,0.0794 0.17639,0.17639 0,0.097 -0.0794,0.17639 -0.17639,0.17639 -0.097,0 -0.17639,-0.0794 -0.17639,-0.17639 z m -0.91874,-1.02701 c -0.12287,-0.32021 -0.61141,-0.46449 -1.36917,-0.40436 -0.88745,0.0704 -1.13148,-0.0281 -0.98903,-0.39932 0.10401,-0.27104 0.27395,-0.40795 0.37765,-0.30425 0.10369,0.1037 0.43206,-0.009 0.72969,-0.24937 0.43165,-0.3493 0.48754,-0.34869 0.27622,0.003 -0.14571,0.24253 -0.0968,0.44097 0.10867,0.44097 0.20548,0 0.38613,-0.27781 0.40145,-0.61736 0.0168,-0.37244 0.0987,-0.44155 0.20652,-0.17419 0.0983,0.24374 0.34701,0.33913 0.55277,0.21196 0.24636,-0.15226 0.29651,0.0779 0.14686,0.67417 -0.14521,0.57855 -0.0683,0.96952 0.21313,1.0831 0.34418,0.13891 0.34163,0.18381 -0.0117,0.20558 -0.24862,0.0153 -0.53801,-0.19618 -0.64308,-0.46999 z m -1.19793,-0.73688 c 0,-0.097 -0.0794,-0.17639 -0.17639,-0.17639 -0.097,0 -0.17638,0.0794 -0.17638,0.17639 0,0.097 0.0794,0.17639 0.17638,0.17639 0.097,0 0.17639,-0.0794 0.17639,-0.17639 z m -3.175005,-0.88194 c 0,-0.25871 0.10584,-0.36454 0.23519,-0.23519 0.12935,0.12935 0.12935,0.34102 0,0.47037 -0.12935,0.12935 -0.23519,0.0235 -0.23519,-0.23518 z m 1.370415,-0.57822 c -0.26393,-0.31801 -0.42842,-0.97085 -0.36553,-1.45074 0.0733,-0.55931 -0.0232,-0.78751 -0.268885,-0.63569 -0.21077,0.13026 -0.38322,0.0592 -0.38322,-0.15794 0,-0.66219 2.237345,-0.10266 2.910425,0.72787 0.79821,0.98492 0.77809,1.26484 -0.10756,1.49644 -0.5417,0.14166 -0.80982,-0.0337 -1.06086,-0.69401 -0.18476,-0.48598 -0.2309,-1.05355 -0.10252,-1.26127 0.13324,-0.21557 0.0682,-0.27559 -0.15141,-0.13984 -0.45836,0.28328 -0.44121,1.63125 0.0287,2.25242 0.49523,0.65471 0.0585,0.53462 -0.49909,-0.13724 z m 1.45182,-1.53845 c 0,-0.19403 -0.15875,-0.35278 -0.35278,-0.35278 -0.19403,0 -0.35278,0.15875 -0.35278,0.35278 0,0.19403 0.15875,0.35278 0.35278,0.35278 0.19403,0 0.35278,-0.15875 0.35278,-0.35278 z m -3.527785,1.5875 c 0,-0.097 0.0794,-0.17639 0.17639,-0.17639 0.097,0 0.17639,0.0794 0.17639,0.17639 0,0.097 -0.0794,0.17639 -0.17639,0.17639 -0.097,0 -0.17639,-0.0794 -0.17639,-0.17639 z m -0.23519,-1.46991 c 0.12935,-0.12935 0.34102,-0.12935 0.47037,0 0.12936,0.12935 0.0235,0.23519 -0.23518,0.23519 -0.25871,0 -0.36454,-0.10584 -0.23519,-0.23519 z m -0.11759,-0.64676 c 0,-0.097 0.0794,-0.17639 0.17639,-0.17639 0.097,0 0.17639,0.0794 0.17639,0.17639 0,0.097 -0.0794,0.17639 -0.17639,0.17639 -0.097,0 -0.17639,-0.0794 -0.17639,-0.17639 z m -1.05833,-1.60832 c 0,-0.20548 0.15875,-0.27548 0.35278,-0.15557 0.19402,0.11992 0.35277,0.28804 0.35277,0.3736 0,0.0856 -0.15875,0.15557 -0.35277,0.15557 -0.19403,0 -0.35278,-0.16812 -0.35278,-0.3736 z m -35.10139,100.54928 c 1.3582,-0.1936 3.22183,-0.59953 4.14141,-0.90207 2.05597,-0.6764 6.28824,-3.41593 8.26433,-5.34947 1.64685,-1.61139 4.73829,-6.09435 4.48512,-6.50397 -0.0903,-0.14616 -0.97997,-0.50798 -1.97699,-0.80407 -2.66644,-0.79184 -8.11169,-0.7113 -10.90796,0.16135 -3.6517,1.13962 -4.31491,1.70766 -5.42722,4.64847 -0.53865,1.42414 -1.52302,3.89439 -2.18749,5.48943 -0.66446,1.59505 -1.10713,3.06348 -0.9837,3.2632 0.27837,0.45041 1.41753,0.4497 4.5925,-0.003 z m -7.58472,-0.16319 c 0,-0.097 -0.0794,-0.17639 -0.17639,-0.17639 -0.097,0 -0.17639,0.0794 -0.17639,0.17639 0,0.097 0.0794,0.17639 0.17639,0.17639 0.097,0 0.17639,-0.0794 0.17639,-0.17639 z m 21.16666,-2.46944 c 0,-0.097 -0.0794,-0.17639 -0.17638,-0.17639 -0.097,0 -0.17639,0.0794 -0.17639,0.17639 0,0.097 0.0794,0.17639 0.17639,0.17639 0.097,0 0.17638,-0.0794 0.17638,-0.17639 z m 0.58797,-0.76435 c -0.12935,-0.12936 -0.34102,-0.12936 -0.47037,0 -0.12935,0.12935 -0.0235,0.23518 0.23518,0.23518 0.25871,0 0.36454,-0.10583 0.23519,-0.23518 z m 0.47037,-0.64676 c 0,-0.097 -0.0794,-0.17639 -0.17639,-0.17639 -0.097,0 -0.17639,0.0794 -0.17639,0.17639 0,0.097 0.0794,0.17639 0.17639,0.17639 0.097,0 0.17639,-0.0794 0.17639,-0.17639 z m 1.21118,-1.766 c 0.92618,-1.7198 0.54547,-1.85202 -0.43372,-0.15064 -0.43919,0.76311 -0.67114,1.38747 -0.51544,1.38747 0.1557,0 0.58282,-0.55657 0.94916,-1.23683 z m -43.95193,-29.95575 c 1.49971,-0.77553 1.34452,-1.59016 -0.47453,-2.49082 -1.81158,-0.89697 -6.14254,-1.1339 -8.09334,-0.44276 -2.60148,0.92167 -2.59316,2.51002 0.0175,3.34127 1.90173,0.60552 7.06733,0.35922 8.55036,-0.40769 z m -111.72299,-29.13242 c 0.0291,-12.6118 0.0688,-23.12899 0.0882,-23.37152 0.0965,-1.20603 -3.97013,0.53077 -6.41351,2.73912 -0.9158,0.82772 -2.18348,2.36756 -2.81706,3.42187 -1.84002,3.0619 -2.18651,5.55936 -2.19196,15.79942 -0.007,13.24447 0.5174,15.63131 4.47097,20.34866 1.43512,1.71236 5.05493,3.99301 6.33763,3.99301 0.38985,0 0.48211,-4.02386 0.52574,-22.93056 z m 217.099655,21.8637 c 4.12517,-1.96876 7.14681,-6.47561 7.91776,-11.80953 0.25954,-1.79564 0.36266,-6.41527 0.2835,-12.7 -0.14031,-11.14039 -0.31588,-12.03146 -3.10083,-15.73788 -1.96907,-2.62057 -5.88103,-5.25239 -7.80721,-5.25239 -0.64135,0 -0.66247,0.73481 -0.66247,23.04814 0,12.67648 0.10583,23.15398 0.23518,23.28333 0.39039,0.39039 0.80277,0.28096 3.13407,-0.83167 z M -47.635055,-347.06414 c 7.19472,-5.68914 22.64486,-13.42122 33.14886,-16.58949 7.2696402,-2.1927 16.9201202,-4.17484 26.10555,-5.36191 5.92529,-0.76574 23.86161,-1.08938 29.49258,-0.53216 20.47678,2.02631 32.93889,5.38039 48.64769,13.09315 6.35731,3.12133 15.449955,8.65239 18.151135,11.04134 2.4118,2.13302 -1.50728,-2.0531 -4.92921,-5.26508 -7.687155,-7.21552 -13.096255,-11.16117 -21.335805,-15.56338 -11.32307,-6.04965 -22.91358,-9.51795 -38.27639,-11.45367 -5.4484,-0.6865 -22.8464,-0.58527 -28.8138,0.16765 -20.5296098,2.59027 -36.62472,8.7903 -51.22654,19.73308 -4.16375,3.12036 -14.80986,12.93226 -14.06202,12.96014 0.14614,0.005 1.54021,-0.99791 3.09795,-2.22967 z m 169.448385,-7.88022 c 2.12529,-1.49371 3.0348,-3.31304 3.04189,-6.0848 0.007,-2.83329 -0.96003,-4.98787 -2.85575,-6.36112 -5.19803,-3.76543 -11.97472,-0.42277 -12.00019,5.91918 -0.0139,3.45886 1.26791,5.66669 4.06692,7.00505 2.49828,1.19458 5.64317,1.00041 7.74713,-0.47831 z"
       id="path294" /></g></svg>
