<?xml version="1.0" encoding="UTF-8" standalone="no"?>
<!-- Created with Inkscape (http://www.inkscape.org/) -->

<svg
   width="248.76801mm"
   height="247.57423mm"
   viewBox="0 0 248.76801 247.57421"
   version="1.1"
   id="svg1"
   xml:space="preserve"
   xmlns="http://www.w3.org/2000/svg"
   xmlns:svg="http://www.w3.org/2000/svg"><defs
     id="defs1"><clipPath
       clipPathUnits="userSpaceOnUse"
       id="clipPath6"><path
         id="path7"
         style="fill:#ff0000;fill-opacity:1;fill-rule:nonzero;stroke:none;stroke-width:0.264583"
         d="M -175.07778,-16.057127 V 287.55793 H 124.54631 V -16.057127 Z m 132.7459,202.572647 c 0.210643,0.005 0.427212,0.0169 0.650089,0.0367 2.23823,0.19855 4.475655,0.4031 6.717938,0.55346 1.973313,0.11308 0.986628,0.0436 2.958475,0.20825 3.181295,0.26563 4.740125,1.85116 4.950601,3.46956 4.949923,1.63749 3.796379,7.35609 -2.592089,6.81354 -3.228716,-0.27422 -1.569593,-0.1301 -4.979024,-0.43357 -4.228209,-0.39317 -8.460616,-0.76265 -12.666927,-1.35341 -6.647387,-0.93358 -5.930551,-7.21034 0.03204,-7.20421 0.04685,5e-5 0.0972,0.004 0.144695,0.005 0.687229,-1.21692 2.304132,-2.15435 4.784204,-2.09548 z" /></clipPath><clipPath
       clipPathUnits="userSpaceOnUse"
       id="clipPath76"><path
         id="path77"
         style="fill:#ff0000;fill-opacity:1;fill-rule:nonzero;stroke:none;stroke-width:0.264583"
         d="M -133.83107,-122.52355 V 173.82063 H 122.97289 V -122.52355 Z M 13.574404,98.948202 c 2.788179,0.0507 4.135003,2.063798 3.398242,4.077268 0.199805,0.45372 0.374906,0.96736 0.517797,1.54461 1.07913,4.35948 0.671079,8.891 0.311608,13.31495 -0.351859,3.06036 -0.147137,1.57974 -0.604097,4.44366 -0.359666,2.25418 -1.333846,3.66838 -2.455664,4.32532 0.105138,0.36595 0.224724,0.72888 0.324528,1.09554 0.6273,2.23652 0.575201,4.47401 0.39429,6.75514 -0.137303,1.73129 -0.688065,2.99533 -1.427303,3.82199 -0.112477,0.41601 -0.170275,0.80219 -0.311092,1.25212 -0.184975,0.59102 -0.413327,1.1061 -0.670242,1.55856 0.741137,-0.23134 1.446982,-0.38145 2.064991,-0.37517 4.085002,0.0415 5.222724,4.75435 -0.02223,7.27138 -4.46677,2.14368 -9.303523,3.34693 -14.11903492,4.40955 -4.40876268,0.85156 -8.89238128,1.33053 -13.38264308,1.19269 -5.804014,-0.17807 -6.736297,-5.00293 -3.065447,-6.67298 -2.072987,-0.65744 -4.042852,-1.62261 -4.128947,-3.14709 -0.02802,-0.49633 0.0026,-0.90355 0.0341,-1.30897 -1.976731,-0.003 -3.95339,2.4e-4 -5.930386,0.003 -0.814031,0 -1.53062,-0.0962 -2.159559,-0.26149 -0.376306,0.19492 -0.742394,0.40783 -1.120862,0.59893 -6.391272,3.22657 -9.625245,-3.24074 -3.234428,-6.46886 1.833438,-0.92611 3.62694,-1.92211 5.414142,-2.92954 -0.877003,-3.87058 -1.368747,-7.83436 -1.323951,-11.80858 0.01651,-1.46304 0.376836,-2.54918 0.864547,-3.41426 -1.247357,-1.79999 -0.223805,-4.63069 3.842661,-5.68855 3.11826,-0.81116 6.282901,-1.39515 9.473837,-1.82211 -1.259816,-0.12657 -2.516182,-0.30233 -3.764627,-0.50177 -1.477002,-0.21985 -2.935575,-0.54305 -4.407482,-0.7891 -1.14214,-0.22954 -0.588502,-0.12004 -1.660882,-0.3297 -3.350244,-0.65501 -4.783278,-2.61088 -4.608504,-4.32997 -0.200179,-1.7721 1.333365,-3.52972 4.663799,-3.59461 v -5.3e-4 c 0.20954,-0.004 0.426035,-0.002 0.649571,0.008 1.77111,0.0772 3.528708,0.28204 5.26428,0.64027 1.655035,0.33225 3.314115,0.6481 4.955251,1.04439 1.244759,0.34858 2.51628,0.54538 3.7997689,0.6723 0.025956,0.002 0.052073,0.002 0.078034,0.004 0.4990888,-0.0371 0.9984105,-0.0743 1.4965495,-0.11317 1.346872,-0.12588 2.6913231,-0.25136 4.0457464,-0.24236 1.1278499,-0.0444 2.2567291,-0.10772 3.37498791,-0.26872 0.75719517,-0.11591 1.51142439,-0.25483 2.25722659,-0.4284 0.3616431,-0.12394 0.7240561,-0.24538 1.083138,-0.37775 0.3360393,-0.12388 0.6107589,-0.12825 0.9250071,-0.20723 0.1281086,-0.045 0.2583895,-0.0825 0.3855085,-0.13074 1.9825018,-0.7681 3.9540551,-1.56464 5.9510551,-2.29443 1.050809,-0.383992 1.999634,-0.542639 2.826703,-0.527616 z M 0.70283723,110.39557 c -0.45566013,0.0949 -0.90775367,0.208 -1.36890919,0.2744 -1.16638124,0.15534 -2.34111274,0.24237 -3.51761424,0.26251 0.4031694,0.0896 0.8047355,0.18876 1.2025101,0.308 0.1014836,0.0304 0.1982549,0.075 0.2986907,0.10852 0.4205235,-0.21824 0.9206601,-0.35072 1.4898318,-0.37156 0.39885139,-0.0146 0.83259872,0.0278 1.29449508,0.13023 0.22468681,-0.12213 0.44967525,-0.24374 0.67437529,-0.36587 -0.0326284,-0.11319 -0.058211,-0.22834 -0.0733795,-0.34623 z m 10.24433577,1.02474 c -0.76023,0.21437 -1.5189569,0.4343 -2.2696301,0.68006 -0.031261,0.62207 -0.2256075,1.28373 -0.6464723,1.94355 0.6236891,0.43248 1.2549743,1.04482 1.8634525,1.86862 0.2674939,0.36214 0.4748849,0.75712 0.7188199,1.13223 0.154519,-1.86707 0.314174,-3.74736 0.33383,-5.62446 z m 64.566086,3.39773 c 1.50346,0.0187 3.129182,1.24994 3.928441,4.04678 0.257931,0.90255 0.823497,1.65871 1.488797,2.30735 0.856321,0.95375 1.845738,1.76777 2.801898,2.61638 1.458581,1.46408 2.789203,3.04608 4.169772,4.58215 1.315059,1.44746 2.571226,2.91698 3.543967,4.61884 0.0053,0.01 0.0082,0.0206 0.01344,0.0305 0.734605,-0.43313 1.446276,-0.65634 2.094962,-0.69195 3.016182,-0.16561 4.69137,3.55377 1.187525,7.32306 -1.69471,1.82311 -3.657862,3.33908 -5.68751,4.7651 -0.777873,0.49914 -1.607691,0.90075 -2.418456,1.33842 0.165478,1.44344 -0.672182,3.24303 -2.956409,4.73096 -1.354556,0.88234 -2.690448,1.79306 -4.075203,2.6288 -2.075008,1.20078 -4.233777,2.27962 -6.540687,2.96259 -2.077586,0.62971 -4.169056,1.29987 -6.359301,1.36374 -1.872114,0.0897 -3.746989,0.0368 -5.620845,0.0501 h -5.1108 -5.524728 c -7.160125,0 -7.160125,-7.23315 0,-7.23315 h 1.347722 c 0.29438,-0.0541 0.5212,-0.1588 0.84801,-0.18656 1.106628,-0.094 2.200932,-0.28334 3.292822,-0.48421 0.456121,-0.98163 1.356053,-1.98213 2.807581,-2.83962 1.078018,-0.63685 2.158119,-1.26923 3.212209,-1.94561 1.962647,-1.29302 3.840588,-2.72135 5.893696,-3.86902 1.367169,-0.76424 2.559646,-1.07097 3.526915,-1.04128 2.216811,0.068 3.246223,1.90266 2.479953,4.04059 1.105688,-0.48686 2.206929,-0.98346 3.283003,-1.53739 2.619811,-1.23728 5.288743,-2.38548 7.764385,-3.9026 0.246153,-0.17184 0.487463,-0.34958 0.730705,-0.52503 -0.126915,-0.50614 -0.277693,-0.9939 -0.512114,-1.46554 -0.647621,-1.25778 -1.721077,-2.20654 -2.600875,-3.29644 -1.199229,-1.33472 -2.369312,-2.69496 -3.592029,-4.00803 -1.098706,-0.97599 -2.227236,-1.92181 -3.215306,-3.01428 -1.300821,-1.39063 -2.459913,-2.93896 -3.045293,-4.77801 -1.289469,-4.05101 0.646382,-6.61405 2.843754,-6.58667 z m -95.086705,4.28035 c -0.465643,0.10748 -0.930899,0.21773 -1.394745,0.33435 0.171958,0.64334 0.283575,1.36624 0.279569,2.2071 -0.01267,2.6582 0.205063,5.32647 0.670242,7.94732 0.280107,-0.17087 0.565767,-0.33222 0.845429,-0.50385 -0.01897,-0.36223 -0.02445,-0.73164 -0.05529,-1.08985 -0.118034,-2.96491 -0.160888,-5.93314 -0.3452,-8.89507 z m 18.5141159,1.1958 c 0.00497,0.0773 0.00619,0.15612 0.014975,0.23202 -0.1238779,0.22787 -0.2588048,0.44752 -0.3937741,0.66715 0.58900751,0.0447 1.13203305,0.21413 1.64331124,0.45888 -0.37615284,-0.49255 -0.78353709,-0.94642 -1.26452314,-1.35805 z m -6.5422357,14.57068 c -0.046649,0.0755 -0.09888,0.14702 -0.1436608,0.22376 -0.03147,0.054 0.1963367,0.0838 0.1860365,0.0222 -0.017595,-0.10481 -0.026035,-0.14905 -0.042376,-0.24597 z m 13.9236979,6.08439 c -0.2236258,0.5643 -0.5677508,1.09664 -1.1782213,1.50533 0.9079653,0.17659 1.7077452,0.44257 2.2830631,0.84852 0.1405493,-0.0459 0.272804,-0.11448 0.4128956,-0.16174 -0.7336976,-0.43656 -1.2984269,-1.18703 -1.5177374,-2.19211 z" /></clipPath><clipPath
       clipPathUnits="userSpaceOnUse"
       id="clipPath127"><path
         id="path128"
         style="fill:#ff0000;fill-opacity:1;fill-rule:nonzero;stroke:none;stroke-width:0.264583"
         d="M -112.24796,-126.55676 V 185.58027 H 148.5754 V -126.55676 Z M 46.874626,83.305366 c 1.808208,0 3.616317,1.790192 3.616317,5.370214 v 5.232238 c 0.0627,2.146078 -0.111291,4.285324 -0.245462,6.424932 -0.136289,2.02485 -0.190703,4.04985 -0.104904,6.07715 0.192061,1.91863 0.527714,3.82569 0.876432,5.72213 0.304242,2.00862 0.765826,3.9858 1.180806,5.97276 0.41642,1.86142 0.967934,3.68703 1.421104,5.53972 0.25287,0.86996 0.117097,0.46495 0.396356,1.22008 0.186108,0.50319 0.223428,0.93098 0.309544,1.38441 4.425355,2.23251 2.751262,7.58433 -3.415813,6.40477 -3.104732,-0.59371 -6.256094,-0.76586 -9.40821,-0.85576 -3.81635,0.009 -7.630525,0.17062 -11.44478,0.28216 -1.12776,0.0333 -2.255837,0.0512 -3.383772,0.0754 -0.908129,0.5548 -1.966518,0.57724 -2.88613,0.0641 -0.03584,5.3e-4 -0.07165,0.002 -0.107487,0.003 -0.03142,5.3e-4 -0.0525,-0.009 -0.08268,-0.009 -0.32049,0.14732 -0.641715,0.29301 -0.962215,0.44028 -0.262501,0.12062 -0.518089,0.22111 -0.770496,0.31265 -0.876996,0.71434 -1.945576,0.85817 -2.911967,0.46405 -2.943479,-0.21613 -4.295167,-2.77187 -2.550232,-5.0524 -2.22e-4,-0.028 -0.0078,-0.0483 -0.0078,-0.0765 v -6.3469 c -0.014,-2.72977 -0.02254,-5.45666 0.112657,-8.18348 0.135676,-2.32533 0.233519,-4.6523 0.299723,-6.98046 0.046,-1.80459 0.06926,-3.60958 0.08527,-5.41465 -0.0258,-1.02998 0.04009,-2.054459 0.138491,-3.078883 0.0044,-0.04602 0.02191,-0.07504 0.02687,-0.120406 C 15.992671,97.193438 15.83363,95.70984 16.656834,94.418959 10.68718,93.678613 10.992573,87.32947 17.739972,87.32947 h 3.885033 5.177462 5.913334 c 1.498505,0.05847 2.984222,-0.03228 4.475178,-0.161748 1.252041,-0.18606 2.49041,-0.398671 3.697968,-0.782897 1.001961,-0.32245 0.492366,-0.161472 1.527553,-0.482142 0.510384,-0.158096 0.938446,-0.174371 1.394749,-0.23771 0.672338,-1.56932 1.86623,-2.35903 3.063377,-2.35903 z" /></clipPath><clipPath
       clipPathUnits="userSpaceOnUse"
       id="clipPath139"><path
         id="path140"
         style="fill:#ff0000;fill-opacity:1;fill-rule:nonzero;stroke:none;stroke-width:0.264583"
         d="M 97.168006,-339.91235 V -44.578961 H 346.46958 V -339.91235 Z m 14.326254,94.53944 c 1.76488,0.006 3.77708,1.78446 4.35839,5.31699 0.32911,1.99994 0.60308,4.00817 0.88884,6.01462 1.02527,-1.2445 2.22305,-1.83589 3.28403,-1.8402 2.05627,-0.008 3.59454,2.17302 2.34611,6.00222 -0.0197,0.0606 -0.0413,0.12046 -0.0615,0.18087 0.31698,0.91799 0.41757,2.09982 0.17777,3.54139 -0.2164,1.30085 -0.62011,2.56457 -1.0263,3.8163 -1.34183,4.13496 -4.42238,4.92072 -6.12882,3.38016 -1.93867,0.62007 -4.30523,-0.86149 -4.65605,-4.82762 -0.16862,-1.90632 -0.33891,-3.81275 -0.57464,-5.71231 -0.45291,-3.52522 -1.07719,-7.02592 -1.48208,-10.55543 -0.40801,-3.55672 1.10935,-5.32303 2.87424,-5.31699 z" /></clipPath><clipPath
       clipPathUnits="userSpaceOnUse"
       id="clipPath170"><path
         id="path171"
         style="fill:#ff0000;fill-opacity:1;fill-rule:nonzero;stroke:none;stroke-width:0.264583"
         d="M 88.756261,-299.52331 V 17.880567 H 410.91541 V -299.52331 Z M 363.24287,-220.863 c 0.90345,-0.008 1.97628,0.23856 3.18532,0.82218 3.39402,1.63831 6.49674,3.81197 9.57823,5.96449 3.22509,2.31448 6.37511,4.73585 9.43663,7.26261 1.87296,1.50796 3.75989,2.99047 5.54284,4.6054 1.76167,1.54167 3.42262,3.17283 4.95419,4.94388 1.19316,1.48882 2.47049,2.9032 3.73311,4.33204 1.08043,1.20022 2.09423,2.45631 2.94299,3.83026 0.82616,1.73429 1.48968,3.55524 1.93786,5.42344 1.67031,6.96258 -5.76469,8.62686 -7.05745,1.5844 -0.21127,-1.15093 -0.75649,-2.20765 -1.10278,-3.32021 -0.52141,-1.02678 -1.43909,-1.82952 -2.14042,-2.72904 -1.28368,-1.45272 -2.58234,-2.89095 -3.79617,-4.40386 -1.32794,-1.55409 -2.79577,-2.95456 -4.33049,-4.3031 -1.69875,-1.54267 -3.51006,-2.94207 -5.29113,-4.38733 -2.90883,-2.40671 -5.90918,-4.70386 -8.97258,-6.91017 -2.63017,-1.83963 -5.2759,-3.68008 -8.12096,-5.17746 -5.14813,-2.7095 -4.41412,-7.50431 -0.49919,-7.53753 z m -17.79788,14.64304 c 0.81097,-0.004 1.74701,0.16947 2.79104,0.57154 4.59168,1.76834 8.99191,4.00303 13.38523,6.20892 0.37082,0.1876 0.72266,0.4088 1.09088,0.601 0.4155,-0.11565 0.91038,-0.17484 1.48572,-0.16691 0.65984,0.009 1.42523,0.10601 2.29753,0.30644 2.35556,0.54125 4.30075,1.95473 6.16344,3.42614 -1.07651,-2.72314 0.34142,-4.84679 2.57866,-4.84311 1.28683,0.002 2.83083,0.70484 4.29689,2.3952 2.44776,2.82227 4.79147,5.70892 6.96391,8.74934 1.67944,2.35043 1.72027,4.43615 0.89969,5.70663 1.5344,1.02281 3.07247,2.04019 4.58422,3.09645 1.80695,1.14136 3.31928,2.58833 4.72631,4.18269 0.96689,1.16625 2.0869,2.25988 2.79262,3.61942 0.19542,0.37651 0.34592,0.77482 0.51882,1.1622 0.40259,1.55462 0.27207,0.76263 0.38706,2.3766 0.0637,0.89436 -0.044,1.45412 -0.26977,1.7756 0.11753,0.20753 0.23421,0.41574 0.35608,0.62063 3.66003,6.15399 -2.6856,9.845 -6.25234,3.63648 -0.83209,-1.44832 -1.62388,-2.92102 -2.35437,-4.42351 -0.84839,-1.84687 -1.70402,-3.69055 -2.54093,-5.54229 -0.078,-0.17246 -0.14713,-0.34128 -0.2119,-0.5085 -0.415,-0.33988 -0.82071,-0.68775 -1.29707,-0.97255 -2.35545,-1.64933 -4.79565,-3.17384 -7.14841,-4.82761 -3.27895,-2.27743 -6.61384,-4.47194 -9.95804,-6.65231 -4.00886,-2.60003 -8.08797,-5.09434 -12.3548,-7.25434 -4.08429,-2.05175 -8.1752,-4.1242 -12.42663,-5.81101 -5.61546,-2.22804 -4.88331,-7.4129 -0.50384,-7.43314 z m -225.34594,21.50101 c 3.05551,-0.16929 4.03285,3.80875 0.35915,7.72563 -1.17612,1.25397 -2.32696,2.59265 -3.45922,3.90674 -1.44062,1.57315 -2.77631,3.23874 -4.13618,4.88135 -1.14319,1.4697 -2.29319,2.93265 -3.46335,4.38113 -0.8717,1.2084 -1.86054,2.32105 -2.81017,3.46594 -0.80685,0.95022 -1.53489,1.96075 -2.32234,2.92695 -0.80594,1.00684 -1.52017,2.08004 -2.22519,3.15847 -0.20511,0.28103 -0.29499,0.51935 -0.30179,0.78909 -0.18033,7.15787 -8.659963,5.5717 -7.093102,-1.4149 0.267098,-1.19094 0.644303,-2.32859 1.347721,-3.34243 0.846108,-1.28566 1.701136,-2.56663 2.670121,-3.76463 0.806525,-0.98525 1.5446,-2.0236 2.37453,-2.98999 0.93132,-1.109 1.88214,-2.2008 2.7342,-3.37448 1.18855,-1.47082 2.35327,-2.95822 3.51813,-4.44779 1.39067,-1.67946 2.758,-3.38112 4.2292,-4.99142 1.55862,-1.80675 3.07205,-3.68494 4.92528,-5.20227 1.38505,-1.13397 2.63451,-1.65096 3.65301,-1.70739 z m 30.4953,3.26389 c 4.11093,0.0973 5.25218,4.81763 -0.0434,7.22591 -1.93926,0.8819 -3.80509,1.88928 -5.66115,2.92437 0.381,1.39299 -0.23993,3.26566 -2.43035,4.98678 -2.3369,1.83618 -4.71607,3.61825 -7.08845,5.40845 -2.84267,2.19936 -5.66068,4.43162 -8.41086,6.74584 -2.22216,1.84972 -4.46469,3.67225 -6.66213,5.55109 -1.67979,1.46598 -3.37138,2.91821 -5.06067,4.37337 -1.40892,1.30469 -2.82191,2.592 -4.12274,4.00648 -1.07181,1.16531 -2.16701,1.83049 -3.17087,2.10529 -0.88357,6.53411 -7.65001,5.87099 -7.10344,-1.07177 0.0596,-0.75732 0.12015,-1.51435 0.21239,-2.26859 0.18237,-1.4495 0.31176,-2.90657 0.57051,-4.34444 0.56059,-2.2771 1.55106,-4.35314 3.32124,-5.95312 1.46716,-1.38711 2.94871,-2.75912 4.4943,-4.05919 1.45063,-1.21601 2.91967,-2.40825 4.4111,-3.57394 2.2284,-1.75259 4.48249,-3.46927 6.81044,-5.08961 3.1083,-2.16601 6.29001,-4.21936 9.5343,-6.17689 3.28252,-2.04598 6.49796,-4.19789 9.78648,-6.23476 2.38673,-1.38679 4.82146,-2.65715 7.33495,-3.79873 1.22236,-0.55516 2.32966,-0.77899 3.27836,-0.75654 z" /></clipPath><clipPath
       clipPathUnits="userSpaceOnUse"
       id="clipPath233"><path
         id="path234"
         style="fill:#ff0000;fill-opacity:1;fill-rule:nonzero;stroke:none;stroke-width:0.264583"
         d="M 185.24069,-319.24193 V -24.289387 H 425.09684 V -319.24193 Z m 138.35487,149.6534 c 1.78419,7.9e-4 3.63037,1.79012 3.80182,5.36608 0.0643,1.33996 -0.0719,2.65433 -0.29041,3.95842 0.27255,-0.0735 0.56767,-0.11689 0.88522,-0.12351 0.37047,-0.008 0.77026,0.0328 1.19579,0.12867 0.38629,-0.24279 0.8215,-0.42195 1.34254,-0.44493 1.13073,-0.0499 2.53823,0.47335 4.04474,1.80971 0.4186,0.37135 0.80759,0.77178 1.2056,1.16323 0.49581,-0.30652 1.09744,-0.47283 1.77559,-0.44028 1.18851,0.0571 2.59295,0.69888 3.98788,2.15129 2.63375,2.74227 4.82211,5.85047 6.92256,9.00669 2.43144,3.88376 4.79634,7.81591 6.98098,11.84475 1.13959,2.01485 2.36363,3.97199 3.24527,6.11746 0.86638,2.54168 0.71525,4.37292 -0.15348,6.88278 -0.88855,2.03627 -2.18951,3.83746 -3.64937,5.49682 -1.22616,1.21887 -2.44396,2.51198 -3.976,3.35587 -0.38219,0.21053 -0.79187,0.3659 -1.18803,0.54881 -6.50071,3.00135 -9.83602,-5.23462 -2.81948,-6.6611 1.07346,-0.21823 1.75532,-1.41088 2.56987,-2.0407 0.86323,-0.96375 1.62015,-2.00233 2.25208,-3.13417 0.24334,-0.63932 0.47847,-1.05078 0.24958,-1.76114 -0.42873,-1.13152 -1.03555,-2.17502 -1.65674,-3.21169 -0.64492,3.08426 -3.96214,3.78517 -6.03631,0.97152 -0.80928,1.85722 -3.53859,2.62684 -6.75775,0.30902 -0.53872,-0.38787 -1.07831,-0.77486 -1.61745,-1.1622 -3.08248,4.62545 -3.94671,5.04673 -6.74584,2.87063 -2.73204,-2.16473 -5.33615,-4.48821 -8.05999,-6.6642 -2.7461,-2.45053 -5.40757,-5.07957 -7.04763,-8.42635 -1.62115,-0.12575 -3.24178,-0.2569 -4.86637,-0.34314 -7.58719,-0.44787 -15.17743,-0.9445 -22.76553,-1.33377 -1.07801,-0.0553 -1.93227,-0.3045 -2.68459,-0.62166 -0.57677,0.62929 -1.1192,1.29485 -1.64021,1.97352 -1.38696,2.1585 -2.2854,4.54313 -3.09181,6.96185 -0.53658,1.90527 -0.93866,3.84574 -1.3658,5.77949 0.3976,-0.38181 0.79402,-0.76498 1.19114,-1.14825 1.44902,-1.39846 2.84121,-1.97983 3.98373,-1.97766 2.91995,0.006 4.20899,3.82009 0.64648,7.53391 -0.92629,0.96557 -1.9114,1.86859 -2.9099,2.75797 -1.78302,1.58814 -3.50499,2.03887 -4.81263,1.76372 -0.007,0.0412 -0.0189,0.0812 -0.0253,0.12247 -0.31138,2.1774 -0.34632,4.38158 -0.39739,6.57686 0.006,3.5147 -0.15426,7.02208 -0.44287,10.52391 -0.15049,2.45352 -0.52882,4.882887 -0.77928,7.326166 -0.25682,2.270699 -0.2357,4.548968 -0.1633,6.828007 0.0525,1.43787 0.0261,0.723201 0.0775,2.145088 7.9e-4,0.02175 -0.006,0.03573 -0.006,0.05736 0.13966,0.0486 0.27673,0.09115 0.42013,0.148309 3.73047,1.486969 7.59999,2.598727 11.41894,3.833876 4.85884,1.705695 9.66861,3.546912 14.50144,5.32474 1.9552,0.651698 3.84707,1.443672 5.71489,2.292366 2.6308,-0.638411 5.26049,-1.281708 7.89771,-1.893425 4.5737,-1.075436 2.35597,-0.547624 6.65438,-1.580782 0.65268,-0.156879 1.2592,-0.237268 1.81642,-0.252698 3.40876,-0.09437 4.96226,2.238663 4.05712,4.350639 3.89832,1.612736 3.00805,6.568553 -2.90269,6.729304 l -2.19726,0.05943 c 0.0932,0.05532 0.18872,0.106439 0.28112,0.163298 6.09814,3.752323 2.1299,10.065517 -3.84782,6.124173 -1.04591,-0.689594 -2.23735,-1.127543 -3.31556,-1.763197 -2.61015,-1.251701 -5.22853,-2.484003 -7.87136,-3.665926 -0.34703,-0.170111 -0.69536,-0.335955 -1.04283,-0.504362 -1.04394,0.228952 -2.09238,0.441277 -3.15071,0.537951 -0.41145,0.100483 -0.82417,0.195434 -1.23558,0.296105 -3.95687,0.968251 -6.08679,-0.907356 -5.97897,-3.010669 -0.31188,-0.687727 -0.239,-1.395294 0.0263,-2.059305 -3.87146,-1.438614 -7.73769,-2.891312 -11.63237,-4.265891 -3.97417,-1.285444 -7.99945,-2.446282 -11.87938,-4.000272 -1.44639,-0.579335 -2.44377,-1.350957 -3.06182,-2.17506 -1.01218,-0.798706 -1.81304,-2.231819 -1.89446,-4.484998 -0.0517,-1.431189 -0.0254,-0.705106 -0.0791,-2.177645 -0.0816,-2.602558 -0.0903,-5.205841 0.19844,-7.79849 0.24823,-2.394268 0.6146,-4.775082 0.76533,-7.179412 0.27808,-3.36008 0.42763,-6.72542 0.42064,-10.09809 0.0594,-2.5132 0.11189,-5.03614 0.48266,-7.52719 0.38072,-2.41928 0.90466,-4.80615 1.46451,-7.18974 0.6701,-2.94551 1.25825,-5.91529 2.11305,-8.81393 1.0668,-3.18776 2.31041,-6.31647 4.23489,-9.10074 0.42128,-0.53977 0.8547,-1.07136 1.29914,-1.59215 -1.52816,-0.60355 -3.06641,-1.18197 -4.57646,-1.83141 -1.09038,3.76762 -2.19021,7.53001 -3.40755,11.25926 -1.05961,2.97655 -0.54118,1.54568 -1.55081,4.2938 -1.83358,4.9908 -6.03644,4.88509 -7.07398,1.75544 -2.82634,3.52841 -7.50378,1.0111 -5.57744,-4.75268 1.05408,-3.1537 2.2385,-6.34595 4.49688,-8.85837 1.49582,-1.66408 2.97572,-2.34765 4.17287,-2.32647 0.33252,0.006 0.64298,0.0664 0.92604,0.17518 0.46945,-1.58214 0.96416,-3.15651 1.43919,-4.7377 0.70062,-2.33196 1.93737,-3.52641 3.18689,-3.8871 0.54142,-0.34307 1.25019,-0.55529 2.11615,-0.57361 h 5.3e-4 c 0.8057,-0.017 1.74503,0.13149 2.80396,0.49248 0.31645,0.10788 0.63769,0.20324 0.94929,0.32401 1.83624,0.71133 3.60046,1.59642 5.43016,2.32544 1.18096,0.47048 2.26953,0.84228 3.35329,1.23145 0.62902,-0.20883 1.22424,-0.32846 1.76785,-0.35037 2.28614,-0.0921 3.73455,1.32842 3.67523,3.07682 1.73917,0.0925 3.47854,0.18832 5.21777,0.2899 -0.1345,-1.7899 1.43141,-3.54652 4.54959,-3.56619 0.39587,-0.002 0.816,0.0231 1.25987,0.0801 3.99155,0.51285 7.97638,1.04608 11.94346,1.72703 0.35092,0.0747 0.7018,0.14913 1.05265,0.22376 0.92028,-2.09088 2.0607,-3.80586 3.79408,-5.38675 0.9172,-0.8245 1.6747,-1.80494 2.07378,-2.98587 0.46483,-1.35061 0.4893,-2.77914 0.4594,-4.19561 h 5.3e-4 c -0.0754,-3.57927 1.64663,-5.36691 3.4308,-5.36608 z m 1.97559,14.00741 c -0.78838,1.39934 -1.79816,2.66075 -2.96984,3.79512 -1.06213,0.94584 -1.80404,2.02586 -2.28153,3.3538 -0.003,0.012 -0.005,0.0237 -0.009,0.0357 1.15411,0.11311 2.30814,0.22665 3.4613,0.3514 3.99042,0.43171 5.40747,2.84663 4.69323,4.76353 0.67585,0.41545 1.35041,0.83313 2.01954,1.25626 3.82278,2.5036 7.53266,5.1715 11.24013,7.84086 -1.81731,-3.68096 -3.93583,-7.19476 -6.36087,-10.5146 -1.10355,-1.48555 -2.20805,-3.00054 -3.36206,-4.44883 -0.35653,-0.44747 -1.7607,-2.16704 -2.34455,-2.70784 -0.36042,-0.33384 -0.93237,-0.68033 -1.36375,-0.9555 -1.33122,-0.84918 -2.21667,-1.81673 -2.72282,-2.76986 z" /></clipPath><clipPath
       clipPathUnits="userSpaceOnUse"
       id="clipPath240"><path
         id="path241"
         style="fill:#ff0000;fill-opacity:1;fill-rule:nonzero;stroke:none;stroke-width:0.264583"
         d="M 92.804184,-309.23338 V -41.629034 H 294.29938 V -309.23338 Z m 130.496946,63.74443 c 0.93337,0.009 2.02072,0.27397 3.21944,0.8785 1.75312,0.88412 3.43212,1.89553 5.06326,2.98586 5.9527,3.97906 1.8926,10.01797 -4.03542,6.00222 -1.36849,-0.92705 -2.78857,-1.76849 -4.26227,-2.51871 -5.18448,-2.63926 -4.02961,-7.38891 0.015,-7.34787 z m -85.24544,1.99626 c 3.36772,-0.0906 4.87054,3.93317 0.67437,7.28431 -0.81214,0.6486 -0.42273,0.34746 -1.1653,0.9064 -1.7275,1.42217 -3.47209,2.82263 -5.29477,4.12275 -2.09112,1.47372 -4.25636,2.82668 -6.45645,4.13153 -6.15846,3.65253 -10.39165,-1.95967 -4.33979,-5.78621 2.21999,-1.40367 4.47897,-2.73503 6.6244,-4.25349 1.67688,-1.19734 3.27994,-2.48915 4.86947,-3.79821 0.91499,-0.69918 0.50268,-0.37435 1.24076,-0.9679 1.39493,-1.12177 2.72473,-1.60899 3.84731,-1.63918 z" /></clipPath><clipPath
       clipPathUnits="userSpaceOnUse"
       id="clipPath251"><path
         id="path252"
         style="fill:#ff0000;fill-opacity:1;fill-rule:nonzero;stroke:none;stroke-width:0.264583"
         d="m 50.06164,-325.07443 v 245.270816 h 202.0347 V -325.07443 Z m 191.06172,72.239 c 1.42195,-0.0396 3.11835,0.92332 4.44418,3.2582 0.80855,1.42391 1.33311,2.97097 1.71979,4.55476 0.38267,1.85761 0.50306,3.75527 0.49506,5.64772 0.007,1.66837 -0.28067,3.30966 -0.52503,4.95318 -0.26767,2.07853 -1.32063,3.82386 -2.54249,5.47306 -0.98598,1.19805 -2.03839,2.33999 -3.16208,3.40961 -0.37488,0.32054 -0.76867,0.61405 -1.09502,0.98443 -4.73356,5.37222 -10.25077,0.0313 -5.19193,-5.03587 0.41783,-0.41852 0.82603,-0.84961 1.30896,-1.19579 0.83199,-0.78568 1.60086,-1.63171 2.34973,-2.49649 0.52191,-0.686 1.06794,-1.32103 1.17874,-2.204 0.19629,-1.31742 0.44949,-2.62948 0.44648,-3.9672 0.0288,-1.3072 -0.0809,-2.61845 -0.30179,-3.90725 -0.20137,-0.91522 -0.51051,-1.80281 -0.96014,-2.62775 -2.14172,-3.92928 -0.53435,-6.78057 1.83554,-6.84661 z m -24.00732,134.01508 c 1.58088,-0.0452 3.27238,1.29937 3.90106,4.36821 0.19779,0.96552 0.49313,1.88927 0.87385,2.79466 0.57738,1.31117 0.86222,2.69631 0.9741,4.11603 0.0779,1.63421 -0.38657,3.16522 -1.00976,4.65191 -0.60784,1.37091 -1.55916,2.5173 -2.50579,3.660755 -0.2566,0.333243 -0.50348,0.67224 -0.76223,1.002525 -0.0721,0.651052 -0.19323,1.300012 -0.35502,1.949752 l -0.4842,1.22783 c -0.70346,1.782932 -1.87803,2.754204 -3.12126,3.127457 -0.38818,0.593834 -0.73665,1.213207 -1.1529,1.788007 -0.78123,1.206815 -1.75001,2.262322 -2.80138,3.23546 -1.04259,0.90742 -2.26203,1.551003 -3.47214,2.198833 -0.81145,0.41652 -1.66264,0.737227 -2.52439,1.030428 -6.77856,2.306214 -9.10653,-4.670343 -2.28979,-6.86108 0.48258,-0.155091 0.95367,-0.335381 1.41232,-0.552421 0.68902,-0.364839 1.38726,-0.713642 2.01745,-1.175639 0.71797,-0.616461 1.30017,-1.358352 1.82004,-2.146123 0.66383,-0.892056 1.26802,-1.828112 1.8216,-2.792076 0.59882,-1.12436 1.07283,-2.316203 1.82056,-3.358968 0.0117,-0.0166 0.0249,-0.032 0.0367,-0.0486 -0.84786,-3.67928 0.87949,-5.67892 2.87217,-5.69422 0.38363,-0.003 0.77643,0.0723 1.16324,0.21859 0.15519,-0.3579 0.298,-0.71847 0.29042,-1.1188 -0.0398,-0.54898 -0.18359,-1.13581 -0.4191,-1.66191 -0.48947,-1.16893 -0.89792,-2.36312 -1.1591,-3.60547 -0.82863,-3.94139 1.021,-6.29698 3.05356,-6.35516 z" /></clipPath><clipPath
       clipPathUnits="userSpaceOnUse"
       id="clipPath278"><path
         id="path279"
         style="fill:#ff0000;fill-opacity:1;fill-rule:nonzero;stroke:none;stroke-width:0.264583"
         d="m -43.212488,-382.05292 v 250.81001 H 185.4025 v -250.81001 z m 181.494868,132.88233 c 1.13528,0.005 2.03811,0.42617 2.60707,1.09037 0.91934,-0.34123 1.78192,-0.54125 2.52078,-0.52658 4.05205,0.0805 5.08945,4.87108 -0.18087,7.33443 -2.21042,1.03317 -4.41856,2.08163 -6.72362,2.89285 -2.86091,0.99315 -5.74924,1.921 -8.52506,3.13986 -6.55592,2.87873 -9.40434,-3.76713 -2.84944,-6.64817 1.1011,-0.48395 2.22936,-0.89759 3.35587,-1.31568 0.52294,-1.00077 1.47788,-2.01475 2.95124,-2.87476 1.0894,-0.6359 2.16914,-1.287 3.24683,-1.94252 1.33817,-0.81396 2.56345,-1.15421 3.5972,-1.1498 z m -133.0900695,2.4753 h 5.5981075 c 7.160125,0 7.160125,7.23263 0,7.23263 H 5.1923105 c -7.1601277,0 -7.1601277,-7.23263 0,-7.23263 z m 42.9880715,50.84496 c 2.044401,-0.008 3.844292,2.25841 2.953308,6.18618 -0.283588,1.25017 -0.481169,2.51568 -0.75189,3.76877 -0.313965,1.46608 -0.73946,2.91235 -1.207162,4.33668 -2.233805,6.80278 -9.211228,4.46329 -6.857981,-2.29908 0.404762,-1.16313 0.726765,-2.36525 0.995807,-3.56619 0.287499,-1.32813 0.484814,-2.67249 0.804084,-3.99407 0.735603,-3.04497 2.473746,-4.42641 4.063834,-4.43229 z m 26.844358,9.60148 c 1.5451,0.0844 3.630816,1.85281 5.237924,5.05189 1.446292,2.8789 3.498345,5.40261 5.377447,8.00674 1.423178,1.86933 2.496352,3.93269 3.488161,6.04873 3.038795,6.48323 -3.64554,9.55837 -6.57066,3.02307 -0.764304,-1.70766 -1.644017,-3.34338 -2.782776,-4.84001 -2.279812,-3.15977 -5.466628,-6.83969 -6.494177,-10.63656 -0.141171,-0.52168 -0.167447,-1.06805 -0.251148,-1.60197 -0.554762,-3.53682 0.450099,-5.13633 1.995229,-5.05189 z m 22.433772,2.07998 v 5.3e-4 c 1.081786,0.0173 2.458693,0.64291 3.986318,2.0805 1.21595,1.14421 2.08888,2.57763 3.1502,3.85661 0.75663,0.91352 1.6619,1.66584 2.53163,2.46393 1.1475,0.93011 2.05703,2.06162 2.85305,3.29799 0.95863,1.59903 1.44035,3.34615 0.97049,5.20227 -0.10236,0.40431 -0.31771,0.77135 -0.47646,1.15703 -1.02548,2.49132 -2.04203,1.65641 -2.97036,0.0238 -2.04159,1.70549 -5.47708,1.09344 -5.78105,-3.28558 -0.003,-0.0322 -0.0142,-0.0648 -0.007,-0.0966 0.005,-0.03 0.0986,-0.0136 0.0827,-0.0393 -0.23736,-0.38486 -0.69492,-0.61714 -1.02216,-0.90227 -1.100378,-0.77725 -2.267905,-1.45106 -3.395141,-2.18798 -3.582773,-2.34245 -3.744537,-5.4822 -2.015898,-6.82284 -0.840523,-2.68156 0.04882,-4.63231 1.88154,-4.74287 0.06945,-0.004 0.140271,-0.006 0.212389,-0.005 z" /></clipPath><clipPath
       clipPathUnits="userSpaceOnUse"
       id="clipPath292"><path
         id="path293"
         style="fill:#ff0000;fill-opacity:1;fill-rule:nonzero;stroke:none;stroke-width:0.264583"
         d="M 39.169506,-337.89832 V -50.969072 H 288.46282 V -337.89832 Z m 15.676046,82.89261 c 1.714024,0.0204 3.54041,1.61061 3.978568,4.9382 0.120111,0.91222 0.106387,1.83456 0.107487,2.75229 0.0087,7.16012 -7.246413,7.15857 -7.232633,-0.002 0.0013,-0.65071 0.02757,-1.30512 -0.06356,-1.95182 -0.530767,-3.76661 1.267578,-5.76019 3.21014,-5.73712 z m 197.013298,6.80941 c 1.32993,-0.0899 2.96772,0.82319 4.38423,3.1042 1.07429,1.72993 1.55184,3.70118 1.89652,5.68338 0.39598,2.58761 0.42018,5.20011 0.26717,7.80675 -0.16631,2.61527 -0.75971,5.14416 -1.52187,7.63985 -0.4978,1.90614 -1.23662,3.72608 -2.0159,5.52989 -0.76243,1.81488 -1.37928,3.68664 -2.00143,5.55315 -0.64972,1.87676 -1.26002,3.76819 -2.01124,5.60741 -0.95415,2.1244 -1.9321,4.237 -2.90784,6.35155 -0.93622,2.10591 -1.93956,4.18102 -3.03444,6.20893 -0.74336,1.47932 -1.63431,2.88203 -2.64686,4.19044 -0.85071,1.10794 -1.91984,2.00805 -2.89078,3.00343 -1.04445,1.12516 -2.20219,2.13025 -3.34605,3.1502 -1.2349,1.05182 -2.56579,1.98944 -3.91811,2.88354 -1.93444,1.28303 -4.12655,2.08437 -6.28747,2.89285 -2.75914,1.06536 -5.6224,1.79172 -8.50439,2.42982 -2.00852,0.48359 -4.02259,0.93996 -6.05234,1.32499 -1.0898,0.20672 -1.99053,0.15992 -2.79725,0.0139 -0.75827,0.17949 -1.51301,0.3744 -2.26653,0.57309 -1.4977,0.44017 -2.97995,0.92699 -4.46019,1.42214 -1.58834,0.5581 -3.19109,1.04834 -4.83381,1.42213 -2.05853,0.5373 -4.13223,0.98734 -6.23425,1.31724 -1.89057,0.38525 -3.79586,0.65788 -5.71696,0.82837 -1.92552,0.0766 -3.83858,0.29911 -5.75676,0.47025 -1.71912,0.15432 -3.44381,0.22701 -5.16867,0.27441 -2.44184,-0.0118 -4.87127,-0.25567 -7.30085,-0.47078 -2.85973,-0.19225 -5.71909,-0.39592 -8.57157,-0.67799 -2.83995,-0.26841 -5.65359,-0.74864 -8.47907,-1.13016 -2.66463,-0.21934 -5.29981,-0.64608 -7.94267,-1.03457 -2.11987,-0.30404 -4.25541,-0.45909 -6.38152,-0.71055 -1.8808,-0.17534 -3.75496,-0.4017 -5.63118,-0.61856 -1.91243,-0.21286 -3.83573,-0.28885 -5.75779,-0.34985 -2.23949,-0.16259 -4.48445,-0.27106 -6.71949,-0.48783 -2.21917,-0.20648 -4.40762,-0.67897 -6.54068,-1.31516 -2.57048,-0.65769 -4.88262,-1.9917 -7.25382,-3.13883 -1.91366,-0.89121 -3.846978,-1.74009 -5.755724,-2.6417 -1.929913,-0.93683 -3.722034,-2.11514 -5.521108,-3.27525 -1.492637,-0.90475 -0.734285,-0.44535 -2.275314,-1.37821 -6.125257,-3.70793 -2.379728,-9.89571 3.745508,-6.18774 1.606161,0.9723 0.789586,0.47683 2.449462,1.48725 1.534261,0.98943 3.055983,2.00536 4.695836,2.81636 1.92633,0.91375 3.8825,1.76312 5.81257,2.66909 2.03397,0.98503 4.0062,2.16157 6.20944,2.72955 1.67042,0.52508 3.40555,0.86136 5.14697,1.03715 2.07333,0.21111 4.15957,0.28906 6.23683,0.4563 2.12341,0.0679 4.24789,0.15641 6.36033,0.39429 1.88182,0.21873 3.76122,0.44337 5.64772,0.62012 2.19401,0.25968 4.39889,0.41632 6.58565,0.73794 2.61501,0.3856 5.2221,0.80551 7.85895,1.02267 2.74095,0.37156 5.47017,0.83558 8.22482,1.1002 2.82609,0.28319 5.66087,0.47505 8.49405,0.67076 2.15225,0.19062 4.3024,0.40925 6.46472,0.44545 1.57684,-0.0428 3.1537,-0.10777 4.7253,-0.24857 1.92194,-0.17061 3.8389,-0.3955 5.76812,-0.4718 1.7606,-0.15093 3.50197,-0.42258 5.23482,-0.76946 1.94524,-0.29972 3.85736,-0.73584 5.76244,-1.22784 1.40538,-0.30937 2.76609,-0.74989 4.12327,-1.22421 1.62869,-0.54468 3.26081,-1.07909 4.91081,-1.5565 1.77362,-0.46766 3.552,-0.92735 5.36814,-1.20147 1.70238,-0.33298 3.38762,-0.74982 5.05034,-1.24437 1.8768,-0.51034 3.73395,-1.11665 5.54695,-1.81953 1.67544,-0.67931 3.31988,-1.45879 4.78886,-2.52439 1.0657,-0.84543 2.16725,-1.64342 3.15019,-2.58951 1.28809,-1.21508 2.58622,-2.41928 3.84008,-3.67058 0.85194,-0.84614 1.68746,-1.65828 2.24585,-2.7404 0.63482,-0.99725 1.29901,-1.9775 1.85674,-3.02152 0.55263,-0.92785 1.06197,-1.877 1.53479,-2.8484 0.43455,-0.81257 0.86675,-1.63643 1.16427,-2.50993 0.39723,-1.087 0.65435,-2.21493 0.97203,-3.32641 0.29574,-1.24569 0.60338,-2.49273 1.07901,-3.68453 0.39957,-1.05638 0.68712,-2.15558 1.05006,-3.22512 0.22713,-0.94997 0.37986,-1.92387 0.55966,-2.88303 0.22526,-1.23853 0.53664,-2.45701 1.02371,-3.62149 0.47591,-1.31864 1.08044,-2.58627 1.7048,-3.84007 0.34111,-0.58794 0.67316,-1.19257 0.96067,-1.80041 0.32682,-0.71346 -0.0659,-2.40019 0.0822,-3.22151 v -4.23178 c 0,-3.58007 1.80812,-5.37022 3.61632,-5.37022 0.15156,0 0.30168,0.0312 0.45217,0.0563 -0.0649,-0.17178 -0.10183,-0.35173 -0.18242,-0.51883 -1.94402,-4.03078 -0.58254,-6.96655 1.63401,-7.11636 z" /></clipPath></defs><g
     id="layer1"
     transform="translate(106.4811,360.00092)"><path
       style="fill:#000000"
       d="m -16.534203,-113.12516 c -7.13112,-2.56456 -10.8044,-9.89935 -11.86301,-23.68802 l -0.23487,-3.05936 -4.46207,0.19845 c -4.36112,0.19396 -4.56359,0.16934 -8.94884,-1.08822 -2.46772,-0.70766 -6.02642,-1.83696 -7.90824,-2.50955 l -3.42147,-1.22288 -7.34913,1.04894 c -8.74316,1.2479 -8.90941,1.25313 -10.10906,0.31836 -0.9185,-0.7157 -18.58408,-18.21434 -26.425782,-26.17605 -2.36099,-2.39712 -3.968745,-4.31219 -3.968745,-4.72734 0,-1.03045 4.593732,-8.28036 18.905867,-29.83756 7.05277,-10.62302 13.04706,-19.31458 13.32065,-19.31458 0.27358,0 2.53111,1.04696 5.01673,2.32658 l 4.51931,2.32658 1.50655,-1.70922 c 1.56639,-1.77711 1.80216,-2.23839 1.14408,-2.23839 -0.72351,0 -9.64104,-3.62019 -12.81061,-5.20063 -1.73031,-0.86279 -3.9815,-2.1995 -5.00264,-2.97047 -3.33178,-2.51552 -6.05247,-6.83198 -7.36716,-11.68824 -0.58145,-2.14778 -0.63138,-2.20806 -2.63453,-3.18094 -5.26272,-2.55597 -9.43239,-8.46629 -10.997826,-15.58888 -0.73317,-3.33587 -0.549613,-10.70577 0.351455,-14.11111 1.107101,-4.18398 3.258131,-8.28052 5.742481,-10.9363 l 2.1239,-2.27045 -1.11792,-2.92163 c -5.04449,-13.18354 -7.212534,-18.5073 -7.690629,-18.88481 -0.30715,-0.24254 -0.973193,-0.44098 -1.480096,-0.44098 -0.506902,0 -1.733374,-0.4045 -2.725492,-0.89889 -8.00369,-3.98841 -8.10051,-15.57145 -0.16263,-19.45662 1.677169,-0.82089 2.436219,-0.97631 4.650172,-0.95218 3.392525,0.037 5.759665,1.02424 7.873045,3.28362 3.91569,4.18619 4.07968,10.34826 0.38477,14.45789 -0.85527,0.95127 -1.55141,1.865 -1.54698,2.03052 0.004,0.16552 1.74013,4.82532 3.85709,10.35511 3.05736,7.98625 3.97875,10.05416 4.47976,10.05416 0.4955,0 0.97441,-1.02114 2.23358,-4.7625 4.01885,-11.94119 11.64893,-24.41577 20.73111,-33.89376 19.0251,-19.85423 45.79677,-30.42291 74.70012,-29.48944 34.31487,1.10823 64.52868,18.58695 79.99263,46.27581 4.462933,7.99106 8.247823,19.17658 9.434633,27.88219 l 0.43489,3.19008 2.24796,0.73329 2.24797,0.73329 1.19577,-2.15948 c 0.65767,-1.18771 3.45347,-6.56927 6.21287,-11.95901 l 5.0171,-9.79954 -0.86532,-1.13657 c -2.06042,-2.7063 -2.54215,-4.12141 -2.54857,-7.48658 -0.007,-3.71121 0.77719,-5.74666 3.07244,-7.97413 2.27908,-2.21177 4.20497,-2.95343 7.68123,-2.95802 2.57494,-0.003 3.28285,0.13562 5.01036,0.98395 5.50181,2.70175 7.87038,9.13507 5.3945,14.65207 -1.75091,3.90155 -5.51764,6.40613 -9.84658,6.5472 l -2.23322,0.0728 -6.29336,12.40106 -6.29336,12.40106 1.13032,1.51619 c 4.30919,5.78025 6.02662,11.78948 5.60791,19.62183 -0.35908,6.71679 -1.94019,11.90867 -5.1015,16.7518 -3.68951,5.65233 -9.41121,9.55576 -15.48133,10.56161 l -2.26168,0.37478 -1.206613,2.61154 c -0.66363,1.43635 -1.72159,3.26177 -2.35101,4.05648 -2.50651,3.16473 -6.90214,5.54881 -13.58151,7.36629 -1.52007,0.41362 -2.97078,0.86447 -3.2238,1.00191 -0.31019,0.16849 0.4141,0.9194 2.22366,2.30542 2.01805,1.5457 2.78403,1.9552 3.08823,1.651 0.22249,-0.2225 0.69273,-0.40454 1.04496,-0.40454 1.91848,0 29.906803,15.23578 32.680873,17.79023 1.98198,1.82506 8.31133,9.36153 9.0312,10.75361 0.93282,1.80388 0.68887,3.60555 -0.89554,6.61395 -2.46365,4.67787 -3.84715,6.52635 -7.6673,10.24419 l -3.69682,3.59782 0.59029,0.90089 c 0.54987,0.83921 0.55034,0.97933 0.007,2.04663 -2.02165,3.96987 -9.56935,12.4497 -17.710443,19.89765 -4.72534,4.32302 -5.27064,4.48709 -6.56014,1.97378 -1.64691,-3.20991 -1.2411,-3.21978 -6.35691,0.15459 -2.50742,1.65388 -5.91388,3.78397 -7.56992,4.73352 -3.61984,2.07558 -3.2792,2.05584 -14.57335,0.84466 -4.52254,-0.48499 -8.50953,-0.88187 -8.85999,-0.88194 -0.42165,-9e-5 -0.8864,0.56671 -1.37387,1.67555 -2.49387,5.67272 -7.80996,11.07912 -13.43056,13.65869 -3.98632,1.82952 -7.02622,2.42816 -11.27623,2.2206 -4.7572,-0.23232 -7.18456,-1.13715 -9.62094,-3.58632 -2.96027,-2.97581 -4.05053,-6.1876 -4.05905,-11.95755 l -0.005,-3.24583 -3.22462,-1.41111 c -1.77354,-0.77611 -3.3776795,-1.41111 -3.5647595,-1.41111 -0.18707,0 -0.76895,1.42875 -1.29307,3.175 -2.54363,8.47489 -6.50101002,14.78138 -11.13435,17.7437 -3.40644,2.1779 -8.7795505,2.81148 -12.4990505,1.47384 z m 8.4421005,-6.08727 c 1.80335,-0.84534 5.77721,-4.61811 5.55774,-5.2765 -0.27775,-0.83326 -18.5214405,-4.70905 -19.1600305,-4.07046 -0.48482,0.48482 0.67694,3.91116 1.98332,5.84938 2.86557,4.25151 7.21657,5.56126 11.6189705,3.49758 z m 43.8684995,-1.53359 c 0.94135,-0.36331 1.7351,-0.81932 1.76389,-1.01335 0.0288,-0.19403 -1.13829,-0.76597 -2.5935,-1.27098 -3.42315,-1.18797 -3.88056,-1.39224 -3.88056,-1.73304 0,-0.15548 0.98408,0.0153 2.18685,0.37943 1.20276,0.36417 2.90933,0.75303 3.79236,0.86414 l 1.60552,0.20202 -1.19176,-0.54569 c -0.65546,-0.30013 -3.27484,-1.28515 -5.82083,-2.18893 -2.54599,-0.90378 -5.95457,-2.25227 -7.57462,-2.99662 -1.62005,-0.74436 -3.00911,-1.35339 -3.08681,-1.35339 -0.0777,0 -0.13777,1.15094 -0.13351,2.55764 0.0128,4.21375 1.45098,6.3612 5.05099,7.5418 2.04672,0.6712 7.64533,0.42021 9.88198,-0.44303 z m -6.12128,-4.54113 c 0,-0.097 0.0794,-0.17639 0.17639,-0.17639 0.097,0 0.17639,0.0794 0.17639,0.17639 0,0.097 -0.0794,0.17639 -0.17639,0.17639 -0.097,0 -0.17639,-0.0794 -0.17639,-0.17639 z m 12.34722,0.71083 c -0.17357,-0.34194 -11.99101,-3.47769 -12.22485,-3.24384 -0.066,0.066 1.42731,0.5566 3.31842,1.09026 1.89111,0.53366 4.39088,1.34621 5.55505,1.80565 2.1211,0.83711 3.68194,0.99916 3.35138,0.34793 z m -43.9095095,-1.57446 c -0.52715,-0.85295 -16.5254805,-4.60442 -19.6357705,-4.60442 -0.89444,0 -0.99037,0.0888 -0.69416,0.64222 0.2758,0.51533 1.13214,0.73223 4.33394,1.09771 4.14449,0.47309 12.8605005,2.16407 14.3971705,2.79317 1.13522,0.46475 1.86201,0.49717 1.59882,0.0713 z m 1.93510998,-2.75234 c 0.7547,-1.60204 3.17573002,-8.72316 3.65808002,-10.75972 l 0.22977,-0.97014 h -4.00635002 c -2.20348998,0 -8.29303998,0.10426 -13.53232048,0.2317 l -9.52597,0.2317 0.16718,3.56066 c 0.23614,5.02911 0.21494,4.99447 3.22691,5.2744 3.41461,0.31736 14.2151105,2.50276 16.6015505,3.35921 1.06716,0.38298 2.04186,0.70793 2.16600998,0.72211 0.12416,0.0142 0.58097,-0.72829 1.01514,-1.64992 z m 29.15680952,0.73495 c -0.12935,-0.12935 -0.34102,-0.12935 -0.47037,0 -0.12935,0.12935 -0.0235,0.23519 0.23519,0.23519 0.2587,0 0.36453,-0.10584 0.23518,-0.23519 z m 18.31111,-3.55717 c 0.52578,-4.85253 -0.29498,-45.49864 -1.11353,-55.14542 l -0.22654,-2.66973 -4.3513,-2.04392 c -2.39321,-1.12416 -4.47363,-2.03106 -4.62315,-2.01534 -0.14952,0.0157 -0.85886,4.20062 -1.57632,9.29977 -5.34079,37.95842 -6.32776,44.90582 -6.77095,47.66149 l -0.50058,3.11254 0.80993,0.30794 c 1.28082,0.48697 16.1071,3.80888 17.15237,3.84309 0.90666,0.0297 0.95176,-0.0587 1.20007,-2.35042 z m 28.12262,-1.89448 c 1.8579,-0.9356 12.30337,-7.42528 12.16815,-7.55996 -0.0548,-0.0545 -2.71894,-0.43613 -5.9204,-0.84798 -3.20146,-0.41186 -7.76678,-0.99942 -10.14515,-1.3057 -3.66846,-0.47241 -4.42591,-0.48375 -4.99418,-0.0747 -1.73292,1.2473 -10.26067,8.2601 -10.26067,8.43786 0,0.11066 3.92906,0.60632 8.73125,1.10146 4.80219,0.49514 8.77726,0.92202 8.8335,0.94862 0.0562,0.0266 0.77061,-0.28821 1.5875,-0.69958 z m -47.76353,-11.1583 c 3.34472,-23.74673 6.39432,-44.86794 6.92731,-47.97777 0.17462,-1.01888 0.10635,-1.14574 -0.61323,-1.13946 -0.84736,0.007 -7.28203,1.58512 -7.54747,1.85057 -0.0841,0.0841 -0.5589,1.56591 -1.05501,3.29281 -1.64547,5.72766 -13.14682,42.94911 -14.25531,46.13401 -0.59922,1.72167 -1.04292,3.16546 -0.986,3.20844 0.95085,0.71785 14.32735,5.45035 15.46097,5.46996 0.44193,0.008 0.82018,-1.97408 2.06874,-10.83856 z m 29.91625,5.82083 c 2.65978,-2.18281 5.46036,-4.53591 6.2235,-5.22911 l 1.38752,-1.26036 -2.01621,-8.44103 c -3.74827,-15.69249 -7.56219,-30.71387 -9.96862,-39.26218 l -0.53301,-1.89337 -2.25527,2.23522 c -1.37631,1.36407 -2.19162,2.44572 -2.09195,2.77532 0.27784,0.91882 1.90238,21.55178 2.48681,31.58454 0.30517,5.23875 0.7859,12.35238 1.06828,15.80807 0.28239,3.45569 0.51343,6.591 0.51343,6.96736 0,0.37636 0.0786,0.68429 0.17477,0.68429 0.0961,0 2.35096,-1.78593 5.01075,-3.96875 z m 39.32763,-3.35139 c 1.90944,-1.97006 7.114003,-7.96811 8.083353,-9.31574 0.6457,-0.89768 0.64669,-0.93009 0.0235,-0.76713 -0.47197,0.12342 -1.27882,-0.53948 -2.93831,-2.41411 -2.402193,-2.71363 -12.024383,-14.40918 -15.638683,-19.00848 -4.994,-6.355 -14.00413,-17.45005 -14.24111,-17.53649 -0.14181,-0.0517 -0.61116,0.38386 -1.043,0.96795 l -0.78516,1.06198 1.70925,3.61817 c 2.17842,4.61132 6.73603,13.0765 7.19242,13.35899 0.19178,0.11871 0.34126,0.31414 0.33218,0.4343 -0.009,0.12015 3.08638,6.53177 6.87882,14.24805 3.79244,7.71628 7.21692,14.70429 7.60996,15.5289 0.39304,0.82462 0.82217,1.49931 0.95361,1.49931 0.13145,0 0.96986,-0.75406 1.86313,-1.6757 z m -116.30343,-1.50878 c 4.26862,-0.18288 9.9439305,-0.36629 12.6118105,-0.40757 2.66788,-0.0413 4.85069,-0.11308 4.85069,-0.15955 0,-0.0465 -1.37619,-0.98155 -3.0582,-2.07794 l -3.0582,-1.99343 -6.7313805,0.39676 c -6.24491,0.3681 -28.64655,2.04678 -29.83495,2.23571 -0.28919,0.046 1.21893,0.67182 3.35138,1.39078 l 3.87719,1.30719 5.11528,-0.17972 c 2.8134,-0.0988 8.60777,-0.32935 12.87638,-0.51223 z m 108.12639,0.19113 c 0,-0.0941 -0.79375,-1.85824 -1.76389,-3.92027 -0.97014,-2.06204 -1.76389,-3.7985 -1.76389,-3.85882 0,-0.26026 -15.26895,-32.13133 -16.76601,-34.9959 l -1.65282,-3.1626 1.27315,-1.77213 1.27315,-1.77213 -1.10367,-0.22073 c -0.60701,-0.1214 -1.63221,-0.22073 -2.27822,-0.22073 -0.64601,0 -3.33142,-0.41683 -5.96759,-0.92628 -2.63616,-0.50946 -4.86532,-0.85398 -4.95369,-0.76562 -0.0884,0.0884 0.8735,3.95801 2.13747,8.5992 2.44892,8.9922 3.65099,13.76175 7.53484,29.89664 1.34632,5.59307 2.53182,10.25318 2.63444,10.35581 0.10263,0.10263 1.98231,0.39941 4.17708,0.65951 7.71992,0.91491 15.63593,1.94593 15.98492,2.08197 0.52496,0.20462 1.23473,0.21732 1.23473,0.0221 z m -85.4865595,-13.6754 c -0.24591,-14.12351 -0.88385,-33.45715 -1.14639,-34.74278 -0.15509,-0.75947 -3.40777,-3.26902 -4.23705,-3.26902 -0.25458,0 -0.47434,1.57618 -0.62713,4.49791 -0.38346,7.3326 -2.00462,30.93614 -2.47211,35.993 -0.38302,4.14317 -0.36994,4.74073 0.11326,5.17557 0.98573,0.88709 7.90759,5.48629 8.25694,5.48629 0.21785,0 0.25853,-4.7529 0.11248,-13.14097 z m 4.48241,11.32074 c 0.20333,-1.01665 0.0661,-1.6907 -0.26992,-1.32537 -0.34741,0.37777 -0.59228,2.44005 -0.28972,2.44005 0.18519,0 0.43703,-0.50161 0.55964,-1.11468 z m -49.0482905,-2.05346 c 8.96994,-0.88155 29.33176,-2.47631 31.6174005,-2.47631 1.33855,0 1.76793,-0.13869 1.9113,-0.61736 0.24705,-0.82484 1.08017,-11.76731 2.142,-28.13402 0.47835,-7.37306 0.9534,-14.32701 1.05567,-15.45322 l 0.18593,-2.04766 -1.67229,0.10738 c -1.56772,0.10067 -1.67976,0.17356 -1.7917,1.16572 -0.15928,1.41173 -0.65217,1.94028 -1.80939,1.94028 -1.0488105,0 -1.9020805,-0.76767 -2.2993505,-2.0687 -0.22564,-0.73896 -0.40122,-0.80829 -1.54103,-0.60845 -0.70751,0.12404 -5.24807,0.86269 -10.09014,1.64145 -4.84208,0.77876 -8.81743,1.44944 -8.83412,1.49039 -0.0167,0.041 -0.46061,0.74621 -0.98648,1.56723 -1.58772,2.4788 -4.1298,2.39767 -4.1298,-0.1318 0,-1.00407 -0.11336,-1.21655 -0.55802,-1.04592 -0.30691,0.11777 -0.90222,0.21656 -1.32292,0.21953 -0.42069,0.003 -0.96057,0.1297 -1.19973,0.28162 -0.24233,0.15392 -1.22792,4.48573 -2.22615,9.78418 -2.42145,12.85266 -2.86731,15.21556 -4.72303,25.03019 -0.88047,4.65666 -1.66068,8.82385 -1.7338,9.26041 -0.16172,0.96553 -0.77722,0.95822 8.00565,0.0951 z m -20.0545,-0.18661 c 2.52236,-0.28532 4.70007,-0.52035 4.83936,-0.52228 0.51584,-0.007 4.01868,-12.61204 8.57909,-30.87158 1.64761,-6.59695 3.23923,-12.73323 3.53693,-13.63618 0.60647,-1.8395 0.69502,-1.88259 4.64642,-2.26091 2.42686,-0.23235 3.57407,-0.78645 3.12675,-1.51022 -0.11166,-0.18068 -1.48687,-1.05588 -3.05601,-1.9449 l -2.853,-1.6164 -1.06054,2.37041 c -2.55062,5.7009 -4.08085,9.02505 -6.2067,13.48292 -7.85506,16.47197 -15.22084,32.40113 -16.43508,35.54236 -0.43164,1.11664 -0.46774,1.49755 -0.14144,1.49242 0.24096,-0.004 2.50186,-0.24032 5.02422,-0.52564 z m -6.64467,-3.25984 c 0.87859,-1.89177 3.15315,-6.77333 5.05457,-10.84791 1.90143,-4.07459 4.88388,-10.50396 6.62768,-14.2875 1.74379,-3.78354 4.69715,-10.10308 6.56301,-14.04342 1.86586,-3.94033 3.39247,-7.25291 3.39247,-7.36128 0,-0.10837 -0.30848,-0.11636 -0.68551,-0.0178 -1.6923,0.44255 -2.2021,-2.11215 -0.69388,-3.47708 0.37061,-0.33539 0.67383,-0.79713 0.67383,-1.0261 0,-0.34382 -8.97741,-6.96182 -12.43718,-9.16848 -1.07025,-0.68261 -1.80417,-0.38223 -2.21295,0.90572 -0.26802,0.84449 -1.76412,1.25171 -2.46417,0.67072 -0.28852,-0.23945 -0.52459,-0.89475 -0.52459,-1.45621 0,-0.82124 0.24381,-1.13711 1.24689,-1.61545 0.75787,-0.3614 1.20723,-0.80882 1.14576,-1.14082 -0.11496,-0.6209 -4.30668,-3.54483 -5.08183,-3.54483 -0.51135,0 -2.41576,2.81993 -15.73896,23.30531 -13.768622,21.17023 -13.102305,20.06019 -12.602221,20.9946 0.243924,0.45578 5.063361,5.31821 10.709851,10.8054 13.97896,13.58459 15.18396,14.74469 15.31545,14.74469 0.0629,0 0.83319,-1.54782 1.71178,-3.43959 z m 78.39251,-2.99621 c 0.28468,-0.92032 0.45037,-1.7358 0.36821,-1.8122 -0.0822,-0.0764 -0.9828195,-0.25111 -2.0014695,-0.38827 l -1.85208,-0.24939 v 1.94752 c 0,2.0828 0.24898,2.34708 2.10123,2.23028 0.70923,-0.0447 0.9604495,-0.35834 1.3841095,-1.72794 z m 99.289493,-1.02881 c 0.36472,-0.45042 1.04601,-1.57452 1.51398,-2.498 l 0.85084,-1.67906 h -2.53607 c -2.49009,0 -2.55702,-0.024 -3.69093,-1.32292 -1.09019,-1.24884 -14.470503,-17.99435 -24.106323,-30.16914 -2.41575,-3.05228 -4.56551,-5.5496 -4.77724,-5.5496 -0.21174,0 -1.0787,0.70686 -1.92659,1.57079 -1.1321,1.15353 -1.44743,1.69238 -1.18703,2.02848 0.19502,0.25172 2.93152,3.61802 6.0811,7.48068 3.14959,3.86265 7.42101,9.16724 9.49205,11.78798 2.07105,2.62075 6.49967,8.05097 9.84139,12.06718 l 6.075853,7.30219 1.85292,-0.0998 c 1.43914,-0.0775 2.001,-0.2827 2.51605,-0.91876 z m -98.042053,-2.71786 c 0.10357,-0.16758 -0.64112,-0.40433 -1.65488,-0.5261 -2.6294995,-0.31586 -3.6327795,-0.2863 -3.2366495,0.0954 0.64588,0.62231 4.5601095,0.96699 4.8915295,0.43074 z m 1.29691,-4.182 c 0.1591,-0.43039 0.17719,-0.84779 0.0402,-0.92755 -0.13698,-0.0798 -1.65014,-0.25882 -3.3625695,-0.3979 l -3.11351,-0.25287 0.1149,1.00403 c 0.11069,0.96728 0.19884,1.01053 2.40795,1.18146 3.4326595,0.2656 3.6000095,0.23964 3.9130295,-0.60717 z m 99.108553,-3.93964 c 4.37621,-3.64395 7.89812,-7.26105 7.664,-7.87116 -0.10153,-0.26457 -2.22701,-1.89918 -4.72328,-3.63244 -2.49628,-1.73327 -6.36432,-4.51396 -8.59564,-6.1793 -4.32494,-3.22793 -11.006823,-8.10206 -19.534873,-14.24981 l -5.24737,-3.78275 -1.00009,1.16881 c -0.55006,0.64285 -1.00655,1.25259 -1.01444,1.35498 -0.008,0.10239 0.89848,1.30986 2.01414,2.68328 3.84236,4.73008 26.017943,32.31764 26.368333,32.80355 0.19303,0.2677 0.43587,0.48673 0.53963,0.48673 0.10377,0 1.69208,-1.25185 3.52959,-2.78189 z m 4.35416,1.02359 c 2.09985,-1.70794 4.07175,-3.82542 5.91864,-6.35559 2.01111,-2.75516 1.03863,-2.08463 -3.61997,2.49598 -4.31977,4.24746 -5.46141,5.61791 -4.67992,5.61791 0.12072,0 1.19228,-0.79124 2.38125,-1.7583 z m -99.036983,-10.4686 c 1.82766,-5.79 3.95339,-12.53576 4.72384,-14.99059 1.59367,-5.07781 1.32714,-4.83337 6.1119,-5.60523 l 2.67178,-0.43101 0.59312,-1.80577 c 0.32622,-0.99318 1.20518,-3.13767 1.95325,-4.76553 0.74807,-1.62786 1.36013,-2.99132 1.36013,-3.0299 0,-0.0386 -4.92742,-0.17553 -10.94982,-0.30434 -14.6272295,-0.31285 -28.6400495,-1.32882 -35.55107,-2.57756 l -1.16894,-0.21121 2.58005,5.00256 2.5800605,5.00256 1.41111,-0.22022 c 2.32921,-0.36349 2.58437,-0.28841 5.95885998,1.75323 l 3.24807002,1.96515 6.33265,0.18657 c 8.0752595,0.2379 9.8117495,0.4723 9.9791495,1.34705 0.10998,0.57473 -0.0297,0.6329 -1.05431,0.43923 -3.28708,-0.62132 -12.3120095,-1.40036 -12.6186495,-1.08926 -0.2121,0.21518 -0.21073,2.22143 0.004,5.45561 0.30615,4.61689 0.41368,5.17197 1.10364,5.69712 1.16533,0.88696 3.3259795,1.42472 6.5378395,1.6272 2.75851,0.17389 3.65766,0.51389 2.29306,0.86706 -1.15924,0.30002 -6.6113395,-0.47413 -8.1587295,-1.15847 -0.84929,-0.3756 -1.56366,-0.68315 -1.5875,-0.68344 -0.0239,-2.9e-4 0.0592,2.10315 0.18446,4.67431 0.12529,2.57116 0.24679,6.34171 0.26998,8.379 0.0232,2.03729 0.18935,3.93686 0.36923,4.22128 0.36232,0.57286 6.6732795,1.48415 7.1970895,1.03924 0.16665,-0.14155 1.79836,-4.99463 3.62603,-10.78464 z m -6.57487,-8.12969 c -1.0021595,-0.36466 -2.4539695,-1.98734 -2.8490095,-3.18432 -1.03896,-3.14808 1.40929,-6.4452 4.7858295,-6.4452 2.9309,0 5.12484,2.21756 5.11354,5.16859 -0.0107,2.78841 -2.04233,4.73032 -4.89767,4.68133 -0.89293,-0.0153 -1.86165,-0.1145 -2.15269,-0.2204 z m 4.40607,-1.8646 c 0.83036,-0.86671 1.01489,-1.3744 1.03614,-2.85069 0.023,-1.59834 -0.10105,-1.90961 -1.12625,-2.82604 -0.91395,-0.81699 -1.48255,-1.02986 -2.75087,-1.02986 -2.12308,0 -3.3300395,1.20263 -3.3266495,3.31471 0.006,3.73045 3.8289795,5.8329 6.1676295,3.39188 z m -4.58246,-16.64827 c -10.47180952,-0.85536 -17.7797395,-1.65614 -18.4660895,-2.02347 -1.05301,-0.56355 -1.03338,-2.31176 0.0335,-2.97867 0.61322,-0.38335 1.36722,-0.43108 3.3153,-0.20987 1.38686,0.15748 6.38749,0.53657 11.1125,0.84241 13.7945195,0.8929 13.6509395,0.87589 14.4274395,1.70937 0.87361,0.9377 0.86999,1.4857 -0.0157,2.37136 -0.80094,0.80093 -3.29167,0.87007 -10.40695,0.28887 z m 8.64306,-1.48245 c 0,-0.62855 -1.04242,-0.89866 -2.04163,-0.52903 -1.24794,0.46164 -0.90362,1.01705 0.63052,1.01705 0.96626,0 1.41111,-0.15385 1.41111,-0.48802 z m -4.58611,-0.19215 c 0,-0.38404 -1.08468,-0.50417 -11.6416695,-1.28927 -4.36562,-0.32466 -8.20381,-0.72816 -8.5293,-0.89666 -0.95468,-0.49422 -2.31692,0.33061 -1.43667,0.86989 0.21558,0.13207 8.37319,0.83506 16.31597,1.40605 3.5010095,0.25167 5.2916695,0.22122 5.2916695,-0.09 z m 108.429963,26.05436 1.33613,-1.7897 -2.21034,-2.70822 c -5.44029,-6.66567 -6.49263,-7.66141 -10.81521,-10.23333 -3.24766,-1.93235 -20.043513,-11.33346 -23.950063,-13.40552 -0.67113,-0.35597 -0.96704,-0.22096 -2.44147,1.11393 l -1.67778,1.519 6.85118,4.89107 c 3.76816,2.69009 8.06095,5.80637 9.53955,6.92508 4.251463,3.21665 21.507133,15.47739 21.782763,15.47739 0.13701,0 0.85037,-0.80537 1.58524,-1.7897 z m -156.027983,-18.34332 c 1.19398,-2.34192 3.51637,-6.49421 5.16088,-9.22733 1.6445,-2.73311 3.23625,-5.4857 3.53723,-6.11685 0.55495,-1.16375 0.39311,-2.4963 -0.25457,-2.09601 -0.61673,0.38115 -7.09353,11.48461 -9.05572,15.5246 -1.03662,2.1343 -1.98386,4.39649 -2.10499,5.02708 -0.43375,2.25815 0.55936,1.12092 2.71717,-3.11149 z m 79.6969,2.6752 c 0.36211,-0.43631 0.147,-0.78976 -1.27972,-2.10266 -1.93102,-1.77696 -2.42289,-1.96602 -2.11374,-0.81244 0.117,0.43656 0.21489,1.14587 0.21754,1.57623 0.003,0.48782 0.37014,0.98068 0.97495,1.3088 1.23976,0.67257 1.66295,0.67836 2.20097,0.0301 z m 24.14334,-4.71537 c 0.13292,-1.52373 0.1358,-3.19223 0.006,-3.70778 -0.20151,-0.80289 -0.39565,-0.4687 -1.35322,2.32944 l -1.11797,3.26681 0.89253,0.41232 c 0.49089,0.22677 0.9911,0.42521 1.11156,0.44097 0.12047,0.0158 0.32778,-1.21803 0.4607,-2.74176 z m -30.84222,-0.73655 c 0,-1.7348 -0.15363,-3.24913 -0.3414,-3.36517 -0.27825,-0.17197 -2.8336,4.27233 -2.8336,4.92823 0,0.29001 2.23271,1.5883 2.73402,1.5898 0.32,9.6e-4 0.44098,-0.864 0.44098,-3.15286 z m -67.9829,0.42014 c 0.25155,-1.31591 -0.30243,-1.22964 -1.29424,0.20155 -1.18508,1.71007 -1.16538,1.93171 0.10682,1.20157 0.56786,-0.3259 1.10219,-0.95731 1.18742,-1.40312 z m 101.76159,1.3327 c 0.33298,-0.53319 0.33958,-0.90417 0.0282,-1.5875 -0.61263,-1.34458 -0.99859,-1.07565 -0.99859,0.69579 0,1.71882 0.28834,1.98379 0.97036,0.89171 z m -83.4450895,-1.10649 c -0.21787,-2.57761 -5.5042505,-11.74059 -8.5042405,-14.74059 -1.523,-1.52299 -3.56547,-2.76005 -3.56547,-2.15949 0,0.20117 1.15094,1.70375 2.55764,3.33906 2.79635,3.25081 6.29827,8.88626 7.85434,12.63957 1.04081,2.51046 1.8290805,2.94862 1.6577305,0.92145 z m 44.9098595,-0.93175 c 0.54656,-1.30969 1.44166,-3.28588 1.9891,-4.39155 0.90809,-1.83406 1.02522,-3.10498 0.28614,-3.10498 -0.44309,0 -2.27625,3.38877 -3.48772,6.44738 -1.27078,3.20836 -1.29886,3.4304 -0.43391,3.4304 0.47239,0 0.92709,-0.65767 1.64639,-2.38125 z m 30.13319,0.70212 c 1.90526,-1.98604 2.85998,-4.40126 2.82252,-7.14031 -0.0428,-3.13086 -0.53149,-3.69967 -0.79099,-0.92073 -0.28034,3.00212 -1.40863,5.49201 -3.57446,7.88809 -1.51133,1.67199 -1.59602,1.85208 -0.87101,1.85208 0.49751,0 1.41605,-0.63893 2.41394,-1.67913 z m -88.52387,0.44441 c 0,-0.48507 -0.15875,-0.88195 -0.35278,-0.88195 -0.19403,0 -0.35278,0.39688 -0.35278,0.88195 0,0.48507 0.15875,0.88194 0.35278,0.88194 0.19403,0 0.35278,-0.39687 0.35278,-0.88194 z m 77.45972,-0.44098 c -0.71238,-3.03286 -3.37639,-6.78267 -3.37639,-4.75254 0,1.1632 2.4086,5.72268 3.02307,5.72268 0.45408,0 0.53135,-0.21217 0.35332,-0.97014 z m -71.61916,0.17272 c 0.20045,-0.23803 -0.55842,-7.51112 -0.88786,-8.50934 -0.2106,-0.6381 -0.85548,-1.61295 -1.43308,-2.16633 l -1.05018,-1.00613 0.001,1.21253 c 0.002,1.61359 0.66847,9.1056 0.90442,10.16088 0.16195,0.72429 0.33232,0.80531 1.29045,0.61368 0.60713,-0.12142 1.13589,-0.25881 1.17504,-0.30529 z m 67.41971,-1.31662 c -0.6549,-1.20665 -1.0425,-1.48862 -2.70472,-1.96761 -1.06715,-0.30752 -2.47622,-0.87077 -3.13127,-1.25168 -0.65504,-0.38091 -1.25577,-0.62777 -1.33496,-0.54859 -0.0792,0.0792 0.61551,0.90037 1.54377,1.82486 1.63564,1.629 4.60329,3.34103 5.80357,3.34806 0.51916,0.003 0.4985,-0.16155 -0.17639,-1.40504 z m -63.73527,0.60773 c 0,-0.24639 -0.54377,-1.55607 -1.20837,-2.91041 l -1.20838,-2.46244 -0.0264,2.67523 c -0.0145,1.47138 0.0795,2.78106 0.20884,2.91042 0.42394,0.42393 2.23426,0.25152 2.23426,-0.2128 z m 73.03581,-1.53656 c 2.90097,-2.71351 4.3943,-6.92676 3.72314,-10.50436 -0.40816,-2.17566 -1.13891,-1.54698 -1.36722,1.17623 -0.2712,3.23489 -1.60214,5.9266 -4.02566,8.14156 -1.26294,1.15426 -1.79819,1.88645 -1.65391,2.26244 0.37451,0.97595 1.52995,0.60194 3.32365,-1.07587 z m 16.92251,0.56755 c 0,-1.02338 -3.66722,-8.2008 -5.68458,-11.12575 -0.94401,-1.36871 -2.18786,-2.83715 -2.76411,-3.26319 -2.06662,-1.52792 -1.93779,-0.77937 0.4606,2.67629 1.03932,1.49748 2.4942,3.83395 3.23305,5.19214 3.79534,6.9768 4.75504,8.29282 4.75504,6.52051 z m -120.00551,-2.55176 c 2.1848,-3.36183 3.72859,-6.91445 3.74814,-8.62539 0.009,-0.82298 -0.11842,-1.54065 -0.28406,-1.59484 -0.16565,-0.0542 -0.75627,1.14976 -1.3125,2.67544 -0.55623,1.52568 -1.74067,4.12285 -2.63208,5.77151 -1.36462,2.52386 -1.76618,3.97814 -1.09843,3.97814 0.0803,0 0.79083,-0.99219 1.57893,-2.20486 z m 100.05557,0.64676 c -0.16107,-0.57857 -0.1279,-0.62322 0.15589,-0.20986 0.53313,0.77653 2.72261,-1.43264 3.80486,-3.83909 0.99295,-2.20788 1.53803,-6.38739 0.83302,-6.38739 -0.24284,0 -0.35986,0.21283 -0.26004,0.47296 0.0998,0.26013 0.0399,0.69669 -0.13324,0.97014 -0.2299,0.36315 -0.3162,0.24049 -0.32014,-0.45501 -0.004,-0.65734 -0.36043,-1.22088 -1.15193,-1.81992 -1.4671,-1.11036 -6.49517,-3.75428 -7.13969,-3.75428 -0.27037,0 -0.60519,-0.18381 -0.74403,-0.40846 -0.57677,-0.93324 3.6032,0.0649 6.85449,1.63673 1.81333,0.87667 3.45144,1.59395 3.64023,1.59395 0.50977,0 -1.78423,-3.06307 -3.36056,-4.48719 -5.47055,-4.94231 -14.12126,-3.75732 -16.48547,2.25822 -0.6661,1.69485 -1.01925,6.02364 -0.65017,7.96976 0.4232,2.23151 1.31651,3.2348 4.03867,4.53587 2.48909,1.18967 3.70417,1.3082 3.70417,0.36135 0,-0.76224 0.8979,-1.63238 2.04574,-1.98248 1.08887,-0.33212 2.2847,0.4949 3.28239,2.27004 0.43946,0.78191 0.9379,1.42165 1.10765,1.42165 0.16975,0 0.22687,0.13229 0.12694,0.29398 -0.0999,0.16169 0.0518,0.29398 0.33707,0.29398 0.35597,0 0.45455,-0.23063 0.31415,-0.73495 z m 0.89995,-1.44051 c 0,-0.097 0.0794,-0.17639 0.17638,-0.17639 0.097,0 0.17639,0.0794 0.17639,0.17639 0,0.097 -0.0794,0.17639 -0.17639,0.17639 -0.097,0 -0.17638,-0.0794 -0.17638,-0.17639 z m 2.82222,-6.70278 c 0,-0.097 0.0794,-0.17639 0.17639,-0.17639 0.097,0 0.17639,0.0794 0.17639,0.17639 0,0.097 -0.0794,0.17639 -0.17639,0.17639 -0.097,0 -0.17639,-0.0794 -0.17639,-0.17639 z m -93.46078,6.82953 0.74522,-1.46076 -0.82624,0.23453 c -1.26007,0.35766 -3.01224,0.60773 -2.41375,0.34449 0.78813,-0.34665 1.07728,-0.95455 0.59874,-1.25877 -0.26913,-0.17109 -0.14809,-0.27045 0.33366,-0.27389 0.4158,-0.003 0.83933,-0.22256 0.94118,-0.48797 0.14394,-0.37511 -0.18153,-0.45667 -1.46156,-0.36626 -1.61844,0.1143 -1.6134,0.11023 0.29354,-0.23683 1.06715,-0.19423 2.2183,-0.28234 2.55812,-0.19581 0.33982,0.0865 0.52889,0.0134 0.42015,-0.16255 -0.10873,-0.17593 0.0252,-0.31987 0.29762,-0.31987 0.27242,0 0.79772,-0.34243 1.16735,-0.76094 0.6698,-0.75841 0.6691,-0.76005 -0.20991,-0.49308 -0.48507,0.14733 -2.42976,0.34946 -4.32153,0.44919 -2.69257,0.14195 -3.43958,0.29286 -3.43958,0.69484 0,0.28244 -0.41812,1.22698 -0.92915,2.09899 -1.10002,1.87704 -0.9946,2.04519 1.8524,2.95458 3.13018,0.99985 3.53138,0.93046 4.39374,-0.75989 z m -4.53715,-0.79672 c 0.25018,-0.27148 0.51046,-0.44079 0.5784,-0.37625 0.20925,0.19877 -0.32108,0.86983 -0.68742,0.86983 -0.19022,0 -0.14117,-0.22211 0.10902,-0.49358 z m 117.47402,0.59838 c 0.73579,-0.71848 1.33779,-1.43351 1.33779,-1.58897 0,-0.35941 -5.68532,-4.58977 -5.89139,-4.38369 -0.19546,0.19546 2.73351,7.27897 3.00979,7.27897 0.11331,0 0.80803,-0.58784 1.54381,-1.30631 z m -105.23839,-0.07 c 0.6026,-0.56291 1.10778,-1.2376 1.12263,-1.4993 0.0148,-0.26171 0.0802,-0.75364 0.14517,-1.09319 0.065,-0.33955 0.0759,-0.61736 0.0241,-0.61736 -0.0517,0 -0.7622,0.9525 -1.57882,2.11667 -1.59799,2.27808 -1.47662,2.74055 0.28689,1.09318 z m -7.01825,-3.03346 c 0,-0.097 -0.0794,-0.17639 -0.17639,-0.17639 -0.097,0 -0.17639,0.0794 -0.17639,0.17639 0,0.097 0.0794,0.17639 0.17639,0.17639 0.097,0 0.17639,-0.0794 0.17639,-0.17639 z m 116.05848,-1.3023 c 0.0154,-0.69727 -10.46912,-7.87691 -13.81266,-9.45866 -2.19719,-1.03944 -4.17361,-1.38083 -4.17361,-0.72091 0,0.18491 1.28907,0.98618 2.8646,1.78062 3.19047,1.60875 9.8596,5.86879 12.68934,8.10558 1.39109,1.09959 1.91508,1.34432 2.13521,0.99727 0.16044,-0.25296 0.29415,-0.56972 0.29712,-0.7039 z m -127.54925,-0.16959 c 0.15089,-0.39321 -0.17798,-1.01082 -0.98621,-1.85208 -0.66693,-0.69418 -1.62494,-1.87961 -2.12892,-2.63429 -1.16916,-1.75075 -1.17303,-0.95887 -0.008,1.54854 0.8672,1.86573 2.1123,3.52778 2.64279,3.52778 0.13944,0 0.35541,-0.26548 0.47992,-0.58995 z m 11.52568,-2.26376 c 3.10196,-0.78132 4.96746,-3.2204 5.63544,-7.36813 0.60181,-3.7369 -0.0672,-6.08724 -2.44603,-8.59347 -2.14519,-2.26007 -3.65532,-2.87142 -7.10488,-2.87629 -2.39649,-0.003 -3.31958,0.15396 -4.59709,0.78361 -5.00223,2.46544 -7.94264,8.6676 -6.07852,12.82134 0.77088,1.71772 3.52152,5.01419 3.95856,4.74408 0.15176,-0.0938 0.36474,-0.61461 0.47329,-1.15737 0.26978,-1.3489 1.55927,-2.9084 2.40485,-2.9084 1.28191,0 2.4278,1.56037 2.4278,3.30596 0,0.92707 0.18127,1.64894 0.44098,1.75612 0.51789,0.21372 3.07826,-0.0522 4.8856,-0.50745 z m 68.85475,-4.02194 c 0.24884,-3.2903 1.38151,-5.87896 3.61894,-8.27095 2.01149,-2.15046 4.02879,-3.37181 6.73222,-4.07596 5.5836,-1.45435 11.00001,0.0635 15.76963,4.41928 1.83038,1.67155 2.45537,2.02784 3.89874,2.22254 0.94541,0.12753 2.72548,0.72739 3.95572,1.33304 1.9114,0.94097 2.47084,1.06607 3.84569,0.85989 2.64813,-0.39711 11.86423,-2.98556 13.82479,-3.88286 2.49228,-1.14065 4.91517,-3.46711 6.1421,-5.89764 l 1.02277,-2.0261 -1.24371,-0.59017 c -1.67501,-0.79485 -3.7781,-3.32171 -5.25974,-6.31959 -1.95161,-3.9488 -2.37898,-6.03741 -2.57058,-12.56276 -0.19953,-6.7952 0.32253,-10.99821 2.02709,-16.31948 2.7579,-8.6096 6.26102,-13.6117 11.15362,-15.92628 2.167603,-1.02544 2.121953,-0.8369 1.328773,-5.48834 -1.705063,-9.99896 -6.409703,-21.39483 -12.523563,-30.33535 -13.71258,-20.05241 -37.46875,-33.71617 -63.46216,-36.50132 -9.44632,-1.01216 -22.8332095,-0.47266 -31.5735995,1.27242 -24.4782905,4.88728 -45.2214205,19.10351 -58.4189105,40.0372 -2.96925,4.70979 -7.35212,13.83504 -9.13854,19.02669 -3.64659,10.59762 -5.03091,18.67406 -5.07925,29.63334 -0.0573,12.99149 1.81639,21.80637 5.72446,26.93102 2.24748,2.94711 9.90234,6.71426 19.11085,9.40495 1.84326,0.53859 3.53413,1.04773 3.75748,1.13141 0.22335,0.0837 1.30427,-0.95951 2.40206,-2.31822 2.09634,-2.5946 4.28115,-4.23309 6.9083,-5.18085 8.70791,-3.14142 17.29911,1.35368 19.79582,10.35759 0.44581,1.60773 0.57491,2.87707 0.42359,4.16462 l -0.21767,1.85204 1.27692,0.53353 c 0.7023,0.29344 1.87383,0.99362 2.6034,1.55594 1.23184,0.94947 1.72922,1.06452 6.97093,1.61246 12.4676505,1.30329 21.12964,1.70482 41.66505,1.93142 l 5.32894,0.0588 z m 42.23533,-10.58685 c 0,-0.097 0.0794,-0.17639 0.17639,-0.17639 0.097,0 0.17639,0.0794 0.17639,0.17639 0,0.097 -0.0794,0.17639 -0.17639,0.17639 -0.097,0 -0.17639,-0.0794 -0.17639,-0.17639 z m 0.61073,-1.263 c 0.12475,-0.47703 0.28466,-0.63694 0.37273,-0.37273 0.0848,0.25451 -0.0135,0.63047 -0.21848,0.83547 -0.26178,0.26178 -0.3077,0.12405 -0.15425,-0.46274 z m 0.4476,-1.20645 c 0,-0.097 0.0794,-0.17638 0.17639,-0.17638 0.097,0 0.17639,0.0794 0.17639,0.17638 0,0.097 -0.0794,0.17639 -0.17639,0.17639 -0.097,0 -0.17639,-0.0794 -0.17639,-0.17639 z m -88.0935295,-5.95693 c -4.7296705,-1.55104 -8.4245505,-5.72099 -9.6045505,-10.83944 -0.79118,-3.43194 -0.31754,-8.27826 0.98445,-10.07277 0.86249,-1.18875 1.72691,-1.00419 3.62876,0.77477 2.29942,2.15084 4.4364905,3.03882 7.8392305,3.2573 3.66165,0.2351 6.08097998,-0.34564 8.68553,-2.08489 1.16396,-0.77726 2.37901,-1.36154 2.70012,-1.29839 0.94563,0.18594 1.86579,1.73467 2.31958,3.90409 1.19391,5.70765 -2.54054,13.0107 -7.96522002,15.57668 -2.51160998,1.18804 -6.29915998,1.53321 -8.58789998,0.78265 z m 7.55043998,-1.92457 c 2.15745002,-1.10065 3.50109002,-2.37358 4.34453002,-4.1159 0.84522,-1.74599 1.04969,-4.86579 0.39863,-6.0823 -1.07771,-2.01372 -9.04151,-3.03437 -11.96759,-1.53379 -3.4870405,1.78826 -4.9352405,5.90151 -3.2446005,9.21544 1.6483205,3.23098 6.6921005,4.4434 10.46903048,2.51655 z m 39.44448952,-3.23153 c -8.90776,-1.33974 -16.62968,-7.89402 -19.3259,-16.40363 -0.65309,-2.06122 -0.77942,-3.25673 -0.76419,-7.23194 0.0162,-4.23082 0.12432,-5.06799 0.96841,-7.49882 1.38913,-4.00044 2.89499,-6.43743 5.94161,-9.61553 3.11233,-3.24664 5.9873,-5.0884 10.00507,-6.40941 2.38093,-0.78284 3.45657,-0.92864 6.87916,-0.93249 2.77904,-0.003 4.77734,0.19064 6.34397,0.61513 6.62926,1.79624 12.19179,6.32244 15.12907,12.31042 1.97518,4.02662 2.61187,6.74515 2.61793,11.17792 0.006,4.4365 -0.62538,7.19125 -2.5472,11.1125 -4.37722,8.93117 -15.1039,14.40153 -25.24793,12.87585 z m 7.27261,-2.62305 c 8.0827,-1.71327 14.07468,-8.28892 15.12872,-16.60242 0.35225,-2.77827 -0.0639,-8.24619 -0.75525,-9.9244 -0.22933,-0.55665 -0.3781,-1.17084 -0.3306,-1.36487 0.0475,-0.19403 -0.0324,-0.23397 -0.17765,-0.0888 -0.37252,0.37251 -0.5169,2.08091 -0.15707,1.85853 0.16307,-0.10079 0.20113,0.17416 0.0846,0.61099 -0.17966,0.67336 -0.28088,0.55825 -0.6651,-0.7563 -0.65463,-2.23975 -0.76657,-2.14566 -0.65988,0.55466 0.2188,5.53741 -0.99929,9.662 -3.94866,13.37058 -6.46052,8.12357 -19.71874,7.65384 -25.43146,-0.90103 -1.30398,-1.95272 -2.88386,-5.9396 -2.88386,-7.2775 0,-0.2706 -0.15875,-0.492 -0.35278,-0.492 -0.19403,0 -0.35278,0.15376 -0.35278,0.3417 0,0.18794 -0.25415,0.24418 -0.56477,0.12498 -0.31062,-0.11919 -0.70507,0.005 -0.87654,0.27566 -0.24263,0.38318 -0.31963,0.3359 -0.34718,-0.21318 -0.0686,-1.36792 -1.06612,3.19558 -1.03157,4.71945 0.10952,4.83001 4.85339,11.27195 10.26557,13.94014 4.40918,2.17371 8.62627,2.76278 13.05627,1.82377 z m 13.71766,-24.18752 c 0,-0.25871 0.10584,-0.36454 0.23519,-0.23519 0.12935,0.12935 0.12935,0.34102 0,0.47037 -0.12935,0.12935 -0.23519,0.0235 -0.23519,-0.23518 z m -5.69156,8.08207 c 1.10812,-1.03237 0.92416,-2.99087 -0.37139,-3.954 -0.82025,-0.60979 -1.08683,-0.64686 -1.98271,-0.27578 -1.00698,0.4171 -1.83212,1.63615 -1.83212,2.70673 0,0.81765 1.63608,2.26042 2.56328,2.26042 0.45731,0 1.18763,-0.33182 1.62294,-0.73737 z m -14.82861,-6.50972 c 6.19465,-1.83961 7.81123,-9.79427 2.85294,-14.03838 -3.22808,-2.76312 -7.83167,-2.67044 -11.11978,0.22386 -2.08352,1.83399 -2.96501,3.61361 -2.95524,5.96631 0.0146,3.51978 2.23245,6.52361 5.70112,7.72161 2.31377,0.79912 3.18878,0.81919 5.52096,0.1266 z m -12.51132,-4.30638 c 0.72969,-3.00732 0.72334,-3.15317 -0.10464,-2.40385 -1.17493,1.0633 -1.83954,2.84201 -1.44733,3.87357 0.54994,1.44647 0.93223,1.08444 1.55197,-1.46972 z m -97.8212,24.04768 c 0.0169,-0.41096 0.10052,-0.49456 0.21313,-0.21313 0.10191,0.25466 0.0894,0.55893 -0.0279,0.67615 -0.11722,0.11723 -0.2006,-0.0911 -0.18528,-0.46302 z m -0.32493,-1.5581 c 0,-0.48507 0.0801,-0.68351 0.17794,-0.44097 0.0979,0.24253 0.0979,0.63941 0,0.88194 -0.0979,0.24254 -0.17794,0.0441 -0.17794,-0.44097 z m -0.32663,-2.46944 c 0,-0.6791 0.0726,-0.95691 0.16133,-0.61737 0.0887,0.33955 0.0887,0.89518 0,1.23473 -0.0887,0.33955 -0.16133,0.0617 -0.16133,-0.61736 z m 22.64089,-0.87626 c -4.28588,-0.93253 -8.90783,-3.83435 -11.63385,-7.30413 -5.82025,-7.40825 -6.16572,-17.6816 -0.86591,-25.74996 4.97217,-7.56956 13.60618,-11.21977 22.3034,-9.42922 6.30792,1.29864 12.58158,7.04376 14.72306,13.48266 1.4398,4.32914 1.57672,9.84237 0.35211,14.1783 -0.67096,2.37562 -2.84141,6.1634 -4.69197,8.1882 -3.20277,3.50434 -6.97801,5.64423 -11.66606,6.61257 -3.14321,0.64925 -5.60734,0.65549 -8.52078,0.0216 z m 10.55838,-2.9976 c 4.69514,-1.79292 8.74051,-5.6908 10.50588,-10.12287 0.71953,-1.80641 0.81968,-2.66361 0.8289,-7.09461 0.008,-4.06746 -0.0898,-5.10195 -0.50937,-5.36124 -0.33757,-0.20863 -0.614,-0.1732 -0.78835,0.10106 -0.20129,0.31665 -0.26984,0.30678 -0.27389,-0.0394 -0.003,-0.25399 -0.13993,-0.37865 -0.30435,-0.27704 -0.16441,0.10162 -0.32826,1.3413 -0.36409,2.75485 -0.15788,6.22736 -2.98496,10.70686 -8.53092,13.51721 -8.10893,4.10911 -17.65879,-0.6648 -19.5129,-9.75437 -0.41317,-2.02553 -0.4767,-2.12129 -1.03609,-1.5619 -0.32777,0.32777 -0.59594,0.42585 -0.59594,0.21796 0,-0.20789 -0.15875,-0.37797 -0.35278,-0.37797 -0.19403,0 -0.35278,0.24749 -0.35278,0.54998 0,0.30249 -0.13518,0.46644 -0.30041,0.36432 -0.16523,-0.10212 -0.57846,0.73263 -0.91829,1.855 -0.58897,1.94525 -0.58884,2.14408 0.003,4.25224 1.52134,5.42202 6.13688,9.88776 11.89268,11.5067 2.67176,0.75149 7.94399,0.48818 10.61002,-0.52988 z m 10.28693,-21.87892 c 0.11992,-0.19403 0.29741,-0.35278 0.39442,-0.35278 0.097,0 0.0783,0.15875 -0.0416,0.35278 -0.11991,0.19403 -0.2974,0.35278 -0.39442,0.35278 -0.097,0 -0.0783,-0.15875 0.0416,-0.35278 z m -5.31686,7.9123 c 0.3049,-0.3049 0.55436,-1.00794 0.55436,-1.5623 0,-1.28728 -0.83141,-2.11667 -2.12186,-2.11667 -1.04947,0 -2.11147,1.06462 -2.11147,2.11667 0,1.76676 2.43884,2.80243 3.67897,1.5623 z m -26.60952,-3.85536 c 0,-0.097 -0.0794,-0.17638 -0.17639,-0.17638 -0.097,0 -0.17639,0.0794 -0.17639,0.17638 0,0.097 0.0794,0.17639 0.17639,0.17639 0.097,0 0.17639,-0.0794 0.17639,-0.17639 z m 17.3434,-1.28808 c 0.82438,-0.45572 1.98218,-1.51694 2.57288,-2.35828 0.97245,-1.38507 1.07399,-1.78774 1.07399,-4.25909 0,-2.39867 -0.11967,-2.91024 -0.98762,-4.22181 -1.93392,-2.92234 -5.77362,-4.4812 -8.83707,-3.58772 -4.40815,1.28568 -6.97134,5.43581 -5.84716,9.46727 0.55483,1.98964 3.37123,5.00199 5.26491,5.63119 1.84148,0.61186 5.00736,0.29735 6.76007,-0.67156 z m 15.11215,-4.35636 c 0,-0.097 -0.0794,-0.17639 -0.17639,-0.17639 -0.097,0 -0.17639,0.0794 -0.17639,0.17639 0,0.097 0.0794,0.17639 0.17639,0.17639 0.097,0 0.17639,-0.0794 0.17639,-0.17639 z m -28.22939,-2.98456 c 0.392,-0.76838 0.70807,-1.68119 0.70238,-2.02847 -0.008,-0.4938 -0.23874,-0.38032 -1.05833,0.52068 -0.99894,1.09816 -1.32228,2.16019 -0.81281,2.66967 0.36667,0.36666 0.41189,0.3217 1.16876,-1.16188 z m -16.12452,27.50261 c 0,-0.87312 0.0688,-1.23031 0.15288,-0.79375 0.0841,0.43657 0.0841,1.15094 0,1.5875 -0.0841,0.43657 -0.15288,0.0794 -0.15288,-0.79375 z m -0.3118,-6.87916 c 6.2e-4,-2.52236 0.0568,-3.50795 0.12487,-2.19019 0.0681,1.31775 0.0676,3.3815 -0.001,4.58611 -0.0687,1.2046 -0.12436,0.12644 -0.12375,-2.39592 z m 0.92127,-15.69861 c 0,-0.25871 0.10583,-0.36454 0.23518,-0.23519 0.12936,0.12935 0.12936,0.34102 0,0.47037 -0.12935,0.12935 -0.23518,0.0235 -0.23518,-0.23518 z m 0.40848,-1.41111 c 0,-0.48507 0.0801,-0.68351 0.17793,-0.44098 0.0979,0.24254 0.0979,0.63941 0,0.88195 -0.0979,0.24253 -0.17793,0.0441 -0.17793,-0.44097 z m 126.62763,-14.45509 c -2.47798,-2.58002 -3.96751,-3.25883 -6.86629,-3.12911 -2.5689,0.11496 -3.04761,-0.11453 -3.04761,-1.46102 0,-3.6022 7.03799,-3.13912 11.47304,0.75491 2.46149,2.16122 3.16727,5.041 1.40152,5.71858 -0.86579,0.33224 -0.78074,0.38634 -2.96066,-1.88336 z m -108.03972,-6.86474 c -0.61675,-1.35362 0.54417,-2.97524 3.04597,-4.2547 1.9056,-0.97457 2.365,-1.06019 5.68807,-1.06019 3.9135,0 4.70237,0.30135 6.2639,2.39285 0.58614,0.78508 0.63411,1.08372 0.29394,1.83029 -0.49035,1.0762 -1.19687,1.12463 -2.71543,0.18611 -2.44807,-1.513 -6.68644,-1.11428 -9.66418,0.90915 -1.59464,1.08358 -2.41741,1.08259 -2.91227,-0.004 z m 0.16543,80.69192 c 0.11915,-1.68827 0.16534,-3.12087 0.10265,-3.18355 -0.0627,-0.0627 -0.8652,0.79852 -1.78335,1.91379 l -1.66938,2.02778 1.26117,1.15577 c 0.69364,0.63568 1.39867,1.15578 1.56673,1.15578 0.16806,0 0.40304,-1.38131 0.52218,-3.06957 z m -2.65303,-3.08204 c 2.3678,-2.60728 4.3051,-4.82978 4.3051,-4.93889 0,-0.7865 -1.49609,0.248 -4.17719,2.88842 -4.25714,4.19253 -6.0529,6.79097 -4.6932,6.79097 0.14311,0 2.19749,-2.13323 4.56529,-4.7405 z m 7.12732,4.21133 c 0,-0.097 -0.0794,-0.17639 -0.17639,-0.17639 -0.097,0 -0.17639,0.0794 -0.17639,0.17639 0,0.097 0.0794,0.17639 0.17639,0.17639 0.097,0 0.17639,-0.0794 0.17639,-0.17639 z M 104.4448,-234.68978 c 0.77568,-0.31036 1.41032,-0.62781 1.41032,-0.70544 0,-0.0776 -0.4673,-0.78622 -1.03844,-1.57466 -4.20422,-5.80375 -3.44119,-19.21213 1.64958,-28.98739 1.6744,-3.21517 3.61225,-5.32695 5.92779,-6.45984 1.06025,-0.51873 1.92773,-1.08282 1.92773,-1.25351 0,-0.1707 -0.54296,-0.91136 -1.20658,-1.64591 -2.1935,-2.42794 -5.96266,-3.70688 -9.15793,-3.10745 -2.18842,0.41055 -5.323993,2.83082 -7.069973,5.45715 -5.9538,8.95579 -7.77607,25.54513 -3.69425,33.63117 1.25257,2.48133 3.25813,4.57287 4.9176,5.12843 1.49279,0.49975 4.440353,0.2752 6.334153,-0.48255 z m 7.91337,-5.47513 c 3.58973,-3.99265 5.92206,-11.03659 5.94117,-17.94311 0.015,-5.42399 -1.18792,-10.11423 -2.74753,-10.71271 -0.91344,-0.35052 -2.71771,0.61646 -4.18578,2.24332 -4.61879,5.11833 -6.73688,18.09713 -4.10247,25.13822 0.40535,1.08341 1.05923,2.37947 1.45306,2.88015 0.89085,1.13252 1.36912,0.92161 3.64155,-1.60587 z m -196.394633,-12.66101 c -0.25972,-0.99896 -0.403,-4.68454 -0.39048,-10.0446 0.0208,-8.88886 0.66189,-14.92552 2.21995,-20.90208 0.87429,-3.35367 0.41997,-3.37181 -2.83848,-0.11337 -4.03198,4.03199 -6.00085,9.29026 -6.01959,16.07656 -0.017,6.1734 1.81655,11.41638 5.22232,14.93264 1.04058,1.07435 1.965,1.88033 2.05425,1.79107 0.0893,-0.0893 -0.0223,-0.87236 -0.24797,-1.74022 z m 200.409203,-29.97573 c 1.03101,-1.93777 1.76054,-3.7077 1.62118,-3.93319 -0.15293,-0.24745 -0.0998,-0.31506 0.13401,-0.17055 0.38436,0.23754 8.54697,-15.47472 8.53567,-16.43039 -0.004,-0.32591 -0.10347,-0.3052 -0.34737,0.0722 -0.28459,0.44037 -0.34756,0.41077 -0.37523,-0.17639 -0.0242,-0.51367 -0.088,-0.56164 -0.23469,-0.17639 -0.11079,0.29104 -0.31263,0.60854 -0.44854,0.70555 -0.13591,0.097 -2.89514,5.36059 -6.13162,11.69683 -5.53771,10.84151 -5.90329,11.74773 -4.80437,11.90956 0.097,0.0143 1.01995,-1.55947 2.05096,-3.49724 z m 7.12126,-15.34665 c 0,-0.097 0.0794,-0.17638 0.17639,-0.17638 0.097,0 0.17639,0.0794 0.17639,0.17638 0,0.097 -0.0794,0.17639 -0.17639,0.17639 -0.097,0 -0.17639,-0.0794 -0.17639,-0.17639 z m 2.11667,-4.23333 c 0,-0.097 0.0794,-0.17639 0.17639,-0.17639 0.097,0 0.17639,0.0794 0.17639,0.17639 0,0.097 -0.0794,0.17639 -0.17639,0.17639 -0.097,0 -0.17639,-0.0794 -0.17639,-0.17639 z m -209.692473,11.54807 c 0.26033,-0.1745 -0.32487,-2.0458 -1.79105,-5.72724 -1.19775,-3.00743 -2.85629,-7.2143 -3.68565,-9.34861 -1.42477,-3.66657 -2.55271,-5.52763 -3.04923,-5.03112 -0.29018,0.29018 0.23667,1.90657 2.50225,7.67696 1.02842,2.61937 2.55872,6.54743 3.40065,8.72901 1.4766,3.82607 1.78572,4.26223 2.62303,3.701 z m 218.216733,-17.44366 c 1.93426,-1.08711 2.92251,-2.80952 2.8903,-5.03747 -0.0397,-2.74483 -1.06953,-4.34913 -3.62296,-5.64385 -1.5641,-0.79308 -4.61208,-0.58227 -5.95415,0.41181 -3.12986,2.31832 -3.4694,6.61832 -0.72444,9.1743 2.17102,2.02156 5.01521,2.44186 7.41125,1.09521 z m 1.14344,-7.38808 c -0.15595,-0.25234 -0.0968,-0.31153 0.15557,-0.15557 0.22401,0.13844 0.40729,0.32172 0.40729,0.40728 0,0.29427 -0.31153,0.15495 -0.56286,-0.25171 z m -227.897463,-0.74505 c 3.82318,-2.19186 3.42919,-7.79996 -0.68799,-9.79305 -4.95571,-2.39902 -9.931917,2.35297 -7.571037,7.2299 1.557953,3.21831 5.164139,4.33748 8.259027,2.56315 z m -0.13967,-1.4935 c 0,-0.097 0.0794,-0.17639 0.17639,-0.17639 0.097,0 0.17639,0.0794 0.17639,0.17639 0,0.097 -0.0794,0.17639 -0.17639,0.17639 -0.097,0 -0.17639,-0.0794 -0.17639,-0.17639 z m 0.70556,-0.86112 c 0,-0.18258 0.15693,-0.42895 0.34874,-0.54749 0.19997,-0.1236 0.25911,0.018 0.13864,0.33195 -0.23452,0.61116 -0.48738,0.72298 -0.48738,0.21554 z m 0.35278,-1.76389 c 0,-0.18258 0.15875,-0.43007 0.35278,-0.54999 0.19402,-0.11992 0.35277,0.0295 0.35277,0.33196 0,0.30249 -0.15875,0.54998 -0.35277,0.54998 -0.19403,0 -0.35278,-0.14938 -0.35278,-0.33195 z m 0.35278,-1.25555 c 0,-0.097 0.0794,-0.17638 0.17638,-0.17638 0.097,0 0.17639,0.0794 0.17639,0.17638 0,0.097 -0.0794,0.17639 -0.17639,0.17639 -0.097,0 -0.17638,-0.0794 -0.17638,-0.17639 z m -0.70556,-1.76388 c 0,-0.097 0.0794,-0.17639 0.17639,-0.17639 0.097,0 0.17639,0.0794 0.17639,0.17639 0,0.097 -0.0794,0.17639 -0.17639,0.17639 -0.097,0 -0.17639,-0.0794 -0.17639,-0.17639 z"
       id="path294" /></g></svg>
