<?xml version="1.0" encoding="UTF-8" standalone="no"?>
<!-- Created with Inkscape (http://www.inkscape.org/) -->

<svg
   width="260.08292mm"
   height="289.39087mm"
   viewBox="0 0 260.08292 289.39084"
   version="1.1"
   id="svg1"
   xml:space="preserve"
   xmlns="http://www.w3.org/2000/svg"
   xmlns:svg="http://www.w3.org/2000/svg"><defs
     id="defs1"><clipPath
       clipPathUnits="userSpaceOnUse"
       id="clipPath6"><path
         id="path7"
         style="fill:#ff0000;fill-opacity:1;fill-rule:nonzero;stroke:none;stroke-width:0.264583"
         d="M -175.07778,-16.057127 V 287.55793 H 124.54631 V -16.057127 Z m 132.7459,202.572647 c 0.210643,0.005 0.427212,0.0169 0.650089,0.0367 2.23823,0.19855 4.475655,0.4031 6.717938,0.55346 1.973313,0.11308 0.986628,0.0436 2.958475,0.20825 3.181295,0.26563 4.740125,1.85116 4.950601,3.46956 4.949923,1.63749 3.796379,7.35609 -2.592089,6.81354 -3.228716,-0.27422 -1.569593,-0.1301 -4.979024,-0.43357 -4.228209,-0.39317 -8.460616,-0.76265 -12.666927,-1.35341 -6.647387,-0.93358 -5.930551,-7.21034 0.03204,-7.20421 0.04685,5e-5 0.0972,0.004 0.144695,0.005 0.687229,-1.21692 2.304132,-2.15435 4.784204,-2.09548 z" /></clipPath><clipPath
       clipPathUnits="userSpaceOnUse"
       id="clipPath76"><path
         id="path77"
         style="fill:#ff0000;fill-opacity:1;fill-rule:nonzero;stroke:none;stroke-width:0.264583"
         d="M -133.83107,-122.52355 V 173.82063 H 122.97289 V -122.52355 Z M 13.574404,98.948202 c 2.788179,0.0507 4.135003,2.063798 3.398242,4.077268 0.199805,0.45372 0.374906,0.96736 0.517797,1.54461 1.07913,4.35948 0.671079,8.891 0.311608,13.31495 -0.351859,3.06036 -0.147137,1.57974 -0.604097,4.44366 -0.359666,2.25418 -1.333846,3.66838 -2.455664,4.32532 0.105138,0.36595 0.224724,0.72888 0.324528,1.09554 0.6273,2.23652 0.575201,4.47401 0.39429,6.75514 -0.137303,1.73129 -0.688065,2.99533 -1.427303,3.82199 -0.112477,0.41601 -0.170275,0.80219 -0.311092,1.25212 -0.184975,0.59102 -0.413327,1.1061 -0.670242,1.55856 0.741137,-0.23134 1.446982,-0.38145 2.064991,-0.37517 4.085002,0.0415 5.222724,4.75435 -0.02223,7.27138 -4.46677,2.14368 -9.303523,3.34693 -14.11903492,4.40955 -4.40876268,0.85156 -8.89238128,1.33053 -13.38264308,1.19269 -5.804014,-0.17807 -6.736297,-5.00293 -3.065447,-6.67298 -2.072987,-0.65744 -4.042852,-1.62261 -4.128947,-3.14709 -0.02802,-0.49633 0.0026,-0.90355 0.0341,-1.30897 -1.976731,-0.003 -3.95339,2.4e-4 -5.930386,0.003 -0.814031,0 -1.53062,-0.0962 -2.159559,-0.26149 -0.376306,0.19492 -0.742394,0.40783 -1.120862,0.59893 -6.391272,3.22657 -9.625245,-3.24074 -3.234428,-6.46886 1.833438,-0.92611 3.62694,-1.92211 5.414142,-2.92954 -0.877003,-3.87058 -1.368747,-7.83436 -1.323951,-11.80858 0.01651,-1.46304 0.376836,-2.54918 0.864547,-3.41426 -1.247357,-1.79999 -0.223805,-4.63069 3.842661,-5.68855 3.11826,-0.81116 6.282901,-1.39515 9.473837,-1.82211 -1.259816,-0.12657 -2.516182,-0.30233 -3.764627,-0.50177 -1.477002,-0.21985 -2.935575,-0.54305 -4.407482,-0.7891 -1.14214,-0.22954 -0.588502,-0.12004 -1.660882,-0.3297 -3.350244,-0.65501 -4.783278,-2.61088 -4.608504,-4.32997 -0.200179,-1.7721 1.333365,-3.52972 4.663799,-3.59461 v -5.3e-4 c 0.20954,-0.004 0.426035,-0.002 0.649571,0.008 1.77111,0.0772 3.528708,0.28204 5.26428,0.64027 1.655035,0.33225 3.314115,0.6481 4.955251,1.04439 1.244759,0.34858 2.51628,0.54538 3.7997689,0.6723 0.025956,0.002 0.052073,0.002 0.078034,0.004 0.4990888,-0.0371 0.9984105,-0.0743 1.4965495,-0.11317 1.346872,-0.12588 2.6913231,-0.25136 4.0457464,-0.24236 1.1278499,-0.0444 2.2567291,-0.10772 3.37498791,-0.26872 0.75719517,-0.11591 1.51142439,-0.25483 2.25722659,-0.4284 0.3616431,-0.12394 0.7240561,-0.24538 1.083138,-0.37775 0.3360393,-0.12388 0.6107589,-0.12825 0.9250071,-0.20723 0.1281086,-0.045 0.2583895,-0.0825 0.3855085,-0.13074 1.9825018,-0.7681 3.9540551,-1.56464 5.9510551,-2.29443 1.050809,-0.383992 1.999634,-0.542639 2.826703,-0.527616 z M 0.70283723,110.39557 c -0.45566013,0.0949 -0.90775367,0.208 -1.36890919,0.2744 -1.16638124,0.15534 -2.34111274,0.24237 -3.51761424,0.26251 0.4031694,0.0896 0.8047355,0.18876 1.2025101,0.308 0.1014836,0.0304 0.1982549,0.075 0.2986907,0.10852 0.4205235,-0.21824 0.9206601,-0.35072 1.4898318,-0.37156 0.39885139,-0.0146 0.83259872,0.0278 1.29449508,0.13023 0.22468681,-0.12213 0.44967525,-0.24374 0.67437529,-0.36587 -0.0326284,-0.11319 -0.058211,-0.22834 -0.0733795,-0.34623 z m 10.24433577,1.02474 c -0.76023,0.21437 -1.5189569,0.4343 -2.2696301,0.68006 -0.031261,0.62207 -0.2256075,1.28373 -0.6464723,1.94355 0.6236891,0.43248 1.2549743,1.04482 1.8634525,1.86862 0.2674939,0.36214 0.4748849,0.75712 0.7188199,1.13223 0.154519,-1.86707 0.314174,-3.74736 0.33383,-5.62446 z m 64.566086,3.39773 c 1.50346,0.0187 3.129182,1.24994 3.928441,4.04678 0.257931,0.90255 0.823497,1.65871 1.488797,2.30735 0.856321,0.95375 1.845738,1.76777 2.801898,2.61638 1.458581,1.46408 2.789203,3.04608 4.169772,4.58215 1.315059,1.44746 2.571226,2.91698 3.543967,4.61884 0.0053,0.01 0.0082,0.0206 0.01344,0.0305 0.734605,-0.43313 1.446276,-0.65634 2.094962,-0.69195 3.016182,-0.16561 4.69137,3.55377 1.187525,7.32306 -1.69471,1.82311 -3.657862,3.33908 -5.68751,4.7651 -0.777873,0.49914 -1.607691,0.90075 -2.418456,1.33842 0.165478,1.44344 -0.672182,3.24303 -2.956409,4.73096 -1.354556,0.88234 -2.690448,1.79306 -4.075203,2.6288 -2.075008,1.20078 -4.233777,2.27962 -6.540687,2.96259 -2.077586,0.62971 -4.169056,1.29987 -6.359301,1.36374 -1.872114,0.0897 -3.746989,0.0368 -5.620845,0.0501 h -5.1108 -5.524728 c -7.160125,0 -7.160125,-7.23315 0,-7.23315 h 1.347722 c 0.29438,-0.0541 0.5212,-0.1588 0.84801,-0.18656 1.106628,-0.094 2.200932,-0.28334 3.292822,-0.48421 0.456121,-0.98163 1.356053,-1.98213 2.807581,-2.83962 1.078018,-0.63685 2.158119,-1.26923 3.212209,-1.94561 1.962647,-1.29302 3.840588,-2.72135 5.893696,-3.86902 1.367169,-0.76424 2.559646,-1.07097 3.526915,-1.04128 2.216811,0.068 3.246223,1.90266 2.479953,4.04059 1.105688,-0.48686 2.206929,-0.98346 3.283003,-1.53739 2.619811,-1.23728 5.288743,-2.38548 7.764385,-3.9026 0.246153,-0.17184 0.487463,-0.34958 0.730705,-0.52503 -0.126915,-0.50614 -0.277693,-0.9939 -0.512114,-1.46554 -0.647621,-1.25778 -1.721077,-2.20654 -2.600875,-3.29644 -1.199229,-1.33472 -2.369312,-2.69496 -3.592029,-4.00803 -1.098706,-0.97599 -2.227236,-1.92181 -3.215306,-3.01428 -1.300821,-1.39063 -2.459913,-2.93896 -3.045293,-4.77801 -1.289469,-4.05101 0.646382,-6.61405 2.843754,-6.58667 z m -95.086705,4.28035 c -0.465643,0.10748 -0.930899,0.21773 -1.394745,0.33435 0.171958,0.64334 0.283575,1.36624 0.279569,2.2071 -0.01267,2.6582 0.205063,5.32647 0.670242,7.94732 0.280107,-0.17087 0.565767,-0.33222 0.845429,-0.50385 -0.01897,-0.36223 -0.02445,-0.73164 -0.05529,-1.08985 -0.118034,-2.96491 -0.160888,-5.93314 -0.3452,-8.89507 z m 18.5141159,1.1958 c 0.00497,0.0773 0.00619,0.15612 0.014975,0.23202 -0.1238779,0.22787 -0.2588048,0.44752 -0.3937741,0.66715 0.58900751,0.0447 1.13203305,0.21413 1.64331124,0.45888 -0.37615284,-0.49255 -0.78353709,-0.94642 -1.26452314,-1.35805 z m -6.5422357,14.57068 c -0.046649,0.0755 -0.09888,0.14702 -0.1436608,0.22376 -0.03147,0.054 0.1963367,0.0838 0.1860365,0.0222 -0.017595,-0.10481 -0.026035,-0.14905 -0.042376,-0.24597 z m 13.9236979,6.08439 c -0.2236258,0.5643 -0.5677508,1.09664 -1.1782213,1.50533 0.9079653,0.17659 1.7077452,0.44257 2.2830631,0.84852 0.1405493,-0.0459 0.272804,-0.11448 0.4128956,-0.16174 -0.7336976,-0.43656 -1.2984269,-1.18703 -1.5177374,-2.19211 z" /></clipPath><clipPath
       clipPathUnits="userSpaceOnUse"
       id="clipPath127"><path
         id="path128"
         style="fill:#ff0000;fill-opacity:1;fill-rule:nonzero;stroke:none;stroke-width:0.264583"
         d="M -112.24796,-126.55676 V 185.58027 H 148.5754 V -126.55676 Z M 46.874626,83.305366 c 1.808208,0 3.616317,1.790192 3.616317,5.370214 v 5.232238 c 0.0627,2.146078 -0.111291,4.285324 -0.245462,6.424932 -0.136289,2.02485 -0.190703,4.04985 -0.104904,6.07715 0.192061,1.91863 0.527714,3.82569 0.876432,5.72213 0.304242,2.00862 0.765826,3.9858 1.180806,5.97276 0.41642,1.86142 0.967934,3.68703 1.421104,5.53972 0.25287,0.86996 0.117097,0.46495 0.396356,1.22008 0.186108,0.50319 0.223428,0.93098 0.309544,1.38441 4.425355,2.23251 2.751262,7.58433 -3.415813,6.40477 -3.104732,-0.59371 -6.256094,-0.76586 -9.40821,-0.85576 -3.81635,0.009 -7.630525,0.17062 -11.44478,0.28216 -1.12776,0.0333 -2.255837,0.0512 -3.383772,0.0754 -0.908129,0.5548 -1.966518,0.57724 -2.88613,0.0641 -0.03584,5.3e-4 -0.07165,0.002 -0.107487,0.003 -0.03142,5.3e-4 -0.0525,-0.009 -0.08268,-0.009 -0.32049,0.14732 -0.641715,0.29301 -0.962215,0.44028 -0.262501,0.12062 -0.518089,0.22111 -0.770496,0.31265 -0.876996,0.71434 -1.945576,0.85817 -2.911967,0.46405 -2.943479,-0.21613 -4.295167,-2.77187 -2.550232,-5.0524 -2.22e-4,-0.028 -0.0078,-0.0483 -0.0078,-0.0765 v -6.3469 c -0.014,-2.72977 -0.02254,-5.45666 0.112657,-8.18348 0.135676,-2.32533 0.233519,-4.6523 0.299723,-6.98046 0.046,-1.80459 0.06926,-3.60958 0.08527,-5.41465 -0.0258,-1.02998 0.04009,-2.054459 0.138491,-3.078883 0.0044,-0.04602 0.02191,-0.07504 0.02687,-0.120406 C 15.992671,97.193438 15.83363,95.70984 16.656834,94.418959 10.68718,93.678613 10.992573,87.32947 17.739972,87.32947 h 3.885033 5.177462 5.913334 c 1.498505,0.05847 2.984222,-0.03228 4.475178,-0.161748 1.252041,-0.18606 2.49041,-0.398671 3.697968,-0.782897 1.001961,-0.32245 0.492366,-0.161472 1.527553,-0.482142 0.510384,-0.158096 0.938446,-0.174371 1.394749,-0.23771 0.672338,-1.56932 1.86623,-2.35903 3.063377,-2.35903 z" /></clipPath><clipPath
       clipPathUnits="userSpaceOnUse"
       id="clipPath139"><path
         id="path140"
         style="fill:#ff0000;fill-opacity:1;fill-rule:nonzero;stroke:none;stroke-width:0.264583"
         d="M 97.168006,-339.91235 V -44.578961 H 346.46958 V -339.91235 Z m 14.326254,94.53944 c 1.76488,0.006 3.77708,1.78446 4.35839,5.31699 0.32911,1.99994 0.60308,4.00817 0.88884,6.01462 1.02527,-1.2445 2.22305,-1.83589 3.28403,-1.8402 2.05627,-0.008 3.59454,2.17302 2.34611,6.00222 -0.0197,0.0606 -0.0413,0.12046 -0.0615,0.18087 0.31698,0.91799 0.41757,2.09982 0.17777,3.54139 -0.2164,1.30085 -0.62011,2.56457 -1.0263,3.8163 -1.34183,4.13496 -4.42238,4.92072 -6.12882,3.38016 -1.93867,0.62007 -4.30523,-0.86149 -4.65605,-4.82762 -0.16862,-1.90632 -0.33891,-3.81275 -0.57464,-5.71231 -0.45291,-3.52522 -1.07719,-7.02592 -1.48208,-10.55543 -0.40801,-3.55672 1.10935,-5.32303 2.87424,-5.31699 z" /></clipPath><clipPath
       clipPathUnits="userSpaceOnUse"
       id="clipPath170"><path
         id="path171"
         style="fill:#ff0000;fill-opacity:1;fill-rule:nonzero;stroke:none;stroke-width:0.264583"
         d="M 88.756261,-299.52331 V 17.880567 H 410.91541 V -299.52331 Z M 363.24287,-220.863 c 0.90345,-0.008 1.97628,0.23856 3.18532,0.82218 3.39402,1.63831 6.49674,3.81197 9.57823,5.96449 3.22509,2.31448 6.37511,4.73585 9.43663,7.26261 1.87296,1.50796 3.75989,2.99047 5.54284,4.6054 1.76167,1.54167 3.42262,3.17283 4.95419,4.94388 1.19316,1.48882 2.47049,2.9032 3.73311,4.33204 1.08043,1.20022 2.09423,2.45631 2.94299,3.83026 0.82616,1.73429 1.48968,3.55524 1.93786,5.42344 1.67031,6.96258 -5.76469,8.62686 -7.05745,1.5844 -0.21127,-1.15093 -0.75649,-2.20765 -1.10278,-3.32021 -0.52141,-1.02678 -1.43909,-1.82952 -2.14042,-2.72904 -1.28368,-1.45272 -2.58234,-2.89095 -3.79617,-4.40386 -1.32794,-1.55409 -2.79577,-2.95456 -4.33049,-4.3031 -1.69875,-1.54267 -3.51006,-2.94207 -5.29113,-4.38733 -2.90883,-2.40671 -5.90918,-4.70386 -8.97258,-6.91017 -2.63017,-1.83963 -5.2759,-3.68008 -8.12096,-5.17746 -5.14813,-2.7095 -4.41412,-7.50431 -0.49919,-7.53753 z m -17.79788,14.64304 c 0.81097,-0.004 1.74701,0.16947 2.79104,0.57154 4.59168,1.76834 8.99191,4.00303 13.38523,6.20892 0.37082,0.1876 0.72266,0.4088 1.09088,0.601 0.4155,-0.11565 0.91038,-0.17484 1.48572,-0.16691 0.65984,0.009 1.42523,0.10601 2.29753,0.30644 2.35556,0.54125 4.30075,1.95473 6.16344,3.42614 -1.07651,-2.72314 0.34142,-4.84679 2.57866,-4.84311 1.28683,0.002 2.83083,0.70484 4.29689,2.3952 2.44776,2.82227 4.79147,5.70892 6.96391,8.74934 1.67944,2.35043 1.72027,4.43615 0.89969,5.70663 1.5344,1.02281 3.07247,2.04019 4.58422,3.09645 1.80695,1.14136 3.31928,2.58833 4.72631,4.18269 0.96689,1.16625 2.0869,2.25988 2.79262,3.61942 0.19542,0.37651 0.34592,0.77482 0.51882,1.1622 0.40259,1.55462 0.27207,0.76263 0.38706,2.3766 0.0637,0.89436 -0.044,1.45412 -0.26977,1.7756 0.11753,0.20753 0.23421,0.41574 0.35608,0.62063 3.66003,6.15399 -2.6856,9.845 -6.25234,3.63648 -0.83209,-1.44832 -1.62388,-2.92102 -2.35437,-4.42351 -0.84839,-1.84687 -1.70402,-3.69055 -2.54093,-5.54229 -0.078,-0.17246 -0.14713,-0.34128 -0.2119,-0.5085 -0.415,-0.33988 -0.82071,-0.68775 -1.29707,-0.97255 -2.35545,-1.64933 -4.79565,-3.17384 -7.14841,-4.82761 -3.27895,-2.27743 -6.61384,-4.47194 -9.95804,-6.65231 -4.00886,-2.60003 -8.08797,-5.09434 -12.3548,-7.25434 -4.08429,-2.05175 -8.1752,-4.1242 -12.42663,-5.81101 -5.61546,-2.22804 -4.88331,-7.4129 -0.50384,-7.43314 z m -225.34594,21.50101 c 3.05551,-0.16929 4.03285,3.80875 0.35915,7.72563 -1.17612,1.25397 -2.32696,2.59265 -3.45922,3.90674 -1.44062,1.57315 -2.77631,3.23874 -4.13618,4.88135 -1.14319,1.4697 -2.29319,2.93265 -3.46335,4.38113 -0.8717,1.2084 -1.86054,2.32105 -2.81017,3.46594 -0.80685,0.95022 -1.53489,1.96075 -2.32234,2.92695 -0.80594,1.00684 -1.52017,2.08004 -2.22519,3.15847 -0.20511,0.28103 -0.29499,0.51935 -0.30179,0.78909 -0.18033,7.15787 -8.659963,5.5717 -7.093102,-1.4149 0.267098,-1.19094 0.644303,-2.32859 1.347721,-3.34243 0.846108,-1.28566 1.701136,-2.56663 2.670121,-3.76463 0.806525,-0.98525 1.5446,-2.0236 2.37453,-2.98999 0.93132,-1.109 1.88214,-2.2008 2.7342,-3.37448 1.18855,-1.47082 2.35327,-2.95822 3.51813,-4.44779 1.39067,-1.67946 2.758,-3.38112 4.2292,-4.99142 1.55862,-1.80675 3.07205,-3.68494 4.92528,-5.20227 1.38505,-1.13397 2.63451,-1.65096 3.65301,-1.70739 z m 30.4953,3.26389 c 4.11093,0.0973 5.25218,4.81763 -0.0434,7.22591 -1.93926,0.8819 -3.80509,1.88928 -5.66115,2.92437 0.381,1.39299 -0.23993,3.26566 -2.43035,4.98678 -2.3369,1.83618 -4.71607,3.61825 -7.08845,5.40845 -2.84267,2.19936 -5.66068,4.43162 -8.41086,6.74584 -2.22216,1.84972 -4.46469,3.67225 -6.66213,5.55109 -1.67979,1.46598 -3.37138,2.91821 -5.06067,4.37337 -1.40892,1.30469 -2.82191,2.592 -4.12274,4.00648 -1.07181,1.16531 -2.16701,1.83049 -3.17087,2.10529 -0.88357,6.53411 -7.65001,5.87099 -7.10344,-1.07177 0.0596,-0.75732 0.12015,-1.51435 0.21239,-2.26859 0.18237,-1.4495 0.31176,-2.90657 0.57051,-4.34444 0.56059,-2.2771 1.55106,-4.35314 3.32124,-5.95312 1.46716,-1.38711 2.94871,-2.75912 4.4943,-4.05919 1.45063,-1.21601 2.91967,-2.40825 4.4111,-3.57394 2.2284,-1.75259 4.48249,-3.46927 6.81044,-5.08961 3.1083,-2.16601 6.29001,-4.21936 9.5343,-6.17689 3.28252,-2.04598 6.49796,-4.19789 9.78648,-6.23476 2.38673,-1.38679 4.82146,-2.65715 7.33495,-3.79873 1.22236,-0.55516 2.32966,-0.77899 3.27836,-0.75654 z" /></clipPath><clipPath
       clipPathUnits="userSpaceOnUse"
       id="clipPath233"><path
         id="path234"
         style="fill:#ff0000;fill-opacity:1;fill-rule:nonzero;stroke:none;stroke-width:0.264583"
         d="M 185.24069,-319.24193 V -24.289387 H 425.09684 V -319.24193 Z m 138.35487,149.6534 c 1.78419,7.9e-4 3.63037,1.79012 3.80182,5.36608 0.0643,1.33996 -0.0719,2.65433 -0.29041,3.95842 0.27255,-0.0735 0.56767,-0.11689 0.88522,-0.12351 0.37047,-0.008 0.77026,0.0328 1.19579,0.12867 0.38629,-0.24279 0.8215,-0.42195 1.34254,-0.44493 1.13073,-0.0499 2.53823,0.47335 4.04474,1.80971 0.4186,0.37135 0.80759,0.77178 1.2056,1.16323 0.49581,-0.30652 1.09744,-0.47283 1.77559,-0.44028 1.18851,0.0571 2.59295,0.69888 3.98788,2.15129 2.63375,2.74227 4.82211,5.85047 6.92256,9.00669 2.43144,3.88376 4.79634,7.81591 6.98098,11.84475 1.13959,2.01485 2.36363,3.97199 3.24527,6.11746 0.86638,2.54168 0.71525,4.37292 -0.15348,6.88278 -0.88855,2.03627 -2.18951,3.83746 -3.64937,5.49682 -1.22616,1.21887 -2.44396,2.51198 -3.976,3.35587 -0.38219,0.21053 -0.79187,0.3659 -1.18803,0.54881 -6.50071,3.00135 -9.83602,-5.23462 -2.81948,-6.6611 1.07346,-0.21823 1.75532,-1.41088 2.56987,-2.0407 0.86323,-0.96375 1.62015,-2.00233 2.25208,-3.13417 0.24334,-0.63932 0.47847,-1.05078 0.24958,-1.76114 -0.42873,-1.13152 -1.03555,-2.17502 -1.65674,-3.21169 -0.64492,3.08426 -3.96214,3.78517 -6.03631,0.97152 -0.80928,1.85722 -3.53859,2.62684 -6.75775,0.30902 -0.53872,-0.38787 -1.07831,-0.77486 -1.61745,-1.1622 -3.08248,4.62545 -3.94671,5.04673 -6.74584,2.87063 -2.73204,-2.16473 -5.33615,-4.48821 -8.05999,-6.6642 -2.7461,-2.45053 -5.40757,-5.07957 -7.04763,-8.42635 -1.62115,-0.12575 -3.24178,-0.2569 -4.86637,-0.34314 -7.58719,-0.44787 -15.17743,-0.9445 -22.76553,-1.33377 -1.07801,-0.0553 -1.93227,-0.3045 -2.68459,-0.62166 -0.57677,0.62929 -1.1192,1.29485 -1.64021,1.97352 -1.38696,2.1585 -2.2854,4.54313 -3.09181,6.96185 -0.53658,1.90527 -0.93866,3.84574 -1.3658,5.77949 0.3976,-0.38181 0.79402,-0.76498 1.19114,-1.14825 1.44902,-1.39846 2.84121,-1.97983 3.98373,-1.97766 2.91995,0.006 4.20899,3.82009 0.64648,7.53391 -0.92629,0.96557 -1.9114,1.86859 -2.9099,2.75797 -1.78302,1.58814 -3.50499,2.03887 -4.81263,1.76372 -0.007,0.0412 -0.0189,0.0812 -0.0253,0.12247 -0.31138,2.1774 -0.34632,4.38158 -0.39739,6.57686 0.006,3.5147 -0.15426,7.02208 -0.44287,10.52391 -0.15049,2.45352 -0.52882,4.882887 -0.77928,7.326166 -0.25682,2.270699 -0.2357,4.548968 -0.1633,6.828007 0.0525,1.43787 0.0261,0.723201 0.0775,2.145088 7.9e-4,0.02175 -0.006,0.03573 -0.006,0.05736 0.13966,0.0486 0.27673,0.09115 0.42013,0.148309 3.73047,1.486969 7.59999,2.598727 11.41894,3.833876 4.85884,1.705695 9.66861,3.546912 14.50144,5.32474 1.9552,0.651698 3.84707,1.443672 5.71489,2.292366 2.6308,-0.638411 5.26049,-1.281708 7.89771,-1.893425 4.5737,-1.075436 2.35597,-0.547624 6.65438,-1.580782 0.65268,-0.156879 1.2592,-0.237268 1.81642,-0.252698 3.40876,-0.09437 4.96226,2.238663 4.05712,4.350639 3.89832,1.612736 3.00805,6.568553 -2.90269,6.729304 l -2.19726,0.05943 c 0.0932,0.05532 0.18872,0.106439 0.28112,0.163298 6.09814,3.752323 2.1299,10.065517 -3.84782,6.124173 -1.04591,-0.689594 -2.23735,-1.127543 -3.31556,-1.763197 -2.61015,-1.251701 -5.22853,-2.484003 -7.87136,-3.665926 -0.34703,-0.170111 -0.69536,-0.335955 -1.04283,-0.504362 -1.04394,0.228952 -2.09238,0.441277 -3.15071,0.537951 -0.41145,0.100483 -0.82417,0.195434 -1.23558,0.296105 -3.95687,0.968251 -6.08679,-0.907356 -5.97897,-3.010669 -0.31188,-0.687727 -0.239,-1.395294 0.0263,-2.059305 -3.87146,-1.438614 -7.73769,-2.891312 -11.63237,-4.265891 -3.97417,-1.285444 -7.99945,-2.446282 -11.87938,-4.000272 -1.44639,-0.579335 -2.44377,-1.350957 -3.06182,-2.17506 -1.01218,-0.798706 -1.81304,-2.231819 -1.89446,-4.484998 -0.0517,-1.431189 -0.0254,-0.705106 -0.0791,-2.177645 -0.0816,-2.602558 -0.0903,-5.205841 0.19844,-7.79849 0.24823,-2.394268 0.6146,-4.775082 0.76533,-7.179412 0.27808,-3.36008 0.42763,-6.72542 0.42064,-10.09809 0.0594,-2.5132 0.11189,-5.03614 0.48266,-7.52719 0.38072,-2.41928 0.90466,-4.80615 1.46451,-7.18974 0.6701,-2.94551 1.25825,-5.91529 2.11305,-8.81393 1.0668,-3.18776 2.31041,-6.31647 4.23489,-9.10074 0.42128,-0.53977 0.8547,-1.07136 1.29914,-1.59215 -1.52816,-0.60355 -3.06641,-1.18197 -4.57646,-1.83141 -1.09038,3.76762 -2.19021,7.53001 -3.40755,11.25926 -1.05961,2.97655 -0.54118,1.54568 -1.55081,4.2938 -1.83358,4.9908 -6.03644,4.88509 -7.07398,1.75544 -2.82634,3.52841 -7.50378,1.0111 -5.57744,-4.75268 1.05408,-3.1537 2.2385,-6.34595 4.49688,-8.85837 1.49582,-1.66408 2.97572,-2.34765 4.17287,-2.32647 0.33252,0.006 0.64298,0.0664 0.92604,0.17518 0.46945,-1.58214 0.96416,-3.15651 1.43919,-4.7377 0.70062,-2.33196 1.93737,-3.52641 3.18689,-3.8871 0.54142,-0.34307 1.25019,-0.55529 2.11615,-0.57361 h 5.3e-4 c 0.8057,-0.017 1.74503,0.13149 2.80396,0.49248 0.31645,0.10788 0.63769,0.20324 0.94929,0.32401 1.83624,0.71133 3.60046,1.59642 5.43016,2.32544 1.18096,0.47048 2.26953,0.84228 3.35329,1.23145 0.62902,-0.20883 1.22424,-0.32846 1.76785,-0.35037 2.28614,-0.0921 3.73455,1.32842 3.67523,3.07682 1.73917,0.0925 3.47854,0.18832 5.21777,0.2899 -0.1345,-1.7899 1.43141,-3.54652 4.54959,-3.56619 0.39587,-0.002 0.816,0.0231 1.25987,0.0801 3.99155,0.51285 7.97638,1.04608 11.94346,1.72703 0.35092,0.0747 0.7018,0.14913 1.05265,0.22376 0.92028,-2.09088 2.0607,-3.80586 3.79408,-5.38675 0.9172,-0.8245 1.6747,-1.80494 2.07378,-2.98587 0.46483,-1.35061 0.4893,-2.77914 0.4594,-4.19561 h 5.3e-4 c -0.0754,-3.57927 1.64663,-5.36691 3.4308,-5.36608 z m 1.97559,14.00741 c -0.78838,1.39934 -1.79816,2.66075 -2.96984,3.79512 -1.06213,0.94584 -1.80404,2.02586 -2.28153,3.3538 -0.003,0.012 -0.005,0.0237 -0.009,0.0357 1.15411,0.11311 2.30814,0.22665 3.4613,0.3514 3.99042,0.43171 5.40747,2.84663 4.69323,4.76353 0.67585,0.41545 1.35041,0.83313 2.01954,1.25626 3.82278,2.5036 7.53266,5.1715 11.24013,7.84086 -1.81731,-3.68096 -3.93583,-7.19476 -6.36087,-10.5146 -1.10355,-1.48555 -2.20805,-3.00054 -3.36206,-4.44883 -0.35653,-0.44747 -1.7607,-2.16704 -2.34455,-2.70784 -0.36042,-0.33384 -0.93237,-0.68033 -1.36375,-0.9555 -1.33122,-0.84918 -2.21667,-1.81673 -2.72282,-2.76986 z" /></clipPath><clipPath
       clipPathUnits="userSpaceOnUse"
       id="clipPath240"><path
         id="path241"
         style="fill:#ff0000;fill-opacity:1;fill-rule:nonzero;stroke:none;stroke-width:0.264583"
         d="M 92.804184,-309.23338 V -41.629034 H 294.29938 V -309.23338 Z m 130.496946,63.74443 c 0.93337,0.009 2.02072,0.27397 3.21944,0.8785 1.75312,0.88412 3.43212,1.89553 5.06326,2.98586 5.9527,3.97906 1.8926,10.01797 -4.03542,6.00222 -1.36849,-0.92705 -2.78857,-1.76849 -4.26227,-2.51871 -5.18448,-2.63926 -4.02961,-7.38891 0.015,-7.34787 z m -85.24544,1.99626 c 3.36772,-0.0906 4.87054,3.93317 0.67437,7.28431 -0.81214,0.6486 -0.42273,0.34746 -1.1653,0.9064 -1.7275,1.42217 -3.47209,2.82263 -5.29477,4.12275 -2.09112,1.47372 -4.25636,2.82668 -6.45645,4.13153 -6.15846,3.65253 -10.39165,-1.95967 -4.33979,-5.78621 2.21999,-1.40367 4.47897,-2.73503 6.6244,-4.25349 1.67688,-1.19734 3.27994,-2.48915 4.86947,-3.79821 0.91499,-0.69918 0.50268,-0.37435 1.24076,-0.9679 1.39493,-1.12177 2.72473,-1.60899 3.84731,-1.63918 z" /></clipPath><clipPath
       clipPathUnits="userSpaceOnUse"
       id="clipPath251"><path
         id="path252"
         style="fill:#ff0000;fill-opacity:1;fill-rule:nonzero;stroke:none;stroke-width:0.264583"
         d="m 50.06164,-325.07443 v 245.270816 h 202.0347 V -325.07443 Z m 191.06172,72.239 c 1.42195,-0.0396 3.11835,0.92332 4.44418,3.2582 0.80855,1.42391 1.33311,2.97097 1.71979,4.55476 0.38267,1.85761 0.50306,3.75527 0.49506,5.64772 0.007,1.66837 -0.28067,3.30966 -0.52503,4.95318 -0.26767,2.07853 -1.32063,3.82386 -2.54249,5.47306 -0.98598,1.19805 -2.03839,2.33999 -3.16208,3.40961 -0.37488,0.32054 -0.76867,0.61405 -1.09502,0.98443 -4.73356,5.37222 -10.25077,0.0313 -5.19193,-5.03587 0.41783,-0.41852 0.82603,-0.84961 1.30896,-1.19579 0.83199,-0.78568 1.60086,-1.63171 2.34973,-2.49649 0.52191,-0.686 1.06794,-1.32103 1.17874,-2.204 0.19629,-1.31742 0.44949,-2.62948 0.44648,-3.9672 0.0288,-1.3072 -0.0809,-2.61845 -0.30179,-3.90725 -0.20137,-0.91522 -0.51051,-1.80281 -0.96014,-2.62775 -2.14172,-3.92928 -0.53435,-6.78057 1.83554,-6.84661 z m -24.00732,134.01508 c 1.58088,-0.0452 3.27238,1.29937 3.90106,4.36821 0.19779,0.96552 0.49313,1.88927 0.87385,2.79466 0.57738,1.31117 0.86222,2.69631 0.9741,4.11603 0.0779,1.63421 -0.38657,3.16522 -1.00976,4.65191 -0.60784,1.37091 -1.55916,2.5173 -2.50579,3.660755 -0.2566,0.333243 -0.50348,0.67224 -0.76223,1.002525 -0.0721,0.651052 -0.19323,1.300012 -0.35502,1.949752 l -0.4842,1.22783 c -0.70346,1.782932 -1.87803,2.754204 -3.12126,3.127457 -0.38818,0.593834 -0.73665,1.213207 -1.1529,1.788007 -0.78123,1.206815 -1.75001,2.262322 -2.80138,3.23546 -1.04259,0.90742 -2.26203,1.551003 -3.47214,2.198833 -0.81145,0.41652 -1.66264,0.737227 -2.52439,1.030428 -6.77856,2.306214 -9.10653,-4.670343 -2.28979,-6.86108 0.48258,-0.155091 0.95367,-0.335381 1.41232,-0.552421 0.68902,-0.364839 1.38726,-0.713642 2.01745,-1.175639 0.71797,-0.616461 1.30017,-1.358352 1.82004,-2.146123 0.66383,-0.892056 1.26802,-1.828112 1.8216,-2.792076 0.59882,-1.12436 1.07283,-2.316203 1.82056,-3.358968 0.0117,-0.0166 0.0249,-0.032 0.0367,-0.0486 -0.84786,-3.67928 0.87949,-5.67892 2.87217,-5.69422 0.38363,-0.003 0.77643,0.0723 1.16324,0.21859 0.15519,-0.3579 0.298,-0.71847 0.29042,-1.1188 -0.0398,-0.54898 -0.18359,-1.13581 -0.4191,-1.66191 -0.48947,-1.16893 -0.89792,-2.36312 -1.1591,-3.60547 -0.82863,-3.94139 1.021,-6.29698 3.05356,-6.35516 z" /></clipPath><clipPath
       clipPathUnits="userSpaceOnUse"
       id="clipPath278"><path
         id="path279"
         style="fill:#ff0000;fill-opacity:1;fill-rule:nonzero;stroke:none;stroke-width:0.264583"
         d="m -43.212488,-382.05292 v 250.81001 H 185.4025 v -250.81001 z m 181.494868,132.88233 c 1.13528,0.005 2.03811,0.42617 2.60707,1.09037 0.91934,-0.34123 1.78192,-0.54125 2.52078,-0.52658 4.05205,0.0805 5.08945,4.87108 -0.18087,7.33443 -2.21042,1.03317 -4.41856,2.08163 -6.72362,2.89285 -2.86091,0.99315 -5.74924,1.921 -8.52506,3.13986 -6.55592,2.87873 -9.40434,-3.76713 -2.84944,-6.64817 1.1011,-0.48395 2.22936,-0.89759 3.35587,-1.31568 0.52294,-1.00077 1.47788,-2.01475 2.95124,-2.87476 1.0894,-0.6359 2.16914,-1.287 3.24683,-1.94252 1.33817,-0.81396 2.56345,-1.15421 3.5972,-1.1498 z m -133.0900695,2.4753 h 5.5981075 c 7.160125,0 7.160125,7.23263 0,7.23263 H 5.1923105 c -7.1601277,0 -7.1601277,-7.23263 0,-7.23263 z m 42.9880715,50.84496 c 2.044401,-0.008 3.844292,2.25841 2.953308,6.18618 -0.283588,1.25017 -0.481169,2.51568 -0.75189,3.76877 -0.313965,1.46608 -0.73946,2.91235 -1.207162,4.33668 -2.233805,6.80278 -9.211228,4.46329 -6.857981,-2.29908 0.404762,-1.16313 0.726765,-2.36525 0.995807,-3.56619 0.287499,-1.32813 0.484814,-2.67249 0.804084,-3.99407 0.735603,-3.04497 2.473746,-4.42641 4.063834,-4.43229 z m 26.844358,9.60148 c 1.5451,0.0844 3.630816,1.85281 5.237924,5.05189 1.446292,2.8789 3.498345,5.40261 5.377447,8.00674 1.423178,1.86933 2.496352,3.93269 3.488161,6.04873 3.038795,6.48323 -3.64554,9.55837 -6.57066,3.02307 -0.764304,-1.70766 -1.644017,-3.34338 -2.782776,-4.84001 -2.279812,-3.15977 -5.466628,-6.83969 -6.494177,-10.63656 -0.141171,-0.52168 -0.167447,-1.06805 -0.251148,-1.60197 -0.554762,-3.53682 0.450099,-5.13633 1.995229,-5.05189 z m 22.433772,2.07998 v 5.3e-4 c 1.081786,0.0173 2.458693,0.64291 3.986318,2.0805 1.21595,1.14421 2.08888,2.57763 3.1502,3.85661 0.75663,0.91352 1.6619,1.66584 2.53163,2.46393 1.1475,0.93011 2.05703,2.06162 2.85305,3.29799 0.95863,1.59903 1.44035,3.34615 0.97049,5.20227 -0.10236,0.40431 -0.31771,0.77135 -0.47646,1.15703 -1.02548,2.49132 -2.04203,1.65641 -2.97036,0.0238 -2.04159,1.70549 -5.47708,1.09344 -5.78105,-3.28558 -0.003,-0.0322 -0.0142,-0.0648 -0.007,-0.0966 0.005,-0.03 0.0986,-0.0136 0.0827,-0.0393 -0.23736,-0.38486 -0.69492,-0.61714 -1.02216,-0.90227 -1.100378,-0.77725 -2.267905,-1.45106 -3.395141,-2.18798 -3.582773,-2.34245 -3.744537,-5.4822 -2.015898,-6.82284 -0.840523,-2.68156 0.04882,-4.63231 1.88154,-4.74287 0.06945,-0.004 0.140271,-0.006 0.212389,-0.005 z" /></clipPath><clipPath
       clipPathUnits="userSpaceOnUse"
       id="clipPath292"><path
         id="path293"
         style="fill:#ff0000;fill-opacity:1;fill-rule:nonzero;stroke:none;stroke-width:0.264583"
         d="M 39.169506,-337.89832 V -50.969072 H 288.46282 V -337.89832 Z m 15.676046,82.89261 c 1.714024,0.0204 3.54041,1.61061 3.978568,4.9382 0.120111,0.91222 0.106387,1.83456 0.107487,2.75229 0.0087,7.16012 -7.246413,7.15857 -7.232633,-0.002 0.0013,-0.65071 0.02757,-1.30512 -0.06356,-1.95182 -0.530767,-3.76661 1.267578,-5.76019 3.21014,-5.73712 z m 197.013298,6.80941 c 1.32993,-0.0899 2.96772,0.82319 4.38423,3.1042 1.07429,1.72993 1.55184,3.70118 1.89652,5.68338 0.39598,2.58761 0.42018,5.20011 0.26717,7.80675 -0.16631,2.61527 -0.75971,5.14416 -1.52187,7.63985 -0.4978,1.90614 -1.23662,3.72608 -2.0159,5.52989 -0.76243,1.81488 -1.37928,3.68664 -2.00143,5.55315 -0.64972,1.87676 -1.26002,3.76819 -2.01124,5.60741 -0.95415,2.1244 -1.9321,4.237 -2.90784,6.35155 -0.93622,2.10591 -1.93956,4.18102 -3.03444,6.20893 -0.74336,1.47932 -1.63431,2.88203 -2.64686,4.19044 -0.85071,1.10794 -1.91984,2.00805 -2.89078,3.00343 -1.04445,1.12516 -2.20219,2.13025 -3.34605,3.1502 -1.2349,1.05182 -2.56579,1.98944 -3.91811,2.88354 -1.93444,1.28303 -4.12655,2.08437 -6.28747,2.89285 -2.75914,1.06536 -5.6224,1.79172 -8.50439,2.42982 -2.00852,0.48359 -4.02259,0.93996 -6.05234,1.32499 -1.0898,0.20672 -1.99053,0.15992 -2.79725,0.0139 -0.75827,0.17949 -1.51301,0.3744 -2.26653,0.57309 -1.4977,0.44017 -2.97995,0.92699 -4.46019,1.42214 -1.58834,0.5581 -3.19109,1.04834 -4.83381,1.42213 -2.05853,0.5373 -4.13223,0.98734 -6.23425,1.31724 -1.89057,0.38525 -3.79586,0.65788 -5.71696,0.82837 -1.92552,0.0766 -3.83858,0.29911 -5.75676,0.47025 -1.71912,0.15432 -3.44381,0.22701 -5.16867,0.27441 -2.44184,-0.0118 -4.87127,-0.25567 -7.30085,-0.47078 -2.85973,-0.19225 -5.71909,-0.39592 -8.57157,-0.67799 -2.83995,-0.26841 -5.65359,-0.74864 -8.47907,-1.13016 -2.66463,-0.21934 -5.29981,-0.64608 -7.94267,-1.03457 -2.11987,-0.30404 -4.25541,-0.45909 -6.38152,-0.71055 -1.8808,-0.17534 -3.75496,-0.4017 -5.63118,-0.61856 -1.91243,-0.21286 -3.83573,-0.28885 -5.75779,-0.34985 -2.23949,-0.16259 -4.48445,-0.27106 -6.71949,-0.48783 -2.21917,-0.20648 -4.40762,-0.67897 -6.54068,-1.31516 -2.57048,-0.65769 -4.88262,-1.9917 -7.25382,-3.13883 -1.91366,-0.89121 -3.846978,-1.74009 -5.755724,-2.6417 -1.929913,-0.93683 -3.722034,-2.11514 -5.521108,-3.27525 -1.492637,-0.90475 -0.734285,-0.44535 -2.275314,-1.37821 -6.125257,-3.70793 -2.379728,-9.89571 3.745508,-6.18774 1.606161,0.9723 0.789586,0.47683 2.449462,1.48725 1.534261,0.98943 3.055983,2.00536 4.695836,2.81636 1.92633,0.91375 3.8825,1.76312 5.81257,2.66909 2.03397,0.98503 4.0062,2.16157 6.20944,2.72955 1.67042,0.52508 3.40555,0.86136 5.14697,1.03715 2.07333,0.21111 4.15957,0.28906 6.23683,0.4563 2.12341,0.0679 4.24789,0.15641 6.36033,0.39429 1.88182,0.21873 3.76122,0.44337 5.64772,0.62012 2.19401,0.25968 4.39889,0.41632 6.58565,0.73794 2.61501,0.3856 5.2221,0.80551 7.85895,1.02267 2.74095,0.37156 5.47017,0.83558 8.22482,1.1002 2.82609,0.28319 5.66087,0.47505 8.49405,0.67076 2.15225,0.19062 4.3024,0.40925 6.46472,0.44545 1.57684,-0.0428 3.1537,-0.10777 4.7253,-0.24857 1.92194,-0.17061 3.8389,-0.3955 5.76812,-0.4718 1.7606,-0.15093 3.50197,-0.42258 5.23482,-0.76946 1.94524,-0.29972 3.85736,-0.73584 5.76244,-1.22784 1.40538,-0.30937 2.76609,-0.74989 4.12327,-1.22421 1.62869,-0.54468 3.26081,-1.07909 4.91081,-1.5565 1.77362,-0.46766 3.552,-0.92735 5.36814,-1.20147 1.70238,-0.33298 3.38762,-0.74982 5.05034,-1.24437 1.8768,-0.51034 3.73395,-1.11665 5.54695,-1.81953 1.67544,-0.67931 3.31988,-1.45879 4.78886,-2.52439 1.0657,-0.84543 2.16725,-1.64342 3.15019,-2.58951 1.28809,-1.21508 2.58622,-2.41928 3.84008,-3.67058 0.85194,-0.84614 1.68746,-1.65828 2.24585,-2.7404 0.63482,-0.99725 1.29901,-1.9775 1.85674,-3.02152 0.55263,-0.92785 1.06197,-1.877 1.53479,-2.8484 0.43455,-0.81257 0.86675,-1.63643 1.16427,-2.50993 0.39723,-1.087 0.65435,-2.21493 0.97203,-3.32641 0.29574,-1.24569 0.60338,-2.49273 1.07901,-3.68453 0.39957,-1.05638 0.68712,-2.15558 1.05006,-3.22512 0.22713,-0.94997 0.37986,-1.92387 0.55966,-2.88303 0.22526,-1.23853 0.53664,-2.45701 1.02371,-3.62149 0.47591,-1.31864 1.08044,-2.58627 1.7048,-3.84007 0.34111,-0.58794 0.67316,-1.19257 0.96067,-1.80041 0.32682,-0.71346 -0.0659,-2.40019 0.0822,-3.22151 v -4.23178 c 0,-3.58007 1.80812,-5.37022 3.61632,-5.37022 0.15156,0 0.30168,0.0312 0.45217,0.0563 -0.0649,-0.17178 -0.10183,-0.35173 -0.18242,-0.51883 -1.94402,-4.03078 -0.58254,-6.96655 1.63401,-7.11636 z" /></clipPath></defs><g
     id="layer1"
     transform="translate(-42.786697,421.54261)"><path
       style="fill:#000000"
       d="m 148.02823,-132.66255 c -1.26118,-0.27246 -3.37185,-1.05963 -4.69036,-1.74927 l -2.39731,-1.25389 -3.95269,0.19516 c -18.58132,0.91744 -21.36924,0.935 -29.35269,0.18491 -5.38847,-0.50627 -12.722098,-0.8321 -23.98889,-1.0658 -26.285085,-0.54521 -31.088424,-1.38666 -29.375544,-5.14603 0.769461,-1.68878 6.324772,-3.4515 13.246196,-4.20307 2.09639,-0.22764 2.241773,-0.30438 2.712907,-1.43196 0.273796,-0.65529 1.242457,-1.98752 2.152579,-2.96051 1.418088,-1.51605 2.731094,-2.29547 9.179982,-5.44938 7.611048,-3.72228 9.57761,-4.87476 12.539302,-7.3485 2.036459,-1.70094 5.76955,-6.04994 8.308968,-9.67983 2.49477,-3.56608 6.96294,-11.01256 6.74108,-11.23442 -0.0944,-0.0945 -1.90307,-0.33045 -4.01916,-0.52443 -5.991015,-0.54921 -7.051048,-0.90651 -7.842432,-2.6434 -0.321872,-0.70644 -0.658348,-0.87819 -1.730066,-0.88313 -2.377316,-0.0109 -6.211363,-1.01451 -8.865109,-2.32045 -10.97988,-5.40335 -13.402872,-20.84392 -4.66374,-29.71978 4.907253,-4.98404 12.126564,-6.47183 19.251787,-3.96752 1.06833,0.37549 1.94241,0.62025 1.94241,0.54393 0,-0.0763 -0.75594,-1.29677 -1.67987,-2.7121 -0.92393,-1.41532 -2.205989,-3.77996 -2.849012,-5.25476 -1.098589,-2.51965 -1.257985,-2.70769 -2.641651,-3.11642 -3.058393,-0.90342 -6.37694,-2.94153 -8.785526,-5.39569 -4.155694,-4.23433 -6.268935,-9.79624 -6.268935,-16.49943 v -3.13834 l -1.499305,-0.38299 c -6.285116,-1.6055 -10.894271,-2.95585 -13.879349,-4.06627 -14.775049,-5.49617 -22.813406,-14.371 -22.835051,-25.21126 -0.01375,-6.88525 2.58526,-12.36807 8.630066,-18.20584 6.423389,-6.20339 19.62702,-12.79022 36.629151,-18.273 8.294969,-2.67492 8.029317,-2.64498 10.83233,-1.22113 1.285722,0.65311 2.395752,1.02872 2.466732,0.83469 0.071,-0.19403 0.56427,-1.2259 1.09621,-2.29305 0.86487,-1.73509 1.22411,-2.07086 3.39679,-3.175 l 2.42962,-1.23473 3.05488,-5.99722 c 9.07539,-17.81647 21.1226,-34.34399 35.63436,-48.88665 3.59667,-3.60433 8.27565,-8.03252 10.39774,-9.84043 14.77401,-12.5867 29.18643,-20.6539 41.29721,-23.11567 11.74565,-2.38756 24.73394,-0.608 35.50239,4.86429 7.06955,3.59259 12.0931,7.41644 19.4003,14.76724 5.79025,5.82479 5.69484,5.78779 11.17646,4.33486 5.83191,-1.54578 7.99051,-1.24027 9.62968,1.3629 0.60346,0.95836 0.68899,1.57687 0.57055,4.12597 -0.31393,6.75629 -4.76599,14.62607 -11.19149,19.78287 -4.60442,3.6953 -8.91773,5.261 -15.21391,5.52256 -4.99434,0.20748 -8.22944,-0.31278 -11.56068,-1.85916 -1.04684,-0.48595 -1.95196,-0.83493 -2.01138,-0.77552 -0.0594,0.0594 1.24598,4.22999 2.90088,9.26794 3.68994,11.23318 6.35712,20.44969 8.46996,29.26825 2.53258,10.57043 1.86396,9.33515 5.77306,10.66578 21.72406,7.39472 35.56895,14.44693 43.07008,21.93873 7.76154,7.75189 9.76071,16.99803 5.52434,25.55006 -1.15067,2.32288 -2.08191,3.53093 -4.84222,6.28159 -3.08035,3.06958 -3.81604,3.60087 -7.45609,5.38455 -4.80495,2.35449 -9.68954,3.67631 -17.59888,4.76245 -7.4538,1.02358 -6.98683,0.86805 -7.2463,2.41342 -1.59164,9.47945 -6.06739,15.2611 -14.04239,18.13958 l -2.87659,1.03827 -0.96466,2.36 c -0.83849,2.05132 -2.05424,4.10142 -4.4226,7.45775 -0.59154,0.8383 -0.58865,0.85528 0.0956,0.56236 2.24677,-0.96183 5.93142,-1.6608 8.81945,-1.67303 5.35768,-0.0227 9.2769,1.69362 12.95484,5.67321 7.61561,8.24018 6.08558,21.78877 -3.16555,28.03145 -2.87252,1.93838 -5.88769,2.98676 -9.45801,3.28856 -2.43233,0.20561 -2.70389,0.30719 -3.15539,1.18028 -0.2717,0.52543 -0.93806,1.13874 -1.48078,1.36292 -1.41715,0.58537 -4.8682,1.09847 -7.40415,1.10084 -1.20123,0.001 -2.28782,0.16996 -2.41465,0.37518 -0.49258,0.79701 6.44626,12.10405 10.20416,16.62797 3.90415,4.69998 7.2306,6.94811 16.44314,11.11283 3.20146,1.44728 6.56651,3.10677 7.4779,3.68774 1.97449,1.25865 3.87251,3.28609 4.82597,5.15502 l 0.69277,1.35793 4.52598,0.75593 c 2.48929,0.41576 5.39075,1.01792 6.44769,1.33814 2.31466,0.70126 4.31318,2.49606 4.02148,3.61153 -0.73182,2.7985 -5.8294,3.49465 -28.95127,3.95374 -12.10096,0.24027 -18.65149,0.52944 -23.94479,1.05704 -6.47691,0.64558 -8.13454,0.6874 -14.91553,0.37626 -4.19584,-0.19253 -10.32756,-0.39449 -13.62603,-0.4488 -5.83147,-0.096 -6.02981,-0.0755 -7.17611,0.74207 -2.02937,1.4474 -5.14518,2.21867 -9.75722,2.41526 -5.53158,0.23577 -8.84355,-0.2748 -11.99445,-1.84906 l -2.46944,-1.23379 -5.33031,0.002 c -5.23349,0.002 -5.36805,0.0209 -7.40833,1.06595 -1.14292,0.5854 -3.18928,1.29702 -4.54747,1.58138 -3.08148,0.64514 -9.48706,0.63378 -12.52361,-0.0222 z m 11.47935,-5.28487 c 2.71911,-0.70438 4.56126,-1.93878 5.42762,-3.63699 0.70517,-1.38225 1.61844,-5.68237 1.36703,-6.43661 -0.13855,-0.41564 -1.94687,-0.48274 -17.56845,-0.65192 l -6.17361,-0.0669 0.0984,1.87616 c 0.3509,6.69179 3.60994,9.39532 11.38098,9.44107 1.95709,0.0115 4.24535,-0.20811 5.46805,-0.52485 z m 35.98333,0.007 c 4.46328,-1.14188 6.45006,-3.57765 6.77408,-8.30493 l 0.19308,-2.81697 -1.90312,0.18021 c -1.04671,0.0991 -6.34811,0.25452 -11.78089,0.34534 -5.43278,0.0908 -9.87534,0.29162 -9.87236,0.44623 0.0345,1.79095 0.65855,5.0702 1.19615,6.28554 0.81293,1.83777 2.78925,3.25793 5.42134,3.89573 2.57428,0.62379 7.47155,0.60849 9.97172,-0.0311 z m -76.46732,-2.83217 c 1.73621,-0.72526 2.92523,-1.87742 5.44166,-5.27296 3.82734,-5.16441 20.18204,-39.21647 27.81777,-57.91927 l 1.32226,-3.23873 -2.17116,-0.19429 c -1.19414,-0.10685 -4.71117,-0.37076 -7.81561,-0.58644 -3.10445,-0.21569 -8.36385,-0.74348 -11.68756,-1.17288 l -6.0431,-0.78073 -2.03446,5.48784 c -7.92655,21.38142 -15.66023,35.03195 -24.91007,43.9682 -4.287721,4.14235 -6.196298,5.33774 -16.88453,10.57515 -5.402526,2.64733 -5.856456,2.97735 -6.720547,4.88597 -1.065436,2.35336 -1.151888,2.32657 7.508434,2.32657 7.499882,0 12.471634,0.34618 24.964893,1.7383 7.43171,0.82811 9.58408,0.86329 11.21202,0.18327 z m 123.1963,-0.68989 c 10.34997,-1.22988 17.83552,-1.69178 23.02088,-1.42051 4.94501,0.25869 5.18481,0.16548 4.68611,-1.82151 -0.50695,-2.01983 -2.70736,-3.42241 -11.65715,-7.4305 -9.54124,-4.27295 -14.14586,-8.18381 -20.244,-17.19388 -5.81207,-8.58739 -11.84837,-21.41382 -16.85125,-35.80694 l -1.53277,-4.40972 -1.32271,0.0236 c -0.7275,0.013 -4.5771,0.36186 -8.55467,0.77528 -3.97756,0.41342 -8.89881,0.84473 -10.93611,0.95846 -2.03729,0.11372 -4.4516,0.29477 -5.36513,0.40232 l -1.66096,0.19555 0.84169,2.17378 c 3.10696,8.02412 9.23088,21.8019 14.45117,32.51267 6.36376,13.05689 11.59447,22.4444 15.0374,26.9875 2.2957,3.02929 2.79484,3.51084 4.74167,4.5746 1.27068,0.69431 1.74463,0.74953 4.7625,0.55485 1.84326,-0.1189 6.60576,-0.6029 10.58333,-1.07555 z m -44.45,-12.16243 c 3.78354,-0.18737 8.09685,-0.43938 9.58513,-0.56003 l 2.70596,-0.21935 -4.12902,-8.34424 c -6.00428,-12.13388 -11.34515,-23.85333 -16.66433,-36.56646 l -3.09965,-7.40833 -13.60182,-0.0923 c -8.38394,-0.0569 -13.60182,0.0357 -13.60182,0.24153 0,1.04915 -15.04806,34.52675 -20.93793,46.58084 -1.46599,3.00027 -2.63275,5.48771 -2.59281,5.52765 0.0646,0.0646 8.46533,0.67607 13.1238,0.95526 4.6075,0.27614 43.13441,0.18647 49.21249,-0.11453 z m -35.87799,-18.90277 c -2.04873,-1.04648 -2.39839,-1.97727 -2.39839,-6.38431 v -3.93866 l -2.52908,-2.60886 c -2.82301,-2.91207 -3.34275,-4.23752 -2.61461,-6.66784 0.63313,-2.11318 2.51843,-3.30215 6.0564,-3.81947 1.57341,-0.23006 3.08532,-0.50447 3.35978,-0.60979 0.27447,-0.10532 1.50496,-1.72194 2.73443,-3.59249 1.22946,-1.87055 2.5027,-3.62285 2.82941,-3.89399 0.94287,-0.78252 3.92696,-0.93342 4.9681,-0.25124 0.48466,0.31756 1.85779,2.04407 3.0514,3.8367 1.19361,1.79262 2.29616,3.3985 2.45012,3.56863 0.15395,0.17013 1.56584,0.51522 3.13754,0.76688 4.1754,0.66855 6.07077,2.02232 6.68105,4.77194 0.43498,1.95981 -0.16528,3.26886 -2.78541,6.07447 l -2.4683,2.64304 v 3.42358 c 0,3.93889 -0.48008,5.32956 -2.18814,6.33854 -2.11549,1.24965 -4.85079,0.60954 -9.12412,-2.13521 -0.88163,-0.56627 -0.98106,-0.53747 -3.80096,1.10101 -3.32307,1.93083 -5.48363,2.33512 -7.35922,1.37707 z m 5.85511,-6.14848 c 1.59607,-0.9694 3.28526,-1.85876 3.75375,-1.97634 0.61953,-0.1555 1.77046,0.27705 4.22055,1.58616 1.8528,0.98998 3.48389,1.8001 3.62463,1.80027 0.14074,1.7e-4 0.20172,-1.66868 0.1355,-3.70856 l -0.12039,-3.70887 2.50164,-2.57995 c 1.37591,-1.41898 2.50165,-2.82945 2.50165,-3.13439 0,-0.40774 -0.62309,-0.66295 -2.35486,-0.96452 -4.48221,-0.78054 -5.57895,-1.53357 -8.08152,-5.54879 -0.88451,-1.41912 -1.75957,-2.58023 -1.94459,-2.58023 -0.18502,0 -0.76906,0.73207 -1.29786,1.62683 -2.70313,4.57381 -3.98429,5.53822 -8.36867,6.29958 -1.40759,0.24444 -2.75438,0.56502 -2.99285,0.7124 -0.29584,0.18284 0.48983,1.19621 2.47313,3.18987 l 2.90672,2.92189 -0.25365,3.91361 c -0.15092,2.32846 -0.12231,3.9136 0.0706,3.9136 0.17834,0 1.63014,-0.79315 3.2262,-1.76256 z m -54.8651,-12.61313 c 2.04055,-4.05374 7.93409,-19.36624 7.56277,-19.64947 -0.0602,-0.0459 -1.30013,-0.36425 -2.75534,-0.70736 -1.45521,-0.34311 -4.97742,-1.3999 -7.82715,-2.34843 -2.84972,-0.94853 -5.23097,-1.72433 -5.29166,-1.72399 -0.0607,3.3e-4 -0.11395,3.13564 -0.11834,6.96736 -0.008,6.96881 -0.26075,9.33857 -1.60646,15.06101 -0.36248,1.54143 -0.57501,2.8908 -0.47226,2.99861 0.15484,0.16248 7.42605,1.58659 8.87324,1.73788 0.2401,0.0251 0.97594,-1.02593 1.6352,-2.33561 z m 125.23462,1.65352 c 2.34592,-0.40026 4.30918,-0.77162 4.36282,-0.82525 0.0536,-0.0536 -0.28839,-1.82959 -0.76004,-3.94657 -1.39757,-6.27289 -1.72883,-9.16943 -1.7615,-15.40245 -0.017,-3.24992 -0.11035,-5.90844 -0.20737,-5.90782 -0.097,6.2e-4 -1.28764,0.44658 -2.64583,0.99103 -2.32607,0.93244 -6.96192,2.38822 -10.31875,3.24037 -0.82462,0.20934 -1.4993,0.57924 -1.4993,0.82201 0,1.90412 7.59798,21.75641 8.32674,21.75641 0.13086,0 2.15731,-0.32748 4.50323,-0.72773 z m -140.069549,-7.56255 c 0.774495,-3.02016 1.039404,-5.01561 1.19479,-8.99986 0.231688,-5.94072 -0.115879,-11.67262 -0.76132,-12.55532 -0.347549,-0.4753 -1.121032,-0.64883 -3.408532,-0.76471 -3.953736,-0.20029 -6.430522,0.69433 -8.958871,3.23595 -5.05462,5.08115 -5.265127,13.12639 -0.480439,18.3616 1.999761,2.18806 4.404713,3.50521 7.735811,4.23679 3.679744,0.80815 3.543897,0.91019 4.678561,-3.51445 z m 153.444049,3.53783 c 4.4155,-0.93564 7.57268,-3.31885 9.66859,-7.29837 0.91345,-1.73436 0.99221,-2.19193 0.99221,-5.76446 0,-3.57253 -0.0788,-4.03009 -0.99221,-5.76446 -1.3313,-2.52776 -3.34718,-4.64898 -5.60883,-5.90196 -1.73592,-0.96172 -2.12725,-1.03358 -5.62859,-1.03358 -2.06963,0 -3.86462,0.10166 -3.98887,0.22591 -0.43967,0.43967 -0.93397,9.34645 -0.70206,12.65048 0.32679,4.65577 1.66802,11.77672 2.45929,13.05701 0.28619,0.46306 0.95106,0.43322 3.80047,-0.17057 z m -53.72114,-19.39045 c 22.36823,-1.90635 29.51168,-4.21578 36.92494,-11.9376 4.6727,-4.8672 7.23597,-10.07871 8.3676,-17.01255 0.71526,-4.38269 1.03402,-20.07424 0.72358,-35.62003 l -0.25607,-12.82308 -2.6835,-1.24105 c -5.12463,-2.37001 -15.47888,-5.36872 -28.08349,-8.1333 -23.70539,-5.19933 -34.67382,-6.44392 -53.79861,-6.10457 -16.06702,0.2851 -31.10644,1.94906 -45.50833,5.03504 -5.62196,1.20465 -7.01492,1.71566 -10.0144,3.67373 l -2.61353,1.70613 -0.24009,3.64662 c -0.13204,2.00564 -0.1823,13.88599 -0.11167,26.40079 l 0.12841,22.75416 0.91592,3.35544 c 1.70556,6.24826 4.14021,10.5005 8.46591,14.78613 7.23792,7.17087 15.68496,9.68455 38.57084,11.47793 10.16753,0.79675 10.82671,0.81347 27.51666,0.69767 9.93483,-0.0689 17.42154,-0.29718 21.69583,-0.66146 z m -39.15833,-4.6427 c -12.83749,-0.57536 -25.18837,-2.01387 -31.91058,-3.71662 -10.38686,-2.63103 -17.26553,-8.99809 -20.03128,-18.54144 -0.77949,-2.68967 -0.79841,-3.15204 -0.79841,-19.51189 0,-18.8513 0.0347,-19.1736 2.637,-24.51806 3.4565,-7.09865 9.97747,-12.06632 18.0005,-13.71278 3.77932,-0.77558 9.66973,-1.50399 17.99166,-2.22485 10.32051,-0.89398 38.91401,-0.90156 51.15277,-0.0136 18.43187,1.33734 23.46642,2.20238 28.71735,4.93421 5.01125,2.60714 9.52381,7.65017 11.59431,12.95727 1.97704,5.06755 2.0643,6.14111 1.95015,23.99285 l -0.10486,16.4002 -1.10587,3.09076 c -1.56581,4.37628 -3.04576,6.69412 -6.47886,10.14701 -5.01742,5.04636 -9.8517,7.03543 -20.95318,8.62123 -10.96257,1.56596 -17.78735,1.99726 -33.37459,2.10916 -8.05215,0.0578 -15.8309,0.0517 -17.28611,-0.0135 z m 31.93241,-4.72996 c 10.99825,-0.69138 20.29087,-1.86317 25.47704,-3.21263 9.03696,-2.35144 15.11546,-8.4613 16.89174,-16.97888 0.44128,-2.11604 0.51213,-5.16585 0.40777,-17.55404 -0.12273,-14.56907 -0.14947,-15.06289 -0.94563,-17.4625 -2.31729,-6.9843 -6.07448,-11.35048 -12.16791,-14.14014 -3.79162,-1.73586 -11.65089,-2.8768 -26.38296,-3.83004 -22.43101,-1.4514 -45.01282,-0.87752 -62.03276,1.57648 -5.92892,0.85485 -8.52043,1.71594 -11.83382,3.93207 -3.14364,2.1026 -4.99713,4.19351 -6.8249,7.69913 -2.66374,5.10899 -2.67514,5.209 -2.67514,23.45972 v 16.22778 l 1.01103,2.64583 c 2.85424,7.46939 8.51152,12.27307 16.98063,14.4185 5.0713,1.28468 17.88822,2.81644 27.86945,3.3307 5.4672,0.28169 29.19832,0.20404 34.22546,-0.11198 z m -57.15602,-26.93144 c -1.71938,-0.5694 -3.97552,-1.75618 -4.96993,-2.61429 -1.66338,-1.43539 -3.34923,-4.12845 -4.07012,-6.50182 -1.66099,-5.46845 -0.0486,-11.21809 4.26626,-15.21287 2.87217,-2.65912 5.19776,-3.54345 9.3599,-3.55918 2.76134,-0.0104 3.43663,0.11494 5.18309,0.96228 3.08429,1.49643 5.3578,3.75254 6.875,6.82238 1.14122,2.30909 1.32866,3.04888 1.45801,5.75423 0.30134,6.30291 -2.43788,10.921 -8.03133,13.54012 -1.95156,0.91381 -2.80216,1.09666 -5.48477,1.179 -1.95072,0.0599 -3.71912,-0.0827 -4.58611,-0.36985 z m 1.16417,-2.418 c 0.64729,-0.64729 0.50409,-1.97807 -0.25667,-2.38521 -0.91974,-0.49223 -1.75056,-0.11504 -2.00827,0.91176 -0.3723,1.48334 1.2195,2.51889 2.26494,1.47345 z m -3.10445,-3.12442 c 0,-1.4679 -1.42671,-2.1584 -2.48354,-1.20199 -0.91841,0.83115 -0.76325,1.96298 0.34454,2.51322 1.20802,0.60003 2.139,0.0293 2.139,-1.31123 z m 12.25882,-12.12391 c 0.84527,-0.92235 1.14674,-1.58187 1.14674,-2.50873 0,-3.19074 -3.00627,-5.41973 -5.75863,-4.26972 -3.36242,1.40491 -3.67718,5.46674 -0.58623,7.56503 1.7502,1.18812 3.6522,0.90031 5.19812,-0.78658 z m 57.26009,17.44589 c -5.05106,-1.86962 -8.3393,-5.80936 -9.17386,-10.99147 -1.82712,-11.3454 9.8991,-20.41313 19.89595,-15.38527 2.04293,1.02748 5.21771,4.37967 6.27904,6.62993 0.50827,1.07764 1.10523,2.99935 1.32658,4.27045 1.02984,5.91379 -2.19324,12.13013 -7.69313,14.83772 -1.9807,0.9751 -2.73299,1.14442 -5.5051,1.23912 -2.5439,0.0869 -3.60944,-0.0378 -5.12948,-0.60048 z m 3.17689,-2.52385 c 0.53935,-1.00778 -0.18472,-2.0726 -1.40936,-2.0726 -1.02046,0 -1.43644,0.51409 -1.43644,1.77522 0,1.3837 2.14449,1.6078 2.8458,0.29738 z m -3.1747,-1.76444 c 0.63531,-1.18709 -0.0972,-2.42482 -1.43499,-2.42482 -1.47613,0 -2.18628,1.41798 -1.23602,2.46801 0.84134,0.92967 2.16178,0.90832 2.67101,-0.0432 z m 8.95585,-12.09675 c 1.59757,-0.6675 2.42558,-2.01317 2.39712,-3.89575 -0.0304,-2.00998 -0.86024,-3.19806 -2.73352,-3.91347 -1.2635,-0.48253 -1.74912,-0.51199 -2.78809,-0.1691 -3.56863,1.17776 -3.92727,6.17976 -0.56357,7.86012 1.4968,0.74773 2.13261,0.76811 3.68806,0.1182 z m -41.47681,13.771 c -3.24202,-1.15854 -5.3531,-3.39129 -6.14128,-6.49526 -0.67639,-2.6637 0.23946,-4.30659 2.40077,-4.30659 0.97031,0 1.82375,0.82999 2.17646,2.11667 0.83531,3.0471 2.18927,4.23333 4.83192,4.23333 2.4156,0 3.7657,-1.13396 4.72923,-3.97211 0.85793,-2.52708 2.61222,-3.13105 4.27238,-1.4709 0.78605,0.78606 0.87598,1.10089 0.67446,2.36119 -0.3207,2.00552 -1.83917,4.665 -3.29956,5.77889 -2.6865,2.04909 -6.7512,2.78866 -9.64438,1.75478 z m -72.992567,9.64606 c -0.18122,-1.25392 -0.332682,-8.83388 -0.336583,-16.84435 -0.0081,-16.68951 0.303394,-15.56831 -3.306468,-11.9003 -6.891221,7.0022 -7.386599,20.35322 -1.016795,27.40384 1.170033,1.29508 4.665601,3.94439 4.897873,3.71212 0.05031,-0.0503 -0.05681,-1.1174 -0.238027,-2.37131 z m 158.127867,-1.03325 c 3.06386,-3.47273 4.62596,-7.95681 4.61276,-13.24105 -0.0156,-6.25714 -1.73279,-10.62692 -5.78771,-14.72847 -1.29479,-1.30969 -2.51647,-2.38125 -2.71483,-2.38125 -0.23758,0 -0.42125,5.32712 -0.53823,15.61041 -0.0977,8.58573 -0.28908,16.22641 -0.42536,16.97928 l -0.24777,1.36886 1.84503,-1.00419 c 1.01477,-0.55231 2.48002,-1.72392 3.25611,-2.60359 z m 18.62289,-17.65547 c 5.57986,-1.11319 10.1217,-2.47467 11.87949,-3.56105 1.62082,-1.00172 2.64095,-3.34522 2.70668,-6.21794 l 0.0541,-2.36451 -2.46944,-1.87531 c -2.18066,-1.65601 -11.43881,-6.67123 -13.45159,-7.28684 -0.70201,-0.21472 -0.74033,-0.13007 -0.581,1.2835 0.25469,2.25962 -0.45826,4.35828 -2.07725,6.11468 -1.56158,1.69411 -4.79187,3.48543 -6.93964,3.84829 l -1.37089,0.23161 1.20354,2.4127 c 0.66195,1.32699 1.55278,3.86615 1.97963,5.64258 l 0.77609,3.22987 1.5875,-0.21853 c 0.87312,-0.1202 3.88937,-0.67777 6.70278,-1.23905 z m -188.560468,-7.76659 c 0.534678,-1.06155 1.736474,-2.90705 2.670659,-4.10111 l 1.698517,-2.17101 -1.831431,-0.59097 c -3.963492,-1.27894 -7.876939,-4.40282 -9.288195,-7.41423 -0.891748,-1.90286 -1.081077,-4.43312 -0.486769,-6.50535 0.190709,-0.66497 0.273646,-1.28213 0.184303,-1.37147 -0.273501,-0.2735 -7.572914,2.40106 -10.937992,4.00777 -5.389689,2.57339 -7.584721,5.07138 -7.584721,8.63155 0,3.32208 1.882223,5.68756 6.293079,7.90883 2.75903,1.38943 9.348702,3.67171 14.16803,4.90698 l 3.351389,0.85902 0.395494,-1.11495 c 0.217522,-0.61323 0.832958,-1.9835 1.367637,-3.04506 z m 212.350338,-5.78074 c 1.42852,-2.83988 1.664,-6.85484 0.60629,-10.33712 -1.34015,-4.41217 -5.35463,-9.08688 -11.22574,-13.07195 -3.02953,-2.05633 -9.64702,-5.46703 -13.87598,-7.15179 -2.03729,-0.81162 -3.96643,-1.70628 -4.28697,-1.98813 -0.32054,-0.28185 -0.79679,-0.47135 -1.05833,-0.42111 -0.26154,0.0502 -2.93616,-0.72283 -5.94359,-1.71793 -13.39831,-4.43319 -27.59334,-8.03031 -32.8824,-8.33262 -3.46393,-0.19799 -5.55967,-0.87671 -6.60821,-2.14012 -0.64732,-0.77998 -0.57413,-2.21665 0.15393,-3.02114 0.48082,-0.5313 0.56445,-1.01978 0.3824,-2.23373 -0.32955,-2.1976 -0.76621,-2.61806 -3.55544,-3.4235 -11.76653,-3.3978 -24.09726,-5.66408 -36.68888,-6.74308 -6.9065,-0.59183 -28.82724,-0.5983 -35.10139,-0.0104 -7.13141,0.66827 -15.08265,1.71721 -20.81388,2.7458 -6.54203,1.1741 -15.515,3.41333 -16.64516,4.15384 -0.68987,0.45202 -0.99953,1.15611 -1.46872,3.33953 -0.73345,3.41316 -0.88662,3.50329 -6.73992,3.96656 -5.393113,0.42685 -7.380036,0.77297 -13.182743,2.29641 -10.288342,2.70111 -21.531586,7.40344 -27.474529,11.49085 -5.44051,3.74184 -9.301054,8.40376 -10.694133,12.91403 -1.28717,4.16737 -0.741281,9.51658 1.372041,13.44474 l 0.64421,1.19744 1.516738,-2.78493 c 2.250784,-4.13274 4.064833,-5.6664 10.357363,-8.75646 5.575316,-2.73786 7.767448,-3.54958 17.688463,-6.54978 18.763569,-5.67428 40.88682,-10.3191 57.85555,-12.14689 16.21641,-1.74675 36.59711,-1.53338 50.8,0.53183 18.97829,2.75959 46.55014,9.63588 69.92204,17.43824 14.5697,4.86388 21.74873,7.95502 27.75189,11.94938 2.99087,1.99006 6.67811,5.58699 7.10453,6.93052 0.35899,1.13108 0.95911,0.68082 2.09057,-1.56853 z m -60.47876,-47.69994 c 0,-0.14906 -8.64697,-3.30636 -9.0552,-3.30636 -0.0717,0 -0.0481,0.39687 0.0526,0.88194 0.10071,0.48507 0.25558,1.23914 0.34415,1.6757 0.15619,0.76983 0.28907,0.79395 4.40972,0.80047 2.33677,0.004 4.24868,-0.0196 4.24868,-0.0518 z m 5.99722,-3.99217 c 0,-1.67103 -2.78675,-11.38308 -3.4069,-11.87328 -7.44489,-5.88495 -19.47114,-11.17377 -33.4708,-14.71955 -6.50347,-1.64718 -14.56728,-3.2384 -14.87117,-2.93452 -0.0939,0.0939 0.22651,0.43092 0.71197,0.749 1.17246,0.76823 2.1061,3.13441 1.79523,4.5498 -0.37485,1.70668 -1.07825,2.52733 -3.70393,4.32138 -2.27833,1.55671 -2.4405,1.75422 -2.4405,2.97226 0,0.71761 0.0924,1.76662 0.20527,2.33114 l 0.20528,1.02639 5.66153,0.81387 c 16.81981,2.41793 36.56906,7.63033 46.31541,12.22399 2.96901,1.39936 2.99861,1.40468 2.99861,0.53952 z m -122.59027,-9.15115 c 10.36962,-2.56984 23.12836,-4.33295 35.02488,-4.84004 3.15938,-0.13467 5.80346,-0.34053 5.87573,-0.45747 0.0723,-0.11694 0.18269,-0.92299 0.24538,-1.79123 l 0.11398,-1.57861 -2.60121,-1.95743 c -2.50265,-1.88326 -3.91015,-3.69468 -3.91015,-5.03228 0,-0.96134 0.99607,-3.14325 1.86892,-4.09389 l 0.77692,-0.84616 -2.75146,0.24027 c -6.92892,0.60507 -17.83752,3.00332 -26.07585,5.73277 l -4.83841,1.60303 -1.80575,2.84422 c -1.82621,2.87644 -5.97992,10.50513 -5.97992,10.98269 0,0.14256 0.27781,0.17692 0.61736,0.0764 0.33955,-0.10056 1.88736,-0.49757 3.43958,-0.88224 z m 49.2125,-4.80332 c 3.89898,-0.6868 7.58249,-0.67053 10.43535,0.0461 1.25954,0.31638 2.37982,0.4855 2.48951,0.37581 0.10969,-0.10969 0.0115,-1.31355 -0.21816,-2.67525 -0.22968,-1.3617 -0.31797,-2.78973 -0.19619,-3.17342 0.12177,-0.38368 1.5636,-1.8371 3.20406,-3.22983 1.64046,-1.39273 2.98265,-2.73594 2.98265,-2.98493 0,-0.48591 -1.87293,-1.33733 -3.88055,-1.76407 -3.02007,-0.64193 -5.08129,-2.42645 -7.98197,-6.91043 -0.86747,-1.34097 -1.77035,-2.43813 -2.0064,-2.43813 -0.23605,0 -1.26052,1.31995 -2.2766,2.93321 -1.01608,1.61327 -2.28369,3.35016 -2.81692,3.85976 -0.95544,0.91311 -3.73809,2.35639 -4.57224,2.3715 -0.9413,0.017 -4.33476,1.49648 -4.33476,1.8898 0,0.23114 1.16368,1.33176 2.58596,2.44582 4.33773,3.39774 4.27586,3.29332 3.80947,6.42916 -0.40781,2.74192 -0.46444,3.35444 -0.31001,3.3536 0.0485,-2.7e-4 1.43756,-0.23818 3.0868,-0.52869 z m 67.73333,-6.40295 c 0,-0.12614 -1.20638,-3.97582 -2.68084,-8.55486 -4.53372,-14.07973 -7.41839,-20.54676 -12.67842,-28.42322 -1.6368,-2.45097 -2.859,-4.391 -2.71601,-4.31117 0.143,0.0798 2.08562,1.03837 4.31694,2.13008 4.4909,2.19725 6.41626,3.54823 11.64701,8.17241 4.58388,4.05232 6.45756,5.36476 8.54309,5.9841 8.65694,2.57083 17.64591,-1.2073 23.3369,-9.80867 2.17633,-3.28931 4.09799,-7.57159 4.09799,-9.13208 0,-1.21543 -0.0733,-1.21705 -4.93889,-0.10946 -5.59321,1.27323 -9.36729,0.14005 -12.88748,-3.8695 -2.5742,-2.93205 -9.46312,-9.06661 -13.16104,-11.71986 -6.03513,-4.3302 -13.82568,-7.71089 -21.07021,-9.14336 -4.35034,-0.86021 -12.96036,-0.86765 -17.20888,-0.0149 -12.10956,2.43063 -25.82913,9.98303 -39.59615,21.79701 -5.23506,4.4924 -15.47185,14.73627 -19.87878,19.89254 -5.28209,6.18023 -14.48633,18.42188 -14.48633,19.26683 0,0.14718 1.38906,-0.2043 3.0868,-0.78106 7.56191,-2.56893 18.80159,-4.86554 27.42847,-5.60447 2.52236,-0.21605 5.56249,-0.47523 6.75584,-0.57596 l 2.16973,-0.18314 1.28976,-2.08958 c 1.8697,-3.02915 3.33364,-4.0354 5.87092,-4.0354 2.51923,0 3.49557,0.64661 5.43319,3.59829 l 1.41112,2.14962 2.99861,0.24589 c 8.33192,0.68322 25.07116,4.17835 33.33749,6.96081 6.22463,2.09522 12.28958,4.63086 16.22778,6.78452 2.89896,1.58534 3.35139,1.7709 3.35139,1.37458 z"
       id="path294" /></g></svg>
