<?xml version="1.0" encoding="UTF-8" standalone="no"?>
<!-- Created with Inkscape (http://www.inkscape.org/) -->

<svg
   width="197.97708mm"
   height="237.67542mm"
   viewBox="0 0 197.97709 237.67539"
   version="1.1"
   id="svg1"
   xml:space="preserve"
   xmlns="http://www.w3.org/2000/svg"
   xmlns:svg="http://www.w3.org/2000/svg"><defs
     id="defs1"><clipPath
       clipPathUnits="userSpaceOnUse"
       id="clipPath6"><path
         id="path7"
         style="fill:#ff0000;fill-opacity:1;fill-rule:nonzero;stroke:none;stroke-width:0.264583"
         d="M -175.07778,-16.057127 V 287.55793 H 124.54631 V -16.057127 Z m 132.7459,202.572647 c 0.210643,0.005 0.427212,0.0169 0.650089,0.0367 2.23823,0.19855 4.475655,0.4031 6.717938,0.55346 1.973313,0.11308 0.986628,0.0436 2.958475,0.20825 3.181295,0.26563 4.740125,1.85116 4.950601,3.46956 4.949923,1.63749 3.796379,7.35609 -2.592089,6.81354 -3.228716,-0.27422 -1.569593,-0.1301 -4.979024,-0.43357 -4.228209,-0.39317 -8.460616,-0.76265 -12.666927,-1.35341 -6.647387,-0.93358 -5.930551,-7.21034 0.03204,-7.20421 0.04685,5e-5 0.0972,0.004 0.144695,0.005 0.687229,-1.21692 2.304132,-2.15435 4.784204,-2.09548 z" /></clipPath><clipPath
       clipPathUnits="userSpaceOnUse"
       id="clipPath76"><path
         id="path77"
         style="fill:#ff0000;fill-opacity:1;fill-rule:nonzero;stroke:none;stroke-width:0.264583"
         d="M -133.83107,-122.52355 V 173.82063 H 122.97289 V -122.52355 Z M 13.574404,98.948202 c 2.788179,0.0507 4.135003,2.063798 3.398242,4.077268 0.199805,0.45372 0.374906,0.96736 0.517797,1.54461 1.07913,4.35948 0.671079,8.891 0.311608,13.31495 -0.351859,3.06036 -0.147137,1.57974 -0.604097,4.44366 -0.359666,2.25418 -1.333846,3.66838 -2.455664,4.32532 0.105138,0.36595 0.224724,0.72888 0.324528,1.09554 0.6273,2.23652 0.575201,4.47401 0.39429,6.75514 -0.137303,1.73129 -0.688065,2.99533 -1.427303,3.82199 -0.112477,0.41601 -0.170275,0.80219 -0.311092,1.25212 -0.184975,0.59102 -0.413327,1.1061 -0.670242,1.55856 0.741137,-0.23134 1.446982,-0.38145 2.064991,-0.37517 4.085002,0.0415 5.222724,4.75435 -0.02223,7.27138 -4.46677,2.14368 -9.303523,3.34693 -14.11903492,4.40955 -4.40876268,0.85156 -8.89238128,1.33053 -13.38264308,1.19269 -5.804014,-0.17807 -6.736297,-5.00293 -3.065447,-6.67298 -2.072987,-0.65744 -4.042852,-1.62261 -4.128947,-3.14709 -0.02802,-0.49633 0.0026,-0.90355 0.0341,-1.30897 -1.976731,-0.003 -3.95339,2.4e-4 -5.930386,0.003 -0.814031,0 -1.53062,-0.0962 -2.159559,-0.26149 -0.376306,0.19492 -0.742394,0.40783 -1.120862,0.59893 -6.391272,3.22657 -9.625245,-3.24074 -3.234428,-6.46886 1.833438,-0.92611 3.62694,-1.92211 5.414142,-2.92954 -0.877003,-3.87058 -1.368747,-7.83436 -1.323951,-11.80858 0.01651,-1.46304 0.376836,-2.54918 0.864547,-3.41426 -1.247357,-1.79999 -0.223805,-4.63069 3.842661,-5.68855 3.11826,-0.81116 6.282901,-1.39515 9.473837,-1.82211 -1.259816,-0.12657 -2.516182,-0.30233 -3.764627,-0.50177 -1.477002,-0.21985 -2.935575,-0.54305 -4.407482,-0.7891 -1.14214,-0.22954 -0.588502,-0.12004 -1.660882,-0.3297 -3.350244,-0.65501 -4.783278,-2.61088 -4.608504,-4.32997 -0.200179,-1.7721 1.333365,-3.52972 4.663799,-3.59461 v -5.3e-4 c 0.20954,-0.004 0.426035,-0.002 0.649571,0.008 1.77111,0.0772 3.528708,0.28204 5.26428,0.64027 1.655035,0.33225 3.314115,0.6481 4.955251,1.04439 1.244759,0.34858 2.51628,0.54538 3.7997689,0.6723 0.025956,0.002 0.052073,0.002 0.078034,0.004 0.4990888,-0.0371 0.9984105,-0.0743 1.4965495,-0.11317 1.346872,-0.12588 2.6913231,-0.25136 4.0457464,-0.24236 1.1278499,-0.0444 2.2567291,-0.10772 3.37498791,-0.26872 0.75719517,-0.11591 1.51142439,-0.25483 2.25722659,-0.4284 0.3616431,-0.12394 0.7240561,-0.24538 1.083138,-0.37775 0.3360393,-0.12388 0.6107589,-0.12825 0.9250071,-0.20723 0.1281086,-0.045 0.2583895,-0.0825 0.3855085,-0.13074 1.9825018,-0.7681 3.9540551,-1.56464 5.9510551,-2.29443 1.050809,-0.383992 1.999634,-0.542639 2.826703,-0.527616 z M 0.70283723,110.39557 c -0.45566013,0.0949 -0.90775367,0.208 -1.36890919,0.2744 -1.16638124,0.15534 -2.34111274,0.24237 -3.51761424,0.26251 0.4031694,0.0896 0.8047355,0.18876 1.2025101,0.308 0.1014836,0.0304 0.1982549,0.075 0.2986907,0.10852 0.4205235,-0.21824 0.9206601,-0.35072 1.4898318,-0.37156 0.39885139,-0.0146 0.83259872,0.0278 1.29449508,0.13023 0.22468681,-0.12213 0.44967525,-0.24374 0.67437529,-0.36587 -0.0326284,-0.11319 -0.058211,-0.22834 -0.0733795,-0.34623 z m 10.24433577,1.02474 c -0.76023,0.21437 -1.5189569,0.4343 -2.2696301,0.68006 -0.031261,0.62207 -0.2256075,1.28373 -0.6464723,1.94355 0.6236891,0.43248 1.2549743,1.04482 1.8634525,1.86862 0.2674939,0.36214 0.4748849,0.75712 0.7188199,1.13223 0.154519,-1.86707 0.314174,-3.74736 0.33383,-5.62446 z m 64.566086,3.39773 c 1.50346,0.0187 3.129182,1.24994 3.928441,4.04678 0.257931,0.90255 0.823497,1.65871 1.488797,2.30735 0.856321,0.95375 1.845738,1.76777 2.801898,2.61638 1.458581,1.46408 2.789203,3.04608 4.169772,4.58215 1.315059,1.44746 2.571226,2.91698 3.543967,4.61884 0.0053,0.01 0.0082,0.0206 0.01344,0.0305 0.734605,-0.43313 1.446276,-0.65634 2.094962,-0.69195 3.016182,-0.16561 4.69137,3.55377 1.187525,7.32306 -1.69471,1.82311 -3.657862,3.33908 -5.68751,4.7651 -0.777873,0.49914 -1.607691,0.90075 -2.418456,1.33842 0.165478,1.44344 -0.672182,3.24303 -2.956409,4.73096 -1.354556,0.88234 -2.690448,1.79306 -4.075203,2.6288 -2.075008,1.20078 -4.233777,2.27962 -6.540687,2.96259 -2.077586,0.62971 -4.169056,1.29987 -6.359301,1.36374 -1.872114,0.0897 -3.746989,0.0368 -5.620845,0.0501 h -5.1108 -5.524728 c -7.160125,0 -7.160125,-7.23315 0,-7.23315 h 1.347722 c 0.29438,-0.0541 0.5212,-0.1588 0.84801,-0.18656 1.106628,-0.094 2.200932,-0.28334 3.292822,-0.48421 0.456121,-0.98163 1.356053,-1.98213 2.807581,-2.83962 1.078018,-0.63685 2.158119,-1.26923 3.212209,-1.94561 1.962647,-1.29302 3.840588,-2.72135 5.893696,-3.86902 1.367169,-0.76424 2.559646,-1.07097 3.526915,-1.04128 2.216811,0.068 3.246223,1.90266 2.479953,4.04059 1.105688,-0.48686 2.206929,-0.98346 3.283003,-1.53739 2.619811,-1.23728 5.288743,-2.38548 7.764385,-3.9026 0.246153,-0.17184 0.487463,-0.34958 0.730705,-0.52503 -0.126915,-0.50614 -0.277693,-0.9939 -0.512114,-1.46554 -0.647621,-1.25778 -1.721077,-2.20654 -2.600875,-3.29644 -1.199229,-1.33472 -2.369312,-2.69496 -3.592029,-4.00803 -1.098706,-0.97599 -2.227236,-1.92181 -3.215306,-3.01428 -1.300821,-1.39063 -2.459913,-2.93896 -3.045293,-4.77801 -1.289469,-4.05101 0.646382,-6.61405 2.843754,-6.58667 z m -95.086705,4.28035 c -0.465643,0.10748 -0.930899,0.21773 -1.394745,0.33435 0.171958,0.64334 0.283575,1.36624 0.279569,2.2071 -0.01267,2.6582 0.205063,5.32647 0.670242,7.94732 0.280107,-0.17087 0.565767,-0.33222 0.845429,-0.50385 -0.01897,-0.36223 -0.02445,-0.73164 -0.05529,-1.08985 -0.118034,-2.96491 -0.160888,-5.93314 -0.3452,-8.89507 z m 18.5141159,1.1958 c 0.00497,0.0773 0.00619,0.15612 0.014975,0.23202 -0.1238779,0.22787 -0.2588048,0.44752 -0.3937741,0.66715 0.58900751,0.0447 1.13203305,0.21413 1.64331124,0.45888 -0.37615284,-0.49255 -0.78353709,-0.94642 -1.26452314,-1.35805 z m -6.5422357,14.57068 c -0.046649,0.0755 -0.09888,0.14702 -0.1436608,0.22376 -0.03147,0.054 0.1963367,0.0838 0.1860365,0.0222 -0.017595,-0.10481 -0.026035,-0.14905 -0.042376,-0.24597 z m 13.9236979,6.08439 c -0.2236258,0.5643 -0.5677508,1.09664 -1.1782213,1.50533 0.9079653,0.17659 1.7077452,0.44257 2.2830631,0.84852 0.1405493,-0.0459 0.272804,-0.11448 0.4128956,-0.16174 -0.7336976,-0.43656 -1.2984269,-1.18703 -1.5177374,-2.19211 z" /></clipPath><clipPath
       clipPathUnits="userSpaceOnUse"
       id="clipPath127"><path
         id="path128"
         style="fill:#ff0000;fill-opacity:1;fill-rule:nonzero;stroke:none;stroke-width:0.264583"
         d="M -112.24796,-126.55676 V 185.58027 H 148.5754 V -126.55676 Z M 46.874626,83.305366 c 1.808208,0 3.616317,1.790192 3.616317,5.370214 v 5.232238 c 0.0627,2.146078 -0.111291,4.285324 -0.245462,6.424932 -0.136289,2.02485 -0.190703,4.04985 -0.104904,6.07715 0.192061,1.91863 0.527714,3.82569 0.876432,5.72213 0.304242,2.00862 0.765826,3.9858 1.180806,5.97276 0.41642,1.86142 0.967934,3.68703 1.421104,5.53972 0.25287,0.86996 0.117097,0.46495 0.396356,1.22008 0.186108,0.50319 0.223428,0.93098 0.309544,1.38441 4.425355,2.23251 2.751262,7.58433 -3.415813,6.40477 -3.104732,-0.59371 -6.256094,-0.76586 -9.40821,-0.85576 -3.81635,0.009 -7.630525,0.17062 -11.44478,0.28216 -1.12776,0.0333 -2.255837,0.0512 -3.383772,0.0754 -0.908129,0.5548 -1.966518,0.57724 -2.88613,0.0641 -0.03584,5.3e-4 -0.07165,0.002 -0.107487,0.003 -0.03142,5.3e-4 -0.0525,-0.009 -0.08268,-0.009 -0.32049,0.14732 -0.641715,0.29301 -0.962215,0.44028 -0.262501,0.12062 -0.518089,0.22111 -0.770496,0.31265 -0.876996,0.71434 -1.945576,0.85817 -2.911967,0.46405 -2.943479,-0.21613 -4.295167,-2.77187 -2.550232,-5.0524 -2.22e-4,-0.028 -0.0078,-0.0483 -0.0078,-0.0765 v -6.3469 c -0.014,-2.72977 -0.02254,-5.45666 0.112657,-8.18348 0.135676,-2.32533 0.233519,-4.6523 0.299723,-6.98046 0.046,-1.80459 0.06926,-3.60958 0.08527,-5.41465 -0.0258,-1.02998 0.04009,-2.054459 0.138491,-3.078883 0.0044,-0.04602 0.02191,-0.07504 0.02687,-0.120406 C 15.992671,97.193438 15.83363,95.70984 16.656834,94.418959 10.68718,93.678613 10.992573,87.32947 17.739972,87.32947 h 3.885033 5.177462 5.913334 c 1.498505,0.05847 2.984222,-0.03228 4.475178,-0.161748 1.252041,-0.18606 2.49041,-0.398671 3.697968,-0.782897 1.001961,-0.32245 0.492366,-0.161472 1.527553,-0.482142 0.510384,-0.158096 0.938446,-0.174371 1.394749,-0.23771 0.672338,-1.56932 1.86623,-2.35903 3.063377,-2.35903 z" /></clipPath><clipPath
       clipPathUnits="userSpaceOnUse"
       id="clipPath139"><path
         id="path140"
         style="fill:#ff0000;fill-opacity:1;fill-rule:nonzero;stroke:none;stroke-width:0.264583"
         d="M 97.168006,-339.91235 V -44.578961 H 346.46958 V -339.91235 Z m 14.326254,94.53944 c 1.76488,0.006 3.77708,1.78446 4.35839,5.31699 0.32911,1.99994 0.60308,4.00817 0.88884,6.01462 1.02527,-1.2445 2.22305,-1.83589 3.28403,-1.8402 2.05627,-0.008 3.59454,2.17302 2.34611,6.00222 -0.0197,0.0606 -0.0413,0.12046 -0.0615,0.18087 0.31698,0.91799 0.41757,2.09982 0.17777,3.54139 -0.2164,1.30085 -0.62011,2.56457 -1.0263,3.8163 -1.34183,4.13496 -4.42238,4.92072 -6.12882,3.38016 -1.93867,0.62007 -4.30523,-0.86149 -4.65605,-4.82762 -0.16862,-1.90632 -0.33891,-3.81275 -0.57464,-5.71231 -0.45291,-3.52522 -1.07719,-7.02592 -1.48208,-10.55543 -0.40801,-3.55672 1.10935,-5.32303 2.87424,-5.31699 z" /></clipPath><clipPath
       clipPathUnits="userSpaceOnUse"
       id="clipPath170"><path
         id="path171"
         style="fill:#ff0000;fill-opacity:1;fill-rule:nonzero;stroke:none;stroke-width:0.264583"
         d="M 88.756261,-299.52331 V 17.880567 H 410.91541 V -299.52331 Z M 363.24287,-220.863 c 0.90345,-0.008 1.97628,0.23856 3.18532,0.82218 3.39402,1.63831 6.49674,3.81197 9.57823,5.96449 3.22509,2.31448 6.37511,4.73585 9.43663,7.26261 1.87296,1.50796 3.75989,2.99047 5.54284,4.6054 1.76167,1.54167 3.42262,3.17283 4.95419,4.94388 1.19316,1.48882 2.47049,2.9032 3.73311,4.33204 1.08043,1.20022 2.09423,2.45631 2.94299,3.83026 0.82616,1.73429 1.48968,3.55524 1.93786,5.42344 1.67031,6.96258 -5.76469,8.62686 -7.05745,1.5844 -0.21127,-1.15093 -0.75649,-2.20765 -1.10278,-3.32021 -0.52141,-1.02678 -1.43909,-1.82952 -2.14042,-2.72904 -1.28368,-1.45272 -2.58234,-2.89095 -3.79617,-4.40386 -1.32794,-1.55409 -2.79577,-2.95456 -4.33049,-4.3031 -1.69875,-1.54267 -3.51006,-2.94207 -5.29113,-4.38733 -2.90883,-2.40671 -5.90918,-4.70386 -8.97258,-6.91017 -2.63017,-1.83963 -5.2759,-3.68008 -8.12096,-5.17746 -5.14813,-2.7095 -4.41412,-7.50431 -0.49919,-7.53753 z m -17.79788,14.64304 c 0.81097,-0.004 1.74701,0.16947 2.79104,0.57154 4.59168,1.76834 8.99191,4.00303 13.38523,6.20892 0.37082,0.1876 0.72266,0.4088 1.09088,0.601 0.4155,-0.11565 0.91038,-0.17484 1.48572,-0.16691 0.65984,0.009 1.42523,0.10601 2.29753,0.30644 2.35556,0.54125 4.30075,1.95473 6.16344,3.42614 -1.07651,-2.72314 0.34142,-4.84679 2.57866,-4.84311 1.28683,0.002 2.83083,0.70484 4.29689,2.3952 2.44776,2.82227 4.79147,5.70892 6.96391,8.74934 1.67944,2.35043 1.72027,4.43615 0.89969,5.70663 1.5344,1.02281 3.07247,2.04019 4.58422,3.09645 1.80695,1.14136 3.31928,2.58833 4.72631,4.18269 0.96689,1.16625 2.0869,2.25988 2.79262,3.61942 0.19542,0.37651 0.34592,0.77482 0.51882,1.1622 0.40259,1.55462 0.27207,0.76263 0.38706,2.3766 0.0637,0.89436 -0.044,1.45412 -0.26977,1.7756 0.11753,0.20753 0.23421,0.41574 0.35608,0.62063 3.66003,6.15399 -2.6856,9.845 -6.25234,3.63648 -0.83209,-1.44832 -1.62388,-2.92102 -2.35437,-4.42351 -0.84839,-1.84687 -1.70402,-3.69055 -2.54093,-5.54229 -0.078,-0.17246 -0.14713,-0.34128 -0.2119,-0.5085 -0.415,-0.33988 -0.82071,-0.68775 -1.29707,-0.97255 -2.35545,-1.64933 -4.79565,-3.17384 -7.14841,-4.82761 -3.27895,-2.27743 -6.61384,-4.47194 -9.95804,-6.65231 -4.00886,-2.60003 -8.08797,-5.09434 -12.3548,-7.25434 -4.08429,-2.05175 -8.1752,-4.1242 -12.42663,-5.81101 -5.61546,-2.22804 -4.88331,-7.4129 -0.50384,-7.43314 z m -225.34594,21.50101 c 3.05551,-0.16929 4.03285,3.80875 0.35915,7.72563 -1.17612,1.25397 -2.32696,2.59265 -3.45922,3.90674 -1.44062,1.57315 -2.77631,3.23874 -4.13618,4.88135 -1.14319,1.4697 -2.29319,2.93265 -3.46335,4.38113 -0.8717,1.2084 -1.86054,2.32105 -2.81017,3.46594 -0.80685,0.95022 -1.53489,1.96075 -2.32234,2.92695 -0.80594,1.00684 -1.52017,2.08004 -2.22519,3.15847 -0.20511,0.28103 -0.29499,0.51935 -0.30179,0.78909 -0.18033,7.15787 -8.659963,5.5717 -7.093102,-1.4149 0.267098,-1.19094 0.644303,-2.32859 1.347721,-3.34243 0.846108,-1.28566 1.701136,-2.56663 2.670121,-3.76463 0.806525,-0.98525 1.5446,-2.0236 2.37453,-2.98999 0.93132,-1.109 1.88214,-2.2008 2.7342,-3.37448 1.18855,-1.47082 2.35327,-2.95822 3.51813,-4.44779 1.39067,-1.67946 2.758,-3.38112 4.2292,-4.99142 1.55862,-1.80675 3.07205,-3.68494 4.92528,-5.20227 1.38505,-1.13397 2.63451,-1.65096 3.65301,-1.70739 z m 30.4953,3.26389 c 4.11093,0.0973 5.25218,4.81763 -0.0434,7.22591 -1.93926,0.8819 -3.80509,1.88928 -5.66115,2.92437 0.381,1.39299 -0.23993,3.26566 -2.43035,4.98678 -2.3369,1.83618 -4.71607,3.61825 -7.08845,5.40845 -2.84267,2.19936 -5.66068,4.43162 -8.41086,6.74584 -2.22216,1.84972 -4.46469,3.67225 -6.66213,5.55109 -1.67979,1.46598 -3.37138,2.91821 -5.06067,4.37337 -1.40892,1.30469 -2.82191,2.592 -4.12274,4.00648 -1.07181,1.16531 -2.16701,1.83049 -3.17087,2.10529 -0.88357,6.53411 -7.65001,5.87099 -7.10344,-1.07177 0.0596,-0.75732 0.12015,-1.51435 0.21239,-2.26859 0.18237,-1.4495 0.31176,-2.90657 0.57051,-4.34444 0.56059,-2.2771 1.55106,-4.35314 3.32124,-5.95312 1.46716,-1.38711 2.94871,-2.75912 4.4943,-4.05919 1.45063,-1.21601 2.91967,-2.40825 4.4111,-3.57394 2.2284,-1.75259 4.48249,-3.46927 6.81044,-5.08961 3.1083,-2.16601 6.29001,-4.21936 9.5343,-6.17689 3.28252,-2.04598 6.49796,-4.19789 9.78648,-6.23476 2.38673,-1.38679 4.82146,-2.65715 7.33495,-3.79873 1.22236,-0.55516 2.32966,-0.77899 3.27836,-0.75654 z" /></clipPath><clipPath
       clipPathUnits="userSpaceOnUse"
       id="clipPath233"><path
         id="path234"
         style="fill:#ff0000;fill-opacity:1;fill-rule:nonzero;stroke:none;stroke-width:0.264583"
         d="M 185.24069,-319.24193 V -24.289387 H 425.09684 V -319.24193 Z m 138.35487,149.6534 c 1.78419,7.9e-4 3.63037,1.79012 3.80182,5.36608 0.0643,1.33996 -0.0719,2.65433 -0.29041,3.95842 0.27255,-0.0735 0.56767,-0.11689 0.88522,-0.12351 0.37047,-0.008 0.77026,0.0328 1.19579,0.12867 0.38629,-0.24279 0.8215,-0.42195 1.34254,-0.44493 1.13073,-0.0499 2.53823,0.47335 4.04474,1.80971 0.4186,0.37135 0.80759,0.77178 1.2056,1.16323 0.49581,-0.30652 1.09744,-0.47283 1.77559,-0.44028 1.18851,0.0571 2.59295,0.69888 3.98788,2.15129 2.63375,2.74227 4.82211,5.85047 6.92256,9.00669 2.43144,3.88376 4.79634,7.81591 6.98098,11.84475 1.13959,2.01485 2.36363,3.97199 3.24527,6.11746 0.86638,2.54168 0.71525,4.37292 -0.15348,6.88278 -0.88855,2.03627 -2.18951,3.83746 -3.64937,5.49682 -1.22616,1.21887 -2.44396,2.51198 -3.976,3.35587 -0.38219,0.21053 -0.79187,0.3659 -1.18803,0.54881 -6.50071,3.00135 -9.83602,-5.23462 -2.81948,-6.6611 1.07346,-0.21823 1.75532,-1.41088 2.56987,-2.0407 0.86323,-0.96375 1.62015,-2.00233 2.25208,-3.13417 0.24334,-0.63932 0.47847,-1.05078 0.24958,-1.76114 -0.42873,-1.13152 -1.03555,-2.17502 -1.65674,-3.21169 -0.64492,3.08426 -3.96214,3.78517 -6.03631,0.97152 -0.80928,1.85722 -3.53859,2.62684 -6.75775,0.30902 -0.53872,-0.38787 -1.07831,-0.77486 -1.61745,-1.1622 -3.08248,4.62545 -3.94671,5.04673 -6.74584,2.87063 -2.73204,-2.16473 -5.33615,-4.48821 -8.05999,-6.6642 -2.7461,-2.45053 -5.40757,-5.07957 -7.04763,-8.42635 -1.62115,-0.12575 -3.24178,-0.2569 -4.86637,-0.34314 -7.58719,-0.44787 -15.17743,-0.9445 -22.76553,-1.33377 -1.07801,-0.0553 -1.93227,-0.3045 -2.68459,-0.62166 -0.57677,0.62929 -1.1192,1.29485 -1.64021,1.97352 -1.38696,2.1585 -2.2854,4.54313 -3.09181,6.96185 -0.53658,1.90527 -0.93866,3.84574 -1.3658,5.77949 0.3976,-0.38181 0.79402,-0.76498 1.19114,-1.14825 1.44902,-1.39846 2.84121,-1.97983 3.98373,-1.97766 2.91995,0.006 4.20899,3.82009 0.64648,7.53391 -0.92629,0.96557 -1.9114,1.86859 -2.9099,2.75797 -1.78302,1.58814 -3.50499,2.03887 -4.81263,1.76372 -0.007,0.0412 -0.0189,0.0812 -0.0253,0.12247 -0.31138,2.1774 -0.34632,4.38158 -0.39739,6.57686 0.006,3.5147 -0.15426,7.02208 -0.44287,10.52391 -0.15049,2.45352 -0.52882,4.882887 -0.77928,7.326166 -0.25682,2.270699 -0.2357,4.548968 -0.1633,6.828007 0.0525,1.43787 0.0261,0.723201 0.0775,2.145088 7.9e-4,0.02175 -0.006,0.03573 -0.006,0.05736 0.13966,0.0486 0.27673,0.09115 0.42013,0.148309 3.73047,1.486969 7.59999,2.598727 11.41894,3.833876 4.85884,1.705695 9.66861,3.546912 14.50144,5.32474 1.9552,0.651698 3.84707,1.443672 5.71489,2.292366 2.6308,-0.638411 5.26049,-1.281708 7.89771,-1.893425 4.5737,-1.075436 2.35597,-0.547624 6.65438,-1.580782 0.65268,-0.156879 1.2592,-0.237268 1.81642,-0.252698 3.40876,-0.09437 4.96226,2.238663 4.05712,4.350639 3.89832,1.612736 3.00805,6.568553 -2.90269,6.729304 l -2.19726,0.05943 c 0.0932,0.05532 0.18872,0.106439 0.28112,0.163298 6.09814,3.752323 2.1299,10.065517 -3.84782,6.124173 -1.04591,-0.689594 -2.23735,-1.127543 -3.31556,-1.763197 -2.61015,-1.251701 -5.22853,-2.484003 -7.87136,-3.665926 -0.34703,-0.170111 -0.69536,-0.335955 -1.04283,-0.504362 -1.04394,0.228952 -2.09238,0.441277 -3.15071,0.537951 -0.41145,0.100483 -0.82417,0.195434 -1.23558,0.296105 -3.95687,0.968251 -6.08679,-0.907356 -5.97897,-3.010669 -0.31188,-0.687727 -0.239,-1.395294 0.0263,-2.059305 -3.87146,-1.438614 -7.73769,-2.891312 -11.63237,-4.265891 -3.97417,-1.285444 -7.99945,-2.446282 -11.87938,-4.000272 -1.44639,-0.579335 -2.44377,-1.350957 -3.06182,-2.17506 -1.01218,-0.798706 -1.81304,-2.231819 -1.89446,-4.484998 -0.0517,-1.431189 -0.0254,-0.705106 -0.0791,-2.177645 -0.0816,-2.602558 -0.0903,-5.205841 0.19844,-7.79849 0.24823,-2.394268 0.6146,-4.775082 0.76533,-7.179412 0.27808,-3.36008 0.42763,-6.72542 0.42064,-10.09809 0.0594,-2.5132 0.11189,-5.03614 0.48266,-7.52719 0.38072,-2.41928 0.90466,-4.80615 1.46451,-7.18974 0.6701,-2.94551 1.25825,-5.91529 2.11305,-8.81393 1.0668,-3.18776 2.31041,-6.31647 4.23489,-9.10074 0.42128,-0.53977 0.8547,-1.07136 1.29914,-1.59215 -1.52816,-0.60355 -3.06641,-1.18197 -4.57646,-1.83141 -1.09038,3.76762 -2.19021,7.53001 -3.40755,11.25926 -1.05961,2.97655 -0.54118,1.54568 -1.55081,4.2938 -1.83358,4.9908 -6.03644,4.88509 -7.07398,1.75544 -2.82634,3.52841 -7.50378,1.0111 -5.57744,-4.75268 1.05408,-3.1537 2.2385,-6.34595 4.49688,-8.85837 1.49582,-1.66408 2.97572,-2.34765 4.17287,-2.32647 0.33252,0.006 0.64298,0.0664 0.92604,0.17518 0.46945,-1.58214 0.96416,-3.15651 1.43919,-4.7377 0.70062,-2.33196 1.93737,-3.52641 3.18689,-3.8871 0.54142,-0.34307 1.25019,-0.55529 2.11615,-0.57361 h 5.3e-4 c 0.8057,-0.017 1.74503,0.13149 2.80396,0.49248 0.31645,0.10788 0.63769,0.20324 0.94929,0.32401 1.83624,0.71133 3.60046,1.59642 5.43016,2.32544 1.18096,0.47048 2.26953,0.84228 3.35329,1.23145 0.62902,-0.20883 1.22424,-0.32846 1.76785,-0.35037 2.28614,-0.0921 3.73455,1.32842 3.67523,3.07682 1.73917,0.0925 3.47854,0.18832 5.21777,0.2899 -0.1345,-1.7899 1.43141,-3.54652 4.54959,-3.56619 0.39587,-0.002 0.816,0.0231 1.25987,0.0801 3.99155,0.51285 7.97638,1.04608 11.94346,1.72703 0.35092,0.0747 0.7018,0.14913 1.05265,0.22376 0.92028,-2.09088 2.0607,-3.80586 3.79408,-5.38675 0.9172,-0.8245 1.6747,-1.80494 2.07378,-2.98587 0.46483,-1.35061 0.4893,-2.77914 0.4594,-4.19561 h 5.3e-4 c -0.0754,-3.57927 1.64663,-5.36691 3.4308,-5.36608 z m 1.97559,14.00741 c -0.78838,1.39934 -1.79816,2.66075 -2.96984,3.79512 -1.06213,0.94584 -1.80404,2.02586 -2.28153,3.3538 -0.003,0.012 -0.005,0.0237 -0.009,0.0357 1.15411,0.11311 2.30814,0.22665 3.4613,0.3514 3.99042,0.43171 5.40747,2.84663 4.69323,4.76353 0.67585,0.41545 1.35041,0.83313 2.01954,1.25626 3.82278,2.5036 7.53266,5.1715 11.24013,7.84086 -1.81731,-3.68096 -3.93583,-7.19476 -6.36087,-10.5146 -1.10355,-1.48555 -2.20805,-3.00054 -3.36206,-4.44883 -0.35653,-0.44747 -1.7607,-2.16704 -2.34455,-2.70784 -0.36042,-0.33384 -0.93237,-0.68033 -1.36375,-0.9555 -1.33122,-0.84918 -2.21667,-1.81673 -2.72282,-2.76986 z" /></clipPath><clipPath
       clipPathUnits="userSpaceOnUse"
       id="clipPath240"><path
         id="path241"
         style="fill:#ff0000;fill-opacity:1;fill-rule:nonzero;stroke:none;stroke-width:0.264583"
         d="M 92.804184,-309.23338 V -41.629034 H 294.29938 V -309.23338 Z m 130.496946,63.74443 c 0.93337,0.009 2.02072,0.27397 3.21944,0.8785 1.75312,0.88412 3.43212,1.89553 5.06326,2.98586 5.9527,3.97906 1.8926,10.01797 -4.03542,6.00222 -1.36849,-0.92705 -2.78857,-1.76849 -4.26227,-2.51871 -5.18448,-2.63926 -4.02961,-7.38891 0.015,-7.34787 z m -85.24544,1.99626 c 3.36772,-0.0906 4.87054,3.93317 0.67437,7.28431 -0.81214,0.6486 -0.42273,0.34746 -1.1653,0.9064 -1.7275,1.42217 -3.47209,2.82263 -5.29477,4.12275 -2.09112,1.47372 -4.25636,2.82668 -6.45645,4.13153 -6.15846,3.65253 -10.39165,-1.95967 -4.33979,-5.78621 2.21999,-1.40367 4.47897,-2.73503 6.6244,-4.25349 1.67688,-1.19734 3.27994,-2.48915 4.86947,-3.79821 0.91499,-0.69918 0.50268,-0.37435 1.24076,-0.9679 1.39493,-1.12177 2.72473,-1.60899 3.84731,-1.63918 z" /></clipPath><clipPath
       clipPathUnits="userSpaceOnUse"
       id="clipPath251"><path
         id="path252"
         style="fill:#ff0000;fill-opacity:1;fill-rule:nonzero;stroke:none;stroke-width:0.264583"
         d="m 50.06164,-325.07443 v 245.270816 h 202.0347 V -325.07443 Z m 191.06172,72.239 c 1.42195,-0.0396 3.11835,0.92332 4.44418,3.2582 0.80855,1.42391 1.33311,2.97097 1.71979,4.55476 0.38267,1.85761 0.50306,3.75527 0.49506,5.64772 0.007,1.66837 -0.28067,3.30966 -0.52503,4.95318 -0.26767,2.07853 -1.32063,3.82386 -2.54249,5.47306 -0.98598,1.19805 -2.03839,2.33999 -3.16208,3.40961 -0.37488,0.32054 -0.76867,0.61405 -1.09502,0.98443 -4.73356,5.37222 -10.25077,0.0313 -5.19193,-5.03587 0.41783,-0.41852 0.82603,-0.84961 1.30896,-1.19579 0.83199,-0.78568 1.60086,-1.63171 2.34973,-2.49649 0.52191,-0.686 1.06794,-1.32103 1.17874,-2.204 0.19629,-1.31742 0.44949,-2.62948 0.44648,-3.9672 0.0288,-1.3072 -0.0809,-2.61845 -0.30179,-3.90725 -0.20137,-0.91522 -0.51051,-1.80281 -0.96014,-2.62775 -2.14172,-3.92928 -0.53435,-6.78057 1.83554,-6.84661 z m -24.00732,134.01508 c 1.58088,-0.0452 3.27238,1.29937 3.90106,4.36821 0.19779,0.96552 0.49313,1.88927 0.87385,2.79466 0.57738,1.31117 0.86222,2.69631 0.9741,4.11603 0.0779,1.63421 -0.38657,3.16522 -1.00976,4.65191 -0.60784,1.37091 -1.55916,2.5173 -2.50579,3.660755 -0.2566,0.333243 -0.50348,0.67224 -0.76223,1.002525 -0.0721,0.651052 -0.19323,1.300012 -0.35502,1.949752 l -0.4842,1.22783 c -0.70346,1.782932 -1.87803,2.754204 -3.12126,3.127457 -0.38818,0.593834 -0.73665,1.213207 -1.1529,1.788007 -0.78123,1.206815 -1.75001,2.262322 -2.80138,3.23546 -1.04259,0.90742 -2.26203,1.551003 -3.47214,2.198833 -0.81145,0.41652 -1.66264,0.737227 -2.52439,1.030428 -6.77856,2.306214 -9.10653,-4.670343 -2.28979,-6.86108 0.48258,-0.155091 0.95367,-0.335381 1.41232,-0.552421 0.68902,-0.364839 1.38726,-0.713642 2.01745,-1.175639 0.71797,-0.616461 1.30017,-1.358352 1.82004,-2.146123 0.66383,-0.892056 1.26802,-1.828112 1.8216,-2.792076 0.59882,-1.12436 1.07283,-2.316203 1.82056,-3.358968 0.0117,-0.0166 0.0249,-0.032 0.0367,-0.0486 -0.84786,-3.67928 0.87949,-5.67892 2.87217,-5.69422 0.38363,-0.003 0.77643,0.0723 1.16324,0.21859 0.15519,-0.3579 0.298,-0.71847 0.29042,-1.1188 -0.0398,-0.54898 -0.18359,-1.13581 -0.4191,-1.66191 -0.48947,-1.16893 -0.89792,-2.36312 -1.1591,-3.60547 -0.82863,-3.94139 1.021,-6.29698 3.05356,-6.35516 z" /></clipPath><clipPath
       clipPathUnits="userSpaceOnUse"
       id="clipPath278"><path
         id="path279"
         style="fill:#ff0000;fill-opacity:1;fill-rule:nonzero;stroke:none;stroke-width:0.264583"
         d="m -43.212488,-382.05292 v 250.81001 H 185.4025 v -250.81001 z m 181.494868,132.88233 c 1.13528,0.005 2.03811,0.42617 2.60707,1.09037 0.91934,-0.34123 1.78192,-0.54125 2.52078,-0.52658 4.05205,0.0805 5.08945,4.87108 -0.18087,7.33443 -2.21042,1.03317 -4.41856,2.08163 -6.72362,2.89285 -2.86091,0.99315 -5.74924,1.921 -8.52506,3.13986 -6.55592,2.87873 -9.40434,-3.76713 -2.84944,-6.64817 1.1011,-0.48395 2.22936,-0.89759 3.35587,-1.31568 0.52294,-1.00077 1.47788,-2.01475 2.95124,-2.87476 1.0894,-0.6359 2.16914,-1.287 3.24683,-1.94252 1.33817,-0.81396 2.56345,-1.15421 3.5972,-1.1498 z m -133.0900695,2.4753 h 5.5981075 c 7.160125,0 7.160125,7.23263 0,7.23263 H 5.1923105 c -7.1601277,0 -7.1601277,-7.23263 0,-7.23263 z m 42.9880715,50.84496 c 2.044401,-0.008 3.844292,2.25841 2.953308,6.18618 -0.283588,1.25017 -0.481169,2.51568 -0.75189,3.76877 -0.313965,1.46608 -0.73946,2.91235 -1.207162,4.33668 -2.233805,6.80278 -9.211228,4.46329 -6.857981,-2.29908 0.404762,-1.16313 0.726765,-2.36525 0.995807,-3.56619 0.287499,-1.32813 0.484814,-2.67249 0.804084,-3.99407 0.735603,-3.04497 2.473746,-4.42641 4.063834,-4.43229 z m 26.844358,9.60148 c 1.5451,0.0844 3.630816,1.85281 5.237924,5.05189 1.446292,2.8789 3.498345,5.40261 5.377447,8.00674 1.423178,1.86933 2.496352,3.93269 3.488161,6.04873 3.038795,6.48323 -3.64554,9.55837 -6.57066,3.02307 -0.764304,-1.70766 -1.644017,-3.34338 -2.782776,-4.84001 -2.279812,-3.15977 -5.466628,-6.83969 -6.494177,-10.63656 -0.141171,-0.52168 -0.167447,-1.06805 -0.251148,-1.60197 -0.554762,-3.53682 0.450099,-5.13633 1.995229,-5.05189 z m 22.433772,2.07998 v 5.3e-4 c 1.081786,0.0173 2.458693,0.64291 3.986318,2.0805 1.21595,1.14421 2.08888,2.57763 3.1502,3.85661 0.75663,0.91352 1.6619,1.66584 2.53163,2.46393 1.1475,0.93011 2.05703,2.06162 2.85305,3.29799 0.95863,1.59903 1.44035,3.34615 0.97049,5.20227 -0.10236,0.40431 -0.31771,0.77135 -0.47646,1.15703 -1.02548,2.49132 -2.04203,1.65641 -2.97036,0.0238 -2.04159,1.70549 -5.47708,1.09344 -5.78105,-3.28558 -0.003,-0.0322 -0.0142,-0.0648 -0.007,-0.0966 0.005,-0.03 0.0986,-0.0136 0.0827,-0.0393 -0.23736,-0.38486 -0.69492,-0.61714 -1.02216,-0.90227 -1.100378,-0.77725 -2.267905,-1.45106 -3.395141,-2.18798 -3.582773,-2.34245 -3.744537,-5.4822 -2.015898,-6.82284 -0.840523,-2.68156 0.04882,-4.63231 1.88154,-4.74287 0.06945,-0.004 0.140271,-0.006 0.212389,-0.005 z" /></clipPath><clipPath
       clipPathUnits="userSpaceOnUse"
       id="clipPath292"><path
         id="path293"
         style="fill:#ff0000;fill-opacity:1;fill-rule:nonzero;stroke:none;stroke-width:0.264583"
         d="M 39.169506,-337.89832 V -50.969072 H 288.46282 V -337.89832 Z m 15.676046,82.89261 c 1.714024,0.0204 3.54041,1.61061 3.978568,4.9382 0.120111,0.91222 0.106387,1.83456 0.107487,2.75229 0.0087,7.16012 -7.246413,7.15857 -7.232633,-0.002 0.0013,-0.65071 0.02757,-1.30512 -0.06356,-1.95182 -0.530767,-3.76661 1.267578,-5.76019 3.21014,-5.73712 z m 197.013298,6.80941 c 1.32993,-0.0899 2.96772,0.82319 4.38423,3.1042 1.07429,1.72993 1.55184,3.70118 1.89652,5.68338 0.39598,2.58761 0.42018,5.20011 0.26717,7.80675 -0.16631,2.61527 -0.75971,5.14416 -1.52187,7.63985 -0.4978,1.90614 -1.23662,3.72608 -2.0159,5.52989 -0.76243,1.81488 -1.37928,3.68664 -2.00143,5.55315 -0.64972,1.87676 -1.26002,3.76819 -2.01124,5.60741 -0.95415,2.1244 -1.9321,4.237 -2.90784,6.35155 -0.93622,2.10591 -1.93956,4.18102 -3.03444,6.20893 -0.74336,1.47932 -1.63431,2.88203 -2.64686,4.19044 -0.85071,1.10794 -1.91984,2.00805 -2.89078,3.00343 -1.04445,1.12516 -2.20219,2.13025 -3.34605,3.1502 -1.2349,1.05182 -2.56579,1.98944 -3.91811,2.88354 -1.93444,1.28303 -4.12655,2.08437 -6.28747,2.89285 -2.75914,1.06536 -5.6224,1.79172 -8.50439,2.42982 -2.00852,0.48359 -4.02259,0.93996 -6.05234,1.32499 -1.0898,0.20672 -1.99053,0.15992 -2.79725,0.0139 -0.75827,0.17949 -1.51301,0.3744 -2.26653,0.57309 -1.4977,0.44017 -2.97995,0.92699 -4.46019,1.42214 -1.58834,0.5581 -3.19109,1.04834 -4.83381,1.42213 -2.05853,0.5373 -4.13223,0.98734 -6.23425,1.31724 -1.89057,0.38525 -3.79586,0.65788 -5.71696,0.82837 -1.92552,0.0766 -3.83858,0.29911 -5.75676,0.47025 -1.71912,0.15432 -3.44381,0.22701 -5.16867,0.27441 -2.44184,-0.0118 -4.87127,-0.25567 -7.30085,-0.47078 -2.85973,-0.19225 -5.71909,-0.39592 -8.57157,-0.67799 -2.83995,-0.26841 -5.65359,-0.74864 -8.47907,-1.13016 -2.66463,-0.21934 -5.29981,-0.64608 -7.94267,-1.03457 -2.11987,-0.30404 -4.25541,-0.45909 -6.38152,-0.71055 -1.8808,-0.17534 -3.75496,-0.4017 -5.63118,-0.61856 -1.91243,-0.21286 -3.83573,-0.28885 -5.75779,-0.34985 -2.23949,-0.16259 -4.48445,-0.27106 -6.71949,-0.48783 -2.21917,-0.20648 -4.40762,-0.67897 -6.54068,-1.31516 -2.57048,-0.65769 -4.88262,-1.9917 -7.25382,-3.13883 -1.91366,-0.89121 -3.846978,-1.74009 -5.755724,-2.6417 -1.929913,-0.93683 -3.722034,-2.11514 -5.521108,-3.27525 -1.492637,-0.90475 -0.734285,-0.44535 -2.275314,-1.37821 -6.125257,-3.70793 -2.379728,-9.89571 3.745508,-6.18774 1.606161,0.9723 0.789586,0.47683 2.449462,1.48725 1.534261,0.98943 3.055983,2.00536 4.695836,2.81636 1.92633,0.91375 3.8825,1.76312 5.81257,2.66909 2.03397,0.98503 4.0062,2.16157 6.20944,2.72955 1.67042,0.52508 3.40555,0.86136 5.14697,1.03715 2.07333,0.21111 4.15957,0.28906 6.23683,0.4563 2.12341,0.0679 4.24789,0.15641 6.36033,0.39429 1.88182,0.21873 3.76122,0.44337 5.64772,0.62012 2.19401,0.25968 4.39889,0.41632 6.58565,0.73794 2.61501,0.3856 5.2221,0.80551 7.85895,1.02267 2.74095,0.37156 5.47017,0.83558 8.22482,1.1002 2.82609,0.28319 5.66087,0.47505 8.49405,0.67076 2.15225,0.19062 4.3024,0.40925 6.46472,0.44545 1.57684,-0.0428 3.1537,-0.10777 4.7253,-0.24857 1.92194,-0.17061 3.8389,-0.3955 5.76812,-0.4718 1.7606,-0.15093 3.50197,-0.42258 5.23482,-0.76946 1.94524,-0.29972 3.85736,-0.73584 5.76244,-1.22784 1.40538,-0.30937 2.76609,-0.74989 4.12327,-1.22421 1.62869,-0.54468 3.26081,-1.07909 4.91081,-1.5565 1.77362,-0.46766 3.552,-0.92735 5.36814,-1.20147 1.70238,-0.33298 3.38762,-0.74982 5.05034,-1.24437 1.8768,-0.51034 3.73395,-1.11665 5.54695,-1.81953 1.67544,-0.67931 3.31988,-1.45879 4.78886,-2.52439 1.0657,-0.84543 2.16725,-1.64342 3.15019,-2.58951 1.28809,-1.21508 2.58622,-2.41928 3.84008,-3.67058 0.85194,-0.84614 1.68746,-1.65828 2.24585,-2.7404 0.63482,-0.99725 1.29901,-1.9775 1.85674,-3.02152 0.55263,-0.92785 1.06197,-1.877 1.53479,-2.8484 0.43455,-0.81257 0.86675,-1.63643 1.16427,-2.50993 0.39723,-1.087 0.65435,-2.21493 0.97203,-3.32641 0.29574,-1.24569 0.60338,-2.49273 1.07901,-3.68453 0.39957,-1.05638 0.68712,-2.15558 1.05006,-3.22512 0.22713,-0.94997 0.37986,-1.92387 0.55966,-2.88303 0.22526,-1.23853 0.53664,-2.45701 1.02371,-3.62149 0.47591,-1.31864 1.08044,-2.58627 1.7048,-3.84007 0.34111,-0.58794 0.67316,-1.19257 0.96067,-1.80041 0.32682,-0.71346 -0.0659,-2.40019 0.0822,-3.22151 v -4.23178 c 0,-3.58007 1.80812,-5.37022 3.61632,-5.37022 0.15156,0 0.30168,0.0312 0.45217,0.0563 -0.0649,-0.17178 -0.10183,-0.35173 -0.18242,-0.51883 -1.94402,-4.03078 -0.58254,-6.96655 1.63401,-7.11636 z" /></clipPath></defs><g
     id="layer1"
     transform="translate(-30.2419,343.0196)"><path
       style="fill:#000000"
       d="m 131.43268,-105.73238 c -7.0039,-1.61758 -12.00169,-5.30835 -17.47484,-12.90481 -6.0517,-8.39946 -10.04697,-17.03117 -12.13354,-26.21434 -0.20293,-0.89311 -0.35285,-0.98 -1.52158,-0.88194 l -1.296472,0.10878 -0.61232,4.09777 c -2.29936,15.388 -7.88733,24.0792 -17.58485,27.35049 -3.01652,1.01756 -10.32315,0.9262 -13.40556,-0.16763 -7.39881,-2.62557 -12.60651,-8.50448 -14.30794,-16.15208 -0.71556,-3.21629 -0.56452,-8.56689 0.3673,-13.01188 0.69481,-3.31435 2.83918,-10.05068 4.54201,-14.26824 l 1.2029,-2.97936 -1.34897,-2.66509 c -0.74194,-1.4658 -1.53737,-3.69696 -1.76763,-4.95814 -0.23026,-1.26118 -0.47147,-2.48763 -0.53602,-2.72544 -0.0841,-0.30996 -1.19514,-0.42325 -3.92408,-0.40014 -4.38853,0.0372 -6.38049,-0.35228 -9.27454,-1.81318 -6.04886,-3.05346 -9.40612,-10.34173 -7.96322,-17.28735 0.80629,-3.88118 2.35621,-6.73237 5.38055,-9.89791 5.13086,-5.37042 13.5608,-10.07785 24.61561,-13.74579 2.43317,-0.80732 4.50205,-1.59422 4.5975,-1.74866 0.0954,-0.15445 -1.65737,-1.08668 -3.89515,-2.07162 -5.36181,-2.35997 -9.51223,-5.10773 -13.33619,-8.82915 -6.52319,-6.34827 -10.23196,-12.77181 -11.8573,-20.5367 -0.3701,-1.7681 -0.72253,-3.25032 -0.78317,-3.29382 -4.04289,-2.89998 -6.51776,-6.61814 -7.86449,-11.81534 -1.47775,-5.70279 -1.31823,-13.81144 0.38825,-19.73641 2.48,-8.61062 7.91948,-15.53509 13.92309,-17.72412 1.79274,-0.65366 2.23021,-0.97648 2.54009,-1.87437 0.87801,-2.54416 4.64271,-9.43902 6.75616,-12.3736 5.16096,-7.16611 12.05896,-13.37676 20.84747,-18.7701 4.92923,-3.02496 15.07732,-6.86658 21.70489,-8.21651 8.725622,-1.77726 21.337522,-2.28434 31.023432,-1.24734 10.30835,1.10364 24.00876,3.87447 32.63194,6.59962 2.52237,0.79713 5.24573,1.65288 6.05192,1.90168 l 1.4658,0.45235 1.27472,-2.06521 c 2.71769,-4.40301 7.42323,-6.59338 12.09372,-5.62948 2.68343,0.55381 4.4286,1.47099 6.23154,3.27499 3.05765,3.05944 4.12225,7.37442 2.76864,11.22165 l -0.69859,1.98555 3.04501,1.96452 c 12.31306,7.94387 22.41265,20.52406 26.48728,32.99292 1.84843,5.65639 2.25788,8.44164 2.2923,15.59313 l 0.0315,6.54388 1.28659,1.57011 c 1.54845,1.88969 2.78669,4.30212 3.79346,7.39073 3.96123,12.15248 -4.03506,32.17767 -15.05982,37.71442 -3.32403,1.66936 -7.95626,2.19076 -11.20018,1.2607 -0.55854,-0.16014 -1.02703,0.24013 -2.24841,1.92103 -2.11362,2.9088 -7.42988,7.9798 -10.62798,10.13767 -6.92115,4.66993 -14.99591,7.43407 -22.21534,7.60472 -1.75156,0.0414 -3.18466,0.16548 -3.18466,0.27572 0,0.11024 1.90297,1.82839 4.22881,3.81812 6.11881,5.23457 9.46657,9.26938 11.84304,14.27356 2.14397,4.51459 2.71478,8.86767 1.75605,13.39185 -1.41012,6.65418 -6.2378,12.13344 -12.53623,14.22818 -3.09981,1.03095 -8.28009,0.90006 -11.70724,-0.2958 -2.86325,-0.9991 -5.53785,-2.58097 -7.86807,-4.65353 -0.77399,-0.6884 -1.48836,-1.24849 -1.5875,-1.24464 -0.0991,0.004 -0.65227,0.802 -1.22919,1.77367 -0.57693,0.97168 -1.88685,2.60458 -2.91096,3.62869 l -1.862,1.862 2.51317,2.62612 c 11.97951,12.51793 15.42453,19.5499 13.67852,27.92056 -1.49525,7.16843 -7.43058,13.65747 -14.79187,16.1718 -2.87027,0.98038 -7.77911,1.22827 -10.74736,0.54274 z m 7.34015,-7.08104 c 4.532,-1.18044 8.41939,-4.25068 10.34348,-8.16924 0.89009,-1.81274 1.01359,-2.4542 1.01359,-5.26466 0,-3.05486 -0.0681,-3.33798 -1.4983,-6.22531 -1.46077,-2.94911 -5.53485,-8.45519 -6.54222,-8.84176 -0.3163,-0.12137 -0.97055,0.41933 -1.76005,1.4546 -4.65595,6.10529 -12.54258,11.02888 -20.66239,12.89945 -1.2324,0.28391 -2.30732,0.58278 -2.38869,0.66416 -0.33225,0.33225 2.99119,4.76506 5.73142,7.64457 3.21192,3.37518 5.73652,4.97226 9.17587,5.80475 2.73025,0.66085 4.1508,0.66806 6.58729,0.0334 z m -58.581672,-8.73637 c 2.36106,-1.08093 5.08142,-3.51675 6.63985,-5.94535 1.14078,-1.77775 2.89452,-5.98744 3.30496,-7.93324 l 0.23047,-1.09258 -5.21966,0.166 c -4.36793,0.13891 -5.82408,0.0445 -8.92381,-0.57853 -4.43637,-0.8917 -9.59433,-3.29303 -12.94479,-6.02654 -1.20179,-0.98049 -2.25868,-1.78271 -2.34865,-1.78271 -0.50364,0 -1.35581,7.0305 -1.229,10.13951 0.12055,2.95576 0.29809,3.77861 1.2558,5.82042 1.33277,2.84139 3.83431,5.46944 6.48928,6.81743 2.86441,1.45432 3.37279,1.55604 7.20056,1.44076 2.91741,-0.0879 3.89067,-0.2678 5.54499,-1.02517 z m 38.997982,-10.14101 c 5.78603,-1.38712 10.73466,-4.07972 15.10891,-8.22089 1.33447,-1.26336 2.82047,-3.02704 3.30223,-3.9193 l 0.87594,-1.62228 -2.18955,-2.18954 -2.18955,-2.18955 -1.50861,0.4373 c -6.70133,1.94253 -13.95662,3.28985 -20.47041,3.80138 -2.86005,0.2246 -3.0868,0.29877 -3.0868,1.00966 0,1.28952 1.92695,6.52894 3.73664,10.16002 1.9743,3.96135 1.73073,3.85767 6.4212,2.7332 z m -30.771032,-9.91832 c 1.17753,-0.20195 2.32661,-0.48192 2.55351,-0.62214 0.44808,-0.27693 1.23222,-3.81866 0.94746,-4.27941 -0.0961,-0.15545 -1.00794,-0.39159 -2.02637,-0.52476 -3.31916,-0.43399 -9.89522,-1.91186 -13.14058,-2.95313 -4.57709,-1.46856 -6.56165,-2.31465 -9.22642,-3.93355 -1.29756,-0.7883 -2.54219,-1.36305 -2.76584,-1.27723 -0.46386,0.178 -1.94246,3.84111 -1.94246,4.81229 0,1.10017 4.38575,4.76768 7.5193,6.28789 2.9238,1.41845 7.9223,2.79286 10.82514,2.97653 2.10191,0.13299 4.63401,-0.0368 7.25626,-0.48649 z m 32.078462,-12.11742 c 15.76655,-2.65492 20.34367,-6.13649 21.38742,-16.26829 0.61584,-5.97796 -0.34987,-31.26663 -1.22632,-32.11326 -0.40992,-0.39598 -3.3943,-0.99976 -15.57499,-3.15104 -3.68652,-0.65109 -8.13152,-1.4364 -9.87777,-1.74512 -7.40388,-1.30893 -28.850772,-5.58645 -32.064162,-6.3951 -1.91904,-0.48293 -3.69285,-0.79988 -3.94181,-0.70435 -1.36251,0.52284 -6.7253,9.53508 -10.17813,17.10449 -2.08544,4.57179 -4.16203,10.33951 -5.39756,14.99178 -0.79161,2.98071 -0.95202,4.3372 -0.96575,8.16679 -0.0161,4.49019 0.009,4.6446 1.13856,6.93973 2.28328,4.64028 7.50576,8.01754 16.48385,10.65972 4.30936,1.26822 12.47179,2.74763 18.52083,3.35683 5.622532,0.56626 15.641192,0.17735 21.695832,-0.84218 z m 46.99834,-7.96206 c 4.83352,-2.37953 7.53706,-8.59356 6.09358,-14.00597 -0.95933,-3.59706 -3.72278,-8.00674 -6.99776,-11.16641 -1.30273,-1.25686 -1.54573,-1.35587 -2.88636,-1.17605 -0.80512,0.10799 -2.80539,0.84005 -4.44503,1.6268 -3.75798,1.80321 -7.59443,5.50573 -9.30479,8.97998 -1.04595,2.12462 -1.10622,2.44603 -0.88056,4.69592 0.44329,4.41971 2.72581,8.15695 6.28848,10.29632 4.10175,2.4631 8.14425,2.7128 12.13244,0.74941 z M 55.193098,-178.94713 c 0.65141,-0.24767 0.98232,-0.73793 1.24981,-1.85165 0.2001,-0.83314 1.32539,-4.39552 2.50065,-7.9164 l 2.13684,-6.40161 -0.93367,-1.71228 c -2.07633,-3.80782 -4.12761,-6.47478 -4.98004,-6.47478 -0.25474,0 -0.46317,0.15875 -0.46317,0.35278 0,0.19403 -0.25849,0.35278 -0.57442,0.35278 -1.44459,0 -7.29194,4.18359 -10.0611,7.19841 -2.43448,2.65044 -3.6621,7.14981 -2.81001,10.299 1.20522,4.45429 5.38407,7.06015 10.68968,6.66592 1.29769,-0.0964 2.75813,-0.3269 3.24543,-0.51217 z m 99.250472,-9.82613 c 1.11998,-0.75975 2.86977,-1.81658 3.88842,-2.34851 1.01864,-0.53192 1.85208,-1.1794 1.85208,-1.43882 0,-0.48976 -7.76588,-6.50993 -8.39765,-6.50993 -0.19714,0 -1.12992,0.60983 -2.07285,1.35517 l -1.71441,1.35516 0.42421,4.90664 c 0.23332,2.69865 0.43492,5.48218 0.44801,6.18562 l 0.0238,1.27897 1.75603,-1.70146 c 0.96582,-0.93581 2.67238,-2.32308 3.79236,-3.08284 z m -88.715742,-15.3946 c 1.11566,-2.02125 2.02847,-3.78218 2.02847,-3.91318 0,-0.131 -0.434,-0.12926 -0.96445,0.004 -1.40462,0.35254 -6.44388,2.32591 -6.44388,2.52343 0,0.60664 2.76436,5.07602 3.13368,5.06649 0.11974,-0.003 1.13052,-1.65936 2.24618,-3.68061 z m 100.629852,-3.0279 c 6.57582,-0.61605 11.83563,-2.53243 17.7182,-6.45553 3.56525,-2.37766 9.97485,-9.16522 9.97485,-10.56303 0,-0.17884 -0.64109,-1.61933 -1.42465,-3.2011 -3.31566,-6.69325 -3.19149,-15.61698 0.3575,-25.69242 3.95078,-11.21611 10.66433,-17.59232 19.15305,-18.19063 3.29459,-0.23222 3.29421,-0.23154 2.92756,-5.32606 -0.86224,-11.98065 -5.758,-22.19494 -15.17729,-31.66521 -5.42479,-5.45416 -11.12823,-9.4395 -16.06935,-11.22864 -1.14149,-0.41332 -2.1665,-0.84256 -2.2778,-0.95386 -0.1113,-0.1113 0.51501,-2.05849 1.39181,-4.3271 1.7656,-4.56829 1.91942,-5.84869 0.9029,-7.51585 -1.38662,-2.27414 -4.03722,-2.82581 -6.53737,-1.36062 -1.68658,0.9884 -2.91421,2.69049 -4.24831,5.89025 -0.51464,1.23432 -1.05797,2.37327 -1.2074,2.531 -0.14944,0.15772 -2.7144,-0.57945 -5.69992,-1.63817 -6.80399,-2.41282 -19.71587,-5.73827 -27.65322,-7.12208 -9.91626,-1.72882 -14.01835,-2.09794 -23.28333,-2.0951 -9.65092,0.003 -13.04641,0.37879 -20.373372,2.255 -9.99958,2.56058 -20.99528,8.76959 -28.15087,15.89611 -6.02353,5.99906 -6.8519,7.11258 -10.52413,14.14702 -5.52776,10.58885 -9.57621,26.11249 -10.61741,40.7121 -0.51544,7.22747 0.63796,15.06821 2.96398,20.1489 3.89189,8.50102 12.16254,15.78176 21.89902,19.27796 4.50373,1.6172 26.30066,6.24805 44.273612,9.40611 3.39549,0.59663 7.76111,1.39996 9.70139,1.78518 9.55668,1.89738 29.28683,4.98882 34.57222,5.41698 2.91347,0.23602 3.62244,0.22346 7.40833,-0.13121 z m -16.05139,-22.42986 c -0.67909,-0.0828 -3.45722,-0.39294 -6.17361,-0.68916 -10.77498,-1.17497 -29.17009,-4.05386 -47.095832,-7.37064 -16.25354,-3.00736 -30.3553,-6.52692 -34.45307,-8.59889 -5.65727,-2.86051 -9.89993,-7.8633 -11.40329,-13.44636 -2.20073,-8.1729 0.16443,-23.33559 5.65802,-36.27263 3.96268,-9.33185 9.48746,-15.99243 15.5039,-18.69124 4.12424,-1.85002 8.16622,-2.61421 14.89552,-2.81618 7.19389,-0.21592 12.33119,0.15191 25.850312,1.85088 22.97947,2.88786 47.97403,8.4929 58.48954,13.1163 8.2378,3.62195 13.19838,8.60288 15.57593,15.63984 1.33672,3.95633 1.61169,9.70595 0.73453,15.35893 -0.73709,4.75032 -3.22925,14.5877 -4.95462,19.55759 -4.33766,12.49446 -9.26641,18.38687 -17.89395,21.39255 -2.23043,0.77704 -3.27123,0.90744 -8.0306,1.00616 -3.00743,0.0624 -6.02368,0.0457 -6.70278,-0.0371 z m 3.1477,-11.68727 c 1.23877,-0.90114 2.49675,-3.47878 2.49675,-5.11593 0,-3.78616 -3.39638,-6.72303 -6.85187,-5.92484 -2.98015,0.68839 -4.7898,2.95939 -4.7898,6.01092 0,2.19129 0.77541,3.74348 2.51277,5.03003 1.86027,1.37756 4.73832,1.37749 6.63215,-1.8e-4 z m 11.48048,-2.35622 c 3.71503,-1.55224 2.52485,-7.61251 -1.49503,-7.61251 -2.58642,0 -4.62033,2.31185 -4.16575,4.735 0.24982,1.33165 1.76768,2.89836 3.02705,3.12446 0.48507,0.0871 1.0061,0.17996 1.15785,0.20638 0.15176,0.0264 0.8159,-0.17758 1.47588,-0.45333 z m -51.57032,-0.32844 c 3.68695,-1.54934 6.95161,-8.53156 6.98646,-14.94213 0.0239,-4.40131 -1.42937,-7.21895 -4.44015,-8.60851 -2.67273,-1.23355 -5.27917,-0.69678 -7.85288,1.61721 -2.04228,1.83619 -3.30348,4.40233 -4.11497,8.37268 -1.36712,6.68888 -0.24383,11.10666 3.38686,13.32021 1.38786,0.84614 4.31581,0.96285 6.03468,0.24054 z m 28.35682,-6.11962 c 1.17184,-0.76782 1.72773,-2.84709 1.19374,-4.46509 -0.95284,-2.88713 -4.08293,-3.63985 -6.22564,-1.49714 -0.98016,0.98016 -1.19944,1.46811 -1.19944,2.66902 0,1.8354 0.44625,2.68699 1.85789,3.54546 1.24013,0.75417 2.99165,0.65314 4.37345,-0.25225 z m -63.811342,-3.7075 c 1.76691,-1.07321 2.65059,-3.11297 2.48375,-5.73317 -0.2305,-3.61995 -2.21981,-5.56222 -5.66958,-5.5355 -4.4418,0.0344 -7.2155,4.8932 -5.18629,9.085 1.48582,3.06929 5.28331,4.05978 8.37212,2.18367 z m 79.051192,-1.17156 c 3.32716,-0.78432 9.21926,-3.18197 11.56805,-4.70733 2.86557,-1.86098 4.89256,-4.05687 6.22165,-6.74009 1.00871,-2.03642 1.1317,-2.6134 1.12793,-5.29167 -0.005,-3.26366 -0.67405,-5.11882 -2.59222,-7.18347 -2.70631,-2.91298 -7.27868,-3.35581 -10.7918,-1.04517 -0.9941,0.65384 -1.43671,0.788 -1.54343,0.46785 -0.0823,-0.24688 -0.57322,-1.25972 -1.09094,-2.25075 -2.59252,-4.96266 -8.87945,-5.54749 -13.56829,-1.26215 -2.77973,2.54051 -3.55846,4.51862 -3.53255,8.97322 0.0173,2.96547 0.17326,3.9214 0.97875,5.99722 1.88192,4.84993 4.32954,8.84223 7.40767,12.08264 1.62153,1.70702 2.22355,1.80637 5.81518,0.9597 z m -68.271092,-3.31934 c 1.58806,-0.60378 2.3499,-1.76729 2.3499,-3.58884 0,-1.98605 -1.17597,-3.65591 -2.83054,-4.01932 -4.31218,-0.94711 -6.53997,4.91218 -2.74694,7.22473 1.30117,0.7933 1.94758,0.87009 3.22758,0.38343 z m -23.1295,-3.19809 c 2.46213,-1.50116 2.50947,-5.38609 0.0831,-6.81938 -2.19545,-1.29688 -4.95301,-0.22455 -5.68232,2.20968 -0.58048,1.93748 -0.0893,3.49905 1.42063,4.5166 1.46193,0.98519 2.67122,1.01214 4.17858,0.0931 z m 16.01338,-8.5142 c 9.73047,-4.99393 14.78749,-11.78606 13.70898,-18.41265 -0.85225,-5.23648 -4.57231,-8.77119 -9.20776,-8.74902 -2.33277,0.0112 -3.5954,0.55404 -5.69024,2.4466 -1.3492,1.21893 -1.46544,1.25946 -1.83101,0.63834 -1.68032,-2.85499 -3.79196,-4.09647 -6.96768,-4.09647 -6.13589,0 -10.51201,5.84017 -9.4712,12.63984 0.8733,5.70532 7.01295,13.95603 12.87354,17.29999 1.08773,0.62064 2.86053,0.14505 6.58537,-1.76663 z m 127.537802,42.73379 c 4.12759,-2.06259 8.0095,-7.29991 10.16572,-13.71521 3.03064,-9.0169 2.38404,-17.29024 -1.64757,-21.08077 -3.78771,-3.56121 -8.56685,-2.92923 -13.13105,1.73642 -2.56987,2.62699 -3.98174,5.30881 -5.68745,10.80321 -2.63012,8.47207 -2.31931,16.01417 0.84979,20.62028 1.32008,1.91868 2.8326,2.67742 5.35784,2.6877 1.49699,0.006 2.48304,-0.24727 4.09272,-1.05163 z m -169.762472,-39.5311 c 0.29511,-2.80167 0.76894,-6.41139 1.05295,-8.02158 0.604,-3.4244 3.58795,-15.04324 4.11752,-16.03276 0.19992,-0.37356 0.27224,-0.77047 0.16069,-0.88201 -0.61988,-0.61989 -4.11139,4.30623 -5.43742,7.67157 -2.01352,5.11012 -2.61788,9.29945 -2.16245,14.9896 0.25837,3.22793 1.24329,7.85799 1.59647,7.50481 0.0746,-0.0746 0.37713,-2.42795 0.67224,-5.22963 z"
       id="path294" /></g></svg>
