<?xml version="1.0" encoding="UTF-8" standalone="no"?>
<!-- Created with Inkscape (http://www.inkscape.org/) -->

<svg
   width="228.99443mm"
   height="289.17316mm"
   viewBox="0 0 228.99443 289.17313"
   version="1.1"
   id="svg1"
   xml:space="preserve"
   xmlns="http://www.w3.org/2000/svg"
   xmlns:svg="http://www.w3.org/2000/svg"><defs
     id="defs1"><clipPath
       clipPathUnits="userSpaceOnUse"
       id="clipPath6"><path
         id="path7"
         style="fill:#ff0000;fill-opacity:1;fill-rule:nonzero;stroke:none;stroke-width:0.264583"
         d="M -175.07778,-16.057127 V 287.55793 H 124.54631 V -16.057127 Z m 132.7459,202.572647 c 0.210643,0.005 0.427212,0.0169 0.650089,0.0367 2.23823,0.19855 4.475655,0.4031 6.717938,0.55346 1.973313,0.11308 0.986628,0.0436 2.958475,0.20825 3.181295,0.26563 4.740125,1.85116 4.950601,3.46956 4.949923,1.63749 3.796379,7.35609 -2.592089,6.81354 -3.228716,-0.27422 -1.569593,-0.1301 -4.979024,-0.43357 -4.228209,-0.39317 -8.460616,-0.76265 -12.666927,-1.35341 -6.647387,-0.93358 -5.930551,-7.21034 0.03204,-7.20421 0.04685,5e-5 0.0972,0.004 0.144695,0.005 0.687229,-1.21692 2.304132,-2.15435 4.784204,-2.09548 z" /></clipPath><clipPath
       clipPathUnits="userSpaceOnUse"
       id="clipPath76"><path
         id="path77"
         style="fill:#ff0000;fill-opacity:1;fill-rule:nonzero;stroke:none;stroke-width:0.264583"
         d="M -133.83107,-122.52355 V 173.82063 H 122.97289 V -122.52355 Z M 13.574404,98.948202 c 2.788179,0.0507 4.135003,2.063798 3.398242,4.077268 0.199805,0.45372 0.374906,0.96736 0.517797,1.54461 1.07913,4.35948 0.671079,8.891 0.311608,13.31495 -0.351859,3.06036 -0.147137,1.57974 -0.604097,4.44366 -0.359666,2.25418 -1.333846,3.66838 -2.455664,4.32532 0.105138,0.36595 0.224724,0.72888 0.324528,1.09554 0.6273,2.23652 0.575201,4.47401 0.39429,6.75514 -0.137303,1.73129 -0.688065,2.99533 -1.427303,3.82199 -0.112477,0.41601 -0.170275,0.80219 -0.311092,1.25212 -0.184975,0.59102 -0.413327,1.1061 -0.670242,1.55856 0.741137,-0.23134 1.446982,-0.38145 2.064991,-0.37517 4.085002,0.0415 5.222724,4.75435 -0.02223,7.27138 -4.46677,2.14368 -9.303523,3.34693 -14.11903492,4.40955 -4.40876268,0.85156 -8.89238128,1.33053 -13.38264308,1.19269 -5.804014,-0.17807 -6.736297,-5.00293 -3.065447,-6.67298 -2.072987,-0.65744 -4.042852,-1.62261 -4.128947,-3.14709 -0.02802,-0.49633 0.0026,-0.90355 0.0341,-1.30897 -1.976731,-0.003 -3.95339,2.4e-4 -5.930386,0.003 -0.814031,0 -1.53062,-0.0962 -2.159559,-0.26149 -0.376306,0.19492 -0.742394,0.40783 -1.120862,0.59893 -6.391272,3.22657 -9.625245,-3.24074 -3.234428,-6.46886 1.833438,-0.92611 3.62694,-1.92211 5.414142,-2.92954 -0.877003,-3.87058 -1.368747,-7.83436 -1.323951,-11.80858 0.01651,-1.46304 0.376836,-2.54918 0.864547,-3.41426 -1.247357,-1.79999 -0.223805,-4.63069 3.842661,-5.68855 3.11826,-0.81116 6.282901,-1.39515 9.473837,-1.82211 -1.259816,-0.12657 -2.516182,-0.30233 -3.764627,-0.50177 -1.477002,-0.21985 -2.935575,-0.54305 -4.407482,-0.7891 -1.14214,-0.22954 -0.588502,-0.12004 -1.660882,-0.3297 -3.350244,-0.65501 -4.783278,-2.61088 -4.608504,-4.32997 -0.200179,-1.7721 1.333365,-3.52972 4.663799,-3.59461 v -5.3e-4 c 0.20954,-0.004 0.426035,-0.002 0.649571,0.008 1.77111,0.0772 3.528708,0.28204 5.26428,0.64027 1.655035,0.33225 3.314115,0.6481 4.955251,1.04439 1.244759,0.34858 2.51628,0.54538 3.7997689,0.6723 0.025956,0.002 0.052073,0.002 0.078034,0.004 0.4990888,-0.0371 0.9984105,-0.0743 1.4965495,-0.11317 1.346872,-0.12588 2.6913231,-0.25136 4.0457464,-0.24236 1.1278499,-0.0444 2.2567291,-0.10772 3.37498791,-0.26872 0.75719517,-0.11591 1.51142439,-0.25483 2.25722659,-0.4284 0.3616431,-0.12394 0.7240561,-0.24538 1.083138,-0.37775 0.3360393,-0.12388 0.6107589,-0.12825 0.9250071,-0.20723 0.1281086,-0.045 0.2583895,-0.0825 0.3855085,-0.13074 1.9825018,-0.7681 3.9540551,-1.56464 5.9510551,-2.29443 1.050809,-0.383992 1.999634,-0.542639 2.826703,-0.527616 z M 0.70283723,110.39557 c -0.45566013,0.0949 -0.90775367,0.208 -1.36890919,0.2744 -1.16638124,0.15534 -2.34111274,0.24237 -3.51761424,0.26251 0.4031694,0.0896 0.8047355,0.18876 1.2025101,0.308 0.1014836,0.0304 0.1982549,0.075 0.2986907,0.10852 0.4205235,-0.21824 0.9206601,-0.35072 1.4898318,-0.37156 0.39885139,-0.0146 0.83259872,0.0278 1.29449508,0.13023 0.22468681,-0.12213 0.44967525,-0.24374 0.67437529,-0.36587 -0.0326284,-0.11319 -0.058211,-0.22834 -0.0733795,-0.34623 z m 10.24433577,1.02474 c -0.76023,0.21437 -1.5189569,0.4343 -2.2696301,0.68006 -0.031261,0.62207 -0.2256075,1.28373 -0.6464723,1.94355 0.6236891,0.43248 1.2549743,1.04482 1.8634525,1.86862 0.2674939,0.36214 0.4748849,0.75712 0.7188199,1.13223 0.154519,-1.86707 0.314174,-3.74736 0.33383,-5.62446 z m 64.566086,3.39773 c 1.50346,0.0187 3.129182,1.24994 3.928441,4.04678 0.257931,0.90255 0.823497,1.65871 1.488797,2.30735 0.856321,0.95375 1.845738,1.76777 2.801898,2.61638 1.458581,1.46408 2.789203,3.04608 4.169772,4.58215 1.315059,1.44746 2.571226,2.91698 3.543967,4.61884 0.0053,0.01 0.0082,0.0206 0.01344,0.0305 0.734605,-0.43313 1.446276,-0.65634 2.094962,-0.69195 3.016182,-0.16561 4.69137,3.55377 1.187525,7.32306 -1.69471,1.82311 -3.657862,3.33908 -5.68751,4.7651 -0.777873,0.49914 -1.607691,0.90075 -2.418456,1.33842 0.165478,1.44344 -0.672182,3.24303 -2.956409,4.73096 -1.354556,0.88234 -2.690448,1.79306 -4.075203,2.6288 -2.075008,1.20078 -4.233777,2.27962 -6.540687,2.96259 -2.077586,0.62971 -4.169056,1.29987 -6.359301,1.36374 -1.872114,0.0897 -3.746989,0.0368 -5.620845,0.0501 h -5.1108 -5.524728 c -7.160125,0 -7.160125,-7.23315 0,-7.23315 h 1.347722 c 0.29438,-0.0541 0.5212,-0.1588 0.84801,-0.18656 1.106628,-0.094 2.200932,-0.28334 3.292822,-0.48421 0.456121,-0.98163 1.356053,-1.98213 2.807581,-2.83962 1.078018,-0.63685 2.158119,-1.26923 3.212209,-1.94561 1.962647,-1.29302 3.840588,-2.72135 5.893696,-3.86902 1.367169,-0.76424 2.559646,-1.07097 3.526915,-1.04128 2.216811,0.068 3.246223,1.90266 2.479953,4.04059 1.105688,-0.48686 2.206929,-0.98346 3.283003,-1.53739 2.619811,-1.23728 5.288743,-2.38548 7.764385,-3.9026 0.246153,-0.17184 0.487463,-0.34958 0.730705,-0.52503 -0.126915,-0.50614 -0.277693,-0.9939 -0.512114,-1.46554 -0.647621,-1.25778 -1.721077,-2.20654 -2.600875,-3.29644 -1.199229,-1.33472 -2.369312,-2.69496 -3.592029,-4.00803 -1.098706,-0.97599 -2.227236,-1.92181 -3.215306,-3.01428 -1.300821,-1.39063 -2.459913,-2.93896 -3.045293,-4.77801 -1.289469,-4.05101 0.646382,-6.61405 2.843754,-6.58667 z m -95.086705,4.28035 c -0.465643,0.10748 -0.930899,0.21773 -1.394745,0.33435 0.171958,0.64334 0.283575,1.36624 0.279569,2.2071 -0.01267,2.6582 0.205063,5.32647 0.670242,7.94732 0.280107,-0.17087 0.565767,-0.33222 0.845429,-0.50385 -0.01897,-0.36223 -0.02445,-0.73164 -0.05529,-1.08985 -0.118034,-2.96491 -0.160888,-5.93314 -0.3452,-8.89507 z m 18.5141159,1.1958 c 0.00497,0.0773 0.00619,0.15612 0.014975,0.23202 -0.1238779,0.22787 -0.2588048,0.44752 -0.3937741,0.66715 0.58900751,0.0447 1.13203305,0.21413 1.64331124,0.45888 -0.37615284,-0.49255 -0.78353709,-0.94642 -1.26452314,-1.35805 z m -6.5422357,14.57068 c -0.046649,0.0755 -0.09888,0.14702 -0.1436608,0.22376 -0.03147,0.054 0.1963367,0.0838 0.1860365,0.0222 -0.017595,-0.10481 -0.026035,-0.14905 -0.042376,-0.24597 z m 13.9236979,6.08439 c -0.2236258,0.5643 -0.5677508,1.09664 -1.1782213,1.50533 0.9079653,0.17659 1.7077452,0.44257 2.2830631,0.84852 0.1405493,-0.0459 0.272804,-0.11448 0.4128956,-0.16174 -0.7336976,-0.43656 -1.2984269,-1.18703 -1.5177374,-2.19211 z" /></clipPath><clipPath
       clipPathUnits="userSpaceOnUse"
       id="clipPath127"><path
         id="path128"
         style="fill:#ff0000;fill-opacity:1;fill-rule:nonzero;stroke:none;stroke-width:0.264583"
         d="M -112.24796,-126.55676 V 185.58027 H 148.5754 V -126.55676 Z M 46.874626,83.305366 c 1.808208,0 3.616317,1.790192 3.616317,5.370214 v 5.232238 c 0.0627,2.146078 -0.111291,4.285324 -0.245462,6.424932 -0.136289,2.02485 -0.190703,4.04985 -0.104904,6.07715 0.192061,1.91863 0.527714,3.82569 0.876432,5.72213 0.304242,2.00862 0.765826,3.9858 1.180806,5.97276 0.41642,1.86142 0.967934,3.68703 1.421104,5.53972 0.25287,0.86996 0.117097,0.46495 0.396356,1.22008 0.186108,0.50319 0.223428,0.93098 0.309544,1.38441 4.425355,2.23251 2.751262,7.58433 -3.415813,6.40477 -3.104732,-0.59371 -6.256094,-0.76586 -9.40821,-0.85576 -3.81635,0.009 -7.630525,0.17062 -11.44478,0.28216 -1.12776,0.0333 -2.255837,0.0512 -3.383772,0.0754 -0.908129,0.5548 -1.966518,0.57724 -2.88613,0.0641 -0.03584,5.3e-4 -0.07165,0.002 -0.107487,0.003 -0.03142,5.3e-4 -0.0525,-0.009 -0.08268,-0.009 -0.32049,0.14732 -0.641715,0.29301 -0.962215,0.44028 -0.262501,0.12062 -0.518089,0.22111 -0.770496,0.31265 -0.876996,0.71434 -1.945576,0.85817 -2.911967,0.46405 -2.943479,-0.21613 -4.295167,-2.77187 -2.550232,-5.0524 -2.22e-4,-0.028 -0.0078,-0.0483 -0.0078,-0.0765 v -6.3469 c -0.014,-2.72977 -0.02254,-5.45666 0.112657,-8.18348 0.135676,-2.32533 0.233519,-4.6523 0.299723,-6.98046 0.046,-1.80459 0.06926,-3.60958 0.08527,-5.41465 -0.0258,-1.02998 0.04009,-2.054459 0.138491,-3.078883 0.0044,-0.04602 0.02191,-0.07504 0.02687,-0.120406 C 15.992671,97.193438 15.83363,95.70984 16.656834,94.418959 10.68718,93.678613 10.992573,87.32947 17.739972,87.32947 h 3.885033 5.177462 5.913334 c 1.498505,0.05847 2.984222,-0.03228 4.475178,-0.161748 1.252041,-0.18606 2.49041,-0.398671 3.697968,-0.782897 1.001961,-0.32245 0.492366,-0.161472 1.527553,-0.482142 0.510384,-0.158096 0.938446,-0.174371 1.394749,-0.23771 0.672338,-1.56932 1.86623,-2.35903 3.063377,-2.35903 z" /></clipPath><clipPath
       clipPathUnits="userSpaceOnUse"
       id="clipPath139"><path
         id="path140"
         style="fill:#ff0000;fill-opacity:1;fill-rule:nonzero;stroke:none;stroke-width:0.264583"
         d="M 97.168006,-339.91235 V -44.578961 H 346.46958 V -339.91235 Z m 14.326254,94.53944 c 1.76488,0.006 3.77708,1.78446 4.35839,5.31699 0.32911,1.99994 0.60308,4.00817 0.88884,6.01462 1.02527,-1.2445 2.22305,-1.83589 3.28403,-1.8402 2.05627,-0.008 3.59454,2.17302 2.34611,6.00222 -0.0197,0.0606 -0.0413,0.12046 -0.0615,0.18087 0.31698,0.91799 0.41757,2.09982 0.17777,3.54139 -0.2164,1.30085 -0.62011,2.56457 -1.0263,3.8163 -1.34183,4.13496 -4.42238,4.92072 -6.12882,3.38016 -1.93867,0.62007 -4.30523,-0.86149 -4.65605,-4.82762 -0.16862,-1.90632 -0.33891,-3.81275 -0.57464,-5.71231 -0.45291,-3.52522 -1.07719,-7.02592 -1.48208,-10.55543 -0.40801,-3.55672 1.10935,-5.32303 2.87424,-5.31699 z" /></clipPath><clipPath
       clipPathUnits="userSpaceOnUse"
       id="clipPath170"><path
         id="path171"
         style="fill:#ff0000;fill-opacity:1;fill-rule:nonzero;stroke:none;stroke-width:0.264583"
         d="M 88.756261,-299.52331 V 17.880567 H 410.91541 V -299.52331 Z M 363.24287,-220.863 c 0.90345,-0.008 1.97628,0.23856 3.18532,0.82218 3.39402,1.63831 6.49674,3.81197 9.57823,5.96449 3.22509,2.31448 6.37511,4.73585 9.43663,7.26261 1.87296,1.50796 3.75989,2.99047 5.54284,4.6054 1.76167,1.54167 3.42262,3.17283 4.95419,4.94388 1.19316,1.48882 2.47049,2.9032 3.73311,4.33204 1.08043,1.20022 2.09423,2.45631 2.94299,3.83026 0.82616,1.73429 1.48968,3.55524 1.93786,5.42344 1.67031,6.96258 -5.76469,8.62686 -7.05745,1.5844 -0.21127,-1.15093 -0.75649,-2.20765 -1.10278,-3.32021 -0.52141,-1.02678 -1.43909,-1.82952 -2.14042,-2.72904 -1.28368,-1.45272 -2.58234,-2.89095 -3.79617,-4.40386 -1.32794,-1.55409 -2.79577,-2.95456 -4.33049,-4.3031 -1.69875,-1.54267 -3.51006,-2.94207 -5.29113,-4.38733 -2.90883,-2.40671 -5.90918,-4.70386 -8.97258,-6.91017 -2.63017,-1.83963 -5.2759,-3.68008 -8.12096,-5.17746 -5.14813,-2.7095 -4.41412,-7.50431 -0.49919,-7.53753 z m -17.79788,14.64304 c 0.81097,-0.004 1.74701,0.16947 2.79104,0.57154 4.59168,1.76834 8.99191,4.00303 13.38523,6.20892 0.37082,0.1876 0.72266,0.4088 1.09088,0.601 0.4155,-0.11565 0.91038,-0.17484 1.48572,-0.16691 0.65984,0.009 1.42523,0.10601 2.29753,0.30644 2.35556,0.54125 4.30075,1.95473 6.16344,3.42614 -1.07651,-2.72314 0.34142,-4.84679 2.57866,-4.84311 1.28683,0.002 2.83083,0.70484 4.29689,2.3952 2.44776,2.82227 4.79147,5.70892 6.96391,8.74934 1.67944,2.35043 1.72027,4.43615 0.89969,5.70663 1.5344,1.02281 3.07247,2.04019 4.58422,3.09645 1.80695,1.14136 3.31928,2.58833 4.72631,4.18269 0.96689,1.16625 2.0869,2.25988 2.79262,3.61942 0.19542,0.37651 0.34592,0.77482 0.51882,1.1622 0.40259,1.55462 0.27207,0.76263 0.38706,2.3766 0.0637,0.89436 -0.044,1.45412 -0.26977,1.7756 0.11753,0.20753 0.23421,0.41574 0.35608,0.62063 3.66003,6.15399 -2.6856,9.845 -6.25234,3.63648 -0.83209,-1.44832 -1.62388,-2.92102 -2.35437,-4.42351 -0.84839,-1.84687 -1.70402,-3.69055 -2.54093,-5.54229 -0.078,-0.17246 -0.14713,-0.34128 -0.2119,-0.5085 -0.415,-0.33988 -0.82071,-0.68775 -1.29707,-0.97255 -2.35545,-1.64933 -4.79565,-3.17384 -7.14841,-4.82761 -3.27895,-2.27743 -6.61384,-4.47194 -9.95804,-6.65231 -4.00886,-2.60003 -8.08797,-5.09434 -12.3548,-7.25434 -4.08429,-2.05175 -8.1752,-4.1242 -12.42663,-5.81101 -5.61546,-2.22804 -4.88331,-7.4129 -0.50384,-7.43314 z m -225.34594,21.50101 c 3.05551,-0.16929 4.03285,3.80875 0.35915,7.72563 -1.17612,1.25397 -2.32696,2.59265 -3.45922,3.90674 -1.44062,1.57315 -2.77631,3.23874 -4.13618,4.88135 -1.14319,1.4697 -2.29319,2.93265 -3.46335,4.38113 -0.8717,1.2084 -1.86054,2.32105 -2.81017,3.46594 -0.80685,0.95022 -1.53489,1.96075 -2.32234,2.92695 -0.80594,1.00684 -1.52017,2.08004 -2.22519,3.15847 -0.20511,0.28103 -0.29499,0.51935 -0.30179,0.78909 -0.18033,7.15787 -8.659963,5.5717 -7.093102,-1.4149 0.267098,-1.19094 0.644303,-2.32859 1.347721,-3.34243 0.846108,-1.28566 1.701136,-2.56663 2.670121,-3.76463 0.806525,-0.98525 1.5446,-2.0236 2.37453,-2.98999 0.93132,-1.109 1.88214,-2.2008 2.7342,-3.37448 1.18855,-1.47082 2.35327,-2.95822 3.51813,-4.44779 1.39067,-1.67946 2.758,-3.38112 4.2292,-4.99142 1.55862,-1.80675 3.07205,-3.68494 4.92528,-5.20227 1.38505,-1.13397 2.63451,-1.65096 3.65301,-1.70739 z m 30.4953,3.26389 c 4.11093,0.0973 5.25218,4.81763 -0.0434,7.22591 -1.93926,0.8819 -3.80509,1.88928 -5.66115,2.92437 0.381,1.39299 -0.23993,3.26566 -2.43035,4.98678 -2.3369,1.83618 -4.71607,3.61825 -7.08845,5.40845 -2.84267,2.19936 -5.66068,4.43162 -8.41086,6.74584 -2.22216,1.84972 -4.46469,3.67225 -6.66213,5.55109 -1.67979,1.46598 -3.37138,2.91821 -5.06067,4.37337 -1.40892,1.30469 -2.82191,2.592 -4.12274,4.00648 -1.07181,1.16531 -2.16701,1.83049 -3.17087,2.10529 -0.88357,6.53411 -7.65001,5.87099 -7.10344,-1.07177 0.0596,-0.75732 0.12015,-1.51435 0.21239,-2.26859 0.18237,-1.4495 0.31176,-2.90657 0.57051,-4.34444 0.56059,-2.2771 1.55106,-4.35314 3.32124,-5.95312 1.46716,-1.38711 2.94871,-2.75912 4.4943,-4.05919 1.45063,-1.21601 2.91967,-2.40825 4.4111,-3.57394 2.2284,-1.75259 4.48249,-3.46927 6.81044,-5.08961 3.1083,-2.16601 6.29001,-4.21936 9.5343,-6.17689 3.28252,-2.04598 6.49796,-4.19789 9.78648,-6.23476 2.38673,-1.38679 4.82146,-2.65715 7.33495,-3.79873 1.22236,-0.55516 2.32966,-0.77899 3.27836,-0.75654 z" /></clipPath><clipPath
       clipPathUnits="userSpaceOnUse"
       id="clipPath233"><path
         id="path234"
         style="fill:#ff0000;fill-opacity:1;fill-rule:nonzero;stroke:none;stroke-width:0.264583"
         d="M 185.24069,-319.24193 V -24.289387 H 425.09684 V -319.24193 Z m 138.35487,149.6534 c 1.78419,7.9e-4 3.63037,1.79012 3.80182,5.36608 0.0643,1.33996 -0.0719,2.65433 -0.29041,3.95842 0.27255,-0.0735 0.56767,-0.11689 0.88522,-0.12351 0.37047,-0.008 0.77026,0.0328 1.19579,0.12867 0.38629,-0.24279 0.8215,-0.42195 1.34254,-0.44493 1.13073,-0.0499 2.53823,0.47335 4.04474,1.80971 0.4186,0.37135 0.80759,0.77178 1.2056,1.16323 0.49581,-0.30652 1.09744,-0.47283 1.77559,-0.44028 1.18851,0.0571 2.59295,0.69888 3.98788,2.15129 2.63375,2.74227 4.82211,5.85047 6.92256,9.00669 2.43144,3.88376 4.79634,7.81591 6.98098,11.84475 1.13959,2.01485 2.36363,3.97199 3.24527,6.11746 0.86638,2.54168 0.71525,4.37292 -0.15348,6.88278 -0.88855,2.03627 -2.18951,3.83746 -3.64937,5.49682 -1.22616,1.21887 -2.44396,2.51198 -3.976,3.35587 -0.38219,0.21053 -0.79187,0.3659 -1.18803,0.54881 -6.50071,3.00135 -9.83602,-5.23462 -2.81948,-6.6611 1.07346,-0.21823 1.75532,-1.41088 2.56987,-2.0407 0.86323,-0.96375 1.62015,-2.00233 2.25208,-3.13417 0.24334,-0.63932 0.47847,-1.05078 0.24958,-1.76114 -0.42873,-1.13152 -1.03555,-2.17502 -1.65674,-3.21169 -0.64492,3.08426 -3.96214,3.78517 -6.03631,0.97152 -0.80928,1.85722 -3.53859,2.62684 -6.75775,0.30902 -0.53872,-0.38787 -1.07831,-0.77486 -1.61745,-1.1622 -3.08248,4.62545 -3.94671,5.04673 -6.74584,2.87063 -2.73204,-2.16473 -5.33615,-4.48821 -8.05999,-6.6642 -2.7461,-2.45053 -5.40757,-5.07957 -7.04763,-8.42635 -1.62115,-0.12575 -3.24178,-0.2569 -4.86637,-0.34314 -7.58719,-0.44787 -15.17743,-0.9445 -22.76553,-1.33377 -1.07801,-0.0553 -1.93227,-0.3045 -2.68459,-0.62166 -0.57677,0.62929 -1.1192,1.29485 -1.64021,1.97352 -1.38696,2.1585 -2.2854,4.54313 -3.09181,6.96185 -0.53658,1.90527 -0.93866,3.84574 -1.3658,5.77949 0.3976,-0.38181 0.79402,-0.76498 1.19114,-1.14825 1.44902,-1.39846 2.84121,-1.97983 3.98373,-1.97766 2.91995,0.006 4.20899,3.82009 0.64648,7.53391 -0.92629,0.96557 -1.9114,1.86859 -2.9099,2.75797 -1.78302,1.58814 -3.50499,2.03887 -4.81263,1.76372 -0.007,0.0412 -0.0189,0.0812 -0.0253,0.12247 -0.31138,2.1774 -0.34632,4.38158 -0.39739,6.57686 0.006,3.5147 -0.15426,7.02208 -0.44287,10.52391 -0.15049,2.45352 -0.52882,4.882887 -0.77928,7.326166 -0.25682,2.270699 -0.2357,4.548968 -0.1633,6.828007 0.0525,1.43787 0.0261,0.723201 0.0775,2.145088 7.9e-4,0.02175 -0.006,0.03573 -0.006,0.05736 0.13966,0.0486 0.27673,0.09115 0.42013,0.148309 3.73047,1.486969 7.59999,2.598727 11.41894,3.833876 4.85884,1.705695 9.66861,3.546912 14.50144,5.32474 1.9552,0.651698 3.84707,1.443672 5.71489,2.292366 2.6308,-0.638411 5.26049,-1.281708 7.89771,-1.893425 4.5737,-1.075436 2.35597,-0.547624 6.65438,-1.580782 0.65268,-0.156879 1.2592,-0.237268 1.81642,-0.252698 3.40876,-0.09437 4.96226,2.238663 4.05712,4.350639 3.89832,1.612736 3.00805,6.568553 -2.90269,6.729304 l -2.19726,0.05943 c 0.0932,0.05532 0.18872,0.106439 0.28112,0.163298 6.09814,3.752323 2.1299,10.065517 -3.84782,6.124173 -1.04591,-0.689594 -2.23735,-1.127543 -3.31556,-1.763197 -2.61015,-1.251701 -5.22853,-2.484003 -7.87136,-3.665926 -0.34703,-0.170111 -0.69536,-0.335955 -1.04283,-0.504362 -1.04394,0.228952 -2.09238,0.441277 -3.15071,0.537951 -0.41145,0.100483 -0.82417,0.195434 -1.23558,0.296105 -3.95687,0.968251 -6.08679,-0.907356 -5.97897,-3.010669 -0.31188,-0.687727 -0.239,-1.395294 0.0263,-2.059305 -3.87146,-1.438614 -7.73769,-2.891312 -11.63237,-4.265891 -3.97417,-1.285444 -7.99945,-2.446282 -11.87938,-4.000272 -1.44639,-0.579335 -2.44377,-1.350957 -3.06182,-2.17506 -1.01218,-0.798706 -1.81304,-2.231819 -1.89446,-4.484998 -0.0517,-1.431189 -0.0254,-0.705106 -0.0791,-2.177645 -0.0816,-2.602558 -0.0903,-5.205841 0.19844,-7.79849 0.24823,-2.394268 0.6146,-4.775082 0.76533,-7.179412 0.27808,-3.36008 0.42763,-6.72542 0.42064,-10.09809 0.0594,-2.5132 0.11189,-5.03614 0.48266,-7.52719 0.38072,-2.41928 0.90466,-4.80615 1.46451,-7.18974 0.6701,-2.94551 1.25825,-5.91529 2.11305,-8.81393 1.0668,-3.18776 2.31041,-6.31647 4.23489,-9.10074 0.42128,-0.53977 0.8547,-1.07136 1.29914,-1.59215 -1.52816,-0.60355 -3.06641,-1.18197 -4.57646,-1.83141 -1.09038,3.76762 -2.19021,7.53001 -3.40755,11.25926 -1.05961,2.97655 -0.54118,1.54568 -1.55081,4.2938 -1.83358,4.9908 -6.03644,4.88509 -7.07398,1.75544 -2.82634,3.52841 -7.50378,1.0111 -5.57744,-4.75268 1.05408,-3.1537 2.2385,-6.34595 4.49688,-8.85837 1.49582,-1.66408 2.97572,-2.34765 4.17287,-2.32647 0.33252,0.006 0.64298,0.0664 0.92604,0.17518 0.46945,-1.58214 0.96416,-3.15651 1.43919,-4.7377 0.70062,-2.33196 1.93737,-3.52641 3.18689,-3.8871 0.54142,-0.34307 1.25019,-0.55529 2.11615,-0.57361 h 5.3e-4 c 0.8057,-0.017 1.74503,0.13149 2.80396,0.49248 0.31645,0.10788 0.63769,0.20324 0.94929,0.32401 1.83624,0.71133 3.60046,1.59642 5.43016,2.32544 1.18096,0.47048 2.26953,0.84228 3.35329,1.23145 0.62902,-0.20883 1.22424,-0.32846 1.76785,-0.35037 2.28614,-0.0921 3.73455,1.32842 3.67523,3.07682 1.73917,0.0925 3.47854,0.18832 5.21777,0.2899 -0.1345,-1.7899 1.43141,-3.54652 4.54959,-3.56619 0.39587,-0.002 0.816,0.0231 1.25987,0.0801 3.99155,0.51285 7.97638,1.04608 11.94346,1.72703 0.35092,0.0747 0.7018,0.14913 1.05265,0.22376 0.92028,-2.09088 2.0607,-3.80586 3.79408,-5.38675 0.9172,-0.8245 1.6747,-1.80494 2.07378,-2.98587 0.46483,-1.35061 0.4893,-2.77914 0.4594,-4.19561 h 5.3e-4 c -0.0754,-3.57927 1.64663,-5.36691 3.4308,-5.36608 z m 1.97559,14.00741 c -0.78838,1.39934 -1.79816,2.66075 -2.96984,3.79512 -1.06213,0.94584 -1.80404,2.02586 -2.28153,3.3538 -0.003,0.012 -0.005,0.0237 -0.009,0.0357 1.15411,0.11311 2.30814,0.22665 3.4613,0.3514 3.99042,0.43171 5.40747,2.84663 4.69323,4.76353 0.67585,0.41545 1.35041,0.83313 2.01954,1.25626 3.82278,2.5036 7.53266,5.1715 11.24013,7.84086 -1.81731,-3.68096 -3.93583,-7.19476 -6.36087,-10.5146 -1.10355,-1.48555 -2.20805,-3.00054 -3.36206,-4.44883 -0.35653,-0.44747 -1.7607,-2.16704 -2.34455,-2.70784 -0.36042,-0.33384 -0.93237,-0.68033 -1.36375,-0.9555 -1.33122,-0.84918 -2.21667,-1.81673 -2.72282,-2.76986 z" /></clipPath><clipPath
       clipPathUnits="userSpaceOnUse"
       id="clipPath240"><path
         id="path241"
         style="fill:#ff0000;fill-opacity:1;fill-rule:nonzero;stroke:none;stroke-width:0.264583"
         d="M 92.804184,-309.23338 V -41.629034 H 294.29938 V -309.23338 Z m 130.496946,63.74443 c 0.93337,0.009 2.02072,0.27397 3.21944,0.8785 1.75312,0.88412 3.43212,1.89553 5.06326,2.98586 5.9527,3.97906 1.8926,10.01797 -4.03542,6.00222 -1.36849,-0.92705 -2.78857,-1.76849 -4.26227,-2.51871 -5.18448,-2.63926 -4.02961,-7.38891 0.015,-7.34787 z m -85.24544,1.99626 c 3.36772,-0.0906 4.87054,3.93317 0.67437,7.28431 -0.81214,0.6486 -0.42273,0.34746 -1.1653,0.9064 -1.7275,1.42217 -3.47209,2.82263 -5.29477,4.12275 -2.09112,1.47372 -4.25636,2.82668 -6.45645,4.13153 -6.15846,3.65253 -10.39165,-1.95967 -4.33979,-5.78621 2.21999,-1.40367 4.47897,-2.73503 6.6244,-4.25349 1.67688,-1.19734 3.27994,-2.48915 4.86947,-3.79821 0.91499,-0.69918 0.50268,-0.37435 1.24076,-0.9679 1.39493,-1.12177 2.72473,-1.60899 3.84731,-1.63918 z" /></clipPath><clipPath
       clipPathUnits="userSpaceOnUse"
       id="clipPath251"><path
         id="path252"
         style="fill:#ff0000;fill-opacity:1;fill-rule:nonzero;stroke:none;stroke-width:0.264583"
         d="m 50.06164,-325.07443 v 245.270816 h 202.0347 V -325.07443 Z m 191.06172,72.239 c 1.42195,-0.0396 3.11835,0.92332 4.44418,3.2582 0.80855,1.42391 1.33311,2.97097 1.71979,4.55476 0.38267,1.85761 0.50306,3.75527 0.49506,5.64772 0.007,1.66837 -0.28067,3.30966 -0.52503,4.95318 -0.26767,2.07853 -1.32063,3.82386 -2.54249,5.47306 -0.98598,1.19805 -2.03839,2.33999 -3.16208,3.40961 -0.37488,0.32054 -0.76867,0.61405 -1.09502,0.98443 -4.73356,5.37222 -10.25077,0.0313 -5.19193,-5.03587 0.41783,-0.41852 0.82603,-0.84961 1.30896,-1.19579 0.83199,-0.78568 1.60086,-1.63171 2.34973,-2.49649 0.52191,-0.686 1.06794,-1.32103 1.17874,-2.204 0.19629,-1.31742 0.44949,-2.62948 0.44648,-3.9672 0.0288,-1.3072 -0.0809,-2.61845 -0.30179,-3.90725 -0.20137,-0.91522 -0.51051,-1.80281 -0.96014,-2.62775 -2.14172,-3.92928 -0.53435,-6.78057 1.83554,-6.84661 z m -24.00732,134.01508 c 1.58088,-0.0452 3.27238,1.29937 3.90106,4.36821 0.19779,0.96552 0.49313,1.88927 0.87385,2.79466 0.57738,1.31117 0.86222,2.69631 0.9741,4.11603 0.0779,1.63421 -0.38657,3.16522 -1.00976,4.65191 -0.60784,1.37091 -1.55916,2.5173 -2.50579,3.660755 -0.2566,0.333243 -0.50348,0.67224 -0.76223,1.002525 -0.0721,0.651052 -0.19323,1.300012 -0.35502,1.949752 l -0.4842,1.22783 c -0.70346,1.782932 -1.87803,2.754204 -3.12126,3.127457 -0.38818,0.593834 -0.73665,1.213207 -1.1529,1.788007 -0.78123,1.206815 -1.75001,2.262322 -2.80138,3.23546 -1.04259,0.90742 -2.26203,1.551003 -3.47214,2.198833 -0.81145,0.41652 -1.66264,0.737227 -2.52439,1.030428 -6.77856,2.306214 -9.10653,-4.670343 -2.28979,-6.86108 0.48258,-0.155091 0.95367,-0.335381 1.41232,-0.552421 0.68902,-0.364839 1.38726,-0.713642 2.01745,-1.175639 0.71797,-0.616461 1.30017,-1.358352 1.82004,-2.146123 0.66383,-0.892056 1.26802,-1.828112 1.8216,-2.792076 0.59882,-1.12436 1.07283,-2.316203 1.82056,-3.358968 0.0117,-0.0166 0.0249,-0.032 0.0367,-0.0486 -0.84786,-3.67928 0.87949,-5.67892 2.87217,-5.69422 0.38363,-0.003 0.77643,0.0723 1.16324,0.21859 0.15519,-0.3579 0.298,-0.71847 0.29042,-1.1188 -0.0398,-0.54898 -0.18359,-1.13581 -0.4191,-1.66191 -0.48947,-1.16893 -0.89792,-2.36312 -1.1591,-3.60547 -0.82863,-3.94139 1.021,-6.29698 3.05356,-6.35516 z" /></clipPath><clipPath
       clipPathUnits="userSpaceOnUse"
       id="clipPath278"><path
         id="path279"
         style="fill:#ff0000;fill-opacity:1;fill-rule:nonzero;stroke:none;stroke-width:0.264583"
         d="m -43.212488,-382.05292 v 250.81001 H 185.4025 v -250.81001 z m 181.494868,132.88233 c 1.13528,0.005 2.03811,0.42617 2.60707,1.09037 0.91934,-0.34123 1.78192,-0.54125 2.52078,-0.52658 4.05205,0.0805 5.08945,4.87108 -0.18087,7.33443 -2.21042,1.03317 -4.41856,2.08163 -6.72362,2.89285 -2.86091,0.99315 -5.74924,1.921 -8.52506,3.13986 -6.55592,2.87873 -9.40434,-3.76713 -2.84944,-6.64817 1.1011,-0.48395 2.22936,-0.89759 3.35587,-1.31568 0.52294,-1.00077 1.47788,-2.01475 2.95124,-2.87476 1.0894,-0.6359 2.16914,-1.287 3.24683,-1.94252 1.33817,-0.81396 2.56345,-1.15421 3.5972,-1.1498 z m -133.0900695,2.4753 h 5.5981075 c 7.160125,0 7.160125,7.23263 0,7.23263 H 5.1923105 c -7.1601277,0 -7.1601277,-7.23263 0,-7.23263 z m 42.9880715,50.84496 c 2.044401,-0.008 3.844292,2.25841 2.953308,6.18618 -0.283588,1.25017 -0.481169,2.51568 -0.75189,3.76877 -0.313965,1.46608 -0.73946,2.91235 -1.207162,4.33668 -2.233805,6.80278 -9.211228,4.46329 -6.857981,-2.29908 0.404762,-1.16313 0.726765,-2.36525 0.995807,-3.56619 0.287499,-1.32813 0.484814,-2.67249 0.804084,-3.99407 0.735603,-3.04497 2.473746,-4.42641 4.063834,-4.43229 z m 26.844358,9.60148 c 1.5451,0.0844 3.630816,1.85281 5.237924,5.05189 1.446292,2.8789 3.498345,5.40261 5.377447,8.00674 1.423178,1.86933 2.496352,3.93269 3.488161,6.04873 3.038795,6.48323 -3.64554,9.55837 -6.57066,3.02307 -0.764304,-1.70766 -1.644017,-3.34338 -2.782776,-4.84001 -2.279812,-3.15977 -5.466628,-6.83969 -6.494177,-10.63656 -0.141171,-0.52168 -0.167447,-1.06805 -0.251148,-1.60197 -0.554762,-3.53682 0.450099,-5.13633 1.995229,-5.05189 z m 22.433772,2.07998 v 5.3e-4 c 1.081786,0.0173 2.458693,0.64291 3.986318,2.0805 1.21595,1.14421 2.08888,2.57763 3.1502,3.85661 0.75663,0.91352 1.6619,1.66584 2.53163,2.46393 1.1475,0.93011 2.05703,2.06162 2.85305,3.29799 0.95863,1.59903 1.44035,3.34615 0.97049,5.20227 -0.10236,0.40431 -0.31771,0.77135 -0.47646,1.15703 -1.02548,2.49132 -2.04203,1.65641 -2.97036,0.0238 -2.04159,1.70549 -5.47708,1.09344 -5.78105,-3.28558 -0.003,-0.0322 -0.0142,-0.0648 -0.007,-0.0966 0.005,-0.03 0.0986,-0.0136 0.0827,-0.0393 -0.23736,-0.38486 -0.69492,-0.61714 -1.02216,-0.90227 -1.100378,-0.77725 -2.267905,-1.45106 -3.395141,-2.18798 -3.582773,-2.34245 -3.744537,-5.4822 -2.015898,-6.82284 -0.840523,-2.68156 0.04882,-4.63231 1.88154,-4.74287 0.06945,-0.004 0.140271,-0.006 0.212389,-0.005 z" /></clipPath><clipPath
       clipPathUnits="userSpaceOnUse"
       id="clipPath292"><path
         id="path293"
         style="fill:#ff0000;fill-opacity:1;fill-rule:nonzero;stroke:none;stroke-width:0.264583"
         d="M 39.169506,-337.89832 V -50.969072 H 288.46282 V -337.89832 Z m 15.676046,82.89261 c 1.714024,0.0204 3.54041,1.61061 3.978568,4.9382 0.120111,0.91222 0.106387,1.83456 0.107487,2.75229 0.0087,7.16012 -7.246413,7.15857 -7.232633,-0.002 0.0013,-0.65071 0.02757,-1.30512 -0.06356,-1.95182 -0.530767,-3.76661 1.267578,-5.76019 3.21014,-5.73712 z m 197.013298,6.80941 c 1.32993,-0.0899 2.96772,0.82319 4.38423,3.1042 1.07429,1.72993 1.55184,3.70118 1.89652,5.68338 0.39598,2.58761 0.42018,5.20011 0.26717,7.80675 -0.16631,2.61527 -0.75971,5.14416 -1.52187,7.63985 -0.4978,1.90614 -1.23662,3.72608 -2.0159,5.52989 -0.76243,1.81488 -1.37928,3.68664 -2.00143,5.55315 -0.64972,1.87676 -1.26002,3.76819 -2.01124,5.60741 -0.95415,2.1244 -1.9321,4.237 -2.90784,6.35155 -0.93622,2.10591 -1.93956,4.18102 -3.03444,6.20893 -0.74336,1.47932 -1.63431,2.88203 -2.64686,4.19044 -0.85071,1.10794 -1.91984,2.00805 -2.89078,3.00343 -1.04445,1.12516 -2.20219,2.13025 -3.34605,3.1502 -1.2349,1.05182 -2.56579,1.98944 -3.91811,2.88354 -1.93444,1.28303 -4.12655,2.08437 -6.28747,2.89285 -2.75914,1.06536 -5.6224,1.79172 -8.50439,2.42982 -2.00852,0.48359 -4.02259,0.93996 -6.05234,1.32499 -1.0898,0.20672 -1.99053,0.15992 -2.79725,0.0139 -0.75827,0.17949 -1.51301,0.3744 -2.26653,0.57309 -1.4977,0.44017 -2.97995,0.92699 -4.46019,1.42214 -1.58834,0.5581 -3.19109,1.04834 -4.83381,1.42213 -2.05853,0.5373 -4.13223,0.98734 -6.23425,1.31724 -1.89057,0.38525 -3.79586,0.65788 -5.71696,0.82837 -1.92552,0.0766 -3.83858,0.29911 -5.75676,0.47025 -1.71912,0.15432 -3.44381,0.22701 -5.16867,0.27441 -2.44184,-0.0118 -4.87127,-0.25567 -7.30085,-0.47078 -2.85973,-0.19225 -5.71909,-0.39592 -8.57157,-0.67799 -2.83995,-0.26841 -5.65359,-0.74864 -8.47907,-1.13016 -2.66463,-0.21934 -5.29981,-0.64608 -7.94267,-1.03457 -2.11987,-0.30404 -4.25541,-0.45909 -6.38152,-0.71055 -1.8808,-0.17534 -3.75496,-0.4017 -5.63118,-0.61856 -1.91243,-0.21286 -3.83573,-0.28885 -5.75779,-0.34985 -2.23949,-0.16259 -4.48445,-0.27106 -6.71949,-0.48783 -2.21917,-0.20648 -4.40762,-0.67897 -6.54068,-1.31516 -2.57048,-0.65769 -4.88262,-1.9917 -7.25382,-3.13883 -1.91366,-0.89121 -3.846978,-1.74009 -5.755724,-2.6417 -1.929913,-0.93683 -3.722034,-2.11514 -5.521108,-3.27525 -1.492637,-0.90475 -0.734285,-0.44535 -2.275314,-1.37821 -6.125257,-3.70793 -2.379728,-9.89571 3.745508,-6.18774 1.606161,0.9723 0.789586,0.47683 2.449462,1.48725 1.534261,0.98943 3.055983,2.00536 4.695836,2.81636 1.92633,0.91375 3.8825,1.76312 5.81257,2.66909 2.03397,0.98503 4.0062,2.16157 6.20944,2.72955 1.67042,0.52508 3.40555,0.86136 5.14697,1.03715 2.07333,0.21111 4.15957,0.28906 6.23683,0.4563 2.12341,0.0679 4.24789,0.15641 6.36033,0.39429 1.88182,0.21873 3.76122,0.44337 5.64772,0.62012 2.19401,0.25968 4.39889,0.41632 6.58565,0.73794 2.61501,0.3856 5.2221,0.80551 7.85895,1.02267 2.74095,0.37156 5.47017,0.83558 8.22482,1.1002 2.82609,0.28319 5.66087,0.47505 8.49405,0.67076 2.15225,0.19062 4.3024,0.40925 6.46472,0.44545 1.57684,-0.0428 3.1537,-0.10777 4.7253,-0.24857 1.92194,-0.17061 3.8389,-0.3955 5.76812,-0.4718 1.7606,-0.15093 3.50197,-0.42258 5.23482,-0.76946 1.94524,-0.29972 3.85736,-0.73584 5.76244,-1.22784 1.40538,-0.30937 2.76609,-0.74989 4.12327,-1.22421 1.62869,-0.54468 3.26081,-1.07909 4.91081,-1.5565 1.77362,-0.46766 3.552,-0.92735 5.36814,-1.20147 1.70238,-0.33298 3.38762,-0.74982 5.05034,-1.24437 1.8768,-0.51034 3.73395,-1.11665 5.54695,-1.81953 1.67544,-0.67931 3.31988,-1.45879 4.78886,-2.52439 1.0657,-0.84543 2.16725,-1.64342 3.15019,-2.58951 1.28809,-1.21508 2.58622,-2.41928 3.84008,-3.67058 0.85194,-0.84614 1.68746,-1.65828 2.24585,-2.7404 0.63482,-0.99725 1.29901,-1.9775 1.85674,-3.02152 0.55263,-0.92785 1.06197,-1.877 1.53479,-2.8484 0.43455,-0.81257 0.86675,-1.63643 1.16427,-2.50993 0.39723,-1.087 0.65435,-2.21493 0.97203,-3.32641 0.29574,-1.24569 0.60338,-2.49273 1.07901,-3.68453 0.39957,-1.05638 0.68712,-2.15558 1.05006,-3.22512 0.22713,-0.94997 0.37986,-1.92387 0.55966,-2.88303 0.22526,-1.23853 0.53664,-2.45701 1.02371,-3.62149 0.47591,-1.31864 1.08044,-2.58627 1.7048,-3.84007 0.34111,-0.58794 0.67316,-1.19257 0.96067,-1.80041 0.32682,-0.71346 -0.0659,-2.40019 0.0822,-3.22151 v -4.23178 c 0,-3.58007 1.80812,-5.37022 3.61632,-5.37022 0.15156,0 0.30168,0.0312 0.45217,0.0563 -0.0649,-0.17178 -0.10183,-0.35173 -0.18242,-0.51883 -1.94402,-4.03078 -0.58254,-6.96655 1.63401,-7.11636 z" /></clipPath></defs><g
     id="layer1"
     transform="translate(62.394812,378.14851)"><path
       style="fill:#000000"
       d="m 17.033439,-89.321507 c -5.31254,-0.5592 -10.5969696,-2.691606 -14.0856696,-5.683936 -3.47874002,-2.98378 -6.34912,-8.680367 -7.24924,-14.386897 -0.95655,-6.06429 -0.16536,-15.12556 1.9218,-22.00989 l 1.18551,-3.91033 -1.3482,-2.01896 c -0.74151,-1.11042 -1.55581,-2.82899 -1.80956,-3.81904 -0.40453,-1.57842 -0.55018,-1.77005 -1.18271,-1.55611 -0.39675,0.1342 -1.459538,0.31719 -2.361751,0.40666 -1.638598,0.1625 -1.640644,0.16439 -1.875931,1.73339 -0.149331,0.99581 -0.6168044,2.00495 -1.2771884,2.75709 -3.632003,4.13662 -12.332537,0.64506 -17.377256,-6.97357 -4.368685,-6.59767 -4.854423,-13.90982 -1.603834,-24.1436 1.263381,-3.97748 4.560174,-11.07293 6.922319,-14.89841 3.908123,-6.32918 10.998156,-14.25201 16.3571734,-18.2785 l 1.974338,-1.48342 0.22321,-4.15114 c 0.12276,-2.28312 0.31496,-4.624 0.42711,-5.20195 0.20064,-1.03401 0.13933,-1.08333 -3.832152,-3.08295 -14.5082234,-7.3048 -24.6096554,-18.14931 -29.8495724,-32.04537 -0.761076,-2.01835 -1.593186,-3.77884 -1.849134,-3.91221 -0.255948,-0.13337 -1.814734,-0.65708 -3.46397,-1.1638 -9.508072,-2.92132 -16.224857,-10.76759 -18.581541,-21.70619 -0.992137,-4.60503 -0.901865,-14.58295 0.170701,-18.86807 2.522881,-10.07944 9.606938,-17.84128 19.117186,-20.94627 l 2.293846,-0.74892 1.573559,-4.67462 c 1.929596,-5.73233 5.818145,-13.66181 9.125858,-18.60935 15.139043,-22.64437 40.286909,-36.44096 71.444609,-39.19585 5.83964,-0.51633 20.90782,-0.20396 26.15716,0.54224 17.83357,2.53508 33.339371,8.64904 46.336871,18.27072 13.88543,10.27899 23.2607,23.72622 28.69669,41.16052 l 0.81366,2.60957 1.88101,0.4774 c 4.32957,1.09885 9.90525,4.61505 13.44667,8.47988 2.60336,2.84111 5.25406,7.95958 6.45176,12.45829 0.70397,2.64418 0.79766,3.83257 0.79266,10.05417 -0.007,8.55456 -0.56216,11.28385 -3.53459,17.37308 -1.62761,3.33428 -2.35435,4.38515 -4.5533,6.5841 -3.73066,3.73066 -8.19957,6.195 -13.77866,7.59813 -1.37725,0.34637 -1.43562,0.42492 -2.43285,3.2734 -5.06232,14.4601 -16.22413,26.29609 -31.72378,33.63991 -2.42922,1.15098 -2.73592,1.40105 -2.56305,2.08981 0.42946,1.71111 0.89914,5.75791 0.90575,7.80404 l 0.007,2.16247 1.99457,1.50592 c 8.48689,6.40766 15.21454,14.67369 19.87887,24.42449 7.71096,16.11979 7.43008,27.58844 -0.88316,36.06065 -3.23728,3.29918 -6.71008,5.12148 -9.76012,5.12148 -3.70211,0 -5.56688,-1.41501 -6.07813,-4.61215 -0.21784,-1.36232 -0.24637,-1.38507 -1.73738,-1.38507 -0.83375,0 -1.82406,-0.23307 -2.20069,-0.51795 -0.96896,-0.73288 -1.21396,-0.66471 -1.21396,0.33778 0,1.28093 -1.21131,4.26135 -2.32572,5.72242 -0.90554,1.18721 -0.93992,1.35851 -0.5445,2.71318 2.57238,8.81279 3.45995,14.87864 3.09978,21.18477 -0.44999,7.87872 -2.31927,12.59571 -6.72129,16.960677 -4.172031,4.1369 -8.125361,5.87833 -14.810881,6.524142 -9.04474,0.873709 -17.84378,-2.007762 -22.42983,-7.345212 -1.9163,-2.23028 -4.05424,-6.411687 -4.91685,-9.616437 -0.73657,-2.7365 -1.44515,-8.23109 -1.44515,-11.20627 v -1.72904 l -6.47449,-0.0181 -6.47448,-0.0181 -0.20776,4.46722 c -0.38114,8.19557 -2.67362,14.73966 -6.53867,18.665177 -3.83484,3.89484 -8.64271,6.070952 -14.95111,6.767074 -1.88412,0.20791 -3.63037,0.356902 -3.88055,0.331093 -0.25019,-0.02581 -1.72213,-0.180317 -3.271,-0.343351 z m 9.87167,-6.534896 c 3.17419,-0.76934 5.59128,-2.005 7.62506,-3.89807 1.98873,-1.851137 3.84178,-5.228327 3.8365,-6.992027 -0.005,-1.73402 -1.53302,-4.46774 -3.5617,-6.3729 -4.95073,-4.64929 -13.03224,-7.2189 -19.35148,-6.15302 -6.8495496,1.15533 -13.0735596,6.69421 -13.0629796,11.62504 0.004,1.92295 1.18967,4.63452 2.86057,6.54265 4.34079,4.957097 13.5982496,7.200847 21.6540296,5.248327 z m 63.5,0.009 c 5.28894,-1.26028 9.952811,-4.821347 11.407911,-8.710447 0.93667,-2.50348 0.95593,-3.62854 0.0959,-5.59936 -1.52513,-3.49477 -5.584031,-6.73024 -10.319921,-8.2263 -4.77195,-1.50746 -10.30709,-1.1203 -15.55356,1.08791 -5.25749,2.21285 -9.79556,6.9619 -9.79556,10.25098 0,1.64632 1.9437,5.15468 3.83686,6.92551 4.61093,4.312987 12.871,6.048717 20.32842,4.271707 z m -50.29562,-20.084467 0.0248,-4.24611 -5.02708,-0.97989 c -5.96877,-1.16344 -13.96791,-3.27436 -19.02246,-5.01991 -3.94649,-1.36289 -10.2477996,-4.23939 -11.9641796,-5.46157 -0.58771,-0.41848 -1.14793,-0.68152 -1.24494,-0.58451 -0.72158,0.72159 -2.25152002,12.07773 -2.25215002,16.71688 -4.4e-4,3.26161 0.25174,3.58708 1.39371002,1.7987 1.1737,-1.8381 3.58363,-4.0869 5.68381,-5.30378 4.7340296,-2.743 12.0213996,-3.3626 18.1457896,-1.54283 4.74451,1.40977 8.05075,3.20074 10.58249,5.73248 1.19652,1.19652 2.39008,2.69355 2.65235,3.32674 0.416,1.0043 0.51045,1.06564 0.73997,0.48057 0.1447,-0.36886 0.27426,-2.58141 0.2879,-4.91677 z m 26.08285,3.38468 c 3.78644,-5.84346 14.60014,-9.9138 23.405,-8.80977 5.73816,0.71951 10.475941,3.58126 13.195501,7.97045 l 0.74606,1.2041 0.21105,-1.33918 c 0.24164,-1.53322 -0.276,-9.07155 -0.8413,-12.25188 -0.33937,-1.90927 -1.34825,-5.8693 -1.55786,-6.11485 -0.0442,-0.0518 -0.99512,0.45656 -2.113071,1.12976 -5.69324,3.42829 -16.64874,7.05141 -28.14558,9.30809 l -6.61298,1.29804 -0.002,3.03757 c -0.001,2.61358 0.30099,6.31104 0.5161,6.31104 0.038,0 0.57737,-0.78451 1.19869,-1.74337 z m -14.09301,-13.20344 c -0.0809,-0.0718 -2.68699,-1.75806 -5.79144,-3.74729 -12.83961,-8.22723 -21.60121,-15.37308 -29.20011,-23.81525 -3.19742,-3.55224 -7.8835396,-9.55048 -10.1974696,-13.05277 -1.70885,-2.58647 -4.52325,-7.72455 -4.52325,-8.25784 0,-0.32181 -0.12068,-0.3961 -0.31058,-0.19119 -0.44782,0.48324 -1.72625002,7.76696 -2.19502002,12.50597 -0.2277,2.30188 -0.30883,6.0584 -0.18754,8.68344 0.55192,11.94522 1.56480002,13.67299 10.63063962,18.13367 8.78278,4.32141 22.44468,8.00788 35.11554,9.47544 2.77795,0.32174 6.90788,0.4866 6.65923,0.26582 z m 9.24876,-0.58843 c 12.95591,-1.71828 24.93046,-5.02051 33.18238,-9.15073 5.3471,-2.6763 7.993221,-5.08627 8.886151,-8.09309 0.84386,-2.84158 1.39248,-9.97135 1.14656,-14.90044 -0.20955,-4.20009 -1.76014,-14.73211 -2.32028,-15.76001 -0.16795,-0.3082 -0.7195,0.4177 -1.60828,2.11666 -3.257641,6.2272 -6.557841,10.85973 -12.774401,17.93156 -9.10674,10.35965 -17.85894,17.54327 -33.43844,27.44557 l -1.76389,1.12113 1.63464,0.004 c 0.89905,0.002 4.07405,-0.31938 7.05556,-0.7148 z m -4.55595,-9.74807 c 6.00436,-4.08258 8.91871,-6.2716 12.78477,-9.60287 12.44383,-10.7225 21.21508,-21.24107 26.46674,-31.73918 4.612601,-9.22063 6.528981,-17.74879 6.531301,-29.06523 9.8e-4,-4.79706 -0.008,-4.85064 -0.79276,-4.8453 -0.43656,0.003 -0.96162,0.12204 -1.16679,0.26459 -0.20517,0.14255 -0.56631,2.79918 -0.802541,5.90362 -0.48134,6.32574 -1.56287,11.85831 -3.24123,16.58056 -5.03671,14.17125 -17.94371,29.96187 -34.74152,42.50331 -5.98463,4.4682 -8.82029,6.35641 -9.54587,6.35641 -1.48455,0 -13.49053,-8.63664 -19.20551,-13.8157 -12.63167,-11.44713 -21.28163,-23.36215 -25.0243596,-34.47018 -2.05586,-6.10158 -3.55064,-14.51066 -3.55064,-19.97459 v -2.97232 l -1.41339,-0.42346 c -0.77736,-0.2329 -1.50119,-0.33565 -1.6085,-0.22834 -0.10732,0.10732 -0.1895,2.80018 -0.18264,5.98414 0.0333,15.4214 5.37742,29.27892 16.8434296,43.67545 4.18837,5.25884 13.22294,13.78382 20.56888,19.40869 3.79176,2.90339 13.10339,9.13871 13.67091,9.15441 0.23654,0.007 2.22091,-1.20576 4.40972,-2.69401 z m 0.84471,-9.1466 c 7.1301,-5.07668 11.99401,-9.25685 18.4904,-15.89107 14.39837,-14.70387 21.12818,-28.40406 21.76659,-44.31128 0.10707,-2.66788 0.12191,-4.85069 0.033,-4.85069 -0.0889,0 -0.94457,0.22389 -1.90142,0.49753 -0.95685,0.27365 -2.64652,0.75258 -3.75483,1.06431 -1.46765,0.41278 -1.96261,0.70357 -1.82187,1.07034 0.28439,0.74111 -0.48168,5.2322 -1.31766,7.7248 -1.17707,3.5096 -3.41452,7.71283 -5.7918,10.88039 -4.80678,6.40466 -12.37372,13.51898 -19.2578,18.10588 -4.08148,2.71952 -10.27726,5.8123 -11.64379,5.8123 -3.52842,0 -14.30443,-6.73805 -22.10788,-13.82367 -9.71924,-8.82517 -15.85229,-18.79807 -16.82485,-27.35873 -0.27902,-2.45594 0.18472,-2.11302 -4.4150696,-3.26485 -0.87313,-0.21864 -1.89011,-0.48601 -2.25996,-0.59417 -0.64424,-0.1884 -0.66366,-0.006 -0.4627,4.34252 0.58239,12.60271 4.7678596,23.9378 12.9868696,35.17102 3.31096,4.5252 12.08794,13.53812 17.99464,18.47836 3.84221,3.21354 14.11895,10.61086 14.8205,10.66797 0.11927,0.01 2.57971,-1.66472 5.46766,-3.72096 z m -72.491684,2.0685 c 0.372075,-0.69523 0.288651,-1.25131 -0.557911,-3.71881 -1.263793,-3.68363 -1.620151,-7.94905 -0.737824,-8.83138 0.968778,-0.96877 2.177788,-1.09121 3.448272,-0.34921 1.588198,0.92756 2.629728,2.60451 3.0918154,4.97808 0.214866,1.10369 0.473247,2.43608 0.574179,2.96086 0.270989,1.40898 1.481445,1.66089 2.468232,0.51368 2.063221,-2.39863 1.239631,-9.48584 -1.650856,-14.20612 -0.914285,-1.49306 -0.936651,-1.58298 -0.165984,-0.66726 1.366529,1.62373 1.073693,0.26853 -0.366069,-1.69411 -2.2023224,-3.00215 -5.8157624,-4.74056 -9.0581364,-4.35781 -5.887199,0.69495 -9.073359,5.16664 -8.639246,12.12494 0.156652,2.51094 0.393526,3.40923 1.47717,5.60183 1.954111,3.95388 6.972207,8.65317 9.081754,8.50478 0.32841,-0.0231 0.793982,-0.40986 1.034604,-0.85947 z m 137.558235,-0.0324 c 1.868,-1.18741 4.83237,-4.35594 6.05927,-6.4766 1.59142,-2.75071 2.13564,-5.0217 1.95982,-8.17818 -0.20734,-3.7224 -1.22024,-6.08714 -3.47609,-8.11534 -5.0819,-4.56907 -12.43922,-2.99831 -15.48479,3.30595 l -0.76692,1.5875 1.17049,-1.25297 c 0.64376,-0.68914 0.97946,-1.00234 0.74599,-0.69599 -1.72665,2.26559 -3.27967,7.57519 -3.27967,11.21282 0,3.63167 1.04918,5.40999 2.85387,4.83721 0.71145,-0.22581 0.81213,-0.4825 1.39606,-3.55924 0.76295,-4.01995 3.07441,-6.58384 5.40767,-5.99823 2.18296,0.54789 2.45687,4.08813 0.72034,9.31036 -0.95142,2.86121 -1.05513,3.9708 -0.42961,4.59632 0.65231,0.65231 1.41543,0.51218 3.12357,-0.57361 z m -127.9040206,-23.6834 c 0.29988,-1.4256 0.45614,-2.87275 0.34723,-3.21588 -0.30215,-0.95198 -2.747136,-3.01291 -4.829521,-4.07088 -4.8700524,-2.47428 -10.0262184,-2.53029 -12.0452234,-0.13084 -0.772484,0.91805 -1.713623,3.01211 -2.506329,5.57667 -0.246434,0.79726 -0.215321,0.79158 1.172857,-0.21401 1.979884,-1.43422 4.141598,-1.96469 7.194004,-1.76537 3.01559,0.19692 4.899845,1.04878 7.3133374,3.30632 0.912152,0.85321 1.788181,1.4338 1.94673,1.29019 0.158549,-0.14361 0.178066,-0.0691 0.04337,0.16551 -0.210203,0.36618 0.470177,1.99841 0.726268,1.74231 0.05062,-0.0506 0.337389,-1.25843 0.637275,-2.68402 z m 116.6232306,0.77967 c 0.66284,-0.92163 1.20569,-1.78153 1.20633,-1.91088 6.4e-4,-0.12935 0.14568,-0.36748 0.32231,-0.52917 0.18658,-0.1708 0.21481,-0.10921 0.0674,0.14699 -0.42979,0.74686 0.16665,0.49124 1.41857,-0.60796 3.18852,-2.79955 9.23217,-2.69027 13.06913,0.23633 l 1.16271,0.88684 -0.65581,-1.90617 c -0.81953,-2.382 -1.94625,-4.61208 -2.60745,-5.16082 -1.01687,-0.84393 -4.35637,-1.24681 -6.87519,-0.82943 -2.94458,0.48793 -6.89353,2.40726 -8.60982,4.18466 l -1.29824,1.34447 0.54174,2.91042 c 0.29795,1.60073 0.65681,2.91041 0.79746,2.91041 0.14065,0 0.79805,-0.75406 1.46089,-1.67569 z m -0.73278,-0.26458 c 0,-0.097 0.0794,-0.17639 0.17639,-0.17639 0.097,0 0.17639,0.0794 0.17639,0.17639 0,0.097 -0.0794,0.17638 -0.17639,0.17638 -0.097,0 -0.17639,-0.0794 -0.17639,-0.17638 z m -59.031481,-0.76436 c -0.12935,-0.12935 -0.34101,-0.12935 -0.47037,0 -0.12935,0.12936 -0.0235,0.23519 0.23519,0.23519 0.2587,0 0.36454,-0.10583 0.23518,-0.23519 z m 3.77566,-0.7766 c 2.88989,-1.31034 9.47095,-5.49336 13.08234,-8.31534 1.56132,-1.22003 4.82314,-4.26879 7.24848,-6.77502 7.79143,-8.05125 11.87979,-15.21825 12.54769,-21.99642 0.28439,-2.88605 0.43284,-2.81018 -3.79337,-1.93873 -1.87198,0.386 -2.79232,0.77153 -3.35125,1.40381 -1.94305,2.19803 -8.61254,5.7176 -14.26712,7.52892 -6.43598,2.06163 -10.08078,2.61489 -16.00678,2.42973 -4.13365,-0.12915 -6.02507,-0.35899 -8.64305,-1.05026 -7.40201,-1.9545 -15.4583,-5.53607 -19.15721,-8.51668 -1.66843,-1.34444 -2.64584,-1.84531 -4.28995,-2.19839 -3.13375,-0.67299 -3.01117,-0.73651 -3.01117,1.5605 0,2.90578 0.81434,5.72156 2.82713,9.7755 2.13793,4.30598 4.38274,7.33554 8.95712,12.0884 6.16624,6.40683 17.78621,14.97271 20.87917,15.39148 0.56477,0.0765 1.66185,0.37008 2.43796,0.65246 0.77611,0.28238 1.63165,0.43722 1.90119,0.34408 0.29854,-0.10316 0.39381,-0.0136 0.24376,0.22921 -0.35861,0.58024 -0.0796,0.5088 2.39506,-0.61325 z m 8.68916,-6.22015 c 0,-0.097 0.0794,-0.17639 0.17639,-0.17639 0.097,0 0.17639,0.0794 0.17639,0.17639 0,0.097 -0.0794,0.17638 -0.17639,0.17638 -0.097,0 -0.17639,-0.0794 -0.17639,-0.17638 z m -66.2586196,-4.75801 c 1.01653,-3.10336 1.06387,-3.46272 0.65058,-4.93888 -0.71959,-2.57022 -1.40948,-5.93851 -1.94098,-9.47656 -0.27307,-1.81771 -0.5714,-3.37985 -0.66296,-3.47141 -0.0916,-0.0916 -0.45789,-0.01 -0.81405,0.18121 -1.009792,0.54216 -8.2369964,8.09441 -10.1781294,10.63589 -1.751419,2.29309 -5.109726,7.65054 -5.109726,8.15146 0,0.14742 0.589134,0.10537 1.309186,-0.0934 3.5416,-0.97788 11.4928024,1.64232 13.9202494,4.58721 l 0.82195,0.99716 0.45379,-1.61287 c 0.24958,-0.88707 0.94712,-3.11897 1.55009,-4.95976 z m 111.4805906,5.25057 c 2.83844,-2.66019 9.58764,-4.91784 13.21533,-4.42061 0.8442,0.11571 1.53491,0.0789 1.53491,-0.0818 0,-0.43579 -3.73599,-6.31251 -5.30029,-8.33736 -2.579,-3.33828 -9.80944,-10.40694 -10.64512,-10.40694 -0.1553,0 -0.28236,0.53483 -0.28236,1.18851 0,1.54134 -0.88376,6.64764 -1.8103,10.45972 l -0.73041,3.00517 1.07723,3.52122 c 0.59248,1.93667 1.1818,4.11652 1.30961,4.84413 0.12782,0.7276 0.2843,1.32292 0.34775,1.32292 0.0634,0 0.64109,-0.49273 1.28365,-1.09494 z m -50.160861,-24.52499 c 4.14639,-0.83344 10.63667,-3.12306 14.54818,-5.13226 1.96597,-1.00985 3.40586,-1.8923 3.19977,-1.961 -0.2061,-0.0687 -2.57713,0.21058 -5.26897,0.62061 -9.86483,1.50263 -28.2993,1.32189 -40.02992,-0.39249 -2.71824,-0.39726 -5.13223,-0.65581 -5.36441,-0.57456 -0.52937,0.18525 6.79263,3.73907 10.33757,5.01746 1.46338,0.52773 3.46687,0.97144 4.48296,0.99283 1.08821,0.0229 1.66345,0.1577 1.41111,0.33063 -0.2654,0.18188 -0.0935,0.25274 0.45593,0.18797 0.57467,-0.0678 0.84927,0.0555 0.78817,0.35373 -0.0516,0.25175 0.10717,0.42515 0.35278,0.38534 0.2456,-0.0398 0.71089,0.0438 1.03397,0.18589 2.16144,0.95037 9.29003,0.94319 14.05286,-0.0142 z m 0.52917,-12.48343 c 10.23137,-0.64102 20.79025,-2.30021 30.69166,-4.82279 19.977451,-5.08965 33.760441,-14.29395 41.360581,-27.62068 1.88731,-3.30938 4.62095,-10.2496 6.04791,-15.35456 2.3979,-8.57856 3.42958,-18.54109 3.1033,-29.96747 -0.33043,-11.57165 -1.69491,-19.68202 -4.99687,-29.70118 -3.68922,-11.19416 -8.39826,-19.11651 -16.10864,-27.10065 -2.54873,-2.63921 -5.84217,-5.77438 -7.31877,-6.96704 -13.095601,-10.57737 -31.319801,-17.44972 -51.368061,-19.3709 -5.14014,-0.49257 -17.48053,-0.2059 -22.75417,0.52858 -28.27098,3.93743 -50.710573,17.19543 -63.231761,37.35928 -5.816345,9.36651 -10.202498,22.32619 -11.548045,34.12078 -0.644116,5.64609 -0.838055,17.02976 -0.39302,23.0691 0.698612,9.48048 1.858282,15.15543 4.837748,23.67395 3.266664,9.33964 6.743951,14.94666 12.94723,20.87704 9.1125734,8.71167 22.1123984,14.50478 40.983688,18.26354 14.28969,2.84621 25.77581,3.76304 37.74722,3.013 z m -11.28889,-19.18734 c -3.15452,-0.99764 -5.62167,-2.85283 -7.2938,-5.48462 -1.72015,-2.70736 -0.99807,-5.31079 1.47296,-5.31079 1.17362,0 1.74865,0.49292 3.44673,2.95457 2.71318,3.9332 8.84346,4.07691 11.62409,0.27251 1.90841,-2.61104 2.64695,-3.22708 3.8688,-3.22708 2.10682,0 3.20625,2.01286 2.18042,3.99194 -2.7503,5.30595 -9.93368,8.50036 -15.2992,6.80347 z m -10.23056,-21.02477 c -28.7588196,-1.2741 -46.9368316,-4.43484 -54.824194,-9.53269 -8.020968,-5.1842 -10.744225,-12.25487 -10.731371,-27.86295 0.0069,-8.40265 0.76543,-14.38926 2.732503,-21.56653 5.865255,-21.40061 17.4282914,-32.83192 38.834182,-38.39179 19.67288,-5.10975 44.20714,-5.83484 65.35547,-1.93153 16.49009,3.04355 26.636581,7.36038 34.449051,14.65636 10.55956,9.86147 16.78852,27.369 16.78852,47.18692 0,23.07815 -6.9028,30.51889 -31.950751,34.4407 -6.00177,0.93972 -16.83508,2.07789 -25.19924,2.6475 -7.55378,0.51443 -27.36755,0.71226 -35.45417,0.35401 z m 30.1625,-4.94711 c 23.79052,-1.02792 41.338081,-4.03555 48.331811,-8.28401 4.12612,-2.50649 7.0438,-6.862 8.36479,-12.48698 0.51962,-2.2126 0.62978,-4.28618 0.62978,-11.85393 0,-9.78006 -0.15479,-11.24233 -1.97926,-18.69722 -2.84529,-11.62596 -6.69783,-19.05493 -12.8657,-24.80926 -6.65366,-6.20756 -16.553441,-10.51305 -30.134201,-13.10558 -11.99882,-2.29055 -20.65749,-3.00891 -32.80833,-2.72193 -13.24031,0.31271 -23.1293,1.66913 -34.11057,4.67876 -19.4312826,5.32552 -29.085452,15.31089 -34.083186,35.25246 -1.659229,6.62052 -2.444892,12.91018 -2.445704,19.57916 -0.0013,11.01625 1.52636,16.75738 5.642015,21.20278 5.088935,5.49666 17.03094538,8.56146 41.184945,10.56971 11.41651,0.94921 31.0224,1.24859 44.27361,0.67604 z M 3.9426294,-262.3159 c -9.911305,-2.15649 -17.9541644,-9.66829 -20.7804714,-19.40837 -4.480557,-15.44099 4.747263,-31.87537 20.1068514,-35.80948 3.81335,-0.97673 9.8839196,-0.99672 13.5819396,-0.0447 12.86209,3.31115 21.16666,14.12564 21.16666,27.56392 0,8.28056 -3.04574,15.26001 -9.09081,20.83198 -4.03143,3.71591 -7.99569,5.76707 -13.20751,6.83374 -3.2486,0.66486 -8.8008796,0.68039 -11.7766596,0.0329 z m 8.8921896,-4.44331 c 8.86443,-1.23293 16.11775,-7.30556 19.23348,-16.10266 1.03819,-2.93129 1.29204,-9.02744 0.52034,-12.49606 -1.85057,-8.31796 -8.63381,-15.33235 -16.89315,-17.46882 -2.93058,-0.75806 -8.2540496,-0.74371 -11.1917596,0.0302 -4.25477002,1.12082 -7.29524,2.89631 -10.604253,6.19238 -4.8467474,4.82779 -7.0346374,10.04231 -7.0346374,16.76605 0,6.52558 2.202417,11.90522 6.7204784,16.41548 3.957312,3.95048 8.251572,6.03895 13.740632,6.68262 1.26118,0.14789 2.40063,0.28976 2.53211,0.31526 0.13148,0.0255 1.4710196,-0.12499 2.9767596,-0.33441 z m -4.2741496,-5.61645 c -0.12754,-0.20637 0.26643,-0.36398 0.94932,-0.37977 0.6420396,-0.0148 1.4848496,-0.085 1.8728996,-0.15591 0.38806,-0.0709 1.2538,-0.23076 1.92387,-0.35524 2.03469,-0.37797 3.65149,-1.40945 6.64293,-4.23804 3.17806,-3.00505 3.6383,-4.00295 2.72949,-5.91812 -1.59914,-3.36993 -6.88656,-2.24883 -6.88656,1.46017 0,1.01674 0.2624,1.73075 0.92584,2.51919 0.50921,0.60516 0.8664,1.15387 0.79375,1.21935 -0.68453,0.61694 -4.14666,2.00427 -5.91134,2.36876 -1.9300896,0.39865 -2.4973596,0.37961 -4.5237096,-0.15186 -1.27429,-0.33422 -3.16488,-1.1381 -4.20132,-1.78639 -1.88441002,-1.17871 -1.88441002,-1.17871 -0.99188,-1.58538 1.30141,-0.59296 2.05766,-2.60569 1.55327,-4.13399 -1.06854,-3.23771 -5.42949,-3.55871 -6.6993,-0.49312 -0.61681,1.48911 -0.16756,3.30881 1.07502,4.35437 0.57548,0.48424 1.04633,1.03472 1.04633,1.22329 0,1.092 6.08258,5.34714 7.64355,5.34714 0.4353,0 0.50242,0.10903 0.23299,0.37846 -0.85299,0.85299 -6.13616002,-1.38661 -8.90366,-3.77437 -2.01599,-1.73936 -4.015954,-4.85837 -5.018051,-7.8258 -1.025395,-3.03642 -1.078279,-7.68595 -0.12493,-10.98392 1.260842,-4.3617 4.986601,-8.78136 9.168711,-10.87633 4.10985,-2.05877 9.8236896,-2.46993 13.9723196,-1.00542 6.40733,2.26185 11.06745,7.89947 12.02656,14.5492 1.0847,7.52055 -2.82244,15.20638 -9.36851,18.429 -3.43715,1.6921 -9.3368596,2.77055 -9.9275896,1.81473 z m -2.76752,-21.63043 c 1.54731,-1.02692 2.23836,-2.35801 2.23836,-4.31152 0,-3.03801 -2.19065,-5.23445 -5.17564,-5.18933 -2.08171002,0.0315 -3.65775002,1.02318 -4.63596,2.91713 -1.46199,2.8306 -0.55606,5.44352 2.41334998,6.96071 1.80103002,0.92022 3.37903002,0.80493 5.15989002,-0.37699 z m 1.5328,21.45404 c 0,-0.097 0.0794,-0.17639 0.17639,-0.17639 0.097,0 0.17639,0.0794 0.17639,0.17639 0,0.097 -0.0794,0.17639 -0.17639,0.17639 -0.097,0 -0.17639,-0.0794 -0.17639,-0.17639 z m 81.1654096,10.39954 c -15.37536,-3.24684 -25.30315,-17.83405 -22.44376,-32.97731 2.10188,-11.13158 10.18623,-19.75871 21.18251,-22.60469 3.72144,-0.96315 10.11238,-0.90522 13.687491,0.12407 10.07276,2.90003 17.55185,10.74624 20.00768,20.98982 0.95323,3.97602 0.94961,9.74693 -0.008,13.517 -2.46591,9.70336 -9.57932,17.33791 -18.87002,20.25248 -2.792931,0.87616 -10.768261,1.2872 -13.555421,0.69863 z m 11.21253,-5.29416 c 4.874051,-1.35067 9.009931,-4.09827 12.000831,-7.97255 3.53568,-4.57995 5.08238,-8.99816 5.10945,-14.59533 0.0204,-4.21392 -0.48928,-6.37233 -2.49338,-10.55952 -1.32722,-2.77297 -2.07121,-3.80337 -4.4639,-6.1823 -4.75237,-4.72504 -9.33033,-6.6714 -15.747611,-6.69525 -4.43815,-0.0165 -6.6082,0.46656 -10.57012,2.35288 -2.43246,1.15813 -3.54838,1.98451 -6.02508,4.46182 -5.12909,5.13033 -7.28108,10.6686 -6.93869,17.8571 0.29354,6.16294 2.38302,10.7669 6.98391,15.38838 2.82535,2.838 6.65188,5.09248 10.37671,6.11366 2.78656,0.76394 8.70833,0.67895 11.76788,-0.16889 z m -9.47517,-4.95078 c -4.62892,-0.79366 -10.17304,-4.81218 -12.42381,-9.00512 -3.15006,-5.86822 -2.60875,-14.18524 1.2658,-19.44844 6.63749,-9.0164 20.04788,-9.85237 27.651811,-1.72374 3.36235,3.59437 5.01349,7.67099 5.02146,12.39789 0.0102,6.04349 -2.88715,11.67185 -7.6284,14.81891 -3.86289,2.56404 -9.361811,3.73634 -13.886861,2.9605 z m 7.05556,-0.75322 c 3.004881,-1.30233 4.722331,-2.59347 8.521171,-6.40605 2.17224,-2.18007 0.6518,-5.87171 -2.41832,-5.87171 -1.68788,0 -2.849,0.78343 -3.511661,2.36941 -0.604,1.44558 -0.1556,3.317 0.986441,4.11691 0.66513,0.46587 0.60441,0.54588 -1.173531,1.54634 -4.34854,2.44697 -8.17646,2.28455 -13.27145,-0.56309 l -1.52546,-0.8526 1.05861,-0.64377 c 3.20416,-1.94857 1.98699,-6.67876 -1.71858,-6.67876 -3.04098,0 -4.65224,3.46811 -2.73403,5.88475 0.43656,0.55 0.96752,1.31624 1.17991,1.70276 0.21239,0.38652 1.05037,1.21275 1.86217,1.83607 0.81181,0.62332 1.49473,1.25832 1.51762,1.41111 0.10836,0.72359 2.99236,1.86691 6.81738,2.70264 0.96122,0.21002 3.33497,-0.0882 4.40973,-0.55401 z m -8.4803,-20.56099 c 3.05525,-1.57993 3.70449,-5.47055 1.35873,-8.14222 -3.46035,-3.94113 -9.92969,-0.59829 -8.94987,4.62458 0.25204,1.34348 1.70096,3.2479 2.8135,3.69797 1.18309,0.47861 3.68609,0.38413 4.77764,-0.18033 z m 60.867791,33.18291 c 4.33465,-2.01643 7.82714,-5.85371 9.36348,-10.28789 1.05267,-3.03822 2.1018,-9.62186 2.1018,-13.18953 0,-8.20742 -2.82362,-15.75405 -7.45119,-19.91463 -1.88544,-1.69517 -5.53323,-3.87773 -7.16586,-4.28749 -1.15258,-0.28928 -1.14601,-0.96985 -0.0513,5.31736 1.44924,8.3232 2.00763,21.88888 1.25606,30.51527 -0.31871,3.65803 -1.39202,10.504 -1.98358,12.65197 -0.20593,0.74771 -0.14228,0.80858 0.61573,0.58881 0.46497,-0.13481 1.95665,-0.76205 3.31484,-1.39387 z m -191.153387,0.6854 c -0.471942,-1.22986 -1.619731,-8.10211 -2.004741,-12.00314 -0.566808,-5.74306 -0.604712,-20.97406 -0.06365,-25.57639 0.23951,-2.03729 0.696663,-5.25385 1.015897,-7.14792 0.319234,-1.89406 0.476007,-3.54817 0.348385,-3.67579 -0.371409,-0.37141 -3.487291,1.23913 -5.832611,3.01477 -3.676943,2.7838 -6.57795,7.42935 -7.960638,12.74783 -0.912843,3.51123 -1.111634,10.77955 -0.400416,14.64028 1.784909,9.68908 5.286581,14.96152 11.707106,17.62732 2.432656,1.01003 3.482192,1.13274 3.190667,0.37304 z"
       id="path294" /></g></svg>
