<?xml version="1.0" encoding="UTF-8" standalone="no"?>
<!-- Created with Inkscape (http://www.inkscape.org/) -->

<svg
   width="260.70087mm"
   height="282.58777mm"
   viewBox="0 0 260.70089 282.58773"
   version="1.1"
   id="svg1"
   xml:space="preserve"
   xmlns="http://www.w3.org/2000/svg"
   xmlns:svg="http://www.w3.org/2000/svg"><defs
     id="defs1"><clipPath
       clipPathUnits="userSpaceOnUse"
       id="clipPath6"><path
         id="path7"
         style="fill:#ff0000;fill-opacity:1;fill-rule:nonzero;stroke:none;stroke-width:0.264583"
         d="M -175.07778,-16.057127 V 287.55793 H 124.54631 V -16.057127 Z m 132.7459,202.572647 c 0.210643,0.005 0.427212,0.0169 0.650089,0.0367 2.23823,0.19855 4.475655,0.4031 6.717938,0.55346 1.973313,0.11308 0.986628,0.0436 2.958475,0.20825 3.181295,0.26563 4.740125,1.85116 4.950601,3.46956 4.949923,1.63749 3.796379,7.35609 -2.592089,6.81354 -3.228716,-0.27422 -1.569593,-0.1301 -4.979024,-0.43357 -4.228209,-0.39317 -8.460616,-0.76265 -12.666927,-1.35341 -6.647387,-0.93358 -5.930551,-7.21034 0.03204,-7.20421 0.04685,5e-5 0.0972,0.004 0.144695,0.005 0.687229,-1.21692 2.304132,-2.15435 4.784204,-2.09548 z" /></clipPath><clipPath
       clipPathUnits="userSpaceOnUse"
       id="clipPath76"><path
         id="path77"
         style="fill:#ff0000;fill-opacity:1;fill-rule:nonzero;stroke:none;stroke-width:0.264583"
         d="M -133.83107,-122.52355 V 173.82063 H 122.97289 V -122.52355 Z M 13.574404,98.948202 c 2.788179,0.0507 4.135003,2.063798 3.398242,4.077268 0.199805,0.45372 0.374906,0.96736 0.517797,1.54461 1.07913,4.35948 0.671079,8.891 0.311608,13.31495 -0.351859,3.06036 -0.147137,1.57974 -0.604097,4.44366 -0.359666,2.25418 -1.333846,3.66838 -2.455664,4.32532 0.105138,0.36595 0.224724,0.72888 0.324528,1.09554 0.6273,2.23652 0.575201,4.47401 0.39429,6.75514 -0.137303,1.73129 -0.688065,2.99533 -1.427303,3.82199 -0.112477,0.41601 -0.170275,0.80219 -0.311092,1.25212 -0.184975,0.59102 -0.413327,1.1061 -0.670242,1.55856 0.741137,-0.23134 1.446982,-0.38145 2.064991,-0.37517 4.085002,0.0415 5.222724,4.75435 -0.02223,7.27138 -4.46677,2.14368 -9.303523,3.34693 -14.11903492,4.40955 -4.40876268,0.85156 -8.89238128,1.33053 -13.38264308,1.19269 -5.804014,-0.17807 -6.736297,-5.00293 -3.065447,-6.67298 -2.072987,-0.65744 -4.042852,-1.62261 -4.128947,-3.14709 -0.02802,-0.49633 0.0026,-0.90355 0.0341,-1.30897 -1.976731,-0.003 -3.95339,2.4e-4 -5.930386,0.003 -0.814031,0 -1.53062,-0.0962 -2.159559,-0.26149 -0.376306,0.19492 -0.742394,0.40783 -1.120862,0.59893 -6.391272,3.22657 -9.625245,-3.24074 -3.234428,-6.46886 1.833438,-0.92611 3.62694,-1.92211 5.414142,-2.92954 -0.877003,-3.87058 -1.368747,-7.83436 -1.323951,-11.80858 0.01651,-1.46304 0.376836,-2.54918 0.864547,-3.41426 -1.247357,-1.79999 -0.223805,-4.63069 3.842661,-5.68855 3.11826,-0.81116 6.282901,-1.39515 9.473837,-1.82211 -1.259816,-0.12657 -2.516182,-0.30233 -3.764627,-0.50177 -1.477002,-0.21985 -2.935575,-0.54305 -4.407482,-0.7891 -1.14214,-0.22954 -0.588502,-0.12004 -1.660882,-0.3297 -3.350244,-0.65501 -4.783278,-2.61088 -4.608504,-4.32997 -0.200179,-1.7721 1.333365,-3.52972 4.663799,-3.59461 v -5.3e-4 c 0.20954,-0.004 0.426035,-0.002 0.649571,0.008 1.77111,0.0772 3.528708,0.28204 5.26428,0.64027 1.655035,0.33225 3.314115,0.6481 4.955251,1.04439 1.244759,0.34858 2.51628,0.54538 3.7997689,0.6723 0.025956,0.002 0.052073,0.002 0.078034,0.004 0.4990888,-0.0371 0.9984105,-0.0743 1.4965495,-0.11317 1.346872,-0.12588 2.6913231,-0.25136 4.0457464,-0.24236 1.1278499,-0.0444 2.2567291,-0.10772 3.37498791,-0.26872 0.75719517,-0.11591 1.51142439,-0.25483 2.25722659,-0.4284 0.3616431,-0.12394 0.7240561,-0.24538 1.083138,-0.37775 0.3360393,-0.12388 0.6107589,-0.12825 0.9250071,-0.20723 0.1281086,-0.045 0.2583895,-0.0825 0.3855085,-0.13074 1.9825018,-0.7681 3.9540551,-1.56464 5.9510551,-2.29443 1.050809,-0.383992 1.999634,-0.542639 2.826703,-0.527616 z M 0.70283723,110.39557 c -0.45566013,0.0949 -0.90775367,0.208 -1.36890919,0.2744 -1.16638124,0.15534 -2.34111274,0.24237 -3.51761424,0.26251 0.4031694,0.0896 0.8047355,0.18876 1.2025101,0.308 0.1014836,0.0304 0.1982549,0.075 0.2986907,0.10852 0.4205235,-0.21824 0.9206601,-0.35072 1.4898318,-0.37156 0.39885139,-0.0146 0.83259872,0.0278 1.29449508,0.13023 0.22468681,-0.12213 0.44967525,-0.24374 0.67437529,-0.36587 -0.0326284,-0.11319 -0.058211,-0.22834 -0.0733795,-0.34623 z m 10.24433577,1.02474 c -0.76023,0.21437 -1.5189569,0.4343 -2.2696301,0.68006 -0.031261,0.62207 -0.2256075,1.28373 -0.6464723,1.94355 0.6236891,0.43248 1.2549743,1.04482 1.8634525,1.86862 0.2674939,0.36214 0.4748849,0.75712 0.7188199,1.13223 0.154519,-1.86707 0.314174,-3.74736 0.33383,-5.62446 z m 64.566086,3.39773 c 1.50346,0.0187 3.129182,1.24994 3.928441,4.04678 0.257931,0.90255 0.823497,1.65871 1.488797,2.30735 0.856321,0.95375 1.845738,1.76777 2.801898,2.61638 1.458581,1.46408 2.789203,3.04608 4.169772,4.58215 1.315059,1.44746 2.571226,2.91698 3.543967,4.61884 0.0053,0.01 0.0082,0.0206 0.01344,0.0305 0.734605,-0.43313 1.446276,-0.65634 2.094962,-0.69195 3.016182,-0.16561 4.69137,3.55377 1.187525,7.32306 -1.69471,1.82311 -3.657862,3.33908 -5.68751,4.7651 -0.777873,0.49914 -1.607691,0.90075 -2.418456,1.33842 0.165478,1.44344 -0.672182,3.24303 -2.956409,4.73096 -1.354556,0.88234 -2.690448,1.79306 -4.075203,2.6288 -2.075008,1.20078 -4.233777,2.27962 -6.540687,2.96259 -2.077586,0.62971 -4.169056,1.29987 -6.359301,1.36374 -1.872114,0.0897 -3.746989,0.0368 -5.620845,0.0501 h -5.1108 -5.524728 c -7.160125,0 -7.160125,-7.23315 0,-7.23315 h 1.347722 c 0.29438,-0.0541 0.5212,-0.1588 0.84801,-0.18656 1.106628,-0.094 2.200932,-0.28334 3.292822,-0.48421 0.456121,-0.98163 1.356053,-1.98213 2.807581,-2.83962 1.078018,-0.63685 2.158119,-1.26923 3.212209,-1.94561 1.962647,-1.29302 3.840588,-2.72135 5.893696,-3.86902 1.367169,-0.76424 2.559646,-1.07097 3.526915,-1.04128 2.216811,0.068 3.246223,1.90266 2.479953,4.04059 1.105688,-0.48686 2.206929,-0.98346 3.283003,-1.53739 2.619811,-1.23728 5.288743,-2.38548 7.764385,-3.9026 0.246153,-0.17184 0.487463,-0.34958 0.730705,-0.52503 -0.126915,-0.50614 -0.277693,-0.9939 -0.512114,-1.46554 -0.647621,-1.25778 -1.721077,-2.20654 -2.600875,-3.29644 -1.199229,-1.33472 -2.369312,-2.69496 -3.592029,-4.00803 -1.098706,-0.97599 -2.227236,-1.92181 -3.215306,-3.01428 -1.300821,-1.39063 -2.459913,-2.93896 -3.045293,-4.77801 -1.289469,-4.05101 0.646382,-6.61405 2.843754,-6.58667 z m -95.086705,4.28035 c -0.465643,0.10748 -0.930899,0.21773 -1.394745,0.33435 0.171958,0.64334 0.283575,1.36624 0.279569,2.2071 -0.01267,2.6582 0.205063,5.32647 0.670242,7.94732 0.280107,-0.17087 0.565767,-0.33222 0.845429,-0.50385 -0.01897,-0.36223 -0.02445,-0.73164 -0.05529,-1.08985 -0.118034,-2.96491 -0.160888,-5.93314 -0.3452,-8.89507 z m 18.5141159,1.1958 c 0.00497,0.0773 0.00619,0.15612 0.014975,0.23202 -0.1238779,0.22787 -0.2588048,0.44752 -0.3937741,0.66715 0.58900751,0.0447 1.13203305,0.21413 1.64331124,0.45888 -0.37615284,-0.49255 -0.78353709,-0.94642 -1.26452314,-1.35805 z m -6.5422357,14.57068 c -0.046649,0.0755 -0.09888,0.14702 -0.1436608,0.22376 -0.03147,0.054 0.1963367,0.0838 0.1860365,0.0222 -0.017595,-0.10481 -0.026035,-0.14905 -0.042376,-0.24597 z m 13.9236979,6.08439 c -0.2236258,0.5643 -0.5677508,1.09664 -1.1782213,1.50533 0.9079653,0.17659 1.7077452,0.44257 2.2830631,0.84852 0.1405493,-0.0459 0.272804,-0.11448 0.4128956,-0.16174 -0.7336976,-0.43656 -1.2984269,-1.18703 -1.5177374,-2.19211 z" /></clipPath><clipPath
       clipPathUnits="userSpaceOnUse"
       id="clipPath127"><path
         id="path128"
         style="fill:#ff0000;fill-opacity:1;fill-rule:nonzero;stroke:none;stroke-width:0.264583"
         d="M -112.24796,-126.55676 V 185.58027 H 148.5754 V -126.55676 Z M 46.874626,83.305366 c 1.808208,0 3.616317,1.790192 3.616317,5.370214 v 5.232238 c 0.0627,2.146078 -0.111291,4.285324 -0.245462,6.424932 -0.136289,2.02485 -0.190703,4.04985 -0.104904,6.07715 0.192061,1.91863 0.527714,3.82569 0.876432,5.72213 0.304242,2.00862 0.765826,3.9858 1.180806,5.97276 0.41642,1.86142 0.967934,3.68703 1.421104,5.53972 0.25287,0.86996 0.117097,0.46495 0.396356,1.22008 0.186108,0.50319 0.223428,0.93098 0.309544,1.38441 4.425355,2.23251 2.751262,7.58433 -3.415813,6.40477 -3.104732,-0.59371 -6.256094,-0.76586 -9.40821,-0.85576 -3.81635,0.009 -7.630525,0.17062 -11.44478,0.28216 -1.12776,0.0333 -2.255837,0.0512 -3.383772,0.0754 -0.908129,0.5548 -1.966518,0.57724 -2.88613,0.0641 -0.03584,5.3e-4 -0.07165,0.002 -0.107487,0.003 -0.03142,5.3e-4 -0.0525,-0.009 -0.08268,-0.009 -0.32049,0.14732 -0.641715,0.29301 -0.962215,0.44028 -0.262501,0.12062 -0.518089,0.22111 -0.770496,0.31265 -0.876996,0.71434 -1.945576,0.85817 -2.911967,0.46405 -2.943479,-0.21613 -4.295167,-2.77187 -2.550232,-5.0524 -2.22e-4,-0.028 -0.0078,-0.0483 -0.0078,-0.0765 v -6.3469 c -0.014,-2.72977 -0.02254,-5.45666 0.112657,-8.18348 0.135676,-2.32533 0.233519,-4.6523 0.299723,-6.98046 0.046,-1.80459 0.06926,-3.60958 0.08527,-5.41465 -0.0258,-1.02998 0.04009,-2.054459 0.138491,-3.078883 0.0044,-0.04602 0.02191,-0.07504 0.02687,-0.120406 C 15.992671,97.193438 15.83363,95.70984 16.656834,94.418959 10.68718,93.678613 10.992573,87.32947 17.739972,87.32947 h 3.885033 5.177462 5.913334 c 1.498505,0.05847 2.984222,-0.03228 4.475178,-0.161748 1.252041,-0.18606 2.49041,-0.398671 3.697968,-0.782897 1.001961,-0.32245 0.492366,-0.161472 1.527553,-0.482142 0.510384,-0.158096 0.938446,-0.174371 1.394749,-0.23771 0.672338,-1.56932 1.86623,-2.35903 3.063377,-2.35903 z" /></clipPath><clipPath
       clipPathUnits="userSpaceOnUse"
       id="clipPath139"><path
         id="path140"
         style="fill:#ff0000;fill-opacity:1;fill-rule:nonzero;stroke:none;stroke-width:0.264583"
         d="M 97.168006,-339.91235 V -44.578961 H 346.46958 V -339.91235 Z m 14.326254,94.53944 c 1.76488,0.006 3.77708,1.78446 4.35839,5.31699 0.32911,1.99994 0.60308,4.00817 0.88884,6.01462 1.02527,-1.2445 2.22305,-1.83589 3.28403,-1.8402 2.05627,-0.008 3.59454,2.17302 2.34611,6.00222 -0.0197,0.0606 -0.0413,0.12046 -0.0615,0.18087 0.31698,0.91799 0.41757,2.09982 0.17777,3.54139 -0.2164,1.30085 -0.62011,2.56457 -1.0263,3.8163 -1.34183,4.13496 -4.42238,4.92072 -6.12882,3.38016 -1.93867,0.62007 -4.30523,-0.86149 -4.65605,-4.82762 -0.16862,-1.90632 -0.33891,-3.81275 -0.57464,-5.71231 -0.45291,-3.52522 -1.07719,-7.02592 -1.48208,-10.55543 -0.40801,-3.55672 1.10935,-5.32303 2.87424,-5.31699 z" /></clipPath><clipPath
       clipPathUnits="userSpaceOnUse"
       id="clipPath170"><path
         id="path171"
         style="fill:#ff0000;fill-opacity:1;fill-rule:nonzero;stroke:none;stroke-width:0.264583"
         d="M 88.756261,-299.52331 V 17.880567 H 410.91541 V -299.52331 Z M 363.24287,-220.863 c 0.90345,-0.008 1.97628,0.23856 3.18532,0.82218 3.39402,1.63831 6.49674,3.81197 9.57823,5.96449 3.22509,2.31448 6.37511,4.73585 9.43663,7.26261 1.87296,1.50796 3.75989,2.99047 5.54284,4.6054 1.76167,1.54167 3.42262,3.17283 4.95419,4.94388 1.19316,1.48882 2.47049,2.9032 3.73311,4.33204 1.08043,1.20022 2.09423,2.45631 2.94299,3.83026 0.82616,1.73429 1.48968,3.55524 1.93786,5.42344 1.67031,6.96258 -5.76469,8.62686 -7.05745,1.5844 -0.21127,-1.15093 -0.75649,-2.20765 -1.10278,-3.32021 -0.52141,-1.02678 -1.43909,-1.82952 -2.14042,-2.72904 -1.28368,-1.45272 -2.58234,-2.89095 -3.79617,-4.40386 -1.32794,-1.55409 -2.79577,-2.95456 -4.33049,-4.3031 -1.69875,-1.54267 -3.51006,-2.94207 -5.29113,-4.38733 -2.90883,-2.40671 -5.90918,-4.70386 -8.97258,-6.91017 -2.63017,-1.83963 -5.2759,-3.68008 -8.12096,-5.17746 -5.14813,-2.7095 -4.41412,-7.50431 -0.49919,-7.53753 z m -17.79788,14.64304 c 0.81097,-0.004 1.74701,0.16947 2.79104,0.57154 4.59168,1.76834 8.99191,4.00303 13.38523,6.20892 0.37082,0.1876 0.72266,0.4088 1.09088,0.601 0.4155,-0.11565 0.91038,-0.17484 1.48572,-0.16691 0.65984,0.009 1.42523,0.10601 2.29753,0.30644 2.35556,0.54125 4.30075,1.95473 6.16344,3.42614 -1.07651,-2.72314 0.34142,-4.84679 2.57866,-4.84311 1.28683,0.002 2.83083,0.70484 4.29689,2.3952 2.44776,2.82227 4.79147,5.70892 6.96391,8.74934 1.67944,2.35043 1.72027,4.43615 0.89969,5.70663 1.5344,1.02281 3.07247,2.04019 4.58422,3.09645 1.80695,1.14136 3.31928,2.58833 4.72631,4.18269 0.96689,1.16625 2.0869,2.25988 2.79262,3.61942 0.19542,0.37651 0.34592,0.77482 0.51882,1.1622 0.40259,1.55462 0.27207,0.76263 0.38706,2.3766 0.0637,0.89436 -0.044,1.45412 -0.26977,1.7756 0.11753,0.20753 0.23421,0.41574 0.35608,0.62063 3.66003,6.15399 -2.6856,9.845 -6.25234,3.63648 -0.83209,-1.44832 -1.62388,-2.92102 -2.35437,-4.42351 -0.84839,-1.84687 -1.70402,-3.69055 -2.54093,-5.54229 -0.078,-0.17246 -0.14713,-0.34128 -0.2119,-0.5085 -0.415,-0.33988 -0.82071,-0.68775 -1.29707,-0.97255 -2.35545,-1.64933 -4.79565,-3.17384 -7.14841,-4.82761 -3.27895,-2.27743 -6.61384,-4.47194 -9.95804,-6.65231 -4.00886,-2.60003 -8.08797,-5.09434 -12.3548,-7.25434 -4.08429,-2.05175 -8.1752,-4.1242 -12.42663,-5.81101 -5.61546,-2.22804 -4.88331,-7.4129 -0.50384,-7.43314 z m -225.34594,21.50101 c 3.05551,-0.16929 4.03285,3.80875 0.35915,7.72563 -1.17612,1.25397 -2.32696,2.59265 -3.45922,3.90674 -1.44062,1.57315 -2.77631,3.23874 -4.13618,4.88135 -1.14319,1.4697 -2.29319,2.93265 -3.46335,4.38113 -0.8717,1.2084 -1.86054,2.32105 -2.81017,3.46594 -0.80685,0.95022 -1.53489,1.96075 -2.32234,2.92695 -0.80594,1.00684 -1.52017,2.08004 -2.22519,3.15847 -0.20511,0.28103 -0.29499,0.51935 -0.30179,0.78909 -0.18033,7.15787 -8.659963,5.5717 -7.093102,-1.4149 0.267098,-1.19094 0.644303,-2.32859 1.347721,-3.34243 0.846108,-1.28566 1.701136,-2.56663 2.670121,-3.76463 0.806525,-0.98525 1.5446,-2.0236 2.37453,-2.98999 0.93132,-1.109 1.88214,-2.2008 2.7342,-3.37448 1.18855,-1.47082 2.35327,-2.95822 3.51813,-4.44779 1.39067,-1.67946 2.758,-3.38112 4.2292,-4.99142 1.55862,-1.80675 3.07205,-3.68494 4.92528,-5.20227 1.38505,-1.13397 2.63451,-1.65096 3.65301,-1.70739 z m 30.4953,3.26389 c 4.11093,0.0973 5.25218,4.81763 -0.0434,7.22591 -1.93926,0.8819 -3.80509,1.88928 -5.66115,2.92437 0.381,1.39299 -0.23993,3.26566 -2.43035,4.98678 -2.3369,1.83618 -4.71607,3.61825 -7.08845,5.40845 -2.84267,2.19936 -5.66068,4.43162 -8.41086,6.74584 -2.22216,1.84972 -4.46469,3.67225 -6.66213,5.55109 -1.67979,1.46598 -3.37138,2.91821 -5.06067,4.37337 -1.40892,1.30469 -2.82191,2.592 -4.12274,4.00648 -1.07181,1.16531 -2.16701,1.83049 -3.17087,2.10529 -0.88357,6.53411 -7.65001,5.87099 -7.10344,-1.07177 0.0596,-0.75732 0.12015,-1.51435 0.21239,-2.26859 0.18237,-1.4495 0.31176,-2.90657 0.57051,-4.34444 0.56059,-2.2771 1.55106,-4.35314 3.32124,-5.95312 1.46716,-1.38711 2.94871,-2.75912 4.4943,-4.05919 1.45063,-1.21601 2.91967,-2.40825 4.4111,-3.57394 2.2284,-1.75259 4.48249,-3.46927 6.81044,-5.08961 3.1083,-2.16601 6.29001,-4.21936 9.5343,-6.17689 3.28252,-2.04598 6.49796,-4.19789 9.78648,-6.23476 2.38673,-1.38679 4.82146,-2.65715 7.33495,-3.79873 1.22236,-0.55516 2.32966,-0.77899 3.27836,-0.75654 z" /></clipPath><clipPath
       clipPathUnits="userSpaceOnUse"
       id="clipPath233"><path
         id="path234"
         style="fill:#ff0000;fill-opacity:1;fill-rule:nonzero;stroke:none;stroke-width:0.264583"
         d="M 185.24069,-319.24193 V -24.289387 H 425.09684 V -319.24193 Z m 138.35487,149.6534 c 1.78419,7.9e-4 3.63037,1.79012 3.80182,5.36608 0.0643,1.33996 -0.0719,2.65433 -0.29041,3.95842 0.27255,-0.0735 0.56767,-0.11689 0.88522,-0.12351 0.37047,-0.008 0.77026,0.0328 1.19579,0.12867 0.38629,-0.24279 0.8215,-0.42195 1.34254,-0.44493 1.13073,-0.0499 2.53823,0.47335 4.04474,1.80971 0.4186,0.37135 0.80759,0.77178 1.2056,1.16323 0.49581,-0.30652 1.09744,-0.47283 1.77559,-0.44028 1.18851,0.0571 2.59295,0.69888 3.98788,2.15129 2.63375,2.74227 4.82211,5.85047 6.92256,9.00669 2.43144,3.88376 4.79634,7.81591 6.98098,11.84475 1.13959,2.01485 2.36363,3.97199 3.24527,6.11746 0.86638,2.54168 0.71525,4.37292 -0.15348,6.88278 -0.88855,2.03627 -2.18951,3.83746 -3.64937,5.49682 -1.22616,1.21887 -2.44396,2.51198 -3.976,3.35587 -0.38219,0.21053 -0.79187,0.3659 -1.18803,0.54881 -6.50071,3.00135 -9.83602,-5.23462 -2.81948,-6.6611 1.07346,-0.21823 1.75532,-1.41088 2.56987,-2.0407 0.86323,-0.96375 1.62015,-2.00233 2.25208,-3.13417 0.24334,-0.63932 0.47847,-1.05078 0.24958,-1.76114 -0.42873,-1.13152 -1.03555,-2.17502 -1.65674,-3.21169 -0.64492,3.08426 -3.96214,3.78517 -6.03631,0.97152 -0.80928,1.85722 -3.53859,2.62684 -6.75775,0.30902 -0.53872,-0.38787 -1.07831,-0.77486 -1.61745,-1.1622 -3.08248,4.62545 -3.94671,5.04673 -6.74584,2.87063 -2.73204,-2.16473 -5.33615,-4.48821 -8.05999,-6.6642 -2.7461,-2.45053 -5.40757,-5.07957 -7.04763,-8.42635 -1.62115,-0.12575 -3.24178,-0.2569 -4.86637,-0.34314 -7.58719,-0.44787 -15.17743,-0.9445 -22.76553,-1.33377 -1.07801,-0.0553 -1.93227,-0.3045 -2.68459,-0.62166 -0.57677,0.62929 -1.1192,1.29485 -1.64021,1.97352 -1.38696,2.1585 -2.2854,4.54313 -3.09181,6.96185 -0.53658,1.90527 -0.93866,3.84574 -1.3658,5.77949 0.3976,-0.38181 0.79402,-0.76498 1.19114,-1.14825 1.44902,-1.39846 2.84121,-1.97983 3.98373,-1.97766 2.91995,0.006 4.20899,3.82009 0.64648,7.53391 -0.92629,0.96557 -1.9114,1.86859 -2.9099,2.75797 -1.78302,1.58814 -3.50499,2.03887 -4.81263,1.76372 -0.007,0.0412 -0.0189,0.0812 -0.0253,0.12247 -0.31138,2.1774 -0.34632,4.38158 -0.39739,6.57686 0.006,3.5147 -0.15426,7.02208 -0.44287,10.52391 -0.15049,2.45352 -0.52882,4.882887 -0.77928,7.326166 -0.25682,2.270699 -0.2357,4.548968 -0.1633,6.828007 0.0525,1.43787 0.0261,0.723201 0.0775,2.145088 7.9e-4,0.02175 -0.006,0.03573 -0.006,0.05736 0.13966,0.0486 0.27673,0.09115 0.42013,0.148309 3.73047,1.486969 7.59999,2.598727 11.41894,3.833876 4.85884,1.705695 9.66861,3.546912 14.50144,5.32474 1.9552,0.651698 3.84707,1.443672 5.71489,2.292366 2.6308,-0.638411 5.26049,-1.281708 7.89771,-1.893425 4.5737,-1.075436 2.35597,-0.547624 6.65438,-1.580782 0.65268,-0.156879 1.2592,-0.237268 1.81642,-0.252698 3.40876,-0.09437 4.96226,2.238663 4.05712,4.350639 3.89832,1.612736 3.00805,6.568553 -2.90269,6.729304 l -2.19726,0.05943 c 0.0932,0.05532 0.18872,0.106439 0.28112,0.163298 6.09814,3.752323 2.1299,10.065517 -3.84782,6.124173 -1.04591,-0.689594 -2.23735,-1.127543 -3.31556,-1.763197 -2.61015,-1.251701 -5.22853,-2.484003 -7.87136,-3.665926 -0.34703,-0.170111 -0.69536,-0.335955 -1.04283,-0.504362 -1.04394,0.228952 -2.09238,0.441277 -3.15071,0.537951 -0.41145,0.100483 -0.82417,0.195434 -1.23558,0.296105 -3.95687,0.968251 -6.08679,-0.907356 -5.97897,-3.010669 -0.31188,-0.687727 -0.239,-1.395294 0.0263,-2.059305 -3.87146,-1.438614 -7.73769,-2.891312 -11.63237,-4.265891 -3.97417,-1.285444 -7.99945,-2.446282 -11.87938,-4.000272 -1.44639,-0.579335 -2.44377,-1.350957 -3.06182,-2.17506 -1.01218,-0.798706 -1.81304,-2.231819 -1.89446,-4.484998 -0.0517,-1.431189 -0.0254,-0.705106 -0.0791,-2.177645 -0.0816,-2.602558 -0.0903,-5.205841 0.19844,-7.79849 0.24823,-2.394268 0.6146,-4.775082 0.76533,-7.179412 0.27808,-3.36008 0.42763,-6.72542 0.42064,-10.09809 0.0594,-2.5132 0.11189,-5.03614 0.48266,-7.52719 0.38072,-2.41928 0.90466,-4.80615 1.46451,-7.18974 0.6701,-2.94551 1.25825,-5.91529 2.11305,-8.81393 1.0668,-3.18776 2.31041,-6.31647 4.23489,-9.10074 0.42128,-0.53977 0.8547,-1.07136 1.29914,-1.59215 -1.52816,-0.60355 -3.06641,-1.18197 -4.57646,-1.83141 -1.09038,3.76762 -2.19021,7.53001 -3.40755,11.25926 -1.05961,2.97655 -0.54118,1.54568 -1.55081,4.2938 -1.83358,4.9908 -6.03644,4.88509 -7.07398,1.75544 -2.82634,3.52841 -7.50378,1.0111 -5.57744,-4.75268 1.05408,-3.1537 2.2385,-6.34595 4.49688,-8.85837 1.49582,-1.66408 2.97572,-2.34765 4.17287,-2.32647 0.33252,0.006 0.64298,0.0664 0.92604,0.17518 0.46945,-1.58214 0.96416,-3.15651 1.43919,-4.7377 0.70062,-2.33196 1.93737,-3.52641 3.18689,-3.8871 0.54142,-0.34307 1.25019,-0.55529 2.11615,-0.57361 h 5.3e-4 c 0.8057,-0.017 1.74503,0.13149 2.80396,0.49248 0.31645,0.10788 0.63769,0.20324 0.94929,0.32401 1.83624,0.71133 3.60046,1.59642 5.43016,2.32544 1.18096,0.47048 2.26953,0.84228 3.35329,1.23145 0.62902,-0.20883 1.22424,-0.32846 1.76785,-0.35037 2.28614,-0.0921 3.73455,1.32842 3.67523,3.07682 1.73917,0.0925 3.47854,0.18832 5.21777,0.2899 -0.1345,-1.7899 1.43141,-3.54652 4.54959,-3.56619 0.39587,-0.002 0.816,0.0231 1.25987,0.0801 3.99155,0.51285 7.97638,1.04608 11.94346,1.72703 0.35092,0.0747 0.7018,0.14913 1.05265,0.22376 0.92028,-2.09088 2.0607,-3.80586 3.79408,-5.38675 0.9172,-0.8245 1.6747,-1.80494 2.07378,-2.98587 0.46483,-1.35061 0.4893,-2.77914 0.4594,-4.19561 h 5.3e-4 c -0.0754,-3.57927 1.64663,-5.36691 3.4308,-5.36608 z m 1.97559,14.00741 c -0.78838,1.39934 -1.79816,2.66075 -2.96984,3.79512 -1.06213,0.94584 -1.80404,2.02586 -2.28153,3.3538 -0.003,0.012 -0.005,0.0237 -0.009,0.0357 1.15411,0.11311 2.30814,0.22665 3.4613,0.3514 3.99042,0.43171 5.40747,2.84663 4.69323,4.76353 0.67585,0.41545 1.35041,0.83313 2.01954,1.25626 3.82278,2.5036 7.53266,5.1715 11.24013,7.84086 -1.81731,-3.68096 -3.93583,-7.19476 -6.36087,-10.5146 -1.10355,-1.48555 -2.20805,-3.00054 -3.36206,-4.44883 -0.35653,-0.44747 -1.7607,-2.16704 -2.34455,-2.70784 -0.36042,-0.33384 -0.93237,-0.68033 -1.36375,-0.9555 -1.33122,-0.84918 -2.21667,-1.81673 -2.72282,-2.76986 z" /></clipPath><clipPath
       clipPathUnits="userSpaceOnUse"
       id="clipPath240"><path
         id="path241"
         style="fill:#ff0000;fill-opacity:1;fill-rule:nonzero;stroke:none;stroke-width:0.264583"
         d="M 92.804184,-309.23338 V -41.629034 H 294.29938 V -309.23338 Z m 130.496946,63.74443 c 0.93337,0.009 2.02072,0.27397 3.21944,0.8785 1.75312,0.88412 3.43212,1.89553 5.06326,2.98586 5.9527,3.97906 1.8926,10.01797 -4.03542,6.00222 -1.36849,-0.92705 -2.78857,-1.76849 -4.26227,-2.51871 -5.18448,-2.63926 -4.02961,-7.38891 0.015,-7.34787 z m -85.24544,1.99626 c 3.36772,-0.0906 4.87054,3.93317 0.67437,7.28431 -0.81214,0.6486 -0.42273,0.34746 -1.1653,0.9064 -1.7275,1.42217 -3.47209,2.82263 -5.29477,4.12275 -2.09112,1.47372 -4.25636,2.82668 -6.45645,4.13153 -6.15846,3.65253 -10.39165,-1.95967 -4.33979,-5.78621 2.21999,-1.40367 4.47897,-2.73503 6.6244,-4.25349 1.67688,-1.19734 3.27994,-2.48915 4.86947,-3.79821 0.91499,-0.69918 0.50268,-0.37435 1.24076,-0.9679 1.39493,-1.12177 2.72473,-1.60899 3.84731,-1.63918 z" /></clipPath><clipPath
       clipPathUnits="userSpaceOnUse"
       id="clipPath251"><path
         id="path252"
         style="fill:#ff0000;fill-opacity:1;fill-rule:nonzero;stroke:none;stroke-width:0.264583"
         d="m 50.06164,-325.07443 v 245.270816 h 202.0347 V -325.07443 Z m 191.06172,72.239 c 1.42195,-0.0396 3.11835,0.92332 4.44418,3.2582 0.80855,1.42391 1.33311,2.97097 1.71979,4.55476 0.38267,1.85761 0.50306,3.75527 0.49506,5.64772 0.007,1.66837 -0.28067,3.30966 -0.52503,4.95318 -0.26767,2.07853 -1.32063,3.82386 -2.54249,5.47306 -0.98598,1.19805 -2.03839,2.33999 -3.16208,3.40961 -0.37488,0.32054 -0.76867,0.61405 -1.09502,0.98443 -4.73356,5.37222 -10.25077,0.0313 -5.19193,-5.03587 0.41783,-0.41852 0.82603,-0.84961 1.30896,-1.19579 0.83199,-0.78568 1.60086,-1.63171 2.34973,-2.49649 0.52191,-0.686 1.06794,-1.32103 1.17874,-2.204 0.19629,-1.31742 0.44949,-2.62948 0.44648,-3.9672 0.0288,-1.3072 -0.0809,-2.61845 -0.30179,-3.90725 -0.20137,-0.91522 -0.51051,-1.80281 -0.96014,-2.62775 -2.14172,-3.92928 -0.53435,-6.78057 1.83554,-6.84661 z m -24.00732,134.01508 c 1.58088,-0.0452 3.27238,1.29937 3.90106,4.36821 0.19779,0.96552 0.49313,1.88927 0.87385,2.79466 0.57738,1.31117 0.86222,2.69631 0.9741,4.11603 0.0779,1.63421 -0.38657,3.16522 -1.00976,4.65191 -0.60784,1.37091 -1.55916,2.5173 -2.50579,3.660755 -0.2566,0.333243 -0.50348,0.67224 -0.76223,1.002525 -0.0721,0.651052 -0.19323,1.300012 -0.35502,1.949752 l -0.4842,1.22783 c -0.70346,1.782932 -1.87803,2.754204 -3.12126,3.127457 -0.38818,0.593834 -0.73665,1.213207 -1.1529,1.788007 -0.78123,1.206815 -1.75001,2.262322 -2.80138,3.23546 -1.04259,0.90742 -2.26203,1.551003 -3.47214,2.198833 -0.81145,0.41652 -1.66264,0.737227 -2.52439,1.030428 -6.77856,2.306214 -9.10653,-4.670343 -2.28979,-6.86108 0.48258,-0.155091 0.95367,-0.335381 1.41232,-0.552421 0.68902,-0.364839 1.38726,-0.713642 2.01745,-1.175639 0.71797,-0.616461 1.30017,-1.358352 1.82004,-2.146123 0.66383,-0.892056 1.26802,-1.828112 1.8216,-2.792076 0.59882,-1.12436 1.07283,-2.316203 1.82056,-3.358968 0.0117,-0.0166 0.0249,-0.032 0.0367,-0.0486 -0.84786,-3.67928 0.87949,-5.67892 2.87217,-5.69422 0.38363,-0.003 0.77643,0.0723 1.16324,0.21859 0.15519,-0.3579 0.298,-0.71847 0.29042,-1.1188 -0.0398,-0.54898 -0.18359,-1.13581 -0.4191,-1.66191 -0.48947,-1.16893 -0.89792,-2.36312 -1.1591,-3.60547 -0.82863,-3.94139 1.021,-6.29698 3.05356,-6.35516 z" /></clipPath></defs><g
     id="layer1"
     transform="translate(74.721419,360.42643)"><path
       style="fill:#000000"
       d="m 16.62288,-78.511233 c -6.7183302,-1.417443 -9.6539802,-3.92972 -10.3794702,-8.882596 -0.44478,-3.03645 1.27755,-12.16426 3.58573,-19.003321 0.4911302,-1.45521 1.6857902,-4.515 2.6547902,-6.79953 l 1.76182,-4.15369 -1.9439,-2.09964 c -1.06914,-1.1548 -2.04588,-2.42095 -2.17052,-2.81367 -0.12464,-0.39272 -0.3349902,-0.70767 -0.4674302,-0.6999 -0.13245,0.008 -0.87249,1.37828 -1.64455,3.04557 -2.52568,5.45437 -6.79449,11.40419 -8.18214001,11.40419 -0.29467,0 -0.98999999,-0.32345 -1.54517999,-0.71877 l -1.00941,-0.71876 -1.45177,1.05165 c -3.18125,2.30449 -8.0464898,2.79703 -11.6865198,1.18311 -2.17479,-0.96426 -4.38834,-3.29959 -5.14388,-5.42686 l -0.61103,-1.72037 h -1.81719 c -6.50685,0 -11.14351,-8.11535 -8.56864,-14.99732 0.7044,-1.88267 0.71083,-2.0271 0.14356,-3.22253 -1.034,-2.17899 0.0411,-5.18075 3.52826,-9.85111 4.34507,-5.81938 9.88527,-10.49376 27.45894979,-23.1677 2.49037001,-1.79603 4.55412001,-3.40835 4.58611001,-3.58293 0.032,-0.17459 -2.16433,-0.75465 -4.88072,-1.28902 -8.76384,-1.72405 -18.1612298,-4.31573 -23.7014598,-6.53657 -8.13468,-3.26085 -14.66748,-8.70011 -17.65221,-14.69737 l -1.13054,-2.2716 -2.394,-0.62924 c -16.00317,-4.20629 -25.52868,-14.41403 -28.16537,-30.1826 -0.93441,-5.58821 -0.57661,-13.61318 0.85497,-19.17562 1.92027,-7.46123 5.50476,-13.46034 10.56452,-17.6811 l 2.53742,-2.11667 -0.09,-24.99443 -0.09,-24.99443 -1.66633,-0.6325 c -4.20282,-1.59529 -8.42249,-5.84569 -10.14705,-10.22095 -0.95117,-2.41312 -1.29417,-6.91679 -0.73223,-9.61427 0.87913,-4.22009 3.84927,-8.56073 7.43011,-10.85854 5.37342,-3.44812 12.96228,-3.4215 18.43374,0.0646 3.71724,2.36843 6.20976,6.198 7.20251,11.06611 0.47683,2.33823 0.50311,3.22809 0.16082,5.44524 -0.87838,5.68959 -4.56607,10.81675 -9.65596,13.42508 l -2.37995,1.21961 -10e-4,20.54931 c -7.2e-4,11.30211 0.0473,20.5493 0.10672,20.5493 0.0594,0 1.52785,-0.60298 3.26319,-1.33997 l 3.15517,-1.33996 0.094,-1.39406 c 0.50094,-7.42652 2.49088,-20.52505 3.80941,-25.07502 3.24002,-11.18066 11.01031,-18.92051 23.87284,-23.77932 2.97331,-1.12316 3.08926,-1.20868 3.29253,-2.42833 1.29454,-7.76755 7.1004598,-12.72945 14.89470979,-12.72945 3.51223001,0 5.76716001,0.75431 7.53260001,2.51975 0.74845,0.74845 1.44019,1.36081 1.5372,1.36081 0.097,0 0.17949,-1.23031 0.18328,-2.73403 0.01,-3.86669 0.8929502,-10.03508 1.6971802,-11.85317 1.28223,-2.89869 3.27563,-3.84117 11.65166,-5.50887 19.57259,-3.89699 45.65827,-3.8093 64.78454,0.2178 10.66944,2.24648 11.72387,3.36834 12.5147,13.31492 0.19893,2.50203 0.36169,5.03456 0.36169,5.62784 v 1.0787 l 1.32292,-1.26745 c 1.7269,-1.65449 3.06201,-2.29954 5.59736,-2.70432 4.77048,-0.76163 10.41057,1.2733 13.73835,4.95675 1.55424,1.72036 2.52607,3.8155 3.11968,6.72563 l 0.44101,2.16197 3.67714,1.45711 c 7.0044,2.77556 10.8949,5.11344 14.91718,8.96403 7.74633,7.41567 10.20497,15.1248 12.14596,38.08409 l 0.25012,2.95851 3.14906,1.36302 c 1.73198,0.74966 3.27252,1.36302 3.42342,1.36302 0.1509,0 0.28507,-9.20419 0.29816,-20.45377 l 0.0238,-20.45376 -2.38889,-1.14538 c -2.8877,-1.38455 -6.98191,-5.26564 -8.29701,-7.86514 -3.59594,-7.10796 -2.32916,-15.09905 3.23489,-20.40625 6.67115,-6.3632 16.88506,-6.44401 23.50204,-0.18594 3.53965,3.34765 5.26176,7.89956 5.03948,13.3204 -0.12787,3.11839 -0.25735,3.63503 -1.60924,6.42136 -1.89943,3.91484 -4.74103,6.68401 -8.67295,8.45188 l -2.70894,1.21799 0.0199,25.04722 0.0199,25.04722 2.32047,1.76389 c 13.68516,10.40268 16.68223,36.57953 5.99802,52.3875 -4.58583,6.78502 -10.96245,11.16897 -20.81519,14.31055 l -4.16585,1.32829 -1.3022,2.64247 c -1.50965,3.06343 -5.05903,7.07096 -8.32965,9.40482 -6.133,4.37642 -19.23356,8.90582 -33.18922,11.47486 -5.51747,1.01569 -5.36448,0.96553 -4.73694,1.55322 0.27699,0.25939 3.43423,2.49811 7.0161,4.97492 16.29483,11.26763 22.46376,16.61161 26.66887,23.10253 2.59729,4.00912 3.2734,6.67923 2.11135,8.33828 -0.45722,0.65278 -0.43579,0.9406 0.19336,2.59639 0.78963,2.07814 0.95307,5.76751 0.35405,7.99209 -1.12533,4.17917 -5.11032,7.53157 -8.95277,7.53157 -1.52445,0 -1.53881,0.0118 -2.32883,1.91788 -2.51464,6.06702 -11.25967,8.17808 -16.91301,4.08282 -1.72216,-1.24753 -1.74066,-1.24981 -2.88301,-0.35626 -1.19661,0.93601 -1.8438,0.87908 -3.0081,-0.26458 -1.32589,-1.30239 -4.78027,-6.64362 -6.61548,-10.22896 -0.81891,-1.59985 -1.5683,-2.90544 -1.66531,-2.90132 -0.097,0.004 -0.70296,0.78398 -1.34654,1.73301 -0.64358,0.94903 -1.68707,2.0797 -2.31887,2.51262 l -1.14872,0.78711 1.30454,3.03453 c 3.28119,7.63254 5.46589,14.687651 6.51102,21.026201 0.70557,4.27915 0.66145,6.13883 -0.20027,8.441999 -1.96326,5.247261 -8.54702,7.537078 -20.58085,7.157974 -7.44055,-0.234401 -10.19132,-1.112361 -13.13966,-4.193776 -1.80344,-1.884829 -2.77302,-3.782077 -3.72534,-7.289607 -0.646,-2.37934 -0.75425,-3.99191 -0.89794,-13.377001 l -0.16339,-10.67153 h -9.94895 -9.94894 l -0.0106,9.96597 c -0.0118,11.067061 -0.35277,13.743241 -2.26354,17.764717 -1.76905,3.723181 -5.43511,6.389905 -10.16181,7.391778 -3.44104,0.729364 -12.4661,0.629192 -16.30616,-0.180988 z m 16.86005,-8.246266 c 1.34605,-0.37905 1.88052,-0.40894 2.00631,-0.11221 0.46623,1.099862 2.68523,-3.78247 2.68523,-5.90815 v -1.1709 l -6.2618,-0.19732 c -3.444,-0.10853 -8.92336,-0.55214 -12.17636,-0.98581 -3.253,-0.43366 -5.98223,-0.7208 -6.06494,-0.63808 -0.25649,0.25648 -0.89142,4.64079 -0.89423,6.17476 -0.002,0.83997 0.21231,1.63453 0.5054,1.87776 0.27943,0.23191 1.90662,0.72703 3.61597,1.10027 2.58002,0.56335 4.09659,0.652949 8.92874,0.5275 3.58776,-0.0931 6.52474,-0.34935 7.65568,-0.66782 z m 59.77409,0.26747 c 4.08003,-0.76634 4.53689,-1.11399 4.53689,-3.45226 0,-2.90734 -0.69353,-5.87281 -1.37162,-5.8649 -0.31276,0.004 -2.94991,0.32446 -5.86032,0.71293 -2.91042,0.38846 -8.20315,0.80723 -11.76163,0.9306 l -6.46996,0.2243 0.24173,1.62041 c 0.40023,2.68293 2.11015,6.1884 2.61788,5.36687 0.17897,-0.28958 0.54164,-0.30196 1.2843,-0.0439 3.16458,1.099817 12.17476,1.371427 16.78273,0.50591 z m -54.80878,-16.777251 0.0974,-5.16041 -2.11843,-0.15323 c -1.16513,-0.0843 -2.23166,-0.26647 -2.37006,-0.40487 -0.13839,-0.1384 -0.0989,-1.00163 0.0877,-1.9183 0.55202,-2.71143 0.48926,-2.78066 -2.77871,-3.06536 -1.59116,-0.13862 -4.2424,-0.47316 -5.89164,-0.74343 -4.9848,-0.81689 -4.62235,-0.97477 -6.33501,2.75948 -0.82315,1.79475 -2.15545,5.21261 -2.96067,7.59523 -1.15925,3.43019 -1.36713,4.392421 -0.99856,4.622081 0.44501,0.27728 7.15565,1.32165 10.11785,1.57463 0.77611,0.0663 4.03049,0.10567 7.23195,0.0876 l 5.82083,-0.033 z m 46.4942,4.981831 c 2.25874,-0.19801 5.46015,-0.59603 7.11423,-0.88447 1.65409,-0.28845 3.14842,-0.52446 3.32073,-0.52446 1.08843,0 -4.56339,-14.891811 -5.83736,-15.380671 -0.25039,-0.0961 -2.66289,0.1494 -5.36111,0.54552 -2.69822,0.39612 -5.50615,0.72108 -6.23984,0.72213 -1.36422,0.002 -1.52323,0.16313 -1.80257,1.82709 -0.10169,0.6057 0.0209,1.01202 0.34258,1.13546 0.27551,0.10572 0.50092,0.58435 0.50092,1.06362 0,0.90226 -0.0894,0.93378 -3.83231,1.35089 l -0.83369,0.0929 0.0576,4.91296 c 0.0317,2.70213 0.13043,5.030781 0.21942,5.174781 0.24353,0.39404 7.69472,0.37246 12.35139,-0.0358 z M -7.6731902,-113.5409 c 1.00183,-0.5052 1.82061,-1.25423 2.25227,-2.06043 l 0.67821,-1.26667 -0.96292,-1.26246 c -0.88778,-1.16393 -5.0340198,-4.55072 -7.3856198,-6.03281 -0.92877,-0.58536 -1.05382,-0.58842 -1.88155,-0.0461 -2.05551,1.34682 -2.42096,5.34996 -0.7648,8.37748 0.94857,1.73404 3.23804,3.08471 5.22874,3.08471 0.6938898,0 1.9699398,-0.35719 2.8356698,-0.79375 z m 131.3249102,0.31713 c 2.66505,-1.11353 4.52376,-4.99417 3.92381,-8.19217 -0.3469,-1.84915 -1.88949,-3.4994 -2.99861,-3.20791 -1.0942,0.28756 -4.55933,2.89966 -6.93926,5.23098 -2.2567,2.21061 -2.36601,3.0791 -0.59747,4.74704 1.89595,1.78812 4.43063,2.3333 6.61153,1.42206 z M 2.6120098,-122.18396 c 1.99696,-3.82709 4.10942,-9.08904 4.88421,-12.16611 0.40477,-1.60752 0.38237,-1.71684 -0.59008,-2.87904 -0.55596,-0.66444 -1.40457,-1.73813 -1.88581,-2.38597 -0.48123,-0.64785 -2.25339,-2.48759 -3.93812,-4.08832 -3.85565,-3.66341 -4.27542,-3.71661 -6.9586,-0.88195 -3.90373,4.12414 -9.2185798,10.91332 -9.2185798,11.77581 0,0.12746 1.70656,1.50277 3.79236,3.05623 2.0857998,1.55346 4.7698298,3.71348 5.9645198,4.80004 1.92821,1.7537 3.37045,2.59962 2.76673,1.62278 -0.27379,-0.443 0.53258,-0.45136 1.22623,-0.0127 0.42879999,0.27116 0.37919999,0.3816 -0.28114,0.62587 l -0.80181,0.29661 1.32669,2.01456 c 0.72968999,1.10801 1.41846999,2.01456 1.53063999,2.01456 0.11216,0 1.09441001,-1.70656 2.18276001,-3.79236 z M 111.6582,-120.3399 c 1.40141,-2.24046 4.39627,-4.99177 10.01256,-9.19833 2.16971,-1.62509 4.03135,-3.09457 4.137,-3.26551 0.39502,-0.63916 -4.37486,-6.81343 -8.69297,-11.25244 -2.85762,-2.93761 -3.48029,-3.10122 -5.46208,-1.43516 -2.36494,1.98818 -6.45047,6.08052 -6.45047,6.46123 0,0.20318 -0.48599,0.95902 -1.07998,1.67963 l -1.07998,1.31021 0.5402,2.10863 c 1.276,4.98069 5.86328,15.54004 6.75105,15.54004 0.0583,0 0.6544,-0.87673 1.32467,-1.9483 z m -33.4795,-0.69922 c 14.05315,-1.05981 16.55029,-1.96117 17.87777,-6.45317 0.35997,-1.2181 0.36316,-2.74218 0.0162,-7.7568 -0.89561,-12.94516 -4.48514,-28.17379 -7.09915,-30.11822 -0.6495,-0.48313 -1.77567,-0.71537 -4.26054,-0.87859 -3.38101,-0.22209 -7.12761,0.0842 -6.41498,0.52444 0.64471,0.39827 -43.9091,0.0931 -47.2553,-0.32367 -3.20213,-0.39883 -7.15098,-0.19535 -8.85005,0.45603 -1.27512,0.48886 -2.08651,2.10944 -3.40229,6.79534 -3.08295,10.97936 -5.29317,28.76434 -3.97486,31.9845 1.11457,2.7225 3.33938,4.07206 8.01311,4.86071 10.08387,1.70156 38.62741,2.17055 55.35006,0.90943 z m -53.62564,-8.63039 c -1.30031,-0.53227 -2.25359,-2.09599 -2.25359,-3.69672 0,-1.90314 1.37895,-3.338 3.47857,-3.61962 1.29824,-0.17413 1.56362,-0.0702 2.68519,1.05135 1.33959,1.33959 1.59238,2.63525 0.83743,4.29219 -0.72369,1.58832 -3.18664,2.61176 -4.7476,1.9728 z m 3.56011,-1.83072 c 1.06703,-1.26809 0.9891,-2.40163 -0.2569,-3.73651 -1.48652,-1.59256 -4.85124,-0.42536 -4.85124,1.68286 0,2.9145 3.27566,4.23143 5.10814,2.05365 z m 55.33351,1.48921 c -1.70162,-0.7726 -2.23332,-1.57866 -2.23332,-3.38572 0,-1.61698 1.87363,-3.69208 3.33363,-3.69208 2.20524,0 4.0747,1.78038 4.0747,3.88056 0,1.57463 -0.81067,2.75474 -2.32783,3.38865 -1.41362,0.59065 -1.07452,0.61344 -2.84718,-0.19141 z m 2.86615,-0.59416 c 0.31409,-0.12053 0.80669,-0.67478 1.09467,-1.23168 1.39772,-2.70289 -2.15186,-5.535 -4.35946,-3.47831 -2.46781,2.29911 0.0567,5.94106 3.26479,4.70999 z m -47.78558,-0.46491 c -3.46433,-0.47467 -6.00352,-2.30498 -7.37097,-5.31317 -0.84112,-1.85033 -0.7798,-11.22513 0.0883,-13.49818 0.76328,-1.99861 2.53259,-3.62068 4.54403,-4.16589 2.25199,-0.61041 37.74763,-0.66215 39.44952,-0.0575 1.61798,0.57483 3.64805,2.67931 4.38729,4.54812 0.47051,1.18944 0.55877,2.49031 0.46674,6.87917 -0.10312,4.91716 -0.19228,5.56651 -0.97449,7.09744 -0.91551,1.79185 -2.36347,3.09266 -4.51901,4.05979 -1.1714,0.52557 -3.20009,0.60051 -17.72695,0.65479 -9.02229,0.0337 -17.27729,-0.0583 -18.34444,-0.20456 z m 34.20962,-5.59932 c 1.91311,-0.93054 2.54665,-2.3864 2.60447,-5.98491 0.1025,-6.37988 -1.44631,-7.75122 -9.6502,-8.54445 -6.93123,-0.67018 -7.43629,-0.73481 -8.29534,-1.06142 -1.1308,-0.42992 -6.14005,-0.51173 -11.28383,-0.18427 -3.78987,0.24127 -4.47354,0.3904 -6.52639,1.42365 -2.64295,1.33027 -3.40692,2.06943 -4.075,3.94267 -0.64238,1.80117 -0.64926,6.85911 -0.0114,8.38571 0.97791,2.34047 1.49138,2.4653 10.94881,2.66194 4.66589,0.097 12.21406,0.127 16.77371,0.0666 6.90629,-0.0914 8.49477,-0.20923 9.51518,-0.70556 z m -43.09521,-28.88262 c 0.25466,-0.1019 0.55893,-0.0894 0.67616,0.0279 0.11722,0.11723 -0.0911,0.20061 -0.46302,0.18529 -0.41097,-0.0169 -0.49456,-0.10052 -0.21314,-0.21314 z m -51.72297,40.89435 c 0.59196,-1.2604 1.55741,-2.62394 2.24804,-3.175 0.66578,-0.53123 1.21051,-1.08079 1.21051,-1.22126 2e-5,-0.32982 -4.71419,-3.65705 -6.44514,-4.5489 -1.00789,-0.5193 -1.36337,-0.57583 -1.46823,-0.2335 -0.0761,0.24843 -0.3111,0.99131 -0.52221,1.65086 -1.0315,3.22249 -0.0645,8.18657 1.99618,10.24725 l 1.25301,1.25301 0.34514,-0.88166 c 0.18983,-0.48492 0.81204,-1.87578 1.3827,-3.0908 z m 158.40666,2.49351 c 2.09154,-2.31113 2.87554,-7.64441 1.55561,-10.58223 -0.48827,-1.08677 -0.80784,-1.41032 -1.23472,-1.2501 -0.82393,0.30925 -4.22822,2.48328 -5.7535,3.67428 l -1.297,1.01275 1.68039,1.68038 c 1.56738,1.56739 2.48507,3.33478 3.01448,5.80568 0.17074,0.79686 0.32296,0.91721 0.82217,0.65004 0.33695,-0.18033 0.88261,-0.62619 1.21257,-0.9908 z M -15.8473,-136.74063 c 2.02055,-3.27441 3.81289,-5.48341 7.5707498,-9.33067 l 3.11426,-3.18835 -1.49126,-1.32942 c -2.33209,-2.079 -2.76721,-2.06 -5.7865898,0.25266 -2.85447,2.18635 -10.22748,9.67574 -11.19812,11.37489 l -0.6058,1.06046 2.89885,1.78548 c 1.59437,0.98202 3.14014,1.79977 3.43505,1.81723 0.30177,0.0179 1.20368,-1.04993 2.06286,-2.44228 z m 147.71916,0.62195 c 1.61102,-1.01865 2.9369,-2.04644 2.94642,-2.284 0.0653,-1.63001 -12.94323,-13.85558 -14.74291,-13.85558 -0.36842,0 -1.4796,0.64473 -2.4693,1.43274 -2.05094,1.63299 -2.03042,1.81612 0.42615,3.80312 2.07665,1.6797 7.73102,8.33119 9.11028,10.71684 0.64168,1.10989 1.30924,2.0227 1.48347,2.02847 0.17422,0.006 1.63488,-0.82294 3.24589,-1.84159 z M 8.4142498,-148.99339 c 0.71798,-4.77461 0.92668,-4.30556 -3.24669,-7.2968 -2.0495,-1.46897 -3.91978,-2.67085 -4.15618,-2.67085 -0.23640001,0 -1.37736001,0.96696 -2.53545,2.1488 l -2.10562,2.14879 1.23472,1.00257 c 5.39325,4.37923 10.07855,8.00433 10.19948,7.89152 0.0799,-0.0745 0.35431,-1.52537 0.60974,-3.22403 z m 96.1583602,2.10457 c 0.63734,-0.53931 3.03324,-2.39487 5.32423,-4.12347 2.29099,-1.7286 4.2426,-3.26776 4.33691,-3.42036 0.2023,-0.32733 -2.39515,-3.21811 -3.77336,-4.19948 l -0.95924,-0.68304 -3.11959,2.2763 c -5.55789,4.05546 -5.00961,3.31338 -4.49313,6.08137 0.24664,1.32187 0.54472,2.99872 0.66239,3.72632 0.11767,0.7276 0.35998,1.32292 0.53847,1.32292 0.17848,0 0.84598,-0.44125 1.48332,-0.98056 z m -0.40611,-16.38152 -1.84964,-1.70074 -1.75133,1.4663 c -1.23581,1.03468 -1.68373,1.63367 -1.52165,2.03488 0.12633,0.31272 0.54895,1.38936 0.93916,2.39253 l 0.70947,1.82394 2.66182,-2.15808 2.66181,-2.15808 z m -93.24758,3.5472 c 0.87768,-2.41286 0.86777,-2.44448 -1.3061502,-4.16626 l -1.2893,-1.02114 -1.65505,1.4147 c -0.91028,0.77808 -1.65506,1.61779 -1.65506,1.86601 0,0.40236 4.43607,4.08037 4.92042,4.07959 0.1071702,-1.8e-4 0.5504902,-0.97798 0.9851402,-2.1729 z m 59.18194,-14.91628 c 13.42732,-0.2924 26.1212,-1.56997 39.14538,-3.93977 15.92661,-2.8979 24.49077,-5.85567 28.72526,-9.92073 l 1.97935,-1.90016 -1.90753,1.26655 c -1.04915,0.6966 -2.08102,1.20879 -2.29306,1.1382 -0.96941,-0.32272 -0.37765,-1.25072 1.696,-2.65969 5.18891,-3.52567 7.01709,-6.50524 8.47611,-13.81435 2.12315,-10.63616 3.00514,-21.15596 3.26928,-38.99392 0.27251,-18.40274 -0.50774,-30.60753 -2.91984,-45.67274 -1.14893,-7.17585 -2.27471,-11.32975 -4.00123,-14.76362 -5.85306,-11.64115 -16.91998,-15.98536 -53.29611,-20.92087 -2.80541,-0.38064 -3.15024,-0.49193 -2.11667,-0.68312 0.73168,-0.13534 0.91982,-0.24732 0.46179,-0.27483 -0.42511,-0.0255 -0.85721,-0.18282 -0.96022,-0.34949 -0.10301,-0.16667 -1.26332,-0.40725 -2.57846,-0.53462 -6.06795,-0.58766 -9.82275,-1.42512 -8.91234,-1.98778 0.20431,-0.12627 0.26817,-0.49875 0.14193,-0.82774 -0.1783,-0.46464 -0.33846,-0.50776 -0.71751,-0.19318 -0.44703,0.37101 -0.63651,0.20105 -0.52974,-0.47516 0.023,-0.14552 -0.19635,-0.26459 -0.48739,-0.26459 -0.29398,0 -0.52917,-0.31358 -0.52917,-0.70555 0,-0.38806 -0.11906,-0.7068 -0.26458,-0.70831 -0.41471,-0.004 -1.17837,-1.87411 -0.85513,-2.09376 0.15908,-0.1081 0.39407,-0.48045 0.52221,-0.82744 0.16641,-0.45065 0.008,-0.72144 -0.5549,-0.94778 -0.43333,-0.17428 -0.57,-0.32694 -0.30371,-0.33924 0.36403,-0.0168 0.38694,-0.13951 0.0923,-0.49449 -0.31668,-0.38157 -0.0803,-0.4839 1.23232,-0.53355 0.89328,-0.0338 1.74457,-0.13586 1.89175,-0.22682 0.14718,-0.091 0.69263,0.22851 1.21211,0.70994 1.08941,1.00964 1.31987,1.08666 1.03572,0.34617 -0.11168,-0.29104 -0.0273,-0.52917 0.18746,-0.52917 0.21479,0 0.40267,0.59532 0.41751,1.32292 0.0321,1.5707 0.19664,2.54609 0.47694,2.82639 0.11226,0.11225 1.84612,0.32129 3.85302,0.46454 2.00691,0.14324 5.18745,0.45409 7.06786,0.69078 1.88041,0.23669 3.49919,0.35008 3.59729,0.25198 0.46357,-0.46357 0.50765,-2.59881 0.15439,-7.47766 -0.47362,-6.54094 -0.96432,-9.52001 -1.72021,-10.44334 -0.70892,-0.86597 -4.81565,-1.73799 -13.94454,-2.96098 -17.00443,-2.27808 -28.89947,-2.18631 -46.43118,0.35821 -6.89639,1.00093 -9.76025,1.64568 -10.4722,2.35762 -1.1599,1.1599 -2.17352,18.26489 -1.08127,18.24661 0.24253,-0.004 2.34597,-0.23724 4.6743,-0.51817 5.07084,-0.61183 7.65188,-0.67937 6.87917,-0.18001 -0.46612,0.30124 -0.27031,0.49577 0.40815,0.4055 0.2619,-0.0349 0.20376,0.45431 -0.1953,1.64318 -0.23523,0.70079 -1.25613,1.38068 -2.5059,1.66886 -0.19403,0.0447 -0.98778,0.2534 -1.76389,0.46369 -0.77611,0.21029 -1.92705,0.42118 -2.55764,0.46865 -0.63059,0.0475 -1.14653,0.22066 -1.14653,0.38487 0,0.16421 -0.11906,0.23141 -0.26458,0.14934 -0.54437,-0.30702 -3.79236,0.99367 -3.79236,1.51869 0,0.41183 -1.17336,0.70389 -5.29167,1.31713 -29.72312,4.42595 -39.42088,8.9009 -44.7941,20.66987 -1.64276,3.59813 -2.84132,8.59144 -3.86767,16.113 -2.1885,16.03842 -2.82478,27.34368 -2.55138,45.33194 0.37333,24.56219 2.74646,41.34984 6.61287,46.77971 0.41495,0.58275 2.24571,2.25898 4.06835,3.72495 1.82263,1.46598 3.31388,2.80683 3.31388,2.97968 0,0.59734 -1.31738,0.31106 -2.61227,-0.56768 -0.71479,-0.48507 -1.39655,-0.88194 -1.51502,-0.88194 -0.56093,0 1.38534,1.6875 3.70094,3.20887 5.30263,3.4839 13.18506,5.78051 28.8737698,8.41261 12.2078702,2.04813 24.6964802,3.17597 38.7567402,3.50013 9.89095,0.22803 11.70143,0.22071 26.81111,-0.10833 z m -29.45694,-14.86916 c -1.06716,-0.0708 -4.71841,-0.29735 -8.11389,-0.50343 -10.73836,-0.65173 -24.7741802,-2.40689 -30.9198102,-3.86647 -5.53138,-1.31371 -10.32645,-3.89216 -14.3174698,-7.69895 -3.7098,-3.53855 -7.20935,-9.65028 -8.37706,-14.62999 -1.84275,-7.85836 -2.70603,-23.10274 -2.15665,-38.08361 0.81016,-22.09213 2.23102,-27.1061 9.84111,-34.72744 4.8909198,-4.89816 10.9966998,-7.31879 23.88127,-9.46771 13.20912,-2.20305 23.02275,-2.98605 40.64426,-3.24289 17.85175,-0.2602 29.04739,0.35465 43.17661,2.3712 16.60785,2.3703 24.69305,5.0939 29.59917,9.97083 5.89037,5.85534 8.21498,10.75536 9.35292,19.71498 0.91743,7.22336 1.4,24.7529 0.93395,33.92576 -0.8824,17.3676 -2.57239,24.41097 -7.41996,30.92415 -3.2589,4.37866 -10.59526,9.12193 -16.34535,10.56797 -6.17796,1.55364 -20.0577,3.43805 -31.32633,4.25308 -5.03545,0.3642 -34.66667,0.74373 -38.45277,0.49252 z m 39.37517,-7.33247 c 13.21275,-1.18124 25.09546,-3.04435 30.54008,-4.78841 4.06346,-1.30164 6.83087,-3.04009 9.63613,-6.05328 4.53382,-4.86986 6.23328,-10.36362 7.24524,-23.42135 0.76745,-9.90262 0.37888,-29.63932 -0.73967,-37.57083 -1.24725,-8.84402 -4.75812,-14.99485 -10.57648,-18.52931 -8.07403,-4.90472 -35.62416,-8.98793 -60.63785,-8.98715 -24.10691,7.5e-4 -52.5164202,3.97713 -60.1745702,8.42242 -9.2701698,5.38103 -12.1675398,14.93842 -12.1699698,40.14445 -0.002,17.55607 1.39914,29.32107 4.1933,35.21764 2.62724,5.54432 8.0228098,9.65992 15.0322298,11.46621 5.86538,1.51147 20.3086002,3.46461 31.2208302,4.22196 3.00743,0.20873 6.18243,0.43673 7.05556,0.50667 4.28517,0.34326 33.76796,-0.12772 39.37517,-0.62902 z m -28.69498,-17.01122 c -1.95835,-0.71981 -4.79411,-3.30073 -5.71361,-5.20015 -1.00126,-2.06834 -0.98372,-4.55889 0.0388,-5.51154 1.51067,-1.4074 3.54251,-0.56835 4.15789,1.71701 0.4964,1.84348 1.61605,3.17065 3.33259,3.95027 1.81895,0.82612 3.18012,0.82673 4.96661,0.002 1.84331,-0.85074 2.88071,-2.01605 3.6811,-4.13498 0.45877,-1.21454 0.91952,-1.82156 1.55777,-2.05233 1.36134,-0.4922 2.58585,0.21573 3.00616,1.73795 0.78597,2.84654 -1.58273,6.7891 -5.29742,8.81724 -1.63017,0.89003 -2.32471,1.04458 -5.06427,1.12686 -2.20231,0.0661 -3.63167,-0.0725 -4.66564,-0.45254 z m -54.3753902,-19.81439 c -1.02129,-2.20943 -1.79943,-6.05673 -1.80701,-8.93427 -0.006,-2.12091 -0.0818,-2.35909 -0.86927,-2.7179 -0.77791,-0.35444 -0.93236,-0.28127 -1.56419,0.74105 -1.2581,2.03566 -1.55267,3.18898 -1.77439,6.9473 l -0.21853,3.70417 -0.60616,-1.97416 c -1.6830598,-5.48146 -1.5555998,-10.6393 0.38653,-15.6409 5.02962,-12.95288 20.0726302,-18.67696 31.3944102,-11.94602 3.52597,2.09623 7.41714,6.40708 9.36282,10.37263 1.81417,3.69752 2.69876,6.72254 2.66698,9.12021 l -0.0212,1.60157 -0.64127,-2.29305 c -0.77485,-2.77075 -1.66749,-4.90314 -2.3955,-5.72247 -0.50908,-0.57295 -0.58904,-0.56824 -1.41744,0.0834 -0.48287,0.37982 -1.01915,0.60331 -1.19174,0.49664 -0.67562,-0.41755 -0.6659,0.92979 0.0258,3.57045 0.39806,1.51977 0.72099,3.56675 0.71762,4.54886 -0.007,2.10916 -0.76192,5.82221 -1.56989,7.72382 -0.47556,1.11926 -0.66268,1.27887 -1.08673,0.92694 -0.28174,-0.23382 -0.51225,-0.685 -0.51225,-1.00263 0,-0.88661 -1.96664,-1.80981 -5.11528,-2.40128 -2.81742,-0.52924 -10.08952,-0.0781 -11.3557302,0.70442 -0.22194,0.13717 -1.72179,0.2635 -3.333,0.28075 -3.39043,0.0363 -5.21168001,0.63948 -6.47925001,2.1459 -0.48434,0.57562 -0.88062999,0.93558 -0.88062999,0.79992 0,-0.13566 -0.21202,-0.0707 -0.47117,0.14439 -0.37153,0.30834 -0.6345,0.0377 -1.24347,-1.27972 z m 12.86242,-3.39937 c 0.9318402,-0.93184 1.1994402,-1.49066 1.1994402,-2.50473 0,-1.89606 -1.8537502,-3.70416 -3.7977002,-3.70416 -2.70848,0 -4.50821,2.59931 -3.48888,5.03892 0.66357,1.58814 1.82416,2.36941 3.5198,2.36941 1.08528,0 1.61571,-0.24782 2.56734,-1.19944 z M 22.67939,-241.4839 c 2.26299,-2.26299 0.58655,-6.02435 -2.68506,-6.02435 -1.31454,0 -3.34332,2.07603 -3.3268,3.4043 0.04,3.21873 3.78226,4.84965 6.01186,2.62005 z m -7.15956,-5.16112 c 5.25178,-2.1938 6.29202,-8.88742 1.93919,-12.47803 -4.39491,-3.62532 -10.9559202,-1.44662 -12.0896702,4.01459 -0.69981,3.37098 0.85337,6.55639 3.94902,8.09902 2.1128102,1.05286 4.2524002,1.17859 6.2014602,0.36442 z m 10.6602,14.4826 c 0,-0.097 0.0794,-0.17639 0.17639,-0.17639 0.097,0 0.17639,0.0794 0.17639,0.17639 0,0.097 -0.0794,0.17639 -0.17639,0.17639 -0.097,0 -0.17639,-0.0794 -0.17639,-0.17639 z m 57.72236,-0.79841 c -1.5689,-3.03392 -2.19442,-8.48646 -1.51712,-13.22451 0.21038,-1.47173 0.17749,-2.02847 -0.11984,-2.02847 -0.2254,0 -0.70312,-0.35719 -1.06162,-0.79375 -0.52796,-0.64294 -0.7733,-0.71966 -1.29127,-0.40378 -0.81082,0.49446 -1.81843,3.13428 -2.40957,6.31281 l -0.45927,2.46944 -0.0318,-2.14843 c -0.0427,-2.88448 1.06744,-7.10314 2.79378,-10.61629 1.69196,-3.44317 5.70564,-7.92358 8.76069,-9.77942 8.52775,-5.18034 19.23089,-3.79128 26.55323,3.4461 2.5111,2.48196 4.7165,6.13359 5.88456,9.74345 1.40507,4.34232 1.18364,10.91757 -0.52022,15.44787 -0.31177,0.82895 -0.60263,1.46395 -0.64636,1.41111 -0.0437,-0.0528 0.0448,-1.11866 0.19684,-2.3685 0.37117,-3.05234 -0.16454,-6.06469 -1.53448,-8.62853 -0.83363,-1.56012 -1.33336,-2.12204 -1.92057,-2.15956 -0.765,-0.0489 -0.79398,0.059 -0.79988,2.97713 -0.007,3.5194 -0.6398,6.83294 -1.81497,9.50558 l -0.83175,1.89161 -0.87844,-1.35609 c -0.48314,-0.74585 -1.58566,-1.74598 -2.45004,-2.22251 -1.44197,-0.79496 -1.99489,-0.87279 -6.70278,-0.9435 -3.75789,-0.0565 -5.44955,0.0557 -6.32078,0.41909 -0.65429,0.27289 -1.76554,0.47238 -2.46944,0.44331 -1.17239,-0.0484 -1.19099,-0.0644 -0.22151,-0.19065 1.85935,-0.24208 2.89858,-0.83538 3.53579,-2.01861 1.34607,-2.49949 -0.51592,-5.49899 -3.4136,-5.49899 -3.25203,0 -4.69118,3.88034 -2.4049,6.48426 l 1.06867,1.21715 -1.28297,-0.39375 c -1.1494,-0.35276 -1.48501,-0.28798 -3.22357,0.62228 -1.10011,0.57598 -2.26781,1.5215 -2.69611,2.18312 -0.92098,1.42267 -1.12684,1.44604 -1.77066,0.20103 z m 26.15,-8.72445 c 0.85623,-0.99543 1.05823,-2.90674 0.43106,-4.07863 -0.46402,-0.86703 -2.15326,-1.74434 -3.35869,-1.74434 -1.30883,0 -3.3376,2.07958 -3.32113,3.4043 0.0162,1.30053 0.72882,2.56569 1.79022,3.17815 1.27267,0.73437 3.49992,0.35497 4.45854,-0.75948 z m -7.00755,-5.09664 c 5.38458,-2.747 5.68431,-9.91858 0.54053,-12.93303 -4.35342,-2.55128 -9.59604,-0.64443 -10.94015,3.97915 -0.73712,2.5356 -0.23617,4.75731 1.54075,6.83324 2.29664,2.68311 6.01269,3.57266 8.85887,2.12064 z m -112.1425902,13.20839 c 0,-0.097 0.0794,-0.17639 0.17639,-0.17639 0.097,0 0.17639,0.0794 0.17639,0.17639 0,0.097 -0.0794,0.17639 -0.17639,0.17639 -0.097,0 -0.17639,-0.0794 -0.17639,-0.17639 z m 43.0388902,-8.11389 c 0,-0.097 0.0794,-0.17639 0.17639,-0.17639 0.097,0 0.17639,0.0794 0.17639,0.17639 0,0.097 -0.0794,0.17639 -0.17639,0.17639 -0.097,0 -0.17639,-0.0794 -0.17639,-0.17639 z M 1.7501698,-271.5254 c -0.99932001,-0.58205 -0.78593001,-2.64589 0.47707,-4.61411 1.32032,-2.05754 3.08742,-3.50932 5.84263,-4.80008 1.82151,-0.85334 2.4653202,-0.96306 5.5865502,-0.95205 4.269,0.0151 6.70216,0.83782 9.22056,3.11788 1.30235,1.17909 1.65675,1.73647 1.65675,2.6056 0,2.3816 -0.98219,2.60807 -4.88009,1.12523 -1.65488,-0.62954 -2.84783,-0.80722 -5.46806,-0.81441 -4.08553,-0.0112 -6.3784502,0.77346 -9.1344102,3.1259 -1.95089,1.66525 -2.29607,1.79136 -3.301,1.20604 z m 104.1198202,-1.20604 c -2.77952,-2.37256 -5.03167,-3.13298 -9.3108,-3.14374 -3.04608,-0.008 -3.84466,0.12205 -5.84851,0.94987 -2.70534,1.11761 -2.91484,1.14081 -3.65129,0.40436 -1.05921,-1.05921 -0.69299,-2.60875 0.9999,-4.23082 2.36012,-2.2614 4.90758,-3.1308 9.20545,-3.14164 3.22442,-0.008 3.72496,0.085 5.82084,1.08291 4.84833,2.30848 8.11322,7.14696 6.14841,9.11177 -0.84449,0.84449 -1.34469,0.69094 -3.364,-1.03271 z m -126.59046,81.99139 c -1.33325,-0.54421 -3.85213,-2.73664 -4.43164,-3.8573 -0.596,-1.15254 -0.39449,-2.02188 0.67148,-2.89681 1.03913,-0.8529 1.87489,-0.7731 3.16113,0.3018 1.52408,1.27368 4.10786,4.32752 4.10786,4.8552 0,1.33716 -1.96003,2.2293 -3.50883,1.59711 z m 2.24526,-0.89067 c 0.30691,-0.11778 0.55802,-0.36716 0.55802,-0.55419 0,-0.62374 -4.73841,-5.58168 -5.33453,-5.58168 -1.17156,0 -0.90942,0.96572 0.72469,2.66971 0.91775,0.957 1.9518,2.17657 2.29787,2.71015 0.6621,1.02083 0.85131,1.10238 1.75395,0.75601 z m 148.72467,0.99807 c -0.9507,-0.30624 -1.76388,-1.23059 -1.76388,-2.00503 0,-1.09188 4.52987,-5.83447 5.57278,-5.83447 1.13505,0 2.5411,1.51444 2.5411,2.73699 0,1.04511 -1.08606,2.28756 -3.52777,4.03576 -1.47089,1.05311 -2.11213,1.29549 -2.82223,1.06675 z m 2.03584,-2.90691 c 0.82304,-1.1927 1.37705,-2.35207 1.26432,-2.64583 -0.11035,-0.28758 -0.0249,-0.54271 0.18988,-0.56697 0.9099,-0.10274 1.04974,-0.14475 1.29356,-0.38857 0.14095,-0.14095 0.002,-0.3538 -0.3085,-0.473 -0.38968,-0.14953 -1.33505,0.5566 -3.04911,2.27747 -2.43509,2.44477 -2.92586,3.33013 -2.04335,3.68623 0.93757,0.37832 1.23413,0.16714 2.6532,-1.88933 z M 19.24207,-325.00177 c 0.12935,-0.12935 0.34101,-0.12935 0.47037,0 0.12935,0.12936 0.0235,0.23519 -0.23519,0.23519 -0.2587,0 -0.36454,-0.10583 -0.23518,-0.23519 z m 52.09351,-6.2912 c 0,-0.097 0.0794,-0.17639 0.17639,-0.17639 0.097,0 0.17639,0.0794 0.17639,0.17639 0,0.097 -0.0794,0.17639 -0.17639,0.17639 -0.097,0 -0.17639,-0.0794 -0.17639,-0.17639 z m -37.74722,-0.35278 c 0,-0.097 0.0794,-0.17639 0.17639,-0.17639 0.097,0 0.17639,0.0794 0.17639,0.17639 0,0.097 -0.0794,0.17639 -0.17639,0.17639 -0.097,0 -0.17639,-0.0794 -0.17639,-0.17639 z m -1.76389,-0.70555 c 0,-0.097 0.0794,-0.17639 0.17639,-0.17639 0.097,0 0.17639,0.0794 0.17639,0.17639 0,0.097 -0.0794,0.17639 -0.17639,0.17639 -0.097,0 -0.17639,-0.0794 -0.17639,-0.17639 z m 1.76389,-0.35278 c 0,-0.097 0.0794,-0.17639 0.17639,-0.17639 0.097,0 0.17639,0.0794 0.17639,0.17639 0,0.097 -0.0794,0.17639 -0.17639,0.17639 -0.097,0 -0.17639,-0.0794 -0.17639,-0.17639 z m 1.43896,-1.44051 c 0.0169,-0.41097 0.10052,-0.49456 0.21314,-0.21314 0.10191,0.25466 0.0894,0.55894 -0.0279,0.67616 -0.11723,0.11723 -0.20061,-0.0911 -0.18529,-0.46302 z m 1.10234,-0.16303 c -0.54188,-0.86768 -2.0166,-0.96411 -1.68902,-0.11045 0.16959,0.44195 0.11478,0.48991 -0.23147,0.20255 -0.5418,-0.44966 -0.39346,-3.723 0.1534,-3.38502 0.19281,0.11917 0.27753,0.59872 0.18827,1.06568 -0.0893,0.46695 -0.0209,0.93639 0.15191,1.0432 0.17281,0.1068 0.29147,0.0633 0.26369,-0.0966 -0.14205,-0.81772 0.0782,-1.56926 0.42594,-1.45335 0.38926,0.12975 1.53716,3.05424 1.29419,3.29721 -0.0695,0.0695 -0.32008,-0.18397 -0.55691,-0.5632 z m 34.50036,-0.86591 c 0,-0.097 0.0794,-0.17638 0.17639,-0.17638 0.097,0 0.17639,0.0794 0.17639,0.17638 0,0.097 -0.0794,0.17639 -0.17639,0.17639 -0.097,0 -0.17639,-0.0794 -0.17639,-0.17639 z m -33.86666,-1.23472 c 0,-0.2587 0.10583,-0.36453 0.23519,-0.23518 0.12935,0.12935 0.12935,0.34102 0,0.47037 -0.12936,0.12935 -0.23519,0.0235 -0.23519,-0.23519 z m 33.51389,-0.17639 c 0,-0.097 0.0794,-0.17639 0.17639,-0.17639 0.097,0 0.17638,0.0794 0.17638,0.17639 0,0.097 -0.0794,0.17639 -0.17638,0.17639 -0.097,0 -0.17639,-0.0794 -0.17639,-0.17639 z m 6.35,-1.05833 c 0,-0.097 0.0794,-0.17639 0.17639,-0.17639 0.097,0 0.17638,0.0794 0.17638,0.17639 0,0.097 -0.0794,0.17639 -0.17638,0.17639 -0.097,0 -0.17639,-0.0794 -0.17639,-0.17639 z m -122.06117,135.55485 c -3e-5,-0.24253 -0.23015,-1.64342 -0.51138,-3.11309 -1.668,-8.71678 -1.65545,-41.84833 0.0227,-59.85774 0.15009,-1.61078 0.10922,-2.55764 -0.1104,-2.55764 -1.14141,0 -9.37524,3.53764 -10.78123,4.63212 -0.88244,0.68693 -1.85809,6.14816 -2.57576,14.41788 -0.95575,11.01327 -0.43586,26.63044 1.27269,38.23077 0.19634,1.3331 0.52532,2.73836 0.73106,3.12279 0.4556,0.85128 9.94149,5.40955 11.51143,5.5316 0.24254,0.0189 0.44095,-0.16415 0.44091,-0.40669 z m -4.23327,-6.61458 -0.88194,-0.28245 0.94427,-0.0352 c 0.58268,-0.0217 1.00605,-0.27158 1.1056,-0.65253 0.0993,-0.37982 0.17708,-0.24409 0.20226,0.35278 0.0436,1.03289 -0.005,1.05465 -1.37019,0.61736 z m -1.41111,-0.52917 c 0,-0.097 0.0794,-0.17639 0.17639,-0.17639 0.097,0 0.17639,0.0794 0.17639,0.17639 0,0.097 -0.0794,0.17639 -0.17639,0.17639 -0.097,0 -0.17639,-0.0794 -0.17639,-0.17639 z m 210.88428,6.52261 c 1.49746,-0.58416 4.14547,-1.8173 5.88447,-2.7403 3.75759,-1.9944 3.38125,-0.9899 4.45693,-11.8962 1.02545,-10.39698 1.1314,-26.57199 0.22184,-33.86666 -0.6804,-5.45677 -1.56664,-10.24898 -2.07184,-11.20318 -0.55756,-1.05308 -9.53925,-5.20099 -11.26198,-5.20099 -0.60742,0 -0.6844,0.1689 -0.52261,1.14653 0.99276,5.99873 1.65073,18.96015 1.66994,32.89653 0.0197,14.3266 -0.2839,21.69985 -1.11141,26.98749 -0.67807,4.33269 -0.7218,4.93889 -0.35631,4.93889 0.20258,0 1.59352,-0.47795 3.09097,-1.06211 z m -0.71058,-6.19337 c 0.14318,-0.74903 0.24425,-0.83326 0.48458,-0.40382 0.26981,0.48213 0.50949,0.46738 2.15034,-0.13238 1.01567,-0.37124 2.00767,-0.67255 2.20444,-0.66958 0.64051,0.01 -0.66256,0.69101 -2.28808,1.19637 -0.87312,0.27145 -1.84506,0.59756 -2.15985,0.72469 -0.46512,0.18784 -0.53846,0.0538 -0.39143,-0.71528 z m -220.73424,-4.60417 c -1.80451,-10.56611 -1.85547,-11.22032 -1.673,-21.47784 0.13933,-7.83167 0.32842,-10.75469 0.91288,-14.11111 0.83916,-4.81907 0.86249,-5.11528 0.40303,-5.11528 -0.56041,0 -3.42301,5.64572 -4.38238,8.64305 -3.49072,10.906 -1.8841,25.45013 3.63753,32.92934 0.62211,0.84267 1.20429,1.45895 1.29372,1.36951 0.0894,-0.0894 0.003,-1.09638 -0.19178,-2.23767 z m 236.53939,-0.881 c 4.60358,-7.57832 5.91426,-19.84429 3.14251,-29.40905 -1.03482,-3.57092 -3.28196,-8.43684 -4.56503,-9.88502 l -0.93767,-1.05833 0.19336,1.23472 c 1.67476,10.6946 1.71271,11.13499 1.74818,20.28472 0.0311,8.01578 -0.0668,9.79493 -0.77619,14.11111 -1.36581,8.30992 -1.32317,7.83221 -0.64943,7.27578 0.32321,-0.26694 1.15313,-1.4162 1.84427,-2.55393 z M -51.92053,-321.86835 c 1.9069,-0.98108 4.48235,-3.87958 5.00896,-5.63726 0.23066,-0.76988 0.41938,-2.34473 0.41938,-3.49968 0,-6.33972 -4.09763,-10.69381 -10.05416,-10.68343 -3.01448,0.005 -5.00314,0.81906 -6.88544,2.81769 -5.51696,5.85789 -3.44767,15.27395 3.88454,17.67611 1.61369,0.52867 6.05193,0.13678 7.62672,-0.67343 z m 223.96663,-0.11004 c 6.53246,-3.26246 7.3579,-12.53293 1.5786,-17.72902 -3.95799,-3.55858 -10.04611,-3.0571 -13.83777,1.13982 -1.36102,1.50649 -2.72636,5.26904 -2.72636,7.51321 0,3.90364 3.02914,8.19699 6.70278,9.50018 2.57713,0.91421 5.9486,0.74155 8.28275,-0.42419 z M 0.78002979,-329.17945 c 2.03729001,-0.49038 3.89685001,-0.96091 4.13236001,-1.04561 0.70496,-0.25356 -0.16047,-2.14935 -1.53018,-3.35197 -1.04493,-0.91746 -1.49437,-1.06733 -3.20082001,-1.06733 -3.48035999,0 -5.85163999,2.00629 -6.62997999,5.60949 l -0.25916,1.19977 1.89181,-0.22637 c 1.04049,-0.1245 3.55868,-0.62759 5.59596999,-1.11798 z m 116.41666021,0.16202 c 0,-4.35437 -6.42454,-7.39839 -9.64564,-4.57022 -1.2534,1.1005 -2.2744,3.01585 -1.83948,3.45077 0.30172,0.30172 9.13413,2.11944 10.51498,2.16399 0.8531,0.0275 0.97014,-0.0985 0.97014,-1.04454 z m -40.92222,0.54668 c 0,-0.097 -0.0794,-0.17639 -0.17639,-0.17639 -0.097,0 -0.17639,0.0794 -0.17639,0.17639 0,0.097 0.0794,0.17639 0.17639,0.17639 0.097,0 0.17639,-0.0794 0.17639,-0.17639 z m -1.76389,-2.09584 c 0,-0.0856 -0.18328,-0.26885 -0.40729,-0.40729 -0.25234,-0.15596 -0.31152,-0.0968 -0.15556,0.15557 0.25133,0.40667 0.56285,0.54598 0.56285,0.25172 z m -1.87568,-3.43836 c -0.11262,-0.28142 -0.19621,-0.19783 -0.21314,0.21314 -0.0153,0.37188 0.0681,0.58024 0.18529,0.46302 0.11722,-0.11723 0.12976,-0.4215 0.0279,-0.67616 z m 0.11179,-2.22691 c 0,-0.097 -0.0794,-0.17639 -0.17639,-0.17639 -0.097,0 -0.17639,0.0794 -0.17639,0.17639 0,0.097 0.0794,0.17639 0.17639,0.17639 0.097,0 0.17639,-0.0794 0.17639,-0.17639 z m -26.81111,-17.99166 c 0,-0.097 -0.0794,-0.17639 -0.17639,-0.17639 -0.097,0 -0.17639,0.0794 -0.17639,0.17639 0,0.097 0.0794,0.17639 0.17639,0.17639 0.097,0 0.17639,-0.0794 0.17639,-0.17639 z m 10.93611,-0.5703 c 0,-0.1714 0.59531,-0.31408 1.32292,-0.31705 0.76444,-0.003 1.14097,-0.121 0.89193,-0.27923 -0.23705,-0.15061 -1.0308,-0.24697 -1.76389,-0.21414 -3.76917,0.1688 -4.4771,0.24775 -3.62596,0.40436 0.48507,0.0893 0.99701,0.36389 1.13763,0.6103 0.27897,0.48879 2.03737,0.31252 2.03737,-0.20424 z m -0.70555,-0.13526 c 0,-0.097 0.0794,-0.17639 0.17639,-0.17639 0.097,0 0.17638,0.0794 0.17638,0.17639 0,0.097 -0.0794,0.17639 -0.17638,0.17639 -0.097,0 -0.17639,-0.0794 -0.17639,-0.17639 z m 1.94027,0.52917 c -0.11991,-0.19403 -0.36741,-0.35278 -0.54998,-0.35278 -0.18258,0 -0.33196,0.15875 -0.33196,0.35278 0,0.19403 0.24749,0.35278 0.54999,0.35278 0.30249,0 0.45187,-0.15875 0.33195,-0.35278 z m 7.9375,0.21958 c 0,-0.0732 -0.24176,-0.33383 -0.53724,-0.57906 -0.44921,-0.37281 -0.50083,-0.35099 -0.31503,0.13319 0.18975,0.4945 0.85227,0.8411 0.85227,0.44587 z m 1.76389,-0.0432 c 0,-0.097 -0.0794,-0.17639 -0.17639,-0.17639 -0.097,0 -0.17639,0.0794 -0.17639,0.17639 0,0.097 0.0794,0.17639 0.17639,0.17639 0.097,0 0.17639,-0.0794 0.17639,-0.17639 z m -13.40555,-0.35278 c 0,-0.097 -0.0794,-0.17639 -0.17639,-0.17639 -0.097,0 -0.17639,0.0794 -0.17639,0.17639 0,0.097 0.0794,0.17639 0.17639,0.17639 0.097,0 0.17639,-0.0794 0.17639,-0.17639 z m -2.11667,-0.35278 c 0,-0.097 -0.0794,-0.17639 -0.17639,-0.17639 -0.097,0 -0.17639,0.0794 -0.17639,0.17639 0,0.097 0.0794,0.17639 0.17639,0.17639 0.097,0 0.17639,-0.0794 0.17639,-0.17639 z m 14.46389,0 c 0,-0.097 -0.0794,-0.17639 -0.17639,-0.17639 -0.097,0 -0.17639,0.0794 -0.17639,0.17639 0,0.097 0.0794,0.17639 0.17639,0.17639 0.097,0 0.17639,-0.0794 0.17639,-0.17639 z m -15.99259,-0.41157 c -0.12935,-0.12935 -0.34102,-0.12935 -0.47037,0 -0.12935,0.12935 -0.0235,0.23518 0.23518,0.23518 0.25871,0 0.36454,-0.10583 0.23519,-0.23518 z m 9.89982,0.022 c -0.11722,-0.11723 -0.42149,-0.12976 -0.67615,-0.0279 -0.28143,0.11262 -0.19783,0.19621 0.21313,0.21314 0.37189,0.0153 0.58025,-0.0681 0.46302,-0.18528 z m -5.43194,-1.13538 c 0.4719,0.25255 0.78112,0.22889 1.06745,-0.0817 0.30556,-0.33143 0.2964,-0.37698 -0.0379,-0.18825 -0.24253,0.13693 -0.44097,0.0808 -0.44097,-0.12464 0,-0.34179 0.26113,-0.43285 0.97014,-0.33832 0.14552,0.0194 0.22096,0.18996 0.16765,0.379 -0.0533,0.18905 0.0548,0.24996 0.2402,0.13536 0.18543,-0.1146 0.42812,-0.0612 0.53931,0.11875 0.25473,0.41216 1.23738,0.28319 1.55049,-0.2035 0.27667,-0.43004 2.57806,-0.82898 2.31359,-0.40105 -0.0982,0.15892 0.0689,0.28894 0.37141,0.28894 0.30249,0 0.52478,-0.11906 0.49398,-0.26458 -0.0308,-0.14552 0.0616,-0.53213 0.20538,-0.85913 0.20662,-0.46999 0.62611,-0.56739 2.00229,-0.46493 1.26521,0.0942 1.67693,0.0157 1.50676,-0.2874 -0.17967,-0.31997 -0.12959,-0.32039 0.21517,-0.002 0.30112,0.27826 0.72545,0.31023 1.28648,0.0969 0.52632,-0.2001 0.83715,-0.19054 0.83715,0.0258 0,0.42968 2.35744,0.4579 2.62104,0.0314 0.26539,-0.4294 -1.02211,-0.72699 -1.60002,-0.36982 -0.25976,0.16053 -0.66041,0.12983 -0.89996,-0.069 -0.23747,-0.19709 -0.71905,-0.32236 -1.07017,-0.27838 -0.35111,0.044 -0.94271,-0.051 -1.31466,-0.211 -1.62588,-0.69951 -25.30392,-0.26035 -26.04738,0.48311 -0.56841,0.56841 0.67433,0.94385 1.32814,0.40124 0.34361,-0.28517 0.67686,-0.31913 0.96565,-0.0984 0.45133,0.34497 2.5811,0.34925 4.93889,0.01 0.7276,-0.1047 1.32291,-0.0474 1.32291,0.12729 0,0.17472 -0.46688,0.31767 -1.03751,0.31767 -0.57063,0 -1.15078,0.18328 -1.28923,0.40729 -0.15097,0.24428 -0.0973,0.31183 0.13417,0.16879 0.53336,-0.32963 3.28281,0.14524 3.04729,0.52632 -0.2524,0.40838 0.0969,0.39064 0.91353,-0.0464 0.49007,-0.26228 0.73762,-0.22504 0.94695,0.14245 0.3331,0.58478 1.82358,0.89064 2.56736,0.52685 0.28603,-0.1399 0.81901,-0.0944 1.1844,0.10119 z m -2.5864,-0.94454 c 0,-0.097 0.0794,-0.17639 0.17639,-0.17639 0.097,0 0.17639,0.0794 0.17639,0.17639 0,0.097 -0.0794,0.17639 -0.17639,0.17639 -0.097,0 -0.17639,-0.0794 -0.17639,-0.17639 z m 1.76389,0 c 0,-0.097 0.0794,-0.17639 0.17639,-0.17639 0.097,0 0.17639,0.0794 0.17639,0.17639 0,0.097 -0.0794,0.17639 -0.17639,0.17639 -0.097,0 -0.17639,-0.0794 -0.17639,-0.17639 z m 7.76111,-1.05834 c 0,-0.097 0.0794,-0.17639 0.17639,-0.17639 0.097,0 0.17639,0.0794 0.17639,0.17639 0,0.097 -0.0794,0.17639 -0.17639,0.17639 -0.097,0 -0.17639,-0.0794 -0.17639,-0.17639 z m -21.51944,-0.35277 c 0,-0.097 0.0794,-0.17639 0.17638,-0.17639 0.097,0 0.17639,0.0794 0.17639,0.17639 0,0.097 -0.0794,0.17638 -0.17639,0.17638 -0.097,0 -0.17638,-0.0794 -0.17638,-0.17638 z m 3.64537,-0.0588 c 0.12935,-0.12935 0.34101,-0.12935 0.47037,0 0.12935,0.12935 0.0235,0.23518 -0.23519,0.23518 -0.2587,0 -0.36454,-0.10583 -0.23518,-0.23518 z m 25.63518,0.0588 c 0,-0.097 0.0794,-0.17639 0.17639,-0.17639 0.097,0 0.17639,0.0794 0.17639,0.17639 0,0.097 -0.0794,0.17638 -0.17639,0.17638 -0.097,0 -0.17639,-0.0794 -0.17639,-0.17638 z m -20.81389,-0.35278 c 0,-0.097 0.0794,-0.17639 0.17639,-0.17639 0.097,0 0.17639,0.0794 0.17639,0.17639 0,0.097 -0.0794,0.17639 -0.17639,0.17639 -0.097,0 -0.17639,-0.0794 -0.17639,-0.17639 z m 11.64167,2.46944 c 0,-0.097 -0.0794,-0.17639 -0.17639,-0.17639 -0.097,0 -0.17639,0.0794 -0.17639,0.17639 0,0.097 0.0794,0.17639 0.17639,0.17639 0.097,0 0.17639,-0.0794 0.17639,-0.17639 z m 2.82222,-1.05833 c 0,-0.097 -0.0794,-0.17639 -0.17639,-0.17639 -0.097,0 -0.17639,0.0794 -0.17639,0.17639 0,0.097 0.0794,0.17639 0.17639,0.17639 0.097,0 0.17639,-0.0794 0.17639,-0.17639 z m -24.01829,-1.10796 c 0.0808,-0.0697 -0.35571,-0.12676 -0.97013,-0.12676 -0.61443,0 -1.11713,0.16177 -1.11713,0.3595 0,0.31639 1.6659,0.13064 2.08726,-0.23274 z m 33.01162,0.23006 c 0.1236,-0.19998 -0.018,-0.25912 -0.33195,-0.13865 -0.61116,0.23452 -0.72298,0.48738 -0.21553,0.48738 0.18257,0 0.42894,-0.15693 0.54748,-0.34873 z m 1.94278,0.17234 c 0,-0.097 -0.0794,-0.17639 -0.17639,-0.17639 -0.097,0 -0.17639,0.0794 -0.17639,0.17639 0,0.097 0.0794,0.17639 0.17639,0.17639 0.097,0 0.17639,-0.0794 0.17639,-0.17639 z"
       id="path253" /></g></svg>
