<?xml version="1.0" encoding="UTF-8" standalone="no"?>
<!-- Created with Inkscape (http://www.inkscape.org/) -->

<svg
   width="333.85861mm"
   height="296.20618mm"
   viewBox="0 0 333.85863 296.20615"
   version="1.1"
   id="svg1"
   xml:space="preserve"
   xmlns="http://www.w3.org/2000/svg"
   xmlns:svg="http://www.w3.org/2000/svg"><defs
     id="defs1"><clipPath
       clipPathUnits="userSpaceOnUse"
       id="clipPath6"><path
         id="path7"
         style="fill:#ff0000;fill-opacity:1;fill-rule:nonzero;stroke:none;stroke-width:0.264583"
         d="M -175.07778,-16.057127 V 287.55793 H 124.54631 V -16.057127 Z m 132.7459,202.572647 c 0.210643,0.005 0.427212,0.0169 0.650089,0.0367 2.23823,0.19855 4.475655,0.4031 6.717938,0.55346 1.973313,0.11308 0.986628,0.0436 2.958475,0.20825 3.181295,0.26563 4.740125,1.85116 4.950601,3.46956 4.949923,1.63749 3.796379,7.35609 -2.592089,6.81354 -3.228716,-0.27422 -1.569593,-0.1301 -4.979024,-0.43357 -4.228209,-0.39317 -8.460616,-0.76265 -12.666927,-1.35341 -6.647387,-0.93358 -5.930551,-7.21034 0.03204,-7.20421 0.04685,5e-5 0.0972,0.004 0.144695,0.005 0.687229,-1.21692 2.304132,-2.15435 4.784204,-2.09548 z" /></clipPath><clipPath
       clipPathUnits="userSpaceOnUse"
       id="clipPath76"><path
         id="path77"
         style="fill:#ff0000;fill-opacity:1;fill-rule:nonzero;stroke:none;stroke-width:0.264583"
         d="M -133.83107,-122.52355 V 173.82063 H 122.97289 V -122.52355 Z M 13.574404,98.948202 c 2.788179,0.0507 4.135003,2.063798 3.398242,4.077268 0.199805,0.45372 0.374906,0.96736 0.517797,1.54461 1.07913,4.35948 0.671079,8.891 0.311608,13.31495 -0.351859,3.06036 -0.147137,1.57974 -0.604097,4.44366 -0.359666,2.25418 -1.333846,3.66838 -2.455664,4.32532 0.105138,0.36595 0.224724,0.72888 0.324528,1.09554 0.6273,2.23652 0.575201,4.47401 0.39429,6.75514 -0.137303,1.73129 -0.688065,2.99533 -1.427303,3.82199 -0.112477,0.41601 -0.170275,0.80219 -0.311092,1.25212 -0.184975,0.59102 -0.413327,1.1061 -0.670242,1.55856 0.741137,-0.23134 1.446982,-0.38145 2.064991,-0.37517 4.085002,0.0415 5.222724,4.75435 -0.02223,7.27138 -4.46677,2.14368 -9.303523,3.34693 -14.11903492,4.40955 -4.40876268,0.85156 -8.89238128,1.33053 -13.38264308,1.19269 -5.804014,-0.17807 -6.736297,-5.00293 -3.065447,-6.67298 -2.072987,-0.65744 -4.042852,-1.62261 -4.128947,-3.14709 -0.02802,-0.49633 0.0026,-0.90355 0.0341,-1.30897 -1.976731,-0.003 -3.95339,2.4e-4 -5.930386,0.003 -0.814031,0 -1.53062,-0.0962 -2.159559,-0.26149 -0.376306,0.19492 -0.742394,0.40783 -1.120862,0.59893 -6.391272,3.22657 -9.625245,-3.24074 -3.234428,-6.46886 1.833438,-0.92611 3.62694,-1.92211 5.414142,-2.92954 -0.877003,-3.87058 -1.368747,-7.83436 -1.323951,-11.80858 0.01651,-1.46304 0.376836,-2.54918 0.864547,-3.41426 -1.247357,-1.79999 -0.223805,-4.63069 3.842661,-5.68855 3.11826,-0.81116 6.282901,-1.39515 9.473837,-1.82211 -1.259816,-0.12657 -2.516182,-0.30233 -3.764627,-0.50177 -1.477002,-0.21985 -2.935575,-0.54305 -4.407482,-0.7891 -1.14214,-0.22954 -0.588502,-0.12004 -1.660882,-0.3297 -3.350244,-0.65501 -4.783278,-2.61088 -4.608504,-4.32997 -0.200179,-1.7721 1.333365,-3.52972 4.663799,-3.59461 v -5.3e-4 c 0.20954,-0.004 0.426035,-0.002 0.649571,0.008 1.77111,0.0772 3.528708,0.28204 5.26428,0.64027 1.655035,0.33225 3.314115,0.6481 4.955251,1.04439 1.244759,0.34858 2.51628,0.54538 3.7997689,0.6723 0.025956,0.002 0.052073,0.002 0.078034,0.004 0.4990888,-0.0371 0.9984105,-0.0743 1.4965495,-0.11317 1.346872,-0.12588 2.6913231,-0.25136 4.0457464,-0.24236 1.1278499,-0.0444 2.2567291,-0.10772 3.37498791,-0.26872 0.75719517,-0.11591 1.51142439,-0.25483 2.25722659,-0.4284 0.3616431,-0.12394 0.7240561,-0.24538 1.083138,-0.37775 0.3360393,-0.12388 0.6107589,-0.12825 0.9250071,-0.20723 0.1281086,-0.045 0.2583895,-0.0825 0.3855085,-0.13074 1.9825018,-0.7681 3.9540551,-1.56464 5.9510551,-2.29443 1.050809,-0.383992 1.999634,-0.542639 2.826703,-0.527616 z M 0.70283723,110.39557 c -0.45566013,0.0949 -0.90775367,0.208 -1.36890919,0.2744 -1.16638124,0.15534 -2.34111274,0.24237 -3.51761424,0.26251 0.4031694,0.0896 0.8047355,0.18876 1.2025101,0.308 0.1014836,0.0304 0.1982549,0.075 0.2986907,0.10852 0.4205235,-0.21824 0.9206601,-0.35072 1.4898318,-0.37156 0.39885139,-0.0146 0.83259872,0.0278 1.29449508,0.13023 0.22468681,-0.12213 0.44967525,-0.24374 0.67437529,-0.36587 -0.0326284,-0.11319 -0.058211,-0.22834 -0.0733795,-0.34623 z m 10.24433577,1.02474 c -0.76023,0.21437 -1.5189569,0.4343 -2.2696301,0.68006 -0.031261,0.62207 -0.2256075,1.28373 -0.6464723,1.94355 0.6236891,0.43248 1.2549743,1.04482 1.8634525,1.86862 0.2674939,0.36214 0.4748849,0.75712 0.7188199,1.13223 0.154519,-1.86707 0.314174,-3.74736 0.33383,-5.62446 z m 64.566086,3.39773 c 1.50346,0.0187 3.129182,1.24994 3.928441,4.04678 0.257931,0.90255 0.823497,1.65871 1.488797,2.30735 0.856321,0.95375 1.845738,1.76777 2.801898,2.61638 1.458581,1.46408 2.789203,3.04608 4.169772,4.58215 1.315059,1.44746 2.571226,2.91698 3.543967,4.61884 0.0053,0.01 0.0082,0.0206 0.01344,0.0305 0.734605,-0.43313 1.446276,-0.65634 2.094962,-0.69195 3.016182,-0.16561 4.69137,3.55377 1.187525,7.32306 -1.69471,1.82311 -3.657862,3.33908 -5.68751,4.7651 -0.777873,0.49914 -1.607691,0.90075 -2.418456,1.33842 0.165478,1.44344 -0.672182,3.24303 -2.956409,4.73096 -1.354556,0.88234 -2.690448,1.79306 -4.075203,2.6288 -2.075008,1.20078 -4.233777,2.27962 -6.540687,2.96259 -2.077586,0.62971 -4.169056,1.29987 -6.359301,1.36374 -1.872114,0.0897 -3.746989,0.0368 -5.620845,0.0501 h -5.1108 -5.524728 c -7.160125,0 -7.160125,-7.23315 0,-7.23315 h 1.347722 c 0.29438,-0.0541 0.5212,-0.1588 0.84801,-0.18656 1.106628,-0.094 2.200932,-0.28334 3.292822,-0.48421 0.456121,-0.98163 1.356053,-1.98213 2.807581,-2.83962 1.078018,-0.63685 2.158119,-1.26923 3.212209,-1.94561 1.962647,-1.29302 3.840588,-2.72135 5.893696,-3.86902 1.367169,-0.76424 2.559646,-1.07097 3.526915,-1.04128 2.216811,0.068 3.246223,1.90266 2.479953,4.04059 1.105688,-0.48686 2.206929,-0.98346 3.283003,-1.53739 2.619811,-1.23728 5.288743,-2.38548 7.764385,-3.9026 0.246153,-0.17184 0.487463,-0.34958 0.730705,-0.52503 -0.126915,-0.50614 -0.277693,-0.9939 -0.512114,-1.46554 -0.647621,-1.25778 -1.721077,-2.20654 -2.600875,-3.29644 -1.199229,-1.33472 -2.369312,-2.69496 -3.592029,-4.00803 -1.098706,-0.97599 -2.227236,-1.92181 -3.215306,-3.01428 -1.300821,-1.39063 -2.459913,-2.93896 -3.045293,-4.77801 -1.289469,-4.05101 0.646382,-6.61405 2.843754,-6.58667 z m -95.086705,4.28035 c -0.465643,0.10748 -0.930899,0.21773 -1.394745,0.33435 0.171958,0.64334 0.283575,1.36624 0.279569,2.2071 -0.01267,2.6582 0.205063,5.32647 0.670242,7.94732 0.280107,-0.17087 0.565767,-0.33222 0.845429,-0.50385 -0.01897,-0.36223 -0.02445,-0.73164 -0.05529,-1.08985 -0.118034,-2.96491 -0.160888,-5.93314 -0.3452,-8.89507 z m 18.5141159,1.1958 c 0.00497,0.0773 0.00619,0.15612 0.014975,0.23202 -0.1238779,0.22787 -0.2588048,0.44752 -0.3937741,0.66715 0.58900751,0.0447 1.13203305,0.21413 1.64331124,0.45888 -0.37615284,-0.49255 -0.78353709,-0.94642 -1.26452314,-1.35805 z m -6.5422357,14.57068 c -0.046649,0.0755 -0.09888,0.14702 -0.1436608,0.22376 -0.03147,0.054 0.1963367,0.0838 0.1860365,0.0222 -0.017595,-0.10481 -0.026035,-0.14905 -0.042376,-0.24597 z m 13.9236979,6.08439 c -0.2236258,0.5643 -0.5677508,1.09664 -1.1782213,1.50533 0.9079653,0.17659 1.7077452,0.44257 2.2830631,0.84852 0.1405493,-0.0459 0.272804,-0.11448 0.4128956,-0.16174 -0.7336976,-0.43656 -1.2984269,-1.18703 -1.5177374,-2.19211 z" /></clipPath><clipPath
       clipPathUnits="userSpaceOnUse"
       id="clipPath127"><path
         id="path128"
         style="fill:#ff0000;fill-opacity:1;fill-rule:nonzero;stroke:none;stroke-width:0.264583"
         d="M -112.24796,-126.55676 V 185.58027 H 148.5754 V -126.55676 Z M 46.874626,83.305366 c 1.808208,0 3.616317,1.790192 3.616317,5.370214 v 5.232238 c 0.0627,2.146078 -0.111291,4.285324 -0.245462,6.424932 -0.136289,2.02485 -0.190703,4.04985 -0.104904,6.07715 0.192061,1.91863 0.527714,3.82569 0.876432,5.72213 0.304242,2.00862 0.765826,3.9858 1.180806,5.97276 0.41642,1.86142 0.967934,3.68703 1.421104,5.53972 0.25287,0.86996 0.117097,0.46495 0.396356,1.22008 0.186108,0.50319 0.223428,0.93098 0.309544,1.38441 4.425355,2.23251 2.751262,7.58433 -3.415813,6.40477 -3.104732,-0.59371 -6.256094,-0.76586 -9.40821,-0.85576 -3.81635,0.009 -7.630525,0.17062 -11.44478,0.28216 -1.12776,0.0333 -2.255837,0.0512 -3.383772,0.0754 -0.908129,0.5548 -1.966518,0.57724 -2.88613,0.0641 -0.03584,5.3e-4 -0.07165,0.002 -0.107487,0.003 -0.03142,5.3e-4 -0.0525,-0.009 -0.08268,-0.009 -0.32049,0.14732 -0.641715,0.29301 -0.962215,0.44028 -0.262501,0.12062 -0.518089,0.22111 -0.770496,0.31265 -0.876996,0.71434 -1.945576,0.85817 -2.911967,0.46405 -2.943479,-0.21613 -4.295167,-2.77187 -2.550232,-5.0524 -2.22e-4,-0.028 -0.0078,-0.0483 -0.0078,-0.0765 v -6.3469 c -0.014,-2.72977 -0.02254,-5.45666 0.112657,-8.18348 0.135676,-2.32533 0.233519,-4.6523 0.299723,-6.98046 0.046,-1.80459 0.06926,-3.60958 0.08527,-5.41465 -0.0258,-1.02998 0.04009,-2.054459 0.138491,-3.078883 0.0044,-0.04602 0.02191,-0.07504 0.02687,-0.120406 C 15.992671,97.193438 15.83363,95.70984 16.656834,94.418959 10.68718,93.678613 10.992573,87.32947 17.739972,87.32947 h 3.885033 5.177462 5.913334 c 1.498505,0.05847 2.984222,-0.03228 4.475178,-0.161748 1.252041,-0.18606 2.49041,-0.398671 3.697968,-0.782897 1.001961,-0.32245 0.492366,-0.161472 1.527553,-0.482142 0.510384,-0.158096 0.938446,-0.174371 1.394749,-0.23771 0.672338,-1.56932 1.86623,-2.35903 3.063377,-2.35903 z" /></clipPath></defs><g
     id="layer1"
     transform="translate(145.33757,357.80645)"><path
       style="fill:#000000"
       d="m -23.629313,-61.769824 c -5.97124,-1.243578 -7.56253,-2.870076 -8.32087,-8.504963 -0.31145,-2.314263 -0.27747,-3.717707 0.17463,-7.212191 1.47176,-11.375935 5.99439,-21.383369 13.55695,-29.998102 l 1.7761,-2.02321 -0.19805,-3.09207 c -0.21545,-3.36355 0.12709,-4.67717 1.88244,-7.2191 1.34411,-1.9464 1.09018,-2.15542 -2.5379,-2.08903 -7.70968,0.14109 -15.46219,-2.1654 -20.62079,-6.135 -4.72348,-3.63476 -8.20538,-8.5588 -10.03791,-14.19546 -0.41359,-1.27215 -0.78656,-1.84681 -1.19114,-1.83525 -0.48622,0.0139 -16.18543,1.64386 -16.59045,1.72251 -0.0695,0.0135 -0.031,0.40465 0.0856,0.86922 0.37965,1.51263 1.57842,10.13604 2.21202,15.91227 0.38227,3.48504 0.62525,8.47866 0.63511,13.05278 0.0152,7.03308 -0.0244,7.4839 -0.78124,8.90036 -0.43846,0.82062 -1.26527,1.73409 -1.83735,2.02992 -1.31443,0.67972 -12.90782,2.68295 -15.656962,2.705378 -1.135062,0.0093 -2.238375,-0.157788 -2.451805,-0.371218 -0.592146,-0.592146 -2.046933,-0.481317 -9.080465,0.69177 -6.277843,1.04705 -6.521393,1.061864 -8.023845,0.488072 -0.90539,-0.345773 -2.0131,-0.510883 -2.66481,-0.397203 -0.61343,0.107003 -3.89345,0.680951 -7.28893,1.27544 -7.6306,1.335982 -9.15668,1.364538 -11.12972,0.208261 -1.73192,-1.014976 -3.21634,-3.12405 -5.71679,-8.12245 -3.94821,-7.89248 -6.75019,-16.17001 -9.40157,-27.77383 -0.20687,-0.90538 -0.30899,-0.95081 -1.71442,-0.76266 -2.33387,0.31244 -3.75122,-0.82725 -4.75539,-3.82381 -1.28791,-3.84326 -1.97692,-8.52261 -2.0049,-13.61611 l -0.0258,-4.70142 1.14763,-1.02723 c 0.66841,-0.59828 1.73967,-1.1219 2.56545,-1.25394 0.77981,-0.1247 1.48357,-0.33308 1.56391,-0.46307 0.0803,-0.12999 0.22137,-4.19695 0.31342,-9.03769 0.25993,-13.67061 1.50205,-21.31266 3.77495,-23.22518 1.41674,-1.19212 2.44278,-1.46609 10.56659,-2.82149 l 6.87916,-1.14774 0.44458,-1.3374 c 0.60975,-1.83429 1.70059,-3.28188 2.96628,-3.9364 1.19112,-0.61595 11.32449,-2.61212 13.30264,-2.62048 1.64857,-0.007 1.999498,-0.26863 2.27784,-1.69845 0.434765,-2.23336 1.294565,-3.52623 2.825485,-4.24865 1.718326,-0.81085 12.331122,-2.38863 13.72082,-2.03984 1.776901,0.44598 3.091317,2.01487 5.035137,6.00998 3.2489,6.67743 6.62081,19.63 9.03402,34.7025 1.14342,7.14165 1.14402,7.14375 2.05042,7.14142 0.49867,-0.001 3.52604,-0.3129 6.7275,-0.6925 3.20146,-0.37959 8.66272,-0.94446 12.13615,-1.25525 5.56703,-0.49813 6.44482,-0.66258 7.40833,-1.3879 1.81874,-1.36913 4.32873,-2.03856 7.7076,-2.05566 1.69774,-0.009 3.08609,-0.10822 3.08521,-0.2214 -8.8e-4,-0.11319 -1.38994,-0.90994 -3.08681,-1.77057 -1.69686,-0.86062 -3.16458,-1.65463 -3.2616,-1.76445 -0.097,-0.10982 -0.65263,-0.43457 -1.23472,-0.72166 -6.99717,-3.45108 -17.8491,-13.25938 -24.20619,-21.87828 -1.56864,-2.12674 -4.75257,-7.45873 -6.31971,-10.58333 -6.25122,-12.46384 -9.47353,-29.80134 -8.50003,-45.73405 0.97251,-15.91668 3.97051,-27.7471 10.16805,-40.12423 6.89632,-13.77267 17.73078,-25.80063 30.96025,-34.37078 6.89271,-4.46514 16.52884,-9.06187 24.47006,-11.67297 6.0178501,-1.97868 15.7341501,-4.09714 22.00189,-4.7971 2.00515,-0.22392 2.00907,-0.22671 3.13809,-2.22989 1.45886,-2.58841 5.50575,-6.75838 8.47686,-8.73465 4.32111,-2.87424 11.37121,-5.32604 14.3496,-4.99034 2.19893,0.24785 3.02099,1.18512 3.24492,3.6997 l 0.1801,2.02238 3.70416,0.2309 c 7.92796,0.49419 14.0289,3.14907 19.40846,8.44575 2.30741,2.27186 5.33751,6.62773 5.99378,8.61624 0.22289,0.67537 0.59138,1.22968 0.81887,1.23181 0.22749,0.002 2.27332,0.94119 4.5463,2.08679 4.79684,2.41765 10.51214,6.36737 15.09304,10.43049 8.72072,7.73499 16.153998,19.65477 21.341108,34.2219 2.21873,6.23096 4.48476,14.69172 5.10212,19.05 0.21988,1.55222 0.54819,3.61597 0.72958,4.58611 1.07432,5.74585 1.4638,21.30177 0.70219,28.04583 -1.85164,16.39642 -6.27479,29.07912 -13.98101,40.08836 -2.96656,4.2381 -3.8454,5.29045 -8.030038,9.61549 -6.17536,6.38255 -12.98617,11.35163 -21.29732,15.53825 -1.60073,0.80634 -2.91041,1.55358 -2.91041,1.66051 0,0.10694 0.92357,0.0873 2.05239,-0.0438 3.37734,-0.39199 7.98712,0.76555 9.9704,2.5036 0.37048,0.32468 3.0333,0.72573 7.9375,1.19549 4.05899,0.38879 9.602478,0.99774 12.318868,1.35321 3.56144,0.46606 5.04914,0.53933 5.3342,0.26272 0.21741,-0.21098 0.5855,-1.6536 0.81797,-3.20582 1.32228,-8.82921 4.86512,-24.3184 7.06446,-30.88564 1.42397,-4.25199 4.52613,-10.4598 6.00251,-12.01181 1.68912,-1.77562 2.89803,-1.94059 8.93942,-1.21988 8.57339,1.02276 10.19862,1.85719 10.67962,5.48312 l 0.22934,1.72886 1.98568,0.22411 c 5.00287,0.56464 11.28575,1.69858 12.56902,2.26847 1.88328,0.83635 2.81541,1.93358 3.53903,4.16586 0.43565,1.34394 0.809,1.89954 1.3535,2.01421 0.41355,0.0871 3.68879,0.64709 7.2783,1.24446 3.58951,0.59736 7.01898,1.24339 7.62104,1.43561 2.3169,0.73974 3.37884,2.87407 4.20078,8.44291 0.79158,5.36318 1.33748,14.94617 1.14944,20.17776 l -0.17368,4.83192 1.7251,0.36997 c 3.86861,0.82967 4.36847,1.84786 4.04899,8.2477 -0.37845,7.581 -1.64923,13.1794 -3.42249,15.07767 -0.86608,0.92715 -1.19491,1.03664 -3.11316,1.03664 -1.93678,0 -2.16191,0.077 -2.32124,0.79375 -3.17368,14.27785 -6.71488,24.15206 -11.28907,31.47827 -1.83916,2.945681 -3.06259,4.179598 -4.90868,4.950762 -1.37942,0.576221 -2.01132,0.555323 -6.04064,-0.199774 -10.83011,-2.02957 -12.15844,-2.184282 -13.45825,-1.567485 -1.43222,0.679633 -1.48103,0.676199 -10.06909,-0.708362 -6.173,-0.995205 -6.25695,-0.999122 -7.67819,-0.358228 -1.43273,0.646068 -1.46098,0.6441 -9.58401,-0.667778 -4.48088,-0.723665 -8.53053,-1.490475 -8.99923,-1.704035 -3.59513,-1.63805 -3.90826,-10.38727 -1.15032,-32.14124 0.58672,-4.62792 1.01679,-8.46034 0.95571,-8.51648 -0.0611,-0.0561 -3.59904,-0.51507 -7.862138,-1.01984 -6.15407,-0.72867 -7.83261,-0.82743 -8.14682,-0.47935 -0.21766,0.24112 -0.75432,1.45166 -1.19258,2.69009 -1.56166,4.41287 -5.67925,10.12458 -9.43429,13.08677 -2.3116,1.82352 -6.81636,3.91397 -10.69328,4.96227 -2.3966,0.64803 -4.02558,0.82351 -8.11389,0.87409 -5.77076,0.0714 -6.08127,0.23842 -4.44092,2.38904 1.56583,2.0529 2.05811,3.97163 1.81434,7.07169 l -0.2175,2.76611 2.43615,2.87834 c 7.88377,9.31474 12.48691,20.769541 12.99622,32.340762 0.26756,6.078869 -0.25838,8.265082 -2.50853,10.427326 -2.04434,1.964481 -3.92467,2.454736 -9.19782,2.398129 -4.35016,-0.0467 -8.13971,-0.778958 -11.03399,-2.132116 -1.80083,-0.841944 -5.22988,-2.851232 -5.79109,-3.393357 -0.25357,-0.244939 -2.36603,-1.790298 -4.69436,-3.434131 -2.32833,-1.643833 -5.19361,-3.981112 -6.36727,-5.193952 -1.17367,-1.21284 -2.391,-2.205164 -2.70518,-2.205164 -1.27335,0 -1.71938,-0.525337 -2.42867,-2.860535 l -0.73843,-2.431131 h -7.50613 -7.50612 l -0.79403,2.469444 c -0.76255,2.371542 -1.0305,2.659667 -2.33162,2.507174 -0.21524,-0.02523 -1.0089899,0.603061 -1.7638899,1.396196 -4.91587,5.164854 -15.38966,12.347905 -20.2461601,13.885047 -3.79723,1.201875 -10.07216,1.896114 -12.52361,1.385574 z m 9.87778,-5.238548 c 2.49718,-0.521989 7.7047201,-2.872555 7.4122801,-3.345732 -0.0873,-0.141198 -1.79073,-0.346156 -3.7854701,-0.455463 -5.64775,-0.309482 -13.4839,-2.97783 -15.93078,-5.424715 -0.5341,-0.534093 -0.95061,-0.720486 -1.09346,-0.489336 -0.12692,0.205353 -0.22563,1.755516 -0.21936,3.444806 0.009,2.419714 0.14913,3.255907 0.66048,3.940814 1.7793,2.383174 7.65014,3.438787 12.95631,2.329626 z m 79.40342,-0.213537 c 1.06154,-0.202295 2.27467,-0.744255 2.97538,-1.329229 1.15628,-0.965307 1.18657,-1.060883 1.33765,-4.22073 0.17488,-3.657756 -8.9e-4,-3.861719 -2.03475,-2.361185 -2.92809,2.160279 -9.9272,4.255332 -15.71226,4.703172 l -3.175,0.245787 1.29162,0.763389 c 4.19663,2.480334 9.69684,3.269886 15.31736,2.198796 z m -21.0187,-2.609407 c 0,-0.09701 -0.0794,-0.176389 -0.17639,-0.176389 -0.097,0 -0.17639,0.07937 -0.17639,0.176389 0,0.09701 0.0794,0.176389 0.17639,0.176389 0.097,0 0.17639,-0.07937 0.17639,-0.176389 z m -46.6437499,-4.589821 c 1.21877997,-0.287347 2.88564997,-0.859767 3.70416,-1.272046 1.86735,-0.940571 4.4887,-3.045695 4.48101,-3.598556 -0.003,-0.229545 -0.98299,-0.893604 -2.17734,-1.475687 -3.39541003,-1.654808 -8.40019,-5.839766 -8.40019,-7.024172 0,-0.966169 1.66119,-4.998755 4.15465997,-10.085549 1.47420003,-3.007433 2.69029003,-5.625823 2.70243003,-5.818663 0.0121,-0.19283 -0.93042,-0.47297 -2.09459003,-0.62253 -1.16416,-0.14956 -4.62430997,-0.76382 -7.68919997,-1.36503 -5.4504201,-1.06914 -5.5885401,-1.07869 -6.3030101,-0.4358 -1.32325,1.19069 -6.52818,9.061386 -8.19898,12.398178 -2.54886,5.090422 -4.66733,11.484682 -4.29562,12.965678 0.44795,1.784793 3.96781,3.816057 9.10853,5.256418 5.64158,1.580693 11.1861301,1.978856 15.0081401,1.077759 z m 59.3463299,-0.343165 c 5.91764,-1.230388 10.1287,-3.167791 11.25781,-5.179441 0.46053,-0.820492 0.43116,-1.255734 -0.28481,-4.220646 -1.46876,-6.082251 -5.89161,-14.48123 -10.93647,-20.768311 -1.60348,-1.99832 -1.8074,-2.13914 -2.5343,-1.75011 -0.79601,0.42601 -8.75074,2.00602 -11.61592,2.30721 -1.26118,0.13258 -2.40988,0.30758 -2.55266,0.38888 -0.14278,0.0813 0.35156,1.37016 1.09854,2.86412 1.67832,3.356649 4.36107,9.546751 5.12723,11.830412 0.5714,1.703157 0.57084,1.707519 -0.36565,2.822222 -1.39678,1.662595 -5.09758,4.510112 -7.3275,5.638022 -1.08064,0.546599 -2.07432,1.171008 -2.20817,1.387575 -0.34406,0.556711 2.40484,2.895588 4.65347,3.959361 1.03529,0.489773 2.72595,1.041901 3.75702,1.226951 2.46997,0.443296 8.61942,0.182377 11.93141,-0.506245 z m 9.16964,-0.711458 c 0,-0.09701 -0.0794,-0.176389 -0.17639,-0.176389 -0.097,0 -0.17639,0.07937 -0.17639,0.176389 0,0.09701 0.0794,0.176389 0.17639,0.176389 0.097,0 0.17639,-0.07937 0.17639,-0.176389 z m -56.44002,-8.125518 c 0.18686,-0.491466 0.66655,-2.515528 1.06598,-4.497917 0.91145,-4.523569 2.67724,-11.178516 3.56087,-13.420305 l 0.67322,-1.70798 -1.07315,-1.35496 c -0.59024,-0.74524 -1.41029,-2.16621 -1.82235,-3.15772 -0.41205,-0.99152 -0.9242,-1.74599 -1.13812,-1.67662 -1.6700599,0.54164 -8.0940999,11.540722 -10.0846399,17.266676 -1.49270003,4.293893 -1.47699003,4.12863 -0.48039003,5.052244 1.56526003,1.450633 7.13601003,4.312179 8.50914003,4.370919 0.24734,0.01058 0.60259,-0.382871 0.7894399,-0.874337 z m 28.12643,-0.890228 c 4.73771,-2.454758 4.91409,-2.654991 4.37938,-4.9715 -0.41063,-1.778948 -2.10206,-5.997202 -4.1597,-10.373886 -1.46066,-3.106878 -6.26009,-9.681888 -7.06732,-9.681908 -0.22694,-1e-5 -0.66996,0.77475 -0.98448,1.72169 -0.31452,0.94693 -1.09441,2.32621 -1.7331,3.06506 l -1.16124,1.34335 0.68493,1.78564 c 1.06956,2.788394 2.96972,9.72469 3.60106,13.145165 0.9725,5.268881 1.151,5.750191 2.13254,5.750191 0.47585,0 2.41442,-0.802711 4.30793,-1.783802 z m -24.25029,0.54908 c 0,-0.09701 -0.0794,-0.176389 -0.17639,-0.176389 -0.097,0 -0.17639,0.07937 -0.17639,0.176389 0,0.09701 0.0794,0.176389 0.17639,0.176389 0.097,0 0.17639,-0.07937 0.17639,-0.176389 z m 13.92892,-3.757167 c 0.28133,-0.281331 -1.41201,-8.767893 -2.32991,-11.67686 l -0.75138,-2.381247 -2.95437,-0.0529 c -1.62491,-0.0291 -3.13684,-0.0688 -3.35985,-0.0882 -0.55734,-0.0485 -1.21627,1.977227 -2.39831,7.373053 -1.58262,7.224371 -1.5561,6.808354 -0.44616,7.000565 1.32107,0.228773 11.98881,0.07677 12.23998,-0.174399 z m -48.50114,-9.648388 c 0,-0.09701 -0.0794,-0.176388 -0.17639,-0.176388 -0.097,0 -0.17639,0.07938 -0.17639,0.176388 0,0.09701 0.0794,0.176389 0.17639,0.176389 0.097,0 0.17639,-0.07937 0.17639,-0.176389 z m -90.726157,-4.086769 c 3.42285,-0.59848 6.34525,-1.16347 6.49421,-1.25554 0.48224,-0.29804 0.29335,-0.82571 -0.96388,-2.69259 -0.6791,-1.0084 -1.23473,-1.95903 -1.23473,-2.11251 0,-0.15348 -0.79975,-2.02966 -1.77722,-4.16929 -2.96423,-6.48849 -6.9628,-19.28495 -8.58913,-27.48746 -2.36566,-11.93136 -2.8548,-17.24752 -2.85637,-31.04444 -0.001,-9.57117 0.11607,-12.54463 0.61622,-15.63965 0.33967,-2.10187 0.54516,-3.93875 0.45665,-4.08196 -0.32743,-0.52979 -11.90763,1.52821 -13.55249,2.40851 -2.34436,1.25466 -3.67723,21.75433 -2.34842,36.11887 1.57096,16.9822 5.7137,32.94122 11.5223,44.3872 1.80037,3.54767 4.3154,6.65702 5.3846,6.65702 0.34369,0 3.4254,-0.48967 6.84826,-1.08816 z m 274.67203,-0.4195 c 2.82763,-2.96289 7.18309,-12.52875 9.67381,-21.24651 2.21216,-7.74273 3.2053,-12.69641 5.37528,-26.8111 0.53197,-3.46021 0.74373,-20.8188 0.30124,-24.69444 -1.07941,-9.45449 -1.71838,-12.10926 -3.09142,-12.84409 -1.59704,-0.85471 -12.40247,-2.62444 -12.91214,-2.11477 -0.0909,0.0909 0.1506,1.98575 0.53674,4.21071 0.51132,2.94625 0.75884,6.44878 0.91102,12.89125 0.29934,12.67225 -0.31091,19.5263 -2.88732,32.42912 -1.06778,5.3475 -1.57098,7.23611 -3.52478,13.22916 -0.28465,0.87312 -0.90985,2.95481 -1.38933,4.62598 -1.01099,3.52369 -2.51397,7.40706 -4.25872,11.00359 -0.67665,1.39482 -1.23027,2.65851 -1.23027,2.80821 0,0.1497 -0.64146,1.32806 -1.42548,2.61857 -0.78401,1.29052 -1.37763,2.59734 -1.31916,2.90405 0.0722,0.37878 0.72746,0.65739 2.04284,0.86861 1.06509,0.17103 3.52402,0.5896 5.4643,0.93015 5.65704,0.99293 6.05379,0.95145 7.73339,-0.80849 z m -254.885829,-1.23735 c 2.977975,-0.46461 4.125337,-0.78844 4.409722,-1.2446 0.259356,-0.41601 0.267308,-0.69939 0.02444,-0.87113 -0.474131,-0.33528 -0.925252,-1.39681 -2.212954,-5.20732 -1.334622,-3.94935 -2.704199,-8.51265 -3.383948,-11.275 -0.286475,-1.16416 -1.086901,-4.19724 -1.778726,-6.74016 -5.251528,-19.30292 -7.526755,-42.6709 -6.048265,-62.11934 0.26834,-3.52981 0.571821,-6.55364 0.674401,-6.71962 0.102579,-0.16598 0.06893,-0.49203 -0.07479,-0.72456 -0.244681,-0.39591 -3.626131,-0.16542 -6.747701,0.45994 -0.48507,0.0972 -1.50972,0.25784 -2.27699,0.35702 -3.53696,0.4572 -5.13135,1.25529 -5.13135,2.56857 0,0.37752 -0.22984,1.33785 -0.51076,2.13407 -0.28093,0.79622 -0.61088,2.44336 -0.73323,3.66032 -0.12236,1.21697 -0.31173,2.45079 -0.42084,2.74183 -0.2023,0.53963 -0.24032,0.98516 -0.76752,8.99583 -0.97298,14.78391 1.32617,33.83342 5.8233,48.24873 3.95853,12.68887 8.65499,23.88101 10.815646,25.77478 1.276924,1.1192 0.902332,1.12097 8.339558,-0.0394 z m 234.664859,0.18737 c 3.83171,-2.53728 13.07693,-27.77269 15.64961,-42.71662 0.66986,-3.89103 1.49512,-12.37081 1.79091,-18.40212 0.43304,-8.82984 -0.7207,-22.33925 -2.4498,-28.68527 -0.9527,-3.49655 -2.00487,-4.33768 -6.03092,-4.82127 -1.16416,-0.13983 -2.26818,-0.34718 -2.45337,-0.46077 -0.18519,-0.1136 -1.51659,-0.26595 -2.95867,-0.33856 l -2.62196,-0.13202 0.21072,1.69672 c 1.75761,14.15242 1.64644,29.70479 -0.31221,43.67728 -1.29152,9.21341 -5.31857,26.29938 -6.87931,29.18757 -0.18207,0.33691 -0.33103,0.89849 -0.33103,1.24794 0,1.33545 -4.12889,12.9555 -5.89544,16.5917 -0.51854,1.06735 -0.77368,1.99265 -0.59373,2.15322 0.17356,0.15485 2.29807,0.55428 4.72114,0.88762 2.42307,0.33333 4.47359,0.67407 4.55671,0.75719 0.43107,0.43107 2.54662,0.0531 3.59735,-0.64261 z m -218.693003,-0.98774 c 2.5835,-0.39773 5.06625,-0.80059 5.51724,-0.89524 l 0.81997,-0.1721 -0.75444,-1.13322 c -1.87518,-2.81669 -4.4317,-9.4877 -6.51803,-17.00823 -0.53827,-1.94027 -1.49756,-5.3534 -2.13175,-7.58472 -0.6342,-2.23131 -1.34013,-5.00944 -1.56874,-6.1736 -0.22862,-1.16417 -0.795688,-3.70417 -1.26016,-5.64445 -0.464473,-1.94028 -1.078259,-4.95653 -1.363968,-6.70278 -0.28571,-1.74625 -0.75967,-4.20687 -1.053243,-5.46805 -1.087249,-4.67077 -2.066413,-16.32473 -2.53425,-30.1625 -0.250943,-7.42245 0.25569,-16.25648 1.091317,-19.02901 0.354249,-1.17536 0.409085,-1.85911 0.1684,-2.0998 -0.386286,-0.38628 -7.27046,0.63449 -8.713634,1.29204 -0.962808,0.43869 -1.68353,2.52637 -2.220214,6.43122 -0.213339,1.55222 -0.456643,3.29847 -0.540677,3.88055 -0.08403,0.58209 -0.336509,4.44636 -0.561059,8.58727 -1.127049,20.78394 3.392714,51.89241 10.832046,74.55444 1.684842,5.13245 2.088935,6.02175 3.165933,6.96736 1.463017,1.28455 1.587037,1.29042 7.625259,0.36082 z m 201.712043,-0.20316 c 1.38639,-1.16657 2.00798,-2.39496 4.01207,-7.92867 3.59967,-9.93943 7.37351,-23.98858 9.18238,-34.18389 1.65555,-9.33118 2.73602,-22.13169 2.65869,-31.49784 -0.0653,-7.91111 -0.34193,-11.62875 -1.37059,-18.42022 -0.8133,-5.36955 -1.55796,-7.78703 -2.60383,-8.45307 -1.53139,-0.97523 -9.64653,-2.17487 -10.29926,-1.52251 -0.14032,0.14023 0.003,1.17323 0.31744,2.29554 2.08854,7.4435 1.27573,33.51062 -1.54295,49.48271 -0.83642,4.73961 -3.35019,16.40034 -4.03099,18.69872 -0.25863,0.87312 -1.05989,3.80999 -1.78058,6.52638 -3.08558,11.63007 -6.56383,21.01508 -8.54049,23.04395 -1.06422,1.09232 -0.30214,1.38428 5.89582,2.25874 5.80482,0.81899 6.81716,0.78153 8.10229,-0.29984 z m -102.258403,-1.59709 c 2.0039,-0.67968 3.0502,-1.63356 4.06342,-3.70452 0.91472,-1.86962 0.94677,-2.09882 0.58706,-4.19879 -0.43445,-2.53626 -1.10404,-3.59916 -3.08095,-4.89067 -3.1497,-2.05769 -8.65699,-0.6626 -10.36207,2.62487 -1.10144,2.12363 -0.92715,5.19282 0.41567,7.31999 1.71106,2.71049 5.24345,3.91192 8.37687,2.84912 z m 87.453333,-0.4752 c 0,-0.097 -0.0794,-0.17639 -0.17639,-0.17639 -0.097,0 -0.17638,0.0794 -0.17638,0.17639 0,0.097 0.0794,0.17638 0.17638,0.17638 0.097,0 0.17639,-0.0794 0.17639,-0.17638 z m -1.05048,-1.95131 c 1.52565,-2.14257 3.55939,-6.83798 5.5367,-12.78287 1.11218,-3.34384 2.08404,-5.76809 2.15969,-5.38722 0.20449,1.02957 1.27191,-1.95583 2.70721,-7.57165 0.66946,-2.61938 1.53301,-5.87375 1.91899,-7.23195 0.81137,-2.85502 0.84609,-3.11673 0.37487,-2.8255 -0.39382,0.2434 -0.38304,0.16129 0.85686,-6.52311 2.28198,-12.30232 3.14768,-22.6124 3.16948,-37.74722 0.0172,-11.93805 -0.11053,-13.47055 -1.22131,-14.65292 -0.86248,-0.91807 -1.75201,-1.14964 -1.75201,-0.4561 0,0.22725 -0.21744,0.66382 -0.48321,0.97014 -1.96048,2.25963 -9.19667,31.35826 -9.48883,38.15706 -0.1226,2.85299 0.71788,2.54289 1.51367,-0.55846 0.3485,-1.35819 0.80037,-2.89966 1.00414,-3.42549 0.94768,-2.44541 3.3743,-3.21505 4.53568,-1.43857 1.37697,2.10625 0.42689,15.66259 -1.68436,24.03351 -1.33976,5.31205 -3.09596,8.84842 -4.40505,8.87029 -0.56689,0.009 -1.4692,-1.77507 -1.74619,-3.45352 -0.21341,-1.29312 -0.3638,-1.50322 -1.0101,-1.41111 -0.68868,0.0982 -0.81596,0.50225 -1.36749,4.34156 -1.37031,9.53898 -2.08978,16.55217 -2.28437,22.2673 -0.26877,7.89392 0.0308,9.1217 1.66563,6.82583 z m -176.749273,-1.7059 c 0.27168,-3.36963 -0.23371,-10.99048 -1.26243,-19.03614 -1.55689,-12.17654 -1.63584,-12.58443 -2.43587,-12.58443 -0.55684,0 -0.71828,0.27631 -0.80248,1.37347 -0.10033,1.30751 -1.03708,3.38903 -1.52516,3.38903 -0.65019,0 -2.09531,-1.59158 -2.79321,-3.0763 -1.92507,-4.0954 -3.81975,-14.8876 -4.10496,-23.38203 -0.17102,-5.09342 -0.13374,-5.5466 0.54412,-6.61458 0.98163,-1.54656 2.43165,-1.57483 3.69616,-0.072 0.84535,1.00464 2.32691,4.98427 2.339,6.28281 0.009,0.96292 0.6151,1.68831 1.04855,1.25486 0.46734,-0.46734 -0.1148,-4.28824 -2.33056,-15.29668 -2.42558,-12.05086 -4.56066,-19.73472 -6.753522,-24.30491 -0.993652,-2.0709 -1.723773,-2.59525 -2.374514,-1.70531 -0.233662,0.31955 -0.488518,0.51732 -0.566347,0.43949 -0.07783,-0.0778 -0.164488,0.20245 -0.192576,0.62285 -0.935602,14.00315 -0.948488,18.0718 -0.09851,31.10324 0.34048,5.22009 1.81887,17.64975 2.430992,20.43873 0.173041,0.78842 0.578268,3.02099 0.9005,4.96126 0.65955,3.9713 4.16975,18.74315 4.90404,20.6375 0.26323,0.6791 0.59992,1.18677 0.7482,1.12816 0.14827,-0.0586 0.93642,1.8464 1.75144,4.23334 2.23475,6.54487 5.40898,12.82297 6.33021,12.52011 0.20367,-0.067 0.44979,-1.10756 0.54693,-2.31243 z m 73.3240601,1.27596 c 0.39029,-0.63059 1.21283,-1.62278 1.82788,-2.20487 1.4443599,-1.36694 3.0630199,-3.70623 3.3467599,-4.83673 0.2594,-1.03352 -0.38415,-1.32014 -3.0044899,-1.33815 -0.87313,-0.006 -5.61855,-0.47077 -10.54539,-1.0328 -4.92684,-0.56204 -9.1610601,-0.94392 -9.4093901,-0.84863 -0.67919,0.26063 -1.55382,2.73379 -1.8001,5.09004 -0.357,3.41558 -0.0839,3.55526 10.2896001,5.26254 8.12445,1.33714 8.41272,1.3343 9.29513,-0.0914 z m 40.2701399,-0.14287 c 3.00743,-0.47949 6.02368,-1.1396 6.70278,-1.4669 1.22747,-0.5916 1.23534,-0.61031 1.33906,-3.18686 0.0731,-1.81701 -0.0777,-3.06855 -0.50478,-4.18672 l -0.60912,-1.59496 -1.61188,0.20245 c -0.88654,0.11134 -3.20005,0.44514 -5.14114,0.74177 -1.9411,0.29664 -6.34833,0.75534 -9.79386,1.01935 -3.44554,0.264 -6.35717,0.57256 -6.47029,0.68569 -0.11313,0.11312 -0.0978,0.69706 0.0342,1.29765 0.24393,1.1106 5.39088,7.0347 6.49365,7.47414 0.74422,0.29656 2.93767,0.0704 9.56143,-0.98561 z m 124.177773,-0.29811 c 0,-0.097 -0.0794,-0.17639 -0.17639,-0.17639 -0.097,0 -0.17639,0.0794 -0.17639,0.17639 0,0.097 0.0794,0.17639 0.17639,0.17639 0.097,0 0.17639,-0.0794 0.17639,-0.17639 z m -22.34259,-2.52824 c -0.12935,-0.12935 -0.23518,-0.0235 -0.23518,0.23519 0,0.2587 0.10583,0.36453 0.23518,0.23518 0.12935,-0.12935 0.12935,-0.34102 0,-0.47037 z m -134.530233,-9.2547 c 2.64192,-1.46994 6.69518,-2.6306 8.39185,-2.40303 l 1.39435,0.18703 2.39949,-3.46775 c 2.45668,-3.55042 11.68992,-18.92608 11.68992,-19.46666 0,-0.11113 -2.51431,-0.22635 -5.58734,-0.25605 l -5.58735,-0.054 -2.78889,4.2137 c -1.53389,2.31754 -2.94865,4.12341 -3.1439,4.01306 -0.19526,-0.11036 -0.24229,-0.0757 -0.10451,0.077 0.37866,0.41971 -0.74442,2.36832 -1.20198,2.08553 -0.23784,-0.14699 -0.29305,-0.0819 -0.14026,0.16533 0.14047,0.22728 -1.18604,2.94484 -2.99705,6.13991 -1.78699,3.15269 -3.63426,6.41947 -4.10504,7.25951 -0.75299,1.34357 -0.87717,2.5296 -0.26485,2.5296 0.11359,0 1.03409,-0.46045 2.04556,-1.02322 z m 25.46311,-0.0683 c 7.09148,-0.67173 12.30163,-1.36762 12.61952,-1.68551 0.18357,-0.18357 -0.20388,-1.86194 -0.93252,-4.03944 -1.2058,-3.60349 -2.87335,-11.11061 -2.54166,-11.4423 0.25097,-0.25097 2.58091,3.53975 4.70885,7.66114 1.05594,2.04515 2.06217,3.86977 2.23605,4.05471 0.45885,0.48803 6.70024,0.25846 10.18302,-0.37454 5.57648,-1.01354 10.73517,-3.53057 13.88718,-6.77585 1.4434,-1.48611 1.29551,-2.08758 -0.35515,-1.44442 -1.82575,0.71138 -7.80558,0.80746 -10.51499,0.16894 -5.40274,-1.27324 -9.29268,-3.9846 -12.22765,-8.52289 l -1.39318,-2.15424 -4.27415,-0.22982 c -2.35078,-0.1264 -5.67028,-0.22982 -7.37667,-0.22982 h -3.10252 l -1.53413,2.38125 c -1.70152,2.64106 -3.70864,5.99198 -4.45432,7.43656 -0.53725,1.04078 -2.26007,3.91088 -5.83155,9.71495 -1.29762,2.10878 -2.31197,3.88096 -2.25411,3.93817 0.0579,0.0572 0.7402,0.61168 1.51631,1.23216 l 1.41111,1.12813 3.175,-0.2248 c 1.74625,-0.12364 4.92125,-0.39021 7.05556,-0.59238 z m -30.1518299,-1.8189 c 0.6420199,-1.21268 1.5111499,-2.76049 1.9314099,-3.43959 0.42025,-0.67909 1.4429,-2.48411 2.27256,-4.01115 l 1.50846,-2.77643 -3.32486,-3.39718 c -5.0295199,-5.13891 -8.1873799,-8.50702 -8.5011799,-9.06719 -0.32333,-0.57717 -3.24351003,-0.64636 -11.44497,-0.27117 l -5.0243101,0.22985 -1.01836,1.80443 c -2.33043,4.12929 -7.25889,7.69896 -12.25632,8.87721 -2.7458,0.64738 -8.10749,0.53317 -10.64377,-0.22672 -2.05791,-0.61656 -2.27806,-0.14177 -0.60516,1.30513 5.74115,4.96553 11.08031,6.98666 19.58232,7.41286 4.92324,0.2468 4.68021,0.34463 5.83522,-2.34908 0.75384,-1.75812 5.2551701,-9.48347 5.8550201,-10.0486 0.26711,-0.25166 0.32234,-0.14828 0.1855,0.34721 -0.10717,0.38806 -0.53331,2.34698 -0.94697,4.35317 -0.41365,2.00617 -1.14683,4.7843 -1.62926,6.1736 -1.35433,3.9001 -1.6980401,5.13295 -1.48925,5.34174 0.17285,0.17284 3.45726,0.60143 11.76575,1.53532 1.55222,0.17447 3.71292,0.33842 4.80155,0.36433 l 1.97932,0.0471 z m -84.3245501,0.26458 c 0,-0.097 -0.0794,-0.17639 -0.17639,-0.17639 -0.097,0 -0.17639,0.0794 -0.17639,0.17639 0,0.097 0.0794,0.17639 0.17639,0.17639 0.097,0 0.17639,-0.0794 0.17639,-0.17639 z m 250.472203,-0.35278 c 0,-0.097 -0.0794,-0.17639 -0.17639,-0.17639 -0.097,0 -0.17639,0.0794 -0.17639,0.17639 0,0.097 0.0794,0.17639 0.17639,0.17639 0.097,0 0.17639,-0.0794 0.17639,-0.17639 z m -145.814803,-6.40879 c -0.12935,-0.12936 -0.34102,-0.12936 -0.47037,0 -0.12935,0.12935 -0.0235,0.23518 0.23518,0.23518 0.25871,0 0.36454,-0.10583 0.23519,-0.23518 z m 53.38703,-2.76343 c 0,-0.097 -0.0794,-0.17638 -0.17639,-0.17638 -0.097,0 -0.17639,0.0794 -0.17639,0.17638 0,0.097 0.0794,0.17639 0.17639,0.17639 0.097,0 0.17639,-0.0794 0.17639,-0.17639 z m -64.1672,-7.30791 1.01888,-2.01839 -1.66045,-1.86324 c -0.91325,-1.02478 -1.90079,-2.14105 -2.19452,-2.48059 -0.45144,-0.52186 -1.16775,-0.61736 -4.6302,-0.61736 -2.2528699,0 -4.1980999,0.10196 -4.3227299,0.22659 -0.24197,0.24197 2.5651199,3.68012 4.7719099,5.84469 0.73388,0.71983 1.33432,1.4739 1.33432,1.6757 0,0.20179 0.19843,0.37194 0.44097,0.3781 0.24253,0.006 0.9966,0.56953 1.67569,1.25193 l 1.23473,1.24072 0.65626,-0.80988 c 0.36094,-0.44543 1.11476,-1.71816 1.67514,-2.82827 z m 165.767193,3.07458 c 0,-0.097 -0.0794,-0.17639 -0.17639,-0.17639 -0.097,0 -0.17638,0.0794 -0.17638,0.17639 0,0.097 0.0794,0.17639 0.17638,0.17639 0.097,0 0.17639,-0.0794 0.17639,-0.17639 z m -2.30763,-3.48132 c 0.86762,-3.07966 1.58173,-7.06724 1.81945,-10.15983 0.22746,-2.95923 0.22714,-2.96074 -0.71706,-3.39095 -1.45211,-0.66163 -1.55078,-0.57331 -1.78525,1.59807 -0.12048,1.11566 -0.54657,4.52668 -0.94688,7.58003 -0.4003,3.05336 -0.64037,5.77947 -0.53347,6.05803 0.11976,0.3121 0.47429,0.43328 0.92377,0.31574 0.51808,-0.13549 0.87718,-0.71525 1.23944,-2.00109 z m -320.30414,1.53541 c 0.12184,-0.19713 -0.0287,-2.14182 -0.33444,-4.32153 -0.30578,-2.17971 -0.70283,-5.606 -0.88233,-7.61396 -0.1795,-2.00797 -0.39599,-3.72047 -0.48109,-3.80557 -0.0851,-0.0851 -0.57211,0.0354 -1.08225,0.26789 -0.68454,0.31189 -0.92754,0.68505 -0.92754,1.42432 0,0.5633 -0.19299,1.00407 -0.44097,1.00711 -0.31052,0.004 -0.32438,0.0821 -0.0469,0.26458 0.21676,0.14255 0.50746,1.37043 0.646,2.72863 0.36901,3.6177 1.51893,9.34813 1.98971,9.91539 0.47868,0.57676 1.24516,0.64219 1.55977,0.13314 z m 109.051397,0.002 c 5.78931,-0.93966 9.92101,-4.61376 10.55048,-9.38196 0.52661,-3.98911 -1.19922,-8.52324 -4.50097,-11.82499 -3.1923,-3.1923 -7.17277,-4.54378 -11.43037,-3.88093 -2.23887,0.34856 -7.1893,2.3462 -7.1893,2.90108 0,0.15558 -0.48389,0.99986 -1.07531,1.87618 -0.59142,0.87631 -1.47686,2.74959 -1.96765,4.16282 -0.75958,2.18724 -0.86931,3.01658 -0.73754,5.57441 0.30176,5.85777 3.16317,9.08929 9.21391,10.4057 2.66342,0.57945 4.35496,0.6192 7.13675,0.16769 z m 107.66193,-0.35478 c 5.88578,-1.63104 8.53178,-5.02367 8.53178,-10.93925 0,-5.84053 -3.93241,-11.86612 -8.63653,-13.23364 -3.11553,-0.90571 -7.55452,-0.61738 -10.15509,0.65963 -5.98465,2.93874 -9.62638,10.34495 -7.98807,16.24538 0.80786,2.90954 5.3197,6.39997 9.66997,7.48084 2.64619,0.65747 5.71149,0.58137 8.57794,-0.21296 z m -68.37376,-1.22906 c 0,-0.097 -0.0794,-0.17639 -0.17639,-0.17639 -0.097,0 -0.17639,0.0794 -0.17639,0.17639 0,0.097 0.0794,0.17639 0.17639,0.17639 0.097,0 0.17639,-0.0794 0.17639,-0.17639 z m 26.10555,-1.05833 c 0,-0.097 -0.0794,-0.17639 -0.17639,-0.17639 -0.097,0 -0.17639,0.0794 -0.17639,0.17639 0,0.097 0.0794,0.17639 0.17639,0.17639 0.097,0 0.17639,-0.0794 0.17639,-0.17639 z m -13.9753,-4.22092 c 0.88794,-1.35516 0.70525,-1.59991 -1.19414,-1.59991 -0.97014,0 -1.76389,0.13557 -1.76389,0.30126 0,0.42113 1.65928,2.16818 2.05925,2.16818 0.18097,0 0.58543,-0.39129 0.89878,-0.86953 z m -89.74136,-1.60117 c 1.84326,-0.1894 5.81201,-0.58735 8.81944,-0.88434 3.00743,-0.29698 6.14275,-0.62582 6.96736,-0.73075 l 1.49931,-0.19077 v -2.20741 c 0,-2.47689 0.72306,-5.26193 1.97944,-7.62433 1.0656,-2.00366 1.07692,-2.53717 0.049,-2.31119 -0.43656,0.096 -2.69875,0.34712 -5.02708,0.5581 -2.32833,0.21098 -7.51223,0.77158 -11.51976,1.24578 -4.00754,0.4742 -8.12561,0.91216 -9.15127,0.97326 -1.24548,0.0742 -1.91001,0.27842 -2.00085,0.61491 -0.11033,0.40873 -0.0736,0.41497 0.19469,0.033 0.22922,-0.32633 0.40224,0.16157 0.56385,1.59001 0.12824,1.13345 0.31427,2.53593 0.4134,3.11663 0.0991,0.58071 0.34198,2.00833 0.53965,3.17249 0.58811,3.46368 0.56688,3.43027 2.03039,3.19579 0.71006,-0.11376 2.79914,-0.36181 4.6424,-0.55121 z m 182.166933,0.42326 c 0.31483,-0.50942 1.68186,-9.57686 1.56638,-10.3898 -0.0963,-0.67802 -0.39157,-0.82387 -2.05277,-1.01405 -1.06715,-0.12218 -4.55965,-0.55317 -7.76111,-0.95776 -12.850043,-1.62397 -17.991663,-2.09178 -17.991663,-1.63699 0,0.1 0.48993,1.04984 1.08873,2.11086 1.41553,2.50819 2.05255,4.99698 1.94603,7.60303 -0.0472,1.15435 0.005,2.11013 0.11542,2.12397 0.11066,0.0138 0.8362,0.0953 1.61232,0.18103 0.77611,0.0857 2.83986,0.31548 4.58611,0.51055 1.746253,0.19508 5.476873,0.59403 8.290273,0.88656 2.81341,0.29254 5.35341,0.58868 5.64445,0.6581 1.03884,0.24777 2.78358,0.2032 2.95583,-0.0755 z m -93.796103,-4.47895 c 8.14916,0 19.19844,0.13105 24.55395,0.29122 l 9.73729,0.29122 0.20947,-1.76867 c 0.29766,-2.51326 1.48095,-5.12305 3.6558,-8.06303 1.03607,-1.40057 1.88376,-2.68628 1.88376,-2.85713 0,-0.95972 -35.87778,-1.67506 -57.1499899,-1.13947 -19.3255901,0.48657 -23.2833401,0.68051 -23.2833401,1.1409 0,0.1828 0.6443,1.08034 1.43177,1.99454 2.23368,2.59314 3.96269,6.87224 4.19475,10.38152 0.01,0.1491 4.5026201,0.1491 9.9839001,0 5.48128,-0.1491 16.6334699,-0.2711 24.7826399,-0.2711 z m 103.887643,-2.73402 c -0.004,-0.61973 -0.0765,-0.68143 -0.3295,-0.28143 -0.17825,0.28178 -0.24583,0.63896 -0.15017,0.79375 0.30599,0.4951 0.48523,0.30366 0.47967,-0.51232 z m -208.133471,-0.0882 c 0,-0.097 -0.07937,-0.17639 -0.176389,-0.17639 -0.09701,0 -0.176389,0.0794 -0.176389,0.17639 0,0.097 0.07937,0.17639 0.176389,0.17639 0.09701,0 0.176389,-0.0794 0.176389,-0.17639 z m 169.686098,-3.52778 c 0,-0.097 -0.0794,-0.17639 -0.17639,-0.17639 -0.097,0 -0.17639,0.0794 -0.17639,0.17639 0,0.097 0.0794,0.17639 0.17639,0.17639 0.097,0 0.17639,-0.0794 0.17639,-0.17639 z m -24.69444,-0.35277 c 0,-0.097 -0.0794,-0.17639 -0.17639,-0.17639 -0.097,0 -0.17639,0.0794 -0.17639,0.17639 0,0.097 0.0794,0.17638 0.17639,0.17638 0.097,0 0.17639,-0.0794 0.17639,-0.17638 z m 55.738883,0 c 0,-0.097 -0.0794,-0.17639 -0.17639,-0.17639 -0.097,0 -0.17639,0.0794 -0.17639,0.17639 0,0.097 0.0794,0.17638 0.17639,0.17638 0.097,0 0.17639,-0.0794 0.17639,-0.17638 z m -138.641653,-2.46945 c 0,-0.097 -0.0794,-0.17639 -0.17639,-0.17639 -0.097,0 -0.17639,0.0794 -0.17639,0.17639 0,0.097 0.0794,0.17639 0.17639,0.17639 0.097,0 0.17639,-0.0794 0.17639,-0.17639 z m 46.03749,-8.46591 34.925,-0.0313 2.86239,-1.10467 c 6.65099,-2.56678 15.661,-7.61352 21.47551,-12.02897 1.16624,-0.88563 4.11982,-3.60411 6.56352,-6.04107 9.300843,-9.27522 14.935393,-18.68966 18.843393,-31.48435 1.47956,-4.84406 3.79466,-20.85572 3.10107,-21.44758 -0.93298,-0.79613 -13.411273,-4.45668 -13.815213,-4.05273 -0.09,0.09 0.12288,1.9907 0.47297,4.22385 0.489953,3.12524 0.588433,5.1363 0.427643,8.73263 -0.435893,9.7493 -3.009493,16.45038 -8.478543,22.07626 -2.72139,2.79942 -4.22456,3.84875 -8.70148,6.07428 -8.74073,4.34512 -18.20603,6.21089 -28.21932,5.5625 -5.00704,-0.32422 -9.22462,-1.29057 -19.13929,-4.38526 -14.75668,-4.60604 -14.95162,-4.61537 -25.48709,-1.22043 -15.3433499,4.94422 -18.8076299,5.70458 -26.02148,5.71132 -5.66874,0.005 -8.70779,-0.34734 -14.33466,-1.66336 -3.83033,-0.89584 -10.97302,-3.54633 -10.97302,-4.07184 0,-0.1673 -0.22962,-0.30419 -0.51027,-0.30419 -0.77623,0 -4.5619,-2.31661 -6.43533,-3.93805 -0.91623,-0.79299 -2.21968,-2.17603 -2.89654,-3.07341 -0.67686,-0.89737 -1.32969,-1.71097 -1.45074,-1.80798 -0.64352,-0.51575 -2.91111,-4.71792 -3.64926,-6.76261 -1.80651,-5.00404 -2.16867,-7.42843 -2.15176,-14.40406 0.01,-3.97986 0.19374,-7.32879 0.47179,-8.58283 0.25078,-1.13105 0.39734,-2.11508 0.32568,-2.18674 -0.26024,-0.26024 -11.85064,3.12289 -13.32214,3.8886 -1.01835,0.52991 -1.03418,1.31725 -0.15962,7.93931 2.25663,17.08696 8.44324,31.15007 18.29109,41.57847 7.89349,8.35881 14.45237,13.20539 24.89265,18.39401 7.98982,3.97078 11.67668,5.07004 15.69861,4.68062 1.35819,-0.13151 18.1856901,-0.25319 37.39444,-0.27041 z m 55.20972,-5.99798 c 0,-0.097 -0.0794,-0.17638 -0.17639,-0.17638 -0.097,0 -0.17639,0.0794 -0.17639,0.17638 0,0.097 0.0794,0.17639 0.17639,0.17639 0.097,0 0.17639,-0.0794 0.17639,-0.17639 z m 14.34629,-11.34768 c -0.12935,-0.12935 -0.34101,-0.12935 -0.47037,0 -0.12935,0.12935 -0.0235,0.23518 0.23519,0.23518 0.2587,0 0.36454,-0.10583 0.23518,-0.23518 z m 2.82223,-2.82222 c -0.12936,-0.12935 -0.34102,-0.12935 -0.47037,0 -0.12936,0.12935 -0.0235,0.23518 0.23518,0.23518 0.25871,0 0.36454,-0.10583 0.23519,-0.23518 z m -210.490727,-8.40787 c 0,-0.097 -0.0794,-0.17639 -0.17639,-0.17639 -0.097,0 -0.17639,0.0794 -0.17639,0.17639 0,0.097 0.0794,0.17639 0.17639,0.17639 0.097,0 0.17639,-0.0794 0.17639,-0.17639 z m 107.0680471,-5.64051 c 2.13431,-0.48824 6.34117997,-1.67187 9.34861,-2.63027 10.9064199,-3.47566 12.9352299,-3.99952 17.0211299,-4.39506 2.05642,-0.19908 5.62524,0.58221 11.90665,2.60662 14.03442,4.52311 22.33705,5.98401 30.16249,5.30729 5.59135,-0.48353 7.22606,-0.82635 12.86184,-2.6973 8.34062,-2.76889 13.03134,-5.77704 16.42565,-10.53374 3.99238,-5.59482 5.52243,-12.13908 4.75386,-20.33302 -0.41268,-4.39977 -1.54367,-10.46633 -2.04463,-10.96728 -0.17434,-0.17435 -3.7143,-0.94316 -7.86657,-1.70847 -22.10124,-4.0735 -40.17308,-5.60956 -66.1107,-5.61925 -19.94097993,-0.007 -32.63638,0.73068 -48.68333,2.83054 -11.25996,1.47345 -24.43783,3.97635 -25.22437,4.79091 -0.52044,0.53899 -1.80868,8.64055 -2.01453,12.66906 -0.46907,9.18031 2.57024,17.12339 8.48584,22.17724 9.03527,7.71907 27.58153,11.56732 40.9780601,8.50273 z m -15.0724101,-4.22369 c -7.29028,-1.52105 -13.13851,-7.5978 -13.93302,-14.47747 -0.60523,-5.24065 0.51176,-9.86101 3.27149,-13.53227 4.37249,-5.81669 11.57229,-8.52354 18.53866,-6.96983 5.8554201,1.30594 11.0905001,6.01755 13.01194007,11.71085 3.16687003,9.38354 -1.66965997,19.59997 -10.75924007,22.72725 -2.72257,0.93669 -7.11118,1.17128 -10.12983,0.54147 z m 14.1904701,-3.89413 c 0,-0.097 -0.0794,-0.17639 -0.17639,-0.17639 -0.097,0 -0.17639,0.0794 -0.17639,0.17639 0,0.097 0.0794,0.17638 0.17639,0.17638 0.097,0 0.17639,-0.0794 0.17639,-0.17638 z m -16.5352501,-3.19843 c 1.87556,-0.96989 2.57507,-3.74733 1.50939,-5.99308 -1.25764,-2.6503 -5.65281,-3.23076 -7.45134,-0.9841 -1.63982,2.04841 -1.48296,4.45406 0.4141,6.35112 0.99836,0.99836 1.42956,1.17865 2.81895,1.17865 0.90216,0 2.12117,-0.24867 2.7089,-0.55259 z m 21.8269101,-2.7988 c 0,-0.097 -0.0794,-0.17638 -0.17639,-0.17638 -0.097,0 -0.17639,0.0794 -0.17639,0.17638 0,0.097 0.0794,0.17639 0.17639,0.17639 0.097,0 0.17639,-0.0794 0.17639,-0.17639 z m -28.5750001,-5.64444 c 0,-0.097 -0.0794,-0.17639 -0.17638,-0.17639 -0.097,0 -0.17639,0.0794 -0.17639,0.17639 0,0.097 0.0794,0.17639 0.17639,0.17639 0.097,0 0.17638,-0.0794 0.17638,-0.17639 z m 19.9736401,-3.87546 c 3.31312,-1.38365 4.4271,-6.84681 1.98734,-9.7463 -1.84707,-2.19512 -5.1186601,-2.99066 -7.7600901,-1.88701 -2.77372,1.15894 -4.16407,3.47557 -3.85912,6.43016 0.4854,4.70307 4.99549,7.13942 9.6318701,5.20315 z m 6.13192,-9.53009 c 0,-0.097 -0.0794,-0.17639 -0.17639,-0.17639 -0.097,0 -0.17639,0.0794 -0.17639,0.17639 0,0.097 0.0794,0.17638 0.17639,0.17638 0.097,0 0.17639,-0.0794 0.17639,-0.17638 z m -0.70556,-0.70556 c 0,-0.097 -0.0794,-0.17639 -0.17639,-0.17639 -0.097,0 -0.17639,0.0794 -0.17639,0.17639 0,0.097 0.0794,0.17639 0.17639,0.17639 0.097,0 0.17639,-0.0794 0.17639,-0.17639 z m -22.5777701,-1.41111 c 0,-0.097 -0.0794,-0.17639 -0.17639,-0.17639 -0.097,0 -0.17639,0.0794 -0.17639,0.17639 0,0.097 0.0794,0.17639 0.17639,0.17639 0.097,0 0.17639,-0.0794 0.17639,-0.17639 z m 80.7861,30.74645 c -3.31943,-0.99032 -5.42125,-2.22302 -7.64895,-4.48603 -3.54473,-3.60091 -5.05105,-7.33228 -5.05105,-12.51218 0,-5.24759 1.82038,-9.37317 5.80658,-13.15968 3.73261,-3.54561 7.20846,-4.98991 12.0087,-4.98991 6.53821,0 13.07997,3.92302 16.0311,9.61368 1.53359,2.95721 2.13751,5.32033 2.13277,8.34545 -0.008,4.94171 -1.83914,9.28017 -5.45595,12.92484 -2.46034,2.47929 -4.93992,3.79436 -8.58585,4.55358 -3.50422,0.72972 -6.09231,0.64854 -9.23735,-0.28975 z m -0.15268,-7.09344 c 1.5188,-0.99515 2.08066,-3.9793 1.08653,-5.77079 -1.65121,-2.97561 -6.72161,-2.88411 -8.16009,0.14726 -0.72156,1.52057 -0.673,2.71815 0.17786,4.38596 0.39199,0.76838 0.74918,1.39945 0.79375,1.40237 0.0446,0.003 0.69686,0.2197 1.44955,0.48173 1.5245,0.53071 3.21404,0.29592 4.6524,-0.64653 z m 18.49712,0.33588 c 0,-0.097 -0.0794,-0.17639 -0.17639,-0.17639 -0.097,0 -0.17638,0.0794 -0.17638,0.17639 0,0.097 0.0794,0.17639 0.17638,0.17639 0.097,0 0.17639,-0.0794 0.17639,-0.17639 z m -15.52222,-1.76389 c 0,-0.097 -0.0794,-0.17639 -0.17639,-0.17639 -0.097,0 -0.17639,0.0794 -0.17639,0.17639 0,0.097 0.0794,0.17639 0.17639,0.17639 0.097,0 0.17639,-0.0794 0.17639,-0.17639 z m -10.23055,-6.70278 c 0,-0.097 -0.0794,-0.17639 -0.17639,-0.17639 -0.097,0 -0.17639,0.0794 -0.17639,0.17639 0,0.097 0.0794,0.17639 0.17639,0.17639 0.097,0 0.17639,-0.0794 0.17639,-0.17639 z m 6.70278,-0.70556 c 0,-0.097 -0.0794,-0.17638 -0.17639,-0.17638 -0.097,0 -0.17639,0.0794 -0.17639,0.17638 0,0.097 0.0794,0.17639 0.17639,0.17639 0.097,0 0.17639,-0.0794 0.17639,-0.17639 z m 4.98041,-3.19647 c 1.97739,-1.02255 3.47906,-3.70213 3.48428,-6.21736 0.007,-3.33021 -4.10482,-6.42731 -7.65686,-5.76742 -3.42848,0.63694 -5.39494,2.91001 -5.39263,6.23345 0.002,2.83274 1.17484,4.56074 4.05563,5.97519 1.55034,0.76122 3.77983,0.67063 5.50958,-0.22386 z m -13.44708,-6.6813 c 0,-0.097 -0.0794,-0.17639 -0.17639,-0.17639 -0.097,0 -0.17639,0.0794 -0.17639,0.17639 0,0.097 0.0794,0.17639 0.17639,0.17639 0.097,0 0.17639,-0.0794 0.17639,-0.17639 z m 4.7625,-3.70417 c 0.11991,-0.19403 0.13865,-0.35278 0.0416,-0.35278 -0.097,0 -0.2745,0.15875 -0.39442,0.35278 -0.11991,0.19403 -0.13865,0.35278 -0.0416,0.35278 0.097,0 0.2745,-0.15875 0.39442,-0.35278 z m -1.5875,-0.17639 c 0,-0.097 -0.0794,-0.17639 -0.17639,-0.17639 -0.097,0 -0.17639,0.0794 -0.17639,0.17639 0,0.097 0.0794,0.17639 0.17639,0.17639 0.097,0 0.17639,-0.0794 0.17639,-0.17639 z m 1.41111,-1.41111 c 0,-0.097 -0.0794,-0.17639 -0.17639,-0.17639 -0.097,0 -0.17639,0.0794 -0.17639,0.17639 0,0.097 0.0794,0.17639 0.17639,0.17639 0.097,0 0.17639,-0.0794 0.17639,-0.17639 z m -30.67878,20.22331 c -2.69308,-0.77269 -4.19761,-2.62041 -3.54066,-4.34831 0.42614,-1.12083 1.30125,-1.12214 2.81654,-0.004 1.77138,1.30688 3.20965,1.4586 5.10936,0.53897 0.8795,-0.42576 1.5991,-0.9187 1.5991,-1.09542 0,-0.68701 1.44458,-0.29256 1.73022,0.47245 0.82121,2.19933 -2.35608,4.92706 -5.61078,4.81691 -0.48507,-0.0164 -1.43177,-0.18761 -2.10378,-0.38041 z m 5.98434,-1.52609 c 0,-0.097 -0.0794,-0.17639 -0.17639,-0.17639 -0.097,0 -0.17639,0.0794 -0.17639,0.17639 0,0.097 0.0794,0.17639 0.17639,0.17639 0.097,0 0.17639,-0.0794 0.17639,-0.17639 z m 0.35278,-0.70555 c 0,-0.097 -0.0794,-0.17639 -0.17639,-0.17639 -0.097,0 -0.17639,0.0794 -0.17639,0.17639 0,0.097 0.0794,0.17639 0.17639,0.17639 0.097,0 0.17639,-0.0794 0.17639,-0.17639 z m -8.11389,-1.05834 c 0,-0.097 -0.0794,-0.17639 -0.17639,-0.17639 -0.097,0 -0.17639,0.0794 -0.17639,0.17639 0,0.097 0.0794,0.17639 0.17639,0.17639 0.097,0 0.17639,-0.0794 0.17639,-0.17639 z m -101.599995,19.05 c 0,-0.097 -0.07937,-0.17639 -0.176389,-0.17639 -0.09701,0 -0.176388,0.0794 -0.176388,0.17639 0,0.097 0.07937,0.17639 0.176388,0.17639 0.09701,0 0.176389,-0.0794 0.176389,-0.17639 z m 212.607398,-0.41157 c -0.12936,-0.12935 -0.23519,-0.0235 -0.23519,0.23518 0,0.25871 0.10583,0.36454 0.23519,0.23519 0.12935,-0.12935 0.12935,-0.34102 0,-0.47037 z m -5.17408,0.0588 c 0,-0.097 -0.0794,-0.17638 -0.17639,-0.17638 -0.097,0 -0.17639,0.0794 -0.17639,0.17638 0,0.097 0.0794,0.17639 0.17639,0.17639 0.097,0 0.17639,-0.0794 0.17639,-0.17639 z m -44.449993,-0.70555 c 0,-0.097 -0.0794,-0.17639 -0.17639,-0.17639 -0.097,0 -0.17639,0.0794 -0.17639,0.17639 0,0.097 0.0794,0.17639 0.17639,0.17639 0.097,0 0.17639,-0.0794 0.17639,-0.17639 z m 2.46944,0 c 0,-0.097 -0.0794,-0.17639 -0.17639,-0.17639 -0.097,0 -0.17639,0.0794 -0.17639,0.17639 0,0.097 0.0794,0.17639 0.17639,0.17639 0.097,0 0.17639,-0.0794 0.17639,-0.17639 z m 1.76389,-0.70556 c 0,-0.097 -0.0794,-0.17639 -0.17639,-0.17639 -0.097,0 -0.17639,0.0794 -0.17639,0.17639 0,0.097 0.0794,0.17639 0.17639,0.17639 0.097,0 0.17639,-0.0794 0.17639,-0.17639 z m 26.458333,-1.41111 c 0,-0.097 -0.0794,-0.17639 -0.17639,-0.17639 -0.097,0 -0.17639,0.0794 -0.17639,0.17639 0,0.097 0.0794,0.17639 0.17639,0.17639 0.097,0 0.17639,-0.0794 0.17639,-0.17639 z m -16.933333,-7.40833 c 0,-0.097 -0.0794,-0.17639 -0.17639,-0.17639 -0.097,0 -0.17639,0.0794 -0.17639,0.17639 0,0.097 0.0794,0.17639 0.17639,0.17639 0.097,0 0.17639,-0.0794 0.17639,-0.17639 z m 1.05833,-1.41111 c 0,-0.097 -0.0794,-0.17639 -0.17639,-0.17639 -0.097,0 -0.17639,0.0794 -0.17639,0.17639 0,0.097 0.0794,0.17639 0.17639,0.17639 0.097,0 0.17639,-0.0794 0.17639,-0.17639 z m -159.3929,-32.81878 c 9.03982,-2.85888 21.46078,-5.84213 27.98319,-6.72098 2.33506,-0.31464 2.47705,-0.43562 1.60309,-1.3659 -1.27172,-1.35368 -1.54368,-4.44961 -1.56643,-17.83188 -0.0236,-13.85727 0.10368,-14.93202 1.89289,-15.98893 1.34495,-0.79448 2.07503,-2.00273 1.21014,-2.00273 -3.40864,0 -25.62942,5.92038 -29.0087,7.72891 -1.50237,0.80405 -5.14449,13.40136 -6.58797,22.78636 -0.55676,3.61982 -1.15133,14.99306 -0.78381,14.99306 0.11273,0 2.47865,-0.71906 5.2576,-1.59791 z m 180.206793,-1.22592 c 0,-8.92869 -2.65889,-25.15565 -5.316,-32.443 -0.59589,-1.6343 -1.02956,-2.2813 -1.70993,-2.55112 -2.46616,-0.978 -9.231863,-3.18912 -12.291433,-4.01699 -3.8846,-1.05111 -16.66063,-3.73397 -17.09385,-3.58956 -0.40587,0.13529 1.22497,2.3722 1.73481,2.37952 0.81656,0.0117 0.97698,2.75105 0.96106,16.41026 -0.017,14.52792 -0.18996,16.37519 -1.60463,17.1323 -0.39809,0.21305 -0.66154,0.44961 -0.58545,0.5257 0.0761,0.0761 3.14562,0.69147 6.82118,1.36753 6.0511,1.113 16.335033,3.76465 25.203683,6.49863 1.84327,0.56823 3.47045,0.96182 3.61597,0.87464 0.14553,-0.0872 0.26459,-1.25173 0.26459,-2.58791 z m -134.408323,-8.09438 c 25.4697701,-2.64727 57.05629,-2.78717 80.08054,-0.35469 1.84327,0.19474 3.98639,0.42134 4.7625,0.50355 9.11844,0.96592 9.58859,0.98175 10.54515,0.35498 0.51063,-0.33457 1.04562,-1.0254 1.18886,-1.53517 0.14324,-0.50977 0.26044,-7.99835 0.26044,-16.64129 0,-18.55725 0.26066,-17.3174 -3.77803,-17.97019 -1.41458,-0.22865 -3.04822,-0.49468 -3.6303,-0.59119 -1.31058,-0.21728 -1.59641,-0.24942 -10.05417,-1.13061 -13.18902,-1.37413 -19.0612,-1.62285 -38.1,-1.6137 -16.0261799,0.008 -19.82754993,0.11559 -28.2222199,0.80101 -8.3670001,0.68317 -17.4558801,1.65404 -22.4013801,2.39291 -0.77612,0.11595 -1.69522,0.24436 -2.04245,0.28534 -1.37587,0.16241 -2.01699,1.36624 -2.37194,4.45385 -0.43395,3.7747 -0.43251,17.87 0.003,25.03008 0.32416,5.33487 0.35576,5.48848 1.29764,6.30692 1.09582,0.95221 0.31899,0.9704 12.46281,-0.2918 z m -8.20209,-1.74416 c -0.82207,-0.83356 -0.80626,-2.93233 0.0278,-3.68712 0.69888,-0.63247 2.17708,-0.79688 2.17708,-0.24214 0,0.18794 0.19844,0.26898 0.44098,0.1801 0.73012,-0.26759 1.33253,0.34762 1.47979,1.51124 0.28974,2.28943 -2.55368,3.83183 -4.12563,2.23792 z m 0.32338,-1.33115 c -0.12935,-0.12935 -0.23518,-0.0235 -0.23518,0.23519 0,0.2587 0.10583,0.36453 0.23518,0.23518 0.12935,-0.12935 0.12935,-0.34102 0,-0.47037 z m 95.02854,1.54933 c -2.18046,-1.10339 -1.1236,-4.6381 1.36561,-4.56733 1.38148,0.0393 2.63572,1.29915 2.35041,2.36097 -0.10579,0.3937 -0.19451,0.84559 -0.19716,1.00418 -0.003,0.1586 -0.362,0.19007 -0.79856,0.0699 -0.77141,-0.21228 -0.77448,-0.20302 -0.10897,0.32901 0.66142,0.52875 0.65239,0.54743 -0.26458,0.54743 -0.52215,0 -0.94937,0.15875 -0.94937,0.35278 0,0.46203 -0.33923,0.43849 -1.39738,-0.097 z m 2.80849,-2.90164 c 0,-0.097 -0.0794,-0.17639 -0.17639,-0.17639 -0.097,0 -0.17639,0.0794 -0.17639,0.17639 0,0.097 0.0794,0.17638 0.17639,0.17638 0.097,0 0.17639,-0.0794 0.17639,-0.17638 z m -40.56944,-8.81945 c 0,-0.097 0.0794,-0.17639 0.17639,-0.17639 0.097,0 0.17639,0.0794 0.17639,0.17639 0,0.097 -0.0794,0.17639 -0.17639,0.17639 -0.097,0 -0.17639,-0.0794 -0.17639,-0.17639 z m 5.29167,-4.58611 c 0,-0.097 0.0794,-0.17639 0.17639,-0.17639 0.097,0 0.17638,0.0794 0.17638,0.17639 0,0.097 -0.0794,0.17639 -0.17638,0.17639 -0.097,0 -0.17639,-0.0794 -0.17639,-0.17639 z m 1.41111,-3.52778 c 0,-0.097 0.0794,-0.17639 0.17639,-0.17639 0.097,0 0.17639,0.0794 0.17639,0.17639 0,0.097 -0.0794,0.17639 -0.17639,0.17639 -0.097,0 -0.17639,-0.0794 -0.17639,-0.17639 z m -21.87222,-2.46944 c 0,-0.097 0.0794,-0.17639 0.17639,-0.17639 0.097,0 0.17639,0.0794 0.17639,0.17639 0,0.097 -0.0794,0.17639 -0.17639,0.17639 -0.097,0 -0.17639,-0.0794 -0.17639,-0.17639 z m -41.90206,-2.13667 c -1.56829,-1.09848 -0.62327,-4.83306 1.0165,-4.01704 0.36789,0.18308 1.02608,0.51713 1.46264,0.74233 0.71827,0.37051 0.74771,0.35374 0.30959,-0.17639 -0.2663,-0.32221 -0.78223,-0.58584 -1.14653,-0.58584 -0.3643,0 -0.66236,-0.15875 -0.66236,-0.35278 0,-0.97483 1.70988,-0.004 2.4841,1.41111 1.31741,2.40713 -1.1952,4.5677 -3.46394,2.97861 z m 2.03817,-2.80222 c 0,-0.097 -0.0794,-0.17639 -0.17639,-0.17639 -0.097,0 -0.17639,0.0794 -0.17639,0.17639 0,0.097 0.0794,0.17639 0.17639,0.17639 0.097,0 0.17639,-0.0794 0.17639,-0.17639 z m -1.41111,-0.35278 c 0,-0.097 -0.0794,-0.17639 -0.17639,-0.17639 -0.097,0 -0.17639,0.0794 -0.17639,0.17639 0,0.097 0.0794,0.17639 0.17639,0.17639 0.097,0 0.17639,-0.0794 0.17639,-0.17639 z m 94.12357,3.08681 c -0.29162,-0.33955 -0.62947,-0.89706 -0.75076,-1.2389 -0.25807,-0.7273 0.42977,-2.44115 0.87044,-2.1688 0.16565,0.10238 0.30119,-0.0614 0.30119,-0.36384 0,-0.35485 0.3203,-0.54999 0.90276,-0.54999 0.62832,0 0.82223,0.13406 0.63784,0.44097 -0.21132,0.35175 -0.15543,0.35237 0.27622,0.003 0.62687,-0.50728 1.04341,-0.24802 0.76543,0.47641 -0.13271,0.34583 -0.0171,0.43182 0.37708,0.28054 0.85392,-0.32768 0.78829,2.37127 -0.0767,3.15407 -0.84486,0.76458 -2.63365,0.74643 -3.30351,-0.0335 z m 1.12642,-0.26458 c 0,-0.097 -0.0794,-0.17639 -0.17639,-0.17639 -0.097,0 -0.17638,0.0794 -0.17638,0.17639 0,0.097 0.0794,0.17638 0.17638,0.17638 0.097,0 0.17639,-0.0794 0.17639,-0.17638 z m 2.31836,-2.20896 c -0.1174,-0.1174 -0.40924,-0.002 -0.64854,0.25576 -0.34542,0.3725 -0.34421,0.41789 0.006,0.22024 0.27815,-0.15704 0.45608,-0.0133 0.48189,0.38922 0.039,0.60853 0.0487,0.60822 0.20758,-0.007 0.0916,-0.35474 0.0706,-0.74103 -0.0468,-0.85843 z m -3.02391,-0.26049 c 0,-0.097 -0.0794,-0.17639 -0.17639,-0.17639 -0.097,0 -0.17639,0.0794 -0.17639,0.17639 0,0.097 0.0794,0.17639 0.17639,0.17639 0.097,0 0.17639,-0.0794 0.17639,-0.17639 z m 1.76389,-0.17639 c 0,-0.19403 -0.07,-0.35278 -0.15557,-0.35278 -0.0856,0 -0.25368,0.15875 -0.3736,0.35278 -0.11992,0.19403 -0.0499,0.35278 0.15557,0.35278 0.20548,0 0.3736,-0.15875 0.3736,-0.35278 z m -0.70556,-0.70555 c 0,-0.19403 -0.15875,-0.35278 -0.35278,-0.35278 -0.19402,0 -0.35277,0.15875 -0.35277,0.35278 0,0.19402 0.15875,0.35277 0.35277,0.35277 0.19403,0 0.35278,-0.15875 0.35278,-0.35277 z m 38.452783,1.23472 c 0,-0.097 -0.0794,-0.17639 -0.17639,-0.17639 -0.097,0 -0.17639,0.0794 -0.17639,0.17639 0,0.097 0.0794,0.17639 0.17639,0.17639 0.097,0 0.17639,-0.0794 0.17639,-0.17639 z m -165.048353,-5.1543 c 3.65347,-1.54544 11.27215,-3.59025 19.52752,-5.24108 19.58013,-3.91546 41.6029401,-5.61211 67.38055,-5.19105 19.05543,0.31126 30.95936,1.33257 46.39028,3.9801 12.45149,2.13634 19.75774,3.9122 27.598093,6.708 1.49999,0.53488 2.84013,0.85964 2.97808,0.72169 0.13795,-0.13795 0.0449,-0.84214 -0.20684,-1.56487 -0.66805,-1.91815 -3.86238,-8.37475 -5.402973,-10.92087 -0.73164,-1.20916 -1.33025,-2.28743 -1.33025,-2.39613 0,-0.10871 -0.15745,-0.38939 -0.34988,-0.62374 -0.19243,-0.23435 -1.31898,-1.77546 -2.50343,-3.42469 -2.47878,-3.45146 -10.35721,-11.40382 -13.72725,-13.85607 -1.26118,-0.91771 -2.48479,-1.82677 -2.71914,-2.02014 -0.23434,-0.19336 -0.52882,-0.35157 -0.65439,-0.35157 -0.12557,0 -0.92095,-0.46745 -1.7675,-1.03879 -3.2036,-2.16208 -11.62832,-5.96409 -15.67285,-7.07303 -0.87313,-0.2394 -1.905,-0.57143 -2.29306,-0.73785 -0.9289,-0.39837 -7.63414,-2.06667 -9.87778,-2.45765 -10.851,-1.89089 -18.0397,-2.47273 -27.51666,-2.22714 -18.2351399,0.47255 -36.40257,5.52014 -50.44722,14.01611 -1.16417,0.70423 -2.23573,1.28083 -2.38125,1.28133 -0.14552,5e-4 -0.54239,0.25079 -0.88194,0.5562 -0.33955,0.30542 -2.03958,1.59392 -3.77785,2.86335 -6.06303,4.42774 -11.38818,9.41524 -15.3713,14.39663 -1.24116,1.55223 -2.3657,2.9016 -2.49898,2.99862 -0.69116,0.50307 -6.80084,10.32672 -7.39578,11.89153 -0.39736,1.04514 -0.20713,1.0262 2.9018,-0.28889 z m 163.284463,-5.78181 c 0,-0.097 -0.0794,-0.17639 -0.17639,-0.17639 -0.097,0 -0.17639,0.0794 -0.17639,0.17639 0,0.097 0.0794,0.17639 0.17639,0.17639 0.097,0 0.17639,-0.0794 0.17639,-0.17639 z m -161.924993,-2.46945 c 0,-0.097 -0.0794,-0.17638 -0.17639,-0.17638 -0.097,0 -0.17639,0.0794 -0.17639,0.17638 0,0.097 0.0794,0.17639 0.17639,0.17639 0.097,0 0.17639,-0.0794 0.17639,-0.17639 z m 11.28889,-14.11111 c 0,-0.097 -0.0794,-0.17638 -0.17639,-0.17638 -0.097,0 -0.17639,0.0794 -0.17639,0.17638 0,0.097 0.0794,0.17639 0.17639,0.17639 0.097,0 0.17639,-0.0794 0.17639,-0.17639 z m 138.99443,-0.35277 c 0,-0.097 -0.0794,-0.17639 -0.17639,-0.17639 -0.097,0 -0.17639,0.0794 -0.17639,0.17639 0,0.097 0.0794,0.17639 0.17639,0.17639 0.097,0 0.17639,-0.0794 0.17639,-0.17639 z m 2.11667,-2.11667 c 0,-0.097 -0.0794,-0.17639 -0.17639,-0.17639 -0.097,0 -0.17639,0.0794 -0.17639,0.17639 0,0.097 0.0794,0.17639 0.17639,0.17639 0.097,0 0.17639,-0.0794 0.17639,-0.17639 z m -11.05371,-6.4088 c -0.12935,-0.12935 -0.23518,-0.0235 -0.23518,0.23519 0,0.2587 0.10583,0.36454 0.23518,0.23518 0.12936,-0.12935 0.12936,-0.34101 0,-0.47037 z m -119.12128,0.0588 c 0,-0.097 -0.0794,-0.17639 -0.17639,-0.17639 -0.097,0 -0.17639,0.0794 -0.17639,0.17639 0,0.097 0.0794,0.17639 0.17639,0.17639 0.097,0 0.17639,-0.0794 0.17639,-0.17639 z m 117.82777,-1.05833 c 0,-0.097 -0.0794,-0.17639 -0.17639,-0.17639 -0.097,0 -0.17639,0.0794 -0.17639,0.17639 0,0.097 0.0794,0.17639 0.17639,0.17639 0.097,0 0.17639,-0.0794 0.17639,-0.17639 z m -1.41111,-1.41111 c 0,-0.097 -0.0794,-0.17639 -0.17639,-0.17639 -0.097,0 -0.17639,0.0794 -0.17639,0.17639 0,0.097 0.0794,0.17639 0.17639,0.17639 0.097,0 0.17639,-0.0794 0.17639,-0.17639 z m -101.6,-5.99723 c 0,-0.097 -0.0794,-0.17638 -0.17639,-0.17638 -0.097,0 -0.17638,0.0794 -0.17638,0.17638 0,0.097 0.0794,0.17639 0.17638,0.17639 0.097,0 0.17639,-0.0794 0.17639,-0.17639 z m 82.57087,-8.25126 c -0.83426,-1.55884 -5.21093,-5.06392 -8.17747,-6.54897 -5.43117,-2.71885 -11.29203,-3.35088 -16.53785,-1.78342 -3.39785,1.01529 -3.88055,1.05137 -3.88055,0.29008 0,-0.37127 0.13914,-0.82585 0.30921,-1.01017 0.45865,-0.49711 1.80746,-4.31108 1.80746,-5.11088 0,-0.53169 -0.24183,-0.69232 -1.04229,-0.69232 -1.55152,0 -5.29551,1.46398 -8.20441,3.20809 -2.53238,1.51836 -7.33386,5.80522 -7.33386,6.54782 0,0.25736 2.99553,0.44436 9.26042,0.57809 6.63282,0.14158 10.6434,0.40301 14.13445,0.92135 5.24126,0.77821 15.16157,2.89737 17.394,3.71568 2.02945,0.74391 2.7122,0.70923 2.27089,-0.11535 z m -25.42087,-9.03485 c 0,-0.097 -0.0794,-0.17638 -0.17639,-0.17638 -0.097,0 -0.17639,0.0794 -0.17639,0.17638 0,0.097 0.0794,0.17639 0.17639,0.17639 0.097,0 0.17639,-0.0794 0.17639,-0.17639 z m -17.63889,-1.76388 c 0,-0.097 -0.0794,-0.17639 -0.17639,-0.17639 -0.097,0 -0.17639,0.0794 -0.17639,0.17639 0,0.097 0.0794,0.17638 0.17639,0.17638 0.097,0 0.17639,-0.0794 0.17639,-0.17638 z m 19.40278,-7.76111 c 0,-0.097 -0.0794,-0.17639 -0.17639,-0.17639 -0.097,0 -0.17639,0.0794 -0.17639,0.17639 0,0.097 0.0794,0.17638 0.17639,0.17638 0.097,0 0.17639,-0.0794 0.17639,-0.17638 z"
       id="path129" /></g></svg>
