<?xml version="1.0" encoding="UTF-8" standalone="no"?>
<!-- Created with Inkscape (http://www.inkscape.org/) -->

<svg
   width="274.96741mm"
   height="300.52945mm"
   viewBox="0 0 274.96742 300.52941"
   version="1.1"
   id="svg1"
   xml:space="preserve"
   xmlns="http://www.w3.org/2000/svg"
   xmlns:svg="http://www.w3.org/2000/svg"><defs
     id="defs1"><clipPath
       clipPathUnits="userSpaceOnUse"
       id="clipPath6"><path
         id="path7"
         style="fill:#ff0000;fill-opacity:1;fill-rule:nonzero;stroke:none;stroke-width:0.264583"
         d="M -175.07778,-16.057127 V 287.55793 H 124.54631 V -16.057127 Z m 132.7459,202.572647 c 0.210643,0.005 0.427212,0.0169 0.650089,0.0367 2.23823,0.19855 4.475655,0.4031 6.717938,0.55346 1.973313,0.11308 0.986628,0.0436 2.958475,0.20825 3.181295,0.26563 4.740125,1.85116 4.950601,3.46956 4.949923,1.63749 3.796379,7.35609 -2.592089,6.81354 -3.228716,-0.27422 -1.569593,-0.1301 -4.979024,-0.43357 -4.228209,-0.39317 -8.460616,-0.76265 -12.666927,-1.35341 -6.647387,-0.93358 -5.930551,-7.21034 0.03204,-7.20421 0.04685,5e-5 0.0972,0.004 0.144695,0.005 0.687229,-1.21692 2.304132,-2.15435 4.784204,-2.09548 z" /></clipPath><clipPath
       clipPathUnits="userSpaceOnUse"
       id="clipPath76"><path
         id="path77"
         style="fill:#ff0000;fill-opacity:1;fill-rule:nonzero;stroke:none;stroke-width:0.264583"
         d="M -133.83107,-122.52355 V 173.82063 H 122.97289 V -122.52355 Z M 13.574404,98.948202 c 2.788179,0.0507 4.135003,2.063798 3.398242,4.077268 0.199805,0.45372 0.374906,0.96736 0.517797,1.54461 1.07913,4.35948 0.671079,8.891 0.311608,13.31495 -0.351859,3.06036 -0.147137,1.57974 -0.604097,4.44366 -0.359666,2.25418 -1.333846,3.66838 -2.455664,4.32532 0.105138,0.36595 0.224724,0.72888 0.324528,1.09554 0.6273,2.23652 0.575201,4.47401 0.39429,6.75514 -0.137303,1.73129 -0.688065,2.99533 -1.427303,3.82199 -0.112477,0.41601 -0.170275,0.80219 -0.311092,1.25212 -0.184975,0.59102 -0.413327,1.1061 -0.670242,1.55856 0.741137,-0.23134 1.446982,-0.38145 2.064991,-0.37517 4.085002,0.0415 5.222724,4.75435 -0.02223,7.27138 -4.46677,2.14368 -9.303523,3.34693 -14.11903492,4.40955 -4.40876268,0.85156 -8.89238128,1.33053 -13.38264308,1.19269 -5.804014,-0.17807 -6.736297,-5.00293 -3.065447,-6.67298 -2.072987,-0.65744 -4.042852,-1.62261 -4.128947,-3.14709 -0.02802,-0.49633 0.0026,-0.90355 0.0341,-1.30897 -1.976731,-0.003 -3.95339,2.4e-4 -5.930386,0.003 -0.814031,0 -1.53062,-0.0962 -2.159559,-0.26149 -0.376306,0.19492 -0.742394,0.40783 -1.120862,0.59893 -6.391272,3.22657 -9.625245,-3.24074 -3.234428,-6.46886 1.833438,-0.92611 3.62694,-1.92211 5.414142,-2.92954 -0.877003,-3.87058 -1.368747,-7.83436 -1.323951,-11.80858 0.01651,-1.46304 0.376836,-2.54918 0.864547,-3.41426 -1.247357,-1.79999 -0.223805,-4.63069 3.842661,-5.68855 3.11826,-0.81116 6.282901,-1.39515 9.473837,-1.82211 -1.259816,-0.12657 -2.516182,-0.30233 -3.764627,-0.50177 -1.477002,-0.21985 -2.935575,-0.54305 -4.407482,-0.7891 -1.14214,-0.22954 -0.588502,-0.12004 -1.660882,-0.3297 -3.350244,-0.65501 -4.783278,-2.61088 -4.608504,-4.32997 -0.200179,-1.7721 1.333365,-3.52972 4.663799,-3.59461 v -5.3e-4 c 0.20954,-0.004 0.426035,-0.002 0.649571,0.008 1.77111,0.0772 3.528708,0.28204 5.26428,0.64027 1.655035,0.33225 3.314115,0.6481 4.955251,1.04439 1.244759,0.34858 2.51628,0.54538 3.7997689,0.6723 0.025956,0.002 0.052073,0.002 0.078034,0.004 0.4990888,-0.0371 0.9984105,-0.0743 1.4965495,-0.11317 1.346872,-0.12588 2.6913231,-0.25136 4.0457464,-0.24236 1.1278499,-0.0444 2.2567291,-0.10772 3.37498791,-0.26872 0.75719517,-0.11591 1.51142439,-0.25483 2.25722659,-0.4284 0.3616431,-0.12394 0.7240561,-0.24538 1.083138,-0.37775 0.3360393,-0.12388 0.6107589,-0.12825 0.9250071,-0.20723 0.1281086,-0.045 0.2583895,-0.0825 0.3855085,-0.13074 1.9825018,-0.7681 3.9540551,-1.56464 5.9510551,-2.29443 1.050809,-0.383992 1.999634,-0.542639 2.826703,-0.527616 z M 0.70283723,110.39557 c -0.45566013,0.0949 -0.90775367,0.208 -1.36890919,0.2744 -1.16638124,0.15534 -2.34111274,0.24237 -3.51761424,0.26251 0.4031694,0.0896 0.8047355,0.18876 1.2025101,0.308 0.1014836,0.0304 0.1982549,0.075 0.2986907,0.10852 0.4205235,-0.21824 0.9206601,-0.35072 1.4898318,-0.37156 0.39885139,-0.0146 0.83259872,0.0278 1.29449508,0.13023 0.22468681,-0.12213 0.44967525,-0.24374 0.67437529,-0.36587 -0.0326284,-0.11319 -0.058211,-0.22834 -0.0733795,-0.34623 z m 10.24433577,1.02474 c -0.76023,0.21437 -1.5189569,0.4343 -2.2696301,0.68006 -0.031261,0.62207 -0.2256075,1.28373 -0.6464723,1.94355 0.6236891,0.43248 1.2549743,1.04482 1.8634525,1.86862 0.2674939,0.36214 0.4748849,0.75712 0.7188199,1.13223 0.154519,-1.86707 0.314174,-3.74736 0.33383,-5.62446 z m 64.566086,3.39773 c 1.50346,0.0187 3.129182,1.24994 3.928441,4.04678 0.257931,0.90255 0.823497,1.65871 1.488797,2.30735 0.856321,0.95375 1.845738,1.76777 2.801898,2.61638 1.458581,1.46408 2.789203,3.04608 4.169772,4.58215 1.315059,1.44746 2.571226,2.91698 3.543967,4.61884 0.0053,0.01 0.0082,0.0206 0.01344,0.0305 0.734605,-0.43313 1.446276,-0.65634 2.094962,-0.69195 3.016182,-0.16561 4.69137,3.55377 1.187525,7.32306 -1.69471,1.82311 -3.657862,3.33908 -5.68751,4.7651 -0.777873,0.49914 -1.607691,0.90075 -2.418456,1.33842 0.165478,1.44344 -0.672182,3.24303 -2.956409,4.73096 -1.354556,0.88234 -2.690448,1.79306 -4.075203,2.6288 -2.075008,1.20078 -4.233777,2.27962 -6.540687,2.96259 -2.077586,0.62971 -4.169056,1.29987 -6.359301,1.36374 -1.872114,0.0897 -3.746989,0.0368 -5.620845,0.0501 h -5.1108 -5.524728 c -7.160125,0 -7.160125,-7.23315 0,-7.23315 h 1.347722 c 0.29438,-0.0541 0.5212,-0.1588 0.84801,-0.18656 1.106628,-0.094 2.200932,-0.28334 3.292822,-0.48421 0.456121,-0.98163 1.356053,-1.98213 2.807581,-2.83962 1.078018,-0.63685 2.158119,-1.26923 3.212209,-1.94561 1.962647,-1.29302 3.840588,-2.72135 5.893696,-3.86902 1.367169,-0.76424 2.559646,-1.07097 3.526915,-1.04128 2.216811,0.068 3.246223,1.90266 2.479953,4.04059 1.105688,-0.48686 2.206929,-0.98346 3.283003,-1.53739 2.619811,-1.23728 5.288743,-2.38548 7.764385,-3.9026 0.246153,-0.17184 0.487463,-0.34958 0.730705,-0.52503 -0.126915,-0.50614 -0.277693,-0.9939 -0.512114,-1.46554 -0.647621,-1.25778 -1.721077,-2.20654 -2.600875,-3.29644 -1.199229,-1.33472 -2.369312,-2.69496 -3.592029,-4.00803 -1.098706,-0.97599 -2.227236,-1.92181 -3.215306,-3.01428 -1.300821,-1.39063 -2.459913,-2.93896 -3.045293,-4.77801 -1.289469,-4.05101 0.646382,-6.61405 2.843754,-6.58667 z m -95.086705,4.28035 c -0.465643,0.10748 -0.930899,0.21773 -1.394745,0.33435 0.171958,0.64334 0.283575,1.36624 0.279569,2.2071 -0.01267,2.6582 0.205063,5.32647 0.670242,7.94732 0.280107,-0.17087 0.565767,-0.33222 0.845429,-0.50385 -0.01897,-0.36223 -0.02445,-0.73164 -0.05529,-1.08985 -0.118034,-2.96491 -0.160888,-5.93314 -0.3452,-8.89507 z m 18.5141159,1.1958 c 0.00497,0.0773 0.00619,0.15612 0.014975,0.23202 -0.1238779,0.22787 -0.2588048,0.44752 -0.3937741,0.66715 0.58900751,0.0447 1.13203305,0.21413 1.64331124,0.45888 -0.37615284,-0.49255 -0.78353709,-0.94642 -1.26452314,-1.35805 z m -6.5422357,14.57068 c -0.046649,0.0755 -0.09888,0.14702 -0.1436608,0.22376 -0.03147,0.054 0.1963367,0.0838 0.1860365,0.0222 -0.017595,-0.10481 -0.026035,-0.14905 -0.042376,-0.24597 z m 13.9236979,6.08439 c -0.2236258,0.5643 -0.5677508,1.09664 -1.1782213,1.50533 0.9079653,0.17659 1.7077452,0.44257 2.2830631,0.84852 0.1405493,-0.0459 0.272804,-0.11448 0.4128956,-0.16174 -0.7336976,-0.43656 -1.2984269,-1.18703 -1.5177374,-2.19211 z" /></clipPath><clipPath
       clipPathUnits="userSpaceOnUse"
       id="clipPath127"><path
         id="path128"
         style="fill:#ff0000;fill-opacity:1;fill-rule:nonzero;stroke:none;stroke-width:0.264583"
         d="M -112.24796,-126.55676 V 185.58027 H 148.5754 V -126.55676 Z M 46.874626,83.305366 c 1.808208,0 3.616317,1.790192 3.616317,5.370214 v 5.232238 c 0.0627,2.146078 -0.111291,4.285324 -0.245462,6.424932 -0.136289,2.02485 -0.190703,4.04985 -0.104904,6.07715 0.192061,1.91863 0.527714,3.82569 0.876432,5.72213 0.304242,2.00862 0.765826,3.9858 1.180806,5.97276 0.41642,1.86142 0.967934,3.68703 1.421104,5.53972 0.25287,0.86996 0.117097,0.46495 0.396356,1.22008 0.186108,0.50319 0.223428,0.93098 0.309544,1.38441 4.425355,2.23251 2.751262,7.58433 -3.415813,6.40477 -3.104732,-0.59371 -6.256094,-0.76586 -9.40821,-0.85576 -3.81635,0.009 -7.630525,0.17062 -11.44478,0.28216 -1.12776,0.0333 -2.255837,0.0512 -3.383772,0.0754 -0.908129,0.5548 -1.966518,0.57724 -2.88613,0.0641 -0.03584,5.3e-4 -0.07165,0.002 -0.107487,0.003 -0.03142,5.3e-4 -0.0525,-0.009 -0.08268,-0.009 -0.32049,0.14732 -0.641715,0.29301 -0.962215,0.44028 -0.262501,0.12062 -0.518089,0.22111 -0.770496,0.31265 -0.876996,0.71434 -1.945576,0.85817 -2.911967,0.46405 -2.943479,-0.21613 -4.295167,-2.77187 -2.550232,-5.0524 -2.22e-4,-0.028 -0.0078,-0.0483 -0.0078,-0.0765 v -6.3469 c -0.014,-2.72977 -0.02254,-5.45666 0.112657,-8.18348 0.135676,-2.32533 0.233519,-4.6523 0.299723,-6.98046 0.046,-1.80459 0.06926,-3.60958 0.08527,-5.41465 -0.0258,-1.02998 0.04009,-2.054459 0.138491,-3.078883 0.0044,-0.04602 0.02191,-0.07504 0.02687,-0.120406 C 15.992671,97.193438 15.83363,95.70984 16.656834,94.418959 10.68718,93.678613 10.992573,87.32947 17.739972,87.32947 h 3.885033 5.177462 5.913334 c 1.498505,0.05847 2.984222,-0.03228 4.475178,-0.161748 1.252041,-0.18606 2.49041,-0.398671 3.697968,-0.782897 1.001961,-0.32245 0.492366,-0.161472 1.527553,-0.482142 0.510384,-0.158096 0.938446,-0.174371 1.394749,-0.23771 0.672338,-1.56932 1.86623,-2.35903 3.063377,-2.35903 z" /></clipPath></defs><g
     id="layer1"
     transform="translate(-69.318434,200.72009)"><path
       style="fill:#000000"
       d="m 117.73248,99.487927 c -1.54229,-0.46295 -2.00592,-1.02971 -2.00592,-2.45212 0,-2.48327 2.65248,-3.69461 7.49653,-3.42352 1.69774,0.095 3.08681,0.0475 3.08681,-0.10557 0,-0.15308 -0.63078,-1.52767 -1.40173,-3.05466 -2.09175,-4.14303 -2.63395,-6.58741 -2.61125,-11.77217 0.0166,-3.78176 0.15167,-4.81162 0.94878,-7.23195 3.42992,-10.4145 12.40264,-16.76218 22.38289,-15.83462 l 2.3913,0.22225 0.44574,-4.01187 c 0.24515,-2.20653 0.54298,-4.47301 0.66184,-5.03664 0.19982,-0.94747 0.15235,-1.00684 -0.6292,-0.78713 -3.23727,0.91005 -8.44456,1.41123 -14.626,1.40768 l -6.72513,-0.004 -0.8244,3.90821 c -1.62395,7.69866 -4.24003,17.57449 -5.02966,18.98721 -0.91413,1.63548 -2.89468,3.36301 -4.05812,3.53968 -0.43156,0.0655 -0.89458,0.22907 -1.02894,0.36343 -0.13435,0.13435 -1.13914,0.24427 -2.23288,0.24427 -1.43251,0 -2.50138,-0.25553 -3.82231,-0.91377 -3.50166,-1.74495 -4.98537,-4.40362 -9.25052,-16.57609 -1.547144,-4.41544 -2.852596,-8.0566 -2.901006,-8.09145 -0.04841,-0.0349 -0.940085,-0.51994 -1.981501,-1.07796 -3.392978,-1.81807 -6.524594,-6.21096 -6.937613,-9.731781 -0.121641,-1.036932 -0.469163,-2.961444 -0.772272,-4.276692 -0.746574,-3.239527 -0.452628,-6.887684 0.791842,-9.827514 0.52269,-1.234757 0.942406,-2.483139 0.932703,-2.77418 -0.0097,-0.291042 -1.604597,-5.212292 -3.544209,-10.936111 C 84.548642,4.5170411 82.258242,-2.6028939 81.398475,-5.5812169 l -1.563212,-5.4151341 -2.042804,-0.830257 c -1.813933,-0.737238 -3.43865,-1.972413 -5.543608,-4.214475 -1.096324,-1.167732 -2.317723,-4.090377 -2.742947,-6.56351 -0.672285,-3.910045 0.491037,-8.069453 3.048691,-10.900471 l 1.327398,-1.46927 -0.08713,-3.233374 c -0.12951,-4.805699 1.423844,-8.673696 4.809299,-11.97547 l 1.367712,-1.333904 -0.351316,-1.938223 c -0.645487,-3.561176 0.750378,-8.167729 3.420045,-11.286634 0.662536,-0.774024 2.156107,-2.100214 3.319046,-2.947088 2.072128,-1.508961 2.121879,-1.58469 2.486449,-3.784801 0.718321,-4.334925 3.330874,-7.967705 7.191024,-9.999188 1.224818,-0.644586 2.279719,-1.214256 2.344224,-1.265934 0.0645,-0.05168 -0.136908,-1.692804 -0.447586,-3.646947 -0.509258,-3.203202 -0.511608,-3.680457 -0.02388,-4.847761 0.446541,-1.068725 0.50052,-2.285909 0.309181,-6.971859 -0.856939,-20.986723 7.619369,-45.141203 22.321719,-63.608973 19.33264,-24.28392 50.20492,-38.9056 82.14549,-38.9056 26.30976,0 51.5768,10.32286 69.49722,28.39313 8.17305,8.2414 15.4022,18.58106 19.76642,28.27142 0.86228,1.91461 1.68883,3.5194 1.83679,3.56622 0.14795,0.0468 0.77944,-0.84417 1.4033,-1.97995 5.4056,-9.84127 14.95729,-17.33135 22.87213,-17.93548 4.1706,-0.31834 8.15022,1.20484 13.4054,5.13083 3.47217,2.59397 9.10505,8.43121 10.63921,11.02522 2.33809,3.95332 2.81079,8.49505 1.34012,12.8761 -0.95617,2.84837 -2.90122,6.13048 -3.63906,6.14061 -0.25399,0.004 -0.375,0.14676 -0.26893,0.31839 0.10608,0.17163 -0.95612,1.40206 -2.36043,2.73429 -4.80189,4.55541 -12.00044,7.38132 -20.63758,8.10163 -1.59829,0.1333 -2.90599,0.34102 -2.90599,0.46161 0,0.12059 0.76509,0.49098 1.70019,0.8231 2.24057,0.79578 8.56455,4.61122 11.45455,6.91087 4.71649,3.75302 11.62356,11.655774 12.44255,14.236195 0.44143,1.390807 -0.19352,3.035662 -1.77288,4.592715 -4.63435,4.568887 -18.2009,8.78878 -25.07248,7.798829 -4.87873,-0.702852 -8.7158,-3.384617 -10.94406,-7.648908 -0.57037,-1.091531 -1.1561,-1.98498 -1.30162,-1.985441 -0.14552,-4.61e-4 -0.26458,0.496156 -0.26458,1.103593 0,1.892271 -1.06846,8.061221 -2.13718,12.339347 -1.81824,7.27852 -4.45743,14.251896 -7.79613,20.599275 -1.91008,3.631337 -5.32151,9.050738 -5.81699,9.240872 -0.26038,0.09992 -0.40299,0.29564 -0.3169,0.434937 0.34919,0.565 -5.58995,7.549815 -11.71059,13.772417 l -3.97916,4.045449 0.88604,0.886038 0.88604,0.886038 0.99799,-1.050932 c 0.5489,-0.578013 3.68054,-3.987807 6.95919,-7.577321 3.27866,-3.589514 7.17218,-7.796388 8.65226,-9.34861 3.10846,-3.25995 16.56445,-17.968601 20.36174,-22.257286 2.73872,-3.093119 3.57314,-3.77697 5.05283,-4.141043 1.12252,-0.276195 14.68111,1.685442 16.28683,2.356357 2.31511,0.967315 4.48236,4.660242 4.48236,7.637806 0,1.771437 -1.03929,4.43269 -2.19592,5.622958 -1.65285,1.700914 -3.55319,2.436117 -6.52081,2.52277 -1.39527,0.04074 -2.50511,0.192076 -2.46631,0.336302 0.0388,0.144225 -0.88196,1.273205 -2.04612,2.508845 -1.16417,1.235639 -2.97848,3.197243 -4.0318,4.35912 -1.05332,1.161877 -2.95832,3.2252 -4.23333,4.585163 -1.27502,1.359962 -3.19133,3.427538 -4.25848,4.594613 -4.76848,5.214972 -7.01649,7.494477 -7.20502,7.305954 -0.11182,-0.111826 -0.20332,0.0038 -0.20332,0.256997 0,0.479959 -0.5306,1.092853 -6.72777,7.771164 -2.07056,2.231319 -4.27735,4.651741 -4.90398,5.378716 -0.62663,0.726974 -1.30661,1.218383 -1.51107,1.09202 -0.20446,-0.126363 -0.28545,-0.08616 -0.17999,0.08934 0.10547,0.175499 -0.95853,1.571009 -2.36444,3.101132 -1.8134,1.9736131 -2.63797,2.6497381 -2.83759,2.3267431 -0.19679,-0.318405 -0.14255,-0.369487 0.1804,-0.169896 0.30556,0.188849 0.37663,0.147616 0.21008,-0.121882 -0.13845,-0.224007 -0.43952,-0.407285 -0.66906,-0.407285 -0.22953,0 -4.02463,-3.6047421 -8.43355,-8.0105381 l -8.01623,-8.010538 -0.82877,0.778594 c -0.45583,0.428227 -0.9788,0.778594 -1.16215,0.778594 -0.18336,0 -0.54217,0.334334 -0.79737,0.742964 -0.40303,0.645356 -0.36741,0.845767 0.27115,1.525477 0.40432,0.430382 0.62785,0.889799 0.49672,1.020925 -0.13113,0.131126 0.0155,0.238412 0.32578,0.238412 0.3103,0 0.66496,0.3175 0.78812,0.705555 0.12317,0.388056 0.36326,0.705556 0.53354,0.705556 0.17029,0 1.3899,1.129201 2.71026,2.509336 1.32035,1.380136 4.30565,4.387013 6.63398,6.6819491 9.77103,9.63087498 10.22468,9.99651898 10.4706,8.43937898 0.0997,-0.63106398 0.36784,-0.50688498 2.3142,1.071607 1.22123,0.99040802 2.29932,2.17522702 2.42122,2.66090402 0.27364,1.090284 -0.44029,2.886523 -1.33829,3.367118 -0.91836,0.491495 -3.57738,0.496298 -3.74056,0.0068 -0.0725,-0.217462 -0.32854,-0.395386 -0.56899,-0.395386 -0.24046,0 -1.72846,-1.322916 -3.30668,-2.939814 -1.57821,-1.616898 -3.10751,-2.93981502 -3.39844,-2.93981502 -0.29093,0 -0.46515,0.103257 -0.38715,0.229459 0.078,0.126203 -0.88149,1.22428302 -2.13219,2.44017902 -1.2507,1.215896 -2.274,2.356182 -2.274,2.533967 0,0.177786 -0.14805,0.323247 -0.329,0.323247 -0.18095,0 -0.4321,0.324828 -0.55811,0.721839 -0.16995,0.535455 0.17318,1.195859 1.32888,2.557639 8.2678,9.7420809 14.92561,22.9711579 17.0209,33.8205499 1.35262,7.00387 0.95916,14.16518 -1.00658,18.32041 -1.04737,2.21396 -3.21978,4.90456 -3.95997,4.90456 -0.27592,0 -0.50167,0.13949 -0.50167,0.30998 0,0.17048 -0.47625,0.50724 -1.05834,0.74835 -0.58208,0.24111 -1.05833,0.57787 -1.05833,0.74835 0,0.17049 -0.24371,0.30998 -0.54158,0.30998 -0.29787,0 -0.89318,0.22359 -1.32292,0.49686 -1.2968,0.82465 -4.80644,1.36773 -7.23259,1.11916 -2.56362,-0.26265 -6.14966,-1.51645 -8.07057,-2.82175 -0.72219,-0.49073 -1.35386,-0.85145 -1.40372,-0.80159 -0.0499,0.0499 0.44806,1.42673 1.10648,3.05971 1.50154,3.72399 2.09486,7.16135 1.82694,10.58414 -0.36083,4.60968 -1.96549,8.24331 -5.20634,11.78931 -0.99235,1.08579 -1.74866,1.98255 -1.68068,1.9928 0.068,0.0103 7.02922,0.0977 15.46942,0.19428 8.44021,0.0966 15.93534,0.3309 16.65584,0.52065 3.53062,0.92983 2.96106,4.36953 -0.86989,5.25345 -1.87027,0.43152 -170.73991,0.4358 -172.17723,0.004 z m 32.91908,-4.63861 c 2.42647,-0.65995 4.90541,-3.3256 6.16982,-6.6345 0.55354,-1.4486 1.12178,-3.11501 1.26275,-3.70313 l 0.25632,-1.0693 0.0778,1.05833 0.0778,1.05833 0.2693,-1.05833 c 0.14812,-0.58208 0.2862,-2.64583 0.30685,-4.58611 0.0619,-5.81728 -1.12007,-8.99291 -4.80603,-12.91216 -1.52577,-1.62234 -2.9401,-2.71047 -4.58611,-3.52838 -2.21669,-1.10148 -2.62204,-1.18316 -5.90777,-1.19048 -3.15712,-0.007 -3.73876,0.0957 -5.53585,0.97824 -8.54347,4.19544 -11.81956,14.91248 -7.35525,24.06111 2.71927,5.57255 5.27483,7.55821 10.19519,7.92161 3.96991,0.29321 7.59385,0.14363 9.57508,-0.39523 z m 7.76111,-11.75971 c 0,-0.097 0.0794,-0.17639 0.17639,-0.17639 0.097,0 0.17639,0.0794 0.17639,0.17639 0,0.097 -0.0794,0.17639 -0.17639,0.17639 -0.097,0 -0.17639,-0.0794 -0.17639,-0.17639 z m 0,-1.23472 c 0,-0.25871 0.10584,-0.36454 0.23519,-0.23519 0.12935,0.12935 0.12935,0.34102 0,0.47037 -0.12935,0.12935 -0.23519,0.0235 -0.23519,-0.23518 z m 76.74703,12.28564 c 2.3462,-1.23432 4.1849,-3.64353 5.17719,-6.78357 0.43512,-1.37691 0.99205,-2.63041 1.23762,-2.78558 0.24557,-0.15516 0.43533,-0.55203 0.42169,-0.88194 -0.0204,-0.49287 -0.0789,-0.47402 -0.32798,0.10572 -0.25682,0.59767 -0.30698,0.536 -0.32798,-0.40323 -0.016,-0.7162 0.17883,-1.18692 0.55032,-1.32947 0.86173,-0.33068 0.50017,-6.72389 -0.53046,-9.3798 -1.80434,-4.64973 -5.93638,-8.61849 -10.45177,-10.03876 -7.38241,-2.32205 -15.97403,3.64153 -18.34159,12.73119 -2.07894,7.9816 1.76954,18.18762 7.3511,19.49484 0.80611,0.1888 4.16441,0.31283 7.46288,0.27562 5.74412,-0.0648 6.07242,-0.1072 7.77898,-1.00502 z m 6.50852,-12.46203 c 0,-0.097 0.0794,-0.17639 0.17639,-0.17639 0.097,0 0.17639,0.0794 0.17639,0.17639 0,0.097 -0.0794,0.17639 -0.17639,0.17639 -0.097,0 -0.17639,-0.0794 -0.17639,-0.17639 z m 0,-2.82223 c 0,-0.097 0.0794,-0.17638 0.17639,-0.17638 0.097,0 0.17639,0.0794 0.17639,0.17638 0,0.097 -0.0794,0.17639 -0.17639,0.17639 -0.097,0 -0.17639,-0.0794 -0.17639,-0.17639 z m -33.16111,15.28769 c 0,-0.17751 -0.318,-0.94607 -0.70666,-1.70792 -0.38867,-0.76185 -1.12286,-2.83608 -1.63153,-4.60941 -0.85314,-2.97418 -0.91101,-3.59753 -0.74621,-8.03757 0.18408,-4.95961 0.8482,-7.8154 2.67811,-11.51612 0.38376,-0.77611 0.66552,-1.44391 0.62612,-1.48401 -0.0394,-0.0401 -4.51029,-0.0915 -9.93532,-0.11418 l -9.86367,-0.0413 0.0693,2.58363 c 0.0816,3.04341 1.16394,7.50349 2.43012,10.0144 1.23347,2.44606 4.33838,5.84404 6.28229,6.87528 0.95391,0.50605 1.77213,1.24832 2.01056,1.82394 1.29744,3.1323 3.86,5.77975 6.05767,6.25832 1.61184,0.35101 2.72921,0.33255 2.72921,-0.0451 z m -25.75277,-1.21286 c 3.20146,-0.29018 7.72109,-0.75792 10.04363,-1.03941 2.32254,-0.28149 4.38629,-0.51604 4.58611,-0.52121 0.19982,-0.005 -0.56271,-0.51174 -1.69451,-1.12571 -3.99893,-2.1693 -7.94461,-7.47203 -9.95251,-13.3755 -0.45869,-1.34859 -1.01837,-4.07258 -1.24373,-6.05332 -0.22537,-1.98074 -0.45598,-3.77438 -0.51248,-3.98588 -0.0657,-0.24585 -2.24561,-0.47115 -6.04448,-0.62471 -3.26796,-0.13211 -8.23237,-0.47303 -11.03202,-0.75761 -2.79965,-0.28458 -5.14393,-0.46376 -5.20951,-0.39818 -0.0656,0.0656 0.43255,1.03557 1.10695,2.15553 0.67441,1.11996 1.66931,3.32651 2.2109,4.90345 0.9239,2.69014 0.98424,3.22658 0.97713,8.688 l -0.008,5.82084 -1.31523,3.52777 c -0.72338,1.94028 -1.31528,3.58931 -1.31534,3.66452 -2.1e-4,0.2621 13.62454,-0.35484 19.40267,-0.87858 z m 68.80437,-1.88888 c 8.45914,-5.01892 10.31971,-13.99581 5.00329,-24.13992 l -1.273,-2.42897 -5.13062,0.24943 c -2.82184,0.13719 -5.18872,0.30754 -5.25972,0.37854 -0.071,0.071 0.50938,1.28993 1.28975,2.70871 3.76992,6.85405 4.22347,13.88519 1.4009,21.71753 -0.57681,1.60059 -1.19511,3.00062 -1.374,3.11119 -0.1789,0.11056 -0.23918,0.3403 -0.13397,0.51054 0.2771,0.44836 2.81735,-0.52883 5.47737,-2.10705 z m -93.14604,-5.13039 c 0,-0.097 -0.0794,-0.17639 -0.17639,-0.17639 -0.097,0 -0.17638,0.0794 -0.17638,0.17639 0,0.097 0.0794,0.17639 0.17638,0.17639 0.097,0 0.17639,-0.0794 0.17639,-0.17639 z m 83.25555,0 c 0,-0.097 -0.0794,-0.17639 -0.17639,-0.17639 -0.097,0 -0.17639,0.0794 -0.17639,0.17639 0,0.097 0.0794,0.17639 0.17639,0.17639 0.097,0 0.17639,-0.0794 0.17639,-0.17639 z m 0,-0.70556 c 0,-0.097 -0.0794,-0.17638 -0.17639,-0.17638 -0.097,0 -0.17639,0.0794 -0.17639,0.17638 0,0.097 0.0794,0.17639 0.17639,0.17639 0.097,0 0.17639,-0.0794 0.17639,-0.17639 z m 0.35278,-2.46944 c 0,-0.097 -0.0794,-0.17639 -0.17639,-0.17639 -0.097,0 -0.17639,0.0794 -0.17639,0.17639 0,0.097 0.0794,0.17639 0.17639,0.17639 0.097,0 0.17639,-0.0794 0.17639,-0.17639 z M 115.64861,67.233577 c 0.71753,-0.91219 3.96251,-13.32735 3.96984,-15.18841 0.002,-0.58209 0.29498,-1.69856 0.65043,-2.48104 0.35544,-0.78249 0.76413,-2.21124 0.9082,-3.175 0.14406,-0.96376 1.19495,-5.580167 2.3353,-10.258674 1.14035,-4.678508 2.10506,-9.044132 2.14381,-9.701388 0.0388,-0.657256 0.19724,-1.454083 0.3522,-1.770727 0.26876,-0.549164 1.67555,-7.052284 3.84383,-17.7687269 0.54961,-2.716389 1.24063,-5.812014 1.53559,-6.87916602 1.12948,-4.08641098 2.33503,-9.38542398 2.32748,-10.23055508 -0.01,-1.124463 -0.25865,-1.446613 -1.70161,-2.204861 -1.48733,-0.781561 -1.71871,-0.774274 -3.55288,0.111902 -3.07037,1.483438 -8.43152,1.813025 -11.36434,0.698643 -1.75457,-0.666683 -4.59894,-2.387345 -4.83888,-2.927211 -0.19555,-0.439998 -0.53877,-0.306026 -1.63817,0.639442 -3.00063,2.580503 -7.4655,3.725398 -11.73235,3.008441 -2.500853,-0.420217 -6.212483,-1.841626 -6.647689,-2.545805 -0.330554,-0.534847 -1.426435,-0.335115 -2.071362,0.377521 -0.341376,0.377217 -1.317885,0.972529 -2.17002,1.322916 -0.852134,0.350387 -1.54993,0.817746 -1.550658,1.038576 -0.0041,1.2408021 8.538945,27.352778 9.237592,28.234916 0.248996,0.314392 0.617798,0.29314 1.530457,-0.08819 0.667106,-0.278735 2.346098,-0.502275 3.77138,-0.502121 2.10305,2.28e-4 2.95286,0.184197 4.68564,1.014353 2.36867,1.134805 5.05791,3.651288 6.00625,5.620394 0.345,0.716361 0.84921,1.737244 1.12046,2.26863 0.73521,1.440278 1.50397,5.451743 1.505,7.853288 0.001,2.49373 -0.76779,6.007213 -1.72529,7.884062 -0.83388,1.634541 -4.78098,5.389455 -6.34729,6.038245 -1.07043,0.44339 -1.13088,0.55869 -0.91371,1.74291 0.32049,1.74765 4.66009,13.94557 5.6823,15.97203 1.38986,2.7553 3.34509,3.55262 4.64849,1.89561 z m 160.98426,-4.41942 c 3.36838,-0.97376 5.82032,-4.23518 6.17252,-8.21031 0.13197,-1.4895 0.0286,-2.00983 -0.52681,-2.65171 -2.00198,-2.31366 -7.31693,-2.91657 -11.79125,-1.33757 -6.00672,2.1198 -10.24603,7.83176 -7.44678,10.03365 1.0171,0.80005 4.16758,2.05794 6.32073,2.52367 1.64925,0.35673 5.44631,0.16993 7.27159,-0.35773 z m -61.12434,-2.86769 c 1.91023,-1.68411 3.39514,-2.49595 5.95134,-3.25375 5.87519,-1.74174 12.69003,-0.75064 17.20772,2.50255 1.66147,1.19641 1.91196,1.26763 4.23535,1.20408 5.336,-0.14594 12.35932,-0.84337 12.80564,-1.27163 0.80581,-0.7732 -1.11748,-7.66046 -2.79695,-10.01583 l -0.57464,-0.80591 -48.24699,-0.0707 -48.24698,-0.0707 -0.64987,0.88194 c -0.80623,1.09416 -1.4776,5.58835 -1.17291,7.85148 0.41571,3.08763 0.50052,3.12496 8.30098,3.65379 10.46853,0.70971 10.13897,0.70161 31.49148,0.77398 l 20.0542,0.068 z m 46.56337,-10.22537 c 1.89523,-1.66824 6.42137,-3.92189 9.22965,-4.5956 2.60378,-0.624652 7.53999,-0.530672 9.48116,0.18051 0.84901,0.31105 1.60308,0.56555 1.6757,0.56555 0.36788,0 0.0499,-3.032769 -0.57665,-5.499823 -1.35984,-5.354446 -5.58034,-15.314069 -6.4895,-15.314069 -1.0226,0 -5.42551,1.533187 -7.78144,2.709665 -4.87418,2.434009 -11.06318,7.282393 -13.29248,10.413161 l -0.70653,0.992232 1.13159,2.026498 c 0.62238,1.114574 2.07342,3.812436 3.22454,5.995246 1.15113,2.18281 2.17681,3.96875 2.27929,3.96875 0.10248,0 0.92359,-0.64895 1.82467,-1.44212 z m -97.80154,-6.66695 6.73963,-0.0048 3.8437,-5.022322 c 2.11404,-2.762278 5.03433,-6.453215 6.48954,-8.202083 1.4552,-1.748868 2.85492,-3.446987 3.11047,-3.773597 0.4034,-0.515559 0.1443,-1.073591 -1.96555,-4.233333 -4.29049,-6.425504 -7.82812,-13.6108679 -10.82354,-21.98393892 -0.90236,-2.52236098 -1.72628,-4.82423598 -1.83094,-5.11527698 -0.73616,-2.047258 -10.79776,31.6623879 -13.2145,44.2729079 -0.86216,4.498766 -0.86096,4.542294 0.11781,4.279994 0.43656,-0.116994 3.82658,-0.214884 7.53338,-0.217534 z m 36.44723,-0.917829 c 0.64692,-1.096446 7.95399,-10.600609 10.58301,-13.765104 1.93365,-2.327508 2.33718,-2.84964 3.78775,-4.901049 0.82318,-1.164166 1.87236,-2.543816 2.3315,-3.065888 0.45914,-0.522071 1.10207,-1.315821 1.42874,-1.763888 0.32667,-0.448068 2.76322,-3.751543 5.41457,-7.341056 8.35376,-11.30970792 15.42596,-21.717016 15.10762,-22.232093 -0.12141,-0.196456 -0.36794,-0.266228 -0.54783,-0.155049 -0.17989,0.111179 -0.60548,0.264826 -0.94576,0.341438 -0.34028,0.07661 -1.77624,0.55165 -3.19103,1.0556401 -3.06392,1.091463 -13.15668,3.703954 -14.30938,3.703954 -0.60065,0 -2.1026,1.440216 -5.79439,5.55624998 -2.74095,3.05593702 -7.47866,8.25499902 -10.52824,11.55347092 -8.21386,8.884254 -15.38866,17.135002 -21.68854,24.940989 -3.08467,3.822128 -5.60849,7.036815 -5.60849,7.143749 0,0.106934 5.22306,0.194426 11.60682,0.194426 h 11.60682 z m -96.53754,-0.02408 c 1.17467,-0.600307 2.88796,-2.880611 3.45481,-4.598203 0.24441,-0.740571 0.35235,-2.554355 0.266,-4.470064 -0.16294,-3.615041 -1.11635,-6.159355 -3.09939,-8.271184 -2.2435,-2.389198 -5.697694,-2.702385 -7.954149,-0.721191 -1.765352,1.549999 -2.47096,3.739867 -2.427068,7.532453 0.04496,3.885214 0.916216,6.411734 3.045027,8.830191 2.299834,2.61275 4.05586,3.056806 6.71477,1.697998 z m 144.65909,-0.738602 c -2.54332,-4.587608 -6.37891,-9.228456 -9.4371,-11.418382 -1.80024,-1.289118 -1.98606,-1.538963 -1.79422,-2.412393 0.18533,-0.843805 0.068,-1.034798 -0.87546,-1.425609 -1.99277,-0.825431 -2.75265,-2.950453 -1.53585,-4.295003 1.23584,-1.365592 3.10093,-0.60975 7.23761,2.933101 1.10034,0.942384 2.13221,1.707618 2.29305,1.700519 0.16084,-0.0071 1.08619,-1.047101 2.05633,-2.311116 3.75497,-4.892434 10.05193,-9.96334 15.61308,-12.573116 2.4605,-1.154684 2.86241,-1.460155 2.58693,-1.9662159 -0.53189,-0.97711 -7.79605,-7.924363 -10.08612,-9.64610502 -4.5984,-3.45720898 -10.45779,-7.00442598 -11.57012,-7.00442598 -0.2683,0 -1.57346,1.627187 -2.90035,3.615972 -4.0255,6.033559 -8.82151,12.719808 -15.11371,21.0704139 -6.00237,7.965966 -8.36644,11.005798 -14.68421,18.881666 -3.6797,4.587181 -4.59133,5.828573 -4.59133,6.252106 0,0.150855 9.83935,0.274282 21.86523,0.274282 h 21.86523 z M 132.21946,40.109475 c 0.65252,-1.998687 0.86136,-3.874314 0.49266,-4.424698 -0.17883,-0.266963 -0.91983,-0.505088 -1.64665,-0.529167 l -1.3215,-0.04378 -0.60957,2.998611 c -0.68164,3.353104 -0.58388,3.592055 1.40883,3.44346 1.09005,-0.08128 1.28645,-0.25053 1.67623,-1.444426 z m 11.45391,0.504283 c 2.04858,-0.369426 4.42473,-0.981347 5.28034,-1.359824 1.55197,-0.68651 1.55703,-0.694734 2.1387,-3.473454 1.15805,-5.532137 1.22372,-4.909261 -0.99009,-9.391542 -2.41455,-4.888716 -4.75889,-8.122177 -7.3231,-10.100448 -1.87862,-1.44934 -2.94066,-1.868613 -2.58476,-1.020408 2.04424,4.871957 2.06673,8.413472 0.079,12.435416 -0.67125,1.358194 -1.84296,3.075297 -2.60379,3.815784 l -1.38333,1.34634 0.51499,1.475882 c 0.49494,1.418404 0.44097,4.117436 -0.12296,6.150187 -0.20692,0.74586 -0.11491,0.79375 1.52506,0.79375 0.9599,0 3.42137,-0.302257 5.46995,-0.671683 z m 110.58414,-8.78412 c 1.71013,-1.708192 4.16846,-3.856389 5.46297,-4.773771 2.1757,-1.541855 10.36895,-5.834107 12.19843,-6.390471 0.43657,-0.132763 0.79375,-0.410389 0.79375,-0.616947 0,-0.509823 -1.38131,-2.728809 -2.36961,-3.806623 -0.44296,-0.483087 -0.80539,-0.993439 -0.80539,-1.134116 0,-0.719492 -1.30519,-0.888998 -2.47272,-0.321133 -0.67729,0.329426 -1.94582,0.881917 -2.81894,1.227758 -3.43903,1.362187 -6.87718,3.871053 -11.02431,8.044597 -2.27982,2.294347 -4.14514,4.357971 -4.14514,4.585831 0,0.227859 -0.24035,0.679879 -0.53412,1.004488 -0.47704,0.527122 -0.47653,0.728026 0.005,1.879861 0.29637,0.709315 0.69547,1.289663 0.8869,1.289663 0.19142,0 0.34804,0.185938 0.34804,0.413195 0,0.361179 0.99827,1.703472 1.26688,1.703472 0.0546,0 1.4984,-1.397612 3.20852,-3.105804 z m -119.825,-4.037945 c 0.90171,-0.456076 2.00879,-1.426319 2.60234,-2.28069 2.28255,-3.285579 1.24976,-8.875852 -1.94501,-10.527931 -1.03772,-0.536626 -1.04447,-0.53355 -1.56567,0.713869 -0.64685,1.548126 -3.328,11.424354 -3.33131,12.27114 -0.004,0.905274 2.28971,0.809865 4.23965,-0.176388 z m 20.36257,-5.644444 c 0.5498,-1.557596 1.50092,-5.786199 1.50092,-6.672968 0,-1.311103 -6.67845,-7.2560719 -9.26733,-8.2495199 -0.27929,-0.107171 -1.33137,0.461177 -2.36254,1.276274 l -1.85904,1.469485 1.01182,0.8740059 c 0.5565,0.480703 1.42875,1.091112 1.93833,1.356464 2.16477,1.127239 5.54517,5.555687 7.85954,10.296284 0.5167,1.058365 0.70043,1.003786 1.1783,-0.350025 z m 34.82959,-1.5875 c 4.49781,-5.06721 7.68557,-8.796176 7.83978,-9.170796 0.0995,-0.24175 -0.79196,-1.9413979 -1.98107,-3.7769949 -1.18911,-1.835596 -3.13571,-5.28905 -4.32578,-7.67434202 -1.19006,-2.38529098 -2.20832,-4.39308898 -2.26279,-4.46177298 -0.0545,-0.06868 -1.41867,-0.26905 -3.03156,-0.445259 -1.61289,-0.176208 -4.36127,-0.568211 -6.10752,-0.871119 -1.74625,-0.302907 -3.70875,-0.642139 -4.36111,-0.75385 l -1.18611,-0.20311 0.26069,1.186887 c 0.51033,2.323534 3.98397,11.1826 5.80695,14.809894 3.3243,6.6145649 7.07445,12.6833789 7.83754,12.6833789 0.18519,0 0.86513,-0.595312 1.51098,-1.322916 z m -31.212,-11.3836429 c 0,-0.304245 3.30264,-10.09991102 4.08799,-12.125016 0.21237,-0.547622 -0.17581,-0.436042 -2.17938,0.626458 -2.68386,1.42325498 -9.02196,5.827389 -9.20551,6.396599 -0.0638,0.197745 0.47541,0.673995 1.19817,1.058333 0.72275,0.384339 2.25192,1.532235 3.39815,2.550881 2.06536,1.835484 2.70058,2.1866 2.70058,1.492745 z m -16.63853,-5.493526 c 5.7591,-4.62909202 14.10433,-10.371153 18.15464,-12.491579 1.29717,-0.679097 2.35984,-1.3204101 2.36147,-1.4251401 0.002,-0.10473 -1.46546,-0.803435 -3.26022,-1.552677 -1.79475,-0.749243 -4.79758,-2.146535 -6.67293,-3.105095 l -3.40975,-1.742835 -1.52914,1.549405 c -1.35738,1.375362 -3.49705,2.639805 -6.33563,3.744061 -0.75884,0.2952 -0.97199,0.667593 -1.18119,2.0636021 -0.14039,0.936871 -1.0338,4.878401 -1.98537,8.75895598 -2.21736,9.04258502 -2.1304,8.64305502 -1.88124,8.64305502 0.11733,0 2.70004,-1.998789 5.73936,-4.441753 z m 60.53241,2.58967 c 1.04335,-1.030641 6.21373,-6.96896402 8.225,-9.446633 l 0.78971,-0.972843 -8.19805,0.184764 c -4.50892,0.10162 -8.26929,0.248446 -8.35636,0.326279 -0.39997,0.357505 5.48336,11.05496 6.07995,11.05496 0.16449,0 0.82138,-0.515937 1.45975,-1.146527 z m 67.56293,-6.06434402 2.96207,-2.97753898 -3.90954,-4.166211 c -4.56629,-4.8660691 -6.73569,-7.0034731 -6.89074,-6.7891211 -0.061,0.08441 -1.49272,1.60886 -3.18147,3.387673 -1.68876,1.7788141 -3.07047,3.3825831 -3.07047,3.5639321 0,0.181348 0.99219,1.10675 2.20486,2.056448 1.21268,0.949698 2.90259,2.401866 3.75536,3.22704 0.85278,0.82517398 1.67514,1.50031698 1.82747,1.50031698 0.15234,0 0.88336,0.709169 1.6245,1.57593102 0.74114,0.866761 1.43041,1.581136 1.53171,1.587499 0.1013,0.0064 1.51711,-1.328323 3.14625,-2.96596902 z M 252.56482,-10.484693 c 0.56648,-0.533577 2.10434,-2.160764 3.41748,-3.615972 1.31314,-1.455208 2.48609,-2.617131 2.60655,-2.58205 0.60104,0.175038 0.22134,-1.47472 -0.50706,-2.203118 l -0.83401,-0.83401 -3.11547,1.801615 c -1.71351,0.990888 -4.42517,2.433744 -6.02589,3.206346 -1.60073,0.772603 -2.90566,1.504004 -2.89984,1.625336 0.0115,0.239606 5.64502,3.5460011 6.06927,3.5621391 0.14246,0.0054 0.7225,-0.42671 1.28897,-0.9602861 z m -43.70493,-0.60886 c 31.36339,-3.10361 57.59509,-18.465701 71.75278,-42.020647 8.18479,-13.617487 12.23807,-28.837995 12.22941,-45.92278 -0.007,-12.99206 -1.84227,-24.19055 -5.85428,-35.71367 -4.34854,-12.48969 -11.14775,-23.04596 -21.1543,-32.84359 -13.0519,-12.7794 -33.00193,-22.29512 -51.68194,-24.65112 -16.99758,-2.14381 -37.03753,0.99346 -52.76629,8.26059 -1.4409,0.66574 -2.62225,1.1017 -2.62522,0.96881 -0.003,-0.1329 -0.12203,-0.0637 -0.26458,0.15384 -0.14255,0.21751 -1.29106,0.91324 -2.55224,1.54608 -1.26118,0.63283 -3.99962,2.23234 -6.08542,3.55447 -2.0858,1.32212 -3.79719,2.29326 -3.80309,2.15808 -0.006,-0.13517 -0.17254,0.032 -0.37031,0.37159 -0.19776,0.33955 -0.5315,0.61736 -0.74164,0.61736 -0.21013,0 -0.63881,0.28461 -0.95261,0.63246 -0.3138,0.34785 -1.46514,1.35304 -2.55854,2.23374 -17.30354,13.93757 -30.47441,35.70956 -34.33264,56.75324 -1.37702,7.51062 -2.03009,18.183592 -1.05283,17.206334 0.0994,-0.09942 0.34139,-1.669952 0.5377,-3.490074 1.28237,-11.88925 5.79487,-20.30172 12.88829,-24.02709 1.33542,-0.70134 4.57116,-2.01156 7.19053,-2.91158 23.90725,-8.21464 59.37468,-10.45931 91.54583,-5.79378 22.76869,3.30197 34.85347,7.17422 40.76462,13.06197 5.75886,5.73605 8.76965,13.98775 8.85898,24.279899 0.0808,9.314055 -2.83512,16.470786 -9.54056,23.41567 -7.16582,7.421703 -17.64928,11.189388 -31.07795,11.169199 -7.78031,-0.0117 -12.38882,-0.768686 -26.0777,-4.283499 -11.99856,-3.080801 -14.19415,-3.468068 -21.02739,-3.708896 -9.84582,-0.347003 -16.0999,0.657184 -31.48879,5.055998 -5.18838,1.483066 -9.48929,2.741556 -9.55756,2.796643 -0.0683,0.05509 0.16433,0.943881 0.5169,1.975096 0.42187,1.233913 0.64523,2.930289 0.6533,4.961743 0.007,1.697743 0.0917,3.086805 0.18881,3.086805 0.47271,0 3.29734,2.93335 4.39433,4.563471 2.20799,3.28106 3.27275,8.753377 2.3382,12.017083 -0.20084,0.70136 0.009,1.206997 1.02431,2.469444 2.10557,2.617837 3.17912,5.364557 3.17912,8.133936 v 2.050549 l 3.43958,1.720836 c 17.34538,8.67796 35.15741,12.0226391 54.06319,10.15179 z m -34.08367,-32.372821 c -2.25276,-1.750276 -2.8804,-3.469815 -1.69807,-4.652146 0.7544,-0.754402 0.92499,-0.713572 2.08726,0.499576 1.25941,1.314543 2.90265,1.667847 4.32832,0.930606 0.58214,-0.301037 1.15315,-0.794156 1.26891,-1.095819 0.13797,-0.359539 0.58229,-0.520147 1.28982,-0.466235 2.26661,0.17271 1.49112,3.566662 -1.11923,4.898364 -1.90056,0.969594 -4.83196,0.915152 -6.15701,-0.114346 z m -70.63225,26.767449 c 2.31102,-0.543928 3.48806,-1.226248 5.70744,-3.308554 1.87776,-1.761771 2.13338,-1.727831 4.64987,0.617384 2.33022,2.17162 4.65959,2.964554 8.06178,2.744286 2.96193,-0.191766 5.47842,-1.201338 6.96726,-2.795153 l 1.04814,-1.122031 1.48169,1.446782 c 1.78438,1.742346 2.88339,2.1958 5.29702,2.185576 4.32146,-0.0183 7.29717,-3.013274 7.29717,-7.34441 0,-3.460455 -2.06614,-6.389424 -5.0297,-7.130119 l -1.67832,-0.419467 1.19477,-1.322461 c 1.63051,-1.804779 2.12522,-3.480145 1.86152,-6.304095 -0.42039,-4.501854 -2.94249,-7.802824 -7.72783,-10.114319 l -2.38373,-1.151428 1.19835,-0.707044 c 1.50907,-0.890372 2.14127,-2.655565 1.87501,-5.235308 -0.25412,-2.462176 -1.36854,-4.636208 -3.38241,-6.598439 -1.99213,-1.941059 -3.69991,-2.842091 -6.91794,-3.64993 -1.35819,-0.340956 -2.53924,-0.667515 -2.62455,-0.725688 -0.0853,-0.05817 0.19341,-0.349879 0.61938,-0.648236 2.10397,-1.47368 2.61723,-5.797239 1.12841,-9.505373 -1.42997,-3.561563 -4.57824,-7.177496 -7.5899,-8.717355 -2.22377,-1.137009 -6.94095,-2.385241 -9.01405,-2.385241 -2.32556,0 -2.36456,0.05735 -1.55911,2.293055 0.64411,1.787902 0.66365,5.148942 0.0385,6.625914 -0.65379,1.544672 -1.30188,2.053234 -4.987581,3.913826 -2.884803,1.456288 -3.231427,1.741453 -3.792361,3.11995 -0.939979,2.310002 -0.812671,3.575748 0.468039,4.653394 0.59697,0.502317 1.501845,0.913304 2.010833,0.913304 1.307728,0 0.638578,0.457367 -2.0379,1.392915 -6.706256,2.344136 -10.357316,6.172866 -10.391002,10.896656 -0.01404,1.96838 0.0914,2.327737 0.882658,3.008349 0.731901,0.629555 1.41457,0.790972 3.679968,0.870131 3.578096,0.125029 4.010355,0.425213 1.449719,1.006764 -5.071026,1.151691 -9.018024,3.957588 -10.825833,7.696016 -1.868216,3.863348 -1.571443,7.165392 0.881478,9.807758 1.035346,1.115308 1.104118,1.303908 0.476485,1.306708 -1.120269,0.005 -3.164722,0.814702 -4.149652,1.643466 -2.256547,1.898759 -3.09614,5.333197 -1.965366,8.039521 1.774842,4.247793 7.741953,6.176467 11.579576,3.742718 0.898668,-0.569918 1.900506,-1.443043 2.226307,-1.940277 0.3258,-0.497234 0.715327,-0.904062 0.865616,-0.904062 0.150288,0 0.886093,0.561371 1.635121,1.247491 3.251453,2.978377 6.99716,3.910968 11.475105,2.857026 z m 180.53405,-2.48276 c 1.38419,-1.630394 2.75074,-3.054162 3.03678,-3.163928 0.97162,-0.372847 0.52491,-0.898506 -1.19849,-1.410303 -2.20296,-0.654208 -7.47298,-1.731895 -7.64211,-1.562764 -0.1001,0.100102 1.32463,5.049298 2.49308,8.660376 0.27063,0.836386 0.80253,0.430984 3.31074,-2.523381 z m -7.58799,-1.850207 c -0.5278,-1.717617 -1.01327,-3.188112 -1.07883,-3.267767 -0.1688,-0.20507 -1.53628,1.076212 -1.92619,1.804761 -0.25802,0.482112 0.0922,1.055076 1.67546,2.741482 1.10092,1.172593 2.06635,2.067294 2.14542,1.988225 0.0791,-0.07907 -0.28807,-1.549085 -0.81586,-3.266701 z m 10.69205,-6.033356 c -0.10028,-0.339548 -0.62685,-2.165173 -1.17017,-4.056944 -0.54332,-1.89177 -1.09834,-3.439583 -1.23339,-3.439583 -0.13505,0 -0.72329,0.544119 -1.3072,1.209154 -0.5839,0.665034 -1.15597,1.141284 -1.27126,1.058333 -0.11529,-0.08295 -0.13602,-0.05077 -0.0461,0.07152 0.0899,0.122288 -0.54505,1.032374 -1.41111,2.022412 -0.86607,0.990039 -1.57466,1.906963 -1.57466,2.037609 0,0.130646 0.78055,0.344892 1.73456,0.476103 0.95402,0.13121 2.50183,0.449411 3.43959,0.707114 2.454,0.674378 3.05879,0.656121 2.83971,-0.08572 z m 6.71461,-2.567296 c 1.60073,-1.707249 2.91042,-3.258114 2.91042,-3.446367 0,-0.375702 0.0222,-0.368952 -5.29167,-1.610646 -2.03729,-0.476057 -3.75497,-0.816148 -3.81707,-0.755757 -0.1145,0.111357 0.79151,3.136911 1.902,6.351594 0.33513,0.970139 0.66001,1.962327 0.72196,2.204861 0.19166,0.750394 0.57206,0.458404 3.57436,-2.743685 z m -25.66458,0.538824 c 0,-0.09701 -0.0794,-0.176388 -0.17639,-0.176388 -0.097,0 -0.17639,0.07938 -0.17639,0.176388 0,0.09701 0.0794,0.176389 0.17639,0.176389 0.097,0 0.17639,-0.07937 0.17639,-0.176389 z m 31.99705,-7.367636 c 0.15516,-0.268658 1.4371,-1.724959 2.84874,-3.236224 1.41165,-1.511265 2.51103,-2.91456 2.44307,-3.118434 -0.12664,-0.379929 -0.29512,-0.429359 -4.83331,-1.418058 -1.45521,-0.317035 -2.92364,-0.662411 -3.26319,-0.767504 -0.43126,-0.133475 -0.61794,0.0022 -0.61926,0.450057 -0.003,0.885316 2.58967,8.560075 2.89478,8.57033 0.13588,0.0046 0.37401,-0.211508 0.52917,-0.480167 z m -4.2243,-0.481668 c -0.0984,-0.339549 -0.61497,-2.125486 -1.14784,-3.96875 -0.53286,-1.843264 -1.01207,-3.403143 -1.0649,-3.466397 -0.15674,-0.187682 -5.43064,5.623358 -5.44349,5.997918 -0.007,0.189986 6.3015,1.882541 7.52948,2.020293 0.16815,0.01886 0.22519,-0.243516 0.12675,-0.583064 z m -19.30609,-0.970139 c 0,-0.09701 -0.0794,-0.176389 -0.17638,-0.176389 -0.097,0 -0.17639,0.07937 -0.17639,0.176389 0,0.09701 0.0794,0.176389 0.17639,0.176389 0.097,0 0.17638,-0.07937 0.17638,-0.176389 z m 28.82946,-9.084027 c -0.4665,-2.05058 -2.2216,-7.316961 -2.43899,-7.318457 -0.13434,-9.25e-4 -0.99279,0.865351 -1.90768,1.925057 -0.91488,1.059706 -1.83684,1.828004 -2.0488,1.707329 -0.21196,-0.120675 -0.26352,-0.08533 -0.11459,0.07854 0.14893,0.163871 -0.23709,0.821945 -0.85783,1.462386 -0.62074,0.64044 -1.06009,1.227447 -0.97634,1.304459 0.31803,0.292437 6.20269,1.581668 7.33715,1.607448 1.05522,0.02398 1.16752,-0.06152 1.00708,-0.766762 z m 6.93739,-2.752187 c 1.67129,-1.756237 3.03871,-3.347666 3.03871,-3.536509 0,-0.188842 -0.40871,-0.498739 -0.90823,-0.688659 -1.44789,-0.550485 -8.41758,-1.72821 -8.66594,-1.464354 -0.26028,0.276512 2.89501,8.882681 3.25666,8.882681 0.13205,0 1.60751,-1.436921 3.2788,-3.193159 z m -27.30018,0.547326 c 0,-0.09701 -0.0794,-0.176389 -0.17639,-0.176389 -0.097,0 -0.17639,0.07937 -0.17639,0.176389 0,0.09701 0.0794,0.176389 0.17639,0.176389 0.097,0 0.17639,-0.07938 0.17639,-0.176389 z m 29.63333,-7.901626 c 0,-0.45425 -2.1843,-6.508302 -2.46724,-6.838239 -0.13016,-0.151788 -1.39584,1.030976 -2.81263,2.628363 -2.9395,3.314212 -3.03838,3.068219 1.5757,3.919792 3.58494,0.661632 3.70417,0.67097 3.70417,0.290084 z m 10.77576,-1.25456 c 1.02852,-1.028524 1.13557,-2.612637 0.24855,-3.677874 -0.48941,-0.587733 -1.43955,-0.864303 -4.5843,-1.334419 -2.18181,-0.326164 -4.04842,-0.511537 -4.14802,-0.411939 -0.0996,0.0996 0.37584,1.386469 1.05652,2.859715 0.68068,1.473245 1.2376,2.847782 1.2376,3.054527 0,0.232801 1.01332,0.375899 2.66187,0.375899 2.35581,0 2.76143,-0.09956 3.52778,-0.865909 z M 143.596,-68.412743 c 3.78355,-0.957109 9.3398,-2.386619 12.34723,-3.176689 9.97907,-2.621561 12.87359,-3.014831 22.04861,-2.995688 7.75197,0.01618 8.35779,0.06787 13.58194,1.158866 3.00743,0.628066 7.21431,1.607109 9.34861,2.175652 11.75498,3.131326 18.64489,4.217057 26.81111,4.224969 8.7121,0.0084 13.63431,-0.993338 19.27816,-3.923534 13.22783,-6.86767 18.69932,-19.468338 14.94116,-34.408993 -2.34337,-9.31611 -7.42321,-14.79662 -16.40404,-17.69789 -6.18294,-1.99741 -20.81427,-4.94743 -30.86806,-6.22373 -13.22603,-1.679 -31.89822,-2.36875 -44.09721,-1.62895 -14.66379,0.88928 -29.25612,3.39691 -41.45139,7.12324 -3.7132,1.13459 -8.56644,3.67223 -10.62991,5.55813 -3.81091,3.48296 -6.58695,11.21664 -7.20048,20.059586 l -0.24964,3.598161 1.01432,0.223607 c 3.96234,0.873498 7.54464,2.803216 10.83964,5.839116 4.09438,3.772415 6.57555,9.129365 6.76439,14.604604 l 0.0971,2.81643 2.02658,1.122162 c 1.11461,0.617189 2.5164,1.611983 3.11507,2.210653 0.59867,0.59867 1.25029,1.086692 1.44805,1.084494 0.19776,-0.0022 3.45519,-0.787087 7.23873,-1.744196 z m 68.33362,-4.112866 c -0.93103,-0.286138 -1.7811,-0.750419 -1.88905,-1.031736 -0.10795,-0.281317 -0.32352,-0.432844 -0.47904,-0.336727 -0.43514,0.26893 -3.35064,-3.147184 -4.13287,-4.842519 -2.95397,-6.402123 -1.95205,-15.745104 2.17881,-20.317467 2.58835,-2.864992 6.61625,-3.951672 10.57416,-2.852782 1.76854,0.49102 5.2763,3.794345 6.41717,6.043173 3.49273,6.884699 2.02656,16.279246 -3.28642,21.057826 -2.98792,2.687381 -5.81919,3.375446 -9.38276,2.280232 z m 4.88381,-6.999293 c 0.47625,-0.47625 0.8659,-1.119134 0.8659,-1.42863 0,-1.054573 -1.03156,-2.561143 -1.90347,-2.77998 -0.95694,-0.240176 -2.4701,0.211891 -2.86885,0.857089 -0.17618,0.285053 -0.3265,0.296124 -0.48733,0.03589 -0.12791,-0.20697 -0.26302,0.323178 -0.30022,1.178107 -0.0565,1.299215 0.0836,1.673363 0.85341,2.278923 1.25024,0.983438 2.77173,0.92742 3.84056,-0.141401 z m -5.14495,-12.708986 c 1.52592,-0.789082 2.48468,-2.212804 2.47186,-3.670596 -0.0341,-3.87874 -4.93717,-3.983424 -6.56386,-0.140144 -0.67365,1.591603 -0.59844,2.803788 0.22508,3.627302 0.83704,0.837041 2.45461,0.913774 3.86692,0.183438 z m 1.77752,-0.359826 c 0,-0.09701 -0.0794,-0.176389 -0.17639,-0.176389 -0.097,0 -0.17639,0.07937 -0.17639,0.176389 0,0.09701 0.0794,0.176388 0.17639,0.176388 0.097,0 0.17639,-0.07938 0.17639,-0.176388 z m -71.08472,19.525273 c -1.69864,-0.876655 -3.76489,-2.784272 -5.11091,-4.718515 -2.7304,-3.923619 -3.18004,-11.536124 -1.02207,-17.303812 2.68618,-7.179452 10.27755,-9.523162 15.53508,-4.796191 4.82369,4.336907 6.3368,13.870668 3.24207,20.427491 -0.76182,1.614055 -3.01378,4.256753 -4.83378,5.672481 -2.04828,1.5933 -5.50011,1.910864 -7.81039,0.718546 z m 3.89659,-7.162017 c 1.81949,-1.819489 0.35915,-4.755007 -2.12713,-4.275877 -1.78697,0.344364 -2.9425,2.587035 -2.02864,3.937214 0.91969,1.358787 2.96867,1.525764 4.15577,0.338663 z m -13.2452,-30.178532 c -0.47657,-0.47658 -0.70555,-1.17593 -0.70555,-2.15492 0,-1.27196 0.2051,-1.6429 1.67569,-3.03053 0.92163,-0.86965 2.54882,-2.00337 3.61597,-2.51939 1.7442,-0.8434 2.33245,-0.93746 5.82084,-0.93071 3.37669,0.007 4.08285,0.11441 5.43855,0.83086 3.36571,1.77869 4.90292,4.68015 3.26492,6.16251 -0.85024,0.76946 -1.74955,0.73653 -4.39308,-0.16084 -3.37376,-1.14525 -6.52888,-0.80558 -9.94812,1.07101 -2.95179,1.62003 -3.75752,1.7437 -4.76922,0.73201 z m 92.64044,-0.3658 c -3.11055,-1.97265 -7.46039,-2.6174 -10.26683,-1.52179 -3.49538,1.36458 -5.11528,0.83735 -5.11528,-1.66488 0,-1.13675 0.23525,-1.53353 1.64495,-2.77439 2.1866,-1.92473 4.60729,-2.62447 8.37699,-2.4215 2.13834,0.11514 3.4076,0.4031 5.05931,1.14782 1.21267,0.54676 2.20486,1.13119 2.20486,1.29872 0,0.16753 0.20843,0.3046 0.46317,0.3046 0.64438,0 2.23802,1.73874 2.68996,2.9349 0.72981,1.93156 -0.46764,3.76788 -2.457,3.76788 -0.50092,0 -1.67098,-0.48212 -2.60013,-1.07136 z m 94.50816,24.141822 c 2.92796,-0.713042 8.97296,-2.9463 10.12643,-3.741101 1.42165,-0.979594 1.40015,-1.014834 -4.3056,-7.056874 -1.4552,-1.540978 -3.55864,-3.447567 -4.6743,-4.236857 -1.11566,-0.7893 -2.02847,-1.57083 -2.02847,-1.73675 0,-0.16591 -0.18682,-0.30166 -0.41516,-0.30166 -0.36156,0 -4.04297,-2.31106 -4.52373,-2.83984 -0.17281,-0.19008 -3.19803,-1.65669 -5.64445,-2.7364 -1.58367,-0.69895 -6.98359,-2.1568 -8.0477,-2.17269 -0.81047,-0.0121 -0.81492,0.0124 -0.68752,3.78018 0.11223,3.31888 0.62862,5.78975 1.34551,6.43819 0.3239,0.29297 1.57223,2.467799 3.34109,5.820834 2.31039,4.379543 4.57069,7.734987 5.72453,8.498153 1.90011,1.256759 5.38227,1.35807 9.78937,0.284815 z M 303.9309,-122.57982 c 4.29874,-4.02977 10.14138,-8.60232 16.26191,-12.72685 2.20348,-1.48489 6.78449,-3.56496 8.94125,-4.0599 1.37042,-0.31449 2.49249,0.12048 2.49249,0.96621 0,0.88302 -2.28999,4.40712 -3.76875,5.79977 -0.74059,0.69747 -1.98153,1.64887 -2.75764,2.11423 -2.13381,1.27944 -11.22616,5.6804 -14.81667,7.17171 -1.74625,0.7253 -3.73062,1.60534 -4.40972,1.95565 -3.10849,1.60349 -4.98599,2.76318 -4.71045,2.90954 0.57028,0.30291 8.82344,-0.73143 14.43262,-1.80879 8.62231,-1.6561 10.49223,-2.26667 13.8452,-4.52078 3.36398,-2.26151 4.98558,-3.99439 6.47065,-6.9147 1.34487,-2.64459 1.60782,-4.84336 0.87904,-7.35028 -0.47229,-1.62463 -1.04093,-2.42892 -3.48174,-4.92468 -4.95183,-5.06329 -10.22774,-8.83925 -13.00647,-9.30872 -1.02733,-0.17356 -2.1017,-0.0157 -3.95117,0.58042 -1.3971,0.45035 -2.61955,0.90219 -2.71657,1.0041 -0.097,0.10191 -1.07299,0.78877 -2.16884,1.52636 -1.73988,1.17107 -9.10806,8.36032 -8.5684,8.36032 0.11108,0 -0.11822,0.44965 -0.50955,0.99921 -0.39133,0.54957 -1.4852,2.33551 -2.43084,3.96875 -0.94563,1.63325 -1.94595,3.36028 -2.22293,3.83784 -0.27698,0.47757 -0.6905,1.07269 -0.91894,1.32248 -0.47397,0.51829 -0.40212,1.317 0.56295,6.25841 0.38082,1.94989 0.79952,4.25963 0.93045,5.13275 0.2921,1.94797 0.42992,2.19891 1.01952,1.85645 0.25467,-0.14792 2.32584,-2.0152 4.6026,-4.1495 z"
       id="path129" /></g></svg>
