<?xml version="1.0" encoding="UTF-8" standalone="no"?>
<!-- Created with Inkscape (http://www.inkscape.org/) -->

<svg
   width="256.72656mm"
   height="292.91595mm"
   viewBox="0 0 256.72658 292.91591"
   version="1.1"
   id="svg1"
   xml:space="preserve"
   xmlns="http://www.w3.org/2000/svg"
   xmlns:svg="http://www.w3.org/2000/svg"><defs
     id="defs1"><clipPath
       clipPathUnits="userSpaceOnUse"
       id="clipPath6"><path
         id="path7"
         style="fill:#ff0000;fill-opacity:1;fill-rule:nonzero;stroke:none;stroke-width:0.264583"
         d="M -175.07778,-16.057127 V 287.55793 H 124.54631 V -16.057127 Z m 132.7459,202.572647 c 0.210643,0.005 0.427212,0.0169 0.650089,0.0367 2.23823,0.19855 4.475655,0.4031 6.717938,0.55346 1.973313,0.11308 0.986628,0.0436 2.958475,0.20825 3.181295,0.26563 4.740125,1.85116 4.950601,3.46956 4.949923,1.63749 3.796379,7.35609 -2.592089,6.81354 -3.228716,-0.27422 -1.569593,-0.1301 -4.979024,-0.43357 -4.228209,-0.39317 -8.460616,-0.76265 -12.666927,-1.35341 -6.647387,-0.93358 -5.930551,-7.21034 0.03204,-7.20421 0.04685,5e-5 0.0972,0.004 0.144695,0.005 0.687229,-1.21692 2.304132,-2.15435 4.784204,-2.09548 z" /></clipPath><clipPath
       clipPathUnits="userSpaceOnUse"
       id="clipPath76"><path
         id="path77"
         style="fill:#ff0000;fill-opacity:1;fill-rule:nonzero;stroke:none;stroke-width:0.264583"
         d="M -133.83107,-122.52355 V 173.82063 H 122.97289 V -122.52355 Z M 13.574404,98.948202 c 2.788179,0.0507 4.135003,2.063798 3.398242,4.077268 0.199805,0.45372 0.374906,0.96736 0.517797,1.54461 1.07913,4.35948 0.671079,8.891 0.311608,13.31495 -0.351859,3.06036 -0.147137,1.57974 -0.604097,4.44366 -0.359666,2.25418 -1.333846,3.66838 -2.455664,4.32532 0.105138,0.36595 0.224724,0.72888 0.324528,1.09554 0.6273,2.23652 0.575201,4.47401 0.39429,6.75514 -0.137303,1.73129 -0.688065,2.99533 -1.427303,3.82199 -0.112477,0.41601 -0.170275,0.80219 -0.311092,1.25212 -0.184975,0.59102 -0.413327,1.1061 -0.670242,1.55856 0.741137,-0.23134 1.446982,-0.38145 2.064991,-0.37517 4.085002,0.0415 5.222724,4.75435 -0.02223,7.27138 -4.46677,2.14368 -9.303523,3.34693 -14.11903492,4.40955 -4.40876268,0.85156 -8.89238128,1.33053 -13.38264308,1.19269 -5.804014,-0.17807 -6.736297,-5.00293 -3.065447,-6.67298 -2.072987,-0.65744 -4.042852,-1.62261 -4.128947,-3.14709 -0.02802,-0.49633 0.0026,-0.90355 0.0341,-1.30897 -1.976731,-0.003 -3.95339,2.4e-4 -5.930386,0.003 -0.814031,0 -1.53062,-0.0962 -2.159559,-0.26149 -0.376306,0.19492 -0.742394,0.40783 -1.120862,0.59893 -6.391272,3.22657 -9.625245,-3.24074 -3.234428,-6.46886 1.833438,-0.92611 3.62694,-1.92211 5.414142,-2.92954 -0.877003,-3.87058 -1.368747,-7.83436 -1.323951,-11.80858 0.01651,-1.46304 0.376836,-2.54918 0.864547,-3.41426 -1.247357,-1.79999 -0.223805,-4.63069 3.842661,-5.68855 3.11826,-0.81116 6.282901,-1.39515 9.473837,-1.82211 -1.259816,-0.12657 -2.516182,-0.30233 -3.764627,-0.50177 -1.477002,-0.21985 -2.935575,-0.54305 -4.407482,-0.7891 -1.14214,-0.22954 -0.588502,-0.12004 -1.660882,-0.3297 -3.350244,-0.65501 -4.783278,-2.61088 -4.608504,-4.32997 -0.200179,-1.7721 1.333365,-3.52972 4.663799,-3.59461 v -5.3e-4 c 0.20954,-0.004 0.426035,-0.002 0.649571,0.008 1.77111,0.0772 3.528708,0.28204 5.26428,0.64027 1.655035,0.33225 3.314115,0.6481 4.955251,1.04439 1.244759,0.34858 2.51628,0.54538 3.7997689,0.6723 0.025956,0.002 0.052073,0.002 0.078034,0.004 0.4990888,-0.0371 0.9984105,-0.0743 1.4965495,-0.11317 1.346872,-0.12588 2.6913231,-0.25136 4.0457464,-0.24236 1.1278499,-0.0444 2.2567291,-0.10772 3.37498791,-0.26872 0.75719517,-0.11591 1.51142439,-0.25483 2.25722659,-0.4284 0.3616431,-0.12394 0.7240561,-0.24538 1.083138,-0.37775 0.3360393,-0.12388 0.6107589,-0.12825 0.9250071,-0.20723 0.1281086,-0.045 0.2583895,-0.0825 0.3855085,-0.13074 1.9825018,-0.7681 3.9540551,-1.56464 5.9510551,-2.29443 1.050809,-0.383992 1.999634,-0.542639 2.826703,-0.527616 z M 0.70283723,110.39557 c -0.45566013,0.0949 -0.90775367,0.208 -1.36890919,0.2744 -1.16638124,0.15534 -2.34111274,0.24237 -3.51761424,0.26251 0.4031694,0.0896 0.8047355,0.18876 1.2025101,0.308 0.1014836,0.0304 0.1982549,0.075 0.2986907,0.10852 0.4205235,-0.21824 0.9206601,-0.35072 1.4898318,-0.37156 0.39885139,-0.0146 0.83259872,0.0278 1.29449508,0.13023 0.22468681,-0.12213 0.44967525,-0.24374 0.67437529,-0.36587 -0.0326284,-0.11319 -0.058211,-0.22834 -0.0733795,-0.34623 z m 10.24433577,1.02474 c -0.76023,0.21437 -1.5189569,0.4343 -2.2696301,0.68006 -0.031261,0.62207 -0.2256075,1.28373 -0.6464723,1.94355 0.6236891,0.43248 1.2549743,1.04482 1.8634525,1.86862 0.2674939,0.36214 0.4748849,0.75712 0.7188199,1.13223 0.154519,-1.86707 0.314174,-3.74736 0.33383,-5.62446 z m 64.566086,3.39773 c 1.50346,0.0187 3.129182,1.24994 3.928441,4.04678 0.257931,0.90255 0.823497,1.65871 1.488797,2.30735 0.856321,0.95375 1.845738,1.76777 2.801898,2.61638 1.458581,1.46408 2.789203,3.04608 4.169772,4.58215 1.315059,1.44746 2.571226,2.91698 3.543967,4.61884 0.0053,0.01 0.0082,0.0206 0.01344,0.0305 0.734605,-0.43313 1.446276,-0.65634 2.094962,-0.69195 3.016182,-0.16561 4.69137,3.55377 1.187525,7.32306 -1.69471,1.82311 -3.657862,3.33908 -5.68751,4.7651 -0.777873,0.49914 -1.607691,0.90075 -2.418456,1.33842 0.165478,1.44344 -0.672182,3.24303 -2.956409,4.73096 -1.354556,0.88234 -2.690448,1.79306 -4.075203,2.6288 -2.075008,1.20078 -4.233777,2.27962 -6.540687,2.96259 -2.077586,0.62971 -4.169056,1.29987 -6.359301,1.36374 -1.872114,0.0897 -3.746989,0.0368 -5.620845,0.0501 h -5.1108 -5.524728 c -7.160125,0 -7.160125,-7.23315 0,-7.23315 h 1.347722 c 0.29438,-0.0541 0.5212,-0.1588 0.84801,-0.18656 1.106628,-0.094 2.200932,-0.28334 3.292822,-0.48421 0.456121,-0.98163 1.356053,-1.98213 2.807581,-2.83962 1.078018,-0.63685 2.158119,-1.26923 3.212209,-1.94561 1.962647,-1.29302 3.840588,-2.72135 5.893696,-3.86902 1.367169,-0.76424 2.559646,-1.07097 3.526915,-1.04128 2.216811,0.068 3.246223,1.90266 2.479953,4.04059 1.105688,-0.48686 2.206929,-0.98346 3.283003,-1.53739 2.619811,-1.23728 5.288743,-2.38548 7.764385,-3.9026 0.246153,-0.17184 0.487463,-0.34958 0.730705,-0.52503 -0.126915,-0.50614 -0.277693,-0.9939 -0.512114,-1.46554 -0.647621,-1.25778 -1.721077,-2.20654 -2.600875,-3.29644 -1.199229,-1.33472 -2.369312,-2.69496 -3.592029,-4.00803 -1.098706,-0.97599 -2.227236,-1.92181 -3.215306,-3.01428 -1.300821,-1.39063 -2.459913,-2.93896 -3.045293,-4.77801 -1.289469,-4.05101 0.646382,-6.61405 2.843754,-6.58667 z m -95.086705,4.28035 c -0.465643,0.10748 -0.930899,0.21773 -1.394745,0.33435 0.171958,0.64334 0.283575,1.36624 0.279569,2.2071 -0.01267,2.6582 0.205063,5.32647 0.670242,7.94732 0.280107,-0.17087 0.565767,-0.33222 0.845429,-0.50385 -0.01897,-0.36223 -0.02445,-0.73164 -0.05529,-1.08985 -0.118034,-2.96491 -0.160888,-5.93314 -0.3452,-8.89507 z m 18.5141159,1.1958 c 0.00497,0.0773 0.00619,0.15612 0.014975,0.23202 -0.1238779,0.22787 -0.2588048,0.44752 -0.3937741,0.66715 0.58900751,0.0447 1.13203305,0.21413 1.64331124,0.45888 -0.37615284,-0.49255 -0.78353709,-0.94642 -1.26452314,-1.35805 z m -6.5422357,14.57068 c -0.046649,0.0755 -0.09888,0.14702 -0.1436608,0.22376 -0.03147,0.054 0.1963367,0.0838 0.1860365,0.0222 -0.017595,-0.10481 -0.026035,-0.14905 -0.042376,-0.24597 z m 13.9236979,6.08439 c -0.2236258,0.5643 -0.5677508,1.09664 -1.1782213,1.50533 0.9079653,0.17659 1.7077452,0.44257 2.2830631,0.84852 0.1405493,-0.0459 0.272804,-0.11448 0.4128956,-0.16174 -0.7336976,-0.43656 -1.2984269,-1.18703 -1.5177374,-2.19211 z" /></clipPath><clipPath
       clipPathUnits="userSpaceOnUse"
       id="clipPath127"><path
         id="path128"
         style="fill:#ff0000;fill-opacity:1;fill-rule:nonzero;stroke:none;stroke-width:0.264583"
         d="M -112.24796,-126.55676 V 185.58027 H 148.5754 V -126.55676 Z M 46.874626,83.305366 c 1.808208,0 3.616317,1.790192 3.616317,5.370214 v 5.232238 c 0.0627,2.146078 -0.111291,4.285324 -0.245462,6.424932 -0.136289,2.02485 -0.190703,4.04985 -0.104904,6.07715 0.192061,1.91863 0.527714,3.82569 0.876432,5.72213 0.304242,2.00862 0.765826,3.9858 1.180806,5.97276 0.41642,1.86142 0.967934,3.68703 1.421104,5.53972 0.25287,0.86996 0.117097,0.46495 0.396356,1.22008 0.186108,0.50319 0.223428,0.93098 0.309544,1.38441 4.425355,2.23251 2.751262,7.58433 -3.415813,6.40477 -3.104732,-0.59371 -6.256094,-0.76586 -9.40821,-0.85576 -3.81635,0.009 -7.630525,0.17062 -11.44478,0.28216 -1.12776,0.0333 -2.255837,0.0512 -3.383772,0.0754 -0.908129,0.5548 -1.966518,0.57724 -2.88613,0.0641 -0.03584,5.3e-4 -0.07165,0.002 -0.107487,0.003 -0.03142,5.3e-4 -0.0525,-0.009 -0.08268,-0.009 -0.32049,0.14732 -0.641715,0.29301 -0.962215,0.44028 -0.262501,0.12062 -0.518089,0.22111 -0.770496,0.31265 -0.876996,0.71434 -1.945576,0.85817 -2.911967,0.46405 -2.943479,-0.21613 -4.295167,-2.77187 -2.550232,-5.0524 -2.22e-4,-0.028 -0.0078,-0.0483 -0.0078,-0.0765 v -6.3469 c -0.014,-2.72977 -0.02254,-5.45666 0.112657,-8.18348 0.135676,-2.32533 0.233519,-4.6523 0.299723,-6.98046 0.046,-1.80459 0.06926,-3.60958 0.08527,-5.41465 -0.0258,-1.02998 0.04009,-2.054459 0.138491,-3.078883 0.0044,-0.04602 0.02191,-0.07504 0.02687,-0.120406 C 15.992671,97.193438 15.83363,95.70984 16.656834,94.418959 10.68718,93.678613 10.992573,87.32947 17.739972,87.32947 h 3.885033 5.177462 5.913334 c 1.498505,0.05847 2.984222,-0.03228 4.475178,-0.161748 1.252041,-0.18606 2.49041,-0.398671 3.697968,-0.782897 1.001961,-0.32245 0.492366,-0.161472 1.527553,-0.482142 0.510384,-0.158096 0.938446,-0.174371 1.394749,-0.23771 0.672338,-1.56932 1.86623,-2.35903 3.063377,-2.35903 z" /></clipPath></defs><g
     id="layer1"
     transform="translate(47.110713,157.01745)"><path
       style="fill:#000000"
       d="m 41.285234,135.55084 c -8.76363,-2.02094 -14.00255,-8.0442 -17.17501,-19.74636 -0.68331,-2.52053 -0.80401,-3.83569 -0.80625,-8.78513 -0.002,-5.31814 0.59054,-10.637911 1.42935,-12.823831 0.36431,-0.94936 -0.35166,-0.67634 -2.63567,1.00505 -1.18551,0.87272 -2.15547,1.48343 -2.15547,1.35713 0,-0.1263 -0.27781,0.0818 -0.61736,0.46233 -0.75279,0.84376 -11.6772998,8.190491 -13.7442798,9.243021 -0.81689,0.41596 -2.11246,0.7563 -2.87906,0.7563 -1.88861005,0 -2.76986005,-1.09814 -5.56495,-6.9346 -3.06774,-6.405791 -4.35824,-9.776546 -4.35824,-11.383627 0,-1.208922 0.22743,-1.574382 1.97187,-3.168705 4.01853,-3.672707 9.51905,-6.200676 16.6204498,-7.638548 2.45558,-0.4972 4.99187,-1.124266 5.63619,-1.39348 0.64432,-0.269213 1.17149,-0.406866 1.17149,-0.305893 0,0.100972 0.25092,-0.06734 0.55761,-0.374021 0.30668,-0.306684 0.70356,-0.467405 0.88194,-0.357157 0.17839,0.110249 0.32434,0.06651 0.32434,-0.09719 0,-0.163703 1.66687,-1.37918 3.70416,-2.701061 2.0373,-1.321881 3.70417,-2.522576 3.70417,-2.668211 0,-0.145636 -0.64282,-0.554663 -1.42849,-0.908951 -0.78567,-0.354287 -1.89091,-1.170829 -2.45609,-1.814538 l -1.02761,-1.17038 -4.33488,2.131244 c -2.38418,1.172184 -4.38779,2.282116 -4.45246,2.466516 -0.0647,0.1844 -0.26976,0.335272 -0.45573,0.335272 -0.18597,0 -0.65897,0.298907 -1.0511,0.664237 -1.34564,1.253648 -4.4423398,1.981596 -8.4297498,1.981596 -3.43386005,0 -3.87769005,-0.0822 -6.08215,-1.126466 -9.3676492,-4.437509 -11.2716692,-17.385246 -3.67175,-24.968641 1.94607,-1.941835 5.74559995,-4.06739 7.27066,-4.06739 0.51251,0 1.95559,-0.665931 3.20685,-1.479847 1.95274,-1.270223 13.2785498,-6.823341 20.3548598,-9.980126 1.21268,-0.540981 2.20364,-1.080985 2.20215,-1.200009 -0.001,-0.119023 -0.67619,-0.596398 -1.49931,-1.060833 -4.32,-2.437491 -12.29866,-8.228204 -15.22962,-11.053277 -0.9610498,-0.926332 -1.8456898,-1.68424 -1.9658698,-1.68424 -0.39887,0 -7.24732,-7.1900983 -9.32441,-9.7895823 -1.12401,-1.406701 -2.16376,-2.557639 -2.31054,-2.557639 -0.14679,0 -0.36858,0.595313 -0.49287,1.322917 -0.76125,4.4564743 -1.30194,9.0014323 -1.59058,13.3702463 -0.18139,2.745477 -0.50142,5.31245 -0.71118,5.704386 -0.91402,1.707857 -4.0884702,1.804813 -12.3746572,0.377952 -8.134058,-1.400665 -7.923859,-1.187169 -7.829399,-7.952243 0.06273,-4.492353 0.733897,-10.4611163 1.48161,-13.1760363 0.187029,-0.679097 0.340938,-1.361195 0.342021,-1.515774 0.0025,-0.3549057 -1.73581,0.891188 -1.750836,1.255083 -0.01555,0.376478 -4.78134,6.6764283 -5.52126,7.2986083 -0.334581,0.28134 -1.136037,0.511527 -1.781015,0.511527 -1.559654,0 -2.569696,-1.001127 -8.620957,-8.5448753 -5.88114,-7.3316666 -5.891302,-7.3674331 -3.184723,-11.2082696 6.419224,-9.1093551 15.637434,-16.6207351 24.212147,-19.7290611 0.970138,-0.351674 1.891242,-0.74846 2.046897,-0.881747 0.155655,-0.133286 -0.127834,-2.28986 -0.629975,-4.792385 -2.395097,-11.93647 -2.559234,-23.606017 -0.512541,-36.439886 0.383579,-2.405246 0.618756,-4.451835 0.522616,-4.547975 -0.09614,-0.09614 -1.17092,0.04245 -2.388399,0.307974 -3.233779,0.705271 -7.901314,0.628476 -9.506476,-0.15641 -1.998929,-0.977428 -2.586487,-2.517044 -2.576985,-6.752635 0.0092,-4.09641 0.802884,-7.13798 3.030694,-11.614118 0.765012,-1.537071 1.26741,-2.906956 1.116439,-3.044189 -0.150971,-0.137233 -0.847891,-0.432521 -1.548712,-0.656196 -2.706673,-0.863865 -8.641504,-5.043566 -8.192658,-5.769816 0.130207,-0.21068 0.05729,-0.26269 -0.170727,-0.12177 -0.505596,0.31248 -3.727537,-4.00294 -4.52268,-6.0576 -0.816055,-2.1087 -0.283986,-3.69945 1.982682,-5.9277 3.181005,-3.12709 8.576266,-5.74465 13.107358,-6.35916 2.347704,-0.31839 2.477124,-0.45454 1.989396,-2.09285 -0.583526,-1.96011 -0.560501,-9.7834 0.03563,-12.10526 1.044123,-4.06677 3.662416,-5.37655 9.355732,-4.68014 5.250799,0.64228 9.5312802,2.50571 12.5492202,5.46307 1.53661,1.50577 1.69302,1.5713 4.03341,1.68974 l 2.43481995,0.12322 0.94306005,-2.99861 c 1.14688,-3.64665 2.10806,-5.58422 3.99849,-8.06024 2.91772,-3.82155 5.6561098,-4.58921 8.8422798,-2.47878 1.76839,1.17133 4.26191,4.00636 5.56852,6.33115 0.43697,0.77748 0.98487,1.33219 1.22487,1.24009 0.23884,-0.0916 1.59601,-1.02291 3.01592,-2.06946 9.24379,-6.81313 22.91468,-12.58442 35.98439,-15.19113 8.25911,-1.64724 10.24436,-1.8211 20.57228,-1.80155 8.35441,0.0158 10.63946,0.13768 14.81666,0.7902 17.004044,2.6562 33.088034,9.2076 43.072164,17.54435 1.33989,1.11881 2.79978,2.40796 3.2442,2.86478 1.07411,1.10409 1.3578,1.0503 1.81821,-0.34475 0.62107,-1.88186 3.45511,-6.26308 5.24784,-8.11276 2.06977,-2.13552 3.14721,-2.70635 5.10825,-2.70635 4.02983,0 8.47069,6.26501 10.25604,14.46884 0.18129,0.83303 0.31709,0.88291 2.23565,0.82116 1.12346,-0.0362 2.12202,-0.0969 2.21904,-0.13493 0.097,-0.038 0.30725,-0.0464 0.46719,-0.0187 0.15994,0.0278 0.19945,-0.0973 0.0878,-0.27795 -0.34921,-0.56503 3.28419,-3.51117 5.92033,-4.80051 2.91129,-1.42392 6.69785,-2.29684 9.96324,-2.29684 4.27813,0 5.76187,1.31583 6.51437,5.77711 0.41915,2.485 0.27905,10.15576 -0.21504,11.77359 -0.19317,0.63253 -0.10424,0.79375 0.43785,0.79375 1.30993,0 6.30177,1.45792 8.53667,2.49323 2.91816,1.35183 6.35484,3.81388 7.59716,5.44266 2.03476,2.66771 1.36961,5.65999 -2.20559,9.92217 -1.88491,2.24709 -6.94072,5.921509 -7.73064,5.618392 -0.24506,-0.09404 -0.44557,-0.03647 -0.44557,0.127924 0,0.282472 -0.6532,0.602034 -2.91783,1.427478 l -0.97755,0.356312 1.20044,2.387163 c 2.17731,4.329761 3.1212,7.923907 3.17468,12.088551 0.0676,5.262753 -0.84348,6.755465 -4.54022,7.438843 -3.6164,0.668527 -8.53978,-0.12922 -13.30059,-2.155128 -1.37446,-0.584887 -2.53432,-1.020808 -2.57747,-0.968712 -0.0431,0.0521 0.37457,1.999719 0.92825,4.328052 4.59589,19.32671 3.21036,39.313504 -3.98622,57.502773 -2.78827,7.0473148 -8.9787,17.7528477 -12.40423,21.4514777 -0.68419,0.73873 -1.24085,1.424739 -1.23704,1.524464 0.0124,0.324369 -5.57,6.6111493 -7.41907,8.3552013 -1.05543,0.995481 -1.96941,1.593148 -2.20944,1.444798 -0.22948,-0.141828 -0.31488,-0.100104 -0.19433,0.09495 0.45145,0.730462 -7.53929,7.413655 -8.30115,6.942803 -0.22009,-0.136022 -0.27904,-0.07092 -0.13979,0.154377 0.20891,0.338034 -0.86548,1.236276 -1.23191,1.029934 -0.074,-0.04168 -0.0957,-0.01048 -0.0483,0.06933 0.25408,0.427151 -11.53264,7.492962 -12.00858,7.198812 -0.19559,-0.120877 -0.53761,0.02913 -0.76006,0.333352 -0.22245,0.30422 -1.81599,1.205254 -3.54118,2.002298 -1.7252,0.797044 -3.18222,1.494664 -3.23783,1.550267 -0.0556,0.0556 0.21581,0.935108 0.60313,1.954455 0.38732,1.019348 0.60988,2.006006 0.49457,2.192575 -0.1153,0.186569 -0.0788,0.305041 0.0812,0.263272 0.64581,-0.168655 2.95964,0.563489 6.62026,2.09479 2.57095,1.075473 3.90637,1.475629 3.99884,1.198244 0.0764,-0.229055 0.83039,-1.355903 1.67565,-2.504106 2.74864,-3.733762 7.25659,-6.479764 11.74056,-7.151725 3.89234,-0.583301 3.94021,-0.598312 3.72196,-1.167058 -0.11092,-0.289064 -0.0166,-0.52557 0.20967,-0.52557 0.22623,0 0.3252,-0.139366 0.21993,-0.309702 -0.10527,-0.170337 0.41465,-1.003774 1.15538,-1.852084 1.21852,-1.395484 1.35022,-1.740593 1.38283,-3.623564 0.0271,-1.564156 0.30777,-2.633136 1.12982,-4.302957 3.72931,-7.575315 14.64067,-9.874372 20.636,-4.348071 1.22539,1.129532 1.92794,1.474206 3.53946,1.736488 6.35485,1.034279 10.38747,7.55165 8.53277,13.79035 -0.25554,0.859539 -0.35018,1.949932 -0.21156,2.437317 0.58889,2.070499 0.31559,4.730848 -0.72468,7.054045 -0.79724,1.780459 -0.9236,2.348901 -0.56657,2.548707 0.55809,0.312325 1.89529,3.333613 2.54184,5.74308 1.19618,4.457733 0.2668,6.371126 -3.6897,7.596268 -2.6245,0.812683 -8.44688,1.00658 -10.64294,0.35443 -0.67782,-0.201287 -1.31282,-0.365878 -1.41111,-0.365759 -0.0983,1.2e-4 -0.19259,1.547932 -0.20954,3.439583 -0.0327,3.65018 -0.70439,6.664961 -2.00295,8.990053 -0.53309,0.954526 -1.17049,1.483388 -2.31424,1.920191 -1.48358,0.566587 -1.71465,0.56713 -3.84254,0.009 l -2.26403,-0.593809 -1.2991,0.889364 c -1.86657,1.277856 -4.74945,2.019977 -7.81085,2.0107 -1.46326,-0.0044 -2.88016,-0.06501 -3.14867,-0.134612 -0.36598,-0.09487 -0.73111,1.088552 -1.45845,4.726959 -0.53363,2.669431 -1.16682,5.090368 -1.40707,5.379861 -0.62311,0.750799 -2.92813,0.675724 -3.64716,-0.118788 -0.82803,-0.914968 -0.73457,-2.312104 0.52022,-7.776244 0.60723,-2.644281 1.17802,-5.224917 1.26842,-5.734747 l 0.16437,-0.926964 -6.64828,-0.194415 c -4.81825,-0.1409 -7.52226,-0.391725 -9.82329,-0.911214 -1.74625,-0.394239 -3.27111,-0.723056 -3.38857,-0.730704 -0.11746,-0.0076 -0.31292,1.050028 -0.43435,2.35039 -0.21762,2.330401 -0.19589,2.410889 1.51575,5.614323 5.75426,10.769442 9.57148,24.783586 9.54985,35.060266 -0.0162,7.69918 -1.66494,12.7354 -5.53916,16.91991 -1.26431,1.36558 -2.50257,2.48287 -2.75169,2.48287 -0.24912,0 -0.65375,0.24196 -0.89918,0.53769 -0.24544,0.29573 -0.5219,0.46204 -0.61436,0.36958 -0.0925,-0.0925 -0.39449,0.0583 -0.67116,0.33493 -1.13041,1.1304 -6.90724,1.96182 -10.43514,1.50185 -1.11449,-0.1453 -3.3325,-0.7679 -4.92891,-1.38354 -2.61853,-1.00981 -3.21799,-1.43319 -6.12611,-4.32673 -2.75564,-2.74183 -3.47876,-3.72086 -4.981774,-6.74484 -0.96702,-1.9456 -2.92629,-7.07862 -4.35393,-11.40671 l -2.59572,-7.86925 -1.07555,0.18109 c -0.59155,0.0996 -3.59119,0.37547 -6.66585,0.61305 -5.32953,0.41181 -13.27548,0.14787 -18.8912,-0.62751 -1.5001,-0.20712 -1.54413,-0.18636 -1.34302,0.63299 0.51017,2.07851 0.65446,8.82105 0.25972,12.13601 -0.4453,3.73955 -1.68973,8.00927 -2.93034,10.05417 -1.24808,2.0572 -2.81496,3.88055 -3.33472,3.88055 -0.27002,0 -0.39283,0.15875 -0.27292,0.35278 0.11992,0.19403 0.0288,0.35278 -0.20238,0.35278 -0.23123,0 -0.67716,0.29517 -0.99096,0.65594 -0.88721,1.02001 -4.07557,2.49699 -7.0108,3.2477 -2.81737,0.72056 -6.67167,0.84201 -9.08197,0.28618 z m 14.64028,-4.36621 c 0,-0.097 -0.0794,-0.17639 -0.17639,-0.17639 -0.097,0 -0.17639,0.0794 -0.17639,0.17639 0,0.097 0.0794,0.17639 0.17639,0.17639 0.097,0 0.17639,-0.0794 0.17639,-0.17639 z m 1.41111,0 c 0,-0.097 -0.0794,-0.17639 -0.17639,-0.17639 -0.097,0 -0.17639,0.0794 -0.17639,0.17639 0,0.097 0.0794,0.17639 0.17639,0.17639 0.097,0 0.17639,-0.0794 0.17639,-0.17639 z m -8.46667,-0.44569 c 0,-0.14811 -1.64555,-0.60608 -3.65678,-1.0177 -4.80538,-0.98347 -7.78842,-2.44068 -10.78709,-5.26948 -1.31937,-1.24463 -2.49629,-2.26297 -2.61536,-2.26297 -0.65395,0 3.60078,5.6088 4.27104,5.6303 0.24254,0.008 0.44097,0.1435 0.44097,0.30159 0,0.37778 2.16026,1.42103 4.58611,2.21476 1.95685,0.64028 7.76111,0.94204 7.76111,0.4035 z m 75.141656,-1.19151 c 2.1558,-0.9979 3.81498,-2.51192 5.33801,-4.87097 0.70345,-1.08959 0.90065,-1.68179 0.6451,-1.93733 -0.25554,-0.25555 -0.46271,-0.21487 -0.67774,0.13306 -0.50567,0.81819 -9.36044,0.9707 -13.04243,0.22463 -1.60124,-0.32445 -3.17451,-0.72719 -3.49617,-0.89498 -0.32165,-0.16778 -1.81655,-0.73223 -3.32199,-1.25432 -1.50544,-0.5221 -2.85482,-1.15539 -2.99861,-1.40732 -0.30769,-0.53907 -3.65074,-2.36997 -3.89018,-2.13054 -0.0902,0.0902 0.48906,1.48029 1.28736,3.08897 1.35467,2.72987 4.75616,7.26147 5.4886,7.31213 0.17875,0.0124 0.59863,0.27011 0.93307,0.57277 0.33443,0.30266 1.69631,0.9434 3.02638,1.42386 3.29905,1.1917 7.80904,1.08221 10.7086,-0.25996 z m -13.75833,0.22609 c 0,-0.097 -0.0794,-0.17639 -0.17639,-0.17639 -0.097,0 -0.17639,0.0794 -0.17639,0.17639 0,0.097 0.0794,0.17639 0.17639,0.17639 0.097,0 0.17639,-0.0794 0.17639,-0.17639 z m -52.971866,-4.50587 c 1.28087,-1.86168 2.26129,-4.13719 1.78254,-4.13719 -0.19433,0 -1.49592,0.27486 -2.89241,0.61079 -2.81763,0.67779 -12.721,0.86991 -16.73839,0.32471 -1.40072,-0.19009 -2.20486,-0.17386 -2.20486,0.0445 0,0.50682 4.44724,2.73088 6.80805,3.4047 2.82394,0.806 5.52886,1.16615 9.13819,1.21673 l 3.06986,0.043 z m 70.436956,-6.29927 c 3.64631,-0.54232 4.02663,-0.91887 4.1248,-4.08388 0.0434,-1.39799 -0.0281,-2.64872 -0.15878,-2.77941 -0.13069,-0.13069 -0.99771,0.24728 -1.92672,0.83993 -3.54596,2.26208 -8.90855,3.89558 -14.74189,4.49052 -2.78438,0.28397 -2.55527,0.49178 1.50275,1.36301 2.92499,0.62798 7.63888,0.69946 11.19984,0.16983 z m -75.434356,-0.68165 c 3.25238,-0.44113 7.58956,-1.65264 7.95762,-2.22282 0.14255,-0.22083 0.26162,-1.08315 0.26459,-1.91627 0.004,-1.24854 -0.10311,-1.49655 -0.61196,-1.41111 -0.33955,0.057 -0.69674,0.19189 -0.79375,0.29972 -0.49118,0.54599 -5.8303,2.11746 -8.43982,2.48411 -3.48973,0.49032 -8.79427,0.22721 -11.82269,-0.58643 -2.29789,-0.61736 -5.79112,-2.26861 -6.68026,-3.15774 -0.31113,-0.31113 -1.36129,-1.10109 -2.33368,-1.75547 l -1.76799,-1.18977 v 1.75688 c 0,1.46289 0.16233,1.90771 0.97014,2.65825 2.23032,2.07224 7.92003,4.14562 14.1993,5.17436 1.80754,0.29613 6.38781,0.22852 9.0585,-0.13371 z m 68.147156,-6.88564 c 5.94824,-1.49908 10.636,-4.00253 10.636,-5.68004 0,-0.50029 -0.64914,-3.44476 -1.44252,-6.543271 -2.00144,-7.816451 -4.99051,-15.727892 -7.41708,-19.631425 -1.16787,-1.878699 -1.17316,-1.879765 -3.93633,-0.792724 -3.57453,1.40623 -14.62819,3.680987 -22.834616,4.699189 -5.5549,0.689216 -24.25569,0.573131 -30.33889,-0.188328 -10.73342,-1.343547 -18.25905,-2.859266 -24.22626,-4.879356 -1.77979,-0.602516 -3.47554,-1.003557 -3.76833,-0.891203 -0.66062,0.253504 -4.36634,7.77101 -5.72533,11.614532 -0.98538,2.786875 -2.96897,11.159636 -2.96897,12.532076 0,1.51293 0.70749,2.33942 4.24808,4.96257 5.63132,4.17213 13.51235,5.5011 20.79914,3.50733 1.84327,-0.50434 4.12654,-1.2508 5.07395,-1.65881 l 1.72256,-0.74182 -0.17902,-2.50193 c -0.10483,-1.46522 -0.36464,-2.61666 -0.627,-2.7788 -0.2464,-0.15228 -1.36908,-0.45809 -2.49485,-0.67957 -1.17618,-0.2314 -2.76765,-0.88442 -3.74138,-1.53518 -1.52942,-1.022131 -1.70512,-1.278891 -1.80317,-2.635011 -0.0726,-1.00386 0.0464,-1.56202 0.35847,-1.68178 0.25691,-0.0986 1.81392,0.22537 3.46003,0.71991 8.31801,2.49897 20.41353,3.758161 29.36093,3.0566 6.67419,-0.52333 11.15409,-1.22511 15.21843,-2.38402 1.723516,-0.49144 3.350706,-0.81024 3.615966,-0.70845 0.67634,0.25953 0.60899,2.49958 -0.0964,3.20493 -1.02534,1.025341 -2.18493,1.646381 -3.909196,2.093651 -1.35375,0.35116 -1.66277,0.57026 -1.56908,1.11254 0.31503,1.82343 2.346216,7.43215 2.834256,7.82623 2.35556,1.90205 13.2403,2.22289 19.75057,0.58216 z m -86.730656,0.028 c 0,-0.097 -0.0794,-0.17639 -0.17639,-0.17639 -0.097,0 -0.17639,0.0794 -0.17639,0.17639 0,0.097 0.0794,0.17639 0.17639,0.17639 0.097,0 0.17639,-0.0794 0.17639,-0.17639 z m -5.64444,-3.175 c 0,-0.097 -0.0794,-0.17639 -0.17639,-0.17639 -0.097,0 -0.17639,0.0794 -0.17639,0.17639 0,0.097 0.0794,0.17639 0.17639,0.17639 0.097,0 0.17639,-0.0794 0.17639,-0.17639 z m 36.68888,-5.64444 c 0,-0.097 -0.0794,-0.17639 -0.17639,-0.17639 -0.097,0 -0.17639,0.0794 -0.17639,0.17639 0,0.097 0.0794,0.17639 0.17639,0.17639 0.097,0 0.17639,-0.0794 0.17639,-0.17639 z M 7.9663342,99.265789 c 6.9243598,-4.6254 11.1660498,-7.591615 13.3454198,-9.332459 1.19821,-0.957115 2.92481,-1.98899 3.83689,-2.293056 1.50068,-0.50029 1.72242,-0.720532 2.33252,-2.316735 0.80293,-2.100737 3.2981,-7.31171 4.85279,-10.134693 0.90663,-1.646267 1.03234,-2.11788 0.67821,-2.544573 -0.50387,-0.607129 -1.13925,-0.291949 -3.89776,1.933481 -2.17137,1.751754 -5.46342,3.892706 -7.58472,4.932652 -0.97014,0.4756 -1.84883,0.979773 -1.95264,1.120386 -0.42258,0.572362 -2.86947,1.329075 -6.00926,1.858388 -4.0021098,0.674687 -7.6785198,1.731892 -9.8444798,2.830924 -2.71695,1.378614 -6.00612,3.988211 -6.00612,4.765205 0,0.388457 0.12686,0.706285 0.28191,0.706285 0.15505,0 0.4923,0.595312 0.74944,1.322917 0.25714995,0.727608 1.34470995,3.188228 2.4168,5.468058 1.33247,2.833521 2.13376,4.145141 2.53234,4.145141 0.3207,0 2.2416,-1.10787 4.26866,-2.461921 z M 145.88383,86.73465 c 0,-0.09701 -0.0794,-0.176389 -0.17638,-0.176389 -0.097,0 -0.17639,0.07937 -0.17639,0.176389 0,0.09701 0.0794,0.176389 0.17639,0.176389 0.097,0 0.17638,-0.07937 0.17638,-0.176389 z M -0.51892585,86.029074 c 0,-0.09701 -0.0794,-0.176388 -0.17639,-0.176388 -0.097,0 -0.17639,0.07937 -0.17639,0.176388 0,0.09701 0.0794,0.176389 0.17639,0.176389 0.097,0 0.17639,-0.07937 0.17639,-0.176389 z M 94.076324,78.788447 c 8.416166,-0.832693 12.730806,-1.548678 18.091216,-3.002119 7.90891,-2.144447 8.30558,-2.29055 8.5157,-3.136508 0.24232,-0.975597 0.33874,-3.985568 0.23665,-7.387583 -0.0937,-3.123857 0.22636,-2.964811 -3.34594,-1.662483 -1.11537,0.406622 -2.47192,0.787917 -3.01457,0.847323 -0.54264,0.05941 -1.15419,0.211573 -1.35899,0.338148 -0.64646,0.399535 -9.65072,1.945951 -14.059606,2.414635 -6.4325,0.683803 -26.04171,0.579213 -33.69027,-0.179693 -6.39666,-0.63469 -16.62147,-2.223223 -16.93221,-2.630598 -0.0976,-0.127994 -0.71142,-0.258077 -1.36398,-0.289075 -0.65255,-0.031 -2.7658,-0.489504 -4.69609,-1.018903 -2.03783,-0.558887 -3.63847,-0.831136 -3.81686,-0.649195 -0.16897,0.172341 -0.40841,1.31597 -0.53209,2.541399 -0.12369,1.225429 -0.29432,2.574804 -0.37918,2.998611 -0.23047,1.150895 -0.26881,4.119766 -0.0559,4.332622 0.33289,0.332894 5.69043,2.276524 7.13886,2.589865 0.77611,0.167898 3.63361,0.802403 6.35,1.41001 5.79565,1.296384 8.25922,1.68936 14.46389,2.30721 5.61793,0.559423 23.45975,0.67001 28.44942,0.176334 z m 52.865846,-6.870483 c 0,-0.09701 -0.0794,-0.176388 -0.17639,-0.176388 -0.097,0 -0.17639,0.07937 -0.17639,0.176388 0,0.09701 0.0794,0.176389 0.17639,0.176389 0.097,0 0.17639,-0.07937 0.17639,-0.176389 z m 10.09801,-0.279031 c 0.11084,-0.110837 0.42413,-0.1161 0.6962,-0.0117 1.03022,0.395333 0.45119,-1.096139 -1.10555,-2.847688 -0.88012,-0.99026 -2.00133,-2.253757 -2.49158,-2.80777 -0.85139,-0.962143 -0.91349,-0.977956 -1.38526,-0.352777 -0.72699,0.96339 -1.95885,4.934652 -1.72208,5.551655 0.28051,0.731001 5.35041,1.126141 6.00827,0.468276 z m 10.59744,-3.160552 c 0.48293,-0.914831 0.60046,-2.037668 0.58158,-5.556249 -0.029,-5.39521 -0.56532,-7.426362 -2.088,-7.906985 -0.56154,-0.177245 -2.09456,-0.796991 -3.40673,-1.377215 -1.31216,-0.580223 -2.4654,-0.975291 -2.56277,-0.877928 -0.0974,0.09736 0.46029,2.103981 1.23922,4.459154 1.4404,4.355155 1.64872,5.350196 1.1201,5.350196 -0.2441,0 -1.1337,-1.469683 -1.28122,-2.116666 -0.26841,-1.177149 -1.02212,-2.822222 -1.29303,-2.822222 -0.19044,0 -0.24813,-0.15875 -0.12821,-0.352778 0.11991,-0.194028 0.0793,-0.352778 -0.0902,-0.352778 -0.16955,0 -0.59128,-0.5935 -0.9372,-1.31889 l -0.62893,-1.31889 -0.64507,0.796623 c -0.35479,0.438142 -0.91177,1.599605 -1.23775,2.581028 -0.55987,1.685623 -0.55788,1.87565 0.036,3.432683 0.70328,1.843713 3.94364,5.31849 6.50174,6.97209 2.89379,1.870599 3.9993,1.964359 4.82045,0.408827 z M 5.7924142,68.965603 c 0.80803,-0.22632 0.75303,-0.325624 -1.31511,-2.37461 -3.37901,-3.347705 -4.86435005,-7.446892 -5.07435005,-14.003933 -0.0541,-1.687704 -0.2014,-3.068986 -0.32745,-3.069517 -0.64515995,-0.0027 -3.82067995,4.053458 -4.31949995,5.517409 -0.65276,1.915749 -0.70153,5.692369 -0.0985,7.628414 0.82567,2.650882 3.7011,5.410509 6.52622,6.26338 1.13822,0.343617 3.45101,0.363117 4.6087,0.03886 z m 8.1525498,-0.222638 c 0,-0.09701 -0.0794,-0.176389 -0.17639,-0.176389 -0.097,0 -0.17639,0.07937 -0.17639,0.176389 0,0.09701 0.0794,0.176389 0.17639,0.176389 0.097,0 0.17639,-0.07938 0.17639,-0.176389 z M 141.47411,61.952194 c 0,-3.056048 0.11137,-6.053759 0.24749,-6.661581 0.23508,-1.049736 0.1726,-1.133729 -1.24652,-1.675694 -2.45244,-0.936595 -2.57897,-0.859577 -3.26458,1.987075 -0.7851,3.259803 -1.10504,10.646712 -0.49306,11.384108 0.29629,0.357 1.11703,0.522204 2.59501,0.522341 l 2.16166,2.01e-4 z m 5.98469,4.290951 c 0.32877,-0.501776 0.8381,-1.721606 1.13184,-2.710735 0.29374,-0.989128 1.17747,-3.158271 1.96384,-4.820318 1.81717,-3.840723 1.91521,-4.296367 0.88299,-4.10384 -0.43512,0.08116 -1.95839,0.159358 -3.38503,0.173777 l -2.59389,0.02622 0.12639,5.732638 c 0.14865,6.742314 0.49727,7.803196 1.87386,5.702263 z M 12.794084,62.275119 c -0.98079,-1.293379 -2.38769,-3.621598 -3.1264298,-5.17382 -1.3129,-2.758635 -3.13103,-8.414954 -3.13103,-9.740852 0,-0.430906 -0.24912,-0.666092 -0.70555,-0.666092 -0.38806,0 -0.70556,0.148053 -0.70556,0.329005 0,0.180953 -0.3175,0.429776 -0.70555,0.55294 -0.64044,0.203267 -0.70556,0.533764 -0.70556,3.580967 0,6.148815 1.89482,11.30013 5.24905,14.270247 l 1.5448798,1.367966 2.03451,-1.084381 2.0345,-1.084382 z m 6.79532,3.998401 c 0,-0.09701 -0.0794,-0.176388 -0.17639,-0.176388 -0.097,0 -0.17639,0.07937 -0.17639,0.176388 0,0.09701 0.0794,0.176389 0.17639,0.176389 0.097,0 0.17639,-0.07937 0.17639,-0.176389 z m 14.16399,-0.881944 c 0.13391,-0.485069 0.44188,-1.913819 0.68437,-3.175 0.68913,-3.584058 0.47124,-5.032632 -0.55329,-3.678413 -0.28286,0.373891 -0.51935,0.553114 -0.52552,0.398271 -0.006,-0.154842 -0.6859,0.175914 -1.51052,0.735012 -0.82462,0.559099 -2.20197,1.400163 -3.06078,1.869031 -0.8588,0.468869 -1.90747,1.193997 -2.33037,1.611398 -0.75974,0.749865 -0.76072,0.765918 -0.082,1.347025 0.76137,0.651898 5.3402,1.967918 6.43623,1.849857 0.40932,-0.04409 0.79924,-0.440324 0.94192,-0.957181 z m 98.469766,-3.615972 c 0.12806,-3.027791 0.45635,-5.657238 0.93197,-7.464764 0.40384,-1.534752 0.73426,-2.899999 0.73426,-3.033882 0,-0.133883 -1.07156,-0.690725 -2.38125,-1.237426 -1.30969,-0.546702 -3.44885,-1.523018 -4.75369,-2.16959 -1.30484,-0.646573 -2.47345,-1.175587 -2.5969,-1.175587 -0.12345,0 -0.13185,0.515938 -0.0187,1.146528 0.11318,0.63059 0.46294,4.16004 0.77723,7.843223 0.85631,10.035033 0.64508,9.359875 3.15758,10.092589 1.16134,0.338679 2.52558,0.628704 3.03164,0.644498 l 0.92011,0.02872 z M 90.149804,59.835327 c 5.26881,-8.040702 10.251416,-16.760631 9.82229,-17.189754 -0.10337,-0.10337 -0.96894,-0.03983 -1.92348,0.141194 -0.95455,0.181026 -3.1114,0.440774 -4.79299,0.577218 -2.71204,0.220054 -3.07923,0.332515 -3.25021,0.995475 -0.51151,1.983329 -7.11245,12.073309 -10.68051,16.325882 -0.83994,1.001085 -1.52717,1.993272 -1.52717,2.204861 0,0.259838 1.63885,0.384707 5.04911,0.384707 h 5.04911 z m -18.87386,2.72658 c 0.12245,-0.198123 -1.04041,-1.66656 -2.58414,-3.263194 -1.54372,-1.596633 -3.28186,-3.458594 -3.86252,-4.137692 -1.90795,-2.231395 -7.84157,-10.290213 -8.9888,-12.208256 l -1.12404,-1.879274 -3.36422,-0.7559 c -4.16505,-0.93584 -10.65106,-3.069525 -15.07038,-4.957666 -2.24318,-0.958389 -3.62102,-1.358195 -4.18923,-1.215582 -0.46568,0.116878 -3.03285,1.254591 -5.70481,2.528251 -2.67197,1.27366 -5.69156,2.7119 -6.7102,3.196089 -1.17332,0.557709 -1.85209,1.10233 -1.85209,1.486058 0,0.9119 1.89426,6.545771 3.3036,9.825531 1.1779,2.74115 3.52427,6.802971 3.92984,6.802971 0.19932,0 6.83804,-3.382084 9.14131,-4.657025 0.75993,-0.420649 1.93865,-0.855347 2.61938,-0.965996 1.08243,-0.175944 1.41802,-0.506332 2.67525,-2.633807 1.44055,-2.437672 2.4093,-3.412641 2.90166,-2.920281 0.393,0.393003 -0.44872,4.787249 -1.50029,7.832368 -0.5086,1.47279 -0.85064,2.751887 -0.76009,2.842438 0.28778,0.287779 8.06378,2.195685 11.90878,2.921919 3.05104,0.576273 8.01342,1.267563 16.40417,2.285202 2.08161,0.25246 2.60733,0.228998 2.82682,-0.126154 z M 42.167184,46.165189 c 0,-0.09701 0.0794,-0.176389 0.17639,-0.176389 0.097,0 0.17638,0.07937 0.17638,0.176389 0,0.09701 -0.0794,0.176389 -0.17638,0.176389 -0.097,0 -0.17639,-0.07937 -0.17639,-0.176389 z M 100.90467,62.23267 c 6.82427,-0.888125 10.07738,-1.524493 14.64028,-2.863908 2.03729,-0.598036 4.02166,-1.115628 4.40972,-1.150203 0.47914,-0.04269 0.68068,-0.288653 0.62805,-0.766451 -0.0426,-0.386973 -0.32337,-3.019637 -0.62388,-5.850364 -0.91522,-8.621248 -1.78757,-12.668499 -2.73059,-12.668499 -0.24795,0 -1.56157,0.321743 -2.91915,0.714984 -1.35757,0.393241 -3.18269,0.876585 -4.05582,1.074096 -4.40471,0.996402 -3.98723,0.65187 -6.09073,5.026381 -1.95814,4.072192 -5.627116,10.467811 -8.077056,14.079602 -1.78336,2.629099 -1.9528,3.093927 -1.12759,3.093427 0.36031,-2.19e-4 3.03636,-0.310298 5.946766,-0.689065 z M 20.165124,61.482248 c 0.65349,-0.40388 1.18817,-0.827118 1.18817,-0.940529 0,-0.11341 -0.69146,-1.330775 -1.53657,-2.705255 -0.84512,-1.37448 -1.81188,-3.054679 -2.14836,-3.733776 -1.0211,-2.060823 -2.88899,-7.118614 -3.35482,-9.084027 -0.24142,-1.018646 -0.54052,-1.852083 -0.66465,-1.852083 -0.12413,0 -0.91753,0.277812 -1.76312,0.617361 l -1.53743,0.617361 0.1996,1.940278 c 0.36217,3.520635 2.91815,10.05767 5.10363,13.052776 2.27369,3.116 2.60332,3.268483 4.51355,2.087894 z m 56.92705,-5.680462 c 2.2618,-3.014054 3.13135,-4.298718 3.15467,-4.660656 0.0112,-0.173649 -1.57808,-1.94004 -3.53169,-3.925312 l -3.55202,-3.609587 -2.88617,-0.247911 c -1.5874,-0.136351 -4.13359,-0.482758 -5.6582,-0.769793 -1.52461,-0.287036 -2.85023,-0.443675 -2.94582,-0.348088 -0.43043,0.430437 5.90744,8.869898 10.68795,14.231997 2.28116,2.558668 2.31114,2.554418 4.73128,-0.67065 z m 84.313886,2.710624 c 0,-0.09701 -0.0794,-0.176389 -0.17639,-0.176389 -0.097,0 -0.17639,0.07937 -0.17639,0.176389 0,0.09701 0.0794,0.176389 0.17639,0.176389 0.097,0 0.17639,-0.07937 0.17639,-0.176389 z m -0.35278,-1.058333 c 0,-0.09701 -0.0794,-0.176389 -0.17639,-0.176389 -0.097,0 -0.17639,0.07937 -0.17639,0.176389 0,0.09701 0.0794,0.176389 0.17639,0.176389 0.097,0 0.17639,-0.07938 0.17639,-0.176389 z m 26.81111,0 c 0,-0.09701 -0.0794,-0.176389 -0.17639,-0.176389 -0.097,0 -0.17639,0.07937 -0.17639,0.176389 0,0.09701 0.0794,0.176389 0.17639,0.176389 0.097,0 0.17639,-0.07938 0.17639,-0.176389 z m -34.925,-1.411111 c 0,-0.09701 -0.0794,-0.176389 -0.17639,-0.176389 -0.097,0 -0.17639,0.07937 -0.17639,0.176389 0,0.09701 0.0794,0.176389 0.17639,0.176389 0.097,0 0.17639,-0.07937 0.17639,-0.176389 z m 30.36927,-0.721268 c 0.56537,-0.292365 1.02795,-0.786891 1.02795,-1.098946 0,-1.07764 -0.79674,-3.221449 -1.54688,-4.162205 -0.66768,-0.837359 -0.86435,-0.901416 -1.74251,-0.567543 -0.54443,0.206993 -1.68629,0.376351 -2.53746,0.376351 -1.43375,0 -1.62675,0.115054 -2.62369,1.564064 -0.59186,0.860235 -1.58184,1.924179 -2.19996,2.364318 l -1.12385,0.800254 1.13183,0.461836 c 2.90712,1.186227 7.58089,1.313526 9.61457,0.261871 z m -45.18594,-3.512065 c 0,-0.09701 -0.0794,-0.176389 -0.17638,-0.176389 -0.097,0 -0.17639,0.07937 -0.17639,0.176389 0,0.09701 0.0794,0.176389 0.17639,0.176389 0.097,0 0.17638,-0.07937 0.17638,-0.176389 z m 31.83762,-1.253111 c 0.72728,-0.201978 1.75915,-0.74312 2.29305,-1.202538 0.85126,-0.732506 0.96143,-1.05924 0.89522,-2.654902 l -0.0755,-1.819598 3.13736,0.245431 c 2.79736,0.218834 3.30867,0.162494 4.71828,-0.519886 0.86952,-0.420923 1.69279,-1.035834 1.82951,-1.366467 0.71646,-1.732716 0.80333,-3.074182 0.29587,-4.56886 -0.47053,-1.385925 -0.47015,-1.759312 0.003,-3.381241 0.97114,-3.326101 0.97807,-3.583555 0.17616,-6.54301 -0.48985,-1.807792 -4.92158,-3.804539 -7.62597,-3.435936 -0.82332,0.112218 -1.45859,0.08815 -1.41171,-0.05348 0.22148,-0.669061 -1.59459,-2.936718 -2.87505,-3.589959 -2.65703,-1.355516 -7.42562,-0.71773 -9.64398,1.289855 -0.34303,0.310445 -0.6237,0.429624 -0.6237,0.264843 0,-0.164782 -0.37754,0.212127 -0.83898,0.837574 -1.1977,1.623378 -1.74414,3.915967 -1.54945,6.500588 l 0.16774,2.22678 -1.29182,0.628348 c -2.051,0.997621 -3.11242,3.54083 -2.47137,5.9215 0.46766,1.736769 3.24889,4.647336 4.30952,4.509929 0.95751,-0.124047 1.14431,0.0712 1.12241,1.173168 -0.0451,2.27164 1.46065,4.095419 4.29537,5.202487 1.97643,0.771875 3.28568,0.85691 5.16364,0.335374 z m -2.99458,-9.257644 c -0.7257,-0.427973 -1.32102,-0.98594 -1.32292,-1.239925 -0.002,-0.253986 -0.12765,-0.385031 -0.27946,-0.291211 -0.6481,0.400548 -1.97901,-2.342142 -2.12659,-4.382394 -0.19438,-2.687329 0.0515,-3.56821 1.43756,-5.150541 1.87808,-2.144002 3.99848,-3.296006 6.06669,-3.296006 2.16143,0 3.45748,0.681448 5.36762,2.822222 2.11081,2.365678 2.73904,4.783929 1.8057,6.950762 -0.59589,1.383433 -2.45156,3.985349 -2.84233,3.985349 -0.17904,0 -0.72916,0.3175 -1.22249,0.705555 -1.30233,1.024414 -5.06694,0.967642 -6.88378,-0.103811 z m 5.76521,-3.172279 c 1.91433,-1.288222 2.57092,-4.548259 1.26187,-6.265351 -0.70318,-0.922374 -2.89754,-1.569733 -4.85989,-1.433718 -1.76471,0.122315 -3.07914,2.939426 -2.45426,5.260025 0.79053,2.9358 3.61976,4.07597 6.05228,2.439044 z m -21.37408,11.711976 c 2.87459,-0.531398 4.75754,-1.337242 4.75733,-2.035996 -10e-5,-0.318482 -0.77225,-1.243944 -1.71589,-2.056584 -1.22801,-1.057533 -2.00237,-2.135531 -2.72416,-3.792361 -0.63738,-1.463066 -1.21562,-2.314834 -1.57147,-2.314834 -1.02005,0 -4.36114,1.120312 -6.33553,2.124393 -2.40825,1.224718 -5.29167,4.229078 -5.29167,5.513626 0,2.030448 7.59008,3.539907 12.88139,2.561756 z M 41.344034,48.575837 c -0.12935,-0.129352 -0.23519,-0.02352 -0.23519,0.235185 0,0.258704 0.10584,0.364537 0.23519,0.235185 0.12935,-0.129352 0.12935,-0.341018 0,-0.47037 z m 42.4362,-2.206751 c 0.19958,-0.372926 0.62359,-0.938756 0.94223,-1.257401 0.39917,-0.399169 0.46584,-0.692872 0.21436,-0.944353 -0.44451,-0.444508 -3.22945,-0.627668 -3.47607,-0.228616 -0.29167,0.471929 -0.90297,0.322569 -0.63348,-0.154777 0.18826,-0.333445 0.14274,-0.343064 -0.18667,-0.03945 -0.34154,0.314789 -0.22828,0.714872 0.52429,1.852083 1.039,1.570036 2.0316,1.863228 2.61534,0.77251 z m 51.873046,-1.615008 c 0,-0.09701 -0.0794,-0.176389 -0.17639,-0.176389 -0.097,0 -0.17639,0.07937 -0.17639,0.176389 0,0.09701 0.0794,0.176389 0.17639,0.176389 0.097,0 0.17639,-0.07937 0.17639,-0.176389 z m -11.64167,-2.469445 c 0,-0.09701 -0.0794,-0.176388 -0.17638,-0.176388 -0.097,0 -0.17639,0.07938 -0.17639,0.176388 0,0.09701 0.0794,0.176389 0.17639,0.176389 0.097,0 0.17638,-0.07937 0.17638,-0.176389 z M 95.613014,38.064614 c 19.980496,-2.384575 33.731266,-8.043615 48.815446,-20.089673 1.23684,-0.987724 2.42746,-1.742944 2.64583,-1.678268 0.21838,0.06468 0.28554,0.0061 0.14926,-0.130192 -0.26555,-0.265553 0.53256,-1.222123 1.01967,-1.222123 0.16122,0 0.49525,-0.32366 0.74229,-0.719244 0.24705,-0.395585 0.62726,-0.609182 0.84493,-0.47466 0.23208,0.143436 0.29787,0.08623 0.15909,-0.138324 -0.13016,-0.210599 -0.0752,-0.482688 0.12212,-0.604641 0.19733,-0.121952 2.05525,-2.077609 4.12871,-4.3459033 2.07347,-2.268295 3.91079,-4.080551 4.08293,-4.027237 0.17214,0.05331 0.21248,-0.06568 0.0897,-0.264438 -0.12284,-0.198755 0.4873,-1.284914 1.35587,-2.4136862 5.92792,-7.7037682 11.65254,-19.6640175 14.13013,-29.5215855 2.10376,-8.370189 2.82807,-15.363767 2.57242,-24.838051 -0.25852,-9.580596 -1.43284,-16.900768 -4.04957,-25.243214 l -0.99175,-3.161824 -2.8629,-0.444258 c -1.5746,-0.244342 -3.77502,-0.847639 -4.88983,-1.340661 -1.11481,-0.493022 -2.06247,-0.854659 -2.1059,-0.80364 -0.0434,0.05102 -0.34975,1.035782 -0.6807,2.188361 -1.01802,3.545411 -2.91921,6.872338 -5.27137,9.224501 -2.11272,2.112722 -4.73291,3.672956 -6.16821,3.672956 -2.57436,0 -5.95922,-4.626696 -7.43337,-10.160527 -0.35831,-1.345058 -1.16049,-2.216606 -1.61857,-1.758526 -0.0894,0.0894 -0.32166,1.418704 -0.51611,2.953998 -1.04053,8.21548 -3.86704,9.832308 -11.63203,6.653781 -3.48304,-1.425751 -5.75148,-2.862461 -8.53114,-5.403174 l -1.99866,-1.826842 -0.23104,1.154673 c -0.53166,2.656963 -1.34438,4.505606 -2.50718,5.702906 -1.13834,1.172115 -1.39685,1.2726 -3.27383,1.2726 -3.53424,0 -9.74793,-2.563467 -14.046926,-5.795087 l -2.18373,-1.64154 -1.69666,1.627245 c -3.84705,3.68967 -10.25409,5.663247 -15.79418,4.865117 -2.88658,-0.415854 -6.99462,-2.164834 -8.93221,-3.802845 -1.5209,-1.285747 -3.20891,-3.767644 -3.47818,-5.114011 -0.2132,-1.06601 -0.23418,-1.074989 -2.51122,-1.074989 -1.26292,0 -2.91138,-0.184306 -3.66324,-0.409568 l -1.36702,-0.409568 -2.73085,2.757327 c -2.91018,2.938383 -4.77612,4.27755 -8.72808,6.264032 -5.28007,2.654067 -10.0932,3.460826 -11.94712,2.002531 -1.6515,-1.29907 -2.67589,-3.534273 -3.16155,-6.898485 -0.58624,-4.06086 -1.22659,-4.212388 -2.04554,-0.484047 -1.38927,6.324745 -2.35236,8.510663 -4.57291,10.379136 -1.24122,1.044415 -2.85244,1.177871 -5.29251,0.438373 -2.10256,-0.637214 -5.32667,-2.248118 -6.36077,-3.178122 -0.46492,-0.418122 -1.59691,-1.3653 -2.51554,-2.10484 -2.7522798,-2.215744 -6.2609998,-7.913804 -6.2609998,-10.167702 0,-0.862075 -0.51546,-0.831231 -3.2387,0.193796 -1.24541005,0.468768 -3.5265,1.039422 -5.06909,1.268118 -2.21927,0.329017 -3.54108,0.802736 -6.3324902,2.269474 l -3.527777,1.853661 -0.946208,5.609469 c -1.316405,7.804123 -1.841446,15.07112 -1.577743,21.837246 0.120992,3.104444 0.294286,6.120694 0.385096,6.702777 0.09081,0.582083 0.421236,2.878299 0.73428,5.102701 1.863219,13.239496 7.7350622,27.624305 15.69004215,38.43737318 C 6.4929342,8.9004837 16.992784,18.5455 25.892514,24.09611 c 13.12643,8.186723 28.71253,12.933351 48.02471,14.625564 3.31842,0.290773 17.30249,-0.132736 21.69584,-0.65706 z M 29.655074,-2.7286413 c -4.88225,-0.6011068 -8.79719,-1.6261795 -13.25198,-3.4698439 -2.37577,-0.983241 -4.46899,-1.7877109 -4.65161,-1.7877109 -0.18776,0 -0.22768,0.4751089 -0.0919,1.0934505 0.22463,1.0227354 0.18652,1.0773424 -0.58933,0.8443738 -1.5826098,-0.4752194 -3.0985998,-3.0291155 -4.8149698,-8.1114352 -1.67707,-4.966002 -2.24804,-9.013489 -2.43851,-17.286109 -0.15513,-6.737717 0.4157,-16.069134 1.16582,-19.057849 0.14367,-0.572452 -0.0557,-0.787084 -0.98502,-1.060485 -0.91623,-0.269547 -1.16514,-0.531189 -1.16514,-1.22472 0,-1.250623 2.55093,-2.432981 9.5249998,-4.414846 18.42677,-5.23645 41.67756,-7.914074 68.79166,-7.922232 22.693146,-0.0068 46.231086,1.938512 60.148596,4.971102 4.11017,0.895594 12.40674,3.248288 15.31374,4.34258 3.1041,1.16849 7.11837,3.249313 7.91212,4.101307 0.92579,0.993725 0.5953,2.077719 -0.71327,2.339432 -0.77366,0.154733 -0.97392,0.348824 -0.80042,0.77576 0.44166,1.086827 1.21348,7.447653 1.55477,12.813527 0.69666,10.953041 -1.3143,23.493078 -4.5989,28.6780883 -1.29689,2.04725 -1.58579,2.2803499 -2.83528,2.2876533 -0.73719,0.00431 -0.91564,-0.1552005 -0.88194,-0.7883479 0.0493,-0.9259874 0.0187,-0.9231389 -2.87095,0.2673189 -4.08683,1.6836771 -7.3638,2.3424734 -12.66542,2.5462342 -8.80382,0.338363 -18.44103,-1.3625252 -33.4575,-5.9049739 -13.944436,-4.2181619 -18.631996,-4.0434379 -37.960426,1.4149332 -5.43908,1.5360113 -13.7209,3.2380713 -19.7187,4.0525435 -5.03429,0.6836326 -16.16143,0.9630612 -19.92044,0.5002491 z m 20.97877,-5.406524 c 5.91847,-1.0108281 11.66466,-2.3348647 24.34167,-5.6088047 9.09108,-2.347847 12.15007,-2.856789 17.10972,-2.846647 5.40373,0.01105 7.65283,0.470693 18.697216,3.821103 14.13745,4.2887169 20.02173,5.2928728 29.58147,5.0480989 6.84677,-0.1753089 7.20098,-0.2506967 13.45741,-2.8642079 3.06349,-1.279716 3.51376,-1.799155 4.18205,-4.824471 1.87621,-8.493591 2.23148,-19.45421 0.90283,-27.853877 -0.41433,-2.619375 -0.83346,-5.286797 -0.9314,-5.927605 -0.23088,-1.510722 -0.81622,-1.84898 -5.91736,-3.419566 -6.1407,-1.890653 -7.55644,-2.282653 -9.525,-2.637352 -0.97014,-0.174801 -3.90702,-0.710508 -6.52639,-1.19046 -7.19786,-1.318874 -13.71344,-2.098022 -24.69444,-2.953018 -6.34083,-0.493705 -12.195296,-0.6181 -29.104166,-0.618405 -25.97033,-4.68e-4 -33.32602,0.448767 -49.74166,3.037878 -5.95476,0.939197 -15.02106,2.867859 -18.00822,3.830864 -0.59119,0.190588 -1.8215,0.448859 -2.73403,0.573934 -0.91253,0.125076 -1.65978,0.324895 -1.66056,0.444043 -7.8e-4,0.119148 -0.3459398,2.201007 -0.7670298,4.626354 -0.62738,3.613555 -0.77043,5.87467 -0.79233,12.52361 -0.0282,8.556039 0.42091,12.899067 1.9789498,19.138193 0.64202,2.570934 0.81966,2.910416 1.52295,2.910416 0.43789,0 1.88683,0.562955 3.21988,1.25101 1.33305,0.688055 3.1381,1.467376 4.01122,1.7318231 8.01715,2.4281898 9.84019,2.6595356 19.75556,2.507007 5.48082,-0.084312 9.42601,-0.3215046 11.64166,-0.6999204 z m 76.552766,-6.7975257 c -2.48706,-0.416325 -5.51372,-1.774895 -7.30524,-3.279091 -0.23435,-0.19676 -0.57743,-0.357746 -0.76239,-0.357746 -0.18497,0 -0.74969,-0.515938 -1.25493,-1.146528 -0.50525,-0.63059 -1.07498,-1.338265 -1.26609,-1.57261 -0.1911,-0.234346 -0.34746,-0.596516 -0.34746,-0.804822 0,-0.208307 -0.22621,-0.465545 -0.50269,-0.571642 -0.27648,-0.106096 -0.93768,-1.252051 -1.46932,-2.546566 -1.41073,-3.435014 -1.60646,-8.278877 -0.46907,-11.608209 0.44853,-1.312917 1.02252,-2.637747 1.27552,-2.944066 0.253,-0.30632 0.46001,-0.754667 0.46001,-0.996328 0,-0.60683 3.8772,-4.620338 4.46342,-4.620338 0.26151,0 0.47547,-0.168119 0.47547,-0.373598 0,-0.205479 0.14595,-0.283394 0.32433,-0.173146 0.17839,0.110248 0.55637,-0.03157 0.83995,-0.315159 0.28359,-0.283586 0.60474,-0.426477 0.71369,-0.317535 0.10894,0.108941 0.65501,-0.127293 1.21349,-0.524966 0.55848,-0.397672 1.76015,-0.910567 2.67039,-1.139766 1.98959,-0.500985 7.37243,-0.271209 8.87842,0.37899 0.58209,0.25131 1.28057,0.501354 1.55219,0.555655 0.27162,0.0543 0.58912,0.245881 0.70555,0.425736 0.11644,0.179854 0.76733,0.61078 1.44643,0.957614 0.6791,0.346833 1.48896,0.921721 1.7997,1.277529 0.31074,0.355809 0.66793,0.543978 0.79375,0.418155 0.12583,-0.125823 0.22877,-0.02672 0.22877,0.220228 0,0.246948 0.38142,0.749019 0.84759,1.115713 0.46618,0.366694 1.24692,1.348101 1.73497,2.180904 3.87664,6.614985 2.90322,15.243362 -2.32504,20.609155 -0.9838,1.009684 -1.92046,1.754378 -2.08146,1.654875 -0.161,-0.0995 -0.29272,-0.04384 -0.29272,0.123684 0,0.16753 -1.15094,0.89183 -2.55764,1.609555 -3.38727,1.728247 -6.57407,2.302587 -9.78959,1.764323 z m 10.93611,-3.107671 c 0,-0.09701 -0.0794,-0.176389 -0.17638,-0.176389 -0.097,0 -0.17639,0.07938 -0.17639,0.176389 0,0.09701 0.0794,0.176389 0.17639,0.176389 0.097,0 0.17638,-0.07938 0.17638,-0.176389 z m -0.70555,-0.352777 c 0,-0.09701 -0.0794,-0.176389 -0.17639,-0.176389 -0.097,0 -0.17639,0.07937 -0.17639,0.176389 0,0.09701 0.0794,0.176388 0.17639,0.176388 0.097,0 0.17639,-0.07938 0.17639,-0.176388 z m -1.19631,-12.338929 c 2.85938,-0.849144 4.37131,-2.926306 4.37131,-6.005514 0,-2.850061 -1.38787,-4.974608 -4.05695,-6.210348 -1.79491,-0.831018 -3.49352,-0.829079 -5.33261,0.0061 -4.33173,1.967119 -4.95239,8.17624 -1.10884,11.092811 1.00915,0.765757 2.86165,1.510261 3.99618,1.606023 0.20731,0.0175 1.16622,-0.202577 2.13091,-0.489058 z m 2.9602,-0.36107 c 0,-0.09701 -0.0794,-0.176389 -0.17639,-0.176389 -0.097,0 -0.17639,0.07937 -0.17639,0.176389 0,0.09701 0.0794,0.176389 0.17639,0.176389 0.097,0 0.17639,-0.07938 0.17639,-0.176389 z m -1.41111,-13.405555 c 0,-0.09701 -0.0794,-0.176389 -0.17639,-0.176389 -0.097,0 -0.17639,0.07938 -0.17639,0.176389 0,0.09701 0.0794,0.176389 0.17639,0.176389 0.097,0 0.17639,-0.07937 0.17639,-0.176389 z M 40.963634,-15.4363 c -1.35537,-0.317911 -5.50583,-2.267513 -5.85201,-2.748872 -0.097,-0.134896 -0.7717,-0.692277 -1.4993,-1.238626 -0.72761,-0.546348 -1.32292,-1.212644 -1.32292,-1.480656 0,-0.268013 -0.12111,-0.487296 -0.26912,-0.487296 -0.14802,0 -0.42584,-0.289824 -0.61737,-0.644052 -0.19153,-0.354229 -0.85703,-1.405925 -1.47889,-2.337103 -1.42819,-2.138569 -1.99661,-4.851194 -1.77482,-8.469856 0.17568,-2.866447 1.15603,-6.540654 1.74516,-6.540654 0.17601,0 0.23302,-0.140763 0.12669,-0.312806 -0.10633,-0.172043 0.0431,-0.508981 0.33196,-0.748751 0.2889,-0.23977 0.52528,-0.64184 0.52528,-0.893487 0,-0.641446 3.22845,-4.087806 4.54884,-4.855873 0.60258,-0.350518 1.0956,-0.518614 1.0956,-0.373546 0,0.145068 0.19844,0.01326 0.44097,-0.292914 0.7026,-0.886945 4.45526,-2.0931 7.15719,-2.30042 2.63537,-0.202212 5.32392,0.223819 7.48806,1.186568 0.72487,0.32247 1.43701,0.561791 1.58253,0.531825 0.14552,-0.02997 0.26458,0.08501 0.26458,0.255494 0,0.170488 0.46665,0.50327 1.037,0.739515 1.37407,0.569161 3.86074,3.072315 4.47707,4.506756 0.27094,0.63059 0.65861,1.146528 0.86149,1.146528 0.20287,0 0.27075,0.15875 0.15083,0.352777 -0.11991,0.194028 -0.0671,0.352778 0.11727,0.352778 0.52556,0 1.42629,2.580226 1.84676,5.290267 0.94979,6.121542 -1.54197,12.120566 -6.83949,16.466357 -1.09037,0.894473 -4.74608,2.517162 -6.51898,2.893629 -2.18006,0.462924 -5.65639,0.464027 -7.62438,0.0024 z m 12.49243,-2.956839 c 0,-0.09701 -0.0794,-0.176389 -0.17638,-0.176389 -0.097,0 -0.17639,0.07937 -0.17639,0.176389 0,0.09701 0.0794,0.176388 0.17639,0.176388 0.097,0 0.17638,-0.07938 0.17638,-0.176388 z m -19.75555,-2.116667 c 0,-0.09701 -0.0794,-0.176389 -0.17639,-0.176389 -0.097,0 -0.17639,0.07937 -0.17639,0.176389 0,0.09701 0.0794,0.176389 0.17639,0.176389 0.097,0 0.17639,-0.07938 0.17639,-0.176389 z m 25.04722,-3.527777 c 0,-0.09701 -0.0794,-0.176389 -0.17639,-0.176389 -0.097,0 -0.17639,0.07938 -0.17639,0.176389 0,0.09701 0.0794,0.176388 0.17639,0.176388 0.097,0 0.17639,-0.07937 0.17639,-0.176388 z m -6.43168,-7.072393 c 4.54709,-1.899893 5.56608,-7.115215 2.07274,-10.608551 -1.89612,-1.896121 -3.9075,-2.545241 -6.08343,-1.963269 -2.58177,0.69052 -3.89512,1.769426 -4.52391,3.716367 -0.74449,2.305182 -0.70051,3.588385 0.18573,5.419113 1.55223,3.206473 5.25323,4.729782 8.34887,3.43634 z m -7.32665,-0.688718 c 0,-0.09701 -0.0794,-0.176389 -0.17639,-0.176389 -0.097,0 -0.17639,0.07938 -0.17639,0.176389 0,0.09701 0.0794,0.176389 0.17639,0.176389 0.097,0 0.17639,-0.07937 0.17639,-0.176389 z m 10.93611,-0.705555 c 0,-0.09701 -0.0794,-0.176389 -0.17639,-0.176389 -0.097,0 -0.17639,0.07938 -0.17639,0.176389 0,0.09701 0.0794,0.176389 0.17639,0.176389 0.097,0 0.17639,-0.07937 0.17639,-0.176389 z m 3.52778,-8.819444 c 0,-0.09701 0.0794,-0.176389 0.17639,-0.176389 0.097,0 0.17638,0.07937 0.17638,0.176389 0,0.09701 -0.0794,0.176389 -0.17638,0.176389 -0.097,0 -0.17639,-0.07937 -0.17639,-0.176389 z M 124.2468,35.170282 c -0.12935,-0.129352 -0.34102,-0.129352 -0.47037,0 -0.12935,0.129352 -0.0235,0.235185 0.23518,0.235185 0.25871,0 0.36454,-0.105833 0.23519,-0.235185 z m 28.69259,-1.705092 c 0,-0.09701 -0.0794,-0.176389 -0.17639,-0.176389 -0.097,0 -0.17639,0.07937 -0.17639,0.176389 0,0.09701 0.0794,0.176389 0.17639,0.176389 0.097,0 0.17639,-0.07937 0.17639,-0.176389 z m -22.93055,-1.058333 c 0,-0.09701 -0.0794,-0.176389 -0.17639,-0.176389 -0.097,0 -0.17639,0.07937 -0.17639,0.176389 0,0.09701 0.0794,0.176388 0.17639,0.176388 0.097,0 0.17639,-0.07937 0.17639,-0.176388 z m 53.62221,-4.918069 c 0,-0.08556 -0.18327,-0.268841 -0.40728,-0.407285 -0.25234,-0.155956 -0.31153,-0.09677 -0.15557,0.155569 0.25133,0.406665 0.56285,0.545982 0.56285,0.251716 z M 23.117184,27.11519 c 0,-0.09701 -0.0794,-0.176389 -0.17639,-0.176389 -0.097,0 -0.17639,0.07937 -0.17639,0.176389 0,0.09701 0.0794,0.176389 0.17639,0.176389 0.097,0 0.17639,-0.07937 0.17639,-0.176389 z m 161.219426,0 c 0,-0.09701 -0.0794,-0.176389 -0.17639,-0.176389 -0.097,0 -0.17639,0.07937 -0.17639,0.176389 0,0.09701 0.0794,0.176389 0.17639,0.176389 0.097,0 0.17639,-0.07937 0.17639,-0.176389 z m 1.05833,-0.352777 c 0,-0.09701 -0.0794,-0.176389 -0.17639,-0.176389 -0.097,0 -0.17638,0.07937 -0.17638,0.176389 0,0.09701 0.0794,0.176388 0.17638,0.176388 0.097,0 0.17639,-0.07937 0.17639,-0.176388 z M 20.294964,24.645746 c 0,-0.09701 -0.0794,-0.176389 -0.17639,-0.176389 -0.097,0 -0.17639,0.07938 -0.17639,0.176389 0,0.09701 0.0794,0.176389 0.17639,0.176389 0.097,0 0.17639,-0.07938 0.17639,-0.176389 z M 158.23106,22.176302 c 0,-0.09701 -0.0794,-0.176389 -0.17639,-0.176389 -0.097,0 -0.17639,0.07937 -0.17639,0.176389 0,0.09701 0.0794,0.176389 0.17639,0.176389 0.097,0 0.17639,-0.07937 0.17639,-0.176389 z M -10.391476,21.206163 c 0.0699,-5.887287 1.4069202,-15.5629463 2.6142702,-18.9179634 0.30552,-0.8490125 0.5555,-1.84582722 0.5555,-2.21514402 0,-0.7052723 -5.5121362,-11.69641558 -5.9455672,-11.85539958 -0.327844,-0.120255 -2.207734,3.0143623 -3.546028,5.9128144 -2.353514,5.09719718 -4.206314,13.7377043 -4.519895,21.0784706 -0.109822,2.570868 -0.09502,4.674305 0.0329,4.674305 0.127915,0 1.69824,0.310206 3.489612,0.689346 5.300067,1.121748 7.311362,1.29585 7.319212,0.633571 z m 22.21977,-2.557639 c 0,-0.09701 -0.0794,-0.176389 -0.17639,-0.176389 -0.097,0 -0.17639,0.07938 -0.17639,0.176389 0,0.09701 0.0794,0.176389 0.17639,0.176389 0.097,0 0.17639,-0.07937 0.17639,-0.176389 z M 8.3005142,16.531858 c 0,-0.09701 -0.0794,-0.176389 -0.17639,-0.176389 -0.097,0 -0.17639,0.07937 -0.17639,0.176389 0,0.09701 0.0794,0.176389 0.17639,0.176389 0.097,0 0.17639,-0.07937 0.17639,-0.176389 z m 0.70556,-0.705556 c 0,-0.09701 -0.0794,-0.176389 -0.17639,-0.176389 -0.097,0 -0.17639,0.07938 -0.17639,0.176389 0,0.09701 0.0794,0.176389 0.17639,0.176389 0.097,0 0.17639,-0.07937 0.17639,-0.176389 z M 150.11717,14.415191 c 0,-0.09701 -0.0794,-0.176389 -0.17639,-0.176389 -0.097,0 -0.17639,0.07937 -0.17639,0.176389 0,0.09701 0.0794,0.176389 0.17639,0.176389 0.097,0 0.17639,-0.07938 0.17639,-0.176389 z m 1.05833,-1.058333 c 0,-0.09701 -0.0794,-0.176389 -0.17639,-0.176389 -0.097,0 -0.17639,0.07938 -0.17639,0.176389 0,0.09701 0.0794,0.176389 0.17639,0.176389 0.097,0 0.17639,-0.07937 0.17639,-0.176389 z M 6.1838542,13.00408 c 0,-0.09701 -0.0794,-0.176389 -0.17639,-0.176389 -0.097,0 -0.17639,0.07938 -0.17639,0.176389 0,0.09701 0.0794,0.176389 0.17639,0.176389 0.097,0 0.17639,-0.07937 0.17639,-0.176389 z m -2.82223,-2.822222 c 0,-0.09701 -0.0794,-0.176389 -0.17638,-0.176389 -0.097,0 -0.17639,0.07938 -0.17639,0.176389 0,0.09701 0.0794,0.176389 0.17639,0.176389 0.097,0 0.17638,-0.07937 0.17638,-0.176389 z M -31.563369,9.8290807 c 0,-0.09701 -0.07937,-0.176389 -0.176389,-0.176389 -0.09701,0 -0.176389,0.07938 -0.176389,0.176389 0,0.09701 0.07937,0.1763883 0.176389,0.1763883 0.09701,0 0.176389,-0.07937 0.176389,-0.1763883 z M 160.7005,7.3596357 c 0,-0.09701 -0.0794,-0.176389 -0.17639,-0.176389 -0.097,0 -0.17639,0.07938 -0.17639,0.176389 0,0.09701 0.0794,0.176389 0.17639,0.176389 0.097,0 0.17639,-0.07937 0.17639,-0.176389 z M -33.25151,5.3311637 c 0.309858,-0.242534 1.821724,-2.028472 3.359702,-3.9687494 1.537979,-1.94027772 3.976475,-4.6715403 5.418881,-6.0694727 1.965306,-1.9047099 2.965098,-3.2308773 3.989366,-5.2916662 0.751746,-1.5124844 2.138196,-3.8191024 3.081,-5.1258184 0.942805,-1.306716 1.714191,-2.540375 1.714191,-2.741465 0,-0.20109 -0.349303,-1.552896 -0.776229,-3.004014 -0.575665,-1.95668 -0.932714,-2.638395 -1.381864,-2.638395 -0.948346,0 -3.643889,1.255048 -7.235775,3.368986 -1.812823,1.066903 -3.393009,1.975654 -3.511524,2.019446 -1.214052,0.448605 -8.64912,7.961184 -11.31726,11.4352438 l -1.947829,2.5361769 3.790035,4.96035018 c 2.084519,2.72819282 3.894411,4.96034982 4.021981,4.96034982 0.127571,0 0.485467,-0.198437 0.795325,-0.440972 z m 4.745548,0.205787 c -0.129352,-0.129352 -0.341018,-0.129352 -0.47037,0 -0.129352,0.129352 -0.02352,0.235185 0.235185,0.235185 0.258704,0 0.364537,-0.105833 0.235185,-0.235185 z M 161.05328,2.0679698 c 0,-0.097014 -0.0794,-0.1763889 -0.17639,-0.1763889 -0.097,0 -0.17639,0.079375 -0.17639,0.1763889 0,0.097014 0.0794,0.1763888 0.17639,0.1763888 0.097,0 0.17639,-0.079375 0.17639,-0.1763888 z m 5.64444,-8.466666 c 0,-0.097014 -0.0794,-0.1763889 -0.17639,-0.1763889 -0.097,0 -0.17639,0.079375 -0.17639,0.1763889 0,0.097014 0.0794,0.1763889 0.17639,0.1763889 0.097,0 0.17639,-0.079375 0.17639,-0.1763889 z M -30.152258,-16.982029 c 0,-0.09701 -0.07937,-0.176389 -0.176389,-0.176389 -0.09701,0 -0.176389,0.07938 -0.176389,0.176389 0,0.09701 0.07937,0.176389 0.176389,0.176389 0.09701,0 0.176389,-0.07937 0.176389,-0.176389 z m 8.113888,-9.172221 c 0,-0.09701 -0.07937,-0.176389 -0.176389,-0.176389 -0.09701,0 -0.176389,0.07938 -0.176389,0.176389 0,0.09701 0.07937,0.176389 0.176389,0.176389 0.09701,0 0.176389,-0.07937 0.176389,-0.176389 z m 44.436104,-46.37638 c 0.84734,-0.847338 1.78438,-3.948291 1.88187,-6.227662 l 0.0723,-1.690554 -1.5875,-0.458087 c -3.14663,-0.907987 -5.82138,-2.450841 -7.5155,-4.335111 -1.46293,-1.627134 -1.74597,-2.157828 -1.62659,-3.049842 0.0166,-0.123828 -0.11606,-0.322266 -0.29473,-0.440973 -0.17868,-0.118706 -0.49088,-0.519595 -0.69379,-0.890862 -0.34667,-0.634296 -0.44065,-0.602362 -1.55735,0.529166 -2.5568198,2.590753 -2.5276498,2.523203 -2.0696198,4.793508 0.83188,4.123349 4.2380998,8.792381 7.7989298,10.690284 3.53585,1.884591 4.58489,2.08722 5.59198,1.080133 z m 130.114026,-3.324939 c 1.61527,-1.752365 2.33101,-3.014126 3.28862,-5.797458 1.03777,-3.016347 0.89627,-4.600605 -0.58409,-6.539377 -0.68799,-0.901026 -1.38252,-1.63823 -1.54341,-1.63823 -0.16088,0 -0.38972,0.485991 -0.50851,1.079978 -0.45179,2.25895 -3.88931,6.364299 -5.98194,7.144096 -0.40362,0.150405 -0.57463,0.468801 -0.46095,0.858216 0.0994,0.340504 0.43585,1.520667 0.74765,2.622585 0.68579,2.423621 1.70994,3.817346 2.8051,3.817346 0.50657,0 1.3472,-0.581263 2.23753,-1.547156 z m -111.402916,0.226081 c 4.00707,-1.112957 6.81546,-2.837928 11.02431,-6.77135 2.34728,-2.193681 2.23152,-2.461237 -1.06175,-2.454 -1.50559,0.0033 -2.97793,-0.08627 -3.27185,-0.199057 -0.3366,-0.129165 -1.0319,0.319926 -1.87842,1.213261 -0.73921,0.780083 -1.48937,1.418333 -1.66704,1.418333 -0.42187,0 -0.41153,-1.283569 0.0225,-2.797089 0.43421,-1.514018 0.0586,-2.011503 -1.7495,-2.316974 -0.74981,-0.126681 -2.07025,-0.67866 -2.93429,-1.226621 l -1.57099,-0.996292 -0.83776,3.051127 c -0.94382,3.437404 -1.1064,9.062546 -0.31701,10.968298 0.48881,1.180082 0.3988,1.17774 4.24175,0.110364 z m 93.444306,0.0372 c 0.23333,-0.512104 0.50992,-2.139292 0.61463,-3.615972 l 0.1904,-2.684873 -1.82114,-1.058334 c -1.99857,-1.161444 -3.96899,-3.337107 -4.77982,-5.277678 -0.28696,-0.686791 -0.66138,-1.24871 -0.83204,-1.24871 -0.7322,0 -0.66879,1.219475 0.14712,2.829602 1.05701,2.085914 1.05905,2.109287 0.18383,2.109287 -0.41387,0 -1.16206,-0.635748 -1.85209,-1.573742 -0.63673,-0.865558 -1.23731,-1.579933 -1.3346,-1.5875 -0.0973,-0.0076 -1.41123,0.633035 -2.91986,1.423559 -2.91698,1.5285 -3.13459,1.921629 -1.84213,3.327984 0.38805,0.422254 1.41993,1.59036 2.29305,2.595792 2.03207,2.339991 3.53787,3.375274 6.75519,4.644389 3.36386,1.326917 4.6329,1.355288 5.19746,0.116196 z m 1.45291,0.75471 c 0,-0.09701 -0.0794,-0.176389 -0.17639,-0.176389 -0.097,0 -0.17639,0.07937 -0.17639,0.176389 0,0.09701 0.0794,0.176389 0.17639,0.176389 0.097,0 0.17639,-0.07937 0.17639,-0.176389 z m -23.5912,-1.411111 c 0.12341,-0.582084 0.24317,-2.751556 0.26613,-4.821051 l 0.0417,-3.762717 -1.49931,-1.16835 c -1.85723,-1.447271 -3.42648,-3.15712 -3.43395,-3.741631 -0.008,-0.590352 -1.22897,-0.563132 -1.72829,0.03852 -0.21887,0.263719 -1.42855,0.938406 -2.68819,1.499305 -1.25963,0.560899 -2.29062,1.154562 -2.29109,1.319251 -4.6e-4,0.164689 0.46233,0.732103 1.02844,1.26092 1.45402,1.358262 0.95505,2.096146 -0.8411,1.243818 -0.72122,-0.34224 -1.393086,-0.835374 -1.493036,-1.095852 -0.39421,-1.027301 -0.74103,-0.366926 -0.9802,1.866373 -0.17725,1.655175 -0.12884,2.415214 0.16542,2.59708 0.22881,0.14141 0.40245,0.358423 0.38588,0.482251 -0.0166,0.123828 0.0209,0.185454 0.0833,0.136947 0.0624,-0.04851 0.38889,0.187301 0.725606,0.524018 0.89591,0.895909 4.33701,2.837693 6.56933,3.707014 2.42102,0.942805 3.08181,1.096842 4.40818,1.027605 0.87095,-0.04546 1.09625,-0.241279 1.28118,-1.113498 z m -26.359336,-0.01328 c 2.00191,-0.590378 5.88609,-3.525157 7.15229,-5.404063 1.32843,-1.971263 1.42074,-5.181159 0.27031,-9.399323 -0.18193,-0.667055 -0.01,-0.708359 3.15633,-0.756935 2.92236,-0.04484 3.601306,-0.179256 5.332156,-1.055668 3.54049,-1.792715 4.9833,-4.674658 4.66502,-9.318202 -0.30921,-4.51127 -2.26762,-7.33117 -6.48297,-9.33482 -2.250676,-1.06979 -5.091576,-1.41915 -7.181486,-0.88315 -3.4154,0.87596 -3.03799,1.13951 -3.30287,-2.30648 -0.18944,-2.46454 -0.44893,-3.47416 -1.29992,-5.0578 -1.0752,-2.00089 -3.03942,-4.44056 -3.68748,-4.58007 -0.19403,-0.0418 -1.20156,-0.32269 -2.23896,-0.62427 -4.85857,-1.41242 -10.22962,1.56783 -13.00271,7.21487 -0.86951,1.77064 -0.98611,2.40436 -0.98611,5.35947 0,1.84327 0.10832,3.90701 0.24071,4.58611 0.13239,0.6791 0.15885,1.03629 0.0588,0.79375 -0.10006,-0.24253 -0.33681,-0.44097 -0.52612,-0.44097 -0.18931,0 -0.24105,0.1669 -0.11498,0.37089 0.12608,0.20399 -0.36019,0.12461 -1.08059,-0.17639 -1.97783,-0.82639 -5.33723,-0.70545 -7.00776,0.25227 -1.55007,0.88867 -2.68256,2.7163 -2.68256,4.32915 0,0.59552 0.40578,1.89707 0.90174,2.892333 l 0.90175,1.809563 -1.1347,2.180241 c -1.86777,3.588819 -1.39687,7.847865 1.04451,9.446833 1.26388,0.827773 7.49039,0.822283 9.13147,-0.0081 1.42279,-0.719885 1.64319,-0.42455 1.5424,2.06681 -0.16131,3.987165 2.42984,7.135701 6.94885,8.443619 1.99604,0.577709 6.75617,0.374925 9.38288,-0.399715 z m -8.78696,-12.63031 c -2.91227,-0.740656 -5.41855,-2.711612 -6.38285,-5.01952 -0.83398,-1.995993 -0.73072,-6.033227 0.20493,-8.011821 2.02106,-4.27391 7.67959,-6.41779 11.89176,-4.50549 3.02524,1.37345 5.40338,4.5727 5.94473,7.997304 0.46758,2.95791 -2.09593,7.311698 -5.22537,8.874618 -2.01131,1.004494 -4.20602,1.231331 -6.4332,0.664909 z m 5.09874,-3.928412 c 2.27904,-1.178538 3.36669,-5.097186 2.15901,-7.778659 -0.96567,-2.14412 -6.46578,-3.62254 -8.07132,-2.16954 -0.36014,0.32591 -0.76097,0.4864 -0.89075,0.35662 -0.12978,-0.12977 -0.23595,0.0154 -0.23595,0.32261 0,0.30721 -0.17294,0.61621 -0.38431,0.68667 -0.56444,0.18814 -1.35518,3.575573 -1.14539,4.906701 0.38952,2.471515 2.70506,4.175161 5.69235,4.188109 1.02828,0.0045 2.32264,-0.226173 2.87636,-0.512511 z m 98.441526,15.866446 c 0,-0.09701 -0.0794,-0.176389 -0.17639,-0.176389 -0.097,0 -0.17639,0.07937 -0.17639,0.176389 0,0.09701 0.0794,0.176389 0.17639,0.176389 0.097,0 0.17639,-0.07937 0.17639,-0.176389 z m -202.197031,-2.584702 c 3.351855,-1.186127 6.28686,-2.900113 8.039349,-4.694825 l 1.275363,-1.30609 -1.476252,-1.447022 c -1.409,-1.381101 -1.519464,-1.424629 -2.424802,-0.955478 -0.521702,0.270349 -1.521553,0.736629 -2.221891,1.036177 -1.206838,0.516188 -1.271325,0.509835 -1.234723,-0.121633 0.02124,-0.366446 0.86316,-1.452436 1.87093,-2.413311 2.008594,-1.915125 2.033834,-1.788349 -0.662729,-3.32873 -0.908953,-0.519228 -2.008481,-1.459377 -2.443396,-2.089219 -0.434915,-0.629841 -0.833814,-1.202962 -0.886441,-1.273601 -0.221482,-0.297282 -2.649097,1.496429 -3.341711,2.469116 -1.42232,1.997463 -3.481511,6.493704 -3.840202,8.385075 -0.486235,2.563911 -0.453414,5.795881 0.06412,6.313409 0.766745,0.766745 4.275273,0.490265 7.28239,-0.573868 z m 1.11372,-6.940298 c 0,-0.09701 0.07937,-0.176389 0.176389,-0.176389 0.09701,0 0.176389,0.07937 0.176389,0.176389 0,0.09701 -0.07937,0.176389 -0.176389,0.176389 -0.09701,0 -0.176389,-0.07937 -0.176389,-0.176389 z m 213.923971,6.814636 c 1.21432,-3.46522 -4.41231,-16.516024 -7.12061,-16.516024 -0.18955,0 -0.76512,0.551273 -1.27903,1.225052 -0.51392,0.673778 -1.63212,1.705099 -2.48489,2.291823 -1.5471,1.064428 -1.54934,1.069098 -1.02192,2.126337 0.29072,0.582761 0.64888,1.059565 0.79591,1.059565 0.14703,0 0.47257,0.383503 0.72342,0.85223 0.25086,0.468726 0.75393,0.930114 1.11795,1.025306 0.6857,0.179314 0.93362,0.944686 0.30601,0.944686 -0.19571,0 -1.01327,-0.47625 -1.81682,-1.058333 -1.3961,-1.011329 -2.76623,-1.38987 -2.76623,-0.764254 0,0.161743 -0.64124,0.98866 -1.42497,1.837592 l -1.42496,1.543513 0.66501,0.896436 c 1.33097,1.794171 5.49571,4.266561 8.62824,5.122143 1.01583,0.27745 2.95491,0.472042 4.30909,0.432428 2.32572,-0.06803 2.4805,-0.124461 2.7938,-1.0185 z M 23.117184,-84.715356 c 0,-0.09701 -0.0794,-0.176389 -0.17639,-0.176389 -0.097,0 -0.17639,0.07938 -0.17639,0.176389 0,0.09701 0.0794,0.176389 0.17639,0.176389 0.097,0 0.17639,-0.07937 0.17639,-0.176389 z M 144.78648,-85.78457 c 3.56668,-1.600631 5.11922,-5.381228 3.6105,-8.791939 -0.58552,-1.323663 -0.63107,-1.634257 -0.21631,-1.475099 0.28896,0.110885 0.52539,0.03847 0.52539,-0.160917 0,-0.199389 0.19172,-0.244035 0.42605,-0.09921 1.44914,0.89562 5.03539,0.171193 6.5674,-1.326622 1.54073,-1.506349 2.34398,-3.799613 1.99062,-5.683163 -0.15499,-0.82619 -0.25526,-2.5314 -0.22281,-3.78935 0.0475,-1.83979 -0.12038,-2.64172 -0.85805,-4.09969 -0.77153,-1.52492 -1.14293,-1.88019 -2.34065,-2.23903 -0.78298,-0.23459 -2.32759,-0.4222 -3.43247,-0.41692 l -2.00886,0.01 0.69115,-2.59009 c 1.13308,-4.24621 0.0981,-6.75962 -3.11686,-7.56916 -1.68485,-0.42425 -4.13006,-0.0478 -4.59701,0.70775 -0.14422,0.23336 -0.50753,0.11466 -0.98503,-0.32182 -1.79293,-1.63889 -4.45139,-1.20285 -6.77519,1.11126 -1.16765,1.16279 -1.59176,1.93934 -2.04253,3.73995 -0.50297,2.00912 -0.50833,2.33937 -0.0462,2.85 0.28748,0.31765 0.52268,0.7579 0.52268,0.97833 0,0.22043 0.31698,0.57042 0.7044,0.77777 0.98313,0.52615 1.98776,2.65872 2.28539,4.85131 l 0.25142,1.85208 h 1.38682 c 1.2655,0 1.40577,-0.0947 1.60328,-1.08223 0.11904,-0.59522 0.55163,-1.30157 0.96132,-1.56966 0.84151,-0.55069 2.20182,-0.45785 2.06779,0.14111 -0.0485,0.21676 0.0705,0.39411 0.26458,0.39411 0.19403,0 0.35278,0.57049 0.35278,1.26775 0,0.97106 0.16512,1.31093 0.70555,1.45226 0.38806,0.10148 0.70556,0.3512 0.70556,0.55494 0,0.20373 0.0983,0.27215 0.21838,0.15204 0.35341,-0.35341 1.19273,0.69278 1.19273,1.4867 0,0.40192 -0.16812,0.73076 -0.3736,0.73076 -0.20548,0 -0.28347,0.14583 -0.17331,0.32407 0.11016,0.17824 -0.24459,0.42178 -0.78833,0.54121 -0.66481,0.14602 -1.11599,0.55461 -1.37753,1.24751 -0.49904,1.32211 -1.96429,1.76129 -2.93757,0.88048 -0.37566,-0.33997 -0.61401,-0.72978 -0.52966,-0.86626 0.0843,-0.13648 -0.0872,-0.59151 -0.3811,-1.01119 -0.38458,-0.54906 -0.89984,-0.76236 -1.83738,-0.76059 -1.2863,0.002 -1.30377,0.0215 -1.37032,1.49931 -0.0819,1.81891 -0.86171,3.752002 -1.84761,4.580201 -0.63509,0.5335 -0.73081,1.011679 -0.73081,3.650851 0,4.925084 1.50453,7.115188 5.82083,8.473229 2.18644,0.687921 3.96638,0.571383 6.13459,-0.401648 z M 29.345004,-86.422516 c 0.55227,-0.289134 1.53345,-1.076556 2.18041,-1.749827 1.59542,-1.660305 1.8522,-4.236226 0.79758,-8.001199 -0.44542,-1.590158 -0.73915,-3.674069 -0.73915,-5.244118 v -2.60538 l -2.02847,0.238 c -3.14127,0.36855 -3.268,0.4366 -3.02994,1.62691 0.13636,0.68179 0.0642,1.03861 -0.20997,1.03861 -0.22974,0 -0.33074,0.1407 -0.22446,0.31267 0.21408,0.34638 -1.09315,0.862535 -1.9025,0.7512 -0.6441,-0.0886 -1.77688,-1.36349 -1.77688,-1.99979 0,-0.26935 -0.37512,-0.47519 -0.86596,-0.47519 -0.72726,0 -0.90038,0.21187 -1.08089,1.32291 -0.39438,2.427457 -1.24031,4.221655 -2.68554,5.696016 l -1.43204,1.460901 0.42,1.750793 c 0.78324,3.264892 3.66186,6.102732 6.73432,6.638919 1.82756,0.318935 4.42687,-0.01976 5.84349,-0.761425 z M 0.82192415,-88.123335 c 2.35699005,-0.866134 5.71814005,-3.995565 5.70939005,-5.315777 -0.005,-0.822295 -0.66638,-2.933922 -1.1585,-3.701318 -0.39277,-0.612473 1.05356,-0.90485 2.76284,-0.558511 0.76977,0.155972 2.2166298,0.236171 3.2152298,0.178219 1.51701,-0.08804 2.02107,-0.304863 3.06449,-1.318222 1.60918,-1.562826 2.03468,-3.773496 1.11769,-5.807006 -0.5027,-1.1148 -0.54296,-1.57261 -0.21982,-2.49959 0.53418,-1.53235 0.49943,-2.22999 -0.18805,-3.77489 -0.321,-0.72138 -0.5552,-1.44245 -0.52042,-1.60239 0.0348,-0.15995 -0.0995,-0.19027 -0.29829,-0.0674 -0.19884,0.12289 -0.36152,-0.0334 -0.36152,-0.34738 0,-0.31394 -0.15875,-0.47269 -0.35278,-0.35277 -0.19403,0.11991 -0.35278,0.0716 -0.35278,-0.10728 0,-0.49787 -3.7911698,-1.57914 -4.7196898,-1.3461 -1.02528,0.25733 -1.40457,-0.0851 -0.8433,-0.76144 0.63814,-0.76891 0.52902,-5.31832 -0.15842,-6.60463 -1.11846,-2.09282 -3.38465,-3.71033 -6.44458,-4.59988 -3.33067,-0.96825 -6.00588,-0.20891 -8.34701,2.36924 -1.57433,1.73372 -2.24116,3.89319 -2.24116,7.25776 v 2.55767 l -2.1166702,0.001 c -2.528954,0.002 -4.264921,0.88823 -4.637933,2.36895 -0.213714,0.84837 -0.248797,2.27912 -0.117618,4.7968 0.01836,0.35239 -0.312611,1.35543 -0.735491,2.22899 -1.524319,3.14882 -0.840114,7.019653 1.483396,8.392185 0.865828,0.511457 1.519537,0.603315 3.110274,0.43705 1.107724,-0.11578 2.266912,-0.307543 2.5759722,-0.426141 0.51154,-0.196298 0.51437,-0.03354 0.0316,1.815289 -0.2987002,1.143821 -0.4337202,2.546029 -0.3091102,3.210207 0.2645702,1.4103 2.0524802,3.547744 3.5312602,4.221629 1.39153,0.634123 4.8473,0.337953 7.52101995,-0.644574 z M -3.6057358,-100.77774 c -0.43656,-0.17547 -0.79375,-0.46946 -0.79375,-0.65329 0,-0.18383 -0.47625,-0.78374 -1.05833,-1.33314 -0.58208,-0.54939 -1.05833,-1.25964 -1.05833,-1.57832 0,-0.6135 1.37932,-2.48826 1.39937,-1.90201 0.0303,0.88494 0.97251,-1.18741 0.99594,-2.19045 0.0358,-1.53473 0.28959,-1.85679 1.46287,-1.85679 1.17698,0 1.87445995,0.72237 1.87445995,1.94136 0,0.85033 0.39854,1.06883 1.63489,0.89631 0.95680005,-0.13351 2.15747005,0.35935 2.15747005,0.88563 0,1.15861 -1.10999,2.27392 -2.26308005,2.27392 -1.39189,0 -1.97025995,0.54589 -1.97025995,1.85964 0,0.97461 -0.69507,2.04506 -1.29771,1.99855 -0.15938,-0.0123 -0.64697,-0.16593 -1.08354,-0.34141 z m -1.14652,-2.98762 c 0,-0.097 -0.0794,-0.17638 -0.17639,-0.17638 -0.097,0 -0.17639,0.0794 -0.17639,0.17638 0,0.097 0.0794,0.17639 0.17639,0.17639 0.097,0 0.17639,-0.0794 0.17639,-0.17639 z M 172.47763,-87.774829 c 0.79862,-0.227502 1.75176,-0.664065 2.11809,-0.970139 1.43293,-1.197244 2.02059,-4.127667 1.31861,-6.575329 l -0.30838,-1.075283 2.38779,0.01928 c 2.61446,0.02111 3.44874,-0.429238 4.47629,-2.4163 0.79729,-1.54178 0.48057,-5.17027 -0.57603,-6.59941 -0.77539,-1.04877 -0.79725,-1.21853 -0.3806,-2.95535 0.54905,-2.28869 0.0827,-3.98549 -1.44971,-5.27495 -1.11258,-0.93617 -3.6207,-1.78609 -4.20504,-1.42495 -0.19129,0.11822 -0.6442,0.12087 -1.00648,0.006 -0.55458,-0.17601 -0.68325,-0.66746 -0.81416,-3.10957 -0.12559,-2.34297 -0.32932,-3.17177 -1.05984,-4.31163 -2.31997,-3.61994 -5.44074,-4.81979 -9.14074,-3.51435 -0.84583,0.29843 -1.89599,0.77724 -2.33368,1.06402 -0.43768,0.28679 -0.84087,0.47918 -0.89596,0.42754 -0.25863,-0.24242 -3.0978,2.75406 -3.58774,3.78652 -0.66369,1.39863 -0.72296,3.53713 -0.11191,4.03787 0.24253,0.19875 0.96002,0.77737 1.59442,1.28581 1.59493,1.27828 2.81614,3.50938 3.09868,5.66114 0.23006,1.75215 0.28065,1.81951 1.5207,2.02459 2.2111,0.36568 2.87023,0.27218 2.87023,-0.40715 0,-0.99464 1.02679,-2.19566 1.87208,-2.18976 0.62891,0.004 0.67469,0.0694 0.24458,0.34738 -0.47037,0.30397 -0.47037,0.34721 0,0.38915 0.29104,0.0259 0.62897,0.0348 0.75095,0.0197 0.12197,-0.0151 0.32229,0.60107 0.44514,1.36933 0.12285,0.76827 0.3503,1.39684 0.50545,1.39684 0.15515,0 0.62952,0.32369 1.05416,0.7193 1.0596,0.98717 1.02381,2.62728 -0.073,3.34595 -0.4648,0.30455 -0.92519,0.86001 -1.02308,1.23435 -0.0979,0.37435 -0.60812,0.87661 -1.13383,1.11614 -0.83221,0.379183 -1.01928,0.348747 -1.44636,-0.23532 -0.26978,-0.36895 -0.49052,-1.01275 -0.49052,-1.43067 0,-1.12479 -1.03267,-1.85115 -2.82222,-1.98509 l -1.5875,-0.11882 -0.18828,2.64592 c -0.15097,2.121464 -0.41404,3.040489 -1.3272,4.636538 -0.62641,1.09484 -1.52135,2.241197 -1.98877,2.547461 -0.66848,0.438007 -0.79932,0.745698 -0.61308,1.441784 0.36307,1.356981 4.16792,4.024066 7.46872,5.23535 0.97822,0.358976 5.37266,0.253744 6.83824,-0.163751 z M 51.486934,-88.986433 c 0.39967,-0.153364 0.55802,-0.686154 0.55802,-1.877434 0,-1.573722 0.662,-4.203539 1.48933,-5.916418 0.27466,-0.568648 0.25204,-1.087176 -0.0846,-1.940277 -0.64714,-1.639828 -0.87314,-1.813918 -1.74739,-1.346028 -0.42416,0.227003 -1.48001,0.482145 -2.34633,0.566981 -0.86632,0.08484 -1.68726,0.170735 -1.82431,0.190888 -1.4957,0.219939 -2.69248,-0.184487 -3.97516,-1.343319 -1.84091,-1.66315 -2.40737,-2.79152 -2.66533,-5.30933 -0.1628,-1.58897 -0.0454,-2.4643 0.53347,-3.97759 0.40822,-1.06716 0.74229,-2.05934 0.74239,-2.20487 3.5e-4,-0.52606 -3.02968,-0.25628 -3.89008,0.34637 -0.47973,0.33602 -0.94167,0.56978 -1.02652,0.51946 -0.0849,-0.0503 -0.19587,0.11133 -0.2467,0.3592 -0.0508,0.24787 -0.33578,1.11947 -0.63322,1.93689 -0.61659,1.69446 -0.61786,8.997274 -0.002,9.613458 0.23711,0.237111 0.75978,0.243767 1.5413,0.01963 0.65039,-0.186529 1.3432,-0.23984 1.53959,-0.118469 0.19638,0.121371 0.25056,0.04837 0.12041,-0.162234 -0.13016,-0.2106 -0.0863,-0.475845 0.0975,-0.589425 0.663,-0.40976 0.6679,0.389802 0.014,2.284188 -0.95025,2.75291 -0.88903,4.324607 0.21485,5.515717 0.76795,0.828632 1.18533,0.975715 2.76877,0.975715 1.18125,0 2.20962,-0.226124 2.80626,-0.617057 0.7142,-0.467962 0.9712,-0.507538 1.06364,-0.16379 0.53707,1.997144 0.87261,2.612389 1.63515,2.998208 0.94403,0.47765 2.41863,0.584149 3.31667,0.239538 z m -14.25864,-22.187257 c 0,-0.097 0.0794,-0.17639 0.17639,-0.17639 0.097,0 0.17639,0.0794 0.17639,0.17639 0,0.097 -0.0794,0.17639 -0.17639,0.17639 -0.097,0 -0.17639,-0.0794 -0.17639,-0.17639 z m 81.068186,22.020392 c 0.77447,-0.26998 1.20732,-0.727605 1.4855,-1.5705 0.35715,-1.082152 0.47228,-1.159199 1.27574,-0.853724 2.15324,0.81866 5.28678,-5.59e-4 6.37916,-1.667737 0.53754,-0.820392 0.51418,-3.472703 -0.0543,-6.165791 -0.16971,-0.80397 -0.0979,-0.91122 0.50468,-0.75364 0.38639,0.10104 0.6383,0.287652 0.55979,0.414685 -0.0785,0.127032 0.46439,0.173069 1.20643,0.102304 1.66789,-0.159059 1.75525,-0.424239 1.76166,-5.347309 0.004,-3.28147 -0.0979,-3.90214 -0.90507,-5.49746 -1.02612,-2.0281 -0.86727,-1.94914 -4.20539,-2.09036 -2.07952,-0.088 -2.48845,-0.20779 -2.58981,-0.75878 -0.27726,-1.50718 -1.95412,-4.70629 -2.56921,-4.90151 -0.364,-0.11553 -0.66181,-0.32707 -0.66181,-0.47009 0,-0.34766 -2.66308,-0.48899 -3.9379,-0.20899 -0.71579,0.15721 -1.22367,0.62838 -1.71458,1.59064 -0.38364,0.752 -0.69752,1.55704 -0.69752,1.78899 0,0.23195 -0.36807,0.91296 -0.81793,1.51336 -0.44986,0.6004 -1.34904,2.02963 -1.99818,3.17606 l -1.18026,2.08443 0.76794,1.44335 c 0.88562,1.66452 2.51744,2.89076 4.69924,3.53125 2.07469,0.60905 3.64585,0.15634 4.53853,-1.30772 1.73688,-2.84861 -0.0415,-6.55868 -3.17742,-6.62886 -0.68443,-0.0153 -1.045,-0.10826 -0.80125,-0.20652 0.24374,-0.0983 0.35772,-0.31693 0.25328,-0.48591 -0.10443,-0.16898 -0.42292,-0.21782 -0.70775,-0.10852 -0.28483,0.1093 -0.51544,0.0627 -0.51247,-0.1036 0.0188,-1.05456 1.72525,-1.88983 3.86081,-1.88983 3.70985,0 6.29293,6.53481 4.25066,10.75356 -1.59396,3.29269 -5.73174,4.642354 -9.33962,3.04641 -0.92189,-0.40779 -1.80384,-0.66252 -1.95989,-0.56608 -0.15606,0.0965 -0.39486,0.83305 -0.53067,1.636892 -0.13581,0.803839 -0.46712,1.988534 -0.73625,2.632654 -0.5737,1.373062 -0.64159,3.174711 -0.13151,3.48996 0.1968,0.121629 0.67352,0.839969 1.05938,1.59631 1.3233,2.593887 3.97364,3.706693 6.626,2.782076 z m -144.215405,-5.439835 c 0,-0.09701 -0.07937,-0.176389 -0.176389,-0.176389 -0.09701,0 -0.176389,0.07937 -0.176389,0.176389 0,0.09701 0.07937,0.176389 0.176389,0.176389 0.09701,0 0.176389,-0.07937 0.176389,-0.176389 z m 3.175,-7.265927 c 0,-0.9436 0.257997,-2.36043 0.573327,-3.14851 0.31533,-0.78809 0.489303,-1.51691 0.386607,-1.61961 -0.102695,-0.1027 -1.82913,-0.66168 -3.836521,-1.24218 -2.007391,-0.58051 -3.703048,-1.20527 -3.768127,-1.38835 -0.06508,-0.18308 -0.263516,-0.24314 -0.440972,-0.13347 -0.177456,0.10968 -0.322647,-0.0374 -0.322647,-0.3268 0,-0.86605 1.29696,-1.01406 3.6703,-0.41884 1.231575,0.30886 2.854271,0.5988 3.605991,0.6443 1.312796,0.0795 1.371243,0.0359 1.480189,-1.10241 0.07493,-0.78295 -0.111205,-1.44138 -0.548519,-1.94027 -0.36407,-0.41534 -1.050111,-1.34938 -1.524536,-2.07566 -0.75931,-1.16239 -1.032401,-1.32079 -2.280794,-1.32292 -2.060948,-0.004 -6.334557,1.27101 -8.982979,2.67897 -2.499027,1.32855 -3.026895,1.70433 -3.997948,2.84612 -0.623041,0.73258 -0.615945,0.80085 0.256084,2.46368 1.103928,2.10502 1.429329,2.49728 3.206935,3.86589 3.242057,2.4961 5.614149,3.5423 8.995832,3.96757 3.218601,0.404756 3.527778,0.251603 3.527778,-1.74751 z m 218.957895,0.23876 c 2.78418,-1.3222 6.63466,-4.75262 7.68921,-6.85038 l 0.59196,-1.17754 -1.44912,-1.33783 c -2.97748,-2.74879 -8.78053,-5.03989 -12.43166,-4.90813 -1.10833,0.04 -1.9362,0.20046 -1.83971,0.3566 0.0965,0.15613 -0.14821,0.486 -0.5438,0.73305 -0.39558,0.24705 -0.71924,0.63213 -0.71924,0.85574 0,0.22361 -0.24648,0.50115 -0.54774,0.61675 -0.41948,0.16097 -0.52274,0.64478 -0.44097,2.06621 l 0.10676,1.85603 1.76389,-0.0708 c 0.97014,-0.0389 2.45854,-0.31672 3.30755,-0.61736 1.92741,-0.68249 3.9244,-0.72171 3.9244,-0.0771 0,0.57898 -0.65352,0.88013 -5.11528,2.35718 -1.94028,0.64232 -3.58329,1.21094 -3.65113,1.2636 -0.0679,0.0526 0.0435,0.6223 0.24737,1.26589 0.30416,0.96008 0.54331,2.59603 0.73307,5.01482 0.014,0.17913 1.28233,0.2199 2.91778,0.0938 2.26661,-0.17479 3.44797,-0.48668 5.45666,-1.4406 z m -145.227516,-1.70408 c 1.36936,-0.62664 1.78344,-1.01657 1.96678,-1.85209 0.12774,-0.58208 0.53125,-1.34233 0.89671,-1.68943 1.00223,-0.95192 0.88154,-3.11372 -0.24885,-4.45711 -0.50231,-0.59697 -0.78013,-1.09023 -0.61736,-1.09613 0.16277,-0.006 0.0362,-0.16241 -0.28122,-0.34781 -0.31745,-0.1854 -0.68824,-0.92915 -0.824,-1.65278 -0.36975,-1.97096 -1.15205,-3.24366 -2.14735,-3.49346 -1.05485,-0.26475 -4.03621,0.49604 -4.03621,1.02998 0,0.20481 -0.34636,0.74107 -0.7697,1.19169 l -0.7697,0.81931 1.77631,-0.0773 c 1.87059,-0.0814 3.64365,0.70891 3.64365,1.62408 0,0.26281 0.24196,0.67865 0.53769,0.92409 0.29573,0.24543 0.44014,0.54268 0.3209,0.66055 -0.22235,0.21981 -0.44901,0.2484 -2.68354,0.33847 -2.40459,0.0969 -4.27964,3.09398 -3.67437,5.87307 0.0845,0.38805 0.16582,0.80032 0.18066,0.91616 0.0499,0.38899 1.25644,1.6172 1.79088,1.82299 1.16435,0.44833 3.2952,0.2178 4.93872,-0.53429 z m -89.605378,0.26458 c 0,-0.097 -0.07937,-0.17639 -0.176389,-0.17639 -0.09701,0 -0.176389,0.0794 -0.176389,0.17639 0,0.097 0.07937,0.17639 0.176389,0.17639 0.09701,0 0.176389,-0.0794 0.176389,-0.17639 z m 58.913888,-0.70556 c 0,-0.097 -0.0794,-0.17638 -0.17639,-0.17638 -0.097,0 -0.17639,0.0794 -0.17639,0.17638 0,0.097 0.0794,0.17639 0.17639,0.17639 0.097,0 0.17639,-0.0794 0.17639,-0.17639 z m 1.91731,-2.98987 c 0.56013,-0.21297 0.90491,-0.6162 0.90491,-1.05834 0,-0.39285 0.32381,-1.0381 0.71958,-1.43387 l 0.71959,-0.71959 1.0443,0.74361 c 0.57437,0.40899 1.04431,1.0503 1.04431,1.42514 0,0.57214 0.24066,0.67589 1.4993,0.64637 2.81259,-0.066 3.16917,-0.30761 3.60656,-2.44406 0.46317,-2.26232 0.92864,-3.19527 2.53686,-5.0847 1.26482,-1.48597 1.31775,-2.40644 0.28524,-4.95968 -0.23539,-0.58209 -0.34938,-1.27662 -0.25332,-1.54341 0.10564,-0.29338 -0.0125,-0.42269 -0.29886,-0.32722 -0.26044,0.0868 -1.01681,-0.21085 -1.68083,-0.66146 -1.52236,-1.0331 -4.02273,-1.1031 -5.46386,-0.15296 -0.92897,0.61248 -1.10489,0.62192 -2.36486,0.127 -1.11742,-0.43894 -1.63269,-0.46039 -2.87692,-0.11973 -0.83364,0.22824 -1.75383,0.46299 -2.04487,0.52167 -0.29104,0.0587 -0.53638,0.32969 -0.5452,0.60224 -0.009,0.27254 -0.20726,0.45585 -0.44097,0.40734 -0.23372,-0.0485 -0.39545,0.0309 -0.3594,0.17639 0.036,0.14552 -0.18318,0.83403 -0.48716,1.53003 -0.99132,2.26974 -1.07985,2.84422 -0.58621,3.80367 0.26263,0.51046 0.67733,1.05568 0.92154,1.21161 1.06419,0.67945 1.99719,3.23916 1.9862,5.44913 -0.0119,2.40101 0.20825,2.59301 2.13407,1.86082 z m 1.25769,-2.65457 c 0,-0.097 0.0794,-0.17639 0.17638,-0.17639 0.097,0 0.17639,0.0794 0.17639,0.17639 0,0.097 -0.0794,0.17639 -0.17639,0.17639 -0.097,0 -0.17638,-0.0794 -0.17638,-0.17639 z m -4.23334,-11.99444 c 0,-0.097 0.0794,-0.17639 0.17639,-0.17639 0.097,0 0.17639,0.0794 0.17639,0.17639 0,0.097 -0.0794,0.17639 -0.17639,0.17639 -0.097,0 -0.17639,-0.0794 -0.17639,-0.17639 z m 90.663876,12.34722 c 0,-0.097 -0.0794,-0.17639 -0.17638,-0.17639 -0.097,0 -0.17639,0.0794 -0.17639,0.17639 0,0.097 0.0794,0.17639 0.17639,0.17639 0.097,0 0.17638,-0.0794 0.17638,-0.17639 z m -47.889576,-3.24919 c 1.19711,-0.14322 1.68719,-0.36277 1.71592,-0.7687 0.0221,-0.31252 0.092,-1.00478 0.15526,-1.53836 0.0633,-0.53358 -0.0342,-0.97014 -0.21662,-0.97014 -0.1824,0 -0.34417,-0.35719 -0.35949,-0.79375 -0.0153,-0.43656 -0.10637,-0.59996 -0.20234,-0.36311 -0.11376,0.28076 -0.31893,0.31451 -0.58951,0.097 -1.75479,-1.41088 -2.32459,-2.05377 -2.49992,-2.82065 -0.1109,-0.48507 -0.1105,-0.68351 8.9e-4,-0.44098 0.11139,0.24254 0.43679,0.44098 0.72312,0.44098 0.28632,0 0.4236,0.15693 0.30505,0.34873 -0.11854,0.19181 -10e-4,0.2665 0.2607,0.16599 0.26192,-0.10051 0.85347,0.21881 1.31454,0.7096 1.11291,1.18464 1.60437,1.12516 2.10019,-0.25418 0.22667,-0.63059 0.81371,-1.92245 1.30454,-2.8708 1.06562,-2.05896 1.08473,-2.03029 -2.70893,-4.06519 -1.62281,-0.87048 -3.73367,-1.65062 -5.39663,-1.99453 -3.72059,-0.76943 -3.92299,-0.59058 -3.60931,3.18945 0.30894,3.72301 1.04511,6.46984 2.51755,9.39373 1.23826,2.45886 2.05636,3.26247 2.98013,2.92738 0.29105,-0.10558 1.28323,-0.28217 2.20486,-0.39243 z m 62.353466,-0.63137 c 0,-0.097 -0.0794,-0.17638 -0.17639,-0.17638 -0.097,0 -0.17639,0.0794 -0.17639,0.17638 0,0.097 0.0794,0.17639 0.17639,0.17639 0.097,0 0.17639,-0.0794 0.17639,-0.17639 z m -105.833316,-0.35277 c 0,-0.097 -0.0794,-0.17639 -0.17639,-0.17639 -0.097,0 -0.17639,0.0794 -0.17639,0.17639 0,0.097 0.0794,0.17639 0.17639,0.17639 0.097,0 0.17639,-0.0794 0.17639,-0.17639 z m 90.303376,-1.92499 c 2.43575,-4.8252 3.54035,-10.37594 2.46475,-12.3857 -0.80085,-1.49641 -7.29462,-0.33861 -11.834086,2.10995 -1.40799,0.75945 -2.6655,1.27531 -2.79447,1.14634 -0.12897,-0.12897 -0.18157,0.004 -0.11689,0.29468 0.0647,0.29104 -0.0808,0.48947 -0.32338,0.44097 -0.24254,-0.0485 -0.40129,0.11024 -0.35278,0.35278 0.0485,0.24253 -0.14993,0.38805 -0.44097,0.32338 -0.29104,-0.0647 -0.41453,-0.003 -0.27442,0.13715 0.14011,0.14011 -0.14577,0.73073 -0.63529,1.31248 -0.69568,0.82677 -0.86685,1.37457 -0.78391,2.50868 l 0.10612,1.45094 2.82222,0.22498 c 1.55222,0.12374 3.08568,0.33365 3.407686,0.46648 0.40954,0.16893 1.17918,-0.29618 2.56137,-1.5479 1.7266,-1.56361 3.02677,-2.242 3.02677,-1.57926 0,0.37707 -1.54323,2.42446 -2.17552,2.88624 -0.89951,0.65694 -0.38124,1.67491 1.48208,2.91105 2.24402,1.48869 2.63083,1.38317 3.86072,-1.05324 z m -91.714486,1.57221 c 0,-0.097 -0.0794,-0.17639 -0.17639,-0.17639 -0.097,0 -0.17639,0.0794 -0.17639,0.17639 0,0.097 0.0794,0.17639 0.17639,0.17639 0.097,0 0.17639,-0.0794 0.17639,-0.17639 z m 115.711096,0.0208 c 0,-0.0856 -0.18328,-0.26884 -0.40729,-0.40729 -0.25234,-0.15595 -0.31152,-0.0968 -0.15557,0.15557 0.25134,0.40667 0.56286,0.54599 0.56286,0.25172 z m -151.243954,-2.97994 c 0.538804,-0.54958 1.610366,-1.28366 2.38125,-1.63128 1.549725,-0.69883 1.646729,-1.01921 0.870827,-2.87621 -0.291929,-0.69868 -0.597044,-1.63576 -0.678034,-2.08239 -0.08099,-0.44664 -0.50555,-1.29669 -0.943467,-1.889 -0.437916,-0.59231 -0.708195,-1.16495 -0.60062,-1.27252 0.191305,-0.19131 1.135027,0.72496 2.901974,2.81757 0.48445,0.57373 0.926905,0.97061 0.983233,0.88194 0.05633,-0.0887 0.473848,-0.90054 0.92782,-1.80417 0.973835,-1.9384 1.649052,-2.87085 2.9669552,-4.09727 0.53358,-0.49653 0.97014,-0.99687 0.97014,-1.11186 0,-0.11499 -0.99219,-0.87935 -2.2048602,-1.69858 -2.531046,-1.70986 -5.573549,-2.84968 -8.401602,-3.14752 -1.738123,-0.18305 -2.065243,-0.11071 -2.85093,0.63043 -0.825937,0.77911 -0.893241,1.09424 -0.969939,4.54137 -0.06037,2.71347 0.114065,4.5833 0.652215,6.99122 0.694848,3.10904 2.19195,6.77871 2.756755,6.75731 0.142252,-0.005 0.69948,-0.45946 1.238283,-1.00904 z m 63.755078,0.1369 c 0,-0.097 -0.0794,-0.17639 -0.17639,-0.17639 -0.097,0 -0.17639,0.0794 -0.17639,0.17639 0,0.097 0.0794,0.17639 0.17639,0.17639 0.097,0 0.17639,-0.0794 0.17639,-0.17639 z m 139.983396,-0.97014 c 1.81327,-2.99676 2.86218,-12.78011 1.67486,-15.62175 -0.48828,-1.16863 -0.59146,-1.22339 -2.30537,-1.22339 -3.76154,0 -10.95205,3.35216 -11.23091,5.23577 -0.062,0.4188 0.0509,0.76145 0.25084,0.76145 0.51043,0 1.65058,1.2673 3.12459,3.47303 l 1.26003,1.88553 1.71252,-1.86275 c 1.23318,-1.34137 1.81986,-1.75541 2.09603,-1.47924 0.42787,0.42787 0.18887,0.95781 -1.72634,3.82777 -0.63589,0.95289 -1.11023,1.97105 -1.05409,2.26257 0.0561,0.29152 0.81454,0.90123 1.68534,1.3549 0.87079,0.45368 2.0595,1.20166 2.64159,1.66219 0.58208,0.46052 1.08507,0.84477 1.11775,0.85388 0.0327,0.009 0.3716,-0.49937 0.75316,-1.12996 z m -143.870866,-0.78371 c 1.52919,-2.2226 5.076,-4.41976 7.13468,-4.41976 0.45197,0 0.57812,-0.6196 0.70029,-3.43959 0.24306,-5.61051 1.1338,-6.61081 5.80293,-6.51664 4.90292,0.0989 8.34864,1.18336 12.44805,3.9178 l 2.58796,1.72625 2.53594,-1.36787 c 5.62572,-3.03448 12.17459,-2.36291 16.77417,1.72013 l 1.58683,1.40863 1.94095,-1.67777 c 2.95511,-2.55442 5.14156,-3.79949 8.818696,-5.02178 3.032,-1.00785 3.7803,-1.11647 7.82085,-1.13529 4.24312,-0.0198 4.51343,0.0217 5.36962,0.82481 1.17816,1.10505 1.66259,2.65506 1.74051,5.5691 l 0.0635,2.3738 2.19367,0.44355 c 2.91901,0.59022 4.58729,1.48864 6.38431,3.43819 1.65949,1.80032 1.82896,1.89205 1.82896,0.98992 0,-1.33939 2.39088,-5.57105 3.96385,-7.01568 2.38669,-2.19197 3.58187,-2.69029 6.88407,-2.87023 1.60073,-0.0872 2.91042,-0.28175 2.91042,-0.43228 0,-0.61929 -5.5311,-5.37577 -8.90436,-7.65733 -4.83551,-3.27058 -9.48258,-5.72593 -14.52687,-7.67551 -8.22402,-3.17851 -16.94475,-5.34636 -25.602716,-6.36447 -5.03819,-0.59245 -16.21779,-0.67453 -21.14841,-0.15527 -7.80295,0.82175 -17.25831,3.30808 -26.15737,6.87818 -7.00443,2.81001 -11.33564,5.0784 -15.81854,8.28466 -4.32239,3.09145 -5.06961,3.79836 -4.78857,4.5303 0.12277,0.31973 0.48064,1.50699 0.79525,2.63836 0.53697,1.93091 0.62748,2.04414 1.4764,1.84688 2.72119,-0.63232 4.94673,-0.62862 6.72596,0.0112 3.86496,1.38982 6.01366,4.33281 6.86468,9.40227 0.12214,0.72761 0.28664,1.32292 0.36554,1.32292 0.0789,0 0.63185,-0.70986 1.22877,-1.57746 z m 3.53469,1.04829 c 0,-0.097 -0.0794,-0.17639 -0.17639,-0.17639 -0.097,0 -0.17639,0.0794 -0.17639,0.17639 0,0.097 0.0794,0.17639 0.17639,0.17639 0.097,0 0.17639,-0.0794 0.17639,-0.17639 z m 59.099606,-1.51937 c -0.10862,-0.10861 -0.39328,-2.2e-4 -0.63258,0.24087 -0.34582,0.34841 -0.30529,0.38893 0.19748,0.19749 0.34792,-0.13248 0.54371,-0.32974 0.4351,-0.43836 z m -77.796826,-4.47785 c 0,-0.097 -0.0794,-0.17639 -0.17639,-0.17639 -0.097,0 -0.17639,0.0794 -0.17639,0.17639 0,0.097 0.0794,0.17639 0.17639,0.17639 0.097,0 0.17639,-0.0794 0.17639,-0.17639 z m 115.358316,-0.35278 c 0,-0.097 -0.0794,-0.17639 -0.17639,-0.17639 -0.097,0 -0.17639,0.0794 -0.17639,0.17639 0,0.097 0.0794,0.17639 0.17639,0.17639 0.097,0 0.17639,-0.0794 0.17639,-0.17639 z m -124.309646,-1.79682 c 0.23351,-0.21215 0.90572,-0.58502 1.4938,-0.82861 1.35615,-0.56174 1.49102,-1.19702 0.69709,-3.28357 -0.35068,-0.92164 -0.57447,-1.6757 -0.49732,-1.6757 0.0771,0 -0.65855,-1.54781 -1.6349,-3.43958 -1.77909,-3.44716 -4.57527,-6.79097 -5.67878,-6.79097 -0.76918,0 -3.0051598,2.67668 -3.9783798,4.7625 -0.7434,1.59327 -2.09911,6.51153 -1.84042,6.67671 1.83035,1.16873 4.0982698,2.98929 5.0865598,4.08321 0.70107,0.776 1.40231,1.41091 1.55832,1.41091 0.29374,0 0.63534,-2.79426 0.80734,-6.60391 0.0545,-1.2068 0.19135,-2.28646 0.30414,-2.39925 0.41246,-0.41246 0.97542,2.0704 1.18619,5.23158 0.28106,4.21519 0.2948,4.2547 1.28368,3.69137 0.43346,-0.24693 0.97917,-0.62254 1.21268,-0.83469 z m 59.04577,-0.31982 c 0,-0.097 -0.0794,-0.17639 -0.17639,-0.17639 -0.097,0 -0.17639,0.0794 -0.17639,0.17639 0,0.097 0.0794,0.17638 0.17639,0.17638 0.097,0 0.17639,-0.0794 0.17639,-0.17638 z m 80.955036,-2.02848 c 2.22265,-1.47331 2.2622,-1.52724 2.28119,-3.11097 0.049,-4.08514 -3.34407,-10.91194 -5.42343,-10.91194 -0.6703,0 -3.3767,2.37488 -3.3767,2.96308 0,0.0944 -0.35482,0.77297 -0.7885,1.508 -0.8195,1.38895 -2.7276,6.91658 -2.73502,7.92319 -0.002,0.31692 0.35293,0.69244 0.7895,0.83449 0.98204,0.31954 0.86599,0.2737 2.52361,0.99661 0.75739,0.3303 1.46706,0.51058 1.57703,0.4006 0.10998,-0.10998 0.26343,-1.34237 0.341,-2.73866 0.24601,-4.42831 1.78523,-3.51102 1.80766,1.07727 0.007,1.51736 0.16082,2.55764 0.37715,2.55764 0.20056,0 1.38249,-0.67469 2.62651,-1.49931 z m -54.14393,-0.44097 c 0,-0.097 -0.0794,-0.17639 -0.17639,-0.17639 -0.097,0 -0.17639,0.0794 -0.17639,0.17639 0,0.097 0.0794,0.17639 0.17639,0.17639 0.097,0 0.17639,-0.0794 0.17639,-0.17639 z m 35.63055,-5.29166 c 0,-0.097 -0.0794,-0.17639 -0.17639,-0.17639 -0.097,0 -0.17639,0.0794 -0.17639,0.17639 0,0.097 0.0794,0.17638 0.17639,0.17638 0.097,0 0.17639,-0.0794 0.17639,-0.17638 z m -2.93981,-2.88102 c -0.12936,-0.12935 -0.23519,-0.0235 -0.23519,0.23518 0,0.25871 0.10583,0.36454 0.23519,0.23519 0.12935,-0.12935 0.12935,-0.34102 0,-0.47037 z m -115.946286,-2.05787 c 0,-0.097 -0.0794,-0.17639 -0.17639,-0.17639 -0.097,0 -0.17639,0.0794 -0.17639,0.17639 0,0.097 0.0794,0.17639 0.17639,0.17639 0.097,0 0.17639,-0.0794 0.17639,-0.17639 z m 8.81944,-3.175 c 0,-0.097 -0.0794,-0.17639 -0.17639,-0.17639 -0.097,0 -0.17639,0.0794 -0.17639,0.17639 0,0.097 0.0794,0.17639 0.17639,0.17639 0.097,0 0.17639,-0.0794 0.17639,-0.17639 z m 98.424986,-0.35278 c 0,-0.097 -0.0794,-0.17639 -0.17638,-0.17639 -0.097,0 -0.17639,0.0794 -0.17639,0.17639 0,0.097 0.0794,0.17639 0.17639,0.17639 0.097,0 0.17638,-0.0794 0.17638,-0.17639 z m 26.81111,-0.35278 c 0,-0.097 -0.0794,-0.17639 -0.17639,-0.17639 -0.097,0 -0.17638,0.0794 -0.17638,0.17639 0,0.097 0.0794,0.17639 0.17638,0.17639 0.097,0 0.17639,-0.0794 0.17639,-0.17639 z M 9.0060742,-144.33479 c 0,-0.097 -0.0794,-0.17639 -0.17639,-0.17639 -0.097,0 -0.17639,0.0794 -0.17639,0.17639 0,0.097 0.0794,0.17638 0.17639,0.17638 0.097,0 0.17639,-0.0794 0.17639,-0.17638 z m 148.8722058,0 c 0,-0.097 -0.0794,-0.17639 -0.17639,-0.17639 -0.097,0 -0.17639,0.0794 -0.17639,0.17639 0,0.097 0.0794,0.17638 0.17639,0.17638 0.097,0 0.17639,-0.0794 0.17639,-0.17638 z"
       id="path129" /></g></svg>
