<?xml version="1.0" encoding="UTF-8" standalone="no"?>
<!-- Created with Inkscape (http://www.inkscape.org/) -->

<svg
   width="286.20535mm"
   height="321.28806mm"
   viewBox="0 0 286.20535 321.28802"
   version="1.1"
   id="svg1"
   xml:space="preserve"
   xmlns="http://www.w3.org/2000/svg"
   xmlns:svg="http://www.w3.org/2000/svg"><defs
     id="defs1"><clipPath
       clipPathUnits="userSpaceOnUse"
       id="clipPath6"><path
         id="path7"
         style="fill:#ff0000;fill-opacity:1;fill-rule:nonzero;stroke:none;stroke-width:0.264583"
         d="M -175.07778,-16.057127 V 287.55793 H 124.54631 V -16.057127 Z m 132.7459,202.572647 c 0.210643,0.005 0.427212,0.0169 0.650089,0.0367 2.23823,0.19855 4.475655,0.4031 6.717938,0.55346 1.973313,0.11308 0.986628,0.0436 2.958475,0.20825 3.181295,0.26563 4.740125,1.85116 4.950601,3.46956 4.949923,1.63749 3.796379,7.35609 -2.592089,6.81354 -3.228716,-0.27422 -1.569593,-0.1301 -4.979024,-0.43357 -4.228209,-0.39317 -8.460616,-0.76265 -12.666927,-1.35341 -6.647387,-0.93358 -5.930551,-7.21034 0.03204,-7.20421 0.04685,5e-5 0.0972,0.004 0.144695,0.005 0.687229,-1.21692 2.304132,-2.15435 4.784204,-2.09548 z" /></clipPath><clipPath
       clipPathUnits="userSpaceOnUse"
       id="clipPath76"><path
         id="path77"
         style="fill:#ff0000;fill-opacity:1;fill-rule:nonzero;stroke:none;stroke-width:0.264583"
         d="M -133.83107,-122.52355 V 173.82063 H 122.97289 V -122.52355 Z M 13.574404,98.948202 c 2.788179,0.0507 4.135003,2.063798 3.398242,4.077268 0.199805,0.45372 0.374906,0.96736 0.517797,1.54461 1.07913,4.35948 0.671079,8.891 0.311608,13.31495 -0.351859,3.06036 -0.147137,1.57974 -0.604097,4.44366 -0.359666,2.25418 -1.333846,3.66838 -2.455664,4.32532 0.105138,0.36595 0.224724,0.72888 0.324528,1.09554 0.6273,2.23652 0.575201,4.47401 0.39429,6.75514 -0.137303,1.73129 -0.688065,2.99533 -1.427303,3.82199 -0.112477,0.41601 -0.170275,0.80219 -0.311092,1.25212 -0.184975,0.59102 -0.413327,1.1061 -0.670242,1.55856 0.741137,-0.23134 1.446982,-0.38145 2.064991,-0.37517 4.085002,0.0415 5.222724,4.75435 -0.02223,7.27138 -4.46677,2.14368 -9.303523,3.34693 -14.11903492,4.40955 -4.40876268,0.85156 -8.89238128,1.33053 -13.38264308,1.19269 -5.804014,-0.17807 -6.736297,-5.00293 -3.065447,-6.67298 -2.072987,-0.65744 -4.042852,-1.62261 -4.128947,-3.14709 -0.02802,-0.49633 0.0026,-0.90355 0.0341,-1.30897 -1.976731,-0.003 -3.95339,2.4e-4 -5.930386,0.003 -0.814031,0 -1.53062,-0.0962 -2.159559,-0.26149 -0.376306,0.19492 -0.742394,0.40783 -1.120862,0.59893 -6.391272,3.22657 -9.625245,-3.24074 -3.234428,-6.46886 1.833438,-0.92611 3.62694,-1.92211 5.414142,-2.92954 -0.877003,-3.87058 -1.368747,-7.83436 -1.323951,-11.80858 0.01651,-1.46304 0.376836,-2.54918 0.864547,-3.41426 -1.247357,-1.79999 -0.223805,-4.63069 3.842661,-5.68855 3.11826,-0.81116 6.282901,-1.39515 9.473837,-1.82211 -1.259816,-0.12657 -2.516182,-0.30233 -3.764627,-0.50177 -1.477002,-0.21985 -2.935575,-0.54305 -4.407482,-0.7891 -1.14214,-0.22954 -0.588502,-0.12004 -1.660882,-0.3297 -3.350244,-0.65501 -4.783278,-2.61088 -4.608504,-4.32997 -0.200179,-1.7721 1.333365,-3.52972 4.663799,-3.59461 v -5.3e-4 c 0.20954,-0.004 0.426035,-0.002 0.649571,0.008 1.77111,0.0772 3.528708,0.28204 5.26428,0.64027 1.655035,0.33225 3.314115,0.6481 4.955251,1.04439 1.244759,0.34858 2.51628,0.54538 3.7997689,0.6723 0.025956,0.002 0.052073,0.002 0.078034,0.004 0.4990888,-0.0371 0.9984105,-0.0743 1.4965495,-0.11317 1.346872,-0.12588 2.6913231,-0.25136 4.0457464,-0.24236 1.1278499,-0.0444 2.2567291,-0.10772 3.37498791,-0.26872 0.75719517,-0.11591 1.51142439,-0.25483 2.25722659,-0.4284 0.3616431,-0.12394 0.7240561,-0.24538 1.083138,-0.37775 0.3360393,-0.12388 0.6107589,-0.12825 0.9250071,-0.20723 0.1281086,-0.045 0.2583895,-0.0825 0.3855085,-0.13074 1.9825018,-0.7681 3.9540551,-1.56464 5.9510551,-2.29443 1.050809,-0.383992 1.999634,-0.542639 2.826703,-0.527616 z M 0.70283723,110.39557 c -0.45566013,0.0949 -0.90775367,0.208 -1.36890919,0.2744 -1.16638124,0.15534 -2.34111274,0.24237 -3.51761424,0.26251 0.4031694,0.0896 0.8047355,0.18876 1.2025101,0.308 0.1014836,0.0304 0.1982549,0.075 0.2986907,0.10852 0.4205235,-0.21824 0.9206601,-0.35072 1.4898318,-0.37156 0.39885139,-0.0146 0.83259872,0.0278 1.29449508,0.13023 0.22468681,-0.12213 0.44967525,-0.24374 0.67437529,-0.36587 -0.0326284,-0.11319 -0.058211,-0.22834 -0.0733795,-0.34623 z m 10.24433577,1.02474 c -0.76023,0.21437 -1.5189569,0.4343 -2.2696301,0.68006 -0.031261,0.62207 -0.2256075,1.28373 -0.6464723,1.94355 0.6236891,0.43248 1.2549743,1.04482 1.8634525,1.86862 0.2674939,0.36214 0.4748849,0.75712 0.7188199,1.13223 0.154519,-1.86707 0.314174,-3.74736 0.33383,-5.62446 z m 64.566086,3.39773 c 1.50346,0.0187 3.129182,1.24994 3.928441,4.04678 0.257931,0.90255 0.823497,1.65871 1.488797,2.30735 0.856321,0.95375 1.845738,1.76777 2.801898,2.61638 1.458581,1.46408 2.789203,3.04608 4.169772,4.58215 1.315059,1.44746 2.571226,2.91698 3.543967,4.61884 0.0053,0.01 0.0082,0.0206 0.01344,0.0305 0.734605,-0.43313 1.446276,-0.65634 2.094962,-0.69195 3.016182,-0.16561 4.69137,3.55377 1.187525,7.32306 -1.69471,1.82311 -3.657862,3.33908 -5.68751,4.7651 -0.777873,0.49914 -1.607691,0.90075 -2.418456,1.33842 0.165478,1.44344 -0.672182,3.24303 -2.956409,4.73096 -1.354556,0.88234 -2.690448,1.79306 -4.075203,2.6288 -2.075008,1.20078 -4.233777,2.27962 -6.540687,2.96259 -2.077586,0.62971 -4.169056,1.29987 -6.359301,1.36374 -1.872114,0.0897 -3.746989,0.0368 -5.620845,0.0501 h -5.1108 -5.524728 c -7.160125,0 -7.160125,-7.23315 0,-7.23315 h 1.347722 c 0.29438,-0.0541 0.5212,-0.1588 0.84801,-0.18656 1.106628,-0.094 2.200932,-0.28334 3.292822,-0.48421 0.456121,-0.98163 1.356053,-1.98213 2.807581,-2.83962 1.078018,-0.63685 2.158119,-1.26923 3.212209,-1.94561 1.962647,-1.29302 3.840588,-2.72135 5.893696,-3.86902 1.367169,-0.76424 2.559646,-1.07097 3.526915,-1.04128 2.216811,0.068 3.246223,1.90266 2.479953,4.04059 1.105688,-0.48686 2.206929,-0.98346 3.283003,-1.53739 2.619811,-1.23728 5.288743,-2.38548 7.764385,-3.9026 0.246153,-0.17184 0.487463,-0.34958 0.730705,-0.52503 -0.126915,-0.50614 -0.277693,-0.9939 -0.512114,-1.46554 -0.647621,-1.25778 -1.721077,-2.20654 -2.600875,-3.29644 -1.199229,-1.33472 -2.369312,-2.69496 -3.592029,-4.00803 -1.098706,-0.97599 -2.227236,-1.92181 -3.215306,-3.01428 -1.300821,-1.39063 -2.459913,-2.93896 -3.045293,-4.77801 -1.289469,-4.05101 0.646382,-6.61405 2.843754,-6.58667 z m -95.086705,4.28035 c -0.465643,0.10748 -0.930899,0.21773 -1.394745,0.33435 0.171958,0.64334 0.283575,1.36624 0.279569,2.2071 -0.01267,2.6582 0.205063,5.32647 0.670242,7.94732 0.280107,-0.17087 0.565767,-0.33222 0.845429,-0.50385 -0.01897,-0.36223 -0.02445,-0.73164 -0.05529,-1.08985 -0.118034,-2.96491 -0.160888,-5.93314 -0.3452,-8.89507 z m 18.5141159,1.1958 c 0.00497,0.0773 0.00619,0.15612 0.014975,0.23202 -0.1238779,0.22787 -0.2588048,0.44752 -0.3937741,0.66715 0.58900751,0.0447 1.13203305,0.21413 1.64331124,0.45888 -0.37615284,-0.49255 -0.78353709,-0.94642 -1.26452314,-1.35805 z m -6.5422357,14.57068 c -0.046649,0.0755 -0.09888,0.14702 -0.1436608,0.22376 -0.03147,0.054 0.1963367,0.0838 0.1860365,0.0222 -0.017595,-0.10481 -0.026035,-0.14905 -0.042376,-0.24597 z m 13.9236979,6.08439 c -0.2236258,0.5643 -0.5677508,1.09664 -1.1782213,1.50533 0.9079653,0.17659 1.7077452,0.44257 2.2830631,0.84852 0.1405493,-0.0459 0.272804,-0.11448 0.4128956,-0.16174 -0.7336976,-0.43656 -1.2984269,-1.18703 -1.5177374,-2.19211 z" /></clipPath><clipPath
       clipPathUnits="userSpaceOnUse"
       id="clipPath127"><path
         id="path128"
         style="fill:#ff0000;fill-opacity:1;fill-rule:nonzero;stroke:none;stroke-width:0.264583"
         d="M -112.24796,-126.55676 V 185.58027 H 148.5754 V -126.55676 Z M 46.874626,83.305366 c 1.808208,0 3.616317,1.790192 3.616317,5.370214 v 5.232238 c 0.0627,2.146078 -0.111291,4.285324 -0.245462,6.424932 -0.136289,2.02485 -0.190703,4.04985 -0.104904,6.07715 0.192061,1.91863 0.527714,3.82569 0.876432,5.72213 0.304242,2.00862 0.765826,3.9858 1.180806,5.97276 0.41642,1.86142 0.967934,3.68703 1.421104,5.53972 0.25287,0.86996 0.117097,0.46495 0.396356,1.22008 0.186108,0.50319 0.223428,0.93098 0.309544,1.38441 4.425355,2.23251 2.751262,7.58433 -3.415813,6.40477 -3.104732,-0.59371 -6.256094,-0.76586 -9.40821,-0.85576 -3.81635,0.009 -7.630525,0.17062 -11.44478,0.28216 -1.12776,0.0333 -2.255837,0.0512 -3.383772,0.0754 -0.908129,0.5548 -1.966518,0.57724 -2.88613,0.0641 -0.03584,5.3e-4 -0.07165,0.002 -0.107487,0.003 -0.03142,5.3e-4 -0.0525,-0.009 -0.08268,-0.009 -0.32049,0.14732 -0.641715,0.29301 -0.962215,0.44028 -0.262501,0.12062 -0.518089,0.22111 -0.770496,0.31265 -0.876996,0.71434 -1.945576,0.85817 -2.911967,0.46405 -2.943479,-0.21613 -4.295167,-2.77187 -2.550232,-5.0524 -2.22e-4,-0.028 -0.0078,-0.0483 -0.0078,-0.0765 v -6.3469 c -0.014,-2.72977 -0.02254,-5.45666 0.112657,-8.18348 0.135676,-2.32533 0.233519,-4.6523 0.299723,-6.98046 0.046,-1.80459 0.06926,-3.60958 0.08527,-5.41465 -0.0258,-1.02998 0.04009,-2.054459 0.138491,-3.078883 0.0044,-0.04602 0.02191,-0.07504 0.02687,-0.120406 C 15.992671,97.193438 15.83363,95.70984 16.656834,94.418959 10.68718,93.678613 10.992573,87.32947 17.739972,87.32947 h 3.885033 5.177462 5.913334 c 1.498505,0.05847 2.984222,-0.03228 4.475178,-0.161748 1.252041,-0.18606 2.49041,-0.398671 3.697968,-0.782897 1.001961,-0.32245 0.492366,-0.161472 1.527553,-0.482142 0.510384,-0.158096 0.938446,-0.174371 1.394749,-0.23771 0.672338,-1.56932 1.86623,-2.35903 3.063377,-2.35903 z" /></clipPath></defs><g
     id="layer1"
     transform="translate(-131.15393,274.66223)"><path
       style="fill:#000000"
       d="m 207.34567,46.121837 c -4.34674,-0.62264 -6.17248,-1.116156 -7.96348,-2.152605 -2.13804,-1.237284 -2.74143,-2.754323 -2.5085,-6.306794 0.45503,-6.939628 5.26833,-14.52774 11.53792,-18.189378 1.98234,-1.157744 2.50106,-1.651413 2.85174,-2.713984 2.42642,-7.3521116 17.98997,-23.0285163 30.07291,-30.29096 l 2.71461,-1.631616 4.6e-4,-2.175232 c 5.6e-4,-2.674378 1.21352,-7.755101 3.2986,-13.816897 0.86763,-2.522361 1.49897,-4.665486 1.40299,-4.7625 -0.096,-0.09701 -10.83726,-0.265493 -23.86952,-0.374398 -22.90644,-0.191419 -23.76962,-0.222852 -25.93635,-0.944496 l -2.24133,-0.746486 -1.81562,1.476088 c -3.2992,2.682235 -8.62576,4.469848 -13.31883,4.469848 -4.93208,0 -10.93966,-2.102831 -15.32791,-5.365224 -3.84394,-2.857734 -7.34809,-8.464281 -8.28608,-13.257537 -0.68228,-3.4865 -0.27556,-9.578893 0.83388,-12.491004 2.46966,-6.482504 7.42508,-11.270705 14.05684,-13.582509 4.29939,-1.498749 12.01172,-1.467174 15.87309,0.06499 0.4042,0.160383 0.65707,0.0068 0.81667,-0.496071 0.41863,-1.319001 2.96655,-4.207751 4.50812,-5.111171 2.46762,-1.446123 5.82252,-2.047044 11.7286,-2.100802 2.91042,-0.02649 6.89157,0.07629 8.84701,0.228395 l 3.55534,0.276559 -3.33247,-3.451559 c -9.06765,-9.391697 -15.9502,-21.520164 -20.04637,-35.325814 -0.0798,-0.26905 -0.74304,0.42308 -1.52117,1.5875 -1.93018,2.88839 -6.26114,7.4588 -9.66833,10.20287 -6.5957,5.31203 -13.71281,8.54121 -22.8714,10.37723 -8.83958,1.772066 -10.86285,0.612962 -11.16368,-6.39553 -0.12969,-3.02133 0.44557,-7.64144 1.19444,-9.59296 0.14633,-0.38132 -0.98841,-0.52169 -5.743,-0.71045 -9.00289,-0.35741 -12.49796,-1.16019 -13.54167,-3.11037 -1.21373,-2.26788 1.02512,-8.05412 5.12018,-13.23289 3.39018,-4.28737 11.02776,-10.30843 15.34367,-12.09614 0.61257,-0.25374 1.0681,-0.5798 1.01228,-0.72459 -0.0558,-0.14478 -1.60961,-1.60528 -3.45288,-3.24554 -7.95343,-7.07749 -15.23331,-16.95788 -15.75785,-21.38683 -0.40266,-3.39979 0.78382,-5.07731 5.14061,-7.26813 8.78414,-4.41713 21.28743,-5.31699 31.55752,-2.2712 5.83397,1.73017 11.87878,5.30717 16.2345,9.60671 1.4948,1.47552 2.7727,2.48817 2.83978,2.25033 0.0671,-0.23783 0.30494,-2.65492 0.52857,-5.37131 0.7685,-9.33477 2.12433,-16.3933 4.84508,-25.22361 7.01202,-22.75785 19.69984,-40.64651 38.5763,-54.38907 35.85624,-26.10427 91.75397,-28.13849 129.98722,-4.73046 22.81801,13.97016 38.15475,35.53097 45.81729,64.4112 5.29094,19.94165 5.31784,42.93783 0.0739,63.21111 -3.27778,12.67214 -8.54988,24.5476 -14.4977,32.656247 -1.5205,2.07289 -1.56855,2.20505 -0.80282,2.208016 1.60318,0.0062 7.67755,2.383051 10.39455,4.067289 1.523,0.94409 4.06265,3.01935 5.6485,4.615643 2.33108,2.346422 3.19001,3.528791 4.49755,6.191142 2.15841,4.394853 2.7854,7.016672 2.76956,11.581102 -0.01,2.777123 -0.1987,4.278051 -0.75545,5.997222 -1.45678,4.49833 -4.35187,8.338254 -8.24832,10.940201 -1.92301,1.284137 -2.36559,1.813945 -3.82772,4.582058 -4.36801,8.269602 -14.05696,17.888208 -21.92905,21.769852 -5.87082,2.894835 -10.56599,3.825774 -17.81421,3.532123 -5.15588,-0.208883 -8.63278,-0.931298 -12.31074,-2.557866 -1.09574,-0.484586 -2.04439,-0.828921 -2.10812,-0.765191 -0.0637,0.06373 0.2092,1.216724 0.60651,2.562208 0.419,1.418921 0.75738,3.694547 0.8057,5.418408 l 0.0833,2.972075 2.4512,0.82439 c 5.61641,1.888911 13.21645,6.3756998 19.73732,11.6521929 6.58648,5.3295837 14.25478,13.7069551 15.37011,16.7913401 0.31982,0.884451 0.7639,1.313475 1.70346,1.64569 2.3512,0.831351 6.06121,3.587992 8.0281,5.965104 3.54664,4.286337 6.13104,10.842169 5.61932,14.254504 -1.0883,7.257321 -10.8176,10.457733 -31.83945,10.473455 -12.94349,0.0097 -26.99654,-1.144553 -30.75044,-2.525656 -1.76993,-0.651182 -2.63853,-1.395062 -7.61643,-6.522824 C 324.59613,27.309213 321.14506,25.353717 306.91931,21.91278 l -7.15787,-1.731354 -5.71851,2.297579 c -11.44256,4.597382 -22.84877,10.775338 -30.98137,16.780461 -4.65155,3.434711 -7.11424,4.048821 -24.12603,6.016214 -11.07736,1.281085 -25.8005,1.675455 -31.58992,0.846161 z m 22.24131,-7.256125 c 1.84327,-0.190076 3.79774,-0.440214 4.34329,-0.555862 l 0.99189,-0.210269 -1.34467,-0.710558 c -4.46914,-2.361602 -10.01206,-5.961988 -13.6919,-8.893523 -2.32833,-1.854861 -4.45213,-3.37486 -4.71955,-3.377776 -0.97068,-0.01058 -4.49516,2.293725 -6.2645,4.09573 -2.06898,2.107184 -4.009,5.691541 -4.009,7.406994 0,1.070852 0.1209,1.197828 1.4993,1.574628 0.82462,0.225417 2.29306,0.529231 3.2632,0.675142 2.62662,0.395049 16.08677,0.392006 19.93194,-0.0045 z m 150.81249,2.7e-4 c 7.35942,-0.602168 14.64463,-2.436953 16.31716,-4.109489 0.96454,-0.964535 0.91257,-1.319904 -0.67923,-4.644365 -1.30307,-2.721465 -4.39722,-5.97643 -6.87444,-7.231732 l -1.81217,-0.918294 -4.07273,2.898077 c -7.40223,5.267278 -16.46053,12.891304 -16.46053,13.854197 0,0.418352 0.83362,0.50816 4.6743,0.503572 2.57087,-0.0031 6.57931,-0.161456 8.90764,-0.351966 z M 351.73916,34.75674 c 2.56928,-1.494998 6.89392,-4.012929 9.61031,-5.595403 2.71639,-1.582474 7.11127,-4.004936 9.7664,-5.383249 7.38542,-3.833861 11.22388,-6.334575 11.22388,-7.312238 0,-0.717012 -5.5662,-7.1094686 -8.64044,-9.9230489 -6.55056,-5.99514703 -14.49292,-11.0552397 -22.37546,-14.2554629 -5.02519,-2.040173 -5.81807,-2.5412052 -6.72242,-4.2480032 l -0.67087,-1.266145 -3.81416,0.472492 c -6.14033,0.760654 -15.32217,1.473928 -22.24679,1.7282 -3.541,0.130025 -6.43819,0.358773 -6.43819,0.508327 0,0.149555 1.09325,2.7109724 2.42945,5.6920387 4.29272,9.5771008 5.36531,15.6792713 3.41629,19.4359153 l -0.90497,1.744307 1.85114,0.754053 c 8.99446,3.663843 15.96811,8.568421 21.16171,14.883065 0.95749,1.164167 2.69915,3.018125 3.87036,4.119908 2.52418,2.37455 1.90457,2.473495 8.48376,-1.354756 z m -98.55959,1.301093 c 3.21795,-0.687676 3.335,-0.750191 9.50011,-5.073704 6.28514,-4.407686 10.80363,-7.168032 16.05844,-9.810099 l 2.84953,-1.432715 -1.25998,-0.612864 c -6.35439,-3.09082 -7.11965,-8.31767 -2.86851,-19.59241592 0.87789,-2.32833318 1.80875,-4.80865118 2.06856,-5.51181788 0.25982,-0.7031667 0.95631,-2.099215 1.54777,-3.1023297 0.59146,-1.0031145 1.07538,-1.8758425 1.07538,-1.9393945 0,-0.06355 -1.70657,-0.203858 -3.79236,-0.311791 -5.18044,-0.268069 -15.81993,-1.186127 -21.71561,-1.873791 -2.67876,-0.312446 -4.96901,-0.469545 -5.08945,-0.349108 -0.12043,0.120438 -0.46872,0.963047 -0.77397,1.872465 -0.52097,1.552089 -0.79737,1.8060696 -4.50716,4.1415724 -5.70125,3.5892285 -12.47607,9.1285712 -17.66463,14.4432389 -11.4305,11.7083297 -11.73181,14.8859557 -2.01932,21.2961027 4.68488,3.091972 14.49364,7.023364 20.02611,8.026545 3.35655,0.608631 2.86215,0.621425 6.56509,-0.169894 z m 32.82131,-19.326895 c 1.18796,-0.874934 1.93444,-3.17432 2.66177,-8.1990703 0.32298,-2.2313193 0.83015,-5.0888191 1.12706,-6.3499995 0.92815,-3.942643 3.69096,-12.1516144 4.23329,-12.5781502 0.28484,-0.224024 1.63868,-0.519874 3.00853,-0.657443 1.92985,-0.193807 2.55922,-0.14181 2.79519,0.230929 0.69123,1.0918901 3.17865,9.1946845 3.82977,12.4754976 0.38507,1.9402776 0.9507,5.7486881 1.25696,8.4631344 0.45921,4.070091 0.68824,5.07523 1.30634,5.733175 1.64157,1.747371 4.63873,1.668164 6.92936,-0.183125 2.15747,-1.743672 2.69818,-3.020943 2.64918,-6.2578756 -0.0357,-2.3557771 -0.3166,-3.6473733 -1.68238,-7.7346553 -2.21273,-6.6219364 -6.22541,-14.2250441 -8.94044,-16.9400761 l -0.95014,-0.950137 -0.7185,1.500332 c -0.97363,2.033073 -1.74836,2.285697 -1.3588,0.443077 1.03834,-4.911338 -0.62018,-7.473291 -5.19067,-8.018155 -3.71477,-0.442851 -7.41586,3.264392 -6.98065,6.99226 0.18455,1.580832 -0.68841,1.751212 -0.99963,0.195102 -0.11642,-0.582083 -0.33784,-1.058333 -0.49205,-1.058333 -0.1542,0 -1.07866,1.097547 -2.05435,2.438994 -5.09048,6.9987765 -10.3786,21.831972 -9.26143,25.978342 0.46131,1.71212 2.57661,4.290368 4.07716,4.969446 1.35802,0.614578 3.56048,0.386073 4.75443,-0.493269 z m 8.30789,-2.19748 c 1.71493,-0.57968 4.13504,-1.158159 5.37804,-1.285507 l 2.26,-0.231544 -0.23155,-3.741575 c -0.26976,-4.3591423 -0.83415,-7.5002948 -2.33904,-13.0179975 -1.20252,-4.4090666 -1.87412,-5.5810647 -2.99442,-5.225495 -1.2289,0.3900369 -3.36357,8.37498831 -4.90071,18.3316291 -0.47496,3.0764804 -0.86356,5.7355424 -0.86356,5.9090274 0,0.469141 0.29027,0.411065 3.69124,-0.738538 z m 28.23515,-28.744218 c 18.62204,-1.103725 21.1534,-1.315783 21.68323,-1.816455 0.78753,-0.744192 0.67137,-3.956192 -0.19679,-5.441386 l -0.71335,-1.220362 h -4.91849 c -2.70517,0 -8.96662,0.194366 -13.91432,0.431925 -4.94771,0.237559 -11.61521,0.530402 -14.81667,0.650763 -3.20146,0.120361 -5.88271,0.278918 -5.95835,0.352349 -0.16535,0.16054 0.13438,0.570982 3.29178,4.507697 l 2.44871,3.053098 2.31379,-0.0079 c 1.27259,-0.0043 6.12379,-0.233724 10.78046,-0.509724 z m -37.46245,-1.687231 c 0.65361,-1.018646 1.8376,-2.566459 2.63108,-3.439584 1.25879,-1.385151 1.36206,-1.617536 0.8102,-1.82315 -0.34786,-0.129608 -3.70978,-0.411702 -7.47093,-0.626874 -3.76115,-0.215173 -10.33095,-0.622021 -14.59956,-0.904108 -9.36538,-0.6189 -12.12625,-0.700086 -13.11677,-0.385708 -1.45906,0.463088 -2.48843,4.959995 -1.43532,6.270337 0.50455,0.62778 3.90769,1.030217 15.78681,1.866859 4.1716,0.293804 8.29909,0.587482 9.17222,0.652617 0.87312,0.06513 2.81293,0.146163 4.31069,0.180061 l 2.72318,0.06163 z m 3.4278,-8.394173 c 0.2123,-0.396691 1.57063,-2.236707 3.0185,-4.088925 4.04423,-5.173649 3.97881,-4.928614 2.02775,-7.59521 -1.40151,-1.915505 -5.9009,-7.524171 -6.46246,-8.055718 -0.7725,-0.731206 -5.51528,-6.402605 -7.23525,-8.651876 -3.055,-3.995153 -2.96064,-3.925371 -5.68661,-4.205538 -6.83547,-0.702528 -22.60297,-5.580232 -28.53283,-8.826678 -1.16417,-0.637352 -4.49792,-2.386259 -7.40833,-3.886461 -2.91042,-1.500201 -5.76792,-3.015513 -6.35,-3.36736 -3.96015,-2.393752 -13.25106,-3.873439 -24.74847,-3.941484 -6.9004,-0.04084 -9.2134,0.425506 -9.93191,2.002465 -0.32801,0.719909 -0.17131,1.088765 1.22629,2.886573 2.08418,2.680977 3.07404,4.673587 4.21216,8.479116 1.24838,4.174203 1.5656,11.636239 0.66448,15.630688 -0.92403,4.096032 -0.94172,4.010273 0.88439,4.287354 0.87313,0.132482 10.39813,0.283626 21.16667,0.335877 24.0892,0.116885 31.91689,0.339196 32.49941,0.923003 0.42892,0.429878 -0.01,2.351318 -3.03665,13.306129 -0.4793,1.734564 -0.83544,3.1852 -0.79142,3.223635 0.1898,0.165702 18.57161,1.622009 23.71615,1.878923 9.94752,0.496769 10.32959,0.4849 10.76813,-0.334513 z m 27.67328,0.334954 c 3.69278,-0.212466 6.76927,-0.536592 6.83665,-0.720279 0.0769,-0.209619 0.27392,-0.208957 0.52916,0.0018 0.41235,0.340449 14.73947,-0.05962 17.83226,-0.49794 l 1.55058,-0.219757 -0.21315,-3.233888 c -0.43964,-6.670182 -5.46929,-31.284577 -6.39094,-31.276348 -0.2077,0.0019 -2.83826,0.622049 -5.84569,1.37821 -3.00743,0.75616 -6.37475,1.486545 -7.48294,1.623078 l -2.01488,0.248241 -3.71069,6.046465 c -2.04088,3.325557 -6.6362,10.649237 -10.21181,16.274846 -3.57561,5.625609 -6.42692,10.348421 -6.33624,10.495138 0.23812,0.385289 7.68428,0.327703 15.45769,-0.119544 z m 56.25586,-6.487907 c 6.33616,-1.332854 11.85395,-4.395507 17.36116,-9.636332 2.95094,-2.808202 6.29851,-6.921575 6.29851,-7.739384 0,-0.191306 -1.4354,-0.949752 -3.18978,-1.685435 -5.71244,-2.395466 -12.03848,-6.627787 -18.48371,-12.366191 l -3.30968,-2.946722 -2.94244,0.55873 c -3.60804,0.685118 -7.85282,0.489011 -12.79464,-0.591108 l -3.50219,-0.765465 -3.72975,1.75002 c -2.05136,0.962511 -4.17527,1.930438 -4.71978,2.150949 -0.54452,0.220511 -0.91315,0.525328 -0.81918,0.677371 0.30142,0.48772 4.11742,15.631852 4.97947,19.761501 0.45804,2.194256 1.08062,4.367766 1.3835,4.830023 1.47556,2.251991 8.67774,5.803254 13.23582,6.526342 2.46405,0.390892 6.98263,0.159371 10.23269,-0.524299 z M 188.55016,-41.020103 c 2.49109,-1.13529 4.91418,-3.46161 6.14474,-5.89935 0.56398,-1.117233 1.02542,-2.201708 1.02542,-2.409946 0,-0.208237 -0.83344,0.471653 -1.85209,1.510867 -1.34535,1.372522 -2.30268,2.014555 -3.49902,2.346627 -1.22859,0.341025 -1.69902,0.664665 -1.85198,1.274106 -0.30611,1.219665 -1.88111,2.928758 -3.42462,3.716199 -0.75171,0.38349 -1.36674,0.75653 -1.36674,0.828975 0,0.294167 3.11683,-0.58932 4.82429,-1.367478 z m -5.63423,-0.404901 c 1.00974,-0.483544 2.26138,-1.384834 2.78142,-2.002866 l 0.94552,-1.123696 -1.72308,-0.524712 c -1.22762,-0.373835 -2.29516,-1.091334 -3.7126,-2.495268 -1.71317,-1.69685 -2.0476,-2.250367 -2.40773,-3.985079 -0.48817,-2.351513 -0.2706,-3.72431 0.91778,-5.790787 0.71679,-1.246439 2.31345,-2.559604 3.11219,-2.559604 0.1083,0 -0.27984,0.844768 -0.86254,1.877262 -3.05747,5.417533 -0.4171,10.822737 5.28676,10.822737 4.82457,0 8.23854,-4.53181 8.23854,-10.93611 0,-3.973887 -0.95586,-6.48087 -3.43371,-9.005755 -2.32952,-2.373738 -4.84719,-3.358127 -9.21455,-3.602819 -7.18948,-0.402807 -13.54803,2.953452 -16.02969,8.461011 -2.47414,5.490879 -2.31612,10.826575 0.46097,15.56532 0.96321,1.643597 3.60883,4.180391 5.24297,5.027296 3.26431,1.691761 7.21839,1.795604 10.39775,0.27307 z m 118.67146,-2.989073 c 1.08572,-1.827158 2.94467,-4.909606 4.131,-6.849884 l 2.15697,-3.527777 -9.24628,-0.176389 c -5.08545,-0.09701 -9.37087,-0.12391 -9.52316,-0.05977 -0.15229,0.06414 0.40334,1.049658 1.23472,2.190037 0.83139,1.14038 3.09911,4.293928 5.03939,7.007885 1.94028,2.713957 3.68653,4.890264 3.88056,4.836236 0.19402,-0.05403 1.24109,-1.593179 2.3268,-3.420338 z m 102.18682,-13.223607 c 6.12185,-3.050648 7.84416,-11.587015 4.03348,-19.991302 -1.95927,-4.321065 -7.00938,-8.724547 -11.64928,-10.157665 -4.95219,-1.529577 -9.03981,-0.770905 -12.32582,2.287704 l -1.99137,1.853558 1.38063,0.655152 c 3.36871,1.598558 5.68966,5.650464 5.36425,9.364899 -0.0954,1.089158 -0.51689,2.756033 -0.93662,3.704166 l -0.76313,1.723879 1.41721,1.322917 c 1.43276,1.33744 2.50285,1.706337 2.50285,0.862817 0,-1.019603 2.0686,-3.670032 3.33246,-4.269773 1.66869,-0.791843 1.93262,-0.522127 0.80288,0.820486 -2.26827,2.695688 -2.66554,7.126603 -0.88077,9.823575 1.91709,2.896926 6.15979,3.770338 9.71323,1.999587 z m -12.07584,-2.004748 c -0.45224,-0.824618 -0.928,-2.006458 -1.05724,-2.62631 -0.18917,-0.907317 -0.48823,-1.207083 -1.53415,-1.537804 -0.71455,-0.22594 -1.89187,-0.875101 -2.61627,-1.442581 -1.26722,-0.992708 -1.35072,-1.009753 -2.20487,-0.450095 -0.48827,0.319927 -0.88776,0.709903 -0.88776,0.866613 0,0.673049 7.9742,6.689482 8.86626,6.689482 0.14096,0 -0.11373,-0.674687 -0.56597,-1.499305 z m -76.18501,-2.699597 c 20.629,-2.794039 37.8666,-9.140129 52.59322,-19.362401 16.16884,-11.223368 26.36443,-23.78334 30.98848,-38.1748 1.2374,-3.85117 1.28211,-4.15324 0.8815,-5.95532 -1.43302,-6.44614 -6.77858,-17.49387 -11.19776,-23.14251 l -1.66092,-2.123 -0.60257,4.40972 c -1.40959,10.31557 -4.04529,17.50744 -9.3421,25.49118 -2.7466,4.13988 -8.32071,9.92676 -12.4438,12.91879 -7.83047,5.68241 -18.23034,9.288229 -29.69037,10.294189 -6.49119,0.569795 -11.24868,0.150481 -22.19651,-1.956347 -9.74488,-1.875332 -11.47529,-2.082252 -17.28611,-2.067072 -5.79172,0.0151 -8.76432,0.40201 -17.11857,2.22799 -8.6914,1.899668 -11.92424,2.230965 -19.7467,2.023621 -7.8268,-0.20746 -11.36823,-0.786927 -17.69939,-2.896071 -4.46343,-1.48693 -7.17184,-2.83899 -11.19508,-5.58864 -3.89004,-2.65861 -6.23826,-4.78729 -9.20565,-8.34501 -4.41573,-5.29418 -7.97773,-11.96609 -10.43367,-19.54309 -1.20656,-3.72245 -2.7497,-11.02935 -3.04358,-14.41163 -0.1138,-1.30968 -0.30294,-2.37626 -0.42032,-2.37016 -0.48249,0.0251 -4.03592,5.41778 -5.84434,8.86944 l -1.39758,2.6675 0.43365,4.36835 c 0.82988,8.3596 2.82102,15.26554 6.76602,23.46676 5.24868,10.91142 11.36012,18.914334 20.28994,26.569625 14.59006,12.507667 35.94965,20.998981 58.20833,23.140206 7.27484,0.69982 23.43041,0.427764 30.36388,-0.51132 z m 65.52844,-4.293208 c 1.82913,-0.507921 3.95155,-2.508065 4.67696,-4.407509 0.83185,-2.178183 0.53753,-5.601408 -0.65684,-7.639435 -2.75631,-4.703295 -9.78516,-4.270078 -12.33537,0.760281 -1.42857,2.81789 -1.36893,5.566513 0.17639,8.129921 1.83638,3.046213 4.63203,4.130535 8.13886,3.156742 z M 272.44948,-104.33054 c 1.94028,-0.38868 5.80493,-1.18082 8.58812,-1.76031 12.3444,-2.57022 18.76379,-2.34846 36.74382,1.26935 4.34834,0.87494 5.4681,0.95883 12.87639,0.96464 8.78046,0.007 11.89593,-0.41985 18.1116,-2.48078 12.98283,-4.30472 23.35385,-14.04631 28.47517,-26.74696 2.37749,-5.89609 4.03683,-14.55798 4.03683,-21.07259 v -2.72541 l -2.91041,-2.25381 c -9.70804,-7.51783 -19.01762,-12.46042 -30.77539,-16.33906 l -4.58163,-1.51138 -0.9778,1.18624 c -1.06752,1.29509 -2.42479,1.84275 -7.42329,2.99534 -3.68049,0.84868 -5.22848,0.89548 -6.57569,0.19881 -1.13419,-0.58651 -1.43634,-1.17395 -1.43634,-2.79253 0,-1.26204 1.81109,-3.26145 3.66964,-4.0512 1.78021,-0.75645 0.77193,-1.08057 -7.84903,-2.52306 -7.75669,-1.29789 -13.79114,-1.8012 -24.04283,-2.00533 -13.61818,-0.27117 -25.13983,0.59716 -36.09064,2.71997 -3.42645,0.66422 -4.35964,1.00336 -3.55653,1.29251 0.2162,0.0778 1.12026,0.60268 2.00901,1.16631 2.80704,1.78017 3.42272,4.4115 1.40378,5.9996 -1.22562,0.96407 -3.44186,0.92096 -8.23098,-0.16012 -4.3561,-0.98333 -5.59097,-1.52043 -6.68061,-2.90567 l -0.76105,-0.96752 -2.3569,0.81431 c -7.11103,2.45685 -15.63313,6.54446 -21.23052,10.18318 -3.47187,2.25698 -8.19676,5.89683 -9.64477,7.42992 l -1.00173,1.06057 0.40086,5.23939 c 1.08404,14.16861 5.0257,24.82125 12.81877,34.64369 5.05603,6.37266 14.62303,11.597 24.23798,13.23587 5.02197,0.85599 5.2941,0.8719 12.52361,0.73223 4.86097,-0.0939 7.67215,-0.32369 10.23056,-0.8362 z m -24.51806,-13.11152 c -2.71655,-0.52661 -6.60177,-2.68895 -8.82367,-4.91085 -4.25183,-4.25183 -6.51931,-11.16642 -5.66718,-17.28188 0.2298,-1.64923 0.79807,-3.83364 1.26283,-4.85423 1.03484,-2.27248 3.56456,-5.61265 5.3638,-7.08219 1.95124,-1.5937 0.74839,-1.40348 -3.00423,0.47509 -5.18778,2.59701 -8.00638,6.37245 -9.17111,12.28447 -0.47626,2.41743 -0.60247,2.6966 -0.88932,1.96719 -1.38406,-3.51931 -2.13035,-4.61052 -4.23196,-6.18786 -3.94577,-2.96145 -4.72414,-4.45826 -2.53221,-4.86947 0.6791,-0.1274 1.23472,-0.28761 1.23472,-0.35603 0,-0.0684 -0.39496,-0.81528 -0.87769,-1.65971 -0.84467,-1.47753 -1.1942,-3.94915 -0.60958,-4.31046 0.15214,-0.094 1.37901,0.13473 2.72639,0.50835 1.48971,0.41308 3.56994,0.6793 5.30804,0.6793 3.04507,0 2.77209,0.0969 8.32441,-2.95471 3.22028,-1.7699 7.09523,-2.71996 11.24261,-2.75648 5.89497,-0.0519 10.1106,1.71464 14.46246,6.06046 5.44901,5.44142 7.68216,12.75157 6.19779,20.28823 -0.82576,4.19262 -2.31678,6.93609 -5.46906,10.06297 -4.49672,4.4605 -9.16271,5.99974 -14.84704,4.89781 z m 2.65893,-19.53591 c 2.28936,-1.34166 3.69107,-3.75097 3.69107,-6.34436 0,-1.74226 -1.59658,-4.56722 -3.2152,-5.68893 -1.65614,-1.14771 -4.74078,-1.54654 -6.77325,-0.87577 -2.77403,0.91551 -5.1798,4.9161 -4.65109,7.73437 1.00309,5.34692 6.34573,7.87207 10.94847,5.17469 z m 86.77023,19.54242 c -3.33682,-0.49284 -7.44778,-2.71218 -9.92037,-5.35559 -3.64428,-3.89606 -5.41056,-8.64221 -5.42024,-14.56467 -0.0102,-6.23204 2.00529,-11.05923 6.48816,-15.53951 7.34796,-7.34371 16.63185,-8.07409 27.72139,-2.18089 3.86655,2.05476 4.16567,2.15291 6.52639,2.14149 1.36076,-0.007 3.42662,-0.28761 4.59078,-0.6245 2.86078,-0.82786 4.28576,-1.02544 4.53122,-0.62827 0.35098,0.5679 -0.4332,2.74847 -1.53579,4.27055 -0.58033,0.80113 -1.05515,1.53735 -1.05515,1.63604 0,0.0987 0.62563,0.17945 1.39029,0.17945 0.76466,0 1.48552,0.15408 1.60192,0.34241 0.44477,0.71966 -0.9525,2.47525 -3.49012,4.38511 -2.21405,1.66635 -2.82105,2.35749 -3.77845,4.30224 l -1.14063,2.31695 -0.59697,-2.94861 c -1.14264,-5.64392 -3.75117,-9.17895 -8.54303,-11.57735 -1.54595,-0.77378 -3.05473,-1.40686 -3.35284,-1.40686 -0.32764,0 0.2177,0.80229 1.37882,2.02847 2.4518,2.5892 3.20185,3.84122 4.38527,7.32014 1.26156,3.70864 1.3439,8.97809 0.19569,12.52361 -2.89652,8.94407 -11.40851,14.64525 -19.97634,13.37979 z m 2.95304,-20.6551 c 2.74084,-1.36582 3.74974,-3.06267 3.74974,-6.30664 0,-2.15456 -0.13986,-2.73231 -0.96224,-3.97501 -2.82249,-4.26507 -8.74022,-4.57389 -12.19729,-0.63651 -2.3932,2.72571 -2.2336,6.33308 0.40807,9.22308 2.47747,2.71037 5.7338,3.32356 9.00172,1.69508 z m -176.70908,29.61107 c 9.36066,-2.68633 19.29479,-9.27381 23.5567,-15.62082 2.33787,-3.48164 4.76204,-10.16857 4.24675,-11.71441 -0.0676,-0.2029 -0.68841,0.48179 -1.37951,1.52153 -2.25432,3.39156 -4.69113,6.18565 -7.40942,8.49576 -5.11638,4.34811 -7.74842,5.35949 -8.80584,3.38368 -0.54604,-1.02028 0.28645,-2.04829 3.25902,-4.02446 2.39743,-1.5938 6.34386,-5.21459 8.53225,-7.82821 1.0822,-1.29248 3.41305,-5.38723 3.41305,-5.99592 0,-0.27497 -0.50224,-0.24638 -1.67569,0.0954 -6.06876,1.7676 -15.39101,1.53542 -22.42181,-0.55845 -1.68588,-0.50207 -2.93866,-0.67098 -3.87093,-0.52191 -3.73253,0.59686 -11.72416,5.12463 -15.61082,8.84454 -2.69029,2.57486 -6.16241,6.93227 -6.16241,7.73363 0,0.73811 2.04763,0.90139 11.35626,0.90554 4.79074,0.002 8.79052,0.13347 8.88841,0.29186 0.0979,0.15839 -0.28812,2.20226 -0.85781,4.54193 -0.99589,4.09004 -1.81288,10.37569 -1.47196,11.32476 0.20984,0.58415 2.34611,0.29288 6.41376,-0.87446 z m 241.13602,-35.4242 c 0.3141,-2.59976 0.66389,-8.3863 0.77733,-12.85896 l 0.20624,-8.13213 -3.33469,-5.09704 c -5.58157,-8.53135 -9.52941,-13.06165 -17.55962,-20.15029 -20.36368,-17.97599 -53.6119,-28.87933 -88.01659,-28.86394 -12.14915,0.005 -20.31652,0.81584 -31.94847,3.17008 -17.35091,3.51171 -30.5693,8.97725 -44.45,18.37917 -2.23132,1.51135 -5.32694,3.76913 -6.87917,5.01729 -5.67306,4.56176 -15.04448,15.10015 -15.72338,17.68134 -0.61062,2.3216 -1.77729,28.4207 -1.27044,28.4207 0.12028,0 1.20307,-1.46844 2.40622,-3.2632 5.0654,-7.55617 8.03536,-10.90347 14.50192,-16.34437 6.39753,-5.38282 16.08404,-10.96374 24.42735,-14.07391 1.94028,-0.72329 4.45292,-1.70305 5.58365,-2.17725 7.67237,-3.21758 24.01811,-6.42626 38.3195,-7.52213 13.70862,-1.05045 33.25808,0.0797 46.23156,2.67261 9.76915,1.9525 23.30708,6.05368 30.69167,9.29774 15.53409,6.82415 27.88275,16.50597 36.91283,28.94106 1.69331,2.33181 5.93891,9.91323 6.51934,11.64167 0.7958,2.36976 1.14261,2.39092 1.60669,0.098 0.23484,-1.16029 0.68396,-4.23669 0.99806,-6.83645 z m -219.91077,-1.37497 c 1.28625,-0.18608 2.76166,-0.49915 3.2787,-0.69573 l 0.94006,-0.35741 -1.16203,-0.98941 c -2.87964,-2.45185 -6.47121,-4.79948 -9.52781,-6.22783 -1.82515,-0.8529 -3.52043,-1.7941 -3.76729,-2.09154 -0.57004,-0.68686 -0.20598,-1.87093 0.72912,-2.37139 1.55825,-0.83394 6.72331,1.42896 11.48096,5.03001 1.24679,0.9437 2.4142,1.62477 2.59424,1.51349 0.41235,-0.25484 0.41119,-3.43114 -0.002,-5.21091 -0.43639,-1.88015 -1.80842,-3.73752 -5.51601,-7.46725 -4.66555,-4.69343 -8.89254,-7.34517 -14.88497,-9.33785 -8.38437,-2.78809 -17.6078,-2.28246 -25.75558,1.41192 -1.32924,0.6027 -2.19428,1.1811 -1.97565,1.32098 0.21391,0.13685 0.74947,0.9632 1.19014,1.83633 1.54324,3.05768 3.43816,5.50262 8.9942,11.60481 6.05219,6.64713 13.6792,10.69751 22.57853,11.99051 2.93188,0.42597 8.0119,0.44538 10.8053,0.0413 z m 220.45092,-32.20888 c -1.22325,-10.66382 -6.0939,-26.29969 -11.62257,-37.31105 -7.33478,-14.60856 -17.79199,-26.53028 -31.01078,-35.35381 -13.65503,-9.11471 -28.32294,-14.30776 -47.159,-16.69625 -6.22393,-0.78921 -19.73917,-0.78204 -26.45833,0.014 -20.56583,2.43664 -38.4275,9.34764 -52.68077,20.38314 -4.37637,3.38837 -14.46575,13.30361 -17.68036,17.3752 -5.44327,6.89437 -10.22438,14.91903 -13.28354,22.2952 -2.66091,6.41591 -5.61084,16.10729 -6.31788,20.75609 l -0.21462,1.41111 1.52053,-1.64791 c 0.8363,-0.90636 2.38051,-2.61224 3.43159,-3.79086 3.89482,-4.36744 12.94636,-11.64368 20.00071,-16.07792 14.93368,-9.38705 34.71287,-15.57519 57.63962,-18.0332 6.54535,-0.70174 22.60484,-0.79234 29.28055,-0.16519 8.50602,0.79909 19.49126,2.73116 27.51667,4.8396 27.96778,7.34771 51.51867,22.72489 64.41068,42.05592 1.53641,2.30379 2.84901,4.04374 2.91688,3.86656 0.0679,-0.17718 -0.0623,-1.94148 -0.28938,-3.92068 z"
       id="path129" /></g></svg>
