<?xml version="1.0" encoding="UTF-8" standalone="no"?>
<!-- Created with Inkscape (http://www.inkscape.org/) -->

<svg
   width="267.94394mm"
   height="294.88599mm"
   viewBox="0 0 267.94395 294.88595"
   version="1.1"
   id="svg1"
   xml:space="preserve"
   xmlns="http://www.w3.org/2000/svg"
   xmlns:svg="http://www.w3.org/2000/svg"><defs
     id="defs1"><clipPath
       clipPathUnits="userSpaceOnUse"
       id="clipPath6"><path
         id="path7"
         style="fill:#ff0000;fill-opacity:1;fill-rule:nonzero;stroke:none;stroke-width:0.264583"
         d="M -175.07778,-16.057127 V 287.55793 H 124.54631 V -16.057127 Z m 132.7459,202.572647 c 0.210643,0.005 0.427212,0.0169 0.650089,0.0367 2.23823,0.19855 4.475655,0.4031 6.717938,0.55346 1.973313,0.11308 0.986628,0.0436 2.958475,0.20825 3.181295,0.26563 4.740125,1.85116 4.950601,3.46956 4.949923,1.63749 3.796379,7.35609 -2.592089,6.81354 -3.228716,-0.27422 -1.569593,-0.1301 -4.979024,-0.43357 -4.228209,-0.39317 -8.460616,-0.76265 -12.666927,-1.35341 -6.647387,-0.93358 -5.930551,-7.21034 0.03204,-7.20421 0.04685,5e-5 0.0972,0.004 0.144695,0.005 0.687229,-1.21692 2.304132,-2.15435 4.784204,-2.09548 z" /></clipPath><clipPath
       clipPathUnits="userSpaceOnUse"
       id="clipPath76"><path
         id="path77"
         style="fill:#ff0000;fill-opacity:1;fill-rule:nonzero;stroke:none;stroke-width:0.264583"
         d="M -133.83107,-122.52355 V 173.82063 H 122.97289 V -122.52355 Z M 13.574404,98.948202 c 2.788179,0.0507 4.135003,2.063798 3.398242,4.077268 0.199805,0.45372 0.374906,0.96736 0.517797,1.54461 1.07913,4.35948 0.671079,8.891 0.311608,13.31495 -0.351859,3.06036 -0.147137,1.57974 -0.604097,4.44366 -0.359666,2.25418 -1.333846,3.66838 -2.455664,4.32532 0.105138,0.36595 0.224724,0.72888 0.324528,1.09554 0.6273,2.23652 0.575201,4.47401 0.39429,6.75514 -0.137303,1.73129 -0.688065,2.99533 -1.427303,3.82199 -0.112477,0.41601 -0.170275,0.80219 -0.311092,1.25212 -0.184975,0.59102 -0.413327,1.1061 -0.670242,1.55856 0.741137,-0.23134 1.446982,-0.38145 2.064991,-0.37517 4.085002,0.0415 5.222724,4.75435 -0.02223,7.27138 -4.46677,2.14368 -9.303523,3.34693 -14.11903492,4.40955 -4.40876268,0.85156 -8.89238128,1.33053 -13.38264308,1.19269 -5.804014,-0.17807 -6.736297,-5.00293 -3.065447,-6.67298 -2.072987,-0.65744 -4.042852,-1.62261 -4.128947,-3.14709 -0.02802,-0.49633 0.0026,-0.90355 0.0341,-1.30897 -1.976731,-0.003 -3.95339,2.4e-4 -5.930386,0.003 -0.814031,0 -1.53062,-0.0962 -2.159559,-0.26149 -0.376306,0.19492 -0.742394,0.40783 -1.120862,0.59893 -6.391272,3.22657 -9.625245,-3.24074 -3.234428,-6.46886 1.833438,-0.92611 3.62694,-1.92211 5.414142,-2.92954 -0.877003,-3.87058 -1.368747,-7.83436 -1.323951,-11.80858 0.01651,-1.46304 0.376836,-2.54918 0.864547,-3.41426 -1.247357,-1.79999 -0.223805,-4.63069 3.842661,-5.68855 3.11826,-0.81116 6.282901,-1.39515 9.473837,-1.82211 -1.259816,-0.12657 -2.516182,-0.30233 -3.764627,-0.50177 -1.477002,-0.21985 -2.935575,-0.54305 -4.407482,-0.7891 -1.14214,-0.22954 -0.588502,-0.12004 -1.660882,-0.3297 -3.350244,-0.65501 -4.783278,-2.61088 -4.608504,-4.32997 -0.200179,-1.7721 1.333365,-3.52972 4.663799,-3.59461 v -5.3e-4 c 0.20954,-0.004 0.426035,-0.002 0.649571,0.008 1.77111,0.0772 3.528708,0.28204 5.26428,0.64027 1.655035,0.33225 3.314115,0.6481 4.955251,1.04439 1.244759,0.34858 2.51628,0.54538 3.7997689,0.6723 0.025956,0.002 0.052073,0.002 0.078034,0.004 0.4990888,-0.0371 0.9984105,-0.0743 1.4965495,-0.11317 1.346872,-0.12588 2.6913231,-0.25136 4.0457464,-0.24236 1.1278499,-0.0444 2.2567291,-0.10772 3.37498791,-0.26872 0.75719517,-0.11591 1.51142439,-0.25483 2.25722659,-0.4284 0.3616431,-0.12394 0.7240561,-0.24538 1.083138,-0.37775 0.3360393,-0.12388 0.6107589,-0.12825 0.9250071,-0.20723 0.1281086,-0.045 0.2583895,-0.0825 0.3855085,-0.13074 1.9825018,-0.7681 3.9540551,-1.56464 5.9510551,-2.29443 1.050809,-0.383992 1.999634,-0.542639 2.826703,-0.527616 z M 0.70283723,110.39557 c -0.45566013,0.0949 -0.90775367,0.208 -1.36890919,0.2744 -1.16638124,0.15534 -2.34111274,0.24237 -3.51761424,0.26251 0.4031694,0.0896 0.8047355,0.18876 1.2025101,0.308 0.1014836,0.0304 0.1982549,0.075 0.2986907,0.10852 0.4205235,-0.21824 0.9206601,-0.35072 1.4898318,-0.37156 0.39885139,-0.0146 0.83259872,0.0278 1.29449508,0.13023 0.22468681,-0.12213 0.44967525,-0.24374 0.67437529,-0.36587 -0.0326284,-0.11319 -0.058211,-0.22834 -0.0733795,-0.34623 z m 10.24433577,1.02474 c -0.76023,0.21437 -1.5189569,0.4343 -2.2696301,0.68006 -0.031261,0.62207 -0.2256075,1.28373 -0.6464723,1.94355 0.6236891,0.43248 1.2549743,1.04482 1.8634525,1.86862 0.2674939,0.36214 0.4748849,0.75712 0.7188199,1.13223 0.154519,-1.86707 0.314174,-3.74736 0.33383,-5.62446 z m 64.566086,3.39773 c 1.50346,0.0187 3.129182,1.24994 3.928441,4.04678 0.257931,0.90255 0.823497,1.65871 1.488797,2.30735 0.856321,0.95375 1.845738,1.76777 2.801898,2.61638 1.458581,1.46408 2.789203,3.04608 4.169772,4.58215 1.315059,1.44746 2.571226,2.91698 3.543967,4.61884 0.0053,0.01 0.0082,0.0206 0.01344,0.0305 0.734605,-0.43313 1.446276,-0.65634 2.094962,-0.69195 3.016182,-0.16561 4.69137,3.55377 1.187525,7.32306 -1.69471,1.82311 -3.657862,3.33908 -5.68751,4.7651 -0.777873,0.49914 -1.607691,0.90075 -2.418456,1.33842 0.165478,1.44344 -0.672182,3.24303 -2.956409,4.73096 -1.354556,0.88234 -2.690448,1.79306 -4.075203,2.6288 -2.075008,1.20078 -4.233777,2.27962 -6.540687,2.96259 -2.077586,0.62971 -4.169056,1.29987 -6.359301,1.36374 -1.872114,0.0897 -3.746989,0.0368 -5.620845,0.0501 h -5.1108 -5.524728 c -7.160125,0 -7.160125,-7.23315 0,-7.23315 h 1.347722 c 0.29438,-0.0541 0.5212,-0.1588 0.84801,-0.18656 1.106628,-0.094 2.200932,-0.28334 3.292822,-0.48421 0.456121,-0.98163 1.356053,-1.98213 2.807581,-2.83962 1.078018,-0.63685 2.158119,-1.26923 3.212209,-1.94561 1.962647,-1.29302 3.840588,-2.72135 5.893696,-3.86902 1.367169,-0.76424 2.559646,-1.07097 3.526915,-1.04128 2.216811,0.068 3.246223,1.90266 2.479953,4.04059 1.105688,-0.48686 2.206929,-0.98346 3.283003,-1.53739 2.619811,-1.23728 5.288743,-2.38548 7.764385,-3.9026 0.246153,-0.17184 0.487463,-0.34958 0.730705,-0.52503 -0.126915,-0.50614 -0.277693,-0.9939 -0.512114,-1.46554 -0.647621,-1.25778 -1.721077,-2.20654 -2.600875,-3.29644 -1.199229,-1.33472 -2.369312,-2.69496 -3.592029,-4.00803 -1.098706,-0.97599 -2.227236,-1.92181 -3.215306,-3.01428 -1.300821,-1.39063 -2.459913,-2.93896 -3.045293,-4.77801 -1.289469,-4.05101 0.646382,-6.61405 2.843754,-6.58667 z m -95.086705,4.28035 c -0.465643,0.10748 -0.930899,0.21773 -1.394745,0.33435 0.171958,0.64334 0.283575,1.36624 0.279569,2.2071 -0.01267,2.6582 0.205063,5.32647 0.670242,7.94732 0.280107,-0.17087 0.565767,-0.33222 0.845429,-0.50385 -0.01897,-0.36223 -0.02445,-0.73164 -0.05529,-1.08985 -0.118034,-2.96491 -0.160888,-5.93314 -0.3452,-8.89507 z m 18.5141159,1.1958 c 0.00497,0.0773 0.00619,0.15612 0.014975,0.23202 -0.1238779,0.22787 -0.2588048,0.44752 -0.3937741,0.66715 0.58900751,0.0447 1.13203305,0.21413 1.64331124,0.45888 -0.37615284,-0.49255 -0.78353709,-0.94642 -1.26452314,-1.35805 z m -6.5422357,14.57068 c -0.046649,0.0755 -0.09888,0.14702 -0.1436608,0.22376 -0.03147,0.054 0.1963367,0.0838 0.1860365,0.0222 -0.017595,-0.10481 -0.026035,-0.14905 -0.042376,-0.24597 z m 13.9236979,6.08439 c -0.2236258,0.5643 -0.5677508,1.09664 -1.1782213,1.50533 0.9079653,0.17659 1.7077452,0.44257 2.2830631,0.84852 0.1405493,-0.0459 0.272804,-0.11448 0.4128956,-0.16174 -0.7336976,-0.43656 -1.2984269,-1.18703 -1.5177374,-2.19211 z" /></clipPath><clipPath
       clipPathUnits="userSpaceOnUse"
       id="clipPath127"><path
         id="path128"
         style="fill:#ff0000;fill-opacity:1;fill-rule:nonzero;stroke:none;stroke-width:0.264583"
         d="M -112.24796,-126.55676 V 185.58027 H 148.5754 V -126.55676 Z M 46.874626,83.305366 c 1.808208,0 3.616317,1.790192 3.616317,5.370214 v 5.232238 c 0.0627,2.146078 -0.111291,4.285324 -0.245462,6.424932 -0.136289,2.02485 -0.190703,4.04985 -0.104904,6.07715 0.192061,1.91863 0.527714,3.82569 0.876432,5.72213 0.304242,2.00862 0.765826,3.9858 1.180806,5.97276 0.41642,1.86142 0.967934,3.68703 1.421104,5.53972 0.25287,0.86996 0.117097,0.46495 0.396356,1.22008 0.186108,0.50319 0.223428,0.93098 0.309544,1.38441 4.425355,2.23251 2.751262,7.58433 -3.415813,6.40477 -3.104732,-0.59371 -6.256094,-0.76586 -9.40821,-0.85576 -3.81635,0.009 -7.630525,0.17062 -11.44478,0.28216 -1.12776,0.0333 -2.255837,0.0512 -3.383772,0.0754 -0.908129,0.5548 -1.966518,0.57724 -2.88613,0.0641 -0.03584,5.3e-4 -0.07165,0.002 -0.107487,0.003 -0.03142,5.3e-4 -0.0525,-0.009 -0.08268,-0.009 -0.32049,0.14732 -0.641715,0.29301 -0.962215,0.44028 -0.262501,0.12062 -0.518089,0.22111 -0.770496,0.31265 -0.876996,0.71434 -1.945576,0.85817 -2.911967,0.46405 -2.943479,-0.21613 -4.295167,-2.77187 -2.550232,-5.0524 -2.22e-4,-0.028 -0.0078,-0.0483 -0.0078,-0.0765 v -6.3469 c -0.014,-2.72977 -0.02254,-5.45666 0.112657,-8.18348 0.135676,-2.32533 0.233519,-4.6523 0.299723,-6.98046 0.046,-1.80459 0.06926,-3.60958 0.08527,-5.41465 -0.0258,-1.02998 0.04009,-2.054459 0.138491,-3.078883 0.0044,-0.04602 0.02191,-0.07504 0.02687,-0.120406 C 15.992671,97.193438 15.83363,95.70984 16.656834,94.418959 10.68718,93.678613 10.992573,87.32947 17.739972,87.32947 h 3.885033 5.177462 5.913334 c 1.498505,0.05847 2.984222,-0.03228 4.475178,-0.161748 1.252041,-0.18606 2.49041,-0.398671 3.697968,-0.782897 1.001961,-0.32245 0.492366,-0.161472 1.527553,-0.482142 0.510384,-0.158096 0.938446,-0.174371 1.394749,-0.23771 0.672338,-1.56932 1.86623,-2.35903 3.063377,-2.35903 z" /></clipPath></defs><g
     id="layer1"
     transform="translate(-151.85656,143.68375)"><path
       style="fill:#000000"
       d="m 245.67491,150.5844 c -4.78825,-1.41864 -7.16009,-4.73483 -7.16009,-10.01091 0,-1.3543 0.23241,-3.3584 0.51647,-4.45356 0.78419,-3.02332 3.08301,-8.44044 5.28924,-12.46395 1.08834,-1.9848 2.07614,-3.99659 2.19512,-4.47064 0.2129,-0.84825 0.19174,-0.85696 -1.33461,-0.5499 -0.85302,0.17161 -2.74157,0.31467 -4.19677,0.31793 -2.27425,0.005 -2.74493,0.11508 -3.35139,0.78322 -0.83079,0.91527 -3.90044,2.57408 -4.76337,2.57408 -0.5502,0 -0.56103,0.15537 -0.12733,1.82734 0.75031,2.89252 0.22571,4.17546 -3.01765,7.37984 -2.86021,2.82584 -5.46164,4.20724 -7.89169,4.19063 -2.72467,-0.0186 -5.27549,-2.11662 -7.92562,-6.51864 -1.56364,-2.59731 -5.49813,-7.91076 -7.44488,-10.05417 -1.4983,-1.64965 -2.86858,-4.12538 -2.87792,-5.19962 -0.003,-0.34167 -0.1453,-0.84214 -0.3163,-1.11218 -0.25738,-0.40644 -0.48419,-0.36868 -1.31751,0.21934 -3.6398,2.56839 -6.98559,3.21825 -9.62818,1.8701 -2.81219,-1.43468 -3.90116,-5.12129 -2.48509,-8.41304 0.7458,-1.73365 3.33276,-4.5226 5.5312,-5.96308 0.44713,-0.29296 0.81295,-0.697156 0.81295,-0.898206 0,-0.20105 -1.72844,-3.238729 -3.84097,-6.750399 C 181.47838,74.832438 172.80955,58.25367 165.39069,41.348181 159.68455,28.345474 154.0322,11.592405 152.08826,1.9209007 c -0.30772,-1.5309361 -0.3088,-2.33524794 -0.004,-3.2576778 1.09389,-3.3145164 5.24783,-3.5633861 7.4684,-0.4474452 0.45148,0.6335179 5.51514,10.4387249 11.25258,21.7893493 10.43387,20.641747 13.92191,27.230499 20.54342,38.805552 5.81448,10.164284 17.38223,29.194966 18.40301,30.275697 0.36139,0.382623 0.82787,0.21536 2.60778,-0.935049 2.72769,-1.762992 5.06565,-2.373323 7.0473,-1.83972 1.69488,0.456382 3.58622,1.93863 3.58622,2.810522 0,1.110238 0.43295,1.086877 2.07971,-0.112217 0.89345,-0.650573 2.28574,-1.516681 3.09397,-1.924685 1.07172,-0.541014 1.53106,-1.022058 1.69689,-1.777057 0.45742,-2.082622 6.59572,-6.860506 12.37916,-9.635593 1.631,-0.782611 2.89317,-1.539898 2.80481,-1.682861 -0.0884,-0.142962 -1.15771,-0.622748 -2.37634,-1.06619 -5.72293,-2.082485 -13.70002,-6.53925 -17.47125,-9.76111 l -1.85899,-1.588183 -1.08311,0.911381 c -2.17197,1.827593 -4.17253,1.563032 -7.67439,-1.014886 -3.25131,-2.393484 -9.4075,-8.47428 -12.10375,-11.955523 -8.88515,-11.472006 -15.02271,-27.014239 -16.5845,-41.99717 -0.23468,-2.2514044 -0.53216,-4.0934625 -0.66106,-4.0934625 -0.1289,0 -0.58243,2.1828123 -1.00784,4.8506941 -0.42541,2.6678814 -0.93756,5.5882364 -1.1381,6.4896764 -0.66507,2.989416 -3.01773,4.198177 -5.25076,2.697759 -1.06471,-0.7154 -1.4375,-1.389054 -2.70745,-4.89251 -3.59583,-9.9199994 -4.51581,-15.8410388 -4.23416,-27.251355 0.1111,-4.501337 0.43636,-9.601633 0.72366,-11.347633 0.28702,-1.744284 0.45714,-3.236146 0.37803,-3.315249 -0.0791,-0.0791 -1.77404,0.296537 -3.76653,0.834756 -1.9925,0.538219 -4.97586,1.057865 -6.62971,1.15477 -2.86307,0.167757 -3.06023,0.131397 -4.1192,-0.759672 -1.38242,-1.163228 -1.74938,-2.618859 -1.01715,-4.034819 0.29945,-0.579073 1.75593,-2.138472 3.23662,-3.465332 4.01814,-3.600677 7.21598,-7.779529 9.87747,-12.907578 1.28393,-2.473836 3.34982,-6.099364 4.59086,-8.056728 1.24105,-1.957364 2.25645,-3.685603 2.25645,-3.840531 0,-0.154928 -0.75406,-0.388216 -1.6757,-0.518418 -5.58497,-0.789006 -12.20552,-3.392313 -13.97497,-5.495183 -1.2596,-1.496952 -1.30319,-3.884745 -0.093,-5.094931 0.87636,-0.876364 2.90938,-1.595177 4.52108,-1.598521 1.38648,-0.0029 5.31815,-0.967234 7.81535,-1.916941 4.47305,-1.701139 7.60542,-3.792794 14.57676,-9.733721 2.29697,-1.95746 5.55632,-4.62197 7.24301,-5.921133 1.68668,-1.299163 3.07574,-2.445852 3.0868,-2.548197 0.0111,-0.102345 -1.05145,-0.642672 -2.36114,-1.200726 -3.20212,-1.364414 -6.26193,-3.216709 -7.12392,-4.312553 -0.96835,-1.231057 -1.2532,-3.016557 -0.67082,-4.204877 0.90814,-1.85304 1.88408,-2.22995 7.70878,-2.97717 7.28344,-0.93435 11.01349,-2.14256 18.27265,-5.91877 10.30739,-5.36189 14.24138,-7.17727 18.94317,-8.74152 4.45314,-1.48153 10.80916,-2.97358 12.66722,-2.97358 1.34266,0 1.12338,-0.41968 -0.73417,-1.40511 -0.90689,-0.48111 -2.17689,-1.3727 -2.82222,-1.98133 -0.99558,-0.93895 -1.17333,-1.35003 -1.17333,-2.71356 0,-2.02239 1.23431,-3.64645 3.02695,-3.98275 4.5404,-0.85179 28.58761,5.22729 45.50847,11.50443 3.89449,1.44474 4.94564,1.69229 4.0269,0.94835 -2.03264,-1.6459 -7.06839,-8.33642 -9.66165,-12.8365 -1.98902,-3.45154 -2.56392,-5.57483 -1.98466,-7.32998 0.43386,-1.31463 1.80461,-2.31188 3.17774,-2.31188 0.90112,0 3.06157,1.07639 5.64791,2.81392 5.56024,3.73544 14.87315,9.09583 24.51806,14.11228 9.97775,5.18957 17.23722,9.05129 19.16731,10.19617 l 1.8812,1.11588 2.17574,-1.63836 c 1.19666,-0.9011 2.37418,-1.71544 2.61672,-1.80965 0.24253,-0.0942 0.44097,-0.31914 0.44097,-0.49985 0,-0.45572 3.99783,-6.35874 5.34764,-7.89608 2.11974,-2.41425 4.47801,-2.9273 6.6531,-1.4474 1.20559,0.82026 1.66966,1.53215 6.46917,9.92392 1.22067,2.13431 3.35712,5.66869 4.74766,7.85418 3.28965,5.1703 4.5988,7.8227 6.52141,13.21267 0.17087,0.479039 0.97565,-0.158312 3.84757,-3.04712 5.30796,-5.33917 10.27995,-8.40113 17.21344,-10.60076 5.35494,-1.69883 8.56511,-1.18701 9.96543,1.58887 1.38891,2.75328 0.62708,4.77496 -4.95488,13.148761 -1.78566,2.678769 -3.24666,4.937027 -3.24666,5.018351 0,0.08133 0.41017,-0.0081 0.91148,-0.198681 4.53759,-1.725188 11.2895,-2.047563 14.75427,-0.704454 4.04456,1.567863 5.79892,4.29341 6.93225,10.769849 0.23768,1.358194 1.05895,4.440287 1.82506,6.849096 1.59439,5.013131 2.00216,8.499734 1.32825,11.35729 -1.44078,6.109364 -6.84752,11.750523 -14.83235,15.475446 -1.44577,0.674453 -2.69595,1.270887 -2.77816,1.325408 -0.0822,0.05452 1.22526,1.487071 2.90551,3.183443 5.35303,5.404389 8.65021,10.744058 10.79338,17.479516 2.68946,8.452266 1.91061,17.7639284 -1.74295,20.8381964 -1.16035,0.9763674 -3.29822,1.2565981 -4.53537,0.5944941 -0.34101,-0.1825046 -1.94114,-1.9321445 -3.55585,-3.8880886 -1.6147,-1.9559439 -2.99541,-3.4966739 -3.06824,-3.4238429 -0.0728,0.07283 0.0604,1.703408 0.29608,3.6235054 0.68705,5.5975475 0.57415,18.3069738 -0.20023,22.5410846 -1.51175,8.265884 -4.84475,14.916074 -10.3789,20.708608 -4.01238,4.199714 -8.82151,6.959894 -14.69151,8.432132 l -2.97148,0.745269 -0.21027,1.990328 c -1.04823,9.922115 -4.73272,20.420647 -7.90883,22.53529 -1.67456,1.114916 -3.55469,1.057053 -4.99356,-0.153683 -1.04804,-0.881863 -3.17387,-4.751465 -4.68388,-8.525957 l -0.61618,-1.540232 -2.01495,3.272581 c -1.35279,2.197123 -3.37716,4.688726 -6.16009,7.581856 -2.27983,2.3701 -4.14514,4.381968 -4.14514,4.470817 0,0.08885 0.88014,0.767717 1.95586,1.508596 2.4722,1.702673 4.97885,4.472495 5.27731,5.831384 0.15537,0.707358 0.59162,1.217557 1.34892,1.577575 1.8959,0.901294 5.09145,3.613599 6.7558,5.73415 1.71244,2.181823 2.65377,4.441613 2.65377,6.370695 0,0.996779 0.37543,1.616446 2.08934,3.448623 2.95684,3.160864 4.74202,6.882544 4.91153,10.239354 0.1818,3.60021 -0.60521,5.78697 -2.90962,8.08454 -1.83206,1.82662 -4.74618,3.2091 -8.57143,4.06636 -1.04318,0.23378 -1.87954,0.71366 -2.47298,1.41892 -3.73989,4.44461 -11.56795,3.22893 -14.34961,-2.22846 -0.97438,-1.91167 -1.10827,-2.02848 -2.32515,-2.02848 -2.03157,0 -4.77626,-0.96847 -6.00947,-2.12046 -0.62089,-0.57999 -1.20571,-1.05454 -1.29961,-1.05454 -0.0939,0 -0.46404,-0.35718 -0.82254,-0.79375 -0.52827,-0.64331 -0.773,-0.71972 -1.29127,-0.40316 -1.35379,0.82691 -0.9137,2.60814 2.43117,9.83997 5.10912,11.04626 6.14808,17.43643 3.63974,22.3864 -1.02374,2.02025 -2.50836,3.34152 -5.12287,4.5592 -1.74365,0.81209 -2.45865,0.91657 -7.05556,1.03104 -5.10687,0.12715 -7.07018,-0.0488 -18.87361,-1.69189 -12.46155,-1.73466 -24.73202,-1.60922 -35.98333,0.36784 -5.29239,0.92997 -7.49574,1.13844 -13.22916,1.25171 -5.91457,0.11684 -7.18604,0.045 -9.06769,-0.51252 z m 19.12185,-7.41936 c 7.43247,-1.41347 10.65707,-1.74588 18.69723,-1.92743 9.75801,-0.22033 16.10242,0.23481 24.16527,1.73359 10.96757,2.03873 18.34352,2.03965 20.71173,0.003 0.76692,-0.65968 0.95832,-1.1736 1.08396,-2.91045 0.15339,-2.12059 -0.61605,-5.74225 -1.83697,-8.64638 l -0.54679,-1.30064 -1.50388,0.83854 c -5.02074,2.79947 -19.37251,5.90206 -31.66638,6.84568 -12.5353,0.96215 -30.91533,-1.49925 -42.98448,-5.75637 -1.42529,-0.50274 -2.70576,-0.91407 -2.84549,-0.91407 -0.38974,0 -2.51491,6.54304 -2.73859,8.43165 -0.27428,2.31588 0.50972,3.77707 2.26884,4.22861 0.7263,0.18643 1.63806,0.42274 2.02611,0.52514 1.81772,0.47964 9.76855,-0.12336 15.16944,-1.15048 z m 35.63272,-10.09353 c 8.16906,-0.94105 18.18047,-3.28221 23.15411,-5.41457 1.82486,-0.78238 2.29585,-1.29048 1.78176,-1.92214 -0.19047,-0.23403 -0.77645,-1.45739 -1.30217,-2.71857 -0.52572,-1.26118 -0.99525,-2.33591 -1.0434,-2.38829 -0.0482,-0.0524 -1.57929,0.3214 -3.40251,0.83062 -13.02333,3.63736 -29.27817,5.11248 -44.23717,4.01452 -5.93614,-0.43571 -14.64895,-1.79692 -19.16964,-2.99489 -1.81205,-0.48019 -3.42489,-0.87307 -3.58408,-0.87307 -0.31088,0 -3.17545,5.03998 -3.17545,5.58695 0,0.78559 9.90593,3.67679 16.58056,4.83929 6.36334,1.10828 11.49781,1.48847 20.63966,1.52826 6.11846,0.0266 10.70126,-0.13595 13.75833,-0.48811 z m -18.25209,-3.96095 c 0.63406,-0.0785 1.58656,-0.0769 2.11666,0.004 0.5301,0.0805 0.0113,0.14473 -1.15284,0.14275 -1.16417,-0.002 -1.59789,-0.0678 -0.96382,-0.14635 z m 4.4034,-0.001 c 0.7276,-0.0761 1.91823,-0.0761 2.64583,0 0.72761,0.0761 0.1323,0.13838 -1.32291,0.13838 -1.45521,0 -2.05052,-0.0623 -1.32292,-0.13838 z m 3.53263,-0.70171 c 0.53624,-0.0811 1.32999,-0.0789 1.76389,0.005 0.43389,0.0837 -0.005,0.15008 -0.97499,0.14743 -0.97014,-0.003 -1.32515,-0.0712 -0.7889,-0.15224 z m 3.25834,-0.0996 c 0.11992,-0.19403 0.29741,-0.35278 0.39442,-0.35278 0.097,0 0.0783,0.15875 -0.0416,0.35278 -0.11992,0.19402 -0.2974,0.35277 -0.39442,0.35277 -0.097,0 -0.0783,-0.15875 0.0416,-0.35277 z m -15.41198,-0.24099 c 0.25467,-0.10191 0.55894,-0.0894 0.67616,0.0279 0.11723,0.11722 -0.0911,0.2006 -0.46302,0.18528 -0.41097,-0.0169 -0.49456,-0.10052 -0.21314,-0.21313 z m 1.58142,0.0192 c 0.37247,-0.37247 6.63963,-0.4828 6.411,-0.11286 -0.11374,0.18403 -1.65264,0.33461 -3.41978,0.33461 -1.76713,0 -3.11318,-0.0998 -2.99122,-0.22175 z m 6.9514,-0.13103 c 0,-0.19403 0.75406,-0.334 1.67569,-0.31104 1.49576,0.0373 1.56205,0.0707 0.61736,0.31104 -1.56042,0.39706 -2.29305,0.39706 -2.29305,0 z m 8.11388,0.17639 c 0,-0.097 0.0794,-0.17639 0.17639,-0.17639 0.097,0 0.17639,0.0794 0.17639,0.17639 0,0.097 -0.0794,0.17639 -0.17639,0.17639 -0.097,0 -0.17639,-0.0794 -0.17639,-0.17639 z m -20.81388,-0.35278 c 0,-0.097 0.0794,-0.17639 0.17639,-0.17639 0.097,0 0.17638,0.0794 0.17638,0.17639 0,0.097 -0.0794,0.17639 -0.17638,0.17639 -0.097,0 -0.17639,-0.0794 -0.17639,-0.17639 z m 16.34537,-0.0588 c 0.12935,-0.12935 0.34101,-0.12935 0.47037,0 0.12935,0.12935 0.0235,0.23519 -0.23519,0.23519 -0.2587,0 -0.36454,-0.10584 -0.23518,-0.23519 z m -14.29485,-0.35858 c 0.25466,-0.1019 0.55893,-0.0894 0.67616,0.0279 0.11722,0.11723 -0.0911,0.20061 -0.46303,0.18529 -0.41096,-0.0169 -0.49455,-0.10052 -0.21313,-0.21314 z m 1.92494,-0.003 c 0.34324,-0.0894 0.81949,-0.0836 1.05833,0.0131 0.23885,0.0966 -0.042,0.16982 -0.62407,0.16263 -0.58208,-0.007 -0.7775,-0.0863 -0.43426,-0.1757 z m 14.97847,-0.0101 c 0.62627,-0.0779 1.73752,-0.0792 2.46945,-0.003 0.73193,0.0764 0.21953,0.14013 -1.13866,0.1417 -1.3582,0.002 -1.95705,-0.0609 -1.33079,-0.13885 z M 272.38149,127.074 c 0,-0.097 0.0794,-0.17639 0.17639,-0.17639 0.097,0 0.17638,0.0794 0.17638,0.17639 0,0.097 -0.0794,0.17639 -0.17638,0.17639 -0.097,0 -0.17639,-0.0794 -0.17639,-0.17639 z m 26.22314,-0.0588 c 0.12935,-0.12935 0.34102,-0.12935 0.47037,0 0.12935,0.12935 0.0235,0.23518 -0.23518,0.23518 -0.25871,0 -0.36454,-0.10583 -0.23519,-0.23518 z m -74.33669,1.56114 c 1.44342,-1.12146 2.2271,-2.10959 2.2407,-2.82526 0.0165,-0.8663 -0.39973,-0.77398 -1.90554,0.42269 -0.71981,0.57203 -1.77351,1.24579 -2.34156,1.49723 -0.99774,0.44164 -1.28703,0.97147 -0.79764,1.46086 0.47765,0.47766 1.81536,0.21263 2.80404,-0.55552 z m -2.32739,-3.44665 c 2.63683,-1.69205 2.8839,-2.07459 2.22225,-3.44073 -0.30402,-0.62775 -0.68415,-1.14135 -0.84474,-1.14135 -0.16058,0 -1.39897,0.73457 -2.75198,1.63237 l -2.46002,1.63238 0.76758,1.18548 c 0.42216,0.65201 0.91242,1.18744 1.08947,1.18984 0.17704,0.002 1.06689,-0.47369 1.97744,-1.05799 z m 80.95621,-4.03466 c 7.9764,-0.97077 16.81359,-2.70893 18.23307,-3.58622 0.38902,-0.24042 0.35679,-3.71424 -0.0403,-4.3416 -0.2699,-0.42643 -1.07191,-0.36111 -5.37446,0.43771 -6.64145,1.23308 -8.94981,1.52446 -17.58083,2.2192 -7.80033,0.62788 -21.65804,0.52482 -28.92777,-0.21513 -4.04852,-0.41207 -13.27062,-1.89851 -15.0547,-2.42654 -0.61598,-0.18231 -1.2113,-0.24015 -1.32291,-0.12853 -0.11162,0.11162 -0.20295,1.20278 -0.20295,2.42479 0,1.88537 0.11052,2.281 0.72977,2.61241 1.68753,0.90314 13.74028,2.95021 21.49523,3.65081 3.81736,0.34486 23.65693,-0.11275 28.04583,-0.6469 z m -83.22259,-0.97502 c 1.24305,-0.81727 2.2601,-1.66898 2.2601,-1.89271 0,-0.22372 -0.31929,-0.81267 -0.70953,-1.30878 l -0.70952,-0.90201 -2.62616,1.79217 -2.62615,1.79218 0.71387,1.00254 c 0.39262,0.5514 0.87663,1.00254 1.07557,1.00254 0.19894,0 1.37876,-0.66867 2.62182,-1.48593 z m 132.01464,-2.19506 c 0.58506,-0.66635 1.16396,-1.5273 1.28645,-1.91322 0.19664,-0.61957 0.44307,-0.67893 2.10592,-0.50731 3.50855,0.36211 7.96419,-2.4582 7.96419,-5.04115 0,-1.57465 -1.00253,-4.02677 -1.64632,-4.02677 -0.48666,0 -9.02996,4.31942 -9.86244,4.98637 -0.21794,0.17461 -0.661,0.21587 -0.98456,0.0917 -0.38318,-0.14704 -0.55253,-0.0642 -0.48569,0.23755 0.0564,0.25481 -0.21092,0.53093 -0.59414,0.6136 -0.38322,0.0827 -0.86382,0.37877 -1.068,0.658 -0.20418,0.27923 -0.60501,0.5619 -0.89074,0.62814 -1.6448,0.38133 -1.96378,0.63567 -2.03924,1.62603 -0.0434,0.57 0.0823,1.03637 0.27941,1.03637 0.19711,0 0.35839,0.22402 0.35839,0.49781 0,0.87761 2.08013,2.32441 3.34191,2.32441 0.89246,0 1.42421,-0.28826 2.23486,-1.21154 z m -119.68913,-2.1313 c 1.27622,-0.48037 2.77107,-1.13962 3.3219,-1.46499 l 1.00149,-0.5916 -0.61921,-1.79978 c -2.08019,-6.04618 -7.49729,-13.018523 -10.82945,-13.938577 -1.47048,-0.406018 -2.39265,-0.113119 -4.57246,1.452308 l -1.55427,1.116189 1.15232,1.11574 c 0.63378,0.61365 1.27139,1.05175 1.41691,0.97355 0.14552,-0.0782 0.26458,0.11467 0.26458,0.42862 0,0.31394 0.14388,0.48188 0.31973,0.3732 0.53284,-0.32931 3.49438,3.26663 4.59097,5.57443 0.56614,1.19144 1.28707,3.19813 1.60207,4.45931 0.75594,3.02665 0.81337,3.175 1.22922,3.175 0.19568,0 1.39997,-0.39303 2.6762,-0.8734 z m -16.27995,-0.96469 c 0.95273,-0.28015 2.09622,-1.08157 3.32537,-2.3306 1.03034,-1.04699 1.90346,-1.84704 1.94028,-1.77788 0.0368,0.0691 0.35136,0.60199 0.69897,1.18407 0.34761,0.58208 0.89295,1.57427 1.21187,2.20486 0.31891,0.63059 0.71891,1.14653 0.88889,1.14653 0.44748,0 -0.0609,-3.11141 -0.77815,-4.7625 -0.55148,-1.26949 -3.18936,-4.79171 -3.18936,-4.25858 0,0.11985 -0.37088,-0.0251 -0.82419,-0.32213 -0.96229,-0.63052 -2.90375,-0.38278 -3.20771,0.40932 -0.10805,0.28157 -0.35744,0.41244 -0.55421,0.29083 -0.19677,-0.12161 -0.453,0.0271 -0.5694,0.33042 -0.1164,0.30334 -0.39309,0.56322 -0.61487,0.5775 -0.22178,0.0143 -1.07792,0.81391 -1.90253,1.77694 -1.1852,1.38413 -1.49818,2.02539 -1.49391,3.06083 0.006,1.47646 0.21738,1.90198 1.22932,2.47582 0.92078,0.52214 2.05093,0.52054 3.83963,-0.005 z m 27.73398,-2.49593 c 1.79117,-0.61026 2.31712,-0.9503 2.40298,-1.55359 0.16635,-1.1688 -2.20181,-7.89831 -4.01469,-11.408381 -1.6829,-3.258397 -5.10253,-7.374181 -6.89858,-8.302954 -0.91072,-0.470953 -1.1322,-0.463998 -2.16124,0.06788 -1.27122,0.657057 -4.85069,3.234422 -4.85069,3.492701 0,0.09041 1.03094,1.19025 2.29097,2.444097 1.26004,1.253848 3.01737,3.402607 3.90518,4.775017 1.68343,2.60232 5.43665,10.08528 5.44228,10.8505 0.005,0.642 1.27922,0.52213 3.88379,-0.36527 z m 62.29883,-0.74272 c 4.55094,-0.58342 11.90718,-2.0446 14.07916,-2.79656 l 1.31645,-0.45576 -1.01215,-1.03894 c -6.43648,-6.6069 -9.50566,-12.530959 -10.37392,-20.023526 -0.20653,-1.782229 -0.4336,-3.637291 -0.5046,-4.12236 -0.071,-0.48507 -0.14214,-1.085967 -0.1581,-1.335329 -0.0229,-0.357817 -0.19632,-0.365771 -0.82276,-0.03773 -1.17748,0.616592 -6.44889,4.44479 -8.32831,6.048175 -0.90071,0.768424 -2.59016,2.204661 -3.75433,3.191638 -6.54819,5.551543 -19.92624,20.214032 -19.32737,21.183022 0.3185,0.51535 24.00597,0.013 28.88593,-0.61263 z m -30.1516,-3.47258 c 4.52045,-5.90377 9.85158,-11.485905 17.77082,-18.607511 3.93093,-3.535 10.74101,-8.904633 13.14097,-10.361434 1.77266,-1.076022 2.20486,-1.513644 2.20486,-2.232517 0,-0.687697 -0.13503,-0.842328 -0.58485,-0.669717 -0.54499,0.209135 -3.21466,0.652139 -13.04487,2.164666 -4.47723,0.688889 -3.60154,0.111555 -12.2662,8.087003 -5.07797,4.674046 -7.80735,7.810693 -11.67046,13.411887 -2.65334,3.847133 -6.88361,10.930693 -6.88361,11.526573 0,0.35213 1.16299,0.4879 4.93889,0.5766 l 3.35139,0.0787 z m 72.27498,1.13964 c 2.42535,-1.33877 6.11629,-3.24777 8.20209,-4.24221 2.0858,-0.99445 3.79236,-1.90048 3.79236,-2.0134 0,-0.52493 -2.96455,-4.053574 -3.67909,-4.379136 -0.63489,-0.289278 -1.12522,-0.203039 -2.32464,0.408856 -1.67911,0.856618 -7.11344,5.9571 -6.83207,6.41235 0.0976,0.15791 0.0362,0.28711 -0.13655,0.28711 -0.17269,0 -0.52638,0.39687 -0.78598,0.88194 -0.59401,1.10992 -0.88195,1.12092 -0.88195,0.0337 0,-0.46654 0.10987,-0.78035 0.24415,-0.69737 0.13428,0.083 0.49734,-0.38267 0.80679,-1.0348 1.15538,-2.43477 7.6895,-8.081691 8.50617,-7.3512 0.14157,0.126632 0.1432,0.0318 0.004,-0.210732 -0.13957,-0.242534 -0.5619,-0.440972 -0.9385,-0.440972 -0.37661,0 -0.64505,0.198438 -0.59654,0.440972 0.0485,0.242535 -0.12386,0.396748 -0.38303,0.342697 -1.1866,-0.247476 -5.02904,3.230815 -7.40551,6.703715 -1.51927,2.22019 -3.23515,5.89329 -3.23549,6.92605 -3.5e-4,1.0453 0.0151,1.03966 5.64416,-2.06756 z m -8.80375,1.14787 c 0.73478,-2.29695 3.15294,-6.83651 4.73009,-8.8797 2.15293,-2.789079 5.26749,-5.656051 8.05799,-7.41742 1.31826,-0.832084 2.33784,-1.69266 2.26575,-1.912391 -0.23685,-0.721861 -6.29945,-5.866516 -7.17106,-6.085276 -1.70644,-0.42829 -6.73536,4.301168 -10.45833,9.83556 -2.3465,3.488206 -3.18541,5.149267 -3.78371,7.491867 -1.00096,3.91919 -1.0189,4.33061 -0.22098,5.06857 0.66143,0.61174 4.10214,2.47128 5.50623,2.97585 0.29104,0.10459 0.55654,0.20269 0.59,0.21801 0.0335,0.0153 0.25127,-0.56746 0.48402,-1.29507 z m -77.86092,-1.23472 c 2.13817,-3.75407 5.3393,-9.12346 6.7828,-11.37708 0.86995,-1.358194 1.67141,-2.660148 1.78101,-2.893232 0.10961,-0.233083 -0.74501,-1.820583 -1.89913,-3.527777 -2.17578,-3.218428 -6.05134,-9.403691 -7.52454,-12.008911 -0.46546,-0.823123 -0.94117,-1.497811 -1.05713,-1.499305 -0.45323,-0.0058 -4.20434,7.771421 -5.36741,11.128372 -2.70553,7.808946 -3.6255,13.294613 -2.94004,17.531183 0.31868,1.96969 0.48392,2.08341 4.71327,3.2439 4.33923,1.19064 4.50302,1.17289 5.51117,-0.59715 z m -61.70427,-0.60373 c 2.14479,-1.12823 5.88913,-3.75842 12.02034,-8.44362 4.71348,-3.60184 6.87917,-5.62767 6.87917,-6.434926 0,-0.915792 -0.98606,-1.715636 -2.11507,-1.715636 -1.16817,0 -8.64612,4.813866 -14.46219,9.309912 -2.03549,1.57351 -3.83322,2.8173 -3.99498,2.76398 -0.16175,-0.0533 -0.20466,0.0478 -0.0954,0.22462 0.1093,0.17685 -0.0493,0.52735 -0.35234,0.77889 -0.74875,0.6214 -1.91061,2.9577 -1.91061,3.84188 0,1.0668 1.63579,0.93487 4.03104,-0.3251 z m 11.71319,-1.62453 c 2.40406,-1.84136 2.53939,-2.01716 2.17258,-2.82222 -0.21515,-0.4722 -0.52946,-0.85854 -0.69848,-0.85854 -0.16902,0 -1.48692,0.88785 -2.92868,1.973 -2.58872,1.94843 -2.61444,1.98358 -2.06494,2.82222 0.30604,0.46707 0.64628,0.84922 0.75609,0.84922 0.10982,0 1.35336,-0.88366 2.76343,-1.96368 z m 116.38104,-3.0634 c 0.69621,-2.16392 3.99005,-8.574353 5.36415,-10.439638 2.10252,-2.854096 6.34068,-7.264601 8.79933,-9.157157 l 2.60423,-2.004619 -1.3333,-1.238076 c -3.45634,-3.209474 -7.40795,-5.88035 -12.62219,-8.531292 l -3.175,-1.61418 -5.99723,1.905822 c -3.29847,1.048203 -6.23534,2.037885 -6.52638,2.199294 -0.60827,0.337338 -0.65317,1.413043 -0.31827,7.624983 0.31234,5.793397 2.1178,10.742286 6.01,16.473807 1.41739,2.087196 5.75062,6.633136 6.32276,6.633136 0.15182,0 0.54417,-0.83344 0.8719,-1.85208 z M 248.64343,93.382899 c 1.12658,-4.652612 3.85241,-11.780156 5.93175,-15.510407 0.26676,-0.478572 0.4242,-0.930956 0.34986,-1.005298 -0.61271,-0.612707 -14.26645,6.023639 -17.07923,8.301284 l -0.81153,0.657143 1.147,1.221 c 0.63084,0.67155 1.28147,1.181313 1.44582,1.132806 0.16436,-0.04851 0.25915,0.05468 0.21064,0.229305 -0.0485,0.174625 0.0705,0.364117 0.26458,0.421094 0.99497,0.292172 4.29631,5.230023 6.31428,9.444321 l 0.73734,1.539859 0.29629,-1.36347 c 0.16295,-0.749909 0.6999,-3.030346 1.1932,-5.067637 z m -9.77583,-5.820833 c 0,-0.09701 0.0794,-0.176389 0.17639,-0.176389 0.097,0 0.17639,0.07937 0.17639,0.176389 0,0.09701 -0.0794,0.176389 -0.17639,0.176389 -0.097,0 -0.17639,-0.07937 -0.17639,-0.176389 z m -34.97793,7.229731 c 0.80523,-0.583301 1.46404,-1.21267 1.46404,-1.398598 0,-0.345118 -3.02702,-5.544099 -3.60047,-6.183911 -0.18878,-0.210618 -0.23681,0.28694 -0.11919,1.234722 0.10835,0.873125 0.10325,1.389062 -0.0113,1.146528 -0.32335,-0.68437 -0.85511,-0.519835 -0.85511,0.264583 0,0.388056 -0.16812,0.705556 -0.37359,0.705556 -0.20548,0 -0.27549,-0.15875 -0.15557,-0.352778 0.11991,-0.194028 0.0791,-0.352778 -0.0907,-0.352778 -0.16982,0 -0.49901,-1.621477 -0.73153,-3.603282 -0.36863,-3.141945 -0.59669,-3.898492 -1.78123,-5.909027 -0.74716,-1.26816 -1.98855,-3.416995 -2.75866,-4.77519 -0.7701,-1.358194 -2.74792,-4.771319 -4.39516,-7.584721 -1.64724,-2.813403 -3.478,-5.988403 -4.06836,-7.055555 -0.59036,-1.067153 -2.08672,-3.704964 -3.32525,-5.861802 -1.23852,-2.156838 -3.12498,-5.688916 -4.19214,-7.849062 -1.06715,-2.160146 -2.0324,-3.927648 -2.145,-3.927781 -0.2481,-2.94e-4 1.58263,10.893584 2.16282,12.869981 0.93487,3.184608 7.25689,14.995395 14.82669,27.699217 4.40922,7.399655 6.47057,10.432422 7.00764,10.310009 0.23391,-0.05331 0.32005,0.07335 0.19142,0.281477 -0.37186,0.601684 0.0982,1.402958 0.82298,1.402958 0.36504,0 1.32252,-0.477246 2.12774,-1.060546 z m -3.47484,-1.23251 c 0,-0.09701 0.0794,-0.176388 0.17638,-0.176388 0.097,0 0.17639,0.07937 0.17639,0.176388 0,0.09701 -0.0794,0.176389 -0.17639,0.176389 -0.097,0 -0.17638,-0.07937 -0.17638,-0.176389 z m -0.35278,-1.763888 c 0,-0.09701 0.0794,-0.176389 0.17639,-0.176389 0.097,0 0.17639,0.07937 0.17639,0.176389 0,0.09701 -0.0794,0.176389 -0.17639,0.176389 -0.097,0 -0.17639,-0.07937 -0.17639,-0.176389 z m 73.05223,-0.22729 c 0.22267,-0.416051 1.03501,-1.440104 1.80521,-2.275673 l 1.40037,-1.519216 -1.15759,-1.693077 c -2.0336,-2.974334 -4.78815,-6.631983 -5.29167,-7.026585 -0.41124,-0.322287 -4.74314,-1.19288 -5.93554,-1.19288 -0.20516,0 -0.37302,0.2142 -0.37302,0.476002 0,0.498924 1.96193,4.344156 3.44704,6.755941 1.27595,2.072117 5.15522,7.216335 5.44819,7.224724 0.13869,0.004 0.43435,-0.333185 0.65701,-0.749236 z m 7.0209,-6.91646 c 0.523,-0.533576 2.00863,-1.964824 3.30139,-3.180551 1.29276,-1.215727 2.35047,-2.287289 2.35047,-2.38125 0,-0.09396 -2.54,-0.170837 -5.64444,-0.170837 -3.10445,0 -5.64445,0.09456 -5.64445,0.210125 0,0.115568 0.29487,0.631506 0.65526,1.146527 0.36039,0.515022 0.71758,1.095153 0.79375,1.289181 0.33485,0.852936 2.63784,4.04487 2.92252,4.050606 0.17302,0.0035 0.7425,-0.430224 1.2655,-0.963801 z M 298.911,71.901804 c 10.18125,-1.644143 16.78904,-3.404865 23.49251,-6.259842 8.18626,-3.486493 13.64062,-7.03547 19.13865,-12.452904 2.58377,-2.5459 7.03932,-8.725292 7.03932,-9.762819 0,-0.340436 -0.45882,-0.493498 -1.49931,-0.500165 -3.48811,-0.02235 -12.01297,-0.688478 -15.61041,-1.219791 -4.70605,-0.695046 -11.66037,-2.298218 -22.32885,-5.14744 -4.40552,-1.176579 -10.70879,-2.859165 -14.00726,-3.739081 -11.94986,-3.187802 -20.68729,-4.953617 -26.10555,-5.275873 -6.97992,-0.415136 -14.79693,1.344106 -37.08919,8.347041 -4.87683,1.532018 -10.19496,3.118801 -11.81805,3.526186 -1.6231,0.407385 -3.15435,0.806963 -3.40278,0.887952 -0.61057,0.199045 0.41406,2.173364 3.47071,6.687557 4.53848,6.702623 9.82872,11.665796 16.85137,15.809523 5.94078,3.505372 10.92286,5.525748 17.99224,7.296376 8.83297,2.212346 15.41579,2.809942 29.16514,2.647648 8.18614,-0.09663 11.12599,-0.265361 14.71146,-0.844368 z m 41.76364,-3.85897 c 3.12537,-3.072579 6.52075,-6.99923 7.33798,-8.486129 0.27108,-0.493227 -1.24496,0.758554 -2.94642,2.43282 -0.29791,0.293156 -2.28791,1.7049 -4.42222,3.137207 -2.1343,1.432307 -4.01809,2.726991 -4.1862,2.877077 -0.24427,0.218084 0.45916,0.71344 2.45297,1.727389 0.0169,0.0086 0.81061,-0.751189 1.76389,-1.688364 z m 24.78994,-10.735292 c 1.05403,-3.266179 1.80327,-7.179566 1.90252,-9.937205 l 0.088,-2.44451 -2.82222,-0.439602 c -1.55222,-0.241781 -3.17225,-0.52032 -3.60006,-0.618976 -0.63614,-0.146696 -0.98016,0.149428 -1.88838,1.625482 l -1.11054,1.804856 2.83258,5.668352 c 1.55791,3.117593 2.9225,5.956226 3.03241,6.308072 0.31661,1.013545 0.7999,0.406555 1.5657,-1.966469 z m -150.70087,-4.40589 c -1.70714,-2.722929 -5.91022,-10.995229 -6.58904,-12.968254 -0.78743,-2.288726 -0.90425,-3.700495 -0.30618,-3.700495 0.28695,0 0.32959,-1.157282 0.1527,-4.145138 -0.13642,-2.304196 -0.0995,-4.790519 0.0832,-5.598301 l 0.3286,-1.453162 -3.74449,-4.374357 c -2.05948,-2.405896 -3.98097,-4.847598 -4.26998,-5.426004 -0.28902,-0.578406 -0.9835,-1.845397 -1.54329,-2.815536 -1.50929,-2.6156652 -4.70033,-10.9394834 -5.49211,-14.3261608 -1.4201,-6.0742053 -1.78316,-13.2431502 -1.00234,-19.7924422 l 0.4326,-3.628616 0.2527,3.880555 c 0.9445,14.5040278 3.64534,23.1951767 10.19542,32.808331 2.29139,3.362942 5.97278,7.459073 5.97278,6.645675 0,-0.210847 -0.22377,-1.017595 -0.49727,-1.792775 -1.01634,-2.880597 -3.36052,-14.5139196 -3.7185,-18.4535243 -1.07766,-11.8597637 0.11162,-27.1943797 2.96769,-38.2655627 4.02442,-15.600074 9.51281,-26.887947 17.21035,-35.396187 0.7271,-0.803677 1.39222,-1.46123 1.47804,-1.46123 0.0858,0 -1.17295,2.738437 -2.79726,6.085416 -2.66905,5.499717 -5.42533,12.428778 -5.07785,12.765304 0.0749,0.07254 1.99484,-0.134712 4.26652,-0.460568 l 4.13034,-0.592467 0.15091,-6.87037 c 0.16864,-7.676988 0.69396,-10.474818 2.72362,-14.505726 1.21104,-2.405133 3.06701,-4.920063 2.69624,-3.653533 -1.08632,3.710781 -1.44887,14.630283 -0.65006,19.579165 1.76667,10.945197 5.60032,21.499871 10.84117,29.847578 1.66515,2.652274 3.8176,5.456566 8.22789,10.719608 1.21372,1.44841 1.78428,1.282189 0.71558,-0.208472 -0.40378,-0.563197 -0.20756,-0.396031 0.43603,0.371481 5.43573,6.482347 14.86492,13.657756 23.97091,18.2413521 3.40896,1.7159362 8.07857,3.5764488 8.33436,3.3206607 0.074,-0.07404 -0.0242,-0.427889 -0.21839,-0.7863318 -0.75717,-1.3978906 -3.57656,-7.535494 -3.57861,-7.790381 -10e-4,-0.148316 -0.25232,-0.745916 -0.55806,-1.327999 -0.30573,-0.582083 -0.93893,-1.9644 -1.4071,-3.071815 -1.24414,-2.942891 -3.67663,-7.859912 -8.51539,-17.212906 -2.35892,-4.559652 -5.58805,-11.306527 -7.17584,-14.993054 -2.78018,-6.455042 -5.98288,-15.394444 -5.97258,-16.670747 0.003,-0.338449 0.63455,0.539618 1.40406,1.95126 3.12585,5.734289 8.58981,12.947391 13.39202,17.679114 10.89367,10.73377 25.63402,18.810248 48.34617,26.489663 6.59195,2.228866 9.02205,3.282483 12.87639,5.582818 2.12041,1.265498 2.68895,1.666362 6.79097,4.7881241 1.34482,1.0234516 2.20486,1.4833413 2.20486,1.1790085 0,-0.571403 -6.95165,-14.4914106 -10.52101,-21.0672976 -7.65801,-14.108484 -15.14862,-25.222866 -23.1813,-34.395831 -1.18936,-1.358194 -3.08657,-3.580694 -4.21603,-4.938888 -1.12946,-1.358195 -2.38644,-2.849525 -2.7933,-3.314069 l -0.73974,-0.844624 1.05833,0.661702 c 0.58208,0.363936 1.80826,1.192503 2.72484,1.841258 0.94203,0.666769 1.84757,1.067661 2.08298,0.922165 0.24514,-0.151501 0.32308,-0.106279 0.18946,0.109922 -0.12486,0.202022 0.0398,0.583738 0.36599,0.848257 0.46564,0.377653 0.5329,0.381066 0.31319,0.01589 -0.1539,-0.255781 0.98115,0.785782 2.52233,2.314585 1.54118,1.528802 3.34319,3.030123 4.00446,3.336269 0.7695,0.356256 2.78969,0.641168 5.61202,0.791479 4.69855,0.250232 7.20183,0.486023 8.20209,0.772574 0.33955,0.09727 0.61736,0.07543 0.61736,-0.04855 0,-0.576595 -9.95945,-12.602187 -13.54904,-16.359868 l -2.14957,-2.25023 2.29305,1.175239 c 4.81011,2.46528 13.42476,9.907632 18.52864,16.007231 0.96585,1.154273 2.24756,2.662398 2.84826,3.351389 2.50944,2.8783 9.66755,13.492608 9.66755,14.33541 0,0.117666 0.30905,0.64796 0.68678,1.178432 2.47006,3.468881 7.45892,14.924201 9.50942,21.835333 0.97835,3.297469 2.38504,11.884809 2.09123,12.7662177 -0.14814,0.4444155 -2.41908,-3.8595227 -2.42139,-4.5890747 -9.2e-4,-0.291042 -0.49907,-1.321576 -1.10699,-2.290075 -0.93835,-1.494917 -1.14149,-1.657774 -1.34482,-1.078138 -0.20095,0.572856 -0.4804,0.328032 -1.73592,-1.520793 -0.82302,-1.211961 -1.84202,-2.330165 -2.26444,-2.484899 -0.98766,-0.361779 -8.7323,-1.536374 -8.91637,-1.352305 -0.0767,0.07671 0.58956,1.634922 1.48059,3.4627 3.70859,7.607457 6.84413,15.7772566 6.84413,17.83271432 0,0.91062198 -0.30195,1.53500828 -1.17909,2.43817038 -0.6485,0.6677392 -1.3088,1.0964331 -1.46732,0.9526531 -0.33588,-0.3046352 -0.35538,-0.36013 1.62982,4.6387036 1.49955,3.7759576 1.53291,3.8241066 1.94675,2.8098886 1.10442,-2.7066302 2.17664,-10.40549885 2.27747,-16.3530652 0.028,-1.649236 0.15382,-3.4748609 0.27968,-4.0569442 l 0.22884,-1.0583336 0.41733,1.0583336 c 0.94567,2.3981434 1.53842,5.123612 1.92878,8.86841749 0.3552,3.40767841 0.3264,4.59339361 -0.2061,8.48260761 -0.34046,2.4866573 -0.75726,5.1561953 -0.92621,5.9323063 -0.16896,0.776111 -0.57389,2.839861 -0.89985,4.586111 -0.32596,1.74625 -0.67863,3.413125 -0.7837,3.704166 -0.34485,0.955196 1.31341,-0.749678 3.69762,-3.801575 2.65988,-3.404759 8.15449,-12.2171315 9.8375,-15.7775899 3.9526,-8.3618407 5.21969,-14.7388501 5.22213,-26.2819421 10e-4,-7.010929 -0.10699,-8.555213 -0.9293,-13.229166 -2.12601,-12.08407 -5.62559,-21.803654 -11.17772,-31.044442 -2.98306,-4.964919 -3.12739,-5.118715 -4.9703,-5.296302 -0.86622,-0.08347 -3.40057,-0.31422 -5.63189,-0.512775 -7.40726,-0.659138 -12.1464,-2.133687 -15.38393,-4.786594 -1.74827,-1.432578 -3.55293,-4.798864 -3.88013,-7.237735 -0.29206,-2.176954 0.61186,-5.53453 2.33547,-8.675041 l 1.3874,-2.527916 -0.90006,-2.591539 c -0.75325,-2.168833 -0.87283,-3.028643 -0.73314,-5.271393 0.0936,-1.50234 0.42693,-3.18268 0.75868,-3.8242 0.32547,-0.62939 0.51361,-1.348 0.4181,-1.59691 -0.21284,-0.55464 -8.06571,-4.92319 -19.80933,-11.01991 -7.73436,-4.01531 -18.54921,-10.07962 -19.85227,-11.13194 -0.87064,-0.70311 -0.72396,-0.0576 0.38595,1.69841 2.19856,3.47843 8.54954,11.3225 11.86429,14.65356 3.19394,3.20965 4.69977,4.31432 6.7178,4.92818 l 0.88423,0.26897 -0.83667,0.0303 c -1.8936,0.0686 -8.5071,-1.14705 -12.5167,-2.30079 -2.35703,-0.67823 -9.44489,-2.87798 -15.75079,-4.88834 -16.33203,-5.20674 -26.2364,-7.96497 -28.5087,-7.93926 -1.44141,0.0163 -0.83719,0.28468 10.21571,4.53751 9.89251,3.80636 15.2541,6.10466 15.61916,6.69535 0.10351,0.16748 -1.51473,-0.0705 -3.59607,-0.52887 -12.02517,-2.64821 -18.6708,-3.49468 -24.95093,-3.17805 -6.05972,0.30552 -11.15136,1.28236 -17.10973,3.28255 -2.84229,0.95413 -15.02785,6.69316 -15.83179,7.45629 -0.26728,0.25371 -2.88665,1.63919 -5.82083,3.07884 -4.99329,2.44996 -10.49963,4.39842 -12.42989,4.39842 -0.46337,0 -0.84248,0.1331 -0.84248,0.295772 0,0.162675 1.67535,0.582936 3.723,0.933915 5.99161,1.026995 10.21124,0.554393 19.09635,-2.138797 2.24408,-0.68022 4.1566,-1.1603 4.25005,-1.06686 0.0934,0.0935 -2.26801,1.38907 -5.24767,2.879155 -2.97966,1.490091 -7.27817,3.730642 -9.55224,4.979004 -2.27408,1.248361 -4.2407,2.247628 -4.37028,2.220593 -0.12959,-0.02703 -0.33273,0.09982 -0.45144,0.281894 -0.1187,0.182076 -1.64458,1.247338 -3.39083,2.367248 -4.86789,3.121894 -10.4524,7.47119 -14.63758,11.39996 -0.68058,0.638884 -1.67398,1.427174 -2.20756,1.751756 -0.53357,0.324582 -0.97013,0.714671 -0.97013,0.866865 0,0.152194 -0.32687,0.276716 -0.72638,0.276716 -0.39951,0 -0.63854,0.142116 -0.53119,0.315812 0.10735,0.173697 -0.0817,0.422069 -0.42016,0.551939 -0.33843,0.129869 -0.68749,0.265566 -0.77568,0.301549 -0.0882,0.03598 -0.48507,0.386551 -0.88195,0.779042 -0.99306,0.982093 -6.23143,3.659921 -9.01187,4.606822 -2.60528,0.887251 -2.79162,0.786716 3.24831,1.752586 5.00524,0.800412 8.61323,0.594498 11.32337,-0.646242 l 2.0341,-0.931241 -1.68707,2.147361 c -0.92788,1.181049 -1.88514,2.223373 -2.12725,2.316276 -0.2421,0.0929 -0.36757,0.2864 -0.27883,0.429992 0.0888,0.143591 -0.38842,0.861285 -1.06036,1.594875 -0.67194,0.73359 -1.22171,1.404162 -1.22171,1.490159 0,0.219273 -4.28176,6.24239 -4.59072,6.457735 -0.13919,0.09701 -0.36527,0.535882 -0.50241,0.975262 -0.14004,0.448702 -0.41673,0.695418 -0.63122,0.562854 -0.2193,-0.135532 -0.28083,-0.07251 -0.14453,0.14803 0.39282,0.635601 -5.80562,12.018619 -8.35949,15.351649 -0.56437,0.736551 -0.94999,1.415322 -0.85694,1.50838 0.2937,0.293698 5.66733,-3.692609 7.3242,-5.433296 0.87312,-0.917293 3.55874,-3.925353 5.96803,-6.684578 2.40929,-2.759225 4.44844,-4.948864 4.53144,-4.865864 0.083,0.083 -0.80242,2.106968 -1.96759,4.497708 -3.30833,6.788131 -5.63462,14.172528 -7.34943,23.32952 -0.86603,4.624562 -1.02513,15.0491166 -0.316,20.7047758 0.63146,5.0361808 1.21089,7.6115387 1.6098,7.1550722 0.13262,-0.1517484 0.83967,-2.101531 1.57122,-4.3328502 3.18757,-9.7223828 9.70688,-24.6772438 11.84162,-27.1638868 0.62683,-0.730147 0.7159,-0.760507 0.51753,-0.176389 -0.13179,0.388056 -0.61215,2.610556 -1.06748,4.938889 -2.66481,13.6267371 -2.25384,23.66099572 1.59685,38.988481 1.95043,7.763554 3.50212,12.054855 6.69805,18.523809 2.41568,4.889632 5.24258,9.824572 5.95601,10.397426 0.12082,0.09701 0.85244,0.970139 1.62583,1.940278 1.5542,1.94958 7.38779,7.937499 7.73292,7.937499 0.12011,0 -0.15485,-0.595312 -0.61103,-1.322916 z m 139.10944,-67.468745 c 0,-0.258703 0.10583,-0.364537 0.23518,-0.235185 0.12935,0.129352 0.12935,0.341019 0,0.47037 -0.12935,0.129352 -0.23518,0.02352 -0.23518,-0.235185 z M 250.86204,-26.03237 c 0,-0.09701 0.0794,-0.176388 0.17639,-0.176388 0.097,0 0.17639,0.07937 0.17639,0.176388 0,0.09701 -0.0794,0.176389 -0.17639,0.176389 -0.097,0 -0.17639,-0.07937 -0.17639,-0.176389 z m -0.70555,-1.058333 c 0,-0.09701 0.0794,-0.176389 0.17639,-0.176389 0.097,0 0.17639,0.07938 0.17639,0.176389 0,0.09701 -0.0794,0.176389 -0.17639,0.176389 -0.097,0 -0.17639,-0.07937 -0.17639,-0.176389 z m -0.56286,-0.936451 c -0.15595,-0.252342 -0.0968,-0.311525 0.15557,-0.155569 0.40667,0.251333 0.54598,0.562854 0.25172,0.562854 -0.0856,0 -0.26884,-0.183279 -0.40729,-0.407285 z m -0.49548,-0.827438 c 0,-0.09701 0.0794,-0.176388 0.17639,-0.176388 0.097,0 0.17639,0.07937 0.17639,0.176388 0,0.09701 -0.0794,0.176389 -0.17639,0.176389 -0.097,0 -0.17639,-0.07937 -0.17639,-0.176389 z m -1.05833,-1.763888 c 0,-0.09701 0.0794,-0.176389 0.17639,-0.176389 0.097,0 0.17639,0.07937 0.17639,0.176389 0,0.09701 -0.0794,0.176389 -0.17639,0.176389 -0.097,0 -0.17639,-0.07937 -0.17639,-0.176389 z m 59.26666,-5.70277 c -0.29104,-0.09846 -1.89778,-0.719774 -3.57054,-1.380706 -1.67276,-0.660932 -4.07971,-1.522401 -5.34878,-1.914378 -2.50166,-0.772685 -9.22288,-1.761868 -11.9714,-1.761868 -2.01802,0 -2.39413,-0.526078 -1.48111,-2.071702 1.99948,-3.384843 14.00966,-1.885421 21.22533,2.649897 2.0435,1.284411 5.02706,3.91608 5.02706,4.434145 0,0.302443 -3.01591,0.337115 -3.88056,0.04461 z m 2.93982,-29.633802 c 0.12935,-0.129351 0.34102,-0.129351 0.47037,0 0.12935,0.129352 0.0235,0.235186 -0.23519,0.235186 -0.2587,0 -0.36453,-0.105834 -0.23518,-0.235186 z m -82.55,-36.688888 c 0.12936,-0.12935 0.34102,-0.12935 0.47037,0 0.12936,0.12935 0.0235,0.23519 -0.23518,0.23519 -0.2587,0 -0.36454,-0.10584 -0.23519,-0.23519 z M 175.54481,47.875895 c -0.11946,-0.193298 -0.28525,-0.629861 -0.36842,-0.970139 -2.51123,-10.27449 -3.72708,-13.880386 -6.67082,-19.783964 -1.61313,-3.235069 -3.80704,-7.866318 -4.87536,-10.291665 -1.06832,-2.425347 -2.2221,-5.044722 -2.56395,-5.820833 -0.42512,-0.965164 -0.66726,-1.2233565 -0.76621,-0.816999 -0.17997,0.739096 4.10812,13.595241 6.73388,20.188877 1.07497,2.699395 1.87232,5.040957 1.77188,5.203472 -0.10044,0.162515 -0.0341,0.295481 0.14753,0.295481 0.18159,0 0.65565,0.754063 1.05348,1.675695 1.91584,4.438324 5.06414,10.671527 5.39004,10.671527 0.20084,0 0.26742,-0.158154 0.14795,-0.351452 z M 353.86609,45.31693 c 4.90439,-6.241967 11.35418,-18.494051 12.7676,-24.25347 1.38629,-5.648821 2.74923,-13.7583323 2.31232,-13.7583323 -0.10324,0 -1.17923,1.6271874 -2.39109,3.6159723 -1.21186,1.988784 -2.70004,4.250972 -3.30706,5.027083 -0.60703,0.776111 -1.96607,2.68111 -3.02011,4.233333 -1.05404,1.552222 -2.13221,3.042933 -2.39593,3.312692 -1.16269,1.189298 -1.50559,2.247614 -1.84843,5.704855 -0.55741,5.621029 -1.82945,12.477292 -3.02307,16.294256 -0.26744,0.85523 0.16073,0.771849 0.90577,-0.176389 z m -5.02003,-9.652018 c 1.58137,-0.122275 2.56448,-0.354596 2.57557,-0.608635 0.01,-0.225981 0.10264,-1.073514 0.20619,-1.883407 l 0.18826,-1.472534 -1.52911,0.114389 c -2.78117,0.208053 -2.76382,0.24924 -2.76382,-6.563123 0,-8.624299 -0.94922,-12.985451 -4.44298,-20.4130894 -1.63865,-3.4837501 -2.53955,-4.54904552 -2.08084,-2.4605776 0.12926,0.5885159 0.2319,2.7115868 0.2281,4.7179354 -0.006,2.9888326 -0.1747,4.1499196 -0.9356,6.4264986 -1.07732,3.223292 -2.28739,5.47105 -3.83897,7.131032 -1.06234,1.136572 -3.6608,2.729897 -3.96155,2.42915 -0.0807,-0.08074 0.26919,-1.242749 0.77761,-2.582249 2.19219,-5.775597 2.74117,-9.379071 2.21395,-14.5323594 -0.4089,-3.9967293 -1.42163,-6.91260058 -3.70071,-10.6551438 -1.67021,-2.7427038 -1.79782,-2.8595168 -4.62684,-4.2355324 -1.60009,-0.7782728 -5.09347,-2.1543134 -7.76307,-3.0578674 -4.66658,-1.57945 -5.01713,-1.644016 -9.08716,-1.673686 -3.75639,-0.02738 -4.58091,0.08307 -7.31845,0.980392 -1.69681,0.55619 -4.45276,1.795448 -6.12433,2.7539079 -1.67157,0.9584595 -3.12228,1.6595897 -3.2238,1.558067 -0.10152,-0.1015226 0.23321,-1.0385302 0.74385,-2.0822389 1.24144,-2.537409 4.26473,-5.496367 6.90548,-6.75853 1.17595,-0.562051 2.13809,-1.114012 2.13809,-1.226579 0,-0.112568 -3.67265,-1.988379 -8.16145,-4.168469 l -8.16144,-3.963799 h -4.16496 c -2.29072,0 -4.24588,0.130942 -4.34479,0.290983 -0.0989,0.160041 1.09768,3.215978 2.65909,6.790972 1.56141,3.574993 3.03401,6.976238 3.27245,7.558321 0.23843,0.582084 1.65184,3.5784918 3.14092,6.6586851 1.48907,3.0801934 2.7074,5.96991097 2.7074,6.4215947 0,3.324071 -3.16094,4.2253871 -7.8462,2.2372802 -8.93834,-3.7928239 -16.88289,-8.4163616 -24.08018,-14.01409 -2.75883,-2.145689 -13.22297,-12.614045 -13.24026,-13.245584 -0.0126,-0.462038 -1.38145,-1.535393 -2.13291,-1.672525 -0.53874,-0.09831 -5.07499,0.203413 -11.61433,0.772525 -4.40207,0.383106 -13.30592,1.479528 -17.81528,2.193775 l -2.82222,0.447018 -0.31706,2.278439 c -0.17438,1.253141 -0.32452,7.279063 -0.33364,13.3909375 -0.0157,10.5354619 0.0319,11.3781194 0.91764,16.2277765 0.51383,2.813403 1.47964,6.940902 2.14625,9.172221 l 1.21202,4.056945 -1.22205,1.277048 c -2.0489,2.14111 -2.20531,4.127785 -0.71445,9.074601 l 0.78073,2.590539 2.33671,-0.207612 c 2.96969,-0.263852 9.15887,-1.868704 15.77674,-4.090904 12.12304,-4.070767 24.02241,-7.456913 29.15877,-8.297576 7.85972,-1.286391 18.92975,0.03383 37.04167,4.417609 16.08955,3.894292 18.90043,4.600844 21.51944,5.409188 3.44593,1.063568 7.47939,1.953063 11.46527,2.528422 2.91497,0.420772 12.56984,0.399544 18.25625,-0.04014 z M 237.74164,25.675341 c -5.2196,-1.684918 -9.01623,-5.694286 -10.54728,-11.138269 -0.69475,-2.470314 -0.60494,-7.9571144 0.17323,-10.5833329 1.07723,-3.63553926 2.91021,-6.677544 5.48997,-9.111163 2.70233,-2.5492353 4.62615,-3.5960347 7.82887,-4.2598737 l 2.23811,-0.4639012 -1.23472,-0.5160272 c -2.75077,-1.149629 -4.59445,-1.441573 -8.02971,-1.27149 -4.45144,0.220396 -6.51028,1.076477 -8.91396,3.7064854 -6.77285,7.41057377 -8.34549,17.045655 -4.58913,28.1162126 0.58738,1.731106 1.0152,3.200232 0.95071,3.264724 -0.0645,0.06449 -0.61506,-0.131078 -1.22348,-0.434599 -2.55488,-1.274538 -5.31001,-5.860533 -6.29554,-10.479074 -0.8006,-3.7519451 -0.46629,-10.0387262 0.75447,-14.1879933 1.24608,-4.2353084 2.28567,-6.0350886 5.13753,-8.8943137 4.44927,-4.460766 9.01567,-6.468653 14.77834,-6.498175 5.0467,-0.02585 7.62199,0.70853 11.34098,3.23405 3.1621,2.147338 5.35468,5.0794502 6.32294,8.4555816 0.30288,1.0560548 0.28305,1.0991097 -0.27926,0.6063975 -3.16585,-2.7740376 -8.34268,-1.9556219 -10.18676,1.6104482 -0.28238,0.5460636 -0.51943,1.7678335 -0.52676,2.71504416 -0.0362,4.66823044 4.75263,7.74470904 8.82298,5.66817264 1.54872,-0.7900979 1.9524,-1.224628 2.85763,-3.0760385 l 0.66471,-1.35946722 0.40694,1.05833322 c 1.53625,3.9953152 1.92827,10.3198834 0.86372,13.9347214 -1.14544,3.889544 -4.18679,7.411404 -7.85567,9.096805 -1.56445,0.718674 -2.65751,0.940859 -5.00068,1.016486 -1.64923,0.05323 -3.42591,-0.04115 -3.94818,-0.209744 z m 7.9065,-3.194167 c 2.55975,-0.957726 4.50172,-2.687487 5.81915,-5.183259 2.45726,-4.655111 1.58038,-9.2872318 -1.75811,-9.2872318 -1.09963,0 -2.72769,1.3772927 -2.72769,2.3075428 0,0.835489 -1.97429,3.454883 -3.0958,4.107365 -3.4546,2.009842 -6.62881,0.698007 -9.36758,-3.871423 -1.10184,-1.8383391 -1.96216,-2.3839081 -3.58119,-2.2710175 -1.61946,0.1129198 -2.03084,2.4895085 -1.06968,6.1796475 1.10555,4.244477 4.52327,7.638396 8.82397,8.762512 1.5751,0.411699 4.78548,0.0683 6.95693,-0.744136 z m 3.45001,-0.0066 c 0,-0.194028 -0.07,-0.352778 -0.15556,-0.352778 -0.0856,0 -0.25369,0.15875 -0.3736,0.352778 -0.11992,0.194028 -0.0499,0.352778 0.15557,0.352778 0.20548,0 0.37359,-0.15875 0.37359,-0.352778 z m 0.94381,-0.232125 c -0.12767,-0.127668 -0.0351,-0.484855 0.20578,-0.793749 0.38684,-0.496122 0.36636,-0.505532 -0.17556,-0.08068 -0.5519,0.432665 -0.55948,1.106556 -0.0125,1.106556 0.1179,0 0.1099,-0.104456 -0.0178,-0.232125 z m -29.87158,-0.297042 c 0,-0.09701 -0.0794,-0.176389 -0.17639,-0.176389 -0.097,0 -0.17639,0.07937 -0.17639,0.176389 0,0.09701 0.0794,0.176389 0.17639,0.176389 0.097,0 0.17639,-0.07937 0.17639,-0.176389 z m 31.39722,-1.037513 c 0,-0.08556 -0.18328,-0.268841 -0.40729,-0.407285 -0.25234,-0.155956 -0.31152,-0.09677 -0.15556,0.155569 0.25133,0.406666 0.56285,0.545982 0.56285,0.251716 z M 242.32482,10.76235 c 0.72614,-0.726138 0.51348,-2.6485165 -0.36072,-3.2608295 -1.05525,-0.7391313 -1.89613,-0.6912034 -2.74372,0.156385 -0.85789,0.8578849 -0.90675,2.0151829 -0.12171,2.8826385 0.66275,0.732341 2.58356,0.864401 3.22615,0.221806 z M 222.28705,-6.2768156 c 0,-0.097014 -0.0794,-0.1763889 -0.17639,-0.1763889 -0.097,0 -0.17639,0.079375 -0.17639,0.1763889 0,0.097014 0.0794,0.1763889 0.17639,0.1763889 0.097,0 0.17639,-0.079375 0.17639,-0.1763889 z m 84.31388,31.7985366 c -4.49655,-0.97681 -8.44768,-4.107853 -10.52293,-8.338816 -2.18061,-4.445782 -2.28419,-10.9041579 -0.25498,-15.8980842 1.72667,-4.2493393 5.26402,-8.2324602 9.16597,-10.3210207 1.22514,-0.6557669 2.00434,-0.7683932 5.3161,-0.7683932 3.69611,0 3.98536,0.054739 6.08542,1.151606 1.21267,0.6333833 2.20496,1.1890082 2.20508,1.2347221 1.2e-4,0.045714 -0.78606,0.028618 -1.74706,-0.037991 -0.961,-0.066609 -2.30792,0.063922 -2.99315,0.2900692 -1.58518,0.5231547 -3.51985,2.7712224 -4.06715,4.7259784 -1.10072,3.93138 2.23248,8.3087298 6.3377,8.3230313 1.34885,0.0047 4.49335,-1.3149711 5.21633,-2.1891712 0.24961,-0.3018156 0.74004,-1.1371682 1.08985,-1.8563391 l 0.63602,-1.30758355 0.61015,2.17455225 c 1.02401,3.6495577 1.12646,7.8410637 0.27404,11.2119407 -0.40351,1.595668 -1.14577,3.604426 -1.64946,4.463906 -2.10892,3.5986 -6.24592,6.497861 -10.37022,7.26758 -2.29632,0.428562 -2.83785,0.415766 -5.33171,-0.125987 z m 6.86667,-3.072772 c 2.42304,-0.906576 5.17381,-3.043952 6.44827,-5.010366 0.53128,-0.81972 1.10818,-1.592542 1.28201,-1.717381 0.52211,-0.374959 0.67372,-3.55501 0.24534,-5.145902 -0.53351,-1.981313 -2.27827,-3.3664495 -3.84562,-3.0529795 -1.34367,0.2687336 -1.76157,0.744795 -2.69095,3.0654725 -0.50567,1.26265 -1.19142,2.158585 -2.29613,2.999912 -1.44881,1.103384 -1.73616,1.18794 -3.583,1.054352 -2.73409,-0.197767 -4.26569,-1.281693 -5.62367,-3.979913 -1.35077,-2.6838995 -2.6597,-4.0625718 -3.85705,-4.0625718 -1.60004,0 -2.21121,0.7541163 -2.39359,2.9534551 -0.331,3.9913537 2.05609,9.1453437 5.26594,11.3697727 3.24455,2.24847 7.53417,2.841007 11.04845,1.526149 z m -3.46046,-12.135048 c 1.05451,-0.738603 1.23112,-2.1429451 0.40207,-3.1969214 -0.83221,-1.0579811 -2.13999,-1.1273712 -3.10273,-0.1646296 -1.22778,1.2277829 -0.71777,2.9772201 1.05834,3.630282 0.80322,0.29534 0.84729,0.288128 1.64232,-0.268731 z m 66.05043,24.84299 c 6.46526,-1.523984 11.98408,-5.978242 15.05776,-12.153153 1.68848,-3.392089 2.25982,-5.796978 2.26474,-9.532635 0.01,-7.6193559 -3.6403,-13.63220065 -10.09093,-16.6218631 -2.41754,-1.120451 -7.31667,-2.2360248 -7.78092,-1.7717795 -0.24743,0.2474278 -2.20314,8.8812479 -2.2211,9.8054007 -0.0117,0.6044274 1.25958,0.6670602 2.56519,0.1263761 1.02546,-0.4246677 4.3967,0.4331956 5.74561,1.4620554 0.68452,0.5221143 1.45069,1.359882 1.70258,1.8617058 0.51848,1.0329102 0.99368,3.2054626 0.70113,3.2054626 -0.38278,0 -1.16192,-0.979529 -0.94872,-1.192725 0.12011,-0.120112 -0.0462,-0.218386 -0.36958,-0.218386 -0.32338,0 -0.58796,-0.1333408 -0.58796,-0.2963126 0,-0.5496386 -2.98419,-1.2916569 -4.93889,-1.2280561 -1.06715,0.034722 -2.51842,0.3074889 -3.22503,0.6061481 -1.22198,0.5164859 -1.30486,0.6599082 -1.69632,2.9354796 -0.22637,1.315854 -0.49512,2.734682 -0.59723,3.152951 -0.14074,0.576482 0.0136,0.819754 0.63799,1.005431 1.10755,0.329374 3.44492,1.910557 4.42966,2.99658 1.03904,1.145908 1.99708,4.351864 1.71779,5.748342 -0.1193,0.59649 -0.48331,1.3789 -0.80892,1.738689 -0.5653,0.624657 -0.61314,0.571563 -1.06068,-1.177189 -0.25777,-1.007243 -0.66417,-2.229275 -0.90311,-2.715628 -0.60813,-1.237832 -2.77964,-2.901564 -3.90324,-2.990505 -0.91008,-0.07204 -0.99983,0.09707 -2.67514,5.040735 -0.9534,2.813403 -2.3026,6.270411 -2.99822,7.682242 -1.39529,2.831867 -1.46728,3.124494 -0.8238,3.34876 1.02835,0.358403 8.08109,-0.175496 10.80734,-0.818126 z m 18.03224,-3.33371 c 0,-0.09701 -0.0794,-0.176389 -0.17639,-0.176389 -0.097,0 -0.17639,0.07937 -0.17639,0.176389 0,0.09701 0.0794,0.176389 0.17639,0.176389 0.097,0 0.17639,-0.07937 0.17639,-0.176389 z m 2.12717,-40.0402742 c -0.67193,-5.7189868 -2.18929,-13.0217558 -3.19139,-15.3595698 -0.33895,-0.790736 -1.30972,-2.119402 -2.15728,-2.95259 l -1.541,-1.514888 -0.12449,1.005886 c -0.0685,0.553237 0.0773,2.117135 0.32387,3.47533 0.25968,1.430255 0.45828,5.47673 0.47193,9.615718 0.021,6.3611675 0.0885,7.1668745 0.61439,7.3337932 0.71695,0.22755 5.5659,5.2756154 5.66144,5.89391118 0.30061,1.94548302 0.24816,-4.89621888 -0.0575,-7.49759058 z M 383.6282,-11.656676 c 0.59152,-4.661979 0.61644,-9.115752 0.0844,-15.081249 -0.85146,-9.546504 -0.58784,-8.757568 -3.33441,-9.978962 -3.29992,-1.467464 -3.92725,-1.634079 -3.92725,-1.043058 0,0.269942 0.22683,2.066577 0.50406,3.992523 0.80512,5.593218 1.0002,11.546609 0.55935,17.069467 -0.22395,2.805595 -0.43577,5.259412 -0.47071,5.452927 -0.051,0.282368 2.21989,0.743839 5.97644,1.214491 0.21869,0.0274 0.49058,-0.699633 0.60814,-1.626139 z m 26.81573,-3.880556 c 0.65728,-3.976528 -0.81301,-10.148481 -3.49366,-14.66556 -0.67034,-1.129566 -1.21879,-2.201128 -1.21879,-2.38125 0,-0.180121 -0.14806,-0.327494 -0.32901,-0.327494 -0.18095,0 -0.4206,-0.277812 -0.53255,-0.617361 -0.11196,-0.339548 -0.69883,-1.172986 -1.30417,-1.852083 -0.60534,-0.679097 -1.93836,-2.279218 -2.96226,-3.555824 -1.86398,-2.324018 -8.16823,-8.438619 -8.70036,-8.438619 -0.44464,0 -0.36007,0.360581 0.93396,3.981753 1.29681,3.628994 2.83278,10.572469 3.22443,14.576305 0.13085,1.33772 0.339,2.624627 0.46255,2.859795 0.12354,0.235167 1.08117,1.066645 2.12806,1.847727 1.04689,0.781082 2.79759,2.255547 3.89046,3.276589 1.09287,1.021042 3.13355,2.928002 4.53485,4.237689 1.4013,1.309688 2.68282,2.38125 2.84782,2.38125 0.16501,0 0.39841,-0.595312 0.51867,-1.322917 z m -63.93199,-13.405554 c -3.06563,-7.085247 -10.86923,-21.355739 -12.94635,-23.675068 -0.29265,-0.326766 -9.71687,-1.47379 -11.37655,-1.38464 l -1.87439,0.100682 3.25483,4.586111 c 3.84655,5.41984 6.21811,9.090658 10.41837,16.126061 l 3.09849,5.189952 2.66076,0.118915 c 1.46342,0.0654 3.71297,0.150862 4.999,0.189909 l 2.33823,0.07099 z m -120.5217,-1.496781 c 5.04419,-0.583472 9.64794,-1.063289 10.23056,-1.06626 2.15752,-0.011 2.1352,-0.306455 -0.3691,-4.886322 -2.52065,-4.609755 -4.02477,-8.173919 -5.64,-13.364524 -0.96815,-3.111193 -1.06211,-3.263194 -2.01717,-3.263194 -0.96401,0 -8.61866,1.262677 -9.86627,1.627498 -0.71312,0.208527 -2.34677,5.022332 -3.48833,10.278923 -1.0004,4.606589 -2.34054,12.054994 -2.19513,12.2004 0.0642,0.06424 1.02972,-0.01425 2.1455,-0.174427 1.11578,-0.16018 6.15575,-0.768623 11.19994,-1.352094 z m 51.84166,-3.092064 c -0.18432,-0.147024 -0.87563,-0.742337 -1.53623,-1.322916 -0.66059,-0.58058 -1.12936,-0.89685 -1.04169,-0.702822 0.87497,1.936556 1.18904,2.293056 2.02017,2.293056 0.49109,0 0.74208,-0.120293 0.55775,-0.267318 z m 110.77846,-9.470416 c -1.38504,-6.077895 -1.87361,-7.109058 -5.66584,-11.958098 -5.32558,-6.809703 -8.79825,-10.406944 -10.04656,-10.406944 -1.20909,0 -4.67771,-1.241912 -6.14843,-2.201393 -0.58208,-0.379745 -2.04913,-1.746345 -3.26011,-3.036887 -1.21097,-1.290543 -2.20316,-2.173496 -2.20486,-1.96212 -0.002,0.211377 1.34719,2.482029 2.99753,5.045894 4.63327,7.197981 6.8879,11.753866 8.83519,17.853116 l 0.78841,2.469444 2.59553,0.91364 c 1.42755,0.502501 4.81804,2.03204 7.53442,3.398974 2.71639,1.366934 4.98171,2.447565 5.03403,2.401403 0.0523,-0.04616 -0.15436,-1.178825 -0.45931,-2.517029 z m 15.90994,-9.693284 c 2.52173,-1.506474 6.14954,-5.667301 7.65283,-8.777247 0.84759,-1.753447 1.14858,-2.91365 1.25439,-4.835217 0.14817,-2.690855 -0.0102,-3.374049 -1.93594,-8.354364 -0.73674,-1.905286 -1.28172,-4.035734 -1.39875,-5.468055 -0.45795,-5.604585 -1.89349,-7.109144 -6.78293,-7.109035 -5.54531,1.25e-4 -10.52018,1.380818 -17.91067,4.97081 -4.41086,2.142612 -5.85459,3.179327 -5.25816,3.775763 0.0984,0.09844 1.33249,-0.152967 2.74234,-0.558683 4.54546,-1.308067 6.70688,-1.61186 11.38279,-1.599886 3.63785,0.0093 5.04187,0.160585 6.79031,0.731588 2.11973,0.692254 5.92573,2.836066 5.60478,3.157014 -0.0854,0.08544 -1.43569,-0.03186 -3.00055,-0.260678 -1.75089,-0.256014 -5.32588,-0.355673 -9.29488,-0.259111 -6.20443,0.150947 -6.58066,0.202064 -9.89506,1.344375 -1.89497,0.653104 -3.39351,1.343143 -3.33008,1.533421 0.0634,0.190277 1.37573,0.63315 2.91623,0.984162 7.8369,1.785678 8.98138,2.141245 12.24666,3.804782 3.75686,1.913976 5.73051,3.272575 6.30004,4.336741 0.30885,0.5771 0.2648,0.655989 -0.28148,0.504041 -14.60572,-4.062621 -21.05653,-5.65211 -21.87087,-5.389019 -0.35695,0.115317 -1.02959,0.769832 -1.49476,1.454477 l -0.84577,1.244809 2.78605,2.733036 c 1.53232,1.503169 4.11546,4.207371 5.7403,6.009337 5.31889,5.898695 8.33238,7.584261 13.15746,7.359486 2.32735,-0.10842 2.98884,-0.294944 4.72572,-1.332547 z M 185.24538,-62.0157 c 0,-0.09701 -0.0794,-0.176389 -0.17639,-0.176389 -0.097,0 -0.17639,0.07938 -0.17639,0.176389 0,0.09701 0.0794,0.176389 0.17639,0.176389 0.097,0 0.17639,-0.07937 0.17639,-0.176389 z m 191.61467,-9.600945 c 0.48545,-0.485451 0.80271,-1.344324 0.90583,-2.452254 0.42439,-4.559326 -3.93358,-8.690094 -8.32154,-7.887699 -1.72843,0.316066 -2.77872,1.147894 -3.44905,2.731652 -1.30102,3.073835 0.26333,6.065398 4.10563,7.851395 2.13162,0.990828 5.65181,0.864224 6.75913,-0.243094 z m -15.11794,-7.765885 c 0.38119,-1.114996 0.40971,-1.611939 0.11289,-1.967318 -1.03204,-1.235661 -3.65768,-2.912092 -11.86241,-7.573985 -4.17105,-2.369975 -6.35024,-3.884342 -5.86019,-4.07239 1.01908,-0.391058 6.9111,1.120085 9.92421,2.54529 3.06348,1.449027 7.6778,4.427386 8.82751,5.697799 0.34286,0.378853 0.83992,0.688825 1.10459,0.688825 0.82891,0 0.14341,-1.720511 -2.10835,-5.291667 -2.8114,-4.458731 -6.18168,-8.471362 -11.3336,-13.493744 -2.33863,-2.27983 -4.06983,-4.14514 -3.84711,-4.14514 0.85406,0 4.9805,2.08217 7.1735,3.6197 4.95188,3.471813 10.01762,9.39608 12.5672,14.697044 0.75213,1.563812 1.48658,2.844785 1.6321,2.846606 0.7922,0.0099 -0.17454,-5.61192 -1.6598,-9.652148 -1.31143,-3.567376 -6.46389,-11.998492 -9.03938,-14.791402 -1.35389,-1.46818 -3.11126,-2.90314 -4.53153,-3.70017 -2.01974,-1.13344 -2.61674,-1.30098 -4.61304,-1.29458 -2.63212,0.008 -2.92545,0.0819 -4.16523,1.043 -1.11121,0.86145 -4.98056,4.68091 -5.72156,5.64777 -1.85128,2.41561 -2.01598,5.9273 -0.53535,11.414229 l 0.6059,2.24533 -1.33058,1.931933 c -1.36928,1.988135 -2.57968,4.956848 -2.59999,6.376931 -0.034,2.375936 1.98875,4.538257 5.33145,5.69937 2.2482,0.780928 11.26909,2.324623 16.69626,2.857141 2.12915,0.208913 3.94419,0.452853 4.03343,0.542088 0.28108,0.281077 0.67195,-0.328675 1.19908,-1.870512 z m 17.88469,-6.121432 c 1.19209,-0.791808 3.32622,-2.064692 4.74252,-2.82863 2.4563,-1.324912 2.60944,-1.482243 3.32021,-3.411041 0.6469,-1.755477 1.68592,-3.675121 6.31928,-11.675127 l 0.89144,-1.53917 -1.55175,0.24482 c -3.67607,0.58 -10.60769,4.773452 -13.95968,8.44526 -2.29413,2.51303 -3.94744,5.105647 -5.03227,7.891309 l -0.72488,1.861379 0.79226,0.320518 c 0.43575,0.176285 1.26852,0.722018 1.8506,1.21274 0.58209,0.490721 1.0868,0.89793 1.12158,0.904908 0.0348,0.007 1.0386,-0.635157 2.23069,-1.426966 z m -28.2231,-33.464528 c 0,-0.18257 -0.15875,-0.43007 -0.35278,-0.54998 -0.19402,-0.11992 -0.35277,0.0295 -0.35277,0.33195 0,0.3025 0.15875,0.54999 0.35277,0.54999 0.19403,0 0.35278,-0.14938 0.35278,-0.33196 z"
       id="path129" /></g></svg>
