<?xml version="1.0" encoding="UTF-8" standalone="no"?>
<!-- Created with Inkscape (http://www.inkscape.org/) -->

<svg
   width="265.65121mm"
   height="300.3754mm"
   viewBox="0 0 265.65122 300.37537"
   version="1.1"
   id="svg1"
   xml:space="preserve"
   xmlns="http://www.w3.org/2000/svg"
   xmlns:svg="http://www.w3.org/2000/svg"><defs
     id="defs1"><clipPath
       clipPathUnits="userSpaceOnUse"
       id="clipPath6"><path
         id="path7"
         style="fill:#ff0000;fill-opacity:1;fill-rule:nonzero;stroke:none;stroke-width:0.264583"
         d="M -175.07778,-16.057127 V 287.55793 H 124.54631 V -16.057127 Z m 132.7459,202.572647 c 0.210643,0.005 0.427212,0.0169 0.650089,0.0367 2.23823,0.19855 4.475655,0.4031 6.717938,0.55346 1.973313,0.11308 0.986628,0.0436 2.958475,0.20825 3.181295,0.26563 4.740125,1.85116 4.950601,3.46956 4.949923,1.63749 3.796379,7.35609 -2.592089,6.81354 -3.228716,-0.27422 -1.569593,-0.1301 -4.979024,-0.43357 -4.228209,-0.39317 -8.460616,-0.76265 -12.666927,-1.35341 -6.647387,-0.93358 -5.930551,-7.21034 0.03204,-7.20421 0.04685,5e-5 0.0972,0.004 0.144695,0.005 0.687229,-1.21692 2.304132,-2.15435 4.784204,-2.09548 z" /></clipPath><clipPath
       clipPathUnits="userSpaceOnUse"
       id="clipPath76"><path
         id="path77"
         style="fill:#ff0000;fill-opacity:1;fill-rule:nonzero;stroke:none;stroke-width:0.264583"
         d="M -133.83107,-122.52355 V 173.82063 H 122.97289 V -122.52355 Z M 13.574404,98.948202 c 2.788179,0.0507 4.135003,2.063798 3.398242,4.077268 0.199805,0.45372 0.374906,0.96736 0.517797,1.54461 1.07913,4.35948 0.671079,8.891 0.311608,13.31495 -0.351859,3.06036 -0.147137,1.57974 -0.604097,4.44366 -0.359666,2.25418 -1.333846,3.66838 -2.455664,4.32532 0.105138,0.36595 0.224724,0.72888 0.324528,1.09554 0.6273,2.23652 0.575201,4.47401 0.39429,6.75514 -0.137303,1.73129 -0.688065,2.99533 -1.427303,3.82199 -0.112477,0.41601 -0.170275,0.80219 -0.311092,1.25212 -0.184975,0.59102 -0.413327,1.1061 -0.670242,1.55856 0.741137,-0.23134 1.446982,-0.38145 2.064991,-0.37517 4.085002,0.0415 5.222724,4.75435 -0.02223,7.27138 -4.46677,2.14368 -9.303523,3.34693 -14.11903492,4.40955 -4.40876268,0.85156 -8.89238128,1.33053 -13.38264308,1.19269 -5.804014,-0.17807 -6.736297,-5.00293 -3.065447,-6.67298 -2.072987,-0.65744 -4.042852,-1.62261 -4.128947,-3.14709 -0.02802,-0.49633 0.0026,-0.90355 0.0341,-1.30897 -1.976731,-0.003 -3.95339,2.4e-4 -5.930386,0.003 -0.814031,0 -1.53062,-0.0962 -2.159559,-0.26149 -0.376306,0.19492 -0.742394,0.40783 -1.120862,0.59893 -6.391272,3.22657 -9.625245,-3.24074 -3.234428,-6.46886 1.833438,-0.92611 3.62694,-1.92211 5.414142,-2.92954 -0.877003,-3.87058 -1.368747,-7.83436 -1.323951,-11.80858 0.01651,-1.46304 0.376836,-2.54918 0.864547,-3.41426 -1.247357,-1.79999 -0.223805,-4.63069 3.842661,-5.68855 3.11826,-0.81116 6.282901,-1.39515 9.473837,-1.82211 -1.259816,-0.12657 -2.516182,-0.30233 -3.764627,-0.50177 -1.477002,-0.21985 -2.935575,-0.54305 -4.407482,-0.7891 -1.14214,-0.22954 -0.588502,-0.12004 -1.660882,-0.3297 -3.350244,-0.65501 -4.783278,-2.61088 -4.608504,-4.32997 -0.200179,-1.7721 1.333365,-3.52972 4.663799,-3.59461 v -5.3e-4 c 0.20954,-0.004 0.426035,-0.002 0.649571,0.008 1.77111,0.0772 3.528708,0.28204 5.26428,0.64027 1.655035,0.33225 3.314115,0.6481 4.955251,1.04439 1.244759,0.34858 2.51628,0.54538 3.7997689,0.6723 0.025956,0.002 0.052073,0.002 0.078034,0.004 0.4990888,-0.0371 0.9984105,-0.0743 1.4965495,-0.11317 1.346872,-0.12588 2.6913231,-0.25136 4.0457464,-0.24236 1.1278499,-0.0444 2.2567291,-0.10772 3.37498791,-0.26872 0.75719517,-0.11591 1.51142439,-0.25483 2.25722659,-0.4284 0.3616431,-0.12394 0.7240561,-0.24538 1.083138,-0.37775 0.3360393,-0.12388 0.6107589,-0.12825 0.9250071,-0.20723 0.1281086,-0.045 0.2583895,-0.0825 0.3855085,-0.13074 1.9825018,-0.7681 3.9540551,-1.56464 5.9510551,-2.29443 1.050809,-0.383992 1.999634,-0.542639 2.826703,-0.527616 z M 0.70283723,110.39557 c -0.45566013,0.0949 -0.90775367,0.208 -1.36890919,0.2744 -1.16638124,0.15534 -2.34111274,0.24237 -3.51761424,0.26251 0.4031694,0.0896 0.8047355,0.18876 1.2025101,0.308 0.1014836,0.0304 0.1982549,0.075 0.2986907,0.10852 0.4205235,-0.21824 0.9206601,-0.35072 1.4898318,-0.37156 0.39885139,-0.0146 0.83259872,0.0278 1.29449508,0.13023 0.22468681,-0.12213 0.44967525,-0.24374 0.67437529,-0.36587 -0.0326284,-0.11319 -0.058211,-0.22834 -0.0733795,-0.34623 z m 10.24433577,1.02474 c -0.76023,0.21437 -1.5189569,0.4343 -2.2696301,0.68006 -0.031261,0.62207 -0.2256075,1.28373 -0.6464723,1.94355 0.6236891,0.43248 1.2549743,1.04482 1.8634525,1.86862 0.2674939,0.36214 0.4748849,0.75712 0.7188199,1.13223 0.154519,-1.86707 0.314174,-3.74736 0.33383,-5.62446 z m 64.566086,3.39773 c 1.50346,0.0187 3.129182,1.24994 3.928441,4.04678 0.257931,0.90255 0.823497,1.65871 1.488797,2.30735 0.856321,0.95375 1.845738,1.76777 2.801898,2.61638 1.458581,1.46408 2.789203,3.04608 4.169772,4.58215 1.315059,1.44746 2.571226,2.91698 3.543967,4.61884 0.0053,0.01 0.0082,0.0206 0.01344,0.0305 0.734605,-0.43313 1.446276,-0.65634 2.094962,-0.69195 3.016182,-0.16561 4.69137,3.55377 1.187525,7.32306 -1.69471,1.82311 -3.657862,3.33908 -5.68751,4.7651 -0.777873,0.49914 -1.607691,0.90075 -2.418456,1.33842 0.165478,1.44344 -0.672182,3.24303 -2.956409,4.73096 -1.354556,0.88234 -2.690448,1.79306 -4.075203,2.6288 -2.075008,1.20078 -4.233777,2.27962 -6.540687,2.96259 -2.077586,0.62971 -4.169056,1.29987 -6.359301,1.36374 -1.872114,0.0897 -3.746989,0.0368 -5.620845,0.0501 h -5.1108 -5.524728 c -7.160125,0 -7.160125,-7.23315 0,-7.23315 h 1.347722 c 0.29438,-0.0541 0.5212,-0.1588 0.84801,-0.18656 1.106628,-0.094 2.200932,-0.28334 3.292822,-0.48421 0.456121,-0.98163 1.356053,-1.98213 2.807581,-2.83962 1.078018,-0.63685 2.158119,-1.26923 3.212209,-1.94561 1.962647,-1.29302 3.840588,-2.72135 5.893696,-3.86902 1.367169,-0.76424 2.559646,-1.07097 3.526915,-1.04128 2.216811,0.068 3.246223,1.90266 2.479953,4.04059 1.105688,-0.48686 2.206929,-0.98346 3.283003,-1.53739 2.619811,-1.23728 5.288743,-2.38548 7.764385,-3.9026 0.246153,-0.17184 0.487463,-0.34958 0.730705,-0.52503 -0.126915,-0.50614 -0.277693,-0.9939 -0.512114,-1.46554 -0.647621,-1.25778 -1.721077,-2.20654 -2.600875,-3.29644 -1.199229,-1.33472 -2.369312,-2.69496 -3.592029,-4.00803 -1.098706,-0.97599 -2.227236,-1.92181 -3.215306,-3.01428 -1.300821,-1.39063 -2.459913,-2.93896 -3.045293,-4.77801 -1.289469,-4.05101 0.646382,-6.61405 2.843754,-6.58667 z m -95.086705,4.28035 c -0.465643,0.10748 -0.930899,0.21773 -1.394745,0.33435 0.171958,0.64334 0.283575,1.36624 0.279569,2.2071 -0.01267,2.6582 0.205063,5.32647 0.670242,7.94732 0.280107,-0.17087 0.565767,-0.33222 0.845429,-0.50385 -0.01897,-0.36223 -0.02445,-0.73164 -0.05529,-1.08985 -0.118034,-2.96491 -0.160888,-5.93314 -0.3452,-8.89507 z m 18.5141159,1.1958 c 0.00497,0.0773 0.00619,0.15612 0.014975,0.23202 -0.1238779,0.22787 -0.2588048,0.44752 -0.3937741,0.66715 0.58900751,0.0447 1.13203305,0.21413 1.64331124,0.45888 -0.37615284,-0.49255 -0.78353709,-0.94642 -1.26452314,-1.35805 z m -6.5422357,14.57068 c -0.046649,0.0755 -0.09888,0.14702 -0.1436608,0.22376 -0.03147,0.054 0.1963367,0.0838 0.1860365,0.0222 -0.017595,-0.10481 -0.026035,-0.14905 -0.042376,-0.24597 z m 13.9236979,6.08439 c -0.2236258,0.5643 -0.5677508,1.09664 -1.1782213,1.50533 0.9079653,0.17659 1.7077452,0.44257 2.2830631,0.84852 0.1405493,-0.0459 0.272804,-0.11448 0.4128956,-0.16174 -0.7336976,-0.43656 -1.2984269,-1.18703 -1.5177374,-2.19211 z" /></clipPath><clipPath
       clipPathUnits="userSpaceOnUse"
       id="clipPath127"><path
         id="path128"
         style="fill:#ff0000;fill-opacity:1;fill-rule:nonzero;stroke:none;stroke-width:0.264583"
         d="M -112.24796,-126.55676 V 185.58027 H 148.5754 V -126.55676 Z M 46.874626,83.305366 c 1.808208,0 3.616317,1.790192 3.616317,5.370214 v 5.232238 c 0.0627,2.146078 -0.111291,4.285324 -0.245462,6.424932 -0.136289,2.02485 -0.190703,4.04985 -0.104904,6.07715 0.192061,1.91863 0.527714,3.82569 0.876432,5.72213 0.304242,2.00862 0.765826,3.9858 1.180806,5.97276 0.41642,1.86142 0.967934,3.68703 1.421104,5.53972 0.25287,0.86996 0.117097,0.46495 0.396356,1.22008 0.186108,0.50319 0.223428,0.93098 0.309544,1.38441 4.425355,2.23251 2.751262,7.58433 -3.415813,6.40477 -3.104732,-0.59371 -6.256094,-0.76586 -9.40821,-0.85576 -3.81635,0.009 -7.630525,0.17062 -11.44478,0.28216 -1.12776,0.0333 -2.255837,0.0512 -3.383772,0.0754 -0.908129,0.5548 -1.966518,0.57724 -2.88613,0.0641 -0.03584,5.3e-4 -0.07165,0.002 -0.107487,0.003 -0.03142,5.3e-4 -0.0525,-0.009 -0.08268,-0.009 -0.32049,0.14732 -0.641715,0.29301 -0.962215,0.44028 -0.262501,0.12062 -0.518089,0.22111 -0.770496,0.31265 -0.876996,0.71434 -1.945576,0.85817 -2.911967,0.46405 -2.943479,-0.21613 -4.295167,-2.77187 -2.550232,-5.0524 -2.22e-4,-0.028 -0.0078,-0.0483 -0.0078,-0.0765 v -6.3469 c -0.014,-2.72977 -0.02254,-5.45666 0.112657,-8.18348 0.135676,-2.32533 0.233519,-4.6523 0.299723,-6.98046 0.046,-1.80459 0.06926,-3.60958 0.08527,-5.41465 -0.0258,-1.02998 0.04009,-2.054459 0.138491,-3.078883 0.0044,-0.04602 0.02191,-0.07504 0.02687,-0.120406 C 15.992671,97.193438 15.83363,95.70984 16.656834,94.418959 10.68718,93.678613 10.992573,87.32947 17.739972,87.32947 h 3.885033 5.177462 5.913334 c 1.498505,0.05847 2.984222,-0.03228 4.475178,-0.161748 1.252041,-0.18606 2.49041,-0.398671 3.697968,-0.782897 1.001961,-0.32245 0.492366,-0.161472 1.527553,-0.482142 0.510384,-0.158096 0.938446,-0.174371 1.394749,-0.23771 0.672338,-1.56932 1.86623,-2.35903 3.063377,-2.35903 z" /></clipPath></defs><g
     id="layer1"
     transform="translate(-151.70485,298.4609)"><path
       style="fill:#000000"
       d="m 287.3725,1.4649263 c -5.12021,-1.11136638 -9.40118,-4.9989105 -12.83846,-11.6586073 -0.89309,-1.730355 -2.68514,-5.84485 -3.98232,-9.143322 -3.77581,-9.601097 -6.65063,-14.569236 -11.4273,-19.748204 -8.55546,-9.276013 -17.55789,-14.002571 -38.83814,-20.391243 -10.39946,-3.122084 -9.35117,-2.984393 -10.37489,-1.362723 -1.16154,1.84 -3.24997,3.511805 -4.97094,3.979274 -1.94139,0.527341 -5.0327,0.187175 -6.90471,-0.759791 -3.40435,-1.722109 -7.78302,-5.94138 -11.52576,-11.106198 -9.30183,-12.836106 -10.9868,-24.77775 -4.36951,-30.96745 3.939,-3.684472 6.51061,-4.273692 18.74303,-4.294452 10.01212,-0.017 12.92321,0.28569 20.2839,2.10905 4.1437,1.02646 4.6175,1.05698 4.90197,0.31567 0.54151,-1.41116 0.23048,-2.31981 -0.9324,-2.72387 -2.71636,-0.94382 -11.71321,-5.80034 -15.61041,-8.42652 -5.97528,-4.02652 -8.47861,-6.10618 -14.13623,-11.74377 -5.24333,-5.22476 -7.1984,-7.51779 -12.48897,-14.64782 -1.79963,-2.42535 -4.25948,-5.4416 -5.46632,-6.70278 -2.67083,-2.79106 -5.12329,-5.98413 -6.23196,-8.11388 -0.67734,-1.30118 -0.82639,-2.12833 -0.82639,-4.58612 0,-3.34153 0.71321,-5.23288 2.53789,-6.73022 l 0.98143,-0.80536 -1.41112,-2.81625 c -1.35457,-2.70343 -1.41111,-2.9528 -1.41111,-6.22439 0,-3.17301 0.073,-3.52566 1.05834,-5.11185 1.5821,-2.5469 2.62682,-3.18276 5.22934,-3.18276 3.2685,0 4.61293,1.29031 6.06503,5.82084 0.91806,2.86434 2.41568,5.64677 3.84506,7.14375 1.33613,1.39931 2.87855,1.82877 2.53402,0.70555 -2.63401,-8.58724 -3.55342,-13.274 -4.10041,-20.90208 -0.33833,-4.71829 -0.29872,-7.00832 0.22425,-12.96458 l 0.19359,-2.20486 -0.99822,-0.004 c -1.7549,-0.007 -4.67495,-0.96299 -6.47804,-2.12003 -3.26601,-2.09579 -5.20548,-5.43725 -5.58537,-9.62287 l -0.2237,-2.46463 -1.41111,-0.42074 c -3.68806,-1.09966 -6.58836,-3.60439 -7.79435,-6.73129 -0.65667,-1.70263 -0.88452,-5.08554 -0.49593,-7.36315 0.16608,-0.97339 0.0836,-1.05779 -1.41111,-1.44341 -2.52785,-0.65217 -4.59692,-1.88094 -6.56969,-3.90158 -2.51259,-2.57355 -3.45063,-5.0112 -3.45063,-8.967 0,-4.21018 0.95373,-6.53478 3.84991,-9.38365 l 2.18745,-2.15172 0.1871,-2.4344 c 0.47032,-6.11928 4.83309,-10.61358 10.67503,-10.99686 l 2.46944,-0.16201 0.0128,-3.22248 c 0.016,-4.04722 0.90661,-6.49155 3.33199,-9.14531 2.533,-2.7715 4.8699,-3.93189 7.94412,-3.94468 1.3582,-0.006 2.9457,0.1081 3.52778,0.25277 0.97434,0.24217 1.14233,0.13665 2.11667,-1.3296 1.32752,-1.99773 3.14655,-3.47824 5.741,-4.6726 1.67998,-0.77338 2.52498,-0.92995 5.01872,-0.92995 2.50785,0 3.33555,0.15509 5.05738,0.94766 1.13233,0.52121 2.7049,1.45939 3.4946,2.08485 1.92807,1.52706 4.01025,4.8346 4.54348,7.21731 0.41193,1.8407 0.48435,1.93366 1.34289,1.72363 2.51515,-0.61531 6.32003,-0.61708 8.18409,-0.004 2.29885,0.7563 4.76606,2.38297 5.07085,3.34329 0.32415,1.02132 0.99313,0.87663 3.01206,-0.65144 5.77566,-4.37143 16.42188,-9.40333 25.17581,-11.89926 20.49953,-5.84486 40.55398,-5.7078 59.52711,0.40681 17.04248,5.4924 32.0775,14.81751 43.16049,26.76925 6.98288,7.53024 11.23393,13.62645 15.75396,22.59193 1.56514,3.10445 2.90089,5.70305 2.96833,5.77467 0.0674,0.0716 0.96018,-0.60246 1.98387,-1.49796 5.82136,-5.09238 14.89753,-6.89161 23.59978,-4.67834 7.27571,1.85046 14.8511,7.07507 15.67099,10.80801 0.32165,1.46446 -1.17184,5.27073 -3.41848,8.71223 -3.55769,5.44984 -9.76765,10.35653 -15.14651,11.96775 -1.13981,0.34143 -2.05989,0.7098 -2.04463,0.8186 0.0153,0.1088 1.24558,1.15947 2.73403,2.33482 4.99452,3.94393 8.90797,9.72193 10.69218,15.78643 0.87688,2.98051 0.73516,4.1113 -0.68004,5.42624 -4.36454,4.05535 -14.44966,3.91034 -22.39341,-0.32198 -1.11912,-0.59625 -2.12561,-0.99324 -2.23665,-0.88221 -0.11103,0.11104 -0.49409,1.71069 -0.85124,3.55479 -0.90012,4.64768 -2.90492,12.07971 -4.59808,17.04568 -3.02373,8.86842 -9.37089,20.14384 -15.15814,26.92765 -4.72025,5.53308 -5.95478,6.70573 -14.75513,14.01548 l -1.534,1.27418 6.14654,2.02331 c 10.65208,3.50644 21.90355,9.22382 28.27508,14.36785 4.44493,3.58858 5.92328,5.30681 7.54578,8.77013 0.82686,1.76499 0.96449,2.511843 0.96449,5.233772 0,2.748709 -0.13011,3.439938 -0.96907,5.148255 -1.9975,4.067392 -5.44406,6.351273 -9.96704,6.604718 -1.81476,0.10169 -2.6668,0.319729 -3.21386,0.822431 -0.81829,0.751937 -4.00779,2.064872 -5.01617,2.064872 -0.35076,0 -1.49999,-0.25364 -2.55386,-0.563645 -2.44128,-0.71813 -4.78871,-3.044722 -5.94404,-5.89126 -0.56493,-1.39189 -1.05323,-2.073795 -1.5709,-2.193742 -3.61857,-0.83844 -32.59672,-3.698344 -37.4753,-3.698504 l -2.15191,-7e-5 -0.22085,6.261805 c -0.14331,4.063262 -0.47114,7.500421 -0.93372,9.789583 -0.39208,1.940277 -0.7134,3.773699 -0.71404,4.074269 -6.8e-4,0.313493 0.56285,0.746382 1.32174,1.015327 4.58901,1.62632 17.88384,7.548211 27.39724,12.203494 4.85769,2.377062 7.10462,3.666824 7.53369,4.324425 1.87445,2.872822 -1.01712,13.107948 -5.27427,18.669031 -1.63753,2.1391 -4.32084,3.987444 -5.78685,3.986164 -0.63879,-5.58e-4 -2.39287,-0.834607 -4.63703,-2.204861 -3.68617,-2.250738 -13.56501,-8.339468 -20.18739,-12.442309 -2.02874,-1.256896 -3.89406,-2.285265 -4.14514,-2.285265 -0.31199,0 -0.4565,0.552667 -0.4565,1.745821 0,6.054974 -2.13556,15.986052 -4.45689,20.726064 -1.05243,2.148997 -1.82123,4.380217 -2.27554,6.604116 -2.57513,12.6054783 -6.13418,19.5015724 -11.53327,22.3470899 -3.43812,1.8120137 -6.2604,2.1713711 -10.25085,1.3052254 z m 6.50037,-5.2696378 c 1.61418,-0.4793598 4.37729,-2.5209467 4.37729,-3.2342573 0,-0.1687432 -1.86531,-1.0017567 -4.14514,-1.8511411 -4.62498,-1.7231101 -4.37915,-1.7278461 -8.99583,0.1732821 -1.30969,0.5393233 -2.38125,1.1766707 -2.38125,1.4163275 0,0.6963065 2.48983,2.5586972 4.40972,3.2984639 2.14006,0.8246021 4.39998,0.8908122 6.73521,0.1973249 z m 8.03637,-10.2152745 c 0.31584,-0.956196 0.57426,-2.035385 0.57426,-2.398198 0,-0.586738 -0.16574,-0.54613 -1.49931,0.367345 -0.82462,0.564853 -2.17399,1.369456 -2.99861,1.788007 -0.82462,0.41855 -1.49931,0.903295 -1.49931,1.077211 0,0.173915 0.91282,0.627905 2.02848,1.008866 2.36816,0.808651 2.55143,0.709137 3.39449,-1.843231 z m -19.38908,1.513189 c 1.08442,-0.414983 1.97167,-0.871674 1.97167,-1.014868 0,-0.261203 -6.30456,-4.169918 -7.53543,-4.671834 -0.46217,-0.188462 -0.60084,-0.136295 -0.46885,0.176389 1.28892,3.053603 2.60623,5.787096 2.889,5.994843 0.54621,0.40129 1.01941,0.328355 3.14361,-0.48453 z m 11.81554,-4.416277 c 4.36326,-2.41931 9.55891,-6.18202 9.55891,-6.922597 0,-0.199562 -1.28224,-0.219005 -3.2632,-0.04948 -3.56739,0.305287 -10.15763,0.285404 -13.49375,-0.04071 -1.97915,-0.193468 -9.25304,-1.354356 -11.0243,-1.759442 -2.40653,-0.55037 0.75206,2.079617 7.63963,6.361103 3.42755,2.130652 6.6084,3.640224 7.76049,3.682983 0.2724,0.01011 1.5424,-0.562225 2.82222,-1.271855 z m 7.33963,-12.142306 c 1.51165,-0.208871 3.16899,-0.538998 3.683,-0.733615 2.88854,-1.093686 5.59183,-14.780142 5.59183,-28.310843 v -3.102374 l -1.4993,0.161372 c -0.82462,0.08875 -3.48368,0.540109 -5.90903,1.003011 -4.09956,0.782441 -5.22855,0.841018 -16.05139,0.832806 -11.86475,-0.009 -14.07207,-0.174951 -23.8125,-1.790254 -5.38454,-0.892946 -17.99154,-4.355111 -20.99027,-5.764401 -0.38806,-0.182371 -1.76282,-0.741986 -3.05503,-1.243589 -5.05595,-1.962589 -11.0926,-5.730666 -13.1178,-8.188133 -0.98556,-1.19592 -1.25151,-1.865137 -1.65566,-4.166154 -0.17039,-0.970139 -0.37876,-2.081389 -0.46304,-2.469444 -0.51028,-2.349534 -0.58601,-8.6489 -0.12971,-10.78912 0.44698,-2.096465 0.44047,-2.322982 -0.0668,-2.327891 -0.30908,-0.003 -0.66893,0.158781 -0.79966,0.359492 -0.16354,0.25108 -0.38365,0.250255 -0.70555,-0.0026 -0.63192,-0.496465 -6.78293,-2.183586 -8.75814,-2.402216 -0.87312,-0.09664 -3.13178,-0.366196 -5.01924,-0.599005 -1.88745,-0.23281 -3.53731,-0.31771 -3.66636,-0.188665 -0.12904,0.129044 -0.058,1.071846 0.15782,2.095115 1.87415,8.88505 4.64652,22.870178 5.00023,25.223514 0.23989,1.596053 0.61578,3.042916 0.83533,3.215251 0.38892,0.305293 4.20193,1.567291 16.09777,5.327904 17.4365,5.51217 26.16118,10.218943 34.32515,18.517655 2.98504,3.034307 4.93722,5.533953 7.08573,9.072846 1.77091,2.916936 1.92838,3.022247 6.21412,4.155923 8.01176,2.119292 19.87335,3.057907 26.7085,2.113458 z m 45.73554,-13.113983 c 1.77247,-2.487049 3.05263,-5.145092 3.89145,-8.079989 0.94482,-3.305818 0.85103,-3.621085 -1.44767,-4.866117 -2.30307,-1.247396 -2.92116,-1.183732 -2.92116,0.300882 0,2.500978 -2.03728,9.076176 -3.59586,11.605447 -0.39488,0.640796 -0.62194,1.261096 -0.50459,1.378445 0.19937,0.19937 2.78171,1.831027 2.9361,1.855183 0.0387,0.0061 0.77748,-0.981177 1.64173,-2.193851 z m -7.64318,-3.880555 c 1.27688,-2.155479 1.96611,-3.670365 2.72679,-5.993346 0.64003,-1.954525 1.26355,-5.614871 1.02388,-6.010573 -0.16384,-0.270502 -5.56862,-3.07733 -5.92565,-3.07733 -0.10132,0 -0.18566,0.277813 -0.18741,0.617361 -0.008,1.626859 -1.80768,8.287833 -2.78202,10.299252 -0.60244,1.243659 -1.09534,2.384409 -1.09534,2.535 0,0.248648 4.50465,3.390875 4.95254,3.454656 0.10453,0.01488 0.68377,-0.806374 1.28721,-1.82502 z m -9.46019,-5.468055 c 1.33015,-2.609054 2.559,-5.950968 3.06802,-8.343649 0.47377,-2.22695 0.4676,-2.490252 -0.0723,-3.086805 -0.32462,-0.358701 -0.71329,-0.652184 -0.86371,-0.652184 -0.15042,0 -1.33009,-0.489055 -2.6215,-1.086788 -1.2914,-0.597733 -2.39391,-1.034296 -2.45002,-0.970139 -0.0561,0.06416 -0.2877,1.227899 -0.51465,2.586094 -0.57713,3.453891 -1.42871,6.792651 -2.18001,8.547129 l -0.63872,1.491574 2.3654,1.404746 c 1.30097,0.77261 2.56061,1.411089 2.7992,1.418842 0.23859,0.0078 0.73731,-0.581216 1.10826,-1.30882 z m -8.10525,-8.943226 c 0.56038,-1.629662 1.12898,-3.786904 1.26357,-4.793869 l 0.24471,-1.830845 -1.78235,-0.903182 c -2.17796,-1.103657 -2.4027,-1.112782 -2.69522,-0.109432 -0.12728,0.436562 -0.85235,2.752044 -1.61127,5.145514 -0.75893,2.39347 -1.37986,4.574152 -1.37986,4.84596 0,0.271807 0.51593,0.717506 1.14652,0.990442 0.6306,0.272935 1.46401,0.738501 1.85203,1.03459 0.65458,0.49948 0.75017,0.467796 1.32426,-0.438905 0.34031,-0.537487 1.07723,-2.31061 1.63761,-3.940273 z m -117.66788,-1.728825 c 1.15038,-1.010049 1.84878,-2.651519 1.27819,-3.004164 -0.1474,-0.09109 -0.85276,0.0787 -1.56748,0.377333 -0.71472,0.298628 -2.24404,0.734136 -3.39851,0.967796 -1.15446,0.23366 -2.11896,0.583587 -2.14333,0.777615 -0.0669,0.533109 2.57717,1.927869 3.66729,1.934474 0.56754,0.0034 1.4493,-0.425677 2.16384,-1.053054 z m 94.77413,-2.139085 c 5.79341,-0.620645 13.64328,-2.973472 14.69481,-4.404448 0.4517,-0.614693 1.02677,-5.368614 0.69015,-5.705231 -0.11718,-0.117182 -1.99955,0.211193 -4.18304,0.72972 -5.4182,1.286696 -7.673,1.58981 -14.97408,2.012977 -6.17535,0.357921 -8.60715,0.297742 -16.68895,-0.412997 -15.14906,-1.332256 -32.43106,-6.232581 -44.69646,-12.673716 -2.56091,-1.344849 -4.745,-2.30148 -4.85355,-2.125846 -0.23974,0.387912 0.38823,5.065636 0.88486,6.591217 1.40875,4.327527 16.2613,10.781204 31.9082,13.86463 13.4438,2.649276 25.75475,3.35175 37.21806,2.123694 z m -100.67854,-2.935083 c 3.12267,-0.8315 3.14927,-0.882543 1.49761,-2.874441 -0.79912,-0.96374 -2.08956,-2.757317 -2.86764,-3.985726 -1.01589,-1.603849 -1.49857,-2.101095 -1.71221,-1.763889 -0.16363,0.25827 -0.78677,1.930245 -1.38476,3.715499 l -1.08724,3.245916 0.79524,1.075611 c 0.91276,1.234576 1.87938,1.35381 4.759,0.58703 z m -6.90143,-7.978085 c 2.31298,-5.487919 2.2694,-5.297774 1.76213,-7.688106 -0.25372,-1.195594 -0.58905,-2.094861 -0.74517,-1.998373 -0.48582,0.300254 -3.28448,4.48679 -4.17808,6.250006 l -0.85081,1.678805 1.19469,2.457597 c 0.65708,1.351679 1.30886,2.342466 1.4484,2.201751 0.13954,-0.140716 0.75552,-1.446472 1.36884,-2.90168 z m 13.13772,1.675695 c -0.25835,-2.111358 -1.2496,-7.813237 -2.68316,-15.434027 -0.67522,-3.589514 -1.33296,-7.280451 -1.46164,-8.202083 l -0.23396,-1.675694 h -1.70453 c -1.22887,0 -1.76428,0.155718 -1.91866,0.55802 -0.44303,1.154535 -0.20664,9.385783 0.34646,12.063502 0.96924,4.692359 3.21535,9.535628 5.98791,12.91162 1.40872,1.715324 1.89662,1.650564 1.66758,-0.221338 z m 94.97141,-3.592574 c 4.98702,-0.494966 12.83121,-1.993307 14.8488,-2.836312 0.97921,-0.40914 1.11869,-0.657079 1.32197,-2.35002 0.36676,-3.054305 0.26795,-10.824024 -0.17826,-14.017187 -0.40913,-2.927872 -0.40548,-2.957837 0.44053,-3.614948 0.72581,-0.563757 1.2741,-0.635407 3.67529,-0.480327 14.6647,0.947108 19.24318,1.270704 19.9677,1.411263 1.43602,0.278596 6.31425,0.632109 6.31425,0.457579 0,-0.09072 0.39973,-1.500442 0.88829,-3.132722 0.91424,-3.05447 4.05059,-17.47402 4.05059,-18.62285 0,-0.51929 -0.7691,-0.86053 -3.96875,-1.76085 -2.18281,-0.61421 -4.27126,-1.11624 -4.641,-1.11563 -0.36974,6.1e-4 -1.16667,0.37821 -1.77095,0.83912 -0.60428,0.46091 -2.68301,1.63164 -4.61941,2.60162 -10.82993,5.42496 -25.16921,9.52363 -37.20353,10.63409 -3.25222,0.3001 -3.306,0.3204 -4.55966,1.72128 -1.80507,2.01703 -10.22696,8.508413 -16.43808,12.670057 -5.15733,3.455577 -12.51634,7.871051 -13.11821,7.871051 -0.16497,0 -0.93211,0.434111 -1.70476,0.964693 -1.92906,1.324706 -3.23032,2.063759 -5.19717,2.951756 -0.92163,0.4161 -1.67569,0.865577 -1.67569,0.998838 0,0.618796 10.8075,3.268955 15.16944,3.719772 1.26118,0.130346 3.72181,0.462 5.46806,0.737009 1.74625,0.27501 3.88937,0.552938 4.7625,0.617619 4.22446,0.312948 13.74451,0.17414 18.16805,-0.264901 z m -113.56149,-5.932426 c 1.01332,-2.025045 3.17484,-5.096457 4.82029,-6.849386 1.01127,-1.077318 1.05151,-1.249412 1.1397,-4.874162 l 0.0914,-3.757415 -1.45468,0.236311 c -7.32502,1.189941 -9.41331,5.98255 -6.48887,14.891875 0.39806,1.212673 0.77811,2.204861 0.84455,2.204861 0.0665,0 0.53786,-0.833438 1.04759,-1.852084 z m 68.10745,-3.581378 c 2.88056,-1.436181 7.22175,-3.758623 9.6471,-5.160981 2.42535,-1.402359 5.28285,-3.027346 6.35,-3.611084 1.06715,-0.583738 2.33715,-1.374878 2.82222,-1.75809 0.48507,-0.383212 2.7078,-1.988479 4.93941,-3.567255 4.58027,-3.24038 9.52448,-7.22888 9.52448,-7.6834 0,-0.16632 -1.23031,-0.30679 -2.73403,-0.31216 -1.50371,-0.005 -3.84528,-0.0977 -5.20347,-0.20512 l -2.46944,-0.19534 -2.11667,1.55311 c -3.24793,2.38319 -7.77491,4.95494 -15.69861,8.918285 -7.77115,3.887042 -11.54245,5.684226 -15.16944,7.228886 -3.86795,1.647275 -6.32668,2.847919 -6.54047,3.193828 -0.11217,0.181503 -0.15489,0.331067 -0.0949,0.332364 0.06,0.0013 2.25214,0.867946 4.87152,1.925885 2.61937,1.05794 5.1838,1.930003 5.69873,1.937919 0.51493,0.0079 3.29306,-1.160665 6.17361,-2.596847 z m 118.75258,-1.181767 c 0.30761,-0.339903 0.72435,-1.052151 0.92609,-1.582771 0.3346,-0.880062 0.45291,-0.932012 1.34748,-0.591703 2.56899,0.977287 6.63819,0.07431 8.59443,-1.907146 1.62954,-1.650543 2.18464,-5.067607 1.24868,-7.686571 -0.51519,-1.441582 -3.14801,-4.985112 -4.68905,-6.311022 -1.17242,-1.00875 -4.20865,-3.175 -4.4501,-3.175 -0.0887,0 -0.27443,1.2962 -0.41262,2.88044 -0.31276,3.58537 -1.28241,7.445036 -2.44854,9.746271 -0.95091,1.876525 -3.86529,4.653348 -4.88783,4.65712 -1.07056,0.004 -0.73199,1.637249 0.65841,3.176262 1.43224,1.58532 3.10479,1.908243 4.11305,0.79412 z m -136.53071,-5.169122 c 1.987,-0.854587 5.20023,-2.295094 7.14051,-3.201126 10.82471,-5.054705 9.77029,-4.435975 9.15637,-5.372935 -0.90956,-1.38818 -4.00999,-6.77084 -5.93512,-10.30397 -2.01404,-3.69632 -1.35594,-3.21857 -8.68931,-6.30801 -7.87904,-3.31933 -16.23532,-8.17428 -22.12459,-12.85426 -1.47245,-1.17011 -4.56035,-3.95614 -6.86198,-6.19118 -2.30164,-2.23504 -4.22802,-3.99988 -4.28086,-3.92186 -1.45497,2.14871 -2.01034,3.05184 -2.01034,3.26917 0,0.14693 -0.95604,2.17267 -2.12454,4.50164 l -2.12453,4.23448 0.68962,0.96848 c 2.07423,2.91299 9.97686,9.2524 16.43584,13.18467 4.03921,2.45909 10.713,5.55703 11.97134,5.55703 0.0708,0 0.41951,-0.80891 0.77504,-1.79759 1.1452,-3.1847 2.97798,-4.26862 4.76523,-2.8182 l 0.83283,0.67588 -0.98684,3.64565 c -1.83334,6.77283 -3.27458,14.208947 -3.10585,16.024723 0.0289,0.310593 2.41737,2.261204 2.76882,2.261204 0.0526,0 1.72135,-0.699208 3.70836,-1.553796 z m 126.06124,-3.524505 c 0.2222,-0.579053 -0.47631,-3.388969 -0.84198,-3.387043 -0.13804,7.27e-4 -0.55131,0.731509 -0.91837,1.623958 -0.56006,1.361694 -0.58842,1.672636 -0.17639,1.933554 0.74145,0.469509 1.72435,0.382995 1.93674,-0.170469 z m 6.22028,-1.991135 c 1.28818,-2.576231 2.03537,-6.378731 2.03537,-10.358161 v -3.27036 l -4.03336,-2.17463 c -2.21834,-1.19605 -4.19326,-2.17463 -4.3887,-2.17463 -0.19545,0 0.0337,1.14382 0.50918,2.54183 1.74826,5.1401 4.01919,14.904217 4.0309,17.331313 0.004,0.824757 0.99521,-0.192638 1.84661,-1.895362 z m -11.93236,0.98402 c 1.13696,-1.761137 3.15465,-6.889501 3.3026,-8.394201 0.12114,-1.23204 -0.18319,-2.62815 -1.31443,-6.02997 -1.64018,-4.93225 -2.74107,-7.10684 -3.17993,-6.28128 -0.1488,0.27991 -0.37192,1.31064 -0.49583,2.29052 -0.23988,1.89702 -1.76959,9.01724 -3.16644,14.73857 -0.94224,3.859317 -1.04131,3.629173 1.76492,4.100033 2.55384,0.42851 2.53752,0.430749 3.08911,-0.423672 z m -95.77385,-6.773491 c 1.65082,-1.04211 1.66477,-0.95547 -0.77931,-4.84191 -1.79312,-2.85131 -2.10827,-3.07162 -5.7053,-3.98833 -2.53608,-0.64633 -2.65991,-0.65137 -2.65991,-0.10835 0,0.4981 4.7691,8.98926 5.54313,9.86929 0.6041,0.68682 1.34058,0.49649 3.60139,-0.9307 z m 7.56484,-4.10003 c 0.51124,-0.40214 0.92952,-0.85037 0.92952,-0.99607 0,-0.29841 -4.28011,-1.1658 -4.52824,-0.91768 -0.31141,0.31141 1.53872,2.64013 2.09942,2.6425 0.31338,0.001 0.98807,-0.32661 1.4993,-0.72875 z m 31.79758,-6.48629 c 13.87609,-1.8985 26.93998,-6.20102 36.97045,-12.17602 19.14702,-11.40558 32.70845,-29.13184 38.33176,-50.10375 1.80182,-6.71981 2.23983,-9.14699 1.7559,-9.7301 -1.72308,-2.07617 -14.99048,-10.95666 -21.31923,-14.26995 -1.55222,-0.81263 -3.98304,-2.11164 -5.40182,-2.88667 -1.41878,-0.77504 -2.64311,-1.34565 -2.72074,-1.26803 -0.0776,0.0776 0.0578,0.53077 0.30099,1.00698 1.32609,2.59695 3.50719,8.45246 4.28186,11.49533 2.46019,9.66343 1.7225,20.51579 -1.9663,28.92683 -3.40442,7.76262 -9.04237,13.30633 -15.93089,15.66459 -7.08589,2.42584 -13.06452,2.32458 -22.05948,-0.37359 -4.6331,-1.38978 -7.45191,-2.6057 -15.94667,-6.87877 -11.92332,-5.99773 -13.49842,-6.74379 -17.02769,-8.06531 -10.63012,-3.9804 -15.97224,-3.92783 -33.26693,0.32732 -14.16947,3.48622 -16.13168,3.81812 -22.73037,3.84466 -6.18451,0.0249 -9.00544,-0.49595 -13.22917,-2.44245 -4.54157,-2.09297 -7.28633,-4.91985 -9.99696,-10.29601 -4.0785,-8.08917 -4.15643,-20.31911 -0.20418,-32.04232 1.15152,-3.41566 3.02189,-7.58354 4.05297,-9.03156 l 0.75709,-1.06323 -1.27321,-1.27321 c -0.70026,-0.70026 -1.32665,-1.20706 -1.39198,-1.12622 -0.0653,0.0808 -0.62723,1.05042 -1.24868,2.15461 -1.57386,2.79643 -4.76376,5.88976 -7.38826,7.16461 -2.11817,1.02889 -2.17955,1.09758 -2.20658,2.46944 -0.0153,0.77611 -0.10673,1.72861 -0.20321,2.11667 -0.0965,0.38805 -0.19831,4.19805 -0.22632,8.46666 -0.0386,5.89114 0.092,8.5686 0.54209,11.1125 0.68553,3.87439 2.5469,10.39259 3.30073,11.55865 0.28407,0.43941 1.07157,2.45775 1.75,4.48521 4.34656,12.9895 11.83944,23.25301 24.08273,32.98779 5.35399,4.25701 17.06662,10.35837 25.98988,13.53867 8.34191,2.97311 19.23668,5.42596 27.51666,6.19511 5.3117,0.49342 21.08645,0.19827 26.10556,-0.48844 z m -33.79656,-20.08621 c -1.94638,-0.53538 -4.22334,-2.07473 -5.6262,-3.80364 -1.49903,-1.84743 -2.42862,-4.95121 -2.6445,-8.82968 -0.22451,-4.03343 0.23582,-5.21857 2.02698,-5.21857 1.52382,0 2.01128,1.05599 2.20585,4.77859 0.26246,5.02136 2.03512,8.22185 4.99536,9.01896 1.70721,0.45971 3.68801,-0.0259 5.41097,-1.32657 1.43321,-1.08192 2.06057,-2.28165 2.75188,-5.26249 0.29904,-1.28944 0.79272,-2.72447 1.09706,-3.18896 1.10861,-1.69195 3.29444,-0.62918 3.29444,1.60177 0,2.99881 -1.67317,7.15655 -3.90108,9.694 -1.97822,2.25307 -6.39932,3.41995 -9.61076,2.53659 z m -69.9158,-1.00675 c 0.94252,-1.98879 2.39869,-4.84078 3.23594,-6.33777 1.63103,-2.91628 1.79312,-3.45182 1.04472,-3.45182 -0.57885,0 -12.22246,5.59655 -12.22246,5.87478 0,0.69304 5.46124,7.53078 6.01476,7.53078 0.11735,0 0.98452,-1.62719 1.92704,-3.61597 z m -2.89906,-10.12362 c 2.75628,-1.34789 5.21905,-2.59325 5.47282,-2.76747 0.35633,-0.24464 0.007,-1.09229 -1.53278,-3.72291 -1.09679,-1.87338 -2.09966,-3.40614 -2.22861,-3.40614 -0.29217,0 -0.59685,0.48002 -3.97595,6.26404 -2.65891,4.55128 -3.405,6.08318 -2.96273,6.08318 0.1187,0 2.47096,-1.10282 5.22725,-2.4507 z m -4.00093,-9.91962 c 1.21532,-1.83056 2.49361,-3.64579 2.84062,-4.03385 0.59883,-0.66964 0.60076,-0.80432 0.0379,-2.64583 -0.44737,-1.46359 -0.83291,-2.05548 -1.56927,-2.40919 -2.1131,-1.01503 -4.85571,0.30292 -6.2961,3.02556 -0.36963,0.69867 -0.96876,1.21142 -1.5875,1.35863 -1.48866,0.35416 -2.22854,1.16767 -2.22854,2.45032 0,1.74204 1.01048,2.72802 3.03813,2.96449 1.57328,0.18348 1.71593,0.27645 1.62804,1.06116 -0.28802,2.57138 -3.99074,3.11866 -6.07678,0.89818 -0.5655,-0.60196 -1.20594,-0.88248 -2.01469,-0.88248 -1.07045,0 -1.14949,0.0675 -0.81356,0.69523 0.20465,0.38238 1.98168,2.30483 3.94896,4.27211 l 3.57687,3.57688 1.65313,-3.50146 c 0.90922,-1.9258 2.64749,-4.99918 3.86282,-6.82975 z m 142.1181,3.57304 c 3.29576,-1.11139 5.38487,-2.46471 8.24884,-5.34359 2.30262,-2.3146 3.0083,-3.33224 4.6658,-6.7285 2.79347,-5.72385 3.71366,-9.89764 3.72678,-16.90388 0.019,-10.15926 -3.8774,-20.43117 -10.07668,-26.56448 -3.9747,-3.93239 -22.0776,-10.12002 -41.42188,-14.15812 -11.46166,-2.39261 -24.13874,-3.80495 -38.1,-4.24468 -7.78028,-0.24505 -21.01022,0.32708 -21.74941,0.94056 -0.24233,0.20112 -0.91357,1.20371 -1.49163,2.22798 -1.7862,3.16497 -5.35473,5.39751 -9.18224,5.74458 -1.80813,0.16395 -2.08108,0.30397 -3.0164,1.54741 -2.62768,3.49332 -8.76063,5.60973 -11.99089,4.13792 -1.25711,-0.57277 -1.87475,0.0813 -3.81415,4.0392 -3.1075,6.34175 -4.45299,11.62889 -4.7362,18.61103 -0.30224,7.4516 0.66682,12.18583 3.46778,16.94126 1.6273,2.76282 2.60586,3.74439 5.41347,5.43015 3.60779,2.1662 6.2902,2.78394 12.17467,2.80373 5.8609,0.0197 7.11824,-0.20054 19.05,-3.3369 14.01512,-3.684 19.2515,-4.48233 25.29183,-3.85598 8.07012,0.83683 12.22258,2.33856 27.93731,10.10353 13.24399,6.54412 18.53469,8.56644 24.33743,9.30277 3.4395,0.43644 8.9133,0.0993 11.26557,-0.69399 z m -21.80436,-10.81105 c -5.84473,-1.54198 -10.78506,-5.61672 -13.43004,-11.07697 -2.64303,-5.45622 -2.84699,-12.00124 -0.5437,-17.44695 2.29786,-5.43287 7.46264,-9.77957 13.43049,-11.30317 2.66978,-0.6816 7.8228,-0.68148 10.71461,2.6e-4 2.49974,0.5893 5.70363,1.87586 5.70363,2.29036 0,0.1491 0.40484,0.3727 0.89964,0.49689 1.44279,0.36212 5.13828,4.34798 6.56667,7.08264 1.8788,3.59698 2.54309,6.17414 2.54609,9.87777 0.003,3.89955 -0.53124,6.26534 -2.19138,9.70139 -1.5037,3.11224 -5.18451,7.0229 -8.05931,8.56257 -4.09697,2.19423 -11.11296,3.00869 -15.6367,1.81521 z m 18.37329,-18.53771 c 3.30755,-1.42287 5.64651,-5.49992 5.10932,-8.9061 -0.77437,-4.91015 -5.28144,-8.8801 -10.55713,-9.29902 -4.02577,-0.31966 -7.48619,1.36739 -9.17706,4.47407 -3.16804,5.82074 0.37033,12.69395 7.45083,14.47307 1.89281,0.47561 5.11935,0.14188 7.17404,-0.74202 z m -98.79935,7.07756 c -5.34165,-1.39839 -9.51287,-4.04287 -11.76434,-7.45839 -2.94109,-4.46169 -3.75483,-7.02979 -3.76097,-11.86943 -0.007,-5.75006 1.78292,-10.5354 5.38,-14.38099 4.16246,-4.45005 8.73184,-6.48382 14.56756,-6.48382 4.26,0 6.3837,0.45792 9.89423,2.13339 3.53929,1.68921 6.2457,4.4556 8.24056,8.42317 4.20802,8.36933 2.73419,18.02848 -3.73846,24.50113 -4.94913,4.94913 -12.08772,6.897 -18.81858,5.13494 z m 15.7155,-18.83944 c 3.74239,-1.11651 6.14945,-4.48712 6.14945,-8.61107 0,-10.20228 -15.39085,-14.26734 -19.62123,-5.18239 -0.95425,2.04931 -1.10311,5.19845 -0.34595,7.31853 1.81842,5.09159 8.28992,8.12411 13.81773,6.47493 z m -68.74439,35.35584 c 0.51561,-0.68033 1.22192,-3.41209 0.98242,-3.79962 -0.29416,-0.47595 -1.64099,-0.414 -2.31915,0.10667 -1.53671,1.17985 -1.64515,3.20007 -0.20298,3.78163 1.04601,0.42181 1.15769,0.41537 1.53971,-0.0887 z m 6.03986,-7.84025 1.1724,-1.55663 -1.45147,-1.96478 c -1.55009,-2.09829 -2.58187,-4.22589 -3.00818,-6.2031 -0.48674,-2.25748 -1.15039,-3.16094 -2.32194,-3.16094 -0.89906,0 -1.15403,0.20765 -1.61777,1.31753 -1.15977,2.77573 0.40157,7.33425 3.82929,11.18006 0.96389,1.08147 1.8589,1.96139 1.9889,1.95539 0.13,-0.006 0.76395,-0.71139 1.40877,-1.56753 z m 221.3062,-25.97658 c 1.53244,-0.79271 -1.66941,-7.44157 -5.59117,-11.61042 -3.74727,-3.98338 -7.78337,-6.32435 -12.36453,-7.17155 -1.07755,-0.19927 -1.14653,-0.1508 -1.14653,0.8056 0,0.70214 0.71306,1.97406 2.30003,4.10268 1.26501,1.69678 2.39639,3.469 2.51417,3.93827 0.36029,1.43552 -0.32116,1.63813 -2.12414,0.63153 -1.98784,-1.10979 -2.05659,-1.00903 -1.91218,2.80274 l 0.10406,2.74674 2.29306,1.18728 c 3.75256,1.94296 6.01281,2.67645 8.99583,2.9193 3.13217,0.25499 6.04362,0.10706 6.9314,-0.35217 z m -23.60631,-4.22338 c 0.4612,-6.55996 -0.75195,-15.65895 -2.60667,-19.55076 -0.89886,-1.8861 -1.67337,-2.71902 -5.45544,-5.86684 -15.90088,-13.23431 -43.21992,-26.14924 -68.90686,-32.57534 -16.47402,-4.12131 -26.95717,-5.46372 -44.75286,-5.73077 -6.65627,-0.0999 -13.58245,-0.0706 -15.39151,0.065 l -3.28921,0.2466 -1.60436,2.4178 c -1.3358,2.01306 -1.52178,2.48634 -1.11101,2.82725 0.27134,0.22519 0.97417,1.37166 1.56185,2.5477 1.89076,3.78374 1.37967,7.76997 -1.46976,11.46336 l -1.46529,1.89929 0.90605,1.82798 c 0.49834,1.00539 1.01359,2.59276 1.14502,3.52749 l 0.23896,1.69951 9.05884,-0.23921 c 8.93413,-0.23592 21.67535,0.17586 27.93245,0.90273 1.64923,0.19159 4.42736,0.51053 6.17361,0.70877 17.45325,1.98131 40.5483,7.99422 57.05865,14.85549 2.37857,0.98848 6.1503,2.55636 8.38162,3.4842 9.37024,3.89635 18.73564,9.24441 28.04583,16.01541 2.52236,1.83443 4.74486,3.29365 4.93889,3.24272 0.19403,-0.0509 0.46907,-1.74671 0.6112,-3.76837 z m -189.62258,-16.03977 c 6.69537,-3.33645 9.65432,-11.84273 8.0638,-23.18155 -0.53502,-3.81418 -2.3178,-10.19442 -3.07707,-11.01225 -0.202,-0.21758 -0.60766,-0.0121 -1.10426,0.55929 -2.08945,2.40423 -6.48515,4.94211 -9.72761,5.61629 -0.90238,0.18762 -3.64066,0.48787 -6.08507,0.66722 -2.44442,0.17935 -4.98442,0.55235 -5.64445,0.8289 -2.89933,1.21478 -4.90422,4.13767 -4.90422,7.14979 0,2.51884 1.21282,4.29407 3.84266,5.62457 1.82233,0.92196 5.95563,0.62298 8.64648,-0.62543 1.1452,-0.53132 2.1435,-0.90472 2.21843,-0.82978 0.0749,0.0749 -0.41993,0.83128 -1.0997,1.68077 -2.32236,2.90221 -3.0818,4.43682 -3.2806,6.62917 -0.15393,1.69754 -0.0424,2.3896 0.59872,3.7139 1.35165,2.79213 3.57616,4.00348 7.43738,4.04999 1.80858,0.0218 2.70468,-0.16784 4.11551,-0.87088 z m 2.22637,-27.1471 c 0,-0.19403 0.15388,-0.5909 0.34197,-0.88194 0.18809,-0.29105 0.34197,-0.37042 0.34197,-0.17639 0,0.19403 -0.15388,0.5909 -0.34197,0.88194 -0.18809,0.29104 -0.34197,0.37042 -0.34197,0.17639 z m 0.69475,-2.27223 c 0,-0.18258 0.15693,-0.42895 0.34874,-0.54749 0.19997,-0.1236 0.25911,0.018 0.13864,0.33195 -0.23452,0.61116 -0.48738,0.72298 -0.48738,0.21554 z m 23.47431,23.65774 c 1.72343,-0.78285 3.17949,-2.43417 3.71121,-4.20888 0.38019,-1.26897 0.30438,-2.02995 -0.58653,-5.88774 -0.18927,-0.81955 0.23923,-0.40883 1.89916,1.82038 1.17897,1.5833 2.46451,2.98058 2.85676,3.10508 1.34237,0.42605 3.67354,-0.50888 5.18346,-2.07888 4.27976,-4.45006 2.00153,-12.07879 -4.14671,-13.88536 -1.12849,-0.33159 -2.05202,-0.69019 -2.05229,-0.79689 -2.7e-4,-0.1067 0.93132,-0.38646 2.07018,-0.62169 3.24324,-0.66988 6.4188,-2.44391 7.3806,-4.1232 2.15141,-3.75632 -0.68385,-7.87619 -6.29931,-9.1534 -3.34886,-0.76168 -16.59369,-0.77561 -19.49276,-0.0205 -2.54907,0.66395 -4.82586,1.81125 -4.82586,2.4318 0,0.26152 1.06662,1.09174 2.37027,1.84491 2.33484,1.34895 7.15473,5.67591 7.15473,6.42302 0,0.339 -1.88776,-0.35577 -6.52639,-2.40196 -1.81512,-0.80069 -3.71425,-1.36072 -4.49792,-1.32638 -0.66217,0.029 -0.86155,1.2754 -0.29872,1.86738 0.61515,0.64699 2.18773,6.32839 2.86948,10.36679 0.37877,2.2437 0.68953,5.61693 0.69056,7.49607 0.001,1.87914 0.14916,3.78414 0.32917,4.23334 0.74711,1.86434 4.15154,4.76612 6.15136,5.24315 2.00634,0.47858 4.59335,0.33896 6.05955,-0.32704 z m 177.43262,0.13466 c 1.35819,-0.28391 3.66007,-1.11312 5.11527,-1.84269 4.18398,-2.09763 9.69818,-7.93745 11.41924,-12.09353 0.4585,-1.10721 0.45082,-1.31036 -0.0739,-1.95661 -0.95933,-1.1814 -4.65691,-3.51512 -7.11195,-4.48869 -7.67299,-3.0428 -15.33828,-2.54014 -21.26036,1.39417 -2.68633,1.78465 -4.13964,3.45855 -4.13964,4.76798 0,0.92739 0.63352,3.09252 1.0387,3.5499 0.13027,0.14704 1.10079,-0.1978 2.15672,-0.76632 5.06899,-2.72923 11.02536,-2.78528 14.922,-0.14043 l 1.46174,0.99216 -3.70416,0.22795 c -4.02489,0.24769 -5.58574,0.61779 -8.29028,1.96577 -6.05389,3.01733 -5.74008,7.46989 0.60086,8.52529 2.84271,0.47314 5.14572,0.43363 7.86581,-0.13495 z m -21.69584,-11.62489 c 0,-0.8561 -2.35457,-7.07633 -3.70992,-9.80073 -4.82876,-9.70638 -9.90684,-17.18537 -16.09205,-23.70037 -12.47439,-13.13952 -28.47845,-22.47467 -46.32843,-27.0233 -7.40261,-1.88638 -11.62367,-2.4643 -19.77339,-2.70722 -10.04385,-0.29938 -16.53566,0.38116 -27.51425,2.88436 -8.61229,1.96366 -21.38064,7.5128 -26.22101,11.39569 l -1.52656,1.22459 2.23212,0.87963 c 3.7351,1.47193 6.08571,4.41676 7.00603,8.77709 l 0.38226,1.81113 14.00247,0.18663 c 13.17229,0.17557 20.96379,0.64919 27.58219,1.67664 19.32109,2.99942 36.76396,7.90639 53.27166,14.98622 1.64923,0.70732 4.09614,1.75006 5.43756,2.31718 6.953,2.93959 19.21166,9.81542 27.54716,15.4511 1.74625,1.18065 3.29406,2.14807 3.43958,2.14983 0.14552,0.002 0.26458,-0.22705 0.26458,-0.50847 z m -204.90458,-12.23055 c 1.618,-1.15212 3.79351,-1.66218 8.13405,-1.90708 5.28475,-0.29817 7.82283,-0.74455 10.10102,-1.77649 2.20842,-1.00033 5.41941,-3.27149 5.17786,-3.66233 -0.0918,-0.14861 -1.13267,-0.37113 -2.31295,-0.49449 -2.2214,-0.23218 -7.09288,-1.79637 -9.42008,-3.0247 l -1.33224,-0.70318 6.70277,-0.0251 6.70278,-0.0251 -1.25192,-1.13698 c -0.68856,-0.62534 -3.06981,-2.70742 -5.29167,-4.62684 -2.22186,-1.91942 -5.02279,-4.41093 -6.2243,-5.53669 -1.20151,-1.12576 -2.66451,-2.29503 -3.25111,-2.59837 -1.73688,-0.89818 -5.94812,-1.40916 -7.68926,-0.933 -2.7008,0.73861 -4.69035,3.0385 -4.69035,5.422 0,1.48469 0.89624,4.17148 1.69224,5.07308 1.50266,1.702 1.9776,2.3404 1.55859,2.09501 -0.83012,-0.48615 -4.61732,-0.26284 -5.90496,0.34818 -2.85431,1.35447 -4.36433,4.63931 -3.65439,7.94964 0.95639,4.45951 7.69633,7.88212 10.95392,5.56251 z m 37.33515,-16.90255 c 3.52607,-2.01462 7.33515,-3.70712 7.64524,-3.39703 0.0793,0.0793 -0.65599,0.814 -1.63389,1.63275 -0.97791,0.81875 -1.77801,1.61573 -1.77801,1.77106 0,0.15534 0.59531,0.14948 1.32291,-0.013 2.33778,-0.52209 16.61289,-0.54534 18.90028,-0.0308 1.88057,0.42305 2.11598,0.40728 2.77156,-0.18559 2.04942,-1.8534 2.97467,-6.28706 1.89952,-9.10228 -1.68981,-4.42472 -7.28709,-5.25147 -11.51641,-1.70105 -0.96826,0.81283 -1.11987,0.86094 -0.87494,0.27764 2.4555,-5.84766 0.37174,-10.40217 -4.76074,-10.40562 -2.74782,-0.002 -5.21225,1.30188 -8.28947,4.38528 -4.33295,4.34165 -7.12354,9.34783 -8.1232,14.57259 -0.67267,3.51573 -0.65099,4.32556 0.11563,4.31828 0.33955,-0.003 2.28423,-0.95823 4.32152,-2.12224 z m -9.87777,1.30829 c 0,-0.25686 -0.24514,-2.10651 -0.54476,-4.11032 -0.68132,-4.55666 -0.52655,-5.33771 0.58012,-2.92749 0.46562,1.01407 0.92902,1.84751 1.02979,1.85208 0.10076,0.005 0.55734,-1.34761 1.01461,-3.00485 1.45683,-5.27982 3.21629,-8.36781 7.37016,-12.93523 2.02001,-2.22112 2.13954,-2.44861 1.94622,-3.70417 -1.15359,-7.49231 -7.25514,-11.28996 -12.48099,-7.76826 -2.54899,1.71777 -3.70279,4.62176 -3.38167,8.51134 l 0.2009,2.43356 -1.82045,-2.04251 c -1.94302,-2.18002 -4.59589,-3.70285 -6.43754,-3.69537 -1.35978,0.006 -3.66224,1.06936 -4.65747,2.15195 -1.07727,1.17182 -1.86957,3.20744 -1.86548,4.79289 0.007,2.80267 1.4223,4.8429 7.53178,10.85925 6.05725,5.96492 8.21432,7.97375 9.93184,9.24924 1.22397,0.90897 1.58294,0.98559 1.58294,0.33789 z"
       id="path129" /></g></svg>
