<?xml version="1.0" encoding="UTF-8" standalone="no"?>
<!-- Created with Inkscape (http://www.inkscape.org/) -->

<svg
   width="220.52921mm"
   height="272.24985mm"
   viewBox="0 0 220.52922 272.24982"
   version="1.1"
   id="svg1"
   xml:space="preserve"
   xmlns="http://www.w3.org/2000/svg"
   xmlns:svg="http://www.w3.org/2000/svg"><defs
     id="defs1"><clipPath
       clipPathUnits="userSpaceOnUse"
       id="clipPath6"><path
         id="path7"
         style="fill:#ff0000;fill-opacity:1;fill-rule:nonzero;stroke:none;stroke-width:0.264583"
         d="M -175.07778,-16.057127 V 287.55793 H 124.54631 V -16.057127 Z m 132.7459,202.572647 c 0.210643,0.005 0.427212,0.0169 0.650089,0.0367 2.23823,0.19855 4.475655,0.4031 6.717938,0.55346 1.973313,0.11308 0.986628,0.0436 2.958475,0.20825 3.181295,0.26563 4.740125,1.85116 4.950601,3.46956 4.949923,1.63749 3.796379,7.35609 -2.592089,6.81354 -3.228716,-0.27422 -1.569593,-0.1301 -4.979024,-0.43357 -4.228209,-0.39317 -8.460616,-0.76265 -12.666927,-1.35341 -6.647387,-0.93358 -5.930551,-7.21034 0.03204,-7.20421 0.04685,5e-5 0.0972,0.004 0.144695,0.005 0.687229,-1.21692 2.304132,-2.15435 4.784204,-2.09548 z" /></clipPath><clipPath
       clipPathUnits="userSpaceOnUse"
       id="clipPath76"><path
         id="path77"
         style="fill:#ff0000;fill-opacity:1;fill-rule:nonzero;stroke:none;stroke-width:0.264583"
         d="M -133.83107,-122.52355 V 173.82063 H 122.97289 V -122.52355 Z M 13.574404,98.948202 c 2.788179,0.0507 4.135003,2.063798 3.398242,4.077268 0.199805,0.45372 0.374906,0.96736 0.517797,1.54461 1.07913,4.35948 0.671079,8.891 0.311608,13.31495 -0.351859,3.06036 -0.147137,1.57974 -0.604097,4.44366 -0.359666,2.25418 -1.333846,3.66838 -2.455664,4.32532 0.105138,0.36595 0.224724,0.72888 0.324528,1.09554 0.6273,2.23652 0.575201,4.47401 0.39429,6.75514 -0.137303,1.73129 -0.688065,2.99533 -1.427303,3.82199 -0.112477,0.41601 -0.170275,0.80219 -0.311092,1.25212 -0.184975,0.59102 -0.413327,1.1061 -0.670242,1.55856 0.741137,-0.23134 1.446982,-0.38145 2.064991,-0.37517 4.085002,0.0415 5.222724,4.75435 -0.02223,7.27138 -4.46677,2.14368 -9.303523,3.34693 -14.11903492,4.40955 -4.40876268,0.85156 -8.89238128,1.33053 -13.38264308,1.19269 -5.804014,-0.17807 -6.736297,-5.00293 -3.065447,-6.67298 -2.072987,-0.65744 -4.042852,-1.62261 -4.128947,-3.14709 -0.02802,-0.49633 0.0026,-0.90355 0.0341,-1.30897 -1.976731,-0.003 -3.95339,2.4e-4 -5.930386,0.003 -0.814031,0 -1.53062,-0.0962 -2.159559,-0.26149 -0.376306,0.19492 -0.742394,0.40783 -1.120862,0.59893 -6.391272,3.22657 -9.625245,-3.24074 -3.234428,-6.46886 1.833438,-0.92611 3.62694,-1.92211 5.414142,-2.92954 -0.877003,-3.87058 -1.368747,-7.83436 -1.323951,-11.80858 0.01651,-1.46304 0.376836,-2.54918 0.864547,-3.41426 -1.247357,-1.79999 -0.223805,-4.63069 3.842661,-5.68855 3.11826,-0.81116 6.282901,-1.39515 9.473837,-1.82211 -1.259816,-0.12657 -2.516182,-0.30233 -3.764627,-0.50177 -1.477002,-0.21985 -2.935575,-0.54305 -4.407482,-0.7891 -1.14214,-0.22954 -0.588502,-0.12004 -1.660882,-0.3297 -3.350244,-0.65501 -4.783278,-2.61088 -4.608504,-4.32997 -0.200179,-1.7721 1.333365,-3.52972 4.663799,-3.59461 v -5.3e-4 c 0.20954,-0.004 0.426035,-0.002 0.649571,0.008 1.77111,0.0772 3.528708,0.28204 5.26428,0.64027 1.655035,0.33225 3.314115,0.6481 4.955251,1.04439 1.244759,0.34858 2.51628,0.54538 3.7997689,0.6723 0.025956,0.002 0.052073,0.002 0.078034,0.004 0.4990888,-0.0371 0.9984105,-0.0743 1.4965495,-0.11317 1.346872,-0.12588 2.6913231,-0.25136 4.0457464,-0.24236 1.1278499,-0.0444 2.2567291,-0.10772 3.37498791,-0.26872 0.75719517,-0.11591 1.51142439,-0.25483 2.25722659,-0.4284 0.3616431,-0.12394 0.7240561,-0.24538 1.083138,-0.37775 0.3360393,-0.12388 0.6107589,-0.12825 0.9250071,-0.20723 0.1281086,-0.045 0.2583895,-0.0825 0.3855085,-0.13074 1.9825018,-0.7681 3.9540551,-1.56464 5.9510551,-2.29443 1.050809,-0.383992 1.999634,-0.542639 2.826703,-0.527616 z M 0.70283723,110.39557 c -0.45566013,0.0949 -0.90775367,0.208 -1.36890919,0.2744 -1.16638124,0.15534 -2.34111274,0.24237 -3.51761424,0.26251 0.4031694,0.0896 0.8047355,0.18876 1.2025101,0.308 0.1014836,0.0304 0.1982549,0.075 0.2986907,0.10852 0.4205235,-0.21824 0.9206601,-0.35072 1.4898318,-0.37156 0.39885139,-0.0146 0.83259872,0.0278 1.29449508,0.13023 0.22468681,-0.12213 0.44967525,-0.24374 0.67437529,-0.36587 -0.0326284,-0.11319 -0.058211,-0.22834 -0.0733795,-0.34623 z m 10.24433577,1.02474 c -0.76023,0.21437 -1.5189569,0.4343 -2.2696301,0.68006 -0.031261,0.62207 -0.2256075,1.28373 -0.6464723,1.94355 0.6236891,0.43248 1.2549743,1.04482 1.8634525,1.86862 0.2674939,0.36214 0.4748849,0.75712 0.7188199,1.13223 0.154519,-1.86707 0.314174,-3.74736 0.33383,-5.62446 z m 64.566086,3.39773 c 1.50346,0.0187 3.129182,1.24994 3.928441,4.04678 0.257931,0.90255 0.823497,1.65871 1.488797,2.30735 0.856321,0.95375 1.845738,1.76777 2.801898,2.61638 1.458581,1.46408 2.789203,3.04608 4.169772,4.58215 1.315059,1.44746 2.571226,2.91698 3.543967,4.61884 0.0053,0.01 0.0082,0.0206 0.01344,0.0305 0.734605,-0.43313 1.446276,-0.65634 2.094962,-0.69195 3.016182,-0.16561 4.69137,3.55377 1.187525,7.32306 -1.69471,1.82311 -3.657862,3.33908 -5.68751,4.7651 -0.777873,0.49914 -1.607691,0.90075 -2.418456,1.33842 0.165478,1.44344 -0.672182,3.24303 -2.956409,4.73096 -1.354556,0.88234 -2.690448,1.79306 -4.075203,2.6288 -2.075008,1.20078 -4.233777,2.27962 -6.540687,2.96259 -2.077586,0.62971 -4.169056,1.29987 -6.359301,1.36374 -1.872114,0.0897 -3.746989,0.0368 -5.620845,0.0501 h -5.1108 -5.524728 c -7.160125,0 -7.160125,-7.23315 0,-7.23315 h 1.347722 c 0.29438,-0.0541 0.5212,-0.1588 0.84801,-0.18656 1.106628,-0.094 2.200932,-0.28334 3.292822,-0.48421 0.456121,-0.98163 1.356053,-1.98213 2.807581,-2.83962 1.078018,-0.63685 2.158119,-1.26923 3.212209,-1.94561 1.962647,-1.29302 3.840588,-2.72135 5.893696,-3.86902 1.367169,-0.76424 2.559646,-1.07097 3.526915,-1.04128 2.216811,0.068 3.246223,1.90266 2.479953,4.04059 1.105688,-0.48686 2.206929,-0.98346 3.283003,-1.53739 2.619811,-1.23728 5.288743,-2.38548 7.764385,-3.9026 0.246153,-0.17184 0.487463,-0.34958 0.730705,-0.52503 -0.126915,-0.50614 -0.277693,-0.9939 -0.512114,-1.46554 -0.647621,-1.25778 -1.721077,-2.20654 -2.600875,-3.29644 -1.199229,-1.33472 -2.369312,-2.69496 -3.592029,-4.00803 -1.098706,-0.97599 -2.227236,-1.92181 -3.215306,-3.01428 -1.300821,-1.39063 -2.459913,-2.93896 -3.045293,-4.77801 -1.289469,-4.05101 0.646382,-6.61405 2.843754,-6.58667 z m -95.086705,4.28035 c -0.465643,0.10748 -0.930899,0.21773 -1.394745,0.33435 0.171958,0.64334 0.283575,1.36624 0.279569,2.2071 -0.01267,2.6582 0.205063,5.32647 0.670242,7.94732 0.280107,-0.17087 0.565767,-0.33222 0.845429,-0.50385 -0.01897,-0.36223 -0.02445,-0.73164 -0.05529,-1.08985 -0.118034,-2.96491 -0.160888,-5.93314 -0.3452,-8.89507 z m 18.5141159,1.1958 c 0.00497,0.0773 0.00619,0.15612 0.014975,0.23202 -0.1238779,0.22787 -0.2588048,0.44752 -0.3937741,0.66715 0.58900751,0.0447 1.13203305,0.21413 1.64331124,0.45888 -0.37615284,-0.49255 -0.78353709,-0.94642 -1.26452314,-1.35805 z m -6.5422357,14.57068 c -0.046649,0.0755 -0.09888,0.14702 -0.1436608,0.22376 -0.03147,0.054 0.1963367,0.0838 0.1860365,0.0222 -0.017595,-0.10481 -0.026035,-0.14905 -0.042376,-0.24597 z m 13.9236979,6.08439 c -0.2236258,0.5643 -0.5677508,1.09664 -1.1782213,1.50533 0.9079653,0.17659 1.7077452,0.44257 2.2830631,0.84852 0.1405493,-0.0459 0.272804,-0.11448 0.4128956,-0.16174 -0.7336976,-0.43656 -1.2984269,-1.18703 -1.5177374,-2.19211 z" /></clipPath><clipPath
       clipPathUnits="userSpaceOnUse"
       id="clipPath127"><path
         id="path128"
         style="fill:#ff0000;fill-opacity:1;fill-rule:nonzero;stroke:none;stroke-width:0.264583"
         d="M -112.24796,-126.55676 V 185.58027 H 148.5754 V -126.55676 Z M 46.874626,83.305366 c 1.808208,0 3.616317,1.790192 3.616317,5.370214 v 5.232238 c 0.0627,2.146078 -0.111291,4.285324 -0.245462,6.424932 -0.136289,2.02485 -0.190703,4.04985 -0.104904,6.07715 0.192061,1.91863 0.527714,3.82569 0.876432,5.72213 0.304242,2.00862 0.765826,3.9858 1.180806,5.97276 0.41642,1.86142 0.967934,3.68703 1.421104,5.53972 0.25287,0.86996 0.117097,0.46495 0.396356,1.22008 0.186108,0.50319 0.223428,0.93098 0.309544,1.38441 4.425355,2.23251 2.751262,7.58433 -3.415813,6.40477 -3.104732,-0.59371 -6.256094,-0.76586 -9.40821,-0.85576 -3.81635,0.009 -7.630525,0.17062 -11.44478,0.28216 -1.12776,0.0333 -2.255837,0.0512 -3.383772,0.0754 -0.908129,0.5548 -1.966518,0.57724 -2.88613,0.0641 -0.03584,5.3e-4 -0.07165,0.002 -0.107487,0.003 -0.03142,5.3e-4 -0.0525,-0.009 -0.08268,-0.009 -0.32049,0.14732 -0.641715,0.29301 -0.962215,0.44028 -0.262501,0.12062 -0.518089,0.22111 -0.770496,0.31265 -0.876996,0.71434 -1.945576,0.85817 -2.911967,0.46405 -2.943479,-0.21613 -4.295167,-2.77187 -2.550232,-5.0524 -2.22e-4,-0.028 -0.0078,-0.0483 -0.0078,-0.0765 v -6.3469 c -0.014,-2.72977 -0.02254,-5.45666 0.112657,-8.18348 0.135676,-2.32533 0.233519,-4.6523 0.299723,-6.98046 0.046,-1.80459 0.06926,-3.60958 0.08527,-5.41465 -0.0258,-1.02998 0.04009,-2.054459 0.138491,-3.078883 0.0044,-0.04602 0.02191,-0.07504 0.02687,-0.120406 C 15.992671,97.193438 15.83363,95.70984 16.656834,94.418959 10.68718,93.678613 10.992573,87.32947 17.739972,87.32947 h 3.885033 5.177462 5.913334 c 1.498505,0.05847 2.984222,-0.03228 4.475178,-0.161748 1.252041,-0.18606 2.49041,-0.398671 3.697968,-0.782897 1.001961,-0.32245 0.492366,-0.161472 1.527553,-0.482142 0.510384,-0.158096 0.938446,-0.174371 1.394749,-0.23771 0.672338,-1.56932 1.86623,-2.35903 3.063377,-2.35903 z" /></clipPath></defs><g
     id="layer1"
     transform="translate(-115.23094,303.4394)"><path
       style="fill:#000000"
       d="m 190.14865,-31.44678 c -6.12578,-0.496177 -8.9748,-2.542875 -11.96576,-8.596032 -2.66085,-5.38507 -3.73009,-11.431155 -3.72307,-21.052242 0.004,-5.00404 0.6995,-12.555358 1.23711,-13.425237 0.12195,-0.197323 0.35383,-2.218305 0.51529,-4.49107 0.18653,-2.625633 0.58216,-5.007053 1.08509,-6.531458 l 0.79153,-2.399156 -0.76054,-0.952233 c -3.74676,-4.691088 -5.00049,-11.933742 -3.21819,-18.591122 0.41555,-1.55222 0.7811,-3.02692 0.81233,-3.27712 0.0335,-0.26813 -1.60888,-1.14667 -4.00017,-2.13981 -9.23333,-3.83474 -19.09978,-9.56036 -25.90122,-15.03079 -4.19227,-3.37186 -9.91681,-9.3212 -13.32638,-13.84971 -8.96962,-11.91323 -14.47505,-26.31456 -16.17756,-42.3179 -0.56156,-5.27862 -0.24514,-22.62356 0.50174,-27.50383 3.71708,-24.288 14.41552,-45.05404 31.89195,-61.90341 15.99551,-15.42158 34.32124,-24.58951 56.67896,-28.35515 14.35318,-2.41746 31.69843,-2.03621 46.3345,1.01842 20.72346,4.32511 38.37936,13.9256 53.65531,29.17535 18.82141,18.78914 29.96191,43.70752 31.03703,69.42169 0.81218,19.42537 -1.78507,33.63855 -8.74257,47.84282 -4.04604,8.26032 -8.00135,13.78158 -14.62401,20.41387 -6.55623,6.56575 -13.63413,11.7376 -21.5857,15.77278 l -3.90656,1.98245 7.08156,0.21882 c 9.92086,0.30657 26.84778,2.58272 29.53298,3.97129 1.92918,0.99762 2.15696,2.69143 0.98487,7.32368 -2.43274,9.614559 -3.48293,11.524051 -6.33805,11.524051 -0.69607,0 -3.71669,-0.784607 -6.71248,-1.74357 -6.91448,-2.213354 -23.29407,-6.773151 -23.86752,-6.644311 -0.23892,0.0537 -0.31951,0.27222 -0.1791,0.48565 0.30294,0.46047 5.54246,3.97993 9.18901,6.172398 14.33232,8.617225 20.57916,12.606902 21.66975,13.839846 1.09001,1.232288 0.92198,2.831474 -0.64216,6.111583 -1.61833,3.393739 -4.53168,7.690914 -5.94511,8.768987 -1.33926,1.021508 -2.60567,1.112229 -4.18997,0.300157 -2.3757,-1.217728 -25.22932,-16.035013 -30.21794,-19.591994 -1.83489,-1.308308 -3.3986,-2.316303 -3.47491,-2.239989 -0.0763,0.07631 0.12567,1.193128 0.44886,2.48181 0.37628,1.500381 0.56198,3.507116 0.51635,5.579717 -0.0418,1.898137 0.16105,4.330845 0.49049,5.882492 1.89467,8.923693 1.37141,22.205973 -1.18272,30.021906 -1.82298,5.578526 -4.92116,9.804288 -8.27626,11.288412 -3.54504,1.568138 -13.36565,1.754858 -17.18275,0.326698 -2.42197,-0.906176 -4.38336,-2.930936 -7.69801,-7.946741 -3.61024,-5.463104 -5.31392,-7.37484 -7.54493,-8.466375 -1.87117,-0.915474 -1.96066,-0.92383 -8.73265,-0.8154 l -6.84211,0.109554 -1.75371,1.295342 c -1.36183,1.00589 -2.42377,2.376058 -4.75232,6.131716 -3.3716,5.437956 -5.79144,8.325033 -7.86392,9.382335 -2.20006,1.122385 -7.13464,1.506144 -13.12636,1.020826 z m 9.68172,-7.164506 c 0.94466,-0.478077 3.86303,-4.050393 3.88593,-4.756686 0.008,-0.242535 0.13882,-0.440972 0.29101,-0.440972 0.28595,0 1.48718,-1.856597 1.48718,-2.298553 0,-0.137177 -0.57323,-0.141875 -1.27384,-0.01044 -2.65577,0.498226 -12.97324,0.198583 -17.26428,-0.501394 -2.30504,-0.376011 -4.2419,-0.632747 -4.30412,-0.570525 -0.30003,0.300034 1.48992,4.203889 2.58527,5.638424 1.26255,1.653517 2.66982,2.597299 4.55836,3.05706 1.82672,0.444715 9.092,0.360065 10.03449,-0.116914 z m -2.80255,-5.726825 c 0,-0.09701 0.0794,-0.176389 0.17639,-0.176389 0.097,0 0.17639,0.07937 0.17639,0.176389 0,0.09701 -0.0794,0.176389 -0.17639,0.176389 -0.097,0 -0.17639,-0.07938 -0.17639,-0.176389 z m 65.46496,5.094997 c 2.07752,-1.029572 4.00256,-3.438166 4.83939,-6.054989 0.32083,-1.00325 0.51528,-1.892131 0.43212,-1.975291 -0.0832,-0.08316 -1.46758,0.132839 -3.07648,0.48 -2.10177,0.45351 -5.23837,0.689329 -11.14193,0.837686 l -8.21666,0.206486 1.60822,2.293056 c 2.19028,3.122983 3.93159,4.864692 5.06082,5.061978 0.51966,0.09079 2.70231,0.130796 4.85033,0.0889 3.33721,-0.06508 4.15849,-0.201546 5.64419,-0.93783 z m -57.23823,-10.706399 c 2.13086,-0.408203 2.60472,-0.656727 4.14514,-2.173982 0.95658,-0.942201 1.73924,-1.890671 1.73924,-2.107713 0,-0.217042 -0.43656,-0.616135 -0.97014,-0.886873 -0.91403,-0.46378 -4.46648,-3.678035 -8.29613,-7.506332 -1.93083,-1.930152 -1.94902,-1.829569 0.77595,-4.290354 0.86011,-0.776727 1.92711,-1.743703 2.3711,-2.148837 l 0.80726,-0.736606 -4.31138,-0.420811 c -3.5857,-0.349981 -15.80526,-2.604354 -18.46204,-3.406042 -0.51674,-0.155928 -0.81479,-0.04323 -0.97248,0.36773 -0.62152,1.619655 -0.98808,7.860872 -0.77659,13.222612 0.29416,7.457442 0.45133,8.447133 1.39714,8.797353 0.81206,0.300693 8.70461,1.680344 10.97481,1.918442 2.25807,0.236826 8.9599,-0.127023 11.57812,-0.628587 z m 58.20379,-0.364245 c 2.67894,-0.454381 4.94361,-0.898952 5.03259,-0.987935 0.43014,-0.430137 0.90089,-10.492109 0.68926,-14.732249 -0.29533,-5.916946 -0.57612,-7.599198 -1.25859,-7.540342 -0.28304,0.02441 -3.05462,0.604688 -6.15906,1.289509 -3.10445,0.684821 -7.62461,1.507305 -10.04481,1.827743 -2.4202,0.320438 -4.45902,0.641266 -4.5307,0.712951 -0.0717,0.07168 0.35596,0.38181 0.95032,0.689167 2.44933,1.266598 2.11051,2.404342 -2.07342,6.96251 -4.45778,4.856502 -5.61241,5.936239 -6.34798,5.936239 -0.38917,0 -0.70758,0.15875 -0.70758,0.352777 0,0.194028 -0.32687,0.352778 -0.72637,0.352778 -0.40219,0 -0.62748,0.160015 -0.50479,0.358532 0.12187,0.197193 0.39389,0.25204 0.60449,0.121882 0.22416,-0.13854 0.28179,-0.07304 0.139,0.157997 -0.14357,0.23231 0.34191,0.764451 1.18022,1.293654 0.78326,0.494455 1.42412,1.036925 1.42412,1.20549 0,0.168564 0.56525,0.737619 1.25611,1.264566 2.64822,2.019894 11.65004,2.333689 21.07719,0.734731 z m -24.98501,-5.832901 c 0.16088,-0.260308 -1.74028,-1.813665 -4.40385,-3.598194 -0.48507,-0.324985 -2.86044,-1.938914 -5.27861,-3.586508 l -4.39666,-2.995625 -1.24778,0.995896 c -0.68628,0.547743 -2.88221,2.677427 -4.87984,4.732632 l -3.63206,3.736737 9.80567,0.01591 c 7.2184,0.01171 10.08492,0.136503 10.86401,0.47295 1.23293,0.53244 2.90605,0.65186 3.16912,0.2262 z m -0.87607,-0.185895 c 0,-0.09701 0.0794,-0.176389 0.17639,-0.176389 0.097,0 0.17639,0.07937 0.17639,0.176389 0,0.09701 -0.0794,0.176389 -0.17639,0.176389 -0.097,0 -0.17639,-0.07937 -0.17639,-0.176389 z m -1.41111,-0.705556 c 0,-0.09701 0.0794,-0.176389 0.17639,-0.176389 0.097,0 0.17639,0.07938 0.17639,0.176389 0,0.09701 -0.0794,0.176389 -0.17639,0.176389 -0.097,0 -0.17639,-0.07937 -0.17639,-0.176389 z m -24.28054,-2.881628 c 2.23141,-1.789833 9.07317,-8.712383 8.89525,-9.000277 -0.0982,-0.15891 -2.27666,-0.288927 -4.84099,-0.288927 h -4.66241 l -3.23573,2.868626 c -3.14384,2.787155 -3.2193,2.889851 -2.65698,3.615972 0.93824,1.211569 4.09726,3.692617 4.73697,3.720359 0.32467,0.01408 1.11842,-0.39801 1.76389,-0.915753 z m 30.83336,-3.28933 c 2.91146,-2.988933 2.95858,-3.11908 1.55394,-4.29173 -2.26105,-1.887606 -2.85198,-2.00799 -8.9887,-1.831177 -3.10445,0.08945 -6.02159,0.241128 -6.48254,0.33707 -0.82478,0.17167 -0.81917,0.188658 0.35278,1.069286 2.89002,2.171625 10.46744,6.829891 11.11059,6.830309 0.21709,1.41e-4 1.32136,-0.95105 2.45393,-2.113758 z m 67.37239,-9.968624 c 1.43987,-1.595749 2.89981,-4.049387 2.56003,-4.302488 -1.76759,-1.316676 -3.51939,-2.267256 -3.90533,-2.119158 -0.27355,0.104972 -0.76327,0.699817 -1.08827,1.321877 -0.325,0.622061 -1.14482,1.818048 -1.82183,2.65775 -0.67701,0.839701 -1.23093,1.639166 -1.23093,1.776589 0,0.372372 2.88247,2.517514 3.38283,2.517514 0.23779,0 1.18437,-0.833438 2.1035,-1.852084 z m -68.98632,-0.495923 c 7.24197,-0.585575 15.04327,-1.623296 19.41675,-2.582794 4.7291,-1.037522 8.38744,-2.150224 8.83246,-2.686444 0.24171,-0.291237 0.29165,-1.176232 0.13646,-2.418268 -0.28108,-2.249755 -0.51479,-2.345345 -2.98567,-1.221175 -2.26992,1.032734 -6.57412,2.012925 -11.46528,2.610975 -11.01543,1.346873 -13.17402,1.5739 -18.73676,1.970616 -6.99589,0.498922 -21.67178,0.221164 -28.35907,-0.536729 -14.86386,-1.68457 -19.83914,-2.593606 -23.75374,-4.340058 -1.72472,-0.769464 -2.10938,-0.836777 -2.37585,-0.415752 -0.50265,0.794216 -0.39397,4.066001 0.15007,4.517512 1.47772,1.226396 17.04985,4.160983 26.3323,4.962351 2.42534,0.209384 4.96534,0.435499 5.64444,0.502477 3.14211,0.309902 21.95164,0.05874 27.16389,-0.362711 z m 60.49895,-4.000323 c 0.8447,-0.581164 2.02036,-1.644508 2.61259,-2.362986 1.00476,-1.218938 1.03831,-1.348845 0.50155,-1.941949 -0.31637,-0.349593 -0.76557,-0.635623 -0.9982,-0.635623 -0.23264,0 -0.85122,-0.396875 -1.37461,-0.881945 -1.24964,-1.158119 -1.82349,-1.112655 -2.96653,0.235027 -1.89554,2.234899 -1.87342,2.143197 -1.08227,4.485921 0.4526,1.34022 0.92647,2.158218 1.25025,2.158218 0.28678,0 1.21253,-0.475498 2.05722,-1.056663 z m -70.65621,-6.548592 c 4.3058,-3.924651 8.74639,-8.266917 8.74446,-8.550828 -9.3e-4,-0.136445 -0.5695,-0.866359 -1.26349,-1.622031 -0.69399,-0.755672 -1.66683,-1.985984 -2.16186,-2.734028 -0.49503,-0.748043 -1.0472,-1.360078 -1.22704,-1.360078 -0.17983,0 -2.89718,2.420937 -6.03853,5.37986 -8.7253,8.218577 -10.82684,10.306002 -10.82684,10.754112 0,0.429107 1.74128,0.612604 6.95247,0.732655 l 2.89552,0.0667 z m 61.93912,1.462124 c 0.91518,-0.468306 2.2701,-1.47827 3.01093,-2.244364 l 1.34697,-1.392899 -1.34697,-1.053128 c -3.13652,-2.452299 -2.98167,-2.431992 -4.78602,-0.627641 l -1.60389,1.603889 0.52688,2.018221 c 0.54179,2.075296 0.73097,2.547387 1.02084,2.547387 0.092,0 0.91608,-0.383159 1.83126,-0.851465 z m -50.19436,-0.271524 c 5.23593,-0.606192 5.81765,-0.703123 6.00111,-0.99997 0.0967,-0.156497 -0.49356,-0.814415 -1.31173,-1.46204 -0.81817,-0.647625 -2.20799,-1.858773 -3.08848,-2.691439 -1.52795,-1.444947 -1.62522,-1.484056 -2.13443,-0.858193 -0.29345,0.36066 -0.79341,0.803808 -1.11105,0.984772 -0.667,0.380013 -5.94014,5.367832 -5.94014,5.618731 0,0.184284 2.70196,-0.02656 7.58472,-0.591861 z m -28.4963,-1.777236 c 1.2179,-1.207069 2.21436,-2.320556 2.21436,-2.474417 0,-0.39822 -2.21634,-2.363732 -2.67936,-2.376127 -0.21246,-0.0057 -0.67363,-0.327841 -1.02481,-0.715897 -0.35119,-0.388055 -0.77383,-0.705555 -0.9392,-0.705555 -0.16538,0 -1.37346,1.071562 -2.68463,2.381249 -1.31116,1.309688 -3.08358,2.934592 -3.93869,3.6109 l -1.55475,1.229649 1.56002,0.290107 c 0.85802,0.159559 2.67128,0.418099 4.02947,0.574534 1.3582,0.156434 2.54455,0.305981 2.63634,0.332326 0.0918,0.02634 1.16336,-0.939701 2.38125,-2.146769 z m 71.2517,-3.593764 c 1.76802,-1.038272 3.63487,-2.681087 3.63487,-3.198654 0,-0.08925 -0.88117,-0.827572 -1.95817,-1.640709 l -1.95817,-1.478432 -1.5696,1.540455 c -0.86329,0.84725 -1.56961,1.716713 -1.56961,1.93214 0,0.563566 1.05829,4.047523 1.22949,4.047523 0.0791,0 1.06513,-0.541046 2.19119,-1.202323 z m -89.12151,-0.777298 c 2.48048,-0.735956 4.79997,-1.961651 6.23764,-3.296168 1.26571,-1.174897 1.38253,-1.426988 0.66126,-1.426988 -0.51263,0 -3.79736,-1.456982 -4.9697,-2.204373 -2.08186,-1.327228 -7.74164,-7.989743 -8.92262,-10.503433 l -0.94211,-2.00526 -1.4607,0.16465 c -0.80927,0.0912 -2.33393,-0.0892 -3.41875,-0.40458 -1.07693,-0.31308 -2.10893,-0.56923 -2.29334,-0.56923 -0.57101,0 -1.85141,5.00147 -1.85141,7.23195 0,4.493456 2.26434,9.325895 5.31618,11.345508 3.26916,2.163428 7.79054,2.81111 11.64355,1.667924 z m 67.70916,-0.30579 c 6.57637,-2.315999 10.18708,-10.058783 8.01342,-17.183932 -0.89008,-2.91766 -1.3099,-3.23448 -3.16822,-2.39092 -1.58998,0.72176 -3.97748,0.8969 -4.83484,0.35469 -0.41141,-0.26019 -0.75333,0.17819 -1.65164,2.1176 -2.25969,4.87852 -6.74362,9.621643 -11.15449,11.799251 l -2.7416,1.353508 0.74381,0.791755 c 1.01574,1.081198 4.41455,2.850173 6.7193,3.497185 2.24194,0.629377 5.74151,0.482387 8.07426,-0.339137 z m -42.71688,-2.29861 c 1.8639,-1.812533 2.12186,-2.212929 1.806,-2.803129 -0.33295,-0.622115 -4.95984,-4.649509 -5.60461,-4.878425 -0.2739,-0.09725 -3.93173,4.289557 -3.93173,4.715287 0,0.38309 4.72516,5.002042 5.15917,5.043214 0.21817,0.0207 1.3752,-0.91393 2.57117,-2.076947 z m 60.00299,-5.723685 c 0,-0.345623 -0.12905,-0.628404 -0.28677,-0.628404 -0.66357,0 -3.94656,4.213611 -3.94656,5.065268 0,0.209385 0.9525,-0.561861 2.11666,-1.71388 1.16417,-1.152019 2.11667,-2.377362 2.11667,-2.722984 z m -73.29665,-0.638604 c 1.47899,-0.979648 4.50499,-4.926193 4.50499,-5.875473 0,-0.20263 -0.72876,-0.46831 -1.61947,-0.5904 -0.8907,-0.12208 -2.35914,-0.54789 -3.26319,-0.94624 -1.91222,-0.84258 -5.32296,-4.21264 -6.39985,-6.32353 -0.94398,-1.85035 -1.38051,-5.42623 -1.00109,-8.20061 0.16206,-1.18499 0.2094,-2.23979 0.1052,-2.34399 -0.65443,-0.65442 -10.0466,10.25209 -10.0466,11.66645 0,2.1408 4.22275,8.02396 7.49289,10.43914 4.65207,3.435798 7.43103,4.026705 10.22712,2.174653 z m 43.03809,-0.220898 c 3.67183,-1.952945 9.42623,-8.594155 10.24644,-11.825535 0.32698,-1.28821 0.2588,-1.51922 -1.00178,-3.39408 -1.40718,-2.09289 -8.51779,-9.46296 -8.82929,-9.15146 -0.0979,0.0979 -0.002,1.19012 0.21375,2.42722 0.49196,2.82504 0.0456,5.88227 -1.22471,8.38918 -1.89891,3.74732 -6.75245,7.43577 -9.78456,7.43577 -0.73801,0 -1.34035,0.11907 -1.33853,0.26459 0.002,0.14552 0.46047,1.05833 1.01921,2.02847 1.14286,1.98433 3.27195,4.301015 4.40107,4.788866 1.28642,0.555812 4.31275,0.09309 6.2984,-0.963021 z m -22.8639,-0.312763 c 0.75994,-0.671026 1.29531,-1.306445 1.18971,-1.412042 -0.1056,-0.1056 -1.39892,-0.14528 -2.87405,-0.0882 l -2.68206,0.10381 1.24998,1.322922 c 0.68749,0.727604 1.35905,1.316308 1.49235,1.308231 0.1333,-0.0081 0.86414,-0.563706 1.62407,-1.234731 z m 88.9135,-0.836494 c 0.7674,-1.483998 2.37139,-7.874188 2.05096,-8.170948 -0.45332,-0.41983 -4.08113,-1.06985 -4.33561,-0.77684 -0.18837,0.21689 -0.8861,3.659 -1.12818,5.56564 -0.0246,0.19403 -0.24468,1.01696 -0.48899,1.82873 -0.4947,1.643787 -0.27906,2.037613 1.27189,2.322761 1.80317,0.331521 2.10654,0.242775 2.62993,-0.769343 z m -36.17555,-3.512578 c 0.45201,-0.42053 0.3619,-0.6138 -0.69458,-1.48982 -2.03177,-1.68471 -2.28825,-1.27266 -1.52723,2.4536 0.18392,0.90054 0.24758,0.87293 2.22181,-0.96378 z m 28.92774,-0.38927 c 0.42258,-1.15896 0.86185,-2.89688 0.97616,-3.86205 0.24753,-2.08998 0.72068,-1.89182 -6.41245,-2.68562 -5.58217,-0.6212 -21.40425,-1.09096 -20.73309,-0.61557 0.25723,0.18219 -0.47191,0.24945 -1.79265,0.16535 -5.90819,-0.3762 -3.27047,0.94152 10.17852,5.08488 3.55539,1.09534 15.11504,3.92543 16.2687,3.98298 0.60236,0.03 0.89483,-0.3696 1.51481,-2.06997 z m -25.36823,-5.12474 c 0,-0.097 0.0794,-0.17639 0.17639,-0.17639 0.097,0 0.17639,0.0794 0.17639,0.17639 0,0.097 -0.0794,0.17639 -0.17639,0.17639 -0.097,0 -0.17639,-0.0794 -0.17639,-0.17639 z m 4.7037,-0.41158 c 0.12936,-0.12935 0.34102,-0.12935 0.47037,0 0.12936,0.12936 0.0235,0.23519 -0.23518,0.23519 -0.2587,0 -0.36454,-0.10583 -0.23519,-0.23519 z m -1.17592,-0.29398 c 0,-0.097 0.0794,-0.17639 0.17639,-0.17639 0.097,0 0.17639,0.0794 0.17639,0.17639 0,0.097 -0.0794,0.17639 -0.17639,0.17639 -0.097,0 -0.17639,-0.0794 -0.17639,-0.17639 z m -2.82222,-0.70555 c 0,-0.097 0.0794,-0.17639 0.17639,-0.17639 0.097,0 0.17638,0.0794 0.17638,0.17639 0,0.097 -0.0794,0.17639 -0.17638,0.17639 -0.097,0 -0.17639,-0.0794 -0.17639,-0.17639 z m -53.975,2.51334 c 0,-0.0729 -0.43334,-1.06506 -0.96298,-2.20486 -0.84509,-1.81866 -0.95974,-2.48267 -0.93655,-5.42376 0.0299,-3.79599 0.79247,-6.15007 3.13554,-9.68005 1.62024,-2.441 3.21107,-3.78739 6.17232,-5.2239 1.97384,-0.95752 2.76918,-1.13269 5.71325,-1.25835 2.76162,-0.11787 3.88872,-0.004 5.85347,0.59311 4.67133,1.41887 9.40616,5.30186 14.18026,11.62908 1.06396,1.4101 1.99599,2.37927 2.07117,2.15371 0.096,-0.28802 0.22901,-0.26695 0.44678,0.0708 0.19684,0.30528 0.40669,0.35207 0.57465,0.12811 0.14553,-0.19403 0.76956,-0.39158 1.38675,-0.43901 1.23682,-0.095 10.56953,-3.79183 15.282,-6.05336 2.44331,-1.17255 6.42341,-3.40354 8.70837,-4.88133 0.25006,-0.16173 0.65731,-2.60932 1.01331,-6.09002 l 0.59521,-5.81961 2.17303,-2.30639 c 2.99112,-3.17469 5.3275,-6.80868 7.16544,-11.14512 2.0356,-4.8028 3.12386,-9.20763 3.84305,-15.55508 0.50408,-4.44897 0.52715,-5.89417 0.16391,-10.26744 -0.23251,-2.79932 -0.73522,-7.00501 -1.11714,-9.34597 -0.75438,-4.62399 -3.92333,-17.74423 -4.63956,-19.20894 -0.58936,-1.20526 -3.80542,-2.27537 -15.61256,-5.19494 -12.16823,-3.00885 -25.16583,-5.05359 -39.6875,-6.24351 -7.20246,-0.59017 -33.66107,-0.59336 -40.92222,-0.005 -15.92778,1.29076 -27.30141,2.97516 -39.8867,5.90711 -6.98032,1.62619 -16.21571,4.29031 -16.76021,4.83481 -0.26463,0.26464 -3.32359,12.00321 -4.04284,15.51418 -1.98347,9.68211 -2.27883,22.54461 -0.69086,30.08567 1.93805,9.20356 5.49559,16.35504 10.61719,21.34305 l 1.99225,1.94028 0.2282,2.64583 c 0.12551,1.45521 0.40432,4.12472 0.61957,5.93224 l 0.39137,3.28641 1.98199,1.12272 c 1.09009,0.61749 2.45824,1.40206 3.04032,1.74349 2.21173,1.29732 5.47022,2.77225 10.58334,4.79046 6.44521,2.544 8.87629,3.34853 9.30945,3.08082 0.18121,-0.11199 0.82696,0.0749 1.435,0.41526 1.05506,0.59062 1.12188,0.59039 1.46358,-0.005 0.60133,-1.04797 3.90029,-5.27986 5.41357,-6.94452 2.36285,-2.5992 3.99693,-4.00334 6.29748,-5.41137 3.20959,-1.9644 5.29928,-2.46788 9.58444,-2.30926 3.316,0.12275 3.815,0.23843 6.27664,1.45504 1.83367,0.90624 3.19968,1.90208 4.34587,3.16816 2.13404,2.35727 4.22972,6.80969 4.4911,9.54168 0.21998,2.29928 -0.25228,5.85903 -0.96273,7.25674 -0.25806,0.50768 -0.57937,1.28025 -0.71404,1.71681 l -0.24486,0.79375 h 5.31544 c 2.92349,0 5.31544,-0.0596 5.31544,-0.13249 z m -47.83507,-10.50535 c -0.15596,-0.25234 -0.0968,-0.31152 0.15557,-0.15557 0.40666,0.25134 0.54598,0.56286 0.25171,0.56286 -0.0856,0 -0.26884,-0.18328 -0.40728,-0.40729 z m 84.03468,-0.01 c 0.10189,-0.16486 0.33303,-0.2084 0.51365,-0.0968 0.46157,0.28526 0.4096,0.3965 -0.18524,0.3965 -0.28251,0 -0.43029,-0.13488 -0.32841,-0.29973 z m -84.88294,-2.58128 c 0,-0.097 0.0794,-0.17639 0.17639,-0.17639 0.097,0 0.17639,0.0794 0.17639,0.17639 0,0.097 -0.0794,0.17638 -0.17639,0.17638 -0.097,0 -0.17639,-0.0794 -0.17639,-0.17638 z m 87.13611,-31.20899 c -2.20443,-1.23516 -16.6276,-6.10016 -22.49359,-7.58718 -7.11471,-1.80357 -17.1302,-3.36078 -21.61553,-3.36078 -9.47966,0 -29.70867,4.96633 -43.82074,10.75822 -0.562,0.23066 -0.61421,-0.0268 -0.58219,-2.87117 0.0521,-4.62984 0.0478,-4.62223 3.38593,-5.96568 11.66592,-4.69498 31.36355,-8.97915 41.26637,-8.9753 8.56289,0.003 25.57032,3.4159 35.74586,7.17245 6.22978,2.29988 7.58437,2.85075 7.70304,3.13262 0.0651,0.15457 0.24989,0.19973 0.41068,0.10035 0.35169,-0.21735 0.81089,4.34044 0.6464,6.41588 -0.0945,1.19206 -0.21918,1.41988 -0.64623,1.18059 z m -102.83472,-15.16866 c -1.24178,-0.51996 -2.25397,-1.73861 -2.49028,-2.99825 -0.49404,-2.63344 2.59346,-6.40736 7.69413,-9.40473 2.76736,-1.62621 4.69133,-2.35832 7.11419,-2.70709 0.9541,-0.13734 1.79506,-0.43074 1.86881,-0.65199 0.24269,-0.72807 -4.04016,-1.89012 -6.93521,-1.88171 -3.35862,0.01 -4.85776,0.67592 -7.40172,3.28904 -1.05268,1.0813 -2.33479,2.05843 -2.84913,2.1714 -2.47718,0.54408 -4.24796,-1.73308 -3.50198,-4.50343 0.3025,-1.12339 1.08936,-2.16418 3.27332,-4.32967 3.87578,-3.84301 4.74212,-4.22869 9.40148,-4.18538 2.99221,0.0278 4.24661,0.21346 6.52639,0.96583 3.33857,1.1018 6.62667,2.75803 8.86989,4.4678 2.83492,2.16075 7.0548,6.47476 7.83684,8.01164 1.2258,2.40895 0.85093,4.91583 -0.85105,5.6913 -1.10514,0.50354 -1.79291,0.33158 -4.98607,-1.24664 -2.29282,-1.13322 -3.14445,-1.36322 -5.43467,-1.46769 -5.18073,-0.23632 -8.9734,1.45297 -13.46005,5.99524 -3.11325,3.15184 -3.39559,3.31999 -4.67489,2.78433 z m 113.58616,-2.86234 c -4.33526,-4.39036 -8.83285,-6.25446 -14.18528,-5.87931 -2.25455,0.15802 -3.26753,0.44816 -5.71972,1.6383 -1.63898,0.79545 -3.20247,1.44628 -3.47444,1.44628 -0.27197,0 -0.95505,-0.49304 -1.51797,-1.09564 -1.98186,-2.1216 -1.27082,-4.49033 2.58833,-8.62268 7.33401,-7.85319 19.87199,-12.11546 25.93385,-8.81618 3.49429,1.90183 7.46118,6.54372 7.48826,8.76243 0.0134,1.09385 -1.04534,2.73198 -2.00024,3.09503 -1.42774,0.54283 -3.00235,-0.18657 -4.91974,-2.27894 -2.33018,-2.54283 -3.40375,-3.03847 -6.58147,-3.03847 -2.3076,0 -4.43583,0.47551 -7.30469,1.63208 -0.29104,0.11734 0.92976,0.57869 2.71288,1.02523 5.47355,1.37071 11.74094,5.69223 13.75261,9.48275 1.22122,2.30107 -0.44454,5.4621 -2.89182,5.48768 -0.87329,0.009 -1.57664,-0.50536 -3.88056,-2.83856 z m -100.1806,-24.36876 c -2.77729,-1.51906 -1.9739,-4.48925 1.88387,-6.96477 2.74698,-1.76274 4.6292,-1.31986 5.09361,1.19852 0.26853,1.45615 -0.64294,3.06196 -2.70536,4.76624 -1.75591,1.451 -2.94059,1.7283 -4.27212,1.00001 z m 88.13184,0.16175 c -0.97418,-0.18963 -4.0637,-2.88455 -3.79863,-3.31345 0.10929,-0.17682 0.0432,-0.32149 -0.14687,-0.32149 -0.19006,0 -0.45026,-0.47665 -0.57821,-1.05922 -0.33254,-1.51403 0.94432,-3.52812 2.23383,-3.52358 1.28972,0.005 4.28016,1.78047 5.67704,3.37143 0.94613,1.07757 1.11428,1.5067 0.93726,2.39184 -0.43388,2.16937 -1.80147,2.94559 -4.32442,2.45447 z m -55.67623,84.55946 c 2.27961,-1.10354 3.1813,-2.99213 3.14911,-6.5958 -0.0229,-2.56143 -0.14493,-3.08519 -1.06862,-4.58611 -1.90092,-3.08886 -5.85979,-5.06378 -8.95742,-4.46852 -2.19215,0.42127 -2.64931,1.41934 -2.64418,5.77269 0.003,2.73436 0.15338,3.68311 0.81555,5.15316 0.99093,2.19989 3.02792,4.25576 4.86568,4.91078 1.8296,0.6521 2.13921,0.63709 3.83988,-0.1862 z m 31.62428,-0.56116 c 3.55904,-2.24672 5.69434,-8.08828 4.52969,-12.39192 -0.60712,-2.24349 -0.847,-2.49504 -2.6349,-2.76315 -3.89976,-0.5848 -8.53015,2.47094 -9.8737,6.51597 -0.76337,2.29829 -0.58219,5.35628 0.41444,6.99511 1.78658,2.9378 4.5601,3.54057 7.56447,1.64399 z m -90.61467,-22.45755 c -0.10274,-0.43657 -1.40195,-1.98438 -2.88714,-3.43959 -5.96358,-5.84317 -9.78571,-11.86234 -11.53659,-18.16805 -2.89368,-10.42144 -3.58553,-20.54146 -2.24463,-32.8333 0.37488,-3.43646 1.84838,-10.8829 3.15315,-15.93459 0.64547,-2.49909 0.49921,-3.36784 -0.44671,-2.65341 -0.23404,0.17676 -1.1399,0.52259 -2.01302,0.76851 -1.4965,0.4215 -2.59269,0.82328 -8.37847,3.0709 -1.30969,0.50878 -3.29407,1.38419 -4.40973,1.94536 l -2.02847,1.0203 v 5.73809 c 0,12.88352 2.38249,23.83739 7.46562,34.32443 1.21397,2.50454 2.30063,4.63308 2.41482,4.7301 0.11418,0.097 0.66594,0.97014 1.22614,1.94028 3.82719,6.62791 10.83013,14.24731 16.81502,18.29523 1.61781,1.09422 2.96742,1.98949 2.99913,1.98949 0.0317,0 -0.0264,-0.35719 -0.12912,-0.79375 z m 147.29174,-1.89859 c 3.18478,-2.33034 8.17353,-7.26487 11.34381,-11.22053 5.6663,-7.07 10.43433,-16.78027 12.90403,-26.27956 1.73128,-6.65905 2.7333,-15.40598 2.56561,-22.39594 l -0.10931,-4.55643 -1.10223,-0.61512 c -2.53154,-1.4128 -14.48682,-5.97063 -15.66108,-5.97063 -0.38455,0 -0.69919,0.15875 -0.69919,0.35277 0,0.19403 0.16812,0.35278 0.37359,0.35278 0.20548,0 0.28967,0.1358 0.18709,0.30178 -0.10258,0.16598 0.0322,1.23754 0.29959,2.38125 2.43168,10.40265 3.32564,16.44032 3.5986,24.30447 0.21431,6.17446 -0.11037,11.56476 -0.96686,16.05139 -0.52829,2.76739 -2.4208,9.41797 -3.2124,11.28889 -1.78606,4.22127 -6.52819,11.10771 -10.83684,15.73708 -2.76571,2.97158 -2.4636,3.03308 1.31559,0.2678 z M 125.533,-208.3542 c 3.99235,-2.22052 12.53836,-5.25117 24.75177,-8.77766 5.55746,-1.60466 14.9578,-4.01637 16.65854,-4.27384 0.89319,-0.13522 0.90061,-0.59361 0.0248,-1.52983 -2.09718,-2.24172 -3.31063,-5.92691 -3.83594,-11.6496 -0.50386,-5.48904 -0.19095,-14.22067 0.5923,-16.52768 0.30016,-0.8841 0.46888,-1.68433 0.37493,-1.77828 -0.25982,-0.25982 -7.6048,1.77081 -14.41261,3.9846 -6.94524,2.25847 -13.5437,4.96133 -15.20442,6.22802 -1.70568,1.30098 -4.55355,7.36662 -7.11755,15.15954 -2.12808,6.468 -5.00572,20.37389 -4.21611,20.37389 0.11569,0 1.18864,-0.54412 2.38433,-1.20916 z m 202.20815,-0.9957 c -0.74368,-5.90072 -4.05497,-18.83357 -6.16309,-24.07109 -2.05513,-5.10587 -4.07131,-8.79375 -5.2371,-9.57937 -2.51702,-1.69622 -12.00878,-5.20686 -21.77009,-8.05193 -5.72032,-1.66726 -7.58472,-2.11531 -7.58472,-1.82271 0,0.10296 0.23812,1.10143 0.52916,2.21881 0.38593,1.48169 0.52917,3.96221 0.52917,9.16391 0,11.24789 -0.68239,14.44649 -4.06346,19.04686 -0.54833,0.74608 -0.5165,0.75952 4.84256,2.04504 2.96698,0.71171 7.37512,1.85763 9.79586,2.54649 4.96924,1.41408 19.73737,6.23421 21.35142,6.96884 0.58209,0.26493 1.61396,0.66669 2.29306,0.8928 0.6791,0.22612 2.10785,0.87237 3.175,1.43613 1.06715,0.56376 2.07424,1.0325 2.23796,1.04166 0.16373,0.009 0.19265,-0.8168 0.0643,-1.83544 z m -140.84099,-15.42505 c 30.01235,-3.54144 48.63268,-3.55056 78.11408,-0.0383 10.45638,1.24573 11.91098,1.05628 14.49606,-1.88796 1.88109,-2.14244 2.23306,-4.02849 2.4402,-13.07577 0.20966,-9.1574 -0.0564,-11.30239 -1.67983,-13.5435 -1.39987,-1.93245 -2.35323,-2.35326 -8.56504,-3.78054 -14.90192,-3.42401 -29.90914,-5.07847 -46.04236,-5.07592 -16.07422,0.003 -28.04795,1.28576 -44.33406,4.75123 -7.41893,1.57865 -9.45736,2.49566 -10.93611,4.91973 -1.05678,1.73235 -1.05851,1.74416 -1.17546,8.05075 -0.141,7.60301 0.36125,13.81364 1.28488,15.88836 1.18114,2.65315 4.0601,4.72261 6.69626,4.81342 0.44465,0.0153 4.81027,-0.44436 9.70138,-1.0215 z m -9.99399,-13.34741 c -1.93995,-0.59866 -2.39209,-3.03907 -0.7957,-4.29479 2.23372,-1.75705 5.1043,1.06013 3.46501,3.40055 -0.53463,0.7633 -1.76161,1.17434 -2.66931,0.89424 z m 94.78882,-0.71226 c -0.71068,-0.78529 -0.75912,-2.50809 -0.096,-3.41494 0.7246,-0.99094 2.93867,-0.90448 3.79095,0.14805 0.81028,1.00065 0.83708,1.90287 0.0904,3.04249 -0.71562,1.09218 -2.88367,1.2207 -3.78531,0.2244 z m -121.64691,-17.68851 c 10.08391,-3.35933 28.61832,-8.02104 40.08713,-10.08256 24.17167,-4.34487 53.32319,-3.81003 79.03566,1.45005 11.42983,2.33824 26.53662,6.48112 36.48768,10.00636 2.21767,0.78563 4.08837,1.37217 4.15711,1.30343 0.12813,-0.12813 -2.03156,-2.95418 -3.94143,-5.15752 -2.3928,-2.7605 -11.5188,-11.66305 -14.65475,-14.29595 -1.84327,-1.54757 -3.40431,-2.93283 -3.46898,-3.07836 -0.0647,-0.14552 -0.32926,-0.26458 -0.58797,-0.26458 -0.2587,0 -0.52328,-0.12333 -0.58796,-0.27408 -0.11071,-0.25805 -3.08323,-2.26497 -6.64398,-4.48574 -0.87312,-0.54455 -1.70413,-1.1648 -1.84668,-1.37833 -0.14255,-0.21353 -0.26161,-0.27999 -0.26458,-0.14769 -0.003,0.13231 -2.2313,-0.86734 -4.95184,-2.22144 -10.56839,-5.26023 -20.85224,-8.26743 -34.4301,-10.06803 -7.05044,-0.93498 -20.7695,-0.84654 -28.46549,0.18351 -9.01143,1.20611 -18.9947,3.87538 -27.67255,7.39893 -1.01865,0.41361 -1.85452,0.63528 -1.85749,0.49259 -0.003,-0.14269 -0.12203,-0.081 -0.26458,0.13701 -0.14255,0.21804 -1.60856,1.07126 -3.25779,1.89605 -1.64924,0.82478 -3.41999,1.79732 -3.93502,2.16119 -0.51502,0.36387 -1.17648,0.66159 -1.4699,0.66159 -0.29343,0 -0.58642,0.14684 -0.6511,0.32632 -0.0647,0.17947 -0.35018,0.37791 -0.63446,0.44097 -0.28428,0.0631 -0.79493,0.43215 -1.13479,0.82021 -0.33986,0.38805 -0.62321,0.57515 -0.62966,0.41577 -0.006,-0.15938 -0.23227,-0.08 -0.50181,0.17639 -0.26955,0.25639 -0.93375,0.78367 -1.47601,1.17173 -8.82347,6.31426 -16.28606,13.44817 -23.98704,22.93055 -1.84549,2.2724 -2.15998,2.7962 -1.52445,2.53912 0.26954,-0.10903 4.35231,-1.4849 9.07283,-3.05749 z"
       id="path129" /></g></svg>
