<?xml version="1.0" encoding="UTF-8" standalone="no"?>
<!-- Created with Inkscape (http://www.inkscape.org/) -->

<svg
   width="284.14389mm"
   height="333.03485mm"
   viewBox="0 0 284.14389 333.03481"
   version="1.1"
   id="svg1"
   xml:space="preserve"
   xmlns="http://www.w3.org/2000/svg"
   xmlns:svg="http://www.w3.org/2000/svg"><defs
     id="defs1"><clipPath
       clipPathUnits="userSpaceOnUse"
       id="clipPath6"><path
         id="path7"
         style="fill:#ff0000;fill-opacity:1;fill-rule:nonzero;stroke:none;stroke-width:0.264583"
         d="M -175.07778,-16.057127 V 287.55793 H 124.54631 V -16.057127 Z m 132.7459,202.572647 c 0.210643,0.005 0.427212,0.0169 0.650089,0.0367 2.23823,0.19855 4.475655,0.4031 6.717938,0.55346 1.973313,0.11308 0.986628,0.0436 2.958475,0.20825 3.181295,0.26563 4.740125,1.85116 4.950601,3.46956 4.949923,1.63749 3.796379,7.35609 -2.592089,6.81354 -3.228716,-0.27422 -1.569593,-0.1301 -4.979024,-0.43357 -4.228209,-0.39317 -8.460616,-0.76265 -12.666927,-1.35341 -6.647387,-0.93358 -5.930551,-7.21034 0.03204,-7.20421 0.04685,5e-5 0.0972,0.004 0.144695,0.005 0.687229,-1.21692 2.304132,-2.15435 4.784204,-2.09548 z" /></clipPath><clipPath
       clipPathUnits="userSpaceOnUse"
       id="clipPath76"><path
         id="path77"
         style="fill:#ff0000;fill-opacity:1;fill-rule:nonzero;stroke:none;stroke-width:0.264583"
         d="M -133.83107,-122.52355 V 173.82063 H 122.97289 V -122.52355 Z M 13.574404,98.948202 c 2.788179,0.0507 4.135003,2.063798 3.398242,4.077268 0.199805,0.45372 0.374906,0.96736 0.517797,1.54461 1.07913,4.35948 0.671079,8.891 0.311608,13.31495 -0.351859,3.06036 -0.147137,1.57974 -0.604097,4.44366 -0.359666,2.25418 -1.333846,3.66838 -2.455664,4.32532 0.105138,0.36595 0.224724,0.72888 0.324528,1.09554 0.6273,2.23652 0.575201,4.47401 0.39429,6.75514 -0.137303,1.73129 -0.688065,2.99533 -1.427303,3.82199 -0.112477,0.41601 -0.170275,0.80219 -0.311092,1.25212 -0.184975,0.59102 -0.413327,1.1061 -0.670242,1.55856 0.741137,-0.23134 1.446982,-0.38145 2.064991,-0.37517 4.085002,0.0415 5.222724,4.75435 -0.02223,7.27138 -4.46677,2.14368 -9.303523,3.34693 -14.11903492,4.40955 -4.40876268,0.85156 -8.89238128,1.33053 -13.38264308,1.19269 -5.804014,-0.17807 -6.736297,-5.00293 -3.065447,-6.67298 -2.072987,-0.65744 -4.042852,-1.62261 -4.128947,-3.14709 -0.02802,-0.49633 0.0026,-0.90355 0.0341,-1.30897 -1.976731,-0.003 -3.95339,2.4e-4 -5.930386,0.003 -0.814031,0 -1.53062,-0.0962 -2.159559,-0.26149 -0.376306,0.19492 -0.742394,0.40783 -1.120862,0.59893 -6.391272,3.22657 -9.625245,-3.24074 -3.234428,-6.46886 1.833438,-0.92611 3.62694,-1.92211 5.414142,-2.92954 -0.877003,-3.87058 -1.368747,-7.83436 -1.323951,-11.80858 0.01651,-1.46304 0.376836,-2.54918 0.864547,-3.41426 -1.247357,-1.79999 -0.223805,-4.63069 3.842661,-5.68855 3.11826,-0.81116 6.282901,-1.39515 9.473837,-1.82211 -1.259816,-0.12657 -2.516182,-0.30233 -3.764627,-0.50177 -1.477002,-0.21985 -2.935575,-0.54305 -4.407482,-0.7891 -1.14214,-0.22954 -0.588502,-0.12004 -1.660882,-0.3297 -3.350244,-0.65501 -4.783278,-2.61088 -4.608504,-4.32997 -0.200179,-1.7721 1.333365,-3.52972 4.663799,-3.59461 v -5.3e-4 c 0.20954,-0.004 0.426035,-0.002 0.649571,0.008 1.77111,0.0772 3.528708,0.28204 5.26428,0.64027 1.655035,0.33225 3.314115,0.6481 4.955251,1.04439 1.244759,0.34858 2.51628,0.54538 3.7997689,0.6723 0.025956,0.002 0.052073,0.002 0.078034,0.004 0.4990888,-0.0371 0.9984105,-0.0743 1.4965495,-0.11317 1.346872,-0.12588 2.6913231,-0.25136 4.0457464,-0.24236 1.1278499,-0.0444 2.2567291,-0.10772 3.37498791,-0.26872 0.75719517,-0.11591 1.51142439,-0.25483 2.25722659,-0.4284 0.3616431,-0.12394 0.7240561,-0.24538 1.083138,-0.37775 0.3360393,-0.12388 0.6107589,-0.12825 0.9250071,-0.20723 0.1281086,-0.045 0.2583895,-0.0825 0.3855085,-0.13074 1.9825018,-0.7681 3.9540551,-1.56464 5.9510551,-2.29443 1.050809,-0.383992 1.999634,-0.542639 2.826703,-0.527616 z M 0.70283723,110.39557 c -0.45566013,0.0949 -0.90775367,0.208 -1.36890919,0.2744 -1.16638124,0.15534 -2.34111274,0.24237 -3.51761424,0.26251 0.4031694,0.0896 0.8047355,0.18876 1.2025101,0.308 0.1014836,0.0304 0.1982549,0.075 0.2986907,0.10852 0.4205235,-0.21824 0.9206601,-0.35072 1.4898318,-0.37156 0.39885139,-0.0146 0.83259872,0.0278 1.29449508,0.13023 0.22468681,-0.12213 0.44967525,-0.24374 0.67437529,-0.36587 -0.0326284,-0.11319 -0.058211,-0.22834 -0.0733795,-0.34623 z m 10.24433577,1.02474 c -0.76023,0.21437 -1.5189569,0.4343 -2.2696301,0.68006 -0.031261,0.62207 -0.2256075,1.28373 -0.6464723,1.94355 0.6236891,0.43248 1.2549743,1.04482 1.8634525,1.86862 0.2674939,0.36214 0.4748849,0.75712 0.7188199,1.13223 0.154519,-1.86707 0.314174,-3.74736 0.33383,-5.62446 z m 64.566086,3.39773 c 1.50346,0.0187 3.129182,1.24994 3.928441,4.04678 0.257931,0.90255 0.823497,1.65871 1.488797,2.30735 0.856321,0.95375 1.845738,1.76777 2.801898,2.61638 1.458581,1.46408 2.789203,3.04608 4.169772,4.58215 1.315059,1.44746 2.571226,2.91698 3.543967,4.61884 0.0053,0.01 0.0082,0.0206 0.01344,0.0305 0.734605,-0.43313 1.446276,-0.65634 2.094962,-0.69195 3.016182,-0.16561 4.69137,3.55377 1.187525,7.32306 -1.69471,1.82311 -3.657862,3.33908 -5.68751,4.7651 -0.777873,0.49914 -1.607691,0.90075 -2.418456,1.33842 0.165478,1.44344 -0.672182,3.24303 -2.956409,4.73096 -1.354556,0.88234 -2.690448,1.79306 -4.075203,2.6288 -2.075008,1.20078 -4.233777,2.27962 -6.540687,2.96259 -2.077586,0.62971 -4.169056,1.29987 -6.359301,1.36374 -1.872114,0.0897 -3.746989,0.0368 -5.620845,0.0501 h -5.1108 -5.524728 c -7.160125,0 -7.160125,-7.23315 0,-7.23315 h 1.347722 c 0.29438,-0.0541 0.5212,-0.1588 0.84801,-0.18656 1.106628,-0.094 2.200932,-0.28334 3.292822,-0.48421 0.456121,-0.98163 1.356053,-1.98213 2.807581,-2.83962 1.078018,-0.63685 2.158119,-1.26923 3.212209,-1.94561 1.962647,-1.29302 3.840588,-2.72135 5.893696,-3.86902 1.367169,-0.76424 2.559646,-1.07097 3.526915,-1.04128 2.216811,0.068 3.246223,1.90266 2.479953,4.04059 1.105688,-0.48686 2.206929,-0.98346 3.283003,-1.53739 2.619811,-1.23728 5.288743,-2.38548 7.764385,-3.9026 0.246153,-0.17184 0.487463,-0.34958 0.730705,-0.52503 -0.126915,-0.50614 -0.277693,-0.9939 -0.512114,-1.46554 -0.647621,-1.25778 -1.721077,-2.20654 -2.600875,-3.29644 -1.199229,-1.33472 -2.369312,-2.69496 -3.592029,-4.00803 -1.098706,-0.97599 -2.227236,-1.92181 -3.215306,-3.01428 -1.300821,-1.39063 -2.459913,-2.93896 -3.045293,-4.77801 -1.289469,-4.05101 0.646382,-6.61405 2.843754,-6.58667 z m -95.086705,4.28035 c -0.465643,0.10748 -0.930899,0.21773 -1.394745,0.33435 0.171958,0.64334 0.283575,1.36624 0.279569,2.2071 -0.01267,2.6582 0.205063,5.32647 0.670242,7.94732 0.280107,-0.17087 0.565767,-0.33222 0.845429,-0.50385 -0.01897,-0.36223 -0.02445,-0.73164 -0.05529,-1.08985 -0.118034,-2.96491 -0.160888,-5.93314 -0.3452,-8.89507 z m 18.5141159,1.1958 c 0.00497,0.0773 0.00619,0.15612 0.014975,0.23202 -0.1238779,0.22787 -0.2588048,0.44752 -0.3937741,0.66715 0.58900751,0.0447 1.13203305,0.21413 1.64331124,0.45888 -0.37615284,-0.49255 -0.78353709,-0.94642 -1.26452314,-1.35805 z m -6.5422357,14.57068 c -0.046649,0.0755 -0.09888,0.14702 -0.1436608,0.22376 -0.03147,0.054 0.1963367,0.0838 0.1860365,0.0222 -0.017595,-0.10481 -0.026035,-0.14905 -0.042376,-0.24597 z m 13.9236979,6.08439 c -0.2236258,0.5643 -0.5677508,1.09664 -1.1782213,1.50533 0.9079653,0.17659 1.7077452,0.44257 2.2830631,0.84852 0.1405493,-0.0459 0.272804,-0.11448 0.4128956,-0.16174 -0.7336976,-0.43656 -1.2984269,-1.18703 -1.5177374,-2.19211 z" /></clipPath><clipPath
       clipPathUnits="userSpaceOnUse"
       id="clipPath127"><path
         id="path128"
         style="fill:#ff0000;fill-opacity:1;fill-rule:nonzero;stroke:none;stroke-width:0.264583"
         d="M -112.24796,-126.55676 V 185.58027 H 148.5754 V -126.55676 Z M 46.874626,83.305366 c 1.808208,0 3.616317,1.790192 3.616317,5.370214 v 5.232238 c 0.0627,2.146078 -0.111291,4.285324 -0.245462,6.424932 -0.136289,2.02485 -0.190703,4.04985 -0.104904,6.07715 0.192061,1.91863 0.527714,3.82569 0.876432,5.72213 0.304242,2.00862 0.765826,3.9858 1.180806,5.97276 0.41642,1.86142 0.967934,3.68703 1.421104,5.53972 0.25287,0.86996 0.117097,0.46495 0.396356,1.22008 0.186108,0.50319 0.223428,0.93098 0.309544,1.38441 4.425355,2.23251 2.751262,7.58433 -3.415813,6.40477 -3.104732,-0.59371 -6.256094,-0.76586 -9.40821,-0.85576 -3.81635,0.009 -7.630525,0.17062 -11.44478,0.28216 -1.12776,0.0333 -2.255837,0.0512 -3.383772,0.0754 -0.908129,0.5548 -1.966518,0.57724 -2.88613,0.0641 -0.03584,5.3e-4 -0.07165,0.002 -0.107487,0.003 -0.03142,5.3e-4 -0.0525,-0.009 -0.08268,-0.009 -0.32049,0.14732 -0.641715,0.29301 -0.962215,0.44028 -0.262501,0.12062 -0.518089,0.22111 -0.770496,0.31265 -0.876996,0.71434 -1.945576,0.85817 -2.911967,0.46405 -2.943479,-0.21613 -4.295167,-2.77187 -2.550232,-5.0524 -2.22e-4,-0.028 -0.0078,-0.0483 -0.0078,-0.0765 v -6.3469 c -0.014,-2.72977 -0.02254,-5.45666 0.112657,-8.18348 0.135676,-2.32533 0.233519,-4.6523 0.299723,-6.98046 0.046,-1.80459 0.06926,-3.60958 0.08527,-5.41465 -0.0258,-1.02998 0.04009,-2.054459 0.138491,-3.078883 0.0044,-0.04602 0.02191,-0.07504 0.02687,-0.120406 C 15.992671,97.193438 15.83363,95.70984 16.656834,94.418959 10.68718,93.678613 10.992573,87.32947 17.739972,87.32947 h 3.885033 5.177462 5.913334 c 1.498505,0.05847 2.984222,-0.03228 4.475178,-0.161748 1.252041,-0.18606 2.49041,-0.398671 3.697968,-0.782897 1.001961,-0.32245 0.492366,-0.161472 1.527553,-0.482142 0.510384,-0.158096 0.938446,-0.174371 1.394749,-0.23771 0.672338,-1.56932 1.86623,-2.35903 3.063377,-2.35903 z" /></clipPath></defs><g
     id="layer1"
     transform="translate(89.261895,247.14854)"><path
       style="fill:#000000"
       d="m 5.8722067,85.806205 c -7.58895,-1.15596 -9.24434,-1.71402 -10.89173,-3.67184 -1.26488,-1.503219 -1.28462,-4.319244 -0.0489,-6.973603 1.01915,-2.189155 4.04645,-5.485379 6.74438,-7.343518 1.04676,-0.720929 1.9032,-1.35924 1.9032,-1.418471 0,-0.05923 -0.38076,-0.968656 -0.84614,-2.020946 -2.81173,-6.357824 -2.82722,-10.868865 -0.0574,-16.70141 1.61892,-3.408975 2.85874,-5.158338 5.86011,-8.268496 1.37674,-1.426645 2.7908603,-3.2289 3.1424903,-4.005011 0.35162,-0.776111 1.54399,-2.403299 2.6497,-3.615972 1.10572,-1.212674 1.83332,-2.204861 1.61689,-2.204861 -0.21643,0 -1.30443,0.306868 -2.41778,0.681928 -1.11335,0.375061 -3.7129103,0.863738 -5.7767903,1.085949 -7.42208,0.799109 -15.5476,-0.965782 -25.1613997,-5.465146 -9.05406,-4.237398 -13.93827,-11.13814 -16.43732,-23.2237628 -0.91988,-4.448598 -1.00181,-10.626027 -0.18681,-14.0836792 1.34321,-5.698542 5.43661,-11.11602 10.20857,-13.510688 2.30139,-1.154886 2.76468,-1.262822 5.02725,-1.17124 2.29355,0.09284 2.62705,0.01158 4.18336,-1.019272 1.61634,-1.070622 2.74222,-1.53378 4.8778697,-2.006622 1.09934,-0.243401 1.27301,-0.763072 0.35277,-1.055629 -0.33955,-0.107948 -1.0142297,-0.557962 -1.4992997,-1.000032 -0.48507,-0.442069 -1.96517,-1.571415 -3.28912,-2.509657 -1.32394,-0.938242 -3.40792,-2.642051 -4.63106,-3.786241 -1.22315,-1.144191 -2.32107,-2.080347 -2.43983,-2.080347 -0.11877,0 -1.44791,1.291322 -2.95366,2.869605 -2.51083,2.631785 -11.188,10.33494 -11.44642,10.161557 -0.0609,-0.04087 -1.30114,1.05853 -2.75608,2.443101 -1.45493,1.384571 -2.74937,2.517403 -2.87653,2.517403 -0.4324,0 -8.957933,8.686684 -11.626826,11.8465937 -4.431991,5.2473795 -7.539226,10.25286048 -10.896625,17.5534985 -1.947756,4.2353808 -2.766669,5.1721268 -4.52153,5.1721268 -2.908384,0 -5.179631,-7.0286538 -5.592795,-17.3075988 -0.526129,-13.0893532 2.601784,-22.3994262 10.751636,-32.0016892 0.868581,-1.023375 1.514824,-1.925097 1.436094,-2.003827 -0.07873,-0.07873 -1.014132,0.406522 -2.078671,1.078337 -4.298402,2.71266 -6.086378,2.551802 -9.040839,-0.813375 -2.532614,-2.884686 -5.921785,-5.138608 -10.722911,-7.131123 -2.012813,-0.835338 -4.01207,-1.749704 -4.442793,-2.031924 -1.143376,-0.749169 -1.560641,-2.218306 -1.005223,-3.539258 0.772269,-1.836686 10.455665,-7.880503 19.219297,-11.995575 4.786166,-2.247403 12.312159,-5.39285 12.903271,-5.39285 0.785186,0 0.626819,-0.293979 -1.285582,-2.38645 -4.964821,-5.432306 -8.17454,-12.682437 -9.148325,-20.664294 -0.672147,-5.509408 0.279582,-10.099256 2.911339,-14.040346 1.667735,-2.49745 4.74519,-4.9237 7.071296,-5.57497 l 1.591641,-0.44563 0.122617,-4.6379 c 0.10665,-4.03397 0.232984,-4.8623 0.970179,-6.36117 0.805574,-1.6379 0.823017,-1.81266 0.35209,-3.52778 -2.156585,-7.85428 4.663792,-48.54667 9.299401,-55.48297 0.62768,-0.9392 1.934989,-2.2331 2.905129,-2.87533 1.3078,-0.86576 1.94632,-1.59702 2.46944,-2.82811 1.1934,-2.80849 3.55067,-6.93159 6.391,-11.17852 13.26871,-19.83966 32.4529697,-34.45513 55.82709,-42.53169 7.32335,-2.53046 17.23436,-4.63741 27.38746,-5.8222 7.36823,-0.85982 23.0334,-0.87418 30.33889,-0.0278 20.800163,2.40979 38.853163,9.38742 54.519963,21.0724 2.29031,1.70821 5.48588,4.26572 7.10128,5.68336 1.6154,1.41764 3.39467,2.97514 3.95394,3.46111 2.25326,1.95794 8.31036,8.92156 11.68792,13.43718 4.08214,5.45761 7.02278,10.06666 9.24425,14.48911 0.96588,1.92284 1.97261,3.38837 2.71836,3.95718 3.13399,2.39041 4.45177,4.41304 5.77503,8.864 3.41222,11.4774 6.65338,29.27432 7.50565,41.21283 0.35217,4.93313 0.32891,5.87784 -0.20002,8.12384 -0.59848,2.54138 -0.59847,2.54166 0.22949,3.94272 0.74372,1.25852 0.84032,1.91081 0.94884,6.40738 l 0.12083,5.00622 1.00855,0.22151 c 0.5547,0.12183 1.92907,0.82106 3.05417,1.55383 4.60056,2.99633 6.89006,7.91889 6.90539,14.846937 0.0209,9.455819 -4.17507,19.959319 -10.38495,25.995849 -3.73065,3.626503 -10.62633,6.650663 -16.12996,7.073931 l -2.60516,0.200354 -0.92262,1.549667 c -4.63527,7.785518 -8.69978,13.114203 -14.70508,19.278757 -3.28695,3.374114 -12.26115,10.45977 -13.24762,10.45977 -0.87372,0 -0.12408,0.609896 1.1891,0.967429 0.82462,0.224515 2.12551,0.929461 2.89087,1.566547 1.28098,1.066287 1.56133,1.150422 3.52778,1.05873 1.84022,-0.08581 2.49306,0.07315 4.71158,1.147173 6.08162,2.944224 9.70519,9.224617 10.1936,17.6676222 0.46028,7.95675798 -2.86123,19.3260598 -7.39926,25.3271068 -4.32639,5.721194 -13.07601,10.769781 -22.22356,12.823138 -3.78694,0.850058 -10.91772,0.752028 -14.5116,-0.199497 -1.53476,-0.406345 -2.92382,-0.738809 -3.08681,-0.738809 -0.61195,0 -0.24576,0.65359 1.45536,2.597553 0.96344,1.100976 1.93305,2.607029 2.15468,3.346784 0.25717,0.858339 1.17185,2.100506 2.52791,3.432974 2.59494,2.549801 5.08767,6.25947 6.66782,9.923012 1.12359,2.605009 1.18435,2.959789 1.16565,6.80523 -0.0174,3.586809 -0.13374,4.343114 -1.00347,6.526389 -1.52621,3.831201 -1.5245,4.089358 0.0338,5.115277 2.26387,1.490402 5.65377,5.197616 6.69892,7.325996 1.2676,2.581373 1.3746,5.512276 0.25641,7.023825 -1.0655,1.44035 -3.22799,2.5237 -6.38075,3.19661 -3.54765,0.75719 -20.25443,0.85485 -24.63244,0.14399 -5.792763,-0.94057 -9.028633,-2.25347 -11.137753,-4.518971 -2.77169,-2.977184 -3.6295,-5.638044 -3.6506,-11.323923 l -0.0147,-3.973306 -7.59151,-2.527652 -7.59151,-2.527652 -7.24235,0.02617 c -8.03053,0.02902 -8.81791,0.179517 -18.68681,3.571664 l -4.05694,1.394456 -0.22619,4.1812 c -0.52839,9.767635 -3.51216,13.24424 -13.17937,15.35622 -2.5645,0.56026 -4.87083,0.717 -11.99444,0.81517 -4.8507,0.0668 -9.2957003,0.049 -9.8777803,-0.0397 z M 17.337487,80.164932 c 0,-0.878404 -2.98078,-5.158415 -4.68939,-6.733361 -0.84081,-0.775027 -2.26982,-1.843443 -3.1755903,-2.374257 l -1.64684,-0.965116 -1.93942,1.109619 c -1.06667,0.61029 -2.03226,1.259855 -2.14574,1.443477 -0.23501,0.380248 0.65378,1.386779 1.22456,1.386779 0.20789,0 0.37797,0.15875 0.37797,0.352778 0,0.194028 0.19557,0.352778 0.43459,0.352778 0.58307,0 4.05012,3.785071 4.5953803,5.016897 0.42939,0.970051 0.46816,0.980325 3.69921,0.980325 2.77104,0 3.26527,-0.08626 3.26527,-0.569919 z M 117.70269,79.058624 c 1.51634,-2.399973 2.95558,-3.952461 4.67988,-5.048094 l 1.50481,-0.956172 -1.71208,-1.098642 c -1.98749,-1.275366 -3.13969,-1.378479 -4.39242,-0.393087 -0.49333,0.388056 -0.98885,0.705556 -1.10116,0.705556 -0.33552,0 -2.55664,2.473456 -4.69528,5.228687 -2.38335,3.070499 -2.29561,3.224961 1.83576,3.231946 l 2.82222,0.0048 z M 6.5360367,80.096803 c 0.24569,-0.397529 -3.11559,-3.838921 -4.03437,-4.130531 -0.55004,-0.174575 -1.02858,0.02552 -1.77785,0.743355 -1.55354,1.488391 -1.35582,2.148786 0.82686,2.761728 3.03322,0.851791 4.71507,1.06279 4.98536,0.625448 z M 25.274987,79.882542 c 2.96935,-0.524557 6.87916,-1.829135 6.87916,-2.295352 0,-0.15111 -0.83343,-0.139122 -1.85208,0.02664 -1.01865,0.165762 -3.51896,0.397526 -5.55625,0.515031 -2.03729,0.117504 -3.76964,0.275001 -3.84967,0.349993 -0.28512,0.267194 0.66763,1.90321 1.10808,1.902737 0.24669,-2.66e-4 1.71854,-0.224837 3.27076,-0.499049 z m 81.324003,-0.405379 c 0.18923,-0.497701 0.34405,-0.973951 0.34405,-1.058333 0,-0.08438 -1.70657,-0.159258 -3.79236,-0.16639 -2.0858,-0.0071 -4.863933,-0.220376 -6.173623,-0.473877 -1.30968,-0.2535 -2.38125,-0.34017 -2.38125,-0.192599 0,0.669228 7.742453,2.711955 10.503873,2.771287 0.92696,0.01992 1.22325,-0.154008 1.49931,-0.880088 z m 17.24848,0.508024 c 3.72861,-0.637323 4.2162,-1.138958 2.82552,-2.906928 -1.05584,-1.342276 -1.88949,-1.160108 -4.05246,0.885543 -2.73248,2.584268 -2.66985,2.687455 1.22694,2.021385 z m -9.98534,-9.090547 c 7.12144,-6.885457 7.86326,-8.14982 3.4442,-5.870322 -5.87894,3.032551 -16.23758,4.157913 -23.177973,2.518055 -2.49998,-0.590689 -2.5346,-0.541997 -2.19457,3.086659 0.22976,2.451807 0.97837,4.261598 1.78008,4.303364 0.19403,0.01011 0.96113,0.149285 1.70467,0.309281 2.33721,0.502922 6.640083,0.841504 9.976923,0.785058 l 3.21493,-0.05438 z m -83.792543,4.514255 c 3.45241,-0.450468 4.35857,-0.91992 4.84654,-2.510854 0.47679,-1.554522 0.72008,-4.719138 0.40231,-5.233293 -0.19459,-0.314855 -0.87743,-0.302202 -2.85653,0.05293 -1.43045,0.256682 -4.82331,0.460268 -7.5397,0.452412 -5.74385,-0.01661 -9.47199,-0.767023 -13.84227,-2.786217 -1.4814503,-0.68447 -2.8623603,-1.182794 -3.0686903,-1.107385 -0.20633,0.07541 1.24091,1.730306 3.2161003,3.677549 1.97519,1.947243 3.65334,3.478357 3.72922,3.402476 0.0759,-0.07588 1.07919,0.888932 2.22958,2.144031 l 2.09162,2.281998 3.91265,0.0067 c 2.15196,0.0037 5.24759,-0.16747 6.87917,-0.380357 z m 0.67345,-11.976808 c 3.15078,-0.500294 7.47201,-1.846029 12.32107,-3.837081 2.24571,-0.922096 5.46788,-2.107343 7.1604,-2.633881 2.87965,-0.895853 4.20045,-1.626272 2.94074,-1.626272 -0.30249,0 -0.54999,-0.130632 -0.54999,-0.290292 0,-0.15966 -1.14188,-0.826046 -2.53752,-1.480858 -1.39564,-0.654811 -3.1022,-1.762187 -3.79236,-2.460834 -1.09897,-1.112481 -1.75053,-1.391049 -5.24538,-2.242619 -2.19479,-0.534792 -6.34424,-1.740994 -9.221,-2.680449 -5.37453,-1.755143 -14.47216,-5.506516 -14.89599,-6.142298 -0.34034,-0.510543 -2.4016,-0.600499 -2.30756,-0.100705 0.0419,0.22275 -0.12223,0.365313 -0.36477,0.316806 -0.24253,-0.04851 -0.40128,0.110243 -0.35278,0.352778 0.0485,0.242534 -0.14993,0.388055 -0.44097,0.323379 -0.29104,-0.06468 -0.41814,-0.0066 -0.28245,0.129126 0.1357,0.135695 -0.59117,1.299861 -1.61527,2.587037 -5.8358503,7.335022 -7.1879303,13.878582 -3.4402303,16.649379 0.5923,0.437908 0.97023,0.969388 0.83983,1.181067 -0.1304,0.211679 0.18317,0.110057 0.69682,-0.225826 0.9117003,-0.596169 0.9953003,-0.581639 3.5141403,0.610785 1.41912,0.671815 3.45334,1.364633 4.5205,1.539595 2.72643,0.447005 10.31969,0.465134 13.05277,0.03116 z m 78.845833,-0.162922 c 2.8674,-0.603918 4.08333,-1.053043 5.90202,-2.180009 1.55062,-0.960859 1.6827,-0.983328 1.6827,-0.286248 0,0.704334 0.22307,0.669574 1.48932,-0.232077 3.42781,-2.440814 2.9478,-7.881167 -1.26472,-14.334347 -1.80807,-2.769781 -5.36137,-6.77663 -6.00957,-6.77663 -0.22952,0 -2.07773,0.838772 -4.10714,1.863939 -4.59496,2.321168 -13.442233,5.302862 -22.210663,7.485405 -4.73649,1.178954 -4.96996,1.268982 -5.32783,2.054419 -0.21717,0.476633 -1.45323,1.306885 -3.16297,2.124534 -1.54357,0.738184 -2.72501,1.473996 -2.62542,1.635139 0.0996,0.161142 -0.139,0.209283 -0.53021,0.10698 -0.52392,-0.137008 -0.65858,-0.04866 -0.5112,0.335411 0.11005,0.286779 1.18397,0.793844 2.3865,1.126812 1.20252,0.332967 5.3614,1.846055 9.24196,3.362416 6.18463,2.416702 9.70093,3.512244 12.87639,4.011784 2.32545,0.365824 9.900473,0.180645 12.170833,-0.297528 z M 65.717597,54.364714 c -0.15427,-0.339549 -0.65691,-1.450799 -1.11698,-2.469444 -0.76391,-1.691364 -0.93757,-1.852084 -2.00121,-1.852084 -0.89828,0 -1.1647,0.149375 -1.1647,0.653014 0,0.359157 -0.39688,1.399432 -0.88195,2.311722 -0.48507,0.91229 -0.88194,1.729684 -0.88194,1.816431 0,0.08675 1.42363,0.157722 3.16363,0.157722 2.88465,0 3.1389,-0.05444 2.88315,-0.617361 z m -8.70045,-3.254534 c 0.50549,-0.558561 0.69376,-1.696493 0.94846,-5.732638 0.17478,-2.769659 0.55527,-6.531602 0.84553,-8.359874 0.42658,-2.686984 0.44121,-3.37897 0.0763,-3.610238 -0.24826,-0.157358 -0.61013,-0.240614 -0.80416,-0.185014 -0.96097,0.275377 -6.64877,12.73948 -7.05194,15.453438 l -0.22933,1.543721 2.05314,0.76456 c 2.60333,0.969448 3.37747,0.992893 4.16196,0.126045 z m 14.99843,0.283282 c 0.001,-0.130474 0.57711,-0.426878 1.27947,-0.658676 1.24908,-0.412234 1.27241,-0.453339 1.06654,-1.879442 -0.26852,-1.860077 -2.2422,-7.124382 -4.08139,-10.886113 -1.38341,-2.829503 -2.87389,-4.859376 -3.5681,-4.859376 -0.43854,0 -0.43048,1.535366 0.0205,3.913549 0.19747,1.041251 0.51889,4.595106 0.71427,7.897455 0.28325,4.787634 0.46902,6.089729 0.91681,6.426016 0.57665,0.433055 3.64747,0.472229 3.65187,0.04659 z m 7.05801,-4.701664 c 0,-0.09701 -0.0794,-0.176389 -0.17638,-0.176389 -0.097,0 -0.17639,0.07937 -0.17639,0.176389 0,0.09701 0.0794,0.176389 0.17639,0.176389 0.097,0 0.17638,-0.07937 0.17638,-0.176389 z m -2.82222,-0.352778 c 0,-0.09701 -0.0794,-0.176389 -0.17639,-0.176389 -0.097,0 -0.17639,0.07937 -0.17639,0.176389 0,0.09701 0.0794,0.176389 0.17639,0.176389 0.097,0 0.17639,-0.07937 0.17639,-0.176389 z m 3.3444,-1.038996 c 1.16032,-0.472637 2.1646,-1.024096 2.23172,-1.225465 0.13556,-0.406673 -1.31777,-3.232016 -1.87195,-3.639164 -0.19403,-0.14255 -0.2413,-0.261612 -0.10504,-0.264583 0.13626,-0.003 -0.13858,-0.422249 -0.61075,-0.931729 -0.47217,-0.509479 -0.75756,-1.089632 -0.63421,-1.289229 0.12554,-0.203121 0.0528,-0.256892 -0.16529,-0.122126 -0.38768,0.239597 -1.35653,-1.10209 -1.19675,-1.65729 0.046,-0.159943 -0.0606,-0.201622 -0.23699,-0.09262 -0.17636,0.109002 -1.20685,-0.752323 -2.28996,-1.914056 -1.08311,-1.161733 -2.13336,-2.112242 -2.3339,-2.112242 -0.20054,0 -0.36461,-0.185208 -0.36461,-0.411574 0,-0.226365 -0.10446,-0.307118 -0.23213,-0.179449 -0.12766,0.127668 -0.42504,0.07201 -0.66084,-0.123679 -0.44712,-0.371081 -1.57648,-0.115712 -1.57648,0.356472 0,0.149511 0.23813,0.469465 0.52917,0.711008 0.29104,0.241543 0.52917,0.662839 0.52917,0.936212 0,0.273374 0.2302,0.585378 0.51155,0.693343 0.48113,0.184629 3.91357,6.765181 5.45236,10.453083 0.38456,0.921632 0.74781,1.674959 0.80722,1.674061 0.0594,-8.99e-4 1.05739,-0.388337 2.21771,-0.860974 z m -30.10175,-1.891009 c 0.57754,-1.298914 1.30057,-2.917286 1.60674,-3.596383 1.25482,-2.783226 3.71347,-6.69355 4.07007,-6.473163 0.21294,0.131603 0.27316,0.06631 0.13902,-0.150731 -0.13016,-0.2106 -0.0753,-0.482622 0.12188,-0.604494 0.4363,-0.269648 0.45308,-0.895589 0.0414,-1.545435 -0.24662,-0.389305 -0.74404,-0.252125 -2.55224,0.703864 -2.69027,1.422334 -9.3398,7.82214 -10.49769,10.103461 l -0.76354,1.504335 0.97988,0.362406 c 3.27123,1.209862 4.01576,1.519114 4.13956,1.719435 0.0759,0.122846 0.48157,0.249234 0.90143,0.280861 0.62109,0.04678 0.95913,-0.382722 1.81347,-2.304156 z m 14.37205,-0.1568 c -0.0493,-2.854516 -0.73692,-6.703429 -1.22604,-6.862594 -0.2102,-0.0684 -0.39223,0.07848 -0.40452,0.326406 -0.0123,0.247924 -0.1962,1.879522 -0.40868,3.625771 -0.61563,5.059388 -0.60642,5.115278 0.8426,5.115278 h 1.23472 z m 28.61308,-1.165871 c 2.23132,-0.651172 5.23516,-1.587717 6.6752,-2.08121 2.914233,-0.998687 10.975903,-4.371873 11.433863,-4.784182 0.273,-0.24579 -1.42434,-2.111097 -1.921,-2.111097 -0.12282,0 -1.87069,0.539188 -3.88416,1.198197 -5.005563,1.638322 -10.862963,2.895432 -16.502993,3.541859 -2.60055,0.298059 -4.80183,0.615491 -4.89174,0.705404 -0.0899,0.08991 0.48999,1.142057 1.28867,2.338098 0.79869,1.19604 1.45216,2.327892 1.45216,2.515226 0,0.42953 1.21192,0.177166 6.35,-1.322295 z m -53.14966,-1.215853 c 0.90426,-1.164427 1.64411,-2.248237 1.64411,-2.408466 0,-0.16023 -1.54782,-0.487708 -3.43959,-0.72773 -5.47575,-0.694746 -16.62563,-3.61292 -17.99035,-4.708482 -0.31425,-0.252274 -0.83401,-0.01391 -1.82222,0.835686 -0.76041,0.653748 -1.396,1.362233 -1.41242,1.57441 -0.068,0.877961 17.95077,7.452165 20.63922,7.530299 0.4965,0.01443 1.27386,-0.669713 2.38125,-2.095717 z m -27.63645,-2.998137 c 0,-0.09701 -0.0794,-0.176389 -0.17639,-0.176389 -0.097,0 -0.17638,0.07937 -0.17638,0.176389 0,0.09701 0.0794,0.176389 0.17638,0.176389 0.097,0 0.17639,-0.07937 0.17639,-0.176389 z m 33.18577,-3.384201 c 0.66553,-0.60013 1.51799,-1.310853 1.89434,-1.579385 0.37635,-0.268532 0.60171,-0.570797 0.50081,-0.671699 -0.1009,-0.100902 -2.63133,-0.421718 -5.62316,-0.712923 -6.29002,-0.61223 -15.47085,-2.321865 -19.10354,-3.557423 -1.38112,-0.469749 -2.5627,-0.85409 -2.62573,-0.85409 -0.063,0 -0.1146,0.605767 -0.1146,1.34615 0,1.190561 0.15291,1.430542 1.32292,2.076306 2.22311,1.226998 6.37815,2.481075 11.37708,3.433839 10.2506,1.953696 10.75748,1.974969 12.37188,0.519225 z m 42.90797,0.549157 c 8.63262,-1.123843 18.257243,-3.554807 19.967123,-5.043251 0.80988,-0.704998 0.72199,-3.138065 -0.10531,-2.915377 -0.29104,0.07834 -1.75099,0.507238 -3.24434,0.953103 -6.221923,1.857661 -15.605083,3.42799 -23.262033,3.893041 -2.10788,0.128024 -3.82083,0.327966 -3.80654,0.444316 0.0143,0.11635 0.81391,0.886233 1.77694,1.710851 2.04327,1.749598 2.33828,1.782156 8.67416,0.957317 z m -21.75755,-5.106745 c 3.39228,-1.730613 1.4156,-5.721564 -2.83383,-5.721564 -1.71992,0 -5.07687,1.331472 -4.73826,1.879345 0.0936,0.151452 -0.0583,0.404187 -0.33744,0.561633 -0.78232,0.441173 0.18759,2.40368 1.61936,3.276609 1.5612,0.951842 4.42864,0.953655 6.29017,0.004 z m -13.39108,-1.065597 c 1.94001,-0.979314 3.2676,-2.459997 2.70768,-3.019919 -0.11345,-0.113448 -2.7983,-0.43247 -5.96634,-0.70894 -11.44979,-0.999204 -21.29633,-2.755128 -26.46425,-4.719343 -1.03047,-0.39166 -2.06483,-0.71219 -2.29857,-0.712288 -0.87931,-3.68e-4 -1.18241,4.760346 -0.30997,4.868491 0.2102,0.02606 1.79859,0.532612 3.52976,1.125681 4.26454,1.460958 8.89575,2.3415 17.48991,3.325402 9.37208,1.072961 8.85675,1.080209 11.31178,-0.159084 z m 33.491,0.154037 c 6.67166,-0.788719 10.28753,-1.452144 15.522223,-2.847953 5.30617,-1.414869 6.70278,-1.996579 6.70278,-2.791817 0,-0.851153 -0.76557,-3.670385 -1.04332,-3.842042 -0.13804,-0.08531 -1.4282,0.244886 -2.86702,0.733775 -6.747513,2.292692 -16.598873,4.085222 -26.041593,4.738464 -7.67939,0.531257 -7.86262,0.566959 -7.729,1.505934 0.0673,0.472653 0.86499,1.293155 2.05037,2.108904 l 1.94028,1.335248 3.52778,-0.2096 c 1.94028,-0.11528 5.51215,-0.444191 7.9375,-0.730913 z M 9.2851667,25.487083 c 0.18233,-0.112691 0.67964,-0.249888 1.1051103,-0.304882 1.52527,-0.197146 3.9604,-0.947036 4.59231,-1.414184 0.40306,-0.297964 0.74235,-1.179519 0.90755,-2.35799 0.14511,-1.035164 0.61315,-2.557631 1.04009,-3.383261 0.69894,-1.351629 0.72697,-1.597588 0.28147,-2.469444 -0.27214,-0.532565 -0.59865,-1.451244 -0.7256,-2.041509 -0.64752,-3.010938 3.91275,-15.3207748 6.5377,-17.6476348 l 0.7693,-0.681932 -0.23384,1.763889 c -0.12862,0.970139 -0.96106,4.700764 -1.84986,8.290277 -0.88881,3.589514 -1.61098,7.1266608 -1.60481,7.8603278 0.0179,2.136505 1.17756,3.622144 3.51175,4.499061 4.18159,1.570955 12.17393,3.158555 20.17948,4.008456 l 4.7625,0.505606 0.88194,-1.107976 c 0.48507,-0.609386 1.71538,-2.023284 2.73403,-3.141994 1.01865,-1.11871 1.85208,-2.167159 1.85208,-2.329887 0,-0.162727 -0.75406,-1.077095 -1.67569,-2.031929 -0.92163,-0.954833 -2.70757,-2.982301 -3.96875,-4.5054828 -1.26118,-1.523183 -2.80531,-3.348632 -3.4314,-4.056553 -0.62609,-0.707921 -1.14202,-1.420432 -1.14653,-1.583359 -0.005,-0.162926 -0.32584,-0.559801 -0.71408,-0.881944 -0.38825,-0.322143 -2.8285,-3.831942 -5.42278,-7.799555 l -4.71687,-7.2138402 -2.84424,-0.611866 c -1.56433,-0.336526 -4.75603,-1.17811 -7.09267,-1.870187 -2.33664,-0.692076 -4.46721,-1.25832 -4.73459,-1.25832 -1.13087,0 -6.7812,6.9144512 -8.2219,10.0613562 -0.7318403,1.598566 -0.8302803,2.139668 -0.5404603,2.97103 0.27835,0.798474 0.19412,1.458234 -0.39273,3.07607998 -0.41089,1.132773 -0.83431,2.14033902 -0.94094,2.23903402 -1.7162,1.588554 -1.8576,1.999052 -1.3972,4.056339 0.74341,3.321894 -0.27895,6.8442958 -3.30308,11.3803308 -1.80139,2.701978 -4.37943,4.617049 -7.56883,5.622419 -1.02271,0.32238 -1.85947,0.71147 -1.85947,0.864644 0,0.371823 3.22244,1.290612 5.83456,1.663561 2.17769,0.310922 8.81317,0.191805 9.39645,-0.168681 z M 11.340267,10.552898 c 0,-0.5706318 -0.1398,-1.1239108 -0.31066,-1.2295078 -0.17086,-0.105598 -0.39372,-0.551529 -0.49524,-0.990959 -0.10152,-0.43943 -0.33993,-1.288442 -0.5298,-1.886695 -0.2701203,-0.851115 -0.2408603,-1.087731 0.13452,-1.087731 0.27734,0 0.71525,0.810112 1.03794,1.920141 0.73631,2.532805 0.94835,4.3122658 0.51385,4.3122658 -0.19284,0 -0.35061,-0.466881 -0.35061,-1.037514 z M 127.60394,25.683626 c 1.15129,-0.203871 3.35871,-0.784234 4.90537,-1.289696 l 2.81211,-0.919022 -1.22461,-0.524979 c -4.39127,-1.882501 -5.91939,-2.812874 -8.23875,-5.016035 -3.9122,-3.716207 -6.41787,-8.5965618 -6.28533,-12.2420768 0.0404,-1.109829 -0.22031,-1.930362 -1.02388,-3.223025 -0.5929,-0.953784 -1.28697,-2.34198402 -1.54237,-3.08489002 -0.47877,-1.39265998 -1.244,-2.03981498 -1.244,-1.05205398 0,0.307211 -0.15875,0.558565 -0.35278,0.558565 -0.46753,0 -0.48517,0.11463698 0.56457,-3.669343 0.89366,-3.221354 0.90153,-3.340099 0.30469,-4.597834 -0.33696,-0.7100932 -1.81806,-2.4886872 -3.29133,-3.9524312 -3.12146,-3.101285 -2.69898,-3.053579 -9.03621,-1.02037 -2.13047,0.683528 -4.629823,1.343098 -5.554133,1.465712 -1.60546,0.212972 -1.74868,0.327325 -3.20499,2.559017 -0.83844,1.2848456 -2.13957,3.3679582 -2.89139,4.6291382 -2.03145,3.407713 -7.76236,12.03346 -8.70337,13.099674 -0.45088,0.510862 -1.69206,2.04404 -2.75817,3.4070618 -1.06611,1.363021 -2.09799,2.388029 -2.29306,2.277794 -0.19506,-0.110235 -0.24029,-0.07383 -0.1005,0.08089 0.13979,0.154727 -0.0432,0.696116 -0.40663,1.203087 -1.27812,1.782907 -4.38763,5.154105 -4.67359,5.066904 -0.15907,-0.04851 -0.24953,0.110243 -0.20102,0.352777 0.0485,0.242535 -0.12205,0.397352 -0.379,0.344038 -0.25696,-0.05331 -0.38167,0.04145 -0.27713,0.210599 0.10454,0.169144 -0.27489,0.752995 -0.84318,1.297447 -1.14425,1.096263 -1.10622,1.639055 0.0956,1.364488 1.07348,-0.245243 7.65821,-1.027637 12.69629,-1.508564 5.19962,-0.496348 12.11014,-1.851827 16.528723,-3.242062 6.2997,-1.982099 6.95956,-3.733041 4.77308,-12.6652498 -1.15106,-4.70232402 -2.33985,-10.770154 -2.34257,-11.956979 -0.003,-1.256619 3.66638,4.664626 5.1086,8.243965 0.94493,2.345132 2.65027,9.0979978 2.65084,10.4968468 3e-4,0.723677 -0.26037,1.967862 -0.57927,2.764854 -0.54266,1.356244 -0.5402,1.531851 0.0384,2.741166 0.34001,0.71065 0.80739,2.24459 1.03861,3.408757 0.40069,2.017399 0.49576,2.154493 2.02723,2.923248 3.1815,1.597025 9.44283,2.258404 13.90313,1.468578 z M 60.023597,23.761244 c 0,-0.09701 -0.0794,-0.176389 -0.17639,-0.176389 -0.097,0 -0.17639,0.07937 -0.17639,0.176389 0,0.09701 0.0794,0.176389 0.17639,0.176389 0.097,0 0.17639,-0.07938 0.17639,-0.176389 z m -0.52917,-1.05243 c 2.69869,-0.954005 3.9536,-1.070584 5.80588,-0.539357 1.41487,0.40578 1.11752,0.679653 8.23037,-7.580434 2.33911,-2.716389 4.38442,-4.9918048 4.54514,-5.0564808 0.16072,-0.06468 0.29222,-0.29257 0.29222,-0.50643 0,-0.21386 0.29705,-0.716569 0.66011,-1.11713 2.23902,-2.470289 12.74544,-18.9622092 12.74544,-20.0065132 0,-0.392531 0.0934,-0.400405 -4.40972,0.371879 -2.1343,0.366035 -5.10601,0.774356 -6.60379,0.907379 -2.66099,0.236333 -2.74125,0.271433 -3.51169,1.5356907 -2.94199,4.8276495 -17.08553,23.2504813 -21.4291,27.9127263 -0.9861,1.05845 -1.79292,2.060006 -1.79292,2.225681 0,0.165674 -0.1407,0.214267 -0.31267,0.107985 -0.30384,-0.187788 -0.85335,1.219837 -0.58209,1.491098 0.0746,0.07457 0.98109,0.341764 2.01448,0.593757 1.03339,0.251994 1.87889,0.475033 1.87889,0.495643 0,0.02061 1.11125,-0.355362 2.46945,-0.835494 z M -5.7369433,21.104223 c 2.77543,-0.954888 4.42645,-2.095018 6.10036,-4.212665 1.87373,-2.370443 4.02126,-8.8289238 2.93574,-8.8289238 -0.15399,0 -1.5872,1.591108 -3.1849,3.5357958 -3.73504,4.546225 -7.61411,7.437782 -11.7927397,8.790623 -1.29109,0.417992 -1.56505,0.71941 -1.08773,1.196728 0.5209,0.520899 5.0093197,0.213409 7.0292697,-0.481558 z M 136.57637,20.477765 c 0,-0.344377 -3.05551,-2.537354 -3.53533,-2.537354 -0.36956,0 -4.81212,-4.3513 -7.47367,-7.320138 -0.91321,-1.0186458 -1.74664,-1.8520828 -1.85208,-1.8520828 -0.45579,0 -0.11551,1.2934898 0.90008,3.4214648 1.8339,3.842586 5.13417,6.441322 10.3735,8.168409 1.36271,0.449204 1.5875,0.466153 1.5875,0.119701 z M -13.001403,17.861374 c 3.2097297,-1.256454 5.7566297,-2.686647 7.4083297,-4.16009 1.12844,-1.006648 1.15881,-1.081543 0.35278,-0.870045 -6.5307997,1.713658 -6.3731397,1.693576 -10.1208597,1.289119 -2.44317,-0.263669 -4.51297,-0.74213 -6.46212,-1.493802 -1.57721,-0.608235 -2.93729,-1.036242 -3.0224,-0.951127 -0.2454,0.245394 1.63771,2.878228 3.43451,4.801912 2.92659,3.133257 3.6409,3.250814 8.40976,1.384033 z m 157.041683,0.329632 c 1.40996,-1.075417 5.72352,-5.87798 5.48958,-6.111916 -0.0569,-0.05694 -1.52634,0.389756 -3.26532,0.992667 -2.75209,0.954158 -3.64176,1.096743 -6.86595,1.100371 -2.80021,0.0032 -4.24224,-0.173195 -5.90903,-0.722615 -3.04835,-1.004819 -2.8705,-0.256902 0.48843,2.054107 1.89028,1.300544 7.11865,3.8245 7.95081,3.838194 0.32447,0.0053 1.27463,-0.512524 2.11148,-1.150808 z m -88.426413,0.454961 c 0.11992,-0.194028 0.13866,-0.352778 0.0416,-0.352778 -0.097,0 -0.2745,0.15875 -0.39441,0.352778 -0.11992,0.194028 -0.13866,0.352778 -0.0416,0.352778 0.097,0 0.2745,-0.15875 0.39441,-0.352778 z m 2.14993,-7.320138 c 0.74414,-0.921632 1.66068,-1.9535068 2.03676,-2.2930558 0.37607,-0.339548 0.57137,-0.617361 0.43399,-0.617361 -0.13738,0 0.39654,-0.902584 1.18649,-2.005741 l 1.43628,-2.005742 -0.99666,-1.081064 c -1.2092,-1.311608 -2.78418,-3.44499702 -2.8306,-3.83420502 -0.0186,-0.156033 -0.34649,-0.55290798 -0.72861,-0.88194398 -0.74182,-0.63877 -5.89537,-6.859853 -6.75756,-8.157365 -0.42677,-0.6422482 -1.12689,-0.8652852 -4.0439,-1.2882612 -7.23557,-1.049182 -9.37444,-1.298551 -9.55857,-1.114427 -0.10401,0.104007 0.2977,1.051674 0.89269,2.1059269 0.59498,1.0542526 1.00227,2.0227983 0.90508,2.1523233 -0.0972,0.129525 -0.0799,0.165112 0.0385,0.07908 0.11837,-0.08603 1.09494,1.144282 2.17017,2.734028 1.07522,1.589745 2.804,4.03984898 3.84172,5.44467498 1.03773,1.40482502 1.88678,2.63513802 1.88678,2.73402702 0,0.09889 0.32502,0.536987 0.72226,0.97355 1.46163,1.60631 2.03459,2.271606 4.70913,5.468055 1.50172,1.7947558 2.85925,3.2631938 3.01673,3.2631938 0.15748,0 0.89518,-0.754063 1.63931,-1.675694 z m 22.01535,0.264583 c 0,-0.194028 -0.16812,-0.352778 -0.3736,-0.352778 -0.20548,0 -0.27548,0.15875 -0.15557,0.352778 0.11992,0.194028 0.28804,0.352778 0.3736,0.352778 0.0856,0 0.15557,-0.15875 0.15557,-0.352778 z M -7.3569533,10.2481 c 2.81302,-0.6535818 5.63724,-1.9688368 7.00701,-3.2631968 0.67533,-0.638159 0.79966,-1.039041 0.65553,-2.113631 -0.15937,-1.188174 -0.0319,-1.467277 1.22496,-2.683344 3.30803,-3.200509 3.71737,-7.098514 0.91904,-8.751529 -1.24498,-0.735431 -3.78713,-0.584882 -5.55424,0.328928 -1.11525,0.576714 -1.40393,0.340813 -0.63633,-0.519983 0.37514,-0.420697 0.34881,-0.424781 -0.17639,-0.02736 -0.33955,0.256935 -0.62912,0.646154 -0.64348,0.864931 -0.0144,0.218777 -0.90755,1.090079 -1.98485,1.936228 l -1.95874,1.538451 0.83833,-1.513863 c 1.17239,-2.117135 4.08409,-4.981119 5.8654,-5.7692983 1.86213,-0.8239349 1.96075,-1.7386339 0.41892,-3.8855859 -1.7408,-2.424024 -3.46113,-3.200971 -7.0335,-3.176518 -4.2033297,0.02877 -6.9335397,1.301074 -11.6100297,5.41038 -0.46767,0.410949 -0.90707,0.690417 -0.97645,0.62104 -0.60626,-0.606261 4.23341,-5.705806 6.32156,-6.661009 0.73577,-0.336572 0.91526,-0.611899 0.75057,-1.151367 -0.3284,-1.075768 -0.89786,-1.652524 -2.14723,-2.174772 -2.6675,-1.115031 -5.65767,-0.174447 -8.50856,2.676441 -5.30467,5.304672 -6.51981,14.6601772 -2.80863,21.6240222 1.96218,3.681917 4.35049,5.540364 8.74822,6.8073458 2.33091,0.671534 8.15632,0.611515 11.2888897,-0.11631 z M 143.92671,10.34023 c 4.01223,-1.1915038 6.6731,-3.4340098 8.37156,-7.0553138 2.82624,-6.025837 2.42014,-14.5407632 -0.92466,-19.3875572 -2.24906,-3.259015 -4.99871,-5.115278 -7.57716,-5.115278 -1.37803,0 -2.30608,0.391322 -3.7256,1.570945 -1.16506,0.968156 -0.87708,1.91093 0.90485,2.962294 0.70752,0.417447 1.18949,0.915798 1.07104,1.107448 -0.12158,0.196733 0.0141,0.260414 0.31157,0.146254 0.62797,-0.240972 3.74306,2.732084 3.74306,3.57239 0,0.490119 -0.0873,0.497286 -0.71369,0.05857 -0.39252,-0.274936 -1.30408,-1.038 -2.02569,-1.695698 -1.60169,-1.459852 -5.20017,-2.952188 -7.9313,-3.289215 -2.76406,-0.341089 -5.36833,0.437849 -7.10593,2.12538 -2.45838,2.387552 -2.59127,3.939662 -0.4273,4.9909957 1.86616,0.9066553 4.49916,3.2479733 4.19892,3.7337753 -0.11833,0.191453 -0.0454,0.243204 0.16202,0.115002 0.20743,-0.128201 0.70821,0.302571 1.11284,0.957272 0.83842,1.356603 0.99637,2.237488 0.29471,1.643622 -1.78474,-1.510556 -2.42306,-1.930816 -4.09294,-2.694753 -3.86265,-1.767089 -6.42801,-1.397874 -7.61116,1.095426 -0.91901,1.936661 -0.0918,4.38579598 2.2654,6.707235 1.63797,1.61312 1.77522,1.872722 1.6058,3.037171 -0.13251,0.910736 -0.0106,1.468369 0.42834,1.958437 1.00084,1.117563 3.15428,2.27763 5.84734,3.14998 3.12943,1.013703 8.9286,1.163672 11.81798,0.305618 z M 47.676367,6.8279122 c 0,-0.09701 -0.0794,-0.176389 -0.17638,-0.176389 -0.097,0 -0.17639,0.07938 -0.17639,0.176389 0,0.09701 0.0794,0.176389 0.17639,0.176389 0.097,0 0.17638,-0.07937 0.17638,-0.176389 z m -0.70555,-0.705555 c 0,-0.09701 -0.0794,-0.176389 -0.17639,-0.176389 -0.097,0 -0.17639,0.07938 -0.17639,0.176389 0,0.09701 0.0794,0.176389 0.17639,0.176389 0.097,0 0.17639,-0.07937 0.17639,-0.176389 z m 1.29352,-1.11713 c -0.12935,-0.129352 -0.23519,-0.02352 -0.23519,0.235185 0,0.258704 0.10584,0.364537 0.23519,0.235185 0.12935,-0.129351 0.12935,-0.341018 0,-0.47037 z m -1.99908,0.0588 c 0,-0.09701 -0.0794,-0.176388 -0.17639,-0.176388 -0.097,0 -0.17638,0.07937 -0.17638,0.176388 0,0.09701 0.0794,0.176389 0.17638,0.176389 0.097,0 0.17639,-0.07937 0.17639,-0.176389 z M -66.149923,0.15325718 c 1.411829,-3.16186898 5.958052,-10.03330318 9.121282,-13.78645418 2.730275,-3.239454 9.072965,-9.562639 13.511968,-13.470414 4.18494,-3.684125 8.44043,-7.201695 8.99583,-7.435919 0.29104,-0.122739 1.89917,-1.620587 3.57362,-3.328552 1.67445,-1.707965 3.19727,-3.105391 3.38403,-3.105391 0.18677,0 0.63357,-0.545914 0.9929,-1.213143 0.35932,-0.667229 0.76731,-1.142697 0.90662,-1.056594 0.13932,0.0861 0.21196,-0.220049 0.16144,-0.680335 -0.0868,-0.791113 -1.45206,-2.908848 -2.66558,-4.134881 -0.52727,-0.53271 -1.75224,-0.786084 -1.70555,-0.352778 0.0689,0.639267 -0.11833,0.774073 -0.56278,0.40521 -0.41392,-0.343523 -0.46578,-0.279879 -0.29721,0.364747 0.14066,0.537866 0.0771,0.702341 -0.20414,0.528508 -0.22782,-0.140798 -0.41883,-0.04821 -0.43206,0.209419 -0.0218,0.424503 -4.25581,4.165958 -4.71441,4.165958 -0.11042,0 -0.20077,-0.174077 -0.20077,-0.386838 0,-0.534975 2.83422,-3.690598 3.21709,-3.581911 0.17088,0.04851 0.271,-0.110243 0.22249,-0.352778 -0.0509,-0.254531 0.18779,-0.393708 0.56457,-0.329183 0.40674,0.06966 0.5615,-0.03589 0.4106,-0.280037 -0.29537,-0.477929 0.47707,-1.489983 0.92563,-1.212757 0.17685,0.1093 0.29241,0.06786 0.2568,-0.09208 -0.0356,-0.159943 0.0538,-0.56085 0.19877,-0.890904 0.177,-0.403096 -0.0531,-1.01515 -0.70081,-1.864395 -0.53038,-0.695362 -1.06441,-1.219067 -1.18674,-1.163789 -0.65572,0.296314 -4.85231,2.95295 -9.17308,5.806982 -2.695335,1.780368 -4.994667,3.16943 -5.109629,3.086805 -0.114963,-0.08263 -0.128832,-0.04358 -0.03082,0.08677 0.09801,0.13035 -0.502536,0.725662 -1.334551,1.322916 -0.832016,0.597254 -2.203276,1.641542 -3.047246,2.320639 -0.84397,0.679097 -1.672171,1.195034 -1.840448,1.146527 -0.168277,-0.04851 -0.266271,0.110243 -0.217764,0.352778 0.04851,0.242535 -0.110243,0.401285 -0.352777,0.352778 -0.242535,-0.04851 -0.401285,0.110243 -0.352778,0.352778 0.04851,0.242534 -0.110243,0.401284 -0.352778,0.352777 -0.242535,-0.04851 -0.401285,0.05468 -0.352778,0.229306 0.04851,0.174625 -0.04081,0.324268 -0.198476,0.33254 -0.15767,0.0083 -0.669708,0.460709 -1.137863,1.005416 -0.468155,0.544708 -1.817877,2.101627 -2.999381,3.459821 -4.505904,5.179746 -7.265494,10.292613 -8.531664,15.807156 -0.580984,2.530357 -0.750966,4.482985 -0.773664,8.8872872 -0.02886,5.599654 0.338333,10.415681 0.79274,10.397459 0.130077,-0.0052 0.687792,-1.020168 1.239367,-2.25544902 z m 29.15963,-42.71423018 c 0,-0.09701 0.0794,-0.176389 0.17639,-0.176389 0.097,0 0.17639,0.07937 0.17639,0.176389 0,0.09701 -0.0794,0.176389 -0.17639,0.176389 -0.097,0 -0.17639,-0.07938 -0.17639,-0.176389 z M 65.908867,0.56610718 c 0.65185,-0.722036 3.30554,-4.52525298 4.16808,-5.97360898 0.19447,-0.326562 0.86953,-1.345967 1.50012,-2.265343 0.63059,-0.919377 1.14642,-1.8428147 1.1463,-2.0520844 -1.5e-4,-0.2593246 -2.64016,-0.4030388 -8.29028,-0.4512968 -8.76085,-0.07483 -9.20811,0.01256 -7.58449,1.4819174 0.38805,0.3511858 0.70555,0.7832568 0.70555,0.9601588 0,0.176902 0.39688,0.841969 0.88195,1.477928 0.48507,0.635959 0.88194,1.339742 0.88194,1.563962 0,0.22422 0.21869,0.407673 0.48597,0.407673 0.26728,0 0.70385,0.268598 0.97014,0.596885 0.41763,0.514853 0.41144,0.553904 -0.045,0.284142 -0.29104,-0.172009 0.0357,0.23408 0.72605,0.90242 0.69037,0.66834 1.7014,1.81047598 2.24673,2.53808098 0.54534,0.727604 1.10375,1.32291602 1.24093,1.32291602 0.13718,0 0.57188,-0.357187 0.96601,-0.79375002 z M 132.69581,-5.1665308 c 0,-0.09701 -0.0794,-0.176389 -0.17639,-0.176389 -0.097,0 -0.17639,0.07938 -0.17639,0.176389 0,0.09701 0.0794,0.176389 0.17639,0.176389 0.097,0 0.17639,-0.07938 0.17639,-0.176389 z m -1.41111,-1.058334 c 0,-0.09701 -0.0794,-0.176388 -0.17639,-0.176388 -0.097,0 -0.17639,0.07937 -0.17639,0.176388 0,0.09701 0.0794,0.176389 0.17639,0.176389 0.097,0 0.17639,-0.07938 0.17639,-0.176389 z M 9.7353367,-14.515141 c 1.7024903,-1.940278 3.2363203,-3.527778 3.4085103,-3.527778 0.89962,0 0.0782,-0.671403 -1.71539,-1.402203 -2.9300503,-1.193818 -8.2746903,-3.87496 -8.9979903,-4.513844 -0.91312,-0.806548 -1.04427,-0.38505 -0.42413,1.363101 0.32244,0.908925 0.51959,2.461944 0.47481,3.740122 -0.0715,2.040084 0.008,2.289394 1.19704,3.740075 0.70049,0.854859 1.5498,2.133442 1.88736,2.841296 0.33755,0.707855 0.71737,1.287008 0.84404,1.287008 0.12667,0 1.62326,-1.5875 3.32575,-3.527777 z m 111.4361333,0.710543 c 0.34223,-0.579339 1.1409,-1.448955 1.77483,-1.932479 1.11393,-0.849636 1.14752,-0.949444 1.00103,-2.974603 -0.10421,-1.440721 0.0179,-2.435215 0.39086,-3.182798 0.61962,-1.242059 0.20381,-1.443592 -1.09767,-0.532005 -0.43606,0.305429 -2.41496,1.264761 -4.39756,2.131848 -1.9826,0.867088 -3.76459,1.751731 -3.95997,1.965874 -0.24388,0.267308 -0.22744,0.317758 0.0525,0.16095 0.39948,-0.223796 5.06035,4.479787 5.06035,5.106726 0,0.637806 0.57421,0.274666 1.17566,-0.743513 z m 0.94101,0.876956 c 0,-0.09701 -0.0794,-0.176388 -0.17639,-0.176388 -0.097,0 -0.17639,0.07938 -0.17639,0.176388 0,0.09701 0.0794,0.176389 0.17639,0.176389 0.097,0 0.17639,-0.07938 0.17639,-0.176389 z m 21.87222,-1.411111 c 0,-0.09701 -0.0794,-0.176388 -0.17639,-0.176388 -0.097,0 -0.17639,0.07938 -0.17639,0.176388 0,0.09701 0.0794,0.176389 0.17639,0.176389 0.097,0 0.17639,-0.07938 0.17639,-0.176389 z m -71.966663,-0.872942 c 16.80563,-0.878961 32.752923,-4.746139 47.448613,-11.506171 5.76937,-2.653919 13.98956,-7.196381 18.27555,-10.099045 5.32331,-3.605186 11.58545,-9.660482 15.97305,-15.44545 7.05344,-9.299837 13.9486,-21.576844 18.27409,-32.537514 1.63604,-4.145692 4.86685,-14.406859 5.35055,-16.993535 l 0.25747,-1.3769 -1.18315,0.23664 c -1.53751,0.3075 -2.86614,1.60839 -3.75702,3.678599 -0.6783,1.576205 -0.88757,2.219917 -1.80152,5.541325 -1.08962,3.959837 -3.7078,11.74493 -5.14271,15.291743 -0.89068,2.201571 -1.51562,4.170787 -1.38877,4.376035 0.14593,0.236127 0.059,0.267128 -0.2366,0.08441 -0.34209,-0.211425 -0.40502,-0.12663 -0.23494,0.316593 0.12777,0.332949 0.0922,0.51877 -0.079,0.412937 -0.17124,-0.105832 -0.56444,0.44012 -0.87378,1.213228 -1.78919,4.471641 -7.36138,11.098455 -10.84843,12.901681 -0.55613,0.287582 -1.01114,0.67755 -1.01114,0.866595 0,0.189045 -0.20841,0.343718 -0.46314,0.343718 -0.25473,0 -1.31676,0.411797 -2.36006,0.915105 -1.04331,0.503307 -2.22396,0.975689 -2.62366,1.049736 -0.39971,0.07405 -1.44112,0.288163 -2.31425,0.475813 -0.87312,0.187649 -2.38125,0.441074 -3.35138,0.563165 -9.9113,1.24733 -11.36627,1.331222 -19.22639,1.108567 -16.688,-0.472723 -24.425223,-2.148932 -32.201293,-6.976167 -4.03205,-2.503014 -9.68222,-5.42302 -11.36676,-5.874338 -0.77611,-0.207934 -2.84292,-0.792688 -4.59291,-1.299454 -6.00354,-1.738521 -9.69588,-1.575767 -18.631,0.821232 -4.74279,1.272337 -6.70681,2.175111 -10.46637,4.810938 -3.90815,2.740008 -5.87323,3.820699 -8.81944,4.85024 -7.49447,2.618908 -12.47669,3.248191 -25.7527803,3.252729 -10.72369,0.0037 -14.27717,-0.253076 -20.1083297,-1.452845 -15.50362,-3.189886 -23.33433,-12.980444 -30.15242,-37.698885 -1.71174,-6.205762 -2.734981,-8.18333 -4.772577,-9.22372 -0.873125,-0.44581 -1.947712,-0.81504 -2.387971,-0.82051 -0.903046,-0.0112 -0.940375,-0.42979 0.471691,5.289217 4.291312,17.380253 17.183437,40.500409 29.524817,52.948489 6.69076,6.748605 13.2879597,11.281797 24.4705897,16.814701 18.7388403,9.271537 34.6989003,12.987967 57.6347503,13.420722 1.26118,0.0238 5.07118,-0.102035 8.46667,-0.279625 z m 74.436103,-40.049277 c 0,-0.09701 0.0794,-0.176389 0.17639,-0.176389 0.097,0 0.17639,0.07937 0.17639,0.176389 0,0.09701 -0.0794,0.176389 -0.17639,0.176389 -0.097,0 -0.17639,-0.07938 -0.17639,-0.176389 z m 2.11667,-1.058333 c 0,-0.09701 0.0794,-0.176389 0.17639,-0.176389 0.097,0 0.17639,0.07938 0.17639,0.176389 0,0.09701 -0.0794,0.176389 -0.17639,0.176389 -0.097,0 -0.17639,-0.07937 -0.17639,-0.176389 z m 8.14296,-4.740279 c 0.23053,-0.472849 0.55648,-1.028474 0.72433,-1.234723 0.16785,-0.206248 0.63048,-0.771872 1.02806,-1.256942 l 0.72288,-0.881944 -0.52804,1.058333 c -0.29042,0.582083 -0.94166,1.534583 -1.44721,2.116667 -0.78986,0.909452 -0.8602,0.937392 -0.50002,0.198609 z m 2.44037,-3.726387 c 0,-0.09701 0.0794,-0.176389 0.17639,-0.176389 0.097,0 0.17639,0.07937 0.17639,0.176389 0,0.09701 -0.0794,0.176389 -0.17639,0.176389 -0.097,0 -0.17639,-0.07937 -0.17639,-0.176389 z m -183.797203,45.50833 c 0,-0.09701 -0.0794,-0.176389 -0.17639,-0.176389 -0.097,0 -0.17639,0.07937 -0.17639,0.176389 0,0.09701 0.0794,0.176389 0.17639,0.176389 0.097,0 0.17639,-0.07938 0.17639,-0.176389 z m 22.2249897,-0.728748 c 0,-1.304273 -2.49261,-3.480715 -4.82743,-4.215105 -1.87995,-0.59132 -2.8200997,-0.50317 -4.2503597,0.398523 l -0.78751,0.496481 0.9639,1.393675 0.9639,1.393675 2.6458397,0.05513 c 1.45521,0.03032 3.12208,0.176312 3.70416,0.324427 1.4494,0.368809 1.5875,0.382136 1.5875,0.153197 z M 133.22498,-20.409623 c 2.5833,-0.177806 2.90435,-0.28535 3.79236,-1.270367 1.21522,-1.347967 1.20987,-1.512506 -0.0707,-2.174702 -1.23818,-0.640292 -3.77716,-0.684972 -4.81616,-0.08475 -1.53972,0.889471 -2.93951,2.330847 -3.17507,3.269389 -0.22607,0.900746 -0.18156,0.953559 0.60159,0.713705 0.46516,-0.142461 2.11574,-0.346434 3.66796,-0.453272 z M -2.4180733,-21.747085 c 0,-0.09701 -0.0794,-0.176389 -0.17639,-0.176389 -0.097,0 -0.17638,0.07937 -0.17638,0.176389 0,0.09701 0.0794,0.176389 0.17638,0.176389 0.097,0 0.17639,-0.07937 0.17639,-0.176389 z M -61.559433,-44.821451 c 7.272748,-4.637339 15.868815,-8.695963 25.71567,-12.141624 0.33955,-0.118817 0.61736,-0.346551 0.61736,-0.506075 0,-0.159525 -0.94205,-1.781906 -2.09345,-3.605293 l -2.09345,-3.315248 -5.932242,-0.06943 -5.932242,-0.06943 -4.46111,1.723378 c -2.45361,0.947857 -4.702569,1.723377 -4.997685,1.723377 -0.295116,0 -0.589492,0.119063 -0.654168,0.264584 -0.06467,0.145521 -2.939306,1.65501 -6.388068,3.35442 -9.291521,4.578486 -13.967355,7.624939 -11.788564,7.680622 0.419434,0.01072 3.747484,1.628114 6.417374,3.118772 0.776111,0.43332 2.522361,1.638608 3.880555,2.67842 1.358195,1.039811 2.664198,1.904654 2.90223,1.921873 0.238032,0.01722 2.401537,-1.224032 4.80779,-2.758337 z m 28.09692,-1.267299 c 0,-0.09701 -0.0794,-0.176389 -0.17639,-0.176389 -0.097,0 -0.17639,0.07937 -0.17639,0.176389 0,0.09701 0.0794,0.176389 0.17639,0.176389 0.097,0 0.17639,-0.07938 0.17639,-0.176389 z M 133.04859,-59.712257 c 5.49368,-0.591609 13.50221,-2.920358 16.08974,-4.678635 2.02363,-1.37509 5.33847,-4.729491 7.06927,-7.153629 3.15765,-4.422566 6.2119,-11.98781 9.11499,-22.577434 2.5607,-9.340685 4.96885,-12.596925 10.59189,-14.322075 l 2.58128,-0.79194 0.23303,-1.85749 c 0.27889,-2.22307 -0.0532,-7.77473 -0.59139,-9.88662 -0.45759,-1.79559 -0.81424,-2.0224 -4.01542,-2.55363 -1.34432,-0.22309 -3.98435,-0.71036 -5.86672,-1.08282 -4.20504,-0.83206 -12.43565,-1.93133 -18.09695,-2.41702 -5.50767,-0.47251 -24.95676,-0.47235 -30.1625,2.5e-4 -16.22593,1.47307 -29.959393,5.06793 -40.922223,10.71176 -2.61937,1.3485 -5.55594,2.85941 -6.5257,3.35758 -1.71213,0.87954 -1.95875,0.90577 -8.51469,0.90577 h -6.7515 l -6.83114,-3.42099 c -12.66849,-6.34431 -24.149,-9.61762 -39.99224,-11.40256 -6.4327703,-0.72473 -26.87545,-0.84451 -33.69027,-0.1974 -5.85256,0.55574 -15.28094,1.96535 -20.584729,3.07756 -2.357358,0.49434 -4.475724,0.90998 -4.707479,0.92365 -0.231755,0.0137 -0.397554,0.11744 -0.36844,0.23063 0.02911,0.11318 -0.219189,0.71646 -0.551783,1.34063 -0.73779,1.38457 -1.092065,6.3278 -0.699924,9.76608 l 0.277632,2.43426 2.152549,0.58836 c 5.357664,1.46444 9.145994,5.31801 10.889454,11.076978 1.09198,3.607034 1.94532,6.791115 2.18704,8.160579 0.10274,0.582083 0.80605,2.707048 1.5629,4.722144 0.75686,2.015096 1.37611,3.848628 1.37611,4.074515 0,0.225887 0.86303,2.157712 1.91784,4.292944 3.5803,7.247533 9.28793,12.435619 16.06153,14.599521 6.0818597,1.94292 8.3067997,2.195702 20.4734097,2.326054 12.1535103,0.13021 14.9166803,-0.0814 20.7427103,-1.588538 8.25975,-2.136717 13.48944,-5.736087 17.62911,-12.133347 3.37367,-5.213519 6.36661,-12.385249 8.75799,-20.986054 1.58631,-5.705323 1.87783,-6.344296 3.7701,-8.263746 2.14601,-2.17683 2.70964,-2.431 5.87155,-2.64772 4.49609,-0.30817 8.25068,1.28378 9.71745,4.12021 0.26589,0.51417 1.28772,3.784666 2.27074,7.267769 3.03712,10.76134 4.4563,14.397894 7.84864,20.11158 1.50559,2.53585 4.42365,5.737378 7.33925,8.052196 0.98732,0.783873 5.39111,2.843783 8.09391,3.785988 2.608613,0.909375 9.034283,2.107378 13.086313,2.439814 4.0526,0.332483 16.5357,0.09353 21.16667,-0.405174 z m -135.2902733,-2.46508 c -6.7709,-0.628303 -11.3046197,-1.74679 -13.9940797,-3.452391 -0.90314,-0.572757 -1.73177,-0.951688 -1.84139,-0.842068 -0.10962,0.109621 -0.29905,-0.06063 -0.42097,-0.378323 -0.12191,-0.317698 -0.35798,-0.493379 -0.5246,-0.390403 -0.16662,0.102977 -1.2444,-0.754226 -2.39507,-1.904894 -2.03164,-2.031644 -4.29229,-5.439227 -6.00133,-9.046109 -1.20039,-2.533378 -3.41182,-9.403559 -4.08797,-12.699999 -0.31839,-1.552222 -0.80284,-3.695347 -1.07657,-4.7625 -1.70316,-6.639966 -1.95762,-15.644086 -0.53552,-18.949846 3.04891,-7.08737 15.45149,-10.23922 36.5219497,-9.28128 7.9405803,0.36101 13.5787803,1.10148 20.0243203,2.62982 16.15832,3.83138 23.03465,8.86716 24.63181,18.03875 0.53592,3.0775 0.23164,11.734505 -0.53756,15.293725 -1.30693,6.047422 -3.68883,11.719211 -6.38308,15.199385 -1.48032,1.91213 -3.69244,4.1987 -3.69244,3.816707 0,-0.107718 -0.56006,0.332349 -1.24457,0.977926 -1.6511,1.557189 -5.7055,3.512232 -9.02043,4.349673 -6.09447,1.53963 -20.5271203,2.22727 -29.4225003,1.401827 z m 20.3355403,-3.498091 c 9.32926,-0.920043 14.10801,-2.755076 18.29363,-7.024722 3.68132,-3.755225 6.41177,-9.416478 7.60447,-15.766944 0.83546,-4.448305 0.5797,-12.851456 -0.48029,-15.780656 -0.99846,-2.75918 -3.19477,-5.59156 -5.45899,-7.03996 -7.10233,-4.54331 -18.99696,-7.82847 -29.7787203,-8.22455 -5.4782,-0.20125 -5.61317,-0.18846 -7.63759,0.72405 -2.79712,1.2608 -5.60436,3.09565 -7.61821,4.97938 -0.92157,0.86202 -1.77985,1.48949 -1.90729,1.39439 -0.12744,-0.0951 -0.16372,-0.0785 -0.0806,0.037 0.0831,0.11544 -0.56248,1.25219 -1.4346297,2.5261 -3.39074,4.95268 -4.7137,8.93307 -4.7137,14.182157 0,4.832452 1.92932,12.384137 4.14978,16.242953 1.2452697,2.164071 0.1977,1.253671 -1.97446,-1.715933 -2.37682,-3.249393 -4.50031,-7.796374 -5.56311,-11.91215 -1.62733,-6.301948 -0.79521,-12.664797 2.24547,-17.170237 1.18106,-1.74999 1.17318,-1.78797 -0.44517,-2.14772 -2.19772,-0.48852 -5.11528,-1.72989 -5.11528,-2.17646 0,-0.63906 4.9821,-3.07668 8.72663,-4.26971 2.94027,-0.9368 3.02393,-0.99086 1.71105,-1.10581 -2.52019,-0.22066 -13.99874,2.18928 -14.67102,3.0802 -0.097,0.12857 -0.71233,0.60836 -1.36738,1.0662 -0.65505,0.45785 -1.52818,1.56145 -1.94028,2.45245 -0.66252,1.43243 -0.7446,2.21229 -0.70889,6.73528 0.0558,7.06525 1.11957,13.004681 4.00792,22.377313 2.91714,9.466065 8.78045,15.650583 16.5891897,17.497986 5.57122,1.318048 19.43983,1.840953 27.5674803,1.039411 z m -6.27337,-7.012571 c -7.0017503,-2.003974 -12.3410403,-7.430852 -14.4319103,-14.668659 -1.17236,-4.058247 -0.72637,-10.004307 1.05806,-14.106482 l 0.7622,-1.75218 0.80359,1.66001 c 2.38413,4.924946 8.20584,6.805981 13.3200903,4.303811 4.08946,-2.000789 6.00989,-6.626491 4.64392,-11.185711 -0.45794,-1.52847 -3.08104,-4.68751 -4.18257,-5.03712 -0.37934,-0.1204 -0.68972,-0.39045 -0.68972,-0.60013 0,-0.66515 5.91088,-0.0584 9.0127,0.92524 5.4997,1.74395 10.61298,6.05563 13.21725,11.1452 2.066,4.037593 2.95519,9.956334 2.12959,14.175134 -1.4406,7.361442 -7.15358,13.312291 -14.65625,15.266488 -2.81303,0.732703 -8.20339,0.671081 -10.98695,-0.125601 z m 11.6978,-3.173451 c 3.47885,-1.723836 5.18671,-3.564321 7.07253,-7.621742 1.61899,-3.48331 2.20555,-7.056055 0.65158,-3.968749 -0.71909,1.428619 -2.98157,3.826111 -3.37891,3.580541 -0.1625,-0.100429 -0.29545,-0.481877 -0.29545,-0.847661 0,-0.365785 -0.38002,-1.106871 -0.8445,-1.646857 -0.65474,-0.761182 -1.15018,-0.980475 -2.20486,-0.975925 -2.87809,0.01242 -4.39846,2.39393 -3.17123,4.967441 0.43962,0.921891 0.47143,1.239347 0.13481,1.34507 -4.8748,1.531032 -8.4055,1.433063 -12.6438603,-0.350841 -1.13464,-0.477563 -2.14714,-0.868296 -2.25,-0.868296 -0.40077,0 -0.15831,1.854456 0.37808,2.891709 1.72673,3.339134 5.9221503,5.320797 10.8104503,5.106209 2.37085,-0.104076 3.13074,-0.317284 5.74136,-1.610899 z M 5.5175967,-82.120194 c 0.87611,-0.336193 1.29206,-1.737154 0.82204,-2.768725 -0.40608,-0.891256 -1.23965,-1.324636 -2.69191,-1.399552 -1.02533,-0.05289 -1.32542,0.359261 -1.43788,1.97481 -0.12746,1.830966 1.47802,2.895603 3.30775,2.193467 z m -2.82039,-3.656053 c 0.11992,-0.194028 0.2974,-0.352778 0.39442,-0.352778 0.097,0 0.0783,0.15875 -0.0416,0.352778 -0.11992,0.194028 -0.2974,0.352778 -0.39442,0.352778 -0.097,0 -0.0783,-0.15875 0.0416,-0.352778 z m -0.17639,-1.234722 c 0,-0.09701 -0.0794,-0.176389 -0.17639,-0.176389 -0.097,0 -0.17639,0.07937 -0.17639,0.176389 0,0.09701 0.0794,0.176389 0.17639,0.176389 0.097,0 0.17639,-0.07937 0.17639,-0.176389 z m 29.9861103,-2.116667 c 0,-0.09701 -0.0794,-0.176388 -0.17639,-0.176388 -0.097,0 -0.17639,0.07937 -0.17639,0.176388 0,0.09701 0.0794,0.176389 0.17639,0.176389 0.097,0 0.17639,-0.07937 0.17639,-0.176389 z M -0.4189933,-100.47532 c -0.12935,-0.12935 -0.23519,-0.0235 -0.23519,0.23519 0,0.258699 0.10584,0.364532 0.23519,0.23518 0.12935,-0.12935 0.12935,-0.34102 0,-0.47037 z M 110.47081,-62.034097 c -1.46617,-0.158907 -3.54867,-0.539588 -8.19406,-1.497871 -5.508633,-1.13636 -9.575213,-3.499593 -13.123273,-7.6264 -5.87525,-6.833592 -8.41299,-14.953139 -8.36304,-26.757704 0.0339,-8.012678 1.06745,-11.184228 4.8649,-14.928518 2.59406,-2.55774 4.58204,-3.6325 11.27354,-6.09478 5.464053,-2.01062 14.717463,-3.91507 22.452233,-4.6209 6.01629,-0.54901 22.6844,-0.21461 27.07303,0.54315 6.09965,1.05319 11.97087,3.38094 14.00569,5.55279 2.9729,3.17313 3.26667,9.98961 0.94552,21.939915 -1.41176,7.268353 -5.52115,19.625945 -6.5264,19.625945 -0.17101,0 -0.29212,0.119062 -0.26914,0.264583 0.0958,0.606404 -0.0684,1.123444 -0.49595,1.562302 -0.2498,0.256394 -0.81099,1.049533 -1.24709,1.762531 -0.98916,1.617225 -4.93717,5.311432 -5.38233,5.036312 -0.18135,-0.11208 -0.43344,0.0665 -0.5602,0.396843 -0.36937,0.962546 -5.1109,2.932602 -8.84599,3.675414 -1.89319,0.376505 -5.26779,0.84794 -7.4991,1.047634 -3.78513,0.338753 -17.3399,0.418804 -20.10834,0.118754 z m 25.89508,-4.320661 c 6.70102,-1.459369 9.92568,-3.390076 13.60431,-8.145335 2.4793,-3.204928 3.2472,-4.807632 5.23368,-10.923376 2.39573,-7.375706 3.69573,-15.243691 3.7013,-22.401391 0.004,-4.5088 -0.40607,-5.76122 -2.50391,-7.65649 -2.42574,-2.19151 -11.13535,-4.54642 -16.60792,-4.49046 -2.69039,0.0275 -2.56264,0.11323 2.60385,1.74715 4.15009,1.31248 7.58472,2.77825 7.58472,3.23686 0,0.17898 0.15875,0.2273 0.35278,0.10739 0.19403,-0.11992 0.35278,-0.0881 0.35278,0.0707 0,0.53496 -1.57113,1.28631 -4.32153,2.06665 -1.64237,0.46597 -2.73403,0.62844 -2.73403,0.4069 0,-0.20284 -0.0853,-0.28348 -0.18959,-0.1792 -0.24628,0.24628 0.57141,2.04466 0.92967,2.04466 0.44937,0 2.37902,4.25051 2.95646,6.51231 1.02286,4.006496 0.46127,10.284682 -1.27141,14.213384 -0.36368,0.824618 -0.99577,2.248178 -1.40464,3.163465 -0.82829,1.854218 -4.30253,7.314548 -4.8818,7.672557 -0.20461,0.126458 -0.37202,0.0618 -0.37202,-0.143675 0,-0.205479 0.1199,-0.373598 0.26646,-0.373598 0.14655,0 0.44483,-0.515937 0.66284,-1.146527 0.21802,-0.63059 0.73647,-2.064933 1.15212,-3.187429 1.38804,-3.7485 1.89607,-6.901765 1.91625,-11.89382 0.0164,-4.066565 -0.0973,-5.097577 -0.77835,-7.055557 -1.32587,-3.81182 -3.41839,-6.97556 -6.88779,-10.41382 -2.60624,-2.58284 -3.84165,-3.50427 -6.56209,-4.89431 l -3.35138,-1.71242 -4.93889,0.21424 c -9.83278,0.42654 -19.27407,2.62852 -26.923473,6.27932 -7.53076,3.59418 -9.67316,7.50325 -9.73293,17.758936 -0.0342,5.859571 0.54922,9.012278 2.62846,14.20493 2.20675,5.511106 6.50858,10.487582 10.95494,12.672987 5.395863,2.652087 10.243323,3.269443 24.484113,3.118215 9.25307,-0.09826 11.02247,-0.208024 14.07702,-0.873256 z m -30.79434,-6.220739 c -3.23338,-0.869565 -6.038123,-2.587094 -8.859073,-5.424994 -1.45521,-1.463952 -3.08586,-3.483057 -3.62368,-4.486898 -1.20097,-2.24163 -2.37354,-6.69006 -2.37354,-9.004606 0,-2.885085 1.02891,-7.001603 2.53927,-10.159255 2.55745,-5.34675 8.327503,-10.06497 14.394063,-11.77014 2.75436,-0.77419 7.05556,-1.14108 7.05556,-0.60184 0,0.23584 0.19287,0.30791 0.44097,0.16478 0.24253,-0.13993 -0.31973,0.42566 -1.24947,1.25686 -2.48467,2.22132 -3.23184,3.85507 -3.23327,7.06979 -0.001,2.96029 0.44113,4.07525 2.53835,6.396619 2.48859,2.754564 6.0413,3.705242 9.78237,2.617683 1.59002,-0.462231 2.45569,-1.005708 3.89582,-2.445836 1.11072,-1.110726 1.95057,-2.302406 2.09904,-2.978366 0.13612,-0.61975 0.38841,-1.03972 0.56066,-0.93326 0.61415,0.37956 2.08428,5.834985 2.29951,8.533093 0.2877,3.606662 -0.44889,7.039079 -2.35793,10.987661 -2.62747,5.434532 -7.362,9.315568 -13.17448,10.799498 -2.63421,0.672516 -8.19624,0.661744 -10.73417,-0.02079 z m 11.30844,-2.694768 c 2.49441,-1.141977 4.70823,-3.325365 5.26879,-5.196372 0.23624,-0.788482 0.32801,-1.535115 0.20394,-1.659184 -0.12407,-0.12407 -1.15054,0.189516 -2.28104,0.696856 -4.04269,1.814249 -7.65033,2.04943 -11.45295,0.746614 -1.73706,-0.595134 -1.93396,-0.813963 -1.30148,-1.446441 0.20581,-0.205817 0.38371,-1.062692 0.39532,-1.904167 0.0179,-1.295046 -0.15535,-1.687626 -1.12819,-2.556865 -0.95387,-0.852283 -1.35965,-0.992778 -2.38619,-0.826192 -1.49983,0.243387 -2.82036,1.41184 -3.18472,2.817936 l -0.26966,1.040656 -1.290553,-1.197606 c -0.7098,-0.658683 -1.69431,-1.911981 -2.1878,-2.785106 -0.76762,-1.358129 -0.89694,-1.460071 -0.89505,-0.705555 0.003,1.231567 2.13922,6.287643 3.47948,8.235634 1.565613,2.275548 5.320773,4.73658 8.410583,5.512077 2.38096,0.597584 6.41726,0.235942 8.61952,-0.772285 z m 9.30023,-7.453445 c 1.13604,-1.621928 0.18274,-3.405315 -1.8203,-3.405315 -2.28742,0 -2.90704,3.398287 -0.76416,4.190991 1.0488,0.387975 1.95545,0.112351 2.58446,-0.785676 z m 46.27468,15.241939 c 0.54271,-0.22151 1.6597,-0.69776 2.4822,-1.058333 0.82251,-0.360574 1.65594,-0.655589 1.85209,-0.655589 0.19614,0 0.35662,-0.124522 0.35662,-0.276716 0,-0.152194 0.43656,-0.542749 0.97014,-0.8679 3.22929,-1.967865 6.92051,-6.818082 8.70464,-11.437782 1.40982,-3.650499 2.67244,-9.418038 2.67244,-12.207504 0,-2.434453 -0.5274,-5.243311 -1.28379,-6.837295 -0.79859,-1.68289 -2.93298,-3.90254 -4.00788,-4.16797 -0.86399,-0.21334 -0.89506,-0.14931 -1.52668,3.14617 -0.64285,3.35414 -0.6426,3.366659 0.0882,4.295713 1.04577,1.329479 0.98366,1.994067 -0.13857,1.482746 -1.18553,-0.540164 -1.83114,0.0455 -2.12953,1.931821 -0.49659,3.139301 -5.40086,16.446316 -7.02872,19.071406 -0.61581,0.99306 -4.08136,7.647147 -4.08136,7.836485 0,0.307309 2.12469,0.130665 3.0702,-0.255252 z m -214.384073,-1.364383 c 0,-0.404607 -4.041921,-8.33688 -4.576002,-8.980408 -0.191978,-0.23132 -0.762584,-1.519317 -1.268013,-2.862217 -0.505429,-1.342899 -1.041697,-2.600385 -1.191707,-2.794413 -0.150009,-0.194027 -0.951051,-2.416527 -1.780094,-4.938888 -2.641906,-8.037999 -2.673555,-8.113888 -3.383733,-8.113888 -0.360803,0 -0.856791,0.396875 -1.102196,0.881944 -0.245405,0.485069 -0.44853,0.677183 -0.451391,0.426918 -0.0029,-0.250264 0.333434,-1.118803 0.74732,-1.930087 0.709977,-1.39167 0.72945,-1.662786 0.344449,-4.795607 -0.224439,-1.8263 -0.484329,-3.44394 -0.577532,-3.59474 -0.276123,-0.44678 -0.98268,-0.19702 -2.068798,0.73128 -4.369572,3.73467 -5.601067,7.89622 -4.277765,14.455709 1.361689,6.749773 4.483079,13.141733 8.01376,16.41052 3.085668,2.856785 4.550289,3.722912 7.805886,4.616135 3.340746,0.916586 3.765816,0.97164 3.765816,0.487742 z m 95.4945,-3.492546 c 1.70878,-0.564488 4.96975,-1.289813 7.24659,-1.611834 5.0076,-0.708243 9.03985,-0.355445 14.11181,1.234697 1.78369,0.559216 3.27323,0.984706 3.31009,0.945534 0.0369,-0.03917 -0.78092,-1.817473 -1.81729,-3.951778 -2.17435,-4.477848 -3.90877,-9.235766 -5.45968,-14.977147 -1.76519,-6.534679 -2.79992,-7.777018 -6.47742,-7.777018 -2.21434,0 -3.86063,0.777611 -4.47267,2.112618 -0.2234,0.487296 -1.48288,4.140368 -2.79884,8.117937 -1.31595,3.977569 -3.12578,8.767099 -4.02182,10.6434 -0.89604,1.8763 -1.6327,3.543175 -1.63701,3.704166 -0.004,0.160991 -0.31829,0.689585 -0.69772,1.174655 -0.66131,0.845447 -0.88148,1.411111 -0.54923,1.411111 0.086,0 1.55441,-0.461854 3.26319,-1.026341 z m 21.42016,-45.73797 c 8.14637,-4.23495 13.75367,-6.38239 22.43255,-8.59104 9.334233,-2.37542 16.191733,-3.50388 25.901703,-4.26233 5.0916,-0.3977 20.82105,-0.50588 22.22759,-0.15286 0.49875,0.12518 0.90681,0.078 0.90681,-0.10493 0,-0.35221 -2.22629,-0.79909 -13.5894,-2.72779 -11.6116,-1.97088 -31.72853,-4.30637 -44.795313,-5.20055 -10.38466,-0.71064 -40.40308,-0.59983 -49.74167,0.18361 -16.55675,1.38899 -50.23762,6.13133 -49.31927,6.94426 0.15574,0.13786 4.1725397,0.42757 8.9262197,0.64379 10.81888,0.49209 18.2997403,1.43086 27.4090103,3.43954 11.47215,2.52971 21.27701,6.11224 30.04122,10.97654 l 2.59329,1.43932 6.0186,-0.002 6.01861,-0.002 z m -123.264664,-5.97596 c 0,-0.097 -0.07937,-0.17639 -0.176388,-0.17639 -0.09701,0 -0.176389,0.0794 -0.176389,0.17639 0,0.097 0.07937,0.17639 0.176389,0.17639 0.09701,0 0.176388,-0.0794 0.176388,-0.17639 z m 0.386994,-6.22299 c 2.709417,-2.41283 9.10435,-5.90127 13.1366,-7.16601 0.8082,-0.2535 1.74727,-0.57635 2.08682,-0.71745 0.3655,-0.15188 0.61736,-0.10091 0.61736,0.12493 0,0.39953 -2.09973,1.65597 -2.55764,1.53044 -0.14552,-0.0399 -0.26458,0.0697 -0.26458,0.24347 0,0.17381 -0.79979,0.82923 -1.7773,1.4565 -0.97752,0.62727 -1.707,1.2108 -1.62107,1.29672 0.0859,0.0859 1.95728,-0.2462 4.15855,-0.73807 33.5844297,-7.50442 64.09806,-11.43017 93.78426,-12.06588 31.84682,-0.68199 73.434133,4.28582 103.870383,12.40783 1.73378,0.46267 3.20412,0.78942 3.26742,0.72613 0.0633,-0.0633 -0.99806,-0.85529 -2.35858,-1.75997 -1.36052,-0.90468 -2.47367,-1.8015 -2.47367,-1.99293 0,-0.93915 7.34359,1.83953 9.70138,3.67083 2.04304,1.58683 5.49081,3.63421 5.65973,3.36089 0.23465,-0.37966 -0.42134,-9.47452 -0.74402,-10.31541 -0.12578,-0.32779 -0.44983,-0.59597 -0.72012,-0.59597 -0.27028,0 -0.49142,-0.1308 -0.49142,-0.29067 0,-0.15987 -1.20043,-0.66714 -2.66762,-1.12728 -1.4672,-0.46013 -2.74656,-0.96433 -2.84304,-1.12044 -0.0965,-0.15611 -0.47033,-0.28383 -0.83076,-0.28383 -0.36044,0 -0.70826,-0.12394 -0.77293,-0.27542 -0.0647,-0.15148 -1.94322,-0.86335 -4.17454,-1.58194 -3.96375,-1.27652 -9.56808,-3.37261 -9.12715,-3.41368 0.1218,-0.0113 2.15987,0.38792 4.52903,0.88726 4.97405,1.04836 11.20929,2.83234 14.3877,4.1165 l 2.20487,0.89082 v -1.21611 c 0,-0.66886 -0.26128,-2.89365 -0.58061,-4.94397 -0.51493,-3.30619 -0.70042,-3.84236 -1.63982,-4.74011 -0.58257,-0.55673 -1.24541,-1.01224 -1.47298,-1.01224 -0.22757,0 -2.67065,-1.11125 -5.42908,-2.46945 -2.75843,-1.35819 -5.08157,-2.46944 -5.16253,-2.46944 -0.0809,0 -1.14651,-0.46397 -2.36789,-1.03105 -2.53795,-1.17834 -16.64264,-6.86202 -21.0213,-8.47081 -4.58255,-1.68371 -6.43053,-2.54779 -6.21046,-2.90388 0.1199,-0.194 0.40053,-0.16462 0.68534,0.0718 0.26527,0.22015 0.6306,0.30863 0.81183,0.19662 0.68037,-0.42049 17.54624,4.75604 24.43932,7.501 4.91867,1.95871 12.83421,5.98411 13.96624,7.10244 1.19717,1.18269 1.86527,1.15572 1.86527,-0.0753 0,-2.01072 -4.04745,-18.4185 -5.00671,-20.2965 -0.97429,-1.90741 -8.71928,-5.5842 -18.98218,-9.01144 -25.45988,-8.50217 -59.753333,-13.37707 -90.311103,-12.83796 -16.05008,0.28316 -27.6872,1.35051 -44.9923,4.12668 -19.0112203,3.04986 -46.12235,11.08314 -53.38257,15.81774 -2.30134,1.50077 -2.64823,2.23925 -4.41731,9.40376 -2.02071,8.18358 -2.96735,13.22916 -2.482025,13.22916 0.227051,0 0.605446,-0.2321 0.840878,-0.51578 0.68732,-0.82817 5.564757,-3.84429 9.006947,-5.56973 5.66937,-2.84184 18.48014,-7.59592 19.01835,-7.05771 0.10504,0.10505 0.43117,-0.008 0.72473,-0.25199 0.55074,-0.45707 6.2131897,-2.21749 6.4312497,-1.99943 0.0674,0.0674 -1.9049197,1.04691 -4.3828697,2.17676 -2.47794,1.12985 -8.37544,3.93109 -13.10555,6.22497 -4.73011,2.29388 -8.73855,4.17069 -8.90764,4.17069 -0.16909,0 -0.30744,0.15875 -0.30744,0.35278 0,0.19403 -0.30427,0.35278 -0.67616,0.35278 -0.37188,0 -0.72907,0.12204 -0.79375,0.27121 -0.22376,0.51608 -5.4117,3.393 -6.034242,3.34622 -0.343742,-0.0258 -0.539874,0.0908 -0.435849,0.25907 0.104024,0.16832 -0.130669,0.40753 -0.521542,0.53159 -0.390873,0.12406 -0.710679,0.38298 -0.710679,0.57539 0,0.1924 -0.151341,0.25629 -0.336313,0.14197 -0.184973,-0.11432 -0.492051,0.39225 -0.682395,1.12571 -0.539829,2.08014 -1.539708,8.9469 -1.332887,9.15372 0.102037,0.10204 1.189063,-0.21596 2.415613,-0.70665 3.823194,-1.52952 15.905264,-4.96542 16.621264,-4.72675 0.17532,0.0584 -1.56246,0.799 -3.86173,1.64569 -5.72369,2.10772 -14.590881,5.91548 -15.327167,6.5818 -0.405759,0.36721 -0.670038,1.32259 -0.803308,2.904 -0.538862,6.39423 -0.615614,8.53036 -0.306501,8.53036 0.181757,0 0.711946,-0.33972 1.178196,-0.75494 z m 209.162993,-6.82978 c 0,-0.097 0.0794,-0.17639 0.17639,-0.17639 0.097,0 0.17639,0.0794 0.17639,0.17639 0,0.097 -0.0794,0.17638 -0.17639,0.17638 -0.097,0 -0.17639,-0.0794 -0.17639,-0.17638 z m -1.76389,-1.05834 c 0,-0.097 0.0794,-0.17639 0.17639,-0.17639 0.097,0 0.17639,0.0794 0.17639,0.17639 0,0.097 -0.0794,0.17639 -0.17639,0.17639 -0.097,0 -0.17639,-0.0794 -0.17639,-0.17639 z m -5.64444,-10.93611 c 0,-0.097 0.0794,-0.17639 0.17639,-0.17639 0.097,0 0.17638,0.0794 0.17638,0.17639 0,0.097 -0.0794,0.17639 -0.17638,0.17639 -0.097,0 -0.17639,-0.0794 -0.17639,-0.17639 z m 19.05,-7.76111 c 0,-0.097 0.0794,-0.17639 0.17638,-0.17639 0.097,0 0.17639,0.0794 0.17639,0.17639 0,0.097 -0.0794,0.17639 -0.17639,0.17639 -0.097,0 -0.17638,-0.0794 -0.17638,-0.17639 z m -208.138883,20.81389 c 0,-0.097 -0.0794,-0.17639 -0.17639,-0.17639 -0.097,0 -0.17638,0.0794 -0.17638,0.17639 0,0.097 0.0794,0.17639 0.17638,0.17639 0.097,0 0.17639,-0.0794 0.17639,-0.17639 z m 8.03188,-54.31442 c 15.58469,-5.79963 43.43263,-11.57155 65.52228,-13.58052 12.57256,-1.14342 31.35876,-1.46204 42.50972,-0.72097 17.91988,1.19091 36.508873,4.02455 54.504163,8.30843 13.22737,3.14884 17.22533,4.32756 21.78619,6.42324 1.5049,0.69149 2.83453,1.1589 2.95473,1.0387 0.34385,-0.34385 -6.14912,-9.94592 -9.23227,-13.65307 -11.59747,-13.94469 -26.54705,-24.99302 -42.14337,-31.1456 -14.939093,-5.89332 -29.503953,-8.35842 -46.743053,-7.91125 -9.48257,0.24597 -15.52398,0.9182 -24.53273,2.72976 -12.31471,2.47635 -25.64496,7.77168 -35.0081903,13.9067 -0.52825,0.34612 -0.96046,0.50134 -0.96046,0.34493 0,-0.15641 -0.19844,-0.0433 -0.44097,0.25138 -0.24254,0.29467 -2.02848,1.65349 -3.96875,3.01961 -2.99918,2.11167 -4.63245,3.34917 -7.1288597,5.40142 -0.23435,0.19265 -0.6009,0.35028 -0.81457,0.35028 -0.21367,0 -0.29744,0.14732 -0.18616,0.32738 0.11128,0.18005 -0.0778,0.43256 -0.42015,0.56113 -0.69861,0.26234 -9.11118,9.1708 -11.48714,12.16426 -4.80184,6.04982 -10.24179,14.33941 -9.18921,14.00287 0.3581,-0.1145 2.59856,-0.93291 4.9788,-1.81868 z"
       id="path129" /></g></svg>
