<?xml version="1.0" encoding="UTF-8" standalone="no"?>
<!-- Created with Inkscape (http://www.inkscape.org/) -->

<svg
   width="348.66711mm"
   height="324.51263mm"
   viewBox="0 0 348.66714 324.51258"
   version="1.1"
   id="svg1"
   xml:space="preserve"
   xmlns="http://www.w3.org/2000/svg"
   xmlns:svg="http://www.w3.org/2000/svg"><defs
     id="defs1"><clipPath
       clipPathUnits="userSpaceOnUse"
       id="clipPath6"><path
         id="path7"
         style="fill:#ff0000;fill-opacity:1;fill-rule:nonzero;stroke:none;stroke-width:0.264583"
         d="M -175.07778,-16.057127 V 287.55793 H 124.54631 V -16.057127 Z m 132.7459,202.572647 c 0.210643,0.005 0.427212,0.0169 0.650089,0.0367 2.23823,0.19855 4.475655,0.4031 6.717938,0.55346 1.973313,0.11308 0.986628,0.0436 2.958475,0.20825 3.181295,0.26563 4.740125,1.85116 4.950601,3.46956 4.949923,1.63749 3.796379,7.35609 -2.592089,6.81354 -3.228716,-0.27422 -1.569593,-0.1301 -4.979024,-0.43357 -4.228209,-0.39317 -8.460616,-0.76265 -12.666927,-1.35341 -6.647387,-0.93358 -5.930551,-7.21034 0.03204,-7.20421 0.04685,5e-5 0.0972,0.004 0.144695,0.005 0.687229,-1.21692 2.304132,-2.15435 4.784204,-2.09548 z" /></clipPath><clipPath
       clipPathUnits="userSpaceOnUse"
       id="clipPath76"><path
         id="path77"
         style="fill:#ff0000;fill-opacity:1;fill-rule:nonzero;stroke:none;stroke-width:0.264583"
         d="M -133.83107,-122.52355 V 173.82063 H 122.97289 V -122.52355 Z M 13.574404,98.948202 c 2.788179,0.0507 4.135003,2.063798 3.398242,4.077268 0.199805,0.45372 0.374906,0.96736 0.517797,1.54461 1.07913,4.35948 0.671079,8.891 0.311608,13.31495 -0.351859,3.06036 -0.147137,1.57974 -0.604097,4.44366 -0.359666,2.25418 -1.333846,3.66838 -2.455664,4.32532 0.105138,0.36595 0.224724,0.72888 0.324528,1.09554 0.6273,2.23652 0.575201,4.47401 0.39429,6.75514 -0.137303,1.73129 -0.688065,2.99533 -1.427303,3.82199 -0.112477,0.41601 -0.170275,0.80219 -0.311092,1.25212 -0.184975,0.59102 -0.413327,1.1061 -0.670242,1.55856 0.741137,-0.23134 1.446982,-0.38145 2.064991,-0.37517 4.085002,0.0415 5.222724,4.75435 -0.02223,7.27138 -4.46677,2.14368 -9.303523,3.34693 -14.11903492,4.40955 -4.40876268,0.85156 -8.89238128,1.33053 -13.38264308,1.19269 -5.804014,-0.17807 -6.736297,-5.00293 -3.065447,-6.67298 -2.072987,-0.65744 -4.042852,-1.62261 -4.128947,-3.14709 -0.02802,-0.49633 0.0026,-0.90355 0.0341,-1.30897 -1.976731,-0.003 -3.95339,2.4e-4 -5.930386,0.003 -0.814031,0 -1.53062,-0.0962 -2.159559,-0.26149 -0.376306,0.19492 -0.742394,0.40783 -1.120862,0.59893 -6.391272,3.22657 -9.625245,-3.24074 -3.234428,-6.46886 1.833438,-0.92611 3.62694,-1.92211 5.414142,-2.92954 -0.877003,-3.87058 -1.368747,-7.83436 -1.323951,-11.80858 0.01651,-1.46304 0.376836,-2.54918 0.864547,-3.41426 -1.247357,-1.79999 -0.223805,-4.63069 3.842661,-5.68855 3.11826,-0.81116 6.282901,-1.39515 9.473837,-1.82211 -1.259816,-0.12657 -2.516182,-0.30233 -3.764627,-0.50177 -1.477002,-0.21985 -2.935575,-0.54305 -4.407482,-0.7891 -1.14214,-0.22954 -0.588502,-0.12004 -1.660882,-0.3297 -3.350244,-0.65501 -4.783278,-2.61088 -4.608504,-4.32997 -0.200179,-1.7721 1.333365,-3.52972 4.663799,-3.59461 v -5.3e-4 c 0.20954,-0.004 0.426035,-0.002 0.649571,0.008 1.77111,0.0772 3.528708,0.28204 5.26428,0.64027 1.655035,0.33225 3.314115,0.6481 4.955251,1.04439 1.244759,0.34858 2.51628,0.54538 3.7997689,0.6723 0.025956,0.002 0.052073,0.002 0.078034,0.004 0.4990888,-0.0371 0.9984105,-0.0743 1.4965495,-0.11317 1.346872,-0.12588 2.6913231,-0.25136 4.0457464,-0.24236 1.1278499,-0.0444 2.2567291,-0.10772 3.37498791,-0.26872 0.75719517,-0.11591 1.51142439,-0.25483 2.25722659,-0.4284 0.3616431,-0.12394 0.7240561,-0.24538 1.083138,-0.37775 0.3360393,-0.12388 0.6107589,-0.12825 0.9250071,-0.20723 0.1281086,-0.045 0.2583895,-0.0825 0.3855085,-0.13074 1.9825018,-0.7681 3.9540551,-1.56464 5.9510551,-2.29443 1.050809,-0.383992 1.999634,-0.542639 2.826703,-0.527616 z M 0.70283723,110.39557 c -0.45566013,0.0949 -0.90775367,0.208 -1.36890919,0.2744 -1.16638124,0.15534 -2.34111274,0.24237 -3.51761424,0.26251 0.4031694,0.0896 0.8047355,0.18876 1.2025101,0.308 0.1014836,0.0304 0.1982549,0.075 0.2986907,0.10852 0.4205235,-0.21824 0.9206601,-0.35072 1.4898318,-0.37156 0.39885139,-0.0146 0.83259872,0.0278 1.29449508,0.13023 0.22468681,-0.12213 0.44967525,-0.24374 0.67437529,-0.36587 -0.0326284,-0.11319 -0.058211,-0.22834 -0.0733795,-0.34623 z m 10.24433577,1.02474 c -0.76023,0.21437 -1.5189569,0.4343 -2.2696301,0.68006 -0.031261,0.62207 -0.2256075,1.28373 -0.6464723,1.94355 0.6236891,0.43248 1.2549743,1.04482 1.8634525,1.86862 0.2674939,0.36214 0.4748849,0.75712 0.7188199,1.13223 0.154519,-1.86707 0.314174,-3.74736 0.33383,-5.62446 z m 64.566086,3.39773 c 1.50346,0.0187 3.129182,1.24994 3.928441,4.04678 0.257931,0.90255 0.823497,1.65871 1.488797,2.30735 0.856321,0.95375 1.845738,1.76777 2.801898,2.61638 1.458581,1.46408 2.789203,3.04608 4.169772,4.58215 1.315059,1.44746 2.571226,2.91698 3.543967,4.61884 0.0053,0.01 0.0082,0.0206 0.01344,0.0305 0.734605,-0.43313 1.446276,-0.65634 2.094962,-0.69195 3.016182,-0.16561 4.69137,3.55377 1.187525,7.32306 -1.69471,1.82311 -3.657862,3.33908 -5.68751,4.7651 -0.777873,0.49914 -1.607691,0.90075 -2.418456,1.33842 0.165478,1.44344 -0.672182,3.24303 -2.956409,4.73096 -1.354556,0.88234 -2.690448,1.79306 -4.075203,2.6288 -2.075008,1.20078 -4.233777,2.27962 -6.540687,2.96259 -2.077586,0.62971 -4.169056,1.29987 -6.359301,1.36374 -1.872114,0.0897 -3.746989,0.0368 -5.620845,0.0501 h -5.1108 -5.524728 c -7.160125,0 -7.160125,-7.23315 0,-7.23315 h 1.347722 c 0.29438,-0.0541 0.5212,-0.1588 0.84801,-0.18656 1.106628,-0.094 2.200932,-0.28334 3.292822,-0.48421 0.456121,-0.98163 1.356053,-1.98213 2.807581,-2.83962 1.078018,-0.63685 2.158119,-1.26923 3.212209,-1.94561 1.962647,-1.29302 3.840588,-2.72135 5.893696,-3.86902 1.367169,-0.76424 2.559646,-1.07097 3.526915,-1.04128 2.216811,0.068 3.246223,1.90266 2.479953,4.04059 1.105688,-0.48686 2.206929,-0.98346 3.283003,-1.53739 2.619811,-1.23728 5.288743,-2.38548 7.764385,-3.9026 0.246153,-0.17184 0.487463,-0.34958 0.730705,-0.52503 -0.126915,-0.50614 -0.277693,-0.9939 -0.512114,-1.46554 -0.647621,-1.25778 -1.721077,-2.20654 -2.600875,-3.29644 -1.199229,-1.33472 -2.369312,-2.69496 -3.592029,-4.00803 -1.098706,-0.97599 -2.227236,-1.92181 -3.215306,-3.01428 -1.300821,-1.39063 -2.459913,-2.93896 -3.045293,-4.77801 -1.289469,-4.05101 0.646382,-6.61405 2.843754,-6.58667 z m -95.086705,4.28035 c -0.465643,0.10748 -0.930899,0.21773 -1.394745,0.33435 0.171958,0.64334 0.283575,1.36624 0.279569,2.2071 -0.01267,2.6582 0.205063,5.32647 0.670242,7.94732 0.280107,-0.17087 0.565767,-0.33222 0.845429,-0.50385 -0.01897,-0.36223 -0.02445,-0.73164 -0.05529,-1.08985 -0.118034,-2.96491 -0.160888,-5.93314 -0.3452,-8.89507 z m 18.5141159,1.1958 c 0.00497,0.0773 0.00619,0.15612 0.014975,0.23202 -0.1238779,0.22787 -0.2588048,0.44752 -0.3937741,0.66715 0.58900751,0.0447 1.13203305,0.21413 1.64331124,0.45888 -0.37615284,-0.49255 -0.78353709,-0.94642 -1.26452314,-1.35805 z m -6.5422357,14.57068 c -0.046649,0.0755 -0.09888,0.14702 -0.1436608,0.22376 -0.03147,0.054 0.1963367,0.0838 0.1860365,0.0222 -0.017595,-0.10481 -0.026035,-0.14905 -0.042376,-0.24597 z m 13.9236979,6.08439 c -0.2236258,0.5643 -0.5677508,1.09664 -1.1782213,1.50533 0.9079653,0.17659 1.7077452,0.44257 2.2830631,0.84852 0.1405493,-0.0459 0.272804,-0.11448 0.4128956,-0.16174 -0.7336976,-0.43656 -1.2984269,-1.18703 -1.5177374,-2.19211 z" /></clipPath><clipPath
       clipPathUnits="userSpaceOnUse"
       id="clipPath127"><path
         id="path128"
         style="fill:#ff0000;fill-opacity:1;fill-rule:nonzero;stroke:none;stroke-width:0.264583"
         d="M -112.24796,-126.55676 V 185.58027 H 148.5754 V -126.55676 Z M 46.874626,83.305366 c 1.808208,0 3.616317,1.790192 3.616317,5.370214 v 5.232238 c 0.0627,2.146078 -0.111291,4.285324 -0.245462,6.424932 -0.136289,2.02485 -0.190703,4.04985 -0.104904,6.07715 0.192061,1.91863 0.527714,3.82569 0.876432,5.72213 0.304242,2.00862 0.765826,3.9858 1.180806,5.97276 0.41642,1.86142 0.967934,3.68703 1.421104,5.53972 0.25287,0.86996 0.117097,0.46495 0.396356,1.22008 0.186108,0.50319 0.223428,0.93098 0.309544,1.38441 4.425355,2.23251 2.751262,7.58433 -3.415813,6.40477 -3.104732,-0.59371 -6.256094,-0.76586 -9.40821,-0.85576 -3.81635,0.009 -7.630525,0.17062 -11.44478,0.28216 -1.12776,0.0333 -2.255837,0.0512 -3.383772,0.0754 -0.908129,0.5548 -1.966518,0.57724 -2.88613,0.0641 -0.03584,5.3e-4 -0.07165,0.002 -0.107487,0.003 -0.03142,5.3e-4 -0.0525,-0.009 -0.08268,-0.009 -0.32049,0.14732 -0.641715,0.29301 -0.962215,0.44028 -0.262501,0.12062 -0.518089,0.22111 -0.770496,0.31265 -0.876996,0.71434 -1.945576,0.85817 -2.911967,0.46405 -2.943479,-0.21613 -4.295167,-2.77187 -2.550232,-5.0524 -2.22e-4,-0.028 -0.0078,-0.0483 -0.0078,-0.0765 v -6.3469 c -0.014,-2.72977 -0.02254,-5.45666 0.112657,-8.18348 0.135676,-2.32533 0.233519,-4.6523 0.299723,-6.98046 0.046,-1.80459 0.06926,-3.60958 0.08527,-5.41465 -0.0258,-1.02998 0.04009,-2.054459 0.138491,-3.078883 0.0044,-0.04602 0.02191,-0.07504 0.02687,-0.120406 C 15.992671,97.193438 15.83363,95.70984 16.656834,94.418959 10.68718,93.678613 10.992573,87.32947 17.739972,87.32947 h 3.885033 5.177462 5.913334 c 1.498505,0.05847 2.984222,-0.03228 4.475178,-0.161748 1.252041,-0.18606 2.49041,-0.398671 3.697968,-0.782897 1.001961,-0.32245 0.492366,-0.161472 1.527553,-0.482142 0.510384,-0.158096 0.938446,-0.174371 1.394749,-0.23771 0.672338,-1.56932 1.86623,-2.35903 3.063377,-2.35903 z" /></clipPath></defs><g
     id="layer1"
     transform="translate(-90.693147,156.12864)"><path
       style="fill:#000000"
       d="m 160.13986,168.05412 c -3.7918,-0.92311 -6.18165,-4.00994 -6.16302,-7.96041 0.0157,-3.33576 1.24092,-6.37003 3.9091,-9.6812 0.9766,-1.21196 1.72451,-2.23361 1.66201,-2.27033 -0.0625,-0.0367 -0.74864,-0.2678 -1.52475,-0.51351 -2.78325,-0.88112 -12.0585,-5.77451 -15.34583,-8.09608 -4.98907,-3.52335 -11.59736,-10.29349 -14.88135,-15.24582 -3.01864,-4.55217 -4.53832,-7.45742 -6.83853,-13.07353 -2.96782,-7.24616 -4.93794,-15.576183 -8.08827,-34.198688 -1.27829,-7.556351 -1.589,-8.466666 -2.88982,-8.466666 -0.82201,0 -4.81549,-1.481348 -7.16592,-2.658135 C 94.542779,61.748866 89.73771,52.996607 90.852778,44.103765 92.056123,34.506908 98.828523,25.792521 108.8107,20.996405 l 2.64583,-1.271238 -2.66438,-2.688454 c -3.3494,-3.379661 -5.88748,-7.2339187 -7.90774,-12.0085094 -2.954206,-6.9818274 -4.417217,-13.9941312 -4.419511,-21.1830026 -0.0013,-4.048092 0.07073,-4.552965 0.805227,-5.644444 1.293244,-1.921794 2.619127,-2.201624 10.482244,-2.212296 9.52133,-0.01292 15.70543,1.193829 22.27313,4.346323 2.44429,1.17326 2.85142,1.277668 3.0237,0.775433 1.6655,-4.855271 4.43599,-10.689665 6.76853,-14.253873 2.16238,-3.304193 3.48885,-4.137027 5.58143,-3.50433 2.92225,0.883549 11.71099,8.965758 16.18598,14.884768 2.09903,2.776357 5.84557,9.565007 6.77325,12.2729615 l 0.39754,1.1604627 1.33641,-0.8755842 c 1.7787,-1.165362 6.12589,-2.586371 9.28139,-3.033902 2.41501,-0.34251 5.673,-0.13902 9.13139,0.570333 l 1.20137,0.246415 -1.64858,-3.07425 c -3.61702,-6.744972 -5.63143,-13.397304 -6.9878,-23.076239 -0.70558,-5.035022 -0.78438,-7.216799 -0.87512,-24.230472 -0.11029,-20.680963 0.05,-23.137771 2.03641,-31.220831 2.88622,-11.744236 9.59393,-24.229456 18.3111,-34.082876 21.36679,-24.15187 59.72999,-34.67585 94.88763,-26.03004 5.06365,1.24522 13.09269,4.02736 16.30158,5.64864 1.42936,0.72217 2.26669,0.85487 5.99723,0.95045 3.76948,0.0966 4.76003,0.25644 7.58249,1.22378 13.47258,4.61742 24.60584,14.98745 31.86859,29.68386 6.31066,12.76981 9.14806,27.054986 8.69441,43.772851 -0.18596,6.852869 -1.04655,14.590618 -1.85792,16.705032 -0.1243,0.323927 -0.0502,0.581078 0.16754,0.581078 0.21479,0 0.39052,-0.138392 0.39052,-0.307538 0,-0.814122 20.73612,-32.217112 22.88789,-34.661651 1.74339,-1.980596 3.65751,-2.63645 6.6641,-2.283382 4.56013,0.535504 11.09449,5.187348 12.77549,9.094943 1.11771,2.598182 0.90816,5.800965 -0.56663,8.660525 -1.19527,2.317593 -6.73572,10.826372 -19.98078,30.68565 l -8.75622,13.128825 1.40539,1.26968 c 2.10645,1.903056 3.2104,4.382947 3.2062,7.20235 -0.007,4.432612 -2.3056,7.451146 -6.63313,8.709195 -2.20057,0.639722 -3.89929,0.47273 -6.47864,-0.636876 -0.94761,-0.407649 -1.7642,-0.679864 -1.81465,-0.604924 -0.0505,0.07494 -0.49485,0.69188 -0.98757,1.370977 -1.85295,2.553907 -6.00984,9.2347568 -5.84717,9.397431 0.0931,0.093134 1.1527,-0.1534869 2.3546,-0.5480475 3.54666,-1.1643105 7.78015,-1.5928563 10.84739,-1.0980565 1.44237,0.2326795 2.66714,0.3697554 2.7217,0.3046132 0.0546,-0.065142 0.91346,-1.7059403 1.90866,-3.6462179 0.9952,-1.9402773 2.58885,-4.5596523 3.54146,-5.8208333 4.61088,-6.104489 12.28081,-12.355519 18.85041,-15.363181 3.84103,-1.758482 6.09024,-1.359271 9.00441,1.598184 4.59943,4.66775 8.84472,12.42017 10.63878,19.4277162 1.35343,5.2864175 1.50289,13.1201167 0.33955,17.7970016 -0.53978,2.1700372 -2.52523,6.5954562 -3.76185,8.3848612 -0.50526,0.731119 -0.85538,1.382518 -0.77805,1.447553 0.0773,0.06504 1.47668,0.622684 3.10966,1.239218 8.00192,3.021126 14.79359,9.166362 17.91179,16.206915 2.15641,4.868946 2.8,10.811949 1.68372,15.547573 -1.35569,5.751233 -5.87093,11.300326 -11.45207,14.074231 -1.64924,0.819693 -3.88388,1.730386 -4.96587,2.023762 l -1.96725,0.533411 -0.62814,4.31429 c -1.12345,7.71628 -3.72883,21.484115 -5.02221,26.53929 -5.27261,20.608001 -15.67104,34.784091 -32.43502,44.218411 -1.76788,0.99491 -4.38725,2.30336 -5.82083,2.90766 -1.43358,0.6043 -2.74725,1.23151 -2.91926,1.3938 -0.17653,0.16655 0.45453,1.15596 1.44879,2.27149 4.02247,4.51311 5.31744,9.75686 3.36188,13.61333 -1.18025,2.32749 -3.05789,3.71549 -5.6926,4.20808 -1.04513,0.1954 -7.16334,0.35528 -13.59602,0.35528 -12.98891,0 -14.58956,-0.19939 -17.31537,-2.15691 -1.58563,-1.13872 -3.43679,-3.45258 -4.04773,-5.05945 -0.19748,-0.51943 -0.58489,-2.0275 -0.8609,-3.35127 -0.5711,-2.739 -1.51357,-4.77181 -2.74492,-5.92052 l -0.84633,-0.78954 -67.33658,-0.0129 -67.33657,-0.0129 -1.20235,1.15518 c -1.60196,1.53911 -2.18026,2.72527 -2.59856,5.32992 -0.49164,3.06127 -1.89902,5.98347 -3.6663,7.6125 -1.93264,1.78145 -3.05904,2.34661 -5.62072,2.82016 -2.32624,0.43003 -23.68644,0.47691 -25.41629,0.0558 z m 24.02271,-7.21688 c 2.24656,-1.04608 2.99751,-2.21845 4.60078,-7.18268 1.06542,-3.29887 1.44611,-4.02055 2.93046,-5.55529 0.93828,-0.97014 1.91407,-2.3592 2.16841,-3.08681 l 0.46243,-1.32291 h 71.48944 71.48944 l 0.67094,1.49013 c 0.36901,0.81957 1.40853,2.25173 2.31003,3.18257 1.39835,1.44387 1.75382,2.1188 2.42027,4.59529 1.27515,4.73843 2.58825,6.79437 5.0908,7.97071 1.50481,0.70734 2.13115,0.75175 10.33696,0.73305 9.37337,-0.0214 10.87781,-0.24177 11.60261,-1.69983 0.62595,-1.25922 -0.0212,-2.64031 -2.047,-4.3684 -4.42405,-3.77393 -4.021,-3.15289 -6.23719,-9.61047 -2.888,-8.41511 -3.94366,-10.26434 -6.42673,-11.25787 -5.01703,-2.00742 -9.84147,1.52412 -9.85046,7.21063 -0.003,1.7902 -0.83558,2.81252 -2.291,2.81252 -0.94053,0 -1.3624,-0.24089 -2.00792,-1.14653 -0.69287,-0.97206 -0.81611,-1.57598 -0.80986,-3.96875 0.006,-2.45559 0.14382,-3.07309 1.05778,-4.75335 2.31163,-4.24978 5.72221,-6.39017 10.57542,-6.63686 2.30756,-0.1173 3.2066,0.001 4.92998,0.6513 3.92616,1.48043 7.13498,5.3928 7.91451,9.64982 0.21008,1.14725 0.45548,2.15944 0.54535,2.2493 0.32747,0.32747 6.11156,-1.89908 9.92614,-3.82101 11.38779,-5.73759 20.72253,-15.08654 26.22708,-26.26697 2.72111,-5.52693 4.28214,-10.04132 6.34329,-18.344446 1.95036,-7.856796 4.61504,-20.018744 4.61504,-21.063638 v -0.870233 l -3.08681,0.465416 c -10.35178,1.560799 -30.81464,3.429151 -43.83263,4.002119 -10.89469,0.479512 -190.16638,0.474682 -199.70869,-0.0054 -13.95615,-0.70212 -33.67324,-2.546457 -41.42797,-3.875172 -4.66437,-0.799205 -4.39666,-0.799178 -4.39666,-4.52e-4 0,1.26452 2.45648,13.299969 4.09856,20.080739 1.86741,7.711246 3.95124,14.276457 5.81076,18.307027 4.477,9.70407 11.92197,18.36527 20.72973,24.11621 4.86803,3.17853 15.78432,7.96397 16.51049,7.2378 0.12416,-0.12417 0.35607,-1.05014 0.51535,-2.05772 0.62849,-3.97578 3.43136,-7.767 6.95861,-9.41234 1.73701,-0.81025 2.45713,-0.93229 5.52511,-0.93637 3.18237,-0.004 3.71029,0.0915 5.39191,0.97751 3.97229,2.09295 6.7781,6.31572 6.77864,10.20191 4.6e-4,3.28623 -1.12755,5.22007 -3.04487,5.22007 -1.48066,0 -2.09097,-0.90023 -2.40178,-3.54272 -0.94297,-8.01692 -9.67491,-9.91541 -13.21223,-2.87258 -0.55403,1.10307 -1.90287,4.44074 -2.99744,7.41706 -1.09456,2.97631 -2.18616,5.77164 -2.42578,6.21185 -0.23962,0.4402 -1.3088,1.50466 -2.37595,2.36546 -3.42994,2.76672 -4.0414,5.21013 -1.66623,6.65833 1.04896,0.63957 1.80677,0.69313 9.78012,0.69117 8.35318,-0.002 8.70334,-0.0302 10.44076,-0.83921 z m 188.3495,-92.998489 c 19.98006,-0.981487 38.80342,-3.499489 47.25619,-6.321463 5.64262,-1.8838 9.1536,-4.757628 11.3102,-9.257695 1.07287,-2.238709 1.22828,-2.903624 1.22033,-5.221198 -0.0263,-7.675322 -6.08064,-15.799721 -14.56635,-19.546852 -3.88804,-1.716889 -13.83285,-4.452482 -16.18404,-4.451866 -0.34023,8.9e-5 -0.46133,0.71781 -0.46133,2.734027 0,2.73205 9.8e-4,2.734893 1.4521,4.186007 0.79865,0.798655 1.72251,2.160175 2.05302,3.025599 l 0.60093,1.573498 2.00392,-0.139261 c 1.47239,-0.102324 1.86356,-0.04074 1.47475,0.232193 -0.35828,0.2515 -0.38676,0.3732 -0.0882,0.376857 0.24254,0.003 0.44098,0.181137 0.44098,0.395923 0,0.214787 -0.23622,0.299875 -0.52494,0.189085 -0.28871,-0.11079 -0.50804,-0.08809 -0.48739,0.05045 0.12285,0.824207 -0.24479,1.157513 -2.00189,1.814928 -4.00876,1.49987 -13.64323,2.896025 -23.44412,3.397343 -2.23131,0.114133 -4.61256,0.293505 -5.29166,0.398606 -1.78739,0.276625 -128.65267,0.558105 -130.44626,0.289425 -1.92457,-0.288298 -2.78546,-1.396365 -2.15682,-2.776079 0.52341,-1.148757 1.16687,-1.353097 4.41664,-1.402566 1.42866,-0.02175 2.59756,-0.162905 2.59756,-0.313683 0,-0.544938 -2.82738,-3.085346 -4.30689,-3.869749 -1.25349,-0.664573 -2.12085,-0.812377 -5.04172,-0.85914 l -3.52778,-0.05648 -0.99181,-1.360358 c -2.64269,-3.624673 -5.15887,-5.166434 -9.41742,-5.770405 -3.36632,-0.477431 -6.20313,0.0058 -9.45745,1.610926 -4.7421,2.338975 -8.0537,6.570031 -9.14325,11.681846 -0.32343,1.517417 -0.75476,2.875572 -0.95851,3.018121 -0.54807,0.383456 -45.34214,0.316206 -54.23857,-0.08143 -7.92683,-0.354298 -17.81443,-1.158891 -21.8027,-1.77417 -6.61688,-1.020803 -11.89989,-3.041639 -12.87346,-4.924299 -1.56111,-3.018869 0.60699,-6.543139 5.94625,-9.665653 1.2876,-0.753019 2.3411,-1.484965 2.3411,-1.626547 0,-0.306245 -5.29349,0.505489 -8.29028,1.27128 -2.92115,0.746463 -7.96414,2.78991 -10.35482,4.195829 -5.51414,3.24278 -10.190671,9.416621 -11.553822,15.253072 -0.707815,3.030574 -0.468581,4.802149 1.08454,8.03122 2.816802,5.856378 8.039362,9.050069 18.155462,11.102412 10.38971,2.107852 28.43755,4.047075 42.53253,4.57008 10.93087,0.405599 204.50519,0.423947 212.72498,0.02016 z m 36.86527,-32.275585 c 0,-0.09701 0.0794,-0.176389 0.17639,-0.176389 0.097,0 0.17639,0.07937 0.17639,0.176389 0,0.09701 -0.0794,0.176389 -0.17639,0.176389 -0.097,0 -0.17639,-0.07938 -0.17639,-0.176389 z m 0.70556,-1.058333 c 0,-0.09701 0.0794,-0.176389 0.17639,-0.176389 0.097,0 0.17639,0.07938 0.17639,0.176389 0,0.09701 -0.0794,0.176389 -0.17639,0.176389 -0.097,0 -0.17639,-0.07937 -0.17639,-0.176389 z m 0.70555,0 c 0,-0.09701 0.0794,-0.176389 0.17639,-0.176389 0.097,0 0.17639,0.07938 0.17639,0.176389 0,0.09701 -0.0794,0.176389 -0.17639,0.176389 -0.097,0 -0.17639,-0.07937 -0.17639,-0.176389 z M 204.0412,35.386777 c 1.69188,-5.412624 6.43631,-11.241321 10.93214,-13.430514 0.96797,-0.471342 1.76611,-0.97568 1.77365,-1.120751 0.0279,-0.537087 2.69876,-4.055396 5.17858,-6.821714 l 2.55675,-2.852147 -2.36151,-0.823774 c -5.05677,-1.763973 -16.23635,-7.1591168 -16.83204,-8.1229549 -0.36211,-0.5859186 -1.47222,-0.3754879 -1.9788,0.3751011 -0.27183,0.4027691 -1.04378,0.8063468 -1.76099,0.9206503 -1.16992,0.1864527 -1.36219,0.089344 -2.29306,-1.1581045 -4.32492,-5.7958149 -9.72068,-8.5983654 -16.53716,-8.5893792 -3.57355,0.00471 -6.07371,0.5619348 -8.87062,1.9770428 -2.16814,1.09698 -5.64529,4.11921461 -6.56489,5.7060104 l -0.61772,1.0658987 1.71622,1.4368976 c 2.06288,1.727141 4.07191,4.5971616 4.67172,6.6738267 0.41268,1.42876 0.38817,1.568293 -0.41674,2.372705 -0.47036,0.47007 -1.35733,0.954976 -1.97105,1.077569 -0.93647,0.187064 -1.24839,0.06368 -1.94028,-0.767476 -2.44627,-2.938677 -4.03856,-4.39379 -5.88483,-5.3778411 -6.73742,-3.5910077 -14.51476,-2.6716855 -20.80786,2.4595971 -2.95037,2.405687 -4.94307,5.778148 -5.85479,9.90871 -0.16861,0.763905 -0.10219,0.918581 0.3242,0.754962 0.80522,-0.308993 2.17948,0.75774 2.38914,1.854509 0.3528,1.845519 -1.09838,3.308955 -3.28124,3.308955 -1.08201,0 -6.11907,2.745564 -7.48474,4.079732 -2.27739,2.224857 -1.72637,2.955923 3.2632,4.329472 4.44613,1.223952 9.56649,1.985503 17.81527,2.649672 0.77611,0.06249 13.29558,0.10012 27.82103,0.08362 l 26.40992,-0.03 z m 57.39925,0.08401 c 2.27066,-4.134618 7.54236,-8.136497 11.50608,-8.734555 1.32759,-0.200311 1.61078,-0.421994 2.55166,-1.997487 1.45993,-2.444651 4.98315,-5.650065 7.65028,-6.960212 4.62328,-2.271047 10.79207,-2.711111 15.31836,-1.092767 1.14322,0.40875 2.23733,0.775257 2.43136,0.814459 0.19402,0.0392 0.43215,0.151554 0.52916,0.249671 0.097,0.09812 1.08705,0.855698 2.20008,1.683513 1.11303,0.827816 2.3732,1.977851 2.80037,2.555634 0.78932,1.067603 2.38164,1.466082 2.43574,0.609542 0.0223,-0.352778 0.0634,-0.352778 0.20578,0 0.17827,0.441794 1.17748,0.631991 1.17748,0.224129 0,-0.688175 -3.89098,-7.122086 -5.0198,-8.300457 -0.25212,-0.263193 -0.99357,-1.163539 -1.64767,-2.00077 -1.13917,-1.458125 -1.25039,-1.513 -2.64076,-1.30292 -0.79832,0.120625 -1.769,0.359614 -2.15705,0.531088 -2.84105,1.255399 -20.33245,3.685699 -28.92778,4.019299 l -3.175,0.123227 -4.58611,2.855014 c -4.46437,2.77923 -12.17083,8.58447 -12.17083,9.168235 0,0.159901 0.75406,0.666702 1.6757,1.126225 2.16821,1.081065 5.00745,3.932051 6.43514,6.461776 0.66512,1.178537 1.36847,1.998294 1.71242,1.995828 0.34389,-0.0025 1.0404,-0.835818 1.69539,-2.028472 z m 7.53135,-18.957618 c 0,-0.09701 0.0794,-0.176389 0.17639,-0.176389 0.097,0 0.17639,0.07937 0.17639,0.176389 0,0.09701 -0.0794,0.176388 -0.17639,0.176388 -0.097,0 -0.17639,-0.07937 -0.17639,-0.176388 z m 48.33055,20.07137 c 0,-1.23946 -1.56016,-4.286555 -2.91671,-5.696533 -1.98951,-2.067863 -5.8404,-3.037904 -8.72728,-2.198406 -1.17527,0.341764 -1.28088,0.29679 -2.27817,-0.970138 -3.11667,-3.959342 -6.16228,-5.706599 -10.4606,-6.001212 -2.22842,-0.15274 -3.20377,-0.04189 -5.14656,0.584915 -4.19467,1.353333 -6.83818,3.783546 -8.34321,7.670021 l -0.79858,2.062203 -2.16361,0.05305 c -1.45891,0.03577 -2.7811,0.335746 -4.05946,0.920998 -1.94378,0.889894 -4.4947,3.17081 -4.4947,4.018957 0,0.393691 4.22929,0.475051 24.69444,0.475051 h 24.69444 z m 70.02638,0.09615 c 6.49786,-0.852819 10.45517,-1.673594 10.31023,-2.138412 -0.0669,-0.214619 -0.65809,-0.662671 -1.31369,-0.995671 -0.65561,-0.332999 -1.51291,-0.926353 -1.90512,-1.318564 -0.64904,-0.649033 -0.67374,-0.848223 -0.27493,-2.216768 0.241,-0.827012 0.62071,-2.47629 0.84381,-3.665063 0.58257,-3.104257 -0.2472,-7.04321 -2.40582,-11.420538 -1.39541,-2.829655 -2.15273,-3.848505 -4.86469,-6.5446395 C 382.95076,3.6411111 378.05095,1.2923083 372.1566,0.92117671 366.38089,0.55751544 360.88451,2.567612 357.738,6.1942452 c -1.99578,2.3003115 -2.65218,2.2368446 -5.5181,-0.5335472 -3.48993,-3.3735909 -9.71832,-6.30337273 -16.32563,-7.6794308 l -3.10391,-0.6464299 -3.24609,2.10239796 c -5.0034,3.24055964 -11.22057,6.26878984 -18.73888,9.12724514 -0.84342,0.3206688 -0.82542,0.3610918 2.13513,4.7941686 4.31183,6.456473 8.60095,15.290413 10.41093,21.4425 l 0.80588,2.739188 29.29265,-0.128872 c 25.0648,-0.110271 29.95456,-0.215746 33.87875,-0.730781 z M 245.96053,22.58161 c 4.44956,-3.527425 7.00437,-5.377379 8.68639,-6.289863 1.03923,-0.563772 0.97871,-0.578524 -3.33264,-0.812361 -5.73012,-0.310789 -11.60979,-1.097071 -15.04375,-2.011784 -1.51409,-0.403313 -3.1203,-0.816325 -3.56936,-0.917805 -0.67034,-0.151487 -1.38217,0.395384 -3.9774,3.05565 -1.73851,1.782087 -3.08327,3.365816 -2.98836,3.519396 0.0949,0.15358 1.33791,0.301387 2.7622,0.32846 4.22065,0.08022 8.76284,1.984719 11.58031,4.855514 0.83827,0.854128 1.5738,1.552961 1.63453,1.552961 0.0607,0 1.97236,-1.476075 4.24808,-3.280168 z M 129.47428,17.751772 c 0.60192,-0.0032 0.88184,-0.482813 1.57875,-2.704983 0.81862,-2.610247 0.82502,-2.714073 0.19048,-3.086805 -1.33756,-0.785683 -6.09791,-4.2308753 -8.24448,-5.966757 -2.28628,-1.8488621 -2.94581,-3.0379349 -2.19008,-3.9485284 0.74876,-0.902203 1.97707,-0.5818051 4.11034,1.0721598 2.51755,1.9519089 6.83969,4.8582647 6.98313,4.6956969 0.0577,-0.065357 -0.20071,-1.5475814 -0.57418,-3.2938313 -0.56635,-2.6481776 -0.65701,-4.23767645 -0.54637,-9.579436 l 0.13265,-6.404436 -3.73177,-1.777907 c -6.39179,-3.045204 -10.89195,-4.015203 -18.90122,-4.074114 l -4.93888,-0.03633 0.0805,2.950579 c 0.13727,5.0328986 2.48597,14.09014405 4.85614,18.7266624 2.52229,4.9340769 7.80997,10.4408576 11.8081,12.2973716 2.02601,0.940766 5.33687,1.50916 7.42055,1.273929 0.6791,-0.07667 1.56396,-0.141138 1.96636,-0.143274 z m 276.80094,-0.566263 c 0.99966,-0.326611 2.35286,-1.200028 3.40062,-2.19491 6.20784,-5.8946031 6.62746,-18.8512212 0.95865,-29.600466 -1.66786,-3.16262 -5.69394,-8.564462 -6.38323,-8.564462 -1.66038,0 -9.62469,5.354681 -12.95638,8.711012 -3.04781,3.070361 -5.18867,5.9393358 -6.96089,9.3283261 -1.52466,2.9155662 -1.55159,2.7629737 0.70169,3.975254 2.09974,1.12967801 4.9946,3.452248 7.50748,6.0233218 1.50438,1.5392153 2.4983,2.3121953 2.65264,2.0629802 0.8019,-1.2948351 5.21784,-6.13064264 5.75364,-6.3006999 0.98031,-0.31113702 2.0779,0.4467629 2.0779,1.4348104 0,0.4776838 -0.51716,1.4642858 -1.14925,2.1924488 -1.01726,1.1718715 -3.11937,3.7537241 -4.4296,5.4405131 -0.386,0.4969445 -0.29727,0.9097175 0.56879,2.6458335 0.56438,1.131366 1.30579,2.802445 1.64758,3.713507 0.42156,1.12368 0.86369,1.708706 1.3746,1.818858 1.08314,0.233526 3.31634,-0.05921 5.23576,-0.686327 z M 277.46815,8.0433689 c 10.21809,-1.0783417 17.19589,-2.5709179 25.5467,-5.4645323 20.57804,-7.1304317 33.06666,-15.7769046 42.05772,-29.1185736 1.66205,-2.466291 5.74367,-10.437898 5.74367,-11.217679 0,-0.290675 -0.80404,-1.216206 -1.78674,-2.056734 -0.98271,-0.840528 -2.76865,-2.42379 -3.96875,-3.518359 -2.07234,-1.890095 -4.91117,-4.220213 -7.02911,-5.769507 -0.5316,-0.388868 -2.50143,-1.886491 -4.3774,-3.328049 -4.3476,-3.340837 -12.26123,-8.221515 -17.69264,-10.91182 -6.15403,-3.048231 -5.91252,-3.064405 -4.27031,0.285978 0.76417,1.559023 1.88703,4.304223 2.49525,6.100445 0.9514,2.809728 1.12912,3.908516 1.27243,7.867252 0.20033,5.533426 -0.48271,8.817943 -2.81999,13.560485 -2.03347,4.126093 -6.89644,9.053922 -11.03524,11.18243 -6.89348,3.545186 -15.33047,4.839824 -22.54446,3.459397 -6.55423,-1.254177 -10.36355,-2.582807 -19.2538,-6.715415 -7.07671,-3.289589 -10.6782,-4.044135 -15.90976,-3.333249 -3.01554,0.409765 -5.6985,1.364905 -13.72947,4.887721 -5.46472,2.397121 -9.53777,3.514462 -14.3487,3.936209 -3.97616,0.348569 -8.49427,0.07591 -10.87491,-0.656268 -2.1808,-0.670719 -6.57941,-2.548725 -7.85263,-3.352711 -1.92809,-1.217512 -4.74789,-3.703227 -6.26347,-5.521384 l -1.32331,-1.5875 0.26265,1.234722 c 0.86468,4.06483 3.83421,10.69145 6.59678,14.720953 2.25971,3.296041 6.89957,7.9655367 10.78485,10.8537485 1.56481,1.1632396 2.77106,2.2348021 2.68055,2.3812498 -0.0905,0.1464477 0.0972,0.2662686 0.41707,0.2662686 0.3199,0 0.84521,0.3133087 1.16735,0.6962416 0.77778,0.9245478 8.71717,4.5259012 13.9726,6.3380496 6.61054,2.2794119 15.38269,4.2638019 21.7145,4.9121391 5.29616,0.542294 24.78343,0.4579062 30.36857,-0.1315083 z M 143.47112,2.0579993 c 2.67151,-1.46765378 2.69318,-1.52531323 1.8279,-4.8645301 -0.6706,-2.5879325 -0.45985,-3.6965882 0.76094,-4.0029871 1.25117,-0.3140238 1.54986,0.1102481 2.43665,3.4610788 l 0.77496,2.92827465 4.5522,0.0113418 c 2.50371,0.006238 5.10783,0.12670031 5.78693,0.26769401 1.15753,0.24032568 1.29537,0.16764415 2.20486,-1.16257856 1.21233,-1.7731686 1.20817,-2.1480856 -0.0625,-5.6298924 -1.15836,-3.1739784 -3.44243,-7.1881374 -6.14958,-10.8076444 -2.19643,-2.936668 -9.70632,-10.724752 -10.34165,-10.724752 -0.57738,0 -3.59177,6.170077 -5.21251,10.669351 -2.4297,6.744983 -3.25447,13.9298958 -2.29842,20.0223137 0.53456,3.4064928 0.50967,3.3794936 2.01631,2.1872195 0.72748,-0.5756844 2.39425,-1.6353844 3.70394,-2.3548889 z M 355.3271,-7.9293132 c 5.44168,-8.1264398 7.03094,-10.7503908 6.60018,-10.8972228 -0.19323,-0.06586 -2.12386,-1.292198 -4.29029,-2.72519 l -3.93897,-2.60544 -3.08084,4.636557 c -1.69446,2.550106 -4.50754,6.645272 -6.25128,9.100367 -1.74375,2.4550962 -3.18859,4.5725039 -3.21075,4.7053508 -0.0222,0.132847 1.50186,0.7579658 3.38672,1.3891529 1.88487,0.6311871 4.02799,1.5505772 4.7625,2.0430891 0.73451,0.4925119 1.44857,0.8295609 1.5868,0.7489978 0.13822,-0.080563 2.13439,-2.9586109 4.43593,-6.3956618 z m 20.21547,-11.8515218 c 1.03142,-1.691455 0.88025,-3.486436 -0.41815,-4.965233 -0.6005,-0.683931 -4.13395,-3.269143 -7.85211,-5.744914 -10.53737,-7.016406 -10.45885,-6.971855 -10.45885,-5.934478 0,0.27896 -0.63277,1.668023 -1.40615,3.086805 -0.77338,1.418782 -1.40569,2.897104 -1.40514,3.28516 7.4e-4,0.512805 1.12079,1.428369 4.09989,3.351388 2.25438,1.455208 6.00551,3.877615 8.33583,5.383125 2.33032,1.505511 4.7297,2.868635 5.33195,3.029166 1.51199,0.40302 2.96889,-0.17276 3.77273,-1.491019 z M 292.46328,-27.4056 c 8.06258,-2.032631 13.71112,-7.019458 16.05478,-14.174 1.09751,-3.350391 1.19092,-9.521463 0.19399,-12.81556 -1.34223,-4.43503 -5.24742,-10.994624 -8.78511,-14.756485 -1.41203,-1.501499 -1.78226,-1.676288 -6.43709,-3.039017 -8.67432,-2.539461 -23.01944,-5.115853 -33.69027,-6.050794 -6.08118,-0.532812 -26.65898,-0.544808 -32.57664,-0.01899 -8.27408,0.735198 -15.94733,2.031072 -23.69141,4.001052 -2.32834,0.592294 -4.44578,1.2473 -4.70544,1.455569 -0.58536,0.46952 -3.05332,5.353058 -4.95713,9.809042 -3.07531,7.197966 -3.84286,14.470095 -2.08677,19.770913 3.08767,9.320241 10.20428,14.91675 19.55277,15.376327 6.08714,0.299247 10.6418,-0.866222 18.90258,-4.836885 8.92071,-4.287869 13.55718,-5.388433 19.67603,-4.670528 4.07967,0.478655 6.8929,1.44328 13.70971,4.700904 5.81169,2.777293 10.93785,4.768263 13.99157,5.434238 3.44674,0.751685 11.53111,0.650532 14.84843,-0.185786 z m -71.85496,-9.698548 c -3.91594,-2.040087 -6.18442,-7.094233 -5.24509,-11.686003 l 0.36891,-1.803324 1.02663,0.95902 c 0.56465,0.527461 1.75633,1.163323 2.64819,1.413026 3.03628,0.850107 5.81342,-0.662431 7.2201,-3.932348 1.72412,-4.007808 0.30827,-9.265409 -2.99968,-11.138995 l -1.39863,-0.79217 2.29305,-0.0025 c 1.89386,-0.0021 2.60719,0.177678 4.09748,1.032446 6.04635,3.467922 8.72642,11.861649 6.06548,18.996514 -1.01132,2.711711 -4.64627,6.399667 -7.13899,7.243112 -2.47539,0.837577 -4.97513,0.73352 -6.93745,-0.288786 z m 47.40201,0.293517 c -1.83673,-0.650374 -4.6799,-3.156026 -5.84884,-5.154509 -4.8593,-8.307729 -0.10691,-20.844017 8.34071,-22.001893 0.88297,-0.121024 1.88312,-0.113473 2.22255,0.01678 0.52138,0.200069 0.44179,0.34347 -0.51279,0.923984 -2.21492,1.346978 -3.83873,5.385109 -3.41228,8.485775 0.47114,3.425583 3.64212,6.662706 6.52212,6.658171 1.51912,-0.0024 4.033,-1.102911 4.52612,-1.981434 0.35045,-0.624364 0.37705,-0.622138 0.65363,0.05471 0.59892,1.465713 0.28783,5.91072 -0.54318,7.76111 -2.13195,4.747172 -7.13672,6.940964 -11.94804,5.237308 z m -74.88575,5.698802 c 0,-0.09701 -0.0794,-0.176389 -0.17639,-0.176389 -0.097,0 -0.17638,0.07937 -0.17638,0.176389 0,0.09701 0.0794,0.176389 0.17638,0.176389 0.097,0 0.17639,-0.07937 0.17639,-0.176389 z m 181.25794,-5.649061 c 0.83594,-1.161627 3.23067,-4.731424 5.32162,-7.932882 2.09095,-3.201458 5.94398,-9.075208 8.56228,-13.052777 2.6183,-3.977569 5.35295,-8.184443 6.07701,-9.34861 0.72406,-1.164167 2.49789,-3.846033 3.94186,-5.959703 3.35124,-4.905537 3.45534,-5.815837 0.94969,-8.304538 -1.96578,-1.952486 -4.25646,-2.93817 -6.46221,-2.780705 -1.55037,0.110678 -1.58214,0.13971 -3.78933,3.463003 l -2.22585,3.351388 1.15817,0.116427 c 1.77536,0.17847 4.17547,-0.275012 4.17547,-0.788922 0,-0.249081 -0.3175,-0.740208 -0.70555,-1.091394 -0.85068,-0.769857 -0.87223,-1.01765 -0.15119,-1.73869 0.92668,-0.926683 1.93011,-0.632165 3.62678,1.064498 0.89037,0.890374 2.06912,1.939477 2.61944,2.331339 0.94201,0.670767 0.96629,0.750371 0.41481,1.359753 -0.78586,0.868361 -1.57015,0.990627 -7.73293,1.205516 l -5.28003,0.184108 -1.43519,2.277702 c -1.3109,2.080445 -2.4631,3.591122 -1.76308,2.311607 0.15923,-0.291042 0.15848,-0.410358 -0.002,-0.265148 -0.16015,0.145211 -0.33212,0.647981 -0.38215,1.117268 -0.0907,0.851011 -0.0839,0.852736 2.61587,0.657963 1.48876,-0.107407 2.77231,-0.252319 2.85234,-0.322027 0.16123,-0.140448 -0.42911,-1.381509 -1.10818,-2.329681 -0.36505,-0.50971 -0.31689,-0.73421 0.28709,-1.338186 1.00395,-1.003948 1.8896,-0.587246 4.78533,2.251508 2.14495,2.102755 2.29595,2.344847 1.76324,2.826944 -1.02922,0.931433 -2.23871,1.105525 -7.68052,1.105525 H 379.48 l -0.80052,1.218493 c -0.44029,0.670171 -1.33834,2.059233 -1.99567,3.086805 l -1.19514,1.868313 h 2.66774 c 3.0646,0 3.5151,-0.40014 2.32779,-2.067564 -0.7045,-0.989378 -0.70976,-1.067099 -0.12113,-1.790458 0.54255,-0.666741 0.74877,-0.709472 1.74344,-0.361269 0.64201,0.224748 1.99956,1.387508 3.15053,2.698488 l 2.02243,2.303574 -0.85748,0.659103 c -0.47161,0.362507 -1.0956,0.667902 -1.38664,0.678656 -0.29104,0.01075 -2.91042,0.07988 -5.82083,0.153603 l -5.29167,0.13405 -1.85208,2.864907 c -1.01865,1.575698 -1.85209,2.938857 -1.85209,3.029241 0,0.234384 2.75935,0.196125 4.30687,-0.05971 l 1.30825,-0.216286 -0.77908,-1.359444 c -0.87974,-1.535072 -0.60066,-2.521005 0.77124,-2.724638 0.76667,-0.113798 1.79548,0.769243 4.49842,3.861051 1.96056,2.242627 0.7744,2.764927 -6.52499,2.873124 l -5.6196,0.0833 -1.62639,2.573957 c -0.89451,1.415676 -1.62638,2.804739 -1.62638,3.086806 0,0.405875 0.58867,0.512848 2.82222,0.512848 1.55222,0 2.82222,-0.08278 2.82222,-0.183953 0,-0.101173 -0.40939,-0.80259 -0.90977,-1.558704 -0.74807,-1.130414 -0.83991,-1.505268 -0.51675,-2.109102 0.68214,-1.274586 1.73333,-0.851845 4.46273,1.794712 1.43453,1.390985 2.60824,2.656908 2.60824,2.813162 0,0.156255 -0.45532,0.519551 -1.01181,0.807325 -1.23832,0.640361 -10.42766,1.039042 -11.4416,0.496396 -0.75139,-0.40213 -1.62702,0.450528 -1.64649,1.603285 -0.0104,0.618736 1.60068,2.332704 2.19365,2.33367 0.37907,6.17e-4 0.32685,-0.624998 -0.0728,-0.871991 -0.54676,-0.337919 3.4e-4,-1.244245 0.75108,-1.244245 0.66586,0 2.04401,0.585336 2.40851,1.022951 1.16044,1.39321 4.37423,3.940538 4.85476,3.847996 0.33609,-0.06472 1.29503,-1.068104 2.13097,-2.229731 z m -19.88391,-9.08483 c 1.04978,-1.60217 4.09946,-15.373933 4.06627,-18.362508 -0.0368,-3.31644 -11.71008,-15.494913 -21.83101,-22.775857 -10.06493,-7.240667 -23.58088,-13.826375 -38.00836,-18.519755 -5.48102,-1.78302 -14.76197,-4.15473 -19.49594,-4.98211 -1.6642,-0.29086 -3.4227,-0.60799 -3.90777,-0.70473 -0.48507,-0.0967 -2.23132,-0.34222 -3.88056,-0.5455 -1.64923,-0.20329 -3.39548,-0.43052 -3.88055,-0.50497 -7.08481,-1.08735 -28.54248,-1.10521 -37.21805,-0.031 -11.94846,1.4795 -27.22911,5.44127 -35.2106,9.12894 -3.23045,1.49256 -3.2792,1.57402 -5.52832,9.236902 -1.74991,5.962044 -2.82914,11.963951 -2.82914,15.733666 0,2.984552 0.10246,3.117157 1.75018,2.265093 1.52516,-0.788696 11.11078,-3.913689 15.12997,-4.932501 3.52937,-0.89465 11.87386,-2.409294 15.57541,-2.82716 1.06715,-0.120471 3.84527,-0.45575 6.17361,-0.745064 2.32833,-0.289315 8.91646,-0.618607 14.64027,-0.731761 13.84474,-0.273694 22.09582,0.395394 37.92361,3.075264 26.21416,4.438428 49.07111,14.991105 68.61527,31.67855 1.26118,1.076836 3.11699,2.719678 4.12403,3.650758 2.02057,1.868177 3.00166,2.099422 3.79168,0.893703 z M 187.4856,-63.126409 c 0.003,-0.242535 0.63631,-1.858189 1.40734,-3.590343 0.77104,-1.732153 1.33959,-3.211665 1.26345,-3.287804 -0.0761,-0.07614 -0.78882,0.193367 -1.58373,0.598901 -1.42014,0.724499 -1.4453,0.770221 -1.4453,2.626346 0,1.038956 -0.0992,2.385105 -0.22048,2.991441 -0.14242,0.712089 -0.08,1.102431 0.17638,1.102431 0.21829,0 0.39934,-0.198438 0.40234,-0.440972 z M 358.41236,-78.64863 c -0.30778,-4.186598 -0.75199,-7.108648 -1.6491,-10.847916 -3.81478,-15.900334 -10.88935,-28.853974 -21.00348,-38.457654 -3.85886,-3.66411 -6.17957,-5.46564 -9.99393,-7.75813 -3.13727,-1.88556 -3.72708,-2.09289 -3.37988,-1.18811 0.30173,0.7863 -0.40571,1.54279 -1.44276,1.54279 -0.47237,0 -3.35012,-1.23806 -6.395,-2.75123 -10.18241,-5.06024 -19.26126,-8.04585 -30.42384,-10.005 -3.61674,-0.63477 -5.82638,-0.77582 -12.50674,-0.79835 -7.81192,-0.0264 -10.1329,0.1502 -18.62098,1.41647 -17.06721,2.5461 -35.51681,12.07141 -46.24062,23.87346 -3.06206,3.36994 -6.35012,7.5654 -8.009,10.21923 -0.63874,1.02185 -1.4784,2.2151 -1.8659,2.65166 -0.92725,1.04467 -0.3219,1.02581 2.19656,-0.0685 8.32224,-3.61598 15.20963,-5.37222 27.71869,-7.06812 21.50612,-2.91566 44.84075,-1.52085 65.45875,3.91276 8.75691,2.30776 20.11271,6.4081 27.85823,10.05899 3.39471,1.60011 6.20681,3.15388 13.82667,7.639627 1.48662,0.875164 2.80833,1.557648 2.93713,1.516632 0.1288,-0.04102 0.49997,0.226941 0.82482,0.595461 0.32486,0.368521 2.09877,1.752862 3.94204,3.076314 5.77251,4.144628 11.56223,9.386364 14.909,13.497909 0.98711,1.212673 1.86325,2.204861 1.94699,2.204861 0.0837,0 0.0443,-1.468438 -0.0876,-3.263194 z m -93.32112,-69.93819 c 0,-0.097 0.0794,-0.17639 0.17639,-0.17639 0.097,0 0.17639,0.0794 0.17639,0.17639 0,0.097 -0.0794,0.17639 -0.17639,0.17639 -0.097,0 -0.17639,-0.0794 -0.17639,-0.17639 z"
       id="path129" /></g></svg>
