<?xml version="1.0" encoding="UTF-8" standalone="no"?>
<!-- Created with Inkscape (http://www.inkscape.org/) -->

<svg
   width="306.36591mm"
   height="269.89026mm"
   viewBox="0 0 306.36594 269.89022"
   version="1.1"
   id="svg1"
   xml:space="preserve"
   xmlns="http://www.w3.org/2000/svg"
   xmlns:svg="http://www.w3.org/2000/svg"><defs
     id="defs1"><clipPath
       clipPathUnits="userSpaceOnUse"
       id="clipPath6"><path
         id="path7"
         style="fill:#ff0000;fill-opacity:1;fill-rule:nonzero;stroke:none;stroke-width:0.264583"
         d="M -175.07778,-16.057127 V 287.55793 H 124.54631 V -16.057127 Z m 132.7459,202.572647 c 0.210643,0.005 0.427212,0.0169 0.650089,0.0367 2.23823,0.19855 4.475655,0.4031 6.717938,0.55346 1.973313,0.11308 0.986628,0.0436 2.958475,0.20825 3.181295,0.26563 4.740125,1.85116 4.950601,3.46956 4.949923,1.63749 3.796379,7.35609 -2.592089,6.81354 -3.228716,-0.27422 -1.569593,-0.1301 -4.979024,-0.43357 -4.228209,-0.39317 -8.460616,-0.76265 -12.666927,-1.35341 -6.647387,-0.93358 -5.930551,-7.21034 0.03204,-7.20421 0.04685,5e-5 0.0972,0.004 0.144695,0.005 0.687229,-1.21692 2.304132,-2.15435 4.784204,-2.09548 z" /></clipPath><clipPath
       clipPathUnits="userSpaceOnUse"
       id="clipPath76"><path
         id="path77"
         style="fill:#ff0000;fill-opacity:1;fill-rule:nonzero;stroke:none;stroke-width:0.264583"
         d="M -133.83107,-122.52355 V 173.82063 H 122.97289 V -122.52355 Z M 13.574404,98.948202 c 2.788179,0.0507 4.135003,2.063798 3.398242,4.077268 0.199805,0.45372 0.374906,0.96736 0.517797,1.54461 1.07913,4.35948 0.671079,8.891 0.311608,13.31495 -0.351859,3.06036 -0.147137,1.57974 -0.604097,4.44366 -0.359666,2.25418 -1.333846,3.66838 -2.455664,4.32532 0.105138,0.36595 0.224724,0.72888 0.324528,1.09554 0.6273,2.23652 0.575201,4.47401 0.39429,6.75514 -0.137303,1.73129 -0.688065,2.99533 -1.427303,3.82199 -0.112477,0.41601 -0.170275,0.80219 -0.311092,1.25212 -0.184975,0.59102 -0.413327,1.1061 -0.670242,1.55856 0.741137,-0.23134 1.446982,-0.38145 2.064991,-0.37517 4.085002,0.0415 5.222724,4.75435 -0.02223,7.27138 -4.46677,2.14368 -9.303523,3.34693 -14.11903492,4.40955 -4.40876268,0.85156 -8.89238128,1.33053 -13.38264308,1.19269 -5.804014,-0.17807 -6.736297,-5.00293 -3.065447,-6.67298 -2.072987,-0.65744 -4.042852,-1.62261 -4.128947,-3.14709 -0.02802,-0.49633 0.0026,-0.90355 0.0341,-1.30897 -1.976731,-0.003 -3.95339,2.4e-4 -5.930386,0.003 -0.814031,0 -1.53062,-0.0962 -2.159559,-0.26149 -0.376306,0.19492 -0.742394,0.40783 -1.120862,0.59893 -6.391272,3.22657 -9.625245,-3.24074 -3.234428,-6.46886 1.833438,-0.92611 3.62694,-1.92211 5.414142,-2.92954 -0.877003,-3.87058 -1.368747,-7.83436 -1.323951,-11.80858 0.01651,-1.46304 0.376836,-2.54918 0.864547,-3.41426 -1.247357,-1.79999 -0.223805,-4.63069 3.842661,-5.68855 3.11826,-0.81116 6.282901,-1.39515 9.473837,-1.82211 -1.259816,-0.12657 -2.516182,-0.30233 -3.764627,-0.50177 -1.477002,-0.21985 -2.935575,-0.54305 -4.407482,-0.7891 -1.14214,-0.22954 -0.588502,-0.12004 -1.660882,-0.3297 -3.350244,-0.65501 -4.783278,-2.61088 -4.608504,-4.32997 -0.200179,-1.7721 1.333365,-3.52972 4.663799,-3.59461 v -5.3e-4 c 0.20954,-0.004 0.426035,-0.002 0.649571,0.008 1.77111,0.0772 3.528708,0.28204 5.26428,0.64027 1.655035,0.33225 3.314115,0.6481 4.955251,1.04439 1.244759,0.34858 2.51628,0.54538 3.7997689,0.6723 0.025956,0.002 0.052073,0.002 0.078034,0.004 0.4990888,-0.0371 0.9984105,-0.0743 1.4965495,-0.11317 1.346872,-0.12588 2.6913231,-0.25136 4.0457464,-0.24236 1.1278499,-0.0444 2.2567291,-0.10772 3.37498791,-0.26872 0.75719517,-0.11591 1.51142439,-0.25483 2.25722659,-0.4284 0.3616431,-0.12394 0.7240561,-0.24538 1.083138,-0.37775 0.3360393,-0.12388 0.6107589,-0.12825 0.9250071,-0.20723 0.1281086,-0.045 0.2583895,-0.0825 0.3855085,-0.13074 1.9825018,-0.7681 3.9540551,-1.56464 5.9510551,-2.29443 1.050809,-0.383992 1.999634,-0.542639 2.826703,-0.527616 z M 0.70283723,110.39557 c -0.45566013,0.0949 -0.90775367,0.208 -1.36890919,0.2744 -1.16638124,0.15534 -2.34111274,0.24237 -3.51761424,0.26251 0.4031694,0.0896 0.8047355,0.18876 1.2025101,0.308 0.1014836,0.0304 0.1982549,0.075 0.2986907,0.10852 0.4205235,-0.21824 0.9206601,-0.35072 1.4898318,-0.37156 0.39885139,-0.0146 0.83259872,0.0278 1.29449508,0.13023 0.22468681,-0.12213 0.44967525,-0.24374 0.67437529,-0.36587 -0.0326284,-0.11319 -0.058211,-0.22834 -0.0733795,-0.34623 z m 10.24433577,1.02474 c -0.76023,0.21437 -1.5189569,0.4343 -2.2696301,0.68006 -0.031261,0.62207 -0.2256075,1.28373 -0.6464723,1.94355 0.6236891,0.43248 1.2549743,1.04482 1.8634525,1.86862 0.2674939,0.36214 0.4748849,0.75712 0.7188199,1.13223 0.154519,-1.86707 0.314174,-3.74736 0.33383,-5.62446 z m 64.566086,3.39773 c 1.50346,0.0187 3.129182,1.24994 3.928441,4.04678 0.257931,0.90255 0.823497,1.65871 1.488797,2.30735 0.856321,0.95375 1.845738,1.76777 2.801898,2.61638 1.458581,1.46408 2.789203,3.04608 4.169772,4.58215 1.315059,1.44746 2.571226,2.91698 3.543967,4.61884 0.0053,0.01 0.0082,0.0206 0.01344,0.0305 0.734605,-0.43313 1.446276,-0.65634 2.094962,-0.69195 3.016182,-0.16561 4.69137,3.55377 1.187525,7.32306 -1.69471,1.82311 -3.657862,3.33908 -5.68751,4.7651 -0.777873,0.49914 -1.607691,0.90075 -2.418456,1.33842 0.165478,1.44344 -0.672182,3.24303 -2.956409,4.73096 -1.354556,0.88234 -2.690448,1.79306 -4.075203,2.6288 -2.075008,1.20078 -4.233777,2.27962 -6.540687,2.96259 -2.077586,0.62971 -4.169056,1.29987 -6.359301,1.36374 -1.872114,0.0897 -3.746989,0.0368 -5.620845,0.0501 h -5.1108 -5.524728 c -7.160125,0 -7.160125,-7.23315 0,-7.23315 h 1.347722 c 0.29438,-0.0541 0.5212,-0.1588 0.84801,-0.18656 1.106628,-0.094 2.200932,-0.28334 3.292822,-0.48421 0.456121,-0.98163 1.356053,-1.98213 2.807581,-2.83962 1.078018,-0.63685 2.158119,-1.26923 3.212209,-1.94561 1.962647,-1.29302 3.840588,-2.72135 5.893696,-3.86902 1.367169,-0.76424 2.559646,-1.07097 3.526915,-1.04128 2.216811,0.068 3.246223,1.90266 2.479953,4.04059 1.105688,-0.48686 2.206929,-0.98346 3.283003,-1.53739 2.619811,-1.23728 5.288743,-2.38548 7.764385,-3.9026 0.246153,-0.17184 0.487463,-0.34958 0.730705,-0.52503 -0.126915,-0.50614 -0.277693,-0.9939 -0.512114,-1.46554 -0.647621,-1.25778 -1.721077,-2.20654 -2.600875,-3.29644 -1.199229,-1.33472 -2.369312,-2.69496 -3.592029,-4.00803 -1.098706,-0.97599 -2.227236,-1.92181 -3.215306,-3.01428 -1.300821,-1.39063 -2.459913,-2.93896 -3.045293,-4.77801 -1.289469,-4.05101 0.646382,-6.61405 2.843754,-6.58667 z m -95.086705,4.28035 c -0.465643,0.10748 -0.930899,0.21773 -1.394745,0.33435 0.171958,0.64334 0.283575,1.36624 0.279569,2.2071 -0.01267,2.6582 0.205063,5.32647 0.670242,7.94732 0.280107,-0.17087 0.565767,-0.33222 0.845429,-0.50385 -0.01897,-0.36223 -0.02445,-0.73164 -0.05529,-1.08985 -0.118034,-2.96491 -0.160888,-5.93314 -0.3452,-8.89507 z m 18.5141159,1.1958 c 0.00497,0.0773 0.00619,0.15612 0.014975,0.23202 -0.1238779,0.22787 -0.2588048,0.44752 -0.3937741,0.66715 0.58900751,0.0447 1.13203305,0.21413 1.64331124,0.45888 -0.37615284,-0.49255 -0.78353709,-0.94642 -1.26452314,-1.35805 z m -6.5422357,14.57068 c -0.046649,0.0755 -0.09888,0.14702 -0.1436608,0.22376 -0.03147,0.054 0.1963367,0.0838 0.1860365,0.0222 -0.017595,-0.10481 -0.026035,-0.14905 -0.042376,-0.24597 z m 13.9236979,6.08439 c -0.2236258,0.5643 -0.5677508,1.09664 -1.1782213,1.50533 0.9079653,0.17659 1.7077452,0.44257 2.2830631,0.84852 0.1405493,-0.0459 0.272804,-0.11448 0.4128956,-0.16174 -0.7336976,-0.43656 -1.2984269,-1.18703 -1.5177374,-2.19211 z" /></clipPath><clipPath
       clipPathUnits="userSpaceOnUse"
       id="clipPath127"><path
         id="path128"
         style="fill:#ff0000;fill-opacity:1;fill-rule:nonzero;stroke:none;stroke-width:0.264583"
         d="M -112.24796,-126.55676 V 185.58027 H 148.5754 V -126.55676 Z M 46.874626,83.305366 c 1.808208,0 3.616317,1.790192 3.616317,5.370214 v 5.232238 c 0.0627,2.146078 -0.111291,4.285324 -0.245462,6.424932 -0.136289,2.02485 -0.190703,4.04985 -0.104904,6.07715 0.192061,1.91863 0.527714,3.82569 0.876432,5.72213 0.304242,2.00862 0.765826,3.9858 1.180806,5.97276 0.41642,1.86142 0.967934,3.68703 1.421104,5.53972 0.25287,0.86996 0.117097,0.46495 0.396356,1.22008 0.186108,0.50319 0.223428,0.93098 0.309544,1.38441 4.425355,2.23251 2.751262,7.58433 -3.415813,6.40477 -3.104732,-0.59371 -6.256094,-0.76586 -9.40821,-0.85576 -3.81635,0.009 -7.630525,0.17062 -11.44478,0.28216 -1.12776,0.0333 -2.255837,0.0512 -3.383772,0.0754 -0.908129,0.5548 -1.966518,0.57724 -2.88613,0.0641 -0.03584,5.3e-4 -0.07165,0.002 -0.107487,0.003 -0.03142,5.3e-4 -0.0525,-0.009 -0.08268,-0.009 -0.32049,0.14732 -0.641715,0.29301 -0.962215,0.44028 -0.262501,0.12062 -0.518089,0.22111 -0.770496,0.31265 -0.876996,0.71434 -1.945576,0.85817 -2.911967,0.46405 -2.943479,-0.21613 -4.295167,-2.77187 -2.550232,-5.0524 -2.22e-4,-0.028 -0.0078,-0.0483 -0.0078,-0.0765 v -6.3469 c -0.014,-2.72977 -0.02254,-5.45666 0.112657,-8.18348 0.135676,-2.32533 0.233519,-4.6523 0.299723,-6.98046 0.046,-1.80459 0.06926,-3.60958 0.08527,-5.41465 -0.0258,-1.02998 0.04009,-2.054459 0.138491,-3.078883 0.0044,-0.04602 0.02191,-0.07504 0.02687,-0.120406 C 15.992671,97.193438 15.83363,95.70984 16.656834,94.418959 10.68718,93.678613 10.992573,87.32947 17.739972,87.32947 h 3.885033 5.177462 5.913334 c 1.498505,0.05847 2.984222,-0.03228 4.475178,-0.161748 1.252041,-0.18606 2.49041,-0.398671 3.697968,-0.782897 1.001961,-0.32245 0.492366,-0.161472 1.527553,-0.482142 0.510384,-0.158096 0.938446,-0.174371 1.394749,-0.23771 0.672338,-1.56932 1.86623,-2.35903 3.063377,-2.35903 z" /></clipPath></defs><g
     id="layer1"
     transform="translate(136.2979,322.86451)"><path
       style="fill:#000000"
       d="m -22.388704,-53.484197 c -1.4699,-0.640252 -2.90299,-2.432731 -3.19671,-3.998401 -0.5526,-2.945614 1.4362,-6.60751 4.81341,-8.862722 2.19508,-1.465816 3.09986,-1.868571 6.07371,-2.703663 l 2.02847,-0.569618 0.005,-2.532606 c 0.003,-1.392933 0.0961,-2.872835 0.20768,-3.28867 0.16769,-0.624988 -0.0136,-0.827493 -1.04552,-1.168067 -0.68661,-0.226601 -1.73256,-0.963459 -2.32434,-1.637461 -1.06286,-1.210525 -1.07596,-1.273672 -1.07464,-5.181932 0.001,-3.515694 1.11944,-25.966373 1.56766,-31.473143 0.95057,-11.67859 1.47771,-21.33262 1.19022,-21.79778 -0.18065,-0.29229 -0.63904,-0.1775 -1.59456,0.3993 -11.20439,6.76351 -23.81149,6.88326 -31.03552,0.29479 -2.61127,-2.38154 -4.48538,-5.32257 -5.6425,-8.85475 -0.86064,-2.62715 -0.94613,-3.43499 -1.09379,-10.33615 -0.0881,-4.11744 0.017,-9.78633 0.23354,-12.59752 l 0.39371,-5.11126 -2.03018,-2.04276 c -1.1166,-1.12351 -2.18894,-2.32327 -2.38296,-2.66612 -0.336844,-0.59521 -0.564339,-0.59349 -5.035677,0.038 -2.575593,0.36375 -4.752387,0.73085 -4.83732,0.81578 -0.08493,0.0849 0.147651,3.08409 0.516855,6.66479 1.814242,17.5953 2.188287,22.1374 1.973516,23.96476 -0.480418,4.08761 -3.13792,7.7676 -6.780476,9.38929 -3.938011,1.75324 -11.458331,2.45055 -14.660704,1.35939 -2.006385,-0.68365 -4.243169,-2.5686 -5.409303,-4.55846 l -0.890637,-1.51975 -2.370072,1.20295 c -4.535636,2.30211 -10.330388,2.49578 -14.422528,0.48202 -4.11844,-2.0267 -5.66993,-4.76547 -7.27199,-12.83691 -0.58169,-2.93067 -1.0925,-5.37203 -1.13513,-5.42527 -0.0426,-0.0532 -1.00659,0.14521 -2.14211,0.44097 -5.63264,1.46712 -9.74523,-0.20667 -11.76959,-4.79012 -0.79615,-1.80259 -2.75928,-12.04253 -3.95896,-20.6504 -0.54698,-3.92461 -0.78703,-7.43871 -0.80396,-11.76894 -0.0224,-5.71841 0.0333,-6.28098 0.75487,-7.62995 1.74563,-3.26345 5.14581,-5.15684 10.19692,-5.67816 l 1.89849,-0.19595 -0.22253,-4.97783 c -0.24748,-5.53611 0.0933,-8.01945 1.51665,-11.05051 1.43419,-3.05423 4.87724,-5.58033 8.80598,-6.46078 2.35405,-0.52755 7.42594,-0.4607 9.34667,0.1232 l 1.62953,0.49537 0.17386,-3.04934 c 0.29211,-5.1231 2.507698,-8.51714 6.860858,-10.51008 1.915598,-0.87699 9.786925,-2.54172 12.109949,-2.56116 3.958817,-0.0331 7.360102,2.76875 8.998876,7.41304 0.749644,2.12449 1.746739,8.45886 2.794593,17.75357 0.478337,4.24295 0.923456,7.76821 0.989153,7.83391 0.0657,0.0657 1.490188,-3.32644 3.165536,-7.53808 6.757404,-16.98736 25.605311,-61.30928 28.831151,-67.79809 3.06819,-6.17168 6.30242,-10.03473 11.13363,-13.2983 6.24074,-4.21572 16.21334,-7.36312 27.16388959,-8.57305 1.94028001,-0.21438 4.20247001,-0.47256 5.02708001,-0.57374 l 1.49931,-0.18395 0.003,-2.18325 c 0.007,-4.20617 2.63116,-7.76983 6.5643204,-8.91323 3.02211,-0.87855 7.28091,-0.57676 9.40195,0.66625 3.10476,1.81951 4.84417,4.90369 4.84417,8.5893 0,2.18173 -0.67465,1.90065 6.57412,2.73892 9.95051,1.15071 15.94171,2.673 22.21432,5.64436 8.38715,3.97303 12.57513,8.29953 17.10053,17.66615 5.26027,10.88764 20.89191,48.33051 29.787814,71.3515 0.54405,1.40791 1.03651,2.51251 1.09436,2.45466 0.0578,-0.0579 0.35347,-2.4004 0.65693,-5.20567 1.12283,-10.37965 1.98566,-16.91904 2.48563,-18.83857 1.06283,-4.08048 3.0667,-6.91035 5.92638,-8.36925 1.2307,-0.62785 1.86474,-0.70936 4.28077,-0.55032 3.89847,0.25664 9.81363,1.52635 12.05876,2.58847 3.85122,1.82192 6.12316,5.94773 6.12316,11.11956 v 2.44135 l 1.14652,-0.62642 c 1.6682,-0.91144 8.49127,-0.8804 11.2007,0.051 3.87156,1.33084 6.74306,3.98171 8.19032,7.561 0.73225,1.81099 0.80551,2.55364 0.80551,8.16578 0,3.70777 0.14091,6.27713 0.35278,6.43279 0.19403,0.14255 0.98778,0.2635 1.76389,0.26878 1.66247,0.0113 4.49787,0.72146 6.01552,1.50667 1.82,0.94165 3.93957,3.54465 4.54419,5.58062 0.30403,1.02378 0.55243,3.1423 0.552,4.70781 -0.002,7.01654 -2.86503,28.61023 -4.41813,33.32195 -1.54205,4.67822 -6.11779,6.90307 -11.40919,5.54748 -1.2213,-0.31288 -2.42033,-0.56888 -2.66452,-0.56888 -0.29064,0 -0.77147,1.71 -1.39228,4.95148 -0.52157,2.72332 -1.26675,5.80261 -1.65596,6.84287 -1.00031,2.67355 -3.07973,4.88474 -5.89876,6.27255 -2.233,1.0993 -2.55708,1.15929 -6.24323,1.15572 -4.07428,-0.004 -6.4984,-0.55212 -8.93361,-2.02018 -0.6408,-0.3863 -1.20303,-0.64457 -1.2494,-0.57393 -0.0464,0.0706 -0.50622,0.78755 -1.02188,1.59313 -3.04236,4.75287 -7.46115,6.00667 -15.39781,4.36905 -5.75855,-1.1882 -8.63135,-3.18118 -10.514364,-7.29423 -1.30387,-2.84802 -1.36497,-5.74815 -0.32596,-15.47285 0.49753,-4.65666 1.140514,-10.6876 1.428854,-13.40209 0.28833,-2.71448 0.41156,-5.0328 0.27383,-5.15183 -0.13773,-0.11902 -2.234124,-0.4893 -4.658644,-0.82284 l -4.40824,-0.60644 -0.51235,0.81938 c -0.28179,0.45066 -1.27856,1.57772 -2.21504,2.50458 l -1.70269,1.6852 0.36147,4.45144 c 0.19881,2.4483 0.35938,7.48433 0.35684,11.19119 -0.007,10.7948 -1.39476,15.57737 -5.90739,20.36465 -5.69371,6.04025 -14.7488,7.61813 -24.42845,4.25675 -2.18926,-0.76025 -6.05122,-2.64373 -7.46121,-3.63884 -0.51502,-0.36348 -1.03096,-0.66087 -1.14653,-0.66087 -0.39408,0 -0.20995,2.8152 1.35529,20.72119 2.10422,24.071879 2.7941,33.738472 2.5401,35.591627 -0.28602,2.0867 -1.08076,3.190166 -3.00019,4.16565 l -1.60853,0.817478 0.10816,3.129286 c 0.0595,1.721107 0.16883,3.227471 0.243,3.347475 0.0742,0.120004 0.77329,0.303822 1.55361,0.408485 3.63429,0.487461 8.73834,4.034617 10.2253,7.106274 0.9505,1.963467 0.96382,4.918633 0.0291,6.451648 -1.4489,2.376266 -1.51757,2.386632 -16.59484,2.50506 -15.17571,0.119201 -15.69083,0.05988 -18.13099,-2.088034 -2.59003,-2.279835 -2.79873,-3.227546 -2.50607,-11.379978 0.20558,-5.726609 0.16395,-7.066923 -0.22715,-7.314736 -0.58756,-0.372292 -11.1407,-0.418478 -11.3396,-0.04963 -0.0785,0.145521 -0.0107,1.772708 0.15053,3.615972 0.5717,6.534781 0.50201,10.969912 -0.19831,12.619862 -0.8121,1.913308 -2.9742404,3.775022 -4.9669304,4.276789 -2.37339,0.597624 -27.5407696,0.5048 -28.9447996,-0.106757 z m 6.89666,-4.103949 c 0,-0.5204 -1.38947,-3.21921 -2.03606,-3.954696 -1.21349,-1.380333 -3.36619,-0.152638 -3.83403,2.186567 -0.18469,0.923438 -0.0938,1.286843 0.41478,1.658735 0.78112,0.571172 5.45531,0.664903 5.45531,0.109394 z m 9.3582696,-0.779696 c -0.41049,-2.112498 -2.41621,-5.664744 -3.6778,-6.513599 -1.3605696,-0.915451 -3.7538696,-1.084869 -4.7752296,-0.338032 -0.60357,0.441343 -0.55913,0.589636 0.76642,2.557639 0.77393,1.149022 1.68848,2.843194 2.03234,3.764826 l 0.62519,1.675694 h 2.6259296 2.62594 z m 11.97268,0.645152 c 2.05562,-0.858891 2.37329,-1.98177 2.13375,-7.542352 -0.11449,-2.657963 -0.29095,-5.6502 -0.39213,-6.649416 -0.17629,-1.741047 -0.23436,-1.826212 -1.39342,-2.043654 -1.75059,-0.328412 -2.04026,-1.143944 -1.84518,-5.194999 0.0919,-1.907511 0.0934,-3.468201 0.004,-3.468201 -0.0899,0 -1.22797,0.707682 -2.52903,1.572627 -2.87063,1.908394 -6.21996,3.524362 -8.53394,4.117417 -1.13179,0.290069 -1.71993,0.628668 -1.72176,0.991231 -0.002,0.302868 -0.0741,2.01116 -0.16126,3.796204 l -0.15848,3.245536 1.40356,1.111636 c 0.77195,0.6114 1.88289,1.808327 2.46874,2.659838 1.22066,1.774167 2.80021,5.740586 2.80021,7.031618 0,0.868884 0.0193,0.873891 3.36272,0.873891 2.10818,0 3.8104,-0.18705 4.56268,-0.501376 z m 31.5857104,-0.364521 c 0,-2.778443 3.07023,-8.109891 5.73285,-9.955089 l 1.34723,-0.933631 -0.23216,-3.559496 c -0.12769,-1.957723 -0.33164,-3.651694 -0.45323,-3.764379 -0.12159,-0.112685 -1.25295,-0.478735 -2.51413,-0.813445 -2.87272,-0.762401 -7.5296,-2.986644 -9.66364,-4.615595 l -1.62525,-1.240584 v 4.029416 c 0,4.352088 -0.29222,5.138146 -1.91009,5.138146 -0.79679,0 -0.80261,0.0375 -1.01986,6.569502 -0.2384,7.168168 -0.0272,8.418357 1.55248,9.191506 1.44997,0.709644 1.81073,0.763068 5.34622,0.791695 3.42427,0.02773 3.43958,0.024 3.43958,-0.838046 z m 10.02648,-1.393143 c 0.52806,-1.242472 1.52568,-2.919789 2.21694,-3.727371 1.52079,-1.776702 1.28146,-2.177413 -1.43503,-2.402686 -1.84564,-0.153054 -1.97496,-0.104987 -3.50024,1.30096 -1.54684,1.425828 -2.75284,3.636837 -3.24088,5.941609 l -0.24277,1.146528 h 2.62094 2.62094 z m 8.26343,2.040642 c 0.60909,-0.121818 1.18149,-0.500383 1.29437,-0.856049 0.29452,-0.927958 -0.68375,-3.009406 -1.73954,-3.701186 -0.84539,-0.553927 -0.97509,-0.555455 -1.79062,-0.02109 -0.97667,0.639938 -2.7928,3.925168 -2.464,4.457176 0.23588,0.381662 3.03629,0.453852 4.69979,0.121153 z m -30.05358,-26.680906 c -0.12721,-3.346978 -0.33579,-9.379478 -0.46352,-13.405553 -0.12773,-4.026079 -0.28302,-7.320139 -0.34509,-7.320139 -0.0621,0 -1.34652,0.41443 -2.85432,0.92095 -3.60734,1.21183 -7.34855,1.09979 -10.43016,-0.31236 -1.43487,-0.65754 -2.0835204,-0.809 -2.1759604,-0.50811 -0.0724,0.23578 -0.22187,3.84181 -0.33206,8.013408 -0.1102,4.171597 -0.30656,10.085034 -0.43636,13.140971 l -0.23599,5.55625 h 8.7523704 8.75238 z m -31.6309804,2.687765 c 2.86883,-1.06444 7.97931,-4.304414 9.75736,-6.186026 l 1.11131,-1.176044 0.38414,-9.455098 c 0.3386,-8.334039 0.32,-9.552979 -0.15683,-10.280719 -0.53584,-0.81779 -0.61695,-0.82702 -8.55101,-0.97282 -4.40552,-0.0809 -8.0560096,-0.11824 -8.1121996,-0.0829 -0.0562,0.0354 -0.4228,6.3719 -0.8147,14.08115 -0.68767,13.527411 -0.69026,14.041479 -0.0742,14.723282 0.82373,0.911678 2.7750496,0.71496 6.4561596,-0.650865 z m 54.3697904,0.536404 c 0.69078,-0.690779 0.72803,-0.990305 0.51555,-4.145139 -0.12597,-1.870306 -0.29982,-4.114932 -0.38633,-4.988057 -0.0865,-0.873125 -0.49077,-5.635624 -0.89834,-10.583335 -0.40756,-4.9477 -0.77725,-9.03232 -0.82151,-9.07692 -0.0443,-0.0446 -3.91846,0.0204 -8.60932,0.14443 -8.47213,0.22401 -8.53249,0.23108 -9.0772,1.06242 -0.4839,0.73852 -0.50521,1.8205 -0.18126,9.204179 0.20191,4.602005 0.36762,8.901496 0.36824,9.554425 0.001,1.436348 1.39734,2.843116 5.15022,5.190097 5.79317,3.622942 12.26576,5.312089 13.93995,3.6379 z m -26.85014,-26.267781 c 7.25891,-3.36672 7.90491,-11.61164 1.2046,-15.37432 -2.65907,-1.49325 -5.27788,-1.88204 -8.00128,-1.18785 -6.3293204,1.61332 -9.4234204,7.09791 -6.9487404,12.31733 2.06347,4.35213 8.9372804,6.47489 13.7454204,4.24484 z m -5.88087,-0.53854 c -6.4232204,-0.82623 -9.3584104,-7.21221 -5.3881,-11.72271 3.45004,-3.91946 10.43609,-4.04156 13.86841,-0.2424 2.29995,2.54577 2.45151,5.41679 0.44317,8.3949 -1.80991,2.68386 -5.21695,4.04699 -8.92348,3.57021 z m 3.69881,-3.45987 c 0.90909,-0.36954 1.92241,-0.75825 2.25181,-0.8638 0.32941,-0.10554 0.85939,-0.6956 1.17775,-1.31124 2.09604,-4.05329 -3.80224,-7.88393 -8.57892,-5.57158 -2.51455,1.21727 -3.48353,3.44289 -2.40608,5.52644 1.38349,2.67538 4.31583,3.53705 7.55544,2.22018 z m -23.4402904,-2.23853 c 0.117,-0.43656 0.21489,-1.23031 0.21754,-1.76389 0.004,-0.87446 -0.11695,-0.97014 -1.22991,-0.97014 -1.22115,0 -1.23472,0.0168 -1.23472,1.52871 0,1.74272 0.1606,1.99907 1.25237,1.99907 0.51276,0 0.85525,-0.27329 0.99472,-0.79375 z m 3.86712999,-0.49608 c 0.26293,-1.62029 0.0949,-1.88517 -1.19614999,-1.88517 -0.99446,0 -1.03751,0.0659 -1.03751,1.5875 0,1.51262 0.0477,1.5875 1.01217,1.5875 0.89165999,0 1.03709999,-0.15358 1.22148999,-1.28983 z m 4.11634001,-0.12128 c 0,-1.37751 -0.0294,-1.41111 -1.23473,-1.41111 -1.20532,0 -1.23472,0.0336 -1.23472,1.41111 0,1.37751 0.0294,1.41111 1.23472,1.41111 1.20533,0 1.23473,-0.0336 1.23473,-1.41111 z m 29.2126404,-0.0882 c -0.10249,-1.4165 -0.16531,-1.49519 -1.13752,-1.42482 -1.18819,0.086 -1.6038,0.58997 -1.61139,1.95399 -0.005,0.89982 0.0984,0.97014 1.42599,0.97014 h 1.4314 z m 3.88151,-0.39947 c 0.10469,-1.64783 0.0741,-1.71294 -0.70556,-1.50412 -0.44824,0.12004 -1.01342,0.22043 -1.25596,0.22308 -0.47396,0.005 -0.63472,2.5157 -0.18959,2.96083 0.13826,0.13826 0.6542,0.20441 1.14653,0.14699 0.80403,-0.0938 0.90628,-0.2797 1.00458,-1.82678 z m -44.7358204,-0.17783 v -1.72383 l -1.61983,-0.24291 c -0.8909096,-0.1336 -1.6695096,-0.19131 -1.7302096,-0.12825 -0.13653,0.14181 -0.26549,1.95543 -0.21512,3.02507 0.0335,0.71233 0.21831,0.79375 1.8012696,0.79375 h 1.76389 z m 48.6833304,-0.0401 c 0,-1.83412 -0.13173,-1.9553 -1.67569,-1.54153 -0.58365,0.15641 -0.79375,0.47432 -0.79375,1.20105 0,1.60227 0.34569,2.10437 1.44885,2.10437 0.98952,0 1.02059,-0.0537 1.02059,-1.76389 z m 5.29664,1.23099 c 0.0998,-0.0613 0.12346,-0.83958 0.0527,-1.72954 -0.12862,-1.61725 -0.12941,-1.61811 -1.47542,-1.61811 -2.14534,0 -2.46278,0.24738 -2.46278,1.91922 0,0.82003 0.11806,1.60902 0.26235,1.75331 0.23071,0.23071 3.14406,-0.0305 3.62318,-0.32488 z m -41.4182804,-5.02335 c 0.65893,-0.86802 0.60145,-1.77207 -0.12627,-1.98613 -1.30993,-0.38531 -9.03005,-1.30557 -9.48571,-1.13072 -0.27971,0.10733 -0.48027,0.70452 -0.48027,1.43009 0,0.94115 0.15097,1.25229 0.61737,1.27239 0.65122,0.028 8.63301,0.91934 8.86874,0.99033 0.0756,0.0228 0.34839,-0.23641 0.60614,-0.57596 z m 33.7403904,-0.32581 c 1.26559,-0.19644 1.32292,-0.26453 1.32292,-1.57136 0,-1.64259 0.0177,-1.64019 -5.99723,-0.81314 -5.34114,0.73439 -5.08106,0.61833 -4.38812,1.95832 l 0.57543,1.11276 3.58204,-0.24062 c 1.97012,-0.13235 4.17736,-0.33303 4.90496,-0.44596 z m -45.3118204,-1.95042 c 0.1022,-1.22693 0.0425,-1.31087 -1.05834,-1.48907 -2.9962996,-0.48504 -2.9208996,-0.5123 -3.0379696,1.09825 l -0.10744,1.47808 1.5185496,0.13922 c 2.47522,0.22693 2.56764,0.18472 2.6852,-1.22648 z m 51.6760804,1.15781 c 0.76218,-0.28977 0.82941,-0.46986 0.6256,-1.67569 -0.21714,-1.28475 -0.28819,-1.34675 -1.44834,-1.26392 -2.29228,0.16367 -2.80749,0.40258 -2.80749,1.30187 0,1.51688 0.36377,1.96241 1.60227,1.96241 0.64571,0 1.55829,-0.1461 2.02796,-0.32467 z m -35.6597604,-5.12423 c 4.1491404,-3.55152 11.9859704,-3.41669 16.3814104,0.28182 l 1.02665,0.86387 7.57531,-1.01448 c 4.16643,-0.55796 8.34927,-1.12095 9.2952,-1.25109 l 1.71987,-0.23661 -0.21596,-2.32994 c -0.11877,-1.28147 -0.31556,-4.79057 -0.4373,-7.798 -0.21337,-5.27088 -0.19396,-5.49668 0.5383,-6.2618 1.13982,-1.191 2.1522,-0.97804 4.82908,1.01583 6.31526,4.70389 14.88832,7.16355 20.77391,5.96014 4.29057,-0.87728 8.71967,-4.09074 10.50934,-7.62487 1.43693,-2.83757 2.04414,-5.3893 2.25967,-9.49601 l 0.20379,-3.88311 -5.42807,-0.0225 c -4.8874,-0.0203 -5.70867,-0.1154 -8.24528,-0.95496 -1.54947,-0.51283 -2.91505,-0.81905 -3.03462,-0.68048 -0.11957,0.13857 -0.56232,2.37318 -0.9839,4.9658 -0.96991,5.96484 -1.3667,6.78887 -2.65077,5.5048 -0.55418,-0.55418 -1.26773,-2.67614 -1.27125,-3.78046 -0.003,-0.80188 -0.17352,-0.78491 -2.78558,0.27646 -3.23209,1.31332 -9.25043,2.78443 -16.44331,4.01939 -3.49221,0.59958 -7.77821,1.46964 -9.52446,1.93347 -10.04295,2.66757 -22.5118,2.60191 -33.28272041,-0.17526 -2.22737999,-0.5743 -5.65120999,-1.26978 -7.60852999,-1.54551 -6.7106896,-0.94533 -14.4920596,-2.78659 -18.4251296,-4.35983 -0.99748,-0.399 -1.91029,-0.62876 -2.02847,-0.51058 -0.11818,0.11818 -0.21487,0.75192 -0.21487,1.40832 0,2.54101 -2.03866,4.42384 -2.6867,2.48132 -0.14564,-0.43656 -0.6829,-2.93687 -1.19393,-5.55625 -0.65167,-3.34034 -1.06435,-4.73263 -1.38194,-4.66248 -0.24906,0.055 -1.82592,0.50486 -3.50415,0.99967 -3.25896,0.96086 -7.82063,1.25265 -11.1275,0.71177 l -1.72617,-0.28233 0.24729,3.46877 c 0.31908,4.47569 0.99075,7.35578 2.33775,10.02416 1.46105,2.89434 3.56356,4.90034 6.82609,6.51277 2.53035,1.25057 2.98528,1.35538 6.51414,1.50077 3.05017,0.12567 4.36047,0.013 6.68468,-0.57472 3.71116,-0.93848 8.05325,-3.00173 11.18127,-5.31306 2.78408,-2.05718 3.6608,-2.3916 4.74653,-1.81053 1.3560296,0.72572 1.5086996,1.87004 1.2013,9.00438 -0.15885,3.68652 -0.29209,6.9409 -0.2961,7.23194 -0.008,0.60005 1.4871796,0.88919 11.6343796,2.24943 3.4925,0.46818 6.40414,0.86796 6.47031,0.8884 0.0662,0.0204 0.75937,-0.50984 1.54044,-1.1784 z m -9.04388001,-12.39157 c -0.67218,-0.67218 -0.71683,-1.91083 -0.0993,-2.75531 0.33233,-0.45449 0.8311,-0.59159 1.84957001,-0.5084 1.12465,0.0919 1.48583,0.3053 1.86627,1.10284 0.40561,0.8503 0.39245,1.10994 -0.0938,1.85208 -0.66953,1.02184 -2.63718,1.19431 -3.52270001,0.30879 z m 31.07392041,-0.0908 c -1.73469,-1.91681 0.94565,-4.51636 3.16044,-3.06518 0.76405,0.50063 0.88091,0.78089 0.70089,1.68097 -0.11882,0.59409 -0.39328,1.29373 -0.60991,1.55476 -0.5743,0.69198 -2.56536,0.58755 -3.25142,-0.17055 z m -109.239392,-2.17631 c 2.860786,-0.41643 5.679903,-1.55461 7.006237,-2.82866 2.033509,-1.95336 2.222881,-4.48929 1.105522,-14.80431 -2.253934,-20.80744 -2.738942,-25.90056 -4.233533,-44.45668 -1.186604,-14.73231 -2.562629,-27.92605 -3.381369,-32.42159 -0.958336,-5.26204 -2.981236,-7.96268 -5.957078,-7.9529 -2.355137,0.008 -7.21512,0.86457 -9.318277,1.64285 -2.348091,0.86892 -4.429903,2.87332 -4.957504,4.77315 -0.450573,1.62246 -0.475017,9.70303 -0.04243,14.02654 0.17472,1.74625 0.418404,4.92125 0.541522,7.05556 1.074598,18.62872 4.153005,45.98771 7.26404,64.55833 1.302109,7.77264 2.535151,9.93253 6.152039,10.77638 1.135035,0.26481 1.726316,0.22736 5.820833,-0.36867 z m 196.834336,-0.34556 c 2.33304,-1.19023 3.62502,-3.61987 4.22722,-7.94953 0.20314,-1.46048 0.68044,-4.67642 1.06068,-7.14652 2.14564,-13.93847 4.39195,-37.52589 6.34063,-66.57999 0.94099,-14.0298 0.91621,-14.36153 -1.25233,-16.76184 -1.56916,-1.73687 -3.79009,-2.58189 -8.70494,-3.31206 -5.02509,-0.74654 -4.97284,-0.75197 -6.55949,0.68147 -1.59823,1.4439 -2.61421,3.42419 -3.16204,6.16327 -0.59335,2.96668 -3.14783,28.86237 -4.10637,41.62777 -0.20686,2.75495 -1.59427,17.66023 -2.84041,30.51528 -1.49406,15.41253 -1.50788,16.68428 -0.20525,18.88982 0.94132,1.59381 2.32714,2.61388 4.52988,3.33436 4.13072,1.35109 8.63365,1.57807 10.67242,0.53797 z m -216.864887,-3.75323 c 3.375206,-1.09017 3.944004,-2.76365 2.923714,-8.60198 -0.509541,-2.9157 -1.813017,-12.7604 -2.825903,-21.34305 -0.860648,-7.29267 -1.90082,-18.88898 -2.990324,-33.3375 -1.22866,-16.29393 -1.23946,-16.38381 -2.14538,-17.84962 -1.12647,-1.82266 -2.71835,-2.36191 -6.48598,-2.19713 -5.60596,0.24519 -8.62751,2.43756 -9.73773,7.06551 -0.64708,2.6973 0.0265,14.28794 1.78976,30.79652 1.57272,14.72476 2.97283,24.16592 5.15317,34.74861 1.75243,8.5057 2.56154,9.95843 6.20588,11.14237 1.78918,0.58126 5.62091,0.38112 8.112793,-0.42373 z m 237.518037,0.18086 c 0.77611,-0.212 1.94591,-0.78921 2.59956,-1.28269 1.96506,-1.48353 2.36169,-2.70842 4.59905,-14.20292 2.21907,-11.40059 5.25312,-39.3945 5.90216,-54.45696 0.28493,-6.61218 -0.15214,-8.57399 -2.4408,-10.95594 -1.82012,-1.8943 -4.07094,-2.63693 -8.37219,-2.76233 -2.46356,-0.0718 -3.20533,0.0376 -4.19118,0.61829 -2.38481,1.4047 -2.51618,1.8222 -3.06385,9.73724 -1.99347,28.8103 -3.613,46.14124 -5.79726,62.03773 -0.89868,6.54037 -0.89368,7.78878 0.0359,8.9706 1.76201,2.24004 6.90553,3.34126 10.72857,2.29698 z m -111.773264,-4.69323 c 3.28247,-0.59048 5.50647,-1.13102 6.91007,-1.67946 0.87793,-0.34305 0.97014,-0.54627 0.97014,-2.13791 0,-1.41878 -0.10235,-1.71956 -0.52937,-1.55569 -4.03725,1.54923 -12.88205,3.04734 -17.99146,3.04734 -4.97306,0 -14.0384304,-1.52558 -17.90347041,-3.01291 -0.53730999,-0.20677 -0.61735999,-0.009 -0.61735999,1.52575 0,1.71935 0.0342,1.77701 1.37106999,2.31192 1.61804001,0.64741 6.54555001,1.61545 10.27060041,2.01772 3.73958,0.40384 14.10118,0.0982 17.51978,-0.51676 z m -33.3947804,-5.48138 c 0,-2.18607 -0.19812,-6.76234 -0.91269,-21.08185 l -0.21485,-4.30556 -1.64109,-0.59078 c -0.9026,-0.32493 -2.8317196,-1.13143 -4.2869296,-1.79223 -2.6415,-1.19949 -2.65359,-1.20129 -7.38093,-1.10088 l -4.73509,0.10057 -0.39725,1.99183 c -0.49547,2.48437 -1.78017,4.44794 -3.65923,5.5929 -0.90718,0.55277 -1.4508,1.14528 -1.4565,1.5875 -0.005,0.38805 0.30805,3.16618 0.69567,6.17361 0.38762,3.00743 0.70494,6.1324 0.70516,6.94439 7.1e-4,2.63335 0.36475,3.07277 3.70363,4.47045 4.78049,2.00115 14.48181,4.33347 18.4335696,4.43167 l 1.14653,0.0285 z m 53.7986004,1.03336 c 2.71639,-0.5517 6.05014,-1.39253 7.40834,-1.86853 5.52462,-1.93616 6.88365,-2.52384 7.0447,-3.04629 0.0928,-0.30118 0.32544,-1.89698 0.51688,-3.54621 0.56377,-4.85681 1.42931,-11.40385 1.61943,-12.24963 0.14162,-0.63 -0.0849,-0.9187 -1.15096,-1.467 -0.73,-0.37545 -1.75448,-1.13374 -2.27662,-1.68509 -1.15252,-1.217 -2.38372,-3.84026 -2.3943,-5.10143 -0.007,-0.79166 -0.19719,-0.95529 -1.33066,-1.14264 -0.72761,-0.12027 -2.64568,-0.22041 -4.2624,-0.22255 -2.5218,-0.003 -3.29389,0.15167 -5.43368,1.09083 -1.3718,0.60209 -3.46216,1.45834 -4.64524,1.90278 l -2.15104,0.80807 -0.4173,7.53402 c -0.22951,4.14372 -0.53289,10.44478 -0.67418,14.00236 l -0.2569,6.46833 1.73252,-0.23697 c 0.95289,-0.13033 3.95502,-0.68835 6.67141,-1.24005 z m -27.51666,-2.21961 v -1.69608 l -3.175,-0.0579 -3.175,-0.0579 -0.1117,1.35007 c -0.19056,2.3032 -0.0853,2.37378 3.36912,2.25983 l 3.09258,-0.10201 z m -8.85316,1.22146 c 0.10138,-0.16403 0.28485,-0.92693 0.40773,-1.69534 l 0.2234,-1.3971 -2.6109104,-0.40591 c -1.43601,-0.22325 -2.85925,-0.5012 -3.16277,-0.61767 -0.6012,-0.23071 -0.98403,0.68426 -0.99253,2.37218 -0.005,0.97667 0.15986,1.0652 3.34657,1.79798 1.2256804,0.28184 2.5973204,0.25521 2.7885104,-0.0541 z m 16.0851,-0.59302 c 1.12483,-0.39074 1.23095,-0.54506 1.19229,-1.73391 -0.0583,-1.79195 -0.45711,-2.10016 -2.12013,-1.6384 -0.75087,0.20849 -1.86817,0.37995 -2.48289,0.38104 -1.86635,0.003 -2.22907,0.2824 -1.99243,1.53318 0.40463,2.13872 0.66268,2.35646 2.50095,2.1103 0.91712,-0.12282 2.22312,-0.41631 2.90221,-0.65221 z m -23.8301604,-1.66639 c 0.47387,-2.18464 0.4011,-2.48264 -0.68789,-2.81711 -0.58208,-0.17878 -1.81712,-0.63655 -2.74454001,-1.01726 -0.92741,-0.38071 -1.84021999,-0.59701 -2.02846999,-0.48066 -0.49573,0.30638 -0.42091,3.25147 0.0912,3.58865 0.76920999,0.50649 3.60012,1.46463 4.41052,1.49279 0.54191,0.0188 0.84066,-0.21988 0.9592,-0.76641 z m 30.7560404,-0.31659 c 0.89756,-0.42858 1.02365,-0.69155 1.11825,-2.33219 0.11859,-2.05653 0.004,-2.13149 -1.97004,-1.29021 -0.72137,0.30741 -1.70846,0.63441 -2.19353,0.72666 -1.33345,0.2536 -1.49931,0.60454 -1.05882,2.24039 0.39878,1.48095 0.41989,1.49688 1.74808,1.31873 0.73944,-0.0992 1.79966,-0.3977 2.35606,-0.66338 z m -15.48074,-3.45383 c 0.62663,-0.0173 0.79274,-0.2262 0.78894,-0.99208 -0.0121,-2.43042 -1.18795,-3.4025 -2.34707,-1.94028 -0.46036,0.58075 -0.52276,0.57029 -1.05206,-0.17639 -0.6523,-0.92019 -1.71622,-1.04396 -2.02637,-0.23573 -0.11777,0.30691 -0.21413,1.1684 -0.21413,1.91441 0,1.53737 0.37423,1.75941 2.64583,1.5698 0.77611,-0.0648 1.7683,-0.12767 2.20486,-0.13973 z m -59.33145,-0.74548 c 2.8899,-0.51186 6.51928,-1.73067 6.7213,-2.25713 0.1532,-0.39922 -0.41409,-4.75189 -0.64721,-4.96595 -0.0551,-0.0506 -1.21152,0.19936 -2.56972,0.55555 -2.95589,0.77519 -7.98557,0.87356 -10.79942,0.2112 l -1.97999,-0.46607 -0.20694,3.19415 c -0.11382,1.75678 -0.13739,3.2637 -0.0524,3.3487 0.68832,0.68832 6.48768,0.91918 9.53436,0.37955 z m 52.49452,-0.42299 c 0.68415,-2.55292 -0.21695,-3.79134 -1.72667,-2.37303 -0.9117604,0.85655 -0.8235404,0.91416 -1.4007904,-0.91491 -0.10644,-0.33725 -0.48215,-0.50973 -0.96056,-0.44097 -0.57337,0.0824 -0.95271,0.56369 -1.40349,1.78064 l -0.61774,1.6677 1.6665,0.51259 c 0.91657,0.28192 2.2432904,0.52365 2.9482604,0.53716 1.04174,0.02 1.32161,-0.12407 1.49449,-0.76918 z m 13.80429,0.3245 c 2.02155,-0.52219 2.35239,-1.23829 1.41215,-3.05652 -0.69638,-1.34665 -1.97664,-1.3624 -2.28936,-0.0282 -0.26329,1.12335 -0.91761,1.30989 -1.40437,0.40037 -0.23134,-0.43227 -0.74158,-0.72699 -1.25861,-0.72699 -0.94231,0 -1.08366,0.60503 -0.64904,2.77812 0.19091,0.95459 0.36833,1.10152 1.32291,1.09563 0.60634,-0.004 1.89618,-0.21185 2.86632,-0.46245 z m 55.32727,0.0678 1.99912,-0.40148 v -3.10548 c 0,-1.70801 -0.11907,-3.17694 -0.26459,-3.26429 -0.14552,-0.0873 -1.37583,0.0773 -2.73402,0.36578 -3.03384,0.64449 -7.79316,0.39956 -10.59125,-0.54507 l -1.94531,-0.65673 -0.18412,0.74118 c -0.10127,0.40765 -0.21742,1.69368 -0.25811,2.85785 l -0.074,2.11667 2.33652,0.78118 c 4.07626,1.36283 8.41241,1.7738 11.71575,1.11039 z m -201.465446,-1.38096 c 1.52975,-0.42483 1.53642,-0.46247 0.7779,-4.39117 -0.88364,-4.57675 -2.6428,-20.18141 -3.55938,-31.57361 -0.14831,-1.84326 -0.29752,-3.47045 -0.33159,-3.61597 -0.0341,-0.14552 -0.0818,-0.92144 -0.10603,-1.72426 l -0.0441,-1.45969 -2.00059,0.23513 c -3.8768,0.45564 -6.52701,2.3573 -7.03128,5.04529 -0.68127,3.63149 0.85022,17.75639 3.22583,29.75173 1.02902,5.1959 1.44036,6.25996 2.84795,7.36718 1.05938,0.8333 3.9294,1.00186 6.22128,0.36537 z m 279.12746,-0.042 c 1.2852,-0.58558 2.20561,-2.25942 2.7957,-5.08422 1.34801,-6.453 3.74105,-25.34906 3.73666,-29.50559 -0.005,-5.18407 -2.45419,-7.68482 -7.93554,-8.10416 l -1.41111,-0.10795 -0.41681,4.7625 c -0.22925,2.61937 -0.59304,6.90562 -0.80843,9.525 -0.21539,2.61937 -0.53605,6.03249 -0.71258,7.58472 -0.17653,1.55222 -0.49721,4.64784 -0.71261,6.87916 -0.21541,2.23132 -0.71309,6.09905 -1.10595,8.59495 -0.47319,3.00625 -0.59596,4.65632 -0.36372,4.88856 0.88907,0.88908 5.41527,1.25919 6.93439,0.56703 z m -126.700504,-0.65238 c 2.33566,-0.87388 3.26199,-1.77792 2.76785,-2.70123 -0.98804,-1.84616 -2.88302,-2.39186 -2.88302,-0.83022 0,0.86182 -0.2696,0.90125 -1.0894,0.15934 -0.49384,-0.44691 -0.76676,-0.47649 -1.37806,-0.14933 -0.41924,0.22437 -0.68189,0.61737 -0.58367,0.87334 0.0982,0.25597 0.37379,1.11692 0.61237,1.91322 0.23858,0.79631 0.48207,1.44783 0.54109,1.44783 0.059,0 0.9648,-0.32082 2.01284,-0.71295 z M 4.9604056,-163.3812 c 0.25138,-0.76168 0.36115,-1.6348 0.24393,-1.94027 -0.23835,-0.62114 -1.13496,-0.74472 -1.46999,-0.20262 -0.11992,0.19403 -0.62404,0.35278 -1.12028,0.35278 -0.77156,0 -0.87789,-0.12743 -0.73409,-0.87971 0.25099,-1.31294 -0.52157,-1.75195 -1.39298001,-0.79158 -1.04901,1.15611 -1.99231999,2.72282 -1.77203999,2.94311 0.40715999,0.40715 4.35171,1.88686 5.05112,1.8948 0.54808,0.006 0.85457,-0.347 1.19433,-1.37651 z m 18.6836804,-3.79141 c 3.29345,-0.65772 6.50867,-1.93492 9.12028,-3.62288 1.95034,-1.26057 3.9547,-3.25134 3.9547,-3.92789 0,-0.55233 -0.40111,-0.37109 -1.90395,0.86025 -6.26302,5.13158 -17.93308,7.08521 -26.4946604,4.43535 -3.13231,-0.96947 -7.53826001,-3.17566 -9.12586001,-4.56959 -0.80727999,-0.7088 -1.30838999,-0.94017 -1.46996999,-0.67872 -0.42398,0.68601 3.22467999,3.71773 6.27539,5.2143 6.1658504,3.02475 12.3514204,3.74558 19.6440704,2.28918 z m -25.0287504,-0.64004 c 0.53165999,-0.64062 0.22427,-1.592 -0.51437,-1.592 -0.36508,0 -0.54023,0.34314 -0.54023,1.05834 0,1.15745 0.3781,1.34878 1.0546,0.53366 z m 38.1037304,-0.73087 c 0,-0.51459 -0.20458,-0.86113 -0.50835,-0.86113 -0.76654,0 -0.97876,0.59345 -0.49133,1.37394 0.53965,0.86412 0.99968,0.62814 0.99968,-0.51281 z m -72.76041,-1.72112 c 1.33134,-0.41581 1.85208,-0.75645 1.85208,-1.21154 0,-1.00762 -0.26818,-1.06106 -2.57995,-0.51411 -2.55556,0.60462 -6.91238,0.76239 -10.03186,0.36326 -2.06725,-0.26449 -2.20486,-0.23782 -2.20486,0.42738 0,0.52428 0.34533,0.79812 1.32292,1.04907 0.7276,0.18678 1.64042,0.42228 2.02847,0.52333 1.37463,0.35795 7.78779,-0.0673 9.6132,-0.63739 z m 117.2104,0.12661 c 1.74689,-0.45948 2.25751,-0.86019 1.98871,-1.56067 -0.15535,-0.40483 -0.43156,-0.52017 -0.84515,-0.3529 -1.94917,0.78831 -10.9172,0.51941 -13.31083,-0.39911 -0.38676,-0.14841 -0.53273,0.035 -0.53273,0.66942 0,0.72738 0.2513,0.9438 1.49931,1.29129 3.80101,1.05832 8.01207,1.19065 11.20069,0.35197 z m -57.32638,-2.28742 c 2.3677,-0.63908 6.68226,-2.57727 7.76111,-3.48645 0.68702,-0.57897 0.67775,-0.58966 -0.35278,-0.40669 -5.26343,0.93447 -20.14897,1.07018 -26.6347204,0.24281 -1.26118,-0.16088 -2.3452,-0.24781 -2.40894,-0.19318 -0.211,0.18085 2.98185,1.92095 5.11537,2.78788 4.9187504,1.99867 11.4742204,2.41756 16.5199604,1.05563 z m -60.32363,-3.32955 c 1.51803,-0.38824 3.43461,-1.10121 4.25906,-1.58437 1.55887,-0.91356 2.97117,-2.77871 2.972,-3.92497 4.2e-4,-0.58285 -0.23233,-0.6494 -1.90616,-0.54505 -1.04865,0.0654 -2.24226,-0.0608 -2.65246,-0.28029 -0.58733,-0.31433 -0.91318,-0.2815 -1.53342,0.15447 -0.43319,0.30449 -1.42261,0.71438 -2.19872,0.91088 -0.77611,0.1965 -2.00899,0.61471 -2.73972,0.92935 -1.2801,0.55118 -1.35854,0.54395 -2.14827,-0.19796 l -0.81966,-0.77004 -3.31979,0.88939 c -1.82588,0.48916 -3.79603,0.89222 -4.37811,0.89568 -0.58209,0.003 -1.29015,0.15292 -1.57348,0.33213 -0.43902,0.27769 -0.41308,0.43861 0.17556,1.08905 2.37722,2.6268 9.90863,3.62465 15.86317,2.10173 z m 119.30829,-0.1944 c 2.12226,-0.70184 4.23022,-2.29995 3.84847,-2.91764 -0.1412,-0.22846 -0.71579,-0.41538 -1.27687,-0.41538 -1.2888,0 -4.25173,-0.5948 -6.4608,-1.29698 -1.63152,-0.5186 -1.73438,-0.51028 -2.49218,0.20163 -0.91632,0.86084 -1.72238,0.94849 -2.30183,0.2503 -0.22469,-0.27074 -0.92772,-0.58966 -1.56228,-0.7087 -0.63456,-0.11905 -1.77519,-0.53328 -2.53473,-0.92051 -1.16753,-0.59524 -1.56662,-0.64281 -2.58194,-0.30772 -0.66053,0.21799 -1.91527,0.29844 -2.78832,0.17878 l -1.58737,-0.21758 0.22661,1.13304 c 0.46504,2.32518 3.7321,4.46033 8.28107,5.41202 2.99552,0.62669 8.75929,0.42588 11.23017,-0.39126 z m -55.10751,-4.22136 c 12.11163,-1.41678 21.80273,-5.4788 28.78446,-12.06501 3.97175,-3.74675 7.35525,-9.51091 8.68953,-14.80354 0.93365,-3.70348 0.83106,-15.96664 -0.17301,-20.68118 -1.42918,-6.71062 -3.62153,-9.78632 -8.72258,-12.23713 -5.27195,-2.53292 -12.91675,-4.30229 -23.90221,-5.5321 -6.6538,-0.74489 -23.5104704,-0.85008 -29.5436204,-0.18436 -8.20521,0.90539 -16.0838896,2.41461 -20.6498796,3.95565 -9.88106,3.33489 -12.72562,7.07107 -13.96231,18.33879 -0.50013,4.5568 -0.18517,13.64251 0.57841,16.68558 0.95867,3.82055 4.13882,9.75705 6.72062,12.54564 7.09412,7.66229 18.4203896,12.75587 31.4111996,14.12604 4.7868204,0.50487 15.8612404,0.42575 20.7693904,-0.14838 z m -12.52021,-23.81532 c -4.8344,-0.65025 -8.1399704,-3.44899 -9.1764304,-7.76945 -0.36415,-1.51796 -0.3415,-1.88097 0.16569,-2.65503 0.45936,-0.70107 0.82992,-0.8729 1.6988,-0.78773 1.02533,0.1005 1.17216,0.2863 1.89816,2.40198 1.0114204,2.94742 2.4946104,4.36949 5.1273304,4.91604 4.11275,0.8538 7.77322,-1.05059 8.94933,-4.65596 0.74806,-2.29316 1.08615,-2.72952 2.11484,-2.72952 1.85413,0 2.36782,1.74172 1.37397,4.65852 -1.07707,3.16103 -4.34061,5.87561 -7.76145,6.4559 -0.76539,0.12984 -1.62975,0.27886 -1.92079,0.33115 -0.29104,0.0523 -1.40229,-0.0224 -2.46945,-0.1659 z m -25.35352,-7.07919 c -5.11167,-0.98643 -8.13191,-4.89126 -7.72303,-9.98502 0.20083,-2.50193 0.82349,-3.88592 2.66943,-5.93334 1.79971,-1.99615 3.5692,-2.72879 6.6135496,-2.73826 1.97491,-0.006 2.8634,0.17913 4.30582,0.89792 3.36830999,1.67849 5.35807,4.80953 5.36545,8.44294 0.0122,6.00226 -5.35073,10.45055 -11.2312196,9.31576 z m -1.65917,-6.16596 c 1.12014,-1.12015 0.47621,-2.97341 -1.03314,-2.97341 -0.99838,0 -1.5875,0.65458 -1.5875,1.76389 0,1.64879 1.49251,2.33764 2.62064,1.20952 z m 4.1092796,-5.06294 c 1.7146,-1.71461 1.06213,-4.23788 -1.24562,-4.81708 -1.8882596,-0.47393 -4.0589996,1.62899 -3.5939896,3.48171 0.60081,2.39383 3.0933796,3.0816 4.8396096,1.33537 z m 45.6575804,10.41853 c -2.08205,-0.98718 -4.15786,-3.04462 -4.92166,-4.87809 -0.763,-1.83154 -0.70074,-5.72282 0.1205,-7.53092 2.82685,-6.22382 10.35334,-7.5582 15.35167,-2.72171 1.95869,1.89527 2.81271,3.99338 2.76861,6.80172 -0.0426,2.70958 -0.70449,4.44562 -2.41845,6.34277 -2.47422,2.73867 -7.41498,3.63893 -10.90067,1.98623 z m 0.75468,-5.82237 c 0.58772,-1.18331 0.093,-2.30422 -1.07865,-2.44393 -1.80254,-0.21493 -2.61371,1.46249 -1.37119,2.83546 0.77681,0.85837 1.91977,0.67571 2.44984,-0.39153 z m 2.92425,-4.08109 c 2.5381,-1.31249 1.66723,-5.12832 -1.17041,-5.12832 -1.50741,0 -2.61954,0.9073 -2.90151,2.36712 -0.18305,0.9477 -0.0438,1.3073 0.85375,2.20486 1.20372,1.20371 1.77524,1.30252 3.21817,0.55634 z M -1.0281544,-237.3 c -0.7227,-0.2699 -1.93186,-0.38442 -2.91583,-0.27616 -1.30494,0.14358 -1.83777,0.0432 -2.38125,-0.44866 -1.41909,-1.28425 -0.56722,-3.70139 1.62769,-4.61848 3.25808,-1.36131 8.2555,0.62138 8.2555,3.27531 0,2.35256 -1.73242,3.13375 -4.58611,2.06799 z m 31.5936104,-0.26925 c -0.71033,-1.01413 -0.69401,-1.8605 0.0605,-3.13776 0.95683,-1.61978 3.23168,-2.54134 5.81243,-2.35467 1.87507,0.13563 2.27788,0.29919 3.15536,1.28127 1.14047,1.27641 1.269,2.34592 0.42647,3.54879 -0.51375,0.73349 -0.77387,0.80421 -2.29512,0.62404 -1.0931,-0.12946 -2.24311,-0.0171 -3.1691,0.30959 -2.09605,0.73953 -3.34185,0.65485 -3.99052,-0.27126 z m -88.919997,55.63509 c 3.880557,-0.52306 7.254037,-1.00856 7.496617,-1.07888 0.31924,-0.0925 0.22239,-0.54502 -0.35064,-1.63821 -0.56797,-1.08352 -0.82779,-2.28298 -0.91939,-4.24437 -0.0952,-2.03777 -0.25257,-2.73403 -0.61809,-2.73403 -0.8651,0 -14.912693,2.12177 -15.474226,2.33725 -0.64441,0.24728 -0.650039,0.40644 -0.1598,4.51803 0.509264,4.27115 0.473707,4.1938 1.82751,3.97548 0.628355,-0.10133 4.317464,-0.6122 8.198019,-1.13527 z m 159.645181,0.79965 c 0.007,-0.24253 0.22353,-2.10784 0.48054,-4.14514 0.25701,-2.03729 0.4131,-3.80272 0.34687,-3.92318 -0.16331,-0.29704 -1.45131,-0.54121 -8.215324,-1.55739 -8.31438,-1.2491 -7.66851,-1.39112 -7.86883,1.73028 -0.12259,1.91012 -0.40605,3.02769 -1.06866,4.21322 l -0.90181,1.61353 0.93407,0.18663 c 0.51373,0.10265 3.39469,0.5108 6.40212,0.907 3.00743,0.3962 6.2618,0.85821 7.23194,1.0267 2.527284,0.43892 2.644414,0.43664 2.659084,-0.0516 z m -138.444994,-4.53388 c 0.94998,-1.04819 1.20812,-8.35835 0.34185,-9.68045 -0.65042,-0.99266 -2.13031,-1.16137 -3.21836,-0.3669 -0.59994,0.43806 -0.69942,1.03018 -0.8029,4.77876 -0.0961,3.47951 -0.0122,4.44046 0.4491,5.14443 0.71779,1.09548 2.29506,1.15611 3.23031,0.12416 z m 111.09142,0.25601 c 0.57024,-0.41697 0.68548,-1.08868 0.81631,-4.75829 0.1266,-3.55072 0.0542,-4.42253 -0.42828,-5.15893 -0.73244,-1.11784 -2.37633,-1.19086 -3.41548,-0.15172 -0.67736,0.67737 -0.72534,1.06366 -0.61736,4.97083 0.10933,3.95588 0.17223,4.28099 0.94991,4.91 0.98548,0.79709 1.78569,0.85295 2.6949,0.18811 z m 8.02519,-1.30824 c 0.92304,-1.80303 0.8731,-6.9589 -0.0791,-8.16947 -0.95597,-1.21531 -1.93747,-1.39847 -3.00293,-0.56038 -0.84364,0.66361 -0.88614,0.87091 -0.88614,4.32295 0,1.99426 0.17105,4.11659 0.38011,4.71629 0.64859,1.86055 2.56167,1.69558 3.58809,-0.30939 z m -126.40063,0.11806 c 0.20207,-0.72761 0.36828,-2.81854 0.36936,-4.64653 0.002,-3.70398 -0.41485,-4.61389 -2.11469,-4.61389 -1.81267,0 -2.29306,1.06418 -2.29306,5.07964 0,4.35912 0.5118,5.50369 2.46099,5.50369 1.09774,0 1.2441,-0.12275 1.5774,-1.32291 z m 14.64671,0.49346 c 0.51082,-0.37352 0.68711,-1.08513 0.81465,-3.28832 0.23911,-4.13045 -0.96686,-6.00895 -3.154,-4.91289 -0.78096,0.39137 -0.82353,0.59621 -0.82353,3.96307 0,3.81706 0.33125,4.71482 1.73966,4.71482 0.42423,0 1.06467,-0.21451 1.42322,-0.47668 z m 96.39461,-0.58166 c 0.58015,-1.15082 0.60438,-6.76507 0.0317,-7.33777 -0.6174,-0.6174 -2.58706,-0.51752 -3.14944,0.15971 -0.33073,0.39827 -0.48417,1.58179 -0.48417,3.7346 0,2.90781 0.066,3.20508 0.85347,3.84339 1.08973,0.88334 2.18165,0.72446 2.74847,-0.39993 z m -89.52793,0.0429 c 0.84986,-0.23743 0.84532,-0.24943 -0.52135,-1.37595 -0.75828,-0.62504 -1.50127,-1.13643 -1.65109,-1.13643 -0.14982,0 -0.2724,0.635 -0.2724,1.41111 0,1.51532 0.36853,1.68133 2.44484,1.10127 z m 81.8979,-0.0429 c 0.17816,0 0.32392,-0.55562 0.32392,-1.23472 0,-0.6791 -0.0962,-1.23472 -0.21381,-1.23472 -0.1176,0 -0.85976,0.51159 -1.64924,1.13687 -1.41187,1.11823 -1.42138,1.14078 -0.57993,1.37533 0.47052,0.13116 1.0669,0.17519 1.32531,0.0978 0.2584,-0.0773 0.61559,-0.14061 0.79375,-0.14061 z m -118.033717,-7.79515 c 3.880167,-0.56104 7.110037,-1.18563 7.177497,-1.38799 0.25308,-0.75924 1.93911,-2.50249 2.90188,-3.00036 1.26784,-0.65563 3.53043,-0.66202 5.08051,-0.0144 1.09131,0.45598 1.32542,0.43762 2.54631,-0.19969 1.89135,-0.98728 4.49514,-0.76056 6.20007,0.53985 1.05446,0.80428 1.39751,0.90388 2.00091,0.58095 0.40053,-0.21436 0.72825,-0.44158 0.72825,-0.50493 0,-0.0633 -0.47927,-1.17219 -1.06505,-2.46409 -2.03333,-4.48442 -2.27261,-6.18134 -2.26929,-16.09312 0.003,-8.03099 0.0864,-9.3504 0.78039,-12.30167 l 0.77738,-3.30583 -0.74313,-1.04364 c -0.91796,-1.28915 -1.32425,-4.48177 -1.34537,-10.5717 -0.0196,-5.64753 0.35738,-6.61308 3.91053,-10.01673 3.03398,-2.90632 5.78923,-4.65185 9.68192,-6.1338 3.79629,-1.44525 12.03144,-3.3217 18.8549796,-4.29627 3.59478999,-0.51342 5.63708,-0.95402 5.63708,-1.21614 0,-0.22607 -1.27634001,-4.91643 -2.83631,-10.42304 -4.3903,-15.49752 -4.69931,-16.83573 -4.24117,-18.36669 0.81372,-2.71917 4.56849999,-4.98582 9.01776,-5.44376 3.64452,-0.37511 3.39084,-0.0838 3.2763,-3.76226 l -0.1013,-3.25319 -1.41111,0.10953 c -2.26705,0.17598 -11.05573,1.46708 -13.93473,2.04709 -3.5789696,0.72103 -9.4782596,2.75119 -12.6999896,4.37053 -4.90416,2.46498 -8.45732,5.67704 -11.90153,10.75896 -1.69425,2.49986 -2.40745,3.97608 -5.88006,12.17083 -1.43887,3.39549 -4.14959,9.66611 -6.02381,13.93472 -3.21889,7.33113 -7.82823,18.30211 -12.00549,28.575 -1.025666,2.52236 -2.594222,6.28868 -3.485681,8.3696 -2.088193,4.87443 -5.850124,14.68692 -7.26182,18.94149 -1.947228,5.86856 -2.15553,7.19868 -1.71721,10.9653 0.214501,1.84326 0.531703,3.44241 0.704896,3.55367 0.358162,0.23007 0.171466,0.25171 9.646388,-1.11827 z m 161.518471,0.82769 c 0.09,-0.14558 0.26795,-1.93151 0.39551,-3.96875 0.22229,-3.55021 0.17938,-3.88407 -1.03311,-8.03776 -2.165644,-7.4189 -10.650904,-29.03073 -20.390534,-51.93435 -0.86635,-2.0373 -3.01067,-7.12272 -4.76516,-11.30095 -7.23922,-17.23985 -9.26199,-21.03026 -14.18022,-26.57195 -2.12055,-2.38936 -9.38841,-6.30541 -15.49141,-8.34704 -3.17017,-1.06051 -11.28997,-2.46326 -17.53365,-3.02905 l -2.64561,-0.23974 0.1021,3.31312 0.10209,3.31311 2.39816,0.23707 c 6.26426,0.61925 9.77267,3.19331 9.77267,7.17004 0,1.17616 -1.50715,6.8706 -5.60251,21.16789 -0.94482,3.29847 -1.61859,6.10022 -1.49726,6.22612 0.12133,0.1259 1.64935,0.40904 3.3956,0.6292 7.5642,0.95366 16.76815,2.85719 20.46111,4.2317 3.91911,1.45867 7.65067,3.80972 10.49114,6.60987 3.39091,3.3428 3.62042,4.08893 3.61741,11.76005 -0.002,5.53486 -0.096,6.69791 -0.61735,7.65538 -0.33814,0.62095 -0.84822,1.25963 -1.13352,1.41929 -0.45562,0.25497 -0.45359,0.50392 0.0167,2.04601 1.66243,5.45144 1.97798,9.02858 1.56226,17.71005 -0.33623,7.02128 -0.8696,9.63207 -2.71161,13.27309 -0.47602,0.94093 -0.81513,1.75286 -0.75358,1.8043 1.05946,0.88539 1.76372,0.88152 2.94066,-0.0162 1.71772,-1.31017 3.90419,-1.51034 5.90703,-0.54078 1.47029,0.71175 1.61275,0.72112 2.70199,0.17774 2.3969,-1.19573 6.49625,0.12263 7.52606,2.4204 0.29618,0.66085 0.69982,0.97014 1.26607,0.97014 0.4572,0 2.76001,0.31204 5.11736,0.69342 8.415104,1.36145 10.326884,1.57076 10.581634,1.15856 z m -128.075764,-49.23981 c 8.46805,-4.96261 33.0621896,-8.50761 50.98437,-7.34888 11.97668,0.77433 25.92173,3.43609 31.67964,6.04685 2.57192,1.16616 6.10629,3.58261 7.69678,5.26229 0.56988,0.60183 1.14268,1.09424 1.27289,1.09424 0.13022,0 0.26667,-2.26219 0.30324,-5.02708 0.0662,-5.00585 0.0621,-5.03395 -0.96807,-6.65159 -3.78725,-5.94688 -13.36037,-9.74323 -29.84184,-11.83419 -3.82707,-0.48553 -4.94636,-0.52733 -5.05916,-0.18895 -0.43363,1.30091 -2.67338,3.93885 -4.33628,5.1072 -2.88097,2.02417 -6.02479,2.85278 -9.98222,2.63101 -5.17676,-0.29011 -8.9386004,-2.10486 -11.2684304,-5.43601 -0.62066,-0.88743 -1.29224,-1.84282 -1.4924,-2.12309 -0.31664,-0.4434 -0.93519,-0.43539 -4.7625,0.0617 -17.3203196,2.24959 -26.6421196,5.97582 -30.2191796,12.07961 -0.84766,1.44643 -0.91958,1.87481 -0.86574,5.15651 0.0323,1.96847 0.15482,4.25567 0.27226,5.08267 l 0.21355,1.50364 2.35238,-2.21912 c 1.29381,-1.22051 3.10313,-2.65908 4.02071,-3.19682 z m 47.35228,-15.79275 c 1.87084,-0.69997 3.95762,-2.58265 4.8508,-4.37636 0.53335,-1.07108 4.072,-13.02438 5.93783,-20.05753 0.5588,-2.10637 1.33468,-4.86153 1.72418,-6.12258 1.00179,-3.24341 0.94174,-4.80579 -0.21982,-5.71948 -1.14594,-0.90139 -3.05199,-1.43404 -5.49763,-1.53632 l -1.86465,-0.078 -0.18061,7.23195 c -0.12873,5.15461 -0.0539,7.73861 0.2604,8.99583 0.59244,2.36961 0.56119,3.62971 -0.14419,5.8138 -2.51991,7.80244 -13.59787,9.28252 -18.1387704,2.42344 -1.5019,-2.26865 -1.90065,-4.45159 -1.43426,-7.85188 0.2564,-1.8693 0.3036,-5.22955 0.13672,-9.73397 l -0.25484,-6.87917 -1.5875,0.0749 c -2.60914,0.12305 -4.84737001,0.81176 -5.82930001,1.79369 -1.14678999,1.14678 -1.19031999,0.86902 1.83570001,11.71338 5.69857,20.42199 5.69287,20.40468 7.29806,22.17113 2.6188804,2.88198 8.5378504,3.84704 13.1078804,2.13717 z m -1.36405,-13.91508 c 1.87343,-1.0979 2.71213,-2.60635 2.7384,-4.92517 0.0291,-2.57259 -0.92338,-4.25455 -3.00751,-5.31066 -2.1571,-1.09308 -4.251,-1.116 -6.32311,-0.0692 -2.17501,1.09878 -3.16441,2.69236 -3.16441,5.09677 0,1.98398 0.52588,3.39604 1.64037,4.40464 2.15045,1.94613 5.58622,2.28632 8.11626,0.80362 z m -7.28718,-13.921 c 2.42508,-0.95588 6.22574,-0.9626 7.99535,-0.0141 0.70951,0.38028 1.42225,0.60969 1.58387,0.50981 0.16161,-0.0999 0.25521,-6.72133 0.208,-14.71433 -0.0851,-14.40119 -0.093,-14.5427 -0.87264,-15.63575 -1.05995,-1.48597 -2.92873,-2.30836 -5.37314,-2.36455 -1.66328,-0.0382 -2.2865,0.12579 -3.48073,0.91609 -2.70459,1.78981 -2.71102,1.8169 -2.61308,10.99754 0.0961,9.01165 0.46504,21.0109 0.64595,21.0109 0.064,0 0.92191,-0.3175 1.90642,-0.70556 z"
       id="path130" /></g></svg>
