<?xml version="1.0" encoding="UTF-8" standalone="no"?>
<!-- Created with Inkscape (http://www.inkscape.org/) -->

<svg
   width="164.32956mm"
   height="218.67844mm"
   viewBox="0 0 164.32958 218.67841"
   version="1.1"
   id="svg1"
   xml:space="preserve"
   xmlns="http://www.w3.org/2000/svg"
   xmlns:svg="http://www.w3.org/2000/svg"><defs
     id="defs1"><clipPath
       clipPathUnits="userSpaceOnUse"
       id="clipPath6"><path
         id="path7"
         style="fill:#ff0000;fill-opacity:1;fill-rule:nonzero;stroke:none;stroke-width:0.264583"
         d="M -175.07778,-16.057127 V 287.55793 H 124.54631 V -16.057127 Z m 132.7459,202.572647 c 0.210643,0.005 0.427212,0.0169 0.650089,0.0367 2.23823,0.19855 4.475655,0.4031 6.717938,0.55346 1.973313,0.11308 0.986628,0.0436 2.958475,0.20825 3.181295,0.26563 4.740125,1.85116 4.950601,3.46956 4.949923,1.63749 3.796379,7.35609 -2.592089,6.81354 -3.228716,-0.27422 -1.569593,-0.1301 -4.979024,-0.43357 -4.228209,-0.39317 -8.460616,-0.76265 -12.666927,-1.35341 -6.647387,-0.93358 -5.930551,-7.21034 0.03204,-7.20421 0.04685,5e-5 0.0972,0.004 0.144695,0.005 0.687229,-1.21692 2.304132,-2.15435 4.784204,-2.09548 z" /></clipPath><clipPath
       clipPathUnits="userSpaceOnUse"
       id="clipPath76"><path
         id="path77"
         style="fill:#ff0000;fill-opacity:1;fill-rule:nonzero;stroke:none;stroke-width:0.264583"
         d="M -133.83107,-122.52355 V 173.82063 H 122.97289 V -122.52355 Z M 13.574404,98.948202 c 2.788179,0.0507 4.135003,2.063798 3.398242,4.077268 0.199805,0.45372 0.374906,0.96736 0.517797,1.54461 1.07913,4.35948 0.671079,8.891 0.311608,13.31495 -0.351859,3.06036 -0.147137,1.57974 -0.604097,4.44366 -0.359666,2.25418 -1.333846,3.66838 -2.455664,4.32532 0.105138,0.36595 0.224724,0.72888 0.324528,1.09554 0.6273,2.23652 0.575201,4.47401 0.39429,6.75514 -0.137303,1.73129 -0.688065,2.99533 -1.427303,3.82199 -0.112477,0.41601 -0.170275,0.80219 -0.311092,1.25212 -0.184975,0.59102 -0.413327,1.1061 -0.670242,1.55856 0.741137,-0.23134 1.446982,-0.38145 2.064991,-0.37517 4.085002,0.0415 5.222724,4.75435 -0.02223,7.27138 -4.46677,2.14368 -9.303523,3.34693 -14.11903492,4.40955 -4.40876268,0.85156 -8.89238128,1.33053 -13.38264308,1.19269 -5.804014,-0.17807 -6.736297,-5.00293 -3.065447,-6.67298 -2.072987,-0.65744 -4.042852,-1.62261 -4.128947,-3.14709 -0.02802,-0.49633 0.0026,-0.90355 0.0341,-1.30897 -1.976731,-0.003 -3.95339,2.4e-4 -5.930386,0.003 -0.814031,0 -1.53062,-0.0962 -2.159559,-0.26149 -0.376306,0.19492 -0.742394,0.40783 -1.120862,0.59893 -6.391272,3.22657 -9.625245,-3.24074 -3.234428,-6.46886 1.833438,-0.92611 3.62694,-1.92211 5.414142,-2.92954 -0.877003,-3.87058 -1.368747,-7.83436 -1.323951,-11.80858 0.01651,-1.46304 0.376836,-2.54918 0.864547,-3.41426 -1.247357,-1.79999 -0.223805,-4.63069 3.842661,-5.68855 3.11826,-0.81116 6.282901,-1.39515 9.473837,-1.82211 -1.259816,-0.12657 -2.516182,-0.30233 -3.764627,-0.50177 -1.477002,-0.21985 -2.935575,-0.54305 -4.407482,-0.7891 -1.14214,-0.22954 -0.588502,-0.12004 -1.660882,-0.3297 -3.350244,-0.65501 -4.783278,-2.61088 -4.608504,-4.32997 -0.200179,-1.7721 1.333365,-3.52972 4.663799,-3.59461 v -5.3e-4 c 0.20954,-0.004 0.426035,-0.002 0.649571,0.008 1.77111,0.0772 3.528708,0.28204 5.26428,0.64027 1.655035,0.33225 3.314115,0.6481 4.955251,1.04439 1.244759,0.34858 2.51628,0.54538 3.7997689,0.6723 0.025956,0.002 0.052073,0.002 0.078034,0.004 0.4990888,-0.0371 0.9984105,-0.0743 1.4965495,-0.11317 1.346872,-0.12588 2.6913231,-0.25136 4.0457464,-0.24236 1.1278499,-0.0444 2.2567291,-0.10772 3.37498791,-0.26872 0.75719517,-0.11591 1.51142439,-0.25483 2.25722659,-0.4284 0.3616431,-0.12394 0.7240561,-0.24538 1.083138,-0.37775 0.3360393,-0.12388 0.6107589,-0.12825 0.9250071,-0.20723 0.1281086,-0.045 0.2583895,-0.0825 0.3855085,-0.13074 1.9825018,-0.7681 3.9540551,-1.56464 5.9510551,-2.29443 1.050809,-0.383992 1.999634,-0.542639 2.826703,-0.527616 z M 0.70283723,110.39557 c -0.45566013,0.0949 -0.90775367,0.208 -1.36890919,0.2744 -1.16638124,0.15534 -2.34111274,0.24237 -3.51761424,0.26251 0.4031694,0.0896 0.8047355,0.18876 1.2025101,0.308 0.1014836,0.0304 0.1982549,0.075 0.2986907,0.10852 0.4205235,-0.21824 0.9206601,-0.35072 1.4898318,-0.37156 0.39885139,-0.0146 0.83259872,0.0278 1.29449508,0.13023 0.22468681,-0.12213 0.44967525,-0.24374 0.67437529,-0.36587 -0.0326284,-0.11319 -0.058211,-0.22834 -0.0733795,-0.34623 z m 10.24433577,1.02474 c -0.76023,0.21437 -1.5189569,0.4343 -2.2696301,0.68006 -0.031261,0.62207 -0.2256075,1.28373 -0.6464723,1.94355 0.6236891,0.43248 1.2549743,1.04482 1.8634525,1.86862 0.2674939,0.36214 0.4748849,0.75712 0.7188199,1.13223 0.154519,-1.86707 0.314174,-3.74736 0.33383,-5.62446 z m 64.566086,3.39773 c 1.50346,0.0187 3.129182,1.24994 3.928441,4.04678 0.257931,0.90255 0.823497,1.65871 1.488797,2.30735 0.856321,0.95375 1.845738,1.76777 2.801898,2.61638 1.458581,1.46408 2.789203,3.04608 4.169772,4.58215 1.315059,1.44746 2.571226,2.91698 3.543967,4.61884 0.0053,0.01 0.0082,0.0206 0.01344,0.0305 0.734605,-0.43313 1.446276,-0.65634 2.094962,-0.69195 3.016182,-0.16561 4.69137,3.55377 1.187525,7.32306 -1.69471,1.82311 -3.657862,3.33908 -5.68751,4.7651 -0.777873,0.49914 -1.607691,0.90075 -2.418456,1.33842 0.165478,1.44344 -0.672182,3.24303 -2.956409,4.73096 -1.354556,0.88234 -2.690448,1.79306 -4.075203,2.6288 -2.075008,1.20078 -4.233777,2.27962 -6.540687,2.96259 -2.077586,0.62971 -4.169056,1.29987 -6.359301,1.36374 -1.872114,0.0897 -3.746989,0.0368 -5.620845,0.0501 h -5.1108 -5.524728 c -7.160125,0 -7.160125,-7.23315 0,-7.23315 h 1.347722 c 0.29438,-0.0541 0.5212,-0.1588 0.84801,-0.18656 1.106628,-0.094 2.200932,-0.28334 3.292822,-0.48421 0.456121,-0.98163 1.356053,-1.98213 2.807581,-2.83962 1.078018,-0.63685 2.158119,-1.26923 3.212209,-1.94561 1.962647,-1.29302 3.840588,-2.72135 5.893696,-3.86902 1.367169,-0.76424 2.559646,-1.07097 3.526915,-1.04128 2.216811,0.068 3.246223,1.90266 2.479953,4.04059 1.105688,-0.48686 2.206929,-0.98346 3.283003,-1.53739 2.619811,-1.23728 5.288743,-2.38548 7.764385,-3.9026 0.246153,-0.17184 0.487463,-0.34958 0.730705,-0.52503 -0.126915,-0.50614 -0.277693,-0.9939 -0.512114,-1.46554 -0.647621,-1.25778 -1.721077,-2.20654 -2.600875,-3.29644 -1.199229,-1.33472 -2.369312,-2.69496 -3.592029,-4.00803 -1.098706,-0.97599 -2.227236,-1.92181 -3.215306,-3.01428 -1.300821,-1.39063 -2.459913,-2.93896 -3.045293,-4.77801 -1.289469,-4.05101 0.646382,-6.61405 2.843754,-6.58667 z m -95.086705,4.28035 c -0.465643,0.10748 -0.930899,0.21773 -1.394745,0.33435 0.171958,0.64334 0.283575,1.36624 0.279569,2.2071 -0.01267,2.6582 0.205063,5.32647 0.670242,7.94732 0.280107,-0.17087 0.565767,-0.33222 0.845429,-0.50385 -0.01897,-0.36223 -0.02445,-0.73164 -0.05529,-1.08985 -0.118034,-2.96491 -0.160888,-5.93314 -0.3452,-8.89507 z m 18.5141159,1.1958 c 0.00497,0.0773 0.00619,0.15612 0.014975,0.23202 -0.1238779,0.22787 -0.2588048,0.44752 -0.3937741,0.66715 0.58900751,0.0447 1.13203305,0.21413 1.64331124,0.45888 -0.37615284,-0.49255 -0.78353709,-0.94642 -1.26452314,-1.35805 z m -6.5422357,14.57068 c -0.046649,0.0755 -0.09888,0.14702 -0.1436608,0.22376 -0.03147,0.054 0.1963367,0.0838 0.1860365,0.0222 -0.017595,-0.10481 -0.026035,-0.14905 -0.042376,-0.24597 z m 13.9236979,6.08439 c -0.2236258,0.5643 -0.5677508,1.09664 -1.1782213,1.50533 0.9079653,0.17659 1.7077452,0.44257 2.2830631,0.84852 0.1405493,-0.0459 0.272804,-0.11448 0.4128956,-0.16174 -0.7336976,-0.43656 -1.2984269,-1.18703 -1.5177374,-2.19211 z" /></clipPath><clipPath
       clipPathUnits="userSpaceOnUse"
       id="clipPath127"><path
         id="path128"
         style="fill:#ff0000;fill-opacity:1;fill-rule:nonzero;stroke:none;stroke-width:0.264583"
         d="M -112.24796,-126.55676 V 185.58027 H 148.5754 V -126.55676 Z M 46.874626,83.305366 c 1.808208,0 3.616317,1.790192 3.616317,5.370214 v 5.232238 c 0.0627,2.146078 -0.111291,4.285324 -0.245462,6.424932 -0.136289,2.02485 -0.190703,4.04985 -0.104904,6.07715 0.192061,1.91863 0.527714,3.82569 0.876432,5.72213 0.304242,2.00862 0.765826,3.9858 1.180806,5.97276 0.41642,1.86142 0.967934,3.68703 1.421104,5.53972 0.25287,0.86996 0.117097,0.46495 0.396356,1.22008 0.186108,0.50319 0.223428,0.93098 0.309544,1.38441 4.425355,2.23251 2.751262,7.58433 -3.415813,6.40477 -3.104732,-0.59371 -6.256094,-0.76586 -9.40821,-0.85576 -3.81635,0.009 -7.630525,0.17062 -11.44478,0.28216 -1.12776,0.0333 -2.255837,0.0512 -3.383772,0.0754 -0.908129,0.5548 -1.966518,0.57724 -2.88613,0.0641 -0.03584,5.3e-4 -0.07165,0.002 -0.107487,0.003 -0.03142,5.3e-4 -0.0525,-0.009 -0.08268,-0.009 -0.32049,0.14732 -0.641715,0.29301 -0.962215,0.44028 -0.262501,0.12062 -0.518089,0.22111 -0.770496,0.31265 -0.876996,0.71434 -1.945576,0.85817 -2.911967,0.46405 -2.943479,-0.21613 -4.295167,-2.77187 -2.550232,-5.0524 -2.22e-4,-0.028 -0.0078,-0.0483 -0.0078,-0.0765 v -6.3469 c -0.014,-2.72977 -0.02254,-5.45666 0.112657,-8.18348 0.135676,-2.32533 0.233519,-4.6523 0.299723,-6.98046 0.046,-1.80459 0.06926,-3.60958 0.08527,-5.41465 -0.0258,-1.02998 0.04009,-2.054459 0.138491,-3.078883 0.0044,-0.04602 0.02191,-0.07504 0.02687,-0.120406 C 15.992671,97.193438 15.83363,95.70984 16.656834,94.418959 10.68718,93.678613 10.992573,87.32947 17.739972,87.32947 h 3.885033 5.177462 5.913334 c 1.498505,0.05847 2.984222,-0.03228 4.475178,-0.161748 1.252041,-0.18606 2.49041,-0.398671 3.697968,-0.782897 1.001961,-0.32245 0.492366,-0.161472 1.527553,-0.482142 0.510384,-0.158096 0.938446,-0.174371 1.394749,-0.23771 0.672338,-1.56932 1.86623,-2.35903 3.063377,-2.35903 z" /></clipPath></defs><g
     id="layer1"
     transform="translate(-7.8294963,298.41596)"><path
       style="fill:#000000"
       d="m 75.21052,-79.854671 c -13.03967,-0.744353 -19.10134,-1.444866 -21.43125,-2.476685 -0.29104,-0.128891 -1.24354,-0.43372 -2.11666,-0.677398 -2.95162,-0.823759 -4.06058,-1.388791 -6.20062,-3.159283 -3.89294,-3.220711 -5.82226,-5.927054 -7.44903,-10.449068 -0.54104,-1.503977 -0.61866,-2.20122 -0.61853,-5.556255 1.2e-4,-2.86348 0.11512,-4.21585 0.45344,-5.33239 0.2493,-0.82276 0.45328,-1.61598 0.45328,-1.76271 0,-0.14673 -0.74414,-0.79861 -1.65365,-1.44863 -1.76183,-1.25916 -6.28385,-5.78688 -6.28385,-6.29176 0,-0.16598 -0.52325,-1.23223 -1.16278,-2.36945 -2.1407,-3.80664 -2.80065,-6.5551 -2.80397,-11.67751 -0.004,-6.38486 1.85712,-11.84543 6.02015,-17.66192 1.79958,-2.51433 6.96167,-7.96636 10.0983,-10.6655 l 1.70066,-1.46346 -1.83137,-2.34719 c -8.25873,-10.58483 -14.82229,-15.95121 -30.32017,-24.78981 -1.83133,-1.04443 -2.83909,-1.98036 -3.28724,-3.05294 -1.70246,-4.07455 -1.22937,-8.59974 2.386,-22.82277 5.10224,-20.07245 9.63879,-34.56781 12.78347,-40.84624 5.41625,-10.81369 16.14455,-20.6343 30.6203,-28.02962 3.81874,-1.9509 7.9059,-3.60873 12.10374,-4.90952 2.88209,-0.89307 3.15694,-1.03719 3.87888,-2.03379 1.34147,-1.85185 3.96976,-4.50807 5.31453,-5.371 5.28605,-3.39205 16.91188,-4.37696 26.38877,-2.23558 4.95873,1.12047 7.7135,2.82221 11.17743,6.90477 1.56484,1.84432 1.67189,1.91611 3.91947,2.62872 6.83584,2.16733 14.23005,5.79472 21.49299,10.54384 9.23592,6.03923 16.08903,13.98727 19.99029,23.18418 1.20516,2.84105 3.22568,9.01427 5.27585,16.11904 4.68597,16.23906 7.58575,30.5099 7.99053,39.32427 0.2399,5.22401 0.11459,5.40572 -7.56271,10.96694 -7.80901,5.65663 -15.96468,13.097 -21.05978,19.21272 -2.60393,3.12554 -4.89876,6.23949 -4.89876,6.64732 0,0.10958 0.38695,0.42457 0.85989,0.69999 1.41107,0.82172 3.08012,2.14514 6.06309,4.80751 9.2896,8.2912 13.71452,16.63353 13.71452,25.85608 0,3.35963 -0.3901,5.21587 -1.54208,7.33779 -0.4275,0.78746 -0.9653,2.08659 -1.19509,2.88695 -0.25197,0.87761 -0.64053,1.59281 -0.97892,1.80188 -0.3086,0.19066 -0.80607,0.90504 -1.10548,1.5875 -0.64414,1.46823 -3.60572,4.49181 -5.97695,6.10207 -0.99167,0.67344 -1.6369,1.29998 -1.6369,1.58949 0,0.26284 0.21743,1.12161 0.48318,1.90837 0.90966,2.69311 -0.0382,9.365679 -1.86179,13.105667 -0.78132,1.602442 -2.77144,4.224833 -3.54859,4.67599 -0.20046,0.116372 -0.36447,0.375057 -0.36447,0.574856 0,0.305031 -3.2003,2.785435 -3.59386,2.785435 -0.0709,0 -0.44651,0.208359 -0.83468,0.46302 -0.84854,0.556688 -1.96122,0.872236 -6.81625,1.933031 -8.25919,1.804586 -19.32507,3.083505 -31.88229,3.684737 -4.84189,0.231827 -19.70632,0.29495 -23.15104,0.09831 z m 26.85521,-2.73474 c 12.97106,-0.93744 25.77203,-2.756775 31.06563,-4.415195 4.76774,-1.493673 7.96564,-4.03243 10.01592,-7.951477 4.63273,-8.855307 0.54262,-20.691357 -8.62446,-24.957657 -2.13667,-0.9944 -4.17843,-1.50624 -6.88422,-1.72578 l -2.20083,-0.17858 -0.6823,1.15727 c -0.65333,1.10811 -3.01621,3.6708 -3.3846,3.6708 -0.0971,0 -0.24809,1.01383 -0.33554,2.25296 -0.17587,2.49211 -0.67013,3.64262 -1.75596,4.08745 -1.54852,0.63437 -7.17736,1.00034 -8.74697,0.5687 -0.37617,-0.10345 -0.8802,-0.58619 -1.16861,-1.11926 -0.42355,-0.78283 -0.79779,-1.0363 -2.27023,-1.53759 l -1.76308,-0.60024 -0.90477,0.84353 c -1.40146,1.30659 -4.6455,3.71825 -7.09197,5.27228 -7.79089,4.94884 -17.93481,7.958025 -28.34093,8.407285 -1.96453,0.0848 -3.51234,0.0901 -3.43958,0.0118 0.0728,-0.0784 2.33495,-0.5804 5.02708,-1.11566 13.44657,-2.673535 20.32549,-5.162005 27.43199,-9.923625 3.76122,-2.52016 5.79392,-4.39548 5.34746,-4.93343 -0.24543,-0.29573 -2.31175,-0.36207 -11.27625,-0.36207 H 81.10774 l -0.80351,0.67611 c -0.99421,0.83657 -2.96536,1.84482 -4.07579,2.08478 -0.57818,0.12495 -0.93022,0.41216 -1.14717,0.93595 -0.49554,1.19632 -1.41805,1.41508 -5.36624,1.2725 -3.53108,-0.12752 -4.97609,-0.46481 -5.69252,-1.32873 -0.18705,-0.22556 -0.46905,-1.50077 -0.62667,-2.83379 l -0.28657,-2.42367 -1.39093,-1.31548 c -0.76501,-0.72352 -1.67363,-1.85827 -2.01916,-2.52167 l -0.62824,-1.20619 -1.85208,0.17703 c -2.60496,0.24899 -6.1424,1.45404 -8.40128,2.86194 -2.38815,1.48847 -5.05513,4.22933 -6.4843,6.66393 -2.55703,4.35592 -3.30567,10.55571 -1.8211,15.08125 0.87565,2.669303 1.84075,4.330986 3.70674,6.382145 2.87551,3.160867 7.1485,5.393931 12.33848,6.448087 3.69442,0.750388 11.47516,1.484778 20.76979,1.960372 3.3913,0.173528 20.84634,-0.08474 24.73854,-0.366035 z m -42.8625,-2.387646 C 58.25735,-85.10511 56.65,-85.368179 55.63136,-85.561656 l -1.85209,-0.351775 6.74688,-0.46179 c 9.89146,-0.677021 13.3968,-1.298281 20.6375,-3.657632 9.50681,-3.097758 17.89813,-7.320261 26.80183,-13.486657 2.06665,-1.43129 4.6343,-3.2085 5.70589,-3.94937 1.07159,-0.74086 1.99627,-1.29909 2.05485,-1.24052 0.16574,0.16574 -5.63909,5.70685 -7.70737,7.35722 -8.95489,7.145484 -21.97229,13.055628 -34.66041,15.736481 -2.51035,0.530408 -4.14428,0.69184 -7.80521,0.771153 -2.54661,0.05517 -5.40411,-0.0045 -6.35,-0.132511 z m 59.20149,-2.561692 c -0.35181,-0.09209 -0.40217,-0.232834 -0.21107,-0.5899 0.29601,-0.553095 2.97664,-1.1599 7.15541,-1.619741 3.01353,-0.331615 7.09537,-1.132168 8.75091,-1.716275 1.63384,-0.576455 1.21506,-0.182794 -0.74726,0.702429 -3.79051,1.709939 -8.61843,2.928654 -12.76615,3.222568 -0.94588,0.06703 -1.92771,0.06744 -2.18184,9.19e-4 z m 31.38996,-27.539671 c 1.00306,-0.97862 2.48049,-2.77909 3.28318,-4.00104 3.61327,-5.50055 4.51407,-10.804 2.92478,-17.21974 -1.42684,-5.75999 -4.5084,-10.62593 -10.32336,-16.30113 -2.69535,-2.63057 -7.95314,-6.98761 -8.43219,-6.98761 -0.13508,0 -0.5017,0.50602 -0.8147,1.12448 -0.313,0.61846 -0.79167,1.44051 -1.06371,1.82678 -0.71222,1.01127 -0.62231,1.19601 0.53742,1.10428 0.84408,-0.0668 1.31389,0.11068 2.57969,0.97439 0.8512,0.58082 2.0239,1.4716 2.60598,1.97952 l 1.05833,0.92348 -1.5875,-0.55536 c -2.86833,-1.00344 -5.84325,-0.92575 -6.75802,0.17649 -0.2618,0.31544 0.0149,0.69149 1.5638,2.12556 1.03503,0.95828 2.37584,2.50614 2.97957,3.43968 1.08588,1.67907 1.55319,2.07035 1.55319,1.30049 0,-0.73642 0.69243,-0.40378 1.25941,0.60503 0.64633,1.14999 1.67827,3.49601 1.53778,3.49601 -0.0519,0 -0.54643,-0.59269 -1.09886,-1.31709 -0.55243,-0.7244 -1.0469,-1.27461 -1.09881,-1.2227 -0.0519,0.0519 0.26729,1.48736 0.70934,3.18989 1.13966,4.38929 2.37405,18.64011 1.95875,22.61346 -0.14793,1.41532 -0.0953,1.64074 0.63054,2.70023 0.43557,0.6358 1.05194,1.66821 1.36971,2.29425 l 0.57778,1.13825 1.11208,-0.81414 c 0.61164,-0.44778 1.93276,-1.61483 2.93582,-2.59346 z m -109.4862,1.59412 c 0.55024,-0.83674 1.39526,-2.04449 1.87781,-2.68388 l 0.87736,-1.16252 0.003,-4.39373 c 0.005,-8.12537 0.64614,-14.34944 2.02867,-19.6888 0.36957,-1.4273 0.61754,-2.64949 0.55106,-2.71597 -0.0665,-0.0665 -0.55687,0.53575 -1.08974,1.33831 -0.53287,0.80256 -1.0262,1.4592 -1.0963,1.4592 -0.21054,0 0.71294,-2.17778 1.3744,-3.24115 0.6854,-1.10187 0.98204,-1.21509 1.3863,-0.52916 0.17621,0.29898 0.34491,0.36478 0.47617,0.18572 0.1118,-0.15251 0.60653,-0.86689 1.09939,-1.5875 0.49287,-0.72061 1.67377,-2.10729 2.62423,-3.08151 1.51037,-1.54814 1.68325,-1.82536 1.37211,-2.20026 -1.20913,-1.45691 -4.21992,-1.54886 -7.80287,-0.2383 -0.91543,0.33485 0.59271,-1.15801 2.2916,-2.26838 l 1.49786,-0.97897 -1.10098,-1.7539 c -0.60554,-0.96464 -1.17092,-1.75731 -1.2564,-1.76149 -0.0855,-0.004 -1.62475,1.39138 -3.42059,3.10125 -8.72544,8.30776 -12.75284,15.38135 -13.15093,23.09787 -0.30968,6.00264 1.392,11.25537 5.21184,16.08783 0.97367,1.23178 4.65744,4.52306 5.07323,4.5327 0.095,0.002 0.62291,-0.68061 1.17316,-1.51736 z m 32.38197,1.00439 c 0.15217,-0.28434 0.34798,-1.20707 0.43513,-2.05052 l 0.15845,-1.53355 -3.8654,-0.0237 -3.8654,-0.0237 v 0.85051 c 0,1.40865 0.29859,2.45898 0.7573,2.66392 0.54803,0.24485 2.92567,0.54439 4.7235,0.59508 1.12221,0.0316 1.43139,-0.0576 1.65642,-0.47807 z m -1.44868,-1.46845 c -0.14552,-0.0504 -1.06935,-0.16962 -2.05296,-0.26502 -0.9836,-0.0954 -1.72838,-0.27053 -1.65505,-0.38917 0.0733,-0.11865 0.58044,-0.11189 1.12692,0.015 0.54647,0.1269 1.44008,0.23356 1.98578,0.23704 0.5457,0.003 0.99219,0.12537 0.99219,0.27089 0,0.14552 -0.0298,0.25518 -0.0662,0.2437 -0.0364,-0.0115 -0.18521,-0.0621 -0.33073,-0.11245 z m 0.66146,10e-4 c 0,-0.0728 0.0595,-0.13229 0.13229,-0.13229 0.0728,0 0.13229,0.0595 0.13229,0.13229 0,0.0728 -0.0595,0.13229 -0.13229,0.13229 -0.0728,0 -0.13229,-0.0595 -0.13229,-0.13229 z m 45.69778,1.49788 c 0.61213,-0.33017 1.10118,-1.71417 1.07961,-3.05526 l -0.0123,-0.76363 -1.99122,0.16832 c -1.09517,0.0926 -2.87994,0.16832 -3.96616,0.16832 H 110.736 l 0.17849,1.52135 c 0.31677,2.69983 0.0828,2.52918 3.28416,2.3951 1.54882,-0.0649 3.07987,-0.26026 3.40235,-0.4342 z m -4.61595,-1.78977 c 0.0878,-0.0878 1.03036,-0.25793 2.09461,-0.37811 1.06426,-0.12017 2.17314,-0.304 2.46418,-0.4085 0.38211,-0.1372 0.45404,-0.10773 0.25883,0.10604 -0.14868,0.16283 -1.10118,0.41612 -2.11666,0.56287 -2.13469,0.30849 -2.92625,0.34298 -2.70096,0.1177 z m -35.12267,-1.50236 c 0.72428,-0.47751 1.69509,-1.14828 2.15734,-1.49059 l 0.84045,-0.62239 10.93351,0.0364 c 11.63715,0.0387 13.30344,0.13124 13.0752,0.72602 -0.0878,0.22892 0.39499,0.70377 1.31219,1.2905 1.8579,1.18848 2.22534,1.18885 2.26772,0.002 0.0182,-0.50932 0.0628,-1.16417 0.0992,-1.45521 0.0364,-0.29104 0.081,-0.70115 0.0992,-0.91135 0.0274,-0.31705 0.76592,-0.37883 4.33255,-0.36247 6.25959,0.0287 7.66405,-0.39731 9.35897,-2.83886 1.06083,-1.52814 0.93071,-1.80972 -0.30846,-0.6675 -0.66902,0.61669 -2.01169,1.49802 -2.98372,1.95853 -1.72198,0.8158 -1.85893,0.83677 -5.33918,0.81771 -3.39842,-0.0186 -3.6554,-0.0584 -5.29167,-0.81918 -0.94589,-0.43979 -1.8832,-0.99653 -2.08292,-1.2372 -0.2053,-0.24741 -0.78028,-0.44906 -1.32292,-0.46397 -0.86802,-0.0238 -0.89655,-0.0466 -0.29833,-0.23798 0.3638,-0.11638 -5.32023,-0.19076 -12.63118,-0.16528 -12.59626,0.0439 -13.31705,0.0722 -13.75834,0.53983 -0.25613,0.27143 -0.31686,0.41018 -0.13496,0.30834 0.18191,-0.10185 0.33073,-0.0463 0.33073,0.12332 0,0.17621 -0.18457,0.23768 -0.43041,0.14335 -0.23672,-0.0908 -0.56414,-0.0627 -0.7276,0.0624 -0.80439,0.61606 -4.06416,1.64719 -5.65262,1.78803 -3.67669,0.326 -7.61035,-0.97421 -9.45013,-3.12358 -1.13579,-1.32691 -1.29697,-0.73402 -0.27467,1.01039 1.34356,2.29262 2.86852,2.75251 9.12698,2.75251 4.84035,0 4.80799,-0.0163 4.56851,2.30405 -0.1293,1.2528 -0.0913,1.40012 0.36157,1.40012 0.27833,0 1.09866,-0.39069 1.82295,-0.86821 z m 28.96584,-0.32241 c -0.3638,-0.20797 -0.53539,-0.38235 -0.3813,-0.3875 0.15409,-0.005 0.51128,0.16543 0.79375,0.37908 0.65325,0.49409 0.4446,0.49835 -0.41245,0.008 z m -1.05833,-0.52917 c 0,-0.0728 0.0595,-0.13229 0.13229,-0.13229 0.0728,0 0.13229,0.0595 0.13229,0.13229 0,0.0728 -0.0595,0.13229 -0.13229,0.13229 -0.0728,0 -0.13229,-0.0595 -0.13229,-0.13229 z m -0.52917,-0.26458 c 0,-0.0728 0.0595,-0.1323 0.13229,-0.1323 0.0728,0 0.13229,0.0595 0.13229,0.1323 0,0.0728 -0.0595,0.13229 -0.13229,0.13229 -0.0728,0 -0.13229,-0.0595 -0.13229,-0.13229 z m 2.91042,-1.5875 c 0,-0.0728 0.0595,-0.1323 0.13229,-0.1323 0.0728,0 0.13229,0.0595 0.13229,0.1323 0,0.0728 -0.0595,0.13229 -0.13229,0.13229 -0.0728,0 -0.13229,-0.0595 -0.13229,-0.13229 z m -32.54375,-0.52917 c 0,-0.0728 0.0595,-0.13229 0.13229,-0.13229 0.0728,0 0.13229,0.0595 0.13229,0.13229 0,0.0728 -0.0595,0.13229 -0.13229,0.13229 -0.0728,0 -0.13229,-0.0595 -0.13229,-0.13229 z m 32.54375,0 c 0,-0.0728 0.0595,-0.13229 0.13229,-0.13229 0.0728,0 0.13229,0.0595 0.13229,0.13229 0,0.0728 -0.0595,0.13229 -0.13229,0.13229 -0.0728,0 -0.13229,-0.0595 -0.13229,-0.13229 z m -32.80834,-0.52917 c 0,-0.0728 0.0595,-0.13229 0.1323,-0.13229 0.0728,0 0.13229,0.0595 0.13229,0.13229 0,0.0728 -0.0595,0.13229 -0.13229,0.13229 -0.0728,0 -0.1323,-0.0595 -0.1323,-0.13229 z m 3.63802,-2.1711 c 0.32743,-0.0631 0.86321,-0.0631 1.19063,0 0.32742,0.0631 0.0595,0.11466 -0.59531,0.11466 -0.65485,0 -0.92274,-0.0516 -0.59532,-0.11466 z m 10.58334,-0.26458 c 0.32742,-0.0631 0.8632,-0.0631 1.19062,0 0.32742,0.0631 0.0595,0.11466 -0.59531,0.11466 -0.65484,0 -0.92273,-0.0516 -0.59531,-0.11466 z m 51.16357,-2.71181 c -0.14384,-2.94571 -0.31977,-5.41409 -0.39097,-5.48528 -0.0712,-0.0712 -0.49495,0.14078 -0.94169,0.47107 -0.44673,0.33028 -1.30085,0.66819 -1.89803,0.7509 -1.0343,0.14326 -1.11535,0.22314 -1.70909,1.68472 -0.34282,0.84389 -1.06013,2.12941 -1.59402,2.85671 -0.53389,0.7273 -0.92669,1.35439 -0.8729,1.39352 0.0538,0.0391 0.99078,0.4565 2.08219,0.92749 1.0914,0.47098 2.69875,1.3692 3.57187,1.99604 0.87313,0.62683 1.6835,1.05442 1.80083,0.95018 0.11734,-0.10424 0.0957,-2.59965 -0.0482,-5.54535 z m -93.44372,4.11497 c 1.03909,-0.64064 2.56842,-1.43457 3.39851,-1.76429 0.83008,-0.32971 1.54577,-0.62591 1.59042,-0.65821 0.0446,-0.0323 -0.28429,-0.57782 -0.73098,-1.21227 -0.44669,-0.63445 -1.10199,-1.86746 -1.45623,-2.74003 -0.57175,-1.40833 -0.74581,-1.60763 -1.54996,-1.7747 -0.49824,-0.10352 -1.34307,-0.44616 -1.87739,-0.76142 -0.53433,-0.31526 -1.01387,-0.52867 -1.06564,-0.47425 -0.0891,0.0936 -0.32603,10.55004 -0.23907,10.55 0.0226,-10e-6 0.89124,-0.52418 1.93034,-1.16483 z m 70.72648,-1.92726 c 3.19289,-1.17956 5.47177,-4.10468 5.63013,-7.22668 0.0715,-1.40899 0.0493,-1.52853 -0.12295,-0.66145 l -0.21019,1.05833 -0.0376,-1.09948 c -0.0417,-1.22118 -1.00391,-3.26614 -1.5368,-3.26614 -0.37346,0 -0.52581,0.52926 -0.69985,2.43135 -0.0825,0.90159 -0.3831,1.60796 -1.09974,2.58422 -1.22662,1.67099 -1.6654,1.92056 -2.80304,1.59429 -0.73455,-0.21067 -0.95715,-0.16658 -1.36403,0.27015 -0.6487,0.6963 -1.49185,0.87839 -3.4211,0.73884 -1.25897,-0.0911 -1.70172,-0.24142 -2.04293,-0.69377 -0.39011,-0.51717 -0.52244,-0.54473 -1.26676,-0.26379 -0.6947,0.26222 -0.94209,0.24103 -1.507,-0.12911 -0.94291,-0.61783 -2.06737,-2.64159 -2.21996,-3.99544 -0.15076,-1.33749 0.48615,-3.74828 1.24519,-4.71325 0.57586,-0.73208 1.96889,-1.08673 2.7217,-0.69292 0.36187,0.18929 0.46303,0.13465 0.46303,-0.25015 0,-0.73807 1.07034,-1.59233 2.11666,-1.68935 0.90237,-0.0837 0.92439,-0.11292 0.86119,-1.14414 -0.0674,-1.09955 0.19036,-2.19011 0.92953,-3.93298 0.41228,-0.97211 0.40895,-1.04057 -0.0676,-1.38906 -0.65338,-0.47777 -1.45849,-0.46965 -1.45849,0.0147 0,0.20969 -0.1177,0.454 -0.26156,0.54291 -0.14998,0.0927 -0.19434,-0.0135 -0.10398,-0.24897 0.0986,-0.25697 0.0112,-0.41062 -0.23353,-0.41062 -0.27335,0 -0.44339,0.4182 -0.56481,1.38906 -0.17816,1.42464 -0.88782,3.10886 -1.30994,3.10886 -0.13025,0 -0.0844,0.18364 0.10187,0.40809 0.26331,0.31726 0.26806,0.47871 0.0214,0.72539 -0.24668,0.24668 -0.36715,0.23664 -0.54129,-0.0451 -0.12504,-0.20232 -0.3664,-0.27439 -0.54639,-0.16315 -0.24821,0.1534 -0.24987,0.24409 -0.007,0.39406 0.21268,0.13144 0.14225,0.24003 -0.21654,0.33386 -0.37761,0.0987 -0.49106,0.0331 -0.39141,-0.22663 0.11502,-0.29973 0.004,-0.29463 -0.61511,0.0283 -0.41549,0.2167 -0.89834,0.39473 -1.07301,0.39562 -0.17467,9e-4 -0.42527,0.19405 -0.55688,0.42922 -0.20257,0.36199 -0.5344,0.39795 -2.16277,0.23442 -1.25386,-0.12592 -1.79687,-0.27336 -1.55979,-0.42354 0.24545,-0.15547 0.0509,-0.23168 -0.59837,-0.23442 -0.81387,-0.003 -1.21586,-0.24857 -2.60982,-1.59155 -0.90627,-0.87312 -1.76601,-1.5875 -1.91052,-1.5875 -0.14452,0 -0.19656,-0.17253 -0.11564,-0.3834 0.0987,-0.25724 0.02,-0.33461 -0.23927,-0.23512 -0.28377,0.10889 -0.33811,0.0224 -0.2046,-0.3255 0.16783,-0.43735 0.12993,-0.43464 -0.49303,0.0353 -0.38427,0.28986 -0.61278,0.67073 -0.53071,0.88459 0.0968,0.25227 0.0344,0.30777 -0.19003,0.16905 -0.19496,-0.12049 -0.92,0.0899 -1.74057,0.50507 -1.32735,0.67158 -1.45059,0.68873 -2.19237,0.30514 -0.43228,-0.22353 -1.44212,-1.00613 -2.2441,-1.73909 -0.80198,-0.73297 -1.51553,-1.33266 -1.58567,-1.33266 -0.0701,0 -0.20807,0.50373 -0.30652,1.1194 -0.139,0.86921 -0.46205,1.39221 -1.44542,2.34006 -1.63764,1.57847 -3.85626,2.25208 -6.64695,2.01812 -1.90023,-0.1593 -2.70239,-0.53218 -4.29783,-1.99778 -0.61729,-0.56706 -0.7276,-0.59785 -0.7276,-0.20312 0,0.43376 -0.0298,0.43549 -0.43979,0.0255 -0.32502,-0.32501 -0.3572,-0.49082 -0.12333,-0.63536 0.18334,-0.11331 0.23828,-0.3993 0.1306,-0.6799 -0.16706,-0.43537 -0.21068,-0.41985 -0.43146,0.15344 -0.13509,0.35077 -0.27502,1.46136 -0.31095,2.46797 -0.0583,1.63345 -0.14452,1.8983 -0.80193,2.46378 l -0.73658,0.63358 0.74476,0.77737 c 0.85485,0.89227 0.69408,0.9299 -1.6032,0.37519 -2.00418,-0.48392 -3.33184,-0.49314 -3.96857,-0.0275 -0.47017,0.3438 -0.44726,0.39017 0.41246,0.83474 1.18983,0.61528 2.36549,1.4907 2.36549,1.76141 0,0.3162 -0.73399,0.26183 -0.84206,-0.0624 -0.1321,-0.3963 -2.57146,-0.5458 -3.59174,-0.22012 -1.03915,0.33169 -1.51866,1.07993 -1.14251,1.78278 0.37387,0.69857 1.47319,1.36038 2.25971,1.36038 0.67594,0 0.89616,0.35864 0.40618,0.66146 -0.45273,0.2798 -0.29136,0.83227 0.33073,1.13229 0.33798,0.163 0.43095,0.29485 0.21508,0.30501 -0.25343,0.0119 -0.12109,0.29404 0.39688,0.84595 0.74646,0.7954 0.75102,0.81492 0.11564,0.49517 -1.00393,-0.50522 -1.57001,-1.07409 -2.02687,-2.03685 -0.22807,-0.48062 -0.57056,-0.87386 -0.7611,-0.87386 -0.69321,0 -1.95589,-1.3514 -2.13004,-2.2797 -0.21193,-1.12967 0.29389,-1.74897 2.75051,-3.36755 1.48898,-0.98104 1.60311,-1.11588 1.05833,-1.25038 -0.33584,-0.0829 -0.6866,-0.0379 -0.77947,0.10004 -0.0929,0.13794 -0.32147,0.15649 -0.50799,0.0412 -0.24489,-0.15135 -0.28982,-0.0811 -0.16169,0.2528 0.11222,0.29245 0.0655,0.42507 -0.12715,0.36085 -0.38871,-0.12957 -3.58846,3.26239 -3.93342,4.1697 -0.38945,1.02432 -0.32062,1.76826 0.31803,3.43713 0.75849,1.98207 2.72434,4.12058 4.66307,5.07263 1.3711,0.67331 1.76533,0.73931 4.41592,0.73931 3.40322,0 4.4614,-0.27298 6.61458,-1.70636 l 1.5875,-1.0568 13.8557,-0.007 13.85569,-0.007 0.94753,0.83194 c 1.31084,1.15093 2.9647,1.82763 5.03675,2.06086 2.35492,0.26507 3.78934,0.0974 5.92931,-0.69321 z m -47.93877,-3.73549 c 1.4241,-0.47796 3.91667,-2.07176 3.93785,-2.51793 0.006,-0.11956 -0.25757,-0.18907 -0.585,-0.15449 -0.32742,0.0346 -1.12823,-0.0878 -1.77959,-0.27194 -0.73613,-0.20813 -1.33686,-0.24463 -1.5875,-0.0965 -0.57213,0.33825 -1.32926,0.11761 -1.32926,-0.38736 0,-0.36091 -0.0748,-0.34712 -0.48074,0.0886 -0.2644,0.28381 -0.61797,0.75274 -0.7857,1.04208 -0.29888,0.51557 -0.30513,0.5147 -0.31301,-0.0432 -0.008,-0.5359 2.49628,-3.79639 2.91539,-3.79639 0.10688,0 0.79025,-0.53578 1.51859,-1.19062 0.72834,-0.65485 1.50259,-1.19063 1.72054,-1.19063 0.21795,0 1.19247,0.24592 2.1656,0.54649 1.34168,0.4144 1.73251,0.64241 1.61703,0.94334 -0.11459,0.29862 -0.0221,0.35555 0.37355,0.22996 0.40452,-0.12839 0.4889,-0.0707 0.36575,0.25029 -0.12109,0.31555 -0.0457,0.37326 0.30965,0.23692 0.32176,-0.12347 0.40947,-0.0827 0.27843,0.12929 -0.33016,0.53421 -1.02908,0.34041 -1.93342,-0.53611 -0.96394,-0.93428 -1.17144,-0.90291 -0.34333,0.0519 0.37067,0.42738 0.52917,0.9899 0.52917,1.87803 0,1.22064 -0.0556,1.31321 -1.49285,2.48396 -2.25573,1.8375 -3.57607,2.51998 -5.16077,2.6676 l -1.41617,0.13191 z m 5.38981,-3.81669 c 0.62076,-0.88627 0.49632,-1.67186 -0.38188,-2.41082 -1.49641,-1.25914 -2.46199,-1.23584 -3.91168,0.0944 -0.72569,0.66589 -0.82175,0.88163 -0.58747,1.31938 0.28843,0.53894 1.38534,1.22997 2.77793,1.75005 0.90128,0.3366 1.48674,0.12698 2.1031,-0.753 z m -4.61664,-0.0558 c 0,-0.0642 -0.13746,-0.20163 -0.30547,-0.30546 -0.18925,-0.11697 -0.23364,-0.0726 -0.11667,0.11668 0.1885,0.305 0.42214,0.40948 0.42214,0.18878 z m -1.85209,-0.28019 c 0,-0.0728 -0.0595,-0.1323 -0.13229,-0.1323 -0.0728,0 -0.13229,0.0595 -0.13229,0.1323 0,0.0728 0.0595,0.13229 0.13229,0.13229 0.0728,0 0.13229,-0.0595 0.13229,-0.13229 z m 0.52917,-0.52917 c 0,-0.0728 -0.0595,-0.13229 -0.13229,-0.13229 -0.0728,0 -0.13229,0.0595 -0.13229,0.13229 0,0.0728 0.0595,0.13229 0.13229,0.13229 0.0728,0 0.13229,-0.0595 0.13229,-0.13229 z m 53.46672,2.88837 c 0.0127,-0.30823 0.0754,-0.37092 0.15985,-0.15985 0.0764,0.19099 0.067,0.41919 -0.0209,0.50711 -0.0879,0.0879 -0.15045,-0.0684 -0.13896,-0.34726 z m -52.72258,-1.08474 c 0.191,-0.0764 0.4192,-0.067 0.50712,0.0209 0.0879,0.0879 -0.0684,0.15046 -0.34727,0.13897 -0.30822,-0.0127 -0.37092,-0.0754 -0.15985,-0.15986 z m -5.24206,-1.93592 c -0.23846,-0.15411 -0.2711,-0.2581 -0.0818,-0.26053 0.17332,-0.002 0.3887,0.11501 0.47864,0.26053 0.20302,0.32849 0.11142,0.32849 -0.39688,0 z m 0.79375,0.13229 c 0,-0.0728 0.0595,-0.13229 0.1323,-0.13229 0.0728,0 0.13229,0.0595 0.13229,0.13229 0,0.0728 -0.0595,0.13229 -0.13229,0.13229 -0.0728,0 -0.1323,-0.0595 -0.1323,-0.13229 z m 0.79375,0 c 0,-0.0728 0.0595,-0.13229 0.1323,-0.13229 0.0728,0 0.13229,0.0595 0.13229,0.13229 0,0.0728 -0.0595,0.13229 -0.13229,0.13229 -0.0728,0 -0.1323,-0.0595 -0.1323,-0.13229 z m 0.98065,-0.38895 c 0.24547,-0.28669 0.4994,-0.46816 0.56428,-0.40327 0.15771,0.15771 -0.49005,0.92451 -0.78098,0.92451 -0.12628,0 -0.0288,-0.23456 0.2167,-0.52124 z m 18.93158,-0.46219 c -1.27686,-0.23922 -1.77768,-1.92048 -0.89632,-3.00892 1.07709,-1.33015 3.47368,-0.49242 3.47368,1.21423 0,1.26353 -1.14751,2.06257 -2.57736,1.79469 z m 0.72527,-1.92698 c 0,-0.29105 -0.11906,-0.52917 -0.26458,-0.52917 -0.14552,0 -0.26458,0.23812 -0.26458,0.52917 0,0.29104 0.11906,0.52916 0.26458,0.52916 0.14552,0 0.26458,-0.23812 0.26458,-0.52916 z m 9.525,1.93305 c -0.65203,-0.23303 -1.05833,-0.92436 -1.05833,-1.80076 0,-1.14455 0.49173,-1.70405 1.66495,-1.89444 0.81879,-0.13287 1.12067,-0.0509 1.65278,0.44904 1.65555,1.5553 -0.0667,4.02979 -2.2594,3.24616 z m 1.05834,-1.80076 c 0,-0.21828 -0.11907,-0.39688 -0.26459,-0.39688 -0.14552,0 -0.26458,0.1786 -0.26458,0.39688 0,0.21828 0.11906,0.39687 0.26458,0.39687 0.14552,0 0.26459,-0.17859 0.26459,-0.39687 z m 24.87083,1.85208 c 0,-0.0728 0.0595,-0.13229 0.13229,-0.13229 0.0728,0 0.13229,0.0595 0.13229,0.13229 0,0.0728 -0.0595,0.13229 -0.13229,0.13229 -0.0728,0 -0.13229,-0.0595 -0.13229,-0.13229 z m -0.52917,-0.66146 c 0,-0.19403 0.0794,-0.2734 0.17639,-0.17639 0.097,0.097 0.097,0.25577 0,0.35278 -0.097,0.097 -0.17639,0.0176 -0.17639,-0.17639 z m -0.52917,-0.26458 c 0,-0.19403 0.0794,-0.2734 0.17639,-0.17639 0.097,0.097 0.097,0.25576 0,0.35278 -0.097,0.097 -0.17639,0.0176 -0.17639,-0.17639 z m -41.01041,-3.83646 c 0,-0.0728 0.0595,-0.13229 0.13229,-0.13229 0.0728,0 0.13229,0.0595 0.13229,0.13229 0,0.0728 -0.0595,0.13229 -0.13229,0.13229 -0.0728,0 -0.13229,-0.0595 -0.13229,-0.13229 z m 1.05833,-0.52917 c 0,-0.0728 0.0595,-0.13229 0.1323,-0.13229 0.0728,0 0.13229,0.0595 0.13229,0.13229 0,0.0728 -0.0595,0.1323 -0.13229,0.1323 -0.0728,0 -0.1323,-0.0595 -0.1323,-0.1323 z m -1.5875,-0.26458 c 0,-0.0728 0.0595,-0.13229 0.1323,-0.13229 0.0728,0 0.13229,0.0595 0.13229,0.13229 0,0.0728 -0.0595,0.13229 -0.13229,0.13229 -0.0728,0 -0.1323,-0.0595 -0.1323,-0.13229 z m 28.31042,0 c 0,-0.0728 0.0595,-0.13229 0.13229,-0.13229 0.0728,0 0.13229,0.0595 0.13229,0.13229 0,0.0728 -0.0595,0.13229 -0.13229,0.13229 -0.0728,0 -0.13229,-0.0595 -0.13229,-0.13229 z m 0.79375,0 c 0,-0.0728 0.0595,-0.13229 0.13229,-0.13229 0.0728,0 0.13229,0.0595 0.13229,0.13229 0,0.0728 -0.0595,0.13229 -0.13229,0.13229 -0.0728,0 -0.13229,-0.0595 -0.13229,-0.13229 z m -28.575,-0.26458 c 0,-0.0728 0.0595,-0.13229 0.13229,-0.13229 0.0728,0 0.13229,0.0595 0.13229,0.13229 0,0.0728 -0.0595,0.13229 -0.13229,0.13229 -0.0728,0 -0.13229,-0.0595 -0.13229,-0.13229 z m -2.38125,-0.52917 c 0,-0.0728 0.0595,-0.13229 0.13229,-0.13229 0.0728,0 0.13229,0.0595 0.13229,0.13229 0,0.0728 -0.0595,0.13229 -0.13229,0.13229 -0.0728,0 -0.13229,-0.0595 -0.13229,-0.13229 z m 4.23333,-0.13229 c -0.23846,-0.15411 -0.2711,-0.2581 -0.0818,-0.26053 0.17332,-0.002 0.3887,0.11501 0.47864,0.26053 0.20301,0.32849 0.11142,0.32849 -0.39688,0 z m 25.4882,0.0882 c 0.097,-0.097 0.25576,-0.097 0.35277,0 0.097,0.097 0.0176,0.17639 -0.17638,0.17639 -0.19403,0 -0.27341,-0.0794 -0.17639,-0.17639 z m 0.97014,-0.0882 c 0,-0.19403 0.0794,-0.2734 0.17638,-0.17639 0.097,0.097 0.097,0.25576 0,0.35278 -0.097,0.097 -0.17638,0.0176 -0.17638,-0.17639 z m 0.79375,0.13229 c 0,-0.0728 0.0595,-0.13229 0.13229,-0.13229 0.0728,0 0.13229,0.0595 0.13229,0.13229 0,0.0728 -0.0595,0.13229 -0.13229,0.13229 -0.0728,0 -0.13229,-0.0595 -0.13229,-0.13229 z m -3.61598,-0.30868 c 0.097,-0.097 0.25577,-0.097 0.35278,0 0.097,0.097 0.0176,0.17639 -0.17639,0.17639 -0.19403,0 -0.2734,-0.0794 -0.17639,-0.17639 z m 0.92053,-0.26894 c 0.191,-0.0764 0.4192,-0.067 0.50712,0.0209 0.0879,0.0879 -0.0684,0.15046 -0.34726,0.13897 -0.30823,-0.0127 -0.37092,-0.0754 -0.15986,-0.15986 z m 3.31281,-0.26023 c 0.097,-0.097 0.25576,-0.097 0.35277,0 0.097,0.097 0.0176,0.17639 -0.17638,0.17639 -0.19403,0 -0.27341,-0.0794 -0.17639,-0.17639 z m -0.0882,-0.74965 c 0,-0.0728 0.0595,-0.13229 0.13229,-0.13229 0.0728,0 0.1323,0.0595 0.1323,0.13229 0,0.0728 -0.0595,0.13229 -0.1323,0.13229 -0.0728,0 -0.13229,-0.0595 -0.13229,-0.13229 z m -0.0957,-1.05833 c 0.0838,-0.21828 0.2732,-0.39688 0.42097,-0.39688 0.15486,0 0.12915,0.16812 -0.0607,0.39688 -0.18116,0.21828 -0.3706,0.39687 -0.42097,0.39687 -0.0504,0 -0.0231,-0.17859 0.0607,-0.39687 z m 1.15402,-1.19063 c 0,-0.19403 0.0794,-0.2734 0.17638,-0.17639 0.097,0.097 0.097,0.25577 0,0.35278 -0.097,0.097 -0.17638,0.0176 -0.17638,-0.17639 z m 0,-0.79375 c 0,-0.19403 0.0794,-0.2734 0.17638,-0.17639 0.097,0.097 0.097,0.25577 0,0.35278 -0.097,0.097 -0.17638,0.0176 -0.17638,-0.17639 z m -23.54792,-0.39687 c 0,-0.0728 0.0595,-0.13229 0.13229,-0.13229 0.0728,0 0.13229,0.0595 0.13229,0.13229 0,0.0728 -0.0595,0.13229 -0.13229,0.13229 -0.0728,0 -0.13229,-0.0595 -0.13229,-0.13229 z m 24.60625,-1.71979 c 0,-0.33151 0.28079,-0.33151 0.79375,0 0.32093,0.2074 0.28295,0.25725 -0.19844,0.26053 -0.32742,0.002 -0.59531,-0.11501 -0.59531,-0.26053 z m -54.50417,18.2983 c 0,-3.22427 0.39,-4.56842 1.9665,-6.77768 1.91817,-2.68809 2.52581,-4.20369 2.52884,-6.30757 l 0.003,-1.79841 0.99219,0.77735 c 1.53261,1.20074 4.10044,1.81014 6.26176,1.48603 1.00815,-0.15118 1.21174,-0.27721 1.20691,-0.74713 -0.0182,-1.7664 -2.38565,-4.89853 -5.03296,-6.65845 -2.48885,-1.65459 -3.82539,-1.83286 -5.94957,-0.7936 -2.9646,1.45045 -6.47271,5.52449 -7.79096,9.04782 -1.75826,4.69938 -1.09079,9.7796 1.73857,13.23245 0.91275,1.1139 0.9765,1.14297 2.50636,1.14297 h 1.56978 z m 73.37345,2.00847 c 3.59335,-3.34088 4.45244,-10.73786 1.84924,-15.92226 -1.5215,-3.03013 -5.06795,-6.50941 -7.6974,-7.55162 -2.15467,-0.85402 -4.29372,-0.11026 -7.11324,2.47332 -1.9235,1.76254 -3.25586,3.85125 -3.25957,5.10994 -0.003,1.0955 0.29979,1.25265 2.37558,1.23202 2.05219,-0.0204 4.19659,-0.84426 5.15159,-1.97922 0.35105,-0.41719 0.67572,-0.75865 0.7215,-0.7588 0.0458,-1.4e-4 0.043,1.1692 -0.006,2.59853 -0.10217,2.96816 0.1204,3.71956 1.75354,5.91992 1.43612,1.93493 1.64322,2.7337 1.64322,6.33796 v 3.13552 h 1.97074 c 1.67763,0 2.06598,-0.0886 2.61104,-0.59531 z m -21.9731,-3.54699 c -0.17913,-0.0725 -0.53632,-0.0769 -0.79375,-0.01 -0.25743,0.0671 -0.11087,0.12639 0.32569,0.13178 0.43657,0.005 0.64719,-0.0495 0.46806,-0.12197 z m 5.38048,-0.22237 c 0.29627,-0.0883 0.096,-2.34667 -0.23766,-2.68035 -0.0884,-0.0884 -0.67755,-0.21903 -1.30917,-0.29023 -1.04347,-0.11761 -1.17761,-0.0653 -1.46827,0.57265 -0.17594,0.38614 -0.31989,1.05026 -0.31989,1.47582 0,0.64695 0.14089,0.81334 0.85989,1.01547 0.7609,0.21391 1.54341,0.1844 2.4751,-0.0934 z m 3.27959,0.13133 c -0.51815,-0.33485 -0.86841,-0.33485 -0.66146,0 0.0899,0.14553 0.36485,0.26276 0.61093,0.26054 0.38557,-0.003 0.39255,-0.0395 0.0505,-0.26054 z m 0.79375,-0.13229 c 0,-0.0728 -0.0595,-0.13229 -0.13229,-0.13229 -0.0728,0 -0.1323,0.0595 -0.1323,0.13229 0,0.0728 0.0595,0.13229 0.1323,0.13229 0.0728,0 0.13229,-0.0595 0.13229,-0.13229 z m 0.59922,-2.85562 c 0.13541,-0.40643 0.17277,-1.03151 0.083,-1.38906 -0.15217,-0.60631 -0.27807,-0.65011 -1.86861,-0.65011 -1.41533,0 -1.75203,0.0871 -1.97933,0.51177 -0.35351,0.66053 -0.33781,0.8367 0.1296,1.45458 0.34972,0.46229 2.0473,0.93961 3.01416,0.8475 0.20623,-0.0197 0.48574,-0.36825 0.62115,-0.77468 z m -8.78008,-0.11061 c 0.61346,-1.61353 -0.3338,-2.37149 -2.68368,-2.14737 -0.772,0.0736 -0.92894,0.20474 -1.0537,0.88027 -0.29824,1.61489 -0.004,1.84668 2.46593,1.94473 0.85947,0.0341 1.03677,-0.0604 1.27145,-0.67763 z m -61.84084,-2.03583 c 0.27649,-3.59707 1.84834,-7.81942 3.99841,-10.74064 1.33422,-1.81277 3.74068,-4.03437 5.51413,-5.09056 2.14229,-1.27586 2.04045,-1.59759 -0.5483,-1.73214 -2.11609,-0.10999 -3.34805,0.27162 -4.89543,1.51641 -3.92616,3.15839 -6.34501,8.28665 -6.95726,14.75022 l -0.18028,1.90331 1.27514,0.80867 c 0.70133,0.44477 1.35333,0.80867 1.44889,0.80867 0.0956,0 0.25068,-1.00077 0.3447,-2.22394 z m 90.98993,0.78658 c 0.34471,-0.20655 0.46302,-0.62412 0.46302,-1.63434 0,-1.65863 -0.64673,-5.54873 -1.24472,-7.48705 -0.8974,-2.90881 -4.23933,-7.12219 -6.87362,-8.66598 -1.59541,-0.93497 -4.72556,-1.1969 -5.81023,-0.4862 l -0.71154,0.46622 1.22607,0.46541 c 3.05727,1.16052 6.13609,4.29947 8.08392,8.24183 1.49141,3.01856 2.06378,5.07547 2.32414,8.35223 l 0.17325,2.18038 0.95334,-0.57753 c 0.52434,-0.31765 1.1617,-0.70238 1.41637,-0.85497 z m -24.97945,-1.35322 c 0.77125,-1.69271 0.0154,-2.71444 -2.19224,-2.96327 l -1.16875,-0.13173 -0.18305,0.97575 c -0.24358,1.29839 0.11322,2.00131 1.21843,2.4004 1.46253,0.52811 1.98571,0.46486 2.32561,-0.28115 z m 6.30427,-0.0316 c -0.097,-0.097 -0.17639,-0.0176 -0.17639,0.17639 0,0.19402 0.0794,0.2734 0.17639,0.17638 0.097,-0.097 0.097,-0.25576 0,-0.35277 z m -11.55347,-0.35278 c 0,-0.14552 -0.38695,-0.2505 -0.85989,-0.23328 l -0.8599,0.0313 0.79375,0.20198 c 0.43656,0.11108 0.82352,0.21606 0.8599,0.23328 0.0364,0.0172 0.0661,-0.0878 0.0661,-0.23328 z m 9.26042,0.13229 c 0,-0.0728 -0.0595,-0.13229 -0.13229,-0.13229 -0.0728,0 -0.1323,0.0595 -0.1323,0.13229 0,0.0728 0.0595,0.13229 0.1323,0.13229 0.0728,0 0.13229,-0.0595 0.13229,-0.13229 z m 2.69434,-0.71878 c -0.18986,-0.18986 -0.31309,-0.20548 -0.31309,-0.0397 0,0.35316 0.3129,0.66606 0.48948,0.48948 0.0752,-0.0752 -0.004,-0.27759 -0.17639,-0.44979 z m -56.14017,-1.66247 c 0,-0.0728 -0.0595,-0.13229 -0.13229,-0.13229 -0.0728,0 -0.1323,0.0595 -0.1323,0.13229 0,0.0728 0.0595,0.13229 0.1323,0.13229 0.0728,0 0.13229,-0.0595 0.13229,-0.13229 z m 17.13838,-5.421 c 1.58814,-0.55172 2.70537,-1.53744 2.70537,-2.38694 0,-0.45052 -0.0685,-0.43384 -0.66399,0.16161 -0.98657,0.98656 -2.44868,1.51033 -4.2308,1.51557 -1.95772,0.006 -3.0705,-0.53421 -4.00217,-1.94207 -0.74973,-1.13292 -1.15721,-1.15851 -1.15721,-0.0727 0,0.91165 1.75278,2.57381 3.08691,2.92731 1.57555,0.41746 2.61935,0.36779 4.26189,-0.20281 z m 24.49524,-0.20758 c 1.2384,-0.69544 2.31489,-1.97256 1.96099,-2.32646 -0.0942,-0.0942 -0.56531,0.19976 -1.04698,0.65318 -2.14531,2.01951 -6.1959,1.66993 -7.70788,-0.66521 -0.70951,-1.09579 -0.97309,-1.12913 -0.97309,-0.12307 0,1.62307 2.5356,3.14239 5.29167,3.17074 0.8229,0.008 1.58739,-0.21056 2.47529,-0.70918 z m -33.82875,-1.38393 c -0.0743,-0.23413 -0.0332,-0.97121 0.0914,-1.63795 l 0.22647,-1.21225 -1.15063,0.39206 c -0.63285,0.21563 -1.20184,0.47491 -1.26442,0.57617 -0.0626,0.10126 0.21817,0.67838 0.62389,1.28249 0.57249,0.85241 0.809,1.02782 1.05617,0.78331 0.24813,-0.24547 0.25602,-0.13972 0.0357,0.47868 -0.26206,0.73562 -0.2535,0.75601 0.11689,0.27846 0.21981,-0.28341 0.33886,-0.70684 0.26455,-0.94097 z m 20.77013,-0.92499 c 0.7983,-0.65484 1.51888,-1.19062 1.6013,-1.19062 0.0824,0 0.7152,-0.65485 1.40619,-1.45521 l 1.25633,-1.45521 h -5.72598 -5.72599 l 1.47807,1.65364 c 1.28204,1.43435 3.72363,3.57924 4.12445,3.62328 0.0738,0.008 0.78733,-0.52104 1.58563,-1.17588 z m -13.13788,-0.59531 c 0.0674,-0.10914 -0.13395,-0.2166 -0.44741,-0.23879 -0.78468,-0.0556 -2.02513,-0.56122 -2.02513,-0.82554 0,-0.11963 0.76648,-0.16872 1.70328,-0.10906 1.4342,0.0913 1.83129,0.0173 2.51354,-0.4685 0.47585,-0.33883 0.81194,-0.81522 0.81431,-1.15425 0.003,-0.46973 0.0519,-0.50335 0.26054,-0.18042 0.52098,0.80616 0.24493,-0.10163 -0.29808,-0.98025 -0.67031,-1.08457 -1.39304,-1.401 -3.1999,-1.401 -1.02891,0 -1.55153,0.1561 -2.21385,0.66128 -1.16125,0.88572 -1.29943,1.47732 -0.67487,2.88925 0.45943,1.03861 0.68013,1.23172 1.80149,1.57624 1.54127,0.47353 1.61075,0.48262 1.76608,0.23104 z m 22.66288,0.0889 c 0,-0.0603 -0.41672,-0.53869 -0.92605,-1.06315 -1.01023,-1.04026 -1.29644,-1.91233 -0.33073,-1.00769 1.34772,1.26249 2.96357,1.4328 4.14689,0.4371 0.44773,-0.37673 0.81405,-0.60895 0.81405,-0.51602 0,0.37399 -0.80421,1.69209 -1.11891,1.83389 -0.18496,0.0833 -0.11079,0.12386 0.16483,0.09 0.67888,-0.0833 1.46408,-1.19356 1.64871,-2.33128 0.12269,-0.75606 0.0187,-1.09242 -0.54446,-1.76174 -0.56423,-0.67056 -0.96603,-0.86099 -2.12102,-1.0053 -1.68895,-0.21102 -3.17613,0.2003 -3.70804,1.02556 -0.577,0.8952 -0.12113,2.76445 0.89576,3.67305 0.78148,0.69825 1.07897,0.87072 1.07897,0.62553 z m 1.5875,-0.15501 c -0.21829,-0.14106 -0.635,-0.24643 -0.92605,-0.23416 -0.43593,0.0184 -0.41263,0.0597 0.1323,0.23416 0.93548,0.2996 1.25733,0.2996 0.79375,0 z m 6.08541,-0.39687 c 0,-0.0728 -0.0595,-0.13229 -0.13229,-0.13229 -0.0728,0 -0.13229,0.0595 -0.13229,0.13229 0,0.0728 0.0595,0.13229 0.13229,0.13229 0.0728,0 0.13229,-0.0595 0.13229,-0.13229 z m 0.79375,0 c 0,-0.0728 -0.0595,-0.13229 -0.13229,-0.13229 -0.0728,0 -0.13229,0.0595 -0.13229,0.13229 0,0.0728 0.0595,0.13229 0.13229,0.13229 0.0728,0 0.13229,-0.0595 0.13229,-0.13229 z m 5.94427,-2.44429 c 1.95683,-1.41916 1.77733,-0.75346 1.72879,-6.41128 -0.0261,-3.04304 -0.16588,-4.05779 -0.44982,-3.26553 -0.29594,0.82577 -5.22957,4.39025 -8.00334,5.78231 -1.04309,0.52349 -1.96222,1.123 -2.04251,1.33223 -0.27617,0.71967 0.58553,1.55549 1.92706,1.86919 0.71084,0.16621 2.0068,0.6561 2.87993,1.08864 0.87312,0.43253 1.73234,0.80255 1.90937,0.82226 0.17703,0.0197 1.09977,-0.52831 2.05052,-1.21782 z m -46.72572,0.063 c 1.08204,-0.55144 2.20323,-0.92604 2.77164,-0.92604 0.79507,0 1.02381,-0.13392 1.36904,-0.80152 0.22797,-0.44084 0.3454,-0.9133 0.26097,-1.04991 -0.0844,-0.13662 -1.36922,-0.91207 -2.85508,-1.72323 -2.34751,-1.28154 -3.43539,-2.02793 -7.08989,-4.86433 l -0.68414,-0.53099 0.12285,4.15426 c 0.0676,2.28484 0.23478,4.19667 0.37157,4.2485 0.13679,0.0518 0.98468,0.6041 1.8842,1.22727 0.89953,0.62316 1.72466,1.1463 1.83362,1.16253 0.10897,0.0162 1.01581,-0.38722 2.01522,-0.89654 z m 28.17995,-2.47915 c 1.39736,-0.35167 1.6942,-0.69203 1.13879,-1.30575 -0.24394,-0.26955 -0.44516,-0.77838 -0.44715,-1.13073 -0.002,-0.35234 -0.0783,-0.91952 -0.16955,-1.26039 -0.15303,-0.57157 -0.26076,-0.6061 -1.38545,-0.44403 -1.92501,0.27739 -2.38155,0.42889 -2.28229,0.75733 0.0509,0.16856 0.16348,0.81248 0.2501,1.43095 0.15529,1.10887 0.14641,1.12448 -0.6394,1.12448 -0.71283,0 -0.79688,-0.0856 -0.79688,-0.81115 0,-0.44613 0.12871,-1.05164 0.28602,-1.34558 0.4065,-0.75956 0.19921,-0.84326 -1.53069,-0.61807 -0.8434,0.10978 -1.38463,0.25317 -1.20273,0.31863 0.19486,0.0701 0.33073,0.58642 0.33073,1.25675 0,1.01135 -0.0754,1.15215 -0.67909,1.26754 -0.67014,0.12811 -0.67818,0.11019 -0.60921,-1.35821 l 0.0699,-1.48804 -2.36736,-0.16339 c -1.30204,-0.0899 -2.9329,-0.25487 -3.62412,-0.36669 -1.12488,-0.18197 -1.25799,-0.15094 -1.26839,0.29568 -0.006,0.27444 -0.18157,0.97523 -0.3893,1.55732 -0.35915,1.00637 -0.34767,1.08843 0.23382,1.67141 0.45418,0.45533 1.08193,0.67219 2.43983,0.84286 2.26075,0.28414 11.24807,0.11998 12.64243,-0.23092 z m -11.7805,-0.95667 c -0.0707,-0.0707 -0.0608,-0.63624 0.0221,-1.25678 0.12034,-0.90165 0.25685,-1.12824 0.67974,-1.12824 0.44358,0 0.54221,0.20327 0.60981,1.25678 0.0751,1.17097 0.0375,1.25677 -0.55121,1.25677 -0.34752,0 -0.6897,-0.0578 -0.76039,-0.12853 z m 18.09004,-0.72196 c 1.87023,-0.075 2.4938,-0.23011 4.2184,-1.04912 2.63964,-1.25356 5.44397,-3.17843 7.82825,-5.37327 l 1.91823,-1.76582 v -2.49211 c 0,-1.37066 -0.0616,-2.49211 -0.13697,-2.49211 -0.0753,0 -0.91087,0.82037 -1.85674,1.82305 -0.94588,1.00268 -2.74515,2.51238 -3.9984,3.3549 -1.96808,1.32309 -2.20392,1.55948 -1.73055,1.73459 0.70634,0.2613 1.4753,1.43418 1.27776,1.94896 -0.0842,0.2194 -0.39188,0.39892 -0.68375,0.39892 -0.57476,0 -1.33802,-1.19458 -1.33802,-2.09413 0,-0.53242 -10e-4,-0.53241 -1.25677,0.0123 -0.69122,0.29986 -1.55443,0.66119 -1.91823,0.80296 -0.5949,0.23182 -0.61486,0.28383 -0.19843,0.51688 0.52131,0.29175 1.25677,1.58156 1.25677,2.20407 0,0.61509 -0.96855,0.49537 -1.44021,-0.17803 -0.22653,-0.32342 -0.41188,-0.93147 -0.41188,-1.35122 0,-0.62247 -0.0854,-0.72834 -0.46302,-0.57417 -0.48247,0.19697 -3.0976,0.95117 -5.01419,1.44609 l -1.11159,0.28704 0.54569,0.92487 c 0.51594,0.87446 0.53166,1.23596 0.0992,2.28318 -0.16795,0.40673 -0.0838,0.41349 1.01834,0.0818 0.66078,-0.19886 2.18901,-0.40119 3.39607,-0.44962 z m -1.49435,-0.8882 c -0.22867,-0.22868 -0.4174,-0.5561 -0.41938,-0.72761 -0.002,-0.17151 -0.0754,-0.57972 -0.16315,-0.90714 -0.12953,-0.48334 -0.0517,-0.59531 0.41398,-0.59531 0.40436,0 0.68661,0.27064 0.9569,0.91754 0.21086,0.50465 0.38338,1.09996 0.38338,1.32292 0,0.52577 -0.64125,0.52007 -1.17173,-0.0104 z m 10.06082,-4.91971 c -0.49746,-0.71022 -0.54637,-1.43585 -0.11477,-1.7026 0.3666,-0.22657 1.88703,1.37821 1.73719,1.83357 -0.1894,0.57558 -1.18376,0.49531 -1.62242,-0.13097 z m 2.14037,-2.02144 c -1.29247,-1.34905 -0.20555,-2.14662 1.21916,-0.89461 0.55425,0.48706 0.50063,1.4647 -0.0865,1.57643 -0.22305,0.0425 -0.73277,-0.26437 -1.13271,-0.68182 z m 2.33466,-2.1724 c 0.0914,-0.14789 0.27703,-0.2004 0.41249,-0.11667 0.36699,0.22681 0.29856,0.38557 -0.16619,0.38557 -0.22686,0 -0.3377,-0.121 -0.2463,-0.2689 z m -35.9123,9.79966 -0.59913,-0.48515 0.83992,-1.04517 0.83992,-1.04517 -1.37095,-0.30844 c -0.75403,-0.16964 -1.63885,-0.37925 -1.96627,-0.46579 -0.54298,-0.14351 -0.59531,-0.066 -0.59531,0.88128 0,1.23673 -0.5313,2.09084 -1.15236,1.85252 -0.61514,-0.23605 -0.54006,-1.01346 0.20372,-2.10948 l 0.63885,-0.94141 -1.49875,-0.59459 c -0.82431,-0.32702 -2.0643,-0.8745 -2.75552,-1.21663 -1.07534,-0.53225 -1.25677,-0.56046 -1.25677,-0.1954 0,0.23466 -0.20427,0.77244 -0.45392,1.19508 -0.45819,0.77565 -1.18755,0.97743 -1.90077,0.52586 -0.5856,-0.37078 0.46222,-1.96999 1.40126,-2.13865 0.7308,-0.13126 0.72652,-0.13873 -0.53028,-0.92608 -0.69687,-0.43656 -1.6211,-1.08946 -2.05386,-1.45089 -0.60311,-0.50371 -0.81566,-0.57068 -0.91028,-0.28681 -0.0679,0.20368 -0.51604,0.79706 -0.99587,1.3186 -0.66502,0.72284 -0.94643,0.87515 -1.1837,0.64069 -0.54474,-0.53826 0.0668,-1.77004 1.03833,-2.09137 l 0.85347,-0.28229 -1.4025,-1.57717 c -0.77138,-0.86744 -1.60562,-1.8715 -1.85387,-2.23125 -0.70682,-1.02428 -0.99513,-0.2461 -0.99979,2.69848 l -0.004,2.55882 2.57969,1.95802 c 2.85014,2.16331 5.96564,4.11787 8.39776,5.26847 1.23782,0.5856 2.00073,0.75931 3.44235,0.78384 1.01864,0.0173 2.20927,0.11525 2.64583,0.21759 1.09255,0.25613 1.31483,0.069 0.60286,-0.50751 z m -7.95814,-2.47645 c -0.21549,-0.56155 0.62797,-2.06226 1.10721,-1.96996 0.59406,0.1144 0.67897,0.91166 0.17846,1.67554 -0.46552,0.71047 -1.07266,0.84951 -1.28567,0.29442 z m -5.87293,-3.084 c -0.21423,-0.34663 1.14589,-2.11822 1.62625,-2.11822 0.61323,0 0.69965,0.71253 0.19088,1.5738 -0.47541,0.80481 -1.47172,1.1033 -1.81713,0.54442 z m -6.74783,-6.85819 v -12.67746 l -1.31882,-0.96811 c -3.43061,-2.51829 -6.84189,-7.26983 -8.09026,-11.26883 -0.99847,-3.19848 -1.2274,-3.63862 -2.8018,-5.38665 l -1.41516,-1.57123 -0.0797,-6.00041 -0.0797,-6.00041 -1.65202,-0.1326 c -4.13257,-0.33173 -6.92538,-3.44461 -7.24259,-8.07262 -0.25739,-3.75528 1.17869,-6.78687 4.04252,-8.53379 1.69487,-1.03387 3.55546,-2.83249 3.55797,-3.43947 0.003,-0.67839 -4.18618,-4.41184 -7.28596,-6.49364 -4.85601,-3.26128 -10.36069,-4.7816 -13.51963,-3.73393 -1.13311,0.37579 -1.22485,0.37792 -0.75959,0.0177 0.29104,-0.22537 0.70776,-0.51849 0.92604,-0.65139 0.34469,-0.20986 0.34651,-0.27466 0.0138,-0.49287 -0.67534,-0.44293 0.90003,-0.63494 3.91825,-0.47756 5.47129,0.28527 10.79827,2.95694 16.32297,8.18653 1.23765,1.17154 2.29143,2.084 2.34173,2.02769 0.0503,-0.0563 0.94568,-1.09912 1.98973,-2.31735 3.0155,-3.51855 6.53581,-6.31298 11.79373,-9.36188 1.16416,-0.67507 2.69257,-1.48198 3.39645,-1.79315 1.50364,-0.66471 1.50962,-0.42842 -0.12368,-4.88626 -1.60326,-4.37582 -1.96551,-5.2047 -4.22054,-9.65729 -2.40531,-4.74932 -5.68252,-9.9734 -8.93699,-14.24615 -1.25734,-1.65075 -2.5242,-3.34583 -2.81524,-3.76685 -0.29104,-0.42101 -0.63205,-0.76704 -0.75778,-0.76895 -0.12574,-0.002 -1.3759,0.75213 -2.77813,1.67564 -9.22906,6.07822 -16.42759,13.6955 -20.4043,21.59127 -2.90614,5.77014 -7.86049,21.70181 -12.96294,41.68483 -2.84774,11.15278 -3.55669,16.75976 -2.4339,19.24924 0.79043,1.75254 1.17922,2.04125 9.70371,7.20575 11.02379,6.67868 19.4234,14.79182 27.39604,26.46167 0.99418,1.45521 2.56095,3.43928 3.48172,4.40903 l 1.67413,1.7632 2.50947,-0.0947 c 2.09685,-0.0791 2.81401,0.007 4.36156,0.5255 1.01865,0.34112 1.94138,0.63209 2.05052,0.64661 0.10914,0.0145 0.19844,-5.67845 0.19844,-12.65106 z m -21.85339,-5.0905 c -0.11697,-0.18925 -0.0726,-0.23364 0.11668,-0.11667 0.30499,0.1885 0.40948,0.42214 0.18878,0.42214 -0.0642,0 -0.20163,-0.13746 -0.30546,-0.30547 z m 85.02495,16.81354 c 2.01137,-0.6135 2.41861,-0.65831 3.68026,-0.40493 2.01894,0.40546 2.50087,0.1397 3.36814,-1.85733 1.19059,-2.74155 1.99663,-4.1851 3.81787,-6.83748 7.07929,-10.31 13.89482,-17.40644 24.38716,-25.39231 5.92581,-4.51022 8.21904,-6.42594 8.6241,-7.20445 1.5032,-2.88907 -1.12309,-19.6045 -5.74922,-36.59178 -4.94714,-18.16608 -7.74214,-25.41462 -11.97554,-31.0573 -3.42781,-4.56893 -8.7353,-9.60255 -13.30889,-12.62216 -1.19292,-0.7876 -2.23727,-1.43199 -2.32078,-1.43199 -0.0835,0 -0.64561,-0.32676 -1.2491,-0.72613 -0.88861,-0.58805 -1.12215,-0.65143 -1.2282,-0.33327 -0.12706,0.3812 -0.55034,0.81614 -2.48197,2.5504 -0.64009,0.57468 -1.02182,1.22498 -1.2425,2.11666 -0.17519,0.70792 -1.13258,2.65635 -2.12752,4.32984 -3.38814,5.69884 -6.11522,11.68525 -9.25005,20.30549 -1.2047,3.31271 -1.29223,3.90019 -0.61897,4.15434 0.51611,0.19483 5.94355,3.35111 6.15156,3.57739 0.0728,0.0791 0.81569,0.65219 1.65096,1.27343 2.13686,1.5893 4.71247,4.04653 6.32603,6.03528 0.7567,0.93265 1.45499,1.69573 1.55174,1.69573 0.0968,0 0.32196,-0.32742 0.50046,-0.7276 0.1785,-0.40019 0.77646,-1.50151 1.32879,-2.4474 0.55234,-0.94588 1.80918,-3.14854 2.79298,-4.89479 3.29722,-5.85255 3.99846,-6.64138 4.91848,-5.53283 0.38379,0.46244 0.48973,0.23173 -3.54811,7.72699 -1.12049,2.07992 -2.45667,4.41337 -2.9693,5.18544 -0.98534,1.48402 -1.33998,3.00334 -0.66714,2.85807 0.31569,-0.0682 0.31916,-0.0132 0.0218,0.34516 -0.49114,0.59178 0.0727,1.08271 3.04229,2.64866 2.58089,1.361 3.43779,2.17743 4.46809,4.25704 1.94662,3.92917 1.182,8.78361 -1.79645,11.40535 -1.19826,1.05475 -3.30603,1.93008 -4.64758,1.93008 -0.71162,0 -0.72759,0.0361 -0.89565,2.02429 -0.0941,1.11336 -0.17112,3.83574 -0.17112,6.04974 0,4.42645 0.064,4.21763 -1.98593,6.47805 -0.60639,0.66864 -1.0054,1.54778 -1.43553,3.16288 -0.68035,2.55463 -2.16511,5.66555 -3.61337,7.57085 -1.44907,1.90635 -3.78092,4.2898 -5.06986,5.18204 l -1.12448,0.7784 v 12.555 c 0,8.99159 0.083,12.55499 0.29247,12.55499 0.16086,0 1.3102,-0.31043 2.5541,-0.68984 z m 13.5576,-14.25911 c 0,-0.0728 0.0595,-0.1323 0.13229,-0.1323 0.0728,0 0.13229,0.0595 0.13229,0.1323 0,0.0728 -0.0595,0.13229 -0.13229,0.13229 -0.0728,0 -0.13229,-0.0595 -0.13229,-0.13229 z m 2.11667,-2.91042 c 0,-0.0728 0.0595,-0.13229 0.13229,-0.13229 0.0728,0 0.13229,0.0595 0.13229,0.13229 0,0.0728 -0.0595,0.13229 -0.13229,0.13229 -0.0728,0 -0.13229,-0.0595 -0.13229,-0.13229 z m -42.59792,14.13681 c 2.66814,-0.46707 6.25495,-1.54011 8.79718,-2.63177 2.8525,-1.2249 6.08005,-3.05168 6.86167,-3.88367 l 0.58534,-0.62307 -0.97834,-0.80644 c -0.53809,-0.44353 -0.97835,-1.04581 -0.97835,-1.33838 0,-0.29258 -0.0909,-0.49227 -0.20191,-0.44376 -0.56493,0.24675 -2.94498,2.24191 -2.95802,2.47965 -0.008,0.15113 0.2226,0.74095 0.51308,1.31071 0.31099,0.61 0.43073,1.13333 0.29121,1.27285 -0.44076,0.44076 -1.32254,-0.10309 -1.6542,-1.02027 -0.18139,-0.50162 -0.41055,-0.91204 -0.50925,-0.91204 -0.0987,0 -0.85328,0.30849 -1.67684,0.68552 -1.31147,0.60042 -1.47343,0.75644 -1.30455,1.25677 0.37922,1.1235 0.25965,1.89417 -0.29388,1.89417 -0.37394,0 -0.56807,-0.24326 -0.69693,-0.87332 -0.0982,-0.48033 -0.22548,-0.92019 -0.28275,-0.97746 -0.0573,-0.0573 -0.85442,0.0849 -1.77143,0.31585 -1.50064,0.37801 -1.6495,0.47571 -1.4893,0.97746 0.0979,0.30661 0.23991,0.88489 0.31558,1.28508 0.12012,0.63526 0.0542,0.7276 -0.51907,0.7276 -0.56825,0 -0.67615,-0.1454 -0.80153,-1.08018 -0.0797,-0.59411 -0.20053,-1.13583 -0.26853,-1.20384 -0.16564,-0.16564 -2.68205,0.1762 -3.07222,0.41733 -0.22813,0.141 -0.23416,0.38691 -0.0231,0.94208 0.35766,0.94072 0.17365,1.45378 -0.52141,1.45378 -0.44932,0 -0.53747,-0.17102 -0.53747,-1.04272 0,-0.5735 -0.12455,-1.1197 -0.27677,-1.21378 -0.15223,-0.0941 -0.84373,-0.0931 -1.53667,0.002 l -1.25988,0.17328 0.0882,1.17279 c 0.0828,1.10102 0.0473,1.17279 -0.58,1.17279 -0.36751,0 -0.68191,-0.14883 -0.69867,-0.33073 -0.072,-0.78136 0.0946,-1.40904 0.44656,-1.68281 0.58366,-0.45399 0.48732,-0.50226 -1.16591,-0.58419 l -1.54357,-0.0765 -0.0437,1.11644 c -0.0529,1.34944 -0.0654,1.36436 -0.95471,1.14115 -0.52627,-0.13209 -0.66076,-0.28849 -0.52297,-0.60819 0.10202,-0.23671 0.23947,-0.74259 0.30543,-1.12418 0.11171,-0.64615 0.0365,-0.70632 -1.09497,-0.87599 -1.45752,-0.21857 -1.74437,-0.0779 -1.74969,0.8578 -0.005,0.96036 -0.35297,1.44521 -0.9537,1.33063 -0.74982,-0.14301 -0.74445,-1.09324 0.0105,-1.84814 l 0.66438,-0.66438 -1.90906,-0.61421 c -1.04998,-0.33782 -1.98725,-0.656 -2.08282,-0.70707 -0.0956,-0.0511 -0.11195,0.14352 -0.0364,0.43243 0.25999,0.99419 -0.14022,1.85669 -0.86152,1.85669 -0.90244,0 -1.07864,-0.63161 -0.41246,-1.47853 0.67533,-0.85854 0.55687,-1.07322 -0.94819,-1.71837 -1.43439,-0.61485 -1.40413,-0.61353 -1.40413,-0.0613 0,0.60723 -1.03987,1.6707 -1.63362,1.6707 -0.73698,0 -0.60488,-1.12892 0.22976,-1.96356 l 0.7128,-0.7128 -0.77895,-0.62995 c -1.58521,-1.28196 -1.89868,-1.35309 -2.51426,-0.57051 -1.2331,1.56763 -2.4979,1.50468 -1.83677,-0.0914 0.23912,-0.57729 0.57184,-0.8689 1.11544,-0.97762 l 0.77468,-0.15494 -1.03042,-1.08762 c -0.56673,-0.59819 -1.24074,-1.42711 -1.49779,-1.84205 l -0.46738,-0.75442 -0.70393,0.65403 c -0.38717,0.35971 -1.03136,0.86172 -1.43154,1.11558 -0.40018,0.25386 -0.7276,0.60751 -0.7276,0.78589 0,0.17838 0.92273,1.24762 2.05052,2.37609 4.52876,4.5315 11.71118,7.75994 19.12006,8.59434 2.64318,0.29768 7.87874,0.16494 10.31483,-0.26152 z m -0.62997,-5.15173 c 1.29237,-0.2242 3.1832,-0.64953 4.20185,-0.94518 2.39911,-0.69632 6.93454,-2.92612 8.23064,-4.04651 l 1.01422,-0.87673 -0.91826,-0.46576 c -1.18268,-0.59987 -1.84431,-1.1859 -1.84431,-1.63358 0,-0.66511 1.2237,-0.35925 2.32121,0.58017 0.93201,0.79777 1.16776,0.88969 1.59595,0.62228 0.27632,-0.17256 0.63575,-0.52728 0.79874,-0.78827 0.24633,-0.39443 0.19712,-0.50473 -0.29155,-0.65357 -0.32334,-0.0985 -0.76649,-0.32394 -0.98477,-0.50101 -0.21828,-0.17707 -0.83454,-0.58397 -1.36946,-0.90421 l -0.97259,-0.58227 -1.02285,1.00165 c -0.56257,0.55091 -1.43319,1.22075 -1.9347,1.48854 l -0.91184,0.48688 0.7996,0.33621 c 0.97404,0.40955 2.56214,1.94961 2.3554,2.28413 -0.0824,0.1333 -0.4799,0.24236 -0.88336,0.24236 -0.58961,0 -0.90181,-0.25964 -1.5908,-1.32292 -0.47147,-0.7276 -0.92955,-1.32292 -1.01796,-1.32292 -0.43526,0 -1.9181,0.66328 -1.9181,0.85797 0,0.12237 0.22234,0.46115 0.4941,0.75285 0.91724,0.98454 1.50443,2.31732 1.16881,2.65294 -0.51684,0.51684 -1.10018,0.0497 -1.8518,-1.48278 -0.39656,-0.80856 -0.8437,-1.42305 -0.99367,-1.36553 -0.14996,0.0575 -0.95726,0.25777 -1.79401,0.44501 -1.47502,0.33005 -1.80975,0.57591 -1.25276,0.92015 0.35751,0.22095 1.05433,1.91405 1.05433,2.56177 0,0.37854 -0.15263,0.49283 -0.57517,0.43071 -0.45509,-0.0669 -0.6678,-0.41598 -1.01888,-1.67204 -0.28779,-1.02964 -0.5738,-1.57201 -0.8139,-1.5434 -0.2036,0.0243 -0.92575,0.11935 -1.60478,0.21133 l -1.23461,0.16722 0.24242,0.84526 c 0.13333,0.46489 0.24242,1.29253 0.24242,1.83919 0,0.80708 -0.0964,0.99394 -0.51296,0.99394 -0.40233,0 -0.5501,-0.24772 -0.6852,-1.14864 -0.0947,-0.63175 -0.13375,-1.37589 -0.0867,-1.65364 0.10703,-0.63177 0.0883,-0.63731 -2.15473,-0.63731 h -1.85208 v 1.71979 c 0,1.65806 -0.0238,1.7198 -0.66146,1.7198 -0.57225,0 -0.65989,-0.11597 -0.64984,-0.8599 0.006,-0.47294 0.16627,-1.29276 0.35529,-1.82182 l 0.34368,-0.96192 -1.18597,-0.16256 c -2.01755,-0.27653 -2.09539,-0.24872 -2.29598,0.82049 -0.20414,1.08818 -0.84015,2.45879 -1.13804,2.45249 -0.1054,-0.002 -0.3636,-0.11285 -0.57378,-0.24583 -0.32331,-0.20455 -0.27574,-0.48837 0.30904,-1.84367 l 0.69119,-1.6019 -1.1028,-0.28469 c -0.60653,-0.15658 -1.29564,-0.34024 -1.53136,-0.40813 -0.30531,-0.0879 -0.47294,0.0984 -0.58285,0.64796 -0.24219,1.21098 -1.27567,2.26034 -1.99978,2.03052 -0.39119,-0.12416 -0.54576,-0.3287 -0.44561,-0.58967 0.25653,-0.66851 1.30853,-1.87111 1.86677,-2.13401 0.46462,-0.2188 0.3722,-0.31631 -0.78497,-0.82818 l -1.31159,-0.58018 -0.85875,1.00269 c -0.4723,0.55147 -0.86321,1.09198 -0.86867,1.20112 -0.0184,0.36689 -1.59744,0.21432 -1.59744,-0.15434 0,-0.55518 1.88053,-2.29216 2.4915,-2.30131 0.44074,-0.007 0.35831,-0.12694 -0.41135,-0.60046 -0.52941,-0.3257 -1.50901,-1.09589 -2.1769,-1.71153 -0.66789,-0.61564 -1.33843,-1.11934 -1.49009,-1.11934 -0.15167,0 -0.74727,0.29766 -1.32357,0.66146 -0.5763,0.3638 -1.22878,0.66146 -1.44995,0.66146 -0.22118,0 -0.40214,0.18434 -0.40214,0.40964 0,0.66796 3.46986,3.88877 5.46894,5.0764 2.17854,1.29424 7.27295,3.08823 10.27377,3.61788 2.85773,0.50439 7.74907,0.51059 10.61482,0.0135 z m -23.95394,-6.45214 c -0.60588,-0.38351 1.04309,-1.87148 2.07398,-1.87148 1.07236,0 1.03839,0.48248 -0.0978,1.38906 -0.96412,0.76927 -1.36745,0.86773 -1.97617,0.48242 z m 42.79426,2.8052 1.39124,-1.40873 -1.49418,-1.11742 c -1.63684,-1.2241 -1.48889,-1.24661 -2.6519,0.4035 -0.37133,0.52685 -0.35076,0.62041 0.27358,1.24475 0.42816,0.42816 0.67508,0.9698 0.67508,1.48086 0,0.44317 0.0934,0.80577 0.20747,0.80577 0.11412,0 0.83354,-0.63393 1.59871,-1.40873 z m 2.95632,-6.23149 v -4.46523 l -3.86521,1.62096 c -2.12587,0.89152 -3.86897,1.73486 -3.87357,1.87409 -0.006,0.19426 7.37141,5.41777 7.67263,5.43223 0.0364,0.002 0.0661,-2.00618 0.0661,-4.46205 z M 95.8372,-167.132 c 1.44926,-0.21844 3.35426,-0.59154 4.23333,-0.82912 1.66339,-0.44955 6.12945,-2.39744 5.93731,-2.58959 -0.0605,-0.0605 -0.82343,0.0615 -1.69536,0.27111 -6.98837,1.68019 -15.78072,1.82176 -22.46999,0.36181 -2.79694,-0.61044 -2.60843,-0.59295 -2.37833,-0.22063 0.53909,0.87226 5.32079,2.50525 8.84322,3.02004 3.08569,0.45096 4.46397,0.44846 7.52982,-0.0136 z m -26.066,-3.76567 c 0.93744,-0.5685 1.74503,-1.1554 1.79464,-1.30423 0.0496,-0.14882 -0.65786,-0.60341 -1.57216,-1.0102 -0.91429,-0.40678 -2.41411,-1.09186 -3.33293,-1.52239 -0.91883,-0.43054 -1.69651,-0.74081 -1.72819,-0.6895 -0.0317,0.0513 -0.0131,1.90771 0.0412,4.12531 l 0.0987,4.03201 1.49715,-1.29869 c 0.82343,-0.71427 2.26414,-1.76382 3.20159,-2.33231 z m 29.61472,-1.00047 c 9.02059,-1.29565 17.89211,-4.62576 22.9283,-8.60661 3.7325,-2.95036 6.83292,-7.38645 7.40704,-10.59804 0.14716,-0.8232 0.094,-0.97552 -0.38446,-1.10063 -1.07167,-0.28025 -1.34193,-1.64123 -1.34193,-6.75782 0,-2.60141 -0.0788,-6.01749 -0.17508,-7.59129 -0.17315,-2.82995 -0.18043,-2.85485 -0.66145,-2.26081 -0.34745,0.42908 -0.48638,1.03997 -0.48638,2.13866 0,1.97156 -0.55072,4.49464 -0.82744,3.79083 -0.10654,-0.27097 -0.20207,-0.88732 -0.2123,-1.36966 -0.0261,-1.22882 -0.9878,-3.38423 -2.20272,-4.93662 -2.5792,-3.29565 -7.13695,-5.43118 -11.59149,-5.43118 -3.08534,0 -5.18366,0.76014 -7.19261,2.60561 -1.03354,0.94943 -0.96284,0.18285 0.13229,-1.43449 1.56905,-2.31724 5.27061,-3.81601 9.48366,-3.83995 2.90953,-0.0165 5.10162,0.5517 7.82113,2.02735 1.18656,0.64386 2.362,1.17065 2.61208,1.17065 0.36809,0 0.39379,0.0734 0.13493,0.38528 -0.40499,0.48799 -0.2156,0.7851 1.11483,1.74886 1.82049,1.31875 1.86143,1.25465 1.74343,-2.72946 -0.0999,-3.37329 -0.13573,-3.5607 -0.94807,-4.96093 -0.46433,-0.80037 -1.13397,-1.81176 -1.4881,-2.24754 -0.60061,-0.73911 -0.67673,-0.76381 -1.1331,-0.36778 -0.26908,0.23351 -2.27517,0.87255 -4.45798,1.4201 -2.18281,0.54755 -5.69516,1.63465 -7.80521,2.4158 -5.18267,1.91862 -7.00245,2.34869 -8.37473,1.97917 -0.58643,-0.15791 -1.27543,-0.51827 -1.53112,-0.8008 -0.71646,-0.79167 -0.14549,-2.10663 1.6123,-3.71314 5.26186,-4.80905 12.78178,-6.31205 17.75241,-3.54817 3.0017,1.66908 1.71663,0.25016 -2.40183,-2.652 -3.6446,-2.56825 -10.15745,-5.21969 -15.32178,-6.23764 -13.92795,-2.74538 -28.91251,-0.12013 -39.62992,6.94304 -2.78657,1.83645 -3.7242,2.75976 -3.16298,3.11467 0.55495,0.35095 0.62853,0.32979 1.42706,-0.41026 1.99825,-1.85192 5.48083,-2.57073 9.14934,-1.88843 2.98933,0.55597 6.54386,2.33841 8.81702,4.42135 2.65945,2.4369 2.94687,4.05139 0.84478,4.74514 -1.40126,0.46246 -3.56051,0.003 -7.98296,-1.70004 -2.05982,-0.79305 -5.39357,-1.86984 -7.40833,-2.39288 -4.4281,-1.14954 -5.02387,-1.37457 -5.54284,-2.09362 -0.39876,-0.55249 -0.41528,-0.54529 -1.4514,0.63178 -0.57642,0.65484 -1.33971,1.78593 -1.69619,2.51354 -0.58205,1.18801 -0.65152,1.6822 -0.68128,4.84619 -0.0182,1.93781 0.0468,3.60317 0.14438,3.70081 0.27068,0.27067 2.05673,-0.85828 2.6537,-1.67737 0.37754,-0.51802 0.43591,-0.75917 0.20369,-0.84158 -0.49774,-0.17666 4.94048,-2.91919 6.6944,-3.37603 1.97323,-0.51396 5.9103,-0.51816 7.86743,-0.008 1.62465,0.42316 3.66155,1.40036 4.59443,2.20417 0.76306,0.65748 1.6722,2.17368 1.67343,2.79084 8.3e-4,0.41246 -0.19608,0.33341 -1.18211,-0.47457 -1.96907,-1.61351 -3.35869,-2.09665 -6.35752,-2.21039 -2.09468,-0.0795 -2.98613,0.007 -4.27943,0.41556 -3.39511,1.07223 -6.70464,3.40766 -8.2569,5.82664 -0.99328,1.5479 -1.87663,4.01661 -1.90211,5.31585 l -0.0186,0.95077 -0.38169,-1.04218 c -0.24122,-0.65864 -0.35607,-1.79993 -0.31208,-3.10126 0.065,-1.92231 0.0228,-2.10601 -0.63528,-2.76555 l -0.70489,-0.70646 -0.0331,7.59711 c -0.0182,4.17842 -0.1036,7.94936 -0.1897,8.37988 -0.0861,0.43051 -0.44951,1.01319 -0.80757,1.29484 l -0.65102,0.51209 0.45598,1.39806 c 1.84947,5.67051 6.37307,10.35842 13.18125,13.66003 4.03967,1.95903 11.18039,4.02759 16.97064,4.91614 3.30256,0.5068 10.89935,0.51354 14.38584,0.0128 z m -10.23256,-3.96018 c -3.6534,-1.02777 -5.60848,-3.21419 -5.60848,-6.27211 0,-3.75869 3.29811,-7.08227 7.45014,-7.50766 3.42621,-0.35102 6.61662,1.08631 8.31927,3.74796 2.54422,3.97727 1.13796,7.95161 -3.43138,9.69767 -1.79941,0.6876 -4.92197,0.84265 -6.72955,0.33414 z m 4.49881,-1.75001 c 3.14929,-0.65873 5.23622,-2.61836 4.83556,-4.54061 -0.24386,-1.17 -0.87102,-2.10357 -1.26229,-1.87901 -0.17551,0.10073 -0.23084,0.0857 -0.12296,-0.0334 0.10787,-0.11908 0.0635,-0.3763 -0.0985,-0.57159 -0.21458,-0.25855 -0.9871,-0.34237 -2.84197,-0.30835 -2.52601,0.0463 -2.53199,0.048 -0.71595,0.19844 1.00724,0.0834 1.87063,0.27078 1.91863,0.4163 0.056,0.16964 -1.03744,0.23323 -3.04717,0.17721 -3.64134,-0.10149 -5.09284,0.20337 -6.18947,1.3 -0.65629,0.65629 -0.74451,0.90186 -0.58495,1.62831 0.27527,1.25332 0.84688,1.99324 2.11309,2.73529 1.80268,1.05644 3.76627,1.34377 5.99603,0.87738 z m 2.15173,-6.4977 c 0.097,-0.097 0.25577,-0.097 0.35278,0 0.097,0.097 0.0176,0.17638 -0.17639,0.17638 -0.19403,0 -0.2734,-0.0794 -0.17639,-0.17638 z m -9.2083,0.2285 c -0.17778,-0.17778 -0.93406,0.48213 -0.93406,0.81504 0,0.15025 0.23886,0.057 0.53079,-0.20717 0.29194,-0.26419 0.47341,-0.53774 0.40327,-0.60787 z m 0.65344,-0.18441 c 0,-0.0728 -0.0595,-0.13229 -0.13229,-0.13229 -0.0728,0 -0.13229,0.0595 -0.13229,0.13229 0,0.0728 0.0595,0.13229 0.13229,0.13229 0.0728,0 0.13229,-0.0595 0.13229,-0.13229 z m 1.5875,-0.79375 c 0,-0.0728 -0.0595,-0.13229 -0.13229,-0.13229 -0.0728,0 -0.13229,0.0595 -0.13229,0.13229 0,0.0728 0.0595,0.13229 0.13229,0.13229 0.0728,0 0.13229,-0.0595 0.13229,-0.13229 z m 1.78043,-0.0276 c -0.0879,-0.0879 -0.31612,-0.0973 -0.50712,-0.0209 -0.21107,0.0845 -0.14837,0.14716 0.15985,0.15986 0.27892,0.0115 0.43519,-0.0511 0.34727,-0.13897 z m 2.45291,-1.70101 3.83645,-0.0146 -0.93803,-0.49601 c -2.15616,-1.14013 -5.59949,-1.20807 -7.64398,-0.15082 -1.26469,0.654 -1.32199,1.04455 -0.12423,0.84672 0.56833,-0.0939 2.75973,-0.17725 4.86979,-0.18528 z m -3.54002,-6.02509 c -0.31274,-0.50602 0.38417,-2.34284 1.14889,-3.02811 1.36683,-1.22481 2.79838,-0.75621 3.56831,1.16805 0.80472,2.01119 -0.21875,2.89345 -1.17718,1.01476 -0.29696,-0.58208 -0.6644,-1.05833 -0.81653,-1.05833 -0.59449,0 -1.24259,0.54522 -1.56054,1.31281 -0.31683,0.7649 -0.87889,1.05045 -1.16295,0.59082 z m -21.52156,-1.90063 c -1.73362,-0.87459 -3.46296,-2.58806 -4.33702,-4.29723 -0.2776,-0.54282 -0.64356,-1.88001 -0.81326,-2.97155 -0.9097,-5.85143 2.61893,-11.23991 7.82798,-11.95389 0.64883,-0.0889 1.50192,-0.0808 1.89575,0.018 l 0.71607,0.17972 -0.88912,0.47683 c -1.5548,0.83385 -2.44131,2.20111 -2.56866,3.96162 -0.2071,2.86314 1.18354,4.54507 3.92167,4.74312 2.27662,0.16468 3.95473,-1.00322 4.67917,-3.25652 0.25329,-0.78786 0.25773,-0.78319 0.59725,0.62838 0.21452,0.89189 0.29424,2.33625 0.21381,3.8739 -0.15497,2.96288 -1.10224,5.27327 -2.89696,7.0657 -1.52268,1.52075 -2.89357,2.14373 -4.98094,2.26354 -1.51157,0.0868 -1.91906,-0.002 -3.36574,-0.73165 z m -0.7455,-6.44684 c 0.22601,-0.6463 0.17712,-0.82575 -0.33879,-1.2435 -0.89793,-0.7271 -1.88708,-0.22953 -1.89591,0.9537 -0.0102,1.36117 1.77892,1.59319 2.2347,0.2898 z m 5.68943,-1.21168 c 0.417,-0.77916 0.33036,-1.29148 -0.27301,-1.61439 -1.098,-0.58763 -2.38205,0.94345 -1.51684,1.80866 0.48607,0.48607 1.4837,0.37779 1.78985,-0.19427 z m 37.10093,7.63871 c -3.72662,-1.86221 -5.55279,-5.55691 -5.28155,-10.68562 0.10577,-1.99994 0.26159,-2.66122 0.94575,-4.01365 1.6505,-3.26268 5.09584,-5.18962 7.92387,-4.43174 0.80388,0.21544 0.74216,0.42093 -0.2678,0.89157 -1.69639,0.79052 -2.70614,3.46158 -2.08824,5.52395 0.38492,1.28475 1.83988,2.66203 3.11747,2.95104 2.48342,0.56177 4.92915,-0.97433 5.3125,-3.33663 0.18312,-1.12844 0.40673,-0.93811 0.95721,0.81477 0.65305,2.07949 0.7761,3.58808 0.44325,5.43456 -0.40255,2.23322 -1.37201,3.97276 -3.08815,5.54122 -2.48146,2.26791 -5.17317,2.71028 -7.97431,1.31053 z m -2.41381,-5.81333 c 0.79908,-0.42766 0.68688,-1.77433 -0.18076,-2.16966 -0.60907,-0.27751 -0.75098,-0.24338 -1.17736,0.28318 -0.51695,0.63841 -0.43234,1.28982 0.23765,1.82964 0.49547,0.39922 0.48201,0.39854 1.12047,0.0568 z m 7.06,-2.04121 c 0.34589,-1.00672 0.14852,-1.38906 -0.71704,-1.38906 -0.94158,0 -1.44128,0.59196 -1.22548,1.45177 0.12996,0.5178 0.33563,0.66489 0.9297,0.66489 0.59518,0 0.81777,-0.1599 1.01282,-0.7276 z m -61.03124,7.14375 c 0.0116,-0.25466 0.10837,-5.58271 0.21496,-11.84011 0.21824,-12.81135 0.16184,-12.45314 2.40438,-15.26966 0.58502,-0.73475 1.06368,-1.43943 1.06368,-1.56594 0,-0.12651 0.21431,-0.23002 0.47625,-0.23002 0.59255,0 1.11125,-0.49713 1.11125,-1.06505 0,-0.23653 0.75227,-1.0404 1.6717,-1.78638 6.21707,-5.04419 16.04351,-8.62283 26.37413,-9.60507 5.18887,-0.49336 13.55626,-0.004 18.37089,1.07546 1.72234,0.38599 7.42774,2.45503 9.54265,3.46061 7.71022,3.66599 14.08385,9.69631 14.91937,14.11577 0.13988,0.73991 0.32566,6.21976 0.41284,12.17745 0.0872,5.9577 0.217,10.89065 0.28847,10.96213 0.1943,0.1943 1.96388,-1.58026 2.39341,-2.40014 0.29666,-0.56626 0.42002,-3.25218 0.59555,-12.96716 0.22914,-12.6815 0.24399,-12.83353 1.37665,-14.09991 0.46108,-0.51551 0.41756,-0.60818 -1.68671,-3.5913 -1.188,-1.68418 -2.8723,-3.87205 -3.74289,-4.86194 -5.39792,-6.13761 -16.90021,-12.22859 -25.25213,-13.37212 -1.20573,-0.16509 -2.2422,-0.25019 -2.30327,-0.18912 -0.0611,0.0611 -0.18486,0.90158 -0.27509,1.86779 -0.0902,0.96621 -0.29955,1.86921 -0.46518,2.00667 -0.3834,0.3182 -8.93507,0.89134 -10.18941,0.68291 -0.51834,-0.0861 -2.42275,-0.25832 -4.23201,-0.38263 -3.74653,-0.25742 -3.82087,-0.30207 -4.07494,-2.4473 -0.0892,-0.7529 -0.28575,-1.44532 -0.43684,-1.5387 -0.34427,-0.21277 -5.44194,0.82689 -8.6028,1.75453 -7.07855,2.0774 -14.802,6.54904 -19.57918,11.33574 -1.84824,1.85192 -5.95313,7.36019 -5.95313,7.98839 0,0.1236 0.26325,0.34225 0.58501,0.4859 0.32175,0.14365 0.82263,0.67153 1.11306,1.17308 0.49521,0.85519 0.54196,1.62851 0.75175,12.43541 0.12304,6.33794 0.28145,12.01054 0.35204,12.60579 0.0941,0.79386 0.42475,1.41081 1.24065,2.31511 1.20496,1.33548 1.50224,1.48458 1.53489,0.76981 z M 48.08974,-213.1 c -5.3e-4,-1.05502 -0.0792,-3.62895 -0.17487,-5.71983 l -0.1739,-3.8016 -0.92104,-0.38484 c -1.19652,-0.49994 -2.06857,-0.26204 -3.11791,0.85058 -1.09781,1.16402 -1.69672,2.97011 -1.69672,5.11669 0,3.39304 2.08277,5.85143 4.96093,5.8556 l 1.12448,0.002 z m 90.4051,1.63602 c 3.61002,-1.3678 4.38772,-8.06091 1.2561,-10.8105 -1.19117,-1.04587 -2.05308,-1.2556 -2.89445,-0.70431 -0.53196,0.34855 -0.66975,0.67406 -0.71235,1.68281 -0.0876,2.07409 -0.005,2.81905 0.32665,2.92945 0.20213,0.0674 0.21847,0.16486 0.0456,0.27173 -0.14832,0.0917 -0.35323,1.68459 -0.45538,3.53984 l -0.18572,3.37319 h 0.93738 c 0.51556,0 1.27255,-0.12699 1.68221,-0.28221 z m -42.24996,-32.6809 c 1.5484,-0.10115 2.86416,-0.31201 2.97251,-0.47637 0.21171,-0.32117 0.27728,-2.38086 0.082,-2.57613 -0.0663,-0.0663 -1.52477,0.0411 -3.24114,0.23859 -2.34818,0.27017 -3.44815,0.28797 -4.44359,0.0719 -1.4093,-0.30592 -5.39813,-0.80736 -6.42241,-0.80736 -0.58206,0 -0.61115,0.0825 -0.53611,1.52136 l 0.0794,1.52135 3.57188,0.43304 c 1.96453,0.23817 3.92906,0.39301 4.36562,0.34408 0.43656,-0.0489 2.04391,-0.17063 3.57188,-0.27044 z m -24.59696,-1.8395 c 1.08629,-0.36925 2.95735,-0.92438 4.15789,-1.23363 1.23996,-0.3194 2.18282,-0.70226 2.18282,-0.88635 0,-0.50551 -2.52094,-6.34196 -3.10002,-7.17714 -0.66955,-0.96566 -0.90065,-1.62223 -0.62988,-1.78957 0.11865,-0.0733 0.71306,-0.0474 1.32091,0.0577 l 1.10517,0.19101 1.56911,3.6389 c 1.94424,4.50886 2.04448,4.69547 2.52214,4.69547 0.27329,0 0.38757,-0.30051 0.38757,-1.01919 0,-1.05927 -0.97789,-5.18818 -1.82652,-7.71206 l -0.4893,-1.4552 -1.09801,0.0717 c -0.60391,0.0395 -1.33179,-0.0534 -1.61752,-0.20631 -0.39354,-0.21061 -0.68055,-0.17251 -1.18367,0.15714 -0.65292,0.42781 -0.92286,0.20969 -0.39444,-0.31873 0.18322,-0.18322 0.13625,-0.64561 -0.14647,-1.44198 -0.86419,-2.43423 -2.16799,-7.91148 -2.04117,-8.57492 0.14755,-0.77185 1.2813,-1.72993 2.77783,-2.34742 1.03692,-0.42784 1.16108,-0.6693 0.73646,-1.43217 -0.14065,-0.25268 -0.62688,-1.41193 -1.08052,-2.57609 -1.27225,-3.26493 -3.71584,-9.17713 -4.12819,-9.98802 -0.20349,-0.40019 -0.52586,-0.72761 -0.71637,-0.72761 -0.52599,0 -6.19153,1.8154 -7.84211,2.51283 -0.80037,0.33818 -2.28865,0.95446 -3.30729,1.36952 -2.14536,0.87414 -7.80522,3.79597 -7.80518,4.02931 1e-5,0.087 0.80564,1.11063 1.79029,2.2748 6.42336,7.59447 13.14083,19.59541 16.06878,28.70729 0.45694,1.42203 0.63174,1.85208 0.75278,1.85208 0.0329,0 0.94861,-0.30211 2.03491,-0.67136 z m -0.27388,-9.62849 c 0,-0.24887 0.73133,-1.07723 0.95104,-1.07723 0.0657,0 -0.0755,0.29766 -0.31391,0.66146 -0.45928,0.70096 -0.63713,0.81701 -0.63713,0.41577 z m 2.11667,-2.26785 c 0,-0.0728 0.0595,-0.1323 0.13229,-0.1323 0.0728,0 0.13229,0.0595 0.13229,0.1323 0,0.0728 -0.0595,0.13229 -0.13229,0.13229 -0.0728,0 -0.13229,-0.0595 -0.13229,-0.13229 z m 42.29439,10.12031 c 2.84713,-7.72161 4.56305,-11.68315 7.64972,-17.66094 1.64662,-3.18892 4.71884,-8.22412 5.32736,-8.73125 0.74358,-0.61969 3.69775,-4.22074 3.53849,-4.31332 -4.11504,-2.39218 -9.76297,-4.93461 -14.14728,-6.36845 -4.55887,-1.49091 -4.22552,-1.51835 -5.09006,0.41896 -1.10527,2.47672 -2.6187,6.06282 -3.94037,9.33677 l -1.17491,2.91042 1.35831,0.61532 c 1.95901,0.88745 2.81352,1.78306 2.81352,2.94886 0,0.5234 -0.53337,2.61448 -1.18526,4.64685 -0.65189,2.03237 -1.18767,3.82261 -1.19062,3.97832 -0.003,0.15571 0.42109,0.78133 0.94231,1.39027 1.12516,1.31449 1.11016,1.93804 -0.0216,0.9 -1.42473,-1.30669 -2.05017,-1.60211 -2.7795,-1.31282 -0.36305,0.14401 -1.14333,0.23912 -1.73396,0.21137 l -1.07388,-0.0505 -0.82808,2.99344 c -0.81764,2.95565 -1.38979,5.67849 -1.38979,6.6139 0,0.71199 0.96567,0.61433 1.1345,-0.11474 0.18276,-0.7892 2.41767,-6.50025 2.87322,-7.34219 0.31607,-0.58414 0.5048,-0.65203 1.61467,-0.58081 0.69123,0.0444 1.25678,0.13714 1.25678,0.20619 0,0.0691 -0.64912,1.46151 -1.44249,3.09436 -0.79336,1.63284 -1.67731,3.60026 -1.96433,4.37203 l -0.52186,1.40323 0.70757,0.2693 c 0.38916,0.14812 1.42194,0.43826 2.29506,0.64476 0.87313,0.20649 2.42094,0.66726 3.43959,1.02392 1.01864,0.35666 2.04918,0.65546 2.29008,0.664 0.31198,0.0111 0.66955,-0.61248 1.24285,-2.16729 z m -17.75429,-1.42492 1.38907,-0.17014 v -1.95951 -1.95951 l -0.8599,0.151 c -5.0681,0.89001 -5.95949,0.9257 -9.79465,0.39224 -2.05316,-0.2856 -3.82957,-0.51927 -3.94757,-0.51927 -0.118,0 -0.21455,0.82397 -0.21455,1.83103 v 1.83102 l 1.78594,0.17378 c 0.98226,0.0956 2.50031,0.2771 3.37343,0.4034 1.59181,0.23024 5.66806,0.14444 8.26823,-0.17404 z m -14.96779,-7.42799 c -0.0108,-1.13364 -0.10115,-3.06358 -0.20079,-4.28878 -0.17399,-2.13945 -0.22166,-2.26732 -1.20446,-3.23066 -0.59649,-0.58468 -1.02372,-1.25572 -1.0243,-1.60884 -9.2e-4,-0.56423 -0.0347,-0.55133 -0.49295,0.18796 -1.00361,1.61926 -2.41648,2.77617 -2.41648,1.9787 0,-0.14864 0.31153,-0.741 0.69228,-1.31636 0.91537,-1.38321 0.70705,-1.97121 -0.63095,-1.78093 -0.54305,0.0772 -1.19708,0.22493 -1.45339,0.32823 -0.88877,0.3582 -0.21225,-0.55882 0.75121,-1.01827 1.07197,-0.51118 2.03634,-0.56171 2.81075,-0.14726 0.49638,0.26566 0.5326,0.23328 0.38716,-0.34617 -0.0882,-0.35158 -0.33911,-1.06687 -0.5575,-1.58954 -0.39409,-0.94318 -0.40526,-0.94847 -1.48952,-0.70485 -0.60086,0.135 -1.64603,0.51006 -2.3226,0.83345 l -1.23014,0.588 0.077,1.41996 c 0.0798,1.46976 1.47665,6.25137 1.9033,6.51505 0.13313,0.0823 0.37062,-0.0906 0.52776,-0.38424 0.32666,-0.61038 1.59117,-1.33306 2.33253,-1.33306 0.7963,0 1.38184,0.8753 1.79673,2.68586 0.57556,2.51172 1.49491,5.54192 1.63799,5.39884 0.0693,-0.0693 0.11711,-1.05346 0.10632,-2.18709 z m 12.10971,1.87687 c 4.88845,-0.63037 4.51173,-0.29474 4.51173,-4.01967 0,-1.7256 -0.0742,-3.21168 -0.16495,-3.3024 -0.0907,-0.0907 -0.5372,0.11351 -0.99219,0.45384 -1.2693,0.94945 -2.44243,1.475 -3.29248,1.475 -0.61068,0 -0.92191,-0.22694 -1.49139,-1.08748 l -0.71966,-1.08749 -0.84692,1.6828 c -0.81116,1.61173 -0.8849,1.67967 -1.74616,1.60894 -0.49458,-0.0406 -2.01044,-0.66931 -3.36859,-1.39709 -1.82294,-0.97684 -2.5051,-1.2301 -2.60588,-0.96747 -0.0751,0.19566 -0.10249,1.65649 -0.0609,3.24629 l 0.0756,2.89053 3.43958,0.42983 c 1.89177,0.2364 3.55358,0.44606 3.6929,0.4659 0.13933,0.0198 1.74552,-0.15635 3.56933,-0.39153 z m 7.41325,-4.30276 c 0.78658,-3.8292 1.88144,-4.56095 3.90754,-2.61161 0.47076,0.45293 0.92554,0.7539 1.01063,0.66881 0.33455,-0.33455 1.65507,-3.88095 2.12558,-5.70846 0.43562,-1.69199 0.44854,-1.96159 0.10453,-2.18159 -0.90288,-0.57741 -3.29699,-1.32427 -4.43014,-1.38202 l -1.21782,-0.0621 -0.35915,1.19063 c -0.19754,0.65484 -0.44381,1.84012 -0.54728,2.63395 -0.16306,1.25109 -0.27622,1.46397 -0.84958,1.59834 -0.5878,0.13775 -0.68035,0.33057 -0.83118,1.73167 -0.0933,0.86716 -0.17087,3.24354 -0.17228,5.28083 -0.002,3.58154 0.01,3.66475 0.37344,2.51354 0.20679,-0.65485 0.60536,-2.30726 0.88571,-3.67203 z m 2.51407,-5.02118 c -1.00454,-0.6126 -1.93538,-2.53304 -1.53633,-3.16965 0.38302,-0.61101 2.47667,-0.7199 3.51527,-0.18282 1.15415,0.59684 1.0019,0.76532 -0.52788,0.58414 -1.67779,-0.19871 -1.92034,0.21912 -0.94457,1.62716 1.10283,1.59139 0.9173,2.00943 -0.50649,1.14117 z m -14.96692,2.01248 c 0.12384,-0.32742 0.31066,-1.22039 0.41516,-1.98438 0.19337,-1.41374 0.32969,-1.53872 1.5586,-1.42893 0.40921,0.0366 0.46218,-0.0791 0.31411,-0.68568 -0.62047,-2.54202 -2.49129,-5.08937 -4.56766,-6.21948 -1.46807,-0.79902 -3.98029,-1.52163 -5.29009,-1.52163 -1.06592,0 -1.06152,-0.0674 -0.3051,4.67683 0.38585,2.42 0.72533,3.74928 1.06915,4.18638 0.58478,0.74342 5.41683,3.56598 6.1111,3.56969 0.25827,10e-4 0.5709,-0.26538 0.69473,-0.5928 z m 7.74946,-1.53304 c 2.56094,-1.92361 2.83713,-2.48783 3.15306,-6.44137 0.14508,-1.81546 0.22783,-3.9894 0.1839,-4.83098 -0.0737,-1.41126 -0.15063,-1.5777 -0.99044,-2.14228 -0.5008,-0.33668 -1.75096,-0.87577 -2.77812,-1.19799 -2.36768,-0.74272 -6.36485,-0.78026 -8.73291,-0.082 -1.77637,0.52378 -4.64404,1.90162 -4.64404,2.23133 0,0.11957 0.74372,0.42417 1.65271,0.67689 3.36034,0.93426 6.18969,2.95766 7.66936,5.48472 0.67456,1.15205 1.85826,4.76669 2.17577,6.6441 0.0923,0.54571 0.25171,0.99105 0.35426,0.98965 0.10254,-0.001 0.98295,-0.60083 1.95645,-1.33206 z m -18.09694,-10.40732 c 0.20854,-0.75536 0.84022,-1.64856 2.05597,-2.90715 l 1.75495,-1.81677 -0.86317,-3.3426 c -0.70332,-2.72358 -1.70258,-5.76436 -3.81817,-11.61887 -0.3151,-0.87198 -4.20731,2.14514 -6.10858,4.73519 l -0.96716,1.31753 0.59035,1.50865 c 2.00857,5.13293 3.1934,8.43054 3.82179,10.63678 0.39376,1.38244 0.75781,2.64797 0.80901,2.81227 0.0673,0.21599 0.4159,0.22486 1.25853,0.032 1.06637,-0.24402 1.19104,-0.35939 1.46648,-1.35707 z m 28.32621,-0.95966 c 0.61714,-2.54317 1.93506,-6.64638 3.27827,-10.20658 0.67908,-1.79994 0.84882,-2.55915 0.67636,-3.02535 -0.41674,-1.12654 -4.19999,-4.59059 -5.68499,-5.20533 l -1.37275,-0.56827 -0.17311,0.83845 c -0.0952,0.46115 -0.56887,2.26721 -1.05257,4.01345 -0.48371,1.74625 -1.18481,4.77963 -1.55801,6.74083 l -0.67854,3.56583 0.96524,0.98849 c 0.86473,0.88558 0.9813,1.17421 1.11949,2.77216 l 0.15425,1.78366 1.71979,0.42302 c 0.94589,0.23266 1.79644,0.35713 1.89011,0.2766 0.0937,-0.0805 0.41608,-1.15916 0.71646,-2.39696 z m -19.93678,-5.3164 c 2.62253,-0.82212 7.21365,-0.83251 9.6573,-0.0219 2.15155,0.71375 2.11666,0.71548 2.11666,-0.10508 0,-1.21465 2.57913,-11.88114 3.30177,-13.65507 0.14384,-0.3531 -0.0308,-0.50257 -0.83226,-0.7123 -4.30473,-1.12648 -10.57234,-1.58662 -15.03722,-1.10398 -2.76925,0.29936 -6.45726,0.95931 -6.69621,1.19825 -0.0613,0.0613 0.24795,0.98082 0.68722,2.04338 0.81049,1.96056 3.49423,10.31145 3.49693,10.88131 8.1e-4,0.17107 0.12867,0.76911 0.28413,1.32898 0.21506,0.7745 0.3887,0.98314 0.72613,0.87245 0.24391,-0.08 1.27691,-0.40675 2.29555,-0.72608 z"
       id="path129" /></g></svg>
