<?xml version="1.0" encoding="UTF-8" standalone="no"?>
<!-- Created with Inkscape (http://www.inkscape.org/) -->

<svg
   width="203.19164mm"
   height="218.39767mm"
   viewBox="0 0 203.19166 218.39765"
   version="1.1"
   id="svg1"
   xml:space="preserve"
   xmlns="http://www.w3.org/2000/svg"
   xmlns:svg="http://www.w3.org/2000/svg"><defs
     id="defs1"><clipPath
       clipPathUnits="userSpaceOnUse"
       id="clipPath6"><path
         id="path7"
         style="fill:#ff0000;fill-opacity:1;fill-rule:nonzero;stroke:none;stroke-width:0.264583"
         d="M -175.07778,-16.057127 V 287.55793 H 124.54631 V -16.057127 Z m 132.7459,202.572647 c 0.210643,0.005 0.427212,0.0169 0.650089,0.0367 2.23823,0.19855 4.475655,0.4031 6.717938,0.55346 1.973313,0.11308 0.986628,0.0436 2.958475,0.20825 3.181295,0.26563 4.740125,1.85116 4.950601,3.46956 4.949923,1.63749 3.796379,7.35609 -2.592089,6.81354 -3.228716,-0.27422 -1.569593,-0.1301 -4.979024,-0.43357 -4.228209,-0.39317 -8.460616,-0.76265 -12.666927,-1.35341 -6.647387,-0.93358 -5.930551,-7.21034 0.03204,-7.20421 0.04685,5e-5 0.0972,0.004 0.144695,0.005 0.687229,-1.21692 2.304132,-2.15435 4.784204,-2.09548 z" /></clipPath><clipPath
       clipPathUnits="userSpaceOnUse"
       id="clipPath76"><path
         id="path77"
         style="fill:#ff0000;fill-opacity:1;fill-rule:nonzero;stroke:none;stroke-width:0.264583"
         d="M -133.83107,-122.52355 V 173.82063 H 122.97289 V -122.52355 Z M 13.574404,98.948202 c 2.788179,0.0507 4.135003,2.063798 3.398242,4.077268 0.199805,0.45372 0.374906,0.96736 0.517797,1.54461 1.07913,4.35948 0.671079,8.891 0.311608,13.31495 -0.351859,3.06036 -0.147137,1.57974 -0.604097,4.44366 -0.359666,2.25418 -1.333846,3.66838 -2.455664,4.32532 0.105138,0.36595 0.224724,0.72888 0.324528,1.09554 0.6273,2.23652 0.575201,4.47401 0.39429,6.75514 -0.137303,1.73129 -0.688065,2.99533 -1.427303,3.82199 -0.112477,0.41601 -0.170275,0.80219 -0.311092,1.25212 -0.184975,0.59102 -0.413327,1.1061 -0.670242,1.55856 0.741137,-0.23134 1.446982,-0.38145 2.064991,-0.37517 4.085002,0.0415 5.222724,4.75435 -0.02223,7.27138 -4.46677,2.14368 -9.303523,3.34693 -14.11903492,4.40955 -4.40876268,0.85156 -8.89238128,1.33053 -13.38264308,1.19269 -5.804014,-0.17807 -6.736297,-5.00293 -3.065447,-6.67298 -2.072987,-0.65744 -4.042852,-1.62261 -4.128947,-3.14709 -0.02802,-0.49633 0.0026,-0.90355 0.0341,-1.30897 -1.976731,-0.003 -3.95339,2.4e-4 -5.930386,0.003 -0.814031,0 -1.53062,-0.0962 -2.159559,-0.26149 -0.376306,0.19492 -0.742394,0.40783 -1.120862,0.59893 -6.391272,3.22657 -9.625245,-3.24074 -3.234428,-6.46886 1.833438,-0.92611 3.62694,-1.92211 5.414142,-2.92954 -0.877003,-3.87058 -1.368747,-7.83436 -1.323951,-11.80858 0.01651,-1.46304 0.376836,-2.54918 0.864547,-3.41426 -1.247357,-1.79999 -0.223805,-4.63069 3.842661,-5.68855 3.11826,-0.81116 6.282901,-1.39515 9.473837,-1.82211 -1.259816,-0.12657 -2.516182,-0.30233 -3.764627,-0.50177 -1.477002,-0.21985 -2.935575,-0.54305 -4.407482,-0.7891 -1.14214,-0.22954 -0.588502,-0.12004 -1.660882,-0.3297 -3.350244,-0.65501 -4.783278,-2.61088 -4.608504,-4.32997 -0.200179,-1.7721 1.333365,-3.52972 4.663799,-3.59461 v -5.3e-4 c 0.20954,-0.004 0.426035,-0.002 0.649571,0.008 1.77111,0.0772 3.528708,0.28204 5.26428,0.64027 1.655035,0.33225 3.314115,0.6481 4.955251,1.04439 1.244759,0.34858 2.51628,0.54538 3.7997689,0.6723 0.025956,0.002 0.052073,0.002 0.078034,0.004 0.4990888,-0.0371 0.9984105,-0.0743 1.4965495,-0.11317 1.346872,-0.12588 2.6913231,-0.25136 4.0457464,-0.24236 1.1278499,-0.0444 2.2567291,-0.10772 3.37498791,-0.26872 0.75719517,-0.11591 1.51142439,-0.25483 2.25722659,-0.4284 0.3616431,-0.12394 0.7240561,-0.24538 1.083138,-0.37775 0.3360393,-0.12388 0.6107589,-0.12825 0.9250071,-0.20723 0.1281086,-0.045 0.2583895,-0.0825 0.3855085,-0.13074 1.9825018,-0.7681 3.9540551,-1.56464 5.9510551,-2.29443 1.050809,-0.383992 1.999634,-0.542639 2.826703,-0.527616 z M 0.70283723,110.39557 c -0.45566013,0.0949 -0.90775367,0.208 -1.36890919,0.2744 -1.16638124,0.15534 -2.34111274,0.24237 -3.51761424,0.26251 0.4031694,0.0896 0.8047355,0.18876 1.2025101,0.308 0.1014836,0.0304 0.1982549,0.075 0.2986907,0.10852 0.4205235,-0.21824 0.9206601,-0.35072 1.4898318,-0.37156 0.39885139,-0.0146 0.83259872,0.0278 1.29449508,0.13023 0.22468681,-0.12213 0.44967525,-0.24374 0.67437529,-0.36587 -0.0326284,-0.11319 -0.058211,-0.22834 -0.0733795,-0.34623 z m 10.24433577,1.02474 c -0.76023,0.21437 -1.5189569,0.4343 -2.2696301,0.68006 -0.031261,0.62207 -0.2256075,1.28373 -0.6464723,1.94355 0.6236891,0.43248 1.2549743,1.04482 1.8634525,1.86862 0.2674939,0.36214 0.4748849,0.75712 0.7188199,1.13223 0.154519,-1.86707 0.314174,-3.74736 0.33383,-5.62446 z m 64.566086,3.39773 c 1.50346,0.0187 3.129182,1.24994 3.928441,4.04678 0.257931,0.90255 0.823497,1.65871 1.488797,2.30735 0.856321,0.95375 1.845738,1.76777 2.801898,2.61638 1.458581,1.46408 2.789203,3.04608 4.169772,4.58215 1.315059,1.44746 2.571226,2.91698 3.543967,4.61884 0.0053,0.01 0.0082,0.0206 0.01344,0.0305 0.734605,-0.43313 1.446276,-0.65634 2.094962,-0.69195 3.016182,-0.16561 4.69137,3.55377 1.187525,7.32306 -1.69471,1.82311 -3.657862,3.33908 -5.68751,4.7651 -0.777873,0.49914 -1.607691,0.90075 -2.418456,1.33842 0.165478,1.44344 -0.672182,3.24303 -2.956409,4.73096 -1.354556,0.88234 -2.690448,1.79306 -4.075203,2.6288 -2.075008,1.20078 -4.233777,2.27962 -6.540687,2.96259 -2.077586,0.62971 -4.169056,1.29987 -6.359301,1.36374 -1.872114,0.0897 -3.746989,0.0368 -5.620845,0.0501 h -5.1108 -5.524728 c -7.160125,0 -7.160125,-7.23315 0,-7.23315 h 1.347722 c 0.29438,-0.0541 0.5212,-0.1588 0.84801,-0.18656 1.106628,-0.094 2.200932,-0.28334 3.292822,-0.48421 0.456121,-0.98163 1.356053,-1.98213 2.807581,-2.83962 1.078018,-0.63685 2.158119,-1.26923 3.212209,-1.94561 1.962647,-1.29302 3.840588,-2.72135 5.893696,-3.86902 1.367169,-0.76424 2.559646,-1.07097 3.526915,-1.04128 2.216811,0.068 3.246223,1.90266 2.479953,4.04059 1.105688,-0.48686 2.206929,-0.98346 3.283003,-1.53739 2.619811,-1.23728 5.288743,-2.38548 7.764385,-3.9026 0.246153,-0.17184 0.487463,-0.34958 0.730705,-0.52503 -0.126915,-0.50614 -0.277693,-0.9939 -0.512114,-1.46554 -0.647621,-1.25778 -1.721077,-2.20654 -2.600875,-3.29644 -1.199229,-1.33472 -2.369312,-2.69496 -3.592029,-4.00803 -1.098706,-0.97599 -2.227236,-1.92181 -3.215306,-3.01428 -1.300821,-1.39063 -2.459913,-2.93896 -3.045293,-4.77801 -1.289469,-4.05101 0.646382,-6.61405 2.843754,-6.58667 z m -95.086705,4.28035 c -0.465643,0.10748 -0.930899,0.21773 -1.394745,0.33435 0.171958,0.64334 0.283575,1.36624 0.279569,2.2071 -0.01267,2.6582 0.205063,5.32647 0.670242,7.94732 0.280107,-0.17087 0.565767,-0.33222 0.845429,-0.50385 -0.01897,-0.36223 -0.02445,-0.73164 -0.05529,-1.08985 -0.118034,-2.96491 -0.160888,-5.93314 -0.3452,-8.89507 z m 18.5141159,1.1958 c 0.00497,0.0773 0.00619,0.15612 0.014975,0.23202 -0.1238779,0.22787 -0.2588048,0.44752 -0.3937741,0.66715 0.58900751,0.0447 1.13203305,0.21413 1.64331124,0.45888 -0.37615284,-0.49255 -0.78353709,-0.94642 -1.26452314,-1.35805 z m -6.5422357,14.57068 c -0.046649,0.0755 -0.09888,0.14702 -0.1436608,0.22376 -0.03147,0.054 0.1963367,0.0838 0.1860365,0.0222 -0.017595,-0.10481 -0.026035,-0.14905 -0.042376,-0.24597 z m 13.9236979,6.08439 c -0.2236258,0.5643 -0.5677508,1.09664 -1.1782213,1.50533 0.9079653,0.17659 1.7077452,0.44257 2.2830631,0.84852 0.1405493,-0.0459 0.272804,-0.11448 0.4128956,-0.16174 -0.7336976,-0.43656 -1.2984269,-1.18703 -1.5177374,-2.19211 z" /></clipPath><clipPath
       clipPathUnits="userSpaceOnUse"
       id="clipPath127"><path
         id="path128"
         style="fill:#ff0000;fill-opacity:1;fill-rule:nonzero;stroke:none;stroke-width:0.264583"
         d="M -112.24796,-126.55676 V 185.58027 H 148.5754 V -126.55676 Z M 46.874626,83.305366 c 1.808208,0 3.616317,1.790192 3.616317,5.370214 v 5.232238 c 0.0627,2.146078 -0.111291,4.285324 -0.245462,6.424932 -0.136289,2.02485 -0.190703,4.04985 -0.104904,6.07715 0.192061,1.91863 0.527714,3.82569 0.876432,5.72213 0.304242,2.00862 0.765826,3.9858 1.180806,5.97276 0.41642,1.86142 0.967934,3.68703 1.421104,5.53972 0.25287,0.86996 0.117097,0.46495 0.396356,1.22008 0.186108,0.50319 0.223428,0.93098 0.309544,1.38441 4.425355,2.23251 2.751262,7.58433 -3.415813,6.40477 -3.104732,-0.59371 -6.256094,-0.76586 -9.40821,-0.85576 -3.81635,0.009 -7.630525,0.17062 -11.44478,0.28216 -1.12776,0.0333 -2.255837,0.0512 -3.383772,0.0754 -0.908129,0.5548 -1.966518,0.57724 -2.88613,0.0641 -0.03584,5.3e-4 -0.07165,0.002 -0.107487,0.003 -0.03142,5.3e-4 -0.0525,-0.009 -0.08268,-0.009 -0.32049,0.14732 -0.641715,0.29301 -0.962215,0.44028 -0.262501,0.12062 -0.518089,0.22111 -0.770496,0.31265 -0.876996,0.71434 -1.945576,0.85817 -2.911967,0.46405 -2.943479,-0.21613 -4.295167,-2.77187 -2.550232,-5.0524 -2.22e-4,-0.028 -0.0078,-0.0483 -0.0078,-0.0765 v -6.3469 c -0.014,-2.72977 -0.02254,-5.45666 0.112657,-8.18348 0.135676,-2.32533 0.233519,-4.6523 0.299723,-6.98046 0.046,-1.80459 0.06926,-3.60958 0.08527,-5.41465 -0.0258,-1.02998 0.04009,-2.054459 0.138491,-3.078883 0.0044,-0.04602 0.02191,-0.07504 0.02687,-0.120406 C 15.992671,97.193438 15.83363,95.70984 16.656834,94.418959 10.68718,93.678613 10.992573,87.32947 17.739972,87.32947 h 3.885033 5.177462 5.913334 c 1.498505,0.05847 2.984222,-0.03228 4.475178,-0.161748 1.252041,-0.18606 2.49041,-0.398671 3.697968,-0.782897 1.001961,-0.32245 0.492366,-0.161472 1.527553,-0.482142 0.510384,-0.158096 0.938446,-0.174371 1.394749,-0.23771 0.672338,-1.56932 1.86623,-2.35903 3.063377,-2.35903 z" /></clipPath></defs><g
     id="layer1"
     transform="translate(-33.921856,270.6346)"><path
       style="fill:#000000"
       d="m 101.62,-52.382016 c -3.444234,-0.360673 -4.687464,-0.766826 -5.822944,-1.902304 -0.90236,-0.902362 -1.02332,-1.172485 -1.02113,-2.280385 0.005,-2.335619 2.17901,-5.039462 5.644394,-7.018756 0.94712,-0.540957 1.00564,-0.644281 0.85552,-1.510389 -0.0886,-0.51134 -0.29022,-1.882209 -0.44799,-3.046375 -0.25235,-1.862146 -0.39662,-2.231025 -1.199764,-3.067697 -1.6086,-1.675762 -1.72151,-2.502209 -1.62932,-11.92535 0.0451,-4.608154 -0.007,-8.467764 -0.11647,-8.576909 -0.10914,-0.109145 -0.19995,0.14882 -0.20179,0.573256 -0.004,0.882827 -1.3267,3.636672 -2.19232,4.563829 -0.95582,1.023759 -2.61026,1.852644 -4.0842,2.046214 -1.2024,0.157908 -1.57811,0.08424 -2.84854,-0.558537 l -1.46344,-0.740437 -0.72335,0.692843 c -1.73671,1.663477 -4.77227,2.016248 -7.15074,0.831007 -3.0997,-1.544648 -5.43501,-5.64674 -5.78896,-10.168635 -0.46727,-5.969589 3.31133,-12.480179 12.59004,-21.692819 1.68625,-1.67424 3.81323,-3.68916 4.72663,-4.47761 0.9134,-0.78844 1.56824,-1.52093 1.45521,-1.62775 -0.11304,-0.10681 -2.68811,-0.0637 -5.72238,0.0958 -6.24576,0.32834 -8.80995,0.10566 -11.15713,-0.96891 -3.22214,-1.47514 -5.6033,-5.58169 -6.54838,-11.29331 l -0.32555,-1.96749 -3.30729,-0.3294 c -11.80226,-1.17549 -24.27602,-5.18834 -28.54676,-9.18359 -1.58865,-1.48617 -2.66757,-3.48302 -2.67148,-4.94436 -0.005,-1.90222 1.90409,-10.3915 4.18653,-18.61556 4.48471,-16.15918 15.0703,-46.5919 21.06036,-60.54686 2.00456,-4.66999 5.10423,-10.70382 6.9539,-13.53647 3.0674,-4.69754 8.8503,-9.9025 15.3114,-13.78119 5.34533,-3.20888 13.51323,-6.80851 19.424804,-8.56061 1.09141,-0.32348 2.52016,-0.75029 3.175,-0.94849 3.29783,-0.9981 11.25432,-2.48279 17.06562,-3.18447 4.73618,-0.57186 17.44831,-0.79767 22.62188,-0.40184 19.22769,1.47113 36.29589,7.31637 48.17891,16.49951 2.60969,2.01676 6.7494,6.0707 8.95318,8.76768 1.73863,2.12772 4.85005,6.81729 6.74199,10.1616 6.17231,10.91054 15.77827,33.71561 21.13909,50.1853 3.49453,10.73603 8.39336,28.67212 8.37893,30.67777 -0.007,0.97106 -0.7673,2.71796 -1.73531,3.98709 -2.67854,3.51175 -12.81517,8.14352 -24.58492,11.2337 -3.13331,0.82265 -9.3875,2.45199 -11.30416,2.94495 -0.85292,0.21937 -1.13352,0.5102 -2.08713,2.1633 -3.33482,5.78098 -5.331,8.27094 -7.53017,9.39288 -2.59415,1.32343 -6.57114,2.11249 -11.09312,2.20093 -1.16417,0.0228 -2.20316,0.0909 -2.30887,0.15142 -0.1057,0.0605 1.23661,1.29963 2.98293,2.7536 4.05225,3.37388 10.26607,9.59439 12.36022,12.37354 2.75787,3.65997 4.57366,8.000074 4.55108,10.877967 -0.0273,3.481773 -1.87771,7.751884 -4.34448,10.025674 -1.79495,1.654531 -3.17645,2.267305 -5.09046,2.257912 -1.44515,-0.0071 -1.81601,-0.125464 -3.13327,-1.000074 -1.35797,-0.901642 -1.53495,-0.955066 -1.9424,-0.586333 -0.81423,0.736874 -2.3739,1.219628 -3.94035,1.219628 -3.05429,0 -5.73438,-2.100184 -7.09026,-5.556092 -0.66211,-1.687606 -0.82211,-1.879043 -2.30721,-2.760507 -0.87766,-0.520932 -1.64257,-0.90033 -1.69979,-0.843107 -0.0572,0.05722 0.14455,1.633501 0.44838,3.502842 1.47706,9.087666 1.87428,13.658965 1.33015,15.307712 -0.1852,0.56114 -0.7802,1.506521 -1.32223,2.100848 -0.91849,1.007098 -0.99729,1.22649 -1.15866,3.22562 -0.0952,1.179764 -0.36239,2.782242 -0.59367,3.561062 -0.41692,1.403934 -0.4152,1.420176 0.20148,1.900511 3.12695,2.435604 4.49128,4.087023 5.02494,6.082314 0.2818,1.053611 0.25341,1.30354 -0.27115,2.387142 -1.21503,2.509918 -2.97899,2.958337 -11.67242,2.967278 -9.28682,0.0096 -12.80149,-0.77315 -14.07362,-3.134136 -0.14668,-0.272234 -0.36829,-1.641453 -0.49245,-3.042709 -0.16699,-1.884478 -0.4971,-3.305415 -1.26806,-5.458154 l -1.04231,-2.910417 -1.61595,0.0088 c -12.72518,0.06945 -15.10978,0.141125 -15.11122,0.454201 -8.4e-4,0.181901 -0.36215,1.459569 -0.8029,2.839262 -0.4556,1.426146 -0.91807,3.645676 -1.07182,5.143969 -0.15766,1.536318 -0.45488,2.947654 -0.71268,3.384066 -0.58081,0.983232 -2.21405,1.748219 -4.74828,2.224028 -2.39963,0.450538 -13.16725,0.703067 -16.24332,0.380947 z m 15.69709,-4.944088 c 0.93848,-0.147048 0.98663,-0.205772 1.13374,-1.382804 0.2618,-2.09466 0.72226,-4.332337 1.25184,-6.083449 0.27931,-0.923568 0.44692,-1.740126 0.37247,-1.814574 -0.0745,-0.07445 -1.66036,-0.246496 -3.52426,-0.382331 -2.94153,-0.21437 -7.4344,-0.840003 -10.37029,-1.444068 l -0.89598,-0.18435 0.17565,1.164769 c 0.0966,0.640623 0.46622,2.105035 0.82137,3.254249 0.35514,1.149214 0.57905,2.197353 0.49757,2.329198 -0.0815,0.131846 -0.79436,0.525499 -1.58416,0.874787 -1.56904,0.693902 -5.394514,3.239665 -5.394514,3.589918 0,0.120084 0.684614,0.269755 1.521354,0.332603 1.97413,0.148276 14.7196,-0.05408 15.99521,-0.253948 z m 48.04065,0.04869 c 0.28513,-0.285813 -0.9977,-1.293259 -3.58768,-2.817511 -1.2683,-0.746418 -2.35706,-1.404907 -2.41948,-1.46331 -0.0624,-0.0584 0.14222,-0.729804 0.45475,-1.492003 0.73033,-1.78111 1.31243,-4.056815 1.41257,-5.522445 0.0956,-1.398582 0.24424,-1.389537 -4.11573,-0.250373 -1.7356,0.453475 -4.6844,1.028956 -6.55289,1.278847 -2.82165,0.377366 -3.36987,0.522265 -3.23567,0.855208 0.479,1.188377 1.48508,5.665936 1.61982,7.209016 0.17866,2.046033 -0.0952,1.889364 4.04834,2.316206 2.56546,0.264279 12.08617,0.176861 12.37597,-0.113635 z M 139.75261,-71.85337 c 6.07668,-0.23784 12.89655,-1.166533 17.70956,-2.411591 2.33821,-0.604861 5.9372,-1.989652 6.47442,-2.491174 0.52668,-0.491691 -1.88855,-13.552228 -6.12515,-33.122105 -0.24415,-1.12779 -0.54684,-2.05052 -0.67265,-2.05052 -0.1258,0 -1.57642,0.52695 -3.22358,1.171 -5.44202,2.12787 -11.43491,3.59686 -16.85454,4.13141 -1.64813,0.16256 -3.77051,0.38568 -4.71639,0.49582 l -1.7198,0.20024 2.2526,1.08524 c 3.15153,1.51832 7.86223,3.23954 12.82865,4.6874 2.32834,0.678774 4.44733,1.427134 4.70888,1.66302 0.27925,0.251849 0.44307,0.707617 0.39688,1.104146 -0.076,0.651974 -0.13799,0.673721 -1.79847,0.630551 -4.59459,-0.119451 -19.33884,-5.719687 -22.58756,-8.579317 -0.8871,-0.78086 -1.54603,-1.12644 -2.35302,-1.23403 -1.06348,-0.1418 -1.10055,-0.12448 -0.724,0.33813 0.55524,0.68214 8.82753,6.08333 12.15109,7.933758 2.95019,1.642548 7.6847,3.935548 11.48312,5.561462 3.04608,1.303877 3.79829,2.425389 2.20033,3.280592 -0.5068,0.271232 -0.98851,0.173582 -3.22711,-0.654179 -3.10426,-1.147854 -8.88321,-3.869277 -11.88144,-5.595206 -5.7048,-3.283964 -12.49717,-7.962137 -14.98328,-10.319577 -1.28155,-1.21523 -1.74363,-1.47025 -3.45875,-1.90891 -1.6412,-0.41975 -5.17618,-1.66531 -7.16677,-2.52523 -2.17554,-0.93982 3.54965,6.34229 9.24695,11.761584 3.40578,3.23959 7.38253,6.537233 12.25045,10.158445 1.96453,1.461402 3.71691,2.83974 3.89418,3.062975 0.4766,0.600161 0.40647,1.453569 -0.1617,1.967756 -0.44847,0.40586 -0.59374,0.413974 -1.38906,0.07758 -0.48852,-0.206624 -2.24641,-1.350563 -3.90642,-2.542088 -6.56103,-4.709379 -12.28815,-9.903417 -17.676,-16.030702 -3.54194,-4.02804 -5.13027,-6.32165 -5.77157,-8.33437 -0.66573,-2.08943 -0.73908,-2.20286 -1.7364,-2.68523 l -0.90199,-0.43626 -0.17285,2.15605 c -0.0951,1.18584 -0.25934,6.97809 -0.36505,12.871683 -0.18568,10.352065 0.10526,21.241391 0.61786,23.125435 0.16737,0.615156 0.4437,0.838628 1.38743,1.122032 4.15854,1.248818 12.34445,2.23635 18.64094,2.248805 2.47385,0.0049 5.33135,0.103468 6.35,0.219053 1.01865,0.115585 3.04271,0.166577 4.49792,0.113315 1.45521,-0.05326 4.37224,-0.164411 6.48229,-0.246998 z m -17.4625,-1.313935 c 0,-0.07276 0.0595,-0.132292 0.13229,-0.132292 0.0728,0 0.13229,0.05953 0.13229,0.132292 0,0.07276 -0.0595,0.132291 -0.13229,0.132291 -0.0728,0 -0.13229,-0.05953 -0.13229,-0.132291 z M 83.588656,-88.254166 c 0.31605,-0.221367 1.07496,-1.176126 1.68646,-2.121687 1.53353,-2.371264 2.83257,-2.566504 3.83799,-0.576837 1.03003,2.038355 2.44873,2.627831 3.53033,1.466868 0.88639,-0.951428 0.9638,-1.594691 0.24689,-2.051609 -0.34673,-0.220992 -1.50054,-1.235333 -2.56402,-2.254092 -3.00344,-2.877165 -5.46997,-6.948877 -6.28275,-10.371497 -0.64967,-2.73578 -0.57924,-2.61703 -1.21405,-2.04707 -0.86408,0.7758 -2.50574,3.3049 -3.36974,5.19132 -1.04131,2.273548 -1.46277,4.550958 -1.28274,6.931375 0.33258,4.397447 3.14043,7.424043 5.41163,5.833229 z m 104.837904,-0.199865 c 1.79037,-0.905966 2.88207,-4.644062 2.38749,-8.17504 -0.55111,-3.934659 -1.77529,-6.412479 -5.1079,-10.338759 -0.71022,-0.83674 -1.3986,-1.52135 -1.52972,-1.52135 -0.13113,0 -0.23841,0.36939 -0.23841,0.82087 0,1.164 -1.45505,5.36761 -2.51548,7.26715 -1.3244,2.372403 -3.17013,4.781241 -5.20494,6.792905 -0.99252,0.981227 -1.80458,1.900776 -1.80458,2.043443 0,0.743811 1.22381,2.659142 1.87013,2.926855 1.39082,0.576097 2.13465,0.254382 3.22347,-1.394179 1.85995,-2.816118 2.76438,-2.880142 4.42446,-0.313202 0.60061,0.928722 1.29437,1.806575 1.54167,1.950785 0.62698,0.365604 2.17538,0.334426 2.95381,-0.05948 z m -92.408944,-6.064134 c 0.47987,-0.465109 0.87249,-0.975192 0.87249,-1.133517 0,-0.158326 -0.66941,-0.938642 -1.48758,-1.734035 -3.10415,-3.017733 -5.7953,-7.198943 -6.5851,-10.231183 -0.5867,-2.25249 -0.51002,-3.53787 0.28055,-4.70284 0.37099,-0.54669 0.62041,-1.0481 0.55427,-1.11425 -0.0661,-0.0662 -0.97567,0.68666 -2.02115,1.67292 l -1.90087,1.79318 0.18211,1.45752 c 0.39218,3.13891 1.85778,6.71371 3.96801,9.678483 1.10815,1.556905 4.63649,5.159374 5.05321,5.159374 0.11636,0 0.60419,-0.380543 1.08406,-0.845652 z m 76.859554,-0.01424 c 0.45318,-0.327422 1.72829,-1.682091 2.83356,-3.010376 3.29184,-3.956039 5.34157,-8.451619 5.41385,-11.873929 0.0309,-1.46249 -0.0644,-1.81396 -0.75843,-2.79895 -0.43656,-0.61954 -0.92498,-1.16968 -1.08538,-1.22254 -0.18133,-0.0598 -0.35204,0.53276 -0.45135,1.56657 -0.42191,4.39191 -3.8374,10.79607 -7.71229,14.460771 -0.80663,0.762882 -1.46661,1.487831 -1.46661,1.610999 0,0.255331 1.87546,1.840404 2.19353,1.853895 0.11503,0.0049 0.57994,-0.259019 1.03312,-0.58644 z m -2.88665,-6.284065 c 1.86707,-1.98337 2.48603,-2.87899 3.70276,-5.35782 0.80353,-1.63699 1.60681,-3.54011 1.78508,-4.22914 l 0.32412,-1.2528 -1.45697,-1.78991 c -0.80133,-0.98445 -2.07505,-2.74108 -2.83048,-3.90362 -0.75543,-1.16253 -1.41896,-2.15915 -1.47451,-2.2147 -0.0556,-0.0556 -0.55299,0.24478 -1.1054,0.66742 -1.20345,0.92073 -2.37805,1.69422 -5.37001,3.53618 -1.23693,0.7615 -2.27496,1.40492 -2.30674,1.42981 -0.0318,0.0249 0.17875,0.81302 0.46785,1.75138 0.28909,0.93836 1.00332,3.61112 1.58718,5.93945 0.58386,2.32834 1.20341,4.58965 1.37679,5.02514 0.43221,1.08568 2.00772,2.780071 2.58501,2.780071 0.26043,0 1.48233,-1.071658 2.71532,-2.381461 z m -71.017584,-4.69615 c 0.18526,-3.74716 0.39734,-7.46786 0.47129,-8.26823 l 0.13445,-1.4552 -2.02529,-1.6782 c -1.1139,-0.92301 -2.05608,-1.63739 -2.09372,-1.5875 -0.0376,0.0499 -0.34628,0.8646 -0.68586,1.81049 -0.78341,2.18213 -1.99212,4.65071 -2.81158,5.74218 -0.58357,0.77727 -0.61276,0.95206 -0.35272,2.11238 0.38864,1.73421 1.05989,3.17902 2.39498,5.15497 1.08495,1.60574 4.10886,4.982137 4.46202,4.982137 0.0933,0 0.32118,-3.065857 0.50643,-6.813027 z m 40.118214,-4.6753 c 8.6181,-1.33905 16.86336,-4.28683 23.89554,-8.54296 2.65171,-1.60491 5.33481,-3.58753 5.2519,-3.88077 -0.036,-0.12752 -0.80628,-0.50006 -1.71162,-0.82788 l -1.64607,-0.59603 -2.57612,1.73051 c -2.98272,2.00364 -8.29846,4.61784 -12.10113,5.95117 -2.79739,0.98084 -8.10457,2.3334 -10.98021,2.79835 -11.20844,1.81225 -22.69862,0.29178 -31.88229,-4.2189 -3.06649,-1.50615 -5.11521,-2.97282 -7.577804,-5.4249 l -1.75697,-1.74947 -0.94785,1.01992 c -0.52132,0.56095 -0.95107,1.12814 -0.95501,1.26043 -0.0207,0.69475 4.790234,4.49822 8.523944,6.73895 5.02935,3.0183 12.24204,5.35248 18.87695,6.10898 3.00175,0.34226 12.45322,0.11947 15.58674,-0.3674 z m -1.93728,-6.3765 c 8.88452,-1.16516 19.41588,-5.0312 24.33676,-8.93399 0.9657,-0.7659 0.96722,-0.77033 0.58093,-1.69485 -0.29773,-0.71255 -0.33255,-1.28872 -0.15055,-2.49115 0.25918,-1.71243 0.1519,-1.92841 -1.06694,-2.14802 -0.58431,-0.10528 -1.07673,0.14803 -2.51354,1.29302 -3.71625,2.96143 -10.93991,5.92466 -17.55133,7.19977 -13.48637,2.60105 -28.57065,-0.0243 -35.63235,-6.20176 l -1.30255,-1.13944 -1.79194,1.80577 -1.79194,1.80578 1.58641,1.58642 c 4.49454,4.49454 12.21002,7.75551 21.09474,8.91575 3.70965,0.48444 10.51908,0.48573 14.2023,0.003 z m 1.5404,-9.75082 c 3.29892,-0.5656 5.64007,-1.13393 8.46667,-2.05537 2.84525,-0.92751 7.8844,-3.42651 8.73482,-4.33175 l 0.56499,-0.6014 -1.75947,-0.58551 -1.75947,-0.58552 -1.08212,0.86962 c -3.74063,3.00605 -10.26006,4.66369 -19.38312,4.9284 -7.08264,0.2055 -12.18908,-0.4344 -18.17808,-2.27793 -2.40081,-0.73902 -7.09317,-1.69621 -7.30021,-1.48917 -0.22815,0.22814 2.79251,2.32978 4.53135,3.15272 3.42605,1.62143 8.51563,2.8669 14.06777,3.44253 2.13103,0.22094 10.91116,-0.0919 13.09687,-0.46662 z m -47.992814,-0.85895 c 1.03463,-0.0856 2.01135,-0.2361 2.1705,-0.33446 0.19817,-0.12247 0.0407,-0.96839 -0.4996,-2.68436 -0.43393,-1.37805 -0.95183,-3.43579 -1.1509,-4.57275 -0.19908,-1.13697 -0.40405,-2.09417 -0.45551,-2.12712 -0.0514,-0.0329 -0.74839,-0.34982 -1.54876,-0.70416 -2.46767,-1.0925 -7.18958,-3.70703 -8.9675,-4.96533 -2.34185,-1.6574 -5.09974,-4.31274 -6.58466,-6.33981 l -1.24888,-1.70484 -0.0852,1.14903 c -0.15586,2.10199 0.74558,11.68845 1.38935,14.77506 1.21034,5.80312 2.33218,7.1913 6.20618,7.67958 1.72671,0.21763 7.11132,0.13226 10.77498,-0.17084 z m 92.313294,-0.36546 c 5.27382,-0.90161 5.71037,-1.24769 10.28485,-8.1535 1.57299,-2.37463 2.99739,-4.35487 3.16534,-4.40053 0.16796,-0.0457 3.81772,-1.00483 8.11058,-2.13149 8.2622,-2.16841 14.9775,-4.2785 18.25625,-5.73651 3.65474,-1.6252 6.85093,-3.46423 8.22046,-4.72989 1.58569,-1.46545 1.63457,-0.43179 -0.41208,-8.71427 -5.01899,-20.31104 -13.26564,-43.13022 -22.63867,-62.64309 -4.77811,-9.94712 -10.17714,-18.06026 -15.11097,-22.70729 -1.8612,-1.75302 -5.28461,-4.43602 -6.84261,-5.3627 -0.79663,-0.47383 -2.04373,-1.22941 -2.77134,-1.67907 -8.04296,-4.97059 -15.97012,-7.87848 -27.91354,-10.23943 -6.11827,-1.20945 -11.7377,-1.63746 -21.56354,-1.6424 -14.13608,-0.007 -22.93985,1.31693 -34.395834,5.17296 -7.00602,2.35819 -10.31855,3.95147 -17.59479,8.46287 -5.12411,3.17704 -9.20509,6.78243 -11.25144,9.94023 -4.63068,7.14576 -7.5785,13.52036 -13.27518,28.70729 -10.33807,27.56057 -18.98452,56.35159 -18.53853,61.72972 0.10633,1.2822 0.23983,1.57296 1.02237,2.22681 4.197,3.50674 18.00078,7.64192 26.92698,8.06648 l 3.27274,0.15566 -0.13844,-1.16433 c -0.0761,-0.64039 -0.2904,-3.37743 -0.47615,-6.08232 -0.39295,-5.72234 -0.0629,-13.19522 0.82855,-18.76223 2.66968,-16.67104 3.34497,-24.34355 2.62839,-29.86335 -0.13922,-1.0724 -0.67266,-4.1085 -1.18543,-6.74688 -0.51277,-2.63838 -1.04871,-5.69002 -1.19098,-6.78143 -0.96023,-7.3661 -1.14012,-10.02872 -1.16187,-17.19792 l -0.0229,-7.54062 0.7082,-1.91612 c 0.38952,-1.05387 0.88766,-2.17232 1.10698,-2.48544 l 0.39876,-0.56932 0.13093,0.63336 c 0.072,0.34834 0.19241,4.02663 0.26756,8.17398 0.12584,6.94474 0.56119,14.51244 0.85156,14.80281 0.0667,0.0667 1.29423,-0.49427 2.72791,-1.24653 5.88747,-3.08919 15.65372,-6.00025 25.159384,-7.49934 l 3.7756,-0.59544 -0.1692,-2.7969 c -0.0931,-1.53829 -0.29948,-4.22564 -0.4587,-5.97189 -0.37929,-4.15974 -0.37503,-17.56856 0.007,-20.76088 0.45516,-3.80736 1.01119,-4.42445 5.08641,-5.64504 2.65445,-0.79505 9.09512,-0.84255 11.33446,-0.0836 3.13838,1.06366 3.02146,0.8971 6.05805,8.63014 1,2.54662 2.3718,5.87524 3.04846,7.39694 0.67665,1.5217 1.47453,3.57089 1.77306,4.55376 l 0.5428,1.78703 -1.86642,4.57496 c -1.02654,2.51623 -2.0998,5.25328 -2.38504,6.08234 l -0.51861,1.50737 1.10562,0.14729 c 0.60809,0.081 2.53437,0.2636 4.28062,0.40576 10.07719,0.82037 26.39194,4.58322 37.30625,8.60434 3.85153,1.41901 3.70898,1.41156 4.25002,0.22204 1.26766,-2.78701 5.62991,-10.19259 7.7384,-13.13711 2.06793,-2.88787 5.32719,-5.92807 8.12997,-7.58354 2.29537,-1.35578 3.97266,-2.15929 3.42953,-1.64293 -0.14552,0.13835 -1.0069,0.86303 -1.91417,1.61041 -6.08763,5.01478 -13.47126,17.24401 -17.82595,29.52446 -1.55413,4.38271 -3.25889,10.58191 -3.67436,13.36146 -0.48127,3.21975 -0.74561,11.26812 -0.77339,23.54792 -0.0143,6.33015 -0.0905,12.99765 -0.16932,14.81666 -0.28591,6.59955 -1.56814,21.07876 -2.39565,27.0522 -0.17302,1.24896 -0.16904,1.25736 0.78314,1.65521 2.97191,1.24174 10.6548,1.56071 15.9183,0.66087 z m -84.252914,-4.40543 c 0.86232,-0.82251 1.567854,-1.5831 1.567854,-1.69018 0,-0.24566 -4.734344,-1.42861 -4.930884,-1.23206 -0.13788,0.13788 0.43346,2.36575 0.96571,3.76568 0.13635,0.35862 0.37876,0.65204 0.53868,0.65204 0.15993,0 0.99631,-0.67296 1.85864,-1.49548 z m 64.075794,-5.05295 c 0.0725,-0.83675 0.0905,-1.56771 0.04,-1.62436 -0.0505,-0.0567 -1.2209,0.41492 -2.60092,1.04794 -1.38001,0.63303 -2.44594,1.21517 -2.36872,1.29364 0.1905,0.19361 2.94651,0.7282 3.97071,0.77021 0.82021,0.0336 0.82823,0.0212 0.95893,-1.48743 z m -26.26002,0.35261 c 9.94339,-1.21504 17.60095,-3.14737 24.47396,-6.17583 l 2.38125,-1.04925 0.31767,-2.7484 c 0.17773,-1.53757 0.44096,-10.26682 0.59751,-19.81403 0.32728,-19.95864 0.54203,-24.58121 1.35736,-29.21626 l 0.60148,-3.41939 -0.62348,-0.41398 c -2.94195,-1.95339 -14.01667,-5.35497 -22.85998,-7.02141 -9.54716,-1.79907 -13.22655,-2.12917 -23.70827,-2.12695 -9.93729,0.002 -12.13489,0.19027 -20.372924,1.74447 -8.35566,1.5764 -17.39439,5.07493 -20.867,8.07677 l -0.96112,0.83083 -0.0245,5.52036 c -0.0315,7.09344 -1.00228,15.13416 -3.14202,26.02556 -0.91069,4.63543 -0.88721,7.42519 0.086,10.22093 3.55009,10.19817 17.21101,17.36914 37.211794,19.53344 5.71689,0.61863 5.60373,0.61427 14.02291,0.53981 5.34844,-0.0473 9.10258,-0.21257 11.50938,-0.50667 z m -22.03067,-15.50811 c -2.29788,-0.57641 -4.75561,-2.35611 -5.40713,-3.91542 -0.32577,-0.77966 -0.32016,-0.9674 0.0455,-1.52548 0.63122,-0.96337 1.69361,-0.84123 2.80028,0.32194 2.65935,2.79511 6.98911,2.57411 9.13394,-0.46623 1.02015,-1.44608 2.20235,-1.71158 2.89746,-0.65072 0.69245,1.05682 0.28166,2.1641 -1.42906,3.85199 -2.13896,2.11042 -5.34367,3.06052 -8.041,2.38392 z m -18.713274,-14.17171 c -3.06933,-1.33103 -4.78805,-5.42179 -4.77959,-11.376 0.006,-3.89483 0.50613,-6.49232 1.73575,-9.00642 2.12338,-4.3415 5.39736,-5.32953 8.115554,-2.44914 2.12786,2.25482 3.39712,6.63775 3.38847,11.70079 -0.008,4.49958 -0.90354,7.59433 -2.80987,9.70685 -1.634554,1.81135 -3.609324,2.30901 -5.650314,1.42392 z m 5.677484,-13.96509 c 1.61771,-1.61771 0.94332,-7.21869 -1.02442,-8.508 -0.635464,-0.41637 -0.734714,-0.41784 -1.342164,-0.0198 -1.02981,0.67476 -1.55315,1.94548 -1.53703,3.7321 0.0195,2.16364 0.50212,3.7738 1.40034,4.67202 0.91676,0.91676 1.672854,0.95412 2.503274,0.1237 z m 41.52732,13.61997 c -1.24131,-0.56377 -2.71937,-2.26645 -3.47683,-4.00518 -1.00136,-2.29862 -1.26456,-3.96161 -1.2548,-7.92822 0.008,-3.19047 0.11277,-4.20325 0.6231,-6.01484 1.6407,-5.82415 5.02904,-8.30953 8.33928,-6.11692 5.19786,3.44292 6.37343,17.35421 1.91221,22.62833 -1.51783,1.79441 -4.05104,2.38692 -6.14296,1.43683 z m 5.74986,-13.27766 c 1.45663,-0.77957 1.9561,-4.15868 0.99457,-6.72861 -0.7597,-2.03048 -1.52215,-2.86324 -2.62149,-2.86324 -1.75523,0 -3.11115,2.53844 -2.82871,5.29566 0.34181,3.33673 2.45006,5.36954 4.45563,4.29619 z m -55.984264,-17.76461 c -0.5602,-0.7998 -0.54703,-0.84833 0.56352,-2.07759 2.42777,-2.68724 6.962104,-3.46692 6.962104,-1.19713 0,0.80298 -0.421104,1.13478 -2.056614,1.62048 -0.73201,0.21738 -1.93508,0.81082 -2.67348,1.31876 -1.55958,1.0728 -2.2233,1.15245 -2.79553,0.33548 z m 52.495874,-1.13755 c -1.38466,-0.89212 -2.80796,-1.44478 -3.729,-1.44794 -1.20635,-0.004 -1.31179,-1.62071 -0.16151,-2.47635 0.66771,-0.49668 0.83799,-0.51492 1.97327,-0.21128 1.82818,0.48897 2.94244,1.07985 4.08383,2.16563 1.14716,1.09127 1.25336,1.60741 0.48816,2.37261 -0.7167,0.7167 -0.97919,0.67689 -2.65475,-0.40267 z m -68.055754,-3.93304 c 1.34916,-0.96153 5.30311,-3.00556 7.55239,-3.90427 3.74618,-1.4968 11.10037,-3.43256 16.856034,-4.43682 5.98342,-1.04399 8.39303,-1.21059 17.4625,-1.20732 7.55866,0.003 9.59794,0.0916 13.85199,0.60362 11.67495,1.40523 24.49712,4.5111 32.53036,7.87971 l 2.06465,0.86577 0.23303,-0.57676 c 0.38409,-0.95066 3.2082,-8.48118 3.34989,-8.93255 0.16008,-0.50992 -1.53752,-1.3064 -6.12471,-2.87356 -11.42089,-3.90183 -26.39795,-6.98559 -36.79666,-7.57638 l -3.19458,-0.18149 -0.25511,3.73957 c -0.18257,2.6763 -0.36507,3.8422 -0.64188,4.1005 -0.29468,0.27499 -2.46411,0.43798 -9.11126,0.68455 l -8.7245,0.32361 -0.57209,-0.66509 c -0.47348,-0.55045 -0.60244,-1.13603 -0.74817,-3.39717 -0.25869,-4.01392 -0.30918,-4.19021 -1.15939,-4.04796 -10.005794,1.67418 -16.398864,3.18414 -21.478654,5.07297 -3.51843,1.30826 -8.45671,3.7143 -8.64833,4.21366 -0.23171,0.60381 1.82887,11.21154 2.17786,11.21154 0.0656,0 0.68507,-0.40326 1.37663,-0.89613 z m 39.558874,-15.64316 c 4.23509,-0.18522 4.44006,-0.21931 4.5511,-0.75702 0.064,-0.30969 0.2973,-3.77775 0.51854,-7.70681 0.22124,-3.92907 0.60818,-10.60303 0.85986,-14.83104 l 0.4576,-7.68729 -1.25898,-3.8921 c -0.94884,-2.9333 -1.40961,-3.99079 -1.87042,-4.29272 -0.807,-0.52877 -4.60576,-0.96316 -6.76648,-0.77375 -2.53241,0.22199 -5.46806,0.88932 -5.82984,1.32525 -1.02095,1.23017 -0.95392,16.70949 0.13102,30.25493 0.37753,4.71348 0.73519,8.64889 0.79482,8.74536 0.0596,0.0965 0.97905,0.093 2.04318,-0.008 1.06412,-0.10072 3.93045,-0.27041 6.3696,-0.37708 z m -5.83981,-12.28621 c -0.4817,-0.30516 -1.04991,-0.97151 -1.2627,-1.48078 -0.60301,-1.4432 -1.22554,-9.6975 -1.11659,-14.80518 0.0867,-4.06392 0.15413,-4.60834 0.69893,-5.64241 0.84957,-1.61254 1.85138,-1.98915 5.35249,-2.01214 2.557,-0.0168 2.87818,0.0377 3.75286,0.63625 0.56003,0.38326 1.19956,1.17344 1.54276,1.9062 0.64368,1.37427 0.64461,0.58591 -0.0174,14.67403 -0.25253,5.37391 -0.48572,6.19233 -1.90544,6.68725 -0.47214,0.16459 -2.05334,0.36503 -3.51377,0.44543 -2.38808,0.13148 -2.74348,0.0904 -3.53115,-0.40865 z m 5.69593,-3.29079 c 0.0555,-0.0555 0.27023,-3.71283 0.47715,-8.12736 0.46221,-9.86137 0.6162,-9.3302 -2.66535,-9.19348 -3.16796,0.13199 -3.16987,0.13484 -3.1259,4.66762 0.0321,3.31065 0.68734,10.92587 1.07194,12.45823 0.15477,0.61666 0.20885,0.62833 2.14999,0.46425 1.09518,-0.0926 2.03665,-0.21375 2.09217,-0.26926 z m 9.97075,-1.64815 1.21711,-3.20507 -0.81446,-2.48347 c -0.44795,-1.36591 -0.90531,-2.57755 -1.01637,-2.69253 -0.11105,-0.11497 -0.28177,2.20674 -0.37937,5.15938 -0.0976,2.95263 -0.25328,5.66608 -0.34595,6.02988 -0.34607,1.35856 0.15881,0.29974 1.33904,-2.80819 z"
       id="path129" /></g></svg>
