<?xml version="1.0" encoding="UTF-8" standalone="no"?>
<!-- Created with Inkscape (http://www.inkscape.org/) -->

<svg
   width="195.38698mm"
   height="205.87834mm"
   viewBox="0 0 195.387 205.87832"
   version="1.1"
   id="svg1"
   xml:space="preserve"
   xmlns="http://www.w3.org/2000/svg"
   xmlns:svg="http://www.w3.org/2000/svg"><defs
     id="defs1"><clipPath
       clipPathUnits="userSpaceOnUse"
       id="clipPath6"><path
         id="path7"
         style="fill:#ff0000;fill-opacity:1;fill-rule:nonzero;stroke:none;stroke-width:0.264583"
         d="M -175.07778,-16.057127 V 287.55793 H 124.54631 V -16.057127 Z m 132.7459,202.572647 c 0.210643,0.005 0.427212,0.0169 0.650089,0.0367 2.23823,0.19855 4.475655,0.4031 6.717938,0.55346 1.973313,0.11308 0.986628,0.0436 2.958475,0.20825 3.181295,0.26563 4.740125,1.85116 4.950601,3.46956 4.949923,1.63749 3.796379,7.35609 -2.592089,6.81354 -3.228716,-0.27422 -1.569593,-0.1301 -4.979024,-0.43357 -4.228209,-0.39317 -8.460616,-0.76265 -12.666927,-1.35341 -6.647387,-0.93358 -5.930551,-7.21034 0.03204,-7.20421 0.04685,5e-5 0.0972,0.004 0.144695,0.005 0.687229,-1.21692 2.304132,-2.15435 4.784204,-2.09548 z" /></clipPath><clipPath
       clipPathUnits="userSpaceOnUse"
       id="clipPath76"><path
         id="path77"
         style="fill:#ff0000;fill-opacity:1;fill-rule:nonzero;stroke:none;stroke-width:0.264583"
         d="M -133.83107,-122.52355 V 173.82063 H 122.97289 V -122.52355 Z M 13.574404,98.948202 c 2.788179,0.0507 4.135003,2.063798 3.398242,4.077268 0.199805,0.45372 0.374906,0.96736 0.517797,1.54461 1.07913,4.35948 0.671079,8.891 0.311608,13.31495 -0.351859,3.06036 -0.147137,1.57974 -0.604097,4.44366 -0.359666,2.25418 -1.333846,3.66838 -2.455664,4.32532 0.105138,0.36595 0.224724,0.72888 0.324528,1.09554 0.6273,2.23652 0.575201,4.47401 0.39429,6.75514 -0.137303,1.73129 -0.688065,2.99533 -1.427303,3.82199 -0.112477,0.41601 -0.170275,0.80219 -0.311092,1.25212 -0.184975,0.59102 -0.413327,1.1061 -0.670242,1.55856 0.741137,-0.23134 1.446982,-0.38145 2.064991,-0.37517 4.085002,0.0415 5.222724,4.75435 -0.02223,7.27138 -4.46677,2.14368 -9.303523,3.34693 -14.11903492,4.40955 -4.40876268,0.85156 -8.89238128,1.33053 -13.38264308,1.19269 -5.804014,-0.17807 -6.736297,-5.00293 -3.065447,-6.67298 -2.072987,-0.65744 -4.042852,-1.62261 -4.128947,-3.14709 -0.02802,-0.49633 0.0026,-0.90355 0.0341,-1.30897 -1.976731,-0.003 -3.95339,2.4e-4 -5.930386,0.003 -0.814031,0 -1.53062,-0.0962 -2.159559,-0.26149 -0.376306,0.19492 -0.742394,0.40783 -1.120862,0.59893 -6.391272,3.22657 -9.625245,-3.24074 -3.234428,-6.46886 1.833438,-0.92611 3.62694,-1.92211 5.414142,-2.92954 -0.877003,-3.87058 -1.368747,-7.83436 -1.323951,-11.80858 0.01651,-1.46304 0.376836,-2.54918 0.864547,-3.41426 -1.247357,-1.79999 -0.223805,-4.63069 3.842661,-5.68855 3.11826,-0.81116 6.282901,-1.39515 9.473837,-1.82211 -1.259816,-0.12657 -2.516182,-0.30233 -3.764627,-0.50177 -1.477002,-0.21985 -2.935575,-0.54305 -4.407482,-0.7891 -1.14214,-0.22954 -0.588502,-0.12004 -1.660882,-0.3297 -3.350244,-0.65501 -4.783278,-2.61088 -4.608504,-4.32997 -0.200179,-1.7721 1.333365,-3.52972 4.663799,-3.59461 v -5.3e-4 c 0.20954,-0.004 0.426035,-0.002 0.649571,0.008 1.77111,0.0772 3.528708,0.28204 5.26428,0.64027 1.655035,0.33225 3.314115,0.6481 4.955251,1.04439 1.244759,0.34858 2.51628,0.54538 3.7997689,0.6723 0.025956,0.002 0.052073,0.002 0.078034,0.004 0.4990888,-0.0371 0.9984105,-0.0743 1.4965495,-0.11317 1.346872,-0.12588 2.6913231,-0.25136 4.0457464,-0.24236 1.1278499,-0.0444 2.2567291,-0.10772 3.37498791,-0.26872 0.75719517,-0.11591 1.51142439,-0.25483 2.25722659,-0.4284 0.3616431,-0.12394 0.7240561,-0.24538 1.083138,-0.37775 0.3360393,-0.12388 0.6107589,-0.12825 0.9250071,-0.20723 0.1281086,-0.045 0.2583895,-0.0825 0.3855085,-0.13074 1.9825018,-0.7681 3.9540551,-1.56464 5.9510551,-2.29443 1.050809,-0.383992 1.999634,-0.542639 2.826703,-0.527616 z M 0.70283723,110.39557 c -0.45566013,0.0949 -0.90775367,0.208 -1.36890919,0.2744 -1.16638124,0.15534 -2.34111274,0.24237 -3.51761424,0.26251 0.4031694,0.0896 0.8047355,0.18876 1.2025101,0.308 0.1014836,0.0304 0.1982549,0.075 0.2986907,0.10852 0.4205235,-0.21824 0.9206601,-0.35072 1.4898318,-0.37156 0.39885139,-0.0146 0.83259872,0.0278 1.29449508,0.13023 0.22468681,-0.12213 0.44967525,-0.24374 0.67437529,-0.36587 -0.0326284,-0.11319 -0.058211,-0.22834 -0.0733795,-0.34623 z m 10.24433577,1.02474 c -0.76023,0.21437 -1.5189569,0.4343 -2.2696301,0.68006 -0.031261,0.62207 -0.2256075,1.28373 -0.6464723,1.94355 0.6236891,0.43248 1.2549743,1.04482 1.8634525,1.86862 0.2674939,0.36214 0.4748849,0.75712 0.7188199,1.13223 0.154519,-1.86707 0.314174,-3.74736 0.33383,-5.62446 z m 64.566086,3.39773 c 1.50346,0.0187 3.129182,1.24994 3.928441,4.04678 0.257931,0.90255 0.823497,1.65871 1.488797,2.30735 0.856321,0.95375 1.845738,1.76777 2.801898,2.61638 1.458581,1.46408 2.789203,3.04608 4.169772,4.58215 1.315059,1.44746 2.571226,2.91698 3.543967,4.61884 0.0053,0.01 0.0082,0.0206 0.01344,0.0305 0.734605,-0.43313 1.446276,-0.65634 2.094962,-0.69195 3.016182,-0.16561 4.69137,3.55377 1.187525,7.32306 -1.69471,1.82311 -3.657862,3.33908 -5.68751,4.7651 -0.777873,0.49914 -1.607691,0.90075 -2.418456,1.33842 0.165478,1.44344 -0.672182,3.24303 -2.956409,4.73096 -1.354556,0.88234 -2.690448,1.79306 -4.075203,2.6288 -2.075008,1.20078 -4.233777,2.27962 -6.540687,2.96259 -2.077586,0.62971 -4.169056,1.29987 -6.359301,1.36374 -1.872114,0.0897 -3.746989,0.0368 -5.620845,0.0501 h -5.1108 -5.524728 c -7.160125,0 -7.160125,-7.23315 0,-7.23315 h 1.347722 c 0.29438,-0.0541 0.5212,-0.1588 0.84801,-0.18656 1.106628,-0.094 2.200932,-0.28334 3.292822,-0.48421 0.456121,-0.98163 1.356053,-1.98213 2.807581,-2.83962 1.078018,-0.63685 2.158119,-1.26923 3.212209,-1.94561 1.962647,-1.29302 3.840588,-2.72135 5.893696,-3.86902 1.367169,-0.76424 2.559646,-1.07097 3.526915,-1.04128 2.216811,0.068 3.246223,1.90266 2.479953,4.04059 1.105688,-0.48686 2.206929,-0.98346 3.283003,-1.53739 2.619811,-1.23728 5.288743,-2.38548 7.764385,-3.9026 0.246153,-0.17184 0.487463,-0.34958 0.730705,-0.52503 -0.126915,-0.50614 -0.277693,-0.9939 -0.512114,-1.46554 -0.647621,-1.25778 -1.721077,-2.20654 -2.600875,-3.29644 -1.199229,-1.33472 -2.369312,-2.69496 -3.592029,-4.00803 -1.098706,-0.97599 -2.227236,-1.92181 -3.215306,-3.01428 -1.300821,-1.39063 -2.459913,-2.93896 -3.045293,-4.77801 -1.289469,-4.05101 0.646382,-6.61405 2.843754,-6.58667 z m -95.086705,4.28035 c -0.465643,0.10748 -0.930899,0.21773 -1.394745,0.33435 0.171958,0.64334 0.283575,1.36624 0.279569,2.2071 -0.01267,2.6582 0.205063,5.32647 0.670242,7.94732 0.280107,-0.17087 0.565767,-0.33222 0.845429,-0.50385 -0.01897,-0.36223 -0.02445,-0.73164 -0.05529,-1.08985 -0.118034,-2.96491 -0.160888,-5.93314 -0.3452,-8.89507 z m 18.5141159,1.1958 c 0.00497,0.0773 0.00619,0.15612 0.014975,0.23202 -0.1238779,0.22787 -0.2588048,0.44752 -0.3937741,0.66715 0.58900751,0.0447 1.13203305,0.21413 1.64331124,0.45888 -0.37615284,-0.49255 -0.78353709,-0.94642 -1.26452314,-1.35805 z m -6.5422357,14.57068 c -0.046649,0.0755 -0.09888,0.14702 -0.1436608,0.22376 -0.03147,0.054 0.1963367,0.0838 0.1860365,0.0222 -0.017595,-0.10481 -0.026035,-0.14905 -0.042376,-0.24597 z m 13.9236979,6.08439 c -0.2236258,0.5643 -0.5677508,1.09664 -1.1782213,1.50533 0.9079653,0.17659 1.7077452,0.44257 2.2830631,0.84852 0.1405493,-0.0459 0.272804,-0.11448 0.4128956,-0.16174 -0.7336976,-0.43656 -1.2984269,-1.18703 -1.5177374,-2.19211 z" /></clipPath><clipPath
       clipPathUnits="userSpaceOnUse"
       id="clipPath127"><path
         id="path128"
         style="fill:#ff0000;fill-opacity:1;fill-rule:nonzero;stroke:none;stroke-width:0.264583"
         d="M -112.24796,-126.55676 V 185.58027 H 148.5754 V -126.55676 Z M 46.874626,83.305366 c 1.808208,0 3.616317,1.790192 3.616317,5.370214 v 5.232238 c 0.0627,2.146078 -0.111291,4.285324 -0.245462,6.424932 -0.136289,2.02485 -0.190703,4.04985 -0.104904,6.07715 0.192061,1.91863 0.527714,3.82569 0.876432,5.72213 0.304242,2.00862 0.765826,3.9858 1.180806,5.97276 0.41642,1.86142 0.967934,3.68703 1.421104,5.53972 0.25287,0.86996 0.117097,0.46495 0.396356,1.22008 0.186108,0.50319 0.223428,0.93098 0.309544,1.38441 4.425355,2.23251 2.751262,7.58433 -3.415813,6.40477 -3.104732,-0.59371 -6.256094,-0.76586 -9.40821,-0.85576 -3.81635,0.009 -7.630525,0.17062 -11.44478,0.28216 -1.12776,0.0333 -2.255837,0.0512 -3.383772,0.0754 -0.908129,0.5548 -1.966518,0.57724 -2.88613,0.0641 -0.03584,5.3e-4 -0.07165,0.002 -0.107487,0.003 -0.03142,5.3e-4 -0.0525,-0.009 -0.08268,-0.009 -0.32049,0.14732 -0.641715,0.29301 -0.962215,0.44028 -0.262501,0.12062 -0.518089,0.22111 -0.770496,0.31265 -0.876996,0.71434 -1.945576,0.85817 -2.911967,0.46405 -2.943479,-0.21613 -4.295167,-2.77187 -2.550232,-5.0524 -2.22e-4,-0.028 -0.0078,-0.0483 -0.0078,-0.0765 v -6.3469 c -0.014,-2.72977 -0.02254,-5.45666 0.112657,-8.18348 0.135676,-2.32533 0.233519,-4.6523 0.299723,-6.98046 0.046,-1.80459 0.06926,-3.60958 0.08527,-5.41465 -0.0258,-1.02998 0.04009,-2.054459 0.138491,-3.078883 0.0044,-0.04602 0.02191,-0.07504 0.02687,-0.120406 C 15.992671,97.193438 15.83363,95.70984 16.656834,94.418959 10.68718,93.678613 10.992573,87.32947 17.739972,87.32947 h 3.885033 5.177462 5.913334 c 1.498505,0.05847 2.984222,-0.03228 4.475178,-0.161748 1.252041,-0.18606 2.49041,-0.398671 3.697968,-0.782897 1.001961,-0.32245 0.492366,-0.161472 1.527553,-0.482142 0.510384,-0.158096 0.938446,-0.174371 1.394749,-0.23771 0.672338,-1.56932 1.86623,-2.35903 3.063377,-2.35903 z" /></clipPath></defs><g
     id="layer1"
     transform="translate(-85.407872,297.49355)"><path
       style="fill:#000000"
       d="m 144.14537,-91.831803 c -3.94255,-0.769955 -7.51071,-4.062593 -12.15765,-11.218867 -1.36545,-2.1028 -1.38324,-2.11781 -2.71462,-2.29064 -1.48666,-0.193 -2.3,-0.69899 -3.49315,-2.17317 -1.09783,-1.35641 -1.29084,-3.9432 -0.43074,-5.77299 l 0.57203,-1.21692 -1.30235,-2.8721 c -1.52334,-3.35945 -3.36397,-8.07582 -3.60999,-9.25016 -0.13992,-0.66784 -0.36337,-0.87909 -1.19265,-1.12755 -1.54567,-0.46309 -3.56223,-2.43441 -4.5567,-4.45447 -0.76559,-1.55512 -0.85583,-1.9802 -0.85297,-4.01765 0.003,-2.4445 0.55422,-4.06203 2.0812,-6.11212 0.58189,-0.78122 0.62874,-0.96623 0.30471,-1.20317 -0.21061,-0.154 -2.56604,-1.03909 -5.23429,-1.96686 -10.32086,-3.58865 -19.144214,-7.17425 -23.105467,-9.38951 -1.890318,-1.05712 -3.044861,-2.26625 -3.044861,-3.18882 0,-0.72034 1.15434,-6.4528 3.569127,-17.72429 0.935285,-4.36562 1.996058,-9.48531 2.357274,-11.37708 4.314792,-22.59758 7.730382,-39.41267 9.028967,-44.45 1.51506,-5.87701 4.69755,-15.17554 6.88223,-20.10833 2.96338,-6.69101 5.49848,-11.96478 7.04127,-14.64799 3.06956,-5.33854 7.05475,-9.47904 14.24821,-14.80352 1.64614,-1.21844 7.30049,-4.47281 10.18646,-5.86283 15.73667,-7.57952 33.25947,-11.13165 50.90376,-10.31894 17.11683,0.78842 32.46057,5.30684 47.38895,13.95508 14.08841,8.16165 22.90489,17.7238 27.86616,30.22299 1.44665,3.64464 1.53978,4.03059 3.73498,15.47813 3.26734,17.03851 5.2786,30.35724 8.48655,56.19859 1.08238,8.71908 3.00541,22.94213 3.44249,25.46127 0.26697,1.5387 0.32173,2.50775 0.15878,2.81001 -0.61644,1.14352 -0.88107,1.29588 -17.23063,9.92061 -1.38245,0.72927 -3.22792,1.7117 -4.10104,2.18318 -0.87313,0.47147 -3.37344,1.77877 -5.55625,2.90511 -2.18282,1.12633 -4.05156,2.12391 -4.15276,2.21684 -0.10121,0.0929 -0.4521,2.95439 -0.77977,6.35881 -0.84977,8.82897 -0.58053,8.57053 -8.69351,8.34477 -6.96915,-0.19393 -21.68092,-0.8686 -25.26745,-1.15874 -1.60059,-0.12948 -2.9656,-0.17998 -3.03335,-0.11223 -0.0678,0.0678 -0.008,0.28811 0.13203,0.48966 1.64794,2.36623 4.60618,6.92836 5.96334,9.19652 0.93512,1.56282 1.84319,2.84274 2.01792,2.84427 0.17474,0.002 0.93275,0.13468 1.68447,0.2959 3.38693,0.72636 4.9638,4.23356 2.96921,6.60398 -1.80562,2.14586 -6.91322,3.240586 -10.35318,2.21903 -0.75724,-0.22487 -1.48799,-0.34015 -1.62388,-0.25616 -0.13589,0.084 -0.66903,-0.0236 -1.18476,-0.2391 -0.51573,-0.21548 -0.93769,-0.31701 -0.93769,-0.22562 0,0.0914 0.2641,0.98615 0.58688,1.988346 0.53297,1.65483 0.55086,1.887411 0.19472,2.532314 -0.88669,1.605641 -3.46233,2.081657 -12.95243,2.393794 -7.48934,0.246331 -22.45548,-0.07248 -28.70729,-0.611532 -2.61937,-0.22585 -6.6675,-0.719318 -8.99583,-1.096594 l -4.23334,-0.685957 -1.73077,1.678124 c -3.30131,3.200896 -6.74243,4.384541 -10.57235,3.636582 z m 3.9026,-3.315847 c 0.83449,-0.223634 0.75526,-0.480967 -0.54996,-1.786184 -0.6299,-0.6299 -1.43096,-1.5495 -1.78014,-2.04356 -0.34918,-0.49406 -0.87561,-1.101066 -1.16983,-1.348916 -0.52378,-0.44122 -0.51837,-0.44813 0.25879,-0.33075 0.76953,0.11622 0.77533,0.10937 0.19014,-0.22458 -0.33199,-0.18945 -0.52024,-0.42782 -0.41835,-0.52972 0.32738,-0.32737 1.18427,0.65155 0.88547,1.01158 -0.18677,0.22504 -0.1319,0.431446 0.18276,0.687436 0.39496,0.32132 0.42857,0.30949 0.27615,-0.0972 -0.0954,-0.254656 -0.0709,-0.463016 0.0545,-0.463016 0.38112,0 0.52711,0.709976 0.211,1.026086 -0.21774,0.21774 -0.21811,0.29683 -0.001,0.29683 0.1625,0 0.33761,-0.12649 0.38915,-0.28109 0.133,-0.399 1.50637,0.15566 1.71196,0.6914 0.0883,0.23004 0.58151,0.887236 1.09608,1.460433 0.91246,1.016422 0.95246,1.031814 1.61865,0.622811 0.91464,-0.561532 3.72579,-3.56604 3.72579,-3.98206 0,-0.18176 -0.65334,-0.90347 -1.45187,-1.60379 -0.79853,-0.70033 -1.45337,-1.39284 -1.45521,-1.53891 -0.002,-0.14606 -0.62956,-0.92251 -1.39494,-1.72543 -0.8751,-0.91802 -1.3569,-1.64004 -1.2981,-1.94533 0.0514,-0.26702 -0.0438,-0.62167 -0.21158,-0.78811 -0.22974,-0.2279 -0.26154,-0.1883 -0.12879,0.16039 0.25563,0.67147 -0.27819,0.57029 -1.04692,-0.19844 -0.78667,-0.78667 -0.87839,-0.79811 -1.59072,-0.19843 -0.5418,0.45611 -0.54309,0.45482 -0.087,-0.087 0.25467,-0.3025 0.45969,-0.65969 0.45562,-0.79375 -0.004,-0.13407 -0.84117,-1.13672 -1.86021,-2.22813 -1.01904,-1.0914 -2.09977,-2.25226 -2.40161,-2.57969 -0.30185,-0.32742 -0.76452,-0.59531 -1.02816,-0.59531 -0.26364,0 -0.54071,-0.14883 -0.61571,-0.33073 -0.14322,-0.34737 -0.99455,0.46266 -1.75982,1.67446 -0.21828,0.34565 -0.78383,0.99683 -1.25677,1.44708 -1.1113,1.05798 -1.08414,1.66684 0.13229,2.96573 2.34833,2.50752 3.08489,3.38558 3.02194,3.60248 -0.0369,0.127 0.11645,0.1605 0.34068,0.0744 0.22423,-0.086 0.40769,-0.0539 0.40769,0.0715 0,0.48985 0.76381,0.4841 1.2939,-0.01 0.65349,-0.60882 0.75383,-0.36039 0.13197,0.32676 -0.39383,0.43517 -0.3832,0.52566 0.13988,1.19064 0.31135,0.39582 0.46841,0.81736 0.34903,0.93675 -0.23921,0.2392 -1.91478,-0.3051 -1.91478,-0.62202 0,-0.10905 -0.19812,-0.12224 -0.44028,-0.0293 -0.30997,0.11895 -0.37947,0.0706 -0.23484,-0.16346 0.12877,-0.20834 -0.113,-0.66096 -0.64779,-1.21272 -0.52781,-0.54456 -0.77585,-1.00555 -0.65033,-1.20865 0.13254,-0.21444 0.0943,-0.2612 -0.1102,-0.1348 -0.19371,0.11972 -0.92795,-0.47011 -1.92527,-1.54662 -0.88667,-0.95708 -1.76619,-1.74014 -1.95448,-1.74014 -0.43481,0 -1.97431,1.92591 -1.97431,2.46985 0,0.22514 0.1077,0.4759 0.23933,0.55725 0.13164,0.0814 0.62434,0.83252 1.09491,1.66926 1.45867,2.59377 2.6908,4.0501 3.33796,3.94536 0.41998,-0.068 0.53064,0.0132 0.41806,0.30653 -0.0937,0.24407 -0.0425,0.330616 0.13177,0.22291 0.18268,-0.1129 0.23347,0.0205 0.14157,0.371926 -0.109,0.41681 0.22944,0.91006 1.41374,2.060451 1.22232,1.187324 1.92674,1.633787 3.27683,2.076873 1.7415,0.571541 3.34692,0.731049 4.43177,0.44032 z m -4.70138,-6.32158 c -0.2796,-0.33691 -0.26324,-0.37562 0.0999,-0.23628 0.23887,0.0917 0.4343,0.27298 0.4343,0.40294 0,0.34024 -0.15316,0.29246 -0.53419,-0.16666 z m 0.5342,-0.52311 c -0.18985,-0.22876 -0.21557,-0.39688 -0.0607,-0.39688 0.14777,0 0.3372,0.1786 0.42096,0.39688 0.0838,0.21828 0.11108,0.39687 0.0607,0.39687 -0.0504,0 -0.23981,-0.17859 -0.42096,-0.39687 z m 0.10715,-4.32713 c 0.27721,-0.31221 0.61166,-0.56766 0.74322,-0.56766 0.37246,0 -0.0235,0.49351 -0.66667,0.83082 -0.57655,0.3024 -0.57708,0.30057 -0.0765,-0.26316 z m 1.21576,-1.22912 c 0,-0.0728 0.0595,-0.13229 0.13229,-0.13229 0.0728,0 0.1323,0.0595 0.1323,0.13229 0,0.0728 -0.0595,0.13229 -0.1323,0.13229 -0.0728,0 -0.13229,-0.0595 -0.13229,-0.13229 z m 56.97792,9.119166 c 4.85617,-0.29273 5.72833,-0.40652 5.72833,-0.74734 0,-0.11938 -0.64611,-1.218436 -1.4358,-2.442356 -5.704,-8.84043 -8.35378,-14.00924 -8.35378,-16.29535 0,-0.99204 0.15299,-1.05992 1.02006,-0.4526 0.5213,0.36513 2.94869,3.8293 2.94869,4.20813 0,0.0721 1.20519,2.05803 2.6782,4.41315 2.71945,4.34799 4.44293,6.82741 4.74583,6.82741 0.092,0 0.15592,-0.5112 0.14196,-1.136 -0.0301,-1.34907 0.62609,-2.48917 1.56891,-2.7258 0.88187,-0.22134 1.52884,0.30675 1.17829,0.96177 -0.58303,1.0894 -0.32639,1.5366 1.13004,1.96916 2.34384,0.69612 3.87256,0.76452 5.88775,0.26345 2.55135,-0.63439 3.30652,-1.20583 3.30652,-2.50208 0,-1.28938 -0.85659,-2.06218 -3.20868,-2.89485 -0.92736,-0.32829 -1.9528,-0.70236 -2.27874,-0.83125 -0.32595,-0.1289 -1.12414,-1.06357 -1.77376,-2.07705 -4.71893,-7.362 -7.21365,-10.82962 -9.89565,-13.75475 -1.21433,-1.32441 -2.29191,-2.40802 -2.39463,-2.40802 -0.10271,0 -0.85293,0.80977 -1.66714,1.79949 -1.6365,1.98926 -4.24809,4.20834 -6.7253,5.71453 -3.34137,2.0316 -10.90813,4.12943 -14.88445,4.12658 -2.02416,-10e-4 -6.15196,-0.68538 -8.19361,-1.3576 -0.92244,-0.30372 -1.77117,-0.44968 -1.88606,-0.32438 -0.11489,0.12531 -0.93304,1.60993 -1.8181,3.29915 -2.03875,3.89113 -4.61488,8.11576 -6.95025,11.39784 -1.003,1.40959 -1.82363,2.66927 -1.82363,2.79928 0,0.52262 8.49934,1.745126 14.94896,2.150206 5.10739,0.32077 22.80248,0.33296 28.00604,0.0193 z m -57.2425,-1.975416 c 0,-0.0728 -0.0595,-0.13229 -0.13229,-0.13229 -0.0728,0 -0.13229,0.0595 -0.13229,0.13229 0,0.0728 0.0595,0.13229 0.13229,0.13229 0.0728,0 0.13229,-0.0595 0.13229,-0.13229 z m 13.05774,-4.07899 c 1.11293,-1.5886 2.02351,-3.05843 2.02351,-3.26628 0,-0.63057 -0.95997,-1.32057 -1.56854,-1.12741 -0.32076,0.1018 -0.54813,0.0568 -0.54813,-0.10845 0,-0.15533 0.11906,-0.28241 0.26459,-0.28241 0.50574,0 0.25845,-0.51277 -0.79196,-1.64215 -0.5811,-0.62479 -1.0021,-1.28338 -0.93557,-1.46353 0.0665,-0.18016 0.036,-0.31489 -0.0679,-0.2994 -0.52244,0.0779 -0.61593,-0.0765 -0.28745,-0.4747 0.32833,-0.39802 0.30763,-0.41062 -0.21613,-0.13157 -0.38965,0.20759 -0.63426,0.21963 -0.74727,0.0368 -0.0924,-0.14952 -0.0252,-0.23914 0.1493,-0.19915 0.17453,0.04 0.37192,-0.0762 0.43865,-0.25821 0.0777,-0.21204 -0.0292,-0.27315 -0.29765,-0.17013 -0.23463,0.09 -0.41899,0.025 -0.41899,-0.14773 0,-0.16968 -0.11525,-0.23727 -0.25612,-0.15021 -0.32542,0.20112 -1.86054,-1.24811 -1.86054,-1.75644 0,-0.2098 0.14883,-0.55094 0.33073,-0.75808 0.1819,-0.20715 0.0455,-0.14166 -0.30309,0.14552 l -0.63381,0.52214 0.31239,-0.59531 c 0.37268,-0.71019 0.39665,-0.71347 1.22913,-0.16801 0.35868,0.23502 0.65486,0.32432 0.65817,0.19844 0.003,-0.12588 0.18621,0.13626 0.40643,0.58253 0.58003,1.17538 4.24807,4.87715 4.83271,4.87715 0.14095,0 0.63313,-0.42923 1.09374,-0.95383 0.88062,-1.00297 1.45664,-1.10188 0.62536,-0.10738 -0.26509,0.31713 -0.68189,0.81319 -0.92625,1.10236 -0.41322,0.48901 -0.41373,0.56142 -0.007,1.03605 0.24031,0.28066 0.52108,0.5103 0.62392,0.5103 0.24613,0 2.4889,-3.61387 2.87105,-4.62624 l 0.29813,-0.78978 -0.73711,0.65748 c -0.4054,0.36162 -0.88556,0.83609 -1.06701,1.05437 -0.18144,0.21828 -0.33369,0.2665 -0.33832,0.10715 -0.005,-0.15935 0.24283,-0.51653 0.5499,-0.79375 0.30708,-0.27721 0.92005,-0.96018 1.36217,-1.5177 l 0.80384,-1.01367 -2.34776,-2.35869 c -1.82216,-1.83064 -2.46771,-2.32544 -2.88352,-2.21014 -0.38709,0.10733 -0.43612,0.0795 -0.17671,-0.10034 0.52495,-0.36388 0.18637,-1.12085 -1.03449,-2.31288 -1.05269,-1.02783 -1.10522,-1.04585 -3.24,-1.11141 -4.17039,-0.12806 -4.11809,-0.11631 -4.54758,-1.02139 -0.21491,-0.4529 -0.56614,-0.96902 -0.78052,-1.14693 -0.21438,-0.17792 -0.69784,-0.84916 -1.07437,-1.49166 -0.7366,-1.25691 -0.73479,-1.25627 -3.30812,-1.17418 -2.22853,0.0711 -3.33102,0.96006 -2.27627,1.83542 0.20325,0.16869 0.30843,0.54046 0.23372,0.82615 -0.0781,0.29867 -0.004,0.51944 0.17522,0.51944 0.17108,0 0.23013,0.13094 0.13122,0.29098 -0.12168,0.19688 0.008,0.19041 0.40129,-0.02 0.54504,-0.2917 0.56181,-0.27492 0.27012,0.27011 -0.17106,0.31962 -0.19748,0.51096 -0.0587,0.4252 0.13876,-0.0858 0.38621,0.138 0.54989,0.49724 0.16368,0.35924 0.42624,0.65316 0.58347,0.65316 0.15723,0 0.21228,0.11907 0.12235,0.26459 -0.0899,0.14552 -0.0612,0.26458 0.0638,0.26458 0.125,0 0.37015,-0.11906 0.54478,-0.26458 0.23091,-0.19243 0.24534,-0.178 0.0529,0.0529 -0.45126,0.54151 -0.29175,0.76137 0.29915,0.41235 0.45036,-0.26601 0.58782,-0.26646 0.68351,-0.002 0.0659,0.1819 0.2493,0.33073 0.40762,0.33073 0.34101,0 1.25555,0.78698 1.25555,1.08044 0,0.11257 -0.18744,0.39212 -0.41653,0.62121 -0.37899,0.37899 -0.37899,0.43094 0,0.57637 0.22909,0.0879 0.41653,0.27986 0.41653,0.42655 0,0.14668 -0.30102,0.0695 -0.66893,-0.1716 -0.36791,-0.24106 -0.77353,-0.37366 -0.90137,-0.29465 -0.12784,0.079 -0.17012,-0.0946 -0.094,-0.38588 0.0805,-0.3079 0.008,-0.52953 -0.17258,-0.52953 -0.17108,0 -0.24973,0.0992 -0.17479,0.22049 0.075,0.12127 -0.0168,0.22048 -0.20385,0.22048 -0.20149,0 -0.29779,-0.22466 -0.23626,-0.55121 0.14977,-0.79494 -4.6866,-5.64404 -5.08534,-5.09873 -0.14987,0.20497 -1.10495,1.00621 -2.12239,1.78054 -1.01745,0.77433 -1.92396,1.51744 -2.01446,1.65135 -0.0905,0.13391 -0.33243,0.004 -0.5376,-0.2891 -0.32482,-0.46375 -1.74419,-0.75664 -2.92795,-0.60419 -0.10478,0.0135 0.42065,0.61985 1.16763,1.34746 0.74699,0.7276 1.24944,1.32653 1.11657,1.33096 -0.13288,0.004 -0.0332,0.1294 0.22143,0.27773 0.25466,0.14833 0.4612,0.4126 0.45897,0.58727 -0.003,0.19918 -0.0765,0.21893 -0.19844,0.053 -0.25884,-0.35231 -0.85584,-0.45997 -0.85584,-0.15434 0,0.1334 0.14882,0.30259 0.33072,0.37599 0.20781,0.0838 0.21986,0.14122 0.0324,0.15434 -0.16408,0.0115 -0.44655,-0.1577 -0.6277,-0.37599 -0.18116,-0.21828 -0.48966,-0.39687 -0.68556,-0.39687 -0.2279,0 -0.29465,-0.16675 -0.18535,-0.46302 0.16646,-0.45119 -0.85679,0.53597 -2.15582,2.07977 -0.35473,0.42158 -0.70183,0.67451 -0.77132,0.56206 -0.0695,-0.11245 0.45279,-0.78713 1.16064,-1.49929 1.55177,-1.56124 1.5386,-1.60811 -1.1738,-4.178 -1.98127,-1.87716 -2.74145,-2.3215 -3.06792,-1.79325 -0.1484,0.24012 -0.24614,0.24402 -0.3874,0.0155 -0.1059,-0.17134 -0.32939,-0.21282 -0.50856,-0.0944 -0.17581,0.11621 -0.10567,0.0136 0.15585,-0.228 0.63148,-0.58341 0.60635,-0.74687 -0.27771,-1.80583 l -0.75319,-0.9022 -1.34347,0.9862 -1.34348,0.98619 0.53669,1.58921 c 0.44443,1.31602 0.60127,1.5356 0.91243,1.27736 0.20667,-0.17151 0.45334,-0.23426 0.54817,-0.13943 0.0948,0.0948 0.4753,-0.0966 0.84549,-0.42532 0.55026,-0.48865 0.60212,-0.50172 0.28422,-0.0716 -0.21388,0.28936 -0.65676,0.82392 -0.98419,1.18792 -0.32742,0.36399 -0.59531,0.74698 -0.59531,0.85108 0,0.32174 2.0842,4.94457 2.54925,5.65433 0.24242,0.36998 0.59983,0.60912 0.79718,0.53339 0.19966,-0.0766 0.35774,0.033 0.35774,0.24798 0,0.21189 0.50601,0.69569 1.12448,1.07512 0.61846,0.37943 2.04075,1.6586 3.16064,2.84261 l 2.03617,2.15273 2.26331,-2.27352 c 1.24482,-1.25043 2.26332,-2.43379 2.26332,-2.62969 0,-0.1959 -0.44649,-0.8318 -0.99219,-1.41313 -0.54571,-0.58132 -0.76447,-0.884 -0.48614,-0.67261 0.3916,0.29742 0.53134,0.30917 0.61791,0.052 0.0615,-0.18281 0.23347,-0.25722 0.38209,-0.16537 0.17487,0.10808 0.15588,0.2377 -0.0538,0.3673 -0.23855,0.14743 -0.17874,0.3456 0.22669,0.75103 0.35392,0.35392 0.61359,0.44906 0.72658,0.26623 0.0967,-0.15649 0.0118,-0.38844 -0.18878,-0.51547 -0.23973,-0.15184 -0.25669,-0.23234 -0.0495,-0.235 0.17331,-0.002 0.39169,0.11985 0.48528,0.27129 0.0936,0.15144 0.42712,0.1938 0.74115,0.0941 0.50016,-0.15874 0.52738,-0.1287 0.21954,0.24223 -0.3764,0.45354 -0.21164,0.97839 0.30505,0.97175 0.21085,-0.003 0.19634,-0.0793 -0.0439,-0.23151 -0.22301,-0.14131 -0.25782,-0.28998 -0.0919,-0.39251 0.14688,-0.0908 0.41974,0.22176 0.60634,0.69453 0.18661,0.47277 0.39225,0.96545 0.45698,1.09485 0.0647,0.12939 -0.0168,0.15213 -0.18122,0.0505 -0.79608,-0.49201 -0.14833,0.54987 1.0653,1.71349 1.39105,1.33373 2.4102,1.84786 1.28162,0.64654 -0.34177,-0.3638 -0.5634,-0.66145 -0.4925,-0.66145 0.0709,0 0.47861,0.3756 0.90602,0.83467 0.42741,0.45907 0.6365,0.75478 0.46466,0.65714 -0.17185,-0.0976 -0.39358,-0.0463 -0.49275,0.1142 -0.11895,0.19247 0.0695,0.26146 0.55395,0.20275 0.45499,-0.0551 0.78123,0.0508 0.8578,0.27858 0.0824,0.24516 0.0104,0.29763 -0.21624,0.15756 -0.20683,-0.12783 -0.2745,-0.10436 -0.17293,0.06 0.0918,0.14849 0.46736,0.21254 0.83463,0.14233 0.43094,-0.0824 0.66778,-0.008 0.66778,0.20895 0,0.18513 0.29765,0.72684 0.66145,1.20381 0.36381,0.47697 0.66146,1.04834 0.66146,1.26972 0,0.22138 0.32743,0.73083 0.72761,1.13211 0.40018,0.40129 0.69112,0.84357 0.64653,0.98286 -0.0446,0.13928 0.10696,0.0972 0.33678,-0.0935 0.35935,-0.29824 0.39206,-0.27955 0.23358,0.13344 -0.14535,0.37878 -0.0878,0.44321 0.27239,0.30499 0.25275,-0.097 0.74065,0.0108 1.09263,0.24145 0.34978,0.22919 0.78049,0.32737 0.95714,0.2182 0.22282,-0.13771 0.26821,-0.0604 0.14819,0.25231 -0.11881,0.30962 0.16769,0.82041 0.91478,1.6309 0.59827,0.64905 1.11453,1.18009 1.14723,1.18009 0.0327,0 0.97004,-1.29976 2.08297,-2.88836 z m -1.54837,-2.93247 c 0.0899,-0.14552 0.22306,-0.26458 0.29582,-0.26458 0.0728,0 0.0587,0.11906 -0.0312,0.26458 -0.0899,0.14552 -0.22306,0.26458 -0.29582,0.26458 -0.0728,0 -0.0587,-0.11906 0.0312,-0.26458 z m -12.44629,-5.57385 c -0.0959,-0.1552 -0.11766,-0.33893 -0.0483,-0.40829 0.0694,-0.0694 0.1966,0.0576 0.28277,0.28219 0.17891,0.46622 0.0264,0.54823 -0.23447,0.1261 z m -14.27662,-3.42198 c -0.0899,-0.14552 0.0291,-0.26458 0.26458,-0.26458 0.23546,0 0.35452,0.11906 0.26459,0.26458 -0.0899,0.14552 -0.209,0.26458 -0.26459,0.26458 -0.0556,0 -0.17464,-0.11906 -0.26458,-0.26458 z m 21.82812,-0.79375 c 0,-0.19403 0.0794,-0.2734 0.17639,-0.17639 0.097,0.097 0.097,0.25576 0,0.35278 -0.097,0.097 -0.17639,0.0176 -0.17639,-0.17639 z m 0.60041,-0.24458 c 0.0429,-0.56961 0.31988,-0.72201 0.57169,-0.31457 0.0798,0.12904 -0.0256,0.37616 -0.23403,0.54917 -0.3093,0.2567 -0.37142,0.21354 -0.33766,-0.2346 z m -22.03166,-0.1523 c 0,-0.0728 0.0595,-0.13229 0.1323,-0.13229 0.0728,0 0.13229,0.0595 0.13229,0.13229 0,0.0728 -0.0595,0.1323 -0.13229,0.1323 -0.0728,0 -0.1323,-0.0595 -0.1323,-0.1323 z m 20.10834,-1.03799 c -0.50933,-0.59327 -0.73278,-0.92779 -0.49656,-0.74338 0.23622,0.18441 0.65294,0.26248 0.92604,0.17348 0.39684,-0.12932 0.41897,-0.10691 0.1102,0.11157 -0.3325,0.23529 -0.31736,0.34962 0.10862,0.82033 0.27224,0.30082 0.4461,0.58513 0.38636,0.63181 -0.0597,0.0467 -0.52534,-0.40054 -1.03466,-0.99381 z m -19.84375,0.54122 c 0,-0.0549 0.18132,-0.25037 0.40293,-0.43429 0.33691,-0.27961 0.37562,-0.26324 0.23627,0.0999 -0.14231,0.37088 -0.6392,0.63083 -0.6392,0.3344 z m 12.7,-0.0324 c 0,-0.0728 0.0595,-0.13229 0.13229,-0.13229 0.0728,0 0.13229,0.0595 0.13229,0.13229 0,0.0728 -0.0595,0.13229 -0.13229,0.13229 -0.0728,0 -0.13229,-0.0595 -0.13229,-0.13229 z m 8.59895,-0.13229 c 0.0899,-0.14553 0.22306,-0.26459 0.29582,-0.26459 0.0728,0 0.0587,0.11906 -0.0312,0.26459 -0.0899,0.14552 -0.22305,0.26458 -0.29582,0.26458 -0.0728,0 -0.0587,-0.11906 0.0312,-0.26458 z m -14.02104,-0.26156 c -0.0927,-0.14998 0.0135,-0.19434 0.24897,-0.10398 0.45837,0.17589 0.54223,0.36554 0.16165,0.36554 -0.13693,0 -0.32171,-0.1177 -0.41062,-0.26156 z m 1.03132,-0.33376 -0.50402,-0.59531 0.59531,0.50403 c 0.55944,0.47366 0.71576,0.6866 0.50403,0.6866 -0.0502,0 -0.3181,-0.2679 -0.59532,-0.59532 z m 4.91993,0.19844 c 0,-0.0728 0.0595,-0.13229 0.13229,-0.13229 0.0728,0 0.1323,0.0595 0.1323,0.13229 0,0.0728 -0.0595,0.13229 -0.1323,0.13229 -0.0728,0 -0.13229,-0.0595 -0.13229,-0.13229 z m 7.54063,-0.13229 c 0.0899,-0.14552 0.22305,-0.26458 0.29581,-0.26458 0.0728,0 0.0587,0.11906 -0.0312,0.26458 -0.0899,0.14552 -0.22305,0.26458 -0.29581,0.26458 -0.0728,0 -0.0587,-0.11906 0.0312,-0.26458 z m -14.29838,-0.54677 c -0.0959,-0.1552 -0.11766,-0.33893 -0.0483,-0.40829 0.0694,-0.0694 0.1966,0.0576 0.28277,0.28219 0.17891,0.46622 0.0264,0.54823 -0.23447,0.1261 z m 7.28692,0.18229 c 0,-0.0549 0.16799,-0.23932 0.37332,-0.40972 0.28586,-0.23725 0.41941,-0.23526 0.57005,0.008 0.12472,0.2018 0.0849,0.24921 -0.10874,0.12953 -0.168,-0.10384 -0.30546,-0.0627 -0.30546,0.0914 0,0.15411 -0.11907,0.2802 -0.26459,0.2802 -0.14552,0 -0.26458,-0.045 -0.26458,-0.0999 z m -7.9375,-0.82615 c 0,-0.0728 0.0595,-0.13229 0.13229,-0.13229 0.0728,0 0.13229,0.0595 0.13229,0.13229 0,0.0728 -0.0595,0.1323 -0.13229,0.1323 -0.0728,0 -0.13229,-0.0595 -0.13229,-0.1323 z m 12.96458,0 c 0,-0.0728 0.0595,-0.13229 0.13229,-0.13229 0.0728,0 0.1323,0.0595 0.1323,0.13229 0,0.0728 -0.0595,0.1323 -0.1323,0.1323 -0.0728,0 -0.13229,-0.0595 -0.13229,-0.1323 z m -0.34392,-1.36549 c 0.0741,-0.19319 0.24137,-0.28538 0.37165,-0.20487 0.36233,0.22393 0.28181,0.55613 -0.13479,0.55613 -0.20441,0 -0.311,-0.15807 -0.23686,-0.35126 z m -12.48837,-1.41263 c 0.0899,-0.14552 0.22305,-0.26458 0.29582,-0.26458 0.0728,0 0.0587,0.11906 -0.0312,0.26458 -0.0899,0.14552 -0.22306,0.26458 -0.29582,0.26458 -0.0728,0 -0.0587,-0.11906 0.0312,-0.26458 z m -0.92604,-0.23219 c 0,-0.1277 0.16923,-0.37263 0.37606,-0.54429 0.30857,-0.25609 0.35051,-0.21442 0.23372,0.23219 -0.13906,0.5318 -0.60978,0.77272 -0.60978,0.3121 z m 13.75833,0.0999 c 0,-0.0728 0.0595,-0.13229 0.13229,-0.13229 0.0728,0 0.1323,0.0595 0.1323,0.13229 0,0.0728 -0.0595,0.13229 -0.1323,0.13229 -0.0728,0 -0.13229,-0.0595 -0.13229,-0.13229 z m -4.1263,-2.28984 c -0.11697,-0.18926 -0.0726,-0.23364 0.11667,-0.11668 0.305,0.1885 0.40949,0.42214 0.18879,0.42214 -0.0642,0 -0.20163,-0.13746 -0.30546,-0.30546 z m -18.89245,-0.0914 c 0,-0.0728 0.0595,-0.13229 0.1323,-0.13229 0.0728,0 0.13229,0.0595 0.13229,0.13229 0,0.0728 -0.0595,0.13229 -0.13229,0.13229 -0.0728,0 -0.1323,-0.0595 -0.1323,-0.13229 z m 17.5507,-1.36702 c 0.097,-0.097 0.25576,-0.097 0.35278,0 0.097,0.097 0.0176,0.17639 -0.17639,0.17639 -0.19403,0 -0.27341,-0.0794 -0.17639,-0.17639 z m -0.67308,23.6187 c -0.18764,-0.2036 -0.38285,-0.33059 -0.4338,-0.28218 -0.15694,0.14908 0.24081,0.65237 0.51556,0.65237 0.14267,0 0.10588,-0.16658 -0.0818,-0.37019 z m -1.79637,-1.61418 c 0,-0.0728 -0.0595,-0.1323 -0.13229,-0.1323 -0.0728,0 -0.13229,0.0595 -0.13229,0.1323 0,0.0728 0.0595,0.13229 0.13229,0.13229 0.0728,0 0.13229,-0.0595 0.13229,-0.13229 z m -0.79375,-0.52917 c 0,-0.0728 -0.0595,-0.13229 -0.13229,-0.13229 -0.0728,0 -0.13229,0.0595 -0.13229,0.13229 0,0.0728 0.0595,0.13229 0.13229,0.13229 0.0728,0 0.13229,-0.0595 0.13229,-0.13229 z m -1.75582,-2.11515 c -0.0834,-0.21744 -0.26024,-0.32828 -0.39288,-0.2463 -0.27744,0.17147 -0.0547,0.64166 0.30393,0.64166 0.13237,0 0.1724,-0.17791 0.089,-0.39536 z m -0.62543,-0.48456 c 0,-0.0474 -0.32382,-0.37482 -0.71959,-0.72761 -0.5314,-0.47367 -0.6179,-0.50303 -0.33073,-0.11226 0.47515,0.64659 1.05032,1.10651 1.05032,0.83987 z m -7.69181,-0.43289 c 0.71493,-0.38261 1.16542,-1.70603 0.95768,-2.81339 -0.37394,-1.99323 -2.50449,-2.97178 -3.42189,-1.57165 -1.3844,2.11285 0.4871,5.44316 2.46421,4.38504 z m 3.99458,-1.34598 c 0.3496,-0.65323 -0.14325,-2.45527 -0.62729,-2.2936 -0.29361,0.0981 -0.29778,1.37496 -0.008,2.3727 0.17341,0.59655 0.28059,0.5832 0.63504,-0.0791 z m 0.64323,0.29582 c 0.0837,-0.13546 0.0437,-0.31337 -0.089,-0.39535 -0.13265,-0.082 -0.30945,0.0288 -0.39289,0.2463 -0.16449,0.42865 0.23303,0.55163 0.48184,0.14905 z m 11.16789,-1.253 c -0.097,-0.097 -0.17639,-0.0176 -0.17639,0.17639 0,0.19402 0.0794,0.2734 0.17639,0.17638 0.097,-0.097 0.097,-0.25576 0,-0.35277 z m -12.6118,-1.80799 c 0,-0.0728 -0.0595,-0.13229 -0.13229,-0.13229 -0.0728,0 -0.1323,0.0595 -0.1323,0.13229 0,0.0728 0.0595,0.13229 0.1323,0.13229 0.0728,0 0.13229,-0.0595 0.13229,-0.13229 z m 21.96041,-2.11667 c 0,-0.0728 -0.0595,-0.13229 -0.13229,-0.13229 -0.0728,0 -0.13229,0.0595 -0.13229,0.13229 0,0.0728 0.0595,0.1323 0.13229,0.1323 0.0728,0 0.13229,-0.0595 0.13229,-0.1323 z m -13.22916,-0.26458 c 0,-0.0728 -0.0595,-0.13229 -0.1323,-0.13229 -0.0728,0 -0.13229,0.0595 -0.13229,0.13229 0,0.0728 0.0595,0.13229 0.13229,0.13229 0.0728,0 0.1323,-0.0595 0.1323,-0.13229 z m -0.61736,-0.57326 c -0.097,-0.097 -0.25577,-0.097 -0.35278,0 -0.097,0.097 -0.0176,0.17639 0.17639,0.17639 0.19402,0 0.2734,-0.0794 0.17639,-0.17639 z m 25.27233,-4.12772 c 0.53613,-0.90696 1.52022,-2.77522 2.18687,-4.15169 l 1.2121,-2.50267 -1.12854,-0.33758 c -1.86794,-0.55877 -2.14233,-0.46069 -4.26995,1.52627 -1.21812,1.13759 -2.12688,1.79619 -2.31664,1.67891 -0.19181,-0.11854 -0.24199,-0.0793 -0.13011,0.10172 0.10018,0.16209 0.039,0.52395 -0.13601,0.80415 -0.28018,0.44863 -0.10036,0.74991 1.5067,2.5243 1.00367,1.10817 1.88695,2.01278 1.96283,2.01024 0.0759,-0.003 0.57663,-0.74668 1.11275,-1.65365 z m 17.29913,-0.4487 c 1.42029,-0.28571 2.67668,-0.61381 2.79198,-0.72911 0.30514,-0.30515 -0.30076,-2.45558 -0.69188,-2.45558 -0.18228,0 -0.85241,0.19308 -1.48917,0.42907 -0.75697,0.28054 -2.16523,0.44894 -4.06816,0.48648 l -2.91042,0.0574 -0.29497,1.16717 c -0.16223,0.64194 -0.2445,1.25646 -0.18282,1.3656 0.21691,0.38381 4.29151,0.19272 6.84544,-0.32103 z m -9.01115,-1.61413 c 0.10135,-0.73692 0.14229,-1.37026 0.091,-1.40741 -0.5626,-0.40731 -2.17845,-1.22137 -2.42353,-1.22096 -0.2617,4.3e-4 -1.62726,2.90741 -1.43511,3.05503 0.25131,0.19308 2.55575,0.87557 3.0129,0.8923 0.48902,0.0179 0.59681,-0.17046 0.75477,-1.31896 z m 16.93474,-0.95372 c 1.94083,-0.94685 4.19904,-2.61068 4.04297,-2.97883 -0.0429,-0.10112 -0.58435,-0.63727 -1.20327,-1.19143 l -1.1253,-1.00757 -1.38824,1.04765 c -0.76353,0.57621 -1.83472,1.31448 -2.38042,1.64061 -0.5457,0.32613 -0.99219,0.7778 -0.99219,1.00371 0,0.69258 0.59949,2.45652 0.83488,2.45652 0.12207,0 1.11727,-0.4368 2.21157,-0.97066 z m -57.02144,0.3092 c 0,-0.0728 -0.0595,-0.13229 -0.13229,-0.13229 -0.0728,0 -0.1323,0.0595 -0.1323,0.13229 0,0.0728 0.0595,0.13229 0.1323,0.13229 0.0728,0 0.13229,-0.0595 0.13229,-0.13229 z m 11.77395,-0.92604 c 0.0899,-0.14553 0.10399,-0.26459 0.0312,-0.26459 -0.0728,0 -0.20587,0.11906 -0.29581,0.26459 -0.0899,0.14552 -0.10399,0.26458 -0.0312,0.26458 0.0728,0 0.20588,-0.11906 0.29581,-0.26458 z m 13.09688,-0.12927 c 0,-0.22787 -0.90387,-1.19365 -1.11714,-1.19365 -0.26076,0 -0.15475,0.53911 0.1911,0.97178 0.25708,0.32163 0.92604,0.4819 0.92604,0.22187 z m 3.79162,-2.20693 2.32537,-2.3362 -1.07488,-0.97109 c -0.59119,-0.53411 -1.23308,-0.9711 -1.42644,-0.9711 -0.19335,0 -0.74738,0.61087 -1.23117,1.35749 -0.4838,0.74662 -1.39682,1.72204 -2.02894,2.1676 -0.63212,0.44556 -1.14931,0.94015 -1.14931,1.09909 0,0.46653 1.41879,1.98466 1.8576,1.98766 0.22131,0.002 1.44881,-1.04854 2.72777,-2.33345 z m -37.92287,1.14557 c 0,-0.0728 -0.0595,-0.13229 -0.13229,-0.13229 -0.0728,0 -0.13229,0.0595 -0.13229,0.13229 0,0.0728 0.0595,0.13229 0.13229,0.13229 0.0728,0 0.13229,-0.0595 0.13229,-0.13229 z m 58.69565,-1.06409 c 1.23296,-0.37167 1.39628,-0.49981 1.27951,-1.0039 -0.0736,-0.31781 -0.27841,-1.24598 -0.45509,-2.06259 l -0.32123,-1.48475 -2.67807,-0.15027 c -1.47293,-0.0827 -2.75925,-0.0694 -2.85849,0.0295 -0.27822,0.27728 -1.01772,4.84838 -0.83277,5.14764 0.22772,0.36845 4.11026,0.0536 5.86614,-0.47567 z m -19.76815,-0.0604 c 0.33589,-0.42829 0.32344,-0.43391 -0.16604,-0.0749 -0.29104,0.21349 -0.57878,0.42185 -0.63941,0.46302 -0.0606,0.0412 0.0141,0.0749 0.16604,0.0749 0.15195,0 0.43969,-0.20836 0.63941,-0.46302 z m 79.45628,-0.39687 c 0.22762,-1.08305 1.01969,-8.67721 0.91434,-8.76645 -0.13899,-0.11774 -19.4638,-0.70036 -23.08305,-0.69592 -2.49059,0.003 -3.18993,0.11023 -5.27331,0.80823 -2.58853,0.86724 -9.05884,2.47416 -11.10374,2.75764 -0.69123,0.0958 -1.25677,0.23947 -1.25677,0.31921 0,0.0797 1.00203,1.13802 2.22674,2.35175 l 2.22674,2.20679 10.27482,0.54651 c 9.31369,0.49539 18.97074,0.9211 23.30051,1.02717 1.5117,0.037 1.65899,-0.009 1.77372,-0.55493 z m -68.00284,-0.52917 c 0.29367,-1.45452 0.36808,-2.57997 0.17833,-2.69724 -0.26642,-0.16465 -2.66471,1.48968 -2.6636,1.83734 9.9e-4,0.31079 1.56598,1.41486 2.03939,1.43877 0.17913,0.009 0.37978,-0.25145 0.44588,-0.57887 z m 22.88748,-1.97104 c 1.85174,-2.07761 1.80347,-2.46107 -0.30957,-2.45951 -1.47751,0.001 -1.74523,0.0871 -2.51354,0.80716 -0.47294,0.44327 -0.8599,0.89267 -0.8599,0.99868 0,0.26689 1.86324,2.16169 2.12568,2.16169 0.11729,0 0.81808,-0.67861 1.55733,-1.50802 z m -8.44551,-0.44777 c 0.65485,-0.5978 1.19063,-1.19816 1.19063,-1.33413 0,-0.24504 -3.0402,-0.24217 -3.87261,0.004 -0.36416,0.10754 -0.3946,0.30539 -0.19138,1.24405 0.39504,1.82471 0.40687,1.84094 1.0835,1.4869 0.32958,-0.17246 1.13502,-0.80267 1.78986,-1.40048 z m -53.04388,0.93192 c 0.60508,-0.27487 1.68549,-1.20115 2.50676,-2.14915 0.79384,-0.91635 1.82953,-1.82745 2.30153,-2.02466 0.87794,-0.36683 5.72692,-0.51078 6.55117,-0.19449 0.23518,0.0902 1.08275,1.03458 1.88349,2.09852 1.14706,1.52409 1.70555,2.02977 2.63282,2.3839 2.28105,0.87114 5.062,-0.12471 6.75753,-2.41988 2.41419,-3.26796 3.59329,-3.46018 6.31703,-1.02984 0.8624,0.76951 1.93587,1.4799 2.38548,1.57866 2.21997,0.48758 4.87324,-0.92486 6.20769,-3.30461 0.73463,-1.31008 0.81569,-1.6795 0.81284,-3.70416 -0.002,-1.79436 -0.119,-2.46654 -0.57616,-3.32534 -0.68032,-1.27803 -2.28863,-2.78978 -3.77437,-3.54775 -0.58864,-0.3003 -1.07026,-0.621 -1.07026,-0.71266 0,-0.0917 0.19364,-1.1223 0.43031,-2.2903 0.93136,-4.59648 0.0891,-10.79353 -2.04876,-15.07326 -3.0543,-6.11445 -9.40088,-11.01617 -15.67448,-12.10604 -2.51594,-0.43708 -7.1893,-0.185 -9.82686,0.53007 -7.54818,2.04636 -13.84263,7.09034 -17.20649,13.78819 -1.99621,3.97468 -2.33392,5.50653 -2.35859,10.69855 l -0.0214,4.49791 -1.64161,0.79375 c -3.0081,1.45448 -4.539,3.49974 -4.76956,6.37209 -0.24419,3.04204 1.26349,5.89143 3.42531,6.47355 1.30952,0.35261 2.14105,0.0939 3.82099,-1.18883 2.10688,-1.60872 3.23998,-1.26121 5.51104,1.69019 0.72359,0.94036 1.6233,1.75533 2.31684,2.09862 1.42795,0.70683 3.63546,0.73577 5.10769,0.067 z m 7.35595,-12.25523 c -1.16677,-0.56409 -1.57784,-2.9911 -0.86992,-5.13613 0.22802,-0.6909 0.56041,-1.05364 1.21683,-1.32791 1.65563,-0.69177 2.74311,0.45586 2.74311,2.89484 0,1.97075 -0.57487,3.22648 -1.64839,3.60071 -0.4465,0.15565 -0.82382,0.27495 -0.83849,0.2651 -0.0147,-0.01 -0.28608,-0.14332 -0.60314,-0.29661 z m 1.60513,-1.8866 c 0.38495,-1.43534 0.0104,-3.35513 -0.65459,-3.35513 -0.45553,0 -1.09441,1.88834 -0.92517,2.73454 0.29934,1.49672 1.24514,1.86826 1.57976,0.62059 z m 7.8322,-1.5692 c -1.50239,-1.02251 -1.98169,-1.90242 -1.98169,-3.63802 0,-1.67327 0.43327,-2.51892 1.82169,-3.55552 1.09993,-0.82122 3.44417,-0.76239 4.62025,0.11594 2.51678,1.87961 2.34459,5.44249 -0.33903,7.0152 -1.43639,0.84178 -2.94258,0.86458 -4.12122,0.0624 z m -20.47764,-0.51809 c -1.64857,-0.9673 -2.14154,-1.83175 -2.14154,-3.75524 0,-1.3951 0.11348,-1.80362 0.72305,-2.60281 0.87846,-1.15173 2.71646,-1.93449 3.95887,-1.68601 1.96084,0.39217 3.65245,2.40997 3.65245,4.35675 0,3.10093 -3.56975,5.22642 -6.19283,3.68731 z m 61.88762,10.36828 c 11.42229,-1.28167 18.94606,-3.18958 25.92916,-6.57522 10.4763,-5.07925 16.95052,-12.9213 19.8167,-24.00343 1.00653,-3.89177 2.27601,-14.44304 2.27601,-18.91705 0,-1.20707 -0.0189,-1.23407 -1.16978,-1.67361 -0.64338,-0.24571 -1.32308,-0.63145 -1.51044,-0.8572 -0.26663,-0.32128 -0.32371,-2.37456 -0.26267,-9.44918 l 0.078,-9.03872 -1.01495,-0.68343 c -0.55821,-0.37589 -2.50322,-1.6971 -4.32223,-2.93603 -8.87543,-6.04505 -18.56413,-10.57877 -29.52488,-13.81586 -1.75936,-0.5196 -3.37921,-0.94472 -3.59966,-0.94472 -0.30467,0 -0.48224,0.58703 -0.74031,2.44739 -0.9255,6.67178 -1.18119,7.34219 -2.80027,7.34219 -0.47539,0 -2.27264,-0.23622 -3.99389,-0.52494 -5.49584,-0.92185 -13.41589,-1.61922 -21.87737,-1.92631 -1.90818,-0.0693 -2.13191,-0.13685 -2.7215,-0.8223 -0.63965,-0.74364 -0.64162,-0.76449 -0.45906,-4.85682 l 0.18335,-4.10997 -2.35664,0.18885 c -5.37992,0.43111 -14.61188,2.4062 -20.4806,4.38162 -3.59597,1.2104 -6.60156,2.40298 -6.96036,2.76178 -0.19322,0.19322 -0.58494,2.47712 -0.93719,5.46431 -0.99005,8.39587 -1.0445,8.73539 -1.47789,9.21428 -0.22879,0.25282 -1.57643,0.91222 -2.99475,1.46534 -1.41832,0.55313 -2.71808,1.13861 -2.88834,1.30107 -0.62549,0.59681 -2.20463,17.80124 -2.1885,23.8433 0.008,3.02218 0.33342,6.65479 0.62187,6.94324 0.0914,0.0914 0.61042,-0.25558 1.15345,-0.771 2.19911,-2.08727 6.27313,-4.21953 10.30853,-5.39526 0.21771,-0.0634 -0.0167,-0.73291 -0.70851,-2.02339 -3.79536,-7.0799 -2.27184,-15.64058 3.7887,-21.28879 3.0756,-2.86634 6.42813,-4.3029 10.54734,-4.51951 3.31444,-0.1743 5.31777,0.21789 8.13982,1.59352 1.80864,0.88163 2.68927,1.53887 4.49791,3.35685 3.36748,3.38489 4.92754,6.87927 5.21296,11.67652 0.1911,3.21193 -0.34778,5.79632 -1.8233,8.74431 -1.16671,2.33103 -3.76562,5.33374 -5.35929,6.19198 -0.51743,0.27866 -0.94078,0.60989 -0.94078,0.73607 0,0.12618 0.64726,0.90328 1.43837,1.72688 0.7911,0.82361 1.88104,2.06566 2.42209,2.76012 l 0.98372,1.26265 1.28885,-1.44606 c 1.70914,-1.91761 3.62457,-2.86233 5.84582,-2.88322 1.72183,-0.0162 2.80556,0.38937 5.88052,2.20073 1.6046,0.94522 2.97137,1.01136 5.42396,0.26248 5.36386,-1.63781 9.33852,0.34976 11.37573,5.68854 0.49436,1.29556 0.62921,2.27787 0.73326,5.34144 0.22354,6.58158 -0.95164,11.92066 -3.43876,15.62289 -2.64709,3.94038 -8.95005,6.31394 -14.95899,5.63323 -1.32011,-0.14954 -2.58104,-0.34129 -2.80208,-0.42611 -0.55976,-0.2148 -0.93804,1.69267 -0.4029,2.0316 0.72842,0.46134 11.75825,0.26728 16.76978,-0.29505 z m 18.62653,-28.42332 c -5.54119,-1.52828 -10.10446,-5.80789 -12.05886,-11.30929 -0.89576,-2.52145 -1.11137,-6.36386 -0.51479,-9.17421 1.25818,-5.92696 5.861,-11.034 11.61745,-12.89008 2.98549,-0.96263 7.39407,-1.01857 9.97863,-0.12662 3.58552,1.23739 6.2388,3.1152 8.36385,5.91936 4.0784,5.38174 5.02911,12.35013 2.47323,18.1281 -1.98302,4.48296 -6.42174,8.21436 -11.2234,9.43492 -1.91773,0.48748 -6.89599,0.49775 -8.63611,0.0178 z m 14.18752,-9.82387 c 1.50595,-0.71462 2.13074,-2.77196 1.31871,-4.34226 -0.55953,-1.08201 -1.40658,-1.59104 -2.64007,-1.58652 -1.4364,0.005 -2.29471,0.48154 -2.86042,1.58728 -0.82163,1.60595 -0.11931,3.67533 1.48405,4.37276 1.10177,0.47924 1.63494,0.47306 2.69773,-0.0313 z m -17.30891,-2.56814 c 1.5944,-1.07156 1.70758,-3.25815 0.24437,-4.72136 -0.62804,-0.62804 -0.98265,-0.75985 -2.04425,-0.75985 -1.46683,0 -2.273,0.4575 -2.88227,1.63571 -0.50785,0.98207 -0.32699,2.24706 0.4653,3.25429 1.03628,1.31742 2.77383,1.56103 4.21685,0.59121 z m 10.25363,-2.95426 c 3.63683,-0.96799 5.89309,-4.37055 5.31656,-8.01764 -0.26951,-1.7049 -0.8113,-2.74215 -2.11143,-4.04228 -2.92961,-2.92961 -8.2221,-2.90514 -11.01189,0.0509 -1.43044,1.5157 -1.94472,2.78248 -1.94472,4.79027 0,2.01058 0.4014,3.1942 1.59382,4.69975 0.93287,1.17785 2.21155,2.03002 3.78362,2.52157 1.45952,0.45637 2.65234,0.45566 4.37404,-0.003 z m 6.95445,-22.91313 c -0.34335,-0.14063 -1.54796,-0.90663 -2.67689,-1.70221 -1.12894,-0.79559 -3.41785,-2.088 -5.08647,-2.87204 -2.44756,-1.15004 -3.1446,-1.60473 -3.60696,-2.35284 -0.81424,-1.31747 -0.74016,-2.37597 0.24481,-3.49779 1.49347,-1.70096 4.00147,-1.85215 6.84527,-0.41264 3.97733,2.0133 7.75383,6.72905 7.30496,9.12176 -0.27238,1.45189 -1.69658,2.25976 -3.02472,1.71576 z m -81.0766,-9.71721 c -1.58766,-0.98046 -1.16404,-2.70639 1.24882,-5.08792 2.11019,-2.0828 4.0044,-3.2803 6.33021,-4.00186 3.06958,-0.95232 5.65862,-0.35552 6.98293,1.60963 0.90771,1.34694 0.79502,2.54085 -0.34093,3.6122 -0.98505,0.92901 -1.50545,1.11417 -5.14827,1.83171 -1.23693,0.24365 -3.4855,0.90724 -4.99682,1.47465 -1.51132,0.56741 -2.88054,1.02848 -3.04271,1.02461 -0.16217,-0.004 -0.62712,-0.21223 -1.03323,-0.46302 z m 41.97075,71.69456 c 5.15127,-1.75121 7.77967,-6.21333 8.29933,-14.08942 l 0.14936,-2.26388 -1.25534,-1.07304 c -2.82813,-2.41741 -6.95994,-3.79489 -11.36023,-3.78732 -4.26794,0.007 -7.64494,0.9986 -10.34257,3.03586 l -0.79375,0.59944 -0.027,4.5962 c -0.0148,2.52791 -0.0744,4.84606 -0.1323,5.15145 -0.0778,0.41039 0.20532,0.79239 1.08533,1.46422 1.45281,1.10914 3.06851,3.40528 3.47221,4.93451 0.16453,0.62323 0.52769,1.25546 0.80703,1.40496 1.68512,0.90185 7.47895,0.91736 10.09792,0.027 z m 56.36971,0.35772 c 0.45505,-0.59555 12.26511,-6.89552 17.82239,-9.5072 0.61847,-0.29066 1.12448,-0.59673 1.12448,-0.68018 0,-0.0834 -6.18923,-0.13879 -13.75385,-0.12299 l -13.75385,0.0287 -0.58043,0.76899 c -1.84573,2.44531 -6.66738,6.40753 -10.0177,8.23211 -1.01349,0.55194 -1.8435,1.09072 -1.84448,1.19727 -9.7e-4,0.10655 2.8855,0.22783 6.41438,0.26951 3.52888,0.0417 8.18896,0.10333 10.35573,0.137 3.18669,0.0495 3.99572,-0.0123 4.23333,-0.32323 z m -124.50082,-16.81346 c 0.28647,-1.09141 1.00877,-3.09105 1.60511,-4.44364 0.59634,-1.3526 1.08426,-2.49964 1.08426,-2.54899 0,-0.0494 -2.41102,-0.16803 -5.35781,-0.26374 -7.96036,-0.25854 -15.27767,-0.64064 -21.365108,-1.11564 -2.983177,-0.23278 -5.771916,-0.43861 -6.197198,-0.45739 -0.742022,-0.0328 -0.792516,0.0406 -1.250728,1.81794 -0.731065,2.83565 -0.721787,2.86675 1.164072,3.90138 0.909505,0.49898 2.487083,1.23262 3.505729,1.6303 1.018646,0.39768 2.209271,0.88198 2.645833,1.07621 0.436563,0.19423 1.27,0.55371 1.852083,0.79883 1.259177,0.53026 11.676617,4.48997 13.315057,5.0611 0.62932,0.21938 2.71291,1.02782 4.63021,1.79654 l 3.48598,1.39769 0.18083,-3.33311 c 0.1017,-1.87468 0.40873,-4.20139 0.70168,-5.31748 z m 151.09621,2.18967 c 1.83243,-0.94946 3.44029,-1.82603 3.57302,-1.94795 0.29015,-0.26651 -0.26041,-6.46379 -0.74121,-8.3434 l -0.33025,-1.29103 -11.49118,0.0737 c -6.32015,0.0405 -13.10478,0.14198 -15.07695,0.22548 l -3.58577,0.15181 -0.73526,2.42035 c -0.97146,3.19788 -2.0168,5.67607 -3.46963,8.22545 -0.6552,1.14974 -1.19128,2.1323 -1.19128,2.18347 0,0.0512 6.68628,0.0785 14.85841,0.0607 l 14.85841,-0.0323 z m -75.38919,-8.36628 c -0.68424,-1.8288 -1.57932,-2.93765 -2.92581,-3.62458 -1.3465,-0.68693 -2.41988,-0.65288 -5.19879,0.16493 -2.89941,0.85328 -4.75754,0.76898 -6.6133,-0.30001 -3.91261,-2.25384 -4.03253,-2.30263 -5.34871,-2.17616 -1.65857,0.15937 -3.43477,1.42681 -4.34612,3.10125 l -0.68548,1.25946 0.68044,2.02377 c 0.37424,1.11308 0.75935,2.02378 0.85581,2.02378 0.0965,0 0.7703,-0.42372 1.49744,-0.94161 2.92305,-2.08186 5.66267,-2.85151 10.18561,-2.86149 2.37966,-0.005 3.78966,0.12552 5.02709,0.46622 2.07595,0.57158 5.08311,1.95538 6.35,2.92209 l 0.92604,0.70661 0.0794,-0.62984 c 0.0436,-0.34642 -0.17397,-1.3069 -0.48358,-2.13442 z m -70.14186,-4.69583 0.89143,-1.07332 -0.4284,-2.57148 c -0.23563,-1.41432 -0.43023,-3.81644 -0.43246,-5.33806 -0.002,-1.52162 -0.10278,-2.92225 -0.22345,-3.11251 -0.23574,-0.37171 -1.59414,-0.51324 -18.29333,-1.90596 -5.31151,-0.44299 -10.669321,-0.90427 -11.906248,-1.02507 -1.236927,-0.12081 -2.326211,-0.17747 -2.42063,-0.12591 -0.09442,0.0515 -0.356793,0.95735 -0.583052,2.01288 -0.226259,1.05554 -0.89958,4.16801 -1.496269,6.91661 -0.596689,2.7486 -1.029377,5.14212 -0.96153,5.31892 0.07461,0.19443 1.204298,0.43971 2.858566,0.62065 4.738938,0.51835 20.350293,1.24797 28.267493,1.32112 l 3.83646,0.0354 z m 138.87472,-1.20535 c 4.98409,-0.0981 9.05962,-0.24841 9.05674,-0.33411 -0.003,-0.0857 -0.12679,-0.98925 -0.27535,-2.00789 -0.14855,-1.01865 -0.56154,-4.1625 -0.91773,-6.98635 -0.3562,-2.82384 -0.69688,-5.18351 -0.75707,-5.2437 -0.0602,-0.0602 -3.90134,0.0823 -8.53588,0.31676 -4.63454,0.23441 -10.47069,0.4989 -12.96921,0.58776 l -4.54277,0.16156 -0.14594,1.48094 c -0.0803,0.81452 -0.21648,2.37391 -0.30269,3.46532 -0.19074,2.41474 -0.88814,7.87872 -1.09458,8.57586 -0.14544,0.49115 0.0208,0.50101 5.63632,0.33411 3.1824,-0.0946 9.86407,-0.25221 14.84816,-0.35026 z m -98.94757,-12.52957 c 2.1915,-1.33615 1.68372,-4.7135 -0.83356,-5.54427 -1.91995,-0.63364 -3.98965,0.87055 -3.98965,2.89955 0,2.49709 2.66689,3.95943 4.82321,2.64472 z m -18.09048,-1.16157 c 1.23496,-0.516 1.74587,-1.36213 1.74587,-2.8914 0,-1.11485 -0.12244,-1.41295 -0.89958,-2.19009 -0.72712,-0.72711 -1.10518,-0.89958 -1.97193,-0.89958 -2.15813,0 -3.22242,1.07214 -3.20439,3.22801 0.0106,1.2708 0.7387,2.38737 1.84257,2.82576 0.92687,0.36809 1.47052,0.35221 2.48746,-0.0727 z m -21.70327,-1.5493 c 0.0775,-0.90951 0.33857,-3.95197 0.58017,-6.76103 0.2416,-2.80906 0.38024,-5.16642 0.30808,-5.23857 -0.30578,-0.30579 -29.883264,-3.68107 -30.427385,-3.47228 -0.225218,0.0864 -0.761554,2.29361 -1.502339,6.18257 -1.479117,7.76505 -1.510977,8.03254 -0.956739,8.03254 0.23942,0 3.615441,0.29381 7.502273,0.65291 3.88682,0.35911 10.10305,0.90458 13.81383,1.21216 3.71078,0.30758 7.46125,0.653 8.33438,0.7676 0.87312,0.1146 1.72685,0.22397 1.89717,0.24305 0.19423,0.0218 0.36219,-0.58175 0.45056,-1.61895 z m 127.69497,-1.13805 c 9.93738,-0.56566 16.14879,-0.89554 17.03356,-0.90464 0.75493,-0.008 0.76021,-0.019 0.59515,-1.2646 -0.16292,-1.22942 -0.67439,-5.39131 -1.27267,-10.35591 l -0.29941,-2.48455 -4.52259,0.17931 c -7.49091,0.29699 -9.8076,0.39899 -16.16425,0.71168 -3.34698,0.16464 -6.10004,0.31613 -6.11791,0.33665 -0.0179,0.0205 -0.11657,2.0865 -0.21935,4.59107 l -0.18686,4.55377 0.74852,0.17357 c 0.41168,0.0955 1.13466,0.42751 1.6066,0.73789 0.82686,0.54379 0.85816,0.62934 0.8599,2.35027 0.002,1.52598 0.0692,1.78511 0.46483,1.78027 0.25466,-0.003 3.61818,-0.18527 7.47448,-0.40478 z m -94.38864,-1.79444 c 1.41146,-0.58974 3.11755,-2.26915 3.80778,-3.74824 0.67339,-1.44298 0.81533,-3.52861 0.35334,-5.19183 -0.34414,-1.23891 -2.0951,-3.21921 -3.65958,-4.13891 -1.10784,-0.65126 -1.48135,-0.72335 -3.74415,-0.72269 -2.07091,6e-4 -2.70238,0.10169 -3.58587,0.57408 -2.55448,1.36583 -3.94841,3.65234 -3.92401,6.43664 0.0385,4.3927 3.59731,7.61298 8.06973,7.30215 0.96277,-0.0669 2.17001,-0.29695 2.68276,-0.5112 z m -31.97317,-12.14876 c 0.33168,-1.18709 1.54033,-8.67872 1.66402,-10.31423 l 0.15007,-1.9843 -1.29228,-0.18189 c -0.71076,-0.10003 -1.68271,-0.30492 -2.15989,-0.4553 -0.93552,-0.29483 -3.92908,-0.81663 -11.8324,-2.06248 -2.76489,-0.43584 -7.00054,-1.11493 -9.41254,-1.50909 -2.41201,-0.39415 -4.56728,-0.64687 -4.78949,-0.5616 -0.24561,0.0943 -0.47275,0.65652 -0.57933,1.43408 -0.0964,0.70347 -0.661092,3.75864 -1.254822,6.78927 -0.59373,3.03063 -1.030808,5.55893 -0.971285,5.61845 0.140328,0.14033 6.880727,0.99067 13.435597,1.69498 4.31187,0.4633 11.46383,1.28385 14.68437,1.68475 1.66043,0.20669 2.26858,0.16732 2.35798,-0.15264 z m 127.68472,-3.10689 c 4.87495,-0.28737 9.87558,-0.5363 11.1125,-0.55318 3.78768,-0.0517 3.53515,0.892 2.21819,-8.2891 -0.62438,-4.35286 -1.26466,-7.99427 -1.42283,-8.09202 -0.61932,-0.38277 -20.52931,2.69794 -21.07025,3.26023 -0.16437,0.17086 -0.96804,1.96482 -1.78594,3.98659 -1.57111,3.88364 -1.61569,4.15617 -1.31399,8.03187 l 0.16992,2.18281 1.61443,-0.002 c 0.88794,-0.001 5.60303,-0.23747 10.47797,-0.52485 z m -120.72476,-4.94991 c 0.18384,-0.27687 0.51279,-2.16412 0.731,-4.19388 0.21821,-2.02975 0.47216,-4.29944 0.56434,-5.04375 0.18921,-1.52793 -0.0334,-1.8232 -0.97076,-1.28777 -0.35568,0.20315 -0.90637,0.48748 -1.22376,0.63184 -0.63098,0.28698 -0.65963,0.42546 -1.12733,5.4488 -0.24093,2.58766 -0.37448,4.98192 -0.30451,5.45892 0.0483,0.32962 2.00362,-0.52106 2.33102,-1.01416 z m 106.24746,-3.71716 c 2.18913,-5.17484 2.37725,-5.71615 2.12827,-6.12414 -0.50632,-0.82966 -6.60886,-5.89607 -9.08221,-7.54018 -9.96557,-6.6244 -25.0676,-12.61012 -37.83542,-14.99615 -4.04657,-0.75622 -5.02679,-0.87391 -5.02862,-0.60377 -0.006,0.88105 -0.56705,3.39451 -0.82794,3.70886 -0.66354,0.79952 -2.17629,1.18381 -4.59671,1.16774 -2.69762,-0.0179 -4.90443,-0.50499 -6.96207,-1.53662 -1.55958,-0.78193 -1.8598,-1.18668 -2.29458,-3.09356 l -0.29703,-1.30272 -1.83663,0.057 c -10.28876,0.31905 -23.07527,3.01015 -33.04651,6.95511 -3.68909,1.45953 -10.20155,4.68902 -10.37684,5.14581 -0.15074,0.39284 1.63235,7.92567 2.02739,8.56485 0.18353,0.29696 0.50652,0.23772 1.76799,-0.32432 10.42538,-4.64489 21.90425,-7.78677 32.63197,-8.93168 4.51993,-0.48238 13.87998,-0.62502 18.492,-0.28178 10.60249,0.78904 22.41022,3.64885 32.28153,7.81851 3.43326,1.45022 9.35598,4.35357 12.06501,5.91434 0.7276,0.4192 1.73963,1.00314 2.24896,1.29764 0.50932,0.29449 2.41432,1.55608 4.23333,2.80352 1.81901,1.24743 3.43804,2.27385 3.59784,2.28092 0.1598,0.007 0.47942,-0.43362 0.71027,-0.97933 z m -110.58876,-4.89479 c 0.12311,-1.39959 -0.0628,-2.50726 -1.21021,-7.20989 -0.74561,-3.05594 -1.38047,-5.59426 -1.41079,-5.64072 -0.30792,-0.47178 -22.06172,-7.19158 -23.28108,-7.19158 -0.198,0 -0.69061,1.51609 -1.26807,3.90261 -1.23937,5.1221 -2.83562,12.82833 -2.68785,12.9761 0.0642,0.0642 2.83122,0.52873 6.14901,1.03236 3.31779,0.50363 9.72329,1.54647 14.23444,2.31742 4.51114,0.77094 8.45566,1.41648 8.76559,1.43453 0.50411,0.0294 0.57885,-0.14152 0.70896,-1.62083 z m 67.22781,-3.04271 c 0.28912,-1.42581 0.96459,-5.96281 0.8932,-5.99947 -1.39491,-0.71652 -2.47742,-0.95234 -8.01015,-1.74498 -3.97255,-0.56912 -14.45674,-1.00161 -16.57612,-0.68379 l -1.22951,0.18438 -0.1074,3.36125 c -0.0591,1.84869 -0.0928,3.38919 -0.075,3.42334 0.0178,0.0341 2.75051,0.18203 6.07268,0.32864 5.53241,0.24414 13.82251,1.0412 16.4133,1.57807 2.03945,0.42262 2.45708,0.35128 2.61904,-0.44744 z m 52.01742,-0.47613 c 4.28125,-0.8012 10.5452,-1.80659 14.07922,-2.25977 1.41341,-0.18125 2.70677,-0.41418 2.87413,-0.51762 0.22434,-0.13864 0.15344,-1.04823 -0.26978,-3.46128 -0.31574,-1.80027 -0.86574,-4.99962 -1.22222,-7.10968 -0.35648,-2.11005 -0.82032,-4.66989 -1.03075,-5.68854 -0.6949,-3.3638 -1.22296,-6.07121 -1.38043,-7.0776 -0.13383,-0.85523 -0.25089,-0.99186 -0.84803,-0.9898 -1.72359,0.006 -12.32096,4.04362 -16.43547,6.26203 -4.53207,2.44355 -10.50461,6.67505 -12.9063,9.14403 -1.2998,1.33621 -1.33718,1.25181 1.26463,2.85589 2.78937,1.71971 7.32415,5.27755 9.40937,7.38228 1.15501,1.16581 2.2786,2.12165 2.49688,2.12408 0.21828,0.002 2.00422,-0.29638 3.96875,-0.66402 z m -120.47899,-12.14841 c 0.78542,-0.55013 7.32798,-3.87089 9.22171,-4.68059 0.87312,-0.37332 2.77812,-1.13087 4.23333,-1.68344 1.45521,-0.55257 2.68524,-1.03526 2.73341,-1.07263 0.0987,-0.0766 -0.4333,-1.12262 -0.78934,-1.55182 -0.12832,-0.15468 -0.85041,-1.11468 -1.60465,-2.13333 -0.75425,-1.01865 -1.76322,-2.2688 -2.24216,-2.77812 -0.47894,-0.50933 -0.87183,-0.99901 -0.87309,-1.08819 -0.004,-0.25182 -5.43293,-4.96974 -7.9398,-6.89938 -3.80965,-2.93247 -10.90032,-7.44556 -14.68437,-9.34637 l -1.85208,-0.93034 -0.32708,0.73162 c -0.1799,0.40239 -0.99451,2.16036 -1.81026,3.90661 -0.81575,1.74625 -1.70277,3.7257 -1.97115,4.39876 -0.26839,0.67307 -0.72767,1.74463 -1.02063,2.38125 -1.36697,2.97052 -5.05818,12.78298 -5.05588,13.4402 10e-4,0.30475 0.7325,0.61526 2.71198,1.15129 4.74907,1.28602 12.37202,3.65019 16.46885,5.10762 2.18281,0.77652 4.03155,1.41694 4.10832,1.42314 0.0768,0.006 0.38856,-0.16312 0.69289,-0.37628 z m 101.78711,-1.54212 c 3.9417,-3.52887 6.37954,-5.31643 10.91025,-7.99998 5.16561,-3.05961 13.176,-6.54075 18.32521,-7.96374 l 1.68003,-0.46428 -0.14397,-0.88722 c -0.19632,-1.20978 -2.61468,-6.78886 -4.08522,-9.42448 -2.114,-3.7889 -5.42356,-8.37228 -6.04542,-8.37228 -0.56778,0 -3.85474,2.28433 -7.69435,5.34733 -4.86594,3.88172 -12.02902,10.97575 -16.08277,15.92773 -0.58209,0.71106 -1.17874,1.42405 -1.3259,1.58441 -0.4914,0.53549 -3.98801,5.02698 -5.66,7.27043 -1.02286,1.37246 -1.55775,2.31041 -1.40479,2.46337 0.13586,0.13585 1.36496,0.75464 2.73135,1.37507 1.36639,0.62044 3.31778,1.5599 4.33642,2.08768 1.01865,0.52779 1.95371,0.96547 2.07791,0.97263 0.12421,0.007 1.19577,-0.85534 2.38125,-1.91667 z m -13.66471,-4.86421 c 0.40639,-0.53518 1.28175,-1.57698 1.94526,-2.3151 0.6635,-0.73813 2.46439,-2.94939 4.00197,-4.91392 4.16034,-5.31556 7.71457,-9.18123 13.39717,-14.57109 1.26311,-1.19805 2.95141,-2.80029 3.75178,-3.56054 0.80036,-0.76026 2.82442,-2.3994 4.49791,-3.64255 4.79018,-3.55838 4.41464,-3.17742 3.9026,-3.95889 -1.08697,-1.65892 -10.35863,-8.57026 -14.48593,-10.79818 -0.65484,-0.35349 -1.25016,-0.70315 -1.32292,-0.77702 -0.0728,-0.0739 -0.76635,-0.47314 -1.54131,-0.88727 l -1.40901,-0.75296 -0.60128,0.56487 c -2.22752,2.09265 -12.37585,18.67483 -18.87599,30.843 -3.05729,5.72322 -3.54249,6.79638 -3.37621,7.46743 0.10187,0.41111 0.0431,0.54889 -0.19499,0.45751 -0.22131,-0.0849 -0.46456,0.28853 -0.69394,1.06538 -0.19424,0.65788 -0.43518,1.19614 -0.5354,1.19614 -0.16951,0 -0.8177,1.53548 -0.8177,1.93702 0,0.0988 0.19991,0.17965 0.44424,0.17965 0.50946,0 0.61743,0.0336 6.30264,1.96087 2.32833,0.78931 4.37708,1.44491 4.55278,1.45691 0.17569,0.012 0.65194,-0.41607 1.05833,-0.95126 z m -1.24549,-2.8634 c 0,-0.0728 0.0595,-0.13229 0.13229,-0.13229 0.0728,0 0.13229,0.0595 0.13229,0.13229 0,0.0728 -0.0595,0.1323 -0.13229,0.1323 -0.0728,0 -0.13229,-0.0595 -0.13229,-0.1323 z m -27.94022,1.11094 c 0.22427,-0.77143 1.25072,-4.84932 2.28102,-9.06198 1.0303,-4.21265 2.00142,-7.98831 2.15806,-8.39034 0.1616,-0.41478 0.55726,-0.79936 0.91469,-0.88906 0.69967,-0.17561 1.94895,0.49515 1.94895,1.04643 0,0.18713 -0.40571,1.94056 -0.90159,3.8965 -2.10338,8.29669 -2.66356,11.11997 -2.25734,11.377 0.87277,0.55224 1.21734,0.27273 1.56192,-1.26701 0.37868,-1.69213 2.66109,-8.32263 4.25967,-12.37456 0.57411,-1.45521 1.04331,-2.80136 1.04267,-2.99144 -6.4e-4,-0.19008 -0.56671,-0.59172 -1.25793,-0.89252 -0.69123,-0.3008 -1.73302,-0.75589 -2.31511,-1.01131 -3.80731,-1.67065 -11.26057,-4.49744 -11.8582,-4.49744 -0.39418,0 -0.92343,0.10598 -1.17612,0.2355 -0.94946,0.48667 -5.0667,2.12513 -8.0662,3.20995 -1.8406,0.66568 -3.10885,1.2675 -3.10885,1.47523 0,0.19298 0.82514,3.77844 1.83365,7.9677 1.00851,4.18926 1.87172,7.90516 1.91823,8.25756 0.0939,0.71139 0.60985,1.02734 0.80825,0.49493 0.12217,-0.32784 -0.11367,-2.90516 -0.99812,-10.90768 -0.38659,-3.49796 -0.38323,-3.70977 0.0658,-4.13953 0.77936,-0.74593 1.59248,-0.87142 1.90177,-0.2935 0.23357,0.43642 1.76671,10.87826 2.27992,15.52797 0.3615,3.27524 0.45159,3.42961 2.30964,3.95773 0.91015,0.2587 1.77389,0.50643 1.91941,0.55053 0.14552,0.0441 1.17887,0.0896 2.29633,0.10106 l 2.03174,0.0209 z m -38.43636,-0.28512 c 0.49071,-0.20065 2.46979,-0.75125 4.39794,-1.22356 2.7581,-0.6756 3.50573,-0.9531 3.50573,-1.30122 0,-0.53831 -1.70687,-5.59907 -3.02023,-8.9548 -3.01195,-7.69574 -7.8636,-17.56399 -12.25798,-24.93269 -1.89946,-3.1851 -4.94172,-7.67274 -5.20158,-7.67283 -0.35515,-1.3e-4 -3.45711,1.76246 -5.66975,3.22165 -3.62954,2.39362 -5.99284,4.30363 -8.77546,7.09229 -2.48156,2.48694 -5.82496,6.82645 -5.82197,7.55652 0.001,0.2679 3.1417,2.23778 3.56773,2.23778 0.1169,0 1.29701,0.66906 2.62246,1.4868 11.65898,7.19302 18.22562,12.86843 24.07133,20.80435 0.83074,1.12778 1.55075,2.05052 1.60001,2.05052 0.0493,0 0.49106,-0.16417 0.98177,-0.36481 z m 55.23294,-7.10967 c 3.28413,-6.65632 5.61294,-11.05543 8.29888,-15.67656 3.57193,-6.14549 4.01169,-6.89093 4.83862,-8.20208 0.45889,-0.72761 1.82906,-2.93027 3.04481,-4.8948 1.21576,-1.96453 3.13926,-4.89348 4.27444,-6.50878 2.03957,-2.90217 2.35797,-3.54538 1.75505,-3.54538 -0.16991,0 -1.86655,-0.66978 -3.77031,-1.48841 -5.08028,-2.18453 -15.93489,-5.65534 -17.6865,-5.65534 -0.23324,0 -0.52855,0.6137 -0.79573,1.65364 -0.23367,0.90951 -0.60552,2.1299 -0.82633,2.71198 -0.22082,0.58209 -0.40671,1.36093 -0.41309,1.73077 -0.006,0.36985 -0.42326,2.11629 -0.92639,3.88098 -1.20834,4.23823 -4.87676,18.47231 -5.07093,19.67606 -0.15007,0.93033 -0.13118,0.95411 1.13061,1.42323 0.70577,0.2624 1.84877,0.77829 2.53999,1.14643 1.53203,0.81594 1.56571,1.12503 0.43059,3.95179 -0.45439,1.13157 -1.75229,4.61725 -2.8842,7.74595 -1.13192,3.1287 -2.14018,5.89191 -2.24059,6.14048 -0.13442,0.33278 -0.0192,0.49243 0.43681,0.60548 3.10637,0.77002 4.61725,1.13792 4.77392,1.16245 0.10219,0.016 1.49285,-2.62005 3.09035,-5.85789 z m -38.86261,3.62654 c 1.96453,-0.20885 4.01133,-0.381 4.54845,-0.38256 0.53711,-0.002 1.03546,-0.0981 1.10743,-0.21456 0.12987,-0.21014 -0.16906,-1.63012 -1.68211,-7.99036 -2.11217,-8.87872 -2.15452,-9.10156 -1.84091,-9.68754 0.16582,-0.30985 0.73832,-0.69423 1.27221,-0.85419 1.84777,-0.55361 1.84042,-0.53208 1.59592,-4.67181 -0.41407,-7.01109 -2.2015,-26.78975 -2.44284,-27.03108 -0.34701,-0.34701 -11.94301,2.38795 -16.84565,3.97312 -4.27197,1.38125 -12.17083,4.58368 -12.17083,4.93441 0,0.10189 1.11335,1.89965 2.47412,3.99503 6.44712,9.92763 13.87011,25.34262 17.60808,36.56595 l 0.68759,2.06451 1.05833,-0.16059 c 0.58209,-0.0883 2.66568,-0.33148 4.63021,-0.54033 z m 30.14148,-24.66091 c 0.59819,-2.43748 1.68469,-6.63443 2.41443,-9.32657 0.72975,-2.69213 1.68944,-6.32354 2.13265,-8.06979 0.44321,-1.74625 1.10648,-4.15089 1.47395,-5.34365 0.36746,-1.19276 0.61679,-2.32385 0.55407,-2.51354 -0.15056,-0.45529 -4.44271,-1.04453 -4.59095,-0.63025 -0.23333,0.65204 -4.10424,25.01799 -4.48586,28.23681 -0.15254,1.28666 -0.10927,1.5325 0.31296,1.77789 0.26949,0.15663 0.62749,0.2884 0.79555,0.29282 0.1774,0.005 0.76179,-1.85091 1.3932,-4.42372 z m -17.36526,2.05052 c 2.43545,-1.01865 4.65913,-1.85209 4.9415,-1.85209 0.28237,0 1.95258,0.61436 3.71157,1.36523 1.90778,0.81439 3.2931,1.26809 3.43344,1.12448 0.12939,-0.13241 0.71533,-3.3959 1.30208,-7.25221 1.38035,-9.07207 3.14242,-20.27265 3.3584,-21.34756 0.15993,-0.79598 0.12027,-0.85002 -0.72021,-0.98144 -4.86664,-0.76093 -22.77705,-0.51449 -23.54011,0.32391 -0.0886,0.0973 -0.006,1.50402 0.18358,3.12597 0.72022,6.16263 2.21405,24.1293 2.22415,26.75048 0.001,0.32742 0.15422,0.59531 0.3399,0.59531 0.18568,0 2.33025,-0.83344 4.7657,-1.85208 z"
       id="path129" /></g></svg>
