<?xml version="1.0" encoding="UTF-8" standalone="no"?>
<!-- Created with Inkscape (http://www.inkscape.org/) -->

<svg
   width="237.41943mm"
   height="279.65518mm"
   viewBox="0 0 237.41946 279.65514"
   version="1.1"
   id="svg1"
   xml:space="preserve"
   xmlns="http://www.w3.org/2000/svg"
   xmlns:svg="http://www.w3.org/2000/svg"><defs
     id="defs1"><clipPath
       clipPathUnits="userSpaceOnUse"
       id="clipPath6"><path
         id="path7"
         style="fill:#ff0000;fill-opacity:1;fill-rule:nonzero;stroke:none;stroke-width:0.264583"
         d="M -175.07778,-16.057127 V 287.55793 H 124.54631 V -16.057127 Z m 132.7459,202.572647 c 0.210643,0.005 0.427212,0.0169 0.650089,0.0367 2.23823,0.19855 4.475655,0.4031 6.717938,0.55346 1.973313,0.11308 0.986628,0.0436 2.958475,0.20825 3.181295,0.26563 4.740125,1.85116 4.950601,3.46956 4.949923,1.63749 3.796379,7.35609 -2.592089,6.81354 -3.228716,-0.27422 -1.569593,-0.1301 -4.979024,-0.43357 -4.228209,-0.39317 -8.460616,-0.76265 -12.666927,-1.35341 -6.647387,-0.93358 -5.930551,-7.21034 0.03204,-7.20421 0.04685,5e-5 0.0972,0.004 0.144695,0.005 0.687229,-1.21692 2.304132,-2.15435 4.784204,-2.09548 z" /></clipPath><clipPath
       clipPathUnits="userSpaceOnUse"
       id="clipPath76"><path
         id="path77"
         style="fill:#ff0000;fill-opacity:1;fill-rule:nonzero;stroke:none;stroke-width:0.264583"
         d="M -133.83107,-122.52355 V 173.82063 H 122.97289 V -122.52355 Z M 13.574404,98.948202 c 2.788179,0.0507 4.135003,2.063798 3.398242,4.077268 0.199805,0.45372 0.374906,0.96736 0.517797,1.54461 1.07913,4.35948 0.671079,8.891 0.311608,13.31495 -0.351859,3.06036 -0.147137,1.57974 -0.604097,4.44366 -0.359666,2.25418 -1.333846,3.66838 -2.455664,4.32532 0.105138,0.36595 0.224724,0.72888 0.324528,1.09554 0.6273,2.23652 0.575201,4.47401 0.39429,6.75514 -0.137303,1.73129 -0.688065,2.99533 -1.427303,3.82199 -0.112477,0.41601 -0.170275,0.80219 -0.311092,1.25212 -0.184975,0.59102 -0.413327,1.1061 -0.670242,1.55856 0.741137,-0.23134 1.446982,-0.38145 2.064991,-0.37517 4.085002,0.0415 5.222724,4.75435 -0.02223,7.27138 -4.46677,2.14368 -9.303523,3.34693 -14.11903492,4.40955 -4.40876268,0.85156 -8.89238128,1.33053 -13.38264308,1.19269 -5.804014,-0.17807 -6.736297,-5.00293 -3.065447,-6.67298 -2.072987,-0.65744 -4.042852,-1.62261 -4.128947,-3.14709 -0.02802,-0.49633 0.0026,-0.90355 0.0341,-1.30897 -1.976731,-0.003 -3.95339,2.4e-4 -5.930386,0.003 -0.814031,0 -1.53062,-0.0962 -2.159559,-0.26149 -0.376306,0.19492 -0.742394,0.40783 -1.120862,0.59893 -6.391272,3.22657 -9.625245,-3.24074 -3.234428,-6.46886 1.833438,-0.92611 3.62694,-1.92211 5.414142,-2.92954 -0.877003,-3.87058 -1.368747,-7.83436 -1.323951,-11.80858 0.01651,-1.46304 0.376836,-2.54918 0.864547,-3.41426 -1.247357,-1.79999 -0.223805,-4.63069 3.842661,-5.68855 3.11826,-0.81116 6.282901,-1.39515 9.473837,-1.82211 -1.259816,-0.12657 -2.516182,-0.30233 -3.764627,-0.50177 -1.477002,-0.21985 -2.935575,-0.54305 -4.407482,-0.7891 -1.14214,-0.22954 -0.588502,-0.12004 -1.660882,-0.3297 -3.350244,-0.65501 -4.783278,-2.61088 -4.608504,-4.32997 -0.200179,-1.7721 1.333365,-3.52972 4.663799,-3.59461 v -5.3e-4 c 0.20954,-0.004 0.426035,-0.002 0.649571,0.008 1.77111,0.0772 3.528708,0.28204 5.26428,0.64027 1.655035,0.33225 3.314115,0.6481 4.955251,1.04439 1.244759,0.34858 2.51628,0.54538 3.7997689,0.6723 0.025956,0.002 0.052073,0.002 0.078034,0.004 0.4990888,-0.0371 0.9984105,-0.0743 1.4965495,-0.11317 1.346872,-0.12588 2.6913231,-0.25136 4.0457464,-0.24236 1.1278499,-0.0444 2.2567291,-0.10772 3.37498791,-0.26872 0.75719517,-0.11591 1.51142439,-0.25483 2.25722659,-0.4284 0.3616431,-0.12394 0.7240561,-0.24538 1.083138,-0.37775 0.3360393,-0.12388 0.6107589,-0.12825 0.9250071,-0.20723 0.1281086,-0.045 0.2583895,-0.0825 0.3855085,-0.13074 1.9825018,-0.7681 3.9540551,-1.56464 5.9510551,-2.29443 1.050809,-0.383992 1.999634,-0.542639 2.826703,-0.527616 z M 0.70283723,110.39557 c -0.45566013,0.0949 -0.90775367,0.208 -1.36890919,0.2744 -1.16638124,0.15534 -2.34111274,0.24237 -3.51761424,0.26251 0.4031694,0.0896 0.8047355,0.18876 1.2025101,0.308 0.1014836,0.0304 0.1982549,0.075 0.2986907,0.10852 0.4205235,-0.21824 0.9206601,-0.35072 1.4898318,-0.37156 0.39885139,-0.0146 0.83259872,0.0278 1.29449508,0.13023 0.22468681,-0.12213 0.44967525,-0.24374 0.67437529,-0.36587 -0.0326284,-0.11319 -0.058211,-0.22834 -0.0733795,-0.34623 z m 10.24433577,1.02474 c -0.76023,0.21437 -1.5189569,0.4343 -2.2696301,0.68006 -0.031261,0.62207 -0.2256075,1.28373 -0.6464723,1.94355 0.6236891,0.43248 1.2549743,1.04482 1.8634525,1.86862 0.2674939,0.36214 0.4748849,0.75712 0.7188199,1.13223 0.154519,-1.86707 0.314174,-3.74736 0.33383,-5.62446 z m 64.566086,3.39773 c 1.50346,0.0187 3.129182,1.24994 3.928441,4.04678 0.257931,0.90255 0.823497,1.65871 1.488797,2.30735 0.856321,0.95375 1.845738,1.76777 2.801898,2.61638 1.458581,1.46408 2.789203,3.04608 4.169772,4.58215 1.315059,1.44746 2.571226,2.91698 3.543967,4.61884 0.0053,0.01 0.0082,0.0206 0.01344,0.0305 0.734605,-0.43313 1.446276,-0.65634 2.094962,-0.69195 3.016182,-0.16561 4.69137,3.55377 1.187525,7.32306 -1.69471,1.82311 -3.657862,3.33908 -5.68751,4.7651 -0.777873,0.49914 -1.607691,0.90075 -2.418456,1.33842 0.165478,1.44344 -0.672182,3.24303 -2.956409,4.73096 -1.354556,0.88234 -2.690448,1.79306 -4.075203,2.6288 -2.075008,1.20078 -4.233777,2.27962 -6.540687,2.96259 -2.077586,0.62971 -4.169056,1.29987 -6.359301,1.36374 -1.872114,0.0897 -3.746989,0.0368 -5.620845,0.0501 h -5.1108 -5.524728 c -7.160125,0 -7.160125,-7.23315 0,-7.23315 h 1.347722 c 0.29438,-0.0541 0.5212,-0.1588 0.84801,-0.18656 1.106628,-0.094 2.200932,-0.28334 3.292822,-0.48421 0.456121,-0.98163 1.356053,-1.98213 2.807581,-2.83962 1.078018,-0.63685 2.158119,-1.26923 3.212209,-1.94561 1.962647,-1.29302 3.840588,-2.72135 5.893696,-3.86902 1.367169,-0.76424 2.559646,-1.07097 3.526915,-1.04128 2.216811,0.068 3.246223,1.90266 2.479953,4.04059 1.105688,-0.48686 2.206929,-0.98346 3.283003,-1.53739 2.619811,-1.23728 5.288743,-2.38548 7.764385,-3.9026 0.246153,-0.17184 0.487463,-0.34958 0.730705,-0.52503 -0.126915,-0.50614 -0.277693,-0.9939 -0.512114,-1.46554 -0.647621,-1.25778 -1.721077,-2.20654 -2.600875,-3.29644 -1.199229,-1.33472 -2.369312,-2.69496 -3.592029,-4.00803 -1.098706,-0.97599 -2.227236,-1.92181 -3.215306,-3.01428 -1.300821,-1.39063 -2.459913,-2.93896 -3.045293,-4.77801 -1.289469,-4.05101 0.646382,-6.61405 2.843754,-6.58667 z m -95.086705,4.28035 c -0.465643,0.10748 -0.930899,0.21773 -1.394745,0.33435 0.171958,0.64334 0.283575,1.36624 0.279569,2.2071 -0.01267,2.6582 0.205063,5.32647 0.670242,7.94732 0.280107,-0.17087 0.565767,-0.33222 0.845429,-0.50385 -0.01897,-0.36223 -0.02445,-0.73164 -0.05529,-1.08985 -0.118034,-2.96491 -0.160888,-5.93314 -0.3452,-8.89507 z m 18.5141159,1.1958 c 0.00497,0.0773 0.00619,0.15612 0.014975,0.23202 -0.1238779,0.22787 -0.2588048,0.44752 -0.3937741,0.66715 0.58900751,0.0447 1.13203305,0.21413 1.64331124,0.45888 -0.37615284,-0.49255 -0.78353709,-0.94642 -1.26452314,-1.35805 z m -6.5422357,14.57068 c -0.046649,0.0755 -0.09888,0.14702 -0.1436608,0.22376 -0.03147,0.054 0.1963367,0.0838 0.1860365,0.0222 -0.017595,-0.10481 -0.026035,-0.14905 -0.042376,-0.24597 z m 13.9236979,6.08439 c -0.2236258,0.5643 -0.5677508,1.09664 -1.1782213,1.50533 0.9079653,0.17659 1.7077452,0.44257 2.2830631,0.84852 0.1405493,-0.0459 0.272804,-0.11448 0.4128956,-0.16174 -0.7336976,-0.43656 -1.2984269,-1.18703 -1.5177374,-2.19211 z" /></clipPath><clipPath
       clipPathUnits="userSpaceOnUse"
       id="clipPath127"><path
         id="path128"
         style="fill:#ff0000;fill-opacity:1;fill-rule:nonzero;stroke:none;stroke-width:0.264583"
         d="M -112.24796,-126.55676 V 185.58027 H 148.5754 V -126.55676 Z M 46.874626,83.305366 c 1.808208,0 3.616317,1.790192 3.616317,5.370214 v 5.232238 c 0.0627,2.146078 -0.111291,4.285324 -0.245462,6.424932 -0.136289,2.02485 -0.190703,4.04985 -0.104904,6.07715 0.192061,1.91863 0.527714,3.82569 0.876432,5.72213 0.304242,2.00862 0.765826,3.9858 1.180806,5.97276 0.41642,1.86142 0.967934,3.68703 1.421104,5.53972 0.25287,0.86996 0.117097,0.46495 0.396356,1.22008 0.186108,0.50319 0.223428,0.93098 0.309544,1.38441 4.425355,2.23251 2.751262,7.58433 -3.415813,6.40477 -3.104732,-0.59371 -6.256094,-0.76586 -9.40821,-0.85576 -3.81635,0.009 -7.630525,0.17062 -11.44478,0.28216 -1.12776,0.0333 -2.255837,0.0512 -3.383772,0.0754 -0.908129,0.5548 -1.966518,0.57724 -2.88613,0.0641 -0.03584,5.3e-4 -0.07165,0.002 -0.107487,0.003 -0.03142,5.3e-4 -0.0525,-0.009 -0.08268,-0.009 -0.32049,0.14732 -0.641715,0.29301 -0.962215,0.44028 -0.262501,0.12062 -0.518089,0.22111 -0.770496,0.31265 -0.876996,0.71434 -1.945576,0.85817 -2.911967,0.46405 -2.943479,-0.21613 -4.295167,-2.77187 -2.550232,-5.0524 -2.22e-4,-0.028 -0.0078,-0.0483 -0.0078,-0.0765 v -6.3469 c -0.014,-2.72977 -0.02254,-5.45666 0.112657,-8.18348 0.135676,-2.32533 0.233519,-4.6523 0.299723,-6.98046 0.046,-1.80459 0.06926,-3.60958 0.08527,-5.41465 -0.0258,-1.02998 0.04009,-2.054459 0.138491,-3.078883 0.0044,-0.04602 0.02191,-0.07504 0.02687,-0.120406 C 15.992671,97.193438 15.83363,95.70984 16.656834,94.418959 10.68718,93.678613 10.992573,87.32947 17.739972,87.32947 h 3.885033 5.177462 5.913334 c 1.498505,0.05847 2.984222,-0.03228 4.475178,-0.161748 1.252041,-0.18606 2.49041,-0.398671 3.697968,-0.782897 1.001961,-0.32245 0.492366,-0.161472 1.527553,-0.482142 0.510384,-0.158096 0.938446,-0.174371 1.394749,-0.23771 0.672338,-1.56932 1.86623,-2.35903 3.063377,-2.35903 z" /></clipPath></defs><g
     id="layer1"
     transform="translate(101.5307,316.42354)"><path
       style="fill:#000000"
       d="m -14.394344,-36.845853 c -2.90987,-0.164079 -3.88566,-0.465688 -5.1782,-1.600554 -2.04356,-1.794275 -2.56618,-3.358479 -2.57516,-7.707475 l -0.008,-3.7531 -1.32292,-0.234172 c -2.23348,-0.395353 -4.78162,-1.83964 -5.73263,-3.249257 l -0.88195,-1.30724 -0.1067,-11.137676 c -0.0587,-6.125721 -0.11089,-11.85205 -0.116,-12.725175 -0.005,-0.873125 0.10147,-3.424185 0.23686,-5.669022 0.20563,-3.409682 0.15213,-4.263317 -0.32498,-5.185953 -0.89082,-1.722665 -0.74086,-4.492017 0.34345,-6.342246 0.80492,-1.373498 0.87805,-1.757866 0.60998,-3.205994 -0.29801,-1.609893 -0.33106,-1.643473 -1.53193,-1.556443 -0.67504,0.0489 -3.60859,0.11625 -6.51901,0.1496 -5.55404,0.0636 -9.03955,-0.3899 -14.50856,-1.88788 -2.89368,-0.79259 -3.40939,-0.82594 -7.18727,-0.46491 -1.96955,0.18822 -2.51703,0.10396 -3.88056,-0.5972 -0.87312,-0.44899 -1.74625,-1.18015 -1.94028,-1.62481 -0.19402,-0.44466 -0.74965,-0.90393 -1.23472,-1.02061 -3.29428,-0.79238 -7.31897,-4.23695 -9.02516,-7.72428 -1.30267,-2.66257 -1.59345,-6.91153 -0.6644,-9.70863 0.79088,-2.3811 3.54472,-5.23211 5.7451,-5.9478 1.02147,-0.33224 1.69104,-0.81937 2.03169,-1.47812 1.71053,-3.30779 5.10711,-3.90362 7.73474,-1.35682 l 1.10522,1.07122 1.56349,-0.56384 c 1.81133,-0.65322 4.26967,-0.49498 6.14655,0.39566 0.71791,0.34067 1.49088,0.47639 1.85227,0.32522 1.42093,-0.59434 3.5521,-0.79304 5.35635,-0.49939 1.05776,0.17215 1.96442,0.2718 2.01479,0.22143 0.0504,-0.0504 -0.32222,-1.14467 -0.82799,-2.43178 l -0.91957,-2.34019 -5.56354,-0.11819 c -4.99205,-0.10605 -5.66518,-0.19414 -6.553,-0.85762 -0.99658,-0.74475 -6.79171,-8.80895 -8.49002,-11.81426 -0.90174,-1.59572 -0.96939,-1.63564 -5.00267,-2.95211 -15.659041,-5.11115 -31.781626,-13.77507 -31.781626,-17.07875 0,-1.12886 1.758961,-10.8569 2.7833,-15.39322 2.653247,-11.74999 6.932311,-26.21812 11.685726,-39.51111 9.73323,-27.21911 17.90839,-43.66713 28.12165,-56.57937 3.22719,-4.08002 9.73456,-10.61997 13.85377,-13.92314 8.27048,-6.63205 19.21405,-12.62655 29.80972,-16.32871 4.3216,-1.50998 11.5211404,-3.30349 13.2609304,-3.30349 1.66695001,0 3.02723,1.08199 3.88963,3.09389 l 0.67545,1.57577 1.84672,-1.91804 c 3.44606,-3.57916 7.6462296,-5.32452 12.7828196,-5.31183 5.16501,0.0128 9.65302,1.98061 12.88118,5.64798 0.77817,0.88406 1.4558,1.54316 1.50582,1.46467 0.05,-0.0785 0.43935,-0.88943 0.86515,-1.80208 1.47973,-3.17156 3.11816,-3.44915 10.14785,-1.71932 12.65348,3.1137 26.28735,9.86863 36.35875,18.01404 3.54263,2.86516 10.64335,9.95226 13.44897,13.42318 6.35358,7.86021 12.965294,19.45444 19.564134,34.30749 7.64376,17.20502 16.43554,43.53302 20.69985,61.98812 1.29325,5.59697 3.23801,15.70382 3.23801,16.82787 0,1.44467 -7.00571,6.16286 -14.52972,9.78546 -5.45721,2.62749 -13.65207,5.81075 -18.77266,7.29217 -2.45544,0.71037 -2.874384,0.95545 -3.520514,2.05944 -2.69638,4.60715 -7.7656,11.75488 -8.77166,12.36828 -1.01191,0.61698 -1.78434,0.70041 -6.49511,0.70157 l -5.34661,0.001 -1.09158,2.33267 c -1.32396,2.82923 -1.33879,3.03552 -0.18668,2.59749 1.20529,-0.45825 5.06916,-0.4384 6.42138,0.033 0.8446,0.29443 1.30782,0.26005 2.11415,-0.15692 1.6973,-0.8777 4.33275,-1.07634 5.85301,-0.44113 1.32221,0.55246 1.34102,0.54841 3.11215,-0.66992 3.15019,-2.16695 6.517654,-1.42452 7.834574,1.7273 0.36265,0.86794 0.79464,1.19534 2.01556,1.52755 2.21148,0.60173 3.9915,2.2416 5.28483,4.86874 1.06065,2.15448 1.10961,2.43447 0.97275,5.56345 -0.17602,4.02473 -1.15592,6.3096 -3.86987,9.02354 -1.68603,1.68604 -5.43237,3.93313 -6.55728,3.93313 -0.27258,0 -0.881634,0.45878 -1.353454,1.01951 -1.63225,1.93982 -5.71606,2.8601 -8.17398,1.842 -0.94119,-0.38986 -1.43531,-0.33363 -3.89405,0.44308 -4.83655,1.52787 -8.67553,2.10553 -14.19245,2.13559 -2.81341,0.0153 -6.00777,-0.0902 -7.0986,-0.23448 l -1.98332,-0.26236 -0.22737,1.714043 c -0.18592,1.401492 -0.0661,2.060449 0.65695,3.613747 1.04882,2.253055 1.11065,3.851933 0.2244,5.803156 -0.5944,1.308681 -0.62195,1.903368 -0.31523,6.804505 0.19481,3.113055 0.20606,5.772599 0.0268,6.327103 -0.17172,0.53104 -0.19894,5.350929 -0.0612,10.834382 0.27758,11.049637 0.16966,11.745169 -2.12155,13.673093 -1.08301,0.911293 -4.04948,2.025517 -5.39266,2.025517 -0.58312,0 -0.64153,0.370625 -0.64153,4.070998 0,3.36852 -0.12118,4.308543 -0.7023,5.447618 -0.69176,1.355977 -2.34348,2.842995 -3.68927,3.32141 -0.37808,0.134402 -5.65977,0.234666 -11.73709,0.22281 -12.48479,-0.02436 -12.98091,-0.108588 -15.07939,-2.560191 -1.41446,-1.652479 -1.95305,-3.726658 -1.95305,-7.521398 v -2.628469 h -5.59378 -5.59379 l -0.18562,3.637012 c -0.26013,5.096981 -1.6949696,7.609228 -4.9616696,8.687333 -1.07246,0.353945 -16.5150804,0.698887 -20.7068104,0.462528 z m 20.1584504,-4.242164 c 1.70488,-1.053674 2.11939,-2.211281 1.99436,-5.569603 l -0.1042,-2.798718 h -13.22916 -13.2291704 v 3.257263 c 0,3.208063 0.0174,3.274669 1.15263,4.409722 1.46753,1.467313 2.95497,1.631829 14.0202404,1.550694 7.73597,-0.05672 8.17735,-0.09663 9.3953,-0.849358 z m 44.6430496,0.188555 c 1.90817,-1.043619 2.22627,-1.823822 2.22627,-5.460371 v -3.272893 h -13.26222 -13.26222 l 0.12125,3.520463 c 0.2006,5.824385 0.57793,5.980483 14.23236,5.887928 7.64948,-0.05185 8.9687,-0.141411 9.94456,-0.675127 z m 4.60333,-11.935455 c 3.90745,-0.435706 5.16827,-0.958986 5.64616,-2.34334 0.20041,-0.580555 0.26827,-4.695289 0.16626,-10.082288 l -0.17235,-9.101431 -1.09815,0.257409 c -0.60398,0.141575 -3.79689,0.281305 -7.09536,0.31051 -3.29848,0.02921 -8.55662,0.07995 -11.68478,0.112773 l -5.68755,0.05967 -0.21927,1.37124 c -0.17428,1.089895 -0.94732,2.191134 -3.7677,5.367276 -4.77909,5.381918 -5.58705,5.848466 -8.41873,4.861336 -0.98027,-0.341723 -1.23547,-0.297606 -1.90473,0.329278 -2.0587,1.928353 -6.32133,1.91925 -7.92696,-0.01693 -0.35224,-0.424754 -0.73968,-0.47735 -1.76389,-0.239452 -2.9582396,0.687127 -3.1802896,0.58419 -6.7229396,-3.116636 -3.64710999,-3.809947 -4.84761999,-5.411737 -5.51845,-7.363066 l -0.45028,-1.309786 -7.30978,-0.06528 c -4.5879004,-0.04097 -7.3953504,-0.201356 -7.5395804,-0.430716 -0.21991,-0.349707 -3.49278,-0.64047 -5.34508,-0.47486 -0.82478,0.07374 -0.83622,0.100024 -0.17639,0.405511 0.47711,0.220891 0.0773,0.256824 -1.23472,0.110976 -1.06715,-0.118624 -2.20142,-0.352817 -2.5206,-0.520429 -1.33561,-0.701382 -1.53108,0.418312 -1.64188,9.405076 -0.12201,9.895931 0.04,10.719747 2.2977,11.686585 0.73459,0.314574 2.84374,0.681314 4.687,0.814977 5.76877,0.418319 71.61827,0.393513 75.40205,-0.0284 z m -36.40423,-10.573688 c 0.94783,-1.047344 0.86428,-3.07841 -0.16079,-3.908461 -0.44836,-0.363057 -1.16681,-0.660103 -1.59657,-0.660103 -1.11982,0 -2.35412,1.46392 -2.3932,2.838403 -0.0608,2.13919 2.72824,3.30181 4.15056,1.730161 z m -7.6791,-1.23718 c 0.56094,-0.392892 0.78406,-0.90711 0.78406,-1.806993 0,-1.088982 -0.369,-1.642709 -2.7489096,-4.125134 -1.5119,-1.577022 -2.98034,-3.169178 -3.2632,-3.538126 -0.42155,-0.549854 -0.54609,-3.041409 -0.69067,-13.817652 -0.097,-7.230761 -0.28234,-13.25255 -0.41184,-13.38176 -0.1295,-0.12921 -0.88356,-0.32186 -1.67569,-0.42811 l -1.44025,-0.19317 v 14.608228 c 0,13.105557 0.061,14.697955 0.59326,15.480477 1.1488,1.68903 6.26478,7.126331 6.97658,7.414759 0.9960396,0.403605 0.9972196,0.403472 1.8766596,-0.212519 z m 17.63625,-3.219969 c 1.49983,-1.644305 2.9651,-3.492981 3.25614,-4.108169 0.4488,-0.948665 0.51403,-3.301613 0.42949,-15.494217 l -0.0997,-14.37569 -0.78227,0.005 c -0.43025,0.003 -1.13946,0.10054 -1.57603,0.21753 l -0.79374,0.21272 v 13.120248 13.120251 l -3.5479,3.791701 c -3.30915,3.536554 -3.54061,3.878845 -3.43958,5.086741 0.0793,0.948721 0.33235,1.406121 0.9461,1.710419 1.3836,0.685988 2.67389,-0.07021 5.60746,-3.286351 z m -10.84162,-1.769487 2.35758,0.197651 1.46037,-1.488004 c 0.8032,-0.818402 1.46036,-1.611511 1.46036,-1.762464 0,-0.35416 -11.84969,-0.139727 -12.20912,0.220937 -0.14939,0.149902 0.4817,0.984159 1.40243,1.853906 1.46685,1.385635 1.76667,1.531785 2.42242,1.180839 0.4646,-0.248648 1.64232,-0.325571 3.10596,-0.202865 z m -33.90177,-11.729126 c 0.0177,-2.700006 -0.11086,-4.997565 -0.28581,-5.105687 -0.17494,-0.108122 -1.96324,-0.353079 -3.97401,-0.544349 -2.01076,-0.191271 -4.33061,-0.452042 -5.15523,-0.579493 l -1.49931,-0.231727 -0.008,3.133255 c -0.005,1.72329 -0.15143,3.749681 -0.32621,4.50309 -0.37634,1.622184 -0.001,2.835378 1.05108,3.3985 0.41263,0.220832 2.51846,0.532363 4.67962,0.692292 2.66389,0.19713 3.97786,0.436195 4.0799,0.742296 0.10318,0.309554 0.34789,0.207755 0.7783,-0.323779 0.53062,-0.655291 0.63279,-1.535156 0.66008,-5.684398 z m 42.00231,5.626087 c 0.67749,-0.677492 0.70534,-1.172109 0.70015,-12.435416 -0.003,-6.451423 -0.12203,-11.888614 -0.26458,-12.082634 -0.16137,-0.21965 -3.754,-0.35278 -9.5197,-0.35278 H 7.4776864 l 1e-4,12.143053 c 8e-5,10.804095 0.0645,12.214191 0.58394,12.788194 0.53385,0.589904 1.28895,0.645139 8.8194396,0.645139 7.76523,0 8.2759,-0.0403 8.94116,-0.705556 z m -5.65708,-10.172574 c 0.23242,-0.453181 0.51932,-0.727213 0.63758,-0.608962 0.11825,0.118251 -0.0719,0.489035 -0.42257,0.823964 -0.60952,0.582162 -0.61898,0.5727 -0.21501,-0.215002 z m 0.90412,-0.720061 c -0.13101,-0.596527 -0.13997,-1.243554 -0.0199,-1.437839 0.43255,-0.699885 -0.54184,-3.148395 -1.61088,-4.047938 -0.59331,-0.499234 -0.91999,-0.907698 -0.72596,-0.907698 0.61051,0 2.52525,1.802164 3.10416,2.921657 0.36078,0.69767 0.48965,1.562798 0.36795,2.470139 -0.25331,1.888531 -0.81065,2.389066 -1.11538,1.001679 z m -8.45514,-0.967047 c -0.33112,-1.319304 0.003,-1.432897 0.44896,-0.152769 0.20636,0.591987 0.24193,1.076341 0.079,1.076341 -0.1629,0 -0.40049,-0.415607 -0.52799,-0.923572 z m 0.15532,-2.075039 c 0,-0.09701 0.0794,-0.176389 0.17639,-0.176389 0.097,0 0.17639,0.07937 0.17639,0.176389 0,0.09701 -0.0794,0.176389 -0.17639,0.176389 -0.097,0 -0.17639,-0.07937 -0.17639,-0.176389 z m 0.11759,-0.764352 c 0.12935,-0.129352 0.34102,-0.129352 0.47037,0 0.12935,0.129352 0.0235,0.235185 -0.23518,0.235185 -0.25871,0 -0.36454,-0.105833 -0.23519,-0.235185 z m 4.40237,-2.828024 c 0.25466,-0.101907 0.55894,-0.08937 0.67616,0.02785 0.11723,0.117225 -0.0911,0.200604 -0.46302,0.185286 -0.41097,-0.01693 -0.49456,-0.100521 -0.21314,-0.213136 z m 29.96406,16.746254 c 0.60457,-0.498876 0.62021,-9.129365 0.0176,-9.731934 -0.29307,-0.293077 -2.11666,-0.423333 -5.92666,-0.423333 -3.81,0 -5.63359,0.130256 -5.92667,0.423333 -0.53134,0.531339 -0.59987,10.041841 -0.0736,10.218796 0.83386,0.280397 11.50835,-0.155984 11.90932,-0.486862 z m 8.88844,0.281162 c 3.47333,-0.409192 4.12999,-0.589608 4.69768,-1.290674 0.41993,-0.518593 0.57676,-1.078948 0.43122,-1.540789 -0.1258,-0.39919 -0.31546,-2.432362 -0.42147,-4.518161 l -0.19275,-3.792361 -1.2776,0.03316 c -0.70268,0.01824 -2.94448,0.216677 -4.98177,0.440973 l -3.70416,0.40781 -0.0986,4.9219 c -0.0542,2.707045 -0.0195,5.127983 0.0771,5.379861 0.21364,0.556754 0.40256,0.555313 5.47034,-0.04172 z m -57.6599596,-5.144763 v -5.115277 l -6.08542,-0.09652 -6.0854104,-0.09652 v 5.064812 c 0,2.785646 0.10953,5.174346 0.24341,5.308222 0.13387,0.133876 2.87231,0.200022 6.0854104,0.146991 l 5.84201,-0.09642 z m -0.24694,-8.184444 c 0.556,-0.556002 0.54418,-2.571527 -0.0176,-3.007357 -0.24254,-0.188145 -4.25098,-0.51376 -8.9076404,-0.723588 -6.21835,-0.280198 -9.4221,-0.587406 -12.06463,-1.156879 -1.97888,-0.426454 -3.85136,-0.678134 -4.16107,-0.559288 -0.30971,0.118845 -0.80736,0.800674 -1.1059,1.515174 -0.81486,1.95025 -0.28653,2.790694 2.05302,3.265847 4.68638,0.951783 23.4030804,1.466868 24.2038604,0.666091 z m 59.6601396,-0.257063 c 4.0853,-0.582881 4.96474,-1.525755 3.70154,-3.968525 -0.63611,-1.23009 -0.78284,-1.23211 -6.84669,-0.09427 -1.81556,0.34068 -6.19672,0.656639 -11.10471,0.800846 l -8.10609,0.238174 -0.33548,0.955926 c -0.23093,0.658008 -0.20176,1.2494 0.0936,1.897597 l 0.42905,0.941671 9.77641,-0.199092 c 5.37702,-0.1095 10.9536,-0.36705 12.39239,-0.572332 z m -59.3124896,-9.241676 -0.10071,-3.603963 -4.21531,-1.35845 c -5.9705604,-1.92412 -15.5538904,-6.90123 -19.2664104,-10.00603 l -1.5655,-1.30923 -0.27366,6.56811 c -0.33847,8.12376 -0.13364,9.652827 1.41421,10.556817 2.45757,1.4353 10.2466,2.488088 19.7740504,2.672721 l 4.33404,0.08399 z m 49.1239396,3.227784 c 7.21076,-0.527873 12.23613,-1.85027 12.82072,-3.373703 0.28032,-0.730493 0.29072,-15.684784 0.0109,-15.684784 -0.11495,0 -1.74214,1.00467 -3.61597,2.23259 -6.33616,4.15209 -12.33932,7.04666 -18.75281,9.04211 l -2.99861,0.93296 -0.10054,3.597558 -0.10054,3.597558 4.15748,-0.01029 c 2.28662,-0.0057 6.14733,-0.155959 8.57936,-0.333999 z m -18.70937,-8.106637 c 5.9637,-1.10609 16.1216,-4.72186 21.51944,-7.66 10.14484,-5.522 19.34299,-14.1095 23.3117,-21.76408 1.51281,-2.91782 1.32062,-3.40367 -1.34022,-3.38791 l -2.03954,0.0121 -2.11233,3.25111 c -2.68732,4.13609 -8.30817,9.8433 -13.38711,13.59279 -11.247,8.30303 -25.05339,12.41929 -40.06305,11.94447 -15.23653959,-0.482 -27.91541,-5.23651 -39.33472,-14.75033 -4.07052,-3.39128 -7.11339,-6.7246 -9.77752,-10.71081 -1.16708,-1.74625 -2.30209,-3.29164 -2.52223,-3.43419 -0.58503,-0.37883 -2.28188,-0.32619 -3.06928,0.0952 -1.10624,0.59204 -0.80191,1.80617 1.28657,5.13273 4.27494,6.80919 10.01053,12.24122 19.36052,18.33585 7.06857,4.60753 17.5113204,8.38627 27.3401104,9.8931 4.5515296,0.69779 15.6850696,0.40377 20.8276596,-0.55002 z m -59.54692,-0.0207 0.95447,-0.44678 0.10386,-6.03592 0.10387,-6.03593 -2.5958,-2.46945 c -1.42769,-1.35819 -3.6242,-3.69975 -4.88114,-5.20347 -1.25693,-1.50371 -2.41807,-2.73403 -2.58031,-2.73403 -0.4106,0 -0.93228,1.82218 -1.41399,4.93889 -1.10142,7.12636 -2.55356,12.5592 -4.26105,15.94171 l -1.01919,2.01901 1.14379,0.18838 c 2.54755,0.41957 3.82419,0.47669 8.55213,0.38262 3.04552,-0.0606 5.3048,-0.26953 5.89336,-0.54503 z m 110.04378,0.15181 0.93158,-0.21435 -1.15921,-2.52388 c -1.71899,-3.74267 -2.80778,-7.54626 -3.85294,-13.45999 -1.39713,-7.90524 -1.03739,-7.63799 -4.89659,-3.63774 -1.78383,1.84902 -4.09066,4.07845 -5.1263,4.95429 l -1.88298,1.59242 0.0458,6.30391 c 0.0252,3.46715 0.16955,6.42763 0.32078,6.57886 0.65698,0.65699 3.78895,0.92687 9.0438,0.77932 3.10445,-0.0872 6.06366,-0.25495 6.57604,-0.37284 z m 5.5544,-1.22946 c 0.96702,-0.20739 1.92325,-0.57592 2.12495,-0.81896 0.26206,-0.31576 0.0171,-1.44986 -0.85829,-3.97327 -1.27166,-3.66578 -2.78353,-10.46093 -3.48082,-15.64459 l -0.40336,-2.99861 -2.08502,0.0969 c -1.14676,0.0533 -2.29498,0.27119 -2.5516,0.48416 -1.47434,1.2236 0.88911,15.03302 3.44646,20.13727 1.0498,2.09533 1.67398,3.09412 1.93363,3.09412 0.0637,0 0.90703,-0.16968 1.87405,-0.37707 z m -132.79662,-1.29907 c 0.48167,-0.72785 1.19325,-2.24615 1.58128,-3.37399 1.07773,-3.13247 2.50094,-10.60876 2.73317,-14.35762 0.179,-2.88965 0.12465,-3.42547 -0.39086,-3.85331 -0.68377,-0.56747 -4.24959,-0.96323 -4.53347,-0.50315 -0.10334,0.16747 -0.37489,1.89199 -0.60344,3.83227 -0.60617,5.14593 -1.9436,11.54046 -3.16813,15.14742 -0.58873,1.73414 -1.07041,3.26873 -1.07041,3.41019 0,0.40854 1.81892,0.96328 3.25819,0.9937 1.14568,0.0242 1.43236,-0.1451 2.19367,-1.29551 z m -9.54469,0.23023 c 1.9968,-1.57068 3.88041,-7.06948 4.9582,-14.47436 1.09719,-7.5381 0.75524,-8.5387 -2.85419,-8.35199 l -2.06812,0.10699 -0.62685,4.23333 c -0.94445,6.3782 -2.18227,11.45102 -3.58271,14.68264 -0.69217,1.59725 -1.2585,3.04255 -1.2585,3.21178 0,0.46681 2.15062,1.30256 3.39201,1.31815 0.60442,0.008 1.5225,-0.31934 2.04016,-0.72654 z m 153.09385,0.009 c 1.1433,-0.89932 1.14838,-1.17285 0.0659,-3.54774 -1.12004,-2.4574 -2.41397,-7.49597 -3.52211,-13.71506 -0.48719,-2.73422 -0.97909,-5.12225 -1.0931,-5.30673 -0.29097,-0.47081 -3.12522,-0.41846 -4.21446,0.0778 -0.49886,0.2273 -1.00642,0.80935 -1.12792,1.29345 -0.52491,2.0914 2.18032,15.65091 3.72527,18.67231 1.17797,2.3037 2.30681,3.25709 3.85647,3.25709 0.86232,0 1.72924,-0.2744 2.3099,-0.73115 z m 5.235834,-3.01075 c 1.78408,-0.92258 4.51548,-3.69866 5.5096,-5.59972 0.75594,-1.4456 0.92767,-2.25686 0.93493,-4.41671 0.008,-2.2509 -0.13377,-2.88848 -0.9468,-4.27148 -1.20845,-2.05562 -2.45986,-2.891 -4.68393,-3.12676 -1.71055,-0.18134 -1.76487,-0.22245 -1.969934,-1.49091 -0.26636,-1.64765 -0.88524,-2.39973 -1.97469,-2.39973 -2.01433,0 -3.54091,3.18445 -3.10936,6.48614 0.74576,5.70555 3.74131,15.38608 4.76108,15.38608 0.21056,0 0.876154,-0.25511 1.479104,-0.56691 z m -164.895404,-1.46157 c 0.39447,-0.92163 1.12577,-3.18381 1.62511,-5.02708 2.30925,-8.52435 2.24865,-12.54029 -0.21526,-14.26608 -1.34163,-0.93971 -2.36415,-0.70572 -2.94013,0.67281 -0.28115,0.67286 -0.51117,1.53758 -0.51117,1.92158 0,0.58536 -0.22159,0.68936 -1.37109,0.64352 -1.72179,-0.0687 -3.85072,1.26842 -5.02365,3.15512 -1.13528,1.82612 -1.1627,5.53029 -0.0589,7.94968 1.32822,2.91119 5.30337,6.55893 7.20391,6.61056 0.35577,0.01 0.84653,-0.62133 1.29114,-1.66011 z m 89.76896,-0.26372 c 0.40129,-0.16428 0.61736,-0.6364 0.61736,-1.34897 0,-1.34385 -1.76215,-10.90219 -2.07377,-11.24863 -0.29097,-0.32348 -15.2123396,-0.54275 -15.2123396,-0.22354 0,0.13322 -0.39327,2.9092 -0.87394,6.16884 -0.51893,3.51905 -0.74477,6.05579 -0.55594,6.24461 0.1749,0.17491 1.24286,0.4469 2.3732496,0.60442 2.38549,0.33244 14.81253,0.17697 15.72538,-0.19673 z m -20.7665796,-1.07984 c 0.35902,-0.93561 1.68928,-10.65626 1.56728,-11.45262 -0.0976,-0.63678 -1.00669,-1.04643 -5.91507999,-2.66527 -3.18989001,-1.05207 -6.20191001,-1.91285 -6.69338001,-1.91285 -0.63172,0 -1.47532,0.61135 -2.87875,2.08621 -2.5750404,2.70611 -5.3762004,6.64164 -5.1488904,7.23401 0.50446,1.31462 8.1189804,4.60084 14.34721041,6.19187 4.84552999,1.23782 4.46180999,1.19567 4.72160999,0.51865 z m 32.3200496,-1.64413 c 3.69818,-1.16598 7.90229,-3.00059 9.52681,-4.15735 0.99596,-0.70918 1.02524,-0.79896 0.55324,-1.69667 -0.80095,-1.52338 -3.25971,-4.67799 -5.23304,-6.71405 -2.12364,-2.19115 -2.25033,-2.19927 -7.05617,-0.45236 -1.59836,0.581 -4.05705,1.39988 -5.46376,1.81973 -2.22937,0.66539 -2.55763,0.86938 -2.55763,1.58933 0,0.99561 1.71705,11.09136 1.95067,11.46936 0.21125,0.3418 3.99755,-0.50784 8.27988,-1.85799 z m -49.70495,-11.2459 c 2.21113,-2.54122 4.0653004,-4.74018 4.1203904,-4.88659 0.0551,-0.1464 -0.65929,-0.87136 -1.5875,-1.61103 -0.9282104,-0.73966 -2.3639204,-1.98842 -3.1904604,-2.77501 l -1.5028,-1.43018 -2.99195,1.48385 c -3.22313,1.59851 -8.9955,5.23024 -8.9955,5.65959 0,0.8852 8.81893,8.17977 9.88911,8.17977 0.13116,0 2.04758,-2.07918 4.25871,-4.6204 z m 65.00352,3.31298 c 3.09918,-2.2372 6.86044,-5.41849 7.42496,-6.28005 0.53112,-0.8106 0.49287,-0.85419 -2.35027,-2.67799 -1.5896,-1.01969 -4.28355,-2.54633 -5.98654,-3.39255 l -3.09635,-1.53857 -2.73477,2.35425 c -1.50412,1.29483 -2.95446,2.55818 -3.22298,2.80743 -0.40896,0.37963 -0.0365,0.95882 2.29475,3.56835 1.53062,1.71334 3.39663,3.86922 4.14668,4.79086 0.75004,0.92163 1.44239,1.67569 1.53854,1.67569 0.0962,0 0.98984,-0.58834 1.98598,-1.30742 z m -28.11646,-4.69591 c 7.54593,-0.94618 19.06931,-6.16238 21.06058,-9.53333 1.78455,-3.021 -1.44945,-2.80858 -6.18334,0.40614 -5.43414,3.69025 -14.78629,6.31108 -22.52046,6.31108 -7.9160596,0 -16.60353959,-2.49771 -22.7244996,-6.53344 -2.93744,-1.93674 -3.70313,-2.28601 -5.0116104,-2.28601 -1.7281,0 -1.74996,0.0421 -0.91014,1.75082 1.6880904,3.43472 12.41952041,8.45843 20.7087504,9.6944 3.8856896,0.57938 11.7152196,0.67503 15.5807196,0.19034 z m -49.41098,-6.0293 c 1.37821,-0.92252 3.89818,-2.49969 5.59992,-3.50483 l 3.09407,-1.82753 -0.98048,-0.8425 c -0.53927,-0.46338 -1.27656,-0.84251 -1.63842,-0.84251 -1.01607,0 -12.41674,2.87985 -12.80776,3.23528 -0.72079,0.6552 2.98183,6.1898 3.81424,5.70144 0.22692,-0.13313 1.54021,-0.99684 2.91843,-1.91935 z m 89.12817,-0.5507 c 1.88039,-2.62532 2.02732,-3.20063 0.88195,-3.45339 -0.43656,-0.0963 -3.10584,-0.73437 -5.93173,-1.41783 -5.97035,-1.44399 -7.14786,-1.52501 -7.83824,-0.53936 -0.27094,0.38682 -0.55872,0.66464 -0.63952,0.61736 -0.0808,-0.0473 0.17157,0.18725 0.56081,0.52116 0.38924,0.33392 1.58083,1.08227 2.64799,1.66302 1.06715,0.58075 3.36902,1.92883 5.11527,2.99573 1.74625,1.06691 3.25438,1.94276 3.35139,1.94634 0.097,0.004 0.93045,-1.04629 1.85208,-2.33303 z m -37.21658,0.084 c 3.14107,-0.85956 6.08395,-2.09345 6.08395,-2.55087 0,-0.12056 -1.91063,-0.10744 -4.24585,0.0292 -6.00209,0.35108 -19.2677596,0.27381 -23.4472096,-0.13657 -4.40664,-0.43269 -5.11526999,-0.441 -5.11526999,-0.06 0,0.4418 3.69301999,2.01846 6.28436999,2.68299 3.9503696,1.01303 6.1330296,1.21236 11.7072896,1.06916 4.45328,-0.11441 6.07392,-0.30628 8.73272,-1.03386 z m 3.43811,-5.8693 c 10.57193,-0.87856 21.54965,-3.56831 29.25047,-7.16692 12.15873,-5.68181 18.91623,-14.33023 19.83857,-25.38992 l 0.23359,-2.80087 -1.0252,0.26034 c -2.66082,0.67572 -7.49627,1.65688 -12.31409,2.49866 -4.22093,0.7375 -6.89778,0.96429 -13.22917,1.12084 -8.49618,0.21008 -11.59324,-0.0645 -14.96799,-1.32719 -3.16537,-1.18432 -4.50341,-2.58264 -14.23061,-14.87169 -1.88867,-2.38609 -4.14513,-3.45184 -7.30841,-3.45184 -4.10909,0 -4.88496,0.57265 -10.0374996,7.40834 -7.42793999,9.85439 -9.20238,11.19063 -15.9764,12.031 -4.0404704,0.50125 -16.2705804,0.17628 -21.1908904,-0.56308 -2.8663,-0.43071 -11.40089,-2.30675 -14.67939,-3.22677 l -0.84814,-0.238 0.23973,2.33982 c 0.31162,3.04167 1.7063,7.81671 3.08886,10.57554 3.64351,7.27042 9.4471,12.28425 18.88573,16.31573 13.53117,5.77952 33.72751,8.19322 54.27084,6.48601 z m -20.49102,-27.97439 c -1.3810296,-0.62608 -2.5131396,-2.05962 -2.9718396,-3.76309 -0.39434,-1.46448 -0.0315,-2.93918 0.80186,-3.25897 0.78078,-0.29961 1.20279,0.14747 1.69483,1.79552 0.5279896,1.76845 1.4403996,2.53345 3.0216496,2.53345 1.07389,0 1.90511,-0.68181 3.12786,-2.56565 0.19403,-0.29893 0.70249,-0.64603 1.12992,-0.77132 0.64796,-0.18994 0.89738,0.008 1.50046,1.19001 0.81225,1.59215 1.6133,2.14696 3.09983,2.14696 1.41778,0 2.07408,-0.61161 2.80765,-2.61648 0.74466,-2.03519 1.19694,-2.289 2.23287,-1.25306 0.61612,0.61612 0.71636,1.00576 0.52749,2.05052 -0.78877,4.36339 -5.24943,6.2866 -8.93067,3.85047 l -1.3237,-0.87598 -1.14902,0.8861 c -1.389,1.07116 -3.97598,1.3738 -5.56919,0.65152 z m 4.76153,-7.37798 c -1.43996,-0.97039 -2.07545,-2.12849 -2.07518,-3.78177 2.5e-4,-1.52634 0.27207,-1.97335 1.479,-2.43222 0.77761,-0.29565 0.91095,-0.26817 0.74882,0.15431 -0.20331,0.52983 0.49577,0.6561 2.91697,0.52687 0.61587,-0.0329 1.35204,0.19497 1.67569,0.51863 0.31749,0.31749 0.57725,0.41334 0.57725,0.21302 0,-0.20033 -0.33513,-0.67646 -0.74474,-1.05807 -0.67566,-0.62948 -0.68384,-0.68234 -0.0882,-0.5699 0.36111,0.0682 0.75636,0.13608 0.87834,0.15092 0.51166,0.0623 1.07846,2.21295 0.87252,3.31071 -0.32083,1.71013 -2.70968,3.77184 -4.37033,3.77184 -0.37212,0 -1.21368,-0.36195 -1.87014,-0.80434 z m 4.96977,-3.25261 c 0,-0.097 -0.0794,-0.17638 -0.17639,-0.17638 -0.097,0 -0.17638,0.0794 -0.17638,0.17638 0,0.097 0.0794,0.17639 0.17638,0.17639 0.097,0 0.17639,-0.0794 0.17639,-0.17639 z m -4.59632,-1.22094 c 0.28542,-0.18051 0.44392,-0.40322 0.35222,-0.49492 -0.0917,-0.0917 -0.47463,0.0584 -0.85096,0.3336 -0.75263,0.55033 -0.33168,0.6865 0.49874,0.16132 z m -47.5015,38.25956 c 6.51199,-0.10436 9.41172,-0.36645 9.41172,-0.85066 0,-0.15472 -1.30969,-0.79761 -2.91042,-1.42864 -2.79939,-1.10356 -7.12465,-3.42064 -8.09072,-4.33426 -0.25528,-0.24142 -1.35503,-1.10222 -2.44389,-1.9129 l -1.97975,-1.47394 -11.16514,-0.0802 c -6.14083,-0.0441 -11.26131,0.0159 -11.37886,0.13349 -0.24971,0.2497 4.79622,8.06456 6.16724,9.55148 l 0.93348,1.01239 7.58472,-0.25798 c 4.1716,-0.14189 10.41383,-0.30332 13.87162,-0.35874 z m 124.07582,-4.24722 c 1.75934,-2.62869 3.2929,-5.02465 3.40791,-5.32436 0.18664,-0.48637 -0.99331,-0.52774 -10.98026,-0.38501 l -11.18938,0.15991 -1.64911,1.16693 c -4.41232,3.12222 -7.00944,4.72767 -9.43883,5.83478 -1.46097,0.66578 -2.79593,1.21052 -2.96657,1.21052 -0.17065,0 -0.75717,0.17874 -1.30338,0.39721 l -0.9931,0.39721 1.05833,0.34112 c 1.08409,0.34943 13.43749,0.81153 24.60001,0.92022 l 6.25557,0.0609 z m -133.29495,-9.35253 c -0.95126,-1.17564 -2.41508,-3.30037 -3.25294,-4.72162 l -1.52338,-2.58411 -13.78461,-0.1969 c -15.82278,-0.22601 -20.375,-0.68269 -10.08044,-1.01125 3.58951,-0.11457 10.25532,-0.23703 14.8129,-0.27214 4.55759,-0.0351 8.32143,-0.0987 8.36409,-0.14142 0.0427,-0.0427 -0.15651,-0.974 -0.44262,-2.06964 -0.28611,-1.09563 -0.75224,-3.5495 -1.03584,-5.45303 -0.8486,-5.69588 -0.8412,-5.69357 -20.6402,-6.44192 l -6.87917,-0.26002 6.87917,-0.0577 c 7.69513,-0.0646 11.71651,-0.35175 11.42945,-0.81622 -0.10558,-0.17084 -1.10924,-0.77365 -2.23036,-1.33959 -1.12112,-0.56594 -2.5383,-1.44962 -3.1493,-1.96374 -1.35286,-1.13836 -1.36987,-1.52089 -0.43117,-9.69149 0.3678,-3.20146 0.61983,-5.8706 0.56006,-5.93143 -0.0598,-0.0608 -3.49848,-0.2346 -7.64159,-0.38617 l -7.53292,-0.27558 7.6479,-0.0548 7.64791,-0.0548 0.41854,-2.02847 c 1.26617,-6.13651 4.08126,-9.15782 11.09676,-11.90965 2.82217,-1.107 2.82222,-1.10704 2.7043,-2.3157 -0.0649,-0.66477 -0.22361,-1.31561 -0.35278,-1.4463 -0.12917,-0.13069 -3.53349,-0.35168 -7.56514,-0.49108 -4.03166,-0.1394 -7.39081,-0.35138 -7.46478,-0.47106 -0.074,-0.11968 3.31824,-0.16027 7.53824,-0.0902 l 7.67271,0.12739 0.23585,-5.23954 c 0.14253,-3.16629 0.49446,-6.2649 0.88941,-7.83081 l 0.65355,-2.59125 -1.62652,-0.70127 c -0.89458,-0.38569 -4.32526,-1.38954 -7.62373,-2.23077 -3.29847,-0.84124 -5.74527,-1.54242 -5.43732,-1.55818 1.45278,-0.0744 7.71465,1.09883 11.1257,2.08446 l 3.79608,1.09689 2.35082,-2.57514 c 1.29294,-1.41633 3.71846,-3.58739 5.39004,-4.82457 l 3.03923,-2.24943 -1.13644,-1.5852 c -0.62505,-0.87186 -1.45395,-1.85084 -1.842,-2.17551 -1.0956,-0.91664 -2.62899,-2.77267 -1.76528,-2.1367 0.3873,0.28517 0.88096,0.67724 1.09702,0.87126 0.67653,0.60753 2.78095,2.43824 3.6497,3.175 l 0.83195,0.70556 -0.62435,-0.97014 c -0.84437,-1.31201 -0.16886,-1.23866 0.81212,0.0882 0.43035,0.58208 0.99264,1.05833 1.24953,1.05833 0.2569,0 1.9587,-0.69473 3.7818,-1.54384 1.8231,-0.84911 4.77236,-2.0692 6.5539,-2.71131 2.20371,-0.79427 3.29268,-1.37208 3.40656,-1.80755 0.0921,-0.35204 0.0235,-0.64008 -0.15237,-0.64008 -0.17586,0 -0.31975,-0.17833 -0.31975,-0.39629 0,-0.21797 -0.72224,-1.58593 -1.60498,-3.03993 -0.88275,-1.45399 -1.53988,-2.70873 -1.46031,-2.7883 0.1844,-0.1844 2.00696,2.19023 2.00696,2.61489 0,0.1749 0.46986,0.73666 1.04414,1.24834 0.57428,0.51168 1.28716,1.40027 1.58417,1.97464 l 0.54004,1.04431 2.20818,-0.62952 c 1.2145,-0.34624 3.77341,-0.92348 5.68647,-1.28276 2.1172504,-0.39763 3.5507404,-0.84208 3.6634704,-1.13585 0.30525,-0.79546 -0.56106,-5.21467 -1.62722,-8.30075 -0.54926,-1.5899 -1.10352,-3.52572 -1.23167,-4.30183 l -0.23302,-1.41111 0.56656,1.01323 c 0.68223,1.22008 3.50927,9.72738 3.86366,11.62674 0.29926,1.60391 0.55145,1.73489 2.63244,1.36719 1.26452,-0.22344 1.58022,-0.42083 1.55172,-0.97022 -0.0197,-0.37935 -0.62928,-3.44032 -1.35469,-6.80216 -0.7254,-3.36184 -1.24195,-6.18941 -1.14787,-6.28348 0.0941,-0.0941 0.96968,2.25965 1.9458,5.23049 l 1.77477001,5.40154 0.0263,-11.1359 c 0.029,-12.28825 0.22638,-14.08641 1.95915999,-17.84394 1.15197,-2.49805 1.15977,-2.55057 0.83823,-5.64445 -1.12863,-10.85984 -3.45809999,-19.5271 -5.24822,-19.5271 -0.99928,0 -8.6233604,2.02256 -12.0352804,3.19278 -1.67589,0.57479 -3.50152,1.1086 -4.05694,1.18622 -1.96723,0.27493 -3.30293,0.65174 -3.30293,0.93176 0,0.15601 -0.91281,0.47233 -2.02847,0.70292 -1.11566,0.23058 -2.42535,0.69494 -2.91042,1.0319 -0.48507,0.33695 -1.30741,0.71541 -1.82741,0.84101 -0.52001,0.1256 -1.18336,0.46625 -1.47411,0.757 -0.29075,0.29075 -0.89716,0.54117 -1.34759,0.55649 -0.45042,0.0153 -0.62943,0.10495 -0.39779,0.19918 0.56143,0.22839 0.17116,1.18408 -0.48353,1.18408 -0.85091,0 -3.64138,2.10477 -3.64719,2.75097 -0.004,0.49495 -0.0615,0.51182 -0.32458,0.0961 -0.26326,-0.416 -0.54157,-0.33472 -1.5887,0.46397 -0.69825,0.53257 -1.16803,1.13256 -1.04397,1.3333 0.14426,0.23342 -0.0357,0.22513 -0.49936,-0.023 -0.90497,-0.48432 -1.1241,-0.48712 -1.1241,-0.0144 0,0.20548 0.14778,0.28226 0.3284,0.17063 0.18062,-0.11163 0.42811,-0.0416 0.54999,0.15557 0.12187,0.19719 -0.0353,0.35853 -0.34922,0.35853 -0.31395,0 -0.49873,0.11907 -0.41063,0.26459 0.0881,0.14552 -0.0915,0.4975 -0.39911,0.78219 -0.49704,0.46 -0.53216,0.4469 -0.31551,-0.11767 0.16476,-0.42937 0.10077,-0.58528 -0.19743,-0.48101 -0.24267,0.0848 -0.40197,0.38338 -0.354,0.66341 0.048,0.28003 -1.72746,2.1316 -3.9454,4.1146 -6.47479,5.78894 -13.05876,13.81442 -18.06229,22.01689 -1.51211,2.47885 -2.918,4.507 -3.1242,4.507 -0.62788,0 -1.62306,1.39992 -3.05139,4.29238 -1.49812,3.03379 -1.61238,3.41108 -0.83856,2.76886 0.28727,-0.23842 -0.24439,1.21058 -1.18148,3.22 -0.93709,2.00941 -1.80215,3.93129 -1.92235,4.27084 -0.12021,0.33955 -0.50136,0.61979 -0.847,0.62277 -0.49051,0.004 -0.52264,0.0724 -0.14642,0.31076 0.36537,0.23147 0.38931,0.46493 0.0989,0.96474 -0.28721,0.49435 -0.38712,0.52694 -0.39922,0.1302 -0.0141,-0.46382 -0.0567,-0.46497 -0.34488,-0.009 -0.19183,0.30334 -0.19722,0.60115 -0.013,0.71503 0.17369,0.10735 -0.21344,1.54029 -0.86028,3.18431 -5.14056,13.06531 -6.49835,16.68034 -9.001333,23.96539 -3.416692,9.94446 -4.977277,15.08447 -7.555416,24.88486 -2.358406,8.9651 -4.888636,21.25748 -4.740058,23.02819 0.09028,1.07589 0.400665,1.51437 1.872108,2.64472 1.564392,1.20175 2.726452,1.88671 7.584721,4.47072 1.134993,0.60368 3.483265,1.61772 10.054168,4.34165 1.35819,0.56304 4.69194,1.81145 7.40833,2.77426 2.71639,0.96281 5.61708,1.99682 6.44598,2.2978 0.82889,0.30097 1.78139,0.92465 2.11666,1.38594 l 0.60958,0.83871 10.86393,0.0111 10.86394,0.0111 z m -36.63767,-8.32822 c 0.12935,-0.12935 0.34102,-0.12935 0.47037,0 0.12935,0.12935 0.0235,0.23519 -0.23518,0.23519 -0.25871,0 -0.36454,-0.10584 -0.23519,-0.23519 z m 0.94074,0.0588 c 0,-0.097 0.0794,-0.17639 0.17639,-0.17639 0.097,0 0.17639,0.0794 0.17639,0.17639 0,0.097 -0.0794,0.17639 -0.17639,0.17639 -0.097,0 -0.17639,-0.0794 -0.17639,-0.17639 z m 10.49514,-54.40035 c 0.43656,-0.0841 1.15094,-0.0841 1.5875,0 0.43656,0.0841 0.0794,0.15288 -0.79375,0.15288 -0.87312,0 -1.23031,-0.0688 -0.79375,-0.15288 z m 3.73357,-20.09455 c 0.12935,-0.12936 0.34101,-0.12936 0.47037,0 0.12935,0.12935 0.0235,0.23518 -0.23519,0.23518 -0.2587,0 -0.36454,-0.10583 -0.23518,-0.23518 z m 42.56851,-16.69815 c 0,-0.2587 0.10583,-0.36454 0.23519,-0.23519 0.12935,0.12936 0.12935,0.34102 0,0.47037 -0.12936,0.12936 -0.23519,0.0235 -0.23519,-0.23518 z m -49.74166,-3.35139 c 0,-0.097 0.0794,-0.17639 0.17639,-0.17639 0.097,0 0.17639,0.0794 0.17639,0.17639 0,0.097 -0.0794,0.17639 -0.17639,0.17639 -0.097,0 -0.17639,-0.0794 -0.17639,-0.17639 z m 46.00381,-0.93645 c -0.15596,-0.25234 -0.0968,-0.31153 0.15557,-0.15557 0.224,0.13844 0.40728,0.32172 0.40728,0.40728 0,0.29427 -0.31152,0.15495 -0.56285,-0.25171 z m -1.30066,-1.53739 c -0.39633,-0.5447 -0.45874,-0.79892 -0.1688,-0.68766 0.52947,0.20318 1.46752,1.57959 1.06516,1.56291 -0.14716,-0.006 -0.55053,-0.39996 -0.89636,-0.87525 z m -2.5799,-3.04872 c -0.15595,-0.25234 -0.0968,-0.31153 0.15557,-0.15557 0.22401,0.13844 0.40729,0.32172 0.40729,0.40728 0,0.29427 -0.31153,0.15495 -0.56286,-0.25171 z m -39.30103,-0.12188 c 0,-0.097 0.0794,-0.17639 0.17639,-0.17639 0.097,0 0.17639,0.0794 0.17639,0.17639 0,0.097 -0.0794,0.17639 -0.17639,0.17639 -0.097,0 -0.17639,-0.0794 -0.17639,-0.17639 z m 29.04537,-33.57269 c 0.12935,-0.12935 0.34102,-0.12935 0.47037,0 0.12935,0.12936 0.0235,0.23519 -0.23519,0.23519 -0.2587,0 -0.36453,-0.10583 -0.23518,-0.23519 z m 1.29352,-0.82314 c 0,-0.25871 0.10583,-0.36454 0.23518,-0.23519 0.12935,0.12935 0.12935,0.34102 0,0.47037 -0.12935,0.12935 -0.23518,0.0235 -0.23518,-0.23518 z m 1.41111,-0.88195 c 0,-0.097 0.0794,-0.17639 0.17639,-0.17639 0.097,0 0.17638,0.0794 0.17638,0.17639 0,0.097 -0.0794,0.17639 -0.17638,0.17639 -0.097,0 -0.17639,-0.0794 -0.17639,-0.17639 z m 0.70555,-0.35278 c 0,-0.097 0.0794,-0.17638 0.17639,-0.17638 0.097,0 0.17639,0.0794 0.17639,0.17638 0,0.097 -0.0794,0.17639 -0.17639,0.17639 -0.097,0 -0.17639,-0.0794 -0.17639,-0.17639 z m 0.99219,-0.77015 c 0.25466,-0.10191 0.55893,-0.0894 0.67616,0.0279 0.11722,0.11723 -0.0911,0.2006 -0.46302,0.18529 -0.41097,-0.0169 -0.49456,-0.10052 -0.21314,-0.21314 z m 7.82726,-4.87429 c 0,-0.097 0.0794,-0.17639 0.17639,-0.17639 0.097,0 0.17638,0.0794 0.17638,0.17639 0,0.097 -0.0794,0.17639 -0.17638,0.17639 -0.097,0 -0.17639,-0.0794 -0.17639,-0.17639 z m 122.22423,151.00829 c 0.53671,-0.64402 2.46153,-1.43761 7.597984,-3.1326 3.78354,-1.24854 8.62541,-3.01575 10.75972,-3.92714 5.57339,-2.37993 14.21452,-7.02337 15.94717,-8.56944 l 1.48329,-1.32357 -0.63875,-3.28296 c -0.35131,-1.80563 -0.81658,-3.46079 -1.03392,-3.67813 -0.24857,-0.24857 -0.27323,-0.54211 -0.0665,-0.79122 0.50737,-0.61135 -3.7442,-18.83728 -4.60469,-19.7397 -0.17208,-0.18047 -0.99072,-0.43842 -1.8192,-0.57321 l -1.50631,-0.24507 1.49931,-0.0442 c 1.23851,-0.0365 1.4993,-0.16434 1.4993,-0.73509 0,-0.81515 -4.81487,-16.36882 -5.46491,-17.65351 -0.24544,-0.48507 -0.80157,-2.07257 -1.23584,-3.52777 -0.82457,-2.76305 -3.42362,-10.0418 -5.41287,-15.15898 -0.9221,-2.372 -1.33872,-3.03761 -2.02053,-3.22803 -0.55993,-0.15639 -0.64401,-0.25213 -0.24154,-0.27505 0.33955,-0.0193 0.61736,-0.16564 0.61736,-0.3251 0,-1.77121 -8.87342,-20.88877 -10.18272,-21.93843 -0.12333,-0.0989 -0.84078,-1.36887 -1.594354,-2.82222 -5.12795,-9.88994 -15.22392,-22.28658 -23.32432,-28.63947 -10.21504,-8.01135 -22.11563,-13.93004 -34.32281,-17.07027 -2.57922,-0.66348 -5.068,-1.20634 -5.53063,-1.20634 -1.87758,0 -4.15665,7.45451 -5.11836,16.74141 l -0.62265,6.01276 0.99684,2.3149 c 1.66201,3.85962 1.80976,5.14347 2.04772,17.79343 l 0.22562,11.99444 0.81032,-2.64583 c 2.72749,-8.90573 3.10611,-9.11604 1.36114,-0.75608 -1.34051,6.42218 -1.48588,5.80128 1.43858,6.14437 1.14778,0.13466 1.1508,0.13083 1.86342,-2.36212 0.39258,-1.37335 0.94098,-2.97325 1.21867,-3.55534 l 0.50489,-1.05833 -0.1509,1.41111 c -0.61881,5.78646 -0.61876,5.78763 0.24867,5.96275 0.44552,0.0899 2.79442,0.59359 5.21976,1.11922 2.42535,0.52563 4.75025,1.02785 5.16644,1.11604 0.64168,0.13598 1.00764,-0.29996 2.40722,-2.86753 0.90778,-1.66533 1.82788,-3.13751 2.04469,-3.2715 0.2168,-0.13399 0.0572,0.30153 -0.35454,0.96783 -0.89618,1.45005 -2.39597,4.88301 -1.9142,4.38152 0.1864,-0.19402 1.16585,-1.8609 2.17655,-3.70416 1.01071,-1.84327 2.48307,-4.22452 3.27191,-5.29167 1.40175,-1.89629 6.5986,-7.24065 9.09056,-9.34861 2.83275,-2.39622 2.81881,-2.26518 -0.047,0.44213 -5.71226,5.39631 -10.65126,11.54759 -12.9579,16.13843 -1.70066,3.38477 -1.76123,3.24863 2.05239,4.61306 1.84327,0.65949 4.99032,1.99407 6.99346,2.96575 3.04499,1.47706 3.76202,1.70249 4.37377,1.37509 0.40244,-0.21538 2.25101,-1.72759 4.10793,-3.36046 1.85691,-1.63288 3.93684,-3.28158 4.62205,-3.66379 l 1.24585,-0.69491 -1.40731,1.14652 c -1.4404,1.17347 -5.36114,5.00404 -6.80881,6.65221 l -0.80771,0.91958 2.26619,1.47648 c 2.3882,1.55597 5.71307,4.59882 7.47275,6.8389 l 1.04878,1.33509 3.67017,-1.06101 c 4.09872,-1.1849 12.72374,-2.85683 14.54699,-2.81988 0.65209,0.0132 -1.76536,0.71325 -5.37209,1.55562 -6.78108,1.58377 -11.08753,2.78108 -11.90541,3.31004 -0.38779,0.25079 -0.36234,0.61084 0.14339,2.02913 0.46064,1.29182 0.65385,3.22829 0.77039,7.72146 0.0856,3.29847 0.25916,6.10359 0.38578,6.23359 0.12662,0.13001 3.46557,0.0792 7.41988,-0.11283 4.42544,-0.21495 7.31564,-0.22324 7.51731,-0.0216 0.20168,0.20167 -1.9522,0.43127 -5.60216,0.59717 -3.2614,0.14824 -6.72356,0.36908 -7.6937,0.49075 -1.66468,0.20877 -1.76995,0.28362 -1.87168,1.33077 -0.10637,1.09504 -0.0496,1.13784 4.33786,3.27099 6.58375,3.20094 8.5038,5.24691 9.5309,10.15593 0.26362,1.25996 0.56059,2.37212 0.65992,2.47145 0.0993,0.0993 5.110594,0.1605 11.136114,0.13591 6.29135,-0.0257 10.9555,0.0905 10.9555,0.27285 0,0.17575 -4.84413,0.43252 -10.84792,0.57501 -5.96635,0.14161 -10.936244,0.30897 -11.044204,0.37191 -0.10796,0.063 0.0726,2.22751 0.4013,4.81014 0.32867,2.58264 0.69515,5.8383 0.81439,7.23482 l 0.2168,2.53912 -1.14727,0.86927 c -0.63099,0.47809 -2.30445,1.49503 -3.71879,2.25986 l -2.57152,1.3906 2.1823,0.2281 c 1.20026,0.12545 5.64214,0.22809 9.870844,0.22809 4.74516,0 7.77201,0.13506 7.90657,0.35278 0.142,0.22977 -1.84964,0.35452 -5.71182,0.35776 -8.384864,0.007 -17.542524,0.58426 -20.099614,1.26691 -2.35439,0.62853 -2.57327,0.91585 -2.58236,3.3899 -0.004,1.07165 -0.99847,6.92551 -1.47112,8.65913 -0.12318,0.4518 4.35615,0.59536 24.044084,0.77056 5.32862,0.0474 6.99983,0.15951 6.35,0.42591 -0.95575,0.39181 -15.511144,0.95983 -25.306734,0.9876 l -6.08034,0.0172 -1.03899,2.02847 c -1.07792,2.10446 -1.85524,3.25529 -3.8515,5.70211 l -1.17617,1.44164 h 10.51153 10.51153 z m 16.770204,-24.0083 c 0,-0.097 0.0794,-0.17639 0.17639,-0.17639 0.097,0 0.17639,0.0794 0.17639,0.17639 0,0.097 -0.0794,0.17639 -0.17639,0.17639 -0.097,0 -0.17639,-0.0794 -0.17639,-0.17639 z m 13.18615,-0.21932 c -0.43638,-0.17142 -0.0905,-0.26872 1.01315,-0.28505 0.92164,-0.0136 1.6757,0.0366 1.6757,0.11155 0,0.28822 -2.05862,0.42105 -2.68885,0.1735 z m -4.95467,-21.00614 c 0.12935,-0.12935 0.34102,-0.12935 0.47037,0 0.12935,0.12935 0.0235,0.23518 -0.23518,0.23518 -0.25871,0 -0.36454,-0.10583 -0.23519,-0.23518 z m -18.81481,-39.83067 c 1.26118,-0.25886 2.68993,-0.46026 3.175,-0.44757 0.48507,0.0127 -0.22931,0.23366 -1.5875,0.49103 -1.3582,0.25736 -2.78695,0.45876 -3.175,0.44756 -0.38806,-0.0112 0.32632,-0.23217 1.5875,-0.49102 z m -22.930564,-14.43831 c 0,-0.097 0.0794,-0.17639 0.17639,-0.17639 0.097,0 0.17639,0.0794 0.17639,0.17639 0,0.097 -0.0794,0.17639 -0.17639,0.17639 -0.097,0 -0.17639,-0.0794 -0.17639,-0.17639 z m 0.70556,-0.35278 c 0,-0.097 0.0794,-0.17639 0.17639,-0.17639 0.097,0 0.17639,0.0794 0.17639,0.17639 0,0.097 -0.0794,0.17639 -0.17639,0.17639 -0.097,0 -0.17639,-0.0794 -0.17639,-0.17639 z m 0.70555,-0.35277 c 0,-0.097 0.0794,-0.17639 0.17639,-0.17639 0.097,0 0.17639,0.0794 0.17639,0.17639 0,0.097 -0.0794,0.17638 -0.17639,0.17638 -0.097,0 -0.17639,-0.0794 -0.17639,-0.17638 z m -39.5111,-7.40834 c 0,-0.097 0.0794,-0.17639 0.17639,-0.17639 0.097,0 0.17638,0.0794 0.17638,0.17639 0,0.097 -0.0794,0.17639 -0.17638,0.17639 -0.097,0 -0.17639,-0.0794 -0.17639,-0.17639 z m 0,-0.70555 c 0,-0.097 0.0794,-0.17639 0.17639,-0.17639 0.097,0 0.17638,0.0794 0.17638,0.17639 0,0.097 -0.0794,0.17639 -0.17638,0.17639 -0.097,0 -0.17639,-0.0794 -0.17639,-0.17639 z m 1.41111,-2.46945 c 0,-0.097 0.0794,-0.17639 0.17639,-0.17639 0.097,0 0.17639,0.0794 0.17639,0.17639 0,0.097 -0.0794,0.17639 -0.17639,0.17639 -0.097,0 -0.17639,-0.0794 -0.17639,-0.17639 z m 0,-1.41111 c 0,-0.097 0.0794,-0.17639 0.17639,-0.17639 0.097,0 0.17639,0.0794 0.17639,0.17639 0,0.097 -0.0794,0.17639 -0.17639,0.17639 -0.097,0 -0.17639,-0.0794 -0.17639,-0.17639 z m 28.92777,-7.1942 c 0,-0.17327 0.26058,-0.41503 0.57907,-0.53724 0.48418,-0.1858 0.506,-0.13417 0.13319,0.31503 -0.50804,0.61216 -0.71226,0.67587 -0.71226,0.22221 z m 1.41111,-1.03206 c 0,-0.42635 0.66929,-0.92343 0.91394,-0.67878 0.0888,0.0888 -0.0805,0.36226 -0.37624,0.60769 -0.33528,0.27825 -0.5377,0.30502 -0.5377,0.0711 z m -82.2898396,99.79042 c 3.50806,-0.33945 6.2822,-1.36255 7.85374,-2.89645 0.48507001,-0.47345 2.62286,-3.0755 4.75065,-5.78232 5.42619,-6.90282 6.8732496,-8.36303 9.4206196,-9.50622 1.90297,-0.854 2.47377,-0.94925 4.84095,-0.8078 2.98306,0.17824 4.9077,0.9681 6.68172,2.74212 0.59456,0.59456 2.8897,3.33913 5.1003,6.09904 7.07154,8.82873 8.13705,9.56224 14.76968,10.16758 12.12511,1.10662 29.99833,-1.74383 41.3496,-6.59452 4.76437,-2.03593 6.02686,-2.32879 3.04657,-0.70672 -0.97111,0.52855 -1.76565,1.01973 -1.76565,1.09152 0,0.29293 5.92936,-2.23088 7.33368,-3.12156 1.36811,-0.86771 1.49624,-1.06798 1.33918,-2.09306 -0.0955,-0.62346 -0.27341,-2.32418 -0.39531,-3.77938 -0.50623,-6.04352 -1.84296,-13.71457 -2.60459,-14.94691 -1.05919,-1.71381 -3.52747,-3.18225 -8.93815,-5.31753 -7.06235,-2.7871 -9.6488,-3.61438 -17.72509,-5.66942 -14.67952,-3.73525 -24.75908,-5.0193 -42.50972,-5.4154 -10.63232,-0.23725 -21.2714496,0.007 -28.5749996,0.65728 -23.2806804,2.07135 -50.8321804,9.98084 -53.6304104,15.39624 -0.28653,0.55453 -0.73435,1.17578 -0.99515,1.38056 -0.32169,0.2526 -0.52695,1.55725 -0.63827,4.05695 -0.0902,2.02654 -0.30127,4.24024 -0.46893,4.91934 -0.61331,2.48413 -1.14914,7.72828 -0.91641,8.96883 0.18015,0.96027 0.5611,1.47381 1.54484,2.08253 2.8157,1.7423 9.37299,4.143 11.71267,4.28815 0.87313,0.0542 3.79571,0.67053 6.49463,1.3697 7.12254,1.84513 11.60133,2.59464 21.02203,3.51797 2.59313,0.25415 8.77615,0.20193 11.9018204,-0.10052 z m -8.1230204,-3.22864 c -6.37948,-1.27784 -10.98982,-6.23998 -12.27951,-13.21652 -0.61584,-3.3314 0.66648,-8.53253 2.71668,-11.01894 l 0.66876,-0.81104 -0.0182,1.5166 c -0.01,0.83413 0.0799,1.59597 0.19967,1.69299 0.1198,0.097 0.47268,1.04951 0.78418,2.11666 1.00306,3.43638 1.47437,4.34548 3.05425,5.89128 0.85278,0.83438 1.61348,1.51706 1.69045,1.51706 0.077,0 0.48074,0.3175 0.89727,0.70555 0.41653,0.38806 0.97488,0.70556 1.24079,0.70556 0.2659,0 0.41138,0.11906 0.32328,0.26458 -0.27589,0.45571 0.60286,0.98134 1.70604,1.0205 0.58209,0.0206 2.35552,0.15862 3.94097,0.30659 1.58545,0.14796 3.1729504,0.14389 3.5277804,-0.009 0.35483,-0.15294 0.80389,-0.31515 0.99792,-0.36046 2.23008,-0.5208 6.87189001,-2.46853 6.99603001,-2.93558 0.0847,-0.3188 0.17248,-0.14895 0.19499,0.37744 0.0578,1.35205 -1.20043001,4.36158 -2.64793001,6.33347 -3.32561,4.53039 -8.9667604,6.91018 -13.9934604,5.90331 z m 3.87138,-3.20119 c 2.1858,-2.05344 -0.33823,-5.40503 -3.02436,-4.01598 -1.63447,0.84522 -1.91296,2.33647 -0.71966,3.85351 0.92477,1.17565 2.58869,1.24785 3.74402,0.16247 z m 0.28732,-5.58295 c 0.12158,-0.19671 -0.14231,-0.35038 -0.59654,-0.34737 -0.65533,0.004 -0.71112,0.0722 -0.2854,0.34737 0.65643,0.42422 0.61976,0.42422 0.88194,0 z m -1.85208,-0.23363 c -0.24253,-0.0979 -0.63941,-0.0979 -0.88194,0 -0.24254,0.0979 -0.0441,0.17793 0.44097,0.17793 0.48507,0 0.68351,-0.0801 0.44097,-0.17793 z m 60.72458,8.71832 c -3.13653,-0.74879 -6.88447,-3.52998 -8.94096,-6.63473 -0.60619,-0.91518 -1.43209,-2.75016 -1.83533,-4.07774 -1.38943,-4.57439 -0.37239,-10.3525 2.36075,-13.41208 l 1.20807,-1.35236 -0.0233,1.52875 c -0.0731,4.80274 1.29221,8.07355 4.68767,11.23014 2.62823,2.44334 3.6813,3.17452 4.58053,3.1804 0.66283,0.004 0.72154,0.073 0.29698,0.34738 -0.60964,0.39398 0.14942,0.47066 3.88056,0.39198 2.70893,-0.0571 8.02913,-1.29452 8.90764,-2.07179 0.50747,-0.44899 0.61987,-0.45799 0.63148,-0.0506 0.008,0.27261 0.25097,0.0591 0.54044,-0.47449 0.80486,-1.48359 1.3407,-1.22777 1.0632,0.50759 -0.6163,3.85414 -4.96299,9.03539 -8.77475,10.45948 -2.11321,0.78951 -6.21253,0.99394 -8.58301,0.42803 z m 5.52916,-2.78527 c 1.17582,-0.95212 1.08861,-2.74355 -0.18696,-3.84075 -1.67304,-1.43909 -4.06609,-0.32076 -4.06609,1.90018 0,2.26791 2.46169,3.39113 4.25305,1.94057 z m 0.33306,-4.81747 c 0,-0.097 -0.0794,-0.17639 -0.17639,-0.17639 -0.097,0 -0.17639,0.0794 -0.17639,0.17639 0,0.097 0.0794,0.17639 0.17639,0.17639 0.097,0 0.17639,-0.0794 0.17639,-0.17639 z m -3.29259,-0.41157 c -0.12935,-0.12936 -0.34102,-0.12936 -0.47037,0 -0.12935,0.12935 -0.0235,0.23518 0.23518,0.23518 0.25871,0 0.36454,-0.10583 0.23519,-0.23518 z m 1.88148,0.0588 c 0,-0.097 -0.0794,-0.17639 -0.17639,-0.17639 -0.097,0 -0.17639,0.0794 -0.17639,0.17639 0,0.097 0.0794,0.17639 0.17639,0.17639 0.097,0 0.17639,-0.0794 0.17639,-0.17639 z m -110.06666,-17.28611 c 0,-0.097 0.0794,-0.17639 0.17639,-0.17639 0.097,0 0.17639,0.0794 0.17639,0.17639 0,0.097 -0.0794,0.17639 -0.17639,0.17639 -0.097,0 -0.17639,-0.0794 -0.17639,-0.17639 z m 98.77777,-0.35278 c 0,-0.097 0.0794,-0.17638 0.17639,-0.17638 0.097,0 0.17639,0.0794 0.17639,0.17638 0,0.097 -0.0794,0.17639 -0.17639,0.17639 -0.097,0 -0.17639,-0.0794 -0.17639,-0.17639 z m -64.20555,-0.35277 c 0,-0.097 0.0794,-0.17639 0.17639,-0.17639 0.097,0 0.17639,0.0794 0.17639,0.17639 0,0.097 -0.0794,0.17639 -0.17639,0.17639 -0.097,0 -0.17639,-0.0794 -0.17639,-0.17639 z m 109.59629,24.28286 c -0.12935,-0.12935 -0.34102,-0.12935 -0.47037,0 -0.12935,0.12936 -0.0235,0.23519 0.23518,0.23519 0.25871,0 0.36454,-0.10583 0.23519,-0.23519 z m -125.37028,-36.76695 c 0.15256,-0.15214 0.36739,-0.89793 0.4774,-1.65729 l 0.20002,-1.38066 -1.78544,1.76388 c -2.20315,2.17656 -2.36938,2.88667 -0.49229,2.103 0.7276,-0.30376 1.44774,-0.67678 1.60031,-0.82893 z m 119.52958,0.75441 c -0.37106,-0.67641 -3.91949,-4.23448 -3.91949,-3.93014 0,1.08275 1.29091,3.59159 2.06417,4.01164 1.36651,0.74231 2.28511,0.70196 1.85532,-0.0815 z m -112.26596,-2.62396 c 1.43118,-0.38559 4.44743,-1.055 6.70278,-1.48758 l 4.10065,-0.78651 1.19781,-2.24175 c 2.28677,-4.27979 5.49952,-6.59289 10.30459,-7.41906 2.3296204,-0.40055 4.9475404,-0.15787 7.0184304,0.65061 1.68475,0.65772 3.79756001,2.48091 4.96767001,4.2867 0.93235999,1.43887 1.32631999,1.77657 1.89689999,1.62601 1.58873,-0.41923 19.0274396,-0.60423 24.3562596,-0.25839 5.59315,0.36299 5.64925,0.35936 6.17361,-0.39913 2.92285,-4.22792 5.10191,-5.57025 9.45112,-5.82203 6.39256,-0.37006 11.07955,2.23113 13.82694,7.67368 0.59057,1.1699 1.14279,2.1271 1.22716,2.1271 0.59846,0 8.40447,1.61581 11.18926,2.31612 1.87843,0.47238 3.50562,0.85888 3.61598,0.85888 0.36465,0 0.20887,-1.29909 -0.34352,-2.86475 -0.72308,-2.04943 -2.22097,-3.53634 -5.62944,-5.58819 -6.42905,-3.8702 -12.38008,-6.32961 -20.10873,-8.31044 -15.90758,-4.07705 -40.5412396,-4.29825 -56.44404,-0.50684 -9.25687,2.20694 -20.50291,7.19494 -25.21464,11.18354 -1.34243,1.1364 -2.47842,3.53567 -2.47842,5.23455 0,0.88276 -0.12965,0.89119 4.18963,-0.27252 z m -8.52066,-2.87363 c 7.03421,-6.67039 18.72768,-12.61117 30.61298,-15.5527 9.3873304,-2.3233 14.7776204,-2.85256 28.92777,-2.84039 12.24379,0.0105 16.84604,0.37445 24.63799,1.94819 13.85485,2.79827 26.93224,8.94485 34.67101,16.29592 1.87718,1.78314 2.73851,2.38947 3.00948,2.1185 0.24924,-0.24924 0.33168,-2.11659 0.24005,-5.43723 -0.12588,-4.56193 -0.23111,-5.25532 -1.07368,-7.07483 -3.94625,-8.52181 -20.43698,-16.64249 -39.53511,-19.46863 -5.87494,-0.86937 -5.57339,-0.9483 -6.75708,1.76877 -4.341,9.96449 -20.40614,12.07191 -28.1622996,3.69433 -1.10447,-1.19297 -2.28103,-2.92962 -2.74791,-4.05604 -0.44904,-1.0834 -1.01989999,-1.96983 -1.26856999,-1.96983 -0.24866,0 -2.24352001,0.24744 -4.43300001,0.54987 -11.8141904,1.63186 -24.6281804,5.94769 -32.0790404,10.80441 -5.23006,3.40912 -8.14133,7.03337 -9.10543,11.33537 -0.32437,1.44741 -0.18705,8.49187 0.18909,9.70007 0.18598,0.59739 0.61445,0.32667 2.87375,-1.81578 z m -34.8273,-21.22533 c 0,-0.097 -0.0794,-0.17639 -0.17639,-0.17639 -0.097,0 -0.17639,0.0794 -0.17639,0.17639 0,0.097 0.0794,0.17639 0.17639,0.17639 0.097,0 0.17639,-0.0794 0.17639,-0.17639 z m 99.44328,-1.66243 c 3.67938,-1.36479 6.49082,-3.8301 7.94027,-6.9627 0.71707,-1.54975 0.74283,-2.10698 0.74283,-16.06931 v -14.46389 l -0.85468,-1.94028 c -1.74797,-3.96821 -4.45133,-6.59283 -8.4091,-8.16418 -3.08158,-1.22349 -7.99646,-1.17453 -10.72995,0.10688 -3.8652196,1.81195 -6.8614596,5.40129 -7.9032096,9.46765 -0.50522,1.97207 -0.55908,3.97778 -0.41175,15.3341 0.19922,15.35556 0.23416,15.5551 3.30502,18.87199 4.1617896,4.49523 10.5001696,5.97869 16.3205696,3.81974 z m -6.87203,-3.48684 c -3.39989,-0.6195 -5.9235296,-2.44063 -7.4862696,-5.4023 l -0.94748,-1.79565 -0.10522,-12.48524 -0.10522,-12.48523 0.90619,-1.85219 c 0.86763,-1.77337 3.6410396,-4.75095 4.4251796,-4.75095 0.20581,0 -0.34994,0.70379 -1.23501,1.56398 -1.7241196,1.67565 -2.6577596,3.45749 -2.6404696,5.03927 0.009,0.83996 0.0628,0.89206 0.37187,0.36132 0.19863,-0.34109 0.24864,-0.80218 0.11115,-1.02465 -0.15427,-0.24961 -0.094,-0.30811 0.1573,-0.15277 0.29391,0.18165 0.40968,3.4127 0.41591,11.60798 0.005,6.3877 0.16517,12.03539 0.36644,12.9085 1.3119996,5.69141 8.2957496,7.60451 12.6196096,3.45696 2.16582,-2.0775 2.14225,-1.92249 2.19391,-14.42585 0.055,-13.30705 -0.013,-13.73576 -2.56707,-16.19514 -0.92698,-0.89259 -1.68541,-1.79309 -1.68541,-2.00111 0,-0.20802 -0.55709,-0.56207 -1.23797,-0.78678 -0.68088,-0.22471 -1.14776,-0.55453 -1.03751,-0.73292 0.11025,-0.17839 0.0456,-0.32434 -0.14374,-0.32434 -0.18931,0 -0.42428,0.19843 -0.52214,0.44097 -0.10179,0.25227 -0.18985,0.16352 -0.20579,-0.2074 -0.0239,-0.55739 -0.23823,-0.61944 -1.52715,-0.44217 -1.0631,0.1462 -1.29404,0.11112 -0.79375,-0.12059 2.1143,-0.97924 6.65875,0.20003 9.03148,2.34364 0.74494,0.67301 1.79574,2.12227 2.33509,3.22058 l 0.98065,1.99691 v 12.34722 c 0,11.86785 -0.0293,12.41053 -0.754,13.9779 -2.02248,4.37402 -6.39542,6.74459 -10.92058,5.92005 z M 8.5362164,-276.6452 c 0,-0.097 -0.0794,-0.17639 -0.17639,-0.17639 -0.097,0 -0.17639,0.0794 -0.17639,0.17639 0,0.097 0.0794,0.17639 0.17639,0.17639 0.097,0 0.17639,-0.0794 0.17639,-0.17639 z m 0.47037,-3.58657 c 0.12935,-0.12936 0.34101,-0.12936 0.47037,0 0.12935,0.12935 0.0235,0.23518 -0.23519,0.23518 -0.2587,0 -0.36454,-0.10583 -0.23518,-0.23518 z m 0.58796,-0.80233 c 0,-0.18258 0.15693,-0.42895 0.34874,-0.54749 0.1999696,-0.12359 0.2591096,0.018 0.1386396,0.33196 -0.2345196,0.61115 -0.4873796,0.72297 -0.4873796,0.21553 z m 1.0583296,-1.25555 c 0,-0.097 0.0794,-0.17638 0.17639,-0.17638 0.097,0 0.17639,0.0794 0.17639,0.17638 0,0.097 -0.0794,0.17639 -0.17639,0.17639 -0.097,0 -0.17639,-0.0794 -0.17639,-0.17639 z m 2.11667,-2.82222 c 0,-0.097 0.0794,-0.17639 0.17639,-0.17639 0.097,0 0.17639,0.0794 0.17639,0.17639 0,0.097 -0.0794,0.17639 -0.17639,0.17639 -0.097,0 -0.17639,-0.0794 -0.17639,-0.17639 z m -89.25277,42.15694 c 0,-0.19402 -0.07,-0.35277 -0.15557,-0.35277 -0.0856,0 -0.25368,0.15875 -0.3736,0.35277 -0.11991,0.19403 -0.0499,0.35278 0.15557,0.35278 0.20548,0 0.3736,-0.15875 0.3736,-0.35278 z m 0.35278,-1.23472 c 0,-0.097 -0.0794,-0.17639 -0.17639,-0.17639 -0.097,0 -0.17639,0.0794 -0.17639,0.17639 0,0.097 0.0794,0.17639 0.17639,0.17639 0.097,0 0.17639,-0.0794 0.17639,-0.17639 z m 56.15633,-7.66115 c -0.25314,-0.25315 -0.41745,-0.27397 -0.41745,-0.0529 0,0.20049 0.10583,0.47037 0.23519,0.59972 0.12935,0.12935 0.3172,0.15316 0.41745,0.0529 0.10025,-0.10025 -0.006,-0.37013 -0.23519,-0.59972 z m -51.21745,-2.92218 c 0,-0.097 -0.0794,-0.17639 -0.17638,-0.17639 -0.097,0 -0.17639,0.0794 -0.17639,0.17639 0,0.097 0.0794,0.17639 0.17639,0.17639 0.097,0 0.17638,-0.0794 0.17638,-0.17639 z m 78.3395004,-36.01085 c 0.70736,-0.85231 3.6212096,-2.21947 6.0679996,-2.84706 3.98965,-1.02333 8.82014,-0.13158 12.73464,2.35092 1.76778,1.12109 2.34119,1.11233 2.34119,-0.0358 0,-0.38181 0.49023,-3.19025 1.0894,-6.24099 0.59916,-3.05073 1.0065,-6.05975 0.90519,-6.6867 -0.49647,-3.07242 -4.58478,-6.99735 -8.78107,-8.43016 -5.4989,-1.87759 -12.7058496,0.31855 -16.1768896,4.92949 -2.22866,2.96056 -2.28036,3.58487 -0.84257,10.17396 0.69075,3.16553 1.33206,6.11269 1.42514,6.54926 0.1989,0.93284 0.59632,1.009 1.23697,0.23706 z M -42.734154,-292.579 c -0.12935,-0.12935 -0.34102,-0.12935 -0.47037,0 -0.12935,0.12936 -0.0235,0.23519 0.23518,0.23519 0.25871,0 0.36454,-0.10583 0.23519,-0.23519 z m 3.64537,-3.46898 c 0,-0.097 -0.0794,-0.17639 -0.17639,-0.17639 -0.097,0 -0.17639,0.0794 -0.17639,0.17639 0,0.097 0.0794,0.17639 0.17639,0.17639 0.097,0 0.17639,-0.0794 0.17639,-0.17639 z m 18.34444,-9.87777 c 0,-0.097 -0.0794,-0.17639 -0.17639,-0.17639 -0.097,0 -0.17639,0.0794 -0.17639,0.17639 0,0.097 0.0794,0.17638 0.17639,0.17638 0.097,0 0.17639,-0.0794 0.17639,-0.17638 z m 2.35185,-0.76436 c -0.12935,-0.12935 -0.34101,-0.12935 -0.47037,0 -0.12935,0.12936 -0.0235,0.23519 0.23519,0.23519 0.2587,0 0.36454,-0.10583 0.23518,-0.23519 z"
       id="path130" /></g></svg>
