<?xml version="1.0" encoding="UTF-8" standalone="no"?>
<!-- Created with Inkscape (http://www.inkscape.org/) -->

<svg
   width="198.81334mm"
   height="231.34859mm"
   viewBox="0 0 198.81336 231.34855"
   version="1.1"
   id="svg1"
   xml:space="preserve"
   xmlns="http://www.w3.org/2000/svg"
   xmlns:svg="http://www.w3.org/2000/svg"><defs
     id="defs1"><clipPath
       clipPathUnits="userSpaceOnUse"
       id="clipPath6"><path
         id="path7"
         style="fill:#ff0000;fill-opacity:1;fill-rule:nonzero;stroke:none;stroke-width:0.264583"
         d="M -175.07778,-16.057127 V 287.55793 H 124.54631 V -16.057127 Z m 132.7459,202.572647 c 0.210643,0.005 0.427212,0.0169 0.650089,0.0367 2.23823,0.19855 4.475655,0.4031 6.717938,0.55346 1.973313,0.11308 0.986628,0.0436 2.958475,0.20825 3.181295,0.26563 4.740125,1.85116 4.950601,3.46956 4.949923,1.63749 3.796379,7.35609 -2.592089,6.81354 -3.228716,-0.27422 -1.569593,-0.1301 -4.979024,-0.43357 -4.228209,-0.39317 -8.460616,-0.76265 -12.666927,-1.35341 -6.647387,-0.93358 -5.930551,-7.21034 0.03204,-7.20421 0.04685,5e-5 0.0972,0.004 0.144695,0.005 0.687229,-1.21692 2.304132,-2.15435 4.784204,-2.09548 z" /></clipPath><clipPath
       clipPathUnits="userSpaceOnUse"
       id="clipPath76"><path
         id="path77"
         style="fill:#ff0000;fill-opacity:1;fill-rule:nonzero;stroke:none;stroke-width:0.264583"
         d="M -133.83107,-122.52355 V 173.82063 H 122.97289 V -122.52355 Z M 13.574404,98.948202 c 2.788179,0.0507 4.135003,2.063798 3.398242,4.077268 0.199805,0.45372 0.374906,0.96736 0.517797,1.54461 1.07913,4.35948 0.671079,8.891 0.311608,13.31495 -0.351859,3.06036 -0.147137,1.57974 -0.604097,4.44366 -0.359666,2.25418 -1.333846,3.66838 -2.455664,4.32532 0.105138,0.36595 0.224724,0.72888 0.324528,1.09554 0.6273,2.23652 0.575201,4.47401 0.39429,6.75514 -0.137303,1.73129 -0.688065,2.99533 -1.427303,3.82199 -0.112477,0.41601 -0.170275,0.80219 -0.311092,1.25212 -0.184975,0.59102 -0.413327,1.1061 -0.670242,1.55856 0.741137,-0.23134 1.446982,-0.38145 2.064991,-0.37517 4.085002,0.0415 5.222724,4.75435 -0.02223,7.27138 -4.46677,2.14368 -9.303523,3.34693 -14.11903492,4.40955 -4.40876268,0.85156 -8.89238128,1.33053 -13.38264308,1.19269 -5.804014,-0.17807 -6.736297,-5.00293 -3.065447,-6.67298 -2.072987,-0.65744 -4.042852,-1.62261 -4.128947,-3.14709 -0.02802,-0.49633 0.0026,-0.90355 0.0341,-1.30897 -1.976731,-0.003 -3.95339,2.4e-4 -5.930386,0.003 -0.814031,0 -1.53062,-0.0962 -2.159559,-0.26149 -0.376306,0.19492 -0.742394,0.40783 -1.120862,0.59893 -6.391272,3.22657 -9.625245,-3.24074 -3.234428,-6.46886 1.833438,-0.92611 3.62694,-1.92211 5.414142,-2.92954 -0.877003,-3.87058 -1.368747,-7.83436 -1.323951,-11.80858 0.01651,-1.46304 0.376836,-2.54918 0.864547,-3.41426 -1.247357,-1.79999 -0.223805,-4.63069 3.842661,-5.68855 3.11826,-0.81116 6.282901,-1.39515 9.473837,-1.82211 -1.259816,-0.12657 -2.516182,-0.30233 -3.764627,-0.50177 -1.477002,-0.21985 -2.935575,-0.54305 -4.407482,-0.7891 -1.14214,-0.22954 -0.588502,-0.12004 -1.660882,-0.3297 -3.350244,-0.65501 -4.783278,-2.61088 -4.608504,-4.32997 -0.200179,-1.7721 1.333365,-3.52972 4.663799,-3.59461 v -5.3e-4 c 0.20954,-0.004 0.426035,-0.002 0.649571,0.008 1.77111,0.0772 3.528708,0.28204 5.26428,0.64027 1.655035,0.33225 3.314115,0.6481 4.955251,1.04439 1.244759,0.34858 2.51628,0.54538 3.7997689,0.6723 0.025956,0.002 0.052073,0.002 0.078034,0.004 0.4990888,-0.0371 0.9984105,-0.0743 1.4965495,-0.11317 1.346872,-0.12588 2.6913231,-0.25136 4.0457464,-0.24236 1.1278499,-0.0444 2.2567291,-0.10772 3.37498791,-0.26872 0.75719517,-0.11591 1.51142439,-0.25483 2.25722659,-0.4284 0.3616431,-0.12394 0.7240561,-0.24538 1.083138,-0.37775 0.3360393,-0.12388 0.6107589,-0.12825 0.9250071,-0.20723 0.1281086,-0.045 0.2583895,-0.0825 0.3855085,-0.13074 1.9825018,-0.7681 3.9540551,-1.56464 5.9510551,-2.29443 1.050809,-0.383992 1.999634,-0.542639 2.826703,-0.527616 z M 0.70283723,110.39557 c -0.45566013,0.0949 -0.90775367,0.208 -1.36890919,0.2744 -1.16638124,0.15534 -2.34111274,0.24237 -3.51761424,0.26251 0.4031694,0.0896 0.8047355,0.18876 1.2025101,0.308 0.1014836,0.0304 0.1982549,0.075 0.2986907,0.10852 0.4205235,-0.21824 0.9206601,-0.35072 1.4898318,-0.37156 0.39885139,-0.0146 0.83259872,0.0278 1.29449508,0.13023 0.22468681,-0.12213 0.44967525,-0.24374 0.67437529,-0.36587 -0.0326284,-0.11319 -0.058211,-0.22834 -0.0733795,-0.34623 z m 10.24433577,1.02474 c -0.76023,0.21437 -1.5189569,0.4343 -2.2696301,0.68006 -0.031261,0.62207 -0.2256075,1.28373 -0.6464723,1.94355 0.6236891,0.43248 1.2549743,1.04482 1.8634525,1.86862 0.2674939,0.36214 0.4748849,0.75712 0.7188199,1.13223 0.154519,-1.86707 0.314174,-3.74736 0.33383,-5.62446 z m 64.566086,3.39773 c 1.50346,0.0187 3.129182,1.24994 3.928441,4.04678 0.257931,0.90255 0.823497,1.65871 1.488797,2.30735 0.856321,0.95375 1.845738,1.76777 2.801898,2.61638 1.458581,1.46408 2.789203,3.04608 4.169772,4.58215 1.315059,1.44746 2.571226,2.91698 3.543967,4.61884 0.0053,0.01 0.0082,0.0206 0.01344,0.0305 0.734605,-0.43313 1.446276,-0.65634 2.094962,-0.69195 3.016182,-0.16561 4.69137,3.55377 1.187525,7.32306 -1.69471,1.82311 -3.657862,3.33908 -5.68751,4.7651 -0.777873,0.49914 -1.607691,0.90075 -2.418456,1.33842 0.165478,1.44344 -0.672182,3.24303 -2.956409,4.73096 -1.354556,0.88234 -2.690448,1.79306 -4.075203,2.6288 -2.075008,1.20078 -4.233777,2.27962 -6.540687,2.96259 -2.077586,0.62971 -4.169056,1.29987 -6.359301,1.36374 -1.872114,0.0897 -3.746989,0.0368 -5.620845,0.0501 h -5.1108 -5.524728 c -7.160125,0 -7.160125,-7.23315 0,-7.23315 h 1.347722 c 0.29438,-0.0541 0.5212,-0.1588 0.84801,-0.18656 1.106628,-0.094 2.200932,-0.28334 3.292822,-0.48421 0.456121,-0.98163 1.356053,-1.98213 2.807581,-2.83962 1.078018,-0.63685 2.158119,-1.26923 3.212209,-1.94561 1.962647,-1.29302 3.840588,-2.72135 5.893696,-3.86902 1.367169,-0.76424 2.559646,-1.07097 3.526915,-1.04128 2.216811,0.068 3.246223,1.90266 2.479953,4.04059 1.105688,-0.48686 2.206929,-0.98346 3.283003,-1.53739 2.619811,-1.23728 5.288743,-2.38548 7.764385,-3.9026 0.246153,-0.17184 0.487463,-0.34958 0.730705,-0.52503 -0.126915,-0.50614 -0.277693,-0.9939 -0.512114,-1.46554 -0.647621,-1.25778 -1.721077,-2.20654 -2.600875,-3.29644 -1.199229,-1.33472 -2.369312,-2.69496 -3.592029,-4.00803 -1.098706,-0.97599 -2.227236,-1.92181 -3.215306,-3.01428 -1.300821,-1.39063 -2.459913,-2.93896 -3.045293,-4.77801 -1.289469,-4.05101 0.646382,-6.61405 2.843754,-6.58667 z m -95.086705,4.28035 c -0.465643,0.10748 -0.930899,0.21773 -1.394745,0.33435 0.171958,0.64334 0.283575,1.36624 0.279569,2.2071 -0.01267,2.6582 0.205063,5.32647 0.670242,7.94732 0.280107,-0.17087 0.565767,-0.33222 0.845429,-0.50385 -0.01897,-0.36223 -0.02445,-0.73164 -0.05529,-1.08985 -0.118034,-2.96491 -0.160888,-5.93314 -0.3452,-8.89507 z m 18.5141159,1.1958 c 0.00497,0.0773 0.00619,0.15612 0.014975,0.23202 -0.1238779,0.22787 -0.2588048,0.44752 -0.3937741,0.66715 0.58900751,0.0447 1.13203305,0.21413 1.64331124,0.45888 -0.37615284,-0.49255 -0.78353709,-0.94642 -1.26452314,-1.35805 z m -6.5422357,14.57068 c -0.046649,0.0755 -0.09888,0.14702 -0.1436608,0.22376 -0.03147,0.054 0.1963367,0.0838 0.1860365,0.0222 -0.017595,-0.10481 -0.026035,-0.14905 -0.042376,-0.24597 z m 13.9236979,6.08439 c -0.2236258,0.5643 -0.5677508,1.09664 -1.1782213,1.50533 0.9079653,0.17659 1.7077452,0.44257 2.2830631,0.84852 0.1405493,-0.0459 0.272804,-0.11448 0.4128956,-0.16174 -0.7336976,-0.43656 -1.2984269,-1.18703 -1.5177374,-2.19211 z" /></clipPath><clipPath
       clipPathUnits="userSpaceOnUse"
       id="clipPath127"><path
         id="path128"
         style="fill:#ff0000;fill-opacity:1;fill-rule:nonzero;stroke:none;stroke-width:0.264583"
         d="M -112.24796,-126.55676 V 185.58027 H 148.5754 V -126.55676 Z M 46.874626,83.305366 c 1.808208,0 3.616317,1.790192 3.616317,5.370214 v 5.232238 c 0.0627,2.146078 -0.111291,4.285324 -0.245462,6.424932 -0.136289,2.02485 -0.190703,4.04985 -0.104904,6.07715 0.192061,1.91863 0.527714,3.82569 0.876432,5.72213 0.304242,2.00862 0.765826,3.9858 1.180806,5.97276 0.41642,1.86142 0.967934,3.68703 1.421104,5.53972 0.25287,0.86996 0.117097,0.46495 0.396356,1.22008 0.186108,0.50319 0.223428,0.93098 0.309544,1.38441 4.425355,2.23251 2.751262,7.58433 -3.415813,6.40477 -3.104732,-0.59371 -6.256094,-0.76586 -9.40821,-0.85576 -3.81635,0.009 -7.630525,0.17062 -11.44478,0.28216 -1.12776,0.0333 -2.255837,0.0512 -3.383772,0.0754 -0.908129,0.5548 -1.966518,0.57724 -2.88613,0.0641 -0.03584,5.3e-4 -0.07165,0.002 -0.107487,0.003 -0.03142,5.3e-4 -0.0525,-0.009 -0.08268,-0.009 -0.32049,0.14732 -0.641715,0.29301 -0.962215,0.44028 -0.262501,0.12062 -0.518089,0.22111 -0.770496,0.31265 -0.876996,0.71434 -1.945576,0.85817 -2.911967,0.46405 -2.943479,-0.21613 -4.295167,-2.77187 -2.550232,-5.0524 -2.22e-4,-0.028 -0.0078,-0.0483 -0.0078,-0.0765 v -6.3469 c -0.014,-2.72977 -0.02254,-5.45666 0.112657,-8.18348 0.135676,-2.32533 0.233519,-4.6523 0.299723,-6.98046 0.046,-1.80459 0.06926,-3.60958 0.08527,-5.41465 -0.0258,-1.02998 0.04009,-2.054459 0.138491,-3.078883 0.0044,-0.04602 0.02191,-0.07504 0.02687,-0.120406 C 15.992671,97.193438 15.83363,95.70984 16.656834,94.418959 10.68718,93.678613 10.992573,87.32947 17.739972,87.32947 h 3.885033 5.177462 5.913334 c 1.498505,0.05847 2.984222,-0.03228 4.475178,-0.161748 1.252041,-0.18606 2.49041,-0.398671 3.697968,-0.782897 1.001961,-0.32245 0.492366,-0.161472 1.527553,-0.482142 0.510384,-0.158096 0.938446,-0.174371 1.394749,-0.23771 0.672338,-1.56932 1.86623,-2.35903 3.063377,-2.35903 z" /></clipPath></defs><g
     id="layer1"
     transform="translate(121.75392,314.63159)"><path
       style="fill:#000000"
       d="m -70.046507,-83.425078 c -6.5851,-0.477341 -12.30237,-1.688874 -15.82149,-3.352696 -1.55099,-0.733301 -2.51744,-1.443887 -4.04503,-2.974139 -3.86691,-3.87362 -4.94023,-7.8431 -3.50889,-12.977017 0.97368,-3.49236 2.97554,-6.19519 6.09842,-8.23383 6.04681,-3.9474 22.78648,-8.54109 34.73949,-9.53318 1.81901,-0.15098 3.81331,-0.33322 4.43177,-0.40499 l 1.12448,-0.1305 -8.7e-4,-3.09264 c -4.9e-4,-1.70095 -0.2992,-6.30733 -0.66381,-10.23639 -0.36461,-3.92906 -0.73904,-8.5877 -0.83206,-10.35253 l -0.16914,-3.20878 -0.86535,-0.26559 c -0.79723,-0.24467 -0.93473,-0.19358 -1.74675,0.6491 -4.36446,4.52929 -15.69458,9.83064 -24.83999,11.62262 -3.27468,0.64165 -8.26334,0.57797 -10.9664,-0.13997 -2.95719,-0.78545 -6.53277,-2.53815 -8.72487,-4.27681 -3.35461,-2.6607 -7.172123,-8.03902 -8.625463,-12.152 l -0.42071,-1.19062 -2.75615,-0.15915 c -4.95549,-0.28613 -7.54915,-1.45454 -10.78075,-4.85657 -2.32151,-2.44395 -3.30605,-4.26153 -3.3329,-6.15297 -0.0237,-1.66762 0.38906,-2.17373 1.9426,-2.3821 0.88938,-0.11929 1.07339,-0.23314 0.92939,-0.57502 -1.83189,-4.34904 -1.4326,-7.73268 0.98363,-8.33542 1.29487,-0.32302 1.99361,-0.0931 3.48888,1.14792 l 1.27866,1.06125 0.68648,-0.85418 c 1.30212,-1.62021 2.84368,-3.14666 3.55608,-3.52123 0.87604,-0.46061 8.25379,-0.52729 9.832733,-0.0889 2.67718,0.74336 5.43926,5.48953 5.87251,10.0909 0.13511,1.435 0.34527,2.14484 0.82507,2.78681 0.35408,0.47376 1.00732,1.63824 1.45165,2.58774 0.53276,1.13849 1.05569,1.85452 1.53564,2.10271 0.68433,0.35388 1.19788,1.2259 1.38278,2.34799 0.0913,0.55394 2.42756,1.53416 5.20247,2.18277 1.64786,0.38517 1.72017,0.3787 3.57188,-0.31926 1.03948,-0.39182 2.97291,-1.22051 4.2965,-1.84155 1.3236,-0.62105 2.93094,-1.2788 3.57188,-1.46167 0.78106,-0.22286 1.53614,-0.72537 2.28982,-1.52391 0.61846,-0.65527 1.12448,-1.22334 1.12448,-1.26237 0,-0.15427 -6.19713,-5.49399 -10.45104,-9.00508 -9.3828,-7.74436 -13.82357,-10.68525 -23.939313,-15.85373 -4.20997,-2.15101 -4.81806,-2.55276 -6.78044,-4.47959 -3.34377,-3.28321 -4.80941,-6.75363 -4.52546,-10.71563 0.17769,-2.47932 2.0851,-9.93105 5.18096,-20.24062 2.8562,-9.51147 4.31001,-13.9477 5.34705,-16.31622 0.44326,-1.0124 0.77241,-2.2289 0.77241,-2.85482 0,-0.59987 0.22146,-1.53241 0.49213,-2.07231 0.27068,-0.53991 1.53043,-4.25587 2.799443,-8.25769 3.67864,-11.60053 7.4708,-22.76479 8.50174,-25.02942 1.90428,-4.18305 3.2443,-6.09506 6.33064,-9.03287 6.78315,-6.45671 16.2087,-12.42224 24.50229,-15.50778 5.36163,-1.99473 13.43615,-3.82729 21.75286,-4.93692 2.18663,-0.29174 3.98468,-0.55928 3.99568,-0.59454 0.30123,-0.96539 1.57177,-2.84303 2.53082,-3.74011 2.23032,-2.0862 4.65281,-2.95819 8.99856,-3.2391 6.22173,-0.40216 10.43809,1.44289 12.8552595,5.62537 0.40995,0.70936 0.85454,1.36505 0.98797,1.4571 0.13344,0.092 1.07601,0.24947 2.09462,0.34984 2.31644,0.22826 8.58309,1.44711 13.01995,2.53236 6.6281505,1.62124 12.5155805,4.02607 18.3025005,7.476 5.03238,3.0001 12.61765,9.13986 16.70824,13.52418 2.39213,2.5639 4.84546,7.6683 6.81657,14.18255 0.8146,2.69214 2.07405,6.85933 2.79877,9.26042 1.57522,5.21885 3.48491,10.64793 4.51379,12.83229 0.41126,0.87313 0.74783,2.02412 0.74795,2.55775 1.1e-4,0.53364 0.24828,1.54567 0.55148,2.24896 2.72382,6.31803 10.6985,32.18787 11.88039,38.53994 1.01666,5.46406 -1.84252,10.61335 -7.97332,14.35968 -1.21516,0.74255 -4.35251,2.5231 -6.97188,3.95677 -8.92274,4.88372 -14.33208,8.97644 -21.82813,16.51518 -2.69213,2.70747 -5.46596,5.59203 -6.16405,6.41013 l -1.26926,1.48745 1.19036,1.22479 c 1.10171,1.13358 1.42283,1.29034 4.31197,2.105 1.71688,0.48412 3.96548,1.03049 4.99688,1.21416 2.12721,0.37882 2.51975,0.29723 6.08112,-1.26409 2.06514,-0.90536 2.15062,-0.97863 2.5922,-2.22191 0.34257,-0.96455 0.71784,-1.45057 1.50245,-1.94587 0.57521,-0.36311 1.04583,-0.82002 1.04583,-1.01534 0,-0.19532 0.47574,-1.29516 1.05719,-2.44408 0.70247,-1.38803 1.05862,-2.44404 1.06147,-3.14727 0.0147,-3.62112 2.95835,-9.00775 5.50376,-10.07129 0.49988,-0.20887 1.57894,-0.38587 2.39791,-0.39334 0.81898,-0.007 2.32248,-0.10733 3.34113,-0.22191 2.618,-0.29448 3.34874,-0.0151 5.52194,2.11125 1.02779,1.00563 1.90218,1.82841 1.94309,1.82841 0.0409,0 0.65441,-0.41672 1.36335,-0.92604 3.85839,-2.77197 6.65679,0.99134 4.89622,6.58447 -0.13303,0.42262 -0.0561,0.4737 0.50227,0.33356 0.90214,-0.22643 2.18867,0.26635 2.689,1.02996 0.62503,0.9539 0.52633,3.1775 -0.21136,4.76165 -1.28383,2.757 -5.3322,6.25656 -8.63472,7.46417 -1.32721,0.48531 -3.09677,0.83349 -6.36349,1.25207 -1.15222,0.14764 -1.21702,0.20252 -1.50334,1.27303 -0.43461,1.62495 -4.31132,7.33241 -6.62621,9.75537 -4.78078,5.00399 -10.38831,7.53529 -17.84012,8.05324 -4.4155,0.30691 -11.37972,-1.18999 -16.75343,-3.60101 -2.97191,-1.3334 -7.23408,-4.00933 -9.5800005,-6.01462 -1.7096,-1.46137 -2.37773,-1.88237 -2.8137,-1.77295 -0.31445,0.0789 -1.16541,0.22768 -1.89103,0.33057 l -1.3193,0.18708 -0.45199,2.24733 c -0.7954,3.95488 -1.85409,14.66499 -2.18721,22.1267 l -0.15515,3.4752 6.68884,0.001 c 11.8464205,0.002 23.8691605,1.74652 30.6336305,4.44545 3.47554,1.3867 6.50359,3.89149 7.79809,6.45056 3.70506,7.32442 1.2725,14.690445 -6.27638,19.005524 -4.26511,2.438014 -10.09791,3.807279 -18.19046,4.270256 -3.53318,0.202134 -14.3837805,-0.182975 -21.4312505,-0.760637 -1.81901,-0.149099 -5.74807,-0.453726 -8.73125,-0.676948 -2.9831695,-0.223223 -6.0401295,-0.529073 -6.7932195,-0.679668 -1.52595,-0.305138 -10.1844,0.384733 -16.75469,1.334948 -12.4185,1.795999 -16.32822,2.136774 -25.79687,2.248481 -4.65667,0.05494 -9.83589,6.34e-4 -11.50938,-0.120674 z m 23.44847,-3.573562 c 2.17359,-0.217976 5.85336,-0.633485 8.17727,-0.923353 2.32392,-0.289867 4.33885,-0.528434 4.47762,-0.530149 0.13878,-0.0017 -0.3549,-0.39007 -1.09708,-0.863012 -3.37885,-2.153148 -4.74949,-5.582712 -3.93151,-9.837299 0.22188,-1.154027 0.36288,-2.138767 0.31335,-2.188297 -0.0495,-0.0495 -0.67299,0.0287 -1.38545,0.17382 -3.95487,0.80568 -32.66705,1.679549 -33.45865,1.01833 -0.62329,-0.52063 -0.77972,-1.16687 -0.40612,-1.67779 0.37009,-0.50614 3.14365,-0.86986 6.86071,-0.89972 1.13991,-0.009 2.03288,-0.11615 1.98438,-0.23776 -0.17187,-0.43086 -9.17906,-8.92994 -9.83698,-9.28205 -0.59441,-0.31811 -0.9519,-0.26592 -3.23057,0.4717 -6.10074,1.97484 -9.71101,4.4295 -11.37517,7.73408 -1.30059,2.58263 -1.66246,4.946918 -1.10369,7.211176 0.77233,3.129712 3.18372,5.917305 6.31582,7.301168 3.19462,1.411487 8.81137,2.566793 14.2476,2.930582 4.65877,0.311762 18.74072,0.07069 23.44847,-0.401426 z m 74.44736,-1.708464 c 5.43811,-1.011087 8.74028,-2.240425 11.4135,-4.24905 4.6533,-3.496417 5.89405,-8.338886 3.4228,-13.358696 -1.01571,-2.0632 -2.62919,-3.54781 -5.17009,-4.75713 -2.30979,-1.09934 -5.36549,-2.04657 -5.97649,-1.85265 -0.25254,0.0802 -1.02656,0.75232 -1.72003,1.4937 -1.43564,1.53481 -4.63078,4.17081 -7.64475,6.30692 -3.16756,2.24498 -3.09021,2.16176 -1.86557,2.00729 3.078,-0.38823 6.50735,-0.46379 6.88345,-0.15165 0.58708,0.48723 0.48007,1.51627 -0.20272,1.94933 -0.32742,0.20768 -2.55984,0.69878 -4.96093,1.09135 -5.07794,0.830214 -17.6869405,3.249722 -18.0252605,3.458819 -0.12705,0.07852 -0.23099,0.604232 -0.23099,1.168253 0,1.262444 -0.38305,2.317331 -1.14211,3.145252 -0.82586,0.90079 -3.40483,2.063971 -5.71643,2.578254 -2.65315,0.590269 -2.11892,0.755312 4.12593,1.274658 6.98741,0.581101 8.02564,0.61496 16.3586505,0.533495 6.22832,-0.06089 7.89298,-0.162535 10.45104,-0.638145 z m -47.49751,-1.470711 c 6.84322,-0.853543 14.8306395,-2.347853 17.7981695,-3.329733 2.68041,-0.886881 2.91377,-1.713144 1.80561,-6.393116 -0.98487,-4.159246 -2.17412,-6.751566 -6.2,-13.514756 l -2.02189,-3.39662 -1.32292,0.1109 c -0.8627095,0.0723 -1.6815595,0.35695 -2.3538995,0.8182 -2.47049,1.69489 -6.43647,2.25605 -12.68382,1.79466 -2.49779,-0.18447 -4.89863,-0.395 -5.3352,-0.46784 l -0.79375,-0.13244 -1.49655,4.45155 c -0.82311,2.44835 -1.99978,5.87666 -2.61482,7.61847 -1.21712,3.446897 -1.56555,5.848228 -1.06753,7.35724 0.73737,2.23425 2.71778,4.066845 5.39435,4.991736 1.75342,0.605894 6.45276,0.645478 10.89225,0.09175 z M 6.3384925,-100.37524 c 5.6111005,-1.06599 6.6711905,-1.44863 8.7744705,-3.16718 1.05076,-0.85855 3.83036,-2.96461 6.17688,-4.68015 4.14597,-3.03109 6.82406,-5.22837 6.82406,-5.59891 0,-0.28361 -4.84877,-1.11601 -8.06979,-1.38536 -1.60073,-0.13385 -3.74385,-0.35464 -4.7625,-0.49064 -1.01864,-0.136 -4.84179,-0.25338 -8.4958805,-0.26085 -3.65409,-0.007 -7.19213,-0.0888 -7.8623,-0.1806 -1.09176,-0.14965 -1.24908,-0.25972 -1.51265,-1.05834 -0.16179,-0.49022 -0.34205,-0.89132 -0.40058,-0.89132 -0.0585,0 -0.57494,0.18747 -1.14757,0.41659 l -1.04114,0.41658 1.84853,2.82456 c 2.80061,4.27935 4.84239,8.78969 6.45885,14.26779 0.12112,0.410461 -0.16857,0.42961 3.20962,-0.21217 z m -53.2420195,-3.31653 c 2.90598,-0.21133 5.35744,-0.47121 5.44769,-0.57751 3.22631,-3.80006 8.451,-10.93165 8.451,-11.53543 0,-0.092 -0.28724,-0.16721 -0.63831,-0.16721 -0.35106,0 -2.5734,-0.48584 -4.93851,-1.07964 -3.63466,-0.91255 -4.39386,-1.02953 -4.90528,-0.75582 -0.47928,0.2565 -0.85551,0.2537 -1.80966,-0.0134 -2.01877,-0.56522 -11.98391,0.50751 -16.9447,1.82406 -1.01865,0.27034 -2.45827,0.56671 -3.19916,0.6586 -1.21619,0.15084 -2.312,0.39967 -5.51036,1.25123 l -1.0366,0.27599 5.40222,5.3782 5.40223,5.3782 4.49792,-0.1265 c 2.47385,-0.0696 6.87554,-0.2994 9.78152,-0.51073 z m 30.94263,-13.46567 c 3.00173,-0.53489 3.19668,-0.78705 3.19668,-4.13482 0,-2.34977 -0.0617,-2.70656 -0.52917,-3.0608 -0.45585,-0.34542 -1.46142,-0.37569 -7.25786,-0.21846 -3.70078,0.10038 -6.99753,0.28472 -7.3261,0.40964 -0.83489,0.31742 -1.0646,0.862 -1.55443,3.68518 -0.37251,2.14698 -0.37892,2.52066 -0.0489,2.85068 0.80831,0.80831 9.85383,1.12182 13.51977,0.46858 z m -16.1673,-2.98082 c 0.0863,-0.83627 0.0732,-1.59309 -0.0291,-1.68181 -0.10233,-0.0887 -1.33519,-0.29687 -2.73969,-0.46257 -2.25041,-0.26549 -6.75455,-1.06527 -8.58128,-1.52375 -0.59501,-0.14934 -0.63776,-0.09 -0.62045,0.86048 0.0328,1.80252 0.23675,2.01794 2.2521,2.37916 1.00669,0.18042 3.49722,0.68586 5.53451,1.12319 2.0373,0.43732 3.77681,0.80204 3.86559,0.81047 0.0888,0.008 0.23204,-0.66889 0.31835,-1.50517 z m 25.0059695,0.20754 c 4.78107,-1.02172 4.54447,-0.89669 4.54447,-2.4014 0,-1.59009 0.14491,-1.56899 -4.03296,-0.58744 l -3.10692,0.72993 -0.002,1.38906 c -0.001,0.76399 0.0362,1.38907 0.0829,1.38907 0.0466,0 1.17816,-0.23365 2.51447,-0.51922 z m -23.3777295,-5.67059 c 0.45246,-0.49397 1.29435,-1.04255 1.87087,-1.21907 1.29764,-0.3973 13.13318,-0.91382 15.16884,-0.66199 1.30358,0.16127 1.62856,0.32868 2.60016,1.33939 l 1.1103695,1.15508 1.27088,-0.36856 c 0.69898,-0.20271 2.30469,-0.57007 3.56824,-0.81636 l 2.29737,-0.4478 0.14183,-0.95951 c 0.078,-0.52772 0.20822,-1.7334 0.28938,-2.67929 0.46465,-5.41532 1.2325,-12.77417 1.47063,-14.09403 0.30538,-1.6926 0.20591,-2.04555 -0.57647,-2.04555 -0.64592,0 -1.53411,-0.44218 -2.12738,-1.05909 -0.79353,-0.82515 -1.33059,-2.96791 -1.47678,-5.89207 -0.12269,-2.45425 -0.20155,-2.83274 -0.56776,-2.72498 -3.74708,1.10259 -8.3325095,1.9035 -12.9929795,2.26938 -5.16467,0.40547 -14.11514,-0.15698 -19.18229,-1.20543 -1.01865,-0.21077 -1.88185,-0.38331 -1.91823,-0.38343 -0.0364,-1.2e-4 -0.0661,0.88689 -0.0661,1.97114 0,2.5581 -0.42762,4.49567 -1.18704,5.37855 -0.54204,0.63016 -0.82965,0.71792 -2.65493,0.81009 l -2.04703,0.10337 0.18621,3.26861 c 0.23322,4.0937 1.36502,17.02677 1.50203,17.16379 0.0814,0.0814 4.22047,0.7942 10.55076,1.81697 1.60803,0.2598 1.95534,0.16961 2.76947,-0.71921 z m -44.97051,-13.75424 c 3.62455,-0.77245 9.59002,-2.89891 13.17891,-4.69777 0.90077,-0.45149 1.67611,-0.85506 1.72299,-0.89682 0.0469,-0.0417 -0.52566,-0.83131 -1.27229,-1.75458 -0.74664,-0.92326 -2.15161,-2.92881 -3.12216,-4.45678 -2.35558,-3.70845 -4.024,-6.02836 -4.45417,-6.19343 -0.19396,-0.0744 -1.99248,0.62722 -3.99671,1.55922 -2.00424,0.93199 -4.56762,1.96334 -5.69641,2.29187 -1.89137,0.55049 -2.20214,0.57165 -3.96201,0.26987 -1.05032,-0.18011 -2.8701,-0.73998 -4.04396,-1.24417 -1.17386,-0.50418 -2.23764,-0.91669 -2.36395,-0.91669 -0.12631,0 -0.89352,0.50601 -1.70492,1.12447 -2.54296,1.9383 -4.69175,3.23285 -6.49047,3.91023 -0.95493,0.35961 -1.737,0.78225 -1.73794,0.9392 -0.003,0.50889 1.6735,2.83174 3.29463,4.56473 3.15224,3.36975 6.47305,5.05486 11.78492,5.98011 1.27683,0.22241 7.0306,-0.0888 8.86354,-0.47946 z m 115.62291,-0.50979 c 4.5627,-1.32308 8.2578,-3.50928 11.07584,-6.55303 1.98004,-2.13863 3.44392,-4.2289 3.14853,-4.49578 -0.1108,-0.1001 -0.90312,-0.43954 -1.76072,-0.75431 -1.89292,-0.69478 -4.64481,-2.27655 -6.4683,-3.71793 -0.74226,-0.58673 -1.41444,-1.06678 -1.49372,-1.06678 -0.0793,0 -0.76739,0.40908 -1.52913,0.90907 -3.67541,2.41244 -7.49621,2.62275 -13.07601,0.71976 -1.77338,-0.60481 -3.32541,-1.09966 -3.44894,-1.09966 -0.12353,0 -0.61843,0.80367 -1.09979,1.78594 -1.3484,2.75156 -4.38711,7.70973 -5.71227,9.32052 -0.95456,1.16031 -1.12619,1.51518 -0.86106,1.78032 0.41333,0.41333 5.46528,2.32993 7.54761,2.8634 0.85322,0.21858 2.25575,0.50782 3.11672,0.64275 2.20921,0.34622 8.95032,0.13286 10.56124,-0.33427 z m -22.88435,-6.7321 c 0.65369,-0.98226 1.27612,-1.82506 1.38318,-1.87287 0.23861,-0.10657 4.20524,-6.67929 4.84988,-8.0363 0.38299,-0.80619 0.40517,-1.05194 0.12538,-1.38906 -0.60164,-0.72493 -1.17291,-0.41637 -2.52409,1.36332 -0.7276,0.95836 -1.88846,2.4593 -2.57968,3.33544 -0.69123,0.87613 -1.25677,1.69954 -1.25677,1.8298 0,0.13026 -0.0999,0.17512 -0.22191,0.0997 -0.12205,-0.0754 -0.50004,0.36403 -0.83998,0.97657 -0.33993,0.61255 -1.01398,1.70745 -1.49788,2.43311 -0.4839,0.72566 -0.87982,1.46696 -0.87982,1.64732 0,0.26955 1.64399,1.34591 2.11877,1.38722 0.0739,0.006 0.66923,-0.79197 1.32292,-1.77424 z m -74.1698,-0.48164 0.89163,-0.68007 -1.77641,-2.56107 c -1.56318,-2.25365 -4.2465,-5.6399 -7.04477,-8.89025 -0.62783,-0.72925 -1.0261,-0.98653 -1.34044,-0.8659 -0.83022,0.31858 -0.7982,0.9827 0.10869,2.25492 0.48459,0.6798 2.06252,2.9624 3.50651,5.07245 2.80651,4.10104 4.45128,6.35 4.64407,6.35 0.0655,0 0.52033,-0.30604 1.01072,-0.68008 z m 68.96866,-1.172 c 0.45549,-0.91304 0.39834,-0.95429 -0.50344,-0.36342 -0.51448,0.3371 -0.59143,0.50907 -0.35517,0.79375 0.40135,0.4836 0.40313,0.48271 0.85861,-0.43033 z m -65.79749,-1.23473 c -0.097,-0.097 -0.25576,-0.097 -0.35278,0 -0.097,0.097 -0.0176,0.17639 0.17639,0.17639 0.19403,0 0.27341,-0.0794 0.17639,-0.17639 z m -43.77929,-3.87584 c 1.70101,-0.80471 6.01325,-3.6103 6.5459,-4.25883 0.28012,-0.34107 0.30774,-0.58172 0.10393,-0.90539 -0.46891,-0.74466 -1.04156,-0.64476 -2.46058,0.42926 -1.48331,1.12267 -4.99373,3.10638 -6.888433,3.89259 -1.59561,0.6621 -1.69771,0.77784 -1.16025,1.3153 0.59603,0.59603 1.950743,0.43003 3.859433,-0.47293 z m 110.42867,-0.4584 c 0.64468,-0.44355 1.17215,-0.90811 1.17215,-1.03235 0,-0.12424 -0.71438,-0.30881 -1.5875,-0.41014 -0.87313,-0.10134 -1.5875,-0.26186 -1.5875,-0.35671 0,-0.0949 -0.86321,-0.17442 -1.9182305,-0.17681 -2.04361,-0.005 -6.48598,-0.27984 -8.99584,-0.55729 l -1.52135,-0.16817 v 1.20374 1.20374 l 1.65365,0.151 c 0.9095,0.0831 2.48708,0.22669 3.50573,0.31921 1.01864,0.0925 3.16177,0.25011 4.76249,0.35019 1.6007305,0.10008 3.0080305,0.20404 3.1273305,0.23101 0.11931,0.027 0.74438,-0.31386 1.38907,-0.75742 z m 43.88345,-0.13848 c 0.66219,-0.66218 0.50992,-0.84242 -1.10558,-1.30862 -2.4285,-0.70083 -5.70851,-2.42864 -7.04938,-3.71342 -1.04442,-1.00073 -1.31832,-1.14214 -1.75723,-0.90725 -0.75774,0.40553 -0.64051,1.08189 0.39776,2.29488 0.88173,1.03009 3.90393,2.81983 6.16252,3.64943 1.35296,0.49695 2.84664,0.49026 3.35191,-0.015 z m -106.65518,-0.64246 c 1.13832,-0.14557 3.07993,-0.26468 4.3147,-0.26468 h 2.24502 l -0.0814,-1.12448 -0.0814,-1.12448 -2.64583,-0.0886 c -2.92766,-0.0981 -10.39722,0.44898 -10.59951,0.77629 -0.0708,0.11446 0.55879,0.68309 1.39898,1.2636 1.24267,0.8586 1.70035,1.03418 2.45366,0.94127 0.50932,-0.0628 1.85739,-0.23331 2.9957,-0.37888 z m -49.43286,-3.0318 c 1.01712,-0.38305 2.36131,-0.9965 2.98708,-1.36323 1.28494,-0.75302 2.96883,-2.16503 2.96883,-2.48947 0,-0.11826 -0.59201,-1.10014 -1.31557,-2.18195 -1.22161,-1.82647 -1.33463,-2.13512 -1.5824,-4.32165 -0.2858,-2.5221 -1.18527,-4.71736 -2.67175,-6.52072 -0.94491,-1.14634 -2.202853,-1.36377 -6.365963,-1.10034 l -2.88778,0.18273 -1.05494,1.57978 c -0.58021,0.86887 -1.05493,1.756 -1.05493,1.97138 0,0.21539 0.68081,1.75468 1.51291,3.42066 1.63381,3.27108 1.65813,3.67879 0.24945,4.1808 -0.92904,0.33109 -1.71322,-0.4054 -3.2389,-3.04192 -1.21705,-2.10319 -5.12835,-6.21888 -5.33331,-5.61201 -0.18341,0.54309 0.71449,3.27501 1.67288,5.08982 0.98743,1.8698 1.14526,3.02215 0.46599,3.40228 -0.37921,0.21222 -0.33504,0.31031 0.33073,0.73464 0.4226,0.26935 0.83706,0.58522 0.92102,0.70194 0.084,0.11672 1.03645,0.60072 2.11666,1.07556 2.99987,1.31867 3.15465,1.4302 3.15465,2.27323 0,1.78506 -2.01604,1.74816 -5.68854,-0.10411 -2.22092,-1.12015 -2.3189,-1.14657 -1.45521,-0.39238 3.12957,2.7328 5.75551,3.47634 11.64167,3.29636 2.21324,-0.0677 3.15415,-0.22655 4.627423,-0.7814 z m -4.040903,-7.72979 c -0.42726,-0.17162 -2.88695,-3.7971 -3.38525,-4.98972 -0.54624,-1.30732 -0.13634,-2.14226 1.38125,-2.81357 1.65055,-0.73011 3.77033,-0.58297 4.7609,0.33047 1.866023,1.72073 1.848733,4.89299 -0.0369,6.77867 -0.83832,0.83832 -1.76947,1.07596 -2.71995,0.69415 z m 1.00098,-3.90124 c 0,-0.98651 -0.27294,-1.47685 -0.82206,-1.47685 -0.60977,0 -0.61054,0.0166 -0.055,1.18165 0.51802,1.0863 0.87704,1.20714 0.87704,0.2952 z m 84.005203,11.77553 c 1.35806,-0.13071 2.24243,-0.10636 2.46756,0.068 0.24956,0.19323 0.4273,0.16198 0.61546,-0.10817 0.17132,-0.246 0.30699,-0.27789 0.38497,-0.0905 0.2268,0.54505 3.89943,-0.20367 7.5969495,-1.54874 l 2.3337,-0.84895 -0.18275,-2.25313 c -0.10051,-1.23923 -0.2093,-2.28411 -0.24175,-2.32197 -0.13051,-0.15221 -2.5231,0.86013 -2.5231,1.06756 0,0.12272 -0.11536,0.15183 -0.25635,0.0647 -0.141,-0.0871 -1.36139,0.13743 -2.7119795,0.49903 -5.29563,1.41785 -13.15758,1.926 -18.85979,1.21898 -3.59551,-0.44581 -8.80635,-1.31757 -9.53773,-1.59564 l -0.64873,-0.24665 v 2.12902 c 0,1.37862 0.11954,2.24855 0.33915,2.46816 0.52044,0.52044 5.94692,1.53011 7.33275,1.36435 0.6554,-0.0784 2.14414,-0.0427 3.30831,0.0794 2.73775,0.28706 7.89172,0.31364 10.58333,0.0546 z m 83.74062,-1.31078 c 2.119,-0.67187 4.5502,-2.10077 5.95312,-3.49885 l 1.05834,-1.05467 -2.24079,1.34251 c -3.533,2.1167 -6.09848,2.6098 -6.45644,1.24096 -0.20312,-0.77674 0.36953,-1.54331 1.58874,-2.12676 2.65877,-1.27234 3.36145,-1.69325 4.40187,-2.63676 0.61552,-0.55817 0.90625,-0.9483 0.64608,-0.86695 -0.78449,0.24531 -0.83652,-0.5534 -0.20458,-3.14046 0.62865,-2.57357 0.78774,-4.22331 0.44029,-4.56594 -0.41697,-0.4112 -2.95556,2.70277 -3.59307,4.40744 -0.33854,0.90526 -1.07111,2.3508 -1.62794,3.21232 -0.84828,1.31245 -1.13538,1.5664 -1.77093,1.5664 -0.42348,0 -0.97086,-0.23465 -1.23928,-0.53125 -0.46782,-0.51693 -0.45157,-0.59355 0.60339,-2.84427 2.04172,-4.35596 2.04886,-5.1334 0.0649,-7.07065 l -1.02023,-0.99623 -3.32646,0.11074 -3.32646,0.11074 -0.89663,0.86905 c -1.37704,1.33468 -2.42504,3.76235 -2.88455,6.68197 -0.33284,2.11483 -0.5856,2.85391 -1.48728,4.34892 -0.59746,0.99061 -1.0863,1.94687 -1.0863,2.12502 0,0.83232 2.68073,2.46079 5.68855,3.45563 1.65466,0.54729 2.23282,0.6016 5.42395,0.50949 2.64863,-0.0764 4.01641,-0.24404 5.29167,-0.6484 z m -8.91455,-7.56719 c -2.40633,-1.04651 -2.60234,-5.87168 -0.29564,-7.27804 1.7064,-1.04037 4.68244,-0.48732 5.48918,1.02007 0.36246,0.67727 0.0857,1.4209 -1.50683,4.04893 -1.06404,1.75589 -1.95711,2.62569 -2.65596,2.58678 -0.1023,-0.006 -0.56613,-0.17568 -1.03075,-0.37774 z m 2.03538,-4.68956 c 0,-0.31179 -0.73276,-0.26217 -0.93387,0.0632 -0.0942,0.15249 -0.0928,0.47991 0.003,0.7276 0.15986,0.41225 0.20662,0.4069 0.55262,-0.0632 0.20788,-0.28247 0.37797,-0.60989 0.37797,-0.7276 z m -38.82708,10.49537 c 0.53755,-0.57865 0.98057,-1.12224 0.98451,-1.20797 0.004,-0.0857 -0.37979,-0.15448 -0.85274,-0.15277 -0.47294,0.002 -1.87192,-0.0732 -3.10885,-0.16643 -1.23693,-0.0932 -3.49911,-0.23782 -5.02708,-0.3213 -1.52797,-0.0835 -3.0162505,-0.20112 -3.3073005,-0.26143 -0.29104,-0.0603 -2.55314,-0.18571 -5.02689,-0.27867 -2.47375,-0.093 -4.58711,-0.22427 -4.69635,-0.29178 -0.10925,-0.0675 -0.19863,0.46874 -0.19863,1.19168 v 1.31445 l 2.71198,0.12431 c 3.09183,0.14172 9.4871105,0.66461 11.4190405,0.93363 0.71429,0.0995 2.38463,0.17805 3.71184,0.17462 l 2.41313,-0.006 z m -78.64791,-0.37411 c 1.23693,-0.13405 3.73724,-0.32102 5.55625,-0.41549 4.32922,-0.22484 6.1264,-0.34679 8.13594,-0.55208 l 1.65364,-0.16893 v -0.89522 -0.89522 l -2.44739,-0.0159 c -6.56934,-0.0427 -13.38444,0.24951 -16.55878,0.71006 l -1.1468,0.16639 1.13574,1.15723 c 0.62466,0.63648 1.20025,1.15626 1.27909,1.15507 0.0788,-0.001 1.15538,-0.11185 2.39231,-0.24589 z m 37.74722,-2.83875 c -0.097,-0.097 -0.25576,-0.097 -0.35278,0 -0.097,0.097 -0.0176,0.17639 0.17639,0.17639 0.19403,0 0.2734,-0.0794 0.17639,-0.17639 z m 2.11667,-1.85208 c -0.097,-0.097 -0.25577,-0.097 -0.35278,0 -0.097,0.097 -0.0176,0.17639 0.17639,0.17639 0.19403,0 0.2734,-0.0794 0.17639,-0.17639 z m 45.98209,-2.72297 c 1.32596,-1.30129 1.45397,-1.59856 0.68838,-1.59856 -0.28245,0 -0.5774,-0.1033 -0.65543,-0.22957 -0.078,-0.12626 -1.11664,-0.25038 -2.30801,-0.27581 -1.19137,-0.0254 -2.23615,-0.0895 -2.32174,-0.14241 -0.0856,-0.0529 -1.94127,-0.17293 -4.12375,-0.26674 -2.18248,-0.0938 -5.39689,-0.28828 -7.14314,-0.43216 -1.7462505,-0.14388 -4.6037505,-0.31392 -6.3500005,-0.37785 -1.74625,-0.0639 -3.85961,-0.19001 -4.69636,-0.28017 l -1.52135,-0.16391 v 1.70773 1.70773 l 2.05052,0.17086 c 1.12779,0.094 4.4913,0.29153 7.47448,0.43902 6.4576105,0.31926 13.8321105,0.77515 13.9189905,0.86046 0.0341,0.0335 0.89984,0.0609 1.92377,0.0609 1.84775,0 1.87071,-0.009 3.06364,-1.17957 z m -37.42723,0.38582 c 0,-0.0728 -0.0595,-0.13229 -0.13229,-0.13229 -0.0728,0 -0.1323,0.0595 -0.1323,0.13229 0,0.0728 0.0595,0.13229 0.1323,0.13229 0.0728,0 0.13229,-0.0595 0.13229,-0.13229 z m -50.93229,-0.53666 c 1.63793,-0.0715 5.78729,-0.34017 10.31875,-0.66824 1.89177,-0.13696 4.36232,-0.24931 5.4901,-0.24967 l 2.05052,-6.4e-4 v -1.5875 -1.5875 h -6.01039 c -3.30572,0 -7.62174,0.11589 -9.59115,0.25753 -1.96941,0.14164 -5.48575,0.38391 -7.81408,0.53837 -4.7802,0.31713 -5.75985,0.46217 -5.53868,0.82003 0.085,0.13747 0.88462,0.85758 1.77701,1.60024 l 1.62254,1.35029 3.18623,-0.2076 c 1.75243,-0.11418 3.78154,-0.23357 4.50915,-0.26531 z m 44.97916,-0.64305 c 3.31896,-0.66395 6.33919,-1.89791 9.1289295,-3.72975 2.25032,-1.47764 2.38045,-1.61397 2.38045,-2.494 0,-1.21472 -0.36248,-1.19812 -2.38512,0.10918 -4.1661795,2.69273 -10.3247595,3.94532 -17.9212495,3.645 -5.11328,-0.20216 -8.86197,-0.97066 -13.0106,-2.66726 -0.9346,-0.38221 -1.73827,-0.69492 -1.78594,-0.69492 -0.0477,0 -0.0844,0.62508 -0.0816,1.38906 l 0.005,1.38906 1.91318,0.84157 c 3.55775,1.56498 7.363,2.42502 12.09964,2.73468 3.7694,0.24643 6.57077,0.0948 9.65729,-0.52262 z m -15.65451,-2.56856 c 0.097,-0.097 0.25576,-0.097 0.35278,0 0.097,0.097 0.0176,0.17639 -0.17639,0.17639 -0.19403,0 -0.2734,-0.0794 -0.17639,-0.17639 z m 17.24201,-3.78425 c 1.16417,-0.30076 2.62678,-0.74102 3.25024,-0.97835 1.12295,-0.42747 1.129,-0.43671 0.6458,-0.9874 -0.26826,-0.30575 -0.63466,-0.90016 -0.81421,-1.32092 l -0.32646,-0.76503 -1.90685,0.16775 c -1.04877,0.0923 -5.98366,0.24741 -10.96642,0.34477 l -9.05957,0.17703 -0.41926,0.63986 c -0.23058,0.35192 -0.79257,0.79683 -1.24886,0.98868 l -0.82961,0.34883 1.04802,0.44223 c 3.21546,1.35683 8.14845,1.93777 14.22254,1.67494 2.95202,-0.12774 4.94744,-0.35593 6.40464,-0.73239 z m 52.65055,-3.20915 2.3037,-1.95833 -0.8865,-0.0763 c -0.48758,-0.042 -1.05821,-0.13633 -1.26807,-0.20965 -0.50777,-0.17738 -4.96234,-0.33953 -17.08093,-0.62173 -5.52979,-0.12877 -12.1009805,-0.38193 -14.6026505,-0.56256 -3.68029,-0.26574 -4.85446,-0.2635 -6.15156,0.0118 l -1.60308,0.3402 v 1.65613 1.65613 l 3.9026,0.16038 c 2.14644,0.0882 5.2123,0.27683 6.81302,0.41916 1.6007305,0.14234 4.9344805,0.32461 7.4083405,0.40503 2.47385,0.0804 4.8551,0.19611 5.29166,0.25707 0.43657,0.0609 2.81782,0.19005 5.29167,0.28688 2.47385,0.0968 4.53098,0.20508 4.57139,0.24054 0.0404,0.0355 0.89095,0.0395 1.89009,0.009 l 1.81662,-0.0554 z m -109.80054,1.3522 c 2.76489,-0.15011 5.80099,-0.33044 6.74687,-0.40072 0.94589,-0.0703 3.86292,-0.25525 6.48229,-0.41105 2.61938,-0.1558 7.02469,-0.42456 9.78958,-0.59726 l 5.02709,-0.314 -0.09,-1.19063 c -0.0495,-0.65484 -0.16856,-1.26276 -0.26458,-1.35092 -0.096,-0.0882 -1.23523,-0.48484 -2.53158,-0.88151 -2.28457,-0.69904 -2.52852,-0.71936 -7.9375,-0.66124 -3.06928,0.033 -5.69956,0.0238 -5.84508,-0.0204 -0.14552,-0.0442 -0.44318,-0.009 -0.66146,0.0784 -0.35337,0.14135 -8.34332,0.51212 -18.91771,0.87788 -2.03729,0.0705 -4.21841,0.19114 -4.84693,0.26817 l -1.14277,0.14004 0.87819,0.6534 c 5.75393,4.28111 5.96339,4.39571 7.62505,4.17189 0.36381,-0.049 2.92365,-0.21192 5.68855,-0.36204 z m 33.37214,-1.74224 c 2.07692,-0.77785 2.47237,-1.0587 1.77793,-1.26267 -0.42322,-0.12431 -3.4794,-0.7025 -3.71325,-0.7025 -0.046,0 -0.0837,0.59532 -0.0837,1.32292 0,0.7276 0.0454,1.32292 0.10079,1.32292 0.0554,0 0.91864,-0.3063 1.91823,-0.68067 z m 33.9643095,-0.77454 c 0,-1.12528 -0.0399,-1.18999 -0.7276,-1.17908 -1.2295,0.0195 -3.79343,0.6346 -3.81195,0.9145 -0.0202,0.30459 3.05499,1.43184 3.94424,1.44584 0.53055,0.008 0.59531,-0.12015 0.59531,-1.18126 z m -8.0539495,-3.57752 c 13.1227095,-1.33024 20.2776895,-4.18434 26.60266,-10.61173 2.20844,-2.24421 3.39169,-3.8994 5.13928,-7.1891 2.67443,-5.03439 3.91896,-9.31714 6.58909,-22.67477 1.09084,-5.45704 2.10876,-10.3386 2.26204,-10.84792 0.24909,-0.82767 0.21626,-0.9682 -0.30904,-1.32292 -0.32326,-0.21828 -1.84344,-1.3147 -3.37818,-2.43649 -1.53474,-1.12179 -3.0881,-2.18971 -3.4519,-2.37316 -0.3638,-0.18345 -1.13771,-0.64778 -1.71979,-1.03184 -1.11387,-0.73493 -6.76773,-3.68351 -7.06309,-3.68351 -0.0947,0 -0.52944,0.35719 -0.966,0.79375 -1.0734505,1.07346 -1.7365205,1.03006 -6.0764105,-0.39767 -4.59494,-1.51164 -5.5756,-2.06053 -6.32194,-3.53849 -0.32102,-0.63572 -0.62539,-1.19757 -0.67636,-1.24854 -0.18303,-0.18303 -3.8358,-0.86952 -7.4712,-1.40411 -10.8749295,-1.59919 -23.6116995,-1.79953 -32.7411695,-0.51502 -2.21782,0.31205 -2.34181,0.36558 -2.9802,1.28679 -0.91794,1.32458 -2.02009,1.87544 -6.61196,3.30468 -4.54699,1.41526 -5.90361,1.47558 -6.90861,0.3072 -0.31684,-0.36835 -0.6274,-0.8237 -0.69013,-1.01188 -0.13719,-0.41158 -2.86452,0.73065 -5.70332,2.3886 -1.88281,1.09962 -6.8679,4.7359 -7.44363,5.42962 -0.25223,0.30391 -0.2066,1.01904 0.21579,3.38221 0.29461,1.64825 0.96397,5.91385 1.48748,9.47911 0.52351,3.56526 1.17395,7.67292 1.44543,9.12813 0.27147,1.45521 0.56899,3.18161 0.66115,3.83646 0.82509,5.86275 2.33525,11.24731 3.97854,14.1858 5.56945,9.95911 15.98075,15.4899 32.0073,17.00324 4.72831,0.44648 14.51093,0.33057 20.12417,-0.23844 z m -13.79647,-22.58512 c -3.22871,-1.03456 -4.58463,-3.13318 -4.60144,-7.12185 -0.009,-2.12991 0.52476,-3.09572 1.71081,-3.09572 1.13749,0 1.45772,0.53421 1.45772,2.43175 0,1.87714 0.3685,3.06014 1.23491,3.96448 0.57385,0.59897 0.94798,0.74752 1.88262,0.74752 2.34702,0 3.51925,-1.49391 3.62027,-4.61372 0.0824,-2.54538 1.10944,-3.46361 2.55945,-2.28834 0.56693,0.45952 0.62073,0.69508 0.58252,2.5505 -0.0532,2.5805 -0.45924,4.03675 -1.46639,5.25859 -1.55357,1.88476 -4.7572,2.87918 -6.98047,2.16679 z m 27.2993395,-8.53622 c -1.9928,-0.61177 -4.11025,-2.87145 -4.86579,-5.19263 -1.29146,-3.96764 -0.34662,-9.13186 2.15737,-11.79159 1.88217,-1.99923 4.83375,-2.67206 7.21951,-1.64574 3.50251,1.50674 5.3630605,5.46773 5.0331805,10.71536 -0.12366,1.96711 -0.29347,2.65089 -1.0078605,4.05835 -1.02824,2.0258 -2.50855,3.36914 -4.29836,3.90065 -1.6181,0.48053 -2.56029,0.47066 -4.23805,-0.0444 z m -56.0510195,-1.26509 c -2.13122,-0.76056 -3.87174,-2.70714 -4.609,-5.15466 -0.72311,-2.40053 -0.3047,-6.96879 0.86382,-9.43125 2.15896,-4.54967 7.51416,-5.6899 10.88617,-2.31788 3.80471,3.8047 3.95737,11.84236 0.29151,15.34808 -1.86421,1.78278 -4.97288,2.43346 -7.4325,1.55571 z m 107.3184,27.39505 c 0.74786,-0.41085 2.66943,-1.4257 4.27016,-2.25525 1.60072,-0.82954 3.20807,-1.73714 3.57187,-2.0169 0.66123,-0.50847 0.66004,-0.50865 -3.43958,-0.5171 -2.25558,-0.005 -8.26823,-0.12444 -13.36146,-0.26621 -5.09323,-0.14177 -11.64167,-0.31845 -14.55208,-0.39261 -2.91042,-0.0742 -6.24417,-0.20229 -7.40834,-0.28472 l -2.11666,-0.14988 -3.09329,3.0586 -3.09329,3.05859 11.42766,0.0333 c 6.28522,0.0183 13.15407,0.11081 15.26412,0.20561 2.11006,0.0948 5.48677,0.19514 7.5038,0.22298 3.57141,0.0493 3.70291,0.0311 5.02709,-0.69636 z m -145.484,-0.68748 c 2.56013,-0.23346 25.67668,-0.91873 31.32208,-0.92853 l 0.895,-0.002 -1.95812,-2.05052 c -1.07696,-1.12779 -2.41886,-2.71031 -2.98199,-3.51672 l -1.02387,-1.46621 -7.17343,0.0775 c -7.93725,0.0857 -19.27936,0.49484 -23.97446,0.8648 -1.673493,0.13187 -4.588773,0.31978 -6.478403,0.41758 l -3.43568,0.17782 1.6417,1.54309 c 1.24481,1.17003 2.54583,1.9956 5.38144,3.41481 3.396783,1.70007 3.852473,1.85984 4.968983,1.74222 0.67609,-0.0712 1.94362,-0.19464 2.81675,-0.27426 z m 157.49011,-12.47063 1.92134,-0.1741 -0.024,-0.82341 c -0.0132,-0.45287 -0.28111,-1.83543 -0.59531,-3.07236 l -0.57128,-2.24895 h -19.62575 -19.62574 l -1.02792,2.81106 -1.02791,2.81106 4.64637,0.20406 c 11.33765,0.49792 32.64764,0.7901 35.93024,0.49264 z m -163.9724,-6.31076 c 2.11005,-0.0734 7.52739,-0.19571 12.03854,-0.27189 7.66447,-0.12941 16.34624,-0.3871 16.44968,-0.48825 0.0848,-0.083 -1.18856,-7.35832 -1.30901,-7.47877 -0.0658,-0.0658 -4.57091,-0.0891 -10.01139,-0.0517 -19.350633,0.13282 -23.652763,0.0952 -23.598673,-0.20615 0.0283,-0.15765 -0.11743,-0.28663 -0.32383,-0.28663 -0.40946,0 -1.02585,1.68139 -2.10157,5.73264 -1.00082,3.76916 -1.16953,3.51059 2.17552,3.33417 1.56435,-0.0825 4.57067,-0.21003 6.680733,-0.2834 z m 164.04165,-2.38931 c 0,-0.0728 -0.0595,-0.13229 -0.13229,-0.13229 -0.0728,0 -0.13229,0.0595 -0.13229,0.13229 0,0.0728 0.0595,0.13229 0.13229,0.13229 0.0728,0 0.13229,-0.0595 0.13229,-0.13229 z m -1.32291,-4.56396 c 0,-0.61744 -0.93244,-3.97422 -1.49335,-5.37607 -0.35211,-0.88002 -0.48562,-1.01226 -0.67688,-0.67048 -0.21491,0.38402 -1.79684,0.42516 -16.13862,0.41977 -8.74519,-0.003 -15.94059,0.0343 -15.98979,0.0835 -0.0988,0.0988 -1.15553,5.13182 -1.15553,5.50337 0,0.12916 5.09029,0.26332 11.44323,0.30161 6.29378,0.0379 14.27096,0.10116 17.72708,0.14052 5.88914,0.0671 6.28386,0.0418 6.28386,-0.40219 z m -168.407293,-1.91833 c 0.0899,-0.14553 0.10399,-0.26459 0.0312,-0.26459 -0.0728,0 -0.20587,0.11906 -0.29581,0.26459 -0.0899,0.14552 -0.10399,0.26458 -0.0312,0.26458 0.0728,0 0.20588,-0.11906 0.29581,-0.26458 z m -0.74965,-0.70556 c -0.097,-0.097 -0.17639,-0.0176 -0.17639,0.17639 0,0.19403 0.0794,0.2734 0.17639,0.17639 0.097,-0.097 0.097,-0.25577 0,-0.35278 z m 165.981943,-4.7184 c 0,-0.0728 -0.0595,-0.13229 -0.13229,-0.13229 -0.0728,0 -0.1323,0.0595 -0.1323,0.13229 0,0.0728 0.0595,0.13229 0.1323,0.13229 0.0728,0 0.13229,-0.0595 0.13229,-0.13229 z m 0.52916,0 c 0,-0.0728 -0.0595,-0.13229 -0.13229,-0.13229 -0.0728,0 -0.13229,0.0595 -0.13229,0.13229 0,0.0728 0.0595,0.13229 0.13229,0.13229 0.0728,0 0.13229,-0.0595 0.13229,-0.13229 z m 0.52917,0 c 0,-0.0728 -0.0595,-0.13229 -0.13229,-0.13229 -0.0728,0 -0.13229,0.0595 -0.13229,0.13229 0,0.0728 0.0595,0.13229 0.13229,0.13229 0.0728,0 0.13229,-0.0595 0.13229,-0.13229 z m -0.88194,-1.36702 c -0.097,-0.097 -0.17639,-0.0176 -0.17639,0.17639 0,0.19403 0.0794,0.27341 0.17639,0.17639 0.097,-0.097 0.097,-0.25576 0,-0.35278 z m -1.05834,-3.96875 c -0.097,-0.097 -0.17639,-0.0176 -0.17639,0.17639 0,0.19403 0.0794,0.27341 0.17639,0.17639 0.097,-0.097 0.097,-0.25576 0,-0.35278 z m -156.14825,-0.47317 c 2.47385,-0.0782 6.58151,-0.20359 9.12812,-0.27855 13.20166,-0.38863 13.7592,-0.42458 13.74442,-0.88627 -0.0232,-0.72489 -0.69335,-4.27274 -0.83353,-4.41292 -0.19098,-0.19098 -7.01242,-0.17668 -17.21037,0.0361 -6.6703,0.13916 -8.929683,0.10917 -8.929683,-0.11852 0,-0.16765 0.17859,-0.30482 0.39687,-0.30482 0.21828,0 0.39688,-0.11906 0.39688,-0.26458 0,-0.57032 -0.82322,-0.2241 -1.10094,0.46302 -0.75792,1.87518 -1.99266,5.77649 -1.88669,5.96124 0.0652,0.11361 0.49614,0.14829 0.95774,0.0771 0.46159,-0.0712 2.863323,-0.19349 5.337183,-0.27173 z m 154.91456,-4.27465 c -1.04812,-3.06347 -1.76967,-4.33637 -2.04154,-3.60151 -0.0978,0.26439 -1.84502,0.33304 -8.03927,0.31586 -4.35287,-0.0121 -8.03054,0.0499 -8.17261,0.13769 -0.14208,0.0878 -1.95724,0.1404 -4.03369,0.11688 l -3.77538,-0.0428 -0.62656,2.82125 c -0.34462,1.55168 -0.5675,2.88032 -0.4953,2.95251 0.10843,0.10843 27.94799,0.57776 28.18443,0.47514 0.0413,-0.0179 -0.40874,-1.44669 -1.00008,-3.17505 z m -158.574633,-2.92509 c -0.097,-0.097 -0.17639,-0.0176 -0.17639,0.17639 0,0.19402 0.0794,0.2734 0.17639,0.17639 0.097,-0.097 0.097,-0.25577 0,-0.35278 z m 156.456933,-2.60174 c 0,-0.0728 -0.0595,-0.13229 -0.13229,-0.13229 -0.0728,0 -0.13229,0.0595 -0.13229,0.13229 0,0.0728 0.0595,0.13229 0.13229,0.13229 0.0728,0 0.13229,-0.0595 0.13229,-0.13229 z m -25.84711,-4.49791 c 0.66025,-3.16295 0.66082,-3.17818 0.15136,-4.01084 -0.81528,-1.33247 -3.68082,-3.85938 -6.51999,-5.74949 -9.31323,-6.20006 -24.6847005,-10.76009 -41.19861,-12.22179 -9.70321,-0.85886 -25.61631,0.79306 -34.93252,3.62631 -8.65048,2.63079 -13.15369,4.84291 -19.57916,9.61794 -1.16417,0.86514 -2.13256,1.57774 -2.15199,1.58355 -0.0779,0.0233 1.21989,6.269 1.3445,6.47062 0.0737,0.11919 0.63781,-0.24848 1.25367,-0.81703 2.02875,-1.87293 6.97403,-4.97786 10.43625,-6.55246 1.87279,-0.85174 4.4171,-2.09071 5.65403,-2.75327 3.64856,-1.95434 6.59976,-2.47373 9.14527,-1.60951 1.00667,0.34178 1.54136,0.36632 2.98581,0.13707 3.76064,-0.59686 7.01774,-0.84955 12.87204,-0.99864 9.42891,-0.24012 18.785,0.52179 27.2344395,2.21783 2.93983,0.59011 3.59788,0.64541 4.57383,0.38439 1.6859,-0.45091 3.32894,-0.37272 5.16496,0.24579 1.812,0.61041 2.59734,1.10938 4.6065005,2.92672 0.74968,0.67812 1.64265,1.31951 1.98437,1.42532 1.18413,0.36667 7.2465,3.47802 9.48486,4.86785 2.38896,1.48334 5.94505,4.07577 6.23552,4.54576 0.32958,0.53327 0.59373,-0.16898 1.25486,-3.33612 z m 24.96517,2.33715 c -0.097,-0.097 -0.17639,-0.0176 -0.17639,0.17639 0,0.19402 0.0794,0.2734 0.17639,0.17639 0.097,-0.097 0.097,-0.25577 0,-0.35278 z m -1.05833,-2.64584 c -0.097,-0.097 -0.17639,-0.0176 -0.17639,0.17639 0,0.19403 0.0794,0.27341 0.17639,0.17639 0.097,-0.097 0.097,-0.25576 0,-0.35278 z m -138.75279,-1.21232 c 4.61979,-0.0366 8.39958,-0.12603 8.39951,-0.19879 -6.6e-4,-0.73172 -0.81985,-4.89633 -0.99821,-5.07468 -0.12858,-0.12859 -4.30195,-0.23438 -9.27414,-0.23509 l -9.04034,-10e-4 -0.008,-0.58562 c -0.007,-0.5403 -0.0298,-0.54827 -0.28868,-0.10303 -0.37344,0.64216 -2.08453,5.73858 -2.08453,6.20867 0,0.30104 0.4539,0.34054 2.4474,0.21295 1.34607,-0.0861 6.22723,-0.18655 10.84703,-0.22313 z m 137.82511,-1.86323 c 0.37749,-0.0476 0.29363,-0.44232 -0.59575,-2.80462 -0.5693,-1.5121 -1.24325,-2.91992 -1.49767,-3.12848 -0.25442,-0.20856 -0.32486,-0.31067 -0.15653,-0.22692 0.20537,0.10218 0.2554,-0.0414 0.15207,-0.43658 -0.15245,-0.58296 -0.15622,-0.58217 -0.37647,0.0786 l -0.22249,0.66744 -7.46948,0.0512 c -5.48913,0.0376 -7.49723,0.13441 -7.57415,0.36516 -0.0576,0.1727 -0.36544,1.45359 -0.68416,2.84644 l -0.57949,2.53245 7.16572,0.13229 c 6.36456,0.1175 10.50885,0.0906 11.8384,-0.0769 z m -3.21746,-7.99285 c 0,-0.0728 -0.0595,-0.13229 -0.13229,-0.13229 -0.0728,0 -0.1323,0.0595 -0.1323,0.13229 0,0.0728 0.0595,0.13229 0.1323,0.13229 0.0728,0 0.13229,-0.0595 0.13229,-0.13229 z m -25.22405,-0.85989 c 0.20162,-0.25466 0.71579,-1.1344 1.14261,-1.95498 1.00691,-1.93581 5.73775,-9.77608 7.64105,-12.66325 1.73519,-2.63217 4.50486,-6.28002 5.59862,-7.37378 0.42201,-0.42201 1.07516,-1.46344 1.45145,-2.31429 l 0.68415,-1.54699 -2.92693,-2.84914 c -2.81332,-2.73854 -3.44815,-3.20679 -3.44815,-2.54338 0,0.16817 -0.27739,0.67418 -0.61642,1.12448 -4.70138,6.24431 -10.35984,16.39988 -13.28172,23.83747 -1.76724,4.49847 -1.82859,4.03478 0.7229,5.46356 1.20727,0.67604 2.30097,1.24135 2.43045,1.25624 0.12947,0.0149 0.40037,-0.18128 0.60199,-0.43594 z m -118.79747,-0.50712 c -0.097,-0.097 -0.17639,-0.0176 -0.17639,0.17639 0,0.19403 0.0794,0.2734 0.17639,0.17639 0.097,-0.097 0.097,-0.25577 0,-0.35278 z m 28.6698,-2.34048 c 1.01501,-0.51115 1.84547,-1.10101 1.84547,-1.3108 0,-0.20979 -0.54431,-2.26213 -1.20958,-4.56074 -1.67516,-5.78792 -2.64954,-8.26044 -5.40065,-13.7043 -1.66846,-3.30155 -5.87779,-9.99074 -6.73411,-10.70142 -0.55707,-0.46233 -0.94615,-0.18312 -4.49515,3.22589 l -2.89054,2.77651 0.59515,0.76201 c 0.32733,0.41911 1.57716,1.77404 2.77739,3.01097 2.77122,2.85594 5.29788,5.94158 6.90767,8.4359 1.44245,2.23504 3.88569,7.2838 5.16848,10.68024 0.5057,1.33897 1.02533,2.31511 1.23238,2.31511 0.1969,0 1.18847,-0.41822 2.20349,-0.92937 z m 83.8663,0.003 c 0,-0.0728 -0.0595,-0.1323 -0.13229,-0.1323 -0.0728,0 -0.13229,0.0595 -0.13229,0.1323 0,0.0728 0.0595,0.13229 0.13229,0.13229 0.0728,0 0.13229,-0.0595 0.13229,-0.13229 z m -111.65416,-0.52917 c 0,-0.0728 -0.0595,-0.13229 -0.13229,-0.13229 -0.0728,0 -0.13229,0.0595 -0.13229,0.13229 0,0.0728 0.0595,0.13229 0.13229,0.13229 0.0728,0 0.13229,-0.0595 0.13229,-0.13229 z m 111.91875,0 c 0,-0.0728 -0.0595,-0.13229 -0.1323,-0.13229 -0.0728,0 -0.13229,0.0595 -0.13229,0.13229 0,0.0728 0.0595,0.13229 0.13229,0.13229 0.0728,0 0.1323,-0.0595 0.1323,-0.13229 z m 30.42708,-0.26458 c 0,-0.0728 -0.0595,-0.1323 -0.13229,-0.1323 -0.0728,0 -0.1323,0.0595 -0.1323,0.1323 0,0.0728 0.0595,0.13229 0.1323,0.13229 0.0728,0 0.13229,-0.0595 0.13229,-0.13229 z m -141.64027,-0.30868 c -0.097,-0.097 -0.25577,-0.097 -0.35278,0 -0.097,0.097 -0.0176,0.17638 0.17639,0.17638 0.19403,0 0.2734,-0.0794 0.17639,-0.17638 z m 108.30277,-0.22049 c 0,-0.0728 -0.0595,-0.13229 -0.13229,-0.13229 -0.0728,0 -0.13229,0.0595 -0.13229,0.13229 0,0.0728 0.0595,0.13229 0.13229,0.13229 0.0728,0 0.13229,-0.0595 0.13229,-0.13229 z m -108.74374,-0.26458 c 0,-0.0728 -0.0595,-0.1323 -0.1323,-0.1323 -0.0728,0 -0.13229,0.0595 -0.13229,0.1323 0,0.0728 0.0595,0.13229 0.13229,0.13229 0.0728,0 0.1323,-0.0595 0.1323,-0.13229 z m 30.42708,0 c 0,-0.0728 -0.0595,-0.1323 -0.13229,-0.1323 -0.0728,0 -0.1323,0.0595 -0.1323,0.1323 0,0.0728 0.0595,0.13229 0.1323,0.13229 0.0728,0 0.13229,-0.0595 0.13229,-0.13229 z m -29.89792,-0.26459 c 0,-0.0728 -0.0595,-0.13229 -0.13229,-0.13229 -0.0728,0 -0.13229,0.0595 -0.13229,0.13229 0,0.0728 0.0595,0.13229 0.13229,0.13229 0.0728,0 0.13229,-0.0595 0.13229,-0.13229 z m 106.89166,-0.13229 c -0.21828,-0.14106 -0.57547,-0.24993 -0.79375,-0.24193 -0.26168,0.01 -0.21662,0.092 0.13229,0.24193 0.72737,0.31256 1.14511,0.31256 0.66146,0 z m 4.7625,0.13229 c 0,-0.0728 -0.0595,-0.13229 -0.13229,-0.13229 -0.0728,0 -0.13229,0.0595 -0.13229,0.13229 0,0.0728 0.0595,0.13229 0.13229,0.13229 0.0728,0 0.13229,-0.0595 0.13229,-0.13229 z m -81.88853,-0.39687 c 0.0899,-0.14552 0.10399,-0.26459 0.0312,-0.26459 -0.0728,0 -0.20588,0.11907 -0.29582,0.26459 -0.0899,0.14552 -0.10399,0.26458 -0.0312,0.26458 0.0728,0 0.20588,-0.11906 0.29582,-0.26458 z m 0.83784,0.0882 c -0.097,-0.097 -0.25576,-0.097 -0.35278,0 -0.097,0.097 -0.0176,0.17639 0.17639,0.17639 0.19403,0 0.27341,-0.0794 0.17639,-0.17639 z m -18.15753,-1.08931 c -0.12116,-0.39527 -0.42069,-1.39816 -0.66562,-2.22865 l -0.44533,-1.50997 -4.6753,-0.0775 c -2.57142,-0.0426 -4.8483,-0.13705 -5.05973,-0.20982 -0.28499,-0.0981 -0.59782,0.5015 -1.20955,2.31823 -0.45382,1.34779 -0.79696,2.47888 -0.76252,2.51354 0.0344,0.0347 2.98216,0.0292 6.55049,-0.012 l 6.48787,-0.0751 z m 19.17177,0.73653 c -0.0899,-0.14552 -0.28259,-0.26458 -0.42811,-0.26458 -0.14552,0 -0.19099,0.11906 -0.10106,0.26458 0.0899,0.14553 0.28259,0.26459 0.42811,0.26459 0.14552,0 0.191,-0.11906 0.10106,-0.26459 z m 73.86284,0.0882 c -0.097,-0.097 -0.25576,-0.097 -0.35278,0 -0.097,0.097 -0.0176,0.17639 0.17639,0.17639 0.19403,0 0.27341,-0.0794 0.17639,-0.17639 z m -0.79375,-0.26458 c -0.097,-0.097 -0.25576,-0.097 -0.35278,0 -0.097,0.097 -0.0176,0.17638 0.17639,0.17638 0.19403,0 0.27341,-0.0794 0.17639,-0.17638 z m -1.6307205,-5.28572 c 1.4010905,-5.38992 2.5045105,-8.67819 4.3820305,-13.05873 1.61768,-3.7743 5.13567,-10.77491 6.96841,-13.86677 0.6823,-1.15105 1.18854,-2.22834 1.12497,-2.394 -0.15447,-0.40256 -5.96853,-3.54656 -6.73305,-3.64095 -0.51534,-0.0636 -0.7166,0.19217 -1.39873,1.77776 -5.2961005,12.31064 -8.5385405,22.20054 -9.8860205,30.15381 -0.36731,2.16794 -0.62087,3.98867 -0.56348,4.04606 0.17174,0.17174 4.77401,1.61515 4.86374,1.52541 0.0456,-0.0455 0.60452,-2.08972 1.24213,-4.54259 z m 36.7618105,0.95576 c -0.53007,-1.63966 -1.04133,-2.85673 -1.13614,-2.70461 -0.0968,0.15532 -1.62082,0.33785 -3.47626,0.41634 l -3.30389,0.13977 -0.58134,2.20294 c -0.31974,1.21162 -0.58932,2.38154 -0.59905,2.59982 -0.0152,0.34195 0.65979,0.38546 4.87742,0.31437 3.89676,-0.0657 4.89937,-0.0117 4.916,0.26458 0.0134,0.2234 0.0648,0.24034 0.14395,0.0475 0.0677,-0.16475 -0.31063,-1.64109 -0.84069,-3.28074 z m -110.80192,2.74246 c -0.097,-0.097 -0.17639,-0.0176 -0.17639,0.17638 0,0.19403 0.0794,0.27341 0.17639,0.17639 0.097,-0.097 0.097,-0.25576 0,-0.35277 z m 7.40834,0 c -0.097,-0.097 -0.25577,-0.097 -0.35278,0 -0.097,0.097 -0.0176,0.17638 0.17639,0.17638 0.19402,0 0.2734,-0.0794 0.17639,-0.17638 z m 0.79375,-0.26459 c -0.097,-0.097 -0.25577,-0.097 -0.35278,0 -0.097,0.097 -0.0176,0.17639 0.17639,0.17639 0.19402,0 0.2734,-0.0794 0.17639,-0.17639 z m -0.97014,-0.22048 c 0,-0.0728 -0.0595,-0.1323 -0.13229,-0.1323 -0.0728,0 -0.1323,0.0595 -0.1323,0.1323 0,0.0728 0.0595,0.13229 0.1323,0.13229 0.0728,0 0.13229,-0.0595 0.13229,-0.13229 z m -7.2276,-0.71107 c -0.0845,-0.21107 -0.14715,-0.14837 -0.15985,0.15985 -0.0115,0.27892 0.051,0.43519 0.13897,0.34727 0.0879,-0.0879 0.0973,-0.31613 0.0209,-0.50712 z m 15.09895,-0.6615 c 2.19366,-0.53123 2.97696,-0.82827 2.97806,-1.12934 0.005,-1.25458 -2.95782,-13.56105 -4.39448,-18.25548 -0.86976,-2.84203 -2.04034,-6.29287 -2.87624,-8.47907 -1.0981,-2.87198 -3.39907,-8.22336 -3.58536,-8.33849 -0.21683,-0.13402 -5.31812,1.86218 -7.20323,2.81871 -0.5457,0.2769 -0.99219,0.61389 -0.99219,0.74887 0,0.13498 0.5821,1.31673 1.29356,2.62612 2.98973,5.5024 6.07242,12.75103 7.78552,18.30688 0.38521,1.2493 1.24423,4.45494 1.90891,7.12364 0.66469,2.66871 1.26931,4.95053 1.34359,5.07073 0.20376,0.32968 0.51644,0.28852 3.74186,-0.49257 z m 50.0723895,0.31423 c 0,-0.0728 -0.0595,-0.13229 -0.13229,-0.13229 -0.0728,0 -0.13229,0.0595 -0.13229,0.13229 0,0.0728 0.0595,0.13229 0.13229,0.13229 0.0728,0 0.13229,-0.0595 0.13229,-0.13229 z m -0.60082,-0.29214 c -0.0879,-0.0879 -0.31612,-0.0973 -0.50712,-0.0209 -0.21107,0.0845 -0.14837,0.14716 0.15985,0.15985 0.27892,0.0115 0.43519,-0.051 0.34727,-0.13896 z m -1.32292,-0.26458 c -0.0879,-0.0879 -0.31612,-0.0973 -0.50712,-0.0209 -0.21106,0.0845 -0.14837,0.14715 0.15986,0.15985 0.27891,0.0115 0.43518,-0.051 0.34726,-0.13896 z m -1.25126,-0.23703 c 0,-0.0728 -0.0595,-0.13229 -0.13229,-0.13229 -0.0728,0 -0.13229,0.0595 -0.13229,0.13229 0,0.0728 0.0595,0.13229 0.13229,0.13229 0.0728,0 0.13229,-0.0595 0.13229,-0.13229 z m 21.6958405,0 c 0,-0.0728 -0.0595,-0.13229 -0.1323,-0.13229 -0.0728,0 -0.13229,0.0595 -0.13229,0.13229 0,0.0728 0.0595,0.13229 0.13229,0.13229 0.0728,0 0.1323,-0.0595 0.1323,-0.13229 z m -25.9291705,-0.79375 c 0,-0.0728 -0.0595,-0.13229 -0.13229,-0.13229 -0.0728,0 -0.13229,0.0595 -0.13229,0.13229 0,0.0728 0.0595,0.13229 0.13229,0.13229 0.0728,0 0.13229,-0.0595 0.13229,-0.13229 z m -2.57247,-0.99218 c 0.42886,-1.89049 1.83971,-8.75392 2.05315,-9.98802 0.45357,-2.6226 0.41128,-2.7588 -0.97148,-3.12863 -0.67442,-0.18038 -1.25247,-0.29437 -1.28456,-0.25332 -0.0321,0.0411 -0.32053,2.03918 -0.641,4.44028 -0.7276695,5.45219 -0.9203995,6.18483 -1.8113095,6.88561 -0.63227,0.49735 -0.92072,0.54248 -2.44101,0.38195 -3.0781,-0.32502 -3.04694,-0.32916 -3.04694,0.40535 0,0.64492 0.0893,0.67564 3.57187,1.22803 4.5908895,0.7282 4.4128595,0.72708 4.5712795,0.0288 z m -36.2203195,-0.60906 c 0.0904,-0.23546 0.046,-0.34166 -0.10399,-0.24897 -0.14385,0.0889 -0.26155,0.27369 -0.26155,0.41062 0,0.38058 0.18964,0.29672 0.36554,-0.16165 z m 17.89071,-0.22306 c 2.54661,-0.20218 5.25662,-0.28255 6.02223,-0.1786 1.51457,0.20564 1.65068,0.16147 1.65068,-0.5357 0,-0.36755 -0.31357,-0.50521 -1.48396,-0.65144 -2.00478,-0.25048 -7.75934,0.005 -9.95926,0.44226 -1.54966,0.30796 -1.78594,0.43117 -1.78594,0.93127 0,0.41376 0.13062,0.5458 0.46302,0.46808 0.25466,-0.0596 2.54661,-0.27369 5.09323,-0.47587 z m -28.83958,-0.55695 c 0,-0.0728 -0.0595,-0.13229 -0.13229,-0.13229 -0.0728,0 -0.1323,0.0595 -0.1323,0.13229 0,0.0728 0.0595,0.13229 0.1323,0.13229 0.0728,0 0.13229,-0.0595 0.13229,-0.13229 z m -9.87894,-1.78593 c -0.0734,-0.18191 -0.13345,-0.0331 -0.13345,0.33072 0,0.36381 0.0601,0.51263 0.13345,0.33073 0.0734,-0.1819 0.0734,-0.47955 0,-0.66145 z m 10.05533,0.41892 c -0.097,-0.097 -0.17639,-0.0176 -0.17639,0.17639 0,0.19403 0.0794,0.2734 0.17639,0.17639 0.097,-0.097 0.097,-0.25577 0,-0.35278 z m 10.67152,0.0441 c 0,-0.0728 -0.0595,-0.1323 -0.13229,-0.1323 -0.0728,0 -0.13229,0.0595 -0.13229,0.1323 0,0.0728 0.0595,0.13229 0.13229,0.13229 0.0728,0 0.13229,-0.0595 0.13229,-0.13229 z m 31.99719,-2.84427 c 0.15658,-0.76399 0.56768,-3.32445 0.91354,-5.68992 0.34587,-2.36547 0.78712,-4.49157 0.98057,-4.72466 0.26873,-0.3238 0.62879,-0.38583 1.5259095,-0.26286 0.64581,0.0885 1.35452,0.30961 1.57491,0.49132 0.35146,0.28978 0.37801,0.18403 0.21599,-0.86024 -0.1016,-0.65484 -0.49362,-2.49131 -0.87116,-4.08103 -0.71505,-3.01096 -1.5037595,-4.3455 -2.3713995,-4.01255 -0.22371,0.0858 -0.81373,0.15608 -1.31115,0.15608 h -0.9044 v 2.06808 c 0,2.33988 -0.22308,3.75207 -1.36605,8.64755 -0.5926,2.53819 -0.81352,4.16665 -0.84298,6.21397 l -0.0399,2.77438 0.92604,0.31954 c 0.50933,0.17574 1.0069,0.32625 1.10573,0.33446 0.0988,0.008 0.30779,-0.61014 0.46438,-1.37412 z m -14.02781,0.17292 c 0.18853,-0.18218 -0.47573,-5.64895 -1.0739,-8.83803 -0.31389,-1.67349 -0.80777,-3.56148 -1.0975,-4.19554 -0.44664,-0.9774 -0.50381,-1.50764 -0.37573,-3.48454 0.165,-2.54688 0.11617,-2.63867 -1.40375,-2.63867 -1.27434,0 -2.06822,0.46293 -2.59069,1.5107 -0.77911,1.56241 -2.78907,6.95165 -2.64603,7.09469 0.0705,0.0705 0.48545,-0.0501 0.92215,-0.26794 1.37717,-0.68702 2.29609,-0.75698 2.93356,-0.22333 0.53685,0.44941 0.59895,0.84255 0.84986,5.37963 0.14887,2.69214 0.27075,5.26263 0.27083,5.71221 l 1.6e-4,0.81742 2.05052,-0.38015 c 1.12778,-0.20908 2.10002,-0.42799 2.16052,-0.48645 z m -2.51652,-11.78932 c -0.11697,-0.18926 -0.0726,-0.23365 0.11668,-0.11668 0.305,0.1885 0.40948,0.42214 0.18879,0.42214 -0.0642,0 -0.20164,-0.13746 -0.30547,-0.30546 z m -27.09452,12.07942 c 0,-0.0728 -0.0595,-0.1323 -0.13229,-0.1323 -0.0728,0 -0.1323,0.0595 -0.1323,0.1323 0,0.0728 0.0595,0.13229 0.1323,0.13229 0.0728,0 0.13229,-0.0595 0.13229,-0.13229 z m 39.46489,-9.92188 c 0.54365,-2.68882 0.88418,-5.29948 0.98891,-7.58126 0.15171,-3.30529 0.13561,-3.46728 -0.3202,-3.22279 -1.22389,0.6565 -1.70617,-1.36562 -0.5784,-2.42511 0.50482,-0.47426 0.66146,-0.88836 0.66146,-1.74869 0,-1.61198 -0.34755,-2.32101 -1.55981,-3.18216 -0.58664,-0.41673 -1.20864,-1.09513 -1.38222,-1.50756 -0.37346,-0.88733 -1.09854,-1.21493 -2.29424,-1.03658 -0.68836,0.10268 -0.98141,0.347 -1.39973,1.16697 -0.291,0.57041 -0.91124,1.2635 -1.37832,1.54021 -1.32665,0.78593 -1.46476,0.97367 -1.65639,2.25152 -0.13549,0.90356 -0.0741,1.34481 0.24938,1.79142 0.23603,0.32592 0.61009,0.84439 0.83123,1.15217 0.30549,0.42518 0.33841,0.72707 0.13701,1.25677 -0.33653,0.88515 -0.97135,0.88978 -2.29176,0.0167 l -1.02911,-0.68044 0.9768,0.91743 0.97679,0.91744 -0.15606,2.40884 -0.15606,2.40884 1.03135,-0.004 c 0.56724,-0.002 1.16177,-0.0915 1.32117,-0.19844 0.40439,-0.27123 0.72009,-1.95663 0.8046,-4.29542 0.0394,-1.09141 0.0772,-2.13321 0.084,-2.31511 0.008,-0.22364 0.49068,-0.33073 1.48976,-0.33073 h 1.47751 l -0.17806,2.97657 c -0.32163,5.37634 -0.9285,6.42137 -4.02803,6.93632 l -1.11879,0.18587 0.12243,2.82197 c 0.15787,3.63895 0.69606,7.82185 0.95291,7.40625 0.19325,-0.31268 0.35137,0.11166 0.55939,1.50115 0.0716,0.47803 0.33463,0.54195 2.72228,0.66145 l 2.64306,0.1323 0.33401,-2.91042 c 0.1837,-1.60073 0.70714,-4.75589 1.16318,-7.01146 z m -7.71489,5.68854 c 0,-0.0728 0.0595,-0.13229 0.13229,-0.13229 0.0728,0 0.13229,0.0595 0.13229,0.13229 0,0.0728 -0.0595,0.1323 -0.13229,0.1323 -0.0728,0 -0.13229,-0.0595 -0.13229,-0.1323 z m -0.26459,-12.96458 c 0,-0.0728 0.0595,-0.13229 0.13229,-0.13229 0.0728,0 0.1323,0.0595 0.1323,0.13229 0,0.0728 -0.0595,0.13229 -0.1323,0.13229 -0.0728,0 -0.13229,-0.0595 -0.13229,-0.13229 z m 2.58634,-7.42389 c -0.39652,-0.21519 -0.84301,-0.61931 -0.99219,-0.89805 -0.31587,-0.59022 -0.36109,-1.5932 -0.0728,-1.61481 0.10914,-0.008 1.19683,-0.0379 2.41709,-0.0661 2.05011,-0.0474 2.23868,-0.007 2.48218,0.52717 0.35753,0.7848 0.11015,1.30353 -0.92164,1.9326 -1.02215,0.6232 -1.91652,0.65982 -2.91265,0.11924 z m -1.87643,23.64616 c -0.0845,-0.21107 -0.14716,-0.14838 -0.15985,0.15985 -0.0115,0.27891 0.051,0.43518 0.13896,0.34726 0.0879,-0.0879 0.0973,-0.31612 0.0209,-0.50711 z m 48.50259,0.44648 c 0,-0.0728 -0.0595,-0.13229 -0.13229,-0.13229 -0.0728,0 -0.13229,0.0595 -0.13229,0.13229 0,0.0728 0.0595,0.13229 0.13229,0.13229 0.0728,0 0.13229,-0.0595 0.13229,-0.13229 z m -92.16319,-1.6316 c -0.097,-0.097 -0.17639,-0.0176 -0.17639,0.17639 0,0.19403 0.0794,0.2734 0.17639,0.17639 0.097,-0.097 0.097,-0.25576 0,-0.35278 z m 0.61736,0.0441 c 0,-0.0728 -0.0595,-0.13229 -0.13229,-0.13229 -0.0728,0 -0.13229,0.0595 -0.13229,0.13229 0,0.0728 0.0595,0.13229 0.13229,0.13229 0.0728,0 0.13229,-0.0595 0.13229,-0.13229 z m -0.26458,-0.79375 c 0,-0.0728 -0.0595,-0.13229 -0.13229,-0.13229 -0.0728,0 -0.1323,0.0595 -0.1323,0.13229 0,0.0728 0.0595,0.13229 0.1323,0.13229 0.0728,0 0.13229,-0.0595 0.13229,-0.13229 z m 20.81389,-0.57326 c -0.097,-0.097 -0.17639,-0.0176 -0.17639,0.17639 0,0.19402 0.0794,0.2734 0.17639,0.17638 0.097,-0.097 0.097,-0.25576 0,-0.35277 z m -21.60764,-0.48507 c 0,-0.0728 -0.0595,-0.13229 -0.13229,-0.13229 -0.0728,0 -0.1323,0.0595 -0.1323,0.13229 0,0.0728 0.0595,0.13229 0.1323,0.13229 0.0728,0 0.13229,-0.0595 0.13229,-0.13229 z m 73.5541595,-0.26459 c 0,-0.0728 -0.0595,-0.13229 -0.13229,-0.13229 -0.0728,0 -0.13229,0.0595 -0.13229,0.13229 0,0.0728 0.0595,0.1323 0.13229,0.1323 0.0728,0 0.13229,-0.0595 0.13229,-0.1323 z m -63.4999995,-2.11666 c 0,-0.0728 -0.0595,-0.13229 -0.13229,-0.13229 -0.0728,0 -0.13229,0.0595 -0.13229,0.13229 0,0.0728 0.0595,0.13229 0.13229,0.13229 0.0728,0 0.13229,-0.0595 0.13229,-0.13229 z m 75.67083,-3.175 c 0,-0.0728 -0.0595,-0.13229 -0.13229,-0.13229 -0.0728,0 -0.13229,0.0595 -0.13229,0.13229 0,0.0728 0.0595,0.13229 0.13229,0.13229 0.0728,0 0.13229,-0.0595 0.13229,-0.13229 z m -65.88124,-1.5875 c 0,-0.0728 -0.0595,-0.13229 -0.1323,-0.13229 -0.0728,0 -0.13229,0.0595 -0.13229,0.13229 0,0.0728 0.0595,0.13229 0.13229,0.13229 0.0728,0 0.1323,-0.0595 0.1323,-0.13229 z m 66.93958,-0.26459 c 0,-0.0728 -0.0595,-0.13229 -0.1323,-0.13229 -0.0728,0 -0.13229,0.0595 -0.13229,0.13229 0,0.0728 0.0595,0.1323 0.13229,0.1323 0.0728,0 0.1323,-0.0595 0.1323,-0.1323 z m -67.20417,-0.52916 c 0,-0.0728 -0.0595,-0.13229 -0.13229,-0.13229 -0.0728,0 -0.13229,0.0595 -0.13229,0.13229 0,0.0728 0.0595,0.13229 0.13229,0.13229 0.0728,0 0.13229,-0.0595 0.13229,-0.13229 z m -23.54791,-0.52917 c 0,-0.0728 -0.0595,-0.13229 -0.13229,-0.13229 -0.0728,0 -0.1323,0.0595 -0.1323,0.13229 0,0.0728 0.0595,0.13229 0.1323,0.13229 0.0728,0 0.13229,-0.0595 0.13229,-0.13229 z m 68.8881795,-5.7739 c 0.82038,-3.01105 2.72636,-8.38706 4.03899,-11.39241 0.50087,-1.14679 0.85511,-2.14064 0.78718,-2.20856 -0.14733,-0.14734 -7.50698,-1.64005 -8.14263,-1.65153 -0.39267,-0.007 -0.42508,0.27257 -0.29136,2.51389 0.11961,2.0048 0.0514,2.84886 -0.33241,4.11669 -0.52161,1.72274 -0.75477,1.93842 -2.3877295,2.20866 -0.86233,0.14271 -1.16678,0.35329 -1.55618,1.07637 -0.26627,0.49442 -0.67681,0.94267 -0.91231,0.99611 -0.23551,0.0534 0.42108,0.1889 1.45908,0.30102 3.1428695,0.33948 3.7468795,0.97474 5.0061495,5.26519 0.34986,1.19197 0.6386,2.41527 0.64165,2.71844 0.0104,1.03499 0.3731,0.92105 0.67753,-0.21286 0.16717,-0.62266 0.62259,-2.30162 1.01204,-3.73101 z m 36.6805605,4.71557 c 0,-0.0728 -0.0595,-0.13229 -0.13229,-0.13229 -0.0728,0 -0.13229,0.0595 -0.13229,0.13229 0,0.0728 0.0595,0.13229 0.13229,0.13229 0.0728,0 0.13229,-0.0595 0.13229,-0.13229 z m -107.60665,-0.74966 c 0.0745,-0.19402 -0.0205,-0.35277 -0.21105,-0.35277 -0.19053,0 -0.28551,0.15875 -0.21105,0.35277 0.0744,0.19403 0.16943,0.35278 0.21105,0.35278 0.0416,0 0.13659,-0.15875 0.21105,-0.35278 z m 107.07749,0.22049 c 0,-0.0728 -0.0595,-0.13229 -0.1323,-0.13229 -0.0728,0 -0.13229,0.0595 -0.13229,0.13229 0,0.0728 0.0595,0.13229 0.13229,0.13229 0.0728,0 0.1323,-0.0595 0.1323,-0.13229 z m 0.79375,0 c 0,-0.0728 -0.0595,-0.13229 -0.1323,-0.13229 -0.0728,0 -0.13229,0.0595 -0.13229,0.13229 0,0.0728 0.0595,0.13229 0.13229,0.13229 0.0728,0 0.1323,-0.0595 0.1323,-0.13229 z m -1.05834,-0.52917 c 0,-0.0728 -0.0595,-0.13229 -0.13229,-0.13229 -0.0728,0 -0.13229,0.0595 -0.13229,0.13229 0,0.0728 0.0595,0.1323 0.13229,0.1323 0.0728,0 0.13229,-0.0595 0.13229,-0.1323 z m 0.79375,0 c 0,-0.0728 -0.0595,-0.13229 -0.13229,-0.13229 -0.0728,0 -0.13229,0.0595 -0.13229,0.13229 0,0.0728 0.0595,0.1323 0.13229,0.1323 0.0728,0 0.13229,-0.0595 0.13229,-0.1323 z m 0.52917,-1.3073 c 0,-0.0642 -0.13746,-0.20163 -0.30547,-0.30546 -0.18925,-0.11697 -0.23364,-0.0726 -0.11667,0.11668 0.1885,0.30499 0.42214,0.40948 0.42214,0.18878 z m -73.025,-1.07395 c 0,-0.0728 -0.0595,-0.13229 -0.13229,-0.13229 -0.0728,0 -0.13229,0.0595 -0.13229,0.13229 0,0.0728 0.0595,0.1323 0.13229,0.1323 0.0728,0 0.13229,-0.0595 0.13229,-0.1323 z m 37.0416695,0 c 0,-0.0728 -0.0595,-0.13229 -0.13229,-0.13229 -0.0728,0 -0.1323,0.0595 -0.1323,0.13229 0,0.0728 0.0595,0.1323 0.1323,0.1323 0.0728,0 0.13229,-0.0595 0.13229,-0.1323 z m -32.6470595,-3.61349 c 0.64016,-0.71964 2.40554,-1.53257 3.34445,-1.54007 0.70401,-0.006 0.72675,-0.0509 0.70124,-1.39487 -0.0427,-2.24938 -0.24905,-2.67618 -1.43903,-2.97657 -2.34539,-0.59204 -2.89135,-1.59686 -2.55802,-4.70794 0.12082,-1.12767 0.1613,-2.10869 0.0899,-2.18004 -0.0714,-0.0713 -0.49544,-0.0747 -0.9424,-0.007 -0.44697,0.0673 -1.95826,0.26055 -3.35842,0.42956 -3.15237,0.3805 -3.3168,0.46686 -2.7987,1.46983 0.91845,1.77797 2.32496,5.6269 3.48541,9.53784 0.6837,2.3042 1.30274,4.36805 1.37564,4.58633 0.0822,0.24611 0.41122,-0.18268 0.86613,-1.12873 0.40347,-0.83909 0.95866,-1.77864 1.23375,-2.08789 z m 67.04289,3.34891 c 0,-0.0728 -0.0595,-0.13229 -0.13229,-0.13229 -0.0728,0 -0.13229,0.0595 -0.13229,0.13229 0,0.0728 0.0595,0.13229 0.13229,0.13229 0.0728,0 0.13229,-0.0595 0.13229,-0.13229 z m -10.84792,-0.26458 c 0,-0.0728 -0.0595,-0.13229 -0.13229,-0.13229 -0.0728,0 -0.13229,0.0595 -0.13229,0.13229 0,0.0728 0.0595,0.13229 0.13229,0.13229 0.0728,0 0.13229,-0.0595 0.13229,-0.13229 z m -23.2833305,-0.26459 c 0,-0.0728 -0.0595,-0.13229 -0.13229,-0.13229 -0.0728,0 -0.13229,0.0595 -0.13229,0.13229 0,0.0728 0.0595,0.1323 0.13229,0.1323 0.0728,0 0.13229,-0.0595 0.13229,-0.1323 z m 33.6020805,0 c 0,-0.0728 -0.0595,-0.13229 -0.13229,-0.13229 -0.0728,0 -0.13229,0.0595 -0.13229,0.13229 0,0.0728 0.0595,0.1323 0.13229,0.1323 0.0728,0 0.13229,-0.0595 0.13229,-0.1323 z m -94.19166,-0.26458 c 0,-0.0728 -0.0595,-0.13229 -0.13229,-0.13229 -0.0728,0 -0.13229,0.0595 -0.13229,0.13229 0,0.0728 0.0595,0.13229 0.13229,0.13229 0.0728,0 0.13229,-0.0595 0.13229,-0.13229 z m 93.6625,0.0461 c 0,-0.0474 -0.32743,-0.37481 -0.72761,-0.7276 l -0.7276,-0.64144 0.64143,0.72761 c 0.59952,0.68005 0.81378,0.84894 0.81378,0.64143 z m -93.92708,-0.57529 c 0,-0.0728 -0.0595,-0.13229 -0.13229,-0.13229 -0.0728,0 -0.1323,0.0595 -0.1323,0.13229 0,0.0728 0.0595,0.1323 0.1323,0.1323 0.0728,0 0.13229,-0.0595 0.13229,-0.1323 z m 92.33958,-0.78444 c 0,-0.0676 -0.2679,-0.2528 -0.59532,-0.41147 -0.57166,-0.27703 -0.57491,-0.27214 -0.0817,0.12298 0.53982,0.43249 0.67704,0.49096 0.67704,0.28849 z m -6.61459,-0.53847 c 0,-0.0728 -0.0595,-0.13229 -0.13229,-0.13229 -0.0728,0 -0.13229,0.0595 -0.13229,0.13229 0,0.0728 0.0595,0.13229 0.13229,0.13229 0.0728,0 0.13229,-0.0595 0.13229,-0.13229 z m -95.51458,-0.52917 c 0,-0.0728 -0.0595,-0.13229 -0.13229,-0.13229 -0.0728,0 -0.13229,0.0595 -0.13229,0.13229 0,0.0728 0.0595,0.13229 0.13229,0.13229 0.0728,0 0.13229,-0.0595 0.13229,-0.13229 z m 8.37848,-0.57326 c -0.097,-0.097 -0.17639,-0.0176 -0.17639,0.17639 0,0.19402 0.0794,0.2734 0.17639,0.17638 0.097,-0.097 0.097,-0.25576 0,-0.35277 z m 91.63402,0.30868 c 0,-0.0728 -0.0595,-0.13229 -0.13229,-0.13229 -0.0728,0 -0.13229,0.0595 -0.13229,0.13229 0,0.0728 0.0595,0.13229 0.13229,0.13229 0.0728,0 0.13229,-0.0595 0.13229,-0.13229 z m -91.96538,-1.18685 c -0.17135,-0.17135 -0.26081,-0.0819 -0.26081,0.26081 0,0.34269 0.0895,0.43215 0.26081,0.2608 0.17135,-0.17135 0.17135,-0.35026 0,-0.52161 z m 63.6549595,0.65768 c 0,-0.0728 -0.0595,-0.13229 -0.13229,-0.13229 -0.0728,0 -0.13229,0.0595 -0.13229,0.13229 0,0.0728 0.0595,0.13229 0.13229,0.13229 0.0728,0 0.13229,-0.0595 0.13229,-0.13229 z m 27.5166705,-0.26458 c 0,-0.0728 -0.0595,-0.13229 -0.13229,-0.13229 -0.0728,0 -0.13229,0.0595 -0.13229,0.13229 0,0.0728 0.0595,0.13229 0.13229,0.13229 0.0728,0 0.13229,-0.0595 0.13229,-0.13229 z m -2.11667,-0.52917 c 0,-0.0728 -0.0595,-0.13229 -0.13229,-0.13229 -0.0728,0 -0.13229,0.0595 -0.13229,0.13229 0,0.0728 0.0595,0.13229 0.13229,0.13229 0.0728,0 0.13229,-0.0595 0.13229,-0.13229 z m 0.79375,-0.26458 c 0,-0.0728 -0.0595,-0.13229 -0.13229,-0.13229 -0.0728,0 -0.13229,0.0595 -0.13229,0.13229 0,0.0728 0.0595,0.13229 0.13229,0.13229 0.0728,0 0.13229,-0.0595 0.13229,-0.13229 z m -94.05937,-0.39688 c 0.0899,-0.14552 0.10399,-0.26458 0.0312,-0.26458 -0.0728,0 -0.20587,0.11906 -0.29581,0.26458 -0.0899,0.14552 -0.10399,0.26459 -0.0312,0.26459 0.0728,0 0.20588,-0.11907 0.29581,-0.26459 z m 3.83646,0.13229 c 0,-0.0728 -0.0595,-0.13229 -0.13229,-0.13229 -0.0728,0 -0.13229,0.0595 -0.13229,0.13229 0,0.0728 0.0595,0.1323 0.13229,0.1323 0.0728,0 0.13229,-0.0595 0.13229,-0.1323 z m 11.98301,-0.39724 c 0.0762,-0.29124 0.0305,-0.46281 -0.10143,-0.38126 -0.13195,0.0816 -0.23991,0.31984 -0.23991,0.52954 0,0.54762 0.17978,0.46952 0.34134,-0.14828 z m 77.71074,0.41286 c 0,-0.0642 -0.11907,-0.19026 -0.26459,-0.2802 -0.14552,-0.0899 -0.26458,-0.0374 -0.26458,0.11668 0,0.15411 0.11906,0.2802 0.26458,0.2802 0.14552,0 0.26459,-0.0525 0.26459,-0.11668 z m -12.96459,-0.54478 c 0,-0.0728 -0.0595,-0.13229 -0.13229,-0.13229 -0.0728,0 -0.13229,0.0595 -0.13229,0.13229 0,0.0728 0.0595,0.13229 0.13229,0.13229 0.0728,0 0.13229,-0.0595 0.13229,-0.13229 z m -77.52291,-0.52917 c 0,-0.0728 -0.0595,-0.13229 -0.13229,-0.13229 -0.0728,0 -0.13229,0.0595 -0.13229,0.13229 0,0.0728 0.0595,0.13229 0.13229,0.13229 0.0728,0 0.13229,-0.0595 0.13229,-0.13229 z m 12.61181,-0.83785 c -0.097,-0.097 -0.17639,-0.0176 -0.17639,0.17639 0,0.19403 0.0794,0.27341 0.17639,0.17639 0.097,-0.097 0.097,-0.25576 0,-0.35278 z m 53.5340195,-0.22048 c 0,-0.0728 -0.0595,-0.13229 -0.13229,-0.13229 -0.0728,0 -0.13229,0.0595 -0.13229,0.13229 0,0.0728 0.0595,0.13229 0.13229,0.13229 0.0728,0 0.13229,-0.0595 0.13229,-0.13229 z m -54.5041595,-0.52917 c 0,-0.0728 -0.0595,-0.13229 -0.1323,-0.13229 -0.0728,0 -0.13229,0.0595 -0.13229,0.13229 0,0.0728 0.0595,0.13229 0.13229,0.13229 0.0728,0 0.1323,-0.0595 0.1323,-0.13229 z m 54.7687395,-0.26458 c 0,-0.0728 -0.0595,-0.13229 -0.13229,-0.13229 -0.0728,0 -0.13229,0.0595 -0.13229,0.13229 0,0.0728 0.0595,0.13229 0.13229,0.13229 0.0728,0 0.13229,-0.0595 0.13229,-0.13229 z m 12.7000005,-0.79375 c 0,-0.0728 -0.0595,-0.13229 -0.13229,-0.13229 -0.0728,0 -0.13229,0.0595 -0.13229,0.13229 0,0.0728 0.0595,0.13229 0.13229,0.13229 0.0728,0 0.13229,-0.0595 0.13229,-0.13229 z m 0.26459,-0.52917 c 0,-0.0728 -0.0595,-0.13229 -0.1323,-0.13229 -0.0728,0 -0.13229,0.0595 -0.13229,0.13229 0,0.0728 0.0595,0.13229 0.13229,0.13229 0.0728,0 0.1323,-0.0595 0.1323,-0.13229 z m -25.66459,-0.52917 c 0,-0.0728 -0.0595,-0.13229 -0.13229,-0.13229 -0.0728,0 -0.13229,0.0595 -0.13229,0.13229 0,0.0728 0.0595,0.1323 0.13229,0.1323 0.0728,0 0.13229,-0.0595 0.13229,-0.1323 z m -42.86249,-0.26458 c 0,-0.0728 -0.0595,-0.13229 -0.1323,-0.13229 -0.0728,0 -0.13229,0.0595 -0.13229,0.13229 0,0.0728 0.0595,0.13229 0.13229,0.13229 0.0728,0 0.1323,-0.0595 0.1323,-0.13229 z m 56.8854095,-1.02071 c 0,-0.33616 -0.12221,-0.18606 -0.50792,0.62384 -0.29704,0.62369 -0.29153,0.63213 0.0965,0.14786 0.22631,-0.28247 0.41147,-0.62974 0.41147,-0.7717 z m 0.26458,1.02071 c 0,-0.0728 -0.0595,-0.13229 -0.13229,-0.13229 -0.0728,0 -0.13229,0.0595 -0.13229,0.13229 0,0.0728 0.0595,0.13229 0.13229,0.13229 0.0728,0 0.13229,-0.0595 0.13229,-0.13229 z m 11.1125005,0 c 0,-0.0728 -0.0595,-0.13229 -0.13229,-0.13229 -0.0728,0 -0.13229,0.0595 -0.13229,0.13229 0,0.0728 0.0595,0.13229 0.13229,0.13229 0.0728,0 0.13229,-0.0595 0.13229,-0.13229 z m 0.44098,-0.57326 c -0.097,-0.097 -0.17639,-0.0176 -0.17639,0.17639 0,0.19402 0.0794,0.2734 0.17639,0.17639 0.097,-0.097 0.097,-0.25577 0,-0.35278 z m -68.53303,-0.47157 c -0.021,-0.35638 -0.13135,-0.55488 -0.24526,-0.44112 -0.11391,0.11376 -0.13094,0.40534 -0.0378,0.64796 0.23662,0.61662 0.32768,0.55009 0.2831,-0.20684 z m 67.95976,0.38337 c 0.0899,-0.14552 0.10399,-0.26458 0.0312,-0.26458 -0.0728,0 -0.20588,0.11906 -0.29581,0.26458 -0.0899,0.14552 -0.10399,0.26459 -0.0312,0.26459 0.0728,0 0.20587,-0.11907 0.29581,-0.26459 z m -0.92604,-0.39687 c 0,-0.0728 -0.0595,-0.13229 -0.13229,-0.13229 -0.0728,0 -0.13229,0.0595 -0.13229,0.13229 0,0.0728 0.0595,0.13229 0.13229,0.13229 0.0728,0 0.13229,-0.0595 0.13229,-0.13229 z m -67.99791,-0.26459 c 0,-0.0728 -0.0595,-0.13229 -0.13229,-0.13229 -0.0728,0 -0.1323,0.0595 -0.1323,0.13229 0,0.0728 0.0595,0.1323 0.1323,0.1323 0.0728,0 0.13229,-0.0595 0.13229,-0.1323 z m 66.93958,-0.26458 c 0,-0.0728 -0.0595,-0.13229 -0.1323,-0.13229 -0.0728,0 -0.13229,0.0595 -0.13229,0.13229 0,0.0728 0.0595,0.13229 0.13229,0.13229 0.0728,0 0.1323,-0.0595 0.1323,-0.13229 z m -63.76458,-0.52917 c 0,-0.0728 -0.0595,-0.13229 -0.1323,-0.13229 -0.0728,0 -0.13229,0.0595 -0.13229,0.13229 0,0.0728 0.0595,0.1323 0.13229,0.1323 0.0728,0 0.1323,-0.0595 0.1323,-0.1323 z m 8.99583,0 c 0,-0.0728 -0.0595,-0.13229 -0.13229,-0.13229 -0.0728,0 -0.13229,0.0595 -0.13229,0.13229 0,0.0728 0.0595,0.1323 0.13229,0.1323 0.0728,0 0.13229,-0.0595 0.13229,-0.1323 z m 14.31481,-0.78482 c 0.95112,-0.15027 0.95478,-0.15606 1.55759,-2.46103 1.34928,-5.15919 3.40354,-7.44889 6.69647,-7.46396 1.5285,-0.007 2.47446,0.44416 3.58617,1.71032 0.98163,1.11802 1.39042,2.00474 2.56317,5.55991 l 0.87279,2.64583 1.93939,0.27421 c 1.06667,0.15081 1.97521,0.1922 2.01899,0.092 0.0438,-0.10023 -0.10342,-1.23071 -0.3271,-2.51218 -0.82763,-4.74159 -2.60863,-6.76284 -6.9503,-7.88788 -2.76785,-0.71722 -7.23385,-0.36528 -9.99277,0.78746 -1.28618,0.5374 -2.97619,2.11129 -3.61806,3.36946 -0.60025,1.17659 -1.2726,4.0763 -1.27947,5.51811 l -0.005,0.96406 0.99219,-0.22282 c 0.5457,-0.12256 1.4212,-0.29061 1.94554,-0.37345 z m 4.04024,-0.23418 c 0.98866,-2.36619 4.75086,-3.12411 7.12633,-1.43565 0.40856,0.29041 0.8168,0.45404 0.9072,0.36364 0.21926,-0.21926 -0.63176,-2.89136 -1.4159,-4.44576 -0.83151,-1.64831 -1.59827,-2.32677 -2.6296,-2.32677 -1.18694,0 -2.09836,0.82807 -3.00007,2.72571 -0.60644,1.27626 -1.61593,4.93836 -1.61593,5.8621 0,0.39912 0.29805,0.0464 0.62797,-0.74327 z m 27.8588395,0.71032 c -0.097,-0.097 -0.25577,-0.097 -0.35278,0 -0.097,0.097 -0.0176,0.17639 0.17639,0.17639 0.19402,0 0.2734,-0.0794 0.17639,-0.17639 z m -52.0347195,-0.22048 c 0,-0.0728 -0.0595,-0.13229 -0.1323,-0.13229 -0.0728,0 -0.13229,0.0595 -0.13229,0.13229 0,0.0728 0.0595,0.13229 0.13229,0.13229 0.0728,0 0.1323,-0.0595 0.1323,-0.13229 z m 5.55625,0 c 0,-0.0728 -0.0595,-0.13229 -0.1323,-0.13229 -0.0728,0 -0.13229,0.0595 -0.13229,0.13229 0,0.0728 0.0595,0.13229 0.13229,0.13229 0.0728,0 0.1323,-0.0595 0.1323,-0.13229 z m 0.70555,-0.30868 c -0.097,-0.097 -0.17639,-0.0176 -0.17639,0.17639 0,0.19402 0.0794,0.2734 0.17639,0.17639 0.097,-0.097 0.097,-0.25577 0,-0.35278 z m -5.20347,0.0441 c 0,-0.0728 -0.0595,-0.13229 -0.13229,-0.13229 -0.0728,0 -0.13229,0.0595 -0.13229,0.13229 0,0.0728 0.0595,0.1323 0.13229,0.1323 0.0728,0 0.13229,-0.0595 0.13229,-0.1323 z m -1.25677,-0.30752 c -0.1819,-0.0734 -0.47956,-0.0734 -0.66146,0 -0.1819,0.0734 -0.0331,0.13346 0.33073,0.13346 0.3638,0 0.51263,-0.0601 0.33073,-0.13346 z m 1.16858,-0.26574 c -0.097,-0.097 -0.25577,-0.097 -0.35278,0 -0.097,0.097 -0.0176,0.17639 0.17639,0.17639 0.19402,0 0.2734,-0.0794 0.17639,-0.17639 z"
       id="path129" /></g></svg>
