<?xml version="1.0" encoding="UTF-8" standalone="no"?>
<!-- Created with Inkscape (http://www.inkscape.org/) -->

<svg
   width="212.18002mm"
   height="218.22937mm"
   viewBox="0 0 212.18005 218.22934"
   version="1.1"
   id="svg1"
   xml:space="preserve"
   xmlns="http://www.w3.org/2000/svg"
   xmlns:svg="http://www.w3.org/2000/svg"><defs
     id="defs1"><clipPath
       clipPathUnits="userSpaceOnUse"
       id="clipPath6"><path
         id="path7"
         style="fill:#ff0000;fill-opacity:1;fill-rule:nonzero;stroke:none;stroke-width:0.264583"
         d="M -175.07778,-16.057127 V 287.55793 H 124.54631 V -16.057127 Z m 132.7459,202.572647 c 0.210643,0.005 0.427212,0.0169 0.650089,0.0367 2.23823,0.19855 4.475655,0.4031 6.717938,0.55346 1.973313,0.11308 0.986628,0.0436 2.958475,0.20825 3.181295,0.26563 4.740125,1.85116 4.950601,3.46956 4.949923,1.63749 3.796379,7.35609 -2.592089,6.81354 -3.228716,-0.27422 -1.569593,-0.1301 -4.979024,-0.43357 -4.228209,-0.39317 -8.460616,-0.76265 -12.666927,-1.35341 -6.647387,-0.93358 -5.930551,-7.21034 0.03204,-7.20421 0.04685,5e-5 0.0972,0.004 0.144695,0.005 0.687229,-1.21692 2.304132,-2.15435 4.784204,-2.09548 z" /></clipPath><clipPath
       clipPathUnits="userSpaceOnUse"
       id="clipPath76"><path
         id="path77"
         style="fill:#ff0000;fill-opacity:1;fill-rule:nonzero;stroke:none;stroke-width:0.264583"
         d="M -133.83107,-122.52355 V 173.82063 H 122.97289 V -122.52355 Z M 13.574404,98.948202 c 2.788179,0.0507 4.135003,2.063798 3.398242,4.077268 0.199805,0.45372 0.374906,0.96736 0.517797,1.54461 1.07913,4.35948 0.671079,8.891 0.311608,13.31495 -0.351859,3.06036 -0.147137,1.57974 -0.604097,4.44366 -0.359666,2.25418 -1.333846,3.66838 -2.455664,4.32532 0.105138,0.36595 0.224724,0.72888 0.324528,1.09554 0.6273,2.23652 0.575201,4.47401 0.39429,6.75514 -0.137303,1.73129 -0.688065,2.99533 -1.427303,3.82199 -0.112477,0.41601 -0.170275,0.80219 -0.311092,1.25212 -0.184975,0.59102 -0.413327,1.1061 -0.670242,1.55856 0.741137,-0.23134 1.446982,-0.38145 2.064991,-0.37517 4.085002,0.0415 5.222724,4.75435 -0.02223,7.27138 -4.46677,2.14368 -9.303523,3.34693 -14.11903492,4.40955 -4.40876268,0.85156 -8.89238128,1.33053 -13.38264308,1.19269 -5.804014,-0.17807 -6.736297,-5.00293 -3.065447,-6.67298 -2.072987,-0.65744 -4.042852,-1.62261 -4.128947,-3.14709 -0.02802,-0.49633 0.0026,-0.90355 0.0341,-1.30897 -1.976731,-0.003 -3.95339,2.4e-4 -5.930386,0.003 -0.814031,0 -1.53062,-0.0962 -2.159559,-0.26149 -0.376306,0.19492 -0.742394,0.40783 -1.120862,0.59893 -6.391272,3.22657 -9.625245,-3.24074 -3.234428,-6.46886 1.833438,-0.92611 3.62694,-1.92211 5.414142,-2.92954 -0.877003,-3.87058 -1.368747,-7.83436 -1.323951,-11.80858 0.01651,-1.46304 0.376836,-2.54918 0.864547,-3.41426 -1.247357,-1.79999 -0.223805,-4.63069 3.842661,-5.68855 3.11826,-0.81116 6.282901,-1.39515 9.473837,-1.82211 -1.259816,-0.12657 -2.516182,-0.30233 -3.764627,-0.50177 -1.477002,-0.21985 -2.935575,-0.54305 -4.407482,-0.7891 -1.14214,-0.22954 -0.588502,-0.12004 -1.660882,-0.3297 -3.350244,-0.65501 -4.783278,-2.61088 -4.608504,-4.32997 -0.200179,-1.7721 1.333365,-3.52972 4.663799,-3.59461 v -5.3e-4 c 0.20954,-0.004 0.426035,-0.002 0.649571,0.008 1.77111,0.0772 3.528708,0.28204 5.26428,0.64027 1.655035,0.33225 3.314115,0.6481 4.955251,1.04439 1.244759,0.34858 2.51628,0.54538 3.7997689,0.6723 0.025956,0.002 0.052073,0.002 0.078034,0.004 0.4990888,-0.0371 0.9984105,-0.0743 1.4965495,-0.11317 1.346872,-0.12588 2.6913231,-0.25136 4.0457464,-0.24236 1.1278499,-0.0444 2.2567291,-0.10772 3.37498791,-0.26872 0.75719517,-0.11591 1.51142439,-0.25483 2.25722659,-0.4284 0.3616431,-0.12394 0.7240561,-0.24538 1.083138,-0.37775 0.3360393,-0.12388 0.6107589,-0.12825 0.9250071,-0.20723 0.1281086,-0.045 0.2583895,-0.0825 0.3855085,-0.13074 1.9825018,-0.7681 3.9540551,-1.56464 5.9510551,-2.29443 1.050809,-0.383992 1.999634,-0.542639 2.826703,-0.527616 z M 0.70283723,110.39557 c -0.45566013,0.0949 -0.90775367,0.208 -1.36890919,0.2744 -1.16638124,0.15534 -2.34111274,0.24237 -3.51761424,0.26251 0.4031694,0.0896 0.8047355,0.18876 1.2025101,0.308 0.1014836,0.0304 0.1982549,0.075 0.2986907,0.10852 0.4205235,-0.21824 0.9206601,-0.35072 1.4898318,-0.37156 0.39885139,-0.0146 0.83259872,0.0278 1.29449508,0.13023 0.22468681,-0.12213 0.44967525,-0.24374 0.67437529,-0.36587 -0.0326284,-0.11319 -0.058211,-0.22834 -0.0733795,-0.34623 z m 10.24433577,1.02474 c -0.76023,0.21437 -1.5189569,0.4343 -2.2696301,0.68006 -0.031261,0.62207 -0.2256075,1.28373 -0.6464723,1.94355 0.6236891,0.43248 1.2549743,1.04482 1.8634525,1.86862 0.2674939,0.36214 0.4748849,0.75712 0.7188199,1.13223 0.154519,-1.86707 0.314174,-3.74736 0.33383,-5.62446 z m 64.566086,3.39773 c 1.50346,0.0187 3.129182,1.24994 3.928441,4.04678 0.257931,0.90255 0.823497,1.65871 1.488797,2.30735 0.856321,0.95375 1.845738,1.76777 2.801898,2.61638 1.458581,1.46408 2.789203,3.04608 4.169772,4.58215 1.315059,1.44746 2.571226,2.91698 3.543967,4.61884 0.0053,0.01 0.0082,0.0206 0.01344,0.0305 0.734605,-0.43313 1.446276,-0.65634 2.094962,-0.69195 3.016182,-0.16561 4.69137,3.55377 1.187525,7.32306 -1.69471,1.82311 -3.657862,3.33908 -5.68751,4.7651 -0.777873,0.49914 -1.607691,0.90075 -2.418456,1.33842 0.165478,1.44344 -0.672182,3.24303 -2.956409,4.73096 -1.354556,0.88234 -2.690448,1.79306 -4.075203,2.6288 -2.075008,1.20078 -4.233777,2.27962 -6.540687,2.96259 -2.077586,0.62971 -4.169056,1.29987 -6.359301,1.36374 -1.872114,0.0897 -3.746989,0.0368 -5.620845,0.0501 h -5.1108 -5.524728 c -7.160125,0 -7.160125,-7.23315 0,-7.23315 h 1.347722 c 0.29438,-0.0541 0.5212,-0.1588 0.84801,-0.18656 1.106628,-0.094 2.200932,-0.28334 3.292822,-0.48421 0.456121,-0.98163 1.356053,-1.98213 2.807581,-2.83962 1.078018,-0.63685 2.158119,-1.26923 3.212209,-1.94561 1.962647,-1.29302 3.840588,-2.72135 5.893696,-3.86902 1.367169,-0.76424 2.559646,-1.07097 3.526915,-1.04128 2.216811,0.068 3.246223,1.90266 2.479953,4.04059 1.105688,-0.48686 2.206929,-0.98346 3.283003,-1.53739 2.619811,-1.23728 5.288743,-2.38548 7.764385,-3.9026 0.246153,-0.17184 0.487463,-0.34958 0.730705,-0.52503 -0.126915,-0.50614 -0.277693,-0.9939 -0.512114,-1.46554 -0.647621,-1.25778 -1.721077,-2.20654 -2.600875,-3.29644 -1.199229,-1.33472 -2.369312,-2.69496 -3.592029,-4.00803 -1.098706,-0.97599 -2.227236,-1.92181 -3.215306,-3.01428 -1.300821,-1.39063 -2.459913,-2.93896 -3.045293,-4.77801 -1.289469,-4.05101 0.646382,-6.61405 2.843754,-6.58667 z m -95.086705,4.28035 c -0.465643,0.10748 -0.930899,0.21773 -1.394745,0.33435 0.171958,0.64334 0.283575,1.36624 0.279569,2.2071 -0.01267,2.6582 0.205063,5.32647 0.670242,7.94732 0.280107,-0.17087 0.565767,-0.33222 0.845429,-0.50385 -0.01897,-0.36223 -0.02445,-0.73164 -0.05529,-1.08985 -0.118034,-2.96491 -0.160888,-5.93314 -0.3452,-8.89507 z m 18.5141159,1.1958 c 0.00497,0.0773 0.00619,0.15612 0.014975,0.23202 -0.1238779,0.22787 -0.2588048,0.44752 -0.3937741,0.66715 0.58900751,0.0447 1.13203305,0.21413 1.64331124,0.45888 -0.37615284,-0.49255 -0.78353709,-0.94642 -1.26452314,-1.35805 z m -6.5422357,14.57068 c -0.046649,0.0755 -0.09888,0.14702 -0.1436608,0.22376 -0.03147,0.054 0.1963367,0.0838 0.1860365,0.0222 -0.017595,-0.10481 -0.026035,-0.14905 -0.042376,-0.24597 z m 13.9236979,6.08439 c -0.2236258,0.5643 -0.5677508,1.09664 -1.1782213,1.50533 0.9079653,0.17659 1.7077452,0.44257 2.2830631,0.84852 0.1405493,-0.0459 0.272804,-0.11448 0.4128956,-0.16174 -0.7336976,-0.43656 -1.2984269,-1.18703 -1.5177374,-2.19211 z" /></clipPath><clipPath
       clipPathUnits="userSpaceOnUse"
       id="clipPath127"><path
         id="path128"
         style="fill:#ff0000;fill-opacity:1;fill-rule:nonzero;stroke:none;stroke-width:0.264583"
         d="M -112.24796,-126.55676 V 185.58027 H 148.5754 V -126.55676 Z M 46.874626,83.305366 c 1.808208,0 3.616317,1.790192 3.616317,5.370214 v 5.232238 c 0.0627,2.146078 -0.111291,4.285324 -0.245462,6.424932 -0.136289,2.02485 -0.190703,4.04985 -0.104904,6.07715 0.192061,1.91863 0.527714,3.82569 0.876432,5.72213 0.304242,2.00862 0.765826,3.9858 1.180806,5.97276 0.41642,1.86142 0.967934,3.68703 1.421104,5.53972 0.25287,0.86996 0.117097,0.46495 0.396356,1.22008 0.186108,0.50319 0.223428,0.93098 0.309544,1.38441 4.425355,2.23251 2.751262,7.58433 -3.415813,6.40477 -3.104732,-0.59371 -6.256094,-0.76586 -9.40821,-0.85576 -3.81635,0.009 -7.630525,0.17062 -11.44478,0.28216 -1.12776,0.0333 -2.255837,0.0512 -3.383772,0.0754 -0.908129,0.5548 -1.966518,0.57724 -2.88613,0.0641 -0.03584,5.3e-4 -0.07165,0.002 -0.107487,0.003 -0.03142,5.3e-4 -0.0525,-0.009 -0.08268,-0.009 -0.32049,0.14732 -0.641715,0.29301 -0.962215,0.44028 -0.262501,0.12062 -0.518089,0.22111 -0.770496,0.31265 -0.876996,0.71434 -1.945576,0.85817 -2.911967,0.46405 -2.943479,-0.21613 -4.295167,-2.77187 -2.550232,-5.0524 -2.22e-4,-0.028 -0.0078,-0.0483 -0.0078,-0.0765 v -6.3469 c -0.014,-2.72977 -0.02254,-5.45666 0.112657,-8.18348 0.135676,-2.32533 0.233519,-4.6523 0.299723,-6.98046 0.046,-1.80459 0.06926,-3.60958 0.08527,-5.41465 -0.0258,-1.02998 0.04009,-2.054459 0.138491,-3.078883 0.0044,-0.04602 0.02191,-0.07504 0.02687,-0.120406 C 15.992671,97.193438 15.83363,95.70984 16.656834,94.418959 10.68718,93.678613 10.992573,87.32947 17.739972,87.32947 h 3.885033 5.177462 5.913334 c 1.498505,0.05847 2.984222,-0.03228 4.475178,-0.161748 1.252041,-0.18606 2.49041,-0.398671 3.697968,-0.782897 1.001961,-0.32245 0.492366,-0.161472 1.527553,-0.482142 0.510384,-0.158096 0.938446,-0.174371 1.394749,-0.23771 0.672338,-1.56932 1.86623,-2.35903 3.063377,-2.35903 z" /></clipPath></defs><g
     id="layer1"
     transform="translate(-127.7548,254.50374)"><path
       style="fill:#000000"
       d="m 195.65847,-36.548383 c -6.20309,-0.28253 -11.91157,-1.288327 -15.43292,-2.719177 l -1.51554,-0.615821 -1.40957,0.656817 c -2.95041,1.374801 -5.27456,1.791132 -9.87624,1.769149 -3.68464,-0.0176 -4.5712,-0.109943 -6.84012,-0.712431 -2.6964,-0.716003 -5.65675,-2.14121 -7.72011,-3.716697 l -1.18841,-0.907418 -1.2538,0.391772 c -0.68959,0.215475 -2.52589,0.458035 -4.08065,0.539023 -9.09805,0.473917 -17.13413,-5.031728 -18.42905,-12.626035 -0.85038,-4.987187 1.8073,-10.276557 6.53971,-13.015474 0.9284,-0.537314 2.73063,-1.301953 4.00498,-1.699199 l 2.31698,-0.722265 -0.48558,-1.411361 c -1.30708,-3.799115 -0.73985,-9.060592 1.44965,-13.446491 2.60606,-5.220338 6.59329,-8.726419 11.92807,-10.488694 2.0326,-0.671444 6.01789,-0.825831 7.27604,-0.281869 0.47447,0.205137 0.53057,0.290721 0.19844,0.302751 -0.25466,0.0092 -0.46302,0.135834 -0.46302,0.281354 0,0.145521 -0.20105,0.264584 -0.44677,0.264584 -0.39109,0 -0.38134,0.06095 0.0782,0.489092 0.28873,0.269 0.69255,0.544949 0.89736,0.61322 0.20481,0.06827 -0.69359,0.07659 -1.99644,0.01849 -1.83809,-0.08197 -2.73484,0.01014 -4.00242,0.411127 -5.84239,1.848163 -10.52223,6.944309 -11.98663,13.052928 -0.88256,3.681511 -0.59205,6.751012 1.01791,10.755296 l 0.56101,1.395362 -0.59393,0.236421 c -0.32666,0.130032 -1.4869,0.436728 -2.57831,0.681547 -4.14115,0.928923 -7.49646,3.250123 -8.90846,6.16287 -0.63685,1.31373 -0.73104,1.826315 -0.73933,4.023706 -0.009,2.319855 0.0587,2.656848 0.85677,4.278761 2.00049,4.065678 7.00538,6.826112 12.36289,6.818715 2.30816,-0.0032 3.80884,-0.322705 5.73768,-1.221644 l 1.50435,-0.7011 1.86041,1.722451 c 3.08359,2.854931 6.8003,4.294979 11.95673,4.632657 3.85415,0.252396 8.55883,-0.738449 11.3997,-2.400871 l 1.14322,-0.668993 1.85208,0.908033 c 3.16283,1.550663 7.03638,2.315322 14.15521,2.794314 9.081,0.611016 97.0645,-0.537261 104.51041,-1.363972 4.94247,-0.548757 9.44882,-1.939798 12.20007,-3.76597 l 1.45497,-0.965754 1.96987,0.701041 c 2.59196,0.922427 7.99552,1.162775 11.25089,0.500435 4.07879,-0.829872 7.54071,-3.169307 9.04664,-6.113373 0.9839,-1.923494 1.11319,-4.74356 0.31455,-6.860606 -0.57447,-1.522802 -2.79122,-4.168774 -4.05362,-4.838495 -0.47586,-0.252449 -0.47279,-0.305585 0.09,-1.557175 1.87046,-4.159481 2.05533,-8.473828 0.50071,-11.685236 -0.3098,-0.639975 -1.20075,-1.852134 -1.97988,-2.693686 -2.28489,-2.467959 -6.54723,-4.334627 -9.75986,-4.274284 -0.70499,0.01324 -0.93582,-0.05784 -0.69138,-0.212905 0.22025,-0.139721 0.3161,-0.498815 0.23975,-0.89823 -0.0981,-0.513156 -0.0359,-0.630408 0.27176,-0.512346 0.21943,0.0842 0.32907,0.04 0.24364,-0.09823 -0.1975,-0.319565 3.46071,-0.0177 5.09561,0.420476 3.60699,0.966724 7.46854,4.199389 9.04788,7.574362 0.73613,1.573081 0.85215,2.133283 0.94976,4.586044 0.0888,2.232405 10e-4,3.219557 -0.43629,4.910733 l -0.54747,2.116666 1.55302,1.5875 c 3.20738,3.278596 4.16319,5.853022 3.77297,10.162273 -0.31257,3.451641 -1.07965,5.064059 -3.60398,7.575599 -2.14365,2.132797 -4.50605,3.482754 -7.70511,4.402971 -1.83079,0.526631 -2.70741,0.605948 -6.73495,0.609378 -3.55858,0.003 -5.10478,-0.107394 -6.6807,-0.477116 -2.04054,-0.478729 -2.05427,-0.478365 -2.83145,0.07504 -1.17422,0.836119 -3.43723,1.774807 -6.02782,2.500319 -5.40809,1.514572 -10.38631,1.802583 -39.09649,2.261898 -24.78845,0.396573 -63.73802,0.840738 -65.74895,0.749775 -0.94589,-0.04279 -3.54,-0.160699 -5.76469,-0.262027 z m -35.33392,-58.863038 c -0.097,-0.09701 -0.25576,-0.09701 -0.35278,0 -0.097,0.09701 -0.0176,0.176389 0.17639,0.176389 0.19403,0 0.2734,-0.07937 0.17639,-0.176389 z m 64.59833,39.203009 c -1.11791,-0.188123 -2.96338,-0.646082 -4.10104,-1.017685 -4.84065,-1.581142 -7.29173,-2.106935 -9.80077,-2.102412 -1.71956,0.0031 -2.39011,-0.08262 -2.26963,-0.290125 0.0941,-0.161989 -0.1034,-0.0564 -0.4388,0.234642 l -0.60981,0.529167 0.18529,-0.595313 c 0.14978,-0.481255 0.0835,-0.595312 -0.3461,-0.595312 -0.95959,0 -0.86121,-0.494517 0.15822,-0.795249 1.89777,-0.559846 5.12076,-0.624999 7.46092,-0.150823 1.20832,0.244837 2.25598,0.386115 2.32815,0.313952 0.0722,-0.07216 0.0484,-1.066526 -0.0528,-2.209695 -0.15879,-1.793889 -0.29325,-2.203544 -0.98193,-2.991775 -0.43887,-0.502307 -0.96727,-1.240361 -1.17421,-1.640121 -0.54393,-1.050725 -0.9135,-4.376251 -0.86891,-7.81885 0.0213,-1.64419 -0.0167,-3.044888 -0.0845,-3.112662 -0.0678,-0.06777 -0.77666,0.175928 -1.5753,0.54156 -3.35209,1.534636 -7.16643,0.990655 -9.69416,-1.382528 -1.8391,-1.726656 -2.53744,-3.354175 -2.52918,-5.894397 0.009,-2.665162 0.80822,-4.396562 3.20347,-6.936925 1.19602,-1.268492 2.38333,-2.941424 3.49388,-4.922943 1.8192,-3.245934 5.88279,-12.377964 5.77374,-12.975234 -0.0443,-0.24277 -1.36323,-0.65569 -3.91054,-1.22431 -2.11402,-0.47189 -5.44777,-1.39507 -7.40834,-2.05151 -1.96056,-0.65644 -3.6132,-1.14837 -3.67252,-1.09318 -0.0593,0.0552 0.14996,2.57197 0.46508,5.59283 1.17657,11.279003 1.19002,11.522771 0.72408,13.125536 -0.61163,2.103933 -1.83264,3.590505 -3.72716,4.537784 l -1.58747,0.79375 h -9.78959 c -11.65112,0 -12.08814,-0.07154 -14.29739,-2.340329 -1.73136,-1.778023 -1.97238,-2.597039 -3.28227,-11.153421 -1.63724,-10.69471 -2.8391,-17.61418 -3.10578,-17.88085 -0.14822,-0.14823 -3.13623,-0.0894 -7.63838,0.1505 -10.38265,0.55312 -13.37666,0.53197 -14.61536,-0.10328 -1.84031,-0.94376 -2.70144,-2.31641 -2.70144,-4.30612 0,-0.99595 0.77654,-4.36285 2.64365,-11.46233 0.42099,-1.60073 1.84565,-7.05773 3.16592,-12.12667 1.32027,-5.06893 3.05929,-11.61737 3.8645,-14.55208 0.80521,-2.93471 1.98671,-7.24083 2.62556,-9.56917 8.26077,-30.10677 9.18072,-33.05109 12.23229,-39.14962 5.31444,-10.62085 13.47276,-20.09204 22.96079,-26.65572 15.70909,-10.86733 35.71426,-16.30859 54.23958,-14.75275 7.69504,0.64626 14.56933,2.09162 22.68513,4.76967 6.72647,2.2196 10.01718,3.72703 11.82255,5.41575 l 1.32925,1.24335 1.22467,-0.81119 c 3.6302,-2.40455 8.57144,-0.63962 10.59012,3.78261 1.09546,2.39977 1.08867,4.47541 -0.0261,7.98812 -0.14552,0.45852 0.21208,0.99289 1.85913,2.77813 2.55,2.76396 6.20342,7.59373 7.97646,10.54478 2.76029,4.59424 3.66652,6.57974 6.52117,14.2875 0.51201,1.38245 1.72444,4.65667 2.6943,7.27604 2.79871,7.55868 8.45174,23.65266 18.02943,51.32917 5.06594,14.63898 5.64912,16.41957 5.64912,17.24812 0,0.9612 -1.18753,2.83214 -2.09534,3.30118 -0.52988,0.27377 -2.7072,0.35278 -9.72249,0.35278 -4.97183,0 -9.12719,0.0874 -9.23413,0.1942 -0.10693,0.10681 -0.41069,3.08337 -0.67501,6.61458 -1.4704,19.643659 -1.39749,19.200843 -3.49737,21.242604 -0.84709,0.823647 -1.78875,1.454623 -2.47802,1.660448 -1.92323,0.574301 -6.85672,0.915672 -13.70493,0.948308 -5.82242,0.02775 -6.73411,-0.02465 -7.61266,-0.437511 -1.68349,-0.791131 -3.02862,-2.212009 -3.63933,-3.844262 -0.52105,-1.392636 -0.55615,-1.961417 -0.51721,-8.379957 0.023,-3.78725 0.0313,-6.96812 0.0185,-7.06859 -0.0128,-0.10047 -0.88647,0.11201 -1.9415,0.47219 -2.31976,0.79194 -7.17148,2.03566 -10.28492,2.63651 l -2.28129,0.44025 -0.18048,2.02103 c -0.0993,1.11157 -0.24195,2.27099 -0.31708,2.5765 -0.20617,0.8383 3.58845,6.328708 6.65633,9.630988 2.98874,3.217088 4.01833,5.079679 4.26437,7.714475 0.32475,3.477647 -1.15314,6.286164 -4.1481,7.882874 -1.47536,0.786563 -1.96891,0.914096 -3.56456,0.921074 -1.01864,0.0045 -2.18446,-0.08248 -2.5907,-0.193178 l -0.73863,-0.201277 0.17812,4.042703 c 0.21058,4.779342 -0.0502,6.434479 -1.2879,8.1731 l -0.85255,1.197619 0.0822,3.090679 0.0822,3.090679 0.71158,0.0015 c 0.80177,0.0017 2.38092,0.412204 2.92172,0.759575 0.27165,0.174492 0.28917,0.358674 0.0726,0.76331 -0.25235,0.471524 -0.61576,0.546908 -3.13617,0.650548 -2.38518,0.09808 -3.32374,0.275738 -5.74695,1.087824 -4.40584,1.476521 -6.28887,1.314809 -9.47213,-0.813451 -1.5702,-1.0498 -2.32686,-1.340255 -4.32168,-1.658928 -3.0741,-0.491091 -5.25129,0.139331 -8.74745,2.532893 -1.67919,1.149621 -1.75915,1.174091 -3.74957,1.147544 -1.11859,-0.01492 -2.94846,-0.181045 -4.06637,-0.369169 z m 7.20194,-2.529296 c 0.53776,-0.474878 0.79005,-0.862865 0.61094,-0.939549 -2.26916,-0.971497 -5.59454,-3.766663 -7.52838,-6.328027 -0.67625,-0.895687 -1.20479,-1.368031 -1.39513,-1.246798 -0.16853,0.107345 -0.83994,0.547409 -1.49202,0.977918 -0.65209,0.43051 -1.22214,0.804378 -1.26678,0.830818 -0.0446,0.02644 0.062,1.320049 0.2369,2.874686 0.30744,2.732151 0.34765,2.850222 1.2035,3.533119 0.77714,0.620097 1.08796,0.698104 2.54123,0.637793 0.91068,-0.03779 2.2511,0.03826 2.9787,0.169005 2.47911,0.445478 3.12006,0.366125 4.11104,-0.508965 z m 22.91888,-0.173397 c 2.04448,-0.850145 1.84302,-0.288988 1.71326,-4.772366 -0.0557,-1.9235 -0.12032,-2.227225 -0.38218,-1.795575 -1.27963,2.109362 -5.02376,5.194466 -7.38743,6.087127 -1.37589,0.519618 -1.40445,0.791783 -0.1246,1.187304 1.41875,0.438447 4.18903,0.121801 6.18095,-0.70649 z m -9.59282,-2.979932 c 1.12399,-0.287468 2.78014,-0.910459 3.68034,-1.384423 1.93276,-1.01762 4.37846,-3.344848 5.19297,-4.941438 l 0.57959,-1.136076 -2.6937,-5.863425 c -1.48153,-3.224884 -2.77238,-5.949876 -2.86857,-6.055539 -0.0962,-0.105662 -3.60891,-0.105662 -7.80607,0 l -7.63121,0.192114 -1.49001,2.856771 c -0.81951,1.571224 -2.26393,3.930186 -3.20981,5.242137 -0.94589,1.311952 -1.83712,2.554703 -1.98053,2.761669 -0.75397,1.088155 3.08534,5.228996 6.32199,6.8185 4.09571,2.011392 8.00506,2.507148 11.90501,1.50971 z m -24.29402,-7.161013 c 1.58601,-0.767775 4.44146,-3.470157 6.26974,-5.933647 1.71008,-2.304225 3.47461,-5.570926 3.22625,-5.972792 -0.0862,-0.139495 -0.9534,-0.256853 -1.92708,-0.260796 -0.97367,-0.0039 -2.90141,-0.123395 -4.28386,-0.265449 -1.38245,-0.142055 -3.2655,-0.335369 -4.18456,-0.429588 l -1.67101,-0.171307 0.0835,6.456027 c 0.0459,3.550815 0.17984,6.604855 0.29757,6.786756 0.30369,0.469226 0.90709,0.411571 2.18944,-0.209204 z m 37.30855,-1.907462 c 0.42783,-1.323101 -0.1195,-10.567756 -0.65834,-11.119658 -0.1954,-0.200137 -5.2485,0.443447 -5.50637,0.701314 -0.38125,0.381249 5.05907,11.013656 5.6354,11.013656 0.18525,0 0.42344,-0.26789 0.52931,-0.595312 z m -47.07887,-10.382447 c 2.3368,-0.693956 3.72637,-1.973607 4.19059,-3.859111 0.15835,-0.643152 0.0884,-0.699482 -1.23838,-0.997079 -2.05736,-0.461469 -3.98936,-1.437929 -5.37843,-2.718323 l -1.22341,-1.127705 -0.89657,0.482836 c -1.05945,0.570549 -2.15597,2.061674 -2.54069,3.455005 -0.52724,1.909522 0.83799,4.057048 3.07663,4.83957 1.14654,0.400776 2.49248,0.375539 4.01026,-0.07519 z m 55.43308,-2.259309 c 1.18483,-0.329085 2.46631,-1.728598 2.89598,-3.162711 0.59687,-1.992157 -0.62751,-4.302577 -2.73483,-5.160678 -0.98043,-0.399232 -0.98694,-0.397535 -1.37806,0.358799 -0.55395,1.071219 -2.90541,3.117669 -3.99585,3.477548 -0.89144,0.294201 -0.91244,0.333025 -0.76091,1.406561 0.28454,2.015735 0.62818,2.775279 1.38011,3.050406 0.95167,0.348213 3.39065,0.364181 4.59356,0.03007 z m -15.25792,-1.046547 c 1.60073,-0.148324 3.53564,-0.396941 4.29979,-0.552482 1.23448,-0.25127 1.37449,-0.347075 1.25585,-0.859289 -0.0734,-0.317068 -0.55708,-2.660082 -1.07476,-5.206696 -0.51768,-2.546615 -1.03034,-4.72061 -1.13924,-4.831102 -0.10891,-0.110491 -1.34251,0.398017 -2.74135,1.130018 -3.55611,1.860894 -5.79429,2.399254 -10.68915,2.571114 -6.15227,0.216007 -10.47898,-0.66753 -15.21834,-3.107663 -4.1126,-2.117438 -6.94252,-4.476952 -9.42577,-7.858965 -0.67195,-0.91515 -1.2988,-1.57412 -1.39299,-1.46439 -0.0942,0.10974 -0.98572,2.28312 -1.98117,4.829738 -0.99545,2.546615 -1.98422,4.904047 -2.19725,5.238739 -0.36209,0.56886 -0.32874,0.669004 0.51164,1.53615 1.02121,1.053728 2.82425,2.26673 4.26276,2.867776 l 0.97602,0.407807 1.75795,-2.25131 c 1.61206,-2.064481 2.62716,-2.998915 2.92943,-2.696646 0.16545,0.165446 -0.85902,4.794354 -1.63445,7.385055 -0.35521,1.186771 -0.64584,2.179471 -0.64584,2.206002 0,0.102717 3.95331,0.717556 5.9597,0.926883 2.7243,0.284228 22.39241,0.08089 26.18717,-0.270739 z m -35.31533,-3.857567 c 0.14192,-0.373275 0.25804,-0.710657 0.25804,-0.749737 0,-0.03908 -0.66422,-0.418282 -1.47604,-0.842671 -0.81182,-0.42439 -2.1347,-1.35845 -2.93974,-2.07569 l -1.46371,-1.304073 -0.49547,0.642614 c -1.09577,1.42121 -0.87305,2.041187 1.20819,3.363174 1.14196,0.725361 3.42969,1.620246 4.18113,1.635521 0.26587,0.0054 0.58151,-0.284875 0.7276,-0.669138 z m 46.16414,-1.967768 c 0.63502,-0.436902 1.41558,-1.160907 1.73458,-1.608901 0.50711,-0.712183 0.53695,-0.89496 0.23745,-1.454591 -0.18841,-0.352031 -0.48746,-0.640057 -0.66456,-0.640057 -0.17711,0 -1.10361,0.744141 -2.05889,1.653646 -1.51721,1.444499 -1.70615,1.728939 -1.49389,2.248958 0.32568,0.797903 0.86589,0.750011 2.24531,-0.199055 z m -0.65936,-2.668457 c 1.67359,-1.142385 1.86398,-1.576672 1.14268,-2.606483 -0.24301,-0.346941 -0.86809,-1.419232 -1.38907,-2.38287 -1.65366,-3.05873 -1.4911,-2.91401 -2.24511,-1.99886 -1.28231,1.556338 -1.32594,1.768378 -0.82662,4.016997 0.67614,3.04493 0.5851,2.909542 1.41919,2.110428 0.40385,-0.386909 0.82618,-0.70347 0.93853,-0.70347 0.11234,0 -0.16207,0.30824 -0.60979,0.684978 -0.7676,0.645893 -1.03314,1.388989 -0.63766,1.784466 0.31202,0.312024 0.594,0.196417 2.20785,-0.905186 z m -68.26549,-3.416341 c 0.42948,-0.429483 0.52917,-0.881945 0.52917,-2.401864 0,-1.976968 -0.45165,-7.873118 -0.68541,-8.947938 l -0.13793,-0.63417 -3.22635,0.17145 c -12.53621,0.6662 -18.60037,1.05928 -18.77675,1.21712 -0.25321,0.2266 1.34181,10.07855 1.70213,10.51355 0.40835,0.49297 1.09837,0.529235 10.8717,0.571375 8.86933,0.03824 9.21298,0.02094 9.72344,-0.489523 z m 50.51374,-0.549379 c 5.14451,-0.841323 9.32088,-3.170223 12.12832,-6.763193 0.96524,-1.23532 2.44544,-4.08692 2.44544,-4.71113 0,-0.44888 -0.74701,-0.52296 -2.44439,-0.24238 -0.84867,0.14028 -1.02482,0.29262 -1.24016,1.07253 -1.19088,4.313 -6.73295,7.821037 -12.95466,8.20008 -7.08071,0.431376 -13.96391,-2.23928 -18.72597,-7.26562 -0.77454,-0.81753 -1.49353,-1.36336 -1.6602,-1.26035 -0.16678,0.10308 -0.26253,0.0301 -0.22128,-0.1687 0.0506,-0.24397 -0.31346,-0.37507 -1.19867,-0.43164 l -1.27137,-0.0812 0.44958,0.87499 c 1.36749,2.66146 4.55401,5.6803 8.17231,7.74228 4.6167,2.630939 11.38575,3.87419 16.52105,3.034373 z m 55.80161,-2.875546 c 1.60353,-0.132537 2.60454,-0.341987 2.86123,-0.598677 0.53118,-0.53119 1.24341,-9.44723 0.79089,-9.90083 -0.44705,-0.44813 -20.39685,-0.72458 -20.74533,-0.28748 -0.15538,0.19489 -0.20263,2.17806 -0.1201,5.04102 0.13212,4.58333 0.15562,4.74299 0.8131,5.52436 l 0.67704,0.804624 6.62839,-0.189578 c 3.64561,-0.104268 7.73826,-0.281316 9.09478,-0.393439 z m -55.10792,-1.482337 c 3.51933,-0.91355 6.44467,-2.8728 7.78882,-5.21655 0.43704,-0.76206 0.79573,-1.53439 0.7971,-1.71629 0.005,-0.69595 -0.80369,-0.28723 -1.3091,0.66146 -0.67649,1.2698 -0.96128,1.59461 -2.33488,2.66295 -3.50854,2.72881 -8.65528,3.47721 -14.168,2.0602 -2.95805,-0.76035 -6.29008,-2.45679 -8.082,-4.11479 -1.05656,-0.97761 -2.41395,-1.44891 -2.41395,-0.83816 0,0.56891 3.5161,3.3288 5.63563,4.42357 4.38829,2.26662 10.10824,3.11026 14.08638,2.07761 z m -2.35734,-2.56722 c -0.0877,-0.32742 -0.16116,-0.80367 -0.16315,-1.05833 -0.003,-0.39357 -0.26407,-0.46302 -1.74016,-0.46302 h -1.73656 l 0.0829,0.85874 c 0.0903,0.93571 0.58765,1.16219 2.69346,1.22662 0.93759,0.0287 1.00972,-0.0184 0.8635,-0.56401 z m -5.32613,-0.98026 c 0,-0.72436 -0.61394,-0.99901 -2.33351,-1.04388 -0.89944,-0.0235 -1.00129,0.0383 -0.92604,0.5615 0.0613,0.42591 0.37614,0.67678 1.14288,0.91054 1.53886,0.46916 2.11667,0.35228 2.11667,-0.42816 z m 8.98338,0.47477 c 0.76556,-0.34881 0.92701,-1.39129 0.25539,-1.64901 -0.69695,-0.26745 -1.56854,-0.18142 -2.10013,0.20729 -0.43189,0.31581 -0.45858,0.46564 -0.18853,1.05833 0.344,0.75501 0.96193,0.87153 2.03327,0.38339 z m -13.61359,-2.20414 c 0,-0.87682 -1.76015,-1.27989 -2.37163,-0.5431 -0.41337,0.49807 -0.148,0.90305 0.88204,1.34605 0.72522,0.31192 0.86923,0.30239 1.15886,-0.0767 0.1819,-0.23808 0.33073,-0.5649 0.33073,-0.72626 z m 16.93333,1.04285 c 0,-0.5626 -0.89137,-1.70665 -1.32971,-1.70665 -0.68317,0 -0.66277,0.4779 0.0529,1.23971 0.52088,0.55446 1.2768,0.8309 1.2768,0.46694 z m 1.71979,-2.23582 c 0,-0.42696 -0.1706,-0.68707 -0.49112,-0.74879 -0.75184,-0.14479 -1.06558,0.32852 -0.65508,0.98824 0.4615,0.74168 1.1462,0.59864 1.1462,-0.23945 z m -6.73299,-0.096 c 1.06732,-0.32404 0.65395,-0.35464 -4.44531,-0.32906 -3.09213,0.0155 -5.62221,0.10802 -5.6224,0.20558 -1.8e-4,0.0976 0.80333,0.25532 1.7856,0.35057 0.98226,0.0953 1.905,0.22251 2.05052,0.28277 0.51756,0.21433 5.07427,-0.15849 6.23159,-0.50986 z m -15.35972,-0.16856 c 0,-0.14553 -0.11906,-0.26459 -0.26458,-0.26459 -0.14552,0 -0.26458,0.11906 -0.26458,0.26459 0,0.14552 0.11906,0.26458 0.26458,0.26458 0.14552,0 0.26458,-0.11906 0.26458,-0.26458 z m -53.18124,-0.9347 c 1.23692,-0.0857 5.55575,-0.31011 9.5974,-0.49874 4.04164,-0.18862 7.42274,-0.41727 7.51356,-0.50809 0.1465,-0.1465 -0.38669,-5.66332 -0.5795,-5.99597 -0.0422,-0.0728 -1.36799,-0.057 -2.94626,0.035 -1.57827,0.092 -6.60338,0.32285 -11.16692,0.51297 l -8.29735,0.34568 0.16101,1.20682 c 0.0886,0.66376 0.29494,2.13629 0.45862,3.27231 l 0.29761,2.06548 1.35643,-0.13983 c 0.74604,-0.0769 2.36847,-0.20994 3.6054,-0.29562 z m 128.1578,-6.28597 c 0.12747,-1.57027 0.187,-2.89649 0.13229,-2.94715 -0.0547,-0.0507 -3.90947,-0.17415 -8.56614,-0.27443 l -8.46667,-0.18231 -2.1674,1.40968 -2.16741,1.40967 -0.0154,1.64998 -0.0154,1.64998 8.53281,0.0786 c 4.69305,0.0432 9.42578,0.0746 10.51719,0.0698 l 1.98437,-0.009 z m -55.88146,1.92041 c 12.03577,-0.81063 23.12552,-3.06555 29.66433,-6.03174 4.18968,-1.90057 7.68196,-4.52247 9.92769,-7.45342 1.60743,-2.09789 2.43163,-5.02246 2.43163,-8.62827 0,-2.44104 -0.46025,-9.68022 -0.65571,-10.31342 -0.049,-0.15871 -1.08235,0.67489 -2.29637,1.85244 -3.70481,3.59356 -7.58667,5.183 -12.65833,5.183 -3.13022,0 -5.88577,-0.65351 -8.54617,-2.02682 -2.47176,-1.27592 -6.26972,-5.02529 -7.59536,-7.49818 -2.32768,-4.34209 -2.99664,-6.88992 -3.02193,-11.50937 -0.0239,-4.35798 0.49663,-6.74295 2.27646,-10.43102 1.13794,-2.35799 1.64374,-3.06902 3.48662,-4.90131 2.48369,-2.46942 4.84958,-3.844 8.00538,-4.65112 5.26615,-1.34686 11.53076,-0.0637 15.76308,3.22871 0.77323,0.60151 1.57413,1.22412 1.77977,1.38357 0.31994,0.24808 0.34849,-0.24296 0.19784,-3.40237 -0.16938,-3.55238 -0.20862,-3.74621 -1.03535,-5.11496 -1.01726,-1.68417 -3.40047,-4.02504 -4.09784,-4.02504 -0.27065,0 -0.62943,0.13734 -0.79729,0.30519 -0.47109,0.47109 -1.66925,0.327 -3.30831,-0.39787 -2.81467,-1.24478 -8.38007,-2.25485 -12.58611,-2.28427 -0.33862,-0.002 -0.97801,-0.36665 -1.42088,-0.80951 -0.7421,-0.7421 -0.79585,-0.91809 -0.68578,-2.24535 0.13984,-1.68633 0.54333,-1.51047 -4.74549,-2.06827 l -3.23447,-0.34113 -1.13075,1.18644 c -2.03277,2.13288 -2.66086,2.28914 -9.20134,2.28914 -6.39786,0 -6.91669,-0.10126 -9.01429,-1.75931 l -1.33382,-1.05432 -2.30178,0.27987 c -3.21094,0.39041 -11.71256,1.8049 -11.88508,1.97742 -0.0784,0.0784 0.01,0.50967 0.19547,0.95843 0.44054,1.06356 -0.0254,2.73487 -0.92719,3.32574 -0.39031,0.25575 -1.66866,0.50788 -3.28833,0.64856 -4.2027,0.36506 -7.9589,1.39371 -11.92623,3.26605 -1.77555,0.83795 -2.55832,0.86639 -3.35098,0.12172 l -0.60696,-0.57021 -1.39447,0.93294 c -2.39903,1.60503 -3.75363,2.99056 -5.74963,5.88089 -1.06252,1.53858 -2.68206,3.49921 -3.59899,4.35695 -1.14377,1.06995 -1.6333,1.71301 -1.55935,2.04844 0.0991,0.44969 1.50828,7.92833 4.90298,26.0212 1.82938,9.75011 2.86652,15.044 3.172,16.19094 0.14318,0.53756 0.4991,2.67263 0.79093,4.7446 0.29183,2.07196 0.65341,3.91519 0.80352,4.09607 0.33111,0.39895 4.15144,2.02526 6.8018,2.89551 6.04864,1.98609 17.76016,3.97263 26.11519,4.42972 3.87955,0.21225 13.93809,0.16306 17.63989,-0.0863 z m -2.26104,-15.18481 c -1.97491,-0.727 -3.31926,-2.49872 -3.88002,-5.11347 -0.37378,-1.74285 0.16116,-3.24105 1.15724,-3.24105 0.72554,0 1.16989,0.57932 1.8576,2.42185 0.66169,1.77282 1.51935,2.60524 2.68425,2.60524 1.17944,0 2.12971,-0.9331 2.53333,-2.48756 0.69287,-2.66843 1.61152,-3.58995 2.64573,-2.654 0.71498,0.64705 0.69301,3.25524 -0.0411,4.87697 -1.32611,2.92955 -4.41885,4.52638 -6.95704,3.59202 z m -35.33886,-5.98554 c -4.12821,-0.56023 -7.83219,-2.21485 -10.74369,-4.79933 -3.16306,-2.80779 -4.76821,-5.15777 -6.46721,-9.46817 -2.41469,-6.12611 -2.23853,-13.21774 0.45577,-18.34807 3.44213,-6.55428 11.72213,-10.78032 19.52813,-9.96698 3.03707,0.31644 4.74074,0.82921 7.52972,2.26627 5.35069,2.75702 9.62981,8.33607 11.14578,14.53168 0.79794,3.26111 0.79398,8.08635 -0.009,11.1125 -1.85902,7.00493 -7.13062,12.49456 -13.5707,14.13197 -2.43093,0.61807 -5.66071,0.83977 -7.86868,0.54013 z m -2.61552,-19.6219 c 2.11884,-0.97554 3.7487,-2.58135 4.84577,-4.77427 0.81821,-1.63549 0.9287,-2.09618 0.92851,-3.87137 -2.7e-4,-2.59482 -0.92106,-4.69086 -2.77923,-6.32648 -1.29577,-1.14059 -3.87626,-2.17079 -5.43749,-2.17079 -5.05603,0 -10.09894,4.62501 -10.50074,9.63057 -0.17916,2.23198 0.0409,3.2724 0.99748,4.71661 0.93261,1.408 2.40061,2.48771 4.30577,3.16689 2.04994,0.7308 5.6236,0.55718 7.63993,-0.37116 z m 8.17738,-0.47416 c 0.54649,0 1.30128,-1.10057 1.30128,-1.89739 0,-1.14472 -0.6632,-1.80678 -1.80989,-1.80678 -2.35036,0 -3.00968,2.98211 -0.83594,3.78098 0.21828,0.0802 0.55544,0.0958 0.74924,0.0345 0.1938,-0.0612 0.46169,-0.11133 0.59531,-0.11133 z m -40.03941,38.29844 c -0.13771,-0.41482 -1.67124,-0.51946 -3.90306,-0.26634 l -1.71979,0.19504 2.24896,0.15172 c 1.23692,0.0834 2.52677,0.1739 2.86632,0.20101 0.39088,0.0312 0.57708,-0.072 0.50757,-0.28143 z m -1.05879,-0.10909 c 0.1819,-0.0734 0.47956,-0.0734 0.66146,0 0.1819,0.0734 0.0331,0.13346 -0.33073,0.13346 -0.3638,0 -0.51263,-0.0601 -0.33073,-0.13346 z m 6.4394,0.1952 c -0.2891,-0.18301 -0.22925,-0.26371 0.26459,-0.35679 0.55222,-0.10408 0.53126,-0.12465 -0.15555,-0.1527 -0.43656,-0.0178 -1.09141,0.0523 -1.45521,0.15575 -0.62856,0.17881 -0.6154,0.19663 0.26458,0.35843 1.38159,0.25402 1.48954,0.25356 1.08159,-0.005 z m -4.52117,-0.15226 c 0,-0.0728 -0.0595,-0.13229 -0.13229,-0.13229 -0.0728,0 -0.13229,0.0595 -0.13229,0.13229 0,0.0728 0.0595,0.13229 0.13229,0.13229 0.0728,0 0.13229,-0.0595 0.13229,-0.13229 z m 2.29306,-0.30868 c -0.097,-0.097 -0.17639,-0.0176 -0.17639,0.17639 0,0.19403 0.0794,0.2734 0.17639,0.17639 0.097,-0.097 0.097,-0.25577 0,-0.35278 z m 8.56101,0.18579 c -0.26974,-0.17057 0.18081,-0.27615 1.45521,-0.341 1.72617,-0.0878 1.68816,-0.0973 -0.58585,-0.14575 -2.34667,-0.05 -3.64337,0.33093 -1.87272,0.55016 0.4757,0.0589 0.98398,0.12432 1.1295,0.14538 0.14552,0.0211 0.0888,-0.0729 -0.12614,-0.20879 z m 2.56802,0.0953 c -0.0879,-0.0879 -0.31612,-0.0973 -0.50712,-0.0209 -0.21106,0.0845 -0.14837,0.14716 0.15986,0.15985 0.27891,0.0115 0.43518,-0.051 0.34726,-0.13896 z m -11.57001,-0.23702 c 0,-0.0728 -0.0595,-0.13229 -0.13229,-0.13229 -0.0728,0 -0.13229,0.0595 -0.13229,0.13229 0,0.0728 0.0595,0.13229 0.13229,0.13229 0.0728,0 0.13229,-0.0595 0.13229,-0.13229 z m 6.15157,-0.0544 c -0.32743,-0.0631 -0.86321,-0.0631 -1.19063,0 -0.32742,0.0631 -0.0595,0.11467 0.59531,0.11467 0.65485,0 0.92274,-0.0516 0.59532,-0.11467 z m 7.20989,-0.0778 c -0.0899,-0.14552 -0.30532,-0.26276 -0.47863,-0.26054 -0.18934,0.002 -0.15671,0.10643 0.0818,0.26054 0.50829,0.32848 0.59989,0.32848 0.39687,0 z m -11.90625,-0.91408 c 4.36563,-0.21285 8.80053,-0.42167 9.85535,-0.46406 l 1.91784,-0.0771 -0.0196,-0.92604 c -0.0108,-0.50933 -0.15941,-1.93808 -0.33034,-3.175 l -0.31079,-2.24896 -4.49791,0.0587 c -5.15575,0.0672 -17.9352,0.60994 -18.10586,0.76891 -0.13028,0.12136 0.77641,6.19632 0.97673,6.54421 0.0722,0.12542 0.6816,0.15565 1.35417,0.0672 0.67258,-0.0885 4.79475,-0.33499 9.16037,-0.54783 z m 110.19896,-1.33488 c 0,-0.0728 -0.0595,-0.13229 -0.1323,-0.13229 -0.0728,0 -0.13229,0.0595 -0.13229,0.13229 0,0.0728 0.0595,0.13229 0.13229,0.13229 0.0728,0 0.1323,-0.0595 0.1323,-0.13229 z m 11.64166,0 c 0,-0.0728 -0.0595,-0.13229 -0.13229,-0.13229 -0.0728,0 -0.13229,0.0595 -0.13229,0.13229 0,0.0728 0.0595,0.13229 0.13229,0.13229 0.0728,0 0.13229,-0.0595 0.13229,-0.13229 z m -1.10768,-0.42155 c 1.19131,-0.0216 2.16601,-0.14402 2.16601,-0.27193 0,-0.31249 -9.51492,-0.26237 -10.18645,0.0537 -0.34899,0.16423 0.3492,0.19751 2.05052,0.0977 1.87801,-0.11015 2.57968,-0.0672 2.57968,0.15793 0,0.19108 0.23388,0.25053 0.61212,0.1556 0.33666,-0.0845 1.58682,-0.17134 2.77812,-0.19299 z m -11.74686,-0.40963 c 0.13935,-0.36313 0.10063,-0.3795 -0.23628,-0.0999 -0.45911,0.38103 -0.5069,0.53419 -0.16665,0.53419 0.12995,0 0.31127,-0.19543 0.40293,-0.4343 z m 1.86001,0.14655 c -0.08,-0.12945 0.0393,-0.16445 0.26516,-0.0778 0.22584,0.0867 0.41062,0.0258 0.41062,-0.13533 0,-0.40873 -1.55074,-0.36744 -1.97066,0.0525 -0.28409,0.2841 -0.18697,0.34986 0.54749,0.37068 0.49106,0.0139 0.82739,-0.0806 0.74739,-0.21004 z m 13.21916,-1.27195 c 0.0656,-0.23357 0.15745,-1.6153 0.2041,-3.07051 l 0.0848,-2.64583 -5.55625,-0.0671 -5.55625,-0.0671 -0.87449,1.59609 c -0.48097,0.87785 -1.40242,2.24424 -2.04766,3.03642 l -1.17317,1.44034 3.76745,0.0887 c 8.77773,0.20663 11.02367,0.14399 11.15146,-0.31097 z m -127.10796,-4.78455 c 13.95915,-0.5588 13.75834,-0.54366 13.75834,-1.03701 0,-0.24634 -0.23227,-1.5736 -0.51616,-2.94946 -0.28388,-1.37586 -0.8938,-4.58516 -1.35538,-7.13178 -0.46157,-2.54661 -0.93577,-4.73541 -1.05377,-4.86399 -0.12392,-0.13502 -3.82682,-0.0548 -8.76494,0.18983 -28.722,1.42299 -31.30658,1.58032 -31.58916,1.92289 -0.36482,0.44227 -3.1406,11.71738 -2.93522,11.92276 0.0849,0.0849 4.78794,-0.0498 10.45121,-0.29924 9.1604,-0.40353 10.38082,-0.40993 11.05774,-0.058 1.19111,0.61934 1.90009,1.33977 2.09921,2.13311 0.16732,0.66665 0.26586,0.71714 1.14219,0.58526 0.52749,-0.0794 3.99516,-0.26586 7.70594,-0.41441 z m 127.90512,-3.40488 c 0.6642,-1.28441 1.1433,-1.35201 9.74612,-1.37515 4.40103,-0.0118 8.25534,-0.0828 8.56513,-0.15779 0.54598,-0.1321 0.50721,-0.30379 -1.26451,-5.60026 -1.00526,-3.00518 -1.94908,-5.58551 -2.09738,-5.73405 -0.25092,-0.25134 -24.34188,-1.29186 -24.99478,-1.07955 -0.18602,0.0605 -0.20716,0.81521 -0.0645,2.30182 0.35315,3.67981 0.27766,7.73439 -0.18636,10.00942 -0.2378,1.16593 -0.37675,2.21017 -0.30878,2.32052 0.068,0.11035 2.39685,0.16589 5.17528,0.12343 l 5.05167,-0.0772 z M 152.98122,-141.8053 c 2.0973,-0.14319 9.11458,-0.49798 15.59396,-0.78842 6.47938,-0.29044 13.43632,-0.6071 15.45986,-0.7037 l 3.67916,-0.17563 -0.16375,-0.81797 c -0.0901,-0.44988 -0.35631,-1.87003 -0.59165,-3.15588 -0.28713,-1.56885 -0.56212,-2.38942 -0.83595,-2.49449 -0.45902,-0.17615 -7.28712,0.19141 -21.34448,1.14897 -5.23875,0.35685 -10.79626,0.72423 -12.35003,0.81639 l -2.82503,0.16757 -0.81326,2.93723 c -0.44728,1.61549 -0.81313,3.02654 -0.81298,3.13568 3.3e-4,0.25177 0.3703,0.24661 5.00415,-0.0697 z m 166.18152,-2.36495 c 0,-0.28418 -2.03591,-6.37933 -2.16543,-6.48292 -0.0846,-0.0677 -11.60937,-0.6105 -17.67832,-0.83266 -1.81901,-0.0666 -3.69964,-0.17047 -4.17918,-0.23086 l -0.87188,-0.10979 0.17689,3.35874 c 0.0973,1.84732 0.25152,3.43369 0.34272,3.52529 0.0912,0.0916 5.22328,0.30717 11.40461,0.47907 6.18133,0.17189 11.2911,0.36483 11.35503,0.42877 0.22807,0.22807 1.61556,0.11157 1.61556,-0.13564 z m -168.27499,-4.11374 c 0,-0.0728 -0.0595,-0.13229 -0.1323,-0.13229 -0.0728,0 -0.13229,0.0595 -0.13229,0.13229 0,0.0728 0.0595,0.13229 0.13229,0.13229 0.0728,0 0.1323,-0.0595 0.1323,-0.13229 z m -0.26459,-0.52916 c 0,-0.0728 -0.0595,-0.1323 -0.13229,-0.1323 -0.0728,0 -0.13229,0.0595 -0.13229,0.1323 0,0.0728 0.0595,0.13229 0.13229,0.13229 0.0728,0 0.13229,-0.0595 0.13229,-0.13229 z m 1.19063,-0.1323 c -0.0899,-0.14552 -0.28259,-0.26458 -0.42811,-0.26458 -0.14552,0 -0.191,0.11906 -0.10106,0.26458 0.0899,0.14553 0.28258,0.26459 0.42811,0.26459 0.14552,0 0.19099,-0.11906 0.10106,-0.26459 z m 4.49791,0.001 c 0.81335,-0.17899 0.62961,-0.19854 -0.79375,-0.0845 -1.01864,0.0816 -1.90169,0.19332 -1.96232,0.24816 -0.20337,0.18394 1.68645,0.0717 2.75607,-0.1637 z m 5.76435,-0.46049 c -0.75867,-0.0533 -2.06836,-0.0537 -2.91041,-10e-4 -0.84206,0.0527 -0.22133,0.0962 1.3794,0.0968 1.60073,6e-4 2.28968,-0.0425 1.53101,-0.0958 z m 2.74836,-1.36338 c 9.90456,-0.68823 20.02603,-1.35231 20.61112,-1.35231 0.51139,0 0.48768,-0.32012 -0.38217,-5.15937 -0.28773,-1.60073 -0.71678,-4.04151 -0.95345,-5.42396 -0.23666,-1.38245 -0.47916,-2.75362 -0.53888,-3.04704 -0.10478,-0.51478 -0.22735,-0.52621 -3.4925,-0.32551 -1.86115,0.1144 -6.12235,0.44264 -9.46933,0.72943 -3.34698,0.28678 -8.40713,0.71555 -11.24479,0.95281 -2.89792,0.2423 -5.28889,0.56233 -5.45486,0.73012 -0.16251,0.1643 -0.4149,0.77498 -0.56086,1.35707 -0.14595,0.58208 -0.93572,3.63078 -1.75503,6.77488 -0.81932,3.1441 -1.48966,5.76581 -1.48966,5.82603 0,0.0602 1.53876,-0.0307 3.41947,-0.20216 1.88071,-0.1714 6.97063,-0.5584 11.31094,-0.85999 z m 1.21577,0.85539 c -0.17914,-0.0725 -0.53632,-0.0769 -0.79375,-0.01 -0.25743,0.0671 -0.11087,0.12638 0.32569,0.13177 0.43656,0.005 0.64719,-0.0495 0.46806,-0.12197 z m 6.74184,-0.0192 c -0.54571,-0.0571 -1.43868,-0.0571 -1.98438,0 -0.5457,0.0571 -0.0992,0.10379 0.99219,0.10379 1.0914,0 1.53789,-0.0467 0.99219,-0.10379 z m 1.78593,-0.33642 c 0.0912,-0.14754 -0.10673,-0.26279 -0.4474,-0.26053 -0.4915,0.003 -0.53335,0.0542 -0.21406,0.26053 0.49232,0.31816 0.46483,0.31816 0.66146,0 z m 8.5338,-0.39688 c -0.0369,-0.14552 -0.42432,-0.2523 -0.86088,-0.23729 -0.43656,0.015 -1.92484,0.0466 -3.30729,0.0702 -1.75701,0.03 -2.39409,0.12147 -2.11667,0.30392 0.52293,0.34393 6.3745,0.21653 6.28484,-0.13683 z m 2.18183,-0.26458 c 0,-0.0728 -0.0595,-0.13229 -0.13229,-0.13229 -0.0728,0 -0.1323,0.0595 -0.1323,0.13229 0,0.0728 0.0595,0.13229 0.1323,0.13229 0.0728,0 0.13229,-0.0595 0.13229,-0.13229 z m 0.79375,0 c 0,-0.0728 -0.0595,-0.13229 -0.13229,-0.13229 -0.0728,0 -0.1323,0.0595 -0.1323,0.13229 0,0.0728 0.0595,0.13229 0.1323,0.13229 0.0728,0 0.13229,-0.0595 0.13229,-0.13229 z m 119.33723,-1.18108 c 0.79478,-0.28579 1.22967,-0.52392 0.96642,-0.52917 -0.27858,-0.006 -0.40366,-0.13087 -0.29925,-0.2998 0.12686,-0.20527 1.65455,-0.23365 5.21687,-0.0969 4.86835,0.18684 5.03072,0.1766 4.83634,-0.30505 -0.11062,-0.27411 -0.71827,-2.0462 -1.35033,-3.93797 -1.77475,-5.31185 -3.52383,-10.23911 -3.69569,-10.41097 -0.1547,-0.1547 -18.6921,-1.0672 -18.88004,-0.92936 -0.0543,0.0398 0.23751,1.23843 0.64837,2.66363 0.65433,2.26981 0.75399,3.09076 0.80329,6.61735 0.0309,2.21434 0.1356,4.38723 0.23255,4.82865 l 0.17628,0.80257 h 2.97193 2.97192 l 0.58685,0.79375 c 0.32276,0.43657 0.47414,0.79375 0.33639,0.79375 -0.13775,0 -0.30005,-0.14882 -0.36067,-0.33072 -0.0606,-0.18191 -0.57655,-0.34714 -1.14653,-0.3672 -0.56997,-0.0201 -1.95905,-0.10892 -3.08683,-0.19748 -1.36414,-0.10713 -2.05053,-0.0676 -2.05053,0.11822 0,0.15359 0.11907,0.20566 0.26459,0.11573 0.14552,-0.0899 0.2664,-0.008 0.26863,0.18282 0.003,0.25167 0.0742,0.23785 0.26053,-0.0505 0.14107,-0.21828 0.25831,-0.26614 0.26054,-0.10636 0.003,0.18222 0.76829,0.30505 2.05415,0.32949 1.24296,0.0236 2.08893,0.15541 2.1487,0.33473 0.0654,0.19633 0.17677,0.17451 0.33114,-0.0649 0.19569,-0.30349 0.26927,-0.30374 0.46411,-0.002 0.13075,0.20275 0.44749,0.29176 0.7276,0.20448 0.27283,-0.085 0.67465,-0.04 0.89293,0.0999 0.62491,0.40071 1.88079,0.30714 3.44974,-0.25703 z m 9.69123,0.0786 c -0.097,-0.097 -0.25576,-0.097 -0.35278,0 -0.097,0.097 -0.0176,0.17639 0.17639,0.17639 0.19403,0 0.27341,-0.0794 0.17639,-0.17639 z m 0.88195,0.0441 c 0,-0.0728 -0.0595,-0.1323 -0.13229,-0.1323 -0.0728,0 -0.1323,0.0595 -0.1323,0.1323 0,0.0728 0.0595,0.13229 0.1323,0.13229 0.0728,0 0.13229,-0.0595 0.13229,-0.13229 z m -45.13054,-6.98233 c 1.96365,-0.9667 3.33109,-2.3893 4.35153,-4.52705 0.59917,-1.25522 0.69453,-1.80063 0.6939,-3.96875 -6.2e-4,-2.12474 -0.097,-2.69771 -0.62336,-3.70416 -2.91741,-5.5788 -9.93297,-6.33804 -14.59705,-1.57974 -1.60342,1.6358 -2.48794,3.73201 -2.6003,6.16236 -0.12017,2.59953 0.3884,4.04308 2.05038,5.81986 1.98384,2.12089 3.90703,2.85884 7.09798,2.72357 1.50718,-0.0639 2.27248,-0.2593 3.62692,-0.92609 z m 7.17486,-0.67856 c 0.75851,-0.75851 0.82162,-1.3676 0.21155,-2.04172 -0.57775,-0.6384 -1.81143,-0.61579 -2.47254,0.0453 -0.67031,0.67032 -0.6663,1.07721 0.0192,1.9487 0.68489,0.8707 1.40349,0.886 2.24178,0.0477 z m -118.88062,-6.07927 c 2.07616,-0.21933 5.44172,-0.52447 7.47901,-0.6781 2.03729,-0.15362 4.77573,-0.38925 6.08542,-0.52361 1.30969,-0.13437 4.20515,-0.38829 6.43436,-0.56428 3.90621,-0.30839 4.04822,-0.34005 3.91818,-0.87358 -0.2208,-0.90594 -1.43319,-9.85031 -1.76063,-12.98902 -0.47951,-4.59628 -0.15816,-4.18793 -3.13771,-3.9873 -4.52346,0.3046 -18.68036,1.52758 -18.78175,1.62251 -0.10951,0.10253 -0.5921,1.79197 -2.18706,7.65645 -0.59366,2.18282 -1.37134,5.04032 -1.72817,6.35 -1.24918,4.58493 -1.27501,4.83796 -0.46208,4.526 0.20107,-0.0771 2.06426,-0.31973 4.14043,-0.53907 z m 150.98168,-4.51616 c -0.4977,-1.80254 -5.55374,-16.40705 -5.74745,-16.60169 -0.23572,-0.23684 -10.14695,-0.69458 -10.40806,-0.48068 -0.41207,0.33758 -2.06077,16.77994 -1.71702,17.12369 0.077,0.0769 2.85743,0.25058 6.17884,0.38583 3.32141,0.13525 6.21753,0.28904 6.43581,0.34175 0.21828,0.0527 1.54813,0.10964 2.95523,0.12652 l 2.55836,0.0307 z m -121.90377,-7.5092 c 0.48988,-0.56484 1.36694,-1.72435 1.94902,-2.57671 2.14202,-3.13658 4.98008,-5.74767 8.59896,-7.91128 0.94588,-0.56551 2.22735,-1.58872 2.84771,-2.2738 3.1453,-3.47345 9.51382,-5.85365 14.00464,-5.23415 1.37874,0.19019 2.21848,0.10333 5.29166,-0.54734 2.94718,-0.62399 11.67338,-2.12558 12.35245,-2.12558 0.30633,0 0.16957,-0.92043 -0.66056,-4.44556 -0.8242,-3.49997 -0.83267,-3.51878 -1.5235,-3.38623 -0.38208,0.0733 -2.36157,0.37967 -4.39886,0.68081 -11.98465,1.77148 -21.16268,4.49818 -29.57227,8.78561 -6.05871,3.08889 -12.62877,8.66934 -12.62877,10.72658 0,0.30734 0.41053,2.02735 0.91229,3.82223 0.50177,1.79489 1.04214,3.76945 1.20083,4.38792 0.15869,0.61846 0.38914,1.12448 0.51212,1.12448 0.12298,0 0.62441,-0.46214 1.11428,-1.02698 z m 101.94651,-8.95585 c 0.21788,-1.03577 0.47534,-2.83285 0.57214,-3.99352 l 0.17599,-2.11029 -1.23792,-1.60878 c -2.55731,-3.32341 -5.9017,-5.29968 -12.72437,-7.51907 -5.58578,-1.81704 -14.51988,-3.90581 -18.41115,-4.30449 l -1.72511,-0.17674 -0.60313,3.62539 c -0.33171,1.99396 -0.56355,3.65985 -0.5152,3.70198 0.0484,0.0421 2.29058,0.385 4.98271,0.76194 3.8285,0.53605 5.47117,0.65113 7.54063,0.52827 2.21263,-0.13137 3.03571,-0.0603 5.02708,0.43398 3.07851,0.76414 5.71312,2.14784 7.56423,3.97274 0.81335,0.80183 2.16553,1.87459 3.00484,2.38392 2.02881,1.23115 4.71504,3.88036 5.31621,5.24293 0.26634,0.60368 0.5186,1.06326 0.56058,1.02128 0.042,-0.042 0.25459,-0.92377 0.47247,-1.95954 z m -124.47145,0.99365 c 1.38245,-0.13497 5.13292,-0.43874 8.33438,-0.67506 3.20145,-0.23631 6.05895,-0.47914 6.35,-0.53962 0.49075,-0.10197 1.4552,-1.72545 1.4552,-2.44958 0,-0.31038 -1.61354,-2.66027 -4.02884,-5.8674 -2.75878,-3.66322 -7.78221,-8.77352 -9.51881,-9.68342 -0.61877,-0.32421 -0.84093,-0.30861 -1.86669,0.13109 -1.05491,0.45218 -1.20338,0.63233 -1.57983,1.91686 -3.181,10.85427 -4.96624,17.18083 -4.96624,17.59945 0,0.0911 0.74414,0.0863 1.65364,-0.0107 0.90951,-0.0969 2.78474,-0.28668 4.16719,-0.42165 z m 137.5539,-4.33048 c -0.29587,-0.7506 -0.63472,-1.66237 -0.75301,-2.02618 -0.64112,-1.97187 -4.58828,-12.33703 -4.77086,-12.52819 -0.11823,-0.12379 -0.27868,-0.005 -0.35654,0.26458 -0.0779,0.26931 -0.51639,1.85887 -0.97449,3.53236 -0.45811,1.67349 -1.10661,3.93568 -1.44112,5.02709 -0.34666,1.13106 -0.67107,3.03679 -0.7544,4.43177 l -0.14621,2.44739 0.84272,0.0323 c 0.46349,0.0178 2.50959,0.10768 4.54688,0.19984 2.03729,0.0922 3.84835,0.12621 4.02457,0.0757 0.23279,-0.0668 0.17331,-0.46504 -0.21754,-1.45662 z m -117.94907,-2.84947 c 0.34969,-0.30729 1.14732,-0.98098 1.77251,-1.4971 0.72468,-0.59826 1.08213,-1.08063 0.98613,-1.3308 -0.12019,-0.31321 -0.0745,-0.32924 0.2265,-0.0795 0.3032,0.25163 0.88764,-0.0192 2.98262,-1.38207 1.43304,-0.93226 3.55804,-2.19936 4.7222,-2.81579 2.53493,-1.34224 2.40059,-1.22728 1.9993,-1.7108 -0.17878,-0.21543 -0.24643,-0.51891 -0.15033,-0.67441 0.0961,-0.1555 0.0594,-0.25001 -0.0815,-0.21003 -0.14092,0.04 -0.87292,-0.75913 -1.62667,-1.77582 -0.75374,-1.01669 -1.45408,-1.90966 -1.5563,-1.98437 -0.10223,-0.0747 -0.81874,-0.87202 -1.59225,-1.77176 -0.85347,-0.99276 -1.87637,-1.85683 -2.60183,-2.19784 -0.6575,-0.30906 -1.1259,-0.63148 -1.04089,-0.71649 0.23074,-0.23074 -6.05288,-3.38412 -8.03391,-4.03176 -2.04062,-0.66711 -7.05411,-1.60447 -8.58159,-1.60447 -0.83224,0 -1.1677,0.13687 -1.45907,0.59532 -2.65905,4.18377 -4.18637,7.14186 -3.76072,7.28374 0.16943,0.0565 0.81398,0.39091 1.43232,0.74319 0.61835,0.35228 1.65185,0.89322 2.29668,1.20209 1.63579,0.78354 6.50207,5.73532 9.7164,9.88712 1.46461,1.89177 2.82735,3.70748 3.02831,4.0349 0.44925,0.73197 0.52828,0.73415 1.32208,0.0366 z m 1.82642,-4.0715 c 0,-0.0728 0.0595,-0.13229 0.13229,-0.13229 0.0728,0 0.13229,0.0595 0.13229,0.13229 0,0.0728 -0.0595,0.13229 -0.13229,0.13229 -0.0728,0 -0.13229,-0.0595 -0.13229,-0.13229 z m -1.46043,-1.73228 c -0.57921,-0.73447 -1.57867,-1.7465 -2.22101,-2.24895 -0.64235,-0.50246 -1.03031,-0.91356 -0.86215,-0.91356 0.38873,0 3.56384,3.11135 3.98258,3.9026 0.4813,0.90948 0.25386,0.72232 -0.89942,-0.74009 z m -3.83124,-3.55938 c 0,-0.0728 0.0595,-0.1323 0.1323,-0.1323 0.0728,0 0.13229,0.0595 0.13229,0.1323 0,0.0728 -0.0595,0.13229 -0.13229,0.13229 -0.0728,0 -0.1323,-0.0595 -0.1323,-0.13229 z m 68.83756,5.6378 c 0.60738,-0.39852 0.75847,-0.84837 1.37743,-4.10104 0.85875,-4.51284 1.59407,-9.85236 1.38551,-10.06092 -0.0856,-0.0856 -0.38447,0.13538 -0.6642,0.49101 -1.44578,1.838 -5.48242,2.92201 -8.82536,2.36997 -1.94554,-0.32128 -4.27181,-1.31128 -5.34415,-2.27432 -1.87358,-1.68264 -1.62034,-1.58659 -2.79118,-1.05861 -0.63325,0.28555 -1.05894,0.6584 -1.05894,0.92749 0,1.14728 3.02217,13.18099 3.40693,13.56575 0.51838,0.51838 2.31408,0.67976 7.05667,0.63418 3.9869,-0.0383 4.88768,-0.11978 5.45729,-0.49351 z m -11.53826,-6.75087 c -0.14358,-0.37709 -0.11319,-0.40748 0.14812,-0.14812 0.18082,0.17948 0.26211,0.39297 0.18065,0.47444 -0.0815,0.0815 -0.22941,-0.0654 -0.32877,-0.32632 z m 12.02153,0.31932 c 0,-0.0728 0.0595,-0.1323 0.1323,-0.1323 0.0728,0 0.13229,0.0595 0.13229,0.1323 0,0.0728 -0.0595,0.13229 -0.13229,0.13229 -0.0728,0 -0.1323,-0.0595 -0.1323,-0.13229 z m 0.26459,-0.79375 c 0,-0.0728 0.0595,-0.1323 0.13229,-0.1323 0.0728,0 0.13229,0.0595 0.13229,0.1323 0,0.0728 -0.0595,0.13229 -0.13229,0.13229 -0.0728,0 -0.13229,-0.0595 -0.13229,-0.13229 z m -12.65823,-0.92605 c 0,-0.3638 0.0601,-0.51263 0.13346,-0.33073 0.0734,0.18191 0.0734,0.47956 0,0.66146 -0.0734,0.1819 -0.13346,0.0331 -0.13346,-0.33073 z m 12.39364,-0.13229 c 0,-0.0728 0.0595,-0.13229 0.1323,-0.13229 0.0728,0 0.13229,0.0595 0.13229,0.13229 0,0.0728 -0.0595,0.13229 -0.13229,0.13229 -0.0728,0 -0.1323,-0.0595 -0.1323,-0.13229 z m 0.57095,-0.92604 c 0,-0.3638 0.06,-0.51263 0.13345,-0.33073 0.0734,0.1819 0.0734,0.47956 0,0.66146 -0.0734,0.1819 -0.13345,0.0331 -0.13345,-0.33073 z m 40.42151,5.88698 c 0.33845,-1.41883 1.19876,-4.39099 1.9118,-6.6048 1.50235,-4.66444 1.55988,-4.16864 -0.95558,-8.23518 -1.52576,-2.46658 -5.17523,-7.52324 -5.63447,-7.80707 -0.13529,-0.0836 -0.26602,0.38049 -0.29066,1.03188 -0.12739,3.36776 -1.72332,12.56045 -2.9463,16.9709 -0.27336,0.98581 -0.47546,1.80954 -0.44911,1.83051 0.0263,0.021 0.70275,0.36658 1.50311,0.76804 2.12869,1.06772 4.30312,2.60373 5.18263,3.661 0.42377,0.50941 0.83636,0.9348 0.91686,0.9453 0.0805,0.0105 0.42327,-1.14175 0.76172,-2.56058 z m -89.01433,-3.14957 c 1.74625,-0.65173 3.27038,-1.27841 3.38695,-1.39262 0.11657,-0.1142 -0.086,-0.76798 -0.45014,-1.45284 -0.63877,-1.20137 -2.7202,-4.38339 -3.04457,-4.65445 -0.0871,-0.0728 -0.48366,-0.60854 -0.88131,-1.19062 -0.39765,-0.58209 -1.11169,-1.48954 -1.58676,-2.01657 -1.36066,-1.5095 -1.80009,-2.08482 -1.58877,-2.08011 0.26092,0.006 2.00237,1.84234 3.75917,3.96438 1.17558,1.41999 3.45759,4.72629 4.63876,6.7209 0.2444,0.4127 0.42608,0.39499 2.38125,-0.23216 1.92131,-0.61629 3.77684,-1.12296 5.75469,-1.57136 0.40018,-0.0907 0.72761,-0.31184 0.72761,-0.49137 0,-0.17953 -0.65485,-1.66303 -1.45521,-3.29668 -0.80037,-1.63364 -1.45521,-3.08191 -1.45521,-3.21837 0,-0.13646 -0.0949,-0.2878 -0.21093,-0.3363 -0.11601,-0.0485 -0.66119,-0.91307 -1.21151,-1.92124 -0.55032,-1.00818 -1.4079,-2.33013 -1.90574,-2.93767 -0.49783,-0.60754 -0.90515,-1.19916 -0.90515,-1.3147 0,-0.59431 -4.78573,-5.52027 -8.38962,-8.63548 -1.9135,-1.65402 -6.84629,-4.41943 -9.37337,-5.25487 -2.05715,-0.68009 -1.95889,-0.71247 -5.11633,1.68594 -2.80287,2.12906 -5.54661,4.75576 -8.28726,7.93375 -2.45184,2.84308 -5.61051,6.97953 -5.61051,7.34727 0,0.12687 0.38696,0.23147 0.8599,0.23243 1.34466,0.003 6.4951,0.95993 8.43721,1.56802 3.65397,1.14407 6.921,2.93048 10.13054,5.53935 1.83606,1.49245 5.98977,6.09811 6.92015,7.67313 0.33062,0.55968 0.6294,0.78517 0.89828,0.67792 0.22158,-0.0884 1.83163,-0.69395 3.57788,-1.34568 z m 80.2531,-2.67126 c 0.78224,-3.20693 1.54903,-7.19665 1.89507,-9.86032 1.20941,-9.30948 1.33366,-8.13194 -1.15107,-10.90947 -1.05135,-1.17524 -1.79588,-1.78594 -2.17733,-1.78594 -0.71563,0 -4.11825,-1.02306 -4.44848,-1.33752 -0.13943,-0.13278 -0.63614,0.11706 -1.17718,0.5921 -1.53327,1.34623 -3.08223,1.90465 -5.32849,1.92099 -2.68173,0.0195 -4.44512,-0.6491 -5.94722,-2.25497 -0.72964,-0.78004 -1.46165,-1.28873 -2.01326,-1.39905 -1.60113,-0.32023 -3.14176,-1.45657 -4.20492,-3.1015 -1.86726,-2.88901 -2.04764,-5.63202 -0.56004,-8.51642 0.77671,-1.50601 0.80808,-1.66156 0.39584,-1.963 -1.07246,-0.78421 -6.00931,-1.98762 -15.18706,-3.70201 -3.94816,-0.73751 -14.91094,-0.6668 -20.30617,0.13098 -4.99299,0.7383 -5.09462,0.77187 -4.26618,1.40895 0.37097,0.28528 0.47909,0.48501 0.26443,0.48848 -0.28606,0.005 -0.29599,0.0868 -0.0468,0.38703 0.17398,0.20964 0.51598,0.31747 0.76,0.23963 0.32729,-0.1044 0.35364,-0.0768 0.10042,0.10523 -0.27519,0.19782 -0.25921,0.31649 0.0806,0.59851 0.23311,0.19346 0.54504,0.57822 0.69317,0.855 0.14813,0.27679 -0.54298,-0.34139 -1.5358,-1.37372 l -1.80513,-1.87696 -3.51487,0.93535 c -5.71221,1.5201 -10.84772,3.54561 -16.99034,6.70123 -2.62505,1.34855 -6.61458,3.79674 -6.61458,4.05906 0,0.0998 0.38695,0.26223 0.8599,0.36103 1.34683,0.28136 5.28941,2.11847 7.26609,3.38575 4.52081,2.89835 9.35143,7.80748 12.98853,13.19961 0.75629,1.12121 1.37506,2.10584 1.37506,2.18807 0,0.0822 0.29196,0.61199 0.6488,1.17726 0.35684,0.56528 1.38486,2.49768 2.28448,4.29423 0.89962,1.79655 1.66185,3.29868 1.69384,3.33808 0.032,0.0394 0.67653,-0.061 1.43231,-0.22307 l 1.37414,-0.2947 -0.6359,-0.83526 c -1.8558,-2.43763 -2.67347,-5.44961 -2.50032,-9.21028 0.10401,-2.25924 0.22925,-2.7893 1.08453,-4.59028 0.53182,-1.11986 0.88928,-2.16176 0.79436,-2.31535 -0.0962,-0.15564 -0.0474,-0.2019 0.11015,-0.1045 0.1555,0.0961 0.97757,-0.51668 1.82682,-1.36173 1.89149,-1.88215 3.44496,-2.96328 5.50795,-3.83325 0.86572,-0.36507 1.62353,-0.81226 1.68402,-0.99376 0.0605,-0.18149 -0.36785,-1.29521 -0.95189,-2.47493 -1.33259,-2.69173 -1.96781,-4.16757 -1.84613,-4.28925 0.0519,-0.0519 0.86071,1.45317 1.79728,3.34466 l 1.70285,3.43908 0.90193,-0.0708 c 0.84802,-0.0665 0.94527,-0.17799 1.6269,-1.86465 1.93146,-4.77926 5.6386,-8.09087 10.4252,-9.31289 0.86732,-0.22143 2.13732,-0.40259 2.82222,-0.40259 0.74826,0 1.29884,-0.132 1.37948,-0.33073 0.0954,-0.23522 0.19732,-0.24673 0.35278,-0.0399 0.12021,0.15998 1.05201,0.55675 2.07066,0.88171 4.27901,1.36506 8.10569,4.74806 9.81894,8.68049 0.36518,0.83821 0.74609,1.68057 0.84647,1.87192 0.10038,0.19134 0.95641,0.65331 1.9023,1.02658 2.31589,0.91392 4.29778,2.47574 5.49327,4.32893 0.75726,1.17387 1.27307,1.65899 2.20118,2.07021 1.47696,0.6544 3.2229,2.48874 3.7028,3.8903 0.44007,1.28522 0.41959,4.06644 -0.0383,5.20788 -0.18873,0.4704 -0.60823,1.179 -0.93224,1.57467 -0.324,0.39566 -0.79495,1.34816 -1.04655,2.11666 -0.2516,0.7685 -0.74665,1.97466 -1.10011,2.68036 -0.35347,0.70569 -0.60489,1.30731 -0.55873,1.33694 0.20846,0.13378 5.42554,1.31508 5.83862,1.32203 0.25466,0.004 0.46302,0.10135 0.46302,0.21568 0,0.11434 0.20836,0.21305 0.46302,0.21934 0.25466,0.006 1.83224,0.52743 3.50573,1.15805 1.67349,0.63063 3.23229,1.16125 3.46399,1.17917 0.31729,0.0245 0.56068,-0.53889 0.98599,-2.28252 z m -13.9332,-20.70365 c 0,-0.3638 0.06,-0.51263 0.13345,-0.33073 0.0734,0.1819 0.0734,0.47956 0,0.66146 -0.0734,0.1819 -0.13345,0.0331 -0.13345,-0.33073 z m -45.44308,-13.27004 c -0.11697,-0.18926 -0.0726,-0.23365 0.11667,-0.11668 0.305,0.1885 0.40949,0.42214 0.18879,0.42214 -0.0642,0 -0.20163,-0.13746 -0.30546,-0.30546 z m -1.42994,-1.41433 c 0,-0.0728 0.0595,-0.13229 0.13229,-0.13229 0.0728,0 0.13229,0.0595 0.13229,0.13229 0,0.0728 -0.0595,0.13229 -0.13229,0.13229 -0.0728,0 -0.13229,-0.0595 -0.13229,-0.13229 z m 0.52916,0 c 0,-0.0728 0.0595,-0.13229 0.13229,-0.13229 0.0728,0 0.1323,0.0595 0.1323,0.13229 0,0.0728 -0.0595,0.13229 -0.1323,0.13229 -0.0728,0 -0.13229,-0.0595 -0.13229,-0.13229 z m -1.26574,-0.93281 c -0.23273,-0.37266 -0.24047,-0.5224 -0.027,-0.5224 0.20412,0 0.18872,-0.14717 -0.0485,-0.46302 -0.20153,-0.26839 -0.0915,-0.22508 0.26171,0.10302 0.43612,0.4051 0.54266,0.68529 0.3747,0.98542 -0.20698,0.36984 -0.27323,0.35767 -0.56094,-0.10302 z m 0.3838,-0.43421 c -0.097,-0.097 -0.17639,-0.0176 -0.17639,0.17639 0,0.19403 0.0794,0.27341 0.17639,0.17639 0.097,-0.097 0.097,-0.25576 0,-0.35278 z m 0.61736,0.83785 c 0,-0.0728 0.0595,-0.13229 0.13229,-0.13229 0.0728,0 0.13229,0.0595 0.13229,0.13229 0,0.0728 -0.0595,0.13229 -0.13229,0.13229 -0.0728,0 -0.13229,-0.0595 -0.13229,-0.13229 z m -1.5875,-2.11667 c 0,-0.0728 0.0595,-0.13229 0.13229,-0.13229 0.0728,0 0.13229,0.0595 0.13229,0.13229 0,0.0728 -0.0595,0.1323 -0.13229,0.1323 -0.0728,0 -0.13229,-0.0595 -0.13229,-0.1323 z m 24.07708,-0.92604 c 0,-0.19403 0.0794,-0.2734 0.17639,-0.17639 0.097,0.097 0.097,0.25577 0,0.35278 -0.097,0.097 -0.17639,0.0176 -0.17639,-0.17639 z m 12.34722,35.80695 c -0.097,-0.097 -0.25576,-0.097 -0.35278,0 -0.097,0.097 -0.0176,0.17638 0.17639,0.17638 0.19403,0 0.27341,-0.0794 0.17639,-0.17638 z m -30.32629,-1.42478 c 4.47947,-2.16494 7.12851,-3.54696 7.12987,-3.71973 7.1e-4,-0.0888 -0.31284,-0.62439 -0.69676,-1.19014 -1.18106,-1.74038 -2.6747,-4.91597 -3.11563,-6.62403 -0.23081,-0.89413 -0.41966,-2.60565 -0.41966,-3.80339 v -2.17769 l -0.85989,0.16956 c -2.43095,0.47935 -6.10015,3.34366 -7.3991,5.77599 -0.53956,1.01036 -0.60323,1.48758 -0.5923,4.43934 0.0141,3.80529 0.48909,5.44948 2.12715,7.36319 0.5195,0.60691 0.9707,1.10348 1.00267,1.10348 0.032,0 1.30261,-0.60146 2.82365,-1.33658 z m 38.32959,0.007 c 0.31456,-0.73122 0.70069,-1.97067 0.85808,-2.75434 0.24212,-1.20562 0.43393,-1.52011 1.24659,-2.04395 2.78841,-1.7974 2.31959,-6.00773 -0.76135,-6.83734 -1.16354,-0.31331 -2.34444,-0.0143 -3.72656,0.94348 -1.09955,0.76199 -1.90336,0.76867 -2.04811,0.017 -0.0614,-0.31881 0.37519,-0.92985 1.25373,-1.75466 0.74136,-0.69603 1.34793,-1.34041 1.34793,-1.43195 0,-0.0915 -0.49984,-0.7087 -1.11075,-1.37146 -1.03118,-1.1187 -2.23562,-1.95815 -2.80953,-1.95815 -0.13548,0 -0.18607,0.78776 -0.1147,1.78594 0.25505,3.56714 -0.92631,7.94279 -2.95959,10.96203 -0.51041,0.75792 -0.86747,1.43859 -0.79347,1.5126 0.34954,0.34954 8.23745,4.2404 8.61536,4.24968 0.26916,0.007 0.64472,-0.48754 1.00237,-1.31891 z m -15.8526,-0.35217 c 0.49159,-0.22771 0.68088,-0.54373 0.73711,-1.2306 0.11772,-1.43825 0.53757,-2.18069 1.72168,-3.04456 2.18522,-1.59425 3.89596,-6.30361 3.88474,-10.69403 -0.008,-3.15245 -0.27658,-4.34828 -1.58606,-7.0633 -0.82629,-1.71319 -1.41957,-2.50457 -2.91696,-3.89092 -2.50425,-2.31856 -4.03538,-2.9126 -7.13218,-2.76712 -6.43477,0.30228 -10.41691,5.40422 -10.38598,13.30657 0.0128,3.27075 0.59311,5.25215 2.39106,8.16404 0.89205,1.44472 1.80253,2.49674 2.98554,3.44968 1.37135,1.10464 1.71827,1.53717 1.78538,2.22598 0.10454,1.07296 0.90147,1.62441 2.75811,1.90851 1.68333,0.25757 4.84725,0.0574 5.75756,-0.36425 z m -6.0841,-5.12976 c -1.74184,-0.61461 -3.99194,-2.96615 -4.75031,-4.96449 -1.18823,-3.13103 -0.96165,-7.55332 0.53755,-10.49201 2.36087,-4.62768 7.30889,-5.52194 10.9311,-1.97559 1.73581,1.69947 2.66749,3.65072 3.07499,6.44005 0.55195,3.77804 -0.37962,7.24723 -2.46401,9.17603 -2.28118,2.11091 -4.75583,2.72406 -7.32932,1.81601 z m 3.91442,-1.23323 c 1.91057,-0.99407 2.90956,-3.09033 3.13928,-6.58741 0.13924,-2.11972 0.0767,-2.77515 -0.42116,-4.41425 -0.78997,-2.60079 -2.26812,-4.22745 -4.02104,-4.42503 -3.7575,-0.42353 -6.08001,4.33204 -4.89319,10.01929 0.23254,1.11434 0.53512,2.32151 0.6724,2.68259 0.32973,0.86726 1.8349,2.56555 2.51955,2.84283 0.84884,0.34378 2.22014,0.28991 3.00416,-0.11802 z m -42.80949,-8.74078 c 0,-0.0642 -0.13746,-0.20163 -0.30546,-0.30546 -0.18926,-0.11697 -0.23364,-0.0726 -0.11668,0.11668 0.1885,0.305 0.42214,0.40948 0.42214,0.18878 z m 68.60412,-5.36896 c 0.46695,-0.27199 1.12582,-0.99446 1.46414,-1.60549 0.55739,-1.00666 0.71098,-1.11095 1.63607,-1.11095 0.67287,0 1.45538,0.26959 2.29528,0.79078 1.746,1.08345 3.35948,1.27557 4.91903,0.58571 1.67663,-0.74166 2.12641,-1.68083 2.00036,-4.17692 -0.0821,-1.62559 -0.22147,-2.10415 -0.88684,-3.04494 -1.04725,-1.48073 -1.92985,-2.10026 -3.243,-2.27639 -2.37915,-0.31911 -4.38646,0.72106 -4.70896,2.44015 -0.17329,0.92373 -1.16718,1.59464 -1.3867,0.93607 -0.0583,-0.17481 -0.59932,-1.05381 -1.20233,-1.95334 -2.64326,-3.94302 -7.62966,-5.5023 -10.97722,-3.43267 -3.21708,1.98897 -3.60136,7.01237 -0.70542,9.22121 0.75318,0.57448 1.34606,0.77445 2.5555,0.86193 1.47799,0.10691 1.58393,0.15957 1.72333,0.85659 0.18299,0.91494 0.95701,1.77377 2.04446,2.26847 1.05996,0.48221 3.34157,0.29844 4.4723,-0.36021 z m -67.45759,170.938411 c 0.097,-0.09701 0.25576,-0.09701 0.35278,0 0.097,0.09701 0.0176,0.176389 -0.17639,0.176389 -0.19403,0 -0.2734,-0.07937 -0.17639,-0.176389 z m 113.41805,-25.620485 c 0,-0.07276 0.0595,-0.132292 0.13229,-0.132292 0.0728,0 0.13229,0.05953 0.13229,0.132292 0,0.07276 -0.0595,0.132292 -0.13229,0.132292 -0.0728,0 -0.13229,-0.05953 -0.13229,-0.132292 z m 0.52917,-0.264583 c 0,-0.07276 0.0595,-0.132292 0.13229,-0.132292 0.0728,0 0.13229,0.05953 0.13229,0.132292 0,0.07276 -0.0595,0.132291 -0.13229,0.132291 -0.0728,0 -0.13229,-0.05953 -0.13229,-0.132291 z m -0.52917,-0.529167 c 0,-0.07276 0.0595,-0.132292 0.13229,-0.132292 0.0728,0 0.13229,0.05953 0.13229,0.132292 0,0.07276 -0.0595,0.132292 -0.13229,0.132292 -0.0728,0 -0.13229,-0.05953 -0.13229,-0.132292 z m -0.79375,-0.79375 c 0,-0.07276 0.0595,-0.132292 0.13229,-0.132292 0.0728,0 0.13229,0.05953 0.13229,0.132292 0,0.07276 -0.0595,0.132292 -0.13229,0.132292 -0.0728,0 -0.13229,-0.05953 -0.13229,-0.132292 z"
       id="path130" /></g></svg>
