<?xml version="1.0" encoding="UTF-8" standalone="no"?>
<!-- Created with Inkscape (http://www.inkscape.org/) -->

<svg
   width="222.05069mm"
   height="302.25421mm"
   viewBox="0 0 222.05071 302.25417"
   version="1.1"
   id="svg1"
   xml:space="preserve"
   xmlns="http://www.w3.org/2000/svg"
   xmlns:svg="http://www.w3.org/2000/svg"><defs
     id="defs1"><clipPath
       clipPathUnits="userSpaceOnUse"
       id="clipPath6"><path
         id="path7"
         style="fill:#ff0000;fill-opacity:1;fill-rule:nonzero;stroke:none;stroke-width:0.264583"
         d="M -175.07778,-16.057127 V 287.55793 H 124.54631 V -16.057127 Z m 132.7459,202.572647 c 0.210643,0.005 0.427212,0.0169 0.650089,0.0367 2.23823,0.19855 4.475655,0.4031 6.717938,0.55346 1.973313,0.11308 0.986628,0.0436 2.958475,0.20825 3.181295,0.26563 4.740125,1.85116 4.950601,3.46956 4.949923,1.63749 3.796379,7.35609 -2.592089,6.81354 -3.228716,-0.27422 -1.569593,-0.1301 -4.979024,-0.43357 -4.228209,-0.39317 -8.460616,-0.76265 -12.666927,-1.35341 -6.647387,-0.93358 -5.930551,-7.21034 0.03204,-7.20421 0.04685,5e-5 0.0972,0.004 0.144695,0.005 0.687229,-1.21692 2.304132,-2.15435 4.784204,-2.09548 z" /></clipPath><clipPath
       clipPathUnits="userSpaceOnUse"
       id="clipPath76"><path
         id="path77"
         style="fill:#ff0000;fill-opacity:1;fill-rule:nonzero;stroke:none;stroke-width:0.264583"
         d="M -133.83107,-122.52355 V 173.82063 H 122.97289 V -122.52355 Z M 13.574404,98.948202 c 2.788179,0.0507 4.135003,2.063798 3.398242,4.077268 0.199805,0.45372 0.374906,0.96736 0.517797,1.54461 1.07913,4.35948 0.671079,8.891 0.311608,13.31495 -0.351859,3.06036 -0.147137,1.57974 -0.604097,4.44366 -0.359666,2.25418 -1.333846,3.66838 -2.455664,4.32532 0.105138,0.36595 0.224724,0.72888 0.324528,1.09554 0.6273,2.23652 0.575201,4.47401 0.39429,6.75514 -0.137303,1.73129 -0.688065,2.99533 -1.427303,3.82199 -0.112477,0.41601 -0.170275,0.80219 -0.311092,1.25212 -0.184975,0.59102 -0.413327,1.1061 -0.670242,1.55856 0.741137,-0.23134 1.446982,-0.38145 2.064991,-0.37517 4.085002,0.0415 5.222724,4.75435 -0.02223,7.27138 -4.46677,2.14368 -9.303523,3.34693 -14.11903492,4.40955 -4.40876268,0.85156 -8.89238128,1.33053 -13.38264308,1.19269 -5.804014,-0.17807 -6.736297,-5.00293 -3.065447,-6.67298 -2.072987,-0.65744 -4.042852,-1.62261 -4.128947,-3.14709 -0.02802,-0.49633 0.0026,-0.90355 0.0341,-1.30897 -1.976731,-0.003 -3.95339,2.4e-4 -5.930386,0.003 -0.814031,0 -1.53062,-0.0962 -2.159559,-0.26149 -0.376306,0.19492 -0.742394,0.40783 -1.120862,0.59893 -6.391272,3.22657 -9.625245,-3.24074 -3.234428,-6.46886 1.833438,-0.92611 3.62694,-1.92211 5.414142,-2.92954 -0.877003,-3.87058 -1.368747,-7.83436 -1.323951,-11.80858 0.01651,-1.46304 0.376836,-2.54918 0.864547,-3.41426 -1.247357,-1.79999 -0.223805,-4.63069 3.842661,-5.68855 3.11826,-0.81116 6.282901,-1.39515 9.473837,-1.82211 -1.259816,-0.12657 -2.516182,-0.30233 -3.764627,-0.50177 -1.477002,-0.21985 -2.935575,-0.54305 -4.407482,-0.7891 -1.14214,-0.22954 -0.588502,-0.12004 -1.660882,-0.3297 -3.350244,-0.65501 -4.783278,-2.61088 -4.608504,-4.32997 -0.200179,-1.7721 1.333365,-3.52972 4.663799,-3.59461 v -5.3e-4 c 0.20954,-0.004 0.426035,-0.002 0.649571,0.008 1.77111,0.0772 3.528708,0.28204 5.26428,0.64027 1.655035,0.33225 3.314115,0.6481 4.955251,1.04439 1.244759,0.34858 2.51628,0.54538 3.7997689,0.6723 0.025956,0.002 0.052073,0.002 0.078034,0.004 0.4990888,-0.0371 0.9984105,-0.0743 1.4965495,-0.11317 1.346872,-0.12588 2.6913231,-0.25136 4.0457464,-0.24236 1.1278499,-0.0444 2.2567291,-0.10772 3.37498791,-0.26872 0.75719517,-0.11591 1.51142439,-0.25483 2.25722659,-0.4284 0.3616431,-0.12394 0.7240561,-0.24538 1.083138,-0.37775 0.3360393,-0.12388 0.6107589,-0.12825 0.9250071,-0.20723 0.1281086,-0.045 0.2583895,-0.0825 0.3855085,-0.13074 1.9825018,-0.7681 3.9540551,-1.56464 5.9510551,-2.29443 1.050809,-0.383992 1.999634,-0.542639 2.826703,-0.527616 z M 0.70283723,110.39557 c -0.45566013,0.0949 -0.90775367,0.208 -1.36890919,0.2744 -1.16638124,0.15534 -2.34111274,0.24237 -3.51761424,0.26251 0.4031694,0.0896 0.8047355,0.18876 1.2025101,0.308 0.1014836,0.0304 0.1982549,0.075 0.2986907,0.10852 0.4205235,-0.21824 0.9206601,-0.35072 1.4898318,-0.37156 0.39885139,-0.0146 0.83259872,0.0278 1.29449508,0.13023 0.22468681,-0.12213 0.44967525,-0.24374 0.67437529,-0.36587 -0.0326284,-0.11319 -0.058211,-0.22834 -0.0733795,-0.34623 z m 10.24433577,1.02474 c -0.76023,0.21437 -1.5189569,0.4343 -2.2696301,0.68006 -0.031261,0.62207 -0.2256075,1.28373 -0.6464723,1.94355 0.6236891,0.43248 1.2549743,1.04482 1.8634525,1.86862 0.2674939,0.36214 0.4748849,0.75712 0.7188199,1.13223 0.154519,-1.86707 0.314174,-3.74736 0.33383,-5.62446 z m 64.566086,3.39773 c 1.50346,0.0187 3.129182,1.24994 3.928441,4.04678 0.257931,0.90255 0.823497,1.65871 1.488797,2.30735 0.856321,0.95375 1.845738,1.76777 2.801898,2.61638 1.458581,1.46408 2.789203,3.04608 4.169772,4.58215 1.315059,1.44746 2.571226,2.91698 3.543967,4.61884 0.0053,0.01 0.0082,0.0206 0.01344,0.0305 0.734605,-0.43313 1.446276,-0.65634 2.094962,-0.69195 3.016182,-0.16561 4.69137,3.55377 1.187525,7.32306 -1.69471,1.82311 -3.657862,3.33908 -5.68751,4.7651 -0.777873,0.49914 -1.607691,0.90075 -2.418456,1.33842 0.165478,1.44344 -0.672182,3.24303 -2.956409,4.73096 -1.354556,0.88234 -2.690448,1.79306 -4.075203,2.6288 -2.075008,1.20078 -4.233777,2.27962 -6.540687,2.96259 -2.077586,0.62971 -4.169056,1.29987 -6.359301,1.36374 -1.872114,0.0897 -3.746989,0.0368 -5.620845,0.0501 h -5.1108 -5.524728 c -7.160125,0 -7.160125,-7.23315 0,-7.23315 h 1.347722 c 0.29438,-0.0541 0.5212,-0.1588 0.84801,-0.18656 1.106628,-0.094 2.200932,-0.28334 3.292822,-0.48421 0.456121,-0.98163 1.356053,-1.98213 2.807581,-2.83962 1.078018,-0.63685 2.158119,-1.26923 3.212209,-1.94561 1.962647,-1.29302 3.840588,-2.72135 5.893696,-3.86902 1.367169,-0.76424 2.559646,-1.07097 3.526915,-1.04128 2.216811,0.068 3.246223,1.90266 2.479953,4.04059 1.105688,-0.48686 2.206929,-0.98346 3.283003,-1.53739 2.619811,-1.23728 5.288743,-2.38548 7.764385,-3.9026 0.246153,-0.17184 0.487463,-0.34958 0.730705,-0.52503 -0.126915,-0.50614 -0.277693,-0.9939 -0.512114,-1.46554 -0.647621,-1.25778 -1.721077,-2.20654 -2.600875,-3.29644 -1.199229,-1.33472 -2.369312,-2.69496 -3.592029,-4.00803 -1.098706,-0.97599 -2.227236,-1.92181 -3.215306,-3.01428 -1.300821,-1.39063 -2.459913,-2.93896 -3.045293,-4.77801 -1.289469,-4.05101 0.646382,-6.61405 2.843754,-6.58667 z m -95.086705,4.28035 c -0.465643,0.10748 -0.930899,0.21773 -1.394745,0.33435 0.171958,0.64334 0.283575,1.36624 0.279569,2.2071 -0.01267,2.6582 0.205063,5.32647 0.670242,7.94732 0.280107,-0.17087 0.565767,-0.33222 0.845429,-0.50385 -0.01897,-0.36223 -0.02445,-0.73164 -0.05529,-1.08985 -0.118034,-2.96491 -0.160888,-5.93314 -0.3452,-8.89507 z m 18.5141159,1.1958 c 0.00497,0.0773 0.00619,0.15612 0.014975,0.23202 -0.1238779,0.22787 -0.2588048,0.44752 -0.3937741,0.66715 0.58900751,0.0447 1.13203305,0.21413 1.64331124,0.45888 -0.37615284,-0.49255 -0.78353709,-0.94642 -1.26452314,-1.35805 z m -6.5422357,14.57068 c -0.046649,0.0755 -0.09888,0.14702 -0.1436608,0.22376 -0.03147,0.054 0.1963367,0.0838 0.1860365,0.0222 -0.017595,-0.10481 -0.026035,-0.14905 -0.042376,-0.24597 z m 13.9236979,6.08439 c -0.2236258,0.5643 -0.5677508,1.09664 -1.1782213,1.50533 0.9079653,0.17659 1.7077452,0.44257 2.2830631,0.84852 0.1405493,-0.0459 0.272804,-0.11448 0.4128956,-0.16174 -0.7336976,-0.43656 -1.2984269,-1.18703 -1.5177374,-2.19211 z" /></clipPath><clipPath
       clipPathUnits="userSpaceOnUse"
       id="clipPath127"><path
         id="path128"
         style="fill:#ff0000;fill-opacity:1;fill-rule:nonzero;stroke:none;stroke-width:0.264583"
         d="M -112.24796,-126.55676 V 185.58027 H 148.5754 V -126.55676 Z M 46.874626,83.305366 c 1.808208,0 3.616317,1.790192 3.616317,5.370214 v 5.232238 c 0.0627,2.146078 -0.111291,4.285324 -0.245462,6.424932 -0.136289,2.02485 -0.190703,4.04985 -0.104904,6.07715 0.192061,1.91863 0.527714,3.82569 0.876432,5.72213 0.304242,2.00862 0.765826,3.9858 1.180806,5.97276 0.41642,1.86142 0.967934,3.68703 1.421104,5.53972 0.25287,0.86996 0.117097,0.46495 0.396356,1.22008 0.186108,0.50319 0.223428,0.93098 0.309544,1.38441 4.425355,2.23251 2.751262,7.58433 -3.415813,6.40477 -3.104732,-0.59371 -6.256094,-0.76586 -9.40821,-0.85576 -3.81635,0.009 -7.630525,0.17062 -11.44478,0.28216 -1.12776,0.0333 -2.255837,0.0512 -3.383772,0.0754 -0.908129,0.5548 -1.966518,0.57724 -2.88613,0.0641 -0.03584,5.3e-4 -0.07165,0.002 -0.107487,0.003 -0.03142,5.3e-4 -0.0525,-0.009 -0.08268,-0.009 -0.32049,0.14732 -0.641715,0.29301 -0.962215,0.44028 -0.262501,0.12062 -0.518089,0.22111 -0.770496,0.31265 -0.876996,0.71434 -1.945576,0.85817 -2.911967,0.46405 -2.943479,-0.21613 -4.295167,-2.77187 -2.550232,-5.0524 -2.22e-4,-0.028 -0.0078,-0.0483 -0.0078,-0.0765 v -6.3469 c -0.014,-2.72977 -0.02254,-5.45666 0.112657,-8.18348 0.135676,-2.32533 0.233519,-4.6523 0.299723,-6.98046 0.046,-1.80459 0.06926,-3.60958 0.08527,-5.41465 -0.0258,-1.02998 0.04009,-2.054459 0.138491,-3.078883 0.0044,-0.04602 0.02191,-0.07504 0.02687,-0.120406 C 15.992671,97.193438 15.83363,95.70984 16.656834,94.418959 10.68718,93.678613 10.992573,87.32947 17.739972,87.32947 h 3.885033 5.177462 5.913334 c 1.498505,0.05847 2.984222,-0.03228 4.475178,-0.161748 1.252041,-0.18606 2.49041,-0.398671 3.697968,-0.782897 1.001961,-0.32245 0.492366,-0.161472 1.527553,-0.482142 0.510384,-0.158096 0.938446,-0.174371 1.394749,-0.23771 0.672338,-1.56932 1.86623,-2.35903 3.063377,-2.35903 z" /></clipPath></defs><g
     id="layer1"
     transform="translate(114.86578,327.40652)"><path
       style="fill:#000000"
       d="m -26.9397,-25.375023 c -3.99508,-0.832019 -5.90898,-1.684704 -7.97895,-3.554791 -2.71726,-2.454886 -3.84404,-6.122708 -2.99193,-9.739156 0.41026,-1.741175 0.41071,-2.337708 0.003,-3.880555 -0.78997,-2.988804 -1.22415,-9.771884 -1.1879,-18.558294 l 0.0341,-8.268527 -1.09139,-0.564379 c -1.66581,-0.86142 -4.12471,-3.408578 -4.96385,-5.142012 -0.41364,-0.854482 -0.91719,-2.666054 -1.119,-4.025717 -0.24913,-1.67856 -0.49503,-2.393784 -0.76602,-2.228099 -0.2195,0.134208 -1.06833,0.753484 -1.88628,1.37617 -2.56366,1.951667 -5.10054,2.695497 -8.56699,2.511903 -1.92452,-0.101928 -3.72957,-0.440673 -5.03928,-0.945696 -2.84404,-1.096658 -5.90906,-4.005659 -7.38989,-7.013717 -1.09511,-2.224538 -1.15519,-2.553797 -1.2012,-6.582367 -0.044,-3.853845 -0.13877,-4.433784 -1.03874,-6.357361 -1.32597,-2.834089 -1.32181,-6.158389 0.015,-11.994439 1.15203,-5.0294 3.89308,-13.6372 5.8045,-18.22804 l 1.3704,-3.29141 -5.16803,-1.26637 c -5.93637,-1.45466 -7.8354,-2.21155 -9.73641,-3.88066 -1.99047,-1.74766 -2.41334,-3.03576 -2.64112,-8.04508 l -0.19883,-4.37267 -5.29166,-1.65199 c -11.70581,-3.6544 -19.64047,-7.24187 -22.7183,-10.27153 -4.36863,-4.30026 -5.05687,-8.35292 -3.23638,-19.05715 2.00548,-11.79201 5.02853,-22.98523 16.66318,-61.69759 9.27338,-30.85562 10.13839,-33.6036 11.79928,-37.48402 5.32099,-12.4317 16.06824,-24.67862 28.53666,-32.51867 12.53725,-7.88333 27.54361,-13.12902 42.50972,-14.85989 6.0957498,-0.70498 18.5931798,-0.53618 23.9888798,0.32403 11.5902802,1.84776 20.3449402,4.57402 30.1625002,9.3928 15.93148,7.81969 29.34707,20.0717 35.92864,32.81242 3.22483,6.24267 3.84139,8.12497 16.58198,50.62361 9.76583,32.57576 14.12288,50.0872 14.87791,59.79583 0.27853,3.58162 -0.41268,7.41394 -1.74827,9.69294 -1.46697,2.5032 -4.53601,4.99803 -8.45479,6.87293 -4.52597,2.16539 -10.92656,4.5554 -17.00817,6.35092 -2.61682,0.77258 -4.9088,1.49798 -5.09328,1.61199 -0.18447,0.11401 -0.33541,2.14867 -0.33541,4.52145 0,3.77387 -0.0994,4.51064 -0.79375,5.88313 -1.51509,2.99483 -5.06613,4.73203 -12.96198,6.3411 -2.03217,0.41413 -3.73728,0.79539 -3.78913,0.84725 -0.0519,0.0519 0.54154,1.65695 1.31866,3.56687 1.89572,4.65909 4.01257,11.23564 5.37069,16.68543 1.49013,5.97957 1.60031,10.96228 0.30182,13.649586 -0.74041,1.532317 -0.85692,2.296504 -0.88748,5.820833 -0.0469,5.409158 -0.78959,7.356395 -4.04879,10.615595 -3.15546,3.15546 -5.24807,3.987169 -10.08643,4.008864 -4.01409,0.018 -5.93886,-0.542409 -8.45224,-2.460913 l -1.52824,-1.166529 -0.24325,1.998019 c -0.13379,1.09891 -0.53309,2.660906 -0.88735,3.471102 -0.81868,1.872352 -3.15168,4.412246 -5.10351,5.556097 l -1.51329,0.886847 -0.19674,11.740596 c -0.12526,7.475133 -0.35516,12.381433 -0.63281,13.504485 -0.47389,1.916853 -0.48882,2.70718 -0.13667,7.231944 0.28103,3.611002 -0.15186,4.890817 -2.50531,7.406852 -2.57788,2.75596 -7.05249,4.217055 -12.95039,4.228689 -7.4370502,0.01467 -13.0377602,-2.982976 -14.34105021,-7.675701 -0.5276,-1.899749 -0.45157,-4.842893 0.16312,-6.314062 0.43105001,-1.03164 0.45415001,-1.514785 0.12174,-2.546307 -0.25941,-0.805017 -0.4662,-5.255188 -0.56244,-12.103949 l -0.1522,-10.830868 -1.46884999,-0.216372 c -0.80786,-0.119005 -2.50072,-0.166364 -3.7619,-0.105243 l -2.29306,0.11113 -0.0789,9.877777 c -0.0434,5.432777 -0.25776,10.859212 -0.47641,12.058743 -0.33227,1.82289 -0.29927,2.572809 0.201,4.567607 1.61706,6.447858 -2.4217898,11.595471 -10.0526698,12.812367 -2.2266,0.355076 -7.56827,0.439524 -8.99583,0.142218 z m 11.28889,-5.810521 c 4.82142,-2.427397 4.31453,-7.265637 -1.04855,-10.008418 -1.96994,-1.007467 -2.29521,-1.061997 -6.33484,-1.061997 -3.72422,0 -4.4902,0.10484 -6.10742,0.835924 -2.13509,0.965195 -4.14558,3.014541 -4.48833,4.575077 -0.34048,1.550183 0.82104,3.984914 2.35261,4.931478 2.24045,1.384676 4.69098,1.83031 9.45291,1.719032 3.88982,-0.0909 4.61769,-0.207748 6.17362,-0.991096 z m 37.74721,-0.134305 c 5.29158,-2.645788 4.79161,-7.428245 -1.05833,-10.123446 -1.51718,-0.699001 -2.33131,-0.812664 -5.82083,-0.812664 -3.50945,0 -4.3058,0.112511 -5.9009302,0.83371 -1.01419,0.45854 -2.48263,1.526555 -3.2632,2.373367 -1.22994,1.334327 -1.4192,1.756921 -1.4192,3.168777 0,1.883312 0.81711,3.253654 2.59545,4.35273 1.82791,1.129715 3.5827202,1.4107 8.3406602,1.335529 4.12315,-0.06514 4.54727,-0.138446 6.52638,-1.128003 z m -50.00624,-15.039548 1.85208,-0.418559 v -2.942473 -2.942474 l -2.73403,-0.0039 c -1.50371,-0.0021 -3.35213,-0.105982 -4.1076,-0.230769 l -1.37359,-0.226887 0.17448,4.236322 c 0.096,2.329977 0.2781,4.404002 0.40476,4.608945 0.14728,0.238294 0.89749,0.0059 2.08106,-0.64452 1.01791,-0.559429 2.68419,-1.205495 3.70284,-1.435703 z m 15.81583,-5.825899 c -0.13306,-0.346766 -0.95946,-0.477607 -3.01657,-0.477607 h -2.83329 v 3.127731 3.127731 l 2.03387,0.741587 c 1.11863,0.407872 2.34894,0.972878 2.73403,1.255568 0.68341,0.501691 0.70691,0.420593 0.9827,-3.391711 0.15539,-2.14813 0.20006,-4.120615 0.0993,-4.383299 z m 22.35912,2.609198 0.0132,-3.086805 h -2.8222202 -2.82222 v 4.174537 c 0,2.295995 0.0837,4.258237 0.186,4.360537 0.1023,0.102299 1.36634,-0.38718 2.80898,-1.087732 l 2.6229802,-1.273731 z m 15.65119,5.115278 c 0.0865,-0.145521 0.27202,-2.050521 0.41215,-4.233333 l 0.25479,-3.96875 h -4.0955 -4.0955 v 2.99189 c 0,2.976714 0.005,2.992977 0.97014,3.206307 1.94455,0.429781 4.23243,1.244006 4.88638,1.738997 0.74157,0.56131 1.42652,0.670115 1.66754,0.264889 z m -46.75632,-5.295568 0.10246,-2.906515 h -1.24899 -1.24899 v 2.796355 c 0,2.365147 0.0952,2.821801 0.61737,2.961371 1.5248,0.407568 1.67157,0.17223 1.77815,-2.851211 z m 36.41004,0.0921 v -2.998611 h -1.23473 -1.23472 v 2.998611 2.998611 h 1.23472 1.23473 z m -27.86945,-11.407809 v -3.841737 l -3.79236,-0.236966 c -5.01582,-0.313414 -11.56715,-1.148436 -15.16777,-1.933262 -1.59982,-0.34871 -2.98888,-0.553894 -3.08681,-0.455964 -0.0979,0.09793 -0.17805,2.363551 -0.17805,5.034714 v 4.85666 l 0.97013,0.137054 c 0.53358,0.07538 5.53421,0.169496 11.1125,0.209146 l 10.14236,0.07209 z m 38.7273,-1.421942 c 0.0867,-4.4788 0.0339,-5.043988 -0.45392,-4.856796 -1.59219,0.610979 -16.8221602,2.330215 -20.7226802,2.33928 -0.54804,0.0013 -0.61736,0.410756 -0.61736,3.646805 0,2.004954 0.10811,3.753488 0.24026,3.885633 0.13214,0.132144 5.01371,0.19829 10.8479102,0.146991 l 10.60766,-0.09327 z m -35.4010802,-9.581326 c -0.13436,-1.363523 -0.34854,-2.990711 -0.47596,-3.615972 l -0.23168,-1.136838 -4.0206598,-0.251991 c -2.21137,-0.138595 -4.24332,-0.33743 -4.51545,-0.441856 -0.57336,-0.22002 -0.44522,0.87735 0.57534,4.92718 0.59833,2.374278 0.66907,2.477851 1.83572,2.687588 0.66738,0.119979 2.53272,0.239041 4.1452,0.264583 l 2.9317698,0.04644 z m 7.37935,2.213988 c 0.0901,-0.145831 0.27872,-1.733331 0.4191,-3.527778 l 0.25522999,-3.262631 h -2.90698999 -2.90698 l 0.19639,1.146528 c 0.10802,0.63059 0.30293,2.21809 0.43314,3.527777 l 0.23674,2.38125 h 2.05475 c 1.13011,0 2.12849,-0.119316 2.21862,-0.265146 z m 9.46565,0.04962 1.57248,-0.215532 0.6160202,-3.047663 c 0.33881,-1.676214 0.69777,-3.331296 0.7977,-3.677959 0.16925,-0.587196 -0.0796,-0.61483 -3.6385702,-0.404108 -5.70348,0.337693 -5.19863,0.124802 -5.46104,2.302869 -0.12633,1.048594 -0.2454,2.660598 -0.26458,3.58223 l -0.0349,1.675694 h 2.4202 c 1.33112,0 3.12782,-0.09699 3.99268,-0.215531 z m -28.7910298,-4.27399 -0.75622,-3.783966 -2.9849,-0.419785 c -1.64169,-0.230882 -3.72763,-0.532497 -4.63541,-0.670256 l -1.65051,-0.25047 0.71538,3.131305 c 0.39346,1.722218 0.79529,3.476896 0.89296,3.899286 0.18135,0.784294 0.0878,0.75754 5.74963,1.643727 0.48507,0.07592 1.4542,0.15966 2.15362,0.186083 l 1.27168,0.04804 z m 38.3389,3.241918 c 1.98489,-0.298126 3.70462,-0.655313 3.82162,-0.79375 0.24035,-0.284389 1.73707,-6.391442 1.73707,-7.087741 0,-0.314334 -0.30899,-0.384099 -1.01469,-0.229101 -0.55808,0.122575 -2.57771,0.419157 -4.48806,0.659072 l -3.47337,0.436209 -0.60105,2.632152 c -1.12327,4.919059 -1.12367,4.925207 -0.31427,4.925207 0.39812,0 2.34786,-0.243922 4.33275,-0.542048 z m -49.83747,-1.486424 c -0.0219,-0.57521 -1.66963,-7.177133 -1.83182,-7.339331 -0.14072,-0.140714 -3.53418,-1.340413 -7.1185,-2.516618 -0.62125,-0.203864 -0.65194,-0.08299 -0.42097,1.65814 0.28253,2.129798 1.01035,4.065283 1.89827,5.048028 0.71348,0.789673 3.52276,2.260084 5.53035,2.894646 1.77183,0.560043 1.95517,0.584121 1.94267,0.255135 z m 59.31852,-0.237569 c 3.78831,-1.149796 6.42742,-3.303821 6.83136,-5.575722 0.33276,-1.871526 0.37897,-3.763055 0.0925,-3.787707 -0.14644,-0.0126 -1.91221,0.489285 -3.92393,1.115307 l -3.65767,1.138222 -0.75038,3.576176 c -0.41271,1.966896 -0.75038,3.679608 -0.75038,3.806026 0,0.326577 0.31712,0.286571 2.15847,-0.272302 z M 6.0450198,-81.946618 C 17.27836,-82.621372 27.39297,-84.388673 31.75822,-86.439423 c 3.84403,-1.805885 6.03908,-5.080811 6.30163,-9.401781 0.25369,-4.175106 -2.49611,-18.276486 -6.84036,-35.078396 -0.67487,-2.61015 -1.09865,-4.86046 -0.94173,-5.0007 0.4418,-0.39485 3.69567,-1.11509 3.93888,-0.87188 0.45574,0.45573 5.64561,21.1306 6.90527,27.50846 1.03132,5.22179 1.94556,12.68827 1.72385,14.07859 l -0.21984,1.378593 2.43524,-0.22635 c 4.96446,-0.461433 10.94897,-2.494114 12.96269,-4.402865 2.35378,-2.231088 2.8317,-4.782698 1.80765,-9.650888 -0.69181,-3.28877 -3.38087,-12.18746 -4.99298,-16.52291 -1.88495,-5.06922 -6.44596,-14.23305 -8.92778,-17.93745 -2.1531,-3.21373 -7.56638,-9.24158 -9.59943,-10.68924 l -1.01349,-0.72167 -1.43567,1.631 c -2.85235,3.24044 -8.907,6.85011 -14.78392,8.8139 -6.26591,2.09377 -12.4884702,3.08494 -20.6537602,3.28989 -17.9052298,0.44942 -31.5406598,-3.68195 -39.7926298,-12.05669 l -2.2391,-2.27242 -3.89232,3.77065 c -2.78834,2.70117 -4.55753,4.79321 -6.23765,7.37591 -2.89612,4.45194 -7.62794,14.19451 -10.01417,20.61866 -1.88906,5.08565 -4.41018,14.29941 -4.81577,17.59981 -0.55309,4.50073 1.43195,7.205511 6.68244,9.105358 2.9583,1.07044 8.05555,2.163951 10.08695,2.163951 0.97735,0 0.97843,-0.0027 0.79661,-2.028472 -0.20232,-2.254204 0.81893,-8.862167 3.12133,-20.196527 1.46471,-7.21055 4.67085,-19.32271 5.3667,-20.27433 0.36974,-0.50566 0.55804,-0.50434 2.08096,0.0146 0.92093,0.3138 1.67442,0.6814 1.67442,0.81691 0,0.13551 -0.87835,4.12902 -1.95189,8.87447 -5.00915,22.14238 -6.13199,29.464994 -5.09219,33.208708 0.52308,1.883317 2.41949,4.529661 4.04547,5.645253 6.61542,4.538864 27.60934,7.143568 47.8013898,5.930691 z M 45.23348,-114.38037 c -0.33421,-0.20656 -0.31025,-0.39367 0.10339,-0.80731 0.29614,-0.29614 0.42693,-0.65844 0.29065,-0.80512 -0.13628,-0.14667 -0.01,-0.19283 0.28138,-0.10256 0.29104,0.0903 0.57725,0.48867 0.63602,0.88534 0.11684,0.78871 -0.62169,1.25593 -1.31144,0.82965 z m 0.91061,-0.60659 c -0.12935,-0.12935 -0.34102,-0.12935 -0.47037,0 -0.12935,0.12935 -0.0235,0.23518 0.23518,0.23518 0.25871,0 0.36454,-0.10583 0.23519,-0.23518 z m -5.17408,-20.04954 c 0,-0.097 0.0794,-0.17638 0.17639,-0.17638 0.097,0 0.17639,0.0794 0.17639,0.17638 0,0.097 -0.0794,0.17639 -0.17639,0.17639 -0.097,0 -0.17639,-0.0794 -0.17639,-0.17639 z m -93.7403,51.942028 c 1.65401,-0.695201 4.84031,-3.749999 4.84031,-4.640536 0,-1.205172 -0.88375,-1.538449 -4.58611,-1.72949 -4.15243,-0.214265 -8.59159,-1.235405 -11.94712,-2.748195 l -2.24573,-1.012454 0.14242,2.236637 c 0.2013,3.161382 1.39249,5.33336 3.85896,7.036325 3.01255,2.080004 6.34492,2.36763 9.93727,0.857713 z m 105.09567,0.383873 c 1.84224,-0.55195 4.15826,-2.640243 5.166,-4.658051 0.73284,-1.467369 1.49087,-5.510907 1.03312,-5.510907 -0.10071,0 -1.03574,0.387131 -2.07783,0.860292 -2.85664,1.297052 -7.066,2.280659 -11.70476,2.735068 -3.48189,0.341082 -4.22456,0.518226 -4.52483,1.079273 -0.77165,1.441851 2.82028,4.898076 6.02666,5.79897 1.70727,0.479688 3.8164,0.374036 6.08164,-0.304645 z M -60.99209,-139.64794 c 3.92616,-7.0013 8.4498,-12.43892 15.17878,-18.24553 2.03729,-1.75804 4.05426,-3.70524 4.48215,-4.32713 l 0.77799,-1.13069 -1.65993,-0.62321 c -2.6618,-0.99936 -7.11238,-3.29525 -9.68702,-4.99718 -6.57812,-4.34839 -12.71311,-12.72519 -15.1289,-20.65718 l -0.72523,-2.38125 -1.46495,-0.004 c -3.56778,-0.0102 -8.17757,-2.0956 -11.13454,-5.03711 -4.61285,-4.58874 -5.82314,-11.89011 -2.95359,-17.81837 1.12994,-2.33438 3.59325,-5.10608 5.56481,-6.26149 l 1.503,-0.88082 0.009,-4.1372 c 0.0172,-7.92258 2.07574,-16.91301 5.03201,-21.97688 5.04894,-8.64844 12.22046,-13.79844 25.21267,-18.10569 4.1191,-1.36559 12.03309,-3.08357 17.28226,-3.75167 1.74625,-0.22226 3.58587,-0.50948 4.08804,-0.63826 l 0.91305,-0.23415 -0.81178,-6.35 c -1.28502,-10.05185 -1.98741,-18.16217 -1.77523,-20.49797 0.37892,-4.17141 2.57703,-8.12465 5.85576,-10.53147 2.35687,-1.7301 4.22444,-2.34116 8.13432,-2.66152 1.84327,-0.15104 4.5420198,-0.46687 5.9972298,-0.70186 2.00014,-0.32299 3.50675,-0.33281 6.17360999,-0.0403 1.94027001,0.21284 4.48027001,0.47761 5.64444001,0.58839 3.97209,0.37796 7.1143302,1.8564 9.9300802,4.67216 3.32332,3.32331 4.39213,7.85826 3.69324,15.67036 -0.23041,2.5755 -0.81675,8.00405 -1.30299,12.06344 -0.48623,4.05938 -0.81364,7.56422 -0.72756,7.78852 0.087,0.22684 1.69824,0.596 3.63047,0.83183 14.91092,1.81986 29.09723,7.10836 36.25643,13.51599 7.79035,6.97253 11.21811,15.5356 11.74269,29.33502 l 0.19881,5.22984 1.37455,0.86772 c 2.83431,1.78922 5.60962,5.43221 6.51748,8.55513 0.39895,1.37234 0.51259,2.90261 0.40659,5.47498 -0.13398,3.25114 -0.25999,3.79099 -1.40977,6.03971 -2.50647,4.90212 -7.78479,8.49104 -13.07664,8.89126 l -2.62236,0.19833 -0.78614,2.61734 c -1.1596,3.86073 -3.64151,8.55118 -6.56332,12.40372 -2.7847,3.67175 -5.60944,6.29359 -9.50984,8.82675 -2.50241,1.62523 -8.91916,4.63343 -9.88348,4.63343 -0.29038,0 -0.52796,0.13493 -0.52796,0.29985 0,0.6881 2.20009,3.25622 4.11628,4.80483 6.49227,5.24688 12.66176,12.4886 16.52539,19.39743 1.49613,2.67531 1.43448,2.65889 6.08498,1.62076 5.00068,-1.1163 7.80323,-2.10616 9.00783,-3.18155 l 1.13079,-1.0095 0.11308,-5.50167 0.11309,-5.50166 0.94525,-0.4784 c 0.51988,-0.26311 3.40587,-1.27775 6.4133,-2.25475 12.50891,-4.06367 19.15113,-6.82997 21.7586,-9.06187 3.59643,-3.07841 4.04721,-7.66092 1.84074,-18.71264 -2.4312,-12.17732 -5.78163,-24.39331 -16.20643,-59.09027 -0.61211,-2.03729 -2.06119,-6.87917 -3.22019,-10.75972 -6.20919,-20.78961 -7.19328,-23.66526 -9.71846,-28.39861 -5.06531,-9.49473 -10.96425,-16.21497 -20.519,-23.37582 -22.44052,-16.81814 -51.68637021,-22.35615 -79.4158,-15.03821 -11.75102,3.10116 -24.2831,9.31048 -33.16111,16.43049 -6.0213,4.82896 -12.26993,11.98354 -16.2169,18.56805 -3.58904,5.98741 -4.71542,9.02085 -10.37229,27.93354 -1.45086,4.8507 -4.78438,15.9632 -7.40783,24.69445 -10.40336,34.6241 -13.43829,46.41568 -14.68169,57.04271 -0.59845,5.11477 0.14866,8.18581 2.531,10.40381 2.16087,2.0118 10.4757,5.62358 20.57132,8.93572 3.10444,1.0185 6.47788,2.15962 7.49653,2.53582 l 1.85208,0.68401 v 5.39513 c 0,6.59423 0.0835,6.75722 4.14895,8.10161 4.04619,1.33801 8.21205,2.30223 9.60005,2.22201 1.14384,-0.0661 1.33166,-0.26033 2.82222,-2.91838 z m 61.84760979,-5.44273 c 0.0874,-0.097 -0.13905,-2.08139 -0.50323,-4.40972 -0.36419,-2.32833 -0.78163,-5.02708 -0.92765,-5.99722 l -0.2655,-1.76389 -1.93691999,-0.11029 c -1.06531,-0.0607 -2.43112,-0.0179 -3.03513,0.0951 -1.00367,0.18773 -1.11685,0.34907 -1.31478,1.87418 -0.11911,0.91783 -0.52092,3.57378 -0.89291,5.90211 -0.37199,2.32833 -0.59682,4.36467 -0.49962,4.5252 0.184,0.30391 9.09678999,0.19413 9.37573999,-0.11548 z M -11.19732,-146.32593 c 0.37536,-1.4998 1.7454398,-10.85146 1.6096898,-10.9872 -0.062,-0.062 -1.7069398,-0.2172 -3.6554298,-0.34489 l -3.54271,-0.23217 -1.10784,2.90114 c -1.41589,3.70785 -2.68933,8.08246 -2.42866,8.34313 0.2471,0.2471 7.64702,1.52042 8.35334,1.43738 0.27878,-0.0328 0.62601,-0.5356 0.77161,-1.11739 z m 21.29846,0.21196 c 1.55267,-0.31031 2.80114,-0.68957 2.77437,-0.84279 -0.0268,-0.15323 -0.89437,-2.66384 -1.928,-5.57914 l -1.8793202,-5.30055 -3.54006,0.24352 c -1.94703,0.13394 -3.59282,0.28961 -3.65731,0.34593 -0.15319,0.1338 1.70046,11.51121 1.9381,11.89571 0.19797,0.32033 1.9141,0.11232 6.2922202,-0.76268 z m -31.50732,-6.5281 c 0.94635,-2.69806 1.66612,-5.06911 1.5995,-5.26898 -0.09,-0.26992 -6.98434,-1.71762 -7.16457,-1.50444 -0.0174,0.0205 -0.50547,0.91045 -1.08471,1.9776 -0.57924,1.06715 -1.64685,3.00397 -2.37247,4.30405 l -1.3193,2.36377 1.87484,0.95049 c 2.48739,1.26104 5.24324,2.2374 6.07435,2.15205 0.52924,-0.0543 1.03668,-1.10949 2.39236,-4.97454 z m 42.16013,3.34536 c 1.61147,-0.77324 2.9273,-1.61164 2.92406,-1.86312 -0.003,-0.25147 -0.69493,-1.72723 -1.53709,-3.27945 -2.88107,-5.31025 -2.75383,-5.14873 -3.8668,-4.90884 -0.55004,0.11855 -2.18729,0.42171 -3.63835,0.67369 -1.45106,0.25199 -2.69876,0.51862 -2.77266,0.59252 -0.0739,0.0739 0.42845,1.71748 1.11634,3.65239 0.68789,1.93491 1.50792,4.28715 1.8223,5.22721 0.56075,1.6768 0.59479,1.70542 1.79691,1.51034 0.67393,-0.10936 2.54381,-0.8315 4.15529,-1.60474 z m -51.90435,-7.8766 c 0.86457,-1.69774 1.45129,-3.09067 1.30382,-3.09541 -0.14747,-0.005 -1.56898,-0.37986 -3.15891,-0.83362 l -2.89079,-0.82503 -1.61831,2.43372 c -1.89341,2.84743 -1.88536,2.87837 1.47295,5.66193 l 2.00986,1.66589 0.65472,-0.96034 c 0.36009,-0.52818 1.36209,-2.34939 2.22666,-4.04714 z m 60.27818,2.81873 2.41258,-2.20836 -1.65226,-2.55414 c -0.90875,-1.40478 -1.72816,-2.55414 -1.82091,-2.55414 -0.25033,0 -5.95585,1.47903 -6.06093,1.57116 -0.0978,0.0857 1.93301,4.03605 3.31814,6.45453 0.47228,0.82462 0.97841,1.49931 1.12474,1.49931 0.14633,0 1.35172,-0.99377 2.67864,-2.20836 z m -18.67304,-8.71525 c 12.85325,-1.66984 24.44444,-5.29269 30.86805,-9.64787 2.33486,-1.58303 6.90318,-6.09814 8.68623,-8.58507 2.16534,-3.02011 4.56225,-8.24146 5.40821,-11.78104 1.98281,-8.29627 1.70044,-28.32558 -0.51914,-36.82416 -2.40647,-9.21415 -9.93857,-15.49647 -22.43826,-18.71512 -18.81332,-4.8444 -41.7208102,-5.60037 -63.1037,-2.08247 -15.07592,2.48028 -23.23443,6.24974 -28.00927,12.94108 -4.06244,5.69301 -5.50584,13.51116 -5.50362,29.81039 0.002,11.35209 0.88964,16.34227 4.01643,22.56808 4.39453,8.75002 11.60706,14.38207 23.32285,18.2121 6.8399,2.23604 15.96444,3.98051 25.04722,4.78863 5.3107698,0.47251 15.8072798,0.14921 22.225,-0.68455 z m -21.51944,-29.11392 c -1.80248,-0.63286 -3.49169,-2.56895 -4.43042,-5.07793 -1.60773,-4.29705 -1.18215,-7.09565 1.07903,-7.09565 1.25443,0 1.89358,0.85731 2.49852,3.35139 0.23531,0.97014 0.72513,2.3592 1.08849,3.0868 0.57238,1.14614 0.82361,1.32292 1.8800798,1.32292 1.51669,0 2.28628,-1.04033 2.693,-3.64034 0.65011,-4.15599 4.48555,-4.1568 5.08874,-0.001 0.40480999,2.78902 1.02408999,3.62648 2.68876,3.636 1.28211,0.007 2.26463,-1.33041 2.7972,-3.8085 0.68736,-3.19832 1.18239,-3.94721 2.60919,-3.94721 2.45416,0 2.87841,2.40255 1.21114,6.85873 -2.02188,5.40397 -7.02364,7.40731 -10.54684,4.2243 l -1.34234,-1.21272 -1.1274,1.05315 c -1.04785,0.97884 -3.00797,1.79073 -4.24688,1.75909 -0.29104,-0.007 -1.1641598,-0.23647 -1.9402698,-0.50897 z m -28.575,-9.23777 c -1.18597,-0.33089 -5.26003,-3.11036 -6.68801,-4.56281 -6.27471,-6.38222 -4.14946,-18.03448 4.04684,-22.18786 6.58671,-3.33774 14.59582,-0.48263 17.99072,6.41338 2.12302,4.31247 1.82366,10.23339 -0.71929,14.22648 -2.60007,4.08278 -6.1145,6.08405 -10.9261,6.22181 -1.64923,0.0472 -3.31611,-0.003 -3.70416,-0.111 z m 8.41909,-4.37253 c 1.66519,-1.30984 0.91136,-3.50217 -1.20421,-3.50217 -2.04109,0 -2.80158,3.12541 -0.94252,3.87347 1.1018,0.44334 1.1137,0.44129 2.14673,-0.3713 z m -7.87838,-11.44564 c 1.93022,-0.99816 2.66322,-3.71232 1.5723,-5.82192 -0.66171,-1.27961 -1.52163,-1.75683 -3.16567,-1.75683 -1.79965,0 -3.32662,0.89931 -3.91402,2.30515 -0.64199,1.53651 -0.63072,2.07815 0.0742,3.5636 0.98314,2.07182 3.31458,2.80559 5.43322,1.71 z m 64.29491,15.56644 c -6.62865,-2.16469 -10.44845,-8.59808 -9.39344,-15.82061 0.47321,-3.23951 1.52573,-5.46438 3.7217,-7.86713 4.04765,-4.42876 9.97348,-5.41617 15.69839,-2.61577 2.67127,1.30668 4.35464,3.16642 6.05203,6.6861 1.15741,2.39999 1.27619,2.92445 1.2784,5.64444 0.005,5.67997 -1.4891,8.23066 -6.92019,11.81713 -3.60722,2.38206 -3.6958,2.41759 -6.30446,2.52866 -1.59697,0.068 -3.23515,-0.0798 -4.13243,-0.37282 z m 7.36784,-4.32626 c 0.8023,-0.72607 0.82725,-1.80521 0.0613,-2.65157 -1.14355,-1.26361 -3.64949,-0.41639 -3.64949,1.23384 0,1.72612 2.26051,2.61927 3.58819,1.41773 z m -6.41431,-11.23219 c 1.49605,-0.77364 2.12057,-1.88025 2.12057,-3.75754 0,-1.38135 -0.18126,-1.83952 -1.08547,-2.74373 -0.85198,-0.85198 -1.39044,-1.08547 -2.50321,-1.08547 -2.68887,0 -4.17244,1.52367 -4.17244,4.28521 0,1.15566 0.22997,1.65975 1.19945,2.62923 1.34744,1.34744 2.73061,1.55682 4.4411,0.6723 z m -66.51074,-21.15265 c -1.80838,-1.80838 -0.81447,-5.46382 1.82647,-6.7175 1.66035,-0.78818 6.0312,-0.91612 7.97948,-0.23357 1.76616,0.61875 3.35983,2.27238 3.64259,3.77964 0.26673,1.4218 -0.35109,3.19723 -1.28687,3.69804 -0.34868,0.18662 -3.03288,0.3393 -5.96487,0.3393 -5.18959,0 -5.35385,-0.023 -6.1968,-0.86591 z m 60.70193,0.0242 c -1.67242,-1.67243 -0.81169,-4.63954 1.87016,-6.44684 2.06264,-1.39002 6.45524,-1.50751 9.11812,-0.24388 2.34834,1.11436 3.35753,4.56577 1.89304,6.47413 -0.66501,0.86655 -0.77555,0.8839 -6.33403,0.9943 -5.64515,0.11212 -5.65911,0.11046 -6.54729,-0.77771 z m -88.95834,39.73549 c -0.3537,-2.19642 -0.35176,-17.15521 0.002,-18.92395 l 0.27501,-1.37326 -2.27839,0.18289 c -2.61322,0.20976 -5.39701,1.53098 -6.85387,3.25293 -1.22719,1.45049 -2.45785,4.24639 -2.74487,6.23598 -0.88227,6.11585 4.35006,12.01466 10.87775,12.26332 0.98909,0.0377 0.99103,0.0333 0.72191,-1.63791 z m 134.85451,0.63388 c 2.04537,-0.90375 4.25804,-3.01264 5.36083,-5.10941 0.81555,-1.55064 0.93949,-2.20511 0.93949,-4.96128 0,-2.76008 -0.1234,-3.40966 -0.94424,-4.97064 -1.67539,-3.18609 -4.84698,-5.30278 -8.51255,-5.68122 l -1.82561,-0.18848 v 11.01006 11.01006 l 1.76389,-0.23326 c 0.97014,-0.12829 2.41832,-0.52242 3.21819,-0.87583 z m -134.13844,-27.79777 c 0.302,-2.61997 1.79271,-8.11128 2.85245,-10.50754 1.89918,-4.29439 5.97026,-8.9043 10.3812,-11.75523 3.6392,-2.35213 10.92923,-4.97632 17.68683,-6.36674 9.80774,-2.01799 16.74543,-2.77604 28.2094998,-3.08234 22.1591802,-0.59203 40.5684202,2.20774 52.3875002,7.96736 9.79874,4.77509 14.7218,11.37569 16.54242,22.17924 0.27182,1.61297 0.58553,3.02399 0.69713,3.13559 0.33627,0.33628 3.02276,0.42701 3.21946,0.10874 0.41097,-0.66495 -0.57137,-10.26222 -1.39863,-13.66439 -1.86631,-7.67536 -4.72371,-11.93445 -11.47566,-17.10498 -6.93349,-5.30955 -21.4373,-9.86064 -35.23949,-11.05764 -3.39728,-0.29463 -4.37095,-0.89758 -4.08694,-2.53083 0.44444,-2.5558 1.94843,-14.27491 2.47818,-19.31006 1.05202,-9.99921 0.35196,-13.442 -3.32419,-16.34784 -1.7207802,-1.36019 -3.8007402,-2.42649 -4.1167602,-2.11047 -0.0931,0.0931 0.18976,0.94795 0.62867,1.89956 0.70417,1.52672 0.79285,2.24886 0.75393,6.13994 -0.0575,5.74846 -2.93946,25.51102 -4.0127,27.51641 -0.35928,0.6713 -0.73501,0.70554 -7.68547,0.70041 -4.01925,-0.003 -7.4847698,-0.12204 -7.7011498,-0.26459 -0.59508,-0.39202 -0.72751,-1.02333 -2.05253,-9.78418 -2.52668,-16.70618 -2.77535,-21.46124 -1.28375,-24.5485 0.39943,-0.82671 0.65859,-1.57076 0.57591,-1.65344 -0.48035,-0.48035 -3.08677,0.98911 -4.80461,2.70876 -3.90088,3.90499 -3.96809,5.7769 -1.04618,29.13763 0.94541,7.55855 0.95171,7.43294 -0.39667,7.90298 -0.61104,0.21301 -1.76197,0.38802 -2.55764,0.38892 -0.79566,8.9e-4 -3.51541,0.306 -6.04388,0.67801 -19.60769,2.88488 -32.12669,9.06527 -37.98379,18.75188 -2.97469,4.91962 -4.36141,10.28423 -4.75729,18.4039 l -0.21929,4.49791 h 1.76981 1.76981 z m 68.82015979,-50.27083 c 2.64762001,-15.39693 3.51378001,-22.80823 2.96478001,-25.36813 -0.40687,-1.8972 -2.13048,-4.43733 -3.49888001,-5.15639 -0.57891,-0.3042 -1.99810999,-0.42188 -4.28298999,-0.35515 -3.23795,0.0946 -3.47391,0.1542 -4.49881,1.13681 -0.59489,0.57035 -1.41152,1.71847 -1.8147198,2.55136 -1.24018,2.56187 -1.09433,4.71011 1.6245498,23.92831 0.2745,1.94027 0.50412,3.72621 0.51027,3.96875 0.008,0.32857 1.13107,0.44097 4.40491,0.44097 h 4.39373999 z"
       id="path130" /></g></svg>
