<?xml version="1.0" encoding="UTF-8" standalone="no"?>
<!-- Created with Inkscape (http://www.inkscape.org/) -->

<svg
   width="230.80832mm"
   height="148.06621mm"
   viewBox="0 0 230.80834 148.06618"
   version="1.1"
   id="svg1"
   xml:space="preserve"
   xmlns="http://www.w3.org/2000/svg"
   xmlns:svg="http://www.w3.org/2000/svg"><defs
     id="defs1"><clipPath
       clipPathUnits="userSpaceOnUse"
       id="clipPath6"><path
         id="path7"
         style="fill:#ff0000;fill-opacity:1;fill-rule:nonzero;stroke:none;stroke-width:0.264583"
         d="M -175.07778,-16.057127 V 287.55793 H 124.54631 V -16.057127 Z m 132.7459,202.572647 c 0.210643,0.005 0.427212,0.0169 0.650089,0.0367 2.23823,0.19855 4.475655,0.4031 6.717938,0.55346 1.973313,0.11308 0.986628,0.0436 2.958475,0.20825 3.181295,0.26563 4.740125,1.85116 4.950601,3.46956 4.949923,1.63749 3.796379,7.35609 -2.592089,6.81354 -3.228716,-0.27422 -1.569593,-0.1301 -4.979024,-0.43357 -4.228209,-0.39317 -8.460616,-0.76265 -12.666927,-1.35341 -6.647387,-0.93358 -5.930551,-7.21034 0.03204,-7.20421 0.04685,5e-5 0.0972,0.004 0.144695,0.005 0.687229,-1.21692 2.304132,-2.15435 4.784204,-2.09548 z" /></clipPath><clipPath
       clipPathUnits="userSpaceOnUse"
       id="clipPath76"><path
         id="path77"
         style="fill:#ff0000;fill-opacity:1;fill-rule:nonzero;stroke:none;stroke-width:0.264583"
         d="M -133.83107,-122.52355 V 173.82063 H 122.97289 V -122.52355 Z M 13.574404,98.948202 c 2.788179,0.0507 4.135003,2.063798 3.398242,4.077268 0.199805,0.45372 0.374906,0.96736 0.517797,1.54461 1.07913,4.35948 0.671079,8.891 0.311608,13.31495 -0.351859,3.06036 -0.147137,1.57974 -0.604097,4.44366 -0.359666,2.25418 -1.333846,3.66838 -2.455664,4.32532 0.105138,0.36595 0.224724,0.72888 0.324528,1.09554 0.6273,2.23652 0.575201,4.47401 0.39429,6.75514 -0.137303,1.73129 -0.688065,2.99533 -1.427303,3.82199 -0.112477,0.41601 -0.170275,0.80219 -0.311092,1.25212 -0.184975,0.59102 -0.413327,1.1061 -0.670242,1.55856 0.741137,-0.23134 1.446982,-0.38145 2.064991,-0.37517 4.085002,0.0415 5.222724,4.75435 -0.02223,7.27138 -4.46677,2.14368 -9.303523,3.34693 -14.11903492,4.40955 -4.40876268,0.85156 -8.89238128,1.33053 -13.38264308,1.19269 -5.804014,-0.17807 -6.736297,-5.00293 -3.065447,-6.67298 -2.072987,-0.65744 -4.042852,-1.62261 -4.128947,-3.14709 -0.02802,-0.49633 0.0026,-0.90355 0.0341,-1.30897 -1.976731,-0.003 -3.95339,2.4e-4 -5.930386,0.003 -0.814031,0 -1.53062,-0.0962 -2.159559,-0.26149 -0.376306,0.19492 -0.742394,0.40783 -1.120862,0.59893 -6.391272,3.22657 -9.625245,-3.24074 -3.234428,-6.46886 1.833438,-0.92611 3.62694,-1.92211 5.414142,-2.92954 -0.877003,-3.87058 -1.368747,-7.83436 -1.323951,-11.80858 0.01651,-1.46304 0.376836,-2.54918 0.864547,-3.41426 -1.247357,-1.79999 -0.223805,-4.63069 3.842661,-5.68855 3.11826,-0.81116 6.282901,-1.39515 9.473837,-1.82211 -1.259816,-0.12657 -2.516182,-0.30233 -3.764627,-0.50177 -1.477002,-0.21985 -2.935575,-0.54305 -4.407482,-0.7891 -1.14214,-0.22954 -0.588502,-0.12004 -1.660882,-0.3297 -3.350244,-0.65501 -4.783278,-2.61088 -4.608504,-4.32997 -0.200179,-1.7721 1.333365,-3.52972 4.663799,-3.59461 v -5.3e-4 c 0.20954,-0.004 0.426035,-0.002 0.649571,0.008 1.77111,0.0772 3.528708,0.28204 5.26428,0.64027 1.655035,0.33225 3.314115,0.6481 4.955251,1.04439 1.244759,0.34858 2.51628,0.54538 3.7997689,0.6723 0.025956,0.002 0.052073,0.002 0.078034,0.004 0.4990888,-0.0371 0.9984105,-0.0743 1.4965495,-0.11317 1.346872,-0.12588 2.6913231,-0.25136 4.0457464,-0.24236 1.1278499,-0.0444 2.2567291,-0.10772 3.37498791,-0.26872 0.75719517,-0.11591 1.51142439,-0.25483 2.25722659,-0.4284 0.3616431,-0.12394 0.7240561,-0.24538 1.083138,-0.37775 0.3360393,-0.12388 0.6107589,-0.12825 0.9250071,-0.20723 0.1281086,-0.045 0.2583895,-0.0825 0.3855085,-0.13074 1.9825018,-0.7681 3.9540551,-1.56464 5.9510551,-2.29443 1.050809,-0.383992 1.999634,-0.542639 2.826703,-0.527616 z M 0.70283723,110.39557 c -0.45566013,0.0949 -0.90775367,0.208 -1.36890919,0.2744 -1.16638124,0.15534 -2.34111274,0.24237 -3.51761424,0.26251 0.4031694,0.0896 0.8047355,0.18876 1.2025101,0.308 0.1014836,0.0304 0.1982549,0.075 0.2986907,0.10852 0.4205235,-0.21824 0.9206601,-0.35072 1.4898318,-0.37156 0.39885139,-0.0146 0.83259872,0.0278 1.29449508,0.13023 0.22468681,-0.12213 0.44967525,-0.24374 0.67437529,-0.36587 -0.0326284,-0.11319 -0.058211,-0.22834 -0.0733795,-0.34623 z m 10.24433577,1.02474 c -0.76023,0.21437 -1.5189569,0.4343 -2.2696301,0.68006 -0.031261,0.62207 -0.2256075,1.28373 -0.6464723,1.94355 0.6236891,0.43248 1.2549743,1.04482 1.8634525,1.86862 0.2674939,0.36214 0.4748849,0.75712 0.7188199,1.13223 0.154519,-1.86707 0.314174,-3.74736 0.33383,-5.62446 z m 64.566086,3.39773 c 1.50346,0.0187 3.129182,1.24994 3.928441,4.04678 0.257931,0.90255 0.823497,1.65871 1.488797,2.30735 0.856321,0.95375 1.845738,1.76777 2.801898,2.61638 1.458581,1.46408 2.789203,3.04608 4.169772,4.58215 1.315059,1.44746 2.571226,2.91698 3.543967,4.61884 0.0053,0.01 0.0082,0.0206 0.01344,0.0305 0.734605,-0.43313 1.446276,-0.65634 2.094962,-0.69195 3.016182,-0.16561 4.69137,3.55377 1.187525,7.32306 -1.69471,1.82311 -3.657862,3.33908 -5.68751,4.7651 -0.777873,0.49914 -1.607691,0.90075 -2.418456,1.33842 0.165478,1.44344 -0.672182,3.24303 -2.956409,4.73096 -1.354556,0.88234 -2.690448,1.79306 -4.075203,2.6288 -2.075008,1.20078 -4.233777,2.27962 -6.540687,2.96259 -2.077586,0.62971 -4.169056,1.29987 -6.359301,1.36374 -1.872114,0.0897 -3.746989,0.0368 -5.620845,0.0501 h -5.1108 -5.524728 c -7.160125,0 -7.160125,-7.23315 0,-7.23315 h 1.347722 c 0.29438,-0.0541 0.5212,-0.1588 0.84801,-0.18656 1.106628,-0.094 2.200932,-0.28334 3.292822,-0.48421 0.456121,-0.98163 1.356053,-1.98213 2.807581,-2.83962 1.078018,-0.63685 2.158119,-1.26923 3.212209,-1.94561 1.962647,-1.29302 3.840588,-2.72135 5.893696,-3.86902 1.367169,-0.76424 2.559646,-1.07097 3.526915,-1.04128 2.216811,0.068 3.246223,1.90266 2.479953,4.04059 1.105688,-0.48686 2.206929,-0.98346 3.283003,-1.53739 2.619811,-1.23728 5.288743,-2.38548 7.764385,-3.9026 0.246153,-0.17184 0.487463,-0.34958 0.730705,-0.52503 -0.126915,-0.50614 -0.277693,-0.9939 -0.512114,-1.46554 -0.647621,-1.25778 -1.721077,-2.20654 -2.600875,-3.29644 -1.199229,-1.33472 -2.369312,-2.69496 -3.592029,-4.00803 -1.098706,-0.97599 -2.227236,-1.92181 -3.215306,-3.01428 -1.300821,-1.39063 -2.459913,-2.93896 -3.045293,-4.77801 -1.289469,-4.05101 0.646382,-6.61405 2.843754,-6.58667 z m -95.086705,4.28035 c -0.465643,0.10748 -0.930899,0.21773 -1.394745,0.33435 0.171958,0.64334 0.283575,1.36624 0.279569,2.2071 -0.01267,2.6582 0.205063,5.32647 0.670242,7.94732 0.280107,-0.17087 0.565767,-0.33222 0.845429,-0.50385 -0.01897,-0.36223 -0.02445,-0.73164 -0.05529,-1.08985 -0.118034,-2.96491 -0.160888,-5.93314 -0.3452,-8.89507 z m 18.5141159,1.1958 c 0.00497,0.0773 0.00619,0.15612 0.014975,0.23202 -0.1238779,0.22787 -0.2588048,0.44752 -0.3937741,0.66715 0.58900751,0.0447 1.13203305,0.21413 1.64331124,0.45888 -0.37615284,-0.49255 -0.78353709,-0.94642 -1.26452314,-1.35805 z m -6.5422357,14.57068 c -0.046649,0.0755 -0.09888,0.14702 -0.1436608,0.22376 -0.03147,0.054 0.1963367,0.0838 0.1860365,0.0222 -0.017595,-0.10481 -0.026035,-0.14905 -0.042376,-0.24597 z m 13.9236979,6.08439 c -0.2236258,0.5643 -0.5677508,1.09664 -1.1782213,1.50533 0.9079653,0.17659 1.7077452,0.44257 2.2830631,0.84852 0.1405493,-0.0459 0.272804,-0.11448 0.4128956,-0.16174 -0.7336976,-0.43656 -1.2984269,-1.18703 -1.5177374,-2.19211 z" /></clipPath><clipPath
       clipPathUnits="userSpaceOnUse"
       id="clipPath127"><path
         id="path128"
         style="fill:#ff0000;fill-opacity:1;fill-rule:nonzero;stroke:none;stroke-width:0.264583"
         d="M -112.24796,-126.55676 V 185.58027 H 148.5754 V -126.55676 Z M 46.874626,83.305366 c 1.808208,0 3.616317,1.790192 3.616317,5.370214 v 5.232238 c 0.0627,2.146078 -0.111291,4.285324 -0.245462,6.424932 -0.136289,2.02485 -0.190703,4.04985 -0.104904,6.07715 0.192061,1.91863 0.527714,3.82569 0.876432,5.72213 0.304242,2.00862 0.765826,3.9858 1.180806,5.97276 0.41642,1.86142 0.967934,3.68703 1.421104,5.53972 0.25287,0.86996 0.117097,0.46495 0.396356,1.22008 0.186108,0.50319 0.223428,0.93098 0.309544,1.38441 4.425355,2.23251 2.751262,7.58433 -3.415813,6.40477 -3.104732,-0.59371 -6.256094,-0.76586 -9.40821,-0.85576 -3.81635,0.009 -7.630525,0.17062 -11.44478,0.28216 -1.12776,0.0333 -2.255837,0.0512 -3.383772,0.0754 -0.908129,0.5548 -1.966518,0.57724 -2.88613,0.0641 -0.03584,5.3e-4 -0.07165,0.002 -0.107487,0.003 -0.03142,5.3e-4 -0.0525,-0.009 -0.08268,-0.009 -0.32049,0.14732 -0.641715,0.29301 -0.962215,0.44028 -0.262501,0.12062 -0.518089,0.22111 -0.770496,0.31265 -0.876996,0.71434 -1.945576,0.85817 -2.911967,0.46405 -2.943479,-0.21613 -4.295167,-2.77187 -2.550232,-5.0524 -2.22e-4,-0.028 -0.0078,-0.0483 -0.0078,-0.0765 v -6.3469 c -0.014,-2.72977 -0.02254,-5.45666 0.112657,-8.18348 0.135676,-2.32533 0.233519,-4.6523 0.299723,-6.98046 0.046,-1.80459 0.06926,-3.60958 0.08527,-5.41465 -0.0258,-1.02998 0.04009,-2.054459 0.138491,-3.078883 0.0044,-0.04602 0.02191,-0.07504 0.02687,-0.120406 C 15.992671,97.193438 15.83363,95.70984 16.656834,94.418959 10.68718,93.678613 10.992573,87.32947 17.739972,87.32947 h 3.885033 5.177462 5.913334 c 1.498505,0.05847 2.984222,-0.03228 4.475178,-0.161748 1.252041,-0.18606 2.49041,-0.398671 3.697968,-0.782897 1.001961,-0.32245 0.492366,-0.161472 1.527553,-0.482142 0.510384,-0.158096 0.938446,-0.174371 1.394749,-0.23771 0.672338,-1.56932 1.86623,-2.35903 3.063377,-2.35903 z" /></clipPath></defs><g
     id="layer1"
     transform="translate(-22.577453,256.24036)"><path
       style="fill:#000000"
       d="m 62.112102,-108.41032 c -13.317106,-0.19642 -15.622781,-0.45925 -19.446874,-2.21674 -3.041533,-1.39784 -5.550251,-4.0061 -6.210068,-6.45648 -0.267357,-0.99289 -0.381119,-1.11802 -0.884826,-0.97325 -2.866637,0.82386 -3.879169,0.99224 -5.167275,0.8593 -2.976239,-0.30718 -5.720441,-2.39131 -7.142264,-5.42433 -0.640739,-1.36681 -0.70173,-1.77456 -0.679727,-4.54425 0.02026,-2.55022 0.13651,-3.37128 0.718225,-5.07268 1.086693,-3.17835 2.210816,-5.34824 3.976894,-7.67657 0.89689,-1.18243 1.741003,-2.29698 1.875807,-2.47677 0.15813,-0.21091 0.04078,-0.94932 -0.330729,-2.081 -0.665944,-2.02861 -0.718387,-3.43285 -0.200811,-5.37702 1.03345,-3.88194 4.794457,-8.22504 9.031941,-10.42981 1.30185,-0.67736 3.35343,-1.53994 4.559067,-1.91684 2.511276,-0.78507 6.670118,-1.34585 8.473576,-1.14257 1.084096,0.12219 1.333228,0.0473 2.109729,-0.63451 0.484261,-0.42519 1.400081,-0.91204 2.035155,-1.0819 0.933603,-0.2497 1.26994,-0.51469 1.756677,-1.38406 2.308132,-4.12257 7.500812,-9.82417 12.001577,-13.17781 7.196445,-5.36227 16.294741,-8.10161 24.415572,-7.35112 5.975416,0.55223 11.188272,2.20841 15.833482,5.03048 0.96124,0.58397 1.82076,1.06176 1.91006,1.06176 0.0893,0 -0.43562,-0.62508 -1.16648,-1.38906 -0.73087,-0.76399 -2.39469,-2.63922 -3.69738,-4.16719 -7.60566,-8.92089 -9.649239,-12.00859 -9.631233,-14.55208 0.02237,-3.15967 2.362531,-7.04123 7.687523,-12.75107 6.73674,-7.22361 18.13221,-16.46089 30.9328,-25.0744 2.83765,-1.90946 5.27843,-3.55906 5.42395,-3.66577 1.56871,-1.15037 6.17594,-3.84653 9.82952,-5.75227 8.37906,-4.37058 15.90764,-6.80382 24.16944,-7.81156 7.20765,-0.87917 16.10356,1.14588 25.60488,5.82864 11.31954,5.57888 20.13281,11.85816 28.78065,20.50566 5.18617,5.18596 5.58845,5.62925 9.2144,10.15379 3.26432,4.07329 5.44042,7.20132 8.40705,12.08469 4.02764,6.62991 6.90614,12.05881 7.04446,13.28599 0.17314,1.53612 -0.15394,3.11838 -2.58618,12.51088 -2.48295,9.58829 -2.67913,10.45079 -5.05502,22.225 -3.03677,15.04927 -5.52366,28.35253 -5.52724,29.56719 -0.001,0.39976 0.1563,0.59531 0.47939,0.59531 1.0818,0 3.28899,0.86783 4.16631,1.63813 1.28382,1.12721 1.71957,2.08467 1.74035,3.82398 0.023,1.92237 -0.97457,3.47784 -2.59254,4.04257 -1.0312,0.35993 -1.13296,0.34484 -2.30476,-0.34188 -0.67426,-0.39514 -1.22592,-0.83248 -1.22592,-0.97187 0,-0.13939 -0.12483,-0.25343 -0.27741,-0.25343 -0.18257,0 -0.25041,1.09616 -0.19844,3.20642 l 0.079,3.20642 -0.74637,0.56389 c -1.21151,0.91532 -4.85775,0.92634 -8.24946,0.0249 -1.45521,-0.38674 -2.88396,-0.75882 -3.175,-0.82683 -0.37257,-0.0871 -0.9316,0.26483 -1.88906,1.18911 -1.83038,1.76696 -5.03584,3.30729 -8.90564,4.27948 -6.40609,1.60937 -4.16794,1.56574 -77.31154,1.507 -36.67125,-0.0294 -71.616094,-0.12643 -77.655208,-0.2155 z m 139.769568,-2.6183 c 11.48355,-0.46377 17.44254,-1.83653 21.73402,-5.00684 1.82795,-1.35038 2.37765,-2.34487 2.34029,-4.23388 -0.0414,-2.09393 -1.67301,-5.27887 -3.6735,-7.17085 l -1.51338,-1.43129 -0.51561,1.54686 -0.51562,1.54685 1.22357,1.18933 c 1.30332,1.26684 1.41633,1.55553 0.89044,2.27472 -0.30602,0.41852 -0.59124,0.32503 -3.50573,-1.14914 -1.74493,-0.8826 -3.5672,-1.67658 -4.04949,-1.7644 l -0.8769,-0.15968 1.32929,1.75623 c 1.71676,2.26816 2.12942,3.55484 1.53792,4.79523 -0.76687,1.60816 -2.76964,2.45291 -7.91561,3.33874 -4.91503,0.84607 -21.10037,1.20623 -49.15718,1.09385 -6.18463,-0.0248 -12.25682,-0.0226 -13.49375,0.005 -1.62596,0.036 -2.46155,-0.0659 -3.01639,-0.36807 -0.67011,-0.3649 -0.91872,-0.37237 -1.96028,-0.0589 -1.36734,0.41151 -4.96177,0.46446 -6.5546,0.0965 -0.74132,-0.17122 -2.31856,-0.12614 -5.02709,0.14369 -6.02429,0.60015 -27.43585,0.83306 -33.105281,0.36012 -5.666525,-0.47271 -11.229459,-0.42288 -15.393302,0.13786 -6.098242,0.82125 -8.626092,0.94146 -13.759858,0.6543 -2.7081,-0.15148 -6.293037,-0.51246 -7.966527,-0.80218 -1.673489,-0.28971 -4.323885,-0.62535 -5.889768,-0.74584 -3.378431,-0.25998 -4.224299,-0.71072 -3.219457,-1.71556 0.577684,-0.57769 3.365127,-0.54318 9.103145,0.11269 6.820409,0.7796 14.796558,0.95817 19.849829,0.44442 6.529512,-0.66385 10.048848,-0.7333 15.874999,-0.31328 9.32783,0.67246 33.51631,0.30811 34.34171,-0.51729 0.0496,-0.0495 -0.67259,-0.86413 -1.60476,-1.81017 -1.09604,-1.11234 -2.08868,-2.47705 -2.80951,-3.86257 -0.78118,-1.50154 -1.26046,-2.14249 -1.60205,-2.14249 -0.49576,0 -4.62931,0.91728 -10.59831,2.35188 -6.30458,1.51527 -17.145736,3.37313 -23.944788,4.10346 -10.304592,1.10689 -13.874317,1.26859 -20.637498,0.93488 -5.499158,-0.27135 -14.375925,-1.35517 -17.495982,-2.1362 -1.029969,-0.25783 -1.159647,-0.22153 -2.289313,0.64076 -1.391375,1.06206 -2.460709,1.40612 -2.994179,0.96338 -0.617978,-0.51288 -0.421944,-1.20068 0.554475,-1.94544 0.873224,-0.66604 1.23834,-1.47314 0.666418,-1.47314 -0.142794,0 -1.080006,-0.77391 -2.082694,-1.71979 -1.002688,-0.94589 -1.894133,-1.71979 -1.980988,-1.71979 -0.383908,0 -2.401715,3.10529 -2.732924,4.20581 -0.626482,2.08164 0.194551,4.16411 2.296929,5.82595 3.234979,2.5571 5.727494,2.90825 22.883258,3.22381 7.421562,0.13651 14.446249,0.21618 15.610416,0.17704 2.624183,-0.0882 2.058959,-0.0892 60.6696,0.10525 26.5288,0.088 48.30731,0.23315 48.3967,0.32254 0.23208,0.23208 5.29005,0.19018 12.57931,-0.1042 z m -40.15395,-5.59573 c 8.28974,0.39392 20.18901,0.39643 23.15104,0.005 1.23693,-0.1635 6.17802,-0.32383 10.98021,-0.35629 8.3188,-0.0562 8.89856,-0.0929 12.27306,-0.77562 4.02447,-0.81427 5.48469,-1.3221 5.86961,-2.04133 0.65434,-1.22265 -2.16787,-4.9647 -5.40986,-7.17309 -2.75195,-1.87458 -8.0844,-4.05136 -11.49241,-4.69136 -1.38334,-0.25979 -1.427,-0.24808 -2.77812,0.74511 -4.46033,3.27869 -8.39371,4.41254 -15.26332,4.39984 -4.14399,-0.008 -4.87762,-0.10592 -10.25783,-1.37396 l -2.98178,-0.70276 -1.20801,1.17444 c -1.33846,1.30128 -2.45843,3.30849 -3.11213,5.57755 -0.45074,1.56458 -0.96906,2.04572 -1.50636,1.39832 -0.54392,-0.65538 -0.069,-2.73279 1.2255,-5.36018 0.66908,-1.35804 1.16719,-2.51848 1.10692,-2.57875 -0.14159,-0.14159 -4.63231,-1.69895 -4.89899,-1.69895 -0.11134,0 -0.60692,0.83208 -1.1013,1.84907 -1.00161,2.06041 -3.64773,5.51207 -5.41238,7.06002 -1.03174,0.90505 -3.42928,2.59051 -5.55676,3.90639 -0.42621,0.26361 -0.64238,0.54636 -0.49014,0.64109 0.14979,0.0932 2.51698,0.0596 5.26041,-0.0746 3.42366,-0.16755 7.06259,-0.14553 11.60264,0.0702 z m 75.00937,-1.34208 c 0,-1.71575 -0.29709,-2.19397 -1.85278,-2.98229 -1.06949,-0.54195 -1.68771,-0.6611 -3.43009,-0.6611 -1.169,0 -2.12529,-0.0893 -2.12509,-0.19844 2e-4,-0.10914 0.40413,-0.21209 0.89762,-0.22877 0.49349,-0.0167 1.2305,-0.11397 1.63781,-0.2162 l 0.74055,-0.18586 -0.99144,-0.90829 c -0.54529,-0.49955 -1.07734,-0.90828 -1.18234,-0.90828 -0.10499,0 -0.56768,-0.34414 -1.0282,-0.76476 -0.94403,-0.86224 -2.32828,-1.88107 -2.55574,-1.88107 -0.0829,0 0.19721,0.59011 0.62247,1.31135 1.06129,1.79995 1.59432,3.74937 1.59432,5.83081 v 1.75446 l 2.3151,0.57139 c 3.09537,0.76398 3.22133,0.78632 4.36563,0.77436 l 0.99218,-0.0104 z m -5.29166,-4.56944 c 0,-0.0728 0.0595,-0.13229 0.13229,-0.13229 0.0728,0 0.13229,0.0595 0.13229,0.13229 0,0.0728 -0.0595,0.1323 -0.13229,0.1323 -0.0728,0 -0.13229,-0.0595 -0.13229,-0.1323 z m -2.64584,-2.11666 c 0,-0.0728 0.0595,-0.13229 0.1323,-0.13229 0.0728,0 0.13229,0.0595 0.13229,0.13229 0,0.0728 -0.0595,0.13229 -0.13229,0.13229 -0.0728,0 -0.1323,-0.0595 -0.1323,-0.13229 z m -88.96565,7.0523 c 1.62548,-0.50591 6.50873,-3.48552 6.92166,-4.2234 0.56052,-1.00158 -3.07032,-6.97225 -6.41251,-10.54495 -1.06686,-1.14045 -2.21987,-2.40096 -2.56225,-2.80114 -0.34238,-0.40018 -0.72982,-0.7276 -0.86099,-0.7276 -0.13117,0 -0.74704,0.41671 -1.3686,0.92604 -0.62156,0.50932 -1.28332,0.92604 -1.47057,0.92604 -0.35658,0 -1.03737,-0.7542 -1.05183,-1.16525 -0.005,-0.13156 0.91432,-1.11335 2.0421,-2.18174 1.79275,-1.69834 1.96737,-1.94219 1.38906,-1.9397 -1.82394,0.008 -7.45404,1.99852 -8.7684,3.10031 -0.23872,0.20011 -0.82077,1.10133 -1.29345,2.00271 -0.47268,0.90138 -1.10057,1.90547 -1.39531,2.2313 l -0.5359,0.59243 0.57737,2.1857 c 0.81612,3.08954 2.60101,6.66052 4.20589,8.41463 2.86837,3.13508 6.89238,4.3535 10.58373,3.20462 z m -104.918642,-3.46423 c 1.349079,-0.51378 1.60202,-0.73622 2.367075,-2.08166 0.471124,-0.82853 1.505083,-2.18988 2.297687,-3.02524 l 1.441098,-1.51882 -0.337964,-1.97576 c -0.212471,-1.24211 -0.291748,-3.25565 -0.213499,-5.42263 l 0.124465,-3.44687 -0.948841,-0.16281 c -3.216937,-0.55199 -5.090195,-1.03282 -6.356922,-1.63168 l -1.439332,-0.68047 -0.809626,0.95008 c -1.08164,1.26929 -3.189482,5.01664 -4.160629,7.39683 -2.170706,5.3202 -1.401856,10.0101 1.935064,11.80367 0.968894,0.52078 1.423898,0.59918 2.871146,0.49473 0.945886,-0.0683 2.399511,-0.38298 3.230278,-0.69937 z m 49.122452,0.3701 c 9.278486,-0.8166 20.34984,-2.5865 29.80255,-4.76432 3.80108,-0.87574 3.78456,-0.86376 2.94649,-2.1362 -0.37181,-0.56452 -1.30878,-2.26507 -2.08215,-3.77899 -0.77338,-1.51393 -1.58237,-2.85233 -1.79778,-2.97423 -0.2154,-0.1219 -1.95477,-0.92776 -3.86527,-1.79079 -6.17331,-2.78869 -10.530162,-5.43495 -13.161979,-7.99432 l -1.554951,-1.51214 0.112393,-1.54213 c 0.0979,-1.34321 0.574704,-2.46361 3.696458,-8.68588 4.446559,-8.86288 7.906269,-15.22507 10.323549,-18.9844 1.02052,-1.5871 1.81531,-2.92428 1.76621,-2.97151 -0.0491,-0.0472 -1.22039,-0.68374 -2.60284,-1.41448 -3.32018,-1.75499 -6.10467,-2.83646 -9.509024,-3.69323 -2.525703,-0.63563 -3.264279,-0.70301 -7.688889,-0.70148 -4.154492,0.001 -5.243804,0.0894 -7.202435,0.58135 -6.425441,1.61399 -11.773246,4.63477 -16.97003,9.58573 -2.582321,2.46018 -4.643195,5.00743 -7.378789,9.12024 -2.108445,3.16993 -3.277558,4.64132 -3.687828,4.64132 -0.118295,0 -0.215082,-0.40969 -0.215082,-0.91043 0,-0.50073 -0.09972,-0.97205 -0.221588,-1.04737 -0.336945,-0.20825 -1.945807,1.60525 -3.272776,3.68905 -3.028686,4.75608 -5.441146,10.25738 -6.782527,15.46666 -2.088656,8.11135 -1.662915,14.16463 1.212431,17.23861 2.656693,2.84022 5.809811,3.61666 19.515501,4.80563 3.158439,0.27399 14.498187,0.13592 18.618356,-0.22669 z m -17.618917,-4.7649 c -5.257247,-2.6198 -8.449274,-10.72178 -8.125672,-20.62452 0.128602,-3.93542 1.143588,-7.14375 2.259995,-7.14375 0.564223,0 0.587838,1.02945 0.0685,2.9862 -0.37449,1.41101 -0.470384,2.81011 -0.466301,6.80338 0.0058,5.66257 0.356148,7.53966 2.090563,11.20047 1.047283,2.21048 3.552465,4.91626 5.290139,5.71373 1.543886,0.70853 1.78652,0.94284 1.426074,1.37716 -0.432816,0.52151 -1.012278,0.45027 -2.543301,-0.31267 z m 8.487403,-23.0098 c -0.30551,-0.79615 1.667322,-3.38817 5.199284,-6.83114 1.965494,-1.91597 3.989557,-3.8107 4.497916,-4.21051 0.50836,-0.39981 1.579134,-1.24415 2.379498,-1.87631 0.800365,-0.63217 2.645833,-1.96159 4.101042,-2.95428 1.455208,-0.99268 2.92978,-2.02358 3.276827,-2.29087 0.872112,-0.67169 2.147131,-0.65405 2.147131,0.0297 0,0.54343 -0.10262,0.62872 -4.496807,3.7374 -5.384427,3.80922 -12.69905,10.45287 -15.198921,13.80471 -0.76344,1.02362 -1.636171,1.29436 -1.90597,0.59128 z m 161.566274,24.10433 v -3.01948 l -1.78594,-1.26404 c -0.98226,-0.69523 -3.09562,-2.23095 -4.69635,-3.41272 -1.60073,-1.18176 -4.27964,-3.079 -5.95313,-4.21608 l -3.0427,-2.06741 -0.22962,1.49586 c -0.22373,1.45753 -0.20848,1.51605 0.59531,2.2842 0.91822,0.8775 0.97172,1.07917 0.4942,1.8629 -0.3845,0.63106 -0.51272,0.51134 3.37806,3.15418 1.39254,0.94588 4.44349,3.1783 6.7799,4.96093 2.33641,1.78263 4.29577,3.24115 4.35414,3.24115 0.0584,0 0.10613,-1.35877 0.10613,-3.01949 z m -3.26319,2.04935 c -0.097,-0.097 -0.25577,-0.097 -0.35278,0 -0.097,0.097 -0.0176,0.17639 0.17639,0.17639 0.19402,0 0.2734,-0.0794 0.17639,-0.17639 z m 10.18161,-0.73014 c 0.65461,-1.43673 -0.65841,-3.01838 -2.60199,-3.13432 -0.92667,-0.0553 -1.01611,5.7e-4 -1.0944,0.68341 -0.0984,0.85847 0.2133,1.30217 1.64631,2.34322 1.26228,0.91701 1.67153,0.9385 2.05008,0.10769 z m -93.02003,-1.72689 c 1.74187,-1.92805 2.78034,-3.44441 3.7337,-5.4519 0.85449,-1.79933 0.93382,-2.15416 0.81434,-3.64261 -0.2886,-3.59532 -3.05388,-6.76205 -6.74416,-7.72325 -1.74318,-0.45404 -2.85295,-0.32008 -4.60025,0.5553 -1.33393,0.66828 -4.2041,3.15574 -4.2041,3.64352 0,0.16773 0.80367,1.20164 1.78594,2.29759 3.49945,3.90446 6.47666,7.95962 7.64958,10.41927 0.24864,0.5214 0.48986,0.948 0.53605,0.948 0.0462,0 0.50919,-0.47067 1.0289,-1.04592 z m -29.1093,-2.42507 c 0.64653,-0.1628 1.1755,-0.43885 1.1755,-0.61344 0,-0.63648 -0.8475,-3.19914 -1.14717,-3.46881 -0.41057,-0.36945 -5.73317,-2.05878 -5.9147,-1.87725 -0.0782,0.0782 0.0958,0.53545 0.38665,1.01605 0.29089,0.4806 0.97661,1.70725 1.52383,2.7259 0.54721,1.01864 1.11128,2.00091 1.25348,2.18281 0.32001,0.40936 1.19052,0.42047 2.72241,0.0347 z m 96.5309,-1.09307 c 0.61198,-2.14108 1.21751,-4.56815 1.21751,-4.88002 0,-0.35116 -5.01392,-2.0236 -7.67292,-2.55937 -3.54591,-0.71448 -7.56397,-1.22572 -9.6334,-1.22572 -1.68705,0 -2.05334,0.0772 -2.19553,0.46302 -0.0939,0.25467 -0.46391,0.85322 -0.82234,1.33012 -0.35842,0.4769 -0.60531,0.90734 -0.54864,0.95652 0.0567,0.0492 0.75788,0.2989 1.55825,0.55494 2.64086,0.8448 12.81031,4.80228 15.875,6.1778 0.65484,0.29392 1.33337,0.5428 1.50783,0.55308 0.17447,0.0103 0.49588,-0.60639 0.71424,-1.37037 z m 8.89043,0.99218 c 0,-0.0728 -0.0595,-0.13229 -0.13229,-0.13229 -0.0728,0 -0.1323,0.0595 -0.1323,0.13229 0,0.0728 0.0595,0.1323 0.1323,0.1323 0.0728,0 0.13229,-0.0595 0.13229,-0.1323 z m 10.05416,-1.47553 c 0,-0.15671 0.24688,-1.90325 0.54863,-3.8812 0.47768,-3.13129 0.49843,-3.62438 0.16045,-3.81352 -0.2135,-0.11948 -0.90686,-0.63597 -1.54081,-1.14776 -1.49858,-1.20981 -1.47204,-1.18961 -2.93858,-2.23623 -0.69122,-0.49331 -1.25677,-0.9958 -1.25677,-1.11665 0,-0.12085 -0.12265,-0.21973 -0.27255,-0.21973 -0.1499,0 -1.0199,-0.62508 -1.93333,-1.38906 -3.06478,-2.56335 -8.46614,-6.1501 -8.6103,-5.71762 -0.0554,0.16607 -0.25872,0.49355 -0.45193,0.72775 -1.09761,1.33045 -1.96106,2.50667 -1.96106,2.67145 0,0.10367 0.33532,0.65285 0.74514,1.22039 0.40983,0.56753 0.97287,1.68673 1.2512,2.48709 0.57972,1.66698 0.78642,1.87741 3.76481,3.83275 1.2041,0.7905 3.56097,2.4244 5.23749,3.6309 1.67653,1.2065 3.22582,2.3127 3.44287,2.45822 0.21706,0.14552 0.99911,0.83013 1.73789,1.52136 1.29004,1.20699 2.07685,1.57517 2.07685,0.97186 z m -3.96875,-3.02238 c 0,-0.0728 0.0595,-0.13229 0.13229,-0.13229 0.0728,0 0.1323,0.0595 0.1323,0.13229 0,0.0728 -0.0595,0.13229 -0.1323,0.13229 -0.0728,0 -0.13229,-0.0595 -0.13229,-0.13229 z m -0.52916,-0.52917 c 0,-0.0728 0.0595,-0.13229 0.13229,-0.13229 0.0728,0 0.13229,0.0595 0.13229,0.13229 0,0.0728 -0.0595,0.13229 -0.13229,0.13229 -0.0728,0 -0.13229,-0.0595 -0.13229,-0.13229 z m -0.52917,-0.26458 c 0,-0.0728 0.0595,-0.13229 0.13229,-0.13229 0.0728,0 0.13229,0.0595 0.13229,0.13229 0,0.0728 -0.0595,0.13229 -0.13229,0.13229 -0.0728,0 -0.13229,-0.0595 -0.13229,-0.13229 z m -47.625,3.01781 c 3.30097,-0.49971 5.95155,-1.61549 8.51166,-3.58302 1.76884,-1.35942 3.04943,-2.84924 5.99575,-6.97542 2.48983,-3.48687 3.67898,-4.82806 6.22022,-7.01548 2.04578,-1.76094 8.37654,-9.69288 8.37654,-10.49513 0,-0.11515 -0.38696,-0.37128 -0.8599,-0.56918 -1.83677,-0.76857 -14.2438,-7.97767 -18.71927,-10.87683 -0.50932,-0.32993 -2.05713,-1.2893 -3.43958,-2.13192 -1.38245,-0.84262 -2.93026,-1.7938 -3.43958,-2.11372 -0.50933,-0.31993 -2.89058,-1.8131 -5.29167,-3.31815 -2.40109,-1.50505 -6.27063,-3.98351 -8.59896,-5.50769 -2.32833,-1.52418 -6.25739,-4.07691 -8.73125,-5.67272 -2.47385,-1.59582 -6.02186,-3.98776 -7.88446,-5.31543 -4.93645,-3.51874 -4.589,-3.36278 -5.37771,-2.41395 -1.04222,1.2538 -5.33561,7.33422 -7.93995,11.24479 -7.29054,10.94715 -9.26534,15.01127 -9.77515,20.11713 -0.46062,4.61328 1.68746,8.69071 7.81232,14.82914 4.00303,4.0119 4.90276,4.63236 7.00344,4.82966 3.52638,0.33121 7.18718,3.17119 9.05025,7.02104 l 1.01419,2.09571 3.31312,1.58431 c 8.81757,4.2165 15.19495,5.41208 22.75999,4.26686 z m 6.17715,-10.03793 c -3.31839,-0.59435 -6.68327,-2.48047 -8.32742,-4.66779 -1.73397,-2.3068 -1.9431,-2.89862 -1.94711,-5.51001 -0.003,-2.04475 0.0983,-2.59894 0.71808,-3.92177 0.60425,-1.28973 0.81962,-1.52664 1.32292,-1.45521 0.52144,0.074 0.59424,0.22569 0.5489,1.14365 -0.2165,4.38356 -0.20637,4.49887 0.52657,5.99694 1.88392,3.8506 6.34365,6.27773 11.57747,6.30086 0.66212,0.003 1.33296,0.13443 1.49075,0.29222 0.39356,0.39356 0.12553,1.25951 -0.49217,1.59009 -0.72433,0.38765 -3.80912,0.51918 -5.41799,0.23102 z m -24.70767,-9.39908 c -0.35847,-0.38418 -1.09825,-0.87831 -1.64396,-1.09807 -1.03709,-0.41765 -1.29538,-1.08402 -0.63319,-1.63359 0.56686,-0.47045 1.89713,-0.057 3.08326,0.95828 0.83916,0.71828 1.06624,1.08538 1.00391,1.62291 -0.11175,0.96389 -0.98341,1.03634 -1.81002,0.15047 z m -15.60073,-15.25961 c -4.50159,-1.58368 -8.31381,-5.74186 -8.67086,-9.45772 -0.10668,-1.11026 -0.0472,-1.31754 0.45536,-1.58649 0.85591,-0.45808 1.57007,0.13369 2.6269,2.17671 1.99612,3.85881 5.55007,6.26103 9.91657,6.70292 2.27922,0.23065 4.45406,-0.23281 6.90452,-1.47136 2.19941,-1.11166 2.7231,-1.09364 2.42765,0.0835 -0.20063,0.79935 -2.6969,2.53072 -4.86657,3.37536 -2.3212,0.90363 -6.48969,0.98756 -8.79357,0.17704 z m 9.26042,32.49146 c 0,-0.21502 -0.83211,-0.94494 -1.07723,-0.94494 -0.46019,0 -0.24747,0.44744 0.34963,0.73541 0.72484,0.34957 0.7276,0.35037 0.7276,0.20953 z m -35.40334,-3.52463 c 0.34503,-0.69123 1.27031,-2.36999 2.05618,-3.73058 1.11281,-1.92665 1.36891,-2.57038 1.15789,-2.91042 -0.14902,-0.24013 -2.76029,-1.72381 -5.80281,-3.29706 -10.48702,-5.42271 -17.67731,-9.95314 -16.95039,-10.68006 0.0967,-0.0967 0.44323,0.0671 0.77008,0.36409 0.85654,0.77817 5.21058,3.4909 9.0738,5.65332 3.4585,1.93588 13.06697,6.86165 13.38469,6.86165 0.0997,0 0.43991,-0.56555 0.75602,-1.25677 0.3161,-0.69123 0.8098,-1.67349 1.09711,-2.18282 0.28731,-0.50932 0.70228,-1.32864 0.92216,-1.82072 0.3987,-0.89226 0.39712,-0.89691 -0.58194,-1.71979 -0.98496,-0.82783 -6.67649,-4.13311 -11.62216,-6.74941 -5.12484,-2.71108 -10.18645,-5.71479 -10.18645,-6.04494 0,-0.50728 0.1692,-0.44333 2.89356,1.09374 1.39172,0.7852 3.18524,1.78139 3.9856,2.21375 0.80037,0.43237 3.24115,1.77171 5.42396,2.97631 2.18281,1.2046 4.62359,2.55015 5.42396,2.99012 0.80036,0.43996 1.87193,1.05949 2.38125,1.37673 0.50932,0.31724 1.48551,0.82362 2.1693,1.12528 l 1.24327,0.54848 0.54267,-1.12102 c 0.29847,-0.61656 0.54167,-1.29178 0.54045,-1.5005 -10e-4,-0.20872 -0.56677,-0.68566 -1.25677,-1.05988 -11.98468,-6.49982 -16.41048,-9.05549 -19.02117,-10.98375 -1.93344,-1.42805 -2.37842,-1.88109 -2.11063,-2.14887 0.0835,-0.0835 0.83937,0.37093 1.67976,1.00979 2.05379,1.56126 7.99143,5.2626 8.44221,5.2626 0.0499,0 1.07457,0.57774 2.27714,1.28387 3.35389,1.96934 6.59679,3.74321 6.84315,3.74321 0.12201,0 0.69928,0.24887 1.28284,0.55304 0.58357,0.30417 1.16656,0.51253 1.29555,0.46302 0.12899,-0.0495 -0.10031,-0.80439 -0.50955,-1.67751 -0.76449,-1.63104 -1.14936,-3.03188 -1.43399,-5.21935 -0.14111,-1.08449 -0.30463,-1.34807 -1.23107,-1.98438 -1.07879,-0.74094 -4.18446,-3.17282 -5.64795,-4.42259 -0.43657,-0.37281 -1.09141,-0.93191 -1.45521,-1.24245 -0.3638,-0.31053 -1.44593,-1.29257 -2.40473,-2.1823 -0.9588,-0.88972 -2.53638,-2.01601 -3.50573,-2.50286 -0.96935,-0.48685 -1.76246,-0.98341 -1.76246,-1.10346 0,-0.41812 -1.62735,-0.59899 -1.99403,-0.22162 -0.3136,0.32274 -2.13387,3.45795 -4.27874,7.36963 -0.43885,0.80037 -1.60164,2.92285 -2.58398,4.71663 -2.34821,4.28796 -7.137047,14.16231 -7.562516,15.59356 -0.31526,1.06052 -0.297163,1.16886 0.302927,1.81348 2.405459,2.58393 12.539349,7.81183 21.441679,11.0614 3.44784,1.25855 3.74192,1.23832 4.51507,-0.31059 z m 0.47834,-30.75781 c 0,-0.19403 0.0794,-0.27341 0.17639,-0.17639 0.097,0.097 0.097,0.25576 0,0.35278 -0.097,0.097 -0.17639,0.0176 -0.17639,-0.17639 z m 93.60653,27.67692 c -0.0946,-1.47468 -0.29542,-2.24626 -0.81543,-3.13359 -2.03962,-3.48034 -7.78422,-5.02426 -10.93234,-2.93816 -0.92893,0.61555 -3.86393,3.7547 -4.39085,4.69627 -0.17179,0.30696 0.12785,0.40829 1.57507,0.53262 3.72876,0.32035 7.71043,1.02831 10.51848,1.87024 1.60072,0.47994 3.19396,0.88531 3.54052,0.90082 0.62017,0.0278 0.62813,-0.003 0.50455,-1.9282 z m 20.84856,-2.3328 c 0.95536,-4.62781 1.02381,-4.36293 -1.67645,-6.48758 -6.10734,-4.80545 -10.56622,-8.02117 -11.09228,-7.9997 -0.2317,0.009 -3.87468,4.94535 -3.99136,5.40791 -0.0377,0.14944 0.89341,0.92655 2.06911,1.72691 4.17046,2.83905 7.81585,5.61158 12.11333,9.21288 0.92389,0.77421 1.74307,1.34438 1.82042,1.26704 0.0773,-0.0773 0.4181,-1.48471 0.75723,-3.12746 z m -106.64988,0.18237 c 0.87313,-0.32619 2.21258,-0.67785 2.97656,-0.78148 1.54246,-0.20923 1.68667,-0.47935 0.93514,-1.75159 -0.42522,-0.71985 -0.56012,-0.76842 -2.13406,-0.76842 -0.92407,0 -1.90104,0.11822 -2.17102,0.26271 -0.52724,0.28217 -2.12016,3.02377 -2.12016,3.64904 0,0.25911 0.14579,0.31594 0.46302,0.1805 0.25466,-0.10874 1.1774,-0.46458 2.05052,-0.79076 z m -90.478005,-2.07163 c 0.892792,-4.32358 4.182962,-12.1369 6.565175,-15.59062 1.457371,-2.11289 1.341537,-2.26559 -1.35203,-1.78235 -5.262595,0.94414 -8.773565,2.60457 -11.726869,5.54594 -3.338234,3.32474 -4.451449,6.62883 -3.178078,9.43272 0.53888,1.18658 1.496172,1.98302 2.949627,2.45401 1.24753,0.40426 5.555649,1.02734 6.12226,0.88545 0.24773,-0.062 0.52478,-0.48444 0.619915,-0.94515 z m 98.144955,0.63187 c 0.16403,-0.2654 -0.87334,-1.4675 -1.08432,-1.25651 -0.16948,0.16948 0.47002,1.51144 0.72027,1.51144 0.11357,0 0.2774,-0.11472 0.36405,-0.25493 z m 2.78409,-1.83596 c 0,-0.27758 -5.6455,-5.84555 -5.78525,-5.7058 -0.18372,0.18372 1.30303,2.00052 3.38776,4.13982 1.76538,1.8116 2.39749,2.22447 2.39749,1.56598 z m -6.61458,-2.11383 c 0,-0.35322 -1.6792,-2.38046 -1.98483,-2.3962 -0.24974,-0.0129 -1.45707,2.00592 -1.45549,2.43374 4e-4,0.10914 0.77464,0.19843 1.72053,0.19843 0.94588,0 1.71979,-0.10618 1.71979,-0.23597 z m 104.60818,-4.32809 c 0.39877,-2.07367 0.78801,-4.07734 0.86498,-4.45259 0.12732,-0.62074 -0.11858,-0.85708 -2.72651,-2.62057 -1.57655,-1.06606 -3.3003,-2.27708 -3.83056,-2.69116 -0.53027,-0.41408 -1.06605,-0.75551 -1.19063,-0.75875 -0.12458,-0.003 -0.52416,-0.23871 -0.88797,-0.52328 -0.3638,-0.28457 -0.93637,-0.52005 -1.27238,-0.52329 -0.33882,-0.003 -0.5381,-0.12372 -0.44741,-0.27046 0.0899,-0.14552 0.0374,-0.26459 -0.11668,-0.26459 -0.1541,0 -0.28019,0.12162 -0.28019,0.27026 0,0.23996 -1.23736,2.30004 -1.58578,2.64016 -0.24459,0.23877 -2.11839,3.1635 -2.11839,3.30651 0,0.0768 0.62508,0.55251 1.38906,1.05712 3.26962,2.15958 6.29291,4.51007 8.58653,6.67569 1.33114,1.25686 2.22642,1.92526 2.57875,1.92526 0.19129,0 0.59288,-1.45985 1.03718,-3.77031 z m -2.7436,-6.94531 c 0,-0.0728 0.0595,-0.13229 0.13229,-0.13229 0.0728,0 0.13229,0.0595 0.13229,0.13229 0,0.0728 -0.0595,0.13229 -0.13229,0.13229 -0.0728,0 -0.13229,-0.0595 -0.13229,-0.13229 z m -1.32292,-1.05833 c 0,-0.0728 0.0595,-0.1323 0.13229,-0.1323 0.0728,0 0.13229,0.0595 0.13229,0.1323 0,0.0728 -0.0595,0.13229 -0.13229,0.13229 -0.0728,0 -0.13229,-0.0595 -0.13229,-0.13229 z m -17.55029,7.34218 c 7.17795,-9.68314 8.57644,-11.71406 9.91931,-14.40495 1.37935,-2.764 0.8972,-4.88938 -1.84905,-8.15078 -2.86461,-3.40195 -10.48826,-10.47651 -13.86182,-12.86343 -0.80677,-0.57082 -0.99249,-0.59595 -2.65204,-0.35876 -0.98148,0.14028 -2.22987,0.49376 -2.7742,0.7855 -0.54433,0.29175 -1.20776,0.53045 -1.47429,0.53045 -0.26653,0 -0.89035,0.30948 -1.38627,0.68774 -0.49593,0.37826 -1.75615,0.95866 -2.8005,1.28977 l -1.89882,0.60203 -0.44454,1.43675 c -0.2445,0.79022 -0.77562,2.04505 -1.18027,2.78853 -0.40465,0.74347 -0.65546,1.48165 -0.55736,1.64038 0.0981,0.15874 0.91513,0.78284 1.81561,1.38688 6.59598,4.42463 14.78552,11.42884 16.21502,13.8681 0.93823,1.60098 1.23388,2.80693 0.90208,3.67962 -0.27467,0.72245 -5.96754,8.76295 -6.38864,9.02321 -0.51202,0.31645 -0.15071,0.57167 1.2545,0.88614 0.8152,0.18243 1.97605,0.55595 2.57969,0.83004 0.60363,0.27409 1.18638,0.50096 1.29501,0.50416 0.10863,0.003 1.58759,-1.86942 3.28658,-4.16138 z m 23.63275,-9.23115 c 0.31713,-1.47549 0.53682,-2.96377 0.48821,-3.30729 -0.0712,-0.50317 -0.67726,-0.9195 -3.11801,-2.14188 -2.50014,-1.25212 -6.52775,-2.84832 -7.18702,-2.84832 -0.0884,0 -0.22794,0.56791 -0.31015,1.26202 -0.0822,0.69411 -0.32506,1.77167 -0.53966,2.39457 l -0.3902,1.13255 1.09812,0.6846 c 2.17124,1.35361 5.36587,3.55509 7.18354,4.95032 2.14238,1.64447 1.92962,1.80751 2.77517,-2.12657 z m -28.70447,-0.81476 c -0.80379,-1.26198 -5.18665,-5.40592 -7.95238,-7.51887 -3.04786,-2.32849 -9.97976,-6.9597 -12.99976,-8.68515 -2.77365,-1.5847 -12.91859,-7.84901 -26.01126,-16.06146 -2.90286,-1.82083 -9.2166,-5.0782 -10.90111,-5.62408 -1.13145,-0.36665 -2.23029,5.6e-4 -1.87115,0.6253 0.29871,0.51963 4.27762,3.41545 7.48059,5.44433 1.52797,0.96787 4.74266,3.04884 7.14375,4.62438 8.21026,5.38737 10.1923,6.66367 16.00729,10.30756 3.20146,2.00616 6.41615,4.03582 7.14375,4.51037 4.6723,3.04729 22.14646,13.396 22.32246,13.22 0.0586,-0.0586 -0.1044,-0.43765 -0.36218,-0.84238 z m 30.58909,-8.69443 0.92098,-4.65128 -0.67372,-0.34371 c -2.43485,-1.24218 -12.01342,-2.64852 -14.65888,-2.15223 -1.22492,0.2298 -1.23316,0.68406 -0.0378,2.08063 0.50932,0.59503 0.92604,1.22911 0.92604,1.40907 0,0.17996 0.094,0.36689 0.20897,0.4154 0.11494,0.0485 0.50864,0.78894 0.87489,1.6454 l 0.66591,1.55721 2.10168,0.71606 c 2.29222,0.78098 5.46113,2.23382 7.12876,3.26832 0.58208,0.36109 1.18519,0.66775 1.34023,0.68147 0.15862,0.014 0.68469,-2.00926 1.20289,-4.62634 z m -7.17333,-6.32893 c 0,-0.0728 0.0595,-0.13229 0.13229,-0.13229 0.0728,0 0.13229,0.0595 0.13229,0.13229 0,0.0728 -0.0595,0.13229 -0.13229,0.13229 -0.0728,0 -0.13229,-0.0595 -0.13229,-0.13229 z m -106.62177,8.7974 c 0.45198,-1.75083 1.56823,-4.63619 2.63573,-6.81302 2.31122,-4.71303 13.25312,-21.08132 16.20232,-24.23751 1.63307,-1.74768 3.45132,-2.61045 5.49831,-2.60899 1.44165,0.001 2.04419,0.15901 3.7256,0.97688 2.52418,1.22781 8.84902,4.77839 13.34002,7.48872 4.07288,2.45799 9.71613,5.6809 9.94714,5.6809 0.15765,0 0.95713,-2.80407 1.22728,-4.30453 0.0939,-0.52128 -0.19647,-1.38029 -1.00635,-2.97753 -1.10634,-2.18194 -1.14116,-2.3283 -1.24189,-5.22047 -0.0687,-1.97258 0.0255,-3.57426 0.27936,-4.75164 0.43691,-2.02608 0.45227,-1.9967 -1.66491,-3.18361 -5.10515,-2.86199 -14.22709,-7.17047 -18.38854,-8.68529 -2.13007,-0.77537 -2.69026,-0.86893 -5.31072,-0.88697 -2.7963,-0.0192 -2.97251,0.0126 -3.87641,0.70092 -0.96939,0.73818 -2.78801,3.54618 -6.81576,10.5237 -3.388,5.86924 -9.6468,16.43148 -11.83708,19.97604 -1.69215,2.73843 -2.871,4.53778 -6.5437,9.98802 -0.36773,0.54571 -0.80179,0.99219 -0.96458,0.99219 -0.41153,0 -2.27267,-1.91432 -7.93073,-8.15734 -2.68135,-2.95857 -5.88722,-6.49201 -7.12415,-7.8521 -1.83844,-2.0215 -4.86308,-5.40988 -8.54272,-9.57008 -0.2804,-0.31702 -0.4585,-0.73036 -0.39577,-0.91853 0.13444,-0.40332 0.0546,-0.48263 5.21272,5.1762 2.09817,2.30183 4.28893,4.52856 4.86835,4.94829 0.57942,0.41973 0.98625,0.76315 0.90407,0.76315 -0.25017,0 1.37259,1.79358 4.50179,4.97568 1.63711,1.66479 2.97656,3.07771 2.97656,3.13981 0,0.0621 0.82421,0.9702 1.83157,2.01799 1.00736,1.04778 2.08756,2.23248 2.40045,2.63266 0.31289,0.40018 0.67283,0.7276 0.79987,0.7276 0.12704,0 0.90458,-1.2558 1.72788,-2.79067 l 1.49689,-2.79067 -0.6881,-0.97964 c -0.37845,-0.5388 -1.65406,-1.99167 -2.83469,-3.2286 -1.18063,-1.23692 -2.45632,-2.66567 -2.83487,-3.175 -1.26938,-1.70789 -6.70438,-7.82056 -11.05677,-12.43541 -2.57996,-2.73553 -4.60056,-5.07433 -4.60056,-5.32505 0,-0.12716 0.15587,-0.2312 0.34638,-0.2312 0.42586,0 2.2736,1.98608 18.04216,19.39303 2.32833,2.57026 4.3524,4.67101 4.49792,4.66834 0.14552,-0.003 0.56224,-0.62509 0.92604,-1.38315 0.3638,-0.75807 1.11521,-2.13247 1.66979,-3.05423 0.99103,-1.64715 1.0005,-1.68804 0.55204,-2.38173 -0.97008,-1.50052 -6.30813,-7.74169 -14.37615,-16.80837 -5.24179,-5.89063 -5.53221,-6.25473 -4.98891,-6.25473 0.19005,0 1.47589,1.27567 2.85741,2.83482 1.38152,1.55915 2.86905,3.21945 3.30561,3.68957 0.43656,0.47011 1.38906,1.54117 2.11667,2.38012 0.7276,0.83896 2.04265,2.30404 2.92232,3.25575 0.87968,0.9517 2.62753,2.92099 3.88411,4.3762 3.39984,3.93726 5.17661,5.83224 5.32721,5.68164 0.0739,-0.0739 0.92339,-1.54439 1.88769,-3.26767 l 1.75328,-3.13324 -0.72424,-1.04507 c -0.39832,-0.57478 -2.50564,-3.09185 -4.68292,-5.59349 -2.17728,-2.50163 -4.56723,-5.25267 -5.31099,-6.11343 -0.74376,-0.86075 -1.47208,-1.69419 -1.61849,-1.85208 -3.0156,-3.2521 -5.94209,-6.88462 -5.723,-7.10371 0.17913,-0.17913 0.38076,-0.14417 0.61437,0.10651 3.09996,3.3265 10.46186,11.7414 15.59855,17.82965 2.81345,3.33464 2.66264,3.25547 3.37315,1.77082 0.32867,-0.68677 1.08335,-2.06011 1.67707,-3.05187 1.05912,-1.76917 1.07174,-1.81942 0.66904,-2.66389 -0.22574,-0.47339 -2.12262,-3.05524 -4.21528,-5.73744 -2.09266,-2.6822 -4.57545,-5.87124 -5.51731,-7.08675 -0.94186,-1.21551 -2.51251,-3.22706 -3.49032,-4.47013 -1.86258,-2.36782 -2.23324,-3.48768 -0.52112,-1.5744 0.97393,1.08836 3.02387,3.63923 4.82624,6.00559 0.49877,0.65485 1.17597,1.48707 1.50489,1.84938 0.32892,0.36232 0.59804,0.74621 0.59804,0.85311 0,0.10689 0.6886,1.00107 1.53022,1.98707 0.84162,0.98601 2.57577,3.13219 3.85366,4.7693 1.27789,1.63711 2.36723,2.97656 2.42076,2.97656 0.0535,0 0.81927,-1.33945 1.70163,-2.97656 0.88237,-1.63711 1.81091,-3.30399 2.06342,-3.70417 0.42977,-0.68108 0.43097,-0.77412 0.0188,-1.45521 -0.89119,-1.47254 -6.5123,-9.4859 -9.27337,-13.21994 -2.7266,-3.68742 -3.1057,-4.3087 -2.62919,-4.3087 0.54536,0 3.90182,4.40698 8.86655,11.64166 3.64377,5.30974 4.06752,5.81773 4.39818,5.27243 0.13878,-0.22887 0.79406,-1.15202 1.45619,-2.05146 l 1.20387,-1.63534 -4.02729,-6.15063 c -2.21502,-3.38284 -4.65586,-7.09158 -5.42411,-8.24164 -1.32504,-1.98359 -1.59653,-2.53919 -1.24078,-2.53919 0.2685,0 1.08723,1.09075 3.07832,4.10104 1.05877,1.60073 2.02058,3.02948 2.13736,3.175 0.4072,0.50741 5.99346,8.99776 6.08145,9.24297 0.0488,0.13593 0.61717,0.0326 1.26308,-0.2295 0.64592,-0.26215 1.7697,-0.55479 2.49731,-0.65032 1.21323,-0.15929 1.3193,-0.22977 1.27926,-0.85002 -0.024,-0.37198 -0.28759,-1.20258 -0.58573,-1.84577 -0.29814,-0.64319 -1.05691,-2.53866 -1.68615,-4.21215 -1.1385,-3.02784 -3.20208,-6.62673 -6.20486,-10.82124 -1.46838,-2.05116 -1.62477,-2.40793 -1.05554,-2.40793 0.3603,0 1.23665,1.14169 3.45258,4.49792 3.09299,4.68462 4.94751,8.18144 6.77044,12.76615 0.75264,1.89289 1.26703,2.84427 1.53785,2.84427 0.72936,0 0.21487,-4.8514 -0.74356,-7.01146 -0.12913,-0.29104 -0.60109,-1.48167 -1.04878,-2.64583 -0.4477,-1.16417 -1.1128,-2.75907 -1.47799,-3.54422 -0.3652,-0.78515 -1.31958,-2.98781 -2.12085,-4.89479 -0.80127,-1.90698 -1.63079,-3.73513 -1.84338,-4.06256 -0.21259,-0.32742 -0.29118,-0.59531 -0.17465,-0.59531 0.39197,0 1.18431,1.13049 1.8371,2.62111 0.35646,0.81397 0.9221,2.07525 1.25698,2.80285 0.33488,0.7276 1.12196,2.4849 1.74907,3.9051 1.06165,2.40429 1.98466,3.83997 2.27932,3.54531 0.0689,-0.0688 -0.0474,-0.46368 -0.25826,-0.87739 -0.26936,-0.52837 -0.43057,-2.1299 -0.54182,-5.3824 -0.1279,-3.73948 -0.42346,-7.14184 -0.79008,-9.09505 -0.0615,-0.32776 0.42581,-0.45936 0.80643,-0.21778 0.68417,0.43425 1.8983,6.22409 2.18397,10.41473 0.15213,2.23161 0.40973,5.84342 0.57244,8.02623 0.16271,2.18281 0.3501,4.76573 0.41642,5.73982 0.0663,0.9741 0.25991,1.87505 0.43019,2.00212 0.53165,0.39674 2.64479,1.12356 2.80394,0.96442 0.0833,-0.0833 0.14978,-4.57666 0.14768,-9.98518 -0.003,-7.83641 -0.0996,-10.59508 -0.47532,-13.58247 -0.25933,-2.06184 -0.58503,-4.14465 -0.72379,-4.62847 -0.31596,-1.10168 -0.31554,-1.28003 0.003,-1.28003 0.493,0 0.79074,1.02181 1.19392,4.09745 0.65429,4.99119 0.9158,9.83856 0.94227,17.46609 0.0136,3.92906 0.0917,7.42094 0.17345,7.75972 0.10827,0.44864 0.70278,0.88676 2.18848,1.61278 1.1219,0.54825 2.4252,1.13116 2.89622,1.29536 l 0.8564,0.29854 -0.0766,-0.88954 c -0.0422,-0.48925 0.0562,-1.05169 0.21866,-1.24987 0.69027,-0.84225 1.72137,-15.38004 1.76605,-24.89987 0.0272,-5.79123 0.11836,-7.87094 0.3451,-7.87135 1.0726,-0.002 0.60421,14.61696 -1.09623,34.21447 l -0.13354,1.53899 3.37122,1.57823 c 1.85418,0.86803 3.57407,1.6911 3.82198,1.82903 0.24792,0.13794 0.50323,0.16394 0.56737,0.0578 0.26832,-0.44412 1.42873,-7.53225 2.26234,-13.81906 0.97104,-7.32322 1.78358,-15.566 2.04197,-20.71468 0.1722,-3.43124 0.41613,-4.494 0.80116,-3.49061 0.0917,0.23898 0.0264,2.7766 -0.14515,5.63917 -0.42024,7.01289 -1.06801,12.80809 -2.79982,25.04841 -0.20588,1.45521 -0.4479,3.47927 -0.53782,4.49792 -0.0899,1.01864 -0.21501,2.17074 -0.278,2.56021 -0.0859,0.53143 0.0595,0.84503 0.58295,1.25677 0.92443,0.72715 1.25648,0.6923 1.7051,-0.17896 1.26481,-2.45642 3.6163,-4.99658 5.57079,-6.01779 l 1.22581,-0.64048 1.11783,-4.70759 c 0.6148,-2.58917 1.45392,-6.0768 1.86471,-7.75029 0.65656,-2.6747 1.11322,-4.72503 2.50448,-11.24479 0.18632,-0.87313 0.41609,-2.24337 0.5106,-3.04499 0.19955,-1.69259 0.52268,-2.37643 0.93029,-1.96882 0.18819,0.1882 -0.0485,1.83717 -0.75911,5.28946 -1.05334,5.11705 -3.90225,17.54667 -4.7883,20.89102 -0.26988,1.01864 -0.40907,1.93541 -0.30932,2.03727 0.0998,0.10185 0.71715,0.0614 1.37199,-0.0899 0.65485,-0.15128 2.73844,-0.23461 4.63021,-0.18518 l 3.43958,0.0899 2.18427,-6.08542 c 1.20135,-3.34698 2.89062,-8.33031 3.75393,-11.07406 0.86331,-2.74376 1.63656,-5.05556 1.71833,-5.13733 0.39934,-0.39933 0.47496,0.35533 0.16012,1.59788 -0.58576,2.31179 -3.31014,10.61925 -5.17035,15.76601 -0.96545,2.67116 -1.70203,4.99565 -1.63684,5.16553 0.0652,0.16988 0.93629,0.59292 1.93578,0.94009 0.9995,0.34717 2.87209,1.15581 4.16132,1.79698 1.28923,0.64116 2.48339,1.11229 2.65368,1.04694 0.99804,-0.38298 11.56196,-17.54029 11.52794,-18.723 -0.0113,-0.39261 -0.14635,-0.50448 -5.67776,-4.70306 -5.7214,-4.34281 -9.77894,-6.90192 -15.61042,-9.8456 -6.15888,-3.10895 -8.61866,-4.07616 -13.89062,-5.46197 -4.54457,-1.1946 -9.77778,-1.47902 -13.79971,-0.75001 -6.34072,1.14932 -14.4047,3.66156 -16.62737,5.18007 -0.3638,0.24855 -0.95912,0.54306 -1.32292,0.65448 -0.70285,0.21525 -2.60801,1.22879 -6.48229,3.44857 -6.16923,3.53467 -13.53695,8.43642 -20.4662,13.61619 -1.65471,1.23693 -3.50127,2.59933 -4.10347,3.02756 -5.14452,3.6583 -14.99963,12.53378 -18.74781,16.88422 -4.45614,5.17216 -5.801987,7.92744 -4.957363,10.14897 1.082833,2.84808 13.499063,17.58685 21.817503,25.89862 3.07142,3.06897 8.15532,7.49082 8.65391,7.52698 0.10353,0.007 0.31887,-0.49237 0.47853,-1.11083 z m 36.50719,-49.67552 c 0,-0.19403 0.0794,-0.2734 0.17639,-0.17639 0.097,0.097 0.097,0.25577 0,0.35278 -0.097,0.097 -0.17639,0.0176 -0.17639,-0.17639 z m -1.19062,-0.52917 c -0.20696,-0.33485 0.1433,-0.33485 0.66145,0 0.34203,0.22104 0.33504,0.25704 -0.0505,0.26054 -0.24607,0.002 -0.52099,-0.11502 -0.61092,-0.26054 z m -1.13905,-0.66145 c 0.005,-0.43657 0.0647,-0.58313 0.13177,-0.3257 0.0671,0.25743 0.0627,0.61462 -0.01,0.79375 -0.0725,0.17913 -0.12736,-0.0315 -0.12197,-0.46805 z m 2.32967,0.52916 c 0,-0.0728 0.0595,-0.13229 0.13229,-0.13229 0.0728,0 0.13229,0.0595 0.13229,0.13229 0,0.0728 -0.0595,0.13229 -0.13229,0.13229 -0.0728,0 -0.13229,-0.0595 -0.13229,-0.13229 z m 0.79375,0 c 0,-0.0728 0.0595,-0.13229 0.13229,-0.13229 0.0728,0 0.13229,0.0595 0.13229,0.13229 0,0.0728 -0.0595,0.13229 -0.13229,0.13229 -0.0728,0 -0.13229,-0.0595 -0.13229,-0.13229 z m -2.64583,-0.66146 c 0,-0.19402 0.0794,-0.2734 0.17639,-0.17639 0.097,0.097 0.097,0.25577 0,0.35278 -0.097,0.097 -0.17639,0.0176 -0.17639,-0.17639 z m 0.61736,-0.44097 c 0.097,-0.097 0.25576,-0.097 0.35278,0 0.097,0.097 0.0176,0.17639 -0.17639,0.17639 -0.19403,0 -0.27341,-0.0794 -0.17639,-0.17639 z m -0.61736,-0.35278 c 0,-0.19402 0.0794,-0.2734 0.17639,-0.17639 0.097,0.097 0.097,0.25577 0,0.35278 -0.097,0.097 -0.17639,0.0176 -0.17639,-0.17639 z m -49.74167,43.26858 c 0,-0.24514 -1.64838,-1.99358 -1.87949,-1.99358 -0.54794,0 -0.155,0.71145 0.76179,1.37927 1.05587,0.76913 1.1177,0.80312 1.1177,0.61431 z m 131.00988,-2.78733 c 0.41135,-1.52797 0.74898,-2.86283 0.75027,-2.96636 0.006,-0.47376 -2.43867,-0.78205 -5.41277,-0.68262 -2.85693,0.0955 -3.42835,0.20058 -5.56509,1.0232 -1.30969,0.50421 -3.21469,1.39057 -4.23334,1.9697 l -1.85208,1.05296 3.70417,0.18206 c 2.78428,0.13685 4.47214,0.37771 6.79664,0.96988 1.70087,0.43329 3.30821,0.91572 3.57188,1.07207 1.13432,0.67259 1.45449,0.29803 2.24032,-2.62089 z m -17.63318,-0.26626 c 4.39364,-2.68921 7.80709,-4.05626 11.32506,-4.53556 1.69889,-0.23147 2.51162,-0.20169 4.55979,0.16709 1.37083,0.24683 2.58183,0.44514 2.69112,0.44071 0.32161,-0.0131 2.59862,-9.50954 2.34174,-9.76643 -0.12884,-0.12883 -2.6379,0.57544 -4.28056,1.20152 -0.74348,0.28337 -1.80681,0.60058 -2.36295,0.70491 -0.77265,0.14495 -0.92187,0.25125 -0.6326,0.45065 0.27759,0.19135 0.21639,0.21521 -0.22944,0.0895 -0.3344,-0.0943 -0.75112,-0.0584 -0.92604,0.0798 -0.17492,0.13819 -0.97288,0.49244 -1.77324,0.78723 -1.83152,0.67457 -7.035,3.35228 -9.12812,4.69732 -2.40419,1.54493 -5.42396,3.82364 -5.42396,4.09291 0,0.13154 0.22212,0.39475 0.4936,0.5849 0.27148,0.19015 0.50606,0.4377 0.52129,0.55011 0.0271,0.20025 0.90991,1.49073 1.03097,1.5071 0.0338,0.005 0.84082,-0.46869 1.79334,-1.0517 z m -1.72254,0.39855 c 0,-0.0728 0.0595,-0.13229 0.1323,-0.13229 0.0728,0 0.13229,0.0595 0.13229,0.13229 0,0.0728 -0.0595,0.13229 -0.13229,0.13229 -0.0728,0 -0.1323,-0.0595 -0.1323,-0.13229 z m -0.64444,-0.5839 c -0.14359,-0.37708 -0.1132,-0.40747 0.14811,-0.14811 0.18082,0.17948 0.26211,0.39297 0.18065,0.47443 -0.0815,0.0815 -0.2294,-0.0654 -0.32876,-0.32632 z m -0.81076,-1.40047 c 0.0899,-0.14552 0.21602,-0.26458 0.28019,-0.26458 0.0642,0 0.11668,0.11906 0.11668,0.26458 0,0.14552 -0.12609,0.26458 -0.2802,0.26458 -0.15411,0 -0.20661,-0.11906 -0.11667,-0.26458 z m 2.77812,-1.45521 c 0,-0.0728 0.0595,-0.13229 0.13229,-0.13229 0.0728,0 0.13229,0.0595 0.13229,0.13229 0,0.0728 -0.0595,0.13229 -0.13229,0.13229 -0.0728,0 -0.13229,-0.0595 -0.13229,-0.13229 z m 5.64444,-4.27743 c 0.097,-0.097 0.25577,-0.097 0.35278,0 0.097,0.097 0.0176,0.17639 -0.17639,0.17639 -0.19402,0 -0.2734,-0.0794 -0.17639,-0.17639 z m 7.05556,-2.07257 c 0,-0.0728 0.0595,-0.13229 0.13229,-0.13229 0.0728,0 0.13229,0.0595 0.13229,0.13229 0,0.0728 -0.0595,0.13229 -0.13229,0.13229 -0.0728,0 -0.13229,-0.0595 -0.13229,-0.13229 z m 0,-1.05833 c 0,-0.0728 0.0595,-0.13229 0.13229,-0.13229 0.0728,0 0.13229,0.0595 0.13229,0.13229 0,0.0728 -0.0595,0.13229 -0.13229,0.13229 -0.0728,0 -0.13229,-0.0595 -0.13229,-0.13229 z m -44.02617,8.04803 c 0.68551,-1.74725 0.69312,-1.82743 0.27296,-2.87752 -0.23771,-0.5941 -0.4322,-1.12034 -0.4322,-1.16943 0,-0.0491 0.74414,-0.16568 1.65364,-0.25911 2.26734,-0.23292 4.55352,-1.40036 6.17523,-3.15338 2.47264,-2.67286 6.02033,-7.44081 6.52879,-8.77444 0.70739,-1.8554 0.52357,-3.72918 -0.44782,-4.56473 -1.03093,-0.88677 -1.64051,-0.78855 -2.0448,0.32948 -0.27834,0.76975 -0.63282,1.0801 -1.95367,1.71049 -2.66653,1.27261 -3.92788,2.59161 -5.44112,5.68976 -0.73069,1.49599 -1.55433,2.92433 -1.83032,3.1741 -0.27599,0.24977 -1.01264,0.50833 -1.63701,0.57459 -0.93052,0.0987 -1.35495,-0.0208 -2.35386,-0.66274 -1.67425,-1.07603 -2.48859,-2.75207 -2.46655,-5.07656 0.0144,-1.51737 0.17671,-2.04679 1.37905,-4.49792 1.12049,-2.28428 1.4159,-3.19092 1.66179,-5.10031 0.35621,-2.76605 0.0895,-3.41923 -1.60354,-3.92646 -1.92369,-0.57635 -3.89717,0.45987 -5.00264,2.62677 -0.83855,1.6437 -1.87433,5.50019 -2.11502,7.8748 -0.43603,4.30176 0.46753,7.15344 3.19578,10.0861 1.40112,1.50611 1.9094,2.46202 1.3091,2.46202 -0.2795,0 -4.15513,-3.03634 -5.01395,-3.92816 -0.37495,-0.38935 -0.70926,-0.54275 -0.85822,-0.39379 -0.31342,0.31342 -1.83486,4.80288 -1.83486,5.4143 0,0.76387 0.40629,0.80237 2.58833,0.24525 1.14512,-0.29238 2.90728,-0.60829 3.91591,-0.70203 l 1.83387,-0.17045 0.46373,0.97246 c 0.25506,0.53484 0.69721,2.0206 0.98256,3.30168 0.28536,1.28108 0.64503,2.66115 0.79927,3.06683 l 0.28043,0.73761 0.64499,-0.60594 c 0.35475,-0.33327 0.96232,-1.41474 1.35015,-2.40327 z m -5.06316,0.2202 c -0.29135,-1.36561 -0.85934,-2.57421 -1.28688,-2.73827 -0.54964,-0.21092 -3.14075,0.2335 -3.23846,0.55545 -0.0442,0.14552 0.41065,0.56224 1.01071,0.92605 0.60006,0.3638 1.57886,0.98671 2.1751,1.38424 1.39578,0.93062 1.5619,0.91481 1.33953,-0.12747 z m 33.91802,-1.94272 c 6.25666,-4.6658 12.00031,-7.43969 20.26454,-9.78676 2.00091,-0.56826 3.63802,-1.13892 3.63802,-1.26812 0,-0.48905 -2.23173,-4.39876 -2.51089,-4.39876 -0.73732,0 -12.59845,7.74899 -17.87876,11.68036 -4.1617,3.09854 -6.06868,4.72315 -6.06868,5.1701 0,0.1911 0.0488,0.34746 0.10838,0.34746 0.0596,0 1.16093,-0.78493 2.44739,-1.74428 z m -2.95265,-1.11046 c 0.43656,-0.40459 1.16643,-0.96959 1.62193,-1.25554 1.3981,-0.87773 6.30749,-4.20383 6.44786,-4.36843 0.0728,-0.0853 0.84667,-0.61257 1.71979,-1.17168 3.02669,-1.93815 4.24309,-2.72138 6.21771,-4.00351 2.35572,-1.52957 2.38371,-1.54697 4.53522,-2.81882 1.8657,-1.1029 2.87312,-1.88377 2.87312,-2.22702 0,-0.1245 -0.49372,-1.05791 -1.09716,-2.07425 -0.60343,-1.01634 -1.42609,-2.50273 -1.82812,-3.30309 -1.43082,-2.84851 -1.19311,-2.84051 -3.99985,-0.13467 -4.69461,4.52584 -14.12193,13.81911 -17.28425,17.03848 -3.01972,3.0742 -3.14971,3.25114 -2.65782,3.6179 0.45448,0.33887 0.54429,0.33719 0.74075,-0.0139 0.12297,-0.21973 0.41471,-0.3995 0.64831,-0.3995 0.38257,0 0.38053,0.0488 -0.0205,0.492 -0.41997,0.46406 -0.41103,0.51586 0.15743,0.91216 0.83103,0.57936 1.01774,0.55122 1.9256,-0.29015 z m 9.92188,-7.5963 c 0,-0.0728 0.0595,-0.13229 0.13229,-0.13229 0.0728,0 0.13229,0.0595 0.13229,0.13229 0,0.0728 -0.0595,0.13229 -0.13229,0.13229 -0.0728,0 -0.13229,-0.0595 -0.13229,-0.13229 z m 2.11666,-2.38125 c 0,-0.0728 0.0595,-0.13229 0.13229,-0.13229 0.0728,0 0.1323,0.0595 0.1323,0.13229 0,0.0728 -0.0595,0.13229 -0.1323,0.13229 -0.0728,0 -0.13229,-0.0595 -0.13229,-0.13229 z m 2.64584,-5.02709 c 0,-0.0728 0.0595,-0.13229 0.13229,-0.13229 0.0728,0 0.13229,0.0595 0.13229,0.13229 0,0.0728 -0.0595,0.1323 -0.13229,0.1323 -0.0728,0 -0.13229,-0.0595 -0.13229,-0.1323 z m 3.43958,-3.70416 c 0,-0.0728 0.0595,-0.13229 0.13229,-0.13229 0.0728,0 0.13229,0.0595 0.13229,0.13229 0,0.0728 -0.0595,0.13229 -0.13229,0.13229 -0.0728,0 -0.13229,-0.0595 -0.13229,-0.13229 z m 1.85208,-1.85209 c 0,-0.0728 0.0595,-0.13229 0.13229,-0.13229 0.0728,0 0.1323,0.0595 0.1323,0.13229 0,0.0728 -0.0595,0.1323 -0.1323,0.1323 -0.0728,0 -0.13229,-0.0595 -0.13229,-0.1323 z m -9.26041,3.42772 c 1.67349,-1.5942 4.0964,-3.88697 5.38424,-5.09504 2.2499,-2.11053 2.32959,-2.22443 2.03613,-2.91042 -0.59885,-1.39984 -3.06504,-4.68267 -3.51782,-4.68267 -0.46497,0 -13.8643,13.16373 -16.59633,16.30452 -0.83841,0.96385 -1.7434,2.33307 -2.01109,3.04271 -0.57397,1.52159 -1.45593,2.96911 -2.82378,4.6346 -0.5457,0.66445 -0.99219,1.34291 -0.99219,1.50769 0,0.16479 0.68461,0.8434 1.52136,1.50802 l 1.52135,1.20841 6.21771,-6.30964 c 3.41974,-3.4703 7.58693,-7.61399 9.26042,-9.20818 z M 211.233,-189.3329 c 1.84119,-0.92006 2.90279,-1.95353 4.16088,-4.05063 2.06839,-3.44778 2.1797,-7.01422 0.30698,-9.8356 -1.77782,-2.67839 -6.19868,-6.32473 -10.00994,-8.25623 -5.02736,-2.54781 -10.83971,-3.63127 -13.95469,-2.60125 -2.90739,0.96137 -4.93429,2.86893 -6.45123,6.07141 -1.39701,2.94928 -1.84547,5.0954 -1.85399,8.87246 -0.007,3.02704 0.0471,3.40258 0.63658,4.43177 0.35422,0.61847 0.75071,1.12448 0.8811,1.12448 0.13526,0 0.16312,-1.10777 0.0649,-2.57968 -0.30675,-4.59542 1.40947,-10.68995 3.74033,-13.28243 1.01714,-1.13131 1.48312,-1.42116 3.04968,-1.89698 1.62082,-0.49232 2.03313,-0.52469 3.34003,-0.26222 0.82002,0.16468 1.96702,0.61447 2.54889,0.99954 0.58188,0.38507 1.53847,0.74884 2.12576,0.80838 2.63319,0.26698 5.63125,1.70757 7.93444,3.81255 0.77531,0.70859 1.66676,1.28834 1.981,1.28834 1.47882,0 3.76877,2.18587 4.28161,4.087 0.60526,2.24375 -0.2567,5.00346 -2.40095,7.68696 -1.42922,1.78866 -2.92308,3.91652 -2.92308,4.16366 0,0.41246 1.01926,0.17926 2.54174,-0.58153 z m -12.30433,-4.97119 c 1.7979,-3.78751 3.50511,-5.72932 6.38808,-7.26593 1.87049,-0.99696 1.93977,-1.49205 0.4068,-2.90728 -1.25134,-1.15522 -4.97129,-3.1221 -5.90483,-3.1221 -1.21476,0 -1.44621,0.2528 -1.44621,1.57969 0,2.17415 -0.46754,3.8627 -1.84268,6.65504 -1.7408,3.53481 -1.75115,4.81238 -0.0506,6.24989 1.1378,0.96182 1.51535,0.7785 2.44946,-1.18931 z m 25.02487,-7.54063 c 1.69848,-1.63711 5.3443,-5.2035 8.10183,-7.92533 l 5.01368,-4.94876 -0.55032,-0.86918 c -0.30268,-0.47805 -1.29141,-1.79321 -2.19718,-2.92259 -1.52125,-1.8968 -2.12918,-2.36397 -2.41384,-1.85497 -0.061,0.10914 -0.0713,0.0408 -0.0228,-0.15195 0.082,-0.3257 -0.6393,-1.28693 -0.80301,-1.07017 -0.58527,0.77493 -1.17301,2.04938 -1.02203,2.21614 0.10721,0.11841 0.0606,0.13863 -0.10351,0.0449 -0.16962,-0.0968 -0.59951,0.28458 -0.99594,0.88362 -0.38363,0.5797 -0.60652,1.05582 -0.49531,1.05805 0.11121,0.002 0.0831,0.0915 -0.0624,0.19843 -0.34517,0.25359 -1.98438,2.3684 -1.98438,2.56012 0,0.0813 -0.20836,0.36134 -0.46302,0.62232 -0.25466,0.26098 -0.70114,0.81447 -0.99218,1.22998 -0.66114,0.94388 -2.81459,3.6738 -3.03841,3.85176 -0.0915,0.0728 -0.60851,0.71804 -1.14891,1.43396 -0.54039,0.71592 -1.21829,1.46681 -1.50646,1.66865 -0.54874,0.38436 -0.68678,1.11308 -0.29187,1.54083 0.3377,0.36577 1.0217,2.69814 1.21822,4.15396 0.0933,0.69122 0.28215,1.25677 0.41967,1.25677 0.13751,0 1.63968,-1.33946 3.33816,-2.97657 z m 4.58147,-14.61822 c 0,-0.0728 0.0595,-0.1323 0.13229,-0.1323 0.0728,0 0.13229,0.0595 0.13229,0.1323 0,0.0728 -0.0595,0.13229 -0.13229,0.13229 -0.0728,0 -0.13229,-0.0595 -0.13229,-0.13229 z m 2.64583,-2.91042 c 0,-0.0728 0.0595,-0.13229 0.13229,-0.13229 0.0728,0 0.1323,0.0595 0.1323,0.13229 0,0.0728 -0.0595,0.13229 -0.1323,0.13229 -0.0728,0 -0.13229,-0.0595 -0.13229,-0.13229 z m -128.32291,19.05 c 0,-0.0728 -0.0595,-0.13229 -0.13229,-0.13229 -0.0728,0 -0.13229,0.0595 -0.13229,0.13229 0,0.0728 0.0595,0.13229 0.13229,0.13229 0.0728,0 0.13229,-0.0595 0.13229,-0.13229 z m 116.94287,-7.75218 c 0.94426,-1.26609 2.68216,-3.55214 3.86199,-5.08011 2.46003,-3.18592 6.7243,-9.43892 6.7243,-9.86031 0,-0.31124 -7.0274,-7.5073 -7.6818,-7.86617 -0.31674,-0.1737 -0.63604,0.18219 -1.45521,1.62195 -3.24141,5.69703 -6.55738,11.01071 -9.1717,14.69723 -0.84427,1.19052 -1.53504,2.21531 -1.53504,2.27731 0,0.062 0.92274,0.86282 2.05053,1.77959 1.12778,0.91677 2.69203,2.36252 3.47611,3.21279 0.78407,0.85027 1.55798,1.54004 1.71979,1.53283 0.16181,-0.007 1.06677,-1.04901 2.01103,-2.31511 z m -62.40008,-25.4914 -0.25548,-0.88767 -0.0203,0.79375 c -0.0111,0.43656 0.065,1.09141 0.16915,1.45521 0.1775,0.61991 0.19482,0.62581 0.27573,0.0939 0.0475,-0.31215 -0.0286,-0.96699 -0.16915,-1.45521 z m -0.12247,-1.86332 c -0.0845,-0.21107 -0.14715,-0.14837 -0.15985,0.15985 -0.0115,0.27892 0.0511,0.43519 0.13897,0.34727 0.0879,-0.0879 0.0973,-0.31613 0.0209,-0.50712 z"
       id="path129" /></g></svg>
