<?xml version="1.0" encoding="UTF-8" standalone="no"?>
<!-- Created with Inkscape (http://www.inkscape.org/) -->

<svg
   width="207.46346mm"
   height="218.7585mm"
   viewBox="0 0 207.46348 218.75847"
   version="1.1"
   id="svg1"
   xml:space="preserve"
   xmlns="http://www.w3.org/2000/svg"
   xmlns:svg="http://www.w3.org/2000/svg"><defs
     id="defs1"><clipPath
       clipPathUnits="userSpaceOnUse"
       id="clipPath6"><path
         id="path7"
         style="fill:#ff0000;fill-opacity:1;fill-rule:nonzero;stroke:none;stroke-width:0.264583"
         d="M -175.07778,-16.057127 V 287.55793 H 124.54631 V -16.057127 Z m 132.7459,202.572647 c 0.210643,0.005 0.427212,0.0169 0.650089,0.0367 2.23823,0.19855 4.475655,0.4031 6.717938,0.55346 1.973313,0.11308 0.986628,0.0436 2.958475,0.20825 3.181295,0.26563 4.740125,1.85116 4.950601,3.46956 4.949923,1.63749 3.796379,7.35609 -2.592089,6.81354 -3.228716,-0.27422 -1.569593,-0.1301 -4.979024,-0.43357 -4.228209,-0.39317 -8.460616,-0.76265 -12.666927,-1.35341 -6.647387,-0.93358 -5.930551,-7.21034 0.03204,-7.20421 0.04685,5e-5 0.0972,0.004 0.144695,0.005 0.687229,-1.21692 2.304132,-2.15435 4.784204,-2.09548 z" /></clipPath><clipPath
       clipPathUnits="userSpaceOnUse"
       id="clipPath76"><path
         id="path77"
         style="fill:#ff0000;fill-opacity:1;fill-rule:nonzero;stroke:none;stroke-width:0.264583"
         d="M -133.83107,-122.52355 V 173.82063 H 122.97289 V -122.52355 Z M 13.574404,98.948202 c 2.788179,0.0507 4.135003,2.063798 3.398242,4.077268 0.199805,0.45372 0.374906,0.96736 0.517797,1.54461 1.07913,4.35948 0.671079,8.891 0.311608,13.31495 -0.351859,3.06036 -0.147137,1.57974 -0.604097,4.44366 -0.359666,2.25418 -1.333846,3.66838 -2.455664,4.32532 0.105138,0.36595 0.224724,0.72888 0.324528,1.09554 0.6273,2.23652 0.575201,4.47401 0.39429,6.75514 -0.137303,1.73129 -0.688065,2.99533 -1.427303,3.82199 -0.112477,0.41601 -0.170275,0.80219 -0.311092,1.25212 -0.184975,0.59102 -0.413327,1.1061 -0.670242,1.55856 0.741137,-0.23134 1.446982,-0.38145 2.064991,-0.37517 4.085002,0.0415 5.222724,4.75435 -0.02223,7.27138 -4.46677,2.14368 -9.303523,3.34693 -14.11903492,4.40955 -4.40876268,0.85156 -8.89238128,1.33053 -13.38264308,1.19269 -5.804014,-0.17807 -6.736297,-5.00293 -3.065447,-6.67298 -2.072987,-0.65744 -4.042852,-1.62261 -4.128947,-3.14709 -0.02802,-0.49633 0.0026,-0.90355 0.0341,-1.30897 -1.976731,-0.003 -3.95339,2.4e-4 -5.930386,0.003 -0.814031,0 -1.53062,-0.0962 -2.159559,-0.26149 -0.376306,0.19492 -0.742394,0.40783 -1.120862,0.59893 -6.391272,3.22657 -9.625245,-3.24074 -3.234428,-6.46886 1.833438,-0.92611 3.62694,-1.92211 5.414142,-2.92954 -0.877003,-3.87058 -1.368747,-7.83436 -1.323951,-11.80858 0.01651,-1.46304 0.376836,-2.54918 0.864547,-3.41426 -1.247357,-1.79999 -0.223805,-4.63069 3.842661,-5.68855 3.11826,-0.81116 6.282901,-1.39515 9.473837,-1.82211 -1.259816,-0.12657 -2.516182,-0.30233 -3.764627,-0.50177 -1.477002,-0.21985 -2.935575,-0.54305 -4.407482,-0.7891 -1.14214,-0.22954 -0.588502,-0.12004 -1.660882,-0.3297 -3.350244,-0.65501 -4.783278,-2.61088 -4.608504,-4.32997 -0.200179,-1.7721 1.333365,-3.52972 4.663799,-3.59461 v -5.3e-4 c 0.20954,-0.004 0.426035,-0.002 0.649571,0.008 1.77111,0.0772 3.528708,0.28204 5.26428,0.64027 1.655035,0.33225 3.314115,0.6481 4.955251,1.04439 1.244759,0.34858 2.51628,0.54538 3.7997689,0.6723 0.025956,0.002 0.052073,0.002 0.078034,0.004 0.4990888,-0.0371 0.9984105,-0.0743 1.4965495,-0.11317 1.346872,-0.12588 2.6913231,-0.25136 4.0457464,-0.24236 1.1278499,-0.0444 2.2567291,-0.10772 3.37498791,-0.26872 0.75719517,-0.11591 1.51142439,-0.25483 2.25722659,-0.4284 0.3616431,-0.12394 0.7240561,-0.24538 1.083138,-0.37775 0.3360393,-0.12388 0.6107589,-0.12825 0.9250071,-0.20723 0.1281086,-0.045 0.2583895,-0.0825 0.3855085,-0.13074 1.9825018,-0.7681 3.9540551,-1.56464 5.9510551,-2.29443 1.050809,-0.383992 1.999634,-0.542639 2.826703,-0.527616 z M 0.70283723,110.39557 c -0.45566013,0.0949 -0.90775367,0.208 -1.36890919,0.2744 -1.16638124,0.15534 -2.34111274,0.24237 -3.51761424,0.26251 0.4031694,0.0896 0.8047355,0.18876 1.2025101,0.308 0.1014836,0.0304 0.1982549,0.075 0.2986907,0.10852 0.4205235,-0.21824 0.9206601,-0.35072 1.4898318,-0.37156 0.39885139,-0.0146 0.83259872,0.0278 1.29449508,0.13023 0.22468681,-0.12213 0.44967525,-0.24374 0.67437529,-0.36587 -0.0326284,-0.11319 -0.058211,-0.22834 -0.0733795,-0.34623 z m 10.24433577,1.02474 c -0.76023,0.21437 -1.5189569,0.4343 -2.2696301,0.68006 -0.031261,0.62207 -0.2256075,1.28373 -0.6464723,1.94355 0.6236891,0.43248 1.2549743,1.04482 1.8634525,1.86862 0.2674939,0.36214 0.4748849,0.75712 0.7188199,1.13223 0.154519,-1.86707 0.314174,-3.74736 0.33383,-5.62446 z m 64.566086,3.39773 c 1.50346,0.0187 3.129182,1.24994 3.928441,4.04678 0.257931,0.90255 0.823497,1.65871 1.488797,2.30735 0.856321,0.95375 1.845738,1.76777 2.801898,2.61638 1.458581,1.46408 2.789203,3.04608 4.169772,4.58215 1.315059,1.44746 2.571226,2.91698 3.543967,4.61884 0.0053,0.01 0.0082,0.0206 0.01344,0.0305 0.734605,-0.43313 1.446276,-0.65634 2.094962,-0.69195 3.016182,-0.16561 4.69137,3.55377 1.187525,7.32306 -1.69471,1.82311 -3.657862,3.33908 -5.68751,4.7651 -0.777873,0.49914 -1.607691,0.90075 -2.418456,1.33842 0.165478,1.44344 -0.672182,3.24303 -2.956409,4.73096 -1.354556,0.88234 -2.690448,1.79306 -4.075203,2.6288 -2.075008,1.20078 -4.233777,2.27962 -6.540687,2.96259 -2.077586,0.62971 -4.169056,1.29987 -6.359301,1.36374 -1.872114,0.0897 -3.746989,0.0368 -5.620845,0.0501 h -5.1108 -5.524728 c -7.160125,0 -7.160125,-7.23315 0,-7.23315 h 1.347722 c 0.29438,-0.0541 0.5212,-0.1588 0.84801,-0.18656 1.106628,-0.094 2.200932,-0.28334 3.292822,-0.48421 0.456121,-0.98163 1.356053,-1.98213 2.807581,-2.83962 1.078018,-0.63685 2.158119,-1.26923 3.212209,-1.94561 1.962647,-1.29302 3.840588,-2.72135 5.893696,-3.86902 1.367169,-0.76424 2.559646,-1.07097 3.526915,-1.04128 2.216811,0.068 3.246223,1.90266 2.479953,4.04059 1.105688,-0.48686 2.206929,-0.98346 3.283003,-1.53739 2.619811,-1.23728 5.288743,-2.38548 7.764385,-3.9026 0.246153,-0.17184 0.487463,-0.34958 0.730705,-0.52503 -0.126915,-0.50614 -0.277693,-0.9939 -0.512114,-1.46554 -0.647621,-1.25778 -1.721077,-2.20654 -2.600875,-3.29644 -1.199229,-1.33472 -2.369312,-2.69496 -3.592029,-4.00803 -1.098706,-0.97599 -2.227236,-1.92181 -3.215306,-3.01428 -1.300821,-1.39063 -2.459913,-2.93896 -3.045293,-4.77801 -1.289469,-4.05101 0.646382,-6.61405 2.843754,-6.58667 z m -95.086705,4.28035 c -0.465643,0.10748 -0.930899,0.21773 -1.394745,0.33435 0.171958,0.64334 0.283575,1.36624 0.279569,2.2071 -0.01267,2.6582 0.205063,5.32647 0.670242,7.94732 0.280107,-0.17087 0.565767,-0.33222 0.845429,-0.50385 -0.01897,-0.36223 -0.02445,-0.73164 -0.05529,-1.08985 -0.118034,-2.96491 -0.160888,-5.93314 -0.3452,-8.89507 z m 18.5141159,1.1958 c 0.00497,0.0773 0.00619,0.15612 0.014975,0.23202 -0.1238779,0.22787 -0.2588048,0.44752 -0.3937741,0.66715 0.58900751,0.0447 1.13203305,0.21413 1.64331124,0.45888 -0.37615284,-0.49255 -0.78353709,-0.94642 -1.26452314,-1.35805 z m -6.5422357,14.57068 c -0.046649,0.0755 -0.09888,0.14702 -0.1436608,0.22376 -0.03147,0.054 0.1963367,0.0838 0.1860365,0.0222 -0.017595,-0.10481 -0.026035,-0.14905 -0.042376,-0.24597 z m 13.9236979,6.08439 c -0.2236258,0.5643 -0.5677508,1.09664 -1.1782213,1.50533 0.9079653,0.17659 1.7077452,0.44257 2.2830631,0.84852 0.1405493,-0.0459 0.272804,-0.11448 0.4128956,-0.16174 -0.7336976,-0.43656 -1.2984269,-1.18703 -1.5177374,-2.19211 z" /></clipPath><clipPath
       clipPathUnits="userSpaceOnUse"
       id="clipPath127"><path
         id="path128"
         style="fill:#ff0000;fill-opacity:1;fill-rule:nonzero;stroke:none;stroke-width:0.264583"
         d="M -112.24796,-126.55676 V 185.58027 H 148.5754 V -126.55676 Z M 46.874626,83.305366 c 1.808208,0 3.616317,1.790192 3.616317,5.370214 v 5.232238 c 0.0627,2.146078 -0.111291,4.285324 -0.245462,6.424932 -0.136289,2.02485 -0.190703,4.04985 -0.104904,6.07715 0.192061,1.91863 0.527714,3.82569 0.876432,5.72213 0.304242,2.00862 0.765826,3.9858 1.180806,5.97276 0.41642,1.86142 0.967934,3.68703 1.421104,5.53972 0.25287,0.86996 0.117097,0.46495 0.396356,1.22008 0.186108,0.50319 0.223428,0.93098 0.309544,1.38441 4.425355,2.23251 2.751262,7.58433 -3.415813,6.40477 -3.104732,-0.59371 -6.256094,-0.76586 -9.40821,-0.85576 -3.81635,0.009 -7.630525,0.17062 -11.44478,0.28216 -1.12776,0.0333 -2.255837,0.0512 -3.383772,0.0754 -0.908129,0.5548 -1.966518,0.57724 -2.88613,0.0641 -0.03584,5.3e-4 -0.07165,0.002 -0.107487,0.003 -0.03142,5.3e-4 -0.0525,-0.009 -0.08268,-0.009 -0.32049,0.14732 -0.641715,0.29301 -0.962215,0.44028 -0.262501,0.12062 -0.518089,0.22111 -0.770496,0.31265 -0.876996,0.71434 -1.945576,0.85817 -2.911967,0.46405 -2.943479,-0.21613 -4.295167,-2.77187 -2.550232,-5.0524 -2.22e-4,-0.028 -0.0078,-0.0483 -0.0078,-0.0765 v -6.3469 c -0.014,-2.72977 -0.02254,-5.45666 0.112657,-8.18348 0.135676,-2.32533 0.233519,-4.6523 0.299723,-6.98046 0.046,-1.80459 0.06926,-3.60958 0.08527,-5.41465 -0.0258,-1.02998 0.04009,-2.054459 0.138491,-3.078883 0.0044,-0.04602 0.02191,-0.07504 0.02687,-0.120406 C 15.992671,97.193438 15.83363,95.70984 16.656834,94.418959 10.68718,93.678613 10.992573,87.32947 17.739972,87.32947 h 3.885033 5.177462 5.913334 c 1.498505,0.05847 2.984222,-0.03228 4.475178,-0.161748 1.252041,-0.18606 2.49041,-0.398671 3.697968,-0.782897 1.001961,-0.32245 0.492366,-0.161472 1.527553,-0.482142 0.510384,-0.158096 0.938446,-0.174371 1.394749,-0.23771 0.672338,-1.56932 1.86623,-2.35903 3.063377,-2.35903 z" /></clipPath></defs><g
     id="layer1"
     transform="translate(18.565625,260.27327)"><path
       style="fill:#000000"
       d="m 82.003738,-41.940636 c -2.0048,-0.664503 -3.161292,-1.412768 -4.482205,-2.900044 -0.995741,-1.12115 -2.883026,-4.526343 -2.882705,-5.201209 8.1e-5,-0.168657 -1.030602,-0.272048 -2.711979,-0.272048 -1.491659,0 -3.56178,-0.165373 -4.600267,-0.367495 -1.686914,-0.328327 -2.124014,-0.318491 -4.101041,0.09228 -1.217086,0.252877 -4.117883,0.553478 -6.446216,0.668002 -3.673866,0.180706 -4.571232,0.317405 -6.790118,1.034364 -6.053403,1.955955 -11.918473,2.767887 -14.746226,2.041398 -6.826706,-1.753876 -12.169503,-10.654257 -12.644084,-21.063343 -0.168116,-3.687318 0.160689,-5.578503 1.426027,-8.202082 0.895587,-1.856929 3.351918,-4.289699 4.945878,-4.898438 l 1.214598,-0.46386 -1.519704,-1.417962 c -0.835837,-0.779879 -1.638766,-1.419994 -1.784286,-1.422478 -0.802758,-0.0137 -3.27052,-1.502087 -4.612015,-2.781656 -1.996019,-1.90388 -2.929736,-3.90963 -3.12053,-6.703322 -0.50256,-7.358691 5.444415,-13.112541 12.348969,-11.947941 1.927674,0.32515 3.966106,1.34952 5.259796,2.64321 l 0.818049,0.81805 2.12673,-2.56793 c 1.169701,-1.41236 2.096713,-2.59794 2.060027,-2.63463 -0.03669,-0.0367 -1.911644,-0.43784 -4.166573,-0.89146 -14.602384,-2.93751 -22.550676,-5.61074 -49.728533,-16.72506 -6.430685,-2.62981 -6.513551,-2.70748 -6.414997,-6.0125 0.104513,-3.50482 1.640894,-12.18287 3.752238,-21.19402 4.198954,-17.921 12.6927458,-40.88527 21.2848474,-57.54687 11.1894766,-21.69836 23.0450956,-34.35915 39.6243576,-42.31545 17.400997,-8.35064 40.179333,-10.40462 60.052594,-5.41508 11.98772,3.00973 24.01655,8.86416 33.03066,16.07601 8.98914,7.19188 17.14941,18.32701 25.23364,34.43265 11.72367,23.35627 20.3399,49.67099 23.84014,72.8099 0.8032,5.30968 0.81392,5.7789 0.1513,6.6213 -1.05907,1.34638 -7.16524,5.09481 -13.37404,8.21 -15.48826,7.77103 -29.22818,11.93649 -43.3479,13.14154 -1.57666,0.13456 -2.91847,0.29647 -2.9818,0.3598 -0.0633,0.0633 0.59515,1.58046 1.4633,3.3714 3.23827,6.680345 4.55229,12.927743 3.70366,17.608808 -0.60614,3.343552 -3.03404,6.948471 -5.83379,8.661988 -0.49118,0.300612 -0.93506,0.576446 -0.98639,0.612965 -0.0513,0.03652 0.15323,0.818146 0.45461,1.736947 1.30646,3.983032 1.75178,7.902511 1.34678,11.853939 -0.79249,7.732168 -4.07965,11.919708 -11.62993,14.815444 -1.57541,0.604214 -5.77516,1.574204 -14.02291,3.238783 -11.057327,2.231614 -12.015522,2.382837 -15.74271,2.484516 -3.370279,0.09194 -4.194718,0.03337 -5.467252,-0.388419 z m 9.323253,-3.616416 c 2.956804,-0.431412 8.749499,-1.569908 10.347919,-2.03378 l 0.97476,-0.28288 -0.54846,-1.484696 c -0.86952,-2.35382 -4.062547,-9.532107 -5.014996,-11.274278 l -0.86789,-1.5875 -0.20663,1.322916 c -0.434027,2.778777 -0.503347,3.042709 -0.799154,3.042709 -0.167344,0 -0.608433,0.29131 -0.980198,0.647357 l -0.675936,0.647357 -0.04048,-2.962461 c -0.0852,-6.234657 -2.202603,-11.226046 -5.497718,-12.959856 -1.660983,-0.873968 -4.140775,-0.799864 -5.774547,0.172563 -3.480103,2.071369 -4.807595,5.582428 -4.76882,12.612959 0.04848,8.789736 2.029169,13.23594 6.349533,14.253267 1.569029,0.369463 4.495146,0.325128 7.50262,-0.113677 z m 18.443249,-3.857178 c 0.0438,-0.227257 -0.28246,-1.353382 -0.72494,-2.502499 -0.44249,-1.149117 -0.80312,-2.151551 -0.8014,-2.227631 0.002,-0.07608 0.70891,0.957404 1.57155,2.296631 l 1.56844,2.434958 1.85345,-0.513616 c 3.16174,-0.876163 6.63895,-2.618317 6.6433,-3.328431 9.9e-4,-0.162276 -0.24496,-0.60876 -0.54656,-0.992187 -0.30161,-0.383427 -0.4717,-0.69714 -0.37798,-0.69714 0.0937,0 -0.001,-0.171504 -0.21073,-0.38112 -0.20961,-0.209615 -0.34548,-0.705727 -0.30193,-1.10247 0.0558,-0.508111 -0.20521,-1.079818 -0.88286,-1.933984 -1.45916,-1.839254 -1.57212,-2.010283 -1.16661,-1.766313 0.3835,0.230726 3.74469,4.708663 4.26717,5.684914 l 0.32848,0.613775 0.92525,-0.88813 c 1.13704,-1.091431 2.08238,-2.896253 2.62365,-5.009038 0.40899,-1.596469 0.40852,-1.600795 -0.2711,-2.491827 -0.37444,-0.490921 -0.68081,-1.019589 -0.68081,-1.17482 0,-0.15523 -0.11334,-0.282236 -0.25187,-0.282236 -0.13853,0 -0.61906,-0.533687 -1.06784,-1.18597 -0.54241,-0.788368 -0.67293,-1.131081 -0.38932,-1.022248 0.23466,0.09005 0.53278,0.442865 0.6625,0.784041 0.12971,0.341175 0.38848,0.582576 0.57504,0.536445 0.18656,-0.04613 0.2499,-0.03393 0.14076,0.0271 -0.10914,0.06104 -0.19843,0.227144 -0.19843,0.369126 0,0.141983 0.12698,0.179669 0.28218,0.08375 0.15521,-0.09592 0.46169,0.04588 0.68108,0.315114 0.21939,0.269233 0.32351,0.340687 0.23137,0.158786 -0.0921,-0.181901 -0.0653,-0.330729 0.0597,-0.330729 0.12501,0 0.38516,0.148828 0.57813,0.330729 0.79674,0.751057 -0.20053,-7.0884 -1.22858,-9.657758 -0.40014,-1.000038 -0.44827,-1.030089 -1.36922,-0.854865 -3.67541,0.699301 -8.07806,0.849483 -11.5762,0.394886 -1.03974,-0.135119 -3.10905,-0.607692 -4.59847,-1.050164 -3.59102,-1.06681 -4.97485,-1.058707 -6.685714,0.03915 l -1.314706,0.843645 0.762376,0.633571 c 3.957094,3.288533 6.980084,6.690278 6.980084,7.854623 0,1.308429 -0.78623,0.99149 -2.99964,-1.209192 -3.162989,-3.144797 -6.297142,-5.262125 -7.789208,-5.262125 -0.267902,0 -0.693869,0.151197 -0.946593,0.335993 -0.433559,0.317026 -0.428194,0.40676 0.09504,1.589615 0.304995,0.689492 1.224927,2.413529 2.044295,3.831194 1.840299,3.184076 4.534746,8.756309 6.681156,13.8169 0.89369,2.107047 1.74005,3.90217 1.88081,3.989163 0.14075,0.08699 1.29302,-0.03187 2.5606,-0.264128 1.64815,-0.301998 2.32735,-0.540002 2.38425,-0.83549 z m 7.30882,-8.216628 c -0.11697,-0.189257 -0.0726,-0.233644 0.11667,-0.116677 0.305,0.1885 0.40949,0.42214 0.18879,0.42214 -0.0642,0 -0.20163,-0.137458 -0.30546,-0.305463 z m -0.90078,-1.414328 c 0,-0.07276 0.0595,-0.132292 0.13229,-0.132292 0.0728,0 0.13229,0.05953 0.13229,0.132292 0,0.07276 -0.0595,0.132291 -0.13229,0.132291 -0.0728,0 -0.13229,-0.05953 -0.13229,-0.132291 z m -0.39954,-1.724108 c -0.0914,-0.147894 -0.26845,-0.205697 -0.39344,-0.12845 -0.12499,0.07725 -0.29446,-0.07128 -0.37659,-0.330059 -0.0821,-0.25878 -0.47766,-0.674059 -0.87894,-0.922843 -0.40129,-0.248784 -0.5961,-0.455503 -0.43291,-0.459375 0.31831,-0.0076 2.73692,2.080611 2.43089,2.098775 -0.10055,0.006 -0.25761,-0.110153 -0.34901,-0.258048 z m -3.44937,-3.23683 -1.04588,-1.124479 1.12448,1.045884 c 1.04575,0.972662 1.24606,1.203074 1.04588,1.203074 -0.0432,0 -0.54924,-0.506015 -1.12448,-1.124479 z m 8.31308,-2.778124 c -0.32911,-0.419644 -0.31975,-0.429003 0.0999,-0.09989 0.25466,0.199719 0.46302,0.408078 0.46302,0.46302 0,0.217762 -0.21727,0.0776 -0.56291,-0.363125 z m -77.803793,15.831189 c 1.438003,-0.278757 3.885488,-0.87407 5.438853,-1.322917 1.553366,-0.448847 2.857296,-0.816086 2.897622,-0.816086 0.04033,0 -0.893529,-1.945811 -2.075233,-4.324025 -1.181705,-2.378213 -2.639901,-5.622666 -3.240436,-7.209895 -0.926199,-2.447967 -1.093914,-2.738599 -1.10528,-1.915323 -0.03537,2.561734 -0.741081,2.366804 -1.837423,-0.507527 -2.676664,-7.017532 -4.785843,-9.788383 -8.301774,-10.906134 -1.834167,-0.5831 -4.332277,0.203353 -6.026036,1.897112 -2.416629,2.416629 -3.014466,7.654821 -1.47361,12.911626 1.855716,6.330986 4.599195,10.510374 7.911713,12.052626 1.740896,0.810531 4.133335,0.853575 7.811604,0.140543 z m 16.921024,-2.746666 1.657441,-0.318378 -2.318899,-1.766107 c -1.275394,-0.971359 -2.968402,-2.370344 -3.762239,-3.108854 -0.793838,-0.738511 -1.487924,-1.342747 -1.542414,-1.342747 -0.05449,0 -0.01674,0.803672 0.0839,1.785937 0.239137,2.334183 -0.04754,2.036325 -1.591529,-1.653609 -1.171351,-2.799373 -4.799807,-9.450389 -7.175231,-13.152307 -0.887477,-1.383066 -1.331748,-1.827206 -2.011278,-2.010685 -0.479703,-0.129523 -0.911139,-0.204549 -0.958747,-0.166724 -0.04761,0.03783 0.692547,1.418884 1.64479,3.069018 0.952243,1.650135 2.394104,4.607589 3.204136,6.57212 1.861033,4.513476 4.367666,9.549092 5.564514,11.178645 l 0.923053,1.256771 2.312533,-0.01235 c 1.271893,-0.0068 3.058381,-0.155621 3.969973,-0.33073 z m 14.078497,-2.104316 -0.0068,-2.182812 -1.898645,-1.190625 c -2.062121,-1.293139 -7.880522,-5.843826 -8.915705,-6.973151 -0.488794,-0.533245 -0.543724,-0.699765 -0.230834,-0.699765 0.225829,0 0.574005,0.200204 0.773724,0.444899 0.364683,0.446805 6.711726,4.68279 8.989963,5.999855 l 1.218503,0.704426 0.175513,-2.053236 c 0.09653,-1.12928 0.349503,-2.875284 0.562159,-3.880008 0.357782,-1.690401 0.352474,-1.852369 -0.0711,-2.169653 -0.42211,-0.316187 -0.41655,-0.332828 0.07142,-0.213756 0.439857,0.107332 0.666368,-0.175595 1.34209,-1.676358 l 0.812923,-1.805483 -2.665007,-0.06293 c -1.859968,-0.04392 -2.545119,0.01768 -2.268131,0.203939 0.322967,0.217175 0.283104,0.267628 -0.214052,0.270925 -0.33601,0.0022 -0.547973,-0.09781 -0.471028,-0.222311 0.07695,-0.124499 -0.169008,-0.167311 -0.546562,-0.09514 -0.571866,0.109319 -0.614698,0.171387 -0.256576,0.371801 0.896851,0.501904 0.383983,0.730928 -0.562302,0.2511 -0.545704,-0.276707 -1.647032,-0.584422 -2.447396,-0.683812 -1.533825,-0.190472 -2.847083,-0.397783 -6.760734,-1.06725 -1.31731,-0.225339 -2.924654,-0.464053 -3.571875,-0.530476 -1.127085,-0.11567 -6.484614,-1.372777 -8.981973,-2.107557 -0.654844,-0.19267 -1.239216,-0.305277 -1.298605,-0.250238 -0.21799,0.202025 3.01662,6.28612 4.79224,9.013897 2.123067,3.261539 5.201409,6.393691 8.735033,8.887722 4.422108,3.121124 6.483628,3.839967 11.120809,3.877777 l 2.579688,0.02103 z M 61.375784,-67.842582 c -0.329108,-0.419644 -0.319749,-0.429002 0.09989,-0.0999 0.254661,0.19972 0.46302,0.408079 0.46302,0.463021 0,0.217761 -0.217272,0.0776 -0.562915,-0.363126 z m 11.410832,-0.992187 c 0,-0.07276 0.05953,-0.132292 0.132291,-0.132292 0.07276,0 0.132292,0.05953 0.132292,0.132292 0,0.07276 -0.05953,0.132291 -0.132292,0.132291 -0.07276,0 -0.132291,-0.05953 -0.132291,-0.132291 z m -13.386724,-0.702339 c -0.116966,-0.189256 -0.07258,-0.233643 0.116677,-0.116677 0.304999,0.1885 0.409487,0.422141 0.188787,0.422141 -0.06417,0 -0.201631,-0.137459 -0.305464,-0.305464 z m 13.386724,-1.546619 c 0,-0.334542 0.540667,-0.334542 1.058333,0 0.309265,0.199862 0.236256,0.257374 -0.330729,0.260531 -0.400183,0.0022 -0.727604,-0.115011 -0.727604,-0.260531 z m 1.587499,0.132291 c 0,-0.07276 0.05953,-0.132291 0.132292,-0.132291 0.07276,0 0.132292,0.05953 0.132292,0.132291 0,0.07276 -0.05953,0.132292 -0.132292,0.132292 -0.07276,0 -0.132292,-0.05953 -0.132292,-0.132292 z m 0.617362,-0.0441 c 0.09701,-0.09701 0.255763,-0.09701 0.352777,0 0.09701,0.09701 0.01764,0.176389 -0.176389,0.176389 -0.194027,0 -0.273402,-0.07937 -0.176388,-0.176389 z m 44.890973,15.882119 c 0,-0.205266 -0.84738,-0.868899 -1.12448,-0.88065 -0.25102,-0.01064 0.65775,0.998061 0.92604,1.02787 0.10914,0.01213 0.19844,-0.05412 0.19844,-0.14722 z M 68.553282,-62.48477 c 0,-0.07276 -0.05953,-0.132291 -0.132291,-0.132291 -0.07276,0 -0.132292,0.05953 -0.132292,0.132291 0,0.07276 0.05953,0.132292 0.132292,0.132292 0.07276,0 0.132291,-0.05953 0.132291,-0.132292 z m -5.291666,-3.968749 c 0,-0.07276 -0.05953,-0.132292 -0.132292,-0.132292 -0.07276,0 -0.132291,0.05953 -0.132291,0.132292 0,0.07276 0.05953,0.132291 0.132291,0.132291 0.07276,0 0.132292,-0.05953 0.132292,-0.132291 z m 31.85002,-8.05439 c 0.896986,-0.428092 1.917028,-1.082936 2.26676,-1.455209 l 0.635876,-0.676859 h -0.616459 c -0.339052,0 -0.984884,0.280477 -1.435183,0.623283 -0.450298,0.342805 -1.316661,0.876885 -1.925251,1.186844 -2.406585,1.225688 -1.431603,1.517877 1.074257,0.321941 z m -15.181271,-1.424247 c 1.091406,-0.228019 2.754788,-0.613237 3.696405,-0.856039 1.349206,-0.347903 2.302832,-0.403168 4.499815,-0.260776 2.467052,0.159896 2.932806,0.118521 4.048278,-0.359626 1.755284,-0.752402 1.815744,-1.149463 0.399737,-2.625196 -0.652493,-0.680016 -1.463333,-1.712642 -1.801865,-2.294725 -0.338533,-0.582084 -0.63857,-1.092144 -0.66675,-1.133468 -0.02818,-0.04132 -0.632582,0.05549 -1.343116,0.215144 -5.689264,1.27835 -14.001761,1.815509 -20.958398,1.354347 -9.996965,-0.662708 -20.114239,-2.941728 -27.470045,-6.18791 -2.393103,-1.056097 -5.279853,-2.583144 -6.466196,-3.420518 -0.905199,-0.638931 -3.414946,2.191269 -3.414946,3.850977 0,1.05677 0.657606,2.146603 1.643975,2.724519 1.946147,1.140251 10.620975,4.529601 14.852714,5.803118 9.11332,2.7426 16.621086,3.825364 25.572059,3.687982 3.601449,-0.05528 6.09073,-0.222552 7.408333,-0.497829 z m 41.443595,-1.717626 c 5.77941,-1.559562 8.53296,-4.575986 8.77821,-9.616233 0.33763,-6.938705 -3.63466,-16.301755 -10.19663,-24.034375 -1.17316,-1.38245 -2.72746,-3.09095 -3.45401,-3.79667 l -1.32099,-1.28313 -2.08082,1.76044 c -4.21666,3.56744 -9.30117,6.39223 -14.726671,8.18168 -2.809704,0.9267 -6.257994,1.75226 -7.31903,1.75226 -0.7898,0 -0.663297,0.40849 0.385713,1.24549 1.051457,0.83896 1.156882,1.13576 0.403431,1.13576 -0.62474,0 -0.593857,0.10172 1.095509,3.608258 l 1.164758,2.417633 0.917113,-0.492354 c 2.886855,-1.549814 7.660567,-2.026293 11.358557,-1.133733 1.74273,0.420629 1.82986,0.416428 3.6033,-0.173736 2.71998,-0.905148 5.70062,-0.837437 7.71195,0.175191 2.28364,1.14972 2.14104,1.416777 -0.76642,1.435347 -2.49114,0.01591 -4.84677,0.288985 -5.15542,0.59764 -0.0921,0.09205 0.32469,0.659431 0.9261,1.260841 2.64141,2.641412 3.5998,6.741105 2.4561,10.506481 -0.67136,2.210313 -2.44088,4.73793 -4.16698,5.952192 l -1.20739,0.849365 0.75158,0.185079 c 1.49302,0.367666 8.84284,0.0061 10.84204,-0.533426 z m -16.08142,-1.756605 c 3.05238,-0.25736 5.47853,-2.100098 6.51648,-4.94948 0.74309,-2.039936 0.72084,-5.282079 -0.0461,-6.721949 -0.62342,-1.170358 -2.25907,-2.773164 -3.44015,-3.371063 -1.95882,-0.991619 -5.93953,-1.407155 -8.453109,-0.882397 -2.408738,0.50287 -3.833806,1.235956 -5.264773,2.708313 -3.485747,3.586569 -2.366527,9.603545 2.254154,12.118436 1.418777,0.772195 4.563508,1.470907 5.957818,1.323736 0.43656,-0.04608 1.55064,-0.147598 2.47572,-0.225596 z m -25.494466,-4.501192 c 3.353841,-0.326928 8.120446,-1.138688 9.326562,-1.588328 0.197511,-0.07363 0.330729,-0.604245 0.330729,-1.317314 0,-0.65671 0.131853,-1.999899 0.293007,-2.984866 l 0.293006,-1.790848 -2.776515,-5.953124 c -1.527083,-3.274221 -4.518673,-9.513891 -6.647977,-13.865931 l -3.871462,-7.9128 -0.593637,0.55769 c -1.944447,1.82671 -6.082663,2.35246 -8.865244,1.12629 -1.729753,-0.76222 -3.291461,-2.47958 -4.016104,-4.41636 -1.025322,-2.74042 -0.503845,-4.85001 1.758006,-7.11186 0.851872,-0.85187 1.398409,-1.18536 1.942611,-1.18536 1.019955,0 1.249187,0.4677 0.389443,0.79457 -1.312501,0.49901 -2.478156,1.61428 -2.933565,2.80675 -0.426811,1.11759 -0.425224,1.26068 0.0307,2.76648 0.57024,1.88337 1.283163,2.91673 2.76322,4.00517 2.094591,1.54038 5.77547,1.26897 7.522643,-0.55469 0.711184,-0.74231 0.716718,-0.77376 0.313452,-1.78124 -0.932317,-2.32921 -6.128617,-12.50213 -6.39411,-12.51789 -0.609517,-0.0362 -7.088878,7.28847 -12.272462,13.87356 -1.374597,1.74625 -3.167618,3.9489 -3.984491,4.89479 -0.816873,0.94588 -2.658763,3.20807 -4.093088,5.02708 -1.434325,1.81901 -3.458746,4.37886 -4.498713,5.68854 -1.039966,1.30969 -3.356347,4.28625 -5.147513,6.614586 -1.791166,2.328333 -3.376306,4.384394 -3.522533,4.569025 -0.465229,0.587413 0.571578,1.363493 4.17279,3.123456 8.193639,4.004348 17.967961,6.305026 31.220831,7.348756 2.658611,0.209379 5.599358,0.140744 9.260417,-0.216132 z m -5.820834,-5.432397 c 0.08994,-0.145521 0.223053,-0.264584 0.295814,-0.264584 0.07276,0 0.05871,0.119063 -0.03123,0.264584 -0.08994,0.14552 -0.223053,0.264583 -0.295813,0.264583 -0.07276,0 -0.05871,-0.119063 0.03123,-0.264583 z m -13.697425,-1.698665 c -2.657535,-1.092841 -4.13761,-2.523979 -5.221134,-5.048503 -0.756319,-1.762162 -0.930685,-3.472639 -0.529683,-5.196026 1.039505,-4.46747 4.616289,-7.39156 9.129493,-7.46353 2.515324,-0.0401 4.281313,0.60599 6.033552,2.20744 3.372676,3.08244 4.139066,7.150779 2.122766,11.268599 -2.020103,4.125588 -7.185421,6.020668 -11.534994,4.23202 z m 6.353777,-2.102832 c 1.325037,-0.685204 2.68833,-1.99474 3.315652,-3.184911 0.850736,-1.614039 0.818726,-4.601196 -0.06791,-6.337156 -1.375903,-2.69391 -3.379762,-3.97406 -6.222845,-3.97543 -2.296327,-0.001 -3.828546,0.63583 -5.667474,2.35593 -1.542072,1.44243 -1.973556,2.528 -1.824402,4.590033 0.226268,3.128122 2.461062,5.947765 5.505788,6.946662 1.022392,0.33542 4.008342,0.09761 4.961189,-0.395128 z m 10.254065,0.531999 c -2.28474,-1.056957 -3.145343,-3.68019 -1.913877,-5.833752 0.897906,-1.570234 1.831976,-2.141544 3.501377,-2.141544 2.435728,0 3.96875,1.584125 3.96875,4.101044 0,1.65708 -0.43454,2.519871 -1.772061,3.518475 -0.875007,0.653286 -2.758339,0.830351 -3.784189,0.355777 z m 2.798477,-2.2664 c 1.122436,-1.122435 1.092598,-2.61514 -0.07186,-3.594967 -0.687035,-0.578102 -1.021343,-0.683231 -1.785937,-0.561619 -1.080655,0.171883 -2.131304,1.220649 -2.131304,2.127486 0,0.861229 1.075764,2.349542 1.855057,2.56646 1.124228,0.312931 1.337443,0.259243 2.134044,-0.53736 z m -39.522292,0.253265 c 0.167212,-0.639418 2.364504,-2.654867 2.894401,-2.654867 0.726813,0 0.292615,0.691337 -1.163211,1.852083 -1.821592,1.452376 -1.912029,1.494312 -1.73119,0.802784 z m 8.648381,-1.326677 c -2.449034,-0.989521 -2.161155,-5.129334 0.404736,-5.820254 2.076926,-0.55926 3.725908,0.72622 3.725908,2.904564 0,1.438965 -0.536084,2.300592 -1.745873,2.806074 -0.990332,0.413787 -1.56642,0.440267 -2.384771,0.109616 z m 2.013977,-1.857357 c 1.00855,-1.00855 0.433091,-2.645837 -0.929937,-2.645837 -0.628751,0 -1.451313,0.864957 -1.451313,1.52611 0,0.415136 1.178822,1.648894 1.575474,1.648894 0.152135,0 0.514734,-0.238125 0.805776,-0.529167 z m 32.263963,-2.938817 c -0.208456,-0.38951 -0.214642,-0.64134 -0.02052,-0.83546 0.369131,-0.36913 1.094058,0.22473 1.094058,0.89626 0,0.67063 -0.703402,0.6308 -1.073535,-0.0608 z m -36.753465,-3.8742 c 0.01794,-0.42295 0.732416,-1.12448 1.145233,-1.12448 0.462237,0 0.531868,0.23046 0.273253,0.9044 -0.157655,0.41084 -1.434979,0.60902 -1.418486,0.22008 z m 6.631548,-5.34213 c -0.399858,-0.24713 -0.215694,-1.07402 0.239204,-1.07402 0.387391,0 0.652441,0.77631 0.363649,1.0651 -0.132688,0.13269 -0.396278,0.13659 -0.602853,0.009 z m 2.351743,-0.2337 c -1.241352,-0.64982 -2.190995,-2.46091 -2.017746,-3.84812 0.218415,-1.74885 2.597236,-4.13595 4.121605,-4.13595 2.239349,0 4.412554,2.44579 4.171445,4.69467 -0.138249,1.28948 -1.157172,2.78289 -2.302965,3.3754 -1.041367,0.53851 -2.854303,0.49926 -3.972339,-0.086 z m 3.129948,-2.03016 c 0.431845,-0.36338 0.860225,-0.95972 0.951956,-1.3252 0.202288,-0.80598 -0.419702,-2.11191 -1.206387,-2.53293 -0.709226,-0.37956 -2.253214,-0.14168 -2.904205,0.44746 -0.990281,0.89619 -0.312557,3.26994 1.079818,3.7821 1.027389,0.3779 1.23166,0.3414 2.078818,-0.37143 z m 9.10763,-2.84233 c 0.183841,-0.39217 0.377843,-0.58617 0.431114,-0.43111 0.05327,0.15506 -0.09714,0.47592 -0.334258,0.71303 -0.398429,0.39843 -0.405772,0.37706 -0.09686,-0.28192 z m -39.530975,26.058733 c 0.312174,-1.022559 1.159789,-2.193549 5.138671,-7.099138 1.273308,-1.569868 2.315105,-3.008145 2.315105,-3.196171 0,-0.706934 -2.596085,-2.422994 -4.155195,-2.746664 -6.211077,-1.28941 -10.794055,6.044628 -7.183489,11.495586 0.733235,1.106983 2.58093,2.529899 3.293158,2.536071 0.158867,0.0014 0.425154,-0.443981 0.59175,-0.989684 z m 63.728745,-5.55625 c -0.174488,-0.861187 -4.826267,-10.591653 -12.364159,-25.863023 -4.580717,-9.28028 -7.325514,-14.41979 -7.701017,-14.41979 -0.14717,0 0.38672,1.22039 1.186421,2.71198 1.668247,3.11158 6.36218,12.46522 7.535027,15.01511 0.43507,0.94588 2.246214,4.75588 4.024765,8.46666 1.77855,3.71078 3.96908,8.29469 4.867843,10.186459 1.909014,4.018207 2.231851,4.630208 2.442488,4.630208 0.08583,0 0.08971,-0.327422 0.0086,-0.727604 z m 0.478153,-12.635053 c 5.141506,-1.13058 10.48862,-3.14188 14.16215,-5.32706 2.18055,-1.29708 5.89377,-4.17483 7.257,-5.62416 l 0.78166,-0.83103 -0.56998,-0.56997 -0.56997,-0.56997 -1.01217,1.04298 c -4.1251,4.25062 -13.872257,8.83717 -21.38024,10.0605 -1.523221,0.24819 -2.769047,0.52108 -2.768503,0.60642 5.44e-4,0.0853 0.238348,0.54446 0.528452,1.02027 0.40853,0.67005 0.661857,0.83515 1.12349,0.7322 0.327815,-0.0731 1.429465,-0.31619 2.448111,-0.54018 z m 41.33102,-3.04635 c 9.87074,-1.26182 18.13636,-3.38897 27.228,-7.0071 4.3886,-1.7465 11.98711,-5.32265 16.09045,-7.57279 3.63091,-1.99108 6.47103,-3.81465 5.57344,-3.57858 -0.29104,0.0765 -1.30307,0.21138 -2.24896,0.29963 -3.24426,0.30267 -13.36307,1.48593 -18.12395,2.11935 -12.33189,1.64072 -22.76295,2.33828 -26.14881,1.74866 -2.48838,-0.43334 -5.51757,-1.95294 -7.83787,-3.9319 l -0.91375,-0.77933 -2.16164,1.64932 c -2.22602,1.69845 -4.38681,3.03553 -7.70806,4.7697 l -1.90764,0.99606 4.42118,4.53606 c 2.43164,2.49483 4.83789,5.15148 5.34721,5.90367 l 0.92604,1.36761 1.64353,0.007 c 0.90394,0.004 3.52332,-0.23348 5.82083,-0.52719 z m -46.225812,-0.12745 c 0,-0.0728 -0.05953,-0.13229 -0.132292,-0.13229 -0.07276,0 -0.132291,0.0595 -0.132291,0.13229 0,0.0728 0.05953,0.13229 0.132291,0.13229 0.07276,0 0.132292,-0.0595 0.132292,-0.13229 z m 3.741187,-0.64683 c 3.694872,-0.76768 7.564081,-1.98768 10.121355,-3.19138 1.98407,-0.93389 2.82096,-1.58575 2.03587,-1.58575 -0.26155,0 -0.24483,-0.49532 0.0316,-0.93689 0.11169,-0.17839 -0.16001,-0.23662 -0.77115,-0.16528 -0.69964,0.0817 -0.89149,0.0259 -0.74206,-0.21593 0.1413,-0.22862 0.0532,-0.28218 -0.29462,-0.17918 -0.27288,0.0808 -1.2301,0.27554 -2.127153,0.43276 -0.897051,0.15721 -2.206738,0.44911 -2.910416,0.64867 -0.703678,0.19955 -2.261681,0.49381 -3.462227,0.65392 -1.200547,0.1601 -3.133365,0.42441 -4.295151,0.58735 -1.161786,0.16294 -2.411942,0.23899 -2.778125,0.16899 -0.366182,-0.07 -0.665786,-0.10662 -0.665786,-0.0814 0,0.30784 1.132803,2.26196 1.311262,2.26196 0.132318,0 0.322216,0.26789 0.421995,0.59531 0.229789,0.75405 0.896215,1.52136 1.321333,1.52136 0.179708,0 1.441177,-0.23155 2.803263,-0.51454 z m -4.79952,-2.26359 c 0,-0.0728 0.05953,-0.13229 0.132292,-0.13229 0.07276,0 0.132291,0.0595 0.132291,0.13229 0,0.0728 -0.05953,0.13229 -0.132291,0.13229 -0.07276,0 -0.132292,-0.0595 -0.132292,-0.13229 z m 14.552085,-3.43958 c 0,-0.0728 0.0595,-0.13229 0.13229,-0.13229 0.0728,0 0.13229,0.0595 0.13229,0.13229 0,0.0728 -0.0595,0.13229 -0.13229,0.13229 -0.0728,0 -0.13229,-0.0595 -0.13229,-0.13229 z m -56.006032,5.6224 c 0.07824,-0.18191 1.39431,-1.81901 2.924606,-3.63803 1.530296,-1.81901 2.699413,-3.38173 2.598037,-3.47273 -0.101375,-0.091 -1.732132,-0.73208 -3.623902,-1.42464 -5.903517,-2.16124 -8.367964,-3.30972 -11.424033,-5.32382 -1.626552,-1.07197 -3.118539,-2.09801 -3.315527,-2.28007 -1.520014,-1.40486 -1.29889,-1.43208 -3.153263,0.38822 -0.93121,0.9141 -2.255578,1.94781 -2.943041,2.29714 -1.165102,0.59202 -1.443202,0.6242 -4.097659,0.47408 -1.566249,-0.0886 -5.288507,-0.52373 -8.271684,-0.96701 -5.8423018,-0.86813 -18.1823601,-2.52636 -20.7697906,-2.79099 l -1.5874999,-0.16236 2.7781249,1.22334 c 1.5279686,0.67284 5.57609342,2.33353 8.9958328,3.69043 15.8962428,6.30736 24.0274308,8.83631 36.6447898,11.39719 4.972737,1.00929 5.060121,1.01911 5.245009,0.58925 z m 59.776342,-5.40075 c -0.1819,-0.0734 -0.47956,-0.0734 -0.66146,0 -0.1819,0.0734 -0.0331,0.13345 0.33073,0.13345 0.3638,0 0.51263,-0.0601 0.33073,-0.13345 z m 1.25677,-0.91434 c 0,-0.14552 -0.11906,-0.191 -0.26458,-0.10106 -0.14552,0.0899 -0.26459,0.28258 -0.26459,0.4281 0,0.14553 0.11907,0.191 0.26459,0.10107 0.14552,-0.0899 0.26458,-0.28259 0.26458,-0.42811 z m -14.221451,-0.29268 c 1.348027,-0.17844 2.176901,-0.39413 1.984375,-0.51638 -0.181847,-0.11547 -2.500969,-0.21176 -5.153604,-0.21399 l -4.822974,-0.004 0.31384,0.6888 0.313841,0.68881 2.524758,-0.16838 c 1.388617,-0.0926 3.566511,-0.30627 4.839764,-0.47481 z m 11.936591,0.18999 c 0.41682,-0.21738 0.94268,-0.39524 1.16858,-0.39524 0.2259,0 0.33476,-0.076 0.24192,-0.16881 -0.20741,-0.20741 -2.52455,0.41811 -2.71995,0.73427 -0.21996,0.3559 0.47349,0.26576 1.30945,-0.17022 z m 3.47549,-0.30696 c 0.46503,-0.37266 0.47042,-0.40371 0.0445,-0.25617 -0.26656,0.0923 -0.59398,0.16789 -0.7276,0.16789 -0.13362,0 -0.24295,0.11906 -0.24295,0.26458 0,0.37472 0.31274,0.31518 0.92605,-0.1763 z m -8.466671,-3.523 c 9.837441,-0.76752 18.999401,-4.26941 25.625071,-9.79445 1.72763,-1.44065 1.75254,-1.56424 1.75937,-8.73125 0.003,-2.69214 0.12028,-6.79979 0.26159,-9.12812 0.25087,-4.13377 0.47591,-8.46494 1.08937,-20.96689 0.34618,-7.05498 0.33272,-7.12936 -1.60619,-8.8718 -2.63961,-2.37215 -12.42725,-8.79634 -13.07354,-8.58091 -0.14767,0.0492 -0.35266,0.40423 -0.45554,0.78892 -0.33454,1.25089 -1.25403,2.22515 -2.6786,2.83815 -1.25442,0.53979 -1.66577,0.58443 -4.04236,0.43865 -5.698615,-0.34953 -11.007965,-2.02889 -13.133106,-4.15403 -1.717049,-1.71705 -2.325695,-3.68026 -1.753154,-5.65489 0.214576,-0.74004 0.437077,-1.51155 0.494447,-1.71446 0.128885,-0.45584 -0.61711,-0.66759 -4.261316,-1.20958 -5.244076,-0.77994 -12.432252,-1.07099 -17.771813,-0.71959 -4.194159,0.27603 -11.922066,1.34441 -12.274624,1.69696 -0.06509,0.0651 0.0771,0.51017 0.315998,0.98904 0.617372,1.23755 0.752157,2.97999 0.343438,4.43979 -0.692053,2.47177 -3.693463,4.60379 -8.83464,6.27561 -7.836135,2.54816 -10.60288,2.03251 -12.051314,-2.24604 l -0.468232,-1.38312 -2.495504,2.48063 c -2.748269,2.7319 -4.372058,4.7538 -4.624025,5.75771 -0.09035,0.35999 -0.01946,3.28225 0.157529,6.49393 1.077024,19.54373 1.114204,22.3944 0.33897,25.98931 -1.401603,6.49951 -0.287687,10.93512 3.784472,15.06975 2.020842,2.05184 4.399581,3.6836 7.998634,5.48688 3.841116,1.92455 10.158299,4.12208 11.889141,4.13581 0.392629,0.003 1.105607,-0.63742 2.277381,-2.04598 3.930643,-4.72495 5.167961,-6.1727 7.768771,-9.09001 2.969063,-3.33039 4.133356,-4.2731 5.825734,-4.71705 2.3121,-0.60652 5.185664,0.75311 6.192762,2.93012 0.84628,1.82937 3.892037,7.86273 5.286994,10.47304 l 1.445537,2.70495 3.704167,0.081 c 8.339944,0.18246 9.927172,0.17485 12.964582,-0.0621 z m 14.684371,-22.89133 c 0,-0.0728 0.0595,-0.13229 0.1323,-0.13229 0.0728,0 0.13229,0.0595 0.13229,0.13229 0,0.0728 -0.0595,0.1323 -0.13229,0.1323 -0.0728,0 -0.1323,-0.0595 -0.1323,-0.1323 z m -2.11666,-0.79375 c 0,-0.0728 0.0595,-0.13229 0.13229,-0.13229 0.0728,0 0.13229,0.0595 0.13229,0.13229 0,0.0728 -0.0595,0.1323 -0.13229,0.1323 -0.0728,0 -0.13229,-0.0595 -0.13229,-0.1323 z m -44.422556,-2.39875 c -1.681238,-1.41467 -2.14781,-3.45761 -0.966441,-4.23167 0.410098,-0.26871 0.872116,-0.35764 1.25677,-0.24193 0.826482,0.24864 2.487335,1.87832 2.879753,2.8257 0.276694,0.668 0.248419,0.86966 -0.208045,1.48382 -0.744966,1.00232 -1.890431,1.06577 -2.962037,0.16408 z m 29.473595,-0.59275 c -3.958247,-1.17708 -7.244378,-3.97688 -9.092407,-7.74678 -1.462414,-2.98326 -1.973791,-5.1103 -1.966469,-8.17942 0.01155,-4.84278 1.556894,-8.67001 4.817154,-11.93027 5.219569,-5.21956 12.710973,-6.20262 20.021033,-2.62724 4.44416,2.17366 7.7727,5.75739 9.60716,10.34374 1.1027,2.75685 1.44635,5.0728 1.28735,8.67576 -0.12805,2.90168 -0.16901,3.07941 -0.84344,3.65953 -0.81891,0.7044 -0.94677,0.72716 -1.56119,0.27788 -0.40859,-0.29877 -0.42393,-0.54272 -0.15387,-2.44739 1.31249,-9.25661 -4.29766,-17.57339 -13.38407,-19.84128 -6.057724,-1.51196 -12.880592,1.39853 -15.689659,6.69287 -2.461155,4.63862 -1.255173,9.27519 2.972897,11.42973 1.721442,0.87721 1.958141,0.92604 4.488889,0.92604 2.390561,0 2.830353,-0.0779 4.180443,-0.74093 4.24275,-2.08348 6.22282,-7.32798 4.32954,-11.46744 -0.3899,-0.85248 -1.02959,-1.89336 -1.42155,-2.31306 l -0.71264,-0.7631 1.17692,0.1793 c 4.00498,0.61015 7.9145,4.20548 9.43576,8.67745 0.64589,1.89871 0.63797,5.88956 -0.0157,7.88299 -1.19649,3.64909 -4.01746,6.75127 -7.78179,8.55752 -2.13291,1.02344 -2.35088,1.07184 -5.16688,1.14735 -2.233503,0.0599 -3.321513,-0.0346 -4.527521,-0.39325 z m 0.0409,-6.11836 c 1.038748,-0.63339 1.348492,-1.77684 0.77942,-2.8773 -0.45032,-0.87082 -0.890459,-1.10971 -2.044608,-1.10971 -1.785428,0 -2.787655,2.44167 -1.487688,3.62437 1.07616,0.97908 1.623635,1.0512 2.752876,0.36264 z m -46.739853,6.03289 c -4.884252,-0.51285 -9.019436,-3.79646 -10.8562,-8.62054 -1.045427,-2.74571 -0.958076,-6.35661 0.20951,-8.66076 l 0.394801,-0.77911 0.733457,1.61577 c 1.517944,3.34397 3.978089,5.06955 7.566062,5.30695 3.207625,0.21224 6.053061,-1.08672 7.826694,-3.57292 1.291557,-1.81045 1.57083,-2.59642 1.728992,-4.86602 0.268964,-3.85957 -1.30608,-6.78336 -4.54389,-8.43494 -1.698674,-0.86647 -1.970333,-0.92449 -4.223374,-0.902 -2.807041,0.028 -4.615833,0.58469 -6.96777,2.14441 -5.12743,3.40032 -7.83909,9.0341 -7.361359,15.29405 0.349985,4.58603 0.405942,4.22272 -0.66422,4.31257 -0.811159,0.0681 -0.992408,-0.0248 -1.29004,-0.66146 -0.585303,-1.25194 -0.680326,-6.52099 -0.163941,-9.09053 1.137943,-5.66243 4.856363,-10.46028 10.015622,-12.9231 3.440017,-1.64212 6.111863,-1.98669 9.39792,-1.212 6.289725,1.48283 11.28785,6.9786 12.424828,13.66193 0.390784,2.29708 0.391806,2.73191 0.01189,5.05664 -0.691107,4.22893 -2.600527,7.62427 -5.523125,9.82122 -2.618993,1.96873 -5.625095,2.83438 -8.715857,2.50984 z m -4.26723,-6.07898 c 0.973099,-0.33922 1.356814,-0.92861 1.356814,-2.08408 0,-1.04827 -1.096375,-2.12142 -2.167328,-2.12142 -2.129108,0 -2.881126,3.44303 -0.92423,4.23148 0.76969,0.31012 0.770654,0.3101 1.734744,-0.026 z m -20.60208,26.1955 c 0.675831,-0.41584 1.737435,-1.35931 2.359119,-2.09659 l 1.130335,-1.34051 -0.940574,-1.90643 c -1.097367,-2.22423 -1.747662,-4.74913 -1.751677,-6.80122 -0.0033,-1.70639 0.644376,-5.92259 1.19629,-7.78709 0.487262,-1.64608 0.483264,-4.21605 -0.01896,-12.18895 -0.219996,-3.4925 -0.461245,-7.54063 -0.536107,-8.99584 -0.07486,-1.45521 -0.372649,-5.62239 -0.66175,-9.26041 -0.658437,-8.28573 -0.892613,-16.65846 -0.497609,-17.79156 0.380829,-1.09245 2.340351,-2.89353 5.11769,-4.70389 8.111581,-5.2874 19.648789,-9.27114 31.378802,-10.83495 4.971238,-0.66275 4.593762,-0.47296 4.389941,-2.20715 -0.312982,-2.66299 -0.246106,-2.57932 -2.358316,-2.9507 -2.655172,-0.46686 -6.692803,-1.53014 -7.608451,-2.00364 -1.456391,-0.75313 -1.612615,-1.29369 -1.147815,-3.9716 0.498253,-2.87065 1.4493,-5.79287 2.577512,-7.91976 0.895319,-1.68784 3.547421,-4.68475 5.065943,-5.72459 0.913968,-0.62586 0.91918,-0.64084 0.863158,-2.48174 -0.0393,-1.29153 0.0632,-2.02196 0.338661,-2.41334 1.157167,-1.64413 4.697486,-4.943 7.30221,-6.8042 4.755748,-3.39821 10.320789,-3.20344 13.549823,0.47422 2.170497,2.47206 3.221082,5.11974 3.221082,8.11774 0,1.78807 0.02364,1.85373 0.82496,2.29153 8.551947,4.67234 10.6926,6.90847 12.277827,12.82547 0.98389,3.67247 0.85971,4.67752 -0.66737,5.40121 -0.817293,0.38733 -7.085084,1.73735 -10.917193,2.35146 -1.56607,0.25097 -3.011299,0.58747 -3.211618,0.74778 -0.20032,0.1603 -0.441358,1.02154 -0.53564,1.91386 l -0.171422,1.6224 0.869499,0.1529 c 0.478225,0.0841 1.643405,0.22382 2.589291,0.3105 9.861449,0.90361 22.862283,4.80371 31.485413,9.44526 3.76815,2.02826 4.12759,2.23863 6.31517,3.69599 2.35102,1.56624 3.63545,2.71052 4.15453,3.70118 0.46815,0.89348 0.51849,6.93269 0.12753,15.30041 -0.15298,3.27422 -0.39667,9.40594 -0.54153,13.62604 -0.14487,4.2201 -0.43534,10.17323 -0.64549,13.22917 -0.21015,3.05593 -0.46394,8.91768 -0.56398,13.02611 -0.2115,8.68604 -0.34844,8.14819 2.55224,10.02462 3.58524,2.31928 3.63725,2.32806 13.86924,2.33934 7.46397,0.008 12.68359,-0.14818 13.36145,-0.40039 0.0728,-0.0271 0.19988,-0.0424 0.28249,-0.034 0.37806,0.0384 5.68563,-0.55293 14.89447,-1.65938 5.50967,-0.662 10.19639,-1.20363 10.41494,-1.20363 0.46279,0 0.47812,0.1423 -0.8551,-7.9375 -1.1714,-7.09906 -2.28134,-12.16132 -3.85032,-17.56067 -2.86046,-9.8437 -6.70759,-21.80484 -7.54228,-23.44974 -0.18461,-0.3638 -1.61644,-3.87615 -3.18184,-7.80521 -4.1167,-10.33262 -6.26094,-14.86468 -11.70451,-24.73854 -6.40239,-11.61302 -14.56536,-21.60258 -22.53493,-27.57743 -5.67529,-4.25483 -14.06609,-8.64315 -21.96041,-11.48514 -3.73228,-1.34364 -11.42247,-3.44622 -14.2875,-3.90636 -11.443282,-1.83788 -25.645902,-1.24153 -36.694078,1.54074 -17.300081,4.35668 -31.218592,14.03648 -42.068911,29.25736 -11.8299566,16.59511 -23.6176558,44.29149 -30.347807,71.3052 -1.918912,7.7022 -4.120025,19.44665 -4.128155,22.02656 l -0.0027,0.8599 1.785937,0.006 c 2.355467,0.007 10.1304426,0.84382 22.1588532,2.38425 6.2212568,0.79673 9.2399058,1.01509 11.8879308,0.85994 1.993813,-0.11681 2.554882,-0.25655 3.591715,-0.89452 z m 103.531974,-64.49075 c -0.12849,-1.45365 -0.26748,-1.79742 -1.03843,-2.56837 -2.11672,-2.11672 -8.72044,-5.98313 -14.12424,-8.26961 -7.74585,-3.27745 -18.475886,-5.9889 -25.955756,-6.55895 l -2.275552,-0.17342 -0.296399,2.29611 c -0.163019,1.26287 -0.450105,2.61725 -0.637968,3.00974 -0.561914,1.17398 -1.59594,1.34386 -8.272862,1.35916 -8.016667,0.0184 -7.726744,0.18003 -8.631405,-4.81272 l -0.323603,-1.78594 h -1.259718 c -3.67656,0 -14.961289,2.48894 -21.270689,4.69143 -5.870725,2.04935 -14.227814,6.64698 -16.232623,8.93033 -0.758162,0.8635 -0.832788,1.10836 -0.830635,2.72547 0.0039,2.93588 0.513295,10.39854 0.737079,10.79842 0.156109,0.27895 0.458505,0.0454 1.200024,-0.92699 2.363697,-3.09948 7.920609,-7.55883 12.365281,-9.92297 3.65409,-1.94363 7.507302,-3.03712 15.857749,-4.50021 12.788466,-2.24069 20.670333,-2.24682 33.866665,-0.0263 1.236927,0.20814 3.673877,0.51318 5.415445,0.67787 6.475887,0.6124 11.886267,2.66099 15.354347,5.81379 0.43656,0.39688 2.77615,1.86041 5.1991,3.25229 4.29413,2.46681 7.73927,4.77684 9.88214,6.62616 l 1.05834,0.91335 0.18103,-4.93515 c 0.0996,-2.71434 0.11427,-5.69039 0.0327,-6.61345 z m -46.820561,-14.06816 c 0.557657,-0.55834 3.186242,-26.60875 3.203316,-31.74626 0.01116,-3.35891 -0.03079,-3.65874 -0.703701,-5.02886 -0.86596,-1.76319 -2.610637,-3.60051 -4.046927,-4.26181 -1.683733,-0.77524 -3.949497,-0.66501 -5.844719,0.28432 -1.884957,0.9442 -5.418204,3.73 -7.092173,5.59186 -1.338835,1.48911 -1.390667,1.74467 -0.960823,4.73741 0.135856,0.94589 0.548708,4.3987 0.917449,7.67292 0.770532,6.8419 2.689624,20.54643 3.08816,22.05302 l 0.269461,1.01865 5.517042,-0.0926 c 3.034374,-0.0509 5.578185,-0.15382 5.652915,-0.22864 z m 9.962062,-13.37205 c 2.110052,-0.38645 4.64013,-0.94485 5.622395,-1.24089 2.079814,-0.62682 2.093237,-0.66598 1.199415,-3.49981 -1.110038,-3.51933 -3.501039,-6.17954 -7.874611,-8.76124 -1.088364,-0.64245 -2.174313,-1.1681 -2.413221,-1.1681 -0.500599,0 -0.519903,0.1318 -1.30189,8.88903 -0.659805,7.38894 -0.678142,6.79312 0.20385,6.62354 0.400182,-0.0769 2.45401,-0.45608 4.564062,-0.84253 z m -26.333384,-0.71327 c -0.08682,-0.76398 -0.259916,-2.16297 -0.384648,-3.10885 -0.124733,-0.94589 -0.364587,-3.20808 -0.533009,-5.02709 -0.168422,-1.81901 -0.387353,-3.8421 -0.486513,-4.49576 l -0.180291,-1.18847 -1.622917,1.62291 c -1.074094,1.0741 -1.944933,2.28127 -2.575145,3.56973 -0.976235,1.99588 -2.455587,7.32511 -2.210609,7.96351 0.118571,0.30899 1.96502,0.81949 6.412976,1.77304 1.798803,0.38563 1.753621,0.41734 1.580156,-1.10902 z"
       id="path130" /></g></svg>
