<?xml version="1.0" encoding="UTF-8" standalone="no"?>
<!-- Created with Inkscape (http://www.inkscape.org/) -->

<svg
   width="172.29013mm"
   height="232.41792mm"
   viewBox="0 0 172.29015 232.41789"
   version="1.1"
   id="svg1"
   xml:space="preserve"
   xmlns="http://www.w3.org/2000/svg"
   xmlns:svg="http://www.w3.org/2000/svg"><defs
     id="defs1"><clipPath
       clipPathUnits="userSpaceOnUse"
       id="clipPath6"><path
         id="path7"
         style="fill:#ff0000;fill-opacity:1;fill-rule:nonzero;stroke:none;stroke-width:0.264583"
         d="M -175.07778,-16.057127 V 287.55793 H 124.54631 V -16.057127 Z m 132.7459,202.572647 c 0.210643,0.005 0.427212,0.0169 0.650089,0.0367 2.23823,0.19855 4.475655,0.4031 6.717938,0.55346 1.973313,0.11308 0.986628,0.0436 2.958475,0.20825 3.181295,0.26563 4.740125,1.85116 4.950601,3.46956 4.949923,1.63749 3.796379,7.35609 -2.592089,6.81354 -3.228716,-0.27422 -1.569593,-0.1301 -4.979024,-0.43357 -4.228209,-0.39317 -8.460616,-0.76265 -12.666927,-1.35341 -6.647387,-0.93358 -5.930551,-7.21034 0.03204,-7.20421 0.04685,5e-5 0.0972,0.004 0.144695,0.005 0.687229,-1.21692 2.304132,-2.15435 4.784204,-2.09548 z" /></clipPath><clipPath
       clipPathUnits="userSpaceOnUse"
       id="clipPath76"><path
         id="path77"
         style="fill:#ff0000;fill-opacity:1;fill-rule:nonzero;stroke:none;stroke-width:0.264583"
         d="M -133.83107,-122.52355 V 173.82063 H 122.97289 V -122.52355 Z M 13.574404,98.948202 c 2.788179,0.0507 4.135003,2.063798 3.398242,4.077268 0.199805,0.45372 0.374906,0.96736 0.517797,1.54461 1.07913,4.35948 0.671079,8.891 0.311608,13.31495 -0.351859,3.06036 -0.147137,1.57974 -0.604097,4.44366 -0.359666,2.25418 -1.333846,3.66838 -2.455664,4.32532 0.105138,0.36595 0.224724,0.72888 0.324528,1.09554 0.6273,2.23652 0.575201,4.47401 0.39429,6.75514 -0.137303,1.73129 -0.688065,2.99533 -1.427303,3.82199 -0.112477,0.41601 -0.170275,0.80219 -0.311092,1.25212 -0.184975,0.59102 -0.413327,1.1061 -0.670242,1.55856 0.741137,-0.23134 1.446982,-0.38145 2.064991,-0.37517 4.085002,0.0415 5.222724,4.75435 -0.02223,7.27138 -4.46677,2.14368 -9.303523,3.34693 -14.11903492,4.40955 -4.40876268,0.85156 -8.89238128,1.33053 -13.38264308,1.19269 -5.804014,-0.17807 -6.736297,-5.00293 -3.065447,-6.67298 -2.072987,-0.65744 -4.042852,-1.62261 -4.128947,-3.14709 -0.02802,-0.49633 0.0026,-0.90355 0.0341,-1.30897 -1.976731,-0.003 -3.95339,2.4e-4 -5.930386,0.003 -0.814031,0 -1.53062,-0.0962 -2.159559,-0.26149 -0.376306,0.19492 -0.742394,0.40783 -1.120862,0.59893 -6.391272,3.22657 -9.625245,-3.24074 -3.234428,-6.46886 1.833438,-0.92611 3.62694,-1.92211 5.414142,-2.92954 -0.877003,-3.87058 -1.368747,-7.83436 -1.323951,-11.80858 0.01651,-1.46304 0.376836,-2.54918 0.864547,-3.41426 -1.247357,-1.79999 -0.223805,-4.63069 3.842661,-5.68855 3.11826,-0.81116 6.282901,-1.39515 9.473837,-1.82211 -1.259816,-0.12657 -2.516182,-0.30233 -3.764627,-0.50177 -1.477002,-0.21985 -2.935575,-0.54305 -4.407482,-0.7891 -1.14214,-0.22954 -0.588502,-0.12004 -1.660882,-0.3297 -3.350244,-0.65501 -4.783278,-2.61088 -4.608504,-4.32997 -0.200179,-1.7721 1.333365,-3.52972 4.663799,-3.59461 v -5.3e-4 c 0.20954,-0.004 0.426035,-0.002 0.649571,0.008 1.77111,0.0772 3.528708,0.28204 5.26428,0.64027 1.655035,0.33225 3.314115,0.6481 4.955251,1.04439 1.244759,0.34858 2.51628,0.54538 3.7997689,0.6723 0.025956,0.002 0.052073,0.002 0.078034,0.004 0.4990888,-0.0371 0.9984105,-0.0743 1.4965495,-0.11317 1.346872,-0.12588 2.6913231,-0.25136 4.0457464,-0.24236 1.1278499,-0.0444 2.2567291,-0.10772 3.37498791,-0.26872 0.75719517,-0.11591 1.51142439,-0.25483 2.25722659,-0.4284 0.3616431,-0.12394 0.7240561,-0.24538 1.083138,-0.37775 0.3360393,-0.12388 0.6107589,-0.12825 0.9250071,-0.20723 0.1281086,-0.045 0.2583895,-0.0825 0.3855085,-0.13074 1.9825018,-0.7681 3.9540551,-1.56464 5.9510551,-2.29443 1.050809,-0.383992 1.999634,-0.542639 2.826703,-0.527616 z M 0.70283723,110.39557 c -0.45566013,0.0949 -0.90775367,0.208 -1.36890919,0.2744 -1.16638124,0.15534 -2.34111274,0.24237 -3.51761424,0.26251 0.4031694,0.0896 0.8047355,0.18876 1.2025101,0.308 0.1014836,0.0304 0.1982549,0.075 0.2986907,0.10852 0.4205235,-0.21824 0.9206601,-0.35072 1.4898318,-0.37156 0.39885139,-0.0146 0.83259872,0.0278 1.29449508,0.13023 0.22468681,-0.12213 0.44967525,-0.24374 0.67437529,-0.36587 -0.0326284,-0.11319 -0.058211,-0.22834 -0.0733795,-0.34623 z m 10.24433577,1.02474 c -0.76023,0.21437 -1.5189569,0.4343 -2.2696301,0.68006 -0.031261,0.62207 -0.2256075,1.28373 -0.6464723,1.94355 0.6236891,0.43248 1.2549743,1.04482 1.8634525,1.86862 0.2674939,0.36214 0.4748849,0.75712 0.7188199,1.13223 0.154519,-1.86707 0.314174,-3.74736 0.33383,-5.62446 z m 64.566086,3.39773 c 1.50346,0.0187 3.129182,1.24994 3.928441,4.04678 0.257931,0.90255 0.823497,1.65871 1.488797,2.30735 0.856321,0.95375 1.845738,1.76777 2.801898,2.61638 1.458581,1.46408 2.789203,3.04608 4.169772,4.58215 1.315059,1.44746 2.571226,2.91698 3.543967,4.61884 0.0053,0.01 0.0082,0.0206 0.01344,0.0305 0.734605,-0.43313 1.446276,-0.65634 2.094962,-0.69195 3.016182,-0.16561 4.69137,3.55377 1.187525,7.32306 -1.69471,1.82311 -3.657862,3.33908 -5.68751,4.7651 -0.777873,0.49914 -1.607691,0.90075 -2.418456,1.33842 0.165478,1.44344 -0.672182,3.24303 -2.956409,4.73096 -1.354556,0.88234 -2.690448,1.79306 -4.075203,2.6288 -2.075008,1.20078 -4.233777,2.27962 -6.540687,2.96259 -2.077586,0.62971 -4.169056,1.29987 -6.359301,1.36374 -1.872114,0.0897 -3.746989,0.0368 -5.620845,0.0501 h -5.1108 -5.524728 c -7.160125,0 -7.160125,-7.23315 0,-7.23315 h 1.347722 c 0.29438,-0.0541 0.5212,-0.1588 0.84801,-0.18656 1.106628,-0.094 2.200932,-0.28334 3.292822,-0.48421 0.456121,-0.98163 1.356053,-1.98213 2.807581,-2.83962 1.078018,-0.63685 2.158119,-1.26923 3.212209,-1.94561 1.962647,-1.29302 3.840588,-2.72135 5.893696,-3.86902 1.367169,-0.76424 2.559646,-1.07097 3.526915,-1.04128 2.216811,0.068 3.246223,1.90266 2.479953,4.04059 1.105688,-0.48686 2.206929,-0.98346 3.283003,-1.53739 2.619811,-1.23728 5.288743,-2.38548 7.764385,-3.9026 0.246153,-0.17184 0.487463,-0.34958 0.730705,-0.52503 -0.126915,-0.50614 -0.277693,-0.9939 -0.512114,-1.46554 -0.647621,-1.25778 -1.721077,-2.20654 -2.600875,-3.29644 -1.199229,-1.33472 -2.369312,-2.69496 -3.592029,-4.00803 -1.098706,-0.97599 -2.227236,-1.92181 -3.215306,-3.01428 -1.300821,-1.39063 -2.459913,-2.93896 -3.045293,-4.77801 -1.289469,-4.05101 0.646382,-6.61405 2.843754,-6.58667 z m -95.086705,4.28035 c -0.465643,0.10748 -0.930899,0.21773 -1.394745,0.33435 0.171958,0.64334 0.283575,1.36624 0.279569,2.2071 -0.01267,2.6582 0.205063,5.32647 0.670242,7.94732 0.280107,-0.17087 0.565767,-0.33222 0.845429,-0.50385 -0.01897,-0.36223 -0.02445,-0.73164 -0.05529,-1.08985 -0.118034,-2.96491 -0.160888,-5.93314 -0.3452,-8.89507 z m 18.5141159,1.1958 c 0.00497,0.0773 0.00619,0.15612 0.014975,0.23202 -0.1238779,0.22787 -0.2588048,0.44752 -0.3937741,0.66715 0.58900751,0.0447 1.13203305,0.21413 1.64331124,0.45888 -0.37615284,-0.49255 -0.78353709,-0.94642 -1.26452314,-1.35805 z m -6.5422357,14.57068 c -0.046649,0.0755 -0.09888,0.14702 -0.1436608,0.22376 -0.03147,0.054 0.1963367,0.0838 0.1860365,0.0222 -0.017595,-0.10481 -0.026035,-0.14905 -0.042376,-0.24597 z m 13.9236979,6.08439 c -0.2236258,0.5643 -0.5677508,1.09664 -1.1782213,1.50533 0.9079653,0.17659 1.7077452,0.44257 2.2830631,0.84852 0.1405493,-0.0459 0.272804,-0.11448 0.4128956,-0.16174 -0.7336976,-0.43656 -1.2984269,-1.18703 -1.5177374,-2.19211 z" /></clipPath><clipPath
       clipPathUnits="userSpaceOnUse"
       id="clipPath127"><path
         id="path128"
         style="fill:#ff0000;fill-opacity:1;fill-rule:nonzero;stroke:none;stroke-width:0.264583"
         d="M -112.24796,-126.55676 V 185.58027 H 148.5754 V -126.55676 Z M 46.874626,83.305366 c 1.808208,0 3.616317,1.790192 3.616317,5.370214 v 5.232238 c 0.0627,2.146078 -0.111291,4.285324 -0.245462,6.424932 -0.136289,2.02485 -0.190703,4.04985 -0.104904,6.07715 0.192061,1.91863 0.527714,3.82569 0.876432,5.72213 0.304242,2.00862 0.765826,3.9858 1.180806,5.97276 0.41642,1.86142 0.967934,3.68703 1.421104,5.53972 0.25287,0.86996 0.117097,0.46495 0.396356,1.22008 0.186108,0.50319 0.223428,0.93098 0.309544,1.38441 4.425355,2.23251 2.751262,7.58433 -3.415813,6.40477 -3.104732,-0.59371 -6.256094,-0.76586 -9.40821,-0.85576 -3.81635,0.009 -7.630525,0.17062 -11.44478,0.28216 -1.12776,0.0333 -2.255837,0.0512 -3.383772,0.0754 -0.908129,0.5548 -1.966518,0.57724 -2.88613,0.0641 -0.03584,5.3e-4 -0.07165,0.002 -0.107487,0.003 -0.03142,5.3e-4 -0.0525,-0.009 -0.08268,-0.009 -0.32049,0.14732 -0.641715,0.29301 -0.962215,0.44028 -0.262501,0.12062 -0.518089,0.22111 -0.770496,0.31265 -0.876996,0.71434 -1.945576,0.85817 -2.911967,0.46405 -2.943479,-0.21613 -4.295167,-2.77187 -2.550232,-5.0524 -2.22e-4,-0.028 -0.0078,-0.0483 -0.0078,-0.0765 v -6.3469 c -0.014,-2.72977 -0.02254,-5.45666 0.112657,-8.18348 0.135676,-2.32533 0.233519,-4.6523 0.299723,-6.98046 0.046,-1.80459 0.06926,-3.60958 0.08527,-5.41465 -0.0258,-1.02998 0.04009,-2.054459 0.138491,-3.078883 0.0044,-0.04602 0.02191,-0.07504 0.02687,-0.120406 C 15.992671,97.193438 15.83363,95.70984 16.656834,94.418959 10.68718,93.678613 10.992573,87.32947 17.739972,87.32947 h 3.885033 5.177462 5.913334 c 1.498505,0.05847 2.984222,-0.03228 4.475178,-0.161748 1.252041,-0.18606 2.49041,-0.398671 3.697968,-0.782897 1.001961,-0.32245 0.492366,-0.161472 1.527553,-0.482142 0.510384,-0.158096 0.938446,-0.174371 1.394749,-0.23771 0.672338,-1.56932 1.86623,-2.35903 3.063377,-2.35903 z" /></clipPath></defs><g
     id="layer1"
     transform="translate(121.56307,312.03067)"><path
       style="fill:#000000"
       d="m 14.843127,-79.802656 c -0.80036,-0.132718 -3.59833,-0.225147 -6.2176998,-0.205399 -4.63522,0.03495 -4.7985,0.0176 -6.10924,-0.649129 -1.62957996,-0.82891 -2.69963996,-1.999987 -3.71271,-4.063194 -0.68842,-1.402015 -0.76139,-1.810522 -0.76139,-4.262644 v -2.712026 l -27.4505202,4.7e-5 c -15.09778,2.6e-5 -27.45051,0.05183 -27.45051,0.115115 0,0.06329 0.12857,0.45024 0.28571,0.859896 0.15715,0.409655 0.28671,1.52135 0.28793,2.470433 0.004,3.147808 -1.89429,6.169845 -4.78213,7.612917 l -1.55237,0.775729 -7.80223,-0.05663 c -7.52088,-0.05459 -7.84717,-0.07838 -9.04827,-0.659821 -3.11171,-1.506353 -4.88772,-6.490178 -3.63092,-10.189073 0.2962,-0.871762 0.51414,-1.60943 0.48431,-1.639262 -0.0298,-0.02983 -0.97251,-0.243914 -2.09484,-0.475738 -6.10743,-1.261523 -10.31703,-4.681744 -11.84418,-9.623155 -1.26747,-4.10114 -0.31616,-8.85637 2.35651,-11.77932 0.9601,-1.05001 3.62676,-2.28231 4.92902,-2.27777 1.48619,0.005 2.20174,0.44853 3.31376,2.05315 1.97079,2.84379 3.61271,3.48767 9.41375,3.69159 l 3.99627,0.14048 0.18104,-1.36475 c 0.25704,-1.93762 1.52865,-5.4367 3.39723,-9.34809 l 1.60914,-3.36831 -0.84488,-1.83299 c -1.12065,-2.43127 -1.29791,-4.06808 -0.58772,-5.42699 0.43566,-0.83362 0.50878,-1.32444 0.38035,-2.55323 -0.13952,-1.33486 -0.0607,-1.72704 0.64336,-3.20132 0.4413,-0.92406 0.96127,-2.13786 1.15547,-2.69735 0.19421,-0.55948 0.74688,-1.47727 1.22815,-2.03953 l 0.87504,-1.02228 -0.37093,-1.26776 -0.37093,-1.26776 -1.29393,0.13229 c -2.36915,0.24222 -5.50732,0.0867 -7.24705,-0.35909 -1.308,-0.33518 -1.94111,-0.37663 -2.64408,-0.1731 -4.0012,1.15843 -14.82672,-1.37126 -20.55952,-4.80432 -2.23939,-1.34105 -4.055027,-3.09256 -4.747687,-4.58 -0.56949,-1.22297 -0.61874,-1.67554 -0.62112,-5.70798 l -0.003,-4.37969 -2.57968,-0.61287 c -8.81257,-2.09362 -13.78327,-4.84379 -15.84193,-8.76496 -1.09603,-2.08763 -1.03537,-4.65387 0.23109,-9.77632 2.12258,-8.58526 6.39869,-24.16531 8.93198,-32.54375 5.09365,-16.84638 12.299647,-36.57241 17.889327,-48.971 1.55591,-3.4512 2.2179,-5.22661 2.21972,-5.95312 0.0111,-4.43298 10.51974,-15.64133 21.29637,-22.7143 5.57918,-3.66175 9.49071,-5.62119 15.00737,-7.51776 7.03342,-2.41802 12.14956,-3.23207 21.37283,-3.4007 7.73774,-0.14148 12.19623,0.18888 18.65955,1.38261 1.95209,0.36054 3.66863,0.65552 3.81454,0.65552 0.14592,0 0.46256,-0.68461 0.70366,-1.52135 1.3839402,-4.80297 3.8575402,-7.00848 6.9367302,-6.18492 0.67599,0.1808 1.62891,0.6337 2.1176,1.00645 1.75604004,1.33939 4.2491,5.29417 5.47445,8.6842 0.263,0.7276 0.618,1.47754 0.78888,1.66652 0.17089,0.18898 1.45678,0.85976 2.85754,1.49062 3.0834598,1.38869 5.3023398,2.93571 7.8932298,5.50323 4.23129,4.19312 8.23023,9.98003 11.36595,16.44779 2.01772,4.16175 2.82327,6.69051 3.82752,12.0152 0.75782,4.0181 0.75828,4.01971 2.06432,7.20788 0.50975,1.24437 1.82907,5.55171 2.93181,9.57187 1.10274,4.02016 3.02661,10.68157 4.27526,14.80313 2.59214,8.55616 7.51393,25.94972 9.24507,32.67198 1.57831,6.12878 1.83438,7.89245 1.45894,10.0484 -0.62318,3.57857 -2.30671,6.17202 -5.29703,8.15998 -1.84591,1.22716 -10.13416,5.54493 -12.12791,6.31805 l -1.14009,0.44209 0.17743,1.80065 c 0.14963,1.51848 0.0929,1.96638 -0.3621,2.85821 -0.79612,1.56052 -2.3386,2.81158 -5.18559,4.20586 -1.39481,0.68309 -2.53584,1.31761 -2.53564,1.41005 2e-4,0.0924 0.69436,0.37198 1.54258,0.62122 2.96636,0.87163 5.73431,3.19348 6.91875,5.8037 0.69735,1.53679 0.71402,4.48935 0.0362,6.41778 -1.05441,2.99998 -3.61233,5.76673 -6.76592,7.31829 -2.82076,1.38781 -4.54056,1.67978 -8.47888,1.43949 -1.74625,-0.10655 -3.56909,-0.20993 -4.05076,-0.22974 l -0.87575,-0.036 -0.12015,4.14577 c -0.10982,3.78929 -0.0749,4.2225 0.40644,5.03827 0.33806,0.57296 0.63675,1.83576 0.83429,3.52714 0.16923,1.44906 0.52925,3.39133 0.80004,4.31617 0.27079,0.92483 0.49234,1.95676 0.49234,2.29317 0,0.3364 0.23646,1.16327 0.52545,1.83746 0.60117,1.40247 2.00769,7.91611 2.27702,10.54493 l 0.18103,1.76688 2.27856,-0.008 c 5.53123,-0.0198 8.4568,-0.9725 10.73361,-3.49525 0.69065,-0.76526 1.54742,-1.70502 1.90394,-2.08837 1.57271,-1.69108 4.59678,-1.54516 6.45335,0.31141 1.69795,1.69795 2.90727,5.05742 2.89453,8.04095 -0.0146,3.43035 -1.77866,7.72154 -4.18506,10.1807 -2.40589,2.458633 -7.68884,4.638252 -12.65762,5.222235 -0.77494,0.09108 -1.40897,0.209167 -1.40897,0.26242 0,0.05325 0.23383,0.533108 0.51963,1.066347 0.74492,1.389846 1.15132,3.654029 0.99821,5.561351 -0.1802,2.244931 -1.27587,4.17925 -2.96254,5.230141 -1.12517,0.701045 -1.5088,0.788838 -3.6761,0.841281 -1.3309,0.0322 -3.07467,-0.05003 -3.87504,-0.182752 z m -77.19924,-3.588479 c 1.07761,-0.557253 2.56075,-1.929828 2.99714,-2.773705 0.86298,-1.668825 0.27844,-4.07674 -1.33316,-5.491747 -0.93867,-0.824167 -0.97526,-0.832116 -3.82973,-0.832116 -2.80591,0 -2.89664,0.0186 -3.43613,0.704448 -0.74144,0.942591 -0.9393,1.74339 -0.93941,3.80204 -1.3e-4,2.677957 0.99398,4.409154 2.91033,5.068204 0.72075,0.247873 2.74279,-0.01783 3.63096,-0.477124 z m -1.03102,-2.334018 c -0.86071,-0.621423 -1.25582,-2.053391 -0.88042,-3.190855 0.37533,-1.137262 1.16214,-1.720612 2.32074,-1.720612 2.02779,0 3.17509,3.248462 1.63845,4.639106 -0.69593,0.629811 -2.37763,0.778581 -3.07877,0.272361 z m 2.24194,-1.260217 c 0.17462,-0.174625 0.3175,-0.627063 0.3175,-1.005417 0,-0.378354 -0.14288,-0.830791 -0.3175,-1.005416 -0.45362,-0.453612 -1.4493,-0.39223 -1.63857,0.101014 -0.43139,1.12417 0.0132,2.227319 0.89773,2.227319 0.23284,0 0.56621,-0.142875 0.74084,-0.3175 z m 80.94808,3.879284 c 1.25685,-0.525146 1.85789,-1.081957 2.47673,-2.294473 1.06266,-2.08209 0.33461,-4.051391 -2.18298,-5.904735 -1.58287,-1.165243 -1.63954,-1.183409 -3.69136,-1.183409 h -2.0838 l -0.72079,1.089176 c -0.85811,1.296691 -1.143,3.909306 -0.60429,5.541627 0.85475,2.589915 4.07654,3.89246 6.80649,2.751814 z m -1.89353,-3.052918 c -0.74172,-0.881482 -0.83105,-1.413142 -0.41936,-2.495943 0.40623,-1.068485 0.97976,-1.502684 2.02396,-1.532283 0.76307,-0.02163 1.10808,0.148094 1.74101,0.856473 0.65825,0.736702 0.76436,1.037538 0.63882,1.811108 -0.35398,2.181339 -2.63765,2.961193 -3.98443,1.360645 z m 2.54753,-1.190872 c 0.37325,-0.819208 0.0331,-1.525597 -0.79423,-1.649154 -0.69212,-0.103371 -1.1886,0.756614 -0.96079,1.664272 0.23331,0.929558 1.3289,0.92012 1.75502,-0.01512 z m -95.1124,3.955698 0.59198,-0.158665 -0.55749,-0.782926 c -1.36597,-1.918327 -1.46891,-4.824965 -0.23238,-6.56151 0.29257,-0.410889 0.53196,-0.817988 0.53196,-0.904664 0,-0.08668 -0.5252,-0.157594 -1.16711,-0.157594 -0.96682,0 -1.27949,0.133561 -1.82198,0.778277 -1.42097,1.68872 -1.58836,5.022765 -0.34641,6.899482 0.72163,1.090456 1.44569,1.304579 3.00143,0.8876 z m 81.7848402,-0.0612 0.62058,-0.174341 -0.58258,-0.526889 c -0.32042,-0.289789 -0.82246,-0.996884 -1.11563,-1.571321 -0.69102,-1.353968 -0.5435,-4.055468 0.28246,-5.172638 0.64961,-0.878642 0.54386,-1.044036 -0.57116,-0.893272 -1.75062,0.236708 -1.9477,0.353946 -2.44358,1.453595 -0.93903,2.082397 -0.43778,5.02748 1.09789,6.450695 0.70911,0.657177 1.47932,0.780482 2.71202,0.434171 z m -78.7372902,-2.315279 c -0.0915,-1.457388 -0.22762,-1.690965 -0.98539,-1.690965 -0.58905,0 -0.66976,0.111591 -0.66976,0.926041 0,0.582618 0.20237,1.128417 0.5457,1.471745 0.77398,0.773976 1.18595,0.511514 1.10945,-0.706821 z m 81.68568,0.756431 c -0.002,-0.254662 -0.0777,-0.915811 -0.1691798,-1.469221 -0.15494,-0.937604 -0.22238,-1.000735 -0.98928,-0.926041 -1.12239,0.109317 -1.28716,1.227553 -0.32295,2.191765 0.77288,0.77288 1.4856098,0.870785 1.4814098,0.203497 z m -89.20329,-6.008137 c 0.45449,-0.770309 0.48157,-0.937176 0.15206,-0.937176 -0.60672,0 -1.42094,2.062665 -1.42754,3.616381 -0.01,2.3304 0.3718,2.534804 0.55529,0.297357 0.11067,-1.349562 0.35428,-2.356387 0.72019,-2.976562 z m 81.1052502,0.181427 c 0.50034,-0.967558 0.52189,-1.118603 0.15957,-1.118603 -0.14766,0 -0.50441,0.386953 -0.79276,0.859896 -0.54482996,0.893585 -0.67043996,2.371176 -0.33456,3.935677 0.16721,0.778885 0.21393,0.65392 0.3657,-0.978131 0.0957,-1.029104 0.36662,-2.243582 0.60205,-2.698839 z m 7.87963,1.06421 c 0.13775,-0.970067 -0.0162,-1.653646 -0.37255,-1.653646 -0.51434,0 -1.25821,0.858511 -1.25821,1.452118 0,0.728308 0.2032,0.929132 0.94011,0.929132 0.43929,0 0.61337,-0.1834 0.69065,-0.727604 z m -81.5349202,-0.595313 c 0,-1.217229 -0.50965,-1.421107 -1.17562,-0.470295 -0.67384,0.962038 -0.5323,1.528629 0.38187,1.528629 0.74965,0 0.79375,-0.0588 0.79375,-1.058334 z m 94.7213,-5.813412 c 5.03684,-0.498542 9.75062,-2.094618 12.07817,-4.089649 1.21953,-1.0453 2.74382,-3.18829 2.72743,-3.83448 -0.007,-0.26271 -0.14867,-0.1637 -0.38276,0.26688 -0.46137,0.8486 -2.73976,2.61124 -4.50144,3.48247 -3.39479,1.678863 -7.39494,2.498946 -13.89062,2.847758 -6.46903,0.34738 -95.57006,0.332184 -99.5499,-0.01698 -5.35029,-0.469396 -8.64024,-1.591406 -10.5603,-3.601498 -0.86998,-0.91078 -1.28677,-1.59858 -2.29855,-3.79317 -0.28347,-0.61487 -0.29442,-0.59624 -0.1554,0.26459 0.24863,1.53953 1.72998,4.21446 2.87971,5.199964 2.11475,1.812683 5.56597,3.082724 9.42166,3.467146 3.10851,0.309926 100.9818,0.128669 104.232,-0.193033 z m 0.92557,-3.275834 c 7.37523,-1.230245 11.4865,-3.332945 13.1281,-6.714335 0.83903,-1.72825 0.87348,-4.73293 0.0667,-5.81654 -0.70463,-0.9464 -1.76872,-1.34928 -2.33107,-0.88258 -0.51679,0.4289 -0.54056,1.33604 -0.035,1.33604 0.66845,0 1.47441,1.32582 1.47441,2.42543 0,4.18888 -4.51552,6.94007 -13.57924,8.27347 -2.3048,0.33907 -9.83809,0.40457 -52.302,0.45472 -37.65224,0.0445 -50.15143,-0.0185 -51.85833,-0.2614 -4.94038,-0.70294 -7.25393,-1.94253 -8.57561,-4.5948 -0.98792,-1.98251 -0.94195,-3.60489 0.13697,-4.83372 1.51304,-1.72326 0.0804,-2.47835 -1.50759,-0.79459 -2.5588,2.71311 -0.70733,7.98329 3.57149,10.16618 1.43923,0.73424 4.44497,1.336001 7.91548,1.584711 1.55369,0.111342 24.97051,0.179113 52.03738,0.150601 44.56084,-0.04694 49.46258,-0.09356 51.85833,-0.493187 z m -87.77132,-2.741255 c -1.20285,-0.80474 -2.97685,-2.16302 -3.94221,-3.01841 l -1.75521,-1.55525 -4.59479,-0.008 c -7.38111,-0.0131 -10.83754,-0.70299 -13.45751,-2.68597 -1.36999,-1.03691 -1.40441,-1.04696 -1.89716,-0.55421 -1.20615,1.20615 -0.83051,3.75182 0.8713,5.90478 2.20722,2.79234 5.37551,3.34765 19.21933,3.36865 l 7.74327,0.0117 z m 82.34736,1.22162 c 4.04857,-0.20578 9.52346,-1.16139 11.96167,-2.08783 2.98303,-1.13346 4.9861,-3.15265 5.31831,-5.3611 0.16812,-1.11762 0.0222,-1.28534 -0.34538,-0.39687 -0.1822,0.44044 -0.20566,0.30314 -0.0902,-0.52774 0.16426,-1.18185 -0.17853,-1.91966 -0.89187,-1.91966 -0.21275,0 -1.06138,0.52926 -1.88583,1.17614 -3.17087,2.4879 -5.39543,3.03451 -12.47922,3.06632 l -4.36562,0.0196 -0.79375,1.23579 c -1.68479,2.62307 -4.57446,3.59386 -10.2868798,3.45591 -3.46373,-0.0837 -3.84642996,-0.14444 -5.25064996,-0.83399 -0.98032004,-0.4814 -2.00640004,-1.29805 -2.90877004,-2.3151 l -1.39417,-1.57134 -6.7485202,0.0128 c -3.71168,0.007 -7.93914,0.12304 -9.39434,0.25771 -1.45521,0.13467 -6.09865,0.31911 -10.31875,0.40987 -6.05682,0.13025 -8.47538,0.0778 -11.48281,-0.24887 -2.09544,-0.22762 -3.9059,-0.35453 -4.02324,-0.28201 -0.11734,0.0725 -0.35486,0.85119 -0.52783,1.73039 -0.17297,0.87919 -0.58851,2.00231 -0.92341,2.49582 -0.33491,0.49351 -0.74074,1.1436 -0.90186,1.44465 l -0.29294,0.54735 32.09479,-0.0564 c 17.65214024,-0.031 33.8212,-0.14419 35.93125,-0.25144 z m 15.61042,-6.19216 c 0,-0.0728 0.0595,-0.13229 0.13229,-0.13229 0.0728,0 0.13229,0.0595 0.13229,0.13229 0,0.0728 -0.0595,0.1323 -0.13229,0.1323 -0.0728,0 -0.13229,-0.0595 -0.13229,-0.1323 z m -86.32897,4.32568 c 1.60846,-0.49121 2.52111,-2.11982 2.88664,-5.15113 l 0.16334,-1.35462 -2.23757,-1.31696 c -4.29264,-2.52651 -10.15892,-7.3374 -11.9824,-9.82668 -0.43656,-0.59596 -0.86577,-1.08638 -0.95381,-1.08982 -0.25132,-0.01 -2.24473,4.42115 -2.9965,6.66063 -0.37394,1.11395 -0.67878,2.59969 -0.67741,3.30164 0.0103,5.27644 9.67592,10.64652 15.79771,8.77694 z m 60.7175102,-2.10548 c 2.1400398,-0.44774 4.3552598,-1.71497 4.6933698,-2.68489 0.45742,-1.31215 0.31729,-4.35665 -0.35003,-7.6051 -0.6602,-3.21376 -2.70744,-10.78471 -3.0787098,-11.38543 -0.16206,-0.26221 -0.86238,0.25748 -2.6867,1.99376 -2.83868,2.70166 -6.47421996,5.47364 -10.10537,7.70498 -1.39124,0.85492 -2.53382,1.71224 -2.53907,1.90515 -0.0175,0.64574 3.13743,6.5327 4.10996,7.66889 1.15820004,1.35309 1.98174004,1.80552 4.15244,2.28125 2.08206,0.4563 4.01056,0.49664 5.80411,0.12139 z m -36.1687502,-5.25125 c 6.57829,-1.13381 11.05411,-2.58079 16.84376,-5.44537 6.9046402,-3.41625 12.3996302,-7.29271 16.9206702,-11.93673 1.994,-2.04825 3.78325,-4.58997 3.23111,-4.58997 -0.10405,0 -1.32686,0.87615 -2.71736,1.947 -1.3905,1.07084 -3.36162,2.4847 -4.38026,3.14189 -2.25215996,1.45301 -6.99001,3.85724 -6.54533,3.32144 0.17611,-0.2122 0.82789,-0.64984 1.44839,-0.97252 1.32004,-0.68647 2.41727004,-1.59618 2.64686004,-2.19449 0.0894,-0.23294 1.51065996,-1.55412 3.15837996,-2.93596 1.64773,-1.38185 3.54929,-3.04448 4.22571,-3.69474 l 1.22985,-1.18228 0.19726,-2.35319 c 0.21956,-2.61912 -0.003,-10.92018 -0.38531,-14.39173 -0.13633,-1.23693 -0.6798,-5.82084 -1.20772,-10.18646 -1.64902,-13.63677 -1.6289,-13.54431 -3.47403,-15.96481 -0.97731,-1.28207 -0.93741,-1.32169 -1.28959,1.28044 -0.28506,2.10609 -2.45391996,10.3542 -3.57719,13.60391 -4.34293,12.56439 -11.9565602,23.98509 -21.5627002,32.34477 -2.95363,2.57037 -4.44171,3.56787 -8.45596,5.66825 -3.64583,1.90761 -4.71058,2.32016 -2.91639,1.12999 1.56921,-1.04093 3.76472,-2.69203 5.55152,-4.17492 2.91951,-2.42294 9.66816,-9.24733 12.25642,-12.39397 8.5301602,-10.37042 15.0843002,-25.22912 16.32082024,-37.00045 l 0.18367,-1.74845 -2.07733004,0.38213 c -1.14253,0.21018 -2.14736,0.4612 -2.23296,0.55783 -0.0856,0.0966 -0.42687,0.9496 -0.75838,1.89549 -2.68091,7.64914 -10.9206902,18.49292 -19.2493602,25.33267 -5.00382,4.10927 -11.80526,7.81125 -16.92235,9.21071 -2.19238,0.59958 -2.74273,0.85162 -2.97557,1.36266 -0.58523,1.28444 -2.67108,3.18096 -4.32672,3.93398 -1.35954,0.61836 -2.02156,0.75228 -3.76616,0.76188 -3.39855,0.0187 -6.07185,-1.28396 -8.15192,-3.97229 -0.60087,-0.77657 -1.14032,-1.36411 -1.19878,-1.30565 -0.26132,0.26132 1.50008,2.74042 3.04407,4.28441 1.63871,1.63871 1.48584,1.77388 -0.44024,0.38925 -0.50932,-0.36614 -1.59831,-1.38938 -2.41997,-2.27386 -0.82166,-0.88447 -1.59556,-1.50876 -1.71979,-1.3873 -0.12423,0.12146 -0.21754,0.7888 -0.20735,1.48297 0.0459,3.13096 3.02958,5.92381 8.63109,8.07912 1.91014,0.73498 1.44331,0.83526 -1.24117,0.26664 -1.0186,-0.21575 -1.90025,-0.39228 -1.95924,-0.39228 -0.059,0 0.11288,0.24325 0.38194,0.54056 0.4771,0.52718 0.47647,0.53589 -0.0251,0.35233 -1.16719,-0.42714 -2.82769,-1.8066 -4.8874,-4.0602 -1.20087,-1.31392 -2.28577,-2.38894 -2.41089,-2.38894 -0.69491,0 0.51326,4.634 1.76967,6.78761 2.07786,3.56168 8.63492,8.67224 15.46533,12.05365 6.92117,3.42634 10.71063,3.65594 18.07047,1.09489 4.52163,-1.57342 8.62326,-3.76761 12.75784,-6.82487 l 1.05398,-0.77935 -1.05833,1.13479 c -2.72538,2.92228 -7.6059,6.3097 -11.52564,7.99959 -7.86171,3.38937 -13.29688,3.05187 -21.54728,-1.33798 -6.6973,-3.56349 -10.4317,-6.78649 -14.1789,-12.23721 -1.68068,-2.44473 -1.69687,-2.45903 -1.78158,-1.57276 -0.1901,1.98901 2.86122,6.52836 6.72648,10.00675 6.00436,5.40341 11.54198,8.44529 17.73387,9.74144 2.53526,0.5307 9.53669,0.3316 13.72513,-0.39031 z m 12.17083,-13.5054 c 0.0899,-0.14552 0.22306,-0.26459 0.29582,-0.26459 0.0728,0 0.0587,0.11907 -0.0312,0.26459 -0.0899,0.14552 -0.22305,0.26458 -0.29582,0.26458 -0.0728,0 -0.0587,-0.11906 0.0312,-0.26458 z m 14.1552102,-20.76979 c 0,-0.0728 0.0595,-0.1323 0.13229,-0.1323 0.0728,0 0.1323,0.0595 0.1323,0.1323 0,0.0728 -0.0595,0.13229 -0.1323,0.13229 -0.0728,0 -0.13229,-0.0595 -0.13229,-0.13229 z m 0.26459,-0.79375 c 0,-0.0728 0.0595,-0.1323 0.13229004,-0.1323 0.0728,0 0.13229,0.0595 0.13229,0.1323 0,0.0728 -0.0595,0.13229 -0.13229,0.13229 -0.0728,0 -0.13229004,-0.0595 -0.13229004,-0.13229 z m 0.26458004,-0.92605 c 0,-0.19402 0.0794,-0.2734 0.17639,-0.17638 0.097,0.097 0.097,0.25576 0,0.35277 -0.097,0.097 -0.17639,0.0176 -0.17639,-0.17639 z m 0.30177,-0.79375 c 0,-0.21828 0.10233,-0.635 0.2274,-0.92604 0.14332,-0.33354 0.22739,-0.38245 0.22739,-0.13229 0,0.21828 -0.10233,0.635 -0.22739,0.92604 -0.14333,0.33355 -0.2274,0.38245 -0.2274,0.13229 z m 0.49198,-1.85208 c 0,-0.19403 0.0794,-0.2734 0.17639,-0.17639 0.097,0.097 0.097,0.25577 0,0.35278 -0.097,0.097 -0.17639,0.0176 -0.17639,-0.17639 z m 0.26458,-1.05833 c 0,-0.19403 0.0794,-0.27341 0.17639,-0.17639 0.097,0.097 0.097,0.25576 0,0.35278 -0.097,0.097 -0.17639,0.0176 -0.17639,-0.17639 z m 0.26459,-1.05834 c 0,-0.19402 0.0794,-0.2734 0.17638,-0.17638 0.097,0.097 0.097,0.25576 0,0.35277 -0.097,0.097 -0.17638,0.0176 -0.17638,-0.17639 z m 0.26458,-1.05833 c 0,-0.19403 0.0794,-0.2734 0.17639,-0.17639 0.097,0.097 0.097,0.25577 0,0.35278 -0.097,0.097 -0.17639,0.0176 -0.17639,-0.17639 z m -8.46667004,40.99728 c 0,-0.15275 -0.17565,-0.6174 -0.39033,-1.03255 l -0.39034,-0.75483 -1.7184702,0.83411 c -0.94516,0.45876 -1.72201,0.92341 -1.72633,1.03255 -0.004,0.10914 0.94464,0.19844 2.1088102,0.19844 1.30148,0 2.11666,-0.10696 2.11666,-0.27772 z m -42.3412702,-27.76406 c 1.37216,-0.70002 3.06122,-2.69067 3.67465,-4.33076 0.87859,-2.34905 1.54165,-7.90266 1.37877,-11.54829 -0.0152,-0.34019 -0.68855,-0.38605 -4.71442,-0.32106 -2.84856,0.046 -5.77122,-0.0635 -7.42743,-0.27826 -2.64903,-0.34349 -2.73925,-0.3382 -3.01474,0.17656 -1.12094,2.09448 -1.35676,7.26751 -0.45626,10.00835 1.76728,5.379 6.64889,8.28847 10.55943,6.29346 z m 9.96586,-5.72362 c 6.24138,-2.07729 12.5617,-6.18941 19.10635,-12.43096 1.76819,-1.6863 3.2149,-3.15675 3.2149,-3.26766 0,-0.11091 -0.85021,-0.28068 -1.88935,-0.37725 -6.87241,-0.63873 -12.33428,-3.13405 -17.35909,-7.93071 -0.90951,-0.86821 -1.65365,-1.44383 -1.65365,-1.27915 0,0.16468 0.36329,2.41597 0.80731,5.00288 0.85437,4.97769 0.84613,6.04839 -0.0554,7.20293 -0.62548,0.80102 -2.28735,1.86288 -2.91851,1.8648 -0.49021,0.001 -0.52592,0.1824 -1.01867,5.16073 -0.29736,3.00432 -0.70352,5.70147 -0.95871,6.36649 -0.20872,0.54391 0.34259,0.48077 2.72482,-0.3121 z m 63.92749,-4.26602 c 1.50362,-0.67982 4.55394,-3.71546 5.25324,-5.22795 0.84685,-1.83166 0.5812,-3.43744 -0.84246,-5.09243 -1.49801,-1.74142 -3.52396,-2.64751 -7.25557,-3.24498 -3.46636,-0.555 -6.08224,-1.09559 -7.76693,-1.60509 -2.7665,-0.83668 -2.65477,-0.95491 -2.12314,2.24674 0.37241,2.24271 0.97516,7.66044 1.35662,12.19367 0.0662,0.78685 0.0863,0.79646 2.31574,1.10533 3.48941,0.48342 7.5336,0.31594 9.0625,-0.37529 z m -89.63851,-1.87755 c 0.65705,-0.38374 0.83901,-0.73009 1.12443,-2.14025 0.18728,-0.92533 0.75738,-2.54913 1.26688,-3.60843 0.63778,-1.32599 0.92638,-2.29831 0.92638,-3.12109 v -1.19509 l -1.12448,-0.13906 c -1.66276,-0.20564 -10.55423,-0.74263 -10.62411,-0.64163 -0.033,0.0478 0.0688,2.44386 0.22623,5.32469 0.309,5.65304 0.29414,5.60631 1.86506,5.86552 0.43657,0.072 1.09141,0.18327 1.45521,0.24718 1.22987,0.21608 4.09562,-0.13117 4.8844,-0.59184 z m -12.55731,-3.30976 c 0,-1.94217 -0.076,-4.60156 -0.16884,-5.90974 l -0.16883,-2.37851 -2.80773,-0.32081 c -3.04998,-0.3485 -15.40075,-2.33658 -16.04022,-2.58197 -0.33685,-0.12926 -0.39355,0.38538 -0.39355,3.57225 v 3.72326 l 0.8053,0.91719 c 1.63778,1.86532 5.43932,3.85165 9.64574,5.03994 2.86271,0.80871 6.15494,1.41345 7.87136,1.44588 l 1.25677,0.0237 z m 36.07108,-5.0764 c 1.15747,-0.29905 1.37814,-1.09917 1.00243,-3.63478 -0.44946,-3.03334 -3.0583,-17.75679 -4.9114,-27.71837 -3.09127,-16.61746 -4.11954,-28.42911 -3.56408,-40.94029 0.17616,-3.96804 0.23308,-7.30179 0.12649,-7.40833 -0.26996,-0.26982 -4.93649,2.25703 -8.83626,4.78468 l -3.26277,2.11478 0.15987,2.40654 c 0.0879,1.32359 0.27628,7.22856 0.41858,13.12215 0.14229,5.8936 0.37237,13.57313 0.51128,17.06563 0.13892,3.4925 0.32356,8.79078 0.41032,11.77396 0.16847,5.79225 0.57065,13.73712 0.78353,15.47812 0.0712,0.58208 0.19044,2.48708 0.26504,4.23333 0.0746,1.74625 0.21281,4.44872 0.30713,6.0055 l 0.17149,2.83049 0.9554,0.11407 c 1.51001,0.18029 14.63182,-0.0128 15.46295,-0.22748 z m 27.31151,-4.55944 c 0.38684,-0.26907 2.25919,-2.77101 2.1531,-2.8771 -0.0474,-0.0474 -0.44432,0.049 -0.882,0.21417 -1.02158,0.3856 -2.07661,0.11448 -2.94889,-0.75781 -0.49181,-0.4918 -0.72525,-0.58941 -0.80896,-0.33826 -0.20618,0.61851 -1.37984,1.54154 -2.185,1.71838 -1.08962,0.23933 -2.74805,-0.0875 -3.51828,-0.69339 -0.35755,-0.28125 -0.78701,-0.92622 -0.95435,-1.43326 -0.33939,-1.02837 -0.43908,-1.07225 -1.17368,-0.51662 -0.65604,0.4962 -2.60277,0.50079 -3.55498,0.008 -0.40425,-0.20905 -1.01899,-0.79455 -1.3661,-1.30111 -0.39813,-0.58103 -0.92262,-0.97933 -1.42084,-1.07897 -1.23662,-0.24733 -1.95083,-0.84871 -2.65258,-2.23356 -0.35676,-0.70402 -1.12385,-1.78964 -1.70466,-2.4125 -1.03528,-1.11024 -1.43187,-1.84444 -1.72103,-3.18611 -0.1125,-0.52204 -0.39497,-0.73732 -1.27595,-0.97247 -0.6223,-0.1661 -1.18917,-0.24428 -1.25971,-0.17374 -0.21384,0.21384 1.03276,3.51455 1.92333,5.09255 1.04225,1.84676 4.03807,5.02755 6.13662,6.51551 2.88623,2.04646 6.56521,3.58166 10.18761,4.25119 1.93099,0.35691 6.59758,0.47295 7.02635,0.17472 z m -47.66598,-1.38738 c -0.0144,-0.21944 -0.11231,-2.95782 -0.21768,-6.08529 -0.10537,-3.12746 -0.2942,-8.00802 -0.41962,-10.84567 -0.45767,-10.35494 -0.77739,-19.6912 -1.05101,-30.69167 -0.4858,-19.53093 -0.56349,-21.9266 -0.95025,-29.30181 -0.20793,-3.96501 -0.37805,-7.48956 -0.37805,-7.83233 0,-0.52136 0.59459,-0.97041 3.63802,-2.74745 5.61232,-3.27702 10.27607,-5.50516 15.92811,-7.60976 8.48516,-3.15955 14.33945,-4.69442 23.67863,-6.20803 1.88374,-0.3053 3.45559,-0.5857 3.493,-0.62311 0.0374,-0.0374 -0.2922,-1.19492 -0.73246,-2.57224 -1.07486,-3.36253 -1.35098,-8.24048 -0.6232,-11.00928 1.07739,-4.09887 2.34143,-6.48513 4.67482,-8.82515 0.8398,-0.84218 1.02545,-1.33336 2.05012,-5.42396 0.61968,-2.47385 1.14464,-4.67561 1.16659,-4.8928 0.0786,-0.77825 -7.7253,-2.01812 -14.98185,-2.38027 -10.70961,-0.53448 -18.9717,0.57772 -27.84074,3.74778 -5.2695,1.88348 -9.34393,4.17415 -14.92274,8.38968 -1.65908,1.25365 -3.63222,2.71633 -4.38478,3.25041 -0.75256,0.53408 -2.85036,2.43908 -4.66179,4.23334 -4.83897,4.7931 -8.39325,9.94195 -8.43351,12.21707 -0.005,0.26847 -0.77018,2.17347 -1.70095,4.23333 -1.69033,3.74082 -5.24721,12.56391 -7.48292,18.56187 -0.65091,1.74625 -1.58468,4.18704 -2.07505,5.42396 -0.91104,2.29803 -5.085937,14.87292 -8.169347,24.60625 -1.63236,5.15281 -2.57196,8.5025 -5.71472,20.37292 -0.75129,2.83765 -1.52532,5.69515 -1.72007,6.35 -1.74911,5.88132 -2.77891,10.2369 -2.77891,11.75345 0,1.18254 0.77229,2.6336 1.93628,3.63807 1.02773,0.88689 5.01614,2.77978 7.32413,3.47603 7.57021,2.28367 24.403877,5.33079 35.321877,6.39373 10.57543,1.02959 10.06786,1.0093 10.02807,0.40093 z m 43.46192,-2.53129 c 0.5805,-0.58049 0.65979,-0.84397 0.53469,-1.77665 -0.17892,-1.33396 -0.72614,-1.77511 -2.20192,-1.77511 -0.86266,0 -1.22111,0.13715 -1.53693,0.58804 -0.55601,0.79382 -0.51674,1.75028 0.11439,2.7854 0.68851,1.12923 2.05973,1.20837 3.08977,0.17832 z m 35.71248,-0.70749 c -0.0902,-0.61846 -0.41044,-3.20807 -0.71155,-5.75468 -0.66635,-5.63563 -0.9848,-7.96436 -1.10563,-8.08519 -0.14422,-0.14422 -3.34663,1.06673 -3.66624,1.38634 -0.20688,0.20688 -0.13636,1.76421 0.25158,5.55598 0.29647,2.8977 0.61594,5.46894 0.70993,5.71389 0.20284,0.52859 1.51322,1.3756 2.93423,1.89663 1.66256,0.6096 1.77339,0.55983 1.58768,-0.71297 z m -29.3405,-0.0909 c 0.77079,-0.86263 0.75158,-1.46876 -0.0778,-2.45438 -0.97822,-1.16254 -1.57014,-1.26087 -2.64678,-0.43967 -1.01913,0.77732 -1.15733,1.50874 -0.47789,2.52917 0.99954,1.50116 2.0774,1.62397 3.20243,0.36488 z m -12.65305,-1.59846 c 0.97607,-1.24088 0.53446,-2.61981 -1.04907,-3.27573 -0.77183,-0.3197 -0.87401,-0.29232 -1.59195,0.42656 -1.64881,1.65096 -1.05909,3.54631 1.10341,3.54631 0.75355,0 1.11989,-0.1661 1.53761,-0.69714 z m 48.30566,-0.12835 c 2.06071,-0.77356 4.09344,-2.04337 4.42065,-2.76151 0.23714,-0.52046 0.0884,-2.08157 -0.73145,-7.67506 -0.56603,-3.86194 -1.10755,-7.14858 -1.20339,-7.30365 -0.10886,-0.17612 -0.75699,0.11066 -1.72691,0.76411 -0.85396,0.57533 -2.41801,1.55668 -3.47566,2.18077 -1.05765,0.6241 -1.96787,1.20917 -2.02272,1.30017 -0.0548,0.091 0.002,0.82029 0.12666,1.62066 0.12451,0.80036 0.47097,3.65786 0.76991,6.35 0.74547,6.71331 0.66601,6.42077 1.68455,6.2012 0.45949,-0.0991 1.43075,-0.40357 2.15836,-0.67669 z m -32.1231498,-2.67138 c 0.30691,-0.74094 0.28307,-0.85616 -0.26972,-1.30378 -0.9591102,-0.77665 -1.8301502,-0.65107 -2.6404602,0.38067 -0.33412,0.42542 -0.26702,0.58325 0.64508,1.51732 0.93475,0.95728 1.0552,1.00883 1.47321,0.63054 0.2503702,-0.22659 0.6067202,-0.77772 0.7918902,-1.22475 z m -20.8495502,-0.32384 c 1.13481,-1.35759 1.20975,-1.81065 0.39404,-2.382 -0.85863,-0.60141 -1.39698,-0.51131 -2.44547,0.40928 -1.03978,0.91294 -1.218,1.86744 -0.49736,2.66374 0.71792,0.79329 1.48099,0.58641 2.54879,-0.69102 z m 14.99678,-0.0145 c 1.29405,-0.65885 1.92551,-1.26767 3.0098,-2.90192 0.80513,-1.21348 0.61333,-1.60648 -0.66672,-1.36615 -0.56554,0.10618 -1.14304,0.49535 -1.61724,1.08985 -1.16475,1.46023 -2.11951,1.83825 -4.55409,1.80309 -2.4666,-0.0356 -3.84789,-0.47565 -6.10077,-1.94346 -1.30931,-0.85305 -1.91994,-1.07441 -3.30868,-1.19942 l -1.70305,-0.1533 1.45521,1.33594 c 2.11886,1.9452 5.16873,3.46688 7.78864,3.88601 2.56947,0.41105 4.09824,0.26329 5.6969,-0.55064 z m 7.0380602,-2.6262 c 0.28966,-1.15409 0.0469,-1.60177 -0.91886,-1.6942 -1.5277002,-0.14622 -1.8341602,0.98806 -0.48859,1.80847 1.09859,0.66982 1.21298,0.66054 1.40745,-0.11427 z m -24.9945002,-0.75762 c 0.49447,-0.33242 0.93518,-0.85376 0.97937,-1.15852 0.0643,-0.44373 -0.0938,-0.5842 -0.79375,-0.70516 -2.11275,-0.36509 -3.38764,-0.48987 -3.38764,-0.33159 0,0.30696 0.79793,2.08902 1.09639,2.44865 0.42449,0.51148 1.08642,0.43182 2.10563,-0.25338 z m 16.23163,-0.20289 c 0.15855,-0.15836 -0.52524,-0.24311 -1.85208,-0.22955 -2.02009,0.0206 -2.07199,0.0364 -1.30969,0.39715 0.83041,0.39301 2.69967,0.29392 3.16177,-0.1676 z m 23.5887002,-3.0898 c -0.26895,-0.26895 -0.49086,0.13597 -0.27019,0.49302 0.16669,0.26972 0.22901,0.26993 0.31864,0.001 0.0613,-0.18383 0.0395,-0.40617 -0.0484,-0.49409 z m 26.2797798,-1.27535 c 4.31027,-1.75142 10.29942,-5.31523 11.39859,-6.78266 1.18247,-1.57865 2.11386,-3.9164 2.11386,-5.3057 0,-0.86737 -0.98746,-5.26895 -1.97435,-8.80065 -0.36598,-1.30969 -1.32951,-4.9411 -2.14117,-8.0698 -0.81167,-3.12869 -1.8751,-7.05776 -2.36319,-8.73125 -2.64956,-9.0845 -4.4368,-15.09553 -5.50673,-18.52083 -1.12646,-3.60628 -3.12436,-10.79276 -4.15593,-14.94896 -0.53538,-2.15704 -0.50038,-2.25655 -1.16397,3.30913 -0.64577,5.41625 0.0754,14.1437 1.82554,22.09087 1.56112,7.08904 3.06437,15.74512 3.22,18.54155 0.31673,5.69097 -0.74858,9.66004 -3.90256,14.54001 l -1.54462,2.38988 0.36111,1.57887 c 0.1986,0.86837 0.55886,3.06714 0.80056,4.88615 0.53866,4.05382 0.64236,4.49792 1.05026,4.49792 0.17741,0 1.06958,-0.30354 1.9826,-0.67453 z m -44.299,-0.12482 c 15.4905702,-1.29153 28.75174,-5.6361 34.97616,-11.45874 5.19945,-4.86383 7.17428,-10.86028 6.15749,-18.69686 -0.14152,-1.09069 -0.90831,-5.31741 -1.70397,-9.39271 -2.07994,-10.65313 -2.22236,-11.69256 -2.65838,-19.40207 -0.21666,-3.83094 -0.50752,-7.1776 -0.64635,-7.43701 -0.63176,-1.18046 -3.60371,-2.14012 -8.42213,-2.71957 -4.33359,-0.52114 -20.6471498,-0.43281 -26.64449,0.14427 -5.7595,0.55419 -13.20756,1.61953 -16.27187,2.32745 -6.22796,1.4388 -14.46314,4.26855 -18.81321,6.46455 l -1.21841,0.61508 -0.34152,5.85462 c -0.40824,6.99828 -0.22847,17.6645 0.39457,23.4118 0.64805,5.97794 1.50948,10.69316 4.63615,25.37709 0.2762,1.29709 0.65631,2.4545 0.84469,2.57202 0.91717,0.57215 8.78615,1.86313 14.10085,2.31337 3.79724,0.32169 11.90601,0.33557 15.61042,0.0267 z M 0.82030724,-197.7268 c -0.44111,-0.40018 -1.66338,-2.03452 -2.71616004,-3.63188 -1.87391,-2.84322 -1.94195,-2.91111 -3.23706,-3.22977 -1.38544,-0.34089 -2.32552,-1.16377 -2.07509,-1.81638 0.11047,-0.28789 0.63936,-0.38395 2.11394,-0.38395 2.01221,0 3.12319,-0.37237 4.94787004,-1.65842 l 0.75338,-0.53099 1.72037996,0.70651 c 2.45916,1.0099 3.61276,1.10892 5.49727,0.47184 0.86937,-0.29389 1.67304,-0.47726 1.78594,-0.40749 0.7050198,0.43573 -0.49353,2.07273 -1.94188,2.65225 -0.56532,0.22619 -1.02785,0.5915 -1.02785,0.8118 0,0.30639 -0.084,0.33082 -0.35742,0.10391 -0.19658,-0.16315 -0.93096,-0.37524 -1.63195,-0.47132 -1.18161,-0.16196 -1.25959,-0.13788 -1.0698,0.33038 1.05658,2.60669 1.17631,3.97446 0.17634,2.01435 -0.59773,-1.17165 -2.53136,-2.96448 -3.19728996,-2.96448 -0.23575,0 -0.54174,0.10468 -0.67998,0.23262 -0.13825,0.12794 -0.69618,0.37475 -1.23986004,0.54847 -0.54367,0.17371 -1.05712,0.42688 -1.14099,0.56259 -0.0839,0.1357 0.25381,0.7521 0.75042,1.36976 0.4966,0.61766 1.39672004,1.86021 2.00026004,2.76122 1.71589996,2.56162 2.73472996,2.99578 4.50187996,1.91842 1.40679,-0.85766 1.29841,-0.36691 -0.11723,0.53087 -1.62495,1.03051 -2.74137,1.05383 -3.81511996,0.0797 z M -25.397623,-208.33337 c -4.76702,-1.5751 -7.75821,-6.20294 -7.72938,-11.95852 0.0185,-3.70034 1.31561,-6.79034 3.82592,-9.11444 1.78878,-1.6561 3.41063,-2.28983 5.83155,-2.27865 2.62175,0.0121 4.73897,0.8861 6.41373,2.6476 0.84782,0.89174 0.64683,1.08362 -0.38098,0.36371 -0.94335,-0.66074 -3.13479,-0.57117 -4.34642,0.17765 -2.66566,1.64748 -2.103,5.49068 0.93722,6.40155 2.49103,0.74633 5.1225,-0.96504 5.31221,-3.45478 0.0343,-0.45028 0.13734,-0.81869 0.22896,-0.81869 0.27728,0 2.06077,4.01777 2.34897,5.29166 0.91717,4.05392 -0.41297,8.63043 -3.18675,10.96441 -2.49999,2.1036 -6.14894,2.80481 -9.25503,1.7785 z m 39.16796,-4.13085 c -2.74907,-1.01277 -4.0750298,-2.12325 -5.6298298,-4.71493 -1.35139,-2.25262 -1.85718,-4.6484 -1.70656,-8.08347 0.10635,-2.42574 0.2361,-3.06823 0.91776,-4.54491 2.44515,-5.29682 8.0474098,-6.75305 12.2714398,-3.18978 l 0.90853,0.76641 -1.10772,-0.14382 c -3.38875,-0.43996 -5.68035,1.91834 -4.42818,4.55708 0.62491,1.31691 1.76641,1.97689 3.41923,1.97689 1.65866,0 2.79464,-0.66065 3.42686,-1.99295 0.55921,-1.17845 0.62805,-1.10333 1.63808,1.78761 0.88431,2.5311 0.90642,5.43115 0.061,8.00007 -1.13369,3.44481 -4.49138,6.00644 -7.79502,5.94693 -0.56929,-0.0103 -1.45831,-0.17456 -1.97558,-0.36513 z m -44.17095,-27.05516 c -1.26849,-0.4637 -2.11155,-2.18291 -1.75909,-3.58722 0.40677,-1.62072 3.49153,-3.53635 6.71624,-4.17077 1.8675,-0.36741 7.13591,-0.20972 9.12537,0.27314 2.28762,0.55522 3.45171,2.35037 2.58016,3.97887 -0.42879,0.80121 -1.08904,1.0279 -4.98321,1.71098 -2.01307,0.35311 -5.07753,0.94287 -6.8099,1.31058 -3.13093,0.66455 -4.11029,0.76198 -4.86957,0.48442 z m 48.68333,-2.20909 c -1.23693,-0.26951 -3.61818,-0.67487 -5.29167,-0.9008 -3.8841898,-0.52439 -4.9487798,-0.82508 -5.3098498,-1.49973 -0.78733,-1.47114 0.76372,-2.81977 4.2597498,-3.70384 3.8176,-0.96539 8.39035,-0.45974 10.33345,1.14266 0.74813,0.61696 1.0354,1.47052 1.0354,3.0765 0,1.38147 -0.0799,1.62684 -0.65215,2.00177 -0.80374,0.52663 -1.50926,0.50783 -4.37493,-0.11656 z m -73.28958,2.06981 c 17.93941,-10.1661 34.57413,-14.22627 58.6052002,-14.30426 7.5583598,-0.0245 10.8784398,0.1952 15.2865398,1.01167 2.63204,0.48751 5.73015,1.52765 7.07059,2.37383 l 1.04836,0.6618 0.2035,-0.72772 c 0.34953,-1.24987 0.24215,-9.61468 -0.13715,-10.68367 -0.3076,-0.86692 -0.49298,-1.00284 -1.90998,-1.40043 -1.55627,-0.43667 -6.973,-1.27647 -10.35788,-1.60586 l -1.7606,-0.17133 -0.8054,1.17061 c -3.0497898,4.43271 -7.6375498,6.44545 -12.52649976,5.49563 -1.86169004,-0.36169 -5.40958004,-1.69942 -6.05408004,-2.28269 -0.58841,-0.5325 -0.7702,-0.22946 -0.79162,1.31963 -0.0328,2.36929 -0.10974,2.4028 -2.36265,1.02847 -2.5815202,-1.57479 -4.8570302,-3.33335 -6.3901502,-4.93844 l -1.23078,-1.28855 -3.79631,0.44805 c -9.24562,1.09121 -22.29746,4.79219 -30.51922,8.65402 -2.80807,1.31897 -9.56548,5.0492 -10.37329,5.72626 l -0.84829,0.71099 0.2689,4.63021 c 0.1479,2.54661 0.33114,5.49038 0.40721,6.54169 l 0.13832,1.91149 1.89628,-1.27856 c 1.04296,-0.70321 3.26551,-2.05449 4.939,-3.00284 z m 45.4111202,-23.75095 c -0.0972,-1.60073 -0.11733,-2.91041 -0.0447,-2.91041 0.0727,0 0.88731,0.75521 1.81035,1.67826 4.77016,4.77016 12.68876,5.55375 16.65908,1.64851 1.7123398,-1.68428 3.1975298,-5.22627 3.4068098,-8.12486 0.0483,-0.66894 -0.0258,-1.12234 -0.176,-1.07733 -1.81274,0.54304 -3.1259998,0.2836 -4.2489898,-0.83938 -1.69573,-1.69574 -1.83372,-4.22223 -0.31362,-5.74232 0.79332,-0.79332 0.91532,-0.82886 2.38702,-0.69541 l 1.5509798,0.14063 -0.17409,-0.83624 c -0.27637,-1.32754 -0.86904,-2.03589 -2.1936198,-2.62182 -2.09919,-0.92856 -3.77886,-1.25072 -6.53805,-1.25399 -6.25074,-0.007 -11.14729,2.67542 -13.3678002,7.32416 -0.50003,1.04684 -1.03569,1.91004 -1.19037,1.91823 -0.15467,0.008 -0.62169,-0.34048 -1.03782,-0.77482 -0.68644,-0.71649 -0.731,-0.87308 -0.48064,-1.68882 0.37392,-1.21836 2.5261,-4.0429 4.0193002,-5.27497 1.93328,-1.59519 5.10852,-3.00452 7.91805,-3.51442 3.12053,-0.56635 7.02126,-0.25541 9.53537,0.76008 0.89426,0.36121 1.62593,0.54678 1.62593,0.41238 0,-0.67542 -1.18026,-2.40054 -2.38088,-3.48 -2.35395,-2.11641 -5.57187,-2.98083 -10.18683,-2.73645 -3.52387,0.1866 -5.43273,0.67422 -8.1396702,2.07931 -2.50388,1.29967 -4.1726,3.04966 -5.372,5.63364 -2.43042,5.23604 -1.73709,12.73002 1.63426,17.66416 1.14242,1.67199 4.69473,5.21271 5.2364602,5.21937 0.13755,0.002 0.16352,-1.22695 0.0614,-2.90749 z m 12.38546,-1.92774 c -0.60049,-1.56483 0.7386,-2.65524 3.42753,-2.79103 1.84683,-0.0933 1.95563,-0.0657 2.50725,0.6356 0.31716,0.4032 0.53719,0.86178 0.48896,1.01907 -0.31985,1.04314 -6.06923,2.06021 -6.42374,1.13636 z m -8.66774,-2.9535 c -1.89658,-0.67641 -2.82676,-1.99112 -2.82676,-3.99532 0,-2.24757 1.43703,-4.12624 4.24446,-5.54887 2.60264,-1.31886 4.99610004,-1.14501 6.5209,0.47365 3.15315,3.34724 0.68154,7.97392 -4.8914,9.15638 -1.71562,0.36401 -1.79188,0.36186 -3.0472,-0.0858 z m 3.708,-4.24721 c 0.6942,-0.48624 1.01073,-1.76255 0.61876,-2.49496 -0.38175,-0.71331 -1.70314,-1.38174 -2.30811,-1.16758 -1.59635,0.56512 -2.20958,2.46224 -1.14124,3.53058 0.63252,0.63252 2.02337,0.69736 2.83059,0.13196 z m 28.3902398,6.26392 c 0,-0.51729 -1.63764,-5.99235 -1.98186,-6.62586 l -0.37821,-0.69606 -0.0103,0.66145 c -0.009,0.5692 1.09657,5.5933 1.44078,6.54844 0.13143,0.36473 0.92954,0.46092 0.92954,0.11203 z m -3.70558,-0.5089 c -7.7e-4,-0.25467 -0.22672,-1.83224 -0.5021,-3.50573 -0.27539,-1.67349 -0.58095,-3.63802 -0.67904,-4.36563 -0.0981,-0.7276 -0.24223,-1.5908 -0.32033,-1.91823 -0.11306,-0.47402 -0.0283,-0.59531 0.41586,-0.59531 0.30682,0 0.55785,-0.12763 0.55785,-0.28361 0,-1.18354 -7.17375,-11.14275 -9.73297,-13.51214 -1.5789,-1.46179 -5.2981098,-4.06969 -5.5065898,-3.86122 -0.0616,0.0616 0.0679,0.62172 0.28778,1.2448 0.21984,0.62308 0.3997,1.3667 0.3997,1.6525 0,0.28579 0.65552,1.25309 1.45672,2.14954 2.5082998,2.80654 4.4829598,7.45249 5.4230898,12.75936 0.3262,1.84134 0.23877,7.63098 -0.13788,9.12994 l -0.17091,0.68021 4.05668,0.40232 c 2.23117,0.22127 4.14597,0.42119 4.25511,0.44427 0.10914,0.0231 0.19781,-0.16641 0.19703,-0.42107 z m -11.04494,-8.74343 c 0.63566,-0.54992 0.59929,-2.03437 -0.0661,-2.6998 -0.7151,-0.7151 -1.7389598,-0.66635 -2.5255698,0.12026 -1.83756,1.83757 0.62093,4.28451 2.5917198,2.57954 z m -20.2696398,-17.34461 c 0.16594,-0.16728 0.56387,-1.55431 0.88428,-3.08227 0.50926,-2.42851 2.20522,-7.97157 3.21673,-10.5135 0.39459,-0.9916 0.11694,-1.45269 -0.73982,-1.22864 -1.11552,0.29172 -2.55854,3.92757 -4.45029,11.21297 -0.5101102,1.96453 -0.9285902,3.73016 -0.9299402,3.92362 -0.003,0.4174 1.5305102,0.18031 2.0190402,-0.31218 z m 12.77656,0.0266 c -0.0102,-0.1819 -0.12092,-0.56886 -0.24598,-0.8599 -0.19056,-0.44344 -0.23041,-0.38987 -0.24599,0.33073 -0.0102,0.47295 0.10046,0.8599 0.24599,0.8599 0.14552,0 0.25621,-0.14883 0.24598,-0.33073 z m -4.81302996,-0.69392 c 1.42047,0.094 2.62425996,0.13286 2.67507996,0.0864 0.0508,-0.0464 0.008,-0.58357 -0.095,-1.19361 l -0.18739,-1.10915 -3.60919,0.14303 c -1.98506,0.0787 -3.86959,0.22451 -4.18786,0.32409 -0.50081,0.15669 -1.26734,1.50113 -1.00528,1.76319 0.051,0.051 0.93286,0.0302 1.95979,-0.0461 1.02693,-0.0763 3.02935,-0.0618 4.44982004,0.0321 z m 2.14412996,-3.35626 c 0.0498,-0.0428 -0.10231,-0.74144 -0.33811996,-1.5526 l -0.42875,-1.47482 h -1.45958 c -0.80278004,0 -2.24175004,0.19647 -3.19771004,0.4366 -1.54985,0.38931 -1.77785,0.53168 -2.1049,1.31442 -0.70082,1.67731 -0.77041,1.64791 3.53583,1.49382 2.14643004,-0.0768 3.94338,-0.17465 3.99323,-0.21742 z m -2.91021,-3.90324 1.67834004,0.0502 -0.1766,-0.71168 c -0.5114,-2.061 -1.32161004,-2.53002 -3.33065004,-1.9281 -1.16609,0.34937 -1.71573,0.9383 -1.96378,2.10414 l -0.18888,0.88774 1.15162,-0.22628 c 0.63339,-0.12445 1.90687,-0.20367 2.82995,-0.17605 z m -0.22312,-4.04428 c 0,-0.0867 -0.25348,-0.51356 -0.56327,-0.94863 -0.4648,-0.65275 -0.62173,-0.72927 -0.89765,-0.43772 -0.18391,0.19433 -0.41471,0.62121 -0.51289,0.94863 -0.16465,0.54905 -0.0949,0.59532 0.89764,0.59532 0.59189,0 1.07617,-0.0709 1.07617,-0.1576 z"
       id="path129" /></g></svg>
