<?xml version="1.0" encoding="UTF-8" standalone="no"?>
<!-- Created with Inkscape (http://www.inkscape.org/) -->

<svg
   width="186.45938mm"
   height="192.7092mm"
   viewBox="0 0 186.45939 192.70917"
   version="1.1"
   id="svg1"
   xml:space="preserve"
   xmlns="http://www.w3.org/2000/svg"
   xmlns:svg="http://www.w3.org/2000/svg"><defs
     id="defs1"><clipPath
       clipPathUnits="userSpaceOnUse"
       id="clipPath6"><path
         id="path7"
         style="fill:#ff0000;fill-opacity:1;fill-rule:nonzero;stroke:none;stroke-width:0.264583"
         d="M -175.07778,-16.057127 V 287.55793 H 124.54631 V -16.057127 Z m 132.7459,202.572647 c 0.210643,0.005 0.427212,0.0169 0.650089,0.0367 2.23823,0.19855 4.475655,0.4031 6.717938,0.55346 1.973313,0.11308 0.986628,0.0436 2.958475,0.20825 3.181295,0.26563 4.740125,1.85116 4.950601,3.46956 4.949923,1.63749 3.796379,7.35609 -2.592089,6.81354 -3.228716,-0.27422 -1.569593,-0.1301 -4.979024,-0.43357 -4.228209,-0.39317 -8.460616,-0.76265 -12.666927,-1.35341 -6.647387,-0.93358 -5.930551,-7.21034 0.03204,-7.20421 0.04685,5e-5 0.0972,0.004 0.144695,0.005 0.687229,-1.21692 2.304132,-2.15435 4.784204,-2.09548 z" /></clipPath></defs><g
     id="layer1"
     transform="translate(-91.191541,32.140645)"><path
       style="fill:#000000"
       d="m 208.12459,160.03671 c -3.16633,-0.85711 -5.92537,-2.61105 -8.72826,-5.54861 l -2.3556,-2.46878 -6.52639,-0.054 c -5.00415,-0.0414 -7.51378,-0.23405 -10.75972,-0.82592 -2.32833,-0.42455 -4.45168,-0.79742 -4.71854,-0.8286 -0.27238,-0.0318 -0.70162,0.55767 -0.97857,1.34392 -1.34669,3.82313 -5.37198,5.1769 -8.43845,2.83799 l -1.19358,-0.91039 -1.80668,1.24278 c -4.77992,3.288 -12.20805,3.85836 -16.31653,1.25284 -2.42165,-1.53577 -3.58158,-3.51001 -3.62285,-6.16622 -0.0285,-1.83625 -0.20103,-2.38986 -1.15495,-3.70671 -0.61677,-0.85143 -1.38922,-2.3021 -1.71654,-3.2237 -0.5697,-1.60401 -0.64097,-1.66534 -1.66728,-1.43475 -1.82763,0.41063 -4.97743,0.26579 -5.98768,-0.27534 -2.49834,-1.33822 -3.52137,-5.61923 -2.69438,-11.27505 1.23219,-8.42697 5.30162,-16.82367 10.82835,-22.34277 l 2.38735,-2.38406 -1.36273,-1.39556 c -1.0731,-1.09895 -1.70631,-1.43954 -2.97928,-1.60248 -2.72804,-0.34918 -6.09827,-1.568 -7.88476,-2.851468 -0.93573,-0.67225 -1.84121,-1.13582 -2.01219,-1.03015 -0.3484,0.21532 -3.39371,7.893318 -4.58698,11.564908 -0.79404,2.44321 -1.45769,3.43425 -2.29977,3.43425 -0.90494,0 -2.97133,-2.92086 -5.08362,-7.18574 -3.79776,-7.667968 -4.94904,-12.288888 -5.22272,-20.962428 -0.22468,-7.120615 5.9e-4,-7.020264 -3.78158,-1.68461 -2.77243,3.91118 -3.44625,4.57027 -4.37198,4.27646 -1.38209,-0.43866 -2.16137,-4.43455 -2.1729,-11.141825 -0.0188,-10.923007 3.50281,-24.441013 8.65905,-33.238796 0.66646,-1.137138 1.21174,-2.121534 1.21174,-2.187545 0,-0.06601 -1.20113,0.26141 -2.66918,0.727601 -3.05473,0.970058 -7.68917,1.738686 -12.400281,2.056602 -2.98621,0.201516 -3.31139,0.15943 -3.9868,-0.515975 -0.88004,-0.880043 -0.78039,-1.336582 1.03822,-4.75624 3.89087,-7.316303 11.645101,-15.974169 18.187071,-20.306499 2.25235,-1.491594 2.79245,-1.686408 2.87368,-1.036555 0.0993,0.794414 0.15456,0.865982 0.40228,0.521019 0.14254,-0.19851 0.7008,-0.642046 1.24056,-0.985637 0.53976,-0.343591 0.88757,-0.776487 0.77293,-0.961991 -0.11465,-0.185504 -0.031,-0.337279 0.18596,-0.337279 0.21693,0 0.30889,-0.138394 0.20435,-0.307542 -0.10454,-0.169148 0.52109,-0.684813 1.39029,-1.145922 0.8692,-0.461109 1.58036,-0.944363 1.58036,-1.073897 0,-0.129534 -2.78062,-0.254811 -6.17917,-0.278394 -3.39854,-0.02358 -6.40251,-0.128585 -6.6755,-0.233338 -3.26531,-1.253017 5.27703,-9.9493699 14.0894,-14.3434089 9.6901,-4.831702 20.40709,-5.286497 32.54374,-1.381054 1.79476,0.577534 3.2632,0.899638 3.2632,0.715789 0,-0.70348 -8.07699,-8.3835111 -10.93611,-10.3986341 -2.6008,-1.833055 -2.99861,-2.250682 -2.99861,-3.147951 0,-0.879038 0.19441,-1.098207 1.29362,-1.45832 2.14096,-0.701408 10.06023,-1.268716 14.59374,-1.045445 9.46749,0.466265 19.12649,3.437019 26.68139,8.206219 0.74364,0.4694406 1.35208,0.6998851 1.35208,0.5120992 0,-0.1877861 -0.71438,-2.0139452 -1.5875,-4.0581322 -0.87313,-2.044186 -1.5875,-3.952625 -1.5875,-4.240974 0,-0.288349 0.387,-0.777849 0.86002,-1.087778 0.7995,-0.523852 0.97727,-0.511636 2.52635,0.173594 4.36157,1.929328 10.28849,6.700856 13.90024,11.1905161 2.12142,2.637078 5.75428,9.38981 7.94038,14.759518 0.55294,1.358194 1.13557,2.620257 1.29473,2.804583 0.36562,0.4234219 0.34236,-3.34671 -0.0434,-7.02947 -0.34969,-3.33876796 -0.0553,-4.418168 1.20489,-4.418168 1.1324,0 5.70246,4.270991 7.67129,7.169278 2.67129,3.932364 4.50934,8.8771639 4.50934,12.1312279 0,0.832359 0.0864,1.513381 0.19201,1.513381 0.10561,0 1.2463,-0.798114 2.53487,-1.773587 3.68718,-2.791266 5.14455,-2.729948 5.5892,0.235162 0.60386,4.02682 -0.47167,8.866133 -2.72732,12.271553 l -1.10154,1.663013 1.42781,1.474845 c 5.28742,5.461591 9.90729,15.04964 11.58941,24.052622 0.6908,3.697277 0.91627,12.469074 0.40578,15.786805 -0.14181,0.921631 -0.13754,1.675694 0.01,1.675694 0.14703,0 1.13452,-0.651595 2.19442,-1.447989 2.69167,-2.022485 5.15266,-3.198844 7.22077,-3.451549 l 1.76558,-0.21574 0.84052,-2.116666 c 2.04366,-5.146568 2.71587,-12.693003 1.60828,-18.055179 -1.26547,-6.12652 -3.07687,-9.077994 -9.43294,-15.369916 -2.69475,-2.667553 -5.02032,-4.775451 -5.16794,-4.684217 -0.14762,0.09123 -0.20767,-0.385284 -0.13343,-1.05893 0.13042,-1.183489 0.0946,-1.22481 -1.06048,-1.22481 -1.59358,0 -3.0545,-1.16803 -3.0545,-2.442119 0,-0.538889 0.49796,-1.667205 1.10657,-2.507368 1.27303,-1.757371 1.52719,-1.339333 -2.56316,-4.215805 -1.23617,-0.869314 -4.48237,-3.806189 -7.2138,-6.526389 -9.09835,-9.0609749 -12.49627,-15.6769069 -12.49627,-24.330907 0,-6.030963 1.43344,-9.972538 5.02174,-13.808448 4.73424,-5.060912 11.88095,-6.615465 18.62771,-4.051898 3.56711,1.355392 7.16017,4.867377 8.82099,8.62194 0.59949,1.355238 0.83684,1.601076 1.23043,1.274424 0.51523,-0.4276 1.36237,-0.147511 1.05552,0.348984 -0.0991,0.16029 0.0765,0.389913 0.39016,0.510275 0.4591,0.176172 0.2365,0.578866 -1.14173,2.065438 -0.94161,1.015629 -1.80188,1.888758 -1.91171,1.940285 -0.21277,0.09983 -1.21687,-4.025468 -1.16053,-4.767992 0.0184,-0.242534 -0.0964,-0.440972 -0.25512,-0.440972 -0.27602,0 -2.45524,-3.012696 -2.45524,-3.394272 0,-0.283088 -0.74533,-0.92312 -2.29306,-1.969109 -9.4845,-6.409836 -20.91457,-1.724196 -23.30508,9.553676 -1.82698,8.6192841 1.62463,16.93483614 10.9286,26.3289941 5.8872,5.9442639 12.63665,11.0967039 14.5472,11.1051339 2.24432,0.0099 14.69194,-5.292792 19.21238,-8.184488 6.45327,-4.1281019 11.11189,-9.9108049 12.84981,-15.9503489 0.82183,-2.85597 0.59396,-8.8584561 -0.42289,-11.1396551 -0.69103,-1.550246 -0.73528,-2.673408 -0.0896,-2.274365 0.17745,0.109674 0.32264,0.02826 0.32264,-0.180912 0,-0.229516 -0.3497,-0.292548 -0.88194,-0.158965 -0.50046,0.125608 -0.88195,0.06872 -0.88195,-0.131513 0,-0.842259 -3.34593,-3.988939 -5.22018,-4.909325 -1.83243,-0.899843 -2.38891,-0.993272 -6.24268,-1.0481 -2.51067,-0.03572 -4.4112,0.08942 -4.67431,0.307779 -0.24386,0.202385 -0.44581,0.229472 -0.44878,0.06019 -0.003,-0.169278 -0.12203,-0.149029 -0.26458,0.045 -0.31885,0.433988 -3.31288,1.957536 -3.75525,1.910904 -0.17659,-0.01861 -0.46229,0.218505 -0.63489,0.526932 -0.4023,0.718861 -1.8452,0.768825 -1.57105,0.0544 0.10687,-0.278506 0.005,-0.586034 -0.22684,-0.683394 -1.18945,-0.499946 4.11818,-3.163094 7.90231,-3.965051 1.80597,-0.382733 3.41297,-0.483832 5.20471,-0.327438 2.84348,0.248197 6.34407,1.388427 6.64141,2.163275 0.10399,0.270989 0.31984,0.411888 0.47966,0.313109 0.55245,-0.341431 4.12355,3.359199 5.19534,5.383777 1.62184,3.063611 2.20125,5.457578 2.20125,9.0949717 0,5.800402 -1.49144,9.998428 -5.21836,14.688364 -4.70148,5.9163113 -11.91824,10.6980303 -21.4722,14.2271673 l -3.58361,1.323751 0.84958,1.59785 c 1.03392,1.944529 1.06366,2.689808 0.14403,3.609433 -0.56082,0.560826 -1.17592,0.705555 -2.99861,0.705555 -1.82632,0 -2.29305,0.110221 -2.29305,0.541515 0,0.297833 2.20408,2.71877 4.89797,5.379861 4.70361,4.646355 4.96812,4.985331 6.66593,8.542512 2.02828,4.249585 2.76487,6.975636 3.09797,11.465277 0.31691,4.271526 -0.30646,8.95874 -1.81004,13.609748 l -1.23361,3.81594 1.21656,1.593775 c 2.35655,3.087248 2.84104,4.979476 2.85312,11.143037 0.009,4.63503 -0.11314,5.92128 -0.80222,8.44309 -2.51806,9.215311 -8.74428,17.061191 -16.13186,20.328331 -2.52208,1.11538 -6.89447,2.14105 -10.42017,2.44436 l -2.67051,0.22973 0.3128,2.3571 c 0.17204,1.29641 0.44265,2.4896 0.60134,2.65154 0.1587,0.16194 1.5015,-0.0459 2.984,-0.46191 2.75686,-0.77357 3.76294,-0.7192 4.88247,0.26388 1.36752,1.20085 0.5101,6.67456 -1.74844,11.16194 -1.66078,3.29972 -3.70625,5.90967 -7.11192,9.07456 l -2.79528,2.59765 -0.41655,2.75061 c -0.82612,5.45523 -2.72503,9.66671 -5.52037,12.24337 -3.1154,2.87167 -7.287,3.7727 -11.80483,2.54974 z m 7.61336,-3.58353 c 1.94915,-0.85885 3.61069,-2.63863 4.79924,-5.14075 3.12975,-6.58875 3.34493,-16.12482 0.44171,-19.5751 -2.12225,-2.52215 -4.74991,-2.79291 -8.38474,-0.864 l -2.36818,1.25674 -2.00651,-2.11282 c -2.5504,-2.68552 -4.04498,-3.57264 -6.02182,-3.57433 -4.1782,-0.004 -6.73236,4.47833 -6.73419,11.81674 -0.003,11.78507 11.46448,22.07547 20.27449,18.19352 z m -60.85416,-2.16573 c 3.14227,-0.50847 5.96475,-1.85022 7.77749,-3.69726 l 1.52102,-1.54981 0.63919,1.05106 c 0.78368,1.28866 2.61885,2.45263 3.86974,2.4544 1.27166,0.002 2.37266,-0.9978 2.64384,-2.40036 0.19788,-1.02338 0.12205,-1.19392 -0.61629,-1.38615 -1.82334,-0.47471 -7.08272,-3.37673 -9.38631,-5.17917 -2.35616,-1.84356 -4.34435,-4.12746 -6.20403,-7.12678 -1.04015,-1.67756 -1.69586,-1.89008 -5.40731,-1.75256 -5.808,0.21521 -8.93334,3.84918 -6.83977,7.9529 0.97999,1.92095 2.62394,3.04512 3.72167,2.54496 l 0.83561,-0.38074 -0.86353,1.6241 c -1.89085,3.5562 -0.48818,6.99774 3.19017,7.82727 1.95405,0.44067 2.49543,0.44259 5.11851,0.0181 z m 39.01702,-7.12584 c 0.10412,-0.10412 -0.0549,-1.01159 -0.35334,-2.01661 -0.79874,-2.68964 -1.06777,-7.51579 -0.59031,-10.58951 0.97875,-6.30079 4.68461,-10.55991 9.19885,-10.57214 1.81273,-0.005 4.60846,1.17991 6.10359,2.58668 0.54357,0.51145 1.05951,0.92991 1.14653,0.92991 0.087,0 0.17983,-0.91282 0.20625,-2.02848 0.0264,-1.11566 0.11684,-1.67128 0.20093,-1.23472 0.18008,0.93499 0.80694,1.07069 0.81477,0.17639 0.005,-0.52759 0.0551,-0.54042 0.34737,-0.0882 0.3815,0.59033 0.45223,0.20902 0.39261,-2.11667 -0.028,-1.09231 0.007,-1.14317 0.30567,-0.44097 0.18552,0.43656 0.39998,0.79375 0.47656,0.79375 0.22197,0 -0.0235,-1.68075 -0.31413,-2.15102 -0.16811,-0.27202 -0.11608,-0.33592 0.14312,-0.17572 0.24376,0.15065 0.40728,0.0225 0.40728,-0.3191 0,-0.34597 0.16257,-0.47033 0.41273,-0.31572 0.27589,0.17051 0.33948,0.0642 0.1918,-0.32066 -0.12152,-0.31666 -0.0691,-0.66957 0.11643,-0.78425 0.18556,-0.11468 0.33738,-0.0404 0.33738,0.16509 0,0.20548 0.13673,0.3736 0.30385,0.3736 0.16712,0 0.22837,-0.3949 0.1361,-0.87756 -0.1135,-0.59376 0.0164,-0.94822 0.4017,-1.09607 0.3132,-0.12019 0.56946,-0.36966 0.56946,-0.55438 0,-0.18472 -0.18328,-0.22258 -0.40729,-0.0841 -0.27334,0.16894 -0.31052,0.0952 -0.11306,-0.22435 0.47877,-0.77467 0.52289,-5.7188 0.0597,-6.6885 -0.75576,-1.58215 -1.89637,-2.47103 -3.13928,-2.44646 -0.63941,0.0126 -3.61945,0.37804 -6.62231,0.81202 -5.0759,0.73357 -5.58819,0.75107 -7.28664,0.24888 l -1.8269,-0.54017 3.2297,-1.15267 c 10.04265,-3.58419 18.15743,-9.335938 23.76145,-16.842088 1.00899,-1.35146 1.77421,-2.51753 1.70048,-2.59125 -0.0737,-0.0737 -0.8695,0.37197 -1.7684,0.99042 -5.3825,3.70326 -13.91804,5.50722 -21.76356,4.59965 -5.87039,-0.67908 -9.39851,-2.13372 -12.72739,-5.2475 l -1.69022,-1.581 -1.01375,0.97123 c -0.71312,0.68322 -1.0824,1.45861 -1.24524,2.61468 -0.29851,2.11921 -1.74784,5.13295 -2.90695,6.04471 -0.59388,0.46715 -1.43585,0.714 -2.43535,0.714 -1.85011,0 -3.46549,-1.25312 -4.75932,-3.69201 -0.65569,-1.23599 -1.04926,-1.60228 -1.73117,-1.61118 -0.4854,-0.006 -1.75567,-0.31397 -2.82282,-0.68364 -1.06716,-0.36967 -1.98273,-0.55465 -2.0346,-0.41107 -0.52854,1.46282 -3.10913,5.0695 -4.60938,6.44212 -3.17426,2.90424 -9.78002,5.540898 -15.38396,6.140448 l -2.44877,0.26198 0.94955,0.81677 c 3.89156,3.34738 11.96632,6.34975 19.39561,7.2117 1.78728,0.20736 3.77976,0.45828 4.42774,0.55759 l 1.17813,0.18056 -1.3185,0.67221 c -0.72518,0.36972 -1.45378,0.58861 -1.61911,0.48643 -0.16533,-0.10218 -0.3006,0.0429 -0.3006,0.32233 0,0.95249 -2.90803,1.34168 -8.10358,1.08452 l -4.85924,-0.24052 -0.39776,2.28408 c -0.58811,3.37717 -0.48657,6.59115 0.32683,10.34546 0.99585,4.59642 3.19602,9.31884 3.7367,8.02041 0.26311,-0.63186 0.75024,-0.54367 0.97906,0.17726 0.10792,0.34003 0.5321,0.828 0.94263,1.08438 0.61905,0.3866 0.69846,0.38645 0.46539,-8.8e-4 -0.22877,-0.38017 -0.17257,-0.37909 0.3022,0.006 0.32077,0.26005 0.6861,0.79697 0.81184,1.19314 0.18297,0.57648 0.29451,0.62295 0.55862,0.23272 0.25419,-0.37558 0.31703,-0.32551 0.27358,0.21797 -0.11777,1.47303 -0.007,1.66934 0.60119,1.06155 0.53328,-0.53328 0.67831,-0.46701 1.94075,0.88684 0.75042,0.80475 1.26783,1.21152 1.1498,0.90393 -0.37164,-0.96848 0.23038,-0.61978 2.40352,1.39217 3.18798,2.9515 7.73141,4.95261 13.15597,5.7944 2.14246,0.33247 11.68077,0.27015 12.02952,-0.0786 z m -28.44399,-8.20881 c -0.60113,-0.72431 -0.2647,-0.97201 0.53047,-0.39057 0.39517,0.28895 0.50317,0.55936 0.2788,0.69803 -0.20144,0.12449 -0.56561,-0.0139 -0.80927,-0.30746 z m -1.25811,-1.98237 c -0.15595,-0.25234 -0.0968,-0.31153 0.15557,-0.15557 0.40667,0.25133 0.54598,0.56285 0.25172,0.56285 -0.0856,0 -0.26884,-0.18327 -0.40729,-0.40728 z m 45.71841,-13.88022 c 0,-0.097 0.0794,-0.17638 0.17639,-0.17638 0.097,0 0.17639,0.0794 0.17639,0.17638 0,0.097 -0.0794,0.17639 -0.17639,0.17639 -0.097,0 -0.17639,-0.0794 -0.17639,-0.17639 z m -0.70556,-0.70555 c 0,-0.29104 0.15377,-0.52917 0.34171,-0.52917 0.18794,0 0.25033,0.23813 0.13864,0.52917 -0.11168,0.29104 -0.26545,0.52917 -0.3417,0.52917 -0.0763,0 -0.13865,-0.23813 -0.13865,-0.52917 z m 1.05834,-0.35278 c 0,-0.097 0.0794,-0.17639 0.17638,-0.17639 0.097,0 0.17639,0.0794 0.17639,0.17639 0,0.097 -0.0794,0.17639 -0.17639,0.17639 -0.097,0 -0.17638,-0.0794 -0.17638,-0.17639 z m 0.70555,-1.41111 c 0,-0.097 0.0794,-0.17639 0.17639,-0.17639 0.097,0 0.17639,0.0794 0.17639,0.17639 0,0.097 -0.0794,0.17639 -0.17639,0.17639 -0.097,0 -0.17639,-0.0794 -0.17639,-0.17639 z m -2.11667,-0.35278 c 0,-0.097 0.0794,-0.17639 0.17639,-0.17639 0.097,0 0.17639,0.0794 0.17639,0.17639 0,0.097 -0.0794,0.17639 -0.17639,0.17639 -0.097,0 -0.17639,-0.0794 -0.17639,-0.17639 z m -8.46666,-10.93611 c 0,-0.097 0.0794,-0.17639 0.17639,-0.17639 0.097,0 0.17639,0.0794 0.17639,0.17639 0,0.097 -0.0794,0.17639 -0.17639,0.17639 -0.097,0 -0.17639,-0.0794 -0.17639,-0.17639 z m -37.74722,30.33889 c 0,-0.097 -0.0794,-0.17639 -0.17639,-0.17639 -0.097,0 -0.17639,0.0794 -0.17639,0.17639 0,0.097 0.0794,0.17639 0.17639,0.17639 0.097,0 0.17639,-0.0794 0.17639,-0.17639 z m 1.41111,-0.70556 c 0,-0.097 -0.0794,-0.17639 -0.17639,-0.17639 -0.097,0 -0.17639,0.0794 -0.17639,0.17639 0,0.097 0.0794,0.17639 0.17639,0.17639 0.097,0 0.17639,-0.0794 0.17639,-0.17639 z m -22.72853,-3.14483 c 0.85149,-0.88867 2.34376,-2.10529 3.31614,-2.70361 1.92987,-1.18745 5.12375,-4.5471 5.4277,-5.70937 0.11597,-0.44347 -0.77501,0.25761 -2.27264,1.78824 -2.71167,2.77144 -7.70589,6.80171 -9.76464,7.87995 l -1.31831,0.69044 1.53179,-0.16495 c 1.25348,-0.13497 1.81307,-0.4585 3.07996,-1.7807 z m -3.90619,-2.12484 c 1.35819,-0.62141 2.70757,-1.35683 2.99861,-1.63425 0.29104,-0.27743 1.16417,-0.97347 1.94028,-1.54677 1.96903,-1.45448 3.02088,-2.68253 5.63267,-6.57626 l 2.27074,-3.38529 0.28694,-3.31749 c 0.15781,-1.82462 0.23781,-3.57147 0.17776,-3.88188 -0.06,-0.31042 -0.89587,-0.93287 -1.85739,-1.38322 -0.96152,-0.45036 -1.74822,-0.95044 -1.74822,-1.1113 0,-0.16086 -0.11906,-0.26768 -0.26458,-0.23737 -0.14553,0.0303 -0.63078,-0.0956 -1.07834,-0.27977 l -0.81376,-0.33488 0.72556,-0.9224 c 1.71508,-2.18037 0.46845,-2.25025 -1.97722,-0.11083 -3.10832,2.71908 -6.58681,7.9033 -8.43675,12.57382 -1.83562,4.6344 -2.73578,10.33653 -2.04108,12.92954 0.25317,0.94501 0.5197,0.89523 4.18478,-0.78165 z m 93.25873,-2.05047 c 1.32698,-1.71758 3.40033,-5.90397 3.74379,-7.55921 l 0.23261,-1.12102 -2.75646,0.19904 c -3.02934,0.21874 -3.10718,0.24079 -2.77096,0.78481 0.12789,0.20693 1.1089,0.37625 2.18002,0.37625 h 1.94749 l -0.24747,1.14652 c -0.32589,1.50983 -1.38251,3.58621 -2.8515,5.60352 -0.65473,0.89912 -1.19042,1.73256 -1.19042,1.85208 0,0.57392 0.66164,0.0787 1.7129,-1.28199 z m -78.26568,-0.0882 c 0,-0.097 -0.0794,-0.17639 -0.17638,-0.17639 -0.097,0 -0.17639,0.0794 -0.17639,0.17639 0,0.097 0.0794,0.17639 0.17639,0.17639 0.097,0 0.17638,-0.0794 0.17638,-0.17639 z m 58.69572,-3.19332 c 0.12047,-0.31395 0.0613,-0.45555 -0.13865,-0.33196 -0.19181,0.11854 -0.34874,0.36491 -0.34874,0.54749 0,0.50745 0.25286,0.39563 0.48739,-0.21553 z m 15.07212,-5.81968 c 0.0304,-4.54837 -0.28845,-7.39116 -0.82906,-7.39116 -0.21839,0 -0.27328,0.51786 -0.14021,1.32291 0.12026,0.72761 0.23406,3.78354 0.25287,6.79097 0.0246,3.93197 0.1262,5.17075 0.36168,4.40973 0.18012,-0.58209 0.33974,-2.89169 0.35472,-5.13245 z m -15.6771,5.07365 c -0.12935,-0.12935 -0.34102,-0.12935 -0.47037,0 -0.12935,0.12935 -0.0235,0.23518 0.23519,0.23518 0.2587,0 0.36453,-0.10583 0.23518,-0.23518 z m -0.23518,-0.64676 c 0,-0.097 -0.0794,-0.17639 -0.17639,-0.17639 -0.097,0 -0.17639,0.0794 -0.17639,0.17639 0,0.097 0.0794,0.17639 0.17639,0.17639 0.097,0 0.17639,-0.0794 0.17639,-0.17639 z m 0.70555,-0.30958 c 0,-0.0733 -0.27781,-0.35107 -0.61736,-0.61736 -0.55953,-0.43881 -0.572,-0.42634 -0.13319,0.13319 0.46085,0.58764 0.75055,0.77452 0.75055,0.48417 z m 4.93889,-12.39042 c 0,-0.097 -0.0794,-0.17639 -0.17639,-0.17639 -0.097,0 -0.17639,0.0794 -0.17639,0.17639 0,0.097 0.0794,0.17639 0.17639,0.17639 0.097,0 0.17639,-0.0794 0.17639,-0.17639 z m -49.03611,-1.41111 c 0.36492,-0.43969 0.32251,-0.52917 -0.25078,-0.52917 -0.37948,0 -0.68996,0.23813 -0.68996,0.52917 0,0.29104 0.11286,0.52917 0.25079,0.52917 0.13793,0 0.44841,-0.23813 0.68995,-0.52917 z m 69.14444,-2.49498 c 11.12769,-2.55389 19.47961,-13.938028 19.52171,-26.609178 0.0129,-3.879872 -0.60738,-7.015198 -1.72539,-8.721504 l -0.60572,-0.924443 -1.73446,3.500055 c -0.95395,1.92503 -1.84527,3.602532 -1.98071,3.727782 -0.40993,0.37907 -1.83376,-0.34276 -1.83376,-0.92966 0,-0.726985 1.8871,-4.863975 2.80981,-6.159804 0.97416,-1.368078 0.46128,-1.588543 -1.86696,-0.802533 -5.89376,1.989722 -12.56663,8.023077 -16.76777,15.160797 -1.17769,2.00089 -1.08472,2.30815 0.32024,1.05833 0.49075,-0.43656 1.23307,-1.08701 1.6496,-1.44544 l 0.75733,-0.65168 -0.38948,1.26904 c -0.21422,0.69798 -0.53097,1.26905 -0.70389,1.26905 -0.17293,0 -0.21038,0.16834 -0.0832,0.37408 0.74451,1.20465 -4.51512,10.453898 -6.97042,12.257728 -0.71616,0.52614 -0.81949,1.31898 -0.22018,1.68938 0.25234,0.15596 0.31153,0.0968 0.15557,-0.15557 -0.16931,-0.27396 0.10155,-0.40728 0.82744,-0.40728 0.59353,0 1.07915,0.16433 1.07915,0.36519 0,0.23642 0.27394,0.21858 0.77689,-0.0506 0.5779,-0.30928 0.81127,-0.31262 0.91114,-0.013 0.15184,0.45553 1.71845,0.1835 2.52483,-0.43842 0.40638,-0.31342 0.44597,-0.2859 0.19686,0.13684 -0.25883,0.43923 -0.21985,0.45474 0.22933,0.0913 0.29763,-0.24085 0.65423,-0.32482 0.79245,-0.1866 0.13822,0.13822 0.399,0.0178 0.5795,-0.26765 0.21455,-0.33925 0.33007,-0.36887 0.3336,-0.0855 0.005,0.43496 0.55976,0.29298 2.69739,-0.69084 0.41344,-0.19028 1.12782,-0.23949 1.5875,-0.10935 0.64493,0.18258 0.71495,0.15201 0.30662,-0.13387 -0.29104,-0.20377 -0.4101,-0.39276 -0.26458,-0.41999 0.14552,-0.0272 0.42333,-0.0892 0.61736,-0.13769 0.19403,-0.0485 0.47184,-0.11047 0.61736,-0.13769 0.14552,-0.0272 0.0527,-0.1838 -0.20621,-0.34794 -0.36193,-0.22942 -0.31109,-0.34019 0.21986,-0.47904 0.56127,-0.14677 0.65514,-0.0403 0.50106,0.56842 -0.24291,0.95967 2.7781,-2.207878 5.34184,-5.600968 4.05391,-5.36533 7.35452,-13.79554 7.35489,-18.785417 5e-5,-0.630591 0.15233,-1.146528 0.33841,-1.146528 0.18607,0 0.24858,0.145191 0.13891,0.322647 -0.10967,0.177456 -0.0414,0.375893 0.15165,0.440972 0.19308,0.06508 0.52918,1.070825 0.74689,2.234992 0.75115,4.016604 -0.30934,11.211404 -2.29029,15.538374 -2.23837,4.88925 -7.16302,10.484818 -11.40326,12.956828 -2.93726,1.71239 -4.81967,2.30979 -9.22787,2.9286 -2.03917,0.28625 -3.79617,0.61762 -3.90444,0.73638 -0.32537,0.35689 5.63138,-0.22344 8.09342,-0.7885 z m -20.22592,-0.73882 c -0.12935,-0.12935 -0.23519,-0.0235 -0.23519,0.23519 0,0.2587 0.10584,0.36454 0.23519,0.23518 0.12935,-0.12935 0.12935,-0.34101 0,-0.47037 z m -0.58797,-2.05787 c 0,-0.097 -0.0794,-0.17639 -0.17638,-0.17639 -0.097,0 -0.17639,0.0794 -0.17639,0.17639 0,0.097 0.0794,0.17639 0.17639,0.17639 0.097,0 0.17638,-0.0794 0.17638,-0.17639 z m -92.79455,-5.37986 c 0.82186,-2.0858 1.95497,-4.623388 2.51803,-5.639098 0.56307,-1.0157 1.02375,-2.00744 1.02375,-2.20385 0,-0.19642 -0.81033,-2.54039 -1.80074,-5.20882 -0.99042,-2.66843 -2.18278,-6.64641 -2.64969,-8.839947 -0.51026,-2.39714 -1.14628,-4.390424 -1.59425,-4.996336 -0.68827,-0.930933 -0.73275,-1.341193 -0.58117,-5.360362 0.0986,-2.613811 0.356,-4.752962 0.64444,-5.355403 0.35911,-0.750052 1.41898,-1.47298 4.20099,-2.865482 3.62209,-1.812994 8.45148,-3.734001 9.29798,-3.698497 0.23097,0.0097 -1.00881,0.540048 -2.75506,1.178578 -3.26341,1.193296 -9.50237,4.193611 -9.8331,4.728741 -0.35442,0.573473 0.55723,9.762245 1.02219,10.302844 0.25032,0.291042 0.94158,2.454934 1.53613,4.80865 1.42857,5.655494 1.93501,7.118034 3.77089,10.889964 2.04207,4.19555 4.06389,6.47191 6.91913,7.7902 2.20307,1.01717 2.30367,1.02919 8.57921,1.02469 5.55692,-0.004 6.70247,-0.1056 9.17222,-0.81369 5.13446,-1.47208 9.32714,-4.31827 11.32008,-7.68461 2.29036,-3.86871 3.36524,-10.302698 3.24565,-19.427592 -0.078,-5.954398 -0.0344,-6.465861 0.61262,-7.181289 0.88574,-0.979367 2.94985,-2.036842 4.65992,-2.387343 1.3154,-0.269609 1.33159,-0.293718 1.6549,-2.46507 l 0.3265,-2.192797 h 3.07275 c 2.92052,0 5.25634,-0.601697 4.65813,-1.19991 -0.13667,-0.136671 0.0245,-0.143742 0.35812,-0.01571 0.37795,0.145033 0.6066,0.06341 0.6066,-0.21654 0,-0.247125 0.0873,-0.361978 0.19409,-0.25523 0.10675,0.106749 0.89327,-0.47582 1.74782,-1.294597 2.01375,-1.929454 4.82604,-3.408067 9.38025,-4.931845 5.66184,-1.894377 9.4305,-2.458525 16.54729,-2.477043 9.7567,-0.02539 13.75913,1.168875 14.73979,4.398127 0.62891,2.070994 0.90539,11.072529 0.49828,16.223306 l -0.32065,4.056944 -0.0504,-4.484682 c -0.0605,-5.380969 -0.54211,-6.94505 -3.40569,-11.059086 -2.44053,-3.506261 -2.51898,-3.941446 -0.36181,-2.006925 0.65922,0.591183 0.74371,0.561151 0.74371,-0.264363 0,-0.503558 -0.17172,-0.650833 -0.60027,-0.514816 -0.76118,0.241588 -1.26556,-0.519545 -0.61665,-0.930555 0.6718,-0.425515 -0.11051,-0.409735 -1.25476,0.02531 -0.86215,0.327789 -0.95286,0.265341 -0.88409,-0.60863 0.0114,-0.145521 -0.34574,-0.367822 -0.79375,-0.494002 -0.74351,-0.209405 -0.72564,-0.232486 0.20487,-0.264583 0.59071,-0.02038 1.21654,0.224475 1.48809,0.582196 0.27192,0.35821 0.47335,0.436901 0.47986,0.187461 0.006,-0.23734 0.28775,-0.353533 0.62858,-0.259406 0.33955,0.09377 0.0617,-0.08969 -0.61736,-0.407685 -1.75415,-0.821409 -6.97204,-1.543427 -11.17516,-1.546347 -8.0964,-0.0056 -15.76969,1.912706 -20.78164,5.195437 -3.2881,2.153642 -4.21935,4.147019 -4.16399,8.913178 0.0959,8.252009 3.97636,16.858185 9.44162,20.939602 4.78022,3.56984 15.20196,4.08002 22.5288,1.10286 4.79816,-1.94967 7.09349,-4.823895 8.37114,-10.482402 0.36225,-1.604353 0.67091,-2.52013 0.68591,-2.035061 0.0416,1.345692 -1.28536,6.547534 -2.05518,8.056513 -2.12482,4.16498 -9.15877,7.23332 -17.66816,7.70718 -11.11205,0.61879 -17.02131,-3.43292 -21.96165,-15.058137 -0.52507,-1.235538 -1.00569,-2.820143 -1.65852,-5.468055 -0.35378,-1.434993 -0.90369,-6.196424 -0.84542,-7.320139 0.0176,-0.339548 -0.18543,-0.617361 -0.4512,-0.617361 -0.26577,0 -0.48321,0.185209 -0.48321,0.411574 0,0.226366 -0.10482,0.306751 -0.23294,0.178633 -0.40525,-0.405244 -1.27433,1.159501 -0.90522,1.629809 0.18381,0.2342 0.60114,1.913829 0.92741,3.73251 1.80446,10.058443 6.89082,18.347206 13.21889,21.541606 3.57813,1.80623 6.1595,2.23726 12.21547,2.03968 4.69736,-0.15325 5.65617,-0.29421 8.53727,-1.25514 4.29636,-1.43295 5.97008,-2.30372 7.80781,-4.06209 3.96118,-3.790123 5.08225,-9.761581 5.14244,-27.391581 l 0.0319,-9.348611 -2.29305,-0.759916 c -5.09036,-1.686937 -13.00155,-2.37541 -20.46111,-1.780632 -1.97746,0.157669 -2.28937,0.131207 -1.23473,-0.10475 2.57162,-0.575354 10.1069,-0.822123 12.7,-0.415906 3.80292,0.595737 6.369,0.86801 6.1669,0.654336 -0.1007,-0.106475 -1.61973,-0.424843 -3.37561,-0.707485 -2.65943,-0.428085 -6.49545,-1.690992 -6.49545,-2.138455 0,-0.06594 1.78593,0.321557 3.96875,0.861111 5.36597,1.326378 12.17383,2.559596 12.80114,2.318877 0.3817,-0.146472 0.15733,-0.557863 -0.88319,-1.619405 -0.76718,-0.782679 -1.53309,-1.423052 -1.70201,-1.423052 -0.16893,0 -0.51664,-0.391457 -0.7727,-0.869904 -0.25605,-0.478448 -0.60038,-0.786579 -0.76516,-0.684736 -0.16479,0.101843 -0.29961,0.0558 -0.29961,-0.102312 0,-0.533702 -1.95408,-1.157294 -4.01411,-1.280996 -1.20117,-0.07213 -2.1668,-0.31624 -2.33639,-0.590635 -0.23794,-0.385002 -0.77804,-0.364041 -3.05469,0.118554 -1.52111,0.322437 -4.59127,0.685564 -6.82259,0.80695 l -4.05694,0.2207 1.74262,-1.799292 c 0.95844,-0.989611 1.66739,-1.874524 1.57544,-1.966473 -0.0919,-0.09195 -1.59051,0.472603 -3.33012,1.254563 -7.9478,3.572542 -14.67319,5.841921 -20.28294,6.844161 -3.61682,0.646183 -13.59177,0.734959 -14.32374,0.127479 -0.76089,-0.631484 -0.56728,-1.774723 0.48689,-2.875049 0.79438,-0.829154 0.84219,-0.966357 0.26459,-0.759431 -0.38773,0.138905 -0.94309,0.426862 -1.23413,0.639904 -0.72676,0.531988 -1.81058,1.133798 -4.9224,2.733249 -1.46428,0.752625 -2.96921,1.564565 -3.34429,1.804311 -5.50435,3.518246 -6.76654,4.279322 -6.99095,4.215415 -0.14552,-0.04144 -0.2663,0.12309 -0.2684,0.365625 -0.002,0.242534 -0.78842,0.996597 -1.74736,1.675694 -0.95895,0.679097 -1.75098,1.353785 -1.76007,1.499305 -0.009,0.145521 -0.39199,0.264584 -0.8509,0.264584 -0.4589,0 -1.2174,0.301291 -1.68554,0.669537 -0.51334,0.403793 -1.96743,0.834441 -3.66355,1.085008 -1.5468,0.228509 -3.20924,0.489849 -3.69431,0.580756 l -0.88195,0.165285 0.8766,-0.632932 c 0.48213,-0.348113 2.60096,-2.192934 4.7085,-4.099603 10.37083,-9.382364 22.66309,-16.390581 39.39406,-22.45985 2.73491,-0.992107 8.5273,-2.479228 9.60946,-2.467107 0.24459,0.0027 -0.94734,0.756802 -2.64874,1.675694 -3.57546,1.931035 -5.73139,3.499555 -12.07599,8.785763 -5.37866,4.481396 -5.37687,4.484441 1.85849,3.155095 10.71834,-1.969269 19.77951,-5.369536 28.88216,-10.838231 1.57917,-0.948733 3.05308,-1.724969 3.27535,-1.724969 0.91321,0 -0.49934,5.789908 -1.96549,8.056302 -0.2933,0.453397 -0.46053,0.897108 -0.37162,0.986024 0.33062,0.33062 3.69189,-0.709739 6.54229,-2.02493 3.33468,-1.538638 6.9105,-3.968814 8.36223,-5.683083 1.42759,-1.685764 3.01606,-5.405088 3.24156,-7.589929 l 0.19576,-1.896778 -2.96176,1.990404 c -1.62896,1.094722 -3.53673,2.286861 -4.23947,2.649198 l -1.27772,0.658795 0.17512,-3.071457 c 0.33193,-5.821485 -1.82216,-12.2288819 -5.47632,-16.2895069 l -1.73703,-1.93024 -0.21226,4.576073 c -0.17986,3.8772249 -0.66819,6.8757199 -1.52042,9.3358199 -0.108,0.311753 -1.08317,-1.198732 -2.39143,-3.704166 -8.15376,-15.6152639 -9.63154,-18.0233709 -13.60246,-22.1657889 -2.03124,-2.1189631 -6.62715,-5.8772891 -7.1871,-5.8772891 -0.11088,0 0.0963,0.674688 0.46047,1.499306 0.73411,1.662458 2.12048,8.0473461 2.12048,9.7658151 v 1.100123 l -2.20486,-1.869787 C 181.0174,-10.304328 171.0267,-14.114474 159.29351,-15.021599 c -4.07461,-0.31502 -10.42888,-0.121245 -10.38641,0.316736 0.0113,0.116466 1.28281,1.221593 2.82561,2.455838 2.92269,2.3381737 6.50235,6.1462241 8.33653,8.8684181 1.44108,2.138783 3.01216,5.291667 2.63683,5.291667 -0.16692,0 -1.24116,-0.326513 -2.38719,-0.725585 -5.74031,-1.99888596 -14.3893,-3.491099 -20.29374,-3.501286 -5.86545,-0.01012 -12.85823,1.50550504 -17.42052,3.775743 -2.29674,1.142882 -10.40694,6.493894 -10.40694,6.866374 0,0.158142 0.91281,0.288467 2.02847,0.28961 3.85766,0.004 12.75534,1.6475939 17.69135,3.2680669 l 2.25733,0.74107 -4.37399,1.13295 c -4.58744,1.188236 -8.96453,2.789208 -11.55653,4.226933 -0.84596,0.469231 -1.70392,0.750664 -1.90659,0.625406 -0.20268,-0.125259 -0.27105,-0.07007 -0.15195,0.122644 0.11911,0.192713 -0.3902,0.691399 -1.13178,1.108193 -3.3928,1.906862 -9.45332,7.395098 -12.92354,11.703211 -2.456111,3.04914 -5.807771,7.755456 -5.807771,8.155132 0,0.326768 1.48909,0.188678 4.938891,-0.458006 1.90119,-0.35639 9.93559,-3.00082 17.99167,-5.921756 l 4.05694,-1.470948 -3.12084,3.146302 c -1.71646,1.730467 -3.83313,4.162284 -4.70372,5.404039 -3.48186,4.966347 -8.00309,15.883045 -9.62832,23.248013 -0.90511,4.101596 -1.48798,10.39943 -1.35498,14.640276 l 0.11064,3.52778 1.99565,-2.998613 c 1.09761,-1.649236 2.76448,-3.87537 3.70417,-4.946964 0.93968,-1.071595 3.11449,-3.581449 4.83291,-5.577454 1.71842,-1.996006 3.17631,-3.577192 3.23975,-3.513748 0.0634,0.06344 -0.50343,1.938298 -1.25973,4.166343 -1.79069,5.275375 -2.45891,9.291722 -2.45717,14.768726 0.002,5.56586 0.68082,9.8293 2.31182,14.51504 1.37416,3.947878 3.16064,7.751938 3.64048,7.751938 0.16451,0 0.97154,-1.70656 1.79339,-3.79236 z m 14.42635,-4.784428 c -1.09551,-0.24924 -2.60363,-0.86028 -3.35139,-1.35785 -1.8104,-1.20469 -4.55268,-5.85027 -6.00552,-10.17369 -2.44206,-7.267185 -3.29155,-11.689581 -3.29155,-17.13564 v -3.418547 l 1.22918,-1.159263 c 2.71227,-2.557999 13.95742,-5.912544 21.17221,-6.31589 2.13431,-0.119319 4.83306,-0.300104 5.99722,-0.401745 1.60905,-0.140481 1.98976,-0.09016 1.5875,0.209827 -0.40974,0.305569 -0.26047,0.34148 0.66143,0.159124 0.65483,-0.129526 1.28983,-0.0851 1.41111,0.09873 0.32495,0.492527 3.5222,1.502004 4.07966,1.288084 0.26357,-0.101139 0.58289,-0.01613 0.70961,0.188898 0.14302,0.231411 -0.0107,0.297324 -0.40529,0.173802 -0.51453,-0.161062 -0.50122,-0.114873 0.0699,0.242361 2.6609,1.664467 3.93631,4.758903 4.37204,10.607553 0.75948,10.194164 -1.16047,18.517134 -5.1117,22.159254 -1.83137,1.6881 -5.55559,3.51375 -8.96173,4.39313 -3.06098,0.79028 -11.47712,1.05285 -14.16265,0.44186 z m 13.80988,-1.34964 c 5.21469,-1.30281 9.50264,-4.21112 11.2454,-7.62722 1.67915,-3.2914 2.32576,-6.64183 2.33132,-12.079677 0.0107,-10.490223 -1.94497,-13.884385 -8.8419,-15.34547 -6.52081,-1.381406 -18.46072,0.31327 -24.83947,3.52556 -2.68985,1.354585 -3.30087,2.194122 -3.10772,4.269963 l 0.10542,1.132954 2.29306,-1.129153 c 3.43473,-1.69134 3.8598,-2.026945 4.56064,-3.600693 0.60458,-1.357588 0.78479,-1.480889 2.96473,-2.028472 1.27656,-0.320662 2.38497,-0.583022 2.46313,-0.583022 0.0782,0 -0.39943,1.348741 -1.06132,2.997202 -1.93378,4.816124 -2.31899,7.294204 -2.11154,13.583353 0.12664,3.839305 0.39721,6.332435 0.90833,8.369965 0.77694,3.09716 2.33839,6.84086 3.58122,8.58626 l 0.75945,1.06655 3.05171,-0.23854 c 1.67843,-0.13119 4.24233,-0.536 5.69754,-0.89956 z m -1.5875,-10.64742 c -3.01034,-1.4615 -4.672,-3.89724 -5.39015,-7.901153 l -0.33008,-1.840286 1.0531,0.749875 c 3.37931,2.406277 8.01361,-0.05597 8.0172,-4.259607 0.003,-4.062235 -4.64379,-6.593602 -7.8582,-4.280377 l -1.13632,0.817744 1.05834,-1.144621 c 0.58208,-0.629541 1.85208,-1.564153 2.82222,-2.076914 1.50679,-0.796409 2.20095,-0.932295 4.7625,-0.932295 2.59268,0 3.25096,0.132292 4.86274,0.977238 2.80284,1.46934 6.27958,5.186475 4.85106,5.186475 -0.29787,0 -0.54401,0.277812 -0.54698,0.617361 -0.005,0.533656 -0.057,0.545614 -0.38606,0.08819 -0.31224,-0.434063 -0.341,-0.407887 -0.16001,0.145647 1.27862,3.91054 0.95658,8.046144 -0.84814,10.891889 -2.1596,3.40535 -7.07344,4.75608 -10.77122,2.96083 z m 6.09511,-1.14198 c 1.46937,-1.02919 0.67035,-3.33139 -1.15623,-3.33139 -1.71716,0 -2.52995,1.9387 -1.35643,3.23542 0.71464,0.78967 1.4805,0.81892 2.51266,0.096 z m -3.56659,-2.84287 c 0.54167,-0.8267 0.55046,-1.01921 0.0845,-1.852084 -1.02441,-1.831225 -3.495,-1.245012 -3.495,0.829284 0,2.01518 2.30692,2.70702 3.41047,1.0228 z m 5.33842,-9.378516 c 0.23283,-0.232833 0.42333,-0.756708 0.42333,-1.164167 0,-0.407458 -0.1905,-0.931333 -0.42333,-1.164166 -0.23283,-0.232833 -0.75671,-0.423333 -1.16417,-0.423333 -0.40746,0 -0.93133,0.1905 -1.16416,0.423333 -0.23284,0.232833 -0.42334,0.756708 -0.42334,1.164166 0,0.407459 0.1905,0.931334 0.42334,1.164167 0.23283,0.232833 0.7567,0.423333 1.16416,0.423333 0.40746,0 0.93134,-0.1905 1.16417,-0.423333 z m -15.80444,3.951111 c 0,-0.258704 0.10583,-0.364537 0.23518,-0.235185 0.12935,0.129352 0.12935,0.341018 0,0.47037 -0.12935,0.129352 -0.23518,0.02352 -0.23518,-0.235185 z m 1.59702,-1.042926 c -0.11468,-0.185554 -0.46599,-0.238567 -0.78068,-0.117806 -0.48531,0.186231 -0.54346,0.0098 -0.38297,-1.161935 0.10407,-0.759825 0.42492,-1.937124 0.71302,-2.616222 l 0.5238,-1.234722 -0.17264,1.65105 c -0.095,0.908077 -0.003,2.138389 0.20488,2.734027 0.36758,1.054443 0.31506,1.425945 -0.10541,0.745608 z m 19.56964,-3.719574 c 0,-0.09701 0.0794,-0.176389 0.17639,-0.176389 0.097,0 0.17639,0.07937 0.17639,0.176389 0,0.09701 -0.0794,0.176389 -0.17639,0.176389 -0.097,0 -0.17639,-0.07937 -0.17639,-0.176389 z M 143.06573,69.2916 c 0.11992,-0.194028 0.29741,-0.352778 0.39442,-0.352778 0.097,0 0.0783,0.15875 -0.0416,0.352778 -0.11991,0.194027 -0.2974,0.352777 -0.39442,0.352777 -0.097,0 -0.0783,-0.15875 0.0416,-0.352777 z m -8.99583,-5.115278 c 0,-0.09701 0.0794,-0.176389 0.17639,-0.176389 0.097,0 0.17639,0.07937 0.17639,0.176389 0,0.09701 -0.0794,0.176389 -0.17639,0.176389 -0.097,0 -0.17639,-0.07937 -0.17639,-0.176389 z m 2.87828,29.7342 c -0.40795,-1.02562 -0.91342,-2.33392 -1.12326,-2.90735 l -0.38153,-1.04258 -0.8608,1.51545 c -0.78404,1.38032 -0.81373,1.58265 -0.33304,2.26893 0.55631,0.79425 3.03439,2.43629 3.29038,2.1803 0.0825,-0.0825 -0.18379,-0.98913 -0.59175,-2.01475 z m -3.93257,-6.38804 c 1.02796,-1.79235 1.04773,-1.92222 1.05098,-6.90273 l 0.003,-5.076017 -3.19038,0.181907 c -1.75471,0.100049 -3.26563,0.257155 -3.3576,0.349124 -0.60359,0.603587 3.46458,13.880996 4.12756,13.471256 0.17515,-0.10825 0.78991,-1.01884 1.36613,-2.02354 z m 1.05429,-16.819771 c 0.75355,-0.241329 0.67651,-0.282448 -0.52917,-0.282448 -0.77611,0 -1.80798,0.127101 -2.29305,0.282448 -0.75355,0.241328 -0.67651,0.282448 0.52917,0.282448 0.77611,0 1.80798,-0.127102 2.29305,-0.282448 z m 67.6477,4.927747 c -3.83764,-0.957833 -6.96993,-4.861016 -6.96993,-8.685327 v -1.199428 l 1.04082,0.538226 c 4.13763,2.139655 9.04271,-2.720158 6.90935,-6.845604 -0.97372,-1.882984 -2.5132,-2.846724 -4.54735,-2.846724 -1.06322,0 -2.20149,0.233216 -2.70696,0.55462 -0.51556,0.327823 -0.36734,0.09524 0.36248,-0.568764 3.16829,-2.882606 8.23781,-3.916056 12.08546,-2.463691 3.21945,1.215245 7.96931,6.126296 5.23318,5.410782 -0.79565,-0.208069 -0.77159,0.560075 0.12363,3.946219 1.26702,4.792471 -0.83489,9.663129 -5.04225,11.684173 -1.49964,0.720362 -4.59774,0.947413 -6.48843,0.475518 z m 4.31896,-1.752748 c 0.38806,-0.388055 0.70556,-1.023055 0.70556,-1.411111 0,-0.857366 -1.19031,-2.116666 -2.0007,-2.116666 -1.74193,0 -2.5374,2.674428 -1.09581,3.684162 1.03622,0.725796 1.54184,0.692725 2.39095,-0.156385 z m -4.31183,-2.313059 c 0.86378,-0.605012 1.06241,-2.20636 0.36072,-2.908051 -0.70169,-0.701691 -2.30304,-0.503058 -2.90805,0.360717 -0.69875,0.997605 -0.69408,1.053248 0.18199,2.166985 0.84381,1.072736 1.27731,1.142441 2.36534,0.380349 z m 6.01461,-11.416924 c 0.14813,-0.99303 -0.52032,-1.792238 -1.49903,-1.792238 -1.65478,0 -2.21963,2.005836 -0.83747,2.973941 0.66136,0.463232 0.88514,0.473347 1.49931,0.06777 0.39705,-0.262203 0.77379,-0.824466 0.83719,-1.249473 z M 192.3134,63.58416 c 0.0193,-0.450422 0.14997,-1.215824 0.29029,-1.700893 0.24185,-0.835988 0.26498,-0.818279 0.44395,0.339835 0.12092,0.782443 0.0165,1.394064 -0.2903,1.700893 -0.40363,0.403632 -0.47357,0.350093 -0.44394,-0.339835 z m 21.97975,-3.519289 c -0.15595,-0.252342 -0.0968,-0.311525 0.15557,-0.155569 0.40667,0.251333 0.54598,0.562854 0.25172,0.562854 -0.0856,0 -0.26884,-0.183278 -0.40729,-0.407285 z M 165.90412,57.30083 c 3.37219,-1.776652 6.26598,-2.461289 10.43122,-2.467904 l 3.2835,-0.0052 2.53733,-2.144732 c 1.39554,-1.179603 2.85484,-2.299616 3.24289,-2.488919 0.38806,-0.189303 0.23233,0.02176 -0.34605,0.469038 -0.57839,0.447273 -2.10986,1.726037 -3.40326,2.841696 l -2.35165,2.028472 h -3.31359 c -3.7501,0 -6.14083,0.524972 -9.52587,2.091752 -3.34786,1.549574 -3.70961,1.338082 -0.55452,-0.324189 z m -31.71663,0.466696 c 0.12936,-0.129351 0.34102,-0.129351 0.47037,0 0.12936,0.129352 0.0235,0.235186 -0.23518,0.235186 -0.2587,0 -0.36454,-0.105834 -0.23519,-0.235186 z m 1.58015,-0.35858 c 0.25467,-0.101907 0.55894,-0.08937 0.67616,0.02785 0.11723,0.117225 -0.0911,0.200604 -0.46302,0.185286 -0.41096,-0.01693 -0.49456,-0.100521 -0.21314,-0.213136 z m 1.41112,-0.352777 c 0.25466,-0.101907 0.55893,-0.08937 0.67615,0.02785 0.11723,0.117225 -0.0911,0.200603 -0.46302,0.185285 -0.41096,-0.01693 -0.49456,-0.10052 -0.21313,-0.213135 z m 1.57216,-0.356262 c 0.34324,-0.08944 0.81949,-0.08356 1.05833,0.01307 0.23885,0.09663 -0.042,0.169815 -0.62407,0.162626 -0.58208,-0.0072 -0.7775,-0.08625 -0.43426,-0.175698 z m 19.07268,0.0093 c 0.12936,-0.129352 0.34102,-0.129352 0.47037,0 0.12936,0.129352 0.0235,0.235185 -0.23518,0.235185 -0.25871,0 -0.36454,-0.105833 -0.23519,-0.235185 z m -16.96273,-0.360775 c 0.33955,-0.08873 0.89518,-0.08873 1.23473,0 0.33954,0.08873 0.0617,0.161333 -0.61737,0.161333 -0.67909,0 -0.95691,-0.0726 -0.61736,-0.161333 z m 15.36788,0.0022 c 0.25467,-0.101907 0.55894,-0.08937 0.67616,0.02785 0.11723,0.117225 -0.0911,0.200604 -0.46302,0.185286 -0.41097,-0.01693 -0.49456,-0.100521 -0.21314,-0.213136 z m -12.72204,-0.360757 c 0.43656,-0.08409 1.15093,-0.08409 1.5875,0 0.43656,0.08409 0.0794,0.152883 -0.79375,0.152883 -0.87313,0 -1.23032,-0.0688 -0.79375,-0.152883 z m 10.05416,0.0058 c 0.33955,-0.08873 0.89518,-0.08873 1.23472,0 0.33955,0.08873 0.0617,0.161334 -0.61736,0.161334 -0.67909,0 -0.95691,-0.0726 -0.61736,-0.161334 z m -7.14375,-0.285988 c 0,-0.09701 0.0794,-0.176389 0.17639,-0.176389 0.097,0 0.17639,0.07937 0.17639,0.176389 0,0.09701 -0.0794,0.176389 -0.17639,0.176389 -0.097,0 -0.17639,-0.07937 -0.17639,-0.176389 z m 2.02847,-0.08192 c 0.82462,-0.07427 2.174,-0.07427 2.99862,0 0.82461,0.07427 0.14993,0.135041 -1.49931,0.135041 -1.64924,0 -2.32392,-0.06077 -1.49931,-0.135041 z m 67.82153,-5.562527 c 0,-0.09701 0.0794,-0.176389 0.17639,-0.176389 0.097,0 0.17638,0.07937 0.17638,0.176389 0,0.09701 -0.0794,0.176389 -0.17638,0.176389 -0.097,0 -0.17639,-0.07937 -0.17639,-0.176389 z M 186.4574,49.536074 c 0.11991,-0.194028 0.2974,-0.352778 0.39441,-0.352778 0.097,0 0.0783,0.15875 -0.0416,0.352778 -0.11992,0.194027 -0.29741,0.352777 -0.39442,0.352777 -0.097,0 -0.0783,-0.15875 0.0416,-0.352777 z m 0.88194,-0.529167 c 0,-0.09701 0.0794,-0.176389 0.17639,-0.176389 0.097,0 0.17639,0.07937 0.17639,0.176389 0,0.09701 -0.0794,0.176389 -0.17639,0.176389 -0.097,0 -0.17639,-0.07937 -0.17639,-0.176389 z m 0.70556,-0.352778 c 0,-0.09701 0.0794,-0.176389 0.17639,-0.176389 0.097,0 0.17639,0.07937 0.17639,0.176389 0,0.09701 -0.0794,0.176389 -0.17639,0.176389 -0.097,0 -0.17639,-0.07937 -0.17639,-0.176389 z m 0.82315,-0.411574 c 0.12935,-0.129352 0.34101,-0.129352 0.47037,0 0.12935,0.129352 0.0235,0.235185 -0.23519,0.235185 -0.2587,0 -0.36454,-0.105833 -0.23518,-0.235185 z m 0.94074,-0.293981 c 0,-0.09701 0.0794,-0.176389 0.17638,-0.176389 0.097,0 0.17639,0.07937 0.17639,0.176389 0,0.09701 -0.0794,0.176389 -0.17639,0.176389 -0.097,0 -0.17638,-0.07938 -0.17638,-0.176389 z m 1.05833,-0.352778 c 0,-0.09701 0.0794,-0.176389 0.17639,-0.176389 0.097,0 0.17639,0.07937 0.17639,0.176389 0,0.09701 -0.0794,0.176389 -0.17639,0.176389 -0.097,0 -0.17639,-0.07938 -0.17639,-0.176389 z m 0.70555,-0.352778 c 0,-0.09701 0.0794,-0.176389 0.17639,-0.176389 0.097,0 0.17639,0.07937 0.17639,0.176389 0,0.09701 -0.0794,0.176389 -0.17639,0.176389 -0.097,0 -0.17639,-0.07937 -0.17639,-0.176389 z m 1.05834,-0.352777 c 0,-0.09701 0.0794,-0.176389 0.17639,-0.176389 0.097,0 0.17639,0.07937 0.17639,0.176389 0,0.09701 -0.0794,0.176388 -0.17639,0.176388 -0.097,0 -0.17639,-0.07937 -0.17639,-0.176388 z m 1.17592,-0.411575 c 0.12936,-0.129351 0.34102,-0.129351 0.47037,0 0.12936,0.129352 0.0235,0.235186 -0.23518,0.235186 -0.2587,0 -0.36454,-0.105834 -0.23519,-0.235186 z m 1.22738,-0.35858 c 0.25466,-0.101907 0.55893,-0.08937 0.67615,0.02785 0.11723,0.117225 -0.0911,0.200604 -0.46302,0.185286 -0.41096,-0.01693 -0.49456,-0.100521 -0.21313,-0.213136 z m 1.41111,-0.352777 c 0.25466,-0.101907 0.55893,-0.08937 0.67615,0.02785 0.11723,0.117225 -0.0911,0.200603 -0.46302,0.185285 -0.41096,-0.01693 -0.49455,-0.10052 -0.21313,-0.213135 z m 1.38906,-0.345428 c 0.24253,-0.09786 0.63941,-0.09786 0.88194,0 0.24254,0.09786 0.0441,0.177936 -0.44097,0.177936 -0.48507,0 -0.6835,-0.08007 -0.44097,-0.177936 z m 1.94699,-0.363612 c 0.34324,-0.08944 0.81949,-0.08356 1.05833,0.01307 0.23885,0.09663 -0.042,0.169816 -0.62407,0.162626 -0.58208,-0.0072 -0.7775,-0.08625 -0.43426,-0.175698 z m 26.01065,-2.401361 c 0,-0.09701 0.0794,-0.176389 0.17639,-0.176389 0.097,0 0.17638,0.07937 0.17638,0.176389 0,0.09701 -0.0794,0.176388 -0.17638,0.176388 -0.097,0 -0.17639,-0.07938 -0.17639,-0.176388 z m -31.75,-16.227777 c 0,-0.09701 0.0794,-0.176389 0.17639,-0.176389 0.097,0 0.17639,0.07938 0.17639,0.176389 0,0.09701 -0.0794,0.176389 -0.17639,0.176389 -0.097,0 -0.17639,-0.07937 -0.17639,-0.176389 z M 230.731,105.09857 c 0,-0.097 -0.0794,-0.17639 -0.17638,-0.17639 -0.097,0 -0.17639,0.0794 -0.17639,0.17639 0,0.097 0.0794,0.17639 0.17639,0.17639 0.097,0 0.17638,-0.0794 0.17638,-0.17639 z m -2.82222,-0.70556 c 0,-0.097 -0.0794,-0.17639 -0.17639,-0.17639 -0.097,0 -0.17638,0.0794 -0.17638,0.17639 0,0.097 0.0794,0.17639 0.17638,0.17639 0.097,0 0.17639,-0.0794 0.17639,-0.17639 z m -2.46944,-0.35277 c 0,-0.097 -0.0794,-0.17639 -0.17639,-0.17639 -0.097,0 -0.17639,0.0794 -0.17639,0.17639 0,0.097 0.0794,0.17638 0.17639,0.17638 0.097,0 0.17639,-0.0794 0.17639,-0.17638 z m 13.2141,-0.50479 c 0.11163,-0.18063 0.0681,-0.41177 -0.0968,-0.51365 -0.16486,-0.10189 -0.29974,0.0459 -0.29974,0.3284 0,0.59484 0.11124,0.64681 0.39651,0.18525 z m -57.94207,-9.72429 c 0.90041,-0.8349 1.68282,-2.76894 1.68712,-4.17039 0.002,-0.7073 -0.68781,-0.60858 -2.61856,0.37463 -0.56816,0.28932 -1.75879,0.60109 -2.64583,0.69282 -0.88705,0.0917 -1.65694,0.20974 -1.71088,0.26227 -0.22567,0.21978 0.73016,2.19334 1.41778,2.92739 1.00896,1.07707 2.65505,1.04019 3.87037,-0.0867 z m -4.66092,-2.47092 c 0,-0.097 0.0794,-0.17639 0.17639,-0.17639 0.097,0 0.17639,0.0794 0.17639,0.17639 0,0.097 -0.0794,0.17639 -0.17639,0.17639 -0.097,0 -0.17639,-0.0794 -0.17639,-0.17639 z m 55.26852,3.1162 c -0.12935,-0.12935 -0.34102,-0.12935 -0.47037,0 -0.12935,0.12935 -0.0235,0.23519 0.23518,0.23519 0.25871,0 0.36454,-0.10584 0.23519,-0.23519 z m 1.41111,-3.175 c -0.12935,-0.12935 -0.23519,-0.0235 -0.23519,0.23519 0,0.2587 0.10584,0.36453 0.23519,0.23518 0.12935,-0.12935 0.12935,-0.34102 0,-0.47037 z m -54.11004,-2.98817 c 2.65949,-0.7176 5.1772,-2.18293 5.98516,-3.4834 0.42103,-0.67767 -3.09251,-6.892779 -4.48391,-7.931611 -0.74458,-0.555908 -1.49546,-0.707465 -3.50511,-0.707465 -2.21044,0 -2.76007,0.134035 -4.04993,0.987624 -1.60636,1.063041 -3.35709,3.516032 -3.9444,5.526582 -0.67475,2.30994 -0.80958,4.76168 -0.28567,5.19453 1.57034,1.2974 6.30329,1.48782 10.28386,0.41374 z m 59.07448,-15.121087 c 0.39399,-2.227899 0.47804,-4.392398 0.32701,-8.421424 -0.11181,-2.982547 -0.26707,-5.486596 -0.34502,-5.564553 -0.078,-0.07796 -0.36434,-0.05632 -0.63641,0.04808 -0.40907,0.156977 -0.43773,0.777817 -0.16563,3.588124 0.29774,3.075149 0.0682,7.918677 -0.68281,14.406717 l -0.16333,1.411111 0.56795,-1.234722 c 0.31238,-0.679097 0.80658,-2.584097 1.09824,-4.233333 z m -64.64268,2.021487 c 1.58347,-0.78841 3.82595,-1.060099 5.32761,-0.64547 0.73452,0.202811 1.40893,0.29532 1.49867,0.205575 0.26591,-0.265908 -2.81538,-10.201222 -3.2514,-10.483828 -1.2468,-0.808115 -5.80469,0.220735 -6.76114,1.52619 -0.22844,0.31179 -0.31519,2.646655 -0.2329,6.268013 l 0.13114,5.771132 1.11485,-1.057333 c 0.61316,-0.581533 1.59109,-1.294458 2.17317,-1.584279 z m 8.29028,-18.425652 c 0,-0.09701 -0.0794,-0.176389 -0.17639,-0.176389 -0.097,0 -0.17639,0.07937 -0.17639,0.176389 0,0.09701 0.0794,0.176388 0.17639,0.176388 0.097,0 0.17639,-0.07937 0.17639,-0.176388 z m 1.05833,-0.705556 c 0,-0.09701 -0.0794,-0.176389 -0.17639,-0.176389 -0.097,0 -0.17638,0.07937 -0.17638,0.176389 0,0.09701 0.0794,0.176389 0.17638,0.176389 0.097,0 0.17639,-0.07937 0.17639,-0.176389 z m 53.07542,-1.560048 c -0.52097,-0.505707 -2.98098,-0.873233 -2.98098,-0.445358 0,0.420492 0.7811,0.671001 2.27542,0.729761 0.64172,0.02523 0.91221,-0.0838 0.70556,-0.284403 z m 0.0796,-3.418354 c -0.51976,-3.202928 -5.30707,-11.368262 -8.83162,-15.063391 -1.78513,-1.87153 -2.02429,-2.013302 -2.74536,-1.6274 l -0.78987,0.422727 0.7726,0.625615 c 0.42493,0.344088 0.7726,0.781621 0.7726,0.972296 0,0.190675 0.2396,0.438623 0.53244,0.550997 0.29284,0.112374 0.49128,0.399955 0.44097,0.639069 -0.0503,0.239114 0.14666,0.445799 0.4377,0.459298 0.29105,0.0135 0.5053,0.309443 0.47613,0.65765 -0.0334,0.398444 0.1235,0.565361 0.42325,0.450336 0.55024,-0.211147 1.92565,1.812926 1.91744,2.821735 -0.004,0.546638 -0.0634,0.572245 -0.33359,0.144965 -0.54653,-0.864178 -0.68486,-0.258087 -0.19897,0.871728 l 0.45515,1.058334 0.37183,-0.881945 c 0.2045,-0.485069 0.38188,-0.674138 0.39418,-0.420152 0.0123,0.253986 0.14992,0.382959 0.30582,0.286607 0.41581,-0.256984 2.62838,3.93648 2.33092,4.417775 -0.139,0.224904 -0.0125,0.584605 0.28121,0.799336 0.29366,0.214731 0.95558,1.222523 1.47094,2.239538 1.10339,2.177435 1.8204,2.449292 1.51623,0.574882 z m -2.48607,-0.908779 c -0.31596,-0.176819 -0.57204,-0.512038 -0.56906,-0.744931 0.003,-0.259013 0.13819,-0.217959 0.34737,0.105724 0.21483,0.332417 0.34398,0.369824 0.34738,0.100606 0.003,-0.235708 -0.31721,-0.601217 -0.71152,-0.812243 -0.66028,-0.353372 -0.69779,-0.30558 -0.47485,0.604949 0.26309,1.07448 0.79257,1.58813 1.30842,1.269314 0.1797,-0.111061 0.0682,-0.3466 -0.24774,-0.523419 z m -2.33836,-4.696151 c 0,-0.09701 -0.0794,-0.176389 -0.17638,-0.176389 -0.097,0 -0.17639,0.07937 -0.17639,0.176389 0,0.09701 0.0794,0.176388 0.17639,0.176388 0.097,0 0.17638,-0.07937 0.17638,-0.176388 z m -7.50387,-0.389526 c -0.11723,-0.117225 -0.4215,-0.129758 -0.67616,-0.02785 -0.28142,0.112616 -0.19783,0.196209 0.21314,0.213137 0.37188,0.01532 0.58024,-0.06806 0.46302,-0.185287 z m 6.48932,-0.586493 c -0.34841,-0.345816 -0.38893,-0.305295 -0.19749,0.197483 0.13248,0.347917 0.32974,0.543709 0.43836,0.435093 0.10861,-0.108616 2.2e-4,-0.393275 -0.24087,-0.632576 z m -3.57156,-3.257314 c 0,-0.09701 -0.0794,-0.176389 -0.17638,-0.176389 -0.097,0 -0.17639,0.07937 -0.17639,0.176389 0,0.09701 0.0794,0.176388 0.17639,0.176388 0.097,0 0.17638,-0.07937 0.17638,-0.176388 z m 2.11667,-0.352778 c 0,-0.09701 -0.0794,-0.176389 -0.17639,-0.176389 -0.097,0 -0.17639,0.07937 -0.17639,0.176389 0,0.09701 0.0794,0.176389 0.17639,0.176389 0.097,0 0.17639,-0.07937 0.17639,-0.176389 z m -2.82222,-0.352778 c 0,-0.09701 -0.0794,-0.176389 -0.17639,-0.176389 -0.097,0 -0.17639,0.07937 -0.17639,0.176389 0,0.09701 0.0794,0.176389 0.17639,0.176389 0.097,0 0.17639,-0.07937 0.17639,-0.176389 z m 0.3457,-1.772414 c -0.24543,-0.29573 -0.53809,-0.445849 -0.65034,-0.333596 -0.11225,0.112253 0.0294,0.351783 0.31486,0.53229 0.74682,0.472303 0.8444,0.414511 0.33548,-0.198694 z m 20.57066,-14.146266 c 0.12104,-0.121039 -0.0939,-0.835414 -0.47754,-1.5875 -0.72573,-1.422562 -1.85489,-1.818587 -2.71963,-0.953848 -0.31625,0.316257 -0.70097,0.25881 -1.63485,-0.244119 l -1.22128,-0.657701 -0.71884,0.86148 c -1.00497,1.204386 -1.25979,2.125459 -0.68822,2.487621 0.54614,0.346054 7.12542,0.429011 7.46036,0.09407 z M 114.19676,18.961984 c -0.12936,-0.129352 -0.23519,-0.02352 -0.23519,0.235185 0,0.258704 0.10583,0.364537 0.23519,0.235185 0.12935,-0.129351 0.12935,-0.341018 0,-0.47037 z m -1.99908,0.0588 c 0,-0.09701 -0.0794,-0.176389 -0.17639,-0.176389 -0.097,0 -0.17639,0.07938 -0.17639,0.176389 0,0.09701 0.0794,0.176389 0.17639,0.176389 0.097,0 0.17639,-0.07937 0.17639,-0.176389 z m 3.05741,-0.411574 c -0.12935,-0.129352 -0.23519,-0.02352 -0.23519,0.235185 0,0.258704 0.10584,0.364537 0.23519,0.235186 0.12935,-0.129352 0.12935,-0.341019 0,-0.470371 z m -2.46945,-0.352777 c -0.12935,-0.129352 -0.23518,-0.02352 -0.23518,0.235185 0,0.258703 0.10583,0.364537 0.23518,0.235185 0.12936,-0.129352 0.12936,-0.341019 0,-0.47037 z m 3.46899,-0.470371 c 0.25788,-0.417259 -0.0873,-0.417259 -1.05834,0 -0.68024,0.292309 -0.67782,0.304078 0.0674,0.327983 0.42511,0.01364 0.87104,-0.133955 0.99096,-0.327983 z m 0.88194,-0.881944 c 0,-0.09701 -0.0794,-0.176389 -0.17639,-0.176389 -0.097,0 -0.17639,0.07937 -0.17639,0.176389 0,0.09701 0.0794,0.176389 0.17639,0.176389 0.097,0 0.17639,-0.07938 0.17639,-0.176389 z m 0.70556,-1.411111 c 0,-0.09701 -0.0794,-0.176389 -0.17639,-0.176389 -0.097,0 -0.17639,0.07938 -0.17639,0.176389 0,0.09701 0.0794,0.176389 0.17639,0.176389 0.097,0 0.17639,-0.07937 0.17639,-0.176389 z m 157.92683,-30.750464 c -0.12935,-0.129352 -0.23518,-0.02352 -0.23518,0.235185 0,0.258703 0.10583,0.364537 0.23518,0.235185 0.12936,-0.129352 0.12936,-0.341019 0,-0.47037 z m -0.52328,-1.252361 c -0.25314,-0.253141 -0.41746,-0.273969 -0.41746,-0.05292 0,0.47088 0.4172,0.888079 0.65264,0.652638 0.10025,-0.100247 -0.006,-0.370122 -0.23518,-0.599721 z m -1.12301,-1.863843 c 0,-0.09701 -0.0794,-0.176389 -0.17639,-0.176389 -0.097,0 -0.17639,0.07937 -0.17639,0.176389 0,0.09701 0.0794,0.176389 0.17639,0.176389 0.097,0 0.17639,-0.07937 0.17639,-0.176389 z m -25.04722,-1.411111 c 0,-0.09701 -0.0794,-0.176389 -0.17639,-0.176389 -0.097,0 -0.17639,0.07937 -0.17639,0.176389 0,0.09701 0.0794,0.176389 0.17639,0.176389 0.097,0 0.17639,-0.07937 0.17639,-0.176389 z m 2.27799,-1.915901 c 0.11163,-0.180621 0.0416,-0.428115 -0.15557,-0.549987 -0.19719,-0.121872 -0.35853,0.02591 -0.35853,0.328402 0,0.619663 0.21168,0.710903 0.5141,0.221585 z m 19.12386,-0.259562 c -0.12935,-0.129352 -0.23519,-0.02352 -0.23519,0.235185 0,0.258704 0.10584,0.364537 0.23519,0.235186 0.12935,-0.129352 0.12935,-0.341019 0,-0.470371 z m -1.01259,-0.807104 c -0.23684,-0.379231 -0.48004,-0.640078 -0.54046,-0.579659 -0.20912,0.209116 0.33632,1.269171 0.65304,1.269171 0.17491,0 0.12425,-0.310281 -0.11258,-0.689512 z m 1.48296,0.160345 c 0,-0.09701 -0.0794,-0.176389 -0.17639,-0.176389 -0.097,0 -0.17639,0.07937 -0.17639,0.176389 0,0.09701 0.0794,0.176389 0.17639,0.176389 0.097,0 0.17639,-0.07937 0.17639,-0.176389 z m -2.82222,-1.037513 c 0,-0.08556 -0.15875,-0.253682 -0.35278,-0.373598 -0.19403,-0.119916 -0.35278,-0.04991 -0.35278,0.155569 0,0.205479 0.15875,0.373598 0.35278,0.373598 0.19403,0 0.35278,-0.07001 0.35278,-0.155569 z m -24.34167,-0.726376 c 0,-0.09701 -0.0794,-0.176389 -0.17639,-0.176389 -0.097,0 -0.17639,0.07937 -0.17639,0.176389 0,0.09701 0.0794,0.176389 0.17639,0.176389 0.097,0 0.17639,-0.07938 0.17639,-0.176389 z m 15.16944,-0.352777 c 0,-0.09701 -0.0794,-0.176389 -0.17638,-0.176389 -0.097,0 -0.17639,0.07937 -0.17639,0.176389 0,0.09701 0.0794,0.176388 0.17639,0.176388 0.097,0 0.17638,-0.07937 0.17638,-0.176388 z m 1.76389,0 c 0,-0.09701 -0.0794,-0.176389 -0.17639,-0.176389 -0.097,0 -0.17638,0.07937 -0.17638,0.176389 0,0.09701 0.0794,0.176388 0.17638,0.176388 0.097,0 0.17639,-0.07937 0.17639,-0.176388 z m -16.93333,-1.058334 c 0,-0.09701 -0.0794,-0.176389 -0.17639,-0.176389 -0.097,0 -0.17639,0.07938 -0.17639,0.176389 0,0.09701 0.0794,0.176389 0.17639,0.176389 0.097,0 0.17639,-0.07937 0.17639,-0.176389 z m -4.23333,59.443051 c 0,-0.258704 0.10583,-0.364537 0.23518,-0.235185 0.12936,0.129352 0.12936,0.341018 0,0.47037 -0.12935,0.129352 -0.23518,0.02352 -0.23518,-0.235185 z m -0.35278,-0.881944 c 0,-0.09701 0.0794,-0.176389 0.17639,-0.176389 0.097,0 0.17639,0.07937 0.17639,0.176389 0,0.09701 -0.0794,0.176388 -0.17639,0.176388 -0.097,0 -0.17639,-0.07937 -0.17639,-0.176388 z m 0.70556,-0.352778 c 0,-0.09701 0.0794,-0.176389 0.17639,-0.176389 0.097,0 0.17638,0.07938 0.17638,0.176389 0,0.09701 -0.0794,0.176389 -0.17638,0.176389 -0.097,0 -0.17639,-0.07937 -0.17639,-0.176389 z m -0.67771,-0.734954 c 0.0169,-0.410966 0.10052,-0.494559 0.21314,-0.213136 0.10191,0.254661 0.0894,0.558932 -0.0279,0.676157 -0.11723,0.117225 -0.20061,-0.09113 -0.18529,-0.463021 z m 1.03048,-1.381713 c 0,-0.09701 0.0794,-0.176389 0.17639,-0.176389 0.097,0 0.17639,0.07938 0.17639,0.176389 0,0.09701 -0.0794,0.176389 -0.17639,0.176389 -0.097,0 -0.17639,-0.07937 -0.17639,-0.176389 z m -0.70555,-0.352777 c 0,-0.09701 0.0794,-0.176389 0.17639,-0.176389 0.097,0 0.17639,0.07937 0.17639,0.176389 0,0.09701 -0.0794,0.176388 -0.17639,0.176388 -0.097,0 -0.17639,-0.07937 -0.17639,-0.176388 z m 1.05833,-0.352778 c 0,-0.09701 0.0794,-0.176389 0.17639,-0.176389 0.097,0 0.17639,0.07937 0.17639,0.176389 0,0.09701 -0.0794,0.176389 -0.17639,0.176389 -0.097,0 -0.17639,-0.07937 -0.17639,-0.176389 z M 113.96157,16.551336 c 0,-0.09701 0.0794,-0.176389 0.17639,-0.176389 0.097,0 0.17639,0.07937 0.17639,0.176389 0,0.09701 -0.0794,0.176389 -0.17639,0.176389 -0.097,0 -0.17639,-0.07938 -0.17639,-0.176389 z m 1.28354,-0.352778 c 0.11168,-0.291041 0.26545,-0.529166 0.3417,-0.529166 0.0763,0 0.13865,0.238125 0.13865,0.529166 0,0.291042 -0.15377,0.529167 -0.34171,0.529167 -0.18794,0 -0.25033,-0.238125 -0.13864,-0.529167 z"
       id="path8" /></g></svg>
