<?xml version="1.0" encoding="UTF-8" standalone="no"?>
<!-- Created with Inkscape (http://www.inkscape.org/) -->

<svg
   width="336.11234mm"
   height="270.07117mm"
   viewBox="0 0 336.11235 270.07112"
   version="1.1"
   id="svg1"
   xml:space="preserve"
   xmlns="http://www.w3.org/2000/svg"
   xmlns:svg="http://www.w3.org/2000/svg"><defs
     id="defs1"><clipPath
       clipPathUnits="userSpaceOnUse"
       id="clipPath6"><path
         id="path7"
         style="fill:#ff0000;fill-opacity:1;fill-rule:nonzero;stroke:none;stroke-width:0.264583"
         d="M -175.07778,-16.057127 V 287.55793 H 124.54631 V -16.057127 Z m 132.7459,202.572647 c 0.210643,0.005 0.427212,0.0169 0.650089,0.0367 2.23823,0.19855 4.475655,0.4031 6.717938,0.55346 1.973313,0.11308 0.986628,0.0436 2.958475,0.20825 3.181295,0.26563 4.740125,1.85116 4.950601,3.46956 4.949923,1.63749 3.796379,7.35609 -2.592089,6.81354 -3.228716,-0.27422 -1.569593,-0.1301 -4.979024,-0.43357 -4.228209,-0.39317 -8.460616,-0.76265 -12.666927,-1.35341 -6.647387,-0.93358 -5.930551,-7.21034 0.03204,-7.20421 0.04685,5e-5 0.0972,0.004 0.144695,0.005 0.687229,-1.21692 2.304132,-2.15435 4.784204,-2.09548 z" /></clipPath></defs><g
     id="layer1"
     transform="translate(148.96857,129.81321)"><path
       style="fill:#000000"
       d="m 35.526837,140.16528 c -12.53276,-1.15431 -23.17053,-4.38491 -33.4660505,-10.16337 l -3.40681,-1.91211 -10.2267595,0.35332 c -23.25069,0.80329 -49.84698,-1.47313 -67.02398,-5.73667 -9.4118,-2.33613 -18.73272,-6.16722 -23.350517,-9.59756 -2.58915,-1.92335 -4.83111,-4.63539 -5.99789,-7.2555 -3.02404,-6.790715 -0.55338,-17.414563 6.10967,-26.271636 1.04263,-1.385952 1.895687,-2.607859 1.895687,-2.715349 0,-0.107491 -0.537977,-0.389973 -1.195507,-0.627739 -0.78118,-0.282479 -1.34881,-0.802418 -1.63787,-1.50025 -0.79387,-1.91659 0.45672,-4.735145 4.469817,-10.073925 1.04023,-1.38387 1.89134,-2.685921 1.89134,-2.893447 0,-0.207525 -1.30969,-0.992255 -2.91042,-1.743843 -6.231587,-2.925912 -11.648757,-6.854239 -16.584247,-12.026261 -1.50574,-1.577912 -2.83889,-2.86893 -2.96253,-2.86893 -0.12365,0 -0.13149,3.690937 -0.0174,8.202082 0.20036,7.92408 1.03635,16.8619 2.16954,23.195137 0.66409,3.711535 0.67978,4.744401 0.0796,5.242493 -0.67779,0.562515 -1.28668,-0.02018 -3.33468,-3.191253 -5.0919,-7.884188 -10.74393,-21.561613 -13.82217,-33.448459 -1.86671,-7.208458 -3.40867,-17.565451 -3.58666,-24.090899 -0.0359,-1.317287 -0.18023,-2.466081 -0.32067,-2.552876 -0.69394,-0.428878 -3.97607,9.323215 -5.13854,15.267983 -0.95284,4.872762 -1.00663,5.025792 -1.76664,5.025792 -1.34327,0 -3.26056,-7.569227 -4.03488,-15.929296 -1.3543,-14.621719 1.52751,-28.9731577 8.13722,-40.523418 0.96753,-1.690737 1.75931,-3.134603 1.7595,-3.208591 1.9e-4,-0.07399 -1.54763,-0.08235 -3.43959,-0.01859 -4.03141,0.135864 -5.3802,-0.236905 -5.3802,-1.486949 0,-1.087296 1.00192,-1.924613 5.66082,-4.730806 4.24195,-2.555055 10.26068,-6.783797 12.93339,-9.086958 1.9454,-1.676421 5.0419,-5.463112 5.0419,-6.165718 0,-0.27185 -0.31471,-0.338831 -0.90082,-0.191726 -1.61778,0.406038 -7.71247,1.257428 -8.97695,1.254025 -1.40793,-0.0038 -1.89341,-0.255394 -2.22492,-1.153092 -0.32396,-0.877273 1.86608,-3.174161 6.47191,-6.787645 6.91615,-5.426036 15.18996,-10.206023 22.29953,-12.882991 1.69774,-0.639251 3.08681,-1.364921 3.08681,-1.612598 0,-1.226676 -4.33491,-13.367455 -6.92867,-19.405141 l -1.23793,-2.881618 -1.55516,-0.23321 c -2.47536,-0.371203 -6.185,-2.430005 -8.18073,-4.540194 -7.70808,-8.150154 -5.48394,-22.068424 4.36328,-27.304564 10.59245,-5.63242 22.696967,0.22438 24.873147,12.03492 0.55258,2.99895 0.0254,6.70559 -1.40102,9.851602 l -1.0138,2.235876 0.81812,1.560432 c 2.11497,4.03398 8.25442,21.019997 8.25442,22.837496 0,0.398841 0.29054,0.457419 1.32292,0.26673 0.7276,-0.134394 2.63832,-0.451927 4.24604,-0.705628 1.60772,-0.253702 2.98065,-0.521702 3.05094,-0.595555 0.0703,-0.07385 -1.20225,-2.118655 -2.82788,-4.544002 -3.4333,-5.122265 -6.82145,-11.631201 -7.08767,-13.61602 -0.14979,-1.116778 -0.0376,-1.514536 0.58653,-2.079363 0.77135,-0.698063 0.77317,-0.6979 3.47447,0.310709 9.16424,3.421746 27.85568,8.905715 28.38298,8.327417 0.0876,-0.09608 0.23467,-2.397187 0.32681,-5.113575 l 0.16752,-4.938889 -2.41465,-1.68083 c -4.73835,-3.298359 -7.30875,-7.84832 -7.62009,-13.48861 -0.21656,-3.92334 0.2843,-6.47197 1.91083,-9.72321 2.14645,-4.2905 6.19894,-7.54092 11.20277,-8.98552 1.59876,-0.46155 2.98459,-0.56638 5.8999,-0.44626 3.61292,0.14886 3.96379,0.23303 6.77246,1.62479 11.01056,5.45595 13.51426,19.92641 5.01315,28.974219 l -1.84301,1.961533 0.26722,6.526388 c 0.14697,3.589514 0.27944,7.439201 0.29438,8.55486 0.0149,1.11566 0.18677,2.028472 0.38186,2.028472 0.19508,0 1.10789,-1.063528 2.02847,-2.363397 8.66306,-12.23241 20.78555,-23.756425 33.43079954,-31.780355 29.19059046,-18.52262 65.19672046,-23.60144 98.93002046,-13.9545 15.389553,4.40105 29.374823,11.72132 41.080453,21.50262 4.82647,4.03303 12.60815,11.898662 16.19527,16.370001 16.55925,20.641051 27.99166,51.246502 29.94067,80.1534877 1.52376,22.5998213 -5.24828,48.3599243 -17.58634,66.8964673 -6.52289,9.799915 -15.21274,18.991748 -24.16806,25.564175 -1.87815,1.378404 -3.32768,2.647189 -3.22117,2.819524 0.34229,0.553846 4.78331,3.286452 7.79794,4.798157 1.6092,0.806944 5.37164,2.485645 8.36099,3.730445 2.98934,1.244801 5.92877,2.518524 6.53205,2.830497 1.76648,0.913486 3.93681,3.062406 4.62991,4.584256 1.33578,2.93298 0.52486,6.79342 -1.84927,8.80354 -3.52299,2.98282 -14.5066,5.8922 -28.18423,7.46552 -5.56363,0.63999 -19.04013,0.73112 -24.81118,0.16778 l -3.82092,-0.37297 -1.99992,1.35502 c -13.523593,9.1627 -32.411163,15.61775 -52.270753,17.86414 -4.69763,0.53136 -17.72519,0.94444 -20.81389,0.65996 z m 19.93195,-9.52833 c 17.0295,-1.82418 35.48674,-8.10832 47.194213,-16.06821 5.65383,-3.84403 5.36572,-3.72962 8.58711,-3.41011 11.41234,1.1319 21.176,1.05219 31.35478,-0.25599 6.86463,-0.88224 16.5284,-3.11683 16.46248,-3.80667 -0.0158,-0.16573 -2.29763,-1.2144 -5.07064,-2.33037 -6.9035,-2.77827 -12.75429,-5.780024 -17.50619,-8.981582 l -3.99769,-2.693412 -3.05787,1.468757 c -6.67002,3.203748 -10.39082,4.576686 -16.63981,6.139927 -9.85264,2.46472 -16.384733,3.14633 -27.811463,2.90206 -9.26418,-0.19804 -13.17496,-0.73004 -21.56806,-2.93399 -19.1176,-5.020088 -36.31623,-17.127085 -48.41322,-34.080551 l -1.93404,-2.710476 -2.25952,2.302785 c -7.2452905,7.384013 -18.9830205,13.831604 -31.60165,17.35893 -4.61573,1.290248 -7.55754,1.89194 -14.04954,2.873572 -8.37419,1.26623 -24.29357,1.327807 -31.95101,0.123588 l -1.25934,-0.198047 -1.16459,2.76895 c -0.64053,1.522923 -1.24174,2.967388 -1.33604,3.209923 -0.10209,0.262582 0.11286,0.440972 0.53134,0.440972 3.0208,0 7.13494,2.899593 8.72478,6.149116 2.25149,4.601868 1.21338,9.783188 -2.97581,14.852688 -0.79056,0.95669 -1.43738,1.84491 -1.43738,1.97383 0,0.57088 11.01457,2.18823 20.16763,2.96137 8.89902,0.75167 33.25222,1.14894 33.04894,0.53912 -0.0815,-0.24451 -1.40049,-1.49947 -2.93109,-2.78881 -1.53104,-1.28971 -2.92542,-2.77505 -3.09971,-3.30191 -0.67416,-2.03789 1.42942,-4.10832 3.67337,-3.61547 0.60079,0.13196 3.76826,2.04398 7.0388095,4.24893 10.69523,7.21055 15.92773,10.0779 23.7093805,12.99247 11.5203,4.31486 24.00858,5.53573 39.57183,3.86861 z m -130.13366,-14.33203 c 4.12713,-3.08947 7.33028,-6.65672 8.64396,-9.62651 1.58611,-3.58565 -0.60526,-8.022429 -4.09918,-8.299447 -1.96019,-0.155416 -2.56812,0.0179 -4.40972,1.257209 -1.00914,0.679098 -2.02726,1.234718 -2.26251,1.234718 -0.23524,0 -0.89397,-0.49042 -1.46385,-1.089824 -2.12027,-2.230132 -4.44911,-2.686569 -6.53508,-1.280833 -2.5327,1.706787 -2.82181,4.677207 -0.81123,8.334997 0.701,1.27532 1.61381,2.74269 2.02847,3.26082 0.41466,0.51814 1.03553,1.3135 1.37972,1.76748 0.34419,0.45398 1.58779,1.81761 2.76356,3.03028 2.36722,2.44153 3.09965,2.65839 4.76586,1.41111 z m -16.78065,-9.3845 c -2.22737,-6.61183 1.47562,-13.941214 7.4434,-14.732868 1.19045,-0.15792 1.7112,-0.38906 1.7112,-0.759542 0,-0.292899 -0.18404,-2.298132 -0.40898,-4.456074 l -0.40898,-3.92353 -4.04204,-1.714293 c -2.26272,-0.95966 -4.14032,-1.56892 -4.26532,-1.384051 -0.12281,0.181632 -0.94915,1.272187 -1.83632,2.423454 -4.10438,5.326244 -6.70122,11.079339 -6.958697,15.416487 -0.21227,3.575437 0.444477,5.349957 2.745777,7.419027 1.51639,1.36337 6.34782,4.25342 6.63333,3.96791 0.0604,-0.0604 -0.21563,-1.07582 -0.61337,-2.25652 z m 172.64437,-8.482223 c 0.44534,-0.720576 -1.0762,-1.871996 -2.71832,-2.057088 -1.61798,-0.182369 -3.43258,0.495812 -3.43258,1.282873 0,0.599026 5.80741,1.330005 6.1509,0.774215 z m -8.97363,-2.154131 c -0.92926,-1.305029 -1.7481,-1.763171 -3.1513,-1.763171 -1.01014,0 -2.78665,1.23469 -2.37245,1.648884 0.30133,0.301337 3.86555,1.092945 5.10731,1.134328 l 1.17055,0.03901 z m -136.52448,-0.175672 c 0,-0.09701 -0.0794,-0.176388 -0.17639,-0.176388 -0.097,0 -0.17639,0.07937 -0.17639,0.176388 0,0.09701 0.0794,0.176389 0.17639,0.176389 0.097,0 0.17639,-0.07937 0.17639,-0.176389 z m 138.64166,-0.176388 c 0,-0.194028 -0.3175,-0.352778 -0.70556,-0.352778 -0.38805,0 -0.70555,0.15875 -0.70555,0.352778 0,0.194027 0.3175,0.352777 0.70555,0.352777 0.38806,0 0.70556,-0.15875 0.70556,-0.352777 z m -8.90764,-0.877726 c 1.03528,-0.297579 1.00188,-0.713501 -0.13512,-1.682246 -0.51088,-0.435279 -1.11396,-0.969269 -1.34017,-1.186643 -1.41373,-1.358502 -4.70485,-2.163381 -6.24218,-1.526596 -1.24364,0.515131 -1.3545,1.71571 -0.22364,2.421943 1.26411,0.78945 6.03872,2.470343 6.61819,2.329924 0.29104,-0.07053 0.88636,-0.230897 1.32292,-0.356382 z M 104.84767,92.9247 c 7.73305,-1.190231 16.72967,-4.062444 22.67493,-7.239074 8.67773,-4.636628 16.22012,-10.173517 22.65701,-16.632584 8.05145,-8.079178 12.4192,-14.04461 16.73954,-22.862699 0.90309,-1.843264 1.79353,-3.628873 1.97875,-3.968021 0.18523,-0.339148 0.95254,-2.164773 1.70513,-4.056945 4.9944,-12.556931 7.87322,-28.4972862 7.29667,-40.4025331 -0.91153,-18.8223499 -8.17014,-35.5356809 -21.16345,-48.7299649 -3.83352,-3.89282 -4.28544,-4.279368 -9.42404,-8.060915 -15.71718,-11.566431 -31.84107,-17.772183 -49.448423,-19.031682 -16.23682,-1.161461 -35.0821,3.634174 -48.29722,12.29039 -9.66606,6.331505 -18.0813,15.41146 -24.26493,26.181627 -1.77565,3.09268 -3.88591,7.643401 -3.88591,8.379857 0,0.289633 0.68128,1.987401 1.51394,3.772816 0.83267,1.785416 1.72618,3.960585 1.98557,4.83371 0.2594,0.873125 0.98609,3.095625 1.61488,4.938888 3.00138,8.7984811 5.43886,22.6535348 6.36525,36.181124 0.1758,2.567242 0.11758,3.280482 -0.2958,3.623555 -0.94746,0.786321 -2.54076,-0.252408 -4.23817,-2.763015 -2.80266,-4.145345 -3.82362,-5.761441 -4.82934,-7.644413 -0.63933,-1.196996 -1.51239,-2.6152565 -1.94012,-3.1516893 l -0.77771,-0.9753322 -0.61242,4.0336345 c -0.33683,2.218498 -1.01638,5.773638 -1.51012,7.90031 -0.89387,3.850184 -0.8951,3.878022 -0.28755,6.526389 2.39685,10.448154 7.97567,22.944802 14.12936,31.650025 1.8959,2.681993 3.54859,4.955725 3.67266,5.052739 0.12407,0.09701 1.64091,1.763889 3.37076,3.704167 1.72984,1.940277 3.36546,3.662334 3.6347,3.826792 0.26923,0.164459 0.96188,1.355084 1.5392,2.645834 1.1521,2.575805 2.30343,3.940288 5.23991,6.209989 9.12706,7.054607 24.70257,12.921975 37.92361,14.286006 4.12078,0.425145 12.459743,0.169566 16.933333,-0.518985 z M 87.561557,64.839872 c -4.56801,-0.575695 -10.58013,-2.684673 -15.64002,-5.486326 -10.43182,-5.776082 -19.74663,-17.348792 -24.25255,-30.131337 -1.23173,-3.494226 -2.87398,-10.63213 -3.3517,-14.56784 -0.9907,-8.16213 0.39895,-19.1686166 3.35455,-26.569032 1.55842,-3.902082 2.7996,-6.555326 3.41341,-7.296788 0.17814,-0.215191 1.1363,-1.661256 2.12925,-3.213478 3.44024,-5.37796 10.59563,-11.496604 17.46969,-14.938497 3.69302,-1.849123 10.42984,-4.083248 15.81904,-5.246047 3.71652,-0.801895 5.09468,-0.917081 11.28889,-0.943523 6.585713,-0.02811 7.313963,0.03471 10.936113,0.943466 5.99082,1.503027 8.12746,2.280117 12.66643,4.606741 4.21983,2.163036 5.50937,3.016837 9.91446,6.564308 7.1955,5.794628 13.36807,15.56366 16.17166,25.594106 1.72652,6.17696319 2.1337,9.1491035 2.12655,15.522221 -0.008,6.835983 -0.59224,11.002779 -2.25931,16.10447 -1.41602,4.333376 -5.17203,11.841481 -7.47389,14.939972 -4.56231,6.141259 -11.05013,11.016341 -18.84198,14.158269 -1.69353,0.682888 -4.00736,1.955855 -5.14183,2.828815 -8.10645,6.23777 -17.216853,8.530907 -28.328763,7.1305 z M 101.1584,60.325203 c 2.9472,-0.651869 8.09899,-2.686352 8.09899,-3.198354 0,-0.141855 -1.94468,-0.345742 -4.32152,-0.453083 -3.07455,-0.138849 -5.288583,-0.46076 -7.672923,-1.115609 -3.14474,-0.86369 -8.8588,-3.391759 -10.41614,-4.608407 -0.383,-0.299213 -1.97356,-1.472719 -3.53459,-2.60779 -4.15431,-3.020728 -7.6303,-7.117051 -10.5267,-12.405327 -3.89936,-7.119496 -5.1914,-17.093803 -3.22063,-24.862788 2.07571,-8.1827084 6.83497,-14.7314866 12.919,-17.7766395 3.43539,-1.7194634 6.01367,-2.2681164 9.64952,-2.0533944 5.48533,0.323946 9.038063,2.5372843 11.286353,7.0313469 1.06247,2.12376199 1.25152,2.8610084 1.25152,4.8806151 0,2.9612134 -0.62367,4.4978602 -2.75399,6.7854645 -2.016783,2.1656754 -3.159273,2.6774794 -6.632213,2.9710504 -3.38438,0.286085 -4.47385,1.085016 -5.28512,3.875705 -0.88624,3.048563 0.0304,7.194996 2.3293,10.536294 4.19382,6.095512 11.297953,8.782657 17.986473,6.803406 4.92445,-1.457233 9.56201,-5.08507 12.51809,-9.792561 4.90614,-7.812946 5.61613,-19.7933541 1.83032,-30.8850625 -2.3649,-6.9287165 -7.4012,-14.4101505 -12.83656,-19.0687375 -8.99821,-7.712278 -16.834963,-10.672116 -27.264633,-10.297501 -3.90373,0.140215 -5.3032,0.344686 -7.76111,1.133939 -3.9571,1.270657 -8.1518,3.363716 -10.96814,5.472854 -2.90754,2.177435 -7.512,6.965949 -9.46841,9.846896 -3.89092,5.729634 -6.9415,14.1592705 -7.78365,21.508507 -1.2247,10.687644 1.02321,22.75097 6.06838,32.565677 1.94288,3.779612 6.62861,10.487244 8.94234,12.800977 3.23883,3.238824 8.89391,7.369568 12.68031,9.262316 7.54223,3.770202 17.6441,5.25193 24.885733,3.650206 z m 10.67444,-7.93147 c 10.18345,-0.571842 21.30472,-7.775248 27.27849,-17.668667 4.80483,-7.957501 7.1368,-19.13319 6.1466,-29.4569419 -0.64195,-6.6930478 -2.13188,-12.29381 -4.88001,-18.3444431 -0.77104,-1.697609 -4.04703,-6.921454 -4.64593,-7.408333 -0.11934,-0.09701 -0.57653,-0.652639 -1.01598,-1.234722 -1.98093,-2.623889 -6.87874,-7.11833 -10.08062,-9.250403 -4.92633,-3.280362 -6.53581,-4.07557 -12.00149,-5.929673 -5.25461,-1.782503 -7.24912,-2.168182 -12.989703,-2.511836 -4.40401,-0.263641 -5.02705,0.186272 -1.48874,1.075066 2.073773,0.520914 6.795483,2.656103 10.572773,4.781076 5.82041,3.274367 13.43333,11.941898 17.52231,19.949658 1.61293,3.158723 3.97892,10.4706936 4.56604,14.11111049 0.25034,1.55222211 0.4428,5.04472181 0.4277,7.76111051 -0.0311,5.58799 -0.78127,9.132988 -3.1082,14.687368 -1.95689,4.671112 -7.56455,10.973516 -11.63998,13.082077 -4.47406,2.314811 -10.69575,3.328536 -14.69115,2.393686 -4.407003,-1.03116 -8.934713,-3.585598 -11.479263,-6.476361 -1.68075,-1.909428 -3.75024,-6.050769 -4.54472,-9.094618 -1.93329,-7.406883 2.05166,-14.0629854 8.4194,-14.0629854 3.36613,0 5.27163,-1.0369739 5.894153,-3.2076036 0.5522,-1.9253958 0.40188,-3.6286511 -0.499193,-5.65613831 -1.43187,-3.22184279 -4.03733,-4.54181259 -8.965,-4.54181259 -2.76899,0 -3.23344,0.1073693 -5.66797,1.3102978 -5.04523,2.49289289 -8.59325,6.8682543 -10.89014,13.4295521 -0.89332,2.551852 -0.95379,3.109931 -0.96383,8.896259 -0.0101,5.827811 0.0456,6.35096 0.995,9.339858 1.88414,5.931807 3.92509,9.259027 8.62696,14.063944 3.01047,3.076445 4.77112,4.355924 8.71177,6.33093 5.38098,2.696882 11.994893,4.287633 16.227773,3.90304 0.58209,-0.05289 2.45541,-0.17461 4.16295,-0.270495 z M -74.579163,88.703071 c 1.58213,-3.556467 1.5931,-3.523559 -1.30225,-3.907641 -2.09211,-0.277528 -1.99167,-0.49575 -1.4723,3.199076 0.51128,3.637323 0.73475,4.513547 1.06603,4.180006 0.16359,-0.164698 0.93242,-1.726846 1.70852,-3.471441 z m 127.52365,2.00985 c 0.28197,-0.456252 -1.12284,-3.269501 -2.42803,-4.86232 -1.49884,-1.829136 -3.49833,-2.902777 -5.91198,-3.174479 -2.40071,-0.270245 -3.38436,0.317731 -2.54244,1.519741 1.04474,1.491571 9.14648,6.747583 10.46551,6.789506 0.13407,0.0043 0.32169,-0.11834 0.41694,-0.272448 z m 3.56169,-1.501393 c -0.1139,-0.184292 -0.41124,-0.335077 -0.66076,-0.335077 -0.24952,0 -0.741,-0.3175 -1.09219,-0.705556 -0.35118,-0.388055 -0.76768,-0.705555 -0.92555,-0.705555 -0.42551,0 0.0487,1.123459 0.85041,2.014831 0.55183,0.613524 0.84405,0.70391 1.36842,0.423272 0.36672,-0.19626 0.57357,-0.507622 0.45967,-0.691915 z m -134.22099,-5.097577 c 0,-0.09701 -0.0794,-0.176389 -0.17639,-0.176389 -0.097,0 -0.17639,0.07937 -0.17639,0.176389 0,0.09701 0.0794,0.176389 0.17639,0.176389 0.097,0 0.17639,-0.07937 0.17639,-0.176389 z m 29.77989,-2.511945 c 1.43991,-0.702472 3.18662,-1.745905 3.88156,-2.318739 1.12344,-0.926031 1.2629,-1.224472 1.25774,-2.691527 -0.0165,-4.679758 -5.12812,-7.43863 -8.1617,-4.405046 -1.2648,1.264798 -1.52028,2.68456 -1.19208,6.624598 0.22071,2.64959 0.72498,4.067937 1.44627,4.067937 0.0826,0 1.32829,-0.57475 2.76821,-1.277223 z m 86.84873,0.21889 c 1.14614,0 1.19936,-0.05316 0.97125,-0.970139 -0.36251,-1.457242 -1.45765,-3.266104 -2.98108,-4.92388 -0.91973,-1.000847 -1.43827,-1.948798 -1.59204,-2.910416 -0.12543,-0.784366 -0.34055,-1.42612 -0.47805,-1.42612 -0.1375,0 -0.70636,-0.912813 -1.26412,-2.028472 -1.05408,-2.108401 -2.35645,-4.269432 -4.9717,-8.249526 -0.84584,-1.287273 -1.53789,-2.429042 -1.53789,-2.537264 0,-0.374714 -2.90208,-4.823626 -3.14651,-4.823626 -0.13502,0 -0.5409,0.674688 -0.90195,1.499306 -0.36106,0.824618 -1.02742,2.063963 -1.4808,2.7541 -0.78739,1.198555 -0.80103,1.325047 -0.30438,2.822222 0.70642,2.129494 0.85248,3.571869 0.43081,4.254206 -0.51429,0.832206 2.77465,5.086519 8.39049,10.853269 4.69975,4.826058 6.35383,6.176165 7.18355,5.863426 0.25841,-0.0974 1.01549,-0.177086 1.68242,-0.177086 z m -103.18354,-1.745678 c 3.44884,-1.067591 4.1938,-1.774859 4.1938,-3.981571 0,-5.57225 -6.33737,-7.996944 -8.34471,-3.192706 -0.652,1.560442 -1.6255,7.426653 -1.31566,7.927986 0.29355,0.474962 2.46419,0.175683 5.46657,-0.753709 z m 38.76396,-0.544889 c 0.65517,-0.78943 0.31328,-7.081243 -0.46467,-8.551378 -1.63294,-3.085877 -6.74563,-2.838691 -8.30365,0.401462 -0.61587,1.280807 -0.90517,3.44261 -0.61526,4.597673 0.3167,1.261862 2.42156,2.540101 5.5174,3.350605 3.23906,0.847999 3.32598,0.852532 3.86618,0.201638 z m -51.22328,-3.482894 c 0.78808,-0.788081 0.72251,-3.611037 -0.12417,-5.346045 -0.42488,-0.870663 -1.17818,-1.668062 -1.98279,-2.098884 -1.23491,-0.661222 -1.35742,-0.666248 -2.53634,-0.104056 -0.78832,0.375924 -2.08031,1.706406 -3.55311,3.658993 -2.28378,3.02774 -2.73648,4.118959 -1.87338,4.515681 0.24254,0.11148 2.48122,0.142538 4.97487,0.06902 3.54444,-0.104502 4.65632,-0.25611 5.09492,-0.694706 z m 69.7938495,-3.77773 c -0.53131,-2.656591 -2.42209,-6.674928 -3.6467395,-7.750186 -1.12998,-0.992138 -1.43155,-1.090418 -2.71656,-0.885328 -1.94828,0.310946 -2.9851,1.053567 -3.63524,2.603729 -1.21224,2.890365 -0.80148,5.470696 1.0266,6.449056 0.79109,0.423377 7.3522595,0.97214 8.5173795,0.712376 0.50627,-0.112872 0.60757,-0.364622 0.45456,-1.129647 z M -89.667093,71.195392 c 0.62203,-0.622021 0.71145,-1.012411 0.53193,-2.322143 -0.24491,-1.786836 -1.03821,-3.312404 -2.05152,-3.94523 -0.57796,-0.360943 -0.92847,-0.289009 -2.16377,0.444067 -1.9315,1.146232 -6.39254,5.680515 -6.08242,6.182292 0.15416,0.24943 1.81308,0.388741 4.62916,0.388741 4.00104,0 4.45498,-0.06608 5.13662,-0.747727 z M 3.6004565,64.688846 c 1.94028,-0.493811 3.66697,-1.036365 3.83709,-1.205675 0.55982,-0.557164 -0.11288,-1.917639 -1.91451,-3.871889 -2.3022,-2.497231 -3.38669,-3.185215 -5.02541996,-3.18806 -1.64174004,-0.0029 -2.84787004,1.077732 -3.39256004,3.039422 -0.91504,3.295537 0.12421,6.136637 2.24130004,6.127257 0.39948,-0.0018 2.31381996,-0.407245 4.25409996,-0.901055 z M -40.143983,62.292681 c 13.87544,-2.11851 27.13687,-7.001014 35.4541595,-13.05327 5.23367004,-3.808396 7.08529,-5.566158 7.99332,-7.58816 3.15028,-7.01507 7.3821105,-19.802573 6.55335,-19.802573 -0.15589,0 -0.58185,0.515938 -0.94658,1.146528 -3.59323,6.212412 -16.42408,19.643369 -18.3953,19.255657 -1.3388795,-0.263339 -1.3428695,-1.103969 -0.0275,-5.794393 2.44608,-8.722366 3.37125,-17.39001 2.72885,-25.56603 -0.7351,-9.3560872 -3.6921395,-23.292954 -7.1676995,-33.782238 -1.65157,-4.984443 -1.84849,-5.38727 -2.52661,-5.168557 -0.40449,0.13046 -1.71089,0.318292 -2.90311,0.417403 l -2.16766,0.180203 -1.49322,-1.538034 c -1.30177,-1.340839 -6.08578,-8.176858 -6.41631,-9.168469 -0.0657,-0.197218 -1.84632,1.330952 -3.95684,3.395933 -4.75931,4.656629 -10.27708,8.383421 -18.01774,12.169497 -5.04564,2.467901 -14.87427,6.766494 -18.16805,7.94588 -5.63249,2.016791 -16.35398,7.1074006 -21.88056,10.3889783 -1.93569,1.1493787 -3.51944,2.0334979 -3.51944,1.9647094 0,-0.068789 -0.43656,0.2484888 -0.97014,0.7050605 -0.53358,0.4565718 -1.34934,1.12828209 -1.8128,1.49268949 l -0.84266,0.662559 0.71725,1.91702721 c 2.25446,6.0255858 1.67706,14.0159881 -1.43816,19.9022531 -1.388807,2.624164 -5.408627,6.742948 -8.020217,8.217657 -2.26043,1.276413 -5.45457,2.191796 -7.64806,2.191796 -1.70971,0 -1.95226,0.332013 -2.39386,3.276829 -0.20481,1.365795 -0.11426,1.810626 0.56794,2.789988 5.05843,7.261841 14.27394,13.886495 25.192097,18.109567 7.04288,2.724145 17.19339,4.994405 25.92916,5.799313 5.07912,0.467986 21.40282,0.169418 25.57639,-0.467804 z m -1.91891,-19.311955 c -4.31561,-0.550987 -8.83215,-2.251918 -12.30899,-4.635568 -3.7853,-2.595128 -8.19456,-8.298246 -10.05669,-13.007729 -2.14141,-5.415805 -2.54841,-13.787375 -0.96506,-19.8499318 3.53608,-13.5394061 15.76059,-21.7711102 30.18769,-20.3277052 l 1.76304,0.176389 1.04812,-1.940277 c 0.57646,-1.067153 1.55927,-3.200398 2.18402,-4.740544 1.71893,-4.237551 2.55662,-4.863099 4.48309,-3.34774 1.52248,1.197581 1.17784,3.32033 -1.40173,8.633719 -0.85212,1.755198 -1.54931,3.298934 -1.54931,3.430524 0,0.13159 0.46321,0.478786 1.02934,0.771547 l 1.02934,0.532292 1.73737,-2.375316 c 0.95554,-1.306424 2.3334,-3.288128 3.0619,-4.403788 1.10965,-1.699369 1.49069,-2.028472 2.34858,-2.028472 1.37935,0 2.43514,1.121782 2.43514,2.587349 0,1.25246 -1.56652,3.762862 -4.47307,7.168233 -0.85347,0.9999461 -1.41097,1.8730711 -1.2389,1.9402781 0.95149,0.371613 4.8824,5.4677204 6.2122,8.05361079 4.90621,9.54044011 4.81596,19.74602611 -0.26053,29.46302511 -2.09131,4.003026 -7.07269,8.985524 -11.01938,11.021871 -4.74069,2.446014 -9.7324,3.454519 -14.24617,2.878233 z m 5.61587,-5.345243 c 2.13556,-1.091221 3.00581,-2.383377 3.00581,-4.463053 0,-2.9628 -2.94232,-5.651608 -6.20631,-5.67156 -2.96101,-0.0181 -5.9457,2.823336 -5.95871,5.672721 -0.0121,2.641475 3.05581,5.255641 6.1678,5.255641 0.79581,0 2.13173,-0.354479 2.99141,-0.793749 z m 12.40748,-7.701312 c 0.97754,-0.52316 1.74992,-2.510186 1.48692,-3.825208 -0.59296,-2.964816 -4.16098,-3.979207 -6.21428,-1.766725 -1.62912,1.75542 -1.18509,4.951704 0.79375,5.71365 0.90492,0.348438 3.18707,0.277822 3.93361,-0.121717 z m -25.45287,-3.587576 c 2.63913,-1.801444 3.19286,-5.313166 1.24125,-7.871865 -1.71312,-2.246019 -4.13548,-2.810998 -6.70955,-1.564909 -3.68004,1.781478 -4.00085,7.134528 -0.56513,9.429742 1.64847,1.101247 4.42565,1.104484 6.03343,0.007 z m 22.66579,-10.902041 c 1.28622,-1.520048 0.17365,-3.82643 -1.84582,-3.82643 -1.94628,0 -2.85542,2.795285 -1.38681,4.263904 0.87828,0.878271 2.27977,0.688605 3.23263,-0.437474 z m -6.43844,-4.261198 c 2.61492,-1.3143941 4.59766,-3.6119886 5.30875,-6.1517647 0.53985,-1.9281672 0.27279,-5.58842061 -0.51954,-7.1206202 -0.96251,-1.8612789 -3.02536,-3.9174109 -4.94297,-4.9268524 -1.53104,-0.8059524 -2.21849,-0.9405536 -4.81121,-0.9420276 -2.67139,-0.0015 -3.26807,0.1226244 -5.10521,1.0621729 -2.30726,1.1799773 -4.38275,3.5622946 -5.05328,5.8003236 -0.50575,1.68803639 -0.4695,5.1434793 0.0693,6.6048566 0.65593,1.7790779 2.54712,4.2290429 4.00987,5.1946368 1.86007,1.22787 4.85868,1.999748 6.98736,1.798633 1.00074,-0.09455 2.75566,-0.665267 4.05694,-1.319358 z m -54.31089,18.318864 c -2.97503,-0.948425 -5.44938,-5.426937 -4.11961,-7.456415 0.30602,-0.467044 0.8859,-0.953751 1.28862,-1.08157 0.95137,-0.301952 2.38564,0.638802 2.85465,1.872386 0.62997,1.65694 1.36028,2.187057 3.01299,2.187057 1.67171,0 2.49871,-0.58518 3.4634,-2.450683 0.45548,-0.880805 0.77576,-1.077095 1.75745,-1.077095 2.26397,0 3.12796,1.84341 2.02871,4.328443 -1.49165,3.372137 -6.08898,5.01593 -10.28621,3.677877 z m 103.85125,25.95915 c 1.34435,-0.345385 2.49989,-0.800531 2.56786,-1.011435 0.14131,-0.438442 -3.96216,-4.553522 -5.44079,-5.456201 -1.79747,-1.097314 -2.76329,-1.128126 -3.9540805,-0.126143 -1.02658,0.86381 -1.08533,1.050534 -1.08533,3.449227 0,1.784645 0.17227,2.781935 0.58148,3.366157 0.53531,0.764263 0.75239,0.813354 2.7340305,0.618273 1.1839,-0.116548 3.25247,-0.494493 4.59683,-0.839878 z m 2.92749,-8.300888 c -0.18404,-2.375992 -1.30551,-6.119994 -4.17398,-13.934721 -0.70703,-1.926198 -1.37419,-2.844813 -1.37419,-1.892133 0,0.172 -0.71437,1.831232 -1.5875,3.687182 -0.87312,1.85595 -1.5875,3.513174 -1.5875,3.682722 0,0.169547 0.41407,0.693128 0.92014,1.163512 0.50608,0.470384 1.64789,1.887119 2.53737,3.148299 2.15001,3.048496 5.02144,6.702777 5.26684,6.702777 0.10832,0 0.10779,-1.150937 -10e-4,-2.557638 z M -127.0489,26.787567 c 2.9492,-15.772217 12.45099,-30.3643937 27.737347,-42.59703 7.02589,-5.622347 13.8663,-10.014807 15.39863,-9.887987 1.26226,0.104468 0.91454,0.81876 -0.35906,0.737579 -0.56516,-0.03602 -0.73809,0.01755 -0.38429,0.11905 0.3583,0.102794 0.56243,0.395199 0.46079,0.660066 -0.10036,0.261536 0.003,0.537423 0.23022,0.613084 0.60364,0.201212 0.34047,2.477385 -0.34583,2.99118 -1.17128,0.876869 -0.18819,0.756657 1.85526,-0.22686 16.59756,-7.988462 32.72306,-14.850744 34.89737,-14.850744 2.68414,0 8.22508,-3.040392 13.25894,-7.275357 2.20756,-1.857214 2.79844,-2.957683 2.79887,-5.212701 3.5e-4,-1.832017 1.61425,-5.287051 3.20971,-6.871334 0.65985,-0.655236 2.20372,-1.66791 3.43082,-2.250386 1.97422,-0.937118 2.50256,-1.039625 4.58893,-0.890346 2.6465,0.189356 4.04791,0.795628 6.07744,2.629182 1.32492,1.196984 1.5181,1.258265 4.12406,1.30824 2.3012195,0.04413 3.0302295,0.215681 4.6050095,1.083639 2.24029,1.234755 3.93619,3.033862 5.24119004,5.560148 0.79144,1.532106 0.96587,2.337089 0.97786,4.512617 0.0122,2.220832 -0.14955,2.983348 -1.00315,4.728037 -1.36438004,2.788695 -4.42068004,5.741583 -7.47595004,7.22301 -1.33823,0.648873 -2.4724895,1.214327 -2.5205795,1.256565 -0.0481,0.04224 0.3135695,1.254533 0.8036895,2.69399 3.04476,8.942335 5.03845,17.3544191 6.16521,26.013151 0.38679,2.9723598 0.70326,5.6314221 0.70326,5.9090273 0,0.2776053 0.13986,0.5047368 0.3108,0.5047368 0.17093,0 0.52266,-1.3045945 0.7816,-2.8990989 0.43702,-2.69110011 0.49154004,-2.81132451 0.75989004,-1.67569431 0.159,0.67287251 0.40369,4.31902941 0.54375,8.10257071 l 0.25467,6.8791664 2.20256996,-3.351389 C 8.7480565,2.4821976 13.026817,-9.8234779 13.601387,-20.236181 l 0.22962,-4.161251 1.18423,0.875303 c 0.65132,0.481416 1.96101,1.610764 2.91041,2.509662 0.94941,0.898897 1.7262,1.556786 1.7262,1.461974 0,-0.09481 -0.49358,-1.574097 -1.09684,-3.2873 -1.44256,-4.096725 -5.95502,-13.145777 -8.8036805,-17.654462 -5.30033,-8.389017 -14.8446,-19.065001 -21.8494795,-24.440265 -3.40147,-2.61015 -10.6114,-7.499985 -10.7921,-7.319287 -0.0544,0.05436 2.431,3.424923 5.52302,7.490138 3.09202,4.065214 5.62186,7.523959 5.62186,7.686099 0,0.16214 -0.67469,-0.118589 -1.49931,-0.623842 -0.82462,-0.505254 -2.4518,-1.407784 -3.61597,-2.005621 -1.16417,-0.597838 -4.81542,-2.95322 -8.11389,-5.234182 -4.89456,-3.38469 -9.80488,-6.345433 -10.52376,-6.345433 -0.0753,0 -0.25059,2.262188 -0.38949,5.027083 -0.42637,8.486541 -1.54834,19.929216 -2.17206,22.152141 -1.01749,3.626308 -4.13153,6.484246 -7.8811,7.232956 -2.56247,0.51167 -5.19682,0.06696 -7.44071,-1.256093 -2.08398,-1.228755 -3.10419,-2.314503 -4.47032,-4.757478 -0.89387,-1.598462 -0.98419,-2.078199 -0.96304,-5.115277 0.0142,-2.032426 0.45954,-5.919896 1.13168,-9.877777 1.01798,-5.994403 2.19353,-15.329033 2.19353,-17.418169 0,-0.783657 -0.32953,-0.977874 -3.388,-1.996802 -4.14572,-1.38115 -16.72034,-4.548684 -16.72034,-4.211839 0,0.651147 5.68883,6.607703 9.57162,10.022079 2.39971,2.110209 4.89944,4.378685 5.55495,5.041058 l 1.19185,1.204315 -1.36824,-0.289071 c -0.75253,-0.158989 -3.98761,-0.283549 -7.18907,-0.276801 -5.19816,0.01096 -6.4245,0.137706 -11.46409,1.184879 -3.10379,0.644936 -6.59629,1.460625 -7.76111,1.812642 -1.16482,0.352018 -4.90657,1.360459 -8.31501,2.240981 -7.735067,1.998248 -12.128357,3.567375 -17.482657,6.244183 -3.81526,1.907388 -4.04777,2.077037 -2.60212,1.898617 1.29887,-0.160304 5.39622,-1.100247 12.34722,-2.832484 0.48507,-0.120883 -0.31302,0.478802 -1.77354,1.332633 -7.85524,4.592244 -18.75382,12.645183 -20.29324,14.994626 -0.49775,0.759669 -0.47585,0.835847 0.34829,1.211349 0.7988,0.363957 1.08277,0.231039 3.09688,-1.449573 6.79718,-5.671682 14.00482,-10.571955 19.89405,-13.525418 8.128537,-4.076477 19.188667,-8.120424 19.188667,-7.016009 0,0.140567 -4.32594,2.423452 -9.61319,5.073078 -11.939037,5.983062 -18.398337,10.037153 -27.075697,16.9937 -4.18989,3.358992 -10.02607,8.659103 -9.7923,8.892864 0.35503,0.355039 6.95495,-1.627369 12.8653,-3.864333 2.36924,-0.896718 4.78117,-1.630396 5.35985,-1.630396 2.05307,0 2.53904,2.43963 0.85635,4.298982 -0.838,0.925981 -4.05259,2.856744 -9.28833,5.578795 l -4.41059,2.293055 -1.3146,2.645834 c -3.25721,6.555597 -5.8276,15.1112773 -6.63581,22.0876648 -0.65875,5.6863201 -0.5816,17.1089472 0.14747,21.8331642 0.58402,3.784333 2.15286,10.541943 2.61763,11.275224 0.12775,0.201543 0.43429,-0.824183 0.6812,-2.279391 0.24691,-1.455208 0.7903,-4.471458 1.20752,-6.702777 z m 43.689637,-50.27083 c 0,-0.09701 0.0794,-0.176388 0.17639,-0.176388 0.097,0 0.17639,0.07937 0.17639,0.176388 0,0.09701 -0.0794,0.176389 -0.17639,0.176389 -0.097,0 -0.17639,-0.07937 -0.17639,-0.176389 z m 3.88056,-5.644444 c 0,-0.09701 0.0794,-0.176388 0.17639,-0.176388 0.097,0 0.17639,0.07937 0.17639,0.176388 0,0.09701 -0.0794,0.176389 -0.17639,0.176389 -0.097,0 -0.17639,-0.07937 -0.17639,-0.176389 z m 68.0861,-27.516664 c 0,-0.09701 0.0794,-0.176389 0.17639,-0.176389 0.097,0 0.17639,0.07938 0.17639,0.176389 0,0.09701 -0.0794,0.176389 -0.17639,0.176389 -0.097,0 -0.17639,-0.07937 -0.17639,-0.176389 z M -111.92693,27.312946 c 1.09498,-0.566239 1.75656,-1.889546 1.75656,-3.513522 0,-2.062732 -2.55405,-4.299192 -3.38123,-2.960783 -0.47335,0.765891 -2.18049,6.832544 -2.00556,7.127135 0.22011,0.370661 2.41393,-0.02386 3.63023,-0.65283 z m 9.34209,-6.296618 c 0.71293,-0.712932 0.65597,-3.049 -0.0968,-3.971504 -1.25031,-1.532143 -4.01064,-1.391582 -4.85818,0.247388 -0.70761,1.368354 -0.64338,2.53274 0.19875,3.603332 1.07039,1.36078 3.4557,1.421354 4.75627,0.120784 z M -142.4869,4.6494407 c 2.92511,-7.3298391 7.75755,-15.5813667 12.86017,-21.9590927 1.62997,-2.037291 3.14227,-3.932327 3.36067,-4.211189 0.32545,-0.415559 0.27106,-0.45966 -0.30155,-0.244469 -0.38424,0.144404 -1.95346,0.44001 -3.48714,0.656901 l -2.78851,0.394347 -1.39401,2.143177 c -3.35584,5.159372 -6.66294,13.258873 -8.36527,20.4876205 -0.41123,1.7462499 -0.83355,3.4528122 -0.93848,3.7923608 -0.42025,1.3598978 0.4294,0.5057856 1.05412,-1.0596556 z M -15.291363,-34.103288 c 3.1779,-0.967686 6.5863995,-2.750567 8.2332295,-4.306535 1.18875,-1.123166 2.17328,-4.230302 1.86355,-5.881286 -0.27375,-1.459248 -1.3445,-2.848253 -2.75985,-3.580157 -1.36416,-0.705438 -3.5833295,-0.493379 -5.5468095,0.530042 -0.79247,0.413061 -1.56959,0.751019 -1.72693,0.751019 -0.15734,0 -0.48505,-0.674688 -0.72823,-1.499306 -0.70679,-2.396654 -2.74183,-4.145138 -4.82449,-4.145138 -1.49065,0 -3.8444,1.569027 -4.53411,3.022475 -0.67791,1.428588 -0.77079,3.988068 -0.21907,6.036986 0.40006,1.485709 4.76321,9.28796 5.43166,9.712981 0.7013,0.445903 1.66163,0.317938 4.81105,-0.641081 z m 35.72419,-5.697956 c 3.48031,-7.194456 8.41226,-13.846483 14.97775,-20.20142 9.14525,-8.851975 17.93795,-14.197831 29.82386,-18.132561 10.29913,-3.409437 19.27723,-4.675512 30.71818,-4.331821 11.413513,0.342867 19.198033,1.971635 30.767273,6.437486 4.22812,1.632099 7.76557,3.446442 17.4625,8.956455 5.96718,3.390682 17.31393,13.903695 22.61428,20.952615 1.72617,2.295634 3.1385,4.319697 3.1385,4.497916 0,0.178219 0.14824,0.324035 0.32943,0.324035 0.44392,0 -1.59648,-5.907308 -3.83827,-11.112499 -3.53541,-8.208833 -7.85698,-16.142443 -12.14806,-22.30159 -1.38113,-1.982403 -2.82866,-4.095532 -3.21671,-4.695842 -1.67057,-2.584322 -9.23481,-10.943988 -13.09413,-14.471068 -1.38891,-1.269336 -5.91216,-4.866406 -7.74167,-6.156492 -0.55032,-0.38806 -1.70513,-1.23708 -2.56625,-1.88673 -3.85574,-2.90885 -13.5556,-8.07337 -20.30978,-10.81357 -9.226113,-3.74309 -15.897523,-5.54567 -26.314563,-7.11009 -5.91249,-0.88793 -22.3482,-0.89455 -28.92777,-0.0117 -13.8095,1.85308 -25.73725,5.6003 -38.62916,12.13573 -8.9572605,4.5408 -19.3721305,12.245818 -26.68352,19.740712 -2.95788,3.032123 -8.77065,9.91848 -8.77065,10.390547 0,0.163529 0.80241,0.703938 1.78314,1.200908 2.58971,1.312308 8.33659,5.124846 11.3271795,7.514571 5.70804,4.561191 14.49042,13.718742 18.83495,19.639564 0.5694905,0.776111 1.1343605,1.490486 1.2552705,1.5875 0.5111,0.410111 6.21644,9.151629 6.63931,10.172527 0.25433,0.613998 0.56222,1.115456 0.6842,1.11435 0.12198,-0.0011 0.9701,-1.548918 1.88471,-3.439583 z m -65.69356,-3.910994 c 0.55142,-0.551424 1.17077,-1.627156 1.37632,-2.390517 0.92509,-3.435518 1.9705,-19.465692 2.3378,-35.847527 l 0.20354,-9.078134 -3.50288,0.0823 -3.50288,0.0823 -0.23192,4.938889 c -0.55132,11.740296 -1.45157,20.735725 -3.24228,32.397042 -1.04567,6.809536 -0.95852,7.952609 0.73548,9.646611 1.02522,1.025221 1.39983,1.171621 2.99793,1.171621 1.53629,0 1.98551,-0.159209 2.82889,-1.002588 z m -48.0645,-23.03291 c 0.82462,-0.21446 1.49931,-0.509359 1.49931,-0.655332 0,-1.410834 -4.87229,-14.880166 -7.04303,-19.470314 l -1.11465,-2.356981 -2.535737,1.214701 c -1.39466,0.668085 -2.59178,1.380899 -2.66027,1.584031 -0.0685,0.203132 0.83567,2.939658 2.00925,6.081169 1.17358,3.141511 2.7111,7.616838 3.416707,9.945171 0.70561,2.328333 1.34218,4.426307 1.4146,4.662165 0.10083,0.328413 0.52775,0.306652 1.82309,-0.09293 0.93029,-0.286967 2.36611,-0.697225 3.19073,-0.911685 z m -12.788187,-27.464257 c 2.86427,-1.253036 4.58915,-3.561719 5.15834,-6.904235 0.56217,-3.30135 -0.15024,-5.87151 -2.26567,-8.17382 -2.40258,-2.61483 -5.34525,-3.40618 -8.92745,-2.4008 -2.43868,0.68445 -5.47181,3.16398 -6.27026,5.12584 -0.89427,2.19728 -1.0627,5.04517 -0.41393,6.998456 0.88836,2.674591 3.40131,5.188107 5.8398,5.841116 2.24826,0.602066 4.80391,0.421307 6.87917,-0.486557 z m 63.820597,-4.966399 c 5.798,-2.895656 7.29992,-11.095946 2.93955,-16.049586 -1.14663,-1.30264 -2.87428,-2.58702 -3.78932,-2.81708 -0.097,-0.0244 -0.57327,-0.20932 -1.05834,-0.41095 -1.04327,-0.43366 -4.11469,-0.0811 -6.66064,0.76451 -1.87087,0.6214 -4.39372,2.97026 -5.51109,5.13101 -0.90019,1.74078 -1.07107,4.80848 -0.397,7.12718 0.88585,3.04722 3.79613,6.001356 6.92201,7.026316 1.6701,0.547616 5.74734,0.1313 7.55483,-0.7714 z"
       id="path8" /></g></svg>
