<?xml version="1.0" encoding="UTF-8" standalone="no"?>
<!-- Created with Inkscape (http://www.inkscape.org/) -->

<svg
   width="313.24164mm"
   height="304.7532mm"
   viewBox="0 0 313.24166 304.75317"
   version="1.1"
   id="svg1"
   xml:space="preserve"
   xmlns="http://www.w3.org/2000/svg"
   xmlns:svg="http://www.w3.org/2000/svg"><defs
     id="defs1"><clipPath
       clipPathUnits="userSpaceOnUse"
       id="clipPath6"><path
         id="path7"
         style="fill:#ff0000;fill-opacity:1;fill-rule:nonzero;stroke:none;stroke-width:0.264583"
         d="M -175.07778,-16.057127 V 287.55793 H 124.54631 V -16.057127 Z m 132.7459,202.572647 c 0.210643,0.005 0.427212,0.0169 0.650089,0.0367 2.23823,0.19855 4.475655,0.4031 6.717938,0.55346 1.973313,0.11308 0.986628,0.0436 2.958475,0.20825 3.181295,0.26563 4.740125,1.85116 4.950601,3.46956 4.949923,1.63749 3.796379,7.35609 -2.592089,6.81354 -3.228716,-0.27422 -1.569593,-0.1301 -4.979024,-0.43357 -4.228209,-0.39317 -8.460616,-0.76265 -12.666927,-1.35341 -6.647387,-0.93358 -5.930551,-7.21034 0.03204,-7.20421 0.04685,5e-5 0.0972,0.004 0.144695,0.005 0.687229,-1.21692 2.304132,-2.15435 4.784204,-2.09548 z" /></clipPath><clipPath
       clipPathUnits="userSpaceOnUse"
       id="clipPath76"><path
         id="path77"
         style="fill:#ff0000;fill-opacity:1;fill-rule:nonzero;stroke:none;stroke-width:0.264583"
         d="M -133.83107,-122.52355 V 173.82063 H 122.97289 V -122.52355 Z M 13.574404,98.948202 c 2.788179,0.0507 4.135003,2.063798 3.398242,4.077268 0.199805,0.45372 0.374906,0.96736 0.517797,1.54461 1.07913,4.35948 0.671079,8.891 0.311608,13.31495 -0.351859,3.06036 -0.147137,1.57974 -0.604097,4.44366 -0.359666,2.25418 -1.333846,3.66838 -2.455664,4.32532 0.105138,0.36595 0.224724,0.72888 0.324528,1.09554 0.6273,2.23652 0.575201,4.47401 0.39429,6.75514 -0.137303,1.73129 -0.688065,2.99533 -1.427303,3.82199 -0.112477,0.41601 -0.170275,0.80219 -0.311092,1.25212 -0.184975,0.59102 -0.413327,1.1061 -0.670242,1.55856 0.741137,-0.23134 1.446982,-0.38145 2.064991,-0.37517 4.085002,0.0415 5.222724,4.75435 -0.02223,7.27138 -4.46677,2.14368 -9.303523,3.34693 -14.11903492,4.40955 -4.40876268,0.85156 -8.89238128,1.33053 -13.38264308,1.19269 -5.804014,-0.17807 -6.736297,-5.00293 -3.065447,-6.67298 -2.072987,-0.65744 -4.042852,-1.62261 -4.128947,-3.14709 -0.02802,-0.49633 0.0026,-0.90355 0.0341,-1.30897 -1.976731,-0.003 -3.95339,2.4e-4 -5.930386,0.003 -0.814031,0 -1.53062,-0.0962 -2.159559,-0.26149 -0.376306,0.19492 -0.742394,0.40783 -1.120862,0.59893 -6.391272,3.22657 -9.625245,-3.24074 -3.234428,-6.46886 1.833438,-0.92611 3.62694,-1.92211 5.414142,-2.92954 -0.877003,-3.87058 -1.368747,-7.83436 -1.323951,-11.80858 0.01651,-1.46304 0.376836,-2.54918 0.864547,-3.41426 -1.247357,-1.79999 -0.223805,-4.63069 3.842661,-5.68855 3.11826,-0.81116 6.282901,-1.39515 9.473837,-1.82211 -1.259816,-0.12657 -2.516182,-0.30233 -3.764627,-0.50177 -1.477002,-0.21985 -2.935575,-0.54305 -4.407482,-0.7891 -1.14214,-0.22954 -0.588502,-0.12004 -1.660882,-0.3297 -3.350244,-0.65501 -4.783278,-2.61088 -4.608504,-4.32997 -0.200179,-1.7721 1.333365,-3.52972 4.663799,-3.59461 v -5.3e-4 c 0.20954,-0.004 0.426035,-0.002 0.649571,0.008 1.77111,0.0772 3.528708,0.28204 5.26428,0.64027 1.655035,0.33225 3.314115,0.6481 4.955251,1.04439 1.244759,0.34858 2.51628,0.54538 3.7997689,0.6723 0.025956,0.002 0.052073,0.002 0.078034,0.004 0.4990888,-0.0371 0.9984105,-0.0743 1.4965495,-0.11317 1.346872,-0.12588 2.6913231,-0.25136 4.0457464,-0.24236 1.1278499,-0.0444 2.2567291,-0.10772 3.37498791,-0.26872 0.75719517,-0.11591 1.51142439,-0.25483 2.25722659,-0.4284 0.3616431,-0.12394 0.7240561,-0.24538 1.083138,-0.37775 0.3360393,-0.12388 0.6107589,-0.12825 0.9250071,-0.20723 0.1281086,-0.045 0.2583895,-0.0825 0.3855085,-0.13074 1.9825018,-0.7681 3.9540551,-1.56464 5.9510551,-2.29443 1.050809,-0.383992 1.999634,-0.542639 2.826703,-0.527616 z M 0.70283723,110.39557 c -0.45566013,0.0949 -0.90775367,0.208 -1.36890919,0.2744 -1.16638124,0.15534 -2.34111274,0.24237 -3.51761424,0.26251 0.4031694,0.0896 0.8047355,0.18876 1.2025101,0.308 0.1014836,0.0304 0.1982549,0.075 0.2986907,0.10852 0.4205235,-0.21824 0.9206601,-0.35072 1.4898318,-0.37156 0.39885139,-0.0146 0.83259872,0.0278 1.29449508,0.13023 0.22468681,-0.12213 0.44967525,-0.24374 0.67437529,-0.36587 -0.0326284,-0.11319 -0.058211,-0.22834 -0.0733795,-0.34623 z m 10.24433577,1.02474 c -0.76023,0.21437 -1.5189569,0.4343 -2.2696301,0.68006 -0.031261,0.62207 -0.2256075,1.28373 -0.6464723,1.94355 0.6236891,0.43248 1.2549743,1.04482 1.8634525,1.86862 0.2674939,0.36214 0.4748849,0.75712 0.7188199,1.13223 0.154519,-1.86707 0.314174,-3.74736 0.33383,-5.62446 z m 64.566086,3.39773 c 1.50346,0.0187 3.129182,1.24994 3.928441,4.04678 0.257931,0.90255 0.823497,1.65871 1.488797,2.30735 0.856321,0.95375 1.845738,1.76777 2.801898,2.61638 1.458581,1.46408 2.789203,3.04608 4.169772,4.58215 1.315059,1.44746 2.571226,2.91698 3.543967,4.61884 0.0053,0.01 0.0082,0.0206 0.01344,0.0305 0.734605,-0.43313 1.446276,-0.65634 2.094962,-0.69195 3.016182,-0.16561 4.69137,3.55377 1.187525,7.32306 -1.69471,1.82311 -3.657862,3.33908 -5.68751,4.7651 -0.777873,0.49914 -1.607691,0.90075 -2.418456,1.33842 0.165478,1.44344 -0.672182,3.24303 -2.956409,4.73096 -1.354556,0.88234 -2.690448,1.79306 -4.075203,2.6288 -2.075008,1.20078 -4.233777,2.27962 -6.540687,2.96259 -2.077586,0.62971 -4.169056,1.29987 -6.359301,1.36374 -1.872114,0.0897 -3.746989,0.0368 -5.620845,0.0501 h -5.1108 -5.524728 c -7.160125,0 -7.160125,-7.23315 0,-7.23315 h 1.347722 c 0.29438,-0.0541 0.5212,-0.1588 0.84801,-0.18656 1.106628,-0.094 2.200932,-0.28334 3.292822,-0.48421 0.456121,-0.98163 1.356053,-1.98213 2.807581,-2.83962 1.078018,-0.63685 2.158119,-1.26923 3.212209,-1.94561 1.962647,-1.29302 3.840588,-2.72135 5.893696,-3.86902 1.367169,-0.76424 2.559646,-1.07097 3.526915,-1.04128 2.216811,0.068 3.246223,1.90266 2.479953,4.04059 1.105688,-0.48686 2.206929,-0.98346 3.283003,-1.53739 2.619811,-1.23728 5.288743,-2.38548 7.764385,-3.9026 0.246153,-0.17184 0.487463,-0.34958 0.730705,-0.52503 -0.126915,-0.50614 -0.277693,-0.9939 -0.512114,-1.46554 -0.647621,-1.25778 -1.721077,-2.20654 -2.600875,-3.29644 -1.199229,-1.33472 -2.369312,-2.69496 -3.592029,-4.00803 -1.098706,-0.97599 -2.227236,-1.92181 -3.215306,-3.01428 -1.300821,-1.39063 -2.459913,-2.93896 -3.045293,-4.77801 -1.289469,-4.05101 0.646382,-6.61405 2.843754,-6.58667 z m -95.086705,4.28035 c -0.465643,0.10748 -0.930899,0.21773 -1.394745,0.33435 0.171958,0.64334 0.283575,1.36624 0.279569,2.2071 -0.01267,2.6582 0.205063,5.32647 0.670242,7.94732 0.280107,-0.17087 0.565767,-0.33222 0.845429,-0.50385 -0.01897,-0.36223 -0.02445,-0.73164 -0.05529,-1.08985 -0.118034,-2.96491 -0.160888,-5.93314 -0.3452,-8.89507 z m 18.5141159,1.1958 c 0.00497,0.0773 0.00619,0.15612 0.014975,0.23202 -0.1238779,0.22787 -0.2588048,0.44752 -0.3937741,0.66715 0.58900751,0.0447 1.13203305,0.21413 1.64331124,0.45888 -0.37615284,-0.49255 -0.78353709,-0.94642 -1.26452314,-1.35805 z m -6.5422357,14.57068 c -0.046649,0.0755 -0.09888,0.14702 -0.1436608,0.22376 -0.03147,0.054 0.1963367,0.0838 0.1860365,0.0222 -0.017595,-0.10481 -0.026035,-0.14905 -0.042376,-0.24597 z m 13.9236979,6.08439 c -0.2236258,0.5643 -0.5677508,1.09664 -1.1782213,1.50533 0.9079653,0.17659 1.7077452,0.44257 2.2830631,0.84852 0.1405493,-0.0459 0.272804,-0.11448 0.4128956,-0.16174 -0.7336976,-0.43656 -1.2984269,-1.18703 -1.5177374,-2.19211 z" /></clipPath></defs><g
     id="layer1"
     transform="translate(77.188831,110.20812)"><path
       style="fill:#000000"
       d="m 6.8112553,194.35609 c -0.48507,-0.0811 -1.83444,-0.45665 -2.99861,-0.83454 -8.65769,-2.8103 -15.6386103,-11.70166 -17.8495603,-22.7344 -0.7721,-3.85279 -0.59402,-12.21139 0.35702,-16.75695 1.50473,-7.19204 4.8685103,-15.42923 8.9547303,-21.92825 1.30031,-2.06812 2.3642,-3.83239 2.3642,-3.9206 0,-0.0882 -2.73844,-0.24581 -6.08541,-0.35021 -8.6867003,-0.27094 -13.7514803,-1.67505 -19.2608903,-5.3397 -2.14798,-1.42875 -5.88635,-5.0063 -8.25662,-7.90142 l -0.95281,-1.1638 -3.09505,1.69591 c -7.02652,3.85014 -16.34916,7.86363 -18.26584,7.86363 -0.46269,0 -1.26285,-0.36264 -1.77815,-0.80588 -1.21562,-1.04564 -1.23655,-2.71712 -0.0632,-5.04526 1.4528,-2.88251 3.39712,-8.41509 4.30026,-12.23647 1.27495,-5.394568 1.72309,-9.943218 1.49766,-15.201138 -0.19844,-4.628252 -0.20122,-4.640384 -1.95172,-8.515411 -3.27907,-7.258808 -6.14654,-17.02797 -7.35709,-25.064854 -0.79284,-5.263698 -0.89689,-20.443045 -0.17398,-25.382364 0.88614,-6.054621 2.47637,-13.881054 3.21539,-15.824827 0.19491,-0.512664 0.23467,-0.932116 0.0883,-0.932116 -0.14632,0 -1.29333,1.039027 -2.5489,2.308949 -3.91266,3.957366 -6.87223,5.475991 -8.96654,4.600935 -2.03581,-0.850615 -2.22808,-2.057351 -1.12778,-7.078121 3.09401,-14.11827607 10.38278,-30.818807 18.38464,-42.124163 1.28488,-1.815322 2.28904,-3.333044 2.23148,-3.372715 -0.0576,-0.03967 -2.32717,-0.253923 -5.04356,-0.476115 -5.95934,-0.487456 -10.41731,-1.620853 -14.87067,-3.780724 -4.36667,-2.117831 -5.59965,-4.128665 -4.19596,-6.843092 0.55792,-1.078909 0.65006,-1.121394 6.41889,-2.95979 4.45346,-1.41922 9.93734,-4.036178 13.97066,-6.666937 l 2.73403,-1.783286 v -5.564911 c 0,-8.318221 1.55416,-16.187877 4.25609,-21.551129 2.49491,-4.952329 5.19487,-5.097819 11.85488,-0.63881 3.22017,2.155971 8.14671,5.925419 10.18064,7.789531 1.40316,1.286002 1.4312,1.294301 2.26016,0.669016 l 0.83937,-0.633138 -0.89233,-1.544274 c -0.49079,-0.849351 -2.66642,-4.560524 -4.83475,-8.247051 -6.95889,-11.831323 -10.23853,-18.834135 -10.31018,-22.014735 -0.0456,-2.02543 0.43902,-3.02621 1.8085,-3.73439 2.55171,-1.31954 4.77551,-0.47928 14.29456,5.40119 5.08851,3.14347 18.2721403,11.918801 19.1266603,12.731147 l 0.78221,0.743615 1.86362,-1.191294 c 7.20178,-4.603647 18.2859297,-8.706828 27.7927797,-10.288448 7.95621,-1.32366 19.229,-1.0338 27.64179,0.71074 8.42393,1.746852 19.07084,6.029479 25.44482,10.23496 1.3635,0.899623 2.52023,1.453355 2.59121,1.240425 0.3115,-0.934495 4.28909,-6.639346 5.33795,-7.655929 2.23623,-2.167433 4.76991,-1.920448 9.50724,0.926774 4.050395,2.434355 7.341665,5.127652 11.736695,9.604327 2.07166,2.110139 3.85932,3.686673 3.97258,3.50341 0.11327,-0.183264 1.27577,-0.694744 2.58335,-1.136622 3.29981,-1.115123 8.9415,-1.120866 12.96075,-0.01319 3.8741,1.067668 10.6766,4.512774 14.29069,7.237475 8.33194,6.281534 16.41081,17.236925 19.88922,26.970874 1.11523,3.120851 1.17685,4.750693 0.21593,5.711614 -1.2428,1.242794 -2.39425,1.085503 -6.82703,-0.932587 -1.9116,-0.870286 -3.54666,-1.51132 -3.63346,-1.42452 -0.0868,0.0868 0.58554,1.382225 1.49409,2.878723 1.94667,3.206434 3.72839,7.30768 4.98417,11.472827 0.68625,2.276113 0.93909,4.018609 1.04941,7.231944 0.13127,3.824034 0.2946,4.693794 1.68926,8.995833 0.84917,2.619375 2.12758,6.667499 2.84091,8.9958324 3.27088,10.6761905 8.22596,20.5608066 14.7418,29.4075566 1.37336,1.864662 1.65251,2.503905 1.65251,3.784228 0,1.265238 -0.16206,1.646743 -0.9068,2.134716 -1.88432,1.234654 -6.818,0.150722 -13.1699,-2.893434 -2.2124,-1.060294 -4.06145,-1.885865 -4.10901,-1.834604 -0.0476,0.05126 0.0709,1.045702 0.2632,2.209868 0.36403,2.203489 0.14395,16.483125 -0.28197,18.295453 -0.20589,0.876106 -0.14929,0.982454 0.42878,0.805642 0.36629,-0.112036 3.68223,-0.455828 7.36876,-0.763983 11.63866,-0.97287 18.20478,-2.327475 25.92916,-5.349248 9.34632,-3.656275 17.13297,-8.681625 24.99116,-16.128818 3.457,-3.276194 4.74948,-4.092114 6.47674,-4.088665 2.31351,0.0046 3.91247,1.7399 6.29973,6.83685 2.2541,4.812621 2.85847,7.470724 3.05711,13.445546 0.31725,9.542665 -1.57535,15.859774 -7.35203,24.539527 -2.4559,3.690106 -9.68843,11.180918 -13.09292,13.56047 -1.1104,0.776111 -1.98292,1.512164 -1.93893,1.635674 0.044,0.123509 0.79095,0.763991 1.65991,1.423292 0.86897,0.659302 2.05959,1.974549 2.64584,2.922773 0.95829,1.549996 1.06515,2.011745 1.05859,4.573928 -0.006,2.515942 -0.14092,3.107322 -1.14765,5.046902 -2.74746,5.29333 -9.34548,9.963036 -18.33602,12.977216 -1.60073,0.53666 -2.91042,1.08771 -2.91042,1.22455 0,0.13684 0.33439,0.55122 0.7431,0.92084 2.24623,2.03144 2.93883,6.3629 1.46661,9.17211 -1.53013,2.91969 -4.54458,4.75743 -9.42408,5.74531 -1.64549,0.33314 -3.09448,0.70838 -3.21998,0.83388 -0.32068,0.32068 3.53569,7.55683 6.26197,11.75001 4.4696,6.87453 8.37306,10.68818 13.59832,13.28544 5.30251,2.63566 9.9027,2.17488 13.11868,-1.31405 2.72476,-2.95601 4.26649,-7.59925 4.26649,-12.84943 0,-3.7458 0.45697,-4.60818 2.44187,-4.60818 1.99063,0 3.00609,1.03391 4.97039,5.06067 2.38983,4.89908 3.20316,8.17989 3.42785,13.82728 0.49291,12.38901 -3.94748,23.47804 -13.09259,32.69628 -6.89881,6.95398 -15.23666,11.51092 -24.10888,13.17638 -4.74425,0.89057 -12.9832,0.55916 -17.14084,-0.68949 -7.83845,-2.3541 -13.11095,-5.51792 -19.60867,-11.76641 -1.86325,-1.79179 -3.5068,-3.26022 -3.65232,-3.26319 -0.14552,-0.003 -0.26458,0.29595 -0.26458,0.66429 0,0.36833 -0.74105,2.15427 -1.64678,3.96875 -2.87677,5.76316 -7.67417,9.61601 -13.57002,10.89827 -2.99835,0.65209 -9.13103,0.27864 -11.7707,-0.71678 -5.45986,-2.05892 -11.1219,-6.42564 -16.61489,-12.81385 -3.224,-3.74944 -7.33798,-9.51934 -8.28463,-11.61928 -0.24054,-0.53358 -0.54904,-0.97014 -0.68556,-0.97014 -0.13653,0 -0.53145,0.75406 -0.87762,1.67569 -0.94929,2.52739 -3.557345,7.632 -5.498105,10.76115 -4.85103,7.82147 -10.06294,12.23093 -16.35567,13.83747 -2.71143,0.69223 -8.26374,0.69045 -10.96427,-0.004 -2.29042,-0.58858 -6.66258,-2.54403 -8.30831,-3.71589 -0.98566,-0.70185 -1.11345,-0.71103 -2.70606,-0.19427 -2.80127,0.90892 -6.41906,1.37818 -8.86938,1.15043 -5.32474,-0.49492 -11.5983,-2.83467 -17.43241,-6.50148 l -3.42652,-2.15361 -1.23061,2.44367 c -2.24771,4.46334 -7.00308,8.09675 -12.20039,9.32186 -2.076,0.48936 -7.0277097,0.65132 -9.1358497,0.29882 z m 10.0347497,-7.09952 c 0.95945,-0.43559 2.26479,-1.18885 2.90074,-1.67392 1.24719,-0.95127 3.04435,-3.37608 3.44068,-4.6423 l 0.24505,-0.78291 -1.54414,0.68305 c -3.21751,1.42326 -7.59299,2.20419 -12.6076297,2.25019 -5.04499,0.0463 -8.87988,-0.17086 -9.17222,-0.51935 -0.097,-0.11565 -0.61296,-0.31711 -1.14653,-0.4477 -1.42376,-0.34844 -1.23057,0.37729 0.52917,1.98786 3.22495,2.95158 6.72095,4.11067 12.0826297,4.00595 2.80055,-0.0547 3.88739,-0.23215 5.27225,-0.86087 z m -6.50697,0.46391 c 0,-0.097 0.0794,-0.17639 0.17639,-0.17639 0.097,0 0.17639,0.0794 0.17639,0.17639 0,0.097 -0.0794,0.17639 -0.17639,0.17639 -0.097,0 -0.17639,-0.0794 -0.17639,-0.17639 z M 8.5751453,187.3677 c 0,-0.097 0.0794,-0.17639 0.17639,-0.17639 0.097,0 0.17639,0.0794 0.17639,0.17639 0,0.097 -0.0794,0.17639 -0.17639,0.17639 -0.097,0 -0.17639,-0.0794 -0.17639,-0.17639 z m 3.9981497,-0.0588 c 0.12935,-0.12936 0.34102,-0.12936 0.47037,0 0.12935,0.12935 0.0235,0.23518 -0.23518,0.23518 -0.25871,0 -0.36454,-0.10583 -0.23519,-0.23518 z m 1.00204,0.0563 c 0.0984,-0.0984 0.87891,-0.25116 1.73449,-0.33949 1.17277,-0.12108 1.33856,-0.0857 0.67365,0.14372 -0.97762,0.33735 -2.68883,0.47646 -2.40814,0.19577 z m -13.6769297,-3.75617 c -0.15596,-0.25234 -0.0968,-0.31153 0.15557,-0.15557 0.40666,0.25133 0.54598,0.56285 0.25171,0.56285 -0.0856,0 -0.26884,-0.18327 -0.40728,-0.40728 z m 14.6739597,0.23089 c 0,-0.097 0.0794,-0.17638 0.17639,-0.17638 0.097,0 0.17639,0.0794 0.17639,0.17638 0,0.097 -0.0794,0.17639 -0.17639,0.17639 -0.097,0 -0.17639,-0.0794 -0.17639,-0.17639 z m 5.99723,-0.69314 c 0,-0.0902 0.31392,-0.33198 0.69761,-0.53733 0.56915,-0.3046 0.65965,-0.2744 0.49142,0.16398 -0.18273,0.4762 -1.18903,0.79217 -1.18903,0.37335 z m -1.99908,-0.77676 c 0.12935,-0.12935 0.34102,-0.12935 0.47037,0 0.12935,0.12935 0.0235,0.23518 -0.23518,0.23518 -0.25871,0 -0.36454,-0.10583 -0.23519,-0.23518 z m 2.29531,-0.52725 c 0.84202,-0.38664 1.60598,-0.62795 1.69768,-0.53625 0.23989,0.23989 -1.99592,1.3043 -2.66548,1.26896 -0.30973,-0.0163 0.12577,-0.34607 0.9678,-0.73271 z m 56.66863,6.03996 c -0.13985,-0.22628 0.0888,-0.31361 0.59654,-0.22783 0.45282,0.0765 0.61609,0.0695 0.36282,-0.0155 -0.8169,-0.27422 -0.22372,-0.97099 1.0177,-1.19542 1.15718,-0.20919 1.14155,-0.22027 -0.38082,-0.26998 -1.08141,-0.0353 -1.429,-0.15218 -1.09032,-0.36658 0.27344,-0.17311 0.70036,-0.23677 0.94871,-0.14147 0.24834,0.0953 0.73899,0.006 1.09032,-0.1983 0.49372,-0.28719 0.098,-0.374 -1.74246,-0.3823 -1.34516,-0.006 -2.38125,-0.16422 -2.38125,-0.3635 0,-0.19403 -0.16812,-0.35278 -0.3736,-0.35278 -0.20547,0 -0.28937,0.13628 -0.18642,0.30285 0.10294,0.16656 -0.36523,0.25901 -1.04038,0.20544 -0.67886,-0.0539 -1.13812,0.0473 -1.02747,0.22632 0.11004,0.17805 0.0125,0.32372 -0.21673,0.32372 -0.29399,0 -0.27414,0.17587 0.0674,0.59689 0.41785,0.51513 0.41169,0.55265 -0.045,0.27391 -0.29104,-0.17764 -0.68792,-0.34268 -0.88194,-0.36677 -0.19403,-0.0241 -0.56256,-0.068 -0.81895,-0.0975 -0.34931,-0.0403 -0.32033,-0.19958 0.11558,-0.6355 0.31997,-0.31996 0.50486,-0.87581 0.41088,-1.2352 -0.094,-0.3594 -0.0269,-0.56449 0.149,-0.45576 0.17593,0.10873 0.31987,0.0516 0.31987,-0.12698 0,-0.17857 0.43657,-0.25803 0.97014,-0.17657 0.53358,0.0815 -0.19148,-0.33743 -1.61124,-0.93086 -1.41976,-0.59344 -2.7746,-1.07898 -3.01075,-1.07898 -0.23614,0 -0.72461,0.51594 -1.08547,1.14653 -0.36086,0.63059 -0.96572,1.49023 -1.34412,1.9103 -0.68462,0.76002 -0.68394,0.76644 0.13908,1.30481 0.4549,0.29756 1.45486,0.803 2.22214,1.12318 1.25725,0.52465 1.34882,0.52644 0.92695,0.0181 -0.39454,-0.47539 -0.38263,-0.56404 0.0758,-0.56404 0.7169,0 4.9606,1.08178 5.18697,1.32223 0.097,0.10305 -0.93486,0.0996 -2.29306,-0.008 -2.63693,-0.20824 -2.68535,-0.0785 -0.15585,0.4175 2.2996,0.45095 5.36036,0.46158 5.086,0.0177 z m -2.16672,-0.57382 c 0.12935,-0.12936 0.34102,-0.12936 0.47037,0 0.12935,0.12935 0.0235,0.23518 -0.23519,0.23518 -0.2587,0 -0.36453,-0.10583 -0.23518,-0.23518 z m 1.6463,-0.29399 c 0,-0.097 0.0794,-0.17638 0.17638,-0.17638 0.097,0 0.17639,0.0794 0.17639,0.17638 0,0.097 -0.0794,0.17639 -0.17639,0.17639 -0.097,0 -0.17638,-0.0794 -0.17638,-0.17639 z m -0.70556,-1.23472 c -0.821,-0.26293 -0.82854,-0.28488 -0.10901,-0.31761 0.42511,-0.0193 0.87104,0.12358 0.99095,0.31761 0.11992,0.19403 0.16898,0.33696 0.10902,0.31761 -0.06,-0.0193 -0.50589,-0.16226 -0.99096,-0.31761 z m -1.83003,-0.24099 c 0.25466,-0.1019 0.55893,-0.0894 0.67615,0.0279 0.11723,0.11722 -0.0911,0.2006 -0.46302,0.18528 -0.41096,-0.0169 -0.49456,-0.10052 -0.21313,-0.21314 z m -7.69497,-0.64095 c 0,-0.097 0.0794,-0.17639 0.17639,-0.17639 0.097,0 0.17639,0.0794 0.17639,0.17639 0,0.097 -0.0794,0.17639 -0.17639,0.17639 -0.097,0 -0.17639,-0.0794 -0.17639,-0.17639 z m 4.93889,-2.11667 c 0,-0.097 0.0794,-0.17639 0.17639,-0.17639 0.097,0 0.17639,0.0794 0.17639,0.17639 0,0.097 -0.0794,0.17639 -0.17639,0.17639 -0.097,0 -0.17639,-0.0794 -0.17639,-0.17639 z m -2.95189,-0.60476 c 0.0942,-0.15245 0.40006,-0.27718 0.67965,-0.27718 0.27959,0 0.50835,0.12473 0.50835,0.27718 0,0.15245 -0.30584,0.27718 -0.67965,0.27718 -0.37381,0 -0.60257,-0.12473 -0.50835,-0.27718 z m 127.550925,5.3793 c 18.19758,-4.02414 31.68151,-20.26155 31.68151,-38.15101 0,-1.91884 -0.11906,-3.48843 -0.26458,-3.48797 -0.14552,4.7e-4 -0.72247,0.87715 -1.28212,1.9482 -1.81029,3.46454 -5.54618,6.28679 -9.83247,7.42787 -7.54621,2.00892 -17.79417,-2.40503 -24.54919,-10.5737 -2.97487,-3.59743 -5.51101,-7.63511 -9.21965,-14.6782 -1.78794,-3.39549 -3.39821,-6.35347 -3.57838,-6.5733 -0.18017,-0.21983 -1.8603,-0.51461 -3.73361,-0.65505 -2.92874,-0.21958 -8.85922,-1.39115 -10.75156,-2.12399 -0.42784,-0.16569 -0.74879,0.0704 -1.14975,0.84579 -1.44907,2.80218 -4.2929,3.92415 -9.92155,3.91431 -4.29744,-0.008 -7.39887,-0.63616 -11.20629,-2.27148 -1.60089,-0.68759 -2.9984,-1.25017 -3.10559,-1.25017 -0.10719,0 0.1648,1.34697 0.60442,2.99326 1.42048,5.31946 1.95572,13.09213 1.24507,18.08068 l -0.2632,1.84756 3.30255,4.14967 c 6.09902,7.66346 10.85017,14.87658 11.91949,18.09601 0.63824,1.92154 6.44674,8.54878 10.34784,11.80643 9.21312,7.69347 19.96445,10.82059 29.75706,8.65509 z m -53.593,-1.01163 c 2.76305,-1.36821 4.94865,-3.15041 4.69002,-3.82438 -0.10644,-0.27739 -0.0487,-0.41485 0.12823,-0.30548 0.37301,0.23053 1.35532,-1.0794 2.48979,-3.32019 0.97249,-1.92086 1.34977,-6.4866 0.72584,-8.78396 -0.3854,-1.41904 -0.45426,-1.48567 -0.91163,-0.88195 -0.47738,0.63015 -0.49542,0.6283 -0.51415,-0.0525 -0.0107,-0.38806 -0.64031,0.52069 -1.3992,2.01948 -1.80126,3.55745 -3.06589,5.33979 -5.36434,7.56043 -3.1594,3.05243 -6.06116,4.67636 -12.46587,6.97639 -0.62319,0.22379 -0.5614,0.31465 0.52916,0.77823 2.21519,0.94164 3.65512,1.16196 6.80048,1.04054 2.60369,-0.10051 3.44559,-0.29248 5.29167,-1.20661 z m -6.4477,0.8232 c 0,-0.097 0.0794,-0.17639 0.17639,-0.17639 0.097,0 0.17639,0.0794 0.17639,0.17639 0,0.097 -0.0794,0.17639 -0.17639,0.17639 -0.097,0 -0.17639,-0.0794 -0.17639,-0.17639 z m 8.11389,-2.64583 c 0,-0.2587 0.10583,-0.36454 0.23518,-0.23519 0.12935,0.12936 0.12935,0.34102 0,0.47037 -0.12935,0.12936 -0.23518,0.0235 -0.23518,-0.23518 z m 1.05833,-0.52917 c 0,-0.097 0.0794,-0.17639 0.17639,-0.17639 0.097,0 0.17639,0.0794 0.17639,0.17639 0,0.097 -0.0794,0.17639 -0.17639,0.17639 -0.097,0 -0.17639,-0.0794 -0.17639,-0.17639 z m 0.35278,-0.70555 c 0,-0.097 0.0794,-0.17639 0.17639,-0.17639 0.097,0 0.17638,0.0794 0.17638,0.17639 0,0.097 -0.0794,0.17639 -0.17638,0.17639 -0.097,0 -0.17639,-0.0794 -0.17639,-0.17639 z m 0.70555,-0.35278 c 0,-0.097 0.0794,-0.17639 0.17639,-0.17639 0.097,0 0.17639,0.0794 0.17639,0.17639 0,0.097 -0.0794,0.17639 -0.17639,0.17639 -0.097,0 -0.17639,-0.0794 -0.17639,-0.17639 z m -7.05555,-1.05833 c 0,-0.097 0.0794,-0.17639 0.17639,-0.17639 0.097,0 0.17638,0.0794 0.17638,0.17639 0,0.097 -0.0794,0.17638 -0.17638,0.17638 -0.097,0 -0.17639,-0.0794 -0.17639,-0.17638 z m 1.05833,-0.70556 c 0,-0.097 0.0794,-0.17639 0.17639,-0.17639 0.097,0 0.17639,0.0794 0.17639,0.17639 0,0.097 -0.0794,0.17639 -0.17639,0.17639 -0.097,0 -0.17639,-0.0794 -0.17639,-0.17639 z m 8.81944,-10.75972 c 0,-0.2587 0.10584,-0.36454 0.23519,-0.23519 0.12935,0.12936 0.12935,0.34102 0,0.47037 -0.12935,0.12936 -0.23519,0.0235 -0.23519,-0.23518 z M 80.541805,187.3677 c 0,-0.097 -0.0794,-0.17639 -0.17639,-0.17639 -0.097,0 -0.17638,0.0794 -0.17638,0.17639 0,0.097 0.0794,0.17639 0.17638,0.17639 0.097,0 0.17639,-0.0794 0.17639,-0.17639 z m -0.97014,-0.41002 c -0.24253,-0.0979 -0.63941,-0.0979 -0.88194,0 -0.24253,0.0979 -0.0441,0.17793 0.44097,0.17793 0.48507,0 0.68351,-0.0801 0.44097,-0.17793 z m 2.55764,-0.47192 c -0.11991,-0.19403 -0.40709,-0.35035 -0.63818,-0.34738 -0.25245,0.003 -0.20894,0.1419 0.10902,0.34738 0.67773,0.43798 0.79985,0.43798 0.52916,0 z m 2.64584,-1.12797 c 1.01976,-0.63807 1.1192,-0.79743 0.57116,-0.91539 -0.39554,-0.0851 -1.0069,0.22744 -1.51359,0.77387 -1.03758,1.11899 -0.70065,1.16958 0.94243,0.14152 z m -0.70556,-0.10675 c 0,-0.097 0.0794,-0.17639 0.17639,-0.17639 0.097,0 0.17639,0.0794 0.17639,0.17639 0,0.097 -0.0794,0.17638 -0.17639,0.17638 -0.097,0 -0.17639,-0.0794 -0.17639,-0.17638 z m -11.59667,-0.0882 c 0.43881,-0.55952 0.42634,-0.572 -0.13319,-0.13319 -0.33955,0.26629 -0.61736,0.5441 -0.61736,0.61736 0,0.29035 0.2897,0.10347 0.75055,-0.48417 z m 9.00963,0.38218 c -0.12935,-0.12936 -0.34101,-0.12936 -0.47037,0 -0.12935,0.12935 -0.0235,0.23518 0.23519,0.23518 0.2587,0 0.36454,-0.10583 0.23518,-0.23518 z m 1.17593,0.0588 c 0,-0.097 -0.0794,-0.17639 -0.17639,-0.17639 -0.097,0 -0.17639,0.0794 -0.17639,0.17639 0,0.097 0.0794,0.17639 0.17639,0.17639 0.097,0 0.17639,-0.0794 0.17639,-0.17639 z m -28.3864,-0.91406 c 1.14514,-0.21169 2.66122,-0.68035 3.36908,-1.04147 1.8233,-0.93018 3.54126,-2.45137 3.26793,-2.89363 -0.13039,-0.21097 -0.066,-0.27261 0.14719,-0.14087 0.49434,0.30552 1.92839,-1.52005 1.68739,-2.14807 -0.10199,-0.2658 -0.0406,-0.39376 0.13638,-0.28437 0.17701,0.1094 0.66551,-0.71579 1.08557,-1.83376 0.98186,-2.61319 0.85984,-6.21552 -0.28992,-8.55904 -0.42837,-0.87313 -0.71757,-1.24789 -0.64266,-0.83281 0.26314,1.45825 -0.36207,1.56887 -0.79022,0.13982 -0.2346,-0.78302 -0.58451,-1.42368 -0.77758,-1.42368 -0.21575,0 -0.19447,0.29252 0.0552,0.75905 0.34602,0.64653 0.32171,0.72661 -0.16397,0.54024 -0.33281,-0.12771 -0.57033,-0.0398 -0.57049,0.21109 -1.5e-4,0.23644 -0.47664,1.43685 -1.05887,2.66757 -0.58223,1.23073 -0.95445,2.40619 -0.82716,2.61215 0.1324,0.21423 0.0647,0.27144 -0.15815,0.13369 -0.21542,-0.13313 -0.58178,0.1185 -0.81949,0.56286 -1.43238,2.6776 -7.2501,7.38099 -11.73797,9.48967 -1.34753,0.63315 -1.75846,0.9363 -1.09669,0.80903 0.76108,-0.14636 0.91745,-0.10483 0.55675,0.14786 -0.38691,0.27106 -0.18528,0.434 0.88195,0.71272 2.97487,0.77691 5.02308,0.87526 7.74573,0.37195 z m -6.18582,-0.49705 c 0,-0.097 0.0794,-0.17639 0.17639,-0.17639 0.097,0 0.17639,0.0794 0.17639,0.17639 0,0.097 -0.0794,0.17639 -0.17639,0.17639 -0.097,0 -0.17639,-0.0794 -0.17639,-0.17639 z m -1.76389,-0.52916 c 0,-0.25871 0.10583,-0.36454 0.23519,-0.23519 0.12935,0.12935 0.12935,0.34102 0,0.47037 -0.12936,0.12935 -0.23519,0.0235 -0.23519,-0.23518 z m 0.52917,-0.70556 c -0.11992,-0.19403 -0.0499,-0.35278 0.15557,-0.35278 0.20548,0 0.37359,0.15875 0.37359,0.35278 0,0.19403 -0.07,0.35278 -0.15556,0.35278 -0.0856,0 -0.25369,-0.15875 -0.3736,-0.35278 z m 0.88194,-0.17639 c 0,-0.097 0.0794,-0.17639 0.17639,-0.17639 0.097,0 0.17639,0.0794 0.17639,0.17639 0,0.097 -0.0794,0.17639 -0.17639,0.17639 -0.097,0 -0.17639,-0.0794 -0.17639,-0.17639 z m 0.82315,-0.76435 c 0.12935,-0.12935 0.34102,-0.12935 0.47037,0 0.12935,0.12935 0.0235,0.23518 -0.23518,0.23518 -0.25871,0 -0.36454,-0.10583 -0.23519,-0.23518 z m 7.64352,-5.58565 c 0,-0.097 0.0794,-0.17639 0.17639,-0.17639 0.097,0 0.17639,0.0794 0.17639,0.17639 0,0.097 -0.0794,0.17639 -0.17639,0.17639 -0.097,0 -0.17639,-0.0794 -0.17639,-0.17639 z m 6.70278,-0.35278 c 0,-0.097 0.0794,-0.17639 0.17638,-0.17639 0.097,0 0.17639,0.0794 0.17639,0.17639 0,0.097 -0.0794,0.17639 -0.17639,0.17639 -0.097,0 -0.17638,-0.0794 -0.17638,-0.17639 z m -5.99723,-0.52916 c 0,-0.19403 0.16812,-0.35278 0.3736,-0.35278 0.20548,0 0.27549,0.15875 0.15557,0.35278 -0.11992,0.19402 -0.28803,0.35277 -0.3736,0.35277 -0.0856,0 -0.15557,-0.15875 -0.15557,-0.35277 z m 6.70278,-0.88195 c 0,-0.097 0.0794,-0.17639 0.17639,-0.17639 0.097,0 0.17639,0.0794 0.17639,0.17639 0,0.097 -0.0794,0.17639 -0.17639,0.17639 -0.097,0 -0.17639,-0.0794 -0.17639,-0.17639 z m -5.82083,-0.52916 c -0.11992,-0.19403 0.0388,-0.35278 0.35278,-0.35278 0.31394,0 0.47269,0.15875 0.35277,0.35278 -0.11991,0.19402 -0.27866,0.35277 -0.35277,0.35277 -0.0741,0 -0.23287,-0.15875 -0.35278,-0.35277 z m 1.94028,-2.99861 c 0,-0.097 0.0794,-0.17639 0.17638,-0.17639 0.097,0 0.17639,0.0794 0.17639,0.17639 0,0.097 -0.0794,0.17638 -0.17639,0.17638 -0.097,0 -0.17638,-0.0794 -0.17638,-0.17638 z m 1.41111,-2.82223 c 0,-0.097 0.0794,-0.17639 0.17639,-0.17639 0.097,0 0.17638,0.0794 0.17638,0.17639 0,0.097 -0.0794,0.17639 -0.17638,0.17639 -0.097,0 -0.17639,-0.0794 -0.17639,-0.17639 z m 0.35277,-0.70555 c 0,-0.097 0.0794,-0.17639 0.17639,-0.17639 0.097,0 0.17639,0.0794 0.17639,0.17639 0,0.097 -0.0794,0.17639 -0.17639,0.17639 -0.097,0 -0.17639,-0.0794 -0.17639,-0.17639 z m 19.75556,17.10972 c 0,-0.19403 -0.51594,-0.334 -1.14653,-0.31104 l -1.14653,0.0417 1.05834,0.2693 c 0.58208,0.14811 1.09802,0.28808 1.14652,0.31104 0.0485,0.023 0.0882,-0.11701 0.0882,-0.31104 z m -2.46945,-0.41158 c 0,-0.16169 -0.32686,-0.29398 -0.72637,-0.29398 -0.39951,0 -0.64462,0.13229 -0.54469,0.29398 0.0999,0.16169 0.4268,0.29399 0.72638,0.29399 0.29958,0 0.54468,-0.1323 0.54468,-0.29399 z m -5.64444,-0.11759 c 0,-0.097 -0.0794,-0.17639 -0.17639,-0.17639 -0.097,0 -0.17639,0.0794 -0.17639,0.17639 0,0.097 0.0794,0.17639 0.17639,0.17639 0.097,0 0.17639,-0.0794 0.17639,-0.17639 z m 1.05833,0 c 0,-0.097 -0.0794,-0.17639 -0.17639,-0.17639 -0.097,0 -0.17638,0.0794 -0.17638,0.17639 0,0.097 0.0794,0.17639 0.17638,0.17639 0.097,0 0.17639,-0.0794 0.17639,-0.17639 z m 2.11667,-0.35278 c 0,-0.097 -0.0794,-0.17638 -0.17639,-0.17638 -0.097,0 -0.17639,0.0794 -0.17639,0.17638 0,0.097 0.0794,0.17639 0.17639,0.17639 0.097,0 0.17639,-0.0794 0.17639,-0.17639 z m 0.70556,0 c 0,-0.097 -0.0794,-0.17638 -0.17639,-0.17638 -0.097,0 -0.17639,0.0794 -0.17639,0.17638 0,0.097 0.0794,0.17639 0.17639,0.17639 0.097,0 0.17639,-0.0794 0.17639,-0.17639 z m -2.11667,-0.35277 c 0,-0.097 -0.0794,-0.17639 -0.17639,-0.17639 -0.097,0 -0.17639,0.0794 -0.17639,0.17639 0,0.097 0.0794,0.17639 0.17639,0.17639 0.097,0 0.17639,-0.0794 0.17639,-0.17639 z m 54.835325,-2.18296 c 4.25959,-1.51336 6.85877,-3.1698 10.08106,-6.42455 2.10595,-2.12718 3.33641,-3.71961 4.11631,-5.32721 1.27265,-2.62331 2.05901,-6.14167 1.7703,-7.92075 -0.23389,-1.44134 -2.09852,-4.26424 -6.1134,-9.25521 -1.61318,-2.00539 -3.1092,-3.97527 -3.32447,-4.37752 -0.24836,-0.46405 -0.42552,-3.91169 -0.48471,-9.43269 -0.0854,-7.96433 -0.17007,-9.01507 -0.99974,-12.4055 -1.42793,-5.83512 -0.89281,-5.29857 -5.38826,-5.4028 -4.57204,-0.106 -7.32959,-0.94823 -11.60682,-3.54499 -1.81616,-1.10262 -2.74319,-1.49092 -2.85019,-1.19386 -0.0872,0.24215 -0.73176,2.02776 -1.43231,3.96804 -0.70056,1.94028 -3.0046,8.59257 -5.1201,14.78286 -2.1155,6.1903 -4.26222,11.96468 -4.77047,12.83196 l -0.92411,1.57686 0.62101,2.33749 c 2.69276,10.13563 9.8372,21.57738 17.92159,28.70124 2.7805,2.45015 2.79015,2.455 4.39993,2.2136 0.88733,-0.13307 2.7343,-0.6402 4.10438,-1.12697 z m -88.313415,-1.51334 c 6.23218,-2.27446 11.72749,-6.83006 14.26175,-11.82294 1.18362,-2.33192 1.35998,-2.99465 1.37912,-5.18243 l 0.0219,-2.50857 -3.35139,-1.13033 c -3.59357,-1.21202 -6.37114,-2.5088 -7.72946,-3.6087 -0.65328,-0.529 -0.7916,-0.89014 -0.61318,-1.60103 0.12672,-0.50488 0.54321,-1.01724 0.92553,-1.13858 0.38232,-0.12134 2.40602,0.27769 4.4971,0.88675 6.93263,2.01923 11.50528,1.81701 17.01092,-0.75229 2.47807,-1.15643 3.4311,-1.86251 5.67325,-4.20317 2.76501,-2.88649 3.41353,-3.22127 4.37592,-2.25888 1.77954,1.77954 -1.51389,6.6975 -6.79285,10.1435 l -1.87916,1.22667 3.39472,0.25452 c 7.39147,0.55416 20.10391,-1.5028 25.25498,-4.08643 1.15633,-0.57998 1.24535,-0.73604 1.12936,-1.97987 -0.26888,-2.88359 -0.21546,-2.82524 -3.50589,-3.82888 -10.1525,-3.09671 -19.29977,-5.27869 -25.85144,-6.16657 -1.6411,-0.22241 -3.26289,-0.55373 -3.60399,-0.73628 -1.35838,-0.72699 -2.33637,-7.72583 -2.64505,-18.92894 -0.1243,-4.51114 -0.26309,-8.20208 -0.30843,-8.20208 -0.0453,0 -1.56835,0.30137 -3.38447,0.66971 -8.47733,1.71935 -11.32952,1.9687 -22.35202,1.95412 -11.43862,-0.0151 -15.85301,-0.46184 -24.16528,-2.44535 -2.03729,-0.48615 -4.0613497,-0.96634 -4.4979097,-1.06708 -0.77155,-0.17805 -0.79375,-0.10533 -0.79375,2.59956 0,5.9201 1.63366,11.69825 4.9425497,17.48144 1.42401,2.48885 5.01319,6.92737 5.58218,6.90315 0.12925,-0.006 0.75417,-0.86806 1.38872,-1.91679 3.83784,-6.34281 9.3537,-10.37841 16.73723,-12.24555 2.24621,-0.56802 3.66815,-0.69122 6.82239,-0.59109 3.6381,0.11549 4.06379,0.20075 4.89334,0.98007 0.49972,0.46947 0.90858,1.22278 0.90858,1.67402 0,1.60103 -0.96996,2.05554 -5.36425,2.51359 -7.29064,0.75996 -11.57373,2.56463 -15.65727,6.59714 -6.31811,6.23915 -8.95955,15.37933 -6.83984,23.66787 1.38149,5.40195 3.98528,9.75736 8.33611,13.944 2.43273,2.34093 7.56037,5.95618 8.44786,5.95618 0.26056,0 1.769,-0.4727 3.35208,-1.05046 z m 49.68591,-1.2245 c 1.41423,-1.27992 6.3919,-10.91846 8.82009,-17.07881 1.152295,-2.92341 1.105745,-2.96094 -2.18361,-1.76048 -7.10601,2.59337 -14.37422,3.64939 -23.40728,3.40091 l -6.05557,-0.16657 0.8327,1.79621 c 1.20784,2.60542 1.65209,5.22271 1.48384,8.74188 l -0.14819,3.09947 2.3133,0.89867 c 3.9991,1.55358 6.44142,1.91956 12.24226,1.83451 4.73546,-0.0694 5.42922,-0.15648 6.10246,-0.76579 z m -74.59254,-0.72135 c 2.67883,-0.75168 5.46806,-1.93907 5.46806,-2.32779 0,-0.16409 -0.69385,-1.37485 -1.54188,-2.69059 -2.23286,-3.46431 -3.26694,-5.65403 -4.32714,-9.16295 -0.82499,-2.73046 -0.94087,-3.72711 -0.95593,-8.22235 -0.0128,-3.82236 0.13857,-5.67993 0.59888,-7.34925 l 0.61602,-2.23397 -2.41804,-2.54557 c -3.76499,-3.96356 -6.8415997,-8.65736 -8.6703497,-13.22786 l -0.60912,-1.52235 -0.63711,0.8277 c -3.55541,4.61893 -8.29484,13.64081 -10.19851,19.41365 -2.21502,6.71696 -2.9869,13.374 -2.22176,19.16126 0.44412,3.35912 1.29417,6.77052 1.86467,7.4832 0.50945,0.63643 3.93801,1.85438 7.3336,2.60517 3.80035,0.84028 12.3667297,0.72661 15.6986097,-0.2083 z M 149.57446,167.7224 c -0.11261,-0.28142 -0.19621,-0.19783 -0.21314,0.21314 -0.0153,0.37188 0.0681,0.58024 0.18529,0.46302 0.11723,-0.11723 0.12976,-0.4215 0.0279,-0.67616 z m -86.671535,-1.85331 c 0,-0.0856 -0.15875,-0.25368 -0.35278,-0.3736 -0.19403,-0.11991 -0.35278,-0.0499 -0.35278,0.15557 0,0.20548 0.15875,0.3736 0.35278,0.3736 0.19403,0 0.35278,-0.07 0.35278,-0.15557 z m 35.33819,-25.82827 c 1.23001,-1.11315 0.61253,-2.94394 -0.99292,-2.94394 -0.835,0 -1.88972,1.18582 -1.88972,2.12461 0,1.35758 1.74106,1.85244 2.88264,0.81933 z m -10.45133,-11.92373 c 0.54583,-0.54584 0.86591,-1.26898 0.86591,-1.95632 0,-1.35448 -1.37601,-2.82222 -2.64583,-2.82222 -1.09968,0 -2.64584,1.44394 -2.64584,2.47093 0,2.66438 2.6745,4.05887 4.42576,2.30761 z m 14.545755,-0.036 c 1.40272,-0.98251 0.82533,-2.97861 -0.86159,-2.97861 -1.3645,0 -2.002555,1.94585 -0.975,2.97341 0.68869,0.68869 0.86008,0.68917 1.83659,0.005 z m -108.5770547,-6.2863 c 0,-0.073 -2.04335,-1.88869 -4.5407803,-4.03491 -4.69124,-4.03153 -5.28367,-4.88625 -4.49009,-6.47801 0.3562,-0.71446 2.59629,-2.63548 3.96904,-3.40371 0.49594,-0.27754 0.49432,-0.41363 -0.0167,-1.40179 -1.20763,-2.33531 -0.47209,-3.40916 4.6978603,-6.858598 3.26211,-2.17652 4.1657,-3.09029 3.05588,-3.09029 -0.30721,0 -0.55857,0.23813 -0.55857,0.52917 0,0.29104 -0.16944,0.52916 -0.37655,0.52916 -0.2071,0 -0.2871,-0.28182 -0.17778,-0.62627 0.16305,-0.5137 -0.29237,-0.80818 -2.53386,-1.63844 -4.4117103,-1.63411 -12.3221903,-5.84004 -16.3145803,-8.674301 -8.19913,-5.820696 -14.66668,-13.513715 -17.82347,-21.200643 -0.87801,-2.137993 -1.01308,-2.289915 -1.91789,-2.157118 -1.38397,0.203125 -2.9953,-1.337839 -5.0951,-4.872614 -3.32641,-5.599609 -5.54127,-12.16413 -6.78078,-20.097271 -0.98262,-6.288921 -0.79066,-16.258159 0.43473,-22.577776 0.13167,-0.679097 0.15091,-1.155347 0.0427,-1.058333 -0.37808,0.339085 -2.3584,10.807771 -3.1031,16.404165 -0.63422,4.76611 -0.72499,6.824705 -0.58331,13.229165 0.27311,12.346539 1.65562,18.528121 8.36324,37.394442 l 1.81865,5.115277 -0.16496,6.702777 c -0.17856,7.255388 -1.07854,12.744138 -2.93223,17.883008 -0.48885,1.3552 -0.82797,2.52485 -0.7536,2.59922 0.25817,0.25816 9.39944,-4.37652 12.29277,-6.23251 6.16849,-3.95692 11.37052,-9.112968 13.97851,-13.854938 1.42126,-2.5842 2.31894,-3.27031 3.79427,-2.90002 1.61093,0.40431 2.40997,1.50946 2.13832,2.95748 -0.58012,3.09231 -3.73436,7.823188 -8.53908,12.807328 -3.488,3.61824 -3.54209,3.02777 0.67032,7.31712 4.71762,4.80381 11.69923,7.65311 19.0648403,7.78068 1.30968,0.0227 2.38125,-0.0185 2.38125,-0.0914 z M 158.28319,118.86096 c 0.98759,-0.51018 1.00653,-0.57321 0.7783,-2.59049 -0.22081,-1.95166 -0.18307,-2.1009 0.67298,-2.66181 0.87142,-0.57098 1.02039,-0.55085 3.80781,0.51457 5.40523,2.06601 8.04921,2.57499 14.39679,2.77148 8.52425,0.26386 14.05148,-0.99006 15.339,-3.47985 1.2325,-2.3834 -1.33025,-4.12891 -10.25432,-6.9843 -3.10445,-0.99332 -6.23976,-1.9019 -6.96736,-2.01909 -2.24835,-0.3621 -1.47435,-0.7208 2.11667,-0.98094 4.51723,-0.32725 10.78759,-1.40165 14.67643,-2.51474 11.15933,-3.194118 20.33676,-9.597928 20.33676,-14.190535 0,-1.113857 -0.90782,-2.118751 -2.76043,-3.055605 -1.49198,-0.754489 -8.98877,-1.396628 -13.24134,-1.134192 l -3.12538,0.192875 6.87523,-4.161134 c 7.95379,-4.813922 11.27031,-7.216235 15.38474,-11.14388 7.0746,-6.753436 12.16874,-15.437406 13.483,-22.984406 0.50924,-2.924272 0.21156,-8.983444 -0.58663,-11.940591 -0.31423,-1.164167 -1.11084,-3.28643 -1.77024,-4.71614 l -1.19893,-2.599473 -2.94761,2.790161 c -8.16558,7.729408 -18.96354,14.161524 -29.4249,17.527803 -4.41681,1.421248 -10.63974,2.840656 -14.90696,3.400174 -5.05901,0.663338 -4.7659,0.465549 -3.38017,2.280948 1.30199,1.705698 2.49741,5.00263 2.81907,7.774858 0.50793,4.377722 -1.47654,9.505276 -5.03712,13.015101 l -2.10906,2.07899 1.795,0.91962 c 2.16525,1.109315 4.21389,3.572423 4.84444,5.824555 0.61545,2.198169 0.29937,5.606252 -0.72295,7.795063 -1.83594,3.9308 -6.65712,7.37994 -11.82784,8.4618 -1.27971,0.26775 -2.40314,0.56322 -2.49652,0.6566 -0.0934,0.0934 0.0275,0.5385 0.26873,0.98915 0.58454,1.09223 0.58033,4.372068 -0.008,6.100578 -0.69647,2.04682 -3.19666,4.52789 -5.6906,5.64711 -4.14461,1.85999 -10.75123,1.44388 -15.26984,-0.96175 -2.37253,-1.26309 -2.64281,-1.68711 -1.84833,-2.89963 1.21157,-1.8491 1.90432,-2.02169 4.96881,-1.23792 3.59666,0.91987 7.93066,0.9363 9.90945,0.0376 3.97728,-1.80639 3.9651,-5.764018 -0.0264,-8.577478 -0.87386,-0.61595 -1.58883,-1.23166 -1.58883,-1.36824 0,-0.13657 0.54205,-0.72425 1.20457,-1.30595 0.87339,-0.76685 1.72206,-1.12471 3.0868,-1.30163 3.79115,-0.49146 7.19254,-1.32302 9.27442,-2.26738 5.80795,-2.63453 7.46788,-8.05041 3.26018,-10.637056 -1.63732,-1.006525 -2.96821,-1.289438 -9.06486,-1.926961 -3.00743,-0.314484 -5.74972,-0.679567 -6.09398,-0.811295 -0.45354,-0.173541 0.32817,-0.652618 2.83824,-1.739437 7.10364,-3.075768 11.74548,-6.593805 13.58876,-10.298881 1.30333,-2.619774 1.3588,-6.724636 0.12658,-9.367539 -1.14958,-2.465663 -4.20104,-5.71551 -5.77455,-6.149977 -2.66946,-0.737071 -7.50426,1.08927 -11.39085,4.302871 -4.29854,3.554228 -6.82398,7.22387 -11.76937,17.101728 -5.36338,10.712752 -11.34544,18.744047 -22.57452,30.307715 l -5.87614,6.05124 2.38107,2.18182 c 2.73909,2.50988 6.77723,4.62365 10.4614,5.47604 3.62427,0.83852 4.20089,0.68375 4.5226,-1.21392 0.2743,-1.61802 0.59162,-1.99674 1.98307,-2.36682 0.62478,-0.16616 1.13051,0.0715 2.11667,0.99465 3.86656,3.61959 9.48072,6.26624 14.87769,7.0137 2.52271,0.34938 6.25682,0.0424 7.5386,-0.61974 z m -33.51764,-11.06543 c -2.20543,-0.69911 -5.44351,-2.63548 -5.68395,-3.39902 -0.073,-0.23169 0.41687,-1.02089 1.08851,-1.75378 l 1.22117,-1.33252 2.41637,0.85305 c 3.04373,1.07453 6.58278,1.18706 8.00639,0.25459 2.13592,-1.39904 2.09056,-3.275538 -0.13762,-5.692828 l -1.40537,-1.52465 1.27245,-1.11722 c 1.18502,-1.04047 1.38541,-1.09789 2.91663,-0.83575 4.69677,0.80405 9.3602,-0.23059 10.43858,-2.31593 1.24773,-2.41284 0.29619,-4.676697 -2.7835,-6.622364 -0.87995,-0.555935 -1.6002,-1.114893 -1.60055,-1.242129 -7.7e-4,-0.283275 3.17595,-2.414494 3.59896,-2.414494 0.81004,0 3.05218,1.214277 4.10424,2.22274 1.90463,1.825702 2.6557,3.610701 2.64166,6.278227 -0.0277,5.26314 -4.08536,9.06844 -10.37035,9.72535 l -2.09181,0.21864 v 1.904068 c 0,5.90099 -6.39475,9.08809 -13.63181,6.79402 z m -81.177215,2.84975 c 0.76075,-0.84388 0.97014,-1.4252 0.97014,-2.69337 0,-1.36881 -0.18423,-1.80144 -1.19944,-2.81665 -2.13615,-2.13615 -5.06791,-1.30437 -5.86739,1.66465 -1.11313,4.13385 3.31743,6.92833 6.09669,3.84537 z m -21.46602,-0.49859 c 2.41678,-1.00979 3.11087,-3.81504 1.43635,-5.8051 -1.12475,-1.33668 -2.59068,-1.68824 -4.00024,-0.95933 -1.48597,0.76842 -2.16514,1.88436 -2.15599,3.54247 0.009,1.59041 0.77661,2.80035 2.10882,3.32308 1.18772,0.46604 1.2604,0.46322 2.61106,-0.10112 z m 40.80774,-1.59763 c 1.86446,-1.86446 1.26818,-5.33641 -1.12943,-6.57626 -1.91439,-0.98997 -4.12328,0.15407 -4.91205,2.54406 -1.20986,3.66593 3.35864,6.71504 6.04148,4.0322 z m 45.389285,-2.78432 c 1.59868,-1.87903 5.15021,-5.797678 7.8923,-8.708088 12.22115,-12.971362 15.5465,-17.435377 23.45569,-31.487377 3.99442,-7.096755 9.16942,-13.402314 12.69504,-15.468467 1.68226,-0.985865 1.67438,-0.967925 2.84855,-6.489987 0.50588,-2.379155 0.63877,-4.638348 0.64327,-10.93611 0.007,-9.279487 -0.25064,-10.852745 -3.1977,-19.554109 -1.04677,-3.090663 -1.82682,-5.6957851 -1.73345,-5.7891601 0.55593,-0.55593 3.12934,0.914796 5.64238,3.2246641 3.55065,3.263601 11.01418,8.71305 11.93333,8.71305 0.12644,0 -0.43012,-1.071562 -1.2368,-2.38125 -6.20344,-10.0715791 -12.72963,-29.383415 -14.03777,-41.539579 -0.92215,-8.569198 -4.77521,-17.082131 -9.86399,-21.793441 -1.62629,-1.505663 -2.92619,-2.284505 -5.92666,-3.550991 -2.1139,-0.89227 -5.16236,-1.937322 -6.77437,-2.322339 -1.612,-0.385016 -3.01908,-0.788202 -3.12685,-0.895968 -0.38821,-0.38821 1.21644,-1.25481 3.95846,-2.137786 5.45241,-1.755767 11.9048,-1.46873 18.79579,0.836138 1.61011,0.538542 2.92747,0.904164 2.92747,0.812494 0,-0.09167 -0.42329,-0.894995 -0.94064,-1.785166 -6.17227,-10.620179 -15.85939,-19.507342 -24.44697,-22.428169 -1.43449,-0.487902 -3.96881,-1.051934 -5.63181,-1.253403 -2.60686,-0.315817 -3.30116,-0.279282 -5.03706,0.265052 l -2.01342,0.631361 1.24585,1.940277 c 6.74948,10.511562 8.93767,22.794091 5.56279,31.224402 -0.74234,1.854337 -1.51725,2.980897 -3.28765,4.779568 -3.94474,4.007747 -7.65362,5.354585 -14.83998,5.388968 -6.164205,0.02949 -10.544115,-0.987184 -16.051385,-3.725896 -6.03523,-3.001257 -10.08169,-6.798094 -12.58787,-11.811335 -2.18046,-4.361672 -2.18749,-7.060957 -0.0235,-9.019343 0.63976,-0.578981 0.67769,-0.990088 0.52057,-5.643612 -0.19714,-5.839107 0.45673,-10.951746 2.02789,-15.856008 l 0.98536,-3.075756 -2.51678,-1.565825 c -5.99657,-3.73079 -13.26701,-6.873985 -19.9848,-8.639932 -7.07722,-1.860435 -10.97425,-2.322042 -19.39726,-2.297629 -6.73347,0.01952 -8.13902,0.129026 -12.52361,0.975745 -2.71639,0.524569 -6.84389,1.588123 -9.17222,2.363454 -4.42073,1.472094 -11.3775897,4.645857 -12.8526697,5.863467 l -0.85822,0.708423 0.85822,0.528863 c 6.0879,3.75154 9.8540597,6.5621 9.8540597,7.353749 0,0.152523 0.53792,0.454844 1.19538,0.671826 1.26659,0.418011 8.15658,4.903161 10.75823,7.003237 3.42477,2.76451 4.81885,6.910987 4.56255,13.570622 -0.14175,3.683263 -0.24247,4.144526 -1.45512,6.663767 -1.56642,3.254195 -3.16392,4.742493 -7.12354,6.636615 -4.66588,2.231964 -4.88868,2.195846 -2.46176,-0.399088 3.87315,-4.141274 6.0898,-10.068439 5.65377,-15.117728 -0.30436,-3.524432 -1.16186,-5.192593 -3.69032,-7.179068 -2.51692,-1.977407 -7.12072,-5.168153 -7.45692,-5.168153 -0.13468,0 -0.34894,0.674688 -0.47613,1.499306 -0.69914,4.532655 -3.5013897,9.622622 -7.1168597,12.926964 -1.07624,0.98362 -3.29661,2.4523 -4.93415,3.263735 -1.63754,0.811435 -2.97735,1.572891 -2.97735,1.692125 0,0.700436 6.90605,8.491383 9.35417,10.552761 l 1.40555,1.183505 -3.10865,-0.17569 c -4.37269,-0.247129 -6.87522,-1.504643 -9.83272,-4.940902 -2.20277,-2.559356 -7.0560303,-9.790027 -12.0653403,-17.975668 -1.51376,-2.473611 -2.86516,-4.567232 -3.00311,-4.65249 -0.4276,-0.264271 -9.38842,5.477417 -16.96934,10.873183 -15.07406,10.72905 -21.27348,14.672908 -26.16469,16.645068 l -2.83042,1.141239 1.88575,0.547637 c 3.93125,1.141669 7.19379,1.432015 16.26102,1.447134 4.99598,0.0083 9.08379,0.04362 9.08403,0.07841 2.3e-4,0.0348 -0.96045,1.066672 -2.13484,2.293055 -6.2648,6.542144 -13.00488,16.991515 -17.60976,27.3010173 -1.71897,3.8484457 -5.45502,14.1167876 -6.85693,18.8458677 -0.68648,2.315713 -1.19115,2.771315 5.27134,-4.7587681 13.24758,-15.4360633 22.27399,-24.3934469 29.01763,-28.7957429 4.35226,-2.841185 4.40906,-2.112044 0.22815,2.928601 -4.28044,5.160632 -7.54453,10.2050338 -10.68867,16.5185315 -5.38379,10.8107504 -7.62052,20.3046255 -7.60487,32.2791645 0.009,6.898395 0.50399,10.727254 2.0978,16.22715 0.99688,3.44001 3.62547,9.702014 4.07261,9.702014 0.15256,0 0.46449,-0.912812 0.69318,-2.028472 1.93907,-9.459824 8.8176,-23.117404 16.46872,-32.699262 4.17731,-5.231443 12.63454,-12.9377441 20.0750903,-18.2925901 7.55892,-5.440032 20.3041497,-12.1603709 34.8806797,-18.3919839 16.60538,-7.09896 23.89797,-11.388429 31.14451,-18.319062 3.28417,-3.140998 3.25069,-2.854657 -0.28324,2.422412 -5.83951,8.719902 -11.59867,14.662445 -21.39271,22.073926 -1.38924,1.0512844 -2.81799,2.1088385 -3.175,2.3501202 -0.53206,0.3595856 -0.10838,0.4020466 2.3495,0.2354663 14.5903,-0.9888429 29.51801,-6.9968755 38.86771,-15.6432885 3.19978,-2.959092 4.76913,-4.99205 7.20777,-9.337071 1.61664,-2.880416 1.9059,-3.210465 2.81373,-3.210465 1.547,0 1.77738,1.134971 1.27191,6.266067 -1.32213,13.421005 0.38234,21.2633001 9.2949,42.765865 1.60939,3.882851 3.479175,8.726605 4.155055,10.763896 4.41873,13.319154 5.39103,26.494959 2.84784,38.591442 -0.93906,4.466544 -3.17637,11.77797 -4.572475,14.942582 -0.44938,1.018645 -0.73,1.852083 -0.62359,1.852083 0.46894,0 5.867725,-4.806108 8.778735,-7.815017 8.81153,-9.107843 14.35077,-18.887646 18.32503,-32.353759 0.87146,-2.952816 4.40501,-19.302952 4.41328,-20.420803 3.6e-4,-0.04851 0.1357,-0.08819 0.30074,-0.08819 0.16505,0 0.60161,1.230312 0.97014,2.734028 1.07915,4.403277 0.92559,13.081122 -0.32901,18.592268 -2.67502,11.750658 -7.55799,21.654661 -15.43542,31.307242 -1.53555,1.881574 -2.7919,3.693969 -2.7919,4.027546 0,0.333577 -0.094,0.51249 -0.20892,0.397583 -0.11491,-0.114906 -0.67324,0.204784 -1.24073,0.710423 -0.75043,0.668636 -0.91072,0.99418 -0.58778,1.193768 0.35231,0.21774 0.34445,0.368544 -0.0381,0.730086 -0.37311,0.352633 -0.5179,0.358292 -0.64037,0.02502 -0.12457,-0.338998 -0.25744,-0.338998 -0.62443,0 -0.2564,0.236851 -0.37894,0.574228 -0.27231,0.749728 0.10695,0.176044 -0.006,0.19532 -0.25286,0.043 -0.2457,-0.151851 -0.54804,-0.136691 -0.67187,0.03369 -0.12383,0.170379 -1.11929,1.060168 -2.21213,1.977309 -1.87265,1.571577 -2.01193,1.799726 -2.42047,3.964903 -0.23841,1.263555 -0.33827,2.545475 -0.22191,2.848705 0.11636,0.30324 0.0719,0.46503 -0.0988,0.35955 -0.79102,-0.48888 -0.54895,11.54247 0.32146,15.977239 0.44825,2.28388 1.45401,5.35567 1.74233,5.32141 0.10719,-0.0127 1.50291,-1.56054 3.10159,-3.43958 z m -3.25947,2.05163 c 0.11991,-0.19403 0.2974,-0.35278 0.39441,-0.35278 0.097,0 0.0783,0.15875 -0.0416,0.35278 -0.11991,0.19403 -0.2974,0.35278 -0.39441,0.35278 -0.097,0 -0.0783,-0.15875 0.0416,-0.35278 z m -1.94028,-18.873608 c 0,-0.097 0.0794,-0.17639 0.17639,-0.17639 0.097,0 0.17639,0.0794 0.17639,0.17639 0,0.097 -0.0794,0.17639 -0.17639,0.17639 -0.097,0 -0.17639,-0.0794 -0.17639,-0.17639 z m 0.35278,-2.293056 c 0,-0.258703 0.10583,-0.364537 0.23518,-0.235185 0.12935,0.129352 0.12935,0.341019 0,0.470371 -0.12935,0.129351 -0.23518,0.02352 -0.23518,-0.235186 z m 8.13657,-8.449068 c -0.44013,-0.275121 -0.44013,-0.398326 0,-0.940374 0.27856,-0.343074 0.31901,-0.511334 0.0899,-0.37391 -0.22913,0.137424 -0.51631,0.08852 -0.63819,-0.10867 -0.12187,-0.197193 0.0309,-0.358532 0.33948,-0.358532 0.62358,0 1.01409,0.729896 0.83333,1.557603 -0.0817,0.374011 -0.27403,0.442969 -0.62451,0.223883 z M -2.3609647,104.27618 c 0,-2.09642 -0.0122,-2.12268 -0.79375,-1.71168 -0.43656,0.22957 -1.49937,0.89907 -2.3618,1.48777 l -1.56806,1.07037 1.74445,0.61397 c 2.89672,1.01952 2.97916,0.9791 2.97916,-1.46043 z m 10.00606,1.19903 c 1.15252,-1.15252 1.19278,-2.45495 0.12504,-4.04486 -1.42257,-2.118278 -4.12094,-1.661448 -5.33821,0.90374 -0.76236,1.60657 -0.70636,2.19255 0.30635,3.20526 1.24826,1.24825 3.6255,1.21718 4.90682,-0.0641 z m 71.1479297,-1.18662 c 0.80531,0 1.74878,-1.6113 1.74878,-2.98663 0,-1.666878 -0.67497,-2.794228 -2.12056,-3.541768 -1.5019,-0.77666 -2.39743,-0.64955 -3.55102,0.50404 -1.92647,1.926478 -1.07195,5.230518 1.54864,5.987828 0.61838,0.17871 1.33575,0.26003 1.59416,0.18073 0.2584,-0.0793 0.6094,-0.1442 0.78,-0.1442 z m 14.94621,-3.31539 c 0.64918,-0.27125 1.28014,-0.65468 1.40214,-0.85208 0.37769,-0.611098 -1.41037,-2.364288 -3.60348,-3.533208 -1.67318,-0.89179 -2.16898,-1.0239 -2.4721,-0.65867 -0.62171,0.74912 -0.88048,3.24711 -0.42461,4.098908 0.75277,1.40656 2.99756,1.82269 5.09805,0.94505 z m -47.94604,-4.812748 c 13.41305,-0.98898 28.12041,-4.44459 39.79285,-9.349642 l 3.10395,-1.304361 1.60067,-3.397121 c 7.0859,-15.038489 9.70525,-26.949951 8.64797,-39.326513 -0.77151,-9.031359 -2.72438,-16.066097 -7.89852,-28.452547 -4.13768,-9.9052301 -6.02322,-14.97410907 -7.30776,-19.6453818 -1.0304,-3.7470564 -2.12698,-10.1608292 -2.13762,-12.5026682 -0.01,-2.175411 -0.36855,-2.164903 -3.17705,0.09307 -9.76592,7.8516107 -20.18678,12.4254693 -33.58385,14.7404141 -4.69809,0.8118063 -16.24594,1.6164303 -18.59688,1.2957833 -4.285,-0.584433 -4.60966,-3.7637608 -0.67879,-6.6471916 0.99191,-0.7276041 1.70186,-1.3229165 1.57766,-1.3229165 -0.46321,0 -9.3789,4.0540126 -13.99924,6.3655303 C 5.3468253,0.60406343 -1.2480747,4.6214104 -5.8639847,8.2813034 l -0.8572,0.679656 2.02573,1.1432486 c 11.259,6.35419 14.8867997,22.054177 7.61002,32.933861 -4.2514,6.356371 -10.39153,9.725917 -17.7482203,9.739759 -6.81342,0.01282 -12.61941,-3.104735 -16.61823,-8.923238 l -1.86588,-2.71496 -0.72589,1.687372 c -2.02889,4.716281 -3.59508,10.944165 -3.59508,14.295662 0,4.311717 3.98155,11.962406 9.19286,17.664416 8.2095,8.982495 22.5754403,16.164482 38.78491,19.389792 4.06836,0.80951 11.36625,1.82391 15.16944,2.10854 3.78361,0.28316 15.7493,0.20945 20.28472,-0.12496 z m 21.69584,-42.180908 c -10.31824,-2.770125 -17.61545,-12.318329 -17.63029,-23.068772 -0.0191,-13.837937 11.75401,-24.7644121 24.8022,-23.0185821 3.68078,0.492484 6.25411,1.462723 9.48176,3.5749751 4.74254,3.10363 8.0045,7.419734 10.02899,13.269996 0.84846,2.451806 0.97606,3.354696 0.97224,6.879167 -0.005,4.500176 -0.51961,6.791542 -2.3336,10.3885 -4.03549,8.00197 -11.53656,12.567349 -20.5588,12.512711 -1.55223,-0.0094 -3.69535,-0.251498 -4.7625,-0.537995 z m 16.85608,-11.542808 c 0.44258,-0.442292 0.89923,-1.386734 1.01478,-2.09876 0.1868,-1.151143 0.0673,-1.437393 -1.07864,-2.583316 -1.13382,-1.133821 -1.43979,-1.264207 -2.54556,-1.084765 -1.55781,0.252796 -2.22243,0.787296 -2.85211,2.293726 -0.43561,1.042113 -0.4196,1.318626 0.14284,2.46666 1.11717,2.280374 3.57797,2.746031 5.31869,1.006455 z M 74.425955,32.26107 c 6.39422,-2.992982 8.58521,-11.527612 4.33648,-16.89207 -2.83607,-3.580824 -8.9256,-4.64124 -13.56646,-2.362431 -7.60965,3.736578 -8.22006,14.536343 -1.07132,18.954509 2.56551,1.585571 7.26255,1.722357 10.3013,0.299992 z m -41.50914,20.83211 c -2.19807,-0.87391 -3.85794,-3.339692 -4.60214,-6.836576 l -0.45046,-2.116666 -0.40025,2.1391 c -0.87679,4.685867 -3.53477,7.105685 -7.44855,6.781124 -3.92454,-0.325453 -6.13829,-3.384681 -6.41091,-8.859333 -0.14666,-2.945398 -0.0934,-3.307148 0.5935,-4.029641 0.97586,-1.026456 1.29291,-1.003595 3.66943,0.264583 2.48412,1.325604 3.25636,1.322973 5.91709,-0.02016 3.41302,-1.722887 5.03425,-1.750298 8.9891,-0.151985 l 3.32603,1.344181 2.1623,-1.115185 c 2.47537,-1.27665 3.15021,-1.362784 3.90037,-0.497824 0.80993,0.933884 1.00323,2.630378 0.63269,5.552854 -0.49645,3.915615 -2.16981,6.610571 -4.6977,7.565674 -1.22345,0.462253 -3.99427,0.451477 -5.1805,-0.02015 z m 4.28651,-3.51365 c 0.81525,-0.436309 2.04424,-2.919949 2.05574,-4.154419 0.006,-0.658133 -0.12097,-0.776623 -0.60961,-0.568318 -1.33599,0.569518 -4.51652,0.593264 -5.83219,0.04354 -1.49735,-0.625634 -1.49621,-0.628288 -0.77449,1.802023 0.82609,2.781748 3.03633,4.014023 5.16055,2.877171 z m -14.91108,-0.546809 c 0.8867,-0.621068 1.80512,-2.482791 1.80512,-3.659143 0,-0.611718 -0.11001,-0.670421 -0.68236,-0.364108 -0.89674,0.479921 -4.46137,0.469184 -5.36826,-0.01617 -0.9647,-0.51629 -1.04848,-0.33998 -0.60972,1.28314 0.76072,2.814206 2.97658,4.072134 4.85522,2.756281 z m 73.77178,41.698711 v -2.97377 l -1.56885,0.87685 c -1.04276,0.58281 -1.5033,1.04767 -1.37337,1.38627 0.10853,0.28282 -0.008,0.50943 -0.26246,0.50943 -0.27241,0 -0.1805,0.20985 0.22684,0.51795 0.37663,0.28487 1.06843,0.52299 1.53733,0.52916 0.46891,0.006 0.74809,0.11568 0.62043,0.24335 -0.12767,0.12767 -0.0553,0.44517 0.16078,0.70555 0.291,0.35062 0.2848,0.47343 -0.0239,0.47343 -0.22923,0 -0.31868,0.15875 -0.19876,0.35278 0.58832,0.95193 0.88194,0.0793 0.88194,-2.621 z m -1.99907,-0.0836 c 0.12935,-0.12935 0.34102,-0.12935 0.47037,0 0.12935,0.12935 0.0235,0.23519 -0.23518,0.23519 -0.25871,0 -0.36454,-0.10584 -0.23519,-0.23519 z m 0.94074,-0.64676 c 0,-0.097 0.0794,-0.17639 0.17639,-0.17639 0.097,0 0.17639,0.0794 0.17639,0.17639 0,0.097 -0.0794,0.17639 -0.17639,0.17639 -0.097,0 -0.17639,-0.0794 -0.17639,-0.17639 z m -1.41111,-0.35277 c 0,-0.097 0.0794,-0.17639 0.17639,-0.17639 0.097,0 0.17639,0.0794 0.17639,0.17639 0,0.097 -0.0794,0.17638 -0.17639,0.17638 -0.097,0 -0.17639,-0.0794 -0.17639,-0.17638 z m 0.88194,2.64583 c 0.11992,-0.19403 0.0593,-0.35278 -0.13475,-0.35278 -0.19402,0 -0.45089,0.15875 -0.5708,0.35278 -0.11992,0.19403 -0.0593,0.35278 0.13475,0.35278 0.19403,0 0.45089,-0.15875 0.5708,-0.35278 z m -1.5875,-0.50835 c 0,-0.37235 -0.67702,-0.52878 -0.87838,-0.20296 -0.12188,0.19719 0.0259,0.35853 0.3284,0.35853 0.30249,0 0.54998,-0.07 0.54998,-0.15557 z m -1.17592,-1.13795 c -0.12935,-0.12935 -0.34102,-0.12935 -0.47037,0 -0.12935,0.12935 -0.0235,0.23519 0.23518,0.23519 0.25871,0 0.36454,-0.10584 0.23519,-0.23519 z M -5.1878747,41.935077 c 1.40355,-1.278806 1.65421,-2.747918 0.72377,-4.242127 -1.33713,-2.147339 -3.83839,-2.32066 -5.47204,-0.379176 -2.7001003,3.208887 1.65081,7.44346 4.74827,4.621303 z M -14.701985,31.371262 c 2.32248,-0.750077 5.3332403,-3.430893 6.6218403,-5.896169 0.76967,-1.472501 0.94051,-2.273157 0.94779,-4.442098 0.005,-1.501797 -0.20894,-3.179717 -0.49488,-3.880555 -0.6595,-1.61639 -2.4446703,-4.138594 -3.1099003,-4.393868 -0.63007,-0.24178 -5.50984,4.423428 -9.762,9.332756 -3.04984,3.521199 -5.50312,6.657093 -5.49041,7.018091 0.0168,0.475646 2.83464,2.171695 4.10363,2.469924 2.20607,0.518455 5.20313,0.431646 7.18393,-0.208081 z m -39.6291,-17.812746 c -0.11261,-0.281422 -0.19621,-0.197829 -0.21313,0.213137 -0.0153,0.371887 0.0681,0.580246 0.18528,0.463021 0.11723,-0.117225 0.12976,-0.421496 0.0279,-0.676158 z m 0.35278,-1.411111 c -0.11262,-0.281422 -0.19621,-0.197829 -0.21314,0.213137 -0.0153,0.371887 0.0681,0.580246 0.18529,0.463021 0.11722,-0.117225 0.12976,-0.421496 0.0279,-0.676158 z m 0.46457,-1.168576 c 0,-0.09701 -0.0794,-0.176389 -0.17639,-0.176389 -0.097,0 -0.17639,0.07937 -0.17639,0.176389 0,0.09701 0.0794,0.176389 0.17639,0.176389 0.097,0 0.17639,-0.07937 0.17639,-0.176389 z m 0.23518,-1.4699071 c -0.12935,-0.129352 -0.23518,-0.02352 -0.23518,0.235185 0,0.2587041 0.10583,0.3645371 0.23518,0.235185 0.12936,-0.129352 0.12936,-0.341018 0,-0.47037 z m 0.47037,-1.352315 c 0,-0.09701 -0.0794,-0.176389 -0.17639,-0.176389 -0.097,0 -0.17638,0.07937 -0.17638,0.176389 0,0.09701 0.0794,0.176389 0.17638,0.176389 0.097,0 0.17639,-0.07937 0.17639,-0.176389 z M 110.23769,-41.058217 c 8.34232,-2.375822 10.05538,-14.490034 3.81596,-26.98517 -1.16265,-2.328333 -3.1788,-5.662083 -4.48034,-7.408332 -4.46004,-5.983957 -13.902175,-14.726147 -18.049755,-16.711732 l -1.18908,-0.569255 -1.20418,1.393022 c -1.3958,1.614703 -4.65207,8.142013 -5.72614,11.478243 -1.63688,5.084426 -2.25025,9.090822 -2.24138,14.640069 0.009,5.630318 -0.40015,7.605905 -1.72172,8.313188 -0.87704,0.469379 -0.83229,1.186634 0.21429,3.434719 2.65552,5.704097 11.18539,11.20446 19.81643,12.778324 2.077545,0.378839 8.977935,0.146127 10.765915,-0.363076 z M 93.090615,-53.957475 c -0.3049,-0.304901 -0.55436,-0.94174 -0.55436,-1.415199 0,-0.473458 -0.635,-4.706458 -1.41111,-9.406666 -0.77612,-4.700207 -1.41112,-8.960013 -1.41112,-9.466235 0,-0.940282 0.94629,-2.088089 1.72148,-2.088089 0.23716,0 0.64522,0.515938 0.90681,1.146528 0.78516,1.892725 3.71827,17.284789 3.72059,19.524489 0.002,1.860073 -1.78961,2.887854 -2.97229,1.705172 z M -2.8450447,-58.62779 c 1.86408,-0.950981 4.5909,-3.037427 6.04831,-4.627904 2.16796,-2.3659 4.31355,-7.812028 4.31355,-10.949024 0,-0.749216 -0.34287,-1.279923 -1.32292,-2.047685 -1.49429,-1.170611 -10.89175,-7.489594 -11.13837,-7.489594 -0.0881,0 -0.27003,0.585508 -0.40428,1.301128 -0.65984,3.51725 -4.37256,8.336676 -8.1093003,10.526549 -0.97139,0.569274 -1.50922,1.099987 -1.36492,1.34686 0.99869,1.708548 7.0796903,11.219062 7.7449203,12.112836 0.93464,1.255739 1.47549,1.233614 4.23301,-0.173166 z m -39.2538603,-3.540156 c 2.93816,-2.104271 6.49305,-4.588187 7.89975,-5.519813 1.4067,-0.931626 2.55764,-1.736252 2.55764,-1.788056 0,-0.5375 -11.29741,-8.974515 -12.01714,-8.974515 -0.43117,0 -1.78905,3.556225 -2.64245,6.92043 -0.98242,3.872817 -1.93883,13.187901 -1.35405,13.187901 0.11778,0 2.61809,-1.721676 5.55625,-3.825947 z m 27.30329,-14.732072 c 2.88911,-1.880116 5.0824103,-5.288263 5.4797203,-8.51491 0.1719,-1.396064 0.0977,-1.563415 -1.1047003,-2.492554 -1.23009,-0.950508 -7.53946,-5.328505 -8.40347,-5.831064 -0.26691,-0.155256 -0.6155,0.374073 -0.99116,1.5051 -0.65965,1.986014 -2.23633,4.13067 -3.73632,5.082286 -1.00605,0.638246 -1.01282,0.664208 -0.46027,1.763889 0.30844,0.613859 1.76174,3.142123 3.22955,5.618364 3.01403,5.084738 2.76501,4.965404 5.98665,2.868889 z m -9.53891,-16.184481 c 0.42337,-0.645855 0.8178,-1.620351 0.87652,-2.165547 0.0983,-0.912253 -0.25879,-1.23783 -4.47934,-4.084616 -2.52237,-1.701348 -4.62959,-2.965448 -4.68273,-2.809108 -0.15188,0.44684 1.56776,4.144513 3.67993,7.912803 l 1.93138,3.445751 0.95224,-0.5625 c 0.52373,-0.309375 1.29863,-1.090928 1.722,-1.736783 z"
       id="path78" /></g></svg>
