<?xml version="1.0" encoding="UTF-8" standalone="no"?>
<!-- Created with Inkscape (http://www.inkscape.org/) -->

<svg
   width="325.97983mm"
   height="315.26038mm"
   viewBox="0 0 325.97984 315.26034"
   version="1.1"
   id="svg1"
   xml:space="preserve"
   xmlns="http://www.w3.org/2000/svg"
   xmlns:svg="http://www.w3.org/2000/svg"><defs
     id="defs1"><clipPath
       clipPathUnits="userSpaceOnUse"
       id="clipPath6"><path
         id="path7"
         style="fill:#ff0000;fill-opacity:1;fill-rule:nonzero;stroke:none;stroke-width:0.264583"
         d="M -175.07778,-16.057127 V 287.55793 H 124.54631 V -16.057127 Z m 132.7459,202.572647 c 0.210643,0.005 0.427212,0.0169 0.650089,0.0367 2.23823,0.19855 4.475655,0.4031 6.717938,0.55346 1.973313,0.11308 0.986628,0.0436 2.958475,0.20825 3.181295,0.26563 4.740125,1.85116 4.950601,3.46956 4.949923,1.63749 3.796379,7.35609 -2.592089,6.81354 -3.228716,-0.27422 -1.569593,-0.1301 -4.979024,-0.43357 -4.228209,-0.39317 -8.460616,-0.76265 -12.666927,-1.35341 -6.647387,-0.93358 -5.930551,-7.21034 0.03204,-7.20421 0.04685,5e-5 0.0972,0.004 0.144695,0.005 0.687229,-1.21692 2.304132,-2.15435 4.784204,-2.09548 z" /></clipPath></defs><g
     id="layer1"
     transform="translate(137.34874,27.485165)"><path
       style="fill:#000000"
       d="m 34.570977,287.58649 c -0.97014,-0.064 -3.82764,-0.35275 -6.35,-0.64169 -2.52236,-0.28894 -7.44361,-0.68018 -10.93611,-0.86943 -3.4925,-0.18924 -9.3662504,-0.533 -13.0527804,-0.7639 -6.46241,-0.40477 -7.031,-0.38442 -15.8552196,0.56772 -13.95899,1.50617 -17.80413,1.03941 -21.84253,-2.65147 -2.1376,-1.95364 -4.14203,-5.43451 -4.97834,-8.64533 -0.74479,-2.85942 -0.68547,-7.95816 0.11969,-10.28853 0.4281,-1.23904 0.58407,-2.46467 0.47738,-3.75127 -0.19917,-2.40173 0.63398,-6.56567 2.25011,-11.24567 1.39087,-4.02768 4.15143,-10.04544 5.5573,-12.11436 0.50348,-0.74094 0.85371,-1.40888 0.77828,-1.4843 -0.34197,-0.34198 -10.86965,7.65309 -16.0634,12.19908 -2.25798,1.97636 -2.68514,2.21228 -3.83252,2.11667 -1.07912,-0.0899 -1.39035,-0.31049 -1.89412,-1.34233 -1.58072,-3.23768 -2.44638,-14.81487 -1.70216,-22.76423 0.24647,-2.63263 0.38251,-4.85222 0.3023,-4.93243 -0.25884,-0.25884 -8.0645,4.35644 -14.07019,8.31934 -6.0905,4.01887 -7.13288,4.41722 -8.69526,3.32288 -1.61887,-1.1339 -3.29974,-8.23898 -3.79661,-16.04834 -0.27895,-4.38433 0.26814,-11.44824 1.27664,-16.48377 l 0.72248,-3.60738 -1.72098,-2.38984 c -2.37031,-3.29152 -3.72913,-5.50436 -5.09585,-8.29864 -0.87743,-1.79392 -1.30792,-2.33554 -1.74586,-2.19654 -4.07089,1.29205 -26.846957,6.95407 -28.603857,7.11078 -2.19473,0.19577 -2.40883,0.14952 -3.26319,-0.70484 -1.09246,-1.09246 -1.15941,-2.25297 -0.35566,-6.16478 1.25699,-6.1177 4.10917,-13.60831 7.5592,-19.85258 3.48709,-6.31134 6.78877,-10.78777 12.130177,-16.44613 l 3.05915,-3.24068 -0.2838,-1.69821 -0.28381,-1.69821 -5.460777,-0.20177 c -7.4106,-0.2738 -8.80741,-0.81113 -8.81516,-3.39101 -0.002,-0.79003 0.62038,-1.58781 3.04272,-3.8979 1.92552,-1.83629 2.86729,-2.96214 2.56062,-3.06112 -0.48221,-0.15563 -12.23876,-1.41621 -24.58128,-2.6357 -7.39049,-0.73021 -8.27666,-1.07959 -8.46878,-3.33888 -0.30738,-3.61471 8.86953,-14.89965 16.81724,-20.68032 l 2.44336,-1.77715 -1.01679,-3.16182 c -1.47459,-4.585431 -2.08315,-8.649738 -2.08187,-13.904016 0.002,-7.349583 1.22655,-12.959454 4.06994,-18.641875 3.12593,-6.247066 6.2036,-10.142672 11.10553,-14.056988 1.74232,-1.391282 3.16785,-2.575671 3.16785,-2.631974 0,-0.0563 -0.68996,-0.436375 -1.53324,-0.844602 -2.22137,-1.075345 -2.89207,-2.888421 -1.82897,-4.944212 0.79738,-1.541965 5.25222,-5.449209 9.359427,-8.20895 11.76454,-7.904899 28.8729,-13.298543 45.66657,-14.397015 3.09446,-0.202409 5.67523,-0.416958 5.73505,-0.476776 0.23191,-0.23191 -10.19985,-10.138452 -14.88912,-14.139483 -6.69906,-5.715849 -7.58472,-6.686324 -7.58472,-8.311069 0,-0.815826 0.24297,-1.517623 0.6543,-1.889871 1.62471,-1.470341 10.99035,-2.292277 18.92486,-1.660862 12.16152,0.967793 22.72413,3.779718 33.26278,8.855049 4.70697,2.266836 9.6711396,5.077053 11.1011896,6.284381 1.29881,1.096529 0.97509,-0.04792 -1.15128,-4.070153 -2.71947,-5.144113 -5.8564696,-10.492354 -11.6498896,-19.861743 -5.26932,-8.521784 -5.98641,-9.865811 -5.98641,-11.220157 0,-3.226735 5.03536,-2.772702 15.6712896,1.413061 12.83524,5.051307 24.0440604,12.260757 33.6717304,21.657481 2.63857,2.575283 4.81923,4.653408 4.8459,4.618056 0.0267,-0.03535 -0.16424,-2.04865 -0.42424,-4.473997 -0.26,-2.425347 -0.56977,-6.632222 -0.68838,-9.34861 -0.20086,-4.600192 -0.1654,-5.018008 0.5171,-6.09261 1.46801,-2.311378 3.2855,-2.342968 7.55928,-0.131386 7.44333,3.851756 15.3563,11.35998 21.16022,20.077892 2.07213,3.112488 2.22853,3.261086 3.23571,3.074452 4.67956,-0.867136 7.28372,-1.039395 15.52222,-1.026758 9.5534,0.01465 14.73556,0.481984 21.50292,1.939149 4.342593,0.935056 4.231903,0.958007 4.351823,-0.902379 0.44477,-6.899941 6.46365,-11.241753 12.66523,-9.136262 1.58302,0.537449 1.70008,0.533993 2.0408,-0.06025 0.91113,-1.589123 2.98537,-3.514928 4.59478,-4.265979 4.01308,-1.872754 9.18972,-0.521796 11.79811,3.078974 0.5691,0.785622 1.0867,1.584305 1.15021,1.774853 0.0686,0.205753 0.6459,0.12483 1.42156,-0.199261 0.71875,-0.300313 2.30265,-0.542227 3.52226,-0.537963 5.27038,0.01843 9.49338,3.926952 10.04789,9.299651 0.18553,1.797603 0.28283,1.981489 1.04843,1.981489 3.54302,0 7.88913,4.568292 7.86907,8.271349 -0.009,1.574222 -1.14273,4.42865 -1.75972,4.42865 -0.21496,0 -0.30385,0.140763 -0.19752,0.312806 0.10633,0.172043 -0.0406,0.50691 -0.32641,0.744149 -0.44665,0.370689 -0.35486,0.623967 0.6528,1.801188 1.99763,2.333784 2.47117,5.047156 1.3223,7.57673 -0.80256,1.76705 -2.10368,3.103906 -3.92554,4.033353 -1.26656,0.646147 -1.35443,0.782015 -1.04024,1.608402 1.72419,4.534955 -2.57123,10.028926 -7.84103,10.028926 -0.67276,0 -1.30985,0.08666 -1.41577,0.192576 -0.10592,0.105917 0.18597,1.384625 0.64864,2.841574 0.79924,2.516829 2.21395,9.059352 2.84085,13.137887 l 0.28966,1.884539 3.80238,1.696995 c 8.79128,3.923533 17.50909,9.852195 24.11044,16.396611 4.07297,4.037834 4.84019,5.344148 4.02897,6.859927 -0.582,1.087477 -1.21213,1.321282 -9.10745,3.379245 -4.02166,1.048272 -9.6454,2.593176 -12.49719,3.43312 l -5.18508,1.527172 4.40793,3.130264 c 10.02328,7.11797 16.84781,13.94441 22.77204,22.77842 2.57868,3.84523 6.11469,10.78083 6.58637,12.91863 0.43952,1.99202 -0.19567,3.43633 -1.75159,3.9828 -0.77273,0.2714 -6.75457,0.5453 -17.23487,0.78916 -8.82827,0.20542 -16.13012,0.44915 -16.22634,0.54163 -0.0962,0.0925 0.88828,1.14774 2.18779,2.34504 5.62861,5.18591 11.44776,12.1805 15.4585,18.58107 3.01009,4.80367 6.5806,12.57411 8.62933,18.77986 2.12811,6.44621 2.56297,8.8138 1.86281,10.14205 -0.9004,1.70812 -1.73754,1.68338 -9.68152,-0.2861 -9.75063,-2.41739 -16.24468,-3.72143 -23.92641,-4.80456 -8.50918,-1.19981 -8.29027,-1.17915 -8.29027,-0.78231 0,0.19193 0.64574,2.33384 1.43499,4.75978 4.41688,13.57642 5.76733,29.57651 3.30028,39.10188 -1.10822,4.2789 -2.51679,4.43717 -8.28594,0.93098 -2.24391,-1.36373 -5.94013,-3.47012 -8.21382,-4.68086 -4.3587,-2.32101 -14.03993,-6.78223 -14.25383,-6.56833 -0.0692,0.0692 0.121,1.89528 0.42265,4.05799 1.12437,8.06143 0.51775,18.98947 -1.38711,24.98789 -1.66395,5.23983 -2.5522,5.27221 -8.88494,0.32391 -2.55579,-1.99705 -5.294643,-4.0799 -6.086343,-4.62855 l -1.43945,-0.99754 -1.41188,1.60398 c -0.77654,0.88218 -2.56206,2.4407 -3.96783,3.46336 -1.40577,1.02266 -2.68427,1.96713 -2.84111,2.09882 -0.15683,0.1317 0.51785,0.75474 1.49931,1.38454 0.98146,0.62979 1.78446,1.28728 1.78446,1.46109 0,0.1738 0.20639,0.316 0.45865,0.316 0.50646,0 4.6563,3.24531 5.61457,4.39079 0.69357,0.82906 0.78532,1.71455 0.27622,2.66581 -0.85569,1.59887 -11.63857,7.77814 -16.66818,9.55192 -0.72761,0.2566 -1.32292,0.55877 -1.32292,0.67149 0,0.11272 1.19062,1.36457 2.64583,2.7819 3.04553,2.96624 3.28215,3.77058 1.49931,5.0966 -1.57241,1.1695 -7.5797,3.84849 -11.14039,4.96812 -4.22718,1.3292 -8.41729,1.97614 -12.79909,1.97614 -3.1568,0 -4.29177,0.15605 -6.48163,0.89116 -3.94227,1.32338 -11.11504,1.83527 -18.70319,1.33477 z m 2.06118,-3.65642 c 3.89196,-3.06142 1.70783,-19.1487 -3.06964,-22.60948 -3.76509,-2.72742 -8.02576,0.61832 -9.07778,7.12843 -0.81,5.01242 0.9296,11.29564 3.87441,13.99395 2.38908,2.18908 6.4521,2.91943 8.27301,1.4871 z m -60.09818,-0.68346 c 2.20075,-1.17781 2.01886,-10.40704 -0.32791,-16.63873 -1.513,-4.01767 -3.32992,-5.78653 -5.8868,-5.73107 -2.01784,0.0438 -3.23534,0.92173 -4.34177,3.13095 -1.0356,2.0678 -1.37963,6.39272 -0.74984,9.42643 0.45901,2.21102 2.39849,5.66243 4.26246,7.58525 2.08944,2.15542 5.28813,3.1668 7.04386,2.22717 z m 74.99996,-0.74902 c 0.79241,-0.36908 1.78981,-1.04261 2.21645,-1.49674 l 0.7757,-0.8257 -2.21645,-0.77153 c -1.21904,-0.42434 -2.47236,-0.85791 -2.78515,-0.96349 -0.70422,-0.23771 -0.91028,0.27375 -1.22265,3.03475 l -0.24428,2.15917 1.01782,-0.23271 c 0.5598,-0.12799 1.66615,-0.53468 2.45856,-0.90375 z m -28.84421,-0.57661 c -0.0671,-0.14552 -0.49675,-1.09802 -0.95479,-2.11667 -0.45804,-1.01864 -1.01168,-1.86388 -1.23032,-1.87829 -1.07773,-0.0711 -2.18301,-0.38361 -2.50665,-0.70881 -0.50151,-0.5039 -0.41545,-17.36371 0.12589,-24.66498 0.78413,-10.57595 2.45634,-25.05089 3.44189,-29.79366 l 0.21659,-1.04228 -1.74813,1.57145 c -4.20217,3.77744 -9.4331,5.28543 -14.5371404,4.19081 -1.84156,-0.39495 -4.06442,-1.65649 -3.99377,-2.26659 0.0225,-0.19403 -0.24832,-0.45975 -0.60176002,-0.5905 -0.35344,-0.13075 -0.93928,-0.88071 -1.30187,-1.66659 -0.36258,-0.78588 -0.75409998,-1.43297 -0.87003998,-1.43798 -0.11594,-0.005 -0.47874,2.33246 -0.80624,5.19437 -1.30774,11.42821 -1.61924,17.78438 -1.62946,33.24931 -0.006,9.15115 -0.14646,15.55944 -0.34784,15.87499 -0.27384,0.42911 -1.1152,0.51345 -4.44965,0.44605 l -4.1119596,-0.0831 0.21784,1.31784 c 0.11981,0.72482 0.21959,2.01411 0.22172,2.86511 l 0.004,1.54726 4.1016896,-0.25259 c 4.45473,-0.27432 5.18822,-0.42583 4.83425,-0.99857 -0.14247,-0.23052 -0.0198,-0.29423 0.31745,-0.16483 0.6792,0.26063 8.91731,1.28083 11.5605,1.43164 4.2411604,0.24198 14.1626504,0.22547 14.0479204,-0.0234 z M 5.2904166,253.65242 c -2.41937,-1.5112 -5.29408002,-5.55603 -6.50641,-9.15477 -0.80386,-2.38623 -0.96769,-6.40508 -0.35154,-8.62381 0.40909,-1.47311 2.12722998,-3.63329 3.14733,-3.95706 1.58502,-0.50306 2.31903,-0.46655 3.84861,0.19146 1.62783,0.70027 1.62991,0.70027 3.02493,-0.011 2.6976404,-1.37533 5.5026304,-0.67044 7.1324504,1.79239 0.91047,1.37581 0.99219,1.76888 0.97764,4.70208 -0.014,2.81722 -0.14528,3.47554 -1.09572,5.49382 -1.48293,3.14904 -3.89103,6.28972 -6.4651104,8.43189 -1.18872,0.98927 -2.27213,1.79807 -2.40758,1.79734 -0.13544,-7.2e-4 -0.72251,-0.29879 -1.3046,-0.66238 z m 2.9858,-11.14071 c 0.6462,-0.68785 0.95364,-0.7945 1.47934,-0.51315 0.9202604,0.49251 2.4847804,-0.30677 2.8974704,-1.48024 0.51011,-1.45048 0.002,-2.73096 -1.33742,-3.36963 -1.4333304,-0.68351 -2.7624404,-0.42783 -3.7640004,0.72407 l -0.7165,0.82405 -1.00979,-1.00979 c -1.85633,-1.85632 -4.59184,-0.95076 -4.59184,1.52007 0,1.48074 0.88904,2.40903 2.30716,2.40903 0.82615,0 1.29837,0.24251 1.71734,0.88195 0.74072,1.13047 1.96384,1.136 3.01824,0.0136 z m 3.5405904,0.33913 c 0,-0.097 -0.0794,-0.17638 -0.17639,-0.17638 -0.097,0 -0.17639,0.0794 -0.17639,0.17638 0,0.097 0.0794,0.17639 0.17639,0.17639 0.097,0 0.17639,-0.0794 0.17639,-0.17639 z m -2.4694404,-0.70555 c 0,-0.097 -0.0794,-0.17639 -0.17639,-0.17639 -0.097,0 -0.17639,0.0794 -0.17639,0.17639 0,0.097 0.0794,0.17639 0.17639,0.17639 0.097,0 0.17639,-0.0794 0.17639,-0.17639 z m 57.4042504,38.19617 c 1.84707,-0.42943 2.27041,-0.74802 1.42144,-1.06974 -1.08923,-0.41275 -4.14514,0.47897 -4.14514,1.20957 0,0.39708 0.53172,0.36978 2.7237,-0.13983 z m 1.03926,-1.91886 c -0.12935,-0.12935 -0.34102,-0.12935 -0.47037,0 -0.12935,0.12935 -0.0235,0.23519 0.23519,0.23519 0.2587,0 0.36453,-0.10584 0.23518,-0.23519 z m -5.35046,-2.14416 c 1.72268,-0.88751 2.8713,-2.08071 3.17267,-3.29583 0.5686,-2.29255 -6.12108,-5.75544 -13.88317,-7.18658 -1.62216,-0.29909 -3.50446,-0.5438 -4.18288,-0.5438 -1.03495,0 -1.1932,0.0994 -0.98314,0.61736 0.94966,2.34176 1.65998,4.76967 1.87142,6.39663 0.23732,1.82602 0.31434,1.93686 2.01206,2.89544 3.82382,2.15901 9.0292,2.64373 11.99304,1.11678 z m -41.79804,-4.23524 c 0.015,-7.57045 2.4625,-12.56247 7.40221,-15.09799 1.34252,-0.68911 6.68027,-0.9405 8.60386,-0.40521 l 1.01914,0.28361 -0.22229,-1.51833 c -0.53498,-3.65403 -0.67422,-16.61887 -0.24136,-22.47307 0.24674,-3.33705 0.34775,-6.16824 0.22446,-6.29153 -0.32022,-0.32022 -3.47353,0.52884 -6.56159,1.76679 -1.45521,0.58337 -2.88675,1.08554 -3.1812,1.11595 -0.29446,0.0304 -0.74158,0.18272 -0.99361,0.33848 -0.25203,0.15576 -0.52679,0.21466 -0.61057,0.13088 -0.20817,-0.20817 2.52638,-2.13409 4.25621,-2.99763 1.41595,-0.70684 6.26443,-2.35749 7.96352,-2.71116 0.88021,-0.18321 4.91287,-4.05411 4.91287,-4.71579 0,-0.18968 -1.14963,-0.12817 -2.72515,0.1458 -1.49883,0.26064 -5.66602,0.72177 -9.26041,1.02473 -3.5944,0.30296 -6.68409,0.59267 -6.86598,0.6438 -0.90063,0.25316 -3.2795,20.76876 -4.05536,34.97387 -0.63047,11.54307 -0.81292,17.34854 -0.56934,18.11599 0.51312,1.61671 0.89873,0.62382 0.90459,-2.32919 z M -6.1321034,258.37307 c 0.17909,-12.39668 0.38759,-16.94273 1.14066,-24.87084 0.50684,-5.33576 1.02511,-10.45545 1.15173,-11.37708 0.12661,-0.92163 0.0896,-1.68277 -0.0823,-1.69142 -0.1719,-0.009 -2.29691,-0.23288 -4.72226,-0.49829 -4.0069496,-0.4385 -4.5207396,-0.42901 -5.6252296,0.10392 -0.66853,0.32257 -1.26615,0.75217 -1.32805,0.95467 -0.0619,0.2025 0.59821,0.71349 1.46691,1.13554 2.76278,1.34226 5.5429996,4.34495 3.98707,4.3061 -0.24254,-0.006 -1.07598,-0.40212 -1.85209,-0.88014 -0.77611,-0.47802 -1.59063,-0.86994 -1.81004,-0.87093 -0.23863,-10e-4 -0.63469,1.59299 -0.9856,3.96694 -0.32267,2.18281 -0.89658,5.64695 -1.27536,7.69808 -0.69397,3.75794 -2.21064,16.02521 -2.64477,21.39166 l -0.23427,2.89599 1.22762,1.51373 c 1.94501,2.39831 2.90937,4.65603 4.14375,9.70115 l 0.36325,1.48464 2.72438,0.12589 c 1.4984096,0.0692 3.0418796,0.11553 3.4299296,0.10286 0.69075,-0.0225 0.71016,-0.34148 0.9247,-15.19247 z m 79.4797804,13.72058 c 0.79446,-0.30486 0.68994,-1.39936 -0.21406,-2.24156 -0.42464,-0.39562 -0.87576,-0.7193 -1.00249,-0.7193 -0.20424,0 -1.04766,2.37598 -1.04766,2.95134 0,0.28471 1.53032,0.29114 2.26421,0.01 z m -5.08643,-8.10892 c 0,-10.84328 -5.82138,-28.18279 -13.43168,-40.00749 -2.50272,-3.88867 -3.73024,-5.29167 -4.62983,-5.29167 -1.43243,0 -4.06228,1.68932 -7.28622,4.6804 l -3.40366,3.15781 -0.27477,2.3427 c -0.29908,2.55 -0.0729,6.41904 0.3936,6.73268 0.16044,0.10787 0.17159,1.38675 0.0248,2.84196 -0.26025,2.57957 0.12744,13.93578 0.59616,17.4625 0.21085,1.58646 0.46114,1.98036 2.48827,3.91588 l 2.25385,2.15199 3.43267,0.21939 c 5.85049,0.3739 13.87713,2.79449 17.55601,5.29436 2.24787,1.52747 2.28082,1.4769 2.28082,-3.50051 z m 6.70278,0.72231 c 1.48464,-0.2947 5.50892,-1.84979 6.61319,-2.55552 l 0.79235,-0.50638 -1.28373,-1.02019 c -2.91027,-2.31279 -2.9326,-3.12746 -0.12459,-4.54494 1.16417,-0.58767 2.11139,-1.18527 2.10493,-1.32799 -0.0492,-1.08702 -6.63917,-5.91534 -8.45105,-6.19185 -0.3729,-0.0569 -0.99736,-0.39248 -1.38768,-0.74572 -0.43686,-0.39536 -1.00034,-0.56623 -1.46582,-0.4445 -0.55045,0.14395 -0.80472,0.012 -0.93469,-0.48499 -0.0982,-0.3755 -0.29676,-0.68273 -0.44125,-0.68273 -0.29496,0 -0.26719,0.20231 0.87151,6.35 0.86235,4.65571 1.40156,9.16871 1.3603,11.38528 -0.0197,1.06081 0.0906,1.29898 0.54351,1.17287 0.31256,-0.087 1.12392,-0.26854 1.80302,-0.40334 z m -4.09063,-16.44265 c -0.15596,-0.25234 -0.0968,-0.31152 0.15557,-0.15557 0.40666,0.25134 0.54598,0.56286 0.25171,0.56286 -0.0856,0 -0.26884,-0.18328 -0.40728,-0.40729 z m -92.3226,10.72604 c -0.24797,-0.44772 1.17299,-12.99997 2.06666,-18.25625 0.47216,-2.77705 2.68383,-13.75799 3.21515,-15.96319 0.31549,-1.30941 -0.73193,-0.95131 -2.06375,0.70555 -1.71987,2.13962 -4.2437,6.32286 -6.59292,10.92775 -1.11593,2.18741 -2.60599,5.00899 -3.31125,6.27017 -1.79284,3.20607 -4.4448,9.94161 -5.05574,12.84078 -0.28209,1.33861 -0.45764,2.48908 -0.39011,2.55661 0.0675,0.0675 0.8716,-0.13238 1.78683,-0.44423 2.37268,-0.80846 5.85515,-0.53987 8.33337,0.6427 2.27534,1.08578 2.19919,1.05852 2.01176,0.72011 z m 91.9385,-14.6049 c 0.42381,-0.22307 0.84994,-0.50862 0.94695,-0.63454 0.097,-0.12593 1.49764,-1.15312 3.1125,-2.28265 2.95184,-2.0647 7.11806,-5.69153 7.11806,-6.19652 0,-0.64754 -5.15065,-2.88293 -9.64626,-4.1865 -4.77944,-1.38587 -6.10456,-1.50985 -5.73092,-0.53617 0.10207,0.266 -0.0281,0.48364 -0.28931,0.48364 -0.59997,0 -1.44842,0.99435 -1.12468,1.31809 0.13348,0.13348 0.56067,0.0441 0.94929,-0.19857 0.6945,-0.43373 0.69586,-0.4249 0.0796,0.51561 -0.45819,0.69929 -0.51028,0.99578 -0.19347,1.10139 0.23843,0.0795 0.4335,0.65514 0.4335,1.27927 0,0.62412 0.13115,1.28558 0.29144,1.4699 0.16029,0.18433 0.49326,1.04952 0.73994,1.92264 0.24668,0.87313 0.57159,1.83084 0.72204,2.12825 0.15044,0.29741 0.39328,1.08595 0.53964,1.75231 0.24326,1.10756 0.88652,2.46944 1.16638,2.46944 0.0631,0 0.46148,-0.18251 0.88528,-0.40559 z m -3.99194,-10.17774 c 0,-0.19403 0.16812,-0.35278 0.3736,-0.35278 0.20548,0 0.27548,0.15875 0.15557,0.35278 -0.11992,0.19403 -0.28804,0.35278 -0.3736,0.35278 -0.0856,0 -0.15557,-0.15875 -0.15557,-0.35278 z m -0.35278,-0.98326 c 0,-0.15274 0.32094,-0.30188 0.71318,-0.33143 0.39225,-0.0295 0.62101,0.0954 0.50835,0.27771 -0.24782,0.40098 -1.22153,0.44381 -1.22153,0.0537 z m 0.82315,-1.72137 c 0.12935,-0.12935 0.34102,-0.12935 0.47037,0 0.12935,0.12935 0.0235,0.23519 -0.23518,0.23519 -0.25871,0 -0.36454,-0.10584 -0.23519,-0.23519 z m -102.42314,8.17269 c 0,-0.097 -0.0794,-0.17639 -0.17639,-0.17639 -0.097,0 -0.17638,0.0794 -0.17638,0.17639 0,0.097 0.0794,0.17638 0.17638,0.17638 0.097,0 0.17639,-0.0794 0.17639,-0.17638 z m 141.191583,-2.85072 c 0.26969,-2.19234 -0.002,-7.20345 -0.38984,-7.20345 -0.12456,0 -0.4112,0.29579 -0.63697,0.65731 -0.59106,0.94644 -1.67058,1.11425 -2.72372,0.4234 -0.50284,-0.32986 -2.285083,-1.9198 -3.960523,-3.5332 -2.30999,-2.22446 -3.31207,-2.95659 -4.14604,-3.02916 -0.60488,-0.0526 -1.27882,0.0513 -1.49766,0.23096 -0.26871,0.22062 -0.46459,0.0716 -0.60337,-0.45911 -0.11301,-0.43218 -0.2971,-0.69416 -0.40907,-0.58219 -0.11198,0.11198 -0.0106,0.62711 0.22523,1.14475 0.29419,0.64567 0.60293,0.87088 0.98335,0.7173 0.30499,-0.12312 0.75945,-0.30748 1.00992,-0.40968 0.25047,-0.10221 0.43011,-0.0473 0.3992,0.12203 -0.13225,0.72441 0.0636,0.97397 0.38012,0.48426 0.28245,-0.43706 0.34292,-0.4044 0.34738,0.18764 0.004,0.51573 -0.24742,0.73773 -0.89591,0.7914 -0.52233,0.0432 -0.81025,-0.0728 -0.68474,-0.27584 0.11912,-0.19273 0.0578,-0.35043 -0.1362,-0.35043 -0.56239,0 -0.79549,0.62703 -0.30842,0.82966 0.32418,0.13485 0.27741,0.31915 -0.17419,0.68638 -0.33955,0.27611 -0.61736,0.68296 -0.61736,0.9041 0,0.22115 -0.16812,0.40209 -0.3736,0.40209 -0.20548,0 -0.27072,0.16645 -0.14498,0.3699 0.15489,0.25062 0.39782,0.22949 0.75326,-0.0655 0.42044,-0.34892 0.59472,-0.33481 0.8774,0.0711 0.26908,0.38635 0.39519,0.40189 0.53168,0.0655 0.20793,-0.51245 0.82568,-0.59622 0.82568,-0.11197 0,0.18095 -0.3175,0.42978 -0.70555,0.55294 -1.25205,0.39739 -0.77947,1.51112 0.52917,1.2471 0.19402,-0.0392 0.23653,0.0451 0.0945,0.18714 -0.14208,0.14208 0.8898,1.06223 2.29305,2.04479 1.40326,0.98256 3.821373,2.78302 5.373603,4.00102 1.55222,1.218 2.98097,2.16356 3.175,2.10125 0.19402,-0.0623 0.46836,-1.05297 0.60964,-2.20146 z m -143.346803,-6.34597 c 1.23997,-1.15071 2.90685,-2.68524 3.70416,-3.41006 3.20088,-2.90983 4.09185,-3.87072 3.89076,-4.19608 -0.11578,-0.18734 -1.0909,-0.30501 -2.16693,-0.26147 -1.48807,0.0602 -2.05995,-0.0624 -2.3889,-0.51231 -0.47806,-0.65377 -1.58942,-0.8061 -1.58942,-0.21785 0,0.20548 -0.13947,0.2874 -0.30993,0.18205 -0.17047,-0.10535 -1.39135,1.01198 -2.71307,2.48296 -2.33935,2.60351 -2.43824,2.6689 -3.7253,2.46309 l -1.32215,-0.21142 -0.18352,1.5 c -0.35524,2.90358 -0.55518,7.64274 -0.34548,8.1892 0.1633,0.42555 0.75076,0.0387 2.55368,-1.68161 1.28788,-1.22887 3.35612,-3.17579 4.5961,-4.3265 z m 6.03578,-6.50192 c 0,-0.25871 0.10583,-0.36454 0.23518,-0.23519 0.12936,0.12935 0.12936,0.34102 0,0.47037 -0.12935,0.12935 -0.23518,0.0235 -0.23518,-0.23518 z m 97.36666,5.8959 c 0,-0.24975 -0.30847,-0.47733 -0.68549,-0.50573 -0.4612,-0.0347 -0.62199,0.11384 -0.49143,0.45409 0.24128,0.62877 1.17692,0.66982 1.17692,0.0516 z m -2.11667,-0.78063 c 0,-0.097 -0.0794,-0.17639 -0.17639,-0.17639 -0.097,0 -0.17639,0.0794 -0.17639,0.17639 0,0.097 0.0794,0.17639 0.17639,0.17639 0.097,0 0.17639,-0.0794 0.17639,-0.17639 z M 5.6143466,226.58533 c 0.75511,-0.28977 0.70848,-1.79719 -0.0685,-2.21299 -1.30474,-0.69828 -2.47289,0.95054 -1.41964,2.00378 0.48052,0.48053 0.70045,0.51145 1.48809,0.20921 z m 7.0406104,-0.573 c 0.47971,-0.76176 -0.488,-1.89217 -1.33996,-1.56524 -0.55951,0.21471 -0.7705,1.66802 -0.30914,2.12938 0.39042,0.39042 1.22852,0.10372 1.6491,-0.56414 z m 77.83129,0.61074 c 0,-0.097 -0.0794,-0.17639 -0.17639,-0.17639 -0.097,0 -0.17639,0.0794 -0.17639,0.17639 0,0.097 0.0794,0.17639 0.17639,0.17639 0.097,0 0.17639,-0.0794 0.17639,-0.17639 z m -56.44444,-0.35278 c 0,-0.097 -0.0794,-0.17639 -0.17639,-0.17639 -0.097,0 -0.17639,0.0794 -0.17639,0.17639 0,0.097 0.0794,0.17639 0.17639,0.17639 0.097,0 0.17639,-0.0794 0.17639,-0.17639 z m 57.73796,-0.41157 c -0.12935,-0.12936 -0.23519,-0.0235 -0.23519,0.23518 0,0.25871 0.10584,0.36454 0.23519,0.23519 0.12935,-0.12935 0.12935,-0.34102 0,-0.47037 z m -102.18796,-0.29398 c 0,-0.097 -0.0794,-0.17639 -0.17639,-0.17639 -0.097,0 -0.17638,0.0794 -0.17638,0.17639 0,0.097 0.0794,0.17638 0.17638,0.17638 0.097,0 0.17639,-0.0794 0.17639,-0.17638 z m 72.31944,-0.52917 c 0,-0.19403 -0.23812,-0.35278 -0.52916,-0.35278 -0.29105,0 -0.52917,-0.14963 -0.52917,-0.33252 0,-0.18289 0.30908,-0.273 0.68685,-0.20025 0.55763,0.10739 0.98609,-0.47165 2.27743,-3.07783 1.48036,-2.98766 1.77636,-4.28935 0.79667,-3.50344 -0.56112,0.45014 -4.2095,0.49885 -3.93365,0.0525 0.11788,-0.19075 0.0647,-0.34681 -0.11811,-0.34681 -0.18285,0 -0.41966,0.33347 -0.52625,0.74105 -0.1067,0.40805 -0.36298,0.63648 -0.57031,0.50835 -0.20709,-0.12799 -0.37652,0.0148 -0.37652,0.31728 0,0.30249 -0.14888,0.54998 -0.33085,0.54998 -0.18197,0 -0.30622,-0.32699 -0.27612,-0.72665 0.0386,-0.51197 0.24054,-0.67806 0.68363,-0.56219 0.34589,0.0905 0.6289,0.01 0.6289,-0.17873 0,-0.18875 -0.43657,-0.29295 -0.97014,-0.23155 -0.75847,0.0873 -0.95274,0.27952 -0.8904,0.88114 0.0468,0.45168 -0.14188,0.81594 -0.45683,0.88194 -0.39183,0.0821 -0.15165,0.53684 0.8904,1.68581 0.78483,0.86536 1.42697,1.70817 1.42697,1.87291 0,0.16473 0.18327,0.18625 0.40728,0.0478 0.24225,-0.14972 0.31191,-0.0974 0.17191,0.12914 -0.32472,0.52541 0.4856,2.19761 1.06493,2.19761 0.2599,0 0.47254,-0.15875 0.47254,-0.35278 z m -1.76389,-2.64583 c 0,-0.097 0.0794,-0.17639 0.17639,-0.17639 0.097,0 0.17639,0.0794 0.17639,0.17639 0,0.097 -0.0794,0.17638 -0.17639,0.17638 -0.097,0 -0.17639,-0.0794 -0.17639,-0.17638 z m 1.05834,-0.66782 c 0,-0.0762 0.24637,-0.23318 0.54749,-0.34873 0.31394,-0.12048 0.45554,-0.0613 0.33195,0.13864 -0.20717,0.33521 -0.87944,0.49581 -0.87944,0.21009 z m -1.29352,-0.75881 c 0,-0.28251 0.13229,-0.51365 0.29398,-0.51365 0.16169,0 0.29398,0.14938 0.29398,0.33196 0,0.18257 -0.13229,0.41371 -0.29398,0.51364 -0.16169,0.0999 -0.29398,-0.0494 -0.29398,-0.33195 z m -1.05834,-0.39606 c 0.12936,-0.12935 0.34102,-0.12935 0.47037,0 0.12936,0.12935 0.0235,0.23519 -0.23518,0.23519 -0.2587,0 -0.36454,-0.10584 -0.23519,-0.23519 z m 4.11574,-0.11759 c 0,-0.25871 0.10584,-0.36454 0.23519,-0.23519 0.12935,0.12935 0.12935,0.34102 0,0.47037 -0.12935,0.12935 -0.23519,0.0235 -0.23519,-0.23518 z m -4.93888,-0.52917 c 0,-0.097 0.0794,-0.17639 0.17639,-0.17639 0.097,0 0.17638,0.0794 0.17638,0.17639 0,0.097 -0.0794,0.17639 -0.17638,0.17639 -0.097,0 -0.17639,-0.0794 -0.17639,-0.17639 z m 1.76389,-0.52917 c 0,-0.2587 0.10583,-0.36453 0.23518,-0.23518 0.12935,0.12935 0.12935,0.34102 0,0.47037 -0.12935,0.12935 -0.23518,0.0235 -0.23518,-0.23519 z m 3.88055,-0.35277 c 0,-0.19403 0.16812,-0.35278 0.3736,-0.35278 0.20548,0 0.27548,0.15875 0.15557,0.35278 -0.11992,0.19402 -0.28804,0.35277 -0.3736,0.35277 -0.0856,0 -0.15557,-0.15875 -0.15557,-0.35277 z m -5.64444,-0.52917 c 0,-0.097 0.0794,-0.17639 0.17639,-0.17639 0.097,0 0.17638,0.0794 0.17638,0.17639 0,0.097 -0.0794,0.17639 -0.17638,0.17639 -0.097,0 -0.17639,-0.0794 -0.17639,-0.17639 z m -43.21528,3.69483 c 1.16417,-0.44735 1.95792,-0.85362 1.76389,-0.90281 -0.19403,-0.0492 -3.50397,-0.16345 -7.3554204,-0.2539 -6.24186,-0.14658 -6.94484,-0.10663 -6.47053,0.36768 1.93894,1.93893 8.0323004,2.33753 12.0620604,0.78903 z m 78.14027,0.9121 c 0,-0.0856 -0.18327,-0.26884 -0.40728,-0.40728 -0.25234,-0.15596 -0.31153,-0.0968 -0.15557,0.15556 0.25133,0.40667 0.56285,0.54599 0.56285,0.25172 z m -154.90536,-8.29178 c 1.47497,-1.25055 2.7984,-2.44117 2.94095,-2.64583 0.14255,-0.20465 0.26161,-0.2336 0.26458,-0.0643 0.003,0.16928 0.24178,0.11161 0.53068,-0.12816 0.62962,-0.52254 0.37179,-1.11291 -0.3629,-0.83098 -0.37761,0.1449 -0.49562,-0.0202 -0.42967,-0.601 0.0713,-0.62798 -0.14165,-0.86304 -0.98687,-1.08939 -0.59277,-0.15874 -1.45388,-0.68897 -1.91358,-1.17829 -0.45969,-0.48933 -0.97822,-0.88968 -1.15228,-0.88968 -0.67185,0 -1.25231,0.99472 -1.64269,2.815 -0.48443,2.25878 -1.5407,4.09088 -2.50375,4.34272 -0.96459,0.25225 -2.28988,-0.88123 -3.56484,-3.04888 l -1.068,-1.81578 0.12976,6.1824 c 0.0714,3.40032 0.25336,6.3824 0.40443,6.62683 0.19339,0.31292 1.22131,-0.42046 3.47354,-2.47823 1.75938,-1.60747 4.40567,-3.94585 5.88064,-5.19641 z m -1.61036,-6.25172 c 0.12935,-0.12935 0.34101,-0.12935 0.47037,0 0.12935,0.12935 0.0235,0.23518 -0.23519,0.23518 -0.2587,0 -0.36454,-0.10583 -0.23518,-0.23518 z m 34.45462,14.1699 c 0,-0.097 -0.0794,-0.17639 -0.17639,-0.17639 -0.097,0 -0.17639,0.0794 -0.17639,0.17639 0,0.097 0.0794,0.17639 0.17639,0.17639 0.097,0 0.17639,-0.0794 0.17639,-0.17639 z M 138.46677,218.6506 c 0.33787,-4.2996 0.16071,-8.5178 -0.59117,-14.07614 -0.51663,-3.8192 -1.13857,-6.16226 -1.16474,-4.38797 -0.0165,1.11919 -1.39217,6.12825 -2.01937,7.35292 -0.66528,1.29904 -1.0753,1.60854 -2.14049,1.61576 -0.6472,0.004 -1.64579,-1.27567 -5.29166,-6.78317 -2.47166,-3.73372 -4.5733,-6.94862 -4.67032,-7.14423 -0.097,-0.1956 -0.45118,-0.67293 -0.78705,-1.06073 -0.33586,-0.38779 -0.82884,-1.00869 -1.09551,-1.37976 -0.33154,-0.46135 -0.69306,-0.59478 -1.14334,-0.42199 -0.5113,0.1962 -0.55371,0.31744 -0.18974,0.54238 0.50399,0.31149 0.14557,0.64279 -0.57672,0.53308 -0.24253,-0.0368 -0.58808,-0.0868 -0.76788,-0.11108 -0.1798,-0.0243 -0.40757,-0.32191 -0.50616,-0.66146 -0.0986,-0.33955 -0.15335,-0.0617 -0.12168,0.61736 0.0317,0.6791 0.21975,1.35135 0.41796,1.4939 0.22885,0.16458 0.19944,0.26116 -0.0806,0.26459 -0.24253,0.003 -0.44097,0.18113 -0.44097,0.39592 0,0.21479 0.23812,0.29914 0.52916,0.18746 0.29105,-0.11168 0.52917,-0.0493 0.52917,0.13865 0,0.18794 -0.24371,0.3417 -0.54158,0.3417 -0.78208,0 0.0136,1.40109 0.81858,1.44144 0.33272,0.0167 0.1423,0.16867 -0.42316,0.33777 -0.56546,0.16909 -1.14414,0.23574 -1.28595,0.14809 -0.32514,-0.20095 -0.68455,0.71007 -0.68455,1.73517 0,0.96805 -0.62515,1.6292 -1.54047,1.6292 -0.38159,0 -0.5874,0.10639 -0.45737,0.23642 0.13003,0.13003 -0.008,0.60914 -0.30628,1.06469 -0.49737,0.75908 -0.4901,0.8484 0.087,1.06934 0.34631,0.13259 0.86778,0.50719 1.15882,0.83245 0.29104,0.32525 4.81542,4.01367 10.05417,8.19648 5.23875,4.18282 10.16,8.15862 10.93611,8.83513 0.77611,0.67651 1.54591,1.09963 1.71068,0.94027 0.16476,-0.15936 0.42807,-1.925 0.58512,-3.92364 z m -21.52219,-19.5442 c 0,-0.097 0.0794,-0.17638 0.17639,-0.17638 0.097,0 0.17639,0.0794 0.17639,0.17638 0,0.097 -0.0794,0.17639 -0.17639,0.17639 -0.097,0 -0.17639,-0.0794 -0.17639,-0.17639 z m 1.41111,-0.35277 c 0,-0.097 0.0794,-0.17639 0.17639,-0.17639 0.097,0 0.17639,0.0794 0.17639,0.17639 0,0.097 -0.0794,0.17639 -0.17639,0.17639 -0.097,0 -0.17639,-0.0794 -0.17639,-0.17639 z m 0.35278,-2.46945 c 0,-0.097 0.0794,-0.17639 0.17639,-0.17639 0.097,0 0.17639,0.0794 0.17639,0.17639 0,0.097 -0.0794,0.17639 -0.17639,0.17639 -0.097,0 -0.17639,-0.0794 -0.17639,-0.17639 z m 0.88194,-0.17639 c -0.11991,-0.19402 -0.0499,-0.35277 0.15557,-0.35277 0.20548,0 0.3736,0.15875 0.3736,0.35277 0,0.19403 -0.07,0.35278 -0.15557,0.35278 -0.0856,0 -0.25368,-0.15875 -0.3736,-0.35278 z m -1.23472,-1.5875 c 0,-0.097 0.0794,-0.17639 0.17639,-0.17639 0.097,0 0.17639,0.0794 0.17639,0.17639 0,0.097 -0.0794,0.17639 -0.17639,0.17639 -0.097,0 -0.17639,-0.0794 -0.17639,-0.17639 z M 57.325137,218.1564 c 0,-0.097 -0.0794,-0.17639 -0.17639,-0.17639 -0.097,0 -0.17639,0.0794 -0.17639,0.17639 0,0.097 0.0794,0.17639 0.17639,0.17639 0.097,0 0.17639,-0.0794 0.17639,-0.17639 z m -21.87222,-1.37327 c 16.3484,-2.07612 27.6733,-5.45706 38.16432,-11.39358 l 4.12127,-2.33209 1.40953,-4.26859 c 2.3859,-7.2254 5.66238,-20.82172 5.14287,-21.34123 -0.10075,-0.10075 -0.61333,0.0973 -1.13906,0.44008 -1.52714,0.99574 -3.6744,1.91746 -5.06142,2.17264 l -1.28332,0.2361 0.29624,-1.53114 c 0.16293,-0.84212 0.60505,-2.72176 0.98249,-4.17697 0.37744,-1.45521 0.55594,-2.69471 0.39665,-2.75445 -0.15928,-0.0597 -1.77015,1.1359 -3.57972,2.65698 -5.70215,4.79308 -7.75771,5.97702 -14.55044,8.38063 -5.40319,1.91192 -8.44654,2.4341 -13.9633,2.39582 -6.02677,-0.0418 -9.94081,-0.93073 -15.06053,-3.42043 -3.24888,-1.57991 -4.45149,-2.4009 -6.79097,-4.63604 -1.56362,-1.49387 -2.84294,-2.85137 -2.84294,-3.01668 0,-0.1653 0.81845,0.31891 1.81878,1.07603 2.45327,1.85681 7.98922,4.7116 11.26346,5.80836 3.31398,1.11007 8.49862,1.97315 11.86428,1.97503 3.17107,0.002 8.56197,-1.03396 12.27153,-2.35766 9.9108,-3.53652 17.63493,-11.82429 20.32317,-21.8062 1.14709,-4.25937 1.14989,-12.87959 0.006,-17.25116 -2.04967,-7.83038 -5.50946,-13.31188 -11.45686,-18.15165 -6.95429,-5.65913 -14.0802,-8.15732 -22.00697,-7.71518 -4.13965,0.2309 -6.84623,0.91109 -10.14826,2.55037 -2.60016,1.29084 -6.00626,3.63451 -5.71109,3.92968 0.0957,0.0956 0.96093,-0.39149 1.92284,-1.08255 2.13104,-1.531 4.92845,-2.7966 7.90494,-3.57633 3.32685,-0.87151 9.47366,-0.55794 12.95573,0.66093 8.17261,2.86073 15.18519,9.74771 18.64347,18.30953 1.99366,4.9358 2.82842,13.72382 1.82117,19.17252 -0.36591,1.97942 -1.33288,4.38943 -1.36322,3.3976 -0.008,-0.25398 -0.17287,-0.36368 -0.3669,-0.24376 -0.19403,0.11992 -0.35308,0.0896 -0.35346,-0.0674 -0.001,-0.43898 -3.229,-2.51155 -4.32084,-2.77428 -0.59482,-0.14313 -0.97014,-0.46971 -0.97014,-0.84413 0,-0.33588 -0.39922,-0.79258 -0.88714,-1.0149 -0.74831,-0.34095 -0.99675,-0.2946 -1.5875,0.29615 -0.3852,0.3852 -0.70036,0.96568 -0.70036,1.28995 0,0.82261 1.03516,1.87986 1.84058,1.87986 0.62089,0 0.59622,0.14113 -0.31926,1.82616 -0.84501,1.55533 -4.65577,5.93495 -5.16407,5.93495 -0.0918,0 -0.98858,0.55294 -1.99284,1.22876 -1.54388,1.03896 -5.65593,2.65179 -6.76094,2.65179 -0.18919,0 -0.22919,-0.74319 -0.0946,-1.7577 0.30923,-2.33107 -0.41125,-3.53396 -2.1167,-3.53396 -1.52829,0 -2.49759,1.31331 -2.17742,2.9502 0.11907,0.60871 0.24029,1.30518 0.26939,1.54771 0.0291,0.24254 0.21695,0.44098 0.41744,0.44098 0.24844,0 0.24723,0.1173 -0.004,0.36833 -0.97458,0.97457 -7.82535,-1.13332 -11.14986,-3.43067 -1.39929,-0.96695 -1.73954,-1.87655 -0.70195,-1.87655 0.34153,0 1.0559,-0.4033 1.5875,-0.89622 2.00128,-1.8557 0.77605,-5.45378 -1.85714,-5.45378 -0.76513,0 -1.46274,0.3602 -2.3313,1.20373 -1.08832,1.05697 -1.36867,1.16666 -2.2994,0.89973 -0.61598,-0.17666 -1.41939,-0.16733 -1.91807,0.0223 -0.47196,0.17944 -0.85812,0.25907 -0.85812,0.17695 0,-0.41578 -2.47248,0.78252 -3.7405,1.81286 -0.79609,0.64687 -1.53534,1.17613 -1.64277,1.17613 -0.39288,0 -2.32444,-5.19283 -2.95248,-7.93749 -0.44695,-1.9533 -0.64798,-4.25102 -0.65293,-7.46284 -0.004,-2.55234 -0.11196,-4.57584 -0.24007,-4.49667 -0.60677,0.37501 -1.14913,5.71229 -1.10775,10.90117 0.0343,4.29752 0.20446,6.24973 0.71318,8.18096 0.36748,1.39509 0.55035,2.46371 0.40636,2.37472 -0.14398,-0.089 -0.74533,-1.41566 -1.33632,-2.94816 -3.52941,-9.15207 -2.66667,-22.25995 2.09667,-31.8552 2.52554,-5.08742 7.64827,-11.85944 8.57125,-11.33079 0.22799,0.13058 0.29268,0.10335 0.14374,-0.0605 -0.41676,-0.45857 1.84795,-2.61922 2.48795,-2.37363 0.34272,0.13152 0.45518,0.0645 0.30355,-0.18082 -0.5092,-0.82391 4.97377,-4.06873 9.29735,-5.50218 1.4552,-0.48246 3.95713,-1.0665 5.55984,-1.29787 2.52744,-0.36486 2.9327,-0.52052 3.05489,-1.17331 0.0775,-0.41395 0.30717,-1.76001 0.51043,-2.99125 0.47924,-2.90294 1.62879,-5.239241 3.00563,-6.108517 0.89778,-0.566815 1.54119,-0.665196 3.52304,-0.538691 2.06805,0.132007 3.00199,0.442974 6.35,2.114318 4.02675,2.01017 8.68783,5.47379 8.68783,6.45588 0,0.30294 0.19844,0.47841 0.44097,0.38992 0.24254,-0.0885 0.79754,0.16349 1.23333,0.55996 0.4358,0.39646 0.87041,0.64279 0.96579,0.54741 0.0954,-0.0954 -0.59736,-2.54341 -1.53943,-5.44005 -4.70285,-14.460077 -8.86543,-28.033433 -10.29715,-33.577033 -0.46352,-1.794757 -0.9629,-3.263194 -1.10973,-3.263194 -0.14682,0 -0.76773,0.992187 -1.37979,2.20486 -1.46074,2.894183 -4.77413,8.136419 -7.14829,11.309555 -11.42468,15.269426 -24.26592,25.142482 -44.1365304,33.934602 -7.71133002,3.41202 -20.4827896,7.71361 -25.7477996,8.67218 -1.16143,0.21146 -2.22268,0.45306 -2.35833,0.5369 -0.13565,0.0838 0.31658,1.14163 1.00496,2.35064 4.19648,7.3703 6.35135,18.26161 5.48257,27.71046 -0.21734,2.36382 -0.55693,4.57557 -0.75464,4.91502 -0.19771,0.33944 -0.3643,0.4277 -0.3702,0.19614 -0.006,-0.23157 -0.48697,-0.70236 -1.06906,-1.0462 -0.63747,-0.37657 -1.05833,-0.91759 -1.05833,-1.3605 0,-1.54485 -2.10398,-2.21849 -2.80981,-0.89963 -0.53467,0.99904 -0.47261,1.21725 0.69314,2.4371 1.24883,1.30678 1.28832,1.58944 0.35278,2.52498 -0.38805,0.38805 -0.61718,0.70555 -0.50916,0.70555 0.47565,0 -1.06919,1.72555 -2.91318,3.25395 -2.25067,1.86548 -5.41398,3.27644 -8.05073,3.59095 -1.56706,0.18692 -1.66091,0.16206 -0.87183,-0.23091 0.76496,-0.38096 0.88261,-0.67128 0.87201,-2.15177 -0.009,-1.26871 -0.18682,-1.83904 -0.68711,-2.20486 -2.2665,-1.65731 -4.78405,1.43594 -3.34981,4.11583 0.31575,0.58998 0.24589,0.68237 -0.51593,0.68237 -1.80136,0 -5.98146,-1.92139 -8.44241,-3.88056 -2.02769,-1.61424 -2.78488,-3.14666 -1.08467,-2.19518 0.93152,0.52131 2.63404,-1.2726 2.86879,-3.02277 0.16239,-1.21073 0.052,-1.57117 -0.7168,-2.33995 -0.96309,-0.96309 -2.93008,-1.24785 -3.64959,-0.52834 -0.20923,0.20923 -1.50805,0.52201 -2.88626,0.69506 -2.76067,0.34664 -4.85589,1.25426 -6.17199,2.67361 -0.83339,0.89879 -0.87132,0.90587 -1.23284,0.23036 -0.20515,-0.38332 -0.72338,-2.03082 -1.15162,-3.66111 -1.57141,-5.98223 -0.83879,-13.45765 1.98957,-20.30078 0.71027,-1.71848 1.32977,-3.16441 1.37667,-3.21319 0.0469,-0.0488 0.0117,1.18224 -0.0782,2.73557 -0.28624,4.94458 1.23355,7.93521 4.47628,8.80838 4.2315,1.13943 9.1441,-2.28036 11.91095,-8.29152 1.75018,-3.80238 1.48471,-10.73934 -0.4995,-13.05238 -1.75993,-2.05158 -4.69187,-2.56241 -7.24275,-1.2619 -0.72012,0.36714 -1.30931,0.5406 -1.30931,0.38547 0,-0.70163 3.74575,-3.5533 5.558,-4.23135 2.81502,-1.05323 7.08377,-1.28812 9.91505,-0.54559 2.14098,0.5615 3.21853,0.49399 2.19658,-0.13761 -1.16241,-0.7184 -4.74352,-1.15084 -8.19995,-0.99019 -6.18387,0.28742 -10.47837,2.28037 -15.33143,7.11485 -3.49591,3.48253 -5.87443,7.05842 -7.83129,11.77363 -2.52238,6.07788 -3.05205,8.83738 -3.02751,15.77299 0.0253,7.14968 0.55948,9.58346 3.36631,15.33716 1.59704,3.27375 2.19016,4.08123 5.19726,7.0756 2.89417,2.88192 3.88844,3.62202 6.74587,5.02136 4.72288,2.3129 7.81426,3.08992 12.34722,3.10348 2.9345,0.009 4.33738,-0.17295 6.75166,-0.87463 3.37602,-0.98119 6.44942,-2.26008 8.17028,-3.39976 0.77855,-0.51562 0.57066,-0.21281 -0.66916,0.97467 -2.23247,2.13824 -5.9829,4.14139 -9.17747,4.90181 -3.49144,0.83109 -9.2271,0.74343 -12.85294,-0.19643 -6.57532,-1.70441 -14.76803,-7.15994 -17.87641,-11.90392 -0.33754,-0.51517 -0.88017,-0.81295 -1.48135,-0.81295 -1.24415,0 -3.84174,-1.66935 -5.24318,-3.36953 -0.6137,-0.74452 -1.1839,-1.28315 -1.26712,-1.19694 -0.0832,0.0862 -0.32529,1.58549 -0.53793,3.33174 -0.49168,4.03787 -0.49798,10.03843 -0.0133,12.66038 0.52702,2.85089 2.76107,8.14217 4.57059,10.82527 1.51197,2.24191 7.29445,8.29976 9.3416,9.78647 5.13196,3.72699 11.00242,6.60068 19.2358,9.41625 12.18004,4.16522 22.74108,6.02862 41.7947496,7.37431 0.97014,0.0685 6.7645104,0.0807 12.8763904,0.0271 9.49106,-0.0832 12.16772,-0.23146 18.34444,-1.01585 z M -7.1163634,194.49229 c -0.14211,-0.37033 0.40175,-1.18046 1.62187,-2.41593 1.76024,-1.78239 1.83109,-1.92828 1.72418,-3.5509 -0.14219,-2.15807 0.49819,-2.44806 1.41953,-0.64283 0.94458,1.85077 1.66539998,2.4223 4.30518,3.41348 2.74855,1.03203 3.26921,1.98946 1.08189,1.98946 -0.78315,0 -2.20746002,-0.30884 -3.16513002,-0.68632 -1.70474998,-0.67195 -3.33720998,-0.84093 -3.01004998,-0.31158 0.1645,0.26617 -2.96527,2.73646 -3.48801,2.75304 -0.15161,0.005 -0.37187,-0.24198 -0.48946,-0.54842 z m -0.49105,-10.67109 c -5.3366296,-1.39325 -9.2846596,-6.16902 -8.6420896,-10.45398 1.02272,-6.81999 11.9801696,-9.37166 19.2382096,-4.48002 1.05389,0.71029 2.4735,2.07216 3.15468,3.0264 1.03626,1.45166 1.2385,2.03556 1.2385,3.57582 0,3.62309 -3.46439,7.22824 -8.10842002,8.43786 -2.59602998,0.67618 -3.96542998,0.65507 -6.88087998,-0.10608 z m 0.93737,-10.86783 c 3.20656,-0.80546 4.51752,-1.75262 4.58267,-3.31096 0.0282,-0.67522 -0.0196,-1.0305 -0.10626,-0.78952 -0.11946,0.33216 -0.33482,0.3433 -0.89018,0.0461 -1.25736,-0.67291 -5.83744,-0.20534 -7.8535396,0.80175 -1.96197,0.98006 -2.75853,2.3142 -1.95777,3.27905 0.60527,0.72931 3.2614396,0.71804 6.2250796,-0.0264 z M -18.874853,157.47863 c 0,-0.097 0.0794,-0.17639 0.17639,-0.17639 0.097,0 0.17638,0.0794 0.17638,0.17639 0,0.097 -0.0794,0.17639 -0.17638,0.17639 -0.097,0 -0.17639,-0.0794 -0.17639,-0.17639 z m 82.19721,59.5817 c 0,-0.0763 -0.32687,-0.13865 -0.72637,-0.13865 -0.39951,0 -0.63255,0.15182 -0.51787,0.33737 0.18825,0.30459 1.24424,0.13593 1.24424,-0.19872 z m 1.41111,-0.49143 c 0,-0.19403 -0.07,-0.35278 -0.15557,-0.35278 -0.0856,0 -0.25368,0.15875 -0.37359,0.35278 -0.11992,0.19403 -0.0499,0.35278 0.15557,0.35278 0.20547,0 0.37359,-0.15875 0.37359,-0.35278 z m 1.05834,0.17639 c 0,-0.097 -0.0794,-0.17639 -0.17639,-0.17639 -0.097,0 -0.17639,0.0794 -0.17639,0.17639 0,0.097 0.0794,0.17639 0.17639,0.17639 0.097,0 0.17639,-0.0794 0.17639,-0.17639 z m 18.70593,-7.78006 c 3.17231,-2.75204 6.24509,-5.97126 9.91546,-10.38799 1.87204,-2.25273 7.361943,-9.76258 7.361943,-10.0707 0,-0.11502 0.48111,-0.9084 1.06914,-1.76308 1.71204,-2.48835 3.4704,-6.00208 5.28347,-10.55793 3.18117,-7.99358 4.57053,-13.35643 5.30444,-20.47491 0.76439,-7.41404 0.17907,-12.38306 -2.53324,-21.50559 -1.32904,-4.47004 -6.23491,-16.26684 -8.73318,-21.00001 -0.8705,-1.64924 -1.75107,-3.35456 -1.95682,-3.78961 -0.20575,-0.43505 -0.629893,-0.79224 -0.942533,-0.79375 -0.40317,-0.002 -0.52315,-0.23968 -0.41267,-0.81761 0.17471,-0.91395 -0.13627,-1.45384 -4.56296,-7.921852 -5.18403,-7.574574 -8.37238,-11.843025 -11.02952,-14.765956 -0.19786,-0.217647 -1.62974,-1.798725 -3.18196,-3.513506 -1.55223,-1.714781 -3.45723,-3.774482 -4.23334,-4.577114 -0.77611,-0.802632 -2.23009,-2.332074 -3.23106,-3.39876 -1.00097,-1.066687 -2.5091,-2.476058 -3.35139,-3.131936 -0.84229,-0.655878 -1.64423,-1.354585 -1.78209,-1.552681 -0.31638,-0.45462 -1.22895,0.721467 -1.5084,1.943984 -0.12735,0.557119 0.39049,2.894152 1.36797,6.173611 0.86509,2.902419 3.01084,10.277751 4.76833,16.389625 3.32192,11.552365 4.43968,15.282065 7.24213,24.165275 2.11825,6.71442 4.91303,17.70536 6.0102,23.63611 1.07132,5.79099 1.58852,11.66039 1.59317,18.07986 0.002,2.7649 0.1227,5.027 0.26823,5.02689 0.47937,-3.6e-4 4.22392,-4.41524 6.15826,-7.26068 1.79022,-2.63346 6.31585,-11.34529 7.499093,-14.43577 l 0.53996,-1.4103 -0.20288,1.23473 c -0.11159,0.67909 -0.91748,3.37784 -1.790863,5.99722 -2.09603,6.2862 -5.57621,13.32392 -8.07032,16.32 -0.28451,0.34177 -0.51728,0.77833 -0.51728,0.97014 0,0.19181 -0.13805,0.34874 -0.30677,0.34874 -0.16872,0 -0.25017,1.30969 -0.181,2.91042 0.15028,3.47747 -0.82668,10.25055 -2.53356,17.56474 -0.65836,2.82112 -1.34659,5.59925 -1.52941,6.17361 -0.18283,0.57436 -0.76029,2.47304 -1.28326,4.21929 -0.90778,3.03121 -3.72295,10.87905 -4.89967,13.6588 -1.18696,2.80394 -0.45817,2.52464 4.39238,-1.68331 z m 9.86906,-95.23104 c 0,-0.097 0.0794,-0.17639 0.17639,-0.17639 0.097,0 0.17639,0.0794 0.17639,0.17639 0,0.097 -0.0794,0.17638 -0.17639,0.17638 -0.097,0 -0.17639,-0.0794 -0.17639,-0.17638 z m -2.82222,-1.76389 c 0,-0.097 0.0794,-0.17639 0.17639,-0.17639 0.097,0 0.17639,0.0794 0.17639,0.17639 0,0.097 -0.0794,0.17639 -0.17639,0.17639 -0.097,0 -0.17639,-0.0794 -0.17639,-0.17639 z m 1.98017,-0.59372 c 0.10189,-0.16486 0.33303,-0.2084 0.51365,-0.0968 0.46157,0.28526 0.4096,0.39651 -0.18524,0.39651 -0.28251,0 -0.43029,-0.13488 -0.32841,-0.29974 z m 6.13372,-0.81739 c 0,-0.097 0.0794,-0.17639 0.17639,-0.17639 0.097,0 0.176393,0.0794 0.176393,0.17639 0,0.097 -0.0794,0.17638 -0.176393,0.17638 -0.097,0 -0.17639,-0.0794 -0.17639,-0.17638 z m -6.70278,-0.70556 c 0,-0.097 0.0794,-0.17639 0.17639,-0.17639 0.097,0 0.17639,0.0794 0.17639,0.17639 0,0.097 -0.0794,0.17639 -0.17639,0.17639 -0.097,0 -0.17639,-0.0794 -0.17639,-0.17639 z m 5.64445,0 c 0,-0.097 0.0794,-0.17639 0.17639,-0.17639 0.097,0 0.17639,0.0794 0.17639,0.17639 0,0.097 -0.0794,0.17639 -0.17639,0.17639 -0.097,0 -0.17639,-0.0794 -0.17639,-0.17639 z m -155.69258,100.83564 c -0.12935,-0.12935 -0.34102,-0.12935 -0.47037,0 -0.12935,0.12936 -0.0235,0.23519 0.23518,0.23519 0.25871,0 0.36454,-0.10583 0.23519,-0.23519 z m 170.951593,-8.76946 c 0.0202,-0.18918 -0.22932,-0.39518 -0.55439,-0.45779 -0.41883,-0.0807 -0.52734,0.0522 -0.37242,0.45589 0.22842,0.59527 0.86344,0.59657 0.92681,0.002 z m 3.15011,-5.1829 c -0.25314,-0.25314 -0.41746,-0.27397 -0.41746,-0.0529 0,0.47088 0.4172,0.88808 0.65264,0.65264 0.10025,-0.10025 -0.006,-0.37013 -0.23518,-0.59973 z m 1.58162,-4.39208 c -0.12936,-0.12935 -0.23519,-0.0235 -0.23519,0.23519 0,0.2587 0.10583,0.36453 0.23519,0.23518 0.12935,-0.12935 0.12935,-0.34102 0,-0.47037 z m -195.156763,-5.32106 c -0.55039,-6.01894 -0.12276,-20.9857 0.75849,-26.54653 0.4454,-2.81061 1.89233,-10.12957 2.19689,-11.1125 0.18035,-0.58208 0.60757,-2.09021 0.94938,-3.35139 1.57631,-5.81627 4.84985,-13.94224 7.31898,-18.16805 4.76393,-8.15329 9.53667,-14.39783 15.90318,-20.80733 5.96653,-6.00681 11.29783,-10.426235 17.7815,-14.740103 6.7851,-4.514414 10.56337,-6.604523 24.6006596,-13.608885 6.01486,-3.001309 11.41236,-5.807814 11.99445,-6.236677 1.37042,-1.009695 4.69305,-2.871254 4.23333,-2.371796 -0.19403,0.210798 -1.24176,1.070361 -2.32828,1.910141 -2.99368,2.31382 -6.68165002,5.841238 -9.94489,9.511943 -7.5923696,8.540387 -11.4381196,14.311038 -18.4238596,27.645477 -3.61922,6.90841 -4.74466,9.14473 -4.7512,9.44098 -0.008,0.37601 2.12143,0.0318 8.52051,-1.37728 6.42403,-1.41452 9.0442196,-2.23206 16.5207696,-5.15472 11.07329,-4.32866 22.9331304,-10.94291 31.3807604,-17.501094 6.2798,-4.875221 16.07733,-15.270105 19.82945,-21.038434 2.31444,-3.558121 5.43005,-8.671206 6.55632,-10.759721 0.68011,-1.261181 1.36485,-2.45555 1.52165,-2.654154 0.17277,-0.218848 -0.6739,-1.052688 -2.14925,-2.116667 -1.33888,-0.965562 -2.43974,-1.87463 -2.44635,-2.020151 -0.007,-0.145521 -0.18374,-0.264583 -0.39363,-0.264583 -0.20988,0 -1.04331,-0.538768 -1.85208,-1.197263 -0.80876,-0.658495 -2.06579,-1.531619 -2.7934,-1.940278 -0.7276,-0.408658 -1.89029,-1.064402 -2.58375,-1.457208 l -1.26083,-0.714194 -4.27021,2.121116 c -2.34861,1.166615 -4.32448,2.066838 -4.39082,2.000497 -0.11403,-0.114028 0.64436,-0.833027 4.6083,-4.36892 0.92445,-0.824618 1.50316,-1.499305 1.28603,-1.499305 -0.35383,0 -1.2681,-0.369208 -4.7658,-1.924549 -1.51843,-0.675208 -2.5429,-1.080049 -4.93889,-1.951708 -1.16416,-0.423522 -2.51354,-0.976293 -2.99861,-1.228381 -0.48507,-0.252087 -1.43757,-0.574376 -2.11667,-0.716198 -0.67909,-0.141822 -1.39347,-0.381882 -1.5875,-0.533467 -0.19402,-0.151585 -1.06715,-0.468233 -1.94027,-0.703663 -0.87313,-0.23543 -1.905,-0.557367 -2.29306,-0.715416 -0.38805,-0.158048 -1.10243,-0.358032 -1.5875,-0.444408 -0.48507,-0.08638 -2.07257,-0.483928 -3.52778,-0.883447 -1.4552,-0.39952 -5.04198,-1.208435 -7.9706004,-1.797589 -2.92862,-0.589155 -5.78612,-1.247748 -6.35,-1.46354 -0.57585,-0.220377 -1.87568002,-0.305958 -2.96551,-0.19525 l -1.94027,0.197101 2.20485998,-1.035391 C 1.0315066,34.310237 1.2334766,34.115917 1.2334766,33.129434 c 0,-1.814109 0.98249,-3.601366 3.22951,-5.874816 l 2.14051,-2.165685 -0.7751,-0.832926 c -7.16153,-7.695815 -11.69348,-11.110098 -20.7303396,-15.617825 -11.02656,-5.500219 -21.30994,-8.356979 -33.71365,-9.365775 -5.70268,-0.463799 -9.66554,-0.469616 -9.94676,-0.0146 -0.11992,0.194028 0.0264,0.352778 0.32511,0.352778 2.21278,0 18.1165,13.751344 22.94652,19.840984 0.99813,1.258431 1.6884,1.763976 2.78596,2.040397 3.36444,0.847336 7.69962,2.256381 11.33685,3.684778 2.13431,0.838174 4.24971,1.634421 4.70089,1.769439 1.98589,0.594281 0.11735,0.5347 -4.05357,-0.129253 -16.78834,-2.672477 -32.24258,-2.389414 -45.80287,0.838933 -5.43787,1.294613 -13.66463,4.215978 -18.34444,6.514202 -4.72555,2.320685 -10.84399,5.997683 -10.88097,6.539127 -0.0132,0.194028 -0.66971,0.780421 -1.45881,1.303095 -0.78909,0.522674 -1.80885,1.348573 -2.26614,1.835332 l -0.831427,0.885015 9.129777,-0.07144 c 9.15614,-0.07165 10.53815,0.04574 16.36173,1.389833 4.24845,0.980546 7.21808,1.960348 9.79682,3.232373 l 2.56487,1.265183 1.84485,-1.778899 c 1.01467,-0.978394 2.40048,-2.152733 3.07957,-2.609641 0.6791,-0.456909 1.3141,-0.917767 1.41111,-1.024129 0.097,-0.106362 2.24014,-1.571275 4.7625,-3.255363 7.94642,-5.305526 15.45168,-8.918603 23.28333,-11.208725 8.3068,-2.429062 10.00164,-2.664503 19.0499996,-2.646362 5.29112,0.01061 8.42070998,0.15624 8.99583998,0.418611 0.62099,0.283299 0.70327,0.408959 0.27807,0.424705 -1.77500998,0.06573 -12.18421958,1.54555 -15.24855958,2.167807 -10.19383,2.069997 -20.37942,6.004358 -29.12673,11.250701 -2.03729,1.221899 -3.90261,2.226592 -4.14514,2.23265 -0.24254,0.0061 -0.36956,0.08243 -0.28228,0.169711 0.0873,0.08728 -1.57546,1.46006 -3.69499,3.050618 -2.11953,1.590558 -5.23931,4.15175 -6.93285,5.691537 -1.69354,1.539787 -3.20579,2.759925 -3.36056,2.711418 -0.15477,-0.04851 -0.24172,0.04666 -0.19321,0.211473 0.0485,0.164817 -1.50776,1.990442 -3.45836,4.056944 -1.95061,2.066502 -3.46872,3.757277 -3.37358,3.757277 0.0951,0 -0.23397,0.436562 -0.73135,0.970139 -0.49738,0.533576 -1.86377,2.276458 -3.03641,3.87307 -9.45065,12.867472 -14.88033,29.186919 -16.64017,50.013735 -0.46567,5.51098 -0.46378,21.10241 0.003,26.28194 0.89828,9.96364 3.03639,19.97273 6.12766,28.68529 1.82671,5.14847 4.49587,11.41897 5.65021,13.27367 0.43004,0.69097 0.88438,1.53412 1.00963,1.87367 0.49006,1.32845 0.65323,0.49501 0.41441,-2.11666 z m 19.23825,-85.98958 c 0,-0.097 0.0794,-0.17639 0.17639,-0.17639 0.097,0 0.17639,0.0794 0.17639,0.17639 0,0.097 -0.0794,0.17638 -0.17639,0.17638 -0.097,0 -0.17639,-0.0794 -0.17639,-0.17638 z m -11.64166,-4.586114 c 0,-0.09701 0.0794,-0.176389 0.17639,-0.176389 0.097,0 0.17638,0.07937 0.17638,0.176389 0,0.09701 -0.0794,0.176389 -0.17638,0.176389 -0.097,0 -0.17639,-0.07937 -0.17639,-0.176389 z m 0.35277,-0.780066 c 0,-0.711207 1.07148,-2.9241 1.41585,-2.9241 0.48449,0 0.44868,0.150788 -0.39542,1.664964 -0.87773,1.57449 -1.02043,1.750566 -1.02043,1.259136 z m 1.52851,-3.167759 c -0.46917,-0.169143 2.19462,-5.048008 2.75614,-5.048008 0.18871,0 0.24499,-0.15875 0.12508,-0.352777 -0.11992,-0.194028 0.0245,-0.352778 0.32088,-0.352778 0.33275,0 0.46167,-0.201303 0.337,-0.526193 -0.11529,-0.300431 0.0408,-0.619342 0.36385,-0.743299 0.31117,-0.119408 0.56577,-0.453427 0.56577,-0.742265 0,-0.762743 1.40608,-2.619099 1.7996,-2.375891 0.184,0.113717 0.29092,0.04441 0.23761,-0.154025 -0.12362,-0.460084 1.20988,-2.511522 1.63343,-2.512868 0.1756,-5.58e-4 0.0169,0.338973 -0.35277,0.754514 -0.67042,0.75371 -0.67009,0.754346 0.13685,0.264583 0.45872,-0.278414 0.74623,-0.735423 0.66415,-1.05569 -0.25722,-1.003565 9.26233,-9.939687 14.40196,-13.519312 1.07318,-0.747446 0.94769,-0.572677 -0.52404,0.729794 -1.06433,0.941929 -3.50445,3.220723 -5.42249,5.063986 -1.91805,1.843264 -3.63872,3.307768 -3.82372,3.254454 -0.185,-0.05331 -0.25136,0.04059 -0.14748,0.208685 0.10389,0.168091 -0.36056,0.838166 -1.03211,1.489055 -0.76117,0.737754 -1.22303,0.991303 -1.2264,0.673259 -0.005,-0.432334 -0.0576,-0.429437 -0.34737,0.01899 -0.47612,0.736737 -0.43615,1.151501 0.0802,0.832376 0.23814,-0.147178 -0.2778,0.55775 -1.14653,1.566507 -0.86873,1.008757 -1.78731,1.834182 -2.0413,1.834277 -0.25398,9.5e-5 -0.36385,0.158645 -0.24414,0.352332 0.2865,0.463566 -0.68362,1.836899 -1.05796,1.49768 -0.15923,-0.144286 -0.18686,-0.08259 -0.0614,0.137101 0.23124,0.40495 -2.46545,4.010282 -2.99959,4.010282 -0.15971,0 -0.29039,0.3175 -0.29039,0.705556 0,0.414033 -0.23519,0.705555 -0.56921,0.705555 -0.42543,0 -0.53185,0.254539 -0.4213,1.007714 0.11009,0.750127 0.008,0.99811 -0.40094,0.970139 -0.32732,-0.02241 -0.50946,0.200859 -0.45128,0.553184 0.10966,0.664087 -0.24634,0.975069 -0.8621,0.753083 z m 1.99927,-2.754952 c 0,-0.09701 0.0794,-0.176389 0.17639,-0.176389 0.097,0 0.17639,0.07937 0.17639,0.176389 0,0.09701 -0.0794,0.176389 -0.17639,0.176389 -0.097,0 -0.17639,-0.07938 -0.17639,-0.176389 z m -3.70416,-0.529167 c 0.11991,-0.194028 0.2974,-0.352778 0.39441,-0.352778 0.097,0 0.0783,0.15875 -0.0416,0.352778 -0.11991,0.194028 -0.2974,0.352778 -0.39441,0.352778 -0.097,0 -0.0783,-0.15875 0.0416,-0.352778 z m 5.11527,-0.881944 c 0,-0.09701 0.0794,-0.176389 0.17639,-0.176389 0.097,0 0.17639,0.07937 0.17639,0.176389 0,0.09701 -0.0794,0.176389 -0.17639,0.176389 -0.097,0 -0.17639,-0.07937 -0.17639,-0.176389 z M -0.97138342,73.813051 c 0.24253,-0.09786 0.63941,-0.09786 0.88194,0 0.24254,0.09787 0.0441,0.177936 -0.44097,0.177936 -0.48506998,0 -0.68350998,-0.08007 -0.44097,-0.177936 z m 1.4993,-0.295529 c 0,-0.09701 0.0794,-0.176389 0.17639,-0.176389 0.097,0 0.17639,0.07937 0.17639,0.176389 0,0.09701 -0.0794,0.176389 -0.17639,0.176389 -0.097,0 -0.17639,-0.07938 -0.17639,-0.176389 z M 2.2918066,72.811967 c 0,-0.09701 0.0794,-0.176389 0.17639,-0.176389 0.097,0 0.17639,0.07937 0.17639,0.176389 0,0.09701 -0.0794,0.176389 -0.17639,0.176389 -0.097,0 -0.17639,-0.07937 -0.17639,-0.176389 z m 1.05834,-0.705556 c 0,-0.09701 0.0794,-0.176389 0.17638,-0.176389 0.097,0 0.17639,0.07938 0.17639,0.176389 0,0.09701 -0.0794,0.176389 -0.17639,0.176389 -0.097,0 -0.17638,-0.07937 -0.17638,-0.176389 z m -6.70278,-0.705555 c 0,-0.09701 0.0794,-0.176389 0.17639,-0.176389 0.097,0 0.17639,0.07937 0.17639,0.176389 0,0.09701 -0.0794,0.176389 -0.17639,0.176389 -0.097,0 -0.17639,-0.07937 -0.17639,-0.176389 z M -42.510963,65.094052 c 0,-0.07326 0.27781,-0.351069 0.61736,-0.617361 0.55952,-0.43881 0.572,-0.426332 0.13319,0.133193 -0.46086,0.587639 -0.75055,0.774516 -0.75055,0.484168 z m 1.41111,-1.101529 c 0,-0.09701 0.0794,-0.176389 0.17639,-0.176389 0.097,0 0.17639,0.07937 0.17639,0.176389 0,0.09701 -0.0794,0.176389 -0.17639,0.176389 -0.097,0 -0.17639,-0.07937 -0.17639,-0.176389 z m -53.975,-23.283332 c 0,-0.09701 0.0794,-0.176388 0.17639,-0.176388 0.097,0 0.17639,0.07937 0.17639,0.176388 0,0.09701 -0.0794,0.176389 -0.17639,0.176389 -0.097,0 -0.17639,-0.07937 -0.17639,-0.176389 z M 6.5251366,40.003636 c 0,-0.09701 0.0794,-0.176389 0.17639,-0.176389 0.097,0 0.17639,0.07938 0.17639,0.176389 0,0.09701 -0.0794,0.176389 -0.17639,0.176389 -0.097,0 -0.17639,-0.07937 -0.17639,-0.176389 z M -31.222073,37.886969 c 0,-0.09701 0.0794,-0.176388 0.17638,-0.176388 0.097,0 0.17639,0.07937 0.17639,0.176388 0,0.09701 -0.0794,0.176389 -0.17639,0.176389 -0.097,0 -0.17638,-0.07938 -0.17638,-0.176389 z m -56.44444,-0.705555 c 0,-0.09701 0.0794,-0.176389 0.17638,-0.176389 0.097,0 0.17639,0.07938 0.17639,0.176389 0,0.09701 -0.0794,0.176389 -0.17639,0.176389 -0.097,0 -0.17638,-0.07938 -0.17638,-0.176389 z m 83.9610996,-0.705556 c 0,-0.09701 0.0794,-0.176388 0.17639,-0.176388 0.097,0 0.17639,0.07937 0.17639,0.176388 0,0.09701 -0.0794,0.176389 -0.17639,0.176389 -0.097,0 -0.17639,-0.07938 -0.17639,-0.176389 z m 4.93889,-7.76111 c 0,-0.09701 0.0794,-0.176389 0.17639,-0.176389 0.097,0 0.17639,0.07937 0.17639,0.176389 0,0.09701 -0.0794,0.176389 -0.17639,0.176389 -0.097,0 -0.17639,-0.07937 -0.17639,-0.176389 z M -106.31866,181.87659 c 2.40056,-1.23022 6.984017,-3.31253 10.185477,-4.62736 l 5.82083,-2.39059 -1.03381,-4.19209 c -0.5686,-2.30565 -1.17961,-4.19209 -1.3578,-4.19209 -0.17819,0 -0.82422,0.22276 -1.43563,0.49502 -1.13315,0.5046 -5.08405,1.94637 -7.249697,2.64559 -0.65955,0.21294 -1.66895,0.38717 -2.24311,0.38717 -0.93722,0 -1.02132,-0.0901 -0.8227,-0.88148 0.40096,-1.59752 3.61211,-8.05165 5.788347,-11.63406 1.17598,-1.93583 2.06837,-3.58948 1.98308,-3.67476 -0.0853,-0.0853 -0.19691,-0.0889 -0.24806,-0.008 -0.0512,0.0808 -0.78007,0.98648 -1.61984,2.01252 -4.862267,5.94083 -10.047547,16.51698 -11.884407,24.24003 -0.47774,2.00861 -0.66989,4.05694 -0.38059,4.05694 0.0733,0 2.09736,-1.00654 4.49791,-2.23676 z m -1.80896,-4.28963 c 0,-0.097 0.0794,-0.17639 0.17639,-0.17639 0.097,0 0.17638,0.0794 0.17638,0.17639 0,0.097 -0.0794,0.17639 -0.17638,0.17639 -0.097,0 -0.17639,-0.0794 -0.17639,-0.17639 z m 0.35277,-1.05833 c 0,-0.097 0.0794,-0.17639 0.17639,-0.17639 0.097,0 0.17639,0.0794 0.17639,0.17639 0,0.097 -0.0794,0.17639 -0.17639,0.17639 -0.097,0 -0.17639,-0.0794 -0.17639,-0.17639 z m 0.35278,-0.70556 c 0,-0.097 0.0794,-0.17639 0.17639,-0.17639 0.097,0 0.17639,0.0794 0.17639,0.17639 0,0.097 -0.0794,0.17639 -0.17639,0.17639 -0.097,0 -0.17639,-0.0794 -0.17639,-0.17639 z m 15.169447,-2.11666 c 0,-0.097 0.0794,-0.17639 0.17638,-0.17639 0.097,0 0.17639,0.0794 0.17639,0.17639 0,0.097 -0.0794,0.17638 -0.17639,0.17638 -0.097,0 -0.17638,-0.0794 -0.17638,-0.17638 z m -0.88195,-1.5875 c 0.11992,-0.19403 0.2974,-0.35278 0.39442,-0.35278 0.097,0 0.0783,0.15875 -0.0416,0.35278 -0.11992,0.19402 -0.29741,0.35277 -0.39442,0.35277 -0.097,0 -0.0783,-0.15875 0.0416,-0.35277 z m 0.88195,0 c 0,-0.25871 0.10583,-0.36454 0.23518,-0.23519 0.12935,0.12935 0.12935,0.34102 0,0.47037 -0.12935,0.12935 -0.23518,0.0235 -0.23518,-0.23518 z m -13.052777,-1.5875 c 0,-0.097 0.0794,-0.17639 0.17639,-0.17639 0.097,0 0.17639,0.0794 0.17639,0.17639 0,0.097 -0.0794,0.17639 -0.17639,0.17639 -0.097,0 -0.17639,-0.0794 -0.17639,-0.17639 z m 10.230547,-2.46945 c 0,-0.097 0.0794,-0.17639 0.17639,-0.17639 0.097,0 0.17639,0.0794 0.17639,0.17639 0,0.097 -0.0794,0.17639 -0.17639,0.17639 -0.097,0 -0.17639,-0.0794 -0.17639,-0.17639 z m 1.05834,0 c 0,-0.097 0.0794,-0.17639 0.17639,-0.17639 0.097,0 0.17638,0.0794 0.17638,0.17639 0,0.097 -0.0794,0.17639 -0.17638,0.17639 -0.097,0 -0.17639,-0.0794 -0.17639,-0.17639 z m 266.008123,12.61181 c -1.39914,-5.36075 -5.67334,-14.6699 -9.35402,-20.37292 -3.5047,-5.43035 -10.61577,-13.58194 -11.84826,-13.58194 -0.29775,0 -0.27858,0.19638 0.0671,0.68704 0.2662,0.37787 0.95539,1.37006 1.53153,2.20486 0.57614,0.8348 2.07293,2.77687 3.3262,4.31571 2.6331,3.23308 6.73877,9.30507 6.73877,9.96615 0,0.24793 -0.65941,0.78719 -1.46536,1.19836 -1.49923,0.76485 -6.55092,2.41006 -7.96406,2.59371 -0.43251,0.0562 -1.00274,0.28176 -1.26718,0.50123 -0.26445,0.21947 -0.58154,0.29832 -0.70464,0.17522 -0.1231,-0.1231 -0.32242,0.0331 -0.44293,0.34717 -0.32357,0.84321 -2.01159,1.5803 -2.88183,1.25838 -0.49608,-0.18351 -0.79715,-0.11813 -0.91907,0.19958 -0.2715,0.7075 0.12686,0.91693 0.92828,0.48802 0.5866,-0.31394 0.67594,-0.28571 0.50506,0.15961 -0.1156,0.30125 0.0144,0.6262 0.29334,0.73324 0.28394,0.10896 0.40926,0.43114 0.2893,0.74375 -0.17453,0.45481 -0.30908,0.47262 -0.76733,0.10155 -0.38835,-0.31447 -0.47903,-0.32223 -0.30112,-0.0258 0.173,0.28829 -0.33444,0.59911 -1.58381,0.97014 -1.01111,0.30026 -2.07944,0.54593 -2.37407,0.54593 -1.31737,0 0.44695,0.71251 4.36792,1.76395 8.212,2.20211 14.86533,4.19974 19.22639,5.77261 2.42535,0.87474 4.59233,1.60061 4.81552,1.61305 0.28305,0.0158 0.2178,-0.69766 -0.21571,-2.35863 z m -22.2387,-10.49514 c 0,-0.097 0.0794,-0.17639 0.17639,-0.17639 0.097,0 0.17639,0.0794 0.17639,0.17639 0,0.097 -0.0794,0.17639 -0.17639,0.17639 -0.097,0 -0.17639,-0.0794 -0.17639,-0.17639 z m 1.05833,-0.35278 c 0,-0.097 0.0794,-0.17639 0.17639,-0.17639 0.097,0 0.17639,0.0794 0.17639,0.17639 0,0.097 -0.0794,0.17639 -0.17639,0.17639 -0.097,0 -0.17639,-0.0794 -0.17639,-0.17639 z m 0.47037,-0.76435 c 0.12936,-0.12935 0.34102,-0.12935 0.47038,0 0.12935,0.12935 0.0235,0.23518 -0.23519,0.23518 -0.2587,0 -0.36454,-0.10583 -0.23519,-0.23518 z m -29.48707,11.81805 c 1.4069,-0.42756 4.08285,-3.04587 5.12081,-5.0105 0.60675,-1.14846 0.77183,-2.06976 0.77938,-4.34959 0.01,-2.88764 0.007,-2.89487 -1.35705,-4.29297 -0.75164,-0.77025 -2.33914,-1.83184 -3.52778,-2.35908 -1.18863,-0.52725 -2.22898,-1.01803 -2.31187,-1.09062 -0.0829,-0.0726 0.19492,-0.45401 0.61736,-0.84757 1.03195,-0.96141 0.97173,-1.27253 -0.37845,-1.9554 -0.63059,-0.31893 -1.66392,-0.9672 -2.29629,-1.44059 -0.83835,-0.6276 -1.19142,-0.73575 -1.30356,-0.39933 -0.7948,2.38433 -2.6647,10.35233 -2.51873,10.73274 0.11135,0.29018 0.70011,0.48838 1.45072,0.48838 2.63451,0 4.40328,1.65473 4.40328,4.1194 0,1.13216 -0.21865,1.71162 -0.90472,2.39769 -0.4976,0.4976 -1.04857,0.81582 -1.22438,0.70717 -0.39376,-0.24336 -0.72544,1.07711 -0.60358,2.40291 0.15261,1.6604 0.95776,1.83858 4.05486,0.89736 z m 27.95837,-12.09121 c 0,-0.0856 -0.15875,-0.25368 -0.35278,-0.3736 -0.19402,-0.11992 -0.35277,-0.0499 -0.35277,0.15557 0,0.20548 0.15875,0.3736 0.35277,0.3736 0.19403,0 0.35278,-0.07 0.35278,-0.15557 z m -15.16668,-1.82698 c 2.69963,-1.08018 3.92546,-4.70406 2.63553,-7.79131 -0.97614,-2.33622 -1.14318,-2.37177 -2.85723,-0.60815 -1.61275,1.65941 -4.34865,3.15551 -6.48384,3.54563 -0.6791,0.12408 -1.43316,0.38309 -1.67569,0.57557 -0.60499,0.48015 -0.55376,1.55211 0.10043,2.10176 0.29778,0.25018 0.75105,0.64167 1.00727,0.86998 2.12808,1.89624 4.66209,2.35141 7.27353,1.30652 z m -164.749973,-1.72162 c 0,-0.097 -0.0794,-0.17639 -0.17639,-0.17639 -0.097,0 -0.17639,0.0794 -0.17639,0.17639 0,0.097 0.0794,0.17639 0.17639,0.17639 0.097,0 0.17639,-0.0794 0.17639,-0.17639 z m 65.26388,-0.70556 c 0,-0.097 -0.0794,-0.17638 -0.17639,-0.17638 -0.097,0 -0.17639,0.0794 -0.17639,0.17638 0,0.097 0.0794,0.17639 0.17639,0.17639 0.097,0 0.17639,-0.0794 0.17639,-0.17639 z m 17.47854,-2.4534 c 1.06007,-1.06007 1.08241,-1.58592 0.11942,-2.81017 -0.94331,-1.19922 -2.25709,-1.1077 -3.24865,0.2263 -0.6016,0.80938 -0.64902,1.10149 -0.30233,1.86239 0.35779,0.78527 1.39243,1.4939 2.28503,1.56502 0.15434,0.0123 0.67028,-0.36729 1.14653,-0.84354 z m -82.38964,-1.60354 c 0.38805,-0.38806 0.70555,-1.02306 0.70555,-1.41111 0,-0.82859 -1.18073,-2.11667 -1.94028,-2.11667 -0.75954,0 -1.94027,1.28808 -1.94027,2.11667 0,0.82859 1.18073,2.11667 1.94027,2.11667 0.29105,0 0.84667,-0.3175 1.23473,-0.70556 z M 128.756,159.93498 c 2.72528,-0.70984 3.88719,-1.28732 3.88719,-1.93194 0,-0.28842 0.15875,-0.52684 0.35278,-0.52981 0.60009,-0.009 1.25662,-0.55616 1.18992,-0.99134 -0.0349,-0.2279 0.22843,-1.04937 0.58525,-1.82548 1.35867,-2.95525 1.03907,-8.49281 -0.71261,-12.34722 -0.72458,-1.59436 -2.13635,-3.33231 -2.41019,-2.96705 -1.18891,1.58575 -1.51922,1.96437 -1.75178,2.00796 -0.15245,0.0286 -0.54166,0.31642 -0.86491,0.63967 -0.59855,0.59855 -0.9504,2.61247 -0.45642,2.61247 0.65473,0 0.67561,2.63668 0.0324,4.09076 -0.75936,1.71666 -1.568,2.25924 -3.3671,2.25924 -1.45907,0 -3.48525,-0.91829 -3.16598,-1.43487 0.11778,-0.19058 0.005,-0.30288 -0.24959,-0.24956 -0.59407,0.12418 -2.05816,-2.74598 -2.05816,-4.03476 0,-0.54097 -0.13334,-0.98359 -0.29631,-0.98359 -0.60062,0 -1.08538,2.76603 -1.26745,7.23195 -0.20827,5.10891 -0.22486,5.05992 2.3824,7.03711 1.28153,0.97184 3.81084,1.88335 5.36905,1.93491 0.3958,0.0131 1.65648,-0.22021 2.80151,-0.51845 z m 17.59939,-1.48621 c 1.6737,-0.84863 2.67549,-3.59905 2.04609,-5.61753 -0.66296,-2.12609 -1.96172,-3.35259 -3.76539,-3.55589 -3.4462,-0.38843 -4.64518,0.937 -4.28984,4.74227 0.31869,3.41275 1.49332,5.04851 3.62531,5.04851 0.64143,0 1.71415,-0.27781 2.38383,-0.61736 z M 30.149127,153.33404 c 0.67796,-1.20815 0.19177,-2.1546 -1.19132,-2.3191 -1.87328,-0.22279 -2.60742,1.4181 -1.24431,2.78121 0.92254,0.92255 1.74632,0.76625 2.43563,-0.46211 z m -78.5969,-3.6712 c 0.8023,-0.72607 0.82725,-1.80521 0.0613,-2.65157 -0.73197,-0.80882 -1.38062,-0.81607 -2.38421,-0.0267 -0.6177,0.48588 -0.73199,0.82145 -0.53309,1.56518 0.13925,0.52068 0.15054,1.06156 0.0251,1.20196 -0.12546,0.1404 -0.0406,0.14785 0.18849,0.0166 0.22913,-0.13128 0.51631,-0.0774 0.63818,0.11983 0.33271,0.53834 1.27783,0.43209 2.00425,-0.22531 z m 173.153463,-0.2981 c 0,-0.097 -0.0794,-0.17639 -0.17639,-0.17639 -0.097,0 -0.17639,0.0794 -0.17639,0.17639 0,0.097 0.0794,0.17639 0.17639,0.17639 0.097,0 0.17639,-0.0794 0.17639,-0.17639 z m -1.41111,-0.35278 c 0,-0.097 -0.0794,-0.17639 -0.17639,-0.17639 -0.097,0 -0.17639,0.0794 -0.17639,0.17639 0,0.097 0.0794,0.17639 0.17639,0.17639 0.097,0 0.17639,-0.0794 0.17639,-0.17639 z m 2.59033,-0.56806 c 1.85243,-0.84403 2.12313,-3.11008 0.54736,-4.58206 -1.09434,-1.02227 -3.07843,-1.38699 -4.07986,-0.74997 -1.34775,0.85732 -0.5361,4.22111 1.25313,5.19345 1.13823,0.61855 1.21561,0.62326 2.27937,0.13858 z m -93.334613,-1.18665 c 2.48093,-1.15502 5.11642,-3.97962 6.69684,-7.17739 1.14082,-2.30828 1.30843,-2.99124 1.43252,-5.83686 0.15512,-3.5574 -0.22972,-5.50722 -1.44202,-7.30616 -1.91732,-2.8451 -4.83268,-3.53281 -8.24368,-1.9446 -7.80959,3.63627 -11.81547,15.91752 -6.89941,21.15227 2.03886,2.17103 5.26942,2.59616 8.45575,1.11274 z m 10.93801,-0.38196 c 0.86378,-0.60501 1.06241,-2.20636 0.36072,-2.90805 -0.67356,-0.67356 -1.95782,-0.49226 -2.55527,0.36072 -0.7258,1.03622 -0.69273,1.54184 0.15638,2.39095 0.84932,0.84931 1.02917,0.86311 2.03817,0.15638 z m -79.02221,-2.82222 c 0.97497,-0.68289 1.01005,-1.95917 0.0771,-2.80351 -1.49635,-1.35418 -3.45185,0.74951 -2.31275,2.48801 0.65883,1.0055 1.15135,1.075 2.23569,0.3155 z M 118.35569,142.5064 c 0,-0.18258 -0.13229,-0.41372 -0.29398,-0.51365 -0.16169,-0.0999 -0.29398,0.0495 -0.29398,0.33195 0,0.28251 0.13229,0.51365 0.29398,0.51365 0.16169,0 0.29398,-0.14938 0.29398,-0.33195 z m -159.808323,-1.25555 c 0,-0.097 -0.0794,-0.17639 -0.17639,-0.17639 -0.097,0 -0.17639,0.0794 -0.17639,0.17639 0,0.097 0.0794,0.17639 0.17639,0.17639 0.097,0 0.17639,-0.0794 0.17639,-0.17639 z m 168.614143,-0.6985 c 3.33844,-1.72638 4.03086,-7.14615 1.59322,-12.47066 -1.08495,-2.36985 -1.99939,-3.41944 -3.7704,-4.32767 -1.36295,-0.69896 -3.45364,-0.90907 -3.45364,-0.34708 0,0.17827 0.63816,1.56734 1.41812,3.0868 2.6177,5.09959 3.33906,10.06192 1.87749,12.91539 -0.27622,0.53927 -0.40699,1.13459 -0.29059,1.32292 0.30816,0.49862 1.46749,0.41928 2.6258,-0.1797 z m -4.67806,-0.97719 c 1.08311,-1.18916 1.51669,-2.20118 1.51669,-3.54014 0,-1.59074 -0.68661,-3.50909 -1.18858,-3.3208 -0.21941,0.0823 -1.54986,0.44469 -2.95656,0.8053 -2.9592,0.7586 -3.06116,0.9907 -1.71,3.89253 1.32127,2.83762 2.97368,3.6615 4.33845,2.16311 z m 20.12023,-5.86102 c 1.18507,-1.29688 1.31253,-1.34806 2.6239,-1.05341 2.56991,0.57742 3.54704,-1.03824 2.20153,-3.64017 -0.52268,-1.01075 -0.50962,-1.2392 0.19635,-3.43478 0.9266,-2.88173 0.62607,-4.24303 -0.95062,-4.30592 -1.80018,-0.0718 -2.73202,0.0948 -4.25557,0.76097 -1.13699,0.49714 -1.73425,0.57726 -2.40421,0.32255 -1.22215,-0.46467 -2.73465,-0.42531 -3.24437,0.0844 -1.10674,1.10673 -0.1922,-0.44686 1.98183,-3.36669 3.90359,-5.24273 5.58977,-8.82995 7.15638,-15.2247 0.91457,-3.73318 1.26791,-11.733997 0.69405,-15.7154 -2.59825,-18.02636 -15.36207,-32.433781 -31.22247,-35.243001 -2.93619,-0.520065 -9.46732,-0.45081 -12.19423,0.129305 -5.286073,1.124542 -11.102753,3.831532 -14.331273,6.669542 -1.12756,0.991174 -1.78768,1.318537 -2.4898,1.234722 -0.80729,-0.09637 -1.27822,0.268845 -3.0372,2.355389 -2.42453,2.876049 -3.16687,4.210806 -3.8971,7.007156 l -0.53215,2.037807 3.81882,4.296962 c 4.13914,4.657388 8.44217,10.150388 12.17612,15.543335 2.58598,3.734935 2.45637,3.67611 5.117583,2.322614 2.47402,-1.258293 4.73851,-4.642298 4.52602,-6.76359 -0.11323,-1.130275 -0.0777,-1.163767 1.34298,-1.267475 1.22457,-0.08939 1.57686,0.04294 2.19025,0.822742 0.83646,1.063385 0.73426,2.307744 -0.37088,4.515953 -0.80915,1.616788 -4.10198,4.86881 -6.18907,6.112366 -0.82461,0.491336 -1.4993,0.962905 -1.4993,1.047932 0,0.268111 1.8264,3.771801 2.64033,5.065091 0.42909,0.68181 1.51175,2.66841 2.40591,4.41466 2.393,4.67344 2.17657,4.49462 4.412,3.6452 1.35232,-0.51385 2.16199,-1.1101 2.91042,-2.14328 0.57029,-0.78727 1.03689,-1.6457 1.03689,-1.90763 0,-0.45138 0.15094,-0.51883 1.41111,-0.63066 1.03876,-0.0922 1.71057,1.11974 1.39539,2.51721 -0.44567,1.97605 -1.37483,2.93635 -4.36613,4.51247 -1.51196,0.79665 -2.73339,1.56061 -2.71428,1.69769 0.0191,0.13707 0.68342,1.63767 1.47627,3.33467 0.79285,1.69699 2.1586,4.91107 3.035,7.14239 2.03403,5.17865 2.27664,5.44279 4.53438,4.93681 0.94731,-0.21229 2.2569,-0.63964 2.9102,-0.94965 1.36557,-0.648 1.35839,-0.85132 -0.16584,-4.69272 -1.63494,-4.12044 -1.63585,-4.14001 -0.21495,-4.60895 0.68452,-0.22591 2.08847,-0.34077 3.11988,-0.25524 2.30335,0.19101 3.97643,1.36118 5.3325,3.72962 0.52393,0.91505 0.99291,1.71908 1.04219,1.78672 0.12643,0.17353 3.67495,-2.2152 4.66494,-3.14026 0.86339,-0.80677 1.33061,-0.63932 1.52861,0.54783 0.0647,0.38806 0.25987,0.8086 0.43366,0.93454 0.46824,0.3393 -0.048,1.40062 -0.77357,1.59036 -0.40107,0.10488 -0.6596,0.54795 -0.71065,1.21792 -0.0724,0.94958 0.0851,1.12178 1.60233,1.7523 1.56213,0.64917 1.68608,0.79318 1.73155,2.01178 0.13489,3.61441 0.13134,3.6056 1.45176,3.6056 0.96256,0 1.47735,-0.28495 2.46253,-1.3631 z m 37.48812,-0.24752 c 0,-0.58787 -2.5955,-5.66399 -4.22712,-8.26715 -3.02813,-4.83122 -5.89335,-8.37498 -10.22942,-12.65195 -5.36403,-5.29091 -12.04924,-10.27861 -13.77683,-10.27861 -0.47403,0 -0.12615,0.34475 2.48059,2.45827 4.87569,3.95315 12.31997,11.00467 12.34075,11.68964 0.01,0.31394 -4.59329,1.61698 -8.63658,2.44498 -4.84594,0.99236 -4.68782,0.92485 -4.4975,1.92045 0.17907,0.93674 -0.92202,3.02293 -2.27873,4.31738 -0.67742,0.64634 -0.78808,1.0339 -0.63746,2.23264 0.44202,3.5181 0.58124,3.63934 4.59147,3.99853 8.39681,0.75209 21.18944,2.06624 21.31365,2.18948 0.2253,0.22355 3.55718,0.17329 3.55718,-0.0537 z m -51.50555,-8.09077 c 0,-0.097 -0.0794,-0.17638 -0.17639,-0.17638 -0.097,0 -0.17639,0.0794 -0.17639,0.17638 0,0.097 0.0794,0.17639 0.17639,0.17639 0.097,0 0.17639,-0.0794 0.17639,-0.17639 z m 9.17222,-4.23333 c 0,-0.097 -0.0794,-0.17639 -0.17639,-0.17639 -0.097,0 -0.17639,0.0794 -0.17639,0.17639 0,0.097 0.0794,0.17639 0.17639,0.17639 0.097,0 0.17639,-0.0794 0.17639,-0.17639 z m -251.42162,-1.11473 c 1.90317,-0.12602 3.27528,-0.34348 3.04914,-0.48324 -0.29669,-0.18337 -0.30246,-0.3213 -0.0207,-0.49542 0.21474,-0.13272 0.58216,-0.12282 0.81649,0.022 0.23433,0.14482 0.75026,0.29875 1.14653,0.34207 0.39626,0.0433 0.87923,0.11174 1.07325,0.15206 1.26957,0.26381 1.16669,-0.19741 -0.37856,-1.69713 -3.36089,-3.26184 -6.11968,-6.94321 -7.39396,-9.86659 -0.35945,-0.82462 -0.76615,-1.49931 -0.90378,-1.49931 -0.53364,0 -7.48729,6.91471 -9.52699,9.47363 -1.18246,1.48347 -2.45096,3.05439 -2.8189,3.49096 l -0.66898,0.79375 6.08309,-0.002 c 3.34569,-0.001 7.64022,-0.10494 9.54339,-0.23096 z m 2.7133,-1.70749 c 0,-0.097 0.0794,-0.17639 0.17639,-0.17639 0.097,0 0.17639,0.0794 0.17639,0.17639 0,0.097 -0.0794,0.17638 -0.17639,0.17638 -0.097,0 -0.17639,-0.0794 -0.17639,-0.17638 z m 0.70556,-0.19721 c 0,-0.20548 0.15875,-0.27549 0.35278,-0.15557 0.19403,0.11991 0.35278,0.28803 0.35278,0.3736 0,0.0856 -0.15875,0.15556 -0.35278,0.15556 -0.19403,0 -0.35278,-0.16811 -0.35278,-0.37359 z m -1.41111,-0.50835 c 0,-0.097 0.0794,-0.17639 0.17639,-0.17639 0.097,0 0.17639,0.0794 0.17639,0.17639 0,0.097 -0.0794,0.17639 -0.17639,0.17639 -0.097,0 -0.17639,-0.0794 -0.17639,-0.17639 z m -3.52778,-5.99722 c 0,-0.097 0.0794,-0.17639 0.17639,-0.17639 0.097,0 0.17639,0.0794 0.17639,0.17639 0,0.097 -0.0794,0.17639 -0.17639,0.17639 -0.097,0 -0.17639,-0.0794 -0.17639,-0.17639 z m 0.11759,-1.11713 c 0.12935,-0.12935 0.34102,-0.12935 0.47037,0 0.12936,0.12935 0.0235,0.23518 -0.23518,0.23518 -0.25871,0 -0.36454,-0.10583 -0.23519,-0.23518 z m -0.82315,-0.29398 c 0,-0.097 0.0794,-0.17639 0.17639,-0.17639 0.097,0 0.17639,0.0794 0.17639,0.17639 0,0.097 -0.0794,0.17639 -0.17639,0.17639 -0.097,0 -0.17639,-0.0794 -0.17639,-0.17639 z m -0.35278,-1.41111 c 0,-0.097 0.0794,-0.17639 0.17639,-0.17639 0.097,0 0.17639,0.0794 0.17639,0.17639 0,0.097 -0.0794,0.17639 -0.17639,0.17639 -0.097,0 -0.17639,-0.0794 -0.17639,-0.17639 z m 21.795527,8.79223 c 1.16516,-12.05144 4.69992,-27.483101 7.71083,-33.663064 4.50589,-9.248435 5.91455,-11.955634 6.79183,-13.052777 0.54301,-0.679097 1.23855,-1.710972 1.54565,-2.293055 0.87729,-1.662844 5.05714,-6.714048 8.6855,-10.496123 1.82274,-1.899952 3.25149,-3.510691 3.175,-3.579421 -0.77819,-0.699303 -4.65252,-2.499025 -7.19461,-3.342079 -5.87624,-1.94878 -12.71449,-2.302196 -17.99167,-0.929848 -2.66583,0.693258 -7.5327,2.997416 -9.854597,4.665536 -0.9768,0.701754 -1.97692,1.275917 -2.2225,1.275917 -0.24558,0 -0.37253,0.07398 -0.2821,0.164407 0.0904,0.09042 -1.06051,1.474802 -2.55764,3.076396 -4.11182,4.398736 -6.63388,9.049033 -8.61004,15.875589 -0.72515,2.504968 -0.81249,3.53264 -0.79392,9.341013 0.0189,5.923105 0.10811,6.852488 0.96474,10.054166 1.31762,4.924593 5.18758,12.595723 8.08992,16.036043 1.22053,1.44676 3.28536,3.40779 4.5885,4.35783 2.25649,1.64507 6.751197,3.81958 7.502637,3.62973 0.19403,-0.049 0.39764,-0.55314 0.45247,-1.12026 z m -31.673297,-7.38112 c 0,-0.097 -0.0794,-0.17639 -0.17639,-0.17639 -0.097,0 -0.17639,0.0794 -0.17639,0.17639 0,0.097 0.0794,0.17639 0.17639,0.17639 0.097,0 0.17639,-0.0794 0.17639,-0.17639 z M -19.630323,96.933008 c 1.36074,-2.20699 2.64301,-3.973022 2.84949,-3.924515 0.3442,0.08086 0.52568,-0.387445 0.41393,-1.06815 -0.0248,-0.150919 0.19363,-0.365991 0.48536,-0.477938 0.29173,-0.111946 0.45744,-0.321612 0.36825,-0.465924 -0.0892,-0.144312 0.14985,-0.59729 0.53119,-1.006617 0.38135,-0.409326 0.69336,-0.847086 0.69336,-0.972798 0,-0.125713 0.49539,-0.854046 1.10086,-1.618519 0.60547,-0.764473 1.02842,-1.462392 0.93988,-1.550932 -0.0885,-0.08854 -1.01315,0.305032 -2.05469,0.874603 -1.04155,0.569571 -2.02012,0.957464 -2.17461,0.861985 -0.15449,-0.09548 -0.28089,0.0039 -0.28089,0.220818 0,0.21693 -0.15875,0.296305 -0.35277,0.176389 -0.19403,-0.119916 -0.35278,-0.05982 -0.35278,0.133551 0,0.348838 -3.28562,2.297278 -3.69323,2.190159 -0.11689,-0.03072 -0.45046,0.182077 -0.74126,0.47288 -0.92013,0.92013 -7.54596,4.485643 -7.91355,4.258462 -0.19358,-0.119639 -0.35196,7.36e-4 -0.35196,0.2675 0,0.266764 -0.635,0.841915 -1.41111,1.278114 -1.60155,0.900119 -1.6897,1.1098 -0.72094,1.714803 1.10804,0.691978 1.52763,2.985891 1.20691,6.598131 -0.15601,1.7571 -0.28949,3.32564 -0.29662,3.48563 -0.007,0.16 1.01891,0.63625 2.28009,1.05834 l 2.29306,0.76743 2.35398,-4.63035 c 1.29469,-2.54669 3.46731,-6.436062 4.82805,-8.643052 z M 159.10152,87.092556 c 3.10445,-0.392594 7.35611,-0.968222 9.44814,-1.279174 l 3.8037,-0.565368 -3.27453,-3.124802 c -5.05421,-4.823102 -11.09677,-8.979908 -16.55781,-11.39047 -1.66585,-0.735323 -1.98076,-0.787431 -1.91161,-0.316317 0.0455,0.310216 0.42707,0.842816 0.84786,1.183555 0.98192,0.795107 0.98732,1.179356 0.009,0.655893 -0.73544,-0.393592 -0.75018,-0.358162 -0.54538,1.310504 0.11578,0.943269 0.40806,4.607336 0.64951,8.142373 0.42306,6.193809 0.46531,6.421349 1.16274,6.262476 0.39804,-0.09068 3.26372,-0.486077 6.36816,-0.87867 z M 145.39641,67.397981 c -0.27448,-2.953288 -2.03279,-11.443634 -3.26231,-15.752679 -1.03443,-3.625343 -2.82839,-8.977295 -3.10031,-9.249216 -0.24595,-0.245945 -4.48659,2.106218 -6.90813,3.831742 -1.99625,1.42247 -5.30653,4.448708 -5.29926,4.844541 0.002,0.121085 0.66541,0.537215 1.47374,0.924733 2.65983,1.275137 7.51056,5.020089 11.25755,8.691266 0.84657,0.829448 3.17566,4.354782 4.57191,6.920127 0.66003,1.212673 1.26559,2.204861 1.34568,2.204861 0.0801,0 0.0446,-1.086919 -0.0789,-2.415375 z m -68.408153,0.563292 c 0.96928,-3.573413 5.46821,-8.876382 11.90768,-14.035798 2.40967,-1.93066 4.4463,-3.89365 5.24911,-5.059289 2.52642,-3.66825 11.842943,-12.362112 15.391203,-14.362549 0.48507,-0.273473 0.96132,-0.581836 1.05833,-0.685252 1.26226,-1.345557 8.43943,-5.493557 14.02292,-8.104456 1.79475,-0.839248 3.26319,-1.591403 3.26319,-1.671457 0,-0.586382 -6.29413,-5.734668 -7.01102,-5.734668 -0.18618,0 -0.39143,-0.121475 -0.45611,-0.269944 -0.18887,-0.433563 -4.98924,-2.529026 -7.59822,-3.316778 -5.24976,-1.585109 -15.637373,-0.718734 -24.070823,2.00762 -2.15018,0.695105 -4.09118,1.151486 -4.31335,1.01418 -0.24907,-0.153936 -0.30743,-0.0935 -0.15222,0.157637 0.22306,0.360911 -0.42278,0.585868 -1.28923,0.449062 -0.14552,-0.02298 -0.26458,0.119998 -0.26458,0.317722 0,0.208303 -0.40802,0.270487 -0.97014,0.147855 -0.65817,-0.143585 -0.81882,-0.104812 -0.49959,0.120574 0.37932,0.267808 0.35605,0.376156 -0.12003,0.558845 -0.32482,0.124645 -0.75953,0.122209 -0.96603,-0.0054 -0.2065,-0.127622 -0.27652,-0.07198 -0.15561,0.123659 0.12091,0.195634 -0.17954,0.537662 -0.66765,0.760062 -1.08457,0.494161 -1.20706,0.499396 -1.20706,0.05159 0,-0.194027 0.11906,-0.333978 0.26458,-0.311001 0.70528,0.111359 1.16593,-0.07776 0.9683,-0.397538 -0.12093,-0.195669 0.14751,-0.503106 0.59654,-0.683194 l 0.81641,-0.327433 -0.79375,-0.02236 c -0.46874,-0.0132 -0.79375,-0.244113 -0.79375,-0.56394 0,-0.426125 0.14547,-0.463727 0.68236,-0.176389 0.94609,0.506332 1.24341,0.456152 0.75859,-0.128029 -0.33595,-0.404791 0.02,-0.652593 1.98527,-1.382144 4.93048,-1.830286 5.04733,-1.858147 5.40709,-1.289279 0.27866,0.440624 0.32892,0.430136 0.33351,-0.06959 0.008,-0.850554 6.42154,-2.243024 13.568283,-2.945778 3.00253,-0.295244 2.61167,-0.541537 -2.450383,-1.544046 -7.36261,-1.4581252 -10.60999,-1.8179512 -18.34444,-2.0326552 -7.99944,-0.22206 -12.52592,0.07004 -17.74311,1.144985 -8.42698,1.7362892 -17.20944,6.0421752 -25.07389,12.2932962 -1.23616,0.982569 -2.42678,1.733572 -2.64583,1.668896 -0.21905,-0.06468 -0.27887,0.0018 -0.13293,0.14776 0.37561,0.375608 -0.80595,1.587958 -1.28263,1.316065 -0.21661,-0.123546 -0.27442,-0.093 -0.12848,0.06789 0.33397,0.368154 -0.77729,1.636779 -1.20318,1.373564 -0.17291,-0.106861 -0.27075,-0.06209 -0.21744,0.09949 0.14691,0.445237 -3.13607,4.345561 -3.41933,4.062307 -0.13568,-0.135685 -0.20138,-0.08795 -0.14599,0.106079 0.0554,0.194027 -0.25764,1.038322 -0.69563,1.87621 -1.00588,1.92427 -1.38448,4.704986 -0.70928,5.20943 0.26458,0.197668 1.59231,0.734242 2.9505,1.192386 2.99882,1.011556 9.5918,3.835937 13.32538,5.708488 2.46738,1.237497 2.76367,1.312614 2.95796,0.749923 1.18042,-3.418506 4.31956,-7.983778 5.24544,-7.628483 0.28591,0.109712 0.51983,0.02374 0.51983,-0.191045 0,-0.214787 -0.18989,-0.390521 -0.42198,-0.390521 -0.23209,0 0.11056,-0.549448 0.76145,-1.220995 0.65089,-0.671547 1.31703,-1.138428 1.48032,-1.037513 0.60824,0.375916 1.04769,-0.260217 0.57859,-0.837561 -0.38992,-0.479889 -0.37005,-0.530845 0.13347,-0.34234 0.32973,0.123445 0.77824,-0.0035 1.01333,-0.286727 0.60779,-0.732347 1.22143,-0.628194 0.64315,0.109164 -0.43752,0.557884 -0.4254,0.571309 0.12578,0.139345 0.48274,-0.378323 0.53058,-0.626315 0.22939,-1.189099 -0.27535,-0.514497 -0.2733,-0.644794 0.007,-0.471304 0.21551,0.133191 0.38798,0.0072 0.38798,-0.283487 0,-0.497377 4.58218,-4.578779 4.84525,-4.315716 0.0689,0.06892 0.57296,-0.322364 1.12011,-0.869511 0.6997,-0.6997 1.21982,-0.935971 1.7533,-0.796462 0.57192,0.14956 0.70883,0.06893 0.55658,-0.327809 -0.22599,-0.588934 0.75419,-1.133654 1.08289,-0.601799 0.11468,0.185554 0.0404,0.337371 -0.16509,0.337371 -0.20548,0 -0.3736,0.164335 -0.3736,0.365189 0,0.251735 0.212,0.251735 0.68237,0 0.92876,-0.497058 1.31671,-0.458655 1.31671,0.130343 0,0.295152 -0.21361,0.413564 -0.52825,0.292827 -0.32812,-0.125914 -0.43731,-0.05559 -0.28822,0.185647 0.13201,0.213593 0.0896,0.481286 -0.0941,0.594872 -0.18379,0.113585 -0.43387,0.04518 -0.55574,-0.152013 -0.12188,-0.197193 -0.41066,-0.356101 -0.64174,-0.35313 -0.27624,0.0036 -0.25363,0.110879 0.066,0.313336 0.2674,0.169363 0.37222,0.492308 0.23295,0.717655 -0.17558,0.28409 -0.45016,0.182647 -0.8955,-0.330838 -0.42726,-0.492626 -0.72388,-0.60854 -0.88599,-0.346229 -0.13404,0.216881 -0.44605,0.316686 -0.69335,0.221788 -0.26168,-0.100418 -0.4311,0.07379 -0.40529,0.416751 0.0284,0.377806 -0.27217,0.631726 -0.8376,0.70753 -0.48506,0.06503 -1.04069,0.284041 -1.23472,0.48669 -0.2434,0.254222 -0.052,0.297563 0.61736,0.139796 0.57326,-0.135113 0.97014,-0.08159 0.97014,0.130842 0,0.197724 -0.25756,0.359499 -0.57236,0.359499 -0.44408,0 -0.48264,0.108107 -0.17204,0.48236 0.30476,0.367211 0.27104,0.589662 -0.14127,0.931843 -0.45457,0.377258 -0.50588,0.356436 -0.31938,-0.129583 0.12221,-0.318486 0.0762,-0.579065 -0.10231,-0.579065 -0.5334,0 -2.31407,2.032506 -2.09344,2.389498 0.11223,0.181591 -0.21352,0.710428 -0.7239,1.175194 -0.51038,0.464767 -0.80089,0.625998 -0.64558,0.358291 0.19328,-0.33315 0.12774,-0.434885 -0.2077,-0.322408 -0.26954,0.09038 -0.49208,0.417822 -0.49453,0.727644 -0.007,0.913511 -1.62351,2.409259 -2.35317,2.177675 -0.42955,-0.136335 -0.64098,-0.0247 -0.64098,0.338428 0,0.367009 0.19532,0.466915 0.60528,0.309598 0.44828,-0.17202 0.39424,-0.009 -0.2083,0.628432 -0.44747,0.473387 -1.30108,1.533576 -1.89691,2.355976 -0.84533,1.166772 -1.18708,1.409166 -1.55559,1.103332 -0.31042,-0.257623 -0.47226,-0.266316 -0.47226,-0.02537 0,0.201617 0.1831,0.427608 0.40688,0.502203 0.28575,0.09525 0.24282,0.392827 -0.14417,0.999537 -1.41594,2.219851 -2.01506,5.979187 -0.9529,5.979187 0.47756,0 4.60271,2.608777 7.21658,4.56381 4.11963,3.081269 10.27999,8.442692 14.11111,12.281043 2.1343,2.138334 4.04606,3.906139 4.24836,3.928457 0.20229,0.02232 0.55081,-0.63411 0.77448,-1.458728 z M 60.732237,31.519004 c 0.21412,-0.558 0.82623,-0.703328 0.82623,-0.196166 0,0.173269 -0.23004,0.403309 -0.5112,0.5112 -0.34167,0.131113 -0.44614,0.02664 -0.31503,-0.315034 z m 2.89664,-2.042965 c 0.21611,-0.260387 0.28846,-0.577887 0.16079,-0.705555 -0.12767,-0.127669 0.0571,-0.232125 0.41052,-0.232125 0.62029,0 0.62043,0.02453 0.004,0.705556 -0.70875,0.783161 -1.19581,0.979637 -0.57543,0.232124 z m 0.93607,-1.2792 c -0.6833,-0.248012 -0.68221,-0.261516 0.0529,-0.654951 0.59773,-0.319892 0.79059,-0.297549 0.94687,0.10969 0.25313,0.659651 -0.12159,0.864014 -0.9998,0.545261 z m 4.75463,-2.657091 c 0,-0.09701 0.0794,-0.176389 0.17639,-0.176389 0.097,0 0.17639,0.07938 0.17639,0.176389 0,0.09701 -0.0794,0.176389 -0.17639,0.176389 -0.097,0 -0.17639,-0.07937 -0.17639,-0.176389 z m 0.43682,-0.586237 c -0.20992,-0.209925 -0.30305,-0.586578 -0.20696,-0.837006 0.0961,-0.250428 -0.11474,-0.530168 -0.46854,-0.621645 -0.50374,-0.130248 -0.46658,-0.175198 0.17131,-0.207244 0.44801,-0.02251 0.73696,-0.166496 0.64211,-0.319974 -0.0949,-0.153478 0.37202,-0.215485 1.03751,-0.137793 0.66549,0.07769 1.20998,-0.01285 1.20998,-0.201195 0,-0.18835 -0.39688,-0.266586 -0.88195,-0.173859 -0.48507,0.09273 -0.88194,0.07339 -0.88194,-0.04298 0,-0.349426 3.42418,-1.97335 3.6612,-1.736331 0.12064,0.120645 0.21935,0.04947 0.21935,-0.158171 0,-0.20764 0.78105,-0.432535 1.73567,-0.499769 1.44987,-0.102113 1.72829,-0.02498 1.69083,0.46843 -0.0333,0.438284 -0.19656,0.509472 -0.63293,0.275935 -0.4199,-0.224721 -0.76777,-0.116192 -1.21634,0.379467 -0.66608,0.736008 -0.24684,0.986597 0.463,0.27675 0.2296,-0.229599 0.4975,-0.33741 0.59533,-0.23958 0.0978,0.09783 -0.8255,0.735563 -2.05184,1.417184 -1.74372,0.969186 -2.40939,1.172846 -3.05402,0.934381 -0.52938,-0.195829 -0.96068,-0.164313 -1.20547,0.08809 -0.27619,0.28477 -0.21751,0.360604 0.21306,0.275337 0.32682,-0.06472 0.59742,0.04107 0.60132,0.2351 0.004,0.194028 -0.34287,0.305986 -0.77061,0.248797 -0.56783,-0.07592 -0.64855,-0.01642 -0.29908,0.220486 0.27109,0.183773 0.33382,0.413967 0.14466,0.530871 -0.18368,0.113522 -0.50572,0.03465 -0.71565,-0.17528 z m 3.44374,-1.883207 c 0.25313,-0.305009 0.28742,-0.529167 0.0809,-0.529167 -0.19703,0 -0.44961,0.238125 -0.56129,0.529167 -0.11169,0.291042 -0.14811,0.529167 -0.0809,0.529167 0.0672,0 0.31975,-0.238125 0.56129,-0.529167 z m 0.35278,-1.390291 c 0,-0.372348 -0.67702,-0.528783 -0.87839,-0.202963 -0.12187,0.197192 0.0259,0.358532 0.3284,0.358532 0.30249,0 0.54999,-0.07001 0.54999,-0.155569 z m 1.31556,-0.05757 c -0.11722,-0.117225 -0.42149,-0.129758 -0.67615,-0.02785 -0.28143,0.112616 -0.19783,0.196209 0.21313,0.213136 0.37189,0.01532 0.58025,-0.06806 0.46302,-0.185286 z m 0.33073,-0.727604 c -0.12935,-0.129352 -0.34101,-0.129352 -0.47037,0 -0.12935,0.129352 -0.0235,0.235185 0.23519,0.235185 0.2587,0 0.36454,-0.105833 0.23518,-0.235185 z m -7.44919,3.64331 c -0.50957,-0.372602 -0.54245,-0.511376 -0.15562,-0.656737 0.64153,-0.241073 1.52546,0.130532 1.63699,0.688195 0.11589,0.579456 -0.66868,0.562795 -1.48137,-0.03146 z m 0.51123,-0.409514 c 0,-0.09701 -0.0794,-0.176389 -0.17639,-0.176389 -0.097,0 -0.17639,0.07937 -0.17639,0.176389 0,0.09701 0.0794,0.176389 0.17639,0.176389 0.097,0 0.17639,-0.07938 0.17639,-0.176389 z m 7.74427,-4.734315 c 0.28178,-0.183924 0.63896,-0.256139 0.79375,-0.160476 0.15478,0.09566 0.28142,0.02068 0.28142,-0.16664 0,-0.187314 0.35719,-0.262287 0.79375,-0.166606 0.6377,0.139763 0.68972,0.09965 0.26459,-0.204014 -0.64801,-0.462864 -0.028,-0.507253 0.69534,-0.04978 0.77404,0.489517 0.22826,0.802616 -1.65612,0.950071 -1.14777,0.08981 -1.5217,0.02523 -1.17273,-0.202551 z m -135.44981,33.309313 c 0,-0.09701 -0.0794,-0.176389 -0.17639,-0.176389 -0.097,0 -0.17639,0.07937 -0.17639,0.176389 0,0.09701 0.0794,0.176389 0.17639,0.176389 0.097,0 0.17639,-0.07938 0.17639,-0.176389 z m 191.140873,-8.6962 c 1.7377,-1.23195 3.88721,-2.669743 4.77669,-3.195096 l 1.61723,-0.955188 -0.47433,-1.337867 c -0.66443,-1.874062 -2.85732,-5.827686 -4.8511,-8.746201 -2.31947,-3.395242 -2.47489,-3.567558 -3.47462,-3.852329 -0.55188,-0.157202 -0.71203,-0.133227 -0.42903,0.06423 0.31171,0.217481 -1.01837,1.002853 -4.29458,2.535817 -8.30754,3.887163 -15.596,8.878214 -21.74936,14.893694 -3.304583,3.230537 -5.270973,5.584981 -4.664473,5.584981 0.16857,0 1.72719,-0.314065 3.463613,-0.697921 5.69947,-1.259936 13.82675,-0.78755 19.95963,1.160124 l 2.60027,0.825793 2.18031,-2.020062 c 1.19916,-1.111034 3.60205,-3.028021 5.33975,-4.25997 z M -103.54151,42.47308 c 0,-0.09701 -0.0794,-0.176389 -0.17639,-0.176389 -0.097,0 -0.17639,0.07938 -0.17639,0.176389 0,0.09701 0.0794,0.176389 0.17639,0.176389 0.097,0 0.17639,-0.07937 0.17639,-0.176389 z m 251.8187,-1.476668 c 3.08902,-1.930441 2.93538,-4.433426 -0.4332,-7.057868 -1.84373,-1.436439 -1.69216,-1.856615 0.6742,-1.868973 4.24682,-0.02218 7.66783,-2.897968 6.84798,-5.7566 -0.53951,-1.88118 -1.91414,-2.867268 -5.78965,-4.153201 -2.03288,-0.67453 -2.16303,-0.909432 -0.66012,-1.191381 3.24386,-0.608552 6.12818,-3.128475 6.12818,-5.353971 0,-0.959983 -0.28395,-1.541669 -1.19945,-2.457169 -1.78234,-1.782345 -3.22897,-1.671113 -6.58137,0.506045 -4.60413,2.990067 -5.14374,3.113719 -2.93916,0.673505 2.02327,-2.239513 2.72331,-4.182363 2.52179,-6.998824 -0.22488,-3.143019 -1.49424,-5.40045 -3.56554,-6.340942 -1.88337,-0.855167 -2.83863,-0.847578 -4.66607,0.03707 -1.49599,0.724199 -2.75431,2.230493 -3.89443,4.661899 -0.34119,0.727604 -0.71,1.321662 -0.81958,1.320129 -0.10959,-0.0015 -0.21717,-1.006283 -0.23907,-2.232779 -0.13459,-7.537002 -5.81664,-11.863493 -9.91209,-7.547371 -1.67846,1.76891 -2.17811,3.099195 -2.50241,6.662622 l -0.30004,3.296704 -0.80912,-1.763888 c -1.72187,-3.753677 -3.36516,-5.115278 -6.17354,-5.115278 -3.00134,0 -5.37519,3.214622 -5.07122,6.86736 0.10126,1.216827 0.22887,1.382703 1.15807,1.505404 1.36954,0.180847 7.03211,2.291219 10.62674,3.96046 6.96997,3.236649 12.19995,7.979805 17.3253,15.712607 2.16344,3.264061 4.90488,8.697143 5.75921,11.413824 0.68198,2.168615 2.29835,2.605635 4.51459,1.220618 z M 142.69736,28.26447 c 0,-0.192157 0.30133,-0.428177 0.66962,-0.524488 0.3683,-0.09631 0.93589,-0.581475 1.26132,-1.078142 0.74582,-1.138271 0.934,-3.998855 0.29779,-4.526863 -0.53169,-0.441266 -0.61604,-1.004951 -0.15037,-1.004951 0.44231,0 1.44968,2.643133 1.4481,3.7995 -0.002,1.181642 -1.21524,3.256055 -1.90493,3.256055 -0.27802,0 -0.7566,0.09636 -1.06351,0.214132 -0.30692,0.117773 -0.55802,0.05691 -0.55802,-0.135243 z m 0.87099,-7.504938 c -0.33521,-0.54239 0.12395,-0.89234 0.57674,-0.439554 0.25335,0.253358 0.25944,0.450682 0.0185,0.599597 -0.19752,0.122078 -0.46538,0.05006 -0.59523,-0.160043 z m -1.45896,-0.923024 c 0.12936,-0.129352 0.34102,-0.129352 0.47037,0 0.12936,0.129352 0.0235,0.235185 -0.23518,0.235185 -0.25871,0 -0.36454,-0.105833 -0.23519,-0.235185 z m -3.3785,-3.821759 c -0.11168,-0.776111 -0.2571,-1.715564 -0.32316,-2.087673 -0.14621,-0.823681 -1.93512,-2.79671 -3.0512,-3.36525 -1.15269,-0.587186 -2.72358,-0.138046 -3.73936,1.069137 -0.47779,0.567818 -0.95833,1.032397 -1.06787,1.032397 -0.45378,0 -0.14833,-1.197198 0.55883,-2.190315 3.25988,-4.578079 9.77557,0.314516 8.08486,6.070871 -0.2345,0.798398 -0.27828,0.748271 -0.4621,-0.529167 z m -12.38636,-4.67468 c -0.15153,-0.436768 -0.58732,-0.960996 -0.96841,-1.164951 -0.38109,-0.203955 -0.64815,-0.62388 -0.59347,-0.933166 0.0547,-0.309287 -0.1211,-0.639091 -0.39065,-0.732898 -0.32275,-0.112328 -0.39665,-0.01939 -0.21643,0.272202 0.20561,0.332692 -0.0419,0.405925 -0.9956,0.294585 -0.69808,-0.0815 -1.20904,-0.08798 -1.13546,-0.0144 0.0736,0.07358 -0.0883,0.39817 -0.35971,0.72132 -0.27142,0.32315 -0.7104,0.889408 -0.97551,1.25835 -0.63978,0.89037 -0.91484,0.314584 -0.52898,-1.107338 0.36448,-1.343135 1.78407,-2.209299 3.62091,-2.209299 1.06005,0 1.38459,0.207552 2.16242,1.382929 0.52895,0.799295 0.86057,1.729806 0.78579,2.204861 l -0.1294,0.821932 z M 50.622357,41.238358 c 0,-0.194028 -0.15875,-0.352778 -0.35277,-0.352778 -0.19403,0 -0.35278,0.15875 -0.35278,0.352778 0,0.194028 0.15875,0.352778 0.35278,0.352778 0.19402,0 0.35277,-0.15875 0.35277,-0.352778 z m 0.50473,-1.729536 c -0.0928,-0.09281 -0.44278,0.11736 -0.77771,0.467042 -0.58183,0.607462 -0.57431,0.61498 0.16875,0.168745 0.42773,-0.256873 0.70177,-0.542977 0.60896,-0.635787 z m 2.14111,0.318425 c 0.11991,-0.194028 0.0593,-0.352778 -0.13475,-0.352778 -0.19403,0 -0.45089,0.15875 -0.57081,0.352778 -0.11991,0.194028 -0.0593,0.352778 0.13475,0.352778 0.19403,0 0.45089,-0.15875 0.57081,-0.352778 z m -1.7051,-1.293518 c -0.12935,-0.129352 -0.23518,-0.02352 -0.23518,0.235185 0,0.258704 0.10583,0.364537 0.23518,0.235185 0.12936,-0.129352 0.12936,-0.341018 0,-0.47037 z m 2.44298,-0.447216 c 0.70375,0.132643 0.85538,-0.04676 0.42705,-0.505289 -0.37949,-0.406248 -0.51873,-0.392366 -0.88463,0.0882 -0.23884,0.31368 -0.43687,0.729078 -0.44007,0.923106 -0.003,0.194028 0.12536,0.14596 0.28569,-0.106816 0.16033,-0.252777 0.43571,-0.432415 0.61196,-0.399196 z m -29.32426,-2.404404 c 0.42632,-2.315909 1.41985,-4.07977 4.12815,-7.328882 4.16759,-4.999816 10.68357,-10.498413 16.95208,-14.305253 1.60602,-0.975329 3.07879,-1.94392 3.27281,-2.152424 1.13592,-1.220665 -10.85572,1.40754 -17.53003,3.842052 -4.37476,1.595736 -11.021,4.929053 -15.18861,7.617615 -4.55,2.935248 -10.7082304,8.616915 -10.0514904,9.273652 0.22374,0.223744 7.4708404,1.514738 7.6278004,1.358811 0.0745,-0.074 0.17784,-0.520819 0.22966,-0.992926 0.23091,-2.103575 2.05419,-5.696381 2.69105,-5.302779 0.20381,0.125963 0.23455,0.328242 0.0683,0.449509 -0.16624,0.121267 -0.31247,0.379236 -0.32497,0.573264 -0.0542,0.841946 -1.02867,3.704166 -1.2611,3.704166 -0.27798,0 -0.18127,1.651116 0.11401,1.946393 0.15409,0.154086 8.14877,2.524502 8.80347,2.610218 0.12392,0.01623 0.33491,-0.565812 0.46885,-1.293416 z m -7.74617,-8.913393 c 0.12187,-0.197193 0.36936,-0.267199 0.54998,-0.155569 0.48932,0.302415 0.39808,0.514101 -0.22158,0.514101 -0.3025,0 -0.45028,-0.161339 -0.3284,-0.358532 z m 1.28509,-1.639151 c 0.4246,-0.451966 0.86266,-0.731101 0.97346,-0.6203 0.1108,0.110802 -0.0784,0.358058 -0.42039,0.549458 -0.34201,0.1914 -0.54611,0.470535 -0.45355,0.6203 0.0926,0.149764 -0.0657,0.272299 -0.35161,0.272299 -0.38588,0 -0.32089,-0.211849 0.25209,-0.821757 z m 35.57662,11.149085 c 0,-0.205479 0.15875,-0.275485 0.35278,-0.155569 0.19403,0.119916 0.35278,0.04991 0.35278,-0.155569 0,-0.539518 -0.54836,-0.458913 -1.05833,0.155569 -0.30343,0.365605 -0.31678,0.529166 -0.0432,0.529166 0.21779,0 0.39597,-0.168119 0.39597,-0.373597 z m 3.175,-0.861125 c 0.68584,-0.730041 0.72681,-0.881944 0.23789,-0.881944 -0.32487,0 -0.59066,0.238125 -0.59066,0.529167 0,0.291041 -0.11907,0.510367 -0.26459,0.48739 -0.58525,-0.09241 -0.82401,0.06018 -0.61736,0.394554 0.29348,0.474862 0.29014,0.476294 1.23472,-0.529167 z m 2.46945,-2.863862 c 0,-0.291041 -0.15875,-0.431053 -0.35278,-0.311138 -0.19403,0.119916 -0.35278,0.456154 -0.35278,0.747196 0,0.291041 0.15875,0.431054 0.35278,0.311138 0.19403,-0.119916 0.35278,-0.456154 0.35278,-0.747196 z m -1.05834,-0.311138 c 0,-0.09701 -0.0794,-0.176388 -0.17638,-0.176388 -0.097,0 -0.17639,0.07937 -0.17639,0.176388 0,0.09701 0.0794,0.176389 0.17639,0.176389 0.097,0 0.17638,-0.07937 0.17638,-0.176389 z m 0.23519,-1.117129 c -0.12935,-0.129352 -0.23519,-0.02352 -0.23519,0.235185 0,0.258704 0.10584,0.364537 0.23519,0.235185 0.12935,-0.129352 0.12935,-0.341018 0,-0.47037 z m 1.05833,0 c -0.12935,-0.129352 -0.34102,-0.129352 -0.47037,0 -0.12935,0.129352 -0.0235,0.235185 0.23519,0.235185 0.2587,0 0.36453,-0.105833 0.23518,-0.235185 z m 0.82315,-1.217566 c 0,-0.194027 -0.15875,-0.254665 -0.35278,-0.134749 -0.19402,0.119916 -0.35277,0.376779 -0.35277,0.570807 0,0.194027 0.15875,0.254664 0.35277,0.134749 0.19403,-0.119916 0.35278,-0.376779 0.35278,-0.570807 z m 0.88195,-0.311138 c 0.11991,-0.194027 0.0499,-0.352777 -0.15557,-0.352777 -0.20548,0 -0.3736,0.15875 -0.3736,0.352777 0,0.194028 0.07,0.352778 0.15557,0.352778 0.0856,0 0.25368,-0.15875 0.3736,-0.352778 z m -29.45695,-2.645833 c 0,-0.09701 -0.0794,-0.176389 -0.17639,-0.176389 -0.097,0 -0.17638,0.07937 -0.17638,0.176389 0,0.09701 0.0794,0.176389 0.17638,0.176389 0.097,0 0.17639,-0.07938 0.17639,-0.176389 z m 93.133333,-0.705555 c 0,-0.09701 -0.0794,-0.176389 -0.17639,-0.176389 -0.097,0 -0.17639,0.07937 -0.17639,0.176389 0,0.09701 0.0794,0.176389 0.17639,0.176389 0.097,0 0.17639,-0.07938 0.17639,-0.176389 z M 33.571437,25.480952 c -0.12935,-0.129352 -0.23519,-0.02352 -0.23519,0.235185 0,0.258704 0.10584,0.364537 0.23519,0.235185 0.12935,-0.129352 0.12935,-0.341018 0,-0.47037 z m 92.192583,0.411574 c 0,-0.09701 -0.0794,-0.176389 -0.17638,-0.176389 -0.097,0 -0.17639,0.07937 -0.17639,0.176389 0,0.09701 0.0794,0.176389 0.17639,0.176389 0.097,0 0.17638,-0.07937 0.17638,-0.176389 z m 0.94074,-0.0588 c -0.12935,-0.129352 -0.34101,-0.129352 -0.47037,0 -0.12935,0.129352 -0.0235,0.235185 0.23519,0.235185 0.2587,0 0.36454,-0.105833 0.23518,-0.235185 z m 1.05834,-1.058333 c -0.12935,-0.129352 -0.23519,-0.02352 -0.23519,0.235185 0,0.258704 0.10584,0.364537 0.23519,0.235185 0.12935,-0.129352 0.12935,-0.341018 0,-0.47037 z M 35.100137,24.305026 c 0,-0.194028 -0.16812,-0.352778 -0.37359,-0.352778 -0.20548,0 -0.27549,0.15875 -0.15557,0.352778 0.11991,0.194028 0.28803,0.352778 0.37359,0.352778 0.0856,0 0.15557,-0.15875 0.15557,-0.352778 z m -21.64993,-4.080974 c 4.17517,-2.922935 11.41186,-6.619491 15.91729,-8.130667 1.60073,-0.536904 2.91042,-1.103344 2.91042,-1.258757 0,-0.624041 -7.30255,-8.589733 -10.28965,-11.224044 -10.18481,-8.981955 -19.2564704,-14.563538 -31.6909004,-19.498677 -6.3733796,-2.529551 -6.4759196,-2.5265 -4.4831696,0.133365 1.7985,2.400563 5.1838596,7.777726 8.1941996,13.015312 2.45583,4.272817 10.83515,20.829854 13.88023,27.426497 0.64884,1.405616 1.31395,2.472706 1.47801,2.371311 0.16406,-0.101396 2.0016704,-1.376849 4.0835704,-2.83434 z M 11.111257,0.13975 c 0,-0.09701 0.0794,-0.176389 0.17638,-0.176389 0.097,0 0.17639,0.07938 0.17639,0.176389 0,0.09701 -0.0794,0.176389 -0.17639,0.176389 -0.097,0 -0.17638,-0.07937 -0.17638,-0.176389 z m 70.79073,17.932869 c -0.12935,-0.129352 -0.34102,-0.129352 -0.47037,0 -0.12935,0.129352 -0.0235,0.235185 0.23519,0.235185 0.2587,0 0.36453,-0.105833 0.23518,-0.235185 z m 3.29259,-2.05787 c 0,-0.09701 -0.0794,-0.176389 -0.17639,-0.176389 -0.097,0 -0.17638,0.07938 -0.17638,0.176389 0,0.09701 0.0794,0.176389 0.17638,0.176389 0.097,0 0.17639,-0.07937 0.17639,-0.176389 z m 2.35185,-0.411574 c -0.12935,-0.129352 -0.34101,-0.129352 -0.47037,0 -0.12935,0.129352 -0.0235,0.235185 0.23519,0.235185 0.2587,0 0.36454,-0.105833 0.23518,-0.235185 z m 2.05787,-0.117593 c 0.11992,-0.194027 0.0593,-0.352777 -0.13474,-0.352777 -0.19403,0 -0.45089,0.15875 -0.57081,0.352777 -0.11992,0.194028 -0.0593,0.352778 0.13475,0.352778 0.19403,0 0.45089,-0.15875 0.5708,-0.352778 z m 0.88195,-0.176389 c 0,-0.09701 -0.0794,-0.176388 -0.17639,-0.176388 -0.097,0 -0.17639,0.07938 -0.17639,0.176388 0,0.09701 0.0794,0.176389 0.17639,0.176389 0.097,0 0.17639,-0.07938 0.17639,-0.176389 z m 1.5875,-0.176388 c 0.11991,-0.194028 0.13865,-0.352778 0.0416,-0.352778 -0.097,0 -0.2745,0.15875 -0.39442,0.352778 -0.11991,0.194027 -0.13865,0.352777 -0.0416,0.352777 0.097,0 0.2745,-0.15875 0.39442,-0.352777 z m -0.62471,-0.565915 c -0.11723,-0.117225 -0.4215,-0.129758 -0.67616,-0.02785 -0.28142,0.112616 -0.19783,0.196209 0.21314,0.213137 0.37188,0.01532 0.58024,-0.06806 0.46302,-0.185287 z M 45.075517,7.549159 c 3.37057,-0.678505 7.10873,-1.33612 8.30702,-1.461366 1.19829,-0.125246 2.17871,-0.376946 2.17871,-0.559333 0,-0.458565 -3.91978,-5.553336 -6.68851,-8.693451 -2.09249,-2.373167 -7.94818,-7.671086 -10.3844,-9.395258 -0.54831,-0.388055 -1.20613,-0.903993 -1.46181,-1.146527 -1.35226,-1.282724 -1.51847,-8.2e-5 -0.67429,5.203471 1.21649,7.498493 2.27568,14.994798 2.27568,16.105911 0,0.64911 0.0718,1.180199 0.15965,1.180199 0.0878,0 2.91739,-0.55514 6.28795,-1.233646 z m 2.37184,-8.467742 c 0,-0.09701 0.0794,-0.176389 0.17639,-0.176389 0.097,0 0.17639,0.07937 0.17639,0.176389 0,0.09701 -0.0794,0.176389 -0.17639,0.176389 -0.097,0 -0.17639,-0.07938 -0.17639,-0.176389 z m -0.70555,-0.352778 c 0,-0.09701 0.0794,-0.176389 0.17639,-0.176389 0.097,0 0.17639,0.07937 0.17639,0.176389 0,0.09701 -0.0794,0.176389 -0.17639,0.176389 -0.097,0 -0.17639,-0.07938 -0.17639,-0.176389 z m -26.81111,-1.763888 c 0,-0.09701 -0.0794,-0.176389 -0.17639,-0.176389 -0.097,0 -0.17639,0.07938 -0.17639,0.176389 0,0.09701 0.0794,0.176388 0.17639,0.176388 0.097,0 0.17639,-0.07937 0.17639,-0.176388 z m -2.11667,-2.116667 c 0,-0.09701 -0.0794,-0.176389 -0.17639,-0.176389 -0.097,0 -0.17638,0.07938 -0.17638,0.176389 0,0.09701 0.0794,0.176389 0.17638,0.176389 0.097,0 0.17639,-0.07937 0.17639,-0.176389 z"
       id="path8" /></g></svg>
