<?xml version="1.0" encoding="UTF-8" standalone="no"?>
<!-- Created with Inkscape (http://www.inkscape.org/) -->

<svg
   width="248.20741mm"
   height="313.78143mm"
   viewBox="0 0 248.20742 313.78138"
   version="1.1"
   id="svg1"
   xml:space="preserve"
   xmlns="http://www.w3.org/2000/svg"
   xmlns:svg="http://www.w3.org/2000/svg"><defs
     id="defs1"><clipPath
       clipPathUnits="userSpaceOnUse"
       id="clipPath6"><path
         id="path7"
         style="fill:#ff0000;fill-opacity:1;fill-rule:nonzero;stroke:none;stroke-width:0.264583"
         d="M -175.07778,-16.057127 V 287.55793 H 124.54631 V -16.057127 Z m 132.7459,202.572647 c 0.210643,0.005 0.427212,0.0169 0.650089,0.0367 2.23823,0.19855 4.475655,0.4031 6.717938,0.55346 1.973313,0.11308 0.986628,0.0436 2.958475,0.20825 3.181295,0.26563 4.740125,1.85116 4.950601,3.46956 4.949923,1.63749 3.796379,7.35609 -2.592089,6.81354 -3.228716,-0.27422 -1.569593,-0.1301 -4.979024,-0.43357 -4.228209,-0.39317 -8.460616,-0.76265 -12.666927,-1.35341 -6.647387,-0.93358 -5.930551,-7.21034 0.03204,-7.20421 0.04685,5e-5 0.0972,0.004 0.144695,0.005 0.687229,-1.21692 2.304132,-2.15435 4.784204,-2.09548 z" /></clipPath></defs><g
     id="layer1"
     transform="translate(122.61075,136.31398)"><path
       style="fill:#000000"
       d="m -15.270822,177.23368 c -6.87666,-0.93802 -11.46528,-3.08237 -11.46528,-5.35793 0,-0.41302 -0.91005,-0.55087 -4.6743,-0.70805 -7.69626,-0.32137 -12.90411,-1.84267 -14.38692,-4.20265 -0.64799,-1.0313 -0.70832,-1.50545 -0.50799,-3.99251 0.33956,-4.21568 1.38314,-10.33078 3.34132,-19.57916 1.70515,-8.05331 4.26999,-21.37443 4.77421,-24.79596 0.21709,-1.47313 0.11224,-1.94657 -0.82031,-3.70416 -0.58807,-1.10834 -1.26447,-3.01662 -1.50312,-4.24062 -0.23865,-1.22401 -0.55619,-2.09714 -0.70564,-1.94028 -0.14946,0.15685 -1.06711,3.06331 -2.03922,6.4588 -2.14721,7.49996 -2.10974,7.39514 -2.99487,8.37847 -1.72299,1.91415 -3.3958,0.41359 -6.39068,-5.73264 -1.88489,-3.86826 -3.52228,-8.4807 -3.94169,-11.1036 -0.17343,-1.08457 -0.50366,-1.56896 -1.5348,-2.25134 -3.52143,-2.33037 -7.41834,-11.672491 -8.0043,-19.18881 -0.12479,-1.600729 -0.34927,-2.910417 -0.49885,-2.910417 -0.14958,0 -0.60797,0.543675 -1.01865,1.208167 -0.41067,0.664491 -1.70684,2.097098 -2.88036,3.18357 -5.27816,4.886651 -14.69737,8.42129 -16.66054,6.252012 -0.92961,-1.02721 -0.7007,-2.312706 1.16138,-6.522125 1.9354,-4.375136 2.97506,-7.90094 3.5039,-11.882734 0.59894,-4.509622 0.80424,-7.761111 0.49005,-7.761111 -0.16542,0 -0.84205,1.449426 -1.50361,3.220947 -1.33542,3.575949 -1.77623,4.187386 -3.01887,4.187386 -1.19708,0 -2.03978,-1.824594 -3.53233,-7.648131 -1.45329,-5.670372 -2.27047,-12.090497 -2.27047,-17.8379 0,-2.281015 -0.1311,-4.1473 -0.29134,-4.1473 -0.16023,0 -1.19016,2.819401 -2.28873,6.265336 -2.25774,7.081956 -2.70362,7.936179 -4.05977,7.77772 -1.252718,-0.146372 -2.198538,-1.883053 -3.905188,-7.170557 -4.48407,-13.892404 -5.64517,-33.682813 -2.82481,-48.1474956 0.63626,-3.26317381 2.80359,-11.7199745 3.18743,-12.4371885 2.24708,-4.1987049 -8.57985,8.44540009 -13.30063,15.532988 -3.36617,5.0538341 -3.94356,5.7236441 -4.93387,5.7236441 -1.43745,0 -1.69289,-0.791337 -1.45558,-4.5092482 0.63794,-9.9944649 4.01546,-20.3920478 11.93298,-36.7352628 2.10681,-4.348858 3.76402,-7.973567 3.68268,-8.05491 -0.27905,-0.279046 -6.53445,5.578418 -9.42953,8.829675 -3.51123,3.943194 -4.15363,4.403562 -5.4918,3.9356 -2.28709,-0.799802 -1.02725,-4.671052 4.60514,-14.1507 6.35147,-10.689918 17.732138,-22.978037 25.960008,-28.029969 l 2.51159,-1.542123 -0.0972,-1.763888 -0.0972,-1.763889 -1.41112,0.01234 c -0.77611,0.0068 -4.45048,0.301201 -8.16526,0.654257 -7.725228,0.734212 -8.679278,0.585213 -8.872858,-1.385707 -0.13031,-1.326703 0.46834,-1.908676 4.6909,-4.560207 4.089808,-2.568166 8.581718,-4.781081 13.229168,-6.517271 2.03729,-0.76109 3.80965,-1.593211 3.93857,-1.849159 0.34642,-0.687742 1.49968,-7.66831 1.29989,-7.8681 -0.0942,-0.0942 -1.43042,-0.3403 -2.96943,-0.54695 -3.25893,-0.43757 -4.51443,-1.16957 -4.6701,-2.72283 -0.18202,-1.81604 0.80887,-2.20387 5.63079,-2.20387 3.63127,0 4.15263,-0.0747 4.30928,-0.61736 3.60727,-12.495859 6.46281,-19.124599 11.4539,-26.588619 7.78927,-11.64861 13.79822,-13.61895 17.75684,-5.82247 0.57889,1.14011 2.07774,4.63016 3.33079,7.75567 2.5345,6.32184 4.52877,10.20447 7.54716,14.69346 l 2.02615,3.01332 5.24738,0.42842 c 5.66349,0.4624 11.21332,1.58433 15.09117,3.05078 1.3395,0.50654 2.48847,0.86797 2.55326,0.80318 0.22801,-0.22801 -6.14208,-10.38902 -11.57129,-18.45751 -3.01963,-4.48756 -5.59551,-8.57863 -5.72417,-9.09127 -0.28914,-1.15203 0.26979,-2.26294 1.34404,-2.67137 1.48011,-0.56274 7.50823,0.49103 13.36721,2.33669 9.3809097,2.95513 18.33528973,7.56011 25.5180797,13.12324 3.9200603,3.03611 9.7053303,9.02717 12.3191103,12.75732 1.09903,1.56843 2.04318,2.80421 2.09811,2.74619 0.22729,-0.24009 -2.05059,-11.68136 -3.03527,-15.24547 -0.58518,-2.1181 -1.75756,-5.68997 -2.60529,-7.9375 -1.85224,-4.91076 -2.29885,-6.49973 -2.30144,-8.18836 -0.007,-4.78089 7.42012,-1.47911 15.88261,7.06038 9.13398,9.21709 15.1802,20.40448 18.56765,34.355935 0.55106,2.269589 1.08131,4.125897 1.17832,4.125129 0.26588,-0.0021 2.52202,-5.217825 6.25144,-14.452004 4.45077,-11.02026 6.05177,-14.0994 8.72471,-16.77986 2.60591,-2.61324 4.4529,-3.3031 6.9296,-2.58824 2.16251,0.62417 6.62156,5.16935 8.91763,9.08986 4.94573,8.44479 9.22021,21.041668 11.14896,32.856015 1.8095,11.083828 1.51816,24.896989 -0.68403,32.432188 -0.19471,0.666246 -0.31705,1.246562 -0.27186,1.289589 0.0452,0.04303 1.0587,0.795759 2.25225,1.672736 4.32467,3.177602 7.87955,8.65598 8.664182,13.352244 0.4617,2.763457 0.0391,4.52488 -1.596782,6.655866 -1.15489,1.504393 -1.16178,1.535802 -0.64938,2.960715 1.0204,2.837622 -0.64336,6.19499 -3.06995,6.19499 -1.9883,0 -2.88992,-0.603515 -3.67393,-2.45923 l -0.73808,-1.746985 -1.38753,0.779832 -1.38752,0.779832 0.23058,2.544509 c 0.20642,2.277913 0.15408,2.621 -0.49949,3.274577 -0.40154,0.401538 -1.20136,0.824327 -1.77738,0.939531 -0.57602,0.115204 -1.04731,0.2839269 -1.04731,0.3749399 0,0.09101 0.85794,1.34027 1.90653,2.776126 5.0696,6.94187729 8.76176,17.0888501 9.74435,26.7799211 0.7139,7.041014 -0.0637,10.759721 -2.25001,10.759721 -0.9556,0 -1.5797,-0.637607 -6.04282,-6.17361 -3.50463,-4.347102 -11.09647,-12.663894 -11.33881,-12.421558 -0.0746,0.07463 0.48157,2.026889 1.23599,4.338349 2.08467,6.387137 2.69348,10.261968 2.65577,16.902652 -0.025,4.397723 -0.20553,6.462605 -0.81741,9.348611 -1.05208,4.962268 -1.8319,6.702777 -3.00312,6.702777 -1.11624,0 -1.75524,-0.975005 -2.31204,-3.527778 -0.68593,-3.144788 -2.52769,-9.677801 -2.81476,-9.984406 -0.14574,-0.15566 -0.35635,1.669965 -0.46802,4.056944 -0.44243,9.457153 -3.34029,18.450998 -8.022,24.897246 -2.20891,3.041439 -3.57181,2.973999 -4.07965,-0.201871 -0.13032,-0.814992 -0.33572,-1.479847 -0.45645,-1.477456 -0.12072,0.0024 -0.6529,1.075467 -1.18263,2.384613 -1.27479,3.150491 -3.93645,7.419988 -6.59776,10.583294 -1.33043,1.581381 -1.98568,2.617303 -1.70838,2.700866 0.24741,0.07456 1.4662,0.336051 2.70842,0.581101 2.24674,0.443209 7.49761,2.733802 7.95191,3.468873 0.46578,0.753648 0.85329,0.360622 1.44626,-1.466845 1.15002,-3.544246 3.06517,-6.685175 5.64152,-9.25232 2.89016,-2.879846 5.28256,-4.213609 7.58747,-4.23002 0.88133,-0.0063 1.99258,-0.266643 2.46945,-0.578594 5.05797,-3.308794 12.28207,-4.799657 18.70579,-3.860385 6.270432,0.916858 11.315722,3.265652 10.360812,4.823384 -0.20649,0.336831 -1.47649,0.981516 -2.82223,1.432633 -1.34573,0.451116 -2.68492,0.913986 -2.97596,1.028599 -0.321002,0.126412 0.37645,0.517456 1.77296,0.994062 8.16024,2.784939 15.1335,10.05807 17.13541,17.872274 0.4973,1.941156 0.49578,2.210863 -0.0168,2.993196 -0.80151,1.223253 -1.39478,1.082787 -3.44595,-0.815886 -1.1334,-1.049142 -1.71211,-1.411883 -1.54772,-0.970139 0.98795,2.654879 1.66944,7.025528 1.98023,12.699997 0.39054,7.1305 0.50753,7.9116 1.4696,9.81188 1.17071,2.31241 1.80916,1.62375 5.05368,-5.45114 0.74558,-1.62579 1.61092,-2.07464 2.52969,-1.31212 1.22266,1.01471 -0.52195,8.83029 -2.86272,12.8245 -1.87313,3.19625 -5.20113,6.10256 -7.69267,6.71793 -1.10571,0.27309 -1.11525,0.29311 -0.56168,1.17951 0.57063,0.91373 0.20722,1.61097 -1.47474,2.82937 -2.60723,1.88867 -5.61571,2.66795 -10.2226,2.64796 -5.611842,-0.0244 -7.982492,-0.68435 -9.992292,-2.7819 -1.32482,-1.38265 -1.72069,-1.59516 -2.97159,-1.59516 -1.2426,0 -1.71608,-0.24944 -3.40712,-1.79495 -2.52404,-2.30683 -5.15024,-6.24526 -6.49329,-9.73777 -0.58264,-1.51513 -1.80605,-6.08772 -2.71868,-10.16132 -2.11129,-9.4239 -3.17588,-12.223265 -5.71895,-15.038143 -1.18444,-1.311029 -4.1218,-3.131699 -5.05251,-3.131699 -0.217,0 0.15503,0.754063 0.82675,1.675694 3.8789,5.32208 5.82993,12.242218 6.14169,21.784028 0.10202,3.12258 0.0284,6.48463 -0.16486,7.52496 -0.33491,1.80316 -0.30208,1.95065 0.79803,3.58541 4.56258,6.77997 6.71859,24.36738 4.58143,37.37251 -0.67788,4.12507 -1.4199,5.83629 -3.2426,7.47797 -3.81787,3.43869 -14.39798,5.12172 -22.89883,3.64263 -4.14343,-0.72093 -6.61867,-1.86641 -7.58983,-3.51241 -0.53239,-0.90234 -0.91808,-1.20926 -1.32239,-1.05235 -2.71605,1.05411 -6.93199,1.69778 -11.15412,1.70297 -6.6367,0.008 -11.61467,-1.42119 -13.58787,-3.90153 -0.70656,-0.88815 -0.76171,-1.25112 -0.57805,-3.80405 0.11166,-1.55223 0.92374,-7.08751 1.80461,-12.30065 1.94323,-11.50033 1.93206,-11.28772 0.5773,-10.99016 -0.56335,0.12373 -2.61812,0.41416 -4.56616,0.64539 l -3.54187,0.42042 -0.19098,6.87916 c -0.35723,12.86784 -1.89957,23.84611 -3.8443303,27.36385 -0.92986,1.68196 -3.47321,3.06775 -7.11709997,3.87788 -2.99596003,0.66608 -12.75334973,0.95584 -16.22776973,0.48191 z m 1.31751,-5.44169 c 0.7515,-1.02289 0.22706,-1.56019 -2.28765,-2.34374 -3.22564,-1.00507 -3.48575,-1.19307 -3.09021,-2.23343 0.17113,-0.45009 0.23133,-0.89814 0.1338,-0.99568 -0.0975,-0.0975 0.0165,-0.29713 0.25342,-0.44356 0.26547,-0.16407 0.33995,-0.11929 0.1941,0.11669 -0.13015,0.2106 -0.0753,0.48262 0.12188,0.60449 0.1972,0.12188 0.35853,0.0932 0.35852,-0.0638 0,-0.15698 1.38906,-0.31829 3.08681,-0.35849 6.1483597,-0.14556 8.9256897,-0.87713 4.96135,-1.30686 -2.86842,-0.31094 -9.68998,-1.90936 -11.00537,-2.57878 -1.32954,-0.67661 -1.41798,-0.50513 -1.96889,3.81784 -0.41423,3.2504 -0.40054,3.57444 0.17804,4.21377 1.26406,1.39676 8.29679,2.6161 9.0642,1.57156 z m -6.65353,-3.86892 c -0.10922,-0.28464 -0.13051,-0.7212 -0.0473,-0.97014 0.0832,-0.24893 0.23492,-0.016 0.33713,0.51753 0.19958,1.04183 0.0349,1.29894 -0.28983,0.45261 z m -0.13204,-1.95192 c 0,-0.2587 0.10584,-0.36453 0.23519,-0.23518 0.12935,0.12935 0.12935,0.34102 0,0.47037 -0.12935,0.12935 -0.23519,0.0235 -0.23519,-0.23519 z m 25.1391197,5.02709 c 0.52334,-0.58316 1.67199,-5.23052 1.67199,-6.76473 0,-0.58466 -0.13764,-0.65815 -0.78447,-0.41887 -0.65226,0.24129 -0.85564,0.72988 -1.20673,2.89905 -0.23224,1.43487 -0.53407,3.12479 -0.67073,3.75538 -0.27695,1.27788 0.12515,1.49282 0.98994,0.52917 z m -22.3168997,-2.73403 c 0,-0.097 -0.0794,-0.17639 -0.17638,-0.17639 -0.097,0 -0.17639,0.0794 -0.17639,0.17639 0,0.097 0.0794,0.17639 0.17639,0.17639 0.097,0 0.17638,-0.0794 0.17638,-0.17639 z m 72.30527,-1.98558 c 1.26669,-0.93651 1.038,-1.62975 -0.63725,-1.93171 -1.84562,-0.33268 -1.86849,-0.37387 -1.06436,-1.91664 0.49409,-0.94793 0.97277,-1.40526 1.48682,-1.42053 1.16395,-0.0346 2.71912,-0.20997 4.42031,-0.49852 1.08131,-0.18341 1.39919,-0.35483 1.05833,-0.57071 -0.34202,-0.21662 -0.17183,-0.31161 0.57116,-0.31878 0.58208,-0.006 1.4552,-0.11927 1.94027,-0.25256 0.59954,-0.16474 -0.36063,-0.38088 -2.99861,-0.67499 -2.1343,-0.23796 -4.7973,-0.62551 -5.91776,-0.86123 -2.23158,-0.46948 -2.86986,-0.267 -1.81759,0.57658 0.6501,0.52117 0.64512,0.52818 -0.11395,0.16033 -0.43656,-0.21156 -0.79375,-0.59998 -0.79375,-0.86316 0,-0.54933 -1.73456,-1.08974 -2.12716,-0.66272 -0.44438,0.48333 -1.03923,7.57853 -0.69007,8.23094 0.32076,0.59934 3.34281,1.67267 4.85998,1.7261 0.44442,0.0156 1.26506,-0.30943 1.82363,-0.7224 z m -4.57194,-2.60053 c 0,-0.097 0.0794,-0.17639 0.17639,-0.17639 0.097,0 0.17639,0.0794 0.17639,0.17639 0,0.097 -0.0794,0.17639 -0.17639,0.17639 -0.097,0 -0.17639,-0.0794 -0.17639,-0.17639 z m 0.45368,-3.175 c 0.003,-0.97014 0.0712,-1.32514 0.15225,-0.7889 0.0811,0.53624 0.0789,1.32999 -0.005,1.76389 -0.0837,0.43389 -0.15008,-0.005 -0.14743,-0.97499 z m 5.80813,-0.76281 c 0.24253,-0.0979 0.63941,-0.0979 0.88194,0 0.24254,0.0979 0.0441,0.17794 -0.44097,0.17794 -0.48507,0 -0.68351,-0.0801 -0.44097,-0.17794 z m -2.02847,-0.29552 c 0,-0.097 0.0794,-0.17639 0.17638,-0.17639 0.097,0 0.17639,0.0794 0.17639,0.17639 0,0.097 -0.0794,0.17638 -0.17639,0.17638 -0.097,0 -0.17638,-0.0794 -0.17638,-0.17638 z m -1.6463,-0.41158 c 0.12935,-0.12935 0.34102,-0.12935 0.47037,0 0.12935,0.12935 0.0235,0.23519 -0.23519,0.23519 -0.2587,0 -0.36453,-0.10584 -0.23518,-0.23519 z m -86.6187,6.51463 c 0.54336,-0.54336 0.5511,-1.10838 0.0106,-0.77434 -0.2749,0.1699 -0.33981,0.0651 -0.19436,-0.31399 0.14789,-0.38539 0.0649,-0.51017 -0.25714,-0.3866 -0.26154,0.10036 -0.57603,0.0198 -0.69889,-0.17895 -0.12285,-0.19878 -0.48397,-0.26141 -0.80248,-0.13919 -0.4293,0.16474 -0.5226,0.075 -0.36065,-0.3471 0.15367,-0.40045 -0.0864,-0.70427 -0.80932,-1.02427 -0.9295,-0.41144 -1.01935,-0.59939 -0.93941,-1.96522 0.0539,-0.92073 -0.0538,-1.4604 -0.27595,-1.38252 -0.2004,0.0703 -0.35259,0.46098 -0.33823,0.86826 0.0144,0.40728 -0.10469,0.65966 -0.26458,0.56084 -0.38686,-0.23909 -0.3751,-2.2547 0.0131,-2.2547 0.16712,0 0.2303,-0.38476 0.14041,-0.85503 l -0.16345,-0.85503 1.22096,0.59045 c 0.7057,0.34127 1.00771,0.64069 0.71564,0.7095 -0.2854,0.0672 -0.41729,0.34849 -0.30304,0.64621 0.11126,0.28994 0.20229,0.65418 0.20229,0.80941 0,0.15524 1.34937,0.30524 2.99861,0.33333 1.72307,0.0293 2.99861,-0.0935 2.99861,-0.28875 0,-0.18691 -0.51594,-0.40386 -1.14653,-0.48211 -0.63059,-0.0783 -0.075,-0.16769 1.23472,-0.19874 2.83423,-0.0672 3.1308,-0.57559 0.52917,-0.90715 -2.30647,-0.29394 -8.22604,-1.87152 -9.13466,-2.43441 -0.96623,-0.59859 -1.14883,-0.15739 -1.88906,4.56431 -0.75218,4.79789 -0.70607,4.9003 2.52389,5.60624 2.69528,0.58907 4.46486,0.62438 4.98969,0.0996 z m -0.635,-0.10583 c 0,-0.097 0.0794,-0.17639 0.17639,-0.17639 0.097,0 0.17639,0.0794 0.17639,0.17639 0,0.097 -0.0794,0.17639 -0.17639,0.17639 -0.097,0 -0.17639,-0.0794 -0.17639,-0.17639 z m -2.49122,-0.54263 c -0.6208,-0.38368 -0.28498,-0.72055 0.84158,-0.84421 0.59634,-0.0655 0.82616,0.0489 0.70943,0.35314 -0.23823,0.62082 -0.96748,0.85171 -1.55101,0.49107 z m 0.72733,-0.16293 c 0,-0.097 -0.0794,-0.17639 -0.17639,-0.17639 -0.097,0 -0.17638,0.0794 -0.17638,0.17639 0,0.097 0.0794,0.17639 0.17638,0.17639 0.097,0 0.17639,-0.0794 0.17639,-0.17639 z m 1.05834,0 c 0,-0.097 0.0794,-0.17639 0.17639,-0.17639 0.097,0 0.17638,0.0794 0.17638,0.17639 0,0.097 -0.0794,0.17639 -0.17638,0.17639 -0.097,0 -0.17639,-0.0794 -0.17639,-0.17639 z m -4.23334,-3.52778 c 0,-0.097 0.0794,-0.17638 0.17639,-0.17638 0.097,0 0.17639,0.0794 0.17639,0.17638 0,0.097 -0.0794,0.17639 -0.17639,0.17639 -0.097,0 -0.17639,-0.0794 -0.17639,-0.17639 z m 5.40926,-2.88101 c 0.12935,-0.12936 0.34102,-0.12936 0.47037,0 0.12936,0.12935 0.0235,0.23518 -0.23518,0.23518 -0.25871,0 -0.36454,-0.10583 -0.23519,-0.23518 z m -1.76389,-0.35278 c 0.12936,-0.12935 0.34102,-0.12935 0.47037,0 0.12936,0.12935 0.0235,0.23518 -0.23518,0.23518 -0.2587,0 -0.36454,-0.10583 -0.23519,-0.23518 z m 109.90042,4.2113 c 0.59763,-2.66075 0.87096,-5.74001 0.5095,-5.74001 -0.95074,0 -1.44702,1.01628 -1.65065,3.38022 -0.11836,1.37404 -0.31942,3.01938 -0.44681,3.6563 -0.21662,1.08309 -0.18496,1.13307 0.48916,0.77229 0.45791,-0.24507 0.85863,-0.99953 1.0988,-2.0688 z m -71.1405403,0.77558 c 1.97728,-0.29698 3.64331,-0.58822 3.70228,-0.64718 0.24666,-0.24667 1.14268,-7.82545 1.48626,-12.57118 0.20369,-2.81341 0.40204,-10.14847 0.44078,-16.30015 0.0676,-10.7355 0.0939,-11.13236 0.65517,-9.87778 1.00841,2.25416 1.7789303,4.85886 2.2303903,7.53962 l 0.43565,2.58692 3.33808,-0.11693 c 5.93682,-0.20796 11.92856,-1.67975 17.57682,-4.3175 2.42522,-1.13259 2.90699,-1.48817 2.70883,-1.99936 -0.72339,-1.86616 -1.24704,-4.7467 -1.23277,-6.7813 l 0.0162,-2.30713 1.01106,2.18432 c 2.41372,5.21464 5.3846,8.60803 10.48461,11.97575 2.22459,1.46897 4.14087,2.92145 4.2584,3.22773 0.19114,0.4981 -0.70698,13.95837 -1.20957,18.12815 l -0.19879,1.64929 1.89049,0.56141 c 1.03977,0.30878 3.86517,0.82475 6.27868,1.14661 3.76075,0.50152 4.88927,0.52265 7.89277,0.14782 3.65763,-0.45648 9.21692,-1.89767 10.07857,-2.61278 0.41403,-0.34361 0.46651,-1.63502 0.30382,-7.47572 -0.1104,-3.96356 -0.43977,-8.40205 -0.75093,-10.11927 -1.05597,-5.82778 -3.17258,-11.40341 -5.0365,-13.26733 -0.85239,-0.8524 -0.87424,-0.9762 -0.50064,-2.83651 0.54999,-2.73861 0.48199,-11.25187 -0.12168,-15.23309 -1.22593,-8.085052 -4.41921,-14.253434 -9.40771,-18.172621 -4.41006,-3.464738 -7.91006,-4.535328 -14.213,-4.347517 -3.8583,0.114966 -4.47989,0.227936 -6.51029,1.183203 l -2.24472,1.056101 2.14377,1.761948 c 1.17906,0.969071 2.10937,1.991099 2.06733,2.271172 -0.0547,0.364683 -1.36645,0.732146 -4.62127,1.29459 -3.86978,0.668711 -4.76044,0.948289 -5.99623,1.882232 -0.79826,0.603276 -2.20315,1.528835 -3.12199,2.056798 -0.98236,0.564463 -1.67271,1.214271 -1.6757,1.577294 -0.004,0.483192 -0.30873,0.617361 -1.40232,0.617361 -0.76848,0 -3.50692,0.470138 -6.08541,1.044751 -9.5576803,2.129908 -21.1451803,2.959908 -29.60983,2.120917 -5.15195,-0.510647 -12.89017,-1.954748 -17.1822,-3.20653 -2.0081,-0.585666 -3.72573,-0.990206 -3.81696,-0.898977 -0.44452,0.444527 -2.31879,5.577218 -2.90515,7.955768 -1.30977,5.3131 -1.25119,6.17832 0.24136,3.56469 0.44235,-0.77462 1.06413,-1.4084 1.38171,-1.4084 0.31759,0 0.47125,-0.10618 0.34148,-0.23595 -0.31692,-0.31691 0.83566,-1.56232 1.22384,-1.32241 0.1681,0.10389 0.30563,-0.006 0.30563,-0.2435 0,-0.23782 0.0975,-0.33492 0.21661,-0.21579 0.11913,0.11913 -0.10891,0.63043 -0.50676,1.13621 -0.39785,0.50579 -1.06955,1.95991 -1.49267,3.23139 -0.63111,1.89648 -0.73917,2.85953 -0.60152,5.36078 0.0923,1.67695 0.36181,3.52525 0.59895,4.10733 0.43009,1.05573 0.43434,1.05008 1.72467,-2.29305 l 1.29352,-3.35139 0.23049,2.29305 c 0.39406,3.9204 2.27456,7.91845 5.191,11.03635 1.57065,1.67916 4.91317,4.33931 5.1355,4.08712 0.0632,-0.0717 0.76333,-2.51166 1.55578,-5.42208 0.79244,-2.91042 1.68644,-5.92667 1.98667,-6.70278 0.52301,-1.35201 0.53749,-1.21166 0.34584,3.35139 -0.35669,8.49223 -1.40277,16.90291 -3.72951,29.98611 -0.7764,4.36563 -1.44088,8.33438 -1.47663,8.81944 -0.0584,0.79243 0.18127,0.96422 2.36127,1.6925 6.11263,2.04207 15.3781097,2.72026 22.5164797,1.64809 z M 51.078718,120.37463 c -1.19644,-1.83295 -2.4632,-5.14846 -2.60086,-6.80727 -0.12761,-1.53764 -0.0182,-1.93417 0.80328,-2.91042 1.58008,-1.87782 3.93941,-1.29891 4.99413,1.2254 l 0.50352,1.20509 0.91791,-0.72203 c 0.59475,-0.46783 1.44078,-0.72202 2.40315,-0.72202 2.19543,0 3.13925,1.33912 2.54328,3.60849 -0.25732,0.97983 -3.63549,3.52709 -6.84365,5.16037 -1.85697,0.94538 -2.08115,0.94228 -2.72076,-0.0376 z m 7.40973,-4.26331 c 0.85733,-0.7441 1.55878,-1.63231 1.55878,-1.9738 0,-1.07079 -1.15426,-1.78952 -2.72543,-1.69707 -0.79336,0.0467 -1.37637,0.15247 -1.29558,0.23509 0.0808,0.0826 -0.20646,0.52636 -0.63836,0.9861 l -0.78527,0.83587 -0.78464,-1.77792 c -0.50449,-1.14312 -1.12178,-1.93153 -1.72886,-2.20814 -0.85968,-0.39169 -1.02292,-0.3387 -1.82338,0.59188 -0.7431,0.86392 -0.85402,1.28376 -0.7167,2.71288 0.0894,0.92993 0.67383,2.72951 1.29883,3.99907 l 1.13637,2.3083 2.47274,-1.32968 c 1.36,-0.73133 3.17418,-1.93849 4.0315,-2.68258 z m -17.28776,-10.81899 c -1.68744,-2.29223 -2.15102,-3.65129 -1.79632,-5.26624 0.30979,-1.41044 0.99628,-1.89103 3.12885,-2.190399 0.99847,-0.140165 2.25167,-0.363601 2.78488,-0.496524 2.39876,-0.597977 3.75711,2.118884 2.42778,4.855803 -0.89607,1.84489 -3.7936,5.21507 -4.48368,5.21507 -0.2764,0 -1.20408,-0.95297 -2.06151,-2.11771 z m 3.1687,0.18865 c 0.37663,-0.28487 0.55335,-0.52299 0.39271,-0.52916 -0.16064,-0.006 0.28179,-0.68165 0.98318,-1.50107 1.46874,-1.71589 1.8371,-2.81491 1.37955,-4.115942 -0.26393,-0.750479 -0.54742,-0.920597 -1.53408,-0.920597 -0.99878,0 -1.24771,0.154147 -1.42424,0.881944 l -0.21391,0.881945 -0.44308,-0.814893 c -0.58902,-1.083302 -2.03098,-0.912594 -2.97065,0.351684 l -0.70453,0.947899 0.9855,2.05071 c 1.5835,3.29506 2.20814,3.78207 3.54955,2.76748 z m 2.97784,-2.83344 c 0,-0.097 -0.0794,-0.17639 -0.17639,-0.17639 -0.097,0 -0.17639,0.0794 -0.17639,0.17639 0,0.097 0.0794,0.17639 0.17639,0.17639 0.097,0 0.17639,-0.0794 0.17639,-0.17639 z m 8.64305,3.39737 c -2.16177,-1.25052 -3.64819,-2.69873 -3.93247,-3.83141 -0.30127,-1.20034 0.39223,-2.503726 1.47705,-2.775997 1.1486,-0.288281 2.63181,0.354463 2.63181,1.140487 0,0.5506 -0.0445,0.55112 -0.64514,0.008 -0.7618,-0.689425 -1.51985,-0.747185 -2.10652,-0.16051 -0.79946,0.79946 -0.44681,1.9428 1.00331,3.2529 1.37827,1.24519 3.73367,2.60646 3.97279,2.29602 0.959,-1.24501 4.12556,-7.542332 4.12556,-8.204469 0,-0.97166 -1.44739,-2.353895 -2.46485,-2.353895 -1.09177,0 -2.98988,1.557698 -3.34074,2.741606 -0.18565,0.626422 -0.48423,1.138949 -0.66352,1.138949 -0.52198,0 0.0422,-2.57474 0.63712,-2.907679 0.29718,-0.166309 0.54033,-0.4883 0.54033,-0.715536 0,-0.227236 -0.57373,0.177527 -1.27496,0.899474 -0.70123,0.721947 -1.59003,1.31263 -1.97513,1.31263 -1.51507,0 -4.85461,-4.85438 -4.86049,-7.065254 -0.007,-2.716604 1.63461,-3.425404 5.08885,-2.196906 3.36467,1.196641 4.71917,3.301901 3.75538,5.836862 l -0.32468,0.853965 1.46467,-0.50462 c 1.2883,-0.443853 1.60161,-0.439321 2.60179,0.03764 1.44303,0.688132 2.36081,2.398178 2.07967,3.874924 -0.32199,1.691289 -4.48234,8.141389 -5.32222,8.251419 -0.38704,0.0507 -1.49747,-0.36696 -2.46761,-0.92815 z m -0.89634,-10.142165 c 2.3315,-1.961823 2.74116,-4.144401 1.04566,-5.571063 -1.2439,-1.046674 -1.67537,-1.131149 -1.96202,-0.384137 -0.28527,0.743406 -0.60887,0.658974 -1.01406,-0.264583 -0.19153,-0.436563 -0.71852,-0.846195 -1.17108,-0.910293 -0.91712,-0.129896 -2.17577,0.81953 -2.17577,1.641228 0,0.614397 2.27128,4.876868 3.08814,5.795453 0.72006,0.809737 0.89087,0.785814 2.18913,-0.306605 z m -30.98542,63.350015 c 0.31559,-1.94844 0.6405,-3.60932 0.72202,-3.69084 0.0815,-0.0815 0.92512,0.0856 1.87466,0.37136 1.16179,0.34964 1.84291,0.4031 2.08257,0.16345 0.23965,-0.23966 0.1624,-0.35613 -0.23619,-0.35613 -0.32577,0 -1.63062,-0.34085 -2.89967,-0.75745 -1.26905,-0.4166 -2.37694,-0.68788 -2.46197,-0.60285 -0.085,0.085 -0.42732,1.79669 -0.76063,3.80367 -0.58681,3.53332 -0.58514,3.66435 0.0525,4.13063 0.36221,0.26485 0.74729,0.48138 0.85572,0.48117 0.10844,-2.1e-4 0.45537,-1.59456 0.77095,-3.54301 z m -61.89832,-1.63068 c -0.12935,-0.12935 -0.34102,-0.12935 -0.47037,0 -0.12935,0.12935 -0.0235,0.23519 0.23518,0.23519 0.25871,0 0.36454,-0.10584 0.23519,-0.23519 z m 11.52829,-1.44051 c 0.42746,-1.55822 1.03403,-4.75729 2.35783,-12.43541 0.78614,-4.55966 1.51217,-8.71424 1.6134,-9.23242 0.16355,-0.8372 -0.064,-1.1099 -2.04269,-2.44846 -2.86296,-1.9367 -5.52029,-4.65724 -7.18774,-7.35872 -1.23208,-1.99614 -1.37009,-2.10856 -2.04131,-1.66289 -0.39594,0.26289 -0.84348,0.70256 -0.99452,0.97704 -0.40857,0.74246 -5.70729,27.10925 -5.73644,28.54489 l -0.0251,1.23472 2.82222,0.9402 c 2.83111,0.94315 7.84239,1.96412 9.9422,2.02556 0.78779,0.0231 1.17328,-0.15133 1.29211,-0.58451 z m 67.65652,-1.72543 c 1.0919,-0.11441 2.16135,-0.31683 2.37656,-0.44984 0.38958,-0.24077 1.82109,-12.12782 1.80168,-14.96099 -0.01,-1.44943 -0.0504,-1.4968 -2.55764,-2.99008 -1.40115,-0.83452 -3.37431,-2.29446 -4.3848,-3.2443 l -1.83725,-1.72698 -3.27803,1.70494 c -1.80291,0.93772 -4.32822,2.0463 -5.61179,2.46351 l -2.33376,0.75857 -0.24509,2.72106 c -0.13479,1.49659 -0.63241,5.01153 -1.10582,7.81098 -0.4734,2.79945 -0.86073,5.36638 -0.86073,5.70428 0,0.88635 3.83113,2.0048 8.81944,2.57473 1.34066,0.15318 6.04583,-0.0336 9.21723,-0.36588 z m 67.099382,-27.24172 c 0.52076,-0.20513 0.30261,-0.4151 -1.12683,-1.08462 -0.97494,-0.45663 -2.29673,-1.371 -2.93732,-2.03192 l -1.16471,-1.20167 1.58599,0.28261 c 2.58265,0.46022 6.73023,0.27851 8.70426,-0.38133 1.9151,-0.64014 4.69978,-2.44282 4.69978,-3.04243 0,-0.19812 -1.05096,-0.35057 -2.41681,-0.35057 -3.92962,0 -6.55278,-1.31389 -9.15955,-4.58786 -1.3192,-1.65684 -3.84002,-6.92447 -3.48405,-7.28044 0.0869,-0.0869 0.55892,0.52606 1.04891,1.36217 2.00163,3.41553 6.71685,6.77684 10.15303,7.23772 l 1.38558,0.18585 -1.0728,-2.08013 c -1.27934,-2.48057 -1.86359,-5.78911 -2.42124,-13.71092 -0.47793,-6.789384 -1.38267,-11.131896 -2.99106,-14.356164 -0.65867,-1.32043 -1.08203,-2.400782 -0.94079,-2.400782 0.33271,0 4.19445,2.680745 5.22308,3.625759 0.4358,0.400372 0.89441,0.625899 1.01914,0.50117 0.48639,-0.486388 -2.30928,-4.4491 -5.16289,-7.318134 -2.56188,-2.57573 -3.53809,-3.281755 -6.70278,-4.847645 -3.943332,-1.95117 -8.251512,-3.240886 -10.904342,-3.264375 l -1.61927,-0.01434 1.23473,-1.062632 c 1.35571,-1.166761 5.22616,-3.142027 6.15667,-3.142027 1.45188,0 -0.0477,-0.682469 -2.35463,-1.071576 -2.95676,-0.498722 -7.27908,-0.281212 -10.32843,0.519752 -2.99764,0.78738 -8.10432,3.398761 -10.534,5.386722 -1.13703,0.93032 -2.56368,2.088366 -3.17034,2.573435 l -1.10302,0.881944 0.6594,-1.058333 c 0.36267,-0.582083 0.95588,-1.386065 1.31826,-1.786625 0.74299,-0.821276 0.83485,-1.211986 0.28497,-1.211986 -0.63244,0 -4.23049,3.609714 -5.13287,5.149516 -0.80248,1.369329 -2.24558,4.70465 -2.74765,6.350419 -0.21668,0.710274 -0.0773,0.748621 3.44553,0.948118 3.98326,0.22557 7.94085,1.317135 10.78385,2.97435 3.0766,1.793387 6.75111,5.857694 7.2774,8.049404 0.21089,0.878214 0.004,0.715971 -1.28888,-1.0102 -1.8609,-2.484775 -5.47502,-5.002919 -9.11883,-6.353551 -1.42372,-0.527723 -2.66522,-0.882864 -2.75888,-0.789202 -0.0937,0.09366 0.48974,0.852423 1.29645,1.686136 2.7802,2.873247 4.54257,7.597084 6.74592,18.081667 1.63734,7.79127 2.93847,10.75214 6.3525,14.45593 1.61676,1.75398 5.03436,4.2214 5.58241,4.03037 0.2006,-0.0699 -0.17974,-1.00026 -0.8452,-2.06741 -2.10566,-3.37671 -3.05751,-7.15245 -3.46841,-13.75833 l -0.18652,-2.99861 0.52041,1.76389 c 1.08973,3.6936 3.09985,8.40932 4.43998,10.41618 3.12621,4.68153 8.545842,7.74345 14.225292,8.03684 0.19403,0.01 0.64338,-0.0962 0.99856,-0.23615 z M -47.167802,115.47863 c 0.38673,-1.62432 1.48218,-5.4933 2.43432,-8.59775 0.95214,-3.10445 1.92424,-6.35882 2.16023,-7.231947 l 0.42905,-1.5875 0.445,1.411111 c 0.24474,0.776106 0.45719,1.758926 0.4721,2.184036 0.0149,0.42512 0.1727,0.86291 0.35063,0.97288 0.40756,0.25189 1.28181,-2.39035 2.27014,-6.861082 l 0.19497,-0.881945 -3.50235,-0.02077 c -1.9263,-0.01143 -3.6127,-0.131114 -3.74756,-0.265974 -0.13486,-0.134861 0.0994,-0.611994 0.52054,-1.060297 0.42116,-0.448303 0.76574,-0.951114 0.76574,-1.117359 0,-0.166244 0.25595,-0.585078 0.56877,-0.930742 0.53135,-0.587141 0.50235,-0.642575 -0.44097,-0.842785 -2.3082,-0.48989 -7.77001,-2.305847 -8.51217,-2.83015 -0.43981,-0.310704 -0.70562,-0.717068 -0.59069,-0.903032 0.55494,-0.897906 7.69685,-3.98391 11.35631,-4.907037 1.39822,-0.35271 1.49931,-0.459631 1.49931,-1.585738 0,-1.123788 -0.10397,-1.234781 -1.49931,-1.600528 -6.9168,-1.813043 -13.14827,-4.300978 -18.62033,-7.434234 -6.39093,-3.659387 -11.41999,-7.221994 -15.04976,-10.661292 -1.82027,-1.724755 -1.63427,-2.350439 -2.39322,8.050426 -0.31132,4.266432 -0.79944,8.887151 -1.08472,10.268266 -0.64711,3.132852 -2.04188,7.274189 -2.99258,8.885499 -0.39714,0.673112 -0.64196,1.303961 -0.54404,1.401886 0.33444,0.33444 4.17252,-1.44219 6.68787,-3.095787 4.16522,-2.738233 7.55763,-6.713252 9.22002,-10.803477 l 0.83292,-2.049356 0.41206,1.049854 c 0.73313,1.867857 1.04661,3.079935 2.12602,8.220321 0.58368,2.77959 1.46793,6.351465 1.96501,7.9375 0.98478,3.142159 3.60313,9.057309 4.00923,9.057309 0.13913,0 0.36189,-1.230312 0.49502,-2.734028 0.2587,-2.921932 0.95697,-7.570738 1.11362,-7.414084 0.0521,0.05204 0.58934,2.872596 1.19399,6.267896 1.478,8.29949 2.05142,10.95119 3.08953,14.28716 0.97762,3.14161 3.29105,8.74716 3.5168,8.5214 0.0799,-0.0799 0.46176,-1.47433 0.8485,-3.09865 z m 13.90531,-10.53803 c 0.11992,-0.19403 0.13866,-0.35278 0.0416,-0.35278 -0.097,0 -0.2745,0.15875 -0.39442,0.35278 -0.11991,0.19403 -0.13865,0.35278 -0.0416,0.35278 0.097,0 0.27451,-0.15875 0.39442,-0.35278 z M 3.3781877,96.20935 c -0.31039,-3.626302 -0.85222,-6.909798 -1.29214,-7.830369 -0.9843,-2.059724 -4.80136,-1.598404 -6.23533,0.753585 -1.40383,2.302563 -0.7743,4.295367 1.92237,6.085313 2.01871003,1.339947 5.08058,3.019943 5.50397,3.019943 0.15111,0 0.19662,-0.912812 0.10113,-2.028472 z m -2.45491997,0.210076 c -0.15596,-0.252342 -0.0968,-0.311525 0.15556997,-0.155569 0.40666,0.251333 0.54598,0.562854 0.25171,0.562854 -0.0856,0 -0.26884,-0.183278 -0.40727997,-0.407285 z m -4.71640003,-3.0973 c -0.38404,-0.71757 -0.51415,-2.406405 -0.15796,-2.050215 0.24376,0.243758 0.83575,2.732578 0.64997,2.732578 -0.0697,0 -0.29116,-0.307063 -0.49201,-0.682363 z m 0.34036,-2.492637 c 0,-0.258703 0.10584,-0.364537 0.23519,-0.235185 0.12935,0.129352 0.12935,0.341019 0,0.47037 -0.12935,0.129352 -0.23519,0.02352 -0.23519,-0.235185 z m -18.6972197,5.092333 c 4.12953,-0.929785 5.85053,-1.777617 6.53461,-3.219211 0.9836,-2.072775 9.1e-4,-5.302351 -1.84367,-6.059159 -1.89175,-0.776165 -4.69094,-0.56903 -4.69094,0.347122 0,0.194028 0.19844,0.230486 0.44097,0.08102 0.24254,-0.149467 0.12885,0.198351 -0.25265,0.77293 -1.49101,2.245669 -4.7276,8.419777 -4.55782,8.694484 0.1923,0.311157 0.3374,0.290662 4.3695,-0.617184 z m -0.35278,-0.682611 c 0,-0.09701 0.0794,-0.176389 0.17639,-0.176389 0.097,0 0.17639,0.07937 0.17639,0.176389 0,0.09701 -0.0794,0.176389 -0.17639,0.176389 -0.097,0 -0.17639,-0.07937 -0.17639,-0.176389 z m 4.93889,-5.115277 c 0,-0.258704 0.10584,-0.364537 0.23519,-0.235185 0.12935,0.129351 0.12935,0.341018 0,0.47037 -0.12935,0.129352 -0.23519,0.02352 -0.23519,-0.235185 z m 12.5796897,5.978306 c -1.7016,-1.33848 -2.10301,-5.4691 -0.73445,-7.557779 0.31301,-0.477716 1.10963,-1.064031 1.77027,-1.30292 0.66064,-0.23889 1.20116,-0.640579 1.20116,-0.892643 0,-0.667398 -0.83254,-0.561066 -1.84546,0.235703 -0.48526,0.3817 -1.00837,0.580138 -1.16247,0.440972 -0.15411,-0.139165 -0.1844,-0.08437 -0.0673,0.121757 0.11708,0.206132 -0.0946,0.841132 -0.47028,1.411111 -0.78346,1.188507 -0.95832,4.968827 -0.28969,6.26299 0.61776,1.195699 1.42408,2.00528 1.9972,2.00528 0.33139,0 0.18568,-0.264599 -0.39895,-0.724471 z m -8.9839597,-1.247599 c 1.49715,-2.563473 1.09272,-6.690764 -0.84556,-8.629041 l -1.02414,-1.024139 3.45852,0.182251 c 1.90218,0.100238 3.9941297,0.248508 4.6487797,0.329489 1.35127,0.167155 13.50185,-0.713923 16.97778,-1.231114 2.9258903,-0.435349 3.1750003,-0.433919 3.1750003,0.01822 0,0.205478 -0.18328,0.260325 -0.40728,0.121881 -0.23526,-0.145393 -0.31215,-0.09778 -0.18206,0.11272 0.12388,0.20044 -0.0218,0.859571 -0.32366,1.464736 -0.3019,0.605166 -0.61141,2.01351 -0.68781,3.129655 l -0.1389,2.029354 0.34906,-1.930422 c 0.43114,-2.384317 1.31315,-4.200721 2.37099,-4.882774 0.79114,-0.510093 0.79781,-0.502181 0.41819,0.496294 l -0.38577,1.014651 0.83927,-0.788458 c 0.4616,-0.433651 1.01811,-0.788457 1.23669,-0.788457 0.21858,0 0.49888,-0.16416 0.62288,-0.3648 0.14303,-0.231427 -0.12839,-0.300635 -0.74239,-0.189296 -2.27275,0.412129 -0.0405,-0.539614 3.55718,-1.516627 4.07747,-1.107315 7.54071,-2.516215 9.9976,-4.067179 l 1.46768,-0.926504 0.005,1.150953 c 0.006,1.546764 0.35062,2.738453 0.79082,2.738453 0.47267,0 0.12157,-5.769114 -0.44548,-7.320138 -0.40438,-1.106073 -1.15067,-1.496306 -1.56854,-0.820186 -0.11093,0.179488 -0.0154,0.735113 0.2122,1.234722 0.74623,1.637795 -0.008,2.467294 -4.0075,4.406341 -6.01922,2.918395 -12.29905,4.272429 -24.79603027,5.346429 -7.95630003,0.68377 -20.19829973,-0.213402 -29.28055973,-2.145866 -3.50824,-0.746462 -2.32491,-0.694905 4.40973,0.192128 7.93473,1.045102 14.2893197,1.576014 18.8635697,1.576014 2.62489,0 4.77107003,-0.119062 4.76927003,-0.264583 -0.002,-0.145521 -2.58148003,-0.298202 -5.73264003,-0.339292 -3.15115,-0.04109 -7.3962497,-0.243857 -9.4335397,-0.450593 -3.96899,-0.402756 -19.9954,-2.550874 -22.29041,-2.98772 -0.80946,-0.154077 -1.02884,0.544553 -1.25635,4.000944 -0.16039,2.436789 -0.10777,2.928566 0.29897,2.793753 0.36078,-0.119582 0.52094,-0.978951 0.59514,-3.193234 l 0.10151,-3.02962 2.62821,0.883658 c 3.33305,1.120641 5.95891,3.334908 6.54765,5.521339 0.57432,2.132855 0.24808,4.982208 -0.72042,6.292181 -0.48422,0.65494 -0.61328,1.029976 -0.32285,0.938204 0.26611,-0.08409 0.77126,-0.699058 1.12256,-1.366601 0.92031,-1.748784 0.67328,-6.329975 -0.44115,-8.181075 -0.90313,-1.500133 -0.84643,-1.528059 2.00484,-0.987327 0.97325,0.184574 3.73336,0.583708 6.13357,0.886965 l 4.36401,0.551376 1.62588,1.729297 c 1.7872,1.900883 2.23732,3.390141 1.76673,5.845383 -0.32973,1.720315 -0.90684,2.843286 -1.72124,3.349273 -0.56202,0.349185 -0.55592,0.372364 0.0734,0.278539 0.37755,-0.05629 0.97235,-0.591859 1.32177,-1.19016 z m -18.83132,-13.791138 c 0.25466,-0.101907 0.55894,-0.08938 0.67616,0.02785 0.11723,0.117225 -0.0911,0.200603 -0.46302,0.185285 -0.41097,-0.01693 -0.49456,-0.10052 -0.21314,-0.213136 z m 56.36891,14.212471 c 0.10392,-0.270822 -0.3034,-1.467756 -0.90517,-2.659853 -0.60177,-1.192097 -0.98476,-2.344418 -0.85108,-2.560714 0.13884,-0.224642 0.0843,-0.295131 -0.12726,-0.164395 -0.20368,0.125878 -0.46451,-0.01659 -0.57964,-0.316594 -0.11852,-0.308864 -0.0598,-0.453057 0.13538,-0.332429 0.50079,0.309501 0.0608,-0.768067 -1.20043,-2.939756 -1.06378,-1.831759 -1.1279,-1.876831 -2.42898,-1.707461 -2.70486,0.35211 -4.4809,2.422233 -4.48315,5.225496 -0.002,2.408781 0.61959,2.923463 5.46673,4.526894 4.85239,1.605165 4.72331,1.58106 4.9736,0.928812 z m -9.51207,-3.567604 c -0.11233,-0.292726 -0.0224,-0.967414 0.19992,-1.499305 l 0.40416,-0.967076 0.22325,1.234723 c 0.12278,0.679097 0.16522,1.353784 0.0943,1.499305 -0.21448,0.440067 -0.70467,0.297712 -0.92162,-0.267647 z m 6.12597,-3.701103 c -0.20768,-0.388055 -0.29823,-0.705555 -0.20121,-0.705555 0.097,0 0.34631,0.3175 0.55399,0.705555 0.20768,0.388056 0.29823,0.705556 0.20121,0.705556 -0.097,0 -0.34631,-0.3175 -0.55399,-0.705556 z m -7.8836,5.909028 c -0.47518,-0.630591 -0.94109,-1.464028 -1.03537,-1.852084 -0.15977,-0.657647 -0.17418,-0.653496 -0.21233,0.06113 -0.0225,0.421676 0.37007,1.255113 0.87238,1.852083 1.20818,1.435837 1.47108,1.393019 0.37532,-0.06113 z m -53.49047,-0.264179 c 8.9621,-1.056417 10.22747,-1.676249 10.2161,-5.004295 -0.009,-2.711145 -1.40917,-4.311512 -4.13994,-4.732773 -1.26274,-0.194796 -1.49931,-0.137398 -1.49931,0.363785 0,0.370942 0.16609,0.503219 0.44098,0.351197 0.24253,-0.134133 -1.58309,1.803393 -4.05695,4.305613 -2.47385,2.502219 -4.49791,4.666345 -4.49791,4.809168 0,0.327614 -0.0368,0.32858 3.53703,-0.09269 z m 8.81019,-4.212918 c 0,-0.851805 0.19618,-0.937738 0.47601,-0.208506 0.1093,0.284828 0.0469,0.611697 -0.13864,0.726375 -0.18556,0.114679 -0.33737,-0.118362 -0.33737,-0.517869 z m -0.35278,-1.255542 c 0,-0.09701 0.0794,-0.176389 0.17639,-0.176389 0.097,0 0.17639,0.07937 0.17639,0.176389 0,0.09701 -0.0794,0.176389 -0.17639,0.176389 -0.097,0 -0.17639,-0.07937 -0.17639,-0.176389 z m 58.56111,2.469444 c 0,-0.09701 -0.0794,-0.176388 -0.17639,-0.176388 -0.097,0 -0.17639,0.07937 -0.17639,0.176388 0,0.09701 0.0794,0.176389 0.17639,0.176389 0.097,0 0.17639,-0.07937 0.17639,-0.176389 z m 8.77031,-1.045743 c 2.01027,-0.108702 3.89666,-0.332864 4.19199,-0.498138 0.41198,-0.230553 -0.39773,-0.99656 -3.47864,-3.290924 -2.20859,-1.644734 -4.44259,-3.265792 -4.96446,-3.602351 -0.56343,-0.363359 -0.87052,-0.816058 -0.75601,-1.114467 0.25877,-0.674333 0.0311,-0.635975 -1.46515,0.246812 -1.60912,0.949406 -2.66969,3.012248 -2.85727,5.557467 l -0.14617,1.983456 0.46402,-2.022203 c 0.49117,-2.140504 0.92615,-2.953739 0.97826,-1.828954 0.0172,0.371886 0.0633,1.428673 0.10239,2.348414 0.0391,0.919741 0.22343,1.819111 0.40965,1.9986 0.41976,0.404591 1.81506,0.646455 2.98441,0.517321 0.48507,-0.05357 2.52671,-0.186332 4.53698,-0.295033 z m -75.52175,-3.628562 0.1,-3.263194 h -0.88565 c -1.54538,0 -10.42676,3.641988 -10.42676,4.275703 0,0.347872 2.88714,1.190667 5.82084,1.69918 5.70604,0.989059 5.27157,1.207574 5.39161,-2.711689 z m -6.17472,1.063177 c 0.92749,-0.07291 2.35624,-0.07203 3.175,0.002 0.81876,0.07399 0.0599,0.133641 -1.68634,0.132565 -1.74625,-0.0011 -2.41615,-0.06161 -1.48866,-0.134519 z m 24.94838,0.788906 c 0,-0.09701 -0.0794,-0.176388 -0.17639,-0.176388 -0.097,0 -0.17639,0.07937 -0.17639,0.176388 0,0.09701 0.0794,0.176389 0.17639,0.176389 0.097,0 0.17639,-0.07937 0.17639,-0.176389 z m 59.79271,-4.761161 c 1.09237,-0.468244 1.60456,-0.887227 1.52855,-1.250375 -0.13895,-0.663809 -5.84246,-3.77246 -6.11433,-3.332563 -0.38604,0.624623 0.1509,3.96563 0.74235,4.619179 0.77277,0.853896 1.78918,0.844312 3.84343,-0.03624 z m -34.4745903,0.09937 c -0.5301,-0.08049 -1.4826,-0.08212 -2.11666,-0.0036 -0.63406997,0.07851 -0.20034997,0.144374 0.96382,0.146354 1.16416,0.002 1.68294,-0.06226 1.15284,-0.142754 z m 3.52558,-0.343096 c -0.33729,-0.0883 -0.97229,-0.0915 -1.41112,-0.0071 -0.43882,0.08438 -0.16286,0.156626 0.61325,0.160541 0.77611,0.0039 1.13515,-0.06512 0.79787,-0.153422 z M 25.628118,82.288996 c 0.61008,-0.871004 0.27573,-1.479701 -0.62329,-1.134717 -0.61312,0.235275 -0.83711,1.914099 -0.25538,1.914099 0.18302,0 0.57843,-0.350722 0.87867,-0.779382 z m -10.97721,-0.678594 c 1.71084,-0.400761 3.03655,-0.802723 2.94602,-0.893249 -0.0905,-0.09053 -0.8553,0.02205 -1.69951,0.250156 -0.8442,0.228112 -3.12241,0.711034 -5.06269,1.07316 -2.6379903,0.492346 -2.9939103,0.613035 -1.4111103,0.478501 1.1641703,-0.09895 3.5164403,-0.507807 5.2272903,-0.908568 z m 3.76854,-1.187857 c 0,-0.09701 -0.0794,-0.176389 -0.17639,-0.176389 -0.097,0 -0.17639,0.07937 -0.17639,0.176389 0,0.09701 0.0794,0.176389 0.17639,0.176389 0.097,0 0.17639,-0.07937 0.17639,-0.176389 z m 1.41111,-0.352778 c 0,-0.09701 -0.0794,-0.176389 -0.17639,-0.176389 -0.097,0 -0.17638,0.07937 -0.17638,0.176389 0,0.09701 0.0794,0.176389 0.17638,0.176389 0.097,0 0.17639,-0.07937 0.17639,-0.176389 z m 1.76389,-0.529167 c 0.64487,-0.416744 0.0879,-0.416744 -0.88194,0 -0.46522,0.199913 -0.52531,0.309794 -0.17639,0.322581 0.29104,0.01067 0.76729,-0.134495 1.05833,-0.322581 z M 9.4206077,78.336526 c 6.5839503,-1.491163 12.1499403,-4.024382 17.2461703,-7.849167 6.695,-5.024676 11.49515,-12.422113 15.18561,-23.402311 2.96443,-8.820009 3.93504,-15.740452 3.63665,-25.929164 -0.19601,-6.692688 -1.17244,-11.5404962 -2.92773,-14.5356738 -1.06629,-1.8194828 -2.05749,-2.3287598 -5.62103,-2.8880628 -4.92146,-0.7724325 -4.94249,-0.9405103 -0.17638,-1.4099422 7.62706,-0.7512191 12.77736,-1.99038141 18.02513,-4.3368493 l 2.46009,-1.099995 -0.71761,-0.763863 c -0.97334,-1.036073 -0.90252,-1.94599 0.27818,-3.574272 l 0.9958,-1.37328 -1.43677,-2.2013679 c -1.27973,-1.960752 -1.54249,-2.183725 -2.40403,-2.039953 -0.88468,0.147634 -0.93045,0.102463 -0.53606,-0.529042 0.35056,-0.561343 0.33052,-0.791126 -0.10715,-1.228797 -0.4826,-0.482601 -0.89824,-0.357835 -4.01441,1.205021 -3.88936,1.950635 -10.78251,4.3481859 -14.39526,5.0069109 -1.40153,0.255545 -2.38125,0.611279 -2.38125,0.864625 0,0.560515 -0.81603,0.85871 -2.34994,0.85871 -1.20337,0 -1.22829,-0.02836 -1.00735,-1.146528 0.1246,-0.63059 1.42744,-4.6390269 2.89519,-8.9076379 1.46775,-4.268611 5.00097,-14.666735 7.8516,-23.106943 6.51764,-19.297574 7.96832,-22.917525 14.84431,-37.041663 5.72232,-11.754369 7.68892,-16.370835 10.16865,-23.870331 1.65607,-5.00847 2.56373,-6.91586 3.65465,-7.67996 1.14271,-0.80039 1.88399,-0.68623 3.18385,0.49033 l 1.15209,1.04281 -1.23881,-0.19338 c -1.86928,-0.29179 -2.37654,0.54198 -3.72273,6.11887 -2.04904,8.488636 -3.8948,13.239052 -9.48198,24.403745 -5.89712,11.784038 -9.02672,19.531548 -14.83686,36.729579 -4.0373,11.950389 -6.36553,18.387778 -8.80112,24.334448 -0.89675,2.189493 -1.56396,4.047392 -1.48269,4.128665 0.26568,0.265677 5.97951,-1.330894 9.16834,-2.561834 1.71492,-0.661988 4.38249,-1.861451 5.92792,-2.665474 2.19,-1.139364 2.75629,-1.587213 2.56696,-2.030083 -1.92341,-4.499073 -1.49322,-6.669399 2.14289,-10.810983 2.39812,-2.731503 3.50545,-3.240084 5.95496,-2.735045 l 1.80868,0.372913 1.51514,-1.392327 c 0.83332,-0.76578 2.52427,-1.845098 3.75767,-2.398485 1.88127,-0.84407 2.28047,-1.178867 2.478,-2.078243 0.4901,-2.231406 2.69865,-3.92744 5.11425,-3.92744 0.79768,0 1.06966,-0.162619 1.06966,-0.639554 0,-1.77105 3.56619,-3.568629 7.75437,-3.908674 l 2.63909,-0.214272 0.43389,-1.940278 c 2.22753,-9.960876 1.92825,-22.790013 -0.82297,-35.277775 -2.31702,-10.516957 -7.41124,-22.833803 -11.91441,-28.806723 -2.62296,-3.47906 -4.55339,-4.10413 -6.74153,-2.18292 -1.83802,1.6138 -3.48533,4.94309 -7.04224,14.2327 -4.53307,11.839029 -9.13246,20.33933 -22.5242,41.627775 -4.70696,7.482521 -9.99812,17.964806 -11.65717,23.093945 -0.71942,2.22417 -1.97076,7.383545 -2.78075,11.465276 -1.64098,8.269284 -1.73258,8.29905 -2.29372,0.745406 l -0.26008,-3.500924 -3.09806,3.5797 C 9.7101677,-15.63104 4.9690177,-11.427313 -0.84048227,-8.1166301 l -2.77159003,1.579461 2.28451,0.0086 c 2.96335,0.01119 4.94008,0.484181 7.6991,1.842251 2.91314,1.433938 5.4204203,3.71613229 6.5309303,5.9446428 0.91814,1.8424658 0.9034,2.7878142 -0.0435,2.7878142 -0.30035,0 -2.25191,-0.5514572 -4.3368103,-1.2254605 -2.0849,-0.6740033 -5.59249,-1.5491218 -7.79464997,-1.94470791 -2.20215003,-0.395586 -4.46942003,-0.8448623 -5.03836003,-0.9983916 -1.36481,-0.368296 -2.32057,-1.70622599 -2.38177,-3.33416399 -0.0272,-0.724196 -0.142,-1.31672 -0.25506,-1.31672 -0.11305,0 -2.34952,1.098748 -4.9699197,2.441661 -2.6204,1.34291359 -5.58867,2.76574879 -6.59616,3.16185599 l -1.8318,0.72019511 0.52027,-1.47460241 c 0.68242,-1.93418469 1.76999,-3.74297369 4.17144,-6.93774769 1.08227,-1.439792 1.90246,-2.683106 1.82264,-2.76292 -0.18236,-0.182362 -4.61602,2.88832 -10.75271,7.44715 -11.02181,8.1878911 -18.08705,14.7829681 -21.9222,20.4633561 -1.22764,1.818307 -1.39667,1.955268 -1.39667,1.131656 0,-1.986057 1.18515,-6.522485 2.66739,-10.2100476 2.88214,-7.1702219 7.94836,-15.2057655 12.97422,-20.5784294 1.15275,-1.232292 2.03403,-2.296527 1.9584,-2.364967 -0.0756,-0.06844 -2.1332,0.785745 -4.57237,1.898189 -4.5338,2.0677519 -10.01621,5.3150809 -14.87056,8.8081039 l -2.72486,1.9607136 -0.0161,3.5277775 c -0.0452,9.93765 -2.96754,20.79755 -7.32188,27.209605 -1.98539,2.923612 -6.11309,6.740385 -7.5889,7.017249 -3.56455,0.668714 -7.61846,-3.983036 -8.23733,-9.452111 -0.12673,-1.120001 -0.35419,-2.112856 -0.50546,-2.206344 -0.5017,-0.310069 -3.16522,3.096406 -4.40127,5.628963 -3.12018,6.392928 -3.03666,11.594705 0.289,17.997735 2.44659,4.710534 6.27521,8.215792 17.48134,16.004852 4.11324,2.858997 11.18041,6.24215 16.98499,8.130953 4.64825,1.512534 22.56956,4.845396 30.51528,5.674987 1.94028,0.202579 4.0834,0.432433 4.7625,0.510786 3.1447597,0.362837 17.5443097,-0.09873 19.9289297,-0.638812 z M -47.373602,69.873604 c -2.071,-0.914161 -3.35139,-3.269039 -3.35139,-6.163837 v -1.742386 l -2.00099,-0.629389 c -4.01017,-1.261353 -7.76343,-4.566123 -9.69559,-8.537035 -1.441,-2.96149 -1.24188,-8.185353 0.31201,-8.185353 0.55356,0 0.62719,0.363012 0.6261,3.086805 -10e-4,2.753076 0.1102,3.287962 1.02958,4.947381 2.8994,5.233224 9.71443,8.530097 15.53682,7.516172 3.06024,-0.532919 5.13066,-1.465247 6.66813,-3.002709 1.84477,-1.844774 2.0091,-2.888404 0.62531,-3.971379 -1.18979,-0.931153 -1.3781,-1.562046 -0.64726,-2.168585 0.33839,-0.280842 0.75332,-0.202898 1.57279,0.295451 0.61222,0.372314 1.99287,0.932683 3.06811,1.245265 1.07525,0.312582 1.95499,0.684066 1.95499,0.82552 0,0.583881 -0.91559,1.103856 -1.9437,1.103856 h -1.09704 l -1.1003,3.994172 c -1.8247,6.623726 -3.65868,9.742361 -6.55324,11.143595 -1.73266,0.838763 -3.46344,0.922618 -5.00433,0.242456 z m 5.89161,-2.609746 c 0.74744,-0.675266 1.28878,-1.29796 1.20298,-1.383763 -0.0858,-0.0858 0.22595,-0.976352 0.69278,-1.978999 1.041,-2.235808 1.14163,-3.601937 0.23833,-3.23562 -3.23138,1.310425 -4.77682,1.704846 -6.79098,1.733164 l -2.29305,0.03224 -0.10442,1.982127 c -0.0903,1.714481 0.022,2.132334 0.83162,3.094541 0.86085,1.023058 1.09379,1.10726 2.8999,1.048241 1.70132,-0.05559 2.14554,-0.22831 3.32284,-1.291931 z m -0.0708,-0.556449 c 0,-0.07326 0.27781,-0.351068 0.61736,-0.617361 0.55952,-0.43881 0.572,-0.426332 0.13319,0.133193 -0.46086,0.587639 -0.75055,0.774516 -0.75055,0.484168 z m 34.5722097,-9.573863 c -5.8669597,-1.198789 -10.2567297,-3.832031 -12.8160697,-7.687852 -2.19389,-3.305231 -1.90924,-3.363493 1.19199,-0.243979 4.97322,5.002549 9.6252597,6.871104 17.0921397,6.865296 4.75023,-0.0037 7.78343,-0.720776 11.6416703,-2.752217 2.58458,-1.360834 6.35817,-5.059036 7.68062,-7.527172 2.1577,-4.026995 2.95363,-10.296836 1.84852,-14.561577 -0.61185,-2.361208 -1.98055,-5.531988 -2.82409,-6.542384 l -0.58904,-0.705555 0.22895,0.705555 c 1.16024,3.575549 1.54851,7.365403 0.79879,7.79685 -0.24254,0.139573 -0.33488,0.135446 -0.2052,-0.0092 0.27808,-0.31011 -0.38875,-2.400108 -0.71685,-2.246787 -0.12346,0.0577 -1.19926,0.577741 -2.39066,1.155657 l -2.16619,1.050755 -0.37841,2.283633 c -0.78935,4.763588 -3.6166603,8.611845 -7.7510503,10.549973 -1.72752,0.809833 -2.46163,0.938532 -5.35345,0.938532 -3.01951,0 -3.58096,-0.108784 -5.6697,-1.098539 -2.34456,-1.110981 -4.2847397,-3.041112 -5.1901497,-5.163266 -0.31562,-0.739771 -0.65655,-0.970139 -1.43571,-0.970139 -1.77767,0 -3.22666,0.422167 -3.22666,0.940096 0,0.747903 1.21247,2.978963 2.62356,4.827583 1.73526,2.273317 1.10553,2.05876 -1.1305,-0.385176 -2.74508,-3.000322 -3.38387,-4.544148 -3.54855,-8.576074 -0.34385,-8.41865 4.33076,-16.625364 11.4908997,-20.173353 3.20264,-1.586971 3.36971,-2.118088 0.35575,-1.130904 -3.2551097,1.066167 -5.8155197,2.56081 -8.1868797,4.779101 -3.8968,3.645263 -6.32772,7.992378 -7.67311,13.721505 l -0.62133,2.645834 0.11813,-4.056945 c 0.0967,-3.319972 0.30105,-4.600123 1.12511,-7.047082 2.56832,-7.626358 8.94063,-13.477597 16.3830297,-15.0433768 3.97872,-0.8370675 9.22122,-0.5032209 12.92139,0.8228438 9.9497503,3.565783 16.9230803,11.997989 17.9527503,21.708588 0.22763,2.146765 0.32941,2.381249 1.03356,2.381249 0.42958,0 1.52233,-0.375283 2.42834,-0.833963 0.90601,-0.45868 1.64729,-0.702328 1.64729,-0.541442 0,0.726152 -2.33503,2.838581 -4.01752,3.634526 -1.76622,0.835555 -1.89939,0.99693 -2.85017,3.453833 -3.54019,9.148166 -10.0517,15.159201 -18.4255603,17.009376 -3.02249,0.667809 -8.19723,0.679692 -11.39564,0.02617 z m 9.35899,-15.216572 c 0.9406,-0.360943 1.55994,-2.184273 1.14563,-3.37275 -0.4291,-1.230937 -2.05358,-2.140568 -3.27520997,-1.83396 -1.09508,0.274848 -2.29052003,1.730999 -2.29052003,2.790063 0,1.339187 1.30504003,2.645833 2.64259003,2.645833 0.64913997,0 1.44901997,-0.103134 1.77750997,-0.229186 z M 14.541258,29.268534 c 0.58077,-0.300326 1.05594,-0.673048 1.05594,-0.828272 0,-0.569757 -1.74363,-1.899585 -2.24062,-1.708872 -0.70728,0.271412 -1.01014,-0.120263 -0.53534,-0.692353 0.2908,-0.350399 0.27878,-0.610948 -0.0463,-1.002598 -0.49802,-0.600076 -1.0102,-0.660501 -1.73095,-0.204212 -0.41806,0.264662 -0.42673,0.666724 -0.055,2.552237 0.64616,3.277848 0.57786,3.159515 1.5994,2.771127 0.49331,-0.187555 1.3721,-0.586731 1.95286,-0.887057 z M 6.4909377,27.850745 c 1.71602,-1.189608 3.46397,-4.20415 3.45837,-5.96437 -0.004,-1.370745 -1.4068,-4.375353 -2.5075,-5.372128 -4.30446,-3.89802 -11.31879,-3.144848 -13.40062,1.438909 -1.70355,3.750849 0.0513,8.250473 3.99545,10.244928 1.60484003,0.811515 2.21206003,0.925368 4.39736,0.824488 2.13151,-0.0984 2.77779,-0.285074 4.05694,-1.171827 z M 13.127758,26.44755 c 0,-0.09701 -0.0794,-0.176389 -0.17639,-0.176389 -0.097,0 -0.17639,0.07937 -0.17639,0.176389 0,0.09701 0.0794,0.176389 0.17639,0.176389 0.097,0 0.17639,-0.07937 0.17639,-0.176389 z m -57.15,19.579165 c -2.17898,-2.17898 1.23278,-5.428331 3.52323,-3.355509 1.53775,1.391653 0.38131,4.061065 -1.75934,4.061065 -0.58796,0 -1.37191,-0.313581 -1.76389,-0.705556 z m 2.82222,-2.469444 c 0,-0.831685 -0.89561,-1.150302 -1.42851,-0.508197 -0.32717,0.394215 -0.32717,0.622179 0,1.016394 0.5329,0.642104 1.42851,0.323487 1.42851,-0.508197 z m -17.48359,-1.923005 c -1.01224,-1.544879 -0.0269,-3.368661 1.82008,-3.368661 2.05759,0 2.84218,2.187633 1.32774,3.702078 -0.84309,0.843082 -2.49134,0.668499 -3.14782,-0.333417 z m 2.6033,-2.018112 c -0.12946,-0.879797 -0.602,-1.123109 -1.31066,-0.674863 -0.68841,0.435429 -0.21233,1.44098 0.68223,1.44098 0.56011,0 0.71362,-0.187145 0.62843,-0.766117 z m 78.7331,39.395281 c 0,-0.09701 -0.0794,-0.176389 -0.17639,-0.176389 -0.097,0 -0.17639,0.07937 -0.17639,0.176389 0,0.09701 0.0794,0.176389 0.17639,0.176389 0.097,0 0.17639,-0.07938 0.17639,-0.176389 z m 21.65711,-1.322917 c 0.0831,-0.436562 0.31127,-1.587266 0.50701,-2.557119 0.19574,-0.969853 0.31575,-1.803517 0.26668,-1.852588 -0.0491,-0.04907 -0.97869,1.101633 -2.06582,2.557119 l -1.9766,2.646338 h 1.55881 c 1.33658,0 1.58035,-0.113159 1.70992,-0.79375 z m -7.15209,-1.184183 c 0.70172,-0.481263 1.63463,-1.256916 2.07312,-1.723673 l 0.79727,-0.848649 -0.8384,-0.181413 c -1.17264,-0.253735 -5.80692,-0.912776 -6.4185,-0.912776 -0.43361,0 -0.44144,0.309648 -0.0547,2.162989 0.24825,1.189644 0.66514,2.302474 0.92641,2.472955 0.66326,0.432789 2.01306,0.06049 3.51478,-0.969433 z m 5.47599,-5.589597 c 1.03283,-1.354487 2.8186,-4.525436 4.10175,-7.283411 l 2.27254,-4.884536 0.19989,2.723989 c 0.21808,2.97191 -0.11977,7.070124 -0.79717,9.670018 -0.23707,0.9099 -0.36722,1.845847 -0.2892,2.079882 0.16545,0.496364 4.42431,-6.070589 6.15965,-9.497878 2.52668,-4.990194 4.34656,-12.345828 4.36608,-17.646863 0.01,-2.695741 0.0685,-2.972166 0.50739,-2.39282 0.8845,1.167653 2.37665,8.310416 2.57152,12.309568 0.10163,2.085798 0.30517,3.79236 0.45232,3.79236 0.49753,0 2.85247,-6.148683 3.88727,-10.149541 1.21066,-4.680783 1.89702,-11.17992 1.57331,-14.897679 -0.30196,-3.467891 -1.28296,-7.618965 -2.62062,-11.089037 -0.59338,-1.539318 -1.00638,-2.871255 -0.91777,-2.959861 0.38094,-0.380946 4.13461,2.923501 6.10927,5.37814 2.96965,3.691499 4.46864,6.523738 5.61475,10.608741 l 0.97939,3.49076 0.24728,-1.567843 c 0.28115,-1.782654 0.0486,-7.611467 -0.47064,-11.798399 -0.95811,-7.72526 -4.40007,-17.228989 -7.58915,-20.9547128 -0.67794,-0.7920174 -2.72965,-2.4622335 -4.55937,-3.7115912 l -3.32675,-2.27155951 -3.08679,1.73243291 c -1.69774,0.9528381 -4.59493,2.231421 -6.43819,2.8412953 -1.84326,0.6098744 -3.46502,1.210685 -3.60391,1.3351348 -0.13889,0.1244497 0.75621,1.6389365 1.9891,3.3655261 5.08443,7.1204064 5.84687,9.1059144 1.97373,5.1398644 -2.07346,-2.1232 -2.96972,-2.834474 -3.07,-2.436381 -0.0779,0.309226 0.57065,2.405205 1.44123,4.657731 0.87059,2.252525 1.92208,5.234459 2.33665,6.62652 0.41457,1.39206 0.84835,2.788581 0.96395,3.103379 0.11561,0.314798 -0.6909,-0.519387 -1.79222,-1.853746 -1.10133,-1.334359 -2.01086,-2.207484 -2.02118,-1.940278 -0.19324,5.00266 -0.45619,8.581199 -0.85225,11.598329 -1.68997,12.874046 -7.7648,27.37904 -14.87199,35.510212 l -1.8991,2.172716 2.55924,0.406224 c 1.40759,0.223423 3.19425,0.613642 3.97036,0.867153 0.77611,0.253511 1.56621,0.430353 1.75577,0.392982 0.18955,-0.03737 1.16779,-1.14744 2.17386,-2.466821 z m -126.99462,-5.907531 c 0.66492,-1.222952 1.93125,-3.677094 2.81407,-5.453648 l 1.60513,-3.2301 -1.79567,-2.284952 c -1.67829,-2.135572 -4.61825,-7.432581 -4.61825,-8.320811 0,-0.218095 -0.21066,-0.396536 -0.46813,-0.396536 -0.54323,0 -1.30177,4.336874 -1.29809,7.421741 0.003,2.250607 0.86214,9.536316 1.35886,11.519245 0.18514,0.739054 0.43963,1.799029 0.56554,2.3555 0.27655,1.222193 0.31455,1.188869 1.83654,-1.610439 z m -13.84318,-15.188131 c 0.23442,-1.488216 0.93658,-3.962894 4.67316,-16.469941 3.10292,-10.386057 3.77822,-14.068176 2.85377,-15.560533 -0.46067,-0.743681 -0.43986,-0.813282 3.25964,-10.901055 2.18154,-5.94864031 5.05521,-11.2646671 7.92439,-14.6594391 0.66821,-0.790608 0.41179,-0.03205 -1.01362,2.998611 -3.90818,8.3094242 -6.37596,16.6217801 -7.46254,25.1364151 -0.65389,5.124048 -0.54289,9.561003 0.36753,14.690613 0.54074,3.046725 0.76866,3.675106 1.02337,2.821378 2.79447,-9.366451 8.53252,-19.424227 15.87324,-27.822952 7.39274,-8.4582522 19.97505,-18.5679191 35.32591,-28.383772 3.29847,-2.109153 9.80722,-6.472014 14.46388,-9.695246 8.71282,-6.030799 12.8044597,-8.722067 15.8749997,-10.441747 0.97014,-0.543333 2.26621,-1.422355 2.88016,-1.953382 2.20451003,-1.906763 4.29538,-2.099665 8.50009,-0.784212 2.06832,0.647079 1.87452,1.140869 -0.45123,1.149728 -1.9192,0.0073 -6.10855997,1.204257 -9.1414,2.611801 -2.17987,1.011679 -12.1393297,7.507613 -20.3864797,13.29682 -1.49813,1.051632 -5.82548,3.802416 -9.61634,6.112853 -3.79085,2.310438 -6.83179,4.261473 -6.75762,4.335633 0.0742,0.07416 1.30717,-0.330867 2.74004,-0.900061 1.43286,-0.569194 4.66766,-1.706444 7.18844,-2.527223 13.43964,-4.376018 26.3850897,-10.288797 32.6290597,-14.903197 4.91782,-3.634348 5.60418,-3.879095 10.7271103,-3.825168 2.34627,0.0247 4.87175,0.187587 5.61218,0.361975 1.1199,0.263765 1.38041,0.218643 1.54957,-0.268397 2.71608,-7.819832 5.85475,-13.835742 14.61393,-28.010625 2.54893,-4.124912 5.80965,-9.422766 7.24604,-11.773009 l 2.61161,-4.273169 -0.56312,-3.792419 c -2.54889,-17.165916 -11.29989,-32.868146 -24.45679,-43.883736 -2.07523,-1.73747 -2.33227,-1.38914 -0.96539,1.30828 1.82162,3.59478 4.41355,12.95193 5.29272,19.10728 0.64494,4.51534 1.17577,12.211876 1.41123,20.461101 l 0.17621,6.173611 -1.04933,-3.175 c -0.57714,-1.74625 -2.07875,-5.238749 -3.33692,-7.761106 -8.2325,-16.504396 -24.1142203,-28.864316 -44.79821,-34.864116 -2.32833,-0.67538 -4.27802,-1.18527 -4.33264,-1.13308 -0.0546,0.0522 1.09784,1.80492 2.56102,3.89496 6.27399,8.96186 17.7017797,28.506436 19.5802097,33.487391 0.36948,0.979754 0.30315,0.951902 -1.3013,-0.546373 -7.3130097,-6.829102 -19.6096397,-10.902028 -32.8674697,-10.886488 -5.94807,0.007 -10.15759,0.48945 -16.80093,1.925636 -4.41291,0.954 -11.08298,2.87974 -11.57178,3.34093 -0.15559,0.14681 1.03504,0.37536 2.64584,0.5079 3.44462,0.28344 10.50703,1.66128 14.74677,2.87703 5.18621,1.48715 10.93283,3.969624 16.20992,7.002499 5.18786,2.981587 6.83288,4.353236 3.6654,3.05627 -1.60763,-0.658266 -3.83545,-1.391182 -14.05448,-4.623706 -6.21897,-1.967208 -11.82815,-3.012069 -25.53358,-4.756313 -9.54558,-1.21484 -8.63959,-1.38812 -9.33701,1.785815 -0.32097,1.460723 -0.58358,3.033854 -0.58358,3.495847 0,0.836322 0.008,0.83793 1.78754,0.368445 0.98314,-0.259348 3.8006,-0.742626 6.26101,-1.073952 4.77146,-0.642535 9.27189,-0.556963 16.6459,0.316509 l 3.70416,0.438769 -3.52778,0.242412 c -8.62621,0.59275 -18.62391,2.541264 -26.63472,5.191005 -5.87021,1.941695 -14.11555,5.355754 -13.46138,5.57381 0.24296,0.08098 2.29959,-0.105686 4.57031,-0.414823 13.78962,-1.877333 31.18321,-1.76416 46.10913,0.300014 4.4208,0.611374 5.89031,0.849613 6.0158,0.975296 0.0543,0.05437 -3.10268,0.106013 -7.01549,0.114752 -14.0359,0.03135 -23.98079,1.950571 -34.33678,6.626516 -10.24445,4.625577 -18.88522,12.220674 -28.282518,24.859849 -5.066,6.813678 -5.11748,7.266619 -0.2918,2.567725 7.1286,-6.941306 13.764378,-11.449353 22.113648,-15.022989 2.87871,-1.232137 4.16888,-1.348554 2.4715,-0.223012 -4.28053,2.838451 -9.02782,7.620968 -13.45401,13.55384 -6.170028,8.270338 -12.795138,21.747947 -17.119388,34.8263429 -1.98235,5.9955 -2.69136,9.1375612 -1.9599,8.6854911 0.21732,-0.13431141 1.94687,-2.18318 3.84344,-4.5530411 1.89657,-2.369861 5.83155,-6.6974249 8.7444,-9.6168079 3.61066,-3.618751 6.111698,-6.491651 7.858928,-9.027408 1.40955,-2.045691 2.96735,-4.09947 3.46177,-4.563952 l 0.89894,-0.844514 -1.05322,2.347436 c -1.95813,4.364304 -4.91926,12.784008 -6.18019,17.5727959 -3.970418,15.0789606 -4.968048,29.3433861 -3.022398,43.2152751 0.8357,5.958257 3.021578,15.698609 3.523008,15.698609 0.13654,0 0.35452,-0.674687 0.48441,-1.499305 z m 23.60654,-59.1186501 c 2.72275,-5.8767859 7.39502,-12.3986139 11.02948,-15.3956019 2.75296,-2.270101 2.76651,-1.735261 0.0341,1.346059 -3.2796,3.698392 -5.10123,6.103011 -8.66043,11.432087 -1.58746,2.3768399 -2.95522,4.3215269 -3.03948,4.3215269 -0.0842,0 0.20209,-0.766832 0.63632,-1.704071 z m -20.57752,-29.6211289 c 0,-0.678579 7.42,-7.469118 10.75972,-9.84694 4.55855,-3.245608 11.46528,-6.736444 11.46528,-5.794846 0,0.330198 -0.95286,0.775498 -2.08136,0.97268 -0.27161,0.04746 -0.58911,0.229212 -0.70555,0.403893 -0.11644,0.174682 -1.79921,1.310205 -3.73948,2.523384 -5.02277,3.140537 -8.4154,5.640597 -12.30621,9.06855 -1.86582,1.643858 -3.3924,2.846834 -3.3924,2.673279 z m 66.32221,-43.110905 c 0,-0.258704 0.10584,-0.364537 0.23519,-0.235185 0.12935,0.129352 0.12935,0.341018 0,0.47037 -0.12935,0.129352 -0.23519,0.02352 -0.23519,-0.235185 z m -37.08664,116.969085 c 0.53807,-0.278248 1.16707,-0.733341 1.39777,-1.011317 0.34799,-0.419306 0.1482,-0.581357 -1.17272,-0.951191 -2.04997,-0.573957 -3.83981,-2.524494 -4.56868,-4.978893 -0.51594,-1.737351 -0.53668,-2.996541 -0.0227,-1.377081 0.13158,0.41458 1.19972,1.696544 2.37365,2.848808 1.17392,1.152263 2.01382,2.095024 1.86644,2.095024 -0.14738,0 -0.073,0.234956 0.16536,0.522124 0.52347,0.630749 2.11969,0.586582 1.8747,-0.05187 -0.0981,-0.2555 0.215,-0.537115 0.7449,-0.670112 1.40018,-0.351423 1.08665,-0.858472 -0.53083,-0.858472 -2.72526,0 -4.66401,-2.194881 -4.30475,-4.873432 0.1611,-1.201066 0.0907,-1.484795 -0.37756,-1.520665 -0.31659,-0.02425 -0.73437,-0.08378 -0.9284,-0.132291 -0.19402,-0.04851 -0.61263,-0.108038 -0.93024,-0.132292 -0.8802,-0.06722 -0.4565,-3.743251 0.89513,-7.766091 0.61208,-1.82175 1.05607,-3.369081 0.98664,-3.438513 -0.29117,-0.291175 -3.52911,4.105194 -4.57768,6.215443 -1.06544,2.144188 -1.13584,2.518391 -1.12826,5.997222 0.009,4.089651 0.67639,6.234346 2.56847,8.252958 2.0878,2.227429 3.81981,2.78676 5.66874,1.830644 z m 0.39776,-3.551038 c 0,-0.09701 0.0794,-0.176389 0.17639,-0.176389 0.097,0 0.17639,0.07938 0.17639,0.176389 0,0.09701 -0.0794,0.176388 -0.17639,0.176388 -0.097,0 -0.17639,-0.07937 -0.17639,-0.176388 z m -1.17593,-0.0588 c -0.12935,-0.129352 -0.23518,-0.02352 -0.23518,0.235185 0,0.258704 0.10583,0.364537 0.23518,0.235186 0.12935,-0.129352 0.12935,-0.341019 0,-0.470371 z m -0.58796,-0.293981 c 0,-0.09701 -0.0794,-0.176389 -0.17639,-0.176389 -0.097,0 -0.17639,0.07938 -0.17639,0.176389 0,0.09701 0.0794,0.176389 0.17639,0.176389 0.097,0 0.17639,-0.07937 0.17639,-0.176389 z m 5.35208,-6.757454 c 0.80052,-0.724459 0.82014,-1.460284 0.0613,-2.298795 -1.1826,-1.306756 -2.94394,-0.48244 -2.94394,1.37778 0,1.451843 1.69697,1.994032 2.88264,0.921015 z M 92.147278,19.34727 C 90.837738,8.7317889 87.190778,-0.10598331 80.883588,-7.9482831 l -0.70931,-0.881945 -1.41484,1.5875 c -1.41877,1.591894 -1.47927,1.868763 -0.86283,3.948525 0.26174,0.883085 -2.06225,3.26640909 -4.48252,4.596962 -1.14289,0.6283044 -2.07797,1.2866648 -2.07797,1.463023 0,0.3720507 0.0628,0.4260144 3.74153,3.21614 6.86462,5.2064191 11.46168,9.5936271 15.99203,15.2620171 0.65901,0.824543 1.25794,1.439418 1.33097,1.366389 0.073,-0.07303 -0.041,-1.541405 -0.25337,-3.263058 z m -150.4686,-3.999383 c 0.41977,-0.463843 0.73078,-1.658569 0.9413,-3.615972 0.33101,-3.0777402 0.065,-8.7440854 -0.41057,-8.7440854 -0.40494,0 -3.49113,2.5227747 -4.90805,4.0120355 -1.04705,1.1005127 -1.21041,1.5065272 -1.18838,2.9534663 0.0651,4.2760016 3.53464,7.6388506 5.5657,5.3945556 z m 28.93939,-17.7934051 c 3.86061,-3.065551 11.07584,-8.0420719 17.45477,-12.0389809 5.6780997,-3.557786 8.7891197,-6.07088 14.6905397,-11.867084 3.12784,-3.072071 5.64754,-5.585584 5.59933,-5.585584 -0.45229,0 -3.40393,1.507625 -7.12794,3.640777 -6.85357,3.925801 -9.31625,5.217151 -15.2708697,8.007558 -3.00743,1.409318 -6.52078,3.238965 -7.80743,4.065882 -3.74881,2.40931 -8.76701,7.7860329 -12.63295,13.5355129 -2.34082,3.48128599 -6.01795,9.4621082 -6.01795,9.7881274 0,0.1141241 1.62719,-1.2937737 3.61597,-3.1286617 1.98879,-1.8348879 5.36222,-4.72278381 7.49653,-6.4175467 z m 98.10569,1.68964939 c 1.6828,-0.79853839 4.97678,-4.46696239 5.46038,-6.08108939 0.57314,-1.912957 -0.16293,-3.1633569 -5.33966,-9.0707479 -2.36984,-2.704329 -5.3851,-6.519514 -6.70057,-8.478189 -2.6237,-3.906542 -3.57129,-4.594876 -5.76019,-4.184236 -0.70575,0.132399 -1.36881,0.37929 -1.47348,0.548648 -0.10467,0.169357 0.38265,0.810985 1.08293,1.42584 1.32291,1.161532 3.57783,4.183475 3.12163,4.183475 -0.14342,0 0.0474,0.238514 0.42403,0.530032 0.48636,0.376445 0.51897,0.472752 0.11256,0.332355 -0.31472,-0.108723 -1.0698,-0.890543 -1.67795,-1.737379 -1.13253,-1.577008 -3.04689,-3.005563 -4.02766,-3.005563 -0.30257,0 -0.89465,0.436562 -1.31574,0.970138 -1.01566,1.286965 -0.85538,4.292638 0.3313,6.212721 0.99765,1.614236 1.28707,1.492034 0.56413,-0.238197 -0.61801,-1.479094 -0.69435,-3.516046 -0.16861,-4.49841 0.92602,-1.730278 3.09471,-0.12535 6.69037,4.951171 0.87312,1.23272 3.2775,4.14807 5.34306,6.478556 l 3.75557,4.2372479 -1.28612,2.081864 c -1.5417,2.49556 -2.23775,2.973757 -3.27305,2.248609 -0.75384,-0.528009 -1.38489,-0.44459 -2.54237,0.336079 -0.59609,0.402037 -0.50047,0.554735 1.17821,1.881659 2.05052,1.62083919 3.45828,1.84485869 5.50123,0.87541639 z m -0.93441,-10.63199529 -1.21573,-1.322916 1.32291,1.215731 c 1.23134,1.131576 1.48512,1.430102 1.21573,1.430102 -0.059,0 -0.65426,-0.595312 -1.32291,-1.322917 z m -1.7449,-1.675694 c 0,-0.09701 0.0794,-0.176389 0.17639,-0.176389 0.097,0 0.17639,0.07938 0.17639,0.176389 0,0.09701 -0.0794,0.176389 -0.17639,0.176389 -0.097,0 -0.17639,-0.07937 -0.17639,-0.176389 z m -4.01872,7.4912689 c 0.9494,-0.461256 1.54927,-0.990604 1.54927,-1.367135 0,-0.822888 0.70786,-1.220162 1.09238,-0.613081 0.25164,0.397301 0.30892,0.38548 0.31333,-0.06467 0.005,-0.509647 -1.21119,-2.094992 -1.60717,-2.094992 -1.2112,0 -6.14853,3.524027 -6.14853,4.388527 0,1.113823 2.23457,0.998086 4.80072,-0.248647 z m -74.11185,-0.03415 c 0.38272,-0.264211 2.5901697,-1.460538 4.9054397,-2.658506 5.13474,-2.6568099 11.2864,-6.6785639 14.13752,-9.2426439 4.8767403,-4.385759 13.2265003,-13.180885 13.2265003,-13.931977 0,-1.167999 -0.96842,-1.73854 -2.85152,-1.679963 -4.72953,0.147122 -8.4277303,2.811696 -17.08708027,12.311339 -3.56906003,3.91539 -12.06264973,13.6217049 -13.18256973,15.0647709 -0.57111,0.735914 -0.12079,0.808339 0.85171,0.13698 z m 92.51312,-5.4492069 c 0.0771,-0.231226 -0.017,-0.420411 -0.20902,-0.420411 -0.22332,0 -0.20972,-0.454338 0.0377,-1.260606 0.71444,-2.327846 -1.13783,-2.239544 -3.42202,0.163135 l -1.02882,1.082185 1.2052,0.528023 c 1.35594,0.59406 3.20478,0.544104 3.41693,-0.09233 z m 4.74064,0.129137 c 1.86841,-0.78067 2.15502,-1.294636 1.68836,-3.027675 -0.44922,-1.668254 -0.51593,-1.643735 -1.74894,0.642832 -0.59408,1.101683 -1.16118,1.696772 -1.68831,1.771637 -0.79333,0.112671 -1.00177,0.4436 -0.55856,0.886806 0.35791,0.357916 0.96961,0.285386 2.30745,-0.2736 z m -26.32475,-1.685508 c 1.29293,-1.219524 1.50666,-2.054522 0.69772,-2.72588 -0.64822,-0.537975 -1.6352,-0.04212 -2.47877,1.245336 -0.48818,0.745057 -0.53668,1.113719 -0.23391,1.778214 0.21007,0.461059 0.4784,0.83829 0.59629,0.83829 0.11788,0 0.75629,-0.511182 1.41867,-1.13596 z m 16.72656,-2.215429 c 0,-0.09701 -0.0794,-0.176388 -0.17639,-0.176388 -0.097,0 -0.17639,0.07937 -0.17639,0.176388 0,0.09701 0.0794,0.176389 0.17639,0.176389 0.097,0 0.17639,-0.07938 0.17639,-0.176389 z m -2.32442,-1.614566 c 1.01573,-1.207121 1.17962,-2.487744 0.40107,-3.133883 -0.64184,-0.532678 -1.65545,-0.222415 -3.01744,0.923631 -1.19437,1.004991 -1.32068,1.713389 -0.47259,2.650513 0.86974,0.961055 2.05157,0.792613 3.08896,-0.440261 z m 22.49317,-0.203999 c 0.85814,-0.77661 0.83974,-2.94336 -0.0396,-4.667084 -1.27818,-2.505453 -3.35146,-3.855853 -6.81175,-4.43674 -0.89523,-0.150283 -1.32292,-0.40752 -1.32292,-0.795678 0,-0.633271 -0.98331,-1.863876 -1.48932,-1.863876 -0.17691,0 -0.85982,-0.410484 -1.51758,-0.912187 -0.65777,-0.501702 -1.36155,-0.809833 -1.56396,-0.684735 -0.20242,0.125098 -0.36803,0.07529 -0.36803,-0.110696 0,-0.185981 -0.57356,-1.187538 -1.27458,-2.225681 -1.56087,-2.311499 -2.70955,-4.846279 -3.28701,-7.253378 l -0.43603,-1.817579 -1.36835,0.945878 c -0.7526,0.520234 -1.37439,1.079589 -1.38175,1.243013 -0.007,0.163424 -0.31744,0.68367 -0.68905,1.156101 -0.66646,0.847269 -0.6659,0.893669 0.0413,3.407032 0.39435,1.401436 0.95466,3.024316 1.24513,3.606399 0.29047,0.582083 0.36601,0.899583 0.16786,0.705555 -0.19816,-0.194027 -0.84793,-1.305277 -1.44395,-2.469444 -1.3673,-2.670657 -1.44384,-1.785516 -0.0915,1.058333 1.37643,2.894553 4.96161,7.325663 6.0297,7.45243 0.20435,0.02425 0.56998,0.06637 0.81252,0.0936 0.3454,0.03877 0.34281,0.111783 -0.012,0.336885 -0.62986,0.399654 -0.14469,1.465699 0.66705,1.465699 0.77325,0 0.85372,-0.366665 0.22684,-1.033575 -0.24253,-0.258021 -0.023,-0.204348 0.48776,0.119274 0.52411,0.332054 1.01978,1.043633 1.13771,1.633297 0.25265,1.263235 1.28495,1.44138 1.28495,0.221744 0,-0.452731 0.0922,-0.915367 0.20493,-1.02808 0.19388,-0.193875 3.77117,0.718515 5.23818,1.335999 0.67229,0.282977 0.67229,0.275079 0,-0.646394 -0.37434,-0.513079 -0.87116,-0.93786 -1.10405,-0.943957 -0.2329,-0.0061 -0.57001,-0.272976 -0.74914,-0.593065 -0.21055,-0.376227 -0.5909,-0.512624 -1.07586,-0.385804 -0.41259,0.107895 -0.75017,0.05229 -0.75017,-0.123577 0,-0.175863 0.25511,-0.319751 0.56691,-0.319751 0.35898,0 0.49243,-0.194083 0.36385,-0.529167 -0.2886,-0.752064 0.36683,-0.655164 1.66061,0.245509 0.91153,0.634567 3.40032,2.985551 3.40789,3.219193 0.0348,1.075114 0.78923,4.327399 1.08702,4.68621 0.54465,0.656266 1.35827,0.621505 2.14636,-0.0917 z m -16.09674,-8.211224 c -0.11163,-0.180621 -0.0416,-0.428115 0.15557,-0.549987 0.19719,-0.121871 0.35853,0.02591 0.35853,0.328402 0,0.619663 -0.21169,0.710903 -0.5141,0.221585 z m -1.44068,-1.811736 c -0.1279,-0.206937 -0.15688,-0.451908 -0.0644,-0.544381 0.0925,-0.09247 0.26214,0.07684 0.37704,0.376248 0.23854,0.621633 0.0352,0.730976 -0.31263,0.168133 z m -1.57118,-2.090645 c -0.49414,-0.693946 -0.5792,-0.989554 -0.2482,-0.862537 0.45338,0.173978 1.49434,1.91832 1.14478,1.91832 -0.0796,0 -0.4831,-0.475103 -0.89658,-1.055783 z m -18.69904,10.351917 c 0,-0.08062 -0.23587,-0.711083 -0.52415,-1.401037 -0.83091,-1.988661 -2.04679,-1.021977 -1.27334,1.012367 0.26188,0.68879 0.5265,0.867615 1.07257,0.724815 0.39871,-0.104263 0.72492,-0.255529 0.72492,-0.336145 z m 21.87222,0.05248 c 0,-0.09701 -0.0794,-0.176389 -0.17639,-0.176389 -0.097,0 -0.17639,0.07937 -0.17639,0.176389 0,0.09701 0.0794,0.176389 0.17639,0.176389 0.097,0 0.17639,-0.07938 0.17639,-0.176389 z m 8.26505,-0.135572 c 0.10604,-0.171579 -0.80528,-0.375515 -2.02517,-0.453192 -4.76404,-0.303351 -9.73144,-4.205153 -12.49956,-9.81818 -1.65392,-3.353734 -2.7164,-7.336576 -2.43093,-9.112673 0.15644,-0.973326 0.1049,-1.105474 -0.30008,-0.769374 -0.81108,0.673136 -0.98229,2.400881 -0.484,4.884145 0.25958,1.293638 0.45175,2.548798 0.42705,2.789245 -0.0247,0.240446 0.12288,0.333467 0.32798,0.206712 0.2324,-0.14363 0.28802,-0.0093 0.14763,0.356574 -0.1239,0.322871 -0.0765,0.587038 0.10537,0.587038 0.18184,0 0.24429,0.224999 0.13876,0.499998 -0.10552,0.274998 0.064,0.949686 0.37674,1.499305 0.53402,0.938529 0.55468,0.945668 0.33968,0.117364 -0.28961,-1.115712 -0.0221,-0.830885 2.15358,2.293055 0.94592,1.358194 1.96561,2.676019 2.26596,2.928499 1.3352,1.122365 4.56251,3.080392 6.01416,3.648819 1.67351,0.655304 5.11568,0.872012 5.44283,0.342665 z m -16.37894,-10.447761 c 0,-0.09701 0.0794,-0.176388 0.17639,-0.176388 0.097,0 0.17639,0.07937 0.17639,0.176388 0,0.09701 -0.0794,0.176389 -0.17639,0.176389 -0.097,0 -0.17639,-0.07937 -0.17639,-0.176389 z m 7.05556,9.877777 c 0,-0.09701 -0.0794,-0.176388 -0.17639,-0.176388 -0.097,0 -0.17639,0.07937 -0.17639,0.176388 0,0.09701 0.0794,0.176389 0.17639,0.176389 0.097,0 0.17639,-0.07937 0.17639,-0.176389 z m -2.11667,-1.567212 c -0.87312,-0.753373 -2.20321,-2.058323 -2.95575,-2.899889 -1.17442,-1.313365 -0.72055,-0.420269 0.56903,1.11967 0.61587,0.735439 3.52643,3.173431 3.77314,3.160515 0.11059,-0.0058 -0.51329,-0.626923 -1.38642,-1.380296 z m -8.30405,-2.694616 c 0.8567,-1.307483 1.13912,-3.322893 0.46564,-3.322893 -0.85614,0 -3.45048,2.070577 -3.45048,2.753879 0,1.614506 2.04444,2.004247 2.98484,0.569014 z m -0.86817,0.02849 c 0,-0.09701 0.0794,-0.176388 0.17639,-0.176388 0.097,0 0.17639,0.07937 0.17639,0.176388 0,0.09701 -0.0794,0.176389 -0.17639,0.176389 -0.097,0 -0.17639,-0.07938 -0.17639,-0.176389 z m 29.75602,-2.028472 c 0.87312,-1.327784 0.97182,-1.761631 0.86281,-3.79236 -0.18469,-3.440661 -1.74232,-6.464234 -5.1162,-9.931214 -3.5124,-3.60933 -6.55487,-5.23823 -9.78399,-5.23823 -3.07633,0 -3.53282,0.417213 -3.21753,2.940698 0.26612,2.129942 0.41108,2.325311 1.0634,1.433213 0.73851,-1.009977 3.41012,-1.040454 5.54461,-0.06325 3.19591,1.463132 6.78096,5.530666 7.70046,8.736803 0.28197,0.983141 0.18781,1.255068 -0.80985,2.339026 l -1.1289,1.226554 1.76389,1.90639 c 0.97014,1.048514 1.84748,1.91433 1.94965,1.924034 0.10216,0.0097 0.62941,-0.657044 1.17165,-1.481662 z m -0.97542,-3.160013 c -0.13054,-0.816376 -0.54641,-2.183004 -0.92416,-3.036953 -0.37774,-0.853948 -0.59692,-1.698062 -0.48707,-1.87581 0.10986,-0.177747 0.0501,-0.279556 -0.13272,-0.226241 -0.18285,0.05331 -1.08653,-0.902301 -2.00818,-2.123589 -0.92164,-1.221289 -2.41102,-2.762723 -3.30973,-3.425411 -2.88916,-2.130398 -3.08152,-2.35115 -1.20095,-1.378235 2.3321,1.206516 6.05303,5.03722 7.3184,7.534305 0.57847,1.141553 1.04559,2.743457 1.15642,3.965707 0.21502,2.371326 -0.0624,2.752587 -0.41201,0.566227 z m -10.78893,-13.155958 c 0,-0.09701 0.0794,-0.176388 0.17638,-0.176388 0.097,0 0.17639,0.07937 0.17639,0.176388 0,0.09701 -0.0794,0.176389 -0.17639,0.176389 -0.097,0 -0.17638,-0.07937 -0.17638,-0.176389 z m -2.46945,-0.352777 c 0,-0.09701 0.0794,-0.176389 0.17639,-0.176389 0.097,0 0.17639,0.07937 0.17639,0.176389 0,0.09701 -0.0794,0.176389 -0.17639,0.176389 -0.097,0 -0.17639,-0.07938 -0.17639,-0.176389 z m 1.17593,-0.0588 c 0.12935,-0.129351 0.34102,-0.129351 0.47037,0 0.12935,0.129352 0.0235,0.235186 -0.23519,0.235186 -0.2587,0 -0.36454,-0.105834 -0.23518,-0.235186 z m -12.74674,14.716069 c -0.5104,-1.154819 -0.98956,-2.03811 -1.0648,-1.96287 -0.16422,0.164226 1.58857,4.062541 1.82663,4.062541 0.0914,0 -0.25143,-0.944852 -0.76183,-2.099671 z m -4.8782,-1.797392 1.63235,-0.722064 v -2.248168 -2.248168 l -1.32292,0.521046 c -1.89315,0.74564 -4.67431,2.853672 -4.67431,3.542984 0,0.863243 1.05298,1.876433 1.95011,1.876433 0.43034,0 1.51698,-0.324929 2.41477,-0.722063 z m -7.1871,-0.323858 c 0,-0.551417 -1.38006,-1.128146 -2.12999,-0.890127 -1.10798,0.351659 -0.80222,0.823618 0.63069,0.973505 0.7276,0.07611 1.3626,0.165068 1.41111,0.197685 0.0485,0.03262 0.0882,-0.09386 0.0882,-0.281063 z m 28.37205,-1.041399 c 0.71557,-0.790689 0.33036,-1.864202 -0.90645,-2.52612 -0.60496,-0.323765 -0.86754,-0.269186 -1.435,0.298275 -0.61151,0.611505 -0.638,0.795012 -0.22161,1.53472 0.86909,1.543877 1.61146,1.744635 2.56306,0.693125 z m -17.43594,0.147042 c 0,-0.09701 -0.0794,-0.176388 -0.17639,-0.176388 -0.097,0 -0.17639,0.07937 -0.17639,0.176388 0,0.09701 0.0794,0.176389 0.17639,0.176389 0.097,0 0.17639,-0.07937 0.17639,-0.176389 z m 2.82222,-4.938888 c 0,-0.09701 -0.0794,-0.176389 -0.17639,-0.176389 -0.097,0 -0.17638,0.07937 -0.17638,0.176389 0,0.09701 0.0794,0.176389 0.17638,0.176389 0.097,0 0.17639,-0.07937 0.17639,-0.176389 z m -151.92516,-36.191178 c 5.95764,-1.852045 5.98043,-1.863043 4.15997,-2.007514 -1.35812,-0.10778 -8.87171,0.486075 -9.05624,0.715782 -0.0391,0.04866 -0.17869,0.683784 -0.31024,1.411388 -0.16192,0.895637 -0.10914,1.322917 0.16344,1.322917 0.22144,0 2.49082,-0.649158 5.04307,-1.442573 z m 6.62169,-27.637157 c 1.82074,-0.85969 3.72382,-1.664826 4.22907,-1.789206 0.9023,-0.22212 0.9229,-0.29628 1.15799,-4.16957 0.13164,-2.16889 0.54861,-5.4614 0.9266,-7.31669 0.82649,-4.0566 3.38109,-12.19591 3.93532,-12.53844 0.26899,-0.16624 0.3315,0.027 0.1946,0.60144 -0.11093,0.46551 -0.30924,1.79887 -0.4407,2.96304 -0.13145,1.16416 -0.54009,3.91838 -0.90809,6.12047 -0.66772,3.99562 -0.94925,13.11292 -0.4045,13.0993 0.14552,-0.004 1.77271,-0.40497 3.61597,-0.89185 3.53728,-0.93434 11.08912,-2.27263 12.87639,-2.28187 2.06377,-0.0107 2.11842,-0.40235 0.42278,-3.0302 -2.35123,-3.64388 -4.88326,-8.90617 -6.925,-14.39217 -2.81242,-7.55678 -3.29831,-8.32507 -5.26501,-8.32507 -3.81106,0 -12.48999,13.86507 -16.59969,26.5189 -0.98757,3.04075 -1.79558,5.768136 -1.79558,6.060876 0,0.29274 0.35719,0.60105 0.79375,0.68514 0.43657,0.0841 0.81218,0.1745 0.83471,0.20092 0.0225,0.0264 1.53066,-0.65534 3.35139,-1.51502 z"
       id="path8" /></g></svg>
