<?xml version="1.0" encoding="UTF-8" standalone="no"?>
<!-- Created with Inkscape (http://www.inkscape.org/) -->

<svg
   width="264.63092mm"
   height="301.4689mm"
   viewBox="0 0 264.63094 301.46887"
   version="1.1"
   id="svg1"
   xml:space="preserve"
   xmlns="http://www.w3.org/2000/svg"
   xmlns:svg="http://www.w3.org/2000/svg"><defs
     id="defs1"><clipPath
       clipPathUnits="userSpaceOnUse"
       id="clipPath6"><path
         id="path7"
         style="fill:#ff0000;fill-opacity:1;fill-rule:nonzero;stroke:none;stroke-width:0.264583"
         d="M -175.07778,-16.057127 V 287.55793 H 124.54631 V -16.057127 Z m 132.7459,202.572647 c 0.210643,0.005 0.427212,0.0169 0.650089,0.0367 2.23823,0.19855 4.475655,0.4031 6.717938,0.55346 1.973313,0.11308 0.986628,0.0436 2.958475,0.20825 3.181295,0.26563 4.740125,1.85116 4.950601,3.46956 4.949923,1.63749 3.796379,7.35609 -2.592089,6.81354 -3.228716,-0.27422 -1.569593,-0.1301 -4.979024,-0.43357 -4.228209,-0.39317 -8.460616,-0.76265 -12.666927,-1.35341 -6.647387,-0.93358 -5.930551,-7.21034 0.03204,-7.20421 0.04685,5e-5 0.0972,0.004 0.144695,0.005 0.687229,-1.21692 2.304132,-2.15435 4.784204,-2.09548 z" /></clipPath><clipPath
       clipPathUnits="userSpaceOnUse"
       id="clipPath76"><path
         id="path77"
         style="fill:#ff0000;fill-opacity:1;fill-rule:nonzero;stroke:none;stroke-width:0.264583"
         d="M -133.83107,-122.52355 V 173.82063 H 122.97289 V -122.52355 Z M 13.574404,98.948202 c 2.788179,0.0507 4.135003,2.063798 3.398242,4.077268 0.199805,0.45372 0.374906,0.96736 0.517797,1.54461 1.07913,4.35948 0.671079,8.891 0.311608,13.31495 -0.351859,3.06036 -0.147137,1.57974 -0.604097,4.44366 -0.359666,2.25418 -1.333846,3.66838 -2.455664,4.32532 0.105138,0.36595 0.224724,0.72888 0.324528,1.09554 0.6273,2.23652 0.575201,4.47401 0.39429,6.75514 -0.137303,1.73129 -0.688065,2.99533 -1.427303,3.82199 -0.112477,0.41601 -0.170275,0.80219 -0.311092,1.25212 -0.184975,0.59102 -0.413327,1.1061 -0.670242,1.55856 0.741137,-0.23134 1.446982,-0.38145 2.064991,-0.37517 4.085002,0.0415 5.222724,4.75435 -0.02223,7.27138 -4.46677,2.14368 -9.303523,3.34693 -14.11903492,4.40955 -4.40876268,0.85156 -8.89238128,1.33053 -13.38264308,1.19269 -5.804014,-0.17807 -6.736297,-5.00293 -3.065447,-6.67298 -2.072987,-0.65744 -4.042852,-1.62261 -4.128947,-3.14709 -0.02802,-0.49633 0.0026,-0.90355 0.0341,-1.30897 -1.976731,-0.003 -3.95339,2.4e-4 -5.930386,0.003 -0.814031,0 -1.53062,-0.0962 -2.159559,-0.26149 -0.376306,0.19492 -0.742394,0.40783 -1.120862,0.59893 -6.391272,3.22657 -9.625245,-3.24074 -3.234428,-6.46886 1.833438,-0.92611 3.62694,-1.92211 5.414142,-2.92954 -0.877003,-3.87058 -1.368747,-7.83436 -1.323951,-11.80858 0.01651,-1.46304 0.376836,-2.54918 0.864547,-3.41426 -1.247357,-1.79999 -0.223805,-4.63069 3.842661,-5.68855 3.11826,-0.81116 6.282901,-1.39515 9.473837,-1.82211 -1.259816,-0.12657 -2.516182,-0.30233 -3.764627,-0.50177 -1.477002,-0.21985 -2.935575,-0.54305 -4.407482,-0.7891 -1.14214,-0.22954 -0.588502,-0.12004 -1.660882,-0.3297 -3.350244,-0.65501 -4.783278,-2.61088 -4.608504,-4.32997 -0.200179,-1.7721 1.333365,-3.52972 4.663799,-3.59461 v -5.3e-4 c 0.20954,-0.004 0.426035,-0.002 0.649571,0.008 1.77111,0.0772 3.528708,0.28204 5.26428,0.64027 1.655035,0.33225 3.314115,0.6481 4.955251,1.04439 1.244759,0.34858 2.51628,0.54538 3.7997689,0.6723 0.025956,0.002 0.052073,0.002 0.078034,0.004 0.4990888,-0.0371 0.9984105,-0.0743 1.4965495,-0.11317 1.346872,-0.12588 2.6913231,-0.25136 4.0457464,-0.24236 1.1278499,-0.0444 2.2567291,-0.10772 3.37498791,-0.26872 0.75719517,-0.11591 1.51142439,-0.25483 2.25722659,-0.4284 0.3616431,-0.12394 0.7240561,-0.24538 1.083138,-0.37775 0.3360393,-0.12388 0.6107589,-0.12825 0.9250071,-0.20723 0.1281086,-0.045 0.2583895,-0.0825 0.3855085,-0.13074 1.9825018,-0.7681 3.9540551,-1.56464 5.9510551,-2.29443 1.050809,-0.383992 1.999634,-0.542639 2.826703,-0.527616 z M 0.70283723,110.39557 c -0.45566013,0.0949 -0.90775367,0.208 -1.36890919,0.2744 -1.16638124,0.15534 -2.34111274,0.24237 -3.51761424,0.26251 0.4031694,0.0896 0.8047355,0.18876 1.2025101,0.308 0.1014836,0.0304 0.1982549,0.075 0.2986907,0.10852 0.4205235,-0.21824 0.9206601,-0.35072 1.4898318,-0.37156 0.39885139,-0.0146 0.83259872,0.0278 1.29449508,0.13023 0.22468681,-0.12213 0.44967525,-0.24374 0.67437529,-0.36587 -0.0326284,-0.11319 -0.058211,-0.22834 -0.0733795,-0.34623 z m 10.24433577,1.02474 c -0.76023,0.21437 -1.5189569,0.4343 -2.2696301,0.68006 -0.031261,0.62207 -0.2256075,1.28373 -0.6464723,1.94355 0.6236891,0.43248 1.2549743,1.04482 1.8634525,1.86862 0.2674939,0.36214 0.4748849,0.75712 0.7188199,1.13223 0.154519,-1.86707 0.314174,-3.74736 0.33383,-5.62446 z m 64.566086,3.39773 c 1.50346,0.0187 3.129182,1.24994 3.928441,4.04678 0.257931,0.90255 0.823497,1.65871 1.488797,2.30735 0.856321,0.95375 1.845738,1.76777 2.801898,2.61638 1.458581,1.46408 2.789203,3.04608 4.169772,4.58215 1.315059,1.44746 2.571226,2.91698 3.543967,4.61884 0.0053,0.01 0.0082,0.0206 0.01344,0.0305 0.734605,-0.43313 1.446276,-0.65634 2.094962,-0.69195 3.016182,-0.16561 4.69137,3.55377 1.187525,7.32306 -1.69471,1.82311 -3.657862,3.33908 -5.68751,4.7651 -0.777873,0.49914 -1.607691,0.90075 -2.418456,1.33842 0.165478,1.44344 -0.672182,3.24303 -2.956409,4.73096 -1.354556,0.88234 -2.690448,1.79306 -4.075203,2.6288 -2.075008,1.20078 -4.233777,2.27962 -6.540687,2.96259 -2.077586,0.62971 -4.169056,1.29987 -6.359301,1.36374 -1.872114,0.0897 -3.746989,0.0368 -5.620845,0.0501 h -5.1108 -5.524728 c -7.160125,0 -7.160125,-7.23315 0,-7.23315 h 1.347722 c 0.29438,-0.0541 0.5212,-0.1588 0.84801,-0.18656 1.106628,-0.094 2.200932,-0.28334 3.292822,-0.48421 0.456121,-0.98163 1.356053,-1.98213 2.807581,-2.83962 1.078018,-0.63685 2.158119,-1.26923 3.212209,-1.94561 1.962647,-1.29302 3.840588,-2.72135 5.893696,-3.86902 1.367169,-0.76424 2.559646,-1.07097 3.526915,-1.04128 2.216811,0.068 3.246223,1.90266 2.479953,4.04059 1.105688,-0.48686 2.206929,-0.98346 3.283003,-1.53739 2.619811,-1.23728 5.288743,-2.38548 7.764385,-3.9026 0.246153,-0.17184 0.487463,-0.34958 0.730705,-0.52503 -0.126915,-0.50614 -0.277693,-0.9939 -0.512114,-1.46554 -0.647621,-1.25778 -1.721077,-2.20654 -2.600875,-3.29644 -1.199229,-1.33472 -2.369312,-2.69496 -3.592029,-4.00803 -1.098706,-0.97599 -2.227236,-1.92181 -3.215306,-3.01428 -1.300821,-1.39063 -2.459913,-2.93896 -3.045293,-4.77801 -1.289469,-4.05101 0.646382,-6.61405 2.843754,-6.58667 z m -95.086705,4.28035 c -0.465643,0.10748 -0.930899,0.21773 -1.394745,0.33435 0.171958,0.64334 0.283575,1.36624 0.279569,2.2071 -0.01267,2.6582 0.205063,5.32647 0.670242,7.94732 0.280107,-0.17087 0.565767,-0.33222 0.845429,-0.50385 -0.01897,-0.36223 -0.02445,-0.73164 -0.05529,-1.08985 -0.118034,-2.96491 -0.160888,-5.93314 -0.3452,-8.89507 z m 18.5141159,1.1958 c 0.00497,0.0773 0.00619,0.15612 0.014975,0.23202 -0.1238779,0.22787 -0.2588048,0.44752 -0.3937741,0.66715 0.58900751,0.0447 1.13203305,0.21413 1.64331124,0.45888 -0.37615284,-0.49255 -0.78353709,-0.94642 -1.26452314,-1.35805 z m -6.5422357,14.57068 c -0.046649,0.0755 -0.09888,0.14702 -0.1436608,0.22376 -0.03147,0.054 0.1963367,0.0838 0.1860365,0.0222 -0.017595,-0.10481 -0.026035,-0.14905 -0.042376,-0.24597 z m 13.9236979,6.08439 c -0.2236258,0.5643 -0.5677508,1.09664 -1.1782213,1.50533 0.9079653,0.17659 1.7077452,0.44257 2.2830631,0.84852 0.1405493,-0.0459 0.272804,-0.11448 0.4128956,-0.16174 -0.7336976,-0.43656 -1.2984269,-1.18703 -1.5177374,-2.19211 z" /></clipPath></defs><g
     id="layer1"
     transform="translate(34.00981,120.02264)"><path
       style="fill:#000000"
       d="m 80.369919,181.15932 c -4.93672,-0.37835 -8.9851,-1.02889 -23.13913,-3.71824 -17.94491,-3.40964 -23.68031,-5.00561 -31.06294,-8.64378 C 15.210269,163.3974 8.0770786,153.86521 9.4588686,146.46883 l 0.31902,-1.70761 -2.09854,-2.24334 c -6.60543,-7.06123 -10.76722,-17.65508 -12.04095,-30.65031 -0.55706,-5.68337 -0.23686,-14.155036 0.70903,-18.759366 1.20971,-5.88849 2.39612,-7.875348 4.70261,-7.875348 2.54335,0 11.9995104,5.927215 19.8150904,12.420298 l 1.38155,1.14777 -0.26793,-1.05139 c -1.18409,-4.64655 -1.34034,-6.16225 -1.55859,-15.119295 l -0.23103,-9.481783 -2.46945,-0.951323 c -4.38178,-1.68803 -8.6046804,-3.819857 -9.5172804,-4.804569 -0.63734,-0.687698 -0.88966,-1.353255 -0.88966,-2.34669 0,-1.966863 1.26555,-3.081577 6.1832104,-5.446263 3.22626,-1.551366 4.04442,-2.087762 3.87155,-2.53825 -0.12056,-0.314158 -0.31474,-1.605028 -0.43152,-2.8686 l -0.21233,-2.297403 -2.40773,-2.23357 c -1.32425,-1.228463 -3.37115,-3.512122 -4.5486604,-5.074797 -5.65674,-7.507062 -7.68666,-15.080909 -7.25989,-27.087463 0.12069,-3.395486 0.2974,-6.808611 0.39269,-7.5847219 0.15415,-1.255532 -10e-4,-1.061058 -1.40853,1.7638889 -3.20561,6.434378 -4.85084,12.94661 -5.30292,20.990276 -0.27138,4.828472 -0.60381,5.644444 -2.29956,5.644444 -1.22025,0 -2.39189,-1.304447 -5.1123196,-5.69183 -6.44616,-10.39605 -11.27645,-24.6537609 -13.07091,-38.5817775 -0.78744,-6.1118545 -0.78884,-16.2316275 -0.003,-22.0486095 1.24255,-9.198249 4.05885,-17.560616 7.70129,-22.867151 0.57538,-0.838253 0.97227,-1.597969 0.88198,-1.688258 -0.0903,-0.09029 -2.84402,0.318891 -6.11942,0.909288 -3.27539,0.590397 -7.00596,1.172534 -8.29016,1.293637 -2.07891,0.196047 -2.41733,0.137753 -3.0868,-0.531719 -1.74241,-1.742411 -0.80482,-3.590521 4.48353,-8.837598 8.38296,-8.317538 16.05681,-13.838207 27.9163196,-20.083379 2.28224,-1.201818 3.82088,-2.203913 3.52778,-2.297597 -0.2859,-0.09138 -1.68768,-0.506601 -3.11507,-0.922708 -3.22266,-0.939455 -4.45705,-2.024045 -4.15095,-3.647201 0.31788,-1.685642 2.2416,-3.137072 6.85808,-5.17436 13.4929404,-5.954537 29.7406504,-9.527862 46.0131004,-10.119572 7.29722,-0.26535 7.37864,0.20934 -0.75847,-4.42219 -6.28982,-3.58008 -7.17695,-4.36602 -7.02075,-6.21986 0.13529,-1.60557 1.44931,-2.54918 5.19971,-3.73393 6.14083,-1.93988 12.17017,-2.75214 20.48369,-2.7595 9.1423,-0.008 17.02635,1.28342 23.72431,3.88636 1.50371,0.58437 2.73402,0.99367 2.73402,0.90955 0,-0.0841 -0.34925,-0.62532 -0.77611,-1.20268 -0.99507,-1.34591 -1.039,-3.39245 -0.0882,-4.10862 0.99024,-0.74587 5.24476,-0.4033 9.038141,0.72775 8.14744,2.42927 16.5047,7.15569 22.03259,12.46048 l 1.80782,1.73485 0.16516,-4.57397 c 0.16052,-4.44527 0.1921,-4.59713 1.12227,-5.39724 1.27703,-1.09845 2.23679,-1.03781 4.20463,0.26563 4.02739,2.66763 9.81768,11.47905 13.43388,20.443092 0.95668,2.371474 1.2076,2.749028 1.3707,2.062517 0.4143,-1.743812 0.96909,-6.383553 1.66125,-13.893119 0.39344,-4.26861 0.81083,-8.23736 0.92753,-8.81944 0.52741,-2.63058 2.82693,-3.11736 4.8561,-1.02798 3.36939,3.46934 7.59207,11.23973 9.688,17.827395 0.89886,2.825176 2.5229,9.748698 2.5229,10.755484 0,0.1541 1.1929,-1.481615 2.6509,-3.634921 4.07395,-6.016786 6.16519,-7.519163 7.96335,-5.721003 1.01712,1.017117 1.54434,2.417199 2.37954,6.319079 1.74817,8.167114 1.91584,15.915161 0.54964,25.399998 l -0.22866,1.5875 2.60303,-2.498871 c 3.27435,-3.143334 4.20866,-3.745295 5.81306,-3.745295 2.1992,0 2.76624,0.928365 2.90659,4.758739 0.27949,7.627582 -2.41856,19.411259 -6.11444,26.704731 l -0.87041,1.717667 3.60911,1.092235 c 16.68894,5.050614 31.77425,13.10646 40.93855,21.861981 3.15454,3.01383 3.76917,3.9931499 3.76917,6.0055512 0,1.9760913 -1.48579,3.5275825 -6.82528,7.12708061 C 212.25181,7.6957731 207.3475,11.341738 201.51694,16.476222 c -4.72922,4.164625 -12.52361,12.876715 -12.52361,13.998117 0,0.174426 1.38906,0.52142 3.08681,0.771097 6.83538,1.00524 9.61319,2.545304 9.61319,5.329711 0,1.316525 -0.19114,1.687822 -1.51615,2.945268 -0.83389,0.791358 -3.7638,2.694198 -6.51091,4.228532 l -4.99475,2.7897 0.8828,1.049149 c 0.60707,0.721458 0.85015,1.38402 0.77827,2.121283 -0.0922,0.945902 0.0302,1.107702 1.04015,1.374234 0.62959,0.166155 1.40145,0.69395 1.71525,1.172877 0.94256,1.438527 0.37599,3.030616 -2.20838,6.20569 -2.28207,2.803678 -2.30779,2.859187 -2.07838,4.486141 0.37716,2.674723 0.49859,2.907119 1.40071,2.6807 1.27611,-0.320282 3.23972,0.709663 4.19827,2.202059 0.47715,0.742878 1.22028,2.438145 1.6514,3.767258 0.43112,1.329114 1.16059,3.075364 1.62104,3.880556 1.33318,2.331353 1.0601,4.508149 -0.75907,6.050606 l -0.83274,0.706066 1.96678,2.9981 c 2.60174,3.966036 3.99787,6.940728 3.99821,8.518898 1.9e-4,0.89749 -0.38685,1.85921 -1.27777,3.175 -0.70292,1.03814 -1.55781,2.69282 -1.89974,3.677046 -0.34194,0.98423 -0.93656,2.40321 -1.32137,3.15329 l -0.69966,1.36378 1.01163,2.13837 c 0.5564,1.17611 1.01176,2.55279 1.01191,3.05929 3.1e-4,1.04534 -1.21414,3.00381 -3.14784,5.07631 -0.72414,0.77611 -2.0819,2.32898 -3.01725,3.45082 l -1.70065,2.03971 0.62792,2.07387 c 0.83012,2.74171 0.61537,5.68773 -0.50125,6.87632 -0.44092,0.46934 -1.69776,1.21601 -2.79297,1.65928 -1.09521,0.44326 -3.34101,1.57703 -4.99066,2.51948 l -2.99936,1.71355 -0.0589,1.52141 c -0.15269,3.94533 -3.8967,7.575 -7.83399,7.59475 -1.4641,0.007 -1.72128,0.17755 -4.94812,3.27476 -4.13444,3.96833 -9.88518,8.61802 -14.81407,11.97773 -22.96333,15.65262 -47.95274,22.9301 -72.323741,21.06229 z m 18.66503,-4.71434 c 16.882381,-2.03107 34.154581,-8.65537 49.809571,-19.10317 8.36092,-5.57989 18.16589,-13.78833 17.3946,-14.56225 -0.19403,-0.19469 -1.70216,-1.02405 -3.35139,-1.84302 -5.76859,-2.86453 -11.95945,-7.6739 -17.78354,-13.81511 l -4.38951,-4.62852 -1.91613,1.27224 c -2.6386,1.75193 -6.40482,3.61023 -8.69558,4.29051 -2.71424,0.80605 -6.50815,0.73206 -8.49024,-0.16557 -4.95863,-2.24563 -8.81636,-10.35017 -9.91329,-20.82638 -0.52043,-4.97042 -0.2326,-15.173926 0.56423,-20.002062 0.33035,-2.001595 0.53455,-3.70534 0.45379,-3.786102 -0.0808,-0.08076 -3.23205,0.239031 -7.00287,0.710649 -13.748171,1.719492 -19.555761,2.091063 -32.608801,2.086321 -9.25144,-0.0034 -13.62341,-0.15239 -17.43717,-0.594388 -2.79948,-0.324446 -5.12855,-0.551308 -5.17572,-0.504137 -0.0472,0.04717 0.54747,1.990025 1.32142,4.317453 2.92063,8.78291 8.99575,19.721516 17.92638,32.277516 9.12691,12.83195 12.30969,18.14439 14.58353,24.34166 1.64892,4.49406 2.04396,6.63471 0.62458,3.3845 -1.32784,-3.04062 -3.23077,-6.21165 -3.71548,-6.19143 -0.20153,0.008 -0.97301,0.94853 -1.71438,2.08916 -4.22154,6.49505 -10.60766,9.33958 -21.93538,9.77055 -6.03869,0.22974 -9.75337,-0.25468 -15.34583,-2.0012 -4.60753,-1.43893 -4.9612,-1.76055 -1.66156,-1.511 l 2.71989,0.20571 v -1.07535 c 0,-4.11257 -3.51308,-18.19511 -6.47773,-25.96667 -1.71138,-4.48623 -2.59512,-5.98562 -4.94736,-8.39395 -0.82251,-0.84213 -2.334,-2.6424 -3.35886,-4.00059 -5.64004,-7.47443 -14.69715,-15.608596 -22.9516304,-20.612806 -1.64284,-0.995953 -3.23034,-1.765128 -3.52778,-1.709278 -0.34751,0.06525 -0.75827,0.971601 -1.14924,2.535828 -2.757,11.030496 -0.883510004657,28.546046 4.15399,38.836256 2.77326,5.66501 7.7561204,11.13789 10.6318504,11.67738 1.47657,0.277 1.48354,0.60755 0.0219,1.03786 -2.48191,0.73067 -2.99637,4.15717 -1.21,8.05911 4.26054,9.30626 15.74176,15.64303 34.28292,18.92161 3.99205,0.70591 9.77076,1.86261 21.16666,4.23687 2.71639,0.56594 6.44701,1.17005 8.29028,1.34247 5.26262,0.49228 16.33023,0.43875 20.81388,-0.10067 z m -33.69642,-26.80227 c 1.3548,-0.30501 3.30923,-0.96845 4.34317,-1.47431 2.30277,-1.12664 5.25796,-3.98398 6.41691,-6.20444 0.85412,-1.63643 0.8565,-1.66743 0.22834,-2.98469 -0.60819,-1.27538 -5.92309,-9.07441 -8.08938,-11.87028 -0.94014,-1.21336 -1.0928,-1.28918 -1.62535,-0.80723 -3.86675,3.49936 -15.29044,2.754 -23.16582,-1.51149 -1.05282,-0.57023 -1.91422,-0.89037 -1.91422,-0.71141 0,0.17895 0.54982,2.02899 1.22182,4.1112 1.57272,4.87311 3.25544,11.78984 4.22529,17.36779 0.75697,4.35362 0.77993,4.41284 1.80495,4.65495 1.86402,0.44027 13.90886,0.0255 16.55429,-0.57009 z M 174.45027,139.56063 c 0.45489,-0.6791 1.01597,-1.29822 1.24685,-1.37582 0.4312,-0.14493 0.93394,-0.7491 0.94354,-1.1339 0.003,-0.11916 -0.74866,-0.50126 -1.6703,-0.84912 -0.92163,-0.34786 -3.39292,-1.41709 -5.49176,-2.37607 -2.09883,-0.95899 -3.88716,-1.67251 -3.97406,-1.58561 -0.23044,0.23044 3.26462,2.48896 5.8835,3.80194 1.24268,0.62301 2.3108,1.17856 2.37362,1.23455 0.0628,0.056 -0.13971,0.59279 -0.45004,1.19291 -0.3447,0.66658 -0.83812,1.09112 -1.26817,1.09112 -1.11428,0 -10.61601,-5.00288 -13.64114,-7.18238 -1.51059,-1.08832 -4.01653,-3.10278 -5.56875,-4.47657 -1.55222,-1.37379 -3.27892,-2.83018 -3.83711,-3.23643 l -1.01489,-0.73862 0.60351,0.92108 c 1.48852,2.27176 9.65544,8.80588 14.90219,11.92282 3.58567,2.13014 8.43418,4.24229 9.44251,4.11343 0.38139,-0.0487 1.06561,-0.64424 1.5205,-1.32333 z m 8.0845,-9.193 c 2.75371,-1.34677 5.16907,-2.44867 5.36744,-2.44867 1.29041,0 0.85766,-3.89442 -0.85741,-7.71611 -0.7306,-1.62801 -1.37075,-2.41138 -2.89072,-3.53748 -2.11711,-1.56852 -2.56913,-1.7299 -2.56913,-0.91724 0,0.29104 0.11906,0.5292 0.26458,0.52924 0.14552,3e-5 0.31636,2.19911 0.37963,4.88683 0.0947,4.0228 0.0197,4.9821 -0.42417,5.42599 -0.29657,0.29657 -0.42772,0.66279 -0.29144,0.81381 0.13628,0.15103 -0.0144,0.18091 -0.33481,0.0664 -0.39064,-0.13959 -0.64303,0.0229 -0.766,0.49312 -0.14461,0.553 -0.084,0.61882 0.28661,0.31124 0.29783,-0.24718 0.54798,-0.26391 0.68285,-0.0457 0.11706,0.18941 -1.14705,1.23081 -2.80914,2.31422 -1.66209,1.0834 -2.92101,2.13322 -2.79758,2.33292 0.32869,0.53184 1.21554,0.2027 6.75929,-2.5086 z m 0.10851,-2.56314 c -0.097,-0.0978 -0.0811,-2.21546 0.0354,-4.70596 0.1165,-2.4905 0.0768,-4.67899 -0.0882,-4.86332 -0.41144,-0.45962 -0.37803,-1.25236 0.0528,-1.25236 0.19403,0 0.35278,0.24749 0.35278,0.54999 0,0.34014 0.16825,0.45316 0.44097,0.29621 0.24254,-0.13957 0.32821,-0.12877 0.19038,0.024 -0.13783,0.15277 -0.0175,0.83554 0.26731,1.51728 1.05057,2.51439 0.62172,8.38831 -0.55916,7.65849 -0.15736,-0.0973 -0.33781,0.0775 -0.401,0.38831 -0.0632,0.31083 -0.19427,0.48514 -0.29128,0.38737 z m 1.05833,-1.82581 c 0,-0.097 -0.0794,-0.17639 -0.17638,-0.17639 -0.097,0 -0.17639,0.0794 -0.17639,0.17639 0,0.097 0.0794,0.17639 0.17639,0.17639 0.097,0 0.17638,-0.0794 0.17638,-0.17639 z m -0.47191,-5.90903 c -0.0979,-0.24253 -0.17794,-0.0441 -0.17794,0.44098 0,0.48507 0.0801,0.6835 0.17794,0.44097 0.0979,-0.24254 0.0979,-0.63941 0,-0.88195 z m -18.22531,8.26257 c 0,-0.60394 -2.19671,-3.58043 -2.50281,-3.39125 -0.69126,0.42723 -0.32075,2.22017 0.61011,2.95238 0.94833,0.74596 1.8927,0.96494 1.8927,0.43887 z m 14.84138,-3.98721 c 0.61042,-1.14059 -0.3719,-10.97587 -1.20964,-12.11129 -0.22142,-0.30009 -1.45798,-0.8466 -2.74793,-1.21447 -1.28995,-0.36787 -2.7108,-0.78484 -3.15745,-0.9266 -0.67633,-0.21466 -0.56411,0.024 0.6713,1.42747 1.44178,1.63796 2.53845,4.25915 2.53845,6.06726 0,2.27307 -1.99505,4.59448 -4.93718,5.7448 -2.86332,1.11951 -1.44306,1.64313 4.66019,1.71812 3.5208,0.0433 3.80753,-0.005 4.18226,-0.70529 z m -49.51707,-0.85044 c 3.60128,-1.35552 9.99614,-5.79486 13.74055,-9.53876 10.60115,-10.59972 16.23387,-23.775731 16.80334,-39.306287 0.20107,-5.483674 0.1952,-5.495599 -2.16912,-4.400195 -9.78245,4.532275 -23.59287,8.801067 -34.79768,10.755946 -2.32834,0.406218 -4.49067,0.813428 -4.80519,0.90491 -0.75865,0.220661 -2.2613,5.633645 -2.78308,10.02545 -0.57432,4.83403 -0.49248,14.377226 0.15455,18.021136 1.23226,6.9398 4.13169,12.6612 7.06345,13.9382 1.68446,0.7337 4.16925,0.58725 6.79318,-0.4004 z m -68.322031,0.01 c 2.32665,-0.82089 2.54116,-1.0973 1.87191,-2.41202 -0.31106,-0.61107 -1.55128,-2.53979 -2.75604,-4.28604 -5.81184,-8.424 -10.38015,-17.476566 -14.49621,-28.725653 l -1.47503,-4.031214 -3.13248,-0.643264 c -4.46309,-0.916511 -11.74111,-2.935037 -14.35938,-3.982509 -1.2287,-0.491558 -2.4044,-0.893742 -2.61266,-0.893742 -1.02988,0 -0.77389,9.431239 0.40835,15.044426 3.32328,15.778746 13.51503,26.764676 27.89511,30.068796 2.29538,0.52741 6.98116,0.45229 8.65643,-0.13878 z m 110.875081,-5.55925 c 0.54262,-1.1022 0.58066,-1.50721 0.23885,-2.54291 -0.22362,-0.67755 -0.53941,-1.31401 -0.70178,-1.41435 -0.53707,-0.33194 -1.4172,0.23688 -1.4172,0.91592 0,0.36729 -0.15875,0.66781 -0.35278,0.66781 -0.19403,0 -0.35278,0.3175 -0.35278,0.70555 0,0.38806 -0.1266,0.70556 -0.28132,0.70556 -0.23426,0 -0.32149,2.2602 -0.1272,3.29567 0.12357,0.65852 2.39132,-1.10864 2.99421,-2.33325 z m -3.9968,0.2723 c 0,-0.097 -0.0794,-0.17639 -0.17639,-0.17639 -0.097,0 -0.17639,0.0794 -0.17639,0.17639 0,0.097 0.0794,0.17639 0.17639,0.17639 0.097,0 0.17639,-0.0794 0.17639,-0.17639 z m 26.46782,-8.59946 c -0.3946,-1.36048 -3.49392,-7.52486 -4.14513,-8.24444 -0.76062,-0.84047 -2.02615,-0.8414 -1.69022,-0.001 0.13576,0.33955 0.32996,1.49063 0.43155,2.55796 0.18697,1.96448 -0.6304,5.79486 -2.0149,9.44218 -0.55403,1.45953 -0.55967,1.71827 -0.065,2.97765 l 0.54178,1.37924 3.60517,-3.59291 c 3.25844,-3.24735 3.57935,-3.68192 3.33672,-4.51844 z m -26.11504,7.54113 c 0,-0.097 -0.0794,-0.17639 -0.17639,-0.17639 -0.097,0 -0.17639,0.0794 -0.17639,0.17639 0,0.097 0.0794,0.17639 0.17639,0.17639 0.097,0 0.17639,-0.0794 0.17639,-0.17639 z m 0.23518,-1.11713 c -0.12935,-0.12935 -0.23518,-0.0235 -0.23518,0.23518 0,0.25871 0.10583,0.36454 0.23518,0.23519 0.12935,-0.12935 0.12935,-0.34102 0,-0.47037 z m 2.55974,-12.09574 c 0.58259,-1.85223 1.47948,-5.352056 1.99308,-7.777406 0.51361,-2.42535 1.55142,-6.271675 2.30625,-8.547399 1.44194,-4.347302 1.60824,-5.210931 1.00341,-5.210931 -0.44188,0 -2.0817,3.408052 -2.12179,4.409721 -0.0155,0.388056 -0.17827,1.023056 -0.36165,1.411111 -0.27103,0.573566 -0.29674,0.51854 -0.13745,-0.294142 0.12633,-0.644521 0.0656,-0.91913 -0.17097,-0.77293 -0.2018,0.124722 -0.36692,-0.03771 -0.36692,-0.360962 0,-0.37749 -0.18929,-0.515092 -0.52916,-0.384669 -0.29104,0.111683 -0.52917,0.06093 -0.52917,-0.112779 0,-0.173711 0.27781,-0.388439 0.61736,-0.477172 0.58055,-0.151713 0.58003,-0.163774 -0.009,-0.202256 -0.37461,-0.02448 -0.76905,0.335089 -0.982,0.895193 -0.7918,2.0826 -2.17522,8.560065 -2.30561,10.795415 -0.13093,2.24442 -0.10116,2.35928 0.51211,1.97628 0.35812,-0.22364 1.02504,-1.09111 1.48204,-1.92769 0.45701,-0.83659 0.87782,-1.47417 0.93514,-1.41685 0.0573,0.0573 -0.51546,1.91622 -1.27285,4.130886 -1.39031,4.06537 -2.26685,7.02459 -2.65565,8.96556 -0.43991,2.19606 1.49496,-1.60939 2.59256,-5.09898 z m 1.43841,-9.188516 c 0,-0.2587 0.10583,-0.36454 0.23518,-0.23518 0.12936,0.12935 0.12936,0.34101 0,0.47037 -0.12935,0.12935 -0.23518,0.0235 -0.23518,-0.23519 z m 0.38063,-1.6169 c 0.0169,-0.41096 0.10052,-0.49456 0.21313,-0.21313 0.10191,0.25466 0.0894,0.55893 -0.0279,0.67615 -0.11722,0.11723 -0.2006,-0.0911 -0.18528,-0.46302 z m 0.32492,-1.02893 c 0,-0.097 0.0794,-0.17639 0.17639,-0.17639 0.097,0 0.17639,0.0794 0.17639,0.17639 0,0.097 -0.0794,0.17639 -0.17639,0.17639 -0.097,0 -0.17639,-0.0794 -0.17639,-0.17639 z m 0,-1.058336 c 0,-0.09701 0.0794,-0.176388 0.17639,-0.176388 0.097,0 0.17639,0.07937 0.17639,0.176388 0,0.09701 -0.0794,0.176386 -0.17639,0.176386 -0.097,0 -0.17639,-0.07937 -0.17639,-0.176386 z m -10.2584,15.434022 c -0.0153,-1.50371 -0.11884,-2.4959 -0.23005,-2.20486 -0.2924,0.76526 -1.81253,2.11667 -2.38091,2.11667 -0.73331,0 -1.69954,1.09442 -1.31007,1.48389 0.18139,0.18139 1.10441,0.54253 2.05115,0.80252 0.94674,0.26 1.76103,0.48691 1.80954,0.50426 0.0485,0.0173 0.0757,-1.19876 0.0603,-2.70248 z m 24.86115,0.54174 c 0.16656,-1.05902 0.10679,-1.27223 -0.31163,-1.11167 -0.30508,0.11707 -0.45913,0.51036 -0.37508,0.95756 0.0785,0.41739 0.15444,0.98379 0.16886,1.25867 0.0436,0.83086 0.29921,0.28563 0.51785,-1.10456 z m -22.62454,-2.45074 c 0.21976,-0.13582 0.4357,-1.0337 0.47988,-1.9953 0.0722,-1.57049 0.0113,-1.73029 -0.59861,-1.57081 -0.61921,0.16193 -0.67333,0.49194 -0.61533,3.75237 0.035,1.96615 0.12454,2.78414 0.19904,1.81776 0.0745,-0.96639 0.31526,-1.8682 0.53502,-2.00402 z m -0.44487,-2.23614 c 0,-0.097 0.0794,-0.17639 0.17639,-0.17639 0.097,0 0.17639,0.0794 0.17639,0.17639 0,0.097 -0.0794,0.17639 -0.17639,0.17639 -0.097,0 -0.17639,-0.0794 -0.17639,-0.17639 z m 22.57777,3.175 c 0,-0.097 -0.0794,-0.17639 -0.17638,-0.17639 -0.097,0 -0.17639,0.0794 -0.17639,0.17639 0,0.097 0.0794,0.17639 0.17639,0.17639 0.097,0 0.17638,-0.0794 0.17638,-0.17639 z m -24.34166,-2.46944 c 0,-0.097 -0.0794,-0.17639 -0.17639,-0.17639 -0.097,0 -0.17639,0.0794 -0.17639,0.17639 0,0.097 0.0794,0.17639 0.17639,0.17639 0.097,0 0.17639,-0.0794 0.17639,-0.17639 z m 24.24927,-1.37752 c -0.42557,-0.42557 -0.49557,-0.35557 -0.49557,0.49557 0,0.85115 0.07,0.92115 0.49557,0.49557 0.42557,-0.42557 0.42557,-0.56556 0,-0.99114 z m 7.18785,-2.062066 c 0.60962,-1.21267 1.65021,-3.02472 2.31243,-4.02679 1.52417,-2.30637 1.43631,-2.69071 -1.68067,-7.352062 -2.26532,-3.38773 -3.34565,-4.684332 -3.64108,-4.370024 -0.0716,0.07616 -0.18681,3.39284 -0.25606,7.370406 l -0.12591,7.23195 1.05833,1.675056 c 0.58209,0.92129 1.09574,1.67535 1.14145,1.6757 0.0457,3.4e-4 0.5819,-0.99156 1.19151,-2.204236 z m -6.74268,1.675696 c 0,-0.097 -0.0794,-0.17639 -0.17639,-0.17639 -0.097,0 -0.17639,0.0794 -0.17639,0.17639 0,0.097 0.0794,0.17639 0.17639,0.17639 0.097,0 0.17639,-0.0794 0.17639,-0.17639 z m -7.32014,-3.257086 c 0.82657,-0.23643 0.79065,-0.42176 -0.43381,-2.23868 -1.59528,-2.36714 -3.43868,-4.41211 -3.72376,-4.13092 -0.37893,0.37376 -1.56914,5.57436 -1.57231,6.87019 l -0.003,1.12405 2.55763,-0.72402 c 1.40671,-0.39822 2.83546,-0.80349 3.175,-0.90062 z m 9.78959,-1.32902 c 0,-0.097 -0.0794,-0.17639 -0.17639,-0.17639 -0.097,0 -0.17639,0.0794 -0.17639,0.17639 0,0.097 0.0794,0.17639 0.17639,0.17639 0.097,0 0.17639,-0.0794 0.17639,-0.17639 z m -7.00683,-13.380826 c 3.80345,-1.105257 8.66493,-3.152076 9.97081,-4.197991 0.81857,-0.655617 0.97828,-1.000907 0.79701,-1.723152 -0.27179,-1.082899 -2.38749,-3.957032 -4.6529,-6.320855 -1.5903,-1.659396 -1.71336,-1.717349 -3.64021,-1.714387 -2.57337,0.004 -5.69844,0.380556 -5.69844,0.686712 0,0.131298 0.91281,0.610861 2.02847,1.065697 3.37957,1.377792 5.24462,2.848953 5.1726,4.080167 -0.053,0.905734 -0.79363,2.315672 -1.52605,2.905072 -0.30786,0.247741 -1.76985,1.072792 -3.24887,1.833448 -2.71852,1.398121 -3.1317,1.845309 -3.1317,3.389412 0,1.062709 0.25899,1.062437 3.92928,-0.0041 z M 69.439139,80.689651 c 4.70688,-3.108651 6.66745,-5.170172 6.65946,-7.002385 -0.0134,-3.067512 -2.82845,-5.69192 -6.26581,-5.841433 -3.83148,-0.166656 -4.65116,1.16373 -5.11268,8.298157 -0.34907,5.396108 -0.21866,6.972199 0.57689,6.972199 0.25743,0 2.12139,-1.091942 4.14214,-2.426538 z m 20.3354,1.132373 c 1.14722,-0.132611 1.85208,-0.384215 1.85208,-0.661114 0,-0.308312 -0.41051,-0.400017 -1.32292,-0.295532 -0.7276,0.08332 -4.51902,0.288054 -8.42537,0.454961 -4.32134,0.184638 -7.36037,0.466168 -7.76111,0.718975 -0.51191,0.322936 0.95256,0.368865 6.57329,0.206152 3.97757,-0.115145 8.06538,-0.305694 9.08403,-0.423442 z m -26.91694,-0.08937 c -0.38284,-0.371486 -11.25949,-1.457924 -14.02491,-1.400909 l -1.83245,0.03778 1.41111,0.312515 c 3.90455,0.864733 15.09326,1.67844 14.44625,1.050614 z m 32.00702,-0.473678 c 0.25639,-0.245354 1.63996,-1.237542 3.0746,-2.20486 6.609301,-4.456394 8.027431,-6.722547 6.420761,-10.260328 -0.91719,-2.0196 -2.52756,-3.073274 -4.949181,-3.238277 -2.79296,-0.190306 -4.8845,0.953856 -5.80536,3.175784 -0.62844,1.516359 -0.64107,1.939007 -0.2179,7.29172 0.24706,3.125134 0.57558,5.682061 0.73005,5.682061 0.15447,0 0.49063,-0.200745 0.74703,-0.4461 z m 16.870331,-1.893049 c 6.57052,-0.937685 16.01801,-2.790759 16.91955,-3.318678 1.04698,-0.613085 -1.41356,-0.358457 -7.01091,0.725521 -3.0244,0.585703 -8.53229,1.517686 -12.23974,2.071073 -3.70745,0.553387 -7.0412,1.183975 -7.40833,1.401307 -0.86606,0.512684 1.4532,0.303314 9.73943,-0.879223 z m 67.58894,-0.745058 c -0.24465,-0.244651 -0.91394,0.252427 -0.91394,0.678779 0,0.233924 0.20242,0.207162 0.53769,-0.07109 0.29573,-0.245435 0.46504,-0.518895 0.37625,-0.607688 z M 40.337519,77.821992 c 7.44719,-1.326211 8.7737,-1.789832 9.28047,-3.243566 1.47772,-4.238984 -1.62072,-8.692766 -6.28201,-9.029933 -1.96764,-0.142326 -2.14891,-0.08618 -3.34403,1.03569 -0.78507,0.736955 -2.0629,2.813196 -3.37415,5.482365 -2.95338,6.011894 -3.27208,6.816308 -2.70047,6.816308 0.25467,0 3.14376,-0.477389 6.42019,-1.060864 z m 139.718721,0.120123 c -0.12935,-0.129351 -0.34101,-0.129351 -0.47037,0 -0.12935,0.129352 -0.0235,0.235186 0.23519,0.235186 0.2587,0 0.36454,-0.105834 0.23518,-0.235186 z m 2.07677,-0.615261 c 0.27372,-0.273717 0.69894,-0.569484 0.94494,-0.657258 0.26016,-0.09283 0.31638,-0.290482 0.13439,-0.47247 -0.18198,-0.181989 -0.37876,-0.128402 -0.47037,0.128091 -0.0866,0.242535 -0.31238,0.440973 -0.50168,0.440973 -0.18931,0 -0.25002,-0.152387 -0.13491,-0.338638 0.12403,-0.200694 -0.22675,-0.186637 -0.86113,0.03451 -1.12533,0.392293 -1.36951,0.830198 -0.62944,1.128823 0.74068,0.298872 1.00048,0.253689 1.5182,-0.264031 z M 31.977779,76.273806 c -0.34791,-0.330439 -5.7696,-2.292868 -5.91976,-2.142711 -0.23886,0.238854 -0.11209,0.308298 2.42138,1.326424 1.97178,0.792397 3.96224,1.256836 3.49838,0.816287 z m 152.076611,-0.03678 c 0,-0.09701 -0.0794,-0.176389 -0.17639,-0.176389 -0.097,0 -0.17639,0.07938 -0.17639,0.176389 0,0.09701 0.0794,0.176389 0.17639,0.176389 0.097,0 0.17639,-0.07937 0.17639,-0.176389 z m 1.66265,-1.100709 c 0.0712,-0.217334 -0.90237,-0.930145 -2.16353,-1.584025 -1.79614,-0.931257 -2.38567,-1.096218 -2.7206,-0.76128 -0.33494,0.334937 -0.0896,0.580945 1.13236,1.135305 0.85798,0.389243 1.86952,0.7112 2.24787,0.715461 0.54284,0.0061 0.59678,0.09889 0.25578,0.439887 -0.341,0.340999 -0.57808,0.340999 -1.1241,0 -0.97721,-0.610276 -1.37268,-0.517053 -0.52515,0.123788 0.7836,0.592499 2.69551,0.546878 2.89737,-0.06914 z m -0.60431,0.04238 c 0,-0.09701 0.0794,-0.176389 0.17638,-0.176389 0.097,0 0.17639,0.07937 0.17639,0.176389 0,0.09701 -0.0794,0.176389 -0.17639,0.176389 -0.097,0 -0.17638,-0.07937 -0.17638,-0.176389 z m -11.28889,0 c 0,-0.09701 -0.0794,-0.176389 -0.17639,-0.176389 -0.097,0 -0.17639,0.07937 -0.17639,0.176389 0,0.09701 0.0794,0.176389 0.17639,0.176389 0.097,0 0.17639,-0.07937 0.17639,-0.176389 z m -35.5038,-1.322917 c -0.99117,-5.453332 -2.07292,-9.845401 -2.71187,-11.010651 -2.02891,-3.700111 -6.07374,-3.966646 -9.50189,-0.626128 -1.97346,1.92302 -2.66221,5.228425 -1.40674,6.751143 0.70014,0.849186 11.8415,5.985883 13.04395,6.013885 0.69539,0.01619 0.76116,-0.112516 0.57655,-1.128249 z M 25.539589,73.708782 c -0.12935,-0.129351 -0.23519,-0.02352 -0.23519,0.235186 0,0.258703 0.10584,0.364537 0.23519,0.235185 0.12935,-0.129352 0.12935,-0.341019 0,-0.470371 z M 146.30717,71.124381 c 4.23009,-1.390885 9.30184,-3.518391 9.03163,-3.7886 -0.26534,-0.265344 -15.33846,4.981524 -15.15652,5.275901 0.22486,0.363835 1.25815,0.112922 6.12489,-1.487301 z m 25.4,0.879309 c 0,-0.09701 -0.0794,-0.176389 -0.17639,-0.176389 -0.097,0 -0.17639,0.07937 -0.17639,0.176389 0,0.09701 0.0794,0.176389 0.17639,0.176389 0.097,0 0.17639,-0.07938 0.17639,-0.176389 z m 20.15211,-2.034352 c -0.34841,-0.345816 -0.38893,-0.305295 -0.19749,0.197483 0.13248,0.347917 0.32974,0.543709 0.43836,0.435093 0.10861,-0.108616 2.2e-4,-0.393275 -0.24087,-0.632576 z M 26.557129,68.840021 c 0.64651,-1.547327 0.65924,-4.794866 0.0248,-6.313429 -0.69236,-1.657032 -2.15295,-2.693734 -3.79516,-2.693734 -1.42835,0 -5.29068,1.230343 -9.91709,3.159094 -2.9031404,1.210315 -3.4750404,1.670602 -2.69167,2.166332 0.63311,0.400644 11.7063,4.089479 13.53894,4.51026 2.19153,0.503181 2.29661,0.472528 2.84023,-0.828523 z m 37.16985,-0.364108 c 0.0107,-0.194028 -0.13449,-0.114653 -0.32258,0.176388 -0.18808,0.291042 -0.33325,0.767292 -0.32258,1.058334 0.0205,0.558746 0.60843,-0.566483 0.64516,-1.234722 z m 14.14131,1.058333 c 0,-0.09701 -0.0794,-0.176389 -0.17639,-0.176389 -0.097,0 -0.17639,0.07937 -0.17639,0.176389 0,0.09701 0.0794,0.176389 0.17639,0.176389 0.097,0 0.17639,-0.07937 0.17639,-0.176389 z m 13.64074,-1.822685 c -0.12935,-0.129352 -0.23519,-0.02352 -0.23519,0.235185 0,0.258704 0.10584,0.364537 0.23519,0.235185 0.12935,-0.129352 0.12935,-0.341018 0,-0.47037 z m -27.16389,0 c -0.12935,-0.129352 -0.34102,-0.129352 -0.47037,0 -0.12935,0.129352 -0.0235,0.235185 0.23519,0.235185 0.2587,0 0.36453,-0.105833 0.23518,-0.235185 z m 0.99954,-0.823148 c 0.11991,-0.194028 0.0499,-0.352778 -0.15557,-0.352778 -0.20548,0 -0.3736,0.15875 -0.3736,0.352778 0,0.194027 0.07,0.352777 0.15557,0.352777 0.0856,0 0.25368,-0.15875 0.3736,-0.352777 z m 26.51713,-0.235186 c -0.12936,-0.129351 -0.23519,-0.02352 -0.23519,0.235186 0,0.258703 0.10583,0.364537 0.23519,0.235185 0.12935,-0.129352 0.12935,-0.341019 0,-0.470371 z m -54.21018,0.0588 c 0,-0.09701 -0.0794,-0.176389 -0.17639,-0.176389 -0.097,0 -0.17639,0.07937 -0.17639,0.176389 0,0.09701 0.0794,0.176389 0.17639,0.176389 0.097,0 0.17639,-0.07937 0.17639,-0.176389 z m 28.71433,-0.23634 c -0.17306,-0.28002 -0.0604,-0.338035 0.35028,-0.180429 0.40491,0.155378 0.52262,0.09842 0.35549,-0.172009 -0.16994,-0.274964 -0.007,-0.340667 0.51084,-0.205375 0.4184,0.109413 0.76072,0.05504 0.76072,-0.120819 0,-0.175862 -0.47625,-0.31975 -1.05833,-0.31975 -0.58209,0 -1.05834,-0.15875 -1.05834,-0.352778 0,-0.194028 -0.17818,-0.352778 -0.39597,-0.352778 -0.28686,0 -0.28345,0.13558 0.0124,0.492033 0.22459,0.270619 0.38398,0.627806 0.3542,0.79375 -0.0853,0.475261 0.0117,0.830884 0.2266,0.830884 0.10847,0 0.0824,-0.185728 -0.0579,-0.412729 z m 116.630101,0.23634 c 0,-0.09701 -0.0794,-0.176389 -0.17639,-0.176389 -0.097,0 -0.17639,0.07937 -0.17639,0.176389 0,0.09701 0.0794,0.176389 0.17639,0.176389 0.097,0 0.17639,-0.07937 0.17639,-0.176389 z M 49.646069,66.359246 c 0,-0.09701 -0.0794,-0.176389 -0.17639,-0.176389 -0.097,0 -0.17639,0.07937 -0.17639,0.176389 0,0.09701 0.0794,0.176389 0.17639,0.176389 0.097,0 0.17639,-0.07937 0.17639,-0.176389 z M 185.32931,64.823763 c -0.24324,-1.833612 -1.7691,-7.366564 -2.13146,-7.728926 -0.12022,-0.120226 -0.48601,0.04883 -0.81286,0.375675 -0.55717,0.557171 -0.52912,0.858459 0.44937,4.826547 0.96832,3.926811 1.10421,4.232508 1.88284,4.235428 0.79993,0.003 0.82857,-0.07697 0.61211,-1.708724 z M 38.357179,66.006468 c 0,-0.09701 -0.0794,-0.176389 -0.17639,-0.176389 -0.097,0 -0.17639,0.07937 -0.17639,0.176389 0,0.09701 0.0794,0.176389 0.17639,0.176389 0.097,0 0.17639,-0.07937 0.17639,-0.176389 z m 31.04444,0 c 0,-0.09701 -0.0794,-0.176389 -0.17639,-0.176389 -0.097,0 -0.17638,0.07937 -0.17638,0.176389 0,0.09701 0.0794,0.176389 0.17638,0.176389 0.097,0 0.17639,-0.07937 0.17639,-0.176389 z m 22.7635,-0.461035 c -0.10861,-0.108616 -0.39327,-2.24e-4 -0.63257,0.240871 -0.34582,0.348409 -0.3053,0.38893 0.19748,0.197483 0.34792,-0.132479 0.54371,-0.329738 0.43509,-0.438354 z m -61.13348,-0.556651 c 0.80623,-1.22381 -0.35956,-3.196296 -2.33773,-3.95539 -0.50925,-0.195418 -0.51258,-0.09744 -0.0355,1.044467 0.28958,0.693063 0.52651,1.831536 0.52651,2.52994 0,1.155067 0.0717,1.24744 0.79375,1.022117 0.43656,-0.136241 0.91038,-0.424751 1.05293,-0.641134 z m 34.48943,0.664909 c 0,-0.09701 -0.0794,-0.176389 -0.17639,-0.176389 -0.097,0 -0.17639,0.07937 -0.17639,0.176389 0,0.09701 0.0794,0.176388 0.17639,0.176388 0.097,0 0.17639,-0.07937 0.17639,-0.176388 z M 182.7673,64.938864 c -0.10887,-0.283714 -0.37193,-0.408315 -0.58458,-0.276892 -0.27164,0.167881 -0.25999,0.281164 0.0392,0.380882 0.23419,0.07806 0.3209,0.311651 0.1927,0.519086 -0.1345,0.217628 -0.0673,0.274713 0.15879,0.13496 0.21553,-0.133207 0.3028,-0.474323 0.19393,-0.758036 z M 67.520139,64.889344 c -0.12935,-0.129352 -0.34102,-0.129352 -0.47037,0 -0.12935,0.129352 -0.0235,0.235185 0.23519,0.235185 0.2587,0 0.36453,-0.105833 0.23518,-0.235185 z m 16.69815,0.0588 c 0,-0.09701 -0.0794,-0.176389 -0.17639,-0.176389 -0.097,0 -0.17639,0.07938 -0.17639,0.176389 0,0.09701 0.0794,0.176389 0.17639,0.176389 0.097,0 0.17639,-0.07937 0.17639,-0.176389 z m 1.41111,0 c 0,-0.09701 -0.0794,-0.176389 -0.17639,-0.176389 -0.097,0 -0.17639,0.07938 -0.17639,0.176389 0,0.09701 0.0794,0.176389 0.17639,0.176389 0.097,0 0.17639,-0.07937 0.17639,-0.176389 z m 0.94074,-0.0588 c -0.12935,-0.129352 -0.34102,-0.129352 -0.47037,0 -0.12935,0.129352 -0.0235,0.235185 0.23519,0.235185 0.2587,0 0.36453,-0.105833 0.23518,-0.235185 z m 4.17454,-0.297919 c 0.19402,-0.07106 -0.56899,-0.114139 -1.69559,-0.09574 -1.1266,0.0184 -1.88278,0.135785 -1.68041,0.26086 0.35185,0.217456 2.63644,0.105718 3.376,-0.165118 z m 2.29305,0.356715 c 0,-0.09701 -0.0794,-0.176389 -0.17639,-0.176389 -0.097,0 -0.17639,0.07938 -0.17639,0.176389 0,0.09701 0.0794,0.176389 0.17639,0.176389 0.097,0 0.17639,-0.07937 0.17639,-0.176389 z m -45.27314,-0.764352 c -0.12935,-0.129352 -0.34102,-0.129352 -0.47037,0 -0.12935,0.129352 -0.0235,0.235185 0.23518,0.235185 0.25871,0 0.36454,-0.105833 0.23519,-0.235185 z m 0.82315,0.0588 c 0,-0.09701 -0.0794,-0.176389 -0.17639,-0.176389 -0.097,0 -0.17639,0.07937 -0.17639,0.176389 0,0.09701 0.0794,0.176388 0.17639,0.176388 0.097,0 0.17639,-0.07938 0.17639,-0.176388 z m 1.29351,-0.0588 c -0.12935,-0.129352 -0.34101,-0.129352 -0.47037,0 -0.12935,0.129352 -0.0235,0.235185 0.23519,0.235185 0.2587,0 0.36454,-0.105833 0.23518,-0.235185 z m 30.63287,-0.110831 c 12.51063,-0.506839 27.793511,-2.433898 39.310031,-4.956706 2.60579,-0.570825 4.81165,-0.964018 4.90191,-0.87376 0.21101,0.211013 -1.45154,0.845365 -1.75345,0.669033 -0.12519,-0.07312 -0.32542,0.121946 -0.44497,0.433477 -0.1522,0.396634 -0.0644,0.507712 0.29302,0.370569 0.28071,-0.107717 0.57419,-0.0063 0.65219,0.225305 0.1057,0.313921 0.29001,0.298825 0.72385,-0.05929 0.32013,-0.264242 0.8282,-0.385981 1.12906,-0.270531 0.31309,0.120146 0.63254,-0.01297 0.74701,-0.311284 0.11,-0.286656 0.30243,-0.459392 0.42762,-0.383858 0.12519,0.07553 0.43708,-0.08923 0.69309,-0.366147 0.39576,-0.428068 0.33058,-0.47902 -0.43515,-0.340167 -0.49534,0.08982 -1.062,0.263047 -1.25923,0.384941 -0.19722,0.121894 -0.35859,0.06288 -0.35859,-0.131153 0,-0.541867 0.18807,-0.608842 6.55733,-2.335213 3.28145,-0.889428 8.4269,-2.443793 11.43433,-3.454145 3.00743,-1.010352 5.62681,-1.837003 5.82084,-1.837003 0.19402,0 0.43215,-0.100324 0.52916,-0.222943 0.097,-0.122619 2.70479,-1.286069 5.79506,-2.585445 12.55813,-5.280366 20.8613,-10.281881 25.14119,-15.144095 l 1.47759,-1.678626 0.18173,1.1725 c 0.1,0.644875 0.27827,1.929634 0.39627,2.855021 0.118,0.925388 0.36311,1.590706 0.54469,1.478486 0.36212,-0.223804 0.38048,-6.43309 0.0238,-8.054818 l -0.22284,-1.013255 -1.6623,2.071588 c -3.29931,4.111666 -8.51666,8.032425 -15.8002,11.873616 -16.49651,8.699926 -39.9029,15.765982 -62.08888,18.743746 -11.049651,1.483065 -18.080091,2.011964 -29.456941,2.216042 -20.16911,0.361794 -33.05602,-1.191745 -46.32427,-5.584466 -2.38904,-0.790941 -4.42191,-1.359879 -4.51748,-1.264307 -0.16956,0.169563 5.69174,3.510041 6.39175,3.642788 0.19403,0.0368 1.5434,0.405229 2.99861,0.818743 1.45521,0.413515 5.66208,1.290385 9.34861,1.948601 11.65011,2.080085 22.43928,2.625792 38.80555,1.962751 z m 44.979171,-4.769261 c 0,-0.09701 0.0794,-0.176389 0.17638,-0.176389 0.097,0 0.17639,0.07937 0.17639,0.176389 0,0.09701 -0.0794,0.176389 -0.17639,0.176389 -0.097,0 -0.17638,-0.07937 -0.17638,-0.176389 z m -31.750001,4.938889 c 0,-0.09701 -0.0794,-0.176389 -0.17639,-0.176389 -0.097,0 -0.17639,0.07937 -0.17639,0.176389 0,0.09701 0.0794,0.176388 0.17639,0.176388 0.097,0 0.17639,-0.07938 0.17639,-0.176388 z m 2.29904,-0.53885 c 0.0943,-0.152513 -0.14882,-0.193563 -0.54016,-0.09122 -0.39135,0.10234 -0.78866,0.310855 -0.88292,0.463368 -0.0943,0.152512 0.14881,0.193563 0.54016,0.09122 0.39135,-0.102339 0.78866,-0.310855 0.88292,-0.463368 z m -49.21848,0.186072 c 0,-0.09701 -0.0794,-0.176389 -0.17639,-0.176389 -0.097,0 -0.17639,0.07937 -0.17639,0.176389 0,0.09701 0.0794,0.176389 0.17639,0.176389 0.097,0 0.17639,-0.07937 0.17639,-0.176389 z M 166.06273,63.7818 c 0,-0.576541 -6.921,-9.393046 -8.14102,-10.370669 -1.77746,-1.424303 -3.41433,-1.614884 -5.44148,-0.633555 -2.77745,1.344539 -4.40566,4.824445 -3.70691,7.922615 0.50262,2.22856 0.88077,2.401318 6.25849,2.859242 5.91634,0.503789 11.03092,0.606891 11.03092,0.222367 z m 16.46296,0.04921 c -0.12935,-0.129351 -0.34102,-0.129351 -0.47037,0 -0.12935,0.129352 -0.0235,0.235186 0.23518,0.235186 0.25871,0 0.36454,-0.105834 0.23519,-0.235186 z M 97.271069,63.537024 c 0,-0.09701 -0.0794,-0.176389 -0.17639,-0.176389 -0.097,0 -0.17639,0.07937 -0.17639,0.176389 0,0.09701 0.0794,0.176389 0.17639,0.176389 0.097,0 0.17639,-0.07937 0.17639,-0.176389 z m 25.047221,0 c 0,-0.09701 -0.0794,-0.176389 -0.17639,-0.176389 -0.097,0 -0.17639,0.07937 -0.17639,0.176389 0,0.09701 0.0794,0.176389 0.17639,0.176389 0.097,0 0.17639,-0.07937 0.17639,-0.176389 z m 59.80808,-0.970139 c -0.13553,-0.436562 -0.28141,-1.031875 -0.32417,-1.322916 -0.0428,-0.291042 -0.26306,-0.846667 -0.48955,-1.234722 -0.36013,-0.61703 -0.41315,-0.628095 -0.42253,-0.08819 -0.006,0.339549 -0.24885,0.617361 -0.53989,0.617361 -0.29105,0 -0.52917,0.15875 -0.52917,0.352778 0,0.194028 0.16812,0.352778 0.3736,0.352778 0.20548,0 0.28656,0.140826 0.18018,0.312947 -0.10637,0.172121 0.0826,0.291184 0.41998,0.264583 0.38664,-0.03048 0.65513,0.245061 0.7263,0.745386 0.0621,0.436563 0.27912,0.79375 0.48229,0.79375 0.22089,0 0.27032,-0.31908 0.12296,-0.79375 z m -1.24698,-1.499305 c 0,-0.09701 0.0794,-0.176389 0.17639,-0.176389 0.097,0 0.17639,0.07937 0.17639,0.176389 0,0.09701 -0.0794,0.176389 -0.17639,0.176389 -0.097,0 -0.17639,-0.07938 -0.17639,-0.176389 z M 40.121069,62.831469 c 0,-0.09701 -0.0794,-0.176389 -0.17639,-0.176389 -0.097,0 -0.17639,0.07937 -0.17639,0.176389 0,0.09701 0.0794,0.176388 0.17639,0.176388 0.097,0 0.17639,-0.07937 0.17639,-0.176388 z m 63.147221,0 c 0,-0.09701 -0.0794,-0.176389 -0.17639,-0.176389 -0.097,0 -0.17639,0.07937 -0.17639,0.176389 0,0.09701 0.0794,0.176388 0.17639,0.176388 0.097,0 0.17639,-0.07937 0.17639,-0.176388 z m 19.40277,0 c 0,-0.09701 -0.0794,-0.176389 -0.17639,-0.176389 -0.097,0 -0.17638,0.07937 -0.17638,0.176389 0,0.09701 0.0794,0.176388 0.17638,0.176388 0.097,0 0.17639,-0.07937 0.17639,-0.176388 z m 56.44444,0 c 0,-0.09701 -0.0794,-0.176389 -0.17639,-0.176389 -0.097,0 -0.17638,0.07937 -0.17638,0.176389 0,0.09701 0.0794,0.176388 0.17638,0.176388 0.097,0 0.17639,-0.07937 0.17639,-0.176388 z M 37.651629,62.478691 c 0,-0.09701 -0.0794,-0.176389 -0.17639,-0.176389 -0.097,0 -0.17639,0.07937 -0.17639,0.176389 0,0.09701 0.0794,0.176389 0.17639,0.176389 0.097,0 0.17639,-0.07937 0.17639,-0.176389 z m 69.144431,0 c 0,-0.09701 -0.0794,-0.176389 -0.17638,-0.176389 -0.097,0 -0.17639,0.07937 -0.17639,0.176389 0,0.09701 0.0794,0.176389 0.17639,0.176389 0.097,0 0.17638,-0.07937 0.17638,-0.176389 z m 74.31852,-0.411574 c -0.12935,-0.129352 -0.23519,-0.02352 -0.23519,0.235185 0,0.258704 0.10584,0.364537 0.23519,0.235185 0.12935,-0.129352 0.12935,-0.341018 0,-0.47037 z m -144.521291,0.0588 c 0,-0.09701 -0.0794,-0.176389 -0.17639,-0.176389 -0.097,0 -0.17639,0.07937 -0.17639,0.176389 0,0.09701 0.0794,0.176389 0.17639,0.176389 0.097,0 0.17639,-0.07937 0.17639,-0.176389 z m 72.672221,0 c 0,-0.09701 -0.0794,-0.176389 -0.17639,-0.176389 -0.097,0 -0.17639,0.07937 -0.17639,0.176389 0,0.09701 0.0794,0.176389 0.17639,0.176389 0.097,0 0.17639,-0.07937 0.17639,-0.176389 z m 68.79166,0 c 0,-0.09701 -0.0794,-0.176389 -0.17639,-0.176389 -0.097,0 -0.17639,0.07937 -0.17639,0.176389 0,0.09701 0.0794,0.176389 0.17639,0.176389 0.097,0 0.17639,-0.07937 0.17639,-0.176389 z m 0.58796,-0.411574 c -0.12935,-0.129352 -0.23518,-0.02352 -0.23518,0.235185 0,0.258704 0.10583,0.364537 0.23518,0.235185 0.12935,-0.129352 0.12935,-0.341018 0,-0.47037 z m -54.91573,0.07962 c 0,-0.08556 -0.15875,-0.253682 -0.35278,-0.373597 -0.19403,-0.119916 -0.35278,-0.04991 -0.35278,0.155569 0,0.205478 0.15875,0.373597 0.35278,0.373597 0.19403,0 0.35278,-0.07001 0.35278,-0.155569 z m 47.6183,-1.571657 c 2.72574,-1.415629 8.98685,-5.437713 9.33059,-5.993894 0.72121,-1.166943 -1.69819,0.0058 -6.87659,3.333278 -7.09309,4.557784 -7.99984,5.540873 -2.454,2.660616 z m 8.00879,0.955525 c -0.11262,-0.281423 -0.19621,-0.19783 -0.21314,0.213136 -0.0153,0.371887 0.0681,0.580246 0.18529,0.463021 0.11723,-0.117225 0.12976,-0.421496 0.0279,-0.676157 z m -54.21598,-0.794987 c 0,-0.08556 -0.15875,-0.253682 -0.35278,-0.373597 -0.19403,-0.119916 -0.35278,-0.04991 -0.35278,0.155569 0,0.205478 0.15875,0.373597 0.35278,0.373597 0.19403,0 0.35278,-0.07001 0.35278,-0.155569 z M 27.773849,60.009247 c 0,-0.09701 -0.0794,-0.176389 -0.17639,-0.176389 -0.097,0 -0.17639,0.07937 -0.17639,0.176389 0,0.09701 0.0794,0.176388 0.17639,0.176388 0.097,0 0.17639,-0.07937 0.17639,-0.176388 z m 56.79722,-0.882912 c 15.550521,-1.05418 28.514131,-3.032579 41.540301,-6.339536 14.56838,-3.698478 22.44168,-6.54752 34.13052,-12.350506 7.92884,-3.936315 11.31834,-6.041008 14.85687,-9.225318 3.87921,-3.490875 3.87427,-3.478134 3.35914,-8.671251 -2.47938,-24.9947065 -11.95228,-48.867248 -26.08637,-65.739925 -7.69053,-9.18062 -22.65381,-20.753665 -33.22824,-25.699707 -4.17603,-1.953277 -4.05616,-1.99177 -6.76075,2.171074 -3.35584,5.165249 -6.23507,8.589701 -11.811,14.047597 -5.696361,5.575781 -11.702811,10.466207 -17.411581,14.176446 -13.20668,8.583264 -24.73629,13.55247 -44.45,19.157732 -3.20146,0.910281 -5.96295,1.738646 -6.13666,1.840811 -0.1737,0.102165 0.62005,0.611878 1.76389,1.132696 2.05853,0.937296 4.96283,3.411152 5.76554,4.911038 0.36442,0.680932 0.23274,0.64401 -1.07072,-0.300213 -1.65076,-1.195808 -2.99371,-1.355039 -4.56693,-0.541493 -1.57171,0.81276 -2.26139,2.417124 -2.2722,5.2856943 -0.008,2.1141372 0.14724,2.748614 1.07871,4.4097218 1.43737,2.56329011 3.82103,4.233333 6.04226,4.233333 1.33008,0 1.75361,-0.182866 2.65545,-1.14652759 l 1.07297,-1.1465277 -0.25548,2.46944429 c -0.53843,5.204552 -3.33917,11.0046939 -6.60683,13.6822939 -7.61076,6.236447 -18.29349,4.423943 -23.39182,-3.968814 -1.65001,-2.7162139 -2.29882,-5.4425349 -2.30825,-9.6994039 l -0.008,-3.5418536 -0.6988104,0.88194441 c -1.43402,1.8098408 -2.15642,5.87739819 -2.81128,15.82927209 -0.74108,11.262206 0.80421,18.963962 5.1020804,25.428881 1.93902,2.916707 6.30467,7.353923 9.10891,9.258247 2.56,1.738467 6.87807,3.791568 10.59463,5.037409 5.17857,1.735923 15.87858,3.702008 23.87571,4.387068 4.85713,0.416077 22.95779,0.435082 28.92778,0.03037 z m -25.80351,-16.69114 c -2.84558,-0.969934 -4.74479,-2.245268 -6.97095,-4.681042 -2.88287,-3.154321 -5.91587,-10.002643 -6.54871,-14.78657 -0.46815,-3.538949 -0.53406,-3.68643 -1.97646,-4.422289 -1.87142,-0.954725 -2.67287,-2.204922 -2.14964,-3.353273 0.49334,-1.082758 1.22644,-1.089997 3.62968,-0.03584 4.67736,2.051674 9.02806,2.137106 13.17095,0.25863 2.85007,-1.292283 3.73306,-1.336505 6.63963,-0.33253 4.76526,1.645998 11.76219,0.664376 16.48123,-2.312206 3.79441,-2.393361 3.68702,-2.351698 4.53351,-1.75879 0.41699,0.292067 0.75816,0.827349 0.75816,1.189515 0,0.828471 -1.49944,2.63318 -2.85121,3.43169 -0.97738,0.57735 -1.02935,0.729649 -1.02935,3.016307 0,7.090414 -3.76724,16.315135 -8.28793,20.294407 -4.46912,3.933874 -10.25393,5.245691 -15.39891,3.491993 z m 6.82434,-3.459127 c 2.29681,-0.486135 3.53671,-1.091977 5.51513,-2.694824 2.19547,-1.778696 4.02832,-4.237422 5.18162,-6.951019 1.1543,-2.715969 1.23177,-2.584529 -2.20244,-3.736742 -6.62118,-2.221474 -12.8119,-1.247325 -17.0063,2.676049 -1.80467,1.688055 -3.20051,4.034648 -3.20051,5.380489 0,1.666823 3.34524,4.435563 6.33256,5.241251 2.05998,0.555579 3.07972,0.571652 5.37994,0.0848 z m -12.32623,-9.041125 c 2.10994,-3.132256 5.26574,-5.613381 8.90401,-7.000446 1.38857,-0.529384 2.60244,-0.663138 5.70487,-0.628614 l 3.94099,0.04386 -0.37375,-0.820279 c -0.38584,-0.846835 -0.84808,-1.003319 -4.15683,-1.407225 -1.06716,-0.13027 -2.76271,-0.542832 -3.76789,-0.916805 l -1.82761,-0.679951 -1.70017,0.878248 c -0.93509,0.483036 -2.13673,0.983782 -2.6703,1.112768 -0.7039,0.170159 -0.97014,0.453891 -0.97014,1.033867 0,2.357441 -2.06702,5.74096 -4.09514,6.703365 -0.68077,0.323049 -1.18371,0.694572 -1.11763,0.825608 0.0661,0.131036 0.33895,0.67481 0.60641,1.208386 0.26745,0.533577 0.51907,0.970139 0.55916,0.970139 0.0401,0 0.4739,-0.595312 0.96402,-1.322917 z m 1.31929,-3.439583 c 0,-0.09701 0.0794,-0.176389 0.17639,-0.176389 0.097,0 0.17639,0.07938 0.17639,0.176389 0,0.09701 -0.0794,0.176389 -0.17639,0.176389 -0.097,0 -0.17639,-0.07937 -0.17639,-0.176389 z m 1.41111,-1.058333 c 0,-0.09701 0.0794,-0.176389 0.17639,-0.176389 0.097,0 0.17639,0.07937 0.17639,0.176389 0,0.09701 -0.0794,0.176389 -0.17639,0.176389 -0.097,0 -0.17639,-0.07937 -0.17639,-0.176389 z m -3.63763,-1.261783 c 0.43237,-0.858241 0.88602,-1.983972 1.00813,-2.501624 l 0.22201,-0.941184 -2.71158,-0.117149 c -1.49136,-0.06443 -2.78597,0.004 -2.87691,0.152121 -0.22988,0.374375 1.39521,3.839288 2.15882,4.602896 0.8578,0.857805 1.28124,0.627743 2.19953,-1.19506 z m 26.56018,-2.392373 c 0.41903,-1.508617 0.47512,-3.584903 0.0962,-3.561322 -0.14552,0.0091 -1.59124,0.375455 -3.2127,0.814219 l -2.94811,0.797752 1.63885,1.561928 c 2.93584,2.798036 3.73671,2.868143 4.42576,0.387423 z m 60.773971,6.304461 c -0.87902,-0.37045 -1.05128,-1.468239 -0.32497,-2.071023 0.25783,-0.213979 1.51712,-0.783648 2.79843,-1.265929 6.27721,-2.362737 11.702,-5.507397 16.24111,-9.414714 2.48955,-2.143027 3.85418,-2.767614 4.77618,-2.186037 1.83604,1.158148 1.3591,2.83672 -1.64221,5.779695 -2.81647,2.761716 -5.94782,4.940269 -9.38066,6.526342 -4.33397,2.002414 -10.74835,3.356334 -12.46788,2.631666 z m -5.75718,-10.793764 c -0.76904,-0.926636 -0.0402,-1.533744 4.87273,-4.058915 2.54625,-1.308732 5.60136,-3.039463 6.78914,-3.8460699 2.61723,-1.777326 7.71567,-6.045957 9.86737,-8.2613846 1.61348,-1.66126839 2.94356,-2.07718539 3.82474,-1.19600259 2.25459,2.25458719 -5.92357,10.90562409 -14.23867,15.06198109 -4.8766,2.4376 -10.10364,3.519373 -11.11531,2.300391 z M 99.817059,14.871585 C 92.952869,13.209532 87.019689,7.4929821 84.705879,0.31213431 83.855309,-2.3275623 83.652439,-9.6887669 84.353149,-12.486581 c 1.37789,-5.501676 5.06539,-10.843137 9.48959,-13.74597 5.98145,-3.924588 14.167881,-4.308194 21.055031,-0.986612 3.22882,1.557218 7.95626,6.30477 9.50095,9.54138 3.31228,6.940267 3.30079,14.6072168 -0.0319,21.2425901 -2.73413,5.443727 -8.01723,9.8288649 -13.56478,11.2591859 -2.60132,0.670695 -8.30951,0.695426 -10.985031,0.04759 z m 8.950851,-2.860216 c 2.4956,-0.578768 4.68184,-1.540051 5.35947,-2.3565389 0.33192,-0.399944 -0.0674,-0.626891 -2.21426,-1.258516 -2.16903,-0.63814 -2.88736,-1.050422 -4.17934,-2.398723 -1.27909,-1.334849 -1.8377,-1.658723 -3.10101,-1.797928 -1.25176,-0.137933 -1.79213,0.0018 -2.87999,0.744566 l -1.33911,0.914357 -0.601171,-1.098961 c -0.33063,-0.604428 -0.98151,-1.676154 -1.4464,-2.381612 -0.49698,-0.754168 -1.07586,-2.50072199 -1.40497,-4.2389667 l -0.55973,-2.9563161 -3.53392,0.2156702 c -1.94365,0.1186186 -3.67483,0.2186485 -3.84707,0.2222886 -0.61879,0.013078 0.18388,4.09460241 1.38426,7.038923 2.0186,4.951232 5.943,8.2240029 11.244701,9.3775519 2.89226,0.629302 4.31607,0.624143 7.11854,-0.0258 z m 13.71668,-15.4630714 c 1.58184,-1.0364584 2.47389,-3.4753957 2.47198,-6.7585796 -0.001,-2.49015 -0.143,-3.126114 -1.15208,-5.175848 -1.98386,-4.029786 -5.9969,-6.978228 -9.49788,-6.978228 -2.35659,0 -4.87729,1.549858 -6.02449,3.704167 -0.85837,1.611915 -0.72352,5.515613 0.28029,8.113888 1.08782,2.8157298 4.31486,6.098926 7.0531,7.1758269 2.32782,0.9154915 5.40341,0.879123 6.86908,-0.081226 z M 53.940899,11.744152 c -1.48952,-1.585512 -0.66421,-5.1807339 1.18926,-5.1807339 1.06093,0 2.27702,1.645192 2.27702,3.080469 0,2.6373689 -1.88736,3.7809479 -3.46628,2.1002649 z m 6.50976,-0.33004 c -1.16826,-1.8525029 -0.96853,-3.7203869 0.48074,-4.4960109 2.20774,-1.181546 4.17169,2.713796 2.42771,4.8151659 -0.6385,0.769342 -2.33974,0.582658 -2.90845,-0.319155 z M 170.64884,-2.2560261 c 0,-0.2587037 0.10583,-0.364537 0.23518,-0.2351852 0.12935,0.1293519 0.12935,0.3410185 0,0.4703704 -0.12935,0.1293518 -0.23518,0.023518 -0.23518,-0.2351852 z m -0.35278,-0.8819444 c 0,-0.097014 0.0794,-0.1763889 0.17639,-0.1763889 0.097,0 0.17639,0.079375 0.17639,0.1763889 0,0.097014 -0.0794,0.1763889 -0.17639,0.1763889 -0.097,0 -0.17639,-0.079375 -0.17639,-0.1763889 z M 97.976619,-40.317912 c -1.74835,-0.484371 -2.16227,-3.129528 -0.69718,-4.455412 1.59341,-1.44202 5.224081,-1.96031 8.302361,-1.18519 2.88439,0.726298 4.67456,3.890872 3.03857,5.371426 -0.53502,0.484186 -1.42321,0.57784 -5.20347,0.548678 -2.50708,-0.01934 -4.955211,-0.145117 -5.440281,-0.279502 z m 91.160361,96.23206 c 0.8911,-0.991123 1.62019,-1.932925 1.62019,-2.092893 0,-0.773223 -4.26349,-0.793029 -4.74,-0.02202 -0.21988,0.355772 0.91374,3.916957 1.24687,3.916957 0.13901,0 0.98183,-0.810919 1.87294,-1.802044 z m -55.52981,0.920099 c 0,-0.09701 -0.0794,-0.176389 -0.17639,-0.176389 -0.097,0 -0.17638,0.07937 -0.17638,0.176389 0,0.09701 0.0794,0.176389 0.17638,0.176389 0.097,0 0.17639,-0.07937 0.17639,-0.176389 z m 2.35186,-0.764352 c -0.12936,-0.129352 -0.34102,-0.129352 -0.47037,0 -0.12936,0.129352 -0.0235,0.235185 0.23518,0.235185 0.2587,0 0.36454,-0.105833 0.23519,-0.235185 z m 1.88148,-0.646759 c 0,-0.09701 -0.0794,-0.176389 -0.17639,-0.176389 -0.097,0 -0.17639,0.07937 -0.17639,0.176389 0,0.09701 0.0794,0.176389 0.17639,0.176389 0.097,0 0.17639,-0.07937 0.17639,-0.176389 z m 9.87777,-2.469444 c 0,-0.09701 -0.0794,-0.176389 -0.17639,-0.176389 -0.097,0 -0.17638,0.07937 -0.17638,0.176389 0,0.09701 0.0794,0.176388 0.17638,0.176388 0.097,0 0.17639,-0.07937 0.17639,-0.176388 z m 0.70556,0 c 0,-0.09701 -0.0794,-0.176389 -0.17639,-0.176389 -0.097,0 -0.17639,0.07937 -0.17639,0.176389 0,0.09701 0.0794,0.176388 0.17639,0.176388 0.097,0 0.17639,-0.07937 0.17639,-0.176388 z m 0.55201,-0.492201 c -0.10735,-0.173697 0.0503,-0.410004 0.35028,-0.525126 0.35852,-0.137575 0.46976,-0.05956 0.32459,0.227617 -0.12148,0.240313 0.0359,0.119432 0.34964,-0.268624 0.31379,-0.388055 0.64306,-0.665868 0.73172,-0.617361 0.3533,0.193288 0.86676,0.07148 0.86676,-0.205627 0,-0.454461 -1.09568,-0.257379 -2.6102,0.469506 -1.17855,0.565634 -1.27957,0.697782 -0.70556,0.922993 0.90775,0.356151 0.91495,0.356116 0.69277,-0.0034 z m 27.49382,-1.279493 c 8.45603,-0.705599 11.11977,-1.112769 11.09485,-1.69592 -0.0221,-0.517431 -7.96471,-6.067422 -9.75154,-6.814007 -2.13386,-0.891584 -4.27418,-0.473421 -5.63512,1.100959 -1.28397,1.485332 -2.06186,4.192094 -1.69613,5.901894 0.37257,1.741742 0.81272,2.112316 2.25603,1.899384 0.69436,-0.102439 2.37372,-0.278978 3.73191,-0.39231 z m 15.52222,-10.64364 c 5.30769,-2.883706 6.87917,-3.871427 6.87917,-4.323752 0,-0.610189 -8.54798,-2.114471 -12.09257,-2.128061 l -1.68562,-0.0065 0.2154,4.321527 c 0.11846,2.37684 0.28302,4.536436 0.36567,4.799102 0.19791,0.628905 0.47522,0.512046 6.31795,-2.662353 z m -18.4726,-0.386182 c -0.25451,-0.08484 -0.63047,0.01348 -0.83547,0.21848 -0.26179,0.261785 -0.12405,0.307697 0.46274,0.154248 0.47703,-0.124746 0.63694,-0.284657 0.37273,-0.372728 z M -7.7129314,26.759944 c 0.46636,-4.603879 2.30769,-10.607745 4.8822,-15.918951 2.19628,-4.5309229 10.61235,-17.233783 13.9360704,-21.034518 5.77007,-6.598192 10.07631,-9.136985 20.37268,-12.010947 21.3585,-5.96167 30.77425,-9.495718 42.50971,-15.955335 4.48091,-2.46645 13.95382,-8.860258 15.94333,-10.761059 0.25346,-0.24216 2.12771,-1.887451 4.16501,-3.6562 4.51124,-3.9166 5.87395,-5.359174 12.032941,-12.738127 1.67922,-2.011842 4.61462,-6.812929 4.44141,-7.264305 -0.18749,-0.488587 -4.73553,-2.043412 -11.517741,-3.937537 -1.83351,-0.512061 -4.29413,-1.335929 -5.46805,-1.830819 -1.17392,-0.494889 -4.6744,-1.847316 -7.77884,-3.005392 -9.58953,-3.577261 -8.2847,-3.601021 2.69508,-0.04908 3.81064,1.232733 8.97001,2.725722 11.46528,3.317753 2.495271,0.59203 4.920611,1.171108 5.389641,1.286838 0.72721,0.179436 0.64929,0.02939 -0.52917,-1.019022 -1.71787,-1.528296 -6.613691,-5.09165 -11.259721,-8.195222 -8.99536,-6.008953 -22.04357,-10.833686 -32.0805,-11.862152 -5.28549,-0.541596 -18.09688,-0.262195 -24.15688,0.526833 -6.46745,0.842077 -12.90461,2.169725 -18.88609,3.895204 -7.89295,2.276882 -7.86449,2.206074 -0.90014,2.239701 6.15992,0.02974 15.02046,0.538099 17.28982,0.991971 1.00953,0.201907 1.08959,0.282003 0.50895,0.509148 -0.53286,0.208453 -0.40918,0.277601 0.54568,0.305072 2.07519,0.0597 0.50638,0.576152 -3.70417,1.219403 -4.1,0.626361 -10.68863,2.195056 -13.93472,3.317733 -3.14849,1.088922 -17.4757804,8.275606 -22.4400304,11.256102 -5.57666,3.348175 -10.4905796,6.839869 -14.9544096,10.626175 -4.84816,4.112296 -8.67317,7.70941 -8.44716,7.94387 0.10774,0.111773 2.45106,-0.263565 5.20736,-0.834083 2.75631,-0.570518 6.95441,-1.285727 9.32911,-1.589353 3.9492796,-0.504951 11.4257196,-1.728834 13.1370796,-2.150523 0.38805,-0.09562 -0.74368,0.593589 -2.51496,1.531575 -5.25607,2.783361 -7.47368,4.776042 -10.6074796,9.531571 -4.9649,7.534244 -7.61815,18.122465 -7.66765,30.599092 -0.0381,9.5957802 0.72119,14.264333 1.36085,8.3675486 0.40412,-3.7254436 1.54354,-9.1702466 2.72268,-13.0104976 0.61667,-2.008402 1.18267,-3.590195 1.25777,-3.515095 0.0751,0.0751 -0.26001,1.703258 -0.74469,3.618128 -1.89411,7.483183 -2.46394,11.599228 -2.48441,17.9454705 -0.0206,6.3827006 0.34352,8.9127096 2.15771,14.9930545 1.25796,4.216146 3.44516,9.87023 4.88993,12.640873 l 1.22656,2.352181 -0.16984,-1.5875 c -0.0934,-0.873125 -0.35429,-3.052088 -0.57973,-4.842141 -0.5109,-4.056749 -0.22834,-12.4091599 0.53863,-15.9216569 1.7015596,-7.7926665 6.4604996,-17.2643481 12.4325996,-24.7445311 4.3424,-5.438948 11.6851704,-12.584408 16.8282604,-16.376052 2.38919,-1.761386 0.91626,0.126778 -2.62752,3.368239 -6.1215904,5.599357 -13.2511504,14.395435 -17.6402604,21.763612 -6.57079,11.0306564 -9.1222296,23.174068 -7.72202,36.75253 0.61539,5.967743 1.1403,6.953463 1.54984,2.910417 z M -15.265041,-26.77408 c 0,-0.09701 0.0794,-0.176389 0.17639,-0.176389 0.097,0 0.17639,0.07937 0.17639,0.176389 0,0.09701 -0.0794,0.176389 -0.17639,0.176389 -0.097,0 -0.17639,-0.07937 -0.17639,-0.176389 z m 93.83888,-57.502773 c 0,-0.09701 0.0794,-0.176389 0.17639,-0.176389 0.097,0 0.17639,0.07937 0.17639,0.176389 0,0.09701 -0.0794,0.176389 -0.17639,0.176389 -0.097,0 -0.17639,-0.07937 -0.17639,-0.176389 z m -41.27499,-4.938888 c 0,-0.09701 0.0794,-0.176389 0.17639,-0.176389 0.097,0 0.17639,0.07937 0.17639,0.176389 0,0.09701 -0.0794,0.176388 -0.17639,0.176388 -0.097,0 -0.17639,-0.07937 -0.17639,-0.176388 z M 188.01973,24.202305 c 6.6519,-8.314295 19.29156,-19.0748489 30.46848,-25.9388055 5.82684,-3.5783746 7.57561,-4.770396 7.78004,-5.3031467 0.25299,-0.659276 -0.73196,-1.7549082 -4.81942,-5.3610118 -4.2126,-3.716511 -10.50793,-7.771987 -17.10972,-11.022152 -8.70432,-4.285275 -16.11423,-7.021553 -25.75277,-9.5098 -5.44336,-1.405234 -14.82062,-3.127335 -15.16327,-2.784682 -0.10607,0.106071 0.65225,1.606063 1.68517,3.333313 8.82953,14.764851 14.12882,30.6077194 17.11315,51.161842 0.39819,2.742472 0.9088,4.967505 1.2526,5.458356 0.31922,0.455748 0.58257,1.229873 0.58522,1.720277 0.003,0.490404 0.10375,1.26112 0.22467,1.712702 0.25833,0.964698 -0.006,1.209716 3.73585,-3.466892 z M 31.163959,15.402078 c 1.64736,-0.728706 3.31267,-1.988127 3.31267,-2.505271 0,-0.13552 -0.8204,-0.32523 -1.82311,-0.421578 -1.00272,-0.09635 -1.9949,-0.398087 -2.20487,-0.670531 -1.64618,-2.1360689 -4.21234,-2.6774809 -5.68945,-1.200372 -0.47625,0.47625 -0.86591,1.059548 -0.86591,1.296217 0,0.236668 -0.39129,0.06271 -0.86953,-0.386575 -1.26436,-1.187809 -3.71152,-6.2690949 -4.00239,-8.3105739 l -0.25009,-1.755254 -2.73066,-0.103034 c -2.41701,-0.0912 -2.73495,-0.03042 -2.76804,0.529167 -0.0888,1.502631 0.16017,2.917636 0.95918,5.450391 1.26807,4.0196269 3.87435,6.7138129 8.18455,8.4606199 2.18087,0.883849 6.29022,0.703832 8.74765,-0.383206 z M 179.68569,-40.56289 c 1.8952,-4.055629 3.40299,-8.480791 4.19668,-12.316743 0.80824,-3.906262 1.56382,-10.523313 1.24122,-10.870031 -0.32102,-0.345018 -6.62173,6.351284 -9.23206,9.811698 -1.02454,1.358194 -2.16306,2.786944 -2.53004,3.174999 -0.36698,0.388056 -1.62868,1.896181 -2.80377,3.351389 -1.17508,1.455208 -3.16939,3.707855 -4.43178,5.005881 -2.17045,2.231707 -2.24897,2.369644 -1.44382,2.536491 0.46829,0.09704 2.75644,0.509887 5.08477,0.917431 2.32834,0.407543 5.02709,0.96197 5.99722,1.232059 0.97014,0.27009 1.89379,0.501787 2.05256,0.514882 0.15876,0.0131 0.99982,-1.498029 1.86902,-3.358056 z m -17.47491,-0.513285 c 6.9648,-3.553175 12.67139,-19.327181 12.67139,-35.025918 0,-5.857653 -1.0784,-14.701148 -1.79271,-14.701148 -0.34927,0 -2.4266,2.7656 -4.37219,5.820833 -2.32524,3.651388 -5.80529,11.095654 -6.91556,14.793219 -0.58648,1.953173 -1.54912,5.138723 -2.13919,7.079001 -1.26305,4.153199 -3.97769,9.974377 -5.70938,12.243022 l -1.22677,1.607152 2.29774,2.599912 c 1.26376,1.429952 2.95266,3.43335 3.75312,4.451996 0.80045,1.018645 1.58285,1.852083 1.73865,1.852083 0.15581,0 0.91851,-0.324068 1.6949,-0.720152 z m -10.37676,-9.745588 c -0.12935,-0.129352 -0.34101,-0.129352 -0.47037,0 -0.12935,0.129352 -0.0235,0.235185 0.23519,0.235185 0.2587,0 0.36454,-0.105833 0.23518,-0.235185 z m -0.58796,-0.646759 c 0,-0.09701 -0.0794,-0.176389 -0.17639,-0.176389 -0.097,0 -0.17639,0.07937 -0.17639,0.176389 0,0.09701 0.0794,0.176389 0.17639,0.176389 0.097,0 0.17639,-0.07937 0.17639,-0.176389 z m 2.69839,-2.469444 c 0.80503,-1.56702 0.82314,-1.676944 0.16222,-0.98489 -0.40917,0.428449 -0.74394,0.99342 -0.74394,1.25549 0,0.26207 -0.23308,0.784646 -0.51795,1.161279 -0.28487,0.376633 -0.52056,0.843537 -0.52376,1.037565 -0.008,0.47578 0.53308,-0.347036 1.62343,-2.469444 z m -4.19769,1.105051 c -0.53358,-0.458901 -0.97014,-0.95644 -0.97014,-1.105644 0,-0.149203 -0.40581,-0.647371 -0.9018,-1.10704 -0.496,-0.459669 -0.80525,-0.991992 -0.68724,-1.18294 0.12693,-0.205372 -0.0327,-0.252296 -0.39079,-0.11488 -0.44322,0.17008 -0.52802,0.107156 -0.31659,-0.234937 0.19299,-0.312264 0.15255,-0.383049 -0.12193,-0.213414 -0.22588,0.139601 -0.82744,-0.074 -1.3368,-0.47466 -0.50936,-0.400664 -0.78564,-0.730911 -0.61396,-0.733883 0.17169,-0.003 0.074,-0.15929 -0.217,-0.347375 -0.29105,-0.188086 -0.36067,-0.344405 -0.15472,-0.347376 0.20595,-0.003 0.71525,0.312098 1.13178,0.700153 1.23815,1.153519 1.37073,0.800577 0.14824,-0.394637 -1.182,-1.155629 -1.34441,-1.544971 -0.78793,-1.888896 0.18555,-0.114678 0.23795,-0.467589 0.11644,-0.784247 -0.13968,-0.363982 -0.0802,-0.48877 0.16166,-0.339282 0.21043,0.130052 0.47553,0.03703 0.58912,-0.206712 0.1649,-0.353865 0.24799,-0.354308 0.4123,-0.0022 0.27287,0.584704 1.17828,0.538542 2.26366,-0.115411 l 0.88195,-0.531382 -0.88195,0.239516 c -0.48507,0.131734 -1.12007,0.309837 -1.41111,0.395786 -0.29104,0.08595 -0.0529,-0.252548 0.52917,-0.752215 0.58208,-0.499666 1.22452,-0.909272 1.42765,-0.910236 0.20313,-9.63e-4 1.4618,-0.719295 2.79705,-1.596291 1.33525,-0.876997 2.51843,-1.45019 2.62929,-1.273762 0.11086,0.176427 0.43449,0.07 0.71917,-0.236502 0.45875,-0.493906 0.44872,-0.530843 -0.0882,-0.324809 -0.81047,0.311005 -0.76449,0.06595 0.23796,-1.268231 0.46408,-0.617644 1.19214,-1.996115 1.61792,-3.063267 1.25149,-3.13667 1.72507,-4.091206 1.74908,-3.525449 0.0124,0.292323 -0.1251,1.046385 -0.30559,1.675694 -0.18191,0.634288 -0.19116,1.144199 -0.0208,1.144199 0.16907,0 0.45849,-0.674687 0.64315,-1.499305 0.30489,-1.361444 0.34297,-1.401991 0.41417,-0.440972 0.0431,0.582083 0.0446,1.375833 0.003,1.763888 -0.0413,0.388056 0.0287,0.603987 0.15569,0.479847 0.12694,-0.12414 0.27147,-0.607105 0.32117,-1.073256 0.0497,-0.466151 0.22042,-1.05799 0.37938,-1.315197 0.15897,-0.257207 0.28431,-3.901742 0.27854,-8.098965 -0.0101,-7.35591 -0.0491,-7.777727 -1.08134,-11.68826 -1.58986,-6.0232 -3.77184,-11.209545 -6.36428,-15.127215 l -1.28001,-1.93434 -0.0886,1.21064 c -1.14031,15.582163 -2.02603,21.546317 -4.89436,32.957105 -1.64986,6.563439 -3.45891,11.921656 -4.92929,14.600046 -0.46611,0.849057 -0.84748,1.596277 -0.84748,1.660489 0,0.06421 1.15094,1.034845 2.55764,2.156962 1.4067,1.122116 2.79576,2.279896 3.0868,2.572844 1.36454,1.373473 3.89287,3.531199 4.13726,3.530812 0.14986,-2.37e-4 -0.1641,-0.375895 -0.69767,-0.834795 z m -6.61459,-6.396718 c 0,-0.09701 0.0794,-0.176389 0.17639,-0.176389 0.097,0 0.17639,0.07937 0.17639,0.176389 0,0.09701 -0.0794,0.176389 -0.17639,0.176389 -0.097,0 -0.17639,-0.07937 -0.17639,-0.176389 z m -0.58796,-0.764352 c 0.12935,-0.129351 0.34102,-0.129351 0.47037,0 0.12935,0.129352 0.0235,0.235186 -0.23518,0.235186 -0.25871,0 -0.36454,-0.105834 -0.23519,-0.235186 z m -0.99954,-0.47037 c 0.11992,-0.194028 0.28804,-0.352778 0.3736,-0.352778 0.0856,0 0.15557,0.15875 0.15557,0.352778 0,0.194028 -0.16812,0.352778 -0.3736,0.352778 -0.20548,0 -0.27548,-0.15875 -0.15557,-0.352778 z m 1.94028,0 c 0,-0.194028 0.16812,-0.352778 0.3736,-0.352778 0.20548,0 0.27548,0.15875 0.15557,0.352778 -0.11992,0.194028 -0.28804,0.352778 -0.3736,0.352778 -0.0856,0 -0.15557,-0.15875 -0.15557,-0.352778 z m -0.70555,-0.529166 c 0,-0.09701 0.0794,-0.176389 0.17638,-0.176389 0.097,0 0.17639,0.07937 0.17639,0.176389 0,0.09701 -0.0794,0.176388 -0.17639,0.176388 -0.097,0 -0.17638,-0.07937 -0.17638,-0.176388 z m -0.52917,-0.529167 c 0.11991,-0.194028 0.2974,-0.352778 0.39442,-0.352778 0.097,0 0.0783,0.15875 -0.0416,0.352778 -0.11992,0.194028 -0.29741,0.352778 -0.39442,0.352778 -0.097,0 -0.0783,-0.15875 0.0416,-0.352778 z m 1.23472,0.176389 c 0,-0.09701 0.0794,-0.176389 0.17639,-0.176389 0.097,0 0.17639,0.07937 0.17639,0.176389 0,0.09701 -0.0794,0.176389 -0.17639,0.176389 -0.097,0 -0.17639,-0.07937 -0.17639,-0.176389 z m 0.35278,-0.705556 c 0,-0.09701 0.0794,-0.176389 0.17639,-0.176389 0.097,0 0.17639,0.07937 0.17639,0.176389 0,0.09701 -0.0794,0.176389 -0.17639,0.176389 -0.097,0 -0.17639,-0.07937 -0.17639,-0.176389 z m 0,-3.174999 c 0,-0.09701 0.0794,-0.176389 0.17639,-0.176389 0.097,0 0.17639,0.07938 0.17639,0.176389 0,0.09701 -0.0794,0.176388 -0.17639,0.176388 -0.097,0 -0.17639,-0.07937 -0.17639,-0.176388 z m 0.35278,-0.705556 c 0,-0.09701 0.0794,-0.176389 0.17639,-0.176389 0.097,0 0.17638,0.07937 0.17638,0.176389 0,0.09701 -0.0794,0.176389 -0.17638,0.176389 -0.097,0 -0.17639,-0.07938 -0.17639,-0.176389 z m 0.35277,-0.705555 c 0,-0.09701 0.0794,-0.176389 0.17639,-0.176389 0.097,0 0.17639,0.07937 0.17639,0.176389 0,0.09701 -0.0794,0.176388 -0.17639,0.176388 -0.097,0 -0.17639,-0.07937 -0.17639,-0.176388 z m 14.46389,-8.643055 c 0,-0.258704 0.10583,-0.364537 0.23519,-0.235185 0.12935,0.129351 0.12935,0.341018 0,0.47037 -0.12936,0.129352 -0.23519,0.02352 -0.23519,-0.235185 z m 0.35278,-4.056944 c 0,-0.09701 0.0794,-0.176389 0.17639,-0.176389 0.097,0 0.17639,0.07937 0.17639,0.176389 0,0.09701 -0.0794,0.176388 -0.17639,0.176388 -0.097,0 -0.17639,-0.07937 -0.17639,-0.176388 z m 0,-0.881945 c 0,-0.258703 0.10583,-0.364537 0.23518,-0.235185 0.12936,0.129352 0.12936,0.341019 0,0.47037 -0.12935,0.129352 -0.23518,0.02352 -0.23518,-0.235185 z m 0,-0.881944 c 0,-0.09701 0.0794,-0.176389 0.17639,-0.176389 0.097,0 0.17639,0.07938 0.17639,0.176389 0,0.09701 -0.0794,0.176389 -0.17639,0.176389 -0.097,0 -0.17639,-0.07937 -0.17639,-0.176389 z m 0,-2.822222 c 0,-0.09701 0.0794,-0.176389 0.17639,-0.176389 0.097,0 0.17639,0.07937 0.17639,0.176389 0,0.09701 -0.0794,0.176389 -0.17639,0.176389 -0.097,0 -0.17639,-0.07937 -0.17639,-0.176389 z m -4.23333,27.869442 c 0,-0.09701 -0.0794,-0.176389 -0.17639,-0.176389 -0.097,0 -0.17639,0.07938 -0.17639,0.176389 0,0.09701 0.0794,0.176389 0.17639,0.176389 0.097,0 0.17639,-0.07937 0.17639,-0.176389 z m 0.23518,-1.11713 c -0.12935,-0.129351 -0.23518,-0.02352 -0.23518,0.235186 0,0.258703 0.10583,0.364537 0.23518,0.235185 0.12935,-0.129352 0.12935,-0.341019 0,-0.470371 z m -0.94074,0.0588 c 0,-0.09701 -0.0794,-0.176389 -0.17639,-0.176389 -0.097,0 -0.17639,0.07937 -0.17639,0.176389 0,0.09701 0.0794,0.176389 0.17639,0.176389 0.097,0 0.17639,-0.07937 0.17639,-0.176389 z m 1.76389,-1.058333 c 0,-0.09701 -0.0794,-0.176389 -0.17639,-0.176389 -0.097,0 -0.17639,0.07937 -0.17639,0.176389 0,0.09701 0.0794,0.176388 0.17639,0.176388 0.097,0 0.17639,-0.07937 0.17639,-0.176388 z m 1.42222,-3.809514 c 0.62671,-1.875935 0.70822,-2.490727 0.37417,-2.822222 -0.33347,-0.330921 -0.37257,-0.280693 -0.17839,0.229146 0.14321,0.375991 0.0738,0.761091 -0.16375,0.907871 -0.22684,0.140199 -0.47321,0.56074 -0.54747,0.934535 -0.0743,0.373796 -0.24405,1.155878 -0.3773,1.737962 -0.13326,0.582083 -0.31448,1.375833 -0.40273,1.763888 -0.31468,1.383836 0.47263,-0.288194 1.29547,-2.75118 z m -1.775,0.987292 c 0,-0.09701 -0.0794,-0.176389 -0.17639,-0.176389 -0.097,0 -0.17639,0.07937 -0.17639,0.176389 0,0.09701 0.0794,0.176388 0.17639,0.176388 0.097,0 0.17639,-0.07937 0.17639,-0.176388 z m -14.72741,-3.726369 c 3.34094,-8.469708 2.48346,-18.579628 -2.56311,-30.219871 -2.49838,-5.762692 -4.37439,-9.073082 -7.17821,-12.666602 l -2.16599,-2.77604 -0.17639,12.170829 -0.17639,12.170832 -0.64264,-2.469444 c -0.80206,-3.081996 -2.89636,-7.592684 -4.98158,-10.7293 -3.01282,-4.531937 -8.68371,-9.218917 -15.01327,-12.408457 -3.53713,-1.7824 -9.571631,-3.96645 -10.450681,-3.78239 -0.35751,0.0749 0.28934,1.12262 2.06343,3.34232 6.862441,8.5861 14.042561,24.461651 15.505421,34.283145 l 0.38598,2.59143 3.26637,1.516026 c 5.17964,2.404033 13.12839,7.169785 18.68939,11.205407 2.02115,1.46675 1.96626,1.502319 3.43767,-2.227885 z m -2.20592,1.96248 c 0,-0.09701 0.0794,-0.176389 0.17639,-0.176389 0.097,0 0.17639,0.07937 0.17639,0.176389 0,0.09701 -0.0794,0.176389 -0.17639,0.176389 -0.097,0 -0.17639,-0.07937 -0.17639,-0.176389 z m 17.63889,0.705555 c 0,-0.09701 -0.0794,-0.176389 -0.17639,-0.176389 -0.097,0 -0.17639,0.07937 -0.17639,0.176389 0,0.09701 0.0794,0.176389 0.17639,0.176389 0.097,0 0.17639,-0.07937 0.17639,-0.176389 z m -0.21818,-1.076655 c 0.12048,-0.313946 0.0613,-0.45555 -0.13864,-0.331958 -0.19181,0.118542 -0.34874,0.364912 -0.34874,0.547489 0,0.507447 0.25286,0.395627 0.48738,-0.215531 z m -0.1346,-1.040011 c 0,-0.09701 -0.0794,-0.176389 -0.17639,-0.176389 -0.097,0 -0.17639,0.07937 -0.17639,0.176389 0,0.09701 0.0794,0.176389 0.17639,0.176389 0.097,0 0.17639,-0.07937 0.17639,-0.176389 z m -2.6365,-1.166591 c -0.10861,-0.108616 -0.39327,-2.24e-4 -0.63257,0.240871 -0.34582,0.348409 -0.3053,0.38893 0.19748,0.197483 0.34792,-0.132479 0.54371,-0.329738 0.43509,-0.438354 z m 4.99415,-0.487055 c -0.11261,-0.281422 -0.19621,-0.197829 -0.21313,0.213137 -0.0153,0.371886 0.0681,0.580246 0.18528,0.46302 0.11723,-0.117225 0.12976,-0.421495 0.0279,-0.676157 z m 0.34698,-1.227372 c -0.12935,-0.129352 -0.23519,-0.02352 -0.23519,0.235185 0,0.258703 0.10584,0.364537 0.23519,0.235185 0.12935,-0.129352 0.12935,-0.341019 0,-0.47037 z m -3.175,-0.352778 c -0.12935,-0.129352 -0.34102,-0.129352 -0.47037,0 -0.12935,0.129352 -0.0235,0.235185 0.23518,0.235185 0.25871,0 0.36454,-0.105833 0.23519,-0.235185 z m 3.52778,-1.411111 c -0.12936,-0.129352 -0.23519,-0.02352 -0.23519,0.235185 0,0.258704 0.10583,0.364537 0.23519,0.235185 0.12935,-0.129352 0.12935,-0.341018 0,-0.47037 z m -1.99908,-0.999537 c 0,-0.09701 -0.0794,-0.176389 -0.17639,-0.176389 -0.097,0 -0.17638,0.07937 -0.17638,0.176389 0,0.09701 0.0794,0.176389 0.17638,0.176389 0.097,0 0.17639,-0.07937 0.17639,-0.176389 z m 2.11667,-0.352778 c 0,-0.09701 -0.0794,-0.176389 -0.17639,-0.176389 -0.097,0 -0.17639,0.07937 -0.17639,0.176389 0,0.09701 0.0794,0.176389 0.17639,0.176389 0.097,0 0.17639,-0.07937 0.17639,-0.176389 z m -44.80799,-5.732638 c -0.015,-0.763201 -1.20489,-5.260903 -2.16983,-8.202083 -3.20651,-9.773573 -10.4882,-19.383019 -18.737601,-24.727489 -9.21738,-5.97159 -26.60546,-7.98937 -42.00765,-4.87474 -1.91248,0.38674 -3.97432,0.906 -4.58187,1.1539 l -1.10464,0.45074 1.75966,1.00364 c 7.08275,4.03973 11.88986,7.28772 14.88996,10.06062 0.94467,0.87312 1.9689,1.789215 2.27606,2.035759 0.30717,0.246544 3.00342,1.062966 5.99168,1.814271 11.38165,2.861571 20.64363,7.500824 31.983351,16.020206 2.57051,1.931189 4.14683,2.798335 7.23194,3.978331 4.23951,1.621532 4.47688,1.689884 4.46894,1.286845 z M 9.6419886,-84.986982 c 4.5674204,-1.710697 8.6672404,-2.63586 11.6936604,-2.638785 1.40671,-0.0014 2.55764,-0.155071 2.55764,-0.341582 0,-0.467433 -2.9562,-1.3026 -6.38579,-1.804073 -3.36135,-0.491493 -8.4848304,-0.258872 -11.3098304,0.513501 -2.8146,0.769527 -6.99882,2.698044 -6.99882,3.225768 0,0.258216 1.2151,0.762723 2.91042,1.208406 1.60073,0.420816 3.06916,0.822549 3.26319,0.892741 0.68458,0.247655 0.99184,0.171661 4.26953,-1.055976 z m 17.4263004,-3.523201 c 0,-0.09701 -0.0794,-0.176389 -0.17639,-0.176389 -0.097,0 -0.17638,0.07937 -0.17638,0.176389 0,0.09701 0.0794,0.176389 0.17638,0.176389 0.097,0 0.17639,-0.07937 0.17639,-0.176389 z m 1.85209,-0.05725 c -0.24254,-0.09786 -0.63941,-0.09786 -0.88195,0 -0.24253,0.09786 -0.0441,0.177936 0.44097,0.177936 0.48507,0 0.68351,-0.08007 0.44098,-0.177936 z m 1.20532,-0.354325 c -0.12935,-0.129352 -0.34102,-0.129352 -0.47037,0 -0.12935,0.129352 -0.0235,0.235185 0.23519,0.235185 0.2587,0 0.36453,-0.105833 0.23518,-0.235185 z m 0.82315,0.0588 c 0,-0.09701 -0.0794,-0.176389 -0.17639,-0.176389 -0.097,0 -0.17639,0.07937 -0.17639,0.176389 0,0.09701 0.0794,0.176389 0.17639,0.176389 0.097,0 0.17639,-0.07937 0.17639,-0.176389 z m -2.82222,-0.352777 c 0,-0.09701 -0.0794,-0.176389 -0.17639,-0.176389 -0.097,0 -0.17639,0.07937 -0.17639,0.176389 0,0.09701 0.0794,0.176388 0.17639,0.176388 0.097,0 0.17639,-0.07937 0.17639,-0.176388 z m 1.05833,-0.176389 c 0,-0.194028 -0.15875,-0.352778 -0.35278,-0.352778 -0.19403,0 -0.35278,0.15875 -0.35278,0.352778 0,0.194027 0.15875,0.352777 0.35278,0.352777 0.19403,0 0.35278,-0.15875 0.35278,-0.352777 z m -1.76389,-0.176389 c 0,-0.09701 -0.0794,-0.176389 -0.17639,-0.176389 -0.097,0 -0.17639,0.07937 -0.17639,0.176389 0,0.09701 0.0794,0.176389 0.17639,0.176389 0.097,0 0.17639,-0.07937 0.17639,-0.176389 z"
       id="path78" /></g></svg>
