<?xml version="1.0" encoding="UTF-8" standalone="no"?>
<!-- Created with Inkscape (http://www.inkscape.org/) -->

<svg
   width="191.55489mm"
   height="210.46101mm"
   viewBox="0 0 191.55489 210.46098"
   version="1.1"
   id="svg1"
   xml:space="preserve"
   xmlns="http://www.w3.org/2000/svg"
   xmlns:svg="http://www.w3.org/2000/svg"><defs
     id="defs1"><clipPath
       clipPathUnits="userSpaceOnUse"
       id="clipPath6"><path
         id="path7"
         style="fill:#ff0000;fill-opacity:1;fill-rule:nonzero;stroke:none;stroke-width:0.264583"
         d="M -175.07778,-16.057127 V 287.55793 H 124.54631 V -16.057127 Z m 132.7459,202.572647 c 0.210643,0.005 0.427212,0.0169 0.650089,0.0367 2.23823,0.19855 4.475655,0.4031 6.717938,0.55346 1.973313,0.11308 0.986628,0.0436 2.958475,0.20825 3.181295,0.26563 4.740125,1.85116 4.950601,3.46956 4.949923,1.63749 3.796379,7.35609 -2.592089,6.81354 -3.228716,-0.27422 -1.569593,-0.1301 -4.979024,-0.43357 -4.228209,-0.39317 -8.460616,-0.76265 -12.666927,-1.35341 -6.647387,-0.93358 -5.930551,-7.21034 0.03204,-7.20421 0.04685,5e-5 0.0972,0.004 0.144695,0.005 0.687229,-1.21692 2.304132,-2.15435 4.784204,-2.09548 z" /></clipPath></defs><g
     id="layer1"
     transform="translate(88.301192,25.914201)"><path
       style="fill:#000000"
       d="m 31.04949,183.73298 c -0.74475,-0.61308 -1.22048,-0.75594 -1.87915,-0.56433 -0.48507,0.14111 -1.56385,0.27239 -2.39728,0.29174 -2.94653,0.0684 -4.30605,-2.88563 -2.38098,-5.17344 0.82108,-0.97579 0.83636,-1.07366 0.29337,-1.87915 -0.31505,-0.46736 -0.58948,-0.87992 -0.60985,-0.91679 -0.0455,-0.0824 -20.58654,-2.57879 -21.21887,-2.57879 -0.24931,0 -0.96801,1.04555 -1.59712,2.32345 -0.64195005,1.30399 -1.65080005,2.71014 -2.29925,3.20474 -1.28406,0.9794 -3.92298,1.88014 -5.50829,1.88014 -0.62455,0 -1.27132,0.29319 -1.63354,0.74052 -0.81688,1.0088 -3.46837,1.30193 -4.97554,0.55006 -1.04282,-0.52022 -1.20459,-0.51121 -2.40879,0.13421 -0.77531,0.41553 -1.9762,0.69188 -3.00668,0.69188 -1.45025,0 -1.86825,-0.16323 -2.7011,-1.05481 -0.93215,-0.99786 -1.07508,-1.03804 -2.64794,-0.74419 -1.83818,0.34341 -3.72683,-0.0226 -4.41872,-0.85625 -0.27159,-0.32725 -0.364,-1.07047 -0.24418,-1.96384 0.15021,-1.1199 0.0435,-1.58662 -0.48317,-2.11329 -1.31337,-1.31337 -0.44412,-3.57579 1.82464,-4.74901 0.82022,-0.42415 1.02718,-0.76622 1.02718,-1.69773 0,-0.96036 -0.23351,-1.31767 -1.32111,-2.02148 -1.66557,-1.07783 -2.46519,-2.76795 -2.94639,-6.22764 -0.45816,-3.29408 -0.26315,-5.08192 1.27979,-11.73287 0.65268,-2.8134 1.43718,-6.6234 1.74332,-8.46667 0.30615,-1.84326 0.63839,-3.75956 0.7383,-4.25844 0.14264,-0.71221 -0.001,-0.99045 -0.67039,-1.29528 -0.80566,-0.36708 -0.94248,-0.24547 -2.51291,2.23359 -3.92918,6.20258 -8.81371,10.02016 -10.39019,8.12062 -0.2242,-0.27015 -0.56717,-2.37358 -0.76216,-4.6743 -0.43306,-5.10972 -1.77199,-13.18544 -2.2926,-13.8277 -0.0533,-0.0658 -0.6907,0.53769 -1.41644,1.34099 -1.08474,1.20068 -1.51332,1.44165 -2.40867,1.35429 l -1.08915,-0.10627 0.0906,-2.56879 c 0.083,-2.35333 -0.49562,-5.35116 -2.24482,-11.63051 -0.336,-1.2062 -0.60125,-0.97901 -1.4416,1.23472 -1.03097,2.71588 -1.4564,4.42789 -2.25065,9.05715 -0.78185,4.55694 -1.38239,5.62003 -3.26539,5.78038 -1.11014,0.0945 -1.51813,-0.11304 -3.06382,-1.55885 -3.98148,-3.72421 -8.6938,-13.57873 -11.02306,-23.05169 l -0.47301,-1.92371 -3.02451,-0.43663 c -6.29626,-0.90894 -11.18858,-3.91236 -11.2156,-6.88529 -0.0176,-1.938582 1.29296,-2.860738 5.15207,-3.625135 5.2194,-1.033838 6.78732,-2.006357 3.96287,-2.458005 -0.93994,-0.150303 -1.78777,-0.587381 -2.39007,-1.232146 -0.51337,-0.549568 -1.56835,-1.323138 -2.34438,-1.719042 -2.89228,-1.47553 -6.49623,-6.440183 -6.50544,-8.96163 -0.005,-1.337876 1.54955,-3.042338 3.0274,-3.319585 0.81993,-0.153818 2.41928,0.07531 4.84116,0.69356 3.94682,1.007531 5.86655,1.1547 6.52132,0.499931 0.71777,-0.717768 0.47565,-1.570469 -0.81139,-2.8575 -0.77792,-0.77792 -1.23472,-1.574061 -1.23472,-2.151944 0,-0.679606 -0.18134,-0.917222 -0.69999,-0.917222 -0.38499,0 -1.20316,-0.449582 -1.81814,-0.999072 -0.94743,-0.846527 -1.14353,-1.305033 -1.28433,-3.002944 -0.14541,-1.753433 -0.2716,-2.03033 -1.00966,-2.215572 -1.19477,-0.299867 -2.24343,-1.785666 -2.24343,-3.178598 0,-0.698245 -0.27757,-1.464716 -0.67399,-1.861139 -1.02232,-1.022317 -1.52871,-4.233263 -1.39003,-8.814035 0.10065,-3.324831 0.25872,-4.325872 0.84139,-5.328638 1.33924,-2.304781 4.49705,-3.09382 6.20302,-1.54994 0.36275,0.328286 1.30709,1.803509 2.09854,3.278273 0.79144,1.474764 2.01408,3.275458 2.71698,4.001542 l 1.27799,1.320153 1.01593,-3.43682 c 1.06977,-3.619002 3.07125,-8.195739 4.84418,-11.077119 0.58171,-0.9454 1.05765,-1.7959 1.05765,-1.889999 0,-0.0941 -1.5926,-0.17109 -3.53911,-0.17109 -4.02108,0 -5.75807,-0.525123 -6.40044,-1.934978 -0.33912,-0.744288 -0.31723,-1.012204 0.11827,-1.447704 0.29392,-0.293919 4.17176,-2.738457 8.61742,-5.432307 5.10398,-3.092753 8.02972,-5.068805 7.93838,-5.361598 -0.99652,-3.194509 0.46225,-6.125686 8.15641,-16.3890479 4.18255,-5.57916113 5.4096,-6.75761163 11.5674,-11.1092578 10.34564,-7.3111323 15.31381,-10.2151193 22.88084,-13.3742703 10.66733,-4.453487 19.74987,-6.615681 31.22763,-7.43406 14.95507,-1.066317 31.99478,2.910704 44.42458,10.368574 8.54564,5.127378 16.19127,11.9637356 19.57264,17.5009142 5.4389,8.9064908 5.90204,18.3687008 1.16325,23.7658828 l -1.12838,1.285157 0.73959,2.394539 c 1.19903,3.881987 1.28971,6.043446 0.36359,8.666772 -0.78184,2.21466 -0.78553,2.30033 -0.20838,4.837848 0.32315,1.420795 0.6839,4.38112 0.80166,6.578499 l 0.21411,3.995235 1.06602,-0.605794 c 1.96092,-1.114337 7.15665,-6.567832 9.37342,-9.838432 2.5108,-3.704415 3.4965,-4.503643 5.57029,-4.516525 1.75848,-0.01092 3.36322,1.297966 4.06088,3.312214 0.95292,2.751203 0.35261,9.169419 -1.37067,14.654697 -0.72544,2.309128 -1.18015,3.11602 -2.44075,4.331177 -0.85645,0.825577 -1.54922,1.8219 -1.54922,2.228053 0,1.818328 -2.06824,4.143585 -3.95378,4.445094 -1.16337,0.18603 -1.33788,0.337496 -1.33788,1.16118 0,1.011572 -1.41693,2.605817 -2.64584,2.976949 -0.38805,0.117193 -1.16919,0.79548 -1.73586,1.507304 l -1.03031,1.294226 3.67614,-0.226908 c 2.02188,-0.1248 5.01478,-0.469262 6.6509,-0.765471 2.92823,-0.530141 3.45886,-0.505957 5.42035,0.247045 1.05103,0.403479 2.01184,1.883115 2.01184,3.098192 0,2.540196 -5.32252,7.953006 -9.03205,9.185275 -0.602,0.199979 -1.27329,0.755882 -1.49174,1.235338 -0.32534,0.714044 -0.65054,0.87174 -1.79769,0.87174 -1.00163,0 -1.66917,0.248994 -2.34383,0.874248 l -0.94333,0.874248 0.94812,0.360474 c 0.52146,0.198261 1.10823,0.360474 1.30392,0.360474 0.1957,0 1.57442,0.407652 3.06384,0.905893 3.3616,1.124524 4.64831,2.250497 4.64831,4.067638 0,2.452423 -2.87677,3.891254 -10.61642,5.309849 -3.83612,0.70312 -4.51661,0.77904 -6.14052,0.68514 -0.38805,-0.0224 -1.30202,0.058 -2.03103,0.17868 -0.92351,0.15292 -1.58555,0.0491 -2.18305,-0.34242 -1.03179,-0.67606 -0.87496,-1.04237 -2.14283,5.00503 -1.27242,6.06909 -2.64188,10.08032 -5.28228,15.47216 -1.67623,3.42295 -2.7663,5.15945 -4.13774,6.5915 -2.26452,2.36462 -3.05857,2.65369 -4.29134,1.56225 -1.01385,-0.8976 -1.69533,-4.02839 -2.1721,-9.97878 -0.39608,-4.94336 -0.48147,-4.94739 -2.61043,-0.12302 l -1.89875,4.3027 0.67478,3.37822 c 0.37112,1.85802 0.63272,3.67994 0.58132,4.04872 -0.26491,1.90074 -2.91706,2.01482 -5.67639,0.24416 -2.1083,-1.3529 -2.40594,-1.35709 -2.69566,-0.038 -0.19068,0.86815 0.0881,1.58184 1.5878,4.06465 2.58446,4.2787 7.44677,10.4105 10.44005,13.16581 4.7458,4.36851 8.34633,6.02783 13.12046,6.04663 5.5265,0.0218 7.85558,-2.25381 8.90476,-8.70022 0.38966,-2.39419 0.80812,-2.92993 2.28853,-2.92993 1.4854,0 2.96759,1.62688 4.07155,4.46901 1.10434,2.84311 1.39037,10.47784 0.51983,13.87544 -2.55337,9.96548 -9.951,16.17193 -21.46503,18.00867 -2.67689,0.42702 -12.17493,0.27542 -14.9712,-0.23896 -1.02868,-0.18923 -1.14708,-0.1252 -1.15193,0.62288 -0.003,0.45859 -0.12526,1.0223 -0.27176,1.2527 -0.48083,0.7562 -2.11246,1.1455 -3.67404,0.87661 -1.3154,-0.2265 -1.56753,-0.16589 -1.89847,0.45637 -0.20989,0.39466 -0.56707,0.67787 -0.79375,0.62936 -0.22667,-0.0485 -0.41213,0.058 -0.41213,0.23656 0,0.75115 -2.08892,0.76513 -3.80826,0.0255 l -1.74767,-0.75183 -1.36195,0.72996 c -1.85949,0.99663 -4.03823,0.95935 -5.31408,-0.0909 z m 3.68966,-1.49416 c 0.43281,-0.30315 1.07398,-1.11072 1.42483,-1.7946 l 0.63791,-1.24342 1.89578,1.61821 c 1.04268,0.89001 2.24302,1.61821 2.66742,1.61821 1.10142,0 1.69026,-0.86593 1.43994,-2.11754 -0.11632,-0.58161 -0.14204,-1.05746 -0.0572,-1.05746 0.0849,0 1.03239,0.32852 2.10557,0.73005 1.9758,0.73924 3.3669,0.66498 3.3669,-0.17973 0,-0.25325 -0.68202,-1.08912 -1.51559,-1.85749 l -1.5156,-1.39702 0.70259,-0.94104 c 0.58511,-0.78368 0.72783,-1.6489 0.85352,-5.17429 0.1056,-2.96193 0.0331,-4.23326 -0.24139,-4.23326 -0.21578,0 -1.54503,0.30842 -2.9539,0.68537 -4.27338,1.14339 -8.97433,1.5435 -15.55609,1.32403 -3.33052,-0.11105 -7.02315,-0.41789 -8.20586,-0.68187 -1.52435,-0.34023 -2.32029,-0.37277 -2.73403,-0.1118 -0.88383,0.55751 -1.75193,-0.17703 -2.10095,-1.77768 -0.16529,-0.75808 -0.22917,-4.3152 -0.14196,-7.90472 0.15917,-6.55109 1.03318,-12.73754 2.61659,-18.52083 0.77632,-2.83544 2.94861,-8.0488 5.11525,-12.27625 0.97441,-1.90125 1.69584,-3.53264 1.60316,-3.62532 -0.37061,-0.37062 -3.07861,2.21728 -3.45552,3.30226 -0.43759,1.25967 -1.35297,2.00326 -2.94992,2.39632 -0.79152,0.19481 -0.95865,0.14801 -0.73924,-0.20701 0.17371,-0.28106 0.14409,-0.37257 -0.0765,-0.23626 -0.19799,0.12237 -0.28817,0.59809 -0.20042,1.05716 0.0937,0.49011 -0.0819,1.07612 -0.42528,1.41953 -0.32167,0.32167 -0.4747,0.58485 -0.34007,0.58485 0.13463,0 0.0412,0.24535 -0.20771,0.54522 -0.24887,0.29987 -0.66518,0.46361 -0.92514,0.36385 -0.25995,-0.0998 -0.47264,-0.0276 -0.47264,0.16034 0,0.50682 -2.38419,0.41475 -2.57041,-0.0993 -0.0879,-0.24253 0.0831,-0.71976 0.38002,-1.0605 0.69302,-0.79542 0.52086,-0.92554 -0.93216,-0.70448 -0.6728,0.10235 -1.00657,0.28844 -0.77455,0.43184 0.27516,0.17006 0.10311,0.5281 -0.52918,1.10124 -2.07008,1.87644 -2.2765,2.09739 -2.2765,2.43676 0,0.458 0.92005,0.45161 1.78708,-0.0124 0.3913,-0.20942 0.68236,-0.73609 0.68236,-1.23472 0,-0.47825 0.0664,-0.86954 0.14754,-0.86954 0.0811,0 0.39864,-0.0964 0.70555,-0.21413 0.88697,-0.34036 0.68832,1.06348 -0.32005,2.26187 -1.06674,1.26774 -2.60915,1.66203 -3.23918,0.82803 -0.2421,-0.32049 -0.36496,-0.83406 -0.27302,-1.14128 0.12611,-0.42138 -0.0892,-0.55856 -0.87676,-0.55856 -0.96206,0 -1.03681,0.0903 -0.95322,1.15172 0.0739,0.93886 -0.0764,1.22768 -0.81327,1.56266 -2.21637,1.00754 -2.62005,1.25145 -2.75717,1.66594 -0.24304,0.73469 3.21474,0.57675 3.86156,-0.17639 0.82896,-0.96519 1.06738,-1.93541 0.56122,-2.28381 -0.31931,-0.21979 -0.24478,-0.27908 0.25264,-0.20099 1.57121,0.24666 0.87296,2.89604 -0.92879,3.52414 -1.03263,0.35997 -1.03809,0.37491 -0.32073,0.87737 1.36805,0.95822 2.31297,3.49916 2.16884,5.83213 -0.0836,1.3526 -5.63653,6.27408 -7.07913005,6.27408 -0.83629,0 -4.92717995,-3.14161 -6.10967995,-4.69194 -1.2474,-1.63542 -1.34503,-4.58052 -0.21831,-6.58526 l 0.74138,-1.31909 -0.94949,-0.94949 c -0.52221,-0.52221 -0.8706,-1.15504 -0.77419,-1.40629 0.0964,-0.25124 -0.2465,-0.70661 -0.76203,-1.01194 -1.43567,-0.85028 -2.55296,-2.19297 -2.65996,-3.19657 -0.0531,-0.4983 -0.2735,-1.11916 -0.48972,-1.37968 -0.21794,-0.26261 -0.26678,-0.67808 -0.10961,-0.9324 0.22098,-0.35755 0.33269,-0.33056 0.5065,0.12239 0.33888,0.8831 0.91296,0.29409 0.83023,-0.85184 -0.0402,-0.55686 -0.18118,-0.94598 -0.3133,-0.86471 -0.13211,0.0813 -0.33992,-0.0136 -0.46179,-0.21076 -0.37205,-0.60199 -0.97834,-0.39886 -0.80362,0.26925 0.16552,0.63297 -0.46667,1.48889 -1.09972,1.48889 -0.50636,0 -1.80438,-1.76644 -1.80438,-2.45553 0,-0.32806 -0.41876,-0.98134 -0.93058,-1.45173 l -0.93058,-0.85524 0.19829,1.41111 c 1.02278,7.2787 3.60397,22.92312 4.4818,27.16389 1.84942,8.93446 2.35075,10.49866 3.82189,11.92467 1.69489,1.6429 4.33615,2.93616 7.72853995,3.78417 C 2.40385,170.66414 20.54623,172.9122 22.84133,172.9122 c 0.54412,0 0.64943,-0.2354 0.58574,-1.30931 -0.0579,-0.9758 0.0713,-1.34023 0.50705,-1.43069 0.43063,-0.0894 0.78549,0.41824 1.34682,1.92667 0.41917,1.12643 1.12682,2.7044 1.57256,3.50661 l 0.81044,1.45857 -1.02289,1.52304 c -1.2245,1.82324 -1.17062,2.57477 0.19581,2.73134 0.71176,0.0816 1.55574,-0.25856 2.84503,-1.14653 1.00818,-0.69436 1.94051,-1.26248 2.07183,-1.26248 0.13132,0 0.23876,0.62366 0.23876,1.38591 0,1.37195 0.69046,2.49464 1.53421,2.49464 0.23401,0 0.77958,-0.24802 1.21238,-0.55117 z M -12.45743,133.5775 c 0,-0.097 0.0794,-0.17639 0.17639,-0.17639 0.097,0 0.17638,0.0794 0.17638,0.17639 0,0.097 -0.0794,0.17639 -0.17638,0.17639 -0.097,0 -0.17639,-0.0794 -0.17639,-0.17639 z m -4.95252,46.57371 c 0.55531,-0.28717 1.33538,-0.9362 1.73347,-1.44229 l 0.72381,-0.92018 1.57815,1.13335 c 1.77772,1.27666 3.02967,1.25103 3.62098,-0.0742 0.28179,-0.63151 0.83366,-0.86403 2.86186,-1.20577 1.38202,-0.23286 2.96538,-0.74568 3.51858,-1.13959 0.8995,-0.6405 3.16555995,-4.1747 2.85689995,-4.45568 -0.0677,-0.0617 -1.34301995,-0.61703 -2.83392995,-1.23413 -1.49091,-0.61711 -3.39891,-1.72775 -4.23999,-2.4681 l -1.52924,-1.34609 -2.63917,0.69207 c -2.21659,0.58125 -3.4198,0.66446 -7.51432,0.51963 l -4.87513,-0.17244 0.0934,1.75961 c 0.0928,1.74778 0.0822,1.76655 -1.56306,2.79062 -2.30389,1.43398 -2.22712,1.90485 0.28383,1.74093 l 1.05833,-0.0691 -0.92703,1.00184 c -1.34525,1.45381 -1.7211,2.32017 -1.31858,3.03943 0.50987,0.91108 1.53455,0.7445 4.04037,-0.65683 l 2.26219,-1.26509 v 1.59266 c 0,0.97751 0.21412,1.80679 0.55436,2.14703 0.68618,0.68618 0.98149,0.69041 2.25423,0.0323 z m 86.54532,-3.30723 c 7.66576,-2.04977 13.51711,-7.24721 15.89388,-14.11768 0.85399,-2.46862 1.19266,-8.65625 0.61995,-11.32672 -0.2221,-1.03559 -0.73784,-2.61171 -1.14611,-3.50249 l -0.7423,-1.61959 -0.45824,2.36159 c -0.59857,3.08483 -1.39116,4.69362 -3.17301,6.4405 -2.84511,2.78928 -3.44713,3.03252 -7.52698,3.04118 -4.23273,0.009 -8.95043,-1.57186 -12.28954,-4.11808 -2.37605,-1.81183 -6.90643,-6.35323 -8.04211,-8.06165 -0.65087,-0.97911 -1.48316,-2.10086 -1.84953,-2.49277 -0.36638,-0.39191 -1.40837,-1.81897 -2.31553,-3.17123 -0.90717,-1.35227 -1.6494,-2.28974 -1.6494,-2.08326 0,0.20648 0.39688,1.54228 0.88195,2.96844 0.48506,1.42616 0.88194,2.80996 0.88194,3.07511 0,0.26515 0.47672,1.50174 1.05938,2.74797 1.68196,3.59749 2.18365,7.50868 1.16524,9.08419 -0.15592,0.24121 -0.28368,2.13229 -0.28392,4.20241 -3.8e-4,3.35258 -0.0828,3.85368 -0.75449,4.58611 -0.6914,0.75392 -0.74075,1.11549 -0.59381,4.35004 0.10954,2.41117 8.9e-4,4.11703 -0.34327,5.38944 -0.27694,1.02392 -0.4066,1.92121 -0.28813,1.99398 0.18577,0.11412 1.97772,0.46788 5.33067,1.05238 0.48507,0.0846 3.58069,0.10445 6.87916,0.0442 4.70118,-0.0859 6.59087,-0.26828 8.7442,-0.84407 z M 16.82312,164.97472 c 0,-1.55584 -0.11358,-1.94028 -0.57326,-1.94028 -0.45391,0 -0.52736,0.22953 -0.35278,1.10243 0.12127,0.60634 0.22048,1.47946 0.22048,1.94028 0,0.46081 0.15875,0.83785 0.35278,0.83785 0.19403,0 0.35278,-0.87313 0.35278,-1.94028 z m -29.46441,1.18339 c 0.12001,-0.12 0.12238,-0.59994 0.005,-1.06651 -0.20769,-0.8275 -0.29687,-0.84709 -3.63314,-0.7982 -1.88112,0.0276 -4.69023,-0.16484 -6.24245,-0.42755 -1.55222,-0.26272 -3.31964,-0.47788 -3.9276,-0.47815 -0.83537,-3.6e-4 -1.16766,-0.19437 -1.36031,-0.79423 -0.20749,-0.64602 -0.28477,-0.68326 -0.41523,-0.20007 -0.19544,0.72379 0.79043,2.72221 1.47194,2.98373 2.28724,0.8777 13.3899,1.49259 14.10151,0.78098 z m 36.80798,-0.76963 c 0.1026,-0.86666 0.01,-0.94293 -1.14653,-0.94293 -1.09724,0 -1.25815,0.10966 -1.25815,0.85741 0,0.60944 0.22956,0.90089 0.79375,1.00774 1.23885,0.23463 1.49107,0.0902 1.61093,-0.92222 z m 3.41515,0.47134 c 0.3263,-1.02809 -0.0644,-1.41427 -1.43093,-1.41427 -1.11359,0 -1.2139,0.0874 -1.2139,1.05833 0,0.97039 0.10063,1.05834 1.21095,1.05834 0.8993,0 1.26832,-0.18077 1.43388,-0.7024 z m 6.52739,-0.35392 v -1.05631 l -2.91042,0.0862 c -2.88848,0.0855 -2.91125,0.0935 -3.02204,1.05632 l -0.11163,0.97014 h 3.02205 3.02204 z m 3.88056,-0.39185 c 0,-0.89321 -0.1291,-1.02128 -1.02949,-1.02128 -1.54198,0 -2.14551,0.34141 -2.14551,1.21367 0,1.0649 0.103,1.12185 1.74556,0.96521 1.31016,-0.12494 1.42944,-0.22154 1.42944,-1.1576 z m -46.91945,0.919 c 0,-0.097 -0.0794,-0.17639 -0.17638,-0.17639 -0.097,0 -0.17639,0.0794 -0.17639,0.17639 0,0.097 0.0794,0.17639 0.17639,0.17639 0.097,0 0.17638,-0.0794 0.17638,-0.17639 z m -1.12199,-1.17416 c 0.0733,-0.49793 -0.0738,-0.76612 -0.42015,-0.76612 -0.68601,0 -1.04677,0.59095 -0.78199,1.28096 0.28728,0.74862 1.06526,0.41544 1.20214,-0.51484 z m 30.96946,0.43975 c -0.11778,-0.30691 -0.21413,-0.70378 -0.21413,-0.88194 0,-0.17816 -0.47625,-0.32393 -1.05834,-0.32393 -1.16819,0 -1.22473,0.0882 -0.69314,1.08153 0.46063,0.8607 2.29265,0.97659 1.96561,0.12434 z m 20.18456,-0.61278 c 0.10685,-0.9323 0.0407,-0.98739 -1.05834,-0.88194 -0.99078,0.095 -1.18995,0.26644 -1.28627,1.10688 -0.10685,0.9323 -0.0408,0.98739 1.05833,0.88194 0.99078,-0.0951 1.18995,-0.26644 1.28628,-1.10688 z m 2.96128,0.14903 c 0.39371,-0.35029 -0.10413,-1.80045 -0.6181,-1.80045 -1.06667,0 -1.57521,0.46992 -1.57521,1.45558 0,0.94095 0.0816,1.00809 0.97014,0.79865 0.53358,-0.12576 1.084,-0.32996 1.22317,-0.45378 z m 2.44669,-1.66568 c -0.15611,-1.29562 -0.19862,-1.32927 -1.08201,-0.85649 -0.41817,0.2238 -0.73577,0.74372 -0.73577,1.2045 0,1.07463 0.26769,1.2901 1.18115,0.95073 0.58367,-0.21684 0.73082,-0.51702 0.63663,-1.29874 z m -57.25306,0.10087 c 0.28744,-0.34634 0.27072,-0.63304 -0.0636,-1.09019 -0.39436,-0.53933 -0.50947,-0.5529 -0.88205,-0.10396 -0.42752,0.51512 -0.23158,1.66407 0.28378,1.66407 0.14951,0 0.44733,-0.21147 0.66183,-0.46992 z m 59.25355,-0.90357 c 0.0946,-0.98755 0.0142,-1.153 -0.46982,-0.96725 -0.32116,0.12324 -0.65032,0.22407 -0.73147,0.22407 -0.0811,0 -0.14753,0.48789 -0.14753,1.0842 0,1.59099 1.19266,1.28944 1.34882,-0.34102 z m -62.26137,0.40335 c 0.0878,-0.14552 -0.85987,-4.86636 -2.10594,-10.49074 -2.32355,-10.48778 -2.86935,-12.01136 -4.712,-13.15336 -0.5864,-0.36343 -0.75088,-0.36343 -0.86337,0 -0.0764,0.24693 -0.46511,1.56974 -0.86374,2.93959 -0.39863,1.36984 -1.19579,3.14084 -1.77147,3.93555 -2.58334,3.56619 -3.36519,5.94148 -4.021,12.21595 -0.0506,0.48468 0.40409,0.82816 1.7841,1.34758 1.82065,0.68527 2.61236,1.61234 1.05833,1.23929 -3.30642,-0.79374 -4.13237,-0.62914 -2.92109,0.58214 0.55963,0.55963 2.83314,0.89906 8.65373,1.29199 5.56853,0.37591 5.59094,0.37626 5.76245,0.092 z m -6.75718,-10.41851 c -0.20656,-0.24889 -0.5432,-0.89344 -0.74809,-1.43234 -0.20489,-0.53889 -0.5246,-0.88582 -0.71046,-0.77094 -0.18587,0.11487 -0.59484,-0.18321 -0.90882,-0.66241 -0.53245,-0.81262 -0.52295,-0.97957 0.14106,-2.48068 0.52259,-1.18141 0.91101,-1.60943 1.46051,-1.60943 1.44818,0 2.11331,0.64539 2.11331,2.05059 0,0.72611 0.21784,1.63334 0.48409,2.01606 0.26625,0.38272 0.58355,1.25148 0.70511,1.93058 l 0.22101,1.23472 -0.6735,-1.45896 c -0.37043,-0.80242 -0.84906,-1.56745 -1.06364,-1.70007 -0.21457,-0.13261 -0.28335,-0.4139 -0.15283,-0.62509 0.15495,-0.25071 -0.0267,-0.31493 -0.52341,-0.18504 -0.66916,0.17499 -0.76072,0.0543 -0.76072,-1.00276 0,-0.83299 -0.16236,-1.20169 -0.52917,-1.20169 -0.39285,0 -0.52916,0.41357 -0.52916,1.6055 0,1.48575 0.0876,1.6421 1.17461,2.09628 1.63392,0.6827 2.21715,1.4328 1.64761,2.11905 -0.53756,0.64772 -0.85841,0.66596 -1.34751,0.0766 z m 59.02667,9.74682 c 4.2363,-0.66683 8.73126,-2.02141 9.39553,-2.83138 0.43341,-0.52849 0.39294,-0.56071 -0.3997,-0.31815 -3.78675,1.15878 -4.58639,1.29613 -6.67143,1.14589 -6.61605,-0.47672 -14.60396,-7.85324 -16.59461,-15.32448 -0.76258,-2.86209 0.082,-2.33703 1.82471,1.13434 0.95131,1.89499 1.81466,3.36043 1.91856,3.25653 0.1039,-0.1039 0.008,-1.03329 -0.21354,-2.06533 -0.22135,-1.03203 -0.49892,-3.34486 -0.61683,-5.13962 -0.13205,-2.01 -0.3633,-3.26187 -0.60214,-3.25975 -0.73732,0.007 -3.91783,1.66301 -4.54184,2.36546 -1.65686,1.86509 -3.43045,9.66216 -3.69,16.22201 l -0.18424,4.65618 0.83916,0.20277 c 3.93002,0.94964 13.35719,0.92818 19.53637,-0.0445 z m -16.08444,-4.74123 c -0.5924,-0.5924 -0.6917,-0.98874 -0.5016,-2.00206 0.35677,-1.90173 1.23056,-3.88292 1.81073,-4.10555 0.67616,-0.25946 1.74226,0.42627 2.30897,1.48517 0.39365,0.73554 0.3657,0.90947 -0.21432,1.33359 -0.84036,0.61449 -1.60684,0.075 -1.60684,-1.13101 0,-1.13225 -0.63502,-1.06623 -0.92681,0.0964 -0.15114,0.60217 -0.02,1.33377 0.3683,2.05481 0.39103,0.72609 0.51973,1.45148 0.36612,2.0635 -0.28533,1.13685 -0.62895,1.18079 -1.60455,0.20518 z m -0.0551,-9.86824 c -1.3846,-0.81708 -0.27166,-2.85214 1.14512,-2.0939 0.53321,0.28537 0.71772,0.673 0.63991,1.34438 -0.11917,1.02821 -0.81656,1.32104 -1.78503,0.74952 z m 0.92132,-1.2112 c -0.22124,-0.57656 -0.83313,-0.72769 -0.83313,-0.20579 0,0.26776 0.24724,0.45004 0.95907,0.7071 0.0424,0.0153 -0.0143,-0.21027 -0.12594,-0.50131 z m -6.62747,15.54227 c 0.22836,-0.90986 -0.0218,-1.60755 -0.57648,-1.60755 -0.18257,0 -0.33195,0.55562 -0.33195,1.23472 0,1.4148 0.5865,1.65551 0.90843,0.37283 z m -28.18587,-1.87213 c -0.52702,-0.52689 -0.66374,-0.5426 -0.93293,-0.10721 -0.19077,0.30858 -0.17212,0.77788 0.0472,1.18769 0.33394,0.62397 0.40768,0.63245 0.93293,0.1072 0.52524,-0.52525 0.52151,-0.61912 -0.0472,-1.18768 z m 28.21078,-2.11667 c -0.0519,-2.04786 -0.72564,-2.75652 -0.79223,-0.83329 -0.0194,0.56033 -0.13898,1.28903 -0.26573,1.61933 -0.27637,0.72021 -0.008,1.24243 0.63781,1.24243 0.34483,0 0.45773,-0.54509 0.42015,-2.02847 z m -28.62445,0.96698 c 0.28768,-0.46547 -0.12867,-1.76073 -0.56596,-1.76073 -0.46706,0 -0.79005,0.94405 -0.54313,1.5875 0.23317,0.60765 0.78713,0.69418 1.10909,0.17323 z m 58.2647,-1.2504 c 2.22244,-0.9731 2.73837,-1.82226 2.44604,-4.02591 -0.22507,-1.6967 -2.24224,-7.95687 -4.64819,-14.42539 -1.66898,-4.48715 -1.84807,-4.59636 -6.14644,-3.74816 -3.63209,0.71673 -8.04791,2.07874 -9.00227,2.77665 -0.61564,0.45021 -0.68744,0.86217 -0.60132,3.45006 0.0538,1.61635 0.29559,3.81172 0.53732,4.87862 l 0.4395,1.93981 1.93213,0.24688 c 1.06268,0.13579 2.56714,0.49584 3.34325,0.80011 l 1.41111,0.55323 -2.05566,-0.18856 c -1.91073,-0.17526 -4.82351,0.28736 -4.82351,0.76609 0,0.7376 1.76194,2.7896 3.54826,4.1324 5.22935,3.93098 9.22974,4.76636 13.61978,2.84417 z m -58.79581,-1.94226 c 0,-0.72302 -0.85813,-0.94131 -1.24428,-0.31651 -0.28151,0.4555 0.50184,1.4601 0.93147,1.19457 0.17204,-0.10633 0.31281,-0.50146 0.31281,-0.87806 z m 29.49232,-1.49169 c 0.0304,-0.79473 -0.0567,-0.87596 -0.61736,-0.57589 -0.66078,0.35363 -0.85403,1.06396 -0.41021,1.50778 0.46501,0.46502 0.99244,-0.0133 1.02757,-0.93189 z m -29.96358,-0.45148 c 0.29403,-0.76622 -0.45241,-1.48679 -0.9867,-0.9525 -0.45156,0.45157 -0.17182,1.50538 0.39962,1.50538 0.20621,0 0.4704,-0.2488 0.58708,-0.55288 z m 30.33889,-1.41111 c 0.29403,-0.76622 -0.45241,-1.48679 -0.9867,-0.9525 -0.45157,0.45156 -0.17182,1.50538 0.39962,1.50538 0.20621,0 0.47039,-0.2488 0.58708,-0.55288 z m -30.73412,-1.05276 c -0.125,-1.13867 -0.45009,-1.45223 -0.96833,-0.93399 -0.72703,0.72703 -0.57437,1.68517 0.27976,1.75586 0.6437,0.0533 0.76831,-0.0954 0.68857,-0.82187 z m 16.65445,-2.0788 c 2.70614,-2.1174 3.46566,-3.40982 3.11194,-5.29532 -0.43273,-2.30663 -3.40204,-4.58989 -5.05259,-3.8852 -0.48639005,0.20766 -0.35677,0.32254 0.60809,0.53896 1.63788,0.36738 2.54184,1.5311 2.4074,3.09921 -0.11161,1.3018 -0.9878,2.03679 -0.9878,0.8286 0,-0.38273 -0.30162,-1.06835 -0.67026,-1.5236 -0.53326,-0.65855 -1.03473,-0.83528 -2.45360005,-0.86469 -0.98085,-0.0203 -2.04680995,-0.2556 -2.36879995,-0.52283 -0.50951,-0.42286 -0.67451,-0.37587 -1.27226,0.36233 -0.43439,0.53645 -0.61355,1.14019 -0.48744,1.64263 0.10966,0.43694 0.0295,0.89944 -0.17815,1.02777 -1.23603,0.76391 -0.58632,-2.11297 0.75356,-3.33676 0.71002,-0.6485 0.91171,-1.06408 0.69029,-1.42234 -0.2677,-0.43315 -0.45638,-0.43636 -1.30822,-0.0222 -0.54747,0.26617 -1.15394,0.49527 -1.34771,0.50911 -0.19378,0.0138 -0.35473,0.2633 -0.35767,0.55434 -0.003,0.29104 -0.21391,1.12448 -0.4688,1.85209 -0.57403,1.6386 -0.0679,3.48072 1.3144,4.78377 1.99168,1.87753 4.36834995,3.5947 4.97526995,3.5947 0.35079,0 1.74235005,-0.86425 3.09235005,-1.92055 z m -3.44074005,-0.60769 c 0,-0.22637 0.10445,-0.30712 0.23212,-0.17945 0.12767,0.12767 0.48486,0.0351 0.79375,-0.20579 0.49692005,-0.38746 0.50584005,-0.36678 0.0775,0.17945 -0.55483,0.70747 -1.10333,0.80977 -1.10333,0.20579 z M -1.69767,147.93664 c -0.38806,-0.33575 -0.93677,-0.92578 -1.21937,-1.31118 -0.28259,-0.38541 0.0746,-0.15366 0.79375,0.51499 1.17537995,1.09283 1.48570995,1.45381 1.21936995,1.41837 -0.0485,-0.006 -0.40569995,-0.28644 -0.79374995,-0.62218 z m 3.35139,-0.24803 c 0,-0.097 0.0794,-0.17639 0.17639,-0.17639 0.097,0 0.17638,0.0794 0.17638,0.17639 0,0.097 -0.0794,0.17639 -0.17638,0.17639 -0.097,0 -0.17639,-0.0794 -0.17639,-0.17639 z m 1.5875,-1.5875 c 0.11991,-0.19403 0.2974,-0.35278 0.39441,-0.35278 0.097,0 0.0783,0.15875 -0.0416,0.35278 -0.11991,0.19403 -0.2974,0.35278 -0.39441,0.35278 -0.097,0 -0.0783,-0.15875 0.0416,-0.35278 z m -8.64306,-5.46806 c 0,-0.097 0.0794,-0.17639 0.17639,-0.17639 0.097,0 0.17639,0.0794 0.17639,0.17639 0,0.097 -0.0794,0.17639 -0.17639,0.17639 -0.097,0 -0.17639,-0.0794 -0.17639,-0.17639 z m 23.22312,8.87155 c 0.0898,-0.46605 -0.055,-0.61081 -0.52106,-0.52106 -0.35494,0.0683 -0.70127,0.41469 -0.76963,0.76963 -0.0897,0.46605 0.055,0.61082 0.52107,0.52106 0.35494,-0.0683 0.70127,-0.41469 0.76962,-0.76963 z m -31.43263,-0.9158 c -0.0524,-0.69569 -0.72979,-0.74506 -1.37466,-0.10018 -0.30457,0.30456 -0.29209,0.54063 0.0504,0.95328 0.55602,0.66996 1.39815,0.12746 1.32429,-0.8531 z m -12.00896,-1.72348 c 0.44224,-0.89385 0.62167,-1.85018 0.52916,-2.82026 -0.15288,-1.60307 -0.7718,-1.67995 -0.7718,-0.0959 0,0.5398 -0.22259,1.72106 -0.49464,2.62502 -0.59868,1.98925 -0.18392,2.15301 0.73728,0.29111 z m 43.73611,0.79958 c 0.29402,-0.76622 -0.45242,-1.48679 -0.9867,-0.9525 -0.45157,0.45156 -0.17183,1.50538 0.39962,1.50538 0.2062,0 0.47039,-0.2488 0.58708,-0.55288 z m -32.46466,-0.32907 c 0.11169,-0.29104 0.10087,-0.79548 -0.024,-1.12097 -0.20817,-0.54248 -0.27413,-0.54476 -0.79154,-0.0273 -0.58182,0.58183 -0.42664,1.67749 0.23759,1.67749 0.20621,0 0.4663,-0.23813 0.57798,-0.52917 z m 33.0757,-1.79572 c 0.26245,-0.68395 -0.0188,-1.20289 -0.65203,-1.20289 -0.64367,0 -0.93286,0.88323 -0.44797,1.36812 0.54223,0.54223 0.84603,0.4966 1.1,-0.16523 z m -33.3009,-0.69065 c 0,-0.66283 -0.69605,-1.01564 -1.13591,-0.57577 -0.52682,0.52681 -0.0634,1.50659 0.59339,1.25456 0.29839,-0.1145 0.54252,-0.41995 0.54252,-0.67879 z m -8.83732,-3.81074 1.03291,-3.05577 -0.99835,-0.51627 c -0.94204,-0.48715 -1.01019,-0.4721 -1.20826,0.26672 -0.25625,0.9559 -0.2914,6.79327 -0.0394,6.54126 0.0991,-0.0991 0.64497,-1.55526 1.21308,-3.23594 z m 19.42065,3.12211 c 0,-0.097 -0.0794,-0.17639 -0.17639,-0.17639 -0.097,0 -0.17638,0.0794 -0.17638,0.17639 0,0.097 0.0794,0.17639 0.17638,0.17639 0.097,0 0.17639,-0.0794 0.17639,-0.17639 z m -11.09157,-1.90642 c -0.13143,-0.21265 -0.47708,-0.38663 -0.76812,-0.38663 -0.32349,0 -0.43053,-0.1714 -0.2754,-0.44098 0.13957,-0.24253 0.11789,-0.31731 -0.0482,-0.16617 -0.47189,0.42944 -0.51581,1.41789 -0.086,1.93576 0.32417,0.39059 0.47794,0.38339 0.90366,-0.0423 0.28216,-0.28216 0.40549,-0.68701 0.27407,-0.89965 z m 34.3749,0.6717 c 0,-0.38806 -0.22875,-0.70556 -0.50834,-0.70556 -0.62322,0 -1.02167,0.58055 -0.72638,1.05834 0.38364,0.62074 1.23472,0.37758 1.23472,-0.35278 z m -55.18404,-2.02847 c 1.07257,-1.11566 2.97482,-3.5366 4.22722,-5.37986 1.84439,-2.71454 2.27675,-3.61365 2.2753,-4.73151 -0.001,-0.84779 0.34737,-1.97594 0.90349,-2.92489 0.49791,-0.84962 0.87721,-1.89544 0.8429,-2.32404 -0.14599,-1.82308 0.0915,-2.44113 1.44132,-3.75109 l 1.42562,-1.38352 -2.04298,-0.22784 c -1.12365,-0.1253 -3.44392,-0.45708 -5.15616,-0.73727 -1.71225,-0.2802 -3.24909,-0.42544 -3.41521,-0.32278 -0.16612,0.10267 -0.39746,0.0323 -0.51409,-0.15646 -0.11664,-0.18872 -0.45102,-0.25143 -0.74308,-0.13935 -0.29205,0.11207 -0.83668,-0.0729 -1.21028,-0.41097 -0.4122,-0.37304 -0.92295,-0.52123 -1.29903,-0.37692 -0.34086,0.1308 -0.50183,0.1199 -0.35771,-0.0242 0.33672,-0.33673 -3.77832,-1.89193 -5.00602,-1.89193 -0.51282,0 -1.52896,-0.31973 -2.25807,-0.71051 l -1.32565,-0.71051 0.22207,0.97509 c 0.12213,0.5363 0.5138,2.16572 0.87037,3.62093 0.35657,1.45521 0.75693,3.47927 0.88968,4.49792 0.24795,1.90258 0.64612,2.36364 1.02105,1.18232 0.11692,-0.36837 0.70412,-1.34831 1.30488,-2.17765 l 1.09231,-1.50788 0.45051,0.85983 c 0.68723,1.31162 3.34884,14.57739 3.58563,17.87115 0.11507,1.60073 0.34795,2.91042 0.51751,2.91042 0.16956,0 1.18585,-0.91281 2.25842,-2.02847 z m -0.55484,-21.78403 c 0,-0.097 0.0794,-0.17639 0.17639,-0.17639 0.097,0 0.17639,0.0794 0.17639,0.17639 0,0.097 -0.0794,0.17639 -0.17639,0.17639 -0.097,0 -0.17639,-0.0794 -0.17639,-0.17639 z m -2.11667,-0.70555 c 0,-0.097 0.0794,-0.17639 0.17639,-0.17639 0.097,0 0.17639,0.0794 0.17639,0.17639 0,0.097 -0.0794,0.17638 -0.17639,0.17638 -0.097,0 -0.17639,-0.0794 -0.17639,-0.17638 z m 63.11459,18.91946 c 5.46172,-2.91107 12.95849,-4.86866 17.17998,-4.48611 2.25087,0.20396 2.61087,0.15467 2.90306,-0.39748 0.30615,-0.57856 0.58157,-4.40623 0.46119,-6.4095 -0.0625,-1.04048 -2.33877,-3.26403 -3.05861,-2.9878 -0.3702,0.14206 -0.51966,-0.0482 -0.51966,-0.66148 0,-0.47349 -0.0976,-0.95854 -0.21699,-1.07788 -0.11934,-0.11935 -2.22278,1.41018 -4.6743,3.39894 -2.45153,1.98876 -4.8491,3.88507 -5.32795,4.21401 -1.58006,1.08541 -8.51976,7.73701 -10.28439,9.85743 -2.03363,2.44365 -1.99215,3.39807 0.0513,1.18115 0.77046,-0.83584 2.33931,-2.01992 3.48634,-2.63128 z m -24.37001005,1.58917 c 0.5443,-2.95403 0.53493,-3.04614 -0.3098,-3.04614 -1.13455995,0 -1.93060995,2.22565 -1.41344995,3.95179 0.60357995,2.01456 1.24753995,1.67612 1.72324995,-0.90565 z M -16.33795,140.46351 c 0,-0.19026 -0.53447,-1.18244 -1.18771,-2.20486 -0.65324,-1.02241 -1.85733,-3.2083 -2.67575,-4.85754 -2.19102,-4.41524 -4.73433,-8.81698 -5.09519,-8.81829 -0.1747,-6.4e-4 -0.22156,1.00585 -0.10496,2.25449 0.19677,2.10716 0.16571,2.24389 -0.47187,2.07717 -1.26305,-0.3303 -1.65989,2.34476 -0.55593,3.74748 0.21451,0.27256 1.67211,1.32275 3.23911,2.33375 1.56699,1.01101 3.62133,2.73269 4.5652,3.82596 1.65575,1.91785 2.2871,2.37108 2.2871,1.64184 z m 40.35801,-6.4664 c 1.72698,-1.90352 5.88637,-5.91451 9.2431,-8.91331 3.35673,-2.99879 6.21065,-5.6263 6.34204,-5.83891 0.28089,-0.45449 -0.54687,-1.06115 -1.03568,-0.75905 -0.18476,0.11419 -0.22697,0.0313 -0.0938,-0.18417 0.13317,-0.21548 -0.1273,-0.63385 -0.57884,-0.92971 -0.99373,-0.65112 -3.42284,-0.36571 -7.67546,0.90182 -1.1157,0.33254 -1.467,0.78873 -3.45425,4.48557 -1.21674,2.26345 -2.75925,5.06787 -3.42781,6.23204 -1.61948,2.81999 -3.99353,8.25409 -4.25589,9.74152 l -0.2107,1.19459 1.00366,-1.23472 c 0.55202,-0.6791 2.41664,-2.79215 4.14362,-4.69567 z M 38.3426,119.46639 c 0,-0.097 0.0794,-0.17639 0.17639,-0.17639 0.097,0 0.17639,0.0794 0.17639,0.17639 0,0.097 -0.0794,0.17639 -0.17639,0.17639 -0.097,0 -0.17639,-0.0794 -0.17639,-0.17639 z m -7.76111,-0.70556 c 0,-0.097 0.0794,-0.17639 0.17639,-0.17639 0.097,0 0.17639,0.0794 0.17639,0.17639 0,0.097 -0.0794,0.17639 -0.17639,0.17639 -0.097,0 -0.17639,-0.0794 -0.17639,-0.17639 z m 2.61215,-0.58367 c -0.15596,-0.25234 -0.0968,-0.31153 0.15557,-0.15557 0.224,0.13844 0.40728,0.32172 0.40728,0.40729 0,0.29426 -0.31152,0.15494 -0.56285,-0.25172 z m -49.47318,16.37654 c -0.38605,-2.08913 -0.80391,-4.43342 -0.92859,-5.20953 -0.26994,-1.68034 -1.28205,-5.93896 -1.45822,-6.13569 -0.0682,-0.0762 -0.36979,0.0655 -0.67021,0.31485 -0.53122,0.44088 -1.01297,0.27387 -1.10243,-0.38217 -0.0242,-0.17786 -0.0639,-0.45567 -0.0882,-0.61736 -0.0727,-0.48462 -1.10243,-0.33145 -1.10243,0.16397 0,0.25188 -0.35677,0.6489 -0.79281,0.88226 -0.4533,0.2426 -0.61286,0.48428 -0.3726,0.56437 0.23112,0.077 0.32278,0.39398 0.20369,0.70432 -0.11908,0.31033 -0.0705,0.47406 0.10801,0.36384 0.1785,-0.11023 0.34694,0.1733 0.37432,0.63006 0.0655,1.09212 6.18688,13.51871 6.38142,12.95441 0.0825,-0.2392 -0.16591,-2.1442 -0.55196,-4.23333 z m -5.35007,-9.79565 c 0,-0.097 0.0794,-0.17638 0.17638,-0.17638 0.097,0 0.17639,0.0794 0.17639,0.17638 0,0.097 -0.0794,0.17639 -0.17639,0.17639 -0.097,0 -0.17638,-0.0794 -0.17638,-0.17639 z m 0.70555,0 c 0,-0.097 0.0794,-0.17638 0.17639,-0.17638 0.097,0 0.17639,0.0794 0.17639,0.17638 0,0.097 -0.0794,0.17639 -0.17639,0.17639 -0.097,0 -0.17639,-0.0794 -0.17639,-0.17639 z m 17.53004,13.5259 c 0.64111,-0.53208 -0.0545,-1.35506 -1.1453,-1.35506 -0.75291,0 -1.55728,-1.18672 -1.10853,-1.63547 0.0942,-0.0942 -0.22569,-0.56806 -0.71076,-1.05313 -1.00049,-1.00048 -1.4096,-0.90659 -0.82329,0.18894 0.21658,0.40467 0.26913,0.7382 0.11678,0.74117 -0.15235,0.003 -0.0945,0.12203 0.12861,0.26458 0.22308,0.14255 0.45227,0.81481 0.5093,1.49391 0.057,0.67909 0.13773,1.31409 0.17932,1.41111 0.15572,0.36323 2.40181,0.31912 2.85387,-0.056 z m -2.71337,-0.12034 c 0,-0.097 0.0794,-0.17639 0.17639,-0.17639 0.097,0 0.17638,0.0794 0.17638,0.17639 0,0.097 -0.0794,0.17639 -0.17638,0.17639 -0.097,0 -0.17639,-0.0794 -0.17639,-0.17639 z m 8.11388,-1.41111 c 0,-0.097 -0.0794,-0.17639 -0.17638,-0.17639 -0.097,0 -0.17639,0.0794 -0.17639,0.17639 0,0.097 0.0794,0.17639 0.17639,0.17639 0.097,0 0.17638,-0.0794 0.17638,-0.17639 z m -3.97351,-0.77947 c 0.17988,-0.53964 -1.94139,-1.97344 -2.5654,-1.73399 -0.89353,0.34288 -0.56307,1.29265 0.62989,1.81034 1.24248,0.53917 1.73684,0.51967 1.93551,-0.0763 z m 5.86201,-0.89366 c 0.10678,-0.4083 0.11305,-0.87357 0.0139,-1.03393 -0.331,-0.53555 -2.16701,-0.29973 -3.00989005,0.3866 l -0.83283,0.67815 0.88194,0.32953 c 1.63767005,0.6119 1.93913005,0.6801 2.34649005,0.53085 0.22341,-0.0819 0.49357,-0.48289 0.60034,-0.8912 z m 0.93373,0.26202 c 0,-0.097 -0.0794,-0.17639 -0.17639,-0.17639 -0.097,0 -0.17639,0.0794 -0.17639,0.17639 0,0.097 0.0794,0.17639 0.17639,0.17639 0.097,0 0.17639,-0.0794 0.17639,-0.17639 z m -12.80291,-1.57404 c -0.52364,-1.3873 -0.092,-1.72575 1.2318,-0.96596 1.20685,0.69264 1.68834,0.52527 1.11431,-0.38734 -0.35576,-0.5656 -3.15114,-1.22866 -3.74251,-0.88773 -0.52216,0.30104 -0.25087,1.8885 0.44097,2.58035 1.01276,1.01275 1.41223,0.87088 0.95543,-0.33932 z m 8.08389995,0.29846 C 1.06134,133.1718 3.88708,132.73371 4.30808,133.41492 c 0.19218,0.31095 0.13562,0.36068 -0.18492,0.16258 -0.30556,-0.18885 -0.37663,-0.14762 -0.21007,0.12188 0.36596,0.59214 0.68582,0.5035 1.20959,-0.33519 0.33947,-0.54358 0.3476,-0.67073 0.0303,-0.47466 -0.30053,0.18575 -0.34649,0.11598 -0.14995,-0.22766 0.75481,-1.31977 1.79623,-2.07075 3.15398,-2.27435 1.03953,-0.15589 1.5666,-0.44353 1.80414,-0.98457 0.60171,-1.37052 5.09807,-2.95561 5.09807,-1.79722 0,0.25414 -0.15182,0.5559 -0.33737,0.67058 -0.18555,0.11468 -0.24436,0.4509 -0.13067,0.74715 0.12608,0.32855 -0.22394,0.95968 -0.89735,1.61807 -1.30866,1.27945 -1.38684,1.70524 -0.3103,1.69003 1.54197,-0.0218 2.95765,-1.87197 2.58091,-3.37303 -0.15506,-0.61782 -0.0671,-0.84909 0.32278,-0.84909 0.29474,0 0.51709,-0.11906 0.49411,-0.26458 -0.16238,-1.02842 0.17533,-1.94736 0.99493,-2.70734 1.14616,-1.06278 0.79741,-1.63623 -0.53218,-0.87507 -0.57093,0.32684 -0.92506,0.81382 -0.8873,1.22017 0.0867,0.93354 -0.63559,1.29096 -1.15989,0.57393 -0.30242,-0.41358 -0.32202,-0.72358 -0.0653,-1.03291 0.45147,-0.54399 -0.008,-0.58315 -1.25933,-0.10735 -2.21294,0.84135 -8.76292,1.49167 -14.95217,1.48453 -3.54075,-0.004 -6.75544,-0.10827 -7.14375,-0.23151 -1.10327,-0.35017 -0.85333,0.42978 0.70511,2.20025 0.77611,0.88171 1.41111,1.74564 1.41111,1.91985 0,0.78398 4.20228,4.51422 5.09254,4.52049 0.18151995,0.001 0.68756995,-0.33357 1.12455995,-0.74409 z M 14.0635,126.50207 c 0.12567,-0.60342 0.73747,-0.75504 0.91367,-0.22644 0.0616,0.18468 -0.14445,0.43415 -0.45778,0.55439 -0.39304,0.15082 -0.53441,0.0491 -0.45589,-0.32795 z M 8.3154,132.318 c 0.85324,-0.52018 1.08519,-0.83613 0.81337,-1.10794 -0.50253,-0.50254 -2.22213,0.19607 -2.81352,1.14303 -0.37026,0.59289 -0.34285,0.69505 0.18617,0.69392 0.34119,-7.2e-4 1.15748,-0.32878 1.81398,-0.72901 z m 6.97906,-0.21041 c -0.12936,-0.12935 -0.34102,-0.12935 -0.47037,0 -0.12936,0.12935 -0.0235,0.23519 0.23518,0.23519 0.25871,0 0.36454,-0.10584 0.23519,-0.23519 z m -22.95996,-1.5287 c 0.65599,0 0.63133,-0.32825 -0.0841,-1.11875 -0.81618,-0.90187 -1.29258,-0.80355 -1.09574,0.22613 0.0916,0.4792 0.0307,0.78733 -0.13527,0.68473 -0.166,-0.10259 -0.30181,-0.0316 -0.30181,0.15767 0,0.446 0.84575,0.74222 0.99953,0.35008 0.0647,-0.16492 0.34249,-0.29986 0.61736,-0.29986 z m 0.85255,0.52916 c 0,-0.097 -0.0794,-0.17638 -0.17639,-0.17638 -0.097,0 -0.17639,0.0794 -0.17639,0.17638 0,0.097 0.0794,0.17639 0.17639,0.17639 0.097,0 0.17639,-0.0794 0.17639,-0.17639 z m 19.03099,-1.2155 c 0.3023,-0.19126 0.75054,-0.19412 1.10014,-0.007 0.76855,0.41131 0.97276,0.1712 0.76752,-0.90244 -0.19271,-1.0081 -0.57333,-1.07447 -1.97356,-0.34419 -0.55377,0.28882 -1.11507,0.45825 -1.24732,0.37651 -0.13226,-0.0817 -0.24047,0.15722 -0.24047,0.53104 0,0.72199 0.74411,0.88359 1.59369,0.34609 z m 40.42164,-0.46019 c -0.72248,-3.18139 -0.87529,-4.18211 -0.8829,-5.78186 -0.0153,-3.20745 1.81457,-11.47372 2.40857,-10.88073 0.12575,0.12553 0.30929,1.20738 0.40786,2.4041 l 0.17922,2.17585 1.1901,-2.99861 c 1.07788,-2.71584 1.94882,-7.76111 1.33977,-7.76111 -0.11281,0 -1.20571,0.75726 -2.42866,1.68279 -2.46879,1.8684 -7.46002,4.55156 -10.6965,5.75017 -1.1607,0.42986 -2.48395,0.91998 -2.94055,1.08914 l -0.83017,0.30758 1.27115,1.40701 c 0.75583,0.83662 1.27114,1.76979 1.27114,2.3019 0,0.61581 0.71512,1.65631 2.29306,3.33641 1.91031,2.03399 2.29305,2.64533 2.29305,3.66258 0,1.10881 0.20243,1.35333 2.20192,2.6598 2.52712,1.65122 3.18438,1.79625 2.92294,0.64498 z m -64.39152,-1.14653 c 0,-0.67909 -0.15875,-1.23472 -0.35278,-1.23472 -0.19402,0 -0.35277,-0.42148 -0.35277,-0.93662 0,-0.91553 -0.0159,-0.92219 -0.70841,-0.29552 -0.60971,0.55178 -0.6407,0.71915 -0.22243,1.20121 0.2673,0.30805 0.41232,0.76387 0.32229,1.01293 -0.17652,0.48826 0.49826,1.48744 1.00452,1.48744 0.17027,0 0.30958,-0.55562 0.30958,-1.23472 z m -44.99976,-3.0868 c 0.72882,-4.17393 2.24364,-9.0467 3.70858,-11.92951 l 1.01882,-2.0049 -2.01605,-2.07312 c -3.79319,-3.90057 -6.28984,-8.27743 -7.79608,-13.667264 -0.76505,-2.73761 -0.76785,-2.836302 -0.20488,-7.231944 1.8141,-14.164377 11.857,-29.62304 23.17487,-35.672193 3.80401,-2.033162 3.74691,-1.218858 -0.13758,1.96215 -5.99208,4.906908 -11.46456,11.288516 -14.85893,17.327404 -1.42206,2.529984 -3.39732,6.625532 -3.39732,7.044101 0,0.07997 1.38907,-1.070881 3.08681,-2.557453 6.01961,-5.270874 14.93288,-10.518328 23.23136,-13.676851 1.76617,-0.672232 7.03249,-2.269368 11.70294,-3.549191 10.5377,-2.887602 14.669,-4.315702 19.44591995,-6.722016 C 8.86123,48.088708 15.26017,42.080403 22.01224,31.974012 24.09739,28.852983 28.8176,20.234693 28.8176,19.548586 c 0,-0.578374 -5.1412,-2.738771 -10.68345,-4.489322 -9.44169,-2.982207 -17.53692005,-4.209286 -27.76932,-4.209286 -10.54476,0 -18.90646,1.241133 -27.41945,4.06989 -7.66216,2.546038 -8.43084,2.959049 -23.47936,12.61549 -3.14711,2.019458 -6.70949,4.241958 -7.91639,4.938889 -1.2069,0.696931 -2.19909,1.386209 -2.20486,1.53173 -0.0155,0.392079 3.61463,0.279304 7.15299,-0.222215 1.70859,-0.242172 3.17436,-0.330564 3.25726,-0.196426 0.0829,0.134138 -0.56684,1.334925 -1.44387,2.668417 -2.4395,3.709176 -5.30952,9.546134 -6.50051,13.220553 -1.15033,3.548981 -2.48146,9.864718 -2.46835,11.711466 0.008,1.059281 0.0816,0.992157 1.20507,-1.092562 1.43826,-2.668743 1.89073,-3.242832 2.83161,-3.592759 1.74999,-0.650841 2.09811,0.601588 0.68994,2.482209 -3.67554,4.908711 -5.54941,14.039467 -5.57072,27.144229 -0.0102,6.256505 0.12633,8.415858 0.77949,12.330886 1.57888,9.463815 5.02058,19.413715 8.66281,25.044035 1.58979,2.45755 3.96793,5.31119 4.4262,5.31119 0.13768,0 0.53445,-1.62719 0.88171,-3.61597 z m 47.46921,2.55764 c 0,-0.54106 -1.34512,-1.76389 -1.94028,-1.76389 -0.8142,0 -0.63043,0.57116 0.44097,1.37051 1.08285,0.8079 1.49931,0.91716 1.49931,0.39338 z m 28.28263,-0.23107 c 0.76892,-0.69586 0.85472,-1.8856 0.13598,-1.8856 -0.56292,0 -1.6075,1.31183 -1.6075,2.01877 0,0.62635 0.70251,0.56278 1.47152,-0.13317 z m 45.3311,-3.03213 c 2.26943,-3.64344 3.043,-5.19465 4.50312,-9.02989 1.91454,-5.02887 4.6099,-15.282 4.1407,-15.751204 -0.0979,-0.09786 -0.69899,-0.177932 -1.33584,-0.177932 -1.07768,0 -1.23372,0.158863 -2.25228,2.293056 -1.05302,2.20642 -2.11666,3.02177 -2.11666,1.62256 0,-0.36878 0.30909,-2.47851 0.68688,-4.688306 0.37778,-2.209792 0.95232,-6.467317 1.27675,-9.461167 1.45306,-13.40868 -0.37297,-33.349502 -3.73278,-40.763104 -1.38627,-3.058874 -4.21195,-6.756603 -7.78077,-10.182045 -3.94006,-3.78176 -8.76389,-7.965433 -9.18426,-7.965433 -0.31313,0 -0.0666,0.838641 2.2912,7.794978 2.83144,8.353667 5.50963,19.788333 6.89138,29.423075 0.65885,4.594073 1.45722,15.383175 1.97091,26.63472 0.92898,20.348042 1.92389,33.161112 2.5749,33.161112 0.13964,0 1.06968,-1.30969 2.06675,-2.91042 z m -78.21647,0.44097 c -0.003,-0.097 -0.23086,-0.47356 -0.50592,-0.83678 -0.46347,-0.61201 -0.5425,-0.61801 -1.07853,-0.082 -0.53603,0.53603 -0.51803,0.62731 0.24571,1.24574 0.74158,0.6005 1.36432,0.4484 1.33874,-0.32698 z m 13.42217995,0.88195 c 0,-0.097 -0.0794,-0.17639 -0.17639,-0.17639 -0.097,0 -0.17639,0.0794 -0.17639,0.17639 0,0.097 0.0794,0.17639 0.17639,0.17639 0.097,0 0.17639,-0.0794 0.17639,-0.17639 z M 1.95074,125.2453 c -0.38898,-0.24654 -0.38428,-0.30102 0.0264,-0.30545 0.27487,-0.003 0.39777,-0.1074 0.27311,-0.23207 -0.12467,-0.12466 -0.4991,-0.006 -0.83208,0.26459 -0.40058,0.32504 -0.51577005,0.34205 -0.34048,0.0503 0.31577,-0.52559 -0.0980001,-0.56662 -0.83504005,-0.0828 -0.74621,0.48985 0.10574,1.00231 1.28996005,0.77593 0.65363,-0.12495 0.76523,-0.25051 0.41817,-0.47048 z m -6.64702,-0.31086 c 0,-0.19402 -0.14938,-0.35277 -0.33196,-0.35277 -0.18258,0 -0.43007,0.15875 -0.54999,0.35277 -0.11991,0.19403 0.0295,0.35278 0.33196,0.35278 0.30249,0 0.54999,-0.15875 0.54999,-0.35278 z m 3.30759,-0.78713 c 0.29384,-0.4666 0.25431,-0.74104 -0.16751,-1.16286 -0.50098,-0.50098 -0.63008,-0.489 -1.39369,0.12933 -0.7318,0.59258 -0.77827,0.75773 -0.35628,1.26619 0.58236,0.70171 1.39085,0.60361 1.91748,-0.23266 z m 8.20788,-0.0486 0.90135,-0.83578 -0.80687,-0.75172 C 6.01482,121.6738 5.6809,121.5896 5.35433,122.11802 c -0.12187,0.19719 -0.40906,0.25111 -0.63818,0.11983 -0.22913,-0.13129 -0.29891,-0.1088 -0.15508,0.05 0.14384,0.15877 0.0822,0.5047 -0.13688,0.76873 -0.30374,0.36599 -0.24812,0.64611 0.23413,1.17899 0.81041,0.8955 1.06492,0.87938 2.16087,-0.13684 z m 14.39357,0.15245 c 0.61641,-0.68113 0.4976,-1.43334 -0.22639,-1.43334 -0.4652,0 -1.31436,1.07006 -1.32977,1.67569 -0.0169,0.6654 0.85797,0.52914 1.55616,-0.24235 z m -32.02386,0.0954 c -0.12935,-0.12935 -0.34102,-0.12935 -0.47037,0 -0.12935,0.12935 -0.0235,0.23519 0.23519,0.23519 0.2587,0 0.36453,-0.10584 0.23518,-0.23519 z m 3.60858,-0.0874 c 0.58072,-0.36771 0.28724,-1.36735 -0.48886,-1.66517 -0.69895,-0.26821 -1.59101,0.47492 -1.59101,1.32539 0,0.71599 1.18102,0.90893 2.07987,0.33978 z m 19.26318,-1.08853 c 0.61617,-0.68087 0.61617,-0.73025 0,-1.41112 -0.75259,-0.8316 -1.17053,-0.86511 -2.09238,-0.16774 -0.66751,0.50497 -0.66449,0.53324 0.14969,1.39989 1.00277,1.06741 1.1282,1.07897 1.94269,0.17897 z m -9.70139,-0.89592 c 0,-0.83868 -1.06891,-1.47388 -1.76073005,-1.04631 -0.50833,0.31416 -0.44145,0.77595 0.22511,1.55444 C 1.54884,123.6298 2.35927,123.36164 2.35927,122.27471 Z m -16.93333,-0.12015 c 0,-0.15713 -0.32125,-0.57642 -0.71389,-0.93176 -1.01026,-0.91427 -1.73078,-0.20618 -1.06192,1.0436 0.37743,0.70524 0.59395,0.80636 1.12176,0.52388 0.35973,-0.19252 0.65405,-0.47859 0.65405,-0.63572 z m 10.23056,0.35371 c 0,-0.84641 -0.89091,-1.59405 -1.58301,-1.32846 -0.78588,0.30157 -0.64916,1.12174 0.26009,1.56025 1.13395,0.54689 1.32292,0.51378 1.32292,-0.23179 z m 23.98888,-0.0848 c 0,-0.19403 -0.15875,-0.25467 -0.35278,-0.13475 -0.19402,0.11992 -0.35277,0.37678 -0.35277,0.57081 0,0.19402 0.15875,0.25466 0.35277,0.13475 0.19403,-0.11992 0.35278,-0.37678 0.35278,-0.57081 z m -42.68611,0.21803 c 0,-0.097 -0.0794,-0.17639 -0.17638,-0.17639 -0.097,0 -0.17639,0.0794 -0.17639,0.17639 0,0.097 0.0794,0.17639 0.17639,0.17639 0.097,0 0.17638,-0.0794 0.17638,-0.17639 z m 39.15833,-0.17639 c 0,-0.19403 0.23813,-0.35278 0.52917,-0.35278 0.73153,0 0.6616,-0.47635 -0.182,-1.2398 -0.68907,-0.6236 -0.72708,-0.62256 -1.2235,0.0335 -0.56115,0.74162 -0.66324,1.313 -0.29959,1.67665 0.36071,0.36071 1.17592,0.27919 1.17592,-0.11759 z m -26.82232,-0.26458 c -0.006,-0.14552 -0.22211,-0.5424 -0.47987,-0.88195 -0.82722,-1.08973 -2.31016,-0.57974 -1.8443,0.63426 0.19881,0.51809 2.34533,0.74685 2.32417,0.24769 z m 8.83066,-0.26459 c 0,-0.097 -0.0794,-0.17639 -0.17639,-0.17639 -0.097,0 -0.17639,0.0794 -0.17639,0.17639 0,0.097 0.0794,0.17639 0.17639,0.17639 0.097,0 0.17639,-0.0794 0.17639,-0.17639 z m -5.64444,-0.35277 c 0,-0.097 -0.0794,-0.17639 -0.17639,-0.17639 -0.097,0 -0.17639,0.0794 -0.17639,0.17639 0,0.097 0.0794,0.17638 0.17639,0.17638 0.097,0 0.17639,-0.0794 0.17639,-0.17638 z m 31.39287,-0.52105 c 0.52762,-0.98588 -0.25384,-2.1992 -1.22539,-1.90259 -1.70321,0.51999 -2.12571,1.70288 -0.79874,2.23625 1.21905,0.49 1.61857,0.42414 2.02413,-0.33366 z m -43.85769,0.10947 c -0.12935,-0.12935 -0.34102,-0.12935 -0.47037,0 -0.12935,0.12935 -0.0235,0.23519 0.23519,0.23519 0.2587,0 0.36453,-0.10584 0.23518,-0.23519 z m 11.75926,0.0588 c 0,-0.097 -0.0794,-0.17639 -0.17639,-0.17639 -0.097,0 -0.17639,0.0794 -0.17639,0.17639 0,0.097 0.0794,0.17639 0.17639,0.17639 0.097,0 0.17639,-0.0794 0.17639,-0.17639 z m 22.57778,-0.35278 c 0,-0.097 -0.0794,-0.17639 -0.17639,-0.17639 -0.097,0 -0.17639,0.0794 -0.17639,0.17639 0,0.097 0.0794,0.17639 0.17639,0.17639 0.097,0 0.17639,-0.0794 0.17639,-0.17639 z m 4.46851,-0.76435 c -0.12935,-0.12935 -0.34101,-0.12935 -0.47037,0 -0.12935,0.12935 -0.0235,0.23518 0.23519,0.23518 0.2587,0 0.36454,-0.10583 0.23518,-0.23518 z m 0.82315,0.0588 c 0,-0.097 -0.0794,-0.17638 -0.17639,-0.17638 -0.097,0 -0.17639,0.0794 -0.17639,0.17638 0,0.097 0.0794,0.17639 0.17639,0.17639 0.097,0 0.17639,-0.0794 0.17639,-0.17639 z m 6.48865,-0.7344 c 0.3106,-0.80942 0.28544,-0.8531 -0.49143,-0.8531 -0.67987,0 -0.95599,0.69031 -0.47037,1.17593 0.38632,0.38632 0.73452,0.26944 0.9618,-0.32283 z m -15.45295,-1.02881 c 12.31713,-1.15974 25.12348,-3.80783 32.42402,-6.70462 5.10028,-2.02374 9.58169,-4.68948 12.54795,-7.46407 l 1.73955,-1.62715 -0.002,-2.685749 C 57.3856,94.7108 56.31344,77.404804 55.6066,71.135955 54.25377,59.137908 49.98709,41.309201 46.18435,31.76422 44.64573,27.902231 44.45233,27.600029 42.77111,26.4308 40.86319,25.1039 31.31861,19.992752 31.14936,20.207313 c -0.0558,0.07076 -1.01865,1.953329 -2.13963,4.183497 -5.44821,10.839139 -12.49987,19.767143 -20.14427,25.504355 -6.14785,4.614037 -13.18461,7.580359 -26.57449,11.202383 -3.61126,0.976865 -7.64868,2.097371 -8.97202,2.490014 l -2.40609,0.713896 0.92865,1.217516 c 0.51075,0.669633 1.35536,2.12802 1.87692,3.240859 0.84908,1.811697 0.94827,2.42926 0.94827,5.9039 0,3.448834 -0.10221,4.096415 -0.91874,5.820832 -0.50531,1.067153 -1.2252,2.312274 -1.59976,2.766935 l -0.68101,0.826657 -1.29502,-0.764079 c -0.71226,-0.420244 -1.38671,-1.052979 -1.49878,-1.406078 -0.11207,-0.3531 -0.68189,-0.840045 -1.26626,-1.0821 -1.29051,-0.534547 -2.4725,-0.10253 -3.33942,1.220553 -0.76079,1.161111 -2.36423,1.440509 -5.3165,0.926393 -3.98566,-0.694072 -8.02893,-3.412492 -8.48775,-5.70658 -0.16595,-0.829738 -0.29962,-0.948053 -0.69776,-0.617622 -0.61081,0.506926 -0.44836,3.12792 0.30334,4.894255 0.67812,1.593421 2.18708,3.371811 3.93586,4.638623 0.76367,0.553201 1.2231,1.005821 1.02094,1.005821 -0.66417,0 -3.97202,-3.226052 -4.8347,-4.715145 -0.46471,-0.802157 -1.11818,-2.304962 -1.45214,-3.339568 l -0.60722,-1.881102 -2.37262,2.354445 c -1.30495,1.294945 -2.74427,2.539728 -3.19849,2.766184 -1.09542,0.546123 -1.70931,2.71602 -1.96112,6.931852 -0.33808,5.660142 1.29415,10.888471 4.92421,15.773231 5.30459,7.13805 17.47084,11.78488 34.81273,13.29652 7.68973,0.67029 23.60471,0.68857 30.54507,0.0351 z M -53.67079,89.067955 c 0.14955,-0.77653 1.52586,-0.881922 1.52586,-0.116844 0,0.291042 -0.37131,0.581746 -0.82513,0.64601 -0.63988,0.09061 -0.79721,-0.0282 -0.70073,-0.529166 z m 42.7298,-2.453693 c -1.36208,-0.671635 -2.30561,-2.011155 -2.15561,-3.06027 0.16986,-1.187937 1.22098,-1.157137 1.84735,0.05413 1.03421,1.999947 4.24823,2.156348 5.80237,0.282357 0.6565,-0.791605 1.21974,-0.734759 2.39918,0.242141 0.54847,0.454275 1.37941,0.922204 1.84655,1.039842 1.25731995,0.316632 3.0786,-0.593033 3.73719,-1.866599 0.38476,-0.744059 0.75406,-1.046558 1.11061,-0.909735 0.2938,0.11274 0.60057,0.204982 0.68171,0.204982 0.39014,0 0.0695,1.358361 -0.56706,2.402478 -1.29321,2.121122 -4.20025005,2.739449 -6.96974,1.482462 -1.49764,-0.679731 -1.52057,-0.679676 -2.64583,0.0064 -1.36765,0.833889 -3.53722,0.885831 -5.08672,0.121781 z m -44.71204,-0.806315 c -0.34093,-0.55163 0.20215,-1.442946 0.87919,-1.442946 0.86693,0 1.20079,0.617612 0.67581,1.250175 -0.48057,0.579052 -1.2568,0.675279 -1.555,0.192771 z m 82.35393,-0.91378 c 0,-0.09701 0.0794,-0.176389 0.17639,-0.176389 0.097,0 0.17638,0.07938 0.17638,0.176389 0,0.09701 -0.0794,0.176389 -0.17638,0.176389 -0.097,0 -0.17639,-0.07937 -0.17639,-0.176389 z M 24.28437,82.906018 C 18.55036,77.172006 18.702,67.603031 24.61627,61.96177 c 3.09812,-2.955108 4.60642,-3.525934 9.31657,-3.525934 3.47182,0 4.09303,0.09959 5.89776,0.945464 2.35356,1.103112 5.18106,3.624781 6.40369,5.711037 2.76335,4.715296 2.50119,11.031605 -0.65587,15.802244 -0.86731,1.310592 -0.94763,1.350497 -1.68237,0.835859 -0.42438,-0.297241 -1.05377,-0.540439 -1.39865,-0.540439 -0.34488,0 -0.62706,-0.226603 -0.62706,-0.503562 0,-0.734286 -1.71654,-1.965882 -2.73995,-1.965882 -0.55532,0 -1.32607,0.472011 -2.08536,1.277095 l -1.20446,1.277096 -3.07053,-0.1543 c -3.37877,-0.169789 -5.64605,-0.96436 -7.90054,-2.768755 -0.71623,-0.573236 -1.58935,-1.044678 -1.94028,-1.047649 -0.541,-0.0046 -0.55756,-0.05741 -0.10888,-0.347376 0.4595,-0.296949 0.45297,-0.342685 -0.0496,-0.347376 -0.39421,-0.0037 -0.64668,-0.427232 -0.79175,-1.328318 -0.4465,-2.773296 -0.57502,-3.386048 -0.7461,-3.557127 -0.31396,-0.313957 -0.18719,2.466373 0.22118,4.851146 0.50156,2.92901 1.02167,3.940097 3.22542,6.270237 2.2655,2.395434 1.98299,2.438897 -0.39512,0.06079 z M 31.41582,72.69773 c 1.60821,-1.265017 1.10101,-3.502173 -0.79399,-3.502173 -1.90555,0 -3.19968,2.43475 -1.95546,3.678968 0.75334,0.75334 1.63941,0.696365 2.74945,-0.176795 z m 5.17492,-1.055279 c 0.49486,-0.924655 -0.15633,-1.821785 -1.21231,-1.670168 -0.75608,0.108558 -1.12338,0.997341 -0.78094,1.889714 0.28948,0.754369 1.5461,0.615958 1.99325,-0.219546 z M 49.78692,83.97837 c -0.13143,-0.212647 0.003,-0.628306 0.2981,-0.923687 0.64296,-0.642955 1.31032,-0.324338 1.31032,0.625582 0,0.749306 -1.19292,0.970401 -1.60842,0.298105 z m -99.63879,-5.081424 c 0,-0.09701 0.0794,-0.176389 0.17638,-0.176389 0.097,0 0.17639,0.07937 0.17639,0.176389 0,0.09701 -0.0794,0.176388 -0.17639,0.176388 -0.097,0 -0.17638,-0.07937 -0.17638,-0.176388 z M 52.17145,78.650001 c -0.68937,-0.689366 -0.52315,-2.673419 0.25903,-3.092032 1.57487,-0.842842 3.19819,0.06922 3.19819,1.796894 0,1.169087 -0.62029,1.718471 -1.94028,1.718471 -0.60148,0 -1.28411,-0.1905 -1.51694,-0.423333 z M 49.51166,63.38093 c -0.75318,-0.753185 -0.33772,-1.946483 0.67769,-1.946483 1.17781,0 1.72552,1.15085 0.90228,1.895875 -0.77851,0.704543 -0.92145,0.709121 -1.57997,0.05061 z m -9.68743,-9.072594 c -0.95085,-0.950845 -0.20959,-2.398888 1.228,-2.398888 0.56521,0 0.87088,0.263819 1.02717,0.886525 0.38156,1.520268 -1.192,2.575532 -2.25517,1.512363 z m 6.47584,-3.182939 c -0.73914,-1.055258 -0.69121,-1.896138 0.15638,-2.743727 1.37626,-1.376255 3.88056,-0.387054 3.88056,1.532824 0,1.879132 -2.94927,2.76378 -4.03694,1.210903 z M 31.63979,46.026194 c -2.04529,-0.639904 -3.175,-2.000475 -3.175,-3.823808 0,-2.198408 1.57759,-3.679379 3.93144,-3.690648 3.13171,-0.01499 4.77149,2.792026 3.29685,5.64366 -0.7174,1.387305 -2.68945,2.2975 -4.05329,1.870796 z m 8.36526,-0.685735 c -0.86877,-0.868777 0.2953,-2.460395 1.51609,-2.07293 1.12494,0.357042 0.83827,2.079066 -0.36956,2.219921 -0.49233,0.05741 -1.00827,-0.0087 -1.14653,-0.146991 z m -4.11819,-8.314197 c -0.99483,-1.067823 -0.91821,-2.588861 0.18603,-3.693102 0.73401,-0.734012 1.11763,-0.862868 2.02725,-0.680945 3.49388,0.698775 3.22417,5.146123 -0.31208,5.146123 -0.76155,0 -1.43772,-0.274595 -1.9012,-0.772076 z M -73.25695,101.24449 c 0.34111,-0.76446 -0.21742,-6.047355 -0.68923,-6.519168 -0.12424,-0.124238 -0.98478,0.09866 -1.91232,0.495325 -0.92753,0.396667 -2.99612,1.000955 -4.59684,1.342862 -2.22292,0.474802 -2.91042,0.759597 -2.91042,1.205631 0,1.212348 2.49151,2.8171 5.72563,3.6878 2.78353,0.7494 3.97987,0.69141 4.38318,-0.21245 z M 78.82381,97.85875 c 0.37759,-0.727605 0.90909,-1.322917 1.18111,-1.322917 0.35692,0 0.46236,0.368234 0.3788,1.322917 l -0.11578,1.322916 h 1.63828 c 2.09664,0 2.8883,-0.438561 3.17875,-1.760955 0.2966,-1.350398 1.38828,-1.466847 1.46406,-0.15617 0.0288,0.497529 0.14029,0.992592 0.24784,1.100141 0.3187,0.318703 5.03281,-0.863644 6.56987,-1.64779 2.38688,-1.217697 1.99775,-1.590189 -3.51863,-3.368204 -2.23132,-0.719189 -5.21201,-1.764733 -6.62376,-2.32343 -1.41175,-0.558697 -3.20813,-1.015813 -3.99194,-1.015813 -1.43988,0 -2.74984,-0.487095 -3.22542,-1.19934 -0.47314,-0.708597 -0.27924,-0.947105 0.45187,-0.555825 0.39702,0.212479 1.22653,0.337127 1.84336,0.276995 0.89344,-0.0871 1.2793,-0.396297 1.89743,-1.520441 1.60428,-2.917616 2.44192,-3.128985 2.09704,-0.529167 -0.13951,1.051704 -0.0976,1.763889 0.10387,1.763889 0.65573,0 2.43448,-1.773075 2.65327,-2.644793 0.41108,-1.637855 1.43953,-1.014294 1.35634,0.822356 -0.0239,0.526733 0.9692,0.362523 3.0399,-0.502668 0.94221,-0.393681 1.13175,-0.610082 0.81328,-0.928547 -0.22838,-0.22838 -0.41524,-0.859737 -0.41524,-1.403014 0,-1.214037 0.85007,-1.323138 1.74059,-0.223394 0.79747,0.984837 1.66343,0.666531 2.30475,-0.847169 0.40003,-0.944219 0.53141,-1.040614 0.72854,-0.534576 0.13227,0.339548 0.40484,0.617361 0.60569,0.617361 0.67959,0 3.98958,-3.091903 4.67752,-4.369334 0.63632,-1.18158 0.64314,-1.309408 0.0988,-1.853708 -0.5443,-0.5443 -0.94059,-0.541301 -5.74675,0.0435 -5.48798,0.667764 -8.71329,0.57594 -12.80954,-0.364685 -1.22471,-0.281232 -2.6063,-0.511331 -3.0702,-0.511331 -0.99814,0 -2.64055,-0.693499 -2.64055,-1.114959 0,-0.162884 0.64289,-0.296152 1.42863,-0.296152 0.78575,0 1.89967,-0.24358 2.47537,-0.54129 0.87359,-0.451747 0.9874,-0.652162 0.68804,-1.21153 -0.59419,-1.110257 -0.44038,-2.127735 0.32165,-2.127735 0.79474,0 1.64924,0.767508 1.96614,1.765977 0.27078,0.853146 0.48526,0.870892 1.54602,0.127911 0.7014,-0.491285 0.78976,-0.775371 0.60349,-1.940277 -0.20221,-1.264557 -0.15636,-1.364722 0.62469,-1.364722 0.4636,0 1.03777,0.234789 1.27593,0.521753 0.32151,0.387389 0.60518,0.429617 1.10153,0.163977 0.79234,-0.424046 0.85251,-1.647521 0.12813,-2.60524 -0.28487,-0.376633 -0.51795,-1.05132 -0.51795,-1.499305 0,-0.622448 0.19778,-0.814518 0.83875,-0.814518 0.46131,0 1.03637,0.238125 1.27792,0.529166 0.55508,0.668835 1.52013,0.673336 2.79699,0.01305 1.82913,-0.945882 1.97612,-3.077885 0.34063,-4.940611 -1.23332,-1.404675 -1.15418,-2.304381 0.20269,-2.304381 0.89309,0 2.30413,1.087804 2.30413,1.776301 0,0.826062 1.35805,-0.41879 2.02182,-1.853298 1.30661,-2.82377 1.29367,-3.258242 -0.11226,-3.76663 -0.97172,-0.351379 -1.22126,-0.617904 -1.13638,-1.213728 0.0903,-0.634071 0.32982,-0.756938 1.41298,-0.724897 1.60937,0.04761 1.67402,-0.101648 1.94077,-4.480076 0.24367,-3.999701 0.0421,-5.054633 -1.11026,-5.809669 -1.23931,-0.812028 -1.93746,-0.299374 -4.73666,3.478174 -3.23072,4.359882 -5.29584,6.594522 -7.91095,8.560336 -3.60278,2.708259 -9.10674,5.146957 -12.68225,5.619259 -1.95619,0.2584 -1.87865,-0.146307 -1.07024,5.586178 0.84318,5.979014 0.8343,22.437119 -0.015,27.72699 -0.32477,2.022959 -0.5905,3.888272 -0.5905,4.145138 0,0.791743 1.50969,0.515635 3.15736,-0.577453 1.94306,-1.289046 2.61242,-0.990166 2.03029,0.906564 -0.30912,1.007206 -0.28498,1.310054 0.12508,1.569512 0.97589,0.617474 1.67876,0.322467 2.36019,-0.99062 z M -73.84076,84.930524 v -4.726143 l -2.91042,-8.02e-4 c -1.91314,-5.27e-4 -3.73344,-0.24824 -5.31231,-0.722917 -2.50362,-0.752695 -3.22507,-0.715812 -3.56979,0.182502 -0.35243,0.918421 1.06759,3.511912 2.94596,5.380421 1.87402,1.864176 3.08354,2.254705 3.90767,1.261693 0.24154,-0.291041 0.67588,-0.529166 0.9652,-0.529166 0.42048,0 0.48005,0.306566 0.2969,1.527931 -0.2038,1.358981 -0.13996,1.570886 0.5773,1.916401 0.44354,0.213659 1.32237,0.399215 1.95296,0.412347 l 1.14653,0.02388 z M 85.262,89.1275 c 0,-0.09701 -0.0794,-0.176389 -0.17639,-0.176389 -0.097,0 -0.17638,0.07937 -0.17638,0.176389 0,0.09701 0.0794,0.176389 0.17638,0.176389 0.097,0 0.17639,-0.07937 0.17639,-0.176389 z M -35.01202,74.122034 c 0.82606,-0.442091 0.88721,-1.495082 0.12363,-2.128796 -1.09977,-0.912725 -2.47791,0.856313 -1.54387,1.981766 0.50679,0.610638 0.54633,0.614732 1.42024,0.14703 z m -4.98731,-0.503707 c 1.42229,-0.735494 1.94999,-2.498977 0.98696,-3.298224 -0.32865,-0.27275 -0.94474,-0.08696 -2.29306,0.691479 -1.93729,1.118487 -2.36635,2.077812 -1.22631,2.741829 0.84865,0.494292 1.36901,0.466535 2.53241,-0.135084 z m -32.48326,-4.740699 c 0.29118,-2.138411 0.29664,-3.092598 0.0196,-3.426403 -0.54756,-0.659774 -0.764,-4.179346 -0.40973,-6.662611 l 0.30198,-2.116667 -2.21691,-2.381926 c -1.2193,-1.310059 -2.63382,-3.215059 -3.14337,-4.233333 -1.67031,-3.337896 -2.91921,-4.14863 -4.20393,-2.729026 -0.7486,0.827187 -1.2629,6.345674 -0.5914,6.345674 0.2075,0 0.47108,-0.151765 0.58572,-0.337256 0.29445,-0.476431 1.77348,0.132739 1.77348,0.730446 0,0.268815 -0.59531,0.779642 -1.32292,1.13517 -1.41577,0.691787 -1.7209,1.67306 -0.87849,2.825127 0.37763,0.516447 0.61686,0.54767 1.59191,0.207766 2.26117,-0.788249 2.88637,0.290731 1.13867,1.965136 -1.15633,1.107829 -1.36279,2.306768 -0.51798,3.007901 0.42834,0.355489 0.83209,0.361057 1.94754,0.02686 2.16937,-0.64996 2.78018,0.220309 1.39266,1.984253 -0.38806,0.493332 -0.70556,1.34047 -0.70556,1.882528 0,1.751818 1.82659,2.76479 2.82223,1.565123 0.24154,-0.291042 0.73723,-0.529167 1.10152,-0.529167 0.77283,0 0.89584,1.218265 0.26321,2.606737 -0.45915,1.007732 -0.10899,2.542937 0.37101,1.626596 0.15246,-0.291041 0.4588,-1.862859 0.68076,-3.492928 z M 77.62142,55.723285 78.97667,55.037116 78.75412,51.268421 c -0.30513,-5.166916 -0.57371,-7.240303 -0.8923,-6.888424 -0.14815,0.163629 -0.62212,1.488132 -1.05326,2.94334 -0.65924,2.225127 -1.05918,2.91246 -2.51522,4.322655 -0.95224,0.922253 -1.73134,1.73551 -1.73134,1.807239 0,0.07173 0.32936,0.874981 0.73191,1.785004 0.69906,1.580346 0.78216,1.643743 1.85208,1.412904 0.6161,-0.132927 1.73004,-0.550461 2.47543,-0.927854 z m -4.00118,-5.494622 c 1.01043,-1.010433 1.55554,-2.043865 2.27947,-4.321528 1.32922,-4.182007 1.27609,-5.220811 -0.46934,-9.176878 -0.81089,-1.837903 -1.76384,-3.718497 -2.11765,-4.179099 l -0.6433,-0.837458 -0.24009,2.07218 c -0.56202,4.850736 -2.5895,9.717689 -4.46674,10.722357 -0.38074,0.203764 -0.69225,0.538624 -0.69225,0.744134 0,0.571247 4.23015,6.304299 4.65164,6.304299 0.20364,0 0.96786,-0.597603 1.69826,-1.328007 z m -5.64611,-7.71971 c 2.01866,-2.299133 3.52954,-7.131532 3.52954,-11.288901 0,-2.191527 -0.92937,-4.052879 -4.53283,-9.078399 l -1.99356,-2.780298 -0.24912,4.43467 c -0.31764,5.654296 -1.37996,10.291859 -2.80963,12.265466 -1.05314,1.45382 -1.05904,1.486197 -0.41587,2.285539 2.48196,3.084658 4.5935,5.404661 4.93738,5.42482 0.22244,0.01304 0.91278,-0.555263 1.53409,-1.262897 z m -7.5526,-7.084429 c 1.6965,-1.696497 2.85173,-6.333987 3.19058,-12.808094 l 0.23145,-4.422186 -1.68421,-2.104202 c -2.00702,-2.507521 -5.16018,-5.808368 -5.54849,-5.808368 -0.15215,0 -0.27663,0.857349 -0.27663,1.905221 0,2.512587 -1.18752,9.32362 -2.12812,12.205888 -0.41158,1.261181 -1.20743,2.872905 -1.76856,3.58161 l -1.02023,1.288555 3.2522,2.642888 c 1.78872,1.453589 3.55462,2.977177 3.92425,3.385751 0.81519,0.901106 1.04302,0.917677 1.82776,0.132937 z M 77.28745,34.21061 c -0.17151,-0.277515 -0.0628,-0.338929 0.33196,-0.187461 0.77883,0.298866 0.79245,-1.353151 0.033,-3.997236 -0.38399,-1.336785 -0.59514,-3.932519 -0.68782,-8.455352 -0.12856,-6.274211 -0.11388,-6.447779 0.37994,-4.491986 0.28252,1.118921 0.63172,3.068464 0.77601,4.332316 0.14429,1.263853 0.40853,2.332747 0.5872,2.37532 0.57229,0.13636 1.91629,-3.02076 2.33409,-5.482861 0.45681,-2.692017 0.23704,-4.991139 -0.80051,-8.3744542 C 79.2886,6.8222384 78.47764,5.2826794 76.15313,2.1677854 68.89938,-7.5524207 53.6728,-17.001971 39.40094,-20.640476 c -7.08493,-1.806248 -11.65078,-2.359027 -19.40278,-2.349059 -10.04757,0.01292 -17.73534,1.270116 -27.78678,4.54403 -5.79987,1.889109 -16.02462,6.552812 -15.50521,7.07222 0.0725,0.07248 1.52169,-0.338033 3.22047,-0.912256 11.59616,-3.919751 28.11901,-3.484368 42.54096,1.120968 14.73827,4.7063453 26.36004,11.34182077 35.82978,20.4570949 3.97951,3.8305491 5.86899,6.0189741 10.9054,12.6308171 1.69966,2.231319 3.24198,4.013323 3.42739,3.960009 0.1854,-0.05331 0.23943,0.06109 0.12007,0.254223 -0.29671,0.480079 0.81786,2.562493 1.2339,2.305368 0.19004,-0.117449 0.2337,0.05438 0.10141,0.399115 -0.17008,0.443223 -0.10715,0.528018 0.23494,0.316593 0.31031,-0.191783 0.38298,-0.152443 0.21638,0.117133 -0.28271,0.457428 2.16421,5.347558 2.6758,5.347558 0.18145,0 0.21512,-0.185728 0.0748,-0.412728 z M 51.25784,27.031799 c 0.48882,-0.488818 1.18533,-1.560381 1.54781,-2.381249 0.91602,-2.074423 2.0463,-7.883503 2.33426,-11.99696 0.23209,-3.3153923 0.20867,-3.4842693 -0.60504,-4.3620861 -0.90912,-0.9807493 -6.46561,-5.418163 -6.78458,-5.418163 -0.10575,0 -0.28959,0.7540624 -0.40852,1.6756943 -0.93895,7.2758138 -2.02314,12.1629658 -3.35465,15.1215198 -0.53391,1.186316 -1.14922,2.267247 -1.36737,2.40207 -0.76074,0.470162 -0.38608,1.137766 1.10267,1.964852 0.82462,0.458122 2.52949,1.519229 3.7886,2.358016 1.25911,0.838787 2.41726,1.525068 2.57367,1.525068 0.15641,0 0.68433,-0.399943 1.17315,-0.888762 z M 41.59817,21.305978 C 43.38604,19.272301 44.4619,15.675688 45.58183,7.9886182 46.58226,1.1216979 46.8712,2.0228055 42.92867,-0.28582993 40.21524,-1.8747444 34.25238,-4.8877697 33.82132,-4.8877697 c -0.16611,0 -1.22387,2.8178123 -2.35057,6.2618051 -1.65057,5.0452859 -3.77332,10.7375636 -4.97314,13.3357406 -0.0943,0.204137 1.54009,1.119559 3.63192,2.034271 2.09182,0.914713 5.23206,2.439436 6.97831,3.388275 1.74625,0.948839 3.34883,1.739979 3.5613,1.758089 0.21246,0.01811 0.63053,-0.244884 0.92903,-0.584433 z m -94.97782,-1.521045 c 0.87312,-0.592379 3.175,-1.879931 5.11528,-2.861228 1.94027,-0.981296 3.5734,-1.824803 3.62918,-1.87446 0.0558,-0.04966 -0.0815,-0.49177 -0.30511,-0.982475 -0.75777,-1.663128 1.42199,-7.0583759 4.87863,-12.0753735 1.06945,-1.55222213 2.43093,-3.3381595 3.0255,-3.9687497 1.47591,-1.5653284 0.77333,-1.439317 -1.73292,0.3108053 -3.67961,2.56949757 -5.25005,4.0678364 -8.1576,7.783083 -6.54585,8.3642379 -10.13784,14.7584449 -8.28423,14.7469599 0.13407,-8.3e-4 0.95814,-0.486183 1.83127,-1.078562 z m 79.31779,-7.12201 c 0.57911,-1.018645 2.23886,-5.2652075 3.68834,-9.4368044 1.44948,-4.17159693 2.74275,-7.8421993 2.87393,-8.1568933 0.19165,-0.45976 -0.39347,-0.825119 -2.97829,-1.859675 -3.09007,-1.236778 -3.87956,-1.335633 -3.87956,-0.485775 0,0.748938 -7.19393,17.7522097 -7.84266,18.5365627 -0.20447,0.247223 -0.30553,0.515737 -0.22457,0.596697 0.15495,0.154945 6.66025,2.570705 7.0712,2.625908 0.13129,0.01764 0.71251,-0.801374 1.29161,-1.82002 z m -64.04234,-0.133112 4.11103,-1.349541 -0.0266,-1.5958258 c -0.0604,-3.620298 4.41755,-12.8583148 8.08074,-16.6705989 0.69572,-0.724043 1.17631,-1.405077 1.06798,-1.513411 -0.21035,-0.210347 -4.75776,1.515103 -6.97735,2.647456 -3.24837,1.657194 -10.02725,11.5824654 -11.34271,16.6073927 -0.4715,1.801089 -0.18355,3.669001 0.52375,3.397582 0.2487,-0.09543 2.30213,-0.780807 4.56319,-1.523054 z M 17.62223,8.6105385 C 18.37646,7.2063449 20.10492,3.3963452 21.46326,0.14387257 22.8216,-3.1086 24.18136,-6.2949167 24.48495,-6.9368307 c 0.3204,-0.677445 0.42002,-1.292547 0.23744,-1.466074 -0.66591,-0.6329 -10.53323,-3.0819213 -15.02439,-3.7289813 l -1.65706,-0.23874 -2.52659,3.8296223 C 2.76478,-4.3733977 0.31969995,0.27231167 -0.58597005,3.0497297 -1.12167,4.6925375 -1.46723,7.9879651 -1.13761,8.3103417 c 0.08,0.07824 1.65357995,0.3247351 3.49684,0.5477681 1.84327,0.2230329 5.41514,0.8548238 7.9375,1.4039792 2.52236,0.549156 4.89393,0.976655 5.27014,0.949997 0.46609,-0.03302 1.12097,-0.861938 2.05536,-2.6015475 z m -45.69008,1.2463796 c 3.87329,-0.7751272 3.96875,-0.8170034 3.96875,-1.7409764 0,-2.572749 6.60727,-15.4185264 9.45566,-18.3835727 1.47321,-1.533553 1.33574,-1.5664 -2.51772,-0.601574 -6.01592,1.5062653 -5.99473,1.4941803 -8.51873,4.8572223 -2.3675,3.1545122 -5.32501,8.6653335 -6.47244,12.0603233 -0.6046,1.7888643 -0.67143,4.5737274 -0.11026,4.5944594 0.1243,0.0046 2.01193,-0.349055 4.19474,-0.7858819 z M -9.19409,8.341396 h 6.26195 L -2.93229,7.408417 C -2.93254,5.8124092 -1.53608,1.7870897 0.25498995,-1.7789625 2.42772,-6.1049227 5.38882,-10.893101 6.27534,-11.514044 c 0.37499,-0.262656 0.60568,-0.600731 0.51264,-0.751277 -0.57931,-0.937348 -16.43502,-0.570856 -18.51918,0.428056 -1.75364,0.840497 -7.26746,9.4701531 -9.39278,14.7005852 -0.50867,1.2518378 -1.01199,3.1203829 -1.11849,4.1523226 l -0.19365,1.876254 3.49004,-0.2752504 c 1.91952,-0.1513877 6.30792,-0.2752504 9.75199,-0.2752504 z"
       id="path8" /></g></svg>
