<?xml version="1.0" encoding="UTF-8" standalone="no"?>
<!-- Created with Inkscape (http://www.inkscape.org/) -->

<svg
   width="230.26633mm"
   height="303.70956mm"
   viewBox="0 0 230.26634 303.70953"
   version="1.1"
   id="svg1"
   xml:space="preserve"
   xmlns="http://www.w3.org/2000/svg"
   xmlns:svg="http://www.w3.org/2000/svg"><defs
     id="defs1"><clipPath
       clipPathUnits="userSpaceOnUse"
       id="clipPath6"><path
         id="path7"
         style="fill:#ff0000;fill-opacity:1;fill-rule:nonzero;stroke:none;stroke-width:0.264583"
         d="M -175.07778,-16.057127 V 287.55793 H 124.54631 V -16.057127 Z m 132.7459,202.572647 c 0.210643,0.005 0.427212,0.0169 0.650089,0.0367 2.23823,0.19855 4.475655,0.4031 6.717938,0.55346 1.973313,0.11308 0.986628,0.0436 2.958475,0.20825 3.181295,0.26563 4.740125,1.85116 4.950601,3.46956 4.949923,1.63749 3.796379,7.35609 -2.592089,6.81354 -3.228716,-0.27422 -1.569593,-0.1301 -4.979024,-0.43357 -4.228209,-0.39317 -8.460616,-0.76265 -12.666927,-1.35341 -6.647387,-0.93358 -5.930551,-7.21034 0.03204,-7.20421 0.04685,5e-5 0.0972,0.004 0.144695,0.005 0.687229,-1.21692 2.304132,-2.15435 4.784204,-2.09548 z" /></clipPath><clipPath
       clipPathUnits="userSpaceOnUse"
       id="clipPath76"><path
         id="path77"
         style="fill:#ff0000;fill-opacity:1;fill-rule:nonzero;stroke:none;stroke-width:0.264583"
         d="M -133.83107,-122.52355 V 173.82063 H 122.97289 V -122.52355 Z M 13.574404,98.948202 c 2.788179,0.0507 4.135003,2.063798 3.398242,4.077268 0.199805,0.45372 0.374906,0.96736 0.517797,1.54461 1.07913,4.35948 0.671079,8.891 0.311608,13.31495 -0.351859,3.06036 -0.147137,1.57974 -0.604097,4.44366 -0.359666,2.25418 -1.333846,3.66838 -2.455664,4.32532 0.105138,0.36595 0.224724,0.72888 0.324528,1.09554 0.6273,2.23652 0.575201,4.47401 0.39429,6.75514 -0.137303,1.73129 -0.688065,2.99533 -1.427303,3.82199 -0.112477,0.41601 -0.170275,0.80219 -0.311092,1.25212 -0.184975,0.59102 -0.413327,1.1061 -0.670242,1.55856 0.741137,-0.23134 1.446982,-0.38145 2.064991,-0.37517 4.085002,0.0415 5.222724,4.75435 -0.02223,7.27138 -4.46677,2.14368 -9.303523,3.34693 -14.11903492,4.40955 -4.40876268,0.85156 -8.89238128,1.33053 -13.38264308,1.19269 -5.804014,-0.17807 -6.736297,-5.00293 -3.065447,-6.67298 -2.072987,-0.65744 -4.042852,-1.62261 -4.128947,-3.14709 -0.02802,-0.49633 0.0026,-0.90355 0.0341,-1.30897 -1.976731,-0.003 -3.95339,2.4e-4 -5.930386,0.003 -0.814031,0 -1.53062,-0.0962 -2.159559,-0.26149 -0.376306,0.19492 -0.742394,0.40783 -1.120862,0.59893 -6.391272,3.22657 -9.625245,-3.24074 -3.234428,-6.46886 1.833438,-0.92611 3.62694,-1.92211 5.414142,-2.92954 -0.877003,-3.87058 -1.368747,-7.83436 -1.323951,-11.80858 0.01651,-1.46304 0.376836,-2.54918 0.864547,-3.41426 -1.247357,-1.79999 -0.223805,-4.63069 3.842661,-5.68855 3.11826,-0.81116 6.282901,-1.39515 9.473837,-1.82211 -1.259816,-0.12657 -2.516182,-0.30233 -3.764627,-0.50177 -1.477002,-0.21985 -2.935575,-0.54305 -4.407482,-0.7891 -1.14214,-0.22954 -0.588502,-0.12004 -1.660882,-0.3297 -3.350244,-0.65501 -4.783278,-2.61088 -4.608504,-4.32997 -0.200179,-1.7721 1.333365,-3.52972 4.663799,-3.59461 v -5.3e-4 c 0.20954,-0.004 0.426035,-0.002 0.649571,0.008 1.77111,0.0772 3.528708,0.28204 5.26428,0.64027 1.655035,0.33225 3.314115,0.6481 4.955251,1.04439 1.244759,0.34858 2.51628,0.54538 3.7997689,0.6723 0.025956,0.002 0.052073,0.002 0.078034,0.004 0.4990888,-0.0371 0.9984105,-0.0743 1.4965495,-0.11317 1.346872,-0.12588 2.6913231,-0.25136 4.0457464,-0.24236 1.1278499,-0.0444 2.2567291,-0.10772 3.37498791,-0.26872 0.75719517,-0.11591 1.51142439,-0.25483 2.25722659,-0.4284 0.3616431,-0.12394 0.7240561,-0.24538 1.083138,-0.37775 0.3360393,-0.12388 0.6107589,-0.12825 0.9250071,-0.20723 0.1281086,-0.045 0.2583895,-0.0825 0.3855085,-0.13074 1.9825018,-0.7681 3.9540551,-1.56464 5.9510551,-2.29443 1.050809,-0.383992 1.999634,-0.542639 2.826703,-0.527616 z M 0.70283723,110.39557 c -0.45566013,0.0949 -0.90775367,0.208 -1.36890919,0.2744 -1.16638124,0.15534 -2.34111274,0.24237 -3.51761424,0.26251 0.4031694,0.0896 0.8047355,0.18876 1.2025101,0.308 0.1014836,0.0304 0.1982549,0.075 0.2986907,0.10852 0.4205235,-0.21824 0.9206601,-0.35072 1.4898318,-0.37156 0.39885139,-0.0146 0.83259872,0.0278 1.29449508,0.13023 0.22468681,-0.12213 0.44967525,-0.24374 0.67437529,-0.36587 -0.0326284,-0.11319 -0.058211,-0.22834 -0.0733795,-0.34623 z m 10.24433577,1.02474 c -0.76023,0.21437 -1.5189569,0.4343 -2.2696301,0.68006 -0.031261,0.62207 -0.2256075,1.28373 -0.6464723,1.94355 0.6236891,0.43248 1.2549743,1.04482 1.8634525,1.86862 0.2674939,0.36214 0.4748849,0.75712 0.7188199,1.13223 0.154519,-1.86707 0.314174,-3.74736 0.33383,-5.62446 z m 64.566086,3.39773 c 1.50346,0.0187 3.129182,1.24994 3.928441,4.04678 0.257931,0.90255 0.823497,1.65871 1.488797,2.30735 0.856321,0.95375 1.845738,1.76777 2.801898,2.61638 1.458581,1.46408 2.789203,3.04608 4.169772,4.58215 1.315059,1.44746 2.571226,2.91698 3.543967,4.61884 0.0053,0.01 0.0082,0.0206 0.01344,0.0305 0.734605,-0.43313 1.446276,-0.65634 2.094962,-0.69195 3.016182,-0.16561 4.69137,3.55377 1.187525,7.32306 -1.69471,1.82311 -3.657862,3.33908 -5.68751,4.7651 -0.777873,0.49914 -1.607691,0.90075 -2.418456,1.33842 0.165478,1.44344 -0.672182,3.24303 -2.956409,4.73096 -1.354556,0.88234 -2.690448,1.79306 -4.075203,2.6288 -2.075008,1.20078 -4.233777,2.27962 -6.540687,2.96259 -2.077586,0.62971 -4.169056,1.29987 -6.359301,1.36374 -1.872114,0.0897 -3.746989,0.0368 -5.620845,0.0501 h -5.1108 -5.524728 c -7.160125,0 -7.160125,-7.23315 0,-7.23315 h 1.347722 c 0.29438,-0.0541 0.5212,-0.1588 0.84801,-0.18656 1.106628,-0.094 2.200932,-0.28334 3.292822,-0.48421 0.456121,-0.98163 1.356053,-1.98213 2.807581,-2.83962 1.078018,-0.63685 2.158119,-1.26923 3.212209,-1.94561 1.962647,-1.29302 3.840588,-2.72135 5.893696,-3.86902 1.367169,-0.76424 2.559646,-1.07097 3.526915,-1.04128 2.216811,0.068 3.246223,1.90266 2.479953,4.04059 1.105688,-0.48686 2.206929,-0.98346 3.283003,-1.53739 2.619811,-1.23728 5.288743,-2.38548 7.764385,-3.9026 0.246153,-0.17184 0.487463,-0.34958 0.730705,-0.52503 -0.126915,-0.50614 -0.277693,-0.9939 -0.512114,-1.46554 -0.647621,-1.25778 -1.721077,-2.20654 -2.600875,-3.29644 -1.199229,-1.33472 -2.369312,-2.69496 -3.592029,-4.00803 -1.098706,-0.97599 -2.227236,-1.92181 -3.215306,-3.01428 -1.300821,-1.39063 -2.459913,-2.93896 -3.045293,-4.77801 -1.289469,-4.05101 0.646382,-6.61405 2.843754,-6.58667 z m -95.086705,4.28035 c -0.465643,0.10748 -0.930899,0.21773 -1.394745,0.33435 0.171958,0.64334 0.283575,1.36624 0.279569,2.2071 -0.01267,2.6582 0.205063,5.32647 0.670242,7.94732 0.280107,-0.17087 0.565767,-0.33222 0.845429,-0.50385 -0.01897,-0.36223 -0.02445,-0.73164 -0.05529,-1.08985 -0.118034,-2.96491 -0.160888,-5.93314 -0.3452,-8.89507 z m 18.5141159,1.1958 c 0.00497,0.0773 0.00619,0.15612 0.014975,0.23202 -0.1238779,0.22787 -0.2588048,0.44752 -0.3937741,0.66715 0.58900751,0.0447 1.13203305,0.21413 1.64331124,0.45888 -0.37615284,-0.49255 -0.78353709,-0.94642 -1.26452314,-1.35805 z m -6.5422357,14.57068 c -0.046649,0.0755 -0.09888,0.14702 -0.1436608,0.22376 -0.03147,0.054 0.1963367,0.0838 0.1860365,0.0222 -0.017595,-0.10481 -0.026035,-0.14905 -0.042376,-0.24597 z m 13.9236979,6.08439 c -0.2236258,0.5643 -0.5677508,1.09664 -1.1782213,1.50533 0.9079653,0.17659 1.7077452,0.44257 2.2830631,0.84852 0.1405493,-0.0459 0.272804,-0.11448 0.4128956,-0.16174 -0.7336976,-0.43656 -1.2984269,-1.18703 -1.5177374,-2.19211 z" /></clipPath></defs><g
     id="layer1"
     transform="translate(-45.215384,151.82358)"><path
       style="fill:#000000"
       d="m 156.08733,151.26128 c -1.92905,-0.68013 -2.28887,-0.91064 -4.38119,-2.80674 -3.24023,-2.93636 -5.94517,-11.7125 -5.94942,-19.30282 -7.9e-4,-1.40951 -0.15491,-1.88085 -0.74977,-2.29305 -0.41183,-0.28537 -0.95612,-0.71729 -1.20953,-0.95982 -0.25341,-0.24254 -0.61236,-0.44098 -0.79767,-0.44098 -0.44143,0 -2.51935,-2.3135 -3.4854,-3.88055 -2.72726,-4.42395 -3.64496,-12.22301 -2.23926,-19.03041 0.98959,-4.792322 3.11437,-11.035626 5.70226,-16.755123 1.14005,-2.519631 2.07282,-4.758483 2.07282,-4.975227 0,-0.216745 -1.29672,-0.672733 -2.8816,-1.013308 -7.15745,-1.538059 -18.00852,-5.620234 -23.12522,-8.69971 -1.63981,-0.986918 -3.0769,-1.698976 -3.19353,-1.582351 -0.11662,0.116625 0.24083,2.096766 0.79434,4.400312 0.88045,3.664173 0.94979,4.324887 0.55414,5.280059 -0.24872,0.600485 -0.59256,1.005065 -0.76407,0.899067 -0.17151,-0.105999 -0.31183,-0.02461 -0.31183,0.180872 0,0.719415 -1.67046,0.364396 -3.03388,-0.644782 -2.36683,-1.751889 -8.44325,-8.490689 -7.68015,-8.517347 0.1689,-0.0059 0.0293,-0.172538 -0.31028,-0.370307 -0.33955,-0.197769 -0.61736,-0.589817 -0.61736,-0.871217 0,-0.281401 -0.13618,-0.511637 -0.30263,-0.511637 -0.16645,0 -0.88721,-0.947073 -1.60168,-2.104605 -0.71447,-1.157533 -1.46505,-2.207212 -1.66797,-2.332619 -0.51907,-0.320807 -0.14013,2.734343 1.18483,9.552501 1.0736,5.524654 1.08373,5.672065 0.47742,6.945925 -0.77254,1.6231 -2.08514,2.01065 -3.897346,1.150704 -1.766589,-0.838302 -8.41761,-8.821678 -12.830572,-15.400836 -1.002738,-1.494952 -1.823159,-2.870786 -1.823159,-3.057407 0,-0.186621 -0.139071,-0.392227 -0.309045,-0.456903 -0.670486,-0.255122 -3.779968,-5.571272 -6.22722,-10.646415 -2.952196,-6.122301 -4.703384,-11.036129 -5.995485,-16.823307 -1.294858,-5.799522 -1.252261,-5.702874 -1.758223,-3.989287 -0.428776,1.452172 -0.676909,1.842417 -2.218423,3.488959 -0.822954,0.879025 -2.894381,1.230679 -2.894381,0.491361 0,-0.205478 -0.145191,-0.283864 -0.322647,-0.17419 -1.292681,0.798921 -4.298444,-9.671794 -5.716394,-19.913321 -0.701515,-5.066888 -0.601349,-19.8805666 0.171748,-25.3999976 1.358636,-9.6998074 3.574347,-16.9630344 7.655908,-25.0964934 0.95654,-1.906127 1.736732,-3.746383 1.733761,-4.089457 -0.0033,-0.375654 -0.108496,-0.472852 -0.264583,-0.244358 -0.681905,0.998232 -12.295452,-2.301464 -17.016125,-4.834702 -4.057375,-2.177295 -5.646529,-4.023995 -5.643125,-6.557685 0.0037,-2.78224 2.16714,-4.05419 9.363235,-5.50502 2.214147,-0.4464 4.107413,-0.89332 4.207259,-0.99317 0.09985,-0.0998 0.342055,-1.04255 0.538243,-2.09491 0.196189,-1.05235 0.61257,-2.73617 0.925292,-3.74181 0.544331,-1.75045 0.538634,-1.87083 -0.133551,-2.82222 -2.407101,-3.40693 -4.925046,-9.99414 -6.175172,-16.15489 -0.663033,-3.26749 -0.784055,-4.95991 -0.757396,-10.59167 0.027,-5.70374 0.145615,-7.12342 0.79581,-9.524998 2.672186,-9.87003 8.168052,-13.40038 19.809959,-12.7252 6.488737,0.37632 13.100921,1.36778 20.575485,3.08519 l 3.112987,0.71526 2.253871,-1.10958 c 2.504909,-1.23316 6.150629,-2.12104 8.747469,-2.13037 0.9378,-0.003 1.65159,-0.12519 1.58619,-0.27071 -0.0654,-0.14552 -0.79154,-1.62253 -1.61365,-3.28224 -2.75538,-5.5627 -3.66005,-11.52915 -2.22677,-14.68603 1.18019,-2.59947 2.72634,-2.9366 10.25053,-2.23509 2.03729,0.18994 6.83971,0.58748 10.67205,0.88341 7.45941,0.57602 12.41925,1.18601 19.07398,2.34583 2.29331,0.3997 4.26043,0.63594 4.37137,0.52499 0.11095,-0.11094 0.01,-1.3921 -0.22501,-2.84702 -0.60158,-3.72917 -0.52176,-10.48377 0.15422,-13.05095 1.01924,-3.87075 2.54997,-5.4897 5.1875,-5.48646 1.62175,0.002 2.23319,0.32298 5.44752,2.85974 3.08777,2.43687 6.32397,4.31772 13.3503,7.75905 7.89674,3.86762 12.05633,6.60753 16.49809,10.86723 1.93857,1.8591 3.58614,3.17849 3.7445,2.99861 0.15552,-0.17667 1.16826,-1.51574 2.25051,-2.97572 3.57202,-4.8187 9.89262,-10.47009 15.82489,-14.1494 12.2675,-7.60855 20.49897,-6.93302 30.38126,2.49329 6.67613,6.36809 10.98659,13.28481 14.30461,22.95367 2.31205,6.73745 3.62569,13.51291 4.15801,21.446238 0.24247,3.61357 0.24891,3.63369 1.34366,4.19952 3.12476,1.61506 6.85771,5.12927 8.95813,8.43323 3.63268,5.71419 4.57185,14.78489 2.22698,21.50853 -1.12475,3.22508 -1.95933,4.52665 -4.69211,7.31755 -0.92885,0.94861 -1.68881,1.88228 -1.68881,2.07483 0,0.19255 0.46875,1.88303 1.04166,3.75663 2.16172,7.069366 4.47389,19.067814 5.34724,27.748189 0.55079,5.47439 0.54136,18.4091634 -0.0167,22.93055436 C 272.25911,16.03388 266.87614,26.704562 254.16487,40.092087 c -9.10797,9.592524 -16.43381,15.486534 -28.98045,23.31624 -2.03618,1.270677 -2.19621,1.456104 -1.76388,2.043754 4.45079,6.049764 7.90059,11.695115 9.32712,15.263194 0.44318,1.108479 0.85517,1.63288 1.25897,1.602462 0.33012,-0.02487 0.53038,-0.158215 0.44502,-0.296328 -0.16035,-0.259458 1.31893,-0.798398 3.2479,-1.183294 1.01165,-0.20186 1.12253,-0.363272 1.33148,-1.938445 0.49766,-3.751544 3.77806,-6.719152 7.41004,-6.70349 4.59406,0.01981 8.50558,3.727572 8.93562,8.470142 0.21945,2.420097 -0.27975,4.084749 -1.83657,6.124297 -1.11429,1.459798 -1.15211,1.614263 -0.98093,4.006657 0.31132,4.351221 -1.60123,8.873555 -4.94137,11.684094 -2.23449,1.8802 -4.34477,3.03616 -6.22991,3.41258 -1.91518,0.38242 -1.9676,0.42529 -2.56631,2.09872 -0.33616,0.93958 -0.74789,1.80081 -0.91496,1.91385 -0.6758,0.45723 -0.72406,1.55184 -0.18361,4.16397 0.81097,3.91956 0.81977,13.8384 0.0154,17.35142 -1.70582,7.44993 -6.06028,11.75507 -12.86508,12.71938 -7.17403,1.01665 -13.05883,-2.10524 -21.53917,-11.42653 l -1.86463,-2.04953 -5.72009,1.12515 c -3.14605,0.61884 -8.10003,1.39187 -11.00883,1.71786 l -5.28873,0.59269 -1.46226,3.61041 c -2.77614,6.85446 -6.18332,11.18188 -10.28473,13.06249 -2.71469,1.24477 -8.7512,1.49805 -11.61755,0.48745 z m 3.80367,-8.37805 c 1.05387,-0.31147 2.07487,-0.66622 2.26889,-0.78835 0.35394,-0.22277 0.56197,-0.28327 1.25555,-0.36513 0.20547,-0.0242 0.28595,-0.18592 0.17882,-0.35925 -0.10712,-0.17333 0.21974,-0.41918 0.72637,-0.54633 1.36497,-0.34259 0.82704,-0.58009 -1.67279,-0.73857 -2.79131,-0.17696 -3.88288,-0.39694 -6.26698,-1.26294 -1.04416,-0.37928 -1.98742,-0.60065 -2.09613,-0.49194 -0.25486,0.25487 0.52509,2.40882 1.42377,3.93198 0.80693,1.36764 1.37132,1.45138 4.1825,0.62053 z m 10.19398,-4.70217 c 0.83972,-1.56902 0.60582,-1.68077 -3.95634,-1.89022 -2.51273,-0.11535 -6.09245,-0.57184 -8.55257,-1.09061 -2.67644,-0.56439 -4.35435,-0.76891 -4.56665,-0.5566 -0.56104,0.56104 0.26112,2.2365 1.35466,2.76062 1.51455,0.72591 6.5808,1.36447 11.22298,1.41458 3.7504,0.0405 4.16652,-0.0185 4.49792,-0.63777 z m -1.58273,-4.69972 c 2.24114,-3.67454 2.27365,-3.79013 1.06598,-3.79013 -0.53525,0 -0.88195,-0.20109 -0.88195,-0.51153 0,-0.40481 -0.60718,-0.51335 -2.91041,-0.52025 -2.76451,-0.008 -5.57987,-0.44622 -10.31875,-1.60511 -1.30673,-0.31956 -2.16195,-0.38572 -2.235,-0.1729 -0.0651,0.18961 -0.26745,0.25257 -0.44971,0.13993 -0.18226,-0.11265 -0.30225,-0.0739 -0.26664,0.086 0.0356,0.15994 -0.0435,0.53395 -0.17583,0.83114 -0.13232,0.29718 -0.11592,1.40656 0.0365,2.46528 l 0.27703,1.92496 2.25903,0.60965 c 3.54754,0.9574 7.74073,1.62326 10.43245,1.65664 2.41932,0.03 2.4836,0.007 3.16736,-1.11368 z m -0.8743,-3.96652 c 0,-0.097 0.0794,-0.17639 0.17639,-0.17639 0.097,0 0.17639,0.0794 0.17639,0.17639 0,0.097 -0.0794,0.17639 -0.17639,0.17639 -0.097,0 -0.17639,-0.0794 -0.17639,-0.17639 z m 1.99907,4.17453 c -0.12935,-0.12935 -0.34102,-0.12935 -0.47037,0 -0.12935,0.12936 -0.0235,0.23519 0.23519,0.23519 0.2587,0 0.36453,-0.10583 0.23518,-0.23519 z m 0.70556,-1.05833 c -0.12935,-0.12935 -0.23519,-0.0235 -0.23519,0.23519 0,0.2587 0.10584,0.36453 0.23519,0.23518 0.12935,-0.12935 0.12935,-0.34102 0,-0.47037 z m 49.98222,-1.17673 c 3.2334,-1.03575 9.29112,-4.34436 10.54856,-5.76142 0.33955,-0.38265 0.63564,-1.02863 0.65798,-1.4355 0.0517,-0.94186 -0.0711,-2.11084 -0.24019,-2.28656 -0.26468,-0.27501 -2.22585,0.74681 -2.42389,1.26291 -0.11411,0.29737 -0.43759,0.44411 -0.7309,0.33155 -0.28941,-0.11106 -0.5262,-0.0368 -0.5262,0.16498 0,0.56688 -0.75726,1.19907 -2.84565,2.37564 -2.10692,1.18702 -7.53372,3.48921 -10.53847,4.4707 l -1.91885,0.62678 1.03691,0.84868 c 1.24934,1.02256 2.16797,0.9439 6.9807,-0.59776 z m -49.15907,-0.17558 c 0,-0.097 -0.0794,-0.17639 -0.17639,-0.17639 -0.097,0 -0.17639,0.0794 -0.17639,0.17639 0,0.097 0.0794,0.17639 0.17639,0.17639 0.097,0 0.17639,-0.0794 0.17639,-0.17639 z m 55.03332,0 c 0,-0.097 -0.0794,-0.17639 -0.17639,-0.17639 -0.097,0 -0.17639,0.0794 -0.17639,0.17639 0,0.097 0.0794,0.17639 0.17639,0.17639 0.097,0 0.17639,-0.0794 0.17639,-0.17639 z m -54.32777,-0.70556 c 0,-0.097 -0.0794,-0.17639 -0.17639,-0.17639 -0.097,0 -0.17639,0.0794 -0.17639,0.17639 0,0.097 0.0794,0.17639 0.17639,0.17639 0.097,0 0.17639,-0.0794 0.17639,-0.17639 z m -0.35278,-0.70555 c 0,-0.097 -0.0794,-0.17639 -0.17638,-0.17639 -0.097,0 -0.17639,0.0794 -0.17639,0.17639 0,0.097 0.0794,0.17638 0.17639,0.17638 0.097,0 0.17638,-0.0794 0.17638,-0.17638 z m 43.56806,-1.59769 c 3.78737,-1.13852 7.57535,-2.81293 10.73303,-4.74435 2.3696,-1.44939 4.37469,-3.24118 4.10868,-3.6716 -0.10652,-0.17235 0.0333,-0.50171 0.31064,-0.73191 0.52026,-0.43178 0.37253,-1.42529 -0.21194,-1.42529 -0.18145,0 -0.52166,-0.16169 -0.756,-0.35931 -0.23435,-0.19763 -0.80756,-0.67388 -1.27381,-1.05834 -0.46625,-0.38446 -0.65532,-0.69901 -0.42016,-0.69901 0.23517,0 0.32947,-0.15875 0.20955,-0.35278 -0.11991,-0.19403 -0.77365,-0.35278 -1.45275,-0.35278 -0.80551,0 -1.15164,-0.13442 -0.99573,-0.38669 0.14846,-0.24022 -0.0107,-0.33861 -0.42016,-0.25975 -0.36252,0.0698 -0.65914,0.36289 -0.65914,0.65127 0,0.88743 -2.18785,1.58557 -2.74873,0.87712 -0.16072,-0.20301 -0.2356,-0.1005 -0.17639,0.24144 0.0566,0.32683 -0.0381,0.59108 -0.21043,0.58723 -0.17234,-0.004 -0.45015,0.205 -0.61736,0.46411 -0.24906,0.38592 -0.36684,0.37542 -0.6514,-0.0581 -0.29814,-0.45417 -0.34814,-0.44262 -0.35278,0.0815 -0.005,0.60763 -1.45638,1.22253 -2.42205,1.02642 -0.26201,-0.0532 -0.38198,0.056 -0.26661,0.24266 0.25108,0.40626 -0.76307,0.85809 -1.25024,0.557 -0.19044,-0.1177 -0.0591,-0.42416 0.29642,-0.69141 0.35115,-0.26401 -0.78923,0.0527 -2.53419,0.70391 -2.36393,0.88213 -3.17325,1.34438 -3.175,1.81342 -10e-4,0.40777 -0.39057,0.73044 -1.10449,0.91605 -0.84674,0.22014 -1.15126,0.53212 -1.3141,1.34629 -0.12852,0.64259 -0.43191,1.05974 -0.77075,1.05974 -0.33256,0 -0.4569,-0.1649 -0.30709,-0.40728 0.15958,-0.25821 0.0964,-0.31128 -0.1727,-0.14498 -0.3233,0.19981 -0.32676,0.37996 -0.0145,0.75617 0.22543,0.27164 0.55064,0.40688 0.72268,0.30055 0.17205,-0.10632 0.31281,0.15623 0.31281,0.58345 0,0.75447 3.0773,4.20822 3.74196,4.19974 0.17324,-0.002 1.90248,-0.48124 3.84276,-1.0645 z m -4.05695,-7.92731 c 0,-0.097 0.0794,-0.17639 0.17639,-0.17639 0.097,0 0.17639,0.0794 0.17639,0.17639 0,0.097 -0.0794,0.17638 -0.17639,0.17638 -0.097,0 -0.17639,-0.0794 -0.17639,-0.17638 z m 0.70556,-0.14836 c 0,-0.17861 0.47443,-0.42895 1.05429,-0.55631 0.57985,-0.12736 1.14485,-0.3781 1.25554,-0.5572 0.24297,-0.39314 0.86517,-0.43347 0.86517,-0.0561 0,0.2347 -2.5297,1.49433 -3.00103,1.49433 -0.0957,0 -0.17397,-0.14613 -0.17397,-0.32474 z m 12.69999,-5.49609 c 0,-0.097 0.0794,-0.17639 0.17639,-0.17639 0.097,0 0.17639,0.0794 0.17639,0.17639 0,0.097 -0.0794,0.17639 -0.17639,0.17639 -0.097,0 -0.17639,-0.0794 -0.17639,-0.17639 z M 173.096,128.2801 c 0.11992,-0.19403 0.13866,-0.35278 0.0416,-0.35278 -0.097,0 -0.2745,0.15875 -0.39441,0.35278 -0.11992,0.19402 -0.13866,0.35277 -0.0416,0.35277 0.097,0 0.2745,-0.15875 0.39441,-0.35277 z m -0.88194,-0.17639 c 0,-0.097 -0.0794,-0.17639 -0.17639,-0.17639 -0.097,0 -0.17639,0.0794 -0.17639,0.17639 0,0.097 0.0794,0.17639 0.17639,0.17639 0.097,0 0.17639,-0.0794 0.17639,-0.17639 z m 4.93889,-0.68418 c 2.36338,-0.26366 3.33043,-0.58923 2.77316,-0.93365 -0.26088,-0.16122 -0.5634,-0.1203 -0.69594,0.0941 -0.28035,0.45363 -1.01889,0.0708 -1.01889,-0.52815 0,-0.28717 0.53726,-0.38137 1.6757,-0.29382 0.92163,0.0709 1.57165,0.0209 1.4445,-0.11105 -0.12715,-0.13196 -3.06403,-0.26819 -6.52639,-0.30272 -4.63671,-0.0463 -6.4184,0.0538 -6.76286,0.37967 -0.38423,0.36353 -0.3213,0.49687 0.35278,0.7474 0.45124,0.16771 1.05856,0.23143 1.34961,0.14161 0.44435,-0.13714 0.44948,-0.10667 0.032,0.19011 -0.27345,0.19438 -0.71001,0.27174 -0.97014,0.17192 -0.26013,-0.0998 -0.47297,2e-5 -0.47297,0.22187 0,0.43704 3.1564,0.3081 4.3794,-0.1789 0.51733,-0.206 0.61433,-0.15173 0.41481,0.23205 -0.14323,0.2755 -0.0327,0.22311 0.24561,-0.11644 0.684,-0.83451 1.07085,-0.78295 0.60843,0.0811 -0.33719,0.63004 -0.27793,0.68296 0.60494,0.54021 0.53832,-0.087 1.69313,-0.23794 2.56626,-0.33535 z m -2.11667,-0.58357 c 0,-0.17587 0.3175,-0.31975 0.70556,-0.31975 0.38805,0 0.70555,0.0609 0.70555,0.13524 0,0.0744 -0.3175,0.21827 -0.70555,0.31975 -0.38806,0.10148 -0.70556,0.0406 -0.70556,-0.13524 z m -4.58611,-0.31975 c 0,-0.25871 0.10583,-0.36454 0.23519,-0.23519 0.12935,0.12935 0.12935,0.34102 0,0.47037 -0.12936,0.12935 -0.23519,0.0235 -0.23519,-0.23518 z m 1.41111,0.17639 c 0,-0.097 0.0794,-0.17639 0.17639,-0.17639 0.097,0 0.17639,0.0794 0.17639,0.17639 0,0.097 -0.0794,0.17638 -0.17639,0.17638 -0.097,0 -0.17639,-0.0794 -0.17639,-0.17638 z m 5.05648,-0.0588 c 0.12935,-0.12936 0.34102,-0.12936 0.47037,0 0.12935,0.12935 0.0235,0.23518 -0.23518,0.23518 -0.25871,0 -0.36454,-0.10583 -0.23519,-0.23518 z m -9.28981,0.76435 c 0,-0.097 -0.0794,-0.17639 -0.17639,-0.17639 -0.097,0 -0.17639,0.0794 -0.17639,0.17639 0,0.097 0.0794,0.17639 0.17639,0.17639 0.097,0 0.17639,-0.0794 0.17639,-0.17639 z m 14.66074,-0.84882 c -0.10865,-0.17582 -0.5149,-0.23668 -0.90276,-0.13525 -0.97069,0.25384 -0.88337,0.4549 0.19756,0.4549 0.49652,0 0.81386,-0.14384 0.7052,-0.31965 z m 7.79944,-1.32664 c -0.12935,-0.12935 -0.34102,-0.12935 -0.47037,0 -0.12935,0.12935 -0.0235,0.23518 0.23519,0.23518 0.2587,0 0.36453,-0.10583 0.23518,-0.23518 z m -25.7041,-1.96846 c 0.0958,-1.49253 0.012,-1.71797 -0.77125,-2.07484 -1.45272,-0.66191 -1.98205,-0.19744 -1.98205,1.73917 0,2.03281 0.16413,2.25325 1.57482,2.11506 1.00994,-0.0989 1.07714,-0.20039 1.17848,-1.77939 z m 24.45809,0.86406 c -0.45894,-0.0722 -0.97987,0.0142 -1.15761,0.19191 -0.19571,0.19571 0.13339,0.24748 0.83444,0.13126 0.97963,-0.1624 1.02932,-0.21209 0.32317,-0.32317 z m 2.77472,-0.0434 c 0,-0.15567 -0.43213,-0.20043 -0.96028,-0.0995 -0.85293,0.16305 -0.88251,0.2118 -0.26459,0.4361 0.73605,0.26718 1.22487,0.13284 1.22487,-0.33663 z m -32.72506,-1.95925 c 0.0907,-1.68429 0.0625,-1.73834 -1.08385,-2.07551 -1.4117,-0.41524 -1.80811,0.007 -1.81625,1.93499 -0.006,1.33935 0.40151,1.89245 1.5821,2.14918 1.01951,0.2217 1.21387,-0.0745 1.318,-2.00866 z m 37.0728,1.84296 c -0.154,-0.24254 -0.28243,-0.54681 -0.2854,-0.67616 -0.003,-0.12935 -0.10303,-0.33281 -0.22235,-0.45214 -0.11933,-0.11932 -0.17927,0.14526 -0.13322,0.58797 0.10382,0.99802 0.0945,0.9813 0.54738,0.9813 0.21303,0 0.25325,-0.18953 0.0936,-0.44097 z m 1.2967,-0.26459 c -0.29104,-0.18808 -0.68792,-0.34197 -0.88194,-0.34197 -0.19403,0 -0.11466,0.15389 0.17638,0.34197 0.29105,0.18809 0.68792,0.34198 0.88195,0.34198 0.19403,0 0.11465,-0.15389 -0.17639,-0.34198 z m 1.29352,0.1176 c -0.12935,-0.12935 -0.34102,-0.12935 -0.47037,0 -0.12935,0.12935 -0.0235,0.23518 0.23518,0.23518 0.25871,0 0.36454,-0.10583 0.23519,-0.23518 z m -1.99908,-0.99954 c 0,-0.097 -0.0794,-0.17639 -0.17638,-0.17639 -0.097,0 -0.17639,0.0794 -0.17639,0.17639 0,0.097 0.0794,0.17639 0.17639,0.17639 0.097,0 0.17638,-0.0794 0.17638,-0.17639 z m -42.9126,-0.79375 c 0.70267,-2.49562 0.66155,-2.8966 -0.33587,-3.27582 -1.48702,-0.56536 -1.90708,-0.21285 -1.90708,1.60042 0,1.33985 0.13317,1.66347 0.79375,1.92899 1.13482,0.45614 1.2553,0.43506 1.4492,-0.25359 z m 45.73483,0.0882 c 0.35968,-0.43339 0.33557,-0.52917 -0.1332,-0.52917 -0.3148,0 -0.57236,0.15377 -0.57236,0.34171 0,0.18794 -0.27781,0.25234 -0.61736,0.14311 -0.5211,-0.16763 -0.53485,-0.13924 -0.0882,0.18206 0.70363,0.50615 0.89201,0.48777 1.41111,-0.13771 z m 0.70555,0.35278 c 0,-0.097 -0.0794,-0.17639 -0.17639,-0.17639 -0.097,0 -0.17639,0.0794 -0.17639,0.17639 0,0.097 0.0794,0.17639 0.17639,0.17639 0.097,0 0.17639,-0.0794 0.17639,-0.17639 z m 2.82222,-0.35278 c 0,-0.097 -0.0794,-0.17639 -0.17639,-0.17639 -0.097,0 -0.17638,0.0794 -0.17638,0.17639 0,0.097 0.0794,0.17639 0.17638,0.17639 0.097,0 0.17639,-0.0794 0.17639,-0.17639 z m -22.04861,-1.05706 c 5.60995,-0.63744 7.87242,-1.00814 12.07101,-1.97778 4.59943,-1.0622 4.54298,-0.99332 3.44088,-4.19857 -3.54513,-10.31043 -7.74729,-25.952963 -8.46343,-31.50508 -0.12037,-0.933257 -0.34911,-1.647632 -0.50831,-1.5875 -0.98024,0.370261 -3.89277,3.627197 -5.57228,6.231222 -1.08206,1.677681 -2.02049,3.116664 -2.0854,3.197739 -0.0649,0.08107 -1.27517,-0.9508 -2.68947,-2.293056 -2.97825,-2.826545 -4.12831,-3.773964 -4.1359,-3.407149 -0.003,0.143621 -0.12203,0.08714 -0.26458,-0.125524 -0.14255,-0.21266 -0.67235,-0.487626 -1.17734,-0.611035 l -0.91815,-0.22438 -0.199,5.726312 c -0.10946,3.149471 -0.53061,7.948812 -0.9359,10.665201 -1.01006,6.76974 -2.4354,19.65757 -2.23365,20.19653 0.23303,0.62252 7.85437,0.57406 13.67152,-0.0869 z m -34.96509,-2.20613 c 0.70788,-3.5702 0.707,-3.58107 -0.32343,-3.97284 -0.53298,-0.20263 -1.02572,-0.31175 -1.09499,-0.24248 -0.0693,0.0693 -0.22701,0.86327 -0.35053,1.76444 -0.16755,1.22241 -0.0763,1.86484 0.35939,2.52976 0.75425,1.15112 1.1703,1.12784 1.40956,-0.0789 z m 4.94955,-0.21409 c -0.28218,-0.73535 -0.85251,-0.7552 -0.85251,-0.0297 0,0.30249 0.15875,0.45187 0.35278,0.33196 0.19403,-0.11992 0.35278,-0.0234 0.35278,0.21436 0,0.23782 0.0831,0.34928 0.18469,0.2477 0.10158,-0.10158 0.0846,-0.44554 -0.0377,-0.76435 z m 14.16314,-2.72182 c 1.30007,-10.84206 1.33397,-11.32253 0.8219,-11.64678 -0.27045,-0.17125 -0.89835,-0.3138 -1.39534,-0.31677 -1.11088,-0.007 -2.35909,-1.11675 -2.67616,-2.38008 -0.13032,-0.51922 0.0265,-4.125717 0.34846,-8.014442 l 0.5854,-7.070409 -0.7937,-0.611 c -0.43654,-0.336051 -0.95246,-0.615509 -1.14649,-0.621019 -0.19403,-0.0055 -0.81296,-0.250004 -1.3754,-0.54332 -0.56244,-0.293317 -1.05339,-0.490776 -1.09098,-0.438799 -0.0376,0.05198 -0.34957,2.078879 -0.69328,4.504226 -0.87047,6.142426 -1.3263,8.010602 -3.91651,16.051393 -1.25006,3.88055 -2.27275,7.23584 -2.27264,7.4562 1.1e-4,0.22035 -0.23694,0.85535 -0.52679,1.41111 -0.28985,0.55575 -0.52797,1.19216 -0.52917,1.41424 -0.003,0.60865 12.87574,4.51907 13.92083,4.22675 0.18758,-0.0525 0.52052,-1.59205 0.73987,-3.4213 z m -12.5462,-4.73701 c 0,-0.097 0.0794,-0.17638 0.17638,-0.17638 0.097,0 0.17639,0.0794 0.17639,0.17638 0,0.097 -0.0794,0.17639 -0.17639,0.17639 -0.097,0 -0.17638,-0.0794 -0.17638,-0.17639 z m 50.57086,7.54457 c 0.88142,-0.40161 0.88879,-0.8104 0.0517,-2.87026 -0.28493,-0.70117 -1.29089,-0.80039 -2.35284,-0.23205 -0.57264,0.30647 -0.67574,0.60636 -0.50388,1.46568 0.39114,1.95566 1.14255,2.39408 2.80498,1.63663 z m 5.96177,-1.86204 c 0.79419,-0.60288 0.77713,-1.18283 -0.076,-2.58195 -0.68187,-1.11831 -0.70772,-1.12686 -2.02715,-0.67045 -1.59302,0.55103 -1.75538,1.06761 -0.81621,2.59696 0.76101,1.23923 1.83316,1.47995 2.91931,0.65544 z m 9.67199,0.2559 c -0.12935,-0.12935 -0.34102,-0.12935 -0.47037,0 -0.12935,0.12935 -0.0235,0.23519 0.23518,0.23519 0.25871,0 0.36454,-0.10584 0.23519,-0.23519 z m -4.66151,-1.93811 c 1.03349,-0.47089 1.09754,-0.90088 0.38738,-2.60054 -0.54555,-1.30568 -1.03763,-1.467 -2.47591,-0.81167 -0.94375,0.43 -0.95436,0.67895 -0.12147,2.85148 0.40828,1.06497 0.85471,1.17825 2.21,0.56073 z m -11.24596,-1.90861 c 1.9258,-0.69283 4.32884,-1.55532 5.34009,-1.91665 2.27613,-0.81329 12.09608,-5.55274 12.09608,-5.838 0,-0.3603 -0.98999,-1.21622 -1.40673,-1.21622 -0.21934,0 -0.31438,-0.13659 -0.2112,-0.30354 0.10318,-0.16694 -0.48261,-0.6035 -1.30174,-0.97014 -2.03225,-0.9096 -6.25413,-4.992793 -8.17131,-7.902888 -2.63392,-3.998042 -5.91675,-11.962515 -7.24669,-17.581197 -0.42029,-1.775622 -0.40177,-1.9317 0.31408,-2.645833 0.94793,-0.945671 0.98448,-0.894494 2.71105,3.795799 1.4753,4.007721 3.85094,9.231634 4.33394,9.53015 0.56832,0.351236 7.5211,-2.253994 10.09666,-3.783245 1.35819,-0.806437 3.02507,-1.767536 3.70417,-2.135777 1.65014,-0.894793 1.80179,-1.218589 1.22136,-2.607755 -1.30089,-3.113475 -7.35641,-12.037969 -8.18873,-12.06836 -0.24253,-0.0089 -0.44097,-0.192519 -0.44097,-0.408141 0,-0.410285 -2.477,-0.115105 -2.82141,0.336224 -0.0975,0.127712 -0.4947,0.286433 -0.88275,0.352714 -0.38806,0.06628 -0.75848,0.264718 -0.82315,0.440972 -0.0647,0.176254 -0.32305,0.320462 -0.57417,0.320462 -0.25111,0 -0.6542,0.238125 -0.89574,0.529167 -0.24154,0.291041 -0.73723,0.529166 -1.10153,0.529166 -0.3643,0 -0.66236,0.15875 -0.66236,0.352778 0,0.194028 -0.21383,0.352778 -0.47519,0.352778 -0.26135,0 -0.84126,0.3175 -1.2887,0.705555 -0.44743,0.388056 -1.02734,0.705556 -1.2887,0.705556 -0.26135,0 -0.47519,0.14154 -0.47519,0.314534 0,0.172993 -0.39687,0.414143 -0.88194,0.535888 -0.48507,0.121744 -0.88194,0.382429 -0.88194,0.5793 0,0.196871 -0.43683,0.789158 -0.97073,1.316195 -1.02351,1.010354 -3.61538,4.438726 -3.61538,4.782208 0,0.110909 -0.40213,0.79421 -0.89361,1.518448 -1.03169,1.520287 -0.99185,2.294162 0.405,7.866072 1.32015,5.265959 1.39401,6.377297 0.49933,7.51305 -0.45121,0.57279 -1.43391,1.163464 -2.4143,1.451167 -1.42612,0.418506 -1.63983,0.600905 -1.55488,1.327081 0.13835,1.182622 4.79611,15.481472 5.04312,15.481852 0.11149,1.7e-4 1.77836,-0.56655 3.70416,-1.25937 z m 15.31951,-7.73615 c 0,-0.097 0.0794,-0.17639 0.17639,-0.17639 0.097,0 0.17638,0.0794 0.17638,0.17639 0,0.097 -0.0794,0.17639 -0.17638,0.17639 -0.097,0 -0.17639,-0.0794 -0.17639,-0.17639 z m 9.87777,8.81944 c 0,-0.097 -0.0794,-0.17638 -0.17639,-0.17638 -0.097,0 -0.17639,0.0794 -0.17639,0.17638 0,0.097 0.0794,0.17639 0.17639,0.17639 0.097,0 0.17639,-0.0794 0.17639,-0.17639 z m -0.30778,-0.76331 c 0.44288,-0.53687 0.40896,-0.54784 -0.39778,-0.1286 -1.18266,0.6146 -1.27169,0.71553 -0.63115,0.71553 0.29962,0 0.76264,-0.26412 1.02893,-0.58693 z m -7.94761,-0.68799 c 0.65991,-0.31315 1.19984,-0.71874 1.19984,-0.9013 0,-0.47104 -1.39166,-3.46823 -1.61037,-3.46823 -0.53925,0 -2.97574,1.483 -2.97574,1.81122 0,0.60378 1.50394,3.12767 1.86373,3.12767 0.17748,0 0.86262,-0.25621 1.52254,-0.56936 z m 5.39608,-2.98075 c 1.05891,-0.5116 1.44547,-0.88705 1.30099,-1.26357 -0.11306,-0.29463 -0.20557,-0.66005 -0.20557,-0.81204 0,-0.15199 -0.32753,-0.69274 -0.72785,-1.20167 l -0.72785,-0.92531 -1.38881,0.70852 c -0.80986,0.41316 -1.38827,0.96289 -1.3875,1.31871 0.001,0.5478 1.23011,2.90325 1.51473,2.90325 0.0634,0 0.79326,-0.32755 1.62186,-0.72789 z m 5.03639,-2.67818 c 0.82808,-0.7494 0.81213,-1.20947 -0.0953,-2.74738 -0.77349,-1.31097 -1.70587,-1.60378 -2.40902,-0.75654 -0.31966,0.38517 -0.2877,0.79962 0.14074,1.82502 0.56581,1.35417 1.17807,2.26275 1.52479,2.26275 0.10649,0 0.48393,-0.26273 0.83875,-0.58385 z m -87.05787,-0.32695 c 0.33614,-0.87596 0.25884,-2.45279 -0.10148,-2.07018 -0.48444,0.51442 -0.85096,2.6282 -0.45571,2.6282 0.18868,0 0.43942,-0.25111 0.55719,-0.55802 z m 7.9271,-2.93421 c 0.50698,-1.5164 0.50807,-2.15222 0.004,-2.15222 -0.21848,0 -1.82632,-0.57176 -3.57298,-1.27059 -3.46113,-1.384773 -3.57906,-1.361643 -3.99262,0.78306 -0.16745,0.86835 -0.0314,1.28071 0.64624,1.95832 0.4721,0.47209 1.02303,0.80346 1.2243,0.73637 0.20128,-0.0671 0.62129,0.13335 0.93336,0.44542 0.31207,0.31207 0.69819,0.48658 0.85802,0.3878 0.15984,-0.0988 0.91512,0.0375 1.67841,0.30292 1.55843,0.54187 1.66048,0.48716 2.22158,-1.19108 z m 69.89814,1.19917 c 0,-0.097 -0.0794,-0.17639 -0.17639,-0.17639 -0.097,0 -0.17639,0.0794 -0.17639,0.17639 0,0.097 0.0794,0.17639 0.17639,0.17639 0.097,0 0.17639,-0.0794 0.17639,-0.17639 z m 0.58796,-0.76435 c -0.12935,-0.12935 -0.23518,-0.0235 -0.23518,0.23519 0,0.2587 0.10583,0.36453 0.23518,0.23518 0.12935,-0.12935 0.12935,-0.34102 0,-0.47037 z m -1.05833,0 c -0.12935,-0.12935 -0.34102,-0.12935 -0.47037,0 -0.12935,0.12935 -0.0235,0.23519 0.23518,0.23519 0.25871,0 0.36454,-0.10584 0.23519,-0.23519 z m 13.04451,-0.65125 c 0.11264,-0.29351 0.0297,-0.74468 -0.1844,-1.0026 -0.21405,-0.25791 -0.28856,-0.56956 -0.16558,-0.69254 0.36961,-0.36961 -0.59517,-1.27197 -1.13746,-1.06388 -0.66957,0.25694 -0.63529,1.02022 0.10186,2.26811 0.67493,1.14257 1.08039,1.28622 1.38558,0.49091 z m -66.4088,-5.198981 c 0.10806,-1.212673 0.28404,-4.42736 0.39104,-7.143749 0.10701,-2.716389 0.28212,-5.677531 0.38915,-6.580317 0.19095,-1.610759 0.17381,-1.645992 -0.91736,-1.885654 -0.61157,-0.134324 -1.16515,-0.189431 -1.23016,-0.12246 -0.2552,0.262868 -1.33234,16.841173 -1.1287,17.371841 0.13115,0.34178 0.62852,0.5652 1.25821,0.5652 1.02122,0 1.04512,-0.0426 1.23782,-2.204861 z m -13.74998,-2.933842 c 1.4252,-4.847417 2.6539,-10.091907 2.6659,-11.378855 0.0103,-1.102203 -0.8806,-1.922999 -2.13502,-1.967065 -0.5669,-0.01991 -1.0311,-0.174709 -1.03154,-0.343988 -4.4e-4,-0.169278 -0.22567,-0.12116 -0.5005,0.106929 -0.39722,0.329662 -0.52631,0.284262 -0.62951,-0.221388 -0.096,-0.470389 -0.37087,-0.222545 -1.05512,0.951405 -1.20622,2.069466 -5.57679,13.057985 -5.57679,14.021207 0,0.603611 0.51642,0.940525 2.73403,1.783698 3.4722,1.320189 3.74636,1.419582 4.00876,1.45335 0.11902,0.0153 0.80293,-1.967062 1.51979,-4.405293 z m -1.5598,-12.676573 c 0,-0.09701 0.0794,-0.176389 0.17639,-0.176389 0.097,0 0.17639,0.07938 0.17639,0.176389 0,0.09701 -0.0794,0.176389 -0.17639,0.176389 -0.097,0 -0.17639,-0.07937 -0.17639,-0.176389 z m 91.02109,15.655019 c 1.70246,-0.887374 2.89699,-2.406987 3.46428,-4.40706 1.23479,-4.353496 -0.7207,-6.685369 -2.58616,-3.083927 -1.22326,2.361606 -2.9133,3.317058 -4.28156,2.420541 -0.64226,-0.420827 -0.83433,-0.864849 -0.83433,-1.928831 0,-0.760187 0.16134,-1.481872 0.35853,-1.603743 0.1972,-0.121872 0.27544,-0.356044 0.17387,-0.520383 -0.10157,-0.164339 -0.0189,-0.734845 0.18374,-1.267792 0.49338,-1.29769 0.0608,-1.623798 -1.51315,-1.140735 -1.87885,0.576634 -2.73137,2.35033 -2.7288,5.677357 0.004,4.970245 1.10321,6.603719 4.44447,6.603719 1.23194,0 2.3782,-0.258719 3.31911,-0.749146 z m -21.86177,-0.66027 c 1.2469,-0.346399 4.22329,-2.940997 4.21305,-3.67263 -0.008,-0.570107 -0.68803,-1.552244 -0.69476,-1.00337 -0.003,0.242535 -0.12446,0.401519 -0.26998,0.353299 -0.22178,-0.07349 -8.46651,2.520575 -8.86144,2.788104 -0.0716,0.04851 0.0872,0.304473 0.35278,0.568815 1.32817,1.321713 2.92429,1.614756 5.26035,0.965782 z m -0.36766,-1.941972 c 0,-0.09701 0.0794,-0.176389 0.17639,-0.176389 0.097,0 0.17639,0.07937 0.17639,0.176389 0,0.09701 -0.0794,0.176389 -0.17639,0.176389 -0.097,0 -0.17639,-0.07937 -0.17639,-0.176389 z m -3.71932,-2.100359 c 6.315,-2.119876 11.12765,-5.11723 11.12765,-6.930378 0,-0.358477 -0.34968,-1.37152 -0.77706,-2.251206 -0.87616,-1.803399 -1.67128,-1.968328 -3.01435,-0.625257 -1.1453,1.145306 -5.99216,3.484449 -10.02033,4.835913 -1.93805,0.650221 -3.6135,1.271993 -3.72322,1.381716 -0.10972,0.109723 0.0601,0.59574 0.37746,1.080039 0.31732,0.484298 0.57695,1.052492 0.57695,1.262653 0,0.505089 1.81226,2.086804 2.40724,2.101008 0.25683,0.0061 1.62738,-0.378388 3.04566,-0.854488 z m -21.68068,-0.28159 c 0,-0.436947 -0.31969,-2.461009 -0.71043,-4.497916 -0.39074,-2.036907 -0.89902,-5.56878 -1.12951,-7.848606 -0.23049,-2.279826 -0.53694,-4.145139 -0.681,-4.145139 -0.14406,0 -0.65776,0.357188 -1.14156,0.79375 -0.87455,0.789181 -0.87767,0.814058 -0.54056,4.321528 0.36735,3.82216 1.16028,8.737605 1.74992,10.847915 0.32037,1.146594 0.50849,1.322917 1.41139,1.322917 0.84542,0 1.04175,-0.149723 1.04175,-0.794449 z m 17.28611,0.580084 c 0,-0.291969 -0.685,-0.457077 -0.84205,-0.202964 -0.10188,0.164855 0.0459,0.299736 0.3284,0.299736 0.28251,0 0.51365,-0.04355 0.51365,-0.09677 z m 17.22883,-3.312586 c -0.45159,-1.164621 -0.93958,-2.117493 -1.08442,-2.117493 -0.14484,0 0.13216,1.050776 0.61556,2.335057 0.48341,1.284281 0.89145,2.435218 0.90677,2.557638 0.0153,0.12242 0.1078,0.02452 0.20551,-0.217563 0.0977,-0.24208 -0.19182,-1.393017 -0.64342,-2.557639 z m -4.17605,2.292229 c 0,-0.09701 -0.0794,-0.176389 -0.17639,-0.176389 -0.097,0 -0.17639,0.07937 -0.17639,0.176389 0,0.09701 0.0794,0.176389 0.17639,0.176389 0.097,0 0.17639,-0.07937 0.17639,-0.176389 z m 23.72591,-10.818802 c 0.56364,-1.126554 0.57087,-1.333593 0.0809,-2.315807 -0.88932,-1.782679 -1.39205,-2.033998 -3.00435,-1.501892 -0.82339,0.271743 -1.41046,0.692868 -1.42588,1.022828 -0.0144,0.308493 -0.095,0.932624 -0.17911,1.386958 -0.10876,0.587604 0.15639,1.114977 0.91852,1.826912 1.48058,1.383068 2.78403,1.231779 3.60994,-0.418999 z m -75.62924,-0.194395 c -1.38431,-1.733371 -1.85217,-2.175233 -2.12482,-2.006728 -0.16479,0.101847 -0.29991,-0.02263 -0.30025,-0.276615 -6.7e-4,-0.488001 -2.42637,-2.161735 -4.62712,-3.192713 -2.1659,-1.014657 -5.03304,-1.622947 -8.67903,-1.841341 -7.91519,-0.47412 -9.57241,-0.599833 -12.06489,-0.915223 -1.43963,-0.182166 -2.6755,-0.273213 -2.74639,-0.202327 -0.18436,0.184359 5.25468,1.429649 10.93052,2.50259 6.92206,1.308519 12.99778,3.151219 16.30559,4.945309 3.1314,1.698407 4.10712,1.989687 3.30639,0.987048 z m 6.04222,-0.416025 c 0,-0.526547 2.84786,-5.056364 4.11023,-6.537748 0.64979,-0.762529 1.18144,-1.595967 1.18144,-1.852084 0,-0.256117 0.15875,-0.465667 0.35278,-0.465667 0.19402,0 0.35277,-0.15875 0.35277,-0.352778 0,-0.59705 -1.46215,-0.401612 -6.56109,0.876985 -2.6973,0.676369 -5.31429,1.231994 -5.81553,1.234722 -0.50123,0.0027 -1.00923,0.10285 -1.12887,0.222494 -0.22368,0.223679 6.76888,7.151663 7.24369,7.176795 0.14552,0.0077 0.26458,-0.128521 0.26458,-0.302719 z m 16.24246,-10.601542 c 2.96171,-1.924314 8.58454,-4.818509 21.32837,-10.978181 6.91562,-3.342634 12.37725,-6.950143 21.02571,-13.887868 10.32926,-8.286048 21.19164,-22.415247 25.35349,-32.978443 3.02626,-7.6809626 4.28901,-18.4873616 3.54853,-30.367791 -0.59204,-9.498809 -2.3957,-20.829805 -3.31115,-20.801386 -0.22148,0.0069 -0.79957,0.239375 -1.28464,0.516666 -0.48507,0.27729 -1.37328,0.50979 -1.9738,0.516665 -1.7063,0.01954 -2.51156,-1.210263 -2.5861,-3.949527 -0.0191,-0.701628 -0.24833,-1.019166 -0.84363,-1.168576 -0.81433,-0.204385 -2.71036,-2.710912 -2.71036,-3.583066 0,-0.252203 -0.15875,-0.458551 -0.35278,-0.458551 -0.19402,0 -0.35277,-0.185209 -0.35277,-0.411579 0,-0.22636 0.10343,-0.30814 0.22984,-0.18172 0.12642,0.12641 0.44289,-0.18079 0.70327,-0.68267 0.54484,-1.05019 0.28095,-2.60459 -0.44219,-2.60459 -0.27001,0 -0.49335,-0.19843 -0.49633,-0.44097 -0.004,-0.29398 -0.11939,-0.26458 -0.34737,0.0882 -0.21607,0.33434 -0.34396,0.37096 -0.34738,0.0995 -0.003,-0.23634 -0.39157,-0.63322 -0.86355,-0.88195 -0.47198,-0.24873 -2.56196,-2.83349 -4.6444,-5.7439 -3.99706,-5.5863 -4.7446,-6.762 -7.17769,-11.28889 -3.33981,-6.21389 -4.75908,-8.14782 -10.35582,-14.11111 -6.82762,-7.27478 -15.79465,-15.11695 -21.23754,-18.573428 -1.16417,-0.73929 -2.32001,-1.51699 -2.56854,-1.72821 -0.98262,-0.83511 -6.10183,-3.86949 -8.91074,-5.28179 -6.35237,-3.19391 -12.84999,-4.91855 -14.73331,-3.91063 -0.66006,0.35325 -0.73141,0.32466 -0.54718,-0.2193 0.14366,-0.42417 0.0179,-0.36543 -0.3907,0.18248 -0.43045,0.57721 -0.82072,0.74723 -1.36633,0.59525 -0.70821,-0.19729 -0.69961,-0.16041 0.11819,0.50706 0.48507,0.39591 1.05355,0.72336 1.2633,0.72767 0.20975,0.004 0.57612,0.36503 0.81417,0.8016 0.23804,0.43656 1.86988,1.82434 3.62632,3.08395 3.00709,2.15652 9.93943,7.701048 13.38291,10.703738 4.0098,3.49653 12.58393,12.29444 15.70044,16.11022 0.55464,0.6791 1.09417,1.3141 1.19895,1.41111 1.12651,1.04306 8.27761,11.0009 12.03378,16.75694 5.19012,7.95346 7.86023,12.82191 11.51212,20.99028 1.57118,3.514328 4.32972,11.373131 5.51041,15.69861 3.73028,13.665989 4.35684,24.85145636 1.9297,34.449511 -2.17485,8.600349 -7.48125,18.575093 -14.23451,26.757429 -3.0448,3.689109 -10.79312,11.540797 -14.10602,14.294197 -1.16284,0.966455 -2.34436,1.974864 -2.62558,2.240909 -1.41195,1.335676 -6.26253,4.715696 -13.30988,9.274657 -7.85488,5.081355 -9.17874,5.99778 -11.26378,7.797254 -1.94013,1.674398 -6.84622,7.970601 -6.84622,8.786047 0,0.172751 1.71317,-1.103845 3.80704,-2.836881 2.09388,-1.733037 5.30857,-4.126558 7.14375,-5.318936 z m 36.8387,-137.973177 c -0.11729,-0.18978 -0.34175,-0.26564 -0.4988,-0.16857 -0.3536,0.21853 -2.38216,-0.76703 -2.74825,-1.33522 -0.14786,-0.22949 -0.74509,-0.66094 -1.32717,-0.95877 -0.95411,-0.48818 -1.07854,-0.75129 -1.26351,-2.6716 -0.11285,-1.17154 -0.31863,-2.31365 -0.45729,-2.538 -0.26931,-0.43575 0.33705,-1.83996 0.97986,-2.26918 0.55442,-0.37019 0.91733,-0.3292 0.91733,0.10361 0,0.20548 -0.14182,0.28596 -0.31515,0.17883 -0.43141,-0.26663 -0.84724,1.53248 -0.47127,2.03896 0.16627,0.22398 0.34412,1.04223 0.39522,1.81834 0.12443,1.88973 0.63542,2.37611 2.06545,1.96599 1.03575,-0.29705 1.20707,-0.22034 2.1717,0.97242 0.92649,1.14562 1.10652,1.23391 1.56139,0.76575 0.28279,-0.29104 0.62127,-0.88635 0.75218,-1.32291 0.18049,-0.60188 0.0952,-0.79375 -0.35266,-0.79375 -0.3889,0 -0.51891,-0.18703 -0.38059,-0.54749 0.11555,-0.30112 0.0698,-0.46078 -0.10168,-0.3548 -0.61645,0.38098 -0.67318,-0.79866 -0.0696,-1.44655 0.9969,-1.07005 1.11084,-2.05193 0.24514,-2.11247 -1.74984,-0.12239 -2.32516,-0.30278 -2.32516,-0.72904 0,-0.24975 -0.16812,-0.4541 -0.3736,-0.4541 -0.20548,0 -0.25956,-0.18452 -0.12018,-0.41004 0.17753,-0.28724 0.42148,-0.208 0.81457,0.26458 0.32094,0.38584 1.06211,0.69741 1.73141,0.72785 1.42111,0.0646 2.26486,1.01582 1.98686,2.23984 -0.37414,1.64735 -0.43906,3.52777 -0.12179,3.52777 0.48872,0 0.37317,2.33566 -0.13647,2.75863 -0.81395,0.67551 -2.32937,1.11979 -2.55797,0.74992 z m 0.71745,-0.68632 c 0.11991,-0.19403 -0.0388,-0.35278 -0.35278,-0.35278 -0.31395,0 -0.4727,0.15875 -0.35278,0.35278 0.11992,0.19402 0.27867,0.35277 0.35278,0.35277 0.0741,0 0.23286,-0.15875 0.35278,-0.35277 z m -1.59458,-0.5377 c -0.24543,-0.29573 -0.51889,-0.46504 -0.60769,-0.37624 -0.24465,0.24465 0.25243,0.91394 0.67878,0.91394 0.23393,0 0.20716,-0.20242 -0.0711,-0.5377 z m 2.8293,0.009 c 0,-0.097 -0.0794,-0.17639 -0.17639,-0.17639 -0.097,0 -0.17639,0.0794 -0.17639,0.17639 0,0.097 0.0794,0.17639 0.17639,0.17639 0.097,0 0.17639,-0.0794 0.17639,-0.17639 z m -4.23334,-0.70556 c 0,-0.097 -0.0794,-0.17639 -0.17638,-0.17639 -0.097,0 -0.17639,0.0794 -0.17639,0.17639 0,0.097 0.0794,0.17639 0.17639,0.17639 0.097,0 0.17638,-0.0794 0.17638,-0.17639 z m 4.8213,-0.76435 c -0.12935,-0.12935 -0.23518,-0.0235 -0.23518,0.23519 0,0.2587 0.10583,0.36453 0.23518,0.23518 0.12935,-0.12935 0.12935,-0.34102 0,-0.47037 z m -0.94074,-3.1162 c 0,-0.097 -0.0794,-0.17639 -0.17639,-0.17639 -0.097,0 -0.17639,0.0794 -0.17639,0.17639 0,0.097 0.0794,0.17639 0.17639,0.17639 0.097,0 0.17639,-0.0794 0.17639,-0.17639 z m -4.23333,-4.93889 c 0,-0.097 0.0794,-0.17639 0.17639,-0.17639 0.097,0 0.17638,0.0794 0.17638,0.17639 0,0.097 -0.0794,0.17639 -0.17638,0.17639 -0.097,0 -0.17639,-0.0794 -0.17639,-0.17639 z m -1.31872,-0.77275 c 0.328,-0.328 0.71461,-0.47812 0.85913,-0.3336 0.14452,0.14452 0.0292,0.41046 -0.25619,0.59096 -0.85886,0.54316 -1.24054,0.38024 -0.60294,-0.25736 z M 96.366844,70.963464 c 0,-0.09165 -0.394663,-2.41659 -0.877029,-5.166533 C 94.943248,62.680974 94.469923,58.05815 94.233633,53.528151 94.020358,49.439401 93.616887,45.333228 93.31141,44.142602 93.012723,42.978435 92.454909,40.279685 92.071825,38.14538 91.68874,36.011075 91.153147,33.0742 90.881618,31.618992 89.712546,25.353574 89.861299,16.050604 91.221937,10.335523 c 0.284965,-1.1969386 0.919475,-3.8604036 1.410021,-5.9188116 1.250401,-5.24687004 2.352311,-8.127966 5.566359,-14.5540154 3.533073,-7.063908 7.840233,-13.6964 12.073693,-18.592023 0.59834,-0.691925 1.88164,-2.189119 2.85178,-3.327098 5.28537,-6.199781 18.73416,-19.830787 25.68115,-26.029097 5.80573,-5.18006 14.22037,-12.04798 16.65218,-13.59129 4.31507,-2.73851 13.18812,-6.57671 13.79678,-5.96805 0.1033,0.1033 -1.4506,1.09398 -3.4531,2.20151 -6.33962,3.50629 -15.79205,10.07628 -15.80564,10.98583 -0.003,0.22451 -2.18891,2.20632 -4.85679,4.40402 -5.14516,4.23838 -11.20424,9.67098 -14.71833,13.19651 -5.7588,5.777558 -15.3116,17.049438 -19.58931,23.11452 -1.26118,1.788144 -2.4518,3.433064 -2.64583,3.655378 -0.3503,0.401365 -0.64406,0.887714 -2.01476,3.335672 -0.39252,0.701021 -0.98554,1.671459 -1.31781,2.156528 -2.14371,3.129506 -5.361691,10.6958844 -7.382418,17.3581494 -3.511433,11.5770686 -4.075046,25.5073726 -1.454091,35.9394296 1.847389,7.353071 2.4675,9.12667 5.047229,14.43575 3.72996,7.676246 9.4149,16.977323 9.4149,15.403624 0,-0.28903 -0.4654,-2.960272 -1.03422,-5.936094 -2.23113,-11.672251 -2.36891,-22.826443 -0.41328,-33.456418 1.73122,-9.410122 4.12046,-16.046072 8.10819,-22.5199226 2.79639,-4.539778 4.60283,-6.80827904 9.61857,-12.078865 2.0357,-2.139135 7.16418,-6.4059004 10.88463,-9.0557374 3.97337,-2.829972 9.24556,-7.837247 12.263,-11.646811 5.32353,-6.721032 7.94021,-11.353616 16.41092,-29.054063 2.39873,-5.01238 5.61918,-10.80545 6.25259,-11.24737 0.13905,-0.097 0.49684,-0.65301 0.79509,-1.23556 0.29825,-0.58254 0.89083,-1.3746 1.31685,-1.76014 0.73592,-0.666 0.7273,-0.59555 -0.17279,1.41194 -0.52105,1.16211 -1.02909,2.31136 -1.12898,2.5539 -0.0999,0.24253 -0.33275,0.44097 -0.51747,0.44097 -0.18472,0 -0.23883,0.15699 -0.12024,0.34887 0.11859,0.19188 -0.0201,0.86657 -0.30817,1.49931 -0.28808,0.63274 -0.75939,1.86481 -1.04735,2.73793 -0.62571,1.89725 -2.80211,7.03256 -3.80058,8.96767 -0.39246,0.76061 -1.10625,2.4262 -1.5862,3.7013 -0.83811,2.226671 -5.80895,12.028578 -8.33477,16.435195 -2.90885,5.074876 -7.69673,12.307204 -8.75785,13.229166 -0.11166,0.09701 -0.29247,0.420212 -0.40181,0.718219 -0.10934,0.298006 -1.20901,1.890454 -2.44371,3.538773 -1.23471,1.648318 -2.43401,3.332067 -2.66513,3.741664 -0.92772,1.6441704 0.56166,1.3780244 4.5099,-0.805901 1.51746,-0.839364 3.34384,-1.77047 4.05862,-2.069124 0.71478,-0.298654 2.9414,-1.573647 4.94804,-2.833319 2.00664,-1.259672 3.72747,-2.290312 3.82406,-2.290312 0.37339,0 4.15857,-2.564061 6.00321,-4.066537 1.06548,-0.867849 2.01705,-1.577907 2.11458,-1.577907 0.0975,0 0.45697,-0.22624 0.79874,-0.502755 0.34176,-0.276516 2.2877,-1.824328 4.32429,-3.439583 3.62685,-2.876517 15.07932,-14.078596 16.888,-16.518772 0.95771,-1.292097 3.66431,-4.790857 4.30586,-5.566107 1.64983,-1.99363 4.6632,-7.07125 6.64132,-11.19084 0.86857,-1.80887 2.37715,-6.61426 3.48859,-11.11249 l 0.30508,-1.23473 0.465,1.3946 c 0.35354,1.06032 0.40723,2.83606 0.22399,7.40833 -0.449,11.20358 -0.67344,14.06633 -1.28864,16.43676 -0.48961,1.886493 -0.731,4.21675 -0.47904,4.624422 0.30628,0.495578 2.58904,-1.762259 5.12268,-5.066772 1.94737,-2.53985 5.25065,-8.46685 5.25065,-9.42111 0,-0.23365 0.13734,-0.33993 0.3052,-0.23619 0.16786,0.10374 0.3902,1.7403 0.49408,3.63679 0.2274,4.15109 0.92074,6.3572 3.99424,12.709196 1.24412,2.571203 2.26203,4.757419 2.26203,4.858258 0,0.300024 1.91781,3.15684 2.20486,3.28442 0.14552,0.06468 0.26458,0.248344 0.26458,0.408152 0,0.159808 0.9686,1.921797 2.15244,3.915533 1.18385,1.993735 2.24372,3.873816 2.35528,4.177958 0.11156,0.304142 0.55959,1.029235 0.99562,1.611319 0.72725,0.97086 4.37444,7.976009 4.37444,8.401983 0,0.101354 0.89674,2.06237 1.99276,4.357814 2.21375,4.6363414 3.43047,7.7465454 5.08291,12.9929784 0.61112,1.940278 1.19846,3.765903 1.3052,4.056945 0.37218,1.014752 0.75074,-2.304577 0.77102,-6.76040104 0.0702,-15.42840136 -4.80295,-33.47168036 -12.94943,-47.94627536 -0.37412,-0.66473 -1.20791,-2.1611 -1.85287,-3.32526 -1.18534,-2.13959 -5.97757,-9.72854 -6.34895,-10.05417 -0.11064,-0.097 -0.94841,-1.35521 -1.86172,-2.796 -0.9133,-1.44078 -2.09724,-3.11105 -2.63098,-3.71171 -0.53374,-0.60067 -1.76306,-2.04122 -2.73183,-3.20123 -0.96876,-1.16001 -2.12358,-2.50599 -2.56624,-2.99106 -0.44267,-0.48507 -1.3963,-1.65876 -2.11917,-2.6082 -2.18384,-2.86834 -15.60176,-16.11803 -18.61034,-18.37701 -1.54676,-1.16139 -4.06467,-3.22514 -5.59534,-4.586108 -2.87211,-2.55369 -5.2966,-4.52357 -9.56418,-7.7708 -1.35819,-1.03346 -2.78694,-2.171 -3.175,-2.52788 -1.14193,-1.05017 -5.51415,-4.19318 -7.23194,-5.19875 -2.75157,-1.61072 -10.63931,-5.49791 -11.15615,-5.49791 -0.2723,0 -0.77075,-0.14842 -1.10767,-0.32981 -1.22528,-0.6597 -7.42019,-2.14723 -11.72507,-2.81546 -2.42535,-0.37647 -8.53722,-0.94134 -13.58194,-1.25526 -5.04472,-0.31392 -10.5216,-0.80192 -12.17083,-1.08445 -4.16282,-0.71312 -4.58612,-0.68558 -4.58612,0.2983 0,0.93161 1.86387,4.70855 3.48987,7.07186 2.78017,4.04082 11.45386,10.95354 15.56304,12.40334 0.79438,0.28028 1.87276,0.73961 2.3964,1.02076 0.52364,0.28114 1.74583,0.85921 2.71597,1.2846 0.97014,0.4254 2.39687,1.07139 3.17052,1.43555 l 1.40663,0.66211 -1.58302,-0.17055 c -4.29619,-0.46285 -15.28392,-0.60299 -18.36355,-0.23422 -8.09233,0.96903 -14.18302,0.82118 -20.56899,-0.49932 -3.242145,-0.67041 -3.616654,-0.66275 -3.015413,0.0617 0.722858,0.871 5.234023,4.189048 7.756833,5.705308 5.17178,3.10835 9.07782,4.26421 15.39865,4.5567 2.56452,0.11867 4.59288,0.32885 4.50746,0.46706 -0.0854,0.13821 -1.38991,0.68608 -2.89888,1.21749 -5.19168,1.82835 -15.98247,7.59104 -21.44079,11.4502 -4.263384,3.01431 -11.618503,8.81655 -14.640279,11.5493 -3.868045,3.49808 -14.061864,11.49697 -16.229915,12.7353 -0.677921,0.38721 -2.343833,1.33721 -3.702028,2.11112 -3.468028,1.97611 -7.240533,3.57398 -9.517717,4.03131 -1.067492,0.21438 -2.128016,0.61525 -2.356721,0.89082 -0.228704,0.27557 -0.269891,0.46688 -0.09153,0.42513 0.178364,-0.0417 0.562424,0.0222 0.853465,0.14215 0.291042,0.11993 2.910417,0.68854 5.820833,1.26357 10.925628,2.158668 22.55733,2.38193 30.817625,0.591524 2.397611,-0.519674 4.425961,-0.878204 4.507443,-0.796724 0.160758,0.16076 -3.875073,2.201158 -8.759856,4.428726 -3.682808,1.679442 -5.270245,2.906829 -8.279097,6.4013 -1.252981,1.455208 -2.967087,3.360208 -3.809124,4.233333 -1.822291,1.88957 -5.689238,9.395984 -6.996771,13.581943 -3.30951,10.5951294 -4.446291,19.9332224 -3.779221,31.044442 0.313389,5.22004 0.593896,7.657604 1.26864,11.024305 0.08749,0.436562 0.276048,0.79375 0.419007,0.79375 0.30204,0 1.419349,-2.372515 2.658187,-5.644444 1.114369,-2.943188 3.01184,-6.922711 4.793915,-10.0541656 0.772933,-1.358195 1.90944,-3.421944 2.525571,-4.586111 1.249082,-2.360114 4.095611,-6.765071 4.555216,-7.049123 0.163563,-0.101087 0.238598,0.09424 0.166745,0.434053 -2.448382,11.579224 -2.791678,14.5557856 -2.79728,24.2539566 -0.0043,7.415749 0.09435,8.956124 0.794643,12.409959 1.265516,6.241513 2.644759,10.547561 4.838732,15.106706 1.120451,2.328333 2.453558,5.106458 2.962458,6.173611 0.943632,1.978774 3.902591,7.088829 4.289768,7.408333 0.117563,0.09701 0.317871,0.414513 0.44513,0.705555 0.637113,1.457076 4.586959,7.401356 4.920627,7.405247 0.145521,0.0017 0.264584,-0.0719 0.264584,-0.16355 z m 79.727766,-2.248065 c 5.21022,-1.00099 13.74057,-3.686611 17.28611,-5.442207 1.64924,-0.816629 3.11768,-1.44665 3.2632,-1.400047 0.14552,0.0466 0.26458,-0.06332 0.26458,-0.244272 0,-0.180952 0.31356,-0.428523 0.69679,-0.550157 0.38323,-0.121633 1.63356,-0.846706 2.77851,-1.611272 1.14495,-0.764567 2.32629,-1.390121 2.6252,-1.390121 0.29892,0 0.5964,-0.131893 0.66108,-0.293096 0.0647,-0.161203 1.86384,-1.618952 3.99814,-3.239442 5.38942,-4.091965 5.81581,-4.459863 10.55134,-9.104082 2.31074,-2.266178 5.83707,-6.184073 7.8363,-8.706434 1.99923,-2.522361 3.79957,-4.777848 4.00075,-5.012194 0.20117,-0.234345 0.36577,-0.596648 0.36577,-0.805117 0,-0.20847 0.35719,-0.522607 0.79375,-0.698084 0.43657,-0.175477 0.58198,-0.329111 0.32314,-0.34141 -0.29683,-0.0141 -0.0771,-0.519208 0.59501,-1.367831 0.5861,-0.740009 1.25992,-1.771884 1.49739,-2.293056 0.23746,-0.521172 0.56501,-0.947585 0.7279,-0.947585 0.16288,0 0.29615,-0.160176 0.29615,-0.355947 0,-0.195771 1.07156,-2.537333 2.38125,-5.203472 3.15726,-6.42725 3.16344,-6.964919 0.18076,-15.7204626 -1.17793,-3.45775504 -2.21252,-6.357662 -2.2991,-6.444237 -0.0866,-0.08657 -0.25558,1.075623 -0.37558,2.58266196 -0.29171,3.66363104 -1.04865,6.39878704 -2.71088,9.79562504 -1.8026,3.6836956 -4.90545,7.8255556 -5.37323,7.1724836 -0.25894,-0.361497 -0.2948,-0.338185 -0.15568,0.101189 0.32222,1.017656 -5.33344,5.907148 -6.20776,5.366792 -0.201,-0.124228 -0.26451,-0.06253 -0.14112,0.137116 0.29879,0.483462 -4.13972,2.446133 -7.11272,3.145185 -4.28811,1.008274 -13.53351,-0.09957 -12.38454,-1.483993 0.34154,-0.41153 1.05937,-0.467159 3.66486,-0.284012 6.37768,0.448307 12.71439,-1.427794 16.91092,-5.006791 1.38068,-1.177505 2.90719,-2.724232 3.39226,-3.437172 0.48507,-0.71294 1.00101,-1.29734 1.14653,-1.298666 0.14552,-0.0013 0.26458,-0.208785 0.26458,-0.461021 0,-0.252236 0.18003,-0.638641 0.40007,-0.858678 1.34663,-1.34663 3.22843,-8.1023496 3.68655,-13.23479264 0.26425,-2.96050396 0.0646,-3.26670496 -1.23097,-1.88766396 -0.43731,0.4655 -1.71101,1.25739096 -2.83043,1.75975796 -1.87318,0.840636 -2.63671,0.941449 -9.58512,1.265584 -4.1524,0.19370504 -8.26419,0.52827304 -9.13731,0.74348504 -1.98993,0.490488 -6.31136,0.190402 -8.64306,-0.600185 -2.58994,-0.87814704 -5.11928,-2.609793 -7.08427,-4.850071 -0.95435,-1.088039 -2.00131,-1.980257 -2.32659,-1.982705 -1.61971,-0.01219 -3.38797,6.851772 -2.96567,11.512056 0.21384,2.359724 1.91859,7.8566186 2.74563,8.8531396 0.49248,0.593408 0.005,0.570489 -0.59302,-0.0279 -1.96564,-1.965632 -4.7924,-8.5760026 -5.83968,-13.65604664 -0.97861,-4.74693496 -0.82292,-11.97553936 0.35293,-16.38708836 0.76719,-2.878334 4.05034,-10.054166 4.60006,-10.054166 0.16684,0 0.40246,-0.312278 0.5236,-0.693952 0.12113,-0.381673 1.31199,-1.803158 2.64634,-3.158854 2.23211,-2.26782 4.03216,-3.513849 7.89668,-5.46623 1.08574,-0.548528 1.4669,-0.958999 1.50159,-1.617074 0.0256,-0.485069 0.15686,-1.298687 0.29177,-1.808038 0.2383,-0.899706 0.18938,-0.933078 -1.7168,-1.171241 -1.07915,-0.134831 -3.2742,-0.136998 -4.87789,-0.0048 l -2.91579,0.240332 -2.292,2.518409 c -4.82279,5.299182 -9.72995,9.991229 -14.76533,14.118077 -3.52667,2.890349 -11.60897,8.406229 -15.04544,10.267974 -1.3582,0.735815 -3.50132,1.914545 -4.7625,2.6194004 -5.2277,2.92168 -9.63679,4.755259 -11.46528,4.767989 -0.97014,0.0068 -2.01378,-0.110074 -2.31921,-0.259618 -0.39904,-0.195379 -1.06918,0.233923 -2.38125,1.52546 -1.00426,0.988546 -1.82593,1.96416 -1.82593,2.16803 0,0.20387 0.478,0.97419196 1.06222,1.71182696 2.99612,3.78291604 6.1366,11.70956364 7.23004,18.24878864 0.6928,4.143262 0.60951,6.562027 -0.23147,6.721401 -0.46871,0.08883 -0.66575,-0.392181 -1.01033,-2.466401 -0.61694,-3.71365 -0.81197,-3.905969 -1.87295,-1.846978 -1.22499,2.377276 -4.50681,5.694736 -6.51945,6.590256 -1.02454,0.455871 -2.69083,0.79838 -4.36699,0.897648 -3.79651,0.224841 -5.74365,-0.524301 -8.42871,-3.242854 -2.32387,-2.352853 -2.99194,-3.548574 -3.55829,-6.368629 -0.21623,-1.076668 -0.509,-1.957578 -0.6506,-1.957578 -0.36192,0 -2.53064,5.850719 -3.72682,10.054166 -1.46371,5.143552 -1.37277,7.129821 0.49946,10.908135 2.39999,4.843381 5.4136,7.395163 10.46926,8.864883 2.74527,0.798074 8.45505,0.535579 11.93247,-0.54857 1.32844,-0.414164 2.50483,-0.66354 2.6142,-0.554169 0.30468,0.304682 -1.30687,1.585173 -3.22117,2.559438 -2.48909,1.266804 -6.27195,1.982884 -9.06455,1.715885 -4.78229,-0.457232 -6.41326,-1.162565 -12.48684,-5.400071 -0.90788,-0.633429 -1.78078,-1.071298 -1.93976,-0.973042 -0.15898,0.09826 -0.2365,0.695893 -0.17225,1.32808 0.0643,0.632186 0.20575,2.498805 0.31446,4.148041 0.22837,3.46491 1.34146,8.430112 2.23057,9.949991 0.73966,1.264416 2.49571,2.485125 6.25723,4.34967 1.55222,0.769421 2.90159,1.478323 2.99861,1.575337 0.097,0.09701 0.41451,0.23259 0.70555,0.30128 0.29104,0.06869 2.11667,0.515326 4.05695,0.992524 6.70224,1.648372 10.27146,2.181782 22.93055,3.426905 0.77611,0.07634 5.69736,0.09097 10.93611,0.03252 7.77148,-0.08671 10.20692,-0.23729 13.22916,-0.817925 z M 157.39739,51.764615 c -1.4552,-0.333796 -3.1601,-0.87883 -3.78866,-1.211188 -0.62856,-0.332359 -1.26356,-0.617638 -1.41111,-0.633955 -1.34487,-0.148716 -4.5476,-2.948343 -7.05868,-6.170266 -2.15814,-2.769056 -3.02711,-8.605954 -1.88468,-12.659381 0.9782,-3.470753 4.29581,-9.236678 5.04736,-8.772196 0.21395,0.132231 0.28568,0.0769 0.16127,-0.124407 -0.31274,-0.506015 3.04193,-3.578137 5.5865,-5.115991 3.8014,-2.297432 7.10833,-3.196581 12.41038,-3.374359 5.75948,-0.193116 8.75232,0.397082 13.0964,2.582656 2.55082,1.283356 7.54712,5.102909 6.67504,5.102909 -0.14235,0 0.0743,0.333162 0.48154,0.740361 2.01248,2.012478 3.28433,6.886483 3.08593,11.825969 -0.11899,2.962507 -0.29646,3.82648 -1.14027,5.551177 -0.54965,1.123431 -1.2201,2.127312 -1.48991,2.230846 -0.2698,0.103533 -0.49055,0.396064 -0.49055,0.650067 0,0.708389 -4.14018,4.294826 -5.96352,5.165911 -0.89166,0.425982 -1.70058,0.882372 -1.79759,1.0142 -0.3099,0.421101 -2.22451,1.277874 -4.59609,2.056717 -5.53072,1.816316 -12.05994,2.2565 -16.92336,1.14093 z m 11.99445,-3.233985 c 4.23725,-0.953479 8.40301,-2.582496 10.87664,-4.253299 4.11896,-2.782134 5.30854,-4.054651 6.88654,-7.366673 1.3164,-2.762961 1.43003,-3.235854 1.44594,-6.017496 0.0144,-2.518681 -0.12372,-3.293713 -0.83362,-4.677553 -1.91447,-3.731966 -5.92659,-6.900295 -10.86349,-8.578788 -3.70896,-1.261004 -10.30531,-1.570206 -14.43524,-0.676645 -3.22393,0.697535 -7.8792,2.862518 -9.93032,4.618201 -0.78467,0.671644 -1.62633,1.221171 -1.87035,1.221171 -0.24403,0 -0.34991,0.09378 -0.23528,0.208411 0.11462,0.114627 -0.34654,0.93544 -1.02482,1.82403 -3.85662,5.052446 -4.90835,10.528848 -2.99108,15.574692 1.11715,2.940101 2.77967,4.658742 6.16909,6.377337 1.64635,0.834773 3.60089,1.635259 4.34342,1.778857 2.04442,0.395369 10.66133,0.373074 12.46257,-0.03224 z m -12.9871,-5.279799 c -2.56718,-1.565159 -4.37027,-7.924059 -2.99817,-10.573506 0.83364,-1.609719 2.60357,-1.870562 4.06402,-0.598935 1.48663,1.294406 3.45458,5.712691 3.45458,7.755924 0,2.160715 -0.45482,3.004802 -1.95734,3.632598 -1.457,0.608772 -1.17056,0.63292 -2.56309,-0.216081 z m 18.93014,-3.439234 c -1.18798,-0.151038 -2.55808,-2.081257 -3.68916,-5.197337 -1.06561,-2.935708 -1.10673,-5.38677 -0.11161,-6.65186 0.83173,-1.057371 2.42377,-1.251968 3.27539,-0.400353 0.29104,0.291042 0.69367,0.529167 0.89473,0.529167 0.20106,0 0.55366,0.357188 0.78356,0.79375 0.2299,0.436562 0.51482,0.873125 0.63315,0.970139 0.11833,0.09701 0.53113,0.811389 0.91733,1.5875 0.3862,0.776111 0.84089,1.512 1.01043,1.635308 0.16954,0.123309 0.24329,1.244441 0.16389,2.491404 -0.11545,1.813031 -0.31854,2.447049 -1.01381,3.164962 -1.0013,1.033907 -1.55806,1.243343 -2.8639,1.07732 z m 36.39029,12.444893 c 0,-0.09701 -0.0794,-0.176389 -0.17639,-0.176389 -0.097,0 -0.17639,0.07937 -0.17639,0.176389 0,0.09701 0.0794,0.176389 0.17639,0.176389 0.097,0 0.17639,-0.07937 0.17639,-0.176389 z m 44.44999,-15.522221 c 0,-0.09701 -0.0794,-0.176389 -0.17639,-0.176389 -0.097,0 -0.17639,0.07937 -0.17639,0.176389 0,0.09701 0.0794,0.176389 0.17639,0.176389 0.097,0 0.17639,-0.07938 0.17639,-0.176389 z m 11.28889,-16.933332 c 0,-0.09701 -0.0794,-0.176389 -0.17639,-0.176389 -0.097,0 -0.17639,0.07938 -0.17639,0.176389 0,0.09701 0.0794,0.176389 0.17639,0.176389 0.097,0 0.17639,-0.07937 0.17639,-0.176389 z M 136.92261,15.769549 c 0.77117,-1.440958 -0.72872,-2.853428 -2.04845,-1.929052 -1.33065,0.932023 -0.76144,2.609051 0.88555,2.609051 0.43943,0 0.96274,-0.305999 1.1629,-0.679999 z m 89.972,0.150833 c 0,-0.09701 -0.0794,-0.176389 -0.17639,-0.176389 -0.097,0 -0.17639,0.07937 -0.17639,0.176389 0,0.09701 0.0794,0.176389 0.17639,0.176389 0.097,0 0.17639,-0.07937 0.17639,-0.176389 z m -1.05834,-0.705556 c 0,-0.09701 -0.0794,-0.176389 -0.17639,-0.176389 -0.097,0 -0.17638,0.07937 -0.17638,0.176389 0,0.09701 0.0794,0.176389 0.17638,0.176389 0.097,0 0.17639,-0.07938 0.17639,-0.176389 z M 122.54399,14.308761 c 1.40756,-0.654667 2.21213,-2.107387 2.21701,-4.002994 0.004,-1.6019776 -0.0654,-1.7434266 -0.91249,-1.8570286 -0.78762,-0.105625 -1.092,0.163817 -2.15817,1.9104486 -2.0611,3.376558 -2.17997,3.668216 -1.63562,4.013157 0.64798,0.410606 1.5175,0.388396 2.48927,-0.06358 z m 14.56386,-3.21011 c 2.42773,-1.9096516 2.27417,-5.1799556 -0.34795,-7.4104786 -1.70408,-1.449575 -3.87465,-0.896791 -4.89132,1.24568 -1.13575,2.3934 -0.4603,4.954482 1.64525,6.2383116 1.46068,0.890632 2.39254,0.871571 3.59402,-0.07351 z M 131.8798,3.8671424 c -0.12935,-0.129352 -0.34101,-0.129352 -0.47037,0 -0.12935,0.129352 -0.0235,0.235185 0.23519,0.235185 0.2587,0 0.36454,-0.105833 0.23518,-0.235185 z m 2.57463,-7.855511 c 0.73359,-1.370735 0.1611,-1.505997 -0.79781,-0.188495 -0.53325,0.732668 -0.54922,0.870858 -0.10061,0.870858 0.29328,0 0.69756,-0.307063 0.89842,-0.682363 z m 7.06797,-1.257914 c 0,-0.09701 -0.0794,-0.176389 -0.17639,-0.176389 -0.097,0 -0.17639,0.07937 -0.17639,0.176389 0,0.09701 0.0794,0.176389 0.17639,0.176389 0.097,0 0.17639,-0.07937 0.17639,-0.176389 z m 58.415,-3.515179 c 1.1683,-0.765506 2.2598,-2.5974304 2.26145,-3.7955224 0.002,-1.773758 -1.35518,-3.964474 -2.86115,-4.61691 -1.72373,-0.746774 -2.23813,-0.744916 -4.07473,0.01471 -4.70453,1.945811 -2.63427,9.6399464 2.45272,9.1155744 0.735,-0.07577 1.73477,-0.398799 2.22171,-0.717854 z m 16.88304,0.0853 c 0.73043,-1.042834 0.69255,-1.7990674 -0.12729,-2.5410104 -0.99197,-0.897723 -2.1918,-0.581423 -2.71946,0.716909 -0.37276,0.9172054 -0.35904,1.2193644 0.0841,1.8520834 0.68853,0.983012 2.06425,0.969078 2.76262,-0.02798 z m 5.83885,-4.5958104 c 2.8371,-1.444839 3.96466,-5.098722 2.47468,-8.019311 -2.22037,-4.352297 -8.17586,-4.6846 -10.87444,-0.606768 -3.46772,5.24008 2.67056,11.543755 8.39976,8.626079 z M 115.06406,-30.646281 c 0,-0.09701 -0.0794,-0.176389 -0.17638,-0.176389 -0.097,0 -0.17639,0.07937 -0.17639,0.176389 0,0.09701 0.0794,0.176389 0.17639,0.176389 0.097,0 0.17638,-0.07937 0.17638,-0.176389 z m 104.68896,-4.674305 c -0.23302,-0.533577 -0.86462,-1.702072 -1.40354,-2.596656 -0.53893,-0.894584 -0.97987,-1.733967 -0.97987,-1.865295 0,-0.131329 -0.79866,-1.919506 -1.77481,-3.973727 l -1.77481,-3.734948 -1.06848,1.613119 c -0.58767,0.887216 -2.80526,3.277358 -4.92797,5.311427 -2.12272,2.034068 -3.85948,3.775863 -3.85948,3.870655 0,0.09479 1.46879,0.08472 3.26398,-0.02238 3.80068,-0.226751 7.36196,0.288256 10.14157,1.466603 2.67632,1.134556 2.90605,1.127925 2.38341,-0.06879 z m 43.30131,-6.737037 c 0.88727,-0.229912 1.11868,-0.527272 1.4317,-1.83978 0.20536,-0.861049 0.56255,-2.012441 0.79375,-2.558649 0.7195,-1.69976 0.56278,-2.00551 -1.028,-2.00551 -1.03748,0 -1.7514,-0.25497 -2.51649,-0.89875 -1.24773,-1.0499 -2.16229,-1.00711 -2.32147,0.10861 -0.062,0.43458 -0.26044,0.79014 -0.44097,0.79014 -0.18054,0 -0.32825,0.22915 -0.32825,0.50923 0,0.28007 -0.47127,0.78761 -1.04727,1.12786 -1.53141,0.904624 -1.54874,1.409516 -0.0854,2.487332 1.71639,1.264163 2.54375,2.105525 2.54375,2.586801 0,0.214896 0.17769,0.722741 0.39487,1.128543 0.38918,0.727202 0.40315,0.724152 0.97013,-0.211884 0.3164,-0.522338 1.05152,-1.073113 1.63361,-1.223943 z m -60.67388,-8.256019 c 0.12708,-1.01864 0.17726,-2.40771 0.11151,-3.0868 l -0.11954,-1.23473 -0.79885,1.49931 c -0.43937,0.82462 -0.91957,1.4993 -1.06712,1.4993 -0.39664,0 -1.07522,1.98516 -0.81935,2.39699 0.12101,0.19476 0.61689,0.42787 1.10196,0.51802 0.48507,0.0901 0.98958,0.18553 1.12114,0.21195 0.13156,0.0264 0.34317,-0.78539 0.47025,-1.80404 z m 57.72144,-2.58745 c 1.15772,-0.59128 2.73206,-2.43229 3.35867,-3.92761 0.63253,-1.50941 0.6068,-5.69684 -0.0446,-7.25579 -0.89857,-2.15058 -2.98714,-3.28143 -4.40458,-2.38487 -0.44911,0.28408 -0.44539,0.40773 0.029,0.96474 0.86603,1.01674 1.72081,3.12496 1.72081,4.24416 0,1.78049 -1.03613,4.6555 -1.86605,5.17785 -0.42888,0.26993 -1.69259,0.5984 -2.80825,0.72992 -2.20286,0.25968 -2.65562,0.92256 -1.40386,2.05538 1.46787,1.32841 3.32732,1.46437 5.41878,0.39622 z m -1.10451,-13.02296 c 0,-0.097 0.0794,-0.17639 0.17639,-0.17639 0.097,0 0.17639,0.0794 0.17639,0.17639 0,0.097 -0.0794,0.17638 -0.17639,0.17638 -0.097,0 -0.17639,-0.0794 -0.17639,-0.17638 z m -119.94443,9.87777 c 0,-0.097 -0.0794,-0.17639 -0.17639,-0.17639 -0.097,0 -0.17639,0.0794 -0.17639,0.17639 0,0.097 0.0794,0.17639 0.17639,0.17639 0.097,0 0.17639,-0.0794 0.17639,-0.17639 z m 118.82465,-4.33838 c 0.0632,-0.44583 -0.23883,-1.66413 -0.67122,-2.70733 -0.9117,-2.19966 -0.68596,-3.2035 1.14054,-5.07169 0.58365,-0.59697 0.95273,-1.26086 0.82019,-1.47531 -0.34019,-0.55044 -2.68753,-0.32025 -3.46996,0.34027 -0.35992,0.30384 -0.67742,0.5016 -0.70555,0.43945 -0.0281,-0.0622 -0.52741,0.0725 -1.1095,0.29933 -1.3225,0.51524 -7.02062,0.25967 -8.37996,-0.37585 -0.53439,-0.24985 -1.0862,-0.33969 -1.22624,-0.19965 -0.49597,0.49597 1.87171,4.29998 4.01048,6.44343 2.46925,2.47465 4.36513,3.27395 7.536,3.17717 1.73469,-0.0529 1.95246,-0.14511 2.05522,-0.86982 z m -187.21584,-3.05614 c 0.652867,-0.28345 1.036694,-0.52157 0.852949,-0.52917 -0.183745,-0.008 0.37188,-0.52571 1.234722,-1.15138 0.862842,-0.62567 1.768886,-1.40891 2.013432,-1.74055 0.441347,-0.59852 7.461069,-6.56277 10.108623,-8.58871 0.759567,-0.58123 2.982067,-2.28937 4.938889,-3.79587 4.12032,-3.17212 10.130256,-7.20572 14.052995,-9.43176 1.50372,-0.85331 2.73403,-1.67704 2.73403,-1.83052 0,-0.15347 -1.38906,-1.00057 -3.08681,-1.88244 -5.341403,-2.77451 -9.690016,-5.66833 -12.66363,-8.427098 -1.580727,-1.46652 -3.277677,-2.81985 -3.770999,-3.00741 -3.72238,-1.41525 -15.565657,-2.54347 -20.807203,-1.98215 -4.352138,0.46608 -5.45971,2.21518 -6.267431,9.897698 -0.470485,4.47494 -0.234625,8.77883 0.744311,13.58194 0.716217,3.51408 2.760256,9.525 3.23902,9.525 0.153676,0 0.279411,-0.13446 0.279411,-0.2988 0,-0.41185 1.40838,-2.00334 1.42233,-1.60726 0.0062,0.17521 0.241435,0.0143 0.52281,-0.35753 0.500895,-0.66196 0.546091,-0.65835 2.162072,0.17278 2.757335,1.41815 3.659606,3.92493 1.865112,5.18184 -0.374362,0.26222 -0.680658,0.70588 -0.680658,0.98592 0,0.28004 -0.129348,0.50916 -0.287439,0.50916 -0.34694,0 -1.47645,2.29045 -1.47645,2.99398 0,0.8412 0.792904,2.29769 1.250846,2.29769 0.237621,0 0.966202,-0.23191 1.619068,-0.51536 z m 1.730775,-14.79213 c -0.210834,-0.55454 -0.621368,-0.92029 -1.032965,-0.92029 -0.809993,0 -0.781599,-0.71986 0.06166,-1.56311 0.768264,-0.76826 0.758266,-0.96044 -0.09777,-1.87928 -0.385947,-0.41427 -0.61292,-0.98463 -0.504385,-1.26747 0.170553,-0.44445 0.325655,-0.4473 1.142695,-0.021 1.437429,0.74995 1.717623,0.61953 1.962772,-0.91354 0.26402,-1.65109 0.955753,-1.84059 1.60969,-0.44098 0.879797,1.88303 1.004548,2.0274 1.655049,1.91536 0.361204,-0.0622 1.128006,-0.20439 1.704005,-0.31594 l 1.04727,-0.20283 -0.611282,0.84511 c -0.977488,1.3514 -1.091121,1.7794 -0.656989,2.47455 0.624772,1.00042 0.505016,1.19989 -0.718148,1.19619 -0.91127,-0.003 -1.167163,0.16516 -1.338822,0.87854 -0.228435,0.94933 -0.372171,0.99245 -1.860686,0.55829 -0.636832,-0.18575 -1.154541,-0.13507 -1.493458,0.14621 -0.427769,0.35502 -0.580099,0.26913 -0.868632,-0.48977 z m 2.454866,-5.33001 c 0,-0.097 -0.07937,-0.17639 -0.176389,-0.17639 -0.09701,0 -0.176389,0.0794 -0.176389,0.17639 0,0.097 0.07937,0.17639 0.176389,0.17639 0.09701,0 0.176389,-0.0794 0.176389,-0.17639 z m 192.981689,16.22777 c 1.43292,-5.16641 0.42412,-10.80999 -2.58776,-14.47678 -1.14745,-1.39696 -4.96446,-3.33849 -6.56342,-3.33849 -0.98911,0 -1.18387,0.18843 -1.92355,1.86099 -0.45266,1.02354 -1.24814,2.53442 -1.76774,3.35751 l -0.94471,1.49653 0.72376,2.37512 c 1.05547,3.4637 1.04722,3.45623 2.81874,2.55246 2.07006,-1.05606 3.51462,-0.74009 5.44592,1.19121 1.70319,1.70319 2.66983,4.08302 2.66983,6.573 0,3.25021 0.99167,2.50886 2.12893,-1.59155 z m -15.53449,-4.88196 c 0,-0.60929 -3.34053,-7.44616 -4.28918,-8.77842 -0.92767,-1.30279 -2.26526,-1.25471 -2.18237,0.0784 0.10668,1.71592 0.36896,2.89217 0.69578,3.12037 0.18198,0.12706 0.83742,1.02477 1.45654,1.99491 2.01886,3.16351 4.31923,5.07267 4.31923,3.5847 z m -5.99722,-6.05415 c 0,-0.097 0.0794,-0.17638 0.17639,-0.17638 0.097,0 0.17639,0.0794 0.17639,0.17638 0,0.097 -0.0794,0.17639 -0.17639,0.17639 -0.097,0 -0.17639,-0.0794 -0.17639,-0.17639 z m -2.82604,3.2632 c -0.002,-0.0485 -0.24606,-0.88195 -0.54215,-1.85208 -1.75028,-5.73496 3.14078,-10.42274 7.54554,-7.23195 0.80354,0.58209 1.59652,1.05834 1.76217,1.05834 0.16566,0 0.64843,-1.15094 1.07284,-2.55764 0.71055,-2.35514 0.76048,-3.13023 0.6307,-9.78959 -0.1528,-7.840658 -0.49677,-9.939918 -2.71125,-16.546878 -1.71138,-5.10594 -2.40258,-6.4563 -7.86236,-15.36025 -0.44082,-0.71889 -0.88723,-1.34059 -1.47917,-2.05997 -0.19403,-0.2358 -1.25358,-1.54297 -2.35456,-2.90482 -4.37374,-5.41007 -7.62795,-7.89456 -11.05099,-8.43712 -1.73782,-0.27544 -5.73369,0.71225 -9.08271,2.24505 -1.30896,0.5991 -2.46302,1.08461 -2.56457,1.07893 -0.10156,-0.006 -0.37997,0.15515 -0.61868,0.35743 -0.23872,0.20227 -1.85245,1.33761 -3.58606,2.52298 -4.65854,3.18533 -7.53585,5.87894 -11.81299,11.05882 -2.93083,3.54942 -3.92393,4.90635 -4.97012,6.79097 -0.45776,0.82462 -0.97118,1.49931 -1.14093,1.49931 -0.16975,0 -0.21655,0.14899 -0.104,0.3311 0.11254,0.1821 -0.0605,0.47947 -0.38458,0.66083 -0.48711,0.2726 -0.36542,0.40359 0.70235,0.75598 1.55659,0.51373 4.03865,1.80134 10.27896,5.3324 0.77611,0.43916 2.12548,1.20101 2.99861,1.693 0.87312,0.49199 3.41312,2.20613 5.64444,3.80921 4.7529,3.414678 3.93042,2.780998 8.11389,6.251388 4.26011,3.53398 4.51524,3.64967 6.42781,2.91483 2.68183,-1.0304 4.51872,-3.28088 5.58147,-6.838198 0.64666,-2.16455 1.26299,-2.6098 2.99074,-2.16054 0.77228,0.20081 2.15821,0.54118 3.07984,0.75639 l 1.67569,0.39128 -0.005,4.604628 c -0.005,4.64781 -0.6023,8.45017 -1.55517,9.90443 -0.28335,0.43245 -0.92319,0.7517 -1.61171,0.80417 -1.08794,0.0829 -5.27556,-1.16759 -5.64735,-1.68638 -0.26874,-0.375 -1.76389,-0.68612 -1.76389,-0.36705 0,0.15417 0.67469,0.98114 1.49931,1.8377 3.52494,3.66151 4.80483,5.15254 4.59929,5.35808 -0.12043,0.12043 0.0456,0.21897 0.36899,0.21897 0.32338,0 0.58796,0.14374 0.58796,0.31943 0,0.39062 4.65689,5.32254 5.02709,5.32398 0.14552,5.7e-4 0.26286,-0.0386 0.26076,-0.0872 z m -1.05451,-13.14097 c 0,-0.097 0.0794,-0.17639 0.17639,-0.17639 0.097,0 0.17639,0.0794 0.17639,0.17639 0,0.097 -0.0794,0.17639 -0.17639,0.17639 -0.097,0 -0.17639,-0.0794 -0.17639,-0.17639 z m 0.0279,-1.08773 c 0.0169,-0.41097 0.10052,-0.49456 0.21314,-0.21314 0.1019,0.25466 0.0894,0.55893 -0.0279,0.67616 -0.11722,0.11722 -0.2006,-0.0911 -0.18528,-0.46302 z m -0.0279,-1.55811 c 0,-0.38805 0.14389,-0.70555 0.31975,-0.70555 0.17586,0 0.23672,0.3175 0.13524,0.70555 -0.10148,0.38806 -0.24536,0.70556 -0.31975,0.70556 -0.0744,0 -0.13524,-0.3175 -0.13524,-0.70556 z m 5.64444,0.52917 c 0,-0.097 0.0794,-0.17639 0.17639,-0.17639 0.097,0 0.17639,0.0794 0.17639,0.17639 0,0.097 -0.0794,0.17639 -0.17639,0.17639 -0.097,0 -0.17639,-0.0794 -0.17639,-0.17639 z m 0.0771,-1.42149 c -0.38203,-0.4333 -0.31672,-0.50152 0.42164,-0.44041 0.66875,0.0554 0.78534,0.17876 0.49705,0.52613 -0.44708,0.5387 -0.36107,0.54673 -0.91869,-0.0857 z m -3.67104,-0.0542 c 0.25466,-0.10191 0.55893,-0.0894 0.67616,0.0279 0.11722,0.11723 -0.0911,0.20061 -0.46302,0.18529 -0.41097,-0.0169 -0.49456,-0.10052 -0.21314,-0.21314 z m 2.53559,-14.399288 c 0,-0.097 0.0794,-0.17639 0.17639,-0.17639 0.097,0 0.17639,0.0794 0.17639,0.17639 0,0.097 -0.0794,0.17639 -0.17639,0.17639 -0.097,0 -0.17639,-0.0794 -0.17639,-0.17639 z m -2.46945,-0.70555 c 0,-0.097 0.0794,-0.17639 0.17639,-0.17639 0.097,0 0.17639,0.0794 0.17639,0.17639 0,0.097 -0.0794,0.17639 -0.17639,0.17639 -0.097,0 -0.17639,-0.0794 -0.17639,-0.17639 z m -128.05831,-0.5155 c 0,-0.51435 -3.44461,-1.42833 -5.26751,-1.39767 -1.96247,0.033 -4.67743,0.83019 -3.90472,1.14652 1.23323,0.50486 9.17223,0.72224 9.17223,0.25115 z m 63.05167,-4.81292 c -0.11723,-0.11722 -0.4215,-0.12975 -0.67616,-0.0279 -0.28142,0.11262 -0.19783,0.19621 0.21314,0.21314 0.37188,0.0153 0.58024,-0.0681 0.46302,-0.18529 z m 0.8011,0.0368 c 0,-0.097 -0.0794,-0.17639 -0.17639,-0.17639 -0.097,0 -0.17639,0.0794 -0.17639,0.17639 0,0.097 0.0794,0.17639 0.17639,0.17639 0.097,0 0.17639,-0.0794 0.17639,-0.17639 z m 0.70555,0 c 0,-0.097 -0.0794,-0.17639 -0.17639,-0.17639 -0.097,0 -0.17638,0.0794 -0.17638,0.17639 0,0.097 0.0794,0.17639 0.17638,0.17639 0.097,0 0.17639,-0.0794 0.17639,-0.17639 z m 8.40079,-4.70104 c 0.15366,-1.55578 -1.7866,-5.35999 -3.92976,-7.70494 -3.00336,-3.28615 -6.24251,-5.54326 -13.00295,-9.06074 -9.09613,-4.73273 -10.26188,-5.39966 -12.88726,-7.37286 -1.4844,-1.11566 -2.81887,-2.02847 -2.96547,-2.02847 -0.49086,0 -0.75904,3.23811 -0.52497,6.33876 0.25288,3.34975 1.07993,6.63749 2.34218,9.31077 1.38613,2.93561 5.52399,6.34942 11.18879,9.23096 3.35346,1.70581 3.50408,1.74607 5.9106,1.57983 4.15758,-0.2872 9.43173,-0.0648 11.28889,0.47611 2.2399,0.65235 2.44559,0.591 2.57995,-0.76942 z"
       id="path78" /></g></svg>
