<?xml version="1.0" encoding="UTF-8" standalone="no"?>
<!-- Created with Inkscape (http://www.inkscape.org/) -->

<svg
   width="287.29214mm"
   height="315.30951mm"
   viewBox="0 0 287.29216 315.30946"
   version="1.1"
   id="svg1"
   xml:space="preserve"
   xmlns="http://www.w3.org/2000/svg"
   xmlns:svg="http://www.w3.org/2000/svg"><defs
     id="defs1"><clipPath
       clipPathUnits="userSpaceOnUse"
       id="clipPath6"><path
         id="path7"
         style="fill:#ff0000;fill-opacity:1;fill-rule:nonzero;stroke:none;stroke-width:0.264583"
         d="M -175.07778,-16.057127 V 287.55793 H 124.54631 V -16.057127 Z m 132.7459,202.572647 c 0.210643,0.005 0.427212,0.0169 0.650089,0.0367 2.23823,0.19855 4.475655,0.4031 6.717938,0.55346 1.973313,0.11308 0.986628,0.0436 2.958475,0.20825 3.181295,0.26563 4.740125,1.85116 4.950601,3.46956 4.949923,1.63749 3.796379,7.35609 -2.592089,6.81354 -3.228716,-0.27422 -1.569593,-0.1301 -4.979024,-0.43357 -4.228209,-0.39317 -8.460616,-0.76265 -12.666927,-1.35341 -6.647387,-0.93358 -5.930551,-7.21034 0.03204,-7.20421 0.04685,5e-5 0.0972,0.004 0.144695,0.005 0.687229,-1.21692 2.304132,-2.15435 4.784204,-2.09548 z" /></clipPath></defs><g
     id="layer1"
     transform="translate(-68.413264,140.94438)"><path
       style="fill:#000000"
       d="m 233.08223,174.17665 c -8.25428,-0.34255 -16.30614,-1.63819 -20.69265,-3.3297 -3.08811,-1.19082 -5.26402,-3.19961 -5.95158,-5.49447 l -0.41124,-1.3726 -2.17087,-0.0771 c -2.40956,-0.0855 -5.52895,-0.45915 -12.46252,-1.49274 -2.55596,-0.38103 -4.72156,-0.69277 -4.81245,-0.69277 -0.0909,0 -0.26827,0.41046 -0.39419,0.91214 -0.12591,0.50168 -0.42093,1.14432 -0.6556,1.4281 -2.87267,3.47379 -6.58694,4.43845 -17.18362,4.4629 -12.47212,0.0288 -22.9639,-2.26035 -28.43692,-6.20446 -3.14835,-2.26884 -4.60527,-5.0227 -5.0772,-9.59682 -0.82375,-7.98417 1.60288,-18.26306 6.6205,-28.04352 2.45604,-4.78738 2.59698,-5.18312 2.19867,-6.17361 -0.23407,-0.58209 -0.93813,-2.40771 -1.56458,-4.05695 l -1.13899,-2.99856 -4.3806,-1.44754 c -14.22774,-4.70147 -24.40964,-10.521984 -32.7792,-18.738294 -2.42535,-2.38094 -4.535504,-4.32971 -4.689232,-4.3306 -0.153728,-8.9e-4 -0.169956,3.45748 -0.03606,7.68527 0.270683,8.547014 0.148925,9.246444 -1.609631,9.246444 -1.455659,0 -3.169689,-2.15371 -5.470933,-6.874334 -6.65872,-13.65926 -11.278189,-32.284649 -12.061673,-48.631859 -0.128706,-2.68542 -0.35125,-4.669795 -0.494543,-4.409722 -0.143292,0.260072 -0.68731,2.596719 -1.208928,5.192548 -1.483508,7.382664 -2.07305,8.862254 -3.531159,8.862254 -2.034489,0 -2.64428,-1.70926 -2.642978,-7.408332 0.0021,-9.317145 2.061412,-20.387069 6.134043,-32.974292 1.065374,-3.292736 1.878546,-6.045291 1.807049,-6.116788 -0.0715,-0.0715 -0.737648,0.55234 -1.480335,1.386305 -3.331235,3.740648 -6.719008,6.93237 -7.575975,7.137554 -1.605267,0.384349 -2.518719,-0.695239 -2.515563,-2.973084 0.01044,-7.532377 7.340753,-24.208143 16.154818,-36.750662 1.465763,-2.085798 2.516012,-3.792361 2.333887,-3.792361 -0.349498,0 -4.222372,1.779007 -10.110164,4.644111 -3.93321,1.913969 -5.725367,2.211956 -6.901535,1.147539 -0.584924,-0.529349 -0.70528,-0.954242 -0.565499,-1.996387 0.401193,-2.991113 4.002051,-9.099783 9.099559,-15.436929 3.016801,-3.750441 9.607726,-10.261311 11.244073,-11.107499 0.587401,-0.303757 1.068001,-0.753884 1.068001,-1.000283 0,-0.246399 0.999718,-2.425135 2.221597,-4.841635 4.320528,-8.544678 12.032461,-19.352476 18.934831,-26.535986 7.01172,-7.297319 10.11391,-9.186414 15.88524,-9.673378 2.56183,-0.216159 2.74967,-0.297563 5.9165,-2.564026 17.67303,-12.648364 38.37787,-19.830504 62.1696,-21.565554 7.0418,-0.51353 20.29102,-0.2388 27.34028,0.56691 11.24225,1.28497 25.26852,4.2486 35.98333,7.60299 6.37803,1.99671 5.98513,1.95263 7.93668,0.89047 1.90727,-1.03808 4.68686,-1.96508 5.90985,-1.97096 1.18632,-0.006 0.96636,-0.50289 -0.70556,-1.59476 -0.82462,-0.53853 -1.73743,-1.19379 -2.02847,-1.45613 -0.29104,-0.26235 -1.0451,-0.88882 -1.67569,-1.39216 -2.32561,-1.8563 -1.06311,-4.97445 2.30344,-5.68909 0.72189,-0.15324 3.01909,-0.26781 5.10489,-0.25459 2.0858,0.0132 3.79205,-0.0662 3.79168,-0.17639 -3.8e-4,-0.11023 -0.78403,-0.73432 -1.74146,-1.38686 -0.95743,-0.65253 -1.82913,-1.41666 -1.93711,-1.69805 -0.10798,-0.28139 -0.34823,-0.41774 -0.53389,-0.30299 -0.51376,0.31752 -1.16617,-1.17779 -0.92797,-2.12686 0.28163,-1.12211 1.4308,-1.68221 3.01535,-1.46967 1.36125,0.18258 7.06465,2.66744 7.06465,3.07792 0,0.13041 0.19844,0.24466 0.44097,0.25388 0.24253,0.009 0.71878,0.13205 1.05833,0.27293 0.84633,0.35116 0.79221,-0.0832 -0.40752,-3.27029 -2.21423,-5.88222 -2.50289,-6.86613 -2.50289,-8.53111 0,-1.44342 0.15175,-1.84442 0.92952,-2.45621 1.21011,-0.95187 1.72046,-0.92342 4.02829,0.2246 2.00647,0.99811 5.2656,4.04903 9.07604,8.4962 1.21527,1.41835 2.26249,2.36813 2.33381,2.11667 0.0712,-0.25087 0.53666,-2.60748 1.03445,-5.2369 1.07992,-5.70436 2.80349,-10.71015 4.15395,-12.06437 1.51647,-1.5207 3.35027,-1.1842 4.37808,0.80338 0.4537,0.87736 1.18844,7.18319 1.22174,10.48551 0.004,0.43656 0.13509,0.79375 0.29042,0.79375 0.15533,0 1.16777,-1.07619 2.24986,-2.39153 3.3901,-4.12086 6.35589,-5.45765 8.14313,-3.67041 0.86929,0.86929 1.17242,3.4773 0.66246,5.69959 -0.19915,0.86787 -0.3028,1.63723 -0.23033,1.7097 0.0725,0.0725 0.84199,-0.35688 1.71004,-0.95411 2.96061,-2.03695 6.32774,-3.5647 7.86054,-3.56652 4.18624,-0.005 4.6625,3.99171 1.34142,11.25705 -0.72046,1.57611 -1.23339,2.94219 -1.13985,3.03573 0.0935,0.0935 2.45856,-0.47236 5.25561,-1.25755 8.6761,-2.43556 10.45635,-2.58027 11.95494,-0.97172 1.52874,1.64091 0.73765,3.60892 -3.37059,8.38507 -5.00553,5.81932 -4.88408,5.65342 -4.15039,5.66979 3.12064,0.0696 8.02401,0.8074 9.8238,1.47813 2.7127,1.01093 4.32711,3.17692 3.88118,5.207223 -0.30468,1.387199 -2.34838,3.299663 -4.98037,4.660549 -1.23728,0.639741 -2.25018,1.276642 -2.2509,1.415336 -7.2e-4,0.138695 0.34589,0.437981 0.77023,0.665082 0.42434,0.227101 0.94028,0.548881 1.14652,0.715067 0.20625,0.166186 1.21237,0.945258 2.23581,1.73127 3.8502,2.956971 5.03915,6.076948 3.02657,7.942143 -0.5134,0.475805 -1.08037,0.8651 -1.25992,0.8651 -0.17956,0 -0.55293,0.22646 -0.82971,0.503246 -0.41236,0.412363 -3.33209,1.646893 -6.59011,2.786452 -0.90961,0.318155 -0.7574,0.643275 0.89285,1.907219 3.6614,2.804285 5.19257,4.650591 5.19257,6.261258 0,1.707051 -1.02265,2.418372 -3.72414,2.590389 -1.25019,0.07961 -2.27308,0.193812 -2.27308,0.253789 0,0.05998 0.635,1.422149 1.41111,3.027047 1.71747,3.551519 1.7898,4.753567 0.36796,6.115769 -1.00831,0.966024 -1.13551,0.993065 -3.80933,0.809797 -2.10609,-0.144355 -3.67261,-0.543991 -6.56462,-1.674709 -2.08913,-0.81681 -3.87499,-1.408545 -3.96857,-1.314964 -0.0936,0.09358 0.71054,2.226192 1.78693,4.739138 2.11259,4.932056 2.30029,5.949099 1.32114,7.1583 -0.50449,0.623016 -1.00164,0.785343 -2.40525,0.785343 -2.20799,0 -4.6712,-1.140544 -8.18091,-3.788019 -2.84309,-2.144623 -3.10204,-2.131985 -3.92959,0.191785 -0.39564,1.110952 -0.31846,1.541743 0.85099,4.749546 2.63408,7.225298 4.93026,17.98084 5.83682,27.340275 0.58642,6.054276 0.50253,17.39155405 -0.17385,23.494675 -1.00748,9.090724 -3.03175,17.642978 -5.71151,24.130321 -0.68126,1.649236 -1.36098,3.157361 -1.51048,3.351389 -0.14951,0.194028 -0.2264,1.90892 -0.17088,3.810872 0.0976,3.343812 0.14066,3.507031 1.30278,4.938889 0.66102,0.814436 1.99445,2.671419 2.96319,4.126627 9.7504,14.646746 15.2924,32.985042 15.2924,50.602072 v 4.618434 l 1.7432,0.61913 c 2.06612,0.73382 4.56075,3.08595 5.64219,5.31991 3.01458,6.22729 0.5086,13.17003 -7.71953,21.38667 -3.08133,3.07703 -7.19349,6.36116 -9.72003,7.7628 -0.77611,0.43056 -1.58446,0.92329 -1.79634,1.09496 -0.21188,0.17167 -0.4897,0.20767 -0.61736,0.08 -0.12767,-0.12767 -0.23213,-0.0375 -0.23213,0.20027 0,0.23781 -0.15875,0.33428 -0.35278,0.21436 -0.19402,-0.11991 -0.35277,-0.0405 -0.35277,0.17639 0,0.21693 -0.13644,0.3101 -0.30319,0.20704 -0.16675,-0.10306 -0.24352,0.16538 -0.1706,0.59654 0.67675,4.00109 0.84018,6.19211 0.66736,8.94658 -0.22506,3.58699 -1.2431,8.04176 -2.18213,9.54865 -1.20669,1.93641 -3.00986,3.98937 -3.33011,3.79144 -0.17918,-0.11073 -0.32578,-0.0408 -0.32578,0.15531 0,0.47718 -2.97924,2.50722 -3.67953,2.50722 -0.30459,0 -0.5538,0.13947 -0.5538,0.30993 0,0.51965 -7.37482,2.77255 -10.93611,3.34083 -7.16876,1.14392 -15.32987,1.01316 -19.06736,-0.3055 -1.96756,-0.6942 -4.00551,-2.3656 -4.71983,-3.87092 -0.68048,-1.434 -0.31187,-1.38572 -5.50802,-0.72155 -5.4325,0.69437 -13.75478,1.31419 -16.15363,1.20307 -2.16744,-0.1004 -2.28103,-0.005 -2.88739,2.42486 -0.23453,0.93984 -0.87284,1.99234 -1.71159,2.82222 -2.72971,2.70086 -3.73154,3.26501 -7.27857,4.0987 -2.33056,0.54778 -10.96094,1.35994 -12.87639,1.21174 -0.48507,-0.0375 -1.99319,-0.11436 -3.35139,-0.17072 z m 22.40138,-4.87461 c 0,-0.097 -0.0794,-0.17639 -0.17638,-0.17639 -0.097,0 -0.17639,0.0794 -0.17639,0.17639 0,0.097 0.0794,0.17639 0.17639,0.17639 0.097,0 0.17638,-0.0794 0.17638,-0.17639 z m -6.42801,-3.37054 c 0.83022,-0.23354 1.80473,-0.79995 2.16558,-1.2587 0.76143,-0.968 1.8906,-4.96765 2.65969,-9.42095 0.74222,-4.2977 1.33124,-15.22171 1.04445,-19.37035 l -0.23742,-3.43443 -2.33617,-1.2975 c -3.9623,-2.20065 -11.23165,-7.10869 -13.7899,-9.31051 l -2.43404,-2.09492 -2.52016,2.46576 c -1.38609,1.35617 -2.42853,2.46576 -2.31653,2.46576 0.112,0 -0.0458,0.27781 -0.35071,0.61736 -1.22116,1.35997 -5.04746,6.38625 -6.37819,8.37847 -6.41792,9.6082 -10.65228,19.28705 -11.5805,26.47056 -0.20266,1.56841 -0.12877,1.88482 0.63181,2.7055 0.47372,0.51115 1.4761,1.10365 2.22751,1.31666 1.92653,0.54613 9.21012,1.70964 13.18427,2.1061 4.42126,0.44107 18.07919,0.21005 20.03031,-0.33881 z m -70.39919,-5.56362 c 1.1377,-0.46145 1.51988,-1.57962 1.471,-4.3038 -0.0467,-2.60126 -0.93414,-4.34249 -4.40066,-8.63426 -7.21561,-8.93337 -13.44674,-20.10107 -16.21331,-29.05821 -0.87722,-2.84008 -1.19021,-3.22095 -2.64691,-3.22095 -0.93157,0 -1.42209,0.29941 -2.45622,1.4993 -0.7107,0.82462 -1.70812,2.21368 -2.2165,3.08681 -0.50838,0.87312 -1.57253,2.61937 -2.36477,3.88055 -0.79225,1.26118 -2.18065,4.04086 -3.08535,6.17706 -6.46376,15.26241 -6.4757,25.30601 -0.0334,28.06752 2.02886,0.86968 7.52042,2.0034 12.64135,2.60979 4.91768,0.58232 17.78367,0.51313 19.30473,-0.10381 z m 127.14448,-0.23422 c 3.92032,-0.63583 9.87429,-2.58694 11.81652,-3.87225 1.76387,-1.16727 2.64007,-3.0313 3.15074,-6.70291 0.34542,-2.48348 0.0223,-8.08216 -0.51682,-8.95445 -0.0908,-0.14684 -1.96092,0.0883 -4.15594,0.52253 -5.51911,1.09182 -10.56258,1.58169 -17.24826,1.67531 l -5.69632,0.0798 -0.8298,2.03961 c -1.49213,3.66758 -3.62749,10.23516 -3.85958,11.87064 -0.27728,1.95396 0.4583,3.07128 2.30845,3.50644 2.11672,0.49786 11.58568,0.39411 15.03101,-0.16469 z m -99.34769,-5.56009 c 0.65055,-2.52908 1.81793,-5.98875 2.69937,-7.99988 0.46149,-1.05296 0.71633,-2.02459 0.56631,-2.15918 -0.98844,-0.88684 -27.96581,-2.89434 -27.96581,-2.08106 0,0.15129 0.11906,0.32799 0.26458,0.39267 0.14552,0.0647 0.89104,0.83196 1.65671,1.70509 2.4935,2.84346 10.04074,7.86464 13.87296,9.22969 2.37109,0.84459 7.47738,2.35059 8.09284,2.38682 0.23506,0.0138 0.60093,-0.64953 0.81304,-1.47415 z m 55.87485,0.80696 c 1.39026,-0.52858 4.81412,-3.7562 6.70877,-6.32426 0.44141,-0.5983 0.91949,-0.97088 1.06241,-0.82796 0.14292,0.14291 0.22141,0.10109 0.17444,-0.0929 -0.047,-0.19403 0.0388,-0.63744 0.19057,-0.98536 0.15179,-0.34791 0.21668,-0.67172 0.14421,-0.71957 -0.41675,-0.27512 -8.12352,-2.7048 -8.57944,-2.7048 -0.45699,0 -0.55119,0.57213 -0.56629,3.43959 -0.01,1.89177 -0.13773,4.51566 -0.28393,5.83088 -0.32209,2.89751 -0.30323,2.93664 1.14926,2.38441 z m 16.58703,-0.64934 2.79397,-0.24581 0.81149,-2.46945 c 1.18813,-3.6156 1.13701,-3.93595 -0.66679,-4.17813 -4.14988,-0.55717 -6.96736,-0.65762 -6.96736,-0.2484 0,0.58053 -1.80623,3.14878 -3.88608,5.52554 -0.95865,1.09551 -1.67763,2.09761 -1.59773,2.22689 0.0799,0.12929 1.62426,0.10009 3.43191,-0.0649 1.80764,-0.16497 4.54391,-0.41057 6.08059,-0.54576 z m 6.39379,-11.42906 c 0.12773,-0.58153 0.0971,-1.17809 -0.068,-1.3257 -0.16515,-0.1476 -1.70195,-0.45714 -3.41512,-0.68785 -5.09382,-0.686 -12.44505,-2.78262 -17.95229,-5.12012 -0.72138,-0.30618 -1.46012,-0.55669 -1.64165,-0.55669 -0.18153,0 -0.38507,0.80107 -0.4523,1.78017 l -0.12224,1.78017 1.795,0.84899 c 4.22557,1.9986 10.01468,3.39117 17.96055,4.32043 3.15836,0.36936 3.61334,0.24798 3.89609,-1.0394 z m -24.18081,0.95269 c 0,-0.097 -0.0794,-0.17639 -0.17639,-0.17639 -0.097,0 -0.17639,0.0794 -0.17639,0.17639 0,0.097 0.0794,0.17639 0.17639,0.17639 0.097,0 0.17639,-0.0794 0.17639,-0.17639 z m -41.98055,-3.52778 c 0,-0.097 -0.0794,-0.17639 -0.17639,-0.17639 -0.097,0 -0.17639,0.0794 -0.17639,0.17639 0,0.097 0.0794,0.17639 0.17639,0.17639 0.097,0 0.17639,-0.0794 0.17639,-0.17639 z m -4.94802,-3.88055 c 3.00175,-5.394 7.69813,-11.94246 11.15588,-15.55535 l 0.73981,-0.773 -3.20925,-0.20711 c -1.76509,-0.11391 -5.19363,-0.29426 -7.61898,-0.40078 -14.60399,-0.64139 -41.25293,-2.01117 -44.09721,-2.26665 -1.84327,-0.16556 -3.48332,-0.22126 -3.64456,-0.12377 -0.50045,0.30256 0.0806,1.85844 2.66295,7.13035 2.14605,4.38123 6.78208,11.86076 8.29615,13.38456 0.34346,0.34566 1.85196,0.52383 5.31378,0.62761 6.49116,0.19459 22.39265,1.18491 24.58973,1.53141 3.63376,0.57308 3.62828,0.57624 5.8117,-3.34727 z m 93.14245,-1.98049 c 6.5172,-0.55604 11.9377,-1.62596 16.06954,-3.17188 l 1.91535,-0.71662 -0.50373,-0.97409 c -0.27704,-0.53575 -1.2144,-1.91398 -2.08301,-3.06273 -1.17041,-1.54788 -1.48287,-2.2049 -1.20688,-2.53768 0.28384,-0.34225 0.22916,-0.39408 -0.2299,-0.21792 -0.40486,0.15536 -0.98057,-0.13548 -1.7561,-0.88716 l -1.15379,-1.11829 -4.20282,0.7958 c -3.45432,0.65408 -5.44919,0.79781 -11.20117,0.80705 l -6.99834,0.0112 0.20295,1.26919 c 0.11162,0.69806 0.21766,3.28615 0.23563,5.75132 l 0.0327,4.48213 3.7641,-0.0722 c 2.07025,-0.0397 5.27222,-0.20088 7.11548,-0.35814 z m -17.13669,-4.5459 c -0.0148,-2.23132 -0.14109,-4.79406 -0.28056,-5.69498 -0.25302,-1.6345 -0.25715,-1.63855 -1.9133,-1.87806 -3.66492,-0.53003 -10.01883,-2.06997 -14.31892,-3.47034 -4.36832,-1.42259 -4.56063,-1.45411 -4.93889,-0.80944 -0.21647,0.36894 -1.38576,1.98874 -2.59844,3.59957 -1.21267,1.61082 -2.20486,3.03071 -2.20486,3.1553 0,0.12459 -0.34,0.70402 -0.75555,1.28761 -0.9032,1.26843 -0.93729,1.23745 3.04861,2.77066 7.04376,2.70945 18.28023,5.32128 22.22499,5.16604 l 1.76389,-0.0694 z m 47.47558,-0.52917 c 0,-0.097 -0.0794,-0.17639 -0.17639,-0.17639 -0.097,0 -0.17639,0.0794 -0.17639,0.17639 0,0.097 0.0794,0.17639 0.17639,0.17639 0.097,0 0.17639,-0.0794 0.17639,-0.17639 z m -5.28072,-2.91041 c 0.5331,-0.53358 1.26466,-1.20827 1.62569,-1.49931 2.23373,-1.8007 6.23887,-6.59476 7.3457,-8.79264 1.39102,-2.7622 1.54312,-4.20946 0.63031,-5.99761 -0.9652,-1.89077 -1.6403,-2.12468 -2.8333,-0.98171 -0.55409,0.53084 -1.14094,0.84389 -1.30411,0.69565 -0.16318,-0.14824 -0.1882,-0.0803 -0.0556,0.15093 0.2896,0.50505 -3.71664,4.50649 -5.14483,5.13867 -0.53919,0.23867 -0.98035,0.55394 -0.98035,0.70061 0,0.14666 -0.20728,0.26666 -0.46063,0.26666 -0.25335,0 -1.00741,0.41465 -1.67569,0.92144 -0.66829,0.50679 -1.88976,1.2286 -2.71438,1.60401 -0.82461,0.37541 -1.4993,0.85823 -1.4993,1.07294 0,0.21471 0.79375,1.22965 1.76389,2.25543 0.97014,1.02578 1.76389,2.11268 1.76389,2.41534 0,0.30265 0.1641,0.55028 0.36467,0.55028 0.20057,0 0.6925,0.55563 1.09318,1.23472 0.40068,0.6791 0.8147,1.23473 0.92005,1.23473 0.10535,0 0.62772,-0.43657 1.16082,-0.97014 z m 7.75016,0.44097 c 0,-0.097 -0.0794,-0.17639 -0.17638,-0.17639 -0.097,0 -0.17639,0.0794 -0.17639,0.17639 0,0.097 0.0794,0.17639 0.17639,0.17639 0.097,0 0.17638,-0.0794 0.17638,-0.17639 z m -82.81457,-3.13692 c 0.33955,-0.25775 0.61736,-0.62497 0.61736,-0.81605 0,-0.19107 0.31619,-0.63355 0.70265,-0.98329 0.74547,-0.67464 4.94179,-6.66547 4.94179,-7.05509 0,-0.35506 -0.80508,-1.0779 -1.77117,-1.59023 -1.66991,-0.88558 -5.82375,-3.69579 -7.67936,-5.19534 -1.0262,-0.82929 -1.93613,-1.5078 -2.02207,-1.5078 -0.086,0 -1.47835,0.6108 -3.09423,1.35734 -1.61588,0.74654 -4.51595,1.88349 -6.44459,2.52656 -1.92865,0.64307 -3.62875,1.27357 -3.77801,1.40112 -0.82741,0.70705 10.4717,9.08763 15.61721,11.58333 1.83549,0.89026 2.07543,0.9133 2.91042,0.27945 z m -24.07708,-2.8603 c 0,-0.097 -0.0794,-0.17639 -0.17639,-0.17639 -0.097,0 -0.17639,0.0794 -0.17639,0.17639 0,0.097 0.0794,0.17639 0.17639,0.17639 0.097,0 0.17639,-0.0794 0.17639,-0.17639 z m 79.32972,-4.60038 c 7.14223,-1.03517 12.53962,-2.92414 17.22643,-6.02886 4.74078,-3.14048 4.44528,-2.20848 4.23582,-13.359654 -0.14161,-7.53886 -0.33504,-10.40773 -0.92765,-13.75833 -1.37359,-7.766231 -3.75789,-15.580656 -6.5659,-21.519445 -1.79028,-3.78633 -1.48262,-3.623083 -4.45341,-2.362966 -1.42497,0.604427 -3.46398,1.338646 -4.53113,1.631596 l -1.94028,0.532637 -1.74835,3.450755 c -1.74051,3.435294 -2.57975,4.838257 -5.14654,8.603587 -1.3343,1.957329 -1.34478,1.999383 -1.0119,4.056944 0.185,1.143512 0.43084,6.127242 0.54631,11.074942 0.16659,7.13843 0.0898,10.05201 -0.37214,14.111114 -0.74292,6.52883 -1.20737,8.10298 -3.3668,11.41089 l -1.76272,2.70022 h 3.03441 c 1.66892,0 4.72165,-0.24454 6.78385,-0.54343 z m 13.13005,-17.480014 c -2.57889,-1.03113 -2.18711,-4.11842 0.62163,-4.89858 3.31518,-0.92082 5.37535,0.0594 5.44713,2.5918 0.0551,1.94482 -0.8582,2.69601 -3.24502,2.66897 -1.08559,-0.0123 -2.35627,-0.17528 -2.82374,-0.36219 z m -4.83853,-10.52488 c -0.96265,-0.41615 -1.62047,-2.24767 -1.20231,-3.34751 0.48172,-1.26703 3.20923,-2.40838 6.21654,-2.60138 2.82063,-0.18102 3.34129,0.0653 4.04392,1.91336 0.27901,0.73387 0.257,1.21025 -0.0868,1.87866 -0.5988,1.16408 -1.20503,1.79737 -1.46844,1.53396 -0.11542,-0.11542 -0.46065,-0.002 -0.76717,0.25266 -0.6718,0.55755 -5.66723,0.83214 -6.73571,0.37025 z m -91.15744,27.417764 c 0.69857,-0.74983 0.77804,-1.5743 0.14071,-1.45982 -2.95355,0.53054 -8.8338,1.25849 -11.50937,1.42481 -5.81677,0.3616 -3.81709,0.8128 3.60223,0.8128 6.8055,0 7.06613,-0.0261 7.76643,-0.77779 z m 65.58441,-0.0842 c 1.82298,-0.94486 4.25151,-3.4314 5.15506,-5.27819 1.43407,-2.93115 2.12406,-11.141654 1.77634,-21.137644 l -0.26781,-7.69868 -1.61351,1.87785 c -2.79736,3.25564 -7.25846,7.56659 -8.48821,8.20251 -1.52508,0.78866 -2.6663,0.48974 -3.21832,-0.84296 -0.37349,-0.90168 -0.29597,-1.67833 0.53744,-5.38435 1.31025,-5.82644 1.51937,-6.98467 1.22869,-6.80501 -0.13566,0.0838 -1.40899,1.85368 -2.82962,3.93298 -1.42063,2.07931 -2.78645,4.03048 -3.03515,4.33595 -0.2487,0.30546 -1.51625,1.90477 -2.81678,3.554 -3.7454,4.74965 -6.12703,7.05556 -7.28723,7.05556 -1.18456,0 -1.67403,-0.97887 -1.41121,-2.82223 l 0.17604,-1.23472 -0.87267,0.80424 c -0.47997,0.44232 -1.5127,1.23607 -2.29496,1.76388 -0.78226,0.52781 -2.22906,1.56528 -3.21512,2.30548 l -1.79284,1.345834 0.76063,1.82917 c 0.41835,1.00605 1.33578,3.55649 2.03874,5.66765 l 1.2781,3.83847 2.26861,0.85802 c 5.37267,2.03201 12.99125,3.81035 18.40545,4.29623 3.2903,0.29528 4.20113,0.21868 5.51833,-0.46404 z m 39.55178,-2.84215 c 0,-0.097 -0.0794,-0.17639 -0.17639,-0.17639 -0.097,0 -0.17639,0.0794 -0.17639,0.17639 0,0.097 0.0794,0.17639 0.17639,0.17639 0.097,0 0.17639,-0.0794 0.17639,-0.17639 z M 207.7192,110.56454 c 23.00783,-1.78424 40.39267,-6.989 53.62499,-16.054514 8.36309,-5.72959 16.63803,-15.05943 20.13177,-22.6982 2.48323,-5.429385 4.62963,-12.752835 3.73767,-12.752835 -0.18492,0 -0.50219,0.357187 -0.70505,0.793749 -0.55294,1.189957 -4.9022,6.873477 -7.50552,9.808051 -4.51894,5.093944 -5.47894,6.066731 -7.7506,7.853836 -1.26696,0.996719 -2.38294,1.910289 -2.47996,2.030149 -0.097,0.11987 -1.18604,0.9571 -2.42006,1.86052 -2.46518,1.80475 -4.00044,2.12362 -4.62308,0.96022 -0.60516,-1.13075 -0.43598,-2.14083 1.24871,-7.455479 5.49882,-17.346942 6.5642,-26.6788 5.0518,-44.249655 -0.37009,-4.299656 -2.26986,-17.201209 -2.67527,-18.168054 -0.12204,-0.291042 -0.19668,-0.64823 -0.16588,-0.79375 0.0308,-0.145521 -0.19149,-0.264584 -0.49398,-0.264584 -0.30249,0 -0.47791,-0.119062 -0.38981,-0.264583 0.16571,-0.273713 -0.88547,-1.414925 -1.10918,-1.204178 -0.0693,0.06531 -1.63644,-1.323917 -3.48249,-3.087163 -1.84605,-1.763246 -3.84032,-3.550443 -4.43171,-3.971549 l -1.07525,-0.765647 -1.44815,0.766985 c -0.79648,0.421841 -1.61665,0.766544 -1.8226,0.766005 -0.20595,-5.39e-4 -0.6822,0.281238 -1.05833,0.62617 -0.64878,0.594956 -6.58125,3.808023 -6.77062,3.667012 -0.0492,-0.03666 -1.08111,0.379743 -2.29305,0.925342 -1.21195,0.545599 -3.23542,1.358912 -4.4966,1.807363 -1.26118,0.448451 -2.95415,1.109036 -3.76215,1.467966 -0.808,0.358931 -3.14853,1.232739 -5.20117,1.941797 -3.56043,1.229903 -3.77274,1.262549 -4.61632,0.709817 -0.97546,-0.639147 -1.06668,-1.095676 -0.51097,-2.5573 0.56161,-1.477139 2.78975,-4.049086 3.2697,-3.774219 0.22768,0.130393 0.29776,0.108647 0.15573,-0.04833 -0.31907,-0.352622 0.90273,-1.74158 7.45354,-8.47331295 6.08306,-6.25106705 7.0922,-7.40282705 7.0922,-8.09454805 0,-0.735849 -1.33565,-1.88872 -3.08681,-2.664395 -0.82462,-0.365264 -1.4993,-0.814583 -1.4993,-0.998487 0,-0.183904 -0.41076,-0.437463 -0.91279,-0.563465 -1.12484,-0.282318 -1.50331,-0.04821 -7.78548,4.815702 -8.2184,6.363032 -15.79638,11.916749 -16.26076,11.917113 -0.24253,1.9e-4 -0.44097,0.1396 -0.44097,0.309799 0,0.875723 -32.18537,22.453511 -32.76889,21.968994 -0.0753,-0.06254 -0.23407,0.01891 -0.35278,0.181003 -0.1187,0.162093 -0.53333,0.492237 -0.92138,0.733654 -6.39241,3.97684 -8.29869,4.432723 -8.58128,2.052195 -0.16456,-1.386275 0.81386,-2.786501 8.39638,-12.016134 10.06463,-12.250912 23.99739,-30.204437 23.99739,-30.922628 0,-0.439551 -0.15594,-0.376083 -1.09255,0.444669 -1.23032,1.078137 -3.84633,2.85409 -3.84633,2.611193 0,-0.114187 -0.42578,0.187191 -0.94618,0.66973 -0.5204,0.482539 -1.07602,0.797095 -1.23472,0.699013 -0.1587,-0.09808 -0.28855,-0.0222 -0.28855,0.168632 0,0.402187 -6.35587,4.500822 -6.77511,4.368981 -0.15424,-0.04851 -0.28044,0.07056 -0.28044,0.264583 0,0.194028 -0.16539,0.352778 -0.36753,0.352778 -0.20214,0 -0.70243,0.31201 -1.11176,0.693356 -0.40933,0.381346 -0.87894,0.610102 -1.04358,0.508347 -0.16465,-0.101755 -0.29936,-0.0075 -0.29936,0.209408 0,0.21693 -0.15875,0.296305 -0.35277,0.176389 -0.19403,-0.119916 -0.35278,-0.06634 -0.35278,0.119055 0,0.279784 -4.12177,2.96062305 -5.99722,3.900655 -1.96476,0.984794 -3.74295,2.030295 -3.96335,2.330289 -0.14255,0.194028 -0.26161,0.23527 -0.26458,0.09165 -0.003,-0.143622 -0.32064,0.0088 -0.70592,0.338668 -0.73393,0.628414 -8.84227,4.998323 -16.05643,8.653457 -6.07139,3.07614 -7.58472,3.202339 -7.58472,0.632505 0,-0.590272 -0.0858,-1.073223 -0.19067,-1.073223 -0.28825,0 -2.43811,1.549042 -2.57349,1.854282 -0.0651,0.146729 -0.25018,0.185291 -0.41133,0.08569 -0.16116,-0.0996 -0.77039,0.296287 -1.35385,0.879746 -0.58345,0.58346 -1.1452,1.060836 -1.24832,1.060836 -0.23995,0 -2.06272,1.815359 -1.91664,1.908842 9.44423,6.043758 14.47247,13.065363 16.31614,22.784372 3.04214,16.036877 -5.84987,32.885808 -20.24337,38.357961 -1.72814,0.657 -3.25005,0.92516 -6.01736,1.06024 -6.11419,0.29846 -10.39583,-0.69342 -15.04336,-3.484932 -2.82591,-1.697375 -7.53363,-6.399159 -9.22073,-9.209126 -0.32036,-0.533577 -0.68575,-0.970139 -0.81199,-0.970139 -0.32923,0 -2.53932,7.056133 -2.54958,8.140036 -0.0175,1.848883 5.98393,8.935441 11.38774,13.446791 5.25736,4.38909 12.5231,8.78157 18.70737,11.309484 13.22404,5.40553 29.03295,8.78045 49.0361,10.46832 4.93875,0.41673 23.1867,0.43408 28.43558,0.027 z M 175.90451,83.790006 c -0.79136,-0.35942 -1.78124,-1.08878 -2.19973,-1.6208 l -0.76089,-0.96732 -1.27905,1.12302 c -1.58066,1.38783 -2.5797,1.7813 -4.52284,1.7813 -3.56423,0 -6.19791,-3.59679 -6.19953,-8.466661 -9e-4,-2.674804 0.94994,-4.233333 2.58268,-4.233333 1.83524,0 2.49118,0.97717 2.4188,3.603336 -0.11777,4.273008 1.56119,4.930358 4.0884,1.600706 0.88602,-1.167359 1.91407,-2.121994 2.42263,-2.249634 1.2256,-0.307606 2.51689,0.367163 3.22901,1.687338 0.33056,0.612813 1.01729,1.596919 1.52607,2.186902 0.90945,1.054616 0.94068,1.062456 1.85208,0.465276 0.82783,-0.542407 0.92704,-0.830608 0.92704,-2.69298 0,-2.627861 0.44663,-3.81441 1.601,-4.253299 1.22264,-0.464847 2.88411,0.399152 3.24458,1.687243 0.55587,1.98634 0.2428,5.118346 -0.69581,6.960946 -1.05349,2.06813 -1.76416,2.77484 -3.53399,3.51432 -1.69525,0.70832 -2.93611,0.67496 -4.70045,-0.12636 z m 52.23883,-0.41132 c -11.8068,-2.88317 -20.6129,-10.511406 -24.86598,-21.540022 -1.82459,-4.731315 -2.24216,-7.058362 -2.27129,-12.65745 -0.03,-5.766061 0.42635,-8.696601 1.99704,-12.82431 2.06755,-5.433458 4.70603,-9.313507 9.07044,-13.338631 6.4926,-5.987865 12.75698,-8.654393 21.20569,-9.026521 5.4813,-0.241426 8.87248,0.44198 13.62573,2.745921 2.97547,1.442239 4.14712,2.269258 6.82458,4.817207 5.00657,4.764401 7.58819,8.857989 9.80589,15.548877 1.49856,4.521207 1.95111,8.077707 1.73143,13.606938 -0.19873,5.001685 -0.86517,8.162646 -2.67272,12.67678 -1.45262,3.627766 -4.94865,8.97726 -5.52553,8.454972 -0.15786,-0.142915 -0.17669,-0.06767 -0.0418,0.167203 0.27713,0.482737 -4.5359,5.746561 -5.25443,5.746561 -0.24561,0 -0.5312,0.220527 -0.63463,0.490061 -0.26804,0.698504 -5.03535,3.257204 -8.07208,4.332434 -2.26102,0.80057 -3.24194,0.92596 -8.04312,1.02817 -3.00743,0.064 -6.10306,-0.0387 -6.87917,-0.22819 z m 15.60232,-4.20272 c 1.04092,-0.44828 2.46205,-1.464644 3.26319,-2.333777 1.75132,-1.89995 1.96718,-3.86174 0.57782,-5.251107 -1.92127,-1.92127 -7.41456,-2.097189 -11.53637,-0.369443 -1.24438,0.521609 -2.46095,0.961732 -2.70349,0.978051 -0.24253,0.01632 -0.36521,0.105432 -0.27261,0.19803 0.0926,0.0926 -0.30428,0.706663 -0.88194,1.36459 -1.34685,1.53397 -1.37234,2.919154 -0.0802,4.355889 1.45254,1.615047 3.26822,2.146387 6.79097,1.987297 2.0884,-0.0943 3.55834,-0.37647 4.8426,-0.92953 z m 13.85462,-8.651699 c 0,-0.09701 -0.0794,-0.176389 -0.17639,-0.176389 -0.097,0 -0.17639,0.07937 -0.17639,0.176389 0,0.09701 0.0794,0.176389 0.17639,0.176389 0.097,0 0.17639,-0.07937 0.17639,-0.176389 z m -34.53666,-5.874791 c 1.91366,-0.649079 3.17232,-1.707881 3.87836,-3.26253 0.87348,-1.923358 0.83127,-3.614099 -0.13273,-5.316134 -2.43678,-4.302358 -8.2622,-4.414976 -11.09293,-0.214451 -1.53639,2.279847 -0.82479,5.870001 1.51762,7.656639 1.92752,1.470192 3.78068,1.831459 5.82968,1.136476 z m 15.17393,-14.76457 c 7.55911,-1.410757 12.99921,-8.896487 11.61078,-15.976775 -0.82852,-4.225061 -2.2967,-6.646454 -5.43161,-8.958087 -4.01154,-2.958051 -9.59645,-3.720323 -14.24491,-1.944253 -1.01864,0.389201 -1.85208,0.644566 -1.85208,0.567476 0,-0.26039 -1.93077,1.432658 -3.4095,2.989713 -2.07357,2.183407 -3.22766,4.495767 -3.61742,7.247933 -1.2353,8.722824 5.00385,15.873263 14.29891,16.387393 0.41008,0.02268 1.6007,-0.118347 2.64583,-0.3134 z m 9.83773,-22.399524 c 0,-0.09701 -0.0794,-0.176389 -0.17639,-0.176389 -0.097,0 -0.17639,0.07937 -0.17639,0.176389 0,0.09701 0.0794,0.176389 0.17639,0.176389 0.097,0 0.17639,-0.07937 0.17639,-0.176389 z M 140.83085,15.843716 c 0,-0.09701 0.0794,-0.176389 0.17639,-0.176389 0.097,0 0.17639,0.07937 0.17639,0.176389 0,0.09701 -0.0794,0.176389 -0.17639,0.176389 -0.097,0 -0.17639,-0.07937 -0.17639,-0.176389 z m 119.94443,90.151314 c 0,-1.03902 -0.77586,-2.5293 -1.20732,-2.31901 -0.2091,0.10191 -0.65799,0.28329 -0.99754,0.40306 -0.91423,0.32247 -0.73092,0.92295 0.54276,1.77786 1.4397,0.96636 1.6621,0.98484 1.6621,0.13809 z M 93.756078,71.283796 c 0.512495,-2.880731 1.479538,-7.246356 2.148983,-9.701388 1.490904,-5.467539 1.33842,-4.957609 1.862221,-6.227584 0.24008,-0.582083 0.677122,-1.772708 0.971204,-2.645833 0.294083,-0.873125 0.745939,-2.06375 1.004125,-2.645833 0.258189,-0.582083 1.376629,-3.201458 2.485419,-5.820833 1.81302,-4.282988 4.08912,-8.926056 6.57161,-13.405554 1.43222,-2.584343 6.38395,-10.348899 7.08684,-11.1125 0.3572,-0.388055 0.98775,-1.26118 1.40121,-1.940277 0.41346,-0.679097 0.84041,-1.314097 0.94877,-1.411111 0.10836,-0.09701 0.85316,-1.049514 1.65512,-2.116667 0.80196,-1.067152 1.75911,-2.257777 2.12701,-2.645833 0.36789,-0.388055 0.9052,-1.046734 1.19401,-1.46373 2.36365,-3.412676 12.01711,-13.033325 15.26969,-15.217798 1.38872,-0.932684 3.34139,-2.2729 4.33925,-2.978259 2.29857,-1.624776 9.61371,-5.348404 11.98229,-6.099343 0.99118,-0.314247 2.41993,-0.520747 3.175,-0.45889 1.22027,0.09997 1.38579,0.225835 1.48929,1.132521 0.064,0.56103 -0.0153,1.116655 -0.17638,1.234722 -0.16106,0.118068 -0.54936,0.672314 -0.86288,1.231659 -0.32205,0.574542 -1.08944,1.197233 -1.76389,1.431285 -0.65662,0.227861 -2.00655,1.000527 -2.99987,1.717036 -0.99331,0.716509 -1.96061,1.302743 -2.14956,1.302743 -0.18896,0 -0.88437,0.463992 -1.54537,1.031094 -0.661,0.567101 -2.39245,2.030323 -3.84765,3.251603 -2.90179,2.43532205 -3.05156,2.58408305 -7.4409,7.39089 -5.04678,5.526783 -8.08133,9.076578 -8.08133,9.453493 0,0.196517 -0.27781,0.519115 -0.61736,0.716884 -0.33955,0.197768 -0.48145,0.364407 -0.31535,0.370307 0.16611,0.0059 0.95986,-0.499938 1.76389,-1.124084 1.35366,-1.050803 8.64803,-7.262246 9.0466,-7.703537 0.097,-0.107411 1.36078,-1.133053 2.80837,-2.279204 1.44759,-1.14615 2.88052,-2.328268 3.18428,-2.626928 0.30377,-0.29866 1.73875,-1.45060995 3.18885,-2.55988795 1.45011,-1.10927805 3.03343,-2.37927805 3.5185,-2.82222205 0.48507,-0.442944 1.51694,-1.278291 2.29306,-1.856327 0.77611,-0.578036 1.82386,-1.416502 2.32834,-1.863259 0.50448,-0.446757 3.36198,-2.625111 6.35,-4.840788 2.98802,-2.215677 5.68302,-4.246837 5.98888,-4.513689 0.30586,-0.266853 0.78211,-0.591112 1.05833,-0.720576 0.66889,-0.313505 1.8697,-1.072564 2.08972,-1.320956 0.097,-0.109523 1.87769,-1.323119 3.95705,-2.69688 4.09222,-2.703579 6.28076,-3.630376 8.57278,-3.630376 1.23797,0 1.53341,0.143497 1.88523,0.915653 0.38245,0.839393 0.30541,1.023022 -0.925,2.204861 -0.73821,0.709064 -2.52765,2.268295 -3.97654,3.464957 -3.7143,3.067691 -17.68955,17.050638 -17.04126,17.050638 1.75339,0 28.58223,-17.685282 31.6227,-20.845341 0.54341,-0.564783 1.13873,-1.026879 1.32292,-1.026879 0.81085,0 0.22071,-0.991567 -0.98802,-1.660093 -2.00454,-1.108675 -13.34485,-5.74824 -14.0502,-5.74824 -0.12037,0 -0.7191,-0.228013 -1.33051,-0.506696 -4.47031,-2.037595 -27.59353,-8.39537 -39.20407,-10.779237 -5.4229,-1.113426 -14.5952,-2.420241 -19.76313,-2.815736 -5.4793,-0.419323 -6.52639,-0.585205 -6.52639,-1.033922 0,-0.520303 1.58108,-1.37534 4.10662,-2.220837 2.29494,-0.768295 2.35607,-0.816327 1.18505,-0.931043 -0.6791,-0.06653 -3.69535,-0.0514 -6.70278,0.03361 -4.50722,0.127404 -6.08794,0.322094 -8.99583,1.107974 -3.41374,0.922591 -8.34323,2.916547 -8.584992,3.472589 -0.06508,0.149678 -0.237336,0.19859 -0.382793,0.108693 -0.145456,-0.0899 -0.965335,0.460233 -1.821952,1.222512 -0.856617,0.762278 -1.66225,1.390467 -1.790294,1.395973 -0.128045,0.0055 -1.301582,1.0022 -2.60786,2.214874 -1.306279,1.212673 -2.511202,2.165173 -2.677608,2.116666 -0.166406,-0.04851 -0.262869,0.110243 -0.214362,0.352778 0.05091,0.254531 -0.187791,0.393709 -0.564569,0.329184 -0.40674,-0.06966 -0.561493,0.03589 -0.410601,0.280036 0.295376,0.477929 -0.477065,1.489983 -0.925626,1.212757 -0.17685,-0.109299 -0.277925,-0.04542 -0.224611,0.141963 0.05331,0.187379 -1.061334,1.713425 -2.476996,3.391215 -3.574634,4.236521 -3.579013,4.499108 -0.04346,2.605924 4.011467,-2.148021 15.737616,-7.39394 19.080814,-8.536169 1.4878,-0.508319 3.30092,-0.924215 4.02916,-0.924215 1.3676,0 2.61436,0.791716 2.61436,1.660161 0,0.604642 -2.26452,2.762169 -3.70417,3.52916 -0.58208,0.310112 -1.77271,1.301188 -2.64583,2.202391 -0.87313,0.901203 -2.14313,2.112802 -2.82222,2.692443 -0.679099,0.57964 -1.782116,1.683143 -2.45115,2.452229 -0.669034,0.769085 -1.343721,1.358649 -1.499305,1.310142 -0.155584,-0.04851 -0.243192,0.04709 -0.194685,0.212438 0.04851,0.165347 -1.035837,1.713159 -2.409654,3.439583 -1.373816,1.726423 -3.253302,4.170826 -4.176637,5.432006 -0.923334,1.261181 -1.824354,2.346302 -2.002267,2.411381 -0.177912,0.06508 -0.233744,0.263516 -0.12407,0.440972 0.109674,0.177456 0.03129,0.322647 -0.174191,0.322647 -0.205478,0 -0.373597,0.224896 -0.373597,0.499769 0,0.274872 -0.119063,0.552685 -0.264584,0.617361 -0.303494,0.134886 -0.958012,1.366145 -4.375727,8.231481 -1.352278,2.71638805 -2.604412,5.209341 -2.782519,5.539894 -0.396001,0.734946 0.193905,1.225599 0.610176,0.507514 1.576709,-2.71988795 10.955227,-12.063729 13.452268,-13.402527 1.031076,-0.552815 1.928519,-0.94969 1.994317,-0.881944 0.219979,0.226491 -1.054374,5.841336 -1.438261,6.337032 -1.086212,1.402574 -3.030785,5.04529405 -4.007031,7.506271 -3.283728,8.277809 -4.906903,19.935625 -4.450586,31.96459 0.287196,7.570781 1.064847,17.102884 1.798238,22.042017 1.22327,8.238302 4.644433,21.726333 5.175112,20.403031 0.141356,-0.352487 0.676325,-2.997847 1.188821,-5.878578 z M 104.14196,-31.78128 c 0,-0.09701 0.0794,-0.176389 0.17639,-0.176389 0.097,0 0.17639,0.07938 0.17639,0.176389 0,0.09701 -0.0794,0.176389 -0.17639,0.176389 -0.097,0 -0.17639,-0.07938 -0.17639,-0.176389 z M 132.8527,77.035568 c 2.20658,-0.82559 4.45037,-3.028141 4.45037,-4.368583 0,-2.39498 -3.39978,-4.028469 -7.49384,-3.600556 -2.52139,0.263538 -6.03253,1.75722 -6.98904,2.973227 -0.85325,1.08472 -0.88567,2.924522 -0.0692,3.926836 1.47952,1.816308 6.64379,2.362844 10.1017,1.069076 z m 168.71142,-4.435935 c 0.3644,-0.50159 1.14198,-1.570619 1.72796,-2.375619 1.64791,-2.263837 2.72218,-3.961691 5.16709,-8.166413 2.54653,-4.379492 2.62939,-4.55128 4.74557,-9.839347 2.63879,-6.59399 3.02988,-10.135396 1.82827,-16.555604 -0.47078,-2.515391 -0.70745,-2.357915 -2.75253,1.83148 -1.70909,3.501132 -4.34891,7.869218 -6.53,10.805139 -3.40116,4.578246 -4.61587,6.293206 -5.43003,7.666297 l -0.84788,1.429963 0.42955,4.902873 c 0.24057,2.745758 0.33256,6.56515 0.20911,8.681036 -0.23759,4.071887 -0.28767,4.016044 1.45289,1.620195 z M 122.83918,70.877045 c 0,-0.09701 -0.0794,-0.176389 -0.17639,-0.176389 -0.097,0 -0.17638,0.07937 -0.17638,0.176389 0,0.09701 0.0794,0.176389 0.17638,0.176389 0.097,0 0.17639,-0.07937 0.17639,-0.176389 z m 150.71026,-6.815857 c 1.22039,-1.517402 2.5364,-3.200328 2.92445,-3.739836 0.38806,-0.539508 1.18843,-1.639559 1.7786,-2.444559 1.24893,-1.703533 3.02908,-4.540793 3.7859,-6.034084 0.49354,-0.973794 0.45941,-1.230136 -0.51661,-3.880555 -0.57478,-1.560837 -1.36379,-3.71101 -1.75337,-4.778162 -0.90015,-2.465765 -4.93596,-12.090074 -5.20702,-12.417333 -0.11229,-0.135575 -0.21144,3.7538 -0.22033,8.643055 -0.0178,9.767689 -0.75019,16.759489 -2.45786,23.462556 -0.91333,3.585093 -0.97902,3.947831 -0.71501,3.947831 0.0893,0 1.16085,-1.241511 2.38125,-2.758913 z m -155.31246,0.06647 c 1.50979,-0.891858 2.59174,-2.7916 2.74899,-4.826826 0.19291,-2.496631 -1.07824,-4.484536 -3.54658,-5.546388 -1.56186,-0.671895 -1.90927,-0.70235 -3.54572,-0.31084 -4.50029,1.076663 -6.16024,6.144354 -3.11981,9.524532 1.80204,2.003397 5.15316,2.52405 7.46312,1.159522 z m 201.95387,-9.183555 c 1.58186,-0.754336 1.71716,-1.174875 0.84132,-2.615081 -0.68169,-1.120943 -0.73976,-1.145395 -1.20598,-0.507803 -0.26939,0.368416 -0.4898,0.885514 -0.4898,1.149106 0,0.263593 -0.2422,0.947626 -0.53823,1.520074 -0.61597,1.191162 -0.34137,1.280621 1.39269,0.453704 z m -21.31557,-5.274175 c 3.25278,-4.216222 4.82972,-6.390002 8.52736,-11.754776 2.19794,-3.188904 4.41049,-6.591329 4.91678,-7.560944 0.90815,-1.739242 0.91355,-1.793548 0.40106,-4.040295 -0.88107,-3.862642 -4.85539,-13.459269 -7.33111,-17.702141 -0.62269,-1.067152 -2.35228,-4.083402 -3.84354,-6.702777 -6.30798,-11.079882 -11.38149,-17.80436 -19.43004,-25.752776 -2.65237,-2.619374 -5.00686,-4.921306 -5.2322,-5.115402 -0.22533,-0.194097 -1.60032,-1.396511 -3.05553,-2.672032 -11.80631,-10.348474 -27.87476,-20.892057 -43.1632,-28.322251 -3.45011,-1.676754 -6.3395,-3.048645 -6.42088,-3.048645 -0.0814,0 -2.4123,-0.97045 -5.17985,-2.156556 -15.5153,-6.649502 -33.90417,-12.409873 -49.30551,-15.445113 -10.78147,-2.124775 -17.74801,-2.859465 -27.11337,-2.859371 -7.26566,7.3e-5 -13.39404,0.708973 -17.16023,1.98501 -1.75988,0.596271 -4.87962,2.757209 -6.49969,4.502109 -0.47039,0.50663 -1.0657,0.921145 -1.32292,0.921145 -0.25722,0 -0.42798,0.128392 -0.37948,0.285315 0.0485,0.156924 -1.52245,2.180987 -3.49103,4.497917 -1.96857,2.31693 -4.17634,5.00635 -4.90615,5.976489 -0.72982,0.970139 -1.42384,1.843264 -1.54227,1.940277 -0.11844,0.09701 -1.59412,2.319514 -3.27929,4.938889 -1.68517,2.619375 -3.33712,5.067872 -3.671,5.441106 -0.578375,0.646551 -0.574995,0.665299 0.0716,0.396898 3.22935,-1.340595 11.26624,-3.015782 14.46853,-3.015782 1.77212,0 1.82653,-0.03047 2.0476,-1.146528 0.43624,-2.202336 3.71429,-8.281437 6.47212,-12.002466 5.33768,-7.20191 10.22424,-11.545448 12.98886,-11.545448 0.8396,0 0.91301,0.09839 0.70169,0.940378 -0.12982,0.517208 -1.271,1.985645 -2.53597,3.263194 -3.79142,3.829109 -8.49267,10.34718 -10.577,14.664528 -1.03186,2.137335 -1.97739,4.322627 -2.10116,4.856203 l -0.22505,0.970139 5.4181,0.0031 c 11.37474,0.0064 27.75072,2.83096 42.63616,7.353871 9.96782,3.028703 12.6122,3.912492 20.82137,6.958808 1.2653,0.469534 2.5353,0.852979 2.82222,0.852098 0.3151,-9.67e-4 1.15032,-1.359658 2.10919,-3.431109 2.72669,-5.890537 6.83567,-11.977267 11.40395,-16.892976 2.56962,-2.765038 4.12436,-3.684535 5.00053,-2.957381 1.12817,0.936302 0.59566,2.245793 -2.80638,6.901117 -3.87293,5.299691 -5.8345,8.494214 -9.61013,15.650629 l -1.56843,2.972846 0.8187,0.455242 c 0.45028,0.250383 2.56495,1.198713 4.69926,2.1074 5.58754,2.378915 18.28888,8.588398 21.08468,10.307966 1.3131,0.807632 2.44126,1.468421 2.50702,1.468421 0.24246,0 6.44586,3.645682 7.9819,4.690892 5.16836,3.516841 6.39233,4.195467 6.92259,3.838209 0.19497,-0.131353 1.99968,-2.620073 4.01048,-5.53049 7.5778,-10.968077 11.93526,-16.051387 13.75937,-16.051387 1.01363,0 1.41312,0.522978 1.41312,1.849941 0,0.69026 -1.4433,3.476873 -2.26999,4.38273 -0.20671,0.226511 -1.09022,1.463804 -1.96334,2.74954 -1.32929,1.957469 -3.82022,5.513285 -9.22985,13.175665 -0.45337,0.642181 -1.02276,1.384904 -1.26529,1.650496 -0.96808,1.060118 -0.82825,1.215194 4.85069,5.379334 2.03729,1.493864 3.78354,2.801007 3.88056,2.904761 0.097,0.103754 1.84326,1.614881 3.88055,3.358059 2.03729,1.74317805 5.02599,4.441489 6.64154,5.996248 1.61555,1.554758 3.12368,2.863922 3.35139,2.909253 0.48733,0.09702 2.96259,-3.183109 6.41124,-8.495943 3.5408,-5.454808 6.55978,-9.202365 7.52469,-9.340639 1.29078,-0.184971 1.8732,0.546445 1.60551,2.016214 -0.2983,1.637844 -2.44391,5.929072 -4.43003,8.86010205 -3.1541,4.65467495 -5.73664,8.32144895 -6.68775,9.49548295 l -0.97743,1.206525 1.06842,1.08653 c 0.58763,0.597592 1.96913,2.19778 3.07,3.555974 1.10088,1.358195 2.16034,2.645821 2.35437,2.861393 0.19402,0.215572 0.80691,0.969634 1.36197,1.675695 0.55505,0.70606 1.19005,1.277949 1.41111,1.270864 0.22105,-0.0071 0.83031,-0.689826 1.3539,-1.517204 0.52359,-0.827379 1.56409,-2.210645 2.31222,-3.073925 0.74813,-0.86328 1.81229,-2.36335 2.3648,-3.333489 2.44915,-4.300429 3.39219,-5.468055 4.41627,-5.468055 1.3656,0 1.90259,0.78318 1.67915,2.449006 -0.38791,2.892056 -3.62786,8.446929 -7.57336,12.98447 l -1.91671,2.204311 2.82736,4.501923 c 3.9554,6.298085 6.60924,11.742063 9.37109,19.223481 0.34023,0.921632 0.72454,1.669503 0.85401,1.661936 0.12947,-0.0076 0.79103,-0.733955 1.47013,-1.614194 z m -68.14452,-83.52854 c -1.24249,-0.615867 -1.24885,-2.298105 -0.0186,-4.910119 1.75901,-3.734566 7.06648,-10.924192 8.78106,-11.895021 1.11593,-0.631864 2.52779,-0.164812 2.80178,0.926848 0.18541,0.738727 -0.2287,1.573188 -2.22948,4.492544 -1.35144,1.971917 -3.13552,4.855303 -3.96461,6.407525 -2.61875,4.902804 -3.63037,5.84059 -5.37017,4.978223 z m -67.81791,-21.928556 c -1.38783,-1.387837 -1.07883,-3.487679 1.03809,-7.054383 2.49915,-4.21068 8.12145,-9.786046 9.58692,-9.506873 0.34677,0.06606 0.73103,0.132255 0.85392,0.1471 0.1229,0.01485 0.31337,0.370861 0.42327,0.791145 0.22106,0.845327 -0.27563,1.655339 -3.20883,5.233069 -1.03399,1.26118 -2.77175,4.085657 -3.86171,6.276615 -1.08996,2.190959 -2.15424,4.091939 -2.36506,4.224401 -0.77506,0.486965 -1.92012,0.435401 -2.4666,-0.111074 z m -27.01807,-4.35493 c -1.11546,-0.310429 -1.77945,-1.623927 -1.52425,-3.015266 0.61259,-3.339901 5.51515,-10.617824 10.41093,-15.455162 1.59431,-1.575285 3.8105,-1.183177 3.8105,0.674189 0,0.674928 -1.80817,3.236623 -3.86474,5.475306 -0.91036,0.990974 -4.74615,7.394541 -5.66718,9.46092 -0.67321,1.510404 -2.01586,3.382442 -2.25192,3.139835 -0.0188,-0.01934 -0.42982,-0.145261 -0.91334,-0.279822 z M 130.26335,49.5698 c 2.80836,-1.059406 5.68038,-3.747566 7.11328,-6.657897 1.06706,-2.167285 1.16116,-2.631131 1.16116,-5.723659 0,-3.078572 -0.097,-3.562335 -1.13836,-5.678818 -1.34397,-2.731447 -4.76311,-6.209755 -6.43226,-6.543586 -0.59791,-0.119582 -1.17255,-0.355668 -1.27698,-0.524634 -0.35396,-0.572719 -1.20933,-0.310893 -2.17991,0.667262 -0.53181,0.535962 -2.07818,2.170289 -3.43637,3.631839 -1.3582,1.46155 -3.38937,3.642411 -4.51372,4.846358 -1.12436,1.203947 -1.94301,2.188994 -1.81924,2.188994 0.18006,0 -2.28795,3.179917 -3.0118,3.880555 -0.10022,0.09701 -0.63154,0.838964 -1.1807,1.648777 -0.98163,1.44755 -0.98859,1.493212 -0.41272,2.706771 1.41838,2.989009 4.42659,5.165432 8.61412,6.232258 1.95804,0.498836 6.3195,0.153434 8.5135,-0.67422 z m 3.51194,-24.201085 c 0,-0.09701 -0.0794,-0.176388 -0.17638,-0.176388 -0.097,0 -0.17639,0.07937 -0.17639,0.176388 0,0.09701 0.0794,0.176389 0.17639,0.176389 0.097,0 0.17638,-0.07937 0.17638,-0.176389 z M 319.1351,18.048577 c 1.18429,-3.918041 1.4411,-5.178758 2.35348,-11.553471 0.90076,-6.29352595 1.06635,-17.600076 0.35133,-23.988887 -1.65345,-14.773871 -6.31042,-31.125678 -11.75504,-41.274997 -4.64614,-8.660863 -11.66462,-17.337142 -17.91237,-22.143358 -4.78198,-3.678642 -13.91337,-8.872375 -19.40278,-11.035879 -11.61458,-4.577581 -26.84188,-8.993245 -38.09999,-11.048365 -5.26556,-0.9612 -12.71932,-1.93329 -18.13719,-2.36538 -6.48682,-0.51734 -21.58575,-0.23097 -27.55564,0.52262 -11.01746,1.39076 -22.14265,4.36231 -31.63895,8.450804 -2.07769,0.894519 -3.98269,1.668298 -4.23333,1.719508 -0.25064,0.05121 -0.53509,0.190846 -0.63211,0.310302 -0.097,0.119456 -0.89076,0.577838 -1.76388,1.018627 -0.87313,0.440789 -1.96335,1.094952 -2.42272,1.453695 -0.45937,0.358743 -0.99983,0.55052 -1.20103,0.426171 -0.2012,-0.12435 -0.2669,-0.06602 -0.14599,0.129609 0.12091,0.195635 -0.21175,0.57735 -0.73924,0.848257 -0.89148,0.457841 -0.72286,0.498061 2.39231,0.570629 12.74674,0.296937 27.58766,2.851912 41.62777,7.166531 2.61938,0.804951 5.00063,1.535594 5.29167,1.62365 0.33061,0.100029 1.37034,-0.805678 2.77096,-2.413797 4.76478,-5.470644 10.80662,-10.412214 16.02888,-13.109897 3.80439,-1.965251 5.61064,-2.238891 6.61241,-1.001758 0.99393,1.227454 0.48795,2.10487 -1.91021,3.312457 -3.47216,1.748404 -8.23244,5.263007 -12.21299,9.017077 -0.87321,0.823534 -1.70672,1.498221 -1.85225,1.499305 -0.14552,0.0011 -0.26458,0.170047 -0.26458,0.375472 0,0.205425 -0.67469,1.09334 -1.4993,1.973143 -0.82462,0.879803 -1.49931,1.770061 -1.49931,1.978351 0,0.20829 0.71438,0.610396 1.5875,0.893568 7.0102,2.273552 18.25606,6.681595 25.4,9.956037 2.61937,1.200598 5.26062,2.399653 5.86943,2.664566 l 1.10694,0.481662 1.30175,-2.225897 c 2.11709,-3.620063 6.55122,-9.405306 10.03775,-13.096319 7.49567,-7.935302 14.63926,-12.131574 17.48176,-10.269097 1.62029,1.061661 1.19857,2.097926 -1.44519,3.551119 -6.13335,3.371314 -12.53099,9.573449 -18.57447,18.006866 -1.39043,1.940278 -2.61576,3.607152 -2.72296,3.704166 -0.47075,0.425991 -1.41259,2.132318 -1.40491,2.545227 0.005,0.249361 1.46372,1.247134 3.24238,2.217273 1.77866,0.970139 5.30137,2.994201 7.82823,4.497916 2.52686,1.503715 4.71582,2.734028 4.86434,2.734028 0.14853,0 0.61412,-0.67444 1.03466,-1.498754 1.36412,-2.673896 4.42157,-7.427103 7.55347,-11.742832 3.56546,-4.913193 5.00341,-6.513968 5.85137,-6.513968 0.90258,0 1.71989,0.977053 1.71989,2.056034 0,1.39836 -3.84862,7.978124 -11.40906,19.505393 l -0.60598,0.923929 3.38283,2.515654 c 1.86055,1.38361 3.58716,2.515654 3.83691,2.515654 0.24974,0 1.13528,-1.265632 1.96785,-2.812515 3.2042,-5.953263 4.41453,-7.178393 5.88556,-5.957547 1.19966,0.995634 -0.45927,6.333213 -3.11984,10.03799 l -1.16501,1.622249 1.05434,0.881383 c 2.27806,1.90436 7.12306,6.130067 8.43376,7.355757 l 1.3822,1.292548 0.60583,-0.803173 c 1.55186,-2.057347 4.60028,-10.387596 6.14026,-16.779126 1.16215,-4.823414 1.51031,-5.697326 2.53807,-6.370743 0.74863,-0.490519 0.91221,-0.487126 1.70978,0.03546 0.82571,0.541031 0.88194,0.768166 0.88194,3.562735 0,6.651505 -3.52404,18.206375 -6.90479,22.639915 -0.47098,0.617645 -0.85632,1.220063 -0.85632,1.338707 0,0.302392 8.59229,9.706095 8.87012,9.707768 0.78327,0.0047 2.84803,-7.39923 4.37754,-15.697242 0.32188,-1.74625 0.80022,-3.591384 1.06299,-4.100299 0.62342,-1.207403 1.71021,-1.472065 2.71216,-0.660482 0.73198,0.592905 0.79076,0.92023 0.77014,4.288838 -0.037,6.040317 -1.51425,12.813664 -3.92784,18.009328 l -1.26388,2.720719 2.57842,3.805669 c 1.41813,2.093118 3.06754,4.472604 3.66536,5.287747 0.59781,0.815142 1.61263,2.362954 2.25516,3.439583 0.64252,1.076628 1.38847,1.957505 1.65766,1.957505 0.28475,0 0.74874,-0.822579 1.10943,-1.966823 0.341,-1.081752 0.86505,-2.094868 1.16456,-2.251369 0.77843,-0.406741 2.02857,0.161359 2.31062,1.050009 0.21648,0.682066 0.44953,0.746246 2.32472,0.640206 1.14627,-0.06482 2.08383,-0.09499 2.08348,-0.06704 -0.02,1.584404 -0.92758,8.044272 -1.46673,10.44025 -0.40437,1.796997 -0.89732,3.981641 -1.09545,4.854766 -0.32665,1.439476 -0.24047,1.906784 0.92426,5.011678 0.70647,1.883298 1.2845,3.669235 1.2845,3.96875 0,1.423378 0.76931,0.258599 1.5626,-2.365845 z m -94.97021,-92.535969 c -0.49651,-0.34777 -0.78405,-0.91573 -0.78405,-1.548691 0,-3.09281 13.44678,-16.246581 16.60849,-16.246581 1.14167,0 2.44151,0.927872 2.44151,1.742843 0,0.618032 -1.30874,1.94666 -3.90255,3.961859 -1.07059,0.831768 -3.58952,3.352151 -10.59309,10.599164 -2.1059,2.179109 -2.54212,2.351662 -3.77031,1.491406 z m -36.33723,-15.875783 c -1.1045,-0.773628 -1.02171,-2.272506 0.18721,-3.389051 5.95771,-5.502476 19.85649,-9.399934 19.07642,-5.349364 -0.0826,0.429138 -1.49285,1.181388 -4.52705,2.414867 -4.95292,2.013493 -5.71822,2.388901 -9.69867,4.757564 -3.50449,2.085425 -4.05292,2.255898 -5.03791,1.565984 z M 146.82807,13.72705 c 0,-0.09701 -0.0794,-0.176389 -0.17639,-0.176389 -0.097,0 -0.17639,0.07938 -0.17639,0.176389 0,0.09701 0.0794,0.176389 0.17639,0.176389 0.097,0 0.17639,-0.07937 0.17639,-0.176389 z m 47.50135,-7.679105 c 5.94134,-4.002397 18.93666,-13.829976 22.64352,-17.123943 0.85074,-0.755975 0.81572,-2.17594 -0.0541,-2.192294 -0.22946,-0.0043 -0.81408,-0.318285 -1.29915,-0.697712 -0.48507,-0.379426 -1.15976,-0.693396 -1.4993,-0.697711 -0.33955,-0.0043 -0.61736,-0.156867 -0.61736,-0.339006 0,-0.182139 -0.71276,-0.438046 -1.5839,-0.568682 -1.03043,-0.154522 -1.50595,-0.377805 -1.36084,-0.638977 0.82141,-1.478323 -3.93475,3.809208 -6.14406,6.830487 -1.48976,2.037292 -4.7856,6.402916 -7.32408,9.70138805 -2.53849,3.29847195 -4.7353,6.19565895 -4.88182,6.43819395 -0.45618,0.755144 0.34026,0.48789 2.12105,-0.711744 z m 47.39586,-5.17839295 c 2.42535,-1.197706 4.56023,-2.32661705 4.74418,-2.50869305 0.33377,-0.330376 -1.7449,-2.801863 -2.35654,-2.801863 -0.34034,0 -1.62174,1.118146 -3.01457,2.63049 -1.66954,1.81279905 -4.83045,4.76764 -5.1057,4.772842 -0.14552,0.0028 -0.26459,0.159821 -0.26459,0.349047 0,0.457726 0.71594,0.166225 5.99722,-2.44182295 z M 170.1114,2.790939 c 0,-0.09701 -0.0794,-0.176388 -0.17639,-0.176388 -0.097,0 -0.17639,0.07937 -0.17639,0.176388 0,0.09701 0.0794,0.176389 0.17639,0.176389 0.097,0 0.17639,-0.07938 0.17639,-0.176389 z m 61.73611,-1.058333 c 0,-0.09701 -0.0794,-0.176389 -0.17639,-0.176389 -0.097,0 -0.17639,0.07938 -0.17639,0.176389 0,0.09701 0.0794,0.176389 0.17639,0.176389 0.097,0 0.17639,-0.07937 0.17639,-0.176389 z m -36.68889,-8.819443 c 0,-0.09701 -0.0794,-0.176389 -0.17639,-0.176389 -0.097,0 -0.17639,0.07938 -0.17639,0.176389 0,0.09701 0.0794,0.176388 0.17639,0.176388 0.097,0 0.17639,-0.07937 0.17639,-0.176388 z m -7.40833,-1.411111 c 0,-0.09701 -0.0794,-0.176389 -0.17639,-0.176389 -0.097,0 -0.17639,0.07938 -0.17639,0.176389 0,0.09701 0.0794,0.176388 0.17639,0.176388 0.097,0 0.17639,-0.07937 0.17639,-0.176388 z m -30.45648,-3.233796 c -0.12935,-0.129352 -0.23518,-0.02352 -0.23518,0.235185 0,0.258703 0.10583,0.364537 0.23518,0.235185 0.12935,-0.129352 0.12935,-0.341019 0,-0.47037 z m -2.70463,-0.293982 c 0,-0.09701 -0.0794,-0.176389 -0.17639,-0.176389 -0.097,0 -0.17639,0.07937 -0.17639,0.176389 0,0.09701 0.0794,0.176389 0.17639,0.176389 0.097,0 0.17639,-0.07938 0.17639,-0.176389 z m -67.027771,-1.763889 c 0,-0.09701 -0.07937,-0.176389 -0.176389,-0.176389 -0.09701,0 -0.176389,0.07938 -0.176389,0.176389 0,0.09701 0.07937,0.176389 0.176389,0.176389 0.09701,0 0.176389,-0.07938 0.176389,-0.176389 z m 130.880541,-4.708703 c 0,-0.345968 -3.15553,-3.86938 -3.16722,-3.536462 -0.004,0.121825 -0.24596,0.791553 -0.53707,1.488283 -0.44915,1.074966 -0.45325,1.237599 -0.0271,1.074055 0.28772,-0.110409 0.66978,0.120321 0.89448,0.540189 0.28127,0.525544 0.73809,0.732916 1.61456,0.732916 0.67227,0 1.22231,-0.134541 1.22231,-0.298981 z m -4.23333,-1.641296 c 0,-0.09701 -0.0794,-0.176389 -0.17639,-0.176389 -0.097,0 -0.17639,0.07937 -0.17639,0.176389 0,0.09701 0.0794,0.176389 0.17639,0.176389 0.097,0 0.17639,-0.07937 0.17639,-0.176389 z M 105.2003,-33.545169 c 0,-0.09701 -0.0794,-0.176389 -0.17639,-0.176389 -0.097,0 -0.17639,0.07938 -0.17639,0.176389 0,0.09701 0.0794,0.176389 0.17639,0.176389 0.097,0 0.17639,-0.07938 0.17639,-0.176389 z m 0.94074,-0.411574 c -0.12936,-0.129352 -0.34102,-0.129352 -0.47037,0 -0.12936,0.129352 -0.0235,0.235185 0.23518,0.235185 0.25871,0 0.36454,-0.105833 0.23519,-0.235185 z m -18.932409,-1.705092 c 0,-0.09701 -0.07937,-0.176389 -0.176388,-0.176389 -0.09701,0 -0.176389,0.07937 -0.176389,0.176389 0,0.09701 0.07937,0.176389 0.176389,0.176389 0.09701,0 0.176388,-0.07937 0.176388,-0.176389 z m -0.705555,-1.058333 c 0,-0.09701 -0.07937,-0.176389 -0.176389,-0.176389 -0.09701,0 -0.176389,0.07938 -0.176389,0.176389 0,0.09701 0.07937,0.176388 0.176389,0.176388 0.09701,0 0.176389,-0.07938 0.176389,-0.176388 z M 338.57873,-69.616694 c -0.31764,-1.300682 -1.76428,-3.36045 -3.39459,-4.833344 -2.70385,-2.442767 -2.72401,-3.945775 -0.0668,-4.983342 l 1.68157,-0.65661 -2.29306,-0.262653 c -3.95233,-0.452711 -5.65945,-1.009309 -7.1072,-2.317258 -0.81452,-0.735868 -1.35947,-1.547959 -1.35947,-2.025896 0,-1.459245 0.86708,-1.766034 4.99136,-1.766034 h 3.82586 l 10e-4,-0.993331 c 0.002,-2.09564 1.41261,-3.063613 4.46347,-3.063613 0.84417,0 1.53486,-0.15875 1.53486,-0.352778 0,-0.194028 -0.24153,-0.352778 -0.53673,-0.352778 -0.2952,0 -0.71459,-0.390372 -0.93199,-0.867493 -0.5396,-1.184295 0.11465,-2.112795 3.25337,-4.617123 1.37355,-1.09594 2.39386,-2.096178 2.26734,-2.222751 -0.12651,-0.126572 -2.29472,-0.309948 -4.81823,-0.407501 -4.49264,-0.173675 -4.60592,-0.197966 -5.43876,-1.166201 -0.63809,-0.74182 -0.85055,-1.40318 -0.85055,-2.64754 0,-1.45658 0.2827,-2.08147 2.31976,-5.12769 1.27588,-1.90794 2.23984,-3.54891 2.14215,-3.6466 -0.0977,-0.0977 -2.18278,0.0809 -4.63352,0.39696 -6.29934,0.81231 -8.36289,0.32631 -8.75027,-2.06081 -0.21467,-1.32287 0.70368,-5.75715 1.71662,-8.28874 0.32494,-0.8121 0.50776,-1.55959 0.40628,-1.66107 -0.10149,-0.10149 -1.51042,0.75434 -3.13097,1.90184 -3.89228,2.75612 -4.37574,2.98886 -5.63427,2.71244 -1.71877,-0.3775 -2.24711,-1.9314 -1.81247,-5.3306 0.19509,-1.52573 0.25365,-2.88712 0.13013,-3.02531 -0.12351,-0.1382 -0.85763,0.64534 -1.63137,1.74119 -1.89441,2.68307 -4.04164,5.03645 -4.59525,5.03645 -0.83261,0 -1.85899,-2.95611 -2.63349,-7.58472 -0.42207,-2.52236 -0.81095,-4.63061 -0.8642,-4.68499 -0.16346,-0.16697 -2.25072,7.99544 -3.04734,11.91693 -0.98151,4.83157 -1.40176,5.64444 -2.91816,5.64444 -1.08559,0 -1.44383,-0.35567 -5.06341,-5.02708 -2.14235,-2.76489 -4.24611,-5.34232 -4.67503,-5.72762 l -0.77986,-0.70055 0.29608,2.9936 c 0.16285,1.64648 0.29609,4.76641 0.29609,6.93317 0,3.68763 -0.0526,3.98519 -0.82276,4.65265 -1.27246,1.10282 -2.49303,1.20873 -8.56107,0.74283 -3.09843,-0.23789 -5.70959,-0.35645 -5.80257,-0.26346 -0.093,0.093 1.55738,0.97887 3.66749,1.96864 4.622,2.16798 6.05085,3.26975 6.05085,4.66572 0,1.44561 -1.28552,2.17697 -5.82083,3.31159 -5.29117,1.32371 -5.15103,1.2767 -4.92007,1.6504 0.28765,0.465433 2.47304,1.545096 6.03025,2.979169 3.31434,1.336159 3.43165,1.370106 3.14786,0.910914 -0.36991,-0.598528 0.69784,-1.039368 3.4404,-1.420434 3.02215,-0.419913 6.6194,-0.451036 8.00017,-0.06922 1.49451,0.413271 1.2924,1.525666 -0.55177,3.036821 -2.866,2.34847 -3.65909,3.17159 -3.40228,3.531097 0.43712,0.611923 3.49816,2.625985 3.73068,2.454665 0.12286,-0.09051 0.14646,-0.06121 0.0525,0.06513 -0.24032,0.32299 0.9327,1.1567 1.64643,1.17019 0.32648,0.0062 0.69436,0.32872 0.81753,0.716775 0.14992,0.472373 0.5367,0.707341 1.1703,0.710958 0.7406,0.0042 0.83131,0.07975 0.4172,0.347375 -0.33887,0.218993 -0.37366,0.343917 -0.0968,0.347376 0.23783,0.003 0.93802,0.561027 1.55599,1.240124 0.61796,0.679097 1.41556,1.234722 1.77244,1.234722 0.36079,0 0.64887,0.251693 0.64887,0.56691 0,0.311801 0.19844,0.497862 0.44097,0.41347 0.52979,-0.184346 1.59473,0.850017 1.41874,1.378001 -0.0686,0.205704 0.21529,0.462909 0.6308,0.571568 0.41751,0.109179 0.65138,0.366005 0.52278,0.574084 -0.12799,0.207087 -0.0501,0.376523 0.17316,0.376523 0.22323,0 1.01208,0.674687 1.75299,1.499305 0.74092,0.824618 1.8196,1.775435 2.39708,2.112928 0.92546,0.540859 1.10167,0.551317 1.48603,0.08819 0.75126,-0.905214 1.87911,-0.586841 4.82377,1.361663 1.56851,1.0379 3.6071,2.309214 4.53019,2.825141 l 1.67836,0.93805 -0.19203,-1.860548 c -0.10561,-1.023301 -0.61145,-2.649387 -1.12409,-3.613523 -1.08993,-2.049869 -0.72145,-2.425912 1.0518,-1.073393 0.67283,0.513199 1.22334,0.843808 1.22334,0.734687 0,-0.109121 0.91281,0.522677 2.02847,1.403996 2.69576,2.129522 2.42912,1.958642 5.03012,3.223604 2.50808,1.219764 4.97529,2.134665 6.34696,2.353598 0.48507,0.07742 1.01822,0.162387 1.18477,0.18881 0.16656,0.02642 0.19622,-0.38852 0.0659,-0.922097 z m -37.58679,-14.728471 c 0,-0.09701 0.0794,-0.176388 0.17639,-0.176388 0.097,0 0.17639,0.07937 0.17639,0.176388 0,0.09701 -0.0794,0.176389 -0.17639,0.176389 -0.097,0 -0.17639,-0.07937 -0.17639,-0.176389 z m -190.85276,9.525 c 0,-0.09701 -0.0794,-0.176389 -0.17638,-0.176389 -0.097,0 -0.17639,0.07937 -0.17639,0.176389 0,0.09701 0.0794,0.176389 0.17639,0.176389 0.097,0 0.17638,-0.07937 0.17638,-0.176389 z m 2.35186,-3.233796 c -0.12936,-0.129352 -0.23519,-0.02352 -0.23519,0.235185 0,0.258703 0.10583,0.364537 0.23519,0.235185 0.12935,-0.129352 0.12935,-0.341019 0,-0.47037 z m 3.1162,-2.587037 c 0.11992,-0.194028 0.13865,-0.352778 0.0416,-0.352778 -0.097,0 -0.2745,0.15875 -0.39442,0.352778 -0.11991,0.194028 -0.13865,0.352778 -0.0416,0.352778 0.097,0 0.2745,-0.15875 0.39442,-0.352778 z m 2.64583,-2.645833 c 0,-0.09701 -0.0794,-0.176389 -0.17639,-0.176389 -0.097,0 -0.17638,0.07937 -0.17638,0.176389 0,0.09701 0.0794,0.176389 0.17638,0.176389 0.097,0 0.17639,-0.07937 0.17639,-0.176389 z m 14.11111,-5.291667 c 0,-0.09701 -0.0794,-0.176388 -0.17639,-0.176388 -0.097,0 -0.17638,0.07937 -0.17638,0.176388 0,0.09701 0.0794,0.176389 0.17638,0.176389 0.097,0 0.17639,-0.07937 0.17639,-0.176389 z m 219.07498,-7.408332 c 0,-0.09701 -0.0794,-0.176389 -0.17639,-0.176389 -0.097,0 -0.17639,0.07938 -0.17639,0.176389 0,0.09701 0.0794,0.176389 0.17639,0.176389 0.097,0 0.17639,-0.07937 0.17639,-0.176389 z m 2.82222,-3.527778 c 0,-0.09701 -0.0794,-0.176389 -0.17638,-0.176389 -0.097,0 -0.17639,0.07937 -0.17639,0.176389 0,0.09701 0.0794,0.176389 0.17639,0.176389 0.097,0 0.17638,-0.07937 0.17638,-0.176389 z m -58.5611,-26.105552 c 0,-0.097 -0.0794,-0.17639 -0.17639,-0.17639 -0.097,0 -0.17639,0.0794 -0.17639,0.17639 0,0.097 0.0794,0.17639 0.17639,0.17639 0.097,0 0.17639,-0.0794 0.17639,-0.17639 z m 31.04444,-2.82222 c 0,-0.097 -0.0794,-0.17639 -0.17639,-0.17639 -0.097,0 -0.17639,0.0794 -0.17639,0.17639 0,0.097 0.0794,0.17639 0.17639,0.17639 0.097,0 0.17639,-0.0794 0.17639,-0.17639 z"
       id="path8" /></g></svg>
