<?xml version="1.0" encoding="UTF-8" standalone="no"?>
<!-- Created with Inkscape (http://www.inkscape.org/) -->

<svg
   width="322.65179mm"
   height="271.90912mm"
   viewBox="0 0 322.6518 271.90908"
   version="1.1"
   id="svg1"
   xml:space="preserve"
   xmlns="http://www.w3.org/2000/svg"
   xmlns:svg="http://www.w3.org/2000/svg"><defs
     id="defs1"><clipPath
       clipPathUnits="userSpaceOnUse"
       id="clipPath6"><path
         id="path7"
         style="fill:#ff0000;fill-opacity:1;fill-rule:nonzero;stroke:none;stroke-width:0.264583"
         d="M -175.07778,-16.057127 V 287.55793 H 124.54631 V -16.057127 Z m 132.7459,202.572647 c 0.210643,0.005 0.427212,0.0169 0.650089,0.0367 2.23823,0.19855 4.475655,0.4031 6.717938,0.55346 1.973313,0.11308 0.986628,0.0436 2.958475,0.20825 3.181295,0.26563 4.740125,1.85116 4.950601,3.46956 4.949923,1.63749 3.796379,7.35609 -2.592089,6.81354 -3.228716,-0.27422 -1.569593,-0.1301 -4.979024,-0.43357 -4.228209,-0.39317 -8.460616,-0.76265 -12.666927,-1.35341 -6.647387,-0.93358 -5.930551,-7.21034 0.03204,-7.20421 0.04685,5e-5 0.0972,0.004 0.144695,0.005 0.687229,-1.21692 2.304132,-2.15435 4.784204,-2.09548 z" /></clipPath></defs><g
     id="layer1"
     transform="translate(79.307051,45.434859)"><path
       style="fill:#000000"
       d="m 93.286529,225.82083 c -0.64963,-0.39608 -1.48747,-1.39656 -1.92679,-2.30081 -0.5686,-1.17035 -0.92304,-1.53727 -1.31998,-1.36644 -1.8273,0.78641 -5.26598,1.53086 -6.1871,1.33946 -2.56429,-0.53283 -3.45343,-2.70213 -2.3939,-5.84057 l 0.65821,-1.94968 -4.07105,-0.42098 c -9.05692,-0.93657 -21.3057,-4.14353 -26.44756,-6.92448 -1.24751,-0.6747 -2.2966,-1.18908 -2.33132,-1.14307 -0.0347,0.046 -0.40309,1.21955 -0.81861,2.60787 -0.48212,1.61081 -0.75549,3.48659 -0.75549,5.1838 0,2.30025 -0.11463,2.79285 -0.84841,3.64592 -0.71941,0.83636 -1.10828,0.98275 -2.55763,0.96283 -0.94008,-0.0129 -2.26486,-0.14169 -2.94396,-0.28615 -1.20356,-0.25601 -1.25698,-0.21972 -2.11667,1.4381 -1.68038,3.24043 -4.03062,3.52822 -7.77562,0.95212 l -1.83011,-1.2589 -2.36902,1.09195 c -2.98777,1.37715 -4.84811,1.4362 -6.31669,0.20047 -0.5827,-0.49031 -1.16716,-1.40313 -1.29879,-2.02847 -0.13163,-0.62535 -0.56694,-2.08949 -0.96736,-3.25366 -0.56735,-1.64952 -0.72545,-2.9731 -0.71635,-5.99722 0.0211,-7.00847 1.31661,-13.68383 4.74294,-24.43903 1.1915,-3.74009 2.10434,-6.85447 2.02854,-6.92086 -0.0758,-0.0664 -1.14416,0.0497 -2.37414,0.25793 -1.832,0.31018 -2.40338,0.28487 -3.16035,-0.14 -1.72812,-0.96998 -1.56311,-3.11882 0.44132,-5.74675 l 0.90159,-1.18205 -1.29591,-1.72851 c -0.71275,-0.95068 -1.31692,-1.76311 -1.3426,-1.8054 -0.0257,-0.0423 -2.12001,0.62109 -4.65406,1.47416 -2.53406,0.85308 -5.1469397,1.65227 -5.8064097,1.77599 -2.4478,0.45921 -4.06141,-0.98617 -3.45633,-3.09598 0.15578,-0.54317 1.80061,-3.27493 3.65518,-6.07058 1.85458,-2.79566 3.3719497,-5.15691 3.3719497,-5.24723 0,-0.20406 -3.5805197,-2.42323 -3.6683197,-2.27359 -0.035,0.0597 -0.45162,0.9817 -0.92573,2.04885 -1.81581,4.08712 -4.45844,8.67825 -5.81288997,10.0989 -1.66335003,1.74465 -3.35029003,2.21435 -5.59028003,1.55651 -4.30202,-1.26341 -9.7145303,-10.3999 -11.1940403,-18.8959 -0.21881,-1.25648 -0.5006,-2.27456 -0.6262,-2.26239 -0.1256,0.0122 -1.10149,1.22532 -2.16865,2.6959 -4.10668,5.65916 -7.91002,8.57211 -11.18896,8.56955 -4.55409,-0.004 -6.44124,-4.13627 -6.44726,-14.11905 -0.003,-5.05807 0.43057,-9.11113 1.42941,-13.36096 0.38306,-1.6298 0.65411,-2.9952 0.60234,-3.03422 -0.0518,-0.039 -1.2557,0.0949 -2.6754,0.29764 -4.49662,0.64208 -10.85174,-0.50809 -13.90664,-2.51687 -1.68633,-1.10887 -3.19703,-4.05941 -3.03592,-5.92944 0.081,-0.94015 -0.0374,-1.3606 -0.41179,-1.46187 -1.95364,-0.52853 -3.52411,-2.34894 -3.52411,-4.08498 0,-0.78107 -0.19056,-0.94348 -1.32291,-1.12745 -2.60932,-0.42393 -4.50712,-1.34472 -6.17361,-2.99537 -1.34402,-1.33124 -1.6757,-1.89679 -1.6757,-2.85729 0,-1.06519 -0.18141,-1.29377 -1.64158,-2.06839 -1.74358,-0.92497 -3.65008,-3.18755 -3.65008,-4.33182 0,-0.37856 -1.02594,-1.796404 -2.27986,-3.150755 -2.80879,-3.033748 -4.42292,-6.101671 -4.42292,-8.406475 0,-4.560465 4.72985,-6.276726 9.77194,-3.545817 1.90047,1.029339 2.57528,1.107761 2.57528,0.299279 0,-0.839866 1.81149,-2.691181 3.33318,-3.406461 0.88314,-0.415124 1.60571,-0.852563 1.60571,-0.972087 0,-0.119524 -0.79375,-1.592639 -1.76388,-3.273591 -3.01517,-5.224385 -3.79094,-8.402214 -2.60907,-10.687699 0.52023,-1.006023 0.5198,-1.120229 -0.005,-1.414149 -1.80336,-1.00921 -2.70422,-3.467067 -1.97437,-5.386728 0.31336,-0.824187 0.28673,-1.075956 -0.13899,-1.314201 -3.31926,-1.857548 -4.77536,-5.970144 -2.64267,-7.463934 0.70666,-0.494965 0.69968,-0.531809 -0.58308,-3.079027 -2.27701,-4.521549 -1.94671,-8.05627 0.89252,-9.551347 2.21781,-1.16785 5.29455,-0.750685 8.23994,1.117227 1.5425,0.978225 1.73096,1.020491 2.24743,0.504029 2.16104,-2.161041 5.49342,-1.412405 9.16353,2.058634 1.03503,0.978895 1.93224,1.715427 1.99379,1.636736 0.0615,-0.07869 0.70884,-1.254322 1.43841,-2.612517 5.37123,-9.999208 13.84587,-19.144203 21.93079,-23.66555 4.67329,-2.613449 16.4846703,-7.202503 18.5379303,-7.202503 0.33968,0 0.70865,-0.147322 0.81993,-0.327383 0.11128,-0.180061 -1.58591,-0.908773 -3.7715403,-1.61936 -9.0349,-2.9374063 -11.20582,-4.3636508 -11.20582,-7.3619725 0,-2.00904277 1.10503,-3.61705557 3.45282,-5.0244426 2.58111,-1.547255 5.73834,-2.243204 12.0694003,-2.660463 10.5685,-0.696533 22.5494797,0.343863 33.1611097,2.879621 5.61389,1.34149603 5.43474,1.42914403 2.6399,-1.291559 -1.36146,-1.325345 -3.96374,-3.441592 -5.78283,-4.702772 -9.86036,-6.8361809 -10.79787,-7.8955799 -9.5027,-10.7381749 2.10693,-4.624213 18.63962,-3.864021 35.04702,1.6115 4.9259,1.643888 13.42956,5.503243 17.72708,8.0453749 1.18652,0.701869 1.85208,0.931471 1.85208,0.638921 0,-0.695635 -2.8621,-5.5673419 -5.17188,-8.8032789 -1.13304,-1.587348 -5.55653,-6.466757 -9.82998,-10.843131 -4.27345,-4.376373 -8.04377,-8.536659 -8.37847,-9.24508 -1.14514,-2.42374 -0.55838,-5.100627 1.42207,-6.487793 0.39657,-0.27777 1.64339,-0.745278 2.77071,-1.038908 7.60916,-1.981933 24.03975,2.089621 36.6299,9.077005 3.45232,1.916001 9.41257,6.02089 11.5625,7.963223 0.73372,0.662872 1.33404,1.034553 1.33404,0.825958 0,-0.330722 -2.51983,-4.177566 -7.53886,-11.509052 -1.65919,-2.423632 -1.95204,-4.469216 -0.76417,-5.337806 1.04663,-0.765317 3.37154,-0.597944 5.3434,0.384679 2.36459,1.178324 8.608541,6.21858 11.398761,9.201331 2.43809,2.606325 6.87513,8.415817 8.35077,10.933812 0.50381,0.859698 1.04276,1.563087 1.19765,1.563087 0.15489,0 0.30469,-2.024062 0.33288,-4.497916 0.076,-6.666803 0.759,-8.55486 3.09482,-8.55486 1.60975,0 3.03788,0.791286 5.33235,2.9545 5.11752,4.824777 10.33528,13.171517 13.47992,21.563553 2.89935,7.7374229 3.85309,12.7425882 4.16781,21.872221 l 0.23105,6.702777 1.19913,-2.211332 c 0.65952,-1.216232 1.81092,-2.764044 2.55866,-3.439583 1.1509,-1.039772 1.61651,-1.228049 3.0342,-1.226932 3.24888,0.0026 5.19493,2.310528 6.12824,7.267954 0.52838,2.806556 0.14751,11.4772 -0.67631,15.396697 -0.35684,1.697743 -0.62264,3.086806 -0.59065,3.086806 0.032,0 1.31917,-1.242525 2.86043,-2.761167 3.5984,-3.545615 6.98417,-5.352722 10.02879,-5.352722 1.12547,0 2.4932,0.16885 3.03941,0.375221 1.22611,0.46326 2.8273,1.946897 3.50824,3.250696 0.68538,1.312293 0.98358,5.014008 0.55337,6.869221 l -0.34768,1.499306 h 1.65713 c 2.16616,0 5.04697,1.431823 6.28397,3.123276 0.51745,0.707545 1.06527,1.433898 1.21739,1.614117 0.1563,0.185172 1.26797,-0.624307 2.55623,-1.861365 2.53284,-2.432155 4.06459,-3.228806 6.20814,-3.228806 1.50592,0 3.36021,0.750594 3.5951,1.455255 0.083,0.248927 0.61875,-0.0084 1.35479,-0.650657 4.0594,-3.542246 9.26132,-3.695241 11.75797,-0.345818 1.47606,1.980238 0.39215,7.511062 -1.96337,10.018398 l -0.73077,0.777868 0.92755,1.102321 c 1.68376,2.001041 0.8859,4.293046 -2.32315,6.673718 -1.32304,0.981509 -1.57564,1.333957 -1.31076,1.828891 0.75696,1.414392 0.37776,3.090817 -1.04933,4.63903 -1.34329,1.457297 -1.36419,1.519666 -0.84269,2.51498 0.91973,1.755365 0.44943,4.38182 -1.45968,8.151928 -0.9228,1.822344 -2.02057,3.683184 -2.43949,4.135201 -1.03452,1.116272 -0.95761,1.760213 0.34091,2.854327 0.60542,0.51012 1.30751,1.446643 1.56019,2.081161 0.25268,0.634519 0.48886,1.197277 0.52484,1.250573 0.036,0.0533 1.08014,-0.38314 2.32036,-0.96986 4.97166,-2.351975 8.89165,-0.689643 8.89711,3.772959 0.002,1.999453 -2.1045,6.218092 -4.31387,8.637478 -0.94019,1.029563 -1.81943,2.386505 -1.9588,3.023055 -0.35042,1.60048 -1.73632,3.13104 -3.76683,4.15997 -1.44676,0.73313 -1.71794,1.02843 -1.71794,1.87077 0,2.32389 -3.46544,5.23138 -7.24285,6.07673 -1.76063,0.39401 -1.86491,0.48029 -2.06077,1.70514 -0.23398,1.46325 -1.60889,2.93626 -3.21999,3.44975 -0.88341,0.28156 -1.08953,0.5658 -1.24709,1.71971 -0.10381,0.76032 -0.30837,1.57558 -0.45457,1.81169 -0.14993,0.24213 0.19856,1.32155 0.79934,2.47592 4.56402,8.76948 4.64737,19.32952 0.17264,21.87162 -4.02827,2.28846 -13.12137,-0.85693 -20.34879,-7.03886 -1.11566,-0.95427 -2.03225,-1.68445 -2.03688,-1.62262 -0.005,0.0618 -0.0804,1.26538 -0.16851,2.67455 -0.1893,3.02931 -1.24151,5.72752 -2.71804,6.96994 l -1.03718,0.87273 0.90503,0.34409 c 0.49777,0.18925 1.62259,1.00552 2.49962,1.81393 2.2589,2.08218 2.79849,4.09641 2.53639,9.46808 -0.10935,2.24106 -0.31018,4.47153 -0.4463,4.9566 -0.43224,1.54039 0.40845,0.36155 2.01269,-2.82222 1.85501,-3.68147 4.75146,-6.8076 6.83165,-7.37338 3.29584,-0.89641 6.01101,-0.21409 8.32793,2.0928 1.9852,1.97661 2.96994,4.4298 3.78336,9.42513 0.56028,3.44077 1.1108,4.73696 1.124,2.64642 0.0122,-1.93548 1.07226,-5.95911 2.14597,-8.14557 1.39564,-2.842 3.43491,-4.28985 6.04219,-4.28985 3.96072,0 6.7231,2.43022 10.22543,8.99584 1.45388,2.72551 1.61571,2.58823 0.77168,-0.65464 -0.31029,-1.19217 -0.57919,-3.44836 -0.59755,-5.01376 -0.0276,-2.35206 0.11627,-3.14815 0.82874,-4.5856 2.08406,-4.20475 6.56793,-4.50176 11.25769,-0.74572 0.86686,0.69427 1.63197,1.20646 1.70024,1.13819 0.0683,-0.0683 -0.20819,-0.89661 -0.61434,-1.84075 -1.45634,-3.38534 -1.51755,-7.33178 -0.14282,-9.20698 1.23273,-1.68149 2.79797,-2.25756 5.5947,-2.05907 1.3582,0.0964 2.95548,0.27702 3.54951,0.40139 1.01522,0.21254 1.10821,0.14086 1.54875,-1.19399 0.64491,-1.95409 2.41217,-3.59027 4.11949,-3.81395 2.07139,-0.27137 3.54937,0.89309 5.09759,4.01622 3.84971,7.76581 4.01747,20.22864 0.41904,31.13061 -3.44635,10.44123 -9.78936,18.23747 -20.02605,24.61417 -9.69605,6.03993 -23.30102,9.93093 -40.85619,11.68483 l -6.06325,0.60577 -0.18978,1.75052 c -0.44772,4.12981 -2.63048,5.27107 -7.02016,3.67051 l -1.99071,-0.72585 -1.96057,1.96057 c -1.786,1.786 -2.09886,1.96046 -3.51356,1.95926 -1.86783,-0.002 -3.52326,-0.92727 -4.60245,-2.57359 l -0.77849,-1.1876 -2.31936,0.98977 c -2.81218,1.20007 -4.8722,1.3002 -5.957,0.28955 -1.13012,-1.05286 -1.14114,-3.65289 -0.0265,-6.2532 0.37581,-0.87672 0.60305,-1.67426 0.50499,-1.77232 -0.0981,-0.0981 -1.41174,0.34218 -2.91928,0.97832 -5.83739,2.46321 -14.35284,4.91236 -21.43821,6.16591 -1.74625,0.30895 -3.60042,0.64689 -4.12038,0.75097 -0.7891,0.15796 -1.06463,0.54234 -1.66669,2.32516 -1.43524,4.24995 -3.20208,6.28557 -5.45566,6.28557 -0.47896,0 -2.13022,-0.65469 -3.66948,-1.45487 l -2.79865,-1.45487 -2.64876,1.80505 c -4.380881,2.98546 -5.920751,3.40463 -7.953731,2.1651 z m 4.55965,-4.49999 c 0.20791,-0.46782 5.784361,-3.96875 6.321601,-3.96875 0.28527,0 1.67806,0.55562 3.0951,1.23472 2.89601,1.38787 3.3035,1.4581 4.06159,0.70001 0.78761,-0.78761 2.172,-5.72848 3.01323,-10.75418 1.07191,-6.40379 0.97589,-20.37298 -0.16842,-24.50336 -0.1241,-0.44793 0.0834,-0.29538 0.54893,0.40348 0.41166,0.61805 0.77316,1.45149 0.80334,1.85208 0.0302,0.4006 0.17292,0.72836 0.31722,0.72836 0.55387,0 2.04941,5.7703 2.44799,9.44519 0.31858,2.93732 0.32065,4.86518 0.009,8.15023 -0.22468,2.36657 -0.44624,4.49038 -0.49236,4.71958 -0.11456,0.56936 1.46113,0.41366 6.79532,-0.67148 5.89582,-1.19938 12.39565,-3.3009 17.03296,-5.50708 2.93418,-1.39592 3.75339,-1.93511 3.58326,-2.35846 -0.5586,-1.39006 -0.56131,-4.55649 -0.006,-6.72502 0.71945,-2.80828 1.12754,-3.29309 1.20069,-1.42641 0.12613,3.21902 1.37198,6.91794 3.7114,11.01911 0.85052,1.49102 1.43288,2.8404 1.29414,2.99861 -0.72508,0.82687 -2.17541,5.32845 -1.7929,5.56486 0.15255,0.0943 1.58329,-0.46012 3.17942,-1.23199 1.59614,-0.77187 3.05015,-1.31189 3.23114,-1.20003 0.18098,0.11186 0.71053,0.95617 1.17678,1.87626 1.45746,2.87617 1.62128,2.88503 4.1251,0.22311 2.43925,-2.59327 2.72516,-2.654 5.18544,-1.10144 0.71148,0.44898 1.64211,0.92683 2.06806,1.0619 0.66831,0.21192 0.80413,0.086 0.99102,-0.9186 0.19582,-1.05266 0.22357,-1.89342 0.19566,-5.92668 -0.005,-0.67909 -0.009,-2.3095 -0.009,-3.62313 -0.002,-4.47754 -2.35694,-13.94614 -4.77531,-19.19829 -0.64242,-1.39518 -1.27471,-3.02237 -1.40508,-3.61597 -0.13038,-0.5936 -0.38319,-1.07927 -0.5618,-1.07927 -0.17861,0 -0.32474,-0.13735 -0.32474,-0.30523 0,-0.16788 -1.00567,-1.79507 -2.23483,-3.61597 -2.04867,-3.03498 -2.32048,-3.30163 -3.26319,-3.20132 -4.04375,0.43026 -4.95977,-0.0212 -6.66006,-3.28233 -1.08387,-2.07885 -1.75191,-2.84854 -3.89029,-4.48218 -3.58212,-2.73661 -3.91952,-2.19594 -1.72831,2.76951 0.51887,1.17579 0.65987,4.60246 0.21797,5.29708 -0.65846,1.03503 -3.07423,2.58711 -4.02677,2.58711 -3.5247,0 -6.17617,-4.48186 -5.86887,-9.92034 0.13877,-2.45577 -1.2e-4,-2.8228 -0.73371,-1.93889 -0.22275,0.2684 -2.36661,1.79789 -4.76415,3.39886 l -4.35915,2.91087 0.33419,1.21034 c 0.73359,2.65682 -0.63858,4.65542 -3.27502,4.77016 -1.57412,0.0685 -5.9617,-1.30075 -5.9617,-1.8605 0,-0.3737 -1.43872,0.0729 -4.05694,1.25926 -7.13255,3.23192 -18.334631,6.08756 -29.104171,7.41923 -2.42535,0.2999 -5.4416,0.69866 -6.70278,0.88614 -1.26118,0.18748 -5.36248,0.4433 -9.11401,0.56849 l -6.82095,0.22761 -0.33772,0.91425 c -0.48638,1.31665 -2.35539,2.85452 -3.46918,2.85452 -1.13806,0 -2.2476,-1.12232 -2.79102,-2.82315 l -0.39478,-1.23565 -6.00959,-0.81971 c -3.30528,-0.45084 -8.42562,-1.36221 -11.37853,-2.02527 -2.95291,-0.66305 -5.44915,-1.20658 -5.5472,-1.20783 -0.20288,-0.003 -0.17116,-0.0913 -3.27936,9.16994 -1.26981,3.78354 -2.71829,8.94291 -3.21884,11.46528 -0.98423,4.95966 -1.64682,11.46527 -1.16773,11.46527 0.16309,0 0.26386,0.99219 0.22393,2.20486 -0.0725,2.20267 0.42639,5.71191 0.87598,6.1615 0.13087,0.13087 1.32399,-0.34864 2.65137,-1.06559 1.32738,-0.71695 2.79794,-1.30355 3.26791,-1.30355 0.54777,0 1.41839,0.57458 2.42547,1.60072 0.93885,0.95662 1.82923,1.5599 2.21278,1.4993 0.58134,-0.0918 1.96409,-2.26238 2.51108,-3.94169 0.19812,-0.60824 0.47052,-0.64468 3.17734,-0.42505 2.20538,0.17894 3.03025,0.12758 3.23353,-0.20134 0.1501,-0.24285 0.23594,-2.21775 0.19077,-4.38866 -0.0738,-3.54836 0.36411,-6.88718 1.18069,-9.00125 0.14114,-0.3654 -0.16151,-0.95233 -0.84191,-1.63273 -0.58424,-0.58424 -0.95031,-1.18641 -0.8135,-1.33816 0.13682,-0.15176 0.0652,-0.17091 -0.15917,-0.0426 -0.54354,0.31092 -3.49749,-3.00248 -4.05755,-4.55128 -0.24132,-0.66736 -0.63169,-1.21338 -0.86749,-1.21338 -0.2358,0 -0.63954,-0.47625 -0.89719,-1.05834 -0.25766,-0.58208 -0.56244,-1.05833 -0.6773,-1.05833 -0.39814,0 -3.20559,-5.96933 -2.97949,-6.33516 0.12496,-0.20219 0.0591,-0.36762 -0.1464,-0.36762 -0.20548,0 -0.3736,-0.15875 -0.3736,-0.35278 0,-0.91096 0.77952,-0.0817 2.90155,3.08681 7.34347,10.96479 16.85916,17.7307 29.57874,21.0313 3.93936,1.02222 11.6947,2.25539 16.11131,2.56184 l 3.09034,0.21443 1.68294,-5.06872 c 1.41295,-4.25553 6.81755,-16.0886 7.18187,-15.72428 0.0578,0.0578 -0.12706,0.87674 -0.41087,1.81978 -0.8616,2.86286 -3.26166,13.55166 -3.88509,17.30245 -0.54845,3.29962 -1.22013,5.09474 -3.20352,8.56158 -0.9978,1.7441 -0.2721,1.94264 3.17453,0.8685 4.62565,-1.44159 4.75872,-1.39928 5.69151,1.80939 0.52795,1.81611 0.666,1.9897 1.58232,1.9897 0.55215,0 1.05682,-0.11906 1.1215,-0.26458 z m 1.15983,-8.8816 c 0.19504,-0.31559 -0.36702,-0.51976 -1.22915,-0.44649 -0.25611,0.0218 -0.1384,-1.38139 0.17929,-2.13719 0.29407,-0.69962 1.42365,-0.82743 1.80856,-0.20463 0.17151,0.27751 0.0628,0.33892 -0.33196,0.18746 -0.32287,-0.1239 -0.58704,-0.0715 -0.58704,0.11643 0,0.18794 0.39688,0.34171 0.88195,0.34171 0.606821,0 0.880261,0.19259 0.876541,0.61736 -0.004,0.47279 -0.0753,0.50717 -0.30368,0.14681 -0.24209,-0.38189 -0.337041,-0.36957 -0.503951,0.0654 -0.11312,0.29478 -0.0543,0.58642 0.13078,0.6481 0.185041,0.0617 7.6e-4,0.32179 -0.40952,0.57801 -0.41027,0.25622 -0.64059,0.29538 -0.51182,0.087 z m 0.0749,-1.67234 c -0.12935,-0.12935 -0.34102,-0.12935 -0.47037,0 -0.12935,0.12935 -0.0235,0.23519 0.23518,0.23519 0.25871,0 0.36454,-0.10584 0.23519,-0.23519 z m -69.17797,-5.38134 c -0.58405,-0.64537 -0.58964,-0.74867 -0.0686,-1.26966 0.31193,-0.31192 0.74405,-0.45779 0.96028,-0.32415 0.27653,0.1709 0.25117,0.33772 -0.0855,0.56237 -0.31188,0.20812 -0.14063,0.24088 0.4915,0.0941 0.82283,-0.19113 0.97014,-0.11241 0.97014,0.51845 0,0.40909 -0.14577,0.7438 -0.32393,0.7438 -0.17816,0 -0.54536,0.085 -0.81601,0.18883 -0.27064,0.10386 -0.77818,-0.1273 -1.12785,-0.51369 z m 1.09186,-0.2631 c -0.12935,-0.12936 -0.34102,-0.12936 -0.47037,0 -0.12935,0.12935 -0.0235,0.23518 0.23519,0.23518 0.2587,0 0.36453,-0.10583 0.23518,-0.23518 z m 66.73292,-5.49746 c -0.81874,-0.65968 -1.02061,-1.57109 -0.45241,-2.04265 0.27737,-0.2302 0.42438,-0.54787 0.32668,-0.70595 -0.0977,-0.15807 0.13618,-0.387 0.51973,-0.50874 0.81236,-0.25783 2.251411,0.40251 1.947791,0.89379 -0.113901,0.1843 -0.039,0.33508 0.1665,0.33508 0.20548,0 0.3736,0.27931 0.3736,0.6207 0,0.73685 -1.272321,1.62338 -1.832741,1.27702 -0.23833,-0.14729 -0.2939,-0.0826 -0.14122,0.16444 0.33405,0.54052 -0.22083,0.51993 -0.90793,-0.0337 z m -63.44033,-1.14652 c 0,-0.097 0.0794,-0.17639 0.17639,-0.17639 0.097,0 0.17639,0.0794 0.17639,0.17639 0,0.097 -0.0794,0.17638 -0.17639,0.17638 -0.097,0 -0.17639,-0.0794 -0.17639,-0.17638 z m 59.61944,-9.87778 c 0,-0.097 0.0794,-0.17639 0.17639,-0.17639 0.097,0 0.17639,0.0794 0.17639,0.17639 0,0.097 -0.0794,0.17639 -0.17639,0.17639 -0.097,0 -0.17639,-0.0794 -0.17639,-0.17639 z m 34.402111,-6.65457 c -0.50741,-0.37102 -0.55592,-0.59841 -0.24273,-1.13789 0.3708,-0.63875 0.39195,-0.63246 0.40212,0.11954 0.006,0.43657 0.16947,0.79375 0.3635,0.79375 0.19403,0 0.35278,-0.23812 0.35278,-0.52916 0,-0.29105 0.15875,-0.52917 0.35278,-0.52917 0.47396,0 0.42741,0.40136 -0.13199,1.13789 -0.3916,0.5156 -0.55935,0.53779 -1.09646,0.14504 z m 35.09511,32.76012 c 0,-0.097 -0.0794,-0.17639 -0.17639,-0.17639 -0.097,0 -0.17639,0.0794 -0.17639,0.17639 0,0.097 0.0794,0.17639 0.17639,0.17639 0.097,0 0.17639,-0.0794 0.17639,-0.17639 z m 19.75555,-11.62867 c 13.99795,-1.49495 26.39201,-5.53739 35.98333,-11.7363 3.68125,-2.3792 9.54435,-8.1842 11.82156,-11.70441 2.66436,-4.11867 4.70015,-9.2059 5.87151,-14.67228 1.07889,-5.03481 0.25958,-16.21407 -1.42961,-19.50664 l -0.62434,-1.21696 -0.82248,2.07152 c -0.45237,1.13934 -1.18826,2.81086 -1.63531,3.71449 l -0.81282,1.64297 1.18436,1.29303 c 1.27743,1.39462 1.31064,2.091 0.15871,3.32745 -0.77084,0.8274 -1.12002,0.89223 -2.06931,0.38418 -0.53565,-0.28667 -0.7947,-0.16128 -1.38792,0.67182 -0.40114,0.56336 -0.72935,1.10571 -0.72935,1.20523 0,0.0995 0.71438,0.45377 1.5875,0.78722 0.87313,0.33345 1.5875,0.75282 1.5875,0.93194 0,0.17912 0.15694,0.22868 0.34874,0.11014 0.19998,-0.1236 0.25912,0.018 0.13865,0.33195 -0.11555,0.30112 -0.39155,0.54992 -0.61332,0.5529 -0.24807,0.003 -0.22032,0.12132 0.0721,0.30663 0.37089,0.23505 0.26561,0.49571 -0.47917,1.18631 -0.92349,0.8563 -2.28922,0.96563 -2.28922,0.18325 0,-0.19403 -0.31772,-0.26969 -0.70604,-0.16814 -0.38832,0.10155 -0.62823,0.0587 -0.53313,-0.0951 0.20706,-0.33504 -0.87132,-0.65935 -1.49486,-0.44956 -0.24253,0.0816 -0.44097,0.30958 -0.44097,0.5066 0,0.19703 -0.47625,0.80312 -1.05833,1.34687 -0.58208,0.54374 -1.05833,1.17243 -1.05833,1.39708 0,0.22464 -0.1258,0.3307 -0.27955,0.23567 -0.15375,-0.095 -0.30056,0.10617 -0.32624,0.44708 -0.0306,0.40609 0.36988,0.77048 1.16126,1.05664 0.66436,0.24024 1.37476,0.74851 1.57865,1.12949 0.2039,0.38098 0.50604,0.60905 0.67143,0.50683 0.1654,-0.10221 0.47081,0.30209 0.6787,0.89845 0.30274,0.86844 0.26408,1.25815 -0.1942,1.95758 -0.32768,0.5001 -0.78386,0.79206 -1.0675,0.68321 -0.27242,-0.10453 -0.40944,-0.0511 -0.30448,0.1187 0.32424,0.52464 -0.64611,1.05315 -1.86972,1.01836 -0.88154,-0.0251 -1.24228,-0.23479 -1.4802,-0.86056 -0.17302,-0.45508 -0.40725,-0.82742 -0.52052,-0.82742 -0.11327,0 -0.11461,0.14778 -0.003,0.3284 0.11163,0.18062 0.0416,0.42811 -0.15557,0.54998 -0.19719,0.12188 -0.35853,3.4e-4 -0.35853,-0.27008 0,-0.68848 -1.97257,-2.37219 -2.77916,-2.37219 -0.36773,0 -1.56192,0.57981 -2.65376,1.28846 -1.71149,1.11084 -1.96417,1.4148 -1.8329,2.20486 0.0837,0.50402 0.17602,0.9164 0.20507,0.9164 0.029,0 0.11718,0.48895 0.19586,1.08656 0.11433,0.86848 -0.0852,1.30204 -0.99395,2.1601 -1.23757,1.16849 -2.89323,1.74625 -3.26772,1.14031 -0.12853,-0.20797 -0.45386,-0.29364 -0.72294,-0.19038 -0.26909,0.10325 -0.45147,-0.005 -0.40529,-0.24054 0.0462,-0.23555 -0.12628,-0.38465 -0.38324,-0.33134 -0.25695,0.0533 -0.36665,-0.0658 -0.24376,-0.26458 0.12289,-0.19884 0.093,-0.36152 -0.0665,-0.36152 -0.15947,0 -0.44665,-0.35719 -0.63818,-0.79375 -0.48079,-1.09588 -1.82464,-1.0434 -5.43982,0.21243 -0.86009,0.29878 -1.67121,0.47685 -1.80249,0.39572 -0.3209,-0.19833 -0.13746,1.19988 0.30727,2.34202 0.28314,0.72716 0.23432,1.05409 -0.23132,1.549 -0.45606,0.48472 -0.46994,0.56981 -0.0611,0.37434 0.29105,-0.13913 0.1544,0.0766 -0.30366,0.47947 -2.05668,1.80875 -5.36233,0.56987 -6.12911,-2.29704 l -0.41634,-1.55663 -3.01364,0.0165 -3.01363,0.0165 -0.72478,1.4743 c -0.98529,2.00421 -2.56616,2.9172 -4.14752,2.39531 -1.45508,-0.48022 -2.71243,-2.11168 -2.71243,-3.51949 0,-0.94337 -0.14179,-1.08222 -1.32291,-1.29534 -0.72761,-0.13129 -1.47797,-0.32884 -1.66748,-0.43901 -0.18951,-0.11017 -0.91282,-0.25326 -1.60737,-0.318 -1.113,-0.10373 -1.39843,0.0511 -2.40609,1.30497 -1.23981,1.54279 -2.14686,1.7624 -4.2504,1.0291 -0.62094,-0.21646 -1.19504,-0.32751 -1.27578,-0.24677 -0.0807,0.0807 0.63013,2.20253 1.57969,4.71509 2.40446,6.36222 3.3955,9.91472 4.07923,14.62247 0.32407,2.23132 0.6563,4.41413 0.73828,4.85069 0.13573,0.72279 0.34557,0.79342 2.3472,0.78998 1.20897,-0.002 4.34126,-0.23266 6.96063,-0.5124 z m 48.68333,-51.51854 c 0,-0.097 0.0794,-0.17639 0.17639,-0.17639 0.097,0 0.17639,0.0794 0.17639,0.17639 0,0.097 -0.0794,0.17638 -0.17639,0.17638 -0.097,0 -0.17639,-0.0794 -0.17639,-0.17638 z M 59.899509,179.33368 c 4.67973,-6.69697 5.477,-9.12932 3.95731,-12.07319 -1.57744,-3.05572 -4.91539,-4.07144 -8.07788,-2.45806 -3.26421,1.66528 -3.62504,4.72848 -1.34609,11.42736 1.66136,4.88348 2.27432,6.19999 2.88235,6.1907 0.23755,-0.004 1.40049,-1.3927 2.58431,-3.08681 z m 32.91485,-4.40312 c 0.24189,-1.01864 0.52863,-3.36842 0.6372,-5.22173 0.17131,-2.92447 0.0997,-3.59043 -0.54186,-5.04083 -1.33085,-3.00862 -4.9838,-3.84326 -7.9653,-1.81997 -0.6659,0.4519 -1.31625,0.71612 -1.44521,0.58715 -0.12897,-0.12896 -0.18157,0.004 -0.11689,0.29469 0.0647,0.29104 -0.0544,0.4983 -0.26459,0.46057 -0.21019,-0.0377 -0.40462,0.12102 -0.43205,0.35278 -0.0274,0.23175 -0.23964,1.23359 -0.47158,2.22631 -0.37718,1.61437 -0.34871,1.93096 0.26966,2.99861 0.9817,1.69495 8.15385,6.97897 9.51042,7.00672 0.20921,0.004 0.5783,-0.82565 0.8202,-1.8443 z m -65.60791,0.24625 c 5.65132,-1.4922 7.73232,-2.34051 9.00804,-3.67207 1.98344,-2.07027 1.411,-5.88373 -1.24317,-8.28161 -1.21688,-1.09938 -1.62035,-1.25715 -3.21486,-1.25715 -1.68903,0 -1.92933,0.11149 -3.26218,1.51352 -1.22887,1.29266 -7.21362,11.20847 -7.55011,12.50939 -0.18262,0.70601 1.18426,0.52875 6.26228,-0.81208 z m 139.232961,-1.12084 c -0.3586,-0.35861 -0.65449,0.18129 -0.36026,0.65736 0.22226,0.35962 0.30535,0.3599 0.42485,10e-4 0.0817,-0.24511 0.0526,-0.54156 -0.0646,-0.65878 z m -43.0873,-3.60445 c 0.27399,-0.44332 -3.1006,-8.47942 -4.62862,-11.02239 -0.6635,-1.10422 -1.73524,-2.33453 -2.38163,-2.73402 -2.65338,-1.63989 -6.16087,-0.34476 -7.76065,2.86557 -1.04137,2.08977 -1.1233,2.99025 -0.42431,4.66318 0.9046,2.16501 3.20509,3.42376 10.03279,5.48956 3.64039,1.10145 4.83252,1.2719 5.16242,0.7381 z m -112.606111,-2.3568 c 5.75296,-1.85791 7.60418,-2.74418 8.0208,-3.83996 0.51765,-1.36152 0.42265,-2.28199 -0.41825,-4.05267 -0.41466,-0.87312 -0.72229,-1.7834 -0.68364,-2.02284 0.0396,-0.24565 -0.15093,-0.35045 -0.43738,-0.24053 -0.27921,0.10714 -0.61246,0.0252 -0.74055,-0.18202 -0.3793,-0.61373 -1.79743,-0.43027 -2.47678,0.3204 -0.34704,0.38348 -0.79305,0.59708 -0.99113,0.47466 -0.19907,-0.12303 -0.25355,-0.0501 -0.12182,0.16303 0.13108,0.21208 -0.0428,0.54294 -0.38646,0.73525 -0.34363,0.1923 -0.60855,0.47987 -0.58871,0.63904 0.0198,0.15917 -1.21047,2.15003 -2.7340297,4.42414 -2.5224,3.76502 -3.10576,4.86109 -2.58719,4.86109 0.1006,0 1.96592,-0.57582 4.1451397,-1.27959 z m -12.8175897,-6.72723 c 1.18350003,-2.1851 1.28582003,-2.57651 0.67354,-2.57651 -0.22422,0 -0.94903,-0.41291 -1.61067,-0.91757 -0.66165,-0.50467 -1.27929,-0.84128 -1.37254,-0.74803 -0.0933,0.0932 -0.003,1.49418 0.19956,3.11318 0.203,1.619 0.3691,3.07623 0.3691,3.23829 0,0.65023 0.71658,-0.21796 1.74101,-2.10936 z m 233.5617507,0.77488 c 0,-0.097 -0.0794,-0.17639 -0.17639,-0.17639 -0.097,0 -0.17639,0.0794 -0.17639,0.17639 0,0.097 0.0794,0.17639 0.17639,0.17639 0.097,0 0.17639,-0.0794 0.17639,-0.17639 z m -156.740731,-4.0756 c 5.54662,-0.45608 14.48767,-1.80224 21.17714,-3.18842 19.508771,-4.04259 36.155921,-12.64414 45.144001,-23.32583 4.34694,-5.16603 6.24277,-8.52765 8.44041,-14.96626 0.71952,-2.10803 1.35429,-3.89153 1.4106,-3.96334 0.0563,-0.0718 0.50666,-0.0291 1.00076,0.0949 1.12051,0.28123 1.13789,0.86383 0.13651,4.57501 l -0.76187,2.82354 0.77852,0.55188 c 0.42818,0.30353 1.5601,1.14719 2.51538,1.8748 0.95527,0.7276 1.83159,1.32291 1.94736,1.32291 0.11578,0 1.44021,1.27 2.94317,2.82222 1.50297,1.55223 2.99739,2.82223 3.32093,2.82223 0.80045,0 1.16224,-1.59615 0.55307,-2.44006 -0.26429,-0.36613 -1.05647,-1.35597 -1.76041,-2.19963 -0.70394,-0.84366 -1.38488,-1.87712 -1.51321,-2.29659 -0.19383,-0.63354 -0.0609,-0.80053 0.78486,-0.9863 1.03195,-0.22665 4.60314,0.91937 5.03318,1.61519 0.11516,0.18633 1.46603,0.78751 3.00194,1.33595 3.14231,1.12207 4.38006,1.00369 4.38006,-0.41891 0,-0.8365 -1.64366,-2.36948 -2.54336,-2.37208 -0.25039,-7.3e-4 -0.97119,-0.3159 -1.60178,-0.70037 -2.31678,-1.41257 -0.95344,-4.23165 1.82816,-3.78026 0.65843,0.10685 2.5111,0.77199 4.11705,1.47808 5.2775,2.32038 8.04571,2.65315 8.66415,1.04153 0.3165,-0.82478 -0.49886,-1.41628 -2.8795,-2.08895 -4.46495,-1.2616 -4.15987,-2.63848 0.59216,-2.67252 3.08978,-0.0221 6.12357,-0.4035 6.54249,-0.82242 0.51774,-0.51774 -0.56022,-1.45697 -1.88036,-1.63836 -1.81421,-0.24928 -2.2284,-0.54493 -1.99795,-1.42616 0.29599,-1.13187 1.56744,-1.39482 5.56245,-1.15038 3.02645,0.18517 3.96308,0.11668 5.27949,-0.38606 1.26043,-0.48136 1.60033,-0.78428 1.60033,-1.42619 0,-0.89712 -0.59158,-1.24329 -2.1247,-1.24329 -0.55476,0 -1.09792,-0.14443 -1.20701,-0.32094 -0.50197,-0.8122 0.49961,-1.47025 4.32434,-2.84116 2.7255,-0.97691 4.40616,-1.79102 4.95923,-2.40226 l 0.83658,-0.92458 -1.10116,-0.983889 c -0.60565,-0.541141 -1.10117,-1.091963 -1.10117,-1.22405 0,-0.132087 0.10482,-0.135335 0.23294,-0.0072 0.12812,0.128117 0.45648,-0.0862 0.72969,-0.476273 0.27322,-0.390067 0.66917,-0.602654 0.8799,-0.472415 0.21234,0.131234 0.28297,0.07471 0.15844,-0.126794 -0.12359,-0.199976 0.40181,-0.797775 1.16756,-1.328442 0.76576,-0.530667 2.06007,-1.830425 2.87625,-2.888351 1.29132,-1.673791 1.44098,-2.046532 1.15281,-2.871204 -0.47035,-1.346023 -2.02965,-1.416526 -4.61801,-0.2088 -1.12773,0.526196 -2.28854,1.172645 -2.57958,1.436553 -0.88677,0.804093 -4.29926,3.011928 -4.75979,3.079519 -0.23798,0.03493 -0.70448,0.335287 -1.03665,0.667461 -0.34538,0.345373 -1.14522,0.603953 -1.86816,0.603953 -1.24185,0 -1.25291,-0.01247 -0.62568,-0.705556 0.35119,-0.388055 0.53105,-0.705555 0.3997,-0.705555 -0.13136,0 0.63779,-1.062763 1.70921,-2.361696 2.47831,-3.004569 2.57099,-4.690245 0.24131,-4.389078 -0.9678,0.125112 -1.90019,0.857314 -4.84204,3.802425 -3.20016,3.203718 -6.25861,4.97456 -6.87344,3.97973 -0.16276,-0.263342 0.0789,-1.412233 0.5732,-2.725586 1.23598,-3.283694 1.02581,-5.714128 -0.49414,-5.714128 -0.62294,0 -2.92163,3.216465 -4.03388,5.644444 -1.38976,3.033775 -3.94379,4.068416 -9.96325,4.036131 -3.24409,-0.0174 -4.35633,-0.178537 -6.78142,-0.982471 -1.59548,-0.528911 -3.89736,-1.040658 -5.11528,-1.137214 -5.01858,-0.397868 -5.91858,-0.554877 -5.91858,-1.032527 0,-0.477418 1.52191,-1.103066 3.175,-1.305229 0.82583,-0.100993 0.87506,-0.220103 0.77375,-1.871745 -0.0595,-0.970139 -0.34623,-2.694263 -0.63714,-3.831386 -0.29091,-1.137124 -0.41892,-2.168999 -0.28447,-2.293056 0.13445,-0.124057 0.31533,-0.02712 0.40195,0.215415 0.0866,0.242534 0.3427,0.443752 0.56906,0.44715 0.22637,0.0034 0.72908,0.678085 1.11713,1.499305 l 0.70556,1.493128 3.175,0.194374 c 3.24971,0.198947 3.9059,0.428061 7.21281,2.518404 1.91726,1.211924 3.36097,1.292429 3.93522,0.219439 0.37366,-0.698192 0.23159,-0.933067 -1.48689,-2.458216 -1.04502,-0.927447 -2.09847,-1.69132 -2.341,-1.697495 -0.24254,-0.0062 -0.44098,-0.30929 -0.44098,-0.673588 0,-0.840015 0.51693,-1.226569 2.33399,-1.745319 2.26819,-0.647547 4.21458,-0.504572 6.09364,0.447616 1.27696,0.647086 1.80206,0.761491 2.10494,0.458611 0.55004,-0.55004 0.48874,-1.707654 -0.13401,-2.530847 -0.45517,-0.601673 -0.4475,-0.755621 0.0659,-1.322917 0.42498,-0.469597 1.11106,-0.64699 2.5548,-0.660565 6.83445,-0.06426 11.30055,-2.727026 5.48477,-3.270112 -3.98124,-0.371774 -5.24497,-1.927993 -2.75745,-3.395665 1.16647,-0.688236 1.86168,-0.764679 7.67292,-0.843701 6.93048,-0.09424 8.40706,-0.421694 8.61955,-1.911504 0.16299,-1.142835 -1.09605,-1.496214 -5.3391,-1.498537 -3.42162,-0.0019 -6.25184,-0.449407 -6.22762,-0.984753 0.0221,-0.487663 0.88606,-1.321708 1.77612,-1.714548 0.49797,-0.219785 2.3236,-0.513151 4.05695,-0.651925 4.65662,-0.372815 6.9099,-0.944668 7.24016,-1.837459 0.19635,-0.530771 0.0807,-0.914821 -0.40908,-1.358031 -0.58738,-0.531567 -0.87342,-0.56088 -2.04574,-0.209645 -1.4815,0.44387 -3.54109,0.534214 -4.42716,0.194197 -0.75693,-0.290461 -0.7052,-1.659985 0.0899,-2.379522 0.35634,-0.322487 2.39905,-1.034566 4.53935,-1.582397 4.10626,-1.051036 6.27802,-2.053988 6.27802,-2.899277 0,-0.415168 -0.60361,-0.489182 -3.26319,-0.400129 -1.79476,0.0601 -3.26319,0.02965 -3.26319,-0.06765 0,-0.0973 1.37054,-1.733973 3.04565,-3.637041 2.95163,-3.353301 4.70492,-6.22251 4.71201,-7.711096 0.013,-2.723943 -4.06165,-1.817338 -8.00417,1.780928 -1.3664,1.247083 -2.60974,2.154263 -2.76298,2.015956 -0.15325,-0.138308 -0.17229,-0.06574 -0.0423,0.161255 0.1307,0.228281 -0.15933,0.723932 -0.649,1.109106 -0.48692,0.383009 -0.88531,0.89843 -0.88531,1.145378 0,0.246948 -0.10482,0.344173 -0.23294,0.216055 -0.12811,-0.128117 -0.45462,0.08355 -0.72556,0.470371 -0.27094,0.386821 -0.7826,0.703311 -1.13702,0.703311 -0.79586,0 -1.23403,-1.373946 -0.52495,-1.646046 0.27487,-0.105476 0.41795,-0.324133 0.31797,-0.485904 -0.1,-0.161772 0.0994,-0.45781 0.443,-0.657863 0.34363,-0.200052 0.49491,-0.368559 0.33618,-0.374459 -0.15874,-0.0059 0.0291,-0.456973 0.41751,-1.002384 1.05676,-1.484075 1.31262,-2.831684 0.59027,-3.108876 -0.86283,-0.331099 -1.99425,0.396055 -4.67886,3.007054 -4.06965,3.958068 -5.02298,4.613975 -6.71184,4.617832 l -1.49931,0.0034 -0.001,-2.028472 c -0.001,-2.028704 -0.93784,-4.321528 -1.76515,-4.321528 -0.67749,0 -2.45925,3.29001 -3.33284,6.15406 -0.55863,1.831463 -1.46861,3.715123 -2.55818,5.295395 -1.9063,2.764853 -5.17026,5.645714 -6.02491,5.317755 -0.30178,-0.115804 -0.67194,-0.01114 -0.82257,0.232598 -0.16764,0.27125 -1.06807,0.44694 -2.32126,0.45292 -1.8472,0.0088 -2.0379,-0.05921 -1.95039,-0.695785 0.50084,-3.643523 0.49394,-4.624852 -0.0356,-5.064367 -1.55427,-1.289932 -3.1611,0.537694 -3.36698,3.829645 -0.0667,1.067153 -0.27951,2.039173 -0.47282,2.160045 -0.19332,0.120873 -1.10439,0.308939 -2.02461,0.417925 -0.92022,0.108987 -3.76747,0.897765 -6.32721,1.752841 -2.55974,0.855076 -4.72164,1.445365 -4.80421,1.311753 -0.0826,-0.133611 0.30237,-0.676462 0.85543,-1.206334 1.10473,-1.058392 1.09487,-1.960888 -0.0346,-3.17329 -0.35352,-0.379454 -0.84037,-1.136347 -1.08189,-1.681984 -0.24152,-0.545637 -0.55913,-0.992067 -0.70579,-0.992067 -0.14667,0 -0.26666,-0.16545 -0.26666,-0.367667 0,-0.346019 -0.27604,-0.745066 -1.32292,-1.912432 -0.24253,-0.270449 -0.44097,-0.661815 -0.44097,-0.869702 0,-0.207887 -0.13945,-0.377976 -0.30988,-0.377976 -0.17043,0 -0.99347,-0.912813 -1.82898,-2.028472 -2.15462,-2.877078 -11.39794,-11.72986 -12.24732,-11.72986 -0.20443,0 -0.42461,-0.135963 -0.48928,-0.30214 -0.11979,-0.307772 -5.76812,-3.931193 -6.1281,-3.931193 -0.10857,0 -1.10496,-0.602819 -2.2142,-1.339597 -2.07913,-1.380997 -3.17267,-1.9367 -8.00307,-4.066919 -8.87226,-3.912686 -18.953611,-6.720136 -28.927781,-8.055794 -4.81937,-0.645371 -26.3619,-0.651172 -30.51527,-0.0082 -8.13551,1.259401 -18.77874,3.954423 -24.16528,6.118997 -15.46549,6.214794 -30.0731297,17.921094 -38.44763,30.81125 -7.52263,11.578952 -11.94911,23.413429 -13.27705,35.497091 -0.48206,4.386539 -0.21509,12.667569 0.54453,16.890399 3.16406,17.58946 16.0444503,29.86551 39.53848,37.68335 8.86286,2.9492 21.31649,5.30359 32.63195,6.16917 3.89726,0.29812 22.61732,0.20928 26.7037,-0.12673 z m -32.802,-32.93861 c -2.18906,-0.58868 -4.02591,-2.08724 -5.45517,-4.45049 -1.93587,-3.2009 -1.36647,-6.68947 1.09185,-6.68947 1.06549,0 1.76101,0.84248 2.32604,2.81752 0.91307,3.19158 3.86316,4.811 7.06356,3.87746 2.61466,-0.76269 4.85774,-0.81734 7.14985,-0.1742 1.28426,0.36034 2.59981,0.50754 3.32319,0.37183 1.72589,-0.32378 3.50711,-2.04173 4.16237,-4.01453 0.79696,-2.39941 1.4737,-3.23085 2.62971,-3.23085 1.38259,0 2.16939,1.02137 2.2056,2.86318 0.0408,2.0744 -0.83634,4.04672 -2.6286,5.91071 -2.74861,2.85863 -5.99189,3.69494 -10.34953,2.66873 -2.54652,-0.59969 -2.83734,-0.60173 -5.55322,-0.0389 -3.33028,0.69019 -3.70899,0.69584 -5.96565,0.089 z m -53.52114,-4.26079 c 0,-0.097 0.0794,-0.17639 0.17639,-0.17639 0.097,0 0.17638,0.0794 0.17638,0.17639 0,0.097 -0.0794,0.17639 -0.17638,0.17639 -0.097,0 -0.17639,-0.0794 -0.17639,-0.17639 z m 11.81805033,-1.378 c -2.76678003,-0.53575 -6.52639003,-2.0798 -6.52639003,-2.68035 0,-0.21616 -0.14409,-0.30395 -0.32021,-0.19511 -0.50464,0.31189 -3.7458603,-2.43445 -5.2955403,-4.48698 -4.88665,-6.47232 -5.80725,-16.168821 -2.29341,-24.156085 0.44813,-1.018646 0.99164,-1.852083 1.20779,-1.852083 0.21616,0 0.30518,-0.142116 0.19783,-0.315812 -0.10735,-0.173697 0.0521,-0.410701 0.35432,-0.526675 0.30222,-0.115975 0.44816,-0.374834 0.3243,-0.575243 -0.12386,-0.200409 0.77889,-1.323355 2.00611,-2.495436 6.2074903,-5.928579 15.8830903,-7.262872 23.22159,-3.202322 0.87312,0.483118 1.90499,1.05143 2.29304,1.262915 1.57843,0.860248 3.96017,3.056928 4.5974,4.240195 0.37309,0.69278 0.79831,1.2596 0.94495,1.2596 0.41828,0 2.02227,3.374088 2.916,6.133981 1.21111,3.740013 1.39284,6.267259 0.72819,10.127035 -1.07299,6.2311 -4.12267,10.99845 -9.21419,14.40387 -4.47456,2.99276 -9.8617097,4.08092 -15.14177967,3.0585 z m 0.5563,-7.59069 c 0.84430997,-0.84431 1.03119997,-1.32875 1.03119997,-2.67298 0,-3.4015 -3.52892,-4.95402 -6.07985,-2.67477 -1.01956,0.91098 -1.15209,1.23915 -1.15209,2.85277 0,1.56044 0.14273,1.94615 0.98981,2.67477 1.48258,1.27527 3.83711003,1.19403 5.21093003,-0.17979 z M 14.972809,100.52852 c 0.33955,-0.40127 0.61736,-1.160759 0.61736,-1.687743 0,-0.867847 0.10161,-0.943239 1.07809,-0.799923 1.3652,0.200368 2.80247,-1.035868 2.80247,-2.410481 0,-0.994892 -1.5012,-2.808834 -2.32456,-2.808834 -1.58312,0 -3.34058,2.045689 -2.85178,3.319484 0.15361,0.400294 -0.0481,0.470375 -0.93811,0.325945 -2.59251,-0.420706 -3.8675497,2.622955 -1.8322,4.373682 1.14681,0.98645 2.4497,0.86853 3.44873,-0.31213 z M -2.0210807,95.194394 c 3.47659,-2.342874 4.12278,-6.620724 1.43531003,-9.501836 -1.06619003,-1.143016 -1.61733003,-1.441755 -2.93356003,-1.590113 -0.8914,-0.100473 -2.1847,0.0035 -2.874,0.230942 -1.54278,0.509162 -3.6070903,2.729236 -4.0587503,4.364989 -0.40128,1.453331 -0.0412,3.742395 0.7878103,5.007562 1.522,2.322867 5.31027,3.060606 7.64319,1.488456 z M 21.234619,86.295151 c 0,-0.09701 -0.0794,-0.176389 -0.17639,-0.176389 -0.097,0 -0.17639,0.07937 -0.17639,0.176389 0,0.09701 0.0794,0.176388 0.17639,0.176388 0.097,0 0.17639,-0.07937 0.17639,-0.176388 z m 80.962491,33.444189 c -6.518471,-0.86455 -13.468621,-5.72692 -16.036431,-11.21919 -2.26206,-4.83831 -2.50903,-5.73389 -2.72394,-9.877778 -0.22307,-4.301289 0.44351,-7.84271 2.07488,-11.023381 0.62223,-1.213182 1.23833,-2.205785 1.36909,-2.205785 0.13076,0 0.43674,-0.4804 0.67994,-1.067556 0.54973,-1.32716 3.57855,-4.090049 5.24874,-4.787898 0.68701,-0.287051 1.35034,-0.685718 1.47408,-0.885926 0.12373,-0.200208 1.31992,-0.768122 2.6582,-1.262032 1.90256,-0.702169 3.318001,-0.935548 6.490161,-1.0701 6.70953,-0.284597 9.84315,0.766163 15.13207,5.074051 5.53528,4.508549 7.87831,9.396376 7.92051,16.523071 0.0197,3.331714 -0.11148,4.271984 -0.92773,6.648174 -1.42288,4.14213 -2.62275,6.10056 -5.54429,9.04938 -4.79335,4.8381 -11.09234,6.99665 -17.81528,6.10497 z m -1.15092,-8.15384 c 2.49349,-2.31311 0.84086,-6.41674 -2.584171,-6.41674 -1.66938,0 -3.01444,1.07297 -3.53873,2.82288 -1.12695,3.76141 3.20277,6.30276 6.122901,3.59386 z m 15.77264,-12.217822 c 0.56849,-0.605125 0.76595,-1.162279 0.66227,-1.868669 -0.13676,-0.931797 -0.073,-0.995515 0.85876,-0.858756 1.37351,0.201589 2.73086,-1.082759 2.73086,-2.583992 0,-1.378811 -1.33626,-2.734027 -2.69579,-2.734027 -1.33374,0 -2.72733,1.6358 -2.47375,2.903692 0.17032,0.851579 0.10083,0.923806 -0.76636,0.796529 -1.39211,-0.204318 -2.88354,1.076459 -2.88354,2.476257 0,2.45154 2.90395,3.639788 4.56755,1.868966 z M 96.834089,95.167143 c 1.56525,-0.654002 3.311781,-2.740071 3.794271,-4.531895 0.50985,-1.893441 0.0157,-3.698084 -1.478491,-5.399921 -2.07376,-2.361885 -5.30826,-2.39338 -7.94605,-0.07737 -1.54312,1.354879 -2.23787,2.887095 -2.23007,4.918225 0.0156,4.068459 4.0515,6.682398 7.86034,5.090961 z M -13.690391,115.5757 c 0,-0.097 0.0794,-0.17638 0.17639,-0.17638 0.097,0 0.17639,0.0794 0.17639,0.17638 0,0.097 -0.0794,0.17639 -0.17639,0.17639 -0.097,0 -0.17639,-0.0794 -0.17639,-0.17639 z m -2.70463,-0.41157 c 0.12935,-0.12935 0.34102,-0.12935 0.47037,0 0.12935,0.12935 0.0235,0.23519 -0.23518,0.23519 -0.25871,0 -0.36454,-0.10584 -0.23519,-0.23519 z M 164.1096,106.57987 c 0,-0.2587 0.10583,-0.36454 0.23518,-0.23518 0.12935,0.12935 0.12935,0.34101 0,0.47037 -0.12935,0.12935 -0.23518,0.0235 -0.23518,-0.23519 z m 0.70555,0.17639 c 0,-0.097 0.0794,-0.17639 0.17639,-0.17639 0.097,0 0.17639,0.0794 0.17639,0.17639 0,0.097 -0.0794,0.17639 -0.17639,0.17639 -0.097,0 -0.17639,-0.0794 -0.17639,-0.17639 z m 9.42568,-2.02847 c -0.22596,-0.63017 0.38629,-1.6757 0.98127,-1.6757 0.27738,0 0.67426,0.3175 0.88194,0.70556 0.27066,0.50574 0.26828,0.70555 -0.008,0.70555 -0.2123,0 -0.28549,0.19844 -0.16264,0.44098 0.12286,0.24253 -0.0265,0.13281 -0.33196,-0.24382 -0.48675,-0.60022 -0.55532,-0.61111 -0.55532,-0.0882 0,0.6928 -0.57257,0.80351 -0.80488,0.15562 z m -16.3595,-2.22008 c -0.32744,-0.85329 0.183,-1.06476 0.75264,-0.31181 0.31884,0.42145 0.51856,0.5043 0.52552,0.21801 0.006,-0.25398 0.17256,-0.36208 0.36975,-0.2402 0.52742,0.32596 0.06,0.87838 -0.7432,0.87838 -0.3827,0 -0.78981,-0.24497 -0.90471,-0.54438 z m 23.51438,-1.5931 c 0,-0.20548 0.15875,-0.27549 0.35277,-0.15557 0.19403,0.11991 0.35278,0.28803 0.35278,0.3736 0,0.0856 -0.15875,0.15556 -0.35278,0.15556 -0.19402,0 -0.35277,-0.16811 -0.35277,-0.37359 z m -1.05834,-0.50835 c 0,-0.097 0.0794,-0.17639 0.17639,-0.17639 0.097,0 0.17639,0.0794 0.17639,0.17639 0,0.097 -0.0794,0.17639 -0.17639,0.17639 -0.097,0 -0.17639,-0.0794 -0.17639,-0.17639 z m 1.96296,-0.425757 c -0.19145,-0.502778 -0.15092,-0.5433 0.19748,-0.197483 0.2411,0.2393 0.34949,0.52396 0.24088,0.63258 -0.10862,0.10861 -0.30588,-0.0872 -0.43836,-0.435097 z m -0.90462,-0.632576 c 0,-0.09701 0.0794,-0.176389 0.17638,-0.176389 0.097,0 0.17639,0.07938 0.17639,0.176389 0,0.09701 -0.0794,0.176389 -0.17639,0.176389 -0.097,0 -0.17638,-0.07937 -0.17638,-0.176389 z m -43.03889,-9.172221 c 0,-0.09701 0.0794,-0.176389 0.17639,-0.176389 0.097,0 0.17639,0.07937 0.17639,0.176389 0,0.09701 -0.0794,0.176389 -0.17639,0.176389 -0.097,0 -0.17639,-0.07937 -0.17639,-0.176389 z M 62.983319,76.802843 c -2.51849,-1.412233 -2.77517,-4.028093 -0.59388,-6.052387 0.84923,-0.788104 1.23493,-0.90384 2.52823,-0.758647 2.20049,0.247039 3.58916,1.659116 3.58916,3.649672 0,2.994511 -2.88073,4.643286 -5.52351,3.161362 z m -25.4207,-0.83368 c -1.15172,-0.186925 -2.56992,-2.048452 -2.56836,-3.371217 0.003,-2.568788 2.02789,-4.128579 4.70056,-3.620939 1.28012,0.243141 2.70723,2.039606 2.70513,3.405252 -0.002,1.331068 -1.25702,3.105509 -2.36898,3.349556 -0.5396,0.118427 -1.13984,0.248824 -1.33386,0.289771 -0.19403,0.04095 -0.70455,0.01736 -1.13449,-0.05242 z m -45.3679997,-5.50897 c -0.12957,-0.33766 -0.37753,-0.526199 -0.55102,-0.418975 -0.59679,0.368836 -0.21813,-1.032608 0.40455,-1.497287 0.3428,-0.255811 0.53186,-0.612998 0.42015,-0.79375 -0.38084,-0.616219 1.49095,-0.330977 2.07691,0.316499 0.66177,0.731249 0.76754,1.471527 0.21025,1.471527 -0.20548,0 -0.27549,0.15875 -0.15557,0.352778 0.11991,0.194028 -0.0388,0.352778 -0.35278,0.352778 -0.31394,0 -0.47269,0.15875 -0.35278,0.352778 0.11992,0.194028 0.0449,0.352777 -0.16664,0.352777 -0.21157,0 -0.48682,-0.266205 -0.61167,-0.591567 -0.2052,-0.534744 -0.24905,-0.52875 -0.45641,0.0624 -0.21347,0.608565 -0.24576,0.611345 -0.46499,0.04004 z m -0.005,-1.157171 c -0.12935,-0.129352 -0.23519,-0.02352 -0.23519,0.235185 0,0.258704 0.10584,0.364538 0.23519,0.235186 0.12935,-0.129352 0.12935,-0.341019 0,-0.470371 z m 179.3286907,1.11713 c 0,-0.09701 0.0794,-0.176389 0.17639,-0.176389 0.097,0 0.17639,0.07937 0.17639,0.176389 0,0.09701 -0.0794,0.176389 -0.17639,0.176389 -0.097,0 -0.17639,-0.07937 -0.17639,-0.176389 z m -1.76389,-0.454094 c 0,-0.152738 0.32093,-0.30188 0.71318,-0.331427 0.39225,-0.02955 0.62101,0.09542 0.50835,0.277705 -0.24783,0.400987 -1.22153,0.44381 -1.22153,0.05372 z M 99.198489,68.673639 c -0.48507,-0.294397 -1.16605,-0.63734 -1.51329,-0.762096 -1.51196,-0.543213 -2.0974,-4.525784 -0.94408,-6.422263 1.66389,-2.736061 6.306511,-2.699542 8.482451,0.06672 1.49315,1.898231 0.74335,5.402238 -1.43081,6.686547 -1.45823,0.861397 -3.56028,1.058636 -4.594271,0.431089 z m 1.697721,-4.167632 c 0.1404,-0.729044 -0.878,-1.220294 -1.415501,-0.682799 -0.53749,0.537495 -0.0462,1.555895 0.682801,1.415494 0.33791,-0.06508 0.66762,-0.394788 0.7327,-0.732695 z M 8.1818293,68.582379 c -0.85912,-0.315892 -1.81793,-1.274032 -2.22072,-2.219171 -0.48001,-1.126311 -0.63556,-3.527778 -0.22851,-3.527778 0.17073,0 0.23072,-0.207709 0.1333,-0.461575 -0.25614,-0.667496 0.83269,-1.714747 2.75807,-2.652727 l 1.6768497,-0.816911 1.95317,0.894188 c 1.65289,0.756718 2.06173,1.139629 2.65937,2.490683 1.10663,2.501728 0.22021,4.735938 -2.44486,6.162239 -0.7359,0.393844 -3.3542597,0.473893 -4.2866697,0.131052 z m 2.0615597,-4.13796 c 0.19594,-1.010767 -0.5530797,-1.504767 -1.2400197,-0.817825 -0.48856,0.488556 -0.50842,0.676262 -0.12093,1.143158 0.56197,0.677124 1.1959897,0.52556 1.3609497,-0.325333 z m 13.46066,3.687318 c -0.41786,-0.266378 -0.44331,-0.469303 -0.12102,-0.964737 0.22448,-0.345072 0.62135,-0.567524 0.88194,-0.494338 0.26059,0.07319 0.67224,0.139332 0.91478,0.146991 0.52614,0.01662 0.58891,0.821595 0.0882,1.131055 -0.19403,0.119915 -0.35278,-0.0489 -0.35278,-0.375154 0,-0.485325 -0.0955,-0.513915 -0.52528,-0.157237 -0.2889,0.23977 -0.43829,0.576709 -0.33196,0.748752 0.24524,0.396806 0.11054,0.388213 -0.55387,-0.03533 z M 143.67634,67.883333 c -0.0402,-0.607089 0.58406,-0.898714 0.88422,-0.413039 0.15215,0.246184 0.10292,0.318876 -0.12188,0.179945 -0.20743,-0.128202 -0.45756,-0.03367 -0.55582,0.210076 -0.12788,0.317197 -0.18659,0.32374 -0.20652,0.02302 z m 33.48603,-0.364968 c 0,-0.173112 0.23604,-0.622903 0.52454,-0.999537 0.50544,-0.659849 0.52032,-0.653348 0.40866,0.17853 -0.10735,0.79982 -0.9332,1.52638 -0.9332,0.821007 z m 0.70556,-0.273213 c 0,-0.09701 -0.0794,-0.176389 -0.17639,-0.176389 -0.097,0 -0.17639,0.07937 -0.17639,0.176389 0,0.09701 0.0794,0.176389 0.17639,0.176389 0.097,0 0.17639,-0.07937 0.17639,-0.176389 z m -1.76389,0 c 0,-0.09701 0.0794,-0.176389 0.17639,-0.176389 0.097,0 0.17639,0.07937 0.17639,0.176389 0,0.09701 -0.0794,0.176389 -0.17639,0.176389 -0.097,0 -0.17639,-0.07937 -0.17639,-0.176389 z m -0.13229,-0.810593 c -0.25198,-0.407707 0.21178,-0.937026 0.92604,-1.056955 0.74877,-0.125723 0.78762,0.160183 0.11339,0.834413 -0.57502,0.57502 -0.79277,0.621641 -1.03943,0.222542 z M 51.943119,65.675528 c -0.28178,-0.178255 -0.62661,-0.253468 -0.76629,-0.167141 -0.13968,0.08633 -1.02535,-0.598835 -1.96815,-1.522583 -2.45627,-2.406638 -3.10767,-4.731826 -3.0895,-11.028151 0.0115,-3.967881 0.17256,-5.396815 0.9656,-8.564236 0.52351,-2.090956 1.27139,-4.503183 1.66195,-5.360506 0.39055,-0.857323 0.7101,-1.672223 0.7101,-1.810888 0,-0.586326 3.27822,-6.842146 3.58547,-6.842146 0.1852,0 0.25942,-0.12508 0.16494,-0.277956 -0.0945,-0.152875 0.33271,-0.868111 0.94932,-1.589411 1.10449,-1.29203 1.17597,-1.317328 4.82527,-1.7079 4.38527,-0.46934 21.03024,-0.230047 21.57039,0.310103 0.23654,0.236544 -0.15171,0.685368 -1.1715,1.354274 -1.83472,1.203443 -6.61364,6.385407 -8.50053,9.217444 -2.07638,3.116451 -4.9125,9.14393 -7.51758,15.976778 -1.29456,3.395486 -2.71628,6.887985 -3.15938,7.76111 -0.9397,1.851689 -2.74259,3.679278 -4.15479,4.211696 -1.21459,0.457919 -3.41051,0.479054 -4.10532,0.03951 z m -0.12778,-15.601591 c 0.96572,-0.907247 1.02983,-1.587483 0.23264,-2.468366 -0.82426,-0.910804 -2.11266,-0.812178 -2.78448,0.213148 -0.62507,0.953982 -0.3054,1.99089 0.81501,2.643654 0.82509,0.480702 0.80748,0.48464 1.73683,-0.388436 z m 3.28593,-1.328797 c 0,-0.376604 -0.17258,-0.791397 -0.38351,-0.921761 -0.53943,-0.333385 -1.16373,0.390135 -0.90913,1.053617 0.3024,0.788042 1.29264,0.687033 1.29264,-0.131856 z m 19.39005,14.80982 c -0.68415,-0.400655 -0.63271,-2.156793 0.0763,-2.604013 0.29304,-0.184844 0.9639,-0.227881 1.49079,-0.09564 0.82734,0.207647 0.94304,0.395168 0.84836,1.374865 -0.0825,0.853631 -0.26246,1.108765 -0.72701,1.030764 -0.33955,-0.05701 -0.61736,0.06205 -0.61736,0.264583 0,0.445035 -0.3452,0.454523 -1.07106,0.02944 z m 0.0127,-0.543141 c 0,-0.09701 -0.0794,-0.176389 -0.17639,-0.176389 -0.097,0 -0.17639,0.07938 -0.17639,0.176389 0,0.09701 0.0794,0.176389 0.17639,0.176389 0.097,0 0.17639,-0.07937 0.17639,-0.176389 z m 1.76389,-1.058333 c 0,-0.09701 -0.0794,-0.176389 -0.17639,-0.176389 -0.097,0 -0.17639,0.07937 -0.17639,0.176389 0,0.09701 0.0794,0.176389 0.17639,0.176389 0.097,0 0.17639,-0.07937 0.17639,-0.176389 z m 7.23194,1.188077 c -2.0538,-1.023677 -2.72181,-4.191258 -1.22083,-5.788975 2.7971,-2.977377 7.70567,-0.655745 6.65544,3.14786 -0.68631,2.485626 -3.24844,3.73077 -5.43461,2.641115 z m 3.58657,-6.185762 c -0.12935,-0.129352 -0.23518,-0.02352 -0.23518,0.235185 0,0.258704 0.10583,0.364537 0.23518,0.235185 0.12936,-0.129351 0.12936,-0.341018 0,-0.47037 z m -55.13505,5.71039 c -1.33327,-0.561986 -2.25013,-1.786736 -2.25013,-3.00576 0,-1.01289 0.95082,-2.577533 1.39829,-2.300984 0.16042,0.09915 0.3827,-0.05695 0.49395,-0.346876 0.13718,-0.357468 0.70335,-0.52714 1.75899,-0.52714 1.35875,0 1.67417,0.154011 2.48051,1.211184 1.02932,1.349498 1.1922,2.804161 0.40244,3.593928 -0.28676,0.286761 -0.65468,0.759567 -0.8176,1.05068 -0.40537,0.72437 -2.13436,0.886457 -3.46645,0.324968 z m 84.952501,-2.666725 c -0.93497,-0.871055 -0.93185,-0.752418 -0.0467,-1.773046 0.44592,-0.514147 0.81971,-0.694935 0.97014,-0.469219 0.13459,0.201957 0.52231,0.469609 0.86159,0.594783 0.72091,0.265978 0.64891,1.554895 -0.11383,2.037612 -0.70176,0.444129 -0.80051,0.421076 -1.67124,-0.39013 z m 0.16866,-1.279776 c -0.12935,-0.129352 -0.23518,-0.02352 -0.23518,0.235185 0,0.258704 0.10583,0.364537 0.23518,0.235185 0.12935,-0.129352 0.12935,-0.341018 0,-0.47037 z m 1.41111,0 c -0.12935,-0.129352 -0.23518,-0.02352 -0.23518,0.235185 0,0.258704 0.10583,0.364537 0.23518,0.235185 0.12936,-0.129352 0.12936,-0.341018 0,-0.47037 z m 68.01177,-1.440509 c -0.50028,-1.154954 -0.43025,-1.352335 0.49851,-1.405171 0.91467,-0.05203 0.91629,-0.04802 0.11173,0.276326 -0.44903,0.18102 -0.71271,0.496928 -0.58595,0.702019 0.16058,0.259834 0.37296,0.254626 0.70046,-0.01718 0.37176,-0.308535 0.43034,-0.238376 0.28023,0.335648 -0.23233,0.888428 -0.64768,0.933211 -1.00498,0.108356 z M 1.9433193,57.05652 c 0.12053,-0.314099 0.0786,-0.571089 -0.0932,-0.571089 -0.17177,0 -0.3746,0.186857 -0.45072,0.415237 -0.0761,0.228381 -0.32748,0.298387 -0.55856997,0.155569 -0.55534,-0.343222 -0.54014,-2.218171 0.0208,-2.568253 0.73787997,-0.460486 1.67569997,-0.492157 1.67569997,-0.05659 0,0.22604 0.20833,0.661606 0.46295,0.967926 0.3924,0.47207 0.33044,0.684294 -0.40661,1.392617 -0.56245,0.540534 -0.79216,0.633978 -0.65041,0.264583 z m -0.46427,-1.453034 c 0,-0.09701 -0.0794,-0.176388 -0.17639,-0.176388 -0.097,0 -0.17638,0.07937 -0.17638,0.176388 0,0.09701 0.0794,0.176389 0.17638,0.176389 0.097,0 0.17639,-0.07937 0.17639,-0.176389 z m -0.35277,-0.705555 c 0,-0.09701 -0.0794,-0.176389 -0.17638997,-0.176389 -0.097,0 -0.17639,0.07937 -0.17639,0.176389 0,0.09701 0.0794,0.176389 0.17639,0.176389 0.097,0 0.17638997,-0.07937 0.17638997,-0.176389 z M 15.760269,55.09034 c -0.94625,-0.379461 -1.93782,-2.187636 -1.31444,-2.396934 0.24375,-0.08184 0.35632,-0.289329 0.25016,-0.461097 -0.10616,-0.171767 0.21035,-0.413543 0.70336,-0.537279 0.493,-0.123737 0.89637,-0.366516 0.89637,-0.539509 0,-0.172994 0.16812,-0.314534 0.3736,-0.314534 0.20548,0 0.27548,0.15875 0.15557,0.352778 -0.11992,0.194027 0.0408,0.352777 0.35715,0.352777 0.773,0 1.58312,0.855233 1.58312,1.671264 0,1.431383 -1.6073,2.432992 -3.00489,1.872534 z M 122.99791,55.05316 c -0.11664,-0.188719 -0.35984,-0.251791 -0.54046,-0.140162 -0.18063,0.11163 -0.32841,-0.0313 -0.32841,-0.317625 0,-0.286323 -0.19843,-0.592782 -0.44097,-0.681019 -0.85305,-0.31035 0.27024,-1.492973 1.34089,-1.411712 1.29055,0.09795 1.70645,0.566983 1.44091,1.624995 -0.23367,0.931014 -1.12298,1.490185 -1.47196,0.925523 z m 1.2478,-1.21356 c 0,-0.09701 -0.0794,-0.176389 -0.17639,-0.176389 -0.097,0 -0.17639,0.07938 -0.17639,0.176389 0,0.09701 0.0794,0.176389 0.17639,0.176389 0.097,0 0.17639,-0.07937 0.17639,-0.176389 z m -13.90038,0.471136 c -0.48099,-0.686706 -0.47535,-0.864298 0.0561,-1.763888 0.32499,-0.550167 0.8808,-1.000304 1.23513,-1.000304 0.84667,0 2.37126,1.438051 1.76127,1.661296 -0.24253,0.08876 -0.4535,0.584723 -0.46882,1.10213 -0.0153,0.517407 -0.10792,0.742303 -0.20579,0.499768 -0.0979,-0.242534 -0.33282,-0.440972 -0.52213,-0.440972 -0.18931,0 -0.24609,0.15875 -0.12617,0.352778 0.4442,0.718732 -1.21431,0.324797 -1.72955,-0.410808 z M 9.2401593,51.931201 c -0.70205,-0.165789 -0.87971,-0.424139 -0.87102,-1.266603 0.0157,-1.522182 0.39957,-1.940278 1.7813497,-1.940278 0.95238,0 1.30782,0.189534 1.61347,0.860354 0.31591,0.693352 0.27958,0.972781 -0.18719,1.439552 -0.31856,0.318559 -0.50937,0.692195 -0.42401,0.830303 0.19381,0.313596 -0.74922,0.3514 -1.9125997,0.07667 z m -0.17638,-2.501325 c 0.11991,-0.194028 0.13865,-0.352778 0.0416,-0.352778 -0.097,0 -0.2745,0.15875 -0.39441,0.352778 -0.11992,0.194028 -0.13866,0.352778 -0.0416,0.352778 0.097,0 0.2745,-0.15875 0.39442,-0.352778 z m 6.5263797,1.5875 c 0,-0.09701 0.0794,-0.176389 0.17639,-0.176389 0.097,0 0.17639,0.07937 0.17639,0.176389 0,0.09701 -0.0794,0.176389 -0.17639,0.176389 -0.097,0 -0.17639,-0.07937 -0.17639,-0.176389 z m 1.76389,0 c 0,-0.09701 0.0794,-0.176389 0.17639,-0.176389 0.097,0 0.17639,0.07937 0.17639,0.176389 0,0.09701 -0.0794,0.176389 -0.17639,0.176389 -0.097,0 -0.17639,-0.07937 -0.17639,-0.176389 z m 8.76469,-0.325965 c -2.9076,-1.118169 -4.61555,-3.160938 -5.08195,-6.078216 -0.49289,-3.08298 1.72386,-6.780978 4.96032,-8.274829 1.72402,-0.795756 5.00853,-0.86829 6.73089,-0.148643 1.83916,0.768448 3.91415,3.03749 4.38843,4.79882 0.46014,1.708833 0.19936,4.182834 -0.61041,5.790852 -0.69034,1.370874 -2.21975,3.003259 -2.8138,3.003259 -0.25474,0 -0.46317,0.185208 -0.46317,0.411574 0,0.226365 -0.10445,0.307118 -0.23212,0.179449 -0.12767,-0.127668 -0.44363,-0.0566 -0.70213,0.157941 -0.74602,0.619142 -4.7146,0.721821 -6.17606,0.159793 z m 1.96848,-6.523855 c 0.74386,-0.821966 0.3644,-1.751575 -1.0167,-2.49072 -0.83959,-0.449338 -0.99095,-0.422815 -1.70301,0.298424 l -0.78151,0.791592 1.15209,1.038457 c 1.35809,1.224134 1.54328,1.252692 2.34913,0.362247 z m 48.31764,5.993699 c -1.89304,-0.812623 -2.99143,-3.610983 -2.27245,-5.789506 0.98122,-2.973143 3.62192,-4.204905 6.75328,-3.150093 2.45815,0.828041 3.31975,2.002193 3.31975,4.524043 0,1.732045 -0.12127,2.02979 -1.31134,3.219869 -1.19883,1.19883 -1.50151,1.320098 -3.52778,1.413422 -1.21904,0.05615 -2.5517,-0.04183 -2.96146,-0.217735 z m 3.03808,-4.077315 c 0,-0.246525 -0.23117,-0.640083 -0.51372,-0.874572 -0.94374,-0.783235 -1.7345,0.420071 -0.85441,1.300162 0.47697,0.476968 1.36813,0.199751 1.36813,-0.42559 z m 16.40416,1.770842 c -4.92238,-2.275046 -6.28894,-8.465101 -2.66939,-12.09151 4.01852,-4.026134 9.749131,-3.206839 13.211751,1.888857 0.70939,1.043956 0.92292,1.79222 0.92292,3.234103 0,1.921985 -0.7607,3.957533 -1.47897,3.957533 -0.22138,0 -0.30225,0.100262 -0.17971,0.222805 0.32697,0.326963 -1.86303,2.274013 -3.18068,2.827837 -1.46041,0.613825 -5.261271,0.591095 -6.625921,-0.03963 z m 2.62998,-6.69608 c 0.59982,-0.722741 0.15966,-1.808938 -1.0951,-2.702407 l -1.06923,-0.761358 -0.75709,0.757095 c -0.63621,0.636208 -0.68583,0.854886 -0.31078,1.369553 0.24547,0.336852 0.53096,0.857256 0.63442,1.156454 0.24657,0.713053 2.05175,0.838595 2.59778,0.180663 z m 21.888081,3.075923 c 0,-0.879689 0.54438,-1.348146 0.89931,-0.773872 0.13337,0.215811 -0.0144,0.649294 -0.32841,0.963294 -0.52602,0.526026 -0.5709,0.511135 -0.5709,-0.189422 z m 0.70555,-0.625582 c 0,-0.09701 -0.0794,-0.176389 -0.17639,-0.176389 -0.097,0 -0.17639,0.07937 -0.17639,0.176389 0,0.09701 0.0794,0.176389 0.17639,0.176389 0.097,0 0.17639,-0.07937 0.17639,-0.176389 z M 13.473499,44.314598 c 0,-0.09701 0.0794,-0.176388 0.17639,-0.176388 0.097,0 0.17638,0.07937 0.17638,0.176388 0,0.09701 -0.0794,0.176389 -0.17638,0.176389 -0.097,0 -0.17639,-0.07937 -0.17639,-0.176389 z M 121.77627,44.159029 c 0,-0.182576 0.15875,-0.43007 0.35277,-0.549986 0.19403,-0.119916 0.35278,0.02946 0.35278,0.331958 0,0.302492 -0.15875,0.549986 -0.35278,0.549986 -0.19402,0 -0.35277,-0.149381 -0.35277,-0.331958 z M 13.914469,43.889243 c -1.03172,-0.198718 -1.01344,-1.001933 0.0385,-1.691181 1.04517,-0.684827 1.98998,-0.349904 1.98998,0.705425 0,0.624121 -0.8323,1.464428 -1.17538,1.186681 -0.0326,-0.02642 -0.41653,-0.11684 -0.85309,-0.200925 z m 0.97014,-0.632978 c 0,-0.09701 -0.0794,-0.176389 -0.17639,-0.176389 -0.097,0 -0.17639,0.07937 -0.17639,0.176389 0,0.09701 0.0794,0.176389 0.17639,0.176389 0.097,0 0.17639,-0.07937 0.17639,-0.176389 z m -0.70556,-0.705555 c 0,-0.09701 -0.0794,-0.176389 -0.17639,-0.176389 -0.097,0 -0.17639,0.07938 -0.17639,0.176389 0,0.09701 0.0794,0.176389 0.17639,0.176389 0.097,0 0.17639,-0.07937 0.17639,-0.176389 z m 26.45904,-6.172853 c -1.26715,-1.356487 -1.33972,-2.305867 -0.25314,-3.311693 1.1738,-1.086567 2.94328,-1.168806 3.99002,-0.185442 0.84033,0.789449 1.17555,2.438044 0.49575,2.438044 -0.19403,0 -0.35278,0.170089 -0.35278,0.377976 0,0.591234 -0.88368,1.328634 -1.89696,1.582951 -0.74702,0.187492 -1.12654,0.01488 -1.98289,-0.901836 z M 143.03113,157.93417 c 0.33954,-0.15236 0.61736,-0.44149 0.61736,-0.64253 0,-0.53981 -2.10941,-2.30659 -7.03284,-5.89054 -5.0405,-3.66916 -5.77224,-3.86448 -7.60635,-2.03037 -2.61685,2.61684 -2.47906,7.32579 0.25029,8.55395 0.91489,0.41169 2.42584,0.49702 7.15695,0.40418 3.29847,-0.0647 6.27504,-0.24233 6.61459,-0.39469 z m -169.459611,-7.74124 c 1.93411,-2.43386 6.09002,-8.75095 5.88921,-8.95175 -0.072,-0.0721 -0.74099,0.19592 -1.48653,0.5955 -2.44067,1.30812 -3.89903,0.73444 -4.9184,-1.93476 -0.52505,-1.3748 -0.58219,-2.38354 -0.39971,-7.05614 0.11711,-2.99861 0.14411,-5.45202 0.06,-5.45202 -0.36752,0 -1.98664,3.718 -2.71779,6.24088 -0.7117,2.45574 -0.798,3.52124 -0.79462,9.81051 0.003,4.69709 0.15441,7.5565 0.45439,8.5542 0.44846,1.49151 0.45476,1.49592 1.32312,0.92695 0.47988,-0.31443 1.64553,-1.54445 2.59033,-2.73337 z m 173.081711,-0.35314 c 0.97351,-0.30382 2.07877,-0.77817 2.45613,-1.0541 0.58423,-0.4272 0.61602,-0.58614 0.2141,-1.07042 -0.85848,-1.03441 -7.78133,-5.90392 -8.81483,-6.20032 -2.84787,-0.81676 -4.90655,3.26328 -3.32657,6.59284 0.95205,2.00629 2.31346,2.64358 5.2317,2.44904 1.3582,-0.0905 3.26596,-0.41321 4.23947,-0.71704 z m 38.94064,-10.99839 c 0.045,-1.378 -0.51665,-1.92264 -1.98283,-1.92264 h -1.17134 l 0.76371,1.4993 c 0.42004,0.82462 1.01453,1.88302 1.32109,2.352 l 0.55737,0.8527 0.23842,-0.8527 c 0.13113,-0.46898 0.25424,-1.33688 0.27358,-1.92866 z m -5.29511,-0.0706 c -1.72073,-3.03855 -1.87073,-3.26319 -2.17895,-3.26319 -0.55457,0 -2.04987,1.77608 -1.8151,2.15595 0.27881,0.45113 4.42463,3.12743 4.8523,3.13236 0.15976,0.002 -0.22645,-0.90946 -0.85825,-2.02512 z M -32.226541,123.1822 c 2.21026,-0.98051 4.42759,-1.93822 4.9274,-2.12825 0.63737,-0.24232 0.90875,-0.60527 0.90875,-1.21536 0,-0.47842 -0.14051,-0.9567 -0.31225,-1.06284 -0.17174,-0.10614 -0.68768,-1.66332 -1.14653,-3.4604 -0.76205,-2.98454 -0.83427,-3.99281 -0.83427,-11.64594 0,-4.608178 -0.1323,-8.37849 -0.294,-8.378467 -0.1617,2.2e-5 -1.59045,0.333903 -3.175,0.741958 -4.93913,1.271928 -11.6328,0.579331 -13.17306,-1.363021 -0.26763,-0.337491 -1.11308,-1.831952 -1.87879,-3.321025 -1.45543,-2.830375 -2.43463,-3.818982 -3.78265,-3.818982 -0.71421,0 -0.80345,0.172211 -0.80345,1.550561 0,0.934983 0.42017,2.537926 1.05834,4.037607 0.58208,1.367875 1.05833,2.575123 1.05833,2.682772 0,0.416391 -2.20708,0.16802 -3.28071,-0.369192 -0.62096,-0.310704 -2.71651,-2.114897 -4.65679,-4.009316 -1.94028,-1.894419 -3.79016,-3.534303 -4.11085,-3.644185 -0.32069,-0.109883 -0.85906,0.002 -1.19638,0.248677 -1.07439,0.78561 -0.40381,2.687077 1.68389,4.774774 1.36448,1.364479 1.70914,1.902486 1.35788,2.119583 -0.25892,0.16002 -0.36168,0.467444 -0.22836,0.683165 0.14788,0.239268 -0.0409,0.39222 -0.48397,0.39222 -0.39951,0 -0.72638,-0.168119 -0.72638,-0.373598 0,-0.205479 -0.14237,-0.285605 -0.31638,-0.178059 -0.17402,0.107546 -1.08392,-0.43871 -2.02201,-1.213903 -0.93809,-0.775192 -1.85395,-1.40944 -2.03525,-1.40944 -0.1813,0 -1.50758,-0.734178 -2.94728,-1.631507 -3.15654,-1.967386 -4.90971,-2.463915 -5.81308,-1.646373 -0.85787,0.776359 -0.78225,1.823355 0.24037,3.328276 0.84301,1.240598 4.51325,4.369648 6.10266,5.202798 0.86356,0.452666 1.06504,1.096805 0.34308,1.096805 -0.24787,0 -0.80196,0.246052 -1.23131,0.546783 -0.72159,0.505419 -0.74042,0.608169 -0.24892,1.358289 0.65332,0.99709 3.25117,2.432 5.70939,3.15354 2.61665,0.76805 4.3354,1.64559 4.3354,2.21353 0,0.27462 -0.38661,0.5083 -0.88194,0.53307 -0.48507,0.0243 -1.0407,0.0838 -1.23473,0.13229 -0.19402,0.0485 -0.67027,0.10804 -1.05833,0.13229 -0.49657,0.031 -0.70555,0.29398 -0.70555,0.88774 0,1.39118 2.16816,2.02672 6.66658,1.95412 4.17331,-0.0674 5.5247,0.16759 5.8507,1.01713 0.27177,0.70822 -0.69007,1.47677 -1.84818,1.47677 -1.85203,0 -2.91204,1.37488 -1.58508,2.05591 0.33955,0.17427 2.66582,0.41591 5.16949,0.53699 2.50367,0.12109 4.64118,0.3092 4.75002,0.41805 0.53695,0.53695 -0.83419,1.48925 -3.3207,2.30632 -3.01942,0.99218 -3.7771,1.6632 -2.97258,2.63259 0.85948,1.03561 3.8353,0.48067 8.58553,-1.60107 4.4215,-1.93767 5.60482,-2.07677 6.99148,-0.82187 1.33642,1.20944 0.5346,2.57182 -2.44636,4.15662 -2.03424,1.08149 -2.71254,2.10821 -1.79853,2.7224 0.80234,0.53915 2.61758,0.0592 6.81036,-1.80083 z m -9.33329,-18.18983 c 0,-0.097 0.0794,-0.17639 0.17639,-0.17639 0.097,0 0.17639,0.0794 0.17639,0.17639 0,0.097 -0.0794,0.17639 -0.17639,0.17639 -0.097,0 -0.17639,-0.0794 -0.17639,-0.17639 z m -0.33594,-0.86407 c -0.28177,-0.17825 -0.67865,-0.22974 -0.88194,-0.11443 -0.20329,0.11532 -0.24647,0.0743 -0.0959,-0.0912 0.48631,-0.53457 1.54901,-0.51912 1.54901,0.0225 0,0.28489 -0.0132,0.51555 -0.0294,0.51258 -0.0162,-0.003 -0.25995,-0.15124 -0.54173,-0.3295 z m -6.46921,-3.12961 c 0.26075,-0.16114 0.30235,-0.44524 0.11064,-0.75545 -0.24605,-0.398099 -0.41181,-0.410404 -0.83192,-0.0618 -0.35545,0.295 -0.59838,0.31613 -0.75326,0.0655 -0.12574,-0.20344 -0.0511,-0.369903 0.1658,-0.369903 0.21693,0 0.31304,-0.131677 0.21357,-0.292617 -0.15183,-0.245671 0.97391,-0.280368 1.55032,-0.04778 0.097,0.03915 0.29362,0.05298 0.43691,0.03075 0.14328,-0.02223 0.23032,0.324474 0.19341,0.77046 -0.0445,0.53734 -0.30936,0.82912 -0.78524,0.86497 -0.43444,0.0327 -0.55304,-0.0479 -0.30023,-0.20418 z m -11.18652,-5.17854 c 0,-0.09701 0.0794,-0.176389 0.17639,-0.176389 0.097,0 0.17639,0.07937 0.17639,0.176389 0,0.09701 -0.0794,0.176389 -0.17639,0.176389 -0.097,0 -0.17639,-0.07937 -0.17639,-0.176389 z M 193.74293,95.114594 c 0,-0.09701 -0.0794,-0.176389 -0.17639,-0.176389 -0.097,0 -0.17639,0.07937 -0.17639,0.176389 0,0.09701 0.0794,0.176389 0.17639,0.176389 0.097,0 0.17639,-0.07938 0.17639,-0.176389 z M -33.189801,89.603416 c 2.98066,-1.611596 3.50639,-1.78449 4.86145,-1.598759 l 1.51937,0.208253 0.59027,-2.722769 c 0.32465,-1.497522 0.99312,-3.749012 1.48551,-5.003311 0.49238,-1.254299 1.13053,-3.079924 1.41812,-4.056944 0.64163,-2.179804 3.84259,-8.499832 4.71809,-9.315492 0.53818,-0.50139 0.57229,-0.72875 0.21538,-1.435729 -0.23323,-0.462 -0.66218,-0.884573 -0.95322,-0.93905 -0.29105,-0.05448 -0.92605,-0.185027 -1.41111,-0.290111 -3.10051,-0.671682 -2.82223,-0.401971 -2.82223,-2.735316 0,-3.457574 -1.43365,-5.603452 -2.87324,-4.300642 -0.71678,0.648681 -0.83385,2.395822 -0.33376,4.980912 0.15952,0.824618 0.26114,1.499306 0.22581,1.499306 -1.40401,0 -5.8841,-1.211302 -6.72019,-1.816971 -3.09658,-2.243168 -5.60686,-5.892984 -7.80832,-11.352884 -0.62928,-1.560692 -1.39925,-3.135564 -1.71105,-3.499715 -1.30995,-1.529916 -2.63786,0.1162 -2.64627,3.280407 -0.006,2.141748 0.19431,2.000843 -2.54498,1.792987 -0.32972,-0.02502 -2.30384,-1.79174 -4.38691,-3.926045 -2.08308,-2.134306 -4.0585,-3.880556 -4.38984,-3.880556 -1.03032,0 -1.09196,1.07207 -0.14971,2.603622 0.95072,1.545314 1.22575,2.026075 1.90784,3.334925 0.38654,0.741741 0.36723,0.788684 -0.19503,0.474026 -0.45747,-0.256012 -0.72855,-0.206361 -1.01544,0.185991 -0.34877,0.476964 -0.44639,0.477323 -0.89667,0.0033 -5.26874,-5.54666 -7.25513,-7.11385 -9.72183,-7.670181 -2.49747,-0.563273 -2.92485,2.123536 -0.80357,5.051874 0.57623,0.795464 1.95523,2.468263 3.06446,3.717331 3.30752,3.724528 3.29703,3.898282 -0.1977,3.27374 -2.61259,-0.466896 -3.60637,-0.290583 -3.60637,0.639831 0,0.852586 2.19815,1.966679 5.29167,2.681987 2.68148,0.620034 5.05743,1.892846 5.67001,3.037453 0.55244,1.032253 -0.76122,1.44023 -4.2051,1.305955 -2.85627,-0.111363 -3.05908,-0.07242 -3.15614,0.606009 -0.19635,1.372506 0.90651,1.834462 5.39539,2.259961 5.5996,0.530783 5.77152,0.576272 6.02714,1.594739 0.11938,0.475644 0.34405,0.830414 0.49926,0.788377 0.15522,-0.04204 0.32121,0.08232 0.36887,0.276347 0.12826,0.522169 -2.19082,0.838011 -6.3661,0.867016 -2.03729,0.01415 -3.93054,0.168996 -4.20721,0.344097 -0.78975,0.499811 -0.78255,1.632107 0.015,2.353846 0.64288,0.581802 1.45714,0.67082 6.95808,0.760687 7.64548,0.124902 8.30403,0.223505 9.21333,1.379491 1.43502,1.824339 0.68374,2.419726 -3.54979,2.813191 -1.82381,0.169506 -2.54875,0.388981 -2.79314,0.845627 -0.26874,0.502143 -0.10087,0.72546 0.90365,1.202135 1.33993,0.635839 4.53288,1.246665 6.53366,1.249921 0.69052,0.0011 1.55752,0.222893 1.92667,0.49282 0.64985,0.475183 0.6389,0.537346 -0.34463,1.95659 -0.94006,1.356494 -0.97282,1.508814 -0.43926,2.042371 0.53356,0.533558 0.71595,0.506031 2.4456,-0.36909 1.02797,-0.520106 2.2866,-0.945648 2.79695,-0.945648 1.36131,0 5.58835,1.376502 5.58835,1.819802 0,0.392222 -2.10783,2.397867 -2.53057,2.407896 -0.69316,0.01645 -2.40832,1.927105 -2.40832,2.682828 0,1.402617 1.73933,1.102762 5.54781,-0.956427 z m -2.37281,-18.809666 c 0,-0.785605 0.55246,-0.941974 0.6104,-0.172769 0.0282,0.374613 -0.0976,0.681115 -0.27955,0.681115 -0.18197,0 -0.33085,-0.228756 -0.33085,-0.508346 z m 1.05833,-0.726376 c 0,-0.09701 0.0794,-0.176389 0.17639,-0.176389 0.097,0 0.17639,0.07937 0.17639,0.176389 0,0.09701 -0.0794,0.176389 -0.17639,0.176389 -0.097,0 -0.17639,-0.07938 -0.17639,-0.176389 z m -7.90324,-2.590409 c -0.11804,-0.190994 0.23993,-0.306724 0.82374,-0.266306 0.89401,0.06189 0.98686,-0.01381 0.6922,-0.564374 -0.18716,-0.34972 -0.51992,-0.635855 -0.73946,-0.635855 -0.21954,0 -0.32608,-0.07308 -0.23677,-0.162397 0.0893,-0.08932 0.52099,-0.06862 0.95926,0.04599 1.16096,0.303598 0.89494,1.667863 -0.35338,1.812323 -0.51526,0.05963 -1.03077,-0.04359 -1.14559,-0.229377 z m -0.21065,-1.134577 c 0,-0.205479 0.15875,-0.275485 0.35278,-0.155569 0.19403,0.119916 0.35278,0.288035 0.35278,0.373598 0,0.08556 -0.15875,0.155569 -0.35278,0.155569 -0.19403,0 -0.35278,-0.168119 -0.35278,-0.373598 z m -6.72976,-8.475244 c -0.0148,-0.08084 -0.0794,-0.41988 -0.14357,-0.753412 -0.0641,-0.333531 0.0671,-0.571656 0.29157,-0.529167 0.22449,0.04249 0.36847,-0.121183 0.31996,-0.363718 -0.0485,-0.242534 0.17453,-0.440972 0.49565,-0.440972 0.53369,0 0.53585,0.05303 0.0251,0.617361 -0.30729,0.339549 -0.55679,0.749653 -0.55445,0.911343 0.004,0.308515 -0.38762,0.81279 -0.4343,0.558565 z m 0.37977,-0.499769 c 0,-0.09701 -0.0794,-0.176389 -0.17639,-0.176389 -0.097,0 -0.17639,0.07938 -0.17639,0.176389 0,0.09701 0.0794,0.176389 0.17639,0.176389 0.097,0 0.17639,-0.07937 0.17639,-0.176389 z m 0.89701,0.200765 c -0.11163,-0.18062 -0.0681,-0.411762 0.0968,-0.513648 0.16485,-0.101886 0.29973,0.0459 0.29973,0.328401 0,0.594843 -0.11124,0.646815 -0.3965,0.185247 z m -7.77618,-6.021598 c -0.11992,-0.194027 -0.0499,-0.352777 0.15557,-0.352777 0.20548,0 0.3736,0.15875 0.3736,0.352777 0,0.194028 -0.07,0.352778 -0.15557,0.352778 -0.0856,0 -0.25368,-0.15875 -0.3736,-0.352778 z M 145.41238,66.892374 c 0,-0.09701 -0.0794,-0.176388 -0.17639,-0.176388 -0.097,0 -0.17639,0.07937 -0.17639,0.176388 0,0.09701 0.0794,0.176389 0.17639,0.176389 0.097,0 0.17639,-0.07937 0.17639,-0.176389 z m 1.05833,-0.881944 c 0,-0.194028 -0.07,-0.352778 -0.15557,-0.352778 -0.0856,0 -0.25368,0.15875 -0.3736,0.352778 -0.11991,0.194028 -0.0499,0.352778 0.15557,0.352778 0.20548,0 0.3736,-0.15875 0.3736,-0.352778 z M -30.799861,56.896121 c -0.31482,-3.359518 -0.65955,-4.291245 -1.58775,-4.291245 -1.98988,0 -1.48191,5.8384 0.60982,7.00899 1.0443,0.584418 1.23714,0.04848 0.97793,-2.717745 z m 199.038941,1.361728 c 0.96799,-1.8305 1.09796,-4.60847 0.25504,-5.451386 -1.24876,-1.24876 -1.87509,-0.301016 -2.14907,3.251919 -0.33422,4.334081 0.34693,5.125075 1.89403,2.199467 z M -22.650011,47.704087 c 3.55942,-4.415221 8.74372,-9.431391 13.2454603,-12.815907 6.08939,-4.578148 6.9018,-4.9761 9.99165003,-4.894318 2.39493997,0.06339 2.62816997,0.0033 3.29926997,-0.849854 0.75202,-0.956029 2.32762,-5.382877 2.72979,-7.669643 0.21276,-1.209782 0.37346,-1.362715 1.912,-1.819612 4.9900597,-1.481889 7.5125797,-1.781148 15.0871497,-1.789862 4.12279,-0.0047 7.49623,-0.127686 7.49653,-0.273207 3e-4,-0.145521 -0.2192,-0.264583 -0.48777,-0.264583 -1.1075,0 -6.25029,-2.916267 -7.09439,-4.022941 -1.00936,-1.323347 -1.1363,-2.868137 -0.33024,-4.0189539 0.62276,-0.8891143 3.10221,-2.2365601 5.35531,-2.9103241 0.82461,-0.2465926 1.4993,-0.5485154 1.4993,-0.6709396 0,-0.3444972 -7.23311,-2.7564403 -10.58333,-3.5291044 C 13.221309,0.73353253 8.1466893,0.29527393 -2.7542807,0.25542383 c -9.4177603,-0.034428 -10.5180603,0.022603 -11.5759703,0.6000115 -0.64297,0.35093057 -1.11128,0.82718047 -1.04071,1.05833317 0.24246,0.7941007 3.13972,1.9567602 5.4956403,2.2053791 1.2972,0.1368927 2.43792,0.3628215 2.53493,0.502064 0.097,0.1392425 2.31951,1.0104695 4.93889,1.9360601 7.68739,2.7164424 8.52947,3.260236 7.93738,5.1257593 -0.2975,0.937349 -0.68023,1.118701 -7.07371,3.351861 -5.57879,1.948598 -9.8648003,3.688502 -15.4231103,6.261 l -3.09416,1.432041 -0.85607,-0.804236 c -2.2149,-2.08079 -5.48299,0.216792 -5.003,3.517292 0.17165,1.180335 0.0927,1.289109 -1.79152,2.469444 -3.44928,2.160693 -10.53457,9.814303 -13.06329,14.11111 l -0.72665,1.234722 1.36868,1.533036 1.36868,1.533035 0.93985,-0.739285 c 1.91209,-1.50405 5.75392,-0.727908 7.96765,1.609655 1.09075,1.15176 2.38292,3.819089 2.3943,4.942345 0.0191,1.886339 0.4358,1.952069 1.43607,0.22653 0.54105,-0.933341 2.05772,-3.029213 3.37039,-4.657494 z m -7.15056,-4.859396 c 0.12935,-0.129352 0.34101,-0.129352 0.47037,0 0.12935,0.129352 0.0235,0.235185 -0.23519,0.235185 -0.2587,0 -0.36454,-0.105833 -0.23518,-0.235185 z m -1.88148,-0.293981 c 0,-0.09701 0.0794,-0.176389 0.17638,-0.176389 0.097,0 0.17639,0.07938 0.17639,0.176389 0,0.09701 -0.0794,0.176389 -0.17639,0.176389 -0.097,0 -0.17638,-0.07937 -0.17638,-0.176389 z m 3.17499,0 c 0,-0.09701 0.0794,-0.176389 0.17639,-0.176389 0.097,0 0.17639,0.07938 0.17639,0.176389 0,0.09701 -0.0794,0.176389 -0.17639,0.176389 -0.097,0 -0.17639,-0.07937 -0.17639,-0.176389 z m -4.4434,-0.936452 c -0.15596,-0.252342 -0.0968,-0.311525 0.15556,-0.155569 0.22401,0.138444 0.40729,0.321722 0.40729,0.407285 0,0.294266 -0.31152,0.15495 -0.56285,-0.251716 z m -1.20104,-2.238548 c 0,-0.09701 0.0794,-0.176389 0.17639,-0.176389 0.097,0 0.17639,0.07937 0.17639,0.176389 0,0.09701 -0.0794,0.176389 -0.17639,0.176389 -0.097,0 -0.17639,-0.07937 -0.17639,-0.176389 z m 8.11389,-0.176389 c 0,-0.258704 0.10583,-0.364537 0.23518,-0.235185 0.12936,0.129352 0.12936,0.341018 0,0.47037 -0.12935,0.129352 -0.23518,0.02352 -0.23518,-0.235185 z m -4.58611,-4.056944 c 0,-0.09701 0.0794,-0.176389 0.17639,-0.176389 0.097,0 0.17639,0.07937 0.17639,0.176389 0,0.09701 -0.0794,0.176389 -0.17639,0.176389 -0.097,0 -0.17639,-0.07937 -0.17639,-0.176389 z m 3.70416,-3.704166 c 0.35119,-0.388056 0.7179,-0.705556 0.81491,-0.705556 0.097,0 -0.11094,0.3175 -0.46213,0.705556 -0.35118,0.388055 -0.71789,0.705555 -0.81491,0.705555 -0.097,0 0.11095,-0.3175 0.46213,-0.705555 z m 2.46945,-2.116667 c 0.11991,-0.194028 0.2974,-0.352778 0.39442,-0.352778 0.097,0 0.0783,0.15875 -0.0416,0.352778 -0.11992,0.194028 -0.29741,0.352778 -0.39442,0.352778 -0.097,0 -0.0783,-0.15875 0.0416,-0.352778 z m 5.82083,-2.998611 c 0,-0.09701 0.0794,-0.176389 0.17639,-0.176389 0.097,0 0.17639,0.07937 0.17639,0.176389 0,0.09701 -0.0794,0.176389 -0.17639,0.176389 -0.097,0 -0.17639,-0.07938 -0.17639,-0.176389 z m 0.70556,-1.058333 c 0,-0.09701 0.0794,-0.176389 0.17639,-0.176389 0.097,0 0.17639,0.07938 0.17639,0.176389 0,0.09701 -0.0794,0.176389 -0.17639,0.176389 -0.097,0 -0.17639,-0.07938 -0.17639,-0.176389 z m 2.11666,-1.411111 c 0,-0.09701 0.0794,-0.176389 0.17639,-0.176389 0.097,0 0.17639,0.07938 0.17639,0.176389 0,0.09701 -0.0794,0.176389 -0.17639,0.176389 -0.097,0 -0.17639,-0.07938 -0.17639,-0.176389 z m 1.05834,-0.705556 c 0,-0.09701 0.0794,-0.176388 0.17639,-0.176388 0.097,0 0.17638,0.07938 0.17638,0.176388 0,0.09701 -0.0794,0.176389 -0.17638,0.176389 -0.097,0 -0.17639,-0.07938 -0.17639,-0.176389 z m 1.76389,-1.058333 c 0,-0.09701 0.0794,-0.176389 0.17638,-0.176389 0.097,0 0.17639,0.07937 0.17639,0.176389 0,0.09701 -0.0794,0.176389 -0.17639,0.176389 -0.097,0 -0.17638,-0.07937 -0.17638,-0.176389 z m 0.70555,-0.352778 c 0,-0.09701 0.0794,-0.176388 0.17639,-0.176388 0.097,0 0.17639,0.07938 0.17639,0.176388 0,0.09701 -0.0794,0.176389 -0.17639,0.176389 -0.097,0 -0.17639,-0.07938 -0.17639,-0.176389 z m 1.05833,-0.705555 c 0,-0.09701 0.0794,-0.176389 0.17639,-0.176389 0.097,0 0.17639,0.07938 0.17639,0.176389 0,0.09701 -0.0794,0.176389 -0.17639,0.176389 -0.097,0 -0.17639,-0.07938 -0.17639,-0.176389 z m 0.70556,-0.352778 c 0,-0.09701 0.0794,-0.176389 0.17639,-0.176389 0.097,0 0.17639,0.07937 0.17639,0.176389 0,0.09701 -0.0794,0.176389 -0.17639,0.176389 -0.097,0 -0.17639,-0.07937 -0.17639,-0.176389 z M -4.9370907,4.0333363 c 0.25466,-0.1019071 0.55893,-0.089374 0.67616,0.027851 0.11722,0.1172251 -0.0911,0.2006037 -0.46303,0.1852857 -0.41096,-0.016928 -0.49455,-0.1005206 -0.21313,-0.2131367 z m 2.88837,-0.2881791 c 0,-0.097014 0.0794,-0.1763889 0.17638,-0.1763889 0.097,0 0.17639,0.079375 0.17639,0.1763889 0,0.097014 -0.0794,0.1763888 -0.17639,0.1763888 -0.097,0 -0.17638,-0.079375 -0.17638,-0.1763888 z M 192.33182,50.840987 c 0,-0.194028 -0.07,-0.352778 -0.15557,-0.352778 -0.0856,0 -0.25368,0.15875 -0.3736,0.352778 -0.11992,0.194028 -0.0499,0.352778 0.15557,0.352778 0.20548,0 0.3736,-0.15875 0.3736,-0.352778 z M -0.63761067,47.489598 c 0,-0.09701 -0.0794,-0.176389 -0.17639,-0.176389 -0.097,0 -0.17639,0.07937 -0.17639,0.176389 0,0.09701 0.0794,0.176389 0.17639,0.176389 0.097,0 0.17639,-0.07938 0.17639,-0.176389 z M 186.68737,45.725709 c 0,-0.09701 -0.0794,-0.176388 -0.17639,-0.176388 -0.097,0 -0.17639,0.07937 -0.17639,0.176388 0,0.09701 0.0794,0.176389 0.17639,0.176389 0.097,0 0.17639,-0.07937 0.17639,-0.176389 z m -19.90421,-9.200827 c 2.49391,-1.394671 2.88195,-1.78894 2.31684,-2.354042 -0.5924,-0.592401 -2.86332,0.60468 -4.21657,2.222702 -0.64155,0.767068 -0.98484,1.394668 -0.76288,1.394668 0.22196,0 1.42014,-0.568498 2.66261,-1.263328 z M 149.83088,20.484659 c 1.16264,-2.308695 1.54812,-3.863114 0.95802,-3.863114 -0.45407,0 -1.19055,1.426785 -2.06771,4.005733 -0.96281,2.830762 -0.95941,2.812871 -0.47781,2.515227 0.19886,-0.122901 0.91323,-1.318932 1.5875,-2.657846 z M 117.89571,22.0896 c 0,-0.09701 -0.0794,-0.176389 -0.17639,-0.176389 -0.097,0 -0.17639,0.07937 -0.17639,0.176389 0,0.09701 0.0794,0.176389 0.17639,0.176389 0.097,0 0.17639,-0.07937 0.17639,-0.176389 z m 0.30605,-4.450312 c 0.006,-1.186491 0.0979,-2.244824 0.20491,-2.351851 0.10703,-0.107028 0.1946,0.731446 0.1946,1.863275 0,1.131828 0.0687,1.989193 0.15261,1.905256 0.32362,-0.323618 1.59733,-7.734955 1.97151,-11.4715994 0.216,-2.1570444 0.34237,-6.1470734 0.28083,-8.8667307 -0.10206,-4.509901 -0.0509,-5.012566 0.58152,-5.714916 0.58319,-0.647673 1.00236,-0.752309 2.63705,-0.658268 l 1.94364,0.111815 0.32919,-1.763888 c 0.43059,-2.3072409 -0.20484,-9.1352059 -1.18861,-12.7721419 -0.76896,-2.842783 -2.34866,-6.133148 -3.05266,-6.358393 -0.49625,-0.158775 -1.02521,2.02147 -1.73132,7.136091 -0.29844,2.161723 -0.85708,4.54465 -1.26122,5.379861 -0.63825,1.319029 -0.86691,1.499305 -1.90167,1.499305 -1.82868,0 -3.09733,-1.362771 -7.4219,-7.97252 -2.17533,-3.324832 -4.13913,-6.15885 -4.36398,-6.297817 -0.58534,-0.361759 -0.2071,1.046554 1.46399,5.450893 4.5163,11.903241 7.82148,22.30181493 8.74614,27.5166648 0.22363,1.2611804 0.54238,2.6899303 0.70834,3.1749997 0.55433,1.6201622 1.49777,11.4789885 1.15625,12.0826375 -0.0823,0.145521 0.006,0.264584 0.19539,0.264584 0.18979,0 0.34971,-0.970766 0.35539,-2.157257 z m 0.0467,-31.533018 c 0,-0.09701 0.0794,-0.176389 0.17639,-0.176389 0.097,0 0.17639,0.07937 0.17639,0.176389 0,0.09701 -0.0794,0.176389 -0.17639,0.176389 -0.097,0 -0.17639,-0.07938 -0.17639,-0.176389 z m 0.70555,-0.705556 c 0,-0.09701 0.0794,-0.176389 0.17639,-0.176389 0.097,0 0.17639,0.07938 0.17639,0.176389 0,0.09701 -0.0794,0.176389 -0.17639,0.176389 -0.097,0 -0.17639,-0.07937 -0.17639,-0.176389 z M 86.148919,15.034045 c 0.0831,1.021229 0.57037,-0.658015 1.48421,-5.1152772 0.69832,-3.4060789 0.7613,-4.8140638 0.78254,-17.4962409 0.0252,-15.0262129 0.0454,-15.1814639 1.91555,-14.7261109 3.36742,0.819899 10.570671,8.854825 15.381161,17.1570389 0.53909,0.930396 1.04194,1.62985 1.11745,1.554342 0.24209,-0.242093 -1.85256,-6.331971 -3.11858,-9.0668049 -2.5191,-5.441676 -5.367461,-8.766763 -11.128351,-12.990866 -6.94292,-5.09082 -17.89508,-10.245811 -27.14598,-12.777138 -1.59143,-0.435464 -2.86143,-0.953185 -2.82222,-1.150491 0.0392,-0.197306 -0.72246,-0.412608 -1.6926,-0.478449 -0.97013,-0.06584 -2.52576,-0.278463 -3.45694,-0.472493 -2.40168,-0.500437 -5.28904,-0.436871 -6.06922,0.133615 -0.62961,0.460381 -0.6335,0.534768 -0.0727,1.390676 0.32588,0.497354 1.02227,1.191287 1.54753,1.542075 1.87732,1.253737 10.46022,9.871716 13.16666,13.220466 6.05807,7.495816 8.94111,12.734855 13.78245,25.04537963 0.66097,1.68070717 1.34978,2.96435247 1.53069,2.85254507 0.18145,-0.1121422 0.22963,0.055457 0.10747,0.3738118 -0.1218,0.3174039 -0.0485,1.0731202 0.1628,1.6793696 0.29178,0.837004 0.46486,0.9879674 0.7192,0.6273011 0.23054,-0.3269117 0.27044,-0.1783772 0.128,0.4764963 -0.1197,0.5503143 0.0747,1.7402048 0.46115,2.822222 0.36746,1.0289155 1.04307,3.0918785 1.50134,4.5843615 l 0.83323,2.713607 0.41386,-1.302496 c 0.26835,-0.844562 0.43405,-1.054435 0.47129,-0.59694 z m -0.88515,-1.234722 c 0.11991,-0.194028 0.2974,-0.352778 0.39442,-0.352778 0.097,0 0.0783,0.15875 -0.0416,0.352778 -0.11992,0.194028 -0.29741,0.352778 -0.39442,0.352778 -0.097,0 -0.0783,-0.15875 0.0416,-0.352778 z m -2.88102,-8.3490734 c 0.12935,-0.1293518 0.34102,-0.1293518 0.47037,0 0.12935,0.1293519 0.0235,0.2351852 -0.23518,0.2351852 -0.25871,0 -0.36454,-0.1058333 -0.23519,-0.2351852 z m 1.22737,-4.59191297 c 0.25466,-0.1019071 0.55894,-0.089374 0.67616,0.027851 0.11723,0.11722507 -0.0911,0.20060357 -0.46302,0.18528567 -0.41097,-0.016928 -0.49456,-0.10052057 -0.21314,-0.21313667 z m 1.12448,-0.4645681 c 0,-0.2587036 0.10584,-0.364537 0.23519,-0.2351851 0.12935,0.1293518 0.12935,0.3410185 0,0.4703703 -0.12935,0.1293518 -0.23519,0.023518 -0.23519,-0.2351852 z m -0.94074,-0.2351851 c 0.12935,-0.1293519 0.34102,-0.1293519 0.47037,0 0.12935,0.1293518 0.0235,0.2351851 -0.23518,0.2351851 -0.25871,0 -0.36454,-0.1058333 -0.23519,-0.2351851 z m 2.70967,-0.2637434 c 0.22847,-0.2284651 0.46701,-0.2284651 0.69548,0 0.22846,0.2284656 0.10919,0.3477381 -0.34774,0.3477381 -0.45693,0 -0.5762,-0.1192725 -0.34774,-0.3477381 z M 83.877859,-14.624484 c -0.65583,-0.655826 -0.73625,-2.148433 -0.12671,-2.351613 1.39174,-0.463916 2.9797,0.912562 2.56395,2.222488 -0.26586,0.837659 -1.65511,0.911261 -2.43724,0.129125 z m -22.42659,-19.377578 c 0,-0.09701 0.0794,-0.176389 0.17639,-0.176389 0.097,0 0.17639,0.07937 0.17639,0.176389 0,0.09701 -0.0794,0.176389 -0.17639,0.176389 -0.097,0 -0.17639,-0.07937 -0.17639,-0.176389 z m 1.05833,-0.352778 c 0,-0.09701 0.0794,-0.176389 0.17639,-0.176389 0.097,0 0.17639,0.07937 0.17639,0.176389 0,0.09701 -0.0794,0.176389 -0.17639,0.176389 -0.097,0 -0.17639,-0.07937 -0.17639,-0.176389 z M 50.867939,4.1455101 c 0,-3.71505737 3.31114,-4.86695817 10.2218,-3.55602777 1.59028,0.3016704 3.03238,0.50010787 3.20466,0.44097217 0.17229,-0.059136 -0.73046,-1.26163557 -2.0061,-2.6722216 -4.50728,-4.984072 -12.89741,-9.6778209 -22.49709,-12.5857019 -5.19152,-1.572589 -12.12421,-2.723146 -15.61792,-2.591972 l -2.75635,0.103489 2.99564,1.683721 c 8.01404,4.504352 13.0498,10.2278139 13.0498,14.83192993 0,1.1214171 0.0481,1.1557405 2.50646,1.78903027 2.63136,0.6778559 7.51299,2.5076336 9.3116,3.4902607 1.50882,0.8243072 1.5875,0.7780399 1.5875,-0.9334798 z"
       id="path8" /></g></svg>
