<?xml version="1.0" encoding="UTF-8" standalone="no"?>
<!-- Created with Inkscape (http://www.inkscape.org/) -->

<svg
   width="264.32834mm"
   height="312.60922mm"
   viewBox="0 0 264.32835 312.60917"
   version="1.1"
   id="svg1"
   xml:space="preserve"
   xmlns="http://www.w3.org/2000/svg"
   xmlns:svg="http://www.w3.org/2000/svg"><defs
     id="defs1"><clipPath
       clipPathUnits="userSpaceOnUse"
       id="clipPath6"><path
         id="path7"
         style="fill:#ff0000;fill-opacity:1;fill-rule:nonzero;stroke:none;stroke-width:0.264583"
         d="M -175.07778,-16.057127 V 287.55793 H 124.54631 V -16.057127 Z m 132.7459,202.572647 c 0.210643,0.005 0.427212,0.0169 0.650089,0.0367 2.23823,0.19855 4.475655,0.4031 6.717938,0.55346 1.973313,0.11308 0.986628,0.0436 2.958475,0.20825 3.181295,0.26563 4.740125,1.85116 4.950601,3.46956 4.949923,1.63749 3.796379,7.35609 -2.592089,6.81354 -3.228716,-0.27422 -1.569593,-0.1301 -4.979024,-0.43357 -4.228209,-0.39317 -8.460616,-0.76265 -12.666927,-1.35341 -6.647387,-0.93358 -5.930551,-7.21034 0.03204,-7.20421 0.04685,5e-5 0.0972,0.004 0.144695,0.005 0.687229,-1.21692 2.304132,-2.15435 4.784204,-2.09548 z" /></clipPath></defs><g
     id="layer1"
     transform="translate(-114.63301,154.77149)"><path
       style="fill:#000000"
       d="m 270.31774,157.6408 c -7.17406,-1.17988 -10.72981,-3.86005 -15.3734,-11.58779 -4.57498,-7.61356 -8.07008,-9.61284 -12.84882,-7.34984 -2.03727,0.96476 -3.13327,2.08589 -6.00179,6.13945 -2.75521,3.89343 -7.6133,8.54377 -10.38948,9.94518 -7.31491,3.69255 -20.70096,3.65808 -28.03284,-0.0722 -2.29871,-1.16952 -4.95245,-3.95524 -6.0675,-6.36923 -0.93324,-2.02041 -1.01096,-2.50397 -0.97657,-6.07567 0.0539,-5.5964 1.70015,-11.08569 6.22707,-20.76347 1.65452,-3.53708 2.018,-4.59974 1.6509,-4.82661 -0.30765,-0.19014 -0.74158,10e-4 -1.25255,0.55267 -2.02605,2.18614 -3.98757,1.3023 -7.02186,-3.16397 l -2.12296,-3.12486 -4.22704,-0.0594 c -4.59008,-0.0645 -5.83789,-0.4191 -6.48693,-1.84358 -0.56254,-1.23464 -0.005,-3.0168 1.84433,-5.89031 l 1.53143,-2.38018 -1.1753,-1.175293 c -1.63011,-1.630112 -1.54528,-3.315151 0.26744,-5.31226 0.6315,-0.695735 0.626,-0.787453 -0.20373,-3.400304 -2.09843,-6.607995 -1.68697,-15.163272 1.0208,-21.224928 1.6696,-3.737589 5.24393,-7.562838 8.34533,-8.931174 0.76412,-0.33713 1.38931,-0.710009 1.38931,-0.82862 0,-0.227008 -7.87952,-3.529116 -8.42121,-3.529116 -0.17296,0 -0.48647,0.674688 -0.6967,1.499306 -0.21023,0.824618 -1.11618,3.80118 -2.01323,6.614583 -4.31995,13.54867 -6.25381,19.874142 -7.06437,23.106942 -1.30082,5.188136 -1.9167,6.962785 -2.72405,7.849305 -1.45083,1.593101 -3.4305,0.589313 -4.44166,-2.252133 -1.36919,-3.847578 -6.24825,-14.363215 -10.37189,-22.354115 -9.84729,-19.082367 -13.10157,-26.415869 -16.35915,-36.865275 -2.68813,-8.622756 -3.76501,-13.317406 -4.93624,-21.519442 -0.65406,-4.5803105 -0.86771,-16.4584346 -0.37331,-20.7544029 0.1674,-1.4545934 0.14855,-2.3303601 -0.0475,-2.2091651 -0.17869,0.110438 -1.79054,3.1792943 -3.58187,6.8196819 -3.98342,8.0951557 -4.55007,8.9119419 -6.18276,8.9119419 -1.80067,0 -2.32694,-1.0705471 -2.74298,-5.57981169 -0.38188,-4.13904641 0.0575,-12.36219311 0.99304,-18.58546411 1.99199,-13.250638 7.18172,-26.323919 14.49053,-36.502594 1.27918,-1.781454 2.26513,-3.299651 2.19101,-3.37377 -0.19168,-0.191682 -11.42359,6.32842 -15.62733,9.071636 -1.94028,1.266158 -3.87453,2.484259 -4.29834,2.70689 -1.29763,0.681664 -2.50926,0.489196 -3.15854,-0.501738 -0.5581,-0.851773 -0.5562,-1.027549 0.0315,-2.910417 0.96564,-3.093481 5.17854,-11.145111 8.29993,-15.862683 12.26789,-18.541317 30.66479,-33.90836 52.74762,-44.06043 16.0089,-7.35972 36.54356,-11.36987 52.91259,-10.33315 10.28256,0.65124 17.28432,1.98169 26.5506,5.04507 1.4067,0.46504 2.55764,0.71224 2.55764,0.54934 0,-0.68554 -8.66294,-14.66273 -15.97017,-25.76702 -5.46215,-8.30047 -6.25483,-9.72246 -6.25483,-11.22068 0,-2.47497 2.36098,-3.18533 7.62979,-2.29561 10.33072,1.74451 25.15759,8.7841 34.84526,16.54403 3.03578,2.4317 7.07883,6.28766 10.13291,9.66402 l 2.33684,2.58344 0.15462,-2.13764 c 0.17766,-2.45613 1.1948,-3.91279 2.72943,-3.90886 4.52161,0.0116 11.13243,14.1245 12.25029,26.15222 0.12372,1.33125 0.32122,2.41364 0.43888,2.4053 0.11766,-0.008 1.40455,-1.54651 2.85976,-3.41817 3.59604,-4.62517 11.54343,-12.64201 13.23183,-13.34747 2.6635,-1.11288 3.84581,0.16193 4.94608,5.33308 0.80705,3.79306 0.8025,12.31989 -0.01,18.140996 -0.58496,4.192544 -0.58471,4.417326 0.005,4.762499 2.60643,1.525153 10.39209,6.893189 12.69465,8.752675 6.62834,5.35287 13.69987,13.243188 18.72235,20.890151 9.65996,14.707741 16.99387,35.814483 19.42875,55.9152728 0.84805,7.00095629 0.85916,20.3909872 0.0219,26.3507352 -1.99211,14.17943 -7.49182,25.860673 -16.00414,33.992388 -11.84137,11.311917 -27.84101,13.977885 -41.5716,6.92694 -4.2069,-2.160333 -8.06631,-6.160673 -10.16232,-10.533409 -0.86758,-1.809954 -1.7141,-3.634338 -1.88116,-4.054188 -0.29141,-0.732376 -0.44694,-0.668103 -3.83152,1.583399 -1.94027,1.290719 -5.87409,3.55031 -8.7418,5.021313 l -5.21403,2.674551 2.11781,1.69864 c 2.60305,2.087827 3.19497,2.958008 3.19497,4.696899 0,1.068904 -0.24163,1.58431 -1.14653,2.445642 -1.21554,1.157014 -5.85024,3.743523 -9.08403,5.069565 -2.72765,1.118499 -2.78754,1.27287 -0.65507,1.68852 1.03939,0.202591 3.63605,0.702663 5.77035,1.11127 4.22753,0.809349 6.88636,1.85422 9.0215,3.545279 1.36205,1.078764 1.39697,1.085635 3.40197,0.669398 5.52161,-1.146282 11.37614,1.476768 13.76458,6.167054 1.20283,2.362061 1.48762,6.124437 0.65603,8.666872 -0.56827,1.737402 -0.56384,1.827536 0.13837,2.813703 2.01202,2.825617 2.40678,7.970605 0.8656,11.281535 -1.11121,2.38724 -2.94061,4.65513 -4.5648,5.65894 -1.16571,0.72044 -1.23464,0.86999 -1.23464,2.67839 0,5.8707 -6.89617,11.43266 -14.17514,11.43266 -1.14219,0 -2.05264,0.15751 -2.05264,0.3551 0,0.19531 0.24997,1.98125 0.55549,3.96875 0.79016,5.14029 0.79265,11.52778 0.006,14.18192 -2.00795,6.77078 -6.6287,10.87243 -14.52573,12.89388 -3.12466,0.79984 -9.87364,1.18731 -12.67002,0.7274 z m 10.72,-8.30425 c 5.14627,-1.33354 8.15185,-3.23657 9.42285,-5.96623 0.75064,-1.61211 0.84091,-2.30135 0.84398,-6.44443 0.007,-9.65456 -3.08625,-22.14509 -8.72378,-35.22463 -2.62694,-6.094736 -4.52995,-9.779211 -10.41233,-20.159696 l -4.22723,-7.459692 -2.33952,0.671157 c -6.10673,1.751887 -14.22749,2.564903 -25.79924,2.582909 -8.44247,0.01314 -11.36777,-0.181492 -15.69861,-1.044471 l -1.05833,-0.210888 -0.99279,3.461728 c -2.23176,7.781942 -5.71804,16.137465 -13.3065,31.891533 -5.30333,11.01001 -6.55803,13.81492 -8.50756,19.0188 -2.63901,7.04431 -3.48206,11.95869 -2.46495,14.36895 1.17994,2.79614 5.80626,4.36756 13.54839,4.60195 7.95161,0.24074 12.33014,-1.16516 16.57822,-5.32307 2.02845,-1.9854 8.37435,-9.52007 8.37435,-9.9431 0,-0.0973 -0.27781,-0.1944 -0.61736,-0.21573 -0.33955,-0.0213 0.57326,-0.34179 2.02847,-0.71212 3.88708,-0.98922 9.79306,-0.95442 14.12022,0.0832 1.83825,0.4408 3.05997,0.86324 2.71492,0.93876 -0.51202,0.11206 -0.30867,0.486 1.10604,2.03392 0.95337,1.04314 2.6286,3.17416 3.72274,4.73561 2.51675,3.59167 5.30621,6.39023 7.36086,7.38487 3.75837,1.81939 9.46652,2.19019 14.32716,0.93067 z m -46.76212,-15.23854 c 0.12935,-0.12935 0.34102,-0.12935 0.47037,0 0.12935,0.12935 0.0235,0.23519 -0.23519,0.23519 -0.2587,0 -0.36453,-0.10584 -0.23518,-0.23519 z m 67.71868,-15.28985 c 2.62705,-0.98291 4.72338,-2.85517 5.20673,-4.65019 0.34469,-1.28008 0.28969,-1.62417 -0.50422,-3.1544 -0.78123,-1.50577 -0.81707,-1.71855 -0.29065,-1.72534 1.94969,-0.0252 5.65403,-2.73566 6.79486,-4.97188 1.38683,-2.71841 0.72935,-5.568068 -1.82642,-7.916119 l -1.55702,-1.430469 1.13644,-1.162424 c 2.02418,-2.070463 2.42111,-5.353804 0.89597,-7.411372 -1.38551,-1.869202 -4.84965,-3.178634 -7.101,-2.684154 -1.02295,0.224677 -1.03539,0.255693 -0.84451,2.105086 0.53788,5.21163 -2.61302,10.712243 -7.50314,13.098411 -1.87074,0.91284 -2.46244,1.02266 -5.53388,1.027094 -1.89155,0.0027 -3.43936,0.126027 -3.43959,0.273997 -2.2e-4,0.14797 0.8486,2.29109 1.88627,4.7625 1.80859,4.30751 3.64677,9.54019 4.45117,12.67103 0.4321,1.68178 0.64047,1.77818 3.96767,1.83568 1.59322,0.0275 2.98749,-0.19085 4.26132,-0.66745 z m -99.30907,-7.20481 c 0.64719,-1.31569 1.09428,-2.47459 0.99355,-2.57532 -0.10073,-0.10073 -0.78505,0.0558 -1.5207,0.34792 -0.73565,0.29208 -1.9758,0.63725 -2.75588,0.76704 -2.31259,0.38476 -2.59236,0.70836 -1.57104,1.81717 1.05042,1.1404 2.85761,2.30529 3.33337,2.14864 0.1892,-0.0623 0.87352,-1.18975 1.5207,-2.50545 z m -20.67255,-4.11646 c 0.39872,-0.21338 0.63734,-0.24624 0.53029,-0.073 -0.19454,0.31476 3.14957,0.25916 6.01853,-0.10006 1.66619,-0.20863 1.72411,-0.33467 0.97628,-2.1245 l -0.52303,-1.25178 -1.02395,0.72911 c -1.03484,0.73687 -4.27999,2.24254 -4.27999,1.98581 0,-0.0765 1.11125,-0.73922 2.46944,-1.47281 1.35819,-0.73359 2.46842,-1.49883 2.46717,-1.70054 -0.003,-0.46467 -2.77491,-3.718121 -3.16794,-3.718121 -0.28085,0 -4.5909,7.398071 -4.5909,7.880151 0,0.3313 0.29163,0.29129 1.1241,-0.15424 z m 0.99257,-0.49397 c 0,-0.097 0.0794,-0.17639 0.17639,-0.17639 0.097,0 0.17639,0.0794 0.17639,0.17639 0,0.097 -0.0794,0.17639 -0.17639,0.17639 -0.097,0 -0.17639,-0.0794 -0.17639,-0.17639 z m 16.22778,-3.16686 c 0,-3.53687 -0.0374,-3.72052 -0.86761,-4.264517 -0.98981,-0.64855 -2.79089,-0.42629 -3.8067,0.469767 -0.75693,0.6677 -0.78559,1.26755 -0.0882,1.84634 0.29104,0.24154 0.52412,0.61816 0.51794,0.83694 -0.006,0.21878 -0.24265,0.0919 -0.52552,-0.28203 -0.63071,-0.83366 -1.03503,-0.52113 -0.7441,0.57518 0.40238,1.51632 3.62745,4.51435 4.8562,4.51435 0.60025,0 0.65798,-0.32427 0.65798,-3.69603 z m -1.45611,2.72589 c -0.43881,-0.55952 -0.42633,-0.572 0.13319,-0.13319 0.33955,0.26629 0.61736,0.5441 0.61736,0.61736 0,0.29035 -0.28969,0.10347 -0.75055,-0.48417 z m -1.22324,-1.5875 -0.67204,-0.79375 0.79375,0.67204 c 0.43656,0.36962 0.79375,0.72681 0.79375,0.79375 0,0.28231 -0.28392,0.0739 -0.91546,-0.67204 z m -1.05851,-1.37742 c -0.15595,-0.25234 -0.0968,-0.31153 0.15557,-0.15557 0.40667,0.25133 0.54598,0.56285 0.25172,0.56285 -0.0856,0 -0.26884,-0.18328 -0.40729,-0.40728 z m 97.96507,-6.704226 c 5.76769,-1.965884 8.30676,-8.848332 5.07686,-13.761441 -1.23204,-1.874105 -4.36128,-3.272355 -9.34575,-4.175995 -6.7269,-1.219528 -9.83214,-2.575581 -13.33192,-5.822027 -0.54056,-0.501428 -1.1854,-0.797815 -1.48474,-0.682431 -0.29104,0.112183 -1.20386,0.384893 -2.02847,0.606022 -0.82462,0.221128 -1.49931,0.530869 -1.49931,0.688314 0,0.157444 2.27424,3.656706 5.05386,7.776137 2.77963,4.119431 6.04059,9.102712 7.2466,11.073958 1.79925,2.94094 2.42749,3.6815 3.50099,4.126961 1.56507,0.649437 5.14392,0.739016 6.81188,0.170502 z m -81.44422,-0.952158 c 0.63797,-0.618547 -4.88191,-7.328824 -5.78192,-7.028822 -0.70599,0.235333 -2.38641,3.324425 -2.62705,4.829276 -0.12786,0.799597 -0.0417,1.675108 0.21137,2.147988 0.41638,0.778 0.52243,0.791962 4.18271,0.55064 2.06553,-0.136179 3.87223,-0.360766 4.01489,-0.499082 z m -2.08207,-0.638186 c 0.12935,-0.129351 0.34102,-0.129351 0.47037,0 0.12935,0.129352 0.0235,0.235186 -0.23518,0.235186 -0.25871,0 -0.36454,-0.105834 -0.23519,-0.235186 z m -2.71249,-0.692869 c -0.94212,-0.289374 -1.62709,-0.611991 -1.52216,-0.716926 0.19888,-0.19888 3.76428,0.884836 3.76428,1.144166 0,0.220035 -0.35499,0.15239 -2.24212,-0.42724 z m -2.55406,-1.243119 c -0.15596,-0.252342 -0.0968,-0.311525 0.15556,-0.155569 0.22401,0.138444 0.40729,0.321722 0.40729,0.407285 0,0.294266 -0.31152,0.154949 -0.56285,-0.251716 z m -9.87715,1.35292 c 2.75293,-1.264536 6.72789,-5.274401 8.1064,-8.177579 1.97644,-4.162441 2.25061,-9.33132 0.76102,-14.347314 -1.72148,-5.796852 -6.78586,-8.742956 -11.41666,-6.641422 -3.33767,1.514686 -5.60207,4.302929 -6.96738,8.579195 -1.6796,5.260656 -1.13795,12.775961 1.31277,18.214266 1.51313,3.357743 1.85768,3.644077 4.1791,3.472999 1.0882,-0.0802 2.85669,-0.563602 4.02475,-1.100145 z M 214.8084,83.709591 c 0.82918,-1.26118 1.6231,-2.293055 1.76426,-2.293055 0.14117,0 0.32022,0.595312 0.39791,1.322916 0.11426,1.070234 0.19046,1.183202 0.39893,0.591439 0.14173,-0.402313 0.86405,-2.227938 1.60515,-4.056944 0.7411,-1.829007 1.24585,-3.430875 1.12167,-3.559707 -0.12419,-0.128832 -0.69247,-0.287582 -1.26286,-0.352778 -0.97784,-0.111768 -1.11746,0.04362 -2.44484,2.721097 l -1.40777,2.839635 -3.14785,-0.150501 c -3.48094,-0.166425 -3.5656,-0.0568 -1.58758,2.055954 0.45414,0.485069 1.18919,1.397882 1.63345,2.028472 0.44427,0.63059 0.94595,1.146527 1.11485,1.146527 0.1689,0 0.98551,-1.031875 1.81468,-2.293055 z m -46.69521,-4.850694 c 0.98699,-3.584084 4.21177,-13.689194 6.33262,-19.843748 2.18451,-6.339276 2.18469,-6.341019 0.74612,-7.071565 -2.00078,-1.016045 -7.06812,-4.942068 -9.28536,-7.194014 -1.15809,-1.176223 -2.25348,-2.138587 -2.43419,-2.138587 -0.61494,0 0.0689,15.246967 0.98095,21.872221 1.86479,13.545709 2.43667,17.286109 2.64292,17.286109 0.11851,0 0.57613,-1.309687 1.01694,-2.910416 z m 66.73689,-6.00334 3.01211,-1.493187 -0.0217,-1.667982 c -0.0119,-0.91739 -0.11278,-1.759079 -0.22412,-1.87042 -0.11134,-0.11134 -1.29221,0.823825 -2.62415,2.078145 -1.33194,1.25432 -2.89796,2.628177 -3.48004,3.053016 -0.58208,0.424838 0.49223,-0.712235 2.38736,-2.526829 3.30253,-3.162177 3.42691,-3.335468 2.99347,-4.170619 -1.04792,-2.019169 -4.47658,-3.171611 -6.03835,-2.029615 -0.82298,0.60178 -1.2347,2.599457 -1.28654,6.242366 -0.0667,4.684861 -0.1557,4.363417 1.13681,4.104916 0.62316,-0.124632 2.48847,-0.898538 4.14514,-1.719791 z m 24.53788,-0.523048 c -0.1069,-0.921632 -0.34191,-2.952482 -0.52225,-4.512999 -0.41122,-3.558374 -0.83159,-4.673637 -1.91717,-5.086375 -1.65505,-0.629249 -5.1958,0.927548 -5.69633,2.504561 -0.19149,0.603339 0.48898,1.44854 3.7715,4.684531 2.20283,2.171605 4.12968,3.979333 4.28188,4.017174 0.1522,0.03784 0.18927,-0.68526 0.0824,-1.606892 z m -1.60643,0.842717 c -3.47091,-3.22655 -7.03739,-6.164196 -7.18795,-5.92059 -0.10403,0.168319 -0.22886,0.827316 -0.27741,1.464439 -0.10603,1.391513 0.32576,1.742225 4.42097,3.590871 3.1142,1.405801 3.85118,1.615268 3.04439,0.86528 z m -40.84215,-3.223967 c 0.4,-1.437007 0.0612,-2.770709 -0.63581,-2.503225 -1.09994,0.422085 -7.66253,1.650196 -8.21131,1.536649 -0.31293,-0.06475 1.25667,-0.484949 3.48799,-0.933784 2.23132,-0.448835 4.31382,-0.953309 4.62777,-1.121055 0.68657,-0.366833 0.50348,-1.760493 -0.43376,-3.301659 -0.34632,-0.569475 -0.53399,-1.190216 -0.41706,-1.379424 0.11694,-0.189209 0.0403,-0.237523 -0.17029,-0.107365 -0.2106,0.130157 -0.48262,0.07531 -0.60449,-0.121882 -0.50022,-0.80937 -1.46715,-0.185841 -5.0514,3.25744 -3.34575,3.214165 -4.14547,4.210965 -3.09838,3.861933 0.17625,-0.05875 0.41509,0.04631 0.53075,0.233455 0.11566,0.187149 1.71771,0.586545 3.56011,0.887548 1.84239,0.301003 3.74668,0.612474 4.23175,0.692158 1.52507,0.25053 1.88124,0.08733 2.18413,-1.000789 z m 61.31586,-2.00562 c 1.64924,-0.39873 3.07799,-0.840841 3.175,-0.982469 0.097,-0.141628 0.41452,-0.337157 0.70556,-0.434508 0.37237,-0.124554 -0.5084,-1.236605 -2.97243,-3.752973 -1.92588,-1.966785 -3.7852,-3.665982 -4.13182,-3.775994 -0.98758,-0.313448 -1.93462,0.399165 -2.73916,2.061132 -0.94993,1.962295 -0.93541,2.86608 0.0538,3.350353 l 0.79375,0.388573 -0.88195,-0.07008 c -0.83623,-0.06645 -0.87564,0.01206 -0.76037,1.514795 0.0669,0.871681 0.27728,1.8758 0.46758,2.231375 0.39999,0.747398 1.32972,0.669029 6.29001,-0.530204 z m 2.23426,-1.580954 c 0.12935,-0.129352 0.34102,-0.129352 0.47037,0 0.12935,0.129352 0.0235,0.235185 -0.23518,0.235185 -0.25871,0 -0.36454,-0.105833 -0.23519,-0.235185 z m -4.88009,-0.811418 c -1.35819,-0.349939 -2.15194,-0.650859 -1.76389,-0.668712 0.38806,-0.01785 1.81681,0.267084 3.175,0.633195 1.3582,0.36611 2.15195,0.66703 1.76389,0.668712 -0.38806,0.0017 -1.81681,-0.283257 -3.175,-0.633195 z m -69.71705,0.716621 c 0.85223,-1.981048 0.88189,-2.139462 0.40065,-2.139462 -0.54029,0 -2.19487,2.826687 -1.98092,3.384214 0.34425,0.897109 0.82012,0.522278 1.58027,-1.244752 z m 83.09867,-2.250601 c 1.73308,-0.617971 3.20695,-1.298602 3.27524,-1.512513 0.0683,-0.213912 -1.40708,-1.539901 -3.27862,-2.946643 -3.79033,-2.848986 -4.30653,-2.869481 -4.47263,-0.177579 l -0.0862,1.396485 3.44352,0.848612 c 1.89394,0.466736 3.38604,0.906093 3.31578,0.976349 -0.10899,0.108993 -3.50279,-0.512669 -6.14194,-1.125055 -0.69947,-0.162305 -0.79317,-0.0472 -0.78893,0.969068 0.007,1.763277 0.37023,2.743138 1.00647,2.717804 0.31692,-0.01262 1.99419,-0.528557 3.72728,-1.146528 z m -130.6322,-5.080546 c -1.647,-15.711482 -1.18381,-28.449287 1.52358,-41.898603 4.07472,-20.2417352 14.29324,-38.112757 31.28179,-54.708281 12.00966,-11.731819 28.39008,-21.138367 47.75632,-27.424337 8.76645,-2.845447 10.0405,-2.627514 2.64584,0.452583 -4.58516,1.909853 -6.41424,2.832357 -17.28611,8.718305 -11.80357,6.390357 -25.89368,15.253717 -25.25855,15.888844 0.0776,0.07765 0.99039,-0.29073 2.02833,-0.818613 1.03794,-0.527882 2.36341,-1.082449 2.9455,-1.23237 4.96612,-1.27907 8.64448,-2.077361 21.0487,-4.568068 23.65529,-4.749868 31.96247,-7.155489 41.82781,-12.112634 8.94329,-4.493835 16.0523,-10.73358 19.23251,-16.880824 l 1.32291,-2.557156 v 1.63817 c 0,2.452712 -0.92924,6.83253 -1.83396,8.644056 -0.44,0.881011 -2.07267,2.879942 -3.62815,4.442068 -5.29187,5.314453 -11.70257,9.483596 -20.11427,13.081143 -6.17023,2.638906 -9.89904,3.884677 -21.69583,7.248444 -10.20873,2.910941 -13.78564,4.128172 -21.34756,7.264623 -6.37497,2.644142 -25.57188,12.023424 -25.57188,12.493984 0,0.169267 0.37131,0.400952 0.82513,0.514855 1.52139,0.381845 6.03909,3.62172 7.51735,5.39108 3.55052,4.249701 5.81817,8.7932891 7.44308,14.9133964 0.7761,2.92312898 0.90174,4.1603543 0.93405,9.1982464 0.0416,6.4802402 -0.50036,9.7606182 -2.24372,13.5819432 -3.71621,8.145673 -13.0601,13.766977 -21.70784,13.059486 -1.55222,-0.12699 -3.15781,-0.311302 -3.56797,-0.409581 -0.54364,-0.130261 -0.79762,0.01963 -0.93712,0.553063 -0.23409,0.895183 -0.96296,0.972583 -0.96296,0.102259 0,-0.67351 -1.66854,-1.83995 -2.63196,-1.83995 -0.32055,0 -1.05012,0.511629 -1.62126,1.136954 l -1.03845,1.136954 -0.005,-1.04876 c -0.006,-1.163628 -0.6704,-2.688988 -1.2556,-2.881677 -0.20837,-0.06861 -1.12118,0.442063 -2.02847,1.134829 -1.42458,1.087747 -1.64962,1.167171 -1.64962,0.582213 0,-0.372549 0.24184,-1.36279 0.53741,-2.200536 l 0.53741,-1.523175 -1.54896,-1.607984 c -0.85192,-0.884391 -1.95254,-2.219053 -2.44583,-2.965916 l -0.89688,-1.357932 -0.54479,2.592654 c -1.90814,9.080881 -2.13256,8.063326 2.86234,12.97799 2.27982,2.243203 5.14224,4.792927 6.36092,5.666052 8.15432,5.842157 21.58689,11.05228 34.9573,13.558973 17.0966,3.205283 40.42253,2.702161 56.48941,-1.218433 28.4365,-6.938991 48.0481,-20.881269 54.45251,-38.711371 2.18333,-6.078479 3.05331,-11.7305082 3.04648,-19.7922384 -0.0145,-17.1715116 -5.95735,-37.7203426 -14.88611,-51.4726386 -1.84239,-2.837695 -6.25328,-8.903173 -6.4745,-8.903173 -0.0697,0 -1.68096,0.391039 -3.5805,0.868974 -1.89955,0.477936 -6.23184,1.354822 -9.62733,1.948637 -3.39548,0.593814 -6.92767,1.296641 -7.8493,1.561836 -0.92164,0.265196 -1.6757,0.437039 -1.6757,0.381875 0,-0.368536 9.96679,-5.669112 12.68754,-6.747539 3.98629,-1.580049 9.8938,-4.581248 13.06524,-6.637549 6.55141,-4.247811 10.82873,-10.24599 12.19628,-17.103113 1.09787,-5.50487 0.13264,-15.287489 -1.56202,-15.831119 -0.26382,-0.0846 -1.77297,1.17017 -3.36613,2.79882 -3.26803,3.340822 -4.57798,5.631136 -7.64085,13.359181 -2.42005,6.10614 -5.16308,11.450445 -7.6501,14.904859 -1.0826,1.503716 -2.0249,2.734028 -2.094,2.734028 -0.0691,0 0.25993,-0.760843 0.73115,-1.690762 1.18675,-2.341939 1.86656,-4.942371 2.3607,-9.030245 1.60233,-13.255481 -3.97999,-29.069681 -14.21419,-40.267531 -3.36788,-3.68501 -11.5324,-10.21444 -16.28784,-13.02594 -5.1045,-3.01786 -14.3885,-7.55032 -17.06763,-8.33243 -2.66095,-0.7768 -2.77755,-1.00597 4.17289,8.20137 4.07137,5.3934 9.87551,13.9832 12.20972,18.06968 0.67702,1.18527 1.92937,3.34565 2.78299,4.80086 2.48918,4.24344 6.07399,11.42643 7.77373,15.576473 1.46873,3.586013 4.02537,12.07152 4.01423,13.323243 -0.003,0.306475 -0.65152,-0.633398 -1.44175,-2.088606 -3.02139,-5.56388 -6.50827,-9.289363 -12.84198,-13.720727 -3.75521,-2.627323 -9.24027,-5.681973 -13.93353,-7.759633 -3.02058,-1.33718 -13.23021,-4.13645 -16.23092,-4.45019 -1.06543,-0.11139 -3.76276,-0.45246 -5.99408,-0.75793 -9.83081,-1.34584 -28.75281,0.97762 -41.09861,5.04656 -19.22782,6.33713 -39.85798,20.092177 -54.62234,36.419156 -6.18896,6.843989 -12.02911,14.481107 -9.1444,11.958066 1.52395,-1.332883 12.1706,-7.386969 18.4348,-10.482722 15.30941,-7.565871 31.00076,-12.596549 46.38845,-14.872232 4.57383,-0.676424 13.93655,-1.310528 13.93655,-0.943874 0,0.106194 -1.15094,0.46585 -2.55764,0.799236 -10.74973,2.54767 -20.8786,5.630238 -28.66319,8.723212 -1.94028,0.770911 -4.54966,1.784719 -5.79863,2.252907 -3.36134,1.260031 -10.03624,4.854934 -13.24356,7.132592 -12.94995,9.196318 -23.38048,27.515381 -26.84872,47.154185 -0.63561,3.599139 -0.63047,4.630107 0.0158,3.175 4.72173,-10.630869 6.59103,-14.091125 10.82494,-20.03801 3.1242,-4.38821 11.30177,-12.691735 16.7057,-16.963023 19.73151,-15.595852 46.82032,-26.779326 74.82324,-30.890389 2.69749,-0.396015 5.77766,-0.737594 6.84481,-0.759065 1.55735,-0.03133 0.75669,-0.247465 -4.05694,-1.095138 -6.9705,-1.227494 -7.69114,-1.449075 -5.29167,-1.627076 2.8524,-0.2116 10.76704,0.605983 18.34444,1.894983 12.99552,2.21068 12.91426,2.140625 2.46945,2.128948 -13.73342,-0.01535 -21.1758,0.897583 -35.63055,4.370703 -18.3056,4.398383 -34.74056,12.991757 -45.51934,23.800781 -11.22468,11.256167 -19.27559,29.489188 -22.43944,50.8189515 -0.61945,4.1760938 -0.62461,19.5657695 -0.008,24.5180535 1.63577,13.142594 5.42857,26.484245 10.90383,38.355602 1.09396,2.371902 2.05905,4.242518 2.14464,4.156925 0.0856,-0.08559 -0.0238,-1.86749 -0.24315,-3.959771 z m 69.492,-23.442915 c -2.34175,-1.159131 -4.32243,-4.776164 -4.70027,-8.583453 -0.10243,-1.032066 -0.16062,-1.062754 -2.34473,-1.236465 -1.95927,-0.155831 -2.34557,-0.31042 -3.08535,-1.234723 -1.41125,-1.763233 -1.52753,-4.031394 -0.27109,-5.287834 0.99312,-0.993121 1.53919,-0.646237 1.53919,0.97775 0,3.179225 2.09715,4.053745 4.4969,1.87523 0.72816,-0.661031 1.59899,-1.673047 1.93517,-2.248923 l 0.61124,-1.047047 -1.59082,-0.445401 c -2.06127,-0.577121 -3.33582,-2.0503 -3.33582,-3.855689 0,-2.750312 2.77217,-4.4698508 6.74305,-4.182623 1.92972,0.139583 2.30186,0.29274 3.2269,1.328043 0.89356,1.00006 1.01831,1.373944 0.8578,2.570698 -0.22001,1.640283 -1.59286,3.242475 -3.31055,3.8636 -0.64196,0.232137 -1.1672,0.528708 -1.1672,0.659046 0,0.486752 3.26213,3.221468 4.41969,3.70513 1.71988,0.718609 2.54404,0.626154 3.57077,-0.400568 0.7942,-0.794206 0.87456,-1.091323 0.6679,-2.469444 -0.21106,-1.407471 -0.16362,-1.566612 0.46704,-1.566612 2.40565,0 2.90513,4.308055 0.71331,6.152345 -0.59037,0.496765 -1.26691,0.90321 -1.50343,0.90321 -0.30673,0 -0.4254,0.887605 -0.4139,3.095973 0.021,4.033225 -0.95066,6.191323 -3.33137,7.399165 -1.93309,0.980746 -2.26624,0.983017 -4.19443,0.02859 z m 3.47852,-1.87669 c 0.20312,-0.125535 0.69136,-0.859504 1.08497,-1.631043 0.56346,-1.104478 0.69368,-1.942496 0.61232,-3.940634 l -0.10334,-2.537836 -2.1883,-0.589442 c -2.40187,-0.646966 -2.39162,-0.651244 -3.45606,1.442417 -1.18306,2.326979 -1.26689,3.166606 -0.49527,4.960283 0.3948,0.917745 1.09887,1.87256 1.5646,2.121811 0.46573,0.249252 0.76977,0.577806 0.67563,0.73012 -0.17766,0.287454 1.65657,-0.154643 2.30545,-0.555676 z m -4.70303,-20.513899 c 0.90413,-0.429036 1.19058,-0.769933 1.11165,-1.322917 -0.0881,-0.616955 -0.38733,-0.763137 -1.74179,-0.850826 -1.31825,-0.08534 -1.82922,0.06078 -2.63437,0.753344 -0.86087,0.740487 -0.93359,0.937934 -0.52621,1.428797 0.60678,0.731124 2.23992,0.727506 3.79072,-0.0084 z m 42.65313,18.560804 c -8.06427,-2.052078 -15.16375,-7.727219 -18.74494,-14.984222 -2.15667,-4.37031 -2.98645,-7.8299907 -3.2241,-13.4425229 -0.22404,-5.2909401 0.22316,-9.1194303 1.56057,-13.3602411 3.3288,-10.555348 10.78892,-18.100609 20.46828,-20.701882 3.9356,-1.057672 11.46221,-1.047742 15.44237,0.02037 4.50875,1.209968 8.35532,3.221923 11.93226,6.241202 1.17556,0.992283 1.489,1.098453 2.43874,0.82607 3.08229,-0.883989 5.88097,-4.27925 7.16778,-8.695697 0.98898,-3.394277 1.35992,-2.825469 1.14935,1.762428 -0.18865,4.110402 -1.51298,7.162931 -4.11536,9.485723 l -1.69727,1.514922 1.70427,2.536924 c 2.07618,3.090557 2.89758,3.452394 7.303,3.217091 3.13471,-0.167431 5.31856,-0.916917 8.13664,-2.792455 l 1.21108,-0.806018 -0.68191,1.179345 c -1.0908,1.886496 -3.54008,4.452451 -5.37221,5.628126 -0.93139,0.597673 -2.7971,1.3642819 -4.14601,1.7035749 -1.34892,0.3392931 -2.50136,0.6434755 -2.56098,0.675961 -0.0596,0.032485 0.13881,1.7239908 0.44097,3.758901 1.29341,8.7106447 0.0537,16.9076421 -3.54226,23.4221621 -0.66002,1.195693 -1.20003,2.268165 -1.20003,2.383271 0,0.115107 0.83343,0.117433 1.85208,0.0052 l 1.85208,-0.204115 -1.50428,0.770587 -1.50428,0.770588 0.2381,2.854974 0.23809,2.854974 -1.37965,-1.353457 c -1.26365,-1.239665 -3.12726,-2.31848 -4.00509,-2.31848 -0.4959,0 -1.4315,1.90994 -1.4315,2.922296 0,1.234626 -0.37815,1.410191 -1.25768,0.583911 l -0.78086,-0.733579 -2.06753,1.033898 c -1.13715,0.568644 -3.08922,1.383539 -4.33793,1.810878 -1.24872,0.427339 -2.47601,1.044806 -2.72732,1.372149 -0.36039,0.469417 -0.52059,0.498859 -0.75822,0.139344 -0.23537,-0.356093 -0.64206,-0.372794 -1.85879,-0.07633 -0.85663,0.208722 -3.78,0.453232 -6.49639,0.543356 -4.16623,0.138226 -5.37727,0.05231 -7.74107,-0.549199 z m 12.67996,-2.958822 c 0.97014,-0.447443 2.16564,-1.193078 2.65666,-1.656967 2.03443,-1.922005 4.57528,-6.687819 4.57528,-8.581749 0,-0.853605 0.10233,-0.90474 1.81045,-0.90474 3.32652,0 5.24511,-2.032815 5.24511,-5.557395 0,-3.1932884 -2.49746,-5.575236 -5.52403,-5.2685372 -2.96593,0.3005537 -4.87158,2.7263818 -4.6502,5.9195462 0.066,0.952504 0.0324,1.731726 -0.0748,1.731606 -0.10719,-1.21e-4 -0.48893,0.817452 -0.8483,1.816828 -0.35937,0.999376 -1.02818,2.4876 -1.48624,3.307165 -0.7799,1.395397 -1.28609,1.949048 -4.29626,4.699089 -1.13109,1.033345 -3.04373,1.830437 -5.69792,2.374611 l -1.23472,0.253148 1.21056,0.412392 1.21056,0.412392 -0.84808,0.594022 c -1.83831,1.287599 -5.81609,0.401203 -9.136,-2.035836 -3.16549,-2.323685 -7.54599,-8.26237 -9.37957,-12.715975 -1.46903,-3.5681484 -1.81041,-4.0229248 -2.9244,-3.8958307 -0.52083,0.05942 -1.14352,-0.049776 -1.38375,-0.2426584 -1.56864,-1.2594255 -0.0348,5.1746181 2.36436,9.9179531 2.44139,4.826806 5.87864,7.829269 10.32128,9.015723 6.51353,1.739507 14.79485,1.925007 18.09004,0.405213 z m -2.64583,-4.26429 c 0,-0.09701 0.0794,-0.176389 0.17639,-0.176389 0.097,0 0.17638,0.07938 0.17638,0.176389 0,0.09701 -0.0794,0.176389 -0.17638,0.176389 -0.097,0 -0.17639,-0.07937 -0.17639,-0.176389 z M 253.20802,9.9790414 c 0,-0.097014 0.0794,-0.1763888 0.17639,-0.1763888 0.097,0 0.17639,0.079375 0.17639,0.1763888 0,0.097014 -0.0794,0.1763886 -0.17639,0.1763886 -0.097,0 -0.17639,-0.07938 -0.17639,-0.1763886 z m 40.33574,14.1111096 c 1.30188,-0.873125 2.56771,-1.587499 2.81295,-1.587499 0.24524,0 1.20123,-0.766878 2.12444,-1.704173 1.30632,-1.326269 1.94198,-2.404152 2.86651,-4.860759 0.65338,-1.736122 1.28577,-3.787057 1.4053,-4.557632 0.18829,-1.213728 0.0155,-0.998639 -1.29227,1.608759 -1.48159,2.953937 -1.52762,3.003422 -2.47975,2.665927 -2.28797,-0.811001 -4.69595,1.552148 -4.39359,4.311785 0.18968,1.731135 -0.57485,2.908642 -3.05503,4.705272 -2.25806,1.635734 -0.56467,1.146029 2.01144,-0.58168 z m -21.12935,-1.313217 c 0.74906,-1.069433 0.6894,-2.250719 -0.15639,-3.096504 -0.86928,-0.869283 -1.81414,-0.899557 -2.75248,-0.0882 -1.10655,0.956803 -1.2408,1.9664 -0.40309,3.031374 0.93976,1.194711 2.53095,1.268374 3.31196,0.153325 z m -6.69858,-10.371198 c 0.90202,-0.346137 1.67834,-2.163899 1.4222,-3.3300889 -0.27133,-1.2353841 -1.70399,-2.4479943 -2.89222,-2.4479943 -1.21824,0 -2.9239,1.8062633 -2.9239,3.0963494 0,2.0546048 2.32705,3.4748668 4.39392,2.6817338 z m 37.58663,-2.7794723 c 0,-0.097014 -0.0794,-0.1763889 -0.17639,-0.1763889 -0.097,0 -0.17638,0.079375 -0.17638,0.1763889 0,0.097014 0.0794,0.1763889 0.17638,0.1763889 0.097,0 0.17639,-0.079375 0.17639,-0.1763889 z M 274.17143,6.0599799 c 0.3146,-0.1207224 0.6562,-0.8164071 0.7795,-1.5874999 0.18242,-1.1407859 0.35873,-1.3726047 1.04393,-1.3726047 0.99594,0 1.71782,-1.1070121 1.11498,-1.7098446 -0.22375,-0.223752 -0.7626,-0.40682186 -1.19745,-0.40682186 -0.64822,0 -0.84393,-0.26954455 -1.08658,-1.49651665 -0.4875,-2.46514419 -2.19741,-2.21160229 -2.20961,0.3276375 -0.005,1.00910509 -0.12276,1.13549174 -1.15193,1.23472211 -0.9583,0.092397 -1.14653,0.2553374 -1.14653,0.9924903 0,0.7371529 0.18823,0.900093 1.14653,0.9924903 0.95862,0.092428 1.14653,0.2552295 1.14653,0.9933309 0,0.8151782 0.55158,2.2475118 0.8655,2.2475118 0.0743,0 0.38713,-0.096703 0.69513,-0.2148952 z m 12.99243,-8.6005952 c 2.42486,-1.1398193 4.01389,-2.6756814 5.1775,-5.0042685 1.96232,-3.9269552 1.33489,-8.2831262 -1.67528,-11.6311522 -7.0066,-7.793028 -19.32155,-2.99046 -18.67501,7.282857 0.30783,4.8912732 3.58476,8.8627942 8.28717,10.0437474 1.87824,0.4716987 5.09962,0.1483344 6.88562,-0.6911837 z m -23.5017,-4.2086738 c 0.14672,-0.7335733 0.4729,-1.0967232 1.13418,-1.2626918 0.51052,-0.128134 1.0398,-0.4134979 1.17616,-0.6341419 0.35965,-0.5819227 -0.37257,-1.3067786 -1.32004,-1.3067786 -0.66321,0 -0.83715,-0.2151436 -0.92695,-1.1465276 -0.1529,-1.585818 -1.36238,-1.609792 -1.81376,-0.03595 -0.23832,0.830991 -0.57469,1.161811 -1.33612,1.3140972 -1.38618,0.2772361 -1.40788,1.4904928 -0.0321,1.7926721 0.6662,0.1463214 1.1135,0.5554856 1.38047,1.2627522 0.51243,1.3575818 1.46811,1.3666933 1.73813,0.016571 z m 43.28567,27.6056441 c 0.12936,-0.129351 0.34102,-0.129351 0.47037,0 0.12936,0.129352 0.0235,0.235186 -0.23518,0.235186 -0.25871,0 -0.36454,-0.105834 -0.23519,-0.235186 z m -29.26124,-61.898633 c -1.18589,-0.13993 -2.77339,-0.423245 -3.52778,-0.629588 -6.31669,-1.727756 -6.5592,-7.651309 -0.3525,-8.610092 2.95699,-0.456781 7.9684,1.45024 10.0544,3.82606 0.94454,1.075774 1.11671,1.531883 1.02776,2.722772 -0.18286,2.448436 -2.3606,3.262105 -7.20188,2.690848 z M 247.2108,-67.279286 c 0,-0.09701 0.0794,-0.176389 0.17639,-0.176389 0.097,0 0.17639,0.07937 0.17639,0.176389 0,0.09701 -0.0794,0.176389 -0.17639,0.176389 -0.097,0 -0.17639,-0.07937 -0.17639,-0.176389 z m 97.36666,122.262728 c 4.08176,-1.370993 6.83551,-2.882042 9.93918,-5.453882 7.5758,-6.277642 12.89253,-17.121024 14.80861,-30.201908 0.72584,-4.955214 0.53615,-18.2124945 -0.35334,-24.6944427 -1.26105,-9.1896393 -4.13028,-20.8688373 -7.27138,-29.5981723 -4.24003,-11.783318 -11.31895,-24.409366 -18.1542,-32.380057 -3.60236,-4.200772 -9.78047,-9.614677 -14.9289,-13.082253 -2.47212,-1.665023 -4.5571,-2.959746 -4.6333,-2.877163 -0.0762,0.08258 -0.77463,1.420152 -1.55207,2.972374 -2.68794,5.366695 -7.09155,10.359358 -11.95077,13.549386 -1.48651,0.975879 -2.87643,1.836945 -3.0887,1.913478 -0.21228,0.07653 -0.30659,0.205186 -0.20957,0.285895 0.097,0.08071 1.39414,1.062138 2.88251,2.180952 10.37962,7.802433 19.33336,22.296618 23.7071,38.376714 3.1437,11.557851 3.52283,24.80320901 1.07145,37.432374 -2.27377,11.714074 -6.42384,22.906727 -11.37347,30.674006 l -1.2738,1.998926 -0.92685,-2.175315 c -0.50978,-1.196423 -1.29391,-3.445315 -1.74252,-4.997537 -0.44862,-1.552222 -0.92753,-2.951558 -1.06426,-3.109636 -0.13673,-0.158077 -0.75812,0.355908 -1.38087,1.142189 l -1.13226,1.429601 0.7339,2.902194 c 2.0661,8.170306 6.67897,12.857382 14.31157,14.541781 4.03011,0.889386 9.44989,0.558378 13.58194,-0.829504 z m -8.11389,-8.404257 c -2.84129,-1.419386 -3.767,-6.580071 -1.85208,-10.32512 1.23225,-2.409939 2.48908,-3.34447 4.49791,-3.34447 1.84902,0 3.18981,0.893139 4.1667,2.775561 1.9079,3.676441 0.40773,9.255745 -2.95648,10.995442 -1.31209,0.678513 -2.34942,0.651231 -3.85605,-0.101413 z m 3.44279,-2.998063 c 3.14616,-3.358569 0.91227,-10.315787 -2.33955,-7.286262 -1.07769,1.004023 -1.45602,2.134637 -1.45602,4.351236 0,3.191322 2.0619,4.78574 3.79557,2.935026 z m 14.97543,-10.342061 c -2.78641,-1.951673 -3.28258,-8.546151 -0.91989,-12.225877 2.34149,-3.646703 6.83361,-2.918296 8.47281,1.373884 1.26433,3.310612 -0.27121,9.096362 -2.83466,10.680659 -1.3965,0.863089 -3.6156,0.943671 -4.71826,0.171334 z m 3.78387,-2.952392 c 1.51911,-1.519105 1.93509,-5.993522 0.70286,-7.560053 -1.88013,-2.390195 -4.56316,0.279312 -4.55919,4.536206 0.003,2.971122 2.19224,4.687939 3.85633,3.023847 z m -34.55244,5.981884 c 0.24283,-0.586246 0.581,-1.065902 0.75149,-1.065902 0.17048,0 0.30997,-0.172334 0.30997,-0.382965 0,-0.21063 0.47335,-1.361567 1.05189,-2.557638 1.36169,-2.815147 3.99183,-10.212853 4.9122,-13.816341 1.79483,-7.027254 2.55877,-12.5185511 2.74836,-19.7555535 0.35414,-13.5177145 -1.97071,-23.9295065 -8.19224,-36.6888855 -2.21422,-4.541027 -7.90344,-13.934722 -8.43944,-13.934722 -0.24806,0 0.29338,1.352077 1.50691,3.763041 1.68004,3.337805 5.56895,13.341674 7.10835,18.285569 1.46054,4.690631 2.29475,8.534351 3.40711,15.69861 0.95307,6.1383592 0.8643,17.3924328 -0.18454,23.3928439 -1.24844,7.1424191 -2.61972,11.5271541 -5.35045,17.1084021 l -2.46938,5.047083 0.94358,3.144116 c 0.51897,1.729264 1.05858,3.073045 1.19913,2.98618 0.14055,-0.08686 0.45422,-0.637592 0.69706,-1.223838 z m -132.58816,-7.32702 c 1.00859,-0.59579 3.47463,-4.835061 3.47463,-5.973098 0,-0.375999 0.29641,-0.442149 1.21173,-0.270433 4.02926,0.755894 7.11179,-3.735277 5.17261,-7.536377 -0.91548,-1.794498 -2.04505,-2.576924 -4.00818,-2.776382 -3.58793,-0.364542 -6.26381,3.741395 -4.85433,7.44861 0.26631,0.700457 0.23403,0.90491 -0.14287,0.90491 -0.2678,0 -0.88377,0.674687 -1.36881,1.499305 -0.48504,0.824618 -1.25559,1.848195 -1.71232,2.274616 -0.82047,0.766006 -0.84745,0.767689 -2.24886,0.140262 -1.78641,-0.799802 -3.59012,-2.697571 -4.81994,-5.071306 -0.81508,-1.573216 -0.9565,-1.705381 -0.97071,-0.907209 -0.009,0.513853 0.70163,2.36911 1.57953,4.122793 2.05484,4.104749 4.59996,6.436405 7.34522,6.729166 0.16409,0.0175 0.76813,-0.245686 1.3423,-0.584857 z m -8.51981,-0.04608 c 0,-0.170488 -0.47019,-0.50474 -1.04488,-0.742782 -2.44472,-1.012638 -6.28213,-6.449813 -7.97812,-11.304083 -0.50577,-1.447626 -0.98946,-2.745113 -1.07486,-2.883305 -0.25486,-0.412371 -1.19103,0.10517 -1.19103,0.658435 0,0.281734 -0.15875,0.414131 -0.35277,0.294215 -0.19403,-0.119916 -0.35521,-0.01022 -0.35818,0.243763 -0.004,0.340793 -0.0914,0.325816 -0.3336,-0.05716 -0.63282,-1.000633 -0.82843,0.0046 -0.39233,2.016083 0.91778,4.23321 3.00227,7.492341 5.97118,9.336064 1.10563,0.686605 5.90348,2.709686 6.49001,2.736604 0.14552,0.0067 0.26458,-0.127348 0.26458,-0.297836 z m 17.75237,-2.356995 c 1.12956,-0.66747 2.18265,-1.213581 2.3402,-1.213581 0.15754,0 0.85651,-0.630998 1.55326,-1.402217 1.17679,-1.302567 1.78919,-2.594749 1.60331,-3.383027 -0.0428,-0.181519 0.0181,-0.568159 0.13534,-0.8592 0.57831,-1.435623 0.95175,-3.542408 0.93797,-5.291667 l -0.0153,-1.940277 -0.82969,2.154674 c -1.37966,3.58293 -1.84954,4.291822 -3.01436,4.54766 -1.50648,0.330877 -2.82424,2.174528 -2.82424,3.951319 0,1.259629 -0.21573,1.61886 -1.96658,3.274739 -1.75272,1.657649 -1.85822,1.833549 -0.97014,1.617533 0.54804,-0.133306 1.92063,-0.788486 3.0502,-1.455956 z M 141.42701,12.007663 c -0.24307,-11.99889024 1.53184,-25.27828 4.63271,-34.660563 2.43488,-7.367237 6.71583,-15.724438 12.1075,-23.63611 1.76224,-2.585892 1.7084,-2.760395 -0.21768,-0.705555 -5.17263,5.518411 -8.37322,9.96757 -11.42001,15.874999 -2.71517,5.264429 -3.79534,8.051327 -5.12749,13.229165 -2.27221,8.8316657 -2.7471,22.5952203 -1.08331,31.39722 0.72825,3.852689 0.9452,4.762362 1.13587,4.762649 0.0546,8.2e-5 0.0422,-2.81773 -0.0276,-6.261805 z m 39.44916,5.226514 c 0.60197,-1.124781 0.41746,-2.089347 -0.51675,-2.701465 -0.81699,-0.535311 -0.9469,-0.535311 -1.76389,0 -0.96094,0.62963 -1.2062,2.212904 -0.45861,2.960496 0.67079,0.670795 2.32536,0.514336 2.73925,-0.259031 z m 8.41432,-11.0505128 c 0.088,-0.7625559 0.29556,-0.9671224 0.98121,-0.9671224 0.47827,0 0.96174,-0.2401466 1.07437,-0.5336592 0.26249,-0.6840541 -0.4786,-1.5830073 -1.30503,-1.5830073 -0.4342,0 -0.67469,-0.3098918 -0.75055,-0.9671223 -0.16366,-1.41790606 -1.26337,-1.49286352 -1.74239,-0.1187625 -0.2315,0.6641038 -0.62241,1.0858848 -1.00639,1.0858848 -0.8351,0 -1.48584,0.8285137 -1.21175,1.542786 0.13456,0.3506547 0.62531,0.5738805 1.26163,0.5738805 0.57278,0 0.97131,0.1190625 0.88562,0.2645833 -0.0857,0.1455209 -0.0164,0.6335566 0.15389,1.0845239 0.42505,1.1253974 1.51435,0.8746444 1.65939,-0.3819848 z M 178.87818,1.3660474 c 3.18645,-1.36587473103 4.57041,-4.8992208 3.26144,-8.3267062 -0.33211,-0.8696224 -0.71249,-1.5811316 -0.8453,-1.5811316 -0.32792,0 -4.99185,9.3968036 -4.99185,10.0574999 0,0.702149 0.6808,0.6625912 2.57571,-0.1496621 z m 14.51403,-8.3924171 c 0.24722,-0.8386326 0.56473,-1.1559551 1.23472,-1.2339872 1.28484,-0.1496411 1.25816,-1.4749157 -0.0327,-1.624356 -0.75794,-0.087745 -0.97849,-0.3419891 -1.16662,-1.3448191 -0.19068,-1.016383 -0.36937,-1.217011 -1.00338,-1.126522 -0.54545,0.07785 -0.82438,0.420076 -0.95231,1.16843 -0.13621,0.796741 -0.39836,1.088924 -1.06061,1.182094 -1.7157,0.2413792 -1.68101,1.8165174 0.04,1.8165174 0.88546,0 1.02059,0.1323398 1.02059,0.9995369 0,1.877828 1.38026,1.9950646 1.92029,0.163106 z m -0.68557,-22.0803473 c 3.4925,-1.439252 8.41375,-3.500492 10.93611,-4.580534 2.52236,-1.080042 5.65767,-2.332682 6.96736,-2.783646 2.50768,-0.863467 3.17356,-1.47365 1.23472,-1.131445 -0.63059,0.1113 -4.55965,1.125112 -8.73125,2.252916 -4.17159,1.127804 -8.1289,2.162839 -8.79401,2.300077 -0.73904,0.152494 -2.18032,1.090651 -3.7064,2.41257 -1.37341,1.189675 -3.13111,2.69217 -3.90599,3.338878 -1.66132,1.386522 -2.00803,1.491054 5.99946,-1.808816 z"
       id="path8" /></g></svg>
