<?xml version="1.0" encoding="UTF-8" standalone="no"?>
<!-- Created with Inkscape (http://www.inkscape.org/) -->

<svg
   width="310.24564mm"
   height="263.1236mm"
   viewBox="0 0 310.24562 263.12359"
   version="1.1"
   id="svg1"
   xml:space="preserve"
   xmlns="http://www.w3.org/2000/svg"
   xmlns:svg="http://www.w3.org/2000/svg"><defs
     id="defs1" /><g
     id="layer1"
     transform="translate(-82.355049,-47.037507)"><path
       style="fill:#000000"
       d="m 303.5467,309.97402 c -7.92212,-1.20128 -12.75792,-2.61031 -18.01596,-5.24937 -3.98416,-1.9997 -6.60307,-3.63579 -8.94374,-5.58736 -1.0104,-0.84245 -1.79328,-1.27588 -1.87293,-1.03694 -0.33039,0.99117 -3.69948,5.41259 -5.37321,7.05154 -4.14094,4.05486 -9.81615,5.59903 -15.31447,4.16689 -4.72479,-1.23065 -7.89819,-5.21249 -8.58411,-10.77093 l -0.28119,-2.27873 h -9.17178 -9.17177 l -0.23496,2.11666 c -0.53237,4.79613 -2.88987,8.49247 -6.56856,10.29894 -1.87037,0.91848 -2.32291,0.98995 -6.26756,0.98995 -4.20411,0 -4.28163,-0.0148 -6.93606,-1.32672 -4.87279,-2.40826 -9.05161,-7.82378 -11.96452,-15.50537 -0.74007,-1.95162 -1.64695,-3.75948 -2.01528,-4.01747 -1.06451,-0.74562 -1.82,-2.73491 -1.82,-4.79227 0,-1.69593 -0.10379,-1.96115 -0.97014,-2.47917 -3.39918,-2.03247 -6.4382,-5.93099 -6.4382,-8.25906 0,-1.40719 -0.59464,-2.08285 -2.29305,-2.60545 -5.78693,-1.78064 -10.54917,-6.70816 -12.89798,-13.34563 -1.40567,-3.97226 -1.86337,-7.45632 -1.66318,-12.66017 0.24745,-6.43198 1.79452,-10.81287 5.5887,-15.82568 1.31141,-1.73261 2.14804,-3.36602 3.04335,-5.9418 0.67912,-1.95377 1.78535,-4.53848 2.45829,-5.7438 l 1.22353,-2.19149 -3.70054,-2.7474 c -2.0353,-1.51107 -5.89529,-3.91879 -8.57775,-5.3505 -2.68246,-1.4317 -5.90907,-3.33059 -7.17025,-4.21974 -7.46653,-5.26401 -14.01459,-15.41504 -16.63416,-25.78685 -0.56047,-2.21908 -1.0555,-4.06137 -1.10008,-4.09397 -0.0446,-0.0326 -3.41479,-1.92728 -7.48937,-4.21041 -11.85018,-6.64005 -16.98686,-10.26792 -22.05905,-15.57958 -8.78801,-9.20292 -13.958217,-19.29721 -18.1341,-35.40495 -3.477345,-13.41326 -5.152805,-32.701731 -4.071661,-46.874367 l 0.359863,-4.717424 -1.521828,-1.632576 c -4.054088,-4.349117 -6.607945,-8.724956 -6.607945,-11.322211 0,-2.012004 0.806224,-3.200959 2.943763,-4.341231 1.28525,-0.685617 1.987802,-0.780285 5.699292,-0.76797 3.795972,0.0126 4.579577,0.129808 7.584722,1.134537 15.574614,5.207158 34.673084,22.747756 53.206424,48.866338 1.76027,2.480704 3.69683,5.377894 4.30348,6.438194 0.60664,1.0603 1.2104,1.92672 1.34168,1.92537 0.13128,-0.001 1.30274,-1.54916 2.60325,-3.43959 8.82679,-12.830641 23.73489,-28.159953 37.58436,-38.646247 8.83066,-6.686243 22.06235,-14.016965 28.84274,-15.979674 4.29055,-1.241981 12.03154,-1.576754 16.32819,-0.706141 7.75391,1.571143 18.34791,6.625334 29.53292,14.08958 14.79508,9.873412 31.39311,26.091936 42.02952,41.068552 1.27463,1.79475 2.42006,3.2607 2.54539,3.25766 0.12532,-0.003 1.17039,-1.44591 2.32237,-3.20637 15.50007,-23.687224 35.39441,-43.49133 51.52771,-51.293988 5.14867,-2.490088 8.10127,-3.362706 12.18307,-3.600615 4.29006,-0.250047 6.69343,0.374128 8.45957,2.197026 1.06274,1.096891 1.22632,1.494648 1.20554,2.931346 -0.037,2.555955 -1.54474,5.117722 -6.96154,11.827879 l -0.98835,1.224344 0.45919,3.823373 c 0.58414,4.863762 0.57477,21.129274 -0.0161,27.988649 -0.96031,11.147816 -2.68488,19.670876 -5.92468,29.280556 -3.70215,10.98107 -8.46774,18.83793 -16.13652,26.60372 -5.58985,5.66055 -9.33396,8.17494 -22.12173,14.85607 -4.34811,2.27173 -8.08861,4.27733 -8.31222,4.45689 -0.2236,0.17956 -0.68259,1.47082 -1.01997,2.86948 -2.05317,8.51182 -7.35935,18.11797 -12.88954,23.33487 -3.05004,2.87725 -5.44053,4.48963 -11.88185,8.01427 -4.67701,2.55921 -11.71241,7.18144 -12.24679,8.04608 -0.11411,0.18464 0.26875,1.17956 0.85082,2.21092 0.58206,1.03136 1.61779,3.58319 2.30162,5.67074 0.85387,2.60663 1.68385,4.379 2.6497,5.65825 1.64315,2.17634 3.57957,6.22245 4.41609,9.22731 0.9154,3.2882 1.10829,10.68351 0.37342,14.31622 -1.11399,5.50679 -3.78322,10.66329 -7.3834,14.26348 -1.97664,1.97663 -3.68315,2.98888 -7.09687,4.20961 l -2.11667,0.75691 -0.20004,1.92411 c -0.11002,1.05826 -0.41362,2.36134 -0.67466,2.89574 -0.26105,0.5344 -0.38923,1.05703 -0.28485,1.16141 0.41006,0.41006 8.5548,2.98759 11.13063,3.52246 3.90434,0.81073 9.78458,0.73689 13.26927,-0.16664 5.80007,-1.50388 10.73284,-4.70508 13.50815,-8.76634 3.21373,-4.70281 3.51997,-9.0053 1.18544,-16.65446 -1.74497,-5.71742 -1.99983,-7.46678 -1.43241,-9.83206 0.47178,-1.96658 2.41681,-4.80491 3.53612,-5.16016 1.13815,-0.36124 0.84295,-0.76958 -1.43351,-1.98291 -2.61249,-1.39245 -4.65321,-3.61731 -6.10965,-6.66098 -0.99125,-2.07149 -1.09691,-2.61688 -1.09363,-5.64445 0.003,-2.86123 0.13675,-3.63516 0.91375,-5.29166 1.22836,-2.61874 2.37228,-3.89216 4.60968,-5.13152 1.75647,-0.97297 2.12698,-1.04102 5.58543,-1.02593 4.40223,0.0192 6.44034,0.72497 10.80314,3.74097 4.32329,2.98868 8.07395,8.09115 7.82614,10.64679 -0.12492,1.28818 -0.54791,1.35044 -4.47226,0.65828 -2.84308,-0.50145 -5.33641,-0.0227 -6.82952,1.31142 -0.94672,0.8459 -1.01631,1.0363 -0.61415,1.68026 0.66645,1.06716 0.23573,1.74137 -1.75788,2.75161 -0.97926,0.49622 -1.78047,1.06358 -1.78047,1.26079 0,0.19721 0.39207,1.13227 0.87126,2.07791 0.7872,1.55346 1.01695,1.74332 2.38125,1.96783 2.75681,0.45365 5.25282,1.90839 7.95512,4.63645 1.41052,1.42397 2.64893,2.58903 2.75203,2.58903 0.44302,0 1.20979,-2.57884 1.20979,-4.06881 0,-2.50851 0.79415,-3.67684 2.50612,-3.6869 3.35589,-0.0197 6.30215,8.15789 6.35306,17.63348 0.10455,19.45903 -10.98091,38.85325 -26.92895,47.1127 -4.05645,2.10083 -9.54561,3.86863 -14.12265,4.54826 -3.31969,0.49293 -11.2975,0.67989 -13.66869,0.32033 z m -87.84873,-5.79884 c 3.3584,-0.72025 5.29873,-3.28726 5.29873,-7.01006 0,-1.19459 -0.15601,-2.13072 -0.3551,-2.13072 -3.01397,0 -15.02139,-2.65928 -18.36852,-4.06806 -1.1917,-0.50158 -2.25181,-0.82687 -2.35581,-0.72287 -0.57259,0.57258 3.02782,7.02658 5.4135,9.7041 1.4602,1.63881 4.52255,3.6071 6.39608,4.11099 2.13555,0.57435 1.87275,0.56664 3.97112,0.11662 z m 45.67737,-0.69902 c 3.41271,-1.27686 7.41472,-5.60088 10.05009,-10.85871 0.61766,-1.23231 1.0232,-2.34039 0.90118,-2.4624 -0.12201,-0.12201 -1.20396,0.15582 -2.40434,0.61741 -3.19488,1.22855 -9.03872,2.69696 -13.4714,3.38503 -2.13431,0.3313 -4.25524,0.67155 -4.71319,0.75612 -0.79638,0.14705 -0.82663,0.25985 -0.69488,2.59151 0.11335,2.00601 0.3233,2.69953 1.18541,3.91577 1.98957,2.80683 5.20651,3.52964 9.14713,2.05527 z m 54.34219,0.1958 c 16.67152,-2.507 29.09407,-14.02733 35.1292,-32.57782 1.88959,-5.80814 2.78141,-10.03305 3.03532,-14.37961 0.19926,-3.4108 -0.31186,-8.03098 -0.93075,-8.41347 -0.14054,-0.0869 -0.66956,0.82792 -1.17562,2.03285 -0.82385,1.96159 -0.92202,2.07301 -0.93843,1.06506 -0.0101,-0.61914 -0.15264,-1.20871 -0.31678,-1.31016 -0.3761,-0.23244 -1.65335,2.48566 -2.47083,5.25809 -0.34326,1.16417 -0.77341,2.05574 -0.95589,1.98128 -0.18248,-0.0745 -0.65518,-1.02853 -1.05044,-2.12015 -1.90255,-5.25433 -5.81558,-8.98079 -10.61805,-10.11178 -2.32447,-0.54742 -3.44059,-0.31777 -4.73197,0.97361 -1.51742,1.51741 -1.39235,3.08743 0.77418,9.71847 2.01278,6.16048 2.49321,9.90929 1.73685,13.55269 -1.43127,6.89437 -7.29643,12.95884 -15.65547,16.18748 -8.99777,3.47534 -21.76338,2.31219 -31.14734,-2.83802 -2.964,-1.62674 -3.49442,-1.70113 -4.6161,-0.64737 -0.65347,0.61391 -0.81649,1.13885 -0.81649,2.62924 0,2.34576 -0.51095,3.47476 -1.95933,4.32932 -0.89206,0.52633 -1.19624,0.99316 -1.38845,2.13084 -0.30559,1.80875 -0.15513,1.99831 3.49047,4.3975 10.78022,7.09452 22.78651,9.91932 34.60592,8.14195 z M 233.6967,287.84565 c 0,-3.48739 -0.28051,-4.17674 -1.5995,-3.93071 -0.38146,0.0711 -1.54882,0.14151 -2.59415,0.15635 l -1.9006,0.027 0.24215,3.0868 c 0.29046,3.70268 0.53358,3.96875 3.62647,3.96875 h 2.22563 z m 3.46302,2.16166 c 0.1003,-0.87168 0.002,-0.97014 -0.97014,-0.97014 -0.97198,0 -1.08177,0.10979 -1.08177,1.08177 0,0.97198 0.0985,1.07044 0.97014,0.97014 0.76199,-0.0877 0.99409,-0.31978 1.08177,-1.08177 z m 6.36767,-0.17639 c 0.18308,-0.7276 0.4352,-2.3151 0.56028,-3.52777 l 0.2274,-2.20486 h -2.66335 c -1.46484,0 -2.77113,0.0397 -2.90287,0.0882 -0.13174,0.0485 -0.29543,1.63601 -0.36377,3.52778 l -0.12425,3.43958 h 2.46684 2.46684 z m -17.94457,-2.52754 v -3.49767 l -2.73403,-0.23178 c -1.50372,-0.12747 -3.1309,-0.26008 -3.61597,-0.29468 -0.87203,-0.0622 -0.8831,-0.0278 -0.98439,3.05878 -0.0635,1.93467 0.0478,3.30273 0.29269,3.59779 0.37964,0.45744 1.77043,0.66521 5.366,0.80166 l 1.6757,0.0636 z m 1.54429,0.58727 c -0.36164,-4.4578 -0.79088,-4.82877 -0.81638,-0.70556 -0.0186,3.01348 0.0672,3.61597 0.51506,3.61597 0.45703,0 0.5021,-0.43537 0.30132,-2.91041 z m 18.34991,2.35239 c 0.11777,-0.30691 0.21413,-1.40879 0.21413,-2.44862 0,-1.04596 0.18153,-2.0028 0.40632,-2.14173 0.30116,-0.18612 0.34175,0.46149 0.15683,2.50218 l -0.2495,2.75329 3.09683,-0.23804 c 1.70326,-0.13093 3.25988,-0.40082 3.45915,-0.59977 0.19927,-0.19895 0.41786,-1.87791 0.48575,-3.73102 0.11518,-3.1438 0.0798,-3.35605 -0.52917,-3.17144 -0.65171,0.19758 -6.2294,0.9304 -7.08154,0.9304 -0.2912,0 -0.45766,0.52959 -0.47126,1.4993 -0.0116,0.82462 -0.14498,2.25225 -0.29647,3.17251 -0.15149,0.92026 -0.19495,1.7537 -0.0966,1.85208 0.33198,0.33198 0.69015,0.18201 0.90549,-0.37914 z m -27.90457,-0.61401 c 0.2815,-0.73359 -0.16818,-6.58908 -0.50603,-6.58908 -0.16668,0 -0.30305,1.5875 -0.30305,3.52778 0,3.17031 0.31291,4.35428 0.80908,3.0613 z m 37.2155,-3.17809 c 0.0646,-2.18324 -0.0306,-3.41099 -0.26458,-3.41099 -0.20106,0 -0.36556,0.61172 -0.36556,1.35936 0,0.74765 -0.10424,2.35667 -0.23164,3.5756 -0.18999,1.81778 -0.14243,2.18664 0.26458,2.05162 0.37107,-0.12309 0.5217,-1.02491 0.5972,-3.57559 z m -39.02619,0.0288 c -0.0658,-1.79485 -0.22456,-3.36388 -0.35277,-3.48673 -0.12822,-0.12285 -0.99328,-0.33193 -1.92236,-0.46462 l -1.68925,-0.24126 0.10175,3.28684 0.10174,3.28685 1.23472,0.42106 c 2.62418,0.89488 2.66027,0.85486 2.52617,-2.80214 z m 43.34523,2.55196 c 0.66086,-0.35368 1.0418,-2.44542 0.93057,-5.10977 l -0.0589,-1.41111 -1.92888,0.10619 c -1.06088,0.0584 -1.95216,0.13778 -1.98063,0.17638 -0.0285,0.0386 -0.14104,1.63645 -0.25016,3.55074 l -0.1984,3.48054 1.42947,-0.22858 c 0.7862,-0.12572 1.71183,-0.37969 2.05694,-0.56439 z m 2.28331,-3.87505 c -0.10681,-1.06715 -0.0468,-2.1631 0.13333,-2.43544 0.38041,-0.57511 0.94928,3.74457 0.64591,4.90466 -0.10141,0.38779 -0.0488,0.78889 0.117,0.89134 0.3893,0.2406 4.03453,-1.03936 5.2343,-1.83792 0.50846,-0.33843 1.18799,-0.57379 1.51007,-0.52303 0.32207,0.0508 0.84341,-0.27244 1.15852,-0.71823 0.6789,-0.96047 1.76132,-4.47826 1.46816,-4.77142 -0.19005,-0.19005 -9.37426,1.19735 -10.31444,1.55813 -0.50412,0.19345 -1.05103,5.82529 -0.6316,6.50394 0.47407,0.76706 0.89259,-1.43549 0.67875,-3.57203 z m -52.00982,3.0868 c 0.25495,-4.41977 0.2579,-6.2618 0.01,-6.2618 -0.16661,0 -2.10807,-0.31586 -4.31435,-0.7019 -5.32606,-0.93194 -5.31156,-0.93269 -5.03391,0.26093 0.12412,0.53357 0.51017,1.6337 0.8579,2.44472 0.56542,1.31876 0.94303,1.62231 3.57341,2.87251 2.58813,1.23011 3.62955,1.63288 4.61689,1.78559 0.14552,0.0225 0.27603,-0.15751 0.29002,-0.40005 z m 1.71365,-2.11666 c -0.0363,-3.74743 -0.51406,-4.55893 -0.82516,-1.40168 -0.25575,2.59542 -0.0763,3.95932 0.52095,3.95932 0.18096,0 0.31785,-1.15094 0.30421,-2.55764 z m 26.13035,1.14653 c 0,-1.33272 -0.0588,-1.41112 -1.05833,-1.41112 -0.99954,0 -1.05834,0.0784 -1.05834,1.41112 0,1.33271 0.0588,1.41111 1.05834,1.41111 0.99953,0 1.05833,-0.0784 1.05833,-1.41111 z m -37.04166,-2.32682 c 0,-0.30962 -0.21869,-0.9843 -0.48599,-1.49931 -0.26729,-0.51501 -0.62767,-1.41262 -0.80084,-1.99471 -0.21504,-0.72278 -0.57718,-1.09576 -1.14221,-1.17639 -1.25268,-0.17876 -1.46484,0.30579 -0.97972,2.23758 0.36541,1.45514 0.65391,1.86817 1.66091,2.37785 1.50321,0.76082 1.74785,0.76852 1.74785,0.055 z m 37.04166,-0.84818 c 0,-0.94075 -0.11759,-1.05834 -1.05833,-1.05834 -0.94074,0 -1.05834,0.11759 -1.05834,1.05834 0,0.94074 0.1176,1.05833 1.05834,1.05833 0.94074,0 1.05833,-0.11759 1.05833,-1.05833 z m 36.57904,0.36981 c 0.75587,-0.46089 1.24707,-1.12589 1.49734,-2.02716 0.59105,-2.12842 0.52559,-2.27819 -0.94242,-2.15631 -1.20487,0.10003 -1.33638,0.21617 -1.52218,1.34421 -0.11185,0.6791 -0.39151,1.58147 -0.62146,2.00528 -0.89281,1.64547 -0.27448,1.97005 1.58872,0.83398 z m -36.57904,-3.19204 c 0,-0.94074 -0.11759,-1.05833 -1.05833,-1.05833 -0.94074,0 -1.05834,0.11759 -1.05834,1.05833 0,0.94074 0.1176,1.05834 1.05834,1.05834 0.94074,0 1.05833,-0.1176 1.05833,-1.05834 z m -5.07108,-0.67635 1.45531,-0.66086 0.14915,-9.82653 c 0.082,-5.40459 0.0818,-16.76625 -5e-4,-25.24813 l -0.14965,-15.4216 -2.30124,-1.07688 c -1.26568,-0.59228 -2.37728,-1.00083 -2.47023,-0.90788 -0.0929,0.0929 0.0242,0.92913 0.2603,1.8582 0.80796,3.17922 1.07715,8.1574 0.70951,13.12143 -0.97559,13.17302 -0.90103,12.63079 -2.06047,14.98594 -1.35774,2.75796 -2.80322,3.7078 -4.86193,3.19481 -2.76913,-0.69002 -3.8706,-4.56114 -1.80367,-6.33904 0.65541,-0.56376 0.96115,-1.43652 1.43755,-4.10367 1.545,-8.6498 1.55303,-16.273 0.0236,-22.3619 -0.54425,-2.16666 -0.65588,-2.32195 -2.38062,-3.31151 -2.003,-1.14921 -4.56755,-3.02148 -6.94967,-5.07367 -1.27625,-1.09949 -1.38707,-1.27975 -0.60457,-0.98344 1.41038,0.53408 3.71569,1.72238 5.96719,3.07585 1.09253,0.65677 2.08472,1.19413 2.20486,1.19413 0.12014,0 0.21843,-0.42407 0.21843,-0.94236 0,-3.64768 5.10316,-2.45679 6.80377,1.58776 0.4102,0.97558 1.005,1.40697 3.58676,2.60138 1.73739,0.80378 3.65778,1.44051 4.37794,1.45158 0.74755,0.0115 2.57211,-0.541 4.37221,-1.32392 2.81967,-1.22637 3.14596,-1.47176 3.73867,-2.81167 0.76523,-1.72994 2.42324,-3.23006 3.93765,-3.56268 1.51818,-0.33344 2.81634,0.56525 2.81634,1.94971 0,0.57761 0.0739,1.0502 0.16425,1.0502 0.0903,0 1.71753,-0.86501 3.61597,-1.92225 1.89845,-1.05724 3.92797,-2.03183 4.51005,-2.16576 0.84708,-0.19491 0.495,0.19585 -1.76389,1.95763 -1.55222,1.21064 -3.81555,2.78054 -5.02963,3.48868 -1.95717,1.14157 -2.2633,1.47195 -2.7005,2.91438 -1.05928,3.4948 -1.35503,6.89464 -1.16787,13.42556 0.23776,8.29698 0.97666,12.60252 2.40852,14.03438 1.92065,1.92066 0.89797,5.06571 -1.95321,6.00668 -3.60781,1.19069 -5.67543,-2.25906 -6.23269,-10.39903 -0.17268,-2.52236 -0.46717,-6.01486 -0.65441,-7.76111 -0.34678,-3.23403 10e-4,-9.49699 0.68634,-12.34722 0.65533,-2.72685 0.60906,-2.76405 -1.89941,-1.52707 l -2.25537,1.11217 -0.2572,8.23106 c -0.25354,8.11399 0.0632,40.63273 0.40758,41.84118 0.0974,0.34167 0.63414,0.85761 1.19284,1.14653 1.46304,0.75657 7.69238,0.67822 12.8689,-0.16185 2.32834,-0.37786 5.88363,-0.85472 7.90066,-1.0597 4.8176,-0.48959 7.61736,-0.94768 9.75487,-1.59607 0.96099,-0.2915 2.86991,-0.53172 4.24204,-0.53382 3.0926,-0.005 5.4436,-0.77767 7.09086,-2.33123 1.09499,-1.0327 1.23386,-1.34241 1.03894,-2.31701 -0.12375,-0.61873 -0.30175,-1.20172 -0.39556,-1.29553 -0.0938,-0.0938 -1.40184,0.4063 -2.90674,1.11134 -1.71837,0.80505 -3.70358,1.41844 -5.33682,1.64897 -1.88275,0.26574 -2.88535,0.60663 -3.63201,1.23491 -0.99274,0.83533 -2.24784,1.28038 -4.87985,1.73036 -1.15001,0.19662 -1.10178,0.13751 0.70291,-0.86156 4.10301,-2.27139 5.04868,-3.81128 5.00771,-8.15426 -0.0366,-3.88362 -0.54667,-6.71338 -1.85726,-10.30446 -1.25938,-3.45079 -1.30523,-3.92569 -0.31964,-3.3107 0.60962,0.38039 0.98846,0.2942 2.64583,-0.602 1.06389,-0.57528 1.93434,-1.19709 1.93434,-1.38181 0,-0.27691 -2.31571,-4.73565 -2.6418,-5.08661 -0.0542,-0.0583 -0.99008,0.37631 -2.07975,0.96584 -2.31513,1.25253 -2.67139,0.82707 -0.48192,-0.57553 0.82462,-0.52826 1.57172,-1.01303 1.66022,-1.07726 0.29394,-0.21335 -1.10996,-2.49067 -2.14922,-3.48635 l -1.0237,-0.98076 -2.28636,1.12745 c -1.30543,0.64374 -2.28636,1.3559 -2.28636,1.65992 0,0.91937 -0.54555,0.59123 -2.11854,-1.27424 -0.83789,-0.99369 -2.1709,-2.09658 -2.96224,-2.45087 l -1.43881,-0.64418 2.64244,-1.21037 c 1.45333,-0.6657 3.45134,-1.75807 4.44002,-2.42748 l 1.79759,-1.21712 0.43336,1.086 0.43336,1.086 0.47626,-1.76389 c 1.02551,-3.79814 3.54701,-9.97686 3.9195,-9.60438 0.0894,0.0894 0.0224,1.05667 -0.149,2.14945 -0.17136,1.09278 -0.22904,1.98688 -0.12817,1.98688 0.10087,0 0.47468,-0.26361 0.8307,-0.5858 1.19197,-1.07872 1.00583,-0.25853 -0.28307,1.24725 -0.70096,0.81892 -1.21444,1.54899 -1.14105,1.62237 0.0734,0.0734 1.08444,-0.19051 2.24679,-0.58643 1.76963,-0.60278 2.68715,-0.6899 5.64114,-0.53562 4.83677,0.25261 6.4164,0.90185 2.26889,0.93253 -1.68452,0.0125 -3.87109,0.27408 -4.93889,0.59093 -1.84843,0.54849 -3.86108,1.69248 -3.85199,2.18948 0.002,0.13231 1.91945,1.19306 4.26007,2.35723 5.84271,2.90602 9.65908,6.42027 10.4078,9.58388 0.21983,0.92887 0.16278,0.8998 -0.80779,-0.41166 -1.6228,-2.19274 -4.71382,-4.84212 -6.89081,-5.90625 -3.0758,-1.50348 -8.08532,-2.6087 -8.00757,-1.76667 0.0134,0.14553 0.96526,1.02325 2.11518,1.9505 3.26609,2.63366 7.54875,7.78553 9.29782,11.18494 2.08902,4.06007 2.71386,6.24431 2.9787,10.41248 l 0.22414,3.52778 1.14263,-1.22088 c 2.16873,-2.31725 2.68824,-3.93275 2.84059,-8.83329 0.0754,-2.42535 0.25836,-4.53731 0.40659,-4.69326 0.14822,-0.15595 0.63553,0.55843 1.0829,1.5875 1.18799,2.7327 1.34404,6.52363 0.38514,9.35644 -0.40841,1.20655 -0.74257,2.28742 -0.74257,2.40193 0,0.11452 0.96569,-0.3065 2.14597,-0.93558 6.28682,-3.35084 10.16482,-13.01809 8.80241,-21.94305 -0.60422,-3.95817 -1.50235,-6.27764 -3.69405,-9.54007 -1.29054,-1.92102 -2.35005,-4.09225 -3.20741,-6.5728 -1.2044,-3.48467 -4.90707,-10.58333 -5.52028,-10.58333 -0.15392,0 -1.62196,0.38893 -3.2623,0.86428 -4.25515,1.23309 -9.71509,1.9637 -14.35961,1.92148 -3.42797,-0.0311 -3.80635,-0.0879 -2.60056,-0.38974 12.64921,-3.16687 18.53086,-5.57175 28.95029,-11.83712 2.89803,-1.74263 6.77728,-3.92445 8.62054,-4.84849 4.78684,-2.39967 7.17163,-4.11202 10.58333,-7.59916 6.15015,-6.28613 10.06313,-14.6425 12.05134,-25.73624 1.04287,-5.81895 1.27674,-16.38116 0.48782,-22.03098 -1.38555,-9.92256 -5.00017,-20.27824 -10.14573,-29.06696 -7.00691,-11.96794 -22.25429,-29.801892 -33.61426,-39.316615 -15.44785,-12.938592 -32.45627,-22.790794 -42.80533,-24.795182 -3.55092,-0.687734 -4.21746,-0.654337 -4.35416,0.218161 -0.14959,0.954796 -0.78699,0.92138 -0.93745,-0.04915 -0.11361,-0.732805 -0.24004,-0.758459 -2.70922,-0.549737 -9.97145,0.842896 -27.55093,11.04432 -43.89153,25.470386 -5.01139,4.424235 -14.80673,14.383896 -18.41673,18.72567 -4.05745,4.879937 -11.92656,15.460937 -13.9759,18.792367 -4.17614,6.78876 -7.79768,15.23629 -9.62006,22.43954 -4.30965,17.03464 -1.71176,37.7606 6.28108,50.11037 3.70214,5.72019 8.06106,9.56762 15.07098,13.3025 2.32833,1.24054 5.74145,3.18164 7.58472,4.31356 6.25328,3.84005 8.63756,5.22195 11.28889,6.54291 2.42437,1.20789 9.9626,3.85042 16.05138,5.62683 l 2.46945,0.72047 -5.11528,-0.16928 c -5.26947,-0.17437 -10.1566,-0.97008 -13.7957,-2.24618 l -1.97764,-0.69349 -1.41854,2.16837 c -1.98662,3.03673 -3.36206,5.9086 -4.50216,9.40032 -0.71925,2.2028 -1.43233,3.55724 -2.68689,5.10352 -3.55805,4.38539 -4.88737,8.22669 -4.88737,14.12287 0,4.21515 0.73154,7.50146 2.44268,10.97336 1.53476,3.114 3.37454,5.24529 5.923,6.86147 2.04384,1.29616 2.36016,1.30302 1.70546,0.037 -0.28493,-0.551 -0.70077,-2.05104 -0.92409,-3.33343 -0.46497,-2.67005 -0.16061,-4.67055 1.13842,-7.48282 l 0.81478,-1.76389 0.1896,4.7625 c 0.15285,3.83953 0.33644,5.08593 0.94728,6.43138 0.72903,1.60575 2.23227,3.44588 2.81583,3.44688 0.15434,2.7e-4 0.22598,-0.87729 0.1592,-1.95013 -0.24884,-3.99778 1.73408,-10.15819 4.71117,-14.63638 1.81909,-2.73629 5.81595,-6.83686 8.317,-8.53277 0.94343,-0.63973 1.71943,-1.2822 1.72443,-1.42773 0.0275,-0.80111 -4.81143,0.3225 -7.93833,1.84329 -2.27084,1.10444 -6.17817,4.40679 -7.30089,6.17047 -0.61129,0.96028 -0.65577,0.97964 -0.43291,0.18833 1.07238,-3.80765 5.17602,-7.38192 11.9057,-10.36986 1.70208,-0.75572 3.03778,-1.54947 2.96822,-1.76389 -0.0696,-0.21443 -0.81704,-0.77414 -1.66108,-1.24381 -1.2805,-0.71256 -2.21084,-0.88998 -5.61853,-1.07151 l -4.08392,-0.21755 1.5875,-0.49741 c 0.87313,-0.27358 3.09563,-0.50578 4.93889,-0.516 2.73626,-0.0152 3.62658,0.11898 4.8507,0.73091 1.7922,0.8959 1.8823,0.61072 0.37223,-1.17819 -0.61989,-0.73435 -0.90564,-1.13675 -0.635,-0.89422 1.1039,0.98927 1.36123,0.51343 0.82756,-1.53025 -0.28312,-1.08418 -0.44483,-2.15574 -0.35935,-2.38125 0.24669,-0.65081 3.30323,6.04707 3.96121,8.68029 0.48751,1.951 0.68521,2.31399 1.08129,1.98528 0.26658,-0.22125 0.48469,-0.62095 0.48469,-0.88824 0,-0.65785 0.23933,-0.6148 1.47552,0.26545 0.5804,0.41328 2.66865,1.61718 4.64057,2.67534 1.97192,1.05816 3.29862,1.83285 2.94822,1.72153 -1.11658,-0.35472 -2.83893,0.67978 -4.63609,2.78461 -1.66591,1.9511 -1.76132,2.0085 -2.09513,1.26041 -0.34174,-0.76588 -3.9408,-2.84331 -4.9259,-2.84331 -0.51565,0 -3.05163,3.41169 -3.05163,4.1054 0,0.21731 0.46477,0.58763 1.03283,0.82293 0.97773,0.40499 2.528,1.77445 2.00873,1.77445 -0.13354,0 -1.04705,-0.40755 -2.03003,-0.90566 -0.98298,-0.49812 -1.83422,-0.85531 -1.89164,-0.79375 -0.0574,0.0615 -0.69314,1.187 -1.41272,2.501 -1.49991,2.73895 -1.45989,2.87531 1.21083,4.12621 l 1.76264,0.82558 0.68814,-0.84822 0.68813,-0.84822 -0.30335,1.5875 c -0.16685,0.87313 -0.63528,2.54 -1.04096,3.70417 -1.60463,4.60472 -2.24417,11.41365 -1.28718,13.70405 0.52174,1.2487 2.3741,2.86762 4.63152,4.04784 1.24708,0.652 1.30859,0.73934 0.52917,0.75138 -1.53175,0.0237 -3.39737,-0.66146 -4.76865,-1.75121 -0.95899,-0.76212 -1.70549,-1.05345 -2.69932,-1.05345 -1.64823,0 -5.17431,-1.14081 -7.20572,-2.33129 -1.66323,-0.97472 -1.90686,-0.78486 -1.90686,1.48597 0,1.0589 0.20801,1.34555 1.63154,2.24833 1.68294,1.06729 4.9033,1.94966 5.82491,1.59601 0.28761,-0.11037 2.65663,0.27188 5.26449,0.84943 2.60785,0.57756 6.96406,1.30623 9.68044,1.61928 2.71639,0.31304 6.28827,0.78266 7.9375,1.04359 4.68006,0.74045 10.78767,0.67625 12.56781,-0.13212 z m -26.66458,-30.38469 c 0.0239,-0.85436 2.0499,-2.99917 2.45262,-2.59644 0.2371,0.2371 -0.11217,0.80962 -1.05637,1.73161 -0.81418,0.79503 -1.40452,1.16068 -1.39625,0.86483 z m 58.97953,-1.04952 c -0.76444,-0.91054 -1.00847,-1.44193 -0.73874,-1.60864 0.37761,-0.23337 1.28295,0.65245 2.08086,2.03599 0.68628,1.18998 -0.22895,0.89855 -1.34212,-0.42735 z m -30.41887,-26.18535 c -2.92509,-5.34067 -6.82054,-8.3991 -14.55208,-11.42527 -2.27983,-0.89234 -4.14514,-1.69415 -4.14514,-1.78181 0,-0.0877 1.30969,-0.0557 2.91042,0.0711 l 2.91041,0.23043 -1.5875,-1.10657 c -2.79875,-1.95087 -3.977,-2.39745 -10.65101,-4.03692 -6.09629,-1.49756 -12.051,-3.34556 -16.40015,-5.08968 -3.62338,-1.45307 -10.91888,-5.30431 -13.11228,-6.92187 -6.52055,-4.8087 -10.90848,-11.52185 -12.61009,-19.29239 -1.82953,-8.3547 -0.52965,-20.75327 3.24053,-30.90876 1.93235,-5.20504 6.18928,-12.88458 10.01969,-18.07562 0.93061,-1.26118 1.85673,-2.92805 2.05803,-3.70416 0.2013,-0.77611 0.64066,-2.52236 0.97635,-3.88056 3.36625,-13.6195 16.38086,-26.796523 32.05727,-32.457315 5.71386,-2.063286 8.16832,-2.468336 14.9168,-2.461664 l 6.08542,0.006 v -1.8581 c 0,-1.975513 -0.0117,-1.985996 -2.11667,-1.900288 l -0.88194,0.03591 0.88194,-0.389321 c 1.16839,-0.515765 4.95121,-0.538033 5.82986,-0.03432 0.57503,0.329659 0.4575,0.361822 -0.67376,0.18438 l -1.37029,-0.214933 0.2578,2.082319 c 0.1418,1.145275 0.31913,2.145723 0.39407,2.223218 0.27237,0.281662 5.12348,-0.693308 7.10809,-1.428578 1.98329,-0.734775 2.69132,-1.342183 6.44445,-5.528538 0.81225,-0.906017 1.23158,-1.120444 1.84889,-0.945454 1.9762,0.560192 3.80904,3.942487 4.37535,8.074196 0.21647,1.579353 0.3809,1.790718 2.91234,3.74365 3.66548,2.827807 4.85575,3.853658 4.48868,3.868637 -0.171,0.007 -1.73318,-0.475654 -3.47151,-1.072515 -1.73833,-0.596861 -3.2164,-1.029405 -3.2846,-0.96121 -0.14846,0.148461 -0.86402,4.462715 -0.86782,5.232247 -0.002,0.323576 1.0931,1.080384 2.73137,1.888306 14.26645,7.035603 26.84808,18.554123 35.88131,32.849463 12.43803,19.68353 15.11518,41.37892 6.83025,55.35174 -1.71666,2.8952 -5.98186,7.46502 -8.93309,9.57109 -6.5365,4.6646 -18.16348,9.1428 -31.1745,12.00704 -6.10021,1.34289 -6.62475,1.5348 -9.92411,3.63089 l -2.29306,1.45678 2.73403,-0.22651 c 1.77349,-0.14693 2.73403,-0.0999 2.73403,0.13381 0,0.19817 -1.46844,0.87121 -3.2632,1.49564 -7.53749,2.62241 -11.95096,5.96214 -15.28311,11.56493 -0.95201,1.60073 -1.89135,2.90787 -2.08744,2.90475 -0.19609,-0.003 -1.0709,-1.30998 -1.94403,-2.90414 z m 3.14878,-6.0436 c 1.56407,-2.53072 6.73505,-6.86116 11.86918,-9.93986 0.44148,-0.26474 -0.33948,-0.28193 -2.70052,-0.0594 -1.82688,0.17215 -7.82644,0.23948 -13.33235,0.14962 l -10.01074,-0.16337 1.1913,0.71391 c 4.92066,2.94883 8.5481,6.02709 10.5964,8.99214 0.56965,0.82462 1.17391,1.49931 1.34279,1.49931 0.16889,0 0.63866,-0.53654 1.04394,-1.1923 z m 14.49011,-16.26357 c 20.17427,-2.45239 35.6209,-8.11379 43.21538,-15.83901 5.2202,-5.31008 7.93739,-12.19703 7.93739,-20.11801 0,-19.41029 -11.11272,-40.60312 -28.70112,-54.73531 -4.28331,-3.44161 -9.84908,-7.15415 -14.33776,-9.56372 -3.2865,-1.764231 -2.99567,-1.86004 -4.76667,1.57026 -4.23817,8.209 -9.94042,13.94992 -17.5448,17.66377 -5.78551,2.82555 -9.93886,3.61466 -11.00603,2.09107 -0.75597,-1.07931 -0.68719,-1.90325 0.34375,-4.11792 0.48731,-1.04684 0.80133,-1.98804 0.69783,-2.09155 -0.10351,-0.1035 -1.01971,0.071 -2.036,0.38782 -1.01629,0.31681 -4.30843,1.0683 -7.31586,1.66998 -11.8273,2.36623 -18.55781,5.50974 -26.80842,12.52098 -3.39668,2.88644 -4.15543,3.35085 -5.47469,3.35085 -1.03412,0 -2.99466,-1.7144 -2.99466,-2.6187 0,-3.10537 -5.70865,7.39381 -8.42504,15.49508 -3.63321,10.83557 -4.19377,21.17817 -1.54874,28.575 3.18339,8.90233 10.14877,15.08902 22.20808,19.72534 8.72013,3.35254 20.1496,5.68724 32.74486,6.68879 3.99004,0.31728 19.27326,-0.10293 23.8125,-0.65472 z m -21.37435,-25.19177 c -1.4475,-0.88268 -2.52308,-2.2972 -3.02786,-3.98199 -0.34712,-1.15857 -0.32522,-1.46635 0.1372,-1.92877 0.8395,-0.8395 1.81219,-0.30447 2.67494,1.47133 1.24389,2.56029 2.31251,2.75495 6.09554,1.11031 1.19968,-0.52154 1.34868,-0.50656 2.99861,0.30155 0.95491,0.4677 1.9926,0.85533 2.30598,0.8614 0.9433,0.0183 2.31161,-1.29858 2.91419,-2.80459 0.58405,-1.45968 1.42988,-1.8308 2.2663,-0.99438 1.23458,1.23458 -0.46217,4.73296 -2.85806,5.89278 -1.83306,0.88738 -2.76503,0.92026 -4.95298,0.17475 -1.51948,-0.51774 -1.77463,-0.51774 -3.06859,0 -1.88938,0.75598 -4.14673,0.71384 -5.48527,-0.10239 z m -35.34063,-1.1103 c -5.73025,-1.86958 -9.13998,-8.50054 -7.88409,-15.33234 1.30336,-7.08998 7.46115,-13.22861 13.26991,-13.22861 4.25648,0 8.77859,3.313 10.38591,7.60893 2.47209,6.60726 1.4002,13.64228 -2.73046,17.92047 -3.27843,3.39551 -8.328,4.56933 -13.04127,3.03155 z m 7.33827,-1.74795 c 1.96748,-0.54659 4.38307,-2.25976 5.00921,-3.55259 0.31533,-0.65109 0.49864,-1.30466 0.40734,-1.45238 -0.0913,-0.14771 -1.12803,0.23572 -2.30385,0.85207 l -2.13787,1.12064 -1.64003,-0.63432 c -0.90202,-0.34887 -2.27011,-0.68429 -3.04022,-0.74537 -0.7701,-0.0611 -1.46824,-0.31522 -1.55142,-0.56476 -0.0832,-0.24953 -0.51098,-0.81345 -0.95068,-1.25315 -2.27975,-2.27975 -5.37174,-0.56793 -4.59123,2.54186 0.20271,0.80764 2.98634,2.92209 4.79949,3.64569 1.14352,0.45636 4.42554,0.4795 5.99926,0.0423 z m -4.45582,-11.39929 c 0.75935,-0.55525 0.64128,-1.95349 -0.21001,-2.48702 -0.45602,-0.2858 -0.76793,-0.21902 -1.32292,0.28324 -0.86976,0.78712 -0.91684,1.36515 -0.17184,2.11015 0.67371,0.67371 0.89486,0.68585 1.70477,0.0936 z m 8.57148,-5.00841 c 0.41638,-0.29165 0.93827,-1.07935 1.15976,-1.75046 0.54701,-1.65746 -0.28951,-3.44061 -1.99337,-4.24915 -3.60161,-1.70907 -6.37863,2.92197 -3.40483,5.67799 1.07217,0.99366 3.06326,1.14475 4.23844,0.32162 z m 64.76473,18.36291 c -5.11753,-1.59935 -8.15775,-5.44649 -8.86879,-11.22267 -0.93396,-7.58714 2.09901,-14.42226 7.48483,-16.86788 2.33336,-1.05955 5.88576,-0.92015 8.53906,0.33509 3.85369,1.82312 7.04342,5.89133 8.45633,10.78529 0.45327,1.57003 0.56041,2.88754 0.4262,5.24132 -0.15244,2.67359 -0.35716,3.4901 -1.36793,5.456 -1.50237,2.92203 -3.6614,4.77919 -6.87381,5.91274 -2.72067,0.96003 -5.46993,1.08702 -7.79589,0.36011 z m 7.52347,-2.79779 c 2.75195,-1.31884 4.01729,-2.62049 4.01729,-4.13258 0,-1.18263 -1.20533,-2.43562 -2.34298,-2.43562 -1.25959,0 -2.6062,0.76051 -3.12581,1.76532 -0.4,0.77352 -0.74696,0.93638 -2.14951,1.00898 -1.88288,0.0975 -2.96503,0.55227 -2.96503,1.24614 0,0.67498 -1.56688,0.30359 -3.80031,-0.90077 -1.02302,-0.55165 -1.93584,-1.003 -2.02848,-1.003 -0.0926,0 -0.16843,0.34668 -0.16843,0.77041 0,1.01584 3.01267,3.90718 4.59726,4.41212 0.67296,0.21444 2.18055,0.40609 3.35019,0.4259 1.73624,0.0294 2.58356,-0.18297 4.61581,-1.1569 z m -0.71254,-11.33528 c 0.2333,-0.92954 -0.32782,-1.93569 -1.07952,-1.93569 -0.23721,0 -0.70668,0.30429 -1.04326,0.67621 -0.4882,0.53946 -0.53242,0.82482 -0.21865,1.41111 0.57624,1.07671 2.05721,0.98081 2.34143,-0.15163 z m -6.552,-4.2324 c 3.761,-1.94489 1.04355,-7.77414 -2.86867,-6.15364 -2.24493,0.92988 -2.70651,4.45169 -0.78186,5.96562 1.08889,0.85652 2.24287,0.91595 3.65053,0.18802 z m -81.39571,-32.02252 c 6.00325,-5.23273 12.83181,-8.62538 21.90264,-10.88194 2.35196,-0.5851 4.5938,-1.19306 4.98185,-1.35103 0.38806,-0.15796 2.37243,-0.45771 4.40972,-0.66611 4.82326,-0.49339 7.12358,-1.2096 8.82661,-2.74819 2.55534,-2.30859 3.55978,-0.8941 1.82888,2.57548 -1.28473,2.57525 -1.58968,4.07175 -0.99533,4.88457 0.40007,0.54712 0.61411,0.56835 1.83457,0.18196 2.29584,-0.72685 5.76393,-2.76331 8.46593,-4.9712 9.07932,-7.41898 14.24515,-17.818972 13.38902,-26.955162 -0.13372,-1.426949 -0.44236,-2.866931 -0.68588,-3.199961 -0.40322,-0.55143 -0.63437,-0.451724 -2.58818,1.116404 -2.40447,1.92983 -5.39839,3.215839 -8.51093,3.655795 -1.14825,0.162303 -4.92223,0.210542 -8.38662,0.107198 -9.44789,-0.281833 -14.82616,0.64328 -21.16018,3.639753 -2.61623,1.237674 -8.92673,5.426554 -11.94983,7.932245 -6.14762,5.095438 -11.2719,12.735118 -13.23006,19.724418 -0.73236,2.61403 -1.38878,9.17222 -0.91806,9.17222 0.13367,0 1.3873,-0.9974 2.78585,-2.21645 z m -16.08093,75.53049 c -2.81558,-2.48356 -6.97052,-7.51487 -8.59317,-10.40564 -1.46847,-2.61612 -2.98902,-5.7584 -2.78648,-5.7584 0.0696,0 0.88967,1.30154 1.82228,2.89231 2.24816,3.83475 5.19257,7.76769 8.83278,11.79819 1.63983,1.81564 2.93342,3.29546 2.87465,3.28849 -0.0588,-0.007 -1.0263,-0.8237 -2.15006,-1.81495 z m 126.51664,-1.31206 c 2.87198,-3.07622 7.1878,-8.80217 8.96989,-11.90063 1.87715,-3.26377 1.83993,-2.43452 -0.0502,1.11858 -2.26291,4.25384 -6.39159,9.38147 -9.70635,12.05483 -1.40878,1.13619 -1.30383,0.96639 0.78667,-1.27278 z m 11.50869,-23.67143 c 1.42795,-3.71763 3.12867,-10.28102 3.7206,-14.35852 l 0.50181,-3.45675 -0.14645,4.31689 c -0.17267,5.0898 -0.83264,8.05886 -2.64755,11.91088 -1.8428,3.91122 -2.67711,4.83845 -1.42841,1.5875 z M 161.05935,174.0574 c -1.99811,-3.84061 -2.85406,-7.37646 -3.03793,-12.54938 l -0.15048,-4.23334 0.51887,3.175 c 0.70354,4.30504 2.14452,9.98621 3.38903,13.36152 0.56554,1.53381 0.96535,2.85165 0.88848,2.92852 -0.0769,0.0769 -0.80046,-1.13017 -1.60797,-2.68232 z m 144.44528,-31.28539 c -1.07553,-3.16772 -3.92789,-9.28879 -5.77672,-12.39663 -0.60599,-1.01864 -1.03416,-1.85208 -0.95151,-1.85208 0.372,0 2.44704,3.42892 4.19334,6.92933 1.74774,3.50329 4.04636,9.82719 3.69847,10.17508 -0.0797,0.0797 -0.60327,-1.20541 -1.16358,-2.8557 z m -137.75349,1.42788 c -0.0464,-0.72845 2.00618,-6.35848 3.14304,-8.62104 1.14048,-2.26976 4.79657,-8.11389 5.07605,-8.11389 0.0797,0 -0.86244,1.76541 -2.09364,3.92313 -1.23121,2.15771 -2.96888,5.6899 -3.8615,7.8493 -2.16912,5.24747 -2.2364,5.39495 -2.26395,4.9625 z m 68.06303,-69.862945 c -4.4e-4,-0.795343 0.10187,-2.660655 0.22735,-4.145138 0.18779,-2.221451 0.33482,-2.69906 0.83094,-2.69906 0.48677,0 0.64605,0.458274 0.82767,2.38125 0.12369,1.309688 0.22602,3.191904 0.2274,4.182703 0.002,1.775005 -0.013,1.800901 -1.05502,1.763889 -0.99661,-0.0354 -1.05758,-0.120863 -1.05834,-1.483644 z m 0.35198,-11.253919 c 0,-1.705093 0.0855,-1.940278 0.70555,-1.940278 0.62004,0 0.70556,0.235185 0.70556,1.940278 0,1.705092 -0.0855,1.940277 -0.70556,1.940277 -0.62003,0 -0.70555,-0.235185 -0.70555,-1.940277 z m 0.24253,-4.28478 c -0.13339,-0.133394 -0.24253,-0.942092 -0.24253,-1.797106 0,-1.29065 0.10481,-1.534386 0.61736,-1.435677 0.47648,0.09176 0.61736,0.473335 0.61736,1.672163 0,1.449185 -0.42894,2.123868 -0.99219,1.56062 z m 0.8158,219.852804 c 0,-1.02961 -0.46069,-1.38081 -1.41427,-1.07815 -0.44775,0.14211 -0.7024,0.53405 -0.7024,1.0811 0,0.71834 0.17245,0.85817 1.05834,0.85817 0.88688,0 1.05833,-0.1395 1.05833,-0.86112 z m 0,-2.66665 c 0,-0.89721 -0.13596,-1.05834 -0.89301,-1.05834 -0.94539,0 -1.43381,0.7074 -1.09608,1.5875 0.11168,0.29105 0.60492,0.52917 1.09608,0.52917 0.75705,0 0.89301,-0.16113 0.89301,-1.05833 z m -0.14673,-3.61597 c -0.0577,-1.14142 -0.25058,-1.83855 -0.50263,-1.81681 -0.22493,0.0194 -0.62002,0.0591 -0.87796,0.0882 -0.31439,0.0355 -0.48224,0.63437 -0.50917,1.81681 -0.0391,1.716 -0.0127,1.76389 0.97162,1.76389 0.99729,0 1.01046,-0.0266 0.91814,-1.85208 z m -39.05405,-4.265 0.0488,-2.2513 -1.67722,-0.66651 c -0.92247,-0.36657 -1.77466,-0.71196 -1.89375,-0.76752 -0.31719,-0.14799 -0.69065,2.98477 -0.43519,3.65051 0.24185,0.63025 3.30767,2.65747 3.67533,2.43024 0.12826,-0.0793 0.25517,-1.15721 0.28202,-2.39542 z m 77.63012,1.47824 1.78732,-1.11107 v -2.06393 c 0,-1.13517 -0.0847,-2.06394 -0.18811,-2.06394 -0.10347,0 -0.97659,0.39955 -1.94028,0.88789 l -1.75216,0.88789 v 2.28711 c 0,1.25791 0.0688,2.28711 0.15295,2.28711 0.0841,0 0.95724,-0.49998 1.94028,-1.11106 z m -38.49624,-1.27019 c -0.0949,-1.14673 -0.22695,-1.32292 -0.99143,-1.32292 -0.76449,0 -0.89653,0.17619 -0.99144,1.32292 -0.10506,1.26949 -0.065,1.32292 0.99144,1.32292 1.05646,0 1.0965,-0.0534 0.99143,-1.32292 z m -45.30587,-1.5875 c 0.70814,-4.84639 1.16012,-6.63338 2.52457,-9.98141 1.26469,-3.10321 1.47422,-3.9143 1.12302,-4.34709 -0.3596,-0.44315 -0.3287,-0.49345 0.1849,-0.30097 0.42061,0.15762 0.76506,-0.0177 1.08345,-0.55131 0.25674,-0.43033 0.98031,-1.64068 1.60794,-2.68968 0.88574,-1.4804 1.03802,-1.97376 0.68043,-2.20441 -0.91349,-0.58921 -1.55219,-0.0729 -3.55912,2.87696 -3.93192,5.77931 -5.57623,9.88898 -5.66502,14.15873 -0.0458,2.204 0.0661,2.82904 0.61603,3.43958 0.92031,1.02178 1.20798,0.93972 1.4038,-0.4004 z m 88.92082,0.36248 c 0.70169,-1.00181 0.72262,-4.39903 0.0432,-7.00764 -0.60042,-2.30517 -3.26428,-7.71036 -3.92486,-7.96385 -0.25491,-0.0978 -0.38883,-0.37236 -0.2976,-0.6101 0.0912,-0.23774 -0.60226,-1.45491 -1.5411,-2.70483 -1.24354,-1.6556 -1.89322,-2.23954 -2.393,-2.15085 -0.37732,0.0669 -0.74333,0.17716 -0.81335,0.2449 -0.07,0.0677 0.5718,1.28296 1.42627,2.70049 1.04021,1.72566 1.75666,2.56045 2.16816,2.52626 0.4612,-0.0383 0.52106,0.0616 0.23986,0.40045 -0.27437,0.3306 -0.0392,1.18764 0.87806,3.20054 1.56158,3.42665 2.6469,7.60041 2.6469,10.17898 0,2.17856 0.57004,2.60973 1.5675,1.18565 z m -43.72444,-2.03817 c 0,-1.08185 -0.10919,-1.23473 -0.88194,-1.23473 -0.65429,0 -0.91191,0.21152 -0.99804,0.81941 -0.17989,1.26969 0.20082,1.88848 1.08466,1.76298 0.65224,-0.0926 0.79532,-0.33507 0.79532,-1.34766 z m -38.13992,-2.44707 c 0.33476,-1.24888 1.06594,-3.34529 1.62484,-4.65869 l 1.01619,-2.388 -2.00611,-0.96884 c -1.10336,-0.53287 -2.10309,-1.02202 -2.22163,-1.087 -0.11854,-0.065 -0.53693,0.64177 -0.92976,1.57058 -1.36796,3.23445 -1.39373,3.10684 0.81209,4.0211 2.42507,1.00513 2.00571,1.31655 -0.49391,0.36677 -2.03258,-0.77232 -1.93212,-0.86143 -2.32596,2.06337 l -0.21377,1.5875 1.85981,1.12266 c 1.02289,0.61747 1.952,1.01434 2.06468,0.88195 0.11269,-0.1324 0.47878,-1.26253 0.81353,-2.5114 z m 76.49861,1.83906 1.76528,-0.96079 -0.18848,-2.07863 c -0.10367,-1.14324 -0.32826,-2.2184 -0.4991,-2.38923 -0.17896,-0.17897 -0.89602,-0.0122 -1.69184,0.39358 -0.75968,0.3873 -1.70486,0.69679 -2.10039,0.68775 -0.39554,-0.009 0.15365,-0.37589 1.22042,-0.81522 1.10759,-0.45613 1.98881,-1.05438 2.05434,-1.39466 0.1088,-0.56499 -1.48299,-4.47646 -1.82173,-4.47646 -0.0879,0 -0.85079,0.39496 -1.69521,0.8777 -0.84442,0.48273 -1.82382,0.8796 -2.17645,0.88194 -0.74725,0.005 -0.61862,0.64589 0.63804,3.17925 0.77297,1.55826 1.67122,4.1672 2.09518,6.08542 0.11793,0.53357 0.30897,0.97013 0.42454,0.97013 0.11556,0 1.00449,-0.43235 1.9754,-0.96078 z m -38.1823,-2.74338 c 0,-1.52871 -0.0392,-1.5875 -1.05833,-1.5875 -1.01914,0 -1.05834,0.0588 -1.05834,1.5875 0,1.5287 0.0392,1.5875 1.05834,1.5875 1.01913,0 1.05833,-0.0588 1.05833,-1.5875 z m 0,-3.35139 c 0,-0.98297 -0.1518,-1.41111 -0.50031,-1.41111 -1.16752,0 -1.61636,0.45131 -1.61636,1.62524 0,1.09479 0.0904,1.19698 1.05834,1.19698 0.99953,0 1.05833,-0.0784 1.05833,-1.41111 z m -12.42572,0.15638 c 0.43123,-0.30204 0.78119,-0.65923 0.7777,-0.79375 -0.004,-0.13451 -0.64478,-0.77474 -1.42506,-1.42273 -1.09653,-0.91061 -1.52703,-1.08823 -1.89579,-0.78219 -0.81649,0.67762 -0.87227,1.73185 -0.14084,2.66171 0.80219,1.01983 1.57123,1.11638 2.68399,0.33696 z m 24.2977,0.0308 c 0.89728,-0.62848 1.1737,-1.53553 0.78674,-2.58159 -0.39881,-1.07807 -1.0221,-0.97981 -2.63397,0.41524 -1.37228,1.18769 -1.37712,1.20091 -0.70966,1.94028 0.79014,0.87527 1.53589,0.94121 2.55689,0.22607 z m -11.87198,-3.18579 c 0,-1.13673 -0.084,-1.23472 -1.05833,-1.23472 -0.97434,0 -1.05834,0.098 -1.05834,1.23472 0,1.13673 0.084,1.23472 1.05834,1.23472 0.97434,0 1.05833,-0.098 1.05833,-1.23472 z m -10.1238,-1.32292 c 0.42095,-0.8939 0.59327,-3.2453 0.78204,-10.67152 0.22594,-8.88815 0.19194,-9.76745 -0.50847,-13.15112 -1.22863,-5.93549 -2.868,-9.37315 -3.95266,-8.28849 -0.27236,0.27236 -0.12317,1.26862 0.5244,3.5018 0.49779,1.71663 1.089,4.20988 1.31381,5.54056 0.58534,3.46473 0.20372,13.86899 -0.68763,18.74724 l -0.70905,3.88056 0.74495,0.79375 c 1.03996,1.10808 1.85927,0.99212 2.49261,-0.35278 z m 20.00821,-0.0962 c 0.40357,-0.48628 0.37814,-1.16034 -0.16379,-4.34079 -0.35285,-2.07081 -0.71634,-6.38449 -0.80774,-9.58594 -0.17822,-6.24253 0.27006,-10.12648 1.71961,-14.89879 0.7119,-2.34379 0.69806,-3.44566 -0.0433,-3.44566 -0.59074,0 -1.72352,2.10587 -2.46694,4.58611 -1.51895,5.06759 -1.8208,8.29588 -1.66241,17.77925 0.0822,4.92141 0.274,9.16533 0.42623,9.43092 1.0147,1.77035 1.81763,1.89753 2.99831,0.4749 z m -9.88441,-1.7559 c 0,-1.13673 -0.084,-1.23472 -1.05833,-1.23472 -0.97434,0 -1.05834,0.098 -1.05834,1.23472 0,1.13673 0.084,1.23472 1.05834,1.23472 0.97434,0 1.05833,-0.098 1.05833,-1.23472 z m -0.0658,-3.26319 c 0.10298,-1.06807 0.0366,-1.14653 -0.97014,-1.14653 -1.00372,0 -1.08069,0.0896 -1.08069,1.25815 0,1.16441 0.0723,1.24984 0.97014,1.14653 0.80838,-0.093 0.98858,-0.3028 1.08069,-1.25815 z m 0.0658,-3.12794 c 0,-1.09103 -0.0909,-1.19359 -1.05833,-1.19359 -1.01847,0 -1.21168,0.25165 -1.08337,1.41111 0.12289,1.11057 0.34646,1.31926 1.23195,1.14999 0.76429,-0.1461 0.90975,-0.36475 0.90975,-1.36751 z m -36.39026,-1.05986 c 0.43559,-0.89659 0.73278,-1.68936 0.66042,-1.76172 -0.19019,-0.1902 -3.07571,2.33153 -3.07571,2.68794 0,0.25278 0.43123,0.45285 1.42901,0.66301 0.10686,0.0225 0.55068,-0.69264 0.98628,-1.58923 z m 71.66804,1.16248 c 0,-0.52887 -1.08423,-1.58849 -2.63219,-2.57244 -1.12181,-0.71307 -1.13215,-0.75671 0.40692,1.7172 0.80954,1.30127 2.22527,1.84538 2.22527,0.85524 z m -59.63067,-5.2001 c 0.006,-0.10984 -0.92645,-0.64789 -2.07251,-1.19565 l -2.08373,-0.99593 -1.20267,0.74329 c -1.59007,0.98271 -2.69963,2.23386 -2.15156,2.42612 0.22869,0.0802 1.26057,0.76482 2.29306,1.52133 l 1.87725,1.37547 1.66446,-1.83745 c 0.91546,-1.0106 1.66952,-1.92733 1.6757,-2.03718 z m 50.57174,2.69337 c 0.61851,-0.47176 1.56541,-1.02535 2.10422,-1.23021 0.93978,-0.3573 0.95714,-0.40684 0.42645,-1.21677 -0.30426,-0.46437 -1.22633,-1.2014 -2.04904,-1.63785 l -1.49583,-0.79354 -1.8426,0.93372 c -1.01343,0.51355 -1.84261,1.01465 -1.84261,1.11357 0,0.0989 0.51594,0.74534 1.14653,1.43649 0.63059,0.69116 1.27348,1.48068 1.42864,1.75449 0.3961,0.69899 0.83302,0.62496 2.12424,-0.3599 z m -26.21885,-1.28236 c 0,-1.74168 -0.0248,-1.78447 -0.97014,-1.67569 -0.88842,0.10222 -0.97919,0.25277 -1.07766,1.78732 -0.10631,1.65684 -0.0954,1.67569 0.97014,1.67569 1.05989,0 1.07766,-0.0295 1.07766,-1.78732 z m 0,-3.85712 c 0,-1.33272 -0.0588,-1.41111 -1.05833,-1.41111 -0.99954,0 -1.05834,0.0784 -1.05834,1.41111 0,1.33271 0.0588,1.41111 1.05834,1.41111 0.99953,0 1.05833,-0.0784 1.05833,-1.41111 z m -0.0637,-2.91042 c -0.0807,-0.56833 -0.38824,-0.82545 -1.08287,-0.90537 -0.83532,-0.0961 -0.97014,0.0142 -0.97014,0.79374 0,0.77535 0.15553,0.90538 1.08287,0.90538 0.9212,0 1.06604,-0.11851 0.97014,-0.79375 z m 94.76204,-1.53175 c -0.0124,-0.75826 -0.15839,-1.68252 -0.32453,-2.0539 -0.20423,-0.45648 -0.17916,-0.59926 0.0774,-0.44071 0.21204,0.13104 0.91322,-0.50845 1.58928,-1.44948 1.3148,-1.83011 4.35819,-3.71131 6.70993,-4.14759 0.72974,-0.13537 1.40979,-0.38039 1.5112,-0.54448 0.33576,-0.54327 -2.0501,-2.45182 -4.70568,-3.76428 -2.3122,-1.14275 -2.93288,-1.29498 -5.33822,-1.30927 -2.45176,-0.0146 -2.8509,0.0821 -4.02302,0.9744 -1.86644,1.42086 -2.70652,3.27439 -2.70251,5.96273 0.005,3.54739 1.92926,6.3711 5.35257,7.85571 1.59315,0.69091 1.87978,0.52343 1.85362,-1.08313 z m -95.44072,-0.46652 c 0.59957,-0.37965 0.26038,-1.44131 -0.46049,-1.44131 -0.66327,0 -1.03259,0.59279 -0.77978,1.25161 0.2248,0.58581 0.53884,0.63384 1.24027,0.1897 z m 0.32591,-2.76423 c 0.0918,-0.64646 -0.0555,-0.79375 -0.79375,-0.79375 -0.73828,0 -0.90649,0.16821 -0.90649,0.90648 0,0.73827 0.1473,0.88556 0.79375,0.79375 0.51011,-0.0724 0.83404,-0.39638 0.90649,-0.90648 z M 140.44202,161.7726 c -0.12527,-1.89177 -0.22859,-5.74937 -0.22959,-8.57244 -0.002,-4.93477 -0.0373,-5.18664 -0.91964,-6.52639 -0.5048,-0.76644 -1.72515,-2.02853 -2.7119,-2.80464 -3.32414,-2.61455 -4.83696,-4.25507 -4.83696,-5.24525 0,-0.75989 0.16323,-0.92836 0.89947,-0.92836 1.03615,0 2.64745,0.76042 3.31456,1.56424 0.25216,0.30383 0.69546,0.55243 0.9851,0.55243 0.43435,0 0.48364,-0.3554 0.28136,-2.02848 -0.67923,-5.61769 -3.05945,-14.7054 -5.01262,-19.13819 -1.63062,-3.70078 -5.39859,-6.55446 -7.57148,-5.73429 -0.978,0.36915 -1.0945,0.32118 -1.72071,-0.70855 -0.9181,-1.50969 -0.4181,-2.02382 1.96819,-2.02382 1.27964,0 2.28104,0.23844 3.14687,0.74928 0.69847,0.41211 1.33053,0.68871 1.40457,0.61466 0.22763,-0.22762 -3.46051,-7.34672 -5.64116,-10.88894 C 120.2869,94.950318 114.89851,88.171669 110.9618,84.505673 106.60392,80.447468 97.169979,73.160991 96.252007,73.144295 c -1.407504,-0.0256 -0.57704,20.055895 1.305423,31.566505 3.8972,23.83004 11.72336,39.35013 24.83789,49.25618 4.20594,3.17694 17.0837,11.2452 17.9485,11.2452 0.19273,0 0.23287,-1.40592 0.0982,-3.43958 z m 198.67189,1.02976 c 9.84467,-5.30375 14.82614,-8.80982 20.37082,-14.33745 6.86442,-6.84332 11.04581,-13.91068 14.72388,-24.8862 3.84322,-11.46836 5.56949,-23.593089 5.65804,-39.740187 0.031,-5.65892 -0.0689,-10.414457 -0.22208,-10.567861 -0.15318,-0.153404 -0.86417,0.03162 -1.57998,0.411168 -3.16418,1.677751 -13.58293,10.118584 -17.24204,13.968777 -2.63082,2.768207 -8.52898,10.635855 -10.67381,14.237973 -2.23892,3.76013 -4.97427,8.95728 -4.97427,9.45108 0,0.16409 0.49075,-0.0511 1.09056,-0.47819 1.17174,-0.83436 3.59692,-1.26352 5.06206,-0.8958 1.02633,0.2576 1.17008,1.08591 0.38336,2.2091 -0.43183,0.61653 -0.77878,0.71258 -2.05452,0.56879 -2.8573,-0.32206 -5.4784,1.6782 -7.14897,5.45565 -2.17237,4.91211 -5.67731,18.74698 -5.37264,21.20715 l 0.10265,0.8289 1.38146,-1.10145 c 2.15894,-1.72136 4.0866,-1.90843 4.0866,-0.39659 0,0.95992 -1.44531,2.50909 -4.39498,4.71078 -1.35008,1.00773 -2.88341,2.46724 -3.40739,3.24335 l -0.95269,1.41111 -0.18393,8.55486 c -0.16023,7.45232 -0.11571,8.55486 0.34544,8.55486 0.29115,0 2.54225,-1.08442 5.00243,-2.40982 z m -5.43068,-24.66587 c 2.46051,-14.09542 6.5155,-25.97112 12.07581,-35.36597 8.10058,-13.68694 15.23706,-22.149834 27.81404,-32.983691 14.34172,-12.354005 16.86579,-15.330555 13.88208,-16.370681 -1.47654,-0.514723 -2.2948,-0.490037 -5.51848,0.166485 -10.50671,2.139758 -26.17086,13.293157 -39.3538,28.021224 -5.0218,5.610386 -6.40567,7.288165 -10.47522,12.699999 -4.41708,5.873994 -8.89191,12.631574 -10.48614,15.835444 l -1.29687,2.60628 1.50457,2.68539 c 4.71904,8.42264 8.26098,17.77036 9.94005,26.2333 0.22134,1.11566 0.52431,2.02847 0.67326,2.02847 0.14894,0 0.70726,-2.50031 1.2407,-5.55625 z m -190.87033,0.88195 c 1.62204,-7.03183 5.94568,-17.57728 9.6309,-23.48997 l 1.62378,-2.60524 -1.19585,-2.49074 C 150.71313,105.93652 142.7543,94.430031 137.07966,87.601079 133.5203,83.317696 127.07224,76.311952 123.92949,73.31358 111.38539,61.345736 97.924817,53.381638 90.241396,53.381638 c -5.478049,0 -4.844915,2.240437 2.551938,9.030393 1.92304,1.765259 4.131436,3.749364 4.907547,4.409123 0.776111,0.659758 1.490486,1.279206 1.5875,1.376549 0.09701,0.09734 1.525769,1.354302 3.174999,2.793241 4.42738,3.862839 11.45024,10.996223 14.84844,15.082139 7.29426,8.77043 15.16091,22.111677 18.32641,31.080207 2.24199,6.35205 4.69231,17.12476 5.4548,23.98181 0.13485,1.21268 0.35269,2.20486 0.4841,2.20486 0.13141,0 0.6875,-1.94468 1.23577,-4.32152 z"
       id="path1" /></g></svg>
