<?xml version="1.0" encoding="UTF-8" standalone="no"?>
<!-- Created with Inkscape (http://www.inkscape.org/) -->

<svg
   width="324.13116mm"
   height="279.11868mm"
   viewBox="0 0 324.13116 279.11868"
   version="1.1"
   id="svg1"
   xml:space="preserve"
   xmlns="http://www.w3.org/2000/svg"
   xmlns:svg="http://www.w3.org/2000/svg"><defs
     id="defs1" /><g
     id="layer1"
     transform="translate(115.58341,4.8856041)"><path
       style="fill:#000000"
       d="m 53.361886,273.67965 c -0.58209,-0.30555 -1.63615,-1.10808 -2.34236,-1.78338 l -1.28402,-1.22782 -0.98693,0.64666 c -1.24846,0.81803 -4.46254,0.82393 -6.03056,0.0111 -1.10334,-0.57197 -1.14423,-0.56295 -2.94587,0.64946 -1.5767,1.06104 -2.11404,1.22948 -3.92227,1.22948 -3.26871,0 -6.2697,-1.97423 -6.87854,-4.52511 -0.3452,-1.44632 -0.44604,-1.50794 -1.54112,-0.94165 -1.31071,0.6778 -2.80886,0.67261 -3.78786,-0.0131 -0.71398,-0.50009 -0.88372,-0.47067 -2.24591,0.38924 -2.2491,1.4198 -5.09683,2.26841 -7.61223,2.26841 -2.88626,0 -4.6267498,-0.71266 -5.1543798,-2.1105 -0.3703,-0.98104 -0.53492,-1.0645 -2.09968,-1.0645 -2.65704,0 -5.90854999,-1.70664 -5.90854999,-3.10125 0,-0.36399 -0.22593,-0.44012 -0.79375,-0.26747 -4.62733001,1.407 -8.53169001,1.1309 -10.39789021,-0.7353 -0.71842,-0.71842 -0.84462,-1.13043 -0.7205,-2.35223 0.0828,-0.81469 0.28295,-1.78283 0.44487,-2.15142 0.25903,-0.58966 0.18173,-0.64188 -0.64348,-0.43477 -0.51583,0.12947 -3.75661,0.73438 -7.20175,1.34424 -5.08238,0.8997 -7.27636,1.11479 -11.63162,1.14033 -5.11403,0.03 -5.40529,-0.006 -6.16241,-0.76087 -0.69581,-0.69378 -0.73024,-0.85386 -0.27671,-1.28677 0.28488,-0.27192 5.20109,-3.62261 10.92491,-7.44597 5.72382,-3.82335 10.45676,-6.99829 10.51764,-7.05541 0.0609,-0.0571 -0.61888,-1.16951 -1.51058,-2.47198 -0.8917,-1.30246 -2.4878,-3.81911 -3.54688,-5.59254 -2.41918,-4.05092 -2.94691,-4.73855 -3.26925,-4.25988 -2.20459,3.27382 -5.48622,5.83265 -8.78816,6.85252 -4.42452,1.36659 -11.09845,0.64421 -15.37538,-1.66422 -2.26144,-1.22059 -5.53321,-4.40417 -6.44317,-6.26951 -0.51948,-1.06487 -0.68838,-2.15357 -0.68838,-4.43703 0,-2.84426 0.0887,-3.2043 1.47674,-5.99722 3.75281,-7.55093 10.92989,-11.49667 19.0901,-10.49518 7.26401,0.89151 12.05069,5.23793 13.62801,12.37457 0.13611,0.61582 0.44435,0.97014 0.84399,0.97014 1.87957,0 5.94968,3.01297 8.78972,6.50674 0.6221,0.76531 1.1872902,1.32093 1.2559802,1.23472 1.00712,-1.2641 1.67131,-2.90924 1.44977,-3.59098 -0.42242,-1.29991 -0.21614,-4.70613 0.36995,-6.10885 0.69364,-1.6601 0.68474,-1.80318 -0.12528,-2.01501 -1.9010702,-0.49714 -2.4631302,-4.54822 -1.10803,-7.98615 0.70016,-1.77631 0.70042,-1.7988 0.021,-1.7988 -1.4157102,0 -1.8132802,-2.17377 -0.8416902,-4.60201 0.4301002,-1.07492 0.4749402,-1.54304 0.1763902,-1.84158 -0.6119802,-0.61198 -0.4774002,-2.60561 0.27552,-4.08146 0.64316,-1.2607 2.70645,-3.39353 4.61585,-4.77142 0.83914,-0.60556 0.84995,-0.65645 0.22276,-1.04846 -0.36256,-0.22661 -0.99756,-0.69132 -1.41112,-1.0327 l -0.75192,-0.62068 1.14855,-0.99419 c 1.12424,-0.97316 1.18077,-1.46861 0.16755,-1.46861 -0.88105,0 -6.3296502,-2.70922 -8.8518302,-4.40142 -1.334,-0.89502 -3.73897,-2.81471 -5.34437,-4.26598 -1.6054,-1.45128 -2.96063,-2.59513 -3.01164,-2.54189 -0.051,0.0532 0.2082,1.28741 0.576,2.74262 0.3678,1.45521 0.85521,4.01706 1.08312,5.69299 1.40196,10.30905 -4.78071,17.44221 -11.99993,13.84472 -2.14616,-1.06948 -4.0317,-3.34809 -5.66241,-6.84282 -1.364,-2.92315 -2.13695,-6.58728 -2.39892,-11.37197 l -0.20765,-3.79236 -4.26868,-0.007 c -9.00704,-0.0147 -17.03306,-2.0585 -26.35979,-6.71228 -6.020592,-3.0041 -10.694344,-6.25303 -19.007491,-13.21292 -8.336453,-6.9794 -13.660355,-10.84043 -19.588235,-14.2059 -3.8581,-2.19038 -4.89454,-3.20844 -4.89454,-4.80774 0,-1.56274 0.80056,-2.70896 3.2377,-4.63564 7.51461,-5.94067 17.859023,-9.30842 31.953087,-10.40272 14.671689,-1.13915 29.980419,2.69245 41.189999,10.30938 l 3.39107,2.30424 0.19551,-5.50846 c 0.11025,-3.10608 0.51885,-7.34796 0.93689,-9.72626 1.58172,-8.9987 6.02711,-19.53092 12.07114,-28.5995 8.48379,-12.72924 17.0964302,-20.882051 27.7626502,-26.280409 l 3.52691,-1.785027 -0.19208,-1.861037 c -0.20546,-1.990727 0.31933,-3.493566 1.7865698,-5.116173 l 0.75249,-0.832165 -0.88195,-0.557829 C 8.0750562,55.007492 5.2957662,51.762179 4.4754662,49.695698 c -1.14314,-2.879784 -1.15581,-9.200632 -0.0268,-13.350196 1.52282,-5.596746 5.47523,-12.74937 9.9966598,-18.090832 9.89825,-11.69345 22.09278,-19.01889504 36.57249,-21.969674 7.33951,-1.495695 17.48726,-1.565471 24.25865,-0.166803 9.4118,1.94406 18.11673,6.674575 24.12891,13.112355 4.681864,5.013296 7.488314,10.198188 8.666024,16.010411 2.09919,10.359941 -3.33347,19.275223 -13.434594,22.046845 -2.67113,0.732925 -6.83862,0.629619 -9.12607,-0.226222 -3.00693,-1.125039 -5.51027,-4.324485 -5.51027,-7.042525 0,-1.357053 0.85971,-3.347947 1.98225,-4.590468 2.23207,-2.470632 5.97196,-3.148301 8.21383,-1.488348 1.31643,0.974729 2.49999,2.855727 2.49999,3.973174 0,0.702548 0.21588,1.022875 0.79375,1.177735 2.39487,0.641803 5.26844,-0.09802 7.087864,-1.824835 5.73392,-5.442074 0.84552,-15.432765 -9.116344,-18.631578 -11.18339,-3.591054 -26.04449,1.659583 -34.45725,12.17424 -1.25822,1.572571 -3.70381,5.412651 -5.43465,8.533509 -1.73084,3.120859 -3.68179,6.303643 -4.33544,7.072853 -0.65365,0.769211 -1.1299,1.441721 -1.05833,1.494467 0.0716,0.05275 0.79009,0.285242 1.59671,0.516657 2.46154,0.706201 3.91907,2.842442 3.67587,5.387579 -0.0471,0.49259 0.73527,0.591799 6.04479,0.766555 14.07776,0.463348 27.50577,4.366381 39.37826,11.445821 11.433754,6.817829 21.151124,17.479022 26.858534,29.467232 1.1315,2.37668 2.31854,5.10258 2.63787,6.05755 0.96079,2.87331 0.93279,2.87199 3.01462,0.14218 11.64046,-15.26355 34.59575,-24.99438 58.91652,-24.97491 10.33758,0.008 18.5196,2.37568 19.93729,5.7687 0.72724,1.74053 0.26048,2.90149 -2.26243,5.62733 -5.14509,5.55893 -8.18322,9.88819 -12.54341,17.874 -5.93653,10.87294 -8.39702,14.6274 -13.38824,20.42918 -8.67299,10.08144 -20.86131,17.79348 -32.9595,20.85482 -1.22188,0.30918 -1.48145,0.50645 -1.293,0.98267 0.67586,1.70794 1.58632,7.89917 1.58094,10.75069 -0.015,7.94231 -2.73594,13.71134 -7.26647,15.40643 -7.46622,2.79347 -14.08257,-2.9979 -14.88842,-13.03202 l -0.24037,-2.99295 -1.74727,2.46378 c -2.35251,3.31723 -9.20341,10.10624 -12.89301,12.77655 -3.22799,2.33622 -5.87407,5.17974 -5.71174,6.13793 0.0697,0.41121 -0.30217,0.72624 -1.21132,1.02629 l -1.31185,0.43295 2.0913,0.78618 c 1.15022,0.4324 3.04276,1.2676 4.20565,1.856 3.33656,1.68821 5.95031,4.64151 4.75933,5.37758 -0.28699,0.17736 0.0917,0.62359 1.14333,1.34711 2.21253,1.52226 4.99266,4.66925 6.0697,6.87065 1.2227,2.4991 1.90508,7.44314 1.32609,9.6079 -0.2975,1.11232 -0.31037,1.8305 -0.0453,2.52765 0.20365,0.53562 0.33093,1.71494 0.28285,2.62071 -0.0804,1.51479 0.0436,1.79259 1.54666,3.46432 2.00358,2.22846 3.16683,5.10895 3.18632,7.89011 0.0133,1.88958 0.0928,2.09039 1.01815,2.56889 0.55207,0.28548 3.18468,1.00939 5.85023,1.60867 7.78852,1.75105 11.15846,3.74883 13.4052,7.9469 0.80817,1.51009 1.6661,2.46452 3.24206,3.60676 3.56568,2.58435 4.66857,5.37709 2.21675,5.61324 -1.14904,0.11067 -1.1451,0.11581 1.5875,2.07215 6.85756,4.90953 8.32002,7.33859 4.96263,8.24264 -2.52962,0.68116 -8.86011,-0.47186 -15.54492,-2.8313 -1.66431,-0.58743 -3.11506,-1.06805 -3.22389,-1.06805 -0.10883,0 -0.1022,0.69804 0.0147,1.55121 0.3007,2.19384 -0.67367,2.80766 -4.34604,2.73786 -2.4406,-0.0464 -7.93493,-0.7856 -9.92496,-1.3353 -0.79521,-0.21966 -0.78844,-0.18232 0.26899,1.48508 2.97124,4.68515 1.62592,7.15941 -3.66903,6.74791 -1.36786,-0.1063 -2.72514,-0.28008 -3.01618,-0.38618 -0.33726,-0.12294 -0.78758,0.2185 -1.2417,0.94146 -0.97606,1.55389 -2.83607,2.13753 -5.99025,1.87966 -2.13921,-0.1749 -6.05907,-1.06302 -8.02569,-1.8184 -0.43743,-0.16801 -0.61736,-0.064 -0.61736,0.35692 0,1.10038 -1.84848,2.53612 -3.60415,2.79939 -1.518194,0.22767 -1.654024,0.3314 -1.754744,1.33995 -0.18777,1.88022 -1.54542,2.55369 -5.43624,2.69665 -3.84851,0.14141 -7.00258,-0.32791 -10.6587,-1.58597 -1.41912,-0.48831 -2.79909,-0.80386 -3.06659,-0.70121 -0.26751,0.10266 -0.95303,0.0528 -1.52337,-0.11076 -1.00867,-0.28929 -1.04224,-0.25835 -1.22878,1.13241 -0.12871,0.95958 -0.55068,1.78872 -1.28306,2.5211 -1.04307,1.04307 -1.21954,1.09127 -3.99491,1.09127 -2.63032,0 -3.16584,-0.12519 -5.68931,-1.33006 -1.53212,-0.73153 -2.80855,-1.28715 -2.83649,-1.23472 -0.63422,1.19002 -2.31709,2.90771 -3.38004,3.44998 -1.65961,0.84667 -4.32386,0.90097 -5.81445,0.11849 z m 5.1513,-2.68641 c 1.47992,-0.98866 2.43215,-2.80965 2.43287,-4.65253 l 5.5e-4,-1.39637 1.4993,1.44964 c 3.40415,3.29139 9.17511,5.11055 10.86303,3.42431 1.09744,-1.09635 1.52041,-3.39363 0.89875,-4.88147 -0.67987,-1.62715 -0.0434,-1.8362 1.54739,-0.50819 1.87936,1.56897 3.03279,1.30076 2.07804,-0.4832 -0.3959,-0.73975 -0.38856,-0.73934 0.79375,0.0439 3.06634,2.03145 7.77666,3.46188 12.49098,3.79327 3.25391,0.22873 4.75385,-0.0957 4.75368,-1.02812 -5e-5,-0.2357 -0.47,-1.30168 -1.04434,-2.36883 -0.57434,-1.06716 -1.05055,-2.05174 -1.05825,-2.18797 -0.008,-0.13624 0.74453,0.14584 1.67162,0.62683 2.37583,1.23263 4.14431,1.46911 5.025144,0.67197 1.02494,-0.92756 0.88946,-2.62064 -0.3462,-4.32642 l -1.043784,-1.44089 0.955584,0.42693 c 0.52557,0.23481 1.59058,0.76053 2.36669,1.16826 3.88716,2.04213 11.37403,3.88254 12.24622,3.01035 0.33166,-0.33167 -0.0309,-0.88599 -1.64907,-2.52121 l -2.0742,-2.09608 2.26492,0.53887 c 4.08476,0.97185 6.81624,1.49803 9.05588,1.74451 2.06025,0.22673 2.20486,0.19568 2.20486,-0.47352 0,-1.18946 -3.02301,-4.82834 -5.73691,-6.9057 -3.99115,-3.05501 -5.99054,-3.82123 -10.73868,-4.11536 -2.20149,-0.13637 -4.08562,-0.33086 -4.18695,-0.43219 -0.18533,-0.18533 0.14511,-0.25816 4.53934,-1.00041 1.49489,-0.25251 2.34746,-0.55632 2.26439,-0.8069 -0.23179,-0.69924 -3.82521,-2.27762 -6.0788,-2.67006 -1.19284,-0.20772 -3.02891,-0.37629 -4.08017,-0.37459 l -1.911384,0.003 -1.40377,2.20178 c -2.10509,3.30177 -6.92401,7.96695 -10.2379,9.91126 -5.52776,3.24324 -12.05634,4.61903 -17.99166,3.79146 -3.4275,-0.4779 -6.77374,-2.01916 -8.175,-3.76536 -3.05443,-3.8063 -3.75287,-3.91589 -6.28257,-0.98575 -3.04859,3.53118 -8.59239,5.42099 -15.90252,5.42099 -10.6627,0 -19.43754,-4.49509 -24.69137,-12.64867 -1.34547,-2.08809 -1.44412,-2.16193 -2.89229,-2.16491 -0.82462,-0.002 -1.4992998,0.0839 -1.4992998,0.19023 0,0.10632 0.43656,0.56906 0.9701398,1.02832 1.20319,1.03561 0.96533,1.33573 -0.6952298,0.87722 -1.28624,-0.35515 -3.25968,-0.0867 -5.43115,0.73894 -1.30959,0.49791 -4.59711999,3.03192 -4.87584999,3.75828 -0.18462,0.4811 0.0341,0.53022 1.55727,0.34982 0.97461999,-0.11543 1.77203999,-0.15775 1.77203999,-0.094 0,0.0637 -1.72018,1.16427 -3.82262,2.44568 -3.81442,2.32484 -7.66305,5.80613 -7.37716,6.67303 0.65654,1.9908 8.00827001,1.41062 11.30829,-0.89242 1.24851,-0.87132 1.50987,-0.62726 0.79945,0.74656 -0.81681,1.57953 -0.70462,2.75834 0.32685,3.43418 1.28676,0.84312 4.94486,1.0409 6.8652998,0.37117 1.64773,-0.57461 2.32461,-0.45935 1.42433,0.24254 -0.29073,0.22667 -0.76241,0.86465 -1.04817,1.41773 -0.4783,0.92574 -0.46429,1.04726 0.17639,1.53021 1.94375,1.46522 8.68015,-0.71565 11.76597,-3.80916 1.37381,-1.37724 1.52182,-1.44996 1.33566,-0.65629 -0.75444,3.2165 1.91743,3.52696 3.74186,0.43478 0.411,-0.69659 0.80886,-1.08178 0.88413,-0.85597 0.0753,0.2258 0.36174,0.41055 0.63662,0.41055 0.34525,0 0.49976,0.42296 0.49976,1.36803 0,2.44234 1.50221,4.83252 3.76917,5.9972 2.22135,1.14124 5.07169,-0.59168 7.47245,-4.54301 l 0.75019,-1.23472 10e-4,0.99333 c 0.003,2.0135 1.55008,3.74889 3.35271,3.76001 1.59063,0.01 3.30121,-1.21283 4.05621,-2.89918 l 0.66381,-1.48265 0.38346,1.04897 c 0.93517,2.55817 1.23047,3.052 2.52348,4.22016 1.67978,1.51758 3.44961,1.66416 5.28545,0.43775 z m -86.40864,-12.78987 c 1.96959,-0.29582 5.50073,-0.99632 7.84698,-1.55666 2.34626,-0.56033 5.29078,-1.20433 6.54339,-1.4311 4.6892202,-0.84892 9.5405802,-2.79908 9.5405802,-3.83514 0,-0.1397 -0.7028,-0.44197 -1.56178,-0.67172 -0.85897,-0.22974 -2.84948,-1.29454 -4.42335,-2.36622 -1.5738602,-1.07168 -3.0194602,-1.94851 -3.2124502,-1.94851 -0.84102,0 -4.4616,2.15993 -10.20332,6.08701 -3.39651,2.32306 -6.76957,4.56289 -7.49568,4.9774 -1.27999,0.73069 -1.69771,1.28281 -0.97054,1.28281 0.19531,0 1.96658,-0.24204 3.93617,-0.53787 z m 70.49762,-1.9396 c 5.3433,-0.68466 9.00288,-2.63561 9.84432,-5.24809 0.95352,-2.96046 -0.0754,-8.65023 -2.29803,-12.7084 -3.57924,-6.53497 -7.82326,-10.77222 -12.06116,-12.04193 -1.78193,-0.53388 -2.20495,-0.25898 -1.25489,0.81548 0.94569,1.06954 1.8892,2.61926 1.8892,3.10305 0,0.21738 -0.7766,-0.17484 -1.72578,-0.8716 -2.63636,-1.93528 -5.20228,-2.95785 -9.08423,-3.62028 -3.01527,-0.51453 -3.82965,-0.53758 -5.53211,-0.15659 -2.60038,0.58194 -5.07916,2.2778 -6.3514,4.34532 -0.87116,1.41572 -1.07235,2.23693 -1.39279,5.68488 -0.35342,3.80289 -0.32872,4.17263 0.4381,6.55746 2.34681,7.29859 10.35193,12.79801 20.56129,14.12536 3.07609,0.39993 3.95094,0.40186 6.96748,0.0153 z m 34.3764,-0.69256 c 9.30821,-2.38064 17.50546,-10.64702 18.51271,-18.66884 0.80346,-6.39878 -1.52592,-11.40789 -5.97288,-12.8441 -4.72022,-1.52446 -9.7914,0.18087 -14.91028,5.014 -2.74813,2.59473 -3.18034,1.99616 -0.92949,-1.28728 1.78966,-2.61068 1.85573,-3.02513 0.31106,-1.95122 -3.85311,2.67882 -8.20208,8.99785 -10.14418,14.73942 -1.72861,5.1104 -1.9876,10.8411 -0.57713,12.77029 0.76389,1.04483 2.71177,2.16192 4.52593,2.59559 2.14241,0.51212 6.41224,0.3411 9.18426,-0.36786 z m 59.458174,-3.79733 c -0.002,-0.33955 -0.55799,-1.88573 -1.23472,-3.43596 -0.67673,-1.55023 -1.23042,-2.84527 -1.23042,-2.87786 0,-0.0326 2.26074,0.81026 5.02387,1.87301 6.19268,2.38183 12.2838,4.24938 14.78504,4.53313 l 1.88692,0.21406 -1.94027,-1.80242 c -4.2559,-3.95352 -9.12737,-7.20842 -13.40556,-8.95703 -0.50688,-0.20718 0.17534,-0.16696 5.90903,0.34839 1.41565,0.12723 2.55764,0.0909 2.55764,-0.0813 0,-0.42533 -3.6263,-2.63262 -5.99722,-3.65044 -1.06716,-0.45813 -3.60716,-1.43337 -5.64445,-2.1672 l -3.70416,-1.33425 3.79236,-0.0182 c 4.25017,-0.0204 4.71359,-0.35266 2.64583,-1.89689 -1.42207,-1.06201 -2.70653,-1.46573 -6.96736,-2.18994 -6.18933,-1.05199 -9.61794,-2.62881 -12.01591,-5.52612 -1.92744,-2.32881 -1.96592,-2.56044 -0.25918,-1.56022 0.86755,0.50842 1.84122,0.92439 2.16372,0.92439 1.68442,0 -0.62597,-5.082 -4.48321,-9.86139 -1.48034,-1.83425 -2.69153,-3.45026 -2.69153,-3.59114 0,-0.14087 0.73696,0.15576 1.63768,0.65919 l 1.63768,0.91531 -0.25468,-1.35755 c -0.28381,-1.51285 -2.14097,-5.37052 -3.94555,-8.19567 -0.65067,-1.01864 -1.11414,-1.85208 -1.02993,-1.85208 0.0842,0 1.10114,0.55563 2.25984,1.23472 1.98142,1.16128 2.86996,1.48459 2.86996,1.04428 0,-0.57285 -1.4841,-2.93614 -2.34894,-3.74048 -1.19076,-1.10745 -4.11435,-2.98601 -7.62814,-4.9015 -1.40059,-0.76351 -2.30841,-1.387 -2.01736,-1.38553 0.94979,0.005 6.66572,1.35385 7.39899,1.74629 1.32979,0.71168 0.73977,-0.26921 -1.20016,-1.99526 -1.05328,-0.93715 -3.5128,-2.65641 -5.46558,-3.82057 l -3.55052,-2.11667 2.02599,-0.17639 2.026,-0.17639 -1.05834,-0.74768 c -2.87137,-2.02855 -6.88555,-3.16731 -10.227824,-2.90149 -0.87463,0.0696 -1.59023,0.0919 -1.59023,0.0496 0,-0.0423 1.20518,-0.96813 2.67818,-2.05746 1.473,-1.08934 2.593074,-2.06573 2.489034,-2.16977 -0.10403,-0.10403 -2.353854,0.70651 -4.999604,1.80121 -5.97816,2.47351 -14.11124,5.4964 -14.78807,5.4964 -0.27904,0 -0.60121,0.15187 -0.71593,0.3375 -0.12811,0.20728 0.45502,0.25891 1.51129,0.13381 1.56524,-0.18538 9.50904,0.94876 8.18066,1.16796 -0.29105,0.048 -3.78355,0.16219 -7.76111,0.25371 -5.69351,0.131 -7.75727,0.31218 -9.70139,0.8517 -2.78006,0.7715 -2.98521,0.64914 2.51767,1.50165 1.39296,0.2158 3.4417,0.85509 4.58611,1.43105 1.13764,0.57256 1.75094,0.94715 1.36288,0.83242 -3.06139,-0.90508 -9.11417,-1.39459 -12.74777,-1.03095 -2.28487,0.22866 -2.58769,0.32541 -1.71611,0.54826 0.58208,0.14884 2.80458,0.70891 4.93888,1.2446 8.80676,2.21045 14.60949,6.70234 19.1825,14.84918 0.84898,1.51246 2.72378,5.44869 4.16621,8.74716 4.1366,9.45932 7.116454,14.50321 12.023454,20.35172 6.9308,8.26062 14.78629,12.965 24.32797,14.56919 4.12684,0.69382 5.7411,0.67015 5.73584,-0.0841 z M 1.3656962,247.1542 c 1.04596,-0.55204 3.04109,-1.43461 4.43361,-1.96127 1.39253,-0.52666 2.72165,-1.18624 2.95361,-1.46574 0.23802,-0.28679 1.03412,-0.50817 1.8274098,-0.50817 1.20934,0 1.36687,-0.0862 1.12792,-0.61736 -0.45592,-1.01344 -0.59735,-6.97073 -0.20874,-8.79279 0.19864,-0.93136 0.31229,-1.74226 0.25255,-1.80199 -0.0597,-0.0597 -0.55423,0.65261 -1.09886,1.58301 -1.2947598,2.21182 -5.5935898,6.48123 -7.3857498,7.3352 -0.78014,0.37174 -2.46375999,0.73656 -3.76523999,0.81589 -1.96725001,0.1199 -2.66296001,-0.002 -4.23334001,-0.74041 -2.43924,-1.14731 -4.95186,-3.6385 -7.9860702,-7.91798 -2.53517,-3.57561 -4.86368,-5.98774 -6.69369,-6.93408 -0.93046,-0.48116 -1.11658,-0.48547 -1.49085,-0.0345 -0.54682,0.65888 -0.24812,1.83202 0.85746,3.36763 0.48063,0.66758 2.19176,3.3558 3.80252,5.97384 3.42875,5.5729 6.6866902,9.08323 10.1093902,10.89257 3.9699,2.0986 4.86658,2.19501 7.49807,0.80615 z m 57.1795598,-0.84837 c 0.30565,-0.24254 0.90265,-1.55223 1.32667,-2.91042 1.70558,-5.46324 4.888,-11.11616 9.59696,-17.04709 1.68419,-2.12124 1.65043,-2.1959 -1.2903,-2.85401 -1.03578,-0.23179 -3.91063,-1.44815 -6.38856,-2.703 l -4.50533,-2.28155 -1.25585,1.07767 c -2.39212,2.05274 -6.37002,4.51881 -8.8733,5.50094 -2.36111,0.92635 -2.47459,1.01998 -1.85833,1.53338 0.94454,0.7869 4.36649,4.83178 5.83387,6.89588 2.06289,2.90178 4.8766,8.96 5.11237,11.00752 0.19807,1.72008 0.34824,1.93151 1.54892,2.18073 0.10843,0.0225 0.44723,-0.15752 0.75288,-0.40005 z m 46.452944,-6.52639 c -0.68594,-0.72761 -1.93732,-2.07987 -2.78084,-3.00503 -1.78303,-1.9556 -2.09888,-1.78001 -2.10702,1.17134 l -0.005,1.95868 2.55764,0.54971 c 3.68825,0.79272 3.71242,0.78574 2.33562,-0.6747 z M 3.0313162,236.62605 c 1.81154,-1.24581 4.74289,-4.53969 7.0158198,-7.88349 0.59821,-0.88004 2.92161,-5.12957 5.16312,-9.44341 4.88013,-9.3919 6.84968,-12.37512 10.66778,-16.15813 2.37743,-2.35558 3.56229,-3.20445 6.7185,-4.81331 2.10761,-1.07434 5.10201,-2.3048 6.65424,-2.73436 5.33602,-1.47666 4.4894,-1.57583 -4.47281,-0.52395 -4.04984,0.47533 -8.5098,1.7174 -12.15952,3.38636 -0.94166,0.43061 -1.87087,0.85148 -2.06489,0.93528 -0.53922,0.23288 3.05377,-3.19594 4.05694,-3.87158 l 0.88194,-0.59398 -1.08173,-0.0185 c -2.83065,-0.0484 -9.51577,2.00889 -11.17729,3.43975 -0.33955,0.29241 -0.61736,0.37247 -0.61736,0.1779 0,-0.19456 0.96029,-1.26971 2.13397,-2.38922 1.17369,-1.1195 2.0865,-2.07275 2.02847,-2.11832 -0.23401,-0.18378 -3.46608,-0.88102 -6.52394,-1.40738 -1.7838898,-0.30707 -4.8795198,-1.03023 -6.8791698,-1.60703 -4.41168,-1.27254 -4.93882,-1.31745 -3.95861999,-0.33726 0.39371,0.39371 1.81804999,1.10474 3.16519999,1.58006 l 2.44937,0.86423 -2.11667,0.0109 c -2.67705999,0.0138 -5.16324,1.12451 -7.58281,3.38773 -1.79462,1.67866 -3.40962,3.90948 -3.07355,4.24555 0.10112,0.10112 0.64163,-0.0529 1.20114,-0.34222 1.45461,-0.75221 6.82295001,-2.45221 7.04440001,-2.23076 0.10237,0.10238 -0.43285,0.50192 -1.18939,0.88788 -2.55563001,1.30378 -7.15951001,6.00036 -7.15951001,7.30366 0,0.29687 0.82124,0.0969 2.50136,-0.60898 1.37575,-0.57803 2.58857,-0.96375 2.69516,-0.85717 0.10658,0.10659 -0.071,0.55524 -0.39471,0.99702 -2.73676,3.73535 -4.09626,6.75776 -4.09626,9.10673 0,1.02085 0.14589,1.39788 0.5409,1.39788 0.67342,0 3.91604,-1.62225 4.21746,-2.10996 0.12219,-0.19771 0.3845,-0.35948 0.5829,-0.35948 0.1984,0 0.0462,0.51593 -0.33833,1.14652 -1.84866,3.03196 -3.26639,6.07631 -2.88838,6.20231 0.22207,0.074 1.19515,-0.35737 2.1624,-0.95865 0.96726,-0.60127 1.69096,-0.97535 1.60823,-0.83129 -0.0827,0.14407 -0.63103,1.29382 -1.21843,2.555 -0.58741,1.26118 -2.03648,4.32606 -3.22016,6.81084 -1.18368,2.48478 -2.15214,4.71392 -2.15214,4.95363 0,0.74919 3.00917,3.42938 4.44792,3.96165 2.05763,0.76122 4.20578001,0.37612 6.42845,-1.15243 z M 18.613276,203.3791 c 1.33506,-1.22498 5.64444,-3.84536 5.64444,-3.43219 0,0.15474 -4.56406,3.30866 -6.13096,4.2367 -0.87995,0.52118 -0.78228,0.35967 0.48652,-0.80451 z m -51.28766,31.68704 c 1.62026,-0.60088 2.63583,-1.33675 4.6328,-3.35686 1.4067,-1.423 2.55764,-2.74617 2.55764,-2.94038 0,-0.62775 -1.84262,-0.8387 -4.32684,-0.49534 -1.33364,0.18433 -2.48672,0.23495 -2.56241,0.11248 -0.0757,-0.12247 0.53062,-0.60546 1.34735,-1.07331 1.22646,-0.70258 1.96314,-0.84895 4.23194,-0.84086 2.59525,0.009 2.75851,-0.0361 2.95569,-0.82177 0.35286,-1.40589 -0.20163,-4.61444 -1.10581,-6.39874 -1.22006,-2.40768 -3.85916,-4.89731 -6.53613,-6.16598 -2.06877,-0.98042 -2.6232,-1.0863 -5.64546,-1.07817 -3.07145,0.008 -3.55471,0.10765 -5.78564,1.18984 -2.86884,1.39164 -6.22382,4.6059 -7.759,7.43356 -1.5211,2.80171 -1.67163,5.91239 -0.41469,8.56934 1.30242,2.75311 4.0138,4.87113 8.1339,6.35387 2.35598,0.84787 7.3092,0.61281 10.27666,-0.48768 z m 76.1617,-12.4382 c 3.18753,-1.02139 6.85839,-3.09199 9.62613,-5.42974 3.28858,-2.77767 10.47205,-11.58884 11.90421,-14.60157 0.59219,-1.24574 0.58781,-1.33789 -0.13447,-2.82993 -0.88668,-1.83164 -1.96869,-2.53288 -4.81853,-3.12285 -2.8072,-0.58115 -10.14572,-0.47151 -14.10692,0.21075 -4.63853,0.79892 -10.35091,2.80694 -13.86332,4.87323 -5.80007,3.4121 -10.30614,9.06471 -10.30614,12.92849 0,3.49702 3.94175,7.03898 9.61343,8.63839 2.81239,0.7931 8.51084,0.47871 12.08561,-0.66677 z m 40.85082,-2.8657 c 1.11118,-0.28943 2.8114,-0.9271 3.77828,-1.41705 2.38927,-1.21074 2.33423,-1.8359 -0.7569,-8.59687 -2.83303,-6.19645 -8.54096,-11.52894 -13.13945,-12.27517 -1.28836,-0.20907 -1.30362,-0.19775 -1.12215,0.8323 0.17248,0.97901 0.0686,1.09293 -1.66214,1.82351 -2.46313,1.0397 -3.29745,1.79168 -4.12194,3.71515 -0.65163,1.52018 -1.54933,2.94537 -5.57342,8.84838 -0.92167,1.352 -1.72042,2.55754 -1.775,2.67898 -0.29743,0.66173 6.03,3.23952 10.68258,4.35207 2.92532,0.69952 11.06474,0.72253 13.69014,0.0387 z m -14.02276,-21.76229 c 0.19019,-0.59924 -0.001,-0.99836 -0.83814,-1.74598 -1.28905,-1.15177 -3.11747,-1.71648 -5.53202,-1.70856 l -1.76389,0.006 1.51215,0.68631 c 1.59593,0.72433 3.787,2.79638 4.14296,3.91791 0.19533,0.61544 0.28876,0.62644 1.22195,0.14387 0.55574,-0.28738 1.12139,-0.87208 1.25699,-1.29933 z m -97.22449,-0.86624 c 1.32045,-0.78001 2.68646,-2.9724 3.2089,-5.15015 0.8376,-3.49152 -0.12133,-9.74634 -1.87891,-12.25564 l -0.54868,-0.78335 -0.39765,0.74302 c -0.30202,0.56432 -0.26215,1.65441 0.16576,4.53237 0.99695,6.70514 -0.10544,10.66851 -2.96738,10.66851 -1.26809,0 -3.60626,-2.61631 -4.55588,-5.09782 -2.73305,-7.14189 -2.14435,-15.94837 1.34868,-20.17543 0.77493,-0.93777 1.35624,-1.86586 1.29181,-2.06242 -0.0644,-0.19656 -0.79469,-0.40694 -1.62279,-0.46751 -1.36406,-0.0998 -1.63368,0.0245 -2.86705,1.321 -2.16533,2.27623 -3.24532,6.10562 -3.24026,11.48912 0.003,3.53692 0.15628,4.74448 0.9298,7.34042 1.55604,5.22213 3.6943,8.78468 5.93571,9.88947 1.49473,0.73675 3.95821,0.74074 5.19794,0.008 z m 75.11944,-5.57942 c 11.33152,-1.47834 29.31612,-6.34302 40.37661,-10.92152 5.74879,-2.37972 15.021614,-7.26356 16.995224,-8.9511 0.19907,-0.17022 0.83407,-0.61059 1.41111,-0.97861 0.57704,-0.36802 1.12854,-0.75217 1.22556,-0.85366 0.097,-0.1015 1.20826,-1.04044 2.46944,-2.08655 11.11149,-9.21658 16.94349,-20.63885 16.92956,-33.15739 -0.008,-7.06537 -1.28551,-16.08975 -3.40221,-24.03087 -1.51282,-5.67558 -2.68612,-8.73693 -5.34062,-13.93472 -4.7162,-9.23481 -11.00881,-16.56941 -19.872064,-23.162714 -4.70983,-3.503604 -6.86924,-4.828429 -12.12717,-7.440186 -5.36743,-2.666153 -7.98437,-3.655403 -13.34463,-5.044515 -6.7122,-1.739471 -11.51373,-2.376133 -18.22898,-2.417087 l -5.82083,-0.0355 -2.4392,1.268561 -2.43921,1.268561 1.46907,0.234913 c 2.41885,0.386791 1.663,0.769518 -1.26496,0.640519 -2.18906,-0.09644 -3.07868,0.02815 -4.46304,0.625063 -1.6175,0.697436 -1.68576,0.77762 -1.05834,1.243296 0.59527,0.441806 0.41948,0.478419 -1.5633,0.325609 -2.02843,-0.156327 -2.21613,-0.113813 -2.03993,0.462043 0.62696,2.049124 1.2753,4.962241 1.2753,5.730189 0,0.78973 -0.0844,0.73129 -0.74405,-0.515091 -0.40923,-0.773237 -0.94499,-1.644011 -1.19057,-1.935053 -0.24558,-0.291042 -0.68494,-0.995653 -0.97634,-1.565804 l -0.52983,-1.036637 -0.37525,1.742193 c -0.51374,2.385199 -1.75912,5.093581 -2.34215,5.093581 -0.40422,0 -0.40226,-0.294756 0.0123,-1.852083 0.27118,-1.018646 0.49494,-2.447396 0.49724,-3.175 0.005,-1.667828 -0.42165,-1.696092 -3.99667,-0.264583 -2.8745,1.151004 -3.57095,1.246969 -5.02835,0.692865 -0.68011,-0.258576 -1.50391,-0.244028 -2.81661,0.04974 -1.56097,0.349329 -2.07905,0.325704 -3.2652,-0.148902 -2.57065,-1.028569 -6.2833298,-0.07063 -11.7000898,3.018852 -8.766,4.999735 -18.2223502,14.143098 -23.8102302,23.022168 -5.2825,8.393812 -8.99494,18.827782 -10.60639,29.809722 -0.72819,4.96258 -0.53792,16.0047 0.36169,20.99027 3.72687,20.654 5.60869,25.67542 12.13878,32.39083 7.9840902,8.21067 21.1109102,13.31644 39.55504,15.38522 4.18591,0.46951 21.17062,0.15247 26.06927,-0.48662 z M 5.3841062,166.06739 c -2.04156,-0.27078 -4.91974999,-1.23533 -7.38726,-2.47565 -3.00973,-1.51288 -7.51397,-5.8668 -9.5152402,-9.19769 -3.63464,-6.04945 -5.2739,-15.63106 -3.93588,-23.00558 1.78505,-9.83839 9.0376002,-17.84515 18.0864202,-19.96726 3.28075,-0.7694 9.6314098,-0.5165 12.8061298,0.50996 3.48522,1.12686 6.58229,3.1111 9.72109,6.22814 3.22289,3.20055 4.7266,5.25662 6.14375,8.40054 3.05123,6.76906 3.65094,17.22159 1.36867,23.85512 -2.64802,7.69661 -9.44148,13.71221 -17.32399,15.34039 -2.46637,0.50944 -7.3274698,0.66167 -9.9636898,0.31203 z m 9.5821598,-1.02706 c 1.52079,-0.31217 3.03122,-0.58431 3.35652,-0.60476 0.32531,-0.0204 0.52144,-0.15048 0.43585,-0.28896 -0.0856,-0.13848 0.20389,-0.36558 0.64327,-0.50467 1.7104,-0.54142 5.29314,-3.13176 7.11292,-5.14269 2.1837,-2.41306 4.20217,-6.28706 4.96774,-9.53447 0.51385,-2.17963 0.76037,-9.09856 0.30807,-8.64626 -0.1255,0.1255 -0.35524,1.734 -0.51053,3.57444 -0.17223,2.04134 -0.55315,3.93565 -0.9768,4.85769 l -0.69447,1.51143 -0.0297,-1.32291 c -0.0341,-1.51959 -0.30559,-1.59174 -2.32278,-0.61736 -1.84046,0.889 -2.10211,0.87312 -2.78497,-0.16905 -0.76205,-1.16304 -2.55093,-2.05728 -3.59254,-1.79585 -0.4584,0.11505 -1.23505,0.64229 -1.72589,1.17163 -0.71468,0.77075 -0.89243,1.32441 -0.89243,2.77983 0,1.78027 -0.0278,1.82852 -1.36287,2.36269 -3.46965,1.38829 -5.74341,1.72519 -10.0713598,1.49231 -2.31126,-0.12437 -4.35592,-0.32107 -4.54369,-0.43712 -0.18776,-0.11604 -0.26867,0.01 -0.1798,0.27909 0.0889,0.26954 0.50635,0.54081 0.92772,0.60281 0.42136,0.062 0.76611,0.24745 0.76611,0.41212 0,0.16466 0.10279,0.59018 0.22842,0.9456 0.18761,0.53074 0.0906,0.50437 -0.54291,-0.14754 -0.42423,-0.43656 -0.95108,-0.79375 -1.17078,-0.79375 -0.2197,0 -0.71705,-0.27781 -1.10523,-0.61736 -0.38817999,-0.33955 -0.58974999,-0.41892 -0.44792999,-0.17639 0.17258,0.29514 0.0108,0.44098 -0.48934,0.44098 -0.41096,0 -0.64909,-0.15875 -0.52917,-0.35278 0.11991,-0.19403 0.0499,-0.35278 -0.15557,-0.35278 -0.53993,0 -0.45913,-2.33907 0.11945,-3.45793 0.27118,-0.5244 0.8268,-1.2555 1.23472,-1.62466 0.78138999,-0.70714 1.01058999,-1.97297 0.35724999,-1.97297 -0.21143,0 -0.64798999,0.32178 -0.97013999,0.71506 -0.39511,0.48236 -1.19494,0.78612 -2.45785001,0.93346 -1.57458,0.18369 -2.03489,0.0981 -2.89613,-0.53867 -0.5632,-0.41639 -1.17073,-0.75707 -1.35008,-0.75707 -0.17935,0 -0.69164,0.90066 -1.13843,2.00146 l -0.81233,2.00146 -0.6701,-1.56048 c -1.1375802,-2.64914 -2.0153702,-6.65131 -2.2525202,-10.27011 -0.2368,-3.61336 -0.58112,-4.3862 -0.95267,-2.1383 -0.89156,5.3939 1.03593,13.83599 4.3009802,18.83753 2.14476,3.28545 4.3726,5.24846 7.99193001,7.04191 4.60459999,2.28167 9.71953999,2.92229 14.87808979,1.86339 z m -9.0529898,-1.90297 c -3.09143,-0.52756 -9.28811,-3.64596 -8.60414,-4.32994 0.34629,-0.34629 1.19581,0.14066 1.19581,0.68545 0,0.28173 0.15983,0.41346 0.35518,0.29272 0.19535001,-0.12073 0.79067001,0.0882 1.32292001,0.46417 1.33367999,0.94222 5.85075999,2.52321 8.19743999,2.86912 1.6704398,0.24623 1.7448698,0.28655 0.5314,0.28786 -0.77611,8.4e-4 -2.12549,-0.12039 -2.99861,-0.26938 z m -4.23333,-7.48229 c 0,-0.39009 0.9737,-0.34727 1.22152,0.0537 0.11266,0.18228 -0.11609,0.30725 -0.50834,0.2777 -0.39225,-0.0295 -0.71318,-0.17869 -0.71318,-0.33142 z m -0.67771,-0.4835 c 0.0169,-0.41096 0.10052,-0.49456 0.21314,-0.21313 0.10191,0.25466 0.0894,0.55893 -0.0279,0.67615 -0.11723,0.11723 -0.20060999,-0.0911 -0.18529,-0.46302 z m 24.3138198,-4.20393 c -0.35617,-0.42916 -0.34211,-0.52917 0.0744,-0.52917 0.28246,0 0.51357,0.23813 0.51357,0.52917 0,0.29104 -0.0335,0.52917 -0.0744,0.52917 -0.0409,0 -0.27202,-0.23813 -0.51356,-0.52917 z m -29.3416698,-8.96748 c 0.28048,-1.8802 -1.80569,-2.35393 -2.74932,-0.62432 -0.51261,0.93957 -0.49671,1.02786 0.30347,1.68507 0.74351,0.61067 0.93322,0.6349 1.5875,0.20277 0.40869,-0.26993 0.79495,-0.83852 0.85835,-1.26352 z m 17.1966698,-0.18207 c 0.317,-1.26306 -0.40238,-2.31573 -1.58255,-2.31573 -1.25298,0 -1.8794798,0.72308 -1.7319698,1.99897 0.2281398,1.97328 2.8361998,2.22253 3.3145198,0.31676 z m 13.69511,-3.10948 c 0.52885,-0.84462 -0.11605,-1.81961 -1.29739,-1.96142 -1.17323,-0.14083 -1.88039,0.98581 -1.29974,2.07076 0.472,0.88195 2.01718,0.8169 2.59713,-0.10934 z M 0.62160621,137.03292 c 0.85820999,-0.85821 0.88480999,-1.33388 0.12172,-2.17709 -0.92681,-1.0241 -2.10626001,-0.82615 -2.54304001,0.42681 -0.31531,0.90448 -0.26559,1.18003 0.31826,1.76389 0.87022001,0.87021 1.22151001,0.86794 2.10306001,-0.0136 z m 5.02779999,-3.67833 c 7.0076698,-2.50079 7.9287898,-12.07612 1.51556,-15.75468 -1.46348,-0.83944 -2.18951,-1.02146 -4.07391,-1.02134 -5.23739,3.1e-4 -8.81945,3.52978 -8.81945,8.68997 0,5.8411 5.90631001,10.03864 11.3778,8.08605 z m 14.2640498,-4.84983 c 1.80427,-1.69503 0.47917,-4.99499 -2.00574,-4.99499 -2.41971,0 -3.76898,3.20165 -2.10292,4.98996 0.96884,1.03992 3.00441,1.04242 4.10866,0.005 z m 22.05675,35.15401 c -2.74762,-0.59663 -6.00566,-2.05668 -6.2998,-2.82318 -0.12115,-0.31573 0.0214,-0.81572 0.31675,-1.11108 0.48086,-0.48086 0.82724,-0.43589 3.31144,0.42991 2.30318,0.80271 3.37358,0.96766 6.30218,0.97114 5.90467,0.007 10.03546,-1.52715 13.90852,-5.1656 1.13026,-1.0618 1.97296,-1.62149 2.05787,-1.36676 0.0791,0.23726 0.36869,0.43138 0.64356,0.43138 1.31964,0 -0.0598,2.2591 -2.72577,4.46388 -4.79176,3.96287 -11.31606,5.51632 -17.51475,4.17031 z m 32.38195,-9.89395 c -3.88247,-1.01606 -7.45627,-3.09986 -10.11291,-5.89662 -5.6564,-5.95471 -8.14433,-13.42907 -7.77528,-23.35889 0.27513,-7.40256 2.05201,-12.24017 6.46796,-17.60917 2.92313,-3.55399 6.84293,-6.039 11.77301,-7.46365 2.82076,-0.81512 9.77257,-0.92041 12.7,-0.19235 2.40405,0.59789 6.49396,2.4435 8.55072,3.85859 2.11683,1.45641 5.339144,4.78094 6.881154,7.09943 1.46602,2.20423 3.00808,5.98158 3.85602,9.44553 0.88631,3.62066 0.79409,11.42955 -0.17734,15.01693 -1.13016,4.17349 -3.28207,7.98142 -6.35848,11.25166 -2.690744,2.86028 -6.564114,5.72921 -7.335444,5.43322 -0.23064,-0.0885 -0.50688,0.0672 -0.61386,0.34597 -0.10699,0.27879 -0.43762,0.50689 -0.73475,0.50689 -1.02044,0 -0.53563,-0.5307 1.41679,-1.55089 5.50596,-2.87699 9.531594,-8.03193 11.118834,-14.23798 0.82554,-3.22782 0.91555,-9.69129 0.18297,-13.1389 -0.5157,-2.42697 -2.19721,-6.59311 -2.52768,-6.26264 -0.1077,0.1077 0.048,1.017 0.3461,2.02066 0.29805,1.00366 0.73226,3.46228 0.96489,5.46361 0.45843,3.94375 0.12871,7.81706 -0.98149,11.52984 -0.49575,1.65792 -0.60117,1.79178 -0.86246,1.09505 -0.16373,-0.43656 -0.42692,-0.79375 -0.58488,-0.79375 -0.15796,0 -0.32005,-0.39687 -0.3602,-0.88194 -0.0401,-0.48507 0.067,-0.88195 0.23809,-0.88195 0.53395,0 0.77143,-1.12377 0.34585,-1.63656 -0.60331,-0.72695 -1.161594,-0.0879 -2.048674,2.34499 -0.94332,2.58714 -1.67589,3.07456 -3.39496,2.25881 -0.68355,-0.32437 -1.40167,-0.88657 -1.59581,-1.24933 -0.46735,-0.87324 -1.03372,-0.84035 -1.03372,0.06 0,1.31699 -1.40064,3.48903 -3.13283,4.85825 -2.34387,1.85273 -6.68032,3.25183 -10.85061,3.50083 -3.0449,0.1818 -3.2367,0.1516 -3.45763,-0.54451 l -0.23391,-0.73698 -0.72846,0.72846 c -0.59522,0.59521 -1.04244,0.69829 -2.44502,0.56352 -2.17891,-0.20937 -3.94401,-1.42195 -5.7756,-3.96769 -0.77024,-1.07057 -1.49256,-1.94649 -1.60514,-1.94649 -0.55761,0 -1.05251,0.97781 -1.06237,2.09902 l -0.011,1.25237 -0.87315,-1.41112 c -0.48024,-0.77611 -1.21224,-2.28423 -1.62667,-3.35138 -0.41444,-1.06716 -0.97589,-2.49591 -1.24769,-3.175 l -0.49417,-1.23473 0.20232,1.54043 c 0.28457,2.16669 2.37314,7.40885 3.9074,9.80729 2.02042,3.15843 4.72194,5.56468 8.01409,7.1382 3.86051,1.84516 5.94374,2.24515 10.92577,2.0978 2.28008,-0.0674 4.14539,-0.0243 4.14514,0.0958 -0.002,0.78078 -9.11191,0.8638 -11.99491,0.10931 z m -2.11666,-15.33771 c 0,-0.16182 -0.17259,-0.40088 -0.38352,-0.53125 -0.48982,-0.30272 -1.18041,0.36829 -0.87973,0.8548 0.2504,0.40515 1.26325,0.14573 1.26325,-0.32355 z m -4.08445,-5.02769 c 0.41492,-1.16139 -0.23257,-2.01095 -1.53264,-2.01095 -1.79395,0 -2.48249,1.94527 -1.04494,2.95217 0.97474,0.68274 2.15083,0.25328 2.57758,-0.94122 z m 25.73649,0.7297 c 0.29587,-0.46983 0.24986,-0.74549 -0.19942,-1.19477 -1.05682,-1.05682 -2.63353,0.32437 -1.68078,1.47236 0.54853,0.66094 1.36508,0.54038 1.8802,-0.27759 z m -9.03054,-2.23148 c 0.86378,-0.60502 1.06241,-2.20636 0.36072,-2.90805 -0.70169,-0.7017 -2.30304,-0.50306 -2.90805,0.36071 -0.7258,1.03622 -0.69273,1.54184 0.15638,2.39095 0.84911,0.84911 1.35473,0.88218 2.39095,0.15639 z m 14.18961,-1.21472 c 0.38805,-0.38806 0.70555,-1.01153 0.70555,-1.38551 0,-0.87892 -1.62965,-2.16492 -2.40376,-1.89687 -1.5623,0.54096 -1.96636,2.54669 -0.69274,3.43876 1.03621,0.7258 1.54184,0.69273 2.39095,-0.15638 z m -26.81111,-3.175 c 0.85843,-0.85843 0.89759,-1.67252 0.12171,-2.52986 -0.72607,-0.8023 -1.80521,-0.82725 -2.65157,-0.0613 -0.78968,0.71464 -0.81893,1.4805 -0.096,2.51266 0.6817,0.97327 1.70059,1.00373 2.62583,0.0785 z m 5.8916,-5.59056 c 1.95116,-0.99541 4.14906,-3.58371 4.69305,-5.52666 1.79052,-6.39511 -4.12809,-12.49726 -10.46377,-10.78825 -8.81002,2.37646 -9.13998,14.16954 -0.47595,17.01074 1.41168,0.46293 4.69144,0.0976 6.24667,-0.69583 z m 13.77631,-2.25875 c 1.12216,-1.20221 1.26894,-2.38351 0.45907,-3.69469 -1.2608,-2.04125 -3.82069,-1.95239 -5.0636,0.17577 -0.78367,1.34183 -0.60758,2.53788 0.52963,3.59735 1.06846,0.99543 3.1092,0.95615 4.0749,-0.0784 z m -5.20403,33.71935 c 0,-0.17804 0.67469,-0.52266 1.49931,-0.76582 0.82462,-0.24316 1.69774,-0.52744 1.94028,-0.63173 0.24253,-0.10429 0.44097,-0.0137 0.44097,0.20128 0,0.41272 -1.28877,0.99951 -2.91042,1.32516 -0.53357,0.10715 -0.97014,0.0492 -0.97014,-0.12889 z m -17.10972,-5.05615 c -0.11991,-0.19403 -0.0499,-0.35278 0.15557,-0.35278 0.20548,0 0.3736,0.15875 0.3736,0.35278 0,0.19402 -0.07,0.35277 -0.15557,0.35277 -0.0856,0 -0.25368,-0.15875 -0.3736,-0.35277 z m -1.05833,-0.70556 c -0.11992,-0.19403 -0.0499,-0.35278 0.15557,-0.35278 0.20548,0 0.3736,0.15875 0.3736,0.35278 0,0.19403 -0.07,0.35278 -0.15557,0.35278 -0.0856,0 -0.25368,-0.15875 -0.3736,-0.35278 z m -2.31885,-2.02847 c -2.09856,-2.21616 -2.95691,-3.2632 -2.67512,-3.2632 0.39992,0 3.23431,2.91068 3.14189,3.22645 -0.0485,0.16573 0.14993,0.30133 0.44097,0.30133 0.29104,0 0.48948,0.19844 0.44097,0.44097 -0.0485,0.24254 0.12204,0.39736 0.379,0.34404 0.25696,-0.0533 0.36665,0.0657 0.24376,0.26458 -0.30308,0.4904 -0.19347,0.56347 -1.97147,-1.31417 z m 28.95357,0.48417 c 0,-0.0733 0.27781,-0.35107 0.61736,-0.61736 0.55953,-0.43881 0.572,-0.42634 0.13319,0.13319 -0.46085,0.58764 -0.75055,0.77451 -0.75055,0.48417 z M -7.9626538,107.51718 c -1.75226,-1.75227 4.59221,-10.20529 9.47708,-12.62671 4.07646,-2.02071 9.6975898,-1.48486 9.9780998,0.95117 0.16313,1.41668 -1.25939,2.53586 -4.6407298,3.65115 -4.76949,1.57316 -7.41776999,3.07966 -11.38874,6.47859 -1.95368,1.67225 -2.88087,2.09063 -3.42571,1.5458 z M 82.450676,89.61304 c -3.63886,-1.27011 -6.43463,-1.82326 -11.546,-2.2844 -3.53464,-0.31889 -4.66641,-0.89037 -4.66641,-2.35626 0,-1.28627 0.3482,-1.85408 1.61836,-2.63908 1.61197,-0.99625 4.9477,-1.43062 7.66584,-0.99821 3.29778,0.52462 7.75055,2.82614 10.19282,5.2684 2.02679,2.02679 2.43303,2.97828 1.61909,3.79221 -0.61022,0.61023 -1.13322,0.52641 -4.8837,-0.78266 z m -111.06031,100.35731 c 0.0746,-1.36639 -0.0711,-3.64568 -0.27907,-4.36517 -0.15718,-0.54371 -0.36435,-0.43734 -1.37409,0.70555 -1.59314,1.80322 -1.5553,3.22351 0.13751,5.16153 0.53277,0.60994 0.58147,0.61094 1.01301,0.0208 0.24933,-0.34098 0.47552,-1.02619 0.50264,-1.52268 z m -2.91497,-7.40631 c 0.41194,-0.9576 0.74899,-1.97394 0.74899,-2.25854 0,-0.53384 -1.89597,-1.39513 -2.26306,-1.02804 -0.28591,0.28591 -0.26056,4.50312 0.0288,4.79249 0.47661,0.47661 0.75293,0.19645 1.48527,-1.50591 z m 2.57109,-6.91627 c 0.87726,-0.29891 2.12043,-1.08557 2.76262,-1.74814 l 1.16761,-1.20467 -0.59579,-1.56004 c -0.32768,-0.85802 -0.87277,-1.81071 -1.2113,-2.11708 -0.57355,-0.51906 -0.65787,-0.43781 -1.23655,1.19152 -0.34157,0.9617 -0.77326,1.74856 -0.9593,1.74856 -0.18605,0 -0.33828,0.23812 -0.33828,0.52916 0,0.29104 -0.14805,0.52917 -0.329,0.52917 -0.18095,0 -0.43916,0.34708 -0.57381,0.7713 -0.24268,0.76463 -0.25075,0.76311 -0.93514,-0.17639 -0.93408,-1.28229 -1.23383,-1.19767 -1.73981,0.49115 -0.35989,1.20121 -0.34767,1.49163 0.074,1.75849 0.74795,0.47331 2.11948,0.39868 3.91472,-0.21303 z m -11.53071,-3.30419 c 0.48907,-2.22673 3.55202,-6.52877 5.52304,-7.75735 l 0.92971,-0.57951 -2.58449,-2.20265 c -1.42148,-1.21146 -3.04462,-2.29468 -3.60698,-2.40715 -1.30601,-0.2612 -6.30984,0.48873 -7.55596,1.13243 -0.52355,0.27045 -1.68357,0.98551 -2.57782,1.58903 -0.89425,0.60353 -1.71353,1.00971 -1.82061,0.90263 -0.6524,-0.6524 4.46152,-5.51724 6.81837,-6.48627 0.84036,-0.34551 1.52853,-0.79052 1.52925,-0.98889 0.001,-0.38111 -5.30795,-5.18577 -9.17089,-8.29914 -7.72725,-6.22785 -17.05712,-10.68468 -26.677723,-12.74382 -3.385117,-0.72452 -4.752576,-0.81869 -11.598667,-0.79872 -7.252132,0.0212 -7.992465,0.0844 -11.288886,0.9637 -3.46529,0.92437 -7.96092,2.90563 -8.16818,3.59977 -0.0579,0.19403 1.4387,1.21666 3.32586,2.27252 4.81068,2.69156 10.007459,6.5226 17.01315,12.54201 10.500683,9.02236 15.175936,12.22966 22.577776,15.48873 8.11657,3.57377 13.27132,4.73214 21.22683,4.77008 l 5.881,0.0281 z m 179.021394,-0.37977 c 1.55226,-0.44519 3.38611,-2.21117 4.44292,-4.27851 1.25339,-2.45188 1.70545,-5.80825 1.46629,-10.88663 -0.47625,-10.1131 -3.94975,-16.59075 -8.89642,-16.59075 -1.46285,0 -2.63669,0.52629 -2.63669,1.18217 0,0.24849 0.64125,0.8122 1.42501,1.25269 1.8523,1.04106 2.89987,2.19835 4.20293,4.64312 3.3359,6.2588 3.03083,16.73792 -0.59758,20.52688 -0.99727,1.04139 -3.00427,1.32409 -4.33693,0.61087 -1.20871,-0.64689 -2.45993,-3.36933 -3.3414,-7.27034 -1.40199,-6.20464 -2.05708,-7.2045 -2.45531,-3.74748 -0.6781,5.88659 2.19977,12.35469 6.338,14.24484 1.6071,0.73404 2.65971,0.80914 4.38918,0.31314 z m -1.62185,-7.17198 c 0.30506,-0.64288 0.66094,-1.8335 0.79084,-2.64583 l 0.23617,-1.47697 -1.19161,-0.008 c -0.65539,-0.005 -1.77898,-0.14487 -2.49687,-0.31164 -0.71789,-0.16678 -1.37992,-0.22856 -1.47118,-0.1373 -0.21386,0.21385 0.76276,3.51755 1.41271,4.77888 0.72348,1.40404 2.00376,1.3105 2.71994,-0.19872 z m -167.529184,-4.03461 c -0.33505,-0.7761 -2.83035,-12.06415 -3.13885,-14.1993 -0.27525,-1.90503 -1.96587,-3.85197 -6.60028,-7.60097 -3.39762,-2.74851 -7.51909,-5.04363 -12.87944,-7.17219 -7.46748,-2.96528 -13.10552,-3.92312 -23.05151,-3.91618 -9.599464,0.007 -14.801641,0.75062 -22.505237,3.2183 -3.303829,1.05831 -4.341459,1.77758 -1.431059,0.99199 3.046569,-0.82235 7.968829,-1.38342 12.19105,-1.38962 4.661499,-0.007 11.628536,1.20321 17.504606,3.04026 4.47056,1.39765 13.69928,6.11449 16.28461,8.32315 0.19658,0.16794 1.19419,0.92335 2.21692,1.6787 1.02272,0.75534 3.40397,2.75559 5.29166,4.44498 1.8877,1.6894 3.91238,3.4848 4.4993,3.9898 0.58692,0.50499 2.16287,1.87067 3.50211,3.03483 2.78139,2.4178 7.63017,6.10615 8.08031,6.14651 0.16628,0.0149 0.18239,-0.25071 0.0358,-0.59026 z m 167.717804,-3.58214 c 0.62121,-0.39346 0.59408,-3.51416 -0.036,-4.14427 -0.55108,-0.55108 -2.03797,-0.23272 -2.03797,0.43635 0,0.2782 -0.21966,0.39265 -0.52714,0.27466 -0.28993,-0.11125 -0.46486,-0.30471 -0.38874,-0.4299 0.0761,-0.12519 -0.48269,-0.26383 -1.24182,-0.3081 l -1.38023,-0.0805 0.50275,0.96243 c 0.64439,1.23361 2.25767,2.76352 3.38795,3.2129 1.11816,0.44456 1.13857,0.44547 1.72123,0.0764 z m -0.4961,-7.77941 c 0.11464,-0.18549 -0.0468,-0.93955 -0.35865,-1.6757 l -0.56708,-1.33844 -0.41428,0.99258 -0.41428,0.99258 -2.00136,-1.43355 c -1.10075,-0.78846 -2.08682,-1.43356 -2.19127,-1.43356 -0.31254,0 -0.97129,2.81089 -0.74468,3.17756 0.52776,0.85393 6.22953,1.46617 6.6916,0.71853 z m 12.29321,-7.21808 c 15.87588,-5.63187 26.58651,-14.46414 35.40479,-29.19575 1.19904,-2.00309 3.20331,-5.54698 4.45393,-7.87531 2.58599,-4.81443 3.81805,-6.93183 5.64503,-9.70139 3.08772,-4.68074 4.30626,-6.26742 6.69706,-8.72032 1.39884,-1.43518 2.59316,-2.74966 2.65404,-2.92107 0.0609,-0.17142 -0.41537,-0.59879 -1.05833,-0.94972 -0.9494,-0.51818 -1.89806,-0.62756 -5.04958,-0.58222 -6.29757,0.0906 -14.73732,2.18288 -22.90921,5.67938 -5.87425,2.51342 -9.66279,4.75513 -13.55446,8.02031 -8.1412,6.83061 -11.48155,11.59263 -17.98773,25.64341 -1.87588,4.05115 -1.86626,4.16912 0.33999,4.16912 1.50215,0 5.1321,1.27997 7.28016,2.56709 2.73476,1.63866 2.40902,2.02803 -1.05833,1.26509 -2.84874,-0.62682 -8.13541,-0.82244 -9.65964,-0.35743 -0.50704,0.15468 -1.38892,1.46305 -2.70728,4.01652 l -1.95529,3.7871 2.18553,1.04306 c 1.58076,0.75443 2.75108,1.68325 4.22937,3.35664 1.12411,1.27248 2.18197,2.3136 2.35079,2.3136 0.16882,0 2.28344,-0.70115 4.69916,-1.55811 z M 134.3463,129.97336 c 1.19754,-1.74846 4.05868,-7.04665 6.35809,-11.77377 5.613,-11.53918 8.06325,-15.4804 12.55265,-20.1909 6.06744,-6.36625 15.20718,-11.57404 25.69373,-14.6402 3.96045,-1.15799 11.11889,-2.42706 13.69095,-2.42717 1.04116,-4e-5 1.61229,-0.13634 1.47849,-0.35284 -0.28821,-0.46633 -7.20327,-0.45305 -12.63929,0.0243 -9.86518,0.86622 -20.28613,3.86343 -29.50125,8.48497 -6.47837,3.24902 -11.45388,6.84331 -15.97939,11.54346 -3.16132,3.28333 -6.96899,8.64635 -6.96575,9.81112 9.9e-4,0.35831 0.38654,2.47709 0.85676,4.70841 0.96382,4.57361 1.96365,12.64803 1.96365,15.85813 0,1.17344 0.0707,2.13353 0.15701,2.13353 0.0864,0 1.13681,-1.43055 2.33435,-3.179 z M 20.101496,64.448896 c 0.29658,-0.339549 0.74213,-1.252361 0.99011,-2.028472 0.24798,-0.776111 0.70022,-1.794304 1.00499,-2.262651 l 0.55411,-0.85154 -2.10691,0.246389 c -1.1588,0.135513 -2.15974,0.39937 -2.2243,0.586349 -0.0646,0.186979 -0.48381,0.247997 -0.93165,0.135595 -0.44785,-0.112401 -0.9192,-0.03457 -1.04746,0.172955 -0.14455,0.23388 -0.02,0.295498 0.3277,0.162085 0.44143,-0.169394 0.39334,0.06875 -0.22581,1.11812 l -0.7867,1.333356 1.20094,1.002587 c 1.3733,1.146479 2.46668,1.27628 3.24498,0.385227 z m -5.69896,-1.900323 0.83208,-1.776523 -0.86831,-0.667274 c -1.18555,-0.91107 -1.542,-0.855915 -2.60084,0.402437 -1.14084,1.355809 -1.15424,2.233513 -0.051,3.336803 1.12682,1.126821 1.67788,0.86125 2.68802,-1.295443 z m 12.5006,0.962894 c 0.90824,-0.5951 1.76101,-2.988528 1.43301,-4.02196 -0.33078,-1.042209 -1.61779,-1.389861 -3.19648,-0.863451 -2.02647,0.675716 -2.6508,1.258539 -2.88336,2.691663 -0.14334,0.883292 -0.0212,1.546415 0.40432,2.195901 0.53318,0.813747 0.78392,0.907098 1.99876,0.744154 0.76401,-0.102475 1.7737,-0.438313 2.24375,-0.746307 z m 6.51289,-1.259985 c 1.38252,-0.739901 1.68367,-3.860566 0.46648,-4.833911 -0.59834,-0.478469 -1.14807,-0.323537 -3.04457,0.858058 -1.28055,0.797837 -1.34358,0.918947 -1.11495,2.14244 0.13327,0.71324 0.4063,1.495237 0.60672,1.737772 0.43449,0.52579 2.18143,0.579925 3.08632,0.09564 z m 6.46028,-2.541102 c 1.15873,-1.370194 -0.005,-3.110789 -2.0803,-3.110789 -0.84697,0 -1.20369,0.189577 -1.37554,0.731016 -0.26382,0.831248 0.0537,2.39051 0.62763,3.08205 0.51434,0.619738 2.02809,0.243857 2.82821,-0.702277 z m -21.59672,-1.00434 c 0.55833,-0.298807 0.66524,-0.704287 0.60461,-2.293056 -0.0834,-2.18621 -0.28983,-2.294703 -2.35813,-1.239531 -1.35481,0.691174 -1.79335,1.292582 -1.79335,2.459415 0,1.1118 2.21975,1.783426 3.54687,1.073172 z m 27.41908,-1.244508 c 1.87029,-1.310003 0.30968,-4.023448 -2.01979,-3.511812 -1.37786,0.302631 -1.47828,0.507079 -0.96639,1.967643 0.79715,2.274528 1.4566,2.61553 2.98618,1.544169 z m -21.53045,-0.178046 c 1.08752,-0.379111 1.12819,-0.468566 1.66253,-3.656166 0.0952,-0.567596 0.31196,-1.123221 0.48181,-1.234722 0.16985,-0.111501 0.41375,-0.440854 0.54201,-0.731895 0.12826,-0.291042 0.13722,-0.132292 0.0199,0.352777 -0.60692,2.509667 -0.5862,2.861484 0.21894,3.718517 1.75956,1.872966 4.35993,1.371784 5.52157,-1.064198 0.49077,-1.02916 0.50613,-1.413684 0.11261,-2.819216 -0.75375,-2.692109 -2.30262,-2.919041 -6.44119,-0.943727 -1.2128,0.57886 -3.01535,1.308293 -4.00567,1.620961 -2.10878,0.665794 -2.8162,1.704806 -2.23228,3.278626 0.66189,1.78396 1.93448,2.240833 4.11975,1.479043 z m 17.37561,-1.151567 c 0,-0.25722 -0.39222,-0.836146 -0.8716,-1.286501 -0.74993,-0.704526 -0.95211,-0.752014 -1.44833,-0.340186 -0.5233,0.434298 -0.4834,0.553324 0.43063,1.284748 1.13061,0.904732 1.8893,1.042045 1.8893,0.341939 z m 7.13815,-2.63229 c 0.40794,-1.559945 -0.93082,-2.87055 -2.22482,-2.178027 -0.93023,0.497846 -0.85888,0.831418 0.40541,1.895241 1.28285,1.079455 1.59826,1.128477 1.81941,0.282786 z m -33.76803,-0.08286 c 0.12257,-0.198331 -0.49038,-1.153904 -1.36213,-2.123495 -1.59219,-1.770896 -2.80864,-3.913502 -3.24636,-5.717985 -0.3483498,-1.436019 0.27115,-1.169012 1.0476,0.45152 1.43941,3.004238 4.54177,5.639354 6.6288,5.63045 0.4443,-0.0019 1.65701,-0.39877 2.69492,-0.881944 1.03791,-0.483174 2.10947,-0.878498 2.38125,-0.878498 0.68919,0 0.61722,-0.599519 -0.12322,-1.026507 -0.44686,-0.257685 -0.12192,-0.299574 1.17653,-0.151671 1.39165,0.15852 2.17992,0.03358 3.51543,-0.557179 0.94685,-0.418836 1.84373,-0.953784 1.99307,-1.188775 0.46002,-0.723866 0.31105,-3.73256 -0.25147,-5.078864 -0.69835,-1.67139 -0.40986,-1.882123 0.8821,-0.644346 1.24421,1.192031 1.85914,2.860019 1.72454,4.6778 -0.0716,0.967174 0.031,1.294988 0.381,1.217075 0.26346,-0.05865 1.49017,-0.201056 2.72602,-0.316462 1.95654,-0.182705 2.44582,-0.384825 3.78494,-1.563569 3.27351,-2.881462 5.01939,-7.06213 5.45886,-13.071793 l 0.2661,-3.638763 0.75884,1.615384 c 1.58422,3.372441 1.21947,8.426303 -0.92096,12.760309 -1.11116,2.249922 -1.01803,2.648103 0.20066,0.85795 2.14523,-3.151158 2.9128,-5.475327 3.22512,-9.765588 l 0.24397,-3.351389 0.64452,2.086259 c 0.55287,1.789592 0.69648,1.990253 1.00987,1.411111 0.96515,-1.783595 7.20979,-8.77031 9.49826,-10.626976 5.03778,-4.08722 8.08322,-5.781975 13.80473,-7.682179 8.84019,-2.935964 17.21363,-2.473165 23.84845,1.318101 2.06439,1.179632 5.841254,4.784427 6.201274,5.918755 0.21058,0.663488 0.87408,0.987429 0.88315,0.43118 0.0136,-0.832086 -4.203874,-8.376787 -5.760674,-10.305444 -5.96761,-7.393066 -16.17095,-12.78946404 -26.6992,-14.12082604 -3.60746,-0.45618596 -11.5453,-0.43952196 -15.94936,0.03348 -6.63879,0.713018 -15.46903,3.38289804 -21.0923,6.37739504 -7.59859,4.046389 -16.0633,11.303309 -20.49938,17.574422 -5.0028698,7.072359 -7.8522498,15.492362 -7.1858198,21.234314 0.35599,3.06731 2.22965,6.613544 4.3255798,8.186934 1.62724,1.221554 3.33843,1.632847 3.78529,0.909814 z m 22.32599,-0.415508 c 1.23495,-1.234946 -0.12764,-3.686543 -1.81376,-3.263354 -1.65282,0.41483 -2.01423,1.792416 -0.85153,3.245715 0.44893,0.561133 2.1108,0.572131 2.66529,0.01764 z m 5.51342,-0.836587 c 1.18715,-1.187157 0.3144,-3.32619 -1.35714,-3.32619 -0.84082,0 -2.32183,1.064909 -2.32183,1.669498 0,0.19361 0.32902,0.770302 0.73116,1.281537 0.82656,1.050798 2.10896,1.214004 2.94781,0.375155 z m 51.37852,-8.128355 c 1.78986,-0.531351 5.973064,-2.455408 5.973064,-2.747302 0,-0.07204 -1.140204,0.168372 -2.533784,0.534245 -4.47706,1.175414 -8.91882,0.714616 -10.84375,-1.124958 -1.15962,-1.108195 -1.4527,-2.443153 -0.53637,-2.443153 0.34014,0 0.45316,-0.168247 0.29622,-0.440972 -0.14786,-0.256932 -0.11974,-0.317244 0.0674,-0.144513 0.17663,0.163053 0.32114,0.639303 0.32114,1.058333 0,1.012745 1.8081,1.31885 2.01691,0.341456 0.23944,-1.120722 -0.10933,-1.779145 -1.27492,-2.406855 -1.0583,-0.56993 -1.21292,-0.572349 -2.25162,-0.03522 -1.27807,0.660919 -1.84176,1.535267 -1.84176,2.856817 0,3.785776 5.393,6.100135 10.6075,4.552119 z"
       id="path1" /></g></svg>
