<?xml version="1.0" encoding="UTF-8" standalone="no"?>
<!-- Created with Inkscape (http://www.inkscape.org/) -->

<svg
   width="263.57349mm"
   height="280.74316mm"
   viewBox="0 0 263.57349 280.74313"
   version="1.1"
   id="svg1"
   xml:space="preserve"
   xmlns="http://www.w3.org/2000/svg"
   xmlns:svg="http://www.w3.org/2000/svg"><defs
     id="defs1"><clipPath
       clipPathUnits="userSpaceOnUse"
       id="clipPath6"><path
         id="path7"
         style="fill:#ff0000;fill-opacity:1;fill-rule:nonzero;stroke:none;stroke-width:0.264583"
         d="M -175.07778,-16.057127 V 287.55793 H 124.54631 V -16.057127 Z m 132.7459,202.572647 c 0.210643,0.005 0.427212,0.0169 0.650089,0.0367 2.23823,0.19855 4.475655,0.4031 6.717938,0.55346 1.973313,0.11308 0.986628,0.0436 2.958475,0.20825 3.181295,0.26563 4.740125,1.85116 4.950601,3.46956 4.949923,1.63749 3.796379,7.35609 -2.592089,6.81354 -3.228716,-0.27422 -1.569593,-0.1301 -4.979024,-0.43357 -4.228209,-0.39317 -8.460616,-0.76265 -12.666927,-1.35341 -6.647387,-0.93358 -5.930551,-7.21034 0.03204,-7.20421 0.04685,5e-5 0.0972,0.004 0.144695,0.005 0.687229,-1.21692 2.304132,-2.15435 4.784204,-2.09548 z" /></clipPath></defs><g
     id="layer1"
     transform="translate(106.57063,0.26215031)"><path
       style="fill:#000000"
       d="m 70.082604,280.00464 c -6.63095,-1.85202 -13.97105,-7.60989 -19.3568,-15.18424 -1.22987,-1.72965 -2.34112,-3.32461 -2.46944,-3.54435 -0.22718,-0.38902 -3.1923,-0.78979 -16.63748,-2.24873 -3.58951,-0.3895 -8.50554,-1.1121 -10.9245,-1.60578 -4.92718,-1.00557 -13.2030904,-3.67098 -17.4736604,-5.62771 -2.70890998,-1.2412 -2.89821998,-1.27756 -4.73314,-0.90905 -1.05126,0.21112 -3.17341,0.38385 -4.7159,0.38385 -2.74003,0 -2.79935,0.0183 -2.57905,0.79375 0.506,1.78122 0.643,7.93386 0.23097,10.37259 -1.11756,6.61456 -5.2401496,10.99212 -11.4293596,12.13626 -7.85608,1.45228 -16.51884,-5.60449 -22.29572,-18.1623 l -1.7155,-3.72919 h -3.22425 c -6.94779,0 -11.84868,-2.14455 -17.30288,-7.57146 -2.98058,-2.96567 -3.79684,-4.02827 -5.023581,-6.53965 -1.860976,-3.80977 -2.530089,-6.46872 -2.530089,-10.05416 0,-5.53372 1.524166,-9.10693 5.64444,-13.23268 3.99645,-4.00175 8.66352,-6.20372 13.93473,-6.57457 2.32255,-0.16339 3.07346,-0.37306 4.24127,-1.18424 0.78048,-0.54213 2.48704,-1.35842 3.79236,-1.81398 1.63277,-0.56985 2.37331,-1.00952 2.37331,-1.40909 0,-0.31943 -0.24497,-0.67479 -0.54438,-0.78968 -0.69894,-0.26821 -0.31241,-1.02664 1.70628,-3.34791 0.81616,-0.93849 1.7447,-2.18917 2.06342,-2.77928 0.31872,-0.59011 1.03267,-1.29013 1.58655,-1.5556 0.88432,-0.42385 1.03912,-0.73927 1.27004,-2.58794 0.23762,-1.90232 1.33668,-6.63722 1.85283,-7.98229 0.16214,-0.42255 -0.9916,-0.92231 -5.54067,-2.40007 -15.37509,-4.99455 -29.588328,-11.46366 -40.957152,-18.64153 -2.633338,-1.6626 -4.905765,-2.82126 -6.17361,-3.14779 -3.064645,-0.78931 -5.216203,-2.37523 -6.43417,-4.74267 -0.501249,-0.9743 -0.943816,-1.33441 -1.848569,-1.50414 -2.452018,-0.46001 -8.387993,-4.61706 -9.938573,-6.96015 -2.0583,-3.11031 -1.99004,-7.88122 0.14548,-10.16731 0.54763,-0.58623 1.10108,-1.6277 1.2299,-2.31439 0.14003,-0.74643 0.85943,-1.95246 1.78889,-2.99898 0.85506,-0.96276 1.72563,-2.06994 1.934603,-2.4604 0.208971,-0.39047 1.049327,-1.06416 1.867458,-1.4971 1.251832,-0.66244 2.053253,-0.78838 5.058276,-0.7949 l 3.570766,-0.008 -0.499902,-1.68335 c -0.274946,-0.92585 -1.518027,-4.27937 -2.762402,-7.45229 -5.304123,-13.52447 -7.665949,-24.647728 -7.685619,-36.196298 -0.0192,-11.25913 1.774519,-17.738938 5.158557,-18.635406 1.489243,-0.394516 3.06259,0.07196 5.750553,1.704952 7.84204,4.764204 15.715875,12.504534 22.017444,21.644124 2.47194,3.58522 3.45193,4.61384 2.33153,2.44722 -1.70282,-3.29288 -2.41506,-11.96601 -1.34129,-16.33311 0.80218,-3.262526 3.00365,-7.396216 5.48891,-10.306528 1.71546,-2.008841 2.32429,-2.992501 2.32429,-3.755201 0,-2.599264 2.10603,-7.617975 4.20868,-10.029371 0.7349,-0.842807 1.05414,-1.673964 1.24796,-3.249175 0.69869,-5.67825 4.56538,-11.896939 12.13159,-19.510921 10.43993,-10.505843 23.58512,-18.1076033 39.4166596,-22.7943433 9.00816,-2.66675801 16.3511104,-3.73223301 25.7215004,-3.73223301 15.38558,0 27.93473,3.31476401 40.46285,10.68795231 10.84587,6.383132 19.11593,14.786883 29.23255,29.705101 3.77119,5.561085 7.261256,8.203335 11.999446,9.084493 1.66442,0.309532 2.99832,0.259085 6.85812,-0.259368 5.29532,-0.711275 8.8193,-0.502212 13.75257,0.815883 12.60362,3.367496 22.49116,12.891242 27.88161,26.855761 2.31992,6.01001 2.7792,8.43 2.78151,14.656 0.002,4.96872 -0.0915,5.89447 -0.78008,7.73293 -0.77307,2.064198 -2.50397,5.307358 -2.71283,5.082958 -0.0593,-0.0637 0.11012,-1.14776 0.37653,-2.40894 0.26642,-1.26118 0.4877,-4.212348 0.49174,-6.558148 0.0135,-7.81257 -1.90524,-12.65821 -7.04168,-17.78352 -4.32948,-4.32009 -7.83361,-6.18585 -13.27241,-7.06685 -6.13902,-0.99443 -12.98156,1.16898 -22.85399,7.22574 -7.43633,4.56222 -11.962666,6.28659 -17.730146,6.75456 -1.7024,0.13813 -3.0534,0.41341 -3.11197,0.63408 -0.0569,0.21449 -0.28638,1.58912 -0.50989,3.05474 -0.22352,1.46563 -0.71376,3.67992 -1.08943,4.92065 -0.37566,1.24074 -0.64065,2.29826 -0.58885,2.35005 0.0518,0.0518 2.30896,-0.3653 5.01592,-0.92687 11.021476,-2.28647 24.486836,-3.89441 32.592716,-3.892 3.78329,10e-4 4.5982,0.10277 5.56887,0.69461 1.27848,0.77952 1.69041,1.90801 1.39562,3.82329 -0.22712,1.47561 -12.07239,24.939838 -15.17143,30.052998 -8.07002,13.31488 -16.25399,20.69909 -29.096366,26.25297 -2.91355,1.26001 -3.95405,1.89623 -4.56696,2.79248 -0.43656,0.63839 -0.79375,1.38985 -0.79375,1.66992 0,0.28006 -0.55562,0.68311 -1.23472,0.89567 -1.35519,0.42416 -1.47061,0.30411 -0.69434,-0.72222 0.28487,-0.37663 0.50506,-1.24976 0.4893,-1.94028 l -0.0287,-1.25549 -0.44299,1.00196 c -0.9434,2.13381 -2.261,1.86879 -3.2222,-0.64809 -1.07524,-2.81546 -0.25148,-6.35797 2.23911,-9.62916 1.09497,-1.43814 1.48134,-4.28196 0.67291,-4.95289 -0.8234,-0.68337 -2.30333,-0.12318 -3.8297,1.44965 -3.85788,3.97527 -5.17352,12.09589 -2.6819,16.55358 0.69766,1.24817 2.57467,2.53989 3.16266,2.17649 0.44409,-0.27446 0.32262,0.74276 -0.14447,1.20985 -0.9541,0.9541 -3.45722,0.21976 -3.45722,-1.01424 0,-0.38896 -0.3159,-1.32641 -0.702,-2.08323 -0.56989,-1.11708 -1.19842,-1.62137 -3.33998,-2.67979 -2.29701,-1.13524 -2.81045,-1.26503 -3.97231,-1.00412 -1.7398,0.39069 -6.3326,0.24181 -9.44821,-0.30626 l -2.46944,-0.43441 -2.43667,2.5836 c -4.05028,4.29453 -9.16913,7.83123 -11.33453,7.83123 -0.96553,0 -1.32218,0.18698 -1.6252,0.85204 -0.21352,0.46863 -0.64668,0.93304 -0.96258,1.03202 -0.3159,0.099 -2.00311,0.75168 -3.74936,1.45043 l -3.175,1.27044 5.11528,-0.21138 c 7.28805,-0.30117 7.34708,-0.30035 9.87778,0.13588 1.41128,0.24327 7.40446,0.398 15.58522,0.40236 11.35143,0.006 13.36942,-0.0702 13.82132,-0.52207 0.29105,-0.29104 1.02188,-0.52917 1.62407,-0.52917 0.7555,0 1.17339,-0.20947 1.34812,-0.67577 0.36867,-0.98391 4.88291,-4.86103 5.88226,-5.05207 0.46853,-0.0896 2.88617,-0.0895 5.37253,1.4e-4 4.07641,0.14697 4.60731,0.2415 5.40259,0.96197 1.19999,1.0871 2.25084,1.59073 3.31913,1.59073 0.63821,0 1.05308,0.30361 1.44165,1.05501 0.30006,0.58026 0.925456,1.30393 1.389766,1.60816 0.9806,0.64251 1.96333,2.5314 1.96333,3.77367 0,0.47418 0.33941,1.16456 0.75425,1.53418 1.19445,1.06426 1.71547,2.74181 1.71175,5.5114 -0.007,4.99124 -2.01525,7.46936 -8.873166,10.94759 -3.90652,1.98131 -6.42459,2.73388 -9.14753,2.73388 -0.85513,0 -1.82174,0.32196 -2.64608,0.88138 -0.71433,0.48476 -1.95169,1.05724 -2.74969,1.27218 -1.97565,0.53214 -6.83043,0.51625 -8.47879,-0.0278 -1.04409,-0.34458 -1.91509,-0.35641 -3.86286,-0.0525 -10.01348,1.56252 -23.58373,1.74911 -39.73287,0.54633 l -2.64583,-0.19706 2.05499,1.14762 c 2.57684,1.43905 4.95819,4.05576 5.68652,6.24857 0.554,1.66792 0.57902,1.68797 2.63706,2.11305 3.21119,0.66326 6.7809,2.63284 9.33746,5.15192 l 2.24897,2.216 3.23663,0.41508 c 4.9321,0.63252 8.33912,2.28012 11.46841,5.54604 2.87102,2.99635 5.4869,9.37602 5.4869,13.38157 v 1.48792 l 3.0868,0.15704 c 4.66161,0.23717 8.02269,2.12526 10.8591,6.10012 1.86742,2.61696 3.37064,6.26099 4.60505,11.16339 1.24732,4.95361 1.58878,13.86387 0.70234,18.3269 -1.22193,6.15214 -4.47963,10.93247 -8.7679,12.86599 -2.7124,1.22298 -6.78811,1.50251 -9.76889,0.66998 z m 8.54643,-4.85465 c 5.09779,-2.9875 7.36985,-10.37829 6.28509,-20.44478 -0.56146,-5.2104 -1.49912,-8.68128 -3.37453,-12.49136 -2.32576,-4.72499 -5.49129,-7.17299 -9.27547,-7.17299 -1.00776,0 -1.16979,0.10302 -0.97095,0.61736 0.73402,1.89862 1.0219,6.18637 0.60769,9.05114 -0.51225,3.54296 -1.04072,4.90767 -3.11007,8.03147 -3.07591,4.64325 -7.80025,7.88391 -12.79461,8.77645 l -2.48558,0.4442 1.05447,1.44455 c 1.61131,2.20738 5.91112,6.49 8.27464,8.24156 2.32987,1.72662 4.71095,3.01526 7.40833,4.00939 2.57089,0.94751 6.28217,0.723 8.38099,-0.50699 z m -97.01367,-5.4474 c 2.0823,-0.81851 4.25984,-3.5133 5.19892,-6.43385 0.70862,-2.20382 0.78161,-2.98528 0.61936,-6.63179 -0.18601,-4.18086 -0.59263,-5.9815 -1.40599,-6.22623 -0.24545,-0.0739 -2.06228,-0.6475 -4.03741,-1.27476 l -3.59114,-1.14049 -1.87691,1.65032 c -3.7187,3.26976 -8.45351,4.99423 -13.00611,4.73698 l -2.37408,-0.13414 0.83845,1.89589 c 2.18701,4.94522 7.16543,10.83449 10.80543,12.78239 3.32986,1.78194 5.73257,1.99302 8.82948,0.77568 z m 78.0248,-11.71946 c 7.80915,-3.72697 12.23393,-13.4354 9.59605,-21.05473 -0.77363,-2.23458 -1.30723,-1.69296 -2.18409,2.21687 -1.01536,4.5274 -2.02092,6.62991 -4.92152,10.29032 -2.95927,3.73445 -7.57743,6.78342 -11.9027,7.85831 -0.92163,0.22903 -1.67569,0.53142 -1.67569,0.67197 0,0.14054 0.75406,0.51741 1.67569,0.83748 2.63446,0.9149 6.47853,0.57992 9.41226,-0.82022 z m -11.26434,-2.63123 c 1.16417,-0.30937 3.45682,-1.21871 5.09479,-2.02074 5.54472,-2.71498 9.88946,-8.27176 11.54255,-14.76253 0.71559,-2.80971 0.78799,-9.25176 0.1348,-11.99444 -1.18357,-4.9697 -4.33372,-9.38174 -7.91407,-11.08432 -1.9497,-0.92715 -4.27037,-1.52328 -4.03117,-1.03553 1.54336,3.14709 1.78516,3.97486 1.93047,6.60868 l 0.15809,2.86534 -0.67377,-1.86473 c -0.94636,-2.61912 -2.93836,-5.36965 -5.85649,-8.08653 -3.50206,-3.26055 -6.32759,-5.30184 -9.20464,-6.64986 -3.90116,-1.82787 -3.86142,-1.82793 -4.56234,0.007 -0.73262,1.91834 -4.10738,5.48855 -7.07933,7.48934 -7.08978,4.77301 -15.33032,7.48014 -26.7307104,8.7814 l -1.68348998,0.19216 0.77903,1.12374 c 0.42846,0.61806 2.29727998,2.69788 4.15292998,4.62183 3.01366,3.12457 3.18607,3.36941 1.6147,2.29305 -0.96757,-0.66276 -3.36941,-2.8135 -5.33742998,-4.77941 l -3.57820002,-3.57439 -3.74661,-0.13869 -3.7465996,-0.13869 0.004,1.42002 c 0.002,0.78101 0.23458,2.28577 0.5161796,3.3439 0.28159,1.05813 0.46404,1.97181 0.40545,2.0304 -0.0586,0.0586 -0.5569,-1.04528 -1.1073496,-2.45304 -0.55045,-1.40776 -1.19437,-3.05498 -1.43092,-3.66048 -0.36717,-0.93985 -0.66252,-1.13577 -2.01873,-1.33915 -0.87375,-0.13103 -2.82984,-0.62118 -4.34686,-1.08924 -3.21819,-0.99292 -3.43344,-0.87219 -3.14774,1.76541 0.18123,1.67313 0.16469,1.71851 -0.32147,0.88195 -0.28189,-0.48507 -0.61883,-1.56401 -0.74876,-2.39763 -0.22252,-1.42775 -0.36036,-1.57835 -2.37551,-2.5956 -1.17661,-0.59395 -3.52318,-1.93595 -5.21462,-2.98223 -1.69143,-1.04627 -3.17025,-1.90232 -3.28626,-1.90232 -0.41371,0 -0.20182,3.113 0.31514,4.62995 0.46598,1.36733 0.46601,1.46548 2.5e-4,0.85921 -0.80535,-1.0483 -1.93743,-4.32096 -1.93743,-5.60078 0,-0.93758 -0.40766,-1.54753 -2.26395,-3.38731 -2.22482,-2.20505 -2.2914,-2.24074 -3.85217,-2.06482 -0.87352,0.0985 -2.66367,0.68228 -3.97811,1.29738 -1.31444,0.6151 -3.9069,1.43996 -5.76102,1.83302 -4.40885,0.93465 -9.79681,3.51233 -12.49377,5.97719 -1.39582,1.2757 -2.37625,2.6072 -3.30954,4.4946 -1.17219,2.37054 -1.34046,3.0423 -1.44937,5.78623 -0.2242,5.6486 1.92823,10.41478 6.75631,14.96065 7.05018,6.6381 16.42679,8.18191 26.98296,4.44261 3.227,-1.1431 7.67565,-3.55614 7.25215,-3.93372 -0.65514,-0.58411 -8.89471,-6.35585 -10.84578,-7.59737 -1.1442,-0.72808 -3.84295,-2.17564 -5.99723,-3.2168 -4.35558,-2.10504 -4.27075,-2.33619 0.3652,-0.99515 3.51513,1.01683 8.31427,3.41405 14.06238,7.02432 4.84963,3.04596 10.43333,5.858 14.11111,7.10659 2.31258,0.78512 3.63447,0.98684 7.3201396,1.11705 2.72359,0.0962 4.49791,0.0264 4.49791,-0.17695 0,-0.18472 -0.87029,-0.93524 -1.93398,-1.66783 -1.06369,-0.7326 -2.96588,-2.42586 -4.2271,-3.76281 -1.2612096,-1.33695 -2.4382296,-2.43082 -2.6156096,-2.43082 -0.32388,0 -2.54584,-3.43012 -4.57578,-7.06381 -1.06403,-1.90466 -0.98751,-1.84834 3.39794,2.50096 8.9621196,8.88825 17.6891496,14.27188 29.00541,17.8932 4.10352,1.31318 10.68177,2.71112 15.16857,3.22349 1.84326,0.21049 3.90701,0.44623 4.58611,0.52388 2.73023,0.31214 11.17352,-0.10094 13.22916,-0.64723 z m -79.85571,-3.74681 c 2.37245,-0.79922 3.29455,-1.31363 5.5078,-3.07265 2.83713,-2.25486 1.37208,-3.29015 -1.89871,-1.34175 -2.91158,1.73442 -5.95979,2.90986 -8.80427,3.39507 -2.8052,0.47852 -3.81644,0.87761 -2.96716,1.17102 2.13747,0.73844 5.71752,0.67191 8.16234,-0.15169 z M 7.2706736,220.39976 c 6.5079204,-1.29246 12.8552704,-3.68242 16.9398804,-6.37834 2.64561,-1.74617 5.8818,-4.87456 6.78538,-6.55938 0.86262,-1.60845 0.80938,-4.4878 -0.11951,-6.46394 -0.69065,-1.46929 -2.77937,-3.70446 -3.46175,-3.70446 -0.16451,0 -0.74413,0.91281 -1.28805,2.02847 -5.09921,10.4592 -26.28908038,15.79731 -44.24231,11.14544 -6.69155,-1.73385 -11.27712,-4.25521 -15.36676,-8.44934 -2.40446,-2.46589 -2.50673,-2.5281 -3.22191,-1.95996 -1.8686,1.48444 -2.10416,4.65556 -0.52981,7.13229 4.23801,6.66716 16.60376,12.60613 28.6363896,13.75336 4.08084,0.38908 12.64877,0.0953 15.86845,-0.54414 z m -0.52262,-10.8937 c 6.0329804,-1.28035 11.0269204,-3.78502 14.7378904,-7.39167 2.81711,-2.73792 2.79319,-5.11877 -0.11058,-11.00753 -0.76898,-1.55947 -1.39815,-2.9192 -1.39815,-3.02162 0,-0.10242 1.15094,0.01 2.55764,0.24883 8.70312,1.48041 12.01011,1.71491 24.25347,1.71981 9.5108,0.004 13.44302,-0.13723 17.99167,-0.64534 3.20146,-0.35762 5.93989,-0.72351 6.08541,-0.8131 0.46882,-0.28862 0.28143,-5.55279 -0.27351,-7.68334 -0.58923,-2.26221 -2.87715,-6.88986 -4.13453,-8.36268 l -0.79543,-0.93172 -15.16944,-0.38773 c -16.5477,-0.42296 -22.18338,-0.94308 -23.93393,-2.20885 l -1.00337,-0.72552 -4.46468,0.91333 c -9.23381,1.88894 -13.3163604,2.36854 -21.92718038,2.57593 -6.45794002,0.15554 -9.49883962,0.0687 -13.75833962,-0.3928 -3.00743,-0.32587 -5.78555,-0.66524 -6.17361,-0.75417 -1.79926,-0.41233 -9.20004,12.33725 -10.76304,18.54186 -0.93405,3.70787 -1.33497,10.1141 -0.72512,11.58641 0.88426,2.1348 7.1532,5.88326 12.7308,7.61228 4.963,1.53849 8.85245,1.95532 16.7490296,1.79497 4.34953,-0.0883 8.00266,-0.34427 9.525,-0.66735 z M 81.737904,190.49518 c 0.66558,-0.2811 1.6467,-0.95184 2.18028,-1.49054 0.83523,-0.84323 0.97014,-1.26523 0.97014,-3.03456 0,-2.91831 -1.33639,-6.77459 -3.61318,-10.42622 -1.07029,-1.71658 -2.24298,-3.75605 -2.60598,-4.53216 l -0.66001,-1.41112 -2.29305,0.12718 c -2.06288,0.1144 -7.2824,1.2168 -7.68972,1.62411 -0.0892,0.0892 0.32885,0.92734 0.92897,1.86254 1.58947,2.47698 3.44725,6.68879 3.89875,8.83895 0.2159,1.0282 0.39255,3.26356 0.39255,4.96748 0,2.89853 0.0539,3.12684 0.83641,3.54565 1.99501,1.0677 5.02477,1.03947 7.65484,-0.0713 z m -5.94331,-1.51182 c -1.00358,-0.70294 -1.02437,-2.22517 -0.0473,-3.46725 2.18238,-2.77445 7.0244,-2.592 7.0244,0.26468 0,2.60109 -4.73365,4.77391 -6.97706,3.20257 z m 5.5316,-3.13377 c 0.44133,-0.27276 0.51863,-1.13692 0.12255,-1.37003 -0.14553,-0.0856 -0.75125,-0.25996 -1.34607,-0.38735 -1.28943,-0.27615 -3.25554,0.97361 -2.66019,1.69096 0.35768,0.43098 3.21477,0.47985 3.88371,0.0664 z m 10.44129,0.82695 c 0.77612,-0.21044 2.20392,-0.88424 3.17291,-1.49734 l 1.76179,-1.11473 -1.05623,-0.11644 c -1.39678,-0.15399 -2.44164,-1.17688 -3.94494,-3.86204 -1.39747,-2.49611 -1.38053,-2.93726 0.20876,-5.43886 1.27439,-2.00594 2.70198,-2.80422 5.50216,-3.07669 l 2.11667,-0.20597 -0.0434,-1.35827 c -0.0668,-2.09241 -1.37161,-3.2052 -3.7444,-3.19341 -2.14557,0.0107 -3.31699,0.55105 -5.64903,2.60594 -1.85756,1.63679 -1.94505,2.01027 -1.25435,5.35432 0.45849,2.21979 0.44208,2.28751 -0.59773,2.46691 -0.38806,0.067 -0.82219,0.28049 -0.96474,0.47451 -0.16295,0.2218 -0.26119,0.19679 -0.26458,-0.0674 -0.003,-0.23109 0.15335,-0.51827 0.34737,-0.63818 0.45531,-0.2814 0.44952,-2.45977 -0.0109,-4.11759 -0.19788,-0.71245 -0.98608,-2.05327 -1.75154,-2.97959 -0.76547,-0.92632 -1.34143,-1.73455 -1.27992,-1.79607 0.0615,-0.0615 0.68675,0.12836 1.38941,0.42195 0.70265,0.29359 1.58797,0.5338 1.96737,0.5338 0.90159,0 2.86062,-1.65887 2.86062,-2.42231 0,-1.70141 -2.83334,-3.57491 -5.40642,-3.57491 -2.45467,0 -4.06531,1.62929 -4.6156,4.66907 -0.34271,1.89309 0.27195,3.74009 2.16203,6.49675 2.18201,3.18245 3.86058,7.10555 4.39224,10.26542 l 0.43034,2.55764 1.43051,-0.002 c 0.78678,-0.001 2.06551,-0.17415 2.84162,-0.38458 z m 8.08325,-4.82614 c 1.667686,-0.95606 2.754876,-3.3581 2.577396,-5.69449 -0.12204,-1.60666 -0.32344,-2.07061 -1.26334,-2.91042 -0.8596,-0.76805 -1.463556,-0.99728 -2.611896,-0.99132 -3.23688,0.0168 -5.83675,2.15926 -6.16611,5.08129 -0.20173,1.78975 0.45161,3.23299 2.08615,4.60837 0.99524,0.83744 1.34694,0.93409 2.71606,0.74644 0.86502,-0.11857 2.06281,-0.49651 2.66174,-0.83987 z m -130.51745,-3.61276 c 0.86858,-1.34269 2.7884,-3.70687 4.26626,-5.25373 l 2.68703,-2.81248 -1.34982,-0.35477 c -0.74239,-0.19512 -3.25481,-0.8319 -5.58314,-1.41507 -7.25849,-1.818 -15.55841,-5.10856 -22.75417,-9.02104 -6.38787,-3.47322 -8.56776,-5.02939 -13.36845,-9.54342 -5.761835,-5.41776 -6.920521,-5.66589 -10.366488,-2.21992 -1.989417,1.98941 -3.63579,5.26979 -4.219134,8.40656 l -0.410209,2.20579 1.04117,0.8537 c 6.038469,4.9512 20.199581,12.18829 33.779401,17.26309 5.8876,2.2002 14.03253,4.7314 14.43976,4.48744 0.1422,-0.0852 0.9692,-1.25345 1.83779,-2.59615 z m 40.94254,-10.70873 c 11.62512,-1.76736 20.22537,-4.03537 26.15855,-6.89839 7.00501,-3.38022 11.2129,-6.64534 13.97156,-10.84128 1.18351,-1.80011 1.63961,-2.23436 2.20084,-2.09542 4.1576,1.02926 15.32053,2.48135 17.46488,2.27184 1.22671,-0.11985 1.23641,-0.13438 1.49387,-2.2373 0.38023,-3.1057 2.30147,-6.76084 4.71141,-8.96339 1.87596,-1.71452 2.60206,-2.00957 4.55444,-1.85071 0.95775,0.0779 2.29306,1.6618 2.29306,2.71989 0,1.2113 0.42617,1.08065 1.93974,-0.5947 2.64977,-2.93297 3.8857,-7.11977 3.30733,-11.20378 -0.40277,-2.84408 -1.28362,-4.84665 -2.93669,-6.6764 -2.68863,-2.97598 -6.75602,-3.7678 -10.29512,-2.00419 -1.78424,0.88913 -3.78399,2.64412 -3.01286,2.64412 0.22785,0 0.41427,0.15875 0.41427,0.35278 0,0.19403 -0.36155,0.35278 -0.80345,0.35278 -0.4419,0 -1.14653,0.2403 -1.56586,0.53401 -0.75869,0.5314 -0.7542,0.54221 0.92086,2.21727 1.92536,1.92536 2.8606,4.19171 2.85759,6.92475 -0.003,2.98121 -0.59489,4.43936 -2.58964,6.38276 -2.76465,2.69345 -5.17192,3.17611 -10.26232,2.05758 l -2.64343,-0.58085 1.48687,-0.95695 c 1.99329,-1.28286 2.89168,-2.31752 3.80495,-4.38213 0.92967,-2.10167 0.76337,-4.86207 -0.36063,-5.98607 -0.68991,-0.68991 -0.73361,-0.69126 -2.0368,-0.0628 -0.73246,0.35326 -1.77422,0.77204 -2.31501,0.93064 l -0.98326,0.28835 1.06967,-1.35056 c 2.83834,-3.58371 18.18367,-15.14773 26.8267,-20.21623 6.9954,-4.10229 16.219716,-7.87891 25.194856,-10.315268 4.53815,-1.23192 6.63644,-1.57332 5.46739,-0.88956 -0.30684,0.17946 -4.19622,1.7795 -8.64306,3.555638 -9.622286,3.8433 -18.140436,8.06933 -24.000366,11.90711 -4.60694,3.01716 -5.23898,3.5921 -3.94936,3.59254 0.44802,1.6e-4 1.76707,0.45248 2.93124,1.00516 5.57663,2.64747 8.71214,9.726 7.20508,16.26576 -0.8124,3.52533 -3.34438,7.11714 -5.97502,8.47603 -0.81267,0.41979 -1.45636,1.13199 -1.86957,2.06855 -0.3466,0.78558 -0.9543,1.5312 -1.35045,1.65694 -0.70612,0.22411 -1.39296,1.495 -1.85036,3.42381 -0.21094,0.8895 -0.14437,0.97014 0.80085,0.97014 1.34274,0 7.5489,-2.16466 11.21321,-3.91108 3.36158,-1.60213 8.30605,-4.85644 11.011236,-7.24728 3.0254,-2.67383 6.95856,-7.37421 9.99829,-11.94858 3.74692,-5.63861 16.76951,-31.775288 16.24578,-32.605708 -0.57,-0.90378 -2.73392,-1.06722 -9.26395,-0.69971 -13.42639,0.75564 -27.424246,3.55245 -37.205566,7.433778 -7.23583,2.87125 -15.5073,7.71277 -21.75206,12.73207 -2.1132,1.69852 -3.84219,3.00424 -3.84219,2.90161 0,-0.10263 0.5711,-1.33357 1.26911,-2.73543 0.87093,-1.74916 1.88583,-3.10771 3.23481,-4.33017 l 1.96571,-1.78133 -0.44503,-2.27561 c -1.23219,-6.300658 -3.9121,-12.500328 -7.45912,-17.255788 -4.1474,-5.56039 -15.14603,-14.82567 -15.14603,-12.75906 0,0.16862 -1.32182,-0.3568 -2.93736,-1.16761 -8.22217,-4.12651 -18.04738,-3.74153 -24.72141,0.96867 l -1.02405,0.72272 0.23901,-1.03255 c 0.4441,-1.91862 2.75048,-6.082933 4.12202,-7.442574 1.30944,-1.298086 1.33232,-1.360081 0.58332,-1.5805 -0.42877,-0.12618 -1.63507,-0.245243 -2.68066,-0.264584 -1.89687,-0.03509 -1.90711,-0.0294 -4.6204804,2.562936 -4.4914,4.291052 -9.71268,6.899862 -16.26124,8.124902 -4.7698796,0.89231 -8.5004696,0.80442 -11.3439796,-0.26725 -3.66008,-1.37942 -5.34083,-2.52375 -8.15332,-5.55113 -2.75324,-2.963596 -3.09987,-3.113607 -5.59393,-2.420925 l -1.30735,0.363095 1.03362,1.62986 c 0.92104,1.45232 2.11026,4.67749 2.11026,5.72302 0,0.21433 -0.83344,-0.0759 -1.85209,-0.64492 -5.29531,-2.95806 -12.71089,-2.98403 -16.74925,-0.0587 -1.27629,0.92455 -1.47441,0.97755 -1.68282,0.45022 -0.72203,-1.8269 -5.74269,6.89665 -8.38647,14.57174 -2.06676,5.99996 -2.60312,8.48557 -3.40841,15.795438 -0.36819,3.34223 -0.82459,6.47366 -1.01421,6.95873 -0.18962,0.48507 -1.36209,2.24293 -2.60548,3.90637 -5.639308,7.54437 -6.398432,14.74729 -2.395371,22.72835 2.531061,5.04626 6.878261,9.46914 13.752431,13.99182 11.84982,7.79628 26.48098,12.66488 43.74444,14.55622 2.9437496,0.3225 18.3701396,-0.12801 21.69583,-0.63361 z m -26.09531,-10.65929 c -3.95178,-0.88589 -6.06444,-2.07294 -9.00607,-5.06029 -5.63006,-5.71756 -8.80661,-14.05499 -8.81284,-23.13096 -0.003,-4.16567 0.28409,-5.66558 1.63238,-8.53246 0.68471,-1.45589 1.10993,-1.91201 2.08142,-2.23263 1.7031,-0.56207 2.97722,-0.18911 6.0984,1.78511 8.29199,5.24486 17.9222696,5.1034 26.3655096,-0.38727 3.39399,-2.20713 6.07743,-1.86009 8.8363704,1.14277 2.07115,2.25426 2.43236,3.5703 2.40261,8.75364 -0.0296,5.15504 -0.81957,8.70151 -2.95612,13.27109 -3.4627704,7.40607 -7.9738404,11.63965 -14.6497004,13.74857 -3.64857,1.1526 -8.5458896,1.41495 -11.9919596,0.64243 z m 10.0385796,-1.04781 c 7.41405,-1.7474 13.72435,-7.65611 16.0547004,-15.03297 1.21604,-3.84946 1.16746,-4.25291 -0.7602804,-6.31382 -3.05854,-3.26984 -8.17003,-4.96295 -15.11268,-5.00589 -8.2279996,-0.0509 -14.8690596,2.38598 -19.6434196,7.20793 -4.42873,4.47288 -4.82682,6.78907 -1.91866,11.16356 2.75012,4.13677 6.32256,6.85278 10.48649,7.97252 2.5173,0.67694 8.0397796,0.68133 10.8938496,0.009 z M 42.907774,119.18025 c -0.48507,-0.26071 -1.54794,-0.58434 -2.36193,-0.71917 l -1.47998,-0.24515 1.20126,-1.05471 c 3.29826,-2.89592 4.8317,-10.27356 3.53931,-17.02826 -0.80536,-4.209238 -1.22815,-4.454958 -1.24071,-0.721068 -0.0184,5.477488 -1.27468,8.880598 -4.45065,12.056568 -4.72578,4.72578 -12.66376,5.9464 -19.09859,2.93678 -6.06899,-2.83852 -9.4061204,-9.28081 -8.27643,-15.977568 0.5534,-3.28052 2.59711,-7.57007 4.95829,-10.40694 1.00933,-1.21267 1.67966,-2.20486 1.48962,-2.20486 -0.66293,0 -4.58217,3.92831 -5.8999,5.91355 -2.6001704,3.91733 -4.3636204,9.689118 -4.3636204,14.282178 0,2.37768 0.80373,6.05535 1.51253,6.92093 0.36313,0.44345 0.29452,0.4872 -0.4542,0.28961 -0.48507,-0.12801 -1.5076,-0.23492 -2.27229,-0.23757 -1.25832,-0.004 -1.32811,-0.0503 -0.73501,-0.484 0.59635,-0.43606 0.61829,-0.66363 0.24382,-2.52829 -1.20339,-5.9921 0.62705,-14.556668 4.33667,-20.291158 4.8081904,-7.4327 12.6484104,-11.07911 20.3698604,-9.47381 3.39912,0.70667 6.22404,2.34981 9.3131,5.41704 2.35137,2.33477 3.14803,3.43099 4.49754,6.18874 2.35275,4.8079 2.87745,7.06885 2.86543,12.347218 -0.0115,5.04499 -0.73055,8.04576 -2.86858,11.97108 l -1.23624,2.2697 0.82271,0.63288 c 0.97253,0.74812 0.81306,0.80474 -0.41201,0.14628 z m -4.8507,-11.49685 c 1.34713,-1.47853 1.32401,-3.2235 -0.0611,-4.60856 -2.99802,-2.99803 -7.88258,1.09741 -5.27007,4.41868 1.49839,1.90489 3.69719,1.98321 5.33113,0.18988 z m -3.84938,-9.754588 c 1.73233,-1.11983 2.87132,-3.51963 2.53113,-5.33299 -0.30637,-1.63307 -2.23327,-3.59149 -3.58536,-3.644 -2.70045,-0.10488 -4.08614,0.431 -5.51962,2.13459 -1.67058,1.98538 -1.67587,4.84734 -0.012,6.51119 1.78505,1.78504 4.15265,1.90411 6.58587,0.33121 z m -94.48742,13.745908 c -0.98131,-3.33681 -0.92615,-9.74959 0.11709,-13.610898 2.16708,-8.02098 7.1367,-14.14428 13.38176,-16.4883 3.06885,-1.15186 6.90028,-0.90841 10.04014,0.63796 4.25637,2.09626 7.96432,7.22824 9.23693,12.78436 0.71016,3.10051 0.99572,7.865578 0.61252,10.220808 -0.29836,1.83372 -0.31811,1.74285 -0.3597,-1.65488 -0.0242,-1.97733 -0.20277,-3.693258 -0.39679,-3.813178 -0.20836,-0.12877 -0.35278,0.265608 -0.35278,0.963398 0,3.57102 -2.26619,8.1606 -5.0312,10.18937 -4.53288,3.32593 -11.49751,4.0542 -16.3423,1.70888 -5.03675,-2.43825 -7.50253,-8.43028 -6.15006,-14.945118 0.63596,-3.06341 2.95256,-7.34695 5.37222,-9.93357 2.24742,-2.4025 2.33462,-2.72626 0.41468,-1.53967 -1.7866,1.10418 -4.53537,4.37266 -5.96437,7.09205 -2.16913,4.12787 -3.04337,7.116868 -3.24867,11.107148 -0.22897,4.45043 0.0525,6.42153 1.14762,8.0352 0.74279,1.09457 0.77463,1.25765 0.24631,1.26185 -0.3337,0.003 -0.92423,0.0901 -1.31228,0.19427 -0.61178,0.16427 -0.79934,-0.12944 -1.41112,-2.20968 z m 28.48681,-5.03828 c 0.67525,-0.74904 0.97014,-1.45801 0.97014,-2.33244 0,-2.94556 -3.88841,-4.453898 -6.28443,-2.43778 -1.33266,1.12135 -1.62761,2.3083 -0.9667,3.8901 1.02305,2.44849 4.436,2.92673 6.28099,0.88012 z m -2.52366,-9.020088 c 2.44327,-1.26346 3.68835,-4.22398 2.67242,-6.3544 -0.7566,-1.58661 -1.9998,-2.32988 -3.897,-2.32988 -3.21223,0 -5.49445,1.95651 -5.77938,4.95456 -0.12454,1.31041 0.002,1.8293 0.64356,2.6423 1.52978,1.93812 3.92383,2.34742 6.3604,1.08742 z m 4.97724,14.746038 c 0.29395,-0.33954 0.71761,-0.93486 0.94146,-1.32291 0.35776,-0.62017 0.3793,-0.58357 0.17803,0.30245 -0.15458,0.68045 -0.0702,1.10858 0.25974,1.31751 0.33624,0.21295 0.11394,0.3112 -0.71249,0.31491 -1.11257,0.005 -1.16177,-0.0401 -0.66674,-0.61196 z m 1.36663,-2.76342 c 0.0169,-0.41097 0.10052,-0.49456 0.21314,-0.21314 0.1019,0.25466 0.0894,0.55893 -0.0279,0.67616 -0.11723,0.11723 -0.20061,-0.0911 -0.18529,-0.46302 z m 0.38063,-1.5581 c 0,-0.48507 0.0801,-0.68351 0.17793,-0.44097 0.0979,0.24253 0.0979,0.6394 0,0.88194 -0.0979,0.24253 -0.17793,0.0441 -0.17793,-0.44097 z m 121.98803,57.82632 c 1.86803,-0.40062 2.20087,-0.91187 1.22742,-1.88532 -1.30086,-1.30086 -4.10994,-0.99653 -4.32476,0.46853 -0.26882,1.83342 0.18554,2.04126 3.09734,1.41679 z m -177.747722,-9.75046 c 0.944882,-4.85878 3.369222,-8.94326 6.781014,-11.42451 l 1.347854,-0.98024 -1.524243,-1.1114 c -1.628531,-1.18743 -4.628469,-2.80972 -5.195753,-2.80972 -0.188967,0 -1.537416,0.9604 -2.996552,2.13421 -5.78286,4.65208 -8.463576,11.3716 -5.863977,14.69873 1.346279,1.72305 3.142832,2.59568 5.123706,2.48871 l 1.763889,-0.0953 z m -5.256231,0.1045 c -1.241467,-1.41395 -1.741185,-3.16871 -1.116672,-3.9212 0.677928,-0.81686 1.06078,-0.59863 0.684781,0.39032 -0.234769,0.61749 -0.217988,1.1499 0.05282,1.6757 0.597796,1.16069 1.783168,2.36066 2.123913,2.15007 0.165823,-0.10249 0.301498,-0.009 0.301498,0.20808 0,0.21693 0.169572,0.28961 0.376827,0.16152 0.207256,-0.12809 0.288449,-0.4632 0.18043,-0.7447 -0.109675,-0.2858 -0.04241,-0.41663 0.152339,-0.29627 0.191805,0.11854 0.348737,-0.13592 0.348737,-0.56547 0,-0.45361 -0.597755,-1.34963 -1.425965,-2.13748 -1.587188,-1.50986 -1.212651,-1.83834 0.557029,-0.48854 1.187745,0.90593 1.816923,2.75135 1.393208,4.08636 -0.381975,1.2035 -2.365942,0.92009 -3.628941,-0.51839 z m -4.68856,-5.50195 c 0.679898,-2.65283 3.457953,-6.65672 5.948241,-8.57296 1.165054,-0.89648 2.549182,-2.14207 3.075839,-2.76797 0.875705,-1.04071 0.946007,-1.34243 0.822422,-3.52957 -0.121993,-2.15897 -0.252625,-2.51279 -1.34314,-3.63791 -1.848317,-1.90698 -4.184986,-2.2366 -6.619375,-0.93376 -1.57348,0.8421 -1.961005,2.76017 -0.793535,3.92764 0.783725,0.78373 2.769539,0.94738 3.933961,0.3242 1.300725,-0.69613 1.142449,0.01 -0.302964,1.35145 -1.114599,1.03451 -1.512005,1.73058 -1.822638,3.19241 -0.218486,1.0282 -0.397248,2.08278 -0.397248,2.34351 0,0.43487 -0.721445,0.90232 -1.392592,0.90232 -0.152105,0 0.01963,-1.06812 0.38163,-2.37361 0.362001,-1.30549 0.658184,-2.62431 0.658184,-2.9307 0,-0.3064 -0.750758,-1.10359 -1.668351,-1.77153 -4.19269,-3.05197 -6.901455,-3.2737 -7.819545,-0.64007 -0.62794,1.80131 -0.50848,1.99683 1.471132,2.40779 2.758173,0.5726 3.967638,1.46578 5.141352,3.79688 l 1.027352,2.04041 -0.788613,1.76389 c -0.892564,1.99639 -1.598319,2.72065 -3.335305,3.42276 l -1.209477,0.48889 1.033089,0.98903 c 0.887698,0.84984 2.711676,1.9203 3.347646,1.96468 0.10884,0.008 0.40221,-0.78341 0.651935,-1.75778 z m -2.811775,-3.43189 c 1.596841,-1.29365 1.576636,-4.94303 -0.03706,-6.69414 -1.408653,-1.52861 -4.063936,-2.28716 -5.746296,-1.64158 -1.5344,0.58881 -2.1086,4.32052 -0.98594,6.40768 0.33955,0.63126 1.09361,1.46118 1.67569,1.84425 1.361803,0.89622 4.036467,0.94022 5.093608,0.0838 z m 23.464248,-5.99722 c -1.145794,-2.62943 -2.58515,-7.34577 -2.794174,-9.15566 -0.241477,-2.0909 -0.305681,-2.20578 -1.442526,-2.58097 -1.773403,-0.58527 -4.474752,-3.20405 -5.725272,-5.55027 -3.07913,-5.77704 -1.9127,-13.31738 2.808074,-18.15269 1.05151,-1.07703 2.740443,-2.37811 3.753184,-2.89131 l 1.841346,-0.93308 -3.161016,-6.253078 c -3.79582,-7.50884 -7.927309,-14.66124 -11.703598,-20.26117 -1.531894,-2.27168 -2.785262,-4.22717 -2.785262,-4.34555 0,-0.58596 2.393621,1.61599 4.546985,4.1829 4.951357,5.90223 10.844489,15.63704 16.54175,27.325158 3.286939,6.74325 3.938309,7.55691 3.953079,4.93795 0.003,-0.52669 0.34089,-2.59044 0.75093,-4.58611 1.26211,-6.142738 1.32407,-5.508788 -0.93202,-9.535488 -4.588493,-8.18959 -12.300188,-16.92362 -19.642169,-22.24613 -7.092005,-5.141293 -8.082445,-5.00015 -9.70444,1.38293 -0.507375,1.99669 -0.614391,3.96551 -0.6018,11.0716 0.01685,9.51043 0.422689,12.52653 3.132935,23.283328 2.829537,11.23027 5.674026,17.6138 10.223803,22.944 1.497217,1.75403 2.344469,3.46672 2.822064,5.7047 0.155684,0.72953 1.033695,1.50277 3.71073,3.26792 1.928736,1.27175 3.603592,2.46889 3.721903,2.66032 0.380724,0.61603 0.970344,0.38439 0.685494,-0.2693 z m -21.125002,-8.35057 c 0.520819,-2.0751 -0.918424,-3.21375 -2.876147,-2.27543 -1.54633,0.74113 -1.331883,1.68044 0.558572,2.44664 2.055142,0.83295 2.065745,0.83216 2.317575,-0.17121 z m 2.268536,-3.37929 c 0,-0.19403 -0.07001,-0.35278 -0.155569,-0.35278 -0.08556,0 -0.253682,0.15875 -0.373598,0.35278 -0.119915,0.19403 -0.04991,0.35278 0.155569,0.35278 0.205479,0 0.373598,-0.15875 0.373598,-0.35278 z m 16.562821,-4.40972 c 0.621989,-2.9473 2.427186,-6.68876 4.37143,-9.06024 0.903939,-1.10257 1.643525,-2.17619 1.643525,-2.38582 0,-0.20963 -0.940418,-2.36191 -2.089817,-4.78284 l -2.089817,-4.4017 -1.173377,0.22386 c -4.042463,0.77125 -6.844428,4.23378 -7.763577,9.59384 -0.855973,4.99165 0.757694,9.46884 4.378232,12.14761 0.991029,0.73324 1.908708,1.20914 2.039288,1.05756 0.13058,-0.15158 0.438431,-1.22811 0.684113,-2.39227 z m 147.831615,-23.7361 c 1.4552,-0.78617 3.87614,-1.940728 5.37986,-2.565688 2.05575,-0.85441 2.73402,-1.30304 2.73402,-1.80836 0,-0.99468 -2.24543,-6.8106 -4.399,-11.3939 -4.26903,-9.08553 -9.49995,-16.568397 -16.40748,-23.471067 -5.07169,-5.068113 -8.69437,-8.00043 -14.04246,-11.36642 -10.5745,-6.655406 -21.21026,-10.706057 -35.44433,-13.499042 -2.4751204,-0.485665 -4.6897004,-0.883027 -4.9212804,-0.883027 -0.23158,0 0.53653,0.696781 1.7069,1.548401 3.3078204,2.406922 5.2470704,5.271017 7.0060704,10.347336 0.082,0.236753 0.51314,0.504035 0.95801,0.593959 5.91805,1.196257 14.59921,3.706963 13.79302,3.98912 -0.23177,0.08111 -2.4053,-0.187547 -4.83007,-0.597027 -2.42477,-0.40948 -5.56851,-0.77696 -6.98608,-0.816622 l -2.57741,-0.07211 -0.26879,2.958085 c -0.14784,1.626946 -0.50853,3.991841 -0.80156,5.25532 -0.29302,1.26348 -0.47167,2.35833 -0.39699,2.433001 0.0747,0.07467 1.69769,0.513366 3.60671,0.974878 2.46064,0.594868 3.93774,0.772407 5.07465,0.609944 0.88204,-0.126042 2.82073,-0.21953 4.3082,-0.207751 3.54003,0.02803 6.36627,1.357751 9.53374,4.485521 1.38304,1.365711 3.31539,2.777473 5.10405,3.729003 2.8299,1.50544 4.56036,2.90053 10.12239,8.16061 6.36183,6.01647 12.19891,14.79037 14.49555,21.788736 0.33513,1.02125 0.85066,2.09813 1.14561,2.39308 0.47984,0.47984 0.69013,0.4472 1.99855,-0.31017 0.80426,-0.46553 2.65291,-1.48965 4.10812,-2.27581 z m 11.38331,-9.941578 c -0.97154,-10.05301 -11.26803,-28.253857 -22.36447,-39.533137 -6.35908,-6.463854 -13.79121,-11.818878 -22.24024,-16.024597 -6.19802,-3.085219 -9.82126,-4.440822 -16.16749,-6.048914 -16.2214304,-4.110403 -33.3071204,-3.760751 -46.79029,0.957545 -4.34407,1.520163 -12.88825,5.601557 -15.65137,7.476366 -2.19818,1.491491 -4.63294,3.489244 -4.46147,3.660708 0.0784,0.07841 1.4715,-0.404731 3.09576,-1.073637 5.10334,-2.101658 10.78486,-3.713938 18.19265,-5.162634 14.3433996,-2.805051 19.6040896,-2.753874 35.38417,0.344224 11.55549,2.268687 23.85329,6.811115 32.97691,12.180651 9.62185,5.662761 20.65302,16.175507 26.46281,25.219165 2.23504,3.47911 6.11725,10.41409 7.39416,13.20854 2.44188,5.34394 3.04876,6.39582 3.69004,6.39582 0.53906,0 0.61043,-0.23846 0.47883,-1.6001 z m -143.86471,-9.09941 c 0.67917,-1.43014 1.86859,-3.50285 2.64316,-4.60602 2.05201,-2.92257 10.26227,-10.524188 12.48422,-11.558746 1.97547,-0.919796 4.76049,-1.126595 6.46167,-0.479806 0.77568,0.294913 1.62512,0.206936 4.01025,-0.415343 l 3.02611,-0.789512 -0.0185,-4.788128 c -0.0102,-2.633471 0.11862,-5.328991 0.28625,-5.990044 l 0.30478,-1.201915 -2.95062,0.215637 c -2.86242,0.209192 -2.9137,0.199575 -1.71589,-0.32175 0.6791,-0.295563 2.10785,-0.734778 3.175,-0.976033 l 1.94028,-0.438645 1.58526,-2.976578 c 1.78651,-3.354465 6.24004,-8.170256 9.43867,-10.206438 1.01844,-0.648317 1.7956,-1.234869 1.72702,-1.303449 -0.21938,-0.219378 -10.50289,2.007881 -14.3048,3.09821 -4.64232,1.33135 -10.81236,3.83793 -13.82814,5.617697 -3.06083,1.806345 -5.9892,5.008835 -7.50536,8.207922 -2.02679,4.276493 -2.01887,4.372637 0.24104,2.926984 2.2098,-1.413586 6.55374,-3.26427 10.65187,-4.538093 4.5223,-1.405669 5.58133,-1.470836 2.46944,-0.151956 -3.98381,1.68842 -8.80789,4.19803 -11.28815,5.872393 -4.54791,3.070182 -9.47187,8.946974 -11.0658,13.207123 -1.62629,4.34664 -1.84844,10.29848 -0.54816,14.68608 0.80643,2.72118 0.97095,2.86014 1.27665,1.07824 0.14791,-0.86217 0.82461,-2.7377 1.50378,-4.16783 z m 144.8333,-4.07298 c -0.79085,-6.80258 -3.06169,-13.686023 -7.58768,-22.999926 -4.18264,-8.60732 -13.37273,-22.236343 -18.19683,-26.986132 -1.18315,-1.164918 -2.04421,-2.118032 -1.91347,-2.118032 0.44124,0 5.33256,3.519265 7.9727,5.736291 3.58536,3.010769 9.49004,9.571615 9.49004,10.544644 0,0.887571 0.56221,-0.140782 0.64121,-1.172867 0.0885,-1.155777 -0.51479,-7.205853 -0.85569,-8.58168 -0.42067,-1.697728 0.92508,0.722779 2.03439,3.659126 1.05888,2.802845 1.15123,3.378582 1.16718,7.276984 l 0.0173,4.233333 2.1054,3.704167 c 1.15797,2.037291 3.19594,6.237678 4.52883,9.334194 2.69923,6.270786 3.7792,8.047698 5.97337,9.828208 6.33121,5.13761 13.660276,4.97133 25.839366,-0.58623 5.16552,-2.357124 9.17631,-3.434621 13.58194,-3.648779 6.27812,-0.305178 10.902,1.167819 16.6807,5.313849 l 2.68243,1.92455 -0.5947,-1.29331 C 144.53118,63.15865 136.18895,55.92733 126.69245,53.294718 c -2.51634,-0.697579 -3.49132,-0.770219 -8.99583,-0.670229 -13.82175,0.251073 -14.12308,0.239496 -16.31087,-0.626656 -4.881646,-1.932654 -7.498946,-4.456333 -13.208686,-12.736179 -3.48762,-5.057477 -7.17117,-9.768026 -10.17598,-13.013092 -4.01357,-4.334487 -12.243,-10.637948 -18.16001,-13.909948 -7.10061,-3.9265043 -17.14618,-7.0251523 -26.0497,-8.0352653 -5.59267,-0.634494 -18.57547,-0.258877 -23.8683504,0.690558 -13.80145,2.475695 -24.5739196,6.7298693 -35.7080296,14.1015093 -7.65522,5.068354 -13.85022,10.693289 -18.29969,16.615752 -2.01293,2.679313 -4.377,6.58639 -4.377,7.233834 0,0.135104 1.25116,-0.797918 2.78036,-2.073381 4.41059,-3.678747 10.41219,-7.312108 15.9909,-9.680879 8.93358,-3.793268 16.34026,-5.313341 27.2882796,-5.600374 20.5361204,-0.53841 37.7692804,4.366279 54.3737504,15.475183 10.94185,7.320437 20.82541,18.018627 27.81726,30.110041 2.121,3.66797 5.41436,10.54536 5.49035,11.46528 0.0288,0.34913 0.10101,0.30661 0.21213,-0.125 0.0926,-0.3598 -0.0179,-2.2567 -0.24558,-4.21535 z m 9.96115,1.72248 c 2.81282,-0.53818 7.999236,-2.16938 8.519266,-2.67943 0.17438,-0.17103 -0.54,-0.0787 -1.5875,0.20511 -3.026106,0.81998 -6.887436,0.99053 -9.577466,0.42303 l -2.38125,-0.50235 v 1.52742 c 0,1.50294 0.0193,1.52742 1.20369,1.52742 0.66203,0 2.3825,-0.22554 3.82326,-0.5012 z M -5.7107464,74.380232 c 1.10281,-0.29571 2.89232,-1.1052 3.97669,-1.79887 1.08437002,-0.69367 2.15130002,-1.15015 2.37094002,-1.0144 0.22392,0.13839 0.30278,0.0906 0.17951,-0.10889 -0.20403,-0.33013 1.11034998,-1.1668 2.15228998,-1.37004 0.24969,-0.0487 1.07959,-0.61767 1.84424,-1.26438 0.76465,-0.646709 1.94923,-1.627866 2.63241,-2.180348 0.68318,-0.552483 1.16197,-1.134236 1.06398,-1.292786 -0.098,-0.15855 -0.002,-0.347075 0.21386,-0.418946 0.42729,-0.14243 0.79505,-1.063013 2.6303804,-6.584384 1.31948,-3.969516 1.51953,-6.386702 0.83503,-10.089537 -0.60427,-3.268781 -1.85171,-5.652455 -4.1727504,-7.973494 -4.76796,-4.767961 -12.33375,-6.40229 -20.2219796,-4.368265 -7.5983,1.959266 -14.76738,9.467103 -16.86262,17.659438 -2.21282,8.652015 0.93931,15.836311 8.56006,19.510002 1.6033,0.7729 3.70884,1.56502 4.67898,1.76028 2.29034,0.46096 7.5698596,0.21816 10.1189796,-0.46538 z m -10.3744096,-7.07785 c -4.90912,-1.351297 -7.9942,-5.035562 -8.31146,-9.92571 -0.18776,-2.894225 0.4203,-3.893687 0.73782,-1.212733 0.40511,3.420578 3.3832,7.41639 6.49716,8.717485 7.13773,2.982331 16.87585962,-1.33078 21.0288596,-9.313876 0.73112,-1.405399 1.46257,-3.231023 1.62544,-4.056944 l 0.29614,-1.501674 0.0386,1.620934 c 0.0825,3.458015 -2.35342,8.398488 -5.55558998,11.267884 -4.64777002,4.164764 -11.00719962,5.877238 -16.35701962,4.404634 z m 1.6529,-5.86247 c -2.27731,-0.286031 -3.71435,-1.040057 -5.03454,-2.641672 -5.71718,-6.935937 3.428,-19.074904 13.8676296,-18.407363 5.39327002,0.344862 8.20303,3.387375 7.87569,8.528108 -0.46025,7.228099 -8.84192,13.509004 -16.7087796,12.520927 z m 7.3141096,-2.514114 c 3.44981,-1.652176 5.64374,-3.665347 7.00267002,-6.425728 1.86011998,-3.778437 1.49340998,-6.772432 -1.13207002,-9.242617 -2.86936,-2.699651 -6.15481,-3.103389 -9.9699996,-1.22518 -5.93754,2.923042 -9.30785,8.139473 -8.32324,12.882353 1.09793,5.288697 6.26882,6.958337 12.4226396,4.011172 z"
       id="path8" /></g></svg>
