<?xml version="1.0" encoding="UTF-8" standalone="no"?>
<!-- Created with Inkscape (http://www.inkscape.org/) -->

<svg
   width="326.26059mm"
   height="301.91559mm"
   viewBox="0 0 326.26059 301.91559"
   version="1.1"
   id="svg1"
   xml:space="preserve"
   xmlns="http://www.w3.org/2000/svg"
   xmlns:svg="http://www.w3.org/2000/svg"><defs
     id="defs1" /><g
     id="layer1"
     transform="translate(156.11205,27.772537)"><path
       style="fill:#000000"
       d="m -14.988191,273.81354 c -5.713846,-0.66362 -11.979912,-2.73517 -16.043097,-5.30383 -1.008402,-0.63749 -2.897513,-2.17558 -4.198024,-3.41798 l -2.364566,-2.25891 -1.487997,1.27367 c -2.496458,2.13688 -4.8034,2.84513 -9.305092,2.85678 -2.971045,0.008 -4.266858,-0.14343 -5.52877,-0.64476 l -1.648215,-0.65479 -2.286551,1.63164 c -2.696185,1.92396 -5.815799,3.3773 -9.233685,4.30172 -3.420876,0.92522 -12.360684,0.93503 -15.69861,0.0172 -2.962869,-0.81467 -7.474981,-2.99081 -9.648789,-4.65349 l -1.711291,-1.30892 -2.87482,0.63099 c -9.457612,2.07582 -20.244442,-0.67088 -29.255532,-7.44948 -4.72242,-3.55244 -9.85832,-9.97208 -11.39355,-14.24143 -0.60651,-1.68663 -0.70987,-1.78418 -1.89473,-1.78814 -3.60651,-0.0121 -8.11051,-2.11408 -11.32943,-5.28748 -3.80621,-3.75237 -5.5501,-8.21463 -5.17007,-13.22916 0.41079,-5.42029 2.69526,-8.9244 7.81969,-11.99445 0.52984,-0.31743 0.44772,-0.65343 -0.81953,-3.35332 -0.77461,-1.65031 -1.84175,-4.42843 -2.37143,-6.17362 -0.85292,-2.81019 -0.9651,-3.75803 -0.98097,-8.28833 -0.0211,-6.03175 0.42274,-8.06222 2.83699,-12.97761 2.64228,-5.37964 7.89135,-10.34125 13.12128,-12.4027 2.78931,-1.09944 7.06035,-1.84146 9.92774,-1.72476 l 2.64584,0.10767 0.19745,-16.92838 c 0.18854,-16.16404 0.23279,-17.04528 0.98004,-19.51729 2.50187,-8.27652 8.66432,-15.17778 16.34904,-18.30909 1.41999,-0.57861 2.87056,-1.15279 3.22348,-1.27597 0.4869,-0.16992 0.57712,-0.41584 0.37404,-1.01943 -0.14721,-0.43752 -0.7541,-2.62112 -1.34864,-4.85244 -0.99472,-3.73317 -1.15126,-4.06401 -1.96153,-4.14556 -1.94779,-0.19602 -4.85729,-0.90718 -6.525,-1.594872 -4.23297,-1.74551 -8.62857,-5.49391 -8.65406,-7.37985 -0.006,-0.44794 -0.40212,-1.44944 -0.88014,-2.22555 -1.41244,-2.29324 -1.03895,-5.63355 0.92969,-8.314573 0.33823,-0.460615 -0.12674,-1.082023 -2.77166,-3.704166 -6.75775,-6.699571 -12.19668,-17.577177 -14.57122,-29.141767 -0.61706,-3.005224 -0.72559,-4.567793 -0.62051,-8.933932 0.11659,-4.844413 0.20687,-5.462931 1.0681,-7.317979 1.28906,-2.776587 2.45254,-3.79452 4.33708,-3.79452 2.03566,0 2.87828,0.759097 5.40288,4.867328 1.41824,2.307882 2.98988,4.27791 4.71611,5.911607 2.45111,2.319716 3.89044,3.333415 14.32466,10.088685 2.85481,1.848247 5.29867,3.781689 7.14375,5.651733 1.54247,1.563337 2.804489,2.982905 2.804489,3.154594 0,0.904568 0.812678,0.02032 2.22584,-2.421866 2.789067,-4.819984 5.961196,-8.930259 10.12236,-13.116012 4.247819,-4.27292 8.174079,-7.272818 13.240991,-10.116912 1.659357,-0.931409 4.319678,-2.871198 5.911826,-4.310642 10.463661,-9.46009 22.419572,-15.748687 36.585088,-19.2431077 8.910384,-2.198058 17.973478,-3.044397 25.7904893,-2.408394 l 4.98626998,0.405689 1.43574,-1.228944 C 1.7249133,5.5825203 3.2276733,4.7594523 4.2747233,4.4294003 c 1.62381,-0.511863 2.01025,-0.809646 2.6283,-2.025323 3.1092497,-6.115721 8.3245497,-11.1868271 14.5599997,-14.1574393 5.95025,-2.834736 12.36489,-3.940917 19.2854,-3.325699 4.30202,0.38244 6.50397,0.83085 14.75766,3.005285 9.85824,2.5971556 15.28132,2.5324238 20.84712,-0.248839 4.48387,-2.240618 8.68848,-7.360035 9.85703,-12.001655 0.5742,-2.280796 1.7147,-3.448267 3.36861,-3.448267 4.27989,0 7.90779,6.419529 7.90779,13.992734 0,7.3287293 -3.68797,14.3481753 -9.93202,18.9039873 l -2.46206,1.796378 4.16857,1.150843 c 4.90983,1.355488 7.41208,2.3459627 12.544127,4.9653937 11.67703,5.960017 26.39654,18.812921 34.9136,30.486141 1.64737,2.257834 1.77872,2.35383 3.43887,2.513349 2.56046,0.246028 5.44557,1.837236 8.37275,4.617773 4.97037,4.721366 8.14508,10.099964 9.84072,16.672186 0.78268,3.033627 0.88383,4.045788 0.75542,7.55954 -0.0815,2.231319 -0.34777,4.473502 -0.59161,4.982628 -0.40832,0.852555 -0.21899,1.382068 2.3965,6.702772 5.27201,10.72484 7.40255,18.753842 7.71136,29.060432 0.27816,9.28348 -0.88085,16.11269 -3.92874,23.14912 -5.31974,12.28131 -17.02226,19.92516 -28.00635,18.2932 -2.96908,-0.44114 -7.06368,-1.72804 -9.676,-3.0411 -1.06955,-0.5376 -1.6757,-0.68926 -1.6757,-0.41925 0,0.23266 0.177,1.80317 0.39333,3.49003 l 0.39333,3.067 1.45875,0.43039 c 3.82858,1.12957 7.71468,4.47092 9.54081,8.2034 1.25817,2.5716 2.08404,6.67741 1.8379,9.13704 l -0.19862,1.98484 2.05866,0.75063 c 4.37885,1.59661 7.17505,5.58891 7.21824,10.30592 l 0.0216,2.36126 2.07601,0.57718 c 7.4666,2.0759 14.54997,8.64281 17.82994,16.52992 2.48795,5.98262 2.86056,13.99952 0.95461,20.53874 -3.18947,10.94287 -11.14124,19.62737 -21.90149,23.91965 -5.04133,2.01099 -9.70001,2.82243 -14.98031,2.60924 -2.42535,-0.0979 -4.64785,-0.27383 -4.93889,-0.39092 -0.37636,-0.15141 -0.93665,0.46096 -1.94028,2.12063 -4.11901,6.81148 -12.27299,11.07535 -21.16666,11.06844 -4.206247,-0.003 -6.987847,-0.60404 -10.741767,-2.32 -2.61561,-1.19563 -2.86707,-1.24592 -4.13548,-0.8271 -2.92758,0.96667 -8.76152,0.24314 -11.67028,-1.44735 -1.14687,-0.66654 -1.14825,-0.66642 -2.43326,0.20561 -4.33188,2.93969 -12.11712,3.35801 -18.08717,0.97187 -1.78668,-0.71411 -2.38285,-0.81878 -2.82222,-0.49547 -1.34904,0.99268 -4.94107,2.51899 -6.39825,2.71872 -0.87542,0.11999 -2.20122,0.0498 -2.94623,-0.15585 -1.17455,-0.32431 -1.57341,-0.26311 -3.0014,0.46051 -4.73348,2.39863 -10.14076,2.6261 -14.25686,0.59976 -1.43567,-0.70678 -2.89224,-1.7832 -3.82098,-2.82373 l -1.50089,-1.68154 -3.5426,0.80617 c -1.94843,0.4434 -3.89444,0.80953 -4.32445,0.81363 -0.43002,0.004 -1.75646,0.63738 -2.94766,1.40728 -4.0551397,2.62097 -10.2778997,4.55726 -16.9822797,5.28426 -3.851483,0.41764 -5.6526203,0.41376 -9.3894343,-0.0202 z m 12.8151143,-5.45447 c 5.67296,-0.98675 10.4548,-2.92655 12.4633697,-5.05589 1.72032,-1.82376 2.35887,-4.26122 3.13809,-11.9787 0.21578,-2.13709 -0.0669,-2.50504 -1.93133,-2.51383 l -1.14652,-0.005 v 2.48078 c 0,2.92602 -0.5498497,4.43697 -2.0845997,5.72838 -1.68826,1.42058 -3.58567,1.8888 -5.18593,1.27973 -2.63792002,-1.004 -3.46239002,-3.64832 -2.88771002,-9.26173 0.16177,-1.58015 0.38823,-4.12522 0.50325,-5.65571 l 0.20912,-2.78272 -0.92151,0.17616 c -1.10210998,0.21068 -1.17182998,-0.0957 -0.21819,-0.9587 0.68901,-0.62355 0.70516,-1.17153 0.79375,-26.93324 l 0.0904,-26.29673 2.46944002,-0.4662 c 6.85345,-1.29385 24.3245297,-4.49118 29.4569397,-5.39083 3.20146,-0.56118 18.44146,-3.31605 33.86667,-6.12194 33.28692,-6.055 43.991327,-7.86507 44.356317,-7.50045 0.14854,0.14837 0.32045,9.14667 0.38204,19.99621 0.0616,10.84954 0.19445,19.72644 0.29524,19.72644 0.10079,0 1.59821,-1.40824 3.3276,-3.12942 l 3.14435,-3.12941 v -17.3833 -17.38331 l 1.55906,-1.66676 c 2.02631,-2.16629 2.229,-3.49503 1.54399,-10.12177 -0.71995,-6.96473 -0.19633,-6.50646 -12.22657,-10.70065 -4.02257,-1.40242 -4.38778,-1.47261 -4.70577,-0.90438 -0.18962,0.33882 -1.04307,1.47338 -1.89658,2.52125 -1.40083,1.71985 -1.49037,1.9381 -0.92027,2.24321 0.50132,0.2683 8.96107,3.00875 11.79544,3.82102 1.20205,0.34448 0.61528,1.13385 -1.23472,1.66104 -4.31724,1.23027 -28.323857,5.99168 -43.656237,8.65866 -3.20146,0.55687 -13.67896,2.37606 -23.28334,4.04264 -9.60437,1.66659 -19.68499,3.41872 -22.40138,3.89365 -4.56504,0.79812 -23.09767972,3.8317 -25.9291697,4.24429 -0.67909,0.099 -2.93223,0.32194 -5.006971,0.49551 -3.2209393,0.26947 -3.9449313,0.4473 -4.9537733,1.21678 -3.193428,2.43575 -8.428206,3.77698 -12.169384,3.11798 -2.534736,-0.44648 -5.176499,-1.63401 -6.019709,-2.70597 -0.365325,-0.46444 -1.362703,-0.96375 -2.442556,-1.2228 -2.033515,-0.48783 -4.608017,-2.16214 -6.084196,-3.95682 -1.168388,-1.42048 -2.790994,-4.53408 -3.369263,-6.46525 -0.388465,-1.2973 -0.602306,-1.47473 -2.853013,-2.36723 -1.33819,-0.53065 -8.068697,-3.21793 -14.956683,-5.97173 -13.248959,-5.29691 -18.969576,-7.48508 -20.533399,-7.85415 -0.865992,-0.20438 -1.131301,0.0116 -2.869005,2.33517 -2.103731,2.81304 -4.638938,5.37187 -6.650326,6.7123 l -1.301343,0.86725 6.41662,2.65867 c 3.529142,1.46226 12.131621,4.91853 19.11662,7.68059 6.985,2.76206 16.827499,6.67503 21.872221,8.69548 5.044722,2.02045 12.0193,4.78713 15.499062,6.14817 3.479762,1.36105 6.61214,2.62732 6.960839,2.81394 0.600279,0.32126 0.639036,1.76012 0.728714,27.0533 0.06905,19.47613 -0.0132,26.82873 -0.303579,27.13748 -0.219063,0.23293 -0.505229,1.13658 -0.635924,2.00812 -0.186758,1.24539 -0.06373,1.98548 0.574684,3.45706 1.648435,3.79976 0.807462,10.21416 -1.49527,11.40495 -1.405989,0.72707 -3.641692,0.65044 -5.270756,-0.18064 -2.544142,-1.29793 -3.881001,-3.93938 -3.88497,-7.67618 l -0.002,-1.85208 h -1.196478 c -0.989494,0 -1.235689,0.15623 -1.423134,0.90307 -0.12466,0.49669 -0.146204,1.4095 -0.04787,2.02847 0.09833,0.61897 0.266123,2.53947 0.372873,4.26778 0.306664,4.96492 1.538241,7.11563 5.595047,9.77064 2.663119,1.7429 6.678547,3.28142 10.848762,4.15672 4.246984,0.89142 12.1716613,0.98197 16.7188623,0.19103 z m -67.5144353,-0.35648 c 6.155958,-1.16777 11.123275,-3.93028 14.144837,-7.86649 l 1.723427,-2.24512 -0.239691,1.80688 -0.239691,1.80688 1.715426,0.75882 c 2.339134,1.03471 5.899786,1.25808 8.148482,0.51119 2.976523,-0.98865 5.043588,-3.59919 5.043588,-6.36966 0,-1.58199 -1.092011,-4.46905 -2.279037,-6.02532 -2.055777,-2.69526 -6.560794,-4.07636 -9.411482,-2.88527 l -1.281275,0.53536 -0.189097,-1.16527 c -0.635645,-3.91703 -5.941312,-10.17289 -10.721993,-12.64222 -5.933126,-3.06458 -12.218345,-3.46168 -18.639434,-1.17763 -1.361785,0.4844 -1.423711,0.47528 -1.423711,-0.20955 0,-0.47951 0.621431,-1.1135 1.881584,-1.91961 2.187794,-1.39951 2.186859,-1.27276 0.04144,-5.61846 -2.868704,-5.81077 -8.568129,-10.67032 -15.046882,-12.82955 -2.971725,-0.9904 -3.927809,-1.14601 -7.135669,-1.16132 -12.23191,-0.0584 -20.34933,7.31825 -22.43684,20.38928 l -0.22537,1.41111 -0.51282,-1.41111 c -0.35379,-0.97351 -0.47294,-2.41051 -0.38422,-4.63381 0.1141,-2.85925 0.27381,-3.51573 1.41614,-5.82084 3.39915,-6.85919 10.11155,-11.09912 19.08055,-12.05235 3.73751,-0.39723 3.84694,-0.43388 4.39989,-1.47379 0.37502,-0.7053 0.61342,-2.26105 0.70401,-4.59421 0.24544,-6.32175 -1.54978,-12.68015 -5.4271,-19.22191 -2.17144,-3.66364 -4.83634,-6.45403 -8.36155,-8.75531 -7.03265,-4.59097 -13.73655,-5.10834 -20.74311,-1.60084 -5.32174,2.66407 -9.01831,6.98025 -11.13455,13.00089 -0.91175,2.59392 -0.99051,3.227 -0.98711,7.93412 0.003,3.83104 0.16305,5.69097 0.63843,7.40833 0.91355,3.30029 3.36331,8.28022 5.37976,10.93611 l 1.74098,2.29306 -1.94646,0.0369 c -3.54339,0.0671 -6.91821,2.42264 -8.53952,5.96037 -1.22731,2.678 -1.15458,7.04797 0.16211,9.74082 1.88494,3.855 6.75833,7.36567 10.39649,7.48937 l 1.64444,0.0559 0.11176,-2.56133 c 0.0627,-1.43635 0.42403,-3.39596 0.82275,-4.46161 0.70357,-1.88048 2.97455,-4.83668 4.23294,-5.51015 0.58217,-0.31157 0.56123,-0.1519 -0.19749,1.50618 -2.8692,6.27021 -2.44427,12.52747 1.28144,18.86995 1.81655,3.09241 8.02738,9.16527 11.59527,11.33768 6.23762,3.79796 12.62779,5.5076 19.58224,5.23907 4.705611,-0.1817 6.712202,-0.69467 6.334864,-1.61948 -0.129107,-0.31642 -0.371593,-1.05156 -0.538859,-1.63365 -0.296218,-1.03083 -0.288387,-1.03985 0.301324,-0.34724 1.361216,1.59876 5.942458,5.13858 8.138027,6.28807 5.220765,2.73334 11.430938,3.62545 17.380758,2.49679 z m 108.224405,-1.51237 c 0.90276,-0.34303 2.6376,-1.28538 3.85518,-2.09412 1.21758,-0.80874 2.12055,-1.31957 2.00659,-1.13518 -0.34486,0.55799 1.1641,1.77224 2.19978,1.77014 2.1891,-0.004 3.78507,-0.77313 8.39851,-4.04508 0.34822,-0.24696 0.75843,-0.0796 1.46643,0.59845 0.54064,0.51773 1.77672,1.30702 2.74686,1.75399 1.50538,0.69356 2.33262,0.81195 5.64445,0.80782 3.52111,-0.004 4.08478,-0.0987 6.08541,-1.01831 1.21268,-0.55741 2.20478,-1.11086 2.20469,-1.22988 -1e-4,-0.11903 -0.3176,-1.05155 -0.70556,-2.07228 -0.38796,-1.02073 -0.70538,-2.31743 -0.70538,-2.88156 0,-2.04857 -0.10565,-2.09711 -3.1039,-1.42607 -1.49431,0.33444 -3.98693,0.85168 -5.53915,1.14942 -6.33262,1.21471 -16.84861,3.44231 -20.99028,4.44637 -2.42534,0.58798 -6.71159,1.56693 -9.525,2.17545 -2.8134,0.60852 -5.18045,1.16943 -5.2601,1.24647 -0.36676,0.35471 1.26949,1.57763 2.74395,2.05082 3.22985,1.03652 5.56571,1.00995 8.47752,-0.0965 z m 71.971917,-1.17386 c 6.16314,-1.9003 10.56641,-5.47623 12.82852,-10.41814 1.0666,-2.33014 1.04145,-7.45207 -0.0514,-10.47421 -2.73275,-7.55687 -9.79192,-12.31573 -19.44927,-13.1115 -6.892087,-0.56791 -13.645287,3.18908 -16.632647,9.25319 -1.0326,2.09611 -1.18263,2.74658 -1.18263,5.12749 v 2.72684 l -0.88194,-0.24836 c -0.48507,-0.1366 -1.80394,-0.22585 -2.93083,-0.19832 -2.9003,0.0708 -5.01756,1.40587 -6.35732,4.00862 -0.8295,1.61146 -0.96852,2.24347 -0.82389,3.74563 0.3202,3.32566 1.90392,5.50422 4.99547,6.87176 3.2786,1.45028 9.04222,1.2102 9.63842,-0.40147 0.23805,-0.64353 0.35978,-0.61698 2.18664,0.47689 2.96967,1.77815 6.00333,2.87057 9.872057,3.55493 1.68267,0.29766 6.47725,-0.2006 8.78885,-0.91335 z m -92.379497,-3.8411 c 1.09078,-0.27174 16.04764,-3.55104 32.0851,-7.03466 2.8134,-0.61112 5.84993,-1.3322 6.74784,-1.60241 0.89791,-0.2702 4.81982,-1.11187 8.71535,-1.87037 l 7.08278,-1.3791 1.67102,-1.62414 c 0.91906,-0.89328 1.95809,-1.71526 2.30896,-1.82662 0.35086,-0.11136 0.63834,-0.39022 0.63884,-0.61968 5.8e-4,-0.26508 0.80448,-0.45597 2.20486,-0.52354 1.21218,-0.0585 2.30817,-0.21724 2.43554,-0.35278 0.12737,-0.13554 0.55743,-1.31365 0.95568,-2.61802 0.93881,-3.07485 1.36536,-3.73997 5.13612,-8.00886 2.53836,-2.8737 3.88425,-4.07529 4.64468,-4.1467 0.80792,-0.0759 3.98668,-1.22403 4.73055,-1.70866 0.57222,-0.37279 0.5591,-0.37154 4.822657,-0.46079 l 2.88239,-0.0603 0.24765,-1.12756 c 0.20893,-0.95122 0.0999,-1.25465 -0.6972,-1.94027 -0.62311,-0.53598 -0.76504,-0.81273 -0.41683,-0.81273 0.29041,0 0.62614,0.15875 0.74605,0.35278 0.46918,0.75915 0.84769,0.27955 1.04406,-1.32292 0.11294,-0.92163 0.70374,-3.89819 1.3129,-6.61458 l 1.10755,-4.93889 -0.23686,-19.40278 c -0.13028,-10.67152 -0.32674,-19.73601 -0.43657,-20.1433 -0.2302,-0.85362 0.0699,-0.88672 -13.021627,1.43632 -3.88056,0.68859 -13.40556,2.35578 -21.16667,3.70487 -7.76111,1.34909 -14.98423,2.61608 -16.05139,2.81554 -1.06715,0.19945 -3.1309,0.50986 -4.58611,0.68978 -1.45521,0.17992 -6.69395,1.03833 -11.64166,1.90758 -18.32562,3.21955 -26.07436,4.55685 -31.7499997,5.4795 l -5.82083,0.94625 -0.28203,13.18831 c -0.15512,7.25357 -0.15361,13.31674 0.003,13.47371 0.15697,0.15697 0.14462,2.22561 -0.0275,4.59698 -0.22197,3.05891 -0.19857,4.49459 0.0805,4.94149 0.2707,0.43346 0.2847,0.91577 0.0449,1.54649 -0.19166,0.50412 -0.34848,2.23864 -0.34848,3.85448 0,2.34766 0.11158,2.98072 0.55538,3.15102 0.50532,0.19391 0.50532,0.26318 0,0.7685 -0.62806,0.62806 -0.73167,2.33862 -0.20165,3.32899 0.23646,0.44182 0.23646,0.73343 0,0.87957 -0.37286,0.23044 -0.48244,4.42435 -0.14812,5.66922 0.12071,0.44946 0.76248,0.94191 1.67088,1.28212 0.81119,0.30381 1.43374,0.7339 1.38343,0.95577 -0.0503,0.22186 0.18782,0.50247 0.52917,0.62358 0.34135,0.12111 0.88663,0.4481 1.21173,0.72665 0.35306,0.3025 1.59863,0.55819 3.0929497,0.63491 1.37602,0.0707 2.65784,0.22486 2.84849,0.34269 0.19064,0.11783 0.35146,0.006 0.35736,-0.24756 0.007,-0.30504 0.12511,-0.26595 0.34769,0.11515 0.39088,0.66928 0.27433,11.91381 -0.13028,12.56848 -0.14838,0.24009 -0.17131,0.59585 -0.051,0.79059 0.21103,0.34146 0.66289,0.28993 3.36826,-0.38406 z m 26.38226,-20.2782 c -3.41107,-0.61723 -6.86548,-1.9078 -9.86235,-3.68459 -2.66923,-1.58254 -6.58785,-5.6046 -8.38822,-8.60963 -3.08661,-5.15191 -4.77972,-13.54585 -3.94125,-19.53951 0.55663,-3.97897 2.15577,-8.87546 3.80833,-11.66094 1.81187,-3.05399 5.91689,-6.89069 8.86925,-8.28951 2.08734,-0.98898 2.68435,-1.10874 5.51569,-1.10648 3.6827,0.003 5.1456,0.59511 7.94967,3.21798 4.83747,4.52489 4.28798,12.21512 -1.12336,15.72155 -0.94107,0.60979 -1.71103,1.14777 -1.71103,1.19552 0,0.0478 1.00916,1.15207 2.24258,2.45405 l 2.24257,2.36723 1.3734,-0.43594 c 3.37815,-1.07229 11.79792,-6.89198 13.04171,-9.01434 0.47041,-0.80271 0.8547,-1.60426 0.85397,-1.78125 -7.3e-4,-0.17698 -0.70998,-0.6132 -1.57612,-0.96938 -1.9769,-0.81295 -4.27652,-3.01866 -5.14778,-4.93755 -0.9816,-2.16194 -0.90739,-5.56 0.17204,-7.87836 2.34199,-5.02999 8.32596,-7.79386 14.00876,-6.47035 7.79985,1.81657 14.24661,9.34439 16.24812,18.97278 1.30565,6.28097 0.49863,13.01859 -2.29179,19.13352 -5.20092,11.39728 -14.27909,18.30361 -27.81506,21.16063 -3.92648,0.82875 -10.36325,0.89752 -14.46913,0.15457 z m 15.40423,-3.63244 c 12.58288,-3.14337 22.32223,-12.23921 25.2482,-23.57997 2.03229,-7.87694 0.86077,-16.32843 -3.05851,-22.0645 -2.11517,-3.09567 -4.29546,-5.01029 -7.39797,-6.49655 -3.15641,-1.51208 -5.3914,-1.79966 -8.02845,-1.03305 -6.75261,1.96303 -8.40893,10.84216 -2.58437,13.85416 2.19109,1.13305 5.78736,0.55351 7.36195,-1.18639 1.05676,-1.1677 1.76316,-3.30599 1.52013,-4.60146 -0.20825,-1.11007 -0.17308,-1.17304 0.46458,-0.83178 1.29122,0.69104 3.47587,3.53107 4.28917,5.57589 1.09848,2.76183 1.34554,7.79774 0.54954,11.20148 -2.18024,9.32284 -10.53745,17.2255 -20.35959,19.25224 -9.7915,2.02042 -19.10345,-0.77856 -23.20845,-6.97599 -3.40885,-5.14642 -3.30894,-13.48244 0.22417,-18.7047 0.68916,-1.01864 1.35275,-1.85137 1.47464,-1.8505 0.1219,8.7e-4 0.24891,0.54039 0.28225,1.19892 0.20398,4.02883 4.00267,5.62745 8.25459,3.47381 2.41327,-1.22235 3.50679,-3.12211 3.49509,-6.07198 -0.0136,-3.42501 -2.0773,-6.42171 -5.11216,-7.4233 -3.07236,-1.01397 -8.51521,0.46036 -11.29428,3.05934 -4.32059,4.04062 -7.22192,11.32317 -7.22192,18.12755 0,13.68847 7.92376,23.40358 20.99028,25.73561 2.88842,0.51551 10.90929,0.14103 14.11111,-0.65883 z m -6.72028,-12.59284 c 0.92537,-0.60633 1.95778,-2.8424 1.95778,-4.24032 0,-0.49259 0.12929,-0.81572 0.28731,-0.71806 0.15801,0.0977 1.03114,0.21607 1.94027,0.26313 0.90914,0.0471 1.65297,0.16938 1.65297,0.27182 0,0.10244 -0.32133,0.50934 -0.71407,0.90422 -1.01958,1.02513 -2.53089,3.41143 -2.30414,3.63817 0.35088,0.35088 4.2241,-0.68422 6.3696,-1.70224 1.16417,-0.55239 2.71779,-1.59209 3.45249,-2.31045 l 1.33581,-1.3061 -1.39337,-0.83091 c -2.04702,-1.22069 -2.91494,-3.23977 -2.88705,-6.71628 0.0122,-1.51483 0.16395,-3.34954 0.33732,-4.07715 0.17337,-0.7276 0.24698,-1.32291 0.16357,-1.32291 -0.24893,0 -1.94128,1.13372 -4.00738,2.68459 -1.06715,0.80103 -2.97215,1.97068 -4.23333,2.59922 -2.6912,1.34122 -3.88056,2.3427 -3.88056,3.26754 0,0.36699 -0.17029,0.98545 -0.37842,1.37435 -0.33823,0.63198 -0.50253,0.45153 -1.54685,-1.69889 -1.26042,-2.59542 -3.29874,-5.05181 -4.192,-5.05181 -0.45434,0 -0.35798,0.46035 0.53536,2.55764 2.0389,4.78672 1.59322,9.01216 -1.11959,10.61466 -1.26602,0.74785 -1.12065,1.18198 0.49741,1.48553 1.43119,0.2685 2.73508,-0.34985 4.40791,-2.0904 0.66133,-0.6881 1.33484,-1.16925 1.49668,-1.06923 0.32087,0.19831 -0.87975,2.78075 -1.45934,3.13896 -0.1968,0.12163 -0.35782,0.37052 -0.35782,0.5531 0,0.54495 3.13302,0.37573 4.03944,-0.21818 z m -10.10587,-3.5027 c 2.78992,-2.34757 2.83047,-6.89603 0.0951,-10.67205 -0.87516,-1.20812 -1.33549,-1.49806 -2.91389,-1.83525 -1.03099,-0.22025 -2.46414,-0.78967 -3.18477,-1.26538 l -1.31023,-0.86492 -0.40363,1.49591 c -0.22199,0.82276 -0.33862,2.84529 -0.25916,4.49453 0.12379,2.5695 0.31393,3.31591 1.32866,5.2159 2.16626,4.05609 4.48376,5.25225 6.64789,3.43126 z m 27.50387,-4.41373 c 1.47222,-0.89761 4.43521,-5.42221 5.26395,-8.03826 0.87886,-2.77422 0.87493,-8.10699 -0.008,-10.39447 -0.35559,-0.92164 -0.75247,-1.66967 -0.88194,-1.66231 -0.12947,0.007 -0.66599,0.63609 -1.19226,1.39717 -1.02937,1.48863 -2.99174,2.67342 -5.12308,3.09308 -1.22522,0.24125 -1.42993,0.46697 -2.63557,2.90605 -1.44628,2.9259 -1.43665,2.87764 -1.37929,6.91383 0.047,3.30716 0.78999,4.82749 2.86988,5.87246 1.53994,0.77369 1.67993,0.76972 3.08597,-0.0875 z m 29.09279,7.57508 c 0.724747,-0.67385 1.569527,-1.22518 1.877277,-1.22518 0.49738,0 0.50075,0.0588 0.0304,0.52917 -0.29104,0.29104 -0.67465,0.52917 -0.85247,0.52917 -0.17781,0 -0.61063,0.3175 -0.961817,0.70555 -0.35118,0.38806 -0.81235,0.70126 -1.02481,0.69601 -0.21246,-0.005 0.20668,-0.56087 0.93144,-1.23472 z m 3.268367,-6.16407 -1.05833,-0.2693 1.12571,-0.0417 c 0.61914,-0.023 1.22382,0.11701 1.34374,0.31103 0.24128,0.39041 0.12316,0.39041 -1.41112,0 z m 1.29528,-39.50353 c 0.51838,-0.1565 1.15338,-0.39275 1.41111,-0.525 0.25774,-0.13225 0.16046,0.009 -0.21617,0.31488 -0.37664,0.30543 -1.01164,0.54168 -1.41111,0.525 -0.58284,-0.0243 -0.54013,-0.0865 0.21617,-0.31488 z M 6.8533233,255.05584 c 0.92502,-0.71021 1.38054,-1.88163 1.38054,-3.5502 0,-1.33049 -0.17102,-1.72324 -1.0854,-2.49264 -2.33061,-1.96108 -4.91182,-0.60979 -4.91182,2.57137 0,2.27183 1.2464,3.9295 2.94177,3.91244 0.61335,-0.006 1.36705,-0.20461 1.67491,-0.44097 z m -32.5528263,-1.13332 c 1.427996,-1.20158 1.711902,-2.89882 0.82158,-4.91154 -1.07967,-2.44077 -3.489462,-3.19055 -5.172546,-1.60938 -1.77006,1.66289 -1.146868,5.35508 1.143382,6.77412 1.337865,0.82895 1.981942,0.77811 3.207584,-0.2532 z m 166.791353,-1.43165 c 10.24002,-2.66058 17.93733,-8.86737 22.20564,-17.90571 1.99128,-4.2166 2.44321,-6.47627 2.44767,-12.23824 0.004,-5.78872 -0.58035,-8.36598 -2.90764,-12.81347 -1.52366,-2.91173 -5.34868,-7.09808 -8.26445,-9.04516 -2.82973,-1.88962 -7.41429,-3.32871 -9.93774,-3.11944 l -1.87673,0.15563 0.68584,-1.78808 c 1.53518,-4.00248 0.53407,-8.47846 -2.31854,-10.36623 -1.86451,-1.23388 -5.29151,-1.33538 -7.51668,-0.22264 l -1.44823,0.72423 1.03126,-2.20376 c 1.90546,-4.07186 1.95048,-8.90228 0.11789,-12.64796 -1.01211,-2.06867 -3.61191,-4.69047 -5.6991,-5.74733 -1.77311,-0.89782 -3.66608,-1.31626 -3.66608,-0.81039 0,0.20889 -0.55562,0.9948 -1.23472,1.74648 l -1.23472,1.36669 v 15.39127 c 0,8.4652 0.0616,15.39127 0.13678,15.39127 0.0752,0 1.16172,-0.47963 2.41443,-1.06584 3.33597,-1.56109 6.85656,-2.21555 10.74466,-1.99739 4.18656,0.23492 5.24979,0.75128 2.20271,1.06976 -1.21677,0.12718 -3.89204,0.80026 -5.94503,1.49574 -8.68622,2.94256 -14.74794,7.43867 -18.55688,13.76404 -2.25704,3.74819 -3.85447,10.10295 -3.62763,14.43111 l 0.10735,2.04805 1.84796,0.6266 c 4.50645,1.52804 8.91898,4.64531 11.57285,8.17574 3.19674,4.25261 4.39446,7.7242 4.39446,12.73736 0,3.01749 0.004,3.02999 0.97014,3.24313 0.53358,0.11768 1.12889,0.26693 1.32292,0.33165 0.19403,0.0647 2.20071,0.13021 4.45929,0.14553 3.32586,0.0226 4.76538,-0.14333 7.57232,-0.87264 z m -178.973353,-5.66388 c 1.033783,-1.12805 1.425265,-1.30074 3.444331,-1.51929 1.25289,-0.13562 2.826433,-0.53629 3.496763,-0.89038 0.670329,-0.35409 2.203196,-0.72282 3.40637,-0.8194 l 2.187589,-0.1756 0.2075,-1.45367 c 0.114125,-0.79952 0.223329,-12.32805 0.242675,-25.61895 0.04369,-30.01732 0.05996,-28.92778 -0.431969,-28.92778 -0.220548,0 -8.546647,-3.25437 -18.502441,-7.23194 -9.955795,-3.97757 -18.207204,-7.23195 -18.336465,-7.23195 -0.129261,0 -3.114099,-1.18215 -6.632973,-2.627 -3.518874,-1.44485 -10.922328,-4.40187 -16.452119,-6.57115 l -10.054166,-3.94414 -3.35168,0.44297 c -3.073282,0.40618 -3.586082,0.38376 -6.173612,-0.2699 -1.55206,-0.39208 -2.84605,-0.69034 -2.87552,-0.66279 -0.0295,0.0275 -0.10885,3.80846 -0.17639,8.40204 -0.11804,8.02848 -0.0941,8.39057 0.61677,9.34861 0.40676,0.54815 1.0805,1.16956 1.49721,1.38091 0.41671,0.21134 0.66183,0.48009 0.5447,0.59721 -0.11712,0.11713 0.49007,1.37296 1.34931,2.79074 2.33586,3.85429 4.458449,8.70281 5.297099,12.09994 0.410682,1.66356 0.838664,2.87609 0.951071,2.69451 0.112407,-0.18157 0.242392,1.34612 0.288856,3.39488 0.04646,2.04875 0.165587,3.80611 0.264719,3.90524 0.09913,0.0991 0.850794,-0.35863 1.67036,-1.01725 l 1.49012,-1.19749 -1.010284,1.32455 c -0.555656,0.7285 -0.925076,1.40976 -0.820932,1.5139 0.104143,0.10414 0.687567,0.20352 1.296497,0.22083 1.524824,0.0434 1.660037,0.48139 0.295434,0.9571 -1.260522,0.43942 -3.440604,1.83221 -3.444372,2.20052 -0.0013,0.12958 1.251525,0.65321 2.784113,1.16361 4.767737,1.5878 9.642504,4.95643 12.967108,8.96072 1.106487,1.3327 2.786812,4.05415 3.903345,6.32186 1.078271,2.19 2.136873,3.9164 2.352451,3.83646 0.215577,-0.0799 0.351705,-0.32564 0.302506,-0.546 -0.063,-0.28218 0.09348,-0.29691 0.529167,-0.0498 0.340241,0.19296 1.809244,0.49856 3.264452,0.6791 3.637572,0.4513 5.329115,0.92539 7.873779,2.20678 4.744072,2.38893 7.902274,4.99981 10.782703,8.91404 l 2.152633,2.92522 2.12038,0.22162 c 2.354528,0.2461 5.019363,1.44406 6.324358,2.84308 0.470385,0.50428 1.003162,0.91687 1.183951,0.91687 0.180788,0 0.640888,0.39687 1.022443,0.88194 0.381556,0.48507 0.759454,0.88195 0.839775,0.88195 0.08032,0 0.670893,-0.57272 1.312385,-1.27271 z M -88.101164,208.7171 c -0.78673,-0.85534 -0.794981,-0.89851 -0.102998,-0.53897 0.413735,0.21497 0.845315,0.63339 0.959067,0.92982 0.288636,0.75218 0.127695,0.6787 -0.856069,-0.39085 z M -111.00502,165.202 v -8.10881 l -2.02847,-1.02519 c -1.86031,-0.94021 -5.23576,-4.07446 -6.32925,-5.87698 -0.33213,-0.54748 -0.42458,1.31147 -0.44097,8.86691 l -0.0208,9.55962 1.32291,0.59799 c 0.72761,0.3289 2.59292,1.37753 4.14514,2.33029 1.55222,0.95276 2.94128,1.73965 3.08681,1.74864 0.14552,0.009 0.26458,-3.63262 0.26458,-8.09247 z m 90.134717,7.72835 c 0.776112,-0.20709 6.299849,-2.05111 12.2749733,-4.09783 5.975123,-2.04671 10.920673,-3.66233 10.990123,-3.59025 0.0694,0.0721 -1.27589,1.16292 -2.98962002,2.4241 -1.71372998,1.26118 -3.12709998,2.38462 -3.14081998,2.49654 -0.0137,0.11191 0.491,0.13663 1.12159,0.0549 2.46453998,-0.31934 27.2776997,-4.34184 27.6930597,-4.48937 0.76314,-0.27106 0.49908,-0.99243 -1.6589,-4.53183 -4.98783,-8.18077 -13.30891,-17.2905 -19.6489697,-21.51124 -12.652639,-8.42321 -28.2276053,-7.13014 -37.8706013,3.14411 -3.821997,4.0722 -5.997222,9.31941 -5.997222,14.46687 0,2.6037 0.938023,6.4153 1.902124,7.72918 0.465109,0.63384 0.49986,0.48224 0.365045,-1.59252 l -0.148999,-2.29306 0.46022,1.94028 c 0.665797,2.80699 1.821604,4.79964 3.481344,6.00195 0.799953,0.57948 1.589391,1.0536 1.754307,1.0536 0.164916,0 0.299847,-0.80312 0.299847,-1.78471 0,-2.02745 0.50341,-2.07299 0.831264,-0.0752 0.532763,3.24642 2.909181,5.01469 6.753458,5.02519 1.164167,0.003 2.751666,-0.16366 3.527777,-0.37075 z m 69.320826,-11.1082 c 33.48955,-5.80504 35.26227,-6.22422 40.23534,-9.51398 3.25339,-2.15216 8.67258,-7.55289 11.326937,-11.28837 2.52659,-3.55564 5.61328,-9.71045 6.76131,-13.4819 1.02599,-3.37056 1.30254,-3.15076 -3.17654,-2.52471 -1.51775,0.21214 -4.411737,0.48995 -6.431087,0.61736 l -3.67154,0.23165 -0.60002,1.76389 c -0.83121,2.4435 -3.33875,7.35066 -5.02807,9.83974 -2.06279,3.03937 -7.07634,7.92268 -10.28332,10.01617 -3.63271,2.37141 -7.62009,4.03667 -10.13647,4.23333 -4.96681,0.38817 -12.52853,-4.05296 -16.35124,-9.60336 -0.7433,-1.07925 -1.42779,-1.96227 -1.52107,-1.96227 -0.0933,0 -0.82097,0.53067 -1.61706,1.17926 -2.12052,1.72763 -5.76014,3.95192 -8.53787,5.21777 -2.45457,1.11859 -11.46627,4.26804 -11.65949,4.07482 -0.0572,-0.0573 0.80431,-0.64354 1.91458,-1.30285 3.71173,-2.20414 12.21737,-8.03893 15.10593,-10.36253 3.12147,-2.51095 8.25579,-7.77919 8.25579,-8.47113 0,-0.23864 -0.47833,-0.89216 -1.06297,-1.45228 -2.06168,-1.97521 -6.34536,-8.91146 -6.34536,-10.27457 0,-0.1126 1.33593,1.05984 2.96873,2.60542 4.39397,4.15926 7.27138,6.19351 12.3771,8.7503 7.25943,3.6353 13.10311,4.51415 17.39427,2.61596 2.82761,-1.25078 4.00758,-2.85159 4.00758,-5.43686 0,-1.92101 -0.8206,-3.85233 -2.48128,-5.83983 -1.91331,-2.28985 -2.02022,-2.52693 -1.04535,-2.31812 0.4521,0.0968 2.727,0.59362 5.05534,1.10397 3.62781,0.79519 5.11637,0.93192 10.40694,0.95594 4.31127,0.0196 7.237807,-0.15308 9.701387,-0.57231 13.61184,-2.31638 27.02021,-9.049 34.76861,-17.45803 2.63556,-2.86026 4.91888,-6.838732 4.91888,-8.570652 0,-1.16075 -0.21045,-1.22767 -1.42081,-0.45182 -0.73814,0.47315 -0.71683,0.41613 0.1386,-0.37087 0.55597,-0.51149 0.91281,-1.02802 0.79299,-1.14784 -0.11981,-0.11982 -2.16219,0.24551 -4.53862,0.81184 -4.19967,1.00084 -4.56794,1.0289 -13.14021,1.00135 l -8.81944,-0.0284 -8.64306,-1.84013 c -13.206057,-2.81161 -17.414517,-3.56133 -22.149107,-3.94579 -4.75873,-0.38642 -9.8419,-0.0376 -13.60684,0.93379 -3.32412,0.85764 -9.55229,3.51628 -13.09237,5.58879 -5.19593,3.04192 -5.10038,3.00879 -3.74613,1.29891 1.92724,-2.43334 8.16893,-7.00964 12.16146,-8.91658 l 1.72394,-0.82341 -0.2093,-4.762495 c -0.97402,-22.163484 -13.28019,-45.764639 -29.34414,-56.277057 -6.68709,-4.376101 -11.58924,-6.689082 -20.10833,-9.487721 -9.5967,-3.152644 -16.3102197,-4.333836 -26.6347237,-4.686177 -9.3705143,-0.319785 -17.2162673,0.758629 -26.4583323,3.636748 -10.950322,3.410096 -18.292397,7.243378 -29.986108,15.655685 -2.619375,1.884345 -6.111875,4.190924 -7.761111,5.125732 -14.196828,8.046939 -24.275841,21.454844 -28.427491,37.816516 -1.509637,5.949471 -1.958697,9.609309 -1.960457,15.977439 -0.003,10.317072 2.57732,19.844942 8.158072,30.125662 7.524842,13.86206 22.21494,26.21703 37.575708,31.60269 3.397115,1.19107 10.252094,3.18275 10.954404,3.18275 0.233803,0 0.688315,-1.04788 1.010028,-2.32862 1.178607,-4.69206 4.086888,-9.30063 8.572945,-13.58499 6.85075,-6.54274 15.70275,-9.43984 25.7377883,-8.42351 6.663338,0.67486 12.367618,3.01857 18.343548,7.5368 3.7172097,2.81048 9.6336397,8.58916 12.3247697,12.03782 3.28125,4.20489 7.26847,10.91305 8.07288,13.58195 0.48917,1.62299 0.69173,1.6918 3.44096,1.16897 1.40763,-0.2677 8.51246,-1.51864 15.7885,-2.77986 z M -47.8578,119.64682 c -2.423133,-0.96117 -5.074837,-5.14985 -6.419848,-10.14093 -0.967457,-3.59004 -1.067907,-10.931012 -0.189273,-13.832282 0.607123,-2.00474 1.980477,-3.7416 2.280434,-2.88403 0.08489,0.24269 0.510081,1.11582 0.944874,1.94028 2.513358,4.76586 9.454248,4.87424 14.49661,0.22635 1.907774,-1.75852 2.558367,-1.63682 3.235158,0.60516 1.338604,4.43435 -0.330124,13.336642 -3.378106,18.021452 -1.586012,2.43773 -4.510826,5.24327 -6.203485,5.95051 -1.38457,0.57851 -3.468912,0.62814 -4.766364,0.11349 z m 4.79545,-2.81596 c 2.624161,-1.23479 5.203597,-5.50627 6.809207,-11.27588 0.774459,-2.78294 0.995173,-6.327502 0.394005,-6.327502 -0.934611,0 -7.446922,2.307552 -9.000051,3.189042 -3.790684,2.15144 -5.947472,5.52725 -5.979388,9.35895 -0.01478,1.7744 0.152156,2.39815 0.974854,3.64248 1.668315,2.52333 3.59216,2.92299 6.801373,1.41291 z m 43.18232328,2.26423 c -3.54874998,-0.62464 -8.31444798,-2.34149 -11.16424728,-4.02194 -2.529366,-1.49149 -7.654515,-6.51211 -9.427948,-9.23566 -4.446851,-6.829252 -6.472857,-17.510852 -4.975329,-26.231156 1.51354,-8.813541 5.315296,-16.617418 11.127107,-22.840649 C -7.6247097,49.595959 0.69864328,45.922442 9.1093933,46.424916 23.563043,47.288403 34.491823,57.977719 37.748053,74.436067 c 0.73947,3.737612 0.82398,12.217201 0.15565,15.619191 -1.82014,9.26513 -6.7761,18.262372 -12.80255,23.242242 -2.8428,2.34911 -8.55296,5.19871 -11.75201,5.86472 -3.12403,0.6504 -9.3316297,0.6189 -13.22916972,-0.0671 z M 12.819973,117.1961 c 1.26118,-0.41171 3.55058,-1.40055 5.08756,-2.19742 3.45452,-1.79105 7.81823,-5.94132 10.3556,-9.84906 5.71011,-8.794022 6.5355,-21.028282 2.17265,-32.20408 -1.69748,-4.348248 -3.813,-7.552334 -6.72844,-10.190658 -2.152,-1.947452 -7.59665,-5.055463 -8.02976,-4.583696 -0.11648,0.126869 -0.01,0.302688 0.23683,0.390707 1.31548,0.469281 4.8839,3.224532 6.51071,5.027045 4.72816,5.238858 6.88603,10.94825 7.20297,19.057991 0.16889,4.321479 0.10251,5.084969 -0.71678,8.244729 -1.40826,5.43129 -3.01147,8.33495 -6.55378,11.869942 -1.8683,1.86443 -3.83328,3.4377 -5.17722,4.14514 -2.28888,1.20485 -3.2465,1.47566 -2.06729,0.58462 0.38806,-0.29323 0.70556,-0.67063 0.70556,-0.83868 0,-0.16805 0.98212,-0.96137 2.18248,-1.76295 5.66009,-3.77966 9.29452,-10.666292 9.42035,-17.849972 0.053,-3.02366 -0.28317,-3.29606 -1.52417,-1.23522 -0.24938,0.41413 -0.62432,0.24585 -1.96505,-0.88194 -2.51752,-2.117679 -2.61929,-2.17079 -3.0086,-1.57011 -0.18862,0.29104 -0.43902,1.10258 -0.55643,1.80343 -0.32772,1.95619 -0.53682,2.14765 -1.84684,1.69097 -3.73928,-1.30352 -6.89534,2.58691 -5.01984,6.18789 0.55829,1.07193 0.62425,1.46009 0.28683,1.68802 -5.2140397,3.52223 -10.3050297,4.03811 -15.4729797,1.56791 -4.32636,-2.06793 -6.714573,-5.44592 -7.40134,-10.46878 -0.492953,-3.605355 -0.563046,-3.77081 -1.6932093,-3.996843 -0.789612,-0.157922 -1.086456,-0.456225 -1.265588,-1.271807 -0.128712,-0.586022 -0.132119,-1.386562 -0.0076,-1.778977 0.333404,-1.050464 -0.123227,-2.124594 -0.903201,-2.124594 -0.37498,0 -0.681783,0.210452 -0.681783,0.467672 0,0.874168 -1.560688,1.950126 -2.995619,2.065219 l -1.40812,0.112942 -0.288826,1.940278 c -0.158855,1.067152 -0.229351,4.00403 -0.156659,6.52639 0.150302,5.21535 0.663777,6.97658 3.151941,10.81116 0.799989,1.23289 1.49328,2.717862 1.540647,3.299952 0.08536,1.04897 0.07234,1.04272 -1.470784,-0.70556 -1.988045,-2.252342 -4.073057,-6.362482 -4.931255,-9.720862 -0.953103,-3.72977 -1.109833,-1.53001 -0.204891,2.87572 1.826194,8.890872 6.560484,16.055612 13.3240623,20.164272 2.372356,1.44113 6.62701598,2.963 9.597876,3.43313 2.95869,0.46819 7.6604397,0.13773 10.2999597,-0.72392 z M 0.53623328,109.75555 c -1.22627,-0.20112 -2.13077998,-0.46447 -2.01003998,-0.58521 0.12075,-0.12075 2.39404998,-0.25207 5.0518,-0.29183 4.31703,-0.0646 6.6220297,-0.33601 8.7410097,-1.0293 0.55496,-0.18157 0.58174,-0.15283 0.14819,0.15904 -0.44913,0.32308 -0.42245,0.3868 0.17639,0.42128 0.38806,0.0223 -0.24694,0.34856 -1.41111,0.72492 -2.5468797,0.82338 -7.6071197,1.10775 -10.69623972,0.6011 z m -5.35514998,-1.47572 c -2.60312,-1.08495 -5.005763,-2.43692 -3.940882,-2.21754 0.59797,0.1232 0.770457,0.0359 0.633671,-0.32051 -0.118471,-0.30873 0.571984,-0.10361 1.867861,0.55491 1.13069,0.57458 2.2346,1.04468 2.45313,1.04468 0.21853,0 0.39733,0.23813 0.39733,0.52917 0,0.29104 0.22876,0.52917 0.50835,0.52917 0.27959,0 0.60646,0.15875 0.72638,0.35277 0.34632,0.56037 -0.5526,0.39979 -2.64584,-0.47265 z M 10.615113,91.257028 c 0.88257,-0.98774 0.99888,-1.92133 0.38335,-3.07704 -1.0589397,-1.98823 -3.2536297,-2.25454 -4.6735197,-0.5671 -1.04962,1.2474 -1.15473,2.29348 -0.34639,3.44754 1.16837,1.66809 3.24314,1.75606 4.6365597,0.1966 z m -11.02430972,-2.22165 c 0,-1.18559 -1.04359998,-1.79187 -1.79351998,-1.04195 -0.87858,0.87858 -0.34183,2.13242 0.85367,1.99415 0.72558998,-0.0839 0.93984998,-0.301 0.93984998,-0.9522 z M 19.513423,80.241024 c 1.93128,-1.179853 3.39345,-3.453187 3.92394,-6.100802 1.0296,-5.138636 -2.90541,-10.164197 -7.97156,-10.180799 -2.53453,-0.0083 -4.07309,0.516401 -5.7678597,1.967063 -2.15965,1.84858 -3.02268,3.698984 -3.03853,6.514831 -0.0189,3.35443 1.40874,6.073259 4.0055697,7.628381 1.035,0.619815 2.30047,1.198696 2.81215,1.286402 1.89186,0.324276 4.45541,-0.149284 6.03629,-1.115076 z M 1.3546933,79.824707 c 0,-0.705556 -0.17639,-0.881945 -0.88194002,-0.881945 -0.70556,0 -0.90477,0.199215 -0.99608,0.996074 -0.10381,0.906082 -0.0241,0.985763 0.88195,0.881944 0.79686002,-0.0913 0.99607002,-0.290518 0.99607002,-0.996073 z m -8.36083,-2.187222 c 0.62571,-0.625711 0.51379,-1.974762 -0.194028,-2.338807 -0.786738,-0.404633 -1.410989,-0.178718 -1.868537,0.676219 -0.747025,1.395828 0.956307,2.768845 2.062565,1.662588 z m 9.072,-12.413532 c 0.64922,-0.474727 0.64053,-0.533605 -0.28536,-1.932714 -0.52523,-0.793689 -0.95497002,-1.605224 -0.95497002,-1.803412 0,-0.198187 -0.15875,-0.360341 -0.35278,-0.360341 -0.19403,0 -0.35278,0.253306 -0.35278,0.562902 0,0.309597 -0.3426,1.044042 -0.76134,1.632102 l -0.76132998,1.069198 0.84952998,0.65311 c 1.02153,0.785341 1.72428002,0.833412 2.61903002,0.179155 z M 61.670223,116.85793 c -2.41905,-0.76728 -3.6947,-1.77667 -3.6947,-2.92353 0,-2.83816 8.48054,-8.34294 16.40417,-10.64806 6.48421,-1.88637 9.5733,-2.12417 21.98432,-1.69239 16.208127,0.56389 24.210497,-0.0311 34.174867,-2.540942 2.6139,-0.65839 5.81115,-1.68402 7.105,-2.27917 3.15078,-1.44931 1.57361,-0.21792 -2.41003,1.88165 -3.47915,1.833692 -6.93966,3.052302 -11.64524,4.100862 -6.84849,1.52606 -10.08266,1.81129 -23.808927,2.09979 -14.27678,0.30006 -16.17455,0.50473 -21.62695,2.3324 -4.85693,1.62807 -11.35776,4.96494 -11.35776,5.82993 0,0.1592 0.63302,0.97105 1.40671,1.8041 0.77369,0.83305 1.40869,1.61485 1.41111,1.73734 0.007,0.34977 -2.98827,1.01411 -4.47335,0.9922 -0.7387,-0.0109 -2.29985,-0.32328 -3.46922,-0.69418 z M -77.138354,99.536918 c -6.188001,-1.04415 -10.887323,-5.79291 -13.223098,-13.36221 -0.811102,-2.62845 -1.120419,-10.960114 -0.55138,-14.851795 1.272325,-8.701476 5.809838,-17.38628 12.675901,-24.26168 6.736401,-6.745563 14.07598,-10.308977 21.267692,-10.325605 3.332425,-0.0077 5.169927,0.571674 7.535541,2.376015 5.868369,4.476024 6.297522,18.995063 1.017119,34.411106 -2.822846,8.241252 -6.460371,14.437099 -11.259425,19.178349 -5.464505,5.39867 -11.643803,7.817632 -17.46235,6.83582 z m 6.895072,-2.90846 c 1.940148,-0.51668 6.510483,-2.67678 6.510483,-3.07708 0,-0.13679 -1.34377,-0.30469 -2.986156,-0.37311 -2.216214,-0.0923 -3.140538,-0.27882 -3.584915,-0.7233 -0.563186,-0.56332 -0.537728,-0.59149 0.428518,-0.47413 6.843539,0.83119 7.792836,0.62132 10.58004,-2.33903 2.501415,-2.6568 3.944683,-4.88384 5.305081,-8.18601 1.674022,-4.063447 1.557079,-4.555162 -0.538123,-2.262677 -1.001205,1.095478 -2.600917,2.335156 -3.79236,2.938846 -1.87802,0.951571 -2.350946,1.039501 -5.334874,0.991961 -3.735343,-0.0595 -6.067523,-0.931858 -8.101397,-3.030284 l -1.136206,-1.172267 0.738243,-1.492122 c 0.93577,-1.891359 0.685921,-3.475645 -0.798778,-5.06502 l -1.084549,-1.161014 0.246104,-3.93878 c 0.169554,-2.713623 0.12634,-4.012798 -0.138928,-4.176743 -0.211768,-0.13088 -0.385033,-0.704844 -0.385033,-1.275476 0,-1.225129 -0.424137,-1.331742 -1.121244,-0.281843 -0.431745,0.650243 -0.611776,0.696784 -1.290407,0.333592 -0.433764,-0.232143 -0.882185,-0.889695 -0.996491,-1.461226 -0.282636,-1.41318 -0.637204,-1.309171 -1.695984,0.4975 -2.219493,3.787278 -3.5993,10.062036 -3.253737,14.796565 0.328561,4.501562 1.45331,7.234258 4.452174,10.817018 0.886949,1.05964 1.569013,2.06363 1.515699,2.23108 -0.05331,0.16746 0.05126,0.21287 0.23239,0.10093 0.181128,-0.11194 1.144056,0.33303 2.139838,0.98883 1.383356,0.91105 1.673849,1.24481 1.231259,1.41465 -0.950106,0.36459 -3.933533,-1.52408 -6.149498,-3.89295 -3.72643,-3.98356 -5.71141,-9.264094 -5.78179,-15.380966 -0.02177,-1.891771 -0.141944,-3.439583 -0.267059,-3.439583 -0.527099,0 -1.448049,5.439652 -1.620072,9.569064 -0.215951,5.183875 0.358449,8.510695 2.05595,11.907695 2.831433,5.6662 8.521093,8.24058 14.621822,6.61588 z m -10.234892,-12.19527 c -0.514449,-0.99483 -1.24629,-1.725435 -1.24629,-1.24418 0,0.29836 1.408527,2.28014 1.620581,2.28014 0.08878,0 -0.07965,-0.46618 -0.374291,-1.03596 z m 20.112799,-7.238279 c 1.076664,-1.076664 1.116367,-2.526183 0.09886,-3.60927 -1.317987,-1.402934 -3.383292,-0.956319 -4.151248,0.897692 -0.35354,0.85352 -0.33234,1.222421 0.120583,2.098276 0.888265,1.717716 2.565732,1.979376 3.931806,0.613302 z m -7.664415,-3.282834 c 0.08471,-0.59372 -0.06359,-0.790146 -0.596542,-0.790146 -0.844377,0 -1.245156,0.533614 -0.959627,1.277689 0.301766,0.786391 1.424605,0.434609 1.556169,-0.487543 z m 10.791723,-0.305693 c 0.12112,-0.315634 0.03767,-0.793842 -0.185452,-1.062683 -0.5116,-0.61644 -1.370392,-0.0059 -1.370392,0.974204 0,0.828754 1.244613,0.899533 1.555844,0.08848 z m 4.070806,-7.34657 c 1.433171,-1.373066 2.559416,-4.193551 2.75372,-6.896215 0.504406,-7.016033 -4.12888,-10.131623 -8.866016,-5.961829 -3.172348,2.792412 -4.074757,7.320462 -2.160028,10.83845 1.272901,2.338739 2.933356,3.304018 5.387508,3.131944 1.446893,-0.101451 2.087478,-0.348452 2.884816,-1.11235 z m -14.538781,-2.314155 c 0.05049,-0.288814 -0.06101,-0.763241 -0.247774,-1.054282 -0.298452,-0.465079 -0.411054,-0.457711 -0.929743,0.06084 -0.337811,0.337721 -0.49457,0.839122 -0.366602,1.1726 0.267711,0.697645 1.414085,0.564636 1.544119,-0.179158 z m 6.00418,-13.903737 c 0.07816,-0.07816 -0.08982,-0.513067 -0.37328,-0.966464 -0.283462,-0.453397 -0.626584,-1.300416 -0.762493,-1.882265 -0.238543,-1.021242 -0.264416,-1.033468 -0.746499,-0.352778 -0.274665,0.387821 -0.848757,1.077634 -1.275759,1.532916 l -0.776368,0.827787 0.863536,0.679397 c 0.768685,0.604771 2.534676,0.697593 3.070863,0.161407 z M 30.106083,40.958649 C 24.194053,35.585948 17.950423,32.701768 11.408863,32.32167 8.4720633,32.151027 7.7192533,32.23591 5.3234433,33.0078 l -2.73403,0.880863 10e-4,-0.756282 c 0.003,-1.435695 1.29005,-2.938753 3.40842,-3.978928 1.90363,-0.934729 2.34996,-1.008428 5.9388797,-0.980636 6.62936,0.05134 11.55932,2.20364 15.89646,6.940011 1.7103,1.867728 4.38826,6.221065 4.38826,7.133626 0,0.444127 -0.63804,0.05594 -2.11667,-1.287805 z M -40.213245,29.53958 c -1.837587,-2.087892 -3.933525,-2.773786 -7.774055,-2.544054 -1.578011,0.09439 -3.186611,0.298993 -3.574667,0.454667 -0.697476,0.279803 -0.697804,0.274218 -0.02864,-0.487722 0.372305,-0.423921 1.782696,-1.323964 3.134204,-2.000096 4.483073,-2.24279 8.894839,-1.497744 10.476347,1.769215 0.794113,1.640419 0.915392,3.353316 0.282254,3.986454 -0.660199,0.660199 -1.063495,0.471258 -2.515444,-1.178464 z m -55.520534,124.29119 c 2.21092,-1.05571 3.485753,-2.02832 6.526388,-4.97918 2.078318,-2.01696 4.170809,-3.87174 4.649979,-4.12175 0.479171,-0.25 2.114096,-0.63213 3.633167,-0.84918 l 2.761948,-0.39463 -2.222056,-1.63531 c -6.598694,-4.85629 -15.004822,-15.34168 -19.038031,-23.74712 -1.444056,-3.00949 -1.490586,-3.06161 -2.545186,-2.85069 -1.89924,0.37985 -6.68409,2.93208 -8.7725,4.67925 -5.49481,4.59694 -8.80003,12.25171 -8.26598,19.14372 0.20747,2.67735 1.39798,7.22579 1.9865,7.58951 0.18082,0.11176 0.2534,-0.97742 0.16944,-2.54273 l -0.14687,-2.73823 0.52537,2.7458 c 0.62302,3.25614 1.50142,5.11371 3.02397,6.39485 1.18593,0.9979 3.1315,2.10612 3.33688,1.90073 0.0677,-0.0677 0.27682,-1.07743 0.46466,-2.2438 0.18784,-1.16636 0.55424,-2.64199 0.81422,-3.27918 0.44187,-1.08296 0.4658,-0.96708 0.36702,1.77682 -0.18986,5.2734 1.33929,6.74853 6.80845,6.56794 2.819937,-0.0931 3.482275,-0.25155 5.922631,-1.41682 z m 194.707212,-1.33278 c 1.995657,-0.38747 3.677527,-0.70497 3.737487,-0.70555 0.06,-5.9e-4 0.0236,-0.1392 -0.0807,-0.30803 -0.10434,-0.16883 -1.13038,-0.65875 -2.28009,-1.08871 l -2.090377,-0.78175 -1.94794,1.52968 c -2.99318,2.3505 -2.84841,2.42416 2.66162,1.35436 z m 43.438987,-1.06973 c 2.75522,-1.03086 4.63377,-2.5731 5.67201,-4.65659 1.81958,-3.65141 1.18388,-5.50353 -7.09503,-20.67153 -3.55361,-6.51066 -6.46111,-11.95672 -6.46111,-12.10235 0,-0.73688 -0.84987,-0.55811 -2.56617,0.53979 -1.04538,0.66872 -3.43506,1.97806 -5.31041,2.90963 -2.69619,1.33933 -3.36948,1.82055 -3.21744,2.29959 0.10575,0.33319 2.72454,5.52144 5.81954,11.52943 5.79154,11.24252 6.24489,12.48007 5.13028,14.00439 -0.92852,1.26983 -2.76779,0.82178 -9.20896,-2.24334 -3.29597,-1.56843 -8.29454,-4.04586 -11.10795,-5.5054 -2.8134,-1.45954 -5.29647,-2.65824 -5.51794,-2.66377 -0.22147,-0.006 -0.6922,0.66461 -1.04607,1.48923 -0.35387,0.82462 -0.69613,1.60126 -0.76058,1.72586 -0.0644,0.1246 0.80316,0.55045 1.92801,0.94634 1.12486,0.39588 4.02957,1.41328 6.45492,2.26088 5.38714,1.88267 8.15298,3.56418 9.18276,5.58273 0.65409,1.28212 1.14604,1.64885 4.06985,3.03387 5.62095,2.66266 9.77894,3.11337 14.03429,1.52124 z m -71.793647,-4.0782 c 1.19538,-0.51842 2.17342,-1.05468 2.17342,-1.19168 0,-0.13701 -1.54782,-0.77577 -3.43959,-1.41948 -1.89177,-0.6437 -5.64279,-2.02504 -8.33561,-3.06963 -2.69281,-1.0446 -4.95657,-1.83872 -5.03057,-1.76472 -0.074,0.074 0.40121,0.83621 1.05603,1.6938 1.38488,1.81373 4.23977,4.32349 6.7539,5.93744 2.09363,1.34401 3.37562,1.30911 6.82242,-0.18573 z m 82.520397,-3.76077 c 1.14355,-1.22297 3.19157,-4.78812 3.46404,-6.03011 0.13437,-0.6125 0.69287,-1.90873 1.24111,-2.88051 2.16921,-3.845 3.13128,-8.00724 3.46487,-14.99008 0.13441,-2.8134 0.1565,-5.19465 0.0491,-5.29166 -0.1074,-0.097 -0.20006,-2.00202 -0.20591,-4.23333 -0.007,-2.5597 -0.25391,-5.22313 -0.66982,-7.21685 -0.75999,-3.643042 -3.62448,-12.336072 -5.19382,-15.761952 l -1.07251,-2.34129 -1.99466,-0.15044 c -2.62852,-0.19824 -4.29938,-1.04563 -6.949,-3.524223 -2.60976,-2.441297 -5.00875,-5.839525 -7.6731,-10.869138 -3.38978,-6.399024 -4.62591,-11.600015 -3.78109,-15.90883 0.62808,-3.203372 0.59891,-3.377232 -1.05977,-6.316168 -3.85242,-6.825937 -11.29387,-15.403558 -17.28032,-19.918703 -1.26118,-0.951218 -2.92805,-2.300423 -3.70416,-2.998233 -3.45404,-3.105562 -10.51713,-7.202535 -16.685217,-9.678329 -3.13654,-1.258964 -8.45285,-2.534633 -9.33608,-2.240225 -0.23022,0.07674 0.96632,1.549597 2.65899,3.273013 2.7029,2.751994 3.81969,4.193317 2.72481,3.516646 -0.66736,-0.412449 -0.35119,0.05481 0.61484,0.908645 l 0.96761,0.855244 -0.70303,-0.881945 -0.70303,-0.881944 0.78543,0.664509 c 0.43199,0.36548 0.71065,0.785506 0.61925,0.933392 -0.0914,0.147885 0.14519,0.642607 0.52575,1.09938 0.38056,0.456773 0.69721,0.681733 0.70367,0.499912 0.006,-0.181822 0.48798,0.125691 1.07007,0.683362 0.58208,0.557672 1.05406,1.182685 1.04884,1.388919 -0.005,0.206233 -0.50194,-0.180655 -1.10381,-0.859752 l -1.09433,-1.234722 0.90249,1.234722 c 0.49636,0.679097 1.04892,1.20288 1.22789,1.163963 0.71033,-0.154458 2.70081,2.515321 7.154207,9.595758 6.93692,11.02898 7.77346,12.394666 9.83209,16.051388 1.0377,1.843264 2.32002,4.065763 2.8496,4.938888 0.52959,0.873125 2.03873,3.65125 3.35365,6.173611 3.5434,6.797158 6.56577,12.32371 6.84892,12.52361 0.13742,0.09701 0.52999,0.890764 0.87238,1.763889 0.34239,0.873125 1.03495,2.130607 1.53902,2.794405 0.50408,0.663798 0.72895,1.090991 0.49971,0.949319 -0.22923,-0.141673 -0.41678,-0.184836 -0.41678,-0.09592 0,0.224858 4.48783,9.424285 4.70201,9.638465 0.0957,0.0957 2.21219,-0.33853 4.70335,-0.96493 2.49115,-0.62639 5.24374,-1.15463 6.11686,-1.17387 2.24779,-0.0495 3.96431,1.10491 5.08946,3.42287 0.87779,1.80836 0.88269,1.86617 0.35281,4.16326 -1.01695,4.40863 -5.16162,10.086544 -10.43303,14.292504 -1.32966,1.06092 -2.41757,2.08364 -2.41757,2.2727 0,0.18907 0.68899,1.492 1.5311,2.89539 0.8421,1.4034 2.86331,5.13133 4.49157,8.28428 2.06343,3.9956 3.142,5.73264 3.55955,5.73264 0.48387,0 0.54711,0.18656 0.32883,0.97013 -0.34818,1.24989 0.11512,2.96888 1.02116,3.78884 0.59421,0.53775 0.86107,0.57686 1.60943,0.23589 0.49341,-0.22482 0.92933,-0.40839 0.96871,-0.40794 0.0394,4.5e-4 0.0716,1.17811 0.0716,2.61702 0,2.90154 0.25977,3.48491 1.10061,2.47169 0.52823,-0.63652 0.53189,-0.62519 0.0575,0.17799 -0.42537,0.72026 -0.43541,1.16402 -0.0626,2.7677 0.24419,1.05045 0.35841,2.13288 0.25384,2.4054 -0.29981,0.7813 0.73878,0.5831 1.56289,-0.29825 z M 131.80098,81.344124 c 0.34324,-0.08944 0.81949,-0.08356 1.05833,0.01307 0.23884,0.09663 -0.042,0.169816 -0.62407,0.162627 -0.58209,-0.0072 -0.7775,-0.08625 -0.43426,-0.175697 z m -5.7115,-7.369648 c 0.0169,-0.410966 0.10052,-0.494559 0.21313,-0.213137 0.10191,0.254661 0.0894,0.558932 -0.0279,0.676157 -0.11722,0.117225 -0.2006,-0.09113 -0.18528,-0.46302 z M 80.325053,140.82344 c 1.67776,-1.56972 3.05047,-3.07226 3.05047,-3.33898 0,-0.26671 -0.33386,-0.66361 -0.7419,-0.88199 -0.6069,-0.3248 -1.13652,-0.21471 -2.91042,0.60495 -2.03029,0.93814 -2.44959,1.00036 -6.57824,0.97622 -5.07949,-0.0297 -7.65746,-0.71325 -13.22916,-3.50769 l -3.175,-1.5924 -1.12111,1.31484 c -0.6166,0.72317 -1.06045,1.41298 -0.98633,1.53291 0.31778,0.51418 20.53549,7.70819 21.72294,7.72962 0.67413,0.0122 1.72936,-0.74228 3.96875,-2.83748 z m 50.322687,1.47126 c 0,-0.61751 -10.13395,-21.54777 -10.43294,-21.54777 -0.0739,0 -1.1301,0.37311 -2.3472,0.82913 -1.21711,0.45602 -3.03096,1.02378 -4.0308,1.2617 -1.6821,0.40026 -1.83516,0.52466 -2.04916,1.66537 -0.1272,0.67803 -0.31118,1.44102 -0.40884,1.69552 -0.11396,0.29697 1.16789,1.26418 3.57855,2.70018 2.06586,1.2306 3.90691,2.51922 4.09122,2.86361 0.1843,0.34438 0.22408,0.62615 0.0884,0.62615 -0.1357,0 -2.06366,-0.73533 -4.28434,-1.63407 -4.31332,-1.74565 -4.78337,-1.72335 -4.58098,0.21731 0.0703,0.67438 0.61976,1.17039 2.38444,2.15262 1.26118,0.70198 4.19806,2.35568 6.52639,3.67488 4.35461,2.46726 10.73145,5.77051 11.20069,5.80204 0.14553,0.01 0.26459,-0.12822 0.26459,-0.30667 z m -44.749857,-9.02416 c 0,-0.18433 -0.17066,-0.39203 -0.37924,-0.46155 -0.20858,-0.0695 -0.37923,0.13817 -0.37923,0.46155 0,0.32338 0.17065,0.53108 0.37923,0.46155 0.20858,-0.0695 0.37924,-0.27723 0.37924,-0.46155 z m 2.68968,-4.14514 c 0.48085,-0.58976 1.30053,-3.3946 1.0618,-3.63333 -0.10406,-0.10406 -0.76449,-0.28256 -1.46763,-0.39667 l -1.27843,-0.20746 0.005,1.54547 c 0.009,2.78907 0.69862,3.89496 1.67945,2.69199 z M -106.01816,90.675388 c -0.0796,-3.85281 0.0726,-6.95984 0.49847,-10.174988 0.39045,-2.948057 0.4882,-4.711446 0.26924,-4.856958 -0.18907,-0.125652 -1.69006,-2.054082 -3.33552,-4.285401 -1.64546,-2.23132 -4.54971,-5.803194 -6.4539,-7.9375 -3.8629,-4.329739 -9.74271,-11.56868 -10.38717,-12.788193 -0.7186,-1.359789 0.0733,-0.879469 2.26223,1.372186 1.1581,1.191265 1.8675,2.038938 1.57646,1.883719 -0.29104,-0.15522 -0.42333,-0.164162 -0.29398,-0.01987 0.12935,0.14429 0.29503,0.20943 0.36818,0.144754 0.26545,-0.234712 7.60119,6.406554 11.22871,10.165702 2.04501,2.119206 4.25456,4.68085 4.91011,5.692542 0.65555,1.011692 1.28424,1.835835 1.39709,1.83143 0.11284,-0.0044 0.96364,-2.070345 1.89067,-4.590977 1.28494,-3.493836 1.6023,-4.738439 1.33539,-5.237165 -0.59347,-1.108895 -5.70726,-5.691923 -8.31334,-7.45049 -1.35959,-0.917439 -4.53498,-2.911211 -7.05643,-4.430607 -8.17795,-4.927936 -13.26352,-9.437033 -15.98996,-14.177443 -0.69761,-1.212919 -1.3872,-2.205308 -1.53243,-2.205308 -0.61781,0 -1.12534,3.295403 -1.1138,7.231944 0.0147,5.006447 1.08612,10.273711 3.31784,16.310608 4.06275,10.989878 9.07671,18.134837 16.30093,23.229024 l 3.45036,2.433038 -2.08614,0.377273 c -3.76369,0.68066 -5.3995,2.62418 -4.62612,5.49632 0.79279,2.94417 5.56307,6.49076 9.8657,7.3349 2.7912,0.5476 2.64557,0.857 2.51741,-5.34854 z m 235.96034,-0.28727 c 0,-0.4449 -2.76774,-6.80541 -5.21064,-11.974522 -0.96281,-2.037292 -2.70529,-5.767917 -3.87218,-8.290278 C 113.35376,53.899046 102.58491,36.067921 93.588313,24.967767 90.599173,21.279714 83.543883,14.026054 81.166503,12.196703 l -2.09004,-1.608245 -1.99561,0.567163 c -4.15062,1.179628 -6.34579,1.446431 -11.72294,1.42482 l -5.494,-0.02208 3.02455,2.03502 c 5.47876,3.68629 12.71775,11.094297 19.18115,19.629001 3.37182,4.45237 10.74457,15.616466 13.57456,20.555105 5.552397,9.689547 14.077807,26.527122 16.518437,32.623692 0.65316,1.63158 1.145,2.36285 1.67944,2.49698 2.94027,0.73796 16.10013,1.13844 16.10013,0.489959 z m -21.68415,-2.71411 c -0.65075,-2.61739 -4.93365,-11.840904 -6.3482,-13.671284 -0.60547,-0.78346 -0.59954,-0.752636 0.5394,2.802964 0.43147,1.34697 1.11984,4.441254 1.52971,6.87619 0.74254,4.41118 0.74904,4.42796 1.80077,4.65297 0.58054,0.1242 1.42993,0.24461 1.88752,0.26756 0.73639,0.037 0.80428,-0.0697 0.5908,-0.9284 z m -6.00015,-2.09305 c -0.55684,-3.713313 -3.426617,-16.147319 -4.202667,-18.209087 -2.77233,-7.365411 -13.77126,-25.42427 -20.77736,-34.113827 -3.64071,-4.515505 -10.60551,-11.653483 -13.4815,-13.81669 -2.95074,-2.21944 -6.64772,-4.389413 -8.97058,-5.265352 -1.60477,-0.605153 -2.5336,-0.714969 -5.06058,-0.598311 -2.21219,0.102125 -3.25527,0.303099 -3.65673,0.704558 -0.51371,0.513716 -0.47536,0.616051 0.44922,1.198482 1.41784,0.893156 5.11134,4.031099 5.91697,5.026967 0.37,0.457379 0.99525,1.132067 1.38943,1.499306 1.20215,1.119968 0.38553,0.754417 -2.4504,-1.096902 -3.79097,-2.474767 -7.13843,-4.07901 -7.58324,-3.634201 -0.19639,0.196399 -0.30878,1.286481 -0.24975,2.422404 l 0.10733,2.065315 3.20648,2.13124 c 11.61758,7.721813 19.77427,15.987884 27.76495,28.137279 3.33289,5.067479 8.6211,14.756135 13.30218,24.37125 3.28304,6.743489 4.58999,9.096519 5.11528,9.209509 2.89476,0.62271 7.909187,1.54334 8.594907,1.578 0.79674,0.0403 0.8228,-0.0313 0.58606,-1.60994 z m -13.670857,-1.96389 c -0.64654,-1.87077 -8.51303,-17.383374 -11.1403,-21.968517 -5.55455,-9.693864 -11.13375,-17.61467 -15.7111,-22.305091 -3.46844,-3.554129 -4.55743,-4.229002 -2.56161,-1.5875 1.52714,2.021194 4.95831,7.803321 6.6466,11.200694 2.64063,5.313798 4.49162,10.271918 6.25576,16.756943 1.22681,4.509794 2.41577,8.028461 3.90791,11.565229 0.64617,1.531623 0.8642,2.437268 0.62268,2.586535 -0.22723,0.140437 -0.11644,0.37251 0.2851,0.597226 0.36661,0.205167 0.51982,0.49611 0.34681,0.658577 -0.17047,0.160073 -0.3752,0.109458 -0.45495,-0.112479 -0.19138,-0.532565 -1.41949,-0.196825 -1.67023,0.456607 -0.10996,0.286534 -0.0429,0.417643 0.15198,0.297195 0.19181,-0.118542 0.34874,0.09811 0.34874,0.481446 0,0.383337 0.19844,0.777045 0.44097,0.874915 0.26343,0.1063 0.19242,0.18915 -0.17639,0.20579 -0.33955,0.0153 -0.61736,0.26597 -0.61736,0.55701 0,0.43324 0.60756,0.52917 3.35139,0.52917 2.70724,0 3.35139,-0.0993 3.35139,-0.51648 0,-1.224064 -5.6788,-15.744431 -10.22296,-26.139518 -1.75843,-4.02254 -3.13055,-7.380306 -3.04915,-7.461703 0.28989,-0.289889 4.70158,7.183429 7.95771,13.480202 2.90539,5.618499 7.41389,17.408272 7.42652,19.420419 0.007,1.17615 0.72941,1.56986 2.87897,1.56986 h 2.02776 z m -11.20872,-0.5554 c 0,-0.18285 -0.33348,-0.419655 -0.74105,-0.526239 -0.40806,-0.106708 -0.63649,-0.362982 -0.50835,-0.570311 0.12799,-0.207088 0.0381,-0.376523 -0.19969,-0.376523 -0.23782,0 -0.34529,-0.0871 -0.23884,-0.193557 0.29467,-0.294664 2.04071,0.223319 2.04071,0.605399 0,0.184444 -0.19844,0.234837 -0.44098,0.111984 -0.24253,-0.122854 -0.15366,0.01129 0.1975,0.298091 0.40538,0.331082 0.50197,0.605826 0.26459,0.752536 -0.20564,0.12709 -0.37389,0.0815 -0.37389,-0.10138 z m 76.173777,-1.988686 c 1.50733,-0.779467 2.18538,-2.866665 2.17492,-6.694881 -0.021,-7.666608 -4.50128,-16.871522 -10.78671,-22.161455 -5.24737,-4.416277 -7.88899,-3.353155 -8.22428,3.309866 -0.28324,5.628716 1.37673,11.320034 5.006,17.16339 4.40679,7.095228 8.58921,10.058993 11.83007,8.38308 z M 40.336633,18.023592 c 0,-3.502927 1.68235,-5.566676 5.66316,-6.947029 1.70459,-0.59107 1.82198,-0.691521 1.03962,-0.889624 -1.56523,-0.3963347 -7.89803,-1.2663367 -9.23335,-1.2684797 -2.42718,-0.0039 -4.52498,2.6631037 -4.52498,5.7527567 v 1.591264 l 3.26319,1.772068 c 1.79476,0.974638 3.38226,1.78239 3.52778,1.795005 0.14552,0.01262 0.26458,-0.800067 0.26458,-1.805961 z m -10.92836,-5.159283 c 0.004,-0.328098 0.314,-1.271229 0.68831,-2.095847 0.62612,-1.3793707 0.63255,-1.4986847 0.0805,-1.4915577 -0.98051,0.01266 -3.36231,1.2450487 -4.23102,2.1892097 l -0.80869,0.878923 1.86702,0.693756 c 2.03334,0.755561 2.39219,0.729515 2.40393,-0.174484 z m -8.82719,-0.558387 c 0,-0.934916 -3.20023,-4.0555507 -5.12443,-4.9969727 -2.63771,-1.290513 -6.4171597,-1.165707 -9.4276497,0.311322 -1.11566,0.547372 -2.02847,1.124005 -2.02847,1.281406 0,0.157401 0.91281,0.394286 2.02847,0.526411 2.79838,0.331407 9.5068497,1.8386367 11.7853397,2.6478777 2.3124,0.821288 2.76674,0.85905 2.76674,0.229956 z m 52.11844,-4.2966957 c 5.44552,-1.216931 11.02714,-4.174641 14.70508,-7.792246 6.07147,-5.97187 7.7389,-14.5991633 4.19939,-21.7276823 -0.45761,-0.921631 -0.95848,-1.675694 -1.11304,-1.675694 -0.15455,0 -0.73052,1.150868 -1.27993,2.557484 -1.81264,4.640833 -4.32763,7.737788 -8.51619,10.486821 -3.54341,2.3256133 -7.53431,3.5894203 -12.01811,3.8058023 -4.36257,0.210532 -7.82001,-0.262672 -14.75814,-2.0198745 -11.22178,-2.8421118 -14.78689,-3.3194238 -20.87874,-2.7953328 -6.28476,0.540688 -11.29088,2.6398507 -15.60413,6.5431173 -1.92396,1.741092 -5.67407,6.69156 -5.67407,7.490274 0,0.207129 0.43656,0.473255 0.97014,0.591391 3.53433,0.78252 5.78915,1.885438 7.77473,3.802919 l 1.51293,1.46104 1.1329,-0.681108 c 6.79247,-4.083676 11.94031,-4.366301 26.35652,-1.447018 11.52199,2.333205 17.42144,2.689377 23.19066,1.400107 z"
       id="path1" /></g></svg>
